<?xml version="1.0" encoding="utf-8" standalone="no"?>
<!DOCTYPE svg PUBLIC "-//W3C//DTD SVG 1.1//EN"
  "http://www.w3.org/Graphics/SVG/1.1/DTD/svg11.dtd">
<svg xmlns:xlink="http://www.w3.org/1999/xlink" width="460.8pt" height="345.6pt" viewBox="0 0 460.8 345.6" xmlns="http://www.w3.org/2000/svg" version="1.1">
 <metadata>
  <rdf:RDF xmlns:dc="http://purl.org/dc/elements/1.1/" xmlns:cc="http://creativecommons.org/ns#" xmlns:rdf="http://www.w3.org/1999/02/22-rdf-syntax-ns#">
   <cc:Work>
    <dc:type rdf:resource="http://purl.org/dc/dcmitype/StillImage"/>
    <dc:date>2023-04-04T07:11:20.341900</dc:date>
    <dc:format>image/svg+xml</dc:format>
    <dc:creator>
     <cc:Agent>
      <dc:title>Matplotlib v3.5.2, https://matplotlib.org/</dc:title>
     </cc:Agent>
    </dc:creator>
   </cc:Work>
  </rdf:RDF>
 </metadata>
 <defs>
  <style type="text/css">*{stroke-linejoin: round; stroke-linecap: butt}</style>
 </defs>
 <g id="figure_1">
  <g id="patch_1">
   <path d="M 0 345.6 
L 460.8 345.6 
L 460.8 0 
L 0 0 
z
" style="fill: #ffffff"/>
  </g>
  <g id="axes_1">
   <g id="patch_2">
    <path d="M 57.6 307.584 
L 414.72 307.584 
L 414.72 41.472 
L 57.6 41.472 
z
" style="fill: #ffffff"/>
   </g>
   <g id="matplotlib.axis_1">
    <g id="xtick_1">
     <g id="line2d_1">
      <defs>
       <path id="mfe43fedec6" d="M 0 0 
L 0 3.5 
" style="stroke: #000000; stroke-width: 0.8"/>
      </defs>
      <g>
       <use xlink:href="#mfe43fedec6" x="73.832727" y="307.584" style="stroke: #000000; stroke-width: 0.8"/>
      </g>
     </g>
     <g id="text_1">
      <!-- 0 -->
      <g transform="translate(70.651477 322.182437)scale(0.1 -0.1)">
       <defs>
        <path id="DejaVuSans-30" d="M 2034 4250 
Q 1547 4250 1301 3770 
Q 1056 3291 1056 2328 
Q 1056 1369 1301 889 
Q 1547 409 2034 409 
Q 2525 409 2770 889 
Q 3016 1369 3016 2328 
Q 3016 3291 2770 3770 
Q 2525 4250 2034 4250 
z
M 2034 4750 
Q 2819 4750 3233 4129 
Q 3647 3509 3647 2328 
Q 3647 1150 3233 529 
Q 2819 -91 2034 -91 
Q 1250 -91 836 529 
Q 422 1150 422 2328 
Q 422 3509 836 4129 
Q 1250 4750 2034 4750 
z
" transform="scale(0.015625)"/>
       </defs>
       <use xlink:href="#DejaVuSans-30"/>
      </g>
     </g>
    </g>
    <g id="xtick_2">
     <g id="line2d_2">
      <g>
       <use xlink:href="#mfe43fedec6" x="141.076834" y="307.584" style="stroke: #000000; stroke-width: 0.8"/>
      </g>
     </g>
     <g id="text_2">
      <!-- 500 -->
      <g transform="translate(131.533084 322.182437)scale(0.1 -0.1)">
       <defs>
        <path id="DejaVuSans-35" d="M 691 4666 
L 3169 4666 
L 3169 4134 
L 1269 4134 
L 1269 2991 
Q 1406 3038 1543 3061 
Q 1681 3084 1819 3084 
Q 2600 3084 3056 2656 
Q 3513 2228 3513 1497 
Q 3513 744 3044 326 
Q 2575 -91 1722 -91 
Q 1428 -91 1123 -41 
Q 819 9 494 109 
L 494 744 
Q 775 591 1075 516 
Q 1375 441 1709 441 
Q 2250 441 2565 725 
Q 2881 1009 2881 1497 
Q 2881 1984 2565 2268 
Q 2250 2553 1709 2553 
Q 1456 2553 1204 2497 
Q 953 2441 691 2322 
L 691 4666 
z
" transform="scale(0.015625)"/>
       </defs>
       <use xlink:href="#DejaVuSans-35"/>
       <use xlink:href="#DejaVuSans-30" x="63.623047"/>
       <use xlink:href="#DejaVuSans-30" x="127.246094"/>
      </g>
     </g>
    </g>
    <g id="xtick_3">
     <g id="line2d_3">
      <g>
       <use xlink:href="#mfe43fedec6" x="208.32094" y="307.584" style="stroke: #000000; stroke-width: 0.8"/>
      </g>
     </g>
     <g id="text_3">
      <!-- 1000 -->
      <g transform="translate(195.59594 322.182437)scale(0.1 -0.1)">
       <defs>
        <path id="DejaVuSans-31" d="M 794 531 
L 1825 531 
L 1825 4091 
L 703 3866 
L 703 4441 
L 1819 4666 
L 2450 4666 
L 2450 531 
L 3481 531 
L 3481 0 
L 794 0 
L 794 531 
z
" transform="scale(0.015625)"/>
       </defs>
       <use xlink:href="#DejaVuSans-31"/>
       <use xlink:href="#DejaVuSans-30" x="63.623047"/>
       <use xlink:href="#DejaVuSans-30" x="127.246094"/>
       <use xlink:href="#DejaVuSans-30" x="190.869141"/>
      </g>
     </g>
    </g>
    <g id="xtick_4">
     <g id="line2d_4">
      <g>
       <use xlink:href="#mfe43fedec6" x="275.565046" y="307.584" style="stroke: #000000; stroke-width: 0.8"/>
      </g>
     </g>
     <g id="text_4">
      <!-- 1500 -->
      <g transform="translate(262.840046 322.182437)scale(0.1 -0.1)">
       <use xlink:href="#DejaVuSans-31"/>
       <use xlink:href="#DejaVuSans-35" x="63.623047"/>
       <use xlink:href="#DejaVuSans-30" x="127.246094"/>
       <use xlink:href="#DejaVuSans-30" x="190.869141"/>
      </g>
     </g>
    </g>
    <g id="xtick_5">
     <g id="line2d_5">
      <g>
       <use xlink:href="#mfe43fedec6" x="342.809153" y="307.584" style="stroke: #000000; stroke-width: 0.8"/>
      </g>
     </g>
     <g id="text_5">
      <!-- 2000 -->
      <g transform="translate(330.084153 322.182437)scale(0.1 -0.1)">
       <defs>
        <path id="DejaVuSans-32" d="M 1228 531 
L 3431 531 
L 3431 0 
L 469 0 
L 469 531 
Q 828 903 1448 1529 
Q 2069 2156 2228 2338 
Q 2531 2678 2651 2914 
Q 2772 3150 2772 3378 
Q 2772 3750 2511 3984 
Q 2250 4219 1831 4219 
Q 1534 4219 1204 4116 
Q 875 4013 500 3803 
L 500 4441 
Q 881 4594 1212 4672 
Q 1544 4750 1819 4750 
Q 2544 4750 2975 4387 
Q 3406 4025 3406 3419 
Q 3406 3131 3298 2873 
Q 3191 2616 2906 2266 
Q 2828 2175 2409 1742 
Q 1991 1309 1228 531 
z
" transform="scale(0.015625)"/>
       </defs>
       <use xlink:href="#DejaVuSans-32"/>
       <use xlink:href="#DejaVuSans-30" x="63.623047"/>
       <use xlink:href="#DejaVuSans-30" x="127.246094"/>
       <use xlink:href="#DejaVuSans-30" x="190.869141"/>
      </g>
     </g>
    </g>
    <g id="xtick_6">
     <g id="line2d_6">
      <g>
       <use xlink:href="#mfe43fedec6" x="410.053259" y="307.584" style="stroke: #000000; stroke-width: 0.8"/>
      </g>
     </g>
     <g id="text_6">
      <!-- 2500 -->
      <g transform="translate(397.328259 322.182437)scale(0.1 -0.1)">
       <use xlink:href="#DejaVuSans-32"/>
       <use xlink:href="#DejaVuSans-35" x="63.623047"/>
       <use xlink:href="#DejaVuSans-30" x="127.246094"/>
       <use xlink:href="#DejaVuSans-30" x="190.869141"/>
      </g>
     </g>
    </g>
   </g>
   <g id="matplotlib.axis_2">
    <g id="ytick_1">
     <g id="line2d_7">
      <defs>
       <path id="mdac00cdbf0" d="M 0 0 
L -3.5 0 
" style="stroke: #000000; stroke-width: 0.8"/>
      </defs>
      <g>
       <use xlink:href="#mdac00cdbf0" x="57.6" y="283.009371" style="stroke: #000000; stroke-width: 0.8"/>
      </g>
     </g>
     <g id="text_7">
      <!-- 100 -->
      <g transform="translate(31.5125 286.808589)scale(0.1 -0.1)">
       <use xlink:href="#DejaVuSans-31"/>
       <use xlink:href="#DejaVuSans-30" x="63.623047"/>
       <use xlink:href="#DejaVuSans-30" x="127.246094"/>
      </g>
     </g>
    </g>
    <g id="ytick_2">
     <g id="line2d_8">
      <g>
       <use xlink:href="#mdac00cdbf0" x="57.6" y="234.663074" style="stroke: #000000; stroke-width: 0.8"/>
      </g>
     </g>
     <g id="text_8">
      <!-- 200 -->
      <g transform="translate(31.5125 238.462293)scale(0.1 -0.1)">
       <use xlink:href="#DejaVuSans-32"/>
       <use xlink:href="#DejaVuSans-30" x="63.623047"/>
       <use xlink:href="#DejaVuSans-30" x="127.246094"/>
      </g>
     </g>
    </g>
    <g id="ytick_3">
     <g id="line2d_9">
      <g>
       <use xlink:href="#mdac00cdbf0" x="57.6" y="186.316778" style="stroke: #000000; stroke-width: 0.8"/>
      </g>
     </g>
     <g id="text_9">
      <!-- 300 -->
      <g transform="translate(31.5125 190.115996)scale(0.1 -0.1)">
       <defs>
        <path id="DejaVuSans-33" d="M 2597 2516 
Q 3050 2419 3304 2112 
Q 3559 1806 3559 1356 
Q 3559 666 3084 287 
Q 2609 -91 1734 -91 
Q 1441 -91 1130 -33 
Q 819 25 488 141 
L 488 750 
Q 750 597 1062 519 
Q 1375 441 1716 441 
Q 2309 441 2620 675 
Q 2931 909 2931 1356 
Q 2931 1769 2642 2001 
Q 2353 2234 1838 2234 
L 1294 2234 
L 1294 2753 
L 1863 2753 
Q 2328 2753 2575 2939 
Q 2822 3125 2822 3475 
Q 2822 3834 2567 4026 
Q 2313 4219 1838 4219 
Q 1578 4219 1281 4162 
Q 984 4106 628 3988 
L 628 4550 
Q 988 4650 1302 4700 
Q 1616 4750 1894 4750 
Q 2613 4750 3031 4423 
Q 3450 4097 3450 3541 
Q 3450 3153 3228 2886 
Q 3006 2619 2597 2516 
z
" transform="scale(0.015625)"/>
       </defs>
       <use xlink:href="#DejaVuSans-33"/>
       <use xlink:href="#DejaVuSans-30" x="63.623047"/>
       <use xlink:href="#DejaVuSans-30" x="127.246094"/>
      </g>
     </g>
    </g>
    <g id="ytick_4">
     <g id="line2d_10">
      <g>
       <use xlink:href="#mdac00cdbf0" x="57.6" y="137.970481" style="stroke: #000000; stroke-width: 0.8"/>
      </g>
     </g>
     <g id="text_10">
      <!-- 400 -->
      <g transform="translate(31.5125 141.7697)scale(0.1 -0.1)">
       <defs>
        <path id="DejaVuSans-34" d="M 2419 4116 
L 825 1625 
L 2419 1625 
L 2419 4116 
z
M 2253 4666 
L 3047 4666 
L 3047 1625 
L 3713 1625 
L 3713 1100 
L 3047 1100 
L 3047 0 
L 2419 0 
L 2419 1100 
L 313 1100 
L 313 1709 
L 2253 4666 
z
" transform="scale(0.015625)"/>
       </defs>
       <use xlink:href="#DejaVuSans-34"/>
       <use xlink:href="#DejaVuSans-30" x="63.623047"/>
       <use xlink:href="#DejaVuSans-30" x="127.246094"/>
      </g>
     </g>
    </g>
    <g id="ytick_5">
     <g id="line2d_11">
      <g>
       <use xlink:href="#mdac00cdbf0" x="57.6" y="89.624184" style="stroke: #000000; stroke-width: 0.8"/>
      </g>
     </g>
     <g id="text_11">
      <!-- 500 -->
      <g transform="translate(31.5125 93.423403)scale(0.1 -0.1)">
       <use xlink:href="#DejaVuSans-35"/>
       <use xlink:href="#DejaVuSans-30" x="63.623047"/>
       <use xlink:href="#DejaVuSans-30" x="127.246094"/>
      </g>
     </g>
    </g>
   </g>
   <g id="line2d_12">
    <path d="M 73.832727 286.115137 
L 74.101704 285.559638 
L 74.236192 284.436553 
L 74.37068 285.411215 
L 74.505168 284.913248 
L 74.639657 285.521928 
L 74.774145 278.977773 
L 74.908633 251.558654 
L 75.177609 250.048799 
L 75.312098 250.610583 
L 75.446586 250.663764 
L 75.581074 251.540283 
L 75.715562 250.775444 
L 75.85005 250.753205 
L 76.253515 245.711653 
L 76.522492 280.153071 
L 76.65698 280.46974 
L 76.925956 278.743777 
L 77.060444 269.788109 
L 77.194933 272.057001 
L 77.463909 272.121301 
L 77.598397 273.723497 
L 77.732885 268.337237 
L 77.867374 254.779001 
L 78.405327 104.677771 
L 78.674303 103.745654 
L 78.808791 110.96424 
L 78.943279 106.107371 
L 79.481232 159.399493 
L 79.750209 230.568626 
L 80.019185 265.681574 
L 80.153673 267.8296 
L 80.288161 263.951744 
L 80.42265 274.464646 
L 80.557138 274.025178 
L 80.826114 276.560942 
L 80.960603 273.992303 
L 81.095091 263.562556 
L 81.364067 169.701606 
L 81.498555 182.140624 
L 81.767532 162.51783 
L 82.036508 170.610516 
L 82.170996 167.474775 
L 82.305485 161.432939 
L 83.112414 263.079093 
L 83.650367 289.55691 
L 83.784855 289.577698 
L 83.919343 291.12333 
L 84.053831 291.317682 
L 84.18832 289.197213 
L 84.322808 281.891604 
L 84.726273 190.747716 
L 84.860761 181.985433 
L 84.995249 186.127744 
L 85.129737 171.078992 
L 85.264225 179.716541 
L 85.398714 180.472194 
L 85.66769 188.861243 
L 85.802178 197.729404 
L 86.340131 265.22857 
L 86.474619 267.263949 
L 86.609107 272.229113 
L 86.878084 289.943196 
L 87.012572 292.21934 
L 87.14706 291.889135 
L 87.281549 293.396572 
L 87.416037 293.298429 
L 87.550525 292.477993 
L 87.819501 264.666786 
L 87.95399 264.814242 
L 88.088478 259.064417 
L 88.222966 260.540429 
L 88.357454 259.77414 
L 88.491942 256.378297 
L 88.626431 259.244749 
L 88.760919 252.172652 
L 88.895407 255.082132 
L 89.029895 255.080682 
L 89.164384 257.67011 
L 89.43336 279.208868 
L 89.567848 280.890836 
L 89.702336 280.387067 
L 89.836825 281.458905 
L 89.971313 266.140381 
L 90.105801 266.861708 
L 90.240289 268.423293 
L 90.374777 268.190264 
L 90.509266 269.440016 
L 90.643754 269.613579 
L 90.778242 271.736465 
L 90.91273 268.477441 
L 91.047218 258.427696 
L 91.181707 257.243695 
L 91.316195 250.234933 
L 91.450683 254.719052 
L 91.585171 252.731052 
L 91.71966 254.246225 
L 91.854148 254.474903 
L 92.123124 257.491228 
L 92.257612 256.91204 
L 92.526589 262.570007 
L 92.795565 269.241312 
L 92.930053 270.207271 
L 93.064542 269.053729 
L 93.19903 279.185179 
L 93.468006 279.311362 
L 93.602495 280.384167 
L 93.736983 279.135865 
L 93.871471 276.583664 
L 94.005959 271.304249 
L 94.6784 162.808391 
L 94.812888 158.359565 
L 95.081865 170.358632 
L 95.216353 165.080667 
L 95.350841 153.681577 
L 96.023282 267.594637 
L 96.157771 268.332885 
L 96.426747 272.306951 
L 96.561235 271.969494 
L 96.695723 272.047815 
L 96.830212 273.953142 
L 96.9647 273.307719 
L 97.099188 271.863132 
L 97.233676 263.293751 
L 97.368164 245.519718 
L 97.502653 204.00427 
L 97.637141 196.822911 
L 97.771629 181.164029 
L 97.906117 189.660891 
L 98.040606 182.866786 
L 98.175094 183.585212 
L 98.309582 178.201852 
L 98.44407 179.863997 
L 98.713047 191.370416 
L 98.982023 233.823299 
L 99.250999 269.09434 
L 99.385488 273.837595 
L 99.519976 274.600983 
L 99.654464 284.525027 
L 99.788952 284.537597 
L 99.923441 283.524259 
L 100.192417 284.777395 
L 100.326905 284.8591 
L 100.461393 284.196272 
L 100.595882 284.607216 
L 100.73037 285.446024 
L 100.864858 283.88879 
L 100.999346 285.05877 
L 101.133834 284.139707 
L 101.268323 281.897406 
L 101.402811 274.786632 
L 101.537299 279.110725 
L 101.806276 268.598307 
L 101.940764 270.785493 
L 102.075252 270.635136 
L 102.20974 271.291195 
L 102.344228 273.698841 
L 102.478717 279.587903 
L 102.613205 277.713034 
L 102.747693 283.452223 
L 102.882181 269.830654 
L 103.016669 269.859661 
L 103.151158 274.825793 
L 103.285646 274.603883 
L 103.554622 270.372132 
L 103.68911 266.132645 
L 103.823599 248.494466 
L 104.092575 185.467333 
L 104.227063 163.722136 
L 104.361552 170.97408 
L 104.630528 145.796296 
L 105.033993 161.30047 
L 105.168481 172.211746 
L 105.706434 256.288373 
L 105.840922 256.164606 
L 105.97541 264.969434 
L 106.109898 281.60201 
L 106.378875 284.830092 
L 106.513363 284.816072 
L 106.647851 286.99939 
L 106.782339 286.727684 
L 106.916828 287.852703 
L 107.320292 249.823022 
L 107.45478 256.972956 
L 107.589269 254.408185 
L 107.723757 254.501977 
L 108.26171 249.377269 
L 108.396198 245.928728 
L 108.530686 248.215991 
L 108.934151 280.211087 
L 109.068639 281.744631 
L 109.203127 280.664575 
L 109.337615 276.114222 
L 109.606592 277.681609 
L 109.875568 278.746678 
L 110.144545 279.808362 
L 110.413521 278.55571 
L 110.548009 278.419373 
L 110.951474 274.321058 
L 111.085962 275.508443 
L 111.22045 275.156965 
L 111.623915 269.292559 
L 111.758403 269.80648 
L 112.02738 273.632606 
L 112.430844 275.248823 
L 112.565333 264.887728 
L 112.834309 269.136401 
L 112.968797 269.665793 
L 113.103285 271.192085 
L 113.237774 271.372417 
L 113.50675 274.018893 
L 113.641238 274.858185 
L 114.313679 263.501156 
L 114.448168 263.136142 
L 114.582656 261.63789 
L 114.98612 250.689871 
L 115.524073 261.871403 
L 115.658561 262.427385 
L 115.927538 264.676938 
L 116.062026 263.379324 
L 116.196514 269.541543 
L 116.331002 269.119963 
L 116.465491 269.737345 
L 116.599979 259.879052 
L 117.137932 79.38879 
L 117.406908 64.538258 
L 117.810373 81.244804 
L 118.213837 149.124455 
L 118.482814 212.093572 
L 118.75179 246.873898 
L 118.886279 248.423397 
L 119.289743 256.498195 
L 119.424231 257.930696 
L 119.55872 260.729947 
L 119.693208 261.049999 
L 119.827696 251.336745 
L 120.365649 92.376539 
L 120.634625 73.622044 
L 120.769114 77.350994 
L 120.903602 70.866305 
L 121.03809 72.207915 
L 121.441555 136.283195 
L 121.710531 203.792997 
L 121.845019 232.259296 
L 122.248484 243.335433 
L 122.51746 259.008819 
L 122.651948 259.169812 
L 122.786437 260.926233 
L 122.920925 259.572053 
L 123.055413 251.328526 
L 123.727854 60.54147 
L 123.862342 53.568 
L 124.534783 108.249595 
L 125.072736 250.62267 
L 125.207225 255.846004 
L 125.341713 256.313996 
L 125.476201 256.2671 
L 125.745177 270.0047 
L 125.879666 271.456056 
L 126.014154 271.688118 
L 126.28313 258.100392 
L 126.821083 93.493339 
L 126.955571 74.955918 
L 127.09006 81.620939 
L 127.359036 106.407601 
L 127.493524 108.875196 
L 127.762501 127.560073 
L 127.896989 150.594183 
L 128.300453 248.988565 
L 128.434942 254.849587 
L 128.56943 253.003725 
L 128.703918 260.58104 
L 128.838406 261.31252 
L 129.241871 268.073749 
L 129.510847 247.152373 
L 130.0488 83.816827 
L 130.183288 74.61556 
L 130.317777 86.655238 
L 130.452265 115.772279 
L 130.586753 114.844514 
L 130.721241 111.160042 
L 130.855729 117.61524 
L 131.124706 171.430469 
L 131.393682 237.7437 
L 131.662659 261.079974 
L 131.931635 260.881754 
L 132.066123 260.697555 
L 132.3351 272.084075 
L 132.469588 271.934201 
L 132.604076 272.034278 
L 132.738564 271.992217 
L 133.007541 259.980096 
L 133.276517 249.414013 
L 133.679982 243.779252 
L 133.81447 242.585098 
L 133.948958 237.434284 
L 134.486911 247.411509 
L 134.755888 254.570145 
L 134.890376 254.454114 
L 135.697305 268.841005 
L 135.831793 273.639375 
L 135.966282 274.254823 
L 136.10077 272.25232 
L 136.235258 273.770877 
L 136.369746 273.493853 
L 136.504234 269.150905 
L 136.638723 268.990395 
L 136.907699 267.036238 
L 137.311164 256.04374 
L 137.445652 256.558628 
L 137.58014 253.849302 
L 137.983605 260.730914 
L 138.118093 259.820069 
L 138.252581 261.673183 
L 138.387069 266.209999 
L 138.521558 264.964599 
L 138.656046 265.167653 
L 138.925022 269.909942 
L 139.193999 253.503626 
L 139.731951 81.944375 
L 139.86644 72.937944 
L 140.269904 99.208838 
L 140.538881 123.881403 
L 140.673369 131.043424 
L 140.807857 145.547796 
L 141.076834 226.462092 
L 141.480298 259.98493 
L 142.018251 268.508382 
L 142.152739 268.039907 
L 142.421716 244.064978 
L 142.959669 92.043433 
L 143.094157 84.552658 
L 143.228645 84.060009 
L 143.363133 94.388712 
L 143.497621 85.021134 
L 143.63211 90.199505 
L 144.573527 261.245318 
L 144.708015 264.770247 
L 144.842504 264.947678 
L 145.11148 267.212702 
L 145.245968 269.377649 
L 145.380456 265.258544 
L 145.783921 203.473428 
L 146.052897 110.85401 
L 146.187386 91.539665 
L 146.456362 107.008062 
L 146.59085 118.444862 
L 146.725339 112.696488 
L 146.859827 120.185812 
L 146.994315 115.056754 
L 147.128803 128.047404 
L 147.532268 236.414177 
L 147.801244 262.697641 
L 147.935732 262.902146 
L 148.204709 268.228941 
L 148.339197 268.207185 
L 148.473685 268.716271 
L 148.742662 267.651686 
L 148.87715 249.775643 
L 149.280615 120.048509 
L 149.415103 115.965181 
L 149.549591 106.783252 
L 149.684079 108.052826 
L 150.087544 141.125077 
L 150.222032 133.347608 
L 150.35652 138.928705 
L 150.894473 255.03427 
L 151.028961 264.308056 
L 151.16345 263.33968 
L 151.835891 271.60593 
L 151.970379 270.319435 
L 152.104867 249.136988 
L 152.508332 113.971863 
L 152.64282 117.115339 
L 152.911796 105.129809 
L 153.046285 119.436928 
L 153.180773 117.919338 
L 153.449749 152.777018 
L 153.718726 194.180786 
L 153.987702 251.437305 
L 154.12219 268.678561 
L 154.256678 270.072869 
L 154.525655 273.978282 
L 154.794631 275.701344 
L 155.063608 278.678993 
L 155.198096 280.339205 
L 155.332584 279.688463 
L 155.467072 275.258492 
L 155.601561 264.665335 
L 155.736049 263.794619 
L 155.870537 260.897225 
L 156.005025 263.060238 
L 156.274002 261.141857 
L 156.40849 261.684303 
L 156.542978 262.951943 
L 156.677466 261.741835 
L 157.215419 269.840806 
L 157.349907 271.869417 
L 157.484396 270.866231 
L 157.618884 271.64509 
L 157.88786 274.856735 
L 158.022348 275.343098 
L 158.291325 278.375862 
L 158.560301 282.705272 
L 158.694789 281.121448 
L 158.829278 282.096593 
L 158.963766 281.695802 
L 159.232742 278.951182 
L 159.367231 279.236426 
L 159.501719 277.230538 
L 160.039672 262.989169 
L 160.308648 263.251206 
L 160.443136 269.03439 
L 160.577624 268.747697 
L 160.712113 266.770333 
L 160.846601 267.480057 
L 160.981089 268.988945 
L 161.250066 272.787997 
L 161.519042 273.750088 
L 161.788018 256.797942 
L 162.460459 84.247593 
L 162.594948 83.907235 
L 162.729436 82.431706 
L 162.998412 102.242568 
L 163.132901 111.28816 
L 163.401877 153.017782 
L 163.670853 224.541777 
L 164.074318 259.014137 
L 164.208806 260.159944 
L 164.477783 272.957209 
L 164.612271 275.345032 
L 164.746759 270.590174 
L 165.015735 252.884793 
L 165.4192 121.679229 
L 165.553688 124.307334 
L 165.822665 110.259351 
L 165.957153 115.573576 
L 166.091641 112.454273 
L 166.360618 100.872434 
L 166.495106 107.135213 
L 166.89857 223.632383 
L 167.033059 230.681757 
L 167.302035 249.276226 
L 167.974476 267.946115 
L 168.108964 262.209343 
L 168.243453 248.041461 
L 168.377941 209.541371 
L 168.646917 106.959233 
L 168.781405 108.256364 
L 168.915894 103.680387 
L 169.050382 104.994923 
L 169.18487 108.832652 
L 169.319358 93.334763 
L 169.453847 95.840551 
L 169.857311 149.809039 
L 170.126288 228.875055 
L 170.395264 260.032793 
L 170.529752 260.922365 
L 170.66424 264.397497 
L 170.798729 264.588948 
L 171.067705 266.941962 
L 171.202193 269.807931 
L 171.47117 247.778457 
L 172.009123 111.066734 
L 172.143611 109.472757 
L 172.412587 97.584886 
L 172.95054 130.44683 
L 173.622981 262.024177 
L 173.757469 266.057709 
L 173.891958 279.586453 
L 174.026446 278.647084 
L 174.160934 278.602606 
L 174.42991 280.150654 
L 174.698887 265.195211 
L 174.833375 247.880952 
L 175.102351 178.597324 
L 175.371328 144.852093 
L 175.505816 141.91989 
L 175.640304 152.199763 
L 175.774792 151.885996 
L 175.909281 153.310761 
L 176.043769 158.171498 
L 176.178257 157.860147 
L 176.312745 172.496505 
L 176.581722 240.919568 
L 176.850698 268.35174 
L 176.985186 265.829514 
L 177.254163 270.617731 
L 177.388651 270.573736 
L 177.792116 277.206848 
L 177.926604 278.10754 
L 178.19558 267.26975 
L 178.330069 266.824481 
L 178.599045 259.171262 
L 178.733533 258.599325 
L 178.868021 260.933968 
L 179.136998 257.383416 
L 179.271486 257.986294 
L 179.540462 255.471804 
L 179.809439 263.065073 
L 179.943927 270.419995 
L 180.212904 268.496296 
L 180.48188 278.478839 
L 180.616368 278.49286 
L 180.750856 278.869477 
L 180.885345 279.710703 
L 181.019833 279.79821 
L 181.692274 267.343237 
L 181.826762 268.654388 
L 181.96125 262.599982 
L 182.095738 264.403298 
L 182.364715 269.906074 
L 182.499203 271.199337 
L 182.633691 274.384391 
L 182.902668 273.556703 
L 183.171644 279.760499 
L 183.306132 281.193484 
L 183.440621 280.070399 
L 183.575109 277.741075 
L 183.844085 289.613958 
L 183.978573 290.576533 
L 184.113062 288.270415 
L 184.382038 276.748525 
L 184.919991 183.924119 
L 185.054479 187.987626 
L 185.188967 180.83044 
L 185.457944 184.736821 
L 185.592432 186.253927 
L 185.995897 224.460072 
L 186.264873 255.422974 
L 186.53385 271.368066 
L 186.802826 281.744631 
L 187.071802 292.36728 
L 187.206291 291.203101 
L 187.340779 292.350842 
L 187.475267 289.13533 
L 187.609755 281.041193 
L 188.01322 204.223279 
L 188.147708 187.627446 
L 188.282196 187.848872 
L 188.416684 186.879045 
L 188.551173 190.230894 
L 188.685661 196.709297 
L 188.820149 192.244517 
L 188.954637 196.732987 
L 189.089126 205.206159 
L 189.627078 267.9524 
L 189.761567 270.572286 
L 189.896055 275.87104 
L 190.030543 273.405862 
L 190.299519 275.259459 
L 190.434008 274.074008 
L 190.971961 277.539954 
L 191.106449 274.045967 
L 191.240937 273.554769 
L 191.375425 273.998588 
L 191.509913 269.516403 
L 191.644402 271.084273 
L 191.913378 269.803096 
L 192.182354 264.098717 
L 192.316843 264.451645 
L 192.451331 263.947393 
L 192.585819 265.284168 
L 192.720307 271.123917 
L 192.989284 272.396875 
L 193.392748 269.676912 
L 193.661725 272.594128 
L 193.796213 273.135123 
L 194.065189 265.152183 
L 194.603142 160.141609 
L 194.73763 155.170159 
L 194.872119 145.097209 
L 195.006607 146.692153 
L 195.141095 151.493907 
L 195.275583 144.005066 
L 195.54456 157.561851 
L 195.948024 252.73492 
L 196.217001 263.197542 
L 196.351489 265.147831 
L 196.485977 274.736836 
L 196.620465 274.076425 
L 196.889442 274.640143 
L 197.02393 275.782566 
L 197.158418 274.031463 
L 197.292907 267.632348 
L 197.830859 198.072663 
L 197.965348 200.412624 
L 198.099836 197.054007 
L 198.234324 201.512019 
L 198.5033 188.022918 
L 198.772277 201.992581 
L 199.31023 275.421419 
L 199.713694 284.645893 
L 199.848183 283.462859 
L 200.117159 284.199656 
L 200.251647 282.394406 
L 200.386135 276.544504 
L 200.520624 276.136461 
L 200.655112 263.019144 
L 200.7896 215.215776 
L 200.924088 213.221492 
L 201.058576 201.394054 
L 201.193065 201.031456 
L 201.327553 198.313428 
L 201.462041 200.512701 
L 201.731018 188.567781 
L 201.865506 189.945651 
L 202.134482 212.919811 
L 202.403459 267.049775 
L 202.806923 276.968984 
L 203.0759 268.393318 
L 203.210388 272.773493 
L 203.344876 272.901127 
L 203.748341 263.409299 
L 203.882829 245.808346 
L 204.151805 183.085795 
L 204.420782 166.411157 
L 204.55527 160.713062 
L 204.689758 164.192062 
L 204.824246 157.612614 
L 204.958735 173.83328 
L 205.093223 174.082747 
L 205.765664 262.821408 
L 205.900152 263.338713 
L 206.03464 267.185628 
L 206.169129 282.217458 
L 206.303617 282.704305 
L 206.572593 286.691425 
L 206.84157 287.512828 
L 207.110546 278.008913 
L 207.379522 268.712887 
L 207.514011 267.824282 
L 207.917475 276.042186 
L 208.051964 275.792719 
L 208.32094 269.353476 
L 208.589916 270.97501 
L 208.858893 279.125713 
L 208.993381 282.824204 
L 209.127869 283.414996 
L 209.262357 282.864332 
L 209.396846 276.937559 
L 209.531334 278.048557 
L 209.80031 277.628428 
L 209.934799 278.631613 
L 210.203775 266.300407 
L 211.010704 109.263901 
L 211.279681 135.201689 
L 211.683145 168.710507 
L 212.221098 257.430312 
L 212.355586 259.924497 
L 212.759051 275.353251 
L 212.893539 275.143428 
L 213.028027 275.244955 
L 213.162516 277.926724 
L 213.431492 260.004269 
L 213.56598 221.453415 
L 213.834957 136.496402 
L 213.969445 141.138614 
L 214.103933 140.033901 
L 214.238421 143.031855 
L 214.910862 181.827824 
L 215.448815 263.118737 
L 215.583303 268.146752 
L 215.717792 268.772353 
L 216.121256 273.088227 
L 216.255745 274.05757 
L 216.390233 276.478269 
L 216.524721 272.419598 
L 216.659209 264.806506 
L 217.062674 150.304105 
L 217.197162 152.240374 
L 217.33165 152.322079 
L 217.466138 163.931959 
L 217.600627 162.631927 
L 217.735115 150.627058 
L 217.869603 155.923878 
L 218.273068 198.648951 
L 218.542044 258.214006 
L 218.811021 275.225133 
L 218.945509 267.712119 
L 219.483462 278.56828 
L 219.61795 280.389485 
L 219.886926 266.464301 
L 220.290391 163.587733 
L 220.693856 151.77915 
L 220.828344 162.578746 
L 220.962832 158.608065 
L 221.231808 186.107438 
L 221.500785 200.14962 
L 221.769761 258.075735 
L 222.038738 273.907697 
L 222.173226 273.145276 
L 222.307714 274.385842 
L 222.576691 280.513735 
L 222.845667 283.186318 
L 222.980155 281.492747 
L 223.114643 283.389856 
L 223.38362 262.575808 
L 223.518108 266.489925 
L 223.652596 266.331349 
L 223.921573 259.280525 
L 224.190549 258.599325 
L 224.325037 261.120585 
L 224.459525 260.483864 
L 224.728502 256.574583 
L 225.131967 263.93869 
L 225.266455 262.433187 
L 225.535431 263.92467 
L 225.669919 262.594663 
L 226.073384 272.490667 
L 226.34236 275.561624 
L 226.476849 275.488621 
L 226.745825 272.300182 
L 226.880313 274.61452 
L 227.014802 274.861086 
L 227.14929 274.559888 
L 227.283778 273.120619 
L 227.418266 274.820958 
L 227.552754 274.951493 
L 227.687243 274.779864 
L 227.956219 273.655329 
L 228.090707 279.553577 
L 228.225195 279.593221 
L 228.359684 280.710504 
L 228.494172 279.926811 
L 228.62866 280.911625 
L 228.763148 280.795594 
L 228.897637 278.474971 
L 229.301101 279.391617 
L 229.435589 273.089677 
L 229.570078 258.806248 
L 230.242519 95.07813 
L 230.377007 80.030345 
L 230.511495 110.436298 
L 230.780471 118.50046 
L 231.049448 146.360014 
L 231.587401 256.617127 
L 231.856377 267.999779 
L 232.125354 272.882755 
L 232.39433 277.605705 
L 232.528818 276.780434 
L 232.797795 259.433299 
L 232.932283 222.647086 
L 233.201259 134.250233 
L 233.335748 125.95836 
L 233.470236 136.40116 
L 233.604724 136.626454 
L 233.739212 149.600183 
L 233.8737 134.653925 
L 234.008189 141.472203 
L 234.815118 267.409955 
L 234.949606 267.139699 
L 235.218583 273.127388 
L 235.622047 280.974958 
L 235.756535 280.368696 
L 236.025512 267.532754 
L 236.563465 130.035887 
L 236.832441 117.651016 
L 237.63937 202.531642 
L 237.908347 261.427584 
L 238.177323 269.630983 
L 238.849764 284.760473 
L 238.984252 283.924083 
L 239.118741 280.07185 
L 239.253229 265.974553 
L 239.791182 129.255094 
L 240.194646 147.241367 
L 240.463623 166.638868 
L 240.732599 180.286061 
L 241.270552 258.859912 
L 241.674017 264.818593 
L 241.942993 277.945096 
L 242.077481 284.53663 
L 242.21197 283.901843 
L 242.480946 265.679641 
L 242.884411 152.358339 
L 243.018899 160.341763 
L 243.153387 158.063202 
L 243.287875 146.929533 
L 243.422363 155.023187 
L 243.556852 152.171722 
L 243.825828 169.04748 
L 244.229293 242.054739 
L 244.498269 264.757193 
L 244.767246 270.104777 
L 245.17071 278.073214 
L 245.305198 278.950216 
L 245.439687 278.650469 
L 245.574175 277.404584 
L 245.708663 265.787936 
L 245.843151 271.312468 
L 246.112128 268.28889 
L 246.381104 263.037516 
L 246.515592 263.003673 
L 247.188033 273.388941 
L 247.322522 273.799885 
L 247.45701 274.67882 
L 247.591498 274.319607 
L 247.725986 277.526417 
L 247.860475 276.068776 
L 248.129451 277.410386 
L 248.263939 276.515013 
L 248.398427 277.206848 
L 248.532916 277.051656 
L 248.667404 279.023218 
L 248.801892 278.923142 
L 249.205357 280.482793 
L 249.339845 280.600758 
L 249.608821 279.639634 
L 249.743309 279.77307 
L 249.877798 279.468971 
L 250.550239 276.260711 
L 250.819215 276.564809 
L 250.953703 277.353821 
L 251.088192 276.202696 
L 251.357168 277.477104 
L 251.491656 286.492721 
L 251.626144 285.996688 
L 251.760633 286.432772 
L 251.895121 286.270812 
L 252.164097 273.866119 
L 252.70205 144.788759 
L 252.836538 164.781403 
L 252.971027 161.292251 
L 253.240003 174.369441 
L 253.374491 175.740058 
L 253.508979 172.77643 
L 253.777956 206.024178 
L 254.046932 258.051078 
L 254.315909 279.655588 
L 254.719373 288.119574 
L 254.853862 287.876392 
L 255.122838 289.63233 
L 255.391814 268.596856 
L 255.660791 174.157201 
L 255.795279 177.649254 
L 256.198744 161.772813 
L 256.333232 165.494028 
L 256.46772 162.794854 
L 256.602208 164.006412 
L 257.409138 260.321904 
L 257.812602 267.890517 
L 258.081579 283.294614 
L 258.216067 284.372253 
L 258.350555 283.633521 
L 258.619532 269.279022 
L 258.888508 179.023739 
L 259.022996 179.904125 
L 259.157484 170.733799 
L 259.291973 170.150743 
L 259.426461 154.46527 
L 259.695437 168.343075 
L 259.829925 157.067268 
L 259.964414 166.257899 
L 260.771343 263.432021 
L 261.040319 265.699463 
L 261.309296 273.295633 
L 261.443784 276.551272 
L 261.71276 273.599247 
L 261.847249 261.047582 
L 262.116225 171.747138 
L 262.250713 175.968253 
L 262.654178 149.196491 
L 262.788666 156.591541 
L 262.923154 151.759812 
L 263.326619 187.363475 
L 263.461107 198.402385 
L 263.864572 247.808432 
L 264.268036 266.084783 
L 264.402525 265.317527 
L 264.671501 268.791692 
L 264.805989 268.664057 
L 264.940478 267.700999 
L 265.074966 260.03521 
L 265.209454 240.672035 
L 265.612919 124.901027 
L 265.881895 106.555058 
L 266.016383 116.179355 
L 266.150871 116.046886 
L 266.28536 115.592914 
L 266.419848 120.283955 
L 266.688824 158.039029 
L 266.957801 237.867467 
L 267.226777 254.74806 
L 267.361265 253.30734 
L 267.495754 269.886735 
L 267.630242 269.566683 
L 267.76473 271.459924 
L 267.899218 271.775142 
L 268.168195 278.380213 
L 268.302683 279.276553 
L 268.437171 276.681807 
L 268.706147 279.25093 
L 268.975124 275.711014 
L 269.2441 273.801818 
L 269.916541 259.120982 
L 270.320006 261.035012 
L 270.588982 265.985189 
L 270.723471 280.265718 
L 270.857959 281.319184 
L 270.992447 279.821899 
L 271.126935 280.716789 
L 271.261424 280.746764 
L 271.395912 280.558213 
L 271.799376 283.371968 
L 271.933865 281.968475 
L 272.068353 282.328171 
L 272.202841 281.675013 
L 272.337329 281.914327 
L 272.471817 281.060048 
L 272.606306 278.866093 
L 272.740794 280.165641 
L 272.875282 279.83882 
L 273.00977 279.152787 
L 273.144258 276.787686 
L 273.278747 276.686642 
L 273.547723 279.704418 
L 273.682211 279.921493 
L 273.8167 280.614295 
L 273.951188 279.741161 
L 274.085676 290.533505 
L 274.354652 292.187915 
L 274.489141 290.594905 
L 274.758117 275.676204 
L 275.29607 167.717474 
L 275.565046 155.311814 
L 275.699535 155.653622 
L 275.834023 173.85552 
L 275.968511 176.16889 
L 276.102999 186.465684 
L 276.77544 266.880079 
L 277.447881 284.522126 
L 277.58237 287.965833 
L 277.716858 287.569393 
L 277.851346 283.109931 
L 277.985834 272.987667 
L 278.389299 211.638634 
L 278.523787 191.88192 
L 278.658275 189.855726 
L 278.792763 180.20774 
L 278.927252 192.507037 
L 279.06174 186.605405 
L 279.196228 188.72539 
L 279.330716 196.528482 
L 280.137646 277.397816 
L 280.272134 279.817548 
L 280.406622 271.344376 
L 280.54111 271.056232 
L 280.810087 272.243617 
L 280.944575 271.611731 
L 281.213551 263.581895 
L 281.348039 234.226507 
L 281.482528 162.773098 
L 281.617016 152.421189 
L 281.751504 128.69331 
L 281.885992 129.861357 
L 282.154969 143.561247 
L 282.289457 125.189654 
L 282.423945 129.335349 
L 282.558433 138.573843 
L 282.82741 187.702382 
L 283.096386 257.225324 
L 283.365363 263.948843 
L 283.499851 266.187277 
L 283.634339 265.506561 
L 283.768827 265.517197 
L 283.903316 265.709132 
L 284.037804 267.03237 
L 284.172292 267.163388 
L 284.441268 261.896543 
L 285.113709 144.990363 
L 285.248198 143.899187 
L 285.382686 139.29807 
L 285.517174 148.670483 
L 285.651662 145.525557 
L 285.78615 149.064022 
L 286.055127 202.945003 
L 286.324103 253.221767 
L 286.59308 263.036549 
L 286.727568 262.913266 
L 286.862056 282.118832 
L 286.996544 282.178781 
L 287.131033 281.187199 
L 287.265521 281.801197 
L 287.668985 278.225021 
L 287.803474 279.114593 
L 288.07245 278.227438 
L 288.206938 276.025748 
L 288.341427 275.969666 
L 288.475915 273.590545 
L 288.610403 273.214411 
L 288.744891 272.074889 
L 288.879379 274.942308 
L 289.013868 275.286533 
L 289.148356 272.437002 
L 289.417332 279.690881 
L 289.55182 280.89422 
L 289.820797 280.527755 
L 289.955285 281.328853 
L 290.089773 279.808846 
L 290.224262 281.3772 
L 290.35875 280.457653 
L 290.493238 281.451169 
L 290.627726 279.888134 
L 291.031191 261.662063 
L 291.300167 194.563689 
L 291.434655 188.902337 
L 291.569144 189.518269 
L 291.703632 193.637374 
L 291.972608 180.716826 
L 292.376073 193.976765 
L 293.048514 271.423181 
L 293.183002 272.686953 
L 293.31749 271.51939 
L 293.451979 272.281327 
L 293.586467 271.339058 
L 293.720955 273.848231 
L 293.855443 274.115102 
L 294.258908 249.865084 
L 294.527884 191.078888 
L 294.796861 158.960993 
L 294.931349 142.873762 
L 295.065837 142.737909 
L 295.200325 150.819476 
L 295.334814 145.020821 
L 295.60379 173.463915 
L 295.738278 188.153453 
L 296.141743 259.321136 
L 296.276231 258.418994 
L 296.410719 265.716384 
L 296.545208 283.636906 
L 296.948672 285.829894 
L 297.486625 287.821761 
L 297.621113 287.471734 
L 297.755601 287.467866 
L 298.024578 284.252837 
L 298.159066 284.100547 
L 298.428042 281.930765 
L 298.697019 278.055326 
L 298.831507 276.905167 
L 298.965995 276.761095 
L 299.100484 277.121275 
L 299.36946 280.954653 
L 299.503948 280.441699 
L 299.638436 282.004735 
L 299.772925 272.221861 
L 299.907413 275.667502 
L 300.041901 275.361953 
L 300.176389 276.239439 
L 300.310877 275.952262 
L 300.579854 264.841799 
L 301.252295 129.029317 
L 301.386783 129.098936 
L 301.521271 142.459435 
L 301.65576 135.428916 
L 301.790248 144.963773 
L 302.597177 255.152235 
L 302.731665 256.927511 
L 303.000642 269.49368 
L 303.13513 269.720908 
L 303.269618 270.207271 
L 303.404106 272.698072 
L 303.538595 273.122553 
L 303.807571 256.555244 
L 304.345524 165.632782 
L 304.6145 154.975807 
L 304.748988 163.318444 
L 304.883477 153.623078 
L 305.017965 159.780946 
L 306.093871 267.925326 
L 306.228359 268.948817 
L 306.497335 279.233525 
L 306.766312 280.276354 
L 306.9008 275.507959 
L 307.035288 264.834547 
L 307.304265 171.180519 
L 307.438753 178.534474 
L 307.842217 159.02771 
L 307.976706 166.168458 
L 308.111194 157.642589 
L 308.245682 162.668187 
L 308.649147 209.255161 
L 309.052611 266.33715 
L 309.590564 278.723471 
L 309.994029 280.448467 
L 310.128517 276.850052 
L 310.263005 264.073577 
L 310.531982 171.067872 
L 310.66647 172.233985 
L 310.935446 169.91578 
L 311.069934 160.445707 
L 311.204423 166.983094 
L 311.338911 165.67581 
L 311.473399 158.815954 
L 311.607887 172.119404 
L 311.876864 210.173741 
L 312.14584 253.039018 
L 312.414817 264.994574 
L 312.818281 273.714795 
L 312.952769 273.275327 
L 313.087258 275.185006 
L 313.221746 275.084929 
L 313.356234 276.681807 
L 313.625211 265.991474 
L 313.759699 257.999831 
L 313.894187 261.395192 
L 314.028675 258.834288 
L 314.163163 260.74155 
L 314.297652 257.946167 
L 314.566628 264.592816 
L 314.701116 265.336865 
L 314.970093 270.150706 
L 315.104581 270.112513 
L 315.239069 269.812282 
L 315.508045 272.782195 
L 315.642534 273.326091 
L 315.777022 272.991534 
L 316.180487 276.019463 
L 316.314975 275.574194 
L 316.718439 277.958633 
L 316.852928 278.211001 
L 316.987416 277.346569 
L 317.121904 277.412803 
L 317.256392 276.278599 
L 317.39088 276.425088 
L 317.525369 274.866404 
L 317.659857 275.797554 
L 317.928833 273.245836 
L 318.332298 269.461288 
L 318.466786 270.124116 
L 318.601274 269.615029 
L 318.735763 271.090075 
L 318.870251 270.924247 
L 319.139227 272.055067 
L 319.273715 282.017788 
L 319.67718 283.150542 
L 319.811668 280.538391 
L 319.946157 272.481481 
L 320.349621 148.913665 
L 320.484109 132.553762 
L 320.887574 160.185121 
L 321.022062 164.911938 
L 321.291039 179.885753 
L 321.425527 181.709375 
L 321.560015 200.388451 
L 321.828991 256.635015 
L 321.96348 264.827295 
L 322.097968 265.624042 
L 322.635921 282.540412 
L 322.770409 282.891889 
L 322.904897 282.224227 
L 323.173874 271.657177 
L 323.44285 174.954431 
L 323.577338 175.320896 
L 323.711826 175.524917 
L 323.980803 155.08652 
L 324.249779 158.671398 
L 324.384268 161.47355 
L 324.787732 198.186277 
L 325.056709 253.415636 
L 325.325685 262.807387 
L 325.863638 280.860378 
L 325.998126 282.650641 
L 326.132614 282.716876 
L 326.267103 279.462203 
L 326.401591 270.346509 
L 326.670567 167.670578 
L 326.805055 173.703229 
L 326.939544 174.890614 
L 327.20852 161.492888 
L 327.343008 169.741733 
L 327.611985 165.939297 
L 327.746473 170.861917 
L 328.149937 226.265806 
L 328.418914 257.510083 
L 328.68789 270.486713 
L 328.822379 272.971713 
L 328.956867 283.148124 
L 329.225843 284.107315 
L 329.360331 283.249168 
L 329.629308 270.250783 
L 330.032772 180.083973 
L 330.301749 168.598343 
L 330.570725 159.676034 
L 330.839702 181.812353 
L 330.97419 183.040349 
L 331.108678 185.821228 
L 331.781119 262.686521 
L 332.050096 269.942334 
L 332.184584 280.856027 
L 332.319072 281.824403 
L 332.45356 281.150939 
L 332.588049 282.151224 
L 332.857025 269.38055 
L 333.26049 179.444351 
L 333.394978 181.378687 
L 333.663954 166.275304 
L 333.798442 167.482994 
L 333.932931 171.298484 
L 334.336395 189.393052 
L 334.73986 258.001282 
L 335.143325 273.932353 
L 335.277813 273.731233 
L 335.412301 273.829859 
L 335.546789 274.11897 
L 335.681277 274.012608 
L 335.950254 276.627659 
L 336.084742 274.506224 
L 336.622695 257.831586 
L 336.757183 258.636552 
L 336.891671 256.783922 
L 337.295136 263.223165 
L 337.698601 268.016217 
L 337.833089 267.53082 
L 338.102065 271.6828 
L 338.236553 271.447837 
L 338.371042 272.09326 
L 338.50553 269.728159 
L 339.043483 272.927234 
L 339.446947 275.961447 
L 339.581436 275.473633 
L 339.715924 274.289633 
L 339.850412 274.552153 
L 339.9849 273.762174 
L 340.119388 273.648077 
L 340.253877 273.168482 
L 340.388365 274.664316 
L 340.522853 272.65021 
L 340.657341 273.256472 
L 340.926318 272.934002 
L 341.060806 269.553146 
L 341.329782 274.497038 
L 341.464271 274.394061 
L 341.598759 274.929254 
L 341.733247 276.515496 
L 341.867735 284.436553 
L 342.136712 284.539531 
L 342.2712 285.189305 
L 342.540176 272.333058 
L 342.943641 155.700518 
L 343.212617 172.519711 
L 343.347106 171.776145 
L 343.75057 186.342885 
L 343.885058 188.038873 
L 344.019547 187.367826 
L 344.423011 256.111909 
L 345.22994 282.130435 
L 345.364429 283.227896 
L 345.498917 282.855629 
L 345.633405 278.585684 
L 345.767893 270.399206 
L 346.03687 185.082013 
L 346.171358 189.251881 
L 346.440334 175.515731 
L 346.574823 170.076773 
L 346.843799 177.042024 
L 347.112775 178.934298 
L 347.381752 213.849026 
L 347.650728 253.250775 
L 348.054193 271.438651 
L 348.188681 272.635706 
L 348.323169 281.717558 
L 348.457658 282.576188 
L 348.592146 284.470396 
L 348.726634 284.272659 
L 348.99561 271.203688 
L 349.264587 184.018395 
L 349.399075 185.510845 
L 349.668052 167.732461 
L 349.80254 163.568878 
L 350.206004 182.499354 
L 350.340493 183.693991 
L 351.012934 264.879993 
L 351.147422 267.229623 
L 351.550886 284.101513 
L 351.685375 283.38067 
L 351.954351 283.75197 
L 352.088839 282.337357 
L 352.223328 274.957778 
L 352.492304 179.890588 
L 352.626792 187.143983 
L 352.76128 175.63418 
L 352.895769 174.916721 
L 353.030257 166.536374 
L 353.164745 173.836181 
L 353.299233 171.733601 
L 353.56821 153.739593 
L 354.240651 271.581756 
L 354.375139 272.733365 
L 354.644115 278.667873 
L 354.913092 282.994383 
L 355.182068 284.049299 
L 355.316556 281.617481 
L 355.451045 272.377537 
L 355.854509 198.177091 
L 356.123486 159.373386 
L 356.257974 161.108052 
L 356.392462 169.823438 
L 356.52695 169.182367 
L 356.661439 179.918145 
L 356.795927 178.651472 
L 357.33388 267.218987 
L 357.602856 276.933208 
L 357.737344 278.921691 
L 357.871832 283.228863 
L 358.006321 282.643389 
L 358.140809 282.860464 
L 358.275297 283.609348 
L 358.409785 283.520391 
L 358.678762 282.245499 
L 359.082226 263.552404 
L 359.351203 257.574867 
L 359.485691 251.226999 
L 359.620179 262.091378 
L 359.754667 263.522912 
L 359.889156 263.693091 
L 360.427109 278.156369 
L 360.561597 278.844337 
L 360.965061 283.042246 
L 361.234038 283.002119 
L 361.368526 282.80825 
L 361.503014 284.129554 
L 361.771991 283.71716 
L 361.906479 285.064088 
L 362.040967 285.015742 
L 362.175455 285.395744 
L 362.309944 285.436838 
L 362.57892 281.982495 
L 362.713408 281.932699 
L 362.982385 280.783991 
L 363.116873 279.273169 
L 363.251361 279.170191 
L 363.385849 280.274421 
L 363.520337 279.409989 
L 363.654826 279.349556 
L 364.05829 282.170079 
L 364.192778 255.841653 
L 364.730731 262.176468 
L 364.86522 260.96636 
L 364.999708 248.734747 
L 365.134196 226.307384 
L 365.403172 136.877855 
L 365.672149 106.204547 
L 365.806637 100.209123 
L 366.075613 117.366256 
L 366.34459 114.182653 
L 366.479078 125.757723 
L 367.017031 253.729886 
L 367.151519 258.751616 
L 367.286007 256.994712 
L 367.554984 268.497746 
L 367.689472 269.375232 
L 367.958448 274.336528 
L 368.227425 250.479082 
L 368.496401 153.317529 
L 368.765378 100.78396 
L 369.034354 89.74505 
L 369.168842 94.526499 
L 369.303331 94.076395 
L 369.437819 97.48771 
L 369.572307 95.338717 
L 369.706795 111.651241 
L 370.244748 237.055732 
L 370.782701 281.833105 
L 370.917189 282.142038 
L 371.051677 283.045147 
L 371.186166 282.762804 
L 371.455142 267.752246 
L 371.858607 173.285033 
L 372.127583 205.681887 
L 372.262071 201.569067 
L 372.396559 203.014138 
L 372.665536 192.188919 
L 372.800024 196.032449 
L 373.203489 236.250766 
L 373.472465 258.794645 
L 373.87593 280.260884 
L 374.010418 289.395916 
L 374.144906 289.247977 
L 374.279394 290.470171 
L 374.413883 289.960601 
L 374.682859 273.185887 
L 375.220812 182.629889 
L 375.489788 178.953637 
L 375.624277 179.179414 
L 375.893253 185.799472 
L 376.027741 190.151122 
L 376.565694 258.609478 
L 376.83467 267.614943 
L 376.969159 270.488163 
L 377.103647 282.453388 
L 377.238135 281.346258 
L 377.507112 283.445938 
L 377.6416 281.454554 
L 377.776088 285.039915 
L 378.045064 282.864815 
L 378.179553 273.09838 
L 378.314041 272.46456 
L 378.448529 265.271598 
L 378.583017 266.28542 
L 378.717505 265.356204 
L 378.851994 269.926379 
L 378.986482 269.156223 
L 379.12097 270.076253 
L 379.255458 272.263923 
L 379.389947 272.145958 
L 379.927899 281.521272 
L 380.062388 281.311932 
L 380.196876 281.733995 
L 380.331364 271.694887 
L 380.465852 272.381888 
L 380.869317 275.324243 
L 381.138293 264.28485 
L 381.272782 236.832856 
L 381.541758 161.255024 
L 381.810734 140.825813 
L 381.945223 142.438162 
L 382.214199 149.010841 
L 382.348687 140.915254 
L 382.752152 191.432783 
L 383.021128 260.336408 
L 383.155616 268.369629 
L 383.290105 269.040675 
L 383.424593 270.345058 
L 383.559081 265.350886 
L 383.693569 264.629559 
L 383.962546 264.980553 
L 384.097034 266.186793 
L 384.231522 264.379125 
L 384.36601 265.78987 
L 385.038451 150.087513 
L 385.17294 152.563327 
L 385.307428 167.900223 
L 385.576404 162.180856 
L 386.248845 263.220265 
L 386.921286 281.967991 
L 387.055775 281.142237 
L 387.190263 282.43695 
L 387.324751 281.736896 
L 387.459239 281.900307 
L 387.593727 283.409678 
L 387.728216 282.827589 
L 387.862704 284.16243 
L 387.997192 282.977462 
L 388.13168 284.589328 
L 388.266169 283.591943 
L 388.400657 281.579771 
L 388.535145 281.670178 
L 388.669633 280.998648 
L 388.804121 282.153158 
L 388.93861 279.567598 
L 389.207586 281.736896 
L 389.476562 288.517464 
L 389.611051 287.44466 
L 389.745539 288.272348 
L 389.880027 288.219651 
L 390.014515 273.111917 
L 390.149004 273.352198 
L 390.41798 273.374437 
L 390.552468 273.241968 
L 390.686956 267.667157 
L 390.821445 267.85474 
L 390.955933 258.879251 
L 391.224909 201.936982 
L 391.359397 170.121735 
L 391.493886 166.076117 
L 391.762862 176.919224 
L 391.89735 176.368077 
L 392.031839 169.043613 
L 392.166327 172.794802 
L 392.300815 181.900343 
L 392.569791 242.899833 
L 392.70428 269.556047 
L 392.973256 274.46658 
L 393.107744 275.133275 
L 393.376721 267.978024 
L 393.645697 273.776195 
L 393.780185 270.337806 
L 393.914673 271.741783 
L 394.049162 264.224901 
L 394.721603 148.008139 
L 394.990579 146.921314 
L 395.125067 146.495383 
L 395.259556 158.039996 
L 395.394044 158.922316 
L 395.931997 248.303982 
L 396.200973 262.105399 
L 396.335461 258.316016 
L 396.46995 283.437235 
L 396.604438 283.82594 
L 397.007902 286.903665 
L 397.276879 273.663065 
L 397.545855 198.916306 
L 397.680343 193.655745 
L 397.94932 169.949139 
L 398.083808 156.29276 
L 398.218296 169.215726 
L 398.352785 164.382063 
L 398.487273 167.437065 
L 398.487273 167.437065 
" clip-path="url(#pc7e7347227)" style="fill: none; stroke: #1f77b4; stroke-width: 1.5; stroke-linecap: square"/>
   </g>
   <g id="line2d_13">
    <path d="M 73.832727 282.419735 
L 73.967215 282.817721 
L 74.236192 282.315443 
L 74.37068 280.74438 
L 74.505168 282.437042 
L 74.639657 281.445514 
L 74.774145 282.813458 
L 74.908633 271.223348 
L 75.043121 226.349152 
L 75.177609 245.906929 
L 75.581074 250.552627 
L 75.715562 251.95395 
L 75.85005 251.050211 
L 75.984539 252.73913 
L 76.388003 249.737624 
L 76.522492 283.005108 
L 77.060444 278.283619 
L 77.194933 264.840713 
L 77.329421 268.40637 
L 77.463909 266.760275 
L 77.732885 268.428756 
L 77.867374 256.311105 
L 78.001862 230.962679 
L 78.270838 128.239231 
L 78.405327 97.085735 
L 78.674303 113.912325 
L 78.808791 105.144781 
L 78.943279 112.204035 
L 79.077768 109.063176 
L 79.61572 194.409587 
L 79.884697 251.601878 
L 80.288161 273.119798 
L 80.42265 264.110166 
L 80.557138 277.457337 
L 80.691626 273.042509 
L 80.826114 272.915064 
L 80.960603 270.892577 
L 81.095091 264.760238 
L 81.229579 245.404211 
L 81.498555 146.899455 
L 81.633044 167.145238 
L 81.767532 164.223466 
L 81.90202 150.688862 
L 82.036508 203.722935 
L 82.170996 208.264127 
L 82.305485 204.603289 
L 82.439973 209.900095 
L 82.574461 198.505516 
L 82.708949 229.129424 
L 82.977926 211.107927 
L 83.112414 224.542425 
L 83.246902 208.939049 
L 83.38139 208.248693 
L 83.650367 266.40536 
L 83.784855 272.954273 
L 83.919343 285.65647 
L 84.053831 286.246434 
L 84.18832 284.114047 
L 84.322808 208.164331 
L 84.457296 249.197113 
L 84.591784 208.164323 
L 84.860761 208.164323 
L 84.995249 209.452035 
L 85.264225 167.92311 
L 85.533202 187.878129 
L 85.66769 191.51396 
L 85.936666 216.813582 
L 86.205643 264.401145 
L 86.340131 262.227002 
L 86.474619 270.533724 
L 86.609107 269.50106 
L 87.14706 292.613977 
L 87.281549 289.99831 
L 87.416037 291.293401 
L 87.685013 289.477791 
L 87.95399 249.823403 
L 88.088478 262.858875 
L 88.222966 256.267133 
L 88.357454 262.67107 
L 88.491942 261.32237 
L 88.626431 256.14903 
L 88.760919 261.719732 
L 88.895407 249.094659 
L 89.029895 257.282212 
L 89.164384 256.734171 
L 89.298872 261.682553 
L 89.43336 280.232287 
L 89.567848 281.011244 
L 89.702336 278.264946 
L 89.836825 279.495532 
L 89.971313 279.594634 
L 90.105801 258.913919 
L 90.374777 264.790353 
L 90.509266 265.841081 
L 90.643754 268.591894 
L 90.778242 265.830537 
L 90.91273 268.924174 
L 91.047218 261.235385 
L 91.181707 246.864173 
L 91.316195 253.631195 
L 91.450683 245.578732 
L 91.585171 257.038202 
L 91.71966 252.724396 
L 91.854148 255.45498 
L 91.988636 255.113827 
L 92.257612 259.503833 
L 92.392101 258.619553 
L 92.795565 269.655232 
L 92.930053 271.644196 
L 93.064542 271.287521 
L 93.19903 269.30743 
L 93.333518 282.228902 
L 93.602495 278.009509 
L 93.736983 277.085082 
L 93.871471 274.292059 
L 94.140447 258.784432 
L 94.409424 166.802638 
L 94.543912 177.842268 
L 94.812888 155.896277 
L 94.947377 153.933057 
L 95.216353 172.706247 
L 95.350841 170.796402 
L 95.48533 164.024539 
L 95.888794 256.42092 
L 96.023282 268.804558 
L 96.157771 269.975329 
L 96.292259 269.16905 
L 96.426747 273.896096 
L 96.561235 273.899038 
L 96.830212 269.976022 
L 96.9647 271.194933 
L 97.099188 270.100943 
L 97.233676 266.312056 
L 97.502653 214.081809 
L 97.637141 164.602831 
L 97.771629 182.426719 
L 97.906117 172.984859 
L 98.040606 186.516242 
L 98.175094 180.554073 
L 98.309582 180.108252 
L 98.44407 180.644398 
L 98.713047 200.70454 
L 98.982023 231.858299 
L 99.250999 272.534646 
L 99.385488 271.19097 
L 99.654464 278.270056 
L 99.788952 288.867729 
L 100.192417 281.032862 
L 100.326905 281.445162 
L 100.461393 280.696888 
L 100.73037 277.400585 
L 100.864858 279.217848 
L 100.999346 279.302404 
L 101.133834 286.184704 
L 101.268323 286.118801 
L 101.402811 283.915337 
L 101.537299 273.339205 
L 101.671787 281.425764 
L 101.940764 263.751417 
L 102.20974 270.129302 
L 102.478717 276.175735 
L 102.613205 283.035766 
L 102.747693 278.230628 
L 102.882181 285.602357 
L 103.016669 263.842309 
L 103.151158 264.795104 
L 103.285646 271.230234 
L 103.420134 270.590293 
L 103.823599 251.2852 
L 104.092575 161.250931 
L 104.227063 171.246124 
L 104.361552 155.317145 
L 104.49604 169.768249 
L 104.765016 143.603856 
L 105.033993 164.046248 
L 105.168481 174.202373 
L 105.706434 266.42068 
L 105.840922 260.594117 
L 105.97541 257.773653 
L 106.378875 288.678754 
L 106.513363 286.818095 
L 106.647851 282.824881 
L 106.782339 285.37751 
L 106.916828 283.645195 
L 107.051316 285.132928 
L 107.320292 219.15119 
L 107.589269 251.859903 
L 107.723757 247.220086 
L 107.858245 249.989151 
L 107.992733 249.191194 
L 108.127222 250.041711 
L 108.396198 248.061542 
L 108.530686 245.864113 
L 108.665174 251.980043 
L 108.934151 282.861206 
L 109.068639 281.293934 
L 109.203127 282.309067 
L 109.337615 279.038096 
L 109.472104 272.800805 
L 109.606592 274.890829 
L 109.74108 274.948743 
L 109.875568 276.485256 
L 110.010056 275.905993 
L 110.279033 276.48788 
L 110.413521 274.18087 
L 110.548009 274.93491 
L 110.682498 277.515777 
L 110.816986 277.629134 
L 111.085962 276.972943 
L 111.22045 278.279949 
L 111.489427 273.349366 
L 111.758403 268.425522 
L 112.161868 275.155343 
L 112.296356 275.228506 
L 112.565333 275.072968 
L 112.699821 260.727244 
L 112.968797 267.058647 
L 113.237774 269.118896 
L 113.372262 267.897441 
L 113.50675 270.978021 
L 113.641238 269.879301 
L 113.775726 271.567198 
L 113.910215 269.612228 
L 114.044703 272.68326 
L 114.179191 271.104898 
L 114.313679 264.679706 
L 114.448168 265.190626 
L 114.717144 261.680128 
L 114.98612 251.941172 
L 115.120609 253.001947 
L 115.389585 263.987966 
L 115.524073 264.609995 
L 115.658561 264.656787 
L 115.927538 263.737072 
L 116.062026 262.481645 
L 116.196514 258.192335 
L 116.331002 267.584646 
L 116.465491 262.906241 
L 116.599979 263.183838 
L 116.734467 241.701671 
L 117.003444 127.508227 
L 117.137932 81.555289 
L 117.27242 85.473203 
L 117.541396 70.019716 
L 117.810373 83.344789 
L 118.213837 148.62185 
L 118.482814 231.300269 
L 118.886279 255.761567 
L 119.020767 256.556554 
L 119.155255 256.008375 
L 119.289743 257.374338 
L 119.55872 253.74018 
L 119.693208 255.468735 
L 119.827696 253.314204 
L 119.962184 233.359652 
L 120.231161 125.295461 
L 120.365649 96.259961 
L 120.500137 100.908172 
L 120.769114 86.960259 
L 120.903602 89.569832 
L 121.03809 88.884728 
L 121.172578 98.837973 
L 121.576043 180.572534 
L 121.710531 231.371488 
L 121.845019 236.209913 
L 121.979507 250.089803 
L 122.113996 246.685115 
L 122.248484 247.547231 
L 122.382972 249.792862 
L 122.51746 262.499282 
L 122.651948 260.58534 
L 122.920925 254.408869 
L 123.055413 249.652273 
L 123.189901 234.215311 
L 123.458878 127.646841 
L 123.593366 93.952822 
L 123.727854 91.974812 
L 123.996831 86.807896 
L 124.400295 117.446496 
L 124.534783 121.973095 
L 124.669272 138.902747 
L 125.072736 242.877438 
L 125.207225 261.391989 
L 125.341713 258.868327 
L 125.476201 260.653137 
L 125.610689 257.881962 
L 125.745177 270.684861 
L 125.879666 270.887522 
L 126.014154 269.792999 
L 126.148642 266.2822 
L 126.417618 240.720089 
L 126.686595 133.523747 
L 126.955571 96.164425 
L 127.09006 82.826119 
L 127.224548 86.848623 
L 127.493524 108.384817 
L 127.628012 117.956488 
L 128.031477 192.51262 
L 128.300453 246.223049 
L 128.434942 258.108247 
L 128.56943 257.289388 
L 128.703918 258.4014 
L 128.838406 264.082876 
L 128.972894 260.195411 
L 129.107383 261.111614 
L 129.241871 263.415024 
L 129.376359 262.464451 
L 129.645336 223.427331 
L 130.0488 83.83064 
L 130.183288 92.046097 
L 130.317777 84.595523 
L 130.452265 94.537005 
L 130.586753 127.022787 
L 130.721241 117.932291 
L 130.855729 116.554802 
L 131.124706 168.278884 
L 131.528171 253.356027 
L 131.662659 263.174271 
L 131.797147 263.852992 
L 131.931635 266.259824 
L 132.200612 261.139801 
L 132.3351 265.079158 
L 132.469588 272.539213 
L 132.738564 268.603967 
L 132.873053 267.442494 
L 133.007541 253.415659 
L 133.142029 252.038526 
L 133.276517 246.130719 
L 133.411005 245.436906 
L 133.679982 241.30013 
L 133.81447 243.849371 
L 133.948958 242.69852 
L 134.083447 238.078172 
L 134.352423 248.102943 
L 134.890376 260.257274 
L 135.024864 259.491188 
L 135.29384 263.815311 
L 135.562817 265.043758 
L 135.831793 267.537716 
L 135.966282 273.499937 
L 136.10077 271.88505 
L 136.235258 266.705571 
L 136.504234 271.408277 
L 136.638723 267.422263 
L 136.773211 271.404325 
L 137.042187 269.186598 
L 137.311164 256.337984 
L 137.445652 255.791288 
L 137.58014 258.560675 
L 137.714628 256.200556 
L 137.983605 264.49499 
L 138.118093 264.98682 
L 138.252581 263.209073 
L 138.387069 263.735562 
L 138.521558 267.5982 
L 138.790534 260.672828 
L 139.05951 264.647412 
L 139.328487 232.64153 
L 139.597463 123.551326 
L 139.731951 82.302229 
L 139.86644 91.059359 
L 140.000928 82.535263 
L 140.135416 82.12053 
L 140.404393 100.837249 
L 140.673369 146.614538 
L 140.807857 158.015003 
L 140.942345 183.850946 
L 141.076834 240.05394 
L 141.480298 263.202313 
L 141.614786 266.10689 
L 141.749275 265.250152 
L 141.883763 267.438102 
L 142.287228 260.274808 
L 142.690692 153.381522 
L 142.959669 86.42707 
L 143.094157 102.245434 
L 143.363133 90.062577 
L 143.497621 100.882872 
L 143.63211 92.675408 
L 143.766598 104.867213 
L 144.304551 240.346886 
L 144.439039 240.072354 
L 144.708015 265.489629 
L 144.842504 271.274453 
L 145.11148 264.601285 
L 145.245968 264.387251 
L 145.380456 265.907061 
L 145.514945 255.834966 
L 145.649433 223.13715 
L 145.783921 223.292648 
L 146.052897 129.039836 
L 146.187386 92.939031 
L 146.321874 95.726705 
L 146.59085 111.538094 
L 146.725339 116.566355 
L 146.859827 111.236071 
L 147.263291 154.650108 
L 147.532268 244.753985 
L 148.070221 267.826521 
L 148.204709 269.037663 
L 148.339197 268.03504 
L 148.87715 258.835954 
L 149.415103 100.33644 
L 149.549591 120.021271 
L 149.818567 106.369223 
L 150.222032 148.39214 
L 150.35652 145.44807 
L 150.491009 161.699742 
L 150.759985 246.552146 
L 150.894473 249.024925 
L 151.16345 267.742515 
L 151.297938 267.451743 
L 151.566914 266.072041 
L 151.701402 267.515346 
L 151.970379 266.116768 
L 152.104867 261.671089 
L 152.64282 92.696548 
L 152.777308 123.200292 
L 153.046285 101.397188 
L 153.180773 119.741678 
L 153.315261 121.734437 
L 153.584237 171.422837 
L 153.853214 222.579121 
L 154.12219 263.197212 
L 154.256678 272.781841 
L 154.391167 269.342119 
L 154.525655 276.152498 
L 154.660143 274.202502 
L 154.794631 275.093743 
L 154.92912 274.375432 
L 155.063608 275.047359 
L 155.332584 278.634527 
L 155.467072 276.625798 
L 155.601561 268.846484 
L 155.736049 252.632931 
L 155.870537 260.59807 
L 156.005025 259.48911 
L 156.139513 265.161934 
L 156.40849 262.547678 
L 156.677466 264.489806 
L 156.811955 261.804122 
L 157.349907 273.651133 
L 157.484396 274.63982 
L 157.618884 272.46109 
L 157.753372 272.483532 
L 158.022348 274.587727 
L 158.156837 274.063519 
L 158.291325 274.62849 
L 158.694789 281.435392 
L 158.829278 277.824824 
L 158.963766 280.329443 
L 159.098254 279.991547 
L 159.232742 277.364135 
L 159.367231 278.399801 
L 159.501719 280.868591 
L 159.636207 278.604611 
L 159.905183 265.542839 
L 160.039672 266.659671 
L 160.17416 261.553561 
L 160.308648 265.342323 
L 160.443136 265.982872 
L 160.577624 273.532137 
L 160.846601 268.724289 
L 160.981089 268.437945 
L 161.115577 268.71286 
L 161.250066 271.506118 
L 161.65353 267.438948 
L 161.922507 234.190683 
L 162.325971 94.987199 
L 162.460459 89.304697 
L 162.594948 96.743466 
L 162.863924 88.480929 
L 163.132901 117.976212 
L 163.267389 131.291672 
L 163.536365 193.77961 
L 163.670853 240.673502 
L 164.208806 265.472427 
L 164.343294 263.001486 
L 164.477783 274.759068 
L 164.612271 272.585805 
L 164.746759 273.715881 
L 165.150224 231.724332 
L 165.553688 101.304138 
L 165.688177 124.726426 
L 165.957153 105.819614 
L 166.091641 118.717248 
L 166.360618 111.723354 
L 166.495106 119.080929 
L 166.629594 136.984173 
L 166.89857 240.053107 
L 167.033059 245.038107 
L 167.167547 244.974801 
L 167.302035 256.866789 
L 167.436523 257.500418 
L 167.571012 258.691842 
L 167.839988 264.741607 
L 167.974476 264.40862 
L 168.108964 263.501828 
L 168.243453 249.932178 
L 168.377941 223.960234 
L 168.781405 92.247027 
L 168.915894 116.019942 
L 169.050382 101.484192 
L 169.18487 99.834317 
L 169.319358 107.555197 
L 169.453847 95.327903 
L 169.588335 106.862969 
L 170.126288 240.546067 
L 170.529752 263.086449 
L 170.798729 267.13877 
L 171.067705 262.852351 
L 171.202193 262.546262 
L 171.336681 265.552199 
L 172.009123 95.507977 
L 172.143611 112.567792 
L 172.278099 114.571832 
L 172.412587 98.822119 
L 172.547075 96.602042 
L 173.085028 157.164294 
L 173.488493 250.076845 
L 173.757469 266.274175 
L 173.891958 271.924968 
L 174.026446 286.874583 
L 174.295422 277.428799 
L 174.42991 275.599436 
L 174.564399 275.925281 
L 174.967863 214.611621 
L 175.102351 164.017911 
L 175.23684 164.640065 
L 175.505816 140.502919 
L 175.640304 143.336624 
L 175.774792 156.200433 
L 175.909281 154.755635 
L 176.043769 156.590969 
L 176.447234 203.272511 
L 176.581722 251.893444 
L 176.71621 254.783215 
L 176.985186 270.403254 
L 177.119675 269.730441 
L 177.388651 270.919574 
L 177.523139 269.596227 
L 177.792116 275.1402 
L 178.061092 275.568913 
L 178.19558 261.612715 
L 178.330069 259.284292 
L 178.464557 263.286306 
L 178.599045 255.072769 
L 178.733533 260.397317 
L 178.868021 259.99198 
L 179.00251 263.306918 
L 179.271486 257.832998 
L 179.405974 259.004554 
L 179.540462 256.676757 
L 179.674951 258.176347 
L 180.078415 274.05294 
L 180.212904 269.116099 
L 180.347392 270.015474 
L 180.48188 278.902407 
L 180.616368 278.807831 
L 180.885345 276.454969 
L 181.019833 277.031125 
L 181.154321 276.617254 
L 181.557786 262.685988 
L 181.692274 268.219092 
L 181.826762 267.321076 
L 181.96125 271.134535 
L 182.095738 263.179482 
L 182.499203 271.913039 
L 182.633691 272.942048 
L 182.76818 276.371296 
L 182.902668 274.631217 
L 183.037156 274.706278 
L 183.171644 280.268467 
L 183.306132 279.821703 
L 183.440621 280.493998 
L 183.575109 279.96766 
L 183.709597 275.930875 
L 183.844085 289.626345 
L 184.113062 291.586771 
L 184.24755 284.425059 
L 184.516526 262.863575 
L 184.785503 183.286396 
L 184.919991 188.335282 
L 185.054479 174.694548 
L 185.188967 185.307397 
L 185.323456 179.667992 
L 185.457944 181.567397 
L 185.72692 194.294246 
L 186.264873 260.16553 
L 186.668338 272.548021 
L 187.206291 295.4627 
L 187.340779 291.112884 
L 187.475267 290.906326 
L 187.609755 284.463702 
L 187.744243 268.912943 
L 188.01322 186.647956 
L 188.147708 191.199691 
L 188.282196 178.363728 
L 188.551173 185.472979 
L 188.685661 186.714391 
L 188.820149 197.333159 
L 188.954637 198.677218 
L 189.358102 244.64752 
L 189.627078 270.757329 
L 189.761567 270.304461 
L 189.896055 271.814785 
L 190.030543 279.177663 
L 190.165031 273.382791 
L 190.299519 273.148329 
L 190.434008 271.525514 
L 190.568496 268.424413 
L 190.702984 268.892293 
L 190.971961 271.111796 
L 191.106449 268.403063 
L 191.240937 260.696328 
L 191.509913 272.402395 
L 191.644402 267.560961 
L 191.77889 272.196557 
L 192.047866 269.076974 
L 192.316843 260.570627 
L 192.720307 268.225141 
L 192.854796 277.024197 
L 192.989284 275.710373 
L 193.123772 275.903245 
L 193.527237 267.006349 
L 193.661725 268.766892 
L 193.796213 268.626258 
L 193.930701 267.675498 
L 194.199678 250.414519 
L 194.468654 174.921521 
L 194.603142 168.195177 
L 194.73763 151.477703 
L 194.872119 151.892028 
L 195.006607 146.655224 
L 195.141095 148.354087 
L 195.275583 157.951299 
L 195.410072 149.612374 
L 195.679048 182.431713 
L 195.948024 243.439486 
L 196.082513 265.005469 
L 196.217001 265.175108 
L 196.351489 265.591486 
L 196.485977 269.042306 
L 196.620465 279.441609 
L 196.889442 272.248546 
L 197.02393 269.664283 
L 197.158418 270.410474 
L 197.292907 265.829623 
L 197.427395 252.391724 
L 197.696371 173.729331 
L 197.830859 192.638436 
L 197.965348 190.752061 
L 198.099836 196.463177 
L 198.234324 194.13988 
L 198.368812 201.462205 
L 198.637789 194.895533 
L 199.041253 244.160124 
L 199.31023 279.311391 
L 199.444718 278.640532 
L 199.579206 280.984359 
L 199.713694 281.022377 
L 199.848183 284.219942 
L 199.982671 281.311609 
L 200.117159 281.747971 
L 200.251647 281.478819 
L 200.386135 278.65832 
L 200.520624 269.757267 
L 200.655112 270.809723 
L 200.7896 248.685313 
L 200.924088 178.365842 
L 201.058576 209.039114 
L 201.193065 195.078532 
L 201.327553 197.950506 
L 201.462041 196.739005 
L 201.596529 202.461156 
L 201.731018 192.770576 
L 201.865506 194.96382 
L 202.134482 222.284038 
L 202.26897 232.761934 
L 202.537947 273.43172 
L 202.672435 271.234435 
L 202.941411 278.108341 
L 203.210388 265.983857 
L 203.344876 271.775887 
L 203.479364 270.988285 
L 203.882829 256.045245 
L 204.017317 228.327332 
L 204.151805 175.327006 
L 204.286294 170.769569 
L 204.420782 161.215668 
L 204.55527 160.540914 
L 204.689758 159.077381 
L 204.824246 164.94988 
L 204.958735 162.494334 
L 205.227711 191.666292 
L 205.765664 265.561088 
L 205.900152 265.687723 
L 206.03464 264.966876 
L 206.169129 271.120254 
L 206.303617 289.210786 
L 206.438105 285.808564 
L 206.572593 286.372863 
L 206.84157 285.484835 
L 206.976058 284.179105 
L 207.379522 258.05842 
L 207.514011 259.922462 
L 208.051964 277.711073 
L 208.186452 277.009776 
L 208.455428 266.546871 
L 208.724405 271.450098 
L 208.858893 280.96883 
L 208.993381 282.089567 
L 209.127869 285.703513 
L 209.396846 282.875822 
L 209.531334 273.127075 
L 209.665822 274.755688 
L 209.80031 273.166126 
L 209.934799 272.960537 
L 210.069287 273.480647 
L 210.203775 253.783374 
L 210.338263 250.456982 
L 210.60724 160.851733 
L 210.741728 153.165456 
L 211.010704 123.693399 
L 211.145192 113.138311 
L 211.414169 141.661755 
L 211.548657 149.202552 
L 211.683145 164.19096 
L 212.221098 263.694432 
L 212.355586 261.64161 
L 212.490075 261.665928 
L 212.759051 273.929498 
L 212.893539 277.044005 
L 213.162516 271.005643 
L 213.297004 273.839154 
L 213.56598 239.04379 
L 213.834957 132.272699 
L 213.969445 114.460488 
L 214.103933 142.327871 
L 214.37291 139.318314 
L 215.045351 199.426254 
L 215.448815 270.921249 
L 215.583303 264.495425 
L 215.717792 271.672903 
L 215.85228 271.331686 
L 216.121256 272.884948 
L 216.390233 270.450492 
L 216.524721 272.801843 
L 216.793697 247.952428 
L 217.062674 147.117213 
L 217.197162 130.4115 
L 217.33165 148.611915 
L 217.466138 151.013167 
L 217.600627 158.966891 
L 217.735115 159.128531 
L 217.869603 148.982812 
L 218.407556 219.885069 
L 218.542044 263.083328 
L 218.945509 277.92317 
L 219.079997 268.315129 
L 219.61795 277.337162 
L 219.752438 278.018366 
L 220.021414 248.668296 
L 220.290391 144.720998 
L 220.424879 149.556446 
L 220.559367 158.74048 
L 220.693856 150.234298 
L 220.828344 150.088919 
L 220.962832 164.41509 
L 221.09732 160.132095 
L 221.366297 200.687254 
L 221.500785 207.213665 
L 221.635273 222.392699 
L 221.769761 262.419163 
L 221.904249 268.231474 
L 222.038738 268.593902 
L 222.173226 275.267457 
L 222.307714 275.286573 
L 222.442202 275.061135 
L 222.711179 280.648188 
L 222.845667 280.757045 
L 222.980155 281.791007 
L 223.114643 277.758912 
L 223.249132 280.855788 
L 223.518108 252.69967 
L 223.652596 267.329265 
L 223.787084 266.590332 
L 224.056061 260.824738 
L 224.190549 260.9178 
L 224.325037 259.992919 
L 224.459525 263.222364 
L 224.86299 258.549101 
L 225.131967 266.471874 
L 225.266455 267.399895 
L 225.400943 265.300169 
L 225.535431 266.69685 
L 225.669919 265.583249 
L 225.804408 262.523516 
L 226.073384 267.770044 
L 226.207872 271.702726 
L 226.34236 271.573641 
L 226.476849 273.200324 
L 226.745825 271.14309 
L 226.880313 269.146743 
L 227.14929 275.958131 
L 227.283778 277.448124 
L 227.418266 275.159442 
L 227.552754 276.659752 
L 227.687243 276.875098 
L 227.956219 275.116315 
L 228.090707 275.453394 
L 228.225195 283.453146 
L 228.359684 281.101381 
L 228.494172 282.034053 
L 228.62866 279.808644 
L 228.763148 282.077972 
L 228.897637 280.912936 
L 229.032125 276.098444 
L 229.166613 275.620594 
L 229.301101 275.64727 
L 229.435589 274.696615 
L 229.570078 261.569213 
L 229.704566 234.406236 
L 230.10803 101.76401 
L 230.242519 102.377942 
L 230.511495 82.721389 
L 230.645983 118.605866 
L 230.780471 123.569421 
L 230.91496 123.537324 
L 231.318424 211.02552 
L 231.587401 256.817615 
L 232.125354 274.26315 
L 232.259842 272.967239 
L 232.528818 275.459409 
L 232.663306 271.518332 
L 232.932283 237.155645 
L 233.201259 135.970626 
L 233.335748 112.872659 
L 233.604724 137.780173 
L 233.739212 134.803665 
L 233.8737 144.754395 
L 234.008189 135.547137 
L 234.142677 147.7696 
L 234.411653 200.420718 
L 234.546141 214.917539 
L 234.815118 270.195796 
L 234.949606 269.514585 
L 235.084094 268.067215 
L 235.218583 275.138484 
L 235.353071 274.0138 
L 235.622047 281.645605 
L 235.891024 275.703465 
L 236.16 249.607602 
L 236.428976 141.716867 
L 236.563465 113.885206 
L 236.697953 127.970472 
L 236.832441 128.027216 
L 236.966929 117.240416 
L 237.101417 130.983132 
L 237.235906 157.559952 
L 237.370394 153.045418 
L 237.504882 169.811158 
L 237.908347 259.705311 
L 238.042835 270.249533 
L 238.177323 269.898195 
L 238.311811 270.995628 
L 238.4463 275.323043 
L 238.580788 275.277061 
L 238.715276 277.17434 
L 238.984252 285.067086 
L 239.118741 280.609516 
L 239.253229 271.571221 
L 239.387717 244.23019 
L 239.656694 143.694867 
L 239.791182 123.556422 
L 239.92567 123.087528 
L 240.060158 137.450331 
L 240.194646 137.499514 
L 240.329135 144.425284 
L 240.598111 170.518092 
L 240.867087 201.094219 
L 241.136064 257.47002 
L 241.270552 259.483957 
L 241.40504 265.246369 
L 241.539529 264.96043 
L 241.674017 268.533537 
L 241.808505 265.561544 
L 241.942993 279.947326 
L 242.077481 279.163352 
L 242.21197 287.246521 
L 242.346458 281.875577 
L 242.615434 244.923224 
L 242.884411 143.523327 
L 243.018899 132.223897 
L 243.153387 161.090643 
L 243.287875 155.24671 
L 243.422363 142.919541 
L 243.960316 184.131985 
L 244.229293 239.054301 
L 244.498269 264.345731 
L 244.767246 271.215144 
L 245.036222 275.202252 
L 245.17071 278.363155 
L 245.305198 277.349043 
L 245.439687 277.477383 
L 245.708663 273.547503 
L 245.843151 253.979827 
L 245.97764 268.621138 
L 246.112128 265.068119 
L 246.246616 265.568752 
L 246.381104 265.436542 
L 246.515592 264.156137 
L 246.650081 265.36317 
L 247.053545 273.78096 
L 247.188033 272.449554 
L 247.322522 275.603597 
L 247.45701 275.435684 
L 247.591498 276.565992 
L 247.725986 275.832594 
L 247.860475 278.657328 
L 247.994963 276.135642 
L 248.129451 277.350665 
L 248.263939 277.351068 
L 248.398427 276.349283 
L 248.532916 276.65901 
L 248.667404 275.017779 
L 248.801892 277.072198 
L 248.93638 275.992666 
L 249.070868 276.483857 
L 249.205357 275.708356 
L 249.474333 281.267927 
L 249.608821 281.421805 
L 249.743309 280.554718 
L 250.012286 281.992928 
L 250.550239 277.309367 
L 250.684727 276.636716 
L 250.819215 277.411276 
L 250.953703 277.468671 
L 251.088192 278.137785 
L 251.22268 276.064153 
L 251.357168 277.543646 
L 251.491656 276.519495 
L 251.626144 289.294747 
L 252.029609 282.549712 
L 252.298586 258.585576 
L 252.567562 148.150874 
L 252.70205 127.231131 
L 252.971027 162.749915 
L 253.105515 156.19075 
L 253.240003 160.644086 
L 253.508979 179.942048 
L 253.643468 185.34455 
L 254.181421 267.195393 
L 254.584885 285.796491 
L 254.719373 285.445628 
L 254.853862 289.349935 
L 254.98835 287.222448 
L 255.122838 288.407029 
L 255.257326 287.34603 
L 255.526303 247.704461 
L 255.795279 149.618456 
L 256.064255 171.414839 
L 256.333232 158.11541 
L 256.736697 170.485399 
L 257.140161 230.954967 
L 257.409138 258.319724 
L 257.543626 266.828804 
L 257.678114 264.769303 
L 257.812602 270.214463 
L 257.94709 268.185232 
L 258.216067 285.887021 
L 258.350555 284.896428 
L 258.485043 280.032438 
L 258.75402 250.66634 
L 259.022996 151.847257 
L 259.157484 169.870834 
L 259.291973 168.777543 
L 259.426461 164.724911 
L 259.560949 152.308288 
L 259.695437 160.495579 
L 259.829925 176.170833 
L 259.964414 159.833972 
L 260.636855 259.254798 
L 261.040319 268.27697 
L 261.174808 266.753774 
L 261.309296 273.243766 
L 261.443784 272.345942 
L 261.578272 275.439332 
L 261.847249 265.165716 
L 261.981737 238.626349 
L 262.250713 149.105353 
L 262.51969 164.818597 
L 262.654178 146.758267 
L 262.788666 147.916793 
L 262.923154 159.453316 
L 263.057643 153.479431 
L 263.461107 205.736575 
L 263.99906 257.766589 
L 264.268036 263.383056 
L 264.402525 271.288282 
L 264.537013 265.079564 
L 264.671501 267.12799 
L 265.074966 258.269266 
L 265.209454 241.289519 
L 265.747407 111.749903 
L 265.881895 112.243873 
L 266.016383 111.985933 
L 266.150871 121.986467 
L 266.28536 121.58819 
L 266.419848 121.639861 
L 266.688824 166.512834 
L 267.092289 254.34221 
L 267.226777 255.930337 
L 267.495754 259.928796 
L 267.630242 276.690419 
L 267.76473 270.968074 
L 267.899218 272.289892 
L 268.033706 269.777941 
L 268.302683 277.629963 
L 268.437171 277.551264 
L 268.571659 271.942604 
L 268.706147 277.328053 
L 268.840636 278.16073 
L 268.975124 276.006937 
L 269.109612 276.476067 
L 269.378589 276.404375 
L 269.916541 261.816086 
L 270.05103 260.462573 
L 270.320006 264.181578 
L 270.454494 265.413992 
L 270.723471 269.190452 
L 270.857959 284.601696 
L 271.261424 278.397786 
L 271.5304 277.517585 
L 271.933865 282.409883 
L 272.068353 278.986142 
L 272.202841 283.76873 
L 272.337329 281.324693 
L 272.471817 283.75678 
L 272.606306 283.507784 
L 272.740794 281.81366 
L 272.875282 284.910692 
L 273.144258 280.804057 
L 273.278747 277.926856 
L 273.682211 281.104039 
L 273.8167 279.966856 
L 273.951188 281.61088 
L 274.085676 279.249392 
L 274.220164 293.97453 
L 274.489141 292.242021 
L 274.623629 287.149565 
L 274.892605 258.645989 
L 275.161582 191.069008 
L 275.430558 158.418797 
L 275.699535 155.109335 
L 275.834023 157.060144 
L 275.968511 179.056915 
L 276.102999 181.207265 
L 276.909928 273.226409 
L 277.044417 274.192015 
L 277.178905 280.080846 
L 277.313393 276.668935 
L 277.447881 285.539504 
L 277.58237 283.43437 
L 277.716858 287.753008 
L 277.851346 285.278707 
L 277.985834 278.204376 
L 278.120322 262.538387 
L 278.389299 201.267142 
L 278.523787 198.169344 
L 278.658275 180.80971 
L 278.792763 186.778451 
L 278.927252 177.85675 
L 279.06174 194.548716 
L 279.196228 190.943816 
L 279.330716 197.443591 
L 279.734181 243.235427 
L 280.003157 272.981736 
L 280.272134 277.163815 
L 280.406622 282.755179 
L 280.54111 268.358386 
L 280.810087 267.05937 
L 280.944575 267.640002 
L 281.079063 264.91437 
L 281.213551 251.166812 
L 281.348039 249.821982 
L 281.751504 133.809706 
L 281.885992 124.524503 
L 282.020481 129.170511 
L 282.289457 143.48107 
L 282.423945 123.136092 
L 282.692922 160.863906 
L 283.230874 265.241857 
L 283.365363 265.176888 
L 283.499851 266.540556 
L 283.634339 269.222333 
L 283.903316 262.746545 
L 284.037804 260.914065 
L 284.172292 261.693188 
L 284.30678 259.926132 
L 284.575757 247.233856 
L 284.844733 165.1671 
L 284.979221 153.220689 
L 285.113709 156.26489 
L 285.382686 139.928282 
L 285.517174 138.315987 
L 285.651662 152.049763 
L 285.78615 154.395704 
L 285.920639 161.813768 
L 286.324103 250.781727 
L 286.458592 263.292095 
L 286.59308 263.255225 
L 286.727568 267.228759 
L 286.862056 266.387766 
L 286.996544 290.283305 
L 287.400009 278.101769 
L 287.937962 267.001409 
L 288.07245 269.041476 
L 288.206938 274.833772 
L 288.341427 274.734022 
L 288.475915 275.743678 
L 288.610403 273.432003 
L 288.744891 274.468232 
L 288.879379 273.229728 
L 289.013868 277.129231 
L 289.148356 276.270739 
L 289.282844 270.611881 
L 289.55182 282.293288 
L 289.686309 283.71622 
L 289.955285 282.304146 
L 290.224262 277.365994 
L 290.35875 279.723951 
L 290.493238 277.838973 
L 290.627726 279.35578 
L 290.762214 276.185642 
L 290.896703 267.275081 
L 291.031191 265.981066 
L 291.165679 247.297335 
L 291.300167 185.01604 
L 291.569144 182.263054 
L 291.83812 193.450542 
L 292.107096 178.565916 
L 292.510561 212.715877 
L 292.914026 269.877615 
L 293.048514 268.360731 
L 293.31749 274.479449 
L 293.451979 271.512078 
L 293.586467 271.611608 
L 293.720955 269.163059 
L 293.855443 272.497592 
L 293.989931 271.53545 
L 294.393396 232.567433 
L 294.527884 182.931233 
L 294.662373 179.276219 
L 294.796861 157.332889 
L 294.931349 154.445455 
L 295.065837 143.908013 
L 295.200325 143.506016 
L 295.334814 155.713271 
L 295.469302 151.010835 
L 295.738278 197.83803 
L 295.872766 212.971544 
L 296.141743 265.855885 
L 296.410719 260.521912 
L 296.545208 270.946271 
L 296.679696 292.179681 
L 297.08316 283.600143 
L 297.352137 282.939425 
L 297.621113 279.048104 
L 297.89009 287.062454 
L 298.293554 283.363991 
L 298.428042 283.348396 
L 298.562531 282.914055 
L 298.965995 275.529407 
L 299.100484 276.375099 
L 299.234972 278.201992 
L 299.36946 281.841393 
L 299.503948 282.440717 
L 299.638436 281.315256 
L 299.772925 282.282659 
L 299.907413 266.797338 
L 300.041901 272.716734 
L 300.176389 270.13423 
L 300.310877 272.383255 
L 300.445366 270.000344 
L 300.714342 245.750963 
L 300.983319 167.274526 
L 301.252295 136.059999 
L 301.386783 128.951431 
L 301.521271 128.826072 
L 301.65576 142.647661 
L 301.790248 135.359054 
L 301.924736 150.63207 
L 302.193712 200.293277 
L 302.328201 215.888707 
L 302.597177 259.383074 
L 302.731665 262.114379 
L 302.866153 261.299822 
L 303.13513 273.43618 
L 303.404106 267.017299 
L 303.538595 268.558348 
L 303.673083 267.218276 
L 304.076547 192.077235 
L 304.211036 154.505659 
L 304.345524 162.724573 
L 304.480012 163.56167 
L 304.748988 154.076079 
L 304.883477 159.965674 
L 305.017965 153.684302 
L 305.152453 164.891885 
L 305.42143 213.7026 
L 305.555918 221.593295 
L 305.824894 261.486469 
L 305.959382 268.044881 
L 306.093871 265.743066 
L 306.228359 270.352276 
L 306.362847 268.86566 
L 306.497335 280.144279 
L 306.766312 278.387059 
L 306.9008 275.98203 
L 307.035288 265.823729 
L 307.169776 241.247667 
L 307.438753 146.834035 
L 307.707729 172.734852 
L 307.976706 157.413208 
L 308.111194 160.923578 
L 308.245682 155.330629 
L 308.38017 164.802657 
L 308.918123 251.330963 
L 309.052611 268.532737 
L 309.321588 270.520554 
L 309.456076 277.13445 
L 309.590564 276.700886 
L 309.725052 279.096241 
L 309.859541 277.274393 
L 309.994029 277.497307 
L 310.128517 275.47429 
L 310.263005 267.144452 
L 310.397493 238.458015 
L 310.66647 148.312003 
L 310.935446 171.294019 
L 311.204423 158.76708 
L 311.473399 162.075039 
L 311.607887 161.533097 
L 312.14584 253.474248 
L 312.280328 265.503623 
L 312.549305 266.622621 
L 312.683793 272.607584 
L 312.818281 273.513483 
L 312.952769 275.217818 
L 313.087258 272.340485 
L 313.221746 274.063612 
L 313.356234 272.208607 
L 313.490722 274.180037 
L 313.894187 249.974199 
L 314.028675 261.170617 
L 314.163163 258.256873 
L 314.297652 260.803484 
L 314.43214 258.497981 
L 314.701116 266.126353 
L 314.835604 266.277655 
L 315.104581 272.367712 
L 315.239069 271.546077 
L 315.373557 272.130638 
L 315.508045 275.741589 
L 315.642534 274.865252 
L 315.777022 274.869998 
L 315.91151 272.763622 
L 316.045998 274.042954 
L 316.180487 273.558733 
L 316.314975 274.655336 
L 316.449463 272.746863 
L 316.583951 273.802387 
L 316.718439 273.317285 
L 316.852928 273.774584 
L 316.987416 273.60506 
L 317.121904 274.102171 
L 317.256392 276.898238 
L 317.39088 276.773414 
L 317.525369 278.095049 
L 317.659857 276.878541 
L 317.794345 279.929895 
L 317.928833 275.990064 
L 318.19781 275.065184 
L 318.466786 270.896153 
L 318.601274 272.580748 
L 318.735763 271.736785 
L 318.870251 273.478097 
L 319.139227 271.435111 
L 319.273715 270.807874 
L 319.408204 284.760605 
L 319.811668 278.754743 
L 319.946157 272.639348 
L 320.080645 252.749249 
L 320.349621 147.894248 
L 320.484109 129.550077 
L 320.618598 128.407806 
L 320.887574 146.413869 
L 321.022062 150.825605 
L 321.15655 159.30467 
L 321.694503 226.014166 
L 321.96348 266.991169 
L 322.097968 267.72438 
L 322.232456 266.392688 
L 322.366944 272.97845 
L 322.501433 271.674038 
L 322.635921 284.984521 
L 322.904897 283.237083 
L 323.039385 279.40968 
L 323.308362 256.852657 
L 323.577338 150.058912 
L 323.846315 175.253343 
L 324.115291 153.505111 
L 324.384268 156.196833 
L 324.518756 163.972611 
L 324.787732 206.340122 
L 324.92222 220.910081 
L 325.191197 265.463567 
L 325.325685 264.202869 
L 325.460173 264.418456 
L 325.594661 271.336062 
L 325.72915 270.93451 
L 325.863638 281.458616 
L 326.132614 283.052327 
L 326.267103 280.037193 
L 326.401591 272.188872 
L 326.536079 250.161321 
L 326.805055 143.476188 
L 327.074032 176.412896 
L 327.343008 158.929982 
L 327.477496 165.122315 
L 327.611985 163.298068 
L 327.746473 167.107054 
L 327.880961 183.889231 
L 328.149937 229.855366 
L 328.418914 260.782989 
L 328.68789 267.044546 
L 328.822379 276.310177 
L 328.956867 276.04253 
L 329.091355 287.932343 
L 329.49482 278.974988 
L 329.763796 249.367852 
L 330.032772 159.777457 
L 330.167261 163.426403 
L 330.301749 172.83503 
L 330.705214 157.738313 
L 330.97419 184.761416 
L 331.243166 203.381112 
L 331.646631 263.840511 
L 331.781119 264.667247 
L 331.915607 264.422349 
L 332.184584 272.78441 
L 332.319072 285.634604 
L 332.45356 284.759876 
L 332.722537 278.128559 
L 332.991513 248.294763 
L 333.26049 153.699198 
L 333.529466 181.188817 
L 333.798442 163.589389 
L 333.932931 163.871196 
L 334.067419 166.922053 
L 334.470883 209.277577 
L 334.73986 262.291651 
L 335.008836 268.412404 
L 335.143325 271.707037 
L 335.277813 278.671725 
L 335.681277 273.414029 
L 335.815766 272.475708 
L 336.084742 274.689786 
L 336.353718 261.325391 
L 336.488207 262.513006 
L 336.757183 256.897198 
L 336.891671 258.602649 
L 337.02616 256.887859 
L 337.429624 264.133786 
L 337.833089 270.988275 
L 337.967577 270.402479 
L 338.102065 273.752669 
L 338.236553 273.848639 
L 338.371042 272.943826 
L 338.50553 272.997999 
L 338.640018 269.219624 
L 338.774506 270.308167 
L 338.908995 270.405208 
L 339.043483 270.172061 
L 339.312459 271.499613 
L 339.446947 269.885033 
L 339.850412 273.587281 
L 339.9849 273.406357 
L 340.119388 271.791008 
L 340.253877 273.601342 
L 340.388365 272.59285 
L 340.522853 275.63141 
L 340.657341 272.984435 
L 340.791829 274.589952 
L 340.926318 274.223258 
L 341.060806 274.271099 
L 341.195294 270.478225 
L 341.464271 275.614848 
L 341.598759 274.652809 
L 341.867735 276.94993 
L 342.002223 287.314886 
L 342.405688 281.492594 
L 342.674664 253.306022 
L 342.943641 149.660862 
L 343.078129 137.164162 
L 343.347106 170.874258 
L 343.481594 165.320019 
L 343.75057 175.05295 
L 344.154035 206.894299 
L 344.423011 261.465823 
L 344.557499 264.604125 
L 344.691988 265.096621 
L 344.960964 277.689992 
L 345.095452 277.530105 
L 345.22994 285.536929 
L 345.364429 284.668992 
L 345.498917 285.270714 
L 345.633405 282.281917 
L 345.767893 273.289127 
L 345.902382 255.011628 
L 346.171358 158.860658 
L 346.305846 176.730631 
L 346.440334 179.422396 
L 346.709311 168.89255 
L 346.843799 169.840931 
L 346.978287 173.348524 
L 347.247264 192.06725 
L 347.785217 263.845458 
L 348.054193 268.632799 
L 348.188681 276.244345 
L 348.323169 273.537778 
L 348.457658 284.820343 
L 348.592146 282.614297 
L 348.726634 284.007039 
L 348.861122 280.53432 
L 349.130099 249.877629 
L 349.399075 158.409796 
L 349.533563 171.394238 
L 349.668052 170.95591 
L 349.937028 163.214028 
L 350.071516 164.814466 
L 350.206004 169.322879 
L 350.474981 195.142722 
L 350.743957 238.352713 
L 351.012934 263.510632 
L 351.147422 269.150114 
L 351.28191 268.685195 
L 351.416398 276.706001 
L 351.550886 276.262656 
L 351.685375 288.330297 
L 351.954351 281.981824 
L 352.223328 275.391419 
L 352.357816 256.14736 
L 352.626792 159.114593 
L 352.895769 174.921836 
L 353.164745 166.545255 
L 353.299233 168.942192 
L 353.433721 168.773608 
L 353.702698 165.371595 
L 354.106163 256.302635 
L 354.240651 272.980243 
L 354.375139 272.983222 
L 354.509627 273.225904 
L 354.778604 280.244233 
L 354.913092 283.193018 
L 355.182068 281.689638 
L 355.316556 280.302959 
L 355.451045 273.701359 
L 355.585533 250.365714 
L 355.854509 184.97991 
L 355.988998 183.450249 
L 356.257974 159.902893 
L 356.392462 159.995195 
L 356.661439 166.709836 
L 356.930415 190.633481 
L 357.199391 239.369743 
L 357.468368 276.306651 
L 357.602856 274.915455 
L 358.006321 283.941733 
L 358.275297 280.822628 
L 358.409785 280.893642 
L 358.544274 280.336003 
L 358.81325 276.596543 
L 359.082226 259.69584 
L 359.216715 254.426565 
L 359.351203 255.311054 
L 359.485691 257.810478 
L 359.620179 250.364063 
L 359.754667 262.989509 
L 359.889156 263.861658 
L 360.023644 263.854968 
L 360.427109 281.452388 
L 360.561597 279.443202 
L 360.696085 279.931203 
L 360.830573 280.858254 
L 360.965061 280.996381 
L 361.09955 281.61769 
L 361.234038 281.655687 
L 361.368526 281.398106 
L 361.503014 280.172162 
L 361.637502 281.882208 
L 361.906479 279.037537 
L 362.175455 282.893614 
L 362.309944 283.992211 
L 362.444432 279.208347 
L 362.57892 279.802374 
L 362.713408 277.585671 
L 362.982385 282.57058 
L 363.116873 282.321959 
L 363.251361 278.948274 
L 363.385849 279.334558 
L 363.520337 280.894215 
L 363.654826 279.795079 
L 363.789314 280.094308 
L 363.923802 280.715342 
L 364.05829 280.471775 
L 364.192778 283.001423 
L 364.327267 242.483627 
L 364.596243 250.968777 
L 364.86522 256.261205 
L 364.999708 250.931101 
L 365.268684 194.173427 
L 365.537661 118.557502 
L 365.672149 104.945534 
L 365.806637 107.985112 
L 365.941125 100.289309 
L 366.075613 113.746281 
L 366.210102 112.994585 
L 366.479078 128.781663 
L 366.613566 155.654076 
L 366.882543 242.707935 
L 367.151519 259.484721 
L 367.286007 261.392909 
L 367.420496 261.036507 
L 367.554984 268.317821 
L 367.689472 269.503678 
L 367.82396 267.718663 
L 368.092937 270.581096 
L 368.765378 91.491453 
L 368.899866 98.795353 
L 369.034354 99.752353 
L 369.168842 89.815025 
L 369.303331 88.578653 
L 369.437819 91.384009 
L 369.841283 145.151885 
L 370.11026 241.406976 
L 370.244748 239.31575 
L 370.648213 265.961992 
L 370.782701 291.630881 
L 371.186166 280.300625 
L 371.320654 278.44084 
L 371.58963 245.06276 
L 371.858607 155.190781 
L 371.993095 160.939788 
L 372.262071 205.368469 
L 372.396559 191.296485 
L 372.531048 197.979575 
L 372.665536 198.24034 
L 372.800024 197.877288 
L 372.934512 209.346015 
L 373.069001 235.297974 
L 373.203489 235.600932 
L 373.472465 263.648605 
L 373.606953 263.919521 
L 373.87593 272.432244 
L 374.144906 295.488 
L 374.548371 287.327272 
L 374.817347 250.745088 
L 375.086324 193.573336 
L 375.3553 172.884791 
L 375.489788 179.424512 
L 375.624277 177.196776 
L 375.758765 179.35029 
L 376.162229 204.129314 
L 376.431206 238.49357 
L 376.700182 268.916363 
L 376.969159 270.919781 
L 377.103647 274.346523 
L 377.238135 288.436062 
L 377.372623 282.86073 
L 377.507112 282.412673 
L 377.6416 281.030277 
L 377.776088 276.261012 
L 377.910576 281.600717 
L 378.045064 271.354737 
L 378.179553 271.708523 
L 378.314041 260.309079 
L 378.448529 268.796142 
L 378.583017 260.068222 
L 378.986482 275.589311 
L 379.12097 271.085657 
L 379.389947 274.910786 
L 379.524435 272.722548 
L 379.793411 280.311307 
L 380.062388 284.482355 
L 380.331364 280.135099 
L 380.465852 266.582575 
L 380.869317 273.59683 
L 381.003805 272.815706 
L 381.138293 256.267999 
L 381.272782 255.527131 
L 381.676246 144.22556 
L 381.810734 144.101279 
L 381.945223 143.44789 
L 382.079711 144.493902 
L 382.348687 150.564186 
L 382.483175 145.695319 
L 383.155616 265.926045 
L 383.290105 268.746252 
L 383.424593 269.18496 
L 383.559081 272.686295 
L 383.693569 264.40323 
L 383.962546 262.466936 
L 384.097034 262.607698 
L 384.231522 263.561686 
L 384.36601 259.325441 
L 384.500499 261.505406 
L 384.769475 174.821172 
L 384.903963 163.634512 
L 385.038451 161.808985 
L 385.17294 143.192463 
L 385.307428 147.597199 
L 385.441916 172.709546 
L 385.576404 166.890988 
L 385.710893 167.784239 
L 385.979869 211.136143 
L 386.383334 269.324763 
L 386.517822 268.867888 
L 386.921286 285.753876 
L 387.728216 271.479185 
L 387.862704 270.852961 
L 387.997192 278.742125 
L 388.13168 279.500911 
L 388.400657 284.088521 
L 388.535145 285.329736 
L 388.669633 283.978934 
L 388.804121 284.207601 
L 388.93861 290.299309 
L 389.207586 282.857122 
L 389.342074 282.823952 
L 389.611051 291.479162 
L 389.745539 288.341254 
L 389.880027 288.822107 
L 390.014515 287.777927 
L 390.149004 265.318358 
L 390.283492 267.45919 
L 390.41798 266.891724 
L 390.552468 268.277729 
L 390.686956 266.693479 
L 391.090421 233.849901 
L 391.224909 183.400858 
L 391.359397 187.386956 
L 391.493886 158.374291 
L 391.628374 158.35305 
L 391.89735 173.458714 
L 392.031839 176.744791 
L 392.166327 173.273266 
L 392.435303 204.597414 
L 392.838768 277.772511 
L 392.973256 274.852662 
L 393.242232 276.499626 
L 393.511209 263.881751 
L 393.645697 270.701097 
L 393.780185 271.090436 
L 393.914673 262.644394 
L 394.049162 262.976204 
L 394.318138 206.691643 
L 394.587115 154.276055 
L 394.721603 155.306585 
L 394.856091 143.537974 
L 394.990579 143.793794 
L 395.125067 146.574308 
L 395.259556 145.701643 
L 396.066485 262.434356 
L 396.335461 265.439215 
L 396.46995 260.963735 
L 396.604438 293.206416 
L 396.873414 287.226523 
L 397.007902 283.72717 
L 397.142391 284.678977 
L 397.411367 251.79352 
L 397.680343 175.101377 
L 397.814832 177.765486 
L 398.218296 158.310435 
L 398.352785 167.715666 
L 398.487273 166.544434 
L 398.487273 166.544434 
" clip-path="url(#pc7e7347227)" style="fill: none; stroke: #ff7f0e; stroke-width: 1.5; stroke-linecap: square"/>
   </g>
   <g id="patch_3">
    <path d="M 57.6 307.584 
L 57.6 41.472 
" style="fill: none; stroke: #000000; stroke-width: 0.8; stroke-linejoin: miter; stroke-linecap: square"/>
   </g>
   <g id="patch_4">
    <path d="M 414.72 307.584 
L 414.72 41.472 
" style="fill: none; stroke: #000000; stroke-width: 0.8; stroke-linejoin: miter; stroke-linecap: square"/>
   </g>
   <g id="patch_5">
    <path d="M 57.6 307.584 
L 414.72 307.584 
" style="fill: none; stroke: #000000; stroke-width: 0.8; stroke-linejoin: miter; stroke-linecap: square"/>
   </g>
   <g id="patch_6">
    <path d="M 57.6 41.472 
L 414.72 41.472 
" style="fill: none; stroke: #000000; stroke-width: 0.8; stroke-linejoin: miter; stroke-linecap: square"/>
   </g>
  </g>
 </g>
 <defs>
  <clipPath id="pc7e7347227">
   <rect x="57.6" y="41.472" width="357.12" height="266.112"/>
  </clipPath>
 </defs>
</svg>
