<?xml version="1.0" encoding="utf-8" standalone="no"?>
<!DOCTYPE svg PUBLIC "-//W3C//DTD SVG 1.1//EN"
  "http://www.w3.org/Graphics/SVG/1.1/DTD/svg11.dtd">
<svg xmlns:xlink="http://www.w3.org/1999/xlink" width="460.8pt" height="345.6pt" viewBox="0 0 460.8 345.6" xmlns="http://www.w3.org/2000/svg" version="1.1">
 <metadata>
  <rdf:RDF xmlns:dc="http://purl.org/dc/elements/1.1/" xmlns:cc="http://creativecommons.org/ns#" xmlns:rdf="http://www.w3.org/1999/02/22-rdf-syntax-ns#">
   <cc:Work>
    <dc:type rdf:resource="http://purl.org/dc/dcmitype/StillImage"/>
    <dc:date>2023-04-04T01:40:57.396541</dc:date>
    <dc:format>image/svg+xml</dc:format>
    <dc:creator>
     <cc:Agent>
      <dc:title>Matplotlib v3.5.2, https://matplotlib.org/</dc:title>
     </cc:Agent>
    </dc:creator>
   </cc:Work>
  </rdf:RDF>
 </metadata>
 <defs>
  <style type="text/css">*{stroke-linejoin: round; stroke-linecap: butt}</style>
 </defs>
 <g id="figure_1">
  <g id="patch_1">
   <path d="M 0 345.6 
L 460.8 345.6 
L 460.8 0 
L 0 0 
z
" style="fill: #ffffff"/>
  </g>
  <g id="axes_1">
   <g id="patch_2">
    <path d="M 57.6 307.584 
L 414.72 307.584 
L 414.72 41.472 
L 57.6 41.472 
z
" style="fill: #ffffff"/>
   </g>
   <g id="matplotlib.axis_1">
    <g id="xtick_1">
     <g id="line2d_1">
      <defs>
       <path id="m92a4a72d0c" d="M 0 0 
L 0 3.5 
" style="stroke: #000000; stroke-width: 0.8"/>
      </defs>
      <g>
       <use xlink:href="#m92a4a72d0c" x="73.832727" y="307.584" style="stroke: #000000; stroke-width: 0.8"/>
      </g>
     </g>
     <g id="text_1">
      <!-- 0 -->
      <g transform="translate(70.651477 322.182437)scale(0.1 -0.1)">
       <defs>
        <path id="DejaVuSans-30" d="M 2034 4250 
Q 1547 4250 1301 3770 
Q 1056 3291 1056 2328 
Q 1056 1369 1301 889 
Q 1547 409 2034 409 
Q 2525 409 2770 889 
Q 3016 1369 3016 2328 
Q 3016 3291 2770 3770 
Q 2525 4250 2034 4250 
z
M 2034 4750 
Q 2819 4750 3233 4129 
Q 3647 3509 3647 2328 
Q 3647 1150 3233 529 
Q 2819 -91 2034 -91 
Q 1250 -91 836 529 
Q 422 1150 422 2328 
Q 422 3509 836 4129 
Q 1250 4750 2034 4750 
z
" transform="scale(0.015625)"/>
       </defs>
       <use xlink:href="#DejaVuSans-30"/>
      </g>
     </g>
    </g>
    <g id="xtick_2">
     <g id="line2d_2">
      <g>
       <use xlink:href="#m92a4a72d0c" x="141.076834" y="307.584" style="stroke: #000000; stroke-width: 0.8"/>
      </g>
     </g>
     <g id="text_2">
      <!-- 500 -->
      <g transform="translate(131.533084 322.182437)scale(0.1 -0.1)">
       <defs>
        <path id="DejaVuSans-35" d="M 691 4666 
L 3169 4666 
L 3169 4134 
L 1269 4134 
L 1269 2991 
Q 1406 3038 1543 3061 
Q 1681 3084 1819 3084 
Q 2600 3084 3056 2656 
Q 3513 2228 3513 1497 
Q 3513 744 3044 326 
Q 2575 -91 1722 -91 
Q 1428 -91 1123 -41 
Q 819 9 494 109 
L 494 744 
Q 775 591 1075 516 
Q 1375 441 1709 441 
Q 2250 441 2565 725 
Q 2881 1009 2881 1497 
Q 2881 1984 2565 2268 
Q 2250 2553 1709 2553 
Q 1456 2553 1204 2497 
Q 953 2441 691 2322 
L 691 4666 
z
" transform="scale(0.015625)"/>
       </defs>
       <use xlink:href="#DejaVuSans-35"/>
       <use xlink:href="#DejaVuSans-30" x="63.623047"/>
       <use xlink:href="#DejaVuSans-30" x="127.246094"/>
      </g>
     </g>
    </g>
    <g id="xtick_3">
     <g id="line2d_3">
      <g>
       <use xlink:href="#m92a4a72d0c" x="208.32094" y="307.584" style="stroke: #000000; stroke-width: 0.8"/>
      </g>
     </g>
     <g id="text_3">
      <!-- 1000 -->
      <g transform="translate(195.59594 322.182437)scale(0.1 -0.1)">
       <defs>
        <path id="DejaVuSans-31" d="M 794 531 
L 1825 531 
L 1825 4091 
L 703 3866 
L 703 4441 
L 1819 4666 
L 2450 4666 
L 2450 531 
L 3481 531 
L 3481 0 
L 794 0 
L 794 531 
z
" transform="scale(0.015625)"/>
       </defs>
       <use xlink:href="#DejaVuSans-31"/>
       <use xlink:href="#DejaVuSans-30" x="63.623047"/>
       <use xlink:href="#DejaVuSans-30" x="127.246094"/>
       <use xlink:href="#DejaVuSans-30" x="190.869141"/>
      </g>
     </g>
    </g>
    <g id="xtick_4">
     <g id="line2d_4">
      <g>
       <use xlink:href="#m92a4a72d0c" x="275.565046" y="307.584" style="stroke: #000000; stroke-width: 0.8"/>
      </g>
     </g>
     <g id="text_4">
      <!-- 1500 -->
      <g transform="translate(262.840046 322.182437)scale(0.1 -0.1)">
       <use xlink:href="#DejaVuSans-31"/>
       <use xlink:href="#DejaVuSans-35" x="63.623047"/>
       <use xlink:href="#DejaVuSans-30" x="127.246094"/>
       <use xlink:href="#DejaVuSans-30" x="190.869141"/>
      </g>
     </g>
    </g>
    <g id="xtick_5">
     <g id="line2d_5">
      <g>
       <use xlink:href="#m92a4a72d0c" x="342.809153" y="307.584" style="stroke: #000000; stroke-width: 0.8"/>
      </g>
     </g>
     <g id="text_5">
      <!-- 2000 -->
      <g transform="translate(330.084153 322.182437)scale(0.1 -0.1)">
       <defs>
        <path id="DejaVuSans-32" d="M 1228 531 
L 3431 531 
L 3431 0 
L 469 0 
L 469 531 
Q 828 903 1448 1529 
Q 2069 2156 2228 2338 
Q 2531 2678 2651 2914 
Q 2772 3150 2772 3378 
Q 2772 3750 2511 3984 
Q 2250 4219 1831 4219 
Q 1534 4219 1204 4116 
Q 875 4013 500 3803 
L 500 4441 
Q 881 4594 1212 4672 
Q 1544 4750 1819 4750 
Q 2544 4750 2975 4387 
Q 3406 4025 3406 3419 
Q 3406 3131 3298 2873 
Q 3191 2616 2906 2266 
Q 2828 2175 2409 1742 
Q 1991 1309 1228 531 
z
" transform="scale(0.015625)"/>
       </defs>
       <use xlink:href="#DejaVuSans-32"/>
       <use xlink:href="#DejaVuSans-30" x="63.623047"/>
       <use xlink:href="#DejaVuSans-30" x="127.246094"/>
       <use xlink:href="#DejaVuSans-30" x="190.869141"/>
      </g>
     </g>
    </g>
    <g id="xtick_6">
     <g id="line2d_6">
      <g>
       <use xlink:href="#m92a4a72d0c" x="410.053259" y="307.584" style="stroke: #000000; stroke-width: 0.8"/>
      </g>
     </g>
     <g id="text_6">
      <!-- 2500 -->
      <g transform="translate(397.328259 322.182437)scale(0.1 -0.1)">
       <use xlink:href="#DejaVuSans-32"/>
       <use xlink:href="#DejaVuSans-35" x="63.623047"/>
       <use xlink:href="#DejaVuSans-30" x="127.246094"/>
       <use xlink:href="#DejaVuSans-30" x="190.869141"/>
      </g>
     </g>
    </g>
   </g>
   <g id="matplotlib.axis_2">
    <g id="ytick_1">
     <g id="line2d_7">
      <defs>
       <path id="mae20235f3f" d="M 0 0 
L -3.5 0 
" style="stroke: #000000; stroke-width: 0.8"/>
      </defs>
      <g>
       <use xlink:href="#mae20235f3f" x="57.6" y="285.010216" style="stroke: #000000; stroke-width: 0.8"/>
      </g>
     </g>
     <g id="text_7">
      <!-- 100 -->
      <g transform="translate(31.5125 288.809435)scale(0.1 -0.1)">
       <use xlink:href="#DejaVuSans-31"/>
       <use xlink:href="#DejaVuSans-30" x="63.623047"/>
       <use xlink:href="#DejaVuSans-30" x="127.246094"/>
      </g>
     </g>
    </g>
    <g id="ytick_2">
     <g id="line2d_8">
      <g>
       <use xlink:href="#mae20235f3f" x="57.6" y="236.242316" style="stroke: #000000; stroke-width: 0.8"/>
      </g>
     </g>
     <g id="text_8">
      <!-- 200 -->
      <g transform="translate(31.5125 240.041534)scale(0.1 -0.1)">
       <use xlink:href="#DejaVuSans-32"/>
       <use xlink:href="#DejaVuSans-30" x="63.623047"/>
       <use xlink:href="#DejaVuSans-30" x="127.246094"/>
      </g>
     </g>
    </g>
    <g id="ytick_3">
     <g id="line2d_9">
      <g>
       <use xlink:href="#mae20235f3f" x="57.6" y="187.474415" style="stroke: #000000; stroke-width: 0.8"/>
      </g>
     </g>
     <g id="text_9">
      <!-- 300 -->
      <g transform="translate(31.5125 191.273633)scale(0.1 -0.1)">
       <defs>
        <path id="DejaVuSans-33" d="M 2597 2516 
Q 3050 2419 3304 2112 
Q 3559 1806 3559 1356 
Q 3559 666 3084 287 
Q 2609 -91 1734 -91 
Q 1441 -91 1130 -33 
Q 819 25 488 141 
L 488 750 
Q 750 597 1062 519 
Q 1375 441 1716 441 
Q 2309 441 2620 675 
Q 2931 909 2931 1356 
Q 2931 1769 2642 2001 
Q 2353 2234 1838 2234 
L 1294 2234 
L 1294 2753 
L 1863 2753 
Q 2328 2753 2575 2939 
Q 2822 3125 2822 3475 
Q 2822 3834 2567 4026 
Q 2313 4219 1838 4219 
Q 1578 4219 1281 4162 
Q 984 4106 628 3988 
L 628 4550 
Q 988 4650 1302 4700 
Q 1616 4750 1894 4750 
Q 2613 4750 3031 4423 
Q 3450 4097 3450 3541 
Q 3450 3153 3228 2886 
Q 3006 2619 2597 2516 
z
" transform="scale(0.015625)"/>
       </defs>
       <use xlink:href="#DejaVuSans-33"/>
       <use xlink:href="#DejaVuSans-30" x="63.623047"/>
       <use xlink:href="#DejaVuSans-30" x="127.246094"/>
      </g>
     </g>
    </g>
    <g id="ytick_4">
     <g id="line2d_10">
      <g>
       <use xlink:href="#mae20235f3f" x="57.6" y="138.706514" style="stroke: #000000; stroke-width: 0.8"/>
      </g>
     </g>
     <g id="text_10">
      <!-- 400 -->
      <g transform="translate(31.5125 142.505732)scale(0.1 -0.1)">
       <defs>
        <path id="DejaVuSans-34" d="M 2419 4116 
L 825 1625 
L 2419 1625 
L 2419 4116 
z
M 2253 4666 
L 3047 4666 
L 3047 1625 
L 3713 1625 
L 3713 1100 
L 3047 1100 
L 3047 0 
L 2419 0 
L 2419 1100 
L 313 1100 
L 313 1709 
L 2253 4666 
z
" transform="scale(0.015625)"/>
       </defs>
       <use xlink:href="#DejaVuSans-34"/>
       <use xlink:href="#DejaVuSans-30" x="63.623047"/>
       <use xlink:href="#DejaVuSans-30" x="127.246094"/>
      </g>
     </g>
    </g>
    <g id="ytick_5">
     <g id="line2d_11">
      <g>
       <use xlink:href="#mae20235f3f" x="57.6" y="89.938613" style="stroke: #000000; stroke-width: 0.8"/>
      </g>
     </g>
     <g id="text_11">
      <!-- 500 -->
      <g transform="translate(31.5125 93.737832)scale(0.1 -0.1)">
       <use xlink:href="#DejaVuSans-35"/>
       <use xlink:href="#DejaVuSans-30" x="63.623047"/>
       <use xlink:href="#DejaVuSans-30" x="127.246094"/>
      </g>
     </g>
    </g>
   </g>
   <g id="line2d_12">
    <path d="M 73.832727 288.143066 
L 74.101704 287.582723 
L 74.236192 286.449845 
L 74.37068 287.433006 
L 74.505168 286.930696 
L 74.639657 287.544684 
L 74.774145 280.943461 
L 74.908633 253.285234 
L 75.177609 251.762212 
L 75.312098 252.328895 
L 75.446586 252.38254 
L 75.581074 253.266702 
L 75.715562 252.495194 
L 75.85005 252.472761 
L 76.253515 247.387244 
L 76.522492 282.129009 
L 76.65698 282.448439 
L 76.925956 280.707425 
L 77.060444 271.673659 
L 77.194933 273.962336 
L 77.463909 274.027198 
L 77.598397 275.643366 
L 77.732885 270.210134 
L 77.867374 256.533664 
L 78.405327 105.123474 
L 78.674303 104.183229 
L 78.808791 111.464764 
L 78.943279 106.565541 
L 79.481232 160.322398 
L 79.750209 232.112162 
L 80.019185 267.531313 
L 80.153673 269.698071 
L 80.288161 265.786398 
L 80.42265 276.390978 
L 80.557138 275.947677 
L 80.826114 278.505554 
L 80.960603 275.914515 
L 81.095091 265.393816 
L 81.364067 170.71435 
L 81.498555 183.261843 
L 81.767532 163.467928 
L 82.036508 171.631187 
L 82.170996 168.468101 
L 82.305485 162.373576 
L 83.112414 264.906137 
L 83.650367 291.614853 
L 83.784855 291.635824 
L 83.919343 293.194933 
L 84.053831 293.39098 
L 84.18832 291.25202 
L 84.322808 283.882703 
L 84.726273 191.943993 
L 84.860761 183.105298 
L 84.995249 187.283732 
L 85.129737 172.103748 
L 85.264225 180.816621 
L 85.398714 181.578863 
L 85.66769 190.041069 
L 85.802178 198.986565 
L 86.340131 267.074358 
L 86.474619 269.127487 
L 86.609107 274.13595 
L 86.878084 292.004509 
L 87.012572 294.300502 
L 87.14706 293.967417 
L 87.281549 295.488 
L 87.416037 295.389001 
L 87.550525 294.56141 
L 87.819501 266.507675 
L 87.95399 266.656417 
L 88.088478 260.856451 
L 88.222966 262.345335 
L 88.357454 261.572363 
L 88.491942 258.146906 
L 88.626431 261.038355 
L 88.760919 253.904586 
L 88.895407 256.839439 
L 89.029895 256.837975 
L 89.164384 259.449984 
L 89.43336 281.176572 
L 89.567848 282.873207 
L 89.702336 282.365046 
L 89.836825 283.44623 
L 89.971313 267.994121 
L 90.105801 268.721738 
L 90.240289 270.296941 
L 90.374777 270.061879 
L 90.509266 271.32253 
L 90.643754 271.497607 
L 90.778242 273.639005 
L 90.91273 270.351561 
L 91.047218 260.214177 
L 91.181707 259.019851 
L 91.316195 251.949969 
L 91.450683 256.473192 
L 91.585171 254.467856 
L 91.71966 255.996242 
L 91.854148 256.226914 
L 92.123124 259.269543 
L 92.257612 258.685304 
L 92.526589 264.392611 
L 92.795565 271.122094 
L 92.930053 272.096476 
L 93.064542 270.932874 
L 93.19903 281.152676 
L 93.468006 281.27996 
L 93.602495 282.362119 
L 93.736983 281.102932 
L 93.871471 278.528475 
L 94.005959 273.20302 
L 94.6784 163.761023 
L 94.812888 159.273401 
L 95.081865 171.377106 
L 95.216353 166.053114 
L 95.350841 154.554619 
L 96.023282 269.461059 
L 96.157771 270.205745 
L 96.426747 274.214466 
L 96.561235 273.874066 
L 96.695723 273.95307 
L 96.830212 275.875013 
L 96.9647 275.223962 
L 97.099188 273.766777 
L 97.233676 265.122666 
L 97.368164 247.193635 
L 97.502653 205.316151 
L 97.637141 198.072167 
L 97.771629 182.276732 
L 97.906117 190.84769 
L 98.040606 183.994337 
L 98.175094 184.719028 
L 98.309582 179.288722 
L 98.44407 180.965363 
L 98.713047 192.572123 
L 98.982023 235.395217 
L 99.250999 270.973839 
L 99.385488 275.758458 
L 99.519976 276.528503 
L 99.654464 286.53909 
L 99.788952 286.55177 
L 99.923441 285.529595 
L 100.192417 286.793659 
L 100.326905 286.876076 
L 100.461393 286.207468 
L 100.595882 286.621996 
L 100.73037 287.468119 
L 100.864858 285.897305 
L 100.999346 287.077488 
L 101.133834 286.15041 
L 101.268323 283.888555 
L 101.402811 276.715772 
L 101.537299 281.077573 
L 101.806276 270.473481 
L 101.940764 272.67974 
L 102.075252 272.528072 
L 102.20974 273.189853 
L 102.344228 275.618494 
L 102.478717 281.558912 
L 102.613205 279.667693 
L 102.747693 285.45693 
L 102.882181 271.716574 
L 103.016669 271.745835 
L 103.151158 276.755274 
L 103.285646 276.531429 
L 103.554622 272.262775 
L 103.68911 267.986318 
L 103.823599 250.194324 
L 104.092575 186.617563 
L 104.227063 164.682736 
L 104.361552 171.997921 
L 104.630528 146.600574 
L 105.033993 162.239952 
L 105.168481 173.24638 
L 105.706434 258.056198 
L 105.840922 257.931352 
L 105.97541 266.812962 
L 106.109898 283.590583 
L 106.378875 286.846816 
L 106.513363 286.832673 
L 106.647851 289.035031 
L 106.782339 288.760956 
L 106.916828 289.895785 
L 107.320292 251.534466 
L 107.45478 258.746751 
L 107.589269 256.159614 
L 107.723757 256.254224 
L 108.26171 251.084826 
L 108.396198 247.606212 
L 108.530686 249.913421 
L 108.934151 282.18753 
L 109.068639 283.734448 
L 109.203127 282.644973 
L 109.337615 278.054938 
L 109.606592 279.635994 
L 109.875568 280.710351 
L 110.144545 281.781294 
L 110.413521 280.517717 
L 110.548009 280.380192 
L 110.951474 276.246137 
L 111.085962 277.443877 
L 111.22045 277.089334 
L 111.623915 271.173788 
L 111.758403 271.69219 
L 112.02738 275.551682 
L 112.430844 277.181993 
L 112.565333 266.730544 
L 112.834309 271.016267 
L 112.968797 271.550276 
L 113.103285 273.089878 
L 113.237774 273.271783 
L 113.50675 275.941338 
L 113.641238 276.787948 
L 114.313679 265.331881 
L 114.448168 264.963683 
L 114.582656 263.452366 
L 114.98612 252.408875 
L 115.524073 263.687915 
L 115.658561 264.248746 
L 115.927538 266.517916 
L 116.062026 265.208986 
L 116.196514 271.424942 
L 116.331002 270.999686 
L 116.465491 271.622452 
L 116.599979 261.67819 
L 117.137932 79.613961 
L 117.406908 64.633924 
L 117.810373 81.48616 
L 118.213837 149.957756 
L 118.482814 213.475996 
L 118.75179 248.559624 
L 118.886279 250.122636 
L 119.289743 258.26785 
L 119.424231 259.712843 
L 119.55872 262.536505 
L 119.693208 262.859348 
L 119.827696 253.061389 
L 120.365649 92.714969 
L 120.634625 73.796925 
L 120.769114 77.558393 
L 120.903602 71.017155 
L 121.03809 72.370464 
L 121.441555 137.004514 
L 121.710531 205.103035 
L 121.845019 233.817576 
L 122.248484 244.990302 
L 122.51746 260.800367 
L 122.651948 260.962765 
L 122.786437 262.734502 
L 122.920925 261.368513 
L 123.055413 253.053099 
L 123.727854 60.602282 
L 123.862342 53.568 
L 124.534783 108.726447 
L 125.072736 252.341087 
L 125.207225 257.609971 
L 125.341713 258.082045 
L 125.476201 258.03474 
L 125.745177 271.892139 
L 125.879666 273.356151 
L 126.014154 273.590237 
L 126.28313 259.884019 
L 126.821083 93.841508 
L 126.955571 75.142432 
L 127.09006 81.865575 
L 127.359036 106.86839 
L 127.493524 109.357503 
L 127.762501 128.205322 
L 127.896989 151.4403 
L 128.300453 250.692732 
L 128.434942 256.604865 
L 128.56943 254.742906 
L 128.703918 262.3863 
L 128.838406 263.124158 
L 129.241871 269.944349 
L 129.510847 248.840527 
L 130.0488 84.080613 
L 130.183288 74.799106 
L 130.317777 86.943776 
L 130.452265 116.314732 
L 130.586753 115.378876 
L 130.721241 111.662274 
L 130.855729 118.173764 
L 131.124706 172.45829 
L 131.393682 239.349806 
L 131.662659 262.889584 
L 131.931635 262.689636 
L 132.066123 262.50383 
L 132.3351 273.989646 
L 132.469588 273.838466 
L 132.604076 273.939415 
L 132.738564 273.896987 
L 133.007541 261.780115 
L 133.276517 251.12189 
L 133.679982 245.437991 
L 133.81447 244.233424 
L 133.948958 239.037692 
L 134.486911 249.101923 
L 134.755888 256.322986 
L 134.890376 256.205943 
L 135.697305 270.718295 
L 135.831793 275.55851 
L 135.966282 276.179325 
L 136.10077 274.159359 
L 136.235258 275.691158 
L 136.369746 275.411718 
L 136.504234 271.030898 
L 136.638723 270.868988 
L 136.907699 268.89779 
L 137.311164 257.809432 
L 137.445652 258.32881 
L 137.58014 255.595857 
L 137.983605 262.53748 
L 138.118093 261.618693 
L 138.252581 263.487966 
L 138.387069 268.064346 
L 138.521558 266.808085 
L 138.656046 267.01291 
L 138.925022 271.796554 
L 139.193999 255.247167 
L 139.731951 82.191832 
L 139.86644 73.10686 
L 140.269904 99.606849 
L 140.538881 124.494572 
L 140.673369 131.719049 
L 140.807857 146.349907 
L 141.076834 227.969817 
L 141.480298 261.784991 
L 142.018251 270.382772 
L 142.152739 269.910211 
L 142.421716 245.726209 
L 142.959669 92.378959 
L 143.094157 84.82286 
L 143.228645 84.325915 
L 143.363133 94.744689 
L 143.497621 85.295421 
L 143.63211 90.518951 
L 144.573527 263.056371 
L 144.708015 266.612038 
L 144.842504 266.791016 
L 145.11148 269.075793 
L 145.245968 271.259619 
L 145.380456 267.104594 
L 145.783921 204.78068 
L 146.052897 111.353573 
L 146.187386 91.870797 
L 146.456362 107.474087 
L 146.59085 119.010622 
L 146.725339 113.212118 
L 146.859827 120.766754 
L 146.994315 115.592967 
L 147.128803 128.696902 
L 147.532268 238.008689 
L 147.801244 264.521358 
L 147.935732 264.727646 
L 148.204709 270.100894 
L 148.339197 270.078948 
L 148.473685 270.592474 
L 148.742662 269.518605 
L 148.87715 251.486674 
L 149.280615 120.628253 
L 149.415103 116.509316 
L 149.549591 107.247316 
L 149.684079 108.527961 
L 150.087544 141.888619 
L 150.222032 134.043327 
L 150.35652 139.673094 
L 150.894473 256.791158 
L 151.028961 266.145817 
L 151.16345 265.168996 
L 151.835891 273.507332 
L 151.970379 272.209618 
L 152.104867 250.84245 
L 152.508332 114.498615 
L 152.64282 117.669504 
L 152.911796 105.579454 
L 153.046285 120.011339 
L 153.180773 118.480515 
L 153.449749 153.642171 
L 153.718726 195.407001 
L 153.987702 253.162826 
L 154.12219 270.554435 
L 154.256678 271.960902 
L 154.525655 275.900373 
L 154.794631 277.638461 
L 155.063608 280.642076 
L 155.198096 282.316765 
L 155.332584 281.660349 
L 155.467072 277.191747 
L 155.601561 266.506212 
L 155.736049 265.627902 
L 155.870537 262.705242 
L 156.005025 264.887118 
L 156.274002 262.952007 
L 156.40849 263.499183 
L 156.542978 264.777877 
L 156.677466 263.557217 
L 157.215419 271.726816 
L 157.349907 273.773117 
L 157.484396 272.761183 
L 157.618884 273.546834 
L 157.88786 276.786485 
L 158.022348 277.27709 
L 158.291325 280.336301 
L 158.560301 284.703466 
L 158.694789 283.10583 
L 158.829278 284.089479 
L 158.963766 283.685193 
L 159.232742 280.916639 
L 159.367231 281.20437 
L 159.501719 279.180989 
L 160.039672 264.815429 
L 160.308648 265.079751 
L 160.443136 270.913367 
L 160.577624 270.624173 
L 160.712113 268.629566 
L 160.846601 269.345479 
L 160.981089 270.867525 
L 161.250066 274.699707 
L 161.519042 275.670188 
L 161.788018 258.570211 
L 162.460459 84.515135 
L 162.594948 84.171809 
L 162.729436 82.683412 
L 162.998412 102.667035 
L 163.132901 111.791509 
L 163.401877 153.885035 
L 163.670853 226.032756 
L 164.074318 260.805732 
L 164.208806 261.961531 
L 164.477783 274.870395 
L 164.612271 277.279041 
L 164.746759 272.482718 
L 165.015735 254.622937 
L 165.4192 122.273194 
L 165.553688 124.924217 
L 165.822665 110.753728 
L 165.957153 116.114296 
L 166.091641 112.967791 
L 166.360618 101.284953 
L 166.495106 107.602347 
L 166.89857 225.115431 
L 167.033059 232.226279 
L 167.302035 250.982901 
L 167.974476 269.815602 
L 168.108964 264.028802 
L 168.243453 249.737369 
L 168.377941 210.901539 
L 168.646917 107.424831 
L 168.781405 108.733274 
L 168.915894 104.117392 
L 169.050382 105.443392 
L 169.18487 109.314588 
L 169.319358 93.681549 
L 169.453847 96.20919 
L 169.857311 150.64831 
L 170.126288 230.403822 
L 170.395264 261.833272 
L 170.529752 262.730601 
L 170.66424 266.236038 
L 170.798729 266.429159 
L 171.067705 268.802692 
L 171.202193 271.693653 
L 171.47117 249.472072 
L 172.009123 111.568152 
L 172.143611 109.960275 
L 172.412587 97.968735 
L 172.95054 131.117253 
L 173.622981 263.842021 
L 173.757469 267.910727 
L 173.891958 281.557449 
L 174.026446 280.609889 
L 174.160934 280.565022 
L 174.42991 282.126571 
L 174.698887 267.040708 
L 174.833375 249.57546 
L 175.102351 179.687644 
L 175.371328 145.648137 
L 175.505816 142.690364 
L 175.640304 153.059882 
L 175.774792 152.743379 
L 175.909281 154.180569 
L 176.043769 159.083693 
L 176.178257 158.769628 
L 176.312745 173.533623 
L 176.581722 242.55337 
L 176.850698 270.224764 
L 176.985186 267.680543 
L 177.254163 272.510516 
L 177.388651 272.466137 
L 177.792116 279.157093 
L 177.926604 280.065639 
L 178.19558 269.133339 
L 178.330069 268.684186 
L 178.599045 260.964228 
L 178.733533 260.387303 
L 178.868021 262.742305 
L 179.136998 259.160791 
L 179.271486 259.768926 
L 179.540462 257.232508 
L 179.809439 264.891994 
L 179.943927 272.311055 
L 180.212904 270.37058 
L 180.48188 280.440176 
L 180.616368 280.454319 
L 180.750856 280.834221 
L 180.885345 281.682783 
L 181.019833 281.771053 
L 181.692274 269.207466 
L 181.826762 270.530051 
L 181.96125 264.422847 
L 182.095738 266.24189 
L 182.364715 271.792652 
L 182.499203 273.097194 
L 182.633691 276.310023 
L 182.902668 275.475117 
L 183.171644 281.733014 
L 183.306132 283.178494 
L 183.440621 282.045616 
L 183.575109 279.695978 
L 183.844085 291.672399 
L 183.978573 292.643368 
L 184.113062 290.317139 
L 184.382038 278.694773 
L 184.919991 185.060891 
L 185.054479 189.159833 
L 185.188967 181.940233 
L 185.457944 185.88068 
L 185.592432 187.411016 
L 185.995897 225.950338 
L 186.264873 257.183252 
L 186.53385 273.267394 
L 186.802826 283.734448 
L 187.071802 294.449731 
L 187.206291 293.2754 
L 187.340779 294.43315 
L 187.475267 291.189597 
L 187.609755 283.024875 
L 188.01322 205.53707 
L 188.147708 188.796512 
L 188.282196 189.019869 
L 188.416684 188.041585 
L 188.551173 191.422664 
L 188.685661 197.957563 
L 188.820149 193.453847 
L 188.954637 197.981459 
L 189.089126 206.528521 
L 189.627078 269.821941 
L 189.761567 272.464674 
L 189.896055 277.809636 
L 190.030543 275.322961 
L 190.299519 277.192722 
L 190.434008 275.996933 
L 190.971961 279.493104 
L 191.106449 275.968648 
L 191.240937 275.473166 
L 191.375425 275.920855 
L 191.509913 271.399583 
L 191.644402 272.981126 
L 191.913378 271.688777 
L 192.182354 265.934652 
L 192.316843 266.290658 
L 192.451331 265.782009 
L 192.585819 267.130441 
L 192.720307 273.021116 
L 192.989284 274.305175 
L 193.392748 271.561492 
L 193.661725 274.504148 
L 193.796213 275.04986 
L 194.065189 266.997305 
L 194.603142 161.070985 
L 194.73763 156.056182 
L 194.872119 145.89539 
L 195.006607 147.504243 
L 195.141095 152.347871 
L 195.275583 144.793723 
L 195.54456 158.46873 
L 195.948024 254.471757 
L 196.217001 265.025618 
L 196.351489 266.992915 
L 196.485977 276.665541 
L 196.620465 275.999371 
L 196.889442 276.568005 
L 197.02393 277.720391 
L 197.158418 275.954017 
L 197.292907 269.499098 
L 197.830859 199.332817 
L 197.965348 201.693184 
L 198.099836 198.305278 
L 198.234324 202.802166 
L 198.5033 189.195434 
L 198.772277 203.286919 
L 199.31023 277.356094 
L 199.713694 286.66101 
L 199.848183 285.467659 
L 200.117159 286.210882 
L 200.251647 284.389889 
L 200.386135 278.488973 
L 200.520624 278.077372 
L 200.655112 264.845665 
L 200.7896 216.625427 
L 200.924088 214.613752 
L 201.058576 202.683172 
L 201.193065 202.317413 
L 201.327553 199.575682 
L 201.462041 201.794133 
L 201.731018 189.745048 
L 201.865506 191.134933 
L 202.134482 214.30944 
L 202.403459 268.911445 
L 202.806923 278.917155 
L 203.0759 270.266705 
L 203.210388 274.685077 
L 203.344876 274.813824 
L 203.748341 265.239222 
L 203.882829 247.48478 
L 204.151805 184.215256 
L 204.420782 167.395207 
L 204.55527 161.647422 
L 204.689758 165.15676 
L 204.824246 158.519937 
L 204.958735 174.882055 
L 205.093223 175.133697 
L 205.765664 264.646204 
L 205.900152 265.168021 
L 206.03464 269.048483 
L 206.169129 284.211398 
L 206.303617 284.702491 
L 206.572593 288.72438 
L 206.84157 289.552946 
L 207.110546 279.966152 
L 207.379522 270.589061 
L 207.514011 269.692706 
L 207.917475 277.982274 
L 208.051964 277.730632 
L 208.32094 271.235235 
L 208.589916 272.870911 
L 208.858893 281.092691 
L 208.993381 284.823435 
L 209.127869 285.419379 
L 209.262357 284.863913 
L 209.396846 278.885456 
L 209.531334 280.006142 
L 209.80031 279.582349 
L 209.934799 280.594283 
L 210.203775 268.155542 
L 211.010704 109.749597 
L 211.279681 135.913576 
L 211.683145 169.714608 
L 212.221098 259.208095 
L 212.355586 261.724031 
L 212.759051 277.287332 
L 212.893539 277.075679 
L 213.028027 277.178092 
L 213.162516 279.883247 
L 213.431492 261.804499 
L 213.56598 222.917462 
L 213.834957 137.21958 
L 213.969445 141.902274 
L 214.103933 140.787928 
L 214.238421 143.812025 
L 214.910862 182.946315 
L 215.448815 264.946127 
L 215.583303 270.017988 
L 215.717792 270.649045 
L 216.121256 275.002556 
L 216.255745 275.980352 
L 216.390233 278.422161 
L 216.524721 274.328095 
L 216.659209 266.648614 
L 217.062674 151.147693 
L 217.197162 153.100847 
L 217.33165 153.183265 
L 217.466138 164.894389 
L 217.600627 163.58302 
L 217.735115 151.473463 
L 217.869603 156.816474 
L 218.273068 199.914131 
L 218.542044 259.998623 
L 218.811021 277.158097 
L 218.945509 269.579565 
L 219.483462 280.530397 
L 219.61795 282.367484 
L 219.886926 268.320865 
L 220.290391 164.547161 
L 220.693856 152.635602 
L 220.828344 163.529375 
L 220.962832 159.524068 
L 221.231808 187.26325 
L 221.500785 201.427886 
L 221.769761 259.859147 
L 222.038738 275.829171 
L 222.173226 275.060102 
L 222.307714 276.311486 
L 222.576691 282.492817 
L 222.845667 285.188707 
L 222.980155 283.480367 
L 223.114643 285.39402 
L 223.38362 264.398463 
L 223.518108 268.346712 
L 223.652596 268.186754 
L 223.921573 261.074443 
L 224.190549 260.387303 
L 224.325037 262.930549 
L 224.459525 262.288276 
L 224.728502 258.344904 
L 225.131967 265.77323 
L 225.266455 264.254598 
L 225.535431 265.759088 
L 225.669919 264.417483 
L 226.073384 274.399784 
L 226.34236 277.497521 
L 226.476849 277.423882 
L 226.745825 274.207639 
L 226.880313 276.542158 
L 227.014802 276.790874 
L 227.14929 276.48705 
L 227.283778 275.03523 
L 227.418266 276.750397 
L 227.552754 276.88207 
L 227.687243 276.708944 
L 227.956219 275.574603 
L 228.090707 281.524287 
L 228.225195 281.564277 
L 228.359684 282.691303 
L 228.494172 281.900775 
L 228.62866 282.894177 
L 228.763148 282.777134 
L 228.897637 280.436275 
L 229.301101 281.360914 
L 229.435589 275.004019 
L 229.570078 260.59603 
L 230.242519 95.44012 
L 230.377007 80.261111 
L 230.511495 110.932219 
L 230.780471 119.066705 
L 231.049448 147.169208 
L 231.587401 258.387819 
L 231.856377 269.869734 
L 232.125354 274.795292 
L 232.39433 279.559428 
L 232.528818 278.72696 
L 232.797795 261.22855 
L 232.932283 224.121541 
L 233.201259 134.953824 
L 233.335748 126.589641 
L 233.470236 137.123508 
L 233.604724 137.350766 
L 233.739212 150.437632 
L 233.8737 135.361036 
L 234.008189 142.238773 
L 234.815118 269.274766 
L 234.949606 269.002153 
L 235.218583 275.042058 
L 235.622047 282.958063 
L 235.756535 282.346514 
L 236.025512 269.398636 
L 236.563465 130.702726 
L 236.832441 118.209853 
L 237.63937 203.830681 
L 237.908347 263.240226 
L 238.177323 271.515163 
L 238.849764 286.77659 
L 238.984252 285.932905 
L 239.118741 282.047079 
L 239.253229 267.826847 
L 239.791182 129.915124 
L 240.194646 148.058246 
L 240.463623 167.624904 
L 240.732599 181.391107 
L 241.270552 260.650162 
L 241.674017 266.660806 
L 241.942993 279.901779 
L 242.077481 286.550794 
L 242.21197 285.910472 
L 242.480946 267.529362 
L 242.884411 153.219841 
L 243.018899 161.272885 
L 243.153387 158.974453 
L 243.287875 147.743693 
L 243.422363 155.907928 
L 243.556852 153.031597 
L 243.825828 170.05452 
L 244.229293 243.69844 
L 244.498269 266.598871 
L 244.767246 271.993088 
L 245.17071 280.031014 
L 245.305198 280.915664 
L 245.439687 280.613303 
L 245.574175 279.356554 
L 245.708663 267.638603 
L 245.843151 273.211311 
L 246.112128 270.161366 
L 246.381104 264.864197 
L 246.515592 264.830059 
L 247.188033 275.305892 
L 247.322522 275.720419 
L 247.45701 276.607019 
L 247.591498 276.244674 
L 247.725986 279.479449 
L 247.860475 278.009097 
L 248.129451 279.362406 
L 248.263939 278.459224 
L 248.398427 279.157093 
L 248.532916 279.000548 
L 248.667404 280.989303 
L 248.801892 280.888354 
L 249.205357 282.461606 
L 249.339845 282.5806 
L 249.608821 281.611094 
L 249.743309 281.745693 
L 249.877798 281.438943 
L 250.550239 278.202705 
L 250.819215 278.509455 
L 250.953703 279.305347 
L 251.088192 278.144184 
L 251.357168 279.429706 
L 251.491656 288.523944 
L 251.626144 288.023585 
L 251.760633 288.463472 
L 251.895121 288.300099 
L 252.164097 275.787231 
L 252.70205 145.584251 
L 252.836538 165.751241 
L 252.971027 162.231661 
L 253.240003 175.422891 
L 253.374491 176.805461 
L 253.508979 173.815989 
L 253.777956 207.353674 
L 254.046932 259.834275 
L 254.315909 281.627187 
L 254.719373 290.164984 
L 254.853862 289.919681 
L 255.122838 291.690931 
L 255.391814 270.472018 
L 255.660791 175.2088 
L 255.795279 178.731305 
L 256.198744 162.716414 
L 256.333232 166.47008 
L 256.46772 163.747368 
L 256.602208 164.969491 
L 257.409138 262.124904 
L 257.812602 269.759519 
L 258.081579 285.297947 
L 258.216067 286.384984 
L 258.350555 285.63981 
L 258.619532 271.160133 
L 258.888508 180.117777 
L 259.022996 181.00584 
L 259.157484 171.755545 
L 259.291973 171.167404 
L 259.426461 155.345146 
L 259.695437 169.343972 
L 259.829925 157.969835 
L 259.964414 167.240613 
L 260.771343 265.262143 
L 261.040319 267.549357 
L 261.309296 275.21177 
L 261.443784 278.4958 
L 261.71276 275.518032 
L 261.847249 262.85691 
L 262.116225 172.77772 
L 262.250713 177.035645 
L 262.654178 150.03042 
L 262.788666 157.489958 
L 262.923154 152.616094 
L 263.326619 188.53024 
L 263.461107 199.665415 
L 263.864572 249.502308 
L 264.268036 267.938037 
L 264.402525 267.164091 
L 264.671501 270.668552 
L 264.805989 270.539805 
L 264.940478 269.568348 
L 265.074966 261.83571 
L 265.209454 242.303678 
L 265.612919 125.523087 
L 265.881895 107.017132 
L 266.016383 116.725358 
L 266.150871 116.591734 
L 266.28536 116.133803 
L 266.419848 120.865753 
L 266.688824 158.950069 
L 266.957801 239.474652 
L 267.226777 256.502452 
L 267.361265 255.049169 
L 267.495754 271.773145 
L 267.630242 271.450302 
L 267.76473 273.360053 
L 267.899218 273.678019 
L 268.168195 280.34069 
L 268.302683 281.244847 
L 268.437171 278.627474 
L 268.706147 281.219 
L 268.975124 277.648214 
L 269.2441 275.72237 
L 269.916541 260.913509 
L 270.320006 262.84423 
L 270.588982 267.837576 
L 270.723471 282.242638 
L 270.857959 283.305291 
L 270.992447 281.794949 
L 271.126935 282.697643 
L 271.261424 282.727879 
L 271.395912 282.537684 
L 271.799376 285.375976 
L 271.933865 283.960244 
L 272.068353 284.323077 
L 272.202841 283.664222 
L 272.337329 283.905624 
L 272.471817 283.043895 
L 272.606306 280.830807 
L 272.740794 282.141689 
L 272.875282 281.812018 
L 273.00977 281.120001 
L 273.144258 278.734275 
L 273.278747 278.63235 
L 273.547723 281.676443 
L 273.682211 281.895411 
L 273.8167 282.594255 
L 273.951188 281.713506 
L 274.085676 292.599965 
L 274.354652 294.268802 
L 274.489141 292.6619 
L 274.758117 277.613101 
L 275.29607 168.712915 
L 275.565046 156.199072 
L 275.699535 156.543861 
L 275.834023 174.904488 
L 275.968511 177.238032 
L 276.102999 187.62462 
L 276.77544 268.740269 
L 277.447881 286.536164 
L 277.58237 290.009902 
L 277.716858 289.610005 
L 277.851346 285.111654 
L 277.985834 274.901118 
L 278.389299 213.01709 
L 278.523787 193.088088 
L 278.658275 191.044225 
L 278.792763 181.312103 
L 278.927252 193.718657 
L 279.06174 187.765559 
L 279.196228 189.904031 
L 279.330716 197.775171 
L 280.137646 279.349726 
L 280.272134 281.79056 
L 280.406622 273.243497 
L 280.54111 272.952841 
L 280.810087 274.15058 
L 280.944575 273.513184 
L 281.213551 265.413323 
L 281.348039 235.801941 
L 281.482528 163.725422 
L 281.617016 153.283239 
L 281.751504 129.348441 
L 281.885992 130.526674 
L 282.154969 144.346034 
L 282.289457 125.814231 
L 282.423945 129.996079 
L 282.558433 139.315137 
L 282.82741 188.872103 
L 283.096386 259.00132 
L 283.365363 265.783472 
L 283.499851 268.041425 
L 283.634339 267.354773 
L 283.768827 267.365502 
L 283.903316 267.559111 
L 284.037804 268.893888 
L 284.172292 269.026049 
L 284.441268 263.713274 
L 285.113709 145.787613 
L 285.248198 144.686921 
L 285.382686 140.04568 
L 285.517174 149.499826 
L 285.651662 146.327474 
L 285.78615 149.896796 
L 286.055127 204.247646 
L 286.324103 254.96285 
L 286.59308 264.863221 
L 286.727568 264.738863 
L 286.862056 284.111912 
L 286.996544 284.172384 
L 287.131033 283.172154 
L 287.265521 283.791507 
L 287.668985 280.184145 
L 287.803474 281.081474 
L 288.07245 280.186583 
L 288.206938 277.965693 
L 288.341427 277.909122 
L 288.475915 275.509254 
L 288.610403 275.12984 
L 288.744891 273.98038 
L 288.879379 276.872805 
L 289.013868 277.220032 
L 289.148356 274.345652 
L 289.417332 281.662788 
L 289.55182 282.876621 
L 289.820797 282.50696 
L 289.955285 283.315044 
L 290.089773 281.781781 
L 290.224262 283.363812 
L 290.35875 282.436247 
L 290.493238 283.438427 
L 290.627726 281.861761 
L 291.031191 263.47675 
L 291.300167 195.793243 
L 291.434655 190.082522 
L 291.569144 190.703825 
L 291.703632 194.85885 
L 291.972608 181.825629 
L 292.376073 195.201201 
L 293.048514 273.322989 
L 293.183002 274.597782 
L 293.31749 273.420037 
L 293.451979 274.188619 
L 293.586467 273.238133 
L 293.720955 275.769187 
L 293.855443 276.038386 
L 294.258908 251.576894 
L 294.527884 192.278053 
L 294.796861 159.880073 
L 294.931349 143.652554 
L 295.065837 143.515516 
L 295.200325 151.667559 
L 295.334814 145.818337 
L 295.60379 174.509468 
L 295.738278 189.327107 
L 296.141743 261.115408 
L 296.276231 260.205399 
L 296.410719 267.566426 
L 296.545208 285.643224 
L 296.948672 287.855336 
L 297.486625 289.864573 
L 297.621113 289.511494 
L 297.755601 289.507592 
L 298.024578 286.264527 
L 298.159066 286.110908 
L 298.428042 283.922205 
L 298.697019 280.01297 
L 298.831507 278.852781 
L 298.965995 278.707453 
L 299.100484 279.070774 
L 299.36946 282.937581 
L 299.503948 282.420153 
L 299.638436 283.99682 
L 299.772925 274.128635 
L 299.907413 277.604323 
L 300.041901 277.29611 
L 300.176389 278.181247 
L 300.310877 277.891566 
L 300.579854 266.684215 
L 301.252295 129.687378 
L 301.386783 129.757604 
L 301.521271 143.234613 
L 301.65576 136.142785 
L 301.790248 145.760791 
L 302.597177 256.910152 
L 302.731665 258.700909 
L 303.000642 271.376662 
L 303.13513 271.605871 
L 303.269618 272.096476 
L 303.404106 274.608999 
L 303.538595 275.037181 
L 303.807571 258.325396 
L 304.345524 166.610044 
L 304.6145 155.860135 
L 304.748988 164.275524 
L 304.883477 154.495609 
L 305.017965 160.707177 
L 306.093871 269.794631 
L 306.228359 270.827048 
L 306.497335 281.201443 
L 306.766312 282.253367 
L 306.9008 277.443389 
L 307.035288 266.676899 
L 307.304265 172.20616 
L 307.438753 179.624246 
L 307.842217 159.947373 
L 307.976706 167.150392 
L 308.111194 158.550173 
L 308.245682 163.619596 
L 308.649147 210.612833 
L 309.052611 268.192606 
L 309.590564 280.686942 
L 309.994029 282.426981 
L 310.128517 278.797186 
L 310.263005 265.909293 
L 310.531982 172.092531 
L 310.66647 173.268813 
L 310.935446 170.930392 
L 311.069934 161.377736 
L 311.204423 167.972131 
L 311.338911 166.653447 
L 311.473399 159.73377 
L 311.607887 173.153233 
L 311.876864 211.539423 
L 312.14584 254.778507 
L 312.414817 266.838321 
L 312.818281 275.634588 
L 312.952769 275.191287 
L 313.087258 277.117619 
L 313.221746 277.01667 
L 313.356234 278.627474 
L 313.625211 267.843915 
L 313.759699 259.782581 
L 313.894187 263.207551 
L 314.028675 260.624315 
L 314.163163 262.548209 
L 314.297652 259.728449 
L 314.566628 266.43306 
L 314.701116 267.183598 
L 314.970093 272.039418 
L 315.104581 272.000891 
L 315.239069 271.698043 
L 315.508045 274.693855 
L 315.642534 275.242494 
L 315.777022 274.90502 
L 316.180487 277.959353 
L 316.314975 277.510201 
L 316.718439 279.915434 
L 316.852928 280.170002 
L 316.987416 279.298032 
L 317.121904 279.364844 
L 317.256392 278.220749 
L 317.39088 278.368516 
L 317.525369 276.796239 
L 317.659857 277.735509 
L 317.928833 275.161539 
L 318.332298 271.343988 
L 318.466786 272.012596 
L 318.601274 271.49907 
L 318.735763 272.986978 
L 318.870251 272.819704 
L 319.139227 273.960385 
L 319.273715 284.009987 
L 319.67718 285.152619 
L 319.811668 282.517689 
L 319.946157 274.390518 
L 320.349621 149.745128 
L 320.484109 133.242558 
L 320.887574 161.114877 
L 321.022062 165.882914 
L 321.291039 180.987308 
L 321.425527 182.826834 
L 321.560015 201.6688 
L 321.828991 258.405864 
L 321.96348 266.669584 
L 322.097968 267.473279 
L 322.635921 284.537168 
L 322.770409 284.89171 
L 322.904897 284.218226 
L 323.173874 273.559026 
L 323.44285 176.012983 
L 323.577338 176.382643 
L 323.711826 176.588444 
L 323.980803 155.971814 
L 324.249779 159.587954 
L 324.384268 162.414541 
L 324.787732 199.447422 
L 325.056709 255.158409 
L 325.325685 264.632061 
L 325.863638 282.842483 
L 325.998126 284.648359 
L 326.132614 284.715171 
L 326.267103 281.432116 
L 326.401591 272.236928 
L 326.670567 168.665611 
L 326.805055 174.750869 
L 326.939544 175.948609 
L 327.20852 162.434048 
L 327.343008 170.754828 
L 327.611985 166.919232 
L 327.746473 171.88478 
L 328.149937 227.771819 
L 328.418914 259.288563 
L 328.68789 272.378355 
L 328.822379 274.885025 
L 328.956867 285.15018 
L 329.225843 286.117736 
L 329.360331 285.252105 
L 329.629308 272.140367 
L 330.032772 181.187257 
L 330.301749 169.601467 
L 330.570725 160.601351 
L 330.839702 182.930709 
L 330.97419 184.169414 
L 331.108678 186.974544 
L 331.781119 264.510142 
L 332.050096 271.829228 
L 332.184584 282.838094 
L 332.319072 283.814915 
L 332.45356 283.135578 
L 332.588049 284.144586 
L 332.857025 271.262545 
L 333.26049 180.542058 
L 333.394978 182.493261 
L 333.663954 167.258169 
L 333.798442 168.476391 
L 333.932931 172.325154 
L 334.336395 190.577516 
L 334.73986 259.784044 
L 335.143325 275.854043 
L 335.277813 275.651169 
L 335.412301 275.750655 
L 335.546789 276.042287 
L 335.681277 275.934998 
L 335.950254 278.572854 
L 336.084742 276.432918 
L 336.622695 259.612869 
L 336.757183 260.424855 
L 336.891671 258.556069 
L 337.295136 265.051465 
L 337.698601 269.886315 
L 337.833089 269.396685 
L 338.102065 273.584873 
L 338.236553 273.347861 
L 338.371042 273.998912 
L 338.50553 271.613186 
L 339.043483 274.840158 
L 339.446947 277.900832 
L 339.581436 277.408764 
L 339.715924 276.214438 
L 339.850412 276.479248 
L 339.9849 275.68238 
L 340.119388 275.567288 
L 340.253877 275.08351 
L 340.388365 276.592389 
L 340.522853 274.560718 
L 340.657341 275.172268 
L 340.926318 274.846986 
L 341.060806 271.436647 
L 341.329782 276.423652 
L 341.464271 276.319777 
L 341.598759 276.859637 
L 341.733247 278.459712 
L 341.867735 286.449845 
L 342.136712 286.553721 
L 342.2712 287.209161 
L 342.540176 274.240801 
L 342.943641 156.591166 
L 343.212617 173.557031 
L 343.347106 172.806981 
L 343.75057 187.500749 
L 343.885058 189.211527 
L 344.019547 188.534629 
L 344.423011 257.878195 
L 345.22994 284.123616 
L 345.364429 285.230647 
L 345.498917 284.855135 
L 345.633405 280.547954 
L 345.767893 272.290085 
L 346.03687 186.228882 
L 346.171358 190.435114 
L 346.440334 176.579178 
L 346.574823 171.092789 
L 346.843799 178.118781 
L 347.112775 180.027556 
L 347.381752 215.246759 
L 347.650728 254.99211 
L 348.054193 273.338595 
L 348.188681 274.546088 
L 348.323169 283.707138 
L 348.457658 284.573256 
L 348.592146 286.483982 
L 348.726634 286.284522 
L 348.99561 273.101583 
L 349.264587 185.155989 
L 349.399075 186.661454 
L 349.668052 168.728034 
L 349.80254 164.528142 
L 350.206004 183.623701 
L 350.340493 184.828756 
L 351.012934 266.722741 
L 351.147422 269.092861 
L 351.550886 286.111883 
L 351.685375 285.384754 
L 351.954351 285.759291 
L 352.088839 284.332343 
L 352.223328 276.88841 
L 352.492304 180.992185 
L 352.626792 188.308833 
L 352.76128 176.698659 
L 352.895769 175.974944 
L 353.030257 167.521516 
L 353.164745 174.884981 
L 353.299233 172.764065 
L 353.56821 154.61314 
L 354.240651 273.482948 
L 354.375139 274.644599 
L 354.644115 280.630859 
L 354.913092 284.995098 
L 355.182068 286.059214 
L 355.316556 283.606189 
L 355.451045 274.285667 
L 355.854509 199.438156 
L 356.123486 160.296063 
L 356.257974 162.045856 
L 356.392462 170.837245 
L 356.52695 170.190583 
L 356.661439 181.019983 
L 356.795927 179.742264 
L 357.33388 269.082132 
L 357.602856 278.881067 
L 357.737344 280.88689 
L 357.871832 285.231623 
L 358.006321 284.641043 
L 358.140809 284.860011 
L 358.275297 285.615426 
L 358.409785 285.525693 
L 358.678762 284.239684 
L 359.082226 265.383575 
L 359.351203 259.353911 
L 359.485691 252.950686 
L 359.620179 263.909809 
L 359.754667 265.353826 
L 359.889156 265.525489 
L 360.427109 280.114895 
L 360.561597 280.808862 
L 360.965061 285.043379 
L 361.234038 285.002901 
L 361.368526 284.807342 
L 361.503014 286.140169 
L 361.771991 285.724179 
L 361.906479 287.082852 
L 362.040967 287.034084 
L 362.175455 287.4174 
L 362.309944 287.458853 
L 362.57892 283.974386 
L 362.713408 283.924155 
L 362.982385 282.76543 
L 363.116873 281.241433 
L 363.251361 281.137557 
L 363.385849 282.251416 
L 363.520337 281.379446 
L 363.654826 281.318486 
L 364.05829 284.163606 
L 364.192778 257.605582 
L 364.730731 263.99564 
L 364.86522 262.77498 
L 364.999708 250.436701 
L 365.134196 227.813759 
L 365.403172 137.604359 
L 365.672149 106.663564 
L 365.806637 100.615857 
L 366.075613 117.92261 
L 366.34459 114.711243 
L 366.479078 126.387254 
L 367.017031 255.4754 
L 367.151519 260.540922 
L 367.286007 258.768697 
L 367.554984 270.372043 
L 367.689472 271.257181 
L 367.958448 276.261743 
L 368.227425 252.196247 
L 368.496401 154.187396 
L 368.765378 101.195707 
L 369.034354 90.060533 
L 369.168842 94.883678 
L 369.303331 94.429649 
L 369.437819 97.870712 
L 369.572307 95.702979 
L 369.706795 112.157756 
L 370.244748 238.655839 
L 370.782701 283.823693 
L 370.917189 284.13532 
L 371.051677 285.046305 
L 371.186166 284.7615 
L 371.455142 269.620042 
L 371.858607 174.329027 
L 372.127583 207.008397 
L 372.262071 202.859712 
L 372.396559 204.317385 
L 372.665536 193.397764 
L 372.800024 197.274812 
L 373.203489 237.843853 
L 373.472465 260.584326 
L 373.87593 282.237761 
L 374.010418 291.452456 
L 374.144906 291.303226 
L 374.279394 292.536079 
L 374.413883 292.022065 
L 374.682859 275.101067 
L 375.220812 183.755375 
L 375.489788 180.047063 
L 375.624277 180.274809 
L 375.893253 186.952598 
L 376.027741 191.342197 
L 376.565694 260.397545 
L 376.83467 269.481541 
L 376.969159 272.379818 
L 377.103647 284.449386 
L 377.238135 283.332601 
L 377.507112 285.450591 
L 377.6416 283.441841 
L 377.776088 287.058468 
L 378.045064 284.8644 
L 378.179553 275.012797 
L 378.314041 274.37345 
L 378.448529 267.117761 
L 378.583017 268.140424 
L 378.717505 267.203105 
L 378.851994 271.813135 
L 378.986482 271.036262 
L 379.12097 271.964315 
L 379.255458 274.171063 
L 379.389947 274.052069 
L 379.927899 283.50914 
L 380.062388 283.297975 
L 380.196876 283.723719 
L 380.331364 273.597065 
L 380.465852 274.290057 
L 380.869317 277.258071 
L 381.138293 266.122408 
L 381.272782 238.431019 
L 381.541758 162.19411 
L 381.810734 141.586746 
L 381.945223 143.213155 
L 382.214199 149.843152 
L 382.348687 141.676967 
L 382.752152 192.635034 
L 383.021128 262.139534 
L 383.155616 270.242808 
L 383.290105 270.919707 
L 383.424593 272.235465 
L 383.559081 267.197741 
L 383.693569 266.470124 
L 383.962546 266.824179 
L 384.097034 268.040938 
L 384.231522 266.217506 
L 384.36601 267.640553 
L 385.038451 150.929213 
L 385.17294 153.426617 
L 385.307428 168.897258 
L 385.576404 163.128015 
L 386.248845 265.048539 
L 386.921286 283.959756 
L 387.055775 283.1268 
L 387.190263 284.432805 
L 387.324751 283.726645 
L 387.459239 283.891481 
L 387.593727 285.414015 
L 387.728216 284.826849 
L 387.862704 286.173331 
L 387.997192 284.97803 
L 388.13168 286.603951 
L 388.266169 285.59787 
L 388.400657 283.56815 
L 388.535145 283.659346 
L 388.669633 282.981959 
L 388.804121 284.146537 
L 388.93861 281.53843 
L 389.207586 283.726645 
L 389.476562 290.566343 
L 389.611051 289.484184 
L 389.745539 290.31909 
L 389.880027 290.265933 
L 390.014515 275.026452 
L 390.149004 275.268828 
L 390.41798 275.291262 
L 390.552468 275.157637 
L 390.686956 269.534211 
L 390.821445 269.72343 
L 390.955933 260.669669 
L 391.224909 203.230836 
L 391.359397 171.138143 
L 391.493886 167.057245 
L 391.762862 177.99491 
L 391.89735 177.438956 
L 392.031839 170.050619 
L 392.166327 173.83452 
L 392.300815 183.019467 
L 392.569791 244.550903 
L 392.70428 271.439573 
L 392.973256 276.392928 
L 393.107744 277.065438 
L 393.376721 269.847788 
L 393.645697 275.696523 
L 393.780185 272.22815 
L 393.914673 273.64437 
L 394.049162 266.061936 
L 394.721603 148.831705 
L 394.990579 147.735403 
L 395.125067 147.305758 
L 395.259556 158.951045 
L 395.394044 159.841059 
L 395.931997 250.002179 
L 396.200973 263.923951 
L 396.335461 260.101523 
L 396.46995 285.441812 
L 396.604438 285.833906 
L 397.007902 288.938471 
L 397.276879 275.582406 
L 397.545855 200.183817 
L 397.680343 194.877382 
L 397.94932 170.964042 
L 398.083808 157.188573 
L 398.218296 170.224233 
L 398.352785 165.348418 
L 398.487273 168.430062 
L 398.487273 168.430062 
" clip-path="url(#p4760332a51)" style="fill: none; stroke: #1f77b4; stroke-width: 1.5; stroke-linecap: square"/>
   </g>
   <g id="line2d_13">
    <path d="M 73.832727 284.048189 
L 73.967215 284.182098 
L 74.101704 284.013896 
L 74.37068 285.680977 
L 74.505168 284.472904 
L 74.639657 285.20388 
L 74.774145 284.440142 
L 75.043121 279.727803 
L 75.177609 283.160924 
L 75.312098 267.093102 
L 75.446586 215.321846 
L 75.581074 252.055374 
L 75.715562 252.678752 
L 75.85005 254.838912 
L 76.119027 267.135139 
L 76.253515 266.676152 
L 76.388003 266.896448 
L 76.522492 265.241549 
L 76.65698 265.062751 
L 76.791468 264.135343 
L 76.925956 283.525068 
L 77.060444 283.412043 
L 77.329421 277.491597 
L 77.463909 275.989748 
L 77.598397 261.269959 
L 77.732885 270.577791 
L 78.001862 266.338249 
L 78.13635 236.518629 
L 78.405327 160.494019 
L 78.674303 113.976413 
L 78.943279 127.725992 
L 79.212256 166.121533 
L 79.346744 198.898291 
L 79.481232 179.040947 
L 79.884697 231.129172 
L 80.019185 237.409082 
L 80.153673 261.361105 
L 80.288161 261.844457 
L 80.557138 269.224541 
L 80.826114 254.997881 
L 80.960603 262.832684 
L 81.229579 251.630784 
L 81.364067 234.456112 
L 81.767532 128.459832 
L 81.90202 126.748016 
L 82.036508 165.784335 
L 82.170996 138.605153 
L 82.305485 138.337087 
L 82.708949 237.791732 
L 82.843438 234.307804 
L 82.977926 253.172663 
L 83.112414 252.039152 
L 83.246902 244.01225 
L 83.515879 260.309537 
L 83.650367 259.226475 
L 83.784855 261.317017 
L 83.919343 259.054771 
L 84.18832 270.120981 
L 84.322808 265.264049 
L 84.457296 266.054981 
L 84.591784 254.2527 
L 84.860761 184.330917 
L 84.995249 109.609254 
L 85.129737 118.052031 
L 85.398714 160.616224 
L 85.66769 193.148513 
L 85.802178 249.377446 
L 86.205643 253.97057 
L 86.474619 263.532837 
L 86.609107 269.336119 
L 86.743596 269.628456 
L 86.878084 275.597807 
L 87.012572 273.100938 
L 87.281549 286.080524 
L 87.416037 291.188419 
L 87.550525 291.719427 
L 87.819501 290.458959 
L 87.95399 290.29646 
L 88.088478 292.614714 
L 88.357454 241.145488 
L 88.491942 260.442986 
L 88.626431 252.053061 
L 88.760919 264.026625 
L 88.895407 264.359872 
L 89.029895 266.200347 
L 89.164384 270.15201 
L 89.298872 263.488887 
L 89.43336 268.814002 
L 89.567848 267.463111 
L 89.702336 269.446076 
L 89.836825 281.705622 
L 90.105801 282.053412 
L 90.240289 280.190737 
L 90.374777 281.860269 
L 90.509266 265.136292 
L 90.778242 272.412658 
L 90.91273 271.076651 
L 91.181707 256.037854 
L 91.316195 267.023852 
L 91.450683 261.989555 
L 91.585171 243.524798 
L 91.71966 253.188876 
L 91.854148 244.670221 
L 91.988636 261.972326 
L 92.123124 258.166747 
L 92.257612 266.881953 
L 92.392101 267.036666 
L 92.661077 268.769605 
L 92.795565 267.655759 
L 93.064542 271.656919 
L 93.19903 269.735569 
L 93.333518 272.299552 
L 93.468006 269.380236 
L 93.602495 263.03892 
L 93.736983 272.714561 
L 94.140447 262.918095 
L 94.409424 185.180064 
L 94.543912 198.009964 
L 94.812888 153.500844 
L 94.947377 171.308819 
L 95.081865 150.851495 
L 95.216353 153.036777 
L 95.350841 181.220809 
L 95.48533 232.779461 
L 95.619818 237.647336 
L 95.888794 216.696864 
L 96.157771 264.175924 
L 96.292259 276.647513 
L 96.426747 277.535215 
L 96.695723 271.184692 
L 96.830212 271.226315 
L 96.9647 268.968051 
L 97.099188 270.200959 
L 97.233676 268.22396 
L 97.368164 261.131987 
L 97.771629 155.426644 
L 97.906117 153.77106 
L 98.040606 144.700499 
L 98.175094 177.882001 
L 98.309582 163.223796 
L 98.713047 240.925037 
L 98.847535 238.241015 
L 99.250999 254.193616 
L 99.654464 278.909145 
L 100.057929 269.858851 
L 100.192417 277.868143 
L 100.461393 269.93705 
L 100.595882 271.766096 
L 100.864858 180.209357 
L 100.999346 197.736832 
L 101.268323 248.939236 
L 101.402811 269.842383 
L 101.537299 253.873426 
L 101.806276 270.067301 
L 101.940764 271.018679 
L 102.075252 282.253154 
L 102.20974 272.553919 
L 102.344228 270.945548 
L 102.478717 274.167123 
L 102.613205 272.257578 
L 102.747693 273.132756 
L 102.882181 272.890239 
L 103.016669 275.945643 
L 103.151158 272.696593 
L 103.285646 281.240618 
L 103.420134 260.270834 
L 103.68911 274.470215 
L 103.823599 269.982371 
L 104.361552 146.960107 
L 104.49604 132.57327 
L 104.630528 165.719336 
L 104.765016 155.466757 
L 104.899504 177.748256 
L 105.033993 180.278215 
L 105.302969 234.666177 
L 105.437457 232.662617 
L 105.571945 235.070384 
L 106.109898 275.714527 
L 106.378875 262.21919 
L 106.647851 270.139307 
L 106.916828 260.3348 
L 107.051316 257.654604 
L 107.589269 147.156217 
L 107.723757 149.1353 
L 107.992733 200.532387 
L 108.127222 206.500416 
L 108.530686 268.013076 
L 108.934151 265.395544 
L 109.203127 272.739886 
L 109.337615 281.794368 
L 109.472104 279.20001 
L 109.606592 279.999604 
L 109.74108 278.439921 
L 109.875568 273.866154 
L 110.010056 275.403801 
L 110.144545 274.903004 
L 110.279033 275.547378 
L 110.548009 267.450138 
L 110.816986 274.516929 
L 111.085962 275.325625 
L 111.354939 273.206205 
L 111.489427 274.224282 
L 111.623915 277.21927 
L 111.758403 276.675896 
L 112.161868 272.711856 
L 112.565333 276.625897 
L 112.834309 277.160489 
L 112.968797 277.240774 
L 113.103285 265.915328 
L 113.372262 271.267589 
L 113.50675 271.239547 
L 113.775726 262.773188 
L 114.044703 271.340525 
L 114.179191 272.421512 
L 114.313679 266.476713 
L 114.448168 270.118182 
L 114.717144 264.772165 
L 114.851632 270.430509 
L 114.98612 270.842917 
L 115.255097 265.79174 
L 115.389585 263.646049 
L 115.524073 264.320614 
L 115.79305 269.479969 
L 115.927538 269.588028 
L 116.331002 258.772337 
L 116.465491 260.271286 
L 116.599979 251.714341 
L 116.734467 257.075204 
L 117.27242 121.37264 
L 117.541396 116.042065 
L 117.675885 113.667542 
L 117.810373 123.61373 
L 118.079349 176.257307 
L 118.213837 157.284406 
L 118.348326 160.841965 
L 118.617302 193.865329 
L 118.886279 259.163432 
L 119.020767 258.649169 
L 119.289743 262.446623 
L 119.424231 256.482695 
L 119.693208 260.796203 
L 119.827696 258.865034 
L 119.962184 259.037041 
L 120.096672 240.184653 
L 120.500137 111.208458 
L 120.634625 102.524794 
L 120.769114 113.096857 
L 120.903602 99.462807 
L 121.172578 133.00794 
L 121.307066 157.956876 
L 121.441555 147.636455 
L 121.576043 151.741016 
L 121.979507 231.621575 
L 122.113996 261.731316 
L 122.248484 257.233227 
L 122.382972 265.389511 
L 122.51746 254.898319 
L 122.651948 255.651141 
L 122.786437 257.381407 
L 122.920925 264.967178 
L 123.189901 258.215517 
L 123.32439 256.072379 
L 123.593366 196.524071 
L 123.862342 86.209756 
L 123.996831 81.959057 
L 124.669272 167.692315 
L 124.80376 166.185987 
L 124.938248 170.867381 
L 125.072736 186.760945 
L 125.341713 262.434148 
L 125.476201 261.025887 
L 125.610689 270.465879 
L 125.879666 257.558513 
L 126.014154 257.373181 
L 126.148642 267.631096 
L 126.28313 264.706982 
L 126.417618 265.286798 
L 126.955571 122.852012 
L 127.09006 123.957345 
L 127.224548 134.498795 
L 127.359036 124.924842 
L 127.493524 124.685946 
L 127.628012 133.38975 
L 127.896989 177.866029 
L 128.031477 180.387531 
L 128.300453 206.040178 
L 128.56943 258.316181 
L 128.703918 259.829752 
L 128.838406 264.548965 
L 129.107383 256.749961 
L 129.241871 264.93955 
L 129.376359 261.226773 
L 129.510847 262.254683 
L 129.645336 264.276098 
L 130.317777 115.280436 
L 130.586753 124.372976 
L 130.721241 121.86189 
L 130.855729 147.300567 
L 130.990218 200.700364 
L 131.259194 179.817166 
L 131.797147 263.277682 
L 132.066123 272.044909 
L 132.3351 266.17076 
L 132.604076 264.542029 
L 132.873053 274.842043 
L 133.276517 262.562683 
L 133.411005 249.996244 
L 133.545494 256.490697 
L 133.81447 245.772579 
L 133.948958 250.714097 
L 134.083447 247.817632 
L 134.217935 257.06327 
L 134.352423 257.823219 
L 134.486911 253.875726 
L 134.621399 257.782099 
L 134.755888 257.631609 
L 135.024864 260.79092 
L 135.29384 266.104901 
L 135.428329 264.94085 
L 135.697305 269.612156 
L 135.831793 270.177407 
L 136.10077 273.125891 
L 136.235258 269.335561 
L 136.369746 272.591645 
L 136.504234 270.377092 
L 136.638723 263.987146 
L 136.773211 268.854986 
L 136.907699 267.798699 
L 137.042187 261.139035 
L 137.176675 266.088222 
L 137.311164 264.749722 
L 137.445652 270.578284 
L 137.714628 263.987578 
L 137.983605 265.353145 
L 138.118093 262.91821 
L 138.252581 266.27285 
L 138.387069 260.775663 
L 138.521558 260.397347 
L 138.656046 258.154258 
L 138.790534 259.698064 
L 138.925022 263.476001 
L 139.05951 260.05013 
L 139.193999 259.541 
L 139.328487 262.685481 
L 139.86644 125.472977 
L 140.000928 115.090056 
L 140.135416 124.384994 
L 140.269904 122.238526 
L 140.404393 123.17122 
L 140.538881 135.031105 
L 140.807857 174.921194 
L 141.076834 201.191445 
L 141.211322 209.058492 
L 141.34581 226.362015 
L 141.480298 258.407593 
L 141.749275 261.515369 
L 141.883763 269.673212 
L 142.018251 262.62313 
L 142.287228 268.888216 
L 142.421716 267.36107 
L 142.556204 270.535982 
L 142.690692 245.429593 
L 142.82518 176.347 
L 142.959669 167.140404 
L 143.228645 89.994941 
L 143.63211 122.310877 
L 143.901086 178.713929 
L 144.035574 158.568457 
L 144.170063 171.652119 
L 144.304551 205.421908 
L 144.439039 204.509697 
L 144.708015 261.752957 
L 144.842504 261.053571 
L 145.11148 270.538372 
L 145.380456 263.441016 
L 145.783921 269.760944 
L 145.918409 248.142789 
L 146.052897 172.158833 
L 146.187386 168.774471 
L 146.456362 118.141268 
L 146.59085 118.58861 
L 146.994315 176.776818 
L 147.128803 206.371462 
L 147.263291 184.402239 
L 147.39778 204.931379 
L 147.532268 193.251403 
L 147.666756 214.12958 
L 147.801244 257.804002 
L 148.070221 265.004789 
L 148.339197 268.430316 
L 148.473685 263.214071 
L 148.742662 267.789977 
L 148.87715 266.577778 
L 149.011638 267.36212 
L 149.146126 256.049473 
L 149.549591 120.422845 
L 149.684079 115.402139 
L 149.953056 133.114456 
L 150.087544 129.242559 
L 150.222032 143.927879 
L 150.491009 221.136582 
L 150.625497 231.725117 
L 150.759985 210.112479 
L 150.894473 222.301071 
L 151.16345 263.279954 
L 151.297938 262.324071 
L 151.432426 269.726983 
L 151.566914 269.115188 
L 151.701402 262.772143 
L 151.970379 266.275882 
L 152.239355 269.333384 
L 152.508332 193.190353 
L 152.777308 124.053513 
L 152.911796 109.64975 
L 153.180773 118.783355 
L 153.315261 117.664866 
L 153.449749 145.855852 
L 153.718726 234.73393 
L 153.853214 254.03987 
L 153.987702 245.956007 
L 154.256678 264.503617 
L 154.660143 279.193166 
L 154.794631 274.091242 
L 154.92912 276.975737 
L 155.063608 276.926164 
L 155.198096 277.98498 
L 155.332584 278.049586 
L 155.467072 279.0176 
L 155.601561 275.422905 
L 155.736049 277.212078 
L 155.870537 274.373314 
L 156.139513 248.092738 
L 156.274002 260.277924 
L 156.40849 256.265523 
L 156.542978 264.90136 
L 156.677466 264.134016 
L 156.946443 271.07463 
L 157.080931 271.543024 
L 157.215419 268.199454 
L 157.753372 274.941256 
L 157.88786 276.352022 
L 158.022348 274.435868 
L 158.425813 277.774282 
L 158.560301 277.777814 
L 158.694789 278.352229 
L 158.829278 275.77297 
L 159.098254 280.606325 
L 159.232742 277.759872 
L 159.367231 279.737228 
L 159.501719 278.374941 
L 159.636207 275.061486 
L 159.905183 277.303863 
L 160.039672 276.687347 
L 160.308648 270.632779 
L 160.443136 272.606709 
L 160.577624 268.204783 
L 160.712113 270.233388 
L 160.981089 270.254565 
L 161.250066 264.230279 
L 161.384554 266.441886 
L 161.519042 264.126054 
L 161.65353 269.794387 
L 161.788018 267.167041 
L 161.922507 267.95743 
L 162.056995 231.811566 
L 162.191483 227.649785 
L 162.325971 201.533378 
L 162.460459 124.526402 
L 162.729436 110.635137 
L 162.863924 116.106594 
L 163.132901 160.830765 
L 163.267389 169.500238 
L 163.401877 191.622225 
L 163.536365 186.791817 
L 163.670853 194.383773 
L 164.074318 259.488945 
L 164.208806 259.087639 
L 164.477783 263.775605 
L 164.612271 255.438521 
L 164.746759 255.709294 
L 165.015735 264.116973 
L 165.150224 265.054686 
L 165.822665 102.438956 
L 165.957153 109.617781 
L 166.091641 135.937964 
L 166.226129 128.113264 
L 166.495106 183.54904 
L 166.629594 185.456577 
L 166.89857 173.554512 
L 167.033059 184.657083 
L 167.302035 265.587608 
L 167.571012 256.922476 
L 167.7055 264.218424 
L 167.839988 260.205044 
L 168.243453 265.406542 
L 168.377941 264.947711 
L 168.781405 209.246792 
L 169.050382 87.360687 
L 169.588335 162.308665 
L 169.722823 182.884184 
L 169.857311 165.646404 
L 169.991799 179.660531 
L 170.260776 222.535181 
L 170.798729 271.655845 
L 171.067705 261.231108 
L 171.202193 264.675193 
L 171.336681 262.998835 
L 171.47117 263.357474 
L 171.605658 263.279758 
L 171.740146 252.06385 
L 172.009123 168.583176 
L 172.278099 100.638882 
L 172.412587 100.549948 
L 172.681564 159.439056 
L 172.95054 177.026101 
L 173.219516 202.653619 
L 173.354005 213.266957 
L 173.488493 211.972598 
L 173.757469 266.40443 
L 173.891958 264.078161 
L 174.026446 269.772762 
L 174.160934 269.241381 
L 174.295422 269.626204 
L 174.42991 282.749707 
L 174.564399 275.844535 
L 174.698887 278.268218 
L 174.833375 276.871535 
L 175.505816 123.006328 
L 175.640304 147.072377 
L 175.774792 148.457608 
L 175.909281 147.532143 
L 176.312745 227.874969 
L 176.447234 228.663817 
L 176.581722 234.00096 
L 176.71621 232.478428 
L 177.119675 269.649078 
L 177.254163 275.932242 
L 177.388651 276.738119 
L 177.523139 270.626752 
L 177.792116 275.602887 
L 177.926604 274.355881 
L 178.061092 276.500436 
L 178.19558 274.543039 
L 178.330069 274.466303 
L 178.464557 275.992605 
L 178.733533 256.814275 
L 178.868021 263.874204 
L 179.00251 253.47204 
L 179.136998 258.758301 
L 179.271486 257.570513 
L 179.405974 267.286976 
L 179.540462 267.225713 
L 179.674951 266.174039 
L 179.809439 267.220249 
L 179.943927 264.671617 
L 180.078415 265.153657 
L 180.347392 271.530466 
L 180.48188 276.932647 
L 180.616368 272.655706 
L 180.750856 272.957377 
L 180.885345 281.471407 
L 181.154321 280.07355 
L 181.288809 279.86886 
L 181.423297 275.009236 
L 181.557786 275.540656 
L 181.96125 260.928804 
L 182.095738 266.728003 
L 182.230227 263.47269 
L 182.364715 270.725756 
L 182.499203 261.226418 
L 182.76818 274.566962 
L 183.037156 275.338718 
L 183.171644 277.465941 
L 183.306132 275.843548 
L 183.440621 275.667476 
L 183.709597 268.089615 
L 183.844085 267.109867 
L 184.113062 261.955718 
L 184.24755 268.516333 
L 184.382038 266.418672 
L 184.516526 258.264051 
L 184.785503 150.565515 
L 184.919991 161.872125 
L 185.054479 139.857713 
L 185.188967 144.714016 
L 185.323456 174.155222 
L 185.457944 165.919371 
L 185.72692 191.465272 
L 185.995897 251.121653 
L 186.130385 253.314398 
L 186.668338 273.858696 
L 186.802826 272.313193 
L 186.937314 272.542969 
L 187.071802 268.865619 
L 187.475267 278.240691 
L 187.609755 274.499631 
L 187.744243 266.495273 
L 188.01322 176.636045 
L 188.147708 175.264341 
L 188.282196 140.200815 
L 188.416684 150.516278 
L 188.551173 178.525811 
L 188.685661 167.341494 
L 188.954637 189.94153 
L 189.223614 260.295217 
L 189.358102 257.294504 
L 190.030543 274.03946 
L 190.165031 267.573753 
L 190.434008 276.533479 
L 190.568496 270.549144 
L 190.702984 271.052201 
L 190.837472 266.992204 
L 190.971961 258.599056 
L 191.240937 183.201414 
L 191.644402 219.461748 
L 191.77889 219.633857 
L 191.913378 216.72834 
L 192.047866 203.391136 
L 192.451331 272.272059 
L 192.720307 265.81053 
L 192.989284 262.728166 
L 193.123772 264.720023 
L 193.25826 270.322081 
L 193.392748 265.74719 
L 193.527237 265.943438 
L 193.661725 265.073523 
L 193.796213 265.289641 
L 193.930701 265.194422 
L 194.065189 268.665499 
L 194.199678 266.892737 
L 194.468654 185.22735 
L 194.603142 173.882031 
L 194.73763 129.49998 
L 195.006607 159.860251 
L 195.141095 149.982498 
L 195.410072 160.212278 
L 195.679048 236.157862 
L 195.813536 221.074096 
L 195.948024 230.809296 
L 196.082513 231.267514 
L 196.217001 257.267408 
L 196.351489 261.093695 
L 196.485977 271.441748 
L 196.754954 263.211684 
L 196.889442 265.065318 
L 197.02393 276.105026 
L 197.158418 269.672102 
L 197.292907 271.098049 
L 197.427395 269.631652 
L 197.561883 261.694296 
L 197.830859 206.412247 
L 198.099836 142.365392 
L 198.234324 180.053414 
L 198.368812 173.426241 
L 198.637789 189.934034 
L 198.906765 252.853406 
L 199.041253 249.647478 
L 199.444718 260.777675 
L 199.713694 280.584903 
L 199.848183 279.09507 
L 200.117159 282.234483 
L 200.251647 285.178264 
L 200.386135 282.978295 
L 200.655112 283.688255 
L 200.7896 278.291076 
L 200.924088 267.545465 
L 201.058576 269.08428 
L 201.193065 238.923091 
L 201.327553 171.966267 
L 201.462041 217.644293 
L 201.596529 201.582077 
L 201.731018 207.850862 
L 201.865506 207.889995 
L 201.999994 240.778714 
L 202.134482 240.072993 
L 202.403459 250.069202 
L 202.537947 256.383994 
L 202.672435 256.559267 
L 202.941411 277.879223 
L 203.0759 275.561181 
L 203.344876 279.081004 
L 203.479364 271.463888 
L 203.613853 270.454076 
L 203.748341 275.115015 
L 203.882829 274.076723 
L 204.151805 258.612093 
L 204.286294 252.112352 
L 204.420782 225.106286 
L 204.55527 165.805453 
L 204.689758 184.826957 
L 204.824246 170.880831 
L 205.227711 218.304767 
L 205.362199 209.082682 
L 205.496688 232.850484 
L 205.631176 223.821231 
L 205.765664 245.921694 
L 205.900152 249.68462 
L 206.169129 270.454993 
L 206.438105 262.487647 
L 206.572593 266.260393 
L 206.707081 281.458514 
L 206.84157 274.531686 
L 206.976058 276.387742 
L 207.110546 272.199284 
L 207.379522 209.664498 
L 207.514011 213.481229 
L 207.648499 213.921235 
L 207.782987 217.319897 
L 207.917475 214.00756 
L 208.051964 206.093291 
L 208.186452 210.895653 
L 208.589916 276.415623 
L 208.858893 268.15428 
L 208.993381 270.737659 
L 209.127869 270.968087 
L 209.262357 278.565334 
L 209.396846 277.383017 
L 209.531334 280.626565 
L 209.665822 279.851212 
L 209.80031 276.85652 
L 209.934799 268.792352 
L 210.069287 272.853794 
L 210.203775 272.164415 
L 210.338263 265.117783 
L 210.60724 166.121556 
L 210.741728 171.775046 
L 211.010704 134.748457 
L 211.145192 150.611402 
L 211.414169 120.789522 
L 211.548657 127.724541 
L 211.817634 240.372226 
L 211.952122 247.807635 
L 212.08661 246.277628 
L 212.490075 269.389072 
L 212.624563 274.063452 
L 212.893539 268.182948 
L 213.162516 273.958859 
L 213.297004 275.164504 
L 213.431492 272.012499 
L 213.56598 264.64552 
L 213.834957 170.838195 
L 213.969445 164.515317 
L 214.238421 114.26739 
L 214.507398 140.484861 
L 214.641886 138.6729 
L 214.776374 159.461987 
L 215.045351 254.671673 
L 215.179839 258.277152 
L 215.448815 259.645376 
L 215.717792 269.897955 
L 215.85228 274.58668 
L 215.986768 263.915568 
L 216.121256 268.199761 
L 216.255745 264.410682 
L 216.524721 267.999839 
L 216.659209 267.544834 
L 216.793697 261.787843 
L 217.062674 178.911866 
L 217.197162 174.118347 
L 217.33165 128.799454 
L 217.466138 124.729692 
L 217.735115 149.742156 
L 217.869603 150.426039 
L 218.407556 251.243131 
L 218.676532 261.462187 
L 218.811021 260.743752 
L 219.079997 271.233313 
L 219.348973 274.421061 
L 219.483462 260.62826 
L 219.61795 268.420248 
L 219.752438 268.375275 
L 219.886926 269.698373 
L 220.021414 265.962854 
L 220.559367 121.653975 
L 220.693856 122.657951 
L 220.828344 162.755919 
L 220.962832 158.269246 
L 221.231808 183.953659 
L 221.500785 245.807397 
L 221.635273 260.380983 
L 222.038738 264.352252 
L 222.307714 275.2356 
L 222.442202 275.171576 
L 222.576691 278.828709 
L 222.711179 275.628433 
L 222.845667 276.927662 
L 223.114643 280.769369 
L 223.249132 280.81259 
L 223.38362 280.147153 
L 223.518108 275.426208 
L 223.652596 279.028578 
L 223.787084 248.238955 
L 223.921573 246.395175 
L 224.056061 269.605139 
L 224.325037 257.053267 
L 224.459525 258.708927 
L 224.728502 269.149474 
L 224.86299 270.805631 
L 225.266455 266.665114 
L 225.535431 270.443879 
L 225.669919 270.851549 
L 225.804408 268.575568 
L 225.938896 269.206222 
L 226.073384 268.372603 
L 226.207872 266.672563 
L 226.34236 271.282709 
L 226.476849 270.517014 
L 226.745825 261.135393 
L 226.880313 269.034478 
L 227.014802 269.509906 
L 227.14929 262.739976 
L 227.283778 264.401711 
L 227.552754 274.846099 
L 227.687243 273.885073 
L 227.956219 277.337463 
L 228.090707 277.768382 
L 228.225195 277.577732 
L 228.494172 275.480252 
L 228.62866 281.072496 
L 228.763148 274.030993 
L 228.897637 274.185819 
L 229.032125 270.103979 
L 229.166613 272.470616 
L 229.301101 272.390329 
L 229.435589 268.39818 
L 229.570078 270.723136 
L 229.704566 265.971698 
L 230.242519 132.61937 
L 230.377007 139.56682 
L 230.645983 120.512342 
L 230.780471 131.869826 
L 230.91496 130.311431 
L 231.049448 187.046211 
L 231.183936 188.806225 
L 231.318424 195.075934 
L 231.990865 266.609774 
L 232.125354 265.764516 
L 232.259842 267.718601 
L 232.528818 268.179005 
L 232.663306 267.574788 
L 232.797795 270.333065 
L 232.932283 264.587734 
L 233.201259 181.81714 
L 233.335748 169.240446 
L 233.604724 119.206529 
L 233.739212 130.349701 
L 233.8737 131.297217 
L 234.142677 156.630764 
L 234.277165 216.52245 
L 234.411653 207.699844 
L 235.084094 263.71336 
L 235.218583 271.986184 
L 235.487559 262.36706 
L 235.622047 266.998535 
L 235.756535 266.91842 
L 236.025512 272.491245 
L 236.16 256.171277 
L 236.428976 161.242136 
L 236.563465 166.70518 
L 236.832441 118.192704 
L 237.101417 128.686691 
L 237.235906 132.218633 
L 237.370394 142.95816 
L 237.63937 246.949819 
L 237.773859 239.391703 
L 238.4463 274.097026 
L 238.984252 266.219761 
L 239.118741 266.718683 
L 239.253229 269.602929 
L 239.387717 256.968089 
L 239.656694 202.98798 
L 240.060158 122.835784 
L 240.194646 131.802269 
L 240.329135 125.048011 
L 240.598111 164.541309 
L 240.867087 251.182091 
L 241.001576 246.860904 
L 241.270552 251.680081 
L 241.539529 267.51274 
L 241.674017 263.901867 
L 241.808505 264.981715 
L 241.942993 261.307653 
L 242.077481 262.923474 
L 242.21197 261.336034 
L 242.346458 274.229044 
L 242.480946 269.00378 
L 242.615434 270.449038 
L 242.884411 193.322848 
L 243.018899 173.09538 
L 243.153387 125.230614 
L 243.287875 117.044523 
L 243.556852 160.831599 
L 243.69134 161.349371 
L 243.825828 177.585112 
L 244.229293 250.756517 
L 244.363781 254.720487 
L 244.498269 265.451037 
L 244.632757 265.719622 
L 244.767246 266.276932 
L 245.17071 274.03641 
L 245.305198 273.701328 
L 245.574175 279.740996 
L 245.708663 279.550418 
L 245.843151 278.205802 
L 246.112128 269.764043 
L 246.246616 246.894511 
L 246.381104 271.005343 
L 246.515592 264.870862 
L 246.650081 264.173894 
L 246.919057 257.154503 
L 247.45701 277.11514 
L 247.591498 276.213109 
L 247.725986 278.475678 
L 247.860475 278.42879 
L 247.994963 279.194475 
L 248.129451 278.057293 
L 248.263939 280.788077 
L 248.398427 278.834864 
L 248.532916 278.777867 
L 248.801892 277.371266 
L 248.93638 279.384753 
L 249.070868 276.929605 
L 249.205357 277.88102 
L 249.339845 274.579967 
L 249.474333 275.353217 
L 249.743309 278.294837 
L 249.877798 277.112941 
L 250.146774 272.939557 
L 250.415751 277.340033 
L 250.550239 277.8084 
L 250.684727 277.641482 
L 250.953703 278.289644 
L 251.088192 277.884091 
L 251.22268 278.098023 
L 251.357168 277.388192 
L 251.491656 279.655085 
L 251.895121 274.47742 
L 252.029609 284.680013 
L 252.298586 264.810947 
L 252.567562 197.396039 
L 252.70205 201.46813 
L 252.971027 117.256146 
L 253.105515 135.769222 
L 253.240003 137.112431 
L 253.777956 256.48569 
L 253.912444 257.059172 
L 254.046932 253.81551 
L 254.315909 265.822104 
L 254.450397 268.572245 
L 254.584885 267.18099 
L 254.853862 283.979209 
L 254.98835 282.884485 
L 255.257326 288.583585 
L 255.526303 275.159692 
L 255.660791 247.751369 
L 255.795279 191.454605 
L 255.929767 186.644177 
L 256.198744 126.493102 
L 256.333232 176.484676 
L 256.46772 165.941756 
L 256.602208 172.666982 
L 257.005673 243.459202 
L 257.140161 248.169594 
L 257.409138 265.152102 
L 257.543626 265.635937 
L 257.678114 266.7243 
L 257.812602 264.997113 
L 257.94709 269.706875 
L 258.081579 266.996114 
L 258.216067 270.109412 
L 258.350555 270.000877 
L 258.485043 282.957868 
L 258.619532 284.372502 
L 258.888508 240.641157 
L 259.157484 177.00824 
L 259.291973 118.210632 
L 259.426461 120.408547 
L 259.695437 187.105788 
L 259.829925 181.960768 
L 259.964414 183.107062 
L 260.23339 250.904561 
L 260.367878 236.005822 
L 260.771343 260.906498 
L 260.905831 266.288173 
L 261.040319 266.915696 
L 261.174808 266.426353 
L 261.309296 267.705023 
L 261.443784 264.116694 
L 261.578272 263.635586 
L 261.71276 271.066242 
L 261.847249 268.515268 
L 261.981737 263.630433 
L 262.385201 168.404005 
L 262.51969 132.130523 
L 262.654178 129.03501 
L 262.788666 174.756709 
L 263.057643 154.15734 
L 263.192131 167.639532 
L 263.461107 229.913908 
L 263.595595 248.69697 
L 263.730084 249.772655 
L 263.864572 255.094428 
L 263.99906 255.117893 
L 264.133548 261.130713 
L 264.268036 261.676432 
L 264.402525 263.494789 
L 264.537013 262.168335 
L 264.671501 262.65835 
L 264.805989 270.072562 
L 264.940478 264.876751 
L 265.074966 269.331531 
L 265.209454 253.701005 
L 265.747407 140.107358 
L 265.881895 144.326095 
L 266.016383 137.132158 
L 266.150871 118.880694 
L 266.28536 124.645561 
L 266.419848 135.551235 
L 266.688824 207.657043 
L 266.823312 207.910884 
L 266.957801 211.960797 
L 267.495754 267.539043 
L 267.630242 265.207644 
L 267.76473 265.21437 
L 267.899218 261.861525 
L 268.033706 276.945004 
L 268.168195 272.886248 
L 268.302683 275.149108 
L 268.437171 274.407525 
L 268.706147 275.015447 
L 268.975124 270.729119 
L 269.109612 278.22332 
L 269.2441 274.427359 
L 269.378589 267.45329 
L 269.647565 269.418812 
L 269.782053 273.265777 
L 269.916541 273.508995 
L 270.05103 272.126933 
L 270.320006 268.504503 
L 270.454494 266.400284 
L 270.588982 267.281341 
L 270.723471 267.260608 
L 270.857959 268.033452 
L 270.992447 271.33862 
L 271.126935 271.251301 
L 271.261424 285.122675 
L 271.5304 280.199954 
L 271.664888 279.471261 
L 271.933865 271.819006 
L 272.068353 274.7337 
L 272.202841 273.359993 
L 272.337329 280.515545 
L 272.471817 271.478128 
L 272.606306 273.458321 
L 272.740794 272.36285 
L 273.00977 277.640086 
L 273.278747 280.526514 
L 273.547723 279.409198 
L 273.682211 277.068862 
L 273.8167 277.311261 
L 273.951188 270.45073 
L 274.085676 271.682145 
L 274.220164 270.545756 
L 274.489141 271.859729 
L 274.623629 290.632362 
L 274.758117 287.645002 
L 274.892605 278.025563 
L 275.430558 136.011826 
L 275.565046 131.734994 
L 275.699535 160.993108 
L 275.834023 151.695661 
L 276.102999 158.26031 
L 276.371976 255.505876 
L 276.506464 253.787546 
L 276.77544 263.834159 
L 276.909928 262.318289 
L 277.178905 268.917822 
L 277.313393 274.544938 
L 277.447881 275.115124 
L 277.58237 279.870637 
L 277.716858 277.685312 
L 277.851346 284.877661 
L 277.985834 283.772847 
L 278.120322 286.569699 
L 278.389299 277.206478 
L 278.523787 264.426433 
L 278.792763 215.906683 
L 279.06174 177.308945 
L 279.599693 235.615987 
L 280.003157 250.82209 
L 280.137646 255.192255 
L 280.406622 272.227289 
L 280.54111 269.930584 
L 280.810087 276.257182 
L 280.944575 260.902173 
L 281.079063 266.822654 
L 281.213551 266.867626 
L 281.348039 261.625509 
L 281.482528 228.730378 
L 281.617016 162.183202 
L 281.751504 175.386686 
L 282.020481 120.654041 
L 282.154969 154.73042 
L 282.289457 132.490571 
L 282.558433 153.433933 
L 282.692922 191.047875 
L 282.82741 192.220394 
L 283.230874 243.551151 
L 283.499851 264.370434 
L 283.634339 270.021378 
L 283.768827 265.289655 
L 283.903316 265.055527 
L 284.037804 266.393399 
L 284.441268 262.374116 
L 284.575757 248.388378 
L 284.710245 185.435786 
L 284.844733 177.370726 
L 284.979221 180.419534 
L 285.113709 140.915086 
L 285.248198 135.465176 
L 285.382686 139.580681 
L 285.517174 177.654825 
L 285.651662 176.52541 
L 285.920639 163.561541 
L 286.055127 227.926937 
L 286.189615 223.184588 
L 286.324103 228.306303 
L 286.59308 259.882444 
L 286.862056 269.114722 
L 286.996544 264.463369 
L 287.131033 265.326244 
L 287.265521 263.070873 
L 287.400009 286.879052 
L 287.668985 276.415215 
L 288.07245 206.603344 
L 288.206938 213.49922 
L 288.475915 253.684139 
L 288.610403 253.601891 
L 288.879379 222.623572 
L 289.013868 219.685041 
L 289.417332 277.587659 
L 289.55182 274.907698 
L 289.686309 269.592266 
L 289.820797 277.406726 
L 289.955285 277.651449 
L 290.089773 281.896467 
L 290.224262 281.125621 
L 290.35875 281.195508 
L 290.493238 282.241421 
L 290.627726 280.291284 
L 290.762214 282.375858 
L 291.031191 278.313264 
L 291.165679 273.377486 
L 291.300167 260.326099 
L 291.434655 262.864491 
L 291.569144 243.535445 
L 291.703632 168.555345 
L 291.83812 177.527571 
L 291.972608 178.069327 
L 292.107096 181.310212 
L 292.241585 193.298572 
L 292.645049 259.991465 
L 292.914026 254.635278 
L 293.31749 275.572832 
L 293.451979 273.63543 
L 293.586467 275.574401 
L 293.720955 275.008064 
L 293.855443 273.456688 
L 293.989931 274.511257 
L 294.12442 273.35118 
L 294.393396 266.293119 
L 294.527884 253.649945 
L 294.662373 255.896021 
L 294.796861 232.994219 
L 294.931349 176.051772 
L 295.065837 180.561333 
L 295.200325 152.266131 
L 295.334814 153.131883 
L 295.469302 147.737655 
L 295.738278 245.073534 
L 295.872766 229.966653 
L 296.007255 252.292111 
L 296.141743 241.772845 
L 296.545208 272.756548 
L 296.814184 259.624165 
L 296.948672 268.205669 
L 297.08316 287.946407 
L 297.217649 281.557874 
L 297.352137 282.484226 
L 297.755601 225.621539 
L 298.024578 256.253642 
L 298.159066 250.582402 
L 298.293554 258.806363 
L 298.562531 243.434617 
L 298.697019 259.973526 
L 298.831507 262.250826 
L 299.100484 279.182256 
L 299.234972 279.464998 
L 299.36946 278.188631 
L 299.503948 278.724783 
L 299.638436 278.395953 
L 299.907413 281.846873 
L 300.041901 279.68891 
L 300.176389 281.823278 
L 300.310877 263.657892 
L 300.445366 271.88479 
L 300.579854 267.216319 
L 300.84883 190.116893 
L 300.983319 184.123957 
L 301.117807 188.725718 
L 301.386783 148.784039 
L 301.521271 147.1306 
L 301.790248 124.835523 
L 301.924736 141.597515 
L 302.193712 222.344024 
L 302.462689 250.129963 
L 302.731665 253.926877 
L 303.000642 268.228663 
L 303.13513 265.678106 
L 303.269618 260.959427 
L 303.404106 270.227271 
L 303.538595 271.525698 
L 303.673083 268.081679 
L 303.807571 268.231437 
L 304.211036 176.932549 
L 304.345524 191.833145 
L 304.6145 138.257571 
L 304.748988 163.539002 
L 304.883477 155.698577 
L 305.017965 158.185379 
L 305.152453 158.013414 
L 305.824894 254.923756 
L 305.959382 254.227749 
L 306.093871 255.663215 
L 306.362847 272.859469 
L 306.497335 269.099163 
L 306.631823 271.584149 
L 306.766312 270.706777 
L 306.9008 277.94809 
L 307.035288 275.888657 
L 307.304265 202.499331 
L 307.573241 198.073582 
L 307.842217 131.373892 
L 307.976706 177.120727 
L 308.245682 156.450204 
L 308.38017 156.524266 
L 308.783635 248.997621 
L 309.187099 267.131618 
L 309.321588 269.796954 
L 309.456076 275.139953 
L 309.590564 275.272702 
L 309.859541 272.979689 
L 309.994029 266.576227 
L 310.128517 269.597803 
L 310.263005 263.607409 
L 310.531982 197.791036 
L 310.800958 212.710559 
L 311.069934 127.8758 
L 311.204423 161.203324 
L 311.338911 158.964179 
L 311.473399 161.742209 
L 311.607887 167.497978 
L 312.011352 248.682969 
L 312.280328 266.102719 
L 312.414817 265.237929 
L 312.549305 267.002889 
L 312.683793 272.617466 
L 312.952769 273.163122 
L 313.356234 277.165088 
L 313.759699 272.458247 
L 313.894187 273.161409 
L 314.297652 246.752624 
L 314.43214 257.384685 
L 314.566628 250.539484 
L 314.701116 258.016766 
L 314.835604 254.560167 
L 315.104581 271.413084 
L 315.508045 274.529651 
L 315.777022 273.365389 
L 315.91151 276.050863 
L 316.045998 275.944244 
L 316.180487 276.042413 
L 316.314975 275.675741 
L 316.449463 276.959888 
L 316.583951 277.071957 
L 316.718439 277.592576 
L 316.852928 271.786641 
L 316.987416 273.341972 
L 317.121904 268.671538 
L 317.256392 272.938458 
L 317.39088 272.365667 
L 317.659857 272.455729 
L 317.794345 268.531413 
L 317.928833 272.479146 
L 318.063322 272.473183 
L 318.466786 275.702366 
L 318.870251 272.572967 
L 319.004739 274.145578 
L 319.139227 263.759441 
L 319.273715 267.808591 
L 319.408204 264.982823 
L 319.542692 266.628428 
L 319.67718 265.283067 
L 319.811668 277.412035 
L 319.946157 270.999196 
L 320.215133 212.422617 
L 320.484109 220.819228 
L 320.753086 129.83967 
L 320.887574 137.152709 
L 321.022062 124.914642 
L 321.425527 182.796458 
L 321.694503 252.176596 
L 321.828991 253.706785 
L 321.96348 253.403234 
L 322.232456 272.793536 
L 322.366944 274.835487 
L 322.501433 273.740176 
L 322.635921 271.251591 
L 322.770409 274.976492 
L 322.904897 274.510042 
L 323.039385 284.393499 
L 323.173874 280.865538 
L 323.577338 231.312946 
L 323.711826 244.059469 
L 323.980803 131.961944 
L 324.115291 169.414186 
L 324.249779 169.382809 
L 324.384268 153.826623 
L 324.518756 151.896696 
L 325.056709 256.191927 
L 325.325685 263.938545 
L 325.460173 269.927273 
L 325.594661 270.896009 
L 325.863638 269.396261 
L 325.998126 273.681147 
L 326.132614 273.975184 
L 326.267103 281.147105 
L 326.401591 277.653043 
L 326.670567 228.255126 
L 326.805055 223.554218 
L 326.939544 224.100561 
L 327.20852 124.7499 
L 327.343008 170.598154 
L 327.477496 170.272583 
L 327.611985 154.011075 
L 327.746473 155.759764 
L 328.284426 246.239916 
L 328.418914 261.147061 
L 328.553402 262.935362 
L 328.822379 270.329367 
L 329.091355 273.325497 
L 329.225843 275.862285 
L 329.360331 275.263309 
L 329.49482 283.957047 
L 329.629308 275.770137 
L 329.898284 207.980441 
L 330.032772 202.648972 
L 330.167261 213.494372 
L 330.436237 142.608795 
L 330.570725 172.431002 
L 330.705214 169.618984 
L 330.97419 159.599027 
L 331.108678 179.374031 
L 331.377655 259.125493 
L 331.512143 256.982431 
L 331.646631 257.131301 
L 331.915607 270.378736 
L 332.050096 272.342744 
L 332.319072 270.509199 
L 332.588049 274.809737 
L 332.722537 284.03377 
L 332.857025 275.61386 
L 333.126001 208.014492 
L 333.394978 230.2819 
L 333.663954 136.353249 
L 333.798442 171.935257 
L 333.932931 175.608502 
L 334.067419 158.021017 
L 334.201907 162.858417 
L 334.336395 186.049601 
L 334.605372 253.083065 
L 334.73986 253.218904 
L 334.874348 254.42994 
L 335.143325 271.011548 
L 335.412301 275.198885 
L 335.681277 277.817768 
L 335.815766 276.08848 
L 335.950254 276.245252 
L 336.084742 276.111691 
L 336.21923 273.780517 
L 336.353718 275.229664 
L 336.488207 273.484675 
L 336.757183 263.054478 
L 336.891671 261.188585 
L 337.160648 249.306717 
L 337.295136 256.764056 
L 337.429624 255.197379 
L 337.833089 271.436006 
L 338.236553 274.335174 
L 338.371042 273.366892 
L 338.50553 275.563831 
L 338.640018 275.682821 
L 338.774506 275.281673 
L 338.908995 275.674401 
L 339.043483 273.501789 
L 339.177971 274.799448 
L 339.312459 275.015691 
L 339.446947 271.985528 
L 339.581436 271.689131 
L 339.715924 270.409752 
L 339.9849 275.79484 
L 340.253877 269.378188 
L 340.388365 270.361044 
L 340.522853 270.203624 
L 340.791829 273.239474 
L 340.926318 277.341385 
L 341.060806 276.20131 
L 341.195294 276.625859 
L 341.329782 276.070615 
L 341.464271 276.096635 
L 341.733247 272.308936 
L 341.867735 274.747925 
L 342.002223 274.753446 
L 342.136712 275.936192 
L 342.2712 278.439084 
L 342.405688 287.469241 
L 342.540176 280.273246 
L 342.943641 226.731333 
L 343.078129 236.040727 
L 343.347106 120.263602 
L 343.481594 130.163901 
L 344.019547 218.474806 
L 344.288523 264.630191 
L 344.557499 261.705083 
L 344.691988 270.358514 
L 344.826476 271.328457 
L 345.095452 269.556217 
L 345.364429 276.595862 
L 345.498917 276.905258 
L 345.633405 284.983226 
L 345.767893 283.416962 
L 346.171358 248.450626 
L 346.305846 248.956814 
L 346.574823 138.238061 
L 346.709311 179.857841 
L 346.843799 162.927006 
L 346.978287 167.257164 
L 347.112775 188.465307 
L 347.381752 255.211299 
L 347.51624 262.324123 
L 347.650728 261.022926 
L 347.919705 269.606492 
L 348.054193 269.92866 
L 348.188681 267.40928 
L 348.323169 267.176598 
L 348.457658 268.980747 
L 348.592146 274.251456 
L 348.726634 273.853769 
L 348.861122 285.509056 
L 348.99561 280.484166 
L 349.264587 232.128605 
L 349.399075 226.911406 
L 349.533563 235.882047 
L 349.80254 134.891001 
L 349.937028 176.013324 
L 350.071516 150.640949 
L 350.340493 166.60694 
L 350.743957 256.343542 
L 350.878445 254.328533 
L 351.147422 264.635617 
L 351.28191 268.68057 
L 351.416398 268.200738 
L 351.550886 272.551561 
L 351.685375 267.985909 
L 351.954351 273.623932 
L 352.088839 285.831531 
L 352.223328 269.579903 
L 352.357816 217.294948 
L 352.492304 215.406975 
L 352.626792 217.874938 
L 352.76128 226.048522 
L 353.030257 140.968872 
L 353.164745 187.297847 
L 353.299233 159.859164 
L 353.433721 168.065367 
L 353.56821 168.7817 
L 353.837186 241.428396 
L 353.971674 246.337375 
L 354.106163 237.642319 
L 354.375139 267.348076 
L 354.778604 275.96514 
L 354.913092 275.708103 
L 355.316556 280.681963 
L 355.451045 269.796059 
L 355.720021 216.198932 
L 355.854509 221.30136 
L 355.988998 237.089521 
L 356.257974 167.347752 
L 356.392462 173.767841 
L 356.52695 153.226782 
L 356.661439 156.804343 
L 356.795927 171.214987 
L 357.199391 257.098012 
L 357.33388 254.627605 
L 357.468368 267.084072 
L 357.602856 266.365696 
L 357.737344 269.436052 
L 357.871832 278.376559 
L 358.006321 277.874487 
L 358.275297 279.777132 
L 358.409785 283.899316 
L 358.544274 281.102215 
L 358.678762 281.013725 
L 358.81325 279.623367 
L 358.947738 279.808918 
L 359.082226 278.603825 
L 359.216715 278.98604 
L 359.485691 256.564507 
L 359.620179 255.649716 
L 359.754667 255.564357 
L 359.889156 252.153755 
L 360.023644 245.276927 
L 360.158132 267.966938 
L 360.696085 276.845776 
L 360.830573 281.008542 
L 360.965061 279.122779 
L 361.09955 279.46853 
L 361.368526 281.678802 
L 361.503014 281.725891 
L 361.637502 281.331175 
L 361.771991 281.548792 
L 361.906479 279.951639 
L 362.040967 281.046295 
L 362.175455 276.288634 
L 362.444432 283.767978 
L 362.713408 276.191811 
L 362.847896 278.308989 
L 362.982385 276.276316 
L 363.116873 276.691352 
L 363.251361 281.138407 
L 363.385849 281.037482 
L 363.520337 280.785327 
L 363.654826 280.014101 
L 363.789314 280.188793 
L 363.923802 281.129797 
L 364.05829 280.374716 
L 364.192778 278.815156 
L 364.327267 274.739512 
L 364.461755 274.369904 
L 364.596243 276.638969 
L 364.730731 238.404193 
L 364.86522 258.832131 
L 364.999708 252.014274 
L 365.268684 188.447235 
L 365.403172 164.491238 
L 365.537661 189.333514 
L 365.806637 127.997211 
L 365.941125 173.340491 
L 366.210102 106.161824 
L 366.34459 104.859524 
L 366.613566 211.625619 
L 366.748055 215.776627 
L 366.882543 212.751097 
L 367.017031 225.114106 
L 367.286007 262.96284 
L 367.420496 266.424982 
L 367.554984 265.990064 
L 367.689472 263.657424 
L 367.82396 255.597898 
L 367.958448 267.309729 
L 368.092937 266.536204 
L 368.227425 254.873563 
L 368.496401 191.422197 
L 368.63089 164.610355 
L 368.765378 183.105606 
L 369.034354 130.820973 
L 369.303331 97.626597 
L 369.437819 81.246712 
L 369.572307 154.343323 
L 369.706795 150.376307 
L 369.975772 203.65821 
L 370.11026 188.918189 
L 370.513724 261.429657 
L 370.648213 260.704993 
L 370.782701 264.426052 
L 371.051677 265.221082 
L 371.186166 286.165941 
L 371.455142 269.4807 
L 371.724118 220.503088 
L 372.262071 134.876245 
L 372.531048 190.204326 
L 372.665536 201.067215 
L 372.800024 186.738204 
L 372.934512 193.560594 
L 373.069001 244.529627 
L 373.472465 264.10451 
L 373.606953 260.114104 
L 373.87593 270.000133 
L 374.010418 267.564367 
L 374.144906 268.627602 
L 374.279394 267.787217 
L 374.548371 280.7165 
L 374.682859 260.406992 
L 374.817347 216.933949 
L 374.951836 217.187236 
L 375.220812 210.855353 
L 375.3553 160.185155 
L 375.489788 171.439663 
L 375.624277 167.270536 
L 375.758765 171.444557 
L 376.027741 187.061345 
L 376.296718 236.154356 
L 376.565694 246.220394 
L 376.700182 258.880002 
L 376.83467 256.827777 
L 376.969159 268.312881 
L 377.103647 270.117266 
L 377.372623 267.100732 
L 377.507112 266.434754 
L 377.6416 273.949203 
L 377.910576 260.873366 
L 378.179553 185.853623 
L 378.448529 220.214861 
L 378.583017 213.579035 
L 378.717505 175.887433 
L 378.851994 190.045995 
L 378.986482 175.658903 
L 379.12097 184.411626 
L 379.255458 182.569418 
L 379.524435 256.986665 
L 379.793411 273.636202 
L 379.927899 271.764647 
L 380.196876 273.919795 
L 380.465852 283.105044 
L 380.60034 282.252335 
L 380.734829 282.71904 
L 380.869317 271.671489 
L 381.003805 276.332247 
L 381.138293 276.598758 
L 381.40727 269.703131 
L 381.541758 250.086911 
L 381.676246 253.88087 
L 381.945223 127.485906 
L 382.079711 149.793604 
L 382.348687 134.079282 
L 382.617664 161.110641 
L 382.752152 219.383316 
L 382.88664 223.288861 
L 383.021128 247.759119 
L 383.155616 244.106826 
L 383.424593 277.039121 
L 383.559081 277.411194 
L 383.693569 276.305551 
L 383.828058 273.885457 
L 383.962546 274.890709 
L 384.097034 269.817382 
L 384.231522 270.997233 
L 384.36601 269.869371 
L 384.634987 258.611127 
L 384.769475 250.876632 
L 384.903963 252.116942 
L 385.17294 156.044844 
L 385.307428 156.404913 
L 385.441916 163.252854 
L 385.576404 148.224535 
L 385.710893 171.03593 
L 385.845381 214.203975 
L 385.979869 211.889839 
L 386.114357 224.74638 
L 386.248845 248.999036 
L 386.383334 237.297184 
L 386.786798 273.459084 
L 386.921286 268.513145 
L 387.055775 272.709958 
L 387.190263 268.990202 
L 387.324751 280.446565 
L 387.459239 277.272545 
L 387.862704 210.481463 
L 387.997192 214.829885 
L 388.266169 263.382673 
L 388.400657 226.121881 
L 388.535145 224.617948 
L 388.669633 257.017963 
L 388.93861 214.044738 
L 389.073098 225.196553 
L 389.342074 283.686529 
L 389.476562 278.752121 
L 389.745539 280.785703 
L 390.014515 290.261612 
L 390.149004 285.919129 
L 390.283492 287.00597 
L 390.41798 286.20615 
L 390.552468 262.734039 
L 390.686956 271.248172 
L 390.821445 252.615408 
L 391.090421 196.259305 
L 391.224909 183.280683 
L 391.359397 192.194165 
L 391.493886 172.389696 
L 391.628374 135.47508 
L 391.762862 169.991804 
L 391.89735 145.472431 
L 392.166327 172.693335 
L 392.300815 186.834489 
L 392.569791 241.610966 
L 392.973256 261.135673 
L 393.242232 280.833471 
L 393.511209 271.534536 
L 393.645697 270.630607 
L 393.780185 262.173824 
L 393.914673 264.380854 
L 394.049162 258.598816 
L 394.318138 181.95701 
L 394.587115 197.362707 
L 394.721603 135.212607 
L 394.990579 148.399779 
L 395.125067 146.732929 
L 395.259556 139.387666 
L 395.66302 198.108071 
L 395.797508 242.390202 
L 395.931997 237.21869 
L 396.066485 257.162478 
L 396.200973 256.889038 
L 396.46995 267.960744 
L 396.604438 267.395506 
L 396.738926 264.683105 
L 396.873414 258.141881 
L 397.007902 288.841716 
L 397.276879 259.15043 
L 397.411367 223.064338 
L 397.680343 225.37155 
L 397.814832 231.559166 
L 398.083808 144.112232 
L 398.218296 184.588524 
L 398.352785 158.222796 
L 398.487273 166.572525 
L 398.487273 166.572525 
" clip-path="url(#p4760332a51)" style="fill: none; stroke: #ff7f0e; stroke-width: 1.5; stroke-linecap: square"/>
   </g>
   <g id="patch_3">
    <path d="M 57.6 307.584 
L 57.6 41.472 
" style="fill: none; stroke: #000000; stroke-width: 0.8; stroke-linejoin: miter; stroke-linecap: square"/>
   </g>
   <g id="patch_4">
    <path d="M 414.72 307.584 
L 414.72 41.472 
" style="fill: none; stroke: #000000; stroke-width: 0.8; stroke-linejoin: miter; stroke-linecap: square"/>
   </g>
   <g id="patch_5">
    <path d="M 57.6 307.584 
L 414.72 307.584 
" style="fill: none; stroke: #000000; stroke-width: 0.8; stroke-linejoin: miter; stroke-linecap: square"/>
   </g>
   <g id="patch_6">
    <path d="M 57.6 41.472 
L 414.72 41.472 
" style="fill: none; stroke: #000000; stroke-width: 0.8; stroke-linejoin: miter; stroke-linecap: square"/>
   </g>
  </g>
 </g>
 <defs>
  <clipPath id="p4760332a51">
   <rect x="57.6" y="41.472" width="357.12" height="266.112"/>
  </clipPath>
 </defs>
</svg>
