<?xml version="1.0" encoding="utf-8" standalone="no"?>
<!DOCTYPE svg PUBLIC "-//W3C//DTD SVG 1.1//EN"
  "http://www.w3.org/Graphics/SVG/1.1/DTD/svg11.dtd">
<svg xmlns:xlink="http://www.w3.org/1999/xlink" width="460.8pt" height="345.6pt" viewBox="0 0 460.8 345.6" xmlns="http://www.w3.org/2000/svg" version="1.1">
 <metadata>
  <rdf:RDF xmlns:dc="http://purl.org/dc/elements/1.1/" xmlns:cc="http://creativecommons.org/ns#" xmlns:rdf="http://www.w3.org/1999/02/22-rdf-syntax-ns#">
   <cc:Work>
    <dc:type rdf:resource="http://purl.org/dc/dcmitype/StillImage"/>
    <dc:date>2023-04-04T04:30:43.821734</dc:date>
    <dc:format>image/svg+xml</dc:format>
    <dc:creator>
     <cc:Agent>
      <dc:title>Matplotlib v3.5.2, https://matplotlib.org/</dc:title>
     </cc:Agent>
    </dc:creator>
   </cc:Work>
  </rdf:RDF>
 </metadata>
 <defs>
  <style type="text/css">*{stroke-linejoin: round; stroke-linecap: butt}</style>
 </defs>
 <g id="figure_1">
  <g id="patch_1">
   <path d="M 0 345.6 
L 460.8 345.6 
L 460.8 0 
L 0 0 
z
" style="fill: #ffffff"/>
  </g>
  <g id="axes_1">
   <g id="patch_2">
    <path d="M 57.6 307.584 
L 414.72 307.584 
L 414.72 41.472 
L 57.6 41.472 
z
" style="fill: #ffffff"/>
   </g>
   <g id="matplotlib.axis_1">
    <g id="xtick_1">
     <g id="line2d_1">
      <defs>
       <path id="m7bd39a9fa6" d="M 0 0 
L 0 3.5 
" style="stroke: #000000; stroke-width: 0.8"/>
      </defs>
      <g>
       <use xlink:href="#m7bd39a9fa6" x="73.832727" y="307.584" style="stroke: #000000; stroke-width: 0.8"/>
      </g>
     </g>
     <g id="text_1">
      <!-- 0 -->
      <g transform="translate(70.651477 322.182437)scale(0.1 -0.1)">
       <defs>
        <path id="DejaVuSans-30" d="M 2034 4250 
Q 1547 4250 1301 3770 
Q 1056 3291 1056 2328 
Q 1056 1369 1301 889 
Q 1547 409 2034 409 
Q 2525 409 2770 889 
Q 3016 1369 3016 2328 
Q 3016 3291 2770 3770 
Q 2525 4250 2034 4250 
z
M 2034 4750 
Q 2819 4750 3233 4129 
Q 3647 3509 3647 2328 
Q 3647 1150 3233 529 
Q 2819 -91 2034 -91 
Q 1250 -91 836 529 
Q 422 1150 422 2328 
Q 422 3509 836 4129 
Q 1250 4750 2034 4750 
z
" transform="scale(0.015625)"/>
       </defs>
       <use xlink:href="#DejaVuSans-30"/>
      </g>
     </g>
    </g>
    <g id="xtick_2">
     <g id="line2d_2">
      <g>
       <use xlink:href="#m7bd39a9fa6" x="141.076834" y="307.584" style="stroke: #000000; stroke-width: 0.8"/>
      </g>
     </g>
     <g id="text_2">
      <!-- 500 -->
      <g transform="translate(131.533084 322.182437)scale(0.1 -0.1)">
       <defs>
        <path id="DejaVuSans-35" d="M 691 4666 
L 3169 4666 
L 3169 4134 
L 1269 4134 
L 1269 2991 
Q 1406 3038 1543 3061 
Q 1681 3084 1819 3084 
Q 2600 3084 3056 2656 
Q 3513 2228 3513 1497 
Q 3513 744 3044 326 
Q 2575 -91 1722 -91 
Q 1428 -91 1123 -41 
Q 819 9 494 109 
L 494 744 
Q 775 591 1075 516 
Q 1375 441 1709 441 
Q 2250 441 2565 725 
Q 2881 1009 2881 1497 
Q 2881 1984 2565 2268 
Q 2250 2553 1709 2553 
Q 1456 2553 1204 2497 
Q 953 2441 691 2322 
L 691 4666 
z
" transform="scale(0.015625)"/>
       </defs>
       <use xlink:href="#DejaVuSans-35"/>
       <use xlink:href="#DejaVuSans-30" x="63.623047"/>
       <use xlink:href="#DejaVuSans-30" x="127.246094"/>
      </g>
     </g>
    </g>
    <g id="xtick_3">
     <g id="line2d_3">
      <g>
       <use xlink:href="#m7bd39a9fa6" x="208.32094" y="307.584" style="stroke: #000000; stroke-width: 0.8"/>
      </g>
     </g>
     <g id="text_3">
      <!-- 1000 -->
      <g transform="translate(195.59594 322.182437)scale(0.1 -0.1)">
       <defs>
        <path id="DejaVuSans-31" d="M 794 531 
L 1825 531 
L 1825 4091 
L 703 3866 
L 703 4441 
L 1819 4666 
L 2450 4666 
L 2450 531 
L 3481 531 
L 3481 0 
L 794 0 
L 794 531 
z
" transform="scale(0.015625)"/>
       </defs>
       <use xlink:href="#DejaVuSans-31"/>
       <use xlink:href="#DejaVuSans-30" x="63.623047"/>
       <use xlink:href="#DejaVuSans-30" x="127.246094"/>
       <use xlink:href="#DejaVuSans-30" x="190.869141"/>
      </g>
     </g>
    </g>
    <g id="xtick_4">
     <g id="line2d_4">
      <g>
       <use xlink:href="#m7bd39a9fa6" x="275.565046" y="307.584" style="stroke: #000000; stroke-width: 0.8"/>
      </g>
     </g>
     <g id="text_4">
      <!-- 1500 -->
      <g transform="translate(262.840046 322.182437)scale(0.1 -0.1)">
       <use xlink:href="#DejaVuSans-31"/>
       <use xlink:href="#DejaVuSans-35" x="63.623047"/>
       <use xlink:href="#DejaVuSans-30" x="127.246094"/>
       <use xlink:href="#DejaVuSans-30" x="190.869141"/>
      </g>
     </g>
    </g>
    <g id="xtick_5">
     <g id="line2d_5">
      <g>
       <use xlink:href="#m7bd39a9fa6" x="342.809153" y="307.584" style="stroke: #000000; stroke-width: 0.8"/>
      </g>
     </g>
     <g id="text_5">
      <!-- 2000 -->
      <g transform="translate(330.084153 322.182437)scale(0.1 -0.1)">
       <defs>
        <path id="DejaVuSans-32" d="M 1228 531 
L 3431 531 
L 3431 0 
L 469 0 
L 469 531 
Q 828 903 1448 1529 
Q 2069 2156 2228 2338 
Q 2531 2678 2651 2914 
Q 2772 3150 2772 3378 
Q 2772 3750 2511 3984 
Q 2250 4219 1831 4219 
Q 1534 4219 1204 4116 
Q 875 4013 500 3803 
L 500 4441 
Q 881 4594 1212 4672 
Q 1544 4750 1819 4750 
Q 2544 4750 2975 4387 
Q 3406 4025 3406 3419 
Q 3406 3131 3298 2873 
Q 3191 2616 2906 2266 
Q 2828 2175 2409 1742 
Q 1991 1309 1228 531 
z
" transform="scale(0.015625)"/>
       </defs>
       <use xlink:href="#DejaVuSans-32"/>
       <use xlink:href="#DejaVuSans-30" x="63.623047"/>
       <use xlink:href="#DejaVuSans-30" x="127.246094"/>
       <use xlink:href="#DejaVuSans-30" x="190.869141"/>
      </g>
     </g>
    </g>
    <g id="xtick_6">
     <g id="line2d_6">
      <g>
       <use xlink:href="#m7bd39a9fa6" x="410.053259" y="307.584" style="stroke: #000000; stroke-width: 0.8"/>
      </g>
     </g>
     <g id="text_6">
      <!-- 2500 -->
      <g transform="translate(397.328259 322.182437)scale(0.1 -0.1)">
       <use xlink:href="#DejaVuSans-32"/>
       <use xlink:href="#DejaVuSans-35" x="63.623047"/>
       <use xlink:href="#DejaVuSans-30" x="127.246094"/>
       <use xlink:href="#DejaVuSans-30" x="190.869141"/>
      </g>
     </g>
    </g>
   </g>
   <g id="matplotlib.axis_2">
    <g id="ytick_1">
     <g id="line2d_7">
      <defs>
       <path id="m52e62b0b6c" d="M 0 0 
L -3.5 0 
" style="stroke: #000000; stroke-width: 0.8"/>
      </defs>
      <g>
       <use xlink:href="#m52e62b0b6c" x="57.6" y="280.273901" style="stroke: #000000; stroke-width: 0.8"/>
      </g>
     </g>
     <g id="text_7">
      <!-- 100 -->
      <g transform="translate(31.5125 284.07312)scale(0.1 -0.1)">
       <use xlink:href="#DejaVuSans-31"/>
       <use xlink:href="#DejaVuSans-30" x="63.623047"/>
       <use xlink:href="#DejaVuSans-30" x="127.246094"/>
      </g>
     </g>
    </g>
    <g id="ytick_2">
     <g id="line2d_8">
      <g>
       <use xlink:href="#m52e62b0b6c" x="57.6" y="232.504004" style="stroke: #000000; stroke-width: 0.8"/>
      </g>
     </g>
     <g id="text_8">
      <!-- 200 -->
      <g transform="translate(31.5125 236.303223)scale(0.1 -0.1)">
       <use xlink:href="#DejaVuSans-32"/>
       <use xlink:href="#DejaVuSans-30" x="63.623047"/>
       <use xlink:href="#DejaVuSans-30" x="127.246094"/>
      </g>
     </g>
    </g>
    <g id="ytick_3">
     <g id="line2d_9">
      <g>
       <use xlink:href="#m52e62b0b6c" x="57.6" y="184.734106" style="stroke: #000000; stroke-width: 0.8"/>
      </g>
     </g>
     <g id="text_9">
      <!-- 300 -->
      <g transform="translate(31.5125 188.533325)scale(0.1 -0.1)">
       <defs>
        <path id="DejaVuSans-33" d="M 2597 2516 
Q 3050 2419 3304 2112 
Q 3559 1806 3559 1356 
Q 3559 666 3084 287 
Q 2609 -91 1734 -91 
Q 1441 -91 1130 -33 
Q 819 25 488 141 
L 488 750 
Q 750 597 1062 519 
Q 1375 441 1716 441 
Q 2309 441 2620 675 
Q 2931 909 2931 1356 
Q 2931 1769 2642 2001 
Q 2353 2234 1838 2234 
L 1294 2234 
L 1294 2753 
L 1863 2753 
Q 2328 2753 2575 2939 
Q 2822 3125 2822 3475 
Q 2822 3834 2567 4026 
Q 2313 4219 1838 4219 
Q 1578 4219 1281 4162 
Q 984 4106 628 3988 
L 628 4550 
Q 988 4650 1302 4700 
Q 1616 4750 1894 4750 
Q 2613 4750 3031 4423 
Q 3450 4097 3450 3541 
Q 3450 3153 3228 2886 
Q 3006 2619 2597 2516 
z
" transform="scale(0.015625)"/>
       </defs>
       <use xlink:href="#DejaVuSans-33"/>
       <use xlink:href="#DejaVuSans-30" x="63.623047"/>
       <use xlink:href="#DejaVuSans-30" x="127.246094"/>
      </g>
     </g>
    </g>
    <g id="ytick_4">
     <g id="line2d_10">
      <g>
       <use xlink:href="#m52e62b0b6c" x="57.6" y="136.964209" style="stroke: #000000; stroke-width: 0.8"/>
      </g>
     </g>
     <g id="text_10">
      <!-- 400 -->
      <g transform="translate(31.5125 140.763428)scale(0.1 -0.1)">
       <defs>
        <path id="DejaVuSans-34" d="M 2419 4116 
L 825 1625 
L 2419 1625 
L 2419 4116 
z
M 2253 4666 
L 3047 4666 
L 3047 1625 
L 3713 1625 
L 3713 1100 
L 3047 1100 
L 3047 0 
L 2419 0 
L 2419 1100 
L 313 1100 
L 313 1709 
L 2253 4666 
z
" transform="scale(0.015625)"/>
       </defs>
       <use xlink:href="#DejaVuSans-34"/>
       <use xlink:href="#DejaVuSans-30" x="63.623047"/>
       <use xlink:href="#DejaVuSans-30" x="127.246094"/>
      </g>
     </g>
    </g>
    <g id="ytick_5">
     <g id="line2d_11">
      <g>
       <use xlink:href="#m52e62b0b6c" x="57.6" y="89.194312" style="stroke: #000000; stroke-width: 0.8"/>
      </g>
     </g>
     <g id="text_11">
      <!-- 500 -->
      <g transform="translate(31.5125 92.993531)scale(0.1 -0.1)">
       <use xlink:href="#DejaVuSans-35"/>
       <use xlink:href="#DejaVuSans-30" x="63.623047"/>
       <use xlink:href="#DejaVuSans-30" x="127.246094"/>
      </g>
     </g>
    </g>
   </g>
   <g id="line2d_12">
    <path d="M 73.832727 283.342639 
L 74.101704 282.793763 
L 74.236192 281.684069 
L 74.37068 282.64711 
L 74.505168 282.15508 
L 74.639657 282.756503 
L 74.774145 276.290369 
L 74.908633 249.19815 
L 75.177609 247.706296 
L 75.312098 248.261382 
L 75.446586 248.313929 
L 75.581074 249.179997 
L 75.715562 248.424278 
L 75.85005 248.402303 
L 76.253515 243.420859 
L 76.522492 277.451656 
L 76.65698 277.764549 
L 76.925956 276.059163 
L 77.060444 267.210267 
L 77.194933 269.452109 
L 77.463909 269.515643 
L 77.598397 271.098737 
L 77.732885 265.776693 
L 77.867374 252.380103 
L 78.405327 104.068425 
L 78.674303 103.147421 
L 78.808791 110.279944 
L 78.943279 105.480981 
L 79.481232 158.137738 
L 79.750209 228.458371 
L 80.019185 263.152692 
L 80.153673 265.275109 
L 80.288161 261.443485 
L 80.42265 271.83105 
L 80.557138 271.396821 
L 80.826114 273.902352 
L 80.960603 271.364338 
L 81.095091 261.058938 
L 81.364067 168.317026 
L 81.498555 180.607743 
L 81.767532 161.218897 
L 82.036508 169.2151 
L 82.170996 166.116744 
L 82.305485 160.14694 
L 83.112414 260.581239 
L 83.650367 286.743378 
L 83.784855 286.763919 
L 83.919343 288.291123 
L 84.053831 288.483158 
L 84.18832 286.38797 
L 84.322808 279.169461 
L 84.726273 189.112218 
L 84.860761 180.454401 
L 84.995249 184.547326 
L 85.129737 169.67799 
L 85.264225 178.21256 
L 85.398714 178.959204 
L 85.66769 187.248236 
L 85.802178 196.010668 
L 86.340131 262.705088 
L 86.474619 264.716201 
L 86.609107 269.62217 
L 86.878084 287.12506 
L 87.012572 289.374067 
L 87.14706 289.047798 
L 87.281549 290.537264 
L 87.416037 290.440291 
L 87.550525 289.629636 
L 87.819501 262.150002 
L 87.95399 262.2957 
L 88.088478 256.614426 
L 88.222966 258.072841 
L 88.357454 257.315689 
L 88.491942 253.960331 
L 88.626431 256.792608 
L 88.760919 249.804828 
L 88.895407 252.67962 
L 89.029895 252.678187 
L 89.164384 255.236743 
L 89.43336 276.51871 
L 89.567848 278.180624 
L 89.702336 277.682862 
L 89.836825 278.741921 
L 89.971313 263.606029 
L 90.105801 264.318756 
L 90.240289 265.861723 
L 90.374777 265.631472 
L 90.509266 266.866324 
L 90.643754 267.037818 
L 90.778242 269.135394 
L 90.91273 265.915225 
L 91.047218 255.985297 
L 91.181707 254.815412 
L 91.316195 247.89021 
L 91.450683 252.320868 
L 91.585171 250.35657 
L 91.71966 251.853678 
L 91.854148 252.07963 
L 92.123124 255.059994 
L 92.257612 254.487711 
L 92.526589 260.078222 
L 92.795565 266.66999 
L 92.930053 267.624432 
L 93.064542 266.484643 
L 93.19903 276.495302 
L 93.468006 276.619982 
L 93.602495 277.679996 
L 93.736983 276.446577 
L 93.871471 273.924804 
L 94.005959 268.708331 
L 94.6784 161.505994 
L 94.812888 157.110208 
L 95.081865 168.966219 
L 95.216353 163.751179 
L 95.350841 152.487993 
L 96.023282 265.042947 
L 96.157771 265.772393 
L 96.426747 269.699079 
L 96.561235 269.365645 
L 96.695723 269.443032 
L 96.830212 271.325644 
L 96.9647 270.687916 
L 97.099188 269.260551 
L 97.233676 260.793337 
L 97.368164 243.231212 
L 97.502653 202.210723 
L 97.637141 195.114983 
L 97.771629 179.642791 
L 97.906117 188.03835 
L 98.040606 181.325247 
L 98.175094 182.035107 
L 98.309582 176.715929 
L 98.44407 178.358258 
L 98.713047 189.727494 
L 98.982023 231.674241 
L 99.250999 266.524769 
L 99.385488 271.211474 
L 99.519976 271.965761 
L 99.654464 281.771488 
L 99.788952 281.783908 
L 99.923441 280.782651 
L 100.192417 282.020846 
L 100.326905 282.101577 
L 100.461393 281.446652 
L 100.595882 281.852696 
L 100.73037 282.681504 
L 100.864858 281.142836 
L 100.999346 282.298867 
L 101.133834 281.390761 
L 101.268323 279.175194 
L 101.402811 272.149197 
L 101.537299 276.421737 
L 101.806276 266.03465 
L 101.940764 268.19576 
L 102.075252 268.047196 
L 102.20974 268.695433 
L 102.344228 271.074374 
L 102.478717 276.893226 
L 102.613205 275.040709 
L 102.747693 280.711473 
L 102.882181 267.252305 
L 103.016669 267.280967 
L 103.151158 272.187891 
L 103.285646 271.968627 
L 103.554622 267.787328 
L 103.68911 263.598385 
L 103.823599 246.170494 
L 104.092575 183.894789 
L 104.227063 162.408845 
L 104.361552 169.57433 
L 104.630528 144.696722 
L 105.033993 160.016051 
L 105.168481 170.797239 
L 105.706434 253.871479 
L 105.840922 253.749188 
L 105.97541 262.449042 
L 106.109898 278.88332 
L 106.378875 282.072916 
L 106.513363 282.059062 
L 106.647851 284.216351 
L 106.782339 283.947884 
L 106.916828 285.05949 
L 107.320292 247.483211 
L 107.45478 254.547901 
L 107.589269 252.013708 
L 107.723757 252.106381 
L 108.26171 247.042772 
L 108.396198 243.635345 
L 108.530686 245.895339 
L 108.934151 277.50898 
L 109.068639 279.024241 
L 109.203127 277.957061 
L 109.337615 273.460958 
L 109.606592 275.009659 
L 109.875568 276.062029 
L 110.144545 277.111056 
L 110.413521 275.873338 
L 110.548009 275.738627 
L 110.951474 271.689173 
L 111.085962 272.862402 
L 111.22045 272.515114 
L 111.623915 266.720626 
L 111.758403 267.22842 
L 112.02738 271.00893 
L 112.430844 272.605877 
L 112.565333 262.368311 
L 112.834309 266.566329 
L 112.968797 267.08941 
L 113.103285 268.597505 
L 113.237774 268.775687 
L 113.50675 271.390611 
L 113.641238 272.219897 
L 114.313679 260.99827 
L 114.448168 260.637607 
L 114.582656 259.157218 
L 114.98612 248.339725 
L 115.524073 259.387947 
L 115.658561 259.937301 
L 115.927538 262.160034 
L 116.062026 260.87789 
L 116.196514 266.966641 
L 116.331002 266.550087 
L 116.465491 267.160109 
L 116.599979 257.419349 
L 117.137932 79.080947 
L 117.406908 64.407467 
L 117.810373 80.914833 
L 118.213837 147.985202 
L 118.482814 210.203583 
L 118.75179 244.569247 
L 118.886279 246.100272 
L 119.289743 254.0788 
L 119.424231 255.494222 
L 119.55872 258.260099 
L 119.693208 258.576336 
L 119.827696 248.978886 
L 120.365649 91.913852 
L 120.634625 73.382953 
L 120.769114 77.067446 
L 120.903602 70.660069 
L 121.03809 71.985684 
L 121.441555 135.29704 
L 121.710531 202.001969 
L 121.845019 230.128885 
L 122.248484 241.072968 
L 122.51746 256.559491 
L 122.651948 256.718565 
L 122.786437 258.454045 
L 122.920925 257.11601 
L 123.055413 248.970765 
L 123.727854 60.45833 
L 123.862342 53.568 
L 124.534783 107.597665 
L 125.072736 248.273325 
L 125.207225 253.434384 
L 125.341713 253.896797 
L 125.476201 253.85046 
L 125.745177 267.424277 
L 125.879666 268.858329 
L 126.014154 269.087624 
L 126.28313 255.661895 
L 126.821083 93.017337 
L 126.955571 74.700925 
L 127.09006 81.286483 
L 127.359036 105.777632 
L 127.493524 108.215807 
L 127.762501 126.677917 
L 127.896989 149.437407 
L 128.300453 246.658702 
L 128.434942 252.449847 
L 128.56943 250.625992 
L 128.703918 258.112968 
L 128.838406 258.835727 
L 129.241871 265.516347 
L 129.510847 244.844401 
L 130.0488 83.456192 
L 130.183288 74.364625 
L 130.317777 86.260762 
L 130.452265 115.030661 
L 130.586753 114.113956 
L 130.721241 110.473413 
L 130.855729 116.851649 
L 131.124706 170.025277 
L 131.393682 235.547902 
L 131.662659 258.605953 
L 131.931635 258.410097 
L 132.066123 258.228094 
L 132.3351 269.47886 
L 132.469588 269.330773 
L 132.604076 269.429657 
L 132.738564 269.388097 
L 133.007541 257.519188 
L 133.276517 247.079077 
L 133.679982 241.511496 
L 133.81447 240.331579 
L 133.948958 235.242174 
L 134.486911 245.100448 
L 134.755888 252.173737 
L 134.890376 252.059089 
L 135.697305 266.274455 
L 135.831793 271.015617 
L 135.966282 271.623728 
L 136.10077 269.645099 
L 136.235258 271.145552 
L 136.369746 270.87183 
L 136.504234 266.58066 
L 136.638723 266.422064 
L 136.907699 264.491205 
L 137.311164 253.629763 
L 137.445652 254.138513 
L 137.58014 251.461488 
L 137.983605 258.261055 
L 138.118093 257.36107 
L 138.252581 259.19209 
L 138.387069 263.674817 
L 138.521558 262.444265 
L 138.656046 262.644898 
L 138.925022 267.330648 
L 139.193999 251.119933 
L 139.731951 81.606064 
L 139.86644 72.707009 
L 140.269904 98.664694 
L 140.538881 123.043106 
L 140.673369 130.119738 
L 140.807857 144.451185 
L 141.076834 224.400796 
L 141.480298 257.523965 
L 142.018251 265.945798 
L 142.152739 265.482908 
L 142.421716 241.793816 
L 142.959669 91.584717 
L 143.094157 84.18325 
L 143.228645 83.696474 
L 143.363133 93.902035 
L 143.497621 84.64614 
L 143.63211 89.762774 
L 144.573527 258.769327 
L 144.708015 262.25223 
L 144.842504 262.427545 
L 145.11148 264.665565 
L 145.245968 266.804701 
L 145.380456 262.734706 
L 145.783921 201.68621 
L 146.052897 110.171029 
L 146.187386 91.086955 
L 146.456362 106.370934 
L 146.59085 117.671381 
L 146.725339 111.99154 
L 146.859827 119.391575 
L 146.994315 114.323666 
L 147.128803 127.159438 
L 147.532268 234.23423 
L 147.801244 260.204334 
L 147.935732 260.406401 
L 148.204709 265.669688 
L 148.339197 265.648192 
L 148.473685 266.151209 
L 148.742662 265.099316 
L 148.87715 247.436396 
L 149.280615 119.255908 
L 149.415103 115.221263 
L 149.549591 106.148804 
L 149.684079 107.403241 
L 150.087544 140.081195 
L 150.222032 132.396452 
L 150.35652 137.911008 
L 150.894473 252.632328 
L 151.028961 261.79555 
L 151.16345 260.838718 
L 151.835891 269.006416 
L 151.970379 267.735259 
L 152.104867 246.805356 
L 152.508332 113.25171 
L 152.64282 116.357708 
L 152.911796 104.515073 
L 153.046285 118.651619 
L 153.180773 117.152122 
L 153.449749 151.594218 
L 153.718726 192.504358 
L 153.987702 249.078247 
L 154.12219 266.113948 
L 154.256678 267.491632 
L 154.525655 271.350484 
L 154.794631 273.053004 
L 155.063608 275.995152 
L 155.198096 277.63557 
L 155.332584 276.992587 
L 155.467072 272.615431 
L 155.601561 262.148569 
L 155.736049 261.288233 
L 155.870537 258.425383 
L 156.005025 260.562608 
L 156.274002 258.667099 
L 156.40849 259.203077 
L 156.542978 260.455604 
L 156.677466 259.259923 
L 157.215419 267.262337 
L 157.349907 269.266761 
L 157.484396 268.275536 
L 157.618884 269.045109 
L 157.88786 272.218463 
L 158.022348 272.699029 
L 158.291325 275.695634 
L 158.560301 279.973429 
L 158.694789 278.408487 
L 158.829278 279.372006 
L 158.963766 278.975993 
L 159.232742 276.264096 
L 159.367231 276.545938 
L 159.501719 274.563965 
L 160.039672 260.492387 
L 160.308648 260.7513 
L 160.443136 266.465535 
L 160.577624 266.182259 
L 160.712113 264.22847 
L 160.846601 264.929732 
L 160.981089 266.420631 
L 161.250066 270.17439 
L 161.519042 271.12501 
L 161.788018 254.374974 
L 162.460459 83.881821 
L 162.594948 83.545521 
L 162.729436 82.087584 
L 162.998412 101.662255 
L 163.132901 110.600003 
L 163.401877 151.832112 
L 163.670853 222.503376 
L 164.074318 256.564746 
L 164.208806 257.696892 
L 164.477783 270.341584 
L 164.612271 272.700939 
L 164.746759 268.00277 
L 165.015735 250.508478 
L 165.4192 120.867187 
L 165.553688 123.463958 
L 165.822665 109.583459 
L 165.957153 114.834326 
L 166.091641 111.752213 
L 166.360618 100.308456 
L 166.495106 106.496569 
L 166.89857 221.604824 
L 167.033059 228.570153 
L 167.302035 246.942933 
L 167.974476 265.390234 
L 168.108964 259.721858 
L 168.243453 245.72289 
L 168.377941 207.68181 
L 168.646917 106.322686 
L 168.781405 107.604353 
L 168.915894 103.082932 
L 169.050382 104.381795 
L 169.18487 108.17377 
L 169.319358 92.860651 
L 169.453847 95.336565 
L 169.857311 148.661624 
L 170.126288 226.784992 
L 170.395264 257.571257 
L 170.529752 258.450224 
L 170.66424 261.883924 
L 170.798729 262.073093 
L 171.067705 264.398054 
L 171.202193 267.229853 
L 171.47117 245.463022 
L 172.009123 110.381217 
L 172.143611 108.806243 
L 172.412587 97.060103 
L 172.95054 129.530258 
L 173.622981 259.5389 
L 173.757469 263.524342 
L 173.891958 276.891792 
L 174.026446 275.963623 
L 174.160934 275.919675 
L 174.42991 277.449267 
L 174.698887 262.672127 
L 174.833375 245.564294 
L 175.102351 177.106687 
L 175.371328 143.763776 
L 175.505816 140.866532 
L 175.640304 151.023845 
L 175.774792 150.713819 
L 175.909281 152.121598 
L 176.043769 156.924383 
L 176.178257 156.616745 
L 176.312745 171.078604 
L 176.581722 238.685906 
L 176.850698 265.791024 
L 176.985186 263.298868 
L 177.254163 268.029999 
L 177.388651 267.986528 
L 177.792116 274.540558 
L 177.926604 275.430511 
L 178.19558 264.721933 
L 178.330069 264.281973 
L 178.599045 256.719998 
L 178.733533 256.15488 
L 178.868021 258.461688 
L 179.136998 254.953467 
L 179.271486 255.549158 
L 179.540462 253.064645 
L 179.809439 260.567385 
L 179.943927 267.83462 
L 180.212904 265.933856 
L 180.48188 275.797384 
L 180.616368 275.811237 
L 180.750856 276.183365 
L 180.885345 277.014561 
L 181.019833 277.101025 
L 181.692274 264.794544 
L 181.826762 266.090063 
L 181.96125 260.107839 
L 182.095738 261.889656 
L 182.364715 267.326826 
L 182.499203 268.604671 
L 182.633691 271.751752 
L 182.902668 270.933931 
L 183.171644 277.063764 
L 183.306132 278.479664 
L 183.440621 277.369969 
L 183.575109 275.068416 
L 183.844085 286.799747 
L 183.978573 287.750846 
L 184.113062 285.472221 
L 184.382038 274.0877 
L 184.919991 182.369974 
L 185.054479 186.385034 
L 185.188967 179.313179 
L 185.457944 183.172986 
L 185.592432 184.672006 
L 185.995897 222.422645 
L 186.264873 253.016398 
L 186.53385 268.771388 
L 186.802826 279.024241 
L 187.071802 289.520243 
L 187.206291 288.369943 
L 187.340779 289.504001 
L 187.475267 286.326825 
L 187.609755 278.329189 
L 188.01322 202.427121 
L 188.147708 186.029148 
L 188.282196 186.247935 
L 188.416684 185.28967 
L 188.551173 188.601557 
L 188.685661 195.002724 
L 188.820149 190.591174 
L 188.954637 195.026131 
L 189.089126 203.398283 
L 189.627078 265.396444 
L 189.761567 267.985095 
L 189.896055 273.220676 
L 190.030543 270.784889 
L 190.299519 272.616387 
L 190.434008 271.445069 
L 190.971961 274.869693 
L 191.106449 271.417362 
L 191.240937 270.93202 
L 191.375425 271.370548 
L 191.509913 266.941801 
L 191.644402 268.490978 
L 191.913378 267.225076 
L 192.182354 261.588706 
L 192.316843 261.937426 
L 192.451331 261.439186 
L 192.585819 262.760024 
L 192.720307 268.53015 
L 192.989284 269.787931 
L 193.392748 267.100397 
L 193.661725 269.982832 
L 193.796213 270.517377 
L 194.065189 262.629612 
L 194.603142 158.871006 
L 194.73763 153.958828 
L 194.872119 144.00597 
L 195.006607 145.581899 
L 195.141095 150.326405 
L 195.275583 142.926848 
L 195.54456 156.322005 
L 195.948024 250.360391 
L 196.217001 260.698275 
L 196.351489 262.625313 
L 196.485977 272.099994 
L 196.620465 271.447457 
L 196.889442 272.004454 
L 197.02393 273.133257 
L 197.158418 271.403031 
L 197.292907 265.080208 
L 197.830859 196.349835 
L 197.965348 198.661898 
L 198.099836 195.343323 
L 198.234324 199.748185 
L 198.5033 186.419906 
L 198.772277 200.223018 
L 199.31023 272.776416 
L 199.713694 281.890912 
L 199.848183 280.721983 
L 200.117159 281.449996 
L 200.251647 279.666268 
L 200.386135 273.886111 
L 200.520624 273.482933 
L 200.655112 260.522004 
L 200.7896 213.288563 
L 200.924088 211.318054 
L 201.058576 199.631627 
L 201.193065 199.273352 
L 201.327553 196.587729 
L 201.462041 198.760781 
L 201.731018 186.958273 
L 201.865506 188.319715 
L 202.134482 211.01997 
L 202.403459 264.50458 
L 202.806923 274.30553 
L 203.0759 265.832106 
L 203.210388 270.160059 
L 203.344876 270.286171 
L 203.748341 260.907507 
L 203.882829 243.516398 
L 204.151805 181.541644 
L 204.420782 165.065807 
L 204.55527 159.435647 
L 204.689758 162.873168 
L 204.824246 156.372163 
L 204.958735 172.399441 
L 205.093223 172.645934 
L 205.765664 260.326625 
L 205.900152 260.837763 
L 206.03464 264.638814 
L 206.169129 279.49143 
L 206.303617 279.972473 
L 206.572593 283.912057 
L 206.84157 284.723667 
L 207.110546 275.333061 
L 207.379522 266.147865 
L 207.514011 265.269854 
L 207.917475 273.389781 
L 208.051964 273.143289 
L 208.32094 266.780816 
L 208.589916 268.383018 
L 208.858893 276.436545 
L 208.993381 280.090943 
L 209.127869 280.674691 
L 209.262357 280.130592 
L 209.396846 274.27448 
L 209.531334 275.372232 
L 209.80031 274.957112 
L 209.934799 275.948337 
L 210.203775 263.764147 
L 211.010704 108.599877 
L 211.279681 134.228427 
L 211.683145 167.337743 
L 212.221098 254.999804 
L 212.355586 257.464253 
L 212.759051 272.70906 
L 212.893539 272.501739 
L 213.028027 272.602056 
L 213.162516 275.251852 
L 213.431492 257.543073 
L 213.56598 219.451835 
L 213.834957 135.507705 
L 213.969445 140.09457 
L 214.103933 139.003028 
L 214.238421 141.96524 
L 214.910862 180.298672 
L 215.448815 260.62041 
L 215.583303 265.588479 
L 215.717792 266.206622 
L 216.121256 270.471041 
L 216.255745 271.428827 
L 216.390233 273.820666 
L 216.524721 269.810383 
L 216.659209 262.288057 
L 217.062674 149.150788 
L 217.197162 151.063972 
L 217.33165 151.144703 
L 217.466138 162.616166 
L 217.600627 161.331634 
L 217.735115 149.469891 
L 217.869603 154.703561 
L 218.273068 196.919252 
L 218.542044 255.774154 
L 218.811021 272.58247 
L 218.945509 265.159028 
L 219.483462 275.885758 
L 219.61795 277.68525 
L 219.886926 263.926087 
L 220.290391 162.276045 
L 220.693856 150.608247 
L 220.828344 161.279087 
L 220.962832 157.355745 
L 221.231808 184.527263 
L 221.500785 198.40203 
L 221.769761 255.637532 
L 222.038738 271.28074 
L 222.173226 270.527409 
L 222.307714 271.753185 
L 222.576691 277.808019 
L 222.845667 280.448739 
L 222.980155 278.77536 
L 223.114643 280.64985 
L 223.38362 260.083954 
L 223.518108 263.951405 
L 223.652596 263.79472 
L 223.921573 256.827958 
L 224.190549 256.15488 
L 224.325037 258.64608 
L 224.459525 258.016951 
L 224.728502 254.154277 
L 225.131967 261.430588 
L 225.266455 259.943033 
L 225.535431 261.416734 
L 225.669919 260.102584 
L 226.073384 269.880605 
L 226.34236 272.914949 
L 226.476849 272.842816 
L 226.745825 269.692391 
L 226.880313 271.979136 
L 227.014802 272.222763 
L 227.14929 271.925156 
L 227.283778 270.503046 
L 227.418266 272.183114 
L 227.552754 272.312092 
L 227.687243 272.142509 
L 227.956219 271.031381 
L 228.090707 276.859309 
L 228.225195 276.89848 
L 228.359684 278.002443 
L 228.494172 277.228093 
L 228.62866 278.201165 
L 228.763148 278.086518 
L 228.897637 275.793563 
L 229.301101 276.69928 
L 229.435589 270.472474 
L 229.570078 256.359335 
L 230.242519 94.583234 
L 230.377007 79.714853 
L 230.511495 109.758297 
L 230.780471 117.726316 
L 231.049448 145.253719 
L 231.587401 254.196314 
L 231.856377 265.443259 
L 232.125354 270.268019 
L 232.39433 274.93466 
L 232.528818 274.119228 
L 232.797795 256.978911 
L 232.932283 220.631274 
L 233.201259 133.288316 
L 233.335748 125.0953 
L 233.470236 135.413598 
L 233.604724 135.636206 
L 233.739212 148.455258 
L 233.8737 133.687194 
L 234.008189 140.424183 
L 234.815118 264.860466 
L 234.949606 264.593432 
L 235.218583 270.509734 
L 235.622047 278.263744 
L 235.756535 277.664709 
L 236.025512 264.981802 
L 236.563465 129.124214 
L 236.832441 116.886999 
L 237.63937 200.755652 
L 237.908347 258.949419 
L 238.177323 267.055015 
L 238.849764 282.004127 
L 238.984252 281.177708 
L 239.118741 277.371402 
L 239.253229 263.442178 
L 239.791182 128.35273 
L 240.194646 146.124565 
L 240.463623 165.290803 
L 240.732599 178.775289 
L 241.270552 256.41236 
L 241.674017 262.3 
L 241.942993 275.270004 
L 242.077481 281.782952 
L 242.21197 281.155734 
L 242.480946 263.150782 
L 242.884411 151.180531 
L 243.018899 159.068774 
L 243.153387 156.817378 
L 243.287875 145.816449 
L 243.422363 153.813607 
L 243.556852 150.996139 
L 243.825828 167.670699 
L 244.229293 239.807543 
L 244.498269 262.239332 
L 244.767246 267.52316 
L 245.17071 275.396595 
L 245.305198 276.263141 
L 245.439687 275.966967 
L 245.574175 274.735937 
L 245.708663 263.257786 
L 245.843151 268.716452 
L 246.112128 265.728923 
L 246.381104 260.540157 
L 246.515592 260.506718 
L 247.188033 270.768169 
L 247.322522 271.174213 
L 247.45701 272.04267 
L 247.591498 271.68774 
L 247.725986 274.856317 
L 247.860475 273.416055 
L 248.129451 274.741669 
L 248.263939 273.856971 
L 248.398427 274.540558 
L 248.532916 274.387217 
L 248.667404 276.335273 
L 248.801892 276.236389 
L 249.205357 277.777446 
L 249.339845 277.894005 
L 249.608821 276.944339 
L 249.743309 277.076184 
L 249.877798 276.775712 
L 250.550239 273.605701 
L 250.819215 273.906174 
L 250.953703 274.685779 
L 251.088192 273.548377 
L 251.357168 274.807592 
L 251.491656 283.715722 
L 251.626144 283.225603 
L 251.760633 283.656488 
L 251.895121 283.496458 
L 252.164097 271.239658 
L 252.70205 143.701198 
L 252.836538 163.455483 
L 252.971027 160.00793 
L 253.240003 172.929209 
L 253.374491 174.283486 
L 253.508979 171.355191 
L 253.777956 204.20655 
L 254.046932 255.613169 
L 254.315909 276.960103 
L 254.719373 285.323179 
L 254.853862 285.082897 
L 255.122838 286.817899 
L 255.391814 266.033217 
L 255.660791 172.7195 
L 255.795279 176.169919 
L 256.198744 160.482763 
L 256.333232 164.159612 
L 256.46772 161.492618 
L 256.602208 162.689732 
L 257.409138 257.856921 
L 257.812602 265.335299 
L 258.081579 280.555744 
L 258.216067 281.620535 
L 258.350555 280.890611 
L 258.619532 266.70725 
L 258.888508 177.528017 
L 259.022996 178.397907 
L 259.157484 169.336913 
L 259.291973 168.760808 
L 259.426461 153.262343 
L 259.695437 166.974692 
L 259.829925 155.833319 
L 259.964414 164.914376 
L 260.771343 260.929959 
L 261.040319 263.170367 
L 261.309296 270.675973 
L 261.443784 273.892798 
L 261.71276 270.975968 
L 261.847249 258.573948 
L 262.116225 170.33817 
L 262.250713 174.50896 
L 262.654178 148.056379 
L 262.788666 155.363263 
L 262.923154 150.589139 
L 263.326619 185.768325 
L 263.461107 196.675625 
L 263.864572 245.492639 
L 264.268036 263.551093 
L 264.402525 262.792985 
L 264.671501 266.22573 
L 264.805989 266.099617 
L 264.940478 265.148041 
L 265.074966 257.573646 
L 265.209454 238.441324 
L 265.612919 124.050573 
L 265.881895 105.92333 
L 266.016383 115.432883 
L 266.150871 115.301994 
L 266.28536 114.853434 
L 266.419848 119.488548 
L 266.688824 156.793494 
L 266.957801 235.670193 
L 267.226777 252.34953 
L 267.361265 250.925987 
L 267.495754 267.307718 
L 267.630242 266.991481 
L 267.76473 268.86215 
L 267.899218 269.17361 
L 268.168195 275.699934 
L 268.302683 276.585587 
L 268.437171 274.021777 
L 268.706147 276.560269 
L 268.975124 273.062558 
L 269.2441 271.176124 
L 269.916541 256.670317 
L 270.320006 258.561527 
L 270.588982 263.452687 
L 270.723471 277.56296 
L 270.857959 278.603866 
L 270.992447 277.124432 
L 271.126935 278.008653 
L 271.261424 278.03827 
L 271.395912 277.851967 
L 271.799376 280.632175 
L 271.933865 279.245415 
L 272.068353 279.600823 
L 272.202841 278.955452 
L 272.337329 279.191913 
L 272.471817 278.347819 
L 272.606306 276.180021 
L 272.740794 277.464076 
L 272.875282 277.141151 
L 273.00977 276.463297 
L 273.144258 274.126393 
L 273.278747 274.026554 
L 273.547723 277.008351 
L 273.682211 277.222838 
L 273.8167 277.907381 
L 273.951188 277.044656 
L 274.085676 287.70833 
L 274.354652 289.343016 
L 274.489141 287.768998 
L 274.758117 273.028163 
L 275.29607 166.356549 
L 275.565046 154.098794 
L 275.699535 154.436527 
L 275.834023 172.421415 
L 275.968511 174.707205 
L 276.102999 184.881238 
L 276.77544 264.336908 
L 277.447881 281.768621 
L 277.58237 285.171271 
L 277.716858 284.779558 
L 277.851346 280.373263 
L 277.985834 270.371679 
L 278.389299 209.754068 
L 278.523787 190.232899 
L 278.658275 188.230863 
L 278.792763 178.697902 
L 278.927252 190.850564 
L 279.06174 185.019293 
L 279.196228 187.114003 
L 279.330716 194.824064 
L 280.137646 274.729249 
L 280.272134 277.120133 
L 280.406622 268.74798 
L 280.54111 268.463272 
L 280.810087 269.6365 
L 280.944575 269.012148 
L 281.213551 261.078046 
L 281.348039 232.072642 
L 281.482528 161.471122 
L 281.617016 151.242631 
L 281.751504 127.797644 
L 281.885992 128.951764 
L 282.154969 142.48832 
L 282.289457 124.335759 
L 282.423945 128.432028 
L 282.558433 137.560377 
L 282.82741 186.103192 
L 283.096386 254.79726 
L 283.365363 261.440619 
L 283.499851 263.652365 
L 283.634339 262.979765 
L 283.768827 262.990275 
L 283.903316 263.179921 
L 284.037804 264.487383 
L 284.172292 264.61684 
L 284.441268 259.412787 
L 285.113709 143.900398 
L 285.248198 142.822232 
L 285.382686 138.275971 
L 285.517174 147.536643 
L 285.651662 144.429211 
L 285.78615 147.92549 
L 286.055127 201.164085 
L 286.324103 250.841434 
L 286.59308 260.539201 
L 286.727568 260.417388 
L 286.862056 279.39398 
L 286.996544 279.453214 
L 287.131033 278.473454 
L 287.265521 279.080131 
L 287.668985 275.546592 
L 287.803474 276.425558 
L 288.07245 275.548981 
L 288.206938 273.37354 
L 288.341427 273.318126 
L 288.475915 270.96737 
L 288.610403 270.59572 
L 288.744891 269.469784 
L 288.879379 272.303016 
L 289.013868 272.643138 
L 289.148356 269.82758 
L 289.417332 276.994975 
L 289.55182 278.183968 
L 289.820797 277.821872 
L 289.955285 278.61342 
L 290.089773 277.111534 
L 290.224262 278.661189 
L 290.35875 277.752606 
L 290.493238 278.734277 
L 290.627726 277.189877 
L 291.031191 259.181103 
L 291.300167 192.882696 
L 291.434655 187.288841 
L 291.569144 187.897429 
L 291.703632 191.967424 
L 291.972608 179.200919 
L 292.376073 192.302769 
L 293.048514 268.825845 
L 293.183002 270.07455 
L 293.31749 268.920907 
L 293.451979 269.673761 
L 293.586467 268.742726 
L 293.720955 271.221983 
L 293.855443 271.485673 
L 294.258908 247.52477 
L 294.527884 189.439441 
L 294.796861 157.704465 
L 294.931349 141.809032 
L 295.065837 141.674799 
L 295.200325 149.660015 
L 295.334814 143.930493 
L 295.60379 172.034479 
L 295.738278 186.548885 
L 296.141743 256.868085 
L 296.276231 255.976698 
L 296.410719 263.187087 
L 296.545208 280.893954 
L 296.948672 283.060797 
L 297.486625 285.028917 
L 297.621113 284.683063 
L 297.755601 284.679241 
L 298.024578 281.502543 
L 298.159066 281.352068 
L 298.428042 279.208155 
L 298.697019 275.37892 
L 298.831507 274.242474 
L 298.965995 274.10012 
L 299.100484 274.456005 
L 299.36946 278.243681 
L 299.503948 277.736842 
L 299.638436 279.281243 
L 299.772925 269.615004 
L 299.907413 273.019565 
L 300.041901 272.717659 
L 300.176389 273.584682 
L 300.310877 273.300929 
L 300.579854 262.322929 
L 301.252295 128.129644 
L 301.386783 128.198433 
L 301.521271 141.399644 
L 301.65576 134.452946 
L 301.790248 143.874125 
L 302.597177 252.748886 
L 302.731665 254.502997 
L 303.000642 266.919349 
L 303.13513 267.143867 
L 303.269618 267.624432 
L 303.404106 270.085538 
L 303.538595 270.504957 
L 303.807571 254.135169 
L 304.345524 164.296711 
L 304.6145 153.766793 
L 304.748988 162.009966 
L 304.883477 152.430191 
L 305.017965 158.514643 
L 306.093871 265.369693 
L 306.228359 266.380982 
L 306.497335 276.543072 
L 306.766312 277.573469 
L 306.9008 272.861924 
L 307.035288 262.315764 
L 307.304265 169.778307 
L 307.438753 177.044586 
L 307.842217 157.770388 
L 307.976706 164.826002 
L 308.111194 156.40178 
L 308.245682 161.367461 
L 308.649147 207.399012 
L 309.052611 263.800452 
L 309.590564 276.0391 
L 309.994029 277.74353 
L 310.128517 274.188016 
L 310.263005 261.563866 
L 310.531982 169.667003 
L 310.66647 170.819213 
L 310.935446 168.528647 
L 311.069934 159.171479 
L 311.204423 165.630925 
L 311.338911 164.339227 
L 311.473399 157.561156 
L 311.607887 170.705998 
L 311.876864 208.30664 
L 312.14584 250.660864 
L 312.414817 262.473882 
L 312.818281 271.090138 
L 312.952769 270.65591 
L 313.087258 272.542821 
L 313.221746 272.443937 
L 313.356234 274.021777 
L 313.625211 263.458897 
L 313.759699 255.562533 
L 313.894187 258.917413 
L 314.028675 256.387042 
L 314.163163 258.271564 
L 314.297652 255.509509 
L 314.566628 262.076914 
L 314.701116 262.812093 
L 314.970093 267.568542 
L 315.104581 267.530803 
L 315.239069 267.234152 
L 315.508045 270.168657 
L 315.642534 270.706068 
L 315.777022 270.375501 
L 316.180487 273.367329 
L 316.314975 272.927369 
L 316.718439 275.28338 
L 316.852928 275.532739 
L 316.987416 274.678613 
L 317.121904 274.744058 
L 317.256392 273.623376 
L 317.39088 273.768119 
L 317.525369 272.228017 
L 317.659857 273.148066 
L 317.928833 270.62677 
L 318.332298 266.887343 
L 318.466786 267.542268 
L 318.601274 267.039251 
L 318.735763 268.496711 
L 318.870251 268.33286 
L 319.139227 269.450198 
L 319.273715 279.294141 
L 319.67718 280.413389 
L 319.811668 277.832382 
L 319.946157 269.871528 
L 320.349621 147.776925 
L 320.484109 131.61207 
L 320.887574 158.913999 
L 321.022062 163.584462 
L 321.291039 178.379755 
L 321.425527 180.181635 
L 321.560015 198.638013 
L 321.828991 254.213989 
L 321.96348 262.308598 
L 322.097968 263.095846 
L 322.635921 279.810533 
L 322.770409 280.15782 
L 322.904897 279.498118 
L 323.173874 269.057052 
L 323.44285 173.507225 
L 323.577338 173.869321 
L 323.711826 174.07091 
L 323.980803 153.876186 
L 324.249779 157.418324 
L 324.384268 160.187067 
L 324.787732 196.462094 
L 325.056709 251.032992 
L 325.325685 260.312772 
L 325.863638 278.150529 
L 325.998126 279.919449 
L 326.132614 279.984893 
L 326.267103 276.769024 
L 326.401591 267.76201 
L 326.670567 166.310212 
L 326.805055 172.27094 
L 326.939544 173.444169 
L 327.20852 160.206175 
L 327.343008 168.356675 
L 327.611985 164.599572 
L 327.746473 169.463503 
L 328.149937 224.20685 
L 328.418914 255.078624 
L 328.68789 267.900542 
L 328.822379 270.355915 
L 328.956867 280.411001 
L 329.225843 281.358756 
L 329.360331 280.51084 
L 329.629308 267.667425 
L 330.032772 178.575611 
L 330.301749 167.226917 
L 330.570725 158.410982 
L 330.839702 180.283385 
L 330.97419 181.496741 
L 331.108678 184.244465 
L 331.781119 260.193347 
L 332.050096 267.362653 
L 332.184584 278.14623 
L 332.319072 279.103061 
L 332.45356 278.437626 
L 332.588049 279.425986 
L 332.857025 266.807567 
L 333.26049 177.943616 
L 333.394978 179.854889 
L 333.663954 164.931573 
L 333.798442 166.124865 
L 333.932931 169.894866 
L 334.336395 187.773705 
L 334.73986 255.563966 
L 335.143325 271.305103 
L 335.277813 271.10638 
L 335.412301 271.203831 
L 335.546789 271.489495 
L 335.681277 271.384401 
L 335.950254 273.968275 
L 336.084742 271.872132 
L 336.622695 255.396294 
L 336.757183 256.191663 
L 336.891671 254.36112 
L 337.295136 260.723593 
L 337.698601 265.459501 
L 337.833089 264.979891 
L 338.102065 269.08237 
L 338.236553 268.850208 
L 338.371042 269.487936 
L 338.50553 267.151033 
L 339.043483 270.311967 
L 339.446947 273.310006 
L 339.581436 272.828007 
L 339.715924 271.658123 
L 339.850412 271.917513 
L 339.9849 271.136953 
L 340.119388 271.024216 
L 340.253877 270.550339 
L 340.388365 272.028339 
L 340.522853 270.038245 
L 340.657341 270.63728 
L 340.926318 270.318655 
L 341.060806 266.978106 
L 341.329782 271.863055 
L 341.464271 271.761306 
L 341.598759 272.290118 
L 341.733247 273.857449 
L 341.867735 281.684069 
L 342.136712 281.785818 
L 342.2712 282.427846 
L 342.540176 269.724875 
L 342.943641 154.482864 
L 343.212617 171.101533 
L 343.347106 170.366832 
L 343.75057 184.759902 
L 343.885058 186.43567 
L 344.019547 185.772624 
L 344.423011 253.697119 
L 345.22994 279.405444 
L 345.364429 280.489821 
L 345.498917 280.121993 
L 345.633405 275.902956 
L 345.767893 267.814079 
L 346.03687 183.514063 
L 346.171358 187.634217 
L 346.440334 174.061834 
L 346.574823 168.68772 
L 346.843799 175.569929 
L 347.112775 177.439643 
L 347.381752 211.938108 
L 347.650728 250.870096 
L 348.054193 268.841132 
L 348.188681 270.023914 
L 348.323169 278.99749 
L 348.457658 279.845883 
L 348.592146 281.717508 
L 348.726634 281.522129 
L 348.99561 268.60897 
L 349.264587 182.463126 
L 349.399075 183.937782 
L 349.668052 166.371358 
L 349.80254 162.257414 
L 350.206004 180.962195 
L 350.340493 182.14259 
L 351.012934 262.360667 
L 351.147422 264.682284 
L 351.550886 281.353023 
L 351.685375 280.640774 
L 351.954351 281.007647 
L 352.088839 279.6099 
L 352.223328 272.318303 
L 352.492304 178.384532 
L 352.626792 185.551449 
L 352.76128 174.17887 
L 352.895769 173.469965 
L 353.030257 165.189531 
L 353.164745 172.402307 
L 353.299233 170.324795 
L 353.56821 152.545317 
L 354.240651 268.982531 
L 354.375139 270.12041 
L 354.644115 275.984164 
L 354.913092 280.259093 
L 355.182068 281.301432 
L 355.316556 278.898606 
L 355.451045 269.768823 
L 355.854509 196.453018 
L 356.123486 158.111943 
L 356.257974 159.825927 
L 356.392462 168.437406 
L 356.52695 167.803977 
L 356.661439 178.411761 
L 356.795927 177.160189 
L 357.33388 264.671775 
L 357.602856 274.270181 
L 357.737344 276.234956 
L 357.871832 280.490777 
L 358.006321 279.912283 
L 358.140809 280.12677 
L 358.275297 280.866726 
L 358.409785 280.778829 
L 358.678762 279.519137 
L 359.082226 261.048906 
L 359.351203 255.142636 
L 359.485691 248.870448 
L 359.620179 259.6053 
L 359.754667 261.019766 
L 359.889156 261.187916 
L 360.427109 275.478759 
L 360.561597 276.158525 
L 360.965061 280.306385 
L 361.234038 280.266736 
L 361.368526 280.075178 
L 361.503014 281.38073 
L 361.771991 280.973253 
L 361.906479 282.304122 
L 362.040967 282.256352 
L 362.175455 282.631823 
L 362.309944 282.672428 
L 362.57892 279.259269 
L 362.713408 279.210066 
L 362.982385 278.075053 
L 363.116873 276.582244 
L 363.251361 276.480494 
L 363.385849 277.571558 
L 363.520337 276.717432 
L 363.654826 276.65772 
L 364.05829 279.444616 
L 364.192778 253.430085 
L 364.730731 259.689375 
L 364.86522 258.493694 
L 364.999708 246.40791 
L 365.134196 224.247932 
L 365.403172 135.884609 
L 365.672149 105.576998 
L 365.806637 99.653053 
L 366.075613 116.605634 
L 366.34459 113.459987 
L 366.479078 124.897055 
L 367.017031 251.343496 
L 367.151519 256.305355 
L 367.286007 254.569397 
L 367.554984 265.935289 
L 367.689472 266.802312 
L 367.958448 271.704459 
L 368.227425 248.131448 
L 368.496401 152.128285 
L 368.765378 100.221037 
L 369.034354 89.313737 
L 369.168842 94.038179 
L 369.303331 93.593442 
L 369.437819 96.964086 
L 369.572307 94.840714 
L 369.706795 110.958755 
L 370.244748 234.868136 
L 370.782701 279.11166 
L 370.917189 279.416909 
L 371.051677 280.309251 
L 371.186166 280.030275 
L 371.455142 265.198677 
L 371.858607 171.857731 
L 372.127583 203.868339 
L 372.262071 199.804554 
L 372.396559 201.232396 
L 372.665536 190.536238 
L 372.800024 194.333945 
L 373.203489 234.072767 
L 373.472465 256.34787 
L 373.87593 277.558183 
L 374.010418 286.584305 
L 374.144906 286.438129 
L 374.279394 287.645752 
L 374.413883 287.142257 
L 374.682859 270.567536 
L 375.220812 181.091174 
L 375.489788 177.458751 
L 375.624277 177.681837 
L 375.893253 184.222969 
L 376.027741 188.522737 
L 376.565694 256.164912 
L 376.83467 265.063011 
L 376.969159 267.901976 
L 377.103647 279.724547 
L 377.238135 278.630617 
L 377.507112 280.705263 
L 377.6416 278.737621 
L 377.776088 282.280237 
L 378.045064 280.131069 
L 378.179553 270.481072 
L 378.314041 269.854809 
L 378.448529 262.747604 
L 378.583017 263.749338 
L 378.717505 262.831201 
L 378.851994 267.346889 
L 378.986482 266.585915 
L 379.12097 267.494976 
L 379.255458 269.656564 
L 379.389947 269.540005 
L 379.927899 278.803544 
L 380.062388 278.5967 
L 380.196876 279.013731 
L 380.331364 269.094312 
L 380.465852 269.773122 
L 380.869317 272.680398 
L 381.138293 261.77262 
L 381.272782 234.647917 
L 381.541758 159.971147 
L 381.810734 139.785499 
L 381.945223 141.378625 
L 382.214199 147.872943 
L 382.348687 139.873874 
L 382.752152 189.789117 
L 383.021128 257.871252 
L 383.155616 265.808699 
L 383.290105 266.471745 
L 383.424593 267.760577 
L 383.559081 262.825946 
L 383.693569 262.113219 
L 383.962546 262.460029 
L 384.097034 263.651888 
L 384.231522 261.865771 
L 384.36601 263.259697 
L 385.038451 148.936778 
L 385.17294 151.383075 
L 385.307428 166.537119 
L 385.576404 160.885941 
L 386.248845 260.720727 
L 386.921286 279.244938 
L 387.055775 278.429028 
L 387.190263 279.708306 
L 387.324751 279.016598 
L 387.459239 279.17806 
L 387.593727 280.669436 
L 387.728216 280.094286 
L 387.862704 281.413213 
L 387.997192 280.242373 
L 388.13168 281.835021 
L 388.266169 280.849528 
L 388.400657 278.861345 
L 388.535145 278.950675 
L 388.669633 278.287151 
L 388.804121 279.427896 
L 388.93861 276.873162 
L 389.207586 279.016598 
L 389.476562 285.716326 
L 389.611051 284.656312 
L 389.745539 285.474132 
L 389.880027 285.422063 
L 390.014515 270.494448 
L 390.149004 270.731864 
L 390.41798 270.753838 
L 390.552468 270.622949 
L 390.686956 265.114602 
L 390.821445 265.299949 
L 390.955933 256.431468 
L 391.224909 200.168083 
L 391.359397 168.732146 
L 391.493886 164.734761 
L 391.762862 175.448594 
L 391.89735 174.904017 
L 392.031839 167.666878 
L 392.166327 171.373344 
L 392.300815 180.370326 
L 392.569791 240.642561 
L 392.70428 266.980972 
L 392.973256 271.83296 
L 393.107744 272.491707 
L 393.376721 265.421762 
L 393.645697 271.150806 
L 393.780185 267.753411 
L 393.914673 269.140649 
L 394.049162 261.713385 
L 394.721603 146.882195 
L 394.990579 145.808328 
L 395.125067 145.387475 
L 395.259556 156.794449 
L 395.394044 157.66625 
L 395.931997 245.98228 
L 396.200973 259.619153 
L 396.335461 255.874948 
L 396.46995 280.696665 
L 396.604438 281.080735 
L 397.007902 284.121766 
L 397.276879 271.039025 
L 397.545855 197.183419 
L 397.680343 191.985577 
L 397.94932 168.561608 
L 398.083808 155.068045 
L 398.218296 167.836938 
L 398.352785 163.060904 
L 398.487273 166.079484 
L 398.487273 166.079484 
" clip-path="url(#p279a32f71e)" style="fill: none; stroke: #1f77b4; stroke-width: 1.5; stroke-linecap: square"/>
   </g>
   <g id="line2d_13">
    <path d="M 73.832727 280.076754 
L 73.967215 280.637729 
L 74.236192 280.322149 
L 74.37068 279.19439 
L 74.505168 280.062445 
L 74.639657 279.780413 
L 74.774145 280.112405 
L 74.908633 271.400908 
L 75.043121 231.191849 
L 75.446586 246.577551 
L 75.984539 250.015143 
L 76.253515 247.651903 
L 76.388003 247.305587 
L 76.65698 278.652996 
L 76.925956 275.038714 
L 77.060444 275.645836 
L 77.194933 263.565966 
L 77.329421 264.59643 
L 77.463909 266.533407 
L 77.598397 263.640933 
L 77.732885 264.94739 
L 77.867374 253.297453 
L 78.001862 224.865508 
L 78.270838 128.002093 
L 78.405327 104.699118 
L 78.674303 114.056457 
L 78.808791 105.46591 
L 78.943279 114.944525 
L 79.077768 112.898907 
L 79.346744 147.476586 
L 80.019185 257.305369 
L 80.288161 271.48848 
L 80.42265 260.501185 
L 80.557138 273.132067 
L 80.691626 273.310204 
L 81.095091 260.534693 
L 81.229579 238.843617 
L 81.498555 143.230127 
L 81.633044 168.588732 
L 81.767532 164.182025 
L 81.90202 153.38938 
L 82.170996 208.181444 
L 82.305485 198.100435 
L 82.439973 198.608197 
L 82.574461 198.113792 
L 82.708949 218.677763 
L 82.977926 209.128234 
L 83.112414 220.452781 
L 83.246902 208.800499 
L 83.38139 208.484083 
L 83.650367 275.365379 
L 83.784855 270.970772 
L 83.919343 290.28448 
L 84.18832 286.332877 
L 84.322808 208.477775 
L 84.457296 225.724267 
L 84.591784 208.477775 
L 84.860761 208.477775 
L 84.995249 208.967443 
L 85.264225 168.498438 
L 85.533202 184.087056 
L 85.802178 201.038381 
L 86.071155 235.857095 
L 86.205643 258.277984 
L 86.743596 272.083019 
L 87.012572 289.398417 
L 87.14706 290.22088 
L 87.281549 287.62012 
L 87.416037 288.713291 
L 87.550525 288.699599 
L 87.685013 286.826938 
L 87.95399 249.421824 
L 88.088478 257.607119 
L 88.222966 255.713799 
L 88.357454 257.907924 
L 88.491942 257.678209 
L 88.626431 253.641751 
L 88.760919 257.40633 
L 88.895407 250.026363 
L 89.298872 258.375832 
L 89.567848 278.378992 
L 89.702336 273.338034 
L 89.971313 277.701718 
L 90.105801 260.766231 
L 90.240289 259.604578 
L 90.374777 265.370132 
L 90.509266 263.698903 
L 90.643754 257.301593 
L 90.91273 265.26991 
L 91.047218 261.14355 
L 91.181707 249.266694 
L 91.316195 252.317087 
L 91.450683 246.418302 
L 91.585171 253.015952 
L 91.71966 250.960409 
L 91.988636 252.924857 
L 92.257612 256.697054 
L 92.392101 256.648373 
L 92.930053 268.694947 
L 93.19903 267.891871 
L 93.333518 279.478071 
L 93.468006 279.927297 
L 93.602495 274.361466 
L 93.736983 274.505061 
L 94.005959 263.345417 
L 94.140447 252.273766 
L 94.409424 166.44396 
L 94.543912 174.556582 
L 94.812888 156.75378 
L 94.947377 156.596574 
L 95.216353 172.976794 
L 95.350841 170.251908 
L 95.48533 160.733703 
L 95.888794 254.481873 
L 96.023282 266.458465 
L 96.157771 268.40926 
L 96.292259 266.563124 
L 96.561235 270.788511 
L 96.830212 265.447825 
L 96.9647 267.062652 
L 97.099188 264.037303 
L 97.233676 258.396537 
L 97.502653 209.310236 
L 97.637141 168.186761 
L 97.771629 176.056712 
L 97.906117 170.913768 
L 98.040606 183.52008 
L 98.175094 180.449096 
L 98.309582 182.770697 
L 98.44407 179.549949 
L 98.578558 184.217651 
L 98.982023 227.082741 
L 99.250999 266.566987 
L 99.654464 274.013991 
L 99.788952 284.502297 
L 99.923441 284.73677 
L 100.057929 278.163862 
L 100.192417 278.16801 
L 100.326905 278.311481 
L 100.595882 273.854494 
L 100.73037 273.90778 
L 100.864858 278.732471 
L 100.999346 278.865267 
L 101.268323 286.575543 
L 101.402811 281.41516 
L 101.537299 270.649649 
L 101.671787 274.998896 
L 101.940764 265.377389 
L 102.20974 272.397093 
L 102.344228 272.246945 
L 102.478717 274.07642 
L 102.613205 278.3551 
L 102.747693 274.23529 
L 102.882181 281.045901 
L 103.151158 258.624557 
L 103.285646 270.959495 
L 103.420134 269.074237 
L 103.823599 246.906021 
L 104.227063 165.338449 
L 104.361552 152.537655 
L 104.49604 165.177617 
L 104.765016 145.380246 
L 105.033993 161.285413 
L 105.302969 193.133245 
L 105.706434 258.901561 
L 105.840922 259.889974 
L 105.97541 257.445325 
L 106.109898 267.814383 
L 106.244387 289.240283 
L 106.378875 289.953237 
L 106.647851 279.504712 
L 106.782339 281.320112 
L 107.051316 278.039876 
L 107.320292 216.82138 
L 107.589269 252.99004 
L 107.723757 251.003862 
L 107.992733 252.606715 
L 108.127222 252.611009 
L 108.530686 245.255186 
L 108.665174 250.349458 
L 108.934151 280.104909 
L 109.068639 279.059011 
L 109.203127 276.792691 
L 109.337615 277.591222 
L 109.472104 271.434745 
L 109.74108 273.471719 
L 109.875568 273.238832 
L 110.144545 271.889512 
L 110.279033 272.094507 
L 110.413521 272.911604 
L 110.682498 277.524595 
L 111.085962 273.427656 
L 111.22045 274.801598 
L 111.354939 274.337699 
L 111.758403 266.725952 
L 112.161868 272.953183 
L 112.296356 272.763823 
L 112.430844 272.206179 
L 112.565333 273.44824 
L 112.699821 261.252986 
L 112.834309 262.252113 
L 112.968797 266.856856 
L 113.103285 265.611161 
L 113.237774 265.596468 
L 113.372262 264.833084 
L 113.775726 272.256432 
L 113.910215 270.66227 
L 114.044703 270.688587 
L 114.179191 268.788781 
L 114.448168 261.293341 
L 114.582656 261.389756 
L 114.717144 259.891048 
L 114.98612 250.414369 
L 115.120609 250.699773 
L 115.389585 260.544767 
L 115.524073 261.743988 
L 115.658561 261.726681 
L 115.79305 262.882344 
L 116.062026 260.843449 
L 116.196514 255.844547 
L 116.331002 263.619287 
L 116.465491 261.600549 
L 116.599979 256.524062 
L 116.734467 237.333827 
L 117.003444 130.837758 
L 117.137932 91.642916 
L 117.27242 92.403453 
L 117.406908 89.279212 
L 117.541396 82.701428 
L 117.675885 84.218654 
L 117.810373 88.978959 
L 118.213837 147.519407 
L 118.617302 240.917937 
L 119.020767 255.97835 
L 119.155255 251.768605 
L 119.289743 253.962727 
L 119.55872 248.655698 
L 119.693208 250.689061 
L 119.827696 248.572822 
L 119.962184 227.455106 
L 120.231161 120.961821 
L 120.500137 101.340241 
L 120.769114 95.562617 
L 120.903602 96.051393 
L 121.03809 95.277875 
L 121.172578 99.946697 
L 121.576043 178.861571 
L 121.845019 238.526764 
L 121.979507 246.275903 
L 122.113996 244.467439 
L 122.382972 247.146276 
L 122.51746 258.487335 
L 122.651948 258.874547 
L 122.786437 250.36163 
L 122.920925 249.454451 
L 123.055413 244.887607 
L 123.189901 226.947326 
L 123.458878 120.826453 
L 123.727854 82.594981 
L 124.265807 108.88639 
L 124.534783 123.116873 
L 124.669272 139.620005 
L 125.072736 241.632825 
L 125.207225 255.793603 
L 125.341713 256.225036 
L 125.476201 258.736563 
L 125.610689 254.378646 
L 125.879666 269.952784 
L 126.148642 262.054752 
L 126.417618 232.022988 
L 126.686595 133.103943 
L 126.955571 101.105146 
L 127.09006 92.826154 
L 127.224548 98.355646 
L 127.493524 117.31796 
L 127.628012 119.439831 
L 127.896989 156.261376 
L 128.300453 245.588903 
L 128.434942 255.38991 
L 128.56943 256.186438 
L 128.703918 255.430011 
L 128.838406 260.042918 
L 128.972894 259.789755 
L 129.107383 257.096271 
L 129.241871 260.606431 
L 129.376359 259.45263 
L 129.645336 214.749075 
L 130.0488 93.467694 
L 130.183288 96.924492 
L 130.317777 94.566018 
L 130.452265 100.410315 
L 130.586753 122.232552 
L 130.721241 122.536742 
L 130.855729 121.499061 
L 130.990218 136.52868 
L 131.528171 251.426432 
L 131.662659 259.222619 
L 131.797147 259.418337 
L 131.931635 263.740035 
L 132.200612 258.943298 
L 132.3351 262.252141 
L 132.469588 271.070796 
L 132.873053 264.565963 
L 133.142029 244.918122 
L 133.411005 238.755295 
L 133.679982 237.058785 
L 133.948958 239.599726 
L 134.083447 235.279968 
L 134.755888 255.22831 
L 134.890376 256.019659 
L 135.024864 254.900454 
L 135.159352 260.680905 
L 135.29384 261.675812 
L 135.428329 261.602397 
L 135.562817 261.862157 
L 135.831793 263.947191 
L 135.966282 269.006249 
L 136.10077 268.755678 
L 136.235258 263.178817 
L 136.504234 268.566045 
L 136.638723 264.967071 
L 136.773211 266.647071 
L 137.042187 265.363823 
L 137.445652 252.967824 
L 137.58014 255.93818 
L 137.714628 254.372787 
L 138.118093 261.554383 
L 138.252581 259.923676 
L 138.387069 260.552068 
L 138.521558 264.652092 
L 138.790534 256.30226 
L 139.05951 261.506153 
L 139.328487 224.797767 
L 139.597463 123.220875 
L 139.731951 92.219479 
L 139.86644 98.012749 
L 140.000928 95.633523 
L 140.135416 95.637195 
L 140.404393 111.479942 
L 140.942345 181.044282 
L 141.211322 247.200077 
L 141.34581 251.056272 
L 141.614786 265.834284 
L 141.749275 261.155214 
L 141.883763 264.662069 
L 142.287228 257.23726 
L 142.959669 94.493577 
L 143.094157 100.450216 
L 143.228645 98.811643 
L 143.363133 99.018642 
L 143.497621 104.203268 
L 143.63211 99.959696 
L 143.766598 105.976627 
L 144.304551 235.092327 
L 144.842504 269.673384 
L 145.11148 260.967837 
L 145.245968 261.1763 
L 145.380456 262.366653 
L 145.514945 252.830116 
L 145.649433 220.707817 
L 145.783921 215.492715 
L 146.187386 100.456394 
L 146.321874 93.782593 
L 146.725339 120.300828 
L 146.859827 116.858226 
L 147.263291 152.75638 
L 147.532268 241.918301 
L 147.801244 256.542565 
L 148.070221 264.741911 
L 148.204709 264.436769 
L 148.339197 265.250337 
L 148.87715 255.998397 
L 149.011638 224.59943 
L 149.280615 130.734998 
L 149.415103 107.634485 
L 149.549591 119.458895 
L 149.818567 107.605557 
L 150.222032 150.31272 
L 150.35652 147.032621 
L 150.491009 159.22054 
L 150.759985 241.681741 
L 151.16345 261.429378 
L 151.297938 264.243395 
L 151.432426 262.051857 
L 151.701402 264.444197 
L 151.970379 262.595958 
L 152.104867 258.413473 
L 152.64282 103.612491 
L 152.777308 119.181871 
L 152.911796 113.882504 
L 153.046285 101.95005 
L 153.315261 115.159765 
L 153.584237 175.570699 
L 153.853214 221.196081 
L 154.12219 259.665425 
L 154.256678 268.712297 
L 154.391167 266.527329 
L 154.525655 271.796483 
L 154.660143 271.795125 
L 154.794631 272.025441 
L 154.92912 271.796833 
L 155.063608 271.809832 
L 155.332584 275.314411 
L 155.467072 273.402002 
L 155.601561 266.327409 
L 155.736049 251.065083 
L 156.139513 261.255506 
L 156.274002 260.916287 
L 156.40849 259.797353 
L 156.542978 260.162268 
L 156.677466 262.710419 
L 156.811955 261.466434 
L 157.215419 266.975458 
L 157.484396 270.338576 
L 157.618884 268.787503 
L 158.022348 272.249065 
L 158.156837 271.364926 
L 158.291325 271.581382 
L 158.694789 277.69115 
L 158.829278 274.261985 
L 159.098254 278.011877 
L 159.232742 275.304127 
L 159.367231 276.127117 
L 159.501719 278.478689 
L 159.636207 276.392107 
L 160.039672 263.987602 
L 160.17416 260.721192 
L 160.443136 263.581715 
L 160.577624 269.015078 
L 160.712113 268.106193 
L 160.846601 265.565931 
L 160.981089 265.534111 
L 161.115577 266.477174 
L 161.250066 268.730641 
L 161.384554 267.835598 
L 161.65353 264.135624 
L 161.922507 229.4697 
L 162.325971 100.893164 
L 162.460459 92.103531 
L 162.594948 93.231855 
L 162.729436 96.226304 
L 162.863924 95.602361 
L 163.401877 157.639899 
L 163.805342 245.98473 
L 164.074318 254.13279 
L 164.208806 263.075207 
L 164.343294 259.129036 
L 164.477783 269.745118 
L 164.612271 270.384421 
L 164.746759 268.879233 
L 164.881247 257.441938 
L 165.284712 175.198844 
L 165.553688 110.471052 
L 165.688177 125.56691 
L 165.957153 112.090015 
L 166.091641 118.578499 
L 166.226129 117.59756 
L 166.360618 112.856313 
L 166.495106 117.452827 
L 166.629594 135.345691 
L 166.89857 237.333124 
L 167.033059 245.645928 
L 167.167547 244.023807 
L 167.436523 257.099702 
L 167.571012 254.896191 
L 167.839988 261.574944 
L 168.108964 259.19182 
L 168.243453 246.171866 
L 168.377941 219.015026 
L 168.781405 94.674994 
L 168.915894 102.653216 
L 169.050382 103.654664 
L 169.18487 105.563844 
L 169.319358 109.84547 
L 169.453847 100.472563 
L 169.588335 106.439266 
L 170.260776 248.060652 
L 170.395264 257.443399 
L 170.529752 257.998902 
L 170.66424 262.386683 
L 170.798729 263.121758 
L 171.067705 259.665089 
L 171.202193 260.08255 
L 171.336681 263.115089 
L 171.740146 174.756283 
L 172.009123 101.669789 
L 172.143611 105.414748 
L 172.278099 113.585374 
L 172.547075 99.27366 
L 173.085028 157.633178 
L 173.488493 248.934361 
L 174.026446 281.87704 
L 174.160934 278.778495 
L 174.295422 272.810982 
L 174.42991 272.753651 
L 174.564399 273.195106 
L 174.967863 212.935527 
L 175.102351 169.249957 
L 175.371328 148.393818 
L 175.505816 140.225435 
L 175.640304 140.261829 
L 175.909281 154.86037 
L 176.043769 158.68967 
L 176.447234 202.517715 
L 176.71621 253.511533 
L 176.985186 265.870986 
L 177.119675 267.565739 
L 177.254163 266.738928 
L 177.388651 269.112284 
L 177.523139 267.48604 
L 177.792116 272.525863 
L 177.926604 272.451961 
L 178.061092 272.230787 
L 178.330069 256.307461 
L 178.464557 260.414083 
L 178.599045 254.859196 
L 178.733533 256.741413 
L 178.868021 256.557983 
L 179.00251 259.607673 
L 179.271486 256.292372 
L 179.405974 256.620998 
L 179.540462 255.289468 
L 179.674951 255.873794 
L 180.078415 270.065637 
L 180.212904 267.653411 
L 180.347392 267.61592 
L 180.616368 278.1034 
L 180.885345 274.443171 
L 181.019833 274.988356 
L 181.154321 274.551608 
L 181.557786 262.408375 
L 181.692274 264.780922 
L 181.826762 264.255436 
L 181.96125 266.760535 
L 182.095738 260.621706 
L 182.230227 262.368789 
L 182.499203 269.677426 
L 182.633691 270.519663 
L 182.76818 273.754356 
L 183.037156 272.787776 
L 183.171644 277.159284 
L 183.306132 277.516982 
L 183.440621 277.296759 
L 183.575109 278.926247 
L 183.709597 274.189886 
L 183.978573 292.217581 
L 184.24755 279.82789 
L 184.516526 256.544228 
L 184.785503 182.530257 
L 184.919991 182.734178 
L 185.054479 170.760753 
L 185.188967 180.531587 
L 185.323456 177.984497 
L 185.72692 193.1573 
L 186.399361 261.94018 
L 186.937314 283.289202 
L 187.071802 294.232551 
L 187.206291 294.138854 
L 187.340779 286.940236 
L 187.475267 286.657351 
L 187.609755 280.269513 
L 187.744243 262.287594 
L 188.01322 180.814256 
L 188.147708 184.731718 
L 188.282196 175.153404 
L 188.551173 182.787404 
L 188.685661 186.949999 
L 188.820149 195.946514 
L 188.954637 195.983324 
L 189.223614 219.506231 
L 189.627078 268.040417 
L 189.761567 268.372985 
L 189.896055 267.857333 
L 190.030543 276.123601 
L 190.299519 269.570513 
L 190.434008 269.956226 
L 190.568496 265.656863 
L 190.702984 265.141485 
L 190.971961 266.833935 
L 191.106449 265.703742 
L 191.240937 259.802981 
L 191.509913 271.687581 
L 191.644402 266.757718 
L 191.77889 268.753702 
L 191.913378 268.268722 
L 192.182354 262.189073 
L 192.316843 262.568087 
L 192.451331 265.263138 
L 192.585819 265.020131 
L 192.720307 266.315954 
L 192.854796 272.013401 
L 192.989284 271.318041 
L 193.392748 266.061197 
L 193.527237 263.8029 
L 193.796213 265.577227 
L 193.930701 263.860742 
L 194.199678 245.431974 
L 194.468654 170.90406 
L 194.603142 165.272653 
L 194.73763 151.335521 
L 194.872119 150.831052 
L 195.006607 144.210428 
L 195.141095 146.926191 
L 195.275583 154.237133 
L 195.410072 150.040972 
L 195.679048 179.744942 
L 195.948024 241.31312 
L 196.082513 260.341471 
L 196.217001 262.86049 
L 196.351489 262.260789 
L 196.485977 265.35924 
L 196.620465 275.364113 
L 196.754954 273.005749 
L 196.889442 267.506204 
L 197.02393 266.772791 
L 197.158418 267.173021 
L 197.292907 262.597152 
L 197.427395 248.511238 
L 197.696371 174.45408 
L 198.099836 193.155597 
L 198.234324 191.728282 
L 198.368812 199.496463 
L 198.637789 192.888887 
L 198.906765 218.084994 
L 199.31023 274.144576 
L 199.444718 275.279951 
L 199.579206 275.060376 
L 199.848183 280.488568 
L 200.117159 278.004872 
L 200.251647 278.471656 
L 200.386135 275.578854 
L 200.520624 266.474587 
L 200.655112 266.038708 
L 200.7896 247.421558 
L 200.924088 183.340882 
L 201.193065 192.362221 
L 201.462041 193.754841 
L 201.596529 199.548425 
L 201.731018 191.864256 
L 201.865506 192.59987 
L 201.999994 201.071995 
L 202.537947 268.08507 
L 202.806923 270.363041 
L 202.941411 274.640115 
L 203.210388 262.992999 
L 203.344876 268.844356 
L 203.479364 268.908146 
L 203.882829 252.955129 
L 204.017317 227.73346 
L 204.286294 160.787049 
L 204.420782 158.818934 
L 204.689758 160.77791 
L 204.824246 167.322065 
L 204.958735 164.868096 
L 205.227711 194.137756 
L 205.765664 260.33174 
L 205.900152 262.940851 
L 206.03464 262.231672 
L 206.169129 267.150643 
L 206.303617 285.45969 
L 206.438105 285.199839 
L 206.572593 281.26703 
L 206.707081 283.19132 
L 206.976058 280.304362 
L 207.379522 255.250886 
L 207.648499 263.254969 
L 207.917475 274.611578 
L 208.051964 276.393448 
L 208.186452 275.587195 
L 208.455428 267.493644 
L 208.724405 271.135007 
L 208.993381 279.352662 
L 209.127869 280.871134 
L 209.262357 279.278685 
L 209.396846 279.943813 
L 209.531334 271.134731 
L 209.665822 271.354268 
L 209.80031 272.128438 
L 209.934799 269.868818 
L 210.069287 270.353151 
L 210.472751 198.863948 
L 210.741728 149.65421 
L 211.010704 121.902903 
L 211.145192 110.016701 
L 211.952122 222.545028 
L 212.221098 258.512162 
L 212.355586 260.024027 
L 212.490075 258.959576 
L 212.759051 272.090609 
L 212.893539 274.637041 
L 213.162516 267.429208 
L 213.297004 270.765454 
L 213.56598 231.127813 
L 213.834957 135.564049 
L 213.969445 118.98787 
L 214.103933 143.170511 
L 214.238421 139.577487 
L 214.37291 139.506977 
L 214.507398 147.060944 
L 215.179839 226.62011 
L 215.448815 267.689251 
L 215.583303 264.244074 
L 215.717792 265.584329 
L 215.85228 268.678948 
L 215.986768 268.479292 
L 216.121256 269.722969 
L 216.390233 266.543248 
L 216.524721 269.107674 
L 216.659209 259.523892 
L 216.793697 241.434718 
L 217.062674 147.822302 
L 217.197162 134.638397 
L 217.33165 150.462109 
L 217.466138 151.307195 
L 217.600627 159.947607 
L 217.735115 158.092189 
L 217.869603 147.82906 
L 218.004091 159.363027 
L 218.273068 210.977685 
L 218.407556 221.083362 
L 218.676532 264.229022 
L 218.945509 271.550305 
L 219.079997 266.102689 
L 219.214485 265.830372 
L 219.483462 272.423708 
L 219.752438 274.578179 
L 220.021414 241.819449 
L 220.290391 145.677947 
L 220.424879 148.831722 
L 220.559367 156.457092 
L 220.828344 149.684844 
L 220.962832 160.973664 
L 221.09732 158.891834 
L 221.366297 201.085976 
L 221.635273 219.528522 
L 221.904249 264.322957 
L 222.307714 272.848673 
L 222.442202 271.692862 
L 222.711179 277.384234 
L 222.845667 277.288479 
L 222.980155 278.010854 
L 223.114643 274.838096 
L 223.249132 276.674643 
L 223.518108 248.195302 
L 223.787084 263.545829 
L 224.190549 257.615979 
L 224.325037 257.219401 
L 224.459525 260.605514 
L 224.594014 260.578296 
L 224.86299 256.230333 
L 225.131967 262.797026 
L 225.266455 263.248196 
L 225.400943 261.060695 
L 225.535431 264.4473 
L 225.669919 263.852406 
L 225.804408 260.512577 
L 226.207872 268.549612 
L 226.34236 268.989209 
L 226.611337 270.381828 
L 226.745825 270.199271 
L 226.880313 269.033426 
L 227.14929 273.788919 
L 227.283778 274.461321 
L 227.418266 272.257632 
L 227.687243 274.377461 
L 227.956219 271.839796 
L 228.090707 271.901532 
L 228.225195 277.999783 
L 228.62866 275.273189 
L 228.763148 277.702012 
L 228.897637 277.72711 
L 229.166613 271.980608 
L 229.301101 272.801922 
L 229.435589 271.140655 
L 229.570078 257.237842 
L 229.704566 228.080275 
L 230.10803 107.539358 
L 230.511495 88.631871 
L 230.780471 122.788577 
L 230.91496 127.186994 
L 231.183936 174.073994 
L 231.587401 255.872836 
L 232.125354 270.706479 
L 232.259842 269.903471 
L 232.39433 270.738806 
L 232.528818 272.383681 
L 232.663306 268.102475 
L 232.932283 230.855888 
L 233.335748 118.612493 
L 233.604724 137.578134 
L 233.739212 135.295633 
L 233.8737 147.769262 
L 234.008189 136.055773 
L 234.142677 146.483097 
L 234.546141 218.10066 
L 234.815118 265.075516 
L 234.949606 268.57885 
L 235.084094 265.679503 
L 235.218583 271.905008 
L 235.353071 272.860745 
L 235.487559 274.866107 
L 235.622047 280.010612 
L 235.891024 271.685603 
L 236.16 243.598997 
L 236.428976 138.284115 
L 236.563465 118.763727 
L 236.697953 131.060087 
L 236.832441 126.955379 
L 236.966929 114.702202 
L 237.101417 126.872551 
L 237.370394 158.468921 
L 237.504882 172.380915 
L 237.908347 254.446378 
L 238.042835 266.744916 
L 238.177323 268.381674 
L 238.311811 266.945962 
L 238.4463 271.757998 
L 238.715276 273.848038 
L 238.984252 283.138915 
L 239.118741 277.923746 
L 239.253229 266.968057 
L 239.387717 237.852319 
L 239.656694 145.933972 
L 239.791182 129.619261 
L 239.92567 127.134903 
L 240.060158 135.857223 
L 240.194646 134.709951 
L 240.329135 143.681192 
L 240.732599 185.820804 
L 240.867087 198.847626 
L 241.270552 257.631997 
L 241.40504 260.804325 
L 241.539529 259.321181 
L 241.674017 264.166877 
L 241.808505 262.482778 
L 242.077481 277.508264 
L 242.21197 282.794111 
L 242.346458 279.935802 
L 242.615434 238.281632 
L 242.884411 145.726954 
L 243.018899 136.956211 
L 243.153387 158.670698 
L 243.287875 154.466088 
L 243.422363 142.764804 
L 243.556852 149.979032 
L 243.69134 148.981707 
L 244.498269 261.950443 
L 244.632757 265.552822 
L 244.767246 265.649235 
L 245.036222 271.695615 
L 245.17071 275.123827 
L 245.574175 272.635541 
L 245.708663 270.034395 
L 245.843151 251.411017 
L 246.112128 263.405588 
L 246.246616 261.601009 
L 246.381104 263.065632 
L 246.515592 261.533043 
L 246.650081 262.531582 
L 247.188033 271.406964 
L 247.45701 273.442787 
L 247.591498 273.658144 
L 247.725986 272.780744 
L 247.860475 274.523387 
L 247.994963 272.078269 
L 248.263939 275.26189 
L 248.667404 272.188226 
L 248.801892 273.691849 
L 249.205357 272.325767 
L 249.608821 278.906794 
L 249.743309 277.850981 
L 250.012286 279.013214 
L 250.281262 276.201993 
L 250.415751 276.002673 
L 250.684727 274.22721 
L 250.819215 274.554114 
L 251.088192 274.2818 
L 251.22268 272.032792 
L 251.357168 275.298785 
L 251.491656 275.34581 
L 251.626144 286.18967 
L 251.760633 285.166963 
L 252.029609 279.659182 
L 252.298586 251.997712 
L 252.567562 151.155077 
L 252.70205 129.803035 
L 252.971027 160.784453 
L 253.105515 156.128749 
L 253.643468 189.127705 
L 254.181421 264.356194 
L 254.584885 281.321149 
L 254.719373 282.262624 
L 254.853862 286.677785 
L 254.98835 285.292136 
L 255.122838 285.458066 
L 255.257326 285.392212 
L 255.526303 240.013712 
L 255.795279 153.952599 
L 256.064255 168.386882 
L 256.333232 156.373704 
L 256.602208 160.11614 
L 256.736697 169.252671 
L 257.140161 230.39291 
L 257.409138 255.555256 
L 257.543626 262.139525 
L 257.678114 260.566109 
L 257.812602 266.210908 
L 257.94709 266.19124 
L 258.216067 284.820483 
L 258.485043 277.5202 
L 258.75402 246.266201 
L 259.022996 154.733748 
L 259.291973 163.978231 
L 259.426461 162.811317 
L 259.560949 149.482088 
L 259.695437 153.737246 
L 259.829925 169.70375 
L 259.964414 161.095474 
L 260.23339 204.353002 
L 260.636855 255.631026 
L 261.040319 265.695641 
L 261.174808 263.294532 
L 261.309296 269.731892 
L 261.443784 270.142932 
L 261.578272 271.13715 
L 261.847249 260.615667 
L 261.981737 235.645003 
L 262.250713 151.889219 
L 262.385201 159.594679 
L 262.51969 160.889167 
L 262.654178 146.632006 
L 262.788666 146.103547 
L 262.923154 153.529275 
L 263.057643 152.649498 
L 263.595595 220.960375 
L 263.864572 248.66739 
L 264.402525 267.055595 
L 264.671501 262.227956 
L 264.805989 261.734093 
L 265.074966 255.520133 
L 265.209454 238.597822 
L 265.747407 113.825828 
L 265.881895 112.774912 
L 266.016383 103.464702 
L 266.28536 122.496011 
L 266.419848 124.590284 
L 266.554336 135.967227 
L 267.226777 254.750327 
L 267.361265 254.923262 
L 267.495754 258.789335 
L 267.630242 271.17664 
L 267.76473 270.554278 
L 267.899218 267.53539 
L 268.033706 267.263293 
L 268.302683 274.33222 
L 268.437171 274.033962 
L 268.571659 268.624799 
L 268.840636 277.002394 
L 269.109612 273.442516 
L 269.2441 273.228208 
L 269.378589 273.277185 
L 269.916541 259.610804 
L 270.05103 258.292368 
L 270.320006 260.628347 
L 270.454494 261.228674 
L 270.588982 263.129578 
L 270.723471 267.058126 
L 270.857959 279.389819 
L 270.992447 280.584617 
L 271.126935 274.499579 
L 271.395912 274.985674 
L 271.5304 273.993746 
L 271.799376 276.470926 
L 271.933865 279.55097 
L 272.068353 278.878246 
L 272.202841 281.461694 
L 272.337329 279.421858 
L 272.471817 281.157696 
L 272.606306 279.915845 
L 272.740794 276.904065 
L 273.00977 278.755526 
L 273.413235 274.428808 
L 273.682211 275.976355 
L 273.8167 274.745441 
L 273.951188 277.287687 
L 274.085676 276.555295 
L 274.220164 290.924294 
L 274.354652 293.309133 
L 274.623629 286.615678 
L 274.892605 256.201087 
L 275.161582 185.479397 
L 275.430558 153.514154 
L 275.565046 154.747785 
L 275.699535 147.517555 
L 275.834023 153.485331 
L 276.102999 183.043907 
L 276.909928 267.508083 
L 277.044417 267.745589 
L 277.178905 275.688475 
L 277.313393 274.297568 
L 277.447881 280.458637 
L 277.58237 281.180754 
L 277.716858 283.145294 
L 277.851346 282.597915 
L 277.985834 275.154812 
L 278.120322 260.106263 
L 278.389299 195.025706 
L 278.523787 192.231807 
L 278.658275 179.005207 
L 278.792763 182.457666 
L 278.927252 176.575561 
L 279.06174 191.8226 
L 279.196228 191.936157 
L 279.330716 196.790177 
L 280.137646 271.152623 
L 280.272134 273.232757 
L 280.406622 278.105243 
L 280.675598 264.375688 
L 280.810087 266.493556 
L 280.944575 265.817255 
L 281.079063 263.974222 
L 281.348039 245.026378 
L 281.751504 136.960148 
L 281.885992 126.591126 
L 282.020481 129.439148 
L 282.289457 146.035397 
L 282.423945 127.600458 
L 282.558433 133.882823 
L 282.82741 185.964879 
L 283.230874 262.960969 
L 283.365363 264.506019 
L 283.499851 262.835258 
L 283.634339 265.604792 
L 284.037804 258.171604 
L 284.172292 258.381182 
L 284.30678 256.354109 
L 284.575757 241.603883 
L 284.844733 166.922288 
L 284.979221 152.548473 
L 285.113709 155.15554 
L 285.248198 142.095195 
L 285.382686 140.070101 
L 285.517174 134.058942 
L 285.651662 149.285084 
L 285.78615 151.47183 
L 285.920639 160.477114 
L 286.458592 260.751308 
L 286.727568 261.887872 
L 286.862056 263.364755 
L 286.996544 284.548312 
L 287.131033 284.736858 
L 287.265521 275.314541 
L 287.400009 275.278253 
L 287.668985 269.771607 
L 287.803474 263.452007 
L 287.937962 262.927211 
L 288.206938 274.23033 
L 288.341427 274.151078 
L 288.475915 273.208723 
L 288.610403 270.644833 
L 288.744891 271.163779 
L 288.879379 270.370704 
L 289.148356 276.749926 
L 289.282844 271.744783 
L 289.55182 281.168131 
L 289.686309 280.369755 
L 289.955285 276.603992 
L 290.089773 276.776686 
L 290.224262 275.081454 
L 290.35875 276.522776 
L 290.493238 275.637771 
L 290.627726 275.913094 
L 290.762214 273.531581 
L 291.165679 244.898759 
L 291.434655 176.56797 
L 291.83812 192.365487 
L 292.107096 175.540474 
L 292.241585 183.760073 
L 292.914026 264.901477 
L 293.183002 267.691151 
L 293.31749 271.697613 
L 293.586467 268.601794 
L 293.720955 266.774385 
L 293.855443 268.83196 
L 293.989931 268.697933 
L 294.393396 229.266615 
L 294.662373 171.128021 
L 295.065837 141.063342 
L 295.200325 139.036861 
L 295.469302 148.311231 
L 295.738278 201.776554 
L 295.872766 214.149092 
L 296.141743 260.238617 
L 296.276231 260.297343 
L 296.410719 257.750659 
L 296.545208 265.854062 
L 296.679696 286.458178 
L 296.814184 286.84524 
L 296.948672 282.048115 
L 297.352137 281.264087 
L 297.621113 276.577833 
L 297.89009 285.246456 
L 298.293554 274.178494 
L 298.428042 273.577594 
L 298.562531 272.413365 
L 298.697019 269.69757 
L 299.100484 277.49582 
L 299.234972 277.58757 
L 299.36946 279.521631 
L 299.503948 279.190273 
L 299.638436 276.432039 
L 299.772925 278.826627 
L 299.907413 266.32526 
L 300.176389 270.596551 
L 300.445366 266.75593 
L 300.714342 239.22697 
L 301.117807 146.333108 
L 301.386783 127.346049 
L 301.521271 128.203427 
L 301.65576 138.826012 
L 301.790248 134.671533 
L 302.059224 180.977137 
L 302.597177 254.494904 
L 302.731665 258.379019 
L 302.866153 256.562648 
L 303.13513 270.407906 
L 303.404106 263.641655 
L 303.538595 265.823911 
L 303.673083 264.642936 
L 304.211036 157.570112 
L 304.345524 157.777336 
L 304.480012 159.177905 
L 304.748988 151.690144 
L 304.883477 160.107897 
L 305.017965 153.722495 
L 305.152453 165.342555 
L 305.690406 243.364733 
L 305.959382 263.890658 
L 306.093871 262.569269 
L 306.228359 266.665034 
L 306.362847 267.313293 
L 306.497335 277.189688 
L 306.631823 278.471787 
L 306.9008 272.573505 
L 307.035288 261.855201 
L 307.169776 236.095385 
L 307.438753 149.613939 
L 307.707729 168.693876 
L 307.976706 157.354325 
L 308.111194 163.126815 
L 308.245682 154.910081 
L 308.38017 164.59091 
L 308.918123 247.06892 
L 309.187099 267.060448 
L 309.321588 267.229731 
L 309.456076 273.839585 
L 309.590564 274.494026 
L 309.725052 276.38955 
L 310.128517 272.223231 
L 310.263005 263.111624 
L 310.397493 234.394531 
L 310.66647 149.486772 
L 310.800958 155.761709 
L 310.935446 168.021187 
L 311.069934 168.211212 
L 311.204423 159.170196 
L 311.338911 162.910259 
L 311.473399 159.439112 
L 311.607887 160.994628 
L 312.011352 232.964429 
L 312.280328 260.833081 
L 312.414817 263.418671 
L 312.549305 262.465077 
L 312.818281 271.118183 
L 312.952769 272.410209 
L 313.087258 270.125428 
L 313.221746 270.688027 
L 313.356234 269.837723 
L 313.490722 270.408974 
L 313.894187 246.867449 
L 314.028675 257.335208 
L 314.163163 256.608688 
L 314.297652 258.645321 
L 314.43214 256.852734 
L 314.701116 264.384426 
L 314.835604 264.332564 
L 315.104581 270.312964 
L 315.373557 268.784577 
L 315.508045 271.250489 
L 315.642534 271.019782 
L 315.777022 270.557809 
L 315.91151 270.608128 
L 316.045998 271.517344 
L 316.180487 271.316192 
L 316.314975 271.844255 
L 316.449463 270.192186 
L 316.583951 270.387992 
L 316.718439 270.307207 
L 316.852928 269.914167 
L 316.987416 270.037444 
L 317.121904 271.142181 
L 317.39088 273.87582 
L 317.525369 274.731141 
L 317.659857 273.970015 
L 317.794345 275.301047 
L 318.063322 271.598617 
L 318.466786 267.997529 
L 318.601274 269.254661 
L 318.735763 269.051679 
L 318.870251 270.028328 
L 319.139227 268.217706 
L 319.273715 268.14369 
L 319.408204 280.932153 
L 319.542692 281.616711 
L 319.946157 268.89536 
L 320.080645 248.680363 
L 320.349621 149.635127 
L 320.484109 128.720965 
L 320.618598 128.847861 
L 320.887574 145.987706 
L 321.560015 198.591421 
L 321.96348 263.232259 
L 322.097968 266.04516 
L 322.232456 263.794782 
L 322.366944 269.676547 
L 322.501433 269.975471 
L 322.635921 281.484211 
L 322.770409 282.832736 
L 323.039385 275.579886 
L 323.308362 247.483175 
L 323.577338 152.425986 
L 323.711826 157.66903 
L 323.846315 172.067694 
L 324.115291 153.737666 
L 324.249779 155.476848 
L 324.384268 155.339406 
L 324.518756 163.35157 
L 325.056709 248.909124 
L 325.191197 261.064472 
L 325.325685 262.470115 
L 325.460173 260.871689 
L 325.594661 268.089077 
L 325.72915 269.142641 
L 325.998126 281.007523 
L 326.267103 276.796863 
L 326.401591 267.895673 
L 326.536079 244.076758 
L 326.805055 146.937826 
L 326.939544 154.810919 
L 327.074032 172.401759 
L 327.343008 159.952903 
L 327.477496 166.578709 
L 327.611985 164.794909 
L 327.746473 168.708805 
L 327.880961 182.15766 
L 328.149937 228.577606 
L 328.553402 260.198182 
L 328.68789 262.171477 
L 328.822379 271.612234 
L 328.956867 272.555458 
L 329.091355 283.982757 
L 329.225843 283.4517 
L 329.49482 275.777223 
L 329.763796 243.638898 
L 330.032772 161.043549 
L 330.167261 160.622702 
L 330.301749 170.378451 
L 330.705214 157.827611 
L 331.108678 193.949116 
L 331.243166 201.524838 
L 331.646631 258.813782 
L 331.781119 261.846132 
L 331.915607 260.854552 
L 332.184584 269.43064 
L 332.319072 282.272417 
L 332.45356 282.338432 
L 332.588049 275.336471 
L 332.722537 274.948812 
L 332.991513 242.503093 
L 333.26049 157.109325 
L 333.394978 160.190325 
L 333.529466 177.276839 
L 333.798442 164.428467 
L 333.932931 164.703449 
L 334.067419 167.950822 
L 334.470883 207.358926 
L 334.874348 264.387731 
L 335.143325 266.237431 
L 335.277813 274.216062 
L 335.815766 268.872001 
L 336.084742 270.578799 
L 336.353718 256.591647 
L 336.488207 257.703494 
L 336.622695 257.212494 
L 336.757183 254.900896 
L 336.891671 256.101435 
L 337.02616 255.314526 
L 337.429624 263.352818 
L 337.833089 268.836625 
L 337.967577 268.066417 
L 338.102065 270.334538 
L 338.236553 270.344747 
L 338.371042 268.742796 
L 338.50553 271.54493 
L 338.640018 268.557481 
L 338.774506 268.206026 
L 338.908995 268.592398 
L 339.177971 267.444938 
L 339.312459 268.169389 
L 339.446947 265.942243 
L 339.581436 266.515516 
L 339.850412 271.078502 
L 339.9849 270.314831 
L 340.119388 268.463276 
L 340.253877 270.926095 
L 340.388365 269.878179 
L 340.522853 273.374964 
L 340.657341 271.680017 
L 340.926318 272.822952 
L 341.060806 272.221792 
L 341.195294 268.924276 
L 341.464271 271.94708 
L 341.598759 270.506133 
L 341.867735 274.733836 
L 342.002223 284.619768 
L 342.136712 284.78446 
L 342.405688 280.010692 
L 342.674664 247.1252 
L 342.943641 151.051292 
L 343.078129 135.879068 
L 343.347106 169.398828 
L 343.481594 167.3148 
L 343.75057 173.392808 
L 344.288523 236.829596 
L 344.557499 261.685737 
L 344.691988 261.443348 
L 344.826476 263.637901 
L 344.960964 271.635411 
L 345.095452 272.036666 
L 345.22994 281.290637 
L 345.364429 282.163832 
L 345.633405 279.654006 
L 345.767893 269.618256 
L 345.902382 245.44941 
L 346.171358 159.673558 
L 346.440334 175.591678 
L 346.574823 173.20473 
L 346.709311 168.797869 
L 346.843799 169.192686 
L 346.978287 171.048676 
L 347.247264 196.063697 
L 347.785217 260.005761 
L 348.054193 262.791426 
L 348.188681 271.307613 
L 348.323169 271.506511 
L 348.457658 281.238494 
L 348.592146 282.211806 
L 348.861122 279.878797 
L 349.130099 245.235868 
L 349.399075 159.063704 
L 349.533563 169.140854 
L 349.80254 166.808772 
L 349.937028 162.837301 
L 350.206004 168.400032 
L 350.474981 196.382853 
L 350.743957 236.068532 
L 351.012934 259.9017 
L 351.147422 265.450227 
L 351.28191 263.774489 
L 351.685375 284.311513 
L 351.954351 279.269653 
L 352.088839 277.033758 
L 352.223328 271.771982 
L 352.357816 251.892075 
L 352.626792 156.84612 
L 352.76128 170.758381 
L 353.030257 172.955074 
L 353.164745 165.49447 
L 353.299233 170.521362 
L 353.56821 165.793667 
L 353.702698 166.620592 
L 354.106163 253.914625 
L 354.240651 268.964094 
L 354.375139 270.88881 
L 354.509627 268.238391 
L 354.913092 281.08876 
L 355.182068 278.71256 
L 355.316556 277.484521 
L 355.451045 270.089176 
L 355.585533 246.372239 
L 355.854509 182.642357 
L 355.988998 181.96932 
L 356.257974 157.027528 
L 356.52695 163.734542 
L 356.661439 164.742282 
L 357.602856 272.958298 
L 357.737344 272.519898 
L 358.006321 279.891789 
L 358.140809 279.071746 
L 358.275297 277.501942 
L 358.409785 277.892218 
L 358.544274 277.435226 
L 358.81325 273.507855 
L 359.082226 255.408557 
L 359.216715 251.801347 
L 359.351203 252.561594 
L 359.485691 254.824587 
L 359.620179 248.03365 
L 359.889156 262.738452 
L 360.023644 263.443276 
L 360.427109 278.267539 
L 360.696085 276.322712 
L 360.830573 276.760335 
L 360.965061 276.285419 
L 361.09955 278.907321 
L 361.234038 279.088678 
L 361.368526 278.788275 
L 361.503014 277.877345 
L 361.637502 279.009784 
L 361.771991 277.894015 
L 361.906479 275.602007 
L 362.175455 280.587607 
L 362.309944 281.128975 
L 362.444432 274.900714 
L 362.57892 276.209949 
L 362.713408 273.481566 
L 362.982385 279.659952 
L 363.116873 279.466239 
L 363.385849 276.920283 
L 363.520337 278.418357 
L 363.789314 276.460591 
L 363.923802 276.303464 
L 364.05829 275.410412 
L 364.192778 279.421488 
L 364.327267 245.697679 
L 364.461755 243.545965 
L 364.596243 252.623616 
L 364.730731 250.743695 
L 364.86522 253.065946 
L 364.999708 247.871161 
L 365.672149 103.094306 
L 365.806637 101.126996 
L 365.941125 93.649096 
L 366.210102 111.577929 
L 366.479078 128.939516 
L 366.613566 152.925362 
L 366.882543 239.171911 
L 367.151519 257.149093 
L 367.420496 257.943729 
L 367.689472 267.349349 
L 367.82396 263.758863 
L 368.092937 267.70528 
L 368.765378 92.866901 
L 368.899866 103.474682 
L 369.034354 100.96795 
L 369.303331 90.48669 
L 369.437819 85.597293 
L 369.975772 190.702463 
L 370.11026 235.958103 
L 370.379236 247.543672 
L 370.513724 251.63563 
L 370.648213 263.640033 
L 370.782701 287.020228 
L 370.917189 286.973601 
L 371.051677 277.279283 
L 371.186166 277.201477 
L 371.320654 275.374955 
L 371.58963 238.972227 
L 371.858607 160.452426 
L 371.993095 156.954605 
L 372.262071 203.74304 
L 372.396559 198.003731 
L 372.531048 200.259913 
L 372.665536 195.720852 
L 372.800024 198.509832 
L 372.934512 205.375952 
L 373.203489 235.885025 
L 373.472465 259.430615 
L 373.741442 264.095234 
L 374.010418 283.606965 
L 374.144906 295.488 
L 374.413883 286.229878 
L 374.548371 284.320003 
L 374.817347 245.447014 
L 375.086324 191.277851 
L 375.3553 172.098107 
L 375.624277 175.528382 
L 375.758765 179.770182 
L 376.162229 202.616422 
L 376.565694 255.654377 
L 376.83467 266.359717 
L 376.969159 265.967746 
L 377.103647 271.141887 
L 377.238135 285.430226 
L 377.776088 272.871206 
L 377.910576 277.22637 
L 378.314041 259.085869 
L 378.448529 262.649361 
L 378.583017 258.335905 
L 378.986482 270.007062 
L 379.255458 270.582827 
L 379.389947 273.381984 
L 379.524435 272.24272 
L 379.927899 278.689766 
L 380.062388 278.928833 
L 380.196876 277.20288 
L 380.331364 277.59979 
L 380.465852 266.803609 
L 380.60034 266.298905 
L 380.869317 270.999007 
L 381.003805 270.21502 
L 381.40727 213.40792 
L 381.541758 152.830547 
L 381.676246 144.56746 
L 381.810734 144.160356 
L 382.079711 141.953799 
L 382.348687 148.447459 
L 382.483175 144.628422 
L 383.155616 263.418249 
L 383.290105 267.241324 
L 383.424593 266.47632 
L 383.559081 269.638133 
L 383.828058 260.679446 
L 383.962546 260.807728 
L 384.097034 260.070466 
L 384.231522 260.250573 
L 384.36601 256.141747 
L 384.500499 256.206601 
L 384.903963 156.211561 
L 385.038451 160.327697 
L 385.17294 142.779351 
L 385.307428 145.680499 
L 385.441916 169.060464 
L 385.576404 171.660084 
L 385.710893 171.076874 
L 385.979869 214.251984 
L 386.383334 265.606622 
L 386.517822 266.182691 
L 386.786798 273.211407 
L 386.921286 280.706055 
L 387.055775 280.922739 
L 387.190263 275.994939 
L 387.324751 276.946589 
L 387.459239 275.02231 
L 387.728216 267.109019 
L 387.862704 269.447612 
L 387.997192 278.136233 
L 388.266169 280.29142 
L 388.400657 283.934901 
L 388.535145 283.639963 
L 388.669633 278.760565 
L 388.93861 283.997881 
L 389.073098 279.899398 
L 389.207586 280.813225 
L 389.611051 288.244855 
L 389.880027 283.12885 
L 390.014515 284.339315 
L 390.149004 264.675621 
L 390.283492 262.846324 
L 390.41798 267.207047 
L 390.686956 263.913136 
L 391.090421 230.996863 
L 391.224909 188.597835 
L 391.359397 181.83894 
L 391.493886 158.156321 
L 391.628374 157.360209 
L 392.031839 179.138142 
L 392.166327 175.266527 
L 392.300815 183.982963 
L 392.569791 225.811778 
L 392.838768 272.939155 
L 392.973256 273.456515 
L 393.107744 271.497575 
L 393.242232 273.236939 
L 393.511209 260.102735 
L 393.645697 267.852242 
L 393.780185 269.031594 
L 393.914673 259.149355 
L 394.049162 257.671993 
L 394.318138 203.341392 
L 394.587115 154.965055 
L 394.721603 156.550371 
L 394.856091 143.09628 
L 395.259556 145.318811 
L 396.200973 261.213351 
L 396.335461 261.187168 
L 396.46995 258.466027 
L 396.604438 286.997022 
L 396.738926 289.459922 
L 396.873414 280.998617 
L 397.007902 280.929605 
L 397.142391 281.612038 
L 397.411367 245.826063 
L 397.680343 173.204951 
L 397.814832 177.141737 
L 398.218296 155.522635 
L 398.352785 166.414279 
L 398.487273 164.530943 
L 398.487273 164.530943 
" clip-path="url(#p279a32f71e)" style="fill: none; stroke: #ff7f0e; stroke-width: 1.5; stroke-linecap: square"/>
   </g>
   <g id="patch_3">
    <path d="M 57.6 307.584 
L 57.6 41.472 
" style="fill: none; stroke: #000000; stroke-width: 0.8; stroke-linejoin: miter; stroke-linecap: square"/>
   </g>
   <g id="patch_4">
    <path d="M 414.72 307.584 
L 414.72 41.472 
" style="fill: none; stroke: #000000; stroke-width: 0.8; stroke-linejoin: miter; stroke-linecap: square"/>
   </g>
   <g id="patch_5">
    <path d="M 57.6 307.584 
L 414.72 307.584 
" style="fill: none; stroke: #000000; stroke-width: 0.8; stroke-linejoin: miter; stroke-linecap: square"/>
   </g>
   <g id="patch_6">
    <path d="M 57.6 41.472 
L 414.72 41.472 
" style="fill: none; stroke: #000000; stroke-width: 0.8; stroke-linejoin: miter; stroke-linecap: square"/>
   </g>
  </g>
 </g>
 <defs>
  <clipPath id="p279a32f71e">
   <rect x="57.6" y="41.472" width="357.12" height="266.112"/>
  </clipPath>
 </defs>
</svg>
