<?xml version="1.0" encoding="utf-8" standalone="no"?>
<!DOCTYPE svg PUBLIC "-//W3C//DTD SVG 1.1//EN"
  "http://www.w3.org/Graphics/SVG/1.1/DTD/svg11.dtd">
<svg xmlns:xlink="http://www.w3.org/1999/xlink" width="460.8pt" height="345.6pt" viewBox="0 0 460.8 345.6" xmlns="http://www.w3.org/2000/svg" version="1.1">
 <metadata>
  <rdf:RDF xmlns:dc="http://purl.org/dc/elements/1.1/" xmlns:cc="http://creativecommons.org/ns#" xmlns:rdf="http://www.w3.org/1999/02/22-rdf-syntax-ns#">
   <cc:Work>
    <dc:type rdf:resource="http://purl.org/dc/dcmitype/StillImage"/>
    <dc:date>2023-04-04T05:37:17.803817</dc:date>
    <dc:format>image/svg+xml</dc:format>
    <dc:creator>
     <cc:Agent>
      <dc:title>Matplotlib v3.5.2, https://matplotlib.org/</dc:title>
     </cc:Agent>
    </dc:creator>
   </cc:Work>
  </rdf:RDF>
 </metadata>
 <defs>
  <style type="text/css">*{stroke-linejoin: round; stroke-linecap: butt}</style>
 </defs>
 <g id="figure_1">
  <g id="patch_1">
   <path d="M 0 345.6 
L 460.8 345.6 
L 460.8 0 
L 0 0 
z
" style="fill: #ffffff"/>
  </g>
  <g id="axes_1">
   <g id="patch_2">
    <path d="M 57.6 307.584 
L 414.72 307.584 
L 414.72 41.472 
L 57.6 41.472 
z
" style="fill: #ffffff"/>
   </g>
   <g id="matplotlib.axis_1">
    <g id="xtick_1">
     <g id="line2d_1">
      <defs>
       <path id="m116a62c523" d="M 0 0 
L 0 3.5 
" style="stroke: #000000; stroke-width: 0.8"/>
      </defs>
      <g>
       <use xlink:href="#m116a62c523" x="73.832727" y="307.584" style="stroke: #000000; stroke-width: 0.8"/>
      </g>
     </g>
     <g id="text_1">
      <!-- 0 -->
      <g transform="translate(70.651477 322.182437)scale(0.1 -0.1)">
       <defs>
        <path id="DejaVuSans-30" d="M 2034 4250 
Q 1547 4250 1301 3770 
Q 1056 3291 1056 2328 
Q 1056 1369 1301 889 
Q 1547 409 2034 409 
Q 2525 409 2770 889 
Q 3016 1369 3016 2328 
Q 3016 3291 2770 3770 
Q 2525 4250 2034 4250 
z
M 2034 4750 
Q 2819 4750 3233 4129 
Q 3647 3509 3647 2328 
Q 3647 1150 3233 529 
Q 2819 -91 2034 -91 
Q 1250 -91 836 529 
Q 422 1150 422 2328 
Q 422 3509 836 4129 
Q 1250 4750 2034 4750 
z
" transform="scale(0.015625)"/>
       </defs>
       <use xlink:href="#DejaVuSans-30"/>
      </g>
     </g>
    </g>
    <g id="xtick_2">
     <g id="line2d_2">
      <g>
       <use xlink:href="#m116a62c523" x="141.076834" y="307.584" style="stroke: #000000; stroke-width: 0.8"/>
      </g>
     </g>
     <g id="text_2">
      <!-- 500 -->
      <g transform="translate(131.533084 322.182437)scale(0.1 -0.1)">
       <defs>
        <path id="DejaVuSans-35" d="M 691 4666 
L 3169 4666 
L 3169 4134 
L 1269 4134 
L 1269 2991 
Q 1406 3038 1543 3061 
Q 1681 3084 1819 3084 
Q 2600 3084 3056 2656 
Q 3513 2228 3513 1497 
Q 3513 744 3044 326 
Q 2575 -91 1722 -91 
Q 1428 -91 1123 -41 
Q 819 9 494 109 
L 494 744 
Q 775 591 1075 516 
Q 1375 441 1709 441 
Q 2250 441 2565 725 
Q 2881 1009 2881 1497 
Q 2881 1984 2565 2268 
Q 2250 2553 1709 2553 
Q 1456 2553 1204 2497 
Q 953 2441 691 2322 
L 691 4666 
z
" transform="scale(0.015625)"/>
       </defs>
       <use xlink:href="#DejaVuSans-35"/>
       <use xlink:href="#DejaVuSans-30" x="63.623047"/>
       <use xlink:href="#DejaVuSans-30" x="127.246094"/>
      </g>
     </g>
    </g>
    <g id="xtick_3">
     <g id="line2d_3">
      <g>
       <use xlink:href="#m116a62c523" x="208.32094" y="307.584" style="stroke: #000000; stroke-width: 0.8"/>
      </g>
     </g>
     <g id="text_3">
      <!-- 1000 -->
      <g transform="translate(195.59594 322.182437)scale(0.1 -0.1)">
       <defs>
        <path id="DejaVuSans-31" d="M 794 531 
L 1825 531 
L 1825 4091 
L 703 3866 
L 703 4441 
L 1819 4666 
L 2450 4666 
L 2450 531 
L 3481 531 
L 3481 0 
L 794 0 
L 794 531 
z
" transform="scale(0.015625)"/>
       </defs>
       <use xlink:href="#DejaVuSans-31"/>
       <use xlink:href="#DejaVuSans-30" x="63.623047"/>
       <use xlink:href="#DejaVuSans-30" x="127.246094"/>
       <use xlink:href="#DejaVuSans-30" x="190.869141"/>
      </g>
     </g>
    </g>
    <g id="xtick_4">
     <g id="line2d_4">
      <g>
       <use xlink:href="#m116a62c523" x="275.565046" y="307.584" style="stroke: #000000; stroke-width: 0.8"/>
      </g>
     </g>
     <g id="text_4">
      <!-- 1500 -->
      <g transform="translate(262.840046 322.182437)scale(0.1 -0.1)">
       <use xlink:href="#DejaVuSans-31"/>
       <use xlink:href="#DejaVuSans-35" x="63.623047"/>
       <use xlink:href="#DejaVuSans-30" x="127.246094"/>
       <use xlink:href="#DejaVuSans-30" x="190.869141"/>
      </g>
     </g>
    </g>
    <g id="xtick_5">
     <g id="line2d_5">
      <g>
       <use xlink:href="#m116a62c523" x="342.809153" y="307.584" style="stroke: #000000; stroke-width: 0.8"/>
      </g>
     </g>
     <g id="text_5">
      <!-- 2000 -->
      <g transform="translate(330.084153 322.182437)scale(0.1 -0.1)">
       <defs>
        <path id="DejaVuSans-32" d="M 1228 531 
L 3431 531 
L 3431 0 
L 469 0 
L 469 531 
Q 828 903 1448 1529 
Q 2069 2156 2228 2338 
Q 2531 2678 2651 2914 
Q 2772 3150 2772 3378 
Q 2772 3750 2511 3984 
Q 2250 4219 1831 4219 
Q 1534 4219 1204 4116 
Q 875 4013 500 3803 
L 500 4441 
Q 881 4594 1212 4672 
Q 1544 4750 1819 4750 
Q 2544 4750 2975 4387 
Q 3406 4025 3406 3419 
Q 3406 3131 3298 2873 
Q 3191 2616 2906 2266 
Q 2828 2175 2409 1742 
Q 1991 1309 1228 531 
z
" transform="scale(0.015625)"/>
       </defs>
       <use xlink:href="#DejaVuSans-32"/>
       <use xlink:href="#DejaVuSans-30" x="63.623047"/>
       <use xlink:href="#DejaVuSans-30" x="127.246094"/>
       <use xlink:href="#DejaVuSans-30" x="190.869141"/>
      </g>
     </g>
    </g>
    <g id="xtick_6">
     <g id="line2d_6">
      <g>
       <use xlink:href="#m116a62c523" x="410.053259" y="307.584" style="stroke: #000000; stroke-width: 0.8"/>
      </g>
     </g>
     <g id="text_6">
      <!-- 2500 -->
      <g transform="translate(397.328259 322.182437)scale(0.1 -0.1)">
       <use xlink:href="#DejaVuSans-32"/>
       <use xlink:href="#DejaVuSans-35" x="63.623047"/>
       <use xlink:href="#DejaVuSans-30" x="127.246094"/>
       <use xlink:href="#DejaVuSans-30" x="190.869141"/>
      </g>
     </g>
    </g>
   </g>
   <g id="matplotlib.axis_2">
    <g id="ytick_1">
     <g id="line2d_7">
      <defs>
       <path id="m35e442308a" d="M 0 0 
L -3.5 0 
" style="stroke: #000000; stroke-width: 0.8"/>
      </defs>
      <g>
       <use xlink:href="#m35e442308a" x="57.6" y="277.356726" style="stroke: #000000; stroke-width: 0.8"/>
      </g>
     </g>
     <g id="text_7">
      <!-- 100 -->
      <g transform="translate(31.5125 281.155945)scale(0.1 -0.1)">
       <use xlink:href="#DejaVuSans-31"/>
       <use xlink:href="#DejaVuSans-30" x="63.623047"/>
       <use xlink:href="#DejaVuSans-30" x="127.246094"/>
      </g>
     </g>
    </g>
    <g id="ytick_2">
     <g id="line2d_8">
      <g>
       <use xlink:href="#m35e442308a" x="57.6" y="230.201516" style="stroke: #000000; stroke-width: 0.8"/>
      </g>
     </g>
     <g id="text_8">
      <!-- 200 -->
      <g transform="translate(31.5125 234.000735)scale(0.1 -0.1)">
       <use xlink:href="#DejaVuSans-32"/>
       <use xlink:href="#DejaVuSans-30" x="63.623047"/>
       <use xlink:href="#DejaVuSans-30" x="127.246094"/>
      </g>
     </g>
    </g>
    <g id="ytick_3">
     <g id="line2d_9">
      <g>
       <use xlink:href="#m35e442308a" x="57.6" y="183.046305" style="stroke: #000000; stroke-width: 0.8"/>
      </g>
     </g>
     <g id="text_9">
      <!-- 300 -->
      <g transform="translate(31.5125 186.845524)scale(0.1 -0.1)">
       <defs>
        <path id="DejaVuSans-33" d="M 2597 2516 
Q 3050 2419 3304 2112 
Q 3559 1806 3559 1356 
Q 3559 666 3084 287 
Q 2609 -91 1734 -91 
Q 1441 -91 1130 -33 
Q 819 25 488 141 
L 488 750 
Q 750 597 1062 519 
Q 1375 441 1716 441 
Q 2309 441 2620 675 
Q 2931 909 2931 1356 
Q 2931 1769 2642 2001 
Q 2353 2234 1838 2234 
L 1294 2234 
L 1294 2753 
L 1863 2753 
Q 2328 2753 2575 2939 
Q 2822 3125 2822 3475 
Q 2822 3834 2567 4026 
Q 2313 4219 1838 4219 
Q 1578 4219 1281 4162 
Q 984 4106 628 3988 
L 628 4550 
Q 988 4650 1302 4700 
Q 1616 4750 1894 4750 
Q 2613 4750 3031 4423 
Q 3450 4097 3450 3541 
Q 3450 3153 3228 2886 
Q 3006 2619 2597 2516 
z
" transform="scale(0.015625)"/>
       </defs>
       <use xlink:href="#DejaVuSans-33"/>
       <use xlink:href="#DejaVuSans-30" x="63.623047"/>
       <use xlink:href="#DejaVuSans-30" x="127.246094"/>
      </g>
     </g>
    </g>
    <g id="ytick_4">
     <g id="line2d_10">
      <g>
       <use xlink:href="#m35e442308a" x="57.6" y="135.891095" style="stroke: #000000; stroke-width: 0.8"/>
      </g>
     </g>
     <g id="text_10">
      <!-- 400 -->
      <g transform="translate(31.5125 139.690314)scale(0.1 -0.1)">
       <defs>
        <path id="DejaVuSans-34" d="M 2419 4116 
L 825 1625 
L 2419 1625 
L 2419 4116 
z
M 2253 4666 
L 3047 4666 
L 3047 1625 
L 3713 1625 
L 3713 1100 
L 3047 1100 
L 3047 0 
L 2419 0 
L 2419 1100 
L 313 1100 
L 313 1709 
L 2253 4666 
z
" transform="scale(0.015625)"/>
       </defs>
       <use xlink:href="#DejaVuSans-34"/>
       <use xlink:href="#DejaVuSans-30" x="63.623047"/>
       <use xlink:href="#DejaVuSans-30" x="127.246094"/>
      </g>
     </g>
    </g>
    <g id="ytick_5">
     <g id="line2d_11">
      <g>
       <use xlink:href="#m35e442308a" x="57.6" y="88.735884" style="stroke: #000000; stroke-width: 0.8"/>
      </g>
     </g>
     <g id="text_11">
      <!-- 500 -->
      <g transform="translate(31.5125 92.535103)scale(0.1 -0.1)">
       <use xlink:href="#DejaVuSans-35"/>
       <use xlink:href="#DejaVuSans-30" x="63.623047"/>
       <use xlink:href="#DejaVuSans-30" x="127.246094"/>
      </g>
     </g>
    </g>
    <g id="ytick_6">
     <g id="line2d_12">
      <g>
       <use xlink:href="#m35e442308a" x="57.6" y="41.580674" style="stroke: #000000; stroke-width: 0.8"/>
      </g>
     </g>
     <g id="text_12">
      <!-- 600 -->
      <g transform="translate(31.5125 45.379893)scale(0.1 -0.1)">
       <defs>
        <path id="DejaVuSans-36" d="M 2113 2584 
Q 1688 2584 1439 2293 
Q 1191 2003 1191 1497 
Q 1191 994 1439 701 
Q 1688 409 2113 409 
Q 2538 409 2786 701 
Q 3034 994 3034 1497 
Q 3034 2003 2786 2293 
Q 2538 2584 2113 2584 
z
M 3366 4563 
L 3366 3988 
Q 3128 4100 2886 4159 
Q 2644 4219 2406 4219 
Q 1781 4219 1451 3797 
Q 1122 3375 1075 2522 
Q 1259 2794 1537 2939 
Q 1816 3084 2150 3084 
Q 2853 3084 3261 2657 
Q 3669 2231 3669 1497 
Q 3669 778 3244 343 
Q 2819 -91 2113 -91 
Q 1303 -91 875 529 
Q 447 1150 447 2328 
Q 447 3434 972 4092 
Q 1497 4750 2381 4750 
Q 2619 4750 2861 4703 
Q 3103 4656 3366 4563 
z
" transform="scale(0.015625)"/>
       </defs>
       <use xlink:href="#DejaVuSans-36"/>
       <use xlink:href="#DejaVuSans-30" x="63.623047"/>
       <use xlink:href="#DejaVuSans-30" x="127.246094"/>
      </g>
     </g>
    </g>
   </g>
   <g id="line2d_13">
    <path d="M 73.832727 280.385977 
L 74.101704 279.844164 
L 74.236192 278.748748 
L 74.37068 279.699397 
L 74.505168 279.213699 
L 74.639657 279.807383 
L 74.774145 273.424453 
L 74.908633 246.680847 
L 75.177609 245.20819 
L 75.312098 245.756134 
L 75.446586 245.808004 
L 75.581074 246.662928 
L 75.715562 245.916933 
L 75.85005 245.895242 
L 76.253515 240.977896 
L 76.522492 274.570797 
L 76.65698 274.879663 
L 76.925956 273.196222 
L 77.060444 264.461191 
L 77.194933 266.674185 
L 77.463909 266.736901 
L 77.598397 268.299625 
L 77.732885 263.046063 
L 77.867374 249.821856 
L 78.405327 103.418602 
L 78.674303 102.50945 
L 78.808791 109.550194 
L 78.943279 104.812982 
L 79.481232 156.79217 
L 79.750209 226.207941 
L 80.019185 260.455827 
L 80.153673 262.550933 
L 80.288161 258.768614 
L 80.42265 269.022515 
L 80.557138 268.593874 
L 80.826114 271.067164 
L 80.960603 268.561808 
L 81.095091 258.389015 
L 81.364067 166.840474 
L 81.498555 178.973038 
L 81.767532 159.833682 
L 82.036508 167.726992 
L 82.170996 164.668505 
L 82.305485 158.775519 
L 83.112414 257.917462 
L 83.650367 283.742957 
L 83.784855 283.763233 
L 83.919343 285.270785 
L 84.053831 285.460349 
L 84.18832 283.392122 
L 84.322808 276.266498 
L 84.726273 187.36808 
L 84.860761 178.82167 
L 84.995249 182.861929 
L 85.129737 168.183926 
L 85.264225 176.608676 
L 85.398714 177.345712 
L 85.66769 185.528084 
L 85.802178 194.177764 
L 86.340131 260.013983 
L 86.474619 261.999217 
L 86.609107 266.842058 
L 86.878084 284.119727 
L 87.012572 286.339794 
L 87.14706 286.017724 
L 87.281549 287.488023 
L 87.416037 287.392298 
L 87.550525 286.592074 
L 87.819501 259.46604 
L 87.95399 259.609863 
L 88.088478 254.001694 
L 88.222966 255.441342 
L 88.357454 254.693932 
L 88.491942 251.38175 
L 88.626431 254.177583 
L 88.760919 247.279719 
L 88.895407 250.117519 
L 89.029895 250.116104 
L 89.164384 252.641738 
L 89.43336 273.649855 
L 89.567848 275.290385 
L 89.702336 274.799028 
L 89.836825 275.844459 
L 89.971313 260.90333 
L 90.105801 261.606886 
L 90.240289 263.129999 
L 90.374777 262.902711 
L 90.509266 264.121674 
L 90.643754 264.290961 
L 90.778242 266.361546 
L 90.91273 263.182813 
L 91.047218 253.38066 
L 91.181707 252.225829 
L 91.316195 245.389738 
L 91.450683 249.763383 
L 91.585171 247.824361 
L 91.71966 249.302206 
L 91.854148 249.52525 
L 92.123124 252.467263 
L 92.257612 251.902344 
L 92.526589 257.420918 
L 92.795565 263.927866 
L 92.930053 264.870027 
L 93.064542 263.744903 
L 93.19903 273.626749 
L 93.468006 273.749824 
L 93.602495 274.796199 
L 93.736983 273.578651 
L 93.871471 271.089327 
L 94.005959 265.939978 
L 94.6784 160.117084 
L 94.812888 155.777862 
L 95.081865 167.481314 
L 95.216353 162.333379 
L 95.350841 151.215124 
L 96.023282 262.321759 
L 96.157771 263.041819 
L 96.426747 266.917977 
L 96.561235 266.588834 
L 96.695723 266.665226 
L 96.830212 268.523612 
L 96.9647 267.89409 
L 97.099188 266.485093 
L 97.233676 258.126832 
L 97.368164 240.79069 
L 97.502653 200.298039 
L 97.637141 193.293604 
L 97.771629 178.020503 
L 97.906117 186.308031 
L 98.040606 179.68131 
L 98.175094 180.382036 
L 98.309582 175.131303 
L 98.44407 176.752499 
L 98.713047 187.97544 
L 98.982023 229.38243 
L 99.250999 263.784514 
L 99.385488 268.410911 
L 99.519976 269.155492 
L 99.654464 278.835042 
L 99.788952 278.847303 
L 99.923441 277.858929 
L 100.192417 279.081192 
L 100.326905 279.160885 
L 100.461393 278.514387 
L 100.595882 278.915206 
L 100.73037 279.733349 
L 100.864858 278.21448 
L 100.999346 279.355636 
L 101.133834 278.459215 
L 101.268323 276.272157 
L 101.402811 269.336568 
L 101.537299 273.55413 
L 101.806276 263.300701 
L 101.940764 265.434003 
L 102.075252 265.28735 
L 102.20974 265.927247 
L 102.344228 268.275576 
L 102.478717 274.019552 
L 102.613205 272.190873 
L 102.747693 277.788668 
L 102.882181 264.502688 
L 103.016669 264.530981 
L 103.151158 269.374764 
L 103.285646 269.158322 
L 103.554622 265.030826 
L 103.68911 260.895786 
L 103.823599 243.69215 
L 104.092575 182.217788 
L 104.227063 161.008318 
L 104.361552 168.081599 
L 104.630528 143.524109 
L 105.033993 158.646313 
L 105.168481 169.288773 
L 105.706434 251.294042 
L 105.840922 251.173324 
L 105.97541 259.761231 
L 106.109898 275.984038 
L 106.378875 279.132592 
L 106.513363 279.118917 
L 106.647851 281.248446 
L 106.782339 280.983434 
L 106.916828 282.080735 
L 107.320292 244.987975 
L 107.45478 251.961759 
L 107.589269 249.460175 
L 107.723757 249.551657 
L 108.26171 244.553204 
L 108.396198 241.189623 
L 108.530686 243.420536 
L 108.934151 274.627383 
L 109.068639 276.123146 
L 109.203127 275.069699 
L 109.337615 270.63145 
L 109.606592 272.160222 
L 109.875568 273.199052 
L 110.144545 274.23458 
L 110.413521 273.012788 
L 110.548009 272.879811 
L 110.951474 268.882464 
L 111.085962 270.040596 
L 111.22045 269.697777 
L 111.623915 263.97785 
L 111.758403 264.47911 
L 112.02738 268.210973 
L 112.430844 269.787372 
L 112.565333 259.681539 
L 112.834309 263.825539 
L 112.968797 264.341888 
L 113.103285 265.830578 
L 113.237774 266.006467 
L 113.50675 268.587744 
L 113.641238 269.406358 
L 114.313679 258.329127 
L 114.448168 257.973106 
L 114.582656 256.511766 
L 114.98612 245.833468 
L 115.524073 256.739525 
L 115.658561 257.28181 
L 115.927538 259.475942 
L 116.062026 258.210296 
L 116.196514 264.220699 
L 116.331002 263.809506 
L 116.465491 264.411678 
L 116.599979 254.796259 
L 117.137932 78.752655 
L 117.406908 64.267989 
L 117.810373 80.562943 
L 118.213837 146.770274 
L 118.482814 208.188049 
L 118.75179 242.111507 
L 118.886279 243.622832 
L 119.289743 251.498695 
L 119.424231 252.895904 
L 119.55872 255.626191 
L 119.693208 255.938358 
L 119.827696 246.464405 
L 120.365649 91.420431 
L 120.634625 73.127981 
L 120.769114 76.765063 
L 120.903602 70.440134 
L 121.03809 71.748691 
L 121.441555 134.245378 
L 121.710531 200.091971 
L 121.845019 227.856959 
L 122.248484 238.660218 
L 122.51746 253.947465 
L 122.651948 254.104492 
L 122.786437 255.817641 
L 122.920925 254.496823 
L 123.055413 246.456389 
L 123.727854 60.369668 
L 123.862342 53.568 
L 124.534783 106.902429 
L 125.072736 245.767922 
L 125.207225 250.862571 
L 125.341713 251.319034 
L 125.476201 251.273293 
L 125.745177 264.672446 
L 125.879666 266.088046 
L 126.014154 266.314391 
L 126.28313 253.061419 
L 126.821083 92.509716 
L 126.955571 74.428994 
L 127.09006 80.929811 
L 127.359036 105.105816 
L 127.493524 107.512618 
L 127.762501 125.737163 
L 127.896989 148.203792 
L 128.300453 244.174076 
L 128.434942 249.890703 
L 128.56943 248.090317 
L 128.703918 255.480953 
L 128.838406 256.194411 
L 129.241871 262.789067 
L 129.510847 242.383121 
L 130.0488 83.071601 
L 130.183288 74.097021 
L 130.317777 85.840083 
L 130.452265 114.23978 
L 130.586753 113.334872 
L 130.721241 109.741173 
L 130.855729 116.037337 
L 131.124706 168.526745 
L 131.393682 233.206246 
L 131.662659 255.967595 
L 131.931635 255.774258 
L 132.066123 255.594597 
L 132.3351 266.700592 
L 132.469588 266.554411 
L 132.604076 266.652022 
L 132.738564 266.610997 
L 133.007541 254.894813 
L 133.276517 244.589042 
L 133.679982 239.093102 
L 133.81447 237.928369 
L 133.948958 232.904453 
L 134.486911 242.635873 
L 134.755888 249.618145 
L 134.890376 249.504973 
L 135.697305 263.53742 
L 135.831793 268.217575 
L 135.966282 268.817861 
L 136.10077 266.864692 
L 136.235258 268.345837 
L 136.369746 268.075638 
L 136.504234 263.839685 
L 136.638723 263.68313 
L 136.907699 261.777116 
L 137.311164 251.055436 
L 137.445652 251.557639 
L 137.58014 248.915061 
L 137.983605 255.627134 
L 138.118093 254.73873 
L 138.252581 256.546189 
L 138.387069 260.971234 
L 138.521558 259.756516 
L 138.656046 259.954568 
L 138.925022 264.580022 
L 139.193999 248.577901 
L 139.731951 81.245279 
L 139.86644 72.460735 
L 140.269904 98.084405 
L 140.538881 122.149123 
L 140.673369 129.134696 
L 140.807857 143.281731 
L 141.076834 222.202578 
L 141.480298 254.899529 
L 142.018251 263.212993 
L 142.152739 262.756059 
L 142.421716 239.37179 
L 142.959669 91.095531 
L 143.094157 83.789303 
L 143.228645 83.308791 
L 143.363133 93.38303 
L 143.497621 84.246237 
L 143.63211 89.297031 
L 144.573527 256.128865 
L 144.708015 259.566952 
L 144.842504 259.740011 
L 145.11148 261.949233 
L 145.245968 264.060843 
L 145.380456 260.043219 
L 145.783921 199.780275 
L 146.052897 109.44268 
L 146.187386 90.604174 
L 146.456362 105.691483 
L 146.59085 116.84652 
L 146.725339 111.239766 
L 146.859827 118.544579 
L 146.994315 113.541883 
L 147.128803 126.212488 
L 147.532268 231.909478 
L 147.801244 257.545408 
L 147.935732 257.744874 
L 148.204709 262.940435 
L 148.339197 262.919216 
L 148.473685 263.41576 
L 148.742662 262.377402 
L 148.87715 244.941763 
L 149.280615 118.410658 
L 149.415103 114.427929 
L 149.549591 105.472212 
L 149.684079 106.710508 
L 150.087544 138.967972 
L 150.222032 131.382114 
L 150.35652 136.825711 
L 150.894473 250.070835 
L 151.028961 259.116148 
L 151.16345 258.171629 
L 151.835891 266.234227 
L 151.970379 264.979427 
L 152.104867 244.318843 
L 152.508332 112.48372 
L 152.64282 115.549752 
L 152.911796 103.859504 
L 153.046285 117.814145 
L 153.180773 116.333943 
L 153.449749 150.33285 
L 153.718726 190.716572 
L 153.987702 246.562488 
L 154.12219 263.378979 
L 154.256678 264.738935 
L 154.525655 268.548133 
L 154.794631 270.228745 
L 155.063608 273.133034 
L 155.198096 274.752344 
L 155.332584 274.117635 
L 155.467072 269.796803 
L 155.601561 259.464625 
L 155.736049 258.61536 
L 155.870537 255.789348 
L 156.005025 257.899072 
L 156.274002 256.027953 
L 156.40849 256.557035 
L 156.542978 257.793444 
L 156.677466 256.613149 
L 157.215419 264.51259 
L 157.349907 266.491223 
L 157.484396 265.512752 
L 157.618884 266.272423 
L 157.88786 269.404943 
L 158.022348 269.879325 
L 158.291325 272.837371 
L 158.560301 277.06012 
L 158.694789 275.515315 
L 158.829278 276.466436 
L 158.963766 276.075519 
L 159.232742 273.398518 
L 159.367231 273.676734 
L 159.501719 271.720264 
L 160.039672 257.829754 
L 160.308648 258.085335 
L 160.443136 263.726041 
L 160.577624 263.446411 
L 160.712113 261.517763 
L 160.846601 262.210001 
L 160.981089 263.681715 
L 161.250066 267.387172 
L 161.519042 268.325561 
L 161.788018 251.791058 
L 162.460459 83.491753 
L 162.594948 83.159781 
L 162.729436 81.720604 
L 162.998412 101.043394 
L 163.132901 109.866134 
L 163.401877 150.567683 
L 163.670853 220.329573 
L 164.074318 253.952652 
L 164.208806 255.070231 
L 164.477783 267.552215 
L 164.612271 269.881211 
L 164.746759 265.243496 
L 165.015735 247.974315 
L 165.4192 120.001204 
L 165.553688 122.564561 
L 165.822665 108.862671 
L 165.957153 114.045972 
L 166.091641 111.003518 
L 166.360618 99.707016 
L 166.495106 105.815502 
L 166.89857 219.442583 
L 167.033059 226.318284 
L 167.302035 244.45465 
L 167.974476 262.664578 
L 168.108964 257.06914 
L 168.243453 243.250306 
L 168.377941 205.698725 
L 168.646917 105.643857 
L 168.781405 106.909031 
L 168.915894 102.44579 
L 169.050382 103.727941 
L 169.18487 107.471121 
L 169.319358 92.355047 
L 169.453847 94.799101 
L 169.857311 147.437991 
L 170.126288 224.556094 
L 170.395264 254.946213 
L 170.529752 255.813869 
L 170.66424 259.203385 
L 170.798729 259.39012 
L 171.067705 261.685164 
L 171.202193 264.480525 
L 171.47117 242.993781 
L 172.009123 109.650163 
L 172.143611 108.095456 
L 172.412587 96.500461 
L 172.95054 128.552801 
L 173.622981 256.888536 
L 173.757469 260.822695 
L 173.891958 274.018138 
L 174.026446 273.101912 
L 174.160934 273.058529 
L 174.42991 274.568439 
L 174.698887 259.981446 
L 174.833375 243.09375 
L 175.102351 175.517033 
L 175.371328 142.603168 
L 175.505816 139.743204 
L 175.640304 149.769816 
L 175.774792 149.463779 
L 175.909281 150.853443 
L 176.043769 155.594428 
L 176.178257 155.290749 
L 176.312745 169.566517 
L 176.581722 236.303872 
L 176.850698 263.06021 
L 176.985186 260.600122 
L 177.254163 265.270374 
L 177.388651 265.227463 
L 177.792116 271.697158 
L 177.926604 272.57566 
L 178.19558 262.004876 
L 178.330069 261.570577 
L 178.599045 254.105907 
L 178.733533 253.548061 
L 178.868021 255.825186 
L 179.136998 252.362107 
L 179.271486 252.950133 
L 179.540462 250.49759 
L 179.809439 257.903787 
L 179.943927 265.07751 
L 180.212904 263.201204 
L 180.48188 272.937812 
L 180.616368 272.951487 
L 180.750856 273.318826 
L 180.885345 274.139326 
L 181.019833 274.224677 
L 181.692274 262.076552 
L 181.826762 263.355401 
L 181.96125 257.450154 
L 182.095738 259.209044 
L 182.364715 264.57625 
L 182.499203 265.837652 
L 182.633691 268.944237 
L 182.902668 268.13694 
L 183.171644 274.187896 
L 183.306132 275.585577 
L 183.440621 274.490161 
L 183.575109 272.218223 
L 183.844085 283.7986 
L 183.978573 284.73746 
L 184.113062 282.488156 
L 184.382038 271.250127 
L 184.919991 180.712594 
L 185.054479 184.67599 
L 185.188967 177.695132 
L 185.457944 181.505273 
L 185.592432 182.985004 
L 185.995897 220.24988 
L 186.264873 250.449963 
L 186.53385 266.002223 
L 186.802826 276.123146 
L 187.071802 286.484089 
L 187.206291 285.348592 
L 187.340779 286.468056 
L 187.475267 283.331763 
L 187.609755 275.437038 
L 188.01322 200.511652 
L 188.147708 184.324683 
L 188.282196 184.540654 
L 188.416684 183.594721 
L 188.551173 186.863991 
L 188.685661 193.182789 
L 188.820149 188.828006 
L 188.954637 193.205896 
L 189.089126 201.470318 
L 189.627078 262.670708 
L 189.761567 265.226049 
L 189.896055 270.39426 
L 190.030543 267.989815 
L 190.299519 269.797746 
L 190.434008 268.6415 
L 190.971961 272.022057 
L 191.106449 268.61415 
L 191.240937 268.135053 
L 191.375425 268.567938 
L 191.509913 264.196179 
L 191.644402 265.725422 
L 191.913378 264.475809 
L 192.182354 258.911966 
L 192.316843 259.256199 
L 192.451331 258.76437 
L 192.585819 260.068212 
L 192.720307 265.764089 
L 192.989284 267.005686 
L 193.392748 264.352734 
L 193.661725 267.198079 
L 193.796213 267.725746 
L 194.065189 259.939478 
L 194.603142 157.516003 
L 194.73763 152.667033 
L 194.872119 142.842245 
L 195.006607 144.397895 
L 195.141095 149.08135 
L 195.275583 141.777008 
L 195.54456 154.999801 
L 195.948024 247.828134 
L 196.217001 258.032993 
L 196.351489 259.935234 
L 196.485977 269.287998 
L 196.620465 268.643858 
L 196.889442 269.193688 
L 197.02393 270.307966 
L 197.158418 268.600004 
L 197.292907 262.35854 
L 197.830859 194.512566 
L 197.965348 196.794879 
L 198.099836 193.519006 
L 198.234324 197.867188 
L 198.5033 184.710413 
L 198.772277 198.335911 
L 199.31023 269.955716 
L 199.713694 278.95293 
L 199.848183 277.799042 
L 200.117159 278.517688 
L 200.251647 276.756912 
L 200.386135 271.051132 
L 200.520624 270.653142 
L 200.655112 257.85899 
L 200.7896 211.233333 
L 200.924088 209.28818 
L 201.058576 197.752129 
L 201.193065 197.398465 
L 201.327553 194.747399 
L 201.462041 196.89249 
L 201.731018 185.241852 
L 201.865506 186.585776 
L 202.134482 208.993932 
L 202.403459 261.79032 
L 202.806923 271.465154 
L 203.0759 263.100763 
L 203.210388 267.373025 
L 203.344876 267.497515 
L 203.748341 258.239533 
L 203.882829 241.072207 
L 204.151805 179.894923 
L 204.420782 163.631091 
L 204.55527 158.073378 
L 204.689758 161.466666 
L 204.824246 155.049314 
L 204.958735 170.870359 
L 205.093223 171.113679 
L 205.765664 257.666125 
L 205.900152 258.170686 
L 206.03464 261.922826 
L 206.169129 276.584324 
L 206.303617 277.059177 
L 206.572593 280.948067 
L 206.84157 281.749234 
L 207.110546 272.479463 
L 207.379522 263.412459 
L 207.514011 262.545746 
L 207.917475 270.561189 
L 208.051964 270.317868 
L 208.32094 264.037266 
L 208.589916 265.618851 
L 208.858893 273.568748 
L 208.993381 277.176122 
L 209.127869 277.752359 
L 209.262357 277.215261 
L 209.396846 271.434504 
L 209.531334 272.51813 
L 209.80031 272.108352 
L 209.934799 273.086822 
L 210.203775 261.059414 
L 211.010704 107.891746 
L 211.279681 133.190516 
L 211.683145 165.873792 
L 212.221098 252.407848 
L 212.355586 254.840585 
L 212.759051 269.889227 
L 212.893539 269.684574 
L 213.028027 269.7836 
L 213.162516 272.399299 
L 213.431492 254.918391 
L 213.56598 217.317298 
L 213.834957 134.453333 
L 213.969445 138.981176 
L 214.103933 137.903679 
L 214.238421 140.827774 
L 214.910862 178.667944 
L 215.448815 257.95613 
L 215.583303 262.860272 
L 215.717792 263.47046 
L 216.121256 267.680006 
L 216.255745 268.625468 
L 216.390233 270.986529 
L 216.524721 267.027849 
L 216.659209 259.602318 
L 217.062674 147.920861 
L 217.197162 149.809427 
L 217.33165 149.889119 
L 217.466138 161.212971 
L 217.600627 159.944968 
L 217.735115 148.235857 
L 217.869603 153.402182 
L 218.273068 195.074657 
L 218.542044 253.172234 
L 218.811021 269.764266 
L 218.945509 262.436346 
L 219.483462 273.025049 
L 219.61795 274.801386 
L 219.886926 261.21927 
L 220.290391 160.877226 
L 220.693856 149.359566 
L 220.828344 159.893097 
L 220.962832 156.02024 
L 221.231808 182.842123 
L 221.500785 196.538354 
L 221.769761 253.03737 
L 222.038738 268.479287 
L 222.173226 267.735649 
L 222.307714 268.945652 
L 222.576691 274.922574 
L 222.845667 277.529315 
L 222.980155 275.877467 
L 223.114643 277.727838 
L 223.38362 257.426577 
L 223.518108 261.244263 
L 223.652596 261.089593 
L 223.921573 254.212478 
L 224.190549 253.548061 
L 224.325037 256.007205 
L 224.459525 255.386171 
L 224.728502 251.5732 
L 225.131967 258.755882 
L 225.266455 257.287469 
L 225.535431 258.742207 
L 225.669919 257.444967 
L 226.073384 267.097167 
L 226.34236 270.092466 
L 226.476849 270.021262 
L 226.745825 266.911376 
L 226.880313 269.168696 
L 227.014802 269.409187 
L 227.14929 269.11541 
L 227.283778 267.7116 
L 227.418266 269.370048 
L 227.552754 269.497368 
L 227.687243 269.329967 
L 227.956219 268.233136 
L 228.090707 273.986072 
L 228.225195 274.024739 
L 228.359684 275.114496 
L 228.494172 274.35011 
L 228.62866 275.310662 
L 228.763148 275.197489 
L 228.897637 272.934039 
L 229.301101 273.828102 
L 229.435589 267.68142 
L 229.570078 253.749885 
L 230.242519 94.055464 
L 230.377007 79.378404 
L 230.511495 109.035259 
L 230.780471 116.900749 
L 231.049448 144.073939 
L 231.587401 251.614697 
L 231.856377 262.71692 
L 232.125354 267.479596 
L 232.39433 272.086189 
L 232.528818 271.281249 
L 232.797795 254.361488 
L 232.932283 218.48156 
L 233.201259 132.262501 
L 233.335748 124.174911 
L 233.470236 134.360437 
L 233.604724 134.58018 
L 233.739212 147.234281 
L 233.8737 132.656248 
L 234.008189 139.306547 
L 234.815118 262.141626 
L 234.949606 261.878029 
L 235.218583 267.718201 
L 235.622047 275.372435 
L 235.756535 274.781109 
L 236.025512 262.2614 
L 236.563465 128.151982 
L 236.832441 116.072232 
L 237.63937 198.861691 
L 237.908347 256.30664 
L 238.177323 264.307937 
L 238.849764 279.064688 
L 238.984252 278.248903 
L 239.118741 274.491576 
L 239.253229 260.741588 
L 239.791182 127.390425 
L 240.194646 144.933578 
L 240.463623 163.853192 
L 240.732599 177.164164 
L 241.270552 253.802227 
L 241.674017 259.614107 
L 241.942993 272.417218 
L 242.077481 278.84636 
L 242.21197 278.227212 
L 242.480946 260.453941 
L 242.884411 149.924486 
L 243.018899 157.711225 
L 243.153387 155.4888 
L 243.287875 144.629427 
L 243.422363 152.523681 
L 243.556852 149.742466 
L 243.825828 166.202464 
L 244.229293 237.411076 
L 244.498269 259.55422 
L 244.767246 264.770058 
L 245.17071 272.542179 
L 245.305198 273.397575 
L 245.439687 273.105213 
L 245.574175 271.890023 
L 245.708663 260.559569 
L 245.843151 265.947995 
L 246.112128 262.998908 
L 246.381104 257.876909 
L 246.515592 257.8439 
L 247.188033 267.973311 
L 247.322522 268.37413 
L 247.45701 269.231412 
L 247.591498 268.881049 
L 247.725986 272.008854 
L 247.860475 270.587124 
L 248.129451 271.895682 
L 248.263939 271.022367 
L 248.398427 271.697158 
L 248.532916 271.54579 
L 248.667404 273.468779 
L 248.801892 273.371168 
L 249.205357 274.892395 
L 249.339845 275.007454 
L 249.608821 274.070008 
L 249.743309 274.200157 
L 249.877798 273.90355 
L 250.550239 270.774331 
L 250.819215 271.070937 
L 250.953703 271.84051 
L 251.088192 270.717744 
L 251.357168 271.960756 
L 251.491656 280.754259 
L 251.626144 280.270447 
L 251.760633 280.695787 
L 251.895121 280.537817 
L 252.164097 268.438733 
L 252.70205 142.541394 
L 252.836538 162.041488 
L 252.971027 158.638297 
L 253.240003 171.39331 
L 253.374491 172.73016 
L 253.508979 169.839546 
L 253.777956 202.268184 
L 254.046932 253.013321 
L 254.315909 274.085569 
L 254.719373 282.341032 
L 254.853862 282.103841 
L 255.122838 283.816519 
L 255.391814 263.299287 
L 255.660791 171.186298 
L 255.795279 174.592319 
L 256.198744 159.10702 
L 256.333232 162.736556 
L 256.46772 160.103881 
L 256.602208 161.28559 
L 257.409138 255.228201 
L 257.812602 262.610349 
L 258.081579 277.634942 
L 258.216067 278.686032 
L 258.350555 277.9655 
L 258.619532 263.964647 
L 258.888508 175.932942 
L 259.022996 176.791638 
L 259.157484 167.847238 
L 259.291973 167.278546 
L 259.426461 151.97951 
L 259.695437 165.515413 
L 259.829925 154.517403 
L 259.964414 163.481609 
L 260.771343 258.261696 
L 261.040319 260.473275 
L 261.309296 267.882302 
L 261.443784 271.057733 
L 261.71276 268.178436 
L 261.847249 255.936001 
L 262.116225 168.835611 
L 262.250713 172.952733 
L 262.654178 146.840535 
L 262.788666 154.053396 
L 262.923154 149.340704 
L 263.326619 184.067216 
L 263.461107 194.834165 
L 263.864572 243.023018 
L 264.268036 260.849102 
L 264.402525 260.100749 
L 264.671501 263.489322 
L 264.805989 263.364832 
L 264.940478 262.425501 
L 265.074966 254.94857 
L 265.209454 236.062437 
L 265.612919 123.143627 
L 265.881895 105.249639 
L 266.016383 114.636827 
L 266.150871 114.507622 
L 266.28536 114.064834 
L 266.419848 118.640304 
L 266.688824 155.465223 
L 266.957801 233.326963 
L 267.226777 249.791677 
L 267.361265 248.386451 
L 267.495754 264.557388 
L 267.630242 264.24522 
L 267.76473 266.091818 
L 267.899218 266.39927 
L 268.168195 272.841615 
L 268.302683 273.715873 
L 268.437171 271.185052 
L 268.706147 273.69088 
L 268.975124 270.238176 
L 269.2441 268.376017 
L 269.916541 254.056865 
L 270.320006 255.92374 
L 270.588982 260.751962 
L 270.723471 274.680668 
L 270.857959 275.70818 
L 270.992447 274.247783 
L 271.126935 275.120626 
L 271.261424 275.149863 
L 271.395912 274.965957 
L 271.799376 277.710391 
L 271.933865 276.341475 
L 272.068353 276.69231 
L 272.202841 276.055243 
L 272.337329 276.288661 
L 272.471817 275.455428 
L 272.606306 273.315525 
L 272.740794 274.583057 
L 272.875282 274.264288 
L 273.00977 273.595155 
L 273.144258 271.288322 
L 273.278747 271.189768 
L 273.547723 274.133196 
L 273.682211 274.344923 
L 273.8167 275.020657 
L 273.951188 274.169034 
L 274.085676 284.695492 
L 274.354652 286.309143 
L 274.489141 284.755379 
L 274.758117 270.204224 
L 275.29607 164.905224 
L 275.565046 152.805197 
L 275.699535 153.138585 
L 275.834023 170.89205 
L 275.968511 173.148427 
L 276.102999 183.191543 
L 276.77544 261.624805 
L 277.447881 278.832213 
L 277.58237 282.191079 
L 277.716858 281.804406 
L 277.851346 277.454809 
L 277.985834 267.581923 
L 278.389299 207.744318 
L 278.523787 188.474342 
L 278.658275 186.498067 
L 278.792763 177.087773 
L 278.927252 189.084059 
L 279.06174 183.327822 
L 279.196228 185.395578 
L 279.330716 193.006429 
L 280.137646 271.883421 
L 280.272134 274.243539 
L 280.406622 265.979117 
L 280.54111 265.698072 
L 280.810087 266.856204 
L 280.944575 266.239886 
L 281.213551 258.407877 
L 281.348039 229.775704 
L 281.482528 160.082661 
L 281.617016 149.985787 
L 281.751504 126.842482 
L 281.885992 127.981751 
L 282.154969 141.344123 
L 282.289457 123.425143 
L 282.423945 127.468703 
L 282.558433 136.479592 
L 282.82741 184.397774 
L 283.096386 252.20791 
L 283.365363 258.765785 
L 283.499851 260.949071 
L 283.634339 260.285126 
L 283.768827 260.2955 
L 283.903316 260.482706 
L 284.037804 261.773344 
L 284.172292 261.901135 
L 284.441268 256.764046 
L 285.113709 142.738032 
L 285.248198 141.673738 
L 285.382686 137.185977 
L 285.517174 146.327486 
L 285.651662 143.26004 
L 285.78615 146.71133 
L 286.055127 199.264869 
L 286.324103 248.302987 
L 286.59308 257.875966 
L 286.727568 257.75572 
L 286.862056 276.488127 
L 286.996544 276.5466 
L 287.131033 275.579447 
L 287.265521 276.178318 
L 287.668985 272.690247 
L 287.803474 273.557903 
L 288.07245 272.692605 
L 288.206938 270.545156 
L 288.341427 270.490456 
L 288.475915 268.169948 
L 288.610403 267.803081 
L 288.744891 266.691632 
L 288.879379 269.488408 
L 289.013868 269.824153 
L 289.148356 267.044825 
L 289.417332 274.119993 
L 289.55182 275.293686 
L 289.820797 274.936249 
L 289.955285 275.717611 
L 290.089773 274.235052 
L 290.224262 275.764767 
L 290.35875 274.867874 
L 290.493238 275.836914 
L 290.627726 274.312386 
L 291.031191 256.535343 
L 291.300167 191.090041 
L 291.434655 185.568166 
L 291.569144 186.168923 
L 291.703632 190.186547 
L 291.972608 177.584317 
L 292.376073 190.517577 
L 293.048514 266.05598 
L 293.183002 267.288617 
L 293.31749 266.149819 
L 293.451979 266.892985 
L 293.586467 265.97393 
L 293.720955 268.421286 
L 293.855443 268.681582 
L 294.258908 245.029 
L 294.527884 187.691094 
L 294.796861 156.364473 
L 294.931349 140.673576 
L 295.065837 140.54107 
L 295.200325 148.423535 
L 295.334814 142.767739 
L 295.60379 170.510093 
L 295.738278 184.837732 
L 296.141743 254.252088 
L 296.276231 253.372172 
L 296.410719 260.489779 
L 296.545208 277.968801 
L 296.948672 280.107761 
L 297.486625 282.050556 
L 297.621113 281.709152 
L 297.755601 281.70538 
L 298.024578 278.569558 
L 298.159066 278.42102 
L 298.428042 276.304694 
L 298.697019 272.524732 
L 298.831507 271.40291 
L 298.965995 271.262387 
L 299.100484 271.613693 
L 299.36946 275.35263 
L 299.503948 274.852313 
L 299.638436 276.376841 
L 299.772925 266.834984 
L 299.907413 270.195736 
L 300.041901 269.897715 
L 300.176389 270.753582 
L 300.310877 270.47348 
L 300.579854 259.636741 
L 301.252295 127.17021 
L 301.386783 127.238114 
L 301.521271 140.269456 
L 301.65576 133.412146 
L 301.790248 142.712096 
L 302.597177 250.185894 
L 302.731665 251.917433 
L 303.000642 264.174016 
L 303.13513 264.395645 
L 303.269618 264.870027 
L 303.404106 267.299463 
L 303.538595 267.713486 
L 303.807571 251.554338 
L 304.345524 162.871892 
L 304.6145 152.477469 
L 304.748988 160.614572 
L 304.883477 151.158066 
L 305.017965 157.164225 
L 306.093871 262.644301 
L 306.228359 263.642577 
L 306.497335 273.673905 
L 306.766312 274.691042 
L 306.9008 270.040124 
L 307.035288 259.629668 
L 307.304265 168.282952 
L 307.438753 175.455731 
L 307.842217 156.429547 
L 307.976706 163.394371 
L 308.111194 155.07855 
L 308.245682 159.980334 
L 308.649147 205.419567 
L 309.052611 261.095252 
L 309.590564 273.176417 
L 309.994029 274.858915 
L 310.128517 271.349153 
L 310.263005 258.887445 
L 310.531982 168.17308 
L 310.66647 169.310464 
L 310.935446 167.049372 
L 311.069934 157.812609 
L 311.204423 164.188937 
L 311.338911 162.91386 
L 311.473399 156.223007 
L 311.607887 169.198706 
L 311.876864 206.315516 
L 312.14584 248.12474 
L 312.414817 259.785752 
L 312.818281 268.291137 
L 312.952769 267.862496 
L 313.087258 269.725127 
L 313.221746 269.627516 
L 313.356234 271.185052 
L 313.625211 260.758092 
L 313.759699 252.963336 
L 313.894187 256.275046 
L 314.028675 253.777235 
L 314.163163 255.637508 
L 314.297652 252.910994 
L 314.566628 259.393892 
L 314.701116 260.119611 
L 314.970093 264.814855 
L 315.104581 264.777602 
L 315.239069 264.484769 
L 315.508045 267.381513 
L 315.642534 267.912009 
L 315.777022 267.585695 
L 316.180487 270.539026 
L 316.314975 270.104727 
L 316.718439 272.430422 
L 316.852928 272.676572 
L 316.987416 271.833437 
L 317.121904 271.898039 
L 317.256392 270.791778 
L 317.39088 270.934658 
L 317.525369 269.414374 
L 317.659857 270.322584 
L 317.928833 267.833732 
L 318.332298 264.142422 
L 318.466786 264.78892 
L 318.601274 264.292375 
L 318.735763 265.731081 
L 318.870251 265.569338 
L 319.139227 266.672299 
L 319.273715 276.389573 
L 319.67718 277.49442 
L 319.811668 274.946624 
L 319.946157 267.088208 
L 320.349621 146.564677 
L 320.484109 130.607825 
L 320.887574 157.558443 
L 321.022062 162.168808 
L 321.291039 176.773719 
L 321.425527 178.552414 
L 321.560015 196.771301 
L 321.828991 251.632144 
L 321.96348 259.622595 
L 322.097968 260.399713 
L 322.635921 276.899321 
L 322.770409 277.242139 
L 322.904897 276.590926 
L 323.173874 266.284211 
L 323.44285 171.963888 
L 323.577338 172.321324 
L 323.711826 172.520319 
L 323.980803 152.585454 
L 324.249779 156.082013 
L 324.384268 158.815129 
L 324.787732 194.623381 
L 325.056709 248.492079 
L 325.325685 257.65245 
L 325.863638 275.260677 
L 325.998126 277.006835 
L 326.132614 277.071437 
L 326.267103 273.896949 
L 326.401591 265.005834 
L 326.670567 164.859484 
L 326.805055 170.743511 
L 326.939544 171.901643 
L 327.20852 158.833991 
L 327.343008 166.879613 
L 327.611985 163.170856 
L 327.746473 167.972199 
L 328.149937 222.011127 
L 328.418914 252.485654 
L 328.68789 265.142584 
L 328.822379 267.566362 
L 328.956867 277.492062 
L 329.225843 278.427621 
L 329.360331 277.590616 
L 329.629308 264.912466 
L 330.032772 176.967056 
L 330.301749 165.764392 
L 330.570725 157.061898 
L 330.839702 178.652854 
L 330.97419 179.850597 
L 331.108678 182.562965 
L 331.781119 257.534562 
L 332.050096 264.611616 
L 332.184584 275.256433 
L 332.319072 276.200952 
L 332.45356 275.54408 
L 332.588049 276.519721 
L 332.857025 264.063673 
L 333.26049 176.343192 
L 333.394978 178.229872 
L 333.663954 163.498584 
L 333.798442 164.676522 
L 333.932931 168.398011 
L 334.336395 186.046791 
L 334.73986 252.964751 
L 335.143325 268.503336 
L 335.277813 268.30717 
L 335.412301 268.403367 
L 335.546789 268.685355 
L 335.681277 268.581613 
L 335.950254 271.132239 
L 336.084742 269.063068 
L 336.622695 252.799236 
L 336.757183 253.58437 
L 336.891671 251.777383 
L 337.295136 258.057985 
L 337.698601 262.732953 
L 337.833089 262.259514 
L 338.102065 266.309204 
L 338.236553 266.080029 
L 338.371042 266.709551 
L 338.50553 264.402719 
L 339.043483 267.522979 
L 339.446947 270.48244 
L 339.581436 270.006644 
L 339.715924 268.851813 
L 339.850412 269.107865 
L 339.9849 268.337349 
L 340.119388 268.226063 
L 340.253877 267.758283 
L 340.388365 269.217266 
L 340.522853 267.252779 
L 340.657341 267.844106 
L 340.926318 267.529581 
L 341.060806 264.232017 
L 341.329782 269.054109 
L 341.464271 268.953668 
L 341.598759 269.475676 
L 341.733247 271.022839 
L 341.867735 278.748748 
L 342.136712 278.849189 
L 342.2712 279.482955 
L 342.540176 266.943441 
L 342.943641 153.184325 
L 343.212617 169.589151 
L 343.347106 168.863904 
L 343.75057 183.071769 
L 343.885058 184.725974 
L 344.019547 184.07146 
L 344.423011 251.121925 
L 345.22994 276.499445 
L 345.364429 277.569868 
L 345.498917 277.206773 
L 345.633405 273.042025 
L 345.767893 265.057233 
L 346.03687 181.841961 
L 346.171358 185.909098 
L 346.440334 172.51136 
L 346.574823 167.206399 
L 346.843799 174.00005 
L 347.112775 175.845705 
L 347.381752 209.900255 
L 347.650728 248.33128 
L 348.054193 266.07107 
L 348.188681 267.238633 
L 348.323169 276.096739 
L 348.457658 276.934216 
L 348.592146 278.781757 
L 348.726634 278.588892 
L 348.99561 265.841896 
L 349.264587 180.804547 
L 349.399075 182.260228 
L 349.668052 164.919843 
L 349.80254 160.858836 
L 350.206004 179.32293 
L 350.340493 180.488135 
L 351.012934 259.673994 
L 351.147422 261.965737 
L 351.550886 278.421963 
L 351.685375 277.718878 
L 351.954351 278.08103 
L 352.088839 276.701269 
L 352.223328 269.503498 
L 352.492304 176.778435 
L 352.626792 183.853131 
L 352.76128 172.62689 
L 352.895769 171.927107 
L 353.030257 163.753223 
L 353.164745 170.873188 
L 353.299233 168.822408 
L 353.56821 151.27171 
L 354.240651 266.210649 
L 354.375139 267.333886 
L 354.644115 273.122189 
L 354.913092 277.342108 
L 355.182068 278.371035 
L 355.316556 275.999128 
L 355.451045 266.986824 
L 355.854509 194.614422 
L 356.123486 156.766707 
L 356.257974 158.458636 
L 356.392462 166.959305 
L 356.52695 166.334027 
L 356.661439 176.805313 
L 356.795927 175.569847 
L 357.33388 261.955363 
L 357.602856 271.43026 
L 357.737344 273.369753 
L 357.871832 277.570811 
L 358.006321 276.999762 
L 358.140809 277.211488 
L 358.275297 277.941923 
L 358.409785 277.855157 
L 358.678762 276.611674 
L 359.082226 258.379112 
L 359.351203 252.548842 
L 359.485691 246.357363 
L 359.620179 256.954082 
L 359.754667 258.350347 
L 359.889156 258.516334 
L 360.427109 272.623286 
L 360.561597 273.294305 
L 360.965061 277.388792 
L 361.234038 277.349653 
L 361.368526 277.160561 
L 361.503014 278.449313 
L 361.771991 278.047079 
L 361.906479 279.360823 
L 362.040967 279.313668 
L 362.175455 279.684308 
L 362.309944 279.72439 
L 362.57892 276.35515 
L 362.713408 276.30658 
L 362.982385 275.186172 
L 363.116873 273.712572 
L 363.251361 273.612131 
L 363.385849 274.689156 
L 363.520337 273.846021 
L 363.654826 273.787077 
L 364.05829 276.538112 
L 364.192778 250.858327 
L 364.730731 257.037075 
L 364.86522 255.85678 
L 364.999708 243.926512 
L 365.134196 222.051681 
L 365.403172 134.825387 
L 365.672149 104.907764 
L 365.806637 99.060046 
L 366.075613 115.794487 
L 366.34459 112.689317 
L 366.479078 123.979217 
L 367.017031 248.798588 
L 367.151519 253.6966 
L 367.286007 251.982979 
L 367.554984 263.202618 
L 367.689472 264.058486 
L 367.958448 268.897553 
L 368.227425 245.627872 
L 368.496401 150.860045 
L 368.765378 99.620722 
L 369.034354 88.853772 
L 369.168842 93.517423 
L 369.303331 93.078408 
L 369.437819 96.405679 
L 369.572307 94.30963 
L 369.706795 110.22027 
L 370.244748 232.535227 
L 370.782701 276.20944 
L 370.917189 276.510762 
L 371.051677 277.391621 
L 371.186166 277.116235 
L 371.455142 262.475485 
L 371.858607 170.335618 
L 372.127583 201.934325 
L 372.262071 197.922831 
L 372.396559 199.3323 
L 372.665536 188.773777 
L 372.800024 192.522617 
L 373.203489 231.750093 
L 373.472465 253.738568 
L 373.87593 274.675953 
L 374.010418 283.58593 
L 374.144906 283.441635 
L 374.279394 284.633719 
L 374.413883 284.136703 
L 374.682859 267.775259 
L 375.220812 179.450249 
L 375.489788 175.864567 
L 375.624277 176.084782 
L 375.893253 182.541745 
L 376.027741 186.786185 
L 376.565694 253.557963 
L 376.83467 262.341564 
L 376.969159 265.143998 
L 377.103647 276.814442 
L 377.238135 275.734587 
L 377.507112 277.782538 
L 377.6416 275.840215 
L 377.776088 279.337245 
L 378.045064 277.215732 
L 378.179553 267.689908 
L 378.314041 267.071703 
L 378.448529 260.055951 
L 378.583017 261.044796 
L 378.717505 260.138473 
L 378.851994 264.596055 
L 378.986482 263.844872 
L 379.12097 264.742236 
L 379.255458 266.876009 
L 379.389947 266.760951 
L 379.927899 275.905289 
L 380.062388 275.701107 
L 380.196876 276.112772 
L 380.331364 266.320993 
L 380.60034 268.225591 
L 380.869317 269.860934 
L 381.138293 259.093513 
L 381.272782 232.317842 
L 381.541758 158.601987 
L 381.810734 138.676082 
L 381.945223 140.248708 
L 382.214199 146.659459 
L 382.348687 138.763319 
L 382.752152 188.03627 
L 383.021128 255.242347 
L 383.155616 263.077657 
L 383.290105 263.732171 
L 383.424593 265.004419 
L 383.559081 260.133286 
L 383.693569 259.42973 
L 383.962546 259.772077 
L 384.097034 260.948599 
L 384.231522 259.185466 
L 384.36601 260.561455 
L 385.038451 147.709605 
L 385.17294 150.124424 
L 385.307428 165.083471 
L 385.576404 159.50501 
L 386.248845 258.055156 
L 386.921286 276.341003 
L 387.055775 275.535592 
L 387.190263 276.798409 
L 387.324751 276.115601 
L 387.459239 276.274986 
L 387.593727 277.747172 
L 387.728216 277.179423 
L 387.862704 278.481378 
L 387.997192 277.325604 
L 388.13168 278.897759 
L 388.266169 277.924947 
L 388.400657 275.962347 
L 388.535145 276.050527 
L 388.669633 275.395541 
L 388.804121 276.521608 
L 388.93861 273.999747 
L 389.207586 276.115601 
L 389.476562 282.72912 
L 389.611051 281.682745 
L 389.745539 282.490043 
L 389.880027 282.438643 
L 390.014515 267.703112 
L 390.283492 267.949262 
L 390.41798 267.959165 
L 390.552468 267.829959 
L 390.686956 262.392492 
L 390.821445 262.575454 
L 390.955933 253.821089 
L 391.224909 198.281682 
L 391.359397 167.250253 
L 391.493886 163.304305 
L 391.762862 173.880276 
L 391.89735 173.342706 
L 392.031839 166.198692 
L 392.166327 169.857465 
L 392.300815 178.738677 
L 392.569791 238.235349 
L 392.70428 264.234846 
L 392.973256 269.024401 
L 393.107744 269.674671 
L 393.376721 262.6957 
L 393.645697 268.351024 
L 393.780185 264.997346 
L 393.914673 266.366733 
L 394.049162 259.035041 
L 394.721603 145.68146 
L 394.990579 144.621411 
L 395.125067 144.205973 
L 395.259556 155.466166 
L 395.394044 156.326749 
L 395.931997 243.506359 
L 396.200973 256.967757 
L 396.335461 253.271731 
L 396.46995 277.77405 
L 396.604438 278.153178 
L 397.007902 281.155079 
L 397.276879 268.240681 
L 397.545855 195.335425 
L 397.680343 190.204466 
L 397.94932 167.081909 
L 398.083808 153.761977 
L 398.218296 166.366564 
L 398.352785 161.651986 
L 398.487273 164.631724 
L 398.487273 164.631724 
" clip-path="url(#p638a18129d)" style="fill: none; stroke: #1f77b4; stroke-width: 1.5; stroke-linecap: square"/>
   </g>
   <g id="line2d_14">
    <path d="M 73.832727 273.531309 
L 74.101704 276.337 
L 74.236192 276.620742 
L 74.505168 273.690055 
L 74.639657 270.228937 
L 74.774145 270.814342 
L 75.043121 256.353854 
L 75.177609 247.396078 
L 75.312098 190.762662 
L 75.446586 230.322272 
L 76.253515 256.101165 
L 76.65698 258.167365 
L 76.791468 278.347127 
L 76.925956 277.055295 
L 77.060444 270.41408 
L 77.194933 270.243099 
L 77.329421 270.374508 
L 77.463909 257.472962 
L 77.598397 264.685748 
L 77.867374 259.279513 
L 78.001862 259.082649 
L 78.270838 185.755747 
L 78.405327 119.394828 
L 78.539815 118.876771 
L 78.674303 115.164186 
L 78.808791 99.726374 
L 79.077768 115.207188 
L 79.481232 173.754629 
L 80.019185 260.303073 
L 80.153673 261.036788 
L 80.288161 259.431433 
L 80.42265 267.399674 
L 80.557138 264.528833 
L 80.691626 257.054226 
L 80.826114 266.99346 
L 80.960603 260.580808 
L 81.095091 260.07105 
L 81.229579 254.520247 
L 81.364067 241.96933 
L 81.498555 215.525906 
L 81.767532 118.214005 
L 81.90202 147.284605 
L 82.036508 214.279173 
L 82.170996 215.357888 
L 82.439973 225.647494 
L 82.574461 193.241098 
L 82.708949 197.297334 
L 82.843438 219.587137 
L 82.977926 215.472598 
L 83.112414 222.423499 
L 83.246902 215.335456 
L 83.38139 215.316704 
L 83.784855 246.297574 
L 84.053831 276.194917 
L 84.18832 271.124311 
L 84.322808 215.316639 
L 84.457296 227.345166 
L 84.591784 215.316639 
L 84.860761 215.316639 
L 84.995249 215.857468 
L 85.129737 156.952488 
L 85.264225 165.60895 
L 85.398714 183.267133 
L 85.533202 176.334481 
L 85.936666 217.972 
L 86.474619 265.108563 
L 86.609107 263.006709 
L 86.743596 265.28022 
L 86.878084 263.915258 
L 87.012572 267.304544 
L 87.281549 284.662243 
L 87.416037 283.429823 
L 87.550525 279.575902 
L 87.685013 281.166326 
L 87.95399 268.800379 
L 88.222966 227.735185 
L 88.357454 255.048582 
L 88.491942 245.761519 
L 88.626431 256.537428 
L 88.895407 250.062164 
L 89.029895 259.923092 
L 89.164384 249.78817 
L 89.298872 260.936166 
L 89.43336 260.703324 
L 89.567848 264.430568 
L 89.702336 275.995731 
L 89.836825 277.478018 
L 90.105801 270.186964 
L 90.240289 272.713123 
L 90.374777 248.849129 
L 90.509266 256.241271 
L 90.643754 248.043043 
L 90.778242 251.177929 
L 90.91273 250.245599 
L 91.181707 227.357773 
L 91.316195 230.499643 
L 91.450683 224.391584 
L 91.585171 245.128078 
L 91.71966 237.508776 
L 91.854148 251.675924 
L 91.988636 242.293224 
L 92.123124 252.608724 
L 92.257612 254.114691 
L 92.526589 261.569257 
L 92.661077 260.930514 
L 92.930053 267.105858 
L 93.064542 268.073872 
L 93.19903 266.063449 
L 93.333518 266.527439 
L 93.468006 263.896532 
L 93.602495 275.332571 
L 93.871471 266.949348 
L 94.005959 265.328012 
L 94.140447 260.990256 
L 94.409424 233.838033 
L 94.6784 165.31692 
L 94.812888 178.13335 
L 95.081865 156.047071 
L 95.216353 152.130057 
L 96.292259 271.475397 
L 96.561235 265.903452 
L 96.830212 267.154468 
L 97.099188 262.930058 
L 97.233676 263.506192 
L 97.502653 240.450824 
L 97.906117 153.961372 
L 98.040606 178.896463 
L 98.175094 171.886592 
L 98.309582 180.399079 
L 98.44407 175.829199 
L 98.847535 211.316791 
L 99.385488 262.462035 
L 99.519976 268.525772 
L 99.654464 268.868451 
L 99.788952 270.199093 
L 99.923441 268.227276 
L 100.057929 280.206816 
L 100.326905 270.109182 
L 100.461393 269.904628 
L 100.595882 268.642304 
L 100.864858 251.42802 
L 101.133834 277.865321 
L 101.268323 279.23885 
L 101.402811 284.457706 
L 101.671787 278.510845 
L 101.806276 268.330077 
L 101.940764 280.74931 
L 102.075252 267.396183 
L 102.20974 266.800864 
L 102.344228 271.752731 
L 102.478717 270.778955 
L 102.747693 271.89595 
L 102.882181 271.708394 
L 103.016669 270.394421 
L 103.151158 277.588422 
L 103.285646 254.090156 
L 103.554622 266.89056 
L 103.823599 254.429694 
L 104.092575 219.13275 
L 104.361552 139.767517 
L 104.49604 163.541894 
L 104.630528 157.702406 
L 104.765016 165.252703 
L 105.033993 155.641499 
L 105.840922 264.281588 
L 105.97541 268.24676 
L 106.244387 258.318104 
L 106.378875 265.635965 
L 106.513363 280.399475 
L 106.782339 270.831046 
L 106.916828 267.796425 
L 107.051316 268.444312 
L 107.185804 258.142205 
L 107.320292 259.276777 
L 107.589269 206.931202 
L 107.858245 257.185625 
L 107.992733 247.918271 
L 108.127222 248.410969 
L 108.26171 247.667173 
L 108.530686 254.883293 
L 108.799663 258.058531 
L 109.203127 279.005536 
L 109.337615 274.18473 
L 109.472104 274.895015 
L 109.606592 272.158823 
L 109.74108 264.557585 
L 109.875568 265.931747 
L 110.279033 257.765978 
L 110.548009 243.390628 
L 110.951474 277.225395 
L 111.085962 275.827167 
L 111.354939 267.687566 
L 111.489427 270.52389 
L 111.758403 267.059728 
L 111.892891 267.465251 
L 112.02738 266.587596 
L 112.296356 272.167266 
L 112.430844 271.872451 
L 112.565333 268.197119 
L 112.699821 268.820087 
L 112.834309 268.525586 
L 112.968797 251.939281 
L 113.103285 257.732848 
L 113.50675 251.792939 
L 113.775726 234.98498 
L 114.313679 272.015336 
L 114.582656 254.057351 
L 114.851632 259.597555 
L 114.98612 259.505684 
L 115.255097 255.573607 
L 115.658561 264.601581 
L 116.062026 259.344143 
L 116.331002 254.90223 
L 116.465491 248.880193 
L 116.599979 255.284303 
L 116.734467 248.84043 
L 116.868955 237.055062 
L 117.003444 201.816752 
L 117.137932 116.326546 
L 117.27242 121.241259 
L 117.675885 91.678162 
L 117.810373 98.990558 
L 118.079349 153.740829 
L 118.348326 194.438054 
L 118.75179 262.990816 
L 118.886279 262.916957 
L 119.020767 245.249313 
L 119.155255 254.193029 
L 119.289743 249.580777 
L 119.424231 249.119207 
L 119.55872 250.372975 
L 119.827696 244.24381 
L 119.962184 245.052086 
L 120.096672 233.724456 
L 120.231161 193.198351 
L 120.365649 114.421631 
L 120.500137 109.006702 
L 120.634625 108.100722 
L 120.769114 99.978051 
L 120.903602 99.936688 
L 121.03809 108.050583 
L 121.441555 164.711487 
L 121.979507 263.632011 
L 122.113996 265.36278 
L 122.248484 244.924881 
L 122.382972 246.876678 
L 122.51746 243.881054 
L 122.651948 244.468848 
L 122.786437 252.826188 
L 123.055413 243.350256 
L 123.189901 243.53657 
L 123.32439 236.331921 
L 123.458878 212.35229 
L 123.727854 108.551115 
L 123.862342 87.635235 
L 124.131319 90.986059 
L 124.938248 214.535143 
L 125.207225 265.361392 
L 125.341713 265.98052 
L 125.476201 255.997178 
L 125.610689 259.113471 
L 125.879666 251.234845 
L 126.014154 263.263107 
L 126.28313 257.859038 
L 126.417618 255.118503 
L 126.686595 200.784347 
L 126.821083 113.088029 
L 126.955571 122.279455 
L 127.09006 122.674905 
L 127.224548 115.413484 
L 127.359036 116.558216 
L 127.762501 153.017474 
L 128.434942 261.48914 
L 128.56943 260.14603 
L 128.703918 255.017664 
L 128.838406 255.584214 
L 128.972894 249.70557 
L 129.107383 256.971606 
L 129.241871 251.992383 
L 129.376359 251.901845 
L 129.510847 253.854236 
L 129.645336 251.009186 
L 130.183288 119.784963 
L 130.452265 101.780912 
L 130.721241 110.732675 
L 131.662659 260.384769 
L 131.931635 262.911587 
L 132.066123 261.571148 
L 132.469588 251.117589 
L 132.604076 253.416809 
L 132.738564 259.702099 
L 133.142029 243.166055 
L 133.276517 208.219682 
L 133.545494 222.266145 
L 133.81447 227.673848 
L 133.948958 230.846777 
L 134.217935 243.852959 
L 134.352423 242.869539 
L 134.621399 255.363534 
L 135.024864 260.936556 
L 135.428329 256.108007 
L 135.562817 256.72522 
L 135.831793 255.575232 
L 135.966282 255.636278 
L 136.10077 256.311734 
L 136.235258 249.953061 
L 136.369746 237.73255 
L 136.504234 236.396328 
L 136.773211 265.719554 
L 136.907699 259.954174 
L 137.176675 269.306067 
L 137.311164 266.848211 
L 137.58014 253.273174 
L 137.849117 261.698592 
L 137.983605 259.968217 
L 138.252581 264.593765 
L 138.521558 256.122412 
L 138.656046 257.153092 
L 138.790534 259.556825 
L 138.925022 253.131869 
L 139.05951 252.241591 
L 139.193999 254.671458 
L 139.328487 253.064372 
L 139.597463 189.08371 
L 139.731951 111.642063 
L 139.86644 119.626973 
L 140.135416 106.722411 
L 140.269904 107.517072 
L 140.673369 151.683211 
L 141.34581 260.188638 
L 141.480298 260.336737 
L 141.614786 250.204477 
L 141.749275 261.542751 
L 141.883763 258.091918 
L 142.018251 257.529604 
L 142.152739 260.281369 
L 142.287228 256.536948 
L 142.421716 256.15213 
L 142.556204 253.579011 
L 143.094157 111.400359 
L 143.228645 91.218472 
L 143.497621 98.064174 
L 143.766598 125.907982 
L 144.035574 165.25604 
L 144.439039 252.080562 
L 144.573527 260.196676 
L 144.708015 260.947655 
L 144.842504 255.357472 
L 144.976992 265.020801 
L 145.380456 257.923899 
L 145.514945 257.666436 
L 145.649433 259.301481 
L 145.783921 248.129163 
L 146.321874 116.554384 
L 146.59085 93.336321 
L 146.725339 97.891454 
L 147.128803 149.249572 
L 147.801244 260.704402 
L 147.935732 261.363119 
L 148.070221 260.585091 
L 148.204709 264.769919 
L 148.339197 259.95981 
L 148.473685 262.548107 
L 149.011638 254.118326 
L 149.146126 248.21506 
L 149.415103 121.00163 
L 149.549591 118.562414 
L 149.818567 99.788098 
L 150.222032 134.160456 
L 151.028961 259.705432 
L 151.16345 259.885565 
L 151.297938 261.243221 
L 151.432426 264.852085 
L 151.566914 259.118828 
L 151.835891 260.217935 
L 151.970379 260.108064 
L 152.104867 258.561415 
L 152.239355 259.091397 
L 152.373843 239.981121 
L 152.64282 112.647175 
L 152.777308 114.187351 
L 153.180773 94.973807 
L 153.315261 94.444277 
L 154.12219 256.57168 
L 154.525655 269.258701 
L 154.660143 265.429286 
L 154.794631 268.301385 
L 155.332584 264.32331 
L 155.467072 264.736377 
L 155.736049 243.99122 
L 155.870537 241.767883 
L 156.005025 228.136114 
L 156.139513 242.784278 
L 156.274002 241.555367 
L 156.40849 250.35816 
L 156.542978 251.284943 
L 156.677466 253.401577 
L 156.946443 266.520798 
L 157.080931 263.961868 
L 157.349907 268.509346 
L 157.618884 271.999778 
L 157.753372 266.47117 
L 157.88786 266.050709 
L 158.022348 266.339715 
L 158.156837 267.238375 
L 158.291325 266.852933 
L 158.425813 265.53751 
L 158.694789 265.388412 
L 158.963766 255.876104 
L 159.098254 255.758054 
L 159.367231 269.53971 
L 159.501719 271.429812 
L 159.770695 277.972805 
L 160.17416 261.499374 
L 160.308648 266.75835 
L 160.443136 262.008389 
L 160.577624 266.140802 
L 160.712113 266.443009 
L 160.846601 271.373162 
L 161.115577 261.792431 
L 161.250066 261.743853 
L 161.384554 262.777698 
L 161.519042 262.942957 
L 161.922507 258.538518 
L 162.729436 88.102459 
L 162.998412 109.474655 
L 163.401877 169.385629 
L 163.93983 260.069086 
L 164.074318 260.83061 
L 164.208806 251.004402 
L 164.343294 259.027622 
L 164.477783 256.505913 
L 164.612271 250.189329 
L 164.746759 263.965508 
L 164.881247 256.408862 
L 165.015735 261.302733 
L 165.150224 248.207792 
L 165.822665 108.402237 
L 165.957153 105.787356 
L 166.091641 109.526568 
L 166.360618 129.204347 
L 166.89857 214.496718 
L 167.167547 262.57813 
L 167.302035 262.175751 
L 167.436523 246.797285 
L 167.571012 254.478815 
L 167.7055 252.034055 
L 167.839988 252.540491 
L 167.974476 255.805209 
L 168.108964 255.747485 
L 168.377941 253.342197 
L 168.646917 199.322995 
L 169.050382 81.456694 
L 169.453847 111.159334 
L 169.991799 197.713598 
L 170.395264 260.679534 
L 170.529752 261.020951 
L 170.66424 261.951618 
L 170.798729 262.060651 
L 170.933217 259.543928 
L 171.067705 260.200573 
L 171.336681 255.49911 
L 171.47117 253.423177 
L 171.605658 254.620452 
L 172.143611 113.231527 
L 172.412587 95.331758 
L 172.547075 100.417789 
L 172.816052 126.967483 
L 173.622981 261.273476 
L 173.757469 261.567278 
L 173.891958 261.462367 
L 174.026446 264.556743 
L 174.160934 264.111382 
L 174.295422 279.724398 
L 174.42991 269.597392 
L 174.564399 269.125199 
L 174.698887 269.258565 
L 174.833375 267.970419 
L 175.371328 133.082057 
L 175.505816 152.000472 
L 175.640304 147.301962 
L 175.774792 146.511491 
L 175.909281 148.0711 
L 176.043769 154.743321 
L 176.850698 258.013884 
L 177.254163 268.107123 
L 177.388651 259.726498 
L 177.523139 262.333241 
L 177.657627 262.361977 
L 177.792116 258.595619 
L 178.061092 261.525482 
L 178.330069 244.591134 
L 178.464557 232.073772 
L 178.599045 238.200299 
L 178.733533 260.351237 
L 178.868021 248.974114 
L 179.00251 256.137909 
L 179.136998 255.044088 
L 179.271486 262.33224 
L 179.405974 253.724293 
L 179.540462 253.802754 
L 179.674951 258.008494 
L 179.809439 257.215398 
L 180.078415 263.475659 
L 180.347392 268.019064 
L 180.48188 263.657745 
L 180.616368 262.920506 
L 180.750856 272.586994 
L 181.154321 264.437014 
L 181.288809 262.202358 
L 181.557786 235.727888 
L 181.96125 262.068314 
L 182.095738 261.806205 
L 182.230227 268.516014 
L 182.364715 253.726923 
L 182.633691 264.69466 
L 182.902668 267.81866 
L 183.037156 272.48181 
L 183.171644 271.000522 
L 183.306132 271.680585 
L 183.440621 276.185403 
L 183.575109 272.868264 
L 183.709597 274.209427 
L 183.978573 267.750352 
L 184.113062 281.162534 
L 184.382038 275.458046 
L 184.516526 265.744236 
L 185.054479 160.310832 
L 185.188967 179.704508 
L 185.323456 174.323106 
L 185.457944 183.319234 
L 185.592432 179.731506 
L 185.72692 187.338028 
L 186.399361 259.637584 
L 186.53385 266.400842 
L 187.071802 270.566862 
L 187.340779 284.614236 
L 187.609755 275.163899 
L 187.744243 275.336184 
L 188.01322 239.395186 
L 188.147708 170.272782 
L 188.282196 160.468007 
L 188.416684 181.174886 
L 188.551173 175.694206 
L 188.685661 180.574039 
L 188.820149 180.903338 
L 188.954637 187.887831 
L 189.223614 225.289862 
L 189.761567 265.596861 
L 189.896055 267.415169 
L 190.030543 266.251972 
L 190.165031 267.313702 
L 190.299519 271.522034 
L 190.434008 264.280929 
L 190.568496 266.429296 
L 190.702984 263.898763 
L 191.240937 240.76398 
L 191.375425 251.722044 
L 191.509913 252.816223 
L 191.77889 265.135321 
L 191.913378 258.385794 
L 192.182354 265.038229 
L 192.316843 268.139971 
L 192.451331 263.828629 
L 192.585819 264.248914 
L 193.123772 274.258089 
L 193.25826 267.186311 
L 193.392748 266.834447 
L 193.796213 259.99919 
L 193.930701 261.273067 
L 194.065189 260.207876 
L 194.199678 257.9637 
L 194.73763 141.56602 
L 194.872119 157.446724 
L 195.141095 151.015148 
L 195.275583 149.836053 
L 195.410072 155.916584 
L 196.217001 260.288422 
L 196.351489 266.070694 
L 196.620465 261.811434 
L 196.754954 261.880967 
L 196.889442 271.981368 
L 197.02393 264.381658 
L 197.292907 262.557063 
L 197.427395 262.258644 
L 197.561883 252.677648 
L 197.696371 231.333604 
L 197.965348 148.179925 
L 198.099836 182.430779 
L 198.234324 184.33248 
L 198.368812 196.895866 
L 198.5033 198.903173 
L 198.772277 215.715321 
L 198.906765 220.851943 
L 199.444718 266.031118 
L 199.579206 275.5962 
L 199.713694 269.212569 
L 200.117159 278.609993 
L 200.251647 273.650091 
L 200.386135 274.319917 
L 200.520624 271.335395 
L 200.655112 265.720192 
L 201.058576 204.125509 
L 201.193065 136.788644 
L 201.327553 183.30947 
L 201.462041 184.618237 
L 201.865506 212.81975 
L 201.999994 213.359278 
L 202.26897 233.389951 
L 202.672435 265.413468 
L 202.806923 273.28428 
L 202.941411 266.877623 
L 203.0759 268.00966 
L 203.210388 271.12113 
L 203.344876 259.801156 
L 203.479364 258.297927 
L 203.613853 262.798555 
L 203.882829 250.225022 
L 204.017317 240.37761 
L 204.151805 221.402389 
L 204.420782 132.901014 
L 204.689758 155.316569 
L 204.958735 164.651348 
L 205.765664 254.674292 
L 206.03464 267.485638 
L 206.303617 261.29721 
L 206.438105 264.325898 
L 206.572593 281.30855 
L 206.707081 273.621803 
L 206.84157 275.886621 
L 206.976058 276.20172 
L 207.110546 273.046003 
L 207.379522 249.394439 
L 207.514011 249.239462 
L 207.782987 255.153354 
L 208.186452 275.239656 
L 208.32094 274.77736 
L 208.455428 273.529627 
L 208.589916 266.220047 
L 208.724405 266.550919 
L 208.858893 271.438496 
L 208.993381 271.65432 
L 209.127869 278.044856 
L 209.262357 276.851888 
L 209.396846 273.599861 
L 209.531334 274.289016 
L 209.665822 273.706799 
L 209.80031 264.776654 
L 209.934799 268.824805 
L 210.338263 261.266814 
L 210.472751 216.728784 
L 210.60724 216.616216 
L 210.876216 135.931338 
L 211.010704 147.384277 
L 211.414169 100.286633 
L 211.683145 164.350323 
L 212.08661 239.496692 
L 212.355586 262.119597 
L 212.490075 263.951535 
L 212.759051 261.332715 
L 213.028027 267.572114 
L 213.162516 269.019022 
L 213.431492 262.026969 
L 213.56598 262.321638 
L 213.969445 135.689872 
L 214.103933 120.270975 
L 214.238421 119.662652 
L 214.37291 120.707303 
L 214.641886 130.086149 
L 214.776374 149.243245 
L 215.045351 216.79814 
L 215.448815 258.276519 
L 215.717792 268.536135 
L 215.85228 262.656338 
L 215.986768 266.964739 
L 216.121256 264.546755 
L 216.255745 264.433801 
L 216.390233 264.748693 
L 216.524721 261.673209 
L 216.793697 260.417936 
L 217.33165 122.375173 
L 217.600627 133.135295 
L 217.735115 136.75608 
L 218.138579 183.187206 
L 218.676532 255.693313 
L 218.945509 266.319077 
L 219.214485 271.316253 
L 219.348973 259.27851 
L 219.483462 265.723226 
L 219.752438 266.05127 
L 219.886926 266.799197 
L 220.021414 264.940058 
L 220.290391 208.521843 
L 220.559367 115.813232 
L 220.693856 143.749149 
L 220.962832 144.686125 
L 221.09732 147.129551 
L 221.904249 257.268189 
L 222.173226 265.19586 
L 222.307714 266.29753 
L 222.442202 271.57725 
L 222.576691 267.723672 
L 222.711179 269.388582 
L 222.980155 273.489534 
L 223.249132 271.762099 
L 223.38362 249.380734 
L 223.518108 255.129335 
L 223.652596 230.885652 
L 223.787084 228.953068 
L 223.921573 252.528393 
L 224.056061 255.561788 
L 224.325037 247.841142 
L 224.459525 250.661 
L 224.728502 265.280772 
L 224.997478 262.626953 
L 225.131967 261.812094 
L 225.266455 265.236517 
L 225.400943 265.069462 
L 225.938896 258.185065 
L 226.073384 252.839873 
L 226.207872 256.153841 
L 226.34236 254.518129 
L 226.476849 254.24493 
L 226.745825 231.894173 
L 226.880313 238.349234 
L 227.14929 258.17969 
L 227.418266 267.172803 
L 227.552754 270.601577 
L 227.687243 270.750233 
L 227.821731 275.261078 
L 227.956219 273.865132 
L 228.090707 274.529773 
L 228.225195 273.670934 
L 228.359684 273.741894 
L 228.494172 280.429582 
L 228.763148 271.935512 
L 228.897637 272.520931 
L 229.032125 273.91587 
L 229.166613 272.487745 
L 229.301101 268.146968 
L 229.435589 267.848438 
L 229.570078 266.760918 
L 229.704566 262.523728 
L 229.973542 196.54626 
L 230.377007 82.202269 
L 230.511495 80.479636 
L 230.780471 105.247778 
L 231.587401 251.606734 
L 231.856377 263.017509 
L 231.990865 261.328472 
L 232.259842 264.886436 
L 232.39433 265.951447 
L 232.528818 263.719065 
L 232.797795 265.805364 
L 232.932283 257.86907 
L 233.470236 121.084029 
L 233.604724 123.438013 
L 233.739212 118.928264 
L 234.008189 133.204152 
L 234.546141 214.849438 
L 234.815118 253.158339 
L 235.084094 268.052929 
L 235.218583 266.985097 
L 235.353071 263.435943 
L 235.487559 267.187236 
L 235.622047 265.965856 
L 235.891024 271.15928 
L 236.16 259.166857 
L 236.428976 211.779795 
L 236.563465 128.336642 
L 236.697953 121.006568 
L 236.832441 122.369727 
L 236.966929 113.150812 
L 237.101417 113.579559 
L 237.235906 116.692986 
L 237.370394 135.443513 
L 237.773859 218.454663 
L 238.042835 256.7902 
L 238.311811 267.922357 
L 238.4463 265.626795 
L 238.580788 266.004568 
L 238.715276 268.23066 
L 238.849764 266.699129 
L 238.984252 268.092283 
L 239.253229 272.260846 
L 239.387717 261.949945 
L 239.656694 203.666776 
L 239.791182 131.990767 
L 239.92567 121.39649 
L 240.060158 125.364478 
L 240.194646 117.270008 
L 240.329135 119.081406 
L 240.463623 126.120769 
L 241.270552 255.787616 
L 241.40504 262.894119 
L 241.539529 261.328872 
L 241.674017 262.18806 
L 241.808505 259.140543 
L 241.942993 260.747269 
L 242.077481 258.019834 
L 242.21197 271.044584 
L 242.346458 266.909318 
L 242.480946 275.245573 
L 242.615434 266.077381 
L 243.153387 118.851975 
L 243.556852 142.467072 
L 243.69134 134.604782 
L 244.498269 259.74021 
L 244.632757 264.209623 
L 244.767246 263.476485 
L 245.036222 266.089585 
L 245.17071 265.190752 
L 245.439687 270.369303 
L 245.574175 266.136249 
L 245.708663 266.405233 
L 245.843151 257.72749 
L 245.97764 240.129568 
L 246.112128 205.21668 
L 246.246616 240.046833 
L 246.650081 252.24169 
L 246.784569 251.165339 
L 246.919057 253.582591 
L 247.322522 273.022295 
L 247.45701 271.069441 
L 247.591498 272.91049 
L 247.994963 268.188839 
L 248.129451 273.293008 
L 248.263939 271.686819 
L 248.398427 273.110613 
L 248.532916 272.230361 
L 248.667404 268.973002 
L 248.801892 269.920646 
L 249.070868 261.739203 
L 249.205357 242.445284 
L 249.339845 243.531176 
L 249.743309 273.663601 
L 250.012286 272.873029 
L 250.281262 273.399197 
L 250.415751 273.752838 
L 250.684727 274.639792 
L 250.953703 272.699525 
L 251.491656 269.533418 
L 251.626144 271.510714 
L 251.760633 270.475852 
L 251.895121 283.526594 
L 252.029609 275.553876 
L 252.164097 275.180653 
L 252.298586 268.352587 
L 252.433074 229.138047 
L 252.567562 224.959247 
L 252.836538 120.351132 
L 252.971027 127.840815 
L 253.105515 127.675058 
L 253.240003 146.248571 
L 253.374491 149.42464 
L 254.181421 255.795321 
L 254.315909 263.199454 
L 254.450397 264.025408 
L 254.719373 275.509152 
L 254.853862 275.994462 
L 254.98835 277.305159 
L 255.122838 282.96764 
L 255.257326 279.111674 
L 255.391814 280.000195 
L 255.526303 274.887966 
L 256.064255 128.76447 
L 256.198744 155.546855 
L 256.333232 155.117268 
L 256.602208 149.999865 
L 257.409138 258.066024 
L 257.543626 262.886481 
L 257.678114 260.869446 
L 257.812602 264.003743 
L 257.94709 261.366243 
L 258.081579 263.996038 
L 258.216067 263.833554 
L 258.350555 278.68075 
L 258.619532 276.654582 
L 258.75402 265.416635 
L 259.022996 216.321375 
L 259.291973 120.0469 
L 259.426461 148.573371 
L 259.560949 149.963643 
L 259.695437 158.218613 
L 259.829925 157.647861 
L 260.23339 203.434045 
L 260.771343 261.124749 
L 260.905831 261.682519 
L 261.040319 261.123969 
L 261.174808 263.540073 
L 261.443784 259.978366 
L 261.578272 265.863772 
L 261.71276 262.985361 
L 261.847249 265.716276 
L 261.981737 255.778097 
L 262.116225 234.270279 
L 262.51969 124.280481 
L 262.654178 152.344967 
L 262.788666 150.583113 
L 262.923154 141.786402 
L 263.057643 144.63234 
L 263.99906 259.6077 
L 264.133548 259.647347 
L 264.268036 256.47546 
L 264.402525 257.958314 
L 264.537013 256.769157 
L 264.671501 264.781998 
L 264.805989 256.91767 
L 264.940478 260.546835 
L 265.074966 257.969498 
L 265.209454 247.703947 
L 265.47843 192.487075 
L 266.016383 115.484176 
L 266.150871 112.439173 
L 266.28536 118.486184 
L 266.554336 151.805057 
L 267.226777 259.716531 
L 267.361265 262.16532 
L 267.495754 258.406306 
L 267.630242 258.524416 
L 267.76473 252.77597 
L 267.899218 269.783381 
L 268.033706 260.651085 
L 268.168195 262.478374 
L 268.302683 260.991567 
L 268.437171 264.327157 
L 268.571659 257.873746 
L 268.706147 241.272869 
L 268.840636 239.010894 
L 269.109612 264.115649 
L 269.2441 259.849023 
L 269.378589 261.952459 
L 269.513077 262.246233 
L 269.782053 266.272636 
L 269.916541 266.679131 
L 270.05103 262.985603 
L 270.185518 264.133018 
L 270.320006 262.732623 
L 270.454494 264.726973 
L 270.588982 264.414992 
L 270.723471 261.204876 
L 270.992447 262.814771 
L 271.126935 278.439768 
L 271.395912 267.327537 
L 271.5304 268.19825 
L 271.664888 260.439702 
L 271.799376 242.888251 
L 271.933865 241.397758 
L 272.202841 268.558032 
L 272.337329 270.748163 
L 272.606306 285.651342 
L 272.740794 288.245366 
L 272.875282 286.000758 
L 273.144258 277.751122 
L 273.547723 271.926192 
L 273.682211 271.994028 
L 273.8167 272.276907 
L 273.951188 269.056758 
L 274.220164 270.645535 
L 274.354652 268.879595 
L 274.489141 285.170169 
L 274.623629 283.28519 
L 274.758117 283.994198 
L 274.892605 274.692983 
L 275.430558 147.263971 
L 275.565046 154.13515 
L 275.699535 148.081353 
L 275.968511 157.519674 
L 276.102999 166.862894 
L 276.506464 232.930279 
L 276.77544 257.464287 
L 277.044417 264.475327 
L 277.447881 272.700791 
L 277.58237 268.660286 
L 277.716858 279.072747 
L 277.851346 274.485844 
L 277.985834 279.030747 
L 278.120322 273.973934 
L 278.389299 234.845323 
L 278.658275 171.707842 
L 278.792763 183.026104 
L 278.927252 167.458373 
L 280.003157 256.723944 
L 280.272134 273.533169 
L 280.406622 268.626804 
L 280.675598 271.992735 
L 280.810087 260.276561 
L 281.079063 261.929362 
L 281.213551 259.337693 
L 281.348039 252.041261 
L 281.885992 121.807594 
L 282.020481 137.478979 
L 282.154969 123.600703 
L 282.423945 135.239594 
L 282.961898 205.748917 
L 283.230874 252.865023 
L 283.499851 266.958327 
L 283.768827 260.305368 
L 283.903316 262.022717 
L 284.30678 253.576795 
L 284.441268 253.388203 
L 284.575757 243.635497 
L 284.710245 203.688533 
L 284.844733 200.979546 
L 285.113709 133.849696 
L 285.248198 146.805005 
L 285.382686 143.916927 
L 285.517174 128.917732 
L 285.78615 150.097694 
L 286.59308 261.125454 
L 286.727568 265.238461 
L 286.862056 261.614969 
L 286.996544 262.719432 
L 287.131033 258.884129 
L 287.265521 283.282346 
L 287.534497 270.823112 
L 287.668985 271.309874 
L 287.937962 233.551319 
L 288.07245 237.370833 
L 288.341427 264.103133 
L 288.475915 271.423478 
L 288.610403 270.886209 
L 288.744891 274.731786 
L 288.879379 270.566254 
L 289.013868 270.621134 
L 289.148356 270.207474 
L 289.282844 275.695394 
L 289.417332 274.225401 
L 289.55182 271.067827 
L 289.686309 280.464038 
L 289.820797 280.600393 
L 289.955285 279.972511 
L 290.089773 270.790459 
L 290.224262 270.611767 
L 290.35875 273.111535 
L 290.493238 270.700704 
L 290.627726 272.523645 
L 290.762214 268.392503 
L 290.896703 269.440545 
L 291.165679 217.038259 
L 291.300167 223.159963 
L 291.434655 210.264385 
L 291.569144 148.552501 
L 291.83812 172.948938 
L 292.107096 188.05548 
L 292.241585 186.547163 
L 292.376073 200.359402 
L 292.645049 238.674586 
L 293.183002 268.753035 
L 293.31749 265.081071 
L 293.451979 267.862389 
L 293.586467 267.08748 
L 293.720955 262.91976 
L 293.855443 263.062715 
L 293.989931 258.746424 
L 294.12442 261.846801 
L 294.258908 241.926886 
L 294.393396 200.889116 
L 294.527884 203.906479 
L 294.796861 147.969553 
L 294.931349 160.470977 
L 295.200325 147.522369 
L 295.334814 138.411982 
L 295.469302 144.158177 
L 296.007255 239.254129 
L 296.276231 260.555062 
L 296.410719 266.177447 
L 296.679696 258.545427 
L 296.814184 264.660387 
L 296.948672 283.207534 
L 297.08316 276.847621 
L 297.217649 277.416783 
L 297.352137 276.347243 
L 297.621113 251.670293 
L 297.755601 256.588896 
L 298.024578 271.927841 
L 298.562531 282.015398 
L 298.697019 282.028959 
L 298.965995 276.629622 
L 299.100484 278.083819 
L 299.36946 275.639348 
L 299.503948 274.942194 
L 299.638436 276.385483 
L 299.772925 270.993939 
L 299.907413 272.124438 
L 300.041901 274.580968 
L 300.176389 258.818257 
L 300.310877 268.526379 
L 300.579854 262.810009 
L 301.252295 141.558567 
L 301.386783 141.590424 
L 301.65576 123.618336 
L 301.790248 124.177148 
L 302.731665 260.507503 
L 302.866153 262.26967 
L 303.000642 261.941192 
L 303.13513 258.78508 
L 303.404106 265.38112 
L 303.673083 258.692471 
L 303.807571 260.447339 
L 303.942059 239.872716 
L 304.076547 200.244996 
L 304.211036 203.873915 
L 304.480012 143.971221 
L 304.6145 157.33315 
L 304.748988 155.812982 
L 305.017965 160.208312 
L 305.42143 196.693793 
L 305.824894 253.306558 
L 306.093871 262.941808 
L 306.228359 260.347666 
L 306.497335 264.686057 
L 306.631823 262.939844 
L 306.766312 273.648206 
L 307.035288 267.180771 
L 307.438753 209.881254 
L 307.707729 132.815545 
L 307.842217 159.790011 
L 307.976706 163.52803 
L 308.111194 162.657564 
L 308.245682 157.079849 
L 308.38017 162.355573 
L 308.514658 172.64076 
L 308.918123 245.917996 
L 309.187099 262.303166 
L 309.456076 267.178586 
L 309.590564 267.320614 
L 309.725052 269.574154 
L 309.859541 267.948485 
L 309.994029 269.014636 
L 310.263005 264.647378 
L 310.66647 203.178315 
L 310.935446 132.837361 
L 311.204423 159.562785 
L 311.338911 161.923819 
L 311.473399 153.579272 
L 311.742376 185.84055 
L 312.14584 248.420726 
L 312.414817 261.713075 
L 312.549305 263.676179 
L 312.683793 263.286733 
L 312.818281 263.744822 
L 313.221746 269.520821 
L 313.356234 265.548807 
L 313.490722 266.462347 
L 313.759699 229.377717 
L 313.894187 218.736136 
L 314.163163 228.329726 
L 314.297652 248.164424 
L 314.43214 247.570623 
L 314.566628 256.216639 
L 314.701116 250.383907 
L 315.104581 267.634002 
L 315.373557 273.227725 
L 315.642534 271.606335 
L 315.777022 273.544682 
L 315.91151 264.609581 
L 316.045998 266.72441 
L 316.180487 264.268407 
L 316.314975 265.838358 
L 316.449463 263.81286 
L 316.583951 264.247571 
L 316.718439 258.945608 
L 316.987416 233.947633 
L 317.121904 238.396356 
L 317.525369 262.349673 
L 317.659857 265.187132 
L 317.794345 273.347447 
L 317.928833 270.311791 
L 318.063322 277.241906 
L 318.332298 270.989175 
L 318.466786 271.143045 
L 318.601274 271.614694 
L 318.735763 270.023465 
L 318.870251 271.389755 
L 319.004739 269.628189 
L 319.139227 261.858993 
L 319.273715 263.164238 
L 319.408204 263.125964 
L 319.542692 263.281031 
L 319.67718 276.801394 
L 319.946157 268.900666 
L 320.349621 224.783162 
L 320.618598 130.803766 
L 320.753086 132.018698 
L 320.887574 125.757194 
L 321.291039 154.766153 
L 321.828991 242.500796 
L 322.097968 263.443273 
L 322.232456 266.225311 
L 322.366944 266.116621 
L 322.501433 263.730342 
L 322.635921 267.381292 
L 322.770409 265.870094 
L 322.904897 278.272949 
L 323.173874 270.80006 
L 323.308362 254.630858 
L 323.44285 225.089398 
L 323.577338 232.996616 
L 323.846315 138.730693 
L 324.115291 167.161958 
L 324.384268 152.746821 
L 324.518756 154.624255 
L 324.787732 203.604455 
L 325.191197 256.356555 
L 325.325685 262.706051 
L 325.460173 263.756675 
L 325.594661 263.495297 
L 325.72915 262.697465 
L 325.863638 266.543505 
L 325.998126 265.900059 
L 326.132614 275.071333 
L 326.401591 270.708093 
L 326.805055 224.408668 
L 327.074032 131.261259 
L 327.343008 168.08625 
L 327.611985 161.878521 
L 327.880961 178.004295 
L 328.418914 254.104985 
L 328.68789 261.570552 
L 329.091355 268.739529 
L 329.225843 267.855978 
L 329.360331 280.121552 
L 329.629308 270.595837 
L 329.898284 222.678248 
L 330.032772 222.530339 
L 330.301749 139.758361 
L 330.570725 165.363679 
L 330.705214 165.512608 
L 330.839702 154.797554 
L 330.97419 158.278689 
L 331.512143 244.882153 
L 331.781119 262.289358 
L 332.050096 264.315579 
L 332.184584 263.31177 
L 332.319072 264.071539 
L 332.45356 267.113542 
L 332.588049 278.849963 
L 332.857025 266.573685 
L 333.126001 224.593085 
L 333.26049 226.667125 
L 333.529466 143.280331 
L 333.798442 174.330608 
L 334.067419 164.407029 
L 334.201907 165.761403 
L 334.336395 180.697623 
L 334.605372 227.972339 
L 335.008836 260.276757 
L 335.546789 270.577419 
L 335.815766 266.487575 
L 335.950254 265.455804 
L 336.084742 261.499415 
L 336.353718 234.46596 
L 336.622695 241.541538 
L 336.757183 249.039188 
L 337.02616 247.846577 
L 337.160648 254.866802 
L 337.295136 254.829718 
L 337.698601 265.067245 
L 337.967577 268.640309 
L 338.102065 268.272186 
L 338.236553 266.698129 
L 338.371042 267.104579 
L 338.50553 266.322742 
L 338.640018 266.670741 
L 338.774506 267.807637 
L 338.908995 263.884407 
L 339.043483 265.270463 
L 339.177971 264.776624 
L 339.312459 260.467826 
L 339.581436 223.901403 
L 340.119388 264.679325 
L 340.253877 269.055714 
L 340.388365 269.750949 
L 340.522853 272.040045 
L 340.657341 271.416123 
L 340.791829 273.131628 
L 340.926318 271.318101 
L 341.060806 273.238291 
L 341.329782 271.977626 
L 341.464271 268.058237 
L 341.598759 269.113784 
L 341.733247 268.979199 
L 341.867735 269.058494 
L 342.136712 271.989521 
L 342.2712 282.735165 
L 342.540176 272.825473 
L 342.674664 256.586355 
L 342.809153 222.838035 
L 342.943641 227.463782 
L 343.212617 128.401666 
L 343.347106 134.393843 
L 343.616082 159.29263 
L 343.75057 162.74062 
L 344.019547 198.206227 
L 344.288523 236.641877 
L 344.423011 241.650228 
L 344.691988 259.402798 
L 344.826476 261.292014 
L 345.22994 271.498005 
L 345.364429 270.359378 
L 345.498917 278.805055 
L 345.767893 274.272322 
L 346.171358 229.875655 
L 346.440334 147.517331 
L 346.574823 174.450992 
L 346.843799 164.471498 
L 346.978287 162.306073 
L 347.112775 174.89659 
L 347.51624 232.91411 
L 347.919705 258.796109 
L 348.457658 268.444337 
L 348.592146 267.585758 
L 348.726634 280.208448 
L 348.861122 275.644313 
L 348.99561 276.541049 
L 349.668052 139.286723 
L 349.80254 166.006593 
L 349.937028 158.50671 
L 350.071516 159.706358 
L 350.206004 157.243709 
L 350.340493 167.341122 
L 351.012934 250.294108 
L 351.416398 267.566653 
L 351.550886 265.390129 
L 351.685375 268.692201 
L 351.819863 269.048262 
L 351.954351 282.119242 
L 352.223328 268.892356 
L 352.492304 234.976138 
L 352.626792 225.470014 
L 352.895769 135.106955 
L 353.030257 166.607713 
L 353.164745 163.513888 
L 353.299233 168.541317 
L 353.433721 161.204173 
L 353.702698 186.09644 
L 354.106163 235.067398 
L 354.375139 259.644506 
L 354.644115 270.193464 
L 354.778604 268.410409 
L 355.182068 275.150941 
L 355.316556 272.987599 
L 355.451045 268.7236 
L 355.720021 233.111807 
L 355.854509 221.145251 
L 356.123486 168.144103 
L 356.257974 179.609744 
L 356.52695 151.417084 
L 356.661439 149.910594 
L 357.064903 213.764828 
L 357.468368 258.814754 
L 357.737344 269.462375 
L 357.871832 269.31092 
L 358.275297 278.606008 
L 358.544274 272.40243 
L 358.678762 269.883525 
L 358.81325 245.673014 
L 358.947738 242.195888 
L 359.082226 252.34171 
L 359.351203 235.661341 
L 359.620179 253.539639 
L 359.754667 252.388062 
L 359.889156 247.094923 
L 360.023644 262.663505 
L 360.158132 259.766146 
L 360.696085 276.704989 
L 360.965061 272.344662 
L 361.09955 272.061969 
L 361.368526 277.637861 
L 361.637502 276.545265 
L 361.771991 272.384475 
L 362.040967 243.778006 
L 362.57892 277.776627 
L 362.713408 276.522741 
L 362.982385 278.562629 
L 363.116873 276.828018 
L 363.251361 280.571287 
L 363.385849 281.034988 
L 363.520337 279.021133 
L 363.789314 280.132801 
L 364.192778 271.190366 
L 364.327267 270.959225 
L 364.461755 272.899959 
L 364.596243 235.949068 
L 364.730731 250.338557 
L 364.86522 249.932817 
L 364.999708 242.097468 
L 365.537661 162.921697 
L 365.672149 114.487714 
L 365.806637 111.411334 
L 365.941125 93.59657 
L 366.075613 100.346469 
L 366.210102 98.026595 
L 366.34459 105.18893 
L 366.882543 228.493783 
L 367.151519 259.603876 
L 367.286007 260.984525 
L 367.420496 260.412884 
L 367.554984 259.084207 
L 367.689472 254.651721 
L 367.82396 261.047593 
L 367.958448 261.241868 
L 368.227425 255.231941 
L 368.361913 226.167784 
L 368.496401 167.752947 
L 368.63089 174.472119 
L 368.899866 118.796704 
L 369.168842 98.619474 
L 369.437819 73.581271 
L 369.841283 172.996735 
L 370.379236 259.54077 
L 370.513724 261.114727 
L 370.648213 250.544047 
L 370.917189 258.414676 
L 371.051677 283.882571 
L 371.186166 272.945304 
L 371.320654 271.640257 
L 371.455142 268.431885 
L 371.858607 212.411338 
L 372.127583 130.459806 
L 372.665536 208.396648 
L 373.069001 221.855925 
L 373.472465 254.14496 
L 373.741442 264.318495 
L 373.87593 262.368176 
L 374.010418 265.121102 
L 374.144906 265.429496 
L 374.413883 284.327356 
L 374.682859 272.714846 
L 375.3553 165.132233 
L 375.489788 176.73915 
L 375.624277 173.811854 
L 375.758765 174.986888 
L 376.027741 188.468259 
L 376.700182 255.381223 
L 376.969159 266.626665 
L 377.103647 266.038463 
L 377.238135 266.101812 
L 377.372623 267.174395 
L 377.507112 280.739943 
L 377.6416 271.879124 
L 377.776088 272.042624 
L 377.910576 267.405335 
L 378.045064 236.73996 
L 378.448529 268.99946 
L 378.583017 252.793966 
L 378.717505 267.523292 
L 378.851994 264.355998 
L 378.986482 277.551552 
L 379.12097 272.790158 
L 379.255458 285.82471 
L 379.389947 269.185027 
L 379.524435 269.506932 
L 379.658923 272.30762 
L 379.793411 271.867579 
L 380.062388 278.829903 
L 380.196876 279.278474 
L 380.331364 273.352238 
L 380.465852 272.839948 
L 380.60034 273.969704 
L 380.734829 257.928844 
L 380.869317 263.992577 
L 381.003805 262.919305 
L 381.138293 260.360504 
L 381.272782 243.861658 
L 381.40727 196.659052 
L 381.541758 209.407773 
L 381.810734 126.180497 
L 382.079711 137.806176 
L 382.348687 140.353631 
L 383.290105 261.388745 
L 383.424593 268.047298 
L 383.693569 266.095421 
L 383.828058 266.129569 
L 383.962546 257.11745 
L 384.097034 257.914771 
L 384.231522 255.836537 
L 384.36601 249.763685 
L 384.634987 218.773721 
L 384.769475 219.580306 
L 385.038451 138.300718 
L 385.307428 153.461577 
L 385.441916 146.463001 
L 385.576404 152.11714 
L 385.845381 192.631338 
L 385.979869 205.945784 
L 386.248845 244.578286 
L 386.65231 270.131839 
L 386.786798 266.160132 
L 386.921286 270.498299 
L 387.055775 267.944017 
L 387.190263 276.57602 
L 387.459239 270.76491 
L 387.593727 262.085977 
L 387.728216 233.552922 
L 387.862704 233.097891 
L 388.266169 273.320806 
L 388.400657 274.354237 
L 388.535145 291.030964 
L 388.804121 281.913439 
L 388.93861 295.488 
L 389.207586 285.47643 
L 389.342074 277.904951 
L 389.745539 286.283722 
L 389.880027 286.961957 
L 390.014515 274.98763 
L 390.283492 279.813104 
L 390.41798 257.160752 
L 390.552468 265.632547 
L 390.686956 263.620233 
L 390.821445 250.671692 
L 391.090421 199.062615 
L 391.224909 216.499314 
L 391.359397 206.592152 
L 391.493886 143.955109 
L 391.628374 171.976153 
L 391.762862 153.05749 
L 392.031839 173.177821 
L 392.70428 241.336029 
L 393.107744 274.908891 
L 393.242232 268.309509 
L 393.511209 269.022918 
L 393.645697 259.569402 
L 393.780185 258.948911 
L 393.914673 264.646724 
L 394.049162 254.890007 
L 394.18365 207.016775 
L 394.318138 208.223319 
L 394.452626 198.037009 
L 394.721603 135.16661 
L 394.856091 144.778307 
L 394.990579 142.714232 
L 395.125067 135.528383 
L 395.394044 158.607215 
L 395.528532 170.370492 
L 396.066485 253.828033 
L 396.335461 263.303774 
L 396.46995 262.495015 
L 396.604438 262.49536 
L 396.738926 255.028653 
L 396.873414 286.66936 
L 397.007902 274.849404 
L 397.142391 276.111538 
L 397.411367 244.385869 
L 397.545855 226.587833 
L 397.680343 226.517067 
L 397.814832 165.927006 
L 397.94932 157.760034 
L 398.083808 166.987167 
L 398.218296 160.695426 
L 398.352785 164.012556 
L 398.487273 161.62918 
L 398.487273 161.62918 
" clip-path="url(#p638a18129d)" style="fill: none; stroke: #ff7f0e; stroke-width: 1.5; stroke-linecap: square"/>
   </g>
   <g id="patch_3">
    <path d="M 57.6 307.584 
L 57.6 41.472 
" style="fill: none; stroke: #000000; stroke-width: 0.8; stroke-linejoin: miter; stroke-linecap: square"/>
   </g>
   <g id="patch_4">
    <path d="M 414.72 307.584 
L 414.72 41.472 
" style="fill: none; stroke: #000000; stroke-width: 0.8; stroke-linejoin: miter; stroke-linecap: square"/>
   </g>
   <g id="patch_5">
    <path d="M 57.6 307.584 
L 414.72 307.584 
" style="fill: none; stroke: #000000; stroke-width: 0.8; stroke-linejoin: miter; stroke-linecap: square"/>
   </g>
   <g id="patch_6">
    <path d="M 57.6 41.472 
L 414.72 41.472 
" style="fill: none; stroke: #000000; stroke-width: 0.8; stroke-linejoin: miter; stroke-linecap: square"/>
   </g>
  </g>
 </g>
 <defs>
  <clipPath id="p638a18129d">
   <rect x="57.6" y="41.472" width="357.12" height="266.112"/>
  </clipPath>
 </defs>
</svg>
