<?xml version="1.0" encoding="utf-8" standalone="no"?>
<!DOCTYPE svg PUBLIC "-//W3C//DTD SVG 1.1//EN"
  "http://www.w3.org/Graphics/SVG/1.1/DTD/svg11.dtd">
<svg xmlns:xlink="http://www.w3.org/1999/xlink" width="460.8pt" height="345.6pt" viewBox="0 0 460.8 345.6" xmlns="http://www.w3.org/2000/svg" version="1.1">
 <metadata>
  <rdf:RDF xmlns:dc="http://purl.org/dc/elements/1.1/" xmlns:cc="http://creativecommons.org/ns#" xmlns:rdf="http://www.w3.org/1999/02/22-rdf-syntax-ns#">
   <cc:Work>
    <dc:type rdf:resource="http://purl.org/dc/dcmitype/StillImage"/>
    <dc:date>2023-04-04T04:11:30.200840</dc:date>
    <dc:format>image/svg+xml</dc:format>
    <dc:creator>
     <cc:Agent>
      <dc:title>Matplotlib v3.5.2, https://matplotlib.org/</dc:title>
     </cc:Agent>
    </dc:creator>
   </cc:Work>
  </rdf:RDF>
 </metadata>
 <defs>
  <style type="text/css">*{stroke-linejoin: round; stroke-linecap: butt}</style>
 </defs>
 <g id="figure_1">
  <g id="patch_1">
   <path d="M 0 345.6 
L 460.8 345.6 
L 460.8 0 
L 0 0 
z
" style="fill: #ffffff"/>
  </g>
  <g id="axes_1">
   <g id="patch_2">
    <path d="M 57.6 307.584 
L 414.72 307.584 
L 414.72 41.472 
L 57.6 41.472 
z
" style="fill: #ffffff"/>
   </g>
   <g id="matplotlib.axis_1">
    <g id="xtick_1">
     <g id="line2d_1">
      <defs>
       <path id="m62497f0856" d="M 0 0 
L 0 3.5 
" style="stroke: #000000; stroke-width: 0.8"/>
      </defs>
      <g>
       <use xlink:href="#m62497f0856" x="73.832727" y="307.584" style="stroke: #000000; stroke-width: 0.8"/>
      </g>
     </g>
     <g id="text_1">
      <!-- 0 -->
      <g transform="translate(70.651477 322.182437)scale(0.1 -0.1)">
       <defs>
        <path id="DejaVuSans-30" d="M 2034 4250 
Q 1547 4250 1301 3770 
Q 1056 3291 1056 2328 
Q 1056 1369 1301 889 
Q 1547 409 2034 409 
Q 2525 409 2770 889 
Q 3016 1369 3016 2328 
Q 3016 3291 2770 3770 
Q 2525 4250 2034 4250 
z
M 2034 4750 
Q 2819 4750 3233 4129 
Q 3647 3509 3647 2328 
Q 3647 1150 3233 529 
Q 2819 -91 2034 -91 
Q 1250 -91 836 529 
Q 422 1150 422 2328 
Q 422 3509 836 4129 
Q 1250 4750 2034 4750 
z
" transform="scale(0.015625)"/>
       </defs>
       <use xlink:href="#DejaVuSans-30"/>
      </g>
     </g>
    </g>
    <g id="xtick_2">
     <g id="line2d_2">
      <g>
       <use xlink:href="#m62497f0856" x="141.076834" y="307.584" style="stroke: #000000; stroke-width: 0.8"/>
      </g>
     </g>
     <g id="text_2">
      <!-- 500 -->
      <g transform="translate(131.533084 322.182437)scale(0.1 -0.1)">
       <defs>
        <path id="DejaVuSans-35" d="M 691 4666 
L 3169 4666 
L 3169 4134 
L 1269 4134 
L 1269 2991 
Q 1406 3038 1543 3061 
Q 1681 3084 1819 3084 
Q 2600 3084 3056 2656 
Q 3513 2228 3513 1497 
Q 3513 744 3044 326 
Q 2575 -91 1722 -91 
Q 1428 -91 1123 -41 
Q 819 9 494 109 
L 494 744 
Q 775 591 1075 516 
Q 1375 441 1709 441 
Q 2250 441 2565 725 
Q 2881 1009 2881 1497 
Q 2881 1984 2565 2268 
Q 2250 2553 1709 2553 
Q 1456 2553 1204 2497 
Q 953 2441 691 2322 
L 691 4666 
z
" transform="scale(0.015625)"/>
       </defs>
       <use xlink:href="#DejaVuSans-35"/>
       <use xlink:href="#DejaVuSans-30" x="63.623047"/>
       <use xlink:href="#DejaVuSans-30" x="127.246094"/>
      </g>
     </g>
    </g>
    <g id="xtick_3">
     <g id="line2d_3">
      <g>
       <use xlink:href="#m62497f0856" x="208.32094" y="307.584" style="stroke: #000000; stroke-width: 0.8"/>
      </g>
     </g>
     <g id="text_3">
      <!-- 1000 -->
      <g transform="translate(195.59594 322.182437)scale(0.1 -0.1)">
       <defs>
        <path id="DejaVuSans-31" d="M 794 531 
L 1825 531 
L 1825 4091 
L 703 3866 
L 703 4441 
L 1819 4666 
L 2450 4666 
L 2450 531 
L 3481 531 
L 3481 0 
L 794 0 
L 794 531 
z
" transform="scale(0.015625)"/>
       </defs>
       <use xlink:href="#DejaVuSans-31"/>
       <use xlink:href="#DejaVuSans-30" x="63.623047"/>
       <use xlink:href="#DejaVuSans-30" x="127.246094"/>
       <use xlink:href="#DejaVuSans-30" x="190.869141"/>
      </g>
     </g>
    </g>
    <g id="xtick_4">
     <g id="line2d_4">
      <g>
       <use xlink:href="#m62497f0856" x="275.565046" y="307.584" style="stroke: #000000; stroke-width: 0.8"/>
      </g>
     </g>
     <g id="text_4">
      <!-- 1500 -->
      <g transform="translate(262.840046 322.182437)scale(0.1 -0.1)">
       <use xlink:href="#DejaVuSans-31"/>
       <use xlink:href="#DejaVuSans-35" x="63.623047"/>
       <use xlink:href="#DejaVuSans-30" x="127.246094"/>
       <use xlink:href="#DejaVuSans-30" x="190.869141"/>
      </g>
     </g>
    </g>
    <g id="xtick_5">
     <g id="line2d_5">
      <g>
       <use xlink:href="#m62497f0856" x="342.809153" y="307.584" style="stroke: #000000; stroke-width: 0.8"/>
      </g>
     </g>
     <g id="text_5">
      <!-- 2000 -->
      <g transform="translate(330.084153 322.182437)scale(0.1 -0.1)">
       <defs>
        <path id="DejaVuSans-32" d="M 1228 531 
L 3431 531 
L 3431 0 
L 469 0 
L 469 531 
Q 828 903 1448 1529 
Q 2069 2156 2228 2338 
Q 2531 2678 2651 2914 
Q 2772 3150 2772 3378 
Q 2772 3750 2511 3984 
Q 2250 4219 1831 4219 
Q 1534 4219 1204 4116 
Q 875 4013 500 3803 
L 500 4441 
Q 881 4594 1212 4672 
Q 1544 4750 1819 4750 
Q 2544 4750 2975 4387 
Q 3406 4025 3406 3419 
Q 3406 3131 3298 2873 
Q 3191 2616 2906 2266 
Q 2828 2175 2409 1742 
Q 1991 1309 1228 531 
z
" transform="scale(0.015625)"/>
       </defs>
       <use xlink:href="#DejaVuSans-32"/>
       <use xlink:href="#DejaVuSans-30" x="63.623047"/>
       <use xlink:href="#DejaVuSans-30" x="127.246094"/>
       <use xlink:href="#DejaVuSans-30" x="190.869141"/>
      </g>
     </g>
    </g>
    <g id="xtick_6">
     <g id="line2d_6">
      <g>
       <use xlink:href="#m62497f0856" x="410.053259" y="307.584" style="stroke: #000000; stroke-width: 0.8"/>
      </g>
     </g>
     <g id="text_6">
      <!-- 2500 -->
      <g transform="translate(397.328259 322.182437)scale(0.1 -0.1)">
       <use xlink:href="#DejaVuSans-32"/>
       <use xlink:href="#DejaVuSans-35" x="63.623047"/>
       <use xlink:href="#DejaVuSans-30" x="127.246094"/>
       <use xlink:href="#DejaVuSans-30" x="190.869141"/>
      </g>
     </g>
    </g>
   </g>
   <g id="matplotlib.axis_2">
    <g id="ytick_1">
     <g id="line2d_7">
      <defs>
       <path id="m7682b1f781" d="M 0 0 
L -3.5 0 
" style="stroke: #000000; stroke-width: 0.8"/>
      </defs>
      <g>
       <use xlink:href="#m7682b1f781" x="57.6" y="279.53766" style="stroke: #000000; stroke-width: 0.8"/>
      </g>
     </g>
     <g id="text_7">
      <!-- 100 -->
      <g transform="translate(31.5125 283.336879)scale(0.1 -0.1)">
       <use xlink:href="#DejaVuSans-31"/>
       <use xlink:href="#DejaVuSans-30" x="63.623047"/>
       <use xlink:href="#DejaVuSans-30" x="127.246094"/>
      </g>
     </g>
    </g>
    <g id="ytick_2">
     <g id="line2d_8">
      <g>
       <use xlink:href="#m7682b1f781" x="57.6" y="231.922899" style="stroke: #000000; stroke-width: 0.8"/>
      </g>
     </g>
     <g id="text_8">
      <!-- 200 -->
      <g transform="translate(31.5125 235.722117)scale(0.1 -0.1)">
       <use xlink:href="#DejaVuSans-32"/>
       <use xlink:href="#DejaVuSans-30" x="63.623047"/>
       <use xlink:href="#DejaVuSans-30" x="127.246094"/>
      </g>
     </g>
    </g>
    <g id="ytick_3">
     <g id="line2d_9">
      <g>
       <use xlink:href="#m7682b1f781" x="57.6" y="184.308137" style="stroke: #000000; stroke-width: 0.8"/>
      </g>
     </g>
     <g id="text_9">
      <!-- 300 -->
      <g transform="translate(31.5125 188.107356)scale(0.1 -0.1)">
       <defs>
        <path id="DejaVuSans-33" d="M 2597 2516 
Q 3050 2419 3304 2112 
Q 3559 1806 3559 1356 
Q 3559 666 3084 287 
Q 2609 -91 1734 -91 
Q 1441 -91 1130 -33 
Q 819 25 488 141 
L 488 750 
Q 750 597 1062 519 
Q 1375 441 1716 441 
Q 2309 441 2620 675 
Q 2931 909 2931 1356 
Q 2931 1769 2642 2001 
Q 2353 2234 1838 2234 
L 1294 2234 
L 1294 2753 
L 1863 2753 
Q 2328 2753 2575 2939 
Q 2822 3125 2822 3475 
Q 2822 3834 2567 4026 
Q 2313 4219 1838 4219 
Q 1578 4219 1281 4162 
Q 984 4106 628 3988 
L 628 4550 
Q 988 4650 1302 4700 
Q 1616 4750 1894 4750 
Q 2613 4750 3031 4423 
Q 3450 4097 3450 3541 
Q 3450 3153 3228 2886 
Q 3006 2619 2597 2516 
z
" transform="scale(0.015625)"/>
       </defs>
       <use xlink:href="#DejaVuSans-33"/>
       <use xlink:href="#DejaVuSans-30" x="63.623047"/>
       <use xlink:href="#DejaVuSans-30" x="127.246094"/>
      </g>
     </g>
    </g>
    <g id="ytick_4">
     <g id="line2d_10">
      <g>
       <use xlink:href="#m7682b1f781" x="57.6" y="136.693375" style="stroke: #000000; stroke-width: 0.8"/>
      </g>
     </g>
     <g id="text_10">
      <!-- 400 -->
      <g transform="translate(31.5125 140.492594)scale(0.1 -0.1)">
       <defs>
        <path id="DejaVuSans-34" d="M 2419 4116 
L 825 1625 
L 2419 1625 
L 2419 4116 
z
M 2253 4666 
L 3047 4666 
L 3047 1625 
L 3713 1625 
L 3713 1100 
L 3047 1100 
L 3047 0 
L 2419 0 
L 2419 1100 
L 313 1100 
L 313 1709 
L 2253 4666 
z
" transform="scale(0.015625)"/>
       </defs>
       <use xlink:href="#DejaVuSans-34"/>
       <use xlink:href="#DejaVuSans-30" x="63.623047"/>
       <use xlink:href="#DejaVuSans-30" x="127.246094"/>
      </g>
     </g>
    </g>
    <g id="ytick_5">
     <g id="line2d_11">
      <g>
       <use xlink:href="#m7682b1f781" x="57.6" y="89.078613" style="stroke: #000000; stroke-width: 0.8"/>
      </g>
     </g>
     <g id="text_11">
      <!-- 500 -->
      <g transform="translate(31.5125 92.877832)scale(0.1 -0.1)">
       <use xlink:href="#DejaVuSans-35"/>
       <use xlink:href="#DejaVuSans-30" x="63.623047"/>
       <use xlink:href="#DejaVuSans-30" x="127.246094"/>
      </g>
     </g>
    </g>
   </g>
   <g id="line2d_12">
    <path d="M 73.832727 282.596433 
L 74.101704 282.049339 
L 74.236192 280.943248 
L 74.37068 281.903162 
L 74.505168 281.41273 
L 74.639657 282.0122 
L 74.774145 275.567065 
L 74.908633 248.562829 
L 75.177609 247.07582 
L 75.312098 247.629104 
L 75.446586 247.68148 
L 75.581074 248.544736 
L 75.715562 247.79147 
L 75.85005 247.769567 
L 76.253515 242.8043 
L 76.522492 276.72458 
L 76.65698 277.036457 
L 76.925956 275.33661 
L 77.060444 266.516451 
L 77.194933 268.751012 
L 77.463909 268.81434 
L 77.598397 270.392293 
L 77.732885 265.087532 
L 77.867374 251.734449 
L 78.405327 103.904422 
L 78.674303 102.986409 
L 78.808791 110.095769 
L 78.943279 105.31239 
L 79.481232 157.798142 
L 79.750209 227.890404 
L 80.019185 262.472054 
L 80.153673 264.587577 
L 80.288161 260.768397 
L 80.42265 271.122227 
L 80.557138 270.689409 
L 80.826114 273.186803 
L 80.960603 270.657031 
L 81.095091 260.385099 
L 81.364067 167.944372 
L 81.498555 180.195174 
L 81.767532 160.869294 
L 82.036508 168.839529 
L 82.170996 165.751236 
L 82.305485 159.800819 
L 83.112414 259.908951 
L 83.650367 285.986128 
L 83.784855 286.006602 
L 83.919343 287.528846 
L 84.053831 287.720257 
L 84.18832 285.631874 
L 84.322808 278.436807 
L 84.726273 188.67203 
L 84.860761 180.04233 
L 84.995249 184.121963 
L 85.129737 169.300916 
L 85.264225 177.80777 
L 85.398714 178.551988 
L 85.66769 186.814102 
L 85.802178 195.548077 
L 86.340131 262.025903 
L 86.474619 264.030485 
L 86.609107 268.920521 
L 86.878084 286.36657 
L 87.012572 288.608273 
L 87.14706 288.283064 
L 87.281549 289.767692 
L 87.416037 289.671034 
L 87.550525 288.863012 
L 87.819501 261.47262 
L 87.95399 261.617845 
L 88.088478 255.955021 
L 88.222966 257.4087 
L 88.357454 256.654006 
L 88.491942 253.309545 
L 88.626431 256.132624 
L 88.760919 249.167537 
L 88.895407 252.032993 
L 89.029895 252.031565 
L 89.164384 254.581811 
L 89.43336 275.794664 
L 89.567848 277.451182 
L 89.702336 276.955036 
L 89.836825 278.010655 
L 89.971313 262.923918 
L 90.105801 263.63433 
L 90.240289 265.172287 
L 90.374777 264.942784 
L 90.509266 266.173625 
L 90.643754 266.344562 
L 90.778242 268.435326 
L 90.91273 265.225615 
L 91.047218 255.327935 
L 91.181707 254.161849 
L 91.316195 247.259137 
L 91.450683 251.675406 
L 91.585171 249.717487 
L 91.71966 251.209734 
L 91.854148 251.434952 
L 92.123124 254.405637 
L 92.257612 253.835212 
L 92.526589 259.407568 
L 92.795565 265.977929 
L 92.930053 266.929271 
L 93.064542 265.793183 
L 93.19903 275.771333 
L 93.468006 275.895607 
L 93.602495 276.952179 
L 93.736983 275.722766 
L 93.871471 273.209182 
L 94.005959 268.00965 
L 94.6784 161.155459 
L 94.812888 156.773948 
L 95.081865 168.591456 
L 95.216353 163.393353 
L 95.350841 152.166744 
L 96.023282 264.35617 
L 96.157771 265.083247 
L 96.426747 268.997181 
L 96.561235 268.66483 
L 96.695723 268.741965 
L 96.830212 270.618463 
L 96.9647 269.982806 
L 97.099188 268.560077 
L 97.233676 260.120361 
L 97.368164 242.61527 
L 97.502653 201.727997 
L 97.637141 194.655301 
L 97.771629 179.233355 
L 97.906117 187.60165 
L 98.040606 180.910347 
L 98.175094 181.617903 
L 98.309582 176.315999 
L 98.44407 177.952995 
L 98.713047 189.285308 
L 98.982023 231.09583 
L 99.250999 265.83318 
L 99.385488 270.504664 
L 99.519976 271.256501 
L 99.654464 281.030383 
L 99.788952 281.042763 
L 99.923441 280.044758 
L 100.192417 281.278932 
L 100.326905 281.359401 
L 100.461393 280.706603 
L 100.595882 281.111328 
L 100.73037 281.937444 
L 100.864858 280.403773 
L 100.999346 281.55605 
L 101.133834 280.650894 
L 101.268323 278.442521 
L 101.402811 271.439342 
L 101.537299 275.698006 
L 101.806276 265.344652 
L 101.940764 267.498744 
L 102.075252 267.350662 
L 102.20974 267.996794 
L 102.344228 270.36801 
L 102.478717 276.167964 
L 102.613205 274.321463 
L 102.747693 279.973812 
L 102.882181 266.558352 
L 103.016669 266.586921 
L 103.151158 271.47791 
L 103.285646 271.259358 
L 103.554622 267.091638 
L 103.68911 262.916299 
L 103.823599 245.545006 
L 104.092575 183.471545 
L 104.227063 162.055378 
L 104.361552 169.197592 
L 104.630528 144.400776 
L 105.033993 159.670354 
L 105.168481 170.41653 
L 105.706434 253.220982 
L 105.840922 253.099088 
L 105.97541 261.770688 
L 106.109898 278.151595 
L 106.378875 281.330832 
L 106.513363 281.317024 
L 106.647851 283.467307 
L 106.782339 283.199712 
L 106.916828 284.307707 
L 107.320292 246.853459 
L 107.45478 253.895207 
L 107.589269 251.369243 
L 107.723757 251.461616 
L 108.26171 246.414451 
L 108.396198 243.01809 
L 108.530686 245.270745 
L 108.934151 276.781718 
L 109.068639 278.292058 
L 109.203127 277.228344 
L 109.337615 272.746843 
L 109.606592 274.290514 
L 109.875568 275.339467 
L 110.144545 276.385087 
L 110.413521 275.151389 
L 110.548009 275.017115 
L 110.951474 270.980812 
L 111.085962 272.15023 
L 111.22045 271.804071 
L 111.623915 266.0284 
L 111.758403 266.534545 
L 112.02738 270.302777 
L 112.430844 271.894539 
L 112.565333 261.690219 
L 112.834309 265.874605 
L 112.968797 266.395986 
L 113.103285 267.899184 
L 113.237774 268.076787 
L 113.50675 270.683219 
L 113.641238 271.509812 
L 114.313679 260.324628 
L 114.448168 259.965136 
L 114.582656 258.489555 
L 114.98612 247.707192 
L 115.524073 258.719534 
L 115.658561 259.267104 
L 115.927538 261.482619 
L 116.062026 260.204639 
L 116.196514 266.273616 
L 116.331002 265.858415 
L 116.465491 266.466456 
L 116.599979 256.75733 
L 117.137932 78.998092 
L 117.406908 64.372266 
L 117.810373 80.826023 
L 118.213837 147.678577 
L 118.482814 209.694899 
L 118.75179 243.948959 
L 118.886279 245.475012 
L 119.289743 253.42763 
L 119.424231 254.838455 
L 119.55872 257.59535 
L 119.693208 257.910559 
L 119.827696 248.344278 
L 120.365649 91.789322 
L 120.634625 73.318603 
L 120.769114 76.99113 
L 120.903602 70.604562 
L 121.03809 71.925871 
L 121.441555 135.03162 
L 121.710531 201.519921 
L 121.845019 229.555493 
L 122.248484 240.464035 
L 122.51746 255.900264 
L 122.651948 256.058821 
L 122.786437 257.788666 
L 122.920925 256.454976 
L 123.055413 248.336183 
L 123.727854 60.435953 
L 123.862342 53.568 
L 124.534783 107.4222 
L 125.072736 247.641008 
L 125.207225 252.785306 
L 125.341713 253.246217 
L 125.476201 253.200031 
L 125.745177 266.729766 
L 125.879666 268.159161 
L 126.014154 268.387712 
L 126.28313 255.005583 
L 126.821083 92.889223 
L 126.955571 74.632294 
L 127.09006 81.196466 
L 127.359036 105.608078 
L 127.493524 108.038335 
L 127.762501 126.440488 
L 127.896989 149.126065 
L 128.300453 246.031629 
L 128.434942 251.803966 
L 128.56943 249.986035 
L 128.703918 257.448696 
L 128.838406 258.169108 
L 129.241871 264.828032 
L 129.510847 244.22322 
L 130.0488 83.359128 
L 130.183288 74.297087 
L 130.317777 86.154591 
L 130.452265 114.831057 
L 130.586753 113.91733 
L 130.721241 110.288609 
L 130.855729 116.646132 
L 131.124706 169.647075 
L 131.393682 234.956911 
L 131.662659 257.940081 
L 131.931635 257.74486 
L 132.066123 257.563448 
L 132.3351 268.777677 
L 132.469588 268.630071 
L 132.604076 268.728633 
L 132.738564 268.687208 
L 133.007541 256.856845 
L 133.276517 246.450639 
L 133.679982 240.901138 
L 133.81447 239.725053 
L 133.948958 234.652177 
L 134.486911 244.478435 
L 134.755888 251.528753 
L 134.890376 251.414477 
L 135.697305 265.583678 
L 135.831793 270.309443 
L 135.966282 270.915579 
L 136.10077 268.943376 
L 136.235258 270.438956 
L 136.369746 270.166123 
L 136.504234 265.888889 
L 136.638723 265.730808 
L 136.907699 263.806219 
L 137.311164 252.980051 
L 137.445652 253.487148 
L 137.58014 250.818817 
L 137.983605 257.596302 
L 138.118093 256.69924 
L 138.252581 258.524314 
L 138.387069 262.992483 
L 138.521558 261.765927 
L 138.656046 261.965909 
L 138.925022 266.636441 
L 139.193999 250.478371 
L 139.731951 81.515008 
L 139.86644 72.644854 
L 140.269904 98.51824 
L 140.538881 122.817481 
L 140.673369 129.871132 
L 140.807857 144.156037 
L 141.076834 223.846007 
L 141.480298 256.861606 
L 142.018251 265.256089 
L 142.152739 264.794702 
L 142.421716 241.182541 
L 142.959669 91.461256 
L 143.094157 84.083825 
L 143.228645 83.59863 
L 143.363133 93.771048 
L 143.497621 84.545212 
L 143.63211 89.645229 
L 144.573527 258.102923 
L 144.708015 261.574515 
L 144.842504 261.749262 
L 145.11148 263.980013 
L 145.245968 266.112202 
L 145.380456 262.055424 
L 145.783921 201.205187 
L 146.052897 109.987207 
L 146.187386 90.96511 
L 146.456362 106.199453 
L 146.59085 117.463201 
L 146.725339 111.801806 
L 146.859827 119.177809 
L 146.994315 114.126359 
L 147.128803 126.920445 
L 147.532268 233.647505 
L 147.801244 259.533271 
L 147.935732 259.734681 
L 148.204709 264.980875 
L 148.339197 264.959449 
L 148.473685 265.460832 
L 148.742662 264.412355 
L 148.87715 246.806797 
L 149.280615 119.042583 
L 149.415103 115.02104 
L 149.549591 105.978044 
L 149.684079 107.228408 
L 150.087544 139.800238 
L 150.222032 132.140451 
L 150.35652 137.6371 
L 150.894473 251.985855 
L 151.028961 261.119318 
L 151.16345 260.165595 
L 151.835891 268.306767 
L 151.970379 267.039738 
L 152.104867 246.177806 
L 152.508332 113.057883 
L 152.64282 116.153795 
L 152.911796 104.34962 
L 153.046285 118.440256 
L 153.180773 116.945629 
L 153.449749 151.275872 
L 153.718726 192.053154 
L 153.987702 248.443316 
L 154.12219 265.423693 
L 154.256678 266.796902 
L 154.525655 270.643223 
L 154.794631 272.340213 
L 155.063608 275.272806 
L 155.198096 276.907897 
L 155.332584 276.267002 
L 155.467072 271.904062 
L 155.601561 261.471191 
L 155.736049 260.613649 
L 155.870537 257.760097 
L 156.005025 259.890381 
L 156.274002 258.001027 
L 156.40849 258.535265 
L 156.542978 259.783724 
L 156.677466 258.591927 
L 157.215419 266.568352 
L 157.349907 268.566267 
L 157.484396 267.578261 
L 157.618884 268.345334 
L 157.88786 271.508383 
L 158.022348 271.987388 
L 158.291325 274.974262 
L 158.560301 279.238164 
L 158.694789 277.678304 
L 158.829278 278.638694 
L 158.963766 278.243967 
L 159.232742 275.540877 
L 159.367231 275.821804 
L 159.501719 273.846268 
L 160.039672 259.820388 
L 160.308648 260.07846 
L 160.443136 265.774137 
L 160.577624 265.491782 
L 160.712113 263.544338 
L 160.846601 264.243323 
L 160.981089 265.729379 
L 161.250066 269.470947 
L 161.519042 270.418481 
L 161.788018 253.722841 
L 162.460459 83.783376 
L 162.594948 83.448168 
L 162.729436 81.994965 
L 162.998412 101.506066 
L 163.132901 110.414788 
L 163.401877 151.512993 
L 163.670853 221.954748 
L 164.074318 255.905502 
L 164.208806 257.033972 
L 164.477783 269.637599 
L 164.612271 271.989292 
L 164.746759 267.30638 
L 165.015735 249.868902 
L 165.4192 120.648629 
L 165.553688 123.236967 
L 165.822665 109.401546 
L 165.957153 114.63536 
L 166.091641 111.563256 
L 166.360618 100.156664 
L 166.495106 106.32468 
L 166.89857 221.059115 
L 167.033059 228.001823 
L 167.302035 246.314937 
L 167.974476 264.702329 
L 168.108964 259.052361 
L 168.243453 245.098855 
L 168.377941 207.181316 
L 168.646917 106.151362 
L 168.781405 107.428866 
L 168.915894 102.922129 
L 169.050382 104.216774 
L 169.18487 107.996434 
L 169.319358 92.733046 
L 169.453847 95.200919 
L 169.857311 148.352802 
L 170.126288 226.222459 
L 170.395264 256.908745 
L 170.529752 257.784856 
L 170.66424 261.207406 
L 170.798729 261.39596 
L 171.067705 263.71337 
L 171.202193 266.535974 
L 171.47117 244.839831 
L 172.009123 110.196712 
L 172.143611 108.626854 
L 172.412587 96.91886 
L 172.95054 129.283566 
L 173.622981 258.869997 
L 173.757469 262.842496 
L 173.891958 276.166535 
L 174.026446 275.24138 
L 174.160934 275.197575 
L 174.42991 276.7222 
L 174.698887 261.993049 
L 174.833375 244.940774 
L 175.102351 176.705488 
L 175.371328 143.47086 
L 175.505816 140.583025 
L 175.640304 150.707352 
L 175.774792 150.398332 
L 175.909281 151.801539 
L 176.043769 156.588727 
L 176.178257 156.282088 
L 176.312745 170.696981 
L 176.581722 238.084725 
L 176.850698 265.101817 
L 176.985186 262.617755 
L 177.254163 267.333521 
L 177.388651 267.290191 
L 177.792116 273.822937 
L 177.926604 274.71 
L 178.19558 264.036199 
L 178.330069 263.597667 
L 178.599045 256.06025 
L 178.733533 255.496967 
L 178.868021 257.796284 
L 179.136998 254.299456 
L 179.271486 254.893212 
L 179.540462 252.416768 
L 179.809439 259.895143 
L 179.943927 267.138776 
L 180.212904 265.244185 
L 180.48188 275.075681 
L 180.616368 275.089489 
L 180.750856 275.460408 
L 180.885345 276.288905 
L 181.019833 276.375088 
L 181.692274 264.108573 
L 181.826762 265.399885 
L 181.96125 259.437089 
L 182.095738 261.213119 
L 182.364715 266.632632 
L 182.499203 267.906326 
L 182.633691 271.043187 
L 182.902668 270.228022 
L 183.171644 276.337948 
L 183.306132 277.74925 
L 183.440621 276.643159 
L 183.575109 274.34908 
L 183.844085 286.042313 
L 183.978573 286.990323 
L 184.113062 284.719099 
L 184.382038 273.371549 
L 184.919991 181.951682 
L 185.054479 185.953703 
L 185.188967 178.904814 
L 185.457944 182.752086 
L 185.592432 184.246238 
L 185.995897 221.874279 
L 186.264873 252.368677 
L 186.53385 268.072502 
L 186.802826 278.292058 
L 187.071802 288.753974 
L 187.206291 287.60741 
L 187.340779 288.737785 
L 187.475267 285.570927 
L 187.609755 277.599263 
L 188.01322 201.943692 
L 188.147708 185.598973 
L 188.282196 185.817049 
L 188.416684 184.861896 
L 188.551173 188.163028 
L 188.685661 194.543406 
L 188.820149 190.146183 
L 188.954637 194.566737 
L 189.089126 202.9117 
L 189.627078 264.708519 
L 189.761567 267.288763 
L 189.896055 272.507341 
L 190.030543 270.079464 
L 190.299519 271.905014 
L 190.434008 270.7375 
L 190.971961 274.151002 
L 191.106449 270.709884 
L 191.240937 270.226118 
L 191.375425 270.663221 
L 191.509913 266.248857 
L 191.644402 267.793003 
L 191.913378 266.531212 
L 192.182354 260.913146 
L 192.316843 261.260734 
L 192.451331 260.764112 
L 192.585819 262.08066 
L 192.720307 267.832047 
L 192.989284 269.085744 
L 193.392748 266.406938 
L 193.661725 269.280012 
L 193.796213 269.812821 
L 194.065189 261.950672 
L 194.603142 158.529029 
L 194.73763 153.632803 
L 194.872119 143.712267 
L 195.006607 145.283078 
L 195.141095 150.012176 
L 195.275583 142.63665 
L 195.54456 155.988305 
L 195.948024 249.721297 
L 196.217001 260.025607 
L 196.351489 261.946387 
L 196.485977 271.390299 
L 196.620465 270.739881 
L 196.889442 271.295069 
L 197.02393 272.420206 
L 197.158418 270.695599 
L 197.292907 264.393309 
L 197.830859 195.886142 
L 197.965348 198.190697 
L 198.099836 194.882899 
L 198.234324 199.273456 
L 198.5033 185.988462 
L 198.772277 199.746747 
L 199.31023 272.064524 
L 199.713694 281.14942 
L 199.848183 279.984287 
L 200.117159 280.709936 
L 200.251647 278.932001 
L 200.386135 273.170614 
L 200.520624 272.768746 
L 200.655112 259.849909 
L 200.7896 212.769861 
L 200.924088 210.805752 
L 201.058576 199.157276 
L 201.193065 198.800166 
L 201.327553 196.123264 
L 201.462041 198.289259 
L 201.731018 186.52508 
L 201.865506 187.882101 
L 202.134482 210.508636 
L 202.403459 263.819551 
L 202.806923 273.588672 
L 203.0759 265.142766 
L 203.210388 269.456663 
L 203.344876 269.582366 
L 203.748341 260.23416 
L 203.882829 242.89953 
L 204.151805 181.126042 
L 204.420782 164.703711 
L 204.55527 159.091835 
L 204.689758 162.518193 
L 204.824246 156.0383 
L 204.958735 172.013529 
L 205.093223 172.259221 
L 205.765664 259.655164 
L 205.900152 260.164642 
L 206.03464 263.953349 
L 206.169129 278.757731 
L 206.303617 279.237211 
L 206.572593 283.164001 
L 206.84157 283.972975 
L 207.110546 274.612866 
L 207.379522 265.457499 
L 207.514011 264.58234 
L 207.917475 272.675897 
L 208.051964 272.430205 
L 208.32094 266.088395 
L 208.589916 267.685394 
L 208.858893 275.712767 
L 208.993381 279.355296 
L 209.127869 279.937148 
L 209.262357 279.394816 
L 209.396846 273.557722 
L 209.531334 274.65191 
L 209.80031 274.238137 
L 209.934799 275.226144 
L 210.203775 263.081523 
L 211.010704 108.421158 
L 211.279681 133.966478 
L 211.683145 166.968269 
L 212.221098 254.345642 
L 212.355586 256.802088 
L 212.759051 271.997387 
L 212.893539 271.790739 
L 213.028027 271.89073 
L 213.162516 274.531921 
L 213.431492 256.880652 
L 213.56598 218.913117 
L 213.834957 135.241601 
L 213.969445 139.81357 
L 214.103933 138.725573 
L 214.238421 141.678164 
L 214.910862 179.887106 
L 215.448815 259.947995 
L 215.583303 264.89993 
L 215.717792 265.516065 
L 216.121256 269.766635 
L 216.255745 270.721311 
L 216.390233 273.105382 
L 216.524721 269.108123 
L 216.659209 261.610226 
L 217.062674 148.840377 
L 217.197162 150.747348 
L 217.33165 150.827817 
L 217.466138 162.262026 
L 217.600627 160.981665 
L 217.735115 149.158443 
L 217.869603 154.375117 
L 218.273068 196.45371 
L 218.542044 255.117478 
L 218.811021 271.871208 
L 218.945509 264.471874 
L 219.483462 275.163768 
L 219.61795 276.957416 
L 219.886926 263.242937 
L 220.290391 161.923009 
L 220.693856 150.293103 
L 220.828344 160.929289 
L 220.962832 157.018688 
L 221.231808 184.101965 
L 221.500785 197.931672 
L 221.769761 254.981299 
L 222.038738 270.573705 
L 222.173226 269.822821 
L 222.307714 271.044615 
L 222.576691 277.079786 
L 222.845667 279.71193 
L 222.980155 278.043985 
L 223.114643 279.912389 
L 223.38362 259.413281 
L 223.518108 263.268172 
L 223.652596 263.111996 
L 223.921573 256.167859 
L 224.190549 255.496967 
L 224.325037 257.980077 
L 224.459525 257.352991 
L 224.728502 253.502861 
L 225.131967 260.755541 
L 225.266455 259.272818 
L 225.535431 260.741733 
L 225.669919 259.431851 
L 226.073384 269.178117 
L 226.34236 272.202606 
L 226.476849 272.130708 
L 226.745825 268.990515 
L 226.880313 271.269833 
L 227.014802 271.512668 
L 227.14929 271.216028 
L 227.283778 269.798537 
L 227.418266 271.473148 
L 227.552754 271.601708 
L 227.687243 271.432676 
L 227.956219 270.325156 
L 228.090707 276.134157 
L 228.225195 276.173201 
L 228.359684 277.273578 
L 228.494172 276.501743 
L 228.62866 277.471656 
L 228.763148 277.35738 
L 228.897637 275.071872 
L 229.301101 275.974648 
L 229.435589 269.768064 
L 229.570078 255.700758 
L 230.242519 94.450034 
L 230.377007 79.62994 
L 230.511495 109.575816 
L 230.780471 117.517958 
L 231.049448 144.955965 
L 231.587401 253.544762 
L 231.856377 264.755181 
L 232.125354 269.564272 
L 232.39433 274.215758 
L 232.528818 273.402974 
L 232.797795 256.318322 
L 232.932283 220.088726 
L 233.201259 133.029419 
L 233.335748 124.863011 
L 233.470236 135.1478 
L 233.604724 135.369685 
L 233.739212 148.147106 
L 233.8737 133.427002 
L 234.008189 140.142112 
L 234.815118 264.174281 
L 234.949606 263.908115 
L 235.218583 269.805203 
L 235.622047 277.534031 
L 235.756535 276.936942 
L 236.025512 264.295223 
L 236.563465 128.87884 
L 236.832441 116.681367 
L 237.63937 200.277652 
L 237.908347 258.282431 
L 238.177323 266.361704 
L 238.849764 281.262267 
L 238.984252 280.438532 
L 239.118741 276.644587 
L 239.253229 262.760599 
L 239.791182 128.109862 
L 240.194646 145.823982 
L 240.463623 164.927976 
L 240.732599 178.368671 
L 241.270552 255.753611 
L 241.674017 261.62213 
L 241.942993 274.550014 
L 242.077481 281.041811 
L 242.21197 280.416629 
L 242.480946 262.470149 
L 242.884411 150.863528 
L 243.018899 158.726154 
L 243.153387 156.48207 
L 243.287875 145.516867 
L 243.422363 153.488054 
L 243.556852 150.679735 
L 243.825828 167.300144 
L 244.229293 239.20272 
L 244.498269 261.561659 
L 244.767246 266.828328 
L 245.17071 274.676193 
L 245.305198 275.539925 
L 245.439687 275.244713 
L 245.574175 274.017681 
L 245.708663 262.576806 
L 245.843151 268.017745 
L 246.112128 265.039918 
L 246.381104 259.868002 
L 246.515592 259.834672 
L 247.188033 270.062799 
L 247.322522 270.467524 
L 247.45701 271.333161 
L 247.591498 270.979383 
L 247.725986 274.13767 
L 247.860475 272.702085 
L 248.129451 274.023395 
L 248.263939 273.141569 
L 248.398427 273.822937 
L 248.532916 273.670093 
L 248.667404 275.611823 
L 248.801892 275.513261 
L 249.205357 277.049313 
L 249.339845 277.165493 
L 249.608821 276.218912 
L 249.743309 276.350328 
L 249.877798 276.050831 
L 250.550239 272.891116 
L 250.819215 273.190613 
L 250.953703 273.967686 
L 251.088192 272.833978 
L 251.357168 274.089103 
L 251.491656 282.968304 
L 251.626144 282.479777 
L 251.760633 282.909262 
L 251.895121 282.749752 
L 252.164097 270.532757 
L 252.70205 143.408485 
L 252.836538 163.098617 
L 252.971027 159.66226 
L 253.240003 172.541577 
L 253.374491 173.891455 
L 253.508979 170.97267 
L 253.777956 203.717342 
L 254.046932 254.957016 
L 254.315909 276.234624 
L 254.719373 284.570541 
L 254.853862 284.331038 
L 255.122838 286.060407 
L 255.391814 265.343224 
L 255.660791 172.332548 
L 255.795279 175.771762 
L 256.198744 160.135551 
L 256.333232 163.800459 
L 256.46772 161.142127 
L 256.602208 162.335353 
L 257.409138 257.193481 
L 257.812602 264.647572 
L 258.081579 279.818588 
L 258.216067 280.879921 
L 258.350555 280.152367 
L 258.619532 266.015068 
L 258.888508 177.12545 
L 259.022996 177.992515 
L 259.157484 168.960947 
L 259.291973 168.386713 
L 259.426461 152.938579 
L 259.695437 166.606397 
L 259.829925 155.501206 
L 259.964414 164.552772 
L 260.771343 260.256539 
L 261.040319 262.489671 
L 261.309296 269.970902 
L 261.443784 273.177281 
L 261.71276 270.269923 
L 261.847249 257.908179 
L 262.116225 169.958952 
L 262.250713 174.116197 
L 262.654178 147.749523 
L 262.788666 155.032677 
L 262.923154 150.274057 
L 263.326619 185.338996 
L 263.461107 196.210875 
L 263.864572 244.869352 
L 264.268036 262.869161 
L 264.402525 262.113514 
L 264.671501 265.535111 
L 264.805989 265.409408 
L 264.940478 264.460922 
L 265.074966 256.911126 
L 265.209454 237.840937 
L 265.612919 123.821676 
L 265.881895 105.753303 
L 266.016383 115.231973 
L 266.150871 115.101509 
L 266.28536 114.654406 
L 266.419848 119.274467 
L 266.688824 156.458263 
L 266.957801 235.078805 
L 267.226777 251.703975 
L 267.361265 250.285055 
L 267.495754 266.613586 
L 267.630242 266.298376 
L 267.76473 268.16297 
L 267.899218 268.473418 
L 268.168195 274.978547 
L 268.302683 275.861325 
L 268.437171 273.30584 
L 268.706147 275.836089 
L 268.975124 272.349736 
L 269.2441 270.469429 
L 269.916541 256.01073 
L 270.320006 257.895799 
L 270.588982 262.771074 
L 270.723471 276.835523 
L 270.857959 277.873048 
L 270.992447 276.398419 
L 271.126935 277.279768 
L 271.261424 277.30929 
L 271.395912 277.123592 
L 271.799376 279.894771 
L 271.933865 278.512515 
L 272.068353 278.866768 
L 272.202841 278.223493 
L 272.337329 278.459186 
L 272.471817 277.617833 
L 272.606306 275.457075 
L 272.740794 276.73696 
L 272.875282 276.415084 
L 273.00977 275.739431 
L 273.144258 273.410117 
L 273.278747 273.310602 
L 273.547723 276.282715 
L 273.682211 276.496506 
L 273.8167 277.178825 
L 273.951188 276.318903 
L 274.085676 286.947946 
L 274.354652 288.577323 
L 274.489141 287.008417 
L 274.758117 272.315453 
L 275.29607 165.990262 
L 275.565046 153.772314 
L 275.699535 154.10895 
L 275.834023 172.035432 
L 275.968511 174.313798 
L 276.102999 184.45479 
L 276.77544 263.652424 
L 277.447881 281.027526 
L 277.58237 284.419126 
L 277.716858 284.028685 
L 277.851346 279.636699 
L 277.985834 269.667596 
L 278.389299 209.246844 
L 278.523787 189.789072 
L 278.658275 187.793537 
L 278.792763 178.291536 
L 278.927252 190.404731 
L 279.06174 184.592397 
L 279.196228 186.680304 
L 279.330716 194.365327 
L 280.137646 274.011015 
L 280.272134 276.394134 
L 280.406622 268.049171 
L 280.54111 267.765387 
L 280.810087 268.934805 
L 280.944575 268.31248 
L 281.213551 260.404145 
L 281.348039 231.492937 
L 281.482528 161.1207 
L 281.617016 150.925427 
L 281.751504 127.556578 
L 281.885992 128.706951 
L 282.154969 142.199546 
L 282.289457 124.105937 
L 282.423945 128.188902 
L 282.558433 137.287607 
L 282.82741 185.672776 
L 283.096386 254.143756 
L 283.365363 260.765541 
L 283.499851 262.970104 
L 283.634339 262.299688 
L 283.768827 262.310163 
L 283.903316 262.499194 
L 284.037804 263.80241 
L 284.172292 263.931446 
L 284.441268 258.744294 
L 285.113709 143.607038 
L 285.248198 142.532373 
L 285.382686 138.000876 
L 285.517174 147.231474 
L 285.651662 144.134134 
L 285.78615 147.619058 
L 286.055127 200.684758 
L 286.324103 250.200777 
L 286.59308 259.86705 
L 286.727568 259.745632 
L 286.862056 278.660596 
L 286.996544 278.719639 
L 287.131033 277.74306 
L 287.265521 278.347768 
L 287.668985 274.825704 
L 287.803474 275.701815 
L 288.07245 274.828084 
L 288.206938 272.659708 
L 288.341427 272.604475 
L 288.475915 270.261353 
L 288.610403 269.89091 
L 288.744891 268.76863 
L 288.879379 271.592661 
L 289.013868 271.931678 
L 289.148356 269.125264 
L 289.417332 276.269383 
L 289.55182 277.454515 
L 289.820797 277.093595 
L 289.955285 277.882571 
L 290.089773 276.385563 
L 290.224262 277.930186 
L 290.35875 277.024553 
L 290.493238 278.003037 
L 290.627726 276.463651 
L 291.031191 258.513362 
L 291.300167 192.430263 
L 291.434655 186.854574 
L 291.569144 187.461186 
L 291.703632 191.517964 
L 291.972608 178.792919 
L 292.376073 191.85222 
L 293.048514 268.126783 
L 293.183002 269.371433 
L 293.31749 268.221536 
L 293.451979 268.971945 
L 293.586467 268.043933 
L 293.720955 270.515139 
L 293.855443 270.777973 
L 294.258908 246.894884 
L 294.527884 188.998191 
L 294.796861 157.366276 
L 294.931349 141.522464 
L 295.065837 141.388667 
L 295.200325 149.34795 
L 295.334814 143.637036 
L 295.60379 171.649752 
L 295.738278 186.117022 
L 296.141743 256.207856 
L 296.276231 255.319364 
L 296.410719 262.506336 
L 296.545208 280.1557 
L 296.948672 282.315506 
L 297.486625 284.277234 
L 297.621113 283.932503 
L 297.755601 283.928694 
L 298.024578 280.762312 
L 298.159066 280.612326 
L 298.428042 278.475375 
L 298.697019 274.658576 
L 298.831507 273.525821 
L 298.965995 273.383929 
L 299.100484 273.738659 
L 299.36946 277.514033 
L 299.503948 277.00884 
L 299.638436 278.548226 
L 299.772925 268.913379 
L 299.907413 272.306883 
L 300.041901 272.005957 
L 300.176389 272.870165 
L 300.310877 272.587334 
L 300.579854 261.644985 
L 301.252295 127.887501 
L 301.386783 127.956066 
L 301.521271 141.114406 
L 301.65576 134.190267 
L 301.790248 143.58085 
L 302.597177 252.102035 
L 302.731665 253.850449 
L 303.000642 266.226478 
L 303.13513 266.450267 
L 303.269618 266.929271 
L 303.404106 269.382384 
L 303.538595 269.800442 
L 303.807571 253.483815 
L 304.345524 163.937113 
L 304.6145 153.441391 
L 304.748988 161.657795 
L 304.883477 152.10913 
L 305.017965 158.173822 
L 306.093871 264.681855 
L 306.228359 265.689859 
L 306.497335 275.818948 
L 306.766312 276.845998 
L 306.9008 272.149754 
L 307.035288 261.637843 
L 307.304265 169.400907 
L 307.438753 176.643589 
L 307.842217 157.431985 
L 307.976706 164.464685 
L 308.111194 156.067822 
L 308.245682 161.017376 
L 308.649147 206.899437 
L 309.052611 263.11771 
L 309.590564 275.316612 
L 309.994029 277.015506 
L 310.128517 273.47154 
L 310.263005 260.888387 
L 310.531982 169.289965 
L 310.66647 170.438433 
L 310.935446 168.155305 
L 311.069934 158.828525 
L 311.204423 165.266994 
L 311.338911 163.97949 
L 311.473399 157.223432 
L 311.607887 170.325586 
L 311.876864 207.804117 
L 312.14584 250.020793 
L 312.414817 261.795448 
L 312.818281 270.383722 
L 312.952769 269.950904 
L 313.087258 271.831687 
L 313.221746 271.733125 
L 313.356234 273.30584 
L 313.625211 262.777264 
L 313.759699 254.906544 
L 313.894187 258.250529 
L 314.028675 255.728375 
L 314.163163 257.606777 
L 314.297652 254.853692 
L 314.566628 261.399769 
L 314.701116 262.13256 
L 314.970093 266.873562 
L 315.104581 266.835947 
L 315.239069 266.540259 
L 315.508045 269.465234 
L 315.642534 270.0009 
L 315.777022 269.671406 
L 316.180487 272.653518 
L 316.314975 272.214986 
L 316.718439 274.563346 
L 316.852928 274.811895 
L 316.987416 273.960543 
L 317.121904 274.025776 
L 317.256392 272.908733 
L 317.39088 273.053006 
L 317.525369 271.517906 
L 317.659857 272.434966 
L 317.928833 269.921859 
L 318.332298 266.194576 
L 318.466786 266.847374 
L 318.601274 266.345991 
L 318.735763 267.798717 
L 318.870251 267.635398 
L 319.139227 268.749108 
L 319.273715 278.561082 
L 319.67718 279.676696 
L 319.811668 277.10407 
L 319.946157 269.16907 
L 320.349621 147.470976 
L 320.484109 131.358617 
L 320.887574 158.571882 
L 321.022062 163.227177 
L 321.291039 177.974421 
L 321.425527 179.77045 
L 321.560015 198.166889 
L 321.828991 253.562379 
L 321.96348 261.630701 
L 322.097968 262.415392 
L 322.635921 279.075797 
L 322.770409 279.421957 
L 322.904897 278.764397 
L 323.173874 268.357238 
L 323.44285 173.117715 
L 323.577338 173.478635 
L 323.711826 173.67957 
L 323.980803 153.550429 
L 324.249779 157.081064 
L 324.384268 159.840815 
L 324.787732 195.998037 
L 325.056709 250.391712 
L 325.325685 259.641356 
L 325.863638 277.421184 
L 325.998126 279.184359 
L 326.132614 279.249591 
L 326.267103 276.044165 
L 326.401591 267.066402 
L 326.670567 165.944075 
L 326.805055 171.885445 
L 326.939544 173.054864 
L 327.20852 159.859861 
L 327.343008 167.983892 
L 327.611985 164.238991 
L 327.746473 169.087126 
L 328.149937 223.652691 
L 328.418914 254.424207 
L 328.68789 267.204485 
L 328.822379 269.651884 
L 328.956867 279.674315 
L 329.225843 280.618992 
L 329.360331 279.77383 
L 329.629308 266.972125 
L 330.032772 178.169642 
L 330.301749 166.857803 
L 330.570725 158.070498 
L 330.839702 179.871869 
L 330.97419 181.081284 
L 331.108678 183.820085 
L 331.781119 259.522319 
L 332.050096 266.668343 
L 332.184584 277.416899 
L 332.319072 278.370623 
L 332.45356 277.707349 
L 332.588049 278.692498 
L 332.857025 266.115059 
L 333.26049 177.539698 
L 333.394978 179.444765 
L 333.663954 164.569913 
L 333.798442 165.75933 
L 333.932931 169.517087 
L 334.336395 187.337864 
L 334.73986 254.907973 
L 335.143325 270.597989 
L 335.277813 270.399911 
L 335.412301 270.497046 
L 335.546789 270.781782 
L 335.681277 270.677029 
L 335.950254 273.252512 
L 336.084742 271.163176 
L 336.622695 254.740845 
L 336.757183 255.533631 
L 336.891671 253.709033 
L 337.295136 260.050843 
L 337.698601 264.77137 
L 337.833089 264.293318 
L 338.102065 268.382474 
L 338.236553 268.151066 
L 338.371042 268.786723 
L 338.50553 266.457409 
L 339.043483 269.608078 
L 339.446947 272.59638 
L 339.581436 272.115947 
L 339.715924 270.949862 
L 339.850412 271.20841 
L 339.9849 270.430385 
L 340.119388 270.318014 
L 340.253877 269.845676 
L 340.388365 271.318876 
L 340.522853 269.335245 
L 340.657341 269.932335 
L 340.926318 269.614744 
L 341.060806 266.285044 
L 341.329782 271.154129 
L 341.464271 271.05271 
L 341.598759 271.579805 
L 341.733247 273.142046 
L 341.867735 280.943248 
L 342.136712 281.044668 
L 342.2712 281.68461 
L 342.540176 269.022893 
L 342.943641 154.155137 
L 343.212617 170.719836 
L 343.347106 169.987521 
L 343.75057 184.333849 
L 343.885058 186.004175 
L 344.019547 185.343282 
L 344.423011 253.047188 
L 345.22994 278.672024 
L 345.364429 279.752879 
L 345.498917 279.386245 
L 345.633405 275.18091 
L 345.767893 267.118302 
L 346.03687 183.092056 
L 346.171358 187.198829 
L 346.440334 173.670523 
L 346.574823 168.313862 
L 346.843799 175.173721 
L 347.112775 177.037363 
L 347.381752 211.423791 
L 347.650728 250.229346 
L 348.054193 268.142019 
L 348.188681 269.320961 
L 348.323169 278.265394 
L 348.457658 279.111032 
L 348.592146 280.976579 
L 348.726634 280.781834 
L 348.99561 267.910612 
L 349.264587 182.044531 
L 349.399075 183.514399 
L 349.668052 166.005022 
L 349.80254 161.904439 
L 350.206004 180.548475 
L 350.340493 181.725036 
L 351.012934 261.682601 
L 351.147422 263.996678 
L 351.550886 280.613278 
L 351.685375 279.903342 
L 351.954351 280.269023 
L 352.088839 278.875815 
L 352.223328 271.607898 
L 352.492304 177.979183 
L 352.626792 185.122825 
L 352.76128 173.787179 
L 352.895769 173.080576 
L 353.030257 164.827033 
L 353.164745 172.016386 
L 353.299233 169.94562 
L 353.56821 152.223882 
L 354.240651 268.282959 
L 354.375139 269.417143 
L 354.644115 275.261855 
L 354.913092 279.5229 
L 355.182068 280.561854 
L 355.316556 278.166831 
L 355.451045 269.066698 
L 355.854509 195.98899 
L 356.123486 157.77243 
L 356.257974 159.480848 
L 356.392462 168.064361 
L 356.52695 167.432989 
L 356.661439 178.006323 
L 356.795927 176.758816 
L 357.33388 263.986203 
L 357.602856 273.553437 
L 357.737344 275.511832 
L 357.871832 279.753831 
L 358.006321 279.177217 
L 358.140809 279.391007 
L 358.275297 280.12856 
L 358.409785 280.040948 
L 358.678762 278.785347 
L 359.082226 260.3751 
L 359.351203 254.48801 
L 359.485691 248.236192 
L 359.620179 258.936181 
L 359.754667 260.346055 
L 359.889156 260.513658 
L 360.427109 274.758091 
L 360.561597 275.435649 
L 360.965061 279.570038 
L 361.234038 279.530518 
L 361.368526 279.339583 
L 361.503014 280.640894 
L 361.771991 280.234741 
L 361.906479 281.561288 
L 362.040967 281.513673 
L 362.175455 281.887925 
L 362.309944 281.928398 
L 362.57892 278.526323 
L 362.713408 278.47728 
L 362.982385 277.345953 
L 363.116873 275.857992 
L 363.251361 275.756572 
L 363.385849 276.844093 
L 363.520337 275.992741 
L 363.654826 275.933223 
L 364.05829 278.711068 
L 364.192778 252.781021 
L 364.730731 259.019983 
L 364.86522 257.828186 
L 364.999708 245.781651 
L 365.134196 223.693639 
L 365.403172 135.617281 
L 365.672149 105.408096 
L 365.806637 99.503389 
L 366.075613 116.400916 
L 366.34459 113.265484 
L 366.479078 124.66541 
L 367.017031 250.701208 
L 367.151519 255.646954 
L 367.286007 253.916633 
L 367.554984 265.245614 
L 367.689472 266.109821 
L 367.958448 270.996048 
L 368.227425 247.499592 
L 368.496401 151.808205 
L 368.765378 100.069529 
L 369.034354 89.19765 
L 369.168842 93.90675 
L 369.303331 93.463457 
L 369.437819 96.823154 
L 369.572307 94.706678 
L 369.706795 110.772375 
L 370.244748 234.279353 
L 370.782701 278.379193 
L 370.917189 278.683452 
L 371.051677 279.572895 
L 371.186166 279.294825 
L 371.455142 264.511394 
L 371.858607 171.473578 
L 372.127583 203.38023 
L 372.262071 199.329642 
L 372.396559 200.752847 
L 372.665536 190.091426 
L 372.800024 193.876799 
L 373.203489 233.486567 
L 373.472465 255.689331 
L 373.87593 276.830761 
L 374.010418 285.82757 
L 374.144906 285.681869 
L 374.279394 286.88557 
L 374.413883 286.383711 
L 374.682859 269.862817 
L 375.220812 180.677035 
L 375.489788 177.056409 
L 375.624277 177.27877 
L 375.893253 183.798659 
L 376.027741 188.084464 
L 376.565694 255.506966 
L 376.83467 264.376168 
L 376.969159 267.205913 
L 377.103647 278.990091 
L 377.238135 277.899713 
L 377.507112 279.967622 
L 377.6416 278.00637 
L 377.776088 281.53748 
L 378.045064 279.395292 
L 378.179553 269.776634 
L 378.314041 269.152405 
L 378.448529 262.06828 
L 378.583017 263.066762 
L 378.717505 262.151606 
L 378.851994 266.65263 
L 378.986482 265.894127 
L 379.12097 266.800235 
L 379.255458 268.954803 
L 379.389947 268.838623 
L 379.927899 278.072078 
L 380.062388 277.865906 
L 380.196876 278.281583 
L 380.331364 268.394378 
L 380.465852 269.070983 
L 380.869317 271.968818 
L 381.138293 261.096463 
L 381.272782 234.059849 
L 381.541758 159.625597 
L 381.810734 139.505503 
L 381.945223 141.093455 
L 382.214199 147.566682 
L 382.348687 139.59359 
L 382.752152 189.346731 
L 383.021128 257.207766 
L 383.155616 265.119434 
L 383.290105 265.780327 
L 383.424593 267.064974 
L 383.559081 262.146369 
L 383.693569 261.435956 
L 383.962546 261.78164 
L 384.097034 262.969628 
L 384.231522 261.189312 
L 384.36601 262.578711 
L 385.038451 148.627063 
L 385.17294 151.065415 
L 385.307428 166.170246 
L 385.576404 160.537419 
L 386.248845 260.047986 
L 386.921286 278.512038 
L 387.055775 277.698778 
L 387.190263 278.973902 
L 387.324751 278.28444 
L 387.459239 278.445378 
L 387.593727 279.931911 
L 387.728216 279.358629 
L 387.862704 280.673272 
L 387.997192 279.506235 
L 388.13168 281.093711 
L 388.266169 280.111418 
L 388.400657 278.129692 
L 388.535145 278.218732 
L 388.669633 277.557362 
L 388.804121 278.694403 
L 388.93861 276.147966 
L 389.207586 278.28444 
L 389.476562 284.96241 
L 389.611051 283.905839 
L 389.745539 284.721003 
L 389.880027 284.669103 
L 390.014515 269.789966 
L 390.283492 270.038515 
L 390.41798 270.048515 
L 390.552468 269.91805 
L 390.686956 264.427592 
L 390.821445 264.612337 
L 390.955933 255.772657 
L 391.224909 199.69199 
L 391.359397 168.358144 
L 391.493886 164.373741 
L 391.762862 175.052779 
L 391.89735 174.509971 
L 392.031839 167.296335 
L 392.166327 170.990764 
L 392.300815 179.958528 
L 392.569791 240.035026 
L 392.70428 266.287901 
L 392.973256 271.124132 
L 393.107744 271.78074 
L 393.376721 264.733755 
L 393.645697 270.444193 
L 393.780185 267.057831 
L 393.914673 268.440564 
L 394.049162 261.037421 
L 394.721603 146.579152 
L 394.990579 145.508772 
L 395.125067 145.089286 
L 395.259556 156.459215 
L 395.394044 157.328184 
L 395.931997 245.357404 
L 396.200973 258.94999 
L 396.335461 255.217945 
L 396.46995 279.959051 
L 396.604438 280.341874 
L 397.007902 283.373029 
L 397.276879 270.332775 
L 397.545855 196.71702 
L 397.680343 191.536058 
L 397.94932 168.188159 
L 398.083808 154.738417 
L 398.218296 167.465843 
L 398.352785 162.705319 
L 398.487273 165.714096 
L 398.487273 165.714096 
" clip-path="url(#pb6b2fab8fb)" style="fill: none; stroke: #1f77b4; stroke-width: 1.5; stroke-linecap: square"/>
   </g>
   <g id="line2d_13">
    <path d="M 73.832727 279.152244 
L 73.967215 279.212051 
L 74.236192 278.46746 
L 74.37068 276.493828 
L 74.505168 279.344069 
L 74.639657 277.774817 
L 74.774145 278.724982 
L 74.908633 265.49997 
L 75.043121 213.835791 
L 75.177609 240.770147 
L 75.446586 246.427065 
L 75.581074 247.130448 
L 75.715562 248.62848 
L 75.85005 246.858542 
L 75.984539 247.55769 
L 76.388003 240.297718 
L 76.522492 285.486491 
L 76.925956 273.915972 
L 77.060444 272.887638 
L 77.194933 256.744035 
L 77.329421 267.580022 
L 77.463909 265.478543 
L 77.598397 265.173017 
L 77.732885 268.586353 
L 77.867374 256.340164 
L 78.001862 232.785745 
L 78.270838 127.043113 
L 78.405327 102.171076 
L 78.674303 113.5034 
L 78.808791 103.996546 
L 78.943279 118.471921 
L 79.077768 108.983669 
L 79.61572 183.559159 
L 79.884697 247.031558 
L 80.153673 265.700229 
L 80.288161 267.014289 
L 80.42265 257.429283 
L 80.557138 277.115456 
L 80.691626 270.002631 
L 80.826114 269.181201 
L 80.960603 266.238222 
L 81.095091 259.025271 
L 81.229579 237.510201 
L 81.498555 142.788806 
L 81.633044 167.53246 
L 81.767532 166.138401 
L 81.90202 158.694353 
L 82.036508 198.612231 
L 82.170996 194.112797 
L 82.305485 200.811487 
L 82.439973 199.498041 
L 82.574461 196.969606 
L 82.708949 225.131701 
L 82.977926 195.426914 
L 83.112414 203.779174 
L 83.246902 194.203437 
L 83.38139 194.020877 
L 83.650367 236.944971 
L 83.784855 240.37374 
L 84.053831 278.814284 
L 84.18832 277.709701 
L 84.322808 194.009131 
L 84.457296 217.762696 
L 84.591784 194.009131 
L 84.860761 194.009131 
L 84.995249 194.703192 
L 85.129737 189.08363 
L 85.264225 167.829537 
L 85.398714 186.277042 
L 85.533202 187.345718 
L 85.802178 198.19689 
L 85.936666 209.069167 
L 86.205643 260.006433 
L 86.340131 258.593438 
L 86.474619 268.532725 
L 86.609107 265.817906 
L 86.743596 271.337996 
L 87.012572 291.837287 
L 87.281549 286.403261 
L 87.416037 288.273222 
L 87.685013 284.567004 
L 87.95399 237.758104 
L 88.088478 254.290997 
L 88.222966 245.82483 
L 88.357454 255.22851 
L 88.491942 253.762005 
L 88.626431 248.325067 
L 88.760919 256.534258 
L 88.895407 241.645574 
L 89.029895 252.499928 
L 89.164384 250.543634 
L 89.298872 255.510078 
L 89.43336 281.05286 
L 89.567848 280.588438 
L 89.702336 275.393634 
L 89.836825 274.693205 
L 89.971313 276.204557 
L 90.105801 243.83741 
L 90.374777 263.113437 
L 90.509266 259.725757 
L 90.643754 259.910782 
L 90.91273 265.173918 
L 91.047218 257.657176 
L 91.181707 236.305445 
L 91.316195 245.808446 
L 91.450683 237.685059 
L 91.585171 253.475476 
L 91.71966 247.756249 
L 91.854148 250.983505 
L 91.988636 250.938755 
L 92.123124 252.109617 
L 92.257612 254.609279 
L 92.392101 251.59288 
L 92.930053 268.388837 
L 93.064542 267.122562 
L 93.19903 263.791117 
L 93.333518 283.037363 
L 93.602495 273.600605 
L 93.736983 275.965278 
L 93.871471 273.270784 
L 94.140447 260.417088 
L 94.409424 173.043389 
L 94.543912 181.117736 
L 94.812888 155.668852 
L 94.947377 156.048706 
L 95.216353 176.308388 
L 95.48533 151.751478 
L 95.888794 252.421344 
L 96.157771 268.268061 
L 96.426747 270.799351 
L 96.561235 272.119158 
L 96.695723 269.571997 
L 96.830212 269.697748 
L 96.9647 272.378053 
L 97.233676 268.162737 
L 97.502653 222.393268 
L 97.637141 169.557098 
L 97.771629 182.077238 
L 97.906117 171.310224 
L 98.040606 187.161145 
L 98.175094 182.462861 
L 98.309582 184.528552 
L 98.44407 179.399684 
L 98.578558 182.535835 
L 98.847535 197.951339 
L 99.250999 270.864196 
L 99.385488 270.856442 
L 99.519976 274.496392 
L 99.654464 273.824514 
L 99.788952 287.078513 
L 100.057929 276.959791 
L 100.326905 279.370205 
L 100.595882 277.389713 
L 100.73037 277.859148 
L 100.864858 279.053373 
L 100.999346 276.968748 
L 101.133834 279.907651 
L 101.402811 275.858908 
L 101.537299 264.756583 
L 101.671787 275.986069 
L 101.940764 259.103814 
L 102.075252 266.058706 
L 102.20974 264.847888 
L 102.344228 266.205003 
L 102.478717 269.778279 
L 102.613205 278.545679 
L 102.747693 270.053746 
L 102.882181 281.710424 
L 103.016669 250.435077 
L 103.285646 272.845345 
L 103.823599 255.986443 
L 103.958087 225.336189 
L 104.092575 164.664107 
L 104.227063 169.942599 
L 104.361552 152.042453 
L 104.49604 168.407531 
L 104.765016 141.455789 
L 105.033993 159.968078 
L 105.302969 185.92345 
L 105.706434 264.209775 
L 105.97541 257.995909 
L 106.244387 289.741574 
L 106.378875 284.187471 
L 106.647851 278.50795 
L 106.782339 279.375769 
L 106.916828 276.593499 
L 107.051316 277.013714 
L 107.320292 220.972235 
L 107.589269 255.154719 
L 107.723757 250.505615 
L 107.858245 253.872743 
L 108.26171 249.413904 
L 108.396198 247.180078 
L 108.530686 242.995622 
L 108.665174 248.367554 
L 108.934151 285.381694 
L 109.337615 275.660805 
L 109.472104 264.098869 
L 109.606592 267.896878 
L 109.74108 267.938323 
L 109.875568 268.28071 
L 110.010056 268.040369 
L 110.144545 267.482946 
L 110.279033 268.036891 
L 110.413521 267.665386 
L 110.548009 268.65532 
L 110.682498 270.695961 
L 110.951474 269.173152 
L 111.085962 269.504508 
L 111.22045 272.476315 
L 111.354939 271.929016 
L 111.623915 266.388804 
L 111.758403 262.972482 
L 111.892891 265.230625 
L 112.161868 270.695926 
L 112.296356 270.596116 
L 112.430844 270.696707 
L 112.565333 270.595049 
L 112.699821 248.261695 
L 112.968797 264.703563 
L 113.103285 262.390577 
L 113.237774 263.438895 
L 113.372262 262.501949 
L 113.50675 266.153988 
L 113.641238 266.596231 
L 113.775726 269.255577 
L 113.910215 264.743507 
L 114.044703 265.908692 
L 114.179191 262.218361 
L 114.313679 254.869822 
L 114.448168 258.471739 
L 114.582656 258.788396 
L 114.717144 256.680235 
L 114.98612 244.07261 
L 115.120609 243.764109 
L 115.389585 258.805916 
L 115.524073 259.417544 
L 115.658561 259.14206 
L 115.79305 259.418609 
L 115.927538 261.451879 
L 116.062026 261.118429 
L 116.196514 256.227013 
L 116.331002 266.580937 
L 116.599979 257.75484 
L 116.734467 239.956337 
L 117.003444 129.546349 
L 117.137932 92.061776 
L 117.27242 94.642336 
L 117.406908 91.509494 
L 117.541396 77.464695 
L 117.810373 89.302066 
L 118.213837 130.373196 
L 118.482814 222.124067 
L 118.886279 253.035521 
L 119.020767 251.484397 
L 119.155255 253.033302 
L 119.289743 256.689248 
L 119.424231 253.610924 
L 119.55872 254.844024 
L 119.693208 258.561898 
L 119.827696 256.512494 
L 119.962184 236.928526 
L 120.231161 121.148 
L 120.365649 95.560689 
L 120.500137 95.466664 
L 120.634625 90.89584 
L 120.769114 79.639173 
L 120.903602 86.053881 
L 121.03809 82.90366 
L 121.172578 90.567142 
L 121.441555 113.889315 
L 121.710531 221.650767 
L 121.845019 226.718915 
L 121.979507 242.794139 
L 122.248484 243.274735 
L 122.382972 248.000111 
L 122.51746 263.129964 
L 122.786437 255.931775 
L 122.920925 257.114194 
L 123.055413 252.811808 
L 123.189901 237.346113 
L 123.458878 124.955798 
L 123.593366 91.38167 
L 123.862342 86.779261 
L 123.996831 81.869466 
L 124.400295 115.418545 
L 124.669272 128.434436 
L 125.072736 238.87715 
L 125.341713 257.476242 
L 125.610689 254.806697 
L 125.745177 271.130415 
L 126.014154 267.778699 
L 126.148642 266.607501 
L 126.28313 246.890322 
L 126.417618 245.400311 
L 126.686595 131.576487 
L 126.821083 102.805134 
L 126.955571 100.068434 
L 127.09006 94.373932 
L 127.224548 94.050536 
L 127.493524 114.755094 
L 127.628012 118.504224 
L 127.896989 141.009991 
L 128.434942 254.247688 
L 128.56943 256.251652 
L 128.703918 252.405991 
L 128.838406 263.173604 
L 128.972894 258.187222 
L 129.107383 260.32834 
L 129.241871 265.237723 
L 129.376359 263.796695 
L 129.645336 229.877759 
L 129.914312 122.460954 
L 130.0488 90.716201 
L 130.183288 97.082132 
L 130.317777 94.407527 
L 130.452265 96.26974 
L 130.586753 131.507055 
L 130.721241 123.239264 
L 130.990218 139.044661 
L 131.124706 161.857552 
L 131.393682 241.804536 
L 131.797147 262.649064 
L 132.200612 255.052809 
L 132.469588 272.726422 
L 132.738564 265.736258 
L 132.873053 265.521581 
L 133.007541 248.15577 
L 133.142029 248.204447 
L 133.411005 238.192267 
L 133.545494 238.170472 
L 133.679982 235.604766 
L 133.81447 238.628757 
L 133.948958 237.883984 
L 134.083447 230.451116 
L 134.352423 240.985983 
L 134.621399 247.315596 
L 134.755888 253.618626 
L 134.890376 253.059318 
L 135.024864 250.709769 
L 135.428329 258.623599 
L 135.831793 264.733293 
L 135.966282 271.818875 
L 136.235258 263.979617 
L 136.369746 268.312762 
L 136.504234 266.635413 
L 136.638723 258.141571 
L 136.773211 261.955873 
L 136.907699 260.00355 
L 137.042187 260.325979 
L 137.311164 245.890817 
L 137.58014 251.028236 
L 137.714628 245.665711 
L 137.983605 256.898981 
L 138.118093 257.055551 
L 138.252581 253.779325 
L 138.521558 264.648511 
L 138.656046 258.294842 
L 138.790534 259.194351 
L 138.925022 265.321032 
L 139.05951 265.530818 
L 139.328487 237.826617 
L 139.597463 122.732596 
L 139.731951 87.982788 
L 139.86644 96.521405 
L 140.135416 89.281115 
L 140.673369 135.608017 
L 140.807857 144.271726 
L 140.942345 165.57965 
L 141.076834 235.09653 
L 141.480298 259.530534 
L 141.749275 261.28606 
L 141.883763 265.831572 
L 142.018251 262.554634 
L 142.152739 263.779666 
L 142.287228 261.847996 
L 142.421716 232.597579 
L 142.556204 229.794675 
L 142.82518 120.753571 
L 142.959669 91.566059 
L 143.094157 99.420304 
L 143.363133 87.579389 
L 143.497621 101.319934 
L 143.63211 88.37182 
L 143.766598 101.207032 
L 143.901086 134.155317 
L 144.035574 136.847968 
L 144.304551 233.806578 
L 144.439039 234.202228 
L 144.708015 263.245541 
L 144.842504 264.919411 
L 145.11148 261.745837 
L 145.245968 262.445735 
L 145.380456 265.249738 
L 145.514945 255.17867 
L 145.649433 223.900455 
L 145.783921 233.992711 
L 146.052897 127.079034 
L 146.187386 93.706755 
L 146.321874 96.609565 
L 146.59085 109.885972 
L 146.725339 128.837253 
L 146.859827 118.77249 
L 146.994315 133.134355 
L 147.128803 119.846066 
L 147.263291 141.781211 
L 147.532268 244.799052 
L 147.801244 255.558341 
L 147.935732 265.620896 
L 148.070221 262.196563 
L 148.204709 265.146781 
L 148.339197 264.811993 
L 148.473685 262.117722 
L 148.608174 262.879962 
L 148.742662 260.701628 
L 148.87715 260.558587 
L 149.146126 164.51341 
L 149.415103 101.54599 
L 149.549591 117.041802 
L 149.684079 107.218241 
L 149.818567 109.384337 
L 150.222032 160.844524 
L 150.35652 140.425346 
L 150.491009 151.975819 
L 150.759985 245.769935 
L 150.894473 247.310357 
L 151.16345 266.247594 
L 151.297938 261.100905 
L 151.701402 265.361372 
L 151.835891 265.16106 
L 151.970379 266.265655 
L 152.104867 262.597307 
L 152.64282 97.29501 
L 152.777308 119.906054 
L 153.046285 103.671369 
L 153.180773 134.064353 
L 153.315261 126.118746 
L 153.449749 177.677993 
L 153.584237 176.953194 
L 154.256678 272.204198 
L 154.391167 268.846744 
L 154.525655 271.165038 
L 154.660143 269.24189 
L 154.794631 270.19087 
L 154.92912 270.061885 
L 155.063608 271.269017 
L 155.332584 275.717351 
L 155.467072 273.087875 
L 155.601561 264.174767 
L 155.736049 246.307743 
L 155.870537 256.287012 
L 156.005025 253.052368 
L 156.139513 258.883592 
L 156.40849 254.470188 
L 156.677466 257.920211 
L 156.811955 254.962676 
L 156.946443 259.064769 
L 157.080931 259.637115 
L 157.484396 267.657541 
L 157.618884 263.811856 
L 158.022348 269.801143 
L 158.156837 269.334334 
L 158.425813 273.564959 
L 158.694789 278.245986 
L 158.829278 273.248128 
L 158.963766 275.733864 
L 159.098254 275.12612 
L 159.367231 271.809721 
L 159.501719 273.369471 
L 159.770695 263.90756 
L 159.905183 257.109273 
L 160.039672 259.783689 
L 160.17416 251.310664 
L 160.577624 268.055388 
L 160.846601 258.491957 
L 161.250066 268.738583 
L 161.384554 267.261555 
L 161.519042 267.190334 
L 161.65353 267.747699 
L 161.922507 238.649829 
L 162.325971 93.237052 
L 162.460459 92.862631 
L 162.594948 96.983606 
L 162.729436 86.535091 
L 162.863924 85.486477 
L 162.998412 112.873137 
L 163.132901 111.396176 
L 163.267389 124.223757 
L 163.536365 181.708578 
L 163.670853 239.620704 
L 163.805342 242.308627 
L 163.93983 247.975276 
L 164.208806 261.792122 
L 164.343294 258.951185 
L 164.477783 274.584699 
L 164.612271 270.714555 
L 164.746759 271.79003 
L 164.881247 260.919147 
L 165.015735 241.056798 
L 165.150224 238.020218 
L 165.553688 99.600298 
L 165.688177 120.530817 
L 165.957153 109.215656 
L 166.091641 120.888621 
L 166.360618 105.856149 
L 166.495106 104.129884 
L 166.629594 114.560887 
L 166.89857 239.037243 
L 167.033059 243.580965 
L 167.167547 240.617688 
L 167.302035 252.612837 
L 167.436523 253.519241 
L 167.571012 255.189956 
L 167.839988 263.572402 
L 167.974476 263.579078 
L 168.108964 264.263698 
L 168.243453 251.366592 
L 168.377941 227.557777 
L 168.781405 89.542673 
L 168.915894 111.07048 
L 169.050382 105.816786 
L 169.18487 107.722653 
L 169.319358 116.996526 
L 169.453847 93.339666 
L 169.588335 104.347958 
L 169.991799 179.576424 
L 170.126288 241.410723 
L 170.260776 247.56384 
L 170.529752 261.668675 
L 170.66424 261.675726 
L 170.798729 264.283686 
L 170.933217 259.823424 
L 171.067705 260.481813 
L 171.202193 262.020607 
L 171.336681 265.819491 
L 171.47117 236.66707 
L 171.605658 233.177599 
L 172.009123 95.277203 
L 172.143611 110.241562 
L 172.278099 110.929639 
L 172.412587 100.760929 
L 172.547075 101.862502 
L 173.085028 152.093526 
L 173.488493 250.272 
L 173.891958 266.940179 
L 174.026446 284.176326 
L 174.160934 273.18785 
L 174.295422 272.001766 
L 174.564399 274.115395 
L 174.967863 223.050575 
L 175.102351 167.053377 
L 175.23684 162.165964 
L 175.505816 135.102045 
L 175.640304 140.729262 
L 175.774792 162.2562 
L 175.909281 156.494471 
L 176.043769 159.649964 
L 176.178257 173.990187 
L 176.312745 166.367617 
L 176.447234 193.243173 
L 176.581722 249.348805 
L 176.71621 252.250413 
L 176.985186 267.971439 
L 177.119675 261.475809 
L 177.388651 267.448851 
L 177.523139 264.855697 
L 177.792116 273.123817 
L 177.926604 272.566151 
L 178.061092 273.699155 
L 178.19558 260.412315 
L 178.330069 258.283213 
L 178.464557 261.046619 
L 178.599045 250.034265 
L 178.868021 253.91191 
L 179.00251 259.02316 
L 179.271486 252.040504 
L 179.405974 254.590651 
L 179.540462 249.46815 
L 179.674951 250.029938 
L 179.943927 262.19585 
L 180.078415 271.918579 
L 180.212904 263.124909 
L 180.347392 262.463785 
L 180.48188 278.212288 
L 180.750856 272.535212 
L 180.885345 272.990912 
L 181.019833 273.932816 
L 181.154321 273.124006 
L 181.423297 264.618589 
L 181.557786 259.243126 
L 181.692274 263.153981 
L 181.826762 261.030433 
L 181.96125 265.551288 
L 182.095738 255.085499 
L 182.364715 267.590004 
L 182.633691 269.439155 
L 182.76818 273.695257 
L 182.902668 270.311924 
L 183.037156 269.941818 
L 183.171644 277.79803 
L 183.306132 277.067582 
L 183.440621 277.910925 
L 183.709597 270.23366 
L 183.844085 287.742983 
L 184.113062 282.964376 
L 184.24755 276.0469 
L 184.516526 257.902243 
L 184.785503 173.042709 
L 184.919991 185.609722 
L 185.054479 172.579472 
L 185.188967 185.010402 
L 185.323456 178.975105 
L 185.592432 188.373191 
L 185.72692 189.534712 
L 186.399361 262.191829 
L 186.668338 274.025378 
L 186.802826 276.866802 
L 187.071802 292.420265 
L 187.609755 279.130473 
L 187.744243 265.082542 
L 188.01322 178.769555 
L 188.147708 190.23452 
L 188.282196 178.448133 
L 188.685661 193.138495 
L 188.820149 203.834138 
L 188.954637 195.796466 
L 189.223614 213.430268 
L 189.627078 268.435009 
L 189.761567 268.793338 
L 189.896055 269.652933 
L 190.030543 275.053675 
L 190.165031 265.940116 
L 190.299519 269.426155 
L 190.434008 269.846415 
L 190.568496 266.685101 
L 190.837472 270.575344 
L 190.971961 271.557573 
L 191.106449 271.044033 
L 191.240937 264.098171 
L 191.509913 268.105803 
L 191.644402 260.28005 
L 191.77889 265.984428 
L 192.047866 263.632579 
L 192.182354 257.566036 
L 192.316843 256.671386 
L 192.451331 259.497535 
L 192.585819 257.577131 
L 192.720307 260.221071 
L 192.854796 270.381645 
L 192.989284 267.056875 
L 193.123772 266.76228 
L 193.392748 262.781536 
L 193.527237 262.395458 
L 193.661725 266.744308 
L 193.796213 267.384931 
L 193.930701 267.226638 
L 194.199678 253.553354 
L 194.468654 174.477878 
L 194.603142 166.026082 
L 194.73763 147.219137 
L 194.872119 148.139246 
L 195.006607 141.346699 
L 195.275583 158.656529 
L 195.410072 143.738377 
L 195.679048 168.475532 
L 195.948024 239.265293 
L 196.082513 261.032605 
L 196.485977 263.856157 
L 196.620465 277.50764 
L 196.754954 269.146961 
L 196.889442 268.108793 
L 197.02393 268.506465 
L 197.158418 270.058207 
L 197.292907 265.674613 
L 197.427395 253.850727 
L 197.696371 181.162215 
L 197.830859 198.993499 
L 197.965348 190.919913 
L 198.099836 199.02161 
L 198.234324 196.571878 
L 198.368812 205.073619 
L 198.637789 184.334906 
L 198.906765 211.856933 
L 199.31023 274.983491 
L 199.444718 274.791111 
L 199.848183 281.829518 
L 199.982671 276.356216 
L 200.251647 277.688626 
L 200.386135 273.794798 
L 200.520624 263.80211 
L 200.655112 267.570976 
L 200.7896 241.945942 
L 200.924088 165.654188 
L 201.058576 205.705126 
L 201.193065 192.706627 
L 201.327553 197.324976 
L 201.462041 197.490385 
L 201.596529 202.488277 
L 201.731018 189.158353 
L 201.865506 187.092668 
L 201.999994 193.995442 
L 202.537947 272.648447 
L 202.672435 270.749243 
L 202.941411 274.38493 
L 203.0759 258.268775 
L 203.210388 258.615199 
L 203.344876 269.312211 
L 203.479364 266.435584 
L 203.748341 256.227981 
L 203.882829 253.045218 
L 204.286294 164.44851 
L 204.420782 158.110784 
L 204.55527 161.07059 
L 204.689758 161.095964 
L 204.824246 171.603867 
L 204.958735 164.541406 
L 205.093223 190.510129 
L 205.227711 190.620114 
L 205.765664 265.409589 
L 205.900152 266.295974 
L 206.03464 262.360866 
L 206.169129 266.275339 
L 206.303617 289.084211 
L 206.438105 279.791151 
L 206.707081 283.008 
L 206.976058 281.858616 
L 207.379522 259.606298 
L 207.514011 257.787575 
L 207.648499 260.731292 
L 207.917475 272.043539 
L 208.051964 271.802439 
L 208.186452 270.009867 
L 208.455428 260.976166 
L 208.589916 265.367442 
L 208.724405 264.729519 
L 208.858893 275.419402 
L 208.993381 275.636038 
L 209.127869 280.013765 
L 209.396846 275.834657 
L 209.531334 264.228543 
L 209.665822 271.30496 
L 209.80031 270.736978 
L 209.934799 270.71633 
L 210.069287 273.223677 
L 210.203775 253.593716 
L 210.338263 255.890708 
L 210.60724 159.754783 
L 210.741728 151.962779 
L 211.010704 119.568524 
L 211.145192 105.466028 
L 211.414169 144.271011 
L 211.817634 191.321359 
L 212.221098 260.666278 
L 212.355586 260.518736 
L 212.490075 260.655231 
L 212.759051 270.921885 
L 212.893539 273.852001 
L 213.028027 269.843167 
L 213.162516 269.768888 
L 213.297004 274.683276 
L 213.56598 243.655821 
L 213.834957 133.660369 
L 213.969445 115.325161 
L 214.103933 144.239421 
L 214.238421 142.841668 
L 214.37291 149.026239 
L 214.776374 187.943087 
L 214.910862 188.692234 
L 215.045351 191.259773 
L 215.448815 270.273041 
L 215.583303 263.398071 
L 215.717792 269.357595 
L 215.85228 264.943155 
L 215.986768 266.290789 
L 216.121256 268.972004 
L 216.255745 267.650636 
L 216.390233 268.938833 
L 216.524721 272.772184 
L 216.793697 249.710756 
L 217.062674 142.119957 
L 217.197162 130.721682 
L 217.33165 152.060292 
L 217.466138 155.597042 
L 217.600627 174.994355 
L 217.735115 168.877475 
L 217.869603 147.299838 
L 218.004091 160.116629 
L 218.273068 206.898871 
L 218.407556 213.611483 
L 218.542044 259.423909 
L 218.945509 275.535471 
L 219.079997 257.453858 
L 219.348973 269.862051 
L 219.752438 276.726574 
L 220.021414 249.981892 
L 220.290391 140.060223 
L 220.559367 159.835797 
L 220.693856 154.16023 
L 220.828344 153.398869 
L 220.962832 173.592563 
L 221.09732 162.410425 
L 221.231808 197.144939 
L 221.500785 200.868844 
L 221.635273 210.991072 
L 221.769761 259.322956 
L 221.904249 267.252542 
L 222.038738 268.26609 
L 222.173226 274.869473 
L 222.307714 268.379234 
L 222.442202 269.519262 
L 222.711179 276.901966 
L 222.845667 276.526035 
L 222.980155 278.305972 
L 223.114643 273.784147 
L 223.249132 278.286494 
L 223.518108 245.544624 
L 223.652596 262.759049 
L 223.787084 259.833071 
L 224.056061 250.832348 
L 224.459525 257.4877 
L 224.86299 248.830916 
L 225.131967 259.093052 
L 225.266455 259.444707 
L 225.400943 255.37898 
L 225.535431 258.191073 
L 225.669919 258.099562 
L 225.804408 254.986168 
L 226.073384 265.736867 
L 226.207872 270.154814 
L 226.34236 269.863277 
L 226.476849 271.357492 
L 226.611337 269.579099 
L 226.880313 263.925345 
L 227.014802 269.668503 
L 227.418266 265.543197 
L 227.552754 269.577577 
L 227.956219 266.053338 
L 228.090707 266.370395 
L 228.225195 277.5508 
L 228.359684 273.529591 
L 228.494172 274.818334 
L 228.62866 272.682901 
L 228.763148 274.782987 
L 228.897637 274.330145 
L 229.032125 269.96767 
L 229.301101 273.706477 
L 229.435589 273.421603 
L 229.570078 260.506414 
L 229.704566 235.304789 
L 230.10803 99.832896 
L 230.242519 102.277797 
L 230.377007 100.758071 
L 230.511495 81.007945 
L 230.645983 125.435455 
L 230.780471 119.209924 
L 230.91496 128.298263 
L 231.318424 207.506473 
L 231.452913 246.832673 
L 231.990865 267.892414 
L 232.125354 269.622192 
L 232.259842 268.616987 
L 232.528818 273.824503 
L 232.663306 269.913648 
L 232.932283 240.382034 
L 233.201259 136.920919 
L 233.335748 114.22267 
L 233.8737 165.025824 
L 234.008189 134.048224 
L 234.142677 150.521284 
L 234.411653 197.001512 
L 234.546141 210.686251 
L 234.815118 265.309096 
L 234.949606 267.61254 
L 235.084094 264.888424 
L 235.218583 270.497707 
L 235.353071 269.286061 
L 235.622047 278.981309 
L 235.891024 273.43553 
L 236.16 252.045071 
L 236.428976 133.505159 
L 236.563465 113.690885 
L 236.697953 130.103787 
L 236.832441 126.445399 
L 236.966929 114.427857 
L 237.235906 174.517284 
L 237.370394 161.973246 
L 237.504882 176.30776 
L 237.908347 257.82428 
L 238.177323 268.472944 
L 238.311811 268.520003 
L 238.4463 270.565606 
L 238.580788 269.712172 
L 238.715276 272.922867 
L 238.984252 283.132185 
L 239.253229 270.545038 
L 239.387717 244.530945 
L 239.656694 141.652555 
L 239.791182 122.684539 
L 239.92567 125.979502 
L 240.463623 182.481199 
L 240.598111 180.476906 
L 240.867087 196.23369 
L 241.136064 255.232027 
L 241.40504 263.825927 
L 241.539529 261.950872 
L 241.674017 262.923939 
L 241.808505 260.648513 
L 241.942993 279.082474 
L 242.077481 275.499054 
L 242.21197 284.428734 
L 242.346458 278.794828 
L 242.615434 246.313427 
L 242.884411 141.11649 
L 243.018899 132.575403 
L 243.153387 165.135743 
L 243.287875 160.439827 
L 243.422363 142.774751 
L 243.556852 160.554545 
L 243.69134 152.70858 
L 243.960316 179.124786 
L 244.229293 234.415881 
L 244.498269 260.495581 
L 244.632757 268.901695 
L 244.767246 269.475328 
L 244.901734 266.965196 
L 245.17071 275.078425 
L 245.305198 272.751947 
L 245.439687 273.415473 
L 245.574175 272.193782 
L 245.708663 269.673254 
L 245.843151 246.843118 
L 245.97764 267.44037 
L 246.246616 259.356024 
L 246.515592 254.649797 
L 246.919057 263.081642 
L 247.053545 268.1207 
L 247.188033 266.623862 
L 247.322522 270.147948 
L 247.45701 270.479649 
L 247.591498 271.469033 
L 247.725986 271.045203 
L 247.860475 275.813769 
L 247.994963 273.083584 
L 248.129451 273.262436 
L 248.263939 274.405037 
L 248.398427 272.738272 
L 248.532916 273.073659 
L 248.667404 271.575794 
L 248.801892 274.253813 
L 248.93638 272.525597 
L 249.339845 274.460206 
L 249.474333 274.677594 
L 249.743309 274.128565 
L 250.012286 273.339821 
L 250.281262 271.47944 
L 250.415751 272.071278 
L 250.684727 270.170394 
L 251.088192 272.536196 
L 251.22268 269.527772 
L 251.357168 271.738452 
L 251.491656 271.301103 
L 251.626144 287.252179 
L 251.760633 280.011905 
L 251.895121 279.964382 
L 252.029609 279.730195 
L 252.298586 260.395729 
L 252.567562 145.058595 
L 252.70205 128.865179 
L 253.240003 178.900227 
L 253.374491 183.944156 
L 253.643468 175.715453 
L 254.181421 263.362504 
L 254.450397 278.552094 
L 254.584885 278.716772 
L 254.719373 279.448681 
L 254.853862 284.762877 
L 254.98835 281.166776 
L 255.122838 283.229321 
L 255.257326 283.05764 
L 255.660791 187.397756 
L 255.795279 150.38302 
L 256.064255 175.374868 
L 256.333232 159.640823 
L 256.46772 167.488394 
L 256.602208 163.697388 
L 256.736697 166.500094 
L 257.005673 214.683315 
L 257.140161 223.361013 
L 257.409138 255.461297 
L 257.543626 266.686957 
L 257.678114 262.790403 
L 257.812602 265.26561 
L 257.94709 264.421359 
L 258.081579 282.300545 
L 258.350555 279.079771 
L 258.485043 276.403799 
L 258.75402 253.429621 
L 259.022996 150.973382 
L 259.291973 170.941088 
L 259.426461 168.620767 
L 259.560949 148.948666 
L 259.829925 180.030901 
L 259.964414 156.937889 
L 260.636855 255.246458 
L 260.905831 265.47639 
L 261.040319 262.000705 
L 261.174808 261.728026 
L 261.309296 271.43644 
L 261.443784 269.112339 
L 261.578272 273.523861 
L 261.847249 265.021656 
L 261.981737 240.753838 
L 262.250713 147.153339 
L 262.51969 166.601583 
L 262.654178 143.647558 
L 262.788666 147.70938 
L 262.923154 161.577994 
L 263.057643 152.596605 
L 263.192131 181.99428 
L 263.326619 186.435666 
L 263.99906 254.995156 
L 264.133548 257.539522 
L 264.268036 257.902594 
L 264.402525 268.890912 
L 264.537013 260.381409 
L 264.671501 264.996729 
L 265.074966 260.159391 
L 265.209454 245.638727 
L 265.881895 109.122891 
L 266.016383 103.532511 
L 266.150871 120.232415 
L 266.28536 120.11287 
L 266.419848 121.402115 
L 266.554336 130.624075 
L 266.823312 185.24245 
L 267.092289 250.726155 
L 267.361265 257.244862 
L 267.495754 253.337338 
L 267.630242 276.950312 
L 267.76473 265.867003 
L 267.899218 267.447175 
L 268.033706 266.937295 
L 268.302683 274.812599 
L 268.437171 273.76145 
L 268.571659 267.89275 
L 268.706147 273.343426 
L 268.840636 272.925467 
L 268.975124 267.172966 
L 269.109612 267.063563 
L 269.513077 260.201923 
L 269.647565 258.189296 
L 269.782053 253.272477 
L 269.916541 252.677185 
L 270.05103 249.794251 
L 270.320006 254.193072 
L 270.454494 255.80109 
L 270.588982 261.671061 
L 270.723471 261.870346 
L 270.857959 286.142887 
L 271.126935 272.532294 
L 271.261424 275.089952 
L 271.5304 273.919242 
L 271.664888 276.186022 
L 271.799376 276.403486 
L 271.933865 278.176077 
L 272.068353 273.907468 
L 272.202841 275.488917 
L 272.337329 274.114073 
L 272.471817 274.916774 
L 272.606306 273.21748 
L 272.740794 269.834151 
L 272.875282 273.908514 
L 273.144258 271.127471 
L 273.278747 267.31556 
L 273.413235 268.513309 
L 273.682211 273.086395 
L 273.8167 272.559419 
L 273.951188 273.361329 
L 274.085676 271.235262 
L 274.220164 288.646222 
L 274.354652 285.78457 
L 274.489141 285.344848 
L 274.623629 282.471977 
L 274.892605 258.860064 
L 275.161582 187.193446 
L 275.430558 152.699146 
L 275.565046 152.725422 
L 275.699535 152.322554 
L 275.834023 156.310024 
L 275.968511 190.894585 
L 276.102999 187.61458 
L 276.506464 234.498488 
L 276.909928 271.809416 
L 277.044417 271.810742 
L 277.178905 277.733732 
L 277.313393 271.264571 
L 277.447881 283.631167 
L 277.58237 279.425289 
L 277.716858 283.767751 
L 277.851346 280.920412 
L 278.120322 255.927968 
L 278.389299 196.245534 
L 278.523787 194.162617 
L 278.658275 175.447257 
L 278.792763 182.489181 
L 278.927252 178.377106 
L 279.06174 199.571593 
L 279.196228 193.863623 
L 279.330716 196.0984 
L 279.734181 241.255636 
L 280.003157 273.861731 
L 280.137646 275.98217 
L 280.272134 276.004736 
L 280.406622 276.674444 
L 280.54111 258.475933 
L 280.810087 264.701619 
L 280.944575 264.898379 
L 281.079063 264.172477 
L 281.213551 251.998819 
L 281.348039 254.092654 
L 281.617016 131.514148 
L 281.751504 132.127191 
L 281.885992 127.809524 
L 282.020481 129.508182 
L 282.289457 152.872175 
L 282.423945 118.823571 
L 282.82741 182.79319 
L 283.230874 260.376545 
L 283.365363 262.724387 
L 283.499851 262.984151 
L 283.634339 263.927587 
L 283.768827 259.233002 
L 283.903316 259.321377 
L 284.037804 259.630039 
L 284.172292 261.884367 
L 284.30678 261.068739 
L 284.575757 252.062716 
L 284.979221 149.867013 
L 285.113709 153.870353 
L 285.248198 139.624228 
L 285.382686 142.123826 
L 285.517174 139.768762 
L 285.651662 157.708964 
L 285.78615 153.603666 
L 285.920639 158.780173 
L 286.324103 248.517286 
L 286.59308 260.192285 
L 286.727568 263.920059 
L 286.862056 259.761853 
L 286.996544 290.993697 
L 287.265521 273.997137 
L 287.400009 275.832729 
L 287.668985 271.819946 
L 287.803474 269.458226 
L 287.937962 272.521836 
L 288.07245 270.812048 
L 288.206938 271.429055 
L 288.341427 267.788066 
L 288.475915 269.588635 
L 288.610403 265.658601 
L 288.744891 266.834742 
L 288.879379 265.443112 
L 289.013868 271.275032 
L 289.148356 269.793153 
L 289.282844 263.478352 
L 289.417332 275.174577 
L 289.55182 275.461234 
L 289.686309 275.408574 
L 289.955285 273.397919 
L 290.089773 275.258867 
L 290.224262 271.744853 
L 290.35875 275.827235 
L 290.493238 273.228967 
L 290.627726 275.608282 
L 290.762214 271.993502 
L 290.896703 261.434817 
L 291.031191 263.178367 
L 291.165679 242.755428 
L 291.300167 167.566481 
L 291.703632 189.268472 
L 291.83812 196.311766 
L 292.107096 177.251057 
L 292.510561 201.411907 
L 292.914026 270.544052 
L 293.048514 268.685114 
L 293.183002 271.897259 
L 293.31749 269.51771 
L 293.451979 264.376992 
L 293.586467 266.211674 
L 293.720955 263.834881 
L 293.855443 269.031165 
L 293.989931 268.040824 
L 294.12442 255.07042 
L 294.258908 255.662743 
L 294.393396 227.333221 
L 294.527884 169.946653 
L 294.662373 173.099834 
L 294.796861 152.721091 
L 294.931349 149.411623 
L 295.065837 134.661695 
L 295.200325 138.696381 
L 295.334814 155.732074 
L 295.469302 146.634206 
L 295.60379 189.347125 
L 295.738278 189.728761 
L 295.872766 207.096522 
L 296.141743 265.211091 
L 296.410719 258.970154 
L 296.545208 268.078572 
L 296.679696 291.285477 
L 296.814184 281.64378 
L 297.08316 279.880354 
L 297.217649 279.829592 
L 297.621113 281.110542 
L 297.755601 279.968382 
L 297.89009 279.861878 
L 298.159066 274.405084 
L 298.293554 277.837828 
L 298.428042 277.583372 
L 298.697019 274.125734 
L 299.100484 269.857919 
L 299.234972 270.551333 
L 299.36946 275.390021 
L 299.503948 275.779426 
L 299.638436 273.347961 
L 299.772925 276.38529 
L 299.907413 255.55805 
L 300.041901 270.598605 
L 300.176389 268.616667 
L 300.310877 269.980971 
L 300.445366 269.239735 
L 300.714342 251.279493 
L 300.983319 163.182064 
L 301.386783 121.63979 
L 301.521271 125.482839 
L 301.65576 151.057975 
L 301.790248 136.785622 
L 302.597177 255.770772 
L 302.731665 260.789292 
L 302.866153 258.953794 
L 303.13513 269.355443 
L 303.269618 264.764465 
L 303.404106 264.78596 
L 303.538595 269.651565 
L 303.673083 268.048031 
L 303.807571 246.7744 
L 303.942059 245.334797 
L 304.211036 156.699105 
L 304.345524 163.810548 
L 304.480012 161.816444 
L 304.748988 153.192445 
L 304.883477 169.115624 
L 305.017965 151.390536 
L 305.286941 190.725821 
L 305.42143 212.487089 
L 305.555918 215.41211 
L 305.824894 257.034248 
L 305.959382 267.127641 
L 306.093871 263.833948 
L 306.228359 267.250791 
L 306.362847 265.752552 
L 306.497335 279.982751 
L 306.766312 275.467643 
L 306.9008 275.3069 
L 307.035288 265.862562 
L 307.169776 247.998165 
L 307.438753 149.407046 
L 307.707729 175.074898 
L 307.842217 160.213218 
L 307.976706 157.709091 
L 308.111194 170.782343 
L 308.245682 158.314669 
L 308.38017 167.440664 
L 309.052611 265.756338 
L 309.456076 272.965866 
L 309.590564 272.590972 
L 309.725052 276.142006 
L 309.859541 273.93299 
L 309.994029 275.297526 
L 310.128517 274.225449 
L 310.263005 266.652374 
L 310.397493 243.117214 
L 310.66647 150.75843 
L 310.935446 172.971556 
L 311.204423 159.218542 
L 311.338911 170.200605 
L 311.473399 169.346556 
L 311.607887 161.442242 
L 311.742376 180.156978 
L 311.876864 217.135226 
L 312.011352 223.267082 
L 312.280328 260.178723 
L 312.549305 265.057631 
L 312.952769 270.484039 
L 313.087258 267.118784 
L 313.221746 270.639252 
L 313.356234 268.918859 
L 313.490722 271.530187 
L 313.894187 244.800154 
L 314.028675 256.896575 
L 314.163163 252.217767 
L 314.297652 256.08428 
L 314.43214 251.525629 
L 314.566628 260.144104 
L 314.701116 260.553463 
L 314.835604 260.458947 
L 315.104581 266.403708 
L 315.373557 262.915781 
L 315.508045 267.838737 
L 315.642534 266.773624 
L 315.777022 267.172519 
L 315.91151 266.099972 
L 316.045998 268.790244 
L 316.180487 268.855745 
L 316.314975 270.614152 
L 316.449463 268.60846 
L 316.583951 270.576801 
L 316.718439 270.482982 
L 316.852928 272.144687 
L 316.987416 271.68016 
L 317.121904 269.721554 
L 317.256392 270.626855 
L 317.39088 268.637517 
L 317.525369 269.784895 
L 317.659857 266.947505 
L 317.794345 269.807253 
L 317.928833 265.935321 
L 318.063322 265.650549 
L 318.466786 260.455915 
L 318.601274 263.654052 
L 318.735763 262.457235 
L 318.870251 265.958396 
L 319.004739 264.459617 
L 319.273715 265.808586 
L 319.408204 284.454353 
L 319.542692 278.072359 
L 319.67718 277.036082 
L 319.811668 277.0814 
L 319.946157 271.3385 
L 320.080645 256.740426 
L 320.349621 150.539879 
L 320.484109 133.759074 
L 320.618598 131.040286 
L 321.291039 188.047323 
L 321.425527 190.172989 
L 321.560015 188.217844 
L 321.96348 264.980617 
L 322.097968 266.669566 
L 322.232456 264.974802 
L 322.366944 269.532027 
L 322.501433 268.10006 
L 322.635921 283.993044 
L 322.904897 278.360886 
L 323.039385 277.061261 
L 323.308362 263.541836 
L 323.577338 154.163246 
L 323.846315 177.542208 
L 324.115291 151.474506 
L 324.249779 159.577956 
L 324.384268 160.832359 
L 324.518756 166.008797 
L 324.787732 199.129039 
L 324.92222 212.061862 
L 325.191197 263.561055 
L 325.325685 263.366881 
L 325.460173 262.652158 
L 325.594661 267.409407 
L 325.72915 266.825541 
L 325.863638 279.321594 
L 325.998126 278.525338 
L 326.132614 278.922328 
L 326.267103 277.658874 
L 326.401591 271.28391 
L 326.536079 256.728381 
L 326.805055 147.754883 
L 327.074032 179.464556 
L 327.20852 160.473078 
L 327.343008 162.37444 
L 327.477496 176.321804 
L 327.611985 170.786609 
L 327.746473 169.866885 
L 327.880961 178.573594 
L 328.149937 220.612063 
L 328.418914 255.946668 
L 328.68789 267.222235 
L 328.822379 271.562837 
L 328.956867 271.597044 
L 329.091355 285.633889 
L 329.225843 279.495202 
L 329.360331 279.075863 
L 329.49482 276.937405 
L 329.763796 256.948604 
L 330.032772 158.408338 
L 330.301749 175.642049 
L 330.570725 158.756414 
L 330.705214 158.148068 
L 330.97419 191.91262 
L 331.108678 188.727312 
L 331.243166 193.231315 
L 331.646631 261.849039 
L 331.781119 263.635187 
L 331.915607 263.25665 
L 332.050096 265.311053 
L 332.184584 269.894397 
L 332.319072 284.185357 
L 332.588049 275.372984 
L 332.722537 276.839396 
L 332.991513 255.687305 
L 333.26049 156.650141 
L 333.529466 183.088233 
L 333.663954 165.338787 
L 333.798442 165.488001 
L 334.067419 175.515058 
L 334.336395 192.791986 
L 334.470883 198.969191 
L 334.73986 258.790542 
L 335.008836 266.684056 
L 335.277813 273.874283 
L 335.546789 269.799614 
L 335.681277 269.927091 
L 335.815766 269.429127 
L 336.084742 273.201024 
L 336.757183 249.695719 
L 336.891671 254.203745 
L 337.02616 253.971375 
L 337.295136 259.466478 
L 337.564112 263.882175 
L 337.833089 266.161151 
L 337.967577 264.507075 
L 338.102065 268.887165 
L 338.236553 268.815928 
L 338.371042 266.691133 
L 338.50553 266.7258 
L 338.640018 262.115052 
L 338.908995 266.686414 
L 339.043483 266.294896 
L 339.446947 269.877268 
L 339.581436 270.666947 
L 339.850412 267.487333 
L 339.9849 269.175418 
L 340.119388 268.578409 
L 340.253877 269.865363 
L 340.388365 269.575388 
L 340.522853 271.853101 
L 340.657341 269.251834 
L 340.791829 270.024838 
L 341.060806 268.401292 
L 341.195294 262.672844 
L 341.464271 270.080196 
L 341.598759 268.417814 
L 341.733247 269.646741 
L 341.867735 272.115243 
L 342.002223 284.001033 
L 342.2712 277.690152 
L 342.405688 278.745972 
L 342.540176 262.393134 
L 342.674664 260.41439 
L 342.943641 148.930691 
L 343.078129 137.231265 
L 343.347106 174.616727 
L 343.481594 173.865453 
L 343.75057 187.931967 
L 344.019547 194.557804 
L 344.154035 191.975502 
L 344.423011 255.43329 
L 344.557499 262.436536 
L 344.691988 261.421068 
L 344.960964 272.944928 
L 345.095452 272.428947 
L 345.22994 282.28188 
L 345.364429 279.955462 
L 345.498917 279.877339 
L 345.633405 278.481125 
L 345.902382 259.751341 
L 346.171358 162.155517 
L 346.305846 179.127555 
L 346.440334 178.29487 
L 346.709311 168.467576 
L 346.978287 180.312138 
L 347.247264 183.224908 
L 347.51624 227.847361 
L 347.785217 260.002482 
L 348.188681 270.894263 
L 348.323169 268.447829 
L 348.457658 282.856263 
L 348.592146 277.546378 
L 348.726634 279.364725 
L 348.861122 277.427422 
L 349.130099 256.604801 
L 349.399075 158.751581 
L 349.533563 173.931306 
L 349.80254 160.682302 
L 349.937028 160.825007 
L 350.743957 229.744143 
L 351.012934 260.827493 
L 351.147422 269.464672 
L 351.28191 268.099303 
L 351.550886 271.851522 
L 351.685375 285.556521 
L 351.819863 277.45876 
L 352.088839 277.001267 
L 352.223328 274.241291 
L 352.357816 260.191573 
L 352.626792 156.062443 
L 352.76128 177.266197 
L 352.895769 177.727102 
L 353.164745 162.775873 
L 353.299233 175.366366 
L 353.433721 174.172723 
L 353.702698 152.576523 
L 354.106163 255.751181 
L 354.375139 270.43954 
L 354.509627 270.618361 
L 354.644115 272.540245 
L 354.913092 279.221083 
L 355.04758 277.885691 
L 355.182068 278.112046 
L 355.316556 277.699152 
L 355.451045 272.541117 
L 355.585533 255.579578 
L 355.854509 183.25013 
L 355.988998 185.024727 
L 356.257974 147.683244 
L 356.795927 190.545809 
L 356.930415 187.678467 
L 357.199391 232.044947 
L 357.468368 273.476981 
L 357.602856 273.6578 
L 357.737344 275.198692 
L 357.871832 275.247484 
L 358.006321 280.605241 
L 358.140809 276.466239 
L 358.275297 276.204443 
L 358.409785 277.252576 
L 358.544274 276.635892 
L 358.81325 274.845314 
L 359.082226 256.486627 
L 359.216715 253.297823 
L 359.351203 253.37171 
L 359.485691 249.880935 
L 359.620179 243.137148 
L 359.754667 262.922054 
L 359.889156 263.55256 
L 360.023644 260.974161 
L 360.29262 270.05875 
L 360.427109 277.731103 
L 360.561597 273.614338 
L 360.696085 274.119725 
L 360.830573 276.701404 
L 360.965061 276.955736 
L 361.09955 277.596529 
L 361.234038 277.114604 
L 361.368526 277.223394 
L 361.503014 276.17875 
L 361.637502 278.530618 
L 361.906479 276.407917 
L 362.040967 279.235864 
L 362.175455 278.254438 
L 362.444432 279.152693 
L 362.57892 276.47977 
L 362.713408 276.556444 
L 362.847896 276.791742 
L 363.116873 273.781124 
L 363.251361 271.312258 
L 363.385849 272.051535 
L 363.520337 274.403287 
L 363.654826 271.906413 
L 363.789314 272.356589 
L 364.192778 276.342975 
L 364.327267 223.695256 
L 364.596243 252.442231 
L 364.730731 252.146195 
L 364.86522 258.83561 
L 364.999708 254.578503 
L 365.268684 202.143603 
L 365.537661 114.282987 
L 365.806637 101.366073 
L 365.941125 97.632605 
L 366.210102 130.77253 
L 366.479078 125.595025 
L 366.613566 142.060666 
L 366.882543 240.306834 
L 367.286007 260.705842 
L 367.420496 255.483379 
L 367.554984 266.838434 
L 367.689472 266.456486 
L 367.82396 264.614161 
L 368.092937 270.225135 
L 368.227425 237.640648 
L 368.361913 233.940315 
L 368.765378 94.256988 
L 368.899866 99.801546 
L 369.168842 85.925287 
L 369.303331 99.759481 
L 369.437819 101.435393 
L 369.572307 110.496155 
L 369.706795 106.953943 
L 369.841283 128.85437 
L 370.11026 237.07137 
L 370.244748 231.498101 
L 370.782701 288.582503 
L 371.051677 276.615626 
L 371.186166 277.77102 
L 371.320654 275.964772 
L 371.58963 251.633005 
L 371.858607 155.531619 
L 371.993095 159.566395 
L 372.262071 219.52788 
L 372.396559 205.300217 
L 372.531048 207.505829 
L 372.800024 189.442315 
L 372.934512 199.318164 
L 373.069001 228.440081 
L 373.203489 227.958873 
L 373.472465 260.497816 
L 373.606953 262.463721 
L 373.87593 268.959109 
L 374.144906 292.359052 
L 374.279394 284.810793 
L 374.413883 285.118718 
L 374.548371 283.008155 
L 374.817347 256.528288 
L 375.086324 192.927213 
L 375.3553 172.172399 
L 375.624277 177.909906 
L 375.758765 181.153382 
L 375.893253 191.379676 
L 376.027741 192.031796 
L 376.162229 200.462665 
L 376.431206 233.540559 
L 376.700182 265.752381 
L 376.83467 267.239215 
L 376.969159 266.377431 
L 377.103647 268.086761 
L 377.238135 287.089653 
L 377.372623 276.490848 
L 377.6416 277.478399 
L 377.776088 271.833728 
L 377.910576 280.095045 
L 378.045064 275.974123 
L 378.179553 275.617583 
L 378.314041 258.162208 
L 378.448529 265.150434 
L 378.583017 251.86614 
L 378.717505 259.478228 
L 378.851994 257.991839 
L 378.986482 267.853294 
L 379.12097 263.351894 
L 379.389947 268.49104 
L 379.524435 265.748163 
L 379.793411 273.746612 
L 379.927899 274.172383 
L 380.062388 277.698917 
L 380.196876 275.103875 
L 380.331364 275.591463 
L 380.465852 254.575249 
L 380.734829 268.031061 
L 380.869317 269.715068 
L 381.003805 269.328851 
L 381.138293 250.099901 
L 381.272782 253.873701 
L 381.541758 145.190249 
L 381.676246 143.622249 
L 381.810734 146.680008 
L 381.945223 137.841682 
L 382.348687 154.695767 
L 382.483175 140.597113 
L 382.617664 174.906318 
L 382.752152 180.085956 
L 383.155616 263.647028 
L 383.290105 267.502911 
L 383.424593 267.277939 
L 383.559081 266.745634 
L 383.693569 254.455005 
L 383.962546 258.172123 
L 384.097034 258.747091 
L 384.231522 261.075923 
L 384.36601 256.419746 
L 384.500499 260.719999 
L 384.769475 165.909193 
L 384.903963 158.839676 
L 385.038451 158.663262 
L 385.17294 142.342976 
L 385.307428 152.788315 
L 385.441916 183.093853 
L 385.576404 173.731865 
L 385.710893 173.745672 
L 385.845381 208.172939 
L 385.979869 208.862127 
L 386.383334 270.571774 
L 386.517822 269.009366 
L 386.65231 274.061881 
L 386.786798 270.2241 
L 386.921286 281.776404 
L 387.190263 273.897599 
L 387.324751 276.810491 
L 387.459239 274.488179 
L 387.593727 275.103694 
L 387.728216 277.683125 
L 387.862704 275.387126 
L 387.997192 278.242012 
L 388.13168 275.189893 
L 388.266169 278.831129 
L 388.535145 272.935477 
L 388.669633 274.899554 
L 388.804121 273.762003 
L 388.93861 275.909002 
L 389.073098 270.288696 
L 389.611051 284.887433 
L 389.745539 280.101541 
L 389.880027 281.689377 
L 390.014515 281.126305 
L 390.149004 250.575873 
L 390.41798 265.864436 
L 390.552468 265.841765 
L 390.686956 266.145386 
L 390.821445 255.081326 
L 390.955933 260.405022 
L 391.090421 243.632165 
L 391.224909 172.78506 
L 391.359397 188.273257 
L 391.493886 153.44114 
L 391.628374 155.570646 
L 391.89735 184.204261 
L 392.031839 181.93336 
L 392.166327 169.022802 
L 392.435303 193.428289 
L 392.838768 272.129648 
L 392.973256 271.343803 
L 393.107744 271.854327 
L 393.242232 270.439265 
L 393.376721 256.626977 
L 393.511209 258.856475 
L 393.645697 269.684274 
L 393.780185 268.704722 
L 393.914673 260.746432 
L 394.049162 265.90022 
L 394.18365 250.141241 
L 394.587115 157.014373 
L 394.721603 153.434561 
L 394.856091 140.43858 
L 395.125067 150.331525 
L 395.259556 149.923482 
L 395.394044 171.700597 
L 395.528532 165.728209 
L 395.797508 215.165705 
L 396.066485 257.19742 
L 396.200973 262.399017 
L 396.335461 262.791318 
L 396.46995 253.014536 
L 396.604438 295.488 
L 396.738926 281.408714 
L 396.873414 280.251294 
L 397.007902 280.557527 
L 397.142391 281.639672 
L 397.411367 258.013723 
L 397.680343 172.924492 
L 397.814832 183.113092 
L 398.218296 148.873252 
L 398.352785 175.069927 
L 398.487273 165.834725 
L 398.487273 165.834725 
" clip-path="url(#pb6b2fab8fb)" style="fill: none; stroke: #ff7f0e; stroke-width: 1.5; stroke-linecap: square"/>
   </g>
   <g id="patch_3">
    <path d="M 57.6 307.584 
L 57.6 41.472 
" style="fill: none; stroke: #000000; stroke-width: 0.8; stroke-linejoin: miter; stroke-linecap: square"/>
   </g>
   <g id="patch_4">
    <path d="M 414.72 307.584 
L 414.72 41.472 
" style="fill: none; stroke: #000000; stroke-width: 0.8; stroke-linejoin: miter; stroke-linecap: square"/>
   </g>
   <g id="patch_5">
    <path d="M 57.6 307.584 
L 414.72 307.584 
" style="fill: none; stroke: #000000; stroke-width: 0.8; stroke-linejoin: miter; stroke-linecap: square"/>
   </g>
   <g id="patch_6">
    <path d="M 57.6 41.472 
L 414.72 41.472 
" style="fill: none; stroke: #000000; stroke-width: 0.8; stroke-linejoin: miter; stroke-linecap: square"/>
   </g>
  </g>
 </g>
 <defs>
  <clipPath id="pb6b2fab8fb">
   <rect x="57.6" y="41.472" width="357.12" height="266.112"/>
  </clipPath>
 </defs>
</svg>
