<?xml version="1.0" encoding="utf-8" standalone="no"?>
<!DOCTYPE svg PUBLIC "-//W3C//DTD SVG 1.1//EN"
  "http://www.w3.org/Graphics/SVG/1.1/DTD/svg11.dtd">
<svg xmlns:xlink="http://www.w3.org/1999/xlink" width="460.8pt" height="345.6pt" viewBox="0 0 460.8 345.6" xmlns="http://www.w3.org/2000/svg" version="1.1">
 <metadata>
  <rdf:RDF xmlns:dc="http://purl.org/dc/elements/1.1/" xmlns:cc="http://creativecommons.org/ns#" xmlns:rdf="http://www.w3.org/1999/02/22-rdf-syntax-ns#">
   <cc:Work>
    <dc:type rdf:resource="http://purl.org/dc/dcmitype/StillImage"/>
    <dc:date>2023-04-04T04:36:29.583159</dc:date>
    <dc:format>image/svg+xml</dc:format>
    <dc:creator>
     <cc:Agent>
      <dc:title>Matplotlib v3.5.2, https://matplotlib.org/</dc:title>
     </cc:Agent>
    </dc:creator>
   </cc:Work>
  </rdf:RDF>
 </metadata>
 <defs>
  <style type="text/css">*{stroke-linejoin: round; stroke-linecap: butt}</style>
 </defs>
 <g id="figure_1">
  <g id="patch_1">
   <path d="M 0 345.6 
L 460.8 345.6 
L 460.8 0 
L 0 0 
z
" style="fill: #ffffff"/>
  </g>
  <g id="axes_1">
   <g id="patch_2">
    <path d="M 57.6 307.584 
L 414.72 307.584 
L 414.72 41.472 
L 57.6 41.472 
z
" style="fill: #ffffff"/>
   </g>
   <g id="matplotlib.axis_1">
    <g id="xtick_1">
     <g id="line2d_1">
      <defs>
       <path id="m51d02438b6" d="M 0 0 
L 0 3.5 
" style="stroke: #000000; stroke-width: 0.8"/>
      </defs>
      <g>
       <use xlink:href="#m51d02438b6" x="73.832727" y="307.584" style="stroke: #000000; stroke-width: 0.8"/>
      </g>
     </g>
     <g id="text_1">
      <!-- 0 -->
      <g transform="translate(70.651477 322.182437)scale(0.1 -0.1)">
       <defs>
        <path id="DejaVuSans-30" d="M 2034 4250 
Q 1547 4250 1301 3770 
Q 1056 3291 1056 2328 
Q 1056 1369 1301 889 
Q 1547 409 2034 409 
Q 2525 409 2770 889 
Q 3016 1369 3016 2328 
Q 3016 3291 2770 3770 
Q 2525 4250 2034 4250 
z
M 2034 4750 
Q 2819 4750 3233 4129 
Q 3647 3509 3647 2328 
Q 3647 1150 3233 529 
Q 2819 -91 2034 -91 
Q 1250 -91 836 529 
Q 422 1150 422 2328 
Q 422 3509 836 4129 
Q 1250 4750 2034 4750 
z
" transform="scale(0.015625)"/>
       </defs>
       <use xlink:href="#DejaVuSans-30"/>
      </g>
     </g>
    </g>
    <g id="xtick_2">
     <g id="line2d_2">
      <g>
       <use xlink:href="#m51d02438b6" x="141.076834" y="307.584" style="stroke: #000000; stroke-width: 0.8"/>
      </g>
     </g>
     <g id="text_2">
      <!-- 500 -->
      <g transform="translate(131.533084 322.182437)scale(0.1 -0.1)">
       <defs>
        <path id="DejaVuSans-35" d="M 691 4666 
L 3169 4666 
L 3169 4134 
L 1269 4134 
L 1269 2991 
Q 1406 3038 1543 3061 
Q 1681 3084 1819 3084 
Q 2600 3084 3056 2656 
Q 3513 2228 3513 1497 
Q 3513 744 3044 326 
Q 2575 -91 1722 -91 
Q 1428 -91 1123 -41 
Q 819 9 494 109 
L 494 744 
Q 775 591 1075 516 
Q 1375 441 1709 441 
Q 2250 441 2565 725 
Q 2881 1009 2881 1497 
Q 2881 1984 2565 2268 
Q 2250 2553 1709 2553 
Q 1456 2553 1204 2497 
Q 953 2441 691 2322 
L 691 4666 
z
" transform="scale(0.015625)"/>
       </defs>
       <use xlink:href="#DejaVuSans-35"/>
       <use xlink:href="#DejaVuSans-30" x="63.623047"/>
       <use xlink:href="#DejaVuSans-30" x="127.246094"/>
      </g>
     </g>
    </g>
    <g id="xtick_3">
     <g id="line2d_3">
      <g>
       <use xlink:href="#m51d02438b6" x="208.32094" y="307.584" style="stroke: #000000; stroke-width: 0.8"/>
      </g>
     </g>
     <g id="text_3">
      <!-- 1000 -->
      <g transform="translate(195.59594 322.182437)scale(0.1 -0.1)">
       <defs>
        <path id="DejaVuSans-31" d="M 794 531 
L 1825 531 
L 1825 4091 
L 703 3866 
L 703 4441 
L 1819 4666 
L 2450 4666 
L 2450 531 
L 3481 531 
L 3481 0 
L 794 0 
L 794 531 
z
" transform="scale(0.015625)"/>
       </defs>
       <use xlink:href="#DejaVuSans-31"/>
       <use xlink:href="#DejaVuSans-30" x="63.623047"/>
       <use xlink:href="#DejaVuSans-30" x="127.246094"/>
       <use xlink:href="#DejaVuSans-30" x="190.869141"/>
      </g>
     </g>
    </g>
    <g id="xtick_4">
     <g id="line2d_4">
      <g>
       <use xlink:href="#m51d02438b6" x="275.565046" y="307.584" style="stroke: #000000; stroke-width: 0.8"/>
      </g>
     </g>
     <g id="text_4">
      <!-- 1500 -->
      <g transform="translate(262.840046 322.182437)scale(0.1 -0.1)">
       <use xlink:href="#DejaVuSans-31"/>
       <use xlink:href="#DejaVuSans-35" x="63.623047"/>
       <use xlink:href="#DejaVuSans-30" x="127.246094"/>
       <use xlink:href="#DejaVuSans-30" x="190.869141"/>
      </g>
     </g>
    </g>
    <g id="xtick_5">
     <g id="line2d_5">
      <g>
       <use xlink:href="#m51d02438b6" x="342.809153" y="307.584" style="stroke: #000000; stroke-width: 0.8"/>
      </g>
     </g>
     <g id="text_5">
      <!-- 2000 -->
      <g transform="translate(330.084153 322.182437)scale(0.1 -0.1)">
       <defs>
        <path id="DejaVuSans-32" d="M 1228 531 
L 3431 531 
L 3431 0 
L 469 0 
L 469 531 
Q 828 903 1448 1529 
Q 2069 2156 2228 2338 
Q 2531 2678 2651 2914 
Q 2772 3150 2772 3378 
Q 2772 3750 2511 3984 
Q 2250 4219 1831 4219 
Q 1534 4219 1204 4116 
Q 875 4013 500 3803 
L 500 4441 
Q 881 4594 1212 4672 
Q 1544 4750 1819 4750 
Q 2544 4750 2975 4387 
Q 3406 4025 3406 3419 
Q 3406 3131 3298 2873 
Q 3191 2616 2906 2266 
Q 2828 2175 2409 1742 
Q 1991 1309 1228 531 
z
" transform="scale(0.015625)"/>
       </defs>
       <use xlink:href="#DejaVuSans-32"/>
       <use xlink:href="#DejaVuSans-30" x="63.623047"/>
       <use xlink:href="#DejaVuSans-30" x="127.246094"/>
       <use xlink:href="#DejaVuSans-30" x="190.869141"/>
      </g>
     </g>
    </g>
    <g id="xtick_6">
     <g id="line2d_6">
      <g>
       <use xlink:href="#m51d02438b6" x="410.053259" y="307.584" style="stroke: #000000; stroke-width: 0.8"/>
      </g>
     </g>
     <g id="text_6">
      <!-- 2500 -->
      <g transform="translate(397.328259 322.182437)scale(0.1 -0.1)">
       <use xlink:href="#DejaVuSans-32"/>
       <use xlink:href="#DejaVuSans-35" x="63.623047"/>
       <use xlink:href="#DejaVuSans-30" x="127.246094"/>
       <use xlink:href="#DejaVuSans-30" x="190.869141"/>
      </g>
     </g>
    </g>
   </g>
   <g id="matplotlib.axis_2">
    <g id="ytick_1">
     <g id="line2d_7">
      <defs>
       <path id="mc7d3167845" d="M 0 0 
L -3.5 0 
" style="stroke: #000000; stroke-width: 0.8"/>
      </defs>
      <g>
       <use xlink:href="#mc7d3167845" x="57.6" y="273.541439" style="stroke: #000000; stroke-width: 0.8"/>
      </g>
     </g>
     <g id="text_7">
      <!-- 100 -->
      <g transform="translate(31.5125 277.340658)scale(0.1 -0.1)">
       <use xlink:href="#DejaVuSans-31"/>
       <use xlink:href="#DejaVuSans-30" x="63.623047"/>
       <use xlink:href="#DejaVuSans-30" x="127.246094"/>
      </g>
     </g>
    </g>
    <g id="ytick_2">
     <g id="line2d_8">
      <g>
       <use xlink:href="#mc7d3167845" x="57.6" y="227.19016" style="stroke: #000000; stroke-width: 0.8"/>
      </g>
     </g>
     <g id="text_8">
      <!-- 200 -->
      <g transform="translate(31.5125 230.989378)scale(0.1 -0.1)">
       <use xlink:href="#DejaVuSans-32"/>
       <use xlink:href="#DejaVuSans-30" x="63.623047"/>
       <use xlink:href="#DejaVuSans-30" x="127.246094"/>
      </g>
     </g>
    </g>
    <g id="ytick_3">
     <g id="line2d_9">
      <g>
       <use xlink:href="#mc7d3167845" x="57.6" y="180.83888" style="stroke: #000000; stroke-width: 0.8"/>
      </g>
     </g>
     <g id="text_9">
      <!-- 300 -->
      <g transform="translate(31.5125 184.638099)scale(0.1 -0.1)">
       <defs>
        <path id="DejaVuSans-33" d="M 2597 2516 
Q 3050 2419 3304 2112 
Q 3559 1806 3559 1356 
Q 3559 666 3084 287 
Q 2609 -91 1734 -91 
Q 1441 -91 1130 -33 
Q 819 25 488 141 
L 488 750 
Q 750 597 1062 519 
Q 1375 441 1716 441 
Q 2309 441 2620 675 
Q 2931 909 2931 1356 
Q 2931 1769 2642 2001 
Q 2353 2234 1838 2234 
L 1294 2234 
L 1294 2753 
L 1863 2753 
Q 2328 2753 2575 2939 
Q 2822 3125 2822 3475 
Q 2822 3834 2567 4026 
Q 2313 4219 1838 4219 
Q 1578 4219 1281 4162 
Q 984 4106 628 3988 
L 628 4550 
Q 988 4650 1302 4700 
Q 1616 4750 1894 4750 
Q 2613 4750 3031 4423 
Q 3450 4097 3450 3541 
Q 3450 3153 3228 2886 
Q 3006 2619 2597 2516 
z
" transform="scale(0.015625)"/>
       </defs>
       <use xlink:href="#DejaVuSans-33"/>
       <use xlink:href="#DejaVuSans-30" x="63.623047"/>
       <use xlink:href="#DejaVuSans-30" x="127.246094"/>
      </g>
     </g>
    </g>
    <g id="ytick_4">
     <g id="line2d_10">
      <g>
       <use xlink:href="#mc7d3167845" x="57.6" y="134.4876" style="stroke: #000000; stroke-width: 0.8"/>
      </g>
     </g>
     <g id="text_10">
      <!-- 400 -->
      <g transform="translate(31.5125 138.286819)scale(0.1 -0.1)">
       <defs>
        <path id="DejaVuSans-34" d="M 2419 4116 
L 825 1625 
L 2419 1625 
L 2419 4116 
z
M 2253 4666 
L 3047 4666 
L 3047 1625 
L 3713 1625 
L 3713 1100 
L 3047 1100 
L 3047 0 
L 2419 0 
L 2419 1100 
L 313 1100 
L 313 1709 
L 2253 4666 
z
" transform="scale(0.015625)"/>
       </defs>
       <use xlink:href="#DejaVuSans-34"/>
       <use xlink:href="#DejaVuSans-30" x="63.623047"/>
       <use xlink:href="#DejaVuSans-30" x="127.246094"/>
      </g>
     </g>
    </g>
    <g id="ytick_5">
     <g id="line2d_11">
      <g>
       <use xlink:href="#mc7d3167845" x="57.6" y="88.136321" style="stroke: #000000; stroke-width: 0.8"/>
      </g>
     </g>
     <g id="text_11">
      <!-- 500 -->
      <g transform="translate(31.5125 91.93554)scale(0.1 -0.1)">
       <use xlink:href="#DejaVuSans-35"/>
       <use xlink:href="#DejaVuSans-30" x="63.623047"/>
       <use xlink:href="#DejaVuSans-30" x="127.246094"/>
      </g>
     </g>
    </g>
    <g id="ytick_6">
     <g id="line2d_12">
      <g>
       <use xlink:href="#mc7d3167845" x="57.6" y="41.785041" style="stroke: #000000; stroke-width: 0.8"/>
      </g>
     </g>
     <g id="text_12">
      <!-- 600 -->
      <g transform="translate(31.5125 45.58426)scale(0.1 -0.1)">
       <defs>
        <path id="DejaVuSans-36" d="M 2113 2584 
Q 1688 2584 1439 2293 
Q 1191 2003 1191 1497 
Q 1191 994 1439 701 
Q 1688 409 2113 409 
Q 2538 409 2786 701 
Q 3034 994 3034 1497 
Q 3034 2003 2786 2293 
Q 2538 2584 2113 2584 
z
M 3366 4563 
L 3366 3988 
Q 3128 4100 2886 4159 
Q 2644 4219 2406 4219 
Q 1781 4219 1451 3797 
Q 1122 3375 1075 2522 
Q 1259 2794 1537 2939 
Q 1816 3084 2150 3084 
Q 2853 3084 3261 2657 
Q 3669 2231 3669 1497 
Q 3669 778 3244 343 
Q 2819 -91 2113 -91 
Q 1303 -91 875 529 
Q 447 1150 447 2328 
Q 447 3434 972 4092 
Q 1497 4750 2381 4750 
Q 2619 4750 2861 4703 
Q 3103 4656 3366 4563 
z
" transform="scale(0.015625)"/>
       </defs>
       <use xlink:href="#DejaVuSans-36"/>
       <use xlink:href="#DejaVuSans-30" x="63.623047"/>
       <use xlink:href="#DejaVuSans-30" x="127.246094"/>
      </g>
     </g>
    </g>
   </g>
   <g id="line2d_13">
    <path d="M 73.832727 276.519045 
L 74.101704 275.986469 
L 74.236192 274.909729 
L 74.37068 275.844171 
L 74.505168 275.366753 
L 74.639657 275.950315 
L 74.774145 269.676206 
L 74.908633 243.388541 
L 75.177609 241.940991 
L 75.312098 242.479593 
L 75.446586 242.530579 
L 75.581074 243.370928 
L 75.715562 242.637651 
L 75.85005 242.616329 
L 76.253515 237.782818 
L 76.522492 270.803006 
L 76.65698 271.106607 
L 76.925956 269.451866 
L 77.060444 260.865755 
L 77.194933 263.04102 
L 77.463909 263.102668 
L 77.598397 264.638749 
L 77.732885 259.474753 
L 77.867374 246.476 
L 78.405327 102.568719 
L 78.674303 101.675066 
L 78.808791 108.595776 
L 78.943279 103.939326 
L 79.481232 155.032342 
L 79.750209 223.26467 
L 80.019185 256.928677 
L 80.153673 258.988064 
L 80.288161 255.270228 
L 80.42265 265.349314 
L 80.557138 264.927981 
L 80.826114 267.359106 
L 80.960603 264.896462 
L 81.095091 254.897101 
L 81.364067 164.909336 
L 81.498555 176.835057 
L 81.767532 158.021999 
L 82.036508 165.78074 
L 82.170996 162.774396 
L 82.305485 156.981876 
L 83.112414 254.433588 
L 83.650367 279.818793 
L 83.784855 279.838724 
L 83.919343 281.320575 
L 84.053831 281.506907 
L 84.18832 279.47394 
L 84.322808 272.469798 
L 84.726273 185.086975 
L 84.860761 176.686269 
L 84.995249 180.657647 
L 85.129737 166.229884 
L 85.264225 174.511003 
L 85.398714 175.235474 
L 85.66769 183.278348 
L 85.802178 191.780563 
L 86.340131 256.494366 
L 86.474619 258.445755 
L 86.609107 263.206031 
L 86.878084 280.18914 
L 87.012572 282.371358 
L 87.14706 282.054779 
L 87.281549 283.500012 
L 87.416037 283.405919 
L 87.550525 282.619337 
L 87.819501 255.955764 
L 87.95399 256.097135 
L 88.088478 250.584577 
L 88.222966 251.999682 
L 88.357454 251.265014 
L 88.491942 248.0093 
L 88.626431 250.757468 
L 88.760919 243.977203 
L 88.895407 246.766623 
L 89.029895 246.765232 
L 89.164384 249.247807 
L 89.43336 269.897765 
L 89.567848 271.510326 
L 89.702336 271.027346 
L 89.836825 272.054954 
L 89.971313 257.368551 
L 90.105801 258.060112 
L 90.240289 259.557258 
L 90.374777 259.333845 
L 90.509266 260.532026 
L 90.643754 260.698427 
L 90.778242 262.733711 
L 90.91273 259.609172 
L 91.047218 249.974131 
L 91.181707 248.838988 
L 91.316195 242.119443 
L 91.450683 246.418524 
L 91.585171 244.51256 
L 91.71966 245.965209 
L 91.854148 246.184451 
L 92.123124 249.076307 
L 92.257612 248.521019 
L 92.526589 253.945509 
L 92.795565 260.341522 
L 92.930053 261.26762 
L 93.064542 260.161679 
L 93.19903 269.875053 
L 93.468006 269.99603 
L 93.602495 271.024565 
L 93.736983 269.827775 
L 93.871471 267.380891 
L 94.005959 262.319331 
L 94.6784 158.30057 
L 94.812888 154.035326 
L 95.081865 165.53925 
L 95.216353 160.47908 
L 95.350841 149.550376 
L 96.023282 258.762797 
L 96.157771 259.470581 
L 96.426747 263.280656 
L 96.561235 262.957125 
L 96.695723 263.032214 
L 96.830212 264.858918 
L 96.9647 264.240128 
L 97.099188 262.855152 
L 97.233676 254.639387 
L 97.368164 237.598803 
L 97.502653 197.796496 
L 97.637141 190.911477 
L 97.771629 175.898761 
L 97.906117 184.044998 
L 98.040606 177.531253 
L 98.175094 178.220033 
L 98.309582 173.058818 
L 98.44407 174.652375 
L 98.713047 185.683979 
L 98.982023 226.385038 
L 99.250999 260.200614 
L 99.385488 264.748138 
L 99.519976 265.480025 
L 99.654464 274.994552 
L 99.788952 275.006603 
L 99.923441 274.03508 
L 100.192417 275.236506 
L 100.326905 275.314839 
L 100.461393 274.679363 
L 100.595882 275.073349 
L 100.73037 275.877544 
L 100.864858 274.384569 
L 100.999346 275.50627 
L 101.133834 274.625132 
L 101.268323 272.47536 
L 101.402811 265.658014 
L 101.537299 269.803672 
L 101.806276 259.72505 
L 101.940764 261.821982 
L 102.075252 261.677829 
L 102.20974 262.306816 
L 102.344228 264.61511 
L 102.478717 270.261159 
L 102.613205 268.463657 
L 102.747693 273.966017 
L 102.882181 260.906544 
L 103.016669 260.934355 
L 103.151158 265.695558 
L 103.285646 265.482806 
L 103.554622 261.425678 
L 103.68911 257.361135 
L 103.823599 240.450797 
L 104.092575 180.024488 
L 104.227063 159.17661 
L 104.361552 166.129301 
L 104.630528 141.990482 
L 105.033993 156.854874 
L 105.168481 167.315894 
L 105.706434 247.923087 
L 105.840922 247.804428 
L 105.97541 256.245923 
L 106.109898 272.192154 
L 106.378875 275.287028 
L 106.513363 275.273587 
L 106.647851 277.36681 
L 106.782339 277.106316 
L 106.916828 278.18491 
L 107.320292 241.72453 
L 107.45478 248.579421 
L 107.589269 246.120486 
L 107.723757 246.210407 
L 108.26171 241.297172 
L 108.396198 237.990935 
L 108.530686 240.183814 
L 108.934151 270.858627 
L 109.068639 272.32889 
L 109.203127 271.293402 
L 109.337615 266.93082 
L 109.606592 268.433528 
L 109.875568 269.454647 
L 110.144545 270.472521 
L 110.413521 269.271559 
L 110.548009 269.140849 
L 110.951474 265.211651 
L 111.085962 266.350038 
L 111.22045 266.013064 
L 111.623915 260.390654 
L 111.758403 260.883368 
L 112.02738 264.551609 
L 112.430844 266.101132 
L 112.565333 256.167589 
L 112.834309 260.24094 
L 112.968797 260.748486 
L 113.103285 262.211796 
L 113.237774 262.384686 
L 113.50675 264.921955 
L 113.641238 265.726614 
L 114.313679 254.838234 
L 114.448168 254.488282 
L 114.582656 253.051856 
L 114.98612 242.555609 
L 115.524073 253.275733 
L 115.658561 253.808773 
L 115.927538 255.965498 
L 116.062026 254.721429 
L 116.196514 260.629363 
L 116.331002 260.22518 
L 116.465491 260.817086 
L 116.599979 251.365597 
L 117.137932 78.323291 
L 117.406908 64.085569 
L 117.810373 80.102717 
L 118.213837 145.181304 
L 118.482814 205.551992 
L 118.75179 238.897102 
L 118.886279 240.382661 
L 119.289743 248.124252 
L 119.424231 249.49764 
L 119.55872 252.181379 
L 119.693208 252.488225 
L 119.827696 243.175789 
L 120.365649 90.775099 
L 120.634625 72.794511 
L 120.769114 76.369585 
L 120.903602 70.152488 
L 121.03809 71.438736 
L 121.441555 132.869941 
L 121.710531 197.593941 
L 121.845019 224.885574 
L 122.248484 235.504652 
L 122.51746 250.531274 
L 122.651948 250.685623 
L 122.786437 252.369565 
L 122.920925 251.071266 
L 123.055413 243.167909 
L 123.727854 60.253709 
L 123.862342 53.568 
L 124.534783 105.993151 
L 125.072736 242.491181 
L 125.207225 247.498973 
L 125.341713 247.947653 
L 125.476201 247.902692 
L 125.745177 261.073409 
L 125.879666 262.464874 
L 126.014154 262.68736 
L 126.28313 249.660333 
L 126.821083 91.845814 
L 126.955571 74.073343 
L 127.09006 80.46333 
L 127.359036 104.227168 
L 127.493524 106.592937 
L 127.762501 124.506779 
L 127.896989 146.590383 
L 128.300453 240.924507 
L 128.434942 246.543673 
L 128.56943 244.773981 
L 128.703918 252.038617 
L 128.838406 252.739912 
L 129.241871 259.222138 
L 129.510847 239.164086 
L 130.0488 82.568605 
L 130.183288 73.74703 
L 130.317777 85.289889 
L 130.452265 113.20541 
L 130.586753 112.315929 
L 130.721241 108.783498 
L 130.855729 114.972321 
L 131.124706 166.566858 
L 131.393682 230.143663 
L 131.662659 252.516962 
L 131.931635 252.326922 
L 132.066123 252.150324 
L 132.3351 263.066977 
L 132.469588 262.923288 
L 132.738564 262.97891 
L 133.007541 251.462471 
L 133.276517 241.332399 
L 133.679982 235.930157 
L 133.81447 234.78528 
L 133.948958 229.847015 
L 134.486911 239.412529 
L 134.755888 246.275763 
L 134.890376 246.164519 
L 135.697305 259.957733 
L 135.831793 264.558098 
L 135.966282 265.14815 
L 136.10077 263.22828 
L 136.235258 264.684173 
L 136.369746 264.41858 
L 136.504234 260.254845 
L 136.638723 260.100959 
L 136.907699 258.22744 
L 137.311164 247.68855 
L 137.445652 248.182191 
L 137.58014 245.584665 
L 137.983605 252.182306 
L 138.118093 251.309048 
L 138.252581 253.085693 
L 138.387069 257.435297 
L 138.521558 256.241288 
L 138.656046 256.435963 
L 138.925022 260.98256 
L 139.193999 245.253253 
L 139.731951 80.77342 
L 139.86644 72.13864 
L 140.269904 97.325462 
L 140.538881 120.979911 
L 140.673369 127.846389 
L 140.807857 141.752236 
L 141.076834 219.327592 
L 141.480298 251.467106 
L 142.018251 259.638836 
L 142.152739 259.189693 
L 142.421716 236.204093 
L 142.959669 90.455739 
L 143.094157 83.274072 
L 143.228645 82.801752 
L 143.363133 92.704239 
L 143.497621 83.723215 
L 143.63211 88.687901 
L 144.573527 252.675484 
L 144.708015 256.054956 
L 144.842504 256.225065 
L 145.11148 258.396622 
L 145.245968 260.472232 
L 145.380456 256.523103 
L 145.783921 197.287559 
L 146.052897 108.490095 
L 146.187386 89.972759 
L 146.456362 104.80285 
L 146.59085 115.767709 
L 146.725339 110.256542 
L 146.859827 117.436819 
L 146.994315 112.519411 
L 147.128803 124.974 
L 147.532268 228.869003 
L 147.801244 254.067876 
L 147.935732 254.263942 
L 148.204709 259.370926 
L 148.339197 259.350068 
L 148.473685 259.838147 
L 148.742662 258.817492 
L 148.87715 241.679106 
L 149.280615 117.305181 
L 149.415103 113.390352 
L 149.549591 104.587317 
L 149.684079 105.804502 
L 150.087544 137.512021 
L 150.222032 130.055491 
L 150.35652 135.406283 
L 150.894473 246.720735 
L 151.028961 255.611837 
L 151.16345 254.683421 
L 151.835891 262.608563 
L 151.970379 261.375155 
L 152.104867 241.066806 
L 152.508332 111.479289 
L 152.64282 114.493049 
L 152.911796 103.002103 
L 153.046285 116.718837 
L 153.180773 115.263871 
L 153.449749 148.683143 
L 153.718726 188.378379 
L 153.987702 243.2722 
L 154.12219 259.801993 
L 154.256678 261.138764 
L 154.525655 264.88302 
L 154.794631 266.53498 
L 155.063608 269.389755 
L 155.198096 270.981458 
L 155.332584 270.35757 
L 155.467072 266.110402 
L 155.601561 255.954373 
L 155.736049 255.119587 
L 155.870537 252.341755 
L 156.005025 254.415511 
L 156.274002 252.576292 
L 156.40849 253.096353 
L 156.542978 254.311684 
L 156.677466 253.151511 
L 157.215419 260.916278 
L 157.349907 262.861177 
L 157.484396 261.899388 
L 157.618884 262.646107 
L 157.88786 265.725223 
L 158.022348 266.191517 
L 158.291325 269.099133 
L 158.560301 273.24989 
L 158.694789 271.731422 
L 158.829278 272.666327 
L 158.963766 272.282075 
L 159.232742 269.650713 
L 159.367231 269.924185 
L 159.501719 268.001071 
L 160.039672 254.347374 
L 160.308648 254.598598 
L 160.443136 260.143138 
L 160.577624 259.868275 
L 160.712113 257.972508 
L 160.846601 258.652945 
L 160.981089 260.099568 
L 161.250066 263.741852 
L 161.519042 264.664242 
L 161.788018 248.41163 
L 162.460459 82.981595 
L 162.594948 82.655282 
L 162.729436 81.240641 
L 162.998412 100.234005 
L 163.132901 108.906329 
L 163.401877 148.913973 
L 163.670853 217.486519 
L 164.074318 250.536372 
L 164.208806 251.634897 
L 164.477783 263.904081 
L 164.612271 266.193371 
L 164.746759 261.634723 
L 165.015735 244.659957 
L 165.4192 118.86861 
L 165.553688 121.388265 
L 165.822665 107.919974 
L 165.957153 113.014907 
L 166.091641 110.024322 
L 166.360618 98.92041 
L 166.495106 104.924754 
L 166.89857 216.614652 
L 167.033059 223.373132 
L 167.302035 241.200297 
L 167.974476 259.099771 
L 168.108964 253.599728 
L 168.243453 240.016486 
L 168.377941 203.105108 
L 168.646917 104.756036 
L 168.781405 105.99964 
L 168.915894 101.612492 
L 169.050382 102.872783 
L 169.18487 106.552148 
L 169.319358 91.693782 
L 169.453847 94.096168 
L 169.857311 145.837638 
L 170.126288 221.640984 
L 170.395264 251.512994 
L 170.529752 252.365857 
L 170.66424 255.697587 
L 170.798729 255.881138 
L 171.067705 258.137055 
L 171.202193 260.884759 
L 171.47117 239.764335 
L 172.009123 108.69404 
L 172.143611 107.165839 
L 172.412587 95.768523 
L 172.95054 127.274414 
L 173.622981 253.422203 
L 173.757469 257.28929 
L 173.891958 270.259769 
L 174.026446 269.359163 
L 174.160934 269.31652 
L 174.42991 270.800688 
L 174.698887 256.462383 
L 174.833375 239.862599 
L 175.102351 173.437971 
L 175.371328 141.085242 
L 175.505816 138.274036 
L 175.640304 148.129709 
L 175.774792 147.828889 
L 175.909281 149.194861 
L 176.043769 153.855019 
L 176.178257 153.556517 
L 176.312745 167.588903 
L 176.581722 233.188479 
L 176.850698 259.488658 
L 176.985186 257.070512 
L 177.254163 261.661143 
L 177.388651 261.618963 
L 177.792116 267.978359 
L 177.926604 268.841883 
L 178.19558 258.451317 
L 178.330069 258.024421 
L 178.599045 250.687014 
L 178.733533 250.138678 
L 178.868021 252.376981 
L 179.136998 248.972944 
L 179.271486 249.550944 
L 179.540462 247.140214 
L 179.809439 254.420146 
L 179.943927 261.471566 
L 180.212904 259.627249 
L 180.48188 269.197861 
L 180.616368 269.211303 
L 180.750856 269.572379 
L 180.885345 270.378891 
L 181.019833 270.462787 
L 181.692274 258.521771 
L 181.826762 259.778817 
L 181.96125 253.974247 
L 182.095738 255.703149 
L 182.364715 260.978852 
L 182.499203 262.218749 
L 182.633691 265.272371 
L 182.902668 264.478837 
L 183.171644 270.426633 
L 183.306132 271.800485 
L 183.440621 270.723745 
L 183.575109 268.49054 
L 183.844085 279.873488 
L 183.978573 280.796342 
L 184.113062 278.585386 
L 184.382038 267.538949 
L 184.919991 178.544955 
L 185.054479 182.44078 
L 185.188967 175.578937 
L 185.457944 179.32412 
L 185.592432 180.778623 
L 185.995897 217.408186 
L 186.264873 247.093399 
L 186.53385 262.380515 
L 186.802826 272.32889 
L 187.071802 282.513193 
L 187.206291 281.397054 
L 187.340779 282.497434 
L 187.475267 279.41461 
L 187.609755 271.654479 
L 188.01322 198.006467 
L 188.147708 182.095463 
L 188.282196 182.307752 
L 188.416684 181.377945 
L 188.551173 184.59148 
L 188.685661 190.802551 
L 188.820149 186.52201 
L 188.954637 190.825263 
L 189.089126 198.948788 
L 189.627078 259.105797 
L 189.761567 261.617573 
L 189.896055 266.697673 
L 190.030543 264.334221 
L 190.299519 266.111329 
L 190.434008 264.974796 
L 190.971961 268.297719 
L 191.106449 264.947912 
L 191.240937 264.476983 
L 191.375425 264.902488 
L 191.509913 260.605261 
L 191.644402 262.108433 
L 191.913378 260.880124 
L 192.182354 255.411136 
L 192.316843 255.749501 
L 192.451331 255.266057 
L 192.585819 256.54767 
L 192.720307 262.146441 
L 192.989284 263.36687 
L 193.392748 260.759147 
L 193.661725 263.555983 
L 193.796213 264.074654 
L 194.065189 256.421131 
L 194.603142 155.743834 
L 194.73763 150.977532 
L 194.872119 141.320243 
L 195.006607 142.849371 
L 195.141095 147.45298 
L 195.275583 140.273167 
L 195.54456 153.270529 
L 195.948024 244.516268 
L 196.217001 254.547148 
L 196.351489 256.416959 
L 196.485977 265.610272 
L 196.620465 264.977113 
L 196.889442 265.517569 
L 197.02393 266.61285 
L 197.158418 264.934007 
L 197.292907 258.798951 
L 197.830859 192.109657 
L 197.965348 194.353059 
L 198.099836 191.133036 
L 198.234324 195.407087 
L 198.5033 182.474617 
L 198.772277 195.867819 
L 199.31023 266.266606 
L 199.713694 275.11043 
L 199.848183 273.976214 
L 200.117159 274.682608 
L 200.251647 272.951851 
L 200.386135 267.343346 
L 200.520624 266.952141 
L 200.655112 254.376112 
L 200.7896 208.545357 
L 200.924088 206.633367 
L 201.058576 195.29399 
L 201.193065 194.946356 
L 201.327553 192.340487 
L 201.462041 194.449006 
L 201.731018 182.996996 
L 201.865506 184.318007 
L 202.134482 206.344135 
L 202.403459 258.240418 
L 202.806923 267.75031 
L 203.0759 259.52852 
L 203.210388 263.727946 
L 203.344876 263.850314 
L 203.748341 254.750167 
L 203.882829 237.87552 
L 204.151805 177.741224 
L 204.420782 161.754668 
L 204.55527 156.291706 
L 204.689758 159.627144 
L 204.824246 153.319198 
L 204.958735 168.870516 
L 205.093223 169.109689 
L 205.765664 254.186535 
L 205.900152 254.682494 
L 206.03464 258.370665 
L 206.169129 272.782205 
L 206.303617 273.248963 
L 206.572593 277.071553 
L 206.84157 277.859061 
L 207.110546 268.747326 
L 207.379522 259.834902 
L 207.514011 258.982966 
L 207.917475 266.861756 
L 208.051964 266.622584 
L 208.32094 260.449057 
L 208.589916 262.003679 
L 208.858893 269.818041 
L 208.993381 273.363914 
L 209.127869 273.930326 
L 209.262357 273.402385 
L 209.396846 267.720182 
L 209.531334 268.785334 
L 209.80031 268.382542 
L 209.934799 269.344331 
L 210.203775 257.521974 
L 211.010704 106.965601 
L 211.279681 131.833063 
L 211.683145 163.959135 
L 212.221098 249.017904 
L 212.355586 251.409167 
L 212.759051 266.201251 
L 212.893539 266.000086 
L 213.028027 266.097424 
L 213.162516 268.668529 
L 213.431492 251.485646 
L 213.56598 214.5256 
L 213.834957 133.07435 
L 213.969445 137.525 
L 214.103933 136.465873 
L 214.238421 139.340116 
L 214.910862 176.535164 
L 215.448815 254.471596 
L 215.583303 259.292129 
L 215.717792 259.891914 
L 216.121256 264.029693 
L 216.255745 264.959036 
L 216.390233 267.279845 
L 216.524721 263.388655 
L 216.659209 256.089719 
L 217.062674 146.312275 
L 217.197162 148.168644 
L 217.33165 148.246978 
L 217.466138 159.377774 
L 217.600627 158.131388 
L 217.735115 146.621902 
L 217.869603 151.700148 
L 218.273068 192.662164 
L 218.542044 249.769258 
L 218.811021 266.07842 
L 218.945509 258.875431 
L 219.483462 269.283611 
L 219.61795 271.029663 
L 219.886926 257.679104 
L 220.290391 159.047753 
L 220.693856 147.726453 
L 220.828344 158.080402 
L 220.962832 154.273571 
L 221.231808 180.638179 
L 221.500785 194.100908 
L 221.769761 249.636694 
L 222.038738 264.815347 
L 222.173226 264.084388 
L 222.307714 265.273762 
L 222.576691 271.148786 
L 222.845667 273.711085 
L 222.980155 272.0874 
L 223.114643 273.906224 
L 223.38362 253.951071 
L 223.518108 257.703671 
L 223.652596 257.551638 
L 223.921573 250.791768 
L 224.190549 250.138678 
L 224.325037 252.555897 
L 224.459525 251.945451 
L 224.728502 248.197487 
L 225.131967 255.257714 
L 225.266455 253.814335 
L 225.535431 255.244272 
L 225.669919 253.969148 
L 226.073384 263.456791 
L 226.34236 266.401025 
L 226.476849 266.331034 
L 226.745825 263.274167 
L 226.880313 265.493003 
L 227.014802 265.729395 
L 227.14929 265.440626 
L 227.283778 264.060749 
L 227.418266 265.690923 
L 227.552754 265.816071 
L 227.687243 265.651524 
L 227.956219 264.573394 
L 228.090707 270.22825 
L 228.225195 270.266258 
L 228.359684 271.337436 
L 228.494172 270.586082 
L 228.62866 271.530257 
L 228.763148 271.419014 
L 228.897637 269.194153 
L 229.301101 270.072973 
L 229.435589 264.031084 
L 229.570078 250.337062 
L 230.242519 93.365209 
L 230.377007 78.938373 
L 230.511495 108.08962 
L 230.780471 115.821013 
L 231.049448 142.530938 
L 231.587401 248.238276 
L 231.856377 259.151221 
L 232.125354 263.8327 
L 232.39433 268.360757 
L 232.528818 267.56954 
L 232.797795 250.938238 
L 232.932283 215.670013 
L 233.201259 130.920869 
L 233.335748 122.971161 
L 233.470236 132.983038 
L 233.604724 133.199035 
L 233.739212 145.637401 
L 233.8737 131.307903 
L 234.008189 137.844824 
L 234.815118 258.585735 
L 234.949606 258.326632 
L 235.218583 264.067238 
L 235.622047 271.590977 
L 235.756535 271.009732 
L 236.025512 258.703468 
L 236.563465 126.880428 
L 236.832441 115.006621 
L 237.63937 196.384636 
L 237.908347 252.850228 
L 238.177323 260.715113 
L 238.849764 275.220283 
L 238.984252 274.418405 
L 239.118741 270.725136 
L 239.253229 257.209566 
L 239.791182 126.131855 
L 240.194646 143.375922 
L 240.463623 161.972982 
L 240.732599 175.057021 
L 241.270552 250.388512 
L 241.674017 256.101307 
L 241.942993 268.686143 
L 242.077481 275.005676 
L 242.21197 274.397084 
L 242.480946 256.926823 
L 242.884411 148.281741 
L 243.018899 155.935728 
L 243.153387 153.751192 
L 243.287875 143.076956 
L 243.422363 150.836624 
L 243.556852 148.102825 
L 243.825828 164.282203 
L 244.229293 234.276807 
L 244.498269 256.042441 
L 244.767246 261.169356 
L 245.17071 268.808974 
L 245.305198 269.649786 
L 245.439687 269.362408 
L 245.574175 268.167935 
L 245.708663 257.03065 
L 245.843151 262.327211 
L 246.112128 259.428402 
L 246.381104 254.393726 
L 246.515592 254.36128 
L 247.188033 264.317998 
L 247.322522 264.711984 
L 247.45701 265.55465 
L 247.591498 265.21026 
L 247.725986 268.284741 
L 247.860475 266.88725 
L 248.129451 268.173498 
L 248.263939 267.315072 
L 248.398427 267.978359 
L 248.532916 267.829571 
L 248.667404 269.719776 
L 248.801892 269.623829 
L 249.205357 271.119121 
L 249.339845 271.232219 
L 249.608821 270.310755 
L 249.743309 270.438685 
L 250.012286 269.59092 
L 250.146774 268.603637 
L 250.281262 268.66992 
L 250.415751 268.123438 
L 250.550239 267.071264 
L 250.819215 267.362814 
L 250.953703 268.119267 
L 251.088192 267.015643 
L 251.357168 268.237462 
L 251.491656 276.881049 
L 251.626144 276.405485 
L 251.760633 276.823573 
L 251.895121 276.668297 
L 252.164097 264.775485 
L 252.70205 141.024521 
L 252.836538 160.192166 
L 252.971027 156.846994 
L 253.240003 169.384552 
L 253.374491 170.698611 
L 253.508979 167.857277 
L 253.777956 199.733052 
L 254.046932 249.613055 
L 254.315909 270.326051 
L 254.719373 278.44077 
L 254.853862 278.207623 
L 255.122838 279.891101 
L 255.391814 259.723659 
L 255.660791 169.18107 
L 255.795279 172.529023 
L 256.198744 157.307726 
L 256.333232 160.875384 
L 256.46772 158.287592 
L 256.602208 159.449155 
L 257.409138 251.790174 
L 257.812602 259.046467 
L 258.081579 273.814912 
L 258.216067 274.848082 
L 258.350555 274.139834 
L 258.619532 260.377676 
L 258.888508 173.84679 
L 259.022996 174.690846 
L 259.157484 165.898936 
L 259.291973 165.339939 
L 259.426461 150.30173 
L 259.695437 163.606865 
L 259.829925 152.796356 
L 259.964414 161.607734 
L 260.771343 254.771952 
L 261.040319 256.945827 
L 261.309296 264.22854 
L 261.443784 267.349835 
L 261.71276 264.519626 
L 261.847249 252.485907 
L 262.116225 166.870458 
L 262.250713 170.917389 
L 262.654178 145.250368 
L 262.788666 152.340259 
L 262.923154 147.707912 
L 263.326619 181.842385 
L 263.461107 192.425773 
L 263.864572 239.793073 
L 264.268036 257.315247 
L 264.402525 256.579652 
L 264.671501 259.910455 
L 264.805989 259.788088 
L 264.940478 258.86477 
L 265.074966 251.515311 
L 265.209454 232.95116 
L 265.612919 121.957459 
L 265.881895 104.368539 
L 266.016383 113.595688 
L 266.150871 113.468686 
L 266.28536 113.033447 
L 266.419848 117.530912 
L 266.688824 153.728017 
L 266.957801 230.262322 
L 267.226777 246.446335 
L 267.361265 245.065067 
L 267.495754 260.960311 
L 267.630242 260.653466 
L 267.76473 262.468582 
L 267.899218 262.770792 
L 268.168195 269.103304 
L 268.302683 269.962657 
L 268.437171 267.474984 
L 268.706147 269.938091 
L 268.975124 266.54425 
L 269.2441 264.713838 
L 269.916541 250.638808 
L 270.320006 252.473856 
L 270.588982 257.219763 
L 270.723471 270.911004 
L 270.857959 271.920999 
L 270.992447 270.485499 
L 271.126935 271.343462 
L 271.261424 271.372199 
L 271.395912 271.191429 
L 271.799376 273.889074 
L 271.933865 272.543496 
L 272.068353 272.88835 
L 272.202841 272.262144 
L 272.337329 272.491583 
L 272.471817 271.672556 
L 272.606306 269.569135 
L 272.740794 270.815057 
L 272.875282 270.501722 
L 273.00977 269.843998 
L 273.144258 267.576493 
L 273.278747 267.479619 
L 273.547723 270.372866 
L 273.682211 270.580983 
L 273.8167 271.245197 
L 273.951188 270.408093 
L 274.085676 280.755089 
L 274.354652 282.34123 
L 274.489141 280.813955 
L 274.758117 266.510877 
L 275.29607 163.007079 
L 275.565046 151.113341 
L 275.699535 151.441044 
L 275.834023 168.891838 
L 275.968511 171.109746 
L 276.102999 180.981642 
L 276.77544 258.077725 
L 277.447881 274.991771 
L 277.58237 278.293372 
L 277.716858 277.913292 
L 277.851346 273.63785 
L 277.985834 263.933283 
L 278.389299 205.115826 
L 278.523787 186.174376 
L 278.658275 184.231794 
L 278.792763 174.981932 
L 278.927252 186.773698 
L 279.06174 181.115597 
L 279.196228 183.148101 
L 279.330716 190.629197 
L 280.137646 268.161446 
L 280.272134 270.481328 
L 280.406622 262.357803 
L 280.54111 262.081549 
L 280.810087 263.219936 
L 280.944575 262.614125 
L 281.213551 254.915641 
L 281.348039 226.771608 
L 281.482528 158.266734 
L 281.617016 148.341998 
L 281.751504 125.593253 
L 281.885992 126.7131 
L 282.154969 139.847662 
L 282.289457 122.234176 
L 282.423945 126.208798 
L 282.558433 135.066064 
L 282.82741 182.167308 
L 283.096386 248.821375 
L 283.365363 255.267447 
L 283.499851 257.413512 
L 283.634339 256.760886 
L 283.768827 256.771083 
L 283.903316 256.955097 
L 284.037804 258.223732 
L 284.172292 258.349344 
L 284.441268 253.299835 
L 285.113709 141.217806 
L 285.248198 140.171658 
L 285.382686 135.760407 
L 285.517174 144.746066 
L 285.651662 141.730915 
L 285.78615 145.123365 
L 286.055127 196.780939 
L 286.324103 244.983025 
L 286.59308 254.392799 
L 286.727568 254.274603 
L 286.862056 272.687649 
L 286.996544 272.745124 
L 287.131033 271.79446 
L 287.265521 272.383121 
L 287.668985 268.954517 
L 287.803474 269.80738 
L 288.07245 268.956834 
L 288.206938 266.845997 
L 288.341427 266.792229 
L 288.475915 264.511283 
L 288.610403 264.15067 
L 288.744891 263.05817 
L 288.879379 265.807265 
L 289.013868 266.137286 
L 289.148356 263.405341 
L 289.417332 270.359887 
L 289.55182 271.513571 
L 289.820797 271.162228 
L 289.955285 271.930269 
L 290.089773 270.472985 
L 290.224262 271.97662 
L 290.35875 271.095019 
L 290.493238 272.047538 
L 290.627726 270.549001 
L 291.031191 253.075032 
L 291.300167 188.745481 
L 291.434655 183.317746 
L 291.569144 183.908262 
L 291.703632 187.857391 
L 291.972608 175.470011 
L 292.376073 188.182777 
L 293.048514 262.433355 
L 293.183002 263.644978 
L 293.31749 262.525594 
L 293.451979 263.25609 
L 293.586467 262.352704 
L 293.720955 264.758335 
L 293.855443 265.014194 
L 294.258908 241.764856 
L 294.527884 185.404481 
L 294.796861 154.611935 
L 294.931349 139.188547 
L 295.065837 139.0583 
L 295.200325 146.80638 
L 295.334814 141.247008 
L 295.60379 168.516392 
L 295.738278 182.599765 
L 296.141743 250.830703 
L 296.276231 249.965788 
L 296.410719 256.96205 
L 296.545208 274.143079 
L 296.948672 276.245573 
L 297.486625 278.155246 
L 297.621113 277.819662 
L 297.755601 277.815954 
L 298.024578 274.733594 
L 298.159066 274.587588 
L 298.428042 272.507342 
L 298.697019 268.791824 
L 298.831507 267.689127 
L 298.965995 267.551 
L 299.100484 267.896317 
L 299.36946 271.57151 
L 299.503948 271.079723 
L 299.638436 272.57826 
L 299.772925 263.199078 
L 299.907413 266.502534 
L 300.041901 266.209594 
L 300.176389 267.05087 
L 300.310877 266.775543 
L 300.579854 256.123555 
L 301.252295 125.915395 
L 301.386783 125.982141 
L 301.521271 138.791317 
L 301.65576 132.050914 
L 301.790248 141.192313 
L 302.597177 246.833832 
L 302.731665 248.535851 
L 303.000642 260.583476 
L 303.13513 260.801327 
L 303.269618 261.26762 
L 303.404106 263.655638 
L 303.538595 264.062603 
L 303.807571 248.178946 
L 304.345524 161.008412 
L 304.6145 150.7912 
L 304.748988 158.789576 
L 304.883477 149.494291 
L 305.017965 155.398053 
L 306.093871 259.07984 
L 306.228359 260.061097 
L 306.497335 269.921404 
L 306.766312 270.921201 
L 306.9008 266.349575 
L 307.035288 256.116603 
L 307.304265 166.327221 
L 307.438753 173.377715 
L 307.842217 154.6759 
L 307.976706 161.521984 
L 308.111194 153.347936 
L 308.245682 158.166152 
L 308.649147 202.830708 
L 309.052611 257.5572 
L 309.590564 269.432398 
L 309.994029 271.086212 
L 310.128517 267.636286 
L 310.263005 255.387034 
L 310.531982 166.219223 
L 310.66647 167.337216 
L 310.935446 165.114672 
L 311.069934 156.035383 
L 311.204423 162.303003 
L 311.338911 161.049665 
L 311.473399 154.472882 
L 311.607887 167.227363 
L 311.876864 203.711382 
L 312.14584 244.807818 
L 312.414817 256.270025 
L 312.818281 264.630406 
L 312.952769 264.209073 
L 313.087258 266.039948 
L 313.221746 265.944001 
L 313.356234 267.474984 
L 313.625211 257.225789 
L 313.759699 249.563922 
L 313.894187 252.819173 
L 314.028675 250.363945 
L 314.163163 252.192503 
L 314.297652 249.512472 
L 314.566628 255.884846 
L 314.701116 256.598193 
L 314.970093 261.213389 
L 315.104581 261.176772 
L 315.239069 260.88893 
L 315.508045 263.73629 
L 315.642534 264.257741 
L 315.777022 263.936991 
L 316.180487 266.839971 
L 316.314975 266.413076 
L 316.718439 268.699121 
L 316.852928 268.941075 
L 316.987416 268.112314 
L 317.121904 268.175815 
L 317.256392 267.088414 
L 317.39088 267.228858 
L 317.525369 265.734493 
L 317.659857 266.627219 
L 317.928833 264.180798 
L 318.332298 260.55242 
L 318.466786 261.187896 
L 318.601274 260.699817 
L 318.735763 262.113995 
L 318.870251 261.95501 
L 319.139227 263.039166 
L 319.273715 272.590775 
L 319.67718 273.676785 
L 319.811668 271.172425 
L 319.946157 263.447985 
L 320.349621 144.979213 
L 320.484109 129.294403 
L 320.887574 155.78555 
L 321.022062 160.317315 
L 321.291039 174.673233 
L 321.425527 176.421603 
L 321.560015 194.329883 
L 321.828991 248.255426 
L 321.96348 256.10965 
L 322.097968 256.873519 
L 322.635921 273.091832 
L 322.770409 273.428806 
L 322.904897 272.788694 
L 323.173874 262.657695 
L 323.44285 169.945402 
L 323.577338 170.296745 
L 323.711826 170.492347 
L 323.980803 150.897344 
L 324.249779 154.334291 
L 324.384268 157.020812 
L 324.787732 192.218583 
L 325.056709 245.168894 
L 325.325685 254.173094 
L 325.863638 271.481125 
L 325.998126 273.197513 
L 326.132614 273.261014 
L 326.267103 270.140646 
L 326.401591 261.401112 
L 326.670567 162.962119 
L 326.805055 168.745831 
L 326.939544 169.884219 
L 327.20852 157.039352 
L 327.343008 164.947807 
L 327.611985 161.302279 
L 327.746473 166.021766 
L 328.149937 219.139406 
L 328.418914 249.094384 
L 328.68789 261.535531 
L 328.822379 263.917987 
L 328.956867 273.674467 
L 329.225843 274.594077 
L 329.360331 273.771342 
L 329.629308 261.309337 
L 330.032772 174.863273 
L 330.301749 163.8516 
L 330.570725 155.297471 
L 330.839702 176.520331 
L 330.97419 177.697654 
L 331.108678 180.363779 
L 331.781119 254.057215 
L 332.050096 261.013615 
L 332.184584 271.476953 
L 332.319072 272.405369 
L 332.45356 271.759696 
L 332.588049 272.718704 
L 332.857025 260.475014 
L 333.26049 174.250046 
L 333.394978 176.10456 
L 333.663954 161.624421 
L 333.798442 162.782276 
L 333.932931 166.440319 
L 334.336395 183.788212 
L 334.73986 249.565313 
L 335.143325 264.838987 
L 335.277813 264.646165 
L 335.412301 264.740722 
L 335.546789 265.017902 
L 335.681277 264.91593 
L 335.950254 267.42307 
L 336.084742 265.389176 
L 336.622695 249.40262 
L 336.757183 250.174369 
L 336.891671 248.398188 
L 337.295136 254.571715 
L 337.698601 259.16698 
L 337.833089 258.701614 
L 338.102065 262.682261 
L 338.236553 262.456994 
L 338.371042 263.075784 
L 338.50553 260.808279 
L 339.043483 263.875343 
L 339.446947 266.78435 
L 339.581436 266.316665 
L 339.715924 265.181522 
L 339.850412 265.43321 
L 339.9849 264.67583 
L 340.119388 264.566441 
L 340.253877 264.106636 
L 340.388365 265.540745 
L 340.522853 263.609751 
L 340.657341 264.190996 
L 340.926318 263.881833 
L 341.060806 260.640488 
L 341.329782 265.380369 
L 341.464271 265.281641 
L 341.598759 265.79475 
L 341.733247 267.315535 
L 341.867735 274.909729 
L 342.136712 275.008457 
L 342.2712 275.631418 
L 342.540176 263.305686 
L 342.943641 151.486005 
L 343.212617 167.611152 
L 343.347106 166.898269 
L 343.75057 180.86391 
L 343.885058 182.489913 
L 344.019547 181.846557 
L 344.423011 247.753905 
L 345.22994 272.698773 
L 345.364429 273.750947 
L 345.498917 273.394042 
L 345.633405 269.300297 
L 345.767893 261.451635 
L 346.03687 179.655068 
L 346.171358 183.652866 
L 346.440334 170.483541 
L 346.574823 165.269022 
L 346.843799 171.946851 
L 347.112775 173.76104 
L 347.381752 207.235007 
L 347.650728 245.010836 
L 348.054193 262.448188 
L 348.188681 263.595845 
L 348.323169 272.302933 
L 348.457658 273.126132 
L 348.592146 274.942175 
L 348.726634 274.752598 
L 348.99561 262.22292 
L 349.264587 178.63534 
L 349.399075 180.066204 
L 349.668052 163.021448 
L 349.80254 159.029676 
L 350.206004 177.178983 
L 350.340493 178.324323 
L 351.012934 256.160173 
L 351.147422 258.412845 
L 351.550886 274.588515 
L 351.685375 273.897417 
L 351.954351 274.253395 
L 352.088839 272.897156 
L 352.223328 265.822097 
L 352.492304 174.677868 
L 352.626792 181.63195 
L 352.76128 170.597101 
L 352.895769 169.909248 
L 353.030257 161.874718 
L 353.164745 168.873297 
L 353.299233 166.85748 
L 353.56821 149.605997 
L 354.240651 262.585387 
L 354.375139 263.689475 
L 354.644115 269.379094 
L 354.913092 273.52707 
L 355.182068 274.538455 
L 355.316556 272.206986 
L 355.451045 263.348329 
L 355.854509 192.209776 
L 356.123486 155.007312 
L 356.257974 156.670396 
L 356.392462 165.026141 
L 356.52695 164.411523 
L 356.661439 174.704288 
L 356.795927 173.489885 
L 357.33388 258.402648 
L 357.602856 267.71601 
L 357.737344 269.622439 
L 357.871832 273.751874 
L 358.006321 273.19056 
L 358.140809 273.398677 
L 358.275297 274.116659 
L 358.409785 274.031372 
L 358.678762 272.809089 
L 359.082226 254.887367 
L 359.351203 249.156495 
L 359.485691 243.070572 
L 359.620179 253.486631 
L 359.754667 254.859093 
L 359.889156 255.022249 
L 360.427109 268.888698 
L 360.561597 269.548277 
L 360.965061 273.572958 
L 361.234038 273.534487 
L 361.368526 273.348618 
L 361.503014 274.615398 
L 361.771991 274.220022 
L 361.906479 275.511369 
L 362.040967 275.465017 
L 362.175455 275.829338 
L 362.309944 275.868737 
L 362.57892 272.556938 
L 362.713408 272.509196 
L 362.982385 271.40789 
L 363.116873 269.959412 
L 363.251361 269.860684 
L 363.385849 270.919347 
L 363.520337 270.090586 
L 363.654826 270.032647 
L 364.05829 272.736781 
L 364.192778 247.494801 
L 364.730731 253.568209 
L 364.86522 252.408037 
L 364.999708 240.681163 
L 365.134196 219.179268 
L 365.403172 133.440062 
L 365.672149 104.032492 
L 365.806637 98.28447 
L 366.075613 114.733612 
L 366.34459 111.68138 
L 366.479078 122.778804 
L 367.017031 245.470177 
L 367.151519 250.284685 
L 367.286007 248.600279 
L 367.554984 259.628639 
L 367.689472 260.469915 
L 367.958448 265.226483 
L 368.227425 242.353517 
L 368.496401 149.201351 
L 368.765378 98.835587 
L 369.034354 88.252199 
L 369.168842 92.836341 
L 369.303331 92.40481 
L 369.437819 95.675356 
L 369.572307 93.615042 
L 369.706795 109.254427 
L 370.244748 229.484084 
L 370.782701 272.413713 
L 370.917189 272.709897 
L 371.051677 273.575739 
L 371.186166 273.305048 
L 371.455142 258.913902 
L 371.858607 168.344893 
L 372.127583 199.404885 
L 372.262071 195.461782 
L 372.396559 196.847221 
L 372.665536 186.468706 
L 372.800024 190.153633 
L 373.203489 228.712336 
L 373.472465 250.325937 
L 373.87593 270.906369 
L 374.010418 279.664443 
L 374.144906 279.522608 
L 374.279394 280.694369 
L 374.413883 280.205826 
L 374.682859 264.123323 
L 375.220812 177.304131 
L 375.489788 173.77958 
L 375.624277 173.996041 
L 375.893253 180.342921 
L 376.027741 184.515 
L 376.565694 250.148412 
L 376.83467 258.782265 
L 376.969159 261.536921 
L 377.103647 273.0084 
L 377.238135 271.946955 
L 377.507112 273.959991 
L 377.6416 272.050782 
L 377.776088 275.488193 
L 378.045064 273.402849 
L 378.179553 264.039427 
L 378.314041 263.431762 
L 378.448529 256.535618 
L 378.583017 257.507605 
L 378.717505 256.616733 
L 378.851994 260.998319 
L 378.986482 260.259944 
L 379.12097 261.142008 
L 379.255458 263.239404 
L 379.389947 263.126307 
L 379.927899 272.114747 
L 380.062388 271.914046 
L 380.196876 272.318693 
L 380.331364 262.693849 
L 380.60034 264.565977 
L 380.869317 266.17344 
L 381.138293 255.589589 
L 381.272782 229.270405 
L 381.541758 156.811304 
L 381.810734 137.225107 
L 381.945223 138.770922 
L 382.214199 145.072379 
L 382.348687 137.310857 
L 382.752152 185.743772 
L 383.021128 251.80408 
L 383.155616 259.505808 
L 383.290105 260.149164 
L 383.424593 261.399722 
L 383.559081 256.611634 
L 383.693569 255.920073 
L 383.962546 256.256584 
L 384.097034 257.413048 
L 384.231522 255.679974 
L 384.36601 257.032504 
L 385.038451 146.104622 
L 385.17294 148.478271 
L 385.307428 163.182287 
L 385.576404 157.698931 
L 386.248845 254.568933 
L 386.921286 272.543033 
L 387.055775 271.751353 
L 387.190263 272.99264 
L 387.324751 272.321474 
L 387.459239 272.478141 
L 387.593727 273.925228 
L 387.728216 273.367158 
L 387.862704 274.646917 
L 387.997192 273.510847 
L 388.13168 275.056199 
L 388.266169 274.099972 
L 388.400657 272.170832 
L 388.535145 272.257509 
L 388.669633 271.61369 
L 388.804121 272.720558 
L 388.93861 270.241692 
L 389.207586 272.321474 
L 389.476562 278.822241 
L 389.611051 277.793706 
L 389.745539 278.58724 
L 389.880027 278.536717 
L 390.014515 264.052405 
L 390.283492 264.294359 
L 390.41798 264.304093 
L 390.552468 264.17709 
L 390.686956 258.832324 
L 390.821445 259.012167 
L 390.955933 250.407052 
L 391.224909 195.814515 
L 391.359397 165.312128 
L 391.493886 161.433453 
L 391.762862 171.829118 
L 391.89735 171.300714 
L 392.031839 164.278495 
L 392.166327 167.874891 
L 392.300815 176.604691 
L 392.569791 235.087027 
L 392.70428 260.643269 
L 392.973256 265.351168 
L 393.107744 265.990352 
L 393.376721 259.130363 
L 393.645697 264.689272 
L 393.780185 261.392769 
L 393.914673 262.73881 
L 394.049162 255.532113 
L 394.721603 144.111053 
L 394.990579 143.069076 
L 395.125067 142.660722 
L 395.259556 153.728944 
L 395.394044 154.574854 
L 395.931997 240.268173 
L 396.200973 253.500073 
L 396.335461 249.86706 
L 396.46995 273.951648 
L 396.604438 274.324312 
L 397.007902 277.275035 
L 397.276879 264.58081 
L 397.545855 192.918487 
L 397.680343 187.875004 
L 397.94932 165.146654 
L 398.083808 152.053808 
L 398.218296 164.443505 
L 398.352785 159.809304 
L 398.487273 162.738242 
L 398.487273 162.738242 
" clip-path="url(#pe0bf16d891)" style="fill: none; stroke: #1f77b4; stroke-width: 1.5; stroke-linecap: square"/>
   </g>
   <g id="line2d_14">
    <path d="M 73.832727 273.694823 
L 74.101704 274.32497 
L 74.37068 273.838141 
L 74.505168 271.387518 
L 74.639657 273.498044 
L 74.774145 271.776396 
L 74.908633 272.881651 
L 75.043121 259.966148 
L 75.177609 211.494811 
L 75.312098 235.353485 
L 76.119027 246.141168 
L 76.253515 245.639361 
L 76.388003 245.635368 
L 76.522492 246.078489 
L 76.65698 272.79458 
L 76.791468 271.087765 
L 76.925956 267.484851 
L 77.060444 274.523944 
L 77.194933 272.650499 
L 77.329421 253.582038 
L 77.463909 261.704524 
L 77.732885 253.568633 
L 77.867374 253.570825 
L 78.13635 205.870215 
L 78.405327 109.782699 
L 78.539815 93.992784 
L 78.674303 118.431854 
L 78.943279 98.307986 
L 79.346744 148.729725 
L 79.884697 254.698132 
L 80.019185 252.019606 
L 80.153673 254.948899 
L 80.42265 264.857501 
L 80.557138 255.781492 
L 80.691626 273.627347 
L 80.826114 259.335856 
L 80.960603 259.189184 
L 81.229579 238.126076 
L 81.364067 213.736458 
L 81.633044 130.333799 
L 81.767532 168.168983 
L 81.90202 151.542827 
L 82.170996 212.067489 
L 82.305485 203.126189 
L 82.439973 203.405483 
L 82.574461 183.157163 
L 82.843438 214.944896 
L 82.977926 212.491493 
L 83.112414 220.455991 
L 83.246902 212.287898 
L 83.38139 211.956596 
L 83.650367 260.814 
L 83.784855 256.991233 
L 83.919343 285.628533 
L 84.18832 276.228743 
L 84.322808 211.949855 
L 84.457296 226.685119 
L 84.591784 211.949855 
L 84.860761 211.949855 
L 84.995249 212.621905 
L 85.129737 168.284066 
L 85.264225 179.495972 
L 85.398714 159.36648 
L 85.66769 188.69606 
L 85.802178 195.879386 
L 86.340131 261.755782 
L 86.474619 255.776893 
L 86.878084 267.795021 
L 87.14706 282.530855 
L 87.281549 282.452399 
L 87.416037 280.158284 
L 87.550525 281.677477 
L 87.819501 278.690616 
L 88.088478 236.536284 
L 88.222966 249.650762 
L 88.357454 240.462194 
L 88.491942 249.603119 
L 88.626431 248.68747 
L 88.760919 245.107826 
L 88.895407 253.965643 
L 89.029895 242.826825 
L 89.164384 253.318268 
L 89.298872 252.582844 
L 89.43336 255.724123 
L 89.567848 271.316655 
L 89.702336 267.872295 
L 89.971313 270.360846 
L 90.105801 272.213807 
L 90.240289 250.830077 
L 90.374777 258.145664 
L 90.509266 258.148067 
L 90.643754 251.368571 
L 90.778242 258.194537 
L 90.91273 256.447154 
L 91.047218 259.197482 
L 91.316195 235.482296 
L 91.450683 241.166131 
L 91.585171 230.72432 
L 91.71966 246.482988 
L 91.854148 241.158477 
L 92.123124 247.834708 
L 92.392101 254.208829 
L 92.526589 253.167998 
L 92.795565 259.352141 
L 92.930053 260.686741 
L 93.064542 260.760558 
L 93.19903 270.218141 
L 93.333518 264.977865 
L 93.468006 280.792877 
L 93.736983 266.846765 
L 93.871471 263.499454 
L 94.274936 232.644885 
L 94.543912 142.619323 
L 94.6784 174.585083 
L 94.947377 154.135304 
L 95.081865 157.742372 
L 95.350841 172.710481 
L 95.48533 175.27252 
L 95.619818 185.281843 
L 95.888794 247.495934 
L 96.023282 252.485582 
L 96.157771 262.556919 
L 96.292259 260.660741 
L 96.561235 268.115137 
L 96.695723 267.176253 
L 96.9647 257.4172 
L 97.099188 257.342073 
L 97.368164 242.155333 
L 97.637141 187.575101 
L 97.771629 140.180911 
L 97.906117 175.806893 
L 98.040606 165.031352 
L 98.175094 183.885841 
L 98.309582 172.292655 
L 98.578558 184.316986 
L 99.385488 264.726954 
L 99.519976 261.051408 
L 99.654464 270.739155 
L 99.788952 270.344708 
L 99.923441 285.672449 
L 100.192417 270.598362 
L 100.595882 262.090688 
L 100.864858 255.942387 
L 100.999346 263.017754 
L 101.133834 263.253814 
L 101.268323 269.990669 
L 101.402811 269.697128 
L 101.537299 267.518559 
L 101.671787 257.244894 
L 101.806276 271.595786 
L 101.940764 259.608043 
L 102.075252 261.064353 
L 102.20974 269.516883 
L 102.344228 268.045741 
L 102.478717 268.494647 
L 102.613205 269.689216 
L 102.882181 273.265057 
L 103.016669 283.006821 
L 103.151158 249.925672 
L 103.420134 262.848016 
L 103.823599 240.905828 
L 103.958087 230.142629 
L 104.227063 136.523298 
L 104.361552 161.345899 
L 104.49604 147.554353 
L 104.630528 168.220757 
L 104.765016 145.186471 
L 104.899504 144.024698 
L 105.168481 174.581899 
L 105.437457 213.913532 
L 105.706434 247.589104 
L 105.840922 261.889308 
L 105.97541 253.399127 
L 106.109898 254.862077 
L 106.378875 288.492992 
L 106.782339 266.189528 
L 106.916828 265.783287 
L 107.051316 258.817541 
L 107.185804 258.666867 
L 107.45478 183.274153 
L 107.723757 235.578166 
L 107.858245 229.018632 
L 108.127222 238.001889 
L 108.396198 244.587723 
L 108.530686 246.901577 
L 108.665174 247.115263 
L 108.934151 267.819061 
L 109.068639 276.004435 
L 109.203127 269.434828 
L 109.337615 272.012954 
L 109.472104 270.487102 
L 109.606592 264.788927 
L 109.74108 267.137392 
L 109.875568 266.211641 
L 110.010056 266.698708 
L 110.144545 265.227432 
L 110.279033 265.180344 
L 110.413521 265.696189 
L 110.548009 263.806497 
L 110.816986 265.014539 
L 111.085962 261.532382 
L 111.22045 262.701469 
L 111.354939 266.620308 
L 111.489427 266.354845 
L 111.623915 264.897012 
L 111.758403 264.840564 
L 111.892891 262.959684 
L 112.161868 266.913484 
L 112.430844 264.400638 
L 112.565333 267.412218 
L 112.699821 267.633609 
L 112.834309 253.005392 
L 112.968797 259.716816 
L 113.103285 259.65349 
L 113.237774 258.887561 
L 113.372262 259.637898 
L 113.50675 258.054927 
L 113.641238 261.268648 
L 113.775726 260.6659 
L 113.910215 261.944823 
L 114.044703 257.164522 
L 114.179191 258.534055 
L 114.313679 255.53909 
L 114.448168 249.117833 
L 114.717144 255.436346 
L 114.851632 254.50725 
L 115.120609 248.645419 
L 115.255097 249.992316 
L 115.524073 256.113106 
L 115.658561 254.7852 
L 115.79305 264.243037 
L 116.196514 255.349929 
L 116.331002 246.901785 
L 116.465491 256.862671 
L 116.599979 243.263193 
L 116.734467 241.634268 
L 116.868955 215.959447 
L 117.137932 109.268293 
L 117.27242 80.65007 
L 117.406908 105.800999 
L 117.675885 83.296631 
L 117.810373 90.754705 
L 118.079349 128.404265 
L 118.617302 250.963141 
L 118.75179 248.251515 
L 118.886279 250.960873 
L 119.020767 249.4138 
L 119.155255 249.280918 
L 119.289743 250.97947 
L 119.424231 251.006574 
L 119.693208 241.340522 
L 119.827696 241.267694 
L 119.962184 235.683972 
L 120.096672 209.811244 
L 120.365649 106.127712 
L 120.500137 98.699958 
L 120.634625 108.661023 
L 120.903602 94.625294 
L 121.172578 101.865181 
L 121.441555 148.58499 
L 121.576043 169.233154 
L 121.845019 257.244497 
L 121.979507 247.363728 
L 122.113996 253.367068 
L 122.248484 240.800437 
L 122.51746 247.058069 
L 122.651948 258.312161 
L 122.920925 243.05261 
L 123.055413 240.189556 
L 123.189901 230.937392 
L 123.32439 210.984525 
L 123.593366 108.970343 
L 123.727854 88.141921 
L 123.862342 106.195537 
L 123.996831 103.869067 
L 124.131319 92.758792 
L 124.265807 101.15987 
L 124.80376 174.234871 
L 125.072736 250.115169 
L 125.207225 250.76147 
L 125.341713 257.053033 
L 125.476201 246.278902 
L 125.610689 253.145069 
L 125.745177 252.139158 
L 125.879666 266.882503 
L 126.28313 249.85724 
L 126.417618 223.116793 
L 126.552107 220.904138 
L 126.821083 112.92761 
L 126.955571 100.369753 
L 127.09006 105.261535 
L 127.224548 100.525592 
L 127.628012 118.171299 
L 127.896989 160.077851 
L 128.300453 253.094305 
L 128.434942 250.89713 
L 128.56943 254.425782 
L 128.703918 250.317265 
L 128.838406 251.361587 
L 128.972894 261.850991 
L 129.107383 252.624553 
L 129.241871 252.104153 
L 129.376359 252.243452 
L 129.510847 247.476827 
L 130.183288 89.606183 
L 130.317777 110.599249 
L 130.452265 99.433611 
L 130.586753 100.695458 
L 130.721241 121.323927 
L 130.855729 117.808987 
L 130.990218 131.584579 
L 131.528171 248.435392 
L 131.662659 250.883759 
L 131.931635 260.906465 
L 132.066123 259.618838 
L 132.3351 254.165645 
L 132.469588 258.281328 
L 132.604076 266.16551 
L 132.873053 259.505698 
L 133.007541 257.887759 
L 133.142029 240.017366 
L 133.276517 242.385784 
L 133.411005 233.948221 
L 133.545494 233.555291 
L 133.679982 233.973878 
L 133.81447 232.728162 
L 133.948958 236.841121 
L 134.083447 237.246745 
L 134.217935 232.984444 
L 134.486911 244.859652 
L 134.755888 249.004707 
L 134.890376 251.827997 
L 135.024864 250.092068 
L 135.159352 258.304255 
L 135.428329 258.408094 
L 135.697305 257.349317 
L 135.831793 257.971721 
L 135.966282 258.063892 
L 136.10077 263.811086 
L 136.369746 255.791462 
L 136.504234 260.098911 
L 136.638723 258.847725 
L 136.773211 251.899731 
L 136.907699 256.500446 
L 137.042187 255.694386 
L 137.176675 257.131404 
L 137.445652 248.767825 
L 137.714628 254.443403 
L 137.849117 251.05293 
L 138.118093 256.094941 
L 138.252581 254.53101 
L 138.387069 261.822784 
L 138.521558 261.591389 
L 138.656046 263.800186 
L 138.925022 250.727762 
L 139.05951 252.592128 
L 139.193999 249.603304 
L 139.462975 211.614348 
L 139.731951 103.029222 
L 139.86644 87.34141 
L 140.000928 109.783768 
L 140.135416 96.954606 
L 140.269904 96.275344 
L 140.538881 116.299802 
L 141.211322 259.19396 
L 141.480298 248.839574 
L 141.614786 258.010984 
L 142.018251 260.575276 
L 142.421716 244.724463 
L 142.556204 207.09393 
L 142.690692 201.241996 
L 142.959669 104.312647 
L 143.094157 92.902691 
L 143.228645 116.60799 
L 143.497621 93.145689 
L 143.63211 106.475417 
L 143.766598 104.379122 
L 144.170063 183.25704 
L 144.439039 254.146264 
L 144.573527 244.333475 
L 144.842504 262.022423 
L 145.11148 259.471085 
L 145.380456 253.351202 
L 145.514945 252.915766 
L 145.649433 237.34876 
L 145.783921 198.771258 
L 145.918409 208.382381 
L 146.187386 114.936323 
L 146.321874 95.215631 
L 146.59085 113.855289 
L 146.725339 104.763091 
L 146.994315 118.132521 
L 147.666756 249.635383 
L 147.801244 247.168306 
L 148.070221 264.186601 
L 148.204709 260.082584 
L 148.339197 262.266496 
L 148.742662 249.869043 
L 149.011638 241.306539 
L 149.549591 100.657464 
L 149.684079 124.480937 
L 149.818567 103.667279 
L 149.953056 103.680989 
L 150.625497 197.005868 
L 150.894473 253.348535 
L 151.028961 246.796678 
L 151.297938 264.476235 
L 151.432426 259.412068 
L 151.566914 260.06241 
L 152.104867 251.213026 
L 152.239355 243.711998 
L 152.64282 104.300051 
L 152.777308 95.176375 
L 152.911796 126.503587 
L 153.180773 84.796964 
L 154.12219 252.859432 
L 154.660143 267.518738 
L 154.794631 266.375648 
L 154.92912 266.712263 
L 155.063608 265.228694 
L 155.198096 265.476298 
L 155.467072 268.326468 
L 155.601561 265.612299 
L 155.736049 256.665684 
L 155.870537 240.065905 
L 156.005025 249.035605 
L 156.139513 246.230202 
L 156.274002 253.046596 
L 156.40849 251.254856 
L 156.542978 251.613769 
L 156.811955 257.192746 
L 156.946443 255.664002 
L 157.215419 260.204871 
L 157.484396 262.875208 
L 157.618884 262.462473 
L 157.88786 265.37985 
L 158.022348 266.431814 
L 158.156837 266.268365 
L 158.291325 265.065913 
L 158.425813 265.123937 
L 158.560301 266.571839 
L 158.694789 269.436994 
L 158.829278 269.670627 
L 158.963766 265.058099 
L 159.098254 268.120897 
L 159.232742 267.072359 
L 159.367231 264.77625 
L 159.501719 265.949412 
L 159.636207 268.356835 
L 159.905183 262.311898 
L 160.039672 258.425188 
L 160.17416 262.164101 
L 160.308648 256.815228 
L 160.443136 259.445257 
L 160.577624 259.193612 
L 160.712113 263.61511 
L 160.846601 259.585986 
L 160.981089 265.560687 
L 161.115577 264.832005 
L 161.250066 263.068245 
L 161.384554 264.42279 
L 161.788018 252.552079 
L 162.056995 212.039027 
L 162.325971 114.676379 
L 162.460459 89.94299 
L 162.729436 111.962404 
L 162.863924 96.984742 
L 162.998412 95.7989 
L 163.805342 255.699063 
L 163.93983 246.331331 
L 164.074318 249.124082 
L 164.208806 259.213176 
L 164.343294 259.506285 
L 164.477783 255.987487 
L 164.612271 270.285544 
L 164.746759 261.324785 
L 164.881247 261.613337 
L 165.284712 212.37648 
L 165.553688 114.973215 
L 165.688177 100.191336 
L 165.822665 130.146729 
L 166.091641 104.518197 
L 166.226129 121.992203 
L 166.360618 124.040848 
L 166.495106 133.878191 
L 166.764082 179.410243 
L 167.033059 253.8334 
L 167.167547 244.047157 
L 167.302035 244.858768 
L 167.436523 255.900385 
L 167.571012 253.331285 
L 167.7055 253.234042 
L 167.839988 255.476992 
L 167.974476 254.931443 
L 168.243453 248.254461 
L 168.512429 199.717286 
L 168.781405 101.870269 
L 168.915894 93.166761 
L 169.050382 124.067095 
L 169.18487 100.370285 
L 169.319358 98.09993 
L 169.453847 111.705941 
L 169.588335 108.09526 
L 170.260776 259.009321 
L 170.395264 248.665249 
L 170.66424 257.541277 
L 170.798729 258.524133 
L 170.933217 260.435713 
L 171.202193 250.99574 
L 171.336681 248.489912 
L 171.47117 250.607284 
L 171.605658 210.216551 
L 171.740146 207.647899 
L 172.009123 113.193176 
L 172.143611 95.75299 
L 172.278099 123.011255 
L 172.547075 95.529908 
L 172.681564 104.429197 
L 173.488493 256.339634 
L 173.622981 246.405646 
L 174.160934 282.650791 
L 174.295422 268.162283 
L 174.698887 261.153214 
L 175.23684 142.683156 
L 175.371328 153.217402 
L 175.505816 142.162106 
L 175.640304 140.313574 
L 175.774792 143.075355 
L 175.909281 154.535298 
L 176.043769 153.859172 
L 176.447234 204.382859 
L 176.71621 261.520053 
L 176.850698 252.223873 
L 177.119675 265.01551 
L 177.254163 260.666917 
L 177.523139 263.604222 
L 177.657627 261.143245 
L 177.926604 266.02309 
L 178.061092 265.193254 
L 178.19558 265.220811 
L 178.330069 250.415294 
L 178.464557 248.750281 
L 178.599045 251.720623 
L 178.733533 241.917878 
L 179.136998 253.718233 
L 179.271486 250.606745 
L 179.405974 251.048822 
L 179.540462 254.572309 
L 179.674951 252.521187 
L 179.809439 253.495873 
L 180.212904 262.832176 
L 180.347392 263.030095 
L 180.48188 262.735352 
L 180.616368 272.152777 
L 181.019833 267.812487 
L 181.154321 268.160056 
L 181.288809 267.198679 
L 181.692274 251.388319 
L 181.826762 254.904167 
L 181.96125 251.62921 
L 182.095738 257.347726 
L 182.230227 246.997448 
L 182.499203 262.189903 
L 182.76818 265.8193 
L 182.902668 269.876626 
L 183.171644 266.666815 
L 183.306132 270.658454 
L 183.440621 268.76782 
L 183.575109 279.832402 
L 183.844085 268.477872 
L 183.978573 285.460952 
L 184.382038 261.910456 
L 184.651015 235.505664 
L 184.919991 150.091309 
L 185.054479 173.458865 
L 185.188967 166.090809 
L 185.323456 183.433507 
L 185.457944 173.636538 
L 185.861408 200.275482 
L 186.264873 251.065141 
L 186.399361 258.559438 
L 186.53385 258.314139 
L 186.668338 260.980214 
L 186.937314 275.21214 
L 187.206291 290.591849 
L 187.609755 275.068317 
L 187.878732 241.539649 
L 188.147708 153.806125 
L 188.282196 178.421805 
L 188.416684 169.058965 
L 188.551173 179.686459 
L 188.685661 179.832857 
L 188.820149 184.73723 
L 188.954637 198.706294 
L 189.089126 200.161544 
L 189.49259 249.981931 
L 189.627078 261.02903 
L 189.761567 262.018435 
L 189.896055 259.019372 
L 190.165031 276.07447 
L 190.299519 264.419069 
L 190.434008 265.247623 
L 190.971961 250.9514 
L 191.106449 251.005186 
L 191.240937 250.618326 
L 191.375425 243.070473 
L 191.644402 253.405764 
L 191.77889 245.913667 
L 191.913378 255.314306 
L 192.047866 255.49194 
L 192.182354 257.396047 
L 192.316843 254.545488 
L 192.585819 262.684546 
L 192.720307 262.480045 
L 192.854796 264.055143 
L 192.989284 268.851145 
L 193.123772 264.047864 
L 193.25826 271.410909 
L 193.661725 257.602671 
L 193.796213 258.239522 
L 194.065189 252.197906 
L 194.334166 230.716252 
L 194.603142 153.18832 
L 194.73763 158.612405 
L 194.872119 145.328377 
L 195.006607 151.073932 
L 195.141095 142.520223 
L 195.275583 146.775394 
L 195.410072 159.938733 
L 195.54456 160.029555 
L 195.948024 241.69692 
L 196.217001 260.406109 
L 196.351489 256.296277 
L 196.620465 264.350203 
L 196.754954 275.909992 
L 197.02393 260.93529 
L 197.158418 256.286387 
L 197.292907 255.683157 
L 197.427395 247.531555 
L 197.561883 231.317535 
L 197.830859 155.717309 
L 197.965348 185.110362 
L 198.099836 178.929425 
L 198.234324 188.888823 
L 198.368812 187.216984 
L 198.5033 197.883062 
L 198.637789 195.460531 
L 198.772277 202.741419 
L 199.175742 250.291176 
L 199.444718 270.637043 
L 199.579206 266.543039 
L 199.982671 275.140735 
L 200.117159 271.117714 
L 200.251647 271.677693 
L 200.386135 270.956246 
L 200.520624 267.358684 
L 200.655112 257.544499 
L 200.7896 260.515821 
L 200.924088 235.803015 
L 201.058576 163.027858 
L 201.193065 202.318517 
L 201.327553 187.099425 
L 201.462041 194.165038 
L 201.596529 193.864658 
L 201.731018 201.147011 
L 201.865506 194.61164 
L 202.134482 213.194372 
L 202.537947 260.446433 
L 202.672435 264.790902 
L 202.806923 260.951091 
L 203.0759 270.095126 
L 203.210388 259.844905 
L 203.344876 258.846459 
L 203.479364 264.822959 
L 203.613853 261.199709 
L 204.017317 246.084808 
L 204.286294 161.613576 
L 204.420782 163.050095 
L 204.55527 158.561329 
L 204.689758 161.311138 
L 204.824246 156.949291 
L 204.958735 167.234338 
L 205.093223 165.812109 
L 205.227711 196.865829 
L 205.362199 200.24219 
L 205.631176 237.314454 
L 205.900152 260.515337 
L 206.03464 256.920529 
L 206.303617 267.461163 
L 206.438105 287.674316 
L 206.572593 275.041489 
L 206.707081 276.618201 
L 207.110546 267.338137 
L 207.514011 237.854914 
L 207.648499 236.398823 
L 207.782987 242.258272 
L 208.051964 261.892273 
L 208.32094 265.985883 
L 208.455428 261.722764 
L 208.589916 262.794742 
L 208.724405 268.542005 
L 208.858893 268.386121 
L 208.993381 275.763456 
L 209.127869 274.422907 
L 209.262357 274.860045 
L 209.396846 279.713982 
L 209.531334 277.151785 
L 209.665822 263.561532 
L 209.80031 267.194388 
L 210.069287 259.472672 
L 210.203775 258.403553 
L 210.338263 229.720172 
L 210.472751 231.214937 
L 210.741728 136.563244 
L 210.876216 145.082651 
L 211.010704 125.239703 
L 211.145192 127.868962 
L 211.279681 112.298933 
L 211.952122 212.399006 
L 212.221098 247.517171 
L 212.355586 258.744159 
L 212.490075 253.230295 
L 212.893539 268.647198 
L 213.028027 269.453009 
L 213.297004 257.608272 
L 213.431492 259.828645 
L 213.834957 148.154583 
L 213.969445 112.277542 
L 214.103933 112.961938 
L 214.238421 138.370021 
L 214.37291 116.976774 
L 214.507398 118.44743 
L 215.583303 262.844012 
L 215.717792 254.423033 
L 215.85228 269.15113 
L 215.986768 265.766833 
L 216.121256 265.630691 
L 216.255745 264.161428 
L 216.524721 256.926455 
L 216.659209 258.116684 
L 216.928186 225.432884 
L 217.197162 124.051067 
L 217.33165 127.267622 
L 217.466138 146.824137 
L 217.600627 133.817153 
L 217.869603 147.15601 
L 218.004091 149.001038 
L 218.407556 219.239633 
L 218.542044 230.714106 
L 218.676532 262.759485 
L 218.811021 259.819342 
L 218.945509 262.010434 
L 219.079997 273.811288 
L 219.214485 258.685629 
L 219.348973 265.997669 
L 219.483462 264.324641 
L 219.61795 265.0454 
L 219.752438 264.632968 
L 219.886926 263.056499 
L 220.155903 224.917247 
L 220.424879 122.001392 
L 220.693856 150.449491 
L 220.828344 135.505196 
L 220.962832 138.825112 
L 221.09732 156.507612 
L 221.231808 157.187716 
L 221.500785 205.01287 
L 221.635273 216.715484 
L 221.904249 264.21925 
L 222.173226 258.533914 
L 222.307714 269.934371 
L 222.442202 266.326788 
L 222.576691 267.209004 
L 222.845667 270.542892 
L 222.980155 269.732736 
L 223.114643 270.636153 
L 223.249132 265.875729 
L 223.38362 270.118822 
L 223.652596 238.649481 
L 223.787084 255.177321 
L 223.921573 253.451188 
L 224.190549 247.401781 
L 224.594014 256.330678 
L 224.997478 252.779442 
L 225.131967 256.955313 
L 225.266455 257.164247 
L 225.400943 255.695327 
L 225.535431 260.868859 
L 225.669919 261.125655 
L 225.804408 259.275189 
L 225.938896 255.095836 
L 226.073384 259.865621 
L 226.207872 259.598706 
L 226.34236 263.249057 
L 226.476849 262.142506 
L 226.611337 263.837054 
L 226.880313 259.159823 
L 227.014802 256.470796 
L 227.14929 263.161256 
L 227.418266 263.737881 
L 227.552754 262.625269 
L 227.687243 267.48064 
L 227.821731 267.461359 
L 227.956219 267.719355 
L 228.090707 266.932312 
L 228.225195 267.074964 
L 228.359684 273.094734 
L 228.62866 268.828563 
L 228.763148 275.246483 
L 228.897637 276.076305 
L 229.032125 272.959945 
L 229.166613 265.293074 
L 229.301101 264.275782 
L 229.570078 258.517604 
L 229.839054 208.190108 
L 230.10803 114.169034 
L 230.242519 96.800646 
L 230.377007 109.214573 
L 230.511495 110.355455 
L 230.645983 93.01083 
L 230.780471 126.724175 
L 230.91496 122.415113 
L 231.049448 138.85739 
L 231.587401 253.287609 
L 231.721889 253.000419 
L 231.856377 254.483047 
L 232.125354 267.602244 
L 232.259842 267.850822 
L 232.39433 263.969285 
L 232.528818 264.076586 
L 232.663306 262.911197 
L 232.797795 255.226863 
L 233.066771 214.466118 
L 233.335748 117.308411 
L 233.470236 110.076392 
L 233.739212 128.358535 
L 233.8737 115.845646 
L 234.008189 133.137101 
L 234.142677 132.28895 
L 234.546141 212.96618 
L 234.949606 264.518813 
L 235.084094 261.457792 
L 235.218583 264.018454 
L 235.353071 271.960861 
L 235.487559 268.12765 
L 235.756535 272.25129 
L 236.025512 259.081514 
L 236.294488 226.731808 
L 236.563465 114.720398 
L 236.697953 107.361851 
L 236.832441 126.808249 
L 237.101417 102.715608 
L 237.370394 152.126514 
L 237.504882 154.299472 
L 238.042835 257.083857 
L 238.177323 262.740712 
L 238.311811 259.930203 
L 238.580788 270.841179 
L 238.715276 268.541274 
L 238.849764 269.241536 
L 239.118741 273.542504 
L 239.387717 251.997879 
L 239.522205 217.033064 
L 239.791182 123.98818 
L 239.92567 116.78244 
L 240.194646 129.916613 
L 240.329135 119.23086 
L 240.463623 130.040362 
L 241.136064 243.573766 
L 241.270552 257.679366 
L 241.40504 253.249356 
L 241.539529 254.571497 
L 241.674017 262.602068 
L 241.808505 263.917727 
L 241.942993 259.142633 
L 242.077481 275.339728 
L 242.21197 267.389588 
L 242.346458 277.991673 
L 242.615434 244.677993 
L 242.749922 221.129953 
L 243.018899 120.344168 
L 243.153387 129.047952 
L 243.287875 153.462595 
L 243.556852 124.828472 
L 243.825828 155.784113 
L 244.094805 195.863467 
L 244.363781 239.334314 
L 244.632757 256.922983 
L 244.767246 257.601008 
L 244.901734 266.306533 
L 245.036222 265.202638 
L 245.305198 269.824524 
L 245.439687 267.391866 
L 245.574175 267.440997 
L 245.843151 262.585558 
L 245.97764 240.865103 
L 246.112128 260.375271 
L 246.246616 253.542133 
L 246.381104 253.228639 
L 246.650081 250.214223 
L 247.053545 258.663472 
L 247.188033 264.013997 
L 247.322522 263.551779 
L 247.45701 267.355618 
L 247.591498 267.055728 
L 247.725986 267.201207 
L 247.860475 265.794178 
L 248.263939 269.863405 
L 248.398427 269.195443 
L 248.532916 266.456744 
L 248.667404 266.364154 
L 248.801892 264.368805 
L 248.93638 267.380779 
L 249.070868 265.029523 
L 249.205357 265.143053 
L 249.339845 265.522329 
L 249.608821 267.54167 
L 249.743309 267.531658 
L 249.877798 267.635261 
L 250.012286 268.728497 
L 250.415751 267.566011 
L 250.550239 269.220069 
L 250.819215 267.753162 
L 250.953703 268.230682 
L 251.22268 266.819356 
L 251.357168 271.002862 
L 251.491656 271.515376 
L 251.626144 268.766102 
L 251.760633 284.575 
L 251.895121 273.940875 
L 252.029609 272.991622 
L 252.164097 267.464592 
L 252.433074 239.246287 
L 252.70205 121.917201 
L 252.836538 118.995352 
L 253.105515 147.697583 
L 253.240003 134.250676 
L 254.181421 260.285518 
L 254.315909 258.794518 
L 254.450397 262.740948 
L 254.584885 278.965829 
L 254.719373 277.839547 
L 254.853862 277.67995 
L 254.98835 282.071916 
L 255.122838 275.884659 
L 255.257326 276.964674 
L 255.391814 273.513686 
L 255.929767 128.189203 
L 256.064255 162.249098 
L 256.198744 160.062854 
L 256.333232 145.472775 
L 256.46772 149.062321 
L 257.005673 208.916411 
L 257.409138 254.840422 
L 257.543626 254.016857 
L 257.678114 256.759477 
L 257.94709 265.149082 
L 258.081579 261.656874 
L 258.216067 278.226452 
L 258.485043 272.088341 
L 258.619532 265.201364 
L 258.888508 231.427419 
L 259.157484 129.371738 
L 259.291973 162.412577 
L 259.695437 142.897997 
L 259.964414 175.709953 
L 260.098902 166.765668 
L 260.367878 226.362857 
L 260.502366 235.110045 
L 260.636855 252.951617 
L 260.771343 254.920729 
L 260.905831 253.894561 
L 261.040319 265.526721 
L 261.309296 260.543529 
L 261.443784 266.937636 
L 261.578272 260.881828 
L 261.71276 263.433899 
L 261.981737 247.050364 
L 262.385201 129.234682 
L 262.51969 160.102959 
L 262.654178 153.003073 
L 262.788666 130.796336 
L 263.057643 156.119007 
L 263.192131 152.592281 
L 263.461107 199.523115 
L 263.864572 251.05375 
L 263.99906 252.86927 
L 264.133548 251.824058 
L 264.268036 259.199643 
L 264.402525 258.883055 
L 264.537013 267.011402 
L 264.671501 254.676804 
L 264.805989 256.830205 
L 265.209454 240.637028 
L 265.47843 186.066881 
L 265.612919 140.170653 
L 265.747407 133.567977 
L 265.881895 108.946413 
L 266.016383 117.477614 
L 266.150871 117.713805 
L 266.554336 141.251221 
L 267.092289 255.169871 
L 267.226777 252.514185 
L 267.361265 250.859481 
L 267.495754 258.639744 
L 267.630242 255.565279 
L 267.76473 271.874775 
L 267.899218 261.933898 
L 268.033706 263.418977 
L 268.168195 260.402655 
L 268.437171 266.688638 
L 268.571659 265.52372 
L 268.706147 259.878581 
L 268.840636 266.093149 
L 268.975124 266.472527 
L 269.109612 262.624106 
L 269.2441 263.580347 
L 269.378589 263.511144 
L 269.513077 263.633244 
L 269.916541 256.402276 
L 270.05103 256.724489 
L 270.185518 254.862091 
L 270.320006 256.290682 
L 270.588982 254.528754 
L 270.723471 263.450676 
L 270.857959 262.606263 
L 270.992447 277.399045 
L 271.261424 267.99113 
L 271.395912 268.72775 
L 271.664888 266.550056 
L 271.799376 268.103771 
L 271.933865 268.012718 
L 272.068353 269.692291 
L 272.202841 267.123728 
L 272.337329 269.944639 
L 272.471817 269.276795 
L 272.606306 271.12986 
L 272.740794 270.803585 
L 272.875282 269.031444 
L 273.00977 273.154954 
L 273.278747 271.767364 
L 273.413235 269.00042 
L 273.682211 269.424461 
L 273.8167 268.272095 
L 273.951188 275.089398 
L 274.085676 274.287242 
L 274.220164 269.838491 
L 274.354652 289.69197 
L 274.489141 282.087793 
L 274.623629 281.795931 
L 274.758117 273.627198 
L 275.027093 239.727393 
L 275.29607 163.267148 
L 275.565046 150.245699 
L 275.699535 155.721372 
L 275.834023 151.871902 
L 275.968511 154.034693 
L 276.102999 180.164754 
L 276.237487 182.491689 
L 276.77544 253.777718 
L 277.313393 271.832383 
L 277.447881 267.544431 
L 277.58237 276.954518 
L 277.716858 272.17817 
L 277.851346 276.647023 
L 277.985834 272.722899 
L 278.120322 264.85339 
L 278.254811 249.06149 
L 278.523787 193.278409 
L 278.658275 193.817945 
L 278.792763 173.471812 
L 278.927252 184.750427 
L 279.06174 175.687352 
L 279.196228 198.567103 
L 279.330716 190.80068 
L 279.599693 219.968634 
L 280.003157 258.734866 
L 280.137646 262.753124 
L 280.272134 263.184913 
L 280.406622 275.116898 
L 280.54111 275.599131 
L 280.675598 255.684607 
L 280.810087 257.48893 
L 281.213551 248.561746 
L 281.348039 230.146729 
L 281.482528 231.41605 
L 281.751504 116.587115 
L 281.885992 130.663443 
L 282.020481 118.061 
L 282.289457 133.220147 
L 282.423945 134.79682 
L 282.558433 126.19956 
L 283.096386 234.440258 
L 283.365363 259.868476 
L 283.499851 257.223791 
L 283.768827 265.356813 
L 284.172292 250.42417 
L 284.30678 249.137147 
L 284.575757 236.349542 
L 284.710245 228.557087 
L 284.979221 140.754292 
L 285.113709 144.677559 
L 285.248198 152.642435 
L 285.382686 136.765277 
L 285.651662 142.596012 
L 286.189615 218.06591 
L 286.458592 249.948269 
L 286.59308 257.718838 
L 286.727568 253.856106 
L 286.862056 264.450661 
L 286.996544 260.889724 
L 287.131033 289.712632 
L 287.400009 268.759474 
L 287.534497 265.356334 
L 287.803474 256.338885 
L 287.937962 251.687901 
L 288.07245 256.013665 
L 288.206938 254.382233 
L 288.341427 256.664968 
L 288.475915 253.618146 
L 288.610403 258.067159 
L 288.744891 255.697057 
L 289.282844 271.257968 
L 289.417332 267.461025 
L 289.55182 277.923274 
L 289.686309 277.527233 
L 289.820797 275.829325 
L 290.089773 270.522086 
L 290.224262 271.579988 
L 290.35875 268.960608 
L 290.493238 271.27684 
L 290.627726 268.200495 
L 290.762214 269.567824 
L 290.896703 265.364723 
L 291.031191 255.487139 
L 291.165679 256.197423 
L 291.300167 236.790341 
L 291.434655 164.32101 
L 291.703632 177.995277 
L 291.972608 186.93989 
L 292.107096 182.404359 
L 292.241585 182.111033 
L 292.914026 257.627587 
L 293.048514 261.959496 
L 293.183002 258.135006 
L 293.31749 267.231815 
L 293.451979 266.929361 
L 293.586467 263.662832 
L 293.720955 263.764972 
L 293.855443 260.362222 
L 293.989931 263.634683 
L 294.12442 261.131995 
L 294.258908 248.621888 
L 294.393396 248.812614 
L 294.527884 221.584587 
L 294.662373 165.318189 
L 294.796861 171.803664 
L 294.931349 149.695955 
L 295.065837 152.63135 
L 295.200325 140.850735 
L 295.334814 149.275537 
L 295.469302 166.48671 
L 295.60379 165.80331 
L 295.872766 212.897539 
L 296.276231 262.199987 
L 296.410719 254.655318 
L 296.545208 257.200104 
L 296.679696 267.868187 
L 296.814184 289.585008 
L 296.948672 276.872922 
L 297.08316 275.929205 
L 297.352137 269.667274 
L 297.486625 268.71855 
L 297.621113 269.265428 
L 297.755601 270.902095 
L 297.89009 270.673527 
L 298.024578 271.991141 
L 298.293554 267.971869 
L 298.428042 268.327475 
L 298.562531 267.289661 
L 298.831507 267.385603 
L 299.234972 274.154486 
L 299.36946 274.032009 
L 299.503948 274.984453 
L 299.638436 272.191138 
L 299.907413 276.999026 
L 300.041901 255.085995 
L 300.176389 266.434718 
L 300.310877 258.922831 
L 300.445366 259.544491 
L 300.579854 253.812027 
L 300.84883 227.948283 
L 301.117807 141.967887 
L 301.252295 139.035091 
L 301.521271 124.974691 
L 301.65576 129.150223 
L 301.790248 140.85361 
L 301.924736 133.094223 
L 302.462689 229.476572 
L 302.597177 252.790639 
L 302.731665 256.07978 
L 302.866153 253.300358 
L 303.000642 258.132007 
L 303.13513 267.671362 
L 303.269618 266.925045 
L 303.538595 256.30878 
L 303.673083 256.838902 
L 303.807571 251.845175 
L 303.942059 221.787027 
L 304.076547 217.155988 
L 304.345524 135.353186 
L 304.480012 161.256091 
L 304.748988 146.427193 
L 304.883477 148.041189 
L 305.017965 161.882359 
L 305.152453 155.999352 
L 305.824894 253.856788 
L 306.093871 259.212994 
L 306.362847 267.288708 
L 306.497335 263.224265 
L 306.631823 275.655969 
L 306.9008 265.142575 
L 307.035288 260.777245 
L 307.304265 220.776247 
L 307.573241 128.657401 
L 307.707729 164.22478 
L 307.842217 158.995203 
L 307.976706 140.295588 
L 308.111194 148.09878 
L 308.245682 162.934643 
L 308.38017 160.42287 
L 309.187099 261.562411 
L 309.321588 259.577194 
L 309.590564 272.042621 
L 309.725052 269.855907 
L 309.859541 271.432774 
L 310.397493 248.316949 
L 310.531982 217.350872 
L 310.800958 128.735092 
L 311.069934 157.731847 
L 311.204423 146.555084 
L 311.338911 146.485711 
L 311.607887 170.721637 
L 311.742376 173.909027 
L 312.14584 233.504061 
L 312.414817 259.452431 
L 312.549305 255.959808 
L 312.683793 265.059762 
L 312.818281 266.382607 
L 312.952769 266.236974 
L 313.087258 266.749831 
L 313.221746 262.818743 
L 313.356234 264.532805 
L 313.490722 261.678192 
L 313.625211 263.708428 
L 314.028675 238.43515 
L 314.163163 250.416248 
L 314.297652 245.458053 
L 314.43214 250.163221 
L 314.566628 246.928848 
L 314.835604 257.214876 
L 314.970093 258.518509 
L 315.239069 264.980355 
L 315.508045 263.338734 
L 315.642534 265.051303 
L 315.777022 263.061832 
L 315.91151 266.737944 
L 316.045998 265.701889 
L 316.180487 266.6589 
L 316.314975 265.677144 
L 316.449463 266.090122 
L 316.583951 263.424634 
L 316.718439 264.246046 
L 316.852928 262.848712 
L 316.987416 264.039945 
L 317.121904 263.444978 
L 317.256392 261.935041 
L 317.39088 263.458209 
L 317.525369 262.340474 
L 317.659857 264.669198 
L 317.794345 263.168407 
L 317.928833 266.955527 
L 318.063322 264.361533 
L 318.19781 265.474419 
L 318.332298 265.131551 
L 318.466786 265.278963 
L 318.601274 263.349666 
L 318.735763 264.513753 
L 319.004739 262.308397 
L 319.139227 269.668786 
L 319.273715 268.161839 
L 319.408204 265.020951 
L 319.542692 281.181658 
L 319.811668 268.75701 
L 319.946157 263.702858 
L 320.080645 254.391842 
L 320.215133 235.116659 
L 320.484109 127.882421 
L 320.618598 122.741609 
L 320.753086 124.026049 
L 320.887574 134.828455 
L 321.022062 129.503699 
L 321.15655 138.580711 
L 321.96348 260.738298 
L 322.097968 260.159334 
L 322.232456 258.210588 
L 322.501433 268.800559 
L 322.635921 264.468259 
L 322.770409 279.843247 
L 323.039385 268.729783 
L 323.173874 262.509769 
L 323.44285 239.156068 
L 323.711826 129.359093 
L 323.980803 164.021977 
L 324.115291 140.388279 
L 324.249779 142.910099 
L 325.056709 234.513824 
L 325.191197 259.754338 
L 325.325685 258.620172 
L 325.460173 255.082139 
L 325.72915 267.07363 
L 325.863638 263.473307 
L 325.998126 274.429186 
L 326.401591 264.400678 
L 326.536079 253.184374 
L 326.670567 231.288767 
L 326.939544 123.668013 
L 327.20852 164.388646 
L 327.343008 136.61365 
L 328.015449 202.005032 
L 328.149937 231.486532 
L 328.284426 236.28586 
L 328.553402 257.13263 
L 328.68789 255.226837 
L 328.956867 269.751938 
L 329.091355 267.393223 
L 329.225843 282.28903 
L 329.360331 272.180462 
L 329.49482 270.532466 
L 329.629308 262.859903 
L 329.898284 232.653542 
L 330.167261 135.890252 
L 330.301749 161.771023 
L 330.436237 164.252136 
L 330.570725 150.077744 
L 330.705214 151.02286 
L 330.839702 157.390074 
L 331.108678 190.397416 
L 331.243166 199.412311 
L 331.646631 255.74766 
L 331.781119 257.875001 
L 331.915607 254.948014 
L 332.050096 263.120562 
L 332.184584 264.035163 
L 332.319072 265.845182 
L 332.45356 279.867295 
L 332.722537 265.493668 
L 332.857025 263.619415 
L 333.126001 231.166284 
L 333.394978 131.432881 
L 333.663954 170.604225 
L 333.798442 146.169415 
L 334.201907 174.690179 
L 334.874348 259.402962 
L 335.008836 258.843527 
L 335.143325 257.079747 
L 335.277813 268.616347 
L 335.412301 269.892445 
L 335.681277 264.89021 
L 335.950254 261.827857 
L 336.21923 263.412877 
L 336.757183 245.531259 
L 336.891671 243.055356 
L 337.02616 248.030474 
L 337.160648 246.275092 
L 337.429624 252.037228 
L 337.833089 260.575365 
L 337.967577 261.723963 
L 338.102065 261.097533 
L 338.236553 263.689779 
L 338.371042 262.580225 
L 338.50553 267.390778 
L 338.640018 266.942788 
L 338.774506 262.365833 
L 338.908995 262.799972 
L 339.043483 262.154388 
L 339.177971 260.422713 
L 339.312459 260.695454 
L 339.446947 261.255393 
L 339.581436 261.209937 
L 339.715924 262.161778 
L 339.9849 260.54724 
L 340.119388 262.405809 
L 340.253877 261.779099 
L 340.388365 262.67571 
L 340.522853 262.744768 
L 340.657341 265.234347 
L 340.791829 263.144193 
L 340.926318 266.142788 
L 341.060806 266.349525 
L 341.195294 266.054718 
L 341.329782 262.424968 
L 341.464271 265.381844 
L 341.598759 264.716662 
L 341.733247 270.220907 
L 342.002223 267.897953 
L 342.136712 279.401309 
L 342.405688 269.944656 
L 342.540176 267.836358 
L 342.809153 239.976218 
L 343.078129 124.62498 
L 343.212617 126.861256 
L 343.347106 154.167458 
L 343.481594 153.754787 
L 343.616082 154.06903 
L 344.154035 205.66681 
L 344.288523 217.209075 
L 344.557499 255.318195 
L 344.691988 255.212285 
L 344.826476 254.669891 
L 344.960964 269.22166 
L 345.095452 269.417218 
L 345.22994 265.766394 
L 345.364429 276.609077 
L 345.498917 269.539982 
L 345.633405 269.218408 
L 345.767893 264.111806 
L 346.03687 233.879534 
L 346.305846 135.515367 
L 346.440334 171.002143 
L 346.709311 155.661283 
L 346.843799 160.202916 
L 347.51624 224.602331 
L 347.785217 252.459424 
L 347.919705 256.010342 
L 348.054193 256.167102 
L 348.323169 270.161821 
L 348.457658 265.501472 
L 348.592146 278.801693 
L 348.726634 270.786031 
L 348.861122 272.066413 
L 348.99561 266.349145 
L 349.264587 235.622198 
L 349.533563 134.749658 
L 349.668052 164.552915 
L 349.937028 149.972432 
L 350.071516 154.587063 
L 350.609469 204.086248 
L 350.878445 242.635058 
L 351.147422 258.008507 
L 351.28191 259.110648 
L 351.550886 270.094459 
L 351.685375 268.164593 
L 351.819863 281.876616 
L 351.954351 270.446152 
L 352.088839 269.306884 
L 352.357816 258.749546 
L 352.492304 240.562453 
L 352.76128 133.329284 
L 352.895769 169.579955 
L 353.164745 153.729995 
L 353.299233 155.893426 
L 353.56821 175.756815 
L 353.702698 179.296687 
L 353.837186 186.561603 
L 354.106163 247.635523 
L 354.240651 251.304207 
L 354.375139 263.954619 
L 354.509627 261.339744 
L 354.644115 269.618196 
L 354.913092 273.280931 
L 355.04758 275.154882 
L 355.585533 256.893457 
L 355.720021 234.290169 
L 355.988998 159.18498 
L 356.123486 171.549726 
L 356.392462 146.991099 
L 356.661439 167.278546 
L 356.795927 168.938101 
L 357.33388 241.907836 
L 357.602856 266.523058 
L 357.737344 262.713844 
L 357.871832 270.549037 
L 358.006321 271.547813 
L 358.140809 274.955887 
L 358.275297 270.900166 
L 358.409785 270.666489 
L 358.544274 270.813872 
L 358.678762 269.749118 
L 358.947738 266.967098 
L 359.216715 246.981075 
L 359.351203 245.046226 
L 359.485691 246.602814 
L 359.620179 244.071276 
L 359.754667 238.384556 
L 359.889156 256.752151 
L 360.023644 254.986407 
L 360.158132 255.769194 
L 360.561597 271.902414 
L 360.696085 269.353484 
L 360.830573 269.119368 
L 360.965061 269.289854 
L 361.09955 273.140582 
L 361.234038 273.154123 
L 361.637502 269.302646 
L 361.771991 270.772204 
L 361.906479 269.006327 
L 362.040967 268.712592 
L 362.175455 271.357623 
L 362.309944 271.102389 
L 362.444432 272.151638 
L 362.57892 272.31793 
L 362.713408 268.797118 
L 362.847896 268.932923 
L 363.116873 271.626074 
L 363.251361 272.669571 
L 363.385849 271.383411 
L 363.654826 273.259357 
L 363.923802 269.85076 
L 364.05829 268.912723 
L 364.192778 275.904063 
L 364.327267 276.341742 
L 364.461755 225.020122 
L 364.596243 244.743354 
L 364.730731 240.637659 
L 364.86522 239.991543 
L 364.999708 241.559446 
L 365.134196 232.884894 
L 365.806637 102.749021 
L 365.941125 112.055212 
L 366.075613 101.593085 
L 366.210102 107.205051 
L 366.613566 158.811468 
L 367.017031 251.664412 
L 367.151519 249.693155 
L 367.420496 257.851958 
L 367.554984 255.002985 
L 367.689472 264.71509 
L 367.958448 256.331253 
L 368.092937 257.390973 
L 368.227425 255.629365 
L 368.361913 213.452612 
L 368.496401 208.218641 
L 368.899866 87.344336 
L 369.034354 100.557142 
L 369.168842 91.231229 
L 369.303331 73.044208 
L 369.572307 103.260356 
L 369.975772 187.271113 
L 370.244748 256.561851 
L 370.379236 243.695806 
L 370.782701 259.18791 
L 370.917189 289.630685 
L 371.051677 274.667105 
L 371.186166 272.232256 
L 371.455142 262.922374 
L 371.724118 228.611129 
L 371.993095 132.895006 
L 372.396559 192.231418 
L 372.531048 177.934636 
L 372.800024 203.321992 
L 372.934512 206.503451 
L 373.203489 245.645102 
L 373.337977 241.235746 
L 373.606953 259.696327 
L 373.741442 255.666871 
L 373.87593 267.903603 
L 374.010418 268.797086 
L 374.279394 290.212775 
L 374.548371 278.182829 
L 374.682859 270.587323 
L 374.951836 232.80524 
L 375.220812 164.916267 
L 375.3553 167.197227 
L 375.489788 166.553251 
L 375.624277 175.293847 
L 375.758765 173.623363 
L 375.893253 176.797886 
L 376.700182 260.008625 
L 376.83467 261.176527 
L 376.969159 258.622122 
L 377.372623 285.862638 
L 377.507112 272.042732 
L 377.6416 271.055675 
L 377.910576 256.866761 
L 378.045064 265.965235 
L 378.179553 257.272047 
L 378.314041 258.36511 
L 378.448529 232.305902 
L 378.583017 242.845228 
L 378.717505 227.129336 
L 378.851994 242.387326 
L 378.986482 244.635979 
L 379.12097 260.371768 
L 379.255458 257.653673 
L 379.524435 268.906635 
L 379.658923 268.122301 
L 379.927899 275.286769 
L 380.062388 272.816556 
L 380.196876 273.140638 
L 380.331364 270.976863 
L 380.465852 271.940101 
L 380.60034 258.218164 
L 380.734829 263.231865 
L 380.869317 263.460367 
L 381.003805 264.735112 
L 381.138293 263.231492 
L 381.272782 245.504172 
L 381.40727 247.591125 
L 381.676246 131.009277 
L 381.810734 141.676527 
L 381.945223 140.798114 
L 382.079711 131.875386 
L 382.617664 159.245305 
L 382.88664 209.628097 
L 383.155616 259.910693 
L 383.290105 261.071502 
L 383.424593 261.05775 
L 383.693569 265.172726 
L 383.828058 256.912576 
L 383.962546 256.900062 
L 384.231522 254.315414 
L 384.36601 254.716897 
L 384.500499 249.532827 
L 384.634987 252.471242 
L 384.903963 157.831414 
L 385.038451 155.041676 
L 385.17294 160.202918 
L 385.307428 141.399689 
L 385.441916 153.211544 
L 385.576404 175.552654 
L 385.710893 166.111223 
L 385.845381 179.060141 
L 385.979869 218.819116 
L 386.114357 220.409115 
L 386.383334 259.800865 
L 386.517822 261.921106 
L 386.65231 258.325875 
L 386.786798 273.085234 
L 386.921286 269.422903 
L 387.055775 280.293881 
L 387.324751 267.326949 
L 387.459239 267.037703 
L 387.593727 261.438269 
L 387.728216 261.167558 
L 387.862704 264.071569 
L 387.997192 261.390448 
L 388.13168 266.316626 
L 388.266169 263.486428 
L 388.400657 270.162984 
L 388.669633 267.466817 
L 388.804121 271.870811 
L 388.93861 272.538939 
L 389.073098 278.387278 
L 389.207586 274.385942 
L 389.476562 280.491626 
L 389.611051 283.891436 
L 389.745539 284.455571 
L 389.880027 278.369955 
L 390.014515 282.523132 
L 390.149004 280.981924 
L 390.283492 250.698759 
L 390.41798 259.641302 
L 390.686956 254.48396 
L 390.821445 250.971011 
L 390.955933 234.843294 
L 391.090421 239.624329 
L 391.224909 216.882474 
L 391.359397 145.317429 
L 391.493886 174.646733 
L 391.628374 149.266926 
L 391.89735 171.669823 
L 392.031839 171.132454 
L 392.166327 174.889147 
L 392.300815 181.87794 
L 392.838768 262.079531 
L 392.973256 270.528516 
L 393.107744 265.18398 
L 393.242232 270.387981 
L 393.376721 270.851864 
L 393.511209 256.265554 
L 393.645697 254.509303 
L 393.780185 261.125896 
L 393.914673 256.832879 
L 394.049162 244.517432 
L 394.18365 248.082383 
L 394.318138 226.144542 
L 394.587115 146.838785 
L 394.856091 153.349105 
L 394.990579 140.947835 
L 395.394044 151.490762 
L 395.931997 233.669034 
L 396.200973 257.931898 
L 396.335461 255.289328 
L 396.46995 262.175256 
L 396.604438 254.931055 
L 396.738926 295.488 
L 396.873414 275.905378 
L 397.007902 276.828966 
L 397.142391 270.86618 
L 397.276879 271.029914 
L 397.545855 238.137081 
L 397.680343 161.407603 
L 397.814832 149.90757 
L 397.94932 172.585493 
L 398.083808 155.054428 
L 398.218296 158.136123 
L 398.352785 150.818761 
L 398.487273 170.865726 
L 398.487273 170.865726 
" clip-path="url(#pe0bf16d891)" style="fill: none; stroke: #ff7f0e; stroke-width: 1.5; stroke-linecap: square"/>
   </g>
   <g id="patch_3">
    <path d="M 57.6 307.584 
L 57.6 41.472 
" style="fill: none; stroke: #000000; stroke-width: 0.8; stroke-linejoin: miter; stroke-linecap: square"/>
   </g>
   <g id="patch_4">
    <path d="M 414.72 307.584 
L 414.72 41.472 
" style="fill: none; stroke: #000000; stroke-width: 0.8; stroke-linejoin: miter; stroke-linecap: square"/>
   </g>
   <g id="patch_5">
    <path d="M 57.6 307.584 
L 414.72 307.584 
" style="fill: none; stroke: #000000; stroke-width: 0.8; stroke-linejoin: miter; stroke-linecap: square"/>
   </g>
   <g id="patch_6">
    <path d="M 57.6 41.472 
L 414.72 41.472 
" style="fill: none; stroke: #000000; stroke-width: 0.8; stroke-linejoin: miter; stroke-linecap: square"/>
   </g>
  </g>
 </g>
 <defs>
  <clipPath id="pe0bf16d891">
   <rect x="57.6" y="41.472" width="357.12" height="266.112"/>
  </clipPath>
 </defs>
</svg>
