<?xml version="1.0" encoding="utf-8" standalone="no"?>
<!DOCTYPE svg PUBLIC "-//W3C//DTD SVG 1.1//EN"
  "http://www.w3.org/Graphics/SVG/1.1/DTD/svg11.dtd">
<svg xmlns:xlink="http://www.w3.org/1999/xlink" width="460.8pt" height="345.6pt" viewBox="0 0 460.8 345.6" xmlns="http://www.w3.org/2000/svg" version="1.1">
 <metadata>
  <rdf:RDF xmlns:dc="http://purl.org/dc/elements/1.1/" xmlns:cc="http://creativecommons.org/ns#" xmlns:rdf="http://www.w3.org/1999/02/22-rdf-syntax-ns#">
   <cc:Work>
    <dc:type rdf:resource="http://purl.org/dc/dcmitype/StillImage"/>
    <dc:date>2023-04-04T01:20:58.840197</dc:date>
    <dc:format>image/svg+xml</dc:format>
    <dc:creator>
     <cc:Agent>
      <dc:title>Matplotlib v3.5.2, https://matplotlib.org/</dc:title>
     </cc:Agent>
    </dc:creator>
   </cc:Work>
  </rdf:RDF>
 </metadata>
 <defs>
  <style type="text/css">*{stroke-linejoin: round; stroke-linecap: butt}</style>
 </defs>
 <g id="figure_1">
  <g id="patch_1">
   <path d="M 0 345.6 
L 460.8 345.6 
L 460.8 0 
L 0 0 
z
" style="fill: #ffffff"/>
  </g>
  <g id="axes_1">
   <g id="patch_2">
    <path d="M 57.6 307.584 
L 414.72 307.584 
L 414.72 41.472 
L 57.6 41.472 
z
" style="fill: #ffffff"/>
   </g>
   <g id="matplotlib.axis_1">
    <g id="xtick_1">
     <g id="line2d_1">
      <defs>
       <path id="m3eaf1640cf" d="M 0 0 
L 0 3.5 
" style="stroke: #000000; stroke-width: 0.8"/>
      </defs>
      <g>
       <use xlink:href="#m3eaf1640cf" x="73.832727" y="307.584" style="stroke: #000000; stroke-width: 0.8"/>
      </g>
     </g>
     <g id="text_1">
      <!-- 0 -->
      <g transform="translate(70.651477 322.182437)scale(0.1 -0.1)">
       <defs>
        <path id="DejaVuSans-30" d="M 2034 4250 
Q 1547 4250 1301 3770 
Q 1056 3291 1056 2328 
Q 1056 1369 1301 889 
Q 1547 409 2034 409 
Q 2525 409 2770 889 
Q 3016 1369 3016 2328 
Q 3016 3291 2770 3770 
Q 2525 4250 2034 4250 
z
M 2034 4750 
Q 2819 4750 3233 4129 
Q 3647 3509 3647 2328 
Q 3647 1150 3233 529 
Q 2819 -91 2034 -91 
Q 1250 -91 836 529 
Q 422 1150 422 2328 
Q 422 3509 836 4129 
Q 1250 4750 2034 4750 
z
" transform="scale(0.015625)"/>
       </defs>
       <use xlink:href="#DejaVuSans-30"/>
      </g>
     </g>
    </g>
    <g id="xtick_2">
     <g id="line2d_2">
      <g>
       <use xlink:href="#m3eaf1640cf" x="141.076834" y="307.584" style="stroke: #000000; stroke-width: 0.8"/>
      </g>
     </g>
     <g id="text_2">
      <!-- 500 -->
      <g transform="translate(131.533084 322.182437)scale(0.1 -0.1)">
       <defs>
        <path id="DejaVuSans-35" d="M 691 4666 
L 3169 4666 
L 3169 4134 
L 1269 4134 
L 1269 2991 
Q 1406 3038 1543 3061 
Q 1681 3084 1819 3084 
Q 2600 3084 3056 2656 
Q 3513 2228 3513 1497 
Q 3513 744 3044 326 
Q 2575 -91 1722 -91 
Q 1428 -91 1123 -41 
Q 819 9 494 109 
L 494 744 
Q 775 591 1075 516 
Q 1375 441 1709 441 
Q 2250 441 2565 725 
Q 2881 1009 2881 1497 
Q 2881 1984 2565 2268 
Q 2250 2553 1709 2553 
Q 1456 2553 1204 2497 
Q 953 2441 691 2322 
L 691 4666 
z
" transform="scale(0.015625)"/>
       </defs>
       <use xlink:href="#DejaVuSans-35"/>
       <use xlink:href="#DejaVuSans-30" x="63.623047"/>
       <use xlink:href="#DejaVuSans-30" x="127.246094"/>
      </g>
     </g>
    </g>
    <g id="xtick_3">
     <g id="line2d_3">
      <g>
       <use xlink:href="#m3eaf1640cf" x="208.32094" y="307.584" style="stroke: #000000; stroke-width: 0.8"/>
      </g>
     </g>
     <g id="text_3">
      <!-- 1000 -->
      <g transform="translate(195.59594 322.182437)scale(0.1 -0.1)">
       <defs>
        <path id="DejaVuSans-31" d="M 794 531 
L 1825 531 
L 1825 4091 
L 703 3866 
L 703 4441 
L 1819 4666 
L 2450 4666 
L 2450 531 
L 3481 531 
L 3481 0 
L 794 0 
L 794 531 
z
" transform="scale(0.015625)"/>
       </defs>
       <use xlink:href="#DejaVuSans-31"/>
       <use xlink:href="#DejaVuSans-30" x="63.623047"/>
       <use xlink:href="#DejaVuSans-30" x="127.246094"/>
       <use xlink:href="#DejaVuSans-30" x="190.869141"/>
      </g>
     </g>
    </g>
    <g id="xtick_4">
     <g id="line2d_4">
      <g>
       <use xlink:href="#m3eaf1640cf" x="275.565046" y="307.584" style="stroke: #000000; stroke-width: 0.8"/>
      </g>
     </g>
     <g id="text_4">
      <!-- 1500 -->
      <g transform="translate(262.840046 322.182437)scale(0.1 -0.1)">
       <use xlink:href="#DejaVuSans-31"/>
       <use xlink:href="#DejaVuSans-35" x="63.623047"/>
       <use xlink:href="#DejaVuSans-30" x="127.246094"/>
       <use xlink:href="#DejaVuSans-30" x="190.869141"/>
      </g>
     </g>
    </g>
    <g id="xtick_5">
     <g id="line2d_5">
      <g>
       <use xlink:href="#m3eaf1640cf" x="342.809153" y="307.584" style="stroke: #000000; stroke-width: 0.8"/>
      </g>
     </g>
     <g id="text_5">
      <!-- 2000 -->
      <g transform="translate(330.084153 322.182437)scale(0.1 -0.1)">
       <defs>
        <path id="DejaVuSans-32" d="M 1228 531 
L 3431 531 
L 3431 0 
L 469 0 
L 469 531 
Q 828 903 1448 1529 
Q 2069 2156 2228 2338 
Q 2531 2678 2651 2914 
Q 2772 3150 2772 3378 
Q 2772 3750 2511 3984 
Q 2250 4219 1831 4219 
Q 1534 4219 1204 4116 
Q 875 4013 500 3803 
L 500 4441 
Q 881 4594 1212 4672 
Q 1544 4750 1819 4750 
Q 2544 4750 2975 4387 
Q 3406 4025 3406 3419 
Q 3406 3131 3298 2873 
Q 3191 2616 2906 2266 
Q 2828 2175 2409 1742 
Q 1991 1309 1228 531 
z
" transform="scale(0.015625)"/>
       </defs>
       <use xlink:href="#DejaVuSans-32"/>
       <use xlink:href="#DejaVuSans-30" x="63.623047"/>
       <use xlink:href="#DejaVuSans-30" x="127.246094"/>
       <use xlink:href="#DejaVuSans-30" x="190.869141"/>
      </g>
     </g>
    </g>
    <g id="xtick_6">
     <g id="line2d_6">
      <g>
       <use xlink:href="#m3eaf1640cf" x="410.053259" y="307.584" style="stroke: #000000; stroke-width: 0.8"/>
      </g>
     </g>
     <g id="text_6">
      <!-- 2500 -->
      <g transform="translate(397.328259 322.182437)scale(0.1 -0.1)">
       <use xlink:href="#DejaVuSans-32"/>
       <use xlink:href="#DejaVuSans-35" x="63.623047"/>
       <use xlink:href="#DejaVuSans-30" x="127.246094"/>
       <use xlink:href="#DejaVuSans-30" x="190.869141"/>
      </g>
     </g>
    </g>
   </g>
   <g id="matplotlib.axis_2">
    <g id="ytick_1">
     <g id="line2d_7">
      <defs>
       <path id="mae571ff8df" d="M 0 0 
L -3.5 0 
" style="stroke: #000000; stroke-width: 0.8"/>
      </defs>
      <g>
       <use xlink:href="#mae571ff8df" x="57.6" y="278.862026" style="stroke: #000000; stroke-width: 0.8"/>
      </g>
     </g>
     <g id="text_7">
      <!-- 100 -->
      <g transform="translate(31.5125 282.661245)scale(0.1 -0.1)">
       <use xlink:href="#DejaVuSans-31"/>
       <use xlink:href="#DejaVuSans-30" x="63.623047"/>
       <use xlink:href="#DejaVuSans-30" x="127.246094"/>
      </g>
     </g>
    </g>
    <g id="ytick_2">
     <g id="line2d_8">
      <g>
       <use xlink:href="#mae571ff8df" x="57.6" y="231.389629" style="stroke: #000000; stroke-width: 0.8"/>
      </g>
     </g>
     <g id="text_8">
      <!-- 200 -->
      <g transform="translate(31.5125 235.188848)scale(0.1 -0.1)">
       <use xlink:href="#DejaVuSans-32"/>
       <use xlink:href="#DejaVuSans-30" x="63.623047"/>
       <use xlink:href="#DejaVuSans-30" x="127.246094"/>
      </g>
     </g>
    </g>
    <g id="ytick_3">
     <g id="line2d_9">
      <g>
       <use xlink:href="#mae571ff8df" x="57.6" y="183.917232" style="stroke: #000000; stroke-width: 0.8"/>
      </g>
     </g>
     <g id="text_9">
      <!-- 300 -->
      <g transform="translate(31.5125 187.716451)scale(0.1 -0.1)">
       <defs>
        <path id="DejaVuSans-33" d="M 2597 2516 
Q 3050 2419 3304 2112 
Q 3559 1806 3559 1356 
Q 3559 666 3084 287 
Q 2609 -91 1734 -91 
Q 1441 -91 1130 -33 
Q 819 25 488 141 
L 488 750 
Q 750 597 1062 519 
Q 1375 441 1716 441 
Q 2309 441 2620 675 
Q 2931 909 2931 1356 
Q 2931 1769 2642 2001 
Q 2353 2234 1838 2234 
L 1294 2234 
L 1294 2753 
L 1863 2753 
Q 2328 2753 2575 2939 
Q 2822 3125 2822 3475 
Q 2822 3834 2567 4026 
Q 2313 4219 1838 4219 
Q 1578 4219 1281 4162 
Q 984 4106 628 3988 
L 628 4550 
Q 988 4650 1302 4700 
Q 1616 4750 1894 4750 
Q 2613 4750 3031 4423 
Q 3450 4097 3450 3541 
Q 3450 3153 3228 2886 
Q 3006 2619 2597 2516 
z
" transform="scale(0.015625)"/>
       </defs>
       <use xlink:href="#DejaVuSans-33"/>
       <use xlink:href="#DejaVuSans-30" x="63.623047"/>
       <use xlink:href="#DejaVuSans-30" x="127.246094"/>
      </g>
     </g>
    </g>
    <g id="ytick_4">
     <g id="line2d_10">
      <g>
       <use xlink:href="#mae571ff8df" x="57.6" y="136.444836" style="stroke: #000000; stroke-width: 0.8"/>
      </g>
     </g>
     <g id="text_10">
      <!-- 400 -->
      <g transform="translate(31.5125 140.244054)scale(0.1 -0.1)">
       <defs>
        <path id="DejaVuSans-34" d="M 2419 4116 
L 825 1625 
L 2419 1625 
L 2419 4116 
z
M 2253 4666 
L 3047 4666 
L 3047 1625 
L 3713 1625 
L 3713 1100 
L 3047 1100 
L 3047 0 
L 2419 0 
L 2419 1100 
L 313 1100 
L 313 1709 
L 2253 4666 
z
" transform="scale(0.015625)"/>
       </defs>
       <use xlink:href="#DejaVuSans-34"/>
       <use xlink:href="#DejaVuSans-30" x="63.623047"/>
       <use xlink:href="#DejaVuSans-30" x="127.246094"/>
      </g>
     </g>
    </g>
    <g id="ytick_5">
     <g id="line2d_11">
      <g>
       <use xlink:href="#mae571ff8df" x="57.6" y="88.972439" style="stroke: #000000; stroke-width: 0.8"/>
      </g>
     </g>
     <g id="text_11">
      <!-- 500 -->
      <g transform="translate(31.5125 92.771658)scale(0.1 -0.1)">
       <use xlink:href="#DejaVuSans-35"/>
       <use xlink:href="#DejaVuSans-30" x="63.623047"/>
       <use xlink:href="#DejaVuSans-30" x="127.246094"/>
      </g>
     </g>
    </g>
    <g id="ytick_6">
     <g id="line2d_12">
      <g>
       <use xlink:href="#mae571ff8df" x="57.6" y="41.500042" style="stroke: #000000; stroke-width: 0.8"/>
      </g>
     </g>
     <g id="text_12">
      <!-- 600 -->
      <g transform="translate(31.5125 45.299261)scale(0.1 -0.1)">
       <defs>
        <path id="DejaVuSans-36" d="M 2113 2584 
Q 1688 2584 1439 2293 
Q 1191 2003 1191 1497 
Q 1191 994 1439 701 
Q 1688 409 2113 409 
Q 2538 409 2786 701 
Q 3034 994 3034 1497 
Q 3034 2003 2786 2293 
Q 2538 2584 2113 2584 
z
M 3366 4563 
L 3366 3988 
Q 3128 4100 2886 4159 
Q 2644 4219 2406 4219 
Q 1781 4219 1451 3797 
Q 1122 3375 1075 2522 
Q 1259 2794 1537 2939 
Q 1816 3084 2150 3084 
Q 2853 3084 3261 2657 
Q 3669 2231 3669 1497 
Q 3669 778 3244 343 
Q 2819 -91 2113 -91 
Q 1303 -91 875 529 
Q 447 1150 447 2328 
Q 447 3434 972 4092 
Q 1497 4750 2381 4750 
Q 2619 4750 2861 4703 
Q 3103 4656 3366 4563 
z
" transform="scale(0.015625)"/>
       </defs>
       <use xlink:href="#DejaVuSans-36"/>
       <use xlink:href="#DejaVuSans-30" x="63.623047"/>
       <use xlink:href="#DejaVuSans-30" x="127.246094"/>
      </g>
     </g>
    </g>
   </g>
   <g id="line2d_13">
    <path d="M 73.832727 281.911653 
L 74.101704 281.366195 
L 74.236192 280.263411 
L 74.37068 281.220454 
L 74.505168 280.731489 
L 74.639657 281.329166 
L 74.774145 274.903303 
L 74.908633 247.979808 
L 75.177609 246.497245 
L 75.312098 247.048874 
L 75.446586 247.101093 
L 75.581074 247.961768 
L 75.715562 247.210755 
L 75.85005 247.188917 
L 76.253515 242.238496 
L 76.522492 276.057357 
L 76.65698 276.368301 
L 76.925956 274.673536 
L 77.060444 265.879749 
L 77.194933 268.107629 
L 77.463909 268.170767 
L 77.598397 269.744003 
L 77.732885 264.455103 
L 77.867374 251.141944 
L 78.405327 103.753919 
L 78.674303 102.838651 
L 78.808791 109.926755 
L 78.943279 105.157678 
L 79.481232 157.486501 
L 79.750209 227.369192 
L 80.019185 261.847444 
L 80.153673 263.956643 
L 80.288161 260.148882 
L 80.42265 270.471754 
L 80.557138 270.04023 
L 80.826114 272.530158 
L 80.960603 270.007949 
L 81.095091 259.766729 
L 81.364067 167.602394 
L 81.498555 179.816567 
L 81.767532 160.54847 
L 82.036508 168.494875 
L 82.170996 165.415815 
L 82.305485 159.48319 
L 83.112414 259.292005 
L 83.650367 285.291212 
L 83.784855 285.311626 
L 83.919343 286.829318 
L 84.053831 287.020157 
L 84.18832 284.938018 
L 84.322808 277.764464 
L 84.726273 188.268077 
L 84.860761 179.66418 
L 84.995249 183.731615 
L 85.129737 168.954882 
L 85.264225 177.436301 
L 85.398714 178.178294 
L 85.66769 186.415705 
L 85.802178 195.123566 
L 86.340131 261.402628 
L 86.474619 263.401216 
L 86.609107 268.276631 
L 86.878084 285.670517 
L 87.012572 287.905517 
L 87.14706 287.581281 
L 87.281549 289.06147 
L 87.416037 288.965101 
L 87.550525 288.159495 
L 87.819501 260.850998 
L 87.95399 260.995789 
L 88.088478 255.349897 
L 88.222966 256.799229 
L 88.357454 256.046792 
L 88.491942 252.712331 
L 88.626431 255.526969 
L 88.760919 248.582707 
L 88.895407 251.439596 
L 89.029895 251.438172 
L 89.164384 253.980793 
L 89.43336 275.130221 
L 89.567848 276.781785 
L 89.702336 276.287123 
L 89.836825 277.339586 
L 89.971313 262.297957 
L 90.105801 263.006245 
L 90.240289 264.539604 
L 90.374777 264.310787 
L 90.509266 265.537948 
L 90.643754 265.708374 
L 90.778242 267.792887 
L 90.91273 264.592773 
L 91.047218 254.724686 
L 91.181707 253.562087 
L 91.316195 246.680013 
L 91.450683 251.083078 
L 91.585171 249.131013 
L 91.71966 250.618798 
L 91.854148 250.843343 
L 92.123124 253.805145 
L 92.257612 253.236426 
L 92.526589 258.792121 
L 92.795565 265.342837 
L 92.930053 266.291335 
L 93.064542 265.158644 
L 93.19903 275.106959 
L 93.468006 275.230862 
L 93.602495 276.284275 
L 93.736983 275.058537 
L 93.871471 272.55247 
L 94.005959 267.368484 
L 94.6784 160.833779 
L 94.812888 156.465369 
L 95.081865 168.247544 
L 95.216353 163.064982 
L 95.350841 151.87194 
L 96.023282 263.725927 
L 96.157771 264.45083 
L 96.426747 268.353061 
L 96.561235 268.021704 
L 96.695723 268.098609 
L 96.830212 269.969496 
L 96.9647 269.33574 
L 97.099188 267.917265 
L 97.233676 259.502782 
L 97.368164 242.05003 
L 97.502653 201.285009 
L 97.637141 194.233459 
L 97.771629 178.857624 
L 97.906117 187.200898 
L 98.040606 180.529602 
L 98.175094 181.235042 
L 98.309582 175.94899 
L 98.44407 177.581091 
L 98.713047 188.879522 
L 98.982023 230.565034 
L 99.250999 265.198521 
L 99.385488 269.856037 
L 99.519976 270.605627 
L 99.654464 280.350285 
L 99.788952 280.362628 
L 99.923441 279.367607 
L 100.192417 280.598091 
L 100.326905 280.67832 
L 100.461393 280.027473 
L 100.595882 280.430989 
L 100.73037 281.254635 
L 100.864858 279.725549 
L 100.999346 280.874381 
L 101.133834 279.97193 
L 101.268323 277.770161 
L 101.402811 270.787921 
L 101.537299 275.033852 
L 101.806276 264.711454 
L 101.940764 266.859105 
L 102.075252 266.711466 
L 102.20974 267.355666 
L 102.344228 269.719792 
L 102.478717 275.502404 
L 102.613205 273.661425 
L 102.747693 279.296873 
L 102.882181 265.921525 
L 103.016669 265.950009 
L 103.151158 270.826373 
L 103.285646 270.608475 
L 103.554622 266.453216 
L 103.68911 262.290362 
L 103.823599 244.971007 
L 104.092575 183.083142 
L 104.227063 161.731008 
L 104.361552 168.851867 
L 104.630528 144.129192 
L 105.033993 159.353115 
L 105.168481 170.067161 
L 105.706434 252.624032 
L 105.840922 252.502503 
L 105.97541 261.148176 
L 106.109898 277.480104 
L 106.378875 280.649836 
L 106.513363 280.636069 
L 106.647851 282.779923 
L 106.782339 282.513128 
L 106.916828 283.61781 
L 107.320292 246.275548 
L 107.45478 253.296241 
L 107.589269 250.777831 
L 107.723757 250.869927 
L 108.26171 245.837853 
L 108.396198 242.451647 
L 108.530686 244.697566 
L 108.934151 276.114323 
L 109.068639 277.620148 
L 109.203127 276.559615 
L 109.337615 272.091513 
L 109.606592 273.630568 
L 109.875568 274.676385 
L 110.144545 275.718878 
L 110.413521 274.488869 
L 110.548009 274.354996 
L 110.951474 270.330761 
L 111.085962 271.496683 
L 111.22045 271.151559 
L 111.623915 265.393157 
L 111.758403 265.897789 
L 112.02738 269.654754 
L 112.430844 271.241757 
L 112.565333 261.067947 
L 112.834309 265.239822 
L 112.968797 265.759644 
L 113.103285 267.258348 
L 113.237774 267.43542 
L 113.50675 270.034059 
L 113.641238 270.85818 
L 114.313679 259.706439 
L 114.448168 259.348022 
L 114.582656 257.876853 
L 114.98612 247.126729 
L 115.524073 258.106144 
L 115.658561 258.652077 
L 115.927538 260.860968 
L 116.062026 259.586809 
L 116.196514 265.63764 
L 116.331002 265.223681 
L 116.465491 265.829903 
L 116.599979 256.149807 
L 117.137932 78.922058 
L 117.406908 64.339962 
L 117.810373 80.744523 
L 118.213837 147.397192 
L 118.482814 209.22809 
L 118.75179 243.379732 
L 118.886279 244.901223 
L 119.289743 252.830062 
L 119.424231 254.236669 
L 119.55872 256.985321 
L 119.693208 257.299588 
L 119.827696 247.761909 
L 120.365649 91.675042 
L 120.634625 73.25955 
L 120.769114 76.921096 
L 120.903602 70.553624 
L 121.03809 71.870983 
L 121.441555 134.788049 
L 121.710531 201.077554 
L 121.845019 229.029301 
L 122.248484 239.905228 
L 122.51746 255.295304 
L 122.651948 255.453387 
L 122.786437 257.178059 
L 122.920925 255.848357 
L 123.055413 247.753839 
L 123.727854 60.415419 
L 123.862342 53.568 
L 124.534783 107.26118 
L 125.072736 247.060742 
L 125.207225 252.18966 
L 125.341713 252.649192 
L 125.476201 252.603144 
L 125.745177 266.092426 
L 125.879666 267.517547 
L 126.014154 267.745415 
L 126.28313 254.403298 
L 126.821083 92.771655 
L 126.955571 74.569314 
L 127.09006 81.113858 
L 127.359036 105.452481 
L 127.493524 107.875472 
L 127.762501 126.222604 
L 127.896989 148.840353 
L 128.300453 245.456175 
L 128.434942 251.211254 
L 128.56943 249.398757 
L 128.703918 256.839106 
L 128.838406 257.557364 
L 129.241871 264.196378 
L 129.510847 243.653173 
L 130.0488 83.270054 
L 130.183288 74.235108 
L 130.317777 86.057159 
L 130.452265 114.647885 
L 130.586753 113.736889 
L 130.721241 110.119018 
L 130.855729 116.457532 
L 131.124706 169.300007 
L 131.393682 234.41457 
L 131.662659 257.329021 
L 131.931635 257.134385 
L 132.066123 256.953515 
L 132.3351 268.134214 
L 132.469588 267.987049 
L 132.604076 268.085317 
L 132.738564 268.044016 
L 133.007541 256.249024 
L 133.276517 245.873932 
L 133.679982 240.341024 
L 133.81447 239.168456 
L 133.948958 234.110747 
L 134.486911 243.907625 
L 134.755888 250.936863 
L 134.890376 250.822929 
L 135.697305 264.949765 
L 135.831793 269.661401 
L 135.966282 270.265724 
L 136.10077 268.299418 
L 136.235258 269.790525 
L 136.369746 269.518509 
L 136.504234 265.254063 
L 136.638723 265.096455 
L 136.907699 263.177621 
L 137.311164 252.383822 
L 137.445652 252.889403 
L 137.58014 250.22905 
L 137.983605 256.986271 
L 138.118093 256.091891 
L 138.252581 257.911508 
L 138.387069 262.366317 
L 138.521558 261.143428 
L 138.656046 261.342812 
L 138.925022 265.99938 
L 139.193999 249.889622 
L 139.731951 81.431449 
L 139.86644 72.587816 
L 140.269904 98.383841 
L 140.538881 122.61043 
L 140.673369 129.642991 
L 140.807857 143.885184 
L 141.076834 223.336886 
L 141.480298 256.253772 
L 142.018251 264.623155 
L 142.152739 264.163148 
L 142.421716 240.621586 
L 142.959669 91.347958 
L 143.094157 83.992584 
L 143.228645 83.508841 
L 143.363133 93.650843 
L 143.497621 84.452592 
L 143.63211 89.53736 
L 144.573527 257.491377 
L 144.708015 260.952589 
L 144.842504 261.126813 
L 145.11148 263.350895 
L 145.245968 265.476709 
L 145.380456 261.432061 
L 145.783921 200.763762 
L 146.052897 109.818518 
L 146.187386 90.853295 
L 146.456362 106.042088 
L 146.59085 117.272159 
L 146.725339 111.627691 
L 146.859827 118.98164 
L 146.994315 113.945293 
L 147.128803 126.701126 
L 147.532268 233.109079 
L 147.801244 258.917448 
L 147.935732 259.118256 
L 148.204709 264.348765 
L 148.339197 264.327402 
L 148.473685 264.827286 
L 148.742662 263.781944 
L 148.87715 246.229026 
L 149.280615 118.846818 
L 149.415103 114.837299 
L 149.549591 105.821342 
L 149.684079 107.067967 
L 150.087544 139.542409 
L 150.222032 131.905525 
L 150.35652 137.385738 
L 150.894473 251.392598 
L 151.028961 260.498753 
L 151.16345 259.547881 
L 151.835891 267.664712 
L 151.970379 266.401471 
L 152.104867 245.601915 
L 152.508332 112.880013 
L 152.64282 115.966668 
L 152.911796 104.197786 
L 153.046285 118.246292 
L 153.180773 116.756134 
L 153.449749 150.983732 
L 153.718726 191.639092 
L 153.987702 247.860652 
L 154.12219 264.790258 
L 154.256678 266.159362 
L 154.525655 269.994182 
L 154.794631 271.686098 
L 155.063608 274.609923 
L 155.198096 276.240125 
L 155.332584 275.601147 
L 155.467072 271.251251 
L 155.601561 260.849574 
L 155.736049 259.994596 
L 155.870537 257.149576 
L 156.005025 259.273491 
L 156.274002 257.389786 
L 156.40849 257.922426 
L 156.542978 259.167153 
L 156.677466 257.978918 
L 157.215419 265.931494 
L 157.349907 267.923436 
L 157.484396 266.938384 
L 157.618884 267.703164 
L 157.88786 270.856756 
L 158.022348 271.334328 
L 158.291325 274.312271 
L 158.560301 278.563424 
L 158.694789 277.008229 
L 158.829278 277.965747 
L 158.963766 277.572201 
L 159.232742 274.877193 
L 159.367231 275.15728 
L 159.501719 273.18765 
L 160.039672 259.203706 
L 160.308648 259.461007 
L 160.443136 265.139655 
L 160.577624 264.858143 
L 160.712113 262.916522 
L 160.846601 263.613417 
L 160.981089 265.095031 
L 161.250066 268.825412 
L 161.519042 269.770112 
L 161.788018 253.124391 
L 162.460459 83.693034 
L 162.594948 83.358828 
L 162.729436 81.90997 
L 162.998412 101.362734 
L 163.132901 110.24482 
L 163.401877 151.220144 
L 163.670853 221.451283 
L 164.074318 255.300526 
L 164.208806 256.425622 
L 164.477783 268.991565 
L 164.612271 271.336227 
L 164.746759 266.667317 
L 165.015735 249.281975 
L 165.4192 120.448062 
L 165.553688 123.028661 
L 165.822665 109.234607 
L 165.957153 114.452773 
L 166.091641 111.389854 
L 166.360618 100.017367 
L 166.495106 106.166941 
L 166.89857 220.558327 
L 167.033059 227.480277 
L 167.302035 245.738636 
L 167.974476 264.071051 
L 168.108964 258.437977 
L 168.243453 244.526191 
L 168.377941 206.722022 
L 168.646917 105.994141 
L 168.781405 107.267826 
L 168.915894 102.774563 
L 169.050382 104.065338 
L 169.18487 107.833697 
L 169.319358 92.615945 
L 169.453847 95.07644 
L 169.857311 148.069401 
L 170.126288 225.706234 
L 170.395264 256.300769 
L 170.529752 257.174261 
L 170.66424 260.586577 
L 170.798729 260.774568 
L 171.067705 263.085049 
L 171.202193 265.899213 
L 171.47117 244.267941 
L 172.009123 110.027396 
L 172.143611 108.462231 
L 172.412587 96.789244 
L 172.95054 129.057181 
L 173.622981 258.256157 
L 173.757469 262.216779 
L 173.891958 275.50098 
L 174.026446 274.578591 
L 174.160934 274.534917 
L 174.42991 276.054983 
L 174.698887 261.369872 
L 174.833375 244.368582 
L 175.102351 176.337315 
L 175.371328 143.202056 
L 175.505816 140.322856 
L 175.640304 150.416911 
L 175.774792 150.108815 
L 175.909281 151.507827 
L 176.043769 156.280702 
L 176.178257 155.97498 
L 176.312745 170.346773 
L 176.581722 237.533032 
L 176.850698 264.469345 
L 176.985186 261.99271 
L 177.254163 266.694376 
L 177.388651 266.651176 
L 177.792116 273.164389 
L 177.926604 274.048799 
L 178.19558 263.406912 
L 178.330069 262.969692 
L 178.599045 255.454811 
L 178.733533 254.893213 
L 178.868021 257.185655 
L 179.136998 253.699282 
L 179.271486 254.291263 
L 179.540462 251.822223 
L 179.809439 259.278238 
L 179.943927 266.500214 
L 180.212904 264.611287 
L 180.48188 274.413387 
L 180.616368 274.427154 
L 180.750856 274.796964 
L 180.885345 275.622984 
L 181.019833 275.708909 
L 181.692274 263.47907 
L 181.826762 264.766522 
L 181.96125 258.821554 
L 182.095738 260.592274 
L 182.364715 265.995582 
L 182.499203 267.265469 
L 182.633691 270.39295 
L 182.902668 269.580223 
L 183.171644 275.671881 
L 183.306132 277.078963 
L 183.440621 275.976179 
L 183.575109 273.688959 
L 183.844085 285.34723 
L 183.978573 286.292405 
L 184.113062 284.027972 
L 184.382038 272.71435 
L 184.919991 181.567823 
L 185.054479 185.557878 
L 185.188967 178.530065 
L 185.457944 182.365834 
L 185.592432 183.855518 
L 185.995897 221.371054 
L 186.264873 251.774276 
L 186.53385 267.431147 
L 186.802826 277.620148 
L 187.071802 288.050783 
L 187.206291 286.907648 
L 187.340779 288.034642 
L 187.475267 284.877253 
L 187.609755 276.929425 
L 188.01322 201.500059 
L 188.147708 185.204209 
L 188.282196 185.421633 
L 188.416684 184.469336 
L 188.551173 187.760598 
L 188.685661 194.121899 
L 188.820149 189.737823 
L 188.954637 194.14516 
L 189.089126 202.465172 
L 189.627078 264.077223 
L 189.761567 266.649752 
L 189.896055 271.852726 
L 190.030543 269.432109 
L 190.299519 271.252201 
L 190.434008 270.088177 
L 190.971961 273.491474 
L 191.106449 270.060643 
L 191.240937 269.578324 
L 191.375425 270.01412 
L 191.509913 265.612955 
L 191.644402 267.152484 
L 191.913378 265.894466 
L 192.182354 260.293198 
L 192.316843 260.639746 
L 192.451331 260.144609 
L 192.585819 261.457221 
L 192.720307 267.191412 
L 192.989284 268.44136 
L 193.392748 265.770563 
L 193.661725 268.635047 
L 193.796213 269.166263 
L 194.065189 261.327621 
L 194.603142 158.215202 
L 194.73763 153.333615 
L 194.872119 143.442742 
L 195.006607 145.008856 
L 195.141095 149.723814 
L 195.275583 142.37034 
L 195.54456 155.682075 
L 195.948024 249.134811 
L 196.217001 259.408312 
L 196.351489 261.323349 
L 196.485977 270.739024 
L 196.620465 270.090551 
L 196.889442 270.644079 
L 197.02393 271.765852 
L 197.158418 270.046402 
L 197.292907 263.762955 
L 197.830859 195.46062 
L 197.965348 197.758284 
L 198.099836 194.460377 
L 198.234324 198.837807 
L 198.5033 185.592533 
L 198.772277 199.309682 
L 199.31023 271.411233 
L 199.713694 280.468966 
L 199.848183 279.307317 
L 200.117159 280.030796 
L 200.251647 278.258177 
L 200.386135 272.514017 
L 200.520624 272.11335 
L 200.655112 259.233139 
L 200.7896 212.293857 
L 200.924088 210.335621 
L 201.058576 198.721974 
L 201.193065 198.365931 
L 201.327553 195.697033 
L 201.462041 197.856552 
L 201.731018 186.127547 
L 201.865506 187.48051 
L 202.134482 210.039393 
L 202.403459 263.190913 
L 202.806923 272.930825 
L 203.0759 264.510171 
L 203.210388 268.81117 
L 203.344876 268.936497 
L 203.748341 259.616241 
L 203.882829 242.333441 
L 204.151805 180.744652 
L 204.420782 164.371422 
L 204.55527 158.776326 
L 204.689758 162.192439 
L 204.824246 155.731921 
L 204.958735 171.659385 
L 205.093223 171.904342 
L 205.765664 259.038977 
L 205.900152 259.546932 
L 206.03464 263.32431 
L 206.169129 278.084428 
L 206.303617 278.562475 
L 206.572593 282.477524 
L 206.84157 283.28408 
L 207.110546 273.951956 
L 207.379522 264.823963 
L 207.514011 263.951421 
L 207.917475 272.020779 
L 208.051964 271.775821 
L 208.32094 265.452973 
L 208.589916 267.045197 
L 208.858893 275.048568 
L 208.993381 278.680207 
L 209.127869 279.260319 
L 209.262357 278.719609 
L 209.396846 272.899967 
L 209.531334 273.990883 
L 209.80031 273.578348 
L 209.934799 274.5634 
L 210.203775 262.455091 
L 211.010704 108.257151 
L 211.279681 133.726091 
L 211.683145 166.62921 
L 212.221098 253.74533 
L 212.355586 256.194431 
L 212.759051 271.344297 
L 212.893539 271.138267 
L 213.028027 271.237959 
L 213.162516 273.871253 
L 213.431492 256.272761 
L 213.56598 218.418746 
L 213.834957 134.997402 
L 213.969445 139.555702 
L 214.103933 138.470957 
L 214.238421 141.414721 
L 214.910862 179.50942 
L 215.448815 259.330932 
L 215.583303 264.268062 
L 215.717792 264.882354 
L 216.121256 269.120215 
L 216.255745 270.072037 
L 216.390233 272.44898 
L 216.524721 268.463672 
L 216.659209 260.988194 
L 217.062674 148.555519 
L 217.197162 150.456788 
L 217.33165 150.537017 
L 217.466138 161.937038 
L 217.600627 160.660505 
L 217.735115 148.872634 
L 217.869603 154.07371 
L 218.273068 196.026491 
L 218.542044 254.514858 
L 218.811021 271.218495 
L 218.945509 263.841285 
L 219.483462 274.501211 
L 219.61795 276.289497 
L 219.886926 262.616022 
L 220.290391 161.599034 
L 220.693856 150.003901 
L 220.828344 160.608285 
L 220.962832 156.709378 
L 221.231808 183.711677 
L 221.500785 197.500034 
L 221.769761 254.379087 
L 222.038738 269.924872 
L 222.173226 269.176233 
L 222.307714 270.394374 
L 222.576691 276.411501 
L 222.845667 279.035775 
L 222.980155 277.372817 
L 223.114643 279.235634 
L 223.38362 258.797817 
L 223.518108 262.641183 
L 223.652596 262.485473 
L 223.921573 255.562099 
L 224.190549 254.893213 
L 224.325037 257.368898 
L 224.459525 256.743687 
L 224.728502 252.905069 
L 225.131967 260.136064 
L 225.266455 258.657774 
L 225.535431 260.122297 
L 225.669919 258.816332 
L 226.073384 268.533456 
L 226.34236 271.548903 
L 226.476849 271.47722 
L 226.745825 268.346415 
L 226.880313 270.618919 
L 227.014802 270.861028 
L 227.14929 270.565275 
L 227.283778 269.152022 
L 227.418266 270.821626 
L 227.552754 270.949801 
L 227.687243 270.781274 
L 227.956219 269.677066 
L 228.090707 275.468699 
L 228.225195 275.507626 
L 228.359684 276.604713 
L 228.494172 275.835186 
L 228.62866 276.802198 
L 228.763148 276.688265 
L 228.897637 274.40959 
L 229.301101 275.309666 
L 229.435589 269.121639 
L 229.570078 255.096395 
L 230.242519 94.3278 
L 230.377007 79.552016 
L 230.511495 109.408356 
L 230.780471 117.326752 
L 231.049448 144.682721 
L 231.587401 252.946844 
L 231.856377 264.123745 
L 232.125354 268.918458 
L 232.39433 273.556036 
L 232.528818 272.745682 
L 232.797795 255.712112 
L 232.932283 219.59084 
L 233.201259 132.791835 
L 233.335748 124.649844 
L 233.470236 134.903882 
L 233.604724 135.125103 
L 233.739212 147.864321 
L 233.8737 133.188229 
L 234.008189 139.883261 
L 234.815118 263.544582 
L 234.949606 263.279212 
L 235.218583 269.158668 
L 235.622047 276.864387 
L 235.756535 276.269083 
L 236.025512 263.665162 
L 236.563465 128.653666 
L 236.832441 116.492662 
L 237.63937 199.838999 
L 237.908347 257.670348 
L 238.177323 265.725464 
L 238.849764 280.581476 
L 238.984252 279.760204 
L 239.118741 275.977603 
L 239.253229 262.135127 
L 239.791182 127.886987 
L 240.194646 145.548142 
L 240.463623 164.595017 
L 240.732599 177.995526 
L 241.270552 255.149089 
L 241.674017 261.000062 
L 241.942993 273.889292 
L 242.077481 280.361679 
L 242.21197 279.738366 
L 242.480946 261.845545 
L 242.884411 150.572621 
L 243.018899 158.411738 
L 243.153387 156.174364 
L 243.287875 145.241945 
L 243.422363 153.189299 
L 243.556852 150.389377 
L 243.825828 166.960092 
L 244.229293 238.647684 
L 244.498269 260.939772 
L 244.767246 266.190694 
L 245.17071 274.015094 
L 245.305198 274.876243 
L 245.439687 274.581915 
L 245.574175 273.358551 
L 245.708663 261.951883 
L 245.843151 267.376554 
L 246.112128 264.40763 
L 246.381104 259.251179 
L 246.515592 259.217948 
L 247.188033 269.415494 
L 247.322522 269.819009 
L 247.45701 270.682057 
L 247.591498 270.329337 
L 247.725986 273.478181 
L 247.860475 272.046889 
L 248.129451 273.364248 
L 248.263939 272.485059 
L 248.398427 273.164389 
L 248.532916 273.012002 
L 248.667404 274.947927 
L 248.801892 274.849659 
L 249.205357 276.381118 
L 249.339845 276.496951 
L 249.608821 275.5532 
L 249.743309 275.684224 
L 249.877798 275.385622 
L 250.550239 272.235354 
L 250.819215 272.533955 
L 250.953703 273.308705 
L 251.088192 272.178387 
L 251.357168 273.429759 
L 251.491656 282.282412 
L 251.626144 281.795345 
L 251.760633 282.223546 
L 251.895121 282.064514 
L 252.164097 269.884046 
L 252.70205 143.139868 
L 252.836538 162.771128 
L 252.971027 159.345045 
L 253.240003 172.185854 
L 253.374491 173.531696 
L 253.508979 170.621638 
L 253.777956 203.268405 
L 254.046932 254.354876 
L 254.315909 275.568866 
L 254.719373 283.879858 
L 254.853862 283.641072 
L 255.122838 285.365269 
L 255.391814 264.71003 
L 255.660791 171.97745 
L 255.795279 175.406381 
L 256.198744 159.816921 
L 256.333232 163.470871 
L 256.46772 160.820487 
L 256.602208 162.010145 
L 257.409138 256.584654 
L 257.812602 264.016458 
L 258.081579 279.142113 
L 258.216067 280.200273 
L 258.350555 279.474894 
L 258.619532 265.379865 
L 258.888508 176.756021 
L 259.022996 177.620494 
L 259.157484 168.615929 
L 259.291973 168.043412 
L 259.426461 152.641468 
L 259.695437 166.268419 
L 259.829925 155.196432 
L 259.964414 164.220935 
L 260.771343 259.638553 
L 261.040319 261.865009 
L 261.309296 269.323872 
L 261.443784 272.520663 
L 261.71276 269.621998 
L 261.847249 257.297215 
L 262.116225 169.610951 
L 262.250713 173.755766 
L 262.654178 147.467926 
L 262.788666 154.729304 
L 262.923154 149.984913 
L 263.326619 184.94501 
L 263.461107 195.784382 
L 263.864572 244.297374 
L 264.268036 262.243364 
L 264.402525 261.489977 
L 264.671501 264.901343 
L 264.805989 264.776016 
L 264.940478 263.830366 
L 265.074966 256.303143 
L 265.209454 237.289973 
L 265.612919 123.611623 
L 265.881895 105.597272 
L 266.016383 115.047602 
L 266.150871 114.917528 
L 266.28536 114.471762 
L 266.419848 119.078009 
L 266.688824 156.150627 
L 266.957801 234.536099 
L 267.226777 251.111562 
L 267.361265 249.696884 
L 267.495754 265.976593 
L 267.630242 265.662326 
L 267.76473 267.521345 
L 267.899218 267.830865 
L 268.168195 274.316544 
L 268.302683 275.196682 
L 268.437171 272.648839 
L 268.706147 275.171522 
L 268.975124 271.695593 
L 269.2441 269.820908 
L 269.916541 255.40544 
L 270.320006 257.284872 
L 270.588982 262.145571 
L 270.723471 276.167967 
L 270.857959 277.202391 
L 270.992447 275.732171 
L 271.126935 276.610885 
L 271.261424 276.640318 
L 271.395912 276.455175 
L 271.799376 279.218069 
L 271.933865 277.839945 
L 272.068353 278.19314 
L 272.202841 277.551788 
L 272.337329 277.786776 
L 272.471817 276.947939 
L 272.606306 274.793641 
L 272.740794 276.069699 
L 272.875282 275.748786 
L 273.00977 275.075153 
L 273.144258 272.752803 
L 273.278747 272.653586 
L 273.547723 275.616813 
L 273.682211 275.829964 
L 273.8167 276.510243 
L 273.951188 275.652892 
L 274.085676 286.250155 
L 274.354652 287.87466 
L 274.489141 286.310445 
L 274.758117 271.661413 
L 275.29607 165.654127 
L 275.565046 153.47271 
L 275.699535 153.808339 
L 275.834023 171.681222 
L 275.968511 173.952776 
L 276.102999 184.063447 
L 276.77544 263.024285 
L 277.447881 280.347437 
L 277.58237 283.728896 
L 277.716858 283.339622 
L 277.851346 278.960768 
L 277.985834 269.021473 
L 278.389299 208.781375 
L 278.523787 189.38178 
L 278.658275 187.392212 
L 278.792763 177.91862 
L 278.927252 189.995598 
L 279.06174 184.200642 
L 279.196228 186.282307 
L 279.330716 193.944352 
L 280.137646 273.351905 
L 280.272134 275.727898 
L 280.406622 267.407886 
L 280.54111 267.12495 
L 280.810087 268.290872 
L 280.944575 267.670408 
L 281.213551 259.785718 
L 281.348039 230.960953 
L 281.482528 160.799125 
L 281.617016 150.634335 
L 281.751504 127.335357 
L 281.885992 128.48229 
L 282.154969 141.934543 
L 282.289457 123.895033 
L 282.423945 127.965791 
L 282.558433 137.037291 
L 282.82741 185.277791 
L 283.096386 253.544047 
L 283.365363 260.146033 
L 283.499851 262.344005 
L 283.634339 261.675594 
L 283.768827 261.686038 
L 283.903316 261.874503 
L 284.037804 263.173823 
L 284.172292 263.302473 
L 284.441268 258.13083 
L 285.113709 143.337828 
L 285.248198 142.266376 
L 285.382686 137.748428 
L 285.517174 146.951426 
L 285.651662 143.863347 
L 285.78615 147.337852 
L 286.055127 200.244888 
L 286.324103 249.612858 
L 286.59308 259.250229 
L 286.727568 259.129175 
L 286.862056 277.987584 
L 286.996544 278.04645 
L 287.131033 277.072791 
L 287.265521 277.675691 
L 287.668985 274.164157 
L 287.803474 275.03765 
L 288.07245 274.166531 
L 288.206938 272.004638 
L 288.341427 271.94957 
L 288.475915 269.613453 
L 288.610403 269.244118 
L 288.744891 268.125194 
L 288.879379 270.940782 
L 289.013868 271.278785 
L 289.148356 268.480762 
L 289.417332 275.60352 
L 289.55182 276.785108 
L 289.820797 276.425268 
L 289.955285 277.211885 
L 290.089773 275.719353 
L 290.224262 277.259358 
L 290.35875 276.356433 
L 290.493238 277.33199 
L 290.627726 275.797208 
L 291.031191 257.900589 
L 291.300167 192.015074 
L 291.434655 186.456056 
L 291.569144 187.060854 
L 291.703632 191.105503 
L 291.972608 178.418505 
L 292.376073 191.438759 
L 293.048514 267.485266 
L 293.183002 268.726194 
L 293.31749 267.579736 
L 293.451979 268.327901 
L 293.586467 267.402664 
L 293.720955 269.866481 
L 293.855443 270.128529 
L 294.258908 246.316849 
L 294.527884 188.593263 
L 294.796861 157.055926 
L 294.931349 141.259486 
L 295.065837 141.126089 
L 295.200325 149.061574 
L 295.334814 143.367735 
L 295.60379 171.296696 
L 295.738278 185.720709 
L 296.141743 255.601976 
L 296.276231 254.716141 
L 296.410719 261.881624 
L 296.545208 279.478218 
L 296.948672 281.631565 
L 297.486625 283.587428 
L 297.621113 283.243728 
L 297.755601 283.23993 
L 298.024578 280.083016 
L 298.159066 279.933478 
L 298.428042 277.802917 
L 298.697019 273.997529 
L 298.831507 272.868161 
L 298.965995 272.726693 
L 299.100484 273.080363 
L 299.36946 276.844449 
L 299.503948 276.340767 
L 299.638436 277.875549 
L 299.772925 268.26951 
L 299.907413 271.652868 
L 300.041901 271.352842 
L 300.176389 272.214466 
L 300.310877 271.93248 
L 300.579854 261.022849 
L 301.252295 127.66529 
L 301.386783 127.733651 
L 301.521271 140.852648 
L 301.65576 133.949212 
L 301.790248 143.311718 
L 302.597177 251.508431 
L 302.731665 253.251617 
L 303.000642 265.590643 
L 303.13513 265.813763 
L 303.269618 266.291335 
L 303.404106 268.737113 
L 303.538595 269.153921 
L 303.807571 252.88608 
L 304.345524 163.607117 
L 304.6145 153.142776 
L 304.748988 161.334613 
L 304.883477 151.814499 
L 305.017965 157.861058 
L 306.093871 264.050638 
L 306.228359 265.055629 
L 306.497335 275.154432 
L 306.766312 276.178411 
L 306.9008 271.496209 
L 307.035288 261.015728 
L 307.304265 169.054574 
L 307.438753 176.275601 
L 307.842217 157.121438 
L 307.976706 164.133111 
L 308.111194 155.761354 
L 308.245682 160.696109 
L 308.649147 206.440986 
L 309.052611 262.49117 
L 309.590564 274.653598 
L 309.994029 276.347413 
L 310.128517 272.814042 
L 310.263005 260.268512 
L 310.531982 168.943964 
L 310.66647 170.088998 
L 310.935446 167.812696 
L 311.069934 158.513803 
L 311.204423 164.933021 
L 311.338911 163.649367 
L 311.473399 156.913509 
L 311.607887 169.976488 
L 311.876864 207.342961 
L 312.14584 249.433412 
L 312.414817 261.172861 
L 312.818281 269.735458 
L 312.952769 269.303933 
L 313.087258 271.179093 
L 313.221746 271.080825 
L 313.356234 272.648839 
L 313.625211 262.151742 
L 313.759699 254.304555 
L 313.894187 257.638541 
L 314.028675 255.123929 
L 314.163163 256.996715 
L 314.297652 254.251861 
L 314.566628 260.778366 
L 314.701116 261.508966 
L 314.970093 266.235792 
L 315.104581 266.198289 
L 315.239069 265.903486 
L 315.508045 268.819715 
L 315.642534 269.353779 
L 315.777022 269.02527 
L 316.180487 271.998467 
L 316.314975 271.561246 
L 316.718439 273.902585 
L 316.852928 274.15039 
L 316.987416 273.301584 
L 317.121904 273.366621 
L 317.256392 272.252919 
L 317.39088 272.39676 
L 317.525369 270.86625 
L 317.659857 271.780568 
L 317.928833 269.274975 
L 318.332298 265.558836 
L 318.466786 266.209683 
L 318.601274 265.709798 
L 318.735763 267.158181 
L 318.870251 266.995351 
L 319.139227 268.10573 
L 319.273715 277.888367 
L 319.67718 279.000645 
L 319.811668 276.435712 
L 319.946157 268.524437 
L 320.349621 147.190213 
L 320.484109 131.126028 
L 320.887574 158.257927 
L 321.022062 162.899303 
L 321.291039 177.602454 
L 321.425527 179.393113 
L 321.560015 197.734548 
L 321.828991 252.964409 
L 321.96348 261.008607 
L 322.097968 261.790952 
L 322.635921 278.401544 
L 322.770409 278.746668 
L 322.904897 278.091074 
L 323.173874 267.715032 
L 323.44285 172.76027 
L 323.577338 173.12011 
L 323.711826 173.320444 
L 323.980803 153.251488 
L 324.249779 156.771566 
L 324.384268 159.523066 
L 324.787732 195.57218 
L 325.056709 249.803222 
L 325.325685 259.02521 
L 325.863638 276.751878 
L 325.998126 278.509781 
L 326.132614 278.574818 
L 326.267103 275.378976 
L 326.401591 266.428056 
L 326.670567 165.608078 
L 326.805055 171.531684 
L 326.939544 172.697606 
L 327.20852 159.542055 
L 327.343008 167.641796 
L 327.611985 163.908092 
L 327.746473 168.741731 
L 328.149937 223.144148 
L 328.418914 253.82366 
L 328.68789 266.565726 
L 328.822379 269.005807 
L 328.956867 278.998272 
L 329.225843 279.940124 
L 329.360331 279.097489 
L 329.629308 266.33406 
L 330.032772 177.797091 
L 330.301749 166.519074 
L 330.570725 157.758043 
L 330.839702 179.494229 
L 330.97419 180.700028 
L 331.108678 183.43064 
L 331.781119 258.906529 
L 332.050096 266.031186 
L 332.184584 276.747605 
L 332.319072 277.698477 
L 332.45356 277.037187 
L 332.588049 278.019391 
L 332.857025 265.479557 
L 333.26049 177.169031 
L 333.394978 179.068402 
L 333.663954 164.238025 
L 333.798442 165.423885 
L 333.932931 169.170407 
L 334.336395 186.937901 
L 334.73986 254.305979 
L 335.143325 269.949083 
L 335.277813 269.751598 
L 335.412301 269.848442 
L 335.546789 270.132327 
L 335.681277 270.027887 
L 335.950254 272.595669 
L 336.084742 270.512581 
L 336.622695 254.139351 
L 336.757183 254.929766 
L 336.891671 253.110624 
L 337.295136 259.433473 
L 337.698601 264.139886 
L 337.833089 263.663263 
L 338.102065 267.740193 
L 338.236553 267.509477 
L 338.371042 268.143233 
L 338.50553 265.820884 
L 339.043483 268.962132 
L 339.446947 271.9415 
L 339.581436 271.462503 
L 339.715924 270.299904 
L 339.850412 270.557679 
L 339.9849 269.78198 
L 340.119388 269.669946 
L 340.253877 269.199019 
L 340.388365 270.667815 
L 340.522853 268.690115 
L 340.657341 269.285419 
L 340.926318 268.968778 
L 341.060806 265.649034 
L 341.329782 270.503561 
L 341.464271 270.402445 
L 341.598759 270.927964 
L 341.733247 272.485533 
L 341.867735 280.263411 
L 342.136712 280.364527 
L 342.2712 281.002556 
L 342.540176 268.378696 
L 342.943641 153.854388 
L 343.212617 170.36956 
L 343.347106 169.639434 
L 343.75057 183.942867 
L 343.885058 185.608199 
L 344.019547 184.949282 
L 344.423011 252.450758 
L 345.22994 277.998978 
L 345.364429 279.076601 
L 345.498917 278.711064 
L 345.633405 274.518301 
L 345.767893 266.479801 
L 346.03687 182.704787 
L 346.171358 186.799281 
L 346.440334 173.311424 
L 346.574823 167.970779 
L 346.843799 174.810128 
L 347.112775 176.668197 
L 347.381752 210.951813 
L 347.650728 249.641341 
L 348.054193 267.500457 
L 348.188681 268.675874 
L 348.323169 277.593563 
L 348.457658 278.436673 
L 348.592146 280.296642 
L 348.726634 280.10248 
L 348.99561 267.269741 
L 349.264587 181.660395 
L 349.399075 183.125867 
L 349.668052 165.668843 
L 349.80254 161.58052 
L 350.206004 180.168812 
L 350.340493 181.341855 
L 351.012934 261.060352 
L 351.147422 263.36751 
L 351.550886 279.934427 
L 351.685375 279.226614 
L 351.954351 279.591202 
L 352.088839 278.202159 
L 352.223328 270.955973 
L 352.492304 177.607201 
L 352.626792 184.729485 
L 352.76128 173.427731 
L 352.895769 172.723241 
L 353.030257 164.494376 
L 353.164745 171.662233 
L 353.299233 169.597659 
L 353.56821 151.928907 
L 354.240651 267.640975 
L 354.375139 268.771768 
L 354.644115 274.599005 
L 354.913092 278.847309 
L 355.182068 279.883157 
L 355.316556 277.495295 
L 355.451045 268.422371 
L 355.854509 195.563161 
L 356.123486 157.460866 
L 356.257974 159.164175 
L 356.392462 167.722024 
L 356.52695 167.09254 
L 356.661439 177.634261 
L 356.795927 176.390484 
L 357.33388 263.357066 
L 357.602856 272.895695 
L 357.737344 274.848235 
L 357.871832 279.07755 
L 358.006321 278.50266 
L 358.140809 278.715811 
L 358.275297 279.451158 
L 358.409785 279.363809 
L 358.678762 278.111962 
L 359.082226 259.75676 
L 359.351203 253.887273 
L 359.485691 247.654147 
L 359.620179 258.322144 
L 359.754667 259.727802 
L 359.889156 259.894904 
L 360.427109 274.096747 
L 360.561597 274.772279 
L 360.965061 278.894307 
L 361.234038 278.854905 
L 361.368526 278.664541 
L 361.503014 279.961961 
L 361.771991 279.557022 
L 361.906479 280.879603 
L 362.040967 280.83213 
L 362.175455 281.205263 
L 362.309944 281.245615 
L 362.57892 277.853712 
L 362.713408 277.804816 
L 362.982385 276.676871 
L 363.116873 275.193359 
L 363.251361 275.092243 
L 363.385849 276.176512 
L 363.520337 275.327706 
L 363.654826 275.268365 
L 364.05829 278.037905 
L 364.192778 252.185387 
L 364.730731 258.405695 
L 364.86522 257.217461 
L 364.999708 245.206945 
L 365.134196 223.184975 
L 365.403172 135.371959 
L 365.672149 105.253097 
L 365.806637 99.366045 
L 366.075613 116.213049 
L 366.34459 113.086992 
L 366.479078 124.452833 
L 367.017031 250.111793 
L 367.151519 255.042751 
L 367.286007 253.317604 
L 367.554984 264.612711 
L 367.689472 265.474335 
L 367.958448 270.345953 
L 368.227425 246.919749 
L 368.496401 151.514473 
L 368.765378 99.930492 
L 369.034354 89.09112 
L 369.168842 93.78614 
L 369.303331 93.344172 
L 369.437819 96.693824 
L 369.572307 94.583676 
L 369.706795 110.601337 
L 370.244748 233.739038 
L 370.782701 277.707022 
L 370.917189 278.010371 
L 371.051677 278.897155 
L 371.186166 278.619917 
L 371.455142 263.880687 
L 371.858607 171.121048 
L 372.127583 202.932301 
L 372.262071 198.893824 
L 372.396559 200.312774 
L 372.665536 189.68323 
L 372.800024 193.457285 
L 373.203489 232.948623 
L 373.472465 255.085001 
L 373.87593 276.16322 
L 374.010418 285.133129 
L 374.144906 284.987864 
L 374.279394 286.187966 
L 374.413883 285.687607 
L 374.682859 269.216109 
L 375.220812 180.296987 
L 375.489788 176.687186 
L 375.624277 176.908882 
L 375.893253 183.409278 
L 376.027741 187.682268 
L 376.565694 254.903182 
L 376.83467 263.745865 
L 376.969159 266.56715 
L 377.103647 278.316093 
L 377.238135 277.228975 
L 377.507112 279.290702 
L 377.6416 277.335314 
L 377.776088 280.855866 
L 378.045064 278.720083 
L 378.179553 269.130184 
L 378.314041 268.507821 
L 378.448529 261.444878 
L 378.583017 262.440374 
L 378.717505 261.527955 
L 378.851994 266.015521 
L 378.986482 265.259285 
L 379.12097 266.162685 
L 379.255458 268.310811 
L 379.389947 268.194978 
L 379.927899 277.400825 
L 380.062388 277.19527 
L 380.196876 277.609704 
L 380.331364 267.752061 
L 380.60034 269.669471 
L 380.869317 271.315814 
L 381.138293 260.475967 
L 381.272782 233.52019 
L 381.541758 159.308491 
L 381.810734 139.248555 
L 381.945223 140.83176 
L 382.214199 147.285632 
L 382.348687 139.336379 
L 382.752152 188.940761 
L 383.021128 256.598896 
L 383.155616 264.486909 
L 383.290105 265.145826 
L 383.424593 266.426631 
L 383.559081 261.522733 
L 383.693569 260.814445 
L 383.962546 261.159094 
L 384.097034 262.343531 
L 384.231522 260.568538 
L 384.36601 261.953782 
L 385.038451 148.342842 
L 385.17294 150.773904 
L 385.307428 165.833572 
L 385.576404 160.217588 
L 386.248845 259.430624 
L 386.921286 277.83947 
L 387.055775 277.028642 
L 387.190263 278.299953 
L 387.324751 277.612552 
L 387.459239 277.773009 
L 387.593727 279.255097 
L 387.728216 278.68353 
L 387.862704 279.994242 
L 387.997192 278.830694 
L 388.13168 280.413424 
L 388.266169 279.434068 
L 388.400657 277.458267 
L 388.535145 277.54704 
L 388.669633 276.887649 
L 388.804121 278.02129 
L 388.93861 275.482466 
L 389.207586 277.612552 
L 389.476562 284.270556 
L 389.611051 283.217143 
L 389.745539 284.029871 
L 389.880027 283.978126 
L 390.014515 269.143477 
L 390.283492 269.391283 
L 390.41798 269.401252 
L 390.552468 269.271177 
L 390.686956 263.797135 
L 390.821445 263.981328 
L 390.955933 255.168078 
L 391.224909 199.255089 
L 391.359397 168.014929 
L 391.493886 164.042439 
L 391.762862 174.689548 
L 391.89735 174.148362 
L 392.031839 166.956294 
L 392.166327 170.639678 
L 392.300815 179.580629 
L 392.569791 239.477501 
L 392.70428 265.651882 
L 392.973256 270.473653 
L 393.107744 271.128298 
L 393.376721 264.102383 
L 393.645697 269.795747 
L 393.780185 266.419511 
L 393.914673 267.798109 
L 394.049162 260.417101 
L 394.721603 146.301055 
L 394.990579 145.233875 
L 395.125067 144.815643 
L 395.259556 156.151577 
L 395.394044 157.017948 
L 395.931997 244.783966 
L 396.200973 258.335911 
L 396.335461 254.615024 
L 396.46995 279.282157 
L 396.604438 279.663835 
L 397.007902 282.685927 
L 397.276879 269.684662 
L 397.545855 196.289014 
L 397.680343 191.123542 
L 397.94932 167.845452 
L 398.083808 154.435924 
L 398.218296 167.125296 
L 398.352785 162.379006 
L 398.487273 165.378787 
L 398.487273 165.378787 
" clip-path="url(#p566bb3a5dd)" style="fill: none; stroke: #1f77b4; stroke-width: 1.5; stroke-linecap: square"/>
   </g>
   <g id="line2d_14">
    <path d="M 73.832727 277.352796 
L 74.101704 277.596791 
L 74.37068 277.160074 
L 74.505168 275.822541 
L 74.639657 277.316481 
L 74.774145 277.19313 
L 74.908633 277.50481 
L 75.043121 268.746399 
L 75.177609 224.475292 
L 75.312098 230.044461 
L 75.446586 250.389805 
L 75.715562 252.035488 
L 75.85005 252.833473 
L 76.253515 249.749286 
L 76.522492 245.402243 
L 76.791468 284.334806 
L 77.194933 267.903183 
L 77.329421 248.775172 
L 77.463909 252.018338 
L 77.598397 263.573415 
L 77.732885 261.014859 
L 77.867374 264.311506 
L 78.001862 253.180381 
L 78.13635 221.334053 
L 78.405327 124.299162 
L 78.539815 96.966938 
L 78.674303 100.658764 
L 78.943279 122.100584 
L 79.077768 133.072722 
L 79.212256 123.703852 
L 79.481232 163.608743 
L 79.884697 255.107051 
L 80.019185 255.648598 
L 80.153673 261.982853 
L 80.288161 273.975418 
L 80.42265 270.168895 
L 80.557138 252.12708 
L 80.691626 269.581301 
L 80.826114 265.979443 
L 81.229579 239.538267 
L 81.364067 217.063565 
L 81.633044 119.415388 
L 81.90202 201.938665 
L 82.036508 183.050451 
L 82.305485 200.500199 
L 82.439973 197.596311 
L 82.574461 186.427143 
L 82.708949 203.841561 
L 82.977926 192.0926 
L 83.112414 206.102638 
L 83.246902 191.836889 
L 83.38139 191.585892 
L 83.650367 236.861279 
L 83.784855 235.553679 
L 83.919343 272.917606 
L 84.053831 274.671021 
L 84.18832 270.229337 
L 84.322808 191.583136 
L 84.457296 215.010353 
L 84.591784 191.583136 
L 84.860761 191.583136 
L 84.995249 194.815154 
L 85.129737 188.117389 
L 85.264225 204.683087 
L 85.398714 185.604284 
L 85.66769 209.275845 
L 85.802178 208.587833 
L 86.071155 225.014511 
L 86.340131 258.942987 
L 86.609107 268.322956 
L 86.743596 267.866257 
L 86.878084 269.512965 
L 87.14706 288.325097 
L 87.281549 287.694397 
L 87.416037 283.981641 
L 87.550525 284.5145 
L 87.685013 284.439617 
L 87.819501 282.614791 
L 88.088478 239.659699 
L 88.357454 252.920384 
L 88.626431 258.753766 
L 88.760919 253.34036 
L 88.895407 257.67999 
L 89.029895 249.743797 
L 89.164384 251.213626 
L 89.43336 258.323151 
L 89.567848 277.089515 
L 89.702336 277.930282 
L 89.836825 277.926569 
L 89.971313 274.130445 
L 90.105801 274.601569 
L 90.240289 253.076232 
L 90.374777 252.940208 
L 90.509266 264.362924 
L 90.643754 259.216025 
L 90.778242 264.365363 
L 90.91273 264.155903 
L 91.047218 266.146345 
L 91.316195 246.736008 
L 91.450683 247.994352 
L 91.585171 245.547319 
L 91.854148 254.662247 
L 91.988636 254.228123 
L 92.123124 255.222534 
L 92.257612 255.068523 
L 92.392101 256.987893 
L 92.526589 255.698903 
L 92.661077 258.177383 
L 92.930053 266.953013 
L 93.064542 269.074443 
L 93.333518 260.264359 
L 93.468006 277.190238 
L 93.602495 276.062571 
L 93.736983 266.365966 
L 93.871471 269.533429 
L 94.274936 252.879182 
L 94.543912 162.460973 
L 94.6784 172.335035 
L 94.947377 152.430746 
L 95.081865 154.493338 
L 95.350841 184.226009 
L 95.619818 150.475518 
L 96.023282 256.098878 
L 96.292259 276.22476 
L 96.561235 266.12909 
L 96.695723 268.270318 
L 96.9647 263.113657 
L 97.099188 268.672518 
L 97.233676 266.370356 
L 97.502653 241.706368 
L 97.771629 157.147239 
L 97.906117 167.087895 
L 98.040606 176.803398 
L 98.175094 194.606711 
L 98.578558 180.984683 
L 98.713047 183.379607 
L 98.982023 204.942288 
L 99.385488 269.531776 
L 99.519976 276.217262 
L 99.654464 276.047471 
L 99.788952 272.764233 
L 99.923441 285.154996 
L 100.057929 282.364494 
L 100.192417 269.107021 
L 100.461393 272.322868 
L 100.595882 272.393323 
L 100.73037 269.959492 
L 100.864858 271.454337 
L 100.999346 276.264471 
L 101.133834 277.008159 
L 101.268323 279.230715 
L 101.402811 278.573052 
L 101.671787 260.803367 
L 101.806276 268.711851 
L 102.075252 244.721834 
L 102.344228 262.413629 
L 102.478717 260.371263 
L 102.613205 265.224772 
L 102.747693 276.867384 
L 102.882181 270.534261 
L 103.016669 277.247596 
L 103.285646 240.441583 
L 103.420134 268.263118 
L 103.554622 267.773295 
L 103.823599 254.090669 
L 103.958087 248.240906 
L 104.092575 216.445184 
L 104.227063 149.596018 
L 104.361552 149.839441 
L 104.49604 156.450195 
L 104.630528 179.104062 
L 104.899504 142.419435 
L 105.302969 185.576672 
L 105.437457 202.01519 
L 105.706434 250.03611 
L 105.97541 268.624961 
L 106.109898 253.595534 
L 106.244387 262.88096 
L 106.378875 288.288064 
L 106.513363 286.180388 
L 106.782339 267.649677 
L 106.916828 269.651341 
L 107.051316 268.062801 
L 107.185804 267.936922 
L 107.45478 197.803777 
L 107.723757 256.414494 
L 107.858245 252.819982 
L 107.992733 248.559061 
L 108.127222 248.651682 
L 108.26171 247.686847 
L 108.530686 242.798376 
L 108.665174 238.196075 
L 108.799663 243.452512 
L 109.068639 286.764619 
L 109.203127 284.519064 
L 109.606592 264.929678 
L 109.875568 268.441508 
L 110.010056 268.23513 
L 110.144545 267.265027 
L 110.279033 267.665307 
L 110.413521 269.818453 
L 110.548009 269.363478 
L 110.816986 272.832442 
L 110.951474 271.7376 
L 111.085962 269.475705 
L 111.22045 269.096132 
L 111.489427 271.316227 
L 111.892891 263.743527 
L 112.02738 265.449231 
L 112.296356 271.763554 
L 112.699821 270.007006 
L 112.834309 254.549203 
L 112.968797 258.29839 
L 113.103285 265.744287 
L 113.237774 263.716221 
L 113.372262 264.620674 
L 113.50675 264.707336 
L 113.775726 269.726282 
L 113.910215 270.177991 
L 114.179191 266.03851 
L 114.313679 265.048441 
L 114.448168 258.151291 
L 114.582656 258.457957 
L 114.717144 261.058913 
L 114.851632 259.434188 
L 115.255097 245.835532 
L 115.524073 261.274052 
L 115.658561 262.328633 
L 115.79305 255.075401 
L 115.927538 254.872123 
L 116.062026 255.095363 
L 116.196514 255.675816 
L 116.331002 250.989689 
L 116.465491 262.480198 
L 116.868955 238.914666 
L 117.137932 127.148163 
L 117.406908 88.606256 
L 117.675885 100.968098 
L 117.810373 111.687468 
L 118.079349 105.826912 
L 118.348326 147.322012 
L 118.617302 255.7043 
L 118.75179 257.10383 
L 118.886279 254.306034 
L 119.020767 258.879065 
L 119.289743 247.708078 
L 119.424231 253.39568 
L 119.693208 250.873018 
L 119.827696 255.131753 
L 119.962184 254.408608 
L 120.096672 233.336415 
L 120.365649 112.837361 
L 120.634625 86.57461 
L 120.769114 86.651441 
L 120.903602 88.810629 
L 121.03809 95.602105 
L 121.307066 93.809959 
L 121.576043 128.648983 
L 121.845019 254.637426 
L 121.979507 258.145469 
L 122.248484 252.414655 
L 122.382972 239.267254 
L 122.51746 244.655049 
L 122.651948 260.940794 
L 122.786437 261.20851 
L 122.920925 250.883886 
L 123.055413 251.494566 
L 123.189901 248.232499 
L 123.32439 232.030632 
L 123.593366 107.902793 
L 123.862342 71.477363 
L 124.131319 86.756728 
L 124.265807 97.63606 
L 124.534783 123.688947 
L 124.669272 122.743918 
L 124.80376 139.281355 
L 125.072736 252.237932 
L 125.476201 265.741041 
L 125.745177 247.772964 
L 126.014154 271.399497 
L 126.28313 262.640651 
L 126.552107 232.24649 
L 126.821083 119.82605 
L 127.09006 94.020733 
L 127.224548 94.411028 
L 127.628012 124.474888 
L 127.762501 124.215794 
L 128.031477 160.376119 
L 128.434942 256.997664 
L 128.56943 258.50382 
L 128.703918 263.591799 
L 128.838406 247.968611 
L 129.107383 258.307828 
L 129.241871 255.359579 
L 129.376359 261.165359 
L 129.510847 261.309532 
L 129.779824 214.50812 
L 130.0488 121.27361 
L 130.183288 95.223381 
L 130.317777 92.398559 
L 130.452265 96.154967 
L 130.586753 106.07763 
L 130.721241 150.592897 
L 130.855729 158.166314 
L 130.990218 136.249187 
L 131.124706 144.917238 
L 131.528171 260.015863 
L 131.662659 256.864441 
L 131.797147 265.801425 
L 131.931635 265.721421 
L 132.200612 256.878113 
L 132.3351 256.775392 
L 132.604076 269.935045 
L 132.738564 268.491185 
L 132.873053 265.965981 
L 133.007541 265.912893 
L 133.276517 251.363765 
L 133.545494 244.566549 
L 133.679982 245.01607 
L 133.81447 242.982861 
L 134.083447 243.753713 
L 134.217935 237.911855 
L 134.890376 255.170441 
L 135.024864 256.108401 
L 135.159352 253.513416 
L 135.29384 255.172636 
L 135.562817 260.614321 
L 135.831793 263.837279 
L 135.966282 265.46609 
L 136.10077 270.571234 
L 136.235258 270.532104 
L 136.369746 265.10071 
L 136.638723 267.886122 
L 136.773211 261.192993 
L 136.907699 261.520807 
L 137.042187 262.787871 
L 137.176675 261.838639 
L 137.445652 248.232424 
L 137.58014 249.434887 
L 137.714628 253.098075 
L 137.849117 250.141577 
L 137.983605 252.547372 
L 138.252581 259.149449 
L 138.387069 249.797606 
L 138.521558 251.763557 
L 138.656046 261.374413 
L 138.925022 253.153295 
L 139.193999 263.718484 
L 139.462975 224.505012 
L 139.731951 118.492186 
L 139.86644 93.401726 
L 140.000928 89.682439 
L 140.135416 94.656432 
L 140.404393 119.651246 
L 140.538881 120.037215 
L 141.076834 184.123029 
L 141.211322 253.604229 
L 141.480298 256.489789 
L 141.614786 266.048797 
L 141.749275 263.609778 
L 141.883763 255.730581 
L 142.018251 261.882254 
L 142.421716 257.049292 
L 143.094157 87.121651 
L 143.228645 89.210759 
L 143.497621 98.296818 
L 143.63211 114.062538 
L 143.766598 102.815116 
L 143.901086 104.890834 
L 144.439039 258.610158 
L 144.573527 256.33497 
L 144.708015 257.445368 
L 144.842504 268.411717 
L 144.976992 269.340469 
L 145.11148 257.91661 
L 145.245968 256.273732 
L 145.514945 262.295892 
L 145.649433 251.768498 
L 145.783921 213.012694 
L 145.918409 212.292449 
L 146.321874 92.426937 
L 146.456362 84.625912 
L 146.859827 150.106506 
L 146.994315 133.587321 
L 147.128803 140.155864 
L 147.263291 135.050623 
L 147.39778 155.090272 
L 147.666756 261.660322 
L 147.801244 257.781305 
L 148.070221 270.135752 
L 148.339197 259.287127 
L 148.473685 262.822582 
L 148.742662 258.739883 
L 149.011638 255.881433 
L 149.146126 219.932254 
L 149.415103 115.713326 
L 149.549591 95.483697 
L 149.684079 114.714492 
L 149.818567 116.406739 
L 149.953056 121.065959 
L 150.35652 180.979541 
L 150.491009 158.365306 
L 150.625497 159.411574 
L 150.894473 260.420914 
L 151.028961 256.9309 
L 151.297938 272.019901 
L 151.566914 254.595575 
L 151.835891 262.86727 
L 151.970379 262.552894 
L 152.104867 262.617927 
L 152.239355 258.280539 
L 152.777308 97.281925 
L 152.911796 120.191172 
L 153.046285 122.916446 
L 153.180773 107.144374 
L 153.315261 130.685919 
L 153.449749 133.255409 
L 153.718726 201.595212 
L 153.853214 212.513126 
L 154.12219 257.769574 
L 154.256678 264.073824 
L 154.391167 277.146235 
L 154.660143 268.751858 
L 154.92912 269.886884 
L 155.063608 269.688211 
L 155.198096 270.282386 
L 155.467072 274.802138 
L 155.601561 273.059589 
L 155.870537 251.584176 
L 156.005025 254.564559 
L 156.274002 260.190768 
L 156.40849 260.173708 
L 156.542978 257.927251 
L 156.677466 258.831077 
L 156.811955 261.186265 
L 156.946443 259.531449 
L 157.080931 259.933471 
L 157.349907 263.49999 
L 157.618884 267.868407 
L 157.753372 265.217524 
L 157.88786 265.234382 
L 158.156837 269.577766 
L 158.291325 269.288037 
L 158.425813 269.980259 
L 158.829278 276.781547 
L 158.963766 272.929548 
L 159.232742 275.690198 
L 159.367231 271.906113 
L 159.501719 271.326714 
L 159.636207 273.238309 
L 159.770695 270.728255 
L 160.039672 257.168988 
L 160.17416 258.538349 
L 160.308648 255.351318 
L 160.443136 255.877808 
L 160.577624 258.845051 
L 160.712113 266.292201 
L 160.846601 265.738332 
L 160.981089 252.748933 
L 161.115577 254.44274 
L 161.384554 265.594534 
L 161.519042 265.520206 
L 161.65353 262.614782 
L 161.788018 262.977426 
L 162.056995 225.190833 
L 162.325971 117.831213 
L 162.594948 79.994727 
L 163.401877 134.59817 
L 163.670853 209.359988 
L 163.805342 260.4518 
L 164.074318 255.995668 
L 164.208806 263.80799 
L 164.343294 263.59571 
L 164.477783 256.235726 
L 164.746759 274.34941 
L 164.881247 269.932015 
L 165.015735 257.905437 
L 165.4192 169.37355 
L 165.688177 94.390284 
L 165.822665 124.417262 
L 165.957153 123.118814 
L 166.091641 116.972416 
L 166.226129 133.8738 
L 166.360618 130.352305 
L 166.629594 111.815612 
L 166.764082 126.993568 
L 167.033059 262.304467 
L 167.167547 259.038952 
L 167.302035 249.115586 
L 167.436523 254.679423 
L 167.571012 255.434292 
L 167.7055 251.323703 
L 167.974476 263.140326 
L 168.243453 261.776698 
L 168.377941 248.107667 
L 168.512429 217.504543 
L 168.915894 80.540435 
L 169.18487 120.671472 
L 169.319358 121.064639 
L 169.453847 131.052939 
L 169.588335 105.931191 
L 169.722823 106.656253 
L 169.991799 179.773775 
L 170.126288 201.550299 
L 170.260776 260.25632 
L 170.395264 259.117185 
L 170.66424 269.161855 
L 170.798729 257.605539 
L 170.933217 258.667006 
L 171.067705 258.206131 
L 171.202193 257.176056 
L 171.336681 259.502562 
L 171.47117 264.072783 
L 171.874634 170.31354 
L 172.143611 86.962312 
L 172.412587 125.465554 
L 172.681564 110.674419 
L 173.085028 162.455131 
L 173.219516 166.692399 
L 173.488493 260.935863 
L 173.622981 258.603632 
L 173.891958 270.603139 
L 174.026446 267.063661 
L 174.160934 284.319163 
L 174.295422 279.683313 
L 174.42991 266.747914 
L 174.698887 270.561339 
L 175.102351 209.595561 
L 175.23684 150.439203 
L 175.371328 143.12152 
L 175.505816 145.543307 
L 175.640304 142.295482 
L 175.774792 151.030336 
L 175.909281 174.695704 
L 176.043769 174.832551 
L 176.312745 187.677066 
L 176.447234 193.769727 
L 176.581722 212.948358 
L 176.71621 255.994813 
L 176.850698 254.030923 
L 177.119675 272.493998 
L 177.254163 264.180306 
L 177.388651 262.831999 
L 177.523139 267.94237 
L 177.657627 266.449525 
L 178.19558 274.237904 
L 178.464557 257.458868 
L 178.599045 261.404567 
L 178.733533 254.032779 
L 178.868021 253.732715 
L 179.136998 260.797007 
L 179.405974 254.264367 
L 179.540462 255.115232 
L 179.809439 251.873011 
L 180.078415 263.119072 
L 180.212904 270.940633 
L 180.48188 262.736026 
L 180.616368 274.542398 
L 180.750856 276.566116 
L 180.885345 272.752773 
L 181.019833 272.332562 
L 181.154321 273.391938 
L 181.288809 273.148189 
L 181.692274 261.698216 
L 181.826762 264.283248 
L 181.96125 263.619496 
L 182.095738 265.489652 
L 182.230227 258.815434 
L 182.364715 260.460152 
L 182.633691 269.872902 
L 182.76818 269.970593 
L 182.902668 272.88681 
L 183.037156 271.62261 
L 183.171644 269.179317 
L 183.440621 277.405737 
L 183.844085 261.34406 
L 184.113062 284.966713 
L 184.651015 246.486143 
L 184.919991 149.016021 
L 185.188967 175.579689 
L 185.323456 190.254454 
L 185.592432 187.966198 
L 185.861408 198.702759 
L 186.399361 259.963098 
L 186.802826 274.610889 
L 186.937314 273.815977 
L 187.071802 279.538976 
L 187.206291 292.216371 
L 187.340779 289.718917 
L 187.475267 277.180374 
L 187.609755 276.852271 
L 187.744243 270.767286 
L 187.878732 252.638545 
L 188.147708 141.386055 
L 188.416684 180.02708 
L 188.954637 205.795438 
L 189.089126 197.414717 
L 189.223614 205.798593 
L 189.761567 271.906571 
L 189.896055 272.19149 
L 190.030543 266.243261 
L 190.165031 273.021455 
L 190.434008 261.626292 
L 190.568496 265.47954 
L 190.702984 261.423147 
L 190.837472 263.070652 
L 191.106449 267.882894 
L 191.240937 267.122886 
L 191.375425 258.691358 
L 191.509913 258.565034 
L 191.644402 262.31522 
L 191.77889 254.487393 
L 192.047866 258.580308 
L 192.182354 257.788651 
L 192.316843 250.665738 
L 192.451331 249.798708 
L 192.854796 255.163461 
L 192.989284 267.358739 
L 193.123772 267.591044 
L 193.392748 260.184806 
L 193.527237 257.83472 
L 193.661725 257.51551 
L 193.930701 264.817166 
L 194.065189 263.79109 
L 194.334166 244.483273 
L 194.603142 145.549485 
L 194.73763 155.898272 
L 194.872119 149.108433 
L 195.006607 153.405976 
L 195.141095 150.397711 
L 195.275583 156.464416 
L 195.410072 173.900459 
L 195.54456 158.790002 
L 195.813536 192.035661 
L 196.082513 256.03575 
L 196.217001 258.846914 
L 196.351489 268.525523 
L 196.620465 259.199355 
L 196.754954 275.155994 
L 196.889442 271.902642 
L 197.02393 262.421385 
L 197.292907 266.325212 
L 197.427395 262.001191 
L 197.561883 245.825223 
L 197.830859 158.357314 
L 198.234324 204.087957 
L 198.5033 211.23063 
L 198.772277 193.506674 
L 199.579206 283.542075 
L 199.713694 275.182828 
L 199.848183 275.974349 
L 199.982671 279.145489 
L 200.251647 275.30078 
L 200.386135 276.424717 
L 200.520624 274.35479 
L 200.655112 266.027342 
L 200.7896 265.956951 
L 200.924088 250.111176 
L 201.058576 177.531208 
L 201.193065 187.499878 
L 201.327553 208.524136 
L 201.462041 207.765251 
L 201.731018 216.071102 
L 201.999994 200.257113 
L 202.134482 208.987381 
L 202.537947 261.818766 
L 202.806923 273.271882 
L 202.941411 271.15234 
L 203.0759 272.902098 
L 203.344876 258.561212 
L 203.479364 268.114712 
L 203.613853 269.277159 
L 203.882829 259.327758 
L 204.017317 257.233485 
L 204.151805 235.895305 
L 204.420782 162.164331 
L 204.958735 184.334881 
L 205.093223 176.252466 
L 205.362199 203.690164 
L 206.03464 268.016103 
L 206.169129 260.207302 
L 206.303617 260.956077 
L 206.438105 288.406474 
L 206.572593 286.799771 
L 206.707081 277.686933 
L 206.84157 280.956994 
L 206.976058 279.897944 
L 207.110546 277.891593 
L 207.514011 248.463432 
L 207.648499 248.246192 
L 207.782987 253.391561 
L 208.051964 269.620414 
L 208.186452 270.232277 
L 208.32094 267.908528 
L 208.589916 250.573284 
L 209.127869 275.97826 
L 209.262357 278.33425 
L 209.396846 276.775524 
L 209.531334 271.339671 
L 209.665822 257.026702 
L 209.80031 260.205482 
L 209.934799 266.632706 
L 210.069287 265.069232 
L 210.203775 267.706612 
L 210.60724 197.198287 
L 210.741728 136.345048 
L 210.876216 140.580103 
L 211.279681 100.156955 
L 211.548657 158.850557 
L 211.683145 159.910876 
L 211.817634 172.603129 
L 212.221098 255.170173 
L 212.490075 266.681747 
L 212.624563 257.829398 
L 213.028027 272.782505 
L 213.297004 263.520348 
L 213.431492 269.089841 
L 213.700468 227.266588 
L 213.969445 122.272912 
L 214.103933 117.405031 
L 214.238421 151.35236 
L 214.37291 155.61912 
L 214.507398 154.303306 
L 214.776374 182.687987 
L 215.045351 201.289854 
L 215.179839 200.898917 
L 215.448815 260.398956 
L 215.583303 269.950051 
L 215.85228 262.137021 
L 215.986768 263.922116 
L 216.121256 263.173384 
L 216.255745 266.694703 
L 216.524721 265.019751 
L 216.659209 269.781779 
L 216.793697 260.323473 
L 216.928186 239.915181 
L 217.197162 122.080007 
L 217.33165 126.306563 
L 217.466138 161.201701 
L 217.600627 166.744239 
L 217.735115 179.495694 
L 217.869603 171.921008 
L 218.004091 143.354055 
L 218.138579 156.059082 
L 218.407556 229.495682 
L 218.542044 233.312866 
L 218.811021 264.139223 
L 219.079997 279.11779 
L 219.214485 255.433624 
L 219.348973 254.838448 
L 219.61795 271.244957 
L 219.886926 274.813036 
L 220.155903 238.576088 
L 220.424879 120.037047 
L 220.559367 138.978972 
L 220.693856 173.638688 
L 220.962832 162.074055 
L 221.09732 181.93232 
L 221.231808 175.324488 
L 221.500785 216.167804 
L 221.635273 211.3929 
L 221.769761 222.132231 
L 222.038738 267.753249 
L 222.307714 276.169042 
L 222.576691 269.022121 
L 222.845667 276.795511 
L 222.980155 276.668406 
L 223.114643 277.19291 
L 223.249132 274.014846 
L 223.38362 275.643267 
L 223.652596 243.869903 
L 223.921573 265.378056 
L 224.190549 253.94421 
L 224.459525 256.734804 
L 224.594014 260.497819 
L 224.728502 258.819315 
L 224.997478 252.174636 
L 225.266455 261.532191 
L 225.400943 261.733067 
L 225.535431 258.168638 
L 225.669919 258.693348 
L 225.804408 259.995905 
L 225.938896 257.872023 
L 226.34236 269.173978 
L 226.611337 270.64336 
L 226.745825 269.797266 
L 227.014802 264.45776 
L 227.283778 270.729826 
L 227.552754 266.707936 
L 227.821731 269.739338 
L 228.225195 267.285463 
L 228.359684 275.281012 
L 228.494172 275.371311 
L 228.62866 274.484073 
L 228.763148 270.481074 
L 229.032125 271.751847 
L 229.166613 265.596234 
L 229.301101 266.304905 
L 229.435589 270.106992 
L 229.570078 269.807226 
L 229.704566 255.052224 
L 229.839054 221.862193 
L 230.10803 116.374927 
L 230.377007 92.266566 
L 230.511495 98.060493 
L 230.645983 91.166801 
L 230.91496 144.550007 
L 231.049448 144.362064 
L 231.318424 192.802094 
L 231.587401 256.767452 
L 231.721889 253.766992 
L 231.990865 267.533673 
L 232.125354 267.367332 
L 232.259842 267.95277 
L 232.39433 266.948192 
L 232.528818 268.569032 
L 232.663306 271.623971 
L 232.797795 267.243553 
L 233.066771 226.426731 
L 233.335748 127.753239 
L 233.470236 115.762616 
L 233.604724 121.578821 
L 233.8737 157.195681 
L 234.008189 172.121149 
L 234.142677 144.464861 
L 234.277165 151.112975 
L 234.546141 227.158754 
L 234.68063 233.567777 
L 234.815118 255.762245 
L 234.949606 258.710613 
L 235.084094 274.999359 
L 235.218583 263.475137 
L 235.353071 264.416961 
L 235.622047 269.893836 
L 235.756535 276.506542 
L 236.025512 266.958745 
L 236.294488 240.789978 
L 236.563465 119.019504 
L 236.697953 115.435383 
L 236.832441 128.200917 
L 236.966929 129.331915 
L 237.101417 119.765174 
L 237.370394 195.361286 
L 237.504882 182.350952 
L 237.63937 184.328484 
L 237.908347 245.362132 
L 238.177323 267.35449 
L 238.311811 274.293345 
L 238.4463 265.43727 
L 238.580788 266.435616 
L 238.849764 270.837422 
L 239.118741 281.480241 
L 239.253229 275.717464 
L 239.387717 264.312891 
L 239.522205 233.065349 
L 239.791182 119.520399 
L 239.92567 119.512314 
L 240.060158 120.379323 
L 240.329135 155.512408 
L 240.463623 165.097622 
L 240.732599 204.902988 
L 240.867087 206.407763 
L 241.001576 215.04717 
L 241.270552 258.686713 
L 241.539529 264.075147 
L 241.808505 258.296362 
L 241.942993 258.396794 
L 242.21197 280.021572 
L 242.346458 283.880306 
L 242.480946 280.351329 
L 242.749922 231.020145 
L 243.018899 123.015662 
L 243.153387 128.892337 
L 243.287875 172.119701 
L 243.422363 168.584328 
L 243.556852 138.709164 
L 243.825828 153.822795 
L 244.094805 183.250751 
L 244.363781 246.382317 
L 244.767246 268.487167 
L 244.901734 269.447238 
L 245.036222 267.083461 
L 245.305198 273.86246 
L 245.439687 273.122865 
L 245.708663 272.042121 
L 245.843151 269.919587 
L 245.97764 252.990573 
L 246.246616 266.418922 
L 246.515592 260.354494 
L 246.650081 257.67163 
L 246.784569 258.062058 
L 247.053545 264.19908 
L 247.188033 270.075928 
L 247.322522 269.931865 
L 247.591498 271.983431 
L 247.725986 271.879537 
L 247.860475 271.208013 
L 247.994963 274.284628 
L 248.263939 271.730175 
L 248.398427 273.047714 
L 248.532916 271.737346 
L 248.667404 271.995674 
L 248.801892 271.093793 
L 248.93638 272.499829 
L 249.070868 272.306884 
L 249.339845 274.19213 
L 249.608821 275.780024 
L 249.743309 275.155461 
L 249.877798 273.397475 
L 250.012286 273.440982 
L 250.281262 270.987544 
L 250.415751 270.069709 
L 250.684727 271.406886 
L 250.819215 270.419306 
L 251.22268 272.950261 
L 251.357168 264.674292 
L 251.626144 267.331398 
L 251.760633 286.317074 
L 251.895121 284.9682 
L 252.029609 275.999278 
L 252.164097 276.222222 
L 252.433074 246.228522 
L 252.70205 127.545991 
L 252.836538 126.795457 
L 252.971027 137.491552 
L 253.105515 182.174097 
L 253.240003 169.902271 
L 253.374491 171.829756 
L 253.508979 179.720925 
L 253.643468 178.383106 
L 253.777956 172.549049 
L 254.315909 265.431638 
L 254.584885 283.738553 
L 254.719373 282.193197 
L 254.853862 278.357229 
L 254.98835 284.661868 
L 255.257326 280.345222 
L 255.391814 281.153977 
L 255.929767 130.234493 
L 256.198744 180.110892 
L 256.46772 157.742903 
L 256.602208 165.08535 
L 256.871185 165.30645 
L 257.274649 238.903066 
L 257.543626 258.581247 
L 257.678114 266.099582 
L 257.94709 259.418224 
L 258.081579 260.70872 
L 258.350555 287.193192 
L 258.619532 273.547565 
L 258.888508 238.930494 
L 259.157484 126.588015 
L 259.426461 177.972926 
L 259.560949 174.506085 
L 259.695437 157.746432 
L 259.964414 197.717843 
L 260.098902 171.554247 
L 260.23339 185.804367 
L 260.502366 238.988698 
L 260.771343 259.275196 
L 261.040319 265.684219 
L 261.309296 256.741214 
L 261.578272 270.248247 
L 261.71276 271.266846 
L 261.847249 267.455072 
L 261.981737 258.988699 
L 262.116225 231.746657 
L 262.385201 131.296391 
L 262.654178 174.427756 
L 262.788666 143.299548 
L 262.923154 145.439497 
L 263.057643 173.073401 
L 263.192131 168.541484 
L 263.595595 221.716385 
L 264.133548 257.272644 
L 264.268036 258.395655 
L 264.402525 255.650374 
L 264.537013 265.85203 
L 264.805989 259.444626 
L 264.940478 261.140103 
L 265.209454 254.953175 
L 265.343942 238.597608 
L 265.881895 101.870233 
L 266.016383 96.934313 
L 266.419848 142.635937 
L 266.554336 133.767489 
L 266.688824 141.993349 
L 267.092289 259.555659 
L 267.226777 255.022535 
L 267.361265 262.25387 
L 267.495754 259.650869 
L 267.630242 253.624139 
L 267.76473 270.385422 
L 267.899218 270.335862 
L 268.033706 266.991652 
L 268.168195 267.530002 
L 268.437171 274.64026 
L 268.571659 274.346399 
L 268.706147 269.357025 
L 268.975124 272.797148 
L 269.2441 264.4493 
L 269.378589 265.257977 
L 269.513077 265.097605 
L 270.185518 253.304813 
L 270.588982 257.589043 
L 270.857959 263.197831 
L 270.992447 278.763459 
L 271.126935 279.54124 
L 271.261424 272.362698 
L 271.5304 273.991006 
L 271.664888 273.52703 
L 271.933865 275.60639 
L 272.068353 276.574051 
L 272.202841 274.262652 
L 272.471817 273.858629 
L 272.606306 274.25708 
L 272.740794 273.253858 
L 272.875282 270.173845 
L 273.144258 273.866361 
L 273.278747 272.580667 
L 273.413235 269.817434 
L 273.547723 270.015617 
L 273.8167 274.418297 
L 273.951188 271.257838 
L 274.085676 271.31022 
L 274.220164 269.259333 
L 274.489141 293.647024 
L 274.892605 265.870022 
L 275.027093 246.106749 
L 275.29607 154.370574 
L 275.430558 153.397745 
L 275.565046 149.282903 
L 275.834023 158.703781 
L 275.968511 169.903095 
L 276.102999 209.971579 
L 276.371976 215.511467 
L 276.640952 247.458666 
L 276.909928 264.70977 
L 277.044417 274.517303 
L 277.178905 271.70382 
L 277.313393 275.109752 
L 277.447881 272.801489 
L 277.58237 279.620956 
L 277.716858 280.237444 
L 277.851346 281.584824 
L 277.985834 280.98247 
L 278.120322 274.008107 
L 278.254811 261.025625 
L 278.523787 203.073055 
L 278.658275 204.710196 
L 278.792763 190.657857 
L 278.927252 194.82773 
L 279.06174 194.583963 
L 279.196228 214.202007 
L 279.465204 205.706585 
L 280.003157 260.746974 
L 280.272134 273.146779 
L 280.406622 277.013821 
L 280.54111 275.831968 
L 280.810087 250.357388 
L 280.944575 262.117185 
L 281.079063 262.837948 
L 281.213551 261.467696 
L 281.482528 245.015671 
L 281.751504 122.879397 
L 281.885992 130.301805 
L 282.020481 122.364792 
L 282.154969 129.725021 
L 282.423945 172.716654 
L 282.558433 134.900566 
L 282.692922 137.532076 
L 283.230874 255.98718 
L 283.365363 256.71826 
L 283.499851 269.594779 
L 283.634339 259.540408 
L 283.768827 258.136399 
L 284.037804 253.280646 
L 284.172292 254.507675 
L 284.30678 257.526962 
L 284.441268 257.660355 
L 284.710245 244.601677 
L 285.113709 141.398749 
L 285.248198 159.359972 
L 285.382686 149.251935 
L 285.651662 158.908772 
L 285.78615 178.657286 
L 285.920639 174.208324 
L 286.055127 173.547012 
L 286.324103 252.593316 
L 286.458592 255.494443 
L 286.727568 265.740516 
L 286.996544 256.234415 
L 287.131033 288.488563 
L 287.265521 288.783999 
L 287.400009 269.647967 
L 287.534497 271.001944 
L 287.803474 266.621742 
L 287.937962 264.145898 
L 288.206938 267.725327 
L 288.341427 266.812801 
L 288.475915 263.44235 
L 288.610403 263.26285 
L 288.744891 260.77785 
L 288.879379 260.382865 
L 289.013868 260.598812 
L 289.282844 267.418752 
L 289.417332 257.955623 
L 289.686309 276.081429 
L 289.955285 270.989202 
L 290.224262 273.914913 
L 290.35875 271.905243 
L 290.493238 273.759746 
L 290.627726 273.359541 
L 290.762214 273.909057 
L 290.896703 272.15947 
L 291.031191 263.389771 
L 291.165679 262.031416 
L 291.300167 250.179265 
L 291.569144 162.716922 
L 291.83812 194.396172 
L 291.972608 199.416848 
L 292.241585 175.108216 
L 292.779538 241.968452 
L 293.048514 270.247394 
L 293.183002 271.884028 
L 293.586467 265.889043 
L 293.720955 266.401901 
L 293.855443 265.755152 
L 294.12442 269.33736 
L 294.527884 238.630823 
L 294.796861 167.864507 
L 295.200325 143.082624 
L 295.334814 147.93115 
L 295.469302 176.806747 
L 295.60379 171.511854 
L 295.872766 221.750246 
L 296.007255 224.625518 
L 296.276231 263.526955 
L 296.410719 266.783409 
L 296.545208 252.042403 
L 296.679696 261.159227 
L 296.814184 293.54767 
L 296.948672 291.771233 
L 297.08316 278.475806 
L 297.352137 277.621234 
L 297.486625 277.919248 
L 297.621113 277.6646 
L 297.755601 277.992037 
L 298.024578 270.656878 
L 298.159066 264.52466 
L 298.293554 267.7989 
L 298.428042 268.272245 
L 298.562531 267.397513 
L 298.697019 269.125605 
L 298.965995 263.09042 
L 299.100484 262.492664 
L 299.234972 263.619149 
L 299.36946 266.3546 
L 299.638436 274.240979 
L 299.772925 270.06896 
L 299.907413 272.155201 
L 300.041901 250.116524 
L 300.310877 267.228117 
L 300.445366 265.969915 
L 300.579854 265.849834 
L 300.84883 239.705282 
L 301.117807 141.336867 
L 301.252295 137.141499 
L 301.521271 113.124606 
L 301.65576 128.547133 
L 301.790248 167.319674 
L 301.924736 156.51451 
L 302.059224 165.320285 
L 302.328201 228.570671 
L 302.462689 233.873433 
L 302.731665 258.777236 
L 302.866153 265.135681 
L 303.000642 258.697779 
L 303.269618 270.004189 
L 303.538595 259.554046 
L 303.673083 264.133194 
L 303.807571 264.617655 
L 304.211036 197.420536 
L 304.345524 147.108777 
L 304.6145 167.884844 
L 304.883477 158.539861 
L 305.017965 177.452412 
L 305.152453 165.955289 
L 305.286941 174.527143 
L 305.555918 236.229944 
L 305.690406 236.745662 
L 306.093871 269.37701 
L 306.362847 262.409521 
L 306.497335 262.568748 
L 306.631823 276.129512 
L 306.766312 278.313501 
L 306.9008 270.757131 
L 307.035288 270.568352 
L 307.169776 259.234797 
L 307.304265 237.106902 
L 307.573241 136.167556 
L 307.842217 180.430634 
L 308.111194 156.184663 
L 308.245682 171.692021 
L 308.38017 160.858048 
L 308.514658 164.548513 
L 308.918123 240.440841 
L 309.321588 274.545124 
L 309.456076 270.917046 
L 309.590564 270.727181 
L 309.725052 271.018308 
L 309.994029 272.754175 
L 310.263005 270.457389 
L 310.397493 260.724509 
L 310.531982 231.474627 
L 310.800958 139.077211 
L 311.069934 174.063339 
L 311.204423 171.156736 
L 311.338911 157.936321 
L 311.607887 171.331746 
L 311.742376 159.922786 
L 311.876864 179.52049 
L 312.011352 223.565484 
L 312.14584 228.246149 
L 312.549305 267.302334 
L 312.683793 268.198452 
L 312.818281 268.274494 
L 313.087258 271.467473 
L 313.221746 269.330331 
L 313.356234 270.228054 
L 313.490722 269.759983 
L 313.625211 270.875666 
L 313.894187 256.502645 
L 314.028675 247.777764 
L 314.163163 255.760548 
L 314.297652 256.011767 
L 314.43214 255.338854 
L 314.566628 253.84966 
L 314.835604 264.897332 
L 314.970093 263.45134 
L 315.239069 267.75659 
L 315.508045 263.591744 
L 315.777022 267.678506 
L 316.045998 266.596137 
L 316.449463 269.841806 
L 316.583951 268.973578 
L 316.852928 270.106306 
L 317.121904 271.922281 
L 317.256392 270.327945 
L 317.39088 270.575461 
L 317.525369 269.585709 
L 317.659857 269.809079 
L 317.794345 268.403066 
L 317.928833 269.693057 
L 318.19781 266.224876 
L 318.332298 265.926435 
L 318.601274 261.939428 
L 319.004739 265.617337 
L 319.139227 260.613194 
L 319.273715 260.52392 
L 319.408204 261.812807 
L 319.542692 281.766712 
L 319.67718 282.164912 
L 319.811668 272.74881 
L 319.946157 272.643996 
L 320.080645 265.956255 
L 320.215133 247.976236 
L 320.484109 135.071842 
L 320.753086 121.643374 
L 321.15655 173.550398 
L 321.291039 177.111509 
L 321.560015 203.417046 
L 321.694503 202.045099 
L 322.097968 265.684046 
L 322.232456 272.35082 
L 322.366944 263.570754 
L 322.635921 266.951966 
L 322.770409 282.855242 
L 322.904897 284.537899 
L 323.44285 253.153952 
L 323.711826 144.284508 
L 323.846315 155.522583 
L 323.980803 181.206552 
L 324.249779 147.240638 
L 324.518756 163.809242 
L 324.653244 165.34754 
L 324.92222 216.529748 
L 325.056709 224.485822 
L 325.325685 265.495999 
L 325.460173 266.653435 
L 325.594661 259.573393 
L 325.863638 266.492005 
L 326.132614 281.82575 
L 326.536079 266.809484 
L 326.670567 250.083829 
L 326.939544 137.079415 
L 327.074032 152.475659 
L 327.20852 185.929329 
L 327.477496 158.00253 
L 327.611985 178.028729 
L 327.746473 175.804054 
L 327.880961 168.578026 
L 328.015449 178.55143 
L 328.284426 231.575807 
L 328.822379 267.913719 
L 328.956867 271.596245 
L 329.091355 271.94165 
L 329.225843 285.813355 
L 329.360331 283.809741 
L 329.898284 243.979756 
L 330.167261 137.279588 
L 330.436237 180.436703 
L 330.705214 157.621069 
L 330.839702 156.857766 
L 331.108678 199.849113 
L 331.377655 206.212595 
L 331.781119 263.511826 
L 331.915607 267.165599 
L 332.050096 262.840018 
L 332.184584 262.205668 
L 332.319072 267.888645 
L 332.45356 284.830461 
L 332.588049 283.237506 
L 332.722537 270.31862 
L 332.857025 271.211281 
L 333.126001 244.339501 
L 333.394978 146.495877 
L 333.529466 158.198174 
L 333.663954 187.990762 
L 333.932931 162.262146 
L 334.605372 199.260703 
L 334.874348 257.07561 
L 335.143325 267.38855 
L 335.412301 273.884442 
L 335.681277 269.761407 
L 335.815766 270.305288 
L 335.950254 270.199837 
L 336.21923 273.493992 
L 336.353718 269.903766 
L 336.622695 259.608027 
L 336.891671 252.5458 
L 337.02616 256.288035 
L 337.160648 255.235247 
L 337.698601 264.787872 
L 337.967577 267.762882 
L 338.102065 266.203011 
L 338.371042 270.746608 
L 338.50553 267.948342 
L 338.640018 268.254626 
L 338.774506 265.474063 
L 338.908995 265.485602 
L 339.043483 268.174392 
L 339.177971 267.626178 
L 339.312459 268.463051 
L 339.581436 271.032515 
L 339.715924 271.831991 
L 339.850412 271.195021 
L 339.9849 269.555309 
L 340.119388 270.395494 
L 340.253877 270.224772 
L 340.522853 269.317291 
L 340.657341 271.025207 
L 340.791829 269.069942 
L 341.060806 270.234984 
L 341.195294 269.476612 
L 341.329782 264.442197 
L 341.598759 272.485565 
L 341.733247 265.36111 
L 341.867735 265.525565 
L 342.002223 268.937902 
L 342.136712 283.510936 
L 342.2712 282.304828 
L 342.405688 274.11581 
L 342.540176 275.28824 
L 342.809153 248.286534 
L 343.078129 135.705547 
L 343.212617 127.468017 
L 343.481594 180.530685 
L 343.616082 174.212356 
L 344.154035 191.088099 
L 344.288523 188.10849 
L 344.557499 258.151428 
L 344.691988 263.222701 
L 344.826476 261.17269 
L 345.095452 271.737654 
L 345.22994 271.0307 
L 345.364429 281.174611 
L 345.498917 282.134095 
L 345.767893 278.460329 
L 346.03687 255.364427 
L 346.305846 151.858719 
L 346.574823 179.877872 
L 346.843799 166.23563 
L 347.112775 180.956596 
L 347.247264 179.815772 
L 347.381752 179.981958 
L 348.054193 263.025099 
L 348.188681 264.351275 
L 348.323169 268.019716 
L 348.457658 266.301274 
L 348.592146 280.701017 
L 348.726634 281.755522 
L 348.99561 275.700322 
L 349.264587 245.490528 
L 349.533563 140.729363 
L 349.80254 163.470284 
L 349.937028 157.812809 
L 350.071516 159.572506 
L 350.474981 193.089285 
L 350.609469 193.455663 
L 351.012934 248.305012 
L 351.28191 268.416848 
L 351.416398 267.13371 
L 351.685375 269.2844 
L 351.819863 285.35039 
L 351.954351 282.294886 
L 352.088839 272.292067 
L 352.223328 273.342021 
L 352.357816 270.014507 
L 352.492304 252.124846 
L 352.76128 128.05561 
L 353.030257 176.114765 
L 353.299233 161.309052 
L 353.433721 174.036765 
L 353.56821 176.075026 
L 353.837186 147.411437 
L 354.240651 256.554804 
L 354.509627 275.908143 
L 354.778604 269.17867 
L 355.04758 279.331801 
L 355.316556 274.509472 
L 355.451045 273.710449 
L 355.585533 267.407366 
L 355.720021 245.699826 
L 355.988998 159.329144 
L 356.123486 172.578612 
L 356.392462 143.840086 
L 356.930415 189.534861 
L 357.064903 186.861244 
L 357.33388 243.508221 
L 357.737344 279.913975 
L 357.871832 276.520009 
L 358.006321 276.296148 
L 358.140809 279.926512 
L 358.409785 274.233953 
L 358.544274 275.924851 
L 358.678762 276.162953 
L 358.81325 273.846579 
L 358.947738 274.663675 
L 359.216715 255.093979 
L 359.351203 254.2122 
L 359.485691 256.204829 
L 359.620179 254.480333 
L 359.754667 247.592988 
L 360.023644 265.6356 
L 360.158132 261.873628 
L 360.561597 278.492165 
L 360.830573 274.575239 
L 361.09955 277.228493 
L 361.234038 278.048858 
L 361.368526 277.426391 
L 361.637502 275.552323 
L 361.771991 276.454154 
L 361.906479 276.31853 
L 362.040967 275.959174 
L 362.309944 278.734 
L 362.57892 278.579317 
L 362.847896 272.812099 
L 362.982385 275.079553 
L 363.251361 273.368242 
L 363.385849 271.139094 
L 363.520337 271.508364 
L 363.654826 273.617892 
L 363.923802 271.80039 
L 364.05829 273.407697 
L 364.192778 270.995051 
L 364.327267 274.559162 
L 364.461755 215.218176 
L 364.596243 216.329632 
L 364.730731 251.75779 
L 364.86522 250.997528 
L 364.999708 255.429521 
L 365.134196 252.40845 
L 365.403172 184.51841 
L 365.672149 111.722499 
L 365.806637 89.735034 
L 366.34459 142.398044 
L 366.479078 135.908456 
L 366.613566 132.299504 
L 366.748055 153.151415 
L 367.017031 263.167675 
L 367.151519 256.845832 
L 367.286007 263.783803 
L 367.420496 263.630511 
L 367.554984 249.63217 
L 367.82396 268.372529 
L 367.958448 263.513724 
L 368.227425 269.196219 
L 368.899866 93.680579 
L 369.034354 82.667124 
L 369.168842 96.365329 
L 369.303331 96.476357 
L 369.706795 122.747946 
L 369.841283 118.316273 
L 369.975772 137.600549 
L 370.244748 260.854421 
L 370.379236 258.434984 
L 370.513724 253.693021 
L 370.782701 261.78164 
L 370.917189 290.53206 
L 371.051677 290.042561 
L 371.186166 272.434016 
L 371.320654 273.243802 
L 371.455142 272.113649 
L 371.724118 238.016684 
L 371.993095 132.778628 
L 372.127583 148.87874 
L 372.396559 238.511512 
L 372.665536 210.800406 
L 372.800024 207.364968 
L 372.934512 197.171286 
L 373.069001 209.617658 
L 373.203489 239.0057 
L 373.337977 241.567388 
L 373.87593 265.739105 
L 374.010418 266.582954 
L 374.279394 295.488 
L 374.548371 278.112285 
L 374.682859 277.19096 
L 374.951836 242.506521 
L 375.220812 170.68546 
L 375.3553 169.941335 
L 375.489788 170.865725 
L 375.758765 192.04866 
L 375.893253 194.091829 
L 376.162229 214.814205 
L 376.296718 217.537528 
L 376.565694 245.99703 
L 376.83467 267.397595 
L 376.969159 269.33598 
L 377.103647 265.024274 
L 377.238135 264.965109 
L 377.372623 285.549612 
L 377.507112 280.657034 
L 377.6416 269.554391 
L 377.776088 272.033192 
L 377.910576 267.290912 
L 378.045064 274.465969 
L 378.179553 273.54196 
L 378.314041 269.546715 
L 378.448529 251.198714 
L 378.717505 244.481316 
L 378.851994 247.455844 
L 379.12097 262.524127 
L 379.255458 261.758037 
L 379.389947 258.684871 
L 379.524435 263.660211 
L 379.658923 262.526648 
L 380.196876 275.125129 
L 380.465852 274.17282 
L 380.60034 259.734465 
L 380.734829 260.468027 
L 381.003805 269.959507 
L 381.138293 269.6819 
L 381.541758 218.113839 
L 381.676246 139.929919 
L 381.810734 133.897139 
L 381.945223 152.873908 
L 382.079711 144.223251 
L 382.483175 173.268709 
L 382.617664 159.505064 
L 383.155616 261.952358 
L 383.290105 263.964968 
L 383.424593 273.02451 
L 383.828058 258.005574 
L 383.962546 256.297497 
L 384.097034 259.978012 
L 384.36601 261.596253 
L 384.500499 259.549643 
L 384.634987 260.729082 
L 385.038451 154.529382 
L 385.17294 168.577309 
L 385.307428 155.637414 
L 385.441916 165.738264 
L 385.576404 206.663274 
L 385.845381 181.164315 
L 386.114357 228.085957 
L 386.65231 269.223561 
L 386.786798 272.749923 
L 386.921286 269.96496 
L 387.055775 280.284487 
L 387.190263 280.732703 
L 387.324751 270.988401 
L 387.459239 273.201305 
L 387.593727 272.622007 
L 387.728216 270.797422 
L 387.862704 274.392914 
L 387.997192 272.819504 
L 388.13168 273.853734 
L 388.266169 271.870998 
L 388.400657 274.449397 
L 388.535145 274.442076 
L 388.669633 268.013718 
L 388.93861 269.508108 
L 389.073098 271.561375 
L 389.207586 266.443488 
L 389.342074 267.586146 
L 389.745539 286.718222 
L 390.014515 277.983059 
L 390.149004 279.400078 
L 390.283492 241.680393 
L 390.41798 242.23539 
L 390.552468 262.338334 
L 390.686956 262.314035 
L 390.821445 261.81971 
L 390.955933 248.968238 
L 391.090421 249.389387 
L 391.224909 236.95669 
L 391.359397 158.845439 
L 391.628374 155.080278 
L 391.762862 157.417208 
L 392.031839 204.80243 
L 392.166327 200.425069 
L 392.300815 183.410789 
L 392.435303 191.261918 
L 392.973256 266.029126 
L 393.107744 281.300129 
L 393.242232 267.970075 
L 393.376721 265.656979 
L 393.645697 249.632485 
L 393.914673 269.501017 
L 394.049162 257.649435 
L 394.18365 258.807162 
L 394.318138 245.990615 
L 394.587115 144.368851 
L 394.721603 143.520526 
L 394.856091 158.338619 
L 394.990579 148.176149 
L 395.259556 164.90995 
L 395.394044 163.317459 
L 396.066485 251.640791 
L 396.335461 266.631385 
L 396.46995 263.112095 
L 396.604438 248.010593 
L 396.738926 291.409515 
L 396.873414 293.647384 
L 397.007902 277.237805 
L 397.276879 279.129351 
L 397.545855 244.533914 
L 397.814832 140.537827 
L 397.94932 169.68631 
L 398.083808 167.492765 
L 398.352785 154.24249 
L 398.487273 179.342519 
L 398.487273 179.342519 
" clip-path="url(#p566bb3a5dd)" style="fill: none; stroke: #ff7f0e; stroke-width: 1.5; stroke-linecap: square"/>
   </g>
   <g id="patch_3">
    <path d="M 57.6 307.584 
L 57.6 41.472 
" style="fill: none; stroke: #000000; stroke-width: 0.8; stroke-linejoin: miter; stroke-linecap: square"/>
   </g>
   <g id="patch_4">
    <path d="M 414.72 307.584 
L 414.72 41.472 
" style="fill: none; stroke: #000000; stroke-width: 0.8; stroke-linejoin: miter; stroke-linecap: square"/>
   </g>
   <g id="patch_5">
    <path d="M 57.6 307.584 
L 414.72 307.584 
" style="fill: none; stroke: #000000; stroke-width: 0.8; stroke-linejoin: miter; stroke-linecap: square"/>
   </g>
   <g id="patch_6">
    <path d="M 57.6 41.472 
L 414.72 41.472 
" style="fill: none; stroke: #000000; stroke-width: 0.8; stroke-linejoin: miter; stroke-linecap: square"/>
   </g>
  </g>
 </g>
 <defs>
  <clipPath id="p566bb3a5dd">
   <rect x="57.6" y="41.472" width="357.12" height="266.112"/>
  </clipPath>
 </defs>
</svg>
