<?xml version="1.0" encoding="utf-8" standalone="no"?>
<!DOCTYPE svg PUBLIC "-//W3C//DTD SVG 1.1//EN"
  "http://www.w3.org/Graphics/SVG/1.1/DTD/svg11.dtd">
<svg xmlns:xlink="http://www.w3.org/1999/xlink" width="460.8pt" height="345.6pt" viewBox="0 0 460.8 345.6" xmlns="http://www.w3.org/2000/svg" version="1.1">
 <metadata>
  <rdf:RDF xmlns:dc="http://purl.org/dc/elements/1.1/" xmlns:cc="http://creativecommons.org/ns#" xmlns:rdf="http://www.w3.org/1999/02/22-rdf-syntax-ns#">
   <cc:Work>
    <dc:type rdf:resource="http://purl.org/dc/dcmitype/StillImage"/>
    <dc:date>2023-04-04T02:06:35.766819</dc:date>
    <dc:format>image/svg+xml</dc:format>
    <dc:creator>
     <cc:Agent>
      <dc:title>Matplotlib v3.5.2, https://matplotlib.org/</dc:title>
     </cc:Agent>
    </dc:creator>
   </cc:Work>
  </rdf:RDF>
 </metadata>
 <defs>
  <style type="text/css">*{stroke-linejoin: round; stroke-linecap: butt}</style>
 </defs>
 <g id="figure_1">
  <g id="patch_1">
   <path d="M 0 345.6 
L 460.8 345.6 
L 460.8 0 
L 0 0 
z
" style="fill: #ffffff"/>
  </g>
  <g id="axes_1">
   <g id="patch_2">
    <path d="M 57.6 307.584 
L 414.72 307.584 
L 414.72 41.472 
L 57.6 41.472 
z
" style="fill: #ffffff"/>
   </g>
   <g id="matplotlib.axis_1">
    <g id="xtick_1">
     <g id="line2d_1">
      <defs>
       <path id="m4077f1536f" d="M 0 0 
L 0 3.5 
" style="stroke: #000000; stroke-width: 0.8"/>
      </defs>
      <g>
       <use xlink:href="#m4077f1536f" x="73.832727" y="307.584" style="stroke: #000000; stroke-width: 0.8"/>
      </g>
     </g>
     <g id="text_1">
      <!-- 0 -->
      <g transform="translate(70.651477 322.182437)scale(0.1 -0.1)">
       <defs>
        <path id="DejaVuSans-30" d="M 2034 4250 
Q 1547 4250 1301 3770 
Q 1056 3291 1056 2328 
Q 1056 1369 1301 889 
Q 1547 409 2034 409 
Q 2525 409 2770 889 
Q 3016 1369 3016 2328 
Q 3016 3291 2770 3770 
Q 2525 4250 2034 4250 
z
M 2034 4750 
Q 2819 4750 3233 4129 
Q 3647 3509 3647 2328 
Q 3647 1150 3233 529 
Q 2819 -91 2034 -91 
Q 1250 -91 836 529 
Q 422 1150 422 2328 
Q 422 3509 836 4129 
Q 1250 4750 2034 4750 
z
" transform="scale(0.015625)"/>
       </defs>
       <use xlink:href="#DejaVuSans-30"/>
      </g>
     </g>
    </g>
    <g id="xtick_2">
     <g id="line2d_2">
      <g>
       <use xlink:href="#m4077f1536f" x="141.076834" y="307.584" style="stroke: #000000; stroke-width: 0.8"/>
      </g>
     </g>
     <g id="text_2">
      <!-- 500 -->
      <g transform="translate(131.533084 322.182437)scale(0.1 -0.1)">
       <defs>
        <path id="DejaVuSans-35" d="M 691 4666 
L 3169 4666 
L 3169 4134 
L 1269 4134 
L 1269 2991 
Q 1406 3038 1543 3061 
Q 1681 3084 1819 3084 
Q 2600 3084 3056 2656 
Q 3513 2228 3513 1497 
Q 3513 744 3044 326 
Q 2575 -91 1722 -91 
Q 1428 -91 1123 -41 
Q 819 9 494 109 
L 494 744 
Q 775 591 1075 516 
Q 1375 441 1709 441 
Q 2250 441 2565 725 
Q 2881 1009 2881 1497 
Q 2881 1984 2565 2268 
Q 2250 2553 1709 2553 
Q 1456 2553 1204 2497 
Q 953 2441 691 2322 
L 691 4666 
z
" transform="scale(0.015625)"/>
       </defs>
       <use xlink:href="#DejaVuSans-35"/>
       <use xlink:href="#DejaVuSans-30" x="63.623047"/>
       <use xlink:href="#DejaVuSans-30" x="127.246094"/>
      </g>
     </g>
    </g>
    <g id="xtick_3">
     <g id="line2d_3">
      <g>
       <use xlink:href="#m4077f1536f" x="208.32094" y="307.584" style="stroke: #000000; stroke-width: 0.8"/>
      </g>
     </g>
     <g id="text_3">
      <!-- 1000 -->
      <g transform="translate(195.59594 322.182437)scale(0.1 -0.1)">
       <defs>
        <path id="DejaVuSans-31" d="M 794 531 
L 1825 531 
L 1825 4091 
L 703 3866 
L 703 4441 
L 1819 4666 
L 2450 4666 
L 2450 531 
L 3481 531 
L 3481 0 
L 794 0 
L 794 531 
z
" transform="scale(0.015625)"/>
       </defs>
       <use xlink:href="#DejaVuSans-31"/>
       <use xlink:href="#DejaVuSans-30" x="63.623047"/>
       <use xlink:href="#DejaVuSans-30" x="127.246094"/>
       <use xlink:href="#DejaVuSans-30" x="190.869141"/>
      </g>
     </g>
    </g>
    <g id="xtick_4">
     <g id="line2d_4">
      <g>
       <use xlink:href="#m4077f1536f" x="275.565046" y="307.584" style="stroke: #000000; stroke-width: 0.8"/>
      </g>
     </g>
     <g id="text_4">
      <!-- 1500 -->
      <g transform="translate(262.840046 322.182437)scale(0.1 -0.1)">
       <use xlink:href="#DejaVuSans-31"/>
       <use xlink:href="#DejaVuSans-35" x="63.623047"/>
       <use xlink:href="#DejaVuSans-30" x="127.246094"/>
       <use xlink:href="#DejaVuSans-30" x="190.869141"/>
      </g>
     </g>
    </g>
    <g id="xtick_5">
     <g id="line2d_5">
      <g>
       <use xlink:href="#m4077f1536f" x="342.809153" y="307.584" style="stroke: #000000; stroke-width: 0.8"/>
      </g>
     </g>
     <g id="text_5">
      <!-- 2000 -->
      <g transform="translate(330.084153 322.182437)scale(0.1 -0.1)">
       <defs>
        <path id="DejaVuSans-32" d="M 1228 531 
L 3431 531 
L 3431 0 
L 469 0 
L 469 531 
Q 828 903 1448 1529 
Q 2069 2156 2228 2338 
Q 2531 2678 2651 2914 
Q 2772 3150 2772 3378 
Q 2772 3750 2511 3984 
Q 2250 4219 1831 4219 
Q 1534 4219 1204 4116 
Q 875 4013 500 3803 
L 500 4441 
Q 881 4594 1212 4672 
Q 1544 4750 1819 4750 
Q 2544 4750 2975 4387 
Q 3406 4025 3406 3419 
Q 3406 3131 3298 2873 
Q 3191 2616 2906 2266 
Q 2828 2175 2409 1742 
Q 1991 1309 1228 531 
z
" transform="scale(0.015625)"/>
       </defs>
       <use xlink:href="#DejaVuSans-32"/>
       <use xlink:href="#DejaVuSans-30" x="63.623047"/>
       <use xlink:href="#DejaVuSans-30" x="127.246094"/>
       <use xlink:href="#DejaVuSans-30" x="190.869141"/>
      </g>
     </g>
    </g>
    <g id="xtick_6">
     <g id="line2d_6">
      <g>
       <use xlink:href="#m4077f1536f" x="410.053259" y="307.584" style="stroke: #000000; stroke-width: 0.8"/>
      </g>
     </g>
     <g id="text_6">
      <!-- 2500 -->
      <g transform="translate(397.328259 322.182437)scale(0.1 -0.1)">
       <use xlink:href="#DejaVuSans-32"/>
       <use xlink:href="#DejaVuSans-35" x="63.623047"/>
       <use xlink:href="#DejaVuSans-30" x="127.246094"/>
       <use xlink:href="#DejaVuSans-30" x="190.869141"/>
      </g>
     </g>
    </g>
   </g>
   <g id="matplotlib.axis_2">
    <g id="ytick_1">
     <g id="line2d_7">
      <defs>
       <path id="m5c132d09ce" d="M 0 0 
L -3.5 0 
" style="stroke: #000000; stroke-width: 0.8"/>
      </defs>
      <g>
       <use xlink:href="#m5c132d09ce" x="57.6" y="281.786927" style="stroke: #000000; stroke-width: 0.8"/>
      </g>
     </g>
     <g id="text_7">
      <!-- 100 -->
      <g transform="translate(31.5125 285.586146)scale(0.1 -0.1)">
       <use xlink:href="#DejaVuSans-31"/>
       <use xlink:href="#DejaVuSans-30" x="63.623047"/>
       <use xlink:href="#DejaVuSans-30" x="127.246094"/>
      </g>
     </g>
    </g>
    <g id="ytick_2">
     <g id="line2d_8">
      <g>
       <use xlink:href="#m5c132d09ce" x="57.6" y="233.698216" style="stroke: #000000; stroke-width: 0.8"/>
      </g>
     </g>
     <g id="text_8">
      <!-- 200 -->
      <g transform="translate(31.5125 237.497434)scale(0.1 -0.1)">
       <use xlink:href="#DejaVuSans-32"/>
       <use xlink:href="#DejaVuSans-30" x="63.623047"/>
       <use xlink:href="#DejaVuSans-30" x="127.246094"/>
      </g>
     </g>
    </g>
    <g id="ytick_3">
     <g id="line2d_9">
      <g>
       <use xlink:href="#m5c132d09ce" x="57.6" y="185.609504" style="stroke: #000000; stroke-width: 0.8"/>
      </g>
     </g>
     <g id="text_9">
      <!-- 300 -->
      <g transform="translate(31.5125 189.408723)scale(0.1 -0.1)">
       <defs>
        <path id="DejaVuSans-33" d="M 2597 2516 
Q 3050 2419 3304 2112 
Q 3559 1806 3559 1356 
Q 3559 666 3084 287 
Q 2609 -91 1734 -91 
Q 1441 -91 1130 -33 
Q 819 25 488 141 
L 488 750 
Q 750 597 1062 519 
Q 1375 441 1716 441 
Q 2309 441 2620 675 
Q 2931 909 2931 1356 
Q 2931 1769 2642 2001 
Q 2353 2234 1838 2234 
L 1294 2234 
L 1294 2753 
L 1863 2753 
Q 2328 2753 2575 2939 
Q 2822 3125 2822 3475 
Q 2822 3834 2567 4026 
Q 2313 4219 1838 4219 
Q 1578 4219 1281 4162 
Q 984 4106 628 3988 
L 628 4550 
Q 988 4650 1302 4700 
Q 1616 4750 1894 4750 
Q 2613 4750 3031 4423 
Q 3450 4097 3450 3541 
Q 3450 3153 3228 2886 
Q 3006 2619 2597 2516 
z
" transform="scale(0.015625)"/>
       </defs>
       <use xlink:href="#DejaVuSans-33"/>
       <use xlink:href="#DejaVuSans-30" x="63.623047"/>
       <use xlink:href="#DejaVuSans-30" x="127.246094"/>
      </g>
     </g>
    </g>
    <g id="ytick_4">
     <g id="line2d_10">
      <g>
       <use xlink:href="#m5c132d09ce" x="57.6" y="137.520792" style="stroke: #000000; stroke-width: 0.8"/>
      </g>
     </g>
     <g id="text_10">
      <!-- 400 -->
      <g transform="translate(31.5125 141.320011)scale(0.1 -0.1)">
       <defs>
        <path id="DejaVuSans-34" d="M 2419 4116 
L 825 1625 
L 2419 1625 
L 2419 4116 
z
M 2253 4666 
L 3047 4666 
L 3047 1625 
L 3713 1625 
L 3713 1100 
L 3047 1100 
L 3047 0 
L 2419 0 
L 2419 1100 
L 313 1100 
L 313 1709 
L 2253 4666 
z
" transform="scale(0.015625)"/>
       </defs>
       <use xlink:href="#DejaVuSans-34"/>
       <use xlink:href="#DejaVuSans-30" x="63.623047"/>
       <use xlink:href="#DejaVuSans-30" x="127.246094"/>
      </g>
     </g>
    </g>
    <g id="ytick_5">
     <g id="line2d_11">
      <g>
       <use xlink:href="#m5c132d09ce" x="57.6" y="89.43208" style="stroke: #000000; stroke-width: 0.8"/>
      </g>
     </g>
     <g id="text_11">
      <!-- 500 -->
      <g transform="translate(31.5125 93.231299)scale(0.1 -0.1)">
       <use xlink:href="#DejaVuSans-35"/>
       <use xlink:href="#DejaVuSans-30" x="63.623047"/>
       <use xlink:href="#DejaVuSans-30" x="127.246094"/>
      </g>
     </g>
    </g>
   </g>
   <g id="line2d_12">
    <path d="M 73.832727 284.876146 
L 74.101704 284.323607 
L 74.236192 283.206506 
L 74.37068 284.175975 
L 74.505168 283.680661 
L 74.639657 284.286098 
L 74.774145 277.77681 
L 74.908633 250.503778 
L 75.177609 249.001967 
L 75.312098 249.560758 
L 75.446586 249.613656 
L 75.581074 250.485504 
L 75.715562 249.724741 
L 75.85005 249.70262 
L 76.253515 244.687929 
L 76.522492 278.945846 
L 76.65698 279.260827 
L 76.925956 277.54406 
L 77.060444 268.636107 
L 77.194933 270.892911 
L 77.463909 270.956869 
L 77.598397 272.550529 
L 77.732885 267.192965 
L 77.867374 253.706967 
L 78.405327 104.405463 
L 78.674303 103.478312 
L 78.808791 110.658438 
L 78.943279 105.827446 
L 79.481232 158.835633 
L 79.750209 229.625583 
L 80.019185 264.551452 
L 80.153673 266.688034 
L 80.288161 262.830838 
L 80.42265 273.287728 
L 80.557138 272.850602 
L 80.826114 275.372855 
L 80.960603 272.817902 
L 81.095091 262.443724 
L 81.364067 169.082856 
L 81.498555 181.455601 
L 81.767532 161.937355 
L 82.036508 169.986924 
L 82.170996 166.86789 
L 82.305485 160.858244 
L 83.112414 261.962837 
L 83.650367 288.299582 
L 83.784855 288.32026 
L 83.919343 289.857656 
L 84.053831 290.050973 
L 84.18832 287.941802 
L 84.322808 280.675116 
L 84.726273 190.016834 
L 84.860761 181.301236 
L 84.995249 185.421477 
L 85.129737 170.452904 
L 85.264225 179.044433 
L 85.398714 179.79606 
L 85.66769 188.140413 
L 85.802178 196.961325 
L 86.340131 264.100861 
L 86.474619 266.125396 
L 86.609107 271.064106 
L 86.878084 288.68381 
L 87.012572 290.947827 
L 87.14706 290.619381 
L 87.281549 292.118787 
L 87.416037 292.021167 
L 87.550525 291.205102 
L 87.819501 263.54207 
L 87.95399 263.688741 
L 88.088478 257.96955 
L 88.222966 259.437699 
L 88.357454 258.675493 
L 88.491942 255.297741 
L 88.626431 258.148921 
L 88.760919 251.114504 
L 88.895407 254.008483 
L 89.029895 254.00704 
L 89.164384 256.582672 
L 89.43336 278.006674 
L 89.567848 279.67968 
L 89.702336 279.178596 
L 89.836825 280.244722 
L 89.971313 265.007814 
L 90.105801 265.725298 
L 90.240289 267.278563 
L 90.374777 267.046775 
L 90.509266 268.289869 
L 90.643754 268.462507 
L 90.778242 270.574082 
L 90.91273 267.332422 
L 91.047218 257.336222 
L 91.181707 256.158529 
L 91.316195 249.187109 
L 91.450683 253.647337 
L 91.585171 251.669929 
L 91.71966 253.177029 
L 91.854148 253.404489 
L 92.123124 256.404744 
L 92.257612 255.828641 
L 92.526589 261.456463 
L 92.795565 268.092224 
L 92.930053 269.053037 
L 93.064542 267.90564 
L 93.19903 277.98311 
L 93.468006 278.108622 
L 93.602495 279.17571 
L 93.736983 277.93406 
L 93.871471 275.395457 
L 94.005959 270.144169 
L 94.6784 162.226368 
L 94.812888 157.801245 
L 95.081865 169.736382 
L 95.216353 164.486537 
L 95.350841 153.148181 
L 96.023282 266.454323 
L 96.157771 267.188637 
L 96.426747 271.141529 
L 96.561235 270.80587 
L 96.695723 270.883774 
L 96.830212 272.77895 
L 96.9647 272.136966 
L 97.099188 270.700075 
L 97.233676 262.176351 
L 97.368164 244.497017 
L 97.502653 203.202759 
L 97.637141 196.059662 
L 97.771629 180.484209 
L 97.906117 188.9358 
L 98.040606 182.177893 
L 98.175094 182.892492 
L 98.309582 177.537814 
L 98.44407 179.191104 
L 98.713047 190.636217 
L 98.982023 232.862915 
L 99.250999 267.946034 
L 99.385488 272.664018 
L 99.519976 273.423339 
L 99.654464 283.294509 
L 99.788952 283.307012 
L 99.923441 282.299072 
L 100.192417 283.545532 
L 100.326905 283.626802 
L 100.461393 282.967505 
L 100.595882 283.376259 
L 100.73037 284.210598 
L 100.864858 282.661661 
L 100.999346 283.825408 
L 101.133834 282.911241 
L 101.268323 280.680887 
L 101.402811 273.607999 
L 101.537299 277.909054 
L 101.806276 267.452644 
L 101.940764 269.628178 
L 102.075252 269.478622 
L 102.20974 270.131185 
L 102.344228 272.526003 
L 102.478717 278.383689 
L 102.613205 276.518809 
L 102.747693 282.22742 
L 102.882181 268.678425 
L 103.016669 268.707279 
L 103.151158 273.646951 
L 103.285646 273.426224 
L 103.554622 269.217019 
L 103.68911 265.00012 
L 103.823599 247.455915 
L 104.092575 184.764585 
L 104.227063 163.135244 
L 104.361552 170.348551 
L 104.630528 145.304912 
L 105.033993 160.726481 
L 105.168481 171.579622 
L 105.706434 255.208296 
L 105.840922 255.085189 
L 105.97541 263.843105 
L 106.109898 280.387065 
L 106.378875 283.597948 
L 106.513363 283.584003 
L 106.647851 285.755689 
L 106.782339 285.48543 
L 106.916828 286.604455 
L 107.320292 248.777393 
L 107.45478 255.889233 
L 107.589269 253.338126 
L 107.723757 253.431418 
L 108.26171 248.334015 
L 108.396198 244.903847 
L 108.530686 247.178924 
L 108.934151 279.003553 
L 109.068639 280.528927 
L 109.203127 279.454625 
L 109.337615 274.928515 
L 109.606592 276.487551 
L 109.875568 277.546946 
L 110.144545 278.602974 
L 110.413521 277.356995 
L 110.548009 277.221385 
L 110.951474 273.144905 
L 111.085962 274.325964 
L 111.22045 273.976359 
L 111.623915 268.143198 
L 111.758403 268.654381 
L 112.02738 272.460122 
L 112.430844 274.067727 
L 112.565333 263.761836 
L 112.834309 267.987872 
L 112.968797 268.514443 
L 113.103285 270.032604 
L 113.237774 270.211974 
L 113.50675 272.844351 
L 113.641238 273.679171 
L 114.313679 262.382651 
L 114.448168 262.019582 
L 114.582656 260.529312 
L 114.98612 249.639624 
L 115.524073 260.761581 
L 115.658561 261.314601 
L 115.927538 263.552169 
L 116.062026 262.261468 
L 116.196514 268.390855 
L 116.331002 267.971521 
L 116.465491 268.585614 
L 116.599979 258.779845 
L 117.137932 79.251219 
L 117.406908 64.47981 
L 117.810373 81.097345 
L 118.213837 148.615339 
L 118.482814 211.248962 
L 118.75179 245.843982 
L 118.886279 247.385225 
L 119.289743 255.417001 
L 119.424231 256.84187 
L 119.55872 259.626206 
L 119.693208 259.944554 
L 119.827696 250.283051 
L 120.365649 92.169771 
L 120.634625 73.515198 
L 120.769114 77.22428 
L 120.903602 70.774141 
L 121.03809 72.108603 
L 121.441555 135.842496 
L 121.710531 202.992611 
L 121.845019 231.307245 
L 122.248484 242.324369 
L 122.51746 257.914248 
L 122.651948 258.074384 
L 122.786437 259.821447 
L 122.920925 258.474482 
L 123.055413 250.274875 
L 123.727854 60.504316 
L 123.862342 53.568 
L 124.534783 107.958257 
L 125.072736 249.57278 
L 125.207225 254.768285 
L 125.341713 255.233783 
L 125.476201 255.187137 
L 125.745177 268.851545 
L 125.879666 270.295168 
L 126.014154 270.525994 
L 126.28313 257.010661 
L 126.821083 93.28062 
L 126.955571 74.841965 
L 127.09006 81.471475 
L 127.359036 106.126077 
L 127.493524 108.580524 
L 127.762501 127.16585 
L 127.896989 150.077236 
L 128.300453 247.947382 
L 128.434942 253.777176 
L 128.56943 251.941149 
L 128.703918 259.478093 
L 128.838406 260.205675 
L 129.241871 266.930882 
L 129.510847 246.120973 
L 130.0488 83.655664 
L 130.183288 74.503421 
L 130.317777 86.478953 
L 130.452265 115.44086 
L 130.586753 114.518038 
L 130.721241 110.853197 
L 130.855729 117.274002 
L 131.124706 170.802509 
L 131.393682 236.762428 
L 131.662659 259.974369 
L 131.931635 259.777205 
L 132.066123 259.593987 
L 132.3351 270.91984 
L 132.469588 270.770765 
L 132.604076 270.870309 
L 132.738564 270.828472 
L 133.007541 258.88035 
L 133.276517 248.370562 
L 133.679982 242.765823 
L 133.81447 241.578032 
L 133.948958 236.454661 
L 134.486911 246.378728 
L 134.755888 253.499224 
L 134.890376 253.383811 
L 135.697305 267.69405 
L 135.831793 272.466854 
L 135.966282 273.079023 
L 136.10077 271.087189 
L 136.235258 272.597655 
L 136.369746 272.322107 
L 136.504234 268.002298 
L 136.638723 267.842644 
L 136.907699 265.898898 
L 137.311164 254.964968 
L 137.445652 255.477112 
L 137.58014 252.782221 
L 137.983605 259.627168 
L 138.118093 258.721177 
L 138.252581 260.564417 
L 138.387069 265.077062 
L 138.521558 263.838297 
L 138.656046 264.040269 
L 138.925022 268.757291 
L 139.193999 252.438387 
L 139.731951 81.793188 
L 139.86644 72.834742 
L 140.269904 98.965667 
L 140.538881 123.50678 
L 140.673369 130.630641 
L 140.807857 145.057736 
L 141.076834 225.540927 
L 141.480298 258.885159 
L 142.018251 267.363199 
L 142.152739 266.89722 
L 142.421716 243.050027 
L 142.959669 91.838439 
L 143.094157 84.387574 
L 143.228645 83.897551 
L 143.363133 94.171223 
L 143.497621 84.853554 
L 143.63211 90.004336 
L 144.573527 260.138832 
L 144.708015 263.64498 
L 144.842504 263.821466 
L 145.11148 266.074422 
L 145.245968 268.227834 
L 145.380456 264.130676 
L 145.783921 202.674745 
L 146.052897 110.548795 
L 146.187386 91.337355 
L 146.456362 106.723338 
L 146.59085 118.099204 
L 146.725339 112.381456 
L 146.859827 119.830879 
L 146.994315 114.729147 
L 147.128803 127.650584 
L 147.532268 235.439989 
L 147.801244 261.583417 
L 147.935732 261.786832 
L 148.204709 267.085246 
L 148.339197 267.063607 
L 148.473685 267.569981 
L 148.742662 266.511067 
L 148.87715 248.730266 
L 149.280615 119.694307 
L 149.415103 115.632734 
L 149.549591 106.499726 
L 149.684079 107.762535 
L 150.087544 140.658581 
L 150.222032 132.922549 
L 150.35652 138.47391 
L 150.894473 253.960875 
L 151.028961 263.185252 
L 151.16345 262.222035 
L 151.835891 270.444243 
L 151.970379 269.164602 
L 152.104867 248.095014 
L 152.508332 113.650036 
L 152.64282 116.776765 
L 152.911796 104.855092 
L 153.046285 119.085984 
L 153.180773 117.57648 
L 153.449749 152.248441 
L 153.718726 193.431614 
L 153.987702 250.383075 
L 154.12219 267.532471 
L 154.256678 268.91935 
L 154.525655 272.803956 
L 154.794631 274.517838 
L 155.063608 277.479621 
L 155.198096 279.130988 
L 155.332584 278.483714 
L 155.467072 274.077345 
L 155.601561 263.540627 
L 155.736049 262.67455 
L 155.870537 259.792593 
L 156.005025 261.944082 
L 156.274002 260.035922 
L 156.40849 260.575478 
L 156.542978 261.836364 
L 156.677466 260.632703 
L 157.215419 268.688524 
L 157.349907 270.706326 
L 157.484396 269.708486 
L 157.618884 270.483195 
L 157.88786 273.677728 
L 158.022348 274.1615 
L 158.291325 277.178105 
L 158.560301 281.484449 
L 158.694789 279.909063 
L 158.829278 280.879013 
L 158.963766 280.480357 
L 159.232742 277.750361 
L 159.367231 278.034084 
L 159.501719 276.038884 
L 160.039672 261.873392 
L 160.308648 262.134033 
L 160.443136 267.886404 
L 160.577624 267.601238 
L 160.712113 265.63441 
L 160.846601 266.340352 
L 160.981089 267.841201 
L 161.250066 271.620012 
L 161.519042 272.576977 
L 161.788018 255.715151 
L 162.460459 84.084135 
L 162.594948 83.74559 
L 162.729436 82.277923 
L 162.998412 101.983234 
L 163.132901 110.980632 
L 163.401877 152.487923 
L 163.670853 223.630844 
L 164.074318 257.919538 
L 164.208806 259.05924 
L 164.477783 271.788322 
L 164.612271 274.163424 
L 164.746759 269.433899 
L 165.015735 251.822851 
L 165.4192 121.316339 
L 165.553688 123.930441 
L 165.822665 109.957304 
L 165.957153 115.243215 
L 166.091641 112.140532 
L 166.360618 100.6204 
L 166.495106 106.849812 
L 166.89857 222.726295 
L 167.033059 229.73811 
L 167.302035 248.23351 
L 167.974476 266.803927 
L 168.108964 261.097721 
L 168.243453 247.005324 
L 168.377941 208.710359 
L 168.646917 106.674769 
L 168.781405 107.964989 
L 168.915894 103.413392 
L 169.050382 104.720924 
L 169.18487 108.538206 
L 169.319358 93.122889 
L 169.453847 95.615327 
L 169.857311 149.296275 
L 170.126288 227.941035 
L 170.395264 258.932767 
L 170.529752 259.817599 
L 170.66424 263.274216 
L 170.798729 263.464647 
L 171.067705 265.805125 
L 171.202193 268.655824 
L 171.47117 246.743721 
L 172.009123 110.760386 
L 172.143611 109.174901 
L 172.412587 97.350368 
L 172.95054 130.037227 
L 173.622981 260.913541 
L 173.757469 264.925582 
L 173.891958 278.382247 
L 174.026446 277.447883 
L 174.160934 277.403641 
L 174.42991 278.943442 
L 174.698887 264.06768 
L 174.833375 246.845669 
L 175.102351 177.931179 
L 175.371328 144.365739 
L 175.505816 141.449159 
L 175.640304 151.674262 
L 175.774792 151.362166 
L 175.909281 152.77934 
L 176.043769 157.614179 
L 176.178257 157.304488 
L 176.312745 171.862865 
L 176.581722 239.921376 
L 176.850698 267.207392 
L 176.985186 264.698604 
L 177.254163 269.46131 
L 177.388651 269.417549 
L 177.792116 276.01532 
L 177.926604 276.911213 
L 178.19558 266.131166 
L 178.330069 265.688269 
L 178.599045 258.075826 
L 178.733533 257.506937 
L 178.868021 259.829141 
L 179.136998 256.297506 
L 179.271486 256.897172 
L 179.540462 254.396078 
L 179.809439 261.948891 
L 179.943927 269.264627 
L 180.212904 267.351177 
L 180.48188 277.280534 
L 180.616368 277.29448 
L 180.750856 277.669091 
L 180.885345 278.505835 
L 181.019833 278.592875 
L 181.692274 266.204261 
L 181.826762 267.508427 
L 181.96125 261.486278 
L 182.095738 263.279987 
L 182.364715 268.753444 
L 182.499203 270.039817 
L 182.633691 273.207901 
L 182.902668 272.384622 
L 183.171644 278.555366 
L 183.306132 279.980715 
L 183.440621 278.863615 
L 183.575109 276.5467 
L 183.844085 288.356326 
L 183.978573 289.313773 
L 184.113062 287.019941 
L 184.382038 275.559439 
L 184.919991 183.229594 
L 185.054479 187.27145 
L 185.188967 180.152397 
L 185.457944 184.037965 
L 185.592432 185.546989 
L 185.995897 223.549574 
L 186.264873 254.347508 
L 186.53385 270.207646 
L 186.802826 280.528927 
L 187.071802 291.094978 
L 187.206291 289.937002 
L 187.340779 291.078628 
L 187.475267 287.880248 
L 187.609755 279.829236 
L 188.01322 203.420601 
L 188.147708 186.913189 
L 188.282196 187.133435 
L 188.416684 186.168776 
L 188.551173 189.502766 
L 188.685661 195.946653 
L 188.820149 191.505661 
L 188.954637 195.970217 
L 189.089126 204.398244 
L 189.627078 266.810179 
L 189.761567 269.416106 
L 189.896055 274.686629 
L 190.030543 272.234586 
L 190.299519 274.078307 
L 190.434008 272.899172 
L 190.971961 276.346651 
L 191.106449 272.87128 
L 191.240937 272.382699 
L 191.375425 272.824153 
L 191.509913 268.365849 
L 191.644402 269.925366 
L 191.913378 268.651015 
L 192.182354 262.977028 
L 192.316843 263.328075 
L 192.451331 262.82651 
L 192.585819 264.156163 
L 192.720307 269.964798 
L 192.989284 271.230974 
L 193.392748 268.525503 
L 193.661725 271.427176 
L 193.796213 271.965289 
L 194.065189 264.024881 
L 194.603142 159.573794 
L 194.73763 154.628832 
L 194.872119 144.609549 
L 195.006607 146.195996 
L 195.141095 150.972167 
L 195.275583 143.523225 
L 195.54456 157.007781 
L 195.948024 251.673776 
L 196.217001 262.080654 
L 196.351489 264.020553 
L 196.485977 273.558468 
L 196.620465 272.901576 
L 196.889442 273.46229 
L 197.02393 274.598627 
L 197.158418 272.856854 
L 197.292907 266.491832 
L 197.830859 197.302755 
L 197.965348 199.630249 
L 198.099836 196.289526 
L 198.234324 200.723786 
L 198.5033 187.306555 
L 198.772277 201.201788 
L 199.31023 274.239404 
L 199.713694 283.41473 
L 199.848183 282.238 
L 200.117159 282.970871 
L 200.251647 281.175239 
L 200.386135 275.356505 
L 200.520624 274.950636 
L 200.655112 261.903207 
L 200.7896 214.354531 
L 200.924088 212.370872 
L 201.058576 200.60645 
L 201.193065 200.245784 
L 201.327553 197.542237 
L 201.462041 199.729792 
L 201.731018 187.848514 
L 201.865506 189.219043 
L 202.134482 212.070798 
L 202.403459 265.912363 
L 202.806923 275.778724 
L 203.0759 267.248748 
L 203.210388 271.605585 
L 203.344876 271.73254 
L 203.748341 262.291283 
L 203.882829 244.784106 
L 204.151805 182.395735 
L 204.420782 165.809939 
L 204.55527 160.142203 
L 204.689758 163.602667 
L 204.824246 157.058274 
L 204.958735 173.192518 
L 205.093223 173.440655 
L 205.765664 261.706524 
L 205.900152 262.221073 
L 206.03464 266.047492 
L 206.169129 280.999234 
L 206.303617 281.483488 
L 206.572593 285.449364 
L 206.84157 286.266391 
L 207.110546 276.813112 
L 207.379522 267.566614 
L 207.514011 266.682744 
L 207.917475 274.856863 
L 208.051964 274.608725 
L 208.32094 268.20379 
L 208.589916 269.816685 
L 208.858893 277.923961 
L 208.993381 281.602748 
L 209.127869 282.190392 
L 209.262357 281.642661 
L 209.396846 275.747466 
L 209.531334 276.852545 
L 209.80031 276.434654 
L 209.934799 277.432495 
L 210.203775 265.166988 
L 211.010704 108.967158 
L 211.279681 134.766752 
L 211.683145 168.097038 
L 212.221098 256.344152 
L 212.355586 258.825048 
L 212.759051 274.171599 
L 212.893539 273.962894 
L 213.028027 274.06388 
L 213.162516 276.731361 
L 213.431492 258.904395 
L 213.56598 220.558937 
L 213.834957 136.054567 
L 213.969445 140.672045 
L 214.103933 139.573218 
L 214.238421 142.555199 
L 214.910862 181.144467 
L 215.448815 262.00227 
L 215.583303 267.003496 
L 215.717792 267.625764 
L 216.121256 271.918643 
L 216.255745 272.882822 
L 216.390233 275.290623 
L 216.524721 271.253576 
L 216.659209 263.681047 
L 217.062674 149.788703 
L 217.197162 151.714656 
L 217.33165 151.795926 
L 217.466138 163.343949 
L 217.600627 162.050844 
L 217.735115 150.109936 
L 217.869603 155.378535 
L 218.273068 197.875972 
L 218.542044 257.12367 
L 218.811021 274.044164 
L 218.945509 266.571178 
L 219.483462 277.369498 
L 219.61795 279.181 
L 219.886926 265.330008 
L 220.290391 163.001558 
L 220.693856 151.25589 
L 220.828344 161.997946 
L 220.962832 158.04842 
L 221.231808 185.40128 
L 221.500785 199.368646 
L 221.769761 256.986136 
L 222.038738 272.733747 
L 222.173226 271.975388 
L 222.307714 273.209344 
L 222.576691 279.304588 
L 222.845667 281.962932 
L 222.980155 280.278385 
L 223.114643 282.165386 
L 223.38362 261.462233 
L 223.518108 265.355495 
L 223.652596 265.197764 
L 223.921573 258.184507 
L 224.190549 257.506937 
L 224.325037 260.014763 
L 224.459525 259.381435 
L 224.728502 255.492982 
L 225.131967 262.817854 
L 225.266455 261.320372 
L 225.535431 262.803908 
L 225.669919 261.480988 
L 226.073384 271.324266 
L 226.34236 274.378861 
L 226.476849 274.306247 
L 226.745825 271.134797 
L 226.880313 273.436803 
L 227.014802 273.682056 
L 227.14929 273.382463 
L 227.283778 271.950862 
L 227.418266 273.642142 
L 227.552754 273.771982 
L 227.687243 273.601267 
L 227.956219 272.482723 
L 228.090707 278.349546 
L 228.225195 278.388979 
L 228.359684 279.500309 
L 228.494172 278.720791 
L 228.62866 279.700358 
L 228.763148 279.584945 
L 228.897637 277.276687 
L 229.301101 278.188449 
L 229.435589 271.920086 
L 229.570078 257.712757 
L 230.242519 94.856968 
L 230.377007 79.889356 
L 230.511495 110.133309 
L 230.780471 118.154506 
L 231.049448 145.865626 
L 231.587401 255.5353 
L 231.856377 266.857306 
L 232.125354 271.714266 
L 232.39433 276.412052 
L 232.528818 275.591178 
L 232.797795 258.336467 
L 232.932283 221.746247 
L 233.201259 133.820366 
L 233.335748 125.572671 
L 233.470236 135.959833 
L 233.604724 136.183926 
L 233.739212 149.088532 
L 233.8737 134.221906 
L 234.008189 141.003857 
L 234.815118 266.270624 
L 234.949606 266.001808 
L 235.218583 271.957595 
L 235.622047 279.763354 
L 235.756535 279.160322 
L 236.025512 266.392769 
L 236.563465 129.628473 
L 236.832441 117.309587 
L 237.63937 201.737977 
L 237.908347 260.320126 
L 238.177323 268.479819 
L 238.849764 283.528701 
L 238.984252 282.696766 
L 239.118741 278.865057 
L 239.253229 264.84287 
L 239.791182 128.85184 
L 240.194646 146.742283 
L 240.463623 166.036436 
L 240.732599 179.610918 
L 241.270552 257.766135 
L 241.674017 263.693069 
L 241.942993 276.749635 
L 242.077481 283.30605 
L 242.21197 282.674645 
L 242.480946 264.549529 
L 242.884411 151.831993 
L 243.018899 159.772882 
L 243.153387 157.506461 
L 243.287875 146.432111 
L 243.422363 154.482643 
L 243.556852 151.64637 
L 243.825828 168.432216 
L 244.229293 241.050499 
L 244.498269 263.631996 
L 244.767246 268.951088 
L 245.17071 276.87707 
L 245.305198 277.749399 
L 245.439687 277.451249 
L 245.574175 276.212003 
L 245.708663 264.657247 
L 245.843151 270.152344 
L 246.112128 267.144876 
L 246.381104 261.921481 
L 246.515592 261.887818 
L 247.188033 272.217755 
L 247.322522 272.626509 
L 247.45701 273.500761 
L 247.591498 273.143462 
L 247.725986 276.333187 
L 247.860475 274.883312 
L 248.129451 276.217774 
L 248.263939 275.327171 
L 248.398427 276.01532 
L 248.532916 275.860955 
L 248.667404 277.822013 
L 248.801892 277.722469 
L 249.205357 279.273811 
L 249.339845 279.391148 
L 249.608821 278.435144 
L 249.743309 278.567869 
L 249.877798 278.265391 
L 250.550239 275.074224 
L 250.819215 275.376702 
L 250.953703 276.16151 
L 251.088192 275.016518 
L 251.357168 276.284136 
L 251.491656 285.251719 
L 251.626144 284.758329 
L 251.760633 285.192089 
L 251.895121 285.030992 
L 252.164097 272.69239 
L 252.70205 144.302743 
L 252.836538 164.188868 
L 252.971027 160.718306 
L 253.240003 173.725821 
L 253.374491 175.089136 
L 253.508979 172.141298 
L 253.777956 205.211905 
L 254.046932 256.961611 
L 254.315909 278.451013 
L 254.719373 286.869904 
L 254.853862 286.628018 
L 255.122838 288.3746 
L 255.391814 267.451202 
L 255.660791 173.514712 
L 255.795279 176.98816 
L 256.198744 161.196308 
L 256.333232 164.897696 
L 256.46772 162.212903 
L 256.602208 163.418006 
L 257.409138 259.220338 
L 257.812602 266.748625 
L 258.081579 282.070651 
L 258.216067 283.142548 
L 258.350555 282.407753 
L 258.619532 268.129733 
L 258.888508 178.355322 
L 259.022996 179.231017 
L 259.157484 170.10955 
L 259.291973 169.5296 
L 259.426461 153.927699 
L 259.695437 167.731563 
L 259.829925 156.515833 
L 259.964414 165.657497 
L 260.771343 262.313884 
L 261.040319 264.569245 
L 261.309296 272.124943 
L 261.443784 275.363237 
L 261.71276 272.426941 
L 261.847249 259.942149 
L 262.116225 171.11749 
L 262.250713 175.316115 
L 262.654178 148.686991 
L 262.788666 156.04264 
L 262.923154 151.236654 
L 263.326619 186.650624 
L 263.461107 197.63072 
L 263.864572 246.773536 
L 264.268036 264.952512 
L 264.402525 264.189344 
L 264.671501 267.644999 
L 264.805989 267.518045 
L 264.940478 266.560118 
L 265.074966 258.935172 
L 265.209454 239.675162 
L 265.612919 124.520971 
L 265.881895 106.272747 
L 266.016383 115.845767 
L 266.150871 115.714004 
L 266.28536 115.262451 
L 266.419848 119.928499 
L 266.688824 157.482416 
L 266.957801 236.885535 
L 267.226777 253.67619 
L 267.361265 252.243146 
L 267.495754 268.734208 
L 267.630242 268.415861 
L 267.76473 270.299015 
L 267.899218 270.612553 
L 268.168195 277.182433 
L 268.302683 278.073998 
L 268.437171 275.493077 
L 268.706147 278.048511 
L 268.975124 274.527455 
L 269.2441 272.628432 
L 269.916541 258.025814 
L 270.320006 259.929646 
L 270.588982 264.853449 
L 270.723471 279.057893 
L 270.857959 280.105746 
L 270.992447 278.616439 
L 271.126935 279.506561 
L 271.261424 279.536376 
L 271.395912 279.34883 
L 271.799376 282.147593 
L 271.933865 280.751577 
L 272.068353 281.109357 
L 272.202841 280.459679 
L 272.337329 280.697718 
L 272.471817 279.847991 
L 272.606306 277.665725 
L 272.740794 278.958349 
L 272.875282 278.63327 
L 273.00977 277.950891 
L 273.144258 275.598391 
L 273.278747 275.497886 
L 273.547723 278.499583 
L 273.682211 278.715501 
L 273.8167 279.404613 
L 273.951188 278.53613 
L 274.085676 289.270974 
L 274.354652 290.916569 
L 274.489141 289.332046 
L 274.758117 274.492832 
L 275.29607 167.109296 
L 275.565046 154.769732 
L 275.699535 155.109719 
L 275.834023 173.214638 
L 275.968511 175.515683 
L 276.102999 185.757617 
L 276.77544 265.743571 
L 277.447881 283.291623 
L 277.58237 286.716982 
L 277.716858 286.322655 
L 277.851346 281.886952 
L 277.985834 271.818618 
L 278.389299 210.796448 
L 278.523787 191.144995 
L 278.658275 189.129598 
L 278.792763 179.533014 
L 278.927252 191.766783 
L 279.06174 185.896593 
L 279.196228 188.005283 
L 279.330716 195.766802 
L 280.137646 276.205271 
L 280.272134 278.612111 
L 280.406622 270.184083 
L 280.54111 269.897474 
L 280.810087 271.078533 
L 280.944575 270.450014 
L 281.213551 262.462959 
L 281.348039 233.263975 
L 281.482528 162.191263 
L 281.617016 151.894508 
L 281.751504 128.293049 
L 281.885992 129.454872 
L 282.154969 143.081771 
L 282.289457 124.80806 
L 282.423945 128.931667 
L 282.558433 138.120939 
L 282.82741 186.987726 
L 283.096386 256.140256 
L 283.365363 262.827953 
L 283.499851 265.05446 
L 283.634339 264.377371 
L 283.768827 264.387951 
L 283.903316 264.578863 
L 284.037804 265.895051 
L 284.172292 266.025371 
L 284.441268 260.786587 
L 285.113709 144.503273 
L 285.248198 143.417911 
L 285.382686 138.841308 
L 285.517174 148.163786 
L 285.651662 145.035615 
L 285.78615 148.555228 
L 286.055127 202.149135 
L 286.324103 252.158029 
L 286.59308 261.920519 
L 286.727568 261.797893 
L 286.862056 280.901133 
L 286.996544 280.960763 
L 287.131033 279.974464 
L 287.265521 280.58519 
L 287.668985 277.028068 
L 287.803474 277.912901 
L 288.07245 277.030473 
L 288.206938 274.840513 
L 288.341427 274.78473 
L 288.475915 272.418285 
L 288.610403 272.044154 
L 288.744891 270.910703 
L 288.879379 273.762845 
L 289.013868 274.105237 
L 289.148356 271.270888 
L 289.417332 278.486118 
L 289.55182 279.683046 
L 289.820797 279.318534 
L 289.955285 280.115364 
L 290.089773 278.603455 
L 290.224262 280.163452 
L 290.35875 279.248805 
L 290.493238 280.237028 
L 290.627726 278.68232 
L 291.031191 260.553357 
L 291.300167 193.812476 
L 291.434655 188.181288 
L 291.569144 188.793938 
L 291.703632 192.891097 
L 291.972608 180.039388 
L 292.376073 193.228679 
L 293.048514 270.262468 
L 293.183002 271.519507 
L 293.31749 270.358164 
L 293.451979 271.116042 
L 293.586467 270.178793 
L 293.720955 272.674597 
L 293.855443 272.940047 
L 294.258908 248.81923 
L 294.527884 190.346242 
L 294.796861 158.399468 
L 294.931349 142.397949 
L 295.065837 142.26282 
L 295.200325 150.301329 
L 295.334814 144.533569 
L 295.60379 172.82512 
L 295.738278 187.436394 
L 296.141743 258.224901 
L 296.276231 257.327566 
L 296.410719 264.586076 
L 296.545208 282.411119 
L 296.948672 284.592423 
L 297.486625 286.573678 
L 297.621113 286.225515 
L 297.755601 286.221668 
L 298.024578 283.023769 
L 298.159066 282.87229 
L 298.428042 280.714068 
L 298.697019 276.859277 
L 298.831507 275.715247 
L 298.965995 275.571942 
L 299.100484 275.930203 
L 299.36946 279.743157 
L 299.503948 279.232936 
L 299.638436 280.787644 
L 299.772925 271.056893 
L 299.907413 274.484176 
L 300.041901 274.180255 
L 300.176389 275.053065 
L 300.310877 274.767418 
L 300.579854 263.716151 
L 301.252295 128.627266 
L 301.386783 128.696513 
L 301.521271 141.985829 
L 301.65576 134.992769 
L 301.790248 144.476824 
L 302.597177 254.078212 
L 302.731665 255.844029 
L 303.000642 268.343247 
L 303.13513 268.569264 
L 303.269618 269.053037 
L 303.404106 271.530567 
L 303.538595 271.952786 
L 303.807571 255.473746 
L 304.345524 165.03571 
L 304.6145 154.435516 
L 304.748988 162.733704 
L 304.883477 153.089993 
L 305.017965 159.215053 
L 306.093871 266.783249 
L 306.228359 267.801287 
L 306.497335 278.031199 
L 306.766312 279.068473 
L 306.9008 274.325483 
L 307.035288 263.708938 
L 307.304265 170.55389 
L 307.438753 177.868664 
L 307.842217 158.465831 
L 307.976706 165.568533 
L 308.111194 157.088089 
L 308.245682 162.086911 
L 308.649147 208.425674 
L 309.052611 265.203535 
L 309.590564 277.523863 
L 309.994029 279.239668 
L 310.128517 275.660426 
L 310.263005 262.952022 
L 310.531982 170.441843 
L 310.66647 171.601743 
L 310.935446 169.295889 
L 311.069934 159.876272 
L 311.204423 166.378828 
L 311.338911 165.078509 
L 311.473399 158.255202 
L 311.607887 171.487773 
L 311.876864 209.33936 
L 312.14584 251.976254 
L 312.414817 263.868112 
L 312.818281 272.541873 
L 312.952769 272.104746 
L 313.087258 274.00425 
L 313.221746 273.904707 
L 313.356234 275.493077 
L 313.625211 264.859701 
L 313.759699 256.910637 
L 313.894187 260.287907 
L 314.028675 257.740648 
L 314.163163 259.637748 
L 314.297652 256.857258 
L 314.566628 263.468494 
L 314.701116 264.20858 
L 314.970093 268.996773 
L 315.104581 268.958783 
L 315.239069 268.660152 
L 315.508045 271.614241 
L 315.642534 272.155239 
L 315.777022 271.822465 
L 316.180487 274.834261 
L 316.314975 274.391364 
L 316.718439 276.7631 
L 316.852928 277.014123 
L 316.987416 276.154297 
L 317.121904 276.220178 
L 317.256392 275.092017 
L 317.39088 275.237726 
L 317.525369 273.687346 
L 317.659857 274.613534 
L 317.928833 272.075412 
L 318.332298 268.311028 
L 318.466786 268.970324 
L 318.601274 268.46395 
L 318.735763 269.931136 
L 318.870251 269.766192 
L 319.139227 270.890987 
L 319.273715 280.800628 
L 319.67718 281.927346 
L 319.811668 279.329113 
L 319.946157 271.31513 
L 320.349621 148.405672 
L 320.484109 132.132933 
L 320.887574 159.617074 
L 321.022062 164.318708 
L 321.291039 179.212743 
L 321.425527 181.02665 
L 321.560015 199.606204 
L 321.828991 255.553092 
L 321.96348 263.701725 
L 322.097968 264.494227 
L 322.635921 281.320467 
L 322.770409 281.670072 
L 322.904897 281.005967 
L 323.173874 270.495217 
L 323.44285 174.307695 
L 323.577338 174.672207 
L 323.711826 174.875142 
L 323.980803 154.545639 
L 324.249779 158.111417 
L 324.384268 160.898638 
L 324.787732 197.415763 
L 325.056709 252.350865 
L 325.325685 261.692578 
L 325.863638 279.649384 
L 325.998126 281.430109 
L 326.132614 281.495991 
L 326.267103 278.258659 
L 326.401591 269.191532 
L 326.670567 167.06265 
L 326.805055 173.063159 
L 326.939544 174.244218 
L 327.20852 160.917874 
L 327.343008 169.12277 
L 327.611985 165.340593 
L 327.746473 170.236985 
L 328.149937 225.345687 
L 328.418914 256.423498 
L 328.68789 269.330989 
L 328.822379 271.802749 
L 328.956867 281.924942 
L 329.225843 282.879022 
L 329.360331 282.025447 
L 329.629308 269.096316 
L 330.032772 179.409907 
L 330.301749 167.985472 
L 330.570725 159.1107 
L 330.839702 181.129079 
L 330.97419 182.350532 
L 331.108678 185.116595 
L 331.781119 261.572357 
L 332.050096 268.78951 
L 332.184584 279.645056 
L 332.319072 280.608273 
L 332.45356 279.938397 
L 332.588049 280.933353 
L 332.857025 268.23072 
L 333.26049 178.773693 
L 333.394978 180.697723 
L 333.663954 165.674809 
L 333.798442 166.876065 
L 333.932931 170.671226 
L 334.336395 188.669389 
L 334.73986 256.912079 
L 335.143325 272.758272 
L 335.277813 272.558223 
L 335.412301 272.656324 
L 335.546789 272.943894 
L 335.681277 272.838099 
L 335.950254 275.439217 
L 336.084742 273.329085 
L 336.622695 256.743288 
L 336.757183 257.543965 
L 336.891671 255.701206 
L 337.295136 262.106141 
L 337.698601 266.873656 
L 337.833089 266.390845 
L 338.102065 270.520704 
L 338.236553 270.286993 
L 338.371042 270.928977 
L 338.50553 268.576477 
L 339.043483 271.758507 
L 339.446947 274.776555 
L 339.581436 274.29134 
L 339.715924 273.113647 
L 339.850412 273.374769 
L 339.9849 272.588999 
L 340.119388 272.47551 
L 340.253877 271.99847 
L 340.388365 273.486335 
L 340.522853 271.482959 
L 340.657341 272.085992 
L 340.926318 271.76524 
L 341.060806 268.402396 
L 341.329782 273.319948 
L 341.464271 273.217519 
L 341.598759 273.749861 
L 341.733247 275.327652 
L 341.867735 283.206506 
L 342.136712 283.308935 
L 342.2712 283.955247 
L 342.540176 271.167497 
L 342.943641 155.156365 
L 343.212617 171.885947 
L 343.347106 171.146343 
L 343.75057 185.635472 
L 343.885058 187.322424 
L 344.019547 186.654952 
L 344.423011 255.032773 
L 345.22994 280.912675 
L 345.364429 282.004288 
L 345.498917 281.634005 
L 345.633405 277.38681 
L 345.767893 269.243949 
L 346.03687 184.381318 
L 346.171358 188.52897 
L 346.440334 174.866005 
L 346.574823 169.456025 
L 346.843799 176.384165 
L 347.112775 178.266358 
L 347.381752 212.995063 
L 347.650728 252.186883 
L 348.054193 270.277856 
L 348.188681 271.468533 
L 348.323169 280.501997 
L 348.457658 281.356053 
L 348.592146 283.240168 
L 348.726634 283.043485 
L 348.99561 270.044145 
L 349.264587 183.323367 
L 349.399075 184.807865 
L 349.668052 167.124203 
L 349.80254 162.982803 
L 350.206004 181.812419 
L 350.340493 183.000691 
L 351.012934 263.754141 
L 351.147422 266.091253 
L 351.550886 282.873251 
L 351.685375 282.156249 
L 351.954351 282.52557 
L 352.088839 281.118494 
L 352.223328 273.778233 
L 352.492304 179.217552 
L 352.626792 186.432302 
L 352.76128 174.983822 
L 352.895769 174.270186 
L 353.030257 165.934488 
L 353.164745 173.195403 
L 353.299233 171.104025 
L 353.56821 153.205887 
L 354.240651 270.420199 
L 354.375139 271.565672 
L 354.644115 277.468561 
L 354.913092 281.77202 
L 355.182068 282.821316 
L 355.316556 280.402453 
L 355.451045 271.211739 
L 355.854509 197.406627 
L 356.123486 158.809665 
L 356.257974 160.535088 
L 356.392462 169.20404 
L 356.52695 168.566384 
L 356.661439 179.244963 
L 356.795927 177.985039 
L 357.33388 266.080673 
L 357.602856 275.743138 
L 357.737344 277.721027 
L 357.871832 282.00525 
L 358.006321 281.422896 
L 358.140809 281.638814 
L 358.275297 282.383708 
L 358.409785 282.295225 
L 358.678762 281.027126 
L 359.082226 262.433625 
L 359.351203 256.487937 
L 359.485691 250.173889 
L 359.620179 260.980384 
L 359.754667 262.404291 
L 359.889156 262.573563 
L 360.427109 276.959783 
L 360.561597 277.644085 
L 360.965061 281.819628 
L 361.234038 281.779714 
L 361.368526 281.586878 
L 361.503014 282.901143 
L 361.771991 282.490946 
L 361.906479 283.830698 
L 362.040967 283.782609 
L 362.175455 284.160586 
L 362.309944 284.201462 
L 362.57892 280.765523 
L 362.713408 280.715992 
L 362.982385 279.573404 
L 363.116873 278.070632 
L 363.251361 277.968203 
L 363.385849 279.066549 
L 363.520337 278.206723 
L 363.654826 278.146612 
L 364.05829 280.952107 
L 364.192778 254.763957 
L 364.730731 261.065021 
L 364.86522 259.86136 
L 364.999708 247.694916 
L 365.134196 225.387044 
L 365.403172 136.433987 
L 365.672149 105.924104 
L 365.806637 99.960623 
L 366.075613 117.026345 
L 366.34459 113.859703 
L 366.479078 125.373103 
L 367.017031 252.663442 
L 367.151519 257.658416 
L 367.286007 255.910872 
L 367.554984 267.35262 
L 367.689472 268.22543 
L 367.958448 273.160293 
L 368.227425 249.429957 
L 368.496401 152.786073 
L 368.765378 100.532398 
L 369.034354 89.552302 
L 369.168842 94.308276 
L 369.303331 93.86057 
L 369.437819 97.253709 
L 369.572307 95.116166 
L 369.706795 111.341778 
L 370.244748 236.078126 
L 370.782701 280.616929 
L 370.917189 280.924216 
L 371.051677 281.822513 
L 371.186166 281.541675 
L 371.455142 266.611092 
L 371.858607 172.647192 
L 372.127583 204.871437 
L 372.262071 200.780531 
L 372.396559 202.217902 
L 372.665536 191.450359 
L 372.800024 195.273411 
L 373.203489 235.277449 
L 373.472465 257.701215 
L 373.87593 279.053084 
L 374.010418 288.139446 
L 374.144906 287.992295 
L 374.279394 289.207977 
L 374.413883 288.701122 
L 374.682859 272.015782 
L 375.220812 181.942259 
L 375.489788 178.285593 
L 375.624277 178.510167 
L 375.893253 185.094955 
L 376.027741 189.42342 
L 376.565694 257.517035 
L 376.83467 266.47452 
L 376.969159 269.332432 
L 377.103647 281.233907 
L 377.238135 280.132676 
L 377.507112 282.221168 
L 377.6416 280.240394 
L 377.776088 283.806653 
L 378.045064 281.643142 
L 378.179553 271.928741 
L 378.314041 271.298298 
L 378.448529 264.14366 
L 378.583017 265.15208 
L 378.717505 264.227815 
L 378.851994 268.773641 
L 378.986482 268.007588 
L 379.12097 268.922716 
L 379.255458 271.09873 
L 379.389947 270.981394 
L 379.927899 280.306757 
L 380.062388 280.098533 
L 380.196876 280.518347 
L 380.331364 270.532726 
L 380.465852 271.216067 
L 380.869317 274.142746 
L 381.138293 263.162169 
L 381.272782 235.856437 
L 381.541758 160.681277 
L 381.810734 140.360911 
L 381.945223 141.96467 
L 382.214199 148.50233 
L 382.348687 140.449876 
L 382.752152 190.698251 
L 383.021128 259.234764 
L 383.155616 267.225185 
L 383.290105 267.892656 
L 383.424593 269.190089 
L 383.559081 264.222525 
L 383.693569 263.505042 
L 383.962546 263.854166 
L 384.097034 265.053979 
L 384.231522 263.255942 
L 384.36601 264.659171 
L 385.038451 149.573266 
L 385.17294 152.035889 
L 385.307428 167.291071 
L 385.576404 161.602176 
L 386.248845 262.103256 
L 386.921286 280.751097 
L 387.055775 279.929741 
L 387.190263 281.217557 
L 387.324751 280.521232 
L 387.459239 280.683772 
L 387.593727 282.185102 
L 387.728216 281.606114 
L 387.862704 282.933843 
L 387.997192 281.755189 
L 388.13168 283.358466 
L 388.266169 282.366396 
L 388.400657 280.364944 
L 388.535145 280.45487 
L 388.669633 279.786918 
L 388.804121 280.935276 
L 388.93861 278.363492 
L 389.207586 280.521232 
L 389.476562 287.265674 
L 389.611051 286.198586 
L 389.745539 287.021865 
L 389.880027 286.969448 
L 390.014515 271.942206 
L 390.149004 272.181207 
L 390.41798 272.203328 
L 390.552468 272.071565 
L 390.686956 266.526456 
L 390.821445 266.71304 
L 390.955933 257.78537 
L 391.224909 201.146486 
L 391.359397 169.500747 
L 391.493886 165.476684 
L 391.762862 176.26202 
L 391.89735 175.713809 
L 392.031839 168.428369 
L 392.166327 172.159572 
L 392.300815 181.2166 
L 392.569791 241.891089 
L 392.70428 268.405282 
L 392.973256 273.289652 
L 393.107744 273.952795 
L 393.376721 266.835666 
L 393.645697 272.602945 
L 393.780185 269.182876 
L 393.914673 270.579372 
L 394.049162 263.102539 
L 394.721603 147.50497 
L 394.990579 146.423936 
L 395.125067 146.000275 
L 395.259556 157.483378 
L 395.394044 158.360997 
L 395.931997 247.266446 
L 396.200973 260.99433 
L 396.335461 257.225137 
L 396.46995 282.212512 
L 396.604438 282.599146 
L 397.007902 285.660473 
L 397.276879 272.490418 
L 397.545855 198.141903 
L 397.680343 192.90937 
L 397.94932 169.32907 
L 398.083808 155.745452 
L 398.218296 168.599565 
L 398.352785 163.791655 
L 398.487273 166.830381 
L 398.487273 166.830381 
" clip-path="url(#pe3fbcd42c1)" style="fill: none; stroke: #1f77b4; stroke-width: 1.5; stroke-linecap: square"/>
   </g>
   <g id="line2d_13">
    <path d="M 73.832727 281.264603 
L 73.967215 281.278937 
L 74.236192 280.52341 
L 74.37068 278.637599 
L 74.505168 281.289027 
L 74.639657 279.622727 
L 74.774145 280.792943 
L 74.908633 267.908225 
L 75.043121 216.270129 
L 75.177609 248.914518 
L 75.446586 249.810202 
L 75.581074 248.283584 
L 75.715562 249.117981 
L 75.85005 246.327888 
L 75.984539 247.688511 
L 76.119027 247.771804 
L 76.388003 244.820567 
L 76.522492 286.281227 
L 77.060444 274.48587 
L 77.194933 257.421774 
L 77.329421 268.65432 
L 77.463909 266.885355 
L 77.598397 267.004368 
L 77.732885 270.923173 
L 77.867374 259.239107 
L 78.001862 236.654179 
L 78.270838 126.621919 
L 78.405327 108.098097 
L 78.539815 105.990462 
L 78.674303 111.831383 
L 78.808791 105.331268 
L 78.943279 115.558254 
L 79.077768 110.779472 
L 80.153673 267.652432 
L 80.288161 268.325368 
L 80.42265 260.865466 
L 80.557138 279.803489 
L 80.691626 270.013897 
L 80.826114 272.305414 
L 80.960603 270.640257 
L 81.095091 261.760911 
L 81.229579 239.227391 
L 81.498555 140.775179 
L 81.633044 170.117431 
L 81.767532 158.288017 
L 81.90202 156.274698 
L 82.170996 197.219929 
L 82.305485 192.771676 
L 82.439973 194.759542 
L 82.574461 204.014294 
L 82.708949 225.255544 
L 82.977926 197.606674 
L 83.112414 214.242966 
L 83.246902 197.278353 
L 83.38139 197.08018 
L 83.650367 276.212572 
L 83.784855 269.964182 
L 83.919343 286.9936 
L 84.053831 288.679724 
L 84.18832 286.446833 
L 84.322808 197.078652 
L 84.457296 220.756222 
L 84.591784 197.078652 
L 84.860761 197.078652 
L 84.995249 197.538555 
L 85.264225 163.056555 
L 85.398714 181.119357 
L 85.533202 181.353136 
L 85.936666 215.970898 
L 86.205643 263.381579 
L 86.340131 261.228348 
L 86.474619 270.200548 
L 86.609107 267.91479 
L 86.743596 273.661188 
L 87.012572 291.777452 
L 87.14706 290.957492 
L 87.281549 288.89858 
L 87.416037 290.487994 
L 87.685013 286.406015 
L 87.95399 244.165297 
L 88.088478 264.477404 
L 88.222966 255.057844 
L 88.357454 262.25611 
L 88.626431 249.86636 
L 88.760919 257.099707 
L 88.895407 239.91416 
L 89.029895 255.034654 
L 89.164384 253.25772 
L 89.298872 257.510243 
L 89.43336 281.769183 
L 89.567848 280.296892 
L 89.702336 280.752997 
L 89.836825 276.943734 
L 89.971313 278.406721 
L 90.105801 246.250971 
L 90.240289 260.828602 
L 90.374777 263.13725 
L 90.643754 257.538282 
L 90.91273 267.345101 
L 91.047218 259.229717 
L 91.181707 242.085745 
L 91.316195 254.272361 
L 91.450683 244.694224 
L 91.585171 258.895707 
L 91.71966 250.240688 
L 91.854148 252.712034 
L 91.988636 250.835425 
L 92.123124 251.635102 
L 92.257612 257.167659 
L 92.392101 254.786886 
L 92.795565 266.281044 
L 92.930053 268.867244 
L 93.064542 267.93626 
L 93.19903 264.668239 
L 93.333518 283.061343 
L 93.468006 275.775948 
L 93.602495 275.575003 
L 93.736983 277.734812 
L 94.005959 268.140882 
L 94.140447 259.752015 
L 94.409424 167.563691 
L 94.543912 187.92435 
L 94.812888 156.085131 
L 94.947377 157.17351 
L 95.216353 174.738519 
L 95.48533 158.99239 
L 95.754306 238.531972 
L 96.023282 267.161431 
L 96.157771 269.344571 
L 96.292259 268.105811 
L 96.561235 270.763019 
L 96.695723 267.838643 
L 96.830212 268.131638 
L 96.9647 271.264714 
L 97.233676 266.049428 
L 97.502653 218.595201 
L 97.637141 167.125383 
L 97.771629 189.620335 
L 97.906117 170.644227 
L 98.040606 187.809541 
L 98.175094 176.992821 
L 98.309582 182.042262 
L 98.44407 177.981254 
L 98.847535 208.150265 
L 99.250999 273.234477 
L 99.385488 272.26954 
L 99.519976 274.805959 
L 99.654464 273.438344 
L 99.788952 287.490456 
L 100.057929 279.187335 
L 100.192417 281.186638 
L 100.595882 278.995446 
L 100.73037 280.277865 
L 100.864858 283.199492 
L 100.999346 280.021093 
L 101.133834 283.417961 
L 101.268323 281.235738 
L 101.402811 277.153495 
L 101.537299 264.594676 
L 101.671787 276.168556 
L 101.806276 261.241197 
L 101.940764 262.071107 
L 102.075252 268.77107 
L 102.20974 266.40067 
L 102.344228 268.197335 
L 102.478717 271.917917 
L 102.613205 279.91553 
L 102.747693 272.586687 
L 102.882181 283.573183 
L 103.016669 253.528762 
L 103.285646 273.835751 
L 103.554622 266.518292 
L 103.68911 264.407447 
L 103.823599 257.015437 
L 104.092575 162.707786 
L 104.227063 174.732253 
L 104.361552 151.731171 
L 104.49604 167.718364 
L 104.765016 145.261332 
L 105.168481 177.433608 
L 105.571945 235.83671 
L 105.706434 263.805862 
L 105.97541 258.329591 
L 106.244387 290.490261 
L 106.378875 284.000687 
L 106.513363 283.311816 
L 106.647851 281.676763 
L 106.782339 282.319853 
L 106.916828 279.202957 
L 107.051316 280.416174 
L 107.320292 222.640979 
L 107.589269 262.911138 
L 107.723757 253.052711 
L 107.858245 253.493073 
L 108.26171 244.683774 
L 108.396198 245.91961 
L 108.530686 242.104179 
L 108.665174 248.964674 
L 108.934151 285.824737 
L 109.068639 280.036841 
L 109.203127 280.915672 
L 109.337615 277.309438 
L 109.472104 265.917886 
L 109.606592 270.233529 
L 109.74108 269.258942 
L 110.010056 270.36354 
L 110.144545 269.995926 
L 110.279033 270.567882 
L 110.413521 270.626948 
L 110.682498 276.212506 
L 111.085962 273.486585 
L 111.22045 274.664592 
L 111.489427 264.811453 
L 111.623915 266.005318 
L 111.758403 262.705644 
L 112.161868 270.448193 
L 112.565333 271.456838 
L 112.699821 250.158166 
L 112.968797 264.812066 
L 113.103285 263.099406 
L 113.237774 265.954406 
L 113.372262 264.669792 
L 113.50675 268.418114 
L 113.641238 268.726843 
L 113.775726 272.464774 
L 113.910215 269.297819 
L 114.044703 271.612179 
L 114.179191 268.30245 
L 114.313679 259.449892 
L 114.448168 260.615578 
L 114.851632 250.830787 
L 114.98612 245.801904 
L 115.120609 245.9587 
L 115.389585 260.21419 
L 115.524073 260.802485 
L 115.79305 260.676303 
L 115.927538 262.070599 
L 116.062026 261.994751 
L 116.196514 257.907511 
L 116.331002 268.934292 
L 116.599979 260.542416 
L 116.734467 242.559137 
L 117.003444 126.771114 
L 117.27242 89.547802 
L 117.541396 78.302436 
L 117.675885 81.745544 
L 117.810373 90.984111 
L 118.213837 136.132018 
L 118.482814 221.161569 
L 118.886279 254.988216 
L 119.020767 253.24316 
L 119.289743 259.427183 
L 119.424231 255.834023 
L 119.55872 257.552063 
L 119.693208 260.910371 
L 119.827696 258.564315 
L 119.962184 239.767032 
L 120.231161 122.194145 
L 120.500137 94.960115 
L 120.634625 96.101184 
L 120.769114 87.202838 
L 120.903602 88.955632 
L 121.03809 84.603121 
L 121.172578 95.264029 
L 121.307066 116.260924 
L 121.441555 119.581317 
L 121.710531 221.619447 
L 121.845019 224.930961 
L 121.979507 246.418814 
L 122.113996 243.397465 
L 122.248484 246.025493 
L 122.382972 251.592556 
L 122.51746 265.880406 
L 122.786437 258.824074 
L 122.920925 260.913265 
L 123.055413 255.102639 
L 123.189901 239.497233 
L 123.458878 127.105948 
L 123.727854 86.934368 
L 123.862342 89.717358 
L 123.996831 86.147557 
L 124.669272 130.440663 
L 125.072736 234.574238 
L 125.207225 257.446319 
L 125.341713 258.387342 
L 125.476201 258.47479 
L 125.610689 258.067206 
L 125.745177 273.135045 
L 125.879666 269.580188 
L 126.014154 269.881448 
L 126.148642 269.162308 
L 126.28313 249.197129 
L 126.417618 248.852459 
L 126.686595 130.694323 
L 127.09006 90.489724 
L 127.224548 92.320147 
L 127.493524 110.251484 
L 127.628012 115.206499 
L 128.031477 180.14893 
L 128.300453 241.537974 
L 128.434942 256.823199 
L 128.56943 258.125358 
L 128.703918 254.958024 
L 128.838406 266.103149 
L 128.972894 259.909163 
L 129.107383 262.358711 
L 129.241871 267.250314 
L 129.376359 265.543195 
L 129.645336 233.166235 
L 129.914312 122.625618 
L 130.183288 92.959133 
L 130.317777 90.719956 
L 130.452265 96.429367 
L 130.586753 130.138833 
L 130.721241 121.144046 
L 130.855729 125.145308 
L 130.990218 137.063479 
L 131.662659 262.41726 
L 131.797147 263.628941 
L 132.200612 258.148739 
L 132.469588 274.50142 
L 132.604076 268.600222 
L 132.738564 268.945638 
L 132.873053 268.294247 
L 133.007541 249.588131 
L 133.142029 251.795612 
L 133.276517 240.232446 
L 133.411005 239.493438 
L 133.545494 239.600336 
L 133.679982 236.805395 
L 133.81447 240.928225 
L 133.948958 241.20857 
L 134.083447 233.092564 
L 134.352423 245.599463 
L 134.621399 251.594139 
L 134.755888 257.260537 
L 134.890376 256.412882 
L 135.024864 254.414028 
L 135.29384 260.465864 
L 135.562817 263.698205 
L 135.831793 267.356074 
L 135.966282 273.787591 
L 136.10077 271.126884 
L 136.235258 264.729008 
L 136.369746 269.028717 
L 136.504234 268.396599 
L 136.638723 262.664652 
L 136.773211 267.808906 
L 137.042187 262.756306 
L 137.311164 245.539241 
L 137.58014 253.159711 
L 137.714628 248.337216 
L 137.983605 259.156992 
L 138.118093 259.41742 
L 138.252581 256.709059 
L 138.521558 266.695019 
L 138.656046 260.503289 
L 138.790534 261.965187 
L 138.925022 267.437332 
L 139.05951 267.15954 
L 139.328487 241.469698 
L 139.597463 121.654599 
L 139.86644 91.299212 
L 140.135416 88.391707 
L 140.404393 106.679695 
L 140.673369 140.936762 
L 140.807857 149.947565 
L 140.942345 169.881139 
L 141.076834 234.011272 
L 141.480298 262.502031 
L 141.614786 262.030108 
L 141.749275 264.155427 
L 141.883763 268.525279 
L 142.018251 264.820573 
L 142.152739 266.260601 
L 142.287228 264.189687 
L 142.421716 235.878578 
L 142.556204 232.344375 
L 142.82518 120.207985 
L 142.959669 96.882822 
L 143.094157 97.575716 
L 143.363133 91.766137 
L 143.497621 101.487757 
L 143.63211 89.579958 
L 143.766598 105.167112 
L 143.901086 140.292723 
L 144.035574 139.628086 
L 144.304551 233.809057 
L 144.439039 235.091909 
L 144.708015 265.923216 
L 144.842504 266.710356 
L 144.976992 264.89659 
L 145.11148 264.897944 
L 145.245968 265.111189 
L 145.380456 267.497884 
L 145.514945 258.210948 
L 145.649433 229.28156 
L 145.783921 238.415649 
L 146.052897 128.844149 
L 146.321874 94.398917 
L 146.725339 129.481307 
L 146.859827 120.075167 
L 146.994315 134.567775 
L 147.128803 123.965048 
L 147.263291 145.605184 
L 147.532268 243.696544 
L 147.666756 248.170473 
L 147.935732 266.517699 
L 148.070221 263.725331 
L 148.204709 267.985225 
L 148.339197 267.658693 
L 148.473685 265.257437 
L 148.608174 265.944608 
L 148.742662 263.909172 
L 148.87715 263.842465 
L 149.011638 231.098627 
L 149.280615 126.740705 
L 149.415103 111.022074 
L 149.549591 115.43376 
L 149.684079 110.04834 
L 149.818567 111.201593 
L 150.222032 155.537056 
L 150.35652 142.310149 
L 150.491009 156.359345 
L 150.759985 245.585094 
L 150.894473 246.375339 
L 151.16345 267.446562 
L 151.297938 263.126482 
L 151.566914 266.251274 
L 151.701402 267.837639 
L 151.835891 267.740877 
L 151.970379 268.848229 
L 152.104867 265.420658 
L 152.64282 108.447305 
L 152.777308 116.426791 
L 152.911796 113.257543 
L 153.046285 103.263426 
L 153.315261 122.245525 
L 153.449749 176.952531 
L 153.584237 184.572857 
L 154.256678 273.602954 
L 154.391167 270.899269 
L 154.525655 273.567881 
L 154.660143 272.159244 
L 154.794631 272.395236 
L 154.92912 272.020852 
L 155.063608 273.346217 
L 155.332584 277.308998 
L 155.467072 274.846643 
L 155.601561 265.677488 
L 155.736049 248.056198 
L 155.870537 260.06276 
L 156.005025 255.988802 
L 156.139513 262.146834 
L 156.40849 257.328601 
L 156.542978 257.971063 
L 156.677466 259.168103 
L 156.811955 258.205499 
L 156.946443 262.732651 
L 157.080931 262.98185 
L 157.484396 270.014812 
L 157.618884 266.448912 
L 158.022348 271.671296 
L 158.156837 271.614605 
L 158.425813 275.632865 
L 158.694789 279.5995 
L 158.829278 274.057606 
L 158.963766 276.619786 
L 159.098254 275.148197 
L 159.232742 271.014689 
L 159.367231 271.660347 
L 159.501719 273.773363 
L 159.636207 270.39124 
L 159.905183 256.074635 
L 160.039672 261.525463 
L 160.17416 253.75862 
L 160.577624 269.74135 
L 160.846601 261.671842 
L 161.250066 270.620436 
L 161.384554 269.44591 
L 161.519042 269.50231 
L 161.65353 270.09371 
L 161.922507 242.077478 
L 162.325971 100.337602 
L 162.460459 91.607221 
L 162.594948 96.175115 
L 162.863924 88.767466 
L 162.998412 116.097283 
L 163.132901 115.969204 
L 163.401877 152.760979 
L 163.805342 240.106453 
L 164.208806 262.745829 
L 164.343294 261.339724 
L 164.477783 276.429755 
L 164.612271 271.250484 
L 164.746759 273.687633 
L 165.150224 242.220616 
L 165.4192 131.882068 
L 165.553688 111.292325 
L 165.688177 122.965723 
L 165.957153 111.482579 
L 166.091641 118.587748 
L 166.360618 107.504246 
L 166.495106 106.50642 
L 166.629594 119.227181 
L 166.89857 239.077016 
L 167.033059 239.126478 
L 167.167547 241.747951 
L 167.302035 254.621289 
L 167.436523 255.031727 
L 167.571012 258.181691 
L 167.839988 266.11901 
L 167.974476 266.040318 
L 168.108964 266.73601 
L 168.377941 232.21551 
L 168.781405 99.574905 
L 168.915894 108.550622 
L 169.050382 102.545651 
L 169.319358 115.190174 
L 169.453847 92.979439 
L 169.588335 105.659016 
L 170.260776 244.232573 
L 170.395264 261.553554 
L 170.529752 263.081562 
L 170.66424 262.947076 
L 170.798729 266.933973 
L 170.933217 263.018357 
L 171.202193 265.321611 
L 171.336681 268.915407 
L 171.47117 240.22949 
L 171.605658 239.047714 
L 172.009123 102.770009 
L 172.278099 112.26615 
L 172.547075 100.176206 
L 172.95054 146.91993 
L 173.085028 150.886805 
L 173.354005 244.807394 
L 173.488493 245.290931 
L 173.757469 265.098672 
L 173.891958 268.219045 
L 174.026446 284.734875 
L 174.160934 275.17553 
L 174.295422 275.34458 
L 174.42991 276.221831 
L 174.564399 276.187586 
L 174.967863 223.316309 
L 175.102351 166.760379 
L 175.23684 165.465571 
L 175.505816 137.996772 
L 175.640304 142.228926 
L 175.774792 155.487528 
L 175.909281 150.872095 
L 176.178257 176.55122 
L 176.312745 172.854519 
L 176.447234 198.102616 
L 176.581722 249.113732 
L 176.71621 253.837746 
L 176.985186 269.435787 
L 177.119675 264.015969 
L 177.388651 269.508542 
L 177.523139 266.394634 
L 177.792116 274.710379 
L 177.926604 274.087677 
L 178.061092 274.910583 
L 178.19558 258.60229 
L 178.330069 258.982084 
L 178.464557 264.120284 
L 178.599045 251.780269 
L 178.733533 258.787722 
L 178.868021 257.368005 
L 179.00251 261.769564 
L 179.271486 250.282652 
L 179.405974 254.534062 
L 179.540462 250.914508 
L 179.674951 251.737295 
L 180.078415 273.325004 
L 180.212904 264.795787 
L 180.347392 265.15049 
L 180.48188 279.901103 
L 180.750856 274.965534 
L 181.019833 275.934973 
L 181.154321 275.110904 
L 181.423297 266.874925 
L 181.557786 262.801258 
L 181.692274 269.321727 
L 181.826762 266.016243 
L 181.96125 270.436643 
L 182.095738 258.277617 
L 182.364715 268.178609 
L 182.499203 265.83172 
L 182.633691 267.319339 
L 182.76818 273.370977 
L 182.902668 269.710825 
L 183.037156 269.175509 
L 183.171644 278.126138 
L 183.306132 276.749486 
L 183.440621 278.419477 
L 183.709597 270.834672 
L 183.844085 289.840239 
L 184.24755 279.756228 
L 184.516526 261.054464 
L 184.785503 184.697466 
L 184.919991 192.594768 
L 185.054479 172.28376 
L 185.188967 184.141242 
L 185.323456 175.336496 
L 185.72692 190.824342 
L 186.130385 245.145873 
L 186.399361 263.759992 
L 186.668338 273.700713 
L 186.802826 276.743003 
L 187.071802 293.60693 
L 187.340779 287.330332 
L 187.475267 289.351937 
L 187.744243 267.706602 
L 188.01322 189.27739 
L 188.147708 196.212985 
L 188.282196 176.295515 
L 188.416684 182.918649 
L 188.551173 182.259221 
L 188.685661 187.06316 
L 188.820149 198.811907 
L 188.954637 196.857119 
L 189.627078 270.908119 
L 189.761567 270.904245 
L 189.896055 271.510869 
L 190.030543 277.080758 
L 190.165031 268.12226 
L 190.299519 271.908517 
L 190.434008 271.631919 
L 190.568496 268.421548 
L 190.837472 272.299005 
L 190.971961 273.209491 
L 191.106449 273.108511 
L 191.240937 266.493813 
L 191.509913 273.93457 
L 191.644402 265.816563 
L 191.77889 270.510147 
L 192.047866 264.482313 
L 192.182354 256.817662 
L 192.316843 258.123553 
L 192.451331 261.488475 
L 192.585819 259.908114 
L 192.720307 262.760081 
L 192.854796 272.158874 
L 192.989284 268.802146 
L 193.123772 269.297599 
L 193.392748 265.119378 
L 193.527237 264.453263 
L 193.661725 268.590858 
L 193.930701 269.354599 
L 194.199678 256.949785 
L 194.468654 176.415044 
L 194.603142 170.366115 
L 194.73763 148.757983 
L 194.872119 151.551157 
L 195.006607 143.911111 
L 195.275583 154.342992 
L 195.410072 143.842536 
L 196.082513 263.502623 
L 196.217001 263.406413 
L 196.485977 266.161584 
L 196.620465 278.983625 
L 196.754954 270.321262 
L 197.158418 272.157593 
L 197.292907 268.163807 
L 197.427395 257.359637 
L 197.696371 181.07525 
L 197.830859 201.7578 
L 197.965348 189.65979 
L 198.099836 196.132991 
L 198.234324 190.890553 
L 198.368812 200.159722 
L 198.637789 187.528119 
L 199.31023 277.288217 
L 199.444718 275.311559 
L 199.848183 283.238751 
L 199.982671 278.395388 
L 200.117159 279.864447 
L 200.251647 279.88878 
L 200.386135 276.222425 
L 200.520624 266.664036 
L 200.655112 270.320709 
L 200.7896 243.24061 
L 200.924088 165.618019 
L 201.058576 209.916416 
L 201.193065 190.146725 
L 201.327553 196.808486 
L 201.462041 193.152535 
L 201.596529 201.007616 
L 201.731018 186.765719 
L 201.865506 188.104824 
L 202.26897 230.378246 
L 202.537947 275.377356 
L 202.672435 271.767651 
L 202.941411 276.503275 
L 203.0759 262.197986 
L 203.210388 262.827838 
L 203.344876 271.784337 
L 203.882829 257.002724 
L 204.151805 167.729372 
L 204.286294 169.737608 
L 204.420782 160.861837 
L 204.55527 161.009798 
L 204.689758 159.75412 
L 204.824246 169.458782 
L 204.958735 160.172655 
L 205.093223 193.909623 
L 205.227711 188.016485 
L 205.631176 249.628644 
L 205.765664 267.145454 
L 205.900152 266.878631 
L 206.03464 263.963052 
L 206.169129 268.937027 
L 206.303617 289.354672 
L 206.438105 279.876102 
L 206.707081 284.799092 
L 206.84157 283.546923 
L 206.976058 283.364544 
L 207.379522 264.587581 
L 207.514011 264.560299 
L 207.648499 267.477578 
L 207.917475 276.987542 
L 208.051964 276.379787 
L 208.186452 272.865416 
L 208.32094 262.34001 
L 208.455428 261.139967 
L 208.589916 267.141778 
L 208.724405 266.557626 
L 208.858893 276.836931 
L 208.993381 277.104342 
L 209.127869 281.613757 
L 209.396846 278.26003 
L 209.531334 267.460412 
L 209.665822 273.745858 
L 209.80031 272.099221 
L 209.934799 272.25515 
L 210.069287 274.918054 
L 210.203775 255.049981 
L 210.338263 257.795134 
L 210.60724 163.650023 
L 210.741728 155.708451 
L 210.876216 128.548273 
L 211.010704 124.710231 
L 211.145192 112.460122 
L 211.817634 199.266579 
L 212.221098 261.832334 
L 212.490075 263.115946 
L 212.759051 272.782631 
L 212.893539 275.404588 
L 213.028027 271.894765 
L 213.162516 271.744038 
L 213.297004 276.035956 
L 213.56598 246.040906 
L 213.834957 135.042304 
L 213.969445 127.386112 
L 214.103933 138.789437 
L 214.238421 139.324368 
L 214.37291 139.363512 
L 214.507398 148.070902 
L 214.910862 198.879423 
L 215.045351 201.047788 
L 215.448815 271.797959 
L 215.583303 265.116207 
L 215.717792 270.978642 
L 215.85228 268.031871 
L 215.986768 268.935381 
L 216.121256 270.983212 
L 216.255745 269.380752 
L 216.390233 270.880765 
L 216.524721 274.357579 
L 216.793697 252.751536 
L 217.062674 144.812776 
L 217.197162 140.357587 
L 217.600627 159.148597 
L 217.735115 158.220849 
L 217.869603 149.117788 
L 218.004091 164.212368 
L 218.273068 213.445695 
L 218.407556 218.787777 
L 218.542044 261.20236 
L 218.945509 275.816131 
L 219.079997 261.042356 
L 219.214485 270.160206 
L 219.483462 273.588886 
L 219.752438 278.024113 
L 220.021414 253.321178 
L 220.290391 142.034646 
L 220.424879 155.439448 
L 220.559367 150.756463 
L 220.693856 152.082845 
L 220.828344 151.360529 
L 220.962832 167.053594 
L 221.09732 162.201232 
L 221.231808 199.880103 
L 221.635273 219.593124 
L 221.769761 262.392245 
L 222.038738 270.696874 
L 222.173226 276.766063 
L 222.307714 272.054121 
L 222.442202 272.924812 
L 222.711179 278.925027 
L 222.845667 278.707333 
L 222.980155 280.288669 
L 223.114643 276.025407 
L 223.249132 280.103394 
L 223.38362 253.856651 
L 223.518108 250.41711 
L 223.652596 269.965654 
L 223.787084 266.585433 
L 224.056061 256.213311 
L 224.190549 255.534434 
L 224.325037 254.213753 
L 224.459525 258.267196 
L 224.86299 253.189005 
L 225.131967 262.133013 
L 225.266455 262.794005 
L 225.400943 259.211865 
L 225.535431 261.698563 
L 225.669919 261.276604 
L 225.804408 258.278793 
L 225.938896 266.405758 
L 226.073384 267.153586 
L 226.207872 271.834818 
L 226.34236 271.469727 
L 226.476849 273.192427 
L 226.745825 269.492038 
L 226.880313 270.099028 
L 227.014802 277.015527 
L 227.283778 272.913872 
L 227.418266 267.42051 
L 227.552754 270.080284 
L 227.687243 268.847927 
L 227.821731 270.957941 
L 227.956219 269.422695 
L 228.090707 269.960976 
L 228.225195 279.923216 
L 228.359684 276.191721 
L 228.494172 277.760648 
L 228.62866 275.634842 
L 228.763148 277.146367 
L 228.897637 276.14786 
L 229.032125 271.788095 
L 229.301101 274.933343 
L 229.435589 274.551486 
L 229.570078 262.676533 
L 229.704566 238.816264 
L 229.973542 132.475477 
L 230.242519 98.343411 
L 230.377007 96.507669 
L 230.511495 82.126558 
L 230.645983 124.464924 
L 230.780471 118.374469 
L 230.91496 127.633553 
L 231.318424 207.544108 
L 231.587401 255.002391 
L 231.990865 269.810385 
L 232.125354 271.878294 
L 232.259842 271.008845 
L 232.528818 275.565402 
L 232.663306 272.007979 
L 232.932283 243.81757 
L 233.201259 138.520344 
L 233.470236 121.86302 
L 233.604724 138.043662 
L 233.739212 135.098083 
L 233.8737 146.747838 
L 234.008189 135.24903 
L 234.142677 151.369283 
L 234.411653 201.644517 
L 234.546141 214.306836 
L 234.815118 267.539053 
L 234.949606 268.967122 
L 235.084094 266.435852 
L 235.218583 273.484187 
L 235.353071 271.406683 
L 235.622047 280.853742 
L 235.891024 276.058487 
L 236.16 254.777733 
L 236.428976 137.361944 
L 236.563465 121.788721 
L 236.697953 125.463072 
L 236.832441 124.908783 
L 236.966929 116.834554 
L 237.101417 126.003364 
L 237.235906 158.376515 
L 237.370394 159.940035 
L 238.042835 268.363847 
L 238.177323 269.980869 
L 238.311811 269.926761 
L 238.4463 273.283684 
L 238.580788 272.382558 
L 238.715276 275.002155 
L 238.984252 283.802624 
L 239.253229 272.792582 
L 239.387717 246.215555 
L 239.656694 142.428333 
L 239.92567 123.006402 
L 240.060158 136.115341 
L 240.194646 135.935462 
L 240.329135 145.052041 
L 240.598111 181.701229 
L 240.867087 199.795258 
L 241.136064 257.112818 
L 241.270552 258.898855 
L 241.40504 264.892964 
L 241.539529 263.735547 
L 241.674017 265.706911 
L 241.808505 263.554182 
L 241.942993 280.457796 
L 242.077481 276.098413 
L 242.21197 285.420065 
L 242.346458 279.813614 
L 242.615434 249.995596 
L 242.884411 142.155417 
L 243.018899 144.334799 
L 243.153387 157.466609 
L 243.287875 154.82417 
L 243.422363 144.391458 
L 243.69134 152.524451 
L 244.363781 257.804826 
L 244.767246 272.00874 
L 244.901734 269.649754 
L 245.17071 276.843302 
L 245.305198 274.651028 
L 245.439687 275.677527 
L 245.708663 271.782063 
L 245.843151 249.181415 
L 245.97764 270.368723 
L 246.112128 262.764368 
L 246.381104 264.013633 
L 246.515592 259.644108 
L 246.784569 264.262854 
L 246.919057 266.367774 
L 247.053545 271.777585 
L 247.188033 269.386831 
L 247.322522 273.587823 
L 247.45701 272.8596 
L 247.591498 273.506304 
L 247.725986 272.613614 
L 247.860475 277.437522 
L 247.994963 273.722486 
L 248.263939 275.741233 
L 248.398427 273.544234 
L 248.532916 274.852819 
L 248.667404 273.347816 
L 248.801892 276.447348 
L 248.93638 274.407507 
L 249.070868 275.03669 
L 249.205357 273.749583 
L 249.474333 279.007975 
L 249.608821 279.09681 
L 249.743309 278.227684 
L 249.877798 278.482783 
L 250.146774 276.745968 
L 250.281262 273.875787 
L 250.550239 274.790805 
L 250.684727 273.574304 
L 250.819215 274.498651 
L 250.953703 274.556366 
L 251.088192 275.778758 
L 251.22268 273.497393 
L 251.357168 275.186888 
L 251.491656 274.455109 
L 251.626144 288.273541 
L 251.760633 281.557018 
L 251.895121 282.501813 
L 252.029609 281.979637 
L 252.298586 263.477021 
L 252.567562 145.747984 
L 252.70205 136.704759 
L 252.836538 139.342081 
L 252.971027 165.631053 
L 253.105515 156.971444 
L 253.240003 162.83956 
L 253.777956 215.374555 
L 253.912444 231.045631 
L 254.046932 263.991546 
L 254.181421 266.22223 
L 254.450397 281.536231 
L 254.584885 283.060626 
L 254.719373 282.867502 
L 254.853862 287.073237 
L 254.98835 283.449648 
L 255.122838 285.730505 
L 255.257326 285.271204 
L 255.526303 253.959494 
L 255.795279 152.231659 
L 255.929767 172.086813 
L 256.064255 165.039942 
L 256.198744 164.763013 
L 256.333232 157.298816 
L 256.602208 164.161578 
L 256.736697 175.012036 
L 257.005673 223.039017 
L 257.140161 230.992181 
L 257.409138 258.008059 
L 257.543626 269.535348 
L 257.678114 265.642143 
L 257.812602 268.744374 
L 257.94709 267.994153 
L 258.081579 283.604882 
L 258.350555 281.65571 
L 258.485043 279.479866 
L 258.75402 256.686845 
L 259.022996 150.0198 
L 259.157484 174.436379 
L 259.291973 161.183951 
L 259.426461 164.515387 
L 259.560949 150.214375 
L 259.829925 176.968318 
L 259.964414 157.471001 
L 260.502366 247.986746 
L 260.771343 263.222531 
L 260.905831 267.494091 
L 261.040319 264.909923 
L 261.174808 264.962044 
L 261.309296 273.602419 
L 261.443784 270.892225 
L 261.578272 275.425796 
L 261.847249 267.815922 
L 261.981737 244.223949 
L 262.250713 148.904999 
L 262.385201 171.252415 
L 262.654178 146.745366 
L 262.788666 146.945891 
L 262.923154 155.63793 
L 263.057643 152.101746 
L 263.326619 188.696875 
L 263.730084 240.212723 
L 263.99906 257.856581 
L 264.268036 260.675625 
L 264.402525 271.226884 
L 264.537013 262.879915 
L 264.671501 267.967955 
L 265.074966 263.503352 
L 265.209454 248.484795 
L 265.747407 113.649816 
L 265.881895 111.654309 
L 266.016383 105.137444 
L 266.150871 120.457634 
L 266.28536 119.22568 
L 266.419848 120.848967 
L 266.554336 133.013861 
L 266.823312 188.638781 
L 267.092289 251.748076 
L 267.361265 258.690665 
L 267.495754 255.382928 
L 267.630242 279.24059 
L 267.76473 267.542395 
L 267.899218 270.444482 
L 268.033706 269.829937 
L 268.302683 277.170268 
L 268.437171 276.23285 
L 268.571659 269.346622 
L 268.840636 278.773373 
L 268.975124 274.557719 
L 269.2441 272.912513 
L 269.378589 271.826843 
L 269.782053 253.265687 
L 269.916541 255.819848 
L 270.05103 253.377591 
L 270.320006 257.378025 
L 270.454494 258.878861 
L 270.588982 264.25462 
L 270.723471 264.215432 
L 270.857959 286.710783 
L 271.126935 275.140197 
L 271.261424 277.707488 
L 271.5304 275.587376 
L 271.664888 277.408612 
L 271.799376 276.838248 
L 271.933865 280.308684 
L 272.068353 279.519381 
L 272.202841 281.311154 
L 272.337329 280.472473 
L 272.471817 281.222614 
L 272.606306 278.816449 
L 272.740794 274.367527 
L 272.875282 276.400636 
L 273.00977 273.031109 
L 273.144258 274.619181 
L 273.278747 271.440956 
L 273.413235 272.788497 
L 273.682211 277.130822 
L 273.8167 276.888563 
L 273.951188 277.850489 
L 274.085676 275.815011 
L 274.220164 293.001065 
L 274.354652 288.285096 
L 274.489141 288.531453 
L 274.623629 285.578319 
L 274.892605 262.694177 
L 275.161582 190.680248 
L 275.430558 154.030594 
L 275.565046 154.304793 
L 275.699535 149.95687 
L 275.834023 153.945695 
L 275.968511 179.060856 
L 276.102999 179.906204 
L 276.640952 254.396906 
L 276.909928 273.229377 
L 277.044417 272.913718 
L 277.178905 279.328936 
L 277.313393 273.878869 
L 277.447881 285.74127 
L 277.58237 281.38418 
L 277.716858 286.319136 
L 277.851346 283.741636 
L 277.985834 276.168461 
L 278.120322 260.810671 
L 278.389299 197.906274 
L 278.523787 197.371923 
L 278.658275 176.56875 
L 278.792763 189.136221 
L 278.927252 175.407385 
L 279.06174 198.866508 
L 279.196228 188.509396 
L 279.465204 212.650077 
L 280.003157 275.23721 
L 280.406622 278.585259 
L 280.54111 262.431467 
L 280.810087 268.240562 
L 280.944575 268.212468 
L 281.079063 267.942034 
L 281.213551 255.866599 
L 281.348039 258.027369 
L 281.617016 135.747488 
L 281.751504 143.857246 
L 281.885992 120.914096 
L 282.289457 146.70313 
L 282.423945 118.710397 
L 282.692922 148.998645 
L 283.096386 253.64603 
L 283.230874 263.338548 
L 283.365363 264.508773 
L 283.499851 264.37769 
L 283.634339 266.752848 
L 283.768827 262.019017 
L 283.903316 262.0107 
L 284.037804 262.206594 
L 284.172292 264.233309 
L 284.30678 263.339654 
L 284.575757 254.232076 
L 284.844733 165.627017 
L 284.979221 155.433236 
L 285.113709 155.303303 
L 285.248198 140.259278 
L 285.382686 143.509371 
L 285.517174 139.665279 
L 285.651662 160.280443 
L 285.78615 148.503683 
L 285.920639 155.458573 
L 286.324103 249.389991 
L 286.458592 261.041879 
L 286.59308 261.891423 
L 286.727568 265.716308 
L 286.862056 262.463976 
L 286.996544 291.221844 
L 287.131033 278.811034 
L 287.265521 277.003788 
L 287.400009 278.708563 
L 287.534497 274.930297 
L 287.668985 274.403691 
L 287.803474 270.775259 
L 287.937962 274.551142 
L 288.07245 275.036719 
L 288.206938 277.69674 
L 288.341427 274.992467 
L 288.475915 275.789828 
L 288.610403 272.532354 
L 288.744891 272.750271 
L 288.879379 269.607666 
L 289.013868 272.29646 
L 289.282844 265.715955 
L 289.417332 277.120732 
L 289.55182 277.142115 
L 289.686309 277.521388 
L 289.955285 275.975852 
L 290.089773 277.304369 
L 290.224262 273.75655 
L 290.35875 277.816041 
L 290.493238 275.036873 
L 290.627726 277.425782 
L 290.762214 273.952044 
L 290.896703 264.362091 
L 291.031191 265.073562 
L 291.165679 243.70967 
L 291.300167 174.412706 
L 291.569144 181.675458 
L 291.83812 190.434544 
L 292.107096 175.866732 
L 292.645049 234.789619 
L 292.914026 272.953113 
L 293.048514 269.938635 
L 293.183002 273.231798 
L 293.31749 272.154275 
L 293.451979 267.805089 
L 293.586467 269.295345 
L 293.720955 266.49648 
L 293.855443 271.599181 
L 293.989931 270.258865 
L 294.12442 258.390307 
L 294.258908 257.46686 
L 294.796861 156.960772 
L 294.931349 156.087102 
L 295.200325 140.735882 
L 295.334814 146.707765 
L 295.469302 143.91113 
L 295.60379 189.456686 
L 295.738278 192.044845 
L 296.007255 243.990101 
L 296.141743 267.842356 
L 296.410719 260.113115 
L 296.545208 270.291848 
L 296.679696 291.289856 
L 296.814184 281.986897 
L 296.948672 282.884021 
L 297.217649 282.279907 
L 297.352137 282.431787 
L 297.486625 281.343525 
L 297.621113 281.999389 
L 297.89009 285.777691 
L 298.159066 279.46064 
L 298.293554 279.397898 
L 298.428042 279.794172 
L 298.562531 279.184507 
L 298.831507 272.269024 
L 299.100484 273.195978 
L 299.234972 273.398076 
L 299.36946 277.413151 
L 299.503948 277.919957 
L 299.638436 276.060186 
L 299.772925 278.948495 
L 299.907413 259.90451 
L 300.041901 273.363126 
L 300.176389 270.230753 
L 300.310877 271.704277 
L 300.445366 271.472349 
L 300.714342 253.23762 
L 300.983319 167.882761 
L 301.386783 128.081333 
L 301.521271 130.699787 
L 301.65576 138.97739 
L 301.790248 133.682009 
L 301.924736 152.300307 
L 302.193712 201.960851 
L 302.328201 214.288125 
L 302.597177 257.587233 
L 302.731665 262.187018 
L 302.866153 260.102385 
L 303.000642 269.762148 
L 303.13513 271.065607 
L 303.269618 267.191563 
L 303.404106 267.722947 
L 303.538595 271.052109 
L 303.673083 269.35619 
L 303.807571 248.112741 
L 303.942059 244.533971 
L 304.211036 159.822804 
L 304.345524 169.630359 
L 304.480012 159.509214 
L 304.6145 159.520706 
L 304.748988 155.360241 
L 304.883477 160.503907 
L 305.017965 150.778268 
L 305.152453 161.854117 
L 305.690406 245.524116 
L 305.959382 269.3114 
L 306.093871 264.837142 
L 306.228359 269.041047 
L 306.362847 267.679176 
L 306.497335 280.712478 
L 306.631823 276.940972 
L 306.766312 276.717157 
L 306.9008 276.978008 
L 307.035288 266.910285 
L 307.169776 247.352223 
L 307.438753 150.88247 
L 307.573241 173.761502 
L 307.842217 164.776969 
L 307.976706 158.216623 
L 308.111194 162.193312 
L 308.245682 153.48938 
L 308.38017 163.065959 
L 308.783635 231.694826 
L 309.187099 271.088972 
L 309.321588 271.312251 
L 309.456076 274.695238 
L 309.590564 274.285017 
L 309.725052 277.33453 
L 309.859541 275.896976 
L 309.994029 277.070951 
L 310.128517 276.216032 
L 310.263005 268.869308 
L 310.397493 244.291545 
L 310.66647 151.310316 
L 310.800958 166.737535 
L 310.935446 168.436537 
L 311.069934 171.850279 
L 311.204423 162.172153 
L 311.338911 161.853137 
L 311.473399 160.648553 
L 311.607887 161.423809 
L 312.011352 233.003841 
L 312.280328 264.29256 
L 312.414817 268.824063 
L 312.549305 268.454272 
L 312.952769 273.74162 
L 313.087258 270.449127 
L 313.221746 273.498941 
L 313.356234 271.646985 
L 313.490722 273.802033 
L 313.759699 254.028316 
L 313.894187 248.406931 
L 314.028675 261.119728 
L 314.163163 256.733382 
L 314.297652 258.648031 
L 314.43214 255.114275 
L 314.701116 263.527421 
L 314.835604 262.949152 
L 315.104581 268.998058 
L 315.373557 266.212651 
L 315.508045 270.227536 
L 315.642534 268.974131 
L 315.777022 269.521723 
L 315.91151 268.467007 
L 316.045998 270.909775 
L 316.180487 270.725822 
L 316.314975 272.567403 
L 316.449463 270.757184 
L 316.583951 272.711329 
L 316.718439 272.325438 
L 316.852928 272.750371 
L 316.987416 272.036486 
L 317.121904 275.357942 
L 317.256392 274.069172 
L 317.39088 271.553709 
L 317.525369 271.153579 
L 317.659857 268.752767 
L 317.794345 273.554857 
L 318.063322 265.883679 
L 318.19781 264.55246 
L 318.332298 266.061157 
L 318.466786 263.422615 
L 318.601274 266.087417 
L 318.735763 264.585164 
L 318.870251 267.7854 
L 319.004739 266.508134 
L 319.273715 268.160561 
L 319.408204 285.165164 
L 319.542692 278.916395 
L 319.811668 279.514993 
L 319.946157 273.54426 
L 320.080645 258.339161 
L 320.349621 148.855364 
L 320.618598 127.306455 
L 320.753086 145.096488 
L 321.022062 151.984922 
L 321.15655 158.878804 
L 321.425527 193.779204 
L 321.560015 196.146848 
L 321.96348 267.233969 
L 322.097968 268.145218 
L 322.232456 266.31299 
L 322.366944 271.509568 
L 322.501433 269.602795 
L 322.635921 284.567494 
L 322.770409 280.112274 
L 322.904897 279.518115 
L 323.039385 278.038058 
L 323.308362 260.802599 
L 323.577338 151.04214 
L 323.711826 169.500077 
L 323.846315 172.583675 
L 324.115291 156.466972 
L 324.384268 154.126534 
L 324.518756 161.394181 
L 324.787732 207.401285 
L 324.92222 219.274159 
L 325.191197 265.459699 
L 325.325685 266.217097 
L 325.460173 265.97817 
L 325.594661 270.87532 
L 325.72915 269.767751 
L 325.863638 281.059556 
L 325.998126 280.005437 
L 326.132614 280.360689 
L 326.267103 279.001984 
L 326.401591 272.358811 
L 326.536079 254.381977 
L 326.805055 146.373802 
L 326.939544 169.350111 
L 327.074032 172.725258 
L 327.343008 159.808319 
L 327.477496 164.644505 
L 327.611985 162.419313 
L 327.746473 165.176237 
L 327.880961 181.438498 
L 328.015449 220.619303 
L 328.149937 227.076648 
L 328.418914 258.978768 
L 328.68789 270.162297 
L 328.822379 273.924875 
L 328.956867 273.385417 
L 329.091355 286.60021 
L 329.225843 280.338097 
L 329.360331 280.737722 
L 329.49482 278.751646 
L 329.763796 257.067813 
L 330.032772 162.43751 
L 330.167261 171.912749 
L 330.301749 171.550697 
L 330.436237 168.725983 
L 330.705214 158.149964 
L 331.108678 194.726276 
L 331.243166 201.486727 
L 331.646631 264.426074 
L 331.781119 266.185441 
L 331.915607 265.958304 
L 332.050096 267.810351 
L 332.184584 271.634216 
L 332.319072 284.979463 
L 332.588049 277.215442 
L 332.722537 279.081325 
L 332.991513 255.356138 
L 333.26049 156.679737 
L 333.529466 179.11052 
L 333.798442 165.599557 
L 333.932931 164.245399 
L 334.067419 166.487794 
L 334.470883 209.973891 
L 334.73986 262.33553 
L 335.008836 269.572204 
L 335.277813 276.300353 
L 335.546789 271.611978 
L 335.681277 271.161509 
L 335.815766 270.085865 
L 336.084742 273.298246 
L 336.353718 260.684972 
L 336.488207 263.509836 
L 336.757183 255.736839 
L 336.891671 256.887178 
L 337.02616 254.485152 
L 337.698601 268.090557 
L 337.833089 268.376443 
L 337.967577 266.717686 
L 338.102065 271.221115 
L 338.236553 271.054248 
L 338.371042 270.007703 
L 338.50553 270.574132 
L 338.640018 265.572098 
L 338.908995 269.138172 
L 339.043483 268.712479 
L 339.312459 271.37136 
L 339.446947 269.272937 
L 339.715924 273.956436 
L 339.9849 272.622577 
L 340.119388 270.430666 
L 340.253877 271.577364 
L 340.388365 270.804689 
L 340.522853 273.648755 
L 340.657341 269.323821 
L 340.791829 270.337335 
L 340.926318 270.320647 
L 341.060806 270.876092 
L 341.195294 265.91731 
L 341.464271 273.243412 
L 341.598759 272.15405 
L 341.867735 275.484193 
L 342.002223 286.54858 
L 342.2712 281.434347 
L 342.405688 281.630601 
L 342.674664 260.329788 
L 342.943641 148.149446 
L 343.078129 145.011042 
L 343.347106 174.73684 
L 343.616082 167.425975 
L 343.75057 174.590884 
L 344.557499 265.520925 
L 344.691988 265.037486 
L 344.960964 275.424203 
L 345.095452 273.93749 
L 345.22994 284.643226 
L 345.364429 281.044812 
L 345.498917 281.781065 
L 345.633405 280.187392 
L 345.767893 271.865072 
L 345.902382 255.56979 
L 346.171358 158.857462 
L 346.305846 184.752683 
L 346.440334 175.583591 
L 346.574823 177.209991 
L 346.709311 170.924241 
L 346.843799 170.009499 
L 346.978287 172.179967 
L 347.919705 266.887481 
L 348.188681 275.023602 
L 348.323169 272.326953 
L 348.457658 284.869665 
L 348.592146 280.479296 
L 348.726634 282.326108 
L 348.861122 280.638314 
L 349.130099 256.828325 
L 349.399075 159.2201 
L 349.533563 180.303882 
L 349.668052 167.282676 
L 349.80254 170.992563 
L 349.937028 165.651537 
L 350.071516 166.350542 
L 350.206004 168.531846 
L 350.474981 200.910735 
L 350.743957 239.407768 
L 351.012934 264.27284 
L 351.147422 272.365067 
L 351.28191 270.332239 
L 351.416398 275.068258 
L 351.550886 275.101449 
L 351.685375 287.19203 
L 351.819863 280.346827 
L 351.954351 280.748964 
L 352.088839 279.66899 
L 352.223328 276.120376 
L 352.357816 261.441809 
L 352.626792 157.041267 
L 352.76128 183.680319 
L 352.895769 171.185914 
L 353.030257 177.254681 
L 353.164745 167.333856 
L 353.299233 170.302326 
L 353.56821 164.636245 
L 353.702698 163.36043 
L 354.106163 257.935148 
L 354.375139 272.869075 
L 354.509627 273.952398 
L 354.913092 281.099125 
L 355.04758 279.694671 
L 355.182068 280.339969 
L 355.316556 279.808121 
L 355.451045 274.706569 
L 355.585533 256.484611 
L 355.854509 188.528417 
L 355.988998 188.859205 
L 356.257974 161.938425 
L 356.661439 168.102384 
L 357.468368 275.101881 
L 357.602856 276.152868 
L 358.006321 283.571712 
L 358.140809 279.854403 
L 358.275297 279.484011 
L 358.409785 279.813823 
L 358.81325 275.851628 
L 359.082226 256.930653 
L 359.216715 251.98723 
L 359.351203 251.941627 
L 359.485691 253.546365 
L 359.620179 248.672416 
L 359.754667 261.559608 
L 359.889156 262.224505 
L 360.023644 262.314669 
L 360.427109 280.366555 
L 360.561597 277.517374 
L 360.696085 278.078274 
L 360.965061 280.450047 
L 361.09955 281.325209 
L 361.503014 279.578148 
L 361.637502 281.381566 
L 361.906479 276.88233 
L 362.175455 283.997888 
L 362.309944 283.69972 
L 362.444432 278.482411 
L 362.57892 278.179187 
L 362.713408 275.393742 
L 362.982385 278.727736 
L 363.251361 273.651832 
L 363.520337 277.784777 
L 363.654826 275.923328 
L 363.789314 276.398711 
L 364.192778 279.717186 
L 364.327267 229.273912 
L 364.461755 253.455469 
L 364.596243 254.642525 
L 364.730731 254.318782 
L 364.86522 262.151439 
L 364.999708 257.160691 
L 365.268684 200.994125 
L 365.537661 127.657278 
L 365.672149 102.273637 
L 365.806637 99.442209 
L 365.941125 99.995097 
L 366.075613 114.192073 
L 366.210102 107.876248 
L 366.479078 131.026734 
L 366.613566 149.169643 
L 366.882543 241.003713 
L 367.286007 262.116776 
L 367.420496 257.926498 
L 367.554984 269.664318 
L 367.689472 268.828658 
L 367.82396 266.974626 
L 367.958448 271.606738 
L 368.092937 272.236202 
L 368.227425 240.575927 
L 368.361913 235.340611 
L 368.765378 103.097237 
L 368.899866 99.147621 
L 369.034354 100.124932 
L 369.168842 96.450798 
L 369.303331 84.083211 
L 369.437819 84.142117 
L 369.572307 120.18441 
L 369.706795 111.93615 
L 369.841283 137.950276 
L 370.11026 238.93941 
L 370.244748 234.136614 
L 370.513724 256.886034 
L 370.648213 263.239951 
L 370.782701 288.82019 
L 370.917189 279.459039 
L 371.051677 279.391223 
L 371.186166 280.58082 
L 371.320654 277.985936 
L 371.58963 253.266446 
L 371.858607 157.609966 
L 371.993095 165.091734 
L 372.262071 211.523833 
L 372.396559 193.491571 
L 372.531048 195.053101 
L 372.800024 187.936661 
L 372.934512 197.70494 
L 373.069001 233.507761 
L 373.203489 232.378233 
L 373.472465 263.046911 
L 373.606953 264.50591 
L 373.87593 270.324596 
L 374.144906 292.800353 
L 374.279394 286.651954 
L 374.413883 288.664111 
L 374.548371 285.951068 
L 374.817347 259.006113 
L 375.086324 200.641623 
L 375.3553 172.968718 
L 375.489788 179.443794 
L 375.624277 175.065682 
L 375.758765 178.497509 
L 376.162229 202.182256 
L 376.296718 230.850732 
L 376.431206 235.272907 
L 376.700182 266.658991 
L 376.83467 268.660272 
L 376.969159 268.714619 
L 377.103647 270.806761 
L 377.238135 287.972496 
L 377.372623 277.527505 
L 377.507112 280.294373 
L 377.6416 280.177717 
L 377.776088 273.444058 
L 377.910576 282.41652 
L 378.045064 278.274186 
L 378.179553 279.18547 
L 378.314041 264.451745 
L 378.448529 272.435845 
L 378.583017 261.21493 
L 378.717505 267.633465 
L 378.851994 265.580497 
L 378.986482 274.187229 
L 379.12097 266.106507 
L 379.389947 268.150549 
L 379.524435 267.212036 
L 379.793411 275.613916 
L 379.927899 276.180721 
L 380.062388 279.571118 
L 380.196876 277.050536 
L 380.331364 277.738188 
L 380.465852 257.850712 
L 380.734829 269.059592 
L 381.003805 271.344479 
L 381.138293 252.969249 
L 381.272782 256.353859 
L 381.541758 150.810154 
L 381.676246 151.281693 
L 381.945223 141.320205 
L 382.214199 145.976316 
L 382.348687 145.616425 
L 382.483175 138.340212 
L 383.155616 266.759265 
L 383.290105 269.207173 
L 383.424593 268.370045 
L 383.559081 269.802764 
L 383.693569 258.410142 
L 383.962546 260.91824 
L 384.097034 261.19674 
L 384.231522 263.654733 
L 384.36601 258.92973 
L 384.500499 261.769626 
L 384.769475 166.825502 
L 385.038451 161.915166 
L 385.17294 139.90532 
L 385.441916 173.717783 
L 385.576404 165.624868 
L 385.710893 168.650207 
L 385.845381 208.793271 
L 385.979869 206.578453 
L 386.383334 271.907768 
L 386.517822 269.155245 
L 386.65231 275.078678 
L 386.786798 272.255086 
L 386.921286 283.416258 
L 387.190263 276.684956 
L 387.324751 279.377719 
L 387.459239 276.644289 
L 387.593727 276.495343 
L 387.997192 283.570078 
L 388.13168 281.630769 
L 388.266169 282.929425 
L 388.400657 277.361773 
L 388.669633 281.156585 
L 388.804121 274.595938 
L 388.93861 277.224122 
L 389.073098 270.430976 
L 389.476562 283.339223 
L 389.611051 286.46154 
L 389.745539 282.599547 
L 389.880027 284.558908 
L 390.014515 283.634008 
L 390.149004 255.906326 
L 390.283492 267.859406 
L 390.41798 267.5562 
L 390.552468 267.570016 
L 390.686956 268.899547 
L 390.821445 257.238296 
L 390.955933 261.603245 
L 391.090421 244.999745 
L 391.224909 183.705013 
L 391.359397 190.71864 
L 391.493886 154.406944 
L 392.031839 175.26529 
L 392.166327 166.147116 
L 392.435303 195.500591 
L 392.838768 275.565127 
L 392.973256 272.309783 
L 393.242232 273.363981 
L 393.376721 260.520695 
L 393.511209 262.556716 
L 393.645697 271.80085 
L 393.780185 270.249998 
L 393.914673 263.706873 
L 394.049162 268.317498 
L 394.18365 249.736431 
L 394.587115 162.14566 
L 394.721603 156.483214 
L 394.856091 144.656842 
L 394.990579 149.214858 
L 395.125067 147.887455 
L 395.259556 144.977431 
L 395.394044 162.243834 
L 395.528532 163.49865 
L 395.797508 217.7602 
L 396.066485 259.637629 
L 396.200973 264.558686 
L 396.335461 264.598204 
L 396.46995 256.361074 
L 396.604438 295.488 
L 396.738926 280.757793 
L 396.873414 282.524263 
L 397.007902 282.727803 
L 397.142391 283.139059 
L 397.411367 259.667306 
L 397.680343 178.898205 
L 397.814832 186.728806 
L 398.083808 164.706003 
L 398.218296 160.681231 
L 398.352785 167.251616 
L 398.487273 160.767677 
L 398.487273 160.767677 
" clip-path="url(#pe3fbcd42c1)" style="fill: none; stroke: #ff7f0e; stroke-width: 1.5; stroke-linecap: square"/>
   </g>
   <g id="patch_3">
    <path d="M 57.6 307.584 
L 57.6 41.472 
" style="fill: none; stroke: #000000; stroke-width: 0.8; stroke-linejoin: miter; stroke-linecap: square"/>
   </g>
   <g id="patch_4">
    <path d="M 414.72 307.584 
L 414.72 41.472 
" style="fill: none; stroke: #000000; stroke-width: 0.8; stroke-linejoin: miter; stroke-linecap: square"/>
   </g>
   <g id="patch_5">
    <path d="M 57.6 307.584 
L 414.72 307.584 
" style="fill: none; stroke: #000000; stroke-width: 0.8; stroke-linejoin: miter; stroke-linecap: square"/>
   </g>
   <g id="patch_6">
    <path d="M 57.6 41.472 
L 414.72 41.472 
" style="fill: none; stroke: #000000; stroke-width: 0.8; stroke-linejoin: miter; stroke-linecap: square"/>
   </g>
  </g>
 </g>
 <defs>
  <clipPath id="pe3fbcd42c1">
   <rect x="57.6" y="41.472" width="357.12" height="266.112"/>
  </clipPath>
 </defs>
</svg>
