<?xml version="1.0" encoding="utf-8" standalone="no"?>
<!DOCTYPE svg PUBLIC "-//W3C//DTD SVG 1.1//EN"
  "http://www.w3.org/Graphics/SVG/1.1/DTD/svg11.dtd">
<svg xmlns:xlink="http://www.w3.org/1999/xlink" width="460.8pt" height="345.6pt" viewBox="0 0 460.8 345.6" xmlns="http://www.w3.org/2000/svg" version="1.1">
 <metadata>
  <rdf:RDF xmlns:dc="http://purl.org/dc/elements/1.1/" xmlns:cc="http://creativecommons.org/ns#" xmlns:rdf="http://www.w3.org/1999/02/22-rdf-syntax-ns#">
   <cc:Work>
    <dc:type rdf:resource="http://purl.org/dc/dcmitype/StillImage"/>
    <dc:date>2023-04-04T05:10:06.288424</dc:date>
    <dc:format>image/svg+xml</dc:format>
    <dc:creator>
     <cc:Agent>
      <dc:title>Matplotlib v3.5.2, https://matplotlib.org/</dc:title>
     </cc:Agent>
    </dc:creator>
   </cc:Work>
  </rdf:RDF>
 </metadata>
 <defs>
  <style type="text/css">*{stroke-linejoin: round; stroke-linecap: butt}</style>
 </defs>
 <g id="figure_1">
  <g id="patch_1">
   <path d="M 0 345.6 
L 460.8 345.6 
L 460.8 0 
L 0 0 
z
" style="fill: #ffffff"/>
  </g>
  <g id="axes_1">
   <g id="patch_2">
    <path d="M 57.6 307.584 
L 414.72 307.584 
L 414.72 41.472 
L 57.6 41.472 
z
" style="fill: #ffffff"/>
   </g>
   <g id="matplotlib.axis_1">
    <g id="xtick_1">
     <g id="line2d_1">
      <defs>
       <path id="m05de8b2354" d="M 0 0 
L 0 3.5 
" style="stroke: #000000; stroke-width: 0.8"/>
      </defs>
      <g>
       <use xlink:href="#m05de8b2354" x="73.832727" y="307.584" style="stroke: #000000; stroke-width: 0.8"/>
      </g>
     </g>
     <g id="text_1">
      <!-- 0 -->
      <g transform="translate(70.651477 322.182437)scale(0.1 -0.1)">
       <defs>
        <path id="DejaVuSans-30" d="M 2034 4250 
Q 1547 4250 1301 3770 
Q 1056 3291 1056 2328 
Q 1056 1369 1301 889 
Q 1547 409 2034 409 
Q 2525 409 2770 889 
Q 3016 1369 3016 2328 
Q 3016 3291 2770 3770 
Q 2525 4250 2034 4250 
z
M 2034 4750 
Q 2819 4750 3233 4129 
Q 3647 3509 3647 2328 
Q 3647 1150 3233 529 
Q 2819 -91 2034 -91 
Q 1250 -91 836 529 
Q 422 1150 422 2328 
Q 422 3509 836 4129 
Q 1250 4750 2034 4750 
z
" transform="scale(0.015625)"/>
       </defs>
       <use xlink:href="#DejaVuSans-30"/>
      </g>
     </g>
    </g>
    <g id="xtick_2">
     <g id="line2d_2">
      <g>
       <use xlink:href="#m05de8b2354" x="141.076834" y="307.584" style="stroke: #000000; stroke-width: 0.8"/>
      </g>
     </g>
     <g id="text_2">
      <!-- 500 -->
      <g transform="translate(131.533084 322.182437)scale(0.1 -0.1)">
       <defs>
        <path id="DejaVuSans-35" d="M 691 4666 
L 3169 4666 
L 3169 4134 
L 1269 4134 
L 1269 2991 
Q 1406 3038 1543 3061 
Q 1681 3084 1819 3084 
Q 2600 3084 3056 2656 
Q 3513 2228 3513 1497 
Q 3513 744 3044 326 
Q 2575 -91 1722 -91 
Q 1428 -91 1123 -41 
Q 819 9 494 109 
L 494 744 
Q 775 591 1075 516 
Q 1375 441 1709 441 
Q 2250 441 2565 725 
Q 2881 1009 2881 1497 
Q 2881 1984 2565 2268 
Q 2250 2553 1709 2553 
Q 1456 2553 1204 2497 
Q 953 2441 691 2322 
L 691 4666 
z
" transform="scale(0.015625)"/>
       </defs>
       <use xlink:href="#DejaVuSans-35"/>
       <use xlink:href="#DejaVuSans-30" x="63.623047"/>
       <use xlink:href="#DejaVuSans-30" x="127.246094"/>
      </g>
     </g>
    </g>
    <g id="xtick_3">
     <g id="line2d_3">
      <g>
       <use xlink:href="#m05de8b2354" x="208.32094" y="307.584" style="stroke: #000000; stroke-width: 0.8"/>
      </g>
     </g>
     <g id="text_3">
      <!-- 1000 -->
      <g transform="translate(195.59594 322.182437)scale(0.1 -0.1)">
       <defs>
        <path id="DejaVuSans-31" d="M 794 531 
L 1825 531 
L 1825 4091 
L 703 3866 
L 703 4441 
L 1819 4666 
L 2450 4666 
L 2450 531 
L 3481 531 
L 3481 0 
L 794 0 
L 794 531 
z
" transform="scale(0.015625)"/>
       </defs>
       <use xlink:href="#DejaVuSans-31"/>
       <use xlink:href="#DejaVuSans-30" x="63.623047"/>
       <use xlink:href="#DejaVuSans-30" x="127.246094"/>
       <use xlink:href="#DejaVuSans-30" x="190.869141"/>
      </g>
     </g>
    </g>
    <g id="xtick_4">
     <g id="line2d_4">
      <g>
       <use xlink:href="#m05de8b2354" x="275.565046" y="307.584" style="stroke: #000000; stroke-width: 0.8"/>
      </g>
     </g>
     <g id="text_4">
      <!-- 1500 -->
      <g transform="translate(262.840046 322.182437)scale(0.1 -0.1)">
       <use xlink:href="#DejaVuSans-31"/>
       <use xlink:href="#DejaVuSans-35" x="63.623047"/>
       <use xlink:href="#DejaVuSans-30" x="127.246094"/>
       <use xlink:href="#DejaVuSans-30" x="190.869141"/>
      </g>
     </g>
    </g>
    <g id="xtick_5">
     <g id="line2d_5">
      <g>
       <use xlink:href="#m05de8b2354" x="342.809153" y="307.584" style="stroke: #000000; stroke-width: 0.8"/>
      </g>
     </g>
     <g id="text_5">
      <!-- 2000 -->
      <g transform="translate(330.084153 322.182437)scale(0.1 -0.1)">
       <defs>
        <path id="DejaVuSans-32" d="M 1228 531 
L 3431 531 
L 3431 0 
L 469 0 
L 469 531 
Q 828 903 1448 1529 
Q 2069 2156 2228 2338 
Q 2531 2678 2651 2914 
Q 2772 3150 2772 3378 
Q 2772 3750 2511 3984 
Q 2250 4219 1831 4219 
Q 1534 4219 1204 4116 
Q 875 4013 500 3803 
L 500 4441 
Q 881 4594 1212 4672 
Q 1544 4750 1819 4750 
Q 2544 4750 2975 4387 
Q 3406 4025 3406 3419 
Q 3406 3131 3298 2873 
Q 3191 2616 2906 2266 
Q 2828 2175 2409 1742 
Q 1991 1309 1228 531 
z
" transform="scale(0.015625)"/>
       </defs>
       <use xlink:href="#DejaVuSans-32"/>
       <use xlink:href="#DejaVuSans-30" x="63.623047"/>
       <use xlink:href="#DejaVuSans-30" x="127.246094"/>
       <use xlink:href="#DejaVuSans-30" x="190.869141"/>
      </g>
     </g>
    </g>
    <g id="xtick_6">
     <g id="line2d_6">
      <g>
       <use xlink:href="#m05de8b2354" x="410.053259" y="307.584" style="stroke: #000000; stroke-width: 0.8"/>
      </g>
     </g>
     <g id="text_6">
      <!-- 2500 -->
      <g transform="translate(397.328259 322.182437)scale(0.1 -0.1)">
       <use xlink:href="#DejaVuSans-32"/>
       <use xlink:href="#DejaVuSans-35" x="63.623047"/>
       <use xlink:href="#DejaVuSans-30" x="127.246094"/>
       <use xlink:href="#DejaVuSans-30" x="190.869141"/>
      </g>
     </g>
    </g>
   </g>
   <g id="matplotlib.axis_2">
    <g id="ytick_1">
     <g id="line2d_7">
      <defs>
       <path id="md2a7370fb0" d="M 0 0 
L -3.5 0 
" style="stroke: #000000; stroke-width: 0.8"/>
      </defs>
      <g>
       <use xlink:href="#md2a7370fb0" x="57.6" y="283.860873" style="stroke: #000000; stroke-width: 0.8"/>
      </g>
     </g>
     <g id="text_7">
      <!-- 100 -->
      <g transform="translate(31.5125 287.660092)scale(0.1 -0.1)">
       <use xlink:href="#DejaVuSans-31"/>
       <use xlink:href="#DejaVuSans-30" x="63.623047"/>
       <use xlink:href="#DejaVuSans-30" x="127.246094"/>
      </g>
     </g>
    </g>
    <g id="ytick_2">
     <g id="line2d_8">
      <g>
       <use xlink:href="#md2a7370fb0" x="57.6" y="235.335154" style="stroke: #000000; stroke-width: 0.8"/>
      </g>
     </g>
     <g id="text_8">
      <!-- 200 -->
      <g transform="translate(31.5125 239.134373)scale(0.1 -0.1)">
       <use xlink:href="#DejaVuSans-32"/>
       <use xlink:href="#DejaVuSans-30" x="63.623047"/>
       <use xlink:href="#DejaVuSans-30" x="127.246094"/>
      </g>
     </g>
    </g>
    <g id="ytick_3">
     <g id="line2d_9">
      <g>
       <use xlink:href="#md2a7370fb0" x="57.6" y="186.809435" style="stroke: #000000; stroke-width: 0.8"/>
      </g>
     </g>
     <g id="text_9">
      <!-- 300 -->
      <g transform="translate(31.5125 190.608653)scale(0.1 -0.1)">
       <defs>
        <path id="DejaVuSans-33" d="M 2597 2516 
Q 3050 2419 3304 2112 
Q 3559 1806 3559 1356 
Q 3559 666 3084 287 
Q 2609 -91 1734 -91 
Q 1441 -91 1130 -33 
Q 819 25 488 141 
L 488 750 
Q 750 597 1062 519 
Q 1375 441 1716 441 
Q 2309 441 2620 675 
Q 2931 909 2931 1356 
Q 2931 1769 2642 2001 
Q 2353 2234 1838 2234 
L 1294 2234 
L 1294 2753 
L 1863 2753 
Q 2328 2753 2575 2939 
Q 2822 3125 2822 3475 
Q 2822 3834 2567 4026 
Q 2313 4219 1838 4219 
Q 1578 4219 1281 4162 
Q 984 4106 628 3988 
L 628 4550 
Q 988 4650 1302 4700 
Q 1616 4750 1894 4750 
Q 2613 4750 3031 4423 
Q 3450 4097 3450 3541 
Q 3450 3153 3228 2886 
Q 3006 2619 2597 2516 
z
" transform="scale(0.015625)"/>
       </defs>
       <use xlink:href="#DejaVuSans-33"/>
       <use xlink:href="#DejaVuSans-30" x="63.623047"/>
       <use xlink:href="#DejaVuSans-30" x="127.246094"/>
      </g>
     </g>
    </g>
    <g id="ytick_4">
     <g id="line2d_10">
      <g>
       <use xlink:href="#md2a7370fb0" x="57.6" y="138.283715" style="stroke: #000000; stroke-width: 0.8"/>
      </g>
     </g>
     <g id="text_10">
      <!-- 400 -->
      <g transform="translate(31.5125 142.082934)scale(0.1 -0.1)">
       <defs>
        <path id="DejaVuSans-34" d="M 2419 4116 
L 825 1625 
L 2419 1625 
L 2419 4116 
z
M 2253 4666 
L 3047 4666 
L 3047 1625 
L 3713 1625 
L 3713 1100 
L 3047 1100 
L 3047 0 
L 2419 0 
L 2419 1100 
L 313 1100 
L 313 1709 
L 2253 4666 
z
" transform="scale(0.015625)"/>
       </defs>
       <use xlink:href="#DejaVuSans-34"/>
       <use xlink:href="#DejaVuSans-30" x="63.623047"/>
       <use xlink:href="#DejaVuSans-30" x="127.246094"/>
      </g>
     </g>
    </g>
    <g id="ytick_5">
     <g id="line2d_11">
      <g>
       <use xlink:href="#md2a7370fb0" x="57.6" y="89.757996" style="stroke: #000000; stroke-width: 0.8"/>
      </g>
     </g>
     <g id="text_11">
      <!-- 500 -->
      <g transform="translate(31.5125 93.557215)scale(0.1 -0.1)">
       <use xlink:href="#DejaVuSans-35"/>
       <use xlink:href="#DejaVuSans-30" x="63.623047"/>
       <use xlink:href="#DejaVuSans-30" x="127.246094"/>
      </g>
     </g>
    </g>
   </g>
   <g id="line2d_12">
    <path d="M 73.832727 286.978165 
L 74.101704 286.420605 
L 74.236192 285.293352 
L 74.37068 286.271631 
L 74.505168 285.771816 
L 74.639657 286.382755 
L 74.774145 279.814313 
L 74.908633 252.293437 
L 75.177609 250.777979 
L 75.312098 251.341848 
L 75.446586 251.395226 
L 75.581074 252.274997 
L 75.715562 251.50732 
L 75.85005 251.484999 
L 76.253515 246.424737 
L 76.522492 280.993974 
L 76.65698 281.311817 
L 76.925956 279.579449 
L 77.060444 270.590545 
L 77.194933 272.867857 
L 77.463909 272.932396 
L 77.598397 274.540538 
L 77.732885 269.134288 
L 77.867374 255.525735 
L 78.405327 104.867449 
L 78.674303 103.931874 
L 78.808791 111.177249 
L 78.943279 106.302355 
L 79.481232 159.792255 
L 79.750209 231.225511 
L 80.019185 266.46877 
L 80.153673 268.624768 
L 80.288161 264.73252 
L 80.42265 275.284438 
L 80.557138 274.843339 
L 80.826114 277.388513 
L 80.960603 274.810341 
L 81.095091 264.341888 
L 81.364067 170.132601 
L 81.498555 182.617783 
L 81.767532 162.922164 
L 82.036508 171.044884 
L 82.170996 167.897506 
L 82.305485 161.833247 
L 83.112414 263.856631 
L 83.650367 290.432711 
L 83.784855 290.453577 
L 83.919343 292.004945 
L 84.053831 292.200018 
L 84.18832 290.07168 
L 84.322808 282.738959 
L 84.726273 191.256817 
L 84.860761 182.462015 
L 84.995249 186.619699 
L 85.129737 171.515098 
L 85.264225 180.184703 
L 85.398714 180.94316 
L 85.66769 189.363343 
L 85.802178 198.264416 
L 86.340131 266.014084 
L 86.474619 268.057017 
L 86.609107 273.040608 
L 86.878084 290.820432 
L 87.012572 293.105023 
L 87.14706 292.773592 
L 87.281549 294.286624 
L 87.416037 294.188117 
L 87.550525 293.364635 
L 87.819501 265.450215 
L 87.95399 265.598219 
L 88.088478 259.827055 
L 88.222966 261.308545 
L 88.357454 260.539413 
L 88.491942 257.130966 
L 88.626431 260.008056 
L 88.760919 252.909714 
L 88.895407 255.829991 
L 89.029895 255.828536 
L 89.164384 258.427573 
L 89.43336 280.046266 
L 89.567848 281.734476 
L 89.702336 281.228838 
L 89.836825 282.304653 
L 89.971313 266.929279 
L 90.105801 267.653283 
L 90.240289 269.220664 
L 90.374777 268.98677 
L 90.509266 270.24116 
L 90.643754 270.415367 
L 90.778242 272.546131 
L 90.91273 269.275012 
L 91.047218 259.187971 
L 91.181707 257.999576 
L 91.316195 250.964803 
L 91.450683 255.465563 
L 91.585171 253.470186 
L 91.71966 254.990982 
L 91.854148 255.220508 
L 92.123124 258.248028 
L 92.257612 257.66669 
L 92.526589 263.345655 
L 92.795565 270.041719 
L 92.930053 271.011263 
L 93.064542 269.853439 
L 93.19903 280.022489 
L 93.468006 280.149141 
L 93.602495 281.225927 
L 93.736983 279.972993 
L 93.871471 277.41132 
L 94.005959 272.112311 
L 94.6784 163.213804 
L 94.812888 158.748467 
L 95.081865 170.792065 
L 95.216353 165.494512 
L 95.350841 154.053118 
L 96.023282 268.388933 
L 96.157771 269.129921 
L 96.426747 273.118735 
L 96.561235 272.780025 
L 96.695723 272.858637 
L 96.830212 274.771035 
L 96.9647 274.123217 
L 97.099188 272.673269 
L 97.233676 264.072085 
L 97.368164 246.232089 
L 97.502653 204.562569 
L 97.637141 197.354559 
L 97.771629 181.637564 
L 97.906117 190.165959 
L 98.040606 183.346639 
L 98.175094 184.067732 
L 98.309582 178.664393 
L 98.44407 180.332707 
L 98.713047 191.881828 
L 98.982023 234.492262 
L 99.250999 269.894201 
L 99.385488 274.655059 
L 99.519976 275.42128 
L 99.654464 285.382154 
L 99.788952 285.394771 
L 99.923441 284.377672 
L 100.192417 285.635459 
L 100.326905 285.717467 
L 100.461393 285.05218 
L 100.595882 285.464648 
L 100.73037 286.306569 
L 100.864858 284.743556 
L 100.999346 285.917878 
L 101.133834 284.995404 
L 101.268323 282.744782 
L 101.402811 275.607619 
L 101.537299 279.947759 
L 101.806276 269.396327 
L 101.940764 271.59163 
L 102.075252 271.440715 
L 102.20974 272.099209 
L 102.344228 274.51579 
L 102.478717 280.426708 
L 102.613205 278.544881 
L 102.747693 284.305369 
L 102.882181 270.633247 
L 103.016669 270.662363 
L 103.151158 275.646925 
L 103.285646 275.424192 
L 103.554622 271.176735 
L 103.68911 266.921515 
L 103.823599 249.217877 
L 104.092575 185.956838 
L 104.227063 164.13094 
L 104.361552 171.409798 
L 104.630528 146.138574 
L 105.033993 161.700287 
L 105.168481 172.652056 
L 105.706434 257.040708 
L 105.840922 256.916482 
L 105.97541 265.753986 
L 106.109898 282.448289 
L 106.378875 285.688352 
L 106.513363 285.674279 
L 106.647851 287.865701 
L 106.782339 287.592986 
L 106.916828 288.72218 
L 107.320292 250.551364 
L 107.45478 257.727832 
L 107.589269 255.153543 
L 107.723757 255.247683 
L 108.26171 250.103957 
L 108.396198 246.642617 
L 108.530686 248.938369 
L 108.934151 281.052205 
L 109.068639 282.59144 
L 109.203127 281.507376 
L 109.337615 276.940135 
L 109.606592 278.513339 
L 109.875568 279.582361 
L 110.144545 280.647985 
L 110.413521 279.390684 
L 110.548009 279.253841 
L 110.951474 275.140316 
L 111.085962 276.332108 
L 111.22045 275.979326 
L 111.623915 270.093156 
L 111.758403 270.608985 
L 112.02738 274.44931 
L 112.430844 276.071525 
L 112.565333 265.671978 
L 112.834309 269.936418 
L 112.968797 270.467775 
L 113.103285 271.999732 
L 113.237774 272.180733 
L 113.50675 274.83703 
L 113.641238 275.679437 
L 114.313679 264.28026 
L 114.448168 263.913891 
L 114.582656 262.410079 
L 114.98612 251.42143 
L 115.524073 262.644458 
L 115.658561 263.202504 
L 115.927538 265.460406 
L 116.062026 264.157975 
L 116.196514 270.343064 
L 116.331002 269.919919 
L 116.465491 270.539593 
L 116.599979 260.644713 
L 117.137932 79.484616 
L 117.406908 64.578971 
L 117.810373 81.347519 
L 118.213837 149.479084 
L 118.482814 212.681892 
L 118.75179 247.591295 
L 118.886279 249.146544 
L 119.289743 257.25131 
L 119.424231 258.689127 
L 119.55872 261.498766 
L 119.693208 261.820006 
L 119.827696 252.070704 
L 120.365649 92.520565 
L 120.634625 73.696468 
L 120.769114 77.439257 
L 120.903602 70.930502 
L 121.03809 72.277091 
L 121.441555 136.590168 
L 121.710531 204.350512 
L 121.845019 232.922455 
L 122.248484 244.039697 
L 122.51746 259.77125 
L 122.651948 259.932841 
L 122.786437 261.69578 
L 122.920925 260.336575 
L 123.055413 252.062455 
L 123.727854 60.56735 
L 123.862342 53.568 
L 124.534783 108.45253 
L 125.072736 251.353979 
L 125.207225 256.596698 
L 125.341713 257.066427 
L 125.476201 257.019357 
L 125.745177 270.80794 
L 125.879666 272.264682 
L 126.014154 272.497606 
L 126.28313 258.859452 
L 126.821083 93.641509 
L 126.955571 75.035293 
L 127.09006 81.725049 
L 127.359036 106.6037 
L 127.493524 109.080452 
L 127.762501 127.834672 
L 127.896989 150.954266 
L 128.300453 249.71381 
L 128.434942 255.596583 
L 128.56943 253.743871 
L 128.703918 261.349307 
L 128.838406 262.083501 
L 129.241871 268.869823 
L 129.510847 247.870803 
L 130.0488 83.929087 
L 130.183288 74.693672 
L 130.317777 86.778032 
L 130.452265 116.003131 
L 130.586753 115.071923 
L 130.721241 111.373778 
L 130.855729 117.852932 
L 131.124706 171.86788 
L 131.393682 238.427213 
L 131.662659 261.850092 
L 131.931635 261.651137 
L 132.066123 261.466254 
L 132.3351 272.895031 
L 132.469588 272.744601 
L 132.604076 272.84505 
L 132.738564 272.802832 
L 133.007541 260.746132 
L 133.276517 250.140836 
L 133.679982 244.485164 
L 133.81447 243.286578 
L 133.948958 238.116648 
L 134.486911 248.130901 
L 134.755888 255.316104 
L 134.890376 255.199642 
L 135.697305 269.639926 
L 135.831793 274.456104 
L 135.966282 275.073836 
L 136.10077 273.063901 
L 136.235258 274.588093 
L 136.369746 274.310041 
L 136.504234 269.950976 
L 136.638723 269.78987 
L 136.907699 267.828461 
L 137.311164 256.795168 
L 137.445652 257.311967 
L 137.58014 254.592586 
L 137.983605 261.499736 
L 138.118093 260.585512 
L 138.252581 262.445503 
L 138.387069 266.999156 
L 138.521558 265.749134 
L 138.656046 265.952942 
L 138.925022 270.71283 
L 139.193999 254.245627 
L 139.731951 82.049686 
L 139.86644 73.009829 
L 140.269904 99.37822 
L 140.538881 124.14235 
L 140.673369 131.33095 
L 140.807857 145.889151 
L 141.076834 227.103736 
L 141.480298 260.750985 
L 142.018251 269.306069 
L 142.152739 268.835855 
L 142.421716 244.771951 
L 142.959669 92.186223 
L 143.094157 84.667648 
L 143.228645 84.173171 
L 143.363133 94.540206 
L 143.497621 85.137862 
L 143.63211 90.335452 
L 144.573527 262.01605 
L 144.708015 265.55406 
L 144.842504 265.73215 
L 145.11148 268.00558 
L 145.245968 270.178561 
L 145.380456 266.04417 
L 145.783921 204.029757 
L 146.052897 111.06661 
L 146.187386 91.680585 
L 146.456362 107.206389 
L 146.59085 118.685633 
L 146.725339 112.915925 
L 146.859827 120.433044 
L 146.994315 115.284951 
L 147.128803 128.323812 
L 147.532268 237.092755 
L 147.801244 263.473763 
L 147.935732 263.679027 
L 148.204709 269.02559 
L 148.339197 269.003754 
L 148.473685 269.51473 
L 148.742662 268.446193 
L 148.87715 250.503809 
L 149.280615 120.295231 
L 149.415103 116.196749 
L 149.549591 106.980744 
L 149.684079 108.25503 
L 150.087544 141.450019 
L 150.222032 133.643686 
L 150.35652 139.245495 
L 150.894473 255.781951 
L 151.028961 265.090154 
L 151.16345 264.118184 
L 151.835891 272.415112 
L 151.970379 271.123842 
L 152.104867 249.862784 
L 152.508332 114.196034 
L 152.64282 117.351176 
L 152.911796 105.321165 
L 153.046285 119.681381 
L 153.180773 118.158159 
L 153.449749 153.145202 
L 153.718726 194.702628 
L 153.987702 252.171637 
L 154.12219 269.476879 
L 154.256678 270.876361 
L 154.525655 274.796269 
L 154.794631 276.525725 
L 155.063608 279.514425 
L 155.198096 281.180798 
L 155.332584 280.527642 
L 155.467072 276.08123 
L 155.601561 265.44876 
L 155.736049 264.574811 
L 155.870537 261.666665 
L 156.005025 263.837706 
L 156.274002 261.912205 
L 156.40849 262.456664 
L 156.542978 263.729008 
L 156.677466 262.514409 
L 157.215419 270.643438 
L 157.349907 272.679577 
L 157.484396 271.672668 
L 157.618884 272.454418 
L 157.88786 275.677981 
L 158.022348 276.16615 
L 158.291325 279.210168 
L 158.560301 283.555646 
L 158.694789 281.965944 
L 158.829278 282.944708 
L 158.963766 282.542429 
L 159.232742 279.787624 
L 159.367231 280.073926 
L 159.501719 278.060594 
L 160.039672 263.766373 
L 160.308648 264.029382 
L 160.443136 269.834029 
L 160.577624 269.546271 
L 160.712113 267.561569 
L 160.846601 268.273927 
L 160.981089 269.788415 
L 161.250066 273.601566 
L 161.519042 274.567227 
L 161.788018 257.552169 
L 162.460459 84.361451 
L 162.594948 84.01983 
L 162.729436 82.538825 
L 162.998412 102.423209 
L 163.132901 111.502371 
L 163.401877 153.38686 
L 163.670853 225.176295 
L 164.074318 259.776588 
L 164.208806 260.926648 
L 164.477783 273.771406 
L 164.612271 276.168091 
L 164.746759 271.395586 
L 165.015735 253.624498 
L 165.4192 121.932004 
L 165.553688 124.569862 
L 165.822665 110.469744 
L 165.957153 115.803691 
L 166.091641 112.672811 
L 166.360618 101.04799 
L 166.495106 107.334012 
L 166.89857 224.263526 
L 167.033059 231.339061 
L 167.302035 250.002538 
L 167.974476 268.741715 
L 168.108964 262.983653 
L 168.243453 248.763191 
L 168.377941 210.12022 
L 168.646917 107.157378 
L 168.781405 108.459323 
L 168.915894 103.866364 
L 169.050382 105.185778 
L 169.18487 109.03775 
L 169.319358 93.482345 
L 169.453847 95.997433 
L 169.857311 150.166208 
L 170.126288 229.525655 
L 170.395264 260.799025 
L 170.529752 261.691898 
L 170.66424 265.179927 
L 170.798729 265.372089 
L 171.067705 267.733836 
L 171.202193 270.61044 
L 171.47117 248.499211 
L 172.009123 111.280123 
L 172.143611 109.68023 
L 172.412587 97.748241 
L 172.95054 130.732143 
L 173.622981 262.797799 
L 173.757469 266.8463 
L 173.891958 280.425252 
L 174.026446 279.482398 
L 174.160934 279.437754 
L 174.42991 280.991547 
L 174.698887 265.980601 
L 174.833375 248.602086 
L 175.102351 179.061333 
L 175.371328 145.190866 
L 175.505816 142.247781 
L 175.640304 152.565805 
L 175.774792 152.250873 
L 175.909281 153.680926 
L 176.043769 158.559702 
L 176.178257 158.247196 
L 176.312745 172.937873 
L 176.581722 241.614867 
L 176.850698 269.148846 
L 176.985186 266.617259 
L 177.254163 271.423246 
L 177.388651 271.379088 
L 177.792116 278.036816 
L 177.926604 278.940851 
L 178.19558 268.06284 
L 178.330069 267.615918 
L 178.599045 259.934297 
L 178.733533 259.360238 
L 178.868021 261.703545 
L 179.136998 258.139816 
L 179.271486 258.744931 
L 179.540462 256.221109 
L 179.809439 263.842558 
L 179.943927 271.224776 
L 180.212904 269.293938 
L 180.48188 279.313528 
L 180.616368 279.3276 
L 180.750856 279.705616 
L 180.885345 280.549963 
L 181.019833 280.637795 
L 181.692274 268.136599 
L 181.826762 269.452617 
L 181.96125 263.375741 
L 182.095738 265.18575 
L 182.364715 270.708947 
L 182.499203 272.00701 
L 182.633691 275.203885 
L 182.902668 274.373125 
L 183.171644 280.599945 
L 183.306132 282.038247 
L 183.440621 280.910995 
L 183.575109 278.573026 
L 183.844085 290.489972 
L 183.978573 291.456119 
L 184.113062 289.141442 
L 184.382038 277.576793 
L 184.919991 184.407897 
L 185.054479 188.486484 
L 185.188967 181.302736 
L 185.457944 185.223614 
L 185.592432 186.746351 
L 185.995897 225.094286 
L 186.264873 256.172098 
L 186.53385 272.176365 
L 186.802826 282.59144 
L 187.071802 293.253511 
L 187.206291 292.085012 
L 187.340779 293.237013 
L 187.475267 290.009567 
L 187.609755 281.885391 
L 188.01322 204.782391 
L 188.147708 188.124967 
L 188.282196 188.347215 
L 188.416684 187.373789 
L 188.551173 190.738077 
L 188.685661 197.240523 
L 188.820149 192.759173 
L 188.954637 197.264301 
L 189.089126 205.768918 
L 189.627078 268.748023 
L 189.761567 271.377632 
L 189.896055 276.696051 
L 190.030543 274.221724 
L 190.299519 276.0822 
L 190.434008 274.89235 
L 190.971961 278.371159 
L 191.106449 274.864205 
L 191.240937 274.371184 
L 191.375425 274.81665 
L 191.509913 270.31783 
L 191.644402 271.891519 
L 191.913378 270.605588 
L 192.182354 264.880038 
L 192.316843 265.234276 
L 192.451331 264.728153 
L 192.585819 266.069889 
L 192.720307 271.93131 
L 192.989284 273.208993 
L 193.392748 270.478936 
L 193.661725 273.406977 
L 193.796213 273.94998 
L 194.065189 265.937414 
L 194.603142 160.537125 
L 194.73763 155.547225 
L 194.872119 145.436892 
L 195.006607 147.037755 
L 195.141095 151.85733 
L 195.275583 144.340696 
L 195.54456 157.947793 
L 195.948024 253.474068 
L 196.217001 263.975519 
L 196.351489 265.933046 
L 196.485977 275.557637 
L 196.620465 274.894776 
L 196.889442 275.460586 
L 197.02393 276.607249 
L 197.158418 274.849647 
L 197.292907 268.426783 
L 197.830859 198.608949 
L 197.965348 200.957593 
L 198.099836 197.586512 
L 198.234324 202.061068 
L 198.5033 188.521907 
L 198.772277 202.543414 
L 199.31023 276.244762 
L 199.713694 285.503469 
L 199.848183 284.316044 
L 200.117159 285.055576 
L 200.251647 283.243626 
L 200.386135 277.372014 
L 200.520624 276.962457 
L 200.655112 263.796459 
L 200.7896 215.815683 
L 200.924088 213.813997 
L 201.058576 201.942665 
L 201.193065 201.578723 
L 201.327553 198.850607 
L 201.462041 201.058042 
L 201.731018 189.068792 
L 201.865506 190.451775 
L 202.134482 213.511197 
L 202.403459 267.842048 
L 202.806923 277.79807 
L 203.0759 269.190578 
L 203.210388 273.587008 
L 203.344876 273.715116 
L 203.748341 264.188061 
L 203.882829 246.521788 
L 204.151805 183.566461 
L 204.420782 166.82994 
L 204.55527 161.110699 
L 204.689758 164.60261 
L 204.824246 157.998745 
L 204.958735 174.279609 
L 205.093223 174.530001 
L 205.765664 263.597989 
L 205.900152 264.117214 
L 206.03464 267.978405 
L 206.169129 283.066022 
L 206.303617 283.554676 
L 206.572593 287.556592 
L 206.84157 288.381044 
L 207.110546 278.841858 
L 207.379522 269.511333 
L 207.514011 268.61943 
L 207.917475 276.867832 
L 208.051964 276.617439 
L 208.32094 270.154299 
L 208.589916 271.781851 
L 208.858893 279.962802 
L 208.993381 283.67502 
L 209.127869 284.268004 
L 209.262357 283.715296 
L 209.396846 277.766528 
L 209.531334 278.881649 
L 209.80031 278.459961 
L 209.934799 279.466869 
L 210.203775 267.089899 
L 211.010704 109.470599 
L 211.279681 135.504647 
L 211.683145 169.137823 
L 212.221098 258.186886 
L 212.355586 260.690327 
L 212.759051 276.17634 
L 212.893539 275.965739 
L 213.028027 276.067643 
L 213.162516 278.759364 
L 213.431492 260.770395 
L 213.56598 222.076472 
L 213.834957 136.804166 
L 213.969445 141.463606 
L 214.103933 140.354793 
L 214.238421 143.363873 
L 214.910862 182.303822 
L 215.448815 263.896422 
L 215.583303 268.943097 
L 215.717792 269.571019 
L 216.121256 273.90291 
L 216.255745 274.875851 
L 216.390233 277.305534 
L 216.524721 273.2318 
L 216.659209 265.590455 
L 217.062674 150.663112 
L 217.197162 152.606567 
L 217.33165 152.688575 
L 217.466138 164.341541 
L 217.600627 163.036685 
L 217.735115 150.987263 
L 217.869603 156.303741 
L 218.273068 199.187375 
L 218.542044 258.973488 
L 218.811021 276.047747 
L 218.945509 268.50685 
L 219.483462 279.403301 
L 219.61795 281.231264 
L 219.886926 267.254402 
L 220.290391 163.996038 
L 220.693856 152.143631 
L 220.828344 162.983307 
L 220.962832 158.997889 
L 221.231808 186.599318 
L 221.500785 200.693613 
L 221.769761 258.834704 
L 222.038738 274.725421 
L 222.173226 273.960171 
L 222.307714 275.205341 
L 222.576691 281.355976 
L 222.845667 284.038477 
L 222.980155 282.338621 
L 223.114643 284.242771 
L 223.38362 263.351478 
L 223.518108 267.28012 
L 223.652596 267.120956 
L 223.921573 260.043965 
L 224.190549 259.360238 
L 224.325037 261.890854 
L 224.459525 261.25177 
L 224.728502 257.32798 
L 225.131967 264.719418 
L 225.266455 263.208327 
L 225.535431 264.705346 
L 225.669919 263.370403 
L 226.073384 273.303132 
L 226.34236 276.385486 
L 226.476849 276.312212 
L 226.745825 273.111941 
L 226.880313 275.434867 
L 227.014802 275.682348 
L 227.14929 275.380033 
L 227.283778 273.935423 
L 227.418266 275.642072 
L 227.552754 275.773092 
L 227.687243 275.600825 
L 227.956219 274.472117 
L 228.090707 280.392255 
L 228.225195 280.432046 
L 228.359684 281.553475 
L 228.494172 280.766873 
L 228.62866 281.755342 
L 228.763148 281.63888 
L 228.897637 279.309646 
L 229.301101 280.229694 
L 229.435589 273.904366 
L 229.570078 259.567928 
L 230.242519 95.232183 
L 230.377007 80.128552 
L 230.511495 110.647348 
L 230.780471 118.741438 
L 231.049448 146.704383 
L 231.587401 257.370683 
L 231.856377 268.795578 
L 232.125354 273.696676 
L 232.39433 278.437154 
L 232.528818 277.60882 
L 232.797795 260.197306 
L 232.932283 223.274572 
L 233.201259 134.549661 
L 233.335748 126.227015 
L 233.470236 136.708571 
L 233.604724 136.9347 
L 233.739212 149.956577 
L 233.8737 134.954851 
L 234.008189 141.798433 
L 234.815118 268.203565 
L 234.949606 267.932306 
L 235.218583 273.942216 
L 235.622047 281.818911 
L 235.756535 281.210398 
L 236.025512 268.32682 
L 236.563465 130.319674 
L 236.832441 117.888841 
L 237.63937 203.084476 
L 237.908347 262.198992 
L 238.177323 270.432836 
L 238.849764 285.618475 
L 238.984252 284.77898 
L 239.118741 280.91245 
L 239.253229 266.762836 
L 239.791182 129.535984 
L 240.194646 147.589007 
L 240.463623 167.058496 
L 240.732599 180.756336 
L 241.270552 259.621791 
L 241.674017 265.602586 
L 241.942993 278.777804 
L 242.077481 285.393801 
L 242.21197 284.756658 
L 242.480946 266.466829 
L 242.884411 152.724969 
L 243.018899 160.738021 
L 243.153387 158.451004 
L 243.287875 147.276016 
L 243.422363 155.399707 
L 243.556852 152.53766 
L 243.825828 169.476048 
L 244.229293 242.754251 
L 244.498269 265.540958 
L 244.767246 270.908388 
L 245.17071 278.906397 
L 245.305198 279.786654 
L 245.439687 279.485794 
L 245.574175 278.235287 
L 245.708663 266.575527 
L 245.843151 272.120561 
L 246.112128 269.085762 
L 246.381104 263.814899 
L 246.515592 263.780931 
L 247.188033 274.20474 
L 247.322522 274.617209 
L 247.45701 275.499406 
L 247.591498 275.13886 
L 247.725986 278.357571 
L 247.860475 276.894521 
L 248.129451 278.24111 
L 248.263939 277.342413 
L 248.398427 278.036816 
L 248.532916 277.881049 
L 248.667404 279.859928 
L 248.801892 279.759479 
L 249.205357 281.324919 
L 249.339845 281.443322 
L 249.608821 280.478631 
L 249.743309 280.612562 
L 249.877798 280.307335 
L 250.550239 277.087168 
L 250.819215 277.392395 
L 250.953703 278.184335 
L 251.088192 277.028937 
L 251.357168 278.308075 
L 251.491656 287.357151 
L 251.626144 286.859277 
L 251.760633 287.296979 
L 251.895121 287.134418 
L 252.164097 274.683689 
L 252.70205 145.127298 
L 252.836538 165.194138 
L 252.971027 161.692037 
L 253.240003 174.817759 
L 253.374491 176.193463 
L 253.508979 173.218836 
L 253.777956 206.589974 
L 254.046932 258.809956 
L 254.315909 280.494644 
L 254.719373 288.990042 
L 254.853862 288.745957 
L 255.122838 290.508411 
L 255.391814 269.394871 
L 255.660791 174.604731 
L 255.795279 178.109744 
L 256.198744 162.174383 
L 256.333232 165.909407 
L 256.46772 163.200216 
L 256.602208 164.416271 
L 257.409138 261.089209 
L 257.812602 268.68591 
L 258.081579 284.147175 
L 258.216067 285.228813 
L 258.350555 284.48734 
L 258.619532 270.079569 
L 258.888508 179.48933 
L 259.022996 180.372983 
L 259.157484 171.168625 
L 259.291973 170.583405 
L 259.426461 154.83972 
L 259.695437 168.769028 
L 259.829925 157.451375 
L 259.964414 166.676114 
L 260.771343 264.210868 
L 261.040319 266.486725 
L 261.309296 274.111086 
L 261.443784 277.378808 
L 261.71276 274.415827 
L 261.847249 261.81758 
L 262.116225 172.185724 
L 262.250713 176.422504 
L 262.654178 149.551387 
L 262.788666 156.973881 
L 262.923154 152.124221 
L 263.326619 187.860016 
L 263.461107 198.939894 
L 263.864572 248.529297 
L 264.268036 266.873475 
L 264.402525 266.103371 
L 264.671501 269.59043 
L 264.805989 269.462322 
L 264.940478 268.495689 
L 265.074966 260.801451 
L 265.209454 241.366416 
L 265.612919 125.165758 
L 265.881895 106.751703 
L 266.016383 116.411718 
L 266.150871 116.278758 
L 266.28536 115.823101 
L 266.419848 120.531552 
L 266.688824 158.426741 
L 266.957801 238.551439 
L 267.226777 255.494679 
L 267.361265 254.048612 
L 267.495754 270.689537 
L 267.630242 270.368297 
L 267.76473 272.268564 
L 267.899218 272.584952 
L 268.168195 279.214536 
L 268.302683 280.114202 
L 268.437171 277.509827 
L 268.706147 280.088484 
L 268.975124 276.535431 
L 269.2441 274.61915 
L 269.916541 259.88383 
L 270.320006 261.804963 
L 270.588982 266.773512 
L 270.723471 281.107039 
L 270.857959 282.164414 
L 270.992447 280.661573 
L 271.126935 281.559784 
L 271.261424 281.58987 
L 271.395912 281.400619 
L 271.799376 284.224816 
L 271.933865 282.816114 
L 272.068353 283.177146 
L 272.202841 282.521563 
L 272.337329 282.761766 
L 272.471817 281.904316 
L 272.606306 279.702219 
L 272.740794 281.00659 
L 272.875282 280.678557 
L 273.00977 279.989977 
L 273.144258 277.616098 
L 273.278747 277.51468 
L 273.547723 280.543655 
L 273.682211 280.761535 
L 273.8167 281.456909 
L 273.951188 280.580535 
L 274.085676 291.412931 
L 274.354652 293.073481 
L 274.489141 291.474559 
L 274.758117 276.500492 
L 275.29607 168.141105 
L 275.565046 155.689406 
L 275.699535 156.032482 
L 275.834023 174.301931 
L 275.968511 176.623886 
L 276.102999 186.958894 
L 276.77544 267.671723 
L 277.447881 285.379243 
L 277.58237 288.83573 
L 277.716858 288.437819 
L 277.851346 283.961807 
L 277.985834 273.801977 
L 278.389299 212.225265 
L 278.523787 192.39523 
L 278.658275 190.361517 
L 278.792763 180.677725 
L 278.927252 193.022668 
L 279.06174 187.099133 
L 279.196228 189.226986 
L 279.330716 197.059037 
L 280.137646 278.228493 
L 280.272134 280.657205 
L 280.406622 272.152588 
L 280.54111 271.863374 
L 280.810087 273.055166 
L 280.944575 272.420935 
L 281.213551 264.361298 
L 281.348039 234.896967 
L 281.482528 163.17838 
L 281.617016 152.788053 
L 281.751504 128.972115 
L 281.885992 130.144497 
L 282.154969 143.89523 
L 282.289457 125.455456 
L 282.423945 129.616537 
L 282.558433 138.889316 
L 282.82741 188.200182 
L 283.096386 257.981137 
L 283.365363 264.729608 
L 283.499851 266.976349 
L 283.634339 266.293107 
L 283.768827 266.303783 
L 283.903316 266.49643 
L 284.037804 267.824579 
L 284.172292 267.956083 
L 284.441268 262.669692 
L 285.113709 145.32965 
L 285.248198 144.234424 
L 285.382686 139.616232 
L 285.517174 149.023428 
L 285.651662 145.86683 
L 285.78615 149.418427 
L 286.055127 203.499371 
L 286.324103 253.962722 
L 286.59308 263.813928 
L 286.727568 263.690187 
L 286.862056 282.967029 
L 286.996544 283.027201 
L 287.131033 282.031939 
L 287.265521 282.648215 
L 287.668985 279.058768 
L 287.803474 279.951641 
L 288.07245 279.061194 
L 288.206938 276.851333 
L 288.341427 276.795043 
L 288.475915 274.407093 
L 288.610403 274.029562 
L 288.744891 272.885811 
L 288.879379 275.763872 
L 289.013868 276.109375 
L 289.148356 273.249269 
L 289.417332 280.530068 
L 289.55182 281.737873 
L 289.820797 281.370048 
L 289.955285 282.174119 
L 290.089773 280.648471 
L 290.224262 282.222645 
L 290.35875 281.299686 
L 290.493238 282.296889 
L 290.627726 280.728053 
L 291.031191 262.434342 
L 291.300167 195.086952 
L 291.434655 189.40459 
L 291.569144 190.022808 
L 291.703632 194.157199 
L 291.972608 181.188701 
L 292.376073 194.49785 
L 293.048514 272.231685 
L 293.183002 273.500147 
L 293.31749 272.328251 
L 293.451979 273.093016 
L 293.586467 272.14725 
L 293.720955 274.665735 
L 293.855443 274.933597 
L 294.258908 250.593581 
L 294.527884 191.589218 
L 294.796861 159.352127 
L 294.931349 143.205194 
L 295.065837 143.068837 
L 295.200325 151.180396 
L 295.334814 145.360221 
L 295.60379 173.908872 
L 295.738278 188.652927 
L 296.141743 260.084727 
L 296.276231 259.179237 
L 296.410719 266.503709 
L 296.545208 284.490737 
L 296.948672 286.691864 
L 297.486625 288.691123 
L 297.621113 288.339797 
L 297.755601 288.335915 
L 298.024578 285.108955 
L 298.159066 284.956099 
L 298.428042 282.778264 
L 298.697019 278.888443 
L 298.831507 277.734016 
L 298.965995 277.589409 
L 299.100484 277.950926 
L 299.36946 281.79853 
L 299.503948 281.283672 
L 299.638436 282.852509 
L 299.772925 273.033329 
L 299.907413 276.491757 
L 300.041901 276.185075 
L 300.176389 277.065817 
L 300.310877 276.777574 
L 300.579854 265.625878 
L 301.252295 129.309369 
L 301.386783 129.379246 
L 301.521271 142.789328 
L 301.65576 135.732718 
L 301.790248 145.302961 
L 302.597177 255.900354 
L 302.731665 257.682218 
L 303.000642 270.295023 
L 303.13513 270.523094 
L 303.269618 271.011263 
L 303.404106 273.511308 
L 303.538595 273.937364 
L 303.807571 257.30857 
L 304.345524 166.048676 
L 304.6145 155.352152 
L 304.748988 163.72575 
L 304.883477 153.994402 
L 305.017965 160.175123 
L 306.093871 268.720849 
L 306.228359 269.748138 
L 306.497335 280.071015 
L 306.766312 281.117714 
L 306.9008 276.331623 
L 307.035288 265.6186 
L 307.304265 171.617002 
L 307.438753 178.99825 
L 307.842217 159.419092 
L 307.976706 166.586341 
L 308.111194 158.028831 
L 308.245682 163.073079 
L 308.649147 209.832947 
L 309.052611 267.126779 
L 309.590564 279.559068 
L 309.994029 281.290466 
L 310.128517 277.678697 
L 310.263005 264.854805 
L 310.531982 171.503938 
L 310.66647 172.674378 
L 310.935446 170.34757 
L 311.069934 160.842352 
L 311.204423 167.404 
L 311.338911 166.091864 
L 311.473399 159.20655 
L 311.607887 172.559372 
L 311.876864 210.754936 
L 312.14584 253.779295 
L 312.414817 265.77922 
L 312.818281 274.531804 
L 312.952769 274.090705 
L 313.087258 276.007471 
L 313.221746 275.907023 
L 313.356234 277.509827 
L 313.625211 266.77982 
L 313.759699 258.758519 
L 313.894187 262.16648 
L 314.028675 259.596073 
L 314.163163 261.510412 
L 314.297652 258.704655 
L 314.566628 265.375971 
L 314.701116 266.122782 
L 314.970093 270.954488 
L 315.104581 270.916152 
L 315.239069 270.614808 
L 315.508045 273.595743 
L 315.642534 274.141657 
L 315.777022 273.805859 
L 316.180487 276.845025 
L 316.314975 276.398103 
L 316.718439 278.791391 
L 316.852928 279.044696 
L 316.987416 278.177056 
L 317.121904 278.243536 
L 317.256392 277.105123 
L 317.39088 277.252155 
L 317.525369 275.687686 
L 317.659857 276.622292 
L 317.928833 274.061104 
L 318.332298 270.262511 
L 318.466786 270.927798 
L 318.601274 270.416823 
L 318.735763 271.897342 
L 318.870251 271.730899 
L 319.139227 272.865916 
L 319.273715 282.865611 
L 319.67718 284.002568 
L 319.811668 281.380724 
L 319.946157 273.293913 
L 320.349621 149.267512 
L 320.484109 132.846894 
L 320.887574 160.580798 
L 321.022062 165.325158 
L 321.291039 180.354543 
L 321.425527 182.184934 
L 321.560015 200.933331 
L 321.828991 257.388638 
L 321.96348 265.611321 
L 322.097968 266.411025 
L 322.635921 283.390174 
L 322.770409 283.742956 
L 322.904897 283.072816 
L 323.173874 272.466549 
L 323.44285 175.40492 
L 323.577338 175.772745 
L 323.711826 175.977524 
L 323.980803 155.463276 
L 324.249779 159.061458 
L 324.384268 161.874009 
L 324.787732 198.722984 
L 325.056709 254.15731 
L 325.325685 263.583916 
L 325.863638 281.703905 
L 325.998126 283.500812 
L 326.132614 283.567293 
L 326.267103 280.300541 
L 326.401591 271.151017 
L 326.670567 168.094035 
L 326.805055 174.149075 
L 326.939544 175.340866 
L 327.20852 161.893419 
L 327.343008 170.172877 
L 327.611985 166.356329 
L 327.746473 171.297218 
L 328.149937 226.906722 
L 328.418914 258.266953 
L 328.68789 271.291741 
L 328.822379 273.785963 
L 328.956867 284.000142 
L 329.225843 284.962892 
L 329.360331 284.101561 
L 329.629308 271.054936 
L 330.032772 180.553499 
L 330.301749 169.025244 
L 330.570725 160.069822 
L 330.839702 182.288293 
L 330.97419 183.520847 
L 331.108678 186.312046 
L 331.781119 263.462602 
L 332.050096 270.745342 
L 332.184584 281.699538 
L 332.319072 282.671508 
L 332.45356 281.995545 
L 332.588049 282.999542 
L 332.857025 270.181473 
L 333.26049 179.911504 
L 333.394978 181.853018 
L 333.663954 166.693583 
L 333.798442 167.905755 
L 333.932931 171.735405 
L 334.336395 189.897126 
L 334.73986 258.759974 
L 335.143325 274.750169 
L 335.277813 274.548302 
L 335.412301 274.647295 
L 335.546789 274.937479 
L 335.681277 274.830722 
L 335.950254 277.455478 
L 336.084742 275.32617 
L 336.622695 258.589649 
L 336.757183 259.397602 
L 336.891671 257.538097 
L 337.295136 264.001237 
L 337.698601 268.812077 
L 337.833089 268.324879 
L 338.102065 272.492268 
L 338.236553 272.256433 
L 338.371042 272.904251 
L 338.50553 270.530373 
L 339.043483 273.74132 
L 339.446947 276.786794 
L 339.581436 276.297169 
L 339.715924 275.108774 
L 339.850412 275.372269 
L 339.9849 274.579359 
L 340.119388 274.464838 
L 340.253877 273.983463 
L 340.388365 275.484849 
L 340.522853 273.463267 
L 340.657341 274.07178 
L 340.926318 273.748113 
L 341.060806 270.35471 
L 341.329782 275.31695 
L 341.464271 275.21359 
L 341.598759 275.75077 
L 341.733247 277.342899 
L 341.867735 285.293352 
L 342.136712 285.396712 
L 342.2712 286.048898 
L 342.540176 273.144939 
L 342.943641 156.079552 
L 343.212617 172.961165 
L 343.347106 172.214839 
L 343.75057 186.835639 
L 343.885058 188.537921 
L 344.019547 187.864384 
L 344.423011 256.863589 
L 345.22994 282.978676 
L 345.364429 284.080209 
L 345.498917 283.706561 
L 345.633405 279.42077 
L 345.767893 271.20391 
L 346.03687 185.570088 
L 346.171358 189.755431 
L 346.440334 175.968304 
L 346.574823 170.50916 
L 346.843799 177.500261 
L 347.112775 179.399557 
L 347.381752 214.443861 
L 347.650728 253.991837 
L 348.054193 272.247213 
L 348.188681 273.44871 
L 348.323169 282.564266 
L 348.457658 283.426083 
L 348.592146 285.32732 
L 348.726634 285.12885 
L 348.99561 272.011378 
L 349.264587 184.502522 
L 349.399075 186.000511 
L 349.668052 168.156148 
L 349.80254 163.977113 
L 350.206004 182.977844 
L 350.340493 184.176914 
L 351.012934 265.664214 
L 351.147422 268.022564 
L 351.550886 284.957069 
L 351.685375 284.233551 
L 351.954351 284.606228 
L 352.088839 283.186366 
L 352.223328 275.7794 
L 352.492304 180.359396 
L 352.626792 187.63971 
L 352.76128 176.087192 
L 352.895769 175.36707 
L 353.030257 166.955622 
L 353.164745 174.28252 
L 353.299233 172.172137 
L 353.56821 154.111349 
L 354.240651 272.390849 
L 354.375139 273.546732 
L 354.644115 279.503264 
L 354.913092 283.84583 
L 355.182068 284.904661 
L 355.316556 282.463818 
L 355.451045 273.189582 
L 355.854509 198.713764 
L 356.123486 159.766051 
L 356.257974 161.507154 
L 356.392462 170.254886 
L 356.52695 169.611435 
L 356.661439 180.387056 
L 356.795927 179.115682 
L 357.33388 268.011888 
L 357.602856 277.762161 
L 357.737344 279.758024 
L 357.871832 284.08118 
L 358.006321 283.493533 
L 358.140809 283.711414 
L 358.275297 284.463077 
L 358.409785 284.37379 
L 358.678762 283.094167 
L 359.082226 264.331697 
L 359.351203 258.331978 
L 359.485691 251.960551 
L 359.620179 262.86525 
L 359.754667 264.302097 
L 359.889156 264.472907 
L 360.427109 278.989861 
L 360.561597 279.680382 
L 360.965061 283.893871 
L 361.234038 283.853594 
L 361.368526 283.659006 
L 361.503014 284.985214 
L 361.771991 284.57129 
L 361.906479 285.923216 
L 362.040967 285.874691 
L 362.175455 286.256103 
L 362.309944 286.29735 
L 362.57892 282.830187 
L 362.713408 282.780205 
L 362.982385 281.627234 
L 363.116873 280.110806 
L 363.251361 280.007446 
L 363.385849 281.115773 
L 363.520337 280.248133 
L 363.654826 280.187476 
L 364.05829 283.018467 
L 364.192778 256.592331 
L 364.730731 262.950655 
L 364.86522 261.736057 
L 364.999708 249.45905 
L 365.134196 226.948454 
L 365.403172 137.187034 
L 365.672149 106.399892 
L 365.806637 100.382217 
L 366.075613 117.603024 
L 366.34459 114.407606 
L 366.479078 126.025633 
L 367.017031 254.472727 
L 367.151519 259.513094 
L 367.286007 257.749669 
L 367.554984 269.295393 
L 367.689472 270.176135 
L 367.958448 275.155844 
L 368.227425 251.209858 
L 368.496401 153.68772 
L 368.765378 100.959188 
L 369.034354 89.87931 
L 369.168842 94.678504 
L 369.303331 94.22673 
L 369.437819 97.650704 
L 369.572307 95.493736 
L 369.706795 111.866799 
L 370.244748 237.736692 
L 370.782701 282.680242 
L 370.917189 282.990322 
L 371.051677 283.896782 
L 371.186166 283.613392 
L 371.455142 268.547127 
L 371.858607 173.729327 
L 372.127583 206.246412 
L 372.262071 202.118329 
L 372.396559 203.568762 
L 372.665536 192.703369 
L 372.800024 196.561163 
L 373.203489 236.928739 
L 373.472465 259.556281 
L 373.87593 281.102186 
L 374.010418 290.271121 
L 374.144906 290.122632 
L 374.279394 291.349362 
L 374.413883 290.837901 
L 374.682859 274.000932 
L 375.220812 183.108863 
L 375.489788 179.418968 
L 375.624277 179.645583 
L 375.893253 186.290209 
L 376.027741 190.658009 
L 376.565694 259.370428 
L 376.83467 268.409314 
L 376.969159 271.293197 
L 377.103647 283.302827 
L 377.238135 282.191588 
L 377.507112 284.29906 
L 377.6416 282.300286 
L 377.776088 285.898953 
L 378.045064 283.715781 
L 378.179553 273.913101 
L 378.314041 273.276929 
L 378.448529 266.057272 
L 378.583017 267.074856 
L 378.717505 266.142192 
L 378.851994 270.729328 
L 378.986482 269.956314 
L 379.12097 270.879758 
L 379.255458 273.075547 
L 379.389947 272.957144 
L 379.927899 282.367252 
L 380.062388 282.157135 
L 380.196876 282.580765 
L 380.331364 272.504399 
L 380.465852 273.19395 
L 380.869317 276.147225 
L 381.138293 265.066862 
L 381.272782 237.512988 
L 381.541758 161.654672 
L 381.810734 141.149644 
L 381.945223 142.767977 
L 382.214199 149.365049 
L 382.348687 141.239417 
L 382.752152 191.944426 
L 383.021128 261.103767 
L 383.155616 269.1668 
L 383.290105 269.840337 
L 383.424593 271.149561 
L 383.559081 266.136854 
L 383.693569 265.41285 
L 383.962546 265.765147 
L 384.097034 266.975864 
L 384.231522 265.161487 
L 384.36601 266.577468 
L 385.038451 150.445716 
L 385.17294 152.930719 
L 385.307428 168.324532 
L 385.576404 162.58394 
L 386.248845 263.998326 
L 386.921286 282.815629 
L 387.055775 281.98681 
L 387.190263 283.286329 
L 387.324751 282.583676 
L 387.459239 282.747693 
L 387.593727 284.262666 
L 387.728216 283.678416 
L 387.862704 285.018212 
L 387.997192 283.828846 
L 388.13168 285.446694 
L 388.266169 284.445608 
L 388.400657 282.425968 
L 388.535145 282.516711 
L 388.669633 281.842689 
L 388.804121 283.001483 
L 388.93861 280.406327 
L 389.207586 282.583676 
L 389.476562 289.389408 
L 389.611051 288.312623 
L 389.745539 289.143383 
L 389.880027 289.09049 
L 390.014515 273.926688 
L 390.149004 274.167861 
L 390.41798 274.190183 
L 390.552468 274.057222 
L 390.686956 268.461721 
L 390.821445 268.650001 
L 390.955933 259.641201 
L 391.224909 202.487609 
L 391.359397 170.554289 
L 391.493886 166.493657 
L 391.762862 177.377005 
L 391.89735 176.823812 
L 392.031839 169.472166 
L 392.166327 173.237276 
L 392.300815 182.37661 
L 392.569791 243.602481 
L 392.70428 270.357621 
L 392.973256 275.286379 
L 393.107744 275.955548 
L 393.376721 268.773742 
L 393.645697 274.593431 
L 393.780185 271.142282 
L 393.914673 272.551469 
L 394.049162 265.00669 
L 394.721603 148.358625 
L 394.990579 147.267767 
L 395.125067 146.840255 
L 395.259556 158.427712 
L 395.394044 159.313306 
L 395.931997 249.026686 
L 396.200973 262.879323 
L 396.335461 259.075877 
L 396.46995 284.290326 
L 396.604438 284.680473 
L 397.007902 287.76962 
L 397.276879 274.479881 
L 397.545855 199.455722 
L 397.680343 194.175639 
L 397.94932 170.381052 
L 398.083808 156.673993 
L 398.218296 169.644917 
L 398.352785 164.793316 
L 398.487273 167.859656 
L 398.487273 167.859656 
" clip-path="url(#p9a66dc60ed)" style="fill: none; stroke: #1f77b4; stroke-width: 1.5; stroke-linecap: square"/>
   </g>
   <g id="line2d_13">
    <path d="M 73.832727 283.365746 
L 73.967215 284.176744 
L 74.236192 283.590596 
L 74.37068 281.42283 
L 74.505168 283.060225 
L 74.639657 281.163985 
L 74.774145 282.203179 
L 74.908633 268.45083 
L 75.043121 218.216618 
L 75.312098 248.727725 
L 75.446586 251.766081 
L 75.581074 248.689486 
L 75.715562 250.977383 
L 75.85005 250.790849 
L 75.984539 252.269012 
L 76.119027 249.724433 
L 76.253515 249.378566 
L 76.388003 250.513353 
L 76.522492 284.821079 
L 76.65698 284.56291 
L 76.925956 278.362385 
L 77.060444 278.629742 
L 77.194933 265.77348 
L 77.329421 270.365439 
L 77.598397 267.681731 
L 77.732885 270.859744 
L 77.867374 257.56661 
L 78.001862 231.635953 
L 78.270838 127.391298 
L 78.539815 99.94275 
L 78.674303 117.11768 
L 78.808791 106.978939 
L 78.943279 110.855047 
L 79.077768 105.585868 
L 80.019185 262.242375 
L 80.288161 270.79011 
L 80.42265 266.482702 
L 80.557138 280.091358 
L 80.691626 273.2996 
L 80.826114 274.253482 
L 80.960603 273.615978 
L 81.095091 266.190368 
L 81.229579 247.202506 
L 81.498555 147.139098 
L 81.633044 167.64023 
L 81.90202 153.731323 
L 82.036508 204.408886 
L 82.170996 207.23313 
L 82.305485 205.640763 
L 82.439973 211.21993 
L 82.574461 199.216269 
L 82.708949 227.659293 
L 82.843438 222.978997 
L 82.977926 209.646183 
L 83.112414 225.095308 
L 83.246902 207.584669 
L 83.38139 207.186787 
L 83.919343 284.960939 
L 84.053831 288.438251 
L 84.18832 286.427887 
L 84.322808 207.160451 
L 84.457296 243.14473 
L 84.591784 207.160451 
L 84.860761 207.160451 
L 84.995249 207.779354 
L 85.264225 165.767953 
L 85.398714 179.949962 
L 85.533202 182.221004 
L 85.936666 218.137491 
L 86.205643 265.149661 
L 86.340131 263.915378 
L 86.474619 270.714786 
L 86.609107 267.866423 
L 87.14706 295.488 
L 87.281549 293.700181 
L 87.416037 294.794046 
L 87.685013 289.692815 
L 87.95399 244.710209 
L 88.088478 262.69595 
L 88.222966 257.800457 
L 88.357454 264.426649 
L 88.626431 256.54023 
L 88.760919 262.033145 
L 88.895407 248.144702 
L 89.029895 255.77257 
L 89.164384 256.584482 
L 89.298872 261.491777 
L 89.43336 281.504002 
L 89.567848 282.832307 
L 89.702336 280.177097 
L 89.836825 279.798965 
L 89.971313 280.820584 
L 90.105801 258.959506 
L 90.240289 263.602318 
L 90.374777 264.144054 
L 90.509266 261.244299 
L 90.643754 266.135167 
L 90.778242 263.269796 
L 90.91273 266.23882 
L 91.181707 241.753824 
L 91.316195 251.300187 
L 91.450683 244.583356 
L 91.585171 257.225385 
L 91.71966 252.028839 
L 91.854148 255.474132 
L 91.988636 254.719309 
L 92.257612 258.522554 
L 92.392101 258.142905 
L 92.795565 270.663111 
L 92.930053 272.693479 
L 93.064542 272.17347 
L 93.19903 269.946937 
L 93.333518 282.930311 
L 93.602495 278.916522 
L 93.736983 280.482628 
L 94.005959 269.613195 
L 94.140447 259.685905 
L 94.409424 166.900876 
L 94.543912 180.281077 
L 94.812888 156.661807 
L 94.947377 154.443144 
L 95.216353 172.407791 
L 95.350841 171.279466 
L 95.48533 165.579328 
L 95.888794 259.2579 
L 96.157771 269.717163 
L 96.292259 268.556859 
L 96.426747 275.668318 
L 96.561235 275.239192 
L 96.830212 271.345575 
L 96.9647 272.800333 
L 97.233676 266.777925 
L 97.502653 214.458622 
L 97.637141 165.414275 
L 97.771629 183.99282 
L 97.906117 171.915856 
L 98.040606 188.043965 
L 98.175094 177.285332 
L 98.309582 181.378263 
L 98.44407 179.001049 
L 98.847535 213.485496 
L 99.250999 273.347992 
L 99.385488 272.145916 
L 99.519976 272.904383 
L 99.788952 289.257439 
L 100.057929 283.113149 
L 100.192417 284.330241 
L 100.595882 279.997251 
L 100.73037 280.863468 
L 100.864858 285.085101 
L 100.999346 283.949795 
L 101.133834 289.318724 
L 101.268323 288.394948 
L 101.402811 286.26131 
L 101.537299 275.57027 
L 101.671787 284.486378 
L 101.940764 263.714167 
L 102.075252 271.020866 
L 102.20974 270.681342 
L 102.478717 276.665575 
L 102.613205 282.464304 
L 102.747693 277.838755 
L 102.882181 284.376888 
L 103.016669 264.893915 
L 103.151158 267.496502 
L 103.285646 274.376118 
L 103.823599 252.538799 
L 104.092575 161.931713 
L 104.227063 172.156169 
L 104.361552 155.988899 
L 104.49604 171.252393 
L 104.630528 152.172942 
L 104.765016 149.426205 
L 105.033993 164.271425 
L 105.302969 194.155471 
L 105.706434 266.667 
L 105.97541 258.919055 
L 106.244387 287.98816 
L 106.378875 287.398495 
L 106.513363 288.129279 
L 106.647851 286.754039 
L 106.782339 287.001592 
L 106.916828 284.456645 
L 107.051316 286.03709 
L 107.320292 221.133911 
L 107.589269 259.182863 
L 107.723757 252.765548 
L 107.992733 252.389611 
L 108.127222 254.222557 
L 108.530686 247.70164 
L 108.665174 254.118442 
L 108.934151 283.453231 
L 109.203127 281.246541 
L 109.337615 280.731025 
L 109.472104 273.828749 
L 109.606592 276.115324 
L 109.74108 275.048876 
L 109.875568 275.621888 
L 110.010056 275.62416 
L 110.279033 275.28122 
L 110.413521 272.373195 
L 110.548009 274.23719 
L 110.682498 277.886636 
L 110.816986 278.173268 
L 110.951474 277.54526 
L 111.085962 277.54664 
L 111.22045 279.530999 
L 111.354939 278.554103 
L 111.758403 267.309733 
L 112.161868 276.09648 
L 112.296356 276.343267 
L 112.430844 276.185967 
L 112.565333 275.562905 
L 112.699821 260.39985 
L 112.834309 266.106935 
L 112.968797 266.166896 
L 113.103285 264.664482 
L 113.237774 267.892072 
L 113.372262 265.778354 
L 113.50675 268.779767 
L 113.641238 267.61917 
L 113.775726 270.332002 
L 113.910215 268.908766 
L 114.044703 272.712235 
L 114.179191 271.269074 
L 114.313679 264.522307 
L 114.448168 265.477646 
L 114.582656 264.771977 
L 114.717144 261.382351 
L 114.98612 250.691576 
L 115.120609 253.954511 
L 115.389585 265.773204 
L 115.524073 266.172096 
L 115.79305 265.244717 
L 115.927538 265.107432 
L 116.062026 264.082758 
L 116.196514 259.947391 
L 116.331002 269.800153 
L 116.465491 264.234906 
L 116.599979 264.563768 
L 116.734467 243.27687 
L 117.003444 123.421358 
L 117.27242 79.750585 
L 117.406908 83.192103 
L 117.675885 73.979135 
L 117.810373 78.766343 
L 118.213837 151.241005 
L 118.482814 232.314117 
L 118.886279 255.353655 
L 119.289743 259.241199 
L 119.424231 255.171006 
L 119.55872 254.787312 
L 119.693208 256.702832 
L 119.827696 253.648625 
L 119.962184 232.835259 
L 120.231161 123.794478 
L 120.500137 91.197563 
L 120.634625 98.265855 
L 120.769114 88.040489 
L 120.903602 89.612274 
L 121.03809 85.535473 
L 121.172578 98.109266 
L 121.576043 186.894902 
L 121.710531 233.147213 
L 121.845019 237.138251 
L 121.979507 250.449999 
L 122.113996 247.035046 
L 122.382972 251.599406 
L 122.51746 262.242745 
L 122.786437 256.232138 
L 122.920925 256.477238 
L 123.055413 250.143302 
L 123.189901 233.78461 
L 123.458878 127.024926 
L 123.727854 91.25093 
L 123.862342 94.34986 
L 123.996831 89.487135 
L 124.131319 92.21759 
L 124.669272 146.04529 
L 125.072736 244.243016 
L 125.207225 260.042651 
L 125.341713 259.068462 
L 125.476201 259.770471 
L 125.610689 261.214599 
L 125.745177 272.165712 
L 125.879666 271.037456 
L 126.014154 270.985997 
L 126.148642 269.564984 
L 126.417618 242.959638 
L 126.686595 131.35058 
L 126.955571 87.605404 
L 127.09006 86.623544 
L 127.224548 88.199548 
L 127.896989 160.722301 
L 128.300453 245.620828 
L 128.434942 258.576842 
L 128.56943 258.177637 
L 128.703918 259.147148 
L 128.838406 266.530949 
L 128.972894 261.768079 
L 129.107383 262.268464 
L 129.241871 266.279122 
L 129.376359 264.029266 
L 129.645336 224.751252 
L 129.914312 120.931203 
L 130.183288 85.98207 
L 130.452265 97.040725 
L 130.586753 119.726858 
L 130.721241 114.154819 
L 130.990218 140.605158 
L 131.662659 263.75264 
L 131.797147 263.349286 
L 131.931635 265.913055 
L 132.066123 264.367611 
L 132.200612 260.693754 
L 132.3351 264.256461 
L 132.469588 272.443039 
L 132.738564 267.056953 
L 132.873053 265.548603 
L 133.007541 246.846017 
L 133.142029 246.511793 
L 133.276517 242.927489 
L 133.411005 244.80435 
L 133.545494 238.748281 
L 133.679982 238.947511 
L 133.81447 242.221645 
L 133.948958 240.715838 
L 134.083447 237.724055 
L 134.352423 249.82289 
L 134.755888 262.751192 
L 134.890376 262.642787 
L 135.024864 261.347852 
L 135.29384 263.117342 
L 135.428329 262.838368 
L 135.562817 263.496571 
L 135.831793 265.838843 
L 135.966282 272.592112 
L 136.10077 270.113655 
L 136.235258 263.987763 
L 136.504234 271.345655 
L 136.638723 267.455045 
L 136.773211 271.707332 
L 137.042187 270.316012 
L 137.311164 257.066509 
L 137.445652 255.207918 
L 137.58014 258.610789 
L 137.714628 257.118678 
L 137.983605 266.651895 
L 138.118093 266.93441 
L 138.252581 264.472324 
L 138.387069 265.126013 
L 138.521558 268.810134 
L 138.790534 262.844825 
L 138.925022 266.610111 
L 139.05951 265.948667 
L 139.328487 234.463384 
L 139.597463 120.714624 
L 139.86644 82.499845 
L 140.000928 86.360303 
L 140.135416 83.610714 
L 140.404393 99.186146 
L 140.673369 147.076514 
L 140.942345 188.150103 
L 141.076834 240.207091 
L 141.480298 261.684903 
L 141.883763 270.244083 
L 142.018251 266.272962 
L 142.152739 266.166783 
L 142.287228 262.835375 
L 142.959669 93.889619 
L 143.094157 94.638883 
L 143.228645 99.458299 
L 143.363133 92.301277 
L 143.497621 96.968455 
L 143.63211 89.957684 
L 143.766598 106.780597 
L 144.304551 238.944899 
L 144.439039 240.507089 
L 144.708015 264.402387 
L 144.842504 269.18273 
L 144.976992 268.774262 
L 145.245968 266.457496 
L 145.380456 267.468532 
L 145.514945 257.131863 
L 145.649433 223.449934 
L 145.783921 225.146552 
L 146.052897 128.530464 
L 146.321874 92.538718 
L 146.456362 112.21914 
L 146.59085 111.935301 
L 146.725339 113.767244 
L 146.859827 109.31675 
L 146.994315 128.576312 
L 147.128803 131.70464 
L 147.263291 157.164921 
L 147.532268 244.951308 
L 148.070221 267.651093 
L 148.204709 270.835686 
L 148.339197 270.170493 
L 148.742662 262.35167 
L 148.87715 260.453847 
L 149.415103 104.171449 
L 149.684079 113.145612 
L 149.818567 108.839512 
L 150.491009 166.104159 
L 150.759985 246.643058 
L 150.894473 250.203124 
L 151.16345 266.459411 
L 151.432426 268.872485 
L 151.566914 268.538895 
L 151.701402 268.89602 
L 151.835891 268.355989 
L 151.970379 268.377877 
L 152.104867 263.749134 
L 152.64282 98.196754 
L 152.911796 116.996008 
L 153.046285 103.159292 
L 153.315261 117.6171 
L 153.449749 161.435633 
L 153.584237 167.645765 
L 154.12219 264.051968 
L 154.256678 274.048163 
L 154.391167 269.464227 
L 154.525655 275.601475 
L 154.794631 276.204636 
L 154.92912 275.235979 
L 155.063608 275.263707 
L 155.332584 278.289227 
L 155.467072 275.397712 
L 155.601561 266.221559 
L 155.736049 248.590298 
L 155.870537 258.9048 
L 156.005025 258.690128 
L 156.139513 265.292221 
L 156.40849 262.141634 
L 156.677466 264.855706 
L 156.811955 260.56383 
L 157.349907 274.787089 
L 157.484396 275.551115 
L 157.618884 272.986779 
L 157.753372 273.557594 
L 157.88786 275.058619 
L 158.022348 275.116844 
L 158.156837 274.422212 
L 158.291325 274.910934 
L 158.425813 276.664755 
L 158.694789 281.14116 
L 158.829278 276.894717 
L 158.963766 280.915822 
L 159.098254 280.624791 
L 159.232742 276.838641 
L 159.501719 282.311743 
L 159.636207 279.646466 
L 159.905183 264.995075 
L 160.039672 265.379533 
L 160.17416 260.57232 
L 160.577624 274.861828 
L 160.846601 269.421429 
L 160.981089 269.877283 
L 161.115577 269.906957 
L 161.250066 272.612675 
L 161.65353 270.133122 
L 161.922507 235.431585 
L 162.325971 100.021739 
L 162.460459 85.676726 
L 162.594948 101.09423 
L 162.863924 87.021691 
L 163.536365 196.137019 
L 163.670853 241.176443 
L 163.93983 252.817568 
L 164.208806 264.626435 
L 164.343294 264.420104 
L 164.477783 276.367537 
L 164.612271 273.246566 
L 164.746759 275.436012 
L 164.881247 264.144861 
L 165.150224 234.223925 
L 165.4192 132.707789 
L 165.553688 106.229367 
L 165.688177 115.652213 
L 165.822665 114.624746 
L 165.957153 110.380399 
L 166.091641 113.703799 
L 166.226129 113.692004 
L 166.360618 112.20606 
L 166.495106 119.486849 
L 166.629594 136.732956 
L 166.89857 240.569668 
L 167.436523 257.811726 
L 167.571012 259.655274 
L 167.839988 265.815643 
L 167.974476 265.790674 
L 168.108964 265.615009 
L 168.243453 251.366995 
L 168.377941 224.317273 
L 168.781405 98.574028 
L 168.915894 105.410224 
L 169.050382 106.159542 
L 169.18487 101.677853 
L 169.319358 105.072272 
L 169.453847 95.254882 
L 169.588335 108.19903 
L 170.260776 249.294849 
L 170.395264 262.721466 
L 170.529752 262.421366 
L 170.798729 269.221658 
L 171.067705 264.44066 
L 171.202193 264.382049 
L 171.336681 266.958428 
L 172.009123 100.544276 
L 172.143611 105.664379 
L 172.278099 113.807101 
L 172.547075 96.301554 
L 173.085028 160.619651 
L 173.488493 250.706701 
L 173.757469 264.759637 
L 173.891958 270.762039 
L 174.026446 285.838429 
L 174.160934 280.179071 
L 174.295422 279.395102 
L 174.42991 279.62362 
L 174.564399 277.459194 
L 174.967863 216.984328 
L 175.102351 167.064262 
L 175.23684 165.03524 
L 175.505816 141.719413 
L 175.640304 145.11475 
L 175.774792 156.442846 
L 175.909281 153.974457 
L 176.043769 156.704999 
L 176.447234 206.587676 
L 176.581722 251.622676 
L 176.71621 256.421562 
L 176.985186 269.387907 
L 177.119675 268.782441 
L 177.254163 271.757824 
L 177.388651 271.829439 
L 177.523139 268.32928 
L 177.792116 274.971493 
L 177.926604 274.070659 
L 178.061092 274.56429 
L 178.19558 257.733295 
L 178.330069 255.946961 
L 178.464557 261.930786 
L 178.599045 253.835474 
L 178.733533 260.009084 
L 178.868021 259.70204 
L 179.00251 263.836915 
L 179.271486 258.080097 
L 179.405974 258.36771 
L 179.540462 255.971672 
L 179.674951 258.690594 
L 180.078415 275.373931 
L 180.212904 270.05175 
L 180.347392 270.26076 
L 180.48188 280.309227 
L 180.750856 278.124201 
L 180.885345 278.152725 
L 181.154321 275.775928 
L 181.557786 260.2872 
L 181.692274 267.436932 
L 181.826762 266.663661 
L 181.96125 271.087733 
L 182.095738 262.670706 
L 182.499203 273.084319 
L 182.633691 272.887353 
L 182.76818 276.404353 
L 182.902668 274.808464 
L 183.037156 275.216069 
L 183.171644 281.393852 
L 183.306132 281.354216 
L 183.440621 281.829551 
L 183.709597 276.429766 
L 183.844085 290.358056 
L 183.978573 290.530872 
L 184.113062 291.475864 
L 184.24755 287.361062 
L 184.516526 265.241109 
L 184.785503 187.627221 
L 184.919991 191.20478 
L 185.054479 177.109202 
L 185.188967 186.385617 
L 185.323456 177.575192 
L 185.72692 195.248361 
L 186.264873 260.947781 
L 186.937314 284.976181 
L 187.071802 294.848651 
L 187.206291 295.04043 
L 187.340779 292.275089 
L 187.475267 293.635735 
L 187.744243 269.07167 
L 188.01322 190.819463 
L 188.147708 196.033158 
L 188.282196 181.403342 
L 188.416684 185.153217 
L 188.551173 183.964076 
L 188.685661 187.835633 
L 189.223614 224.93033 
L 189.627078 272.43694 
L 189.896055 270.967198 
L 190.030543 278.893053 
L 190.165031 274.044555 
L 190.299519 274.948874 
L 190.434008 274.007892 
L 190.568496 269.69853 
L 190.837472 272.077079 
L 190.971961 272.965454 
L 191.106449 272.704758 
L 191.240937 266.641284 
L 191.509913 275.947161 
L 191.644402 270.381778 
L 191.77889 274.415786 
L 192.047866 271.917939 
L 192.316843 262.201468 
L 192.720307 269.161944 
L 192.854796 276.969457 
L 193.123772 274.564741 
L 193.392748 270.758805 
L 193.527237 268.715261 
L 193.661725 270.410274 
L 193.796213 270.079383 
L 193.930701 269.367481 
L 194.199678 252.479992 
L 194.468654 176.076201 
L 195.006607 146.821722 
L 195.275583 155.969775 
L 195.410072 150.479225 
L 195.679048 181.861541 
L 195.948024 242.412539 
L 196.082513 266.725286 
L 196.217001 266.308199 
L 196.351489 264.748689 
L 196.485977 269.791126 
L 196.620465 280.148845 
L 196.754954 274.902874 
L 197.158418 272.332811 
L 197.292907 267.538868 
L 197.427395 253.999395 
L 197.696371 174.670303 
L 197.830859 195.740336 
L 197.965348 192.11955 
L 198.099836 197.212457 
L 198.234324 191.015594 
L 198.368812 199.508181 
L 198.5033 192.795576 
L 198.637789 195.655701 
L 199.041253 246.295508 
L 199.31023 280.266475 
L 199.579206 278.320986 
L 199.848183 286.318211 
L 199.982671 282.787878 
L 200.117159 283.500135 
L 200.251647 282.942407 
L 200.386135 278.148566 
L 200.520624 267.26028 
L 200.655112 268.613073 
L 200.7896 241.496471 
L 200.924088 171.458789 
L 201.058576 206.247302 
L 201.193065 193.972182 
L 201.327553 203.438806 
L 201.462041 192.542839 
L 201.596529 201.204852 
L 201.731018 191.556787 
L 201.999994 206.864301 
L 202.537947 277.719832 
L 202.672435 274.252182 
L 202.806923 274.312737 
L 202.941411 279.67246 
L 203.210388 266.547493 
L 203.344876 272.511187 
L 203.479364 269.082179 
L 203.882829 251.022259 
L 204.151805 166.64914 
L 204.286294 169.441091 
L 204.420782 162.998194 
L 204.55527 162.476667 
L 204.689758 156.654881 
L 204.824246 163.481877 
L 204.958735 160.00902 
L 205.227711 190.558686 
L 205.631176 251.175548 
L 205.765664 268.612948 
L 205.900152 268.458761 
L 206.03464 264.82546 
L 206.169129 272.010759 
L 206.303617 288.723858 
L 206.438105 284.432426 
L 206.707081 289.266547 
L 206.976058 286.114957 
L 207.379522 264.074918 
L 207.514011 264.955903 
L 208.051964 278.481153 
L 208.186452 277.223948 
L 208.455428 268.164733 
L 208.724405 272.114027 
L 208.858893 280.996447 
L 208.993381 281.831328 
L 209.127869 284.672647 
L 209.396846 281.523166 
L 209.531334 273.894327 
L 209.665822 276.50663 
L 209.934799 273.582178 
L 210.069287 275.637073 
L 210.203775 254.525595 
L 210.338263 252.903249 
L 210.60724 162.763526 
L 210.741728 153.184211 
L 210.876216 128.444167 
L 211.010704 124.477836 
L 211.145192 114.917917 
L 211.279681 138.2822 
L 211.414169 137.983669 
L 211.817634 193.959993 
L 212.221098 263.718502 
L 212.355586 263.700384 
L 212.490075 261.938051 
L 212.759051 274.747804 
L 212.893539 277.881958 
L 213.162516 273.687828 
L 213.297004 276.640494 
L 213.56598 240.745962 
L 213.834957 131.946646 
L 213.969445 120.686683 
L 214.238421 139.159238 
L 214.37291 138.787976 
L 214.507398 145.247131 
L 214.910862 187.906381 
L 215.045351 199.369618 
L 215.448815 273.375137 
L 215.583303 266.792748 
L 216.121256 274.486383 
L 216.255745 272.229281 
L 216.390233 272.460092 
L 216.524721 274.994408 
L 216.793697 249.978803 
L 217.062674 146.51733 
L 217.197162 132.733939 
L 217.600627 158.183794 
L 217.735115 155.239964 
L 217.869603 148.771846 
L 218.138579 191.276398 
L 218.676532 268.947034 
L 218.945509 275.432524 
L 219.079997 269.134322 
L 219.214485 273.871423 
L 219.483462 275.815353 
L 219.752438 279.962104 
L 220.021414 251.263605 
L 220.290391 146.316975 
L 220.424879 150.981723 
L 220.559367 151.445225 
L 220.693856 152.729682 
L 220.828344 147.078255 
L 220.962832 161.744696 
L 221.09732 156.892772 
L 221.366297 197.077069 
L 221.635273 222.654853 
L 221.769761 263.030781 
L 221.904249 270.035325 
L 222.038738 270.607322 
L 222.307714 274.985321 
L 222.442202 275.908909 
L 222.711179 280.990469 
L 222.845667 281.44708 
L 222.980155 282.928778 
L 223.114643 277.561615 
L 223.249132 280.701556 
L 223.518108 248.580436 
L 223.652596 266.237282 
L 223.787084 267.085842 
L 224.056061 259.028529 
L 224.325037 260.328206 
L 224.459525 263.847413 
L 224.728502 258.824524 
L 224.86299 259.160567 
L 225.131967 268.15459 
L 225.266455 268.910337 
L 225.400943 266.293388 
L 225.535431 267.437502 
L 225.669919 265.774439 
L 225.804408 261.470157 
L 225.938896 266.589391 
L 226.073384 266.655677 
L 226.207872 270.611208 
L 226.34236 270.429125 
L 226.476849 271.754416 
L 226.745825 268.801683 
L 226.880313 266.127145 
L 227.14929 276.637454 
L 227.283778 277.869954 
L 227.418266 275.728142 
L 227.687243 277.565274 
L 227.821731 274.491859 
L 228.090707 275.441417 
L 228.225195 284.253836 
L 228.359684 281.822944 
L 228.494172 282.394109 
L 228.62866 279.972886 
L 228.763148 281.269311 
L 228.897637 280.899392 
L 229.032125 276.815483 
L 229.166613 277.42949 
L 229.301101 277.154305 
L 229.435589 275.923086 
L 229.570078 263.116026 
L 229.704566 235.904386 
L 229.973542 135.038377 
L 230.242519 96.443383 
L 230.377007 102.381508 
L 230.511495 85.616005 
L 230.645983 116.703196 
L 230.780471 113.008583 
L 230.91496 126.591533 
L 231.721889 263.125794 
L 231.856377 265.876958 
L 232.125354 275.20488 
L 232.259842 274.628716 
L 232.528818 277.60136 
L 232.663306 273.442041 
L 232.932283 239.412977 
L 233.201259 135.921546 
L 233.335748 118.026561 
L 233.470236 117.681003 
L 233.604724 137.573746 
L 233.739212 134.719295 
L 233.8737 143.953158 
L 234.008189 130.705164 
L 234.546141 216.226905 
L 234.815118 271.44263 
L 234.949606 272.004348 
L 235.084094 267.011077 
L 235.218583 275.519753 
L 235.353071 275.138593 
L 235.622047 283.268728 
L 235.891024 278.143218 
L 236.16 252.291464 
L 236.428976 140.42621 
L 236.563465 118.177794 
L 236.832441 125.63858 
L 236.966929 118.58201 
L 237.101417 128.043527 
L 237.235906 153.193345 
L 237.370394 152.444013 
L 237.63937 204.283718 
L 238.042835 271.815802 
L 238.177323 271.93776 
L 238.311811 269.319406 
L 238.4463 275.648983 
L 238.580788 276.212052 
L 238.715276 278.300546 
L 238.984252 285.977781 
L 239.118741 282.066685 
L 239.253229 274.335367 
L 239.387717 247.021549 
L 239.656694 146.086305 
L 239.92567 119.035056 
L 240.060158 135.440966 
L 240.194646 136.676845 
L 240.329135 144.156887 
L 241.001576 231.145144 
L 241.136064 257.604633 
L 241.40504 265.508137 
L 241.539529 262.897875 
L 241.674017 269.479419 
L 241.808505 267.352376 
L 241.942993 281.042312 
L 242.077481 279.517034 
L 242.21197 288.672546 
L 242.346458 284.356261 
L 242.615434 248.546698 
L 242.884411 144.235086 
L 243.018899 135.76376 
L 243.287875 155.678753 
L 243.422363 143.560656 
L 243.825828 170.596372 
L 243.960316 182.059138 
L 244.229293 238.735292 
L 244.498269 265.776778 
L 244.632757 270.076097 
L 244.767246 269.695861 
L 245.17071 280.037785 
L 245.305198 278.186875 
L 245.439687 278.512994 
L 245.708663 272.168611 
L 245.843151 247.977855 
L 245.97764 266.957201 
L 246.112128 263.184678 
L 246.246616 265.124256 
L 246.515592 263.300635 
L 246.650081 264.627029 
L 247.053545 275.211018 
L 247.188033 273.424701 
L 247.45701 276.284441 
L 247.591498 277.570981 
L 247.725986 277.463893 
L 247.860475 280.454495 
L 247.994963 278.270178 
L 248.129451 278.613864 
L 248.263939 279.329388 
L 248.398427 277.277957 
L 248.532916 277.248381 
L 248.667404 274.650205 
L 248.801892 276.495532 
L 248.93638 275.099789 
L 249.070868 275.257656 
L 249.205357 274.733004 
L 249.608821 282.411429 
L 249.743309 281.711087 
L 250.012286 282.593748 
L 250.146774 280.558641 
L 250.415751 280.388456 
L 250.550239 277.096209 
L 250.684727 276.936046 
L 250.953703 278.769432 
L 251.088192 279.692068 
L 251.22268 277.664322 
L 251.491656 277.012845 
L 251.626144 289.44153 
L 251.760633 285.923588 
L 251.895121 286.61159 
L 252.029609 285.795819 
L 252.298586 262.011128 
L 252.567562 148.018492 
L 252.70205 131.587832 
L 252.836538 137.41235 
L 252.971027 164.867037 
L 253.105515 156.902606 
L 253.374491 167.879883 
L 253.777956 212.976868 
L 254.181421 268.488074 
L 254.584885 283.827283 
L 254.719373 285.524651 
L 254.853862 290.116718 
L 254.98835 287.501012 
L 255.122838 289.519323 
L 255.257326 289.029357 
L 255.526303 250.681648 
L 255.795279 153.025564 
L 255.929767 166.094867 
L 256.064255 164.185004 
L 256.198744 166.112403 
L 256.333232 157.414981 
L 256.736697 171.443426 
L 257.274649 253.63977 
L 257.543626 267.824228 
L 257.678114 264.106634 
L 257.812602 270.443445 
L 257.94709 270.141414 
L 258.216067 286.408786 
L 258.350555 286.087435 
L 258.485043 283.769956 
L 258.75402 253.951924 
L 259.022996 154.498999 
L 259.157484 170.787531 
L 259.291973 164.003987 
L 259.426461 166.609064 
L 259.560949 149.560993 
L 259.829925 171.321904 
L 259.964414 162.406966 
L 260.771343 263.701105 
L 261.040319 268.659114 
L 261.174808 268.611797 
L 261.309296 275.198306 
L 261.443784 273.411791 
L 261.578272 277.284657 
L 261.847249 267.428927 
L 261.981737 240.555811 
L 262.250713 149.758973 
L 262.385201 162.863852 
L 262.788666 147.741387 
L 262.923154 158.991907 
L 263.057643 153.753605 
L 263.461107 208.127715 
L 263.99906 258.610693 
L 264.133548 259.242298 
L 264.402525 272.169153 
L 264.537013 266.248842 
L 264.671501 269.187991 
L 264.940478 263.570307 
L 265.074966 260.487481 
L 265.209454 242.93486 
L 265.747407 114.641937 
L 265.881895 114.552071 
L 266.016383 112.710319 
L 266.150871 126.436225 
L 266.28536 119.965528 
L 266.419848 122.982716 
L 266.554336 137.419817 
L 267.092289 254.163702 
L 267.361265 258.729447 
L 267.495754 259.748033 
L 267.630242 277.831295 
L 267.76473 270.903071 
L 267.899218 272.351463 
L 268.033706 271.239405 
L 268.302683 277.432547 
L 268.437171 276.517602 
L 268.571659 270.282972 
L 268.840636 278.786089 
L 268.975124 276.508084 
L 269.109612 276.479613 
L 269.378589 275.804006 
L 269.782053 264.301268 
L 269.916541 261.336414 
L 270.05103 261.002998 
L 270.320006 266.079981 
L 270.454494 267.344006 
L 270.588982 269.78637 
L 270.723471 269.831359 
L 270.857959 286.396574 
L 271.126935 279.889537 
L 271.261424 281.352424 
L 271.5304 276.40756 
L 271.933865 282.017855 
L 272.068353 278.534153 
L 272.202841 284.926069 
L 272.337329 281.83849 
L 272.471817 283.80338 
L 272.606306 282.701855 
L 272.740794 280.625318 
L 272.875282 284.440186 
L 273.00977 284.034701 
L 273.278747 277.821344 
L 273.682211 281.677728 
L 273.8167 280.239688 
L 273.951188 281.025865 
L 274.085676 279.506951 
L 274.220164 293.828851 
L 274.354652 291.416412 
L 274.489141 292.591299 
L 274.623629 290.201247 
L 274.892605 261.598623 
L 275.161582 194.738182 
L 275.430558 163.013609 
L 275.565046 157.381066 
L 275.699535 156.59936 
L 275.834023 159.70518 
L 275.968511 176.317696 
L 276.102999 178.940321 
L 276.77544 266.453351 
L 276.909928 272.919635 
L 277.044417 272.293894 
L 277.178905 281.013654 
L 277.313393 278.446602 
L 277.447881 288.348707 
L 277.58237 285.456138 
L 277.716858 289.79493 
L 277.851346 287.408832 
L 278.120322 258.449205 
L 278.389299 192.818379 
L 278.523787 195.838493 
L 278.658275 180.988356 
L 278.792763 185.126023 
L 278.927252 178.229634 
L 279.06174 195.82843 
L 279.196228 188.81531 
L 279.465204 211.681099 
L 279.868669 266.66641 
L 280.003157 276.387358 
L 280.137646 277.286234 
L 280.272134 277.084486 
L 280.406622 282.043573 
L 280.54111 269.650385 
L 280.675598 270.36191 
L 281.079063 266.597016 
L 281.213551 252.630687 
L 281.348039 252.307847 
L 281.617016 141.405581 
L 281.751504 136.158497 
L 281.885992 119.074671 
L 282.289457 144.670795 
L 282.423945 120.560134 
L 282.692922 156.437723 
L 283.230874 267.077547 
L 283.365363 267.695807 
L 283.499851 264.650349 
L 283.634339 270.533389 
L 283.903316 264.633254 
L 284.037804 263.142713 
L 284.172292 263.432709 
L 284.30678 261.548164 
L 284.575757 249.301044 
L 284.844733 164.273357 
L 284.979221 153.607665 
L 285.113709 155.612628 
L 285.248198 140.562483 
L 285.382686 143.539871 
L 285.517174 135.64683 
L 285.651662 152.327047 
L 285.78615 152.317386 
L 285.920639 164.198454 
L 286.458592 264.460307 
L 286.59308 264.29125 
L 286.727568 265.16039 
L 286.862056 267.779683 
L 286.996544 289.832103 
L 287.265521 281.92107 
L 287.400009 283.099527 
L 287.668985 274.706069 
L 287.803474 270.89263 
L 288.206938 278.408223 
L 288.610403 273.553005 
L 288.744891 274.488684 
L 288.879379 273.242556 
L 289.013868 278.317428 
L 289.148356 277.206176 
L 289.282844 271.184423 
L 289.417332 280.698195 
L 289.686309 283.01366 
L 289.955285 280.915214 
L 290.089773 280.980247 
L 290.224262 278.299734 
L 290.35875 281.088406 
L 290.493238 278.623902 
L 290.627726 279.762986 
L 290.762214 275.874094 
L 290.896703 264.278751 
L 291.031191 263.188264 
L 291.165679 241.688372 
L 291.300167 180.470172 
L 291.434655 178.095991 
L 291.569144 178.699 
L 291.83812 190.710066 
L 292.107096 178.401583 
L 292.645049 237.163881 
L 292.914026 273.744433 
L 293.048514 271.183939 
L 293.183002 271.897178 
L 293.31749 275.50867 
L 293.451979 272.549167 
L 293.586467 272.741668 
L 293.720955 269.008421 
L 293.855443 272.159008 
L 293.989931 270.422853 
L 294.393396 224.897855 
L 294.527884 178.646044 
L 294.662373 174.2008 
L 294.796861 154.550878 
L 294.931349 154.616742 
L 295.065837 144.842026 
L 295.200325 146.440806 
L 295.334814 154.90971 
L 295.469302 153.52162 
L 295.738278 193.584171 
L 296.141743 269.168194 
L 296.410719 260.337549 
L 296.679696 290.872625 
L 296.814184 286.776806 
L 296.948672 288.310341 
L 297.08316 287.680224 
L 297.217649 284.888092 
L 297.352137 284.707797 
L 297.486625 284.154177 
L 297.621113 284.89319 
L 297.89009 288.402613 
L 298.159066 282.918996 
L 298.562531 284.48265 
L 298.965995 276.053246 
L 299.100484 276.733988 
L 299.503948 282.263692 
L 299.638436 280.610297 
L 299.772925 281.340017 
L 299.907413 267.568025 
L 300.041901 274.982259 
L 300.176389 272.002734 
L 300.310877 272.474905 
L 300.445366 272.511893 
L 300.714342 249.863005 
L 300.983319 167.32008 
L 301.252295 136.934196 
L 301.386783 128.77409 
L 301.521271 131.339515 
L 301.65576 142.238581 
L 301.790248 136.077471 
L 301.924736 151.49786 
L 302.328201 216.843022 
L 302.597177 259.55313 
L 302.731665 263.13268 
L 302.866153 260.179695 
L 303.13513 274.065022 
L 303.404106 269.877557 
L 303.538595 271.344997 
L 303.673083 268.987727 
L 304.076547 193.375351 
L 304.211036 154.336648 
L 304.345524 164.59296 
L 304.480012 158.896118 
L 304.6145 159.377796 
L 304.748988 155.528527 
L 304.883477 161.605912 
L 305.017965 153.629039 
L 305.286941 190.535017 
L 305.690406 248.450786 
L 305.959382 269.15675 
L 306.093871 264.635204 
L 306.228359 270.459015 
L 306.362847 270.923288 
L 306.497335 281.34758 
L 306.766312 279.817052 
L 306.9008 279.401124 
L 307.035288 267.238697 
L 307.169776 244.170386 
L 307.438753 146.087477 
L 307.573241 167.274139 
L 307.842217 164.53609 
L 307.976706 159.017061 
L 308.111194 162.75666 
L 308.245682 156.037097 
L 308.38017 165.883434 
L 309.052611 269.349993 
L 309.187099 271.381584 
L 309.321588 270.112555 
L 309.456076 276.892034 
L 309.590564 277.770599 
L 309.725052 280.26739 
L 309.859541 279.007532 
L 309.994029 279.511939 
L 310.128517 277.952524 
L 310.263005 269.31197 
L 310.397493 241.790671 
L 310.66647 146.998769 
L 310.935446 166.10867 
L 311.069934 170.484891 
L 311.204423 161.945532 
L 311.338911 162.600532 
L 311.473399 161.903547 
L 311.607887 162.029204 
L 312.14584 255.118828 
L 312.414817 267.966544 
L 312.549305 266.110352 
L 312.818281 273.467977 
L 312.952769 275.148929 
L 313.087258 272.077676 
L 313.221746 273.986142 
L 313.356234 271.379333 
L 313.490722 272.76962 
L 313.759699 249.944444 
L 313.894187 245.144608 
L 314.028675 258.712856 
L 314.163163 256.780328 
L 314.297652 260.282439 
L 314.43214 257.309807 
L 314.566628 264.097748 
L 314.835604 265.740789 
L 315.104581 272.533912 
L 315.239069 271.654232 
L 315.373557 272.676503 
L 315.508045 276.634091 
L 315.91151 273.567331 
L 316.045998 274.98274 
L 316.180487 274.045042 
L 316.314975 274.908293 
L 316.449463 272.43036 
L 316.583951 273.206118 
L 316.718439 272.142824 
L 316.852928 272.060765 
L 316.987416 272.270741 
L 317.121904 273.366177 
L 317.256392 277.310571 
L 317.39088 277.639336 
L 317.525369 279.526407 
L 317.659857 278.131222 
L 317.794345 280.518514 
L 317.928833 276.493163 
L 318.19781 275.886362 
L 318.466786 270.879551 
L 318.601274 273.174724 
L 318.735763 272.736412 
L 318.870251 274.50256 
L 319.139227 271.76575 
L 319.273715 271.956818 
L 319.408204 285.579167 
L 319.542692 282.69513 
L 319.67718 282.781653 
L 319.811668 282.562588 
L 319.946157 274.544561 
L 320.080645 256.834412 
L 320.349621 145.31511 
L 320.618598 126.211687 
L 320.887574 147.836593 
L 321.15655 156.381184 
L 321.96348 269.09127 
L 322.097968 269.693941 
L 322.232456 265.93399 
L 322.366944 273.904584 
L 322.501433 273.082461 
L 322.635921 285.645558 
L 323.039385 282.170069 
L 323.308362 259.541097 
L 323.577338 149.456288 
L 323.846315 170.956904 
L 324.249779 155.756042 
L 324.384268 157.126016 
L 324.518756 164.790068 
L 325.056709 256.849962 
L 325.191197 266.723049 
L 325.325685 266.324203 
L 325.460173 264.123779 
L 325.594661 272.207727 
L 325.72915 272.151237 
L 325.863638 282.304873 
L 326.132614 284.267545 
L 326.267103 282.813979 
L 326.401591 273.872985 
L 326.536079 253.266669 
L 326.805055 142.192293 
L 327.074032 170.351905 
L 327.343008 161.182858 
L 327.477496 165.62314 
L 327.611985 164.602779 
L 327.746473 167.828509 
L 327.880961 184.215084 
L 328.149937 230.935544 
L 328.418914 261.345302 
L 328.956867 277.143758 
L 329.091355 288.92706 
L 329.225843 285.504544 
L 329.360331 285.111156 
L 329.49482 282.326111 
L 329.763796 253.483703 
L 330.032772 159.461601 
L 330.301749 168.234637 
L 330.436237 167.44332 
L 330.705214 159.592118 
L 330.97419 184.432684 
L 331.243166 203.321203 
L 331.646631 265.452869 
L 331.781119 266.275297 
L 331.915607 264.736682 
L 332.319072 286.291723 
L 332.45356 284.93491 
L 332.588049 281.641575 
L 332.722537 282.131622 
L 332.991513 252.030848 
L 333.26049 153.770986 
L 333.529466 177.022413 
L 333.798442 166.79913 
L 333.932931 164.971636 
L 334.067419 168.399839 
L 334.470883 211.73001 
L 334.73986 263.173926 
L 334.874348 268.392796 
L 335.008836 268.880174 
L 335.143325 270.765998 
L 335.277813 279.54678 
L 335.815766 271.343062 
L 336.084742 272.977482 
L 336.353718 256.915365 
L 336.488207 259.250278 
L 336.622695 257.977983 
L 336.757183 255.638442 
L 336.891671 257.943709 
L 337.02616 257.61939 
L 337.698601 271.73107 
L 337.833089 271.908069 
L 337.967577 271.359422 
L 338.102065 275.006605 
L 338.236553 275.255876 
L 338.50553 273.253731 
L 338.640018 269.005908 
L 338.774506 269.753228 
L 338.908995 269.581769 
L 339.043483 268.181698 
L 339.312459 269.614506 
L 339.446947 266.998613 
L 339.581436 268.446094 
L 339.850412 273.117656 
L 339.9849 273.636425 
L 340.119388 272.25012 
L 340.253877 274.835726 
L 340.388365 273.631471 
L 340.522853 277.004432 
L 340.657341 275.306213 
L 340.791829 277.247331 
L 341.195294 271.020461 
L 341.464271 277.021394 
L 341.598759 276.082783 
L 341.733247 276.200986 
L 341.867735 277.607119 
L 342.002223 287.599676 
L 342.2712 284.254903 
L 342.405688 284.766529 
L 342.674664 257.548671 
L 342.943641 149.47414 
L 343.078129 142.005808 
L 343.347106 172.778444 
L 343.616082 169.271987 
L 343.75057 173.94344 
L 344.154035 209.621818 
L 344.423011 262.343585 
L 344.557499 266.58613 
L 344.691988 265.714073 
L 344.826476 270.140922 
L 344.960964 278.695603 
L 345.095452 278.116774 
L 345.22994 286.535222 
L 345.364429 284.946167 
L 345.498917 285.305433 
L 345.633405 283.750938 
L 345.902382 256.874383 
L 346.171358 159.493041 
L 346.305846 180.022878 
L 346.440334 175.386519 
L 346.574823 176.502408 
L 346.709311 171.18151 
L 346.843799 171.847309 
L 346.978287 173.320038 
L 347.247264 193.324084 
L 347.785217 265.072418 
L 348.054193 268.470104 
L 348.188681 276.73874 
L 348.323169 274.425202 
L 348.457658 285.968814 
L 348.592146 283.653911 
L 348.726634 285.560836 
L 348.861122 283.830579 
L 349.130099 254.5642 
L 349.399075 158.07091 
L 349.533563 174.530986 
L 349.668052 165.585861 
L 349.80254 168.81166 
L 349.937028 165.146296 
L 350.206004 169.490604 
L 350.474981 196.2834 
L 350.743957 239.992133 
L 351.012934 264.598391 
L 351.147422 269.77149 
L 351.28191 268.738344 
L 351.416398 277.130305 
L 351.550886 277.688053 
L 351.685375 288.759534 
L 351.819863 283.829684 
L 351.954351 283.963821 
L 352.088839 282.970426 
L 352.223328 277.257953 
L 352.357816 260.834701 
L 352.626792 155.690038 
L 352.76128 173.561332 
L 352.895769 167.738682 
L 353.030257 174.404696 
L 353.164745 167.202806 
L 353.299233 171.896782 
L 353.56821 167.519376 
L 353.702698 166.276412 
L 354.106163 259.343683 
L 354.240651 272.464186 
L 354.375139 272.300709 
L 354.509627 271.91381 
L 354.778604 281.135112 
L 354.913092 283.64822 
L 355.04758 283.416184 
L 355.182068 283.668377 
L 355.316556 282.470704 
L 355.451045 275.822821 
L 355.585533 254.856231 
L 355.854509 185.290176 
L 355.988998 185.080823 
L 356.257974 161.778263 
L 356.392462 163.313813 
L 356.52695 167.107708 
L 356.661439 167.561494 
L 356.930415 191.07589 
L 357.199391 239.127723 
L 357.468368 277.183859 
L 357.737344 275.995697 
L 358.006321 285.40502 
L 358.275297 282.179348 
L 358.409785 282.484462 
L 358.81325 275.290413 
L 359.082226 256.458125 
L 359.216715 251.415282 
L 359.351203 252.945331 
L 359.485691 257.229653 
L 359.620179 249.960666 
L 359.754667 263.391661 
L 359.889156 265.24586 
L 360.023644 264.991902 
L 360.427109 282.233853 
L 360.561597 280.607851 
L 360.696085 281.24856 
L 360.830573 282.649898 
L 360.965061 282.749352 
L 361.09955 282.527476 
L 361.234038 283.207074 
L 361.368526 282.912331 
L 361.503014 281.032385 
L 361.637502 282.360572 
L 361.906479 278.119935 
L 362.175455 283.365085 
L 362.309944 285.127624 
L 362.444432 280.487899 
L 362.57892 281.329795 
L 362.713408 279.870072 
L 362.982385 283.375723 
L 363.116873 282.78836 
L 363.251361 278.868447 
L 363.385849 278.914808 
L 363.520337 281.065833 
L 363.654826 280.170385 
L 363.923802 281.62625 
L 364.05829 281.337899 
L 364.192778 281.651096 
L 364.327267 244.073543 
L 364.461755 254.392655 
L 364.596243 253.188997 
L 364.730731 250.726757 
L 364.86522 257.641373 
L 364.999708 251.846285 
L 365.268684 194.345248 
L 365.537661 122.281182 
L 365.672149 106.614885 
L 365.806637 105.878167 
L 365.941125 104.31467 
L 366.075613 115.257738 
L 366.210102 109.704553 
L 366.479078 129.389993 
L 366.613566 156.768407 
L 366.882543 241.966012 
L 367.151519 260.367644 
L 367.420496 262.338301 
L 367.554984 270.297334 
L 367.689472 270.645217 
L 367.82396 268.696631 
L 367.958448 272.669434 
L 368.092937 272.703871 
L 368.765378 98.764162 
L 368.899866 102.210834 
L 369.034354 99.043642 
L 369.303331 85.733824 
L 369.437819 88.826431 
L 369.841283 146.908298 
L 370.11026 241.540601 
L 370.244748 239.48874 
L 370.782701 288.103484 
L 370.917189 284.87537 
L 371.051677 284.963211 
L 371.186166 285.680945 
L 371.320654 280.139757 
L 371.58963 249.834743 
L 371.858607 157.152935 
L 371.993095 162.746843 
L 372.262071 206.467583 
L 372.396559 189.062533 
L 372.665536 192.283598 
L 372.800024 198.576778 
L 372.934512 210.24822 
L 373.069001 237.022005 
L 373.203489 237.006166 
L 373.472465 264.387048 
L 373.606953 265.066684 
L 373.741442 267.39131 
L 373.87593 272.530117 
L 374.144906 294.619853 
L 374.279394 291.506504 
L 374.413883 293.611657 
L 374.548371 290.009884 
L 374.817347 254.956231 
L 375.086324 195.896734 
L 375.3553 175.227432 
L 375.489788 180.312586 
L 375.624277 177.371997 
L 375.758765 179.159617 
L 376.162229 204.518256 
L 376.565694 261.952124 
L 376.83467 270.116249 
L 376.969159 268.801415 
L 377.103647 274.761274 
L 377.238135 288.081407 
L 377.372623 282.224669 
L 377.6416 284.351265 
L 377.776088 277.392657 
L 377.910576 284.510639 
L 378.045064 276.523505 
L 378.179553 277.383105 
L 378.314041 263.978434 
L 378.448529 271.039199 
L 378.583017 263.199724 
L 378.717505 270.917298 
L 378.851994 268.389277 
L 378.986482 275.461378 
L 379.12097 270.872235 
L 379.255458 272.213639 
L 379.389947 275.757056 
L 379.524435 273.275832 
L 379.793411 280.578527 
L 379.927899 281.483433 
L 380.062388 283.504425 
L 380.196876 281.469388 
L 380.331364 281.436594 
L 380.465852 267.080284 
L 380.60034 270.593009 
L 380.869317 271.511648 
L 381.003805 272.025785 
L 381.138293 251.754546 
L 381.272782 251.204241 
L 381.541758 151.193994 
L 381.810734 142.035876 
L 381.945223 140.321708 
L 382.348687 146.511051 
L 382.483175 145.661102 
L 383.155616 270.962529 
L 383.290105 272.923021 
L 383.424593 268.873908 
L 383.559081 273.523325 
L 383.828058 263.162737 
L 384.097034 259.246007 
L 384.231522 260.5346 
L 384.36601 255.218269 
L 384.500499 257.586763 
L 384.769475 166.840295 
L 384.903963 160.985154 
L 385.038451 160.225408 
L 385.17294 144.587777 
L 385.307428 149.437093 
L 385.441916 167.265415 
L 385.576404 164.479187 
L 385.710893 167.525305 
L 385.979869 211.195013 
L 386.383334 273.47058 
L 386.517822 271.073862 
L 386.786798 276.999632 
L 386.921286 285.844171 
L 387.190263 280.691014 
L 387.324751 282.64206 
L 387.593727 277.705518 
L 387.728216 277.722345 
L 387.862704 276.503182 
L 387.997192 283.036536 
L 388.13168 280.623053 
L 388.266169 282.194804 
L 388.400657 287.572443 
L 388.669633 280.61678 
L 388.93861 288.382428 
L 389.073098 281.490907 
L 389.342074 283.272436 
L 389.611051 290.576251 
L 389.745539 287.270182 
L 389.880027 287.228698 
L 390.014515 285.50609 
L 390.149004 265.389628 
L 390.283492 270.735558 
L 390.552468 267.317446 
L 390.686956 268.676493 
L 390.821445 254.934117 
L 390.955933 255.060271 
L 391.090421 239.073472 
L 391.224909 185.044186 
L 391.359397 184.644155 
L 391.493886 159.271329 
L 391.628374 161.736411 
L 391.89735 176.301445 
L 392.166327 171.652351 
L 392.569791 232.297473 
L 392.838768 280.205076 
L 393.107744 273.814799 
L 393.242232 277.104743 
L 393.376721 267.579863 
L 393.511209 266.349084 
L 393.645697 272.673883 
L 393.780185 271.183334 
L 393.914673 263.861076 
L 394.049162 266.726429 
L 394.318138 209.172035 
L 394.587115 154.189547 
L 394.721603 154.78531 
L 394.856091 142.437924 
L 395.125067 147.47543 
L 395.259556 147.313759 
L 395.797508 220.570223 
L 396.066485 262.010275 
L 396.200973 265.471451 
L 396.46995 263.040024 
L 396.604438 292.639743 
L 396.738926 285.936608 
L 397.007902 288.673874 
L 397.142391 286.064868 
L 397.411367 257.134331 
L 397.680343 174.234909 
L 397.814832 179.015772 
L 397.94932 167.105958 
L 398.083808 166.871241 
L 398.218296 159.932806 
L 398.352785 170.647113 
L 398.487273 164.522531 
L 398.487273 164.522531 
" clip-path="url(#p9a66dc60ed)" style="fill: none; stroke: #ff7f0e; stroke-width: 1.5; stroke-linecap: square"/>
   </g>
   <g id="patch_3">
    <path d="M 57.6 307.584 
L 57.6 41.472 
" style="fill: none; stroke: #000000; stroke-width: 0.8; stroke-linejoin: miter; stroke-linecap: square"/>
   </g>
   <g id="patch_4">
    <path d="M 414.72 307.584 
L 414.72 41.472 
" style="fill: none; stroke: #000000; stroke-width: 0.8; stroke-linejoin: miter; stroke-linecap: square"/>
   </g>
   <g id="patch_5">
    <path d="M 57.6 307.584 
L 414.72 307.584 
" style="fill: none; stroke: #000000; stroke-width: 0.8; stroke-linejoin: miter; stroke-linecap: square"/>
   </g>
   <g id="patch_6">
    <path d="M 57.6 41.472 
L 414.72 41.472 
" style="fill: none; stroke: #000000; stroke-width: 0.8; stroke-linejoin: miter; stroke-linecap: square"/>
   </g>
  </g>
 </g>
 <defs>
  <clipPath id="p9a66dc60ed">
   <rect x="57.6" y="41.472" width="357.12" height="266.112"/>
  </clipPath>
 </defs>
</svg>
