<?xml version="1.0" encoding="utf-8" standalone="no"?>
<!DOCTYPE svg PUBLIC "-//W3C//DTD SVG 1.1//EN"
  "http://www.w3.org/Graphics/SVG/1.1/DTD/svg11.dtd">
<svg xmlns:xlink="http://www.w3.org/1999/xlink" width="460.8pt" height="345.6pt" viewBox="0 0 460.8 345.6" xmlns="http://www.w3.org/2000/svg" version="1.1">
 <metadata>
  <rdf:RDF xmlns:dc="http://purl.org/dc/elements/1.1/" xmlns:cc="http://creativecommons.org/ns#" xmlns:rdf="http://www.w3.org/1999/02/22-rdf-syntax-ns#">
   <cc:Work>
    <dc:type rdf:resource="http://purl.org/dc/dcmitype/StillImage"/>
    <dc:date>2023-04-04T02:50:56.066689</dc:date>
    <dc:format>image/svg+xml</dc:format>
    <dc:creator>
     <cc:Agent>
      <dc:title>Matplotlib v3.5.2, https://matplotlib.org/</dc:title>
     </cc:Agent>
    </dc:creator>
   </cc:Work>
  </rdf:RDF>
 </metadata>
 <defs>
  <style type="text/css">*{stroke-linejoin: round; stroke-linecap: butt}</style>
 </defs>
 <g id="figure_1">
  <g id="patch_1">
   <path d="M 0 345.6 
L 460.8 345.6 
L 460.8 0 
L 0 0 
z
" style="fill: #ffffff"/>
  </g>
  <g id="axes_1">
   <g id="patch_2">
    <path d="M 57.6 307.584 
L 414.72 307.584 
L 414.72 41.472 
L 57.6 41.472 
z
" style="fill: #ffffff"/>
   </g>
   <g id="matplotlib.axis_1">
    <g id="xtick_1">
     <g id="line2d_1">
      <defs>
       <path id="m7975f8b69f" d="M 0 0 
L 0 3.5 
" style="stroke: #000000; stroke-width: 0.8"/>
      </defs>
      <g>
       <use xlink:href="#m7975f8b69f" x="73.832727" y="307.584" style="stroke: #000000; stroke-width: 0.8"/>
      </g>
     </g>
     <g id="text_1">
      <!-- 0 -->
      <g transform="translate(70.651477 322.182437)scale(0.1 -0.1)">
       <defs>
        <path id="DejaVuSans-30" d="M 2034 4250 
Q 1547 4250 1301 3770 
Q 1056 3291 1056 2328 
Q 1056 1369 1301 889 
Q 1547 409 2034 409 
Q 2525 409 2770 889 
Q 3016 1369 3016 2328 
Q 3016 3291 2770 3770 
Q 2525 4250 2034 4250 
z
M 2034 4750 
Q 2819 4750 3233 4129 
Q 3647 3509 3647 2328 
Q 3647 1150 3233 529 
Q 2819 -91 2034 -91 
Q 1250 -91 836 529 
Q 422 1150 422 2328 
Q 422 3509 836 4129 
Q 1250 4750 2034 4750 
z
" transform="scale(0.015625)"/>
       </defs>
       <use xlink:href="#DejaVuSans-30"/>
      </g>
     </g>
    </g>
    <g id="xtick_2">
     <g id="line2d_2">
      <g>
       <use xlink:href="#m7975f8b69f" x="141.076834" y="307.584" style="stroke: #000000; stroke-width: 0.8"/>
      </g>
     </g>
     <g id="text_2">
      <!-- 500 -->
      <g transform="translate(131.533084 322.182437)scale(0.1 -0.1)">
       <defs>
        <path id="DejaVuSans-35" d="M 691 4666 
L 3169 4666 
L 3169 4134 
L 1269 4134 
L 1269 2991 
Q 1406 3038 1543 3061 
Q 1681 3084 1819 3084 
Q 2600 3084 3056 2656 
Q 3513 2228 3513 1497 
Q 3513 744 3044 326 
Q 2575 -91 1722 -91 
Q 1428 -91 1123 -41 
Q 819 9 494 109 
L 494 744 
Q 775 591 1075 516 
Q 1375 441 1709 441 
Q 2250 441 2565 725 
Q 2881 1009 2881 1497 
Q 2881 1984 2565 2268 
Q 2250 2553 1709 2553 
Q 1456 2553 1204 2497 
Q 953 2441 691 2322 
L 691 4666 
z
" transform="scale(0.015625)"/>
       </defs>
       <use xlink:href="#DejaVuSans-35"/>
       <use xlink:href="#DejaVuSans-30" x="63.623047"/>
       <use xlink:href="#DejaVuSans-30" x="127.246094"/>
      </g>
     </g>
    </g>
    <g id="xtick_3">
     <g id="line2d_3">
      <g>
       <use xlink:href="#m7975f8b69f" x="208.32094" y="307.584" style="stroke: #000000; stroke-width: 0.8"/>
      </g>
     </g>
     <g id="text_3">
      <!-- 1000 -->
      <g transform="translate(195.59594 322.182437)scale(0.1 -0.1)">
       <defs>
        <path id="DejaVuSans-31" d="M 794 531 
L 1825 531 
L 1825 4091 
L 703 3866 
L 703 4441 
L 1819 4666 
L 2450 4666 
L 2450 531 
L 3481 531 
L 3481 0 
L 794 0 
L 794 531 
z
" transform="scale(0.015625)"/>
       </defs>
       <use xlink:href="#DejaVuSans-31"/>
       <use xlink:href="#DejaVuSans-30" x="63.623047"/>
       <use xlink:href="#DejaVuSans-30" x="127.246094"/>
       <use xlink:href="#DejaVuSans-30" x="190.869141"/>
      </g>
     </g>
    </g>
    <g id="xtick_4">
     <g id="line2d_4">
      <g>
       <use xlink:href="#m7975f8b69f" x="275.565046" y="307.584" style="stroke: #000000; stroke-width: 0.8"/>
      </g>
     </g>
     <g id="text_4">
      <!-- 1500 -->
      <g transform="translate(262.840046 322.182437)scale(0.1 -0.1)">
       <use xlink:href="#DejaVuSans-31"/>
       <use xlink:href="#DejaVuSans-35" x="63.623047"/>
       <use xlink:href="#DejaVuSans-30" x="127.246094"/>
       <use xlink:href="#DejaVuSans-30" x="190.869141"/>
      </g>
     </g>
    </g>
    <g id="xtick_5">
     <g id="line2d_5">
      <g>
       <use xlink:href="#m7975f8b69f" x="342.809153" y="307.584" style="stroke: #000000; stroke-width: 0.8"/>
      </g>
     </g>
     <g id="text_5">
      <!-- 2000 -->
      <g transform="translate(330.084153 322.182437)scale(0.1 -0.1)">
       <defs>
        <path id="DejaVuSans-32" d="M 1228 531 
L 3431 531 
L 3431 0 
L 469 0 
L 469 531 
Q 828 903 1448 1529 
Q 2069 2156 2228 2338 
Q 2531 2678 2651 2914 
Q 2772 3150 2772 3378 
Q 2772 3750 2511 3984 
Q 2250 4219 1831 4219 
Q 1534 4219 1204 4116 
Q 875 4013 500 3803 
L 500 4441 
Q 881 4594 1212 4672 
Q 1544 4750 1819 4750 
Q 2544 4750 2975 4387 
Q 3406 4025 3406 3419 
Q 3406 3131 3298 2873 
Q 3191 2616 2906 2266 
Q 2828 2175 2409 1742 
Q 1991 1309 1228 531 
z
" transform="scale(0.015625)"/>
       </defs>
       <use xlink:href="#DejaVuSans-32"/>
       <use xlink:href="#DejaVuSans-30" x="63.623047"/>
       <use xlink:href="#DejaVuSans-30" x="127.246094"/>
       <use xlink:href="#DejaVuSans-30" x="190.869141"/>
      </g>
     </g>
    </g>
    <g id="xtick_6">
     <g id="line2d_6">
      <g>
       <use xlink:href="#m7975f8b69f" x="410.053259" y="307.584" style="stroke: #000000; stroke-width: 0.8"/>
      </g>
     </g>
     <g id="text_6">
      <!-- 2500 -->
      <g transform="translate(397.328259 322.182437)scale(0.1 -0.1)">
       <use xlink:href="#DejaVuSans-32"/>
       <use xlink:href="#DejaVuSans-35" x="63.623047"/>
       <use xlink:href="#DejaVuSans-30" x="127.246094"/>
       <use xlink:href="#DejaVuSans-30" x="190.869141"/>
      </g>
     </g>
    </g>
   </g>
   <g id="matplotlib.axis_2">
    <g id="ytick_1">
     <g id="line2d_7">
      <defs>
       <path id="m4d07adad72" d="M 0 0 
L -3.5 0 
" style="stroke: #000000; stroke-width: 0.8"/>
      </defs>
      <g>
       <use xlink:href="#m4d07adad72" x="57.6" y="279.725958" style="stroke: #000000; stroke-width: 0.8"/>
      </g>
     </g>
     <g id="text_7">
      <!-- 100 -->
      <g transform="translate(31.5125 283.525177)scale(0.1 -0.1)">
       <use xlink:href="#DejaVuSans-31"/>
       <use xlink:href="#DejaVuSans-30" x="63.623047"/>
       <use xlink:href="#DejaVuSans-30" x="127.246094"/>
      </g>
     </g>
    </g>
    <g id="ytick_2">
     <g id="line2d_8">
      <g>
       <use xlink:href="#m4d07adad72" x="57.6" y="232.07152" style="stroke: #000000; stroke-width: 0.8"/>
      </g>
     </g>
     <g id="text_8">
      <!-- 200 -->
      <g transform="translate(31.5125 235.870738)scale(0.1 -0.1)">
       <use xlink:href="#DejaVuSans-32"/>
       <use xlink:href="#DejaVuSans-30" x="63.623047"/>
       <use xlink:href="#DejaVuSans-30" x="127.246094"/>
      </g>
     </g>
    </g>
    <g id="ytick_3">
     <g id="line2d_9">
      <g>
       <use xlink:href="#m4d07adad72" x="57.6" y="184.417081" style="stroke: #000000; stroke-width: 0.8"/>
      </g>
     </g>
     <g id="text_9">
      <!-- 300 -->
      <g transform="translate(31.5125 188.2163)scale(0.1 -0.1)">
       <defs>
        <path id="DejaVuSans-33" d="M 2597 2516 
Q 3050 2419 3304 2112 
Q 3559 1806 3559 1356 
Q 3559 666 3084 287 
Q 2609 -91 1734 -91 
Q 1441 -91 1130 -33 
Q 819 25 488 141 
L 488 750 
Q 750 597 1062 519 
Q 1375 441 1716 441 
Q 2309 441 2620 675 
Q 2931 909 2931 1356 
Q 2931 1769 2642 2001 
Q 2353 2234 1838 2234 
L 1294 2234 
L 1294 2753 
L 1863 2753 
Q 2328 2753 2575 2939 
Q 2822 3125 2822 3475 
Q 2822 3834 2567 4026 
Q 2313 4219 1838 4219 
Q 1578 4219 1281 4162 
Q 984 4106 628 3988 
L 628 4550 
Q 988 4650 1302 4700 
Q 1616 4750 1894 4750 
Q 2613 4750 3031 4423 
Q 3450 4097 3450 3541 
Q 3450 3153 3228 2886 
Q 3006 2619 2597 2516 
z
" transform="scale(0.015625)"/>
       </defs>
       <use xlink:href="#DejaVuSans-33"/>
       <use xlink:href="#DejaVuSans-30" x="63.623047"/>
       <use xlink:href="#DejaVuSans-30" x="127.246094"/>
      </g>
     </g>
    </g>
    <g id="ytick_4">
     <g id="line2d_10">
      <g>
       <use xlink:href="#m4d07adad72" x="57.6" y="136.762642" style="stroke: #000000; stroke-width: 0.8"/>
      </g>
     </g>
     <g id="text_10">
      <!-- 400 -->
      <g transform="translate(31.5125 140.561861)scale(0.1 -0.1)">
       <defs>
        <path id="DejaVuSans-34" d="M 2419 4116 
L 825 1625 
L 2419 1625 
L 2419 4116 
z
M 2253 4666 
L 3047 4666 
L 3047 1625 
L 3713 1625 
L 3713 1100 
L 3047 1100 
L 3047 0 
L 2419 0 
L 2419 1100 
L 313 1100 
L 313 1709 
L 2253 4666 
z
" transform="scale(0.015625)"/>
       </defs>
       <use xlink:href="#DejaVuSans-34"/>
       <use xlink:href="#DejaVuSans-30" x="63.623047"/>
       <use xlink:href="#DejaVuSans-30" x="127.246094"/>
      </g>
     </g>
    </g>
    <g id="ytick_5">
     <g id="line2d_11">
      <g>
       <use xlink:href="#m4d07adad72" x="57.6" y="89.108204" style="stroke: #000000; stroke-width: 0.8"/>
      </g>
     </g>
     <g id="text_11">
      <!-- 500 -->
      <g transform="translate(31.5125 92.907423)scale(0.1 -0.1)">
       <use xlink:href="#DejaVuSans-35"/>
       <use xlink:href="#DejaVuSans-30" x="63.623047"/>
       <use xlink:href="#DejaVuSans-30" x="127.246094"/>
      </g>
     </g>
    </g>
   </g>
   <g id="line2d_12">
    <path d="M 73.832727 282.787279 
L 74.101704 282.23973 
L 74.236192 281.132717 
L 74.37068 282.093431 
L 74.505168 281.60259 
L 74.639657 282.202559 
L 74.774145 275.752055 
L 74.908633 248.725316 
L 75.177609 247.237068 
L 75.312098 247.790813 
L 75.446586 247.843233 
L 75.581074 248.707208 
L 75.715562 247.953314 
L 75.85005 247.931393 
L 76.253515 242.961988 
L 76.522492 276.910534 
L 76.65698 277.222671 
L 76.925956 275.521407 
L 77.060444 266.693899 
L 77.194933 268.930322 
L 77.463909 268.993702 
L 77.598397 270.57297 
L 77.732885 265.263789 
L 77.867374 251.899578 
L 78.405327 103.946366 
L 78.674303 103.027589 
L 78.808791 110.142873 
L 78.943279 105.355508 
L 79.481232 157.884996 
L 79.750209 228.035665 
L 80.019185 262.646131 
L 80.153673 264.763418 
L 80.288161 260.941055 
L 80.42265 271.303513 
L 80.557138 270.870334 
L 80.826114 273.369809 
L 80.960603 270.837929 
L 81.095091 260.557437 
L 81.364067 168.03968 
L 81.498555 180.300691 
L 81.767532 160.958707 
L 82.036508 168.935584 
L 82.170996 165.844717 
L 82.305485 159.889341 
L 83.112414 260.080892 
L 83.650367 286.179799 
L 83.784855 286.20029 
L 83.919343 287.723803 
L 84.053831 287.915373 
L 84.18832 285.82525 
L 84.322808 278.624188 
L 84.726273 188.78461 
L 84.860761 180.14772 
L 84.995249 184.230752 
L 85.129737 169.397355 
L 85.264225 177.911297 
L 85.398714 178.656136 
L 85.66769 186.925134 
L 85.802178 195.666388 
L 86.340131 262.199609 
L 86.474619 264.205861 
L 86.609107 269.099971 
L 86.878084 286.560558 
L 87.012572 288.804129 
L 87.14706 288.478649 
L 87.281549 289.964514 
L 87.416037 289.867776 
L 87.550525 289.05908 
L 87.819501 261.645864 
L 87.95399 261.79121 
L 88.088478 256.123668 
L 88.222966 257.578558 
L 88.357454 256.823235 
L 88.491942 253.475987 
L 88.626431 256.301419 
L 88.760919 249.330528 
L 88.895407 252.198372 
L 89.029895 252.196942 
L 89.164384 254.749314 
L 89.43336 275.979843 
L 89.567848 277.637741 
L 89.702336 277.141181 
L 89.836825 278.19768 
L 89.971313 263.098371 
L 90.105801 263.809376 
L 90.240289 265.348614 
L 90.374777 265.11892 
L 90.509266 266.350787 
L 90.643754 266.521866 
L 90.778242 268.614373 
L 90.91273 265.401987 
L 91.047218 255.496059 
L 91.181707 254.329002 
L 91.316195 247.420538 
L 91.450683 251.840487 
L 91.585171 249.880936 
L 91.71966 251.374426 
L 91.854148 251.599832 
L 92.123124 254.572992 
L 92.257612 254.002092 
L 92.526589 259.579091 
L 92.795565 266.154927 
L 92.930053 267.107063 
L 93.064542 265.970028 
L 93.19903 275.956492 
L 93.468006 276.08087 
L 93.602495 277.138322 
L 93.736983 275.907885 
L 93.871471 273.392207 
L 94.005959 268.188342 
L 94.6784 161.24511 
L 94.812888 156.859949 
L 95.081865 168.687304 
L 95.216353 163.484869 
L 95.350841 152.248905 
L 96.023282 264.531817 
L 96.157771 265.2595 
L 96.426747 269.176695 
L 96.561235 268.844067 
L 96.695723 268.921267 
L 96.830212 270.799329 
L 96.9647 270.163142 
L 97.099188 268.739227 
L 97.233676 260.292478 
L 97.368164 242.7728 
L 97.502653 201.851457 
L 97.637141 194.772867 
L 97.771629 179.338071 
L 97.906117 187.713338 
L 98.040606 181.01646 
L 98.175094 181.724605 
L 98.309582 176.418283 
L 98.44407 178.056643 
L 98.713047 189.398399 
L 98.982023 231.243762 
L 99.250999 266.010058 
L 99.385488 270.685435 
L 99.519976 271.437898 
L 99.654464 281.219925 
L 99.788952 281.232315 
L 99.923441 280.233478 
L 100.192417 281.468681 
L 100.326905 281.549217 
L 100.461393 280.895875 
L 100.595882 281.300937 
L 100.73037 282.127742 
L 100.864858 280.592792 
L 100.999346 281.74603 
L 101.133834 280.840119 
L 101.268323 278.629906 
L 101.402811 271.620891 
L 101.537299 275.883104 
L 101.806276 265.521123 
L 101.940764 267.67701 
L 102.075252 267.528805 
L 102.20974 268.175475 
L 102.344228 270.548666 
L 102.478717 276.353454 
L 102.613205 274.505414 
L 102.747693 280.162473 
L 102.882181 266.735835 
L 103.016669 266.764427 
L 103.151158 271.659491 
L 103.285646 271.440757 
L 103.554622 267.269564 
L 103.68911 263.090747 
L 103.823599 245.704978 
L 104.092575 183.579792 
L 104.227063 162.145779 
L 104.361552 169.293945 
L 104.630528 144.476466 
L 105.033993 159.758768 
L 105.168481 170.513899 
L 105.706434 253.38735 
L 105.840922 253.265355 
L 105.97541 261.944181 
L 106.109898 278.338737 
L 106.378875 281.520624 
L 106.513363 281.506805 
L 106.647851 283.658879 
L 106.782339 283.391061 
L 106.916828 284.49998 
L 107.320292 247.014522 
L 107.45478 254.062137 
L 107.589269 251.534069 
L 107.723757 251.626518 
L 108.26171 246.575148 
L 108.396198 243.175957 
L 108.530686 245.430488 
L 108.934151 276.967719 
L 109.068639 278.479318 
L 109.203127 277.414718 
L 109.337615 272.929482 
L 109.606592 274.474439 
L 109.875568 275.524266 
L 110.144545 276.570758 
L 110.413521 275.336031 
L 110.548009 275.201646 
L 110.951474 271.161979 
L 111.085962 272.332372 
L 111.22045 271.985924 
L 111.623915 266.205441 
L 111.758403 266.712008 
L 112.02738 270.48338 
L 112.430844 272.076468 
L 112.565333 261.863645 
L 112.834309 266.051517 
L 112.968797 266.573333 
L 113.103285 268.077784 
L 113.237774 268.255535 
L 113.50675 270.864139 
L 113.641238 271.69142 
L 114.313679 260.496916 
L 114.448168 260.137125 
L 114.582656 258.660314 
L 114.98612 247.868966 
L 115.524073 258.890485 
L 115.658561 259.438511 
L 115.927538 261.655872 
L 116.062026 260.376826 
L 116.196514 266.450861 
L 116.331002 266.035315 
L 116.465491 266.643862 
L 116.599979 256.926645 
L 117.137932 79.019283 
L 117.406908 64.381269 
L 117.810373 80.848736 
L 118.213837 147.756998 
L 118.482814 209.824998 
L 118.75179 244.107601 
L 118.886279 245.634926 
L 119.289743 253.59417 
L 119.424231 255.006171 
L 119.55872 257.765363 
L 119.693208 258.080836 
L 119.827696 248.506582 
L 120.365649 91.821171 
L 120.634625 73.335061 
L 120.769114 77.010648 
L 120.903602 70.618758 
L 121.03809 71.941169 
L 121.441555 135.099502 
L 121.710531 201.643207 
L 121.845019 229.702141 
L 122.248484 240.619773 
L 122.51746 256.068865 
L 122.651948 256.227554 
L 122.786437 257.95884 
L 122.920925 256.624039 
L 123.055413 248.498481 
L 123.727854 60.441676 
L 123.862342 53.568 
L 124.534783 107.467076 
L 125.072736 247.802726 
L 125.207225 252.951312 
L 125.341713 253.412607 
L 125.476201 253.366382 
L 125.745177 266.907391 
L 125.879666 268.337977 
L 126.014154 268.566718 
L 126.28313 255.173438 
L 126.821083 92.921988 
L 126.955571 74.649847 
L 127.09006 81.219488 
L 127.359036 105.651442 
L 127.493524 108.083725 
L 127.762501 126.501212 
L 127.896989 149.205693 
L 128.300453 246.192006 
L 128.434942 251.969154 
L 128.56943 250.149707 
L 128.703918 257.618588 
L 128.838406 258.339599 
L 129.241871 265.004072 
L 129.510847 244.382091 
L 130.0488 83.383953 
L 130.183288 74.31436 
L 130.317777 86.181745 
L 130.452265 114.882107 
L 130.586753 113.967618 
L 130.721241 110.335873 
L 130.855729 116.698694 
L 131.124706 169.743803 
L 131.393682 235.10806 
L 131.662659 258.110381 
L 131.931635 257.914998 
L 132.066123 257.733435 
L 132.3351 268.957008 
L 132.469588 268.809279 
L 132.604076 268.907924 
L 132.738564 268.866465 
L 133.007541 257.026243 
L 133.276517 246.611365 
L 133.679982 241.057241 
L 133.81447 239.880176 
L 133.948958 234.803072 
L 134.486911 244.637518 
L 134.755888 251.693711 
L 134.890376 251.579341 
L 135.697305 265.760348 
L 135.831793 270.490051 
L 135.966282 271.096692 
L 136.10077 269.122846 
L 136.235258 270.619672 
L 136.369746 270.346612 
L 136.504234 266.065813 
L 136.638723 265.907601 
L 136.907699 263.981408 
L 137.311164 253.146218 
L 137.445652 253.653738 
L 137.58014 250.983184 
L 137.983605 257.766316 
L 138.118093 256.868507 
L 138.252581 258.695101 
L 138.387069 263.166994 
L 138.521558 261.939416 
L 138.656046 262.139564 
L 138.925022 266.813988 
L 139.193999 250.642454 
L 139.731951 81.538296 
L 139.86644 72.660751 
L 140.269904 98.555696 
L 140.538881 122.875186 
L 140.673369 129.934714 
L 140.807857 144.231523 
L 141.076834 223.987897 
L 141.480298 257.031008 
L 142.018251 265.432486 
L 142.152739 264.970714 
L 142.421716 241.338878 
L 142.959669 91.492832 
L 143.094157 84.109253 
L 143.228645 83.623654 
L 143.363133 93.804549 
L 143.497621 84.571025 
L 143.63211 89.675292 
L 144.573527 258.27336 
L 144.708015 261.747845 
L 144.842504 261.922736 
L 145.11148 264.155347 
L 145.245968 266.289313 
L 145.380456 262.229154 
L 145.783921 201.328212 
L 146.052897 110.034221 
L 146.187386 90.996273 
L 146.456362 106.24331 
L 146.59085 117.516444 
L 146.725339 111.850331 
L 146.859827 119.232481 
L 146.994315 114.176821 
L 147.128803 126.981569 
L 147.532268 233.797563 
L 147.801244 259.704899 
L 147.935732 259.906477 
L 148.204709 265.157043 
L 148.339197 265.135599 
L 148.473685 265.6374 
L 148.742662 264.588049 
L 148.87715 246.967821 
L 149.280615 119.097142 
L 149.415103 115.072248 
L 149.549591 106.021717 
L 149.684079 107.273123 
L 150.087544 139.872094 
L 150.222032 132.205925 
L 150.35652 137.707153 
L 150.894473 252.151194 
L 151.028961 261.292268 
L 151.16345 260.33775 
L 151.835891 268.485706 
L 151.970379 267.217621 
L 152.104867 246.338305 
L 152.508332 113.107456 
L 152.64282 116.205947 
L 152.911796 104.391935 
L 153.046285 118.494313 
L 153.180773 116.998441 
L 153.449749 151.357291 
L 153.718726 192.168552 
L 153.987702 248.605704 
L 154.12219 265.600229 
L 154.256678 266.974583 
L 154.525655 270.824109 
L 154.794631 272.522513 
L 155.063608 275.45755 
L 155.198096 277.094004 
L 155.332584 276.452575 
L 155.467072 272.085999 
L 155.601561 261.644435 
L 155.736049 260.786178 
L 155.870537 257.930248 
L 156.005025 260.062307 
L 156.274002 258.171379 
L 156.40849 258.706062 
L 156.542978 259.955561 
L 156.677466 258.762771 
L 157.215419 266.745842 
L 157.349907 268.745422 
L 157.484396 267.756593 
L 157.618884 268.524306 
L 157.88786 271.68999 
L 158.022348 272.169394 
L 158.291325 275.158757 
L 158.560301 279.426212 
L 158.694789 277.865052 
L 158.829278 278.826242 
L 158.963766 278.431187 
L 159.232742 275.725845 
L 159.367231 276.007006 
L 159.501719 274.029823 
L 160.039672 259.992255 
L 160.308648 260.250542 
L 160.443136 265.950966 
L 160.577624 265.668375 
L 160.712113 263.719309 
L 160.846601 264.418876 
L 160.981089 265.906171 
L 161.250066 269.650857 
L 161.519042 270.59918 
L 161.788018 253.889628 
L 162.460459 83.808554 
L 162.594948 83.473066 
L 162.729436 82.018653 
L 162.998412 101.546012 
L 163.132901 110.462158 
L 163.401877 151.59461 
L 163.670853 222.095063 
L 164.074318 256.074107 
L 164.208806 257.203517 
L 164.477783 269.817647 
L 164.612271 272.1713 
L 164.746759 267.484486 
L 165.015735 250.032477 
L 165.4192 120.704526 
L 165.553688 123.295021 
L 165.822665 109.448071 
L 165.957153 114.686247 
L 166.091641 111.611583 
L 166.360618 100.195485 
L 166.495106 106.368641 
L 166.89857 221.198683 
L 167.033059 228.147177 
L 167.302035 246.47555 
L 167.974476 264.878265 
L 168.108964 259.223589 
L 168.243453 245.258456 
L 168.377941 207.30932 
L 168.646917 106.195179 
L 168.781405 107.473748 
L 168.915894 102.963255 
L 169.050382 104.258979 
L 169.18487 108.041789 
L 169.319358 92.765682 
L 169.453847 95.235611 
L 169.857311 148.431785 
L 170.126288 226.36633 
L 170.395264 257.078186 
L 170.529752 257.955028 
L 170.66424 261.380429 
L 170.798729 261.569141 
L 171.067705 263.888482 
L 171.202193 266.713437 
L 171.47117 244.999216 
L 172.009123 110.2439 
L 172.143611 108.672734 
L 172.412587 96.954984 
L 172.95054 129.346659 
L 173.622981 259.041073 
L 173.757469 263.016882 
L 173.891958 276.352024 
L 174.026446 275.426098 
L 174.160934 275.382256 
L 174.42991 276.908151 
L 174.698887 262.166727 
L 174.833375 245.100243 
L 175.102351 176.808097 
L 175.371328 143.545775 
L 175.505816 140.655533 
L 175.640304 150.788297 
L 175.774792 150.479019 
L 175.909281 151.883396 
L 176.043769 156.674573 
L 176.178257 156.367678 
L 176.312745 170.794583 
L 176.581722 238.23848 
L 176.850698 265.278085 
L 176.985186 262.791953 
L 177.254163 267.511649 
L 177.388651 267.468283 
L 177.792116 274.006472 
L 177.926604 274.894275 
L 178.19558 264.211579 
L 178.330069 263.772682 
L 178.599045 256.228984 
L 178.733533 255.665232 
L 178.868021 257.966465 
L 179.136998 254.466723 
L 179.271486 255.060974 
L 179.540462 252.582466 
L 179.809439 260.067073 
L 179.943927 267.316742 
L 180.212904 265.420572 
L 180.48188 275.260261 
L 180.616368 275.274081 
L 180.750856 275.645309 
L 180.885345 276.474496 
L 181.019833 276.56075 
L 181.692274 264.284014 
L 181.826762 265.576402 
L 181.96125 259.608637 
L 182.095738 261.386147 
L 182.364715 266.810176 
L 182.499203 268.084932 
L 182.633691 271.224406 
L 182.902668 270.408562 
L 183.171644 276.52358 
L 183.306132 277.936057 
L 183.440621 276.829045 
L 183.575109 274.533054 
L 183.844085 286.236031 
L 183.978573 287.184831 
L 184.113062 284.911714 
L 184.382038 273.554708 
L 184.919991 182.058663 
L 185.054479 186.064018 
L 185.188967 179.009255 
L 185.457944 182.859734 
L 185.592432 184.35513 
L 185.995897 222.014527 
L 186.264873 252.534336 
L 186.53385 268.251246 
L 186.802826 278.479318 
L 187.071802 288.949951 
L 187.206291 287.802432 
L 187.340779 288.933749 
L 187.475267 285.764252 
L 187.609755 277.785946 
L 188.01322 202.067332 
L 188.147708 185.708993 
L 188.282196 185.92725 
L 188.416684 184.971302 
L 188.551173 188.275184 
L 188.685661 194.660879 
L 188.820149 190.259992 
L 188.954637 194.68423 
L 189.089126 203.036147 
L 189.627078 264.88446 
L 189.761567 267.466854 
L 189.896055 272.68978 
L 190.030543 270.25988 
L 190.299519 272.086952 
L 190.434008 270.918465 
L 190.971961 274.334812 
L 191.106449 270.890825 
L 191.240937 270.406656 
L 191.375425 270.844124 
L 191.509913 266.426081 
L 191.644402 267.971514 
L 191.913378 266.708672 
L 192.182354 261.085925 
L 192.316843 261.433802 
L 192.451331 260.936766 
L 192.585819 262.254411 
L 192.720307 268.010591 
L 192.989284 269.265332 
L 193.392748 266.584294 
L 193.661725 269.459762 
L 193.796213 269.993016 
L 194.065189 262.124315 
L 194.603142 158.616491 
L 194.73763 153.716185 
L 194.872119 143.787383 
L 195.006607 145.359503 
L 195.141095 150.092542 
L 195.275583 142.710869 
L 195.54456 156.073651 
L 195.948024 249.884749 
L 196.217001 260.197646 
L 196.351489 262.120026 
L 196.485977 271.571807 
L 196.620465 270.920848 
L 196.889442 271.476498 
L 197.02393 272.602573 
L 197.158418 270.876529 
L 197.292907 264.568987 
L 197.830859 196.004734 
L 197.965348 198.311209 
L 198.099836 195.000655 
L 198.234324 199.394871 
L 198.5033 186.098806 
L 198.772277 199.868556 
L 199.31023 272.246594 
L 199.713694 281.339061 
L 199.848183 280.172957 
L 200.117159 280.89921 
L 200.251647 279.119794 
L 200.386135 273.353607 
L 200.520624 272.951403 
L 200.655112 260.021801 
L 200.7896 212.902522 
L 200.924088 210.936776 
L 201.058576 199.278594 
L 201.193065 198.921186 
L 201.327553 196.242053 
L 201.462041 198.409854 
L 201.731018 186.635872 
L 201.865506 187.994023 
L 202.134482 210.639412 
L 202.403459 263.994751 
L 202.806923 273.772013 
L 203.0759 265.319068 
L 203.210388 269.63656 
L 203.344876 269.762368 
L 203.748341 260.406372 
L 203.882829 243.057297 
L 204.151805 181.232335 
L 204.420782 164.796319 
L 204.55527 159.179767 
L 204.689758 162.60898 
L 204.824246 156.123688 
L 204.958735 172.112228 
L 205.093223 172.358125 
L 205.765664 259.826894 
L 205.900152 260.336797 
L 206.03464 264.12866 
L 206.169129 278.945378 
L 206.303617 279.425259 
L 206.572593 283.35532 
L 206.84157 284.164969 
L 207.110546 274.79706 
L 207.379522 265.634064 
L 207.514011 264.758176 
L 207.917475 272.858477 
L 208.051964 272.61258 
L 208.32094 266.265485 
L 208.589916 267.863815 
L 208.858893 275.897877 
L 208.993381 279.543442 
L 209.127869 280.125779 
L 209.262357 279.582995 
L 209.396846 273.741037 
L 209.531334 274.836136 
L 209.80031 274.422019 
L 209.934799 275.410849 
L 210.203775 263.256108 
L 211.010704 108.466866 
L 211.279681 134.033473 
L 211.683145 167.062764 
L 212.221098 254.512948 
L 212.355586 256.97144 
L 212.759051 272.179401 
L 212.893539 271.972581 
L 213.028027 272.072655 
L 213.162516 274.716047 
L 213.431492 257.05007 
L 213.56598 219.050897 
L 213.834957 135.309659 
L 213.969445 139.885438 
L 214.103933 138.796534 
L 214.238421 141.751586 
L 214.910862 179.992366 
L 215.448815 260.119969 
L 215.583303 265.076031 
L 215.717792 265.692679 
L 216.121256 269.946791 
L 216.255745 270.902262 
L 216.390233 273.28832 
L 216.524721 269.28773 
L 216.659209 261.783585 
L 217.062674 148.919766 
L 217.197162 150.828326 
L 217.33165 150.908862 
L 217.466138 162.352599 
L 217.600627 161.071171 
L 217.735115 149.238098 
L 217.869603 154.459118 
L 218.273068 196.572775 
L 218.542044 255.285426 
L 218.811021 272.053117 
L 218.945509 264.647617 
L 219.483462 275.348421 
L 219.61795 277.143564 
L 219.886926 263.417656 
L 220.290391 162.0133 
L 220.693856 150.373703 
L 220.828344 161.018752 
L 220.962832 157.104893 
L 221.231808 184.210737 
L 221.500785 198.051969 
L 221.769761 255.149135 
L 222.038738 270.754534 
L 222.173226 270.003023 
L 222.307714 271.225836 
L 222.576691 277.266036 
L 222.845667 279.900373 
L 222.980155 278.231038 
L 223.114643 280.100999 
L 223.38362 259.58481 
L 223.518108 263.442913 
L 223.652596 263.286606 
L 223.921573 256.336683 
L 224.190549 255.665232 
L 224.325037 258.150411 
L 224.459525 257.522802 
L 224.728502 253.669464 
L 225.131967 260.928188 
L 225.266455 259.444229 
L 225.535431 260.914369 
L 225.669919 259.603395 
L 226.073384 269.357782 
L 226.34236 272.384792 
L 226.476849 272.312834 
L 226.745825 269.170023 
L 226.880313 271.451241 
L 227.014802 271.694279 
L 227.14929 271.397392 
L 227.283778 269.978719 
L 227.418266 271.654726 
L 227.552754 271.783393 
L 227.687243 271.61422 
L 227.956219 270.505777 
L 228.090707 276.319619 
L 228.225195 276.358696 
L 228.359684 277.45999 
L 228.494172 276.687511 
L 228.62866 277.658232 
L 228.763148 277.543861 
L 228.897637 275.256448 
L 229.301101 276.159977 
L 229.435589 269.94822 
L 229.570078 255.869193 
L 230.242519 94.484101 
L 230.377007 79.651657 
L 230.511495 109.622486 
L 230.780471 117.571247 
L 231.049448 145.032117 
L 231.587401 253.7114 
L 231.856377 264.931161 
L 232.125354 269.744259 
L 232.39433 274.399622 
L 232.528818 273.58616 
L 232.797795 256.487271 
L 232.932283 220.227485 
L 233.201259 133.095633 
L 233.335748 124.922421 
L 233.470236 135.215779 
L 233.604724 135.437849 
L 233.739212 148.225918 
L 233.8737 133.493548 
L 234.008189 140.214253 
L 234.815118 264.349777 
L 234.949606 264.083389 
L 235.218583 269.985391 
L 235.622047 277.720659 
L 235.756535 277.123073 
L 236.025512 264.470819 
L 236.563465 128.941596 
L 236.832441 116.733958 
L 237.63937 200.399903 
L 237.908347 258.453017 
L 238.177323 266.539022 
L 238.849764 281.452002 
L 238.984252 280.62758 
L 239.118741 276.830474 
L 239.253229 262.934917 
L 239.791182 128.171977 
L 240.194646 145.900858 
L 240.463623 165.020771 
L 240.732599 178.472666 
L 241.270552 255.92209 
L 241.674017 261.795499 
L 241.942993 274.734156 
L 242.077481 281.231362 
L 242.21197 280.605659 
L 242.480946 262.644225 
L 242.884411 150.944603 
L 243.018899 158.813781 
L 243.153387 156.567827 
L 243.287875 145.593486 
L 243.422363 153.571316 
L 243.556852 150.760657 
L 243.825828 167.394916 
L 244.229293 239.357407 
L 244.498269 261.734978 
L 244.767246 267.006035 
L 245.17071 274.86044 
L 245.305198 275.724892 
L 245.439687 275.429434 
L 245.574175 274.201379 
L 245.708663 262.750971 
L 245.843151 268.196443 
L 246.112128 265.216135 
L 246.381104 260.03991 
L 246.515592 260.006551 
L 247.188033 270.243201 
L 247.322522 270.648264 
L 247.45701 271.514622 
L 247.591498 271.160549 
L 247.725986 274.321468 
L 247.860475 272.884687 
L 248.129451 274.207098 
L 248.263939 273.324537 
L 248.398427 274.006472 
L 248.532916 273.853502 
L 248.667404 275.79685 
L 248.801892 275.698205 
L 249.205357 277.235537 
L 249.339845 277.351814 
L 249.608821 276.404444 
L 249.743309 276.53597 
L 249.877798 276.236224 
L 250.550239 273.073875 
L 250.819215 273.373622 
L 250.953703 274.151342 
L 251.088192 273.01669 
L 251.357168 274.272861 
L 251.491656 283.15946 
L 251.626144 282.670526 
L 251.760633 283.100369 
L 251.895121 282.940727 
L 252.164097 270.713551 
L 252.70205 143.483348 
L 252.836538 163.189888 
L 252.971027 159.750667 
L 253.240003 172.640716 
L 253.374491 173.991719 
L 253.508979 171.070502 
L 253.777956 203.84246 
L 254.046932 255.124831 
L 254.315909 276.42017 
L 254.719373 284.763032 
L 254.853862 284.523331 
L 255.122838 286.25414 
L 255.391814 265.519693 
L 255.660791 172.431513 
L 255.795279 175.873593 
L 256.198744 160.224352 
L 256.333232 163.892314 
L 256.46772 161.231767 
L 256.602208 162.425987 
L 257.409138 257.36316 
L 257.812602 264.823462 
L 258.081579 280.007119 
L 258.216067 281.069337 
L 258.350555 280.341177 
L 258.619532 266.192098 
L 258.888508 177.228409 
L 259.022996 178.096196 
L 259.157484 169.057102 
L 259.291973 168.48239 
L 259.426461 153.021384 
L 259.695437 166.70059 
L 259.829925 155.586146 
L 259.964414 164.645254 
L 260.771343 260.42877 
L 261.040319 262.663763 
L 261.309296 270.151228 
L 261.443784 273.360278 
L 261.71276 270.450498 
L 261.847249 258.078453 
L 262.116225 170.055939 
L 262.250713 174.216648 
L 262.654178 147.828003 
L 262.788666 155.117226 
L 262.923154 150.354641 
L 263.326619 185.4488 
L 263.461107 196.329738 
L 263.864572 245.028761 
L 264.268036 263.043569 
L 264.402525 262.287293 
L 264.671501 265.711741 
L 264.805989 265.585933 
L 264.940478 264.636657 
L 265.074966 257.080569 
L 265.209454 237.99449 
L 265.612919 123.880218 
L 265.881895 105.796788 
L 266.016383 115.283357 
L 266.150871 115.152784 
L 266.28536 114.705309 
L 266.419848 119.329219 
L 266.688824 156.544 
L 266.957801 235.230056 
L 267.226777 251.86908 
L 267.361265 250.448977 
L 267.495754 266.791114 
L 267.630242 266.475642 
L 267.76473 268.341789 
L 267.899218 268.652496 
L 268.168195 275.163046 
L 268.302683 276.046559 
L 268.437171 273.488945 
L 268.706147 276.021302 
L 268.975124 272.532044 
L 269.2441 270.65017 
L 269.916541 256.179424 
L 270.320006 258.066063 
L 270.588982 262.945401 
L 270.723471 277.021569 
L 270.857959 278.059959 
L 270.992447 276.584101 
L 271.126935 277.466185 
L 271.261424 277.49573 
L 271.395912 277.309878 
L 271.799376 280.083366 
L 271.933865 278.699958 
L 272.068353 279.054507 
L 272.202841 278.410696 
L 272.337329 278.646585 
L 272.471817 277.804531 
L 272.606306 275.641973 
L 272.740794 276.922924 
L 272.875282 276.60078 
L 273.00977 275.924564 
L 273.144258 273.593308 
L 273.278747 273.493711 
L 273.547723 276.468301 
L 273.682211 276.682269 
L 273.8167 277.365157 
L 273.951188 276.504518 
L 274.085676 287.142418 
L 274.354652 288.773153 
L 274.489141 287.20294 
L 274.758117 272.497733 
L 275.29607 166.083942 
L 275.565046 153.855813 
L 275.699535 154.19273 
L 275.834023 172.134149 
L 275.968511 174.414414 
L 276.102999 184.563857 
L 276.77544 263.827484 
L 277.447881 281.217066 
L 277.58237 284.611491 
L 277.716858 284.220725 
L 277.851346 279.825079 
L 277.985834 269.84767 
L 278.389299 209.37657 
L 278.523787 189.902583 
L 278.658275 187.905386 
L 278.792763 178.395466 
L 278.927252 190.518755 
L 279.06174 184.701578 
L 279.196228 186.791225 
L 279.330716 194.482651 
L 280.137646 274.194707 
L 280.272134 276.579812 
L 280.406622 268.227895 
L 280.54111 267.943875 
L 280.810087 269.114268 
L 280.944575 268.491424 
L 281.213551 260.576499 
L 281.348039 231.6412 
L 281.482528 161.210322 
L 281.617016 151.006554 
L 281.751504 127.618232 
L 281.885992 128.769563 
L 282.154969 142.273402 
L 282.289457 124.164715 
L 282.423945 128.251083 
L 282.558433 137.35737 
L 282.82741 185.782857 
L 283.096386 254.310893 
L 283.365363 260.938196 
L 283.499851 263.144596 
L 283.634339 262.473622 
L 283.768827 262.484106 
L 283.903316 262.673294 
L 284.037804 263.977596 
L 284.172292 264.106739 
L 284.441268 258.915265 
L 285.113709 143.682067 
L 285.248198 142.606506 
L 285.382686 138.071233 
L 285.517174 147.309523 
L 285.651662 144.209601 
L 285.78615 147.69743 
L 286.055127 200.807349 
L 286.324103 250.364629 
L 286.59308 260.038956 
L 286.727568 259.917438 
L 286.862056 278.848163 
L 286.996544 278.907255 
L 287.131033 277.929862 
L 287.265521 278.535074 
L 287.668985 275.010075 
L 287.803474 275.886917 
L 288.07245 275.012458 
L 288.206938 272.842275 
L 288.341427 272.786995 
L 288.475915 270.44192 
L 288.610403 270.071169 
L 288.744891 268.947954 
L 288.879379 271.774339 
L 289.013868 272.113638 
L 289.148356 269.304886 
L 289.417332 276.454958 
L 289.55182 277.641076 
L 289.820797 277.279856 
L 289.955285 278.06949 
L 290.089773 276.571234 
L 290.224262 278.117144 
L 290.35875 277.210757 
L 290.493238 278.190056 
L 290.627726 276.649388 
L 291.031191 258.684141 
L 291.300167 192.545975 
L 291.434655 186.96564 
L 291.569144 187.572758 
L 291.703632 191.632916 
L 291.972608 178.897267 
L 292.376073 191.96745 
L 293.048514 268.305572 
L 293.183002 269.551259 
L 293.31749 268.400404 
L 293.451979 269.151438 
L 293.586467 268.222653 
L 293.720955 270.695919 
L 293.855443 270.958971 
L 294.258908 247.055981 
L 294.527884 189.111043 
L 294.796861 157.45277 
L 294.931349 141.595756 
L 295.065837 141.461847 
L 295.200325 149.427763 
L 295.334814 143.712089 
L 295.60379 171.748148 
L 295.738278 186.227473 
L 296.141743 256.376713 
L 296.276231 255.487481 
L 296.410719 262.680442 
L 296.545208 280.344513 
L 296.948672 282.506118 
L 297.486625 284.469481 
L 297.621113 284.124463 
L 297.755601 284.120651 
L 298.024578 280.95163 
L 298.159066 280.801519 
L 298.428042 278.662788 
L 298.697019 274.842808 
L 298.831507 273.709109 
L 298.965995 273.567099 
L 299.100484 273.922124 
L 299.36946 277.700645 
L 299.503948 277.195031 
L 299.638436 278.735699 
L 299.772925 269.092823 
L 299.907413 272.489155 
L 300.041901 272.187979 
L 300.176389 273.052907 
L 300.310877 272.76984 
L 300.579854 261.818373 
L 301.252295 127.94943 
L 301.386783 128.018053 
L 301.521271 141.187357 
L 301.65576 134.257449 
L 301.790248 143.655857 
L 302.597177 252.267471 
L 302.731665 254.017342 
L 303.000642 266.403683 
L 303.13513 266.627659 
L 303.269618 267.107063 
L 303.404106 269.56222 
L 303.538595 269.980625 
L 303.807571 253.650402 
L 304.345524 164.029083 
L 304.6145 153.524615 
L 304.748988 161.747865 
L 304.883477 152.191243 
L 305.017965 158.260989 
L 306.093871 264.857773 
L 306.228359 265.866618 
L 306.497335 276.004147 
L 306.766312 277.032053 
L 306.9008 272.331895 
L 307.035288 261.811225 
L 307.304265 169.497429 
L 307.438753 176.746146 
L 307.842217 157.518533 
L 307.976706 164.557094 
L 308.111194 156.153233 
L 308.245682 161.106912 
L 308.649147 207.027206 
L 309.052611 263.292325 
L 309.590564 275.501392 
L 309.994029 277.201703 
L 310.128517 273.654783 
L 310.263005 261.061144 
L 310.531982 169.386394 
L 310.66647 170.53582 
L 310.935446 168.250789 
L 311.069934 158.916238 
L 311.204423 165.360071 
L 311.338911 164.071495 
L 311.473399 157.309807 
L 311.607887 170.422879 
L 311.876864 207.93264 
L 312.14584 250.184495 
L 312.414817 261.968961 
L 312.818281 270.564392 
L 312.952769 270.131214 
L 313.087258 272.013564 
L 313.221746 271.914919 
L 313.356234 273.488945 
L 313.625211 262.951596 
L 313.759699 255.074317 
L 313.894187 258.421088 
L 314.028675 255.896833 
L 314.163163 257.7768 
L 314.297652 255.021421 
L 314.566628 261.572953 
L 314.701116 262.306355 
L 314.970093 267.051307 
L 315.104581 267.01366 
L 315.239069 266.717726 
L 315.508045 269.645138 
L 315.642534 270.181251 
L 315.777022 269.851482 
L 316.180487 272.836079 
L 316.314975 272.397182 
L 316.718439 274.747499 
L 316.852928 274.996255 
L 316.987416 274.144194 
L 317.121904 274.20948 
L 317.256392 273.091507 
L 317.39088 273.2359 
L 317.525369 271.699521 
L 317.659857 272.617346 
L 317.928833 270.102144 
L 318.332298 266.371755 
L 318.466786 267.025097 
L 318.601274 266.523296 
L 318.735763 267.977233 
L 318.870251 267.813778 
L 319.139227 268.928415 
L 319.273715 278.748566 
L 319.67718 279.865109 
L 319.811668 277.29034 
L 319.946157 269.348728 
L 320.349621 147.549225 
L 320.484109 131.423439 
L 320.887574 158.65938 
L 321.022062 163.318555 
L 321.291039 178.078088 
L 321.425527 179.875613 
L 321.560015 198.287382 
L 321.828991 253.729032 
L 321.96348 261.804077 
L 322.097968 262.589422 
L 322.635921 279.26371 
L 322.770409 279.610158 
L 322.904897 278.95205 
L 323.173874 268.536219 
L 323.44285 173.217335 
L 323.577338 173.578555 
L 323.711826 173.779657 
L 323.980803 153.633743 
L 324.249779 157.16732 
L 324.384268 159.929371 
L 324.787732 196.116722 
L 325.056709 250.555723 
L 325.325685 259.813074 
L 325.863638 277.607718 
L 325.998126 279.372362 
L 326.132614 279.437649 
L 326.267103 276.229552 
L 326.401591 267.244308 
L 326.670567 166.037717 
L 326.805055 171.984038 
L 326.939544 173.154431 
L 327.20852 159.948433 
L 327.343008 168.079233 
L 327.611985 164.331212 
L 327.746473 169.183387 
L 328.149937 223.79442 
L 328.418914 254.591578 
L 328.68789 267.382505 
L 328.822379 269.831944 
L 328.956867 279.862726 
L 329.225843 280.80819 
L 329.360331 279.962324 
L 329.629308 267.149952 
L 330.032772 178.273471 
L 330.301749 166.952206 
L 330.570725 158.157579 
L 330.839702 179.977117 
L 330.97419 181.18754 
L 331.108678 183.928623 
L 331.781119 259.693938 
L 332.050096 266.845917 
L 332.184584 277.603429 
L 332.319072 278.557948 
L 332.45356 277.894122 
L 332.588049 278.880092 
L 332.857025 266.292172 
L 333.26049 177.643003 
L 333.394978 179.549657 
L 333.663954 164.66241 
L 333.798442 165.852818 
L 333.932931 169.613706 
L 334.336395 187.449333 
L 334.73986 255.075747 
L 335.143325 270.778837 
L 335.277813 270.580595 
L 335.412301 270.67781 
L 335.546789 270.962783 
L 335.681277 270.857944 
L 335.950254 273.435572 
L 336.084742 271.344496 
L 336.622695 254.90848 
L 336.757183 255.701926 
L 336.891671 253.875808 
L 337.295136 260.222903 
L 337.698601 264.947364 
L 337.833089 264.468913 
L 338.102065 268.561476 
L 338.236553 268.329876 
L 338.371042 268.966062 
L 338.50553 266.634807 
L 339.043483 269.788102 
L 339.446947 272.778894 
L 339.581436 272.298061 
L 339.715924 271.131004 
L 339.850412 271.389767 
L 339.9849 270.611094 
L 340.119388 270.498629 
L 340.253877 270.025897 
L 340.388365 271.500326 
L 340.522853 269.515042 
L 340.657341 270.112628 
L 340.926318 269.794773 
L 341.060806 266.462298 
L 341.329782 271.335441 
L 341.464271 271.233937 
L 341.598759 271.761472 
L 341.733247 273.325014 
L 341.867735 281.132717 
L 342.136712 281.234221 
L 342.2712 281.874697 
L 342.540176 269.202428 
L 342.943641 154.238955 
L 343.212617 170.817457 
L 343.347106 170.084532 
L 343.75057 184.442814 
L 343.885058 186.114532 
L 344.019547 185.453088 
L 344.423011 253.213411 
L 345.22994 278.8596 
L 345.364429 279.941356 
L 345.498917 279.574417 
L 345.633405 275.365577 
L 345.767893 267.296251 
L 346.03687 183.199987 
L 346.171358 187.310182 
L 346.440334 173.770603 
L 346.574823 168.409478 
L 346.843799 175.275053 
L 347.112775 177.140248 
L 347.381752 211.555331 
L 347.650728 250.393222 
L 348.054193 268.320821 
L 348.188681 269.500745 
L 348.323169 278.452632 
L 348.457658 279.298974 
L 348.592146 281.166075 
L 348.726634 280.971169 
L 348.99561 268.089221 
L 349.264587 182.151589 
L 349.399075 183.622681 
L 349.668052 166.098715 
L 349.80254 161.994715 
L 350.206004 180.654286 
L 350.340493 181.831828 
L 351.012934 261.85602 
L 351.147422 264.172026 
L 351.550886 280.802472 
L 351.685375 280.091944 
L 351.954351 280.45793 
L 352.088839 279.063561 
L 352.223328 271.789588 
L 352.492304 178.082853 
L 352.626792 185.232448 
L 352.76128 173.887356 
L 352.895769 173.180164 
L 353.030257 164.919744 
L 353.164745 172.115088 
L 353.299233 170.042596 
L 353.56821 152.306091 
L 354.240651 268.461879 
L 354.375139 269.597007 
L 354.644115 275.44659 
L 354.913092 279.711185 
L 355.182068 280.751005 
L 355.316556 278.353987 
L 355.451045 269.246271 
L 355.854509 196.107668 
L 356.123486 157.859262 
L 356.257974 159.569104 
L 356.392462 168.159769 
L 356.52695 167.527871 
L 356.661439 178.110016 
L 356.795927 176.86147 
L 357.33388 264.161542 
L 357.602856 273.736748 
L 357.737344 275.696775 
L 357.871832 279.942309 
L 358.006321 279.365214 
L 358.140809 279.579183 
L 358.275297 280.31735 
L 358.409785 280.229666 
L 358.678762 278.973018 
L 359.082226 260.547429 
L 359.351203 254.655435 
L 359.485691 248.398407 
L 359.620179 259.107312 
L 359.754667 260.51836 
L 359.889156 260.686104 
L 360.427109 274.942406 
L 360.561597 275.620528 
L 360.965061 279.758363 
L 361.234038 279.71881 
L 361.368526 279.527716 
L 361.503014 280.830112 
L 361.771991 280.423619 
L 361.906479 281.751272 
L 362.040967 281.703617 
L 362.175455 282.078181 
L 362.309944 282.118688 
L 362.57892 278.713778 
L 362.713408 278.664694 
L 362.982385 277.532424 
L 363.116873 276.043223 
L 363.251361 275.941719 
L 363.385849 277.030147 
L 363.520337 276.178085 
L 363.654826 276.118517 
L 364.05829 278.898677 
L 364.192778 252.947023 
L 364.730731 259.191184 
L 364.86522 257.998393 
L 364.999708 245.94182 
L 365.134196 223.835403 
L 365.403172 135.685652 
L 365.672149 105.451293 
L 365.806637 99.541667 
L 366.075613 116.453274 
L 366.34459 113.315229 
L 366.479078 124.724655 
L 367.017031 250.865477 
L 367.151519 255.815344 
L 367.286007 254.083581 
L 367.554984 265.422002 
L 367.689472 266.28693 
L 367.958448 271.177228 
L 368.227425 247.661193 
L 368.496401 151.890067 
L 368.765378 100.108278 
L 369.034354 89.22734 
L 369.168842 93.940364 
L 369.303331 93.496701 
L 369.437819 96.859198 
L 369.572307 94.740958 
L 369.706795 110.820043 
L 370.244748 234.429938 
L 370.782701 278.566526 
L 370.917189 278.871038 
L 371.051677 279.761222 
L 371.186166 279.482921 
L 371.455142 264.68717 
L 371.858607 171.571827 
L 372.127583 203.505066 
L 372.262071 199.451103 
L 372.396559 200.875494 
L 372.665536 190.205189 
L 372.800024 193.993717 
L 373.203489 233.636491 
L 373.472465 255.857756 
L 373.87593 277.016803 
L 374.010418 286.02111 
L 374.144906 285.875287 
L 374.279394 287.079991 
L 374.413883 286.577713 
L 374.682859 270.043053 
L 375.220812 180.782953 
L 375.489788 177.15931 
L 375.624277 177.381856 
L 375.893253 183.907178 
L 376.027741 188.196554 
L 376.565694 255.67524 
L 376.83467 264.551832 
L 376.969159 267.383935 
L 377.103647 279.177932 
L 377.238135 278.086645 
L 377.507112 280.156278 
L 377.6416 278.193391 
L 377.776088 281.727445 
L 378.045064 279.583471 
L 378.179553 269.956798 
L 378.314041 269.332049 
L 378.448529 262.242021 
L 378.583017 263.241335 
L 378.717505 262.325416 
L 378.851994 266.830191 
L 378.986482 266.071055 
L 379.12097 266.977919 
L 379.255458 269.134283 
L 379.389947 269.018006 
L 379.927899 278.259155 
L 380.062388 278.052811 
L 380.196876 278.468834 
L 380.331364 268.57339 
L 380.465852 269.250559 
L 380.869317 272.150809 
L 381.138293 261.269394 
L 381.272782 234.210251 
L 381.541758 159.713973 
L 381.810734 139.577114 
L 381.945223 141.166389 
L 382.214199 147.64501 
L 382.348687 139.665274 
L 382.752152 189.459874 
L 383.021128 257.377456 
L 383.155616 265.295718 
L 383.290105 265.957161 
L 383.424593 267.242878 
L 383.559081 262.320174 
L 383.693569 261.60917 
L 383.962546 261.955141 
L 384.097034 263.14412 
L 384.231522 261.36232 
L 384.36601 262.752877 
L 385.038451 148.706274 
L 385.17294 151.146658 
L 385.307428 166.264076 
L 385.576404 160.626556 
L 386.248845 260.220043 
L 386.921286 278.699482 
L 387.055775 277.885544 
L 387.190263 279.16173 
L 387.324751 278.471693 
L 387.459239 278.632765 
L 387.593727 280.120537 
L 387.728216 279.546777 
L 387.862704 280.862517 
L 387.997192 279.694506 
L 388.13168 281.283305 
L 388.266169 280.300194 
L 388.400657 278.316816 
L 388.535145 278.40593 
L 388.669633 277.74401 
L 388.804121 278.881998 
L 388.93861 276.333439 
L 389.207586 278.471693 
L 389.476562 285.155228 
L 389.611051 284.097776 
L 389.745539 284.91362 
L 389.880027 284.861677 
L 390.014515 269.970142 
L 390.283492 270.218898 
L 390.41798 270.228905 
L 390.552468 270.098332 
L 390.686956 264.603299 
L 390.821445 264.788198 
L 390.955933 255.941151 
L 391.224909 199.813754 
L 391.359397 168.453797 
L 391.493886 164.466074 
L 391.762862 175.154011 
L 391.89735 174.610751 
L 392.031839 167.391103 
L 392.166327 171.088611 
L 392.300815 180.063848 
L 392.569791 240.190406 
L 392.70428 266.465158 
L 392.973256 271.305419 
L 393.107744 271.962574 
L 393.376721 264.909717 
L 393.645697 270.624913 
L 393.780185 267.23573 
L 393.914673 268.619615 
L 394.049162 261.210303 
L 394.721603 146.656657 
L 394.990579 145.585385 
L 395.125067 145.16555 
L 395.259556 156.544953 
L 395.394044 157.414646 
L 395.931997 245.517219 
L 396.200973 259.121132 
L 396.335461 255.385977 
L 396.46995 280.1477 
L 396.604438 280.530842 
L 397.007902 283.564523 
L 397.276879 270.513402 
L 397.545855 196.836304 
L 397.680343 191.651025 
L 397.94932 168.283671 
L 398.083808 154.822722 
L 398.218296 167.560753 
L 398.352785 162.796262 
L 398.487273 165.807546 
L 398.487273 165.807546 
" clip-path="url(#pbfdfedec2d)" style="fill: none; stroke: #1f77b4; stroke-width: 1.5; stroke-linecap: square"/>
   </g>
   <g id="line2d_13">
    <path d="M 73.832727 279.471102 
L 73.967215 279.467844 
L 74.236192 278.772917 
L 74.37068 277.335354 
L 74.505168 279.281445 
L 74.639657 278.343206 
L 74.774145 279.327111 
L 74.908633 269.396535 
L 75.043121 226.296817 
L 75.312098 248.496057 
L 75.446586 249.693503 
L 75.581074 249.54929 
L 75.715562 250.773833 
L 75.85005 249.331306 
L 75.984539 249.46138 
L 76.388003 243.998211 
L 76.522492 280.443516 
L 76.65698 281.05842 
L 77.060444 271.294651 
L 77.194933 254.95195 
L 77.329421 265.677738 
L 77.598397 264.768759 
L 77.732885 267.844673 
L 77.867374 255.732418 
L 78.001862 231.705491 
L 78.270838 127.150072 
L 78.405327 102.624503 
L 78.539815 104.622337 
L 78.674303 108.55247 
L 78.808791 107.855573 
L 78.943279 119.397714 
L 79.077768 109.319177 
L 79.61572 182.736146 
L 79.750209 237.30976 
L 80.153673 270.850914 
L 80.288161 265.387233 
L 80.42265 253.552199 
L 80.557138 275.807864 
L 80.691626 269.766868 
L 80.960603 269.876296 
L 81.095091 263.912287 
L 81.229579 245.115784 
L 81.498555 144.079408 
L 81.633044 172.719408 
L 81.767532 174.747764 
L 81.90202 162.224129 
L 82.036508 192.840204 
L 82.305485 199.93919 
L 82.439973 196.509461 
L 82.574461 197.542914 
L 82.708949 230.787041 
L 82.977926 196.929167 
L 83.112414 221.529893 
L 83.246902 196.617736 
L 83.38139 196.252011 
L 83.650367 272.524107 
L 83.919343 280.402129 
L 84.053831 281.849886 
L 84.18832 281.555052 
L 84.322808 196.248535 
L 84.457296 233.958748 
L 84.591784 196.248535 
L 84.860761 196.248535 
L 84.995249 198.97056 
L 85.129737 193.257668 
L 85.264225 171.215897 
L 85.533202 190.518714 
L 85.66769 193.618744 
L 85.802178 199.569694 
L 85.936666 210.669067 
L 86.205643 260.487603 
L 86.340131 257.092731 
L 86.474619 268.7122 
L 86.609107 263.663919 
L 87.012572 288.114861 
L 87.14706 287.440836 
L 87.281549 285.322552 
L 87.416037 286.80893 
L 87.550525 286.107437 
L 87.685013 284.593167 
L 87.95399 247.133328 
L 88.088478 258.635421 
L 88.222966 252.212725 
L 88.357454 258.00171 
L 88.491942 256.980426 
L 88.626431 252.169148 
L 88.760919 258.472719 
L 88.895407 246.449265 
L 89.029895 254.308426 
L 89.164384 253.559696 
L 89.298872 257.244893 
L 89.43336 278.190985 
L 89.567848 279.622291 
L 89.702336 274.548155 
L 89.836825 274.889714 
L 89.971313 276.206375 
L 90.105801 251.073516 
L 90.374777 265.506632 
L 90.509266 264.120383 
L 90.643754 267.570062 
L 90.778242 265.59059 
L 90.91273 268.491355 
L 91.047218 262.365538 
L 91.181707 247.784485 
L 91.316195 252.392112 
L 91.450683 243.808039 
L 91.585171 255.052051 
L 91.71966 250.541216 
L 91.854148 253.348648 
L 91.988636 253.439469 
L 92.123124 254.548197 
L 92.257612 256.654161 
L 92.392101 254.530428 
L 92.930053 268.189646 
L 93.064542 267.55657 
L 93.19903 261.33611 
L 93.333518 280.653352 
L 93.602495 272.036087 
L 93.736983 274.172574 
L 93.871471 271.65442 
L 94.140447 259.685946 
L 94.409424 171.199026 
L 94.543912 180.101867 
L 94.812888 154.07877 
L 94.947377 155.455212 
L 95.216353 176.856058 
L 95.48533 148.602129 
L 95.888794 252.759318 
L 96.023282 267.256873 
L 96.157771 268.7805 
L 96.292259 264.21892 
L 96.561235 268.872815 
L 96.695723 266.381932 
L 96.830212 266.439642 
L 96.9647 269.671979 
L 97.099188 268.219284 
L 97.233676 265.463466 
L 97.502653 221.508905 
L 97.637141 169.586158 
L 97.771629 184.793825 
L 97.906117 172.520368 
L 98.040606 192.546171 
L 98.175094 183.590918 
L 98.309582 183.775634 
L 98.44407 177.473003 
L 98.578558 180.908506 
L 98.847535 197.658839 
L 99.250999 270.963032 
L 99.385488 270.562152 
L 99.519976 273.120636 
L 99.654464 271.00524 
L 99.788952 285.666618 
L 100.057929 275.007264 
L 100.326905 278.083374 
L 100.595882 276.202296 
L 100.73037 277.010783 
L 100.864858 278.594651 
L 100.999346 275.616247 
L 101.133834 279.531812 
L 101.402811 275.960936 
L 101.537299 263.808116 
L 101.671787 276.131352 
L 101.940764 257.850908 
L 102.075252 265.307452 
L 102.20974 264.328842 
L 102.344228 265.25325 
L 102.478717 268.940695 
L 102.613205 278.007094 
L 102.747693 269.665358 
L 102.882181 280.588817 
L 103.016669 249.81409 
L 103.285646 272.098636 
L 103.823599 254.556355 
L 103.958087 223.822451 
L 104.092575 164.267002 
L 104.227063 170.256964 
L 104.361552 151.510659 
L 104.49604 173.946938 
L 104.765016 141.625063 
L 105.033993 162.320186 
L 105.302969 185.565966 
L 105.706434 266.218034 
L 105.97541 251.215256 
L 106.244387 288.29975 
L 106.513363 278.884662 
L 106.647851 277.762163 
L 106.782339 281.542345 
L 106.916828 279.604559 
L 107.051316 281.264563 
L 107.320292 221.000148 
L 107.589269 257.47727 
L 107.723757 247.896908 
L 107.858245 249.13293 
L 107.992733 248.089122 
L 108.127222 248.372242 
L 108.530686 238.613788 
L 108.665174 244.721647 
L 108.934151 282.509407 
L 109.203127 277.292604 
L 109.337615 275.45847 
L 109.472104 268.360608 
L 109.606592 272.42924 
L 110.144545 274.286861 
L 110.279033 274.700813 
L 110.413521 273.097289 
L 110.548009 273.177262 
L 110.682498 273.408193 
L 110.951474 270.188072 
L 111.085962 270.495251 
L 111.22045 273.272221 
L 111.354939 273.046649 
L 111.758403 264.843216 
L 111.892891 266.446582 
L 112.161868 271.122075 
L 112.296356 270.954769 
L 112.565333 271.216651 
L 112.699821 253.917804 
L 112.968797 266.672926 
L 113.103285 266.016598 
L 113.237774 267.729063 
L 113.372262 267.196811 
L 113.50675 270.242975 
L 113.641238 269.834109 
L 113.775726 270.795527 
L 113.910215 266.830199 
L 114.044703 267.309559 
L 114.179191 264.328554 
L 114.313679 257.79646 
L 114.582656 260.929452 
L 114.717144 259.07357 
L 114.98612 247.347651 
L 115.120609 247.408584 
L 115.389585 259.76974 
L 115.524073 260.346435 
L 115.658561 259.977577 
L 115.79305 256.841056 
L 115.927538 258.859889 
L 116.062026 259.167732 
L 116.196514 255.383181 
L 116.331002 267.931397 
L 116.465491 262.573343 
L 116.599979 263.056782 
L 116.734467 242.75571 
L 117.003444 128.818119 
L 117.27242 83.953108 
L 117.406908 72.114441 
L 117.541396 72.774419 
L 117.675885 83.289306 
L 117.810373 83.945085 
L 117.944861 94.75977 
L 118.213837 126.532017 
L 118.482814 225.9203 
L 118.886279 254.587927 
L 119.020767 246.98954 
L 119.155255 248.949684 
L 119.289743 254.160373 
L 119.424231 251.825287 
L 119.55872 252.986874 
L 119.693208 257.014713 
L 119.827696 255.249253 
L 119.962184 235.31444 
L 120.231161 124.151235 
L 120.500137 91.327725 
L 120.769114 81.628546 
L 120.903602 88.46794 
L 121.03809 83.615121 
L 121.172578 86.652622 
L 121.441555 110.593976 
L 121.845019 229.452054 
L 121.979507 249.965818 
L 122.113996 239.346466 
L 122.248484 238.023194 
L 122.382972 244.603256 
L 122.51746 261.642651 
L 122.786437 253.279968 
L 122.920925 255.3497 
L 123.055413 251.785233 
L 123.189901 236.637126 
L 123.458878 127.547824 
L 123.727854 86.165561 
L 123.862342 81.831943 
L 123.996831 83.086064 
L 124.265807 105.67804 
L 124.400295 105.768339 
L 124.534783 106.506629 
L 124.669272 117.782467 
L 125.072736 239.126669 
L 125.207225 262.422935 
L 125.610689 249.960943 
L 125.745177 269.78614 
L 126.148642 265.1781 
L 126.28313 245.868892 
L 126.417618 244.175014 
L 126.686595 131.71978 
L 126.955571 91.346207 
L 127.09006 77.772576 
L 127.224548 87.240328 
L 127.359036 116.058705 
L 127.493524 115.581531 
L 127.628012 113.421912 
L 127.896989 140.943215 
L 128.434942 259.999808 
L 128.56943 255.681662 
L 128.703918 246.391966 
L 128.838406 261.090128 
L 128.972894 256.519329 
L 129.107383 258.876932 
L 129.241871 263.701787 
L 129.376359 262.594281 
L 129.645336 228.912808 
L 129.914312 121.94946 
L 130.183288 85.950691 
L 130.317777 76.708483 
L 130.452265 96.13376 
L 130.586753 140.616169 
L 130.855729 115.884081 
L 130.990218 126.028773 
L 131.662659 264.022709 
L 131.931635 258.45263 
L 132.200612 257.540755 
L 132.469588 270.875444 
L 132.738564 266.733517 
L 132.873053 266.665208 
L 133.007541 253.940155 
L 133.142029 252.411895 
L 133.411005 244.522047 
L 133.545494 243.964389 
L 133.679982 241.454117 
L 133.81447 242.628624 
L 133.948958 241.338827 
L 134.083447 235.031288 
L 134.352423 244.680291 
L 134.621399 249.299067 
L 134.755888 254.633959 
L 134.890376 254.636659 
L 135.024864 252.728439 
L 135.428329 260.669298 
L 135.831793 266.258339 
L 135.966282 271.981274 
L 136.10077 270.373197 
L 136.235258 266.389089 
L 136.369746 269.586624 
L 136.504234 268.811608 
L 136.638723 261.970713 
L 136.773211 264.234307 
L 136.907699 263.032252 
L 137.042187 263.084951 
L 137.311164 250.530517 
L 137.58014 254.508194 
L 137.714628 250.226777 
L 137.983605 258.750312 
L 138.118093 259.242534 
L 138.252581 256.562107 
L 138.387069 256.538483 
L 138.521558 263.849299 
L 138.656046 257.538336 
L 138.790534 257.916331 
L 138.925022 264.292799 
L 139.05951 264.800949 
L 139.328487 236.508058 
L 139.597463 123.26705 
L 139.86644 84.426148 
L 140.000928 77.640987 
L 140.942345 163.912758 
L 141.076834 235.798199 
L 141.34581 249.939968 
L 141.480298 266.212461 
L 141.614786 257.140329 
L 141.749275 258.376835 
L 141.883763 264.127561 
L 142.018251 261.543588 
L 142.152739 262.532015 
L 142.287228 260.578702 
L 142.421716 231.238182 
L 142.556204 228.128891 
L 142.82518 118.541928 
L 143.094157 93.80355 
L 143.228645 88.784415 
L 143.363133 90.788456 
L 143.497621 104.148098 
L 143.63211 90.15289 
L 143.766598 97.354785 
L 143.901086 130.396238 
L 144.035574 135.650078 
L 144.304551 237.292924 
L 144.439039 235.443675 
L 144.708015 267.443944 
L 144.976992 258.801893 
L 145.11148 259.606339 
L 145.380456 264.653384 
L 145.514945 254.437279 
L 145.649433 222.234709 
L 145.783921 233.014864 
L 146.052897 126.881813 
L 146.321874 92.500855 
L 146.725339 131.046052 
L 146.859827 116.905542 
L 146.994315 129.061712 
L 147.128803 120.237527 
L 147.263291 139.932053 
L 147.532268 243.590454 
L 147.666756 248.469864 
L 147.935732 266.72506 
L 148.070221 258.476508 
L 148.339197 263.751747 
L 148.473685 261.469501 
L 148.608174 262.026916 
L 148.742662 260.073492 
L 148.87715 259.961331 
L 149.415103 103.449661 
L 149.549591 116.918253 
L 149.684079 108.102483 
L 149.818567 112.915793 
L 150.222032 158.458913 
L 150.35652 140.00744 
L 150.491009 148.293986 
L 150.759985 244.562052 
L 150.894473 245.447499 
L 151.028961 264.949723 
L 151.16345 267.219901 
L 151.297938 257.283226 
L 151.701402 264.949142 
L 151.835891 264.569675 
L 151.970379 265.555431 
L 152.104867 261.877784 
L 152.64282 102.040013 
L 152.777308 120.766523 
L 153.046285 103.821734 
L 153.180773 129.05777 
L 153.315261 121.649085 
L 153.449749 170.500343 
L 153.584237 165.316658 
L 154.12219 261.007254 
L 154.256678 275.163447 
L 154.391167 266.472592 
L 154.525655 270.42948 
L 154.660143 270.080445 
L 154.794631 271.412494 
L 154.92912 271.370769 
L 155.063608 272.438075 
L 155.332584 276.063738 
L 155.467072 274.281726 
L 155.601561 267.504786 
L 155.736049 252.534091 
L 155.870537 258.787962 
L 156.005025 256.905928 
L 156.139513 261.745023 
L 156.40849 258.314337 
L 156.677466 261.354039 
L 156.811955 258.500445 
L 157.080931 262.065936 
L 157.484396 268.955516 
L 157.618884 266.143111 
L 157.753372 267.402789 
L 158.022348 270.995381 
L 158.156837 270.800798 
L 158.291325 271.952225 
L 158.694789 278.517573 
L 158.829278 274.94504 
L 158.963766 276.394672 
L 159.098254 276.367977 
L 159.367231 273.363529 
L 159.501719 274.770271 
L 159.636207 272.209656 
L 159.905183 260.663994 
L 160.039672 262.53543 
L 160.17416 256.279046 
L 160.443136 259.974332 
L 160.577624 268.44435 
L 160.981089 260.434338 
L 161.250066 268.152529 
L 161.384554 266.644173 
L 161.519042 266.245681 
L 161.65353 266.816552 
L 161.922507 237.360381 
L 162.325971 97.157735 
L 162.460459 88.69281 
L 162.729436 90.994296 
L 162.863924 89.868174 
L 162.998412 111.364624 
L 163.132901 110.620755 
L 163.267389 120.65255 
L 163.536365 180.986764 
L 163.670853 240.637226 
L 163.805342 241.431168 
L 164.074318 261.23021 
L 164.343294 255.594413 
L 164.477783 273.709982 
L 164.612271 270.645369 
L 164.746759 271.113326 
L 165.150224 236.399281 
L 165.4192 130.71616 
L 165.553688 102.747751 
L 165.688177 125.685051 
L 165.822665 114.562048 
L 165.957153 113.425187 
L 166.091641 123.326808 
L 166.495106 104.189128 
L 166.629594 114.407072 
L 166.89857 238.375157 
L 167.033059 241.840622 
L 167.167547 238.217008 
L 167.302035 253.285794 
L 167.436523 249.739113 
L 167.571012 252.195705 
L 167.839988 262.553381 
L 167.974476 262.379838 
L 168.108964 263.012231 
L 168.243453 249.943064 
L 168.377941 225.431799 
L 168.781405 94.774331 
L 168.915894 111.219943 
L 169.050382 108.10104 
L 169.18487 110.175753 
L 169.319358 115.719927 
L 169.453847 95.219643 
L 169.588335 100.9704 
L 170.395264 264.559197 
L 170.66424 256.470947 
L 170.798729 260.953214 
L 170.933217 258.710118 
L 171.067705 259.64087 
L 171.202193 261.439103 
L 171.336681 265.781136 
L 171.47117 234.549155 
L 171.605658 229.882666 
L 172.009123 96.729932 
L 172.278099 113.989575 
L 172.547075 101.164029 
L 172.95054 138.907113 
L 173.085028 143.574382 
L 173.488493 245.973584 
L 173.757469 265.734414 
L 173.891958 264.90657 
L 174.026446 284.956938 
L 174.295422 270.587272 
L 174.564399 273.527341 
L 174.967863 222.232387 
L 175.102351 166.435529 
L 175.23684 161.642431 
L 175.505816 138.487042 
L 175.640304 144.3314 
L 175.774792 165.383317 
L 175.909281 159.227975 
L 176.043769 159.033349 
L 176.178257 170.252663 
L 176.312745 166.962388 
L 176.447234 191.169588 
L 176.581722 248.924084 
L 176.71621 249.081409 
L 176.850698 267.571698 
L 176.985186 270.493287 
L 177.119675 261.491244 
L 177.388651 268.08326 
L 177.523139 266.525123 
L 177.792116 273.186 
L 177.926604 273.049653 
L 178.061092 273.825933 
L 178.330069 260.526557 
L 178.464557 262.911422 
L 178.599045 254.066016 
L 178.733533 254.719513 
L 178.868021 256.021702 
L 179.00251 260.175947 
L 179.271486 253.969866 
L 179.405974 256.013952 
L 179.540462 252.607325 
L 179.674951 252.840233 
L 180.078415 271.033112 
L 180.212904 264.556771 
L 180.347392 263.941535 
L 180.48188 276.595979 
L 180.750856 273.260034 
L 180.885345 273.557769 
L 181.019833 274.61959 
L 181.154321 274.298764 
L 181.557786 262.638329 
L 181.692274 265.118761 
L 181.826762 263.131711 
L 181.96125 266.674783 
L 182.095738 257.728048 
L 182.499203 269.641168 
L 182.633691 269.757645 
L 182.76818 272.998501 
L 182.902668 270.489757 
L 183.037156 270.059817 
L 183.171644 276.909149 
L 183.306132 276.830215 
L 183.440621 277.576476 
L 183.709597 268.687487 
L 183.844085 287.812377 
L 184.113062 284.086582 
L 184.24755 278.670005 
L 184.382038 264.255299 
L 184.516526 262.875353 
L 184.785503 179.970885 
L 184.919991 190.066394 
L 185.054479 173.417266 
L 185.188967 188.881455 
L 185.323456 180.685078 
L 185.592432 187.974878 
L 185.72692 189.196681 
L 186.399361 260.317065 
L 186.668338 270.707518 
L 186.802826 273.640463 
L 187.071802 291.454057 
L 187.340779 282.481075 
L 187.475267 284.657105 
L 187.609755 278.824073 
L 187.744243 264.795511 
L 188.01322 183.092489 
L 188.147708 193.457401 
L 188.282196 178.477805 
L 188.551173 188.918923 
L 188.685661 193.463633 
L 188.820149 202.419196 
L 188.954637 193.366089 
L 189.089126 198.808528 
L 189.358102 238.471277 
L 189.627078 268.416901 
L 189.761567 267.254982 
L 189.896055 267.134928 
L 190.030543 273.915588 
L 190.165031 265.034681 
L 190.434008 268.61838 
L 190.568496 265.56049 
L 190.971961 271.391606 
L 191.106449 270.415095 
L 191.240937 262.90617 
L 191.509913 267.429395 
L 191.644402 259.490327 
L 191.77889 265.694987 
L 192.047866 263.322256 
L 192.182354 256.759771 
L 192.316843 255.797154 
L 192.451331 258.59025 
L 192.585819 256.955626 
L 192.720307 259.528729 
L 192.854796 269.672921 
L 193.25826 262.947292 
L 193.527237 261.535853 
L 193.796213 266.816885 
L 193.930701 266.545437 
L 194.199678 252.480891 
L 194.468654 173.959151 
L 194.603142 168.249937 
L 194.73763 148.08166 
L 194.872119 151.524599 
L 195.006607 144.255086 
L 195.275583 160.79069 
L 195.410072 146.176718 
L 195.679048 170.304878 
L 195.948024 239.578109 
L 196.082513 264.40086 
L 196.351489 260.066828 
L 196.485977 260.534783 
L 196.620465 276.702104 
L 196.889442 266.870901 
L 197.02393 267.455109 
L 197.158418 269.403297 
L 197.292907 265.064245 
L 197.427395 252.924073 
L 197.696371 180.421503 
L 197.830859 200.874061 
L 197.965348 193.650975 
L 198.099836 202.507388 
L 198.234324 198.894031 
L 198.368812 207.17153 
L 198.637789 186.269858 
L 198.906765 214.149464 
L 199.31023 277.485225 
L 199.579206 275.729154 
L 199.713694 277.280515 
L 199.848183 281.091395 
L 199.982671 277.648664 
L 200.117159 277.894996 
L 200.251647 278.497674 
L 200.386135 275.755539 
L 200.520624 268.085887 
L 200.655112 269.940764 
L 200.7896 250.558072 
L 200.924088 179.079607 
L 201.058576 210.542662 
L 201.193065 201.30802 
L 201.327553 204.958198 
L 201.462041 202.09606 
L 201.596529 206.61343 
L 201.865506 191.672339 
L 201.999994 197.695152 
L 202.537947 271.778221 
L 202.672435 270.674851 
L 202.941411 273.986973 
L 203.0759 262.381282 
L 203.210388 261.698592 
L 203.344876 270.403785 
L 203.479364 269.218665 
L 203.748341 259.90399 
L 203.882829 257.459531 
L 204.017317 231.934811 
L 204.151805 177.954733 
L 204.420782 163.593996 
L 204.55527 166.09198 
L 204.689758 163.426612 
L 204.824246 171.00869 
L 204.958735 163.816983 
L 205.093223 185.858481 
L 205.227711 187.999197 
L 205.900152 265.835659 
L 206.03464 261.408356 
L 206.169129 263.867238 
L 206.303617 288.637427 
L 206.438105 280.041378 
L 206.572593 279.816081 
L 206.707081 281.879629 
L 206.976058 280.584602 
L 207.379522 258.277703 
L 207.514011 256.572425 
L 207.648499 259.708842 
L 207.917475 271.669398 
L 208.051964 271.582436 
L 208.186452 269.622259 
L 208.455428 259.768766 
L 208.589916 264.403692 
L 208.724405 264.205199 
L 208.858893 274.587959 
L 208.993381 275.075126 
L 209.127869 279.15459 
L 209.396846 274.654954 
L 209.531334 262.979406 
L 209.665822 269.834521 
L 209.80031 269.957603 
L 209.934799 269.780941 
L 210.069287 271.951951 
L 210.203775 252.040097 
L 210.338263 254.510552 
L 210.60724 160.075481 
L 210.741728 150.93724 
L 211.010704 120.427081 
L 211.145192 105.715674 
L 211.279681 145.484463 
L 211.414169 145.102389 
L 211.683145 157.919125 
L 212.221098 263.038906 
L 212.490075 257.049137 
L 212.759051 269.842492 
L 212.893539 272.794553 
L 213.028027 268.367455 
L 213.162516 267.953852 
L 213.297004 273.093123 
L 213.56598 242.161705 
L 213.834957 132.141409 
L 213.969445 118.073591 
L 214.103933 146.977909 
L 214.238421 146.318663 
L 214.37291 150.186346 
L 214.776374 187.349233 
L 214.910862 188.128453 
L 215.045351 190.894753 
L 215.448815 268.543201 
L 215.583303 259.174116 
L 215.717792 265.978812 
L 215.85228 263.128785 
L 216.121256 268.186888 
L 216.255745 266.898579 
L 216.390233 267.917046 
L 216.524721 271.878791 
L 216.793697 248.381011 
L 217.062674 142.043526 
L 217.197162 130.898366 
L 217.33165 156.277478 
L 217.466138 160.033481 
L 217.600627 177.376748 
L 217.735115 169.686964 
L 217.869603 147.912055 
L 218.004091 160.630404 
L 218.273068 208.715729 
L 218.407556 213.896892 
L 218.542044 261.659153 
L 218.676532 261.542789 
L 218.945509 275.45901 
L 219.079997 254.274291 
L 219.348973 269.57681 
L 219.752438 275.895691 
L 220.021414 248.453882 
L 220.290391 140.938606 
L 220.424879 147.780812 
L 220.559367 163.083353 
L 220.828344 155.28179 
L 220.962832 175.109728 
L 221.09732 164.378817 
L 221.231808 196.500817 
L 221.500785 201.10221 
L 221.635273 210.838107 
L 221.769761 259.177919 
L 222.173226 274.791884 
L 222.307714 269.554866 
L 222.442202 270.476159 
L 222.711179 277.751826 
L 222.845667 277.290541 
L 222.980155 278.611509 
L 223.114643 275.194474 
L 223.249132 278.346083 
L 223.518108 250.62674 
L 223.652596 264.132811 
L 223.787084 263.166843 
L 224.056061 254.757378 
L 224.325037 256.93923 
L 224.459525 260.643448 
L 224.86299 252.57187 
L 225.131967 261.425508 
L 225.266455 261.768372 
L 225.400943 258.336064 
L 225.535431 260.49567 
L 225.669919 260.852672 
L 225.804408 258.470923 
L 226.073384 266.369952 
L 226.207872 269.979476 
L 226.34236 270.217772 
L 226.476849 271.569422 
L 226.611337 270.587186 
L 226.880313 266.352531 
L 227.014802 270.893315 
L 227.283778 270.106 
L 227.418266 268.071785 
L 227.552754 270.980149 
L 227.821731 269.652626 
L 227.956219 268.389085 
L 228.090707 268.570986 
L 228.225195 277.383127 
L 228.359684 275.234052 
L 228.494172 276.099186 
L 228.62866 274.64174 
L 228.897637 273.995987 
L 229.032125 269.207519 
L 229.301101 272.893211 
L 229.435589 272.55611 
L 229.570078 259.590898 
L 229.704566 234.069522 
L 230.10803 102.041805 
L 230.377007 97.243145 
L 230.511495 83.199092 
L 230.645983 127.144121 
L 230.780471 125.08857 
L 230.91496 127.09493 
L 231.183936 167.724964 
L 231.452913 248.48947 
L 231.587401 252.534169 
L 231.856377 265.227064 
L 231.990865 266.173184 
L 232.125354 268.460971 
L 232.259842 267.714615 
L 232.528818 273.029807 
L 232.663306 269.06949 
L 232.932283 239.214463 
L 233.201259 134.819252 
L 233.335748 115.550307 
L 233.470236 123.747701 
L 233.604724 146.091794 
L 233.739212 142.44447 
L 233.8737 162.259657 
L 234.008189 132.518032 
L 234.142677 146.560261 
L 234.411653 199.015775 
L 234.546141 210.619187 
L 234.815118 265.750844 
L 234.949606 268.36389 
L 235.084094 261.095835 
L 235.218583 268.397402 
L 235.353071 268.152202 
L 235.622047 278.240876 
L 235.891024 272.035706 
L 236.16 251.476195 
L 236.428976 137.531728 
L 236.563465 114.683453 
L 236.697953 129.679149 
L 236.832441 127.134096 
L 236.966929 117.62436 
L 237.235906 173.132039 
L 237.370394 159.643891 
L 237.504882 170.284738 
L 237.908347 259.16049 
L 238.042835 267.478238 
L 238.177323 268.078584 
L 238.311811 265.257498 
L 238.4463 268.890075 
L 238.580788 269.12643 
L 238.715276 272.248992 
L 238.984252 282.339617 
L 239.253229 269.058303 
L 239.387717 243.010304 
L 239.656694 140.220597 
L 239.791182 121.0888 
L 239.92567 124.207367 
L 240.060158 143.687421 
L 240.194646 144.995709 
L 240.463623 179.718872 
L 240.598111 179.21544 
L 240.867087 195.527544 
L 241.136064 253.577938 
L 241.270552 254.803037 
L 241.40504 262.399272 
L 241.539529 257.527576 
L 241.674017 260.611851 
L 241.808505 259.259271 
L 241.942993 278.680373 
L 242.077481 275.886805 
L 242.21197 284.118802 
L 242.346458 278.734009 
L 242.615434 244.309997 
L 242.884411 138.940474 
L 243.018899 133.998672 
L 243.153387 169.955688 
L 243.287875 163.654566 
L 243.422363 144.283463 
L 243.556852 160.957763 
L 243.69134 155.093306 
L 243.960316 179.625296 
L 244.229293 234.561621 
L 244.498269 260.762943 
L 244.632757 267.626541 
L 244.767246 267.145034 
L 244.901734 267.14987 
L 245.17071 275.203789 
L 245.305198 274.020028 
L 245.439687 274.415879 
L 245.574175 273.648502 
L 245.708663 271.744056 
L 245.843151 254.310471 
L 245.97764 268.063479 
L 246.515592 258.538553 
L 246.650081 260.656174 
L 247.053545 271.71994 
L 247.188033 269.603528 
L 247.322522 272.422681 
L 247.45701 272.474306 
L 247.591498 273.162705 
L 247.725986 272.469063 
L 247.860475 276.51293 
L 247.994963 273.909194 
L 248.263939 275.496021 
L 248.398427 274.034002 
L 248.532916 274.717796 
L 248.667404 273.444365 
L 248.801892 275.191599 
L 248.93638 273.846948 
L 249.070868 274.311864 
L 249.474333 276.723623 
L 249.608821 276.547455 
L 249.743309 276.093593 
L 249.877798 276.155275 
L 250.012286 275.975278 
L 250.281262 274.400769 
L 250.415751 274.992365 
L 250.684727 272.903353 
L 251.088192 274.905489 
L 251.357168 271.161312 
L 251.491656 270.758752 
L 251.626144 286.849207 
L 251.895121 278.94578 
L 252.029609 278.674577 
L 252.298586 258.725514 
L 252.567562 142.779051 
L 252.70205 127.605233 
L 252.836538 142.6926 
L 252.971027 181.008617 
L 253.105515 167.055163 
L 253.374491 181.088965 
L 253.508979 179.625187 
L 253.643468 173.512562 
L 254.181421 263.614102 
L 254.450397 281.07148 
L 254.719373 278.793882 
L 254.853862 284.358057 
L 254.98835 280.946976 
L 255.122838 282.351453 
L 255.257326 282.355807 
L 255.660791 186.905592 
L 255.795279 146.887225 
L 256.064255 175.328258 
L 256.333232 159.27835 
L 256.46772 167.585227 
L 256.602208 164.225415 
L 256.736697 165.860207 
L 257.005673 214.438788 
L 257.140161 222.839598 
L 257.274649 249.980646 
L 257.409138 253.392161 
L 257.543626 266.36007 
L 257.678114 259.789129 
L 257.812602 263.208764 
L 257.94709 263.045063 
L 258.081579 282.074081 
L 258.216067 281.658768 
L 258.485043 275.453474 
L 258.75402 251.664389 
L 259.022996 149.546036 
L 259.157484 170.321573 
L 259.426461 173.259917 
L 259.560949 151.527754 
L 259.829925 183.208587 
L 259.964414 159.576704 
L 260.367878 218.317707 
L 260.636855 255.636485 
L 260.905831 264.264016 
L 261.040319 259.665464 
L 261.174808 259.976902 
L 261.309296 270.655991 
L 261.443784 268.795874 
L 261.578272 272.776256 
L 261.847249 264.091423 
L 261.981737 239.608826 
L 262.250713 146.632067 
L 262.385201 166.798709 
L 262.51969 165.129724 
L 262.654178 145.057086 
L 262.788666 148.644937 
L 262.923154 164.615608 
L 263.057643 154.923251 
L 263.326619 187.179655 
L 263.99906 254.242152 
L 264.133548 255.35763 
L 264.268036 255.111824 
L 264.402525 267.750557 
L 264.537013 259.305865 
L 264.671501 263.655997 
L 264.940478 261.32528 
L 265.074966 259.348906 
L 265.209454 244.670655 
L 265.747407 110.010699 
L 265.881895 110.966163 
L 266.016383 106.704474 
L 266.150871 125.522746 
L 266.419848 121.18587 
L 266.554336 128.644638 
L 266.823312 185.19361 
L 266.957801 240.347853 
L 267.226777 254.788981 
L 267.361265 255.040553 
L 267.495754 251.421855 
L 267.630242 274.04141 
L 267.76473 267.489679 
L 267.899218 268.13574 
L 268.033706 267.911807 
L 268.302683 275.500112 
L 268.437171 274.966633 
L 268.571659 270.132808 
L 268.706147 274.029094 
L 268.840636 274.297945 
L 268.975124 270.220108 
L 269.109612 270.89682 
L 269.378589 269.422794 
L 269.782053 257.14048 
L 269.916541 256.549406 
L 270.05103 254.288893 
L 270.320006 257.530276 
L 270.454494 258.647643 
L 270.588982 263.113284 
L 270.723471 263.720675 
L 270.857959 282.171971 
L 271.126935 273.92489 
L 271.261424 275.593738 
L 271.395912 275.642823 
L 271.5304 275.219936 
L 271.799376 277.176831 
L 271.933865 278.60918 
L 272.068353 275.820063 
L 272.202841 276.313955 
L 272.337329 275.763223 
L 272.471817 275.964107 
L 272.606306 274.79847 
L 272.740794 271.744489 
L 272.875282 274.864004 
L 273.144258 273.575848 
L 273.278747 270.531252 
L 273.413235 271.348489 
L 273.682211 275.634801 
L 273.8167 275.194159 
L 273.951188 274.323259 
L 274.085676 272.177282 
L 274.220164 291.722002 
L 274.623629 282.214728 
L 274.892605 256.9915 
L 275.161582 183.970037 
L 275.430558 153.35029 
L 275.565046 156.377901 
L 275.699535 155.374397 
L 275.834023 159.745252 
L 275.968511 193.168174 
L 276.102999 190.150437 
L 276.237487 200.791912 
L 276.506464 234.860358 
L 276.909928 271.429126 
L 277.044417 270.166225 
L 277.178905 276.232962 
L 277.313393 272.263074 
L 277.447881 282.21102 
L 277.58237 280.360031 
L 277.716858 283.636443 
L 277.851346 282.060851 
L 277.985834 275.249489 
L 278.120322 261.607749 
L 278.389299 204.724542 
L 278.523787 204.87501 
L 278.658275 185.321107 
L 278.792763 189.142346 
L 278.927252 181.702351 
L 279.06174 202.706054 
L 279.196228 195.490785 
L 279.330716 194.961968 
L 279.734181 240.352112 
L 280.003157 271.938144 
L 280.272134 274.911755 
L 280.406622 276.262803 
L 280.54111 256.957756 
L 280.944575 265.831829 
L 281.079063 263.943093 
L 281.213551 250.886371 
L 281.348039 252.973982 
L 281.751504 132.977955 
L 281.885992 120.806611 
L 282.289457 156.505685 
L 282.423945 123.572902 
L 282.692922 152.689743 
L 283.230874 260.7756 
L 283.365363 262.935341 
L 283.499851 258.959691 
L 283.634339 261.453053 
L 283.768827 258.105294 
L 283.903316 258.264386 
L 284.037804 258.733128 
L 284.172292 261.146579 
L 284.30678 260.324459 
L 284.575757 251.022285 
L 284.979221 149.650229 
L 285.113709 156.264273 
L 285.248198 140.868954 
L 285.382686 146.042571 
L 285.517174 145.327948 
L 285.651662 161.5105 
L 285.78615 156.724203 
L 285.920639 159.255508 
L 286.324103 248.45371 
L 286.458592 261.660035 
L 286.59308 259.272279 
L 286.727568 261.155782 
L 286.862056 256.843074 
L 286.996544 290.875043 
L 287.265521 272.73402 
L 287.400009 274.533828 
L 287.803474 268.782453 
L 287.937962 271.816488 
L 288.07245 270.23854 
L 288.206938 270.6805 
L 288.341427 267.038587 
L 288.475915 268.934303 
L 288.610403 265.029346 
L 288.744891 266.267045 
L 288.879379 264.914926 
L 289.013868 270.904044 
L 289.148356 269.378543 
L 289.282844 262.561383 
L 289.417332 274.136009 
L 289.55182 275.330389 
L 289.686309 274.928335 
L 289.955285 272.627557 
L 290.089773 276.143313 
L 290.224262 273.699391 
L 290.35875 276.403292 
L 290.493238 274.829241 
L 290.627726 276.349169 
L 290.762214 273.886596 
L 290.896703 265.732562 
L 291.031191 266.140817 
L 291.165679 250.002033 
L 291.300167 178.809661 
L 291.569144 187.8904 
L 291.83812 200.660623 
L 292.107096 176.551768 
L 292.510561 205.080438 
L 292.914026 268.783149 
L 293.048514 267.813371 
L 293.183002 270.048869 
L 293.31749 269.383327 
L 293.451979 266.490209 
L 293.586467 268.045517 
L 293.720955 266.625149 
L 293.855443 270.471815 
L 293.989931 270.1242 
L 294.12442 260.041134 
L 294.258908 259.300499 
L 294.393396 236.346609 
L 294.527884 180.203128 
L 294.662373 181.787423 
L 294.796861 157.353106 
L 294.931349 153.118724 
L 295.065837 137.076321 
L 295.200325 142.717754 
L 295.334814 160.302944 
L 295.469302 149.564118 
L 295.60379 186.356583 
L 295.738278 192.312671 
L 295.872766 205.953999 
L 296.141743 263.549623 
L 296.276231 261.804514 
L 296.410719 255.983313 
L 296.545208 265.428103 
L 296.679696 292.319777 
L 296.948672 279.702766 
L 297.08316 279.122528 
L 297.352137 279.808251 
L 297.486625 279.895469 
L 297.621113 280.513888 
L 297.755601 279.482288 
L 297.89009 279.867128 
L 298.159066 276.355915 
L 298.293554 278.910607 
L 298.428042 278.553081 
L 298.562531 277.119375 
L 298.965995 269.660335 
L 299.100484 269.078207 
L 299.234972 269.891943 
L 299.36946 274.760818 
L 299.503948 275.28756 
L 299.638436 272.663808 
L 299.772925 275.575969 
L 299.907413 254.749638 
L 300.041901 268.905213 
L 300.176389 268.293548 
L 300.310877 269.381153 
L 300.445366 268.449025 
L 300.714342 250.161393 
L 300.983319 162.958206 
L 301.386783 121.716588 
L 301.521271 129.949457 
L 301.65576 156.493722 
L 301.790248 138.629852 
L 301.924736 155.436229 
L 302.193712 200.093749 
L 302.328201 211.646738 
L 302.597177 255.375209 
L 302.731665 259.821852 
L 302.866153 254.278457 
L 303.13513 268.525932 
L 303.269618 263.85094 
L 303.404106 263.328719 
L 303.538595 268.000949 
L 303.673083 266.700645 
L 303.807571 244.688401 
L 303.942059 243.00629 
L 304.211036 153.087254 
L 304.345524 164.198932 
L 304.748988 153.64286 
L 304.883477 169.936813 
L 305.017965 152.79018 
L 305.152453 164.673716 
L 305.42143 213.243359 
L 305.555918 215.695353 
L 305.824894 257.449658 
L 305.959382 268.00595 
L 306.093871 261.481641 
L 306.228359 264.743151 
L 306.362847 263.573697 
L 306.497335 278.482619 
L 306.766312 273.631972 
L 306.9008 273.378268 
L 307.035288 264.042309 
L 307.169776 246.051402 
L 307.438753 145.074563 
L 307.707729 173.874821 
L 307.976706 156.092865 
L 308.111194 170.107285 
L 308.245682 157.428127 
L 308.38017 164.636406 
L 309.052611 267.382062 
L 309.187099 269.076962 
L 309.321588 267.794977 
L 309.456076 271.062864 
L 309.590564 271.152177 
L 309.725052 274.755901 
L 309.859541 273.001511 
L 309.994029 274.26592 
L 310.128517 273.161998 
L 310.263005 265.624614 
L 310.397493 241.864503 
L 310.66647 146.885079 
L 310.935446 173.097376 
L 311.069934 170.940398 
L 311.204423 157.630804 
L 311.338911 169.386919 
L 311.473399 169.262294 
L 311.607887 159.295606 
L 311.742376 178.293249 
L 311.876864 218.786358 
L 312.011352 222.271239 
L 312.280328 261.619515 
L 312.414817 263.9976 
L 312.549305 262.411 
L 312.818281 269.57476 
L 312.952769 271.923609 
L 313.087258 269.235017 
L 313.221746 271.856064 
L 313.356234 270.825418 
L 313.490722 272.668059 
L 313.894187 249.552607 
L 314.028675 260.100335 
L 314.163163 256.215618 
L 314.297652 259.813372 
L 314.43214 255.48116 
L 314.566628 263.451856 
L 314.701116 264.634409 
L 314.835604 263.965217 
L 315.104581 268.179361 
L 315.373557 265.217369 
L 315.508045 269.092455 
L 315.642534 268.732792 
L 315.777022 268.941058 
L 315.91151 268.133074 
L 316.045998 270.139579 
L 316.180487 270.404214 
L 316.314975 271.74598 
L 316.449463 270.410529 
L 316.583951 271.796692 
L 316.718439 271.896072 
L 316.852928 273.274769 
L 316.987416 273.154385 
L 317.121904 271.577469 
L 317.256392 272.167821 
L 317.39088 270.704717 
L 317.525369 271.457751 
L 317.659857 269.228519 
L 317.794345 271.435968 
L 318.063322 267.726085 
L 318.466786 263.83086 
L 318.601274 265.854033 
L 318.735763 265.027779 
L 318.870251 267.468987 
L 319.139227 264.803489 
L 319.273715 265.120652 
L 319.408204 283.686962 
L 319.67718 275.819667 
L 319.811668 275.769725 
L 319.946157 270.285151 
L 320.080645 255.544096 
L 320.349621 146.128132 
L 320.618598 124.666196 
L 320.887574 157.496742 
L 321.022062 170.95355 
L 321.15655 172.743519 
L 321.425527 188.766365 
L 321.560015 187.943448 
L 321.96348 264.23232 
L 322.097968 266.487109 
L 322.232456 261.030658 
L 322.366944 267.100262 
L 322.501433 266.424429 
L 322.635921 282.876947 
L 322.904897 277.171801 
L 323.039385 275.693304 
L 323.308362 261.824119 
L 323.577338 148.558336 
L 323.846315 177.834018 
L 324.115291 149.63955 
L 324.384268 161.51999 
L 324.518756 164.857099 
L 324.787732 199.053443 
L 324.92222 211.842788 
L 325.191197 262.16966 
L 325.325685 262.029092 
L 325.460173 259.443649 
L 325.594661 265.779047 
L 325.72915 265.835028 
L 325.863638 278.639049 
L 326.132614 277.918763 
L 326.267103 276.181012 
L 326.401591 269.635747 
L 326.536079 254.687319 
L 326.805055 141.628627 
L 327.074032 179.78971 
L 327.20852 160.813988 
L 327.343008 159.107833 
L 327.477496 175.378051 
L 327.746473 166.440263 
L 327.880961 174.914826 
L 328.149937 219.731689 
L 328.553402 261.864478 
L 328.822379 269.934581 
L 328.956867 269.960102 
L 329.091355 284.778404 
L 329.360331 277.600049 
L 329.49482 275.226071 
L 329.763796 255.114702 
L 330.032772 155.386613 
L 330.301749 176.47664 
L 330.570725 159.750889 
L 330.705214 158.629057 
L 330.97419 191.81992 
L 331.108678 188.86531 
L 331.243166 193.266816 
L 331.646631 261.285841 
L 331.781119 262.55219 
L 331.915607 260.271811 
L 332.050096 262.524917 
L 332.184584 268.121765 
L 332.319072 283.228842 
L 332.588049 273.838243 
L 332.722537 275.340231 
L 332.991513 253.859575 
L 333.26049 150.447746 
L 333.529466 184.339053 
L 333.663954 165.528356 
L 333.798442 163.248437 
L 334.067419 175.458111 
L 334.336395 189.5027 
L 334.470883 195.233115 
L 334.73986 256.549968 
L 335.008836 266.142143 
L 335.277813 274.657539 
L 335.546789 271.410188 
L 335.681277 271.485429 
L 335.815766 270.980827 
L 336.084742 274.032153 
L 336.757183 253.327628 
L 336.891671 257.075508 
L 337.02616 255.378158 
L 337.295136 260.186544 
L 337.564112 264.929447 
L 337.833089 267.618773 
L 337.967577 266.317678 
L 338.102065 270.487745 
L 338.236553 270.975052 
L 338.640018 265.265092 
L 338.908995 268.788294 
L 339.043483 268.510477 
L 339.581436 272.361336 
L 339.850412 270.24459 
L 339.9849 271.800984 
L 340.119388 271.135758 
L 340.253877 271.628554 
L 340.388365 271.218816 
L 340.522853 273.355174 
L 340.657341 270.461771 
L 340.791829 271.459725 
L 340.926318 271.23295 
L 341.060806 270.782073 
L 341.195294 265.746679 
L 341.464271 271.981539 
L 341.733247 269.383726 
L 341.867735 271.953749 
L 342.002223 284.426334 
L 342.2712 276.891663 
L 342.405688 277.936852 
L 342.674664 258.57892 
L 342.943641 146.449425 
L 343.078129 136.278706 
L 343.347106 181.363914 
L 343.481594 174.946361 
L 343.885058 191.743526 
L 344.019547 192.128192 
L 344.154035 189.290495 
L 344.423011 254.703154 
L 344.557499 260.870228 
L 344.691988 261.38072 
L 344.960964 272.157121 
L 345.095452 271.565232 
L 345.22994 281.728982 
L 345.364429 279.71739 
L 345.498917 279.760764 
L 345.633405 278.371652 
L 345.902382 258.60834 
L 346.171358 156.800834 
L 346.305846 178.829387 
L 346.440334 177.054284 
L 346.709311 168.199636 
L 346.978287 181.333215 
L 347.112775 181.486375 
L 347.247264 181.419985 
L 347.919705 263.023469 
L 348.188681 270.393124 
L 348.323169 267.555731 
L 348.457658 282.613411 
L 348.592146 277.704832 
L 348.726634 278.652007 
L 348.861122 276.745625 
L 349.130099 254.638001 
L 349.399075 155.362712 
L 349.533563 175.327956 
L 349.80254 164.057964 
L 349.937028 162.423572 
L 350.340493 189.376207 
L 350.474981 188.759543 
L 350.878445 244.805267 
L 351.147422 268.118293 
L 351.28191 266.724657 
L 351.550886 271.148508 
L 351.685375 285.768343 
L 351.954351 276.160434 
L 352.088839 276.091226 
L 352.223328 273.31527 
L 352.357816 259.217275 
L 352.626792 154.111242 
L 352.76128 181.485624 
L 352.895769 175.17163 
L 353.030257 174.586458 
L 353.164745 164.333826 
L 353.299233 177.53992 
L 353.433721 174.568508 
L 353.702698 149.540545 
L 354.106163 252.812678 
L 354.240651 272.802405 
L 354.375139 272.804849 
L 354.509627 270.22176 
L 354.644115 271.693464 
L 354.913092 278.832909 
L 355.04758 277.152705 
L 355.182068 277.14118 
L 355.316556 276.625565 
L 355.451045 271.421413 
L 355.585533 254.32874 
L 355.854509 181.388565 
L 355.988998 185.590755 
L 356.257974 148.113657 
L 356.795927 186.716426 
L 356.930415 183.325649 
L 357.199391 231.411013 
L 357.468368 275.130114 
L 357.602856 273.434625 
L 357.737344 274.205333 
L 357.871832 276.145799 
L 358.006321 281.221135 
L 358.275297 277.147175 
L 358.409785 277.873592 
L 358.544274 277.469556 
L 358.81325 275.844999 
L 359.082226 259.678569 
L 359.216715 256.823261 
L 359.351203 256.752537 
L 359.485691 253.545072 
L 359.620179 246.390713 
L 359.754667 263.877176 
L 359.889156 264.68941 
L 360.023644 263.011567 
L 360.427109 279.047053 
L 360.561597 276.097589 
L 360.696085 276.079642 
L 360.830573 278.304696 
L 361.09955 279.020895 
L 361.234038 278.845795 
L 361.368526 278.869041 
L 361.503014 277.735595 
L 361.637502 279.425788 
L 361.906479 277.39809 
L 362.040967 279.93429 
L 362.175455 279.536242 
L 362.444432 280.907083 
L 362.57892 278.027445 
L 362.713408 277.534445 
L 362.847896 278.325285 
L 363.116873 276.34852 
L 363.251361 273.335645 
L 363.385849 273.430795 
L 363.520337 275.529817 
L 363.654826 273.514224 
L 363.789314 273.631085 
L 364.05829 275.544768 
L 364.192778 275.925554 
L 364.327267 219.789623 
L 364.596243 254.138052 
L 364.730731 253.749752 
L 364.86522 258.028479 
L 364.999708 253.635915 
L 365.268684 199.204518 
L 365.537661 117.608355 
L 365.806637 104.68611 
L 365.941125 101.36136 
L 366.210102 127.179506 
L 366.479078 117.216543 
L 366.613566 138.081997 
L 366.882543 239.539259 
L 367.151519 260.037697 
L 367.286007 258.664244 
L 367.420496 249.804646 
L 367.554984 265.237023 
L 367.689472 266.169629 
L 367.82396 263.946381 
L 368.092937 269.900686 
L 368.227425 236.32165 
L 368.361913 231.054098 
L 368.765378 98.499317 
L 368.899866 101.529203 
L 369.168842 90.868263 
L 369.303331 99.525392 
L 369.437819 97.624728 
L 369.572307 103.167316 
L 369.706795 99.37573 
L 369.841283 124.448692 
L 370.11026 238.529901 
L 370.244748 233.922821 
L 370.513724 256.292799 
L 370.648213 259.295869 
L 370.782701 292.207263 
L 371.051677 274.988573 
L 371.186166 276.265183 
L 371.320654 275.012923 
L 371.58963 250.094083 
L 371.858607 152.800986 
L 371.993095 158.940552 
L 372.262071 223.504073 
L 372.396559 205.81041 
L 372.531048 206.190705 
L 372.800024 189.54513 
L 372.934512 199.620822 
L 373.069001 229.422605 
L 373.203489 227.213489 
L 373.472465 259.771692 
L 373.606953 260.175387 
L 373.87593 266.127469 
L 374.144906 291.54076 
L 374.279394 283.591941 
L 374.413883 283.35115 
L 374.548371 281.690914 
L 374.817347 254.714372 
L 375.086324 189.929361 
L 375.3553 170.915505 
L 375.624277 179.936156 
L 375.758765 182.776755 
L 375.893253 192.005896 
L 376.027741 192.806995 
L 376.162229 200.649466 
L 376.296718 227.689458 
L 376.431206 232.160261 
L 376.700182 264.873339 
L 376.83467 266.019431 
L 376.969159 264.120462 
L 377.103647 266.525223 
L 377.238135 286.318783 
L 377.372623 276.086443 
L 377.507112 275.755877 
L 377.6416 277.548749 
L 377.776088 272.502636 
L 377.910576 280.202945 
L 378.179553 274.179813 
L 378.314041 256.386097 
L 378.448529 263.168963 
L 378.583017 250.963586 
L 378.717505 258.72902 
L 378.851994 257.512796 
L 378.986482 267.073894 
L 379.12097 262.32731 
L 379.255458 263.90513 
L 379.389947 267.358154 
L 379.524435 265.070071 
L 379.793411 273.07851 
L 379.927899 273.531755 
L 380.062388 276.680851 
L 380.196876 274.312352 
L 380.331364 276.184171 
L 380.465852 260.269634 
L 380.734829 269.692528 
L 380.869317 271.09173 
L 381.003805 270.677402 
L 381.138293 255.870947 
L 381.272782 257.765967 
L 381.676246 147.218206 
L 381.810734 146.583393 
L 381.945223 137.29273 
L 382.348687 155.869556 
L 382.483175 141.982253 
L 383.021128 255.697167 
L 383.290105 270.053431 
L 383.424593 266.222609 
L 383.559081 266.844781 
L 383.693569 258.368047 
L 384.231522 263.251888 
L 384.36601 259.784571 
L 384.500499 262.537881 
L 384.903963 162.60295 
L 385.038451 163.886296 
L 385.17294 145.37201 
L 385.307428 153.18226 
L 385.441916 186.150152 
L 385.710893 167.00256 
L 385.845381 202.467123 
L 385.979869 208.407811 
L 386.383334 268.792321 
L 386.517822 267.81783 
L 386.65231 272.381199 
L 386.786798 268.908131 
L 386.921286 281.626948 
L 387.190263 273.477025 
L 387.324751 276.211584 
L 387.459239 274.300375 
L 387.593727 274.615944 
L 387.728216 277.275154 
L 387.862704 274.850412 
L 387.997192 277.507138 
L 388.13168 274.557856 
L 388.266169 278.286673 
L 388.535145 272.146086 
L 388.669633 274.271046 
L 388.804121 273.210927 
L 388.93861 275.350144 
L 389.073098 269.55368 
L 389.611051 284.96724 
L 389.745539 279.997735 
L 389.880027 280.785426 
L 390.014515 280.526632 
L 390.149004 249.242494 
L 390.41798 265.909393 
L 390.552468 265.858916 
L 390.686956 265.632557 
L 390.821445 254.371387 
L 390.955933 259.357246 
L 391.090421 242.967887 
L 391.224909 171.407409 
L 391.359397 189.477359 
L 391.493886 154.054618 
L 391.628374 159.034019 
L 391.89735 187.958645 
L 392.031839 184.155597 
L 392.166327 170.558617 
L 392.435303 195.708108 
L 392.838768 273.364338 
L 392.973256 272.263528 
L 393.107744 268.822176 
L 393.242232 268.434558 
L 393.376721 255.688612 
L 393.511209 257.635464 
L 393.645697 269.512325 
L 393.780185 269.131842 
L 393.914673 260.093234 
L 394.049162 264.817848 
L 394.18365 249.578176 
L 394.452626 167.681699 
L 394.587115 158.457097 
L 394.721603 156.974959 
L 394.856091 142.864921 
L 395.125067 154.492866 
L 395.259556 152.78962 
L 395.394044 171.717151 
L 395.528532 166.945228 
L 395.797508 216.835563 
L 396.066485 258.617737 
L 396.200973 262.10794 
L 396.335461 260.224871 
L 396.46995 248.565307 
L 396.604438 295.488 
L 396.873414 279.188827 
L 397.007902 279.517177 
L 397.142391 280.956122 
L 397.411367 256.180421 
L 397.680343 170.738747 
L 397.814832 185.448821 
L 397.94932 165.375471 
L 398.083808 165.640123 
L 398.218296 151.478791 
L 398.352785 177.76745 
L 398.487273 167.91904 
L 398.487273 167.91904 
" clip-path="url(#pbfdfedec2d)" style="fill: none; stroke: #ff7f0e; stroke-width: 1.5; stroke-linecap: square"/>
   </g>
   <g id="patch_3">
    <path d="M 57.6 307.584 
L 57.6 41.472 
" style="fill: none; stroke: #000000; stroke-width: 0.8; stroke-linejoin: miter; stroke-linecap: square"/>
   </g>
   <g id="patch_4">
    <path d="M 414.72 307.584 
L 414.72 41.472 
" style="fill: none; stroke: #000000; stroke-width: 0.8; stroke-linejoin: miter; stroke-linecap: square"/>
   </g>
   <g id="patch_5">
    <path d="M 57.6 307.584 
L 414.72 307.584 
" style="fill: none; stroke: #000000; stroke-width: 0.8; stroke-linejoin: miter; stroke-linecap: square"/>
   </g>
   <g id="patch_6">
    <path d="M 57.6 41.472 
L 414.72 41.472 
" style="fill: none; stroke: #000000; stroke-width: 0.8; stroke-linejoin: miter; stroke-linecap: square"/>
   </g>
  </g>
 </g>
 <defs>
  <clipPath id="pbfdfedec2d">
   <rect x="57.6" y="41.472" width="357.12" height="266.112"/>
  </clipPath>
 </defs>
</svg>
