<?xml version="1.0" encoding="utf-8" standalone="no"?>
<!DOCTYPE svg PUBLIC "-//W3C//DTD SVG 1.1//EN"
  "http://www.w3.org/Graphics/SVG/1.1/DTD/svg11.dtd">
<svg xmlns:xlink="http://www.w3.org/1999/xlink" width="460.8pt" height="345.6pt" viewBox="0 0 460.8 345.6" xmlns="http://www.w3.org/2000/svg" version="1.1">
 <metadata>
  <rdf:RDF xmlns:dc="http://purl.org/dc/elements/1.1/" xmlns:cc="http://creativecommons.org/ns#" xmlns:rdf="http://www.w3.org/1999/02/22-rdf-syntax-ns#">
   <cc:Work>
    <dc:type rdf:resource="http://purl.org/dc/dcmitype/StillImage"/>
    <dc:date>2023-04-04T01:45:29.640265</dc:date>
    <dc:format>image/svg+xml</dc:format>
    <dc:creator>
     <cc:Agent>
      <dc:title>Matplotlib v3.5.2, https://matplotlib.org/</dc:title>
     </cc:Agent>
    </dc:creator>
   </cc:Work>
  </rdf:RDF>
 </metadata>
 <defs>
  <style type="text/css">*{stroke-linejoin: round; stroke-linecap: butt}</style>
 </defs>
 <g id="figure_1">
  <g id="patch_1">
   <path d="M 0 345.6 
L 460.8 345.6 
L 460.8 0 
L 0 0 
z
" style="fill: #ffffff"/>
  </g>
  <g id="axes_1">
   <g id="patch_2">
    <path d="M 57.6 307.584 
L 414.72 307.584 
L 414.72 41.472 
L 57.6 41.472 
z
" style="fill: #ffffff"/>
   </g>
   <g id="matplotlib.axis_1">
    <g id="xtick_1">
     <g id="line2d_1">
      <defs>
       <path id="m1520073985" d="M 0 0 
L 0 3.5 
" style="stroke: #000000; stroke-width: 0.8"/>
      </defs>
      <g>
       <use xlink:href="#m1520073985" x="73.832727" y="307.584" style="stroke: #000000; stroke-width: 0.8"/>
      </g>
     </g>
     <g id="text_1">
      <!-- 0 -->
      <g transform="translate(70.651477 322.182437)scale(0.1 -0.1)">
       <defs>
        <path id="DejaVuSans-30" d="M 2034 4250 
Q 1547 4250 1301 3770 
Q 1056 3291 1056 2328 
Q 1056 1369 1301 889 
Q 1547 409 2034 409 
Q 2525 409 2770 889 
Q 3016 1369 3016 2328 
Q 3016 3291 2770 3770 
Q 2525 4250 2034 4250 
z
M 2034 4750 
Q 2819 4750 3233 4129 
Q 3647 3509 3647 2328 
Q 3647 1150 3233 529 
Q 2819 -91 2034 -91 
Q 1250 -91 836 529 
Q 422 1150 422 2328 
Q 422 3509 836 4129 
Q 1250 4750 2034 4750 
z
" transform="scale(0.015625)"/>
       </defs>
       <use xlink:href="#DejaVuSans-30"/>
      </g>
     </g>
    </g>
    <g id="xtick_2">
     <g id="line2d_2">
      <g>
       <use xlink:href="#m1520073985" x="141.076834" y="307.584" style="stroke: #000000; stroke-width: 0.8"/>
      </g>
     </g>
     <g id="text_2">
      <!-- 500 -->
      <g transform="translate(131.533084 322.182437)scale(0.1 -0.1)">
       <defs>
        <path id="DejaVuSans-35" d="M 691 4666 
L 3169 4666 
L 3169 4134 
L 1269 4134 
L 1269 2991 
Q 1406 3038 1543 3061 
Q 1681 3084 1819 3084 
Q 2600 3084 3056 2656 
Q 3513 2228 3513 1497 
Q 3513 744 3044 326 
Q 2575 -91 1722 -91 
Q 1428 -91 1123 -41 
Q 819 9 494 109 
L 494 744 
Q 775 591 1075 516 
Q 1375 441 1709 441 
Q 2250 441 2565 725 
Q 2881 1009 2881 1497 
Q 2881 1984 2565 2268 
Q 2250 2553 1709 2553 
Q 1456 2553 1204 2497 
Q 953 2441 691 2322 
L 691 4666 
z
" transform="scale(0.015625)"/>
       </defs>
       <use xlink:href="#DejaVuSans-35"/>
       <use xlink:href="#DejaVuSans-30" x="63.623047"/>
       <use xlink:href="#DejaVuSans-30" x="127.246094"/>
      </g>
     </g>
    </g>
    <g id="xtick_3">
     <g id="line2d_3">
      <g>
       <use xlink:href="#m1520073985" x="208.32094" y="307.584" style="stroke: #000000; stroke-width: 0.8"/>
      </g>
     </g>
     <g id="text_3">
      <!-- 1000 -->
      <g transform="translate(195.59594 322.182437)scale(0.1 -0.1)">
       <defs>
        <path id="DejaVuSans-31" d="M 794 531 
L 1825 531 
L 1825 4091 
L 703 3866 
L 703 4441 
L 1819 4666 
L 2450 4666 
L 2450 531 
L 3481 531 
L 3481 0 
L 794 0 
L 794 531 
z
" transform="scale(0.015625)"/>
       </defs>
       <use xlink:href="#DejaVuSans-31"/>
       <use xlink:href="#DejaVuSans-30" x="63.623047"/>
       <use xlink:href="#DejaVuSans-30" x="127.246094"/>
       <use xlink:href="#DejaVuSans-30" x="190.869141"/>
      </g>
     </g>
    </g>
    <g id="xtick_4">
     <g id="line2d_4">
      <g>
       <use xlink:href="#m1520073985" x="275.565046" y="307.584" style="stroke: #000000; stroke-width: 0.8"/>
      </g>
     </g>
     <g id="text_4">
      <!-- 1500 -->
      <g transform="translate(262.840046 322.182437)scale(0.1 -0.1)">
       <use xlink:href="#DejaVuSans-31"/>
       <use xlink:href="#DejaVuSans-35" x="63.623047"/>
       <use xlink:href="#DejaVuSans-30" x="127.246094"/>
       <use xlink:href="#DejaVuSans-30" x="190.869141"/>
      </g>
     </g>
    </g>
    <g id="xtick_5">
     <g id="line2d_5">
      <g>
       <use xlink:href="#m1520073985" x="342.809153" y="307.584" style="stroke: #000000; stroke-width: 0.8"/>
      </g>
     </g>
     <g id="text_5">
      <!-- 2000 -->
      <g transform="translate(330.084153 322.182437)scale(0.1 -0.1)">
       <defs>
        <path id="DejaVuSans-32" d="M 1228 531 
L 3431 531 
L 3431 0 
L 469 0 
L 469 531 
Q 828 903 1448 1529 
Q 2069 2156 2228 2338 
Q 2531 2678 2651 2914 
Q 2772 3150 2772 3378 
Q 2772 3750 2511 3984 
Q 2250 4219 1831 4219 
Q 1534 4219 1204 4116 
Q 875 4013 500 3803 
L 500 4441 
Q 881 4594 1212 4672 
Q 1544 4750 1819 4750 
Q 2544 4750 2975 4387 
Q 3406 4025 3406 3419 
Q 3406 3131 3298 2873 
Q 3191 2616 2906 2266 
Q 2828 2175 2409 1742 
Q 1991 1309 1228 531 
z
" transform="scale(0.015625)"/>
       </defs>
       <use xlink:href="#DejaVuSans-32"/>
       <use xlink:href="#DejaVuSans-30" x="63.623047"/>
       <use xlink:href="#DejaVuSans-30" x="127.246094"/>
       <use xlink:href="#DejaVuSans-30" x="190.869141"/>
      </g>
     </g>
    </g>
    <g id="xtick_6">
     <g id="line2d_6">
      <g>
       <use xlink:href="#m1520073985" x="410.053259" y="307.584" style="stroke: #000000; stroke-width: 0.8"/>
      </g>
     </g>
     <g id="text_6">
      <!-- 2500 -->
      <g transform="translate(397.328259 322.182437)scale(0.1 -0.1)">
       <use xlink:href="#DejaVuSans-32"/>
       <use xlink:href="#DejaVuSans-35" x="63.623047"/>
       <use xlink:href="#DejaVuSans-30" x="127.246094"/>
       <use xlink:href="#DejaVuSans-30" x="190.869141"/>
      </g>
     </g>
    </g>
   </g>
   <g id="matplotlib.axis_2">
    <g id="ytick_1">
     <g id="line2d_7">
      <defs>
       <path id="m9df8faddf8" d="M 0 0 
L -3.5 0 
" style="stroke: #000000; stroke-width: 0.8"/>
      </defs>
      <g>
       <use xlink:href="#m9df8faddf8" x="57.6" y="279.363274" style="stroke: #000000; stroke-width: 0.8"/>
      </g>
     </g>
     <g id="text_7">
      <!-- 100 -->
      <g transform="translate(31.5125 283.162493)scale(0.1 -0.1)">
       <use xlink:href="#DejaVuSans-31"/>
       <use xlink:href="#DejaVuSans-30" x="63.623047"/>
       <use xlink:href="#DejaVuSans-30" x="127.246094"/>
      </g>
     </g>
    </g>
    <g id="ytick_2">
     <g id="line2d_8">
      <g>
       <use xlink:href="#m9df8faddf8" x="57.6" y="231.785258" style="stroke: #000000; stroke-width: 0.8"/>
      </g>
     </g>
     <g id="text_8">
      <!-- 200 -->
      <g transform="translate(31.5125 235.584476)scale(0.1 -0.1)">
       <use xlink:href="#DejaVuSans-32"/>
       <use xlink:href="#DejaVuSans-30" x="63.623047"/>
       <use xlink:href="#DejaVuSans-30" x="127.246094"/>
      </g>
     </g>
    </g>
    <g id="ytick_3">
     <g id="line2d_9">
      <g>
       <use xlink:href="#m9df8faddf8" x="57.6" y="184.207241" style="stroke: #000000; stroke-width: 0.8"/>
      </g>
     </g>
     <g id="text_9">
      <!-- 300 -->
      <g transform="translate(31.5125 188.00646)scale(0.1 -0.1)">
       <defs>
        <path id="DejaVuSans-33" d="M 2597 2516 
Q 3050 2419 3304 2112 
Q 3559 1806 3559 1356 
Q 3559 666 3084 287 
Q 2609 -91 1734 -91 
Q 1441 -91 1130 -33 
Q 819 25 488 141 
L 488 750 
Q 750 597 1062 519 
Q 1375 441 1716 441 
Q 2309 441 2620 675 
Q 2931 909 2931 1356 
Q 2931 1769 2642 2001 
Q 2353 2234 1838 2234 
L 1294 2234 
L 1294 2753 
L 1863 2753 
Q 2328 2753 2575 2939 
Q 2822 3125 2822 3475 
Q 2822 3834 2567 4026 
Q 2313 4219 1838 4219 
Q 1578 4219 1281 4162 
Q 984 4106 628 3988 
L 628 4550 
Q 988 4650 1302 4700 
Q 1616 4750 1894 4750 
Q 2613 4750 3031 4423 
Q 3450 4097 3450 3541 
Q 3450 3153 3228 2886 
Q 3006 2619 2597 2516 
z
" transform="scale(0.015625)"/>
       </defs>
       <use xlink:href="#DejaVuSans-33"/>
       <use xlink:href="#DejaVuSans-30" x="63.623047"/>
       <use xlink:href="#DejaVuSans-30" x="127.246094"/>
      </g>
     </g>
    </g>
    <g id="ytick_4">
     <g id="line2d_10">
      <g>
       <use xlink:href="#m9df8faddf8" x="57.6" y="136.629225" style="stroke: #000000; stroke-width: 0.8"/>
      </g>
     </g>
     <g id="text_10">
      <!-- 400 -->
      <g transform="translate(31.5125 140.428444)scale(0.1 -0.1)">
       <defs>
        <path id="DejaVuSans-34" d="M 2419 4116 
L 825 1625 
L 2419 1625 
L 2419 4116 
z
M 2253 4666 
L 3047 4666 
L 3047 1625 
L 3713 1625 
L 3713 1100 
L 3047 1100 
L 3047 0 
L 2419 0 
L 2419 1100 
L 313 1100 
L 313 1709 
L 2253 4666 
z
" transform="scale(0.015625)"/>
       </defs>
       <use xlink:href="#DejaVuSans-34"/>
       <use xlink:href="#DejaVuSans-30" x="63.623047"/>
       <use xlink:href="#DejaVuSans-30" x="127.246094"/>
      </g>
     </g>
    </g>
    <g id="ytick_5">
     <g id="line2d_11">
      <g>
       <use xlink:href="#m9df8faddf8" x="57.6" y="89.051209" style="stroke: #000000; stroke-width: 0.8"/>
      </g>
     </g>
     <g id="text_11">
      <!-- 500 -->
      <g transform="translate(31.5125 92.850428)scale(0.1 -0.1)">
       <use xlink:href="#DejaVuSans-35"/>
       <use xlink:href="#DejaVuSans-30" x="63.623047"/>
       <use xlink:href="#DejaVuSans-30" x="127.246094"/>
      </g>
     </g>
    </g>
    <g id="ytick_6">
     <g id="line2d_12">
      <g>
       <use xlink:href="#m9df8faddf8" x="57.6" y="41.473192" style="stroke: #000000; stroke-width: 0.8"/>
      </g>
     </g>
     <g id="text_12">
      <!-- 600 -->
      <g transform="translate(31.5125 45.272411)scale(0.1 -0.1)">
       <defs>
        <path id="DejaVuSans-36" d="M 2113 2584 
Q 1688 2584 1439 2293 
Q 1191 2003 1191 1497 
Q 1191 994 1439 701 
Q 1688 409 2113 409 
Q 2538 409 2786 701 
Q 3034 994 3034 1497 
Q 3034 2003 2786 2293 
Q 2538 2584 2113 2584 
z
M 3366 4563 
L 3366 3988 
Q 3128 4100 2886 4159 
Q 2644 4219 2406 4219 
Q 1781 4219 1451 3797 
Q 1122 3375 1075 2522 
Q 1259 2794 1537 2939 
Q 1816 3084 2150 3084 
Q 2853 3084 3261 2657 
Q 3669 2231 3669 1497 
Q 3669 778 3244 343 
Q 2819 -91 2113 -91 
Q 1303 -91 875 529 
Q 447 1150 447 2328 
Q 447 3434 972 4092 
Q 1497 4750 2381 4750 
Q 2619 4750 2861 4703 
Q 3103 4656 3366 4563 
z
" transform="scale(0.015625)"/>
       </defs>
       <use xlink:href="#DejaVuSans-36"/>
       <use xlink:href="#DejaVuSans-30" x="63.623047"/>
       <use xlink:href="#DejaVuSans-30" x="127.246094"/>
      </g>
     </g>
    </g>
   </g>
   <g id="line2d_13">
    <path d="M 73.832727 282.419686 
L 74.101704 281.873014 
L 74.236192 280.767777 
L 74.37068 281.72695 
L 74.505168 281.236896 
L 74.639657 281.835903 
L 74.774145 275.395743 
L 74.908633 248.412347 
L 75.177609 246.926486 
L 75.312098 247.479342 
L 75.446586 247.531678 
L 75.581074 248.394267 
L 75.715562 247.641583 
L 75.85005 247.619697 
L 76.253515 242.658262 
L 76.522492 276.552365 
L 76.65698 276.864001 
L 76.925956 275.165466 
L 77.060444 266.352114 
L 77.194933 268.58495 
L 77.463909 268.648229 
L 77.598397 270.224964 
L 77.732885 264.924298 
L 77.867374 251.581519 
L 78.405327 103.865576 
L 78.674303 102.948272 
L 78.808791 110.052145 
L 78.943279 105.272458 
L 79.481232 157.717705 
L 79.750209 227.755875 
L 80.019185 262.310837 
L 80.153673 264.424728 
L 80.288161 260.608496 
L 80.42265 270.954335 
L 80.557138 270.521851 
L 80.826114 273.017318 
L 80.960603 270.489498 
L 81.095091 260.225493 
L 81.364067 167.856104 
L 81.498555 180.097452 
L 81.767532 160.786487 
L 82.036508 168.750571 
L 82.170996 165.664661 
L 82.305485 159.718836 
L 83.112414 259.749713 
L 83.650367 285.806765 
L 83.784855 285.827223 
L 83.919343 287.348292 
L 84.053831 287.539556 
L 84.18832 285.452784 
L 84.322808 278.26327 
L 84.726273 188.567767 
L 84.860761 179.944727 
L 84.995249 184.021211 
L 85.129737 169.211602 
L 85.264225 177.711891 
L 85.398714 178.455535 
L 85.66769 186.711272 
L 85.802178 195.438508 
L 86.340131 261.865031 
L 86.474619 263.868066 
L 86.609107 268.754328 
L 86.878084 286.186913 
L 87.012572 288.426886 
L 87.14706 288.101928 
L 87.281549 289.585411 
L 87.416037 289.488827 
L 87.550525 288.681428 
L 87.819501 261.312175 
L 87.95399 261.457288 
L 88.088478 255.798834 
L 88.222966 257.251391 
L 88.357454 256.497279 
L 88.491942 253.155399 
L 88.626431 255.9763 
L 88.760919 249.016588 
L 88.895407 251.879833 
L 89.029895 251.878405 
L 89.164384 254.426684 
L 89.43336 275.623166 
L 89.567848 277.278405 
L 89.702336 276.782642 
L 89.836825 277.837447 
L 89.971313 262.762352 
L 90.105801 263.472217 
L 90.240289 265.008986 
L 90.374777 264.77966 
L 90.509266 266.009552 
L 90.643754 266.180357 
L 90.778242 268.269508 
L 90.91273 265.062274 
L 91.047218 255.172232 
L 91.181707 254.007046 
L 91.316195 247.109661 
L 91.450683 251.522522 
L 91.585171 249.566114 
L 91.71966 251.057209 
L 91.854148 251.282253 
L 92.123124 254.250645 
L 92.257612 253.680661 
L 92.526589 259.248716 
L 92.795565 265.814006 
L 92.930053 266.764615 
L 93.064542 265.629404 
L 93.19903 275.599853 
L 93.468006 275.724031 
L 93.602495 276.779788 
L 93.736983 275.551323 
L 93.871471 273.03968 
L 94.005959 267.84416 
L 94.6784 161.072431 
L 94.812888 156.694302 
L 95.081865 168.50269 
L 95.216353 163.308598 
L 95.350841 152.090653 
L 96.023282 264.193499 
L 96.157771 264.920016 
L 96.426747 268.830928 
L 96.561235 268.498834 
L 96.695723 268.57591 
L 96.830212 270.45096 
L 96.9647 269.815793 
L 97.099188 268.394162 
L 97.233676 259.960959 
L 97.368164 242.469377 
L 97.502653 201.613659 
L 97.637141 194.54642 
L 97.771629 179.136376 
L 97.906117 187.498213 
L 98.040606 180.812074 
L 98.175094 181.519083 
L 98.309582 176.221271 
L 98.44407 177.857004 
L 98.713047 189.180571 
L 98.982023 230.958828 
L 99.250999 265.669369 
L 99.385488 270.337248 
L 99.519976 271.088505 
L 99.654464 280.854845 
L 99.788952 280.867215 
L 99.923441 279.86998 
L 100.192417 281.103202 
L 100.326905 281.183609 
L 100.461393 280.531314 
L 100.595882 280.935727 
L 100.73037 281.761206 
L 100.864858 280.228718 
L 100.999346 281.380106 
L 101.133834 280.475648 
L 101.268323 278.26898 
L 101.402811 271.271205 
L 101.537299 275.526583 
L 101.806276 265.181219 
L 101.940764 267.333648 
L 102.075252 267.185681 
L 102.20974 267.831314 
L 102.344228 270.2007 
L 102.478717 275.996178 
L 102.613205 274.151102 
L 102.747693 279.799089 
L 102.882181 266.393982 
L 103.016669 266.422529 
L 103.151158 271.309743 
L 103.285646 271.09136 
L 103.554622 266.926856 
L 103.68911 262.75474 
L 103.823599 245.396852 
L 104.092575 183.371296 
L 104.227063 161.971655 
L 104.361552 169.108358 
L 104.630528 144.330679 
L 105.033993 159.588473 
L 105.168481 170.326355 
L 105.706434 253.066904 
L 105.840922 252.945105 
L 105.97541 261.610013 
L 106.109898 277.978278 
L 106.378875 281.155062 
L 106.513363 281.141264 
L 106.647851 283.289888 
L 106.782339 283.022499 
L 106.916828 284.12964 
L 107.320292 246.704296 
L 107.45478 253.740609 
L 107.589269 251.216595 
L 107.723757 251.308897 
L 108.26171 246.265627 
L 108.396198 242.871887 
L 108.530686 245.122803 
L 108.934151 276.609458 
L 109.068639 278.118633 
L 109.203127 277.05574 
L 109.337615 272.577697 
L 109.606592 274.120177 
L 109.875568 275.16832 
L 110.144545 276.213133 
L 110.413521 274.980387 
L 110.548009 274.846217 
L 110.951474 270.813029 
L 111.085962 271.981545 
L 111.22045 271.635653 
L 111.623915 265.864439 
L 111.758403 266.370193 
L 112.02738 270.135518 
L 112.430844 271.726051 
L 112.565333 261.529606 
L 112.834309 265.710762 
L 112.968797 266.231741 
L 113.103285 267.733779 
L 113.237774 267.911245 
L 113.50675 270.515666 
L 113.641238 271.34162 
L 114.313679 260.165069 
L 114.448168 259.805855 
L 114.582656 258.331412 
L 114.98612 247.55737 
L 115.524073 258.561214 
L 115.658561 259.108361 
L 115.927538 261.322166 
L 116.062026 260.045172 
L 116.196514 266.109466 
L 116.331002 265.694586 
L 116.465491 266.302157 
L 116.599979 256.600524 
L 117.137932 78.978467 
L 117.406908 64.363928 
L 117.810373 80.804987 
L 118.213837 147.605949 
L 118.482814 209.574412 
L 118.75179 243.802037 
L 118.886279 245.326913 
L 119.289743 253.273393 
L 119.424231 254.68313 
L 119.55872 257.437897 
L 119.693208 257.752863 
L 119.827696 248.193964 
L 120.365649 91.759825 
L 120.634625 73.303361 
L 120.769114 76.973054 
L 120.903602 70.591414 
L 121.03809 71.911704 
L 121.441555 134.968752 
L 121.710531 201.405743 
L 121.845019 229.419679 
L 122.248484 240.319802 
L 122.51746 255.744119 
L 122.651948 255.902554 
L 122.786437 257.631063 
L 122.920925 256.298403 
L 123.055413 248.185876 
L 123.727854 60.430653 
L 123.862342 53.568 
L 124.534783 107.38064 
L 125.072736 247.491237 
L 125.207225 252.631565 
L 125.341713 253.092121 
L 125.476201 253.04597 
L 125.745177 266.565263 
L 125.879666 267.993555 
L 126.014154 268.22193 
L 126.28313 254.850128 
L 126.821083 92.858877 
L 126.955571 74.616039 
L 127.09006 81.175144 
L 127.359036 105.567917 
L 127.493524 107.996299 
L 127.762501 126.384251 
L 127.896989 149.052321 
L 128.300453 245.8831 
L 128.434942 251.650983 
L 128.56943 249.834454 
L 128.703918 257.291356 
L 128.838406 258.011212 
L 129.241871 264.664997 
L 129.510847 244.076087 
L 130.0488 83.336137 
L 130.183288 74.281089 
L 130.317777 86.129443 
L 130.452265 114.783779 
L 130.586753 113.870757 
L 130.721241 110.244836 
L 130.855729 116.597453 
L 131.124706 169.557494 
L 131.393682 234.816929 
L 131.662659 257.782362 
L 131.931635 257.587292 
L 132.066123 257.406019 
L 132.3351 268.611594 
L 132.469588 268.464102 
L 132.604076 268.562588 
L 132.738564 268.521196 
L 133.007541 256.699962 
L 133.276517 246.301786 
L 133.679982 240.756568 
L 133.81447 239.581391 
L 133.948958 234.51243 
L 134.486911 244.331105 
L 134.755888 251.375982 
L 134.890376 251.261794 
L 135.697305 265.42006 
L 135.831793 270.142179 
L 135.966282 270.747847 
L 136.10077 268.777165 
L 136.235258 270.271591 
L 136.369746 269.998969 
L 136.504234 265.725036 
L 136.638723 265.567077 
L 136.907699 263.643973 
L 137.311164 252.82616 
L 137.445652 253.332865 
L 137.58014 250.666593 
L 137.983605 257.438848 
L 138.118093 256.542478 
L 138.252581 258.366144 
L 138.387069 262.830865 
L 138.521558 261.605255 
L 138.656046 261.805083 
L 138.925022 266.47201 
L 139.193999 250.326411 
L 139.731951 81.493441 
L 139.86644 72.630132 
L 140.269904 98.483551 
L 140.538881 122.76404 
L 140.673369 129.812247 
L 140.807857 144.086128 
L 141.076834 223.714599 
L 141.480298 256.704719 
L 142.018251 265.092724 
L 142.152739 264.631693 
L 142.421716 241.037754 
L 142.959669 91.432013 
L 143.094157 84.060275 
L 143.228645 83.575455 
L 143.363133 93.740022 
L 143.497621 84.521306 
L 143.63211 89.617387 
L 144.573527 257.945078 
L 144.708015 261.413992 
L 144.842504 261.588603 
L 145.11148 263.817633 
L 145.245968 265.948176 
L 145.380456 261.894529 
L 145.783921 201.091252 
L 146.052897 109.943667 
L 146.187386 90.93625 
L 146.456362 106.158836 
L 146.59085 117.413892 
L 146.725339 111.756865 
L 146.859827 119.127176 
L 146.994315 114.079624 
L 147.128803 126.863837 
L 147.532268 233.508533 
L 147.801244 259.374322 
L 147.935732 259.575577 
L 148.204709 264.817723 
L 148.339197 264.796313 
L 148.473685 265.297309 
L 148.742662 264.249641 
L 148.87715 246.65767 
L 149.280615 118.992054 
L 149.415103 114.973615 
L 149.549591 105.937598 
L 149.684079 107.186997 
L 150.087544 139.733691 
L 150.222032 132.079815 
L 150.35652 137.572221 
L 150.894473 251.832731 
L 151.028961 260.959146 
L 151.16345 260.006158 
L 151.835891 268.141047 
L 151.970379 266.874996 
L 152.104867 246.029164 
L 152.508332 113.011974 
L 152.64282 116.105496 
L 152.911796 104.31043 
L 153.046285 118.390193 
L 153.180773 116.896719 
L 153.449749 151.200468 
L 153.718726 191.946281 
L 153.987702 248.292926 
L 154.12219 265.260198 
L 154.256678 266.632348 
L 154.525655 270.475701 
L 154.794631 272.171381 
L 155.063608 275.101711 
L 155.198096 276.73554 
L 155.332584 276.09514 
L 155.467072 271.735566 
L 155.601561 261.310747 
L 155.736049 260.453867 
L 155.870537 257.602517 
L 156.005025 259.731157 
L 156.274002 257.843261 
L 156.40849 258.377087 
L 156.542978 259.624582 
L 156.677466 258.433705 
L 157.215419 266.403974 
L 157.349907 268.400347 
L 157.484396 267.413104 
L 157.618884 268.179585 
L 157.88786 271.340193 
L 158.022348 271.818828 
L 158.291325 274.803397 
L 158.560301 279.064008 
L 158.694789 277.505352 
L 158.829278 278.465001 
L 158.963766 278.070579 
L 159.232742 275.369575 
L 159.367231 275.650286 
L 159.501719 273.676274 
L 160.039672 259.661217 
L 160.308648 259.91909 
L 160.443136 265.610373 
L 160.577624 265.328235 
L 160.712113 263.382294 
L 160.846601 264.080739 
L 160.981089 265.565649 
L 161.250066 269.30433 
L 161.519042 270.251132 
L 161.788018 253.568377 
L 162.460459 83.760058 
L 162.594948 83.425108 
L 162.729436 81.973027 
L 162.998412 101.469071 
L 163.132901 110.370918 
L 163.401877 151.437407 
L 163.670853 221.8248 
L 164.074318 255.749353 
L 164.208806 256.876952 
L 164.477783 269.470853 
L 164.612271 271.820731 
L 164.746759 267.141433 
L 165.015735 249.717412 
L 165.4192 120.596861 
L 165.553688 123.183202 
L 165.822665 109.358458 
L 165.957153 114.588233 
L 166.091641 111.5185 
L 166.360618 100.12071 
L 166.495106 106.283966 
L 166.89857 220.929857 
L 167.033059 227.867208 
L 167.302035 246.166189 
L 167.974476 264.539391 
L 168.108964 258.893784 
L 168.243453 244.951046 
L 168.377941 207.062769 
L 168.646917 106.110782 
L 168.781405 107.3873 
L 168.915894 102.884041 
L 169.050382 104.177687 
L 169.18487 107.95443 
L 169.319358 92.702822 
L 169.453847 95.16879 
L 169.857311 148.279654 
L 170.126288 226.089218 
L 170.395264 256.751822 
L 170.529752 257.627257 
L 170.66424 261.047165 
L 170.798729 261.235574 
L 171.067705 263.551196 
L 171.202193 266.371621 
L 171.47117 244.692222 
L 172.009123 110.153011 
L 172.143611 108.584363 
L 172.412587 96.885405 
L 172.95054 129.225134 
L 173.622981 258.71156 
L 173.757469 262.680994 
L 173.891958 275.99475 
L 174.026446 275.07031 
L 174.160934 275.026538 
L 174.42991 276.549986 
L 174.698887 261.832202 
L 174.833375 244.793087 
L 175.102351 176.610459 
L 175.371328 143.40148 
L 175.505816 140.515873 
L 175.640304 150.632387 
L 175.774792 150.323605 
L 175.909281 151.72573 
L 176.043769 156.509223 
L 176.178257 156.202821 
L 176.312745 170.60659 
L 176.581722 237.942329 
L 176.850698 264.938571 
L 176.985186 262.456426 
L 177.254163 267.168553 
L 177.388651 267.125257 
L 177.792116 273.65296 
L 177.926604 274.539339 
L 178.19558 263.873775 
L 178.330069 263.435581 
L 178.599045 255.903981 
L 178.733533 255.341134 
L 178.868021 257.638676 
L 179.136998 254.144546 
L 179.271486 254.737844 
L 179.540462 252.263312 
L 179.809439 259.735915 
L 179.943927 266.973959 
L 180.212904 265.080829 
L 180.48188 274.904738 
L 180.616368 274.918536 
L 180.750856 275.289168 
L 180.885345 276.117026 
L 181.019833 276.203142 
L 181.692274 263.946094 
L 181.826762 265.236409 
L 181.96125 259.278214 
L 182.095738 261.052874 
L 182.364715 266.468204 
L 182.499203 267.740916 
L 182.633691 270.875356 
L 182.902668 270.06082 
L 183.171644 276.166031 
L 183.306132 277.576244 
L 183.440621 276.471006 
L 183.575109 274.178698 
L 183.844085 285.862907 
L 183.978573 286.810185 
L 184.113062 284.540714 
L 184.382038 273.201921 
L 184.919991 181.852605 
L 185.054479 185.851538 
L 185.188967 178.808088 
L 185.457944 182.652392 
L 185.592432 184.14539 
L 185.995897 221.744393 
L 186.264873 252.215258 
L 186.53385 267.906963 
L 186.802826 278.118633 
L 187.071802 288.572475 
L 187.206291 287.426796 
L 187.340779 288.556298 
L 187.475267 285.391884 
L 187.609755 277.426373 
L 188.01322 201.829187 
L 188.147708 185.497081 
L 188.282196 185.714989 
L 188.416684 184.760574 
L 188.551173 188.059158 
L 188.685661 194.434612 
L 188.820149 190.040782 
L 188.954637 194.457925 
L 189.089126 202.796448 
L 189.627078 264.545577 
L 189.761567 267.123829 
L 189.896055 272.33838 
L 190.030543 269.912377 
L 190.299519 271.736518 
L 190.434008 270.569905 
L 190.971961 273.980773 
L 191.106449 270.54231 
L 191.240937 270.058917 
L 191.375425 270.495683 
L 191.509913 266.084725 
L 191.644402 267.62768 
L 191.913378 266.366863 
L 192.182354 260.753133 
L 192.316843 261.100452 
L 192.451331 260.604214 
L 192.585819 261.919746 
L 192.720307 267.666694 
L 192.989284 268.919424 
L 193.392748 266.242684 
L 193.661725 269.113542 
L 193.796213 269.64594 
L 194.065189 261.789858 
L 194.603142 158.448028 
L 194.73763 153.55558 
L 194.872119 143.6427 
L 195.006607 145.212299 
L 195.141095 149.937748 
L 195.275583 142.567913 
L 195.54456 155.909265 
L 195.948024 249.56992 
L 196.217001 259.866279 
L 196.351489 261.785576 
L 196.485977 271.2222 
L 196.620465 270.572284 
L 196.889442 271.127044 
L 197.02393 272.251312 
L 197.158418 270.528036 
L 197.292907 264.23061 
L 197.830859 195.776312 
L 197.965348 198.079088 
L 198.099836 194.773843 
L 198.234324 199.161012 
L 198.5033 185.88627 
L 198.772277 199.633937 
L 199.31023 271.895904 
L 199.713694 280.97379 
L 199.848183 279.809556 
L 200.117159 280.534645 
L 200.251647 278.758082 
L 200.386135 273.001142 
L 200.520624 272.599583 
L 200.655112 259.690716 
L 200.7896 212.647001 
L 200.924088 210.684407 
L 201.058576 199.044922 
L 201.193065 198.688086 
L 201.327553 196.01325 
L 201.462041 198.177574 
L 201.731018 186.422474 
L 201.865506 187.778447 
L 202.134482 210.387521 
L 202.403459 263.657295 
L 202.806923 273.418877 
L 203.0759 264.979488 
L 203.210388 269.290056 
L 203.344876 269.415662 
L 203.748341 260.07467 
L 203.882829 242.753418 
L 204.151805 181.027603 
L 204.420782 164.617945 
L 204.55527 159.0104 
L 204.689758 162.434114 
L 204.824246 155.959222 
L 204.958735 171.922122 
L 205.093223 172.167624 
L 205.765664 259.496122 
L 205.900152 260.005206 
L 206.03464 263.790989 
L 206.169129 278.583946 
L 206.303617 279.063057 
L 206.572593 282.986816 
L 206.84157 283.795166 
L 207.110546 274.44228 
L 207.379522 265.293979 
L 207.514011 264.419495 
L 207.917475 272.506806 
L 208.051964 272.261303 
L 208.32094 265.924387 
L 208.589916 267.520154 
L 208.858893 275.541332 
L 208.993381 279.18105 
L 209.127869 279.762454 
L 209.262357 279.22054 
L 209.396846 273.387951 
L 209.531334 274.481294 
L 209.80031 274.067841 
L 209.934799 275.055085 
L 210.203775 262.919836 
L 211.010704 108.378826 
L 211.279681 133.904432 
L 211.683145 166.880755 
L 212.221098 254.190697 
L 212.355586 256.645247 
L 212.759051 271.828819 
L 212.893539 271.622331 
L 213.028027 271.722245 
L 213.162516 274.361397 
L 213.431492 256.723751 
L 213.56598 218.785516 
L 213.834957 135.178571 
L 213.969445 139.747012 
L 214.103933 138.659855 
L 214.238421 141.610168 
L 214.910862 179.789623 
L 215.448815 259.788726 
L 215.583303 264.73684 
L 215.717792 265.3525 
L 216.121256 269.599789 
L 216.255745 270.553728 
L 216.390233 272.93596 
L 216.524721 268.941785 
L 216.659209 261.449675 
L 217.062674 148.766853 
L 217.197162 150.672352 
L 217.33165 150.752759 
L 217.466138 162.178144 
L 217.600627 160.898771 
L 217.735115 149.084674 
L 217.869603 154.297321 
L 218.273068 196.343442 
L 218.542044 254.961937 
L 218.811021 271.702738 
L 218.945509 264.309114 
L 219.483462 274.992757 
L 219.61795 276.785021 
L 219.886926 263.081125 
L 220.290391 161.839389 
L 220.693856 150.218458 
L 220.828344 160.846435 
L 220.962832 156.938853 
L 221.231808 184.001229 
L 221.500785 197.820263 
L 221.769761 254.825864 
L 222.038738 270.406237 
L 222.173226 269.655931 
L 222.307714 270.876783 
L 222.576691 276.907297 
L 222.845667 279.537409 
L 222.980155 277.870752 
L 223.114643 279.737713 
L 223.38362 259.254425 
L 223.518108 263.106342 
L 223.652596 262.950286 
L 223.921573 256.011508 
L 224.190549 255.341134 
L 224.325037 257.822327 
L 224.459525 257.195725 
L 224.728502 253.348566 
L 225.131967 260.59565 
L 225.266455 259.11407 
L 225.535431 260.581852 
L 225.669919 259.272981 
L 226.073384 269.011725 
L 226.34236 272.033881 
L 226.476849 271.962038 
L 226.745825 268.824268 
L 226.880313 271.101827 
L 227.014802 271.344475 
L 227.14929 271.048064 
L 227.283778 269.631666 
L 227.418266 271.304985 
L 227.552754 271.433446 
L 227.687243 271.264544 
L 227.956219 270.157879 
L 228.090707 275.962397 
L 228.225195 276.001411 
L 228.359684 277.100939 
L 228.494172 276.3297 
L 228.62866 277.298864 
L 228.763148 277.184677 
L 228.897637 274.900932 
L 229.301101 275.803011 
L 229.435589 269.601217 
L 229.570078 255.544767 
L 230.242519 94.418485 
L 230.377007 79.609827 
L 230.511495 109.532593 
L 230.780471 117.468606 
L 231.049448 144.885438 
L 231.587401 253.390435 
L 231.856377 264.592203 
L 232.125354 269.397583 
L 232.39433 274.045479 
L 232.528818 273.233322 
L 232.797795 256.161854 
L 232.932283 219.960217 
L 233.201259 132.968097 
L 233.335748 124.807991 
L 233.470236 135.084843 
L 233.604724 135.306556 
L 233.739212 148.074117 
L 233.8737 133.365373 
L 234.008189 140.075301 
L 234.815118 264.011751 
L 234.949606 263.74579 
L 235.218583 269.638327 
L 235.622047 277.361191 
L 235.756535 276.764563 
L 236.025512 264.132599 
L 236.563465 128.820721 
L 236.832441 116.632661 
L 237.63937 200.164432 
L 237.908347 258.124447 
L 238.177323 266.197485 
L 238.849764 281.08655 
L 238.984252 280.26345 
L 239.118741 276.472434 
L 239.253229 262.59916 
L 239.791182 128.052336 
L 240.194646 145.752785 
L 240.463623 164.842037 
L 240.732599 178.27236 
L 241.270552 255.597579 
L 241.674017 261.46157 
L 241.942993 274.379477 
L 242.077481 280.866263 
L 242.21197 280.241564 
L 242.480946 262.308934 
L 242.884411 150.788443 
L 243.018899 158.645001 
L 243.153387 156.402649 
L 243.287875 145.445907 
L 243.422363 153.410943 
L 243.556852 150.604792 
L 243.825828 167.212374 
L 244.229293 239.059461 
L 244.498269 261.401145 
L 244.767246 266.66375 
L 245.17071 274.505558 
L 245.305198 275.368624 
L 245.439687 275.07364 
L 245.574175 273.847555 
L 245.708663 262.415509 
L 245.843151 267.852249 
L 246.112128 264.87672 
L 246.381104 259.708795 
L 246.515592 259.675491 
L 247.188033 269.895724 
L 247.322522 270.300138 
L 247.45701 271.165106 
L 247.591498 270.811601 
L 247.725986 273.967451 
L 247.860475 272.532974 
L 248.129451 273.853264 
L 248.263939 272.972119 
L 248.398427 273.65296 
L 248.532916 273.500235 
L 248.667404 275.440467 
L 248.801892 275.34198 
L 249.205357 276.876847 
L 249.339845 276.992937 
L 249.608821 276.047086 
L 249.743309 276.178402 
L 249.877798 275.879136 
L 250.550239 272.721859 
L 250.819215 273.021124 
L 250.953703 273.797598 
L 251.088192 272.664765 
L 251.357168 273.918922 
L 251.491656 282.79127 
L 251.626144 282.30312 
L 251.760633 282.732273 
L 251.895121 282.572887 
L 252.164097 270.36532 
L 252.70205 143.339153 
L 252.836538 163.01409 
L 252.971027 159.580384 
L 253.240003 172.449762 
L 253.374491 173.798599 
L 253.508979 170.882066 
L 253.777956 203.601468 
L 254.046932 254.801599 
L 254.315909 276.062787 
L 254.719373 284.39227 
L 254.853862 284.152953 
L 255.122838 285.880986 
L 255.391814 265.179792 
L 255.660791 172.240894 
L 255.795279 175.677455 
L 256.198744 160.05331 
L 256.333232 163.71539 
L 256.46772 161.059109 
L 256.602208 162.251414 
L 257.409138 257.036338 
L 257.812602 264.484677 
L 258.081579 279.643984 
L 258.216067 280.704498 
L 258.350555 279.977506 
L 258.619532 265.851117 
L 258.888508 177.030098 
L 259.022996 177.896493 
L 259.157484 168.871895 
L 259.291973 168.298104 
L 259.426461 152.861893 
L 259.695437 166.519162 
L 259.829925 155.422542 
L 259.964414 164.467122 
L 260.771343 260.097032 
L 261.040319 262.328441 
L 261.309296 269.803899 
L 261.443784 273.007803 
L 261.71276 270.102689 
L 261.847249 257.750484 
L 262.116225 169.86913 
L 262.250713 174.023167 
L 262.654178 147.67684 
L 262.788666 154.954374 
L 262.923154 150.199427 
L 263.326619 185.237305 
L 263.461107 196.100794 
L 263.864572 244.72172 
L 264.268036 262.707638 
L 264.402525 261.952575 
L 264.671501 265.371531 
L 264.805989 265.245925 
L 264.940478 264.298171 
L 265.074966 256.754201 
L 265.209454 237.698729 
L 265.612919 123.76746 
L 265.881895 105.71303 
L 266.016383 115.184386 
L 266.150871 115.054022 
L 266.28536 114.607264 
L 266.419848 119.223759 
L 266.688824 156.37886 
L 266.957801 234.938729 
L 267.226777 251.551069 
L 267.361265 250.133244 
L 267.495754 266.449173 
L 267.630242 266.134207 
L 267.76473 267.997362 
L 267.899218 268.30757 
L 268.168195 274.807679 
L 268.302683 275.689775 
L 268.437171 273.136263 
L 268.706147 275.664559 
L 268.975124 272.180897 
L 269.2441 270.302041 
L 269.916541 255.8545 
L 270.320006 257.738114 
L 270.588982 262.609627 
L 270.723471 276.663222 
L 270.857959 277.699946 
L 270.992447 276.226455 
L 271.126935 277.107124 
L 271.261424 277.136623 
L 271.395912 276.951069 
L 271.799376 279.720109 
L 271.933865 278.338919 
L 272.068353 278.6929 
L 272.202841 278.050121 
L 272.337329 278.285632 
L 272.471817 277.444928 
L 272.606306 275.285838 
L 272.740794 276.564735 
L 272.875282 276.243108 
L 273.00977 275.567976 
L 273.144258 273.240459 
L 273.278747 273.141021 
L 273.547723 276.110841 
L 273.682211 276.324466 
L 273.8167 277.006259 
L 273.951188 276.147 
L 274.085676 286.767841 
L 274.354652 288.39596 
L 274.489141 286.828265 
L 274.758117 272.14664 
L 275.29607 165.903503 
L 275.565046 153.694984 
L 275.699535 154.03136 
L 275.834023 171.944008 
L 275.968511 174.220616 
L 276.102999 184.353782 
L 276.77544 263.490296 
L 277.447881 280.85199 
L 277.58237 284.240972 
L 277.716858 283.850832 
L 277.851346 279.462236 
L 277.985834 269.500827 
L 278.389299 209.126703 
L 278.523787 189.683947 
L 278.658275 187.689952 
L 278.792763 178.195283 
L 278.927252 190.299131 
L 279.06174 184.491282 
L 279.196228 186.577578 
L 279.330716 194.25667 
L 280.137646 273.840894 
L 280.272134 276.222173 
L 280.406622 267.88365 
L 280.54111 267.600085 
L 280.810087 268.768601 
L 280.944575 268.146757 
L 281.213551 260.244524 
L 281.348039 231.355628 
L 281.482528 161.037699 
L 281.617016 150.850294 
L 281.751504 127.49948 
L 281.885992 128.648964 
L 282.154969 142.131147 
L 282.289457 124.051501 
L 282.423945 128.131316 
L 282.558433 137.222999 
L 282.82741 185.570827 
L 283.096386 253.988966 
L 283.365363 260.605641 
L 283.499851 262.808503 
L 283.634339 262.138605 
L 283.768827 262.149072 
L 283.903316 262.337957 
L 284.037804 263.640167 
L 284.172292 263.769103 
L 284.441268 258.585954 
L 285.113709 143.537553 
L 285.248198 142.463717 
L 285.382686 137.935717 
L 285.517174 147.159192 
L 285.651662 144.064242 
L 285.78615 147.546477 
L 286.055127 200.571224 
L 286.324103 250.049031 
L 286.59308 259.707844 
L 286.727568 259.58652 
L 286.862056 278.486887 
L 286.996544 278.545884 
L 287.131033 277.570059 
L 287.265521 278.174299 
L 287.668985 274.654953 
L 287.803474 275.530389 
L 288.07245 274.657332 
L 288.206938 272.490629 
L 288.341427 272.435439 
L 288.475915 270.094125 
L 288.610403 269.723968 
L 288.744891 268.602554 
L 288.879379 271.424406 
L 289.013868 271.763162 
L 289.148356 268.958913 
L 289.417332 276.097519 
L 289.55182 277.281736 
L 289.820797 276.921094 
L 289.955285 277.709462 
L 290.089773 276.213609 
L 290.224262 277.75704 
L 290.35875 276.852106 
L 290.493238 277.829834 
L 290.627726 276.291637 
L 291.031191 258.355201 
L 291.300167 192.323099 
L 291.434655 186.751714 
L 291.569144 187.357858 
L 291.703632 191.411505 
L 291.972608 178.69628 
L 292.376073 191.745502 
L 293.048514 267.961202 
L 293.183002 269.204892 
L 293.31749 268.055883 
L 293.451979 268.805712 
L 293.586467 267.878417 
L 293.720955 270.347716 
L 293.855443 270.610346 
L 294.258908 246.745689 
L 294.527884 188.893676 
L 294.796861 157.286172 
L 294.931349 141.454587 
L 295.065837 141.320893 
L 295.200325 149.274034 
L 295.334814 143.567527 
L 295.60379 171.558626 
L 295.738278 186.01473 
L 296.141743 256.051473 
L 296.276231 255.163668 
L 296.410719 262.345093 
L 296.545208 279.980837 
L 296.948672 282.138975 
L 297.486625 284.09919 
L 297.621113 283.754725 
L 297.755601 283.750919 
L 298.024578 280.586981 
L 298.159066 280.43711 
L 298.428042 278.301808 
L 298.697019 274.487955 
L 298.831507 273.356074 
L 298.965995 273.214291 
L 299.100484 273.568747 
L 299.36946 277.341208 
L 299.503948 276.836405 
L 299.638436 278.374603 
L 299.772925 268.747191 
L 299.907413 272.138076 
L 300.041901 271.837383 
L 300.176389 272.700924 
L 300.310877 272.418311 
L 300.579854 261.484407 
L 301.252295 127.830147 
L 301.386783 127.898659 
L 301.521271 141.046844 
L 301.65576 134.128049 
L 301.790248 143.511385 
L 302.597177 251.948821 
L 302.731665 253.695886 
L 303.000642 266.062364 
L 303.13513 266.28598 
L 303.269618 266.764615 
L 303.404106 269.215835 
L 303.538595 269.63357 
L 303.807571 253.329535 
L 304.345524 163.851939 
L 304.6145 153.364317 
L 304.748988 161.574379 
L 304.883477 152.033084 
L 305.017965 158.093096 
L 306.093871 264.518933 
L 306.228359 265.526159 
L 306.497335 275.647431 
L 306.766312 276.673689 
L 306.9008 271.981069 
L 307.035288 261.47727 
L 307.304265 169.311516 
L 307.438753 176.548608 
L 307.842217 157.35183 
L 307.976706 164.379103 
L 308.111194 155.98872 
L 308.245682 160.934455 
L 308.649147 206.781107 
L 309.052611 262.955995 
L 309.590564 275.145483 
L 309.994029 276.843066 
L 310.128517 273.301835 
L 310.263005 260.728392 
L 310.531982 169.200659 
L 310.66647 170.348241 
L 310.935446 168.066875 
L 311.069934 158.747293 
L 311.204423 165.180793 
L 311.338911 163.894283 
L 311.473399 157.143438 
L 311.607887 170.235481 
L 311.876864 207.685089 
L 312.14584 249.869186 
L 312.414817 261.634754 
L 312.818281 270.2164 
L 312.952769 269.783916 
L 313.087258 271.663248 
L 313.221746 271.564761 
L 313.356234 273.136263 
L 313.625211 262.615812 
L 313.759699 254.751166 
L 313.894187 258.09257 
L 314.028675 255.572363 
L 314.163163 257.449315 
L 314.297652 254.698355 
L 314.566628 261.23938 
L 314.701116 261.971606 
L 314.970093 266.708949 
L 315.104581 266.671362 
L 315.239069 266.375903 
L 315.508045 269.29862 
L 315.642534 269.833873 
L 315.777022 269.504633 
L 316.180487 272.484444 
L 316.314975 272.046251 
L 316.718439 274.392799 
L 316.852928 274.641156 
L 316.987416 273.790461 
L 317.121904 273.855643 
L 317.256392 272.739463 
L 317.39088 272.883624 
L 317.525369 271.349709 
L 317.659857 272.266061 
L 317.928833 269.754894 
L 318.332298 266.030486 
L 318.466786 266.682781 
L 318.601274 266.181785 
L 318.735763 267.63339 
L 318.870251 267.470197 
L 319.139227 268.583047 
L 319.273715 278.387449 
L 319.67718 279.502202 
L 319.811668 276.931562 
L 319.946157 269.002685 
L 320.349621 147.398509 
L 320.484109 131.298584 
L 320.887574 158.490848 
L 321.022062 163.14255 
L 321.291039 177.878414 
L 321.425527 179.673056 
L 321.560015 198.055299 
L 321.828991 253.408039 
L 321.96348 261.470134 
L 322.097968 262.254219 
L 322.635921 278.901767 
L 322.770409 279.247659 
L 322.904897 278.590607 
L 323.173874 268.19148 
L 323.44285 173.025456 
L 323.577338 173.386097 
L 323.711826 173.586877 
L 323.980803 153.47327 
L 324.249779 157.00118 
L 324.384268 159.758802 
L 324.787732 195.88812 
L 325.056709 250.239819 
L 325.325685 259.482324 
L 325.863638 277.248431 
L 325.998126 279.010245 
L 326.132614 279.075427 
L 326.267103 275.872475 
L 326.401591 266.90164 
L 326.670567 165.857352 
L 326.805055 171.794137 
L 326.939544 172.962653 
L 327.20852 159.777833 
L 327.343008 167.895594 
L 327.611985 164.153583 
L 327.746473 168.997977 
L 328.149937 223.521432 
L 328.418914 254.269201 
L 328.68789 267.039616 
L 328.822379 269.485126 
L 328.956867 279.499823 
L 329.225843 280.443771 
L 329.360331 279.599261 
L 329.629308 266.807435 
L 330.032772 178.073483 
L 330.301749 166.770374 
L 330.570725 157.989851 
L 330.839702 179.774398 
L 330.97419 180.982879 
L 331.108678 183.719567 
L 331.781119 259.363379 
L 332.050096 266.503888 
L 332.184584 277.244149 
L 332.319072 278.197137 
L 332.45356 277.534375 
L 332.588049 278.518764 
L 332.857025 265.951031 
L 333.26049 177.444026 
L 333.394978 179.347623 
L 333.663954 164.48425 
L 333.798442 165.672749 
L 333.932931 169.427606 
L 334.336395 187.234631 
L 334.73986 254.752593 
L 335.143325 270.430501 
L 335.277813 270.232577 
L 335.412301 270.329636 
L 335.546789 270.614153 
L 335.681277 270.509481 
L 335.950254 273.082976 
L 336.084742 270.995252 
L 336.622695 254.585595 
L 336.757183 255.377769 
L 336.891671 253.554579 
L 337.295136 259.891495 
L 337.698601 264.60838 
L 337.833089 264.130696 
L 338.102065 268.216696 
L 338.236553 267.985467 
L 338.371042 268.620634 
L 338.50553 266.293117 
L 339.043483 269.441354 
L 339.446947 272.427351 
L 339.581436 271.947289 
L 339.715924 270.782103 
L 339.850412 271.040452 
L 339.9849 270.263027 
L 340.119388 270.150743 
L 340.253877 269.678769 
L 340.388365 271.150833 
L 340.522853 269.168732 
L 340.657341 269.765361 
L 340.926318 269.448015 
L 341.060806 266.120885 
L 341.329782 270.986213 
L 341.464271 270.884871 
L 341.598759 271.41156 
L 341.733247 272.972595 
L 341.867735 280.767777 
L 342.136712 280.869118 
L 342.2712 281.508567 
L 342.540176 268.856621 
L 342.943641 154.077511 
L 343.212617 170.629427 
L 343.347106 169.897677 
L 343.75057 184.232933 
L 343.885058 185.90197 
L 344.019547 185.241587 
L 344.423011 252.893245 
L 345.22994 278.498306 
L 345.364429 279.578327 
L 345.498917 279.211976 
L 345.633405 275.009885 
L 345.767893 266.9535 
L 346.03687 182.992099 
L 346.171358 187.095703 
L 346.440334 173.577837 
L 346.574823 168.22531 
L 346.843799 175.079875 
L 347.112775 176.942078 
L 347.381752 211.30197 
L 347.650728 250.077578 
L 348.054193 267.976427 
L 348.188681 269.154459 
L 348.323169 278.091989 
L 348.457658 278.936975 
L 348.592146 280.801082 
L 348.726634 280.606488 
L 348.99561 267.745198 
L 349.264587 181.945382 
L 349.399075 183.414116 
L 349.668052 165.918252 
L 349.80254 161.820833 
L 350.206004 180.450481 
L 350.340493 181.626134 
L 351.012934 261.521994 
L 351.147422 263.834285 
L 351.550886 280.438061 
L 351.685375 279.728673 
L 351.954351 280.094072 
L 352.088839 278.70194 
L 352.223328 271.439631 
L 352.492304 177.883171 
L 352.626792 185.021301 
L 352.76128 173.694403 
L 352.895769 172.988345 
L 353.030257 164.741172 
L 353.164745 171.924976 
L 353.299233 169.855809 
L 353.56821 152.147747 
L 354.240651 268.117258 
L 354.375139 269.250567 
L 354.644115 275.090768 
L 354.913092 279.348525 
L 355.182068 280.386677 
L 355.316556 277.993503 
L 355.451045 268.900392 
L 355.854509 195.87908 
L 356.123486 157.692013 
L 356.257974 159.399112 
L 356.392462 167.976001 
L 356.52695 167.345117 
L 356.661439 177.910291 
L 356.795927 176.663747 
L 357.33388 263.823818 
L 357.602856 273.383669 
L 357.737344 275.340553 
L 357.871832 279.579278 
L 358.006321 279.003108 
L 358.140809 279.216734 
L 358.275297 279.953717 
L 358.409785 279.866174 
L 358.678762 278.611541 
L 359.082226 260.215501 
L 359.351203 254.332955 
L 359.485691 248.085962 
L 359.620179 258.777694 
L 359.754667 260.186479 
L 359.889156 260.353953 
L 360.427109 274.587393 
L 360.561597 275.264428 
L 360.965061 279.395627 
L 361.234038 279.356137 
L 361.368526 279.165349 
L 361.503014 280.465657 
L 361.771991 280.059816 
L 361.906479 281.38534 
L 362.040967 281.337762 
L 362.175455 281.711725 
L 362.309944 281.752166 
L 362.57892 278.352717 
L 362.713408 278.303712 
L 362.982385 277.173258 
L 363.116873 275.686445 
L 363.251361 275.585104 
L 363.385849 276.671786 
L 363.520337 275.821091 
L 363.654826 275.761618 
L 364.05829 278.53732 
L 364.192778 252.627283 
L 364.730731 258.861431 
L 364.86522 257.670553 
L 364.999708 245.633315 
L 365.134196 223.562349 
L 365.403172 135.553962 
L 365.672149 105.368089 
L 365.806637 99.46794 
L 366.075613 116.352426 
L 366.34459 113.219414 
L 366.479078 124.610542 
L 367.017031 250.549076 
L 367.151519 255.491004 
L 367.286007 253.762019 
L 367.554984 265.082257 
L 367.689472 265.945798 
L 367.958448 270.828254 
L 368.227425 247.34993 
L 368.496401 151.732391 
L 368.765378 100.033642 
L 369.034354 89.170154 
L 369.168842 93.87562 
L 369.303331 93.432668 
L 369.437819 96.789773 
L 369.572307 94.67493 
L 369.706795 110.728229 
L 370.244748 234.139894 
L 370.782701 278.205701 
L 370.917189 278.509724 
L 371.051677 279.398482 
L 371.186166 279.120626 
L 371.455142 264.348604 
L 371.858607 171.382587 
L 372.127583 203.264616 
L 372.262071 199.217154 
L 372.396559 200.639261 
L 372.665536 189.986067 
L 372.800024 193.76852 
L 373.203489 233.34772 
L 373.472465 255.533349 
L 373.87593 276.658464 
L 374.010418 285.64833 
L 374.144906 285.502741 
L 374.279394 286.705513 
L 374.413883 286.204041 
L 374.682859 269.695897 
L 375.220812 180.578942 
L 375.489788 176.961109 
L 375.624277 177.183299 
L 375.893253 183.698157 
L 376.027741 187.980654 
L 376.565694 255.351125 
L 376.83467 264.213482 
L 376.969159 267.041044 
L 377.103647 278.816127 
L 377.238135 277.72659 
L 377.507112 279.792903 
L 377.6416 277.833165 
L 377.776088 281.361551 
L 378.045064 279.221016 
L 378.179553 269.609781 
L 378.314041 268.986033 
L 378.448529 261.907376 
L 378.583017 262.905087 
L 378.717505 261.990637 
L 378.851994 266.488187 
L 378.986482 265.730269 
L 379.12097 266.635679 
L 379.255458 268.788584 
L 379.389947 268.672494 
L 379.927899 277.898823 
L 380.062388 277.69281 
L 380.196876 278.108166 
L 380.331364 268.228591 
L 380.60034 270.150267 
L 380.869317 271.800272 
L 381.138293 260.936308 
L 381.272782 233.920559 
L 381.541758 159.543749 
L 381.810734 139.439183 
L 381.945223 141.02591 
L 382.214199 147.494141 
L 382.348687 139.527202 
L 382.752152 189.241947 
L 383.021128 257.050612 
L 383.155616 264.956175 
L 383.290105 265.616558 
L 383.424593 266.900213 
L 383.559081 261.985403 
L 383.693569 261.275539 
L 383.962546 261.620956 
L 384.097034 262.808027 
L 384.231522 261.029085 
L 384.36601 262.417412 
L 385.038451 148.553703 
L 385.17294 150.990174 
L 385.307428 166.083348 
L 385.576404 160.454868 
L 386.248845 259.88864 
L 386.921286 278.338443 
L 387.055775 277.525811 
L 387.190263 278.79995 
L 387.324751 278.111021 
L 387.459239 278.271834 
L 387.593727 279.75722 
L 387.728216 279.184381 
L 387.862704 280.49801 
L 387.997192 279.331872 
L 388.13168 280.918124 
L 388.266169 279.936589 
L 388.400657 277.956392 
L 388.535145 278.045363 
L 388.669633 277.384504 
L 388.804121 278.520667 
L 388.93861 275.976195 
L 389.207586 278.111021 
L 389.476562 284.783837 
L 389.611051 283.728081 
L 389.745539 284.542617 
L 389.880027 284.490757 
L 390.014515 269.623102 
L 390.283492 269.87146 
L 390.41798 269.881451 
L 390.552468 269.751087 
L 390.686956 264.264866 
L 390.821445 264.449469 
L 390.955933 255.61661 
L 391.224909 199.579223 
L 391.359397 168.269557 
L 391.493886 164.288229 
L 391.762862 174.959027 
L 391.89735 174.416637 
L 392.031839 167.208568 
L 392.166327 170.900146 
L 392.300815 179.86099 
L 392.569791 239.891124 
L 392.70428 266.123739 
L 392.973256 270.956238 
L 393.107744 271.612339 
L 393.376721 264.570793 
L 393.645697 270.276824 
L 393.780185 266.893076 
L 393.914673 268.274741 
L 394.049162 260.877311 
L 394.721603 146.507373 
L 394.990579 145.437819 
L 395.125067 145.018657 
L 395.259556 156.379811 
L 395.394044 157.24811 
L 395.931997 245.209395 
L 396.200973 258.791491 
L 396.335461 255.062326 
L 396.46995 279.784339 
L 396.604438 280.166867 
L 397.007902 283.195683 
L 397.276879 270.165492 
L 397.545855 196.606548 
L 397.680343 191.429584 
L 397.94932 168.099704 
L 398.083808 154.660342 
L 398.218296 167.377945 
L 398.352785 162.621095 
L 398.487273 165.62755 
L 398.487273 165.62755 
" clip-path="url(#p98f7d7b080)" style="fill: none; stroke: #1f77b4; stroke-width: 1.5; stroke-linecap: square"/>
   </g>
   <g id="line2d_14">
    <path d="M 73.832727 283.473103 
L 74.236192 279.141644 
L 74.37068 276.751924 
L 74.505168 277.727844 
L 74.639657 276.875438 
L 74.774145 278.685978 
L 74.908633 266.022394 
L 75.043121 221.428109 
L 75.177609 224.372308 
L 75.446586 249.940439 
L 75.581074 244.16353 
L 75.85005 247.281614 
L 75.984539 248.889068 
L 76.253515 248.097658 
L 76.388003 248.75385 
L 76.65698 274.576309 
L 76.925956 271.816499 
L 77.060444 275.863757 
L 77.194933 263.118261 
L 77.329421 264.303666 
L 77.463909 262.010847 
L 77.598397 266.397545 
L 77.732885 265.119428 
L 77.867374 254.768426 
L 78.001862 229.534549 
L 78.270838 119.070276 
L 78.405327 97.645017 
L 78.539815 94.526414 
L 78.674303 109.537337 
L 78.808791 99.329222 
L 79.077768 104.479631 
L 79.61572 193.626538 
L 79.884697 246.167015 
L 80.288161 267.390695 
L 80.42265 264.409482 
L 80.557138 272.963252 
L 80.691626 270.836515 
L 80.826114 272.055895 
L 81.095091 259.01292 
L 81.229579 237.74244 
L 81.498555 149.392419 
L 81.633044 159.194819 
L 81.767532 154.815464 
L 82.305485 169.772124 
L 82.439973 169.691638 
L 82.843438 233.583056 
L 83.112414 254.660051 
L 83.246902 254.953976 
L 83.38139 257.719171 
L 83.784855 284.744874 
L 83.919343 285.087985 
L 84.053831 283.591641 
L 84.322808 276.43487 
L 84.457296 264.375862 
L 84.726273 171.556552 
L 84.860761 161.174211 
L 85.129737 181.219839 
L 85.264225 167.084912 
L 85.66769 193.726195 
L 85.802178 198.482847 
L 86.474619 265.261281 
L 86.609107 262.362868 
L 87.012572 293.284543 
L 87.14706 295.488 
L 87.416037 288.528183 
L 87.685013 285.970087 
L 87.95399 237.556866 
L 88.222966 245.201554 
L 88.357454 256.46916 
L 88.491942 253.162715 
L 88.626431 253.353089 
L 88.760919 256.052154 
L 88.895407 250.788419 
L 89.029895 255.620433 
L 89.164384 255.143051 
L 89.298872 259.192573 
L 89.567848 275.078915 
L 89.702336 274.894826 
L 89.836825 273.258501 
L 89.971313 279.489511 
L 90.105801 257.205952 
L 90.374777 254.617127 
L 90.509266 261.956536 
L 90.778242 259.291747 
L 90.91273 262.466603 
L 91.047218 255.035091 
L 91.181707 235.145005 
L 91.316195 235.832809 
L 91.450683 232.651122 
L 91.585171 248.343081 
L 91.71966 245.629899 
L 91.854148 251.722657 
L 91.988636 250.314514 
L 92.257612 257.169133 
L 92.392101 257.610652 
L 92.930053 266.066412 
L 93.064542 265.715561 
L 93.19903 269.561339 
L 93.333518 278.857384 
L 93.468006 278.076167 
L 93.602495 278.39657 
L 94.140447 257.506454 
L 94.409424 173.312508 
L 94.543912 174.352846 
L 94.947377 156.126607 
L 95.216353 169.521026 
L 95.350841 169.512586 
L 95.48533 165.676286 
L 96.023282 260.933406 
L 96.426747 272.280832 
L 96.695723 269.242021 
L 96.830212 267.088776 
L 96.9647 267.778258 
L 97.233676 263.529107 
L 97.502653 219.359632 
L 97.637141 170.437026 
L 97.771629 172.934516 
L 97.906117 167.740015 
L 98.040606 187.064701 
L 98.175094 178.218753 
L 98.309582 180.784871 
L 98.44407 177.420446 
L 98.713047 193.600531 
L 98.982023 224.482741 
L 99.250999 265.571387 
L 99.519976 268.000906 
L 99.788952 284.342243 
L 100.057929 281.721273 
L 100.192417 276.270532 
L 100.461393 278.338528 
L 100.595882 276.624404 
L 100.73037 277.130865 
L 100.864858 278.697486 
L 100.999346 277.486655 
L 101.133834 278.676775 
L 101.268323 277.948008 
L 101.402811 278.579998 
L 101.537299 271.785669 
L 101.671787 277.44165 
L 101.940764 269.809273 
L 102.075252 269.999082 
L 102.20974 271.195371 
L 102.344228 269.96401 
L 102.478717 270.825449 
L 102.613205 274.641221 
L 102.747693 271.88002 
L 102.882181 283.877698 
L 103.016669 263.477813 
L 103.151158 261.87114 
L 103.285646 263.008047 
L 103.420134 270.938001 
L 103.823599 250.28285 
L 103.958087 223.092371 
L 104.092575 170.019644 
L 104.361552 152.870027 
L 104.49604 169.910329 
L 104.765016 147.727915 
L 104.899504 151.25009 
L 105.302969 192.212838 
L 105.706434 260.864566 
L 105.840922 261.529697 
L 105.97541 258.789185 
L 106.109898 266.57222 
L 106.378875 288.101174 
L 106.513363 285.774182 
L 106.647851 277.598891 
L 106.782339 279.633874 
L 106.916828 278.145671 
L 107.051316 279.013691 
L 107.320292 221.560706 
L 107.45478 223.455925 
L 107.723757 253.604363 
L 107.992733 247.463591 
L 108.127222 250.362629 
L 108.26171 249.351913 
L 108.396198 249.241905 
L 108.530686 247.434154 
L 108.665174 251.024463 
L 108.934151 274.956757 
L 109.068639 275.686546 
L 109.203127 275.044107 
L 109.337615 277.007476 
L 109.472104 269.965919 
L 109.74108 269.068733 
L 109.875568 271.348529 
L 110.144545 268.856997 
L 110.279033 268.763168 
L 110.413521 268.271139 
L 110.548009 268.405595 
L 110.816986 270.133075 
L 111.085962 268.447176 
L 111.22045 271.177415 
L 111.354939 271.434794 
L 111.489427 270.905457 
L 111.758403 268.134402 
L 112.161868 271.421136 
L 112.430844 270.035387 
L 112.565333 274.628978 
L 112.699821 258.692293 
L 112.834309 258.756361 
L 112.968797 259.510044 
L 113.103285 264.649715 
L 113.372262 261.289694 
L 113.50675 264.633208 
L 113.641238 265.034698 
L 113.775726 268.120918 
L 113.910215 263.54606 
L 114.044703 264.262189 
L 114.313679 257.692812 
L 114.448168 258.069254 
L 114.717144 260.357168 
L 114.98612 253.688841 
L 115.120609 253.577804 
L 115.389585 259.185423 
L 115.524073 259.538282 
L 115.658561 259.028623 
L 115.79305 264.175091 
L 116.062026 261.302313 
L 116.196514 256.603856 
L 116.331002 263.348564 
L 116.599979 258.159154 
L 116.734467 237.29004 
L 117.003444 118.586204 
L 117.27242 72.241096 
L 117.406908 89.532673 
L 117.675885 75.141861 
L 117.810373 82.022479 
L 118.348326 188.003665 
L 118.617302 239.113094 
L 119.155255 254.983523 
L 119.289743 254.279289 
L 119.55872 250.898222 
L 119.693208 251.412378 
L 119.827696 250.504658 
L 119.962184 231.876806 
L 120.231161 113.040854 
L 120.500137 85.850812 
L 120.634625 95.580293 
L 120.903602 86.586304 
L 121.03809 87.572935 
L 121.307066 115.338032 
L 121.441555 133.667127 
L 121.845019 236.900806 
L 121.979507 243.015271 
L 122.113996 241.534603 
L 122.651948 259.08048 
L 123.055413 246.566441 
L 123.189901 231.978475 
L 123.593366 95.528509 
L 123.727854 83.650805 
L 123.862342 89.884733 
L 123.996831 86.031378 
L 124.131319 87.307128 
L 124.669272 140.165503 
L 125.072736 240.961229 
L 125.341713 255.233981 
L 125.476201 254.91516 
L 125.610689 256.023682 
L 125.879666 269.477622 
L 126.014154 270.468725 
L 126.148642 263.812329 
L 126.417618 235.816683 
L 126.686595 124.967552 
L 126.955571 84.669157 
L 127.224548 97.347456 
L 127.762501 131.399583 
L 128.031477 188.114826 
L 128.300453 242.144889 
L 128.56943 253.526337 
L 128.838406 260.861021 
L 128.972894 258.698302 
L 129.107383 260.976795 
L 129.241871 260.60419 
L 129.376359 261.399355 
L 129.645336 218.889038 
L 130.0488 85.610004 
L 130.183288 79.993698 
L 130.317777 96.470283 
L 130.452265 95.099924 
L 130.721241 118.27655 
L 130.855729 124.835006 
L 130.990218 138.402477 
L 131.662659 256.453866 
L 131.797147 258.420356 
L 131.931635 263.058364 
L 132.200612 256.374748 
L 132.3351 259.987556 
L 132.469588 268.83883 
L 132.738564 264.594452 
L 132.873053 260.352153 
L 133.142029 241.39175 
L 133.276517 232.947397 
L 133.411005 236.095866 
L 133.545494 233.600006 
L 133.679982 234.303357 
L 133.948958 237.375055 
L 134.083447 236.616656 
L 134.486911 248.75788 
L 134.890376 254.446131 
L 135.024864 253.331701 
L 135.159352 259.731318 
L 135.29384 259.854861 
L 135.428329 260.401808 
L 135.562817 260.082115 
L 135.831793 262.141235 
L 135.966282 268.501773 
L 136.10077 267.906746 
L 136.235258 263.491889 
L 136.369746 263.838904 
L 136.504234 265.115841 
L 136.638723 261.094644 
L 136.773211 261.171217 
L 136.907699 261.854686 
L 137.042187 264.722386 
L 137.311164 256.208605 
L 137.445652 256.319502 
L 137.58014 258.867697 
L 137.714628 257.209571 
L 138.118093 260.167231 
L 138.252581 257.849348 
L 138.521558 266.039375 
L 138.790534 259.393667 
L 138.925022 260.105352 
L 139.05951 262.63779 
L 139.328487 228.814964 
L 139.597463 111.959019 
L 139.86644 76.692391 
L 140.000928 95.73761 
L 140.135416 89.402246 
L 140.269904 94.901154 
L 140.673369 140.517664 
L 140.942345 180.510936 
L 141.211322 244.452457 
L 141.480298 254.280094 
L 141.749275 264.81212 
L 142.152739 262.261797 
L 142.287228 257.749004 
L 142.690692 161.861749 
L 142.959669 87.641243 
L 143.094157 86.850982 
L 143.228645 97.949471 
L 143.363133 90.020168 
L 143.497621 92.591958 
L 143.63211 92.908587 
L 143.766598 104.228886 
L 144.439039 241.73974 
L 144.708015 256.628831 
L 144.976992 265.907544 
L 145.11148 261.982788 
L 145.245968 261.429188 
L 145.380456 263.399025 
L 145.514945 254.208959 
L 146.321874 84.602596 
L 146.456362 104.986015 
L 146.59085 105.55506 
L 146.725339 112.597882 
L 146.859827 110.475061 
L 147.263291 155.052718 
L 147.532268 240.962951 
L 147.935732 259.679625 
L 148.204709 267.011155 
L 148.473685 264.46517 
L 148.87715 256.720497 
L 149.011638 225.331477 
L 149.280615 119.82265 
L 149.415103 102.858861 
L 149.684079 109.651333 
L 149.818567 104.330641 
L 149.953056 111.056286 
L 150.625497 201.191595 
L 150.894473 249.377769 
L 151.297938 265.577687 
L 151.566914 263.278742 
L 151.701402 265.93501 
L 151.970379 264.25662 
L 152.104867 259.703691 
L 152.373843 163.813334 
L 152.64282 97.128261 
L 152.911796 114.545942 
L 153.046285 97.002801 
L 153.315261 114.509045 
L 153.584237 168.338755 
L 154.12219 260.709092 
L 154.256678 269.052276 
L 154.391167 265.637632 
L 154.525655 273.748277 
L 154.660143 271.360686 
L 154.794631 273.524182 
L 154.92912 270.987435 
L 155.063608 270.802103 
L 155.198096 272.03202 
L 155.332584 274.330204 
L 155.467072 272.344015 
L 155.601561 263.022066 
L 155.736049 244.887954 
L 156.139513 258.907482 
L 156.274002 257.36358 
L 156.40849 257.676528 
L 157.080931 264.735458 
L 157.349907 268.525046 
L 157.484396 268.980261 
L 157.618884 267.065935 
L 157.753372 272.416117 
L 157.88786 271.845665 
L 158.022348 272.419947 
L 158.291325 269.961315 
L 158.425813 271.604025 
L 158.694789 277.890934 
L 158.829278 273.965283 
L 158.963766 274.545485 
L 159.232742 273.376425 
L 159.367231 272.755857 
L 159.501719 274.792127 
L 159.636207 273.950972 
L 159.905183 266.149375 
L 160.039672 267.686587 
L 160.17416 264.94029 
L 160.308648 265.332305 
L 160.443136 264.113677 
L 160.577624 268.185231 
L 160.846601 263.522792 
L 160.981089 267.187536 
L 161.115577 267.04674 
L 161.250066 270.04302 
L 161.519042 267.046593 
L 161.65353 264.738694 
L 161.922507 233.505984 
L 162.325971 95.62687 
L 162.460459 74.823026 
L 162.594948 92.818954 
L 162.729436 93.302273 
L 162.863924 87.705694 
L 163.401877 155.233672 
L 163.805342 244.060154 
L 164.074318 252.18066 
L 164.477783 270.95125 
L 164.612271 272.09748 
L 164.746759 274.625609 
L 165.150224 226.081149 
L 165.553688 103.421681 
L 165.688177 114.266951 
L 165.822665 112.60956 
L 165.957153 107.913989 
L 166.091641 108.22413 
L 166.226129 112.900517 
L 166.360618 113.377919 
L 166.495106 119.390031 
L 166.629594 135.334769 
L 166.89857 235.23441 
L 167.033059 244.714243 
L 167.167547 244.712773 
L 167.302035 248.221613 
L 167.571012 257.460536 
L 167.7055 258.973328 
L 167.839988 262.627952 
L 167.974476 263.058586 
L 168.108964 261.781874 
L 168.243453 248.537527 
L 168.377941 222.465899 
L 168.781405 93.997722 
L 169.050382 106.965996 
L 169.18487 101.639249 
L 169.319358 104.465434 
L 169.453847 99.048678 
L 169.588335 108.700778 
L 170.395264 254.979397 
L 170.529752 255.71054 
L 170.798729 263.687865 
L 171.202193 259.786392 
L 171.336681 262.995987 
L 171.740146 171.375901 
L 172.009123 97.121478 
L 172.278099 110.093953 
L 172.547075 98.44926 
L 172.816052 126.38789 
L 173.219516 197.388168 
L 173.488493 249.057537 
L 173.891958 266.777704 
L 174.026446 279.741282 
L 174.160934 279.160322 
L 174.295422 277.757681 
L 174.42991 270.425026 
L 174.564399 272.921119 
L 174.967863 216.957955 
L 175.23684 160.25944 
L 175.505816 141.936871 
L 175.640304 141.429271 
L 175.774792 153.02161 
L 175.909281 154.290618 
L 176.043769 159.712125 
L 176.447234 201.700018 
L 176.71621 253.926538 
L 176.985186 264.45709 
L 177.119675 268.136513 
L 177.388651 265.795213 
L 177.523139 266.344293 
L 177.657627 267.584302 
L 177.926604 271.913289 
L 178.061092 271.790858 
L 178.330069 252.844125 
L 178.464557 252.943776 
L 178.733533 249.998513 
L 178.868021 251.0192 
L 179.00251 258.101393 
L 179.271486 255.907613 
L 179.405974 256.741321 
L 179.540462 256.851628 
L 179.674951 256.779425 
L 179.809439 258.665691 
L 180.078415 266.794587 
L 180.212904 263.890405 
L 180.616368 278.219669 
L 180.750856 277.311759 
L 180.885345 271.832092 
L 181.019833 272.220273 
L 181.154321 272.059338 
L 181.557786 255.278769 
L 181.692274 258.759844 
L 181.826762 257.980949 
L 181.96125 262.694643 
L 182.095738 255.522712 
L 182.499203 268.345025 
L 182.633691 269.057621 
L 182.76818 272.731288 
L 183.037156 271.388434 
L 183.171644 274.183267 
L 183.306132 274.533723 
L 183.440621 274.261972 
L 183.575109 277.388155 
L 183.709597 273.18644 
L 183.978573 287.326406 
L 184.113062 290.39273 
L 184.516526 256.710287 
L 184.785503 175.307749 
L 184.919991 171.168754 
L 185.054479 175.734921 
L 185.188967 184.918161 
L 185.323456 176.900587 
L 185.72692 190.710488 
L 186.399361 262.45989 
L 186.937314 281.896558 
L 187.071802 291.996591 
L 187.206291 293.096514 
L 187.609755 279.514573 
L 187.744243 267.166218 
L 188.01322 176.239117 
L 188.147708 176.621504 
L 188.282196 185.085746 
L 188.416684 183.970474 
L 188.551173 181.860575 
L 189.089126 205.294994 
L 189.223614 216.815081 
L 189.627078 266.743931 
L 189.896055 264.611867 
L 190.030543 275.953088 
L 190.434008 267.642089 
L 190.702984 265.977686 
L 190.837472 267.239161 
L 190.971961 269.889648 
L 191.106449 269.633815 
L 191.240937 263.312524 
L 191.375425 263.378447 
L 191.509913 266.576449 
L 191.644402 264.438541 
L 191.77889 267.028375 
L 191.913378 267.15066 
L 192.047866 268.16691 
L 192.182354 263.773586 
L 192.316843 263.755853 
L 192.451331 264.093139 
L 192.720307 265.547106 
L 192.854796 269.875406 
L 192.989284 269.303783 
L 193.123772 268.058084 
L 193.25826 271.528141 
L 193.527237 264.613326 
L 193.661725 265.790813 
L 193.796213 265.940428 
L 193.930701 265.812293 
L 194.199678 248.282248 
L 194.468654 171.553296 
L 194.73763 153.323689 
L 194.872119 151.528041 
L 195.006607 144.48778 
L 195.410072 151.84887 
L 195.679048 179.447479 
L 195.948024 238.444972 
L 196.082513 259.417351 
L 196.217001 261.765992 
L 196.351489 261.091667 
L 196.485977 265.752716 
L 196.620465 276.063576 
L 196.889442 272.076085 
L 197.02393 265.454279 
L 197.158418 267.868116 
L 197.292907 263.792316 
L 197.427395 251.662642 
L 197.696371 182.113595 
L 197.965348 187.721582 
L 198.099836 196.67369 
L 198.234324 190.942036 
L 198.368812 199.899564 
L 198.5033 194.116811 
L 198.637789 194.531035 
L 198.906765 217.937903 
L 199.31023 273.953792 
L 199.444718 274.464684 
L 199.579206 272.713671 
L 199.848183 284.33219 
L 200.251647 276.910277 
L 200.386135 274.272057 
L 200.520624 263.06108 
L 200.655112 261.679117 
L 200.7896 240.307228 
L 200.924088 183.593992 
L 201.058576 185.163411 
L 201.193065 188.714874 
L 201.327553 201.911822 
L 201.462041 191.27113 
L 201.596529 199.186229 
L 201.731018 192.830641 
L 201.865506 195.69857 
L 201.999994 201.184047 
L 202.537947 271.656143 
L 202.806923 269.005849 
L 202.941411 276.10396 
L 203.210388 261.935138 
L 203.479364 267.456643 
L 203.882829 246.238266 
L 204.017317 220.106385 
L 204.286294 157.993673 
L 204.420782 155.972487 
L 204.55527 159.864689 
L 204.689758 156.773571 
L 204.824246 163.957545 
L 204.958735 161.276706 
L 205.362199 212.774025 
L 205.631176 246.517572 
L 205.765664 262.126276 
L 205.900152 264.525041 
L 206.03464 260.847743 
L 206.169129 268.028884 
L 206.303617 284.112253 
L 206.572593 286.941784 
L 206.707081 281.307484 
L 206.84157 283.045534 
L 206.976058 281.562401 
L 207.514011 254.773345 
L 207.782987 265.925697 
L 208.051964 274.498207 
L 208.186452 273.537208 
L 208.455428 268.220528 
L 208.993381 275.939898 
L 209.127869 277.516392 
L 209.262357 276.525776 
L 209.396846 281.717935 
L 209.531334 271.32867 
L 209.665822 270.812876 
L 209.80031 268.835486 
L 209.934799 271.235032 
L 210.069287 270.511368 
L 210.338263 248.595529 
L 210.741728 147.547414 
L 211.010704 123.573652 
L 211.145192 115.669521 
L 211.683145 162.554475 
L 212.221098 259.185817 
L 212.355586 260.651143 
L 212.490075 258.079511 
L 212.759051 271.892453 
L 212.893539 275.683968 
L 213.162516 268.664497 
L 213.297004 270.290883 
L 213.56598 238.278861 
L 213.834957 130.410482 
L 213.969445 121.09559 
L 214.238421 137.636255 
L 214.37291 130.641916 
L 214.507398 138.719114 
L 214.910862 187.283871 
L 215.045351 198.765645 
L 215.448815 270.510102 
L 215.717792 263.699592 
L 215.986768 271.580402 
L 216.390233 268.069427 
L 216.524721 269.814193 
L 216.659209 261.777186 
L 216.793697 246.79808 
L 217.062674 141.458567 
L 217.197162 136.021011 
L 217.466138 149.813777 
L 217.600627 153.177484 
L 217.735115 151.768693 
L 217.869603 148.560979 
L 218.004091 160.628498 
L 218.676532 265.59315 
L 218.811021 269.70514 
L 218.945509 270.368033 
L 219.079997 268.911108 
L 219.348973 268.205749 
L 219.483462 274.98736 
L 219.61795 275.19977 
L 219.752438 276.17436 
L 220.021414 246.792395 
L 220.290391 142.334691 
L 220.559367 154.229008 
L 220.693856 153.248811 
L 220.828344 144.002043 
L 220.962832 156.094232 
L 221.09732 156.70967 
L 221.366297 193.897801 
L 222.038738 267.652693 
L 222.173226 267.994865 
L 222.307714 274.12215 
L 222.442202 273.41643 
L 222.576691 273.579799 
L 222.711179 277.330738 
L 222.845667 277.523859 
L 222.980155 277.309192 
L 223.114643 272.823368 
L 223.249132 275.685376 
L 223.518108 243.251715 
L 223.787084 260.073891 
L 223.921573 258.524017 
L 224.056061 252.32456 
L 224.325037 255.704336 
L 224.594014 260.512183 
L 224.728502 259.845323 
L 224.86299 257.994595 
L 225.131967 262.054248 
L 225.266455 261.9534 
L 225.400943 259.771637 
L 225.535431 265.136614 
L 225.804408 258.685839 
L 226.207872 268.212571 
L 226.34236 267.233226 
L 226.476849 268.917607 
L 226.880313 261.425614 
L 227.14929 270.911765 
L 227.283778 272.159507 
L 227.418266 270.283218 
L 227.687243 274.364112 
L 227.821731 274.660262 
L 227.956219 272.564745 
L 228.090707 272.877095 
L 228.225195 277.142707 
L 228.62866 273.383231 
L 228.763148 281.034199 
L 228.897637 278.866578 
L 229.166613 272.382738 
L 229.301101 271.852615 
L 229.435589 272.364812 
L 229.570078 259.763158 
L 229.704566 232.686504 
L 230.10803 106.675631 
L 230.242519 90.659493 
L 230.377007 100.144612 
L 230.511495 93.375309 
L 231.049448 142.818833 
L 231.587401 252.150513 
L 232.125354 272.502818 
L 232.259842 271.366884 
L 232.528818 273.021615 
L 232.663306 270.075271 
L 232.932283 234.174217 
L 233.335748 119.123307 
L 233.470236 117.181751 
L 233.604724 135.905621 
L 233.739212 129.505734 
L 233.8737 139.120326 
L 234.008189 129.705003 
L 234.277165 172.128933 
L 234.68063 244.697409 
L 234.815118 265.082546 
L 234.949606 268.465552 
L 235.084094 264.369754 
L 235.218583 271.265354 
L 235.353071 271.998953 
L 235.622047 279.327993 
L 235.756535 278.079757 
L 235.891024 274.323847 
L 236.16 247.463908 
L 236.428976 132.04831 
L 236.563465 120.137652 
L 236.697953 123.92869 
L 236.832441 123.734548 
L 236.966929 112.159275 
L 237.101417 120.808429 
L 237.370394 156.243124 
L 237.63937 196.435028 
L 238.042835 266.750454 
L 238.177323 268.139713 
L 238.311811 264.690404 
L 238.4463 272.649248 
L 238.580788 273.597713 
L 238.715276 275.465799 
L 238.984252 283.374466 
L 239.118741 280.028764 
L 239.253229 270.547016 
L 239.387717 243.297551 
L 239.656694 143.864597 
L 239.92567 120.614443 
L 240.060158 133.200376 
L 240.194646 130.844657 
L 240.329135 137.394534 
L 241.270552 260.16768 
L 241.40504 261.599665 
L 241.539529 258.172392 
L 241.674017 266.803652 
L 241.808505 264.486137 
L 241.942993 276.966273 
L 242.077481 277.900926 
L 242.21197 286.93699 
L 242.346458 279.822733 
L 242.480946 266.504726 
L 242.615434 241.678719 
L 242.884411 142.053572 
L 243.018899 139.833738 
L 243.153387 155.172201 
L 243.287875 153.860744 
L 243.422363 135.989599 
L 243.960316 179.234861 
L 244.229293 234.694456 
L 244.498269 260.915217 
L 244.632757 265.770271 
L 244.767246 264.064468 
L 245.036222 273.588551 
L 245.17071 276.651489 
L 245.305198 276.113609 
L 245.439687 274.434837 
L 245.708663 267.878849 
L 245.843151 245.885076 
L 245.97764 256.361996 
L 246.112128 255.74606 
L 246.246616 263.095679 
L 246.381104 256.196956 
L 246.515592 256.2021 
L 246.650081 257.572044 
L 247.053545 265.641735 
L 247.188033 266.73702 
L 247.45701 271.460271 
L 247.591498 272.507093 
L 247.725986 272.114103 
L 247.860475 274.112286 
L 247.994963 272.802755 
L 248.129451 276.447854 
L 248.667404 268.983431 
L 248.801892 271.868781 
L 248.93638 270.870187 
L 249.070868 271.932942 
L 249.205357 271.691248 
L 249.474333 274.972363 
L 250.012286 276.627247 
L 250.281262 274.122161 
L 250.550239 273.892417 
L 250.819215 272.061861 
L 251.088192 271.37059 
L 251.22268 269.98654 
L 251.357168 274.980733 
L 251.491656 273.786479 
L 251.626144 285.695172 
L 251.760633 284.312187 
L 251.895121 284.466063 
L 252.164097 265.122815 
L 252.298586 255.826038 
L 252.567562 148.768944 
L 252.70205 134.053708 
L 252.836538 139.607302 
L 252.971027 160.336352 
L 253.105515 149.033937 
L 253.643468 183.258075 
L 254.181421 264.384407 
L 254.584885 284.019959 
L 254.719373 283.233273 
L 254.853862 285.465892 
L 254.98835 284.261796 
L 255.122838 284.643033 
L 255.257326 282.35777 
L 255.526303 244.764738 
L 255.795279 156.927931 
L 256.064255 168.539962 
L 256.198744 164.374483 
L 256.333232 152.928808 
L 256.736697 168.940783 
L 257.409138 257.426765 
L 257.543626 263.112216 
L 257.678114 259.622006 
L 257.812602 268.929625 
L 257.94709 266.600281 
L 258.216067 284.252155 
L 258.350555 285.335143 
L 258.619532 262.818935 
L 258.75402 249.325566 
L 259.022996 156.65486 
L 259.426461 166.794166 
L 259.560949 148.87886 
L 259.829925 169.789164 
L 259.964414 166.320172 
L 260.098902 178.24556 
L 260.636855 255.587271 
L 260.771343 259.740732 
L 260.905831 260.043857 
L 261.040319 266.886628 
L 261.174808 265.700233 
L 261.443784 270.941983 
L 261.578272 274.418238 
L 261.847249 263.694792 
L 261.981737 238.248691 
L 262.250713 147.177712 
L 262.385201 160.21285 
L 262.51969 158.989162 
L 262.788666 142.699122 
L 262.923154 152.205412 
L 263.057643 152.19809 
L 263.730084 238.763376 
L 263.99906 253.663519 
L 264.133548 253.653793 
L 264.402525 267.859926 
L 264.537013 264.535091 
L 264.671501 266.025009 
L 264.805989 260.972666 
L 264.940478 260.737526 
L 265.074966 256.127443 
L 265.209454 242.201857 
L 265.881895 108.562784 
L 266.016383 110.338667 
L 266.150871 116.961431 
L 266.28536 116.567944 
L 266.419848 123.265231 
L 266.554336 135.543544 
L 267.226777 252.862934 
L 267.361265 253.088019 
L 267.495754 256.894769 
L 267.630242 271.212893 
L 267.76473 269.941932 
L 267.899218 272.258996 
L 268.033706 264.183743 
L 268.302683 273.445881 
L 268.437171 274.79009 
L 268.571659 268.176399 
L 268.840636 272.208904 
L 269.2441 268.385615 
L 269.378589 269.236253 
L 269.647565 265.634453 
L 269.782053 263.816529 
L 269.916541 263.846528 
L 270.05103 261.862188 
L 270.185518 262.086854 
L 270.454494 260.972063 
L 270.588982 261.891403 
L 270.723471 268.964339 
L 270.857959 282.984538 
L 270.992447 282.959418 
L 271.126935 280.129892 
L 271.261424 272.628782 
L 271.395912 272.513689 
L 271.5304 272.689041 
L 271.799376 274.282872 
L 271.933865 276.95999 
L 272.068353 274.731095 
L 272.202841 277.122607 
L 272.337329 276.822726 
L 272.471817 278.447099 
L 272.740794 276.028224 
L 272.875282 277.969602 
L 273.00977 277.803517 
L 273.144258 276.315583 
L 273.278747 272.699399 
L 273.413235 272.274096 
L 273.547723 272.331626 
L 273.682211 271.795318 
L 273.8167 270.385914 
L 273.951188 278.068004 
L 274.085676 275.744133 
L 274.220164 286.736943 
L 274.354652 287.96543 
L 274.489141 290.632735 
L 274.758117 271.953435 
L 274.892605 256.357093 
L 275.161582 188.083744 
L 275.430558 161.909573 
L 275.699535 153.72562 
L 275.834023 154.765547 
L 276.506464 238.457707 
L 276.77544 261.724731 
L 276.909928 266.552998 
L 277.044417 265.481471 
L 277.178905 277.279865 
L 277.313393 276.009197 
L 277.447881 284.252438 
L 277.58237 281.74303 
L 277.716858 286.832962 
L 277.985834 273.453981 
L 278.120322 253.837619 
L 278.389299 190.88007 
L 278.927252 173.124801 
L 279.06174 193.479955 
L 279.196228 190.647802 
L 279.465204 208.113189 
L 279.868669 261.233745 
L 280.003157 269.398828 
L 280.137646 269.460709 
L 280.272134 270.280261 
L 280.406622 278.787247 
L 280.675598 264.137307 
L 280.810087 261.896535 
L 280.944575 265.736969 
L 281.079063 262.834608 
L 281.348039 246.73349 
L 281.751504 134.653937 
L 281.885992 120.061847 
L 282.289457 141.976824 
L 282.423945 123.248877 
L 282.692922 151.692128 
L 283.096386 247.88789 
L 283.365363 263.030892 
L 283.499851 260.605475 
L 283.634339 267.023077 
L 284.037804 257.917251 
L 284.172292 258.736736 
L 284.30678 257.416032 
L 284.575757 245.412868 
L 284.979221 148.950794 
L 285.113709 154.712224 
L 285.248198 142.274077 
L 285.382686 141.877715 
L 285.517174 136.528322 
L 285.651662 150.68524 
L 285.78615 152.372314 
L 285.920639 164.032234 
L 286.458592 259.108656 
L 286.59308 260.18574 
L 286.727568 260.077179 
L 286.862056 264.914229 
L 286.996544 284.375664 
L 287.131033 284.079657 
L 287.265521 283.183597 
L 287.400009 272.679139 
L 287.668985 270.401017 
L 287.803474 266.67789 
L 287.937962 269.7388 
L 288.07245 269.908868 
L 288.206938 271.863132 
L 288.341427 269.138257 
L 288.475915 271.123246 
L 288.610403 269.424624 
L 288.744891 270.877159 
L 288.879379 270.009534 
L 289.013868 273.983487 
L 289.148356 274.321502 
L 289.282844 272.206106 
L 289.55182 278.035877 
L 289.686309 278.257098 
L 289.955285 275.638069 
L 290.089773 280.71897 
L 290.224262 277.475296 
L 290.35875 277.866808 
L 290.493238 274.483215 
L 290.627726 275.795255 
L 290.762214 270.836906 
L 291.165679 240.158748 
L 291.434655 171.622168 
L 291.569144 176.127505 
L 291.703632 188.486507 
L 291.83812 188.15611 
L 292.107096 180.350749 
L 292.510561 214.485844 
L 292.914026 269.092152 
L 293.183002 266.311103 
L 293.31749 272.586152 
L 293.586467 268.67589 
L 293.720955 265.045761 
L 293.855443 267.889412 
L 293.989931 266.415017 
L 294.258908 248.965015 
L 294.796861 154.505544 
L 294.931349 155.006121 
L 295.065837 142.30929 
L 295.200325 144.18219 
L 295.334814 152.302994 
L 295.469302 153.545026 
L 295.872766 216.904633 
L 296.141743 262.904438 
L 296.276231 262.327417 
L 296.410719 256.942184 
L 296.545208 266.032381 
L 296.679696 285.637745 
L 296.814184 288.131743 
L 296.948672 287.384292 
L 297.08316 278.887797 
L 297.217649 279.916823 
L 297.352137 279.507571 
L 297.89009 281.733836 
L 298.159066 279.241642 
L 298.293554 280.761807 
L 298.562531 278.19317 
L 298.697019 275.784256 
L 298.831507 276.631621 
L 298.965995 275.929682 
L 299.100484 276.311362 
L 299.234972 275.990386 
L 299.36946 276.613905 
L 299.503948 276.196356 
L 299.638436 274.780364 
L 299.772925 280.862602 
L 299.907413 266.411735 
L 300.041901 269.103138 
L 300.176389 265.259502 
L 300.310877 271.912308 
L 300.445366 266.833914 
L 300.714342 245.190813 
L 301.117807 147.448823 
L 301.386783 125.023814 
L 301.521271 128.499333 
L 301.65576 138.488839 
L 301.790248 134.609381 
L 302.059224 174.390149 
L 302.462689 238.650954 
L 302.731665 259.20343 
L 302.866153 255.876781 
L 303.13513 270.636118 
L 303.269618 269.999721 
L 303.404106 264.873813 
L 303.673083 265.706074 
L 304.076547 199.530143 
L 304.211036 159.524329 
L 304.480012 158.330953 
L 304.6145 157.438057 
L 304.748988 151.282354 
L 304.883477 160.042543 
L 305.017965 154.596861 
L 305.286941 184.924066 
L 305.555918 222.383893 
L 305.824894 255.206583 
L 305.959382 264.030317 
L 306.093871 261.531789 
L 306.228359 269.633569 
L 306.362847 267.203906 
L 306.497335 277.52832 
L 306.631823 277.362701 
L 306.766312 277.548059 
L 307.035288 264.121124 
L 307.169776 245.14601 
L 307.438753 148.982179 
L 307.707729 167.329993 
L 307.976706 150.787215 
L 308.111194 161.427684 
L 308.245682 157.256769 
L 308.38017 167.429866 
L 309.187099 266.462539 
L 309.321588 264.872225 
L 309.456076 274.3367 
L 309.590564 274.681824 
L 309.725052 276.726946 
L 309.859541 275.10354 
L 309.994029 275.842218 
L 310.128517 272.99798 
L 310.263005 265.910917 
L 310.397493 241.747032 
L 310.66647 149.06646 
L 310.935446 165.526433 
L 311.069934 163.576361 
L 311.204423 151.148113 
L 311.473399 163.964041 
L 311.607887 162.040513 
L 311.742376 181.111349 
L 312.011352 232.130323 
L 312.280328 258.476431 
L 312.414817 264.439546 
L 312.549305 261.655568 
L 312.683793 269.607501 
L 312.818281 269.496861 
L 312.952769 271.391278 
L 313.087258 268.327809 
L 313.221746 268.907661 
L 313.356234 266.339134 
L 313.490722 269.236946 
L 313.894187 240.802438 
L 314.028675 250.635377 
L 314.163163 250.523549 
L 314.297652 254.470129 
L 314.43214 249.43055 
L 314.701116 258.089815 
L 315.104581 269.417854 
L 315.239069 269.495098 
L 315.373557 269.007095 
L 315.508045 270.855761 
L 315.642534 270.303903 
L 315.777022 269.275995 
L 315.91151 273.317681 
L 316.045998 272.836874 
L 316.180487 271.242484 
L 316.314975 271.436431 
L 316.449463 268.279082 
L 316.583951 268.551489 
L 316.718439 267.573505 
L 316.852928 270.052426 
L 316.987416 270.308007 
L 317.121904 269.765253 
L 317.256392 270.30171 
L 317.39088 270.083397 
L 317.525369 272.209602 
L 317.659857 271.223032 
L 317.794345 273.936922 
L 317.928833 272.329148 
L 318.063322 272.720701 
L 318.19781 270.843349 
L 318.601274 270.263185 
L 319.004739 267.118186 
L 319.139227 272.548716 
L 319.273715 270.063668 
L 319.408204 282.10707 
L 319.67718 281.618485 
L 320.080645 255.465968 
L 320.349621 148.500075 
L 320.618598 127.454642 
L 320.753086 140.861773 
L 320.887574 139.899225 
L 321.291039 176.027568 
L 321.694503 220.000348 
L 321.96348 264.962049 
L 322.097968 265.921325 
L 322.232456 261.609901 
L 322.366944 271.347345 
L 322.501433 269.917521 
L 322.635921 281.696821 
L 322.904897 280.303562 
L 323.308362 256.979956 
L 323.577338 154.681762 
L 323.711826 157.838528 
L 323.846315 171.685856 
L 324.115291 147.908272 
L 324.518756 166.257553 
L 325.191197 262.465473 
L 325.325685 264.102606 
L 325.460173 260.013315 
L 325.594661 269.434041 
L 325.72915 269.287693 
L 325.863638 278.492721 
L 326.132614 280.633053 
L 326.401591 269.504183 
L 326.536079 253.718765 
L 326.805055 147.143854 
L 327.074032 170.255936 
L 327.343008 152.214652 
L 327.611985 166.494007 
L 327.746473 170.274066 
L 327.880961 181.332655 
L 328.149937 227.191568 
L 328.418914 254.531067 
L 328.553402 261.672282 
L 328.68789 262.477532 
L 328.822379 274.868548 
L 328.956867 274.549718 
L 329.091355 283.751821 
L 329.225843 281.69452 
L 329.360331 281.596304 
L 329.763796 252.245842 
L 330.032772 162.041908 
L 330.167261 162.819657 
L 330.301749 171.423732 
L 330.570725 155.466081 
L 330.705214 155.494534 
L 330.97419 185.74294 
L 331.243166 201.516868 
L 331.646631 260.781088 
L 331.781119 262.279164 
L 331.915607 260.199591 
L 332.050096 269.347803 
L 332.184584 270.738399 
L 332.319072 281.968618 
L 332.45356 281.214073 
L 332.722537 273.015551 
L 332.991513 252.611209 
L 333.26049 158.698113 
L 333.394978 163.038178 
L 333.529466 175.728416 
L 333.798442 158.778678 
L 334.067419 171.316722 
L 334.470883 206.233087 
L 334.874348 266.235431 
L 335.008836 266.455306 
L 335.143325 266.389027 
L 335.277813 277.103578 
L 335.815766 266.303081 
L 336.084742 268.511126 
L 336.21923 265.102118 
L 336.488207 252.764231 
L 336.757183 248.730791 
L 336.891671 251.457872 
L 337.02616 250.919024 
L 337.429624 258.771111 
L 338.102065 267.898538 
L 338.236553 267.811606 
L 338.371042 266.02552 
L 338.50553 270.009583 
L 338.640018 265.201366 
L 338.908995 264.080325 
L 339.312459 265.764855 
L 339.581436 268.258782 
L 339.850412 267.142765 
L 340.119388 268.90757 
L 340.253877 269.41317 
L 340.388365 269.086572 
L 340.522853 270.960388 
L 340.657341 269.120065 
L 340.926318 270.940446 
L 341.060806 271.02525 
L 341.195294 267.526823 
L 341.464271 269.957882 
L 341.598759 268.084655 
L 341.733247 272.864701 
L 341.867735 273.018842 
L 342.002223 282.616152 
L 342.2712 281.099517 
L 342.405688 277.005695 
L 342.674664 255.957947 
L 343.078129 137.25051 
L 343.347106 167.893526 
L 343.481594 161.319011 
L 344.154035 200.820962 
L 344.423011 255.04012 
L 344.557499 265.998752 
L 344.691988 263.762587 
L 344.826476 265.397922 
L 344.960964 275.1746 
L 345.095452 274.733268 
L 345.22994 280.462576 
L 345.364429 279.039253 
L 345.498917 279.363211 
L 345.767893 268.342088 
L 345.902382 255.676711 
L 346.171358 163.519549 
L 346.305846 172.540918 
L 346.440334 173.533788 
L 346.574823 170.668546 
L 346.709311 162.714886 
L 347.381752 206.949331 
L 347.785217 262.409884 
L 347.919705 264.937084 
L 348.054193 264.813594 
L 348.188681 273.910909 
L 348.323169 272.2502 
L 348.457658 282.114877 
L 348.592146 280.937198 
L 348.726634 283.245395 
L 348.99561 267.28556 
L 349.130099 253.436088 
L 349.399075 160.957927 
L 349.533563 165.998185 
L 349.80254 162.700695 
L 349.937028 156.258031 
L 350.474981 193.086999 
L 350.878445 254.515297 
L 351.147422 269.400089 
L 351.28191 267.283295 
L 351.416398 274.933623 
L 351.550886 273.761762 
L 351.685375 285.189927 
L 352.223328 273.378194 
L 352.357816 259.502386 
L 352.626792 156.024063 
L 352.895769 171.723254 
L 353.030257 170.311321 
L 353.164745 157.847617 
L 353.299233 169.268206 
L 353.433721 170.716278 
L 353.56821 169.897708 
L 353.702698 165.472838 
L 354.106163 259.008817 
L 354.375139 269.85716 
L 354.509627 268.440502 
L 354.778604 277.258711 
L 354.913092 280.713174 
L 355.182068 278.746614 
L 355.316556 276.589015 
L 355.451045 272.073094 
L 355.585533 254.912004 
L 355.854509 180.301904 
L 355.988998 179.193117 
L 356.257974 154.019773 
L 356.392462 156.334516 
L 356.930415 188.705506 
L 357.33388 259.086711 
L 357.468368 270.15669 
L 357.602856 270.841042 
L 357.737344 269.604787 
L 358.006321 282.354426 
L 358.275297 278.045248 
L 358.678762 273.869633 
L 358.81325 272.647959 
L 359.082226 252.706807 
L 359.216715 247.284395 
L 359.351203 251.417423 
L 359.485691 250.219573 
L 359.620179 245.018269 
L 359.754667 257.627216 
L 359.889156 259.404783 
L 360.023644 259.658791 
L 360.158132 262.598716 
L 360.427109 274.626583 
L 360.561597 273.674798 
L 360.696085 273.936777 
L 360.830573 275.072968 
L 360.965061 274.553723 
L 361.09955 281.181606 
L 361.503014 274.952718 
L 361.637502 276.505982 
L 361.906479 275.993634 
L 362.309944 280.801315 
L 362.444432 281.354481 
L 362.713408 277.692676 
L 362.847896 278.249576 
L 362.982385 279.403826 
L 363.251361 278.153213 
L 363.520337 278.671314 
L 363.789314 275.665829 
L 363.923802 275.345463 
L 364.05829 274.715935 
L 364.192778 280.604798 
L 364.327267 246.081889 
L 364.596243 241.474553 
L 364.730731 254.532683 
L 364.86522 254.242758 
L 364.999708 250.189447 
L 365.268684 194.701434 
L 365.537661 117.494547 
L 365.672149 102.093501 
L 365.806637 104.890305 
L 365.941125 103.409322 
L 366.075613 105.511584 
L 366.479078 132.406153 
L 366.613566 153.553545 
L 366.882543 237.841024 
L 367.151519 252.682587 
L 367.420496 260.270818 
L 367.689472 267.502044 
L 367.82396 268.429661 
L 367.958448 267.554689 
L 368.092937 268.397543 
L 368.496401 175.341545 
L 368.765378 89.634118 
L 368.899866 89.905282 
L 369.034354 95.647905 
L 369.303331 86.318594 
L 369.437819 92.069914 
L 369.841283 143.910947 
L 370.244748 240.484388 
L 370.513724 247.597937 
L 370.917189 284.117064 
L 371.051677 284.832649 
L 371.186166 274.338235 
L 371.320654 275.275489 
L 371.58963 246.981245 
L 371.858607 161.011228 
L 371.993095 157.012889 
L 372.262071 206.432951 
L 372.396559 197.176306 
L 372.531048 196.777001 
L 372.665536 195.684584 
L 372.800024 197.370697 
L 372.934512 204.675073 
L 373.203489 235.000614 
L 373.472465 257.305949 
L 373.741442 262.220206 
L 374.279394 292.089763 
L 374.548371 282.368438 
L 374.817347 253.549899 
L 375.086324 191.584585 
L 375.3553 176.275497 
L 375.489788 176.370848 
L 375.624277 175.723273 
L 375.758765 178.443385 
L 376.162229 201.671668 
L 376.565694 256.034326 
L 376.700182 264.234109 
L 376.83467 265.503612 
L 376.969159 263.192779 
L 377.238135 284.236683 
L 377.372623 282.375348 
L 377.507112 282.594772 
L 377.776088 273.556918 
L 377.910576 278.734873 
L 378.045064 275.379617 
L 378.179553 276.379882 
L 378.314041 257.512474 
L 378.448529 260.279244 
L 378.583017 250.497906 
L 378.717505 259.775194 
L 378.851994 257.618457 
L 378.986482 269.753371 
L 379.12097 267.087665 
L 379.389947 270.706093 
L 379.927899 276.304366 
L 380.062388 276.795176 
L 380.196876 275.491531 
L 380.331364 281.380308 
L 380.465852 265.059383 
L 380.734829 263.016656 
L 380.869317 270.285333 
L 381.003805 267.917262 
L 381.40727 199.806976 
L 381.676246 143.05675 
L 381.810734 144.774275 
L 381.945223 139.525437 
L 382.079711 140.936498 
L 382.348687 149.483026 
L 382.483175 146.567761 
L 383.290105 267.600746 
L 383.424593 264.678881 
L 383.559081 270.148897 
L 383.828058 258.142011 
L 383.962546 254.606229 
L 384.231522 256.451557 
L 384.36601 251.947057 
L 384.500499 253.97076 
L 384.903963 151.677821 
L 385.038451 157.673427 
L 385.17294 143.178127 
L 385.307428 149.663898 
L 385.441916 166.065687 
L 385.710893 170.632386 
L 386.248845 256.235149 
L 386.383334 268.11265 
L 386.517822 266.652867 
L 386.65231 267.458074 
L 386.921286 282.744519 
L 387.055775 280.842024 
L 387.190263 279.095757 
L 387.459239 273.919422 
L 387.593727 274.135042 
L 387.728216 275.584088 
L 387.862704 275.696038 
L 387.997192 278.415833 
L 388.13168 276.580077 
L 388.266169 280.648654 
L 388.535145 278.412829 
L 388.804121 279.581931 
L 388.93861 281.879181 
L 389.073098 278.914507 
L 389.611051 284.462088 
L 389.880027 281.612878 
L 390.014515 285.052217 
L 390.283492 262.539388 
L 390.41798 259.806494 
L 390.552468 267.889757 
L 390.686956 264.115344 
L 390.821445 253.475149 
L 390.955933 253.777652 
L 391.090421 239.628242 
L 391.359397 175.266587 
L 391.493886 159.043591 
L 391.89735 178.048295 
L 392.166327 174.079831 
L 392.435303 201.113094 
L 392.838768 273.744373 
L 392.973256 272.786475 
L 393.107744 269.503697 
L 393.242232 272.713105 
L 393.511209 261.397267 
L 393.780185 269.322836 
L 394.18365 246.826972 
L 394.587115 156.073861 
L 394.721603 155.665714 
L 394.856091 143.493661 
L 395.259556 148.94675 
L 395.528532 172.266567 
L 395.931997 244.520363 
L 396.200973 261.352558 
L 396.335461 259.641557 
L 396.46995 261.19207 
L 396.604438 285.047479 
L 396.738926 286.597518 
L 396.873414 290.31233 
L 397.007902 277.79237 
L 397.142391 281.438529 
L 397.411367 256.429759 
L 397.680343 173.097917 
L 397.814832 174.761099 
L 398.083808 165.714714 
L 398.218296 152.558294 
L 398.352785 167.160673 
L 398.487273 164.24329 
L 398.487273 164.24329 
" clip-path="url(#p98f7d7b080)" style="fill: none; stroke: #ff7f0e; stroke-width: 1.5; stroke-linecap: square"/>
   </g>
   <g id="patch_3">
    <path d="M 57.6 307.584 
L 57.6 41.472 
" style="fill: none; stroke: #000000; stroke-width: 0.8; stroke-linejoin: miter; stroke-linecap: square"/>
   </g>
   <g id="patch_4">
    <path d="M 414.72 307.584 
L 414.72 41.472 
" style="fill: none; stroke: #000000; stroke-width: 0.8; stroke-linejoin: miter; stroke-linecap: square"/>
   </g>
   <g id="patch_5">
    <path d="M 57.6 307.584 
L 414.72 307.584 
" style="fill: none; stroke: #000000; stroke-width: 0.8; stroke-linejoin: miter; stroke-linecap: square"/>
   </g>
   <g id="patch_6">
    <path d="M 57.6 41.472 
L 414.72 41.472 
" style="fill: none; stroke: #000000; stroke-width: 0.8; stroke-linejoin: miter; stroke-linecap: square"/>
   </g>
  </g>
 </g>
 <defs>
  <clipPath id="p98f7d7b080">
   <rect x="57.6" y="41.472" width="357.12" height="266.112"/>
  </clipPath>
 </defs>
</svg>
