<?xml version="1.0" encoding="utf-8" standalone="no"?>
<!DOCTYPE svg PUBLIC "-//W3C//DTD SVG 1.1//EN"
  "http://www.w3.org/Graphics/SVG/1.1/DTD/svg11.dtd">
<svg xmlns:xlink="http://www.w3.org/1999/xlink" width="460.8pt" height="345.6pt" viewBox="0 0 460.8 345.6" xmlns="http://www.w3.org/2000/svg" version="1.1">
 <metadata>
  <rdf:RDF xmlns:dc="http://purl.org/dc/elements/1.1/" xmlns:cc="http://creativecommons.org/ns#" xmlns:rdf="http://www.w3.org/1999/02/22-rdf-syntax-ns#">
   <cc:Work>
    <dc:type rdf:resource="http://purl.org/dc/dcmitype/StillImage"/>
    <dc:date>2023-04-04T03:34:10.050747</dc:date>
    <dc:format>image/svg+xml</dc:format>
    <dc:creator>
     <cc:Agent>
      <dc:title>Matplotlib v3.5.2, https://matplotlib.org/</dc:title>
     </cc:Agent>
    </dc:creator>
   </cc:Work>
  </rdf:RDF>
 </metadata>
 <defs>
  <style type="text/css">*{stroke-linejoin: round; stroke-linecap: butt}</style>
 </defs>
 <g id="figure_1">
  <g id="patch_1">
   <path d="M 0 345.6 
L 460.8 345.6 
L 460.8 0 
L 0 0 
z
" style="fill: #ffffff"/>
  </g>
  <g id="axes_1">
   <g id="patch_2">
    <path d="M 57.6 307.584 
L 414.72 307.584 
L 414.72 41.472 
L 57.6 41.472 
z
" style="fill: #ffffff"/>
   </g>
   <g id="matplotlib.axis_1">
    <g id="xtick_1">
     <g id="line2d_1">
      <defs>
       <path id="mca85a43cd0" d="M 0 0 
L 0 3.5 
" style="stroke: #000000; stroke-width: 0.8"/>
      </defs>
      <g>
       <use xlink:href="#mca85a43cd0" x="73.832727" y="307.584" style="stroke: #000000; stroke-width: 0.8"/>
      </g>
     </g>
     <g id="text_1">
      <!-- 0 -->
      <g transform="translate(70.651477 322.182437)scale(0.1 -0.1)">
       <defs>
        <path id="DejaVuSans-30" d="M 2034 4250 
Q 1547 4250 1301 3770 
Q 1056 3291 1056 2328 
Q 1056 1369 1301 889 
Q 1547 409 2034 409 
Q 2525 409 2770 889 
Q 3016 1369 3016 2328 
Q 3016 3291 2770 3770 
Q 2525 4250 2034 4250 
z
M 2034 4750 
Q 2819 4750 3233 4129 
Q 3647 3509 3647 2328 
Q 3647 1150 3233 529 
Q 2819 -91 2034 -91 
Q 1250 -91 836 529 
Q 422 1150 422 2328 
Q 422 3509 836 4129 
Q 1250 4750 2034 4750 
z
" transform="scale(0.015625)"/>
       </defs>
       <use xlink:href="#DejaVuSans-30"/>
      </g>
     </g>
    </g>
    <g id="xtick_2">
     <g id="line2d_2">
      <g>
       <use xlink:href="#mca85a43cd0" x="141.076834" y="307.584" style="stroke: #000000; stroke-width: 0.8"/>
      </g>
     </g>
     <g id="text_2">
      <!-- 500 -->
      <g transform="translate(131.533084 322.182437)scale(0.1 -0.1)">
       <defs>
        <path id="DejaVuSans-35" d="M 691 4666 
L 3169 4666 
L 3169 4134 
L 1269 4134 
L 1269 2991 
Q 1406 3038 1543 3061 
Q 1681 3084 1819 3084 
Q 2600 3084 3056 2656 
Q 3513 2228 3513 1497 
Q 3513 744 3044 326 
Q 2575 -91 1722 -91 
Q 1428 -91 1123 -41 
Q 819 9 494 109 
L 494 744 
Q 775 591 1075 516 
Q 1375 441 1709 441 
Q 2250 441 2565 725 
Q 2881 1009 2881 1497 
Q 2881 1984 2565 2268 
Q 2250 2553 1709 2553 
Q 1456 2553 1204 2497 
Q 953 2441 691 2322 
L 691 4666 
z
" transform="scale(0.015625)"/>
       </defs>
       <use xlink:href="#DejaVuSans-35"/>
       <use xlink:href="#DejaVuSans-30" x="63.623047"/>
       <use xlink:href="#DejaVuSans-30" x="127.246094"/>
      </g>
     </g>
    </g>
    <g id="xtick_3">
     <g id="line2d_3">
      <g>
       <use xlink:href="#mca85a43cd0" x="208.32094" y="307.584" style="stroke: #000000; stroke-width: 0.8"/>
      </g>
     </g>
     <g id="text_3">
      <!-- 1000 -->
      <g transform="translate(195.59594 322.182437)scale(0.1 -0.1)">
       <defs>
        <path id="DejaVuSans-31" d="M 794 531 
L 1825 531 
L 1825 4091 
L 703 3866 
L 703 4441 
L 1819 4666 
L 2450 4666 
L 2450 531 
L 3481 531 
L 3481 0 
L 794 0 
L 794 531 
z
" transform="scale(0.015625)"/>
       </defs>
       <use xlink:href="#DejaVuSans-31"/>
       <use xlink:href="#DejaVuSans-30" x="63.623047"/>
       <use xlink:href="#DejaVuSans-30" x="127.246094"/>
       <use xlink:href="#DejaVuSans-30" x="190.869141"/>
      </g>
     </g>
    </g>
    <g id="xtick_4">
     <g id="line2d_4">
      <g>
       <use xlink:href="#mca85a43cd0" x="275.565046" y="307.584" style="stroke: #000000; stroke-width: 0.8"/>
      </g>
     </g>
     <g id="text_4">
      <!-- 1500 -->
      <g transform="translate(262.840046 322.182437)scale(0.1 -0.1)">
       <use xlink:href="#DejaVuSans-31"/>
       <use xlink:href="#DejaVuSans-35" x="63.623047"/>
       <use xlink:href="#DejaVuSans-30" x="127.246094"/>
       <use xlink:href="#DejaVuSans-30" x="190.869141"/>
      </g>
     </g>
    </g>
    <g id="xtick_5">
     <g id="line2d_5">
      <g>
       <use xlink:href="#mca85a43cd0" x="342.809153" y="307.584" style="stroke: #000000; stroke-width: 0.8"/>
      </g>
     </g>
     <g id="text_5">
      <!-- 2000 -->
      <g transform="translate(330.084153 322.182437)scale(0.1 -0.1)">
       <defs>
        <path id="DejaVuSans-32" d="M 1228 531 
L 3431 531 
L 3431 0 
L 469 0 
L 469 531 
Q 828 903 1448 1529 
Q 2069 2156 2228 2338 
Q 2531 2678 2651 2914 
Q 2772 3150 2772 3378 
Q 2772 3750 2511 3984 
Q 2250 4219 1831 4219 
Q 1534 4219 1204 4116 
Q 875 4013 500 3803 
L 500 4441 
Q 881 4594 1212 4672 
Q 1544 4750 1819 4750 
Q 2544 4750 2975 4387 
Q 3406 4025 3406 3419 
Q 3406 3131 3298 2873 
Q 3191 2616 2906 2266 
Q 2828 2175 2409 1742 
Q 1991 1309 1228 531 
z
" transform="scale(0.015625)"/>
       </defs>
       <use xlink:href="#DejaVuSans-32"/>
       <use xlink:href="#DejaVuSans-30" x="63.623047"/>
       <use xlink:href="#DejaVuSans-30" x="127.246094"/>
       <use xlink:href="#DejaVuSans-30" x="190.869141"/>
      </g>
     </g>
    </g>
    <g id="xtick_6">
     <g id="line2d_6">
      <g>
       <use xlink:href="#mca85a43cd0" x="410.053259" y="307.584" style="stroke: #000000; stroke-width: 0.8"/>
      </g>
     </g>
     <g id="text_6">
      <!-- 2500 -->
      <g transform="translate(397.328259 322.182437)scale(0.1 -0.1)">
       <use xlink:href="#DejaVuSans-32"/>
       <use xlink:href="#DejaVuSans-35" x="63.623047"/>
       <use xlink:href="#DejaVuSans-30" x="127.246094"/>
       <use xlink:href="#DejaVuSans-30" x="190.869141"/>
      </g>
     </g>
    </g>
   </g>
   <g id="matplotlib.axis_2">
    <g id="ytick_1">
     <g id="line2d_7">
      <defs>
       <path id="md0e1a44803" d="M 0 0 
L -3.5 0 
" style="stroke: #000000; stroke-width: 0.8"/>
      </defs>
      <g>
       <use xlink:href="#md0e1a44803" x="57.6" y="278.958538" style="stroke: #000000; stroke-width: 0.8"/>
      </g>
     </g>
     <g id="text_7">
      <!-- 100 -->
      <g transform="translate(31.5125 282.757757)scale(0.1 -0.1)">
       <use xlink:href="#DejaVuSans-31"/>
       <use xlink:href="#DejaVuSans-30" x="63.623047"/>
       <use xlink:href="#DejaVuSans-30" x="127.246094"/>
      </g>
     </g>
    </g>
    <g id="ytick_2">
     <g id="line2d_8">
      <g>
       <use xlink:href="#md0e1a44803" x="57.6" y="231.465805" style="stroke: #000000; stroke-width: 0.8"/>
      </g>
     </g>
     <g id="text_8">
      <!-- 200 -->
      <g transform="translate(31.5125 235.265024)scale(0.1 -0.1)">
       <use xlink:href="#DejaVuSans-32"/>
       <use xlink:href="#DejaVuSans-30" x="63.623047"/>
       <use xlink:href="#DejaVuSans-30" x="127.246094"/>
      </g>
     </g>
    </g>
    <g id="ytick_3">
     <g id="line2d_9">
      <g>
       <use xlink:href="#md0e1a44803" x="57.6" y="183.973072" style="stroke: #000000; stroke-width: 0.8"/>
      </g>
     </g>
     <g id="text_9">
      <!-- 300 -->
      <g transform="translate(31.5125 187.772291)scale(0.1 -0.1)">
       <defs>
        <path id="DejaVuSans-33" d="M 2597 2516 
Q 3050 2419 3304 2112 
Q 3559 1806 3559 1356 
Q 3559 666 3084 287 
Q 2609 -91 1734 -91 
Q 1441 -91 1130 -33 
Q 819 25 488 141 
L 488 750 
Q 750 597 1062 519 
Q 1375 441 1716 441 
Q 2309 441 2620 675 
Q 2931 909 2931 1356 
Q 2931 1769 2642 2001 
Q 2353 2234 1838 2234 
L 1294 2234 
L 1294 2753 
L 1863 2753 
Q 2328 2753 2575 2939 
Q 2822 3125 2822 3475 
Q 2822 3834 2567 4026 
Q 2313 4219 1838 4219 
Q 1578 4219 1281 4162 
Q 984 4106 628 3988 
L 628 4550 
Q 988 4650 1302 4700 
Q 1616 4750 1894 4750 
Q 2613 4750 3031 4423 
Q 3450 4097 3450 3541 
Q 3450 3153 3228 2886 
Q 3006 2619 2597 2516 
z
" transform="scale(0.015625)"/>
       </defs>
       <use xlink:href="#DejaVuSans-33"/>
       <use xlink:href="#DejaVuSans-30" x="63.623047"/>
       <use xlink:href="#DejaVuSans-30" x="127.246094"/>
      </g>
     </g>
    </g>
    <g id="ytick_4">
     <g id="line2d_10">
      <g>
       <use xlink:href="#md0e1a44803" x="57.6" y="136.480339" style="stroke: #000000; stroke-width: 0.8"/>
      </g>
     </g>
     <g id="text_10">
      <!-- 400 -->
      <g transform="translate(31.5125 140.279558)scale(0.1 -0.1)">
       <defs>
        <path id="DejaVuSans-34" d="M 2419 4116 
L 825 1625 
L 2419 1625 
L 2419 4116 
z
M 2253 4666 
L 3047 4666 
L 3047 1625 
L 3713 1625 
L 3713 1100 
L 3047 1100 
L 3047 0 
L 2419 0 
L 2419 1100 
L 313 1100 
L 313 1709 
L 2253 4666 
z
" transform="scale(0.015625)"/>
       </defs>
       <use xlink:href="#DejaVuSans-34"/>
       <use xlink:href="#DejaVuSans-30" x="63.623047"/>
       <use xlink:href="#DejaVuSans-30" x="127.246094"/>
      </g>
     </g>
    </g>
    <g id="ytick_5">
     <g id="line2d_11">
      <g>
       <use xlink:href="#md0e1a44803" x="57.6" y="88.987606" style="stroke: #000000; stroke-width: 0.8"/>
      </g>
     </g>
     <g id="text_11">
      <!-- 500 -->
      <g transform="translate(31.5125 92.786824)scale(0.1 -0.1)">
       <use xlink:href="#DejaVuSans-35"/>
       <use xlink:href="#DejaVuSans-30" x="63.623047"/>
       <use xlink:href="#DejaVuSans-30" x="127.246094"/>
      </g>
     </g>
    </g>
    <g id="ytick_6">
     <g id="line2d_12">
      <g>
       <use xlink:href="#md0e1a44803" x="57.6" y="41.494872" style="stroke: #000000; stroke-width: 0.8"/>
      </g>
     </g>
     <g id="text_12">
      <!-- 600 -->
      <g transform="translate(31.5125 45.294091)scale(0.1 -0.1)">
       <defs>
        <path id="DejaVuSans-36" d="M 2113 2584 
Q 1688 2584 1439 2293 
Q 1191 2003 1191 1497 
Q 1191 994 1439 701 
Q 1688 409 2113 409 
Q 2538 409 2786 701 
Q 3034 994 3034 1497 
Q 3034 2003 2786 2293 
Q 2538 2584 2113 2584 
z
M 3366 4563 
L 3366 3988 
Q 3128 4100 2886 4159 
Q 2644 4219 2406 4219 
Q 1781 4219 1451 3797 
Q 1122 3375 1075 2522 
Q 1259 2794 1537 2939 
Q 1816 3084 2150 3084 
Q 2853 3084 3261 2657 
Q 3669 2231 3669 1497 
Q 3669 778 3244 343 
Q 2819 -91 2113 -91 
Q 1303 -91 875 529 
Q 447 1150 447 2328 
Q 447 3434 972 4092 
Q 1497 4750 2381 4750 
Q 2619 4750 2861 4703 
Q 3103 4656 3366 4563 
z
" transform="scale(0.015625)"/>
       </defs>
       <use xlink:href="#DejaVuSans-36"/>
       <use xlink:href="#DejaVuSans-30" x="63.623047"/>
       <use xlink:href="#DejaVuSans-30" x="127.246094"/>
      </g>
     </g>
    </g>
   </g>
   <g id="line2d_13">
    <path d="M 73.832727 282.009472 
L 74.101704 281.46378 
L 74.236192 280.360524 
L 74.37068 281.317977 
L 74.505168 280.828802 
L 74.639657 281.426736 
L 74.774145 274.998119 
L 74.908633 248.063091 
L 75.177609 246.579893 
L 75.312098 247.131758 
L 75.446586 247.184 
L 75.581074 248.045043 
L 75.715562 247.293708 
L 75.85005 247.271862 
L 76.253515 242.31932 
L 76.522492 276.152668 
L 76.65698 276.463745 
L 76.925956 274.768255 
L 77.060444 265.970701 
L 77.194933 268.199535 
L 77.463909 268.2627 
L 77.598397 269.836609 
L 77.732885 264.545444 
L 77.867374 251.226582 
L 78.405327 103.775418 
L 78.674303 102.859758 
L 78.808791 109.950898 
L 78.943279 105.179778 
L 79.481232 157.531018 
L 79.750209 227.443646 
L 80.019185 261.936668 
L 80.153673 264.04677 
L 80.288161 260.237378 
L 80.42265 270.564673 
L 80.557138 270.132964 
L 80.826114 272.623958 
L 80.960603 270.100669 
L 81.095091 259.855061 
L 81.364067 167.651244 
L 81.498555 179.87065 
L 81.767532 160.594299 
L 82.036508 168.544108 
L 82.170996 165.463729 
L 82.305485 159.528562 
L 83.112414 259.380134 
L 83.650367 285.390479 
L 83.784855 285.410901 
L 83.919343 286.929244 
L 84.053831 287.120165 
L 84.18832 285.037133 
L 84.322808 277.860506 
L 84.726273 188.325781 
L 84.860761 179.718198 
L 84.995249 183.787375 
L 85.129737 169.004312 
L 85.264225 177.489364 
L 85.398714 178.231675 
L 85.66769 186.472615 
L 85.802178 195.184207 
L 86.340131 261.491661 
L 86.474619 263.491105 
L 86.609107 268.368609 
L 86.878084 285.769946 
L 87.012572 288.005904 
L 87.14706 287.681529 
L 87.281549 289.162352 
L 87.416037 289.065942 
L 87.550525 288.25999 
L 87.819501 260.939795 
L 87.95399 261.084648 
L 88.088478 255.436338 
L 88.222966 256.886291 
L 88.357454 256.133531 
L 88.491942 252.797641 
L 88.626431 255.613485 
L 88.760919 248.666248 
L 88.895407 251.524361 
L 89.029895 251.522936 
L 89.164384 254.066647 
L 89.43336 275.225135 
L 89.567848 276.877407 
L 89.702336 276.382533 
L 89.836825 277.435446 
L 89.971313 262.387374 
L 90.105801 263.095966 
L 90.240289 264.629981 
L 90.374777 264.401066 
L 90.509266 265.628753 
L 90.643754 265.799252 
L 90.778242 267.884658 
L 90.91273 264.683173 
L 91.047218 254.810858 
L 91.181707 253.647761 
L 91.316195 246.76274 
L 91.450683 251.167691 
L 91.585171 249.214789 
L 91.71966 250.703212 
L 91.854148 250.927852 
L 92.123124 253.890924 
L 92.257612 253.321961 
L 92.526589 258.880036 
L 92.795565 265.433558 
L 92.930053 266.382463 
L 93.064542 265.249286 
L 93.19903 275.201863 
L 93.468006 275.325819 
L 93.602495 276.379683 
L 93.736983 275.153421 
L 93.871471 272.646279 
L 94.005959 267.460073 
L 94.6784 160.87973 
L 94.812888 156.509449 
L 95.081865 168.296671 
L 95.216353 163.111889 
L 95.350841 151.914052 
L 96.023282 263.815955 
L 96.157771 264.541169 
L 96.426747 268.445072 
L 96.561235 268.113573 
L 96.695723 268.190511 
L 96.830212 270.0622 
L 96.9647 269.428172 
L 97.099188 268.009089 
L 97.233676 259.591002 
L 97.368164 242.130773 
L 97.502653 201.348288 
L 97.637141 194.293718 
L 97.771629 178.911296 
L 97.906117 187.258144 
L 98.040606 180.583991 
L 98.175094 181.289733 
L 98.309582 176.001417 
L 98.44407 177.634217 
L 98.713047 188.937487 
L 98.982023 230.640856 
L 99.250999 265.28918 
L 99.385488 269.948692 
L 99.519976 270.698602 
L 99.654464 280.447436 
L 99.788952 280.459784 
L 99.923441 279.464336 
L 100.192417 280.695348 
L 100.326905 280.77561 
L 100.461393 280.124485 
L 100.595882 280.528173 
L 100.73037 281.352172 
L 100.864858 279.822431 
L 100.999346 280.971755 
L 101.133834 280.068919 
L 101.268323 277.866206 
L 101.402811 270.880974 
L 101.537299 275.128724 
L 101.806276 264.801905 
L 101.940764 266.950476 
L 102.075252 266.802773 
L 102.20974 267.44725 
L 102.344228 269.812388 
L 102.478717 275.597478 
L 102.613205 273.75571 
L 102.747693 279.393572 
L 102.882181 266.012494 
L 103.016669 266.04099 
L 103.151158 270.919443 
L 103.285646 270.701452 
L 103.554622 266.544413 
L 103.68911 262.379775 
L 103.823599 245.053001 
L 104.092575 183.138625 
L 104.227063 161.777343 
L 104.361552 168.901253 
L 104.630528 144.167987 
L 105.033993 159.398432 
L 105.168481 170.117067 
L 105.706434 252.709305 
L 105.840922 252.587723 
L 105.97541 261.2371 
L 106.109898 277.576025 
L 106.378875 280.747115 
L 106.513363 280.733342 
L 106.647851 282.878114 
L 106.782339 282.611205 
L 106.916828 283.71636 
L 107.320292 246.358102 
L 107.45478 253.381802 
L 107.589269 250.862312 
L 107.723757 250.954448 
L 108.26171 245.920219 
L 108.396198 242.532562 
L 108.530686 244.779443 
L 108.934151 276.209659 
L 109.068639 277.716129 
L 109.203127 276.655141 
L 109.337615 272.185125 
L 109.606592 273.724839 
L 109.875568 274.771104 
L 110.144545 275.814045 
L 110.413521 274.583508 
L 110.548009 274.449578 
L 110.951474 270.423619 
L 111.085962 271.590041 
L 111.22045 271.244769 
L 111.623915 265.4839 
L 111.758403 265.988748 
L 112.02738 269.747323 
L 112.430844 271.335005 
L 112.565333 261.156837 
L 112.834309 265.330499 
L 112.968797 265.850544 
L 113.103285 267.34989 
L 113.237774 267.527038 
L 113.50675 270.12679 
L 113.641238 270.951264 
L 114.313679 259.794746 
L 114.448168 259.436176 
L 114.582656 257.964376 
L 114.98612 247.209646 
L 115.524073 258.193766 
L 115.658561 258.739932 
L 115.927538 260.949769 
L 116.062026 259.675064 
L 116.196514 265.728488 
L 116.331002 265.314351 
L 116.465491 265.920833 
L 116.599979 256.23659 
L 117.137932 78.932919 
L 117.406908 64.344576 
L 117.810373 80.756165 
L 118.213837 147.437387 
L 118.482814 209.294773 
L 118.75179 243.461045 
L 118.886279 244.983187 
L 119.289743 252.915423 
L 119.424231 254.322633 
L 119.55872 257.072462 
L 119.693208 257.386864 
L 119.827696 247.845099 
L 120.365649 91.691367 
L 120.634625 73.267986 
L 120.769114 76.9311 
L 120.903602 70.5609 
L 121.03809 71.878823 
L 121.441555 134.822842 
L 121.710531 201.140745 
L 121.845019 229.104467 
L 122.248484 239.985052 
L 122.51746 255.381721 
L 122.651948 255.539872 
L 122.786437 257.265283 
L 122.920925 255.935011 
L 123.055413 247.837025 
L 123.727854 60.418352 
L 123.862342 53.568 
L 124.534783 107.284181 
L 125.072736 247.143631 
L 125.207225 252.274746 
L 125.341713 252.734476 
L 125.476201 252.688408 
L 125.745177 266.183468 
L 125.879666 267.6092 
L 126.014154 267.837165 
L 126.28313 254.489332 
L 126.821083 92.788449 
L 126.955571 74.57831 
L 127.09006 81.125658 
L 127.359036 105.474708 
L 127.493524 107.898737 
L 127.762501 126.253729 
L 127.896989 148.881166 
L 128.300453 245.538377 
L 128.434942 251.295921 
L 128.56943 249.482648 
L 128.703918 256.926185 
L 128.838406 257.64475 
L 129.241871 264.286608 
L 129.510847 243.734603 
L 130.0488 83.282778 
L 130.183288 74.243961 
L 130.317777 86.071077 
L 130.452265 114.67405 
L 130.586753 113.762665 
L 130.721241 110.143244 
L 130.855729 116.484473 
L 131.124706 169.349584 
L 131.393682 234.492042 
L 131.662659 257.41631 
L 131.931635 257.221589 
L 132.066123 257.040642 
L 132.3351 268.226131 
L 132.469588 268.078903 
L 132.604076 268.177213 
L 132.738564 268.135894 
L 133.007541 256.33585 
L 133.276517 245.956313 
L 133.679982 240.421035 
L 133.81447 239.247964 
L 133.948958 234.188089 
L 134.486911 243.989164 
L 134.755888 251.021413 
L 134.890376 250.90743 
L 135.697305 265.040318 
L 135.831793 269.753972 
L 135.966282 270.358554 
L 136.10077 268.391405 
L 136.235258 269.883152 
L 136.369746 269.611019 
L 136.504234 265.344746 
L 136.638723 265.187071 
L 136.907699 263.267414 
L 137.311164 252.468992 
L 137.445652 252.974789 
L 137.58014 250.313296 
L 137.983605 257.073412 
L 138.118093 256.178649 
L 138.252581 257.999045 
L 138.387069 262.455764 
L 138.521558 261.232351 
L 138.656046 261.43182 
L 138.925022 266.090382 
L 139.193999 249.973723 
L 139.731951 81.443385 
L 139.86644 72.595964 
L 140.269904 98.40304 
L 140.538881 122.640006 
L 140.673369 129.67558 
L 140.807857 143.923875 
L 141.076834 223.409613 
L 141.480298 256.340599 
L 142.018251 264.713568 
L 142.152739 264.253363 
L 142.421716 240.701717 
L 142.959669 91.364142 
L 143.094157 84.005618 
L 143.228645 83.521667 
L 143.363133 93.668014 
L 143.497621 84.465822 
L 143.63211 89.552769 
L 144.573527 257.578735 
L 144.708015 261.04143 
L 144.842504 261.215728 
L 145.11148 263.440763 
L 145.245968 265.567487 
L 145.380456 261.521107 
L 145.783921 200.826818 
L 146.052897 109.842615 
L 146.187386 90.869268 
L 146.456362 106.064568 
L 146.59085 117.299449 
L 146.725339 111.652563 
L 146.859827 119.009662 
L 146.994315 113.971158 
L 147.128803 126.732455 
L 147.532268 233.185992 
L 147.801244 259.005416 
L 147.935732 259.206311 
L 148.204709 264.43906 
L 148.339197 264.417688 
L 148.473685 264.917787 
L 148.742662 263.871997 
L 148.87715 246.311559 
L 149.280615 118.874783 
L 149.415103 114.863546 
L 149.549591 105.843726 
L 149.684079 107.090886 
L 150.087544 139.57924 
L 150.222032 131.939084 
L 150.35652 137.421645 
L 150.894473 251.477343 
L 151.028961 260.587399 
L 151.16345 259.63612 
L 151.835891 267.756427 
L 151.970379 266.492646 
L 152.104867 245.68418 
L 152.508332 112.905421 
L 152.64282 115.993398 
L 152.911796 104.219475 
L 153.046285 118.273999 
L 153.180773 116.783203 
L 153.449749 151.025463 
L 153.718726 191.69824 
L 153.987702 247.943884 
L 154.12219 264.880742 
L 154.256678 266.250433 
L 154.525655 270.086896 
L 154.794631 271.779537 
L 155.063608 274.704614 
L 155.198096 276.335515 
L 155.332584 275.696263 
L 155.467072 271.344503 
L 155.601561 260.938371 
L 155.736049 260.083027 
L 155.870537 257.236787 
L 156.005025 259.361612 
L 156.274002 257.4771 
L 156.40849 258.009969 
L 156.542978 259.255228 
L 156.677466 258.066485 
L 157.215419 266.022468 
L 157.349907 268.015263 
L 157.484396 267.029789 
L 157.618884 267.794897 
L 157.88786 270.949839 
L 158.022348 271.427616 
L 158.291325 274.406835 
L 158.560301 278.659809 
L 158.694789 277.103947 
L 158.829278 278.061876 
L 158.963766 277.668161 
L 159.232742 274.971998 
L 159.367231 275.252206 
L 159.501719 273.281732 
L 160.039672 259.291798 
L 160.308648 259.549208 
L 160.443136 265.230289 
L 160.577624 264.948657 
L 160.712113 263.006204 
L 160.846601 263.703398 
L 160.981089 265.185646 
L 161.250066 268.917625 
L 161.519042 269.86273 
L 161.788018 253.209878 
L 162.460459 83.705939 
L 162.594948 83.37159 
L 162.729436 81.922112 
L 162.998412 101.383209 
L 163.132901 110.269099 
L 163.401877 151.261977 
L 163.670853 221.523202 
L 164.074318 255.386945 
L 164.208806 256.512523 
L 164.477783 269.083849 
L 164.612271 271.429515 
L 164.746759 266.758605 
L 165.015735 249.365816 
L 165.4192 120.476712 
L 165.553688 123.058417 
L 165.822665 109.258454 
L 165.957153 114.478855 
L 166.091641 111.414624 
L 166.360618 100.037265 
L 166.495106 106.189473 
L 166.89857 220.629863 
L 167.033059 227.554779 
L 167.302035 245.820959 
L 167.974476 264.161228 
L 168.108964 258.52574 
L 168.243453 244.607994 
L 168.377941 206.787631 
L 168.646917 106.0166 
L 168.781405 107.29083 
L 168.915894 102.795643 
L 169.050382 104.08697 
L 169.18487 107.856943 
L 169.319358 92.632673 
L 169.453847 95.094221 
L 169.857311 148.109884 
L 170.126288 225.779975 
L 170.395264 256.387617 
L 170.529752 257.261483 
L 170.66424 260.675261 
L 170.798729 260.863332 
L 171.067705 263.174803 
L 171.202193 265.990173 
L 171.47117 244.349634 
L 172.009123 110.051583 
L 172.143611 108.485747 
L 172.412587 96.807759 
L 172.95054 129.08952 
L 173.622981 258.343843 
L 173.757469 262.306161 
L 173.891958 275.596053 
L 174.026446 274.673269 
L 174.160934 274.629576 
L 174.42991 276.150293 
L 174.698887 261.458891 
L 174.833375 244.450318 
L 175.102351 176.389907 
L 175.371328 143.240454 
L 175.505816 140.36002 
L 175.640304 150.4584 
L 175.774792 150.150172 
L 175.909281 151.549783 
L 176.043769 156.324702 
L 176.178257 156.018849 
L 176.312745 170.396799 
L 176.581722 237.61184 
L 176.850698 264.559692 
L 176.985186 262.081996 
L 177.254163 266.785676 
L 177.388651 266.742458 
L 177.792116 273.258461 
L 177.926604 274.14325 
L 178.19558 263.496804 
L 178.330069 263.059396 
L 178.599045 255.541296 
L 178.733533 254.979457 
L 178.868021 257.272882 
L 179.136998 253.785015 
L 179.271486 254.37725 
L 179.540462 251.907153 
L 179.809439 259.366361 
L 179.943927 266.591431 
L 180.212904 264.701695 
L 180.48188 274.507994 
L 180.616368 274.521767 
L 180.750856 274.891736 
L 180.885345 275.718109 
L 181.019833 275.804071 
L 181.692274 263.568993 
L 181.826762 264.856996 
L 181.96125 258.909481 
L 182.095738 260.68096 
L 182.364715 266.086583 
L 182.499203 267.357014 
L 182.633691 270.485835 
L 182.902668 269.672759 
L 183.171644 275.767027 
L 183.306132 277.174711 
L 183.440621 276.071455 
L 183.575109 273.783255 
L 183.844085 285.446521 
L 183.978573 286.392101 
L 184.113062 284.126698 
L 184.382038 272.808229 
L 184.919991 181.622657 
L 185.054479 185.614421 
L 185.188967 178.583597 
L 185.457944 182.421009 
L 185.592432 183.911331 
L 185.995897 221.442939 
L 186.264873 251.859185 
L 186.53385 267.522763 
L 186.802826 277.716129 
L 187.071802 288.151232 
L 187.206291 287.007607 
L 187.340779 288.135084 
L 187.475267 284.976343 
L 187.609755 277.025109 
L 188.01322 201.563431 
L 188.147708 185.2606 
L 188.282196 185.478117 
L 188.416684 184.525412 
L 188.551173 187.818084 
L 188.685661 194.18211 
L 188.820149 189.796156 
L 188.954637 194.205381 
L 189.089126 202.528958 
L 189.627078 264.167402 
L 189.761567 266.741033 
L 189.896055 271.946236 
L 190.030543 269.524582 
L 190.299519 271.345453 
L 190.434008 270.180931 
L 190.971961 273.585686 
L 191.106449 270.153386 
L 191.240937 269.67086 
L 191.375425 270.106843 
L 191.509913 265.703792 
L 191.644402 267.243981 
L 191.913378 265.985423 
L 192.182354 260.381756 
L 192.316843 260.728453 
L 192.451331 260.233104 
L 192.585819 261.546278 
L 192.720307 267.282925 
L 192.989284 268.533409 
L 193.392748 265.861467 
L 193.661725 268.727179 
L 193.796213 269.258623 
L 194.065189 261.416623 
L 194.603142 158.260031 
L 194.73763 153.376354 
L 194.872119 143.481243 
L 195.006607 145.048028 
L 195.141095 149.765006 
L 195.275583 142.408382 
L 195.54456 155.725819 
L 195.948024 249.218589 
L 196.217001 259.496491 
L 196.351489 261.412348 
L 196.485977 270.832057 
L 196.620465 270.183306 
L 196.889442 270.737071 
L 197.02393 271.859325 
L 197.158418 270.139138 
L 197.292907 263.853 
L 197.830859 195.521405 
L 197.965348 197.820053 
L 198.099836 194.520733 
L 198.234324 198.900038 
L 198.5033 185.649091 
L 198.772277 199.372116 
L 199.31023 271.504554 
L 199.713694 280.566167 
L 199.848183 279.40402 
L 200.117159 280.12781 
L 200.251647 278.354431 
L 200.386135 272.60781 
L 200.520624 272.206971 
L 200.655112 259.321243 
L 200.7896 212.361853 
L 200.924088 210.402778 
L 201.058576 198.784156 
L 201.193065 198.42796 
L 201.327553 195.757919 
L 201.462041 197.918363 
L 201.731018 186.184334 
L 201.865506 187.537877 
L 202.134482 210.106423 
L 202.403459 263.280712 
L 202.806923 273.024796 
L 203.0759 264.600535 
L 203.210388 268.903377 
L 203.344876 269.028758 
L 203.748341 259.704509 
L 203.882829 242.414305 
L 204.151805 180.799133 
L 204.420782 164.418889 
L 204.55527 158.821395 
L 204.689758 162.238972 
L 204.824246 155.775686 
L 204.958735 171.709973 
L 205.093223 171.955036 
L 205.765664 259.126998 
L 205.900152 259.63517 
L 206.03464 263.414167 
L 206.169129 278.180607 
L 206.303617 278.658859 
L 206.572593 282.575585 
L 206.84157 283.382487 
L 207.110546 274.046365 
L 207.379522 264.914462 
L 207.514011 264.041546 
L 207.917475 272.114361 
L 208.051964 271.869298 
L 208.32094 265.543741 
L 208.589916 267.136647 
L 208.858893 275.143447 
L 208.993381 278.776641 
L 209.127869 279.357002 
L 209.262357 278.81606 
L 209.396846 272.993926 
L 209.531334 274.085309 
L 209.80031 273.672597 
L 209.934799 274.658071 
L 210.203775 262.544575 
L 211.010704 108.280579 
L 211.279681 133.76043 
L 211.683145 166.677643 
L 212.221098 253.831083 
L 212.355586 256.281233 
L 212.759051 271.437589 
L 212.893539 271.231471 
L 213.028027 271.331205 
L 213.162516 273.965627 
L 213.431492 256.359596 
L 213.56598 218.489366 
L 213.834957 135.032285 
L 213.969445 139.592538 
L 214.103933 138.507329 
L 214.238421 141.452353 
L 214.910862 179.563372 
L 215.448815 259.419078 
L 215.583303 264.358322 
L 215.717792 264.972878 
L 216.121256 269.212555 
L 216.255745 270.164784 
L 216.390233 272.542745 
L 216.524721 268.55573 
L 216.659209 261.077049 
L 217.062674 148.59621 
L 217.197162 150.498294 
L 217.33165 150.578557 
L 217.466138 161.983462 
L 217.600627 160.706382 
L 217.735115 148.913461 
L 217.869603 154.116765 
L 218.273068 196.087518 
L 218.542044 254.60094 
L 218.811021 271.311733 
L 218.945509 263.931363 
L 219.483462 274.595856 
L 219.61795 276.384907 
L 219.886926 262.705575 
L 220.290391 161.645313 
L 220.693856 150.045213 
L 220.828344 160.65414 
L 220.962832 156.753562 
L 221.231808 183.767428 
L 221.500785 197.561693 
L 221.769761 254.465111 
L 222.038738 270.017556 
L 222.173226 269.268596 
L 222.307714 270.48726 
L 222.576691 276.506964 
L 222.845667 279.132362 
L 222.980155 277.468691 
L 223.114643 279.332306 
L 223.38362 258.885735 
L 223.518108 262.730746 
L 223.652596 262.57497 
L 223.921573 255.64863 
L 224.190549 254.979457 
L 224.325037 257.456203 
L 224.459525 256.830724 
L 224.728502 252.990462 
L 225.131967 260.224555 
L 225.266455 258.745631 
L 225.535431 260.210782 
L 225.669919 258.904257 
L 226.073384 268.625544 
L 226.34236 271.642283 
L 226.476849 271.570569 
L 226.745825 268.438423 
L 226.880313 270.7119 
L 227.014802 270.954113 
L 227.14929 270.658233 
L 227.283778 269.244375 
L 227.418266 270.914694 
L 227.552754 271.042925 
L 227.687243 270.874325 
L 227.956219 269.769644 
L 228.090707 275.563758 
L 228.225195 275.602702 
L 228.359684 276.700259 
L 228.494172 275.930402 
L 228.62866 276.897829 
L 228.763148 276.783846 
L 228.897637 274.504195 
L 229.301101 275.404657 
L 229.435589 269.213979 
L 229.570078 255.182726 
L 230.242519 94.345261 
L 230.377007 79.563148 
L 230.511495 109.432277 
L 230.780471 117.354065 
L 231.049448 144.721753 
L 231.587401 253.032255 
L 231.856377 264.213944 
L 232.125354 269.010711 
L 232.39433 273.650276 
L 232.528818 272.839575 
L 232.797795 255.798707 
L 232.932283 219.661961 
L 233.201259 132.825773 
L 233.335748 124.680294 
L 233.470236 134.938725 
L 233.604724 135.160041 
L 233.739212 147.904716 
L 233.8737 133.222337 
L 234.008189 139.920237 
L 234.815118 263.634533 
L 234.949606 263.369049 
L 235.218583 269.251024 
L 235.622047 276.960044 
L 235.756535 276.364485 
L 236.025512 263.755165 
L 236.563465 128.685831 
L 236.832441 116.519618 
L 237.63937 199.90166 
L 237.908347 257.757782 
L 238.177323 265.816349 
L 238.849764 280.678725 
L 238.984252 279.857101 
L 239.118741 276.07288 
L 239.253229 262.224474 
L 239.791182 127.918824 
L 240.194646 145.587545 
L 240.463623 164.64258 
L 240.732599 178.048828 
L 241.270552 255.235443 
L 241.674017 261.088923 
L 241.942993 273.983675 
L 242.077481 280.458834 
L 242.21197 279.835254 
L 242.480946 261.934768 
L 242.884411 150.614176 
L 243.018899 158.456651 
L 243.153387 156.218319 
L 243.287875 145.281217 
L 243.422363 153.231976 
L 243.556852 150.430854 
L 243.825828 167.008668 
L 244.229293 238.726969 
L 244.498269 261.028607 
L 244.767246 266.281778 
L 245.17071 274.10953 
L 245.305198 274.971049 
L 245.439687 274.676594 
L 245.574175 273.452706 
L 245.708663 262.041152 
L 245.843151 267.468147 
L 246.112128 264.497951 
L 246.381104 259.33929 
L 246.515592 259.306045 
L 247.188033 269.507959 
L 247.322522 269.911648 
L 247.45701 270.775066 
L 247.591498 270.422195 
L 247.725986 273.572388 
L 247.860475 272.140482 
L 248.129451 273.458405 
L 248.263939 272.57884 
L 248.398427 273.258461 
L 248.532916 273.106009 
L 248.667404 275.042763 
L 248.801892 274.944453 
L 249.205357 276.476568 
L 249.339845 276.59245 
L 249.608821 275.648295 
L 249.743309 275.779375 
L 249.877798 275.480646 
L 250.550239 272.329028 
L 250.819215 272.627757 
L 250.953703 273.402839 
L 251.088192 272.272037 
L 251.357168 273.523945 
L 251.491656 282.38039 
L 251.626144 281.893114 
L 251.760633 282.321499 
L 251.895121 282.162398 
L 252.164097 269.976713 
L 252.70205 143.178239 
L 252.836538 162.817909 
L 252.971027 159.390358 
L 253.240003 172.236668 
L 253.374491 173.583087 
L 253.508979 170.671782 
L 253.777956 203.332535 
L 254.046932 254.44089 
L 254.315909 275.663968 
L 254.719373 283.97852 
L 254.853862 283.739632 
L 255.122838 285.464568 
L 255.391814 264.80048 
L 255.660791 172.028175 
L 255.795279 175.458575 
L 256.198744 159.862436 
L 256.333232 163.517952 
L 256.46772 160.866432 
L 256.602208 162.0566 
L 257.409138 256.671624 
L 257.812602 264.106611 
L 258.081579 279.238746 
L 258.216067 280.297359 
L 258.350555 279.57167 
L 258.619532 265.470602 
L 258.888508 176.808793 
L 259.022996 177.673636 
L 259.157484 168.665214 
L 259.291973 168.092452 
L 259.426461 152.683909 
L 259.695437 166.316699 
L 259.829925 155.239968 
L 259.964414 164.268337 
L 260.771343 259.726831 
L 261.040319 261.95424 
L 261.309296 269.416298 
L 261.443784 272.614459 
L 261.71276 269.714553 
L 261.847249 257.384489 
L 262.116225 169.660662 
L 262.250713 173.807252 
L 262.654178 147.508151 
L 262.788666 154.77264 
L 262.923154 150.026216 
L 263.326619 185.00129 
L 263.461107 195.845305 
L 263.864572 244.379079 
L 264.268036 262.332757 
L 264.402525 261.579048 
L 264.671501 264.991875 
L 264.805989 264.866495 
L 264.940478 263.920439 
L 265.074966 256.389992 
L 265.209454 237.368677 
L 265.612919 123.641628 
L 265.881895 105.619561 
L 266.016383 115.073939 
L 266.150871 114.943809 
L 266.28536 114.497852 
L 266.419848 119.106072 
L 266.688824 156.194572 
L 266.957801 234.613624 
L 267.226777 251.196186 
L 267.361265 249.780903 
L 267.495754 266.067586 
L 267.630242 265.753184 
L 267.76473 267.612999 
L 267.899218 267.922652 
L 268.168195 274.411109 
L 268.302683 275.291625 
L 268.437171 272.74269 
L 268.706147 275.266453 
L 268.975124 271.789035 
L 269.2441 269.913547 
L 269.916541 255.491904 
L 270.320006 257.372141 
L 270.588982 262.234922 
L 270.723471 276.263326 
L 270.857959 277.298192 
L 270.992447 275.827343 
L 271.126935 276.706433 
L 271.261424 276.735879 
L 271.395912 276.550657 
L 271.799376 279.314734 
L 271.933865 277.93602 
L 272.068353 278.289366 
L 272.202841 277.647739 
L 272.337329 277.882828 
L 272.471817 277.043631 
L 272.606306 274.888411 
L 272.740794 276.165016 
L 272.875282 275.843965 
L 273.00977 275.170043 
L 273.144258 272.846699 
L 273.278747 272.747439 
L 273.547723 275.711935 
L 273.682211 275.925178 
L 273.8167 276.605748 
L 273.951188 275.74803 
L 274.085676 286.349833 
L 274.354652 287.975034 
L 274.489141 286.410148 
L 274.758117 271.754841 
L 275.29607 165.702143 
L 275.565046 153.515507 
L 275.699535 153.851281 
L 275.834023 171.73182 
L 275.968511 174.004347 
L 276.102999 184.11935 
L 276.77544 263.114013 
L 277.447881 280.444586 
L 277.58237 283.827493 
L 277.716858 283.438053 
L 277.851346 279.057323 
L 277.985834 269.11377 
L 278.389299 208.847866 
L 278.523787 189.439961 
L 278.658275 187.44954 
L 278.792763 177.97189 
L 278.927252 190.054042 
L 279.06174 184.256604 
L 279.196228 186.33916 
L 279.330716 194.004487 
L 280.137646 273.446057 
L 280.272134 275.823068 
L 280.406622 267.499492 
L 280.54111 267.216435 
L 280.810087 268.382857 
L 280.944575 267.762127 
L 281.213551 259.874059 
L 281.348039 231.036946 
L 281.482528 160.845061 
L 281.617016 150.675917 
L 281.751504 127.366958 
L 281.885992 128.514383 
L 282.154969 141.972398 
L 282.289457 123.92516 
L 282.423945 127.997662 
L 282.558433 137.073048 
L 282.82741 185.334214 
L 283.096386 253.629714 
L 283.365363 260.234528 
L 283.499851 262.433442 
L 283.634339 261.764744 
L 283.768827 261.775193 
L 283.903316 261.963739 
L 284.037804 263.263615 
L 284.172292 263.39232 
L 284.441268 258.218462 
L 285.113709 143.376284 
L 285.248198 142.304373 
L 285.382686 137.784489 
L 285.517174 146.99143 
L 285.651662 143.902028 
L 285.78615 147.378021 
L 286.055127 200.307723 
L 286.324103 249.696841 
L 286.59308 259.33834 
L 286.727568 259.217234 
L 286.862056 278.083722 
L 286.996544 278.142613 
L 287.131033 277.168537 
L 287.265521 277.771695 
L 287.668985 274.258658 
L 287.803474 275.132524 
L 288.07245 274.261032 
L 288.206938 272.098213 
L 288.341427 272.043122 
L 288.475915 269.706004 
L 288.610403 269.336511 
L 288.744891 268.217107 
L 288.879379 271.033901 
L 289.013868 271.372049 
L 289.148356 268.572828 
L 289.417332 275.698637 
L 289.55182 276.880731 
L 289.820797 276.520736 
L 289.955285 277.307691 
L 290.089773 275.81452 
L 290.224262 277.355184 
L 290.35875 276.451872 
L 290.493238 277.427848 
L 290.627726 275.892408 
L 291.031191 257.988122 
L 291.300167 192.074382 
L 291.434655 186.512983 
L 291.569144 187.118041 
L 291.703632 191.164422 
L 291.972608 178.471989 
L 292.376073 191.497821 
L 293.048514 267.576905 
L 293.183002 268.818365 
L 293.31749 267.671415 
L 293.451979 268.419901 
L 293.586467 267.494268 
L 293.720955 269.95914 
L 293.855443 270.2213 
L 294.258908 246.39942 
L 294.527884 188.651106 
L 294.796861 157.100259 
L 294.931349 141.297052 
L 295.065837 141.163597 
L 295.200325 149.102482 
L 295.334814 143.406204 
L 295.60379 171.347129 
L 295.738278 185.777321 
L 296.141743 255.688524 
L 296.276231 254.80231 
L 296.410719 261.970863 
L 296.545208 279.574994 
L 296.948672 281.729265 
L 297.486625 283.685965 
L 297.621113 283.342118 
L 297.755601 283.338318 
L 298.024578 280.180052 
L 298.159066 280.030449 
L 298.428042 277.898976 
L 298.697019 274.091958 
L 298.831507 272.962106 
L 298.965995 272.820578 
L 299.100484 273.174398 
L 299.36946 276.940097 
L 299.503948 276.436199 
L 299.638436 277.971639 
L 299.772925 268.361485 
L 299.907413 271.746292 
L 300.041901 271.446138 
L 300.176389 272.308131 
L 300.310877 272.026024 
L 300.579854 261.111719 
L 301.252295 127.697033 
L 301.386783 127.765422 
L 301.521271 140.890039 
L 301.65576 133.983646 
L 301.790248 143.350163 
L 302.597177 251.593226 
L 302.731665 253.337159 
L 303.000642 265.68147 
L 303.13513 265.904686 
L 303.269618 266.382463 
L 303.404106 268.829288 
L 303.538595 269.246275 
L 303.807571 252.971465 
L 304.345524 163.654256 
L 304.6145 153.185433 
L 304.748988 161.380779 
L 304.883477 151.856586 
L 305.017965 157.905735 
L 306.093871 264.140806 
L 306.228359 265.146227 
L 306.497335 275.249356 
L 306.766312 276.273774 
L 306.9008 271.589566 
L 307.035288 261.104595 
L 307.304265 169.104047 
L 307.438753 176.328167 
L 307.842217 157.165799 
L 307.976706 164.180475 
L 308.111194 155.805132 
L 308.245682 160.742002 
L 308.649147 206.506474 
L 309.052611 262.580669 
L 309.590564 274.748308 
L 309.994029 276.442848 
L 310.128517 272.907964 
L 310.263005 260.35706 
L 310.531982 168.993389 
L 310.66647 170.138914 
L 310.935446 167.861637 
L 311.069934 158.558761 
L 311.204423 164.980728 
L 311.338911 163.696524 
L 311.473399 156.957781 
L 311.607887 170.026356 
L 311.876864 207.408836 
L 312.14584 249.517318 
L 312.414817 261.261796 
L 312.818281 269.82806 
L 312.952769 269.396352 
L 313.087258 271.272315 
L 313.221746 271.174005 
L 313.356234 272.74269 
L 313.625211 262.241096 
L 313.759699 254.390548 
L 313.894187 257.725962 
L 314.028675 255.210272 
L 314.163163 257.08386 
L 314.297652 254.337831 
L 314.566628 260.867132 
L 314.701116 261.598045 
L 314.970093 266.326896 
L 315.104581 266.289377 
L 315.239069 265.994447 
L 315.508045 268.911926 
L 315.642534 269.446219 
L 315.777022 269.117569 
L 316.180487 272.092039 
L 316.314975 271.654631 
L 316.718439 273.996973 
L 316.852928 274.244885 
L 316.987416 273.395715 
L 317.121904 273.46078 
L 317.256392 272.3466 
L 317.39088 272.490503 
L 317.525369 270.959337 
L 317.659857 271.874047 
L 317.928833 269.367381 
L 318.332298 265.64965 
L 318.466786 266.300775 
L 318.601274 265.800677 
L 318.735763 267.24968 
L 318.870251 267.08678 
L 319.139227 268.197635 
L 319.273715 277.984462 
L 319.67718 279.097217 
L 319.811668 276.531185 
L 319.946157 268.616521 
L 320.349621 147.230319 
L 320.484109 131.159253 
L 320.887574 158.302775 
L 321.022062 162.946139 
L 321.291039 177.655589 
L 321.425527 179.447015 
L 321.560015 197.796307 
L 321.828991 253.049828 
L 321.96348 261.097471 
L 322.097968 261.880152 
L 322.635921 278.497859 
L 322.770409 278.843131 
L 322.904897 278.187256 
L 323.173874 267.80677 
L 323.44285 172.81133 
L 323.577338 173.171325 
L 323.711826 173.371744 
L 323.980803 153.294191 
L 324.249779 156.815777 
L 324.384268 159.568456 
L 324.787732 195.633013 
L 325.056709 249.887287 
L 325.325685 259.113225 
L 325.863638 276.847486 
L 325.998126 278.606142 
L 326.132614 278.671207 
L 326.267103 275.473997 
L 326.401591 266.519242 
L 326.670567 165.656075 
L 326.805055 171.582218 
L 326.939544 172.748639 
L 327.20852 159.587453 
L 327.343008 167.690663 
L 327.611985 163.95536 
L 327.746473 168.79107 
L 328.149937 223.216792 
L 328.418914 253.909446 
L 328.68789 266.656971 
L 328.822379 269.098097 
L 328.956867 279.094843 
L 329.225843 280.037098 
L 329.360331 279.194102 
L 329.629308 266.425206 
L 330.032772 177.850309 
L 330.301749 166.56746 
L 330.570725 157.802676 
L 330.839702 179.548174 
L 330.97419 180.754489 
L 331.108678 183.486271 
L 331.781119 258.994493 
L 332.050096 266.122203 
L 332.184584 276.843212 
L 332.319072 277.794492 
L 332.45356 277.132918 
L 332.588049 278.115542 
L 332.857025 265.570337 
L 333.26049 177.22198 
L 333.394978 179.122164 
L 333.663954 164.285434 
L 333.798442 165.471803 
L 333.932931 169.219929 
L 334.336395 186.995035 
L 334.73986 254.391972 
L 335.143325 270.041778 
L 335.277813 269.844208 
L 335.412301 269.941093 
L 335.546789 270.2251 
L 335.681277 270.120616 
L 335.950254 272.689498 
L 336.084742 270.605517 
L 336.622695 254.225273 
L 336.757183 255.016027 
L 336.891671 253.196105 
L 337.295136 259.521662 
L 337.698601 264.230092 
L 337.833089 263.753265 
L 338.102065 267.831941 
L 338.236553 267.601126 
L 338.371042 268.235154 
L 338.50553 265.91181 
L 339.043483 269.054404 
L 339.446947 272.035048 
L 339.581436 271.555846 
L 339.715924 270.392749 
L 339.850412 270.650635 
L 339.9849 269.874603 
L 340.119388 269.762521 
L 340.253877 269.291393 
L 340.388365 270.760818 
L 340.522853 268.782271 
L 340.657341 269.377829 
L 340.926318 269.061053 
L 341.060806 265.739886 
L 341.329782 270.596493 
L 341.464271 270.495333 
L 341.598759 271.021078 
L 341.733247 272.579315 
L 341.867735 280.360524 
L 342.136712 280.461683 
L 342.2712 281.099986 
L 342.540176 268.470718 
L 342.943641 153.897349 
L 343.212617 170.419596 
L 343.347106 169.689158 
L 343.75057 183.998718 
L 343.885058 185.664763 
L 344.019547 185.005564 
L 344.423011 252.535956 
L 345.22994 278.095121 
L 345.364429 279.173206 
L 345.498917 278.807512 
L 345.633405 274.612953 
L 345.767893 266.571009 
L 346.03687 182.760108 
L 346.171358 186.856356 
L 346.440334 173.36272 
L 346.574823 168.019788 
L 346.843799 174.862066 
L 347.112775 176.720932 
L 347.381752 211.019234 
L 347.650728 249.725336 
L 348.054193 267.592103 
L 348.188681 268.768023 
L 348.323169 277.689533 
L 348.457658 278.533004 
L 348.592146 280.393769 
L 348.726634 280.199524 
L 348.99561 267.361288 
L 349.264587 181.715267 
L 349.399075 183.181368 
L 349.668052 165.716865 
L 349.80254 161.626791 
L 350.206004 180.223046 
L 350.340493 181.396591 
L 351.012934 261.149238 
L 351.147422 263.457385 
L 351.550886 280.031399 
L 351.685375 279.323283 
L 351.954351 279.688027 
L 352.088839 278.298389 
L 352.223328 271.049099 
L 352.492304 177.660338 
L 352.626792 184.785673 
L 352.76128 173.479078 
L 352.895769 172.774285 
L 353.030257 164.541895 
L 353.164745 171.712823 
L 353.299233 169.647364 
L 353.56821 151.971044 
L 354.240651 267.732681 
L 354.375139 268.863958 
L 354.644115 274.693691 
L 354.913092 278.943816 
L 355.182068 279.980107 
L 355.316556 277.591223 
L 355.451045 268.514411 
L 355.854509 195.623989 
L 356.123486 157.505372 
L 356.257974 159.209411 
L 356.392462 167.770926 
L 356.52695 167.141172 
L 356.661439 177.687409 
L 356.795927 176.443099 
L 357.33388 263.446937 
L 357.602856 272.989652 
L 357.737344 274.943028 
L 357.871832 279.174155 
L 358.006321 278.599018 
L 358.140809 278.812261 
L 358.275297 279.547923 
L 358.409785 279.460537 
L 358.678762 278.208153 
L 359.082226 259.845088 
L 359.351203 253.973086 
L 359.485691 247.737291 
L 359.620179 258.409858 
L 359.754667 259.816117 
L 359.889156 259.983292 
L 360.427109 274.191218 
L 360.561597 274.867039 
L 360.965061 278.990834 
L 361.234038 278.951415 
L 361.368526 278.760969 
L 361.503014 280.058945 
L 361.771991 279.653832 
L 361.906479 280.97698 
L 362.040967 280.929487 
L 362.175455 281.30278 
L 362.309944 281.343149 
L 362.57892 277.949793 
L 362.713408 277.900875 
L 362.982385 276.772448 
L 363.116873 275.2883 
L 363.251361 275.187141 
L 363.385849 276.271875 
L 363.520337 275.422704 
L 363.654826 275.363339 
L 364.05829 278.134065 
L 364.192778 252.270472 
L 364.730731 258.493445 
L 364.86522 257.304702 
L 364.999708 245.28904 
L 365.134196 223.257636 
L 365.403172 135.407003 
L 365.672149 105.275238 
L 365.806637 99.385665 
L 366.075613 116.239886 
L 366.34459 113.112489 
L 366.479078 124.483199 
L 367.017031 250.195989 
L 367.151519 255.12906 
L 367.286007 253.403174 
L 367.554984 264.70312 
L 367.689472 265.565113 
L 367.958448 270.438817 
L 368.227425 247.002578 
L 368.496401 151.556432 
L 368.765378 99.950353 
L 369.034354 89.106337 
L 369.168842 93.803369 
L 369.303331 93.361211 
L 369.437819 96.712299 
L 369.572307 94.601247 
L 369.706795 110.62577 
L 370.244748 233.816221 
L 370.782701 277.80304 
L 370.917189 278.106519 
L 371.051677 278.993683 
L 371.186166 278.716326 
L 371.455142 263.970782 
L 371.858607 171.171406 
L 372.127583 202.996286 
L 372.262071 198.956079 
L 372.396559 200.375637 
L 372.665536 189.741539 
L 372.800024 193.517212 
L 373.203489 233.025467 
L 373.472465 255.171328 
L 373.87593 276.258577 
L 374.010418 285.232329 
L 374.144906 285.087001 
L 374.279394 286.287617 
L 374.413883 285.787044 
L 374.682859 269.30849 
L 375.220812 180.351276 
L 375.489788 176.739929 
L 375.624277 176.96172 
L 375.893253 183.4649 
L 376.027741 187.739721 
L 376.565694 254.989431 
L 376.83467 263.835902 
L 376.969159 266.658395 
L 377.103647 278.412372 
L 377.238135 277.324788 
L 377.507112 279.387398 
L 377.6416 277.431172 
L 377.776088 280.953233 
L 378.045064 278.816535 
L 378.179553 269.222528 
L 378.314041 268.599898 
L 378.448529 261.53393 
L 378.583017 262.529852 
L 378.717505 261.617042 
L 378.851994 266.10653 
L 378.986482 265.349971 
L 379.12097 266.253757 
L 379.255458 268.402804 
L 379.389947 268.286921 
L 379.927899 277.496712 
L 380.062388 277.291069 
L 380.196876 277.70568 
L 380.331364 267.843814 
L 380.60034 269.762046 
L 380.869317 271.409094 
L 381.138293 260.564603 
L 381.272782 233.597279 
L 381.541758 159.353789 
L 381.810734 139.28526 
L 381.945223 140.869142 
L 382.214199 147.325779 
L 382.348687 139.373121 
L 382.752152 188.998753 
L 383.021128 256.685871 
L 383.155616 264.577264 
L 383.290105 265.236463 
L 383.424593 266.517817 
L 383.559081 261.611818 
L 383.693569 260.903226 
L 383.962546 261.248023 
L 384.097034 262.432967 
L 384.231522 260.657214 
L 384.36601 262.043052 
L 385.038451 148.383442 
L 385.17294 150.815545 
L 385.307428 165.881665 
L 385.576404 160.263275 
L 386.248845 259.518813 
L 386.921286 277.935545 
L 387.055775 277.124369 
L 387.190263 278.396224 
L 387.324751 277.70853 
L 387.459239 277.869055 
L 387.593727 279.351778 
L 387.728216 278.779966 
L 387.862704 280.09124 
L 387.997192 278.927193 
L 388.13168 280.510601 
L 388.266169 279.530826 
L 388.400657 277.554178 
L 388.535145 277.64299 
L 388.669633 276.983316 
L 388.804121 278.117442 
L 388.93861 275.577531 
L 389.207586 277.70853 
L 389.476562 284.369386 
L 389.611051 283.315522 
L 389.745539 284.128597 
L 389.880027 284.07683 
L 390.014515 269.235826 
L 390.283492 269.483738 
L 390.41798 269.493712 
L 390.552468 269.363582 
L 390.686956 263.887194 
L 390.821445 264.071466 
L 390.955933 255.25444 
L 391.224909 199.317499 
L 391.359397 168.063956 
L 391.493886 164.089764 
L 391.762862 174.741434 
L 391.89735 174.200017 
L 392.031839 167.004868 
L 392.166327 170.689829 
L 392.300815 179.634611 
L 392.569791 239.557142 
L 392.70428 265.742736 
L 392.973256 270.566572 
L 393.107744 271.221497 
L 393.376721 264.192573 
L 393.645697 269.888376 
L 393.780185 266.510693 
L 393.914673 267.889882 
L 394.049162 260.505712 
L 394.721603 146.34078 
L 394.990579 145.273143 
L 395.125067 144.854732 
L 395.259556 156.195522 
L 395.394044 157.062265 
L 395.931997 244.86588 
L 396.200973 258.42363 
L 396.335461 254.70115 
L 396.46995 279.378849 
L 396.604438 279.760691 
L 397.007902 282.784078 
L 397.276879 269.777243 
L 397.545855 196.350153 
L 397.680343 191.182469 
L 397.94932 167.894407 
L 398.083808 154.479135 
L 398.218296 167.173942 
L 398.352785 162.425619 
L 398.487273 165.426685 
L 398.487273 165.426685 
" clip-path="url(#pb23b63c927)" style="fill: none; stroke: #1f77b4; stroke-width: 1.5; stroke-linecap: square"/>
   </g>
   <g id="line2d_14">
    <path d="M 73.832727 277.952232 
L 74.101704 277.944554 
L 74.37068 277.034736 
L 74.505168 275.084675 
L 74.639657 278.014972 
L 74.908633 275.10261 
L 75.043121 256.270698 
L 75.177609 190.041944 
L 75.446586 249.455413 
L 75.715562 245.693845 
L 75.85005 245.001404 
L 75.984539 242.026631 
L 76.119027 250.422 
L 76.522492 246.03163 
L 76.65698 286.672878 
L 77.060444 270.496344 
L 77.194933 270.109007 
L 77.329421 252.278856 
L 77.463909 265.232137 
L 77.598397 264.930306 
L 77.732885 265.16824 
L 77.867374 268.08062 
L 78.001862 255.803798 
L 78.13635 224.731889 
L 78.405327 123.649322 
L 78.539815 99.095768 
L 78.674303 113.086459 
L 78.943279 103.04543 
L 79.077768 119.558207 
L 79.212256 121.718518 
L 79.481232 176.964002 
L 80.019185 254.051546 
L 80.153673 258.14863 
L 80.288161 269.213023 
L 80.42265 267.087229 
L 80.557138 256.349997 
L 80.691626 277.206575 
L 80.826114 268.359684 
L 80.960603 270.534258 
L 81.095091 269.929686 
L 81.229579 263.888609 
L 81.364067 240.834664 
L 81.633044 126.084673 
L 81.767532 174.543882 
L 81.90202 160.278938 
L 82.036508 212.020075 
L 82.170996 211.454796 
L 82.439973 219.096035 
L 82.574461 188.229796 
L 82.708949 230.56951 
L 82.977926 212.242094 
L 83.112414 220.752737 
L 83.246902 211.533641 
L 83.38139 211.435922 
L 83.919343 289.331821 
L 84.053831 282.224367 
L 84.18832 283.411728 
L 84.322808 211.432219 
L 84.457296 244.382278 
L 84.591784 211.432219 
L 84.860761 211.432219 
L 84.995249 211.814903 
L 85.129737 174.271881 
L 85.264225 186.229049 
L 85.398714 163.813218 
L 85.802178 215.012274 
L 86.071155 231.68645 
L 86.340131 264.993994 
L 86.474619 261.336173 
L 86.609107 269.623765 
L 86.743596 265.96768 
L 86.878084 271.098162 
L 87.14706 289.466109 
L 87.416037 283.54668 
L 87.550525 286.450223 
L 87.685013 285.301319 
L 87.819501 281.430584 
L 88.088478 224.611207 
L 88.222966 257.983367 
L 88.357454 246.910909 
L 88.491942 255.903655 
L 88.626431 253.454802 
L 88.760919 241.021632 
L 88.895407 251.472554 
L 89.029895 242.419002 
L 89.164384 254.893616 
L 89.298872 253.476858 
L 89.43336 258.213033 
L 89.567848 281.176484 
L 89.702336 280.151822 
L 89.971313 272.229073 
L 90.105801 274.435388 
L 90.240289 241.323035 
L 90.509266 262.773988 
L 90.643754 265.777619 
L 90.91273 263.253467 
L 91.047218 263.649166 
L 91.316195 230.516625 
L 91.450683 247.423492 
L 91.585171 235.42059 
L 91.71966 255.15873 
L 91.854148 246.325218 
L 91.988636 247.692618 
L 92.123124 245.639039 
L 92.392101 257.131434 
L 92.526589 254.331325 
L 92.930053 265.393718 
L 93.064542 267.1633 
L 93.19903 265.520476 
L 93.333518 261.85158 
L 93.468006 281.194144 
L 93.736983 271.793607 
L 93.871471 273.594898 
L 94.140447 265.766048 
L 94.274936 251.647276 
L 94.543912 146.054518 
L 94.6784 178.57024 
L 94.947377 155.102137 
L 95.081865 154.210154 
L 95.48533 190.318314 
L 95.619818 171.79113 
L 95.888794 256.609507 
L 96.023282 257.179103 
L 96.292259 268.940795 
L 96.426747 265.787165 
L 96.561235 266.281999 
L 96.695723 268.067667 
L 96.830212 265.273364 
L 96.9647 265.176494 
L 97.099188 268.739841 
L 97.368164 263.120784 
L 97.637141 201.492069 
L 97.771629 146.921877 
L 97.906117 181.195143 
L 98.040606 171.036481 
L 98.175094 184.690913 
L 98.309582 176.010328 
L 98.578558 184.808243 
L 98.847535 220.093478 
L 98.982023 226.102201 
L 99.385488 269.338537 
L 99.519976 270.161618 
L 99.654464 273.068828 
L 99.788952 269.486312 
L 99.923441 285.848421 
L 100.192417 274.471768 
L 100.461393 277.382598 
L 100.595882 276.903321 
L 100.73037 272.260227 
L 100.864858 273.836482 
L 100.999346 279.40269 
L 101.133834 275.131438 
L 101.268323 280.708619 
L 101.402811 277.422603 
L 101.537299 270.258546 
L 101.671787 250.671706 
L 101.806276 270.814389 
L 101.940764 256.685459 
L 102.075252 256.520893 
L 102.20974 265.193692 
L 102.344228 264.057567 
L 102.478717 265.232749 
L 102.613205 269.104119 
L 102.747693 278.030285 
L 102.882181 269.120582 
L 103.016669 280.633134 
L 103.151158 248.182649 
L 103.420134 272.189587 
L 103.823599 260.567042 
L 103.958087 248.761946 
L 104.227063 139.554408 
L 104.361552 163.006643 
L 104.49604 149.904103 
L 104.630528 166.463796 
L 104.765016 147.299213 
L 104.899504 145.648214 
L 105.840922 263.913692 
L 106.109898 257.726272 
L 106.378875 288.446463 
L 106.647851 277.881163 
L 106.782339 276.858653 
L 106.916828 281.059983 
L 107.185804 278.192346 
L 107.45478 199.166506 
L 107.723757 267.239487 
L 107.858245 247.251354 
L 107.992733 247.357718 
L 108.26171 242.790746 
L 108.396198 247.602975 
L 108.530686 247.60775 
L 108.665174 243.848334 
L 108.799663 251.384336 
L 109.068639 283.557145 
L 109.337615 276.040458 
L 109.472104 271.968047 
L 109.606592 263.297802 
L 109.74108 269.792853 
L 109.875568 270.469109 
L 110.010056 271.718239 
L 110.144545 271.324247 
L 110.279033 271.978461 
L 110.548009 265.503993 
L 110.816986 272.16524 
L 111.085962 265.84778 
L 111.22045 265.75632 
L 111.354939 267.649778 
L 111.489427 261.916552 
L 111.623915 262.785483 
L 111.758403 262.65356 
L 111.892891 259.330757 
L 112.296356 268.446687 
L 112.430844 267.948247 
L 112.565333 268.066294 
L 112.699821 268.434297 
L 112.834309 246.725845 
L 113.103285 264.574552 
L 113.237774 264.227112 
L 113.372262 266.172007 
L 113.50675 264.89615 
L 113.641238 264.906368 
L 113.775726 263.365393 
L 113.910215 268.067888 
L 114.044703 262.393465 
L 114.179191 264.613229 
L 114.313679 260.307588 
L 114.448168 247.049164 
L 114.582656 251.013154 
L 114.717144 250.066445 
L 114.851632 253.733547 
L 115.120609 244.212113 
L 115.255097 246.117948 
L 115.524073 261.435776 
L 115.658561 260.86371 
L 115.927538 259.070497 
L 116.196514 260.843808 
L 116.331002 257.293442 
L 116.465491 269.283457 
L 116.599979 263.492184 
L 116.734467 263.956678 
L 116.868955 236.182133 
L 117.003444 131.413282 
L 117.541396 76.634118 
L 117.675885 71.599663 
L 118.617302 239.402529 
L 118.75179 237.359565 
L 119.020767 258.458438 
L 119.155255 254.731064 
L 119.289743 256.038167 
L 119.424231 259.271229 
L 119.55872 256.536384 
L 119.693208 257.254369 
L 119.827696 260.283245 
L 119.962184 258.038847 
L 120.096672 235.364836 
L 120.365649 109.682336 
L 120.634625 97.214846 
L 120.903602 86.292447 
L 121.441555 176.06757 
L 121.576043 176.767731 
L 121.845019 244.066808 
L 121.979507 228.263421 
L 122.113996 248.090317 
L 122.248484 248.968596 
L 122.382972 248.41332 
L 122.51746 253.690523 
L 122.651948 266.957846 
L 122.920925 257.973362 
L 123.055413 259.079217 
L 123.189901 254.865305 
L 123.32439 239.796134 
L 123.593366 110.262789 
L 123.727854 82.278186 
L 123.862342 84.449687 
L 123.996831 81.479708 
L 124.400295 180.596113 
L 124.534783 179.499807 
L 124.669272 167.863006 
L 124.80376 170.10325 
L 125.072736 237.433938 
L 125.207225 239.225488 
L 125.341713 259.137152 
L 125.476201 259.41747 
L 125.610689 257.943922 
L 125.745177 254.507531 
L 125.879666 272.1856 
L 126.148642 267.173794 
L 126.28313 265.361601 
L 126.552107 239.502602 
L 126.821083 117.900045 
L 127.224548 86.691085 
L 127.359036 85.071405 
L 127.762501 156.142361 
L 128.031477 177.9217 
L 128.434942 247.61077 
L 128.703918 259.520853 
L 128.838406 253.776709 
L 128.972894 264.585007 
L 129.107383 259.390194 
L 129.376359 265.259268 
L 129.510847 263.798635 
L 129.779824 223.687489 
L 130.0488 109.668499 
L 130.183288 92.788601 
L 130.317777 95.853808 
L 130.452265 86.329061 
L 130.586753 117.249899 
L 130.721241 178.827745 
L 130.990218 147.59848 
L 131.124706 160.006285 
L 131.528171 246.970984 
L 131.931635 263.758394 
L 132.200612 257.089043 
L 132.3351 256.394701 
L 132.604076 273.223749 
L 132.738564 266.460809 
L 133.007541 263.898726 
L 133.142029 243.021037 
L 133.276517 240.62214 
L 133.411005 232.408087 
L 133.81447 235.43365 
L 133.948958 243.313186 
L 134.217935 237.638832 
L 134.486911 249.665318 
L 134.755888 253.40588 
L 134.890376 258.400961 
L 135.159352 253.926301 
L 135.562817 260.789941 
L 135.966282 264.97418 
L 136.10077 271.671591 
L 136.369746 256.058358 
L 136.504234 265.95367 
L 136.638723 267.109969 
L 136.773211 255.08492 
L 136.907699 260.770629 
L 137.176675 256.713745 
L 137.311164 242.15139 
L 137.445652 243.773117 
L 137.714628 253.390825 
L 137.849117 248.901722 
L 138.118093 259.219424 
L 138.252581 259.078087 
L 138.387069 255.272881 
L 138.521558 258.810318 
L 138.656046 265.394422 
L 138.790534 258.798139 
L 138.925022 259.383391 
L 139.05951 265.213051 
L 139.193999 265.185592 
L 139.462975 230.734613 
L 139.731951 111.657375 
L 139.86644 92.899454 
L 140.000928 90.562907 
L 140.135416 75.137781 
L 140.269904 76.01826 
L 140.673369 176.729797 
L 140.807857 175.651249 
L 140.942345 175.457317 
L 141.076834 194.169695 
L 141.211322 256.158001 
L 141.34581 250.269375 
L 141.480298 249.499247 
L 141.614786 265.30415 
L 141.749275 261.763191 
L 141.883763 262.291833 
L 142.018251 265.998486 
L 142.152739 263.045922 
L 142.287228 263.840587 
L 142.421716 261.383494 
L 142.690692 222.224023 
L 142.959669 103.754499 
L 143.094157 92.201822 
L 143.228645 99.503413 
L 143.363133 92.004514 
L 143.497621 103.239801 
L 143.63211 129.02704 
L 143.766598 126.171839 
L 144.035574 190.607328 
L 144.170063 177.680716 
L 144.439039 250.490169 
L 144.573527 239.749776 
L 144.842504 268.230069 
L 145.245968 261.509899 
L 145.380456 262.862518 
L 145.514945 265.589976 
L 145.649433 255.550474 
L 145.783921 224.693786 
L 145.918409 232.498214 
L 146.187386 112.850294 
L 146.321874 91.033035 
L 146.59085 110.502239 
L 146.859827 145.801904 
L 146.994315 131.825275 
L 147.128803 162.190826 
L 147.263291 142.726055 
L 147.39778 176.706629 
L 147.532268 243.148138 
L 147.666756 249.070226 
L 147.801244 249.388501 
L 148.070221 267.873432 
L 148.204709 261.794853 
L 148.339197 264.88657 
L 148.473685 264.769075 
L 148.608174 262.389184 
L 148.742662 262.987687 
L 148.87715 260.896351 
L 149.011638 260.91666 
L 149.146126 222.319319 
L 149.415103 111.791673 
L 149.549591 103.713836 
L 149.684079 117.271961 
L 149.818567 107.593852 
L 149.953056 111.858496 
L 150.222032 138.144496 
L 150.35652 178.339632 
L 150.491009 157.239191 
L 150.625497 174.082238 
L 150.894473 255.215351 
L 151.028961 249.415285 
L 151.297938 268.420237 
L 151.432426 261.073163 
L 151.566914 261.80471 
L 151.835891 265.962861 
L 151.970379 265.088436 
L 152.104867 266.127431 
L 152.239355 262.088747 
L 152.64282 113.139224 
L 152.777308 100.012635 
L 152.911796 116.13008 
L 153.180773 105.382751 
L 153.315261 125.706368 
L 153.449749 123.665315 
L 153.584237 203.877156 
L 153.718726 193.817293 
L 154.256678 261.428052 
L 154.391167 270.607781 
L 154.525655 268.419039 
L 154.660143 269.889567 
L 154.794631 268.268457 
L 154.92912 269.441731 
L 155.063608 268.722251 
L 155.467072 274.161876 
L 155.736049 255.551297 
L 155.870537 236.304468 
L 156.005025 255.137469 
L 156.139513 253.130618 
L 156.274002 260.563756 
L 156.542978 251.06863 
L 156.677466 250.512481 
L 156.811955 256.835891 
L 156.946443 256.524348 
L 157.080931 260.30333 
L 157.215419 260.885418 
L 157.484396 266.818686 
L 157.618884 267.721907 
L 157.753372 263.33632 
L 158.156837 269.182146 
L 158.291325 268.648054 
L 158.425813 270.006198 
L 158.694789 276.240422 
L 158.829278 273.693394 
L 158.963766 266.407713 
L 159.098254 271.848335 
L 159.367231 264.329125 
L 159.501719 266.481453 
L 159.636207 271.089066 
L 159.905183 253.815206 
L 160.039672 252.552681 
L 160.17416 258.755712 
L 160.308648 251.374132 
L 160.712113 268.871812 
L 160.981089 258.797518 
L 161.384554 268.780015 
L 161.519042 266.533801 
L 161.65353 266.32677 
L 161.788018 266.392154 
L 162.056995 228.606959 
L 162.325971 112.077117 
L 162.594948 89.532961 
L 162.998412 120.284471 
L 163.132901 158.23784 
L 163.267389 159.136906 
L 163.536365 186.256942 
L 163.805342 251.857271 
L 163.93983 244.965849 
L 164.074318 248.437118 
L 164.208806 263.525623 
L 164.343294 262.794303 
L 164.477783 259.403889 
L 164.612271 274.646849 
L 164.746759 269.287175 
L 164.881247 269.758091 
L 165.284712 231.336184 
L 165.553688 115.272932 
L 165.688177 101.466486 
L 165.822665 125.792697 
L 165.957153 110.675479 
L 166.226129 125.639061 
L 166.360618 134.552135 
L 166.495106 128.843338 
L 166.629594 133.061902 
L 166.764082 153.412487 
L 166.89857 237.282143 
L 167.033059 247.54074 
L 167.167547 239.886654 
L 167.302035 241.667361 
L 167.436523 259.562913 
L 167.571012 257.211882 
L 167.7055 258.567768 
L 167.974476 265.46835 
L 168.108964 264.32618 
L 168.243453 264.394652 
L 168.377941 251.311923 
L 168.512429 222.98422 
L 168.781405 101.283728 
L 168.915894 88.737908 
L 169.050382 117.062111 
L 169.18487 109.141504 
L 169.453847 127.78321 
L 169.588335 106.396941 
L 170.260776 256.150516 
L 170.395264 250.083155 
L 170.66424 263.482143 
L 170.798729 261.0095 
L 170.933217 263.720082 
L 171.067705 260.315338 
L 171.336681 262.735927 
L 171.47117 266.709587 
L 171.605658 235.339578 
L 171.740146 230.602576 
L 172.009123 110.015261 
L 172.143611 90.163212 
L 172.278099 114.873226 
L 172.412587 114.498948 
L 172.547075 111.362442 
L 172.681564 116.754367 
L 172.95054 165.626505 
L 173.085028 177.595205 
L 173.219516 171.970416 
L 173.488493 257.375702 
L 173.622981 248.891964 
L 173.891958 266.919002 
L 174.026446 267.008675 
L 174.160934 284.116499 
L 174.295422 272.440069 
L 174.42991 270.931696 
L 174.698887 273.237592 
L 175.102351 204.735394 
L 175.23684 145.99132 
L 175.371328 151.772003 
L 175.640304 138.492162 
L 175.774792 141.098508 
L 176.581722 216.24022 
L 176.71621 264.875809 
L 176.850698 257.335168 
L 176.985186 262.060112 
L 177.119675 271.17053 
L 177.254163 261.361622 
L 177.523139 266.963244 
L 177.657627 264.443468 
L 177.926604 272.076536 
L 178.061092 270.87089 
L 178.19558 267.010332 
L 178.330069 247.025262 
L 178.464557 249.08616 
L 178.599045 257.148338 
L 178.733533 246.263796 
L 179.136998 255.584679 
L 179.271486 245.604736 
L 179.405974 248.406298 
L 179.540462 255.058483 
L 179.674951 251.476285 
L 179.809439 252.43838 
L 180.212904 272.07575 
L 180.347392 262.662936 
L 180.48188 261.932902 
L 180.616368 277.573311 
L 180.885345 271.174402 
L 181.019833 271.345189 
L 181.154321 272.592537 
L 181.288809 271.589064 
L 181.423297 259.748193 
L 181.557786 258.294029 
L 181.692274 255.533727 
L 181.826762 263.419835 
L 181.96125 259.394899 
L 182.095738 264.892437 
L 182.230227 247.647002 
L 182.499203 262.941662 
L 182.633691 262.993207 
L 182.902668 270.828003 
L 183.171644 266.023897 
L 183.306132 275.494437 
L 183.440621 274.275631 
L 183.575109 275.049016 
L 183.844085 267.262441 
L 183.978573 288.23524 
L 184.382038 277.887132 
L 184.651015 256.071982 
L 184.919991 163.494536 
L 185.054479 182.659879 
L 185.188967 168.366363 
L 185.323456 182.18473 
L 185.457944 174.214617 
L 185.592432 179.26087 
L 186.399361 262.256496 
L 186.53385 263.445481 
L 186.668338 270.8073 
L 186.937314 273.950531 
L 187.206291 290.752954 
L 187.475267 282.064641 
L 187.609755 285.082211 
L 187.744243 277.725177 
L 187.878732 256.025772 
L 188.01322 175.365793 
L 188.147708 169.749593 
L 188.282196 187.29779 
L 188.416684 172.437615 
L 188.551173 179.718524 
L 188.685661 180.09616 
L 188.820149 184.17525 
L 189.627078 265.531245 
L 189.761567 268.837801 
L 189.896055 269.159837 
L 190.030543 268.524834 
L 190.165031 274.308108 
L 190.299519 264.826306 
L 190.434008 268.359167 
L 190.568496 268.55658 
L 190.702984 265.553165 
L 190.971961 269.273574 
L 191.240937 266.253537 
L 191.375425 259.632813 
L 191.644402 270.408087 
L 191.77889 257.4927 
L 191.913378 266.836906 
L 192.316843 250.902931 
L 192.585819 258.815764 
L 192.720307 258.120405 
L 192.854796 261.170425 
L 192.989284 270.640946 
L 193.123772 266.897259 
L 193.25826 266.293792 
L 193.527237 262.105414 
L 193.661725 261.764216 
L 193.796213 266.354266 
L 193.930701 266.72092 
L 194.065189 266.564947 
L 194.334166 245.057618 
L 194.603142 158.147778 
L 194.73763 161.090877 
L 194.872119 145.887643 
L 195.006607 149.867866 
L 195.141095 142.059439 
L 195.410072 155.795661 
L 195.54456 155.714552 
L 195.948024 243.401062 
L 196.351489 263.607241 
L 196.485977 263.636749 
L 196.620465 262.885013 
L 196.754954 277.195703 
L 196.889442 267.977266 
L 197.02393 267.3178 
L 197.158418 267.271961 
L 197.292907 269.446279 
L 197.427395 264.49864 
L 197.561883 249.807858 
L 197.830859 157.49515 
L 197.965348 194.607098 
L 198.099836 188.363446 
L 198.234324 192.604784 
L 198.368812 190.740993 
L 198.5033 198.144922 
L 198.637789 191.562507 
L 198.772277 202.030641 
L 199.175742 252.903416 
L 199.444718 273.744653 
L 199.848183 275.875539 
L 199.982671 280.255583 
L 200.117159 274.781954 
L 200.386135 276.315127 
L 200.520624 272.234483 
L 200.655112 261.255944 
L 200.7896 262.516739 
L 200.924088 227.446431 
L 201.058576 136.819109 
L 201.193065 198.950539 
L 201.327553 194.31091 
L 201.462041 193.774231 
L 201.731018 196.336491 
L 201.865506 188.664745 
L 202.537947 265.538574 
L 202.672435 272.389052 
L 202.806923 269.980638 
L 203.0759 272.564234 
L 203.210388 256.952035 
L 203.344876 257.623403 
L 203.479364 269.40879 
L 203.613853 266.284638 
L 204.017317 250.901642 
L 204.286294 143.744493 
L 204.420782 157.97119 
L 204.55527 158.418516 
L 204.689758 172.905012 
L 204.824246 165.077972 
L 204.958735 182.584248 
L 205.093223 177.440043 
L 205.227711 216.626878 
L 205.362199 209.435545 
L 205.631176 240.898155 
L 205.900152 267.339734 
L 206.03464 265.748044 
L 206.169129 262.327316 
L 206.303617 265.873105 
L 206.438105 288.09318 
L 206.572593 277.455863 
L 206.84157 280.668786 
L 206.976058 280.114154 
L 207.110546 279.014838 
L 207.379522 257.074466 
L 207.514011 257.285176 
L 207.648499 257.799925 
L 207.782987 262.13079 
L 208.051964 275.867936 
L 208.186452 272.709975 
L 208.455428 254.299301 
L 209.262357 278.881983 
L 209.531334 274.333906 
L 209.665822 262.428683 
L 209.80031 269.971111 
L 209.934799 269.550862 
L 210.069287 269.671431 
L 210.203775 271.820717 
L 210.472751 245.86034 
L 210.741728 142.130453 
L 210.876216 142.549633 
L 211.010704 125.431186 
L 211.145192 124.53732 
L 211.279681 112.467635 
L 211.414169 137.110796 
L 211.548657 135.624119 
L 211.952122 217.730603 
L 212.221098 250.295795 
L 212.355586 261.651989 
L 212.490075 262.120583 
L 212.624563 261.915323 
L 212.893539 271.09504 
L 213.028027 273.314937 
L 213.162516 268.680933 
L 213.297004 268.062244 
L 213.431492 273.034118 
L 213.700468 230.51871 
L 213.969445 120.491149 
L 214.103933 113.372698 
L 214.238421 134.813241 
L 214.37291 133.122023 
L 214.641886 146.479542 
L 215.448815 265.710558 
L 215.583303 266.615282 
L 215.717792 263.113755 
L 215.85228 268.373594 
L 215.986768 264.313715 
L 216.255745 268.23447 
L 216.390233 266.72987 
L 216.524721 267.819623 
L 216.659209 271.549041 
L 216.793697 260.263983 
L 216.928186 238.163954 
L 217.197162 128.298353 
L 217.33165 126.533033 
L 217.466138 145.599741 
L 217.600627 144.640666 
L 217.735115 152.529777 
L 217.869603 152.93361 
L 218.004091 146.638214 
L 218.407556 232.094702 
L 218.542044 231.798848 
L 218.676532 264.640152 
L 218.811021 265.788907 
L 219.079997 275.321409 
L 219.214485 255.617412 
L 219.483462 269.40034 
L 219.886926 274.767207 
L 220.155903 241.090593 
L 220.424879 122.673545 
L 220.693856 155.233319 
L 220.962832 149.372495 
L 221.09732 167.907788 
L 221.231808 162.489313 
L 221.500785 225.56159 
L 221.635273 223.16173 
L 221.769761 233.179033 
L 221.904249 266.471989 
L 222.173226 267.420925 
L 222.307714 275.351998 
L 222.442202 267.339479 
L 222.576691 268.638335 
L 222.845667 276.057549 
L 222.980155 275.428519 
L 223.114643 276.960295 
L 223.249132 271.550011 
L 223.38362 273.208059 
L 223.652596 237.43444 
L 223.787084 267.938632 
L 223.921573 263.775359 
L 224.190549 248.001723 
L 224.325037 251.603671 
L 224.459525 248.782442 
L 224.728502 256.304743 
L 224.997478 251.048217 
L 225.266455 261.569344 
L 225.400943 261.468032 
L 225.535431 256.768936 
L 225.669919 259.521727 
L 225.804408 259.425866 
L 225.938896 256.50682 
L 226.073384 264.906539 
L 226.207872 265.729156 
L 226.34236 269.800548 
L 226.745825 263.571144 
L 226.880313 264.157163 
L 227.014802 263.688409 
L 227.14929 272.911315 
L 227.283778 270.872791 
L 227.552754 257.752152 
L 227.821731 266.884638 
L 227.956219 266.494434 
L 228.090707 265.414004 
L 228.225195 265.950522 
L 228.359684 277.629517 
L 228.494172 272.903815 
L 228.62866 273.998543 
L 228.763148 271.296023 
L 228.897637 273.795022 
L 229.032125 272.857248 
L 229.166613 268.049275 
L 229.435589 272.053857 
L 229.570078 271.628269 
L 229.704566 257.498353 
L 229.839054 224.687802 
L 230.10803 111.743699 
L 230.242519 96.377991 
L 230.377007 95.683879 
L 230.511495 103.521236 
L 230.645983 91.295667 
L 230.780471 164.11869 
L 230.91496 152.687866 
L 231.183936 177.635878 
L 231.721889 256.786371 
L 231.856377 259.313465 
L 231.990865 267.377652 
L 232.125354 267.922009 
L 232.259842 269.344996 
L 232.39433 268.024433 
L 232.663306 272.467175 
L 232.797795 268.540972 
L 233.066771 226.898118 
L 233.335748 122.692376 
L 233.470236 110.227889 
L 234.008189 145.408558 
L 234.142677 127.345257 
L 234.546141 222.53158 
L 234.68063 228.202354 
L 234.949606 266.978197 
L 235.084094 267.296721 
L 235.218583 264.576903 
L 235.353071 269.625467 
L 235.487559 268.382107 
L 235.756535 277.832184 
L 236.025512 271.748091 
L 236.294488 242.108093 
L 236.563465 122.72828 
L 236.697953 111.472287 
L 236.832441 123.733164 
L 236.966929 121.780279 
L 237.101417 117.387163 
L 237.504882 163.46929 
L 237.908347 242.476024 
L 238.177323 266.418386 
L 238.311811 268.101508 
L 238.4463 267.369016 
L 238.580788 269.722451 
L 238.715276 269.313921 
L 238.849764 272.044929 
L 239.118741 280.681137 
L 239.253229 275.438907 
L 239.387717 265.4665 
L 239.522205 228.446685 
L 239.791182 126.770777 
L 239.92567 117.362669 
L 240.060158 120.377333 
L 240.194646 131.055095 
L 240.329135 130.836512 
L 240.732599 187.511337 
L 241.270552 261.721089 
L 241.40504 258.240491 
L 241.539529 263.935132 
L 241.674017 261.599888 
L 241.808505 263.233781 
L 241.942993 260.991452 
L 242.077481 279.056397 
L 242.21197 274.047829 
L 242.346458 282.739357 
L 242.480946 276.168045 
L 242.749922 232.179519 
L 243.018899 126.763606 
L 243.153387 129.372832 
L 243.287875 155.383486 
L 243.556852 144.670897 
L 243.69134 156.079357 
L 243.825828 154.762851 
L 244.363781 249.182106 
L 244.767246 268.972985 
L 244.901734 269.058782 
L 245.036222 266.062588 
L 245.305198 274.364614 
L 245.439687 271.605163 
L 245.574175 271.925732 
L 245.708663 270.544376 
L 245.843151 266.225013 
L 245.97764 234.273962 
L 246.112128 264.965796 
L 246.246616 263.740684 
L 246.515592 256.670023 
L 246.650081 254.106047 
L 246.784569 257.526569 
L 246.919057 264.162293 
L 247.053545 261.611412 
L 247.188033 264.897226 
L 247.322522 264.363101 
L 247.45701 269.018668 
L 247.591498 267.560097 
L 247.725986 268.481465 
L 247.860475 266.852794 
L 247.994963 273.178499 
L 248.129451 267.662068 
L 248.398427 270.553783 
L 248.532916 268.132947 
L 248.667404 270.096188 
L 248.801892 269.240391 
L 248.93638 273.133733 
L 249.205357 267.911098 
L 249.474333 275.819758 
L 249.608821 276.03233 
L 250.146774 273.795791 
L 250.415751 263.213879 
L 250.550239 269.707557 
L 250.684727 269.042965 
L 250.819215 267.375784 
L 250.953703 268.850639 
L 251.088192 269.056683 
L 251.22268 270.547812 
L 251.357168 267.591747 
L 251.491656 270.535605 
L 251.626144 270.07302 
L 251.760633 286.90708 
L 251.895121 278.917979 
L 252.164097 277.949612 
L 252.433074 250.669368 
L 252.70205 129.384131 
L 252.836538 121.990774 
L 253.105515 151.903285 
L 253.240003 147.614497 
L 253.777956 200.792718 
L 254.046932 245.193264 
L 254.181421 263.427357 
L 254.315909 264.845476 
L 254.584885 280.422629 
L 254.719373 278.213421 
L 254.853862 278.175597 
L 254.98835 284.058255 
L 255.122838 280.214498 
L 255.257326 282.232298 
L 255.391814 282.026543 
L 255.660791 239.284883 
L 255.929767 132.916614 
L 256.198744 169.20147 
L 256.46772 155.896216 
L 256.871185 180.432763 
L 257.140161 240.05201 
L 257.274649 240.164638 
L 257.543626 259.870127 
L 257.678114 267.473257 
L 257.812602 263.703091 
L 257.94709 265.644393 
L 258.081579 264.370961 
L 258.216067 282.284548 
L 258.350555 280.775072 
L 258.619532 274.881791 
L 258.888508 242.441151 
L 259.157484 130.602937 
L 259.291973 166.098203 
L 259.426461 166.25618 
L 259.560949 162.804703 
L 259.695437 150.572523 
L 259.964414 181.700909 
L 260.098902 164.338508 
L 260.367878 230.530695 
L 260.502366 237.712731 
L 260.771343 259.956138 
L 261.040319 267.155324 
L 261.174808 262.641125 
L 261.309296 262.140006 
L 261.443784 271.543283 
L 261.578272 268.714273 
L 261.71276 272.711018 
L 261.981737 262.060036 
L 262.116225 227.530323 
L 262.385201 133.184594 
L 262.51969 160.760743 
L 262.654178 160.513165 
L 262.788666 149.011322 
L 262.923154 147.493772 
L 263.057643 158.266493 
L 263.192131 150.526909 
L 263.461107 214.030415 
L 263.99906 255.849456 
L 264.268036 260.839568 
L 264.402525 260.183444 
L 264.537013 270.044558 
L 264.671501 261.307082 
L 264.805989 265.461871 
L 265.074966 262.378182 
L 265.209454 257.619395 
L 265.47843 198.281472 
L 265.747407 131.852361 
L 265.881895 110.761352 
L 266.016383 112.599015 
L 266.150871 110.51102 
L 266.28536 121.880872 
L 266.419848 119.923462 
L 266.688824 157.050619 
L 267.092289 252.256553 
L 267.226777 255.067124 
L 267.361265 254.656792 
L 267.495754 259.311392 
L 267.630242 253.297017 
L 267.76473 278.668816 
L 267.899218 265.683593 
L 268.033706 267.319641 
L 268.168195 265.355277 
L 268.437171 273.72185 
L 268.571659 269.41778 
L 268.706147 261.168419 
L 268.840636 275.97742 
L 268.975124 276.404696 
L 269.109612 269.245967 
L 269.2441 270.063577 
L 269.513077 266.643644 
L 269.782053 249.127725 
L 270.05103 253.097676 
L 270.185518 251.200571 
L 270.454494 256.592931 
L 270.588982 257.977608 
L 270.723471 263.078251 
L 270.857959 262.682703 
L 270.992447 285.624175 
L 271.261424 270.695735 
L 271.395912 273.14949 
L 271.5304 272.746997 
L 271.664888 270.739615 
L 271.799376 270.512117 
L 271.933865 272.901048 
L 272.068353 279.831791 
L 272.202841 274.674923 
L 272.337329 278.183436 
L 272.471817 276.214317 
L 272.606306 276.625014 
L 272.740794 273.90168 
L 272.875282 266.317979 
L 273.144258 271.092228 
L 273.278747 270.205813 
L 273.413235 266.089126 
L 273.8167 273.5499 
L 273.951188 272.272423 
L 274.085676 273.286705 
L 274.220164 271.011888 
L 274.354652 292.215222 
L 274.623629 284.556679 
L 274.758117 281.033618 
L 275.027093 246.793978 
L 275.29607 169.393082 
L 275.565046 148.576468 
L 275.699535 153.667234 
L 275.834023 151.101373 
L 275.968511 152.782402 
L 276.640952 248.092769 
L 277.044417 271.709174 
L 277.178905 270.717498 
L 277.313393 276.552261 
L 277.447881 269.460062 
L 277.58237 283.236625 
L 277.716858 278.064926 
L 277.851346 282.957832 
L 277.985834 279.572276 
L 278.120322 269.515525 
L 278.254811 245.568662 
L 278.523787 178.357635 
L 278.658275 191.057109 
L 278.792763 178.22948 
L 278.927252 186.520173 
L 279.06174 174.861448 
L 279.196228 200.921291 
L 279.330716 203.62175 
L 279.465204 209.751623 
L 279.734181 245.044585 
L 279.868669 251.791749 
L 280.137646 272.490573 
L 280.406622 274.864793 
L 280.54111 275.095106 
L 280.675598 255.432638 
L 280.944575 264.643374 
L 281.079063 265.653297 
L 281.213551 263.733483 
L 281.348039 250.155819 
L 281.482528 249.144871 
L 281.751504 120.722305 
L 281.885992 126.668152 
L 282.020481 121.055021 
L 282.154969 136.257109 
L 282.289457 135.063152 
L 282.423945 146.541643 
L 282.558433 117.516891 
L 283.230874 258.222087 
L 283.365363 262.662522 
L 283.499851 263.316301 
L 283.634339 262.63106 
L 283.768827 263.278858 
L 283.903316 259.616123 
L 284.037804 259.723736 
L 284.172292 260.067807 
L 284.30678 262.208902 
L 284.441268 261.222865 
L 284.710245 244.450147 
L 284.979221 142.274403 
L 285.113709 143.325448 
L 285.248198 151.389351 
L 285.382686 137.81408 
L 285.517174 154.336055 
L 285.651662 154.646433 
L 285.78615 171.485509 
L 285.920639 154.104298 
L 286.458592 254.415431 
L 286.727568 262.355337 
L 286.862056 264.661824 
L 286.996544 259.508168 
L 287.131033 290.560072 
L 287.400009 272.346247 
L 287.534497 274.017111 
L 287.937962 264.478277 
L 288.07245 273.773273 
L 288.206938 272.663042 
L 288.341427 273.163125 
L 288.475915 270.476665 
L 288.610403 272.047483 
L 288.744891 266.474208 
L 288.879379 266.634997 
L 289.013868 260.912206 
L 289.282844 267.210866 
L 289.417332 262.372071 
L 289.55182 274.227668 
L 289.686309 274.831874 
L 289.820797 274.479455 
L 290.089773 272.131688 
L 290.224262 273.69815 
L 290.35875 270.149373 
L 290.493238 274.548154 
L 290.627726 271.598903 
L 290.762214 274.0135 
L 290.896703 270.131742 
L 291.031191 254.294384 
L 291.165679 257.278696 
L 291.300167 236.248294 
L 291.434655 153.721882 
L 291.83812 184.24233 
L 291.972608 185.033339 
L 292.241585 173.915677 
L 292.914026 263.774735 
L 293.048514 268.736897 
L 293.183002 267.981749 
L 293.31749 270.414536 
L 293.586467 263.64367 
L 293.720955 265.586286 
L 293.855443 263.267857 
L 293.989931 268.818956 
L 294.12442 267.308875 
L 294.258908 247.421848 
L 294.393396 248.599967 
L 294.527884 216.236501 
L 294.662373 153.278711 
L 294.796861 163.925081 
L 294.931349 152.739798 
L 295.065837 152.672628 
L 295.200325 139.347044 
L 295.334814 141.693608 
L 295.469302 149.502283 
L 295.60379 145.894078 
L 295.738278 213.553514 
L 295.872766 213.432679 
L 296.007255 225.331624 
L 296.276231 265.685501 
L 296.545208 258.121472 
L 296.679696 267.904327 
L 296.814184 291.21037 
L 296.948672 279.728246 
L 297.217649 277.923036 
L 297.352137 278.564421 
L 297.486625 276.131065 
L 297.621113 278.544214 
L 297.755601 282.991383 
L 297.89009 281.934226 
L 298.024578 282.971614 
L 298.293554 279.286236 
L 298.428042 279.907019 
L 298.562531 277.18093 
L 298.697019 272.017516 
L 298.831507 261.313959 
L 298.965995 266.880027 
L 299.36946 269.638689 
L 299.503948 274.528065 
L 299.638436 274.707199 
L 299.772925 272.144643 
L 299.907413 275.454027 
L 300.041901 253.867533 
L 300.176389 269.462278 
L 300.310877 267.656909 
L 300.445366 269.379423 
L 300.579854 267.894695 
L 300.84883 242.65777 
L 301.117807 149.111891 
L 301.386783 134.933212 
L 301.521271 127.135748 
L 301.65576 125.885337 
L 301.790248 134.220898 
L 301.924736 129.696337 
L 302.328201 221.296447 
L 302.462689 228.520836 
L 302.731665 260.571649 
L 302.866153 261.396357 
L 303.000642 259.67249 
L 303.13513 268.365924 
L 303.269618 269.400476 
L 303.404106 264.967966 
L 303.538595 264.348463 
L 303.673083 268.26164 
L 303.807571 266.867974 
L 303.942059 235.253896 
L 304.076547 232.837892 
L 304.345524 139.628436 
L 304.6145 162.246939 
L 304.883477 150.018747 
L 305.017965 154.743579 
L 305.152453 147.330447 
L 305.286941 168.089441 
L 305.555918 235.262136 
L 305.690406 231.902879 
L 305.959382 262.900158 
L 306.093871 266.980145 
L 306.228359 264.220119 
L 306.362847 266.883933 
L 306.497335 264.650264 
L 306.631823 278.858786 
L 306.9008 273.163452 
L 307.035288 272.822543 
L 307.304265 232.88019 
L 307.573241 132.851585 
L 307.842217 172.465761 
L 308.111194 154.463506 
L 308.245682 157.622373 
L 308.38017 151.111922 
L 308.514658 168.698908 
L 308.783635 232.225783 
L 309.187099 266.583633 
L 309.321588 269.54848 
L 309.456076 269.633769 
L 309.590564 271.818412 
L 309.725052 271.068171 
L 309.859541 274.227515 
L 309.994029 272.241782 
L 310.128517 273.146507 
L 310.263005 271.771089 
L 310.397493 258.945986 
L 310.531982 228.711553 
L 310.800958 134.578594 
L 311.069934 171.811639 
L 311.204423 166.592059 
L 311.338911 156.248734 
L 311.473399 158.960742 
L 311.742376 157.952281 
L 312.011352 250.286502 
L 312.14584 239.787997 
L 312.414817 265.780488 
L 312.549305 266.286749 
L 312.683793 265.580085 
L 312.952769 267.930272 
L 313.087258 270.267032 
L 313.221746 266.451207 
L 313.356234 269.775636 
L 313.625211 266.167806 
L 313.894187 248.351947 
L 314.028675 242.520234 
L 314.163163 260.322753 
L 314.297652 254.196849 
L 314.43214 256.655723 
L 314.566628 250.048434 
L 314.701116 263.547366 
L 314.835604 262.939075 
L 314.970093 254.91466 
L 315.239069 266.652325 
L 315.508045 262.529805 
L 315.642534 267.314509 
L 315.777022 266.22886 
L 315.91151 266.377178 
L 316.045998 265.218246 
L 316.180487 267.679974 
L 316.314975 267.740591 
L 316.449463 269.329516 
L 316.583951 267.249312 
L 316.718439 268.719563 
L 316.852928 264.744715 
L 317.121904 273.219816 
L 317.256392 268.492833 
L 317.39088 270.147999 
L 317.525369 265.083899 
L 317.659857 268.253929 
L 317.794345 265.996946 
L 317.928833 268.383021 
L 318.063322 258.190294 
L 318.19781 258.592189 
L 318.466786 262.867015 
L 318.601274 259.9381 
L 318.735763 263.067117 
L 318.870251 261.907396 
L 319.004739 265.332245 
L 319.139227 263.375565 
L 319.273715 264.945995 
L 319.408204 264.949839 
L 319.542692 283.514584 
L 319.67718 276.252465 
L 319.946157 274.788512 
L 320.215133 247.018494 
L 320.484109 134.186297 
L 320.618598 125.946362 
L 320.753086 127.205462 
L 320.887574 138.743278 
L 321.022062 137.662391 
L 321.291039 154.635163 
L 321.96348 264.794824 
L 322.097968 264.656983 
L 322.232456 266.775958 
L 322.366944 264.249288 
L 322.501433 268.399183 
L 322.635921 266.689344 
L 322.770409 283.145568 
L 323.039385 275.591967 
L 323.173874 273.273454 
L 323.308362 252.195398 
L 323.44285 253.038633 
L 323.711826 135.531892 
L 323.980803 176.40158 
L 324.249779 152.059159 
L 324.384268 152.017984 
L 324.518756 153.292751 
L 324.653244 165.783466 
L 324.92222 226.123592 
L 325.056709 233.408449 
L 325.191197 261.885019 
L 325.325685 264.413751 
L 325.594661 263.368229 
L 325.72915 267.735013 
L 325.863638 266.778403 
L 325.998126 278.985704 
L 326.132614 277.181045 
L 326.267103 277.028244 
L 326.401591 274.765197 
L 326.670567 243.125713 
L 326.939544 131.346731 
L 327.20852 178.137789 
L 327.477496 157.162139 
L 327.611985 159.938183 
L 327.746473 158.643749 
L 327.880961 166.888934 
L 328.149937 241.541834 
L 328.284426 241.088922 
L 328.68789 265.1944 
L 328.956867 271.32729 
L 329.091355 270.032647 
L 329.225843 284.928175 
L 329.360331 277.577752 
L 329.49482 276.774745 
L 329.629308 274.00301 
L 329.898284 248.122659 
L 330.167261 143.556112 
L 330.436237 175.479123 
L 330.839702 155.167231 
L 331.377655 217.369171 
L 331.646631 258.8761 
L 331.915607 264.862108 
L 332.050096 264.015408 
L 332.184584 264.521618 
L 332.319072 268.934136 
L 332.45356 283.76374 
L 332.722537 272.892727 
L 332.857025 274.561366 
L 333.126001 244.744607 
L 333.394978 138.964933 
L 333.663954 183.465586 
L 333.932931 161.345441 
L 334.067419 159.507806 
L 334.201907 164.16592 
L 335.008836 264.293645 
L 335.412301 272.149005 
L 335.546789 267.472748 
L 335.681277 266.870553 
L 335.815766 267.150727 
L 335.950254 266.70018 
L 336.084742 268.583574 
L 336.353718 262.05906 
L 336.488207 255.715358 
L 336.622695 258.118907 
L 336.891671 251.079278 
L 337.02616 255.538976 
L 337.160648 250.153761 
L 337.295136 256.760868 
L 337.429624 257.077872 
L 337.564112 256.931095 
L 337.698601 259.021184 
L 337.833089 264.36346 
L 337.967577 263.616553 
L 338.102065 261.418396 
L 338.236553 267.36817 
L 338.371042 266.613779 
L 338.50553 264.789911 
L 338.640018 265.84692 
L 338.774506 260.651217 
L 339.043483 265.900944 
L 339.177971 265.54223 
L 339.312459 266.346426 
L 339.446947 263.564408 
L 339.715924 271.791419 
L 339.9849 270.016428 
L 340.119388 272.452356 
L 340.253877 269.636975 
L 340.388365 269.765909 
L 340.522853 267.578826 
L 340.657341 270.569634 
L 340.791829 257.074603 
L 341.060806 265.850228 
L 341.195294 265.611779 
L 341.329782 259.093766 
L 341.598759 269.786613 
L 341.733247 267.589749 
L 341.867735 268.186299 
L 342.002223 270.747178 
L 342.136712 284.283298 
L 342.405688 276.2237 
L 342.540176 276.993369 
L 342.674664 252.359077 
L 342.809153 251.635242 
L 343.078129 134.969457 
L 343.212617 131.451215 
L 343.347106 166.212859 
L 343.481594 167.027687 
L 343.616082 162.186866 
L 343.885058 171.485654 
L 344.288523 216.523828 
L 344.557499 264.995336 
L 344.691988 262.359763 
L 344.826476 263.986243 
L 344.960964 270.720063 
L 345.095452 271.492598 
L 345.22994 268.796098 
L 345.364429 281.486165 
L 345.498917 276.284228 
L 345.633405 276.47966 
L 345.767893 274.089608 
L 346.03687 244.207514 
L 346.305846 144.706862 
L 346.440334 174.86073 
L 346.574823 179.765664 
L 346.843799 163.18405 
L 346.978287 166.078765 
L 347.112775 172.172859 
L 347.381752 204.174194 
L 347.650728 251.278148 
L 347.919705 262.494949 
L 348.323169 271.269472 
L 348.457658 268.027271 
L 348.592146 282.53841 
L 348.726634 276.841357 
L 348.861122 278.141744 
L 348.99561 275.672108 
L 349.264587 247.150131 
L 349.533563 144.251609 
L 349.668052 170.110488 
L 349.80254 171.086635 
L 349.937028 166.972038 
L 350.071516 159.116406 
L 350.206004 160.369205 
L 350.340493 164.568989 
L 350.609469 205.767965 
L 350.878445 247.950378 
L 351.28191 270.524834 
L 351.416398 266.914721 
L 351.550886 270.911421 
L 351.685375 270.672732 
L 351.819863 285.217229 
L 351.954351 276.179884 
L 352.223328 274.867706 
L 352.357816 267.816754 
L 352.492304 252.612076 
L 352.76128 142.750518 
L 352.895769 173.976672 
L 353.030257 177.254439 
L 353.164745 172.825517 
L 353.299233 161.980133 
L 353.433721 164.726699 
L 353.702698 163.102555 
L 353.837186 163.21304 
L 354.106163 257.939124 
L 354.240651 256.374251 
L 354.509627 271.886862 
L 354.644115 269.582029 
L 354.778604 270.683719 
L 355.04758 278.358789 
L 355.182068 276.277562 
L 355.316556 276.73945 
L 355.451045 275.26605 
L 355.585533 265.417876 
L 355.720021 246.374016 
L 355.988998 174.425713 
L 356.123486 180.537363 
L 356.392462 155.747816 
L 356.52695 155.14506 
L 356.661439 162.808631 
L 356.795927 161.396743 
L 357.064903 201.116276 
L 357.199391 246.986566 
L 357.33388 249.428889 
L 357.602856 273.397962 
L 357.737344 273.148652 
L 357.871832 274.416842 
L 358.006321 274.02508 
L 358.140809 279.849567 
L 358.275297 274.797867 
L 358.409785 274.546173 
L 358.544274 275.959325 
L 358.678762 274.595869 
L 358.81325 268.793993 
L 358.947738 272.140143 
L 359.216715 241.460173 
L 359.351203 241.791953 
L 359.485691 253.023818 
L 359.620179 254.166344 
L 359.754667 239.188036 
L 359.889156 270.324975 
L 360.023644 264.210013 
L 360.158132 252.532404 
L 360.561597 277.427598 
L 360.696085 271.978919 
L 360.830573 271.987108 
L 361.09955 275.640536 
L 361.234038 276.465682 
L 361.503014 274.926344 
L 361.637502 274.578946 
L 361.771991 276.59977 
L 361.906479 271.946688 
L 362.040967 274.100676 
L 362.175455 281.995155 
L 362.309944 280.976767 
L 362.444432 282.539726 
L 362.57892 282.224449 
L 362.847896 276.885938 
L 362.982385 276.955576 
L 363.251361 268.444969 
L 363.385849 268.688001 
L 363.654826 273.341586 
L 363.789314 270.612491 
L 363.923802 270.928703 
L 364.192778 273.584605 
L 364.327267 275.21858 
L 364.461755 217.325652 
L 364.730731 254.229473 
L 364.999708 259.327601 
L 365.134196 248.933054 
L 365.806637 104.223949 
L 365.941125 108.256686 
L 366.210102 97.39477 
L 366.613566 138.13302 
L 367.151519 251.402709 
L 367.420496 262.181004 
L 367.554984 255.033461 
L 367.689472 267.763114 
L 367.82396 267.053391 
L 367.958448 264.934267 
L 368.092937 268.550773 
L 368.227425 268.167661 
L 368.361913 221.400533 
L 368.496401 223.639619 
L 368.899866 95.41647 
L 369.034354 102.250141 
L 369.303331 83.367622 
L 369.437819 86.602721 
L 369.572307 114.61124 
L 369.706795 114.173134 
L 369.841283 131.481619 
L 370.244748 249.22048 
L 370.379236 237.440679 
L 370.782701 263.516259 
L 370.917189 288.995716 
L 371.186166 274.846755 
L 371.320654 275.863242 
L 371.455142 273.633305 
L 371.724118 239.811421 
L 371.993095 129.896622 
L 372.262071 193.354088 
L 372.396559 192.823614 
L 372.531048 186.694257 
L 372.800024 195.214405 
L 372.934512 188.699259 
L 373.203489 249.287765 
L 373.337977 243.824278 
L 373.606953 265.49721 
L 373.741442 264.409309 
L 373.87593 267.931527 
L 374.010418 267.997096 
L 374.279394 290.327272 
L 374.413883 282.287085 
L 374.548371 283.211978 
L 374.682859 280.318136 
L 375.3553 172.242056 
L 375.489788 168.905612 
L 375.758765 176.222233 
L 375.893253 178.271077 
L 376.83467 267.429773 
L 376.969159 267.736836 
L 377.103647 266.623274 
L 377.238135 267.887218 
L 377.372623 285.904509 
L 377.507112 274.484983 
L 377.776088 276.601213 
L 377.910576 270.547874 
L 378.045064 277.843144 
L 378.179553 271.698193 
L 378.314041 274.910906 
L 378.448529 256.783785 
L 378.583017 264.963395 
L 378.717505 247.672095 
L 378.851994 260.944105 
L 378.986482 260.159273 
L 379.12097 270.856828 
L 379.389947 258.325729 
L 379.524435 265.7927 
L 379.658923 265.55348 
L 379.927899 273.094803 
L 380.062388 273.445667 
L 380.196876 276.268223 
L 380.331364 273.517663 
L 380.465852 274.006113 
L 380.60034 252.813947 
L 380.869317 267.428379 
L 381.003805 269.319915 
L 381.138293 267.801909 
L 381.272782 242.132797 
L 381.40727 246.9093 
L 381.676246 130.18936 
L 381.945223 147.396177 
L 382.079711 139.685736 
L 382.348687 137.824064 
L 382.483175 146.057082 
L 382.617664 139.714174 
L 382.88664 208.07506 
L 383.155616 264.426966 
L 383.290105 264.624619 
L 383.424593 267.895181 
L 383.693569 265.866782 
L 383.828058 254.272554 
L 384.097034 258.878586 
L 384.36601 261.18045 
L 384.500499 251.543007 
L 384.634987 255.124344 
L 384.903963 144.209569 
L 385.17294 160.164574 
L 385.307428 144.644982 
L 385.441916 153.101663 
L 385.576404 181.095707 
L 385.710893 167.357385 
L 385.845381 178.530793 
L 385.979869 227.059789 
L 386.114357 228.181825 
L 386.517822 267.93467 
L 386.65231 267.765217 
L 386.786798 273.309326 
L 386.921286 268.403906 
L 387.055775 281.216406 
L 387.324751 272.448301 
L 387.459239 275.521223 
L 387.593727 270.856106 
L 387.728216 270.165331 
L 387.862704 279.551281 
L 387.997192 276.701054 
L 388.13168 281.075332 
L 388.400657 278.580714 
L 388.535145 277.338704 
L 388.93861 269.073275 
L 389.073098 272.892252 
L 389.207586 265.394479 
L 389.476562 275.093046 
L 389.745539 284.095828 
L 389.880027 278.816971 
L 390.014515 280.67126 
L 390.149004 280.197679 
L 390.283492 248.174525 
L 390.552468 265.31601 
L 390.686956 266.009433 
L 390.821445 262.768331 
L 390.955933 245.440795 
L 391.090421 257.90716 
L 391.224909 240.220348 
L 391.359397 157.521374 
L 391.493886 176.613407 
L 391.628374 150.048186 
L 391.89735 163.470586 
L 392.031839 170.949073 
L 392.300815 168.666338 
L 392.838768 265.315403 
L 392.973256 270.569392 
L 393.107744 271.13923 
L 393.376721 268.6947 
L 393.511209 255.844639 
L 393.645697 258.653114 
L 393.780185 270.028328 
L 393.914673 268.562098 
L 394.049162 257.988286 
L 394.18365 260.549921 
L 394.318138 243.660718 
L 394.587115 157.679612 
L 394.721603 150.497349 
L 394.856091 153.42501 
L 394.990579 145.538571 
L 395.125067 146.386333 
L 395.259556 140.323383 
L 395.394044 144.019328 
L 395.66302 177.682055 
L 395.797508 232.332416 
L 395.931997 236.670377 
L 396.200973 262.879439 
L 396.46995 263.943705 
L 396.604438 253.138049 
L 396.738926 295.488 
L 396.873414 279.225899 
L 397.007902 278.22899 
L 397.142391 278.416553 
L 397.276879 277.872556 
L 397.545855 251.9136 
L 397.814832 162.438152 
L 397.94932 180.370967 
L 398.083808 163.017923 
L 398.218296 169.593159 
L 398.352785 150.705549 
L 398.487273 162.83723 
L 398.487273 162.83723 
" clip-path="url(#pb23b63c927)" style="fill: none; stroke: #ff7f0e; stroke-width: 1.5; stroke-linecap: square"/>
   </g>
   <g id="patch_3">
    <path d="M 57.6 307.584 
L 57.6 41.472 
" style="fill: none; stroke: #000000; stroke-width: 0.8; stroke-linejoin: miter; stroke-linecap: square"/>
   </g>
   <g id="patch_4">
    <path d="M 414.72 307.584 
L 414.72 41.472 
" style="fill: none; stroke: #000000; stroke-width: 0.8; stroke-linejoin: miter; stroke-linecap: square"/>
   </g>
   <g id="patch_5">
    <path d="M 57.6 307.584 
L 414.72 307.584 
" style="fill: none; stroke: #000000; stroke-width: 0.8; stroke-linejoin: miter; stroke-linecap: square"/>
   </g>
   <g id="patch_6">
    <path d="M 57.6 41.472 
L 414.72 41.472 
" style="fill: none; stroke: #000000; stroke-width: 0.8; stroke-linejoin: miter; stroke-linecap: square"/>
   </g>
  </g>
 </g>
 <defs>
  <clipPath id="pb23b63c927">
   <rect x="57.6" y="41.472" width="357.12" height="266.112"/>
  </clipPath>
 </defs>
</svg>
