<?xml version="1.0" encoding="utf-8" standalone="no"?>
<!DOCTYPE svg PUBLIC "-//W3C//DTD SVG 1.1//EN"
  "http://www.w3.org/Graphics/SVG/1.1/DTD/svg11.dtd">
<svg xmlns:xlink="http://www.w3.org/1999/xlink" width="460.8pt" height="345.6pt" viewBox="0 0 460.8 345.6" xmlns="http://www.w3.org/2000/svg" version="1.1">
 <metadata>
  <rdf:RDF xmlns:dc="http://purl.org/dc/elements/1.1/" xmlns:cc="http://creativecommons.org/ns#" xmlns:rdf="http://www.w3.org/1999/02/22-rdf-syntax-ns#">
   <cc:Work>
    <dc:type rdf:resource="http://purl.org/dc/dcmitype/StillImage"/>
    <dc:date>2023-04-04T05:32:43.109919</dc:date>
    <dc:format>image/svg+xml</dc:format>
    <dc:creator>
     <cc:Agent>
      <dc:title>Matplotlib v3.5.2, https://matplotlib.org/</dc:title>
     </cc:Agent>
    </dc:creator>
   </cc:Work>
  </rdf:RDF>
 </metadata>
 <defs>
  <style type="text/css">*{stroke-linejoin: round; stroke-linecap: butt}</style>
 </defs>
 <g id="figure_1">
  <g id="patch_1">
   <path d="M 0 345.6 
L 460.8 345.6 
L 460.8 0 
L 0 0 
z
" style="fill: #ffffff"/>
  </g>
  <g id="axes_1">
   <g id="patch_2">
    <path d="M 57.6 307.584 
L 414.72 307.584 
L 414.72 41.472 
L 57.6 41.472 
z
" style="fill: #ffffff"/>
   </g>
   <g id="matplotlib.axis_1">
    <g id="xtick_1">
     <g id="line2d_1">
      <defs>
       <path id="m138e9f40ba" d="M 0 0 
L 0 3.5 
" style="stroke: #000000; stroke-width: 0.8"/>
      </defs>
      <g>
       <use xlink:href="#m138e9f40ba" x="73.832727" y="307.584" style="stroke: #000000; stroke-width: 0.8"/>
      </g>
     </g>
     <g id="text_1">
      <!-- 0 -->
      <g transform="translate(70.651477 322.182437)scale(0.1 -0.1)">
       <defs>
        <path id="DejaVuSans-30" d="M 2034 4250 
Q 1547 4250 1301 3770 
Q 1056 3291 1056 2328 
Q 1056 1369 1301 889 
Q 1547 409 2034 409 
Q 2525 409 2770 889 
Q 3016 1369 3016 2328 
Q 3016 3291 2770 3770 
Q 2525 4250 2034 4250 
z
M 2034 4750 
Q 2819 4750 3233 4129 
Q 3647 3509 3647 2328 
Q 3647 1150 3233 529 
Q 2819 -91 2034 -91 
Q 1250 -91 836 529 
Q 422 1150 422 2328 
Q 422 3509 836 4129 
Q 1250 4750 2034 4750 
z
" transform="scale(0.015625)"/>
       </defs>
       <use xlink:href="#DejaVuSans-30"/>
      </g>
     </g>
    </g>
    <g id="xtick_2">
     <g id="line2d_2">
      <g>
       <use xlink:href="#m138e9f40ba" x="141.076834" y="307.584" style="stroke: #000000; stroke-width: 0.8"/>
      </g>
     </g>
     <g id="text_2">
      <!-- 500 -->
      <g transform="translate(131.533084 322.182437)scale(0.1 -0.1)">
       <defs>
        <path id="DejaVuSans-35" d="M 691 4666 
L 3169 4666 
L 3169 4134 
L 1269 4134 
L 1269 2991 
Q 1406 3038 1543 3061 
Q 1681 3084 1819 3084 
Q 2600 3084 3056 2656 
Q 3513 2228 3513 1497 
Q 3513 744 3044 326 
Q 2575 -91 1722 -91 
Q 1428 -91 1123 -41 
Q 819 9 494 109 
L 494 744 
Q 775 591 1075 516 
Q 1375 441 1709 441 
Q 2250 441 2565 725 
Q 2881 1009 2881 1497 
Q 2881 1984 2565 2268 
Q 2250 2553 1709 2553 
Q 1456 2553 1204 2497 
Q 953 2441 691 2322 
L 691 4666 
z
" transform="scale(0.015625)"/>
       </defs>
       <use xlink:href="#DejaVuSans-35"/>
       <use xlink:href="#DejaVuSans-30" x="63.623047"/>
       <use xlink:href="#DejaVuSans-30" x="127.246094"/>
      </g>
     </g>
    </g>
    <g id="xtick_3">
     <g id="line2d_3">
      <g>
       <use xlink:href="#m138e9f40ba" x="208.32094" y="307.584" style="stroke: #000000; stroke-width: 0.8"/>
      </g>
     </g>
     <g id="text_3">
      <!-- 1000 -->
      <g transform="translate(195.59594 322.182437)scale(0.1 -0.1)">
       <defs>
        <path id="DejaVuSans-31" d="M 794 531 
L 1825 531 
L 1825 4091 
L 703 3866 
L 703 4441 
L 1819 4666 
L 2450 4666 
L 2450 531 
L 3481 531 
L 3481 0 
L 794 0 
L 794 531 
z
" transform="scale(0.015625)"/>
       </defs>
       <use xlink:href="#DejaVuSans-31"/>
       <use xlink:href="#DejaVuSans-30" x="63.623047"/>
       <use xlink:href="#DejaVuSans-30" x="127.246094"/>
       <use xlink:href="#DejaVuSans-30" x="190.869141"/>
      </g>
     </g>
    </g>
    <g id="xtick_4">
     <g id="line2d_4">
      <g>
       <use xlink:href="#m138e9f40ba" x="275.565046" y="307.584" style="stroke: #000000; stroke-width: 0.8"/>
      </g>
     </g>
     <g id="text_4">
      <!-- 1500 -->
      <g transform="translate(262.840046 322.182437)scale(0.1 -0.1)">
       <use xlink:href="#DejaVuSans-31"/>
       <use xlink:href="#DejaVuSans-35" x="63.623047"/>
       <use xlink:href="#DejaVuSans-30" x="127.246094"/>
       <use xlink:href="#DejaVuSans-30" x="190.869141"/>
      </g>
     </g>
    </g>
    <g id="xtick_5">
     <g id="line2d_5">
      <g>
       <use xlink:href="#m138e9f40ba" x="342.809153" y="307.584" style="stroke: #000000; stroke-width: 0.8"/>
      </g>
     </g>
     <g id="text_5">
      <!-- 2000 -->
      <g transform="translate(330.084153 322.182437)scale(0.1 -0.1)">
       <defs>
        <path id="DejaVuSans-32" d="M 1228 531 
L 3431 531 
L 3431 0 
L 469 0 
L 469 531 
Q 828 903 1448 1529 
Q 2069 2156 2228 2338 
Q 2531 2678 2651 2914 
Q 2772 3150 2772 3378 
Q 2772 3750 2511 3984 
Q 2250 4219 1831 4219 
Q 1534 4219 1204 4116 
Q 875 4013 500 3803 
L 500 4441 
Q 881 4594 1212 4672 
Q 1544 4750 1819 4750 
Q 2544 4750 2975 4387 
Q 3406 4025 3406 3419 
Q 3406 3131 3298 2873 
Q 3191 2616 2906 2266 
Q 2828 2175 2409 1742 
Q 1991 1309 1228 531 
z
" transform="scale(0.015625)"/>
       </defs>
       <use xlink:href="#DejaVuSans-32"/>
       <use xlink:href="#DejaVuSans-30" x="63.623047"/>
       <use xlink:href="#DejaVuSans-30" x="127.246094"/>
       <use xlink:href="#DejaVuSans-30" x="190.869141"/>
      </g>
     </g>
    </g>
    <g id="xtick_6">
     <g id="line2d_6">
      <g>
       <use xlink:href="#m138e9f40ba" x="410.053259" y="307.584" style="stroke: #000000; stroke-width: 0.8"/>
      </g>
     </g>
     <g id="text_6">
      <!-- 2500 -->
      <g transform="translate(397.328259 322.182437)scale(0.1 -0.1)">
       <use xlink:href="#DejaVuSans-32"/>
       <use xlink:href="#DejaVuSans-35" x="63.623047"/>
       <use xlink:href="#DejaVuSans-30" x="127.246094"/>
       <use xlink:href="#DejaVuSans-30" x="190.869141"/>
      </g>
     </g>
    </g>
   </g>
   <g id="matplotlib.axis_2">
    <g id="ytick_1">
     <g id="line2d_7">
      <defs>
       <path id="m34d2464336" d="M 0 0 
L -3.5 0 
" style="stroke: #000000; stroke-width: 0.8"/>
      </defs>
      <g>
       <use xlink:href="#m34d2464336" x="57.6" y="280.527462" style="stroke: #000000; stroke-width: 0.8"/>
      </g>
     </g>
     <g id="text_7">
      <!-- 100 -->
      <g transform="translate(31.5125 284.326681)scale(0.1 -0.1)">
       <use xlink:href="#DejaVuSans-31"/>
       <use xlink:href="#DejaVuSans-30" x="63.623047"/>
       <use xlink:href="#DejaVuSans-30" x="127.246094"/>
      </g>
     </g>
    </g>
    <g id="ytick_2">
     <g id="line2d_8">
      <g>
       <use xlink:href="#m34d2464336" x="57.6" y="232.704136" style="stroke: #000000; stroke-width: 0.8"/>
      </g>
     </g>
     <g id="text_8">
      <!-- 200 -->
      <g transform="translate(31.5125 236.503355)scale(0.1 -0.1)">
       <use xlink:href="#DejaVuSans-32"/>
       <use xlink:href="#DejaVuSans-30" x="63.623047"/>
       <use xlink:href="#DejaVuSans-30" x="127.246094"/>
      </g>
     </g>
    </g>
    <g id="ytick_3">
     <g id="line2d_9">
      <g>
       <use xlink:href="#m34d2464336" x="57.6" y="184.88081" style="stroke: #000000; stroke-width: 0.8"/>
      </g>
     </g>
     <g id="text_9">
      <!-- 300 -->
      <g transform="translate(31.5125 188.680029)scale(0.1 -0.1)">
       <defs>
        <path id="DejaVuSans-33" d="M 2597 2516 
Q 3050 2419 3304 2112 
Q 3559 1806 3559 1356 
Q 3559 666 3084 287 
Q 2609 -91 1734 -91 
Q 1441 -91 1130 -33 
Q 819 25 488 141 
L 488 750 
Q 750 597 1062 519 
Q 1375 441 1716 441 
Q 2309 441 2620 675 
Q 2931 909 2931 1356 
Q 2931 1769 2642 2001 
Q 2353 2234 1838 2234 
L 1294 2234 
L 1294 2753 
L 1863 2753 
Q 2328 2753 2575 2939 
Q 2822 3125 2822 3475 
Q 2822 3834 2567 4026 
Q 2313 4219 1838 4219 
Q 1578 4219 1281 4162 
Q 984 4106 628 3988 
L 628 4550 
Q 988 4650 1302 4700 
Q 1616 4750 1894 4750 
Q 2613 4750 3031 4423 
Q 3450 4097 3450 3541 
Q 3450 3153 3228 2886 
Q 3006 2619 2597 2516 
z
" transform="scale(0.015625)"/>
       </defs>
       <use xlink:href="#DejaVuSans-33"/>
       <use xlink:href="#DejaVuSans-30" x="63.623047"/>
       <use xlink:href="#DejaVuSans-30" x="127.246094"/>
      </g>
     </g>
    </g>
    <g id="ytick_4">
     <g id="line2d_10">
      <g>
       <use xlink:href="#m34d2464336" x="57.6" y="137.057484" style="stroke: #000000; stroke-width: 0.8"/>
      </g>
     </g>
     <g id="text_10">
      <!-- 400 -->
      <g transform="translate(31.5125 140.856703)scale(0.1 -0.1)">
       <defs>
        <path id="DejaVuSans-34" d="M 2419 4116 
L 825 1625 
L 2419 1625 
L 2419 4116 
z
M 2253 4666 
L 3047 4666 
L 3047 1625 
L 3713 1625 
L 3713 1100 
L 3047 1100 
L 3047 0 
L 2419 0 
L 2419 1100 
L 313 1100 
L 313 1709 
L 2253 4666 
z
" transform="scale(0.015625)"/>
       </defs>
       <use xlink:href="#DejaVuSans-34"/>
       <use xlink:href="#DejaVuSans-30" x="63.623047"/>
       <use xlink:href="#DejaVuSans-30" x="127.246094"/>
      </g>
     </g>
    </g>
    <g id="ytick_5">
     <g id="line2d_11">
      <g>
       <use xlink:href="#m34d2464336" x="57.6" y="89.234158" style="stroke: #000000; stroke-width: 0.8"/>
      </g>
     </g>
     <g id="text_11">
      <!-- 500 -->
      <g transform="translate(31.5125 93.033377)scale(0.1 -0.1)">
       <use xlink:href="#DejaVuSans-35"/>
       <use xlink:href="#DejaVuSans-30" x="63.623047"/>
       <use xlink:href="#DejaVuSans-30" x="127.246094"/>
      </g>
     </g>
    </g>
   </g>
   <g id="line2d_12">
    <path d="M 73.832727 283.599633 
L 74.101704 283.050143 
L 74.236192 281.939207 
L 74.37068 282.903325 
L 74.505168 282.410745 
L 74.639657 283.01284 
L 74.774145 276.539475 
L 74.908633 249.416954 
L 75.177609 247.923431 
L 75.312098 248.479139 
L 75.446586 248.531744 
L 75.581074 249.398781 
L 75.715562 248.642216 
L 75.85005 248.620217 
L 76.253515 243.633201 
L 76.522492 277.70206 
L 76.65698 278.015303 
L 76.925956 276.30801 
L 77.060444 267.449217 
L 77.194933 269.693566 
L 77.463909 269.757171 
L 77.598397 271.342036 
L 77.732885 266.014039 
L 77.867374 252.602466 
L 78.405327 104.124907 
L 78.674303 103.202874 
L 78.808791 110.343374 
L 78.943279 105.539043 
L 79.481232 158.254695 
L 79.750209 228.653979 
L 80.019185 263.387104 
L 80.153673 265.511894 
L 80.288161 261.675985 
L 80.42265 272.075168 
L 80.557138 271.640454 
L 80.826114 274.148787 
L 80.960603 271.607934 
L 81.095091 261.291008 
L 81.364067 168.445368 
L 81.498555 180.749831 
L 81.767532 161.3393 
L 82.036508 169.344446 
L 82.170996 166.242625 
L 82.305485 160.266144 
L 83.112414 260.812774 
L 83.650367 287.004175 
L 83.784855 287.024739 
L 83.919343 288.553651 
L 84.053831 288.745901 
L 84.18832 286.64837 
L 84.322808 279.421787 
L 84.726273 189.263818 
L 84.860761 180.596318 
L 84.995249 184.693821 
L 85.129737 169.807854 
L 85.264225 178.35197 
L 85.398714 179.099448 
L 85.66769 187.397752 
L 85.802178 196.169985 
L 86.340131 262.938999 
L 86.474619 264.952361 
L 86.609107 269.863817 
L 86.878084 287.386284 
L 87.012572 289.637806 
L 87.14706 289.311172 
L 87.281549 290.802304 
L 87.416037 290.705222 
L 87.550525 289.893661 
L 87.819501 262.383292 
L 87.95399 262.529153 
L 88.088478 256.841525 
L 88.222966 258.301571 
L 88.357454 257.543572 
L 88.491942 254.184461 
L 88.626431 257.019906 
L 88.760919 250.02431 
L 88.895407 252.902318 
L 89.029895 252.900883 
L 89.164384 255.462301 
L 89.43336 276.768071 
L 89.567848 278.431844 
L 89.702336 277.933525 
L 89.836825 278.993768 
L 89.971313 263.840947 
L 90.105801 264.554471 
L 90.240289 266.099165 
L 90.374777 265.868656 
L 90.509266 267.104889 
L 90.643754 267.276575 
L 90.778242 269.376497 
L 90.91273 266.152727 
L 91.047218 256.211692 
L 91.181707 255.040499 
L 91.316195 248.107551 
L 91.450683 252.543165 
L 91.585171 250.57667 
L 91.71966 252.075453 
L 91.854148 252.301657 
L 92.123124 255.285354 
L 92.257612 254.712431 
L 92.526589 260.309195 
L 92.795565 266.908335 
L 92.930053 267.863845 
L 93.064542 266.722781 
L 93.19903 276.744637 
L 93.468006 276.869456 
L 93.602495 277.930656 
L 93.736983 276.695857 
L 93.871471 274.171264 
L 94.005959 268.948957 
L 94.6784 161.626718 
L 94.812888 157.226016 
L 95.081865 169.095287 
L 95.216353 163.874414 
L 95.350841 152.598631 
L 96.023282 265.279473 
L 96.157771 266.009735 
L 96.426747 269.940813 
L 96.561235 269.607006 
L 96.695723 269.68448 
L 96.830212 271.569197 
L 96.9647 270.930755 
L 97.099188 269.501794 
L 97.233676 261.02511 
L 97.368164 243.443342 
L 97.502653 202.376974 
L 97.637141 195.273297 
L 97.771629 179.7838 
L 97.906117 188.18875 
L 98.040606 181.468138 
L 98.175094 182.178792 
L 98.309582 176.853665 
L 98.44407 178.497831 
L 98.713047 189.879783 
L 98.982023 231.873445 
L 99.250999 266.762953 
L 99.385488 271.454899 
L 99.519976 272.210029 
L 99.654464 282.026723 
L 99.788952 282.039158 
L 99.923441 281.036781 
L 100.192417 282.276361 
L 100.326905 282.357183 
L 100.461393 281.701525 
L 100.595882 282.108023 
L 100.73037 282.937758 
L 100.864858 281.397369 
L 100.999346 282.554693 
L 101.133834 281.645572 
L 101.268323 279.427526 
L 101.402811 272.393671 
L 101.537299 276.670989 
L 101.806276 266.272285 
L 101.940764 268.435812 
L 102.075252 268.287082 
L 102.20974 268.936044 
L 102.344228 271.317646 
L 102.478717 277.143005 
L 102.613205 275.288417 
L 102.747693 280.965524 
L 102.882181 267.491302 
L 103.016669 267.519996 
L 103.151158 272.432408 
L 103.285646 272.212899 
L 103.554622 268.026923 
L 103.68911 263.833296 
L 103.823599 246.385912 
L 104.092575 184.040554 
L 104.227063 162.530579 
L 104.361552 169.704078 
L 104.630528 144.798646 
L 105.033993 160.135108 
L 105.168481 170.928355 
L 105.706434 254.09551 
L 105.840922 253.973082 
L 105.97541 262.682666 
L 106.109898 279.135325 
L 106.378875 282.328489 
L 106.513363 282.31462 
L 106.647851 284.474321 
L 106.782339 284.205554 
L 106.916828 285.318403 
L 107.320292 247.700097 
L 107.45478 254.772688 
L 107.589269 252.235661 
L 107.723757 252.328438 
L 108.26171 247.259165 
L 108.396198 243.847928 
L 108.530686 246.110449 
L 108.934151 277.759448 
L 109.068639 279.276404 
L 109.203127 278.208031 
L 109.337615 273.706899 
L 109.606592 275.257332 
L 109.875568 276.31088 
L 110.144545 277.36108 
L 110.413521 276.121977 
L 110.548009 275.987116 
L 110.951474 271.933132 
L 111.085962 273.107673 
L 111.22045 272.759998 
L 111.623915 266.959028 
L 111.758403 267.46739 
L 112.02738 271.252128 
L 112.430844 272.850862 
L 112.565333 262.601845 
L 112.834309 266.804559 
L 112.968797 267.328224 
L 113.103285 268.838007 
L 113.237774 269.016388 
L 113.50675 271.634237 
L 113.641238 272.464449 
L 114.313679 261.230272 
L 114.448168 260.869206 
L 114.582656 259.387161 
L 114.98612 248.557569 
L 115.524073 259.618148 
L 115.658561 260.168116 
L 115.927538 262.393335 
L 116.062026 261.109757 
L 116.196514 267.205318 
L 116.331002 266.788299 
L 116.465491 267.399003 
L 116.599979 257.647348 
L 117.137932 79.109482 
L 117.406908 64.419591 
L 117.810373 80.945419 
L 118.213837 148.090804 
L 118.482814 210.378773 
L 118.75179 244.782874 
L 118.886279 246.315611 
L 119.289743 254.303063 
L 119.424231 255.720068 
L 119.55872 258.489039 
L 119.693208 258.805629 
L 119.827696 249.197445 
L 120.365649 91.95674 
L 120.634625 73.405116 
L 120.769114 77.093729 
L 120.903602 70.679186 
L 121.03809 72.006283 
L 121.441555 135.38845 
L 121.710531 202.167986 
L 121.845019 230.32636 
L 122.248484 241.282684 
L 122.51746 256.786528 
L 122.651948 256.94578 
L 122.786437 258.683202 
L 122.920925 257.34367 
L 123.055413 249.189315 
L 123.727854 60.466037 
L 123.862342 53.568 
L 124.534783 107.658095 
L 125.072736 248.491094 
L 125.207225 253.657927 
L 125.341713 254.120856 
L 125.476201 254.074468 
L 125.745177 267.663466 
L 125.879666 269.099122 
L 126.014154 269.328674 
L 126.28313 255.887928 
L 126.821083 93.061459 
L 126.955571 74.724561 
L 127.09006 81.317485 
L 127.359036 105.836026 
L 127.493524 108.276928 
L 127.762501 126.759687 
L 127.896989 149.544633 
L 128.300453 246.874666 
L 128.434942 252.672288 
L 128.56943 250.846393 
L 128.703918 258.341743 
L 128.838406 259.06531 
L 129.241871 265.753402 
L 129.510847 245.058336 
L 130.0488 83.48962 
L 130.183288 74.387885 
L 130.317777 86.297328 
L 130.452265 115.099404 
L 130.586753 114.181675 
L 130.721241 110.537059 
L 130.855729 116.922429 
L 131.124706 170.15553 
L 131.393682 235.751439 
L 131.662659 258.83528 
L 131.931635 258.639204 
L 132.066123 258.456997 
L 132.3351 269.720347 
L 132.469588 269.572095 
L 132.604076 269.671089 
L 132.738564 269.629483 
L 133.007541 257.747299 
L 133.276517 247.295511 
L 133.679982 241.721703 
L 133.81447 240.540466 
L 133.948958 235.445369 
L 134.486911 245.314669 
L 134.755888 252.395869 
L 134.890376 252.281093 
L 135.697305 266.512358 
L 135.831793 271.258823 
L 135.966282 271.867614 
L 136.10077 269.886772 
L 136.235258 271.388903 
L 136.369746 271.114875 
L 136.504234 266.818906 
L 136.638723 266.660132 
L 136.907699 264.727114 
L 137.311164 253.853524 
L 137.445652 254.362842 
L 137.58014 251.682823 
L 137.983605 258.489995 
L 138.118093 257.589004 
L 138.252581 259.422072 
L 138.387069 263.909813 
L 138.521558 262.677884 
L 138.656046 262.878742 
L 138.925022 267.569732 
L 139.193999 251.340886 
L 139.731951 81.637423 
L 139.86644 72.728416 
L 140.269904 98.715133 
L 140.538881 123.120811 
L 140.673369 130.205358 
L 140.807857 144.552834 
L 141.076834 224.591865 
L 141.480298 257.752081 
L 142.018251 266.183334 
L 142.152739 265.719926 
L 142.421716 242.004338 
L 142.959669 91.627238 
L 143.094157 84.217491 
L 143.228645 83.730172 
L 143.363133 93.947147 
L 143.497621 84.680899 
L 143.63211 89.803256 
L 144.573527 258.998836 
L 144.708015 262.485634 
L 144.842504 262.661146 
L 145.11148 264.901669 
L 145.245968 267.043197 
L 145.380456 262.96865 
L 145.783921 201.851874 
L 146.052897 110.234337 
L 146.187386 91.128918 
L 146.456362 106.429992 
L 146.59085 117.743078 
L 146.725339 112.056884 
L 146.859827 119.465196 
L 146.994315 114.391619 
L 147.128803 127.241747 
L 147.532268 234.436297 
L 147.801244 260.435448 
L 147.935732 260.637741 
L 148.204709 265.906915 
L 148.339197 265.885394 
L 148.473685 266.388974 
L 148.742662 265.335904 
L 148.87715 247.65323 
L 149.280615 119.329377 
L 149.415103 115.290219 
L 149.549591 106.207613 
L 149.684079 107.463454 
L 150.087544 140.177956 
L 150.222032 132.484618 
L 150.35652 138.005343 
L 150.894473 252.854973 
L 151.028961 262.028443 
L 151.16345 261.070542 
L 151.835891 269.247374 
L 151.970379 267.974796 
L 152.104867 247.021484 
L 152.508332 113.318463 
L 152.64282 116.427936 
L 152.911796 104.572055 
L 153.046285 118.724412 
L 153.180773 117.223238 
L 153.449749 151.703856 
L 153.718726 192.659752 
L 153.987702 249.296917 
L 154.12219 266.351672 
L 154.256678 267.730897 
L 154.525655 271.594065 
L 154.794631 273.298488 
L 155.063608 276.243927 
L 155.198096 277.88618 
L 155.332584 277.242478 
L 155.467072 272.860427 
L 155.601561 262.381858 
L 155.736049 261.52056 
L 155.870537 258.654508 
L 156.005025 260.794123 
L 156.274002 258.896494 
L 156.40849 259.433071 
L 156.542978 260.686999 
L 156.677466 259.489981 
L 157.215419 267.501345 
L 157.349907 269.508011 
L 157.484396 268.515677 
L 157.618884 269.286111 
L 157.88786 272.463015 
L 158.022348 272.944117 
L 158.291325 275.944075 
L 158.560301 280.226653 
L 158.694789 278.659961 
L 158.829278 279.624558 
L 158.963766 279.228102 
L 159.232742 276.513172 
L 159.367231 276.79533 
L 159.501719 274.81114 
L 160.039672 260.723823 
L 160.308648 260.983025 
L 160.443136 266.703652 
L 160.577624 266.420059 
L 160.712113 264.464085 
L 160.846601 265.166132 
L 160.981089 266.658698 
L 161.250066 270.416655 
L 161.519042 271.368339 
L 161.788018 254.599568 
L 162.460459 83.915726 
L 162.594948 83.57905 
L 162.729436 82.119482 
L 162.998412 101.716046 
L 163.132901 110.663791 
L 163.401877 151.942016 
L 163.670853 222.692323 
L 164.074318 256.791789 
L 164.208806 257.925202 
L 164.477783 270.584036 
L 164.612271 272.94603 
L 164.746759 268.242606 
L 165.015735 250.728748 
L 165.4192 120.942458 
L 165.553688 123.542134 
L 165.822665 109.64611 
L 165.957153 114.90285 
L 166.091641 111.817289 
L 166.360618 100.360733 
L 166.495106 106.555767 
L 166.89857 221.792766 
L 167.033059 228.765885 
L 167.302035 247.159215 
L 167.974476 265.627149 
L 168.108964 259.952433 
L 168.243453 245.937807 
L 168.377941 207.85418 
L 168.646917 106.38169 
L 168.781405 107.66479 
L 168.915894 103.138312 
L 169.050382 104.438628 
L 169.18487 108.234844 
L 169.319358 92.904599 
L 169.453847 95.383282 
L 169.857311 148.767982 
L 170.126288 226.978728 
L 170.395264 257.799427 
L 170.529752 258.679376 
L 170.66424 262.116916 
L 170.798729 262.306297 
L 171.067705 264.633858 
L 171.202193 267.468825 
L 171.47117 245.677648 
L 172.009123 110.44476 
L 172.143611 108.868025 
L 172.412587 97.108747 
L 172.95054 129.615218 
L 173.622981 259.769269 
L 173.757469 263.759169 
L 173.891958 277.141571 
L 174.026446 276.212364 
L 174.160934 276.168366 
L 174.42991 277.699669 
L 174.698887 262.906001 
L 174.833375 245.779034 
L 175.102351 177.24486 
L 175.371328 143.864656 
L 175.505816 140.964172 
L 175.640304 151.132846 
L 175.774792 150.822472 
L 175.909281 152.231826 
L 176.043769 157.039983 
L 176.178257 156.732001 
L 176.312745 171.210034 
L 176.581722 238.892953 
L 176.850698 266.028386 
L 176.985186 263.533443 
L 177.254163 268.269866 
L 177.388651 268.226346 
L 177.792116 274.787707 
L 177.926604 275.678655 
L 178.19558 264.9581 
L 178.330069 264.517647 
L 178.599045 256.947215 
L 178.733533 256.381465 
L 178.868021 258.690853 
L 179.136998 255.178708 
L 179.271486 255.775065 
L 179.540462 253.287774 
L 179.809439 260.798906 
L 179.943927 268.074268 
L 180.212904 266.171378 
L 180.48188 276.045938 
L 180.616368 276.059807 
L 180.750856 276.432351 
L 180.885345 277.264477 
L 181.019833 277.351037 
L 181.692274 265.030792 
L 181.826762 266.32776 
L 181.96125 260.338845 
L 182.095738 262.122655 
L 182.364715 267.565906 
L 182.499203 268.84518 
L 182.633691 271.995781 
L 182.902668 271.177046 
L 183.171644 277.313735 
L 183.306132 278.731218 
L 183.440621 277.620282 
L 183.575109 275.316154 
L 183.844085 287.060607 
L 183.978573 288.012769 
L 184.113062 285.731597 
L 184.382038 274.334341 
L 184.919991 182.514034 
L 185.054479 186.533584 
L 185.188967 179.453819 
L 185.457944 183.317944 
L 185.592432 184.81864 
L 185.995897 222.611502 
L 186.264873 253.239472 
L 186.53385 269.012084 
L 186.802826 279.276404 
L 187.071802 289.784145 
L 187.206291 288.63256 
L 187.340779 289.767885 
L 187.475267 286.587156 
L 187.609755 278.580575 
L 188.01322 202.593614 
L 188.147708 186.177301 
L 188.282196 186.396331 
L 188.416684 185.436996 
L 188.551173 188.752587 
L 188.685661 195.160912 
L 188.820149 190.744428 
L 188.954637 195.184346 
L 189.089126 203.565862 
L 189.627078 265.633366 
L 189.761567 268.224912 
L 189.896055 273.466348 
L 190.030543 271.027837 
L 190.299519 272.861383 
L 190.434008 271.688755 
L 190.971961 275.117209 
L 191.106449 271.661018 
L 191.240937 271.175133 
L 191.375425 271.614151 
L 191.509913 267.18045 
L 191.644402 268.731361 
L 191.913378 267.464042 
L 192.182354 261.821368 
L 192.316843 262.170479 
L 192.451331 261.671681 
L 192.585819 262.993996 
L 192.720307 268.770576 
L 192.989284 270.029764 
L 193.392748 267.339224 
L 193.661725 270.224883 
L 193.796213 270.760026 
L 194.065189 262.863439 
L 194.603142 158.988783 
L 194.73763 154.071111 
L 194.872119 144.107121 
L 195.006607 145.684812 
L 195.141095 150.434625 
L 195.275583 143.026792 
L 195.54456 156.436931 
L 195.948024 250.580495 
L 196.217001 260.929941 
L 196.351489 262.859134 
L 196.485977 272.344413 
L 196.620465 271.691146 
L 196.889442 272.248766 
L 197.02393 273.378831 
L 197.158418 271.646671 
L 197.292907 265.316775 
L 197.830859 196.50953 
L 197.965348 198.824179 
L 198.099836 195.501893 
L 198.234324 199.911682 
L 198.5033 186.568495 
L 198.772277 200.387045 
L 199.31023 273.021591 
L 199.713694 282.146282 
L 199.848183 280.976045 
L 200.117159 281.704872 
L 200.251647 279.91915 
L 200.386135 274.132527 
L 200.520624 273.728898 
L 200.655112 260.753473 
L 200.7896 213.467203 
L 200.924088 211.494491 
L 201.058576 199.794993 
L 201.193065 199.436318 
L 201.327553 196.74769 
L 201.462041 198.923173 
L 201.731018 187.107464 
L 201.865506 188.470429 
L 202.134482 211.196074 
L 202.403459 264.740504 
L 202.806923 274.552416 
L 203.0759 266.069514 
L 203.210388 270.402308 
L 203.344876 270.528561 
L 203.748341 261.139408 
L 203.882829 243.728848 
L 204.151805 181.684777 
L 204.420782 165.190512 
L 204.55527 159.554055 
L 204.689758 162.995422 
L 204.824246 156.487145 
L 204.958735 172.532349 
L 205.093223 172.779118 
L 205.765664 260.557876 
L 205.900152 261.069586 
L 206.03464 264.874888 
L 206.169129 279.744116 
L 206.303617 280.225697 
L 206.572593 284.169687 
L 206.84157 284.982205 
L 207.110546 275.581096 
L 207.379522 266.385626 
L 207.514011 265.506634 
L 207.917475 273.635643 
L 208.051964 273.388874 
L 208.32094 267.019286 
L 208.589916 268.62328 
L 208.858893 276.685814 
L 208.993381 280.344299 
L 209.127869 280.9287 
L 209.262357 280.383992 
L 209.396846 274.521331 
L 209.531334 275.620311 
L 209.80031 275.204726 
L 209.934799 276.19706 
L 210.203775 263.999243 
L 211.010704 108.661428 
L 211.279681 134.318642 
L 211.683145 167.46499 
L 212.221098 255.225097 
L 212.355586 257.692302 
L 212.759051 272.95416 
L 212.893539 272.746607 
L 213.028027 272.847036 
L 213.162516 275.499796 
L 213.431492 257.771211 
L 213.56598 219.637369 
L 213.834957 135.599351 
L 213.969445 140.191347 
L 214.103933 139.098584 
L 214.238421 142.064108 
L 214.910862 180.440414 
L 215.448815 260.851989 
L 215.583303 265.825615 
L 215.717792 266.444449 
L 216.121256 270.713637 
L 216.255745 271.672495 
L 216.390233 274.067009 
L 216.524721 270.052241 
L 216.659209 262.521502 
L 217.062674 149.257693 
L 217.197162 151.173017 
L 217.33165 151.253839 
L 217.466138 162.738132 
L 217.600627 161.452163 
L 217.735115 149.577153 
L 217.869603 154.816676 
L 218.273068 197.079584 
L 218.542044 256.000313 
L 218.811021 272.827428 
L 218.945509 265.395684 
L 219.483462 276.134411 
L 219.61795 277.935916 
L 219.886926 264.161364 
L 220.290391 162.39763 
L 220.693856 150.716783 
L 220.828344 161.399557 
L 220.962832 157.471827 
L 221.231808 184.673735 
L 221.500785 198.56402 
L 221.769761 255.863538 
L 222.038738 271.524243 
L 222.173226 270.770069 
L 222.307714 271.997216 
L 222.576691 278.058822 
L 222.845667 280.702496 
L 222.980155 279.027244 
L 223.114643 280.903832 
L 223.38362 260.314933 
L 223.518108 264.18671 
L 223.652596 264.029849 
L 223.921573 257.055296 
L 224.190549 256.381465 
L 224.325037 258.875451 
L 224.459525 258.245618 
L 224.728502 254.378624 
L 225.131967 261.663073 
L 225.266455 260.173855 
L 225.535431 261.649204 
L 225.669919 260.333585 
L 226.073384 270.122541 
L 226.34236 273.160279 
L 226.476849 273.088066 
L 226.745825 269.934117 
L 226.880313 272.22342 
L 227.014802 272.467319 
L 227.14929 272.16938 
L 227.283778 270.745679 
L 227.418266 272.427625 
L 227.552754 272.556748 
L 227.687243 272.386976 
L 227.956219 271.274605 
L 228.090707 277.109051 
L 228.225195 277.148266 
L 228.359684 278.253463 
L 228.494172 277.478247 
L 228.62866 278.452408 
L 228.763148 278.337632 
L 228.897637 276.042112 
L 229.301101 276.948843 
L 229.435589 270.715072 
L 229.570078 256.586149 
L 230.242519 94.629108 
L 230.377007 79.744097 
L 230.511495 109.821144 
L 230.780471 117.798074 
L 231.049448 145.356266 
L 231.587401 254.420709 
L 231.856377 265.680232 
L 232.125354 270.510388 
L 232.39433 275.182249 
L 232.528818 274.365905 
L 232.797795 257.206417 
L 232.932283 220.818127 
L 233.201259 133.377479 
L 233.335748 125.175301 
L 233.470236 135.505139 
L 233.604724 135.727996 
L 233.739212 148.561385 
L 233.8737 133.776804 
L 234.008189 140.521328 
L 234.815118 265.096788 
L 234.949606 264.829455 
L 235.218583 270.752374 
L 235.622047 278.515057 
L 235.756535 277.915352 
L 236.025512 265.218259 
L 236.563465 129.20872 
L 236.832441 116.957819 
L 237.63937 200.920276 
L 237.908347 259.179129 
L 238.177323 267.293791 
L 238.849764 282.259623 
L 238.984252 281.43228 
L 239.118741 277.621717 
L 239.253229 263.676913 
L 239.791182 128.436373 
L 240.194646 146.228085 
L 240.463623 165.41576 
L 240.732599 178.915329 
L 241.270552 256.639233 
L 241.674017 262.533458 
L 241.942993 275.517969 
L 242.077481 282.038201 
L 242.21197 281.410281 
L 242.480946 263.385191 
L 242.884411 151.289706 
L 243.018899 159.186772 
L 243.153387 156.932859 
L 243.287875 145.919625 
L 243.422363 153.925728 
L 243.556852 151.105108 
L 243.825828 167.798318 
L 244.229293 240.015845 
L 244.498269 262.472722 
L 244.767246 267.76246 
L 245.17071 275.644701 
L 245.305198 276.512216 
L 245.439687 276.215711 
L 245.574175 274.983304 
L 245.708663 263.492315 
L 245.843151 268.957087 
L 246.112128 265.966216 
L 246.381104 260.771646 
L 246.515592 260.73817 
L 247.188033 271.011099 
L 247.322522 271.417597 
L 247.45701 272.287025 
L 247.591498 271.931698 
L 247.725986 275.103819 
L 247.860475 273.661946 
L 248.129451 274.989043 
L 248.263939 274.103355 
L 248.398427 274.787707 
L 248.532916 274.634194 
L 248.667404 276.584429 
L 248.801892 276.485435 
L 249.205357 278.028215 
L 249.339845 278.144904 
L 249.608821 277.194176 
L 249.743309 277.326169 
L 249.877798 277.02536 
L 250.550239 273.851804 
L 250.819215 274.152613 
L 250.953703 274.93309 
L 251.088192 273.794416 
L 251.357168 275.055039 
L 251.491656 283.973133 
L 251.626144 283.482466 
L 251.760633 283.913832 
L 251.895121 283.753624 
L 252.164097 271.483115 
L 252.70205 143.802008 
L 252.836538 163.578388 
L 252.971027 160.126978 
L 253.240003 173.06271 
L 253.374491 174.418501 
L 253.508979 171.486931 
L 253.777956 204.375033 
L 254.046932 255.839148 
L 254.315909 277.209958 
L 254.719373 285.582388 
L 254.853862 285.341836 
L 255.122838 287.07878 
L 255.391814 266.270851 
L 255.660791 172.852766 
L 255.795279 176.307044 
L 256.198744 160.602342 
L 256.333232 164.283304 
L 256.46772 161.613327 
L 256.602208 162.81178 
L 257.409138 258.08541 
L 257.812602 265.572152 
L 258.081579 280.80962 
L 258.216067 281.875602 
L 258.350555 281.144861 
L 258.619532 266.945638 
L 258.888508 177.666662 
L 259.022996 178.537524 
L 259.157484 169.466396 
L 259.291973 168.889647 
L 259.426461 153.373847 
L 259.695437 167.101532 
L 259.829925 155.947698 
L 259.964414 165.038912 
L 260.771343 261.161885 
L 261.040319 263.404799 
L 261.309296 270.9188 
L 261.443784 274.139222 
L 261.71276 271.21913 
L 261.847249 258.803238 
L 262.116225 170.468773 
L 262.250713 174.644227 
L 262.654178 148.162061 
L 262.788666 155.477117 
L 262.923154 150.697653 
L 263.326619 185.916185 
L 263.461107 196.835685 
L 263.864572 245.707299 
L 264.268036 263.78595 
L 264.402525 263.026994 
L 264.671501 266.463579 
L 264.805989 266.337325 
L 264.940478 265.384684 
L 265.074966 257.801818 
L 265.209454 238.648097 
L 265.612919 124.129405 
L 265.881895 105.981887 
L 266.016383 115.502077 
L 266.150871 115.371041 
L 266.28536 114.92198 
L 266.419848 119.562277 
L 266.688824 156.908947 
L 266.957801 235.873866 
L 267.226777 252.571859 
L 267.361265 251.146724 
L 267.495754 267.546777 
L 267.630242 267.230186 
L 267.76473 269.102948 
L 267.899218 269.414756 
L 268.168195 275.948379 
L 268.302683 276.835023 
L 268.437171 274.268345 
L 268.706147 276.809677 
L 268.975124 273.308053 
L 269.2441 271.41951 
L 269.916541 256.897479 
L 270.320006 258.790804 
L 270.588982 263.687434 
L 270.723471 277.813488 
L 270.857959 278.855559 
L 270.992447 277.37447 
L 271.126935 278.25968 
L 271.261424 278.289331 
L 271.395912 278.10282 
L 271.799376 280.886137 
L 271.933865 279.497826 
L 272.068353 279.853632 
L 272.202841 279.207538 
L 272.337329 279.444264 
L 272.471817 278.599226 
L 272.606306 276.429003 
L 272.740794 277.714494 
L 272.875282 277.391208 
L 273.00977 276.712596 
L 273.144258 274.373078 
L 273.278747 274.273128 
L 273.547723 277.25826 
L 273.682211 277.472986 
L 273.8167 278.158295 
L 273.951188 277.294605 
L 274.085676 287.970206 
L 274.354652 289.606721 
L 274.489141 288.030942 
L 274.758117 273.27362 
L 275.29607 166.482699 
L 275.565046 154.211233 
L 275.699535 154.549344 
L 275.834023 172.554348 
L 275.968511 174.842694 
L 276.102999 185.028106 
L 276.77544 264.572644 
L 277.447881 282.023854 
L 277.58237 285.43031 
L 277.716858 285.038158 
L 277.851346 280.626935 
L 277.985834 270.614165 
L 278.389299 209.928755 
L 278.523787 190.385753 
L 278.658275 188.381478 
L 278.792763 178.837855 
L 278.927252 191.004109 
L 279.06174 185.166316 
L 279.196228 187.263368 
L 279.330716 194.982053 
L 280.137646 274.976609 
L 280.272134 277.370166 
L 280.406622 268.98865 
L 280.54111 268.703623 
L 280.810087 269.878164 
L 280.944575 269.253113 
L 281.213551 261.310137 
L 281.348039 232.272292 
L 281.482528 161.591807 
L 281.617016 151.351876 
L 281.751504 127.880666 
L 281.885992 129.036078 
L 282.154969 142.587774 
L 282.289457 124.41491 
L 282.423945 128.51576 
L 282.558433 137.654319 
L 282.82741 186.251427 
L 283.096386 255.022326 
L 283.365363 261.673116 
L 283.499851 263.887336 
L 283.634339 263.213984 
L 283.768827 263.224505 
L 283.903316 263.414363 
L 284.037804 264.723288 
L 284.172292 264.852889 
L 284.441268 259.643016 
L 285.113709 144.001431 
L 285.248198 142.922059 
L 285.382686 138.370713 
L 285.517174 147.641743 
L 285.651662 144.530835 
L 285.78615 148.031025 
L 286.055127 201.329165 
L 286.324103 251.062076 
L 286.59308 260.77069 
L 286.727568 260.64874 
L 286.862056 279.646557 
L 286.996544 279.705857 
L 287.131033 278.725001 
L 287.265521 279.332357 
L 287.668985 275.794866 
L 287.803474 276.674815 
L 288.07245 275.797257 
L 288.206938 273.619383 
L 288.341427 273.563908 
L 288.475915 271.210522 
L 288.610403 270.838456 
L 288.744891 269.711261 
L 288.879379 272.547662 
L 289.013868 272.888164 
L 289.148356 270.069457 
L 289.417332 277.244869 
L 289.55182 278.435192 
L 289.820797 278.072691 
L 289.955285 278.865123 
L 290.089773 277.361558 
L 290.224262 278.912947 
L 290.35875 278.003347 
L 290.493238 278.986116 
L 290.627726 277.439988 
L 291.031191 259.411073 
L 291.300167 193.038513 
L 291.434655 187.438402 
L 291.569144 188.047671 
L 291.703632 192.122218 
L 291.972608 179.341434 
L 292.376073 192.457938 
L 293.048514 269.066602 
L 293.183002 270.316704 
L 293.31749 269.161771 
L 293.451979 269.915466 
L 293.586467 268.98339 
L 293.720955 271.46542 
L 293.855443 271.729405 
L 294.258908 247.741703 
L 294.527884 189.591408 
L 294.796861 157.820938 
L 294.931349 141.907726 
L 295.065837 141.773342 
L 295.200325 149.76749 
L 295.334814 144.03156 
L 295.60379 172.166979 
L 295.738278 186.697618 
L 296.141743 257.095467 
L 296.276231 256.203084 
L 296.410719 263.421537 
L 296.545208 281.148209 
L 296.948672 283.317475 
L 297.486625 285.287796 
L 297.621113 284.941555 
L 297.755601 284.937729 
L 298.024578 281.757478 
L 298.159066 281.606835 
L 298.428042 279.460524 
L 298.697019 275.627006 
L 298.831507 274.489289 
L 298.965995 274.346776 
L 299.100484 274.703059 
L 299.36946 278.494971 
L 299.503948 277.987565 
L 299.638436 279.533694 
L 299.772925 269.856643 
L 299.907413 273.265012 
L 300.041901 272.962769 
L 300.176389 273.830762 
L 300.310877 273.546691 
L 300.579854 262.556413 
L 301.252295 128.213038 
L 301.386783 128.281904 
L 301.521271 141.49788 
L 301.65576 134.543412 
L 301.790248 143.975128 
L 302.597177 252.971662 
L 302.731665 254.727734 
L 303.000642 267.157973 
L 303.13513 267.382743 
L 303.269618 267.863845 
L 303.404106 270.327703 
L 303.538595 270.747592 
L 303.807571 254.359495 
L 304.345524 164.420557 
L 304.6145 153.878861 
L 304.748988 162.131254 
L 304.883477 152.540764 
L 305.017965 158.632021 
L 306.093871 265.606585 
L 306.228359 266.619004 
L 306.497335 276.79246 
L 306.766312 277.82401 
L 306.9008 273.107195 
L 307.035288 262.549239 
L 307.304265 169.908283 
L 307.438753 177.182689 
L 307.842217 157.886934 
L 307.976706 164.950439 
L 308.111194 156.516796 
L 308.245682 161.48803 
L 308.649147 207.571065 
L 309.052611 264.035588 
L 309.590564 276.287924 
L 309.994029 277.994261 
L 310.128517 274.43477 
L 310.263005 261.7965 
L 310.531982 169.796855 
L 310.66647 170.950354 
L 310.935446 168.657225 
L 311.069934 159.289592 
L 311.204423 165.756262 
L 311.338911 164.463119 
L 311.473399 157.677468 
L 311.607887 170.837012 
L 311.876864 208.479709 
L 312.14584 250.881304 
L 312.414817 262.707534 
L 312.818281 271.333428 
L 312.952769 270.898714 
L 313.087258 272.787735 
L 313.221746 272.688741 
L 313.356234 274.268345 
L 313.625211 263.693651 
L 313.759699 255.788456 
L 313.894187 259.147088 
L 314.028675 256.613886 
L 314.163163 258.500516 
L 314.297652 255.735372 
L 314.566628 262.310123 
L 314.701116 263.046124 
L 314.970093 267.807892 
L 315.104581 267.770112 
L 315.239069 267.473129 
L 315.508045 270.410916 
L 315.642534 270.948928 
L 315.777022 270.617991 
L 316.180487 273.613166 
L 316.314975 273.172713 
L 316.718439 275.531359 
L 316.852928 275.780997 
L 316.987416 274.925916 
L 317.121904 274.991434 
L 317.256392 273.869499 
L 317.39088 274.014403 
L 317.525369 272.472579 
L 317.659857 273.393657 
L 317.928833 270.869542 
L 318.332298 267.125932 
L 318.466786 267.781589 
L 318.601274 267.27801 
L 318.735763 268.737099 
L 318.870251 268.573065 
L 319.139227 269.691653 
L 319.273715 279.546606 
L 319.67718 280.667106 
L 319.811668 278.083212 
L 319.946157 270.113455 
L 320.349621 147.882294 
L 320.484109 131.699359 
L 320.887574 159.031824 
L 321.022062 163.707511 
L 321.291039 178.519351 
L 321.425527 180.323247 
L 321.560015 198.800268 
L 321.828991 254.438403 
L 321.96348 262.542066 
L 322.097968 263.330194 
L 322.635921 280.063576 
L 322.770409 280.411252 
L 322.904897 279.750811 
L 323.173874 269.298067 
L 323.44285 173.641372 
L 323.577338 174.003873 
L 323.711826 174.205687 
L 323.980803 153.988376 
L 324.249779 157.534476 
L 324.384268 160.306316 
L 324.787732 196.621915 
L 325.056709 251.253848 
L 325.325685 260.544007 
L 325.863638 278.401715 
L 325.998126 280.172613 
L 326.132614 280.238131 
L 326.267103 277.018665 
L 326.401591 268.001577 
L 326.670567 166.43631 
L 326.805055 172.403705 
L 326.939544 173.578245 
L 327.20852 160.325445 
L 327.343008 168.485061 
L 327.611985 164.723757 
L 327.746473 169.593128 
L 328.149937 224.397703 
L 328.418914 255.304005 
L 328.68789 268.140264 
L 328.822379 270.598383 
L 328.956867 280.664715 
L 329.225843 281.61353 
L 329.360331 280.764666 
L 329.629308 267.906886 
L 330.032772 178.715427 
L 330.301749 167.35404 
L 330.570725 158.528245 
L 330.839702 180.425111 
L 330.97419 181.639823 
L 331.108678 184.390621 
L 331.781119 260.424449 
L 332.050096 267.601774 
L 332.184584 278.397411 
L 332.319072 279.355312 
L 332.45356 278.689134 
L 332.588049 279.678598 
L 332.857025 267.046067 
L 333.26049 178.082724 
L 333.394978 179.996136 
L 333.663954 165.056129 
L 333.798442 166.250755 
L 333.932931 170.024972 
L 334.336395 187.923808 
L 334.73986 255.78989 
L 335.143325 271.548633 
L 335.277813 271.349688 
L 335.412301 271.447247 
L 335.546789 271.733231 
L 335.681277 271.628019 
L 335.950254 274.214783 
L 336.084742 272.116296 
L 336.622695 255.622031 
L 336.757183 256.418289 
L 336.891671 254.585699 
L 337.295136 260.955288 
L 337.698601 265.696492 
L 337.833089 265.216346 
L 338.102065 269.323413 
L 338.236553 269.090992 
L 338.371042 269.729433 
L 338.50553 267.389916 
L 339.043483 270.554386 
L 339.446947 273.555778 
L 339.581436 273.07324 
L 339.715924 271.902047 
L 339.850412 272.161728 
L 339.9849 271.380295 
L 340.119388 271.267432 
L 340.253877 270.793024 
L 340.388365 272.272678 
L 340.522853 270.280358 
L 340.657341 270.880063 
L 340.926318 270.561081 
L 341.060806 267.216796 
L 341.329782 272.107209 
L 341.464271 272.005346 
L 341.598759 272.53475 
L 341.733247 274.103833 
L 341.867735 281.939207 
L 342.136712 282.04107 
L 342.2712 282.683816 
L 342.540176 269.966637 
L 342.943641 154.595733 
L 343.212617 171.232989 
L 343.347106 170.497467 
L 343.75057 184.906635 
L 343.885058 186.584277 
L 344.019547 185.920489 
L 344.423011 253.920955 
L 345.22994 279.658034 
L 345.364429 280.743624 
L 345.498917 280.375384 
L 345.633405 276.151628 
L 345.767893 268.053704 
L 346.03687 183.659403 
L 346.171358 187.784164 
L 346.440334 174.196601 
L 346.574823 168.816477 
L 346.843799 175.706383 
L 347.112775 177.578188 
L 347.381752 212.115238 
L 347.650728 251.09077 
L 348.054193 269.081906 
L 348.188681 270.266011 
L 348.323169 279.249623 
L 348.457658 280.098965 
L 348.592146 281.972683 
L 348.726634 281.777086 
L 348.99561 268.849484 
L 349.264587 182.607289 
L 349.399075 184.083595 
L 349.668052 166.497524 
L 349.80254 162.378979 
L 350.206004 181.10468 
L 350.340493 182.286395 
L 351.012934 262.594193 
L 351.147422 264.918407 
L 351.550886 281.607791 
L 351.685375 280.894745 
L 351.954351 281.262029 
L 352.088839 279.862718 
L 352.223328 272.562966 
L 352.492304 178.524134 
L 352.626792 185.699067 
L 352.76128 174.313768 
L 352.895769 173.60407 
L 353.030257 165.314375 
L 353.164745 172.535219 
L 353.299233 170.455382 
L 353.56821 152.656019 
L 354.240651 269.223463 
L 354.375139 270.362614 
L 354.644115 276.232928 
L 354.913092 280.512637 
L 355.182068 281.556142 
L 355.316556 279.150629 
L 355.451045 270.010635 
L 355.854509 196.612829 
L 356.123486 158.228871 
L 356.257974 159.944772 
L 356.392462 168.565883 
L 356.52695 167.931745 
L 356.661439 178.551393 
L 356.795927 177.298422 
L 357.33388 264.907886 
L 357.602856 274.517027 
L 357.737344 276.484 
L 357.871832 280.74458 
L 358.006321 280.16544 
L 358.140809 280.380166 
L 358.275297 281.12095 
L 358.409785 281.032955 
L 358.678762 279.771854 
L 359.082226 261.280965 
L 359.351203 255.368089 
L 359.485691 249.088886 
L 359.620179 259.835744 
L 359.754667 261.251792 
L 359.889156 261.420131 
L 360.427109 275.726957 
L 360.561597 276.407483 
L 360.965061 280.559982 
L 361.234038 280.520289 
L 361.368526 280.328517 
L 361.503014 281.635529 
L 361.771991 281.227596 
L 361.906479 282.559954 
L 362.040967 282.51213 
L 362.175455 282.888022 
L 362.309944 282.928671 
L 362.57892 279.511695 
L 362.713408 279.462437 
L 362.982385 278.326155 
L 363.116873 276.831676 
L 363.251361 276.729812 
L 363.385849 277.822097 
L 363.520337 276.967016 
L 363.654826 276.907236 
L 364.05829 279.697249 
L 364.192778 253.653622 
L 364.730731 259.919913 
L 364.86522 258.722895 
L 364.999708 246.623593 
L 365.134196 224.438831 
L 365.403172 135.976677 
L 365.672149 105.635168 
L 365.806637 99.704597 
L 366.075613 116.676139 
L 366.34459 113.526973 
L 366.479078 124.976834 
L 367.017031 251.5647 
L 367.151519 256.532108 
L 367.286007 254.794209 
L 367.554984 266.172813 
L 367.689472 267.040806 
L 367.958448 271.948436 
L 368.227425 248.349059 
L 368.496401 152.238521 
L 368.765378 100.273217 
L 369.034354 89.353717 
L 369.168842 94.083444 
L 369.303331 93.638208 
L 369.437819 97.012622 
L 369.572307 94.886875 
L 369.706795 111.022944 
L 370.244748 235.070913 
L 370.782701 279.363921 
L 370.917189 279.669512 
L 371.051677 280.562851 
L 371.186166 280.283563 
L 371.455142 265.435377 
L 371.858607 171.990033 
L 372.127583 204.036443 
L 372.262071 199.968113 
L 372.396559 201.397552 
L 372.665536 190.689431 
L 372.800024 194.491386 
L 373.203489 234.274654 
L 373.472465 256.574671 
L 373.87593 277.808706 
L 374.010418 286.844924 
L 374.144906 286.698584 
L 374.279394 287.907558 
L 374.413883 287.4035 
L 374.682859 270.810241 
L 375.220812 181.233803 
L 375.489788 177.597318 
L 375.624277 177.820653 
L 375.893253 184.369101 
L 376.027741 188.673678 
L 376.565694 256.391508 
L 376.83467 265.299559 
L 376.969159 268.141699 
L 377.103647 279.977494 
L 377.238135 278.88234 
L 377.507112 280.959307 
L 377.6416 278.989464 
L 377.776088 282.536042 
L 378.045064 280.38447 
L 378.179553 270.72368 
L 378.314041 270.096717 
L 378.448529 262.981562 
L 378.583017 263.984417 
L 378.717505 263.065253 
L 378.851994 267.585992 
L 378.986482 266.824166 
L 379.12097 267.734244 
L 379.255458 269.89825 
L 379.389947 269.781561 
L 379.927899 279.05546 
L 380.062388 278.848385 
L 380.196876 279.265883 
L 380.331364 269.335369 
L 380.465852 270.014939 
L 380.869317 272.925466 
L 381.138293 262.005488 
L 381.272782 234.850447 
L 381.541758 160.090155 
L 381.810734 139.88193 
L 381.945223 141.476838 
L 382.214199 147.978419 
L 382.348687 139.970403 
L 382.752152 189.941475 
L 383.021128 258.099757 
L 383.155616 266.046081 
L 383.290105 266.709869 
L 383.424593 268.000142 
L 383.559081 263.059992 
L 383.693569 262.346468 
L 383.962546 262.693666 
L 384.097034 263.886858 
L 384.231522 262.098744 
L 384.36601 263.494228 
L 385.038451 149.043444 
L 385.17294 151.492477 
L 385.307428 166.663471 
L 385.576404 161.005971 
L 386.248845 260.952418 
L 386.921286 279.497348 
L 387.055775 278.680525 
L 387.190263 279.961234 
L 387.324751 279.268752 
L 387.459239 279.430395 
L 387.593727 280.923439 
L 387.728216 280.347647 
L 387.862704 281.668049 
L 387.997192 280.495899 
L 388.13168 282.090329 
L 388.266169 281.103733 
L 388.400657 279.113326 
L 388.535145 279.202756 
L 388.669633 278.53849 
L 388.804121 279.680511 
L 388.93861 277.12292 
L 389.207586 279.268752 
L 389.476562 285.975974 
L 389.611051 284.914774 
L 389.745539 285.733509 
L 389.880027 285.681382 
L 390.014515 270.737071 
L 390.149004 270.974753 
L 390.41798 270.996752 
L 390.552468 270.865716 
L 390.686956 265.351208 
L 390.821445 265.536762 
L 390.955933 256.658362 
L 391.224909 200.332049 
L 391.359397 168.860953 
L 391.493886 164.859097 
L 391.762862 175.584912 
L 391.89735 175.039726 
L 392.031839 167.794492 
L 392.166327 171.505104 
L 392.300815 180.512149 
L 392.569791 240.851796 
L 392.70428 267.219665 
L 392.973256 272.077081 
L 393.107744 272.736564 
L 393.376721 265.658712 
L 393.645697 271.394163 
L 393.780185 267.992968 
L 393.914673 269.381758 
L 394.049162 261.946187 
L 394.721603 146.986563 
L 394.990579 145.911495 
L 395.125067 145.490171 
L 395.259556 156.909903 
L 395.394044 157.782679 
L 395.931997 246.197488 
L 396.200973 259.849613 
L 396.335461 256.10122 
L 396.46995 280.950699 
L 396.604438 281.335198 
L 397.007902 284.379631 
L 397.276879 271.282257 
L 397.545855 197.344047 
L 397.680343 192.140391 
L 397.94932 168.690223 
L 398.083808 155.181568 
L 398.218296 167.964743 
L 398.352785 163.183367 
L 398.487273 166.205323 
L 398.487273 166.205323 
" clip-path="url(#p5da5819bc2)" style="fill: none; stroke: #1f77b4; stroke-width: 1.5; stroke-linecap: square"/>
   </g>
   <g id="line2d_13">
    <path d="M 73.832727 279.436726 
L 74.101704 281.38915 
L 74.236192 280.77709 
L 74.37068 279.555758 
L 74.505168 276.269728 
L 74.639657 277.900652 
L 74.908633 274.64766 
L 75.043121 256.933342 
L 75.177609 199.550737 
L 75.446586 246.516986 
L 75.581074 245.936169 
L 75.85005 251.341661 
L 75.984539 249.104341 
L 76.253515 250.497175 
L 76.522492 253.990026 
L 76.65698 284.266266 
L 77.060444 274.688589 
L 77.194933 275.051255 
L 77.329421 260.331814 
L 77.463909 265.793289 
L 77.598397 264.984283 
L 77.732885 262.511212 
L 77.867374 263.776428 
L 78.001862 247.830325 
L 78.13635 211.180724 
L 78.405327 114.749256 
L 78.539815 91.199865 
L 78.674303 118.850037 
L 78.943279 98.024379 
L 79.212256 118.16168 
L 79.750209 228.910127 
L 79.884697 256.938636 
L 80.019185 256.429698 
L 80.153673 258.332146 
L 80.42265 268.005423 
L 80.557138 259.640998 
L 80.691626 275.864741 
L 80.826114 269.851617 
L 80.960603 269.120319 
L 81.095091 267.406765 
L 81.229579 258.244316 
L 81.364067 229.676676 
L 81.633044 128.656176 
L 81.767532 169.567732 
L 81.90202 159.828252 
L 82.036508 207.735087 
L 82.170996 207.673539 
L 82.439973 217.08581 
L 82.574461 182.504663 
L 82.708949 221.067245 
L 82.843438 223.01786 
L 82.977926 210.188407 
L 83.112414 225.8745 
L 83.246902 208.055088 
L 83.38139 207.596837 
L 83.784855 271.460893 
L 83.919343 292.592992 
L 84.18832 286.616139 
L 84.322808 207.566499 
L 84.457296 249.623394 
L 84.591784 207.566499 
L 84.860761 207.566499 
L 84.995249 208.585096 
L 85.129737 172.553371 
L 85.264225 179.148241 
L 85.398714 162.32328 
L 85.936666 221.156762 
L 86.340131 268.73039 
L 86.474619 262.879734 
L 86.878084 272.261311 
L 87.14706 294.481025 
L 87.281549 293.247135 
L 87.416037 287.929267 
L 87.550525 289.129887 
L 87.685013 287.275184 
L 87.819501 283.752438 
L 88.088478 228.378513 
L 88.222966 254.564947 
L 88.357454 251.000387 
L 88.491942 259.194969 
L 88.626431 260.01603 
L 88.760919 253.3926 
L 88.895407 259.678499 
L 89.029895 244.175198 
L 89.164384 256.5697 
L 89.298872 258.589185 
L 89.43336 263.349943 
L 89.567848 281.488932 
L 89.702336 278.50161 
L 89.836825 278.489269 
L 89.971313 275.308781 
L 90.105801 277.685111 
L 90.240289 252.091075 
L 90.509266 261.169212 
L 90.643754 262.259849 
L 90.91273 255.41618 
L 91.047218 255.584885 
L 91.316195 226.904169 
L 91.450683 242.792131 
L 91.585171 238.572065 
L 91.71966 254.087895 
L 91.854148 251.129029 
L 91.988636 254.098241 
L 92.123124 253.780521 
L 92.257612 254.523307 
L 92.392101 259.311659 
L 92.526589 259.269283 
L 92.795565 267.550046 
L 92.930053 269.326314 
L 93.064542 269.479826 
L 93.19903 270.041279 
L 93.333518 267.553628 
L 93.468006 281.67805 
L 93.736983 273.671087 
L 93.871471 273.822305 
L 94.140447 260.711839 
L 94.274936 244.27626 
L 94.543912 151.377189 
L 94.6784 177.919736 
L 94.947377 155.697986 
L 95.081865 158.739072 
L 95.619818 187.568877 
L 95.888794 255.31591 
L 96.157771 269.34823 
L 96.292259 267.200816 
L 96.695723 271.145891 
L 96.9647 264.881179 
L 97.099188 266.616038 
L 97.368164 256.066648 
L 97.637141 191.26572 
L 97.771629 150.070301 
L 97.906117 178.279972 
L 98.040606 171.091714 
L 98.175094 180.867882 
L 98.309582 175.065742 
L 98.44407 178.226041 
L 98.713047 203.363435 
L 99.250999 264.089946 
L 99.385488 271.099947 
L 99.519976 268.185323 
L 99.788952 273.445181 
L 99.923441 287.136443 
L 100.192417 277.482991 
L 100.326905 277.688911 
L 100.461393 277.60872 
L 100.595882 275.94437 
L 100.73037 271.36089 
L 100.864858 274.190109 
L 100.999346 281.96506 
L 101.133834 281.791851 
L 101.268323 287.551173 
L 101.402811 286.113653 
L 101.537299 282.253189 
L 101.671787 269.183896 
L 101.806276 280.733799 
L 101.940764 261.421604 
L 102.075252 261.102158 
L 102.20974 270.79843 
L 102.344228 271.336071 
L 102.613205 274.99666 
L 102.747693 278.793553 
L 102.882181 273.403198 
L 103.016669 281.743087 
L 103.151158 257.934316 
L 103.285646 260.372332 
L 103.420134 271.375018 
L 103.554622 267.249816 
L 103.958087 238.384724 
L 104.227063 145.026507 
L 104.361552 164.891729 
L 104.49604 152.657384 
L 104.630528 166.558839 
L 104.899504 146.364837 
L 105.571945 244.283774 
L 105.840922 266.408879 
L 105.97541 258.724445 
L 106.109898 260.352164 
L 106.244387 269.083857 
L 106.378875 288.262054 
L 106.513363 286.531592 
L 106.782339 278.712047 
L 106.916828 282.067367 
L 107.051316 278.954926 
L 107.185804 279.120259 
L 107.45478 203.169886 
L 107.723757 258.237503 
L 107.858245 247.993683 
L 108.127222 253.035758 
L 108.26171 251.79963 
L 108.396198 248.519903 
L 108.530686 249.823262 
L 108.665174 249.966782 
L 108.799663 257.686259 
L 109.068639 281.371188 
L 109.203127 277.339918 
L 109.337615 277.450127 
L 109.472104 276.645971 
L 109.606592 269.142094 
L 109.74108 271.810163 
L 109.875568 271.860221 
L 110.010056 271.474037 
L 110.548009 263.239827 
L 110.816986 275.096597 
L 110.951474 275.178399 
L 111.085962 274.48638 
L 111.22045 275.587316 
L 111.354939 278.812967 
L 111.758403 267.081663 
L 111.892891 266.314455 
L 112.161868 274.555183 
L 112.296356 274.496426 
L 112.565333 273.048165 
L 112.699821 273.015426 
L 112.834309 255.03243 
L 113.103285 263.268931 
L 113.237774 260.809214 
L 113.372262 260.861914 
L 113.50675 258.061456 
L 113.641238 257.940383 
L 113.775726 257.037856 
L 113.910215 264.547812 
L 114.044703 264.687276 
L 114.179191 269.245697 
L 114.313679 268.065213 
L 114.448168 260.655491 
L 114.582656 264.121244 
L 114.717144 262.081209 
L 114.98612 253.216795 
L 115.120609 251.971723 
L 115.524073 264.913134 
L 115.658561 263.072867 
L 115.79305 265.324197 
L 116.196514 260.733917 
L 116.331002 254.579505 
L 116.465491 264.081652 
L 116.734467 255.910892 
L 116.868955 224.498246 
L 117.137932 110.129169 
L 117.27242 78.512686 
L 117.406908 96.66185 
L 117.675885 68.46078 
L 117.944861 105.17551 
L 118.617302 255.28242 
L 118.75179 250.022243 
L 119.155255 254.380739 
L 119.289743 253.733447 
L 119.424231 254.984944 
L 119.693208 248.393025 
L 119.827696 249.910897 
L 119.962184 246.152758 
L 120.096672 218.154135 
L 120.365649 104.633363 
L 120.500137 96.04615 
L 120.634625 108.470636 
L 120.903602 84.901641 
L 121.172578 109.883566 
L 121.576043 185.944777 
L 121.845019 259.737496 
L 121.979507 249.184229 
L 122.113996 252.543854 
L 122.248484 245.234968 
L 122.51746 249.057051 
L 122.651948 260.11759 
L 122.786437 256.961807 
L 123.189901 242.152266 
L 123.32439 221.367837 
L 123.593366 108.593632 
L 123.727854 84.195796 
L 123.862342 103.359156 
L 123.996831 92.041152 
L 124.131319 90.268728 
L 124.80376 188.226287 
L 125.072736 256.67479 
L 125.207225 252.296812 
L 125.341713 258.49678 
L 125.476201 255.134581 
L 125.610689 258.622498 
L 125.745177 255.071605 
L 125.879666 268.602893 
L 126.014154 267.889164 
L 126.28313 260.613818 
L 126.552107 223.938285 
L 126.821083 112.326647 
L 126.955571 98.939463 
L 127.09006 101.335925 
L 127.224548 88.589564 
L 127.359036 89.757824 
L 127.762501 140.763795 
L 128.300453 257.481386 
L 128.434942 253.815569 
L 128.56943 256.68299 
L 128.703918 257.062533 
L 128.838406 255.159464 
L 128.972894 262.06851 
L 129.241871 257.331465 
L 129.376359 259.969625 
L 129.510847 257.547482 
L 129.779824 204.851948 
L 130.0488 102.082509 
L 130.183288 85.17193 
L 130.317777 106.902309 
L 130.452265 90.706666 
L 130.586753 95.406193 
L 130.721241 130.433742 
L 130.855729 128.471881 
L 130.990218 135.8599 
L 131.528171 251.877951 
L 131.931635 262.619233 
L 132.066123 261.307076 
L 132.3351 255.621735 
L 132.469588 259.670794 
L 132.604076 270.046164 
L 132.873053 258.614944 
L 133.007541 255.742118 
L 133.142029 231.414511 
L 133.276517 232.663106 
L 133.545494 225.576938 
L 133.679982 230.523394 
L 133.81447 231.346624 
L 134.083447 240.797587 
L 134.217935 237.323819 
L 134.486911 254.027031 
L 134.890376 261.383625 
L 135.024864 259.022571 
L 135.159352 259.882202 
L 135.29384 259.721755 
L 135.697305 258.352393 
L 135.831793 258.880042 
L 135.966282 258.659497 
L 136.10077 266.219837 
L 136.369746 250.977388 
L 136.638723 267.897319 
L 136.773211 262.39073 
L 136.907699 268.233633 
L 137.176675 267.956588 
L 137.445652 248.367476 
L 137.714628 259.35443 
L 137.849117 257.507879 
L 138.118093 264.480958 
L 138.387069 260.785766 
L 138.521558 261.219505 
L 138.656046 265.126246 
L 138.925022 255.731878 
L 139.05951 260.082167 
L 139.193999 259.537591 
L 139.462975 214.302233 
L 139.731951 101.336514 
L 139.86644 82.720508 
L 140.000928 95.792577 
L 140.135416 78.566682 
L 140.269904 75.698454 
L 140.538881 114.083851 
L 140.807857 174.619117 
L 141.076834 227.283104 
L 141.211322 262.007755 
L 141.480298 251.165399 
L 141.749275 262.002487 
L 141.883763 262.179837 
L 142.018251 264.758422 
L 142.421716 254.8534 
L 143.094157 89.744541 
L 143.228645 115.751902 
L 143.497621 85.987025 
L 143.901086 135.836487 
L 144.170063 195.767422 
L 144.439039 257.138291 
L 144.573527 247.914562 
L 144.976992 265.622393 
L 145.245968 261.384593 
L 145.380456 260.550968 
L 145.514945 261.670642 
L 145.649433 248.515136 
L 145.783921 209.176842 
L 145.918409 210.090368 
L 146.187386 108.771383 
L 146.321874 91.217237 
L 146.456362 110.332116 
L 146.59085 111.925674 
L 146.725339 104.749582 
L 146.994315 119.026362 
L 147.666756 253.276427 
L 147.801244 251.8648 
L 148.070221 264.849925 
L 148.204709 263.726194 
L 148.339197 265.178525 
L 148.473685 264.974672 
L 148.87715 254.312719 
L 149.011638 251.637011 
L 149.549591 98.103871 
L 149.684079 124.617462 
L 149.818567 104.860946 
L 149.953056 104.348757 
L 150.625497 199.030988 
L 150.894473 257.307493 
L 151.028961 252.085693 
L 151.297938 265.014017 
L 151.566914 262.647212 
L 151.835891 264.153883 
L 152.104867 261.099687 
L 152.239355 254.7019 
L 152.64282 102.951764 
L 152.777308 93.336945 
L 152.911796 123.250907 
L 153.180773 96.629231 
L 154.12219 258.829856 
L 154.391167 269.233554 
L 154.525655 268.581449 
L 154.660143 271.480538 
L 154.92912 271.462554 
L 155.063608 269.364821 
L 155.198096 269.083736 
L 155.467072 271.948421 
L 155.736049 252.585685 
L 155.870537 236.513026 
L 156.005025 252.794966 
L 156.139513 255.108492 
L 156.274002 262.563109 
L 156.542978 260.896801 
L 156.677466 262.147867 
L 156.811955 261.373304 
L 156.946443 259.584286 
L 157.215419 267.385804 
L 157.484396 271.863368 
L 157.618884 271.391306 
L 157.753372 268.69084 
L 158.022348 271.362403 
L 158.156837 271.191321 
L 158.425813 268.915768 
L 158.560301 270.729754 
L 158.694789 274.510705 
L 158.829278 273.054315 
L 158.963766 267.159072 
L 159.098254 274.522209 
L 159.232742 274.82132 
L 159.367231 274.036683 
L 159.636207 282.288326 
L 159.905183 267.16654 
L 160.039672 257.458931 
L 160.17416 263.257848 
L 160.308648 259.865563 
L 160.712113 272.503704 
L 160.981089 265.50396 
L 161.115577 266.111294 
L 161.250066 266.109691 
L 161.384554 269.389357 
L 161.65353 263.882553 
L 161.788018 261.974696 
L 162.056995 215.269797 
L 162.325971 111.517978 
L 162.460459 87.197291 
L 162.729436 106.339477 
L 162.863924 92.655283 
L 162.998412 94.091568 
L 163.267389 144.259638 
L 163.536365 201.851321 
L 163.805342 257.101562 
L 163.93983 250.358856 
L 164.074318 250.8721 
L 164.343294 261.599486 
L 164.477783 258.417598 
L 164.612271 270.246268 
L 164.881247 267.115996 
L 165.015735 253.181847 
L 165.284712 214.281988 
L 165.553688 112.07643 
L 165.688177 97.391598 
L 165.822665 133.063352 
L 166.091641 103.225345 
L 166.226129 121.480899 
L 166.360618 124.224933 
L 166.495106 135.586545 
L 166.764082 188.604981 
L 166.89857 246.105617 
L 167.033059 256.098656 
L 167.167547 246.830376 
L 167.302035 246.862641 
L 167.436523 255.267392 
L 167.571012 256.159076 
L 167.7055 256.090346 
L 167.974476 261.68426 
L 168.243453 257.884588 
L 168.377941 240.345177 
L 168.646917 146.305177 
L 168.915894 90.238097 
L 169.050382 125.704647 
L 169.18487 96.130254 
L 169.319358 92.876555 
L 169.453847 110.295879 
L 169.588335 106.920274 
L 170.260776 259.434844 
L 170.395264 253.084447 
L 170.66424 261.504579 
L 170.798729 262.324518 
L 170.933217 264.343993 
L 171.202193 258.619069 
L 171.336681 257.923194 
L 171.47117 260.78472 
L 172.143611 91.887782 
L 172.278099 125.155978 
L 172.547075 90.542306 
L 172.681564 100.687866 
L 173.488493 258.957557 
L 173.622981 251.346042 
L 174.160934 283.503906 
L 174.42991 272.406509 
L 174.564399 271.933975 
L 174.698887 271.90679 
L 175.102351 195.550552 
L 175.23684 150.337047 
L 175.371328 155.474957 
L 175.640304 142.598318 
L 175.774792 145.14275 
L 175.909281 154.857657 
L 176.043769 154.500577 
L 176.447234 208.714336 
L 176.71621 265.753484 
L 176.850698 257.920616 
L 177.119675 268.658302 
L 177.254163 265.130798 
L 177.388651 265.980058 
L 177.523139 267.904387 
L 177.657627 263.883365 
L 177.926604 269.471236 
L 178.061092 267.53067 
L 178.19558 263.084349 
L 178.330069 243.151372 
L 178.464557 245.275875 
L 178.599045 255.527317 
L 178.733533 251.563913 
L 179.136998 263.304026 
L 179.405974 253.511066 
L 179.540462 257.616431 
L 179.674951 257.206713 
L 179.809439 259.692965 
L 180.212904 270.846524 
L 180.48188 266.620419 
L 180.616368 278.373632 
L 180.750856 277.204674 
L 181.019833 271.096854 
L 181.154321 270.940638 
L 181.288809 268.66018 
L 181.557786 252.315035 
L 181.692274 252.168548 
L 181.826762 262.345477 
L 181.96125 262.727869 
L 182.095738 268.374017 
L 182.230227 258.713365 
L 182.499203 272.472328 
L 182.633691 270.240411 
L 182.76818 270.402695 
L 182.902668 276.026155 
L 183.037156 274.148745 
L 183.171644 274.080143 
L 183.306132 279.804595 
L 183.440621 277.775536 
L 183.575109 277.564583 
L 183.709597 276.217776 
L 183.844085 272.215868 
L 183.978573 289.935385 
L 184.113062 290.675175 
L 184.24755 287.780488 
L 184.382038 279.263511 
L 184.651015 249.860997 
L 184.919991 167.089988 
L 185.054479 183.705051 
L 185.188967 171.668958 
L 185.323456 181.62583 
L 185.457944 175.337029 
L 185.592432 178.784421 
L 186.399361 265.537416 
L 186.53385 264.404399 
L 186.668338 266.849038 
L 187.071802 282.565618 
L 187.206291 294.95545 
L 187.340779 293.863707 
L 187.475267 286.314724 
L 187.609755 287.091758 
L 187.744243 277.69633 
L 187.878732 254.270093 
L 188.01322 179.461509 
L 188.147708 172.656592 
L 188.282196 187.599269 
L 188.416684 174.973488 
L 188.551173 180.342324 
L 188.685661 181.214748 
L 188.820149 183.686314 
L 189.49259 258.180605 
L 189.627078 268.929912 
L 189.761567 269.840172 
L 189.896055 267.37681 
L 190.165031 275.882883 
L 190.299519 269.671694 
L 190.434008 270.042486 
L 190.568496 269.340063 
L 190.702984 263.993629 
L 190.971961 264.556683 
L 191.106449 262.648998 
L 191.240937 262.519057 
L 191.375425 259.028687 
L 191.644402 272.84037 
L 191.77889 265.726301 
L 191.913378 272.587304 
L 192.047866 272.350612 
L 192.182354 269.529966 
L 192.316843 259.00702 
L 192.451331 259.565631 
L 192.720307 265.676126 
L 192.854796 268.431956 
L 192.989284 274.056752 
L 193.123772 270.70919 
L 193.25826 270.577455 
L 193.661725 263.211099 
L 193.796213 265.160601 
L 193.930701 264.263348 
L 194.065189 262.280357 
L 194.334166 233.562434 
L 194.603142 156.641292 
L 194.73763 161.620138 
L 194.872119 147.525728 
L 195.006607 151.798048 
L 195.141095 145.7005 
L 195.275583 149.529011 
L 195.410072 162.265819 
L 195.54456 161.855077 
L 196.082513 255.069701 
L 196.217001 264.758158 
L 196.351489 261.682324 
L 196.620465 265.267718 
L 196.754954 276.88894 
L 197.02393 267.233799 
L 197.158418 265.363266 
L 197.292907 266.180702 
L 197.427395 258.951185 
L 197.561883 240.196422 
L 197.830859 154.919739 
L 197.965348 189.859004 
L 198.099836 187.485437 
L 198.234324 190.861877 
L 198.368812 189.770977 
L 198.772277 208.080895 
L 199.175742 257.798826 
L 199.444718 275.777651 
L 199.579206 273.018819 
L 199.713694 274.574712 
L 199.982671 282.536847 
L 200.251647 277.777527 
L 200.386135 277.423948 
L 200.520624 271.521811 
L 200.655112 256.102046 
L 200.7896 255.71036 
L 200.924088 222.748388 
L 201.058576 149.321676 
L 201.193065 197.528981 
L 201.462041 190.365633 
L 201.731018 196.680153 
L 201.865506 197.423077 
L 202.672435 273.315237 
L 202.806923 269.336895 
L 203.0759 274.584565 
L 203.344876 258.840059 
L 203.479364 267.627025 
L 203.613853 264.355078 
L 204.017317 238.046303 
L 204.286294 145.67866 
L 204.420782 159.469114 
L 204.55527 160.865561 
L 204.824246 153.297063 
L 204.958735 162.763789 
L 205.093223 164.225142 
L 205.362199 206.253622 
L 205.765664 259.695863 
L 205.900152 268.100692 
L 206.03464 263.125912 
L 206.169129 263.904848 
L 206.303617 267.632292 
L 206.438105 287.481884 
L 206.572593 282.734802 
L 206.707081 282.113057 
L 206.84157 283.203579 
L 206.976058 281.881107 
L 207.110546 279.390487 
L 207.379522 254.714276 
L 207.514011 255.412104 
L 207.782987 264.133995 
L 208.051964 276.865499 
L 208.186452 277.759338 
L 208.32094 276.89632 
L 208.589916 263.419888 
L 208.993381 279.768761 
L 209.127869 279.368692 
L 209.262357 280.957353 
L 209.531334 278.189605 
L 209.665822 268.475021 
L 209.80031 271.770801 
L 209.934799 270.876199 
L 210.069287 268.991451 
L 210.203775 269.649068 
L 211.010704 126.387719 
L 211.145192 127.095353 
L 211.279681 116.568315 
L 211.548657 145.411667 
L 211.817634 184.94633 
L 212.08661 243.894532 
L 212.355586 264.425519 
L 212.490075 259.966466 
L 213.028027 275.095197 
L 213.297004 266.719097 
L 213.431492 270.604153 
L 213.700468 217.642674 
L 213.969445 114.352946 
L 214.103933 110.674435 
L 214.238421 136.195413 
L 214.37291 132.091503 
L 214.507398 132.539849 
L 214.776374 164.722972 
L 215.448815 268.591178 
L 215.583303 270.208775 
L 215.717792 263.023559 
L 215.85228 269.021319 
L 215.986768 268.639911 
L 216.121256 268.920598 
L 216.255745 269.508422 
L 216.524721 265.809542 
L 216.659209 268.689829 
L 216.793697 254.44353 
L 216.928186 227.847977 
L 217.197162 127.142347 
L 217.33165 125.748481 
L 217.466138 145.713332 
L 217.600627 144.517879 
L 217.869603 151.570692 
L 218.004091 151.50463 
L 218.407556 227.944708 
L 218.542044 238.408784 
L 218.676532 268.532099 
L 218.811021 266.887161 
L 218.945509 269.446164 
L 219.079997 274.238722 
L 219.214485 263.081514 
L 219.483462 271.008344 
L 219.886926 274.212789 
L 220.155903 231.886762 
L 220.424879 125.772345 
L 220.693856 154.947969 
L 220.828344 143.681321 
L 220.962832 145.148232 
L 221.09732 160.704309 
L 221.231808 161.141565 
L 221.500785 215.748925 
L 221.635273 225.179017 
L 221.904249 269.846704 
L 222.038738 267.734428 
L 222.173226 266.641307 
L 222.307714 273.936236 
L 222.442202 271.703588 
L 222.576691 271.874179 
L 222.845667 278.346146 
L 222.980155 276.923179 
L 223.114643 277.197576 
L 223.249132 269.564663 
L 223.38362 270.605685 
L 223.652596 235.810178 
L 223.787084 261.446539 
L 223.921573 263.59878 
L 224.056061 256.953131 
L 224.190549 256.520139 
L 224.325037 260.141394 
L 224.459525 260.387652 
L 224.594014 262.340793 
L 224.86299 258.919612 
L 224.997478 259.357953 
L 225.131967 265.520833 
L 225.266455 266.537685 
L 225.535431 264.162078 
L 225.669919 264.076466 
L 225.804408 262.027982 
L 225.938896 256.616422 
L 226.073384 261.500613 
L 226.207872 261.988882 
L 226.34236 265.388287 
L 226.745825 258.949649 
L 227.014802 265.050035 
L 227.14929 274.439976 
L 227.418266 276.17679 
L 227.552754 268.784649 
L 227.687243 275.455988 
L 227.821731 271.17068 
L 227.956219 272.16116 
L 228.090707 271.875663 
L 228.225195 273.549801 
L 228.359684 282.348959 
L 228.494172 278.872981 
L 228.62866 278.734162 
L 228.763148 275.183393 
L 228.897637 277.541491 
L 229.032125 276.958554 
L 229.166613 271.526677 
L 229.301101 271.871872 
L 229.435589 271.905927 
L 229.570078 269.987976 
L 229.704566 251.549544 
L 230.242519 94.848572 
L 230.377007 106.56532 
L 230.511495 99.35728 
L 230.645983 85.249949 
L 230.780471 126.942486 
L 231.049448 144.139016 
L 231.587401 256.700607 
L 231.856377 259.730105 
L 232.125354 268.756139 
L 232.259842 270.767819 
L 232.39433 269.425334 
L 232.663306 271.904084 
L 232.797795 266.34496 
L 233.066771 214.121456 
L 233.335748 118.066689 
L 233.470236 107.871943 
L 233.739212 131.549106 
L 233.8737 126.557066 
L 234.008189 139.676084 
L 234.142677 137.305013 
L 234.815118 263.376842 
L 234.949606 269.035935 
L 235.218583 266.400356 
L 235.353071 271.488569 
L 235.487559 271.247647 
L 235.756535 279.767619 
L 236.025512 270.584176 
L 236.294488 232.32001 
L 236.563465 121.058368 
L 236.697953 107.334461 
L 236.832441 125.219793 
L 236.966929 122.192066 
L 237.101417 113.33344 
L 237.63937 189.00573 
L 237.908347 244.011873 
L 238.177323 269.523206 
L 238.311811 267.447823 
L 238.4463 268.638053 
L 238.580788 272.270502 
L 238.715276 272.322504 
L 238.849764 273.737527 
L 239.118741 283.32715 
L 239.253229 276.669032 
L 239.387717 262.571498 
L 239.92567 116.111503 
L 240.060158 120.409219 
L 240.194646 133.481372 
L 240.329135 130.220267 
L 240.463623 139.767543 
L 241.270552 264.719612 
L 241.40504 260.450612 
L 241.539529 261.492844 
L 241.808505 264.138929 
L 241.942993 262.438428 
L 242.077481 277.68978 
L 242.21197 276.412167 
L 242.346458 285.154572 
L 242.480946 278.185155 
L 242.749922 223.799017 
L 243.018899 124.336356 
L 243.153387 128.476404 
L 243.287875 154.849213 
L 243.556852 138.937646 
L 244.632757 264.45645 
L 244.767246 265.462483 
L 244.901734 269.504514 
L 245.036222 268.887468 
L 245.305198 276.149367 
L 245.708663 268.682047 
L 245.843151 261.910292 
L 245.97764 226.885177 
L 246.112128 252.458891 
L 246.381104 259.477576 
L 246.515592 260.198084 
L 246.650081 259.149477 
L 246.784569 262.104646 
L 247.188033 274.299693 
L 247.322522 269.276003 
L 247.45701 274.285781 
L 247.591498 274.494065 
L 247.725986 275.70541 
L 247.860475 274.487007 
L 247.994963 276.897031 
L 248.129451 273.358159 
L 248.398427 274.671173 
L 248.532916 271.321738 
L 248.667404 271.051664 
L 248.801892 268.550445 
L 248.93638 271.109682 
L 249.205357 261.856615 
L 249.743309 278.489539 
L 249.877798 278.000233 
L 250.012286 279.63442 
L 250.146774 276.634168 
L 250.281262 279.329546 
L 250.550239 274.676104 
L 250.684727 275.374946 
L 250.819215 275.202277 
L 250.953703 276.751199 
L 251.22268 276.131051 
L 251.357168 273.321103 
L 251.491656 274.971805 
L 251.626144 274.044037 
L 251.760633 288.894498 
L 252.029609 280.748958 
L 252.164097 278.486171 
L 252.433074 242.456623 
L 252.70205 129.225466 
L 252.836538 122.300764 
L 253.105515 155.272431 
L 253.240003 145.858024 
L 253.374491 154.658403 
L 254.181421 267.537308 
L 254.315909 266.702916 
L 254.719373 280.590391 
L 254.853862 281.547534 
L 254.98835 287.319962 
L 255.122838 284.337968 
L 255.257326 284.925197 
L 255.391814 283.914551 
L 255.929767 133.843174 
L 256.198744 165.794943 
L 256.46772 154.767482 
L 256.871185 182.758705 
L 257.140161 236.39985 
L 257.274649 244.718512 
L 257.409138 261.331554 
L 257.543626 260.760674 
L 257.94709 266.739173 
L 258.081579 266.28509 
L 258.216067 282.40159 
L 258.350555 285.03949 
L 258.619532 275.236582 
L 258.888508 234.210103 
L 259.157484 135.255348 
L 259.291973 164.305767 
L 259.426461 163.842398 
L 259.560949 158.872903 
L 259.695437 144.025725 
L 259.964414 179.408434 
L 260.098902 170.287518 
L 260.502366 242.609377 
L 260.636855 259.356858 
L 260.771343 261.444886 
L 260.905831 260.01896 
L 261.040319 265.969583 
L 261.309296 263.588442 
L 261.443784 270.963322 
L 261.578272 268.919982 
L 261.71276 271.730323 
L 261.981737 255.872693 
L 262.385201 131.71876 
L 262.51969 158.214218 
L 262.654178 157.881827 
L 262.788666 145.424673 
L 262.923154 148.472414 
L 263.057643 159.66899 
L 263.192131 155.474831 
L 263.595595 225.022809 
L 263.864572 256.863401 
L 263.99906 258.628326 
L 264.133548 256.631328 
L 264.537013 268.077141 
L 264.671501 261.844848 
L 264.805989 262.581688 
L 265.074966 256.027014 
L 265.209454 248.19368 
L 265.47843 185.261867 
L 265.747407 134.519567 
L 265.881895 112.631657 
L 266.419848 127.591966 
L 266.554336 141.71733 
L 267.092289 256.865013 
L 267.226777 256.41936 
L 267.361265 255.12336 
L 267.495754 258.630429 
L 267.630242 256.155809 
L 267.76473 274.217259 
L 268.033706 265.772503 
L 268.168195 262.751917 
L 268.437171 270.978161 
L 268.571659 267.130367 
L 268.706147 257.838407 
L 268.975124 276.823258 
L 269.109612 272.676194 
L 269.2441 273.218537 
L 269.378589 273.051874 
L 269.513077 271.93008 
L 269.782053 265.084837 
L 269.916541 257.833711 
L 270.05103 260.386881 
L 270.185518 260.764298 
L 270.320006 264.222771 
L 270.454494 264.286464 
L 270.588982 263.579083 
L 270.723471 266.754604 
L 270.857959 265.773777 
L 270.992447 284.778356 
L 271.126935 281.005732 
L 271.261424 272.85071 
L 271.395912 272.940962 
L 271.5304 271.518054 
L 271.664888 267.955734 
L 271.799376 267.439698 
L 271.933865 270.748261 
L 272.068353 279.386284 
L 272.202841 279.310791 
L 272.471817 281.393476 
L 272.606306 282.323226 
L 272.875282 276.827299 
L 273.00977 280.792135 
L 273.144258 277.067934 
L 273.278747 277.099994 
L 273.413235 274.792572 
L 273.682211 278.360222 
L 273.8167 277.952872 
L 273.951188 274.977553 
L 274.085676 276.813788 
L 274.220164 275.363491 
L 274.354652 294.550971 
L 274.623629 289.136321 
L 274.758117 282.775875 
L 275.027093 240.936193 
L 275.29607 171.343058 
L 275.430558 166.323935 
L 275.565046 154.114087 
L 275.699535 157.453115 
L 275.834023 154.88783 
L 275.968511 155.694039 
L 276.640952 252.185733 
L 276.909928 265.534173 
L 277.044417 267.221825 
L 277.178905 270.483514 
L 277.313393 277.3317 
L 277.447881 273.480155 
L 277.58237 285.079908 
L 277.716858 282.206603 
L 277.851346 285.961441 
L 277.985834 281.648871 
L 278.120322 267.611202 
L 278.254811 239.864923 
L 278.523787 170.116568 
L 278.658275 183.788167 
L 278.792763 171.796095 
L 278.927252 183.95498 
L 279.06174 178.374519 
L 279.196228 196.538525 
L 279.330716 197.801594 
L 279.465204 207.307294 
L 279.734181 247.449031 
L 280.137646 272.592523 
L 280.272134 271.840562 
L 280.54111 277.704784 
L 280.675598 262.626336 
L 280.810087 262.569312 
L 280.944575 263.858476 
L 281.079063 262.964528 
L 281.213551 258.707842 
L 281.482528 235.851204 
L 281.751504 120.165274 
L 281.885992 127.502053 
L 282.020481 119.13476 
L 282.289457 136.775532 
L 282.423945 137.49184 
L 282.558433 127.908363 
L 283.230874 259.41718 
L 283.365363 265.307251 
L 283.499851 263.916377 
L 283.634339 264.104455 
L 283.768827 265.527508 
L 284.172292 257.51814 
L 284.30678 256.953955 
L 284.441268 254.119705 
L 284.575757 244.20029 
L 284.710245 224.98005 
L 284.979221 143.094157 
L 285.113709 145.112312 
L 285.248198 152.287382 
L 285.517174 133.501438 
L 285.651662 137.172661 
L 286.59308 263.642987 
L 286.727568 260.377743 
L 286.862056 265.127361 
L 286.996544 263.204975 
L 287.131033 287.94414 
L 287.937962 255.050016 
L 288.206938 270.28516 
L 288.341427 274.547522 
L 288.475915 272.348667 
L 288.610403 273.32656 
L 288.744891 269.925035 
L 289.013868 272.516554 
L 289.148356 277.756873 
L 289.417332 269.409647 
L 289.55182 279.947469 
L 289.686309 280.845315 
L 289.820797 280.372741 
L 290.089773 275.200178 
L 290.224262 276.29117 
L 290.35875 274.207034 
L 290.493238 277.006861 
L 290.627726 273.57396 
L 290.762214 274.13604 
L 290.896703 268.641846 
L 291.165679 243.434983 
L 291.300167 225.544794 
L 291.434655 160.834955 
L 291.83812 184.032423 
L 291.972608 184.775349 
L 292.107096 178.778936 
L 292.241585 182.079096 
L 292.510561 224.309047 
L 292.645049 232.621721 
L 292.914026 267.060763 
L 293.048514 270.494295 
L 293.183002 266.295151 
L 293.451979 271.19854 
L 293.586467 267.28285 
L 293.720955 266.79809 
L 293.855443 262.967026 
L 293.989931 266.067572 
L 294.12442 263.783288 
L 294.662373 156.132754 
L 294.796861 166.149572 
L 294.931349 155.329051 
L 295.065837 155.442096 
L 295.200325 142.798831 
L 295.334814 145.678202 
L 295.469302 161.719876 
L 295.60379 162.722428 
L 295.872766 218.746002 
L 296.276231 267.424669 
L 296.410719 260.388787 
L 296.545208 260.477797 
L 296.679696 267.957745 
L 296.814184 290.249742 
L 297.217649 279.774131 
L 297.352137 279.262391 
L 297.621113 274.068866 
L 297.89009 283.380322 
L 298.024578 285.068907 
L 298.293554 279.609574 
L 298.428042 279.378461 
L 298.562531 278.403112 
L 298.697019 279.24961 
L 298.965995 274.089597 
L 299.100484 274.185562 
L 299.503948 280.017867 
L 299.638436 278.806825 
L 299.772925 275.55857 
L 299.907413 278.711642 
L 300.041901 261.712834 
L 300.176389 269.787583 
L 300.445366 268.010669 
L 300.579854 264.812583 
L 300.983319 178.22669 
L 301.252295 140.07649 
L 301.65576 128.21911 
L 301.790248 139.136778 
L 301.924736 136.968113 
L 302.597177 258.291722 
L 302.731665 261.989353 
L 302.866153 259.084949 
L 303.000642 261.266731 
L 303.269618 270.301919 
L 303.538595 263.175554 
L 303.673083 265.445944 
L 303.807571 262.979877 
L 304.345524 136.773673 
L 304.480012 155.741669 
L 304.6145 159.02773 
L 304.748988 156.504743 
L 304.883477 151.370417 
L 305.017965 157.63291 
L 305.152453 155.654629 
L 305.824894 258.910086 
L 305.959382 263.300977 
L 306.093871 262.463112 
L 306.228359 262.577703 
L 306.362847 268.074502 
L 306.497335 267.341899 
L 306.631823 279.40813 
L 306.766312 277.509009 
L 307.035288 271.617557 
L 307.304265 220.014245 
L 307.573241 130.560503 
L 307.842217 167.400999 
L 308.111194 155.516756 
L 308.245682 161.077495 
L 308.38017 159.322377 
L 309.187099 268.033125 
L 309.321588 266.29982 
L 309.725052 274.421183 
L 309.859541 276.183224 
L 310.263005 270.306197 
L 310.397493 253.176287 
L 310.800958 131.584855 
L 311.069934 166.923094 
L 311.204423 165.105029 
L 311.338911 155.932826 
L 311.742376 173.300057 
L 312.011352 243.538359 
L 312.14584 242.944724 
L 312.414817 265.682649 
L 312.549305 263.156598 
L 312.818281 269.337781 
L 313.087258 271.836542 
L 313.221746 267.10444 
L 313.356234 268.037118 
L 313.625211 258.691319 
L 313.894187 236.789198 
L 314.028675 236.086954 
L 314.163163 253.931563 
L 314.297652 252.774788 
L 314.43214 256.599093 
L 314.566628 253.419346 
L 314.835604 265.139904 
L 314.970093 266.099308 
L 315.239069 271.883652 
L 315.508045 270.983614 
L 315.642534 273.704466 
L 315.91151 269.696185 
L 316.045998 269.606255 
L 316.180487 269.832845 
L 316.449463 269.20262 
L 316.852928 257.48546 
L 316.987416 259.059378 
L 317.39088 273.265745 
L 317.525369 273.296059 
L 317.659857 277.75488 
L 317.794345 275.405038 
L 317.928833 278.552057 
L 318.063322 272.161786 
L 318.19781 271.961829 
L 318.332298 268.791289 
L 318.466786 269.684742 
L 318.601274 268.991997 
L 318.735763 271.727336 
L 318.870251 270.544081 
L 319.004739 271.018387 
L 319.139227 266.921551 
L 319.273715 268.228304 
L 319.408204 267.126495 
L 319.542692 283.797632 
L 319.946157 274.303612 
L 320.215133 236.440206 
L 320.484109 131.86046 
L 320.618598 126.023863 
L 320.753086 125.265181 
L 320.887574 139.833917 
L 321.022062 139.072459 
L 321.15655 144.68252 
L 321.291039 157.688342 
L 321.96348 267.534234 
L 322.097968 266.844977 
L 322.232456 265.535873 
L 322.366944 266.752297 
L 322.501433 270.812255 
L 322.635921 269.993039 
L 322.770409 284.444402 
L 323.039385 277.567515 
L 323.173874 272.614886 
L 323.44285 237.743697 
L 323.711826 134.141558 
L 323.980803 171.284393 
L 324.249779 152.48903 
L 324.518756 162.478567 
L 324.653244 177.402216 
L 324.92222 226.663238 
L 325.325685 265.484234 
L 325.460173 262.390639 
L 325.72915 269.640931 
L 325.863638 269.416793 
L 325.998126 280.04517 
L 326.132614 280.518156 
L 326.267103 279.143582 
L 326.401591 274.85148 
L 326.670567 231.262534 
L 326.939544 128.402595 
L 327.20852 171.896018 
L 327.477496 157.586334 
L 327.611985 163.903095 
L 327.746473 164.38095 
L 327.880961 178.911508 
L 328.284426 245.281089 
L 328.553402 262.698212 
L 328.68789 261.360154 
L 328.956867 272.33507 
L 329.091355 272.718167 
L 329.225843 286.869943 
L 329.629308 273.646949 
L 330.032772 175.781369 
L 330.167261 142.815792 
L 330.436237 171.002236 
L 330.839702 159.026283 
L 331.646631 262.81294 
L 331.781119 264.479194 
L 331.915607 261.998155 
L 332.319072 270.501463 
L 332.45356 285.308417 
L 332.857025 273.481259 
L 333.126001 230.613187 
L 333.394978 137.880097 
L 333.663954 177.731007 
L 333.932931 162.204425 
L 334.067419 163.879337 
L 334.201907 170.428499 
L 334.874348 267.380318 
L 335.008836 266.791176 
L 335.143325 265.445902 
L 335.412301 274.610073 
L 335.815766 267.547594 
L 335.950254 264.986683 
L 336.084742 264.738396 
L 336.488207 245.282462 
L 336.622695 251.88753 
L 336.757183 251.956945 
L 336.891671 250.40543 
L 337.02616 255.071997 
L 337.160648 252.890544 
L 337.564112 265.813333 
L 337.698601 266.130064 
L 337.967577 269.994761 
L 338.102065 269.215841 
L 338.236553 272.915577 
L 338.50553 270.584791 
L 338.640018 270.823122 
L 338.774506 265.624714 
L 339.043483 265.486366 
L 339.312459 261.496215 
L 339.446947 252.625188 
L 339.581436 251.458412 
L 339.850412 266.800124 
L 340.119388 270.972788 
L 340.253877 270.794912 
L 340.388365 269.170866 
L 340.522853 269.035137 
L 340.657341 274.038443 
L 340.791829 271.773198 
L 340.926318 272.285139 
L 341.060806 271.951526 
L 341.195294 273.046275 
L 341.329782 269.243342 
L 341.464271 274.52498 
L 341.598759 273.923545 
L 341.733247 272.748758 
L 341.867735 272.985215 
L 342.002223 274.42174 
L 342.136712 286.711953 
L 342.405688 278.0475 
L 342.540176 276.94761 
L 343.212617 132.802395 
L 343.347106 161.947694 
L 343.481594 166.620953 
L 343.616082 160.654782 
L 343.75057 165.606234 
L 343.885058 175.608749 
L 344.557499 267.763889 
L 344.826476 262.190128 
L 345.095452 273.740291 
L 345.22994 272.090885 
L 345.364429 283.309109 
L 345.767893 273.740415 
L 346.03687 232.030026 
L 346.305846 143.265685 
L 346.440334 171.471611 
L 346.574823 174.517061 
L 346.709311 171.803267 
L 346.843799 164.878662 
L 346.978287 168.782667 
L 347.247264 192.351238 
L 347.785217 263.217967 
L 347.919705 264.179663 
L 348.054193 262.876123 
L 348.323169 272.616426 
L 348.457658 270.66269 
L 348.592146 283.722378 
L 348.726634 280.693967 
L 348.861122 280.170932 
L 348.99561 276.040189 
L 349.264587 233.671995 
L 349.533563 142.672973 
L 349.668052 167.265272 
L 349.937028 165.801778 
L 350.071516 160.752193 
L 350.206004 162.872576 
L 350.340493 170.130939 
L 351.012934 261.178736 
L 351.550886 272.669021 
L 351.685375 273.116761 
L 351.819863 286.710534 
L 352.088839 277.038357 
L 352.223328 274.263253 
L 352.492304 241.783537 
L 352.76128 140.754997 
L 352.895769 170.550407 
L 353.030257 171.613394 
L 353.164745 171.161031 
L 353.299233 163.364969 
L 353.702698 177.830049 
L 353.837186 190.331438 
L 354.106163 256.135673 
L 354.240651 260.015693 
L 354.375139 272.304648 
L 354.509627 270.296919 
L 354.644115 271.10511 
L 355.04758 281.561634 
L 355.451045 275.060621 
L 355.720021 234.975929 
L 355.988998 170.595796 
L 356.123486 177.588579 
L 356.392462 158.149973 
L 356.52695 159.860366 
L 356.661439 167.618137 
L 356.795927 165.542656 
L 357.468368 265.915123 
L 357.602856 274.226218 
L 357.737344 271.789883 
L 358.006321 277.477516 
L 358.140809 282.896217 
L 358.409785 276.449037 
L 358.544274 276.738405 
L 358.678762 274.175654 
L 358.81325 262.843424 
L 358.947738 262.961455 
L 359.216715 239.825276 
L 359.351203 241.782317 
L 359.485691 255.365849 
L 359.620179 252.165873 
L 359.754667 245.669352 
L 359.889156 264.511653 
L 360.023644 262.610446 
L 360.158132 263.130464 
L 360.561597 282.41333 
L 360.696085 278.748689 
L 360.830573 278.585316 
L 360.965061 278.896664 
L 361.09955 278.256564 
L 361.234038 280.335528 
L 361.637502 275.527779 
L 361.771991 276.124869 
L 362.040967 266.135979 
L 362.309944 280.264769 
L 362.57892 282.345239 
L 362.847896 275.983595 
L 363.116873 280.963399 
L 363.385849 275.087691 
L 363.654826 280.214874 
L 363.789314 278.713901 
L 364.05829 278.320894 
L 364.192778 276.518354 
L 364.327267 277.437522 
L 364.461755 233.928315 
L 364.730731 249.74441 
L 364.86522 248.185575 
L 364.999708 248.347286 
L 365.134196 232.203434 
L 365.672149 110.777875 
L 365.806637 104.711042 
L 365.941125 111.365046 
L 366.075613 107.374535 
L 366.210102 98.574609 
L 366.748055 199.281182 
L 367.017031 254.702485 
L 367.151519 253.539444 
L 367.420496 260.853281 
L 367.554984 257.248362 
L 367.689472 265.73635 
L 367.82396 266.176094 
L 367.958448 263.390972 
L 368.092937 265.424874 
L 368.227425 263.789381 
L 368.496401 196.871111 
L 368.899866 94.276677 
L 369.034354 98.730122 
L 369.168842 94.016046 
L 369.303331 83.040004 
L 369.437819 86.217742 
L 369.975772 193.40275 
L 370.244748 257.228433 
L 370.379236 247.158275 
L 370.782701 261.784219 
L 370.917189 287.037453 
L 371.455142 272.985602 
L 371.993095 135.284098 
L 372.262071 188.508253 
L 372.396559 188.01209 
L 372.531048 178.689361 
L 373.069001 229.208987 
L 373.203489 252.852176 
L 373.337977 250.167717 
L 373.606953 264.549992 
L 373.741442 261.246819 
L 374.144906 284.059832 
L 374.279394 295.488 
L 374.548371 286.867298 
L 374.682859 281.639158 
L 375.220812 177.387829 
L 375.489788 170.78477 
L 375.624277 175.289921 
L 375.758765 174.768156 
L 375.893253 176.787042 
L 376.700182 265.97768 
L 376.83467 267.030811 
L 376.969159 265.345446 
L 377.238135 270.940296 
L 377.372623 286.575038 
L 377.6416 277.709708 
L 377.776088 277.910709 
L 377.910576 269.575448 
L 378.045064 270.740113 
L 378.179553 266.817244 
L 378.314041 270.221105 
L 378.448529 256.995536 
L 378.583017 265.092881 
L 378.717505 255.674507 
L 378.851994 265.797373 
L 378.986482 265.934519 
L 379.12097 274.032777 
L 379.255458 268.952322 
L 379.524435 272.565764 
L 379.658923 271.600959 
L 379.927899 279.134862 
L 380.062388 279.08461 
L 380.196876 279.63741 
L 380.331364 276.541955 
L 380.465852 277.498936 
L 380.60034 260.847378 
L 380.869317 267.505471 
L 381.003805 267.828685 
L 381.138293 264.445308 
L 381.676246 130.169949 
L 381.945223 144.465221 
L 382.079711 139.381705 
L 382.214199 139.081285 
L 382.348687 140.007756 
L 382.617664 159.000447 
L 382.88664 216.796035 
L 383.155616 265.682263 
L 383.424593 268.898275 
L 383.559081 268.410944 
L 383.693569 269.782525 
L 383.962546 257.377744 
L 384.097034 256.445026 
L 384.36601 253.068467 
L 384.500499 239.148158 
L 384.634987 241.827173 
L 384.903963 143.38125 
L 385.17294 160.648036 
L 385.307428 144.903119 
L 385.441916 152.191096 
L 385.576404 171.628192 
L 385.710893 161.78605 
L 385.845381 176.30652 
L 385.979869 221.454774 
L 386.114357 228.8999 
L 386.517822 270.653901 
L 386.65231 266.787129 
L 386.786798 272.940102 
L 386.921286 272.56397 
L 387.055775 282.619897 
L 387.190263 279.962951 
L 387.324751 274.846176 
L 387.459239 276.075578 
L 387.728216 259.713548 
L 388.13168 279.610101 
L 388.266169 279.19794 
L 388.400657 287.806285 
L 388.535145 284.460976 
L 388.669633 275.790771 
L 388.804121 283.930102 
L 388.93861 282.057567 
L 389.073098 283.005555 
L 389.207586 276.384562 
L 389.745539 287.67992 
L 390.014515 281.062361 
L 390.149004 282.546373 
L 390.283492 257.917327 
L 390.552468 265.374129 
L 390.686956 263.816629 
L 390.821445 256.473262 
L 390.955933 228.498205 
L 391.090421 235.221212 
L 391.224909 225.423054 
L 391.359397 162.621232 
L 391.493886 179.309955 
L 391.628374 156.17682 
L 391.89735 167.996458 
L 392.166327 172.463017 
L 392.300815 182.114632 
L 392.838768 268.655101 
L 392.973256 275.575931 
L 393.242232 271.360583 
L 393.376721 272.831659 
L 393.645697 259.98733 
L 393.780185 268.654603 
L 393.914673 267.226987 
L 394.318138 223.562726 
L 394.587115 155.839989 
L 394.721603 152.748262 
L 394.856091 154.369771 
L 394.990579 146.289012 
L 395.125067 147.533771 
L 395.259556 143.989242 
L 395.394044 150.746856 
L 395.931997 242.051457 
L 396.200973 264.028291 
L 396.335461 261.282711 
L 396.46995 264.296747 
L 396.604438 258.585566 
L 396.738926 291.674461 
L 397.007902 281.869014 
L 397.142391 280.438162 
L 397.276879 277.398661 
L 397.814832 159.177666 
L 397.94932 175.589035 
L 398.083808 162.406815 
L 398.218296 169.25986 
L 398.352785 153.925354 
L 398.487273 166.259418 
L 398.487273 166.259418 
" clip-path="url(#p5da5819bc2)" style="fill: none; stroke: #ff7f0e; stroke-width: 1.5; stroke-linecap: square"/>
   </g>
   <g id="patch_3">
    <path d="M 57.6 307.584 
L 57.6 41.472 
" style="fill: none; stroke: #000000; stroke-width: 0.8; stroke-linejoin: miter; stroke-linecap: square"/>
   </g>
   <g id="patch_4">
    <path d="M 414.72 307.584 
L 414.72 41.472 
" style="fill: none; stroke: #000000; stroke-width: 0.8; stroke-linejoin: miter; stroke-linecap: square"/>
   </g>
   <g id="patch_5">
    <path d="M 57.6 307.584 
L 414.72 307.584 
" style="fill: none; stroke: #000000; stroke-width: 0.8; stroke-linejoin: miter; stroke-linecap: square"/>
   </g>
   <g id="patch_6">
    <path d="M 57.6 41.472 
L 414.72 41.472 
" style="fill: none; stroke: #000000; stroke-width: 0.8; stroke-linejoin: miter; stroke-linecap: square"/>
   </g>
  </g>
 </g>
 <defs>
  <clipPath id="p5da5819bc2">
   <rect x="57.6" y="41.472" width="357.12" height="266.112"/>
  </clipPath>
 </defs>
</svg>
