<?xml version="1.0" encoding="utf-8" standalone="no"?>
<!DOCTYPE svg PUBLIC "-//W3C//DTD SVG 1.1//EN"
  "http://www.w3.org/Graphics/SVG/1.1/DTD/svg11.dtd">
<svg xmlns:xlink="http://www.w3.org/1999/xlink" width="460.8pt" height="345.6pt" viewBox="0 0 460.8 345.6" xmlns="http://www.w3.org/2000/svg" version="1.1">
 <metadata>
  <rdf:RDF xmlns:dc="http://purl.org/dc/elements/1.1/" xmlns:cc="http://creativecommons.org/ns#" xmlns:rdf="http://www.w3.org/1999/02/22-rdf-syntax-ns#">
   <cc:Work>
    <dc:type rdf:resource="http://purl.org/dc/dcmitype/StillImage"/>
    <dc:date>2023-04-04T01:12:40.954773</dc:date>
    <dc:format>image/svg+xml</dc:format>
    <dc:creator>
     <cc:Agent>
      <dc:title>Matplotlib v3.5.2, https://matplotlib.org/</dc:title>
     </cc:Agent>
    </dc:creator>
   </cc:Work>
  </rdf:RDF>
 </metadata>
 <defs>
  <style type="text/css">*{stroke-linejoin: round; stroke-linecap: butt}</style>
 </defs>
 <g id="figure_1">
  <g id="patch_1">
   <path d="M 0 345.6 
L 460.8 345.6 
L 460.8 0 
L 0 0 
z
" style="fill: #ffffff"/>
  </g>
  <g id="axes_1">
   <g id="patch_2">
    <path d="M 57.6 307.584 
L 414.72 307.584 
L 414.72 41.472 
L 57.6 41.472 
z
" style="fill: #ffffff"/>
   </g>
   <g id="matplotlib.axis_1">
    <g id="xtick_1">
     <g id="line2d_1">
      <defs>
       <path id="m0289573eab" d="M 0 0 
L 0 3.5 
" style="stroke: #000000; stroke-width: 0.8"/>
      </defs>
      <g>
       <use xlink:href="#m0289573eab" x="73.832727" y="307.584" style="stroke: #000000; stroke-width: 0.8"/>
      </g>
     </g>
     <g id="text_1">
      <!-- 0 -->
      <g transform="translate(70.651477 322.182437)scale(0.1 -0.1)">
       <defs>
        <path id="DejaVuSans-30" d="M 2034 4250 
Q 1547 4250 1301 3770 
Q 1056 3291 1056 2328 
Q 1056 1369 1301 889 
Q 1547 409 2034 409 
Q 2525 409 2770 889 
Q 3016 1369 3016 2328 
Q 3016 3291 2770 3770 
Q 2525 4250 2034 4250 
z
M 2034 4750 
Q 2819 4750 3233 4129 
Q 3647 3509 3647 2328 
Q 3647 1150 3233 529 
Q 2819 -91 2034 -91 
Q 1250 -91 836 529 
Q 422 1150 422 2328 
Q 422 3509 836 4129 
Q 1250 4750 2034 4750 
z
" transform="scale(0.015625)"/>
       </defs>
       <use xlink:href="#DejaVuSans-30"/>
      </g>
     </g>
    </g>
    <g id="xtick_2">
     <g id="line2d_2">
      <g>
       <use xlink:href="#m0289573eab" x="141.076834" y="307.584" style="stroke: #000000; stroke-width: 0.8"/>
      </g>
     </g>
     <g id="text_2">
      <!-- 500 -->
      <g transform="translate(131.533084 322.182437)scale(0.1 -0.1)">
       <defs>
        <path id="DejaVuSans-35" d="M 691 4666 
L 3169 4666 
L 3169 4134 
L 1269 4134 
L 1269 2991 
Q 1406 3038 1543 3061 
Q 1681 3084 1819 3084 
Q 2600 3084 3056 2656 
Q 3513 2228 3513 1497 
Q 3513 744 3044 326 
Q 2575 -91 1722 -91 
Q 1428 -91 1123 -41 
Q 819 9 494 109 
L 494 744 
Q 775 591 1075 516 
Q 1375 441 1709 441 
Q 2250 441 2565 725 
Q 2881 1009 2881 1497 
Q 2881 1984 2565 2268 
Q 2250 2553 1709 2553 
Q 1456 2553 1204 2497 
Q 953 2441 691 2322 
L 691 4666 
z
" transform="scale(0.015625)"/>
       </defs>
       <use xlink:href="#DejaVuSans-35"/>
       <use xlink:href="#DejaVuSans-30" x="63.623047"/>
       <use xlink:href="#DejaVuSans-30" x="127.246094"/>
      </g>
     </g>
    </g>
    <g id="xtick_3">
     <g id="line2d_3">
      <g>
       <use xlink:href="#m0289573eab" x="208.32094" y="307.584" style="stroke: #000000; stroke-width: 0.8"/>
      </g>
     </g>
     <g id="text_3">
      <!-- 1000 -->
      <g transform="translate(195.59594 322.182437)scale(0.1 -0.1)">
       <defs>
        <path id="DejaVuSans-31" d="M 794 531 
L 1825 531 
L 1825 4091 
L 703 3866 
L 703 4441 
L 1819 4666 
L 2450 4666 
L 2450 531 
L 3481 531 
L 3481 0 
L 794 0 
L 794 531 
z
" transform="scale(0.015625)"/>
       </defs>
       <use xlink:href="#DejaVuSans-31"/>
       <use xlink:href="#DejaVuSans-30" x="63.623047"/>
       <use xlink:href="#DejaVuSans-30" x="127.246094"/>
       <use xlink:href="#DejaVuSans-30" x="190.869141"/>
      </g>
     </g>
    </g>
    <g id="xtick_4">
     <g id="line2d_4">
      <g>
       <use xlink:href="#m0289573eab" x="275.565046" y="307.584" style="stroke: #000000; stroke-width: 0.8"/>
      </g>
     </g>
     <g id="text_4">
      <!-- 1500 -->
      <g transform="translate(262.840046 322.182437)scale(0.1 -0.1)">
       <use xlink:href="#DejaVuSans-31"/>
       <use xlink:href="#DejaVuSans-35" x="63.623047"/>
       <use xlink:href="#DejaVuSans-30" x="127.246094"/>
       <use xlink:href="#DejaVuSans-30" x="190.869141"/>
      </g>
     </g>
    </g>
    <g id="xtick_5">
     <g id="line2d_5">
      <g>
       <use xlink:href="#m0289573eab" x="342.809153" y="307.584" style="stroke: #000000; stroke-width: 0.8"/>
      </g>
     </g>
     <g id="text_5">
      <!-- 2000 -->
      <g transform="translate(330.084153 322.182437)scale(0.1 -0.1)">
       <defs>
        <path id="DejaVuSans-32" d="M 1228 531 
L 3431 531 
L 3431 0 
L 469 0 
L 469 531 
Q 828 903 1448 1529 
Q 2069 2156 2228 2338 
Q 2531 2678 2651 2914 
Q 2772 3150 2772 3378 
Q 2772 3750 2511 3984 
Q 2250 4219 1831 4219 
Q 1534 4219 1204 4116 
Q 875 4013 500 3803 
L 500 4441 
Q 881 4594 1212 4672 
Q 1544 4750 1819 4750 
Q 2544 4750 2975 4387 
Q 3406 4025 3406 3419 
Q 3406 3131 3298 2873 
Q 3191 2616 2906 2266 
Q 2828 2175 2409 1742 
Q 1991 1309 1228 531 
z
" transform="scale(0.015625)"/>
       </defs>
       <use xlink:href="#DejaVuSans-32"/>
       <use xlink:href="#DejaVuSans-30" x="63.623047"/>
       <use xlink:href="#DejaVuSans-30" x="127.246094"/>
       <use xlink:href="#DejaVuSans-30" x="190.869141"/>
      </g>
     </g>
    </g>
    <g id="xtick_6">
     <g id="line2d_6">
      <g>
       <use xlink:href="#m0289573eab" x="410.053259" y="307.584" style="stroke: #000000; stroke-width: 0.8"/>
      </g>
     </g>
     <g id="text_6">
      <!-- 2500 -->
      <g transform="translate(397.328259 322.182437)scale(0.1 -0.1)">
       <use xlink:href="#DejaVuSans-32"/>
       <use xlink:href="#DejaVuSans-35" x="63.623047"/>
       <use xlink:href="#DejaVuSans-30" x="127.246094"/>
       <use xlink:href="#DejaVuSans-30" x="190.869141"/>
      </g>
     </g>
    </g>
   </g>
   <g id="matplotlib.axis_2">
    <g id="ytick_1">
     <g id="line2d_7">
      <defs>
       <path id="m6e39a68bab" d="M 0 0 
L -3.5 0 
" style="stroke: #000000; stroke-width: 0.8"/>
      </defs>
      <g>
       <use xlink:href="#m6e39a68bab" x="57.6" y="275.926422" style="stroke: #000000; stroke-width: 0.8"/>
      </g>
     </g>
     <g id="text_7">
      <!-- 100 -->
      <g transform="translate(31.5125 279.725641)scale(0.1 -0.1)">
       <use xlink:href="#DejaVuSans-31"/>
       <use xlink:href="#DejaVuSans-30" x="63.623047"/>
       <use xlink:href="#DejaVuSans-30" x="127.246094"/>
      </g>
     </g>
    </g>
    <g id="ytick_2">
     <g id="line2d_8">
      <g>
       <use xlink:href="#m6e39a68bab" x="57.6" y="229.072596" style="stroke: #000000; stroke-width: 0.8"/>
      </g>
     </g>
     <g id="text_8">
      <!-- 200 -->
      <g transform="translate(31.5125 232.871814)scale(0.1 -0.1)">
       <use xlink:href="#DejaVuSans-32"/>
       <use xlink:href="#DejaVuSans-30" x="63.623047"/>
       <use xlink:href="#DejaVuSans-30" x="127.246094"/>
      </g>
     </g>
    </g>
    <g id="ytick_3">
     <g id="line2d_9">
      <g>
       <use xlink:href="#m6e39a68bab" x="57.6" y="182.218769" style="stroke: #000000; stroke-width: 0.8"/>
      </g>
     </g>
     <g id="text_9">
      <!-- 300 -->
      <g transform="translate(31.5125 186.017988)scale(0.1 -0.1)">
       <defs>
        <path id="DejaVuSans-33" d="M 2597 2516 
Q 3050 2419 3304 2112 
Q 3559 1806 3559 1356 
Q 3559 666 3084 287 
Q 2609 -91 1734 -91 
Q 1441 -91 1130 -33 
Q 819 25 488 141 
L 488 750 
Q 750 597 1062 519 
Q 1375 441 1716 441 
Q 2309 441 2620 675 
Q 2931 909 2931 1356 
Q 2931 1769 2642 2001 
Q 2353 2234 1838 2234 
L 1294 2234 
L 1294 2753 
L 1863 2753 
Q 2328 2753 2575 2939 
Q 2822 3125 2822 3475 
Q 2822 3834 2567 4026 
Q 2313 4219 1838 4219 
Q 1578 4219 1281 4162 
Q 984 4106 628 3988 
L 628 4550 
Q 988 4650 1302 4700 
Q 1616 4750 1894 4750 
Q 2613 4750 3031 4423 
Q 3450 4097 3450 3541 
Q 3450 3153 3228 2886 
Q 3006 2619 2597 2516 
z
" transform="scale(0.015625)"/>
       </defs>
       <use xlink:href="#DejaVuSans-33"/>
       <use xlink:href="#DejaVuSans-30" x="63.623047"/>
       <use xlink:href="#DejaVuSans-30" x="127.246094"/>
      </g>
     </g>
    </g>
    <g id="ytick_4">
     <g id="line2d_10">
      <g>
       <use xlink:href="#m6e39a68bab" x="57.6" y="135.364942" style="stroke: #000000; stroke-width: 0.8"/>
      </g>
     </g>
     <g id="text_10">
      <!-- 400 -->
      <g transform="translate(31.5125 139.164161)scale(0.1 -0.1)">
       <defs>
        <path id="DejaVuSans-34" d="M 2419 4116 
L 825 1625 
L 2419 1625 
L 2419 4116 
z
M 2253 4666 
L 3047 4666 
L 3047 1625 
L 3713 1625 
L 3713 1100 
L 3047 1100 
L 3047 0 
L 2419 0 
L 2419 1100 
L 313 1100 
L 313 1709 
L 2253 4666 
z
" transform="scale(0.015625)"/>
       </defs>
       <use xlink:href="#DejaVuSans-34"/>
       <use xlink:href="#DejaVuSans-30" x="63.623047"/>
       <use xlink:href="#DejaVuSans-30" x="127.246094"/>
      </g>
     </g>
    </g>
    <g id="ytick_5">
     <g id="line2d_11">
      <g>
       <use xlink:href="#m6e39a68bab" x="57.6" y="88.511115" style="stroke: #000000; stroke-width: 0.8"/>
      </g>
     </g>
     <g id="text_11">
      <!-- 500 -->
      <g transform="translate(31.5125 92.310334)scale(0.1 -0.1)">
       <use xlink:href="#DejaVuSans-35"/>
       <use xlink:href="#DejaVuSans-30" x="63.623047"/>
       <use xlink:href="#DejaVuSans-30" x="127.246094"/>
      </g>
     </g>
    </g>
    <g id="ytick_6">
     <g id="line2d_12">
      <g>
       <use xlink:href="#m6e39a68bab" x="57.6" y="41.657289" style="stroke: #000000; stroke-width: 0.8"/>
      </g>
     </g>
     <g id="text_12">
      <!-- 600 -->
      <g transform="translate(31.5125 45.456507)scale(0.1 -0.1)">
       <defs>
        <path id="DejaVuSans-36" d="M 2113 2584 
Q 1688 2584 1439 2293 
Q 1191 2003 1191 1497 
Q 1191 994 1439 701 
Q 1688 409 2113 409 
Q 2538 409 2786 701 
Q 3034 994 3034 1497 
Q 3034 2003 2786 2293 
Q 2538 2584 2113 2584 
z
M 3366 4563 
L 3366 3988 
Q 3128 4100 2886 4159 
Q 2644 4219 2406 4219 
Q 1781 4219 1451 3797 
Q 1122 3375 1075 2522 
Q 1259 2794 1537 2939 
Q 1816 3084 2150 3084 
Q 2853 3084 3261 2657 
Q 3669 2231 3669 1497 
Q 3669 778 3244 343 
Q 2819 -91 2113 -91 
Q 1303 -91 875 529 
Q 447 1150 447 2328 
Q 447 3434 972 4092 
Q 1497 4750 2381 4750 
Q 2619 4750 2861 4703 
Q 3103 4656 3366 4563 
z
" transform="scale(0.015625)"/>
       </defs>
       <use xlink:href="#DejaVuSans-36"/>
       <use xlink:href="#DejaVuSans-30" x="63.623047"/>
       <use xlink:href="#DejaVuSans-30" x="127.246094"/>
      </g>
     </g>
    </g>
   </g>
   <g id="line2d_13">
    <path d="M 73.832727 278.936312 
L 74.101704 278.397962 
L 74.236192 277.309547 
L 74.37068 278.254121 
L 74.505168 277.771526 
L 74.639657 278.361416 
L 74.774145 272.019282 
L 74.908633 245.446603 
L 75.177609 243.983358 
L 75.312098 244.527799 
L 75.446586 244.579338 
L 75.581074 245.428798 
L 75.715562 244.687571 
L 75.85005 244.666018 
L 76.253515 239.780101 
L 76.522492 273.158298 
L 76.65698 273.465191 
L 76.925956 271.792509 
L 77.060444 263.113306 
L 77.194933 265.312157 
L 77.463909 265.374472 
L 77.598397 266.927208 
L 77.732885 261.707223 
L 77.867374 248.567536 
L 78.405327 103.099991 
L 78.674303 102.19665 
L 78.808791 109.192395 
L 78.943279 104.485459 
L 79.481232 156.132432 
L 79.750209 225.104545 
L 80.019185 259.133542 
L 80.153673 261.215258 
L 80.288161 257.457112 
L 80.42265 267.645477 
L 80.557138 267.219576 
L 80.826114 269.677059 
L 80.960603 267.187715 
L 81.095091 257.079939 
L 81.364067 166.116514 
L 81.498555 178.171535 
L 81.767532 159.154504 
L 82.036508 166.997366 
L 82.170996 163.958427 
L 82.305485 158.103104 
L 83.112414 256.611401 
L 83.650367 282.271836 
L 83.784855 282.291983 
L 83.919343 283.7899 
L 84.053831 283.978253 
L 84.18832 281.923244 
L 84.322808 274.843162 
L 84.726273 186.512922 
L 84.860761 178.021135 
L 84.995249 182.03557 
L 85.129737 167.45138 
L 85.264225 175.822285 
L 85.398714 176.55461 
L 85.66769 184.684686 
L 85.802178 193.279083 
L 86.340131 258.694522 
L 86.474619 260.667068 
L 86.609107 265.478956 
L 86.878084 282.646198 
L 87.012572 284.852076 
L 87.14706 284.532065 
L 87.281549 285.992967 
L 87.416037 285.897854 
L 87.550525 285.102744 
L 87.819501 258.150081 
L 87.95399 258.292985 
L 88.088478 252.720659 
L 88.222966 254.151106 
L 88.357454 253.408473 
L 88.491942 250.117461 
L 88.626431 252.895424 
L 88.760919 246.041646 
L 88.895407 248.861309 
L 89.029895 248.859904 
L 89.164384 251.369395 
L 89.43336 272.243243 
L 89.567848 273.873288 
L 89.702336 273.385071 
L 89.836825 274.42382 
L 89.971313 259.578185 
L 90.105801 260.277244 
L 90.240289 261.790623 
L 90.374777 261.564787 
L 90.509266 262.775959 
L 90.643754 262.944164 
L 90.778242 265.001516 
L 90.91273 261.843099 
L 91.047218 252.103594 
L 91.181707 250.956144 
L 91.316195 244.163745 
L 91.450683 248.509437 
L 91.585171 246.582808 
L 91.71966 248.051207 
L 91.854148 248.272825 
L 92.123124 251.196036 
L 92.257612 250.634727 
L 92.526589 256.11803 
L 92.795565 262.58339 
L 92.930053 263.519529 
L 93.064542 262.401597 
L 93.19903 272.220285 
L 93.468006 272.342573 
L 93.602495 273.38226 
L 93.736983 272.172494 
L 93.871471 269.69908 
L 94.005959 264.582642 
L 94.6784 159.436096 
L 94.812888 155.124607 
L 95.081865 166.753258 
L 95.216353 161.638226 
L 95.350841 150.59103 
L 96.023282 260.987548 
L 96.157771 261.703006 
L 96.426747 265.554391 
L 96.561235 265.227351 
L 96.695723 265.303254 
L 96.830212 267.149764 
L 96.9647 266.524265 
L 97.099188 265.124273 
L 97.233676 256.819432 
L 97.368164 239.594091 
L 97.502653 199.360241 
L 97.637141 192.400574 
L 97.771629 177.225088 
L 97.906117 185.459648 
L 98.040606 178.87528 
L 98.175094 179.571528 
L 98.309582 174.354354 
L 98.44407 175.965189 
L 98.713047 187.116399 
L 98.982023 228.258745 
L 99.250999 262.440954 
L 99.385488 267.037783 
L 99.519976 267.777605 
L 99.654464 277.39529 
L 99.788952 277.407472 
L 99.923441 276.425416 
L 100.192417 277.639867 
L 100.326905 277.71905 
L 100.461393 277.076684 
L 100.595882 277.474941 
L 100.73037 278.287855 
L 100.864858 276.778694 
L 100.999346 277.912556 
L 101.133834 277.021865 
L 101.268323 274.848784 
L 101.402811 267.957524 
L 101.537299 272.14813 
L 101.806276 261.960234 
L 101.940764 264.079901 
L 102.075252 263.934185 
L 102.20974 264.569992 
L 102.344228 266.903312 
L 102.478717 272.610577 
L 102.613205 270.793586 
L 102.747693 276.355603 
L 102.882181 263.154538 
L 103.016669 263.18265 
L 103.151158 267.995475 
L 103.285646 267.780416 
L 103.554622 263.679301 
L 103.68911 259.570689 
L 103.823599 242.477007 
L 104.092575 181.395547 
L 104.227063 160.321633 
L 104.361552 167.349707 
L 104.630528 142.949171 
L 105.033993 157.974725 
L 105.168481 168.549165 
L 105.706434 250.030312 
L 105.840922 249.910367 
L 105.97541 258.443386 
L 106.109898 274.562508 
L 106.378875 277.690938 
L 106.513363 277.67735 
L 106.647851 279.793269 
L 106.782339 279.52995 
L 106.916828 280.620239 
L 107.320292 243.76455 
L 107.45478 250.693763 
L 107.589269 248.208167 
L 107.723757 248.299063 
L 108.26171 243.332558 
L 108.396198 239.990474 
L 108.530686 242.207129 
L 108.934151 273.214523 
L 109.068639 274.700726 
L 109.203127 273.654012 
L 109.337615 269.24413 
L 109.606592 270.763131 
L 109.875568 271.795321 
L 110.144545 272.824231 
L 110.413521 271.610248 
L 110.548009 271.47812 
L 110.951474 267.506321 
L 111.085962 268.657051 
L 111.22045 268.316424 
L 111.623915 262.633055 
L 111.758403 263.131111 
L 112.02738 266.839123 
L 112.430844 268.405446 
L 112.565333 258.364203 
L 112.834309 262.481717 
L 112.968797 262.994766 
L 113.103285 264.473942 
L 113.237774 264.648706 
L 113.50675 267.213485 
L 113.641238 268.026867 
L 114.313679 257.020435 
L 114.448168 256.666688 
L 114.582656 255.214688 
L 114.98612 244.604639 
L 115.524073 255.440992 
L 115.658561 255.979811 
L 115.927538 258.15992 
L 116.062026 256.902363 
L 116.196514 262.874352 
L 116.331002 262.465787 
L 116.465491 263.06411 
L 116.599979 253.510146 
L 117.137932 78.591692 
L 117.406908 64.199602 
L 117.810373 80.39041 
L 118.213837 146.174589 
L 118.482814 207.199824 
L 118.75179 240.906467 
L 118.886279 242.408132 
L 119.289743 250.233658 
L 119.424231 251.621937 
L 119.55872 254.334773 
L 119.693208 254.644946 
L 119.827696 245.231543 
L 120.365649 91.178504 
L 120.634625 73.002967 
L 120.769114 76.616803 
L 120.903602 70.332299 
L 121.03809 71.632493 
L 121.441555 133.729744 
L 121.710531 199.15549 
L 121.845019 226.743023 
L 122.248484 237.477235 
L 122.51746 252.666777 
L 122.651948 252.8228 
L 122.786437 254.525 
L 122.920925 253.212624 
L 123.055413 245.223578 
L 123.727854 60.326196 
L 123.862342 53.568 
L 124.534783 106.561552 
L 125.072736 244.539512 
L 125.207225 249.6016 
L 125.341713 250.055145 
L 125.476201 250.009697 
L 125.745177 263.323212 
L 125.879666 264.729763 
L 126.014154 264.954662 
L 126.28313 251.786394 
L 126.821083 92.260827 
L 126.955571 74.295664 
L 127.09006 80.754933 
L 127.359036 104.776421 
L 127.493524 107.167841 
L 127.762501 125.275908 
L 127.896989 147.598945 
L 128.300453 242.955853 
L 128.434942 248.635943 
L 128.56943 246.847063 
L 128.703918 254.190464 
L 128.838406 254.899362 
L 129.241871 261.45187 
L 129.510847 241.176345 
L 130.0488 82.883034 
L 130.183288 73.965813 
L 130.317777 85.633822 
L 130.452265 113.852008 
L 130.586753 112.952883 
L 130.721241 109.382153 
L 130.855729 115.638076 
L 131.124706 167.792007 
L 131.393682 232.058122 
L 131.662659 254.673995 
L 131.931635 254.481894 
L 132.066123 254.303381 
L 132.3351 265.338395 
L 132.469588 265.193148 
L 132.604076 265.290135 
L 132.738564 265.249372 
L 133.007541 253.608071 
L 133.276517 243.368167 
L 133.679982 237.907353 
L 133.81447 236.750064 
L 133.948958 231.758257 
L 134.486911 241.427481 
L 134.755888 248.365127 
L 134.890376 248.252678 
L 135.697305 262.19544 
L 135.831793 266.845682 
L 135.966282 267.442131 
L 136.10077 265.501446 
L 136.235258 266.973125 
L 136.369746 266.704652 
L 136.504234 262.495773 
L 136.638723 262.340218 
L 136.907699 260.446387 
L 137.311164 249.793232 
L 137.445652 250.292225 
L 137.58014 247.666537 
L 137.983605 254.335711 
L 138.118093 253.452984 
L 138.252581 255.248892 
L 138.387069 259.645655 
L 138.521558 258.4387 
L 138.656046 258.635486 
L 138.925022 263.231378 
L 139.193999 247.331532 
L 139.731951 81.068385 
L 139.86644 72.339986 
L 140.269904 97.799887 
L 140.538881 121.7108 
L 140.673369 128.651726 
L 140.807857 142.708342 
L 141.076834 221.124781 
L 141.480298 253.612756 
L 142.018251 261.873086 
L 142.152739 261.419072 
L 142.421716 238.184259 
L 142.959669 90.855681 
L 143.094157 83.596149 
L 143.228645 83.118709 
L 143.363133 93.12856 
L 143.497621 84.050163 
L 143.63211 89.068676 
L 144.573527 254.834235 
L 144.708015 258.250348 
L 144.842504 258.422301 
L 145.11148 260.617403 
L 145.245968 262.715517 
L 145.380456 258.723571 
L 145.783921 198.845786 
L 146.052897 109.085568 
L 146.187386 90.367464 
L 146.456362 105.358346 
L 146.59085 116.442087 
L 146.725339 110.871167 
L 146.859827 118.129293 
L 146.994315 113.158571 
L 147.128803 125.748194 
L 147.532268 230.769641 
L 147.801244 256.241724 
L 147.935732 256.439916 
L 148.204709 261.602271 
L 148.339197 261.581186 
L 148.473685 262.074557 
L 148.742662 261.042836 
L 148.87715 243.718633 
L 149.280615 117.996229 
L 149.415103 114.038954 
L 149.549591 105.140476 
L 149.684079 106.370857 
L 150.087544 138.422154 
L 150.222032 130.884779 
L 150.35652 136.293585 
L 150.894473 248.814924 
L 151.028961 257.802425 
L 151.16345 256.863943 
L 151.835891 264.87501 
L 151.970379 263.62823 
L 152.104867 243.099694 
L 152.508332 112.107171 
L 152.64282 115.153607 
L 152.911796 103.538075 
L 153.046285 117.403528 
L 153.180773 115.932786 
L 153.449749 149.714395 
L 153.718726 189.840012 
L 153.987702 245.328999 
L 154.12219 262.038011 
L 154.256678 263.389275 
L 154.525655 267.174128 
L 154.794631 268.843998 
L 155.063608 271.729725 
L 155.198096 273.338686 
L 155.332584 272.708033 
L 155.467072 268.414817 
L 155.601561 258.148675 
L 155.736049 257.304838 
L 155.870537 254.496888 
L 156.005025 256.593128 
L 156.274002 254.733968 
L 156.40849 255.259668 
L 156.542978 256.488175 
L 156.677466 255.315424 
L 157.215419 263.164377 
L 157.349907 265.130364 
L 157.484396 264.158147 
L 157.618884 264.912962 
L 157.88786 268.025462 
L 158.022348 268.496811 
L 158.291325 271.435952 
L 158.560301 275.631712 
L 158.694789 274.096781 
L 158.829278 275.041822 
L 158.963766 274.653404 
L 159.232742 271.993512 
L 159.367231 272.26995 
L 159.501719 270.325985 
L 160.039672 256.524253 
L 160.308648 256.778201 
L 160.443136 262.382855 
L 160.577624 262.105012 
L 160.712113 260.188691 
L 160.846601 260.876505 
L 160.981089 262.338813 
L 161.250066 266.020586 
L 161.519042 266.952978 
L 161.788018 250.524152 
L 162.460459 83.300501 
L 162.594948 82.97065 
L 162.729436 81.540672 
L 162.998412 100.739964 
L 163.132901 109.506315 
L 163.401877 149.947727 
L 163.670853 219.263747 
L 164.074318 252.671931 
L 164.208806 253.782367 
L 164.477783 266.184575 
L 164.612271 268.498685 
L 164.746759 263.890611 
L 165.015735 246.731803 
L 165.4192 119.576608 
L 165.553688 122.123582 
L 165.822665 108.509266 
L 165.957153 113.659438 
L 166.091641 110.63643 
L 166.360618 99.412127 
L 166.495106 105.481571 
L 166.89857 218.382427 
L 167.033059 225.214183 
L 167.302035 243.234633 
L 167.974476 261.328176 
L 168.108964 255.768501 
L 168.243453 242.037987 
L 168.377941 204.72641 
L 168.646917 105.311024 
L 168.781405 106.568112 
L 168.915894 102.133397 
L 169.050382 103.407353 
L 169.18487 107.126609 
L 169.319358 92.107147 
L 169.453847 94.53558 
L 169.857311 146.838039 
L 170.126288 223.463256 
L 170.395264 253.659141 
L 170.529752 254.521252 
L 170.66424 257.889105 
L 170.798729 258.074646 
L 171.067705 260.355022 
L 171.202193 263.132517 
L 171.47117 241.783102 
L 172.009123 109.291725 
L 172.143611 107.746954 
L 172.412587 96.226067 
L 172.95054 128.07355 
L 173.622981 255.58905 
L 173.757469 259.498065 
L 173.891958 272.609172 
L 174.026446 271.698802 
L 174.160934 271.655696 
L 174.42991 273.155956 
L 174.698887 258.662193 
L 174.833375 241.882432 
L 175.102351 174.737618 
L 175.371328 142.034116 
L 175.505816 139.192431 
L 175.640304 149.15496 
L 175.774792 148.850879 
L 175.909281 150.231661 
L 176.043769 154.942345 
L 176.178257 154.640607 
L 176.312745 168.825134 
L 176.581722 235.135949 
L 176.850698 261.721279 
L 176.985186 259.276915 
L 177.254163 263.917318 
L 177.388651 263.874681 
L 177.792116 270.303026 
L 177.926604 271.175913 
L 178.19558 260.672691 
L 178.330069 260.241167 
L 178.599045 252.824206 
L 178.733533 252.269925 
L 178.868021 254.532497 
L 179.136998 251.091552 
L 179.271486 251.675819 
L 179.540462 249.238951 
L 179.809439 256.597813 
L 179.943927 263.725686 
L 180.212904 261.861372 
L 180.48188 271.53575 
L 180.616368 271.549338 
L 180.750856 271.914329 
L 180.885345 272.729586 
L 181.019833 272.814391 
L 181.692274 260.743908 
L 181.826762 262.014584 
L 181.96125 256.147079 
L 182.095738 257.894727 
L 182.364715 263.22763 
L 182.499203 264.48097 
L 182.633691 267.5677 
L 182.902668 266.765562 
L 183.171644 272.777845 
L 183.306132 274.166593 
L 183.440621 273.078178 
L 183.575109 270.820761 
L 183.844085 282.327124 
L 183.978573 283.259983 
L 184.113062 281.025056 
L 184.382038 269.858852 
L 184.919991 179.899973 
L 185.054479 183.838037 
L 185.188967 176.901797 
L 185.457944 180.687586 
L 185.592432 182.157859 
L 185.995897 219.184564 
L 186.264873 249.191629 
L 186.53385 264.644489 
L 186.802826 274.700726 
L 187.071802 284.995449 
L 187.206291 283.867209 
L 187.340779 284.979519 
L 187.475267 281.863271 
L 187.609755 274.019003 
L 188.01322 199.572489 
L 188.147708 183.488976 
L 188.282196 183.703567 
L 188.416684 182.763679 
L 188.551173 186.012055 
L 188.685661 192.290468 
L 188.820149 187.963517 
L 188.954637 192.313426 
L 189.089126 200.525028 
L 189.627078 261.334267 
L 189.761567 263.873276 
L 189.896055 269.008455 
L 190.030543 266.619378 
L 190.299519 268.415754 
L 190.434008 267.266898 
L 190.971961 270.625849 
L 191.106449 267.239723 
L 191.240937 266.763688 
L 191.375425 267.193806 
L 191.509913 262.849988 
L 191.644402 264.369458 
L 191.913378 263.127831 
L 192.182354 257.599548 
L 192.316843 257.941581 
L 192.451331 257.452896 
L 192.585819 258.748404 
L 192.720307 264.407878 
L 192.989284 265.641539 
L 193.392748 263.005543 
L 193.661725 265.832703 
L 193.796213 266.356997 
L 194.065189 258.620493 
L 194.603142 156.851639 
L 194.73763 152.03366 
L 194.872119 142.271665 
L 195.006607 143.817373 
L 195.141095 148.470895 
L 195.275583 141.213237 
L 195.54456 154.351518 
L 195.948024 246.586556 
L 196.217001 256.726193 
L 196.351489 258.616276 
L 196.485977 267.909264 
L 196.620465 267.269241 
L 196.889442 267.815556 
L 197.02393 268.922712 
L 197.158418 267.225667 
L 197.292907 261.024094 
L 197.830859 193.611745 
L 197.965348 195.879471 
L 198.099836 192.624535 
L 198.234324 196.944927 
L 198.5033 183.87224 
L 198.772277 197.410654 
L 199.31023 268.572714 
L 199.713694 277.512424 
L 199.848183 276.365911 
L 200.117159 277.079964 
L 200.251647 275.330442 
L 200.386135 269.661129 
L 200.520624 269.265682 
L 200.655112 256.553302 
L 200.7896 210.225644 
L 200.924088 208.292924 
L 201.058576 196.830603 
L 201.193065 196.4792 
L 201.327553 193.845078 
L 201.462041 195.976458 
L 201.731018 184.400283 
L 201.865506 185.735617 
L 202.134482 208.000556 
L 202.403459 260.459506 
L 202.806923 270.072505 
L 203.0759 261.761574 
L 203.210388 266.00653 
L 203.344876 266.130224 
L 203.748341 256.931413 
L 203.882829 239.873808 
L 204.151805 179.087528 
L 204.420782 162.927643 
L 204.55527 157.405451 
L 204.689758 160.777052 
L 204.824246 154.400715 
L 204.958735 170.120642 
L 205.093223 170.362408 
L 205.765664 256.36167 
L 205.900152 256.863006 
L 206.03464 260.591165 
L 206.169129 275.158957 
L 206.303617 275.630775 
L 206.572593 279.49481 
L 206.84157 280.290856 
L 207.110546 271.080331 
L 207.379522 262.071277 
L 207.514011 261.210104 
L 207.917475 269.174317 
L 208.051964 268.932552 
L 208.32094 262.692091 
L 208.589916 264.263568 
L 208.858893 272.162655 
L 208.993381 275.746972 
L 209.127869 276.319526 
L 209.262357 275.785861 
L 209.396846 270.04205 
L 209.531334 271.118751 
L 209.80031 270.711592 
L 209.934799 271.683808 
L 210.203775 259.733271 
L 211.010704 107.544545 
L 211.279681 132.681624 
L 211.683145 165.156011 
L 212.221098 251.137 
L 212.355586 253.554189 
L 212.759051 268.50665 
L 212.893539 268.303305 
L 213.028027 268.401698 
L 213.162516 271.00068 
L 213.431492 253.631498 
L 213.56598 216.270725 
L 213.834957 133.936369 
L 213.969445 138.435273 
L 214.103933 137.364664 
L 214.238421 140.270069 
L 214.910862 177.868391 
L 215.448815 256.649821 
L 215.583303 261.522619 
L 215.717792 262.128908 
L 216.121256 266.311549 
L 216.255745 267.250968 
L 216.390233 269.596939 
L 216.524721 265.66356 
L 216.659209 258.285488 
L 217.062674 147.317822 
L 217.197162 149.194318 
L 217.33165 149.273501 
L 217.466138 160.524979 
L 217.600627 159.265079 
L 217.735115 147.630806 
L 217.869603 152.764111 
L 218.273068 194.170243 
L 218.542044 251.8965 
L 218.811021 268.382488 
L 218.945509 261.101403 
L 219.483462 271.62243 
L 219.61795 273.387414 
L 219.886926 259.892106 
L 220.290391 160.191379 
L 220.693856 148.747332 
L 220.828344 159.21354 
L 220.962832 155.365435 
L 221.231808 182.015892 
L 221.500785 195.624586 
L 221.769761 251.762498 
L 222.038738 267.105721 
L 222.173226 266.366836 
L 222.307714 267.569105 
L 222.576691 273.507828 
L 222.845667 276.097907 
L 222.980155 274.456618 
L 223.114643 276.295162 
L 223.38362 256.123653 
L 223.518108 259.916938 
L 223.652596 259.763258 
L 223.921573 252.930096 
L 224.190549 252.269925 
L 224.325037 254.713352 
L 224.459525 254.096287 
L 224.728502 250.307687 
L 225.131967 257.444462 
L 225.266455 255.985434 
L 225.535431 257.430874 
L 225.669919 256.141926 
L 226.073384 265.732435 
L 226.34236 268.70859 
L 226.476849 268.637841 
L 226.745825 265.547831 
L 226.880313 267.790724 
L 227.014802 268.029678 
L 227.14929 267.737779 
L 227.283778 266.342941 
L 227.418266 267.99079 
L 227.552754 268.117295 
L 227.687243 267.950964 
L 227.956219 266.861144 
L 228.090707 272.577311 
L 228.225195 272.615731 
L 228.359684 273.698523 
L 228.494172 272.939022 
L 228.62866 273.893435 
L 228.763148 273.780986 
L 228.897637 271.532002 
L 229.301101 272.420351 
L 229.435589 266.312954 
L 229.570078 252.47046 
L 230.242519 93.796696 
L 230.377007 79.213442 
L 230.511495 108.680751 
L 230.780471 116.495969 
L 231.049448 143.495487 
L 231.587401 250.348918 
L 231.856377 261.380183 
L 232.125354 266.11242 
L 232.39433 270.68957 
L 232.528818 269.889775 
L 232.797795 253.078154 
L 232.932283 217.427546 
L 233.201259 131.75954 
L 233.335748 123.72364 
L 233.470236 133.844067 
L 233.604724 134.062406 
L 233.739212 146.63563 
L 233.8737 132.15077 
L 234.008189 138.758565 
L 234.815118 260.808567 
L 234.949606 260.546654 
L 235.218583 266.3495 
L 235.622047 273.954813 
L 235.756535 273.367266 
L 236.025512 260.927575 
L 236.563465 127.675292 
L 236.832441 115.672747 
L 237.63937 197.933074 
L 237.908347 255.010874 
L 238.177323 262.961032 
L 238.849764 277.623468 
L 238.984252 276.812897 
L 239.118741 273.079584 
L 239.253229 259.417477 
L 239.791182 126.918603 
L 240.194646 144.349632 
L 240.463623 163.148324 
L 240.732599 176.374223 
L 241.270552 252.522467 
L 241.674017 258.297202 
L 241.942993 271.018484 
L 242.077481 277.406535 
L 242.21197 276.791344 
L 242.480946 259.131668 
L 242.884411 149.308641 
L 243.018899 157.045613 
L 243.153387 154.837393 
L 243.287875 144.047425 
L 243.422363 151.891224 
L 243.556852 149.127785 
L 243.825828 165.482582 
L 244.229293 236.236077 
L 244.498269 258.237697 
L 244.767246 263.420199 
L 245.17071 271.142647 
L 245.305198 271.992575 
L 245.439687 271.702081 
L 245.574175 270.494658 
L 245.708663 259.236621 
L 245.843151 264.590608 
L 246.112128 261.660369 
L 246.381104 256.571107 
L 246.515592 256.538309 
L 247.188033 266.602979 
L 247.322522 267.001237 
L 247.45701 267.85304 
L 247.591498 267.504916 
L 247.725986 270.61273 
L 247.860475 269.200087 
L 248.129451 270.500281 
L 248.263939 269.632548 
L 248.398427 270.303026 
L 248.532916 270.152625 
L 248.667404 272.063324 
L 248.801892 271.966337 
L 249.205357 273.477841 
L 249.339845 273.592165 
L 249.608821 272.660711 
L 249.743309 272.790027 
L 250.012286 271.933071 
L 250.146774 270.935084 
L 250.281262 271.002085 
L 250.415751 270.449679 
L 250.550239 269.386097 
L 250.819215 269.680807 
L 250.953703 270.445462 
L 251.088192 269.329872 
L 251.357168 270.564939 
L 251.491656 279.302241 
L 251.626144 278.82152 
L 251.760633 279.244142 
L 251.895121 279.087182 
L 252.164097 267.065427 
L 252.70205 141.972737 
L 252.836538 161.3482 
L 252.971027 157.96676 
L 253.240003 170.640251 
L 253.374491 171.968557 
L 253.508979 169.096418 
L 253.777956 201.317794 
L 254.046932 251.738603 
L 254.315909 272.676172 
L 254.719373 280.878872 
L 254.853862 280.643197 
L 255.122838 282.344928 
L 255.391814 261.958828 
L 255.660791 170.434563 
L 255.795279 173.818815 
L 256.198744 158.432487 
L 256.333232 162.038826 
L 256.46772 159.422977 
L 256.602208 160.597134 
L 257.409138 253.939327 
L 257.812602 261.274294 
L 258.081579 276.20286 
L 258.216067 277.247232 
L 258.350555 276.531305 
L 258.619532 262.619936 
L 258.888508 175.150869 
L 259.022996 176.004077 
L 259.157484 167.116844 
L 259.291973 166.551786 
L 259.426461 151.350531 
L 259.695437 164.799922 
L 259.829925 153.872204 
L 259.964414 162.779116 
L 260.771343 256.953434 
L 261.040319 259.150878 
L 261.309296 266.512552 
L 261.443784 269.667688 
L 261.71276 266.806794 
L 261.847249 254.642603 
L 262.116225 168.0989 
L 262.250713 172.189707 
L 262.654178 146.244401 
L 262.788666 153.411162 
L 262.923154 148.728591 
L 263.326619 183.233154 
L 263.461107 193.931289 
L 263.864572 241.812151 
L 264.268036 259.524303 
L 264.402525 258.780733 
L 264.671501 262.147649 
L 264.805989 262.023955 
L 264.940478 261.090627 
L 265.074966 253.661484 
L 265.209454 234.896058 
L 265.612919 122.698947 
L 265.881895 104.919326 
L 266.016383 114.246517 
L 266.150871 114.118137 
L 266.28536 113.67818 
L 266.419848 118.224407 
L 266.688824 154.813966 
L 266.957801 232.178067 
L 267.226777 248.537549 
L 267.361265 247.141305 
L 267.495754 263.208888 
L 267.630242 262.898716 
L 267.76473 264.733512 
L 267.899218 265.038999 
L 268.168195 271.440169 
L 268.302683 272.308838 
L 268.437171 269.794194 
L 268.706147 272.284006 
L 268.975124 268.853369 
L 269.2441 267.003111 
L 269.916541 252.775478 
L 270.320006 254.630421 
L 270.588982 259.427784 
L 270.723471 273.267468 
L 270.857959 274.288413 
L 270.992447 272.83735 
L 271.126935 273.704614 
L 271.261424 273.733663 
L 271.395912 273.550933 
L 271.799376 276.277826 
L 271.933865 274.91766 
L 272.068353 275.266252 
L 272.202841 274.633257 
L 272.337329 274.865183 
L 272.471817 274.037276 
L 272.606306 271.911049 
L 272.740794 273.17048 
L 272.875282 272.853748 
L 273.00977 272.188893 
L 273.144258 269.896803 
L 273.278747 269.798879 
L 273.547723 272.723495 
L 273.682211 272.933869 
L 273.8167 273.605284 
L 273.951188 272.759104 
L 274.085676 283.218283 
L 274.354652 284.821621 
L 274.489141 283.277788 
L 274.758117 268.819634 
L 275.29607 164.193633 
L 275.565046 152.170941 
L 275.699535 152.502198 
L 275.834023 170.142195 
L 275.968511 172.384151 
L 276.102999 182.363079 
L 276.77544 260.295049 
L 277.447881 277.392479 
L 277.58237 280.729877 
L 277.716858 280.345675 
L 277.851346 276.023878 
L 277.985834 266.214093 
L 278.389299 206.758929 
L 278.523787 187.612113 
L 278.658275 185.648469 
L 278.792763 176.298319 
L 278.927252 188.217933 
L 279.06174 182.498486 
L 279.196228 184.553027 
L 279.330716 192.115234 
L 280.137646 270.488099 
L 280.272134 272.833133 
L 280.406622 264.621531 
L 280.54111 264.342282 
L 280.810087 265.493012 
L 280.944575 264.880633 
L 281.213551 257.098681 
L 281.348039 228.649506 
L 281.482528 159.401892 
L 281.617016 149.369551 
L 281.751504 126.374161 
L 281.885992 127.50615 
L 282.154969 140.783119 
L 282.289457 122.978665 
L 282.423945 126.99638 
L 282.558433 135.949678 
L 282.82741 183.5616 
L 283.096386 250.93834 
L 283.365363 257.454301 
L 283.499851 259.623633 
L 283.634339 258.963932 
L 283.768827 258.974239 
L 283.903316 259.160249 
L 284.037804 260.442638 
L 284.172292 260.569612 
L 284.441268 255.465356 
L 285.113709 142.168118 
L 285.248198 141.110627 
L 285.382686 136.651548 
L 285.517174 145.734631 
L 285.651662 142.68679 
L 285.78615 146.116021 
L 286.055127 198.333674 
L 286.324103 247.058374 
L 286.59308 256.57017 
L 286.727568 256.450692 
L 286.862056 275.063375 
L 286.996544 275.121474 
L 287.131033 274.160502 
L 287.265521 274.755545 
L 287.668985 271.289768 
L 287.803474 272.151878 
L 288.07245 271.29211 
L 288.206938 269.158387 
L 288.341427 269.104037 
L 288.475915 266.79836 
L 288.610403 266.433837 
L 288.744891 265.329492 
L 288.879379 268.108393 
L 289.013868 268.441992 
L 289.148356 265.680428 
L 289.417332 272.710376 
L 289.55182 273.876568 
L 289.820797 273.521416 
L 289.955285 274.297783 
L 290.089773 272.824699 
L 290.224262 274.344637 
L 290.35875 273.453477 
L 290.493238 274.416324 
L 290.627726 272.901539 
L 291.031191 255.238115 
L 291.300167 190.211095 
L 291.434655 184.724512 
L 291.569144 185.321429 
L 291.703632 189.313375 
L 291.972608 176.79169 
L 292.376073 189.642289 
L 293.048514 264.697903 
L 293.183002 265.922662 
L 293.31749 264.791142 
L 293.451979 265.529558 
L 293.586467 264.616377 
L 293.720955 267.048091 
L 293.855443 267.306724 
L 294.258908 243.805313 
L 294.527884 186.833871 
L 294.796861 155.707468 
L 294.931349 140.116857 
L 295.065837 139.985198 
L 295.200325 147.817284 
L 295.334814 142.197636 
L 295.60379 169.762679 
L 295.738278 183.998746 
L 296.141743 252.969453 
L 296.276231 252.095161 
L 296.410719 259.167277 
L 296.545208 276.534585 
L 296.948672 278.659875 
L 297.486625 280.590252 
L 297.621113 280.251031 
L 297.755601 280.247282 
L 298.024578 277.131503 
L 298.159066 276.983913 
L 298.428042 274.881114 
L 298.697019 271.125311 
L 298.831507 270.010658 
L 298.965995 269.871034 
L 299.100484 270.220095 
L 299.36946 273.935135 
L 299.503948 273.438016 
L 299.638436 274.9528 
L 299.772925 265.471928 
L 299.907413 268.8112 
L 300.041901 268.515084 
L 300.176389 269.365481 
L 300.310877 269.087169 
L 300.579854 258.319691 
L 301.252295 126.699795 
L 301.386783 126.767265 
L 301.521271 139.71532 
L 301.65576 132.901837 
L 301.790248 142.142348 
L 302.597177 248.929247 
L 302.731665 250.64972 
L 303.000642 262.827967 
L 303.13513 263.04818 
L 303.269618 263.519529 
L 303.404106 265.933438 
L 303.538595 266.344815 
L 303.807571 250.288946 
L 304.345524 162.173296 
L 304.6145 151.845307 
L 304.748988 159.930404 
L 304.883477 150.534337 
L 305.017965 156.502109 
L 306.093871 261.308028 
L 306.228359 262.299924 
L 306.497335 272.267139 
L 306.766312 273.277776 
L 306.9008 268.656583 
L 307.035288 258.312663 
L 307.304265 167.549773 
L 307.438753 174.676708 
L 307.842217 155.772126 
L 307.976706 162.692437 
L 308.111194 154.429764 
L 308.245682 159.30022 
L 308.649147 204.449036 
L 309.052611 259.76888 
L 309.590564 271.772831 
L 309.994029 273.444575 
L 310.128517 269.957245 
L 310.263005 257.575184 
L 310.531982 167.440603 
L 310.66647 168.570718 
L 310.935446 166.324077 
L 311.069934 157.146349 
L 311.204423 163.481924 
L 311.338911 162.214996 
L 311.473399 155.566907 
L 311.607887 168.459674 
L 311.876864 205.339258 
L 312.14584 246.881267 
L 312.414817 258.46775 
L 312.818281 266.918774 
L 312.952769 266.492873 
L 313.087258 268.343599 
L 313.221746 268.246612 
L 313.356234 269.794194 
L 313.625211 259.433875 
L 313.759699 251.688938 
L 313.894187 254.979482 
L 314.028675 252.497635 
L 314.163163 254.346018 
L 314.297652 251.63693 
L 314.566628 258.078394 
L 314.701116 258.799475 
L 314.970093 263.46471 
L 315.104581 263.427696 
L 315.239069 263.136733 
L 315.508045 266.014964 
L 315.642534 266.542069 
L 315.777022 266.217841 
L 316.180487 269.152296 
L 316.314975 268.720772 
L 316.718439 271.031603 
L 316.852928 271.27618 
L 316.987416 270.438434 
L 317.121904 270.502623 
L 317.256392 269.403433 
L 317.39088 269.5454 
L 317.525369 268.034832 
L 317.659857 268.937237 
L 317.928833 266.464292 
L 318.332298 262.796575 
L 318.466786 263.438941 
L 318.601274 262.94557 
L 318.735763 264.37508 
L 318.870251 264.214371 
L 319.139227 265.310282 
L 319.273715 274.96545 
L 319.67718 276.063236 
L 319.811668 273.531723 
L 319.946157 265.723533 
L 320.349621 145.970306 
L 320.484109 130.115439 
L 320.887574 156.893807 
L 321.022062 161.474706 
L 321.291039 175.986273 
L 321.425527 177.753599 
L 321.560015 195.856044 
L 321.828991 250.366254 
L 321.96348 258.305635 
L 322.097968 259.077786 
L 322.635921 275.47194 
L 322.770409 275.812568 
L 322.904897 275.165516 
L 323.173874 264.924675 
L 323.44285 171.207183 
L 323.577338 171.562335 
L 323.711826 171.760058 
L 323.980803 151.952602 
L 324.249779 155.426814 
L 324.384268 158.142462 
L 324.787732 193.721852 
L 325.056709 247.246258 
L 325.325685 256.348082 
L 325.863638 273.84377 
L 325.998126 275.578767 
L 326.132614 275.642957 
L 326.267103 272.488757 
L 326.401591 263.654468 
L 326.670567 164.148185 
L 326.805055 169.994606 
L 326.939544 171.145336 
L 327.20852 158.161203 
L 327.343008 166.155403 
L 327.611985 162.47035 
L 327.746473 167.241006 
L 328.149937 220.934555 
L 328.418914 251.214309 
L 328.68789 263.790344 
L 328.822379 266.198631 
L 328.956867 276.060893 
L 329.225843 276.990473 
L 329.360331 276.158817 
L 329.629308 263.561698 
L 330.032772 176.178374 
L 330.301749 165.04731 
L 330.570725 156.400436 
L 330.839702 177.853398 
L 330.97419 179.043485 
L 331.108678 181.738517 
L 331.781119 256.230948 
L 332.050096 263.26277 
L 332.184584 273.839553 
L 332.319072 274.778035 
L 332.45356 274.125361 
L 332.588049 275.094767 
L 332.857025 262.718329 
L 333.26049 175.558497 
L 333.394978 177.433119 
L 333.663954 162.795984 
L 333.798442 163.966392 
L 333.932931 167.664096 
L 334.336395 185.200078 
L 334.73986 251.690343 
L 335.143325 267.129616 
L 335.277813 266.934705 
L 335.412301 267.030286 
L 335.546789 267.310472 
L 335.681277 267.207394 
L 335.950254 269.741717 
L 336.084742 267.685771 
L 336.622695 251.525887 
L 336.757183 252.306003 
L 336.891671 250.510564 
L 337.295136 256.751025 
L 337.698601 261.396114 
L 337.833089 260.925701 
L 338.102065 264.949508 
L 338.236553 264.721798 
L 338.371042 265.347297 
L 338.50553 263.055208 
L 339.043483 266.155525 
L 339.446947 269.096072 
L 339.581436 268.623316 
L 339.715924 267.475866 
L 339.850412 267.730283 
L 339.9849 266.964691 
L 340.119388 266.854116 
L 340.253877 266.389326 
L 340.388365 267.838983 
L 340.522853 265.887053 
L 340.657341 266.4746 
L 340.926318 266.162085 
L 341.060806 262.885597 
L 341.329782 267.676869 
L 341.464271 267.577071 
L 341.598759 268.095742 
L 341.733247 269.633016 
L 341.867735 277.309547 
L 342.136712 277.409346 
L 342.2712 278.039061 
L 342.540176 265.579692 
L 342.943641 152.547646 
L 343.212617 168.847624 
L 343.347106 168.127012 
L 343.75057 182.24407 
L 343.885058 183.887702 
L 344.019547 183.237371 
L 344.423011 249.859296 
L 345.22994 275.07462 
L 345.364429 276.138202 
L 345.498917 275.777427 
L 345.633405 271.639297 
L 345.767893 263.705539 
L 346.03687 181.022122 
L 346.171358 185.063265 
L 346.440334 171.751156 
L 346.574823 166.4801 
L 346.843799 173.230331 
L 347.112775 175.06419 
L 347.381752 208.901086 
L 347.650728 247.086486 
L 348.054193 264.712896 
L 348.188681 265.872997 
L 348.323169 274.674488 
L 348.457658 275.506612 
L 348.592146 277.342345 
L 348.726634 277.150713 
L 348.99561 264.485186 
L 349.264587 179.991338 
L 349.399075 181.437716 
L 349.668052 164.208158 
L 349.80254 160.173106 
L 350.206004 178.519191 
L 350.340493 179.676949 
L 351.012934 258.356706 
L 351.147422 260.633802 
L 351.550886 276.98485 
L 351.685375 276.28626 
L 351.954351 276.646097 
L 352.088839 275.275154 
L 352.223328 268.123386 
L 352.492304 175.990958 
L 352.626792 183.020438 
L 352.76128 171.865947 
L 352.895769 171.170637 
L 353.030257 163.048994 
L 353.164745 170.123454 
L 353.299233 168.085781 
L 353.56821 150.647255 
L 354.240651 264.851583 
L 354.375139 265.967642 
L 354.644115 271.718949 
L 354.913092 275.911898 
L 355.182068 276.934248 
L 355.316556 274.577501 
L 355.451045 265.622797 
L 355.854509 193.71295 
L 356.123486 156.107131 
L 356.257974 157.788247 
L 356.392462 166.234586 
L 356.52695 165.613304 
L 356.661439 176.017665 
L 356.795927 174.790095 
L 357.33388 260.623494 
L 357.602856 270.037833 
L 357.737344 271.964931 
L 357.871832 276.139139 
L 358.006321 275.571739 
L 358.140809 275.782113 
L 358.275297 276.507878 
L 358.409785 276.421667 
L 358.678762 275.186132 
L 359.082226 257.0701 
L 359.351203 251.277093 
L 359.485691 245.125185 
L 359.620179 255.654177 
L 359.754667 257.041519 
L 359.889156 257.206445 
L 360.427109 271.223235 
L 360.561597 271.889965 
L 360.965061 275.958283 
L 361.234038 275.919394 
L 361.368526 275.731511 
L 361.503014 277.012026 
L 361.771991 276.612362 
L 361.906479 277.91771 
L 362.040967 277.870856 
L 362.175455 278.239127 
L 362.309944 278.278953 
L 362.57892 274.931247 
L 362.713408 274.882988 
L 362.982385 273.769741 
L 363.116873 272.305559 
L 363.251361 272.20576 
L 363.385849 273.275901 
L 363.520337 272.438155 
L 363.654826 272.379588 
L 364.05829 275.11304 
L 364.192778 249.597383 
L 364.730731 255.73664 
L 364.86522 254.563889 
L 364.999708 242.709871 
L 365.134196 220.974849 
L 365.403172 134.306046 
L 365.672149 104.579635 
L 365.806637 98.769292 
L 366.075613 115.396778 
L 366.34459 112.311454 
L 366.479078 123.529197 
L 367.017031 247.550808 
L 367.151519 252.417515 
L 367.286007 250.714847 
L 367.554984 261.862778 
L 367.689472 262.713175 
L 367.958448 267.521314 
L 368.227425 244.400357 
L 368.496401 150.238221 
L 368.765378 99.326384 
L 369.034354 88.62825 
L 369.168842 93.262093 
L 369.303331 92.825884 
L 369.437819 96.13189 
L 369.572307 94.049238 
L 369.706795 109.858187 
L 370.244748 231.391392 
L 370.782701 274.786469 
L 370.917189 275.085865 
L 371.051677 275.961094 
L 371.186166 275.687468 
L 371.455142 261.140292 
L 371.858607 169.58932 
L 372.127583 200.986069 
L 372.262071 197.000214 
L 372.396559 198.400675 
L 372.665536 187.909635 
L 372.800024 191.634514 
L 373.203489 230.611275 
L 373.472465 252.459215 
L 373.87593 273.262782 
L 374.010418 282.115813 
L 374.144906 281.97244 
L 374.279394 283.156905 
L 374.413883 282.663066 
L 374.682859 266.406193 
L 375.220812 178.645696 
L 375.489788 175.082931 
L 375.624277 175.301739 
L 375.893253 181.717433 
L 376.027741 185.934746 
L 376.565694 252.279765 
L 376.83467 261.007227 
L 376.969159 263.79175 
L 377.103647 275.387603 
L 377.238135 274.314651 
L 377.507112 276.349512 
L 377.6416 274.419603 
L 377.776088 277.894283 
L 378.045064 275.786329 
L 378.179553 266.321388 
L 378.314041 265.707134 
L 378.448529 258.736222 
L 378.583017 259.718747 
L 378.717505 258.818216 
L 378.851994 263.247308 
L 378.986482 262.500927 
L 379.12097 263.392555 
L 379.255458 265.512691 
L 379.389947 265.398368 
L 379.927899 274.484262 
L 380.062388 274.281385 
L 380.196876 274.690418 
L 380.331364 264.961221 
L 380.60034 266.853647 
L 380.869317 268.478538 
L 381.138293 257.779935 
L 381.272782 231.175395 
L 381.541758 157.930682 
L 381.810734 138.132129 
L 381.945223 139.694704 
L 382.214199 146.064482 
L 382.348687 138.218809 
L 382.752152 187.176841 
L 383.021128 253.953383 
L 383.155616 261.738615 
L 383.290105 262.388946 
L 383.424593 263.653063 
L 383.559081 258.813062 
L 383.693569 258.114003 
L 383.962546 258.454162 
L 384.097034 259.623165 
L 384.231522 257.8713 
L 384.36601 259.238495 
L 385.038451 147.107917 
L 385.17294 149.507301 
L 385.307428 164.370741 
L 385.576404 158.827933 
L 386.248845 256.748214 
L 386.921286 274.917191 
L 387.055775 274.116928 
L 387.190263 275.371673 
L 387.324751 274.69323 
L 387.459239 274.851596 
L 387.593727 276.314372 
L 387.728216 275.750252 
L 387.862704 277.043886 
L 387.997192 275.895499 
L 388.13168 277.457605 
L 388.266169 276.491011 
L 388.400657 274.540955 
L 388.535145 274.628571 
L 388.669633 273.977772 
L 388.804121 275.096641 
L 388.93861 272.590899 
L 389.207586 274.69323 
L 389.476562 281.264479 
L 389.611051 280.224793 
L 389.745539 281.02693 
L 389.880027 280.975859 
L 390.014515 266.334507 
L 390.283492 266.579084 
L 390.41798 266.588923 
L 390.552468 266.460544 
L 390.686956 261.057829 
L 390.821445 261.239622 
L 390.955933 252.541209 
L 391.224909 197.356772 
L 391.359397 166.523674 
L 391.493886 162.602946 
L 391.762862 173.111322 
L 391.89735 172.577188 
L 392.031839 165.478834 
L 392.166327 169.114222 
L 392.300815 177.938672 
L 392.569791 237.055082 
L 392.70428 262.888408 
L 392.973256 267.647351 
L 393.107744 268.293466 
L 393.376721 261.359099 
L 393.645697 266.978279 
L 393.780185 263.646034 
L 393.914673 265.00667 
L 394.049162 257.721837 
L 394.721603 145.092734 
L 394.990579 144.03946 
L 395.125067 143.626677 
L 395.259556 154.814903 
L 395.394044 155.669985 
L 395.931997 242.292403 
L 396.200973 255.667765 
L 396.335461 251.995362 
L 396.46995 276.341079 
L 396.604438 276.717784 
L 397.007902 279.700498 
L 397.276879 266.868641 
L 397.545855 194.429345 
L 397.680343 189.33118 
L 397.94932 166.356406 
L 398.083808 153.121605 
L 398.218296 165.645633 
L 398.352785 160.961188 
L 398.487273 163.921881 
L 398.487273 163.921881 
" clip-path="url(#p5e6b6fe6ba)" style="fill: none; stroke: #1f77b4; stroke-width: 1.5; stroke-linecap: square"/>
   </g>
   <g id="line2d_14">
    <path d="M 73.832727 272.281284 
L 74.236192 272.07314 
L 74.37068 271.908985 
L 74.774145 268.571929 
L 74.908633 271.341168 
L 75.043121 269.553975 
L 75.177609 272.378742 
L 75.312098 254.748653 
L 75.446586 184.90487 
L 75.581074 241.222404 
L 75.715562 241.893704 
L 75.85005 244.283432 
L 75.984539 244.202644 
L 76.119027 246.091437 
L 76.253515 242.306573 
L 76.388003 243.027632 
L 76.65698 237.45741 
L 76.791468 238.385669 
L 76.925956 295.488 
L 77.329421 265.117478 
L 77.463909 266.060978 
L 77.598397 250.963964 
L 77.732885 266.179548 
L 77.867374 263.388829 
L 78.001862 263.785089 
L 78.13635 266.176599 
L 78.270838 253.367389 
L 78.405327 217.453699 
L 78.674303 62.038656 
L 78.943279 147.183223 
L 79.077768 164.80142 
L 79.212256 161.548348 
L 79.346744 182.112094 
L 79.481232 159.810852 
L 79.750209 210.781696 
L 79.884697 241.27182 
L 80.019185 242.834674 
L 80.153673 268.339555 
L 80.288161 260.954012 
L 80.557138 268.897329 
L 80.826114 248.590063 
L 80.960603 258.354492 
L 81.633044 226.693483 
L 81.767532 190.230801 
L 81.90202 121.860011 
L 82.036508 207.853614 
L 82.170996 193.454798 
L 82.305485 215.647708 
L 82.439973 211.127742 
L 82.574461 225.38659 
L 82.843438 196.377045 
L 82.977926 193.469267 
L 83.112414 198.767145 
L 83.246902 193.44264 
L 83.38139 193.441177 
L 83.650367 218.438058 
L 83.784855 224.407258 
L 84.053831 260.20795 
L 84.18832 263.445499 
L 84.322808 193.441176 
L 84.457296 204.780422 
L 84.591784 193.441176 
L 84.860761 193.441176 
L 84.995249 193.62596 
L 85.129737 175.012956 
L 85.264225 204.707895 
L 85.398714 206.557931 
L 85.533202 224.853761 
L 85.66769 185.271749 
L 85.802178 231.542426 
L 85.936666 219.959676 
L 86.340131 238.287505 
L 86.609107 270.277933 
L 86.743596 261.193571 
L 86.878084 269.578829 
L 87.012572 262.043668 
L 87.416037 280.325323 
L 87.685013 275.559634 
L 87.819501 278.105052 
L 88.088478 275.974418 
L 88.357454 227.898513 
L 88.491942 254.414393 
L 88.626431 237.98766 
L 88.760919 252.990575 
L 89.029895 241.960634 
L 89.164384 255.62686 
L 89.298872 232.523003 
L 89.43336 252.721 
L 89.567848 248.106683 
L 89.702336 249.761606 
L 89.836825 282.838273 
L 90.105801 265.399462 
L 90.240289 266.21707 
L 90.374777 268.949629 
L 90.509266 236.740444 
L 90.778242 257.916517 
L 91.181707 250.300286 
L 91.316195 260.699703 
L 91.450683 254.053929 
L 91.585171 234.541705 
L 91.71966 247.709015 
L 91.854148 229.264782 
L 91.988636 253.891295 
L 92.123124 241.232754 
L 92.257612 249.866429 
L 92.392101 248.448621 
L 92.661077 253.22874 
L 92.795565 248.809779 
L 93.064542 259.236985 
L 93.333518 264.610873 
L 93.468006 261.662206 
L 93.602495 255.789752 
L 93.736983 276.675597 
L 94.005959 261.503793 
L 94.140447 264.524284 
L 94.409424 260.552574 
L 94.543912 253.887412 
L 94.812888 149.503014 
L 94.947377 186.679296 
L 95.081865 161.090502 
L 95.350841 170.615786 
L 95.48533 192.53359 
L 95.619818 191.40891 
L 95.888794 156.569802 
L 96.157771 241.236182 
L 96.426747 277.27421 
L 96.695723 260.367592 
L 96.9647 264.745319 
L 97.099188 261.482225 
L 97.233676 261.582133 
L 97.368164 260.124393 
L 97.502653 257.346486 
L 97.637141 257.639941 
L 97.771629 241.278055 
L 97.906117 210.583543 
L 98.040606 143.269888 
L 98.175094 198.294606 
L 98.309582 174.326392 
L 98.44407 209.684522 
L 98.578558 184.946956 
L 98.713047 195.893096 
L 98.847535 183.369524 
L 99.385488 233.704715 
L 99.654464 284.874466 
L 99.788952 272.658724 
L 99.923441 271.019322 
L 100.057929 263.796639 
L 100.192417 280.17798 
L 100.461393 265.88706 
L 100.595882 269.663563 
L 100.73037 269.196077 
L 100.864858 269.91765 
L 100.999346 269.957578 
L 101.268323 276.621483 
L 101.402811 273.195666 
L 101.537299 274.850736 
L 101.671787 273.339563 
L 101.806276 267.289895 
L 101.940764 245.494634 
L 102.075252 271.855336 
L 102.20974 246.073756 
L 102.344228 250.591391 
L 102.478717 262.970218 
L 102.613205 259.339801 
L 102.747693 261.157666 
L 103.016669 274.694967 
L 103.151158 264.016134 
L 103.285646 277.559278 
L 103.420134 238.811611 
L 103.68911 270.456422 
L 103.958087 258.141802 
L 104.092575 256.82662 
L 104.227063 250.087634 
L 104.361552 212.234334 
L 104.49604 132.578457 
L 104.630528 185.59987 
L 104.765016 158.513301 
L 104.899504 207.127421 
L 105.033993 150.588861 
L 106.109898 276.349564 
L 106.378875 248.810168 
L 106.647851 279.465856 
L 106.916828 260.571872 
L 107.051316 258.098972 
L 107.45478 268.143965 
L 107.723757 208.113557 
L 107.992733 258.073606 
L 108.127222 242.04934 
L 108.26171 246.365554 
L 108.396198 243.786187 
L 108.530686 244.661069 
L 108.934151 234.872926 
L 109.068639 244.932632 
L 109.337615 280.685824 
L 109.472104 263.308538 
L 109.606592 261.658276 
L 109.875568 249.4253 
L 110.010056 254.68544 
L 110.144545 252.192352 
L 110.279033 253.240264 
L 111.085962 267.64988 
L 111.354939 263.595582 
L 111.489427 262.959327 
L 111.623915 267.569553 
L 112.161868 255.132169 
L 112.430844 265.609972 
L 112.834309 262.30609 
L 112.968797 263.012861 
L 113.103285 241.226198 
L 113.237774 253.988678 
L 113.372262 254.268163 
L 113.50675 253.476951 
L 113.910215 263.717555 
L 114.044703 262.868118 
L 114.179191 264.603794 
L 114.313679 257.977795 
L 114.448168 261.225563 
L 114.582656 255.968794 
L 114.717144 245.405111 
L 114.851632 252.963623 
L 114.98612 253.229219 
L 115.120609 251.276118 
L 115.389585 238.749671 
L 115.524073 242.276742 
L 115.79305 258.538624 
L 116.062026 255.338013 
L 116.196514 254.731978 
L 116.331002 254.934602 
L 116.465491 256.808992 
L 116.599979 245.99795 
L 116.868955 258.300207 
L 117.003444 260.344914 
L 117.137932 232.025235 
L 117.406908 68.711006 
L 117.541396 77.937635 
L 117.810373 143.166281 
L 117.944861 151.429716 
L 118.079349 143.377142 
L 118.213837 126.543585 
L 118.348326 143.947857 
L 118.886279 271.235483 
L 119.020767 257.427921 
L 119.289743 260.846253 
L 119.424231 251.733661 
L 119.693208 257.959422 
L 119.827696 255.082509 
L 120.096672 258.312173 
L 120.231161 257.056925 
L 120.365649 236.973512 
L 120.634625 70.04577 
L 120.769114 142.090407 
L 120.903602 108.663616 
L 121.03809 123.292552 
L 121.172578 119.373463 
L 121.307066 136.174716 
L 121.441555 119.394181 
L 121.576043 129.645701 
L 122.113996 280.111022 
L 122.248484 255.291676 
L 122.382972 264.163644 
L 122.51746 248.410688 
L 122.786437 250.110156 
L 122.920925 257.702262 
L 123.189901 251.27208 
L 123.32439 253.244741 
L 123.458878 250.49414 
L 123.593366 240.373185 
L 123.862342 107.143994 
L 123.996831 111.837384 
L 124.131319 101.390816 
L 124.400295 111.589235 
L 124.669272 160.373708 
L 124.938248 169.631355 
L 125.072736 194.437608 
L 125.341713 264.517394 
L 125.476201 257.662752 
L 125.610689 266.104062 
L 125.879666 254.426186 
L 126.014154 253.862955 
L 126.148642 268.475546 
L 126.28313 264.035755 
L 126.417618 264.752639 
L 126.552107 263.938034 
L 126.686595 243.660217 
L 126.821083 245.399615 
L 127.09006 81.863143 
L 127.224548 121.442233 
L 127.359036 87.990363 
L 127.762501 155.118576 
L 127.896989 153.592896 
L 128.031477 160.967109 
L 128.300453 200.860399 
L 128.56943 269.333023 
L 128.703918 259.229988 
L 128.838406 266.946337 
L 129.107383 247.123507 
L 129.241871 262.650088 
L 129.376359 255.525049 
L 129.645336 262.734317 
L 129.779824 260.866556 
L 130.0488 223.6952 
L 130.317777 67.57583 
L 130.855729 160.761002 
L 130.990218 216.33868 
L 131.259194 180.375663 
L 131.528171 242.100642 
L 131.662659 271.650205 
L 131.931635 266.397406 
L 132.066123 271.425492 
L 132.3351 255.52296 
L 132.604076 251.806743 
L 132.873053 263.299212 
L 133.007541 258.743912 
L 133.142029 259.854071 
L 133.276517 264.320802 
L 133.411005 241.459259 
L 133.545494 252.443635 
L 133.679982 245.846209 
L 133.81447 249.024267 
L 133.948958 249.513088 
L 134.083447 247.153355 
L 134.217935 248.875301 
L 134.352423 246.415696 
L 134.486911 239.432945 
L 134.755888 251.678526 
L 134.890376 252.626763 
L 135.024864 254.660088 
L 135.159352 258.659462 
L 135.428329 251.836961 
L 135.831793 258.83604 
L 135.966282 259.80383 
L 136.235258 262.142848 
L 136.369746 269.547516 
L 136.638723 257.46003 
L 136.773211 264.193913 
L 136.907699 260.550077 
L 137.042187 249.080214 
L 137.176675 257.099406 
L 137.311164 254.861034 
L 137.445652 256.496062 
L 137.714628 245.907593 
L 137.983605 254.305883 
L 138.118093 248.373588 
L 138.387069 258.564733 
L 138.521558 257.83911 
L 138.656046 254.380371 
L 138.925022 264.468172 
L 139.05951 257.270083 
L 139.193999 259.077297 
L 139.328487 264.209053 
L 139.462975 263.463058 
L 139.731951 235.260325 
L 140.000928 58.510415 
L 140.269904 104.094452 
L 140.673369 150.857283 
L 140.807857 150.073608 
L 140.942345 185.869184 
L 141.076834 188.336745 
L 141.211322 200.627606 
L 141.480298 272.875447 
L 141.614786 260.751501 
L 141.749275 259.143621 
L 141.883763 269.936847 
L 142.018251 257.074148 
L 142.152739 258.873338 
L 142.287228 263.763623 
L 142.421716 259.09426 
L 142.556204 260.316368 
L 142.690692 257.284246 
L 142.82518 219.44876 
L 142.959669 225.767676 
L 143.228645 77.932563 
L 143.497621 125.427324 
L 143.63211 129.555113 
L 143.766598 141.928627 
L 143.901086 169.911098 
L 144.035574 138.320389 
L 144.170063 154.542383 
L 144.304551 208.002746 
L 144.439039 192.029325 
L 144.708015 273.481278 
L 144.842504 254.151728 
L 145.11148 272.026669 
L 145.380456 259.921714 
L 145.783921 263.695769 
L 145.918409 253.438978 
L 146.052897 220.102152 
L 146.187386 236.530849 
L 146.456362 84.464698 
L 146.725339 122.349016 
L 146.994315 189.096065 
L 147.128803 206.79382 
L 147.263291 174.784109 
L 147.39778 203.752193 
L 147.532268 178.517978 
L 147.801244 282.077142 
L 148.070221 263.851612 
L 148.339197 269.06087 
L 148.473685 258.789918 
L 148.608174 264.625561 
L 148.742662 264.132277 
L 148.87715 262.010221 
L 149.011638 262.762347 
L 149.146126 260.621074 
L 149.280615 260.429611 
L 149.549591 137.849899 
L 149.684079 80.360051 
L 149.953056 173.53862 
L 150.087544 155.946214 
L 150.625497 229.763538 
L 150.759985 187.737415 
L 150.894473 217.068053 
L 151.028961 272.984005 
L 151.16345 268.785 
L 151.297938 260.636921 
L 151.432426 271.943451 
L 151.566914 268.893374 
L 151.701402 256.406102 
L 151.970379 262.588657 
L 152.104867 264.506057 
L 152.239355 262.287662 
L 152.373843 262.42199 
L 152.508332 258.967903 
L 152.911796 63.692201 
L 153.180773 139.946621 
L 153.449749 111.260949 
L 153.584237 160.086827 
L 153.718726 166.921315 
L 153.853214 251.673448 
L 153.987702 203.204032 
L 154.391167 266.493722 
L 154.660143 279.455286 
L 154.794631 264.377675 
L 154.92912 267.538811 
L 155.063608 266.300583 
L 155.198096 267.208389 
L 155.332584 266.620912 
L 155.601561 270.300042 
L 155.736049 270.250911 
L 155.870537 265.665965 
L 156.005025 254.344683 
L 156.139513 230.337995 
L 156.274002 245.86698 
L 156.40849 239.058213 
L 156.542978 250.551166 
L 156.677466 242.076032 
L 156.811955 242.054713 
L 157.080931 255.060144 
L 157.215419 255.853993 
L 157.349907 260.377097 
L 157.484396 260.161311 
L 157.753372 265.188832 
L 157.88786 265.585806 
L 158.022348 261.366863 
L 158.291325 266.254694 
L 158.425813 266.385777 
L 158.560301 266.265508 
L 158.963766 272.82119 
L 159.098254 272.372928 
L 159.232742 266.368758 
L 159.367231 270.917472 
L 159.636207 264.511972 
L 159.770695 265.30274 
L 159.905183 267.169918 
L 160.308648 251.707819 
L 160.443136 258.172801 
L 160.577624 249.310755 
L 160.712113 256.506554 
L 160.846601 257.058821 
L 160.981089 267.756189 
L 161.250066 256.025939 
L 161.65353 266.65711 
L 161.788018 263.414007 
L 161.922507 263.212121 
L 162.056995 264.932958 
L 162.325971 236.950349 
L 162.594948 71.09987 
L 162.729436 98.640008 
L 162.863924 102.536595 
L 162.998412 144.908648 
L 163.132901 146.997372 
L 163.267389 140.074639 
L 163.401877 181.097657 
L 163.536365 167.668087 
L 163.805342 221.980381 
L 164.074318 275.28266 
L 164.208806 259.920128 
L 164.343294 261.479382 
L 164.477783 266.371351 
L 164.746759 258.485625 
L 164.881247 272.645326 
L 165.015735 267.006905 
L 165.150224 268.280311 
L 165.4192 240.775672 
L 165.553688 241.741068 
L 165.822665 84.282879 
L 166.091641 192.78132 
L 166.226129 153.055566 
L 166.495106 192.652013 
L 166.764082 166.635792 
L 166.89857 165.590227 
L 167.033059 186.029583 
L 167.167547 271.1738 
L 167.302035 270.768363 
L 167.571012 250.853067 
L 167.7055 262.475756 
L 167.839988 254.127224 
L 168.243453 263.645915 
L 168.377941 262.846308 
L 168.512429 263.410951 
L 168.781405 234.286669 
L 168.915894 179.28796 
L 169.050382 57.980012 
L 169.319358 184.535408 
L 169.453847 170.337316 
L 169.722823 189.810225 
L 169.857311 145.176703 
L 170.529752 277.91701 
L 170.66424 263.345475 
L 170.798729 271.983005 
L 171.067705 259.25546 
L 171.202193 263.633844 
L 171.336681 260.55069 
L 171.605658 262.42747 
L 171.740146 265.547694 
L 171.874634 238.005852 
L 172.009123 242.218852 
L 172.278099 89.332052 
L 172.681564 186.536029 
L 172.95054 169.797371 
L 173.219516 207.376769 
L 173.354005 221.373546 
L 173.488493 215.888504 
L 173.622981 266.21268 
L 173.757469 268.940862 
L 173.891958 259.710461 
L 174.026446 269.622893 
L 174.295422 263.780423 
L 174.42991 281.899384 
L 174.564399 266.580644 
L 174.698887 266.121134 
L 174.967863 268.811747 
L 175.102351 245.662526 
L 175.23684 243.355708 
L 175.371328 211.670531 
L 175.505816 143.751419 
L 175.640304 175.064543 
L 175.909281 163.221514 
L 176.043769 174.271888 
L 176.178257 229.01745 
L 176.312745 204.682649 
L 176.447234 224.885093 
L 176.581722 227.138662 
L 176.71621 212.390432 
L 176.985186 264.826608 
L 177.119675 262.885976 
L 177.254163 271.594195 
L 177.388651 269.955034 
L 177.523139 253.780472 
L 177.792116 264.055107 
L 177.926604 260.366599 
L 178.19558 269.049958 
L 178.330069 267.342238 
L 178.464557 267.83405 
L 178.599045 248.005936 
L 178.868021 256.252092 
L 179.00251 241.008841 
L 179.271486 249.992049 
L 179.405974 256.55793 
L 179.540462 249.706453 
L 179.674951 249.342582 
L 179.809439 253.212335 
L 179.943927 248.691105 
L 180.078415 250.062452 
L 180.48188 268.505133 
L 180.616368 256.815374 
L 180.750856 258.412939 
L 180.885345 273.424222 
L 181.154321 265.709269 
L 181.288809 265.453968 
L 181.423297 267.074476 
L 181.557786 266.947655 
L 181.692274 260.032989 
L 181.826762 259.557129 
L 181.96125 252.778005 
L 182.095738 260.087563 
L 182.230227 254.142471 
L 182.364715 262.089307 
L 182.499203 243.873504 
L 182.76818 263.952365 
L 183.037156 262.938606 
L 183.171644 267.248026 
L 183.306132 261.496195 
L 183.440621 261.34743 
L 183.575109 271.632692 
L 183.709597 266.985815 
L 183.844085 267.273277 
L 184.113062 257.720782 
L 184.24755 268.804765 
L 184.516526 260.007975 
L 184.651015 261.328033 
L 184.785503 254.00019 
L 184.919991 257.666691 
L 185.188967 159.250075 
L 185.323456 193.043982 
L 185.457944 174.804065 
L 185.592432 204.616832 
L 185.72692 184.525268 
L 185.861408 204.892172 
L 185.995897 208.20089 
L 186.130385 216.507571 
L 186.264873 237.103357 
L 186.399361 233.028908 
L 186.668338 264.205311 
L 186.802826 264.756282 
L 186.937314 270.585872 
L 187.071802 266.790685 
L 187.206291 269.130374 
L 187.475267 280.865839 
L 187.744243 268.714226 
L 187.878732 273.745643 
L 188.01322 267.935795 
L 188.147708 255.93683 
L 188.282196 174.193973 
L 188.416684 162.600647 
L 188.551173 194.152204 
L 188.685661 175.379445 
L 188.820149 196.574219 
L 188.954637 193.514647 
L 189.089126 202.398283 
L 189.223614 218.960512 
L 189.358102 208.031553 
L 189.896055 273.602629 
L 190.030543 273.218065 
L 190.299519 264.268126 
L 190.434008 271.763292 
L 190.568496 258.753376 
L 190.702984 265.352595 
L 190.837472 265.020337 
L 190.971961 262.238262 
L 191.240937 266.291912 
L 191.375425 267.002641 
L 191.509913 264.277662 
L 191.644402 251.904682 
L 191.913378 260.815568 
L 192.047866 246.133177 
L 192.182354 261.051215 
L 192.316843 256.07303 
L 192.451331 257.618557 
L 192.585819 247.797879 
L 192.854796 258.924672 
L 192.989284 257.998614 
L 193.123772 260.932246 
L 193.25826 269.113149 
L 193.392748 264.617735 
L 193.527237 264.720958 
L 193.796213 261.921442 
L 193.930701 261.447421 
L 194.065189 265.547395 
L 194.199678 265.350504 
L 194.334166 264.888094 
L 194.603142 250.823001 
L 194.872119 155.14298 
L 195.006607 175.200986 
L 195.141095 153.97009 
L 195.275583 179.379533 
L 195.410072 163.200133 
L 195.679048 206.111895 
L 195.813536 185.911683 
L 196.217001 267.275459 
L 196.351489 260.777672 
L 196.485977 270.815977 
L 196.754954 260.874938 
L 196.889442 261.405803 
L 197.02393 275.548691 
L 197.158418 263.593254 
L 197.292907 265.328291 
L 197.427395 265.465396 
L 197.561883 266.033101 
L 197.696371 259.36022 
L 197.830859 245.852581 
L 198.099836 153.545936 
L 198.234324 206.94532 
L 198.368812 197.210958 
L 198.5033 215.698114 
L 198.637789 204.614882 
L 198.772277 225.781366 
L 198.906765 210.360113 
L 199.041253 213.211691 
L 199.31023 242.75168 
L 199.713694 280.998014 
L 199.848183 272.213612 
L 199.982671 272.257113 
L 200.117159 272.93036 
L 200.251647 277.100144 
L 200.386135 271.028943 
L 200.520624 272.754238 
L 200.655112 272.897326 
L 200.7896 269.68451 
L 200.924088 257.837323 
L 201.058576 264.309169 
L 201.193065 225.21583 
L 201.327553 119.160185 
L 201.462041 216.474474 
L 201.596529 195.879305 
L 201.731018 213.417129 
L 201.865506 213.797513 
L 201.999994 230.01876 
L 202.134482 213.217392 
L 202.403459 226.753873 
L 202.537947 246.609986 
L 202.672435 247.206157 
L 202.941411 279.356855 
L 203.0759 267.535231 
L 203.344876 270.789705 
L 203.479364 256.091034 
L 203.613853 260.212067 
L 203.748341 268.69847 
L 204.286294 254.095387 
L 204.420782 222.084813 
L 204.55527 162.698889 
L 204.824246 206.949256 
L 204.958735 221.344321 
L 205.093223 217.601158 
L 205.227711 232.87127 
L 205.362199 215.375153 
L 205.496688 251.788881 
L 205.631176 230.63873 
L 205.765664 254.687509 
L 205.900152 250.381168 
L 206.169129 272.037869 
L 206.438105 258.858694 
L 206.572593 264.493472 
L 206.707081 282.230975 
L 206.84157 272.002768 
L 207.110546 275.988954 
L 207.379522 273.68662 
L 207.782987 250.909079 
L 207.917475 249.072656 
L 208.051964 253.589183 
L 208.32094 269.472187 
L 208.589916 263.105933 
L 208.724405 254.97697 
L 208.858893 256.121767 
L 208.993381 262.564688 
L 209.127869 261.232488 
L 209.262357 273.033683 
L 209.396846 270.377723 
L 209.531334 274.764493 
L 209.80031 269.029243 
L 209.934799 256.923108 
L 210.069287 267.201998 
L 210.203775 264.745143 
L 210.338263 264.973688 
L 210.472751 267.241805 
L 210.60724 242.613383 
L 210.741728 253.037398 
L 211.010704 127.14796 
L 211.145192 154.934491 
L 211.279681 108.305035 
L 211.414169 109.101112 
L 211.548657 92.967018 
L 211.683145 174.991266 
L 211.817634 167.052806 
L 211.952122 197.749878 
L 212.08661 197.994311 
L 212.355586 253.198628 
L 212.490075 259.19964 
L 212.624563 276.551688 
L 212.893539 255.839383 
L 213.162516 268.149981 
L 213.297004 269.711914 
L 213.431492 263.319521 
L 213.56598 263.816071 
L 213.700468 269.289142 
L 213.969445 237.38979 
L 214.238421 67.007298 
L 214.507398 167.068263 
L 214.641886 144.167288 
L 214.776374 146.536047 
L 214.910862 165.911188 
L 215.045351 205.909644 
L 215.179839 206.81184 
L 215.314327 205.850925 
L 215.448815 208.692668 
L 215.717792 270.623617 
L 215.85228 276.978926 
L 215.986768 259.476031 
L 216.121256 266.20829 
L 216.255745 262.296502 
L 216.524721 266.419249 
L 216.659209 265.012098 
L 216.793697 266.215077 
L 216.928186 269.565847 
L 217.197162 243.834389 
L 217.466138 91.113328 
L 217.735115 162.257401 
L 217.869603 149.315851 
L 218.004091 172.572997 
L 218.273068 150.131091 
L 218.542044 238.782806 
L 218.676532 244.801201 
L 218.811021 239.706361 
L 218.945509 268.847394 
L 219.214485 272.875125 
L 219.348973 272.558761 
L 219.483462 252.034031 
L 219.61795 266.251241 
L 219.752438 267.070888 
L 220.155903 271.540977 
L 220.424879 245.123591 
L 220.693856 84.436222 
L 220.828344 191.209028 
L 221.09732 169.099968 
L 221.231808 165.000982 
L 221.366297 193.007689 
L 221.500785 169.107918 
L 221.635273 226.50546 
L 221.769761 218.321622 
L 221.904249 219.548814 
L 222.038738 226.001624 
L 222.173226 274.704395 
L 222.307714 276.023986 
L 222.442202 267.608835 
L 222.576691 274.380961 
L 222.711179 259.404787 
L 223.114643 272.15951 
L 223.249132 270.423387 
L 223.38362 272.262904 
L 223.518108 265.511929 
L 223.652596 272.900135 
L 223.921573 229.034981 
L 224.056061 258.887326 
L 224.459525 239.72854 
L 224.728502 248.738377 
L 224.86299 256.384344 
L 225.131967 247.483884 
L 225.266455 248.120394 
L 225.535431 260.744952 
L 225.669919 260.173075 
L 225.804408 255.758231 
L 225.938896 259.569688 
L 226.207872 255.078756 
L 226.34236 261.187671 
L 226.476849 260.643188 
L 226.611337 262.981944 
L 226.745825 261.647552 
L 227.014802 266.441532 
L 227.283778 249.096433 
L 227.418266 260.256496 
L 227.687243 257.682684 
L 227.821731 257.875365 
L 227.956219 266.898725 
L 228.225195 264.206924 
L 228.359684 263.582364 
L 228.494172 265.547025 
L 228.62866 274.48539 
L 228.763148 269.6938 
L 228.897637 271.033251 
L 229.032125 268.104318 
L 229.166613 270.864852 
L 229.301101 270.01858 
L 229.435589 266.309073 
L 229.704566 269.673379 
L 229.839054 268.81632 
L 229.973542 257.052174 
L 230.10803 233.433987 
L 230.377007 72.405449 
L 230.511495 123.892797 
L 230.780471 134.244271 
L 230.91496 107.919669 
L 231.049448 199.316012 
L 231.183936 180.511563 
L 231.318424 186.727421 
L 231.721889 264.320972 
L 231.856377 264.143181 
L 231.990865 266.723505 
L 232.125354 265.444522 
L 232.259842 266.245998 
L 232.39433 265.551868 
L 232.528818 267.005047 
L 232.663306 265.552436 
L 232.932283 269.716803 
L 233.066771 264.60076 
L 233.335748 230.129727 
L 233.604724 78.020476 
L 233.8737 141.77093 
L 234.008189 183.061261 
L 234.142677 162.809293 
L 234.277165 210.984525 
L 234.411653 152.705929 
L 234.68063 241.299466 
L 234.815118 242.385633 
L 234.949606 245.677866 
L 235.218583 273.520555 
L 235.487559 258.588564 
L 235.622047 265.643672 
L 235.756535 263.49659 
L 236.025512 271.606211 
L 236.16 268.009168 
L 236.294488 268.031821 
L 236.563465 248.039362 
L 236.832441 71.116689 
L 237.101417 145.660293 
L 237.235906 147.732459 
L 237.370394 146.204477 
L 237.63937 228.342315 
L 237.773859 187.584166 
L 238.311811 271.774171 
L 238.4463 277.784558 
L 238.715276 263.945807 
L 238.849764 266.369201 
L 238.984252 264.966232 
L 239.118741 266.706693 
L 239.387717 273.978465 
L 239.522205 271.725741 
L 239.656694 265.253464 
L 239.791182 235.483407 
L 240.060158 86.116228 
L 240.194646 133.608076 
L 240.329135 131.839993 
L 240.463623 164.17601 
L 240.598111 159.992945 
L 240.867087 240.382147 
L 241.001576 229.218039 
L 241.270552 237.833109 
L 241.539529 267.206532 
L 241.674017 263.869488 
L 241.808505 266.151115 
L 241.942993 259.450325 
L 242.077481 262.58903 
L 242.21197 260.306218 
L 242.346458 275.273425 
L 242.480946 269.374654 
L 242.615434 277.567512 
L 242.749922 271.926759 
L 243.018899 234.980385 
L 243.287875 83.199408 
L 243.556852 164.455484 
L 243.825828 123.497308 
L 243.960316 156.486403 
L 244.094805 146.384861 
L 244.498269 244.086453 
L 244.632757 247.381142 
L 244.767246 264.525771 
L 245.036222 269.551204 
L 245.305198 264.318824 
L 245.574175 271.191874 
L 245.708663 268.69046 
L 245.843151 269.649611 
L 245.97764 268.419439 
L 246.112128 266.105126 
L 246.246616 237.362048 
L 246.381104 264.615469 
L 246.515592 249.395979 
L 246.650081 249.529626 
L 246.919057 243.880802 
L 247.45701 270.404487 
L 247.591498 263.304389 
L 247.725986 271.053708 
L 247.860475 268.583747 
L 247.994963 270.553534 
L 248.129451 266.645627 
L 248.263939 275.694227 
L 248.398427 266.897794 
L 248.532916 269.253274 
L 248.667404 267.480811 
L 248.801892 261.947503 
L 248.93638 268.095957 
L 249.070868 266.528673 
L 249.205357 269.305176 
L 249.339845 264.697082 
L 249.743309 270.121887 
L 249.877798 263.899746 
L 250.012286 263.007616 
L 250.146774 258.787446 
L 250.281262 263.452157 
L 250.415751 262.937755 
L 250.550239 260.008501 
L 250.684727 261.0557 
L 250.819215 263.291367 
L 251.088192 261.579861 
L 251.22268 262.114787 
L 251.357168 261.553609 
L 251.491656 264.383609 
L 251.626144 261.137353 
L 251.760633 268.03976 
L 251.895121 267.349457 
L 252.029609 283.014038 
L 252.164097 273.459845 
L 252.298586 274.788046 
L 252.433074 273.60355 
L 252.567562 253.62993 
L 252.70205 251.657438 
L 252.971027 89.658438 
L 253.374491 178.076621 
L 253.508979 149.665636 
L 253.643468 174.433048 
L 253.777956 176.117804 
L 253.912444 175.57697 
L 254.046932 168.489091 
L 254.450397 276.5499 
L 254.584885 270.585292 
L 254.719373 278.922023 
L 254.853862 279.002363 
L 254.98835 273.376052 
L 255.122838 273.430259 
L 255.257326 279.847569 
L 255.391814 274.174355 
L 255.526303 276.84178 
L 255.660791 275.605959 
L 255.795279 242.625784 
L 255.929767 240.719869 
L 256.198744 103.172544 
L 256.333232 185.558666 
L 256.602208 161.92023 
L 256.736697 152.880154 
L 256.871185 170.238056 
L 257.005673 162.319532 
L 257.140161 171.695635 
L 257.409138 241.744915 
L 257.543626 236.573462 
L 257.678114 261.438158 
L 257.812602 258.620211 
L 257.94709 269.953983 
L 258.081579 256.012349 
L 258.216067 261.630006 
L 258.350555 260.667335 
L 258.485043 281.352343 
L 258.888508 270.423589 
L 259.157484 239.145248 
L 259.426461 105.104029 
L 259.560949 191.073139 
L 259.695437 178.315557 
L 259.829925 202.34191 
L 259.964414 160.281936 
L 260.23339 219.770226 
L 260.367878 177.187665 
L 260.636855 243.792591 
L 260.771343 246.913445 
L 260.905831 263.157421 
L 261.040319 265.300497 
L 261.174808 264.929075 
L 261.309296 265.686662 
L 261.443784 259.989786 
L 261.578272 261.292498 
L 261.71276 269.80567 
L 261.847249 266.468017 
L 261.981737 270.494096 
L 262.250713 258.931196 
L 262.385201 224.846272 
L 262.654178 105.204715 
L 262.788666 191.873194 
L 263.057643 148.429433 
L 263.326619 200.881974 
L 263.461107 178.378388 
L 263.595595 231.077444 
L 263.730084 226.23036 
L 263.864572 243.66684 
L 263.99906 245.031802 
L 264.133548 257.904623 
L 264.402525 261.899711 
L 264.671501 258.465351 
L 264.805989 269.3801 
L 264.940478 258.047573 
L 265.074966 264.352568 
L 265.47843 256.275734 
L 265.612919 235.14625 
L 266.016383 124.228038 
L 266.150871 113.53109 
L 266.28536 165.177238 
L 266.419848 163.244557 
L 266.554336 202.788644 
L 266.688824 182.774972 
L 266.823312 183.600414 
L 266.957801 196.436056 
L 267.361265 273.844276 
L 267.899218 252.254098 
L 268.033706 277.208171 
L 268.168195 262.653427 
L 268.302683 265.856587 
L 268.437171 263.678896 
L 268.571659 269.256954 
L 268.706147 269.320142 
L 268.840636 261.352885 
L 268.975124 244.947926 
L 269.109612 254.251086 
L 269.378589 240.86896 
L 269.782053 251.573432 
L 269.916541 251.580996 
L 270.05103 253.836303 
L 270.185518 249.549263 
L 270.320006 252.756291 
L 270.454494 251.950027 
L 270.588982 257.13795 
L 270.723471 257.242038 
L 270.857959 258.282191 
L 270.992447 262.956053 
L 271.126935 261.97836 
L 271.261424 281.425335 
L 271.5304 268.064092 
L 271.664888 270.459965 
L 271.799376 268.993552 
L 271.933865 268.823315 
L 272.068353 272.165096 
L 272.337329 262.759895 
L 272.471817 260.778205 
L 272.606306 267.800282 
L 272.740794 262.75765 
L 272.875282 263.254958 
L 273.00977 266.209687 
L 273.144258 266.317083 
L 273.278747 271.137039 
L 273.682211 264.833032 
L 274.085676 270.159815 
L 274.220164 268.783398 
L 274.354652 269.584089 
L 274.489141 268.515587 
L 274.623629 286.971966 
L 274.758117 279.921621 
L 274.892605 280.180566 
L 275.027093 276.06894 
L 275.29607 240.029005 
L 275.565046 163.175298 
L 275.834023 151.596168 
L 275.968511 182.948016 
L 276.102999 187.106679 
L 276.237487 202.649371 
L 276.371976 241.404736 
L 276.506464 218.436816 
L 276.77544 252.971204 
L 276.909928 253.344926 
L 277.178905 269.050764 
L 277.313393 272.743805 
L 277.447881 268.38105 
L 277.58237 274.346641 
L 277.716858 266.994093 
L 277.851346 279.913147 
L 277.985834 273.631935 
L 278.120322 278.857454 
L 278.389299 267.315111 
L 278.523787 252.772871 
L 278.658275 214.26604 
L 278.792763 212.884763 
L 278.927252 223.515448 
L 279.06174 197.846916 
L 279.196228 221.860974 
L 279.330716 213.03063 
L 279.465204 245.582715 
L 279.599693 219.157221 
L 280.003157 251.372936 
L 280.137646 253.989456 
L 280.406622 272.219891 
L 280.54111 270.519422 
L 280.810087 271.833737 
L 280.944575 254.908485 
L 281.213551 265.264345 
L 281.348039 264.454387 
L 281.482528 262.797124 
L 281.617016 252.068472 
L 281.751504 252.931338 
L 282.020481 75.779637 
L 282.154969 171.016962 
L 282.289457 131.949345 
L 282.558433 199.494247 
L 282.692922 216.914862 
L 282.82741 150.091417 
L 283.230874 246.812562 
L 283.499851 265.220594 
L 283.634339 272.795582 
L 283.903316 258.034406 
L 284.037804 261.453952 
L 284.172292 257.50047 
L 284.575757 262.113867 
L 284.710245 259.708073 
L 284.979221 245.491364 
L 285.248198 132.803163 
L 285.517174 214.0642 
L 285.651662 187.100617 
L 285.78615 212.367584 
L 285.920639 196.188755 
L 286.055127 228.077735 
L 286.189615 200.489065 
L 286.324103 214.752383 
L 286.59308 266.288639 
L 286.727568 264.266641 
L 286.862056 269.812537 
L 286.996544 261.924213 
L 287.131033 262.62606 
L 287.265521 257.660299 
L 287.400009 288.310271 
L 287.534497 271.173519 
L 287.668985 269.02981 
L 287.803474 271.25968 
L 288.206938 261.209174 
L 288.341427 266.269882 
L 288.475915 262.657372 
L 288.610403 263.257629 
L 288.744891 257.600417 
L 288.879379 262.200172 
L 289.013868 256.060049 
L 289.148356 259.428227 
L 289.282844 257.885605 
L 289.417332 267.485054 
L 289.55182 264.471532 
L 289.686309 258.18943 
L 289.820797 272.890426 
L 289.955285 271.454285 
L 290.089773 271.505135 
L 290.224262 269.907867 
L 290.35875 269.764032 
L 290.493238 271.468655 
L 290.627726 267.9588 
L 290.762214 272.262889 
L 290.896703 268.980343 
L 291.031191 271.678432 
L 291.165679 265.844553 
L 291.300167 250.966866 
L 291.434655 254.499166 
L 291.569144 224.382222 
L 291.703632 119.367747 
L 291.972608 178.344339 
L 292.241585 194.11789 
L 292.376073 174.274735 
L 292.510561 182.937061 
L 292.779538 227.769546 
L 292.914026 229.282351 
L 293.183002 267.508305 
L 293.31749 277.083208 
L 293.451979 266.381593 
L 293.586467 268.558424 
L 293.855443 262.876921 
L 293.989931 265.339944 
L 294.12442 263.011148 
L 294.258908 268.298756 
L 294.393396 265.660201 
L 294.527884 248.14515 
L 294.662373 248.227721 
L 294.931349 134.227912 
L 295.065837 167.90501 
L 295.200325 138.175234 
L 295.334814 147.73464 
L 295.469302 134.694524 
L 295.738278 216.04259 
L 295.872766 195.829669 
L 296.007255 258.693804 
L 296.141743 234.916901 
L 296.545208 274.552508 
L 296.814184 255.279931 
L 297.08316 288.009615 
L 297.217649 274.333037 
L 297.352137 275.012133 
L 297.755601 269.079985 
L 298.159066 257.749887 
L 298.293554 272.287325 
L 298.428042 271.172404 
L 298.562531 271.202264 
L 298.697019 275.923016 
L 299.100484 256.722019 
L 299.234972 262.891171 
L 299.36946 261.845601 
L 299.638436 264.9878 
L 299.772925 270.964889 
L 299.907413 270.221766 
L 300.041901 267.155269 
L 300.176389 271.317363 
L 300.310877 248.605543 
L 300.445366 269.906798 
L 300.579854 265.820804 
L 300.714342 267.625834 
L 300.84883 265.366683 
L 301.117807 241.134302 
L 301.386783 129.683522 
L 301.65576 136.066524 
L 301.790248 128.574964 
L 302.059224 212.702266 
L 302.193712 173.224652 
L 302.462689 251.786135 
L 302.597177 247.880316 
L 302.731665 249.379709 
L 303.000642 266.750211 
L 303.13513 265.020577 
L 303.269618 256.785444 
L 303.404106 267.060849 
L 303.538595 266.281045 
L 303.673083 260.047166 
L 303.807571 260.609348 
L 303.942059 265.618971 
L 304.076547 263.703625 
L 304.211036 233.870957 
L 304.345524 237.882042 
L 304.6145 124.3516 
L 304.748988 190.205569 
L 304.883477 169.577554 
L 305.152453 176.287022 
L 305.286941 211.65541 
L 305.42143 179.82727 
L 305.690406 242.50144 
L 305.824894 249.784538 
L 305.959382 239.723109 
L 306.228359 266.988867 
L 306.362847 273.537287 
L 306.497335 258.987744 
L 306.631823 263.732661 
L 306.766312 260.551999 
L 306.9008 277.65156 
L 307.035288 269.393657 
L 307.169776 268.306967 
L 307.304265 268.719733 
L 307.573241 233.534182 
L 307.842217 107.834637 
L 307.976706 193.888912 
L 308.245682 161.598007 
L 308.38017 156.805761 
L 308.514658 178.7926 
L 308.649147 152.225103 
L 308.918123 222.010901 
L 309.456076 278.988392 
L 309.725052 265.49841 
L 309.859541 268.424537 
L 309.994029 268.217749 
L 310.128517 270.987919 
L 310.263005 268.948528 
L 310.397493 269.52824 
L 310.531982 267.963207 
L 310.66647 258.03196 
L 310.800958 228.118307 
L 311.069934 115.420465 
L 311.204423 173.505624 
L 311.473399 168.059427 
L 311.607887 152.164636 
L 311.742376 175.982973 
L 311.876864 166.490156 
L 312.011352 147.076166 
L 312.280328 231.240162 
L 312.414817 220.004144 
L 312.683793 269.924695 
L 312.952769 258.044367 
L 313.356234 266.159398 
L 313.490722 260.562604 
L 313.625211 265.671286 
L 313.759699 260.438064 
L 313.894187 262.140291 
L 314.163163 237.785157 
L 314.297652 230.498392 
L 314.43214 250.366269 
L 314.566628 243.876185 
L 314.701116 248.452578 
L 314.835604 239.100689 
L 314.970093 254.097313 
L 315.104581 252.651855 
L 315.239069 254.833148 
L 315.508045 265.250454 
L 315.642534 261.681829 
L 315.777022 261.299405 
L 315.91151 266.427455 
L 316.045998 264.705048 
L 316.180487 265.120393 
L 316.314975 263.672029 
L 316.449463 266.256216 
L 316.583951 265.715243 
L 316.718439 267.406545 
L 316.852928 264.111073 
L 316.987416 265.576283 
L 317.121904 263.874965 
L 317.256392 265.539404 
L 317.794345 255.761275 
L 317.928833 257.675486 
L 318.063322 257.050561 
L 318.19781 264.982843 
L 318.332298 263.255014 
L 318.466786 263.57032 
L 318.601274 260.581988 
L 318.735763 260.504231 
L 318.870251 257.429239 
L 319.004739 261.646529 
L 319.139227 260.127659 
L 319.273715 263.866611 
L 319.408204 262.050408 
L 319.542692 263.769822 
L 319.67718 263.558156 
L 319.811668 280.212053 
L 319.946157 270.95274 
L 320.080645 270.828601 
L 320.215133 270.103819 
L 320.349621 263.131693 
L 320.484109 245.484386 
L 320.753086 102.169673 
L 320.887574 128.809979 
L 321.022062 114.350891 
L 321.15655 158.061675 
L 321.291039 154.438207 
L 321.560015 194.795303 
L 321.694503 217.564363 
L 321.828991 215.154358 
L 321.96348 215.200746 
L 322.232456 271.941744 
L 322.366944 277.575153 
L 322.635921 257.298502 
L 322.770409 266.92866 
L 322.904897 263.356388 
L 323.039385 287.009386 
L 323.173874 274.094125 
L 323.308362 273.170693 
L 323.44285 269.75903 
L 323.577338 253.570438 
L 323.711826 256.207524 
L 323.980803 117.626018 
L 324.115291 180.52304 
L 324.249779 178.675375 
L 324.518756 146.324639 
L 324.92222 189.454513 
L 325.056709 220.451906 
L 325.191197 218.258067 
L 325.325685 229.050365 
L 325.460173 269.748518 
L 325.594661 273.812513 
L 325.863638 257.105497 
L 325.998126 266.199465 
L 326.132614 262.952253 
L 326.267103 279.782829 
L 326.401591 273.270692 
L 326.536079 273.532272 
L 326.670567 271.699789 
L 326.805055 262.542813 
L 326.939544 241.906585 
L 327.20852 102.273197 
L 327.343008 190.016215 
L 327.477496 181.963389 
L 327.611985 158.253395 
L 327.746473 166.2472 
L 327.880961 188.283238 
L 328.015449 174.402221 
L 328.149937 175.573327 
L 328.284426 192.430328 
L 328.418914 237.223488 
L 328.553402 228.42238 
L 328.822379 265.761151 
L 328.956867 268.346533 
L 329.091355 267.868134 
L 329.225843 269.955548 
L 329.360331 266.211904 
L 329.49482 284.82412 
L 329.629308 270.386894 
L 329.763796 271.572764 
L 329.898284 268.70722 
L 330.167261 245.275109 
L 330.436237 116.583943 
L 330.570725 175.155595 
L 330.705214 173.023674 
L 330.97419 156.27853 
L 331.108678 156.63908 
L 331.243166 219.523369 
L 331.377655 221.114786 
L 331.512143 208.691974 
L 331.646631 211.149877 
L 331.915607 260.587626 
L 332.050096 272.860068 
L 332.319072 258.770843 
L 332.45356 261.472814 
L 332.588049 266.943501 
L 332.722537 283.578371 
L 332.991513 267.236336 
L 333.126001 271.237231 
L 333.394978 247.18437 
L 333.663954 116.912294 
L 333.798442 184.319413 
L 333.932931 188.131768 
L 334.067419 159.894896 
L 334.874348 205.245156 
L 335.143325 272.018276 
L 335.277813 272.671678 
L 335.412301 268.251179 
L 335.681277 271.268955 
L 335.815766 263.224562 
L 336.084742 264.208731 
L 336.21923 263.613162 
L 336.488207 268.23841 
L 336.757183 250.907179 
L 336.891671 251.870429 
L 337.02616 250.283348 
L 337.160648 246.788304 
L 337.295136 254.30899 
L 337.429624 249.088252 
L 337.564112 257.114281 
L 337.698601 256.212579 
L 337.833089 261.990422 
L 337.967577 261.428425 
L 338.102065 264.388367 
L 338.236553 261.964483 
L 338.371042 256.605324 
L 338.50553 262.218961 
L 338.774506 259.384831 
L 338.908995 260.802783 
L 339.043483 253.196029 
L 339.312459 261.556263 
L 339.446947 260.270551 
L 339.715924 263.447898 
L 339.850412 261.995473 
L 339.9849 264.139845 
L 340.119388 263.318575 
L 340.253877 264.677554 
L 340.388365 267.493552 
L 340.522853 265.580994 
L 340.657341 267.120333 
L 340.791829 265.636323 
L 340.926318 268.23997 
L 341.060806 259.673166 
L 341.195294 263.204819 
L 341.598759 247.792742 
L 341.733247 264.982245 
L 341.867735 265.815035 
L 342.002223 262.353995 
L 342.2712 265.259028 
L 342.405688 281.934156 
L 342.540176 271.164412 
L 342.674664 270.64655 
L 342.809153 272.517741 
L 342.943641 249.188779 
L 343.078129 249.938065 
L 343.347106 105.838812 
L 343.75057 171.342465 
L 343.885058 163.765625 
L 344.019547 176.20036 
L 344.154035 178.318271 
L 344.288523 188.376517 
L 344.557499 185.716912 
L 344.826476 270.61141 
L 344.960964 269.269221 
L 345.095452 262.276086 
L 345.22994 272.288149 
L 345.364429 272.009002 
L 345.498917 267.781483 
L 345.633405 285.794333 
L 345.767893 274.045988 
L 345.902382 275.750466 
L 346.03687 273.197806 
L 346.305846 248.880557 
L 346.574823 129.193664 
L 346.709311 193.480088 
L 346.843799 164.914691 
L 346.978287 166.866756 
L 347.112775 159.92332 
L 347.247264 174.812664 
L 347.381752 174.576086 
L 347.650728 177.614658 
L 348.188681 268.207393 
L 348.323169 261.515766 
L 348.457658 261.403055 
L 348.592146 266.960191 
L 348.726634 262.312719 
L 348.861122 281.315426 
L 348.99561 270.870457 
L 349.130099 273.095575 
L 349.264587 269.578977 
L 349.533563 244.697657 
L 349.80254 122.683019 
L 349.937028 182.803136 
L 350.071516 150.9915 
L 350.206004 161.203384 
L 350.340493 160.340251 
L 350.609469 183.384189 
L 350.743957 195.625324 
L 350.878445 190.096713 
L 351.147422 232.502858 
L 351.416398 268.866278 
L 351.550886 275.752907 
L 351.685375 259.527945 
L 351.819863 267.018685 
L 351.954351 267.678708 
L 352.088839 283.124979 
L 352.223328 270.71628 
L 352.357816 272.339991 
L 352.492304 270.423683 
L 352.626792 265.898629 
L 352.76128 243.55468 
L 352.895769 131.100763 
L 353.030257 113.524071 
L 353.164745 192.774801 
L 353.299233 158.295403 
L 353.433721 170.577435 
L 353.56821 155.09245 
L 353.702698 181.14189 
L 354.106163 146.759353 
L 354.375139 251.564723 
L 354.644115 291.017084 
L 354.913092 262.695238 
L 355.316556 274.188949 
L 355.451045 271.132621 
L 355.585533 271.974919 
L 355.720021 270.624866 
L 355.854509 262.801718 
L 355.988998 240.921713 
L 356.123486 167.985233 
L 356.257974 165.29527 
L 356.392462 184.438938 
L 356.661439 145.093562 
L 356.930415 182.255245 
L 357.064903 168.536904 
L 357.199391 204.253925 
L 357.33388 191.177483 
L 357.468368 248.714423 
L 357.602856 238.984171 
L 357.871832 287.551997 
L 358.006321 272.489645 
L 358.140809 271.363276 
L 358.275297 268.688808 
L 358.409785 276.46476 
L 358.544274 268.426806 
L 358.81325 271.4748 
L 359.216715 268.978752 
L 359.351203 247.407624 
L 359.485691 245.813384 
L 359.754667 253.30338 
L 359.889156 248.218629 
L 360.023644 235.102534 
L 360.158132 266.528193 
L 360.29262 256.409225 
L 360.427109 256.205907 
L 360.830573 279.688142 
L 360.965061 265.190461 
L 361.09955 265.706956 
L 361.368526 273.83073 
L 361.771991 268.857691 
L 361.906479 268.322335 
L 362.040967 270.588247 
L 362.309944 266.151223 
L 362.444432 272.200845 
L 362.57892 272.06463 
L 362.713408 275.541195 
L 362.847896 273.901831 
L 363.116873 260.153647 
L 363.385849 263.65125 
L 363.520337 262.303917 
L 363.654826 258.478673 
L 363.923802 264.732459 
L 364.05829 261.848746 
L 364.461755 271.375299 
L 364.596243 273.035066 
L 364.730731 212.761073 
L 364.86522 256.913606 
L 364.999708 258.648545 
L 365.134196 257.806415 
L 365.268684 259.717967 
L 365.403172 248.525525 
L 365.941125 102.896127 
L 366.210102 128.354439 
L 366.34459 125.648694 
L 366.613566 201.299684 
L 366.882543 171.458192 
L 367.151519 277.562283 
L 367.286007 273.344873 
L 367.420496 266.976535 
L 367.554984 268.376932 
L 367.82396 253.225393 
L 367.958448 267.720718 
L 368.227425 263.562675 
L 368.361913 267.798251 
L 368.496401 268.039024 
L 368.63089 223.124323 
L 368.765378 222.44458 
L 369.034354 87.682246 
L 369.168842 62.887136 
L 369.303331 104.786328 
L 369.437819 106.096991 
L 369.706795 171.714276 
L 369.841283 168.332318 
L 369.975772 168.898538 
L 370.11026 151.222391 
L 370.513724 279.066997 
L 370.648213 254.305774 
L 370.917189 262.831349 
L 371.051677 262.075762 
L 371.186166 289.33242 
L 371.320654 271.076048 
L 371.455142 270.323869 
L 371.58963 271.520906 
L 371.724118 268.973253 
L 371.993095 243.077204 
L 372.262071 113.660836 
L 372.531048 236.302385 
L 372.665536 241.591514 
L 372.800024 209.122339 
L 372.934512 219.269254 
L 373.203489 213.149848 
L 373.472465 251.330335 
L 373.606953 238.998769 
L 373.87593 265.593986 
L 374.010418 261.228873 
L 374.144906 264.222886 
L 374.279394 263.134218 
L 374.548371 282.070768 
L 374.682859 272.086223 
L 374.817347 276.376555 
L 374.951836 274.970619 
L 375.220812 245.995524 
L 375.489788 172.831519 
L 375.624277 176.467242 
L 375.758765 184.220548 
L 375.893253 205.092183 
L 376.027741 205.841465 
L 376.296718 238.490898 
L 376.431206 233.781575 
L 376.565694 238.550891 
L 376.700182 255.724212 
L 376.83467 249.666055 
L 376.969159 266.722999 
L 377.103647 268.687442 
L 377.372623 263.062979 
L 377.507112 264.273019 
L 377.6416 274.908467 
L 377.776088 265.83414 
L 378.045064 270.537354 
L 378.179553 265.029321 
L 378.314041 277.090865 
L 378.448529 268.055965 
L 378.583017 268.618804 
L 378.717505 247.243767 
L 378.851994 261.489379 
L 378.986482 243.502981 
L 379.12097 257.810413 
L 379.255458 253.74543 
L 379.389947 266.416832 
L 379.524435 257.92609 
L 379.793411 264.978606 
L 379.927899 261.829558 
L 380.196876 270.216322 
L 380.331364 270.15567 
L 380.465852 272.194022 
L 380.60034 269.453732 
L 380.734829 270.575859 
L 380.869317 249.949253 
L 381.003805 264.130603 
L 381.272782 266.548398 
L 381.40727 265.562007 
L 381.541758 240.854003 
L 381.676246 250.435017 
L 381.945223 93.94673 
L 382.079711 166.649293 
L 382.214199 174.416027 
L 382.348687 159.00994 
L 382.617664 207.11248 
L 382.752152 203.965593 
L 382.88664 179.935363 
L 383.021128 235.035877 
L 383.155616 230.290839 
L 383.424593 268.057316 
L 383.559081 277.01464 
L 383.828058 261.601862 
L 383.962546 262.454749 
L 384.097034 247.574696 
L 384.36601 258.973924 
L 384.500499 259.459225 
L 384.634987 261.429795 
L 384.769475 257.008306 
L 384.903963 261.410106 
L 385.17294 171.87753 
L 385.441916 200.870785 
L 385.576404 182.349637 
L 385.845381 249.74803 
L 385.979869 218.369817 
L 386.114357 222.858982 
L 386.248845 260.406688 
L 386.383334 241.989246 
L 386.65231 268.135155 
L 386.786798 273.713333 
L 386.921286 265.954126 
L 387.055775 271.038875 
L 387.190263 266.050912 
L 387.324751 278.255265 
L 387.593727 269.863896 
L 387.728216 272.417718 
L 387.862704 266.467787 
L 387.997192 266.805905 
L 388.13168 269.274734 
L 388.266169 264.362697 
L 388.400657 270.81321 
L 388.535145 266.252942 
L 388.669633 271.368767 
L 388.804121 265.411542 
L 389.073098 267.673521 
L 389.207586 266.259204 
L 389.342074 270.968795 
L 389.476562 264.123578 
L 389.745539 272.073066 
L 390.014515 279.464042 
L 390.149004 273.519943 
L 390.283492 276.719841 
L 390.41798 275.530525 
L 390.552468 241.529365 
L 390.686956 264.815839 
L 390.821445 264.217508 
L 390.955933 262.881337 
L 391.090421 260.259917 
L 391.224909 246.433616 
L 391.359397 258.140848 
L 391.493886 230.483399 
L 391.628374 131.779203 
L 391.762862 191.962452 
L 391.89735 143.730738 
L 392.166327 211.427033 
L 392.300815 222.61283 
L 392.569791 202.468758 
L 392.973256 256.127999 
L 393.242232 284.993255 
L 393.376721 268.773772 
L 393.511209 267.006645 
L 393.645697 267.119658 
L 393.780185 256.010512 
L 393.914673 260.469914 
L 394.049162 269.274905 
L 394.18365 266.737459 
L 394.318138 257.458035 
L 394.452626 262.527369 
L 394.587115 244.654825 
L 394.856091 147.521344 
L 395.125067 189.737567 
L 395.259556 157.951944 
L 395.394044 185.097629 
L 395.528532 181.096275 
L 395.66302 189.127186 
L 395.797508 227.896075 
L 395.931997 215.187703 
L 396.066485 259.627769 
L 396.200973 247.385705 
L 396.46995 268.189431 
L 396.604438 265.998983 
L 396.738926 261.528022 
L 396.873414 251.048853 
L 397.007902 288.321651 
L 397.142391 272.977235 
L 397.276879 274.843059 
L 397.411367 273.880977 
L 397.545855 274.736516 
L 397.814832 243.833943 
L 397.94932 148.023479 
L 398.083808 142.478776 
L 398.218296 191.138969 
L 398.352785 159.192185 
L 398.487273 180.080953 
L 398.487273 180.080953 
" clip-path="url(#p5e6b6fe6ba)" style="fill: none; stroke: #ff7f0e; stroke-width: 1.5; stroke-linecap: square"/>
   </g>
   <g id="patch_3">
    <path d="M 57.6 307.584 
L 57.6 41.472 
" style="fill: none; stroke: #000000; stroke-width: 0.8; stroke-linejoin: miter; stroke-linecap: square"/>
   </g>
   <g id="patch_4">
    <path d="M 414.72 307.584 
L 414.72 41.472 
" style="fill: none; stroke: #000000; stroke-width: 0.8; stroke-linejoin: miter; stroke-linecap: square"/>
   </g>
   <g id="patch_5">
    <path d="M 57.6 307.584 
L 414.72 307.584 
" style="fill: none; stroke: #000000; stroke-width: 0.8; stroke-linejoin: miter; stroke-linecap: square"/>
   </g>
   <g id="patch_6">
    <path d="M 57.6 41.472 
L 414.72 41.472 
" style="fill: none; stroke: #000000; stroke-width: 0.8; stroke-linejoin: miter; stroke-linecap: square"/>
   </g>
  </g>
 </g>
 <defs>
  <clipPath id="p5e6b6fe6ba">
   <rect x="57.6" y="41.472" width="357.12" height="266.112"/>
  </clipPath>
 </defs>
</svg>
