<?xml version="1.0" encoding="utf-8" standalone="no"?>
<!DOCTYPE svg PUBLIC "-//W3C//DTD SVG 1.1//EN"
  "http://www.w3.org/Graphics/SVG/1.1/DTD/svg11.dtd">
<svg xmlns:xlink="http://www.w3.org/1999/xlink" width="460.8pt" height="345.6pt" viewBox="0 0 460.8 345.6" xmlns="http://www.w3.org/2000/svg" version="1.1">
 <metadata>
  <rdf:RDF xmlns:dc="http://purl.org/dc/elements/1.1/" xmlns:cc="http://creativecommons.org/ns#" xmlns:rdf="http://www.w3.org/1999/02/22-rdf-syntax-ns#">
   <cc:Work>
    <dc:type rdf:resource="http://purl.org/dc/dcmitype/StillImage"/>
    <dc:date>2023-04-04T06:44:09.799297</dc:date>
    <dc:format>image/svg+xml</dc:format>
    <dc:creator>
     <cc:Agent>
      <dc:title>Matplotlib v3.5.2, https://matplotlib.org/</dc:title>
     </cc:Agent>
    </dc:creator>
   </cc:Work>
  </rdf:RDF>
 </metadata>
 <defs>
  <style type="text/css">*{stroke-linejoin: round; stroke-linecap: butt}</style>
 </defs>
 <g id="figure_1">
  <g id="patch_1">
   <path d="M 0 345.6 
L 460.8 345.6 
L 460.8 0 
L 0 0 
z
" style="fill: #ffffff"/>
  </g>
  <g id="axes_1">
   <g id="patch_2">
    <path d="M 57.6 307.584 
L 414.72 307.584 
L 414.72 41.472 
L 57.6 41.472 
z
" style="fill: #ffffff"/>
   </g>
   <g id="matplotlib.axis_1">
    <g id="xtick_1">
     <g id="line2d_1">
      <defs>
       <path id="me14691d368" d="M 0 0 
L 0 3.5 
" style="stroke: #000000; stroke-width: 0.8"/>
      </defs>
      <g>
       <use xlink:href="#me14691d368" x="73.832727" y="307.584" style="stroke: #000000; stroke-width: 0.8"/>
      </g>
     </g>
     <g id="text_1">
      <!-- 0 -->
      <g transform="translate(70.651477 322.182437)scale(0.1 -0.1)">
       <defs>
        <path id="DejaVuSans-30" d="M 2034 4250 
Q 1547 4250 1301 3770 
Q 1056 3291 1056 2328 
Q 1056 1369 1301 889 
Q 1547 409 2034 409 
Q 2525 409 2770 889 
Q 3016 1369 3016 2328 
Q 3016 3291 2770 3770 
Q 2525 4250 2034 4250 
z
M 2034 4750 
Q 2819 4750 3233 4129 
Q 3647 3509 3647 2328 
Q 3647 1150 3233 529 
Q 2819 -91 2034 -91 
Q 1250 -91 836 529 
Q 422 1150 422 2328 
Q 422 3509 836 4129 
Q 1250 4750 2034 4750 
z
" transform="scale(0.015625)"/>
       </defs>
       <use xlink:href="#DejaVuSans-30"/>
      </g>
     </g>
    </g>
    <g id="xtick_2">
     <g id="line2d_2">
      <g>
       <use xlink:href="#me14691d368" x="141.076834" y="307.584" style="stroke: #000000; stroke-width: 0.8"/>
      </g>
     </g>
     <g id="text_2">
      <!-- 500 -->
      <g transform="translate(131.533084 322.182437)scale(0.1 -0.1)">
       <defs>
        <path id="DejaVuSans-35" d="M 691 4666 
L 3169 4666 
L 3169 4134 
L 1269 4134 
L 1269 2991 
Q 1406 3038 1543 3061 
Q 1681 3084 1819 3084 
Q 2600 3084 3056 2656 
Q 3513 2228 3513 1497 
Q 3513 744 3044 326 
Q 2575 -91 1722 -91 
Q 1428 -91 1123 -41 
Q 819 9 494 109 
L 494 744 
Q 775 591 1075 516 
Q 1375 441 1709 441 
Q 2250 441 2565 725 
Q 2881 1009 2881 1497 
Q 2881 1984 2565 2268 
Q 2250 2553 1709 2553 
Q 1456 2553 1204 2497 
Q 953 2441 691 2322 
L 691 4666 
z
" transform="scale(0.015625)"/>
       </defs>
       <use xlink:href="#DejaVuSans-35"/>
       <use xlink:href="#DejaVuSans-30" x="63.623047"/>
       <use xlink:href="#DejaVuSans-30" x="127.246094"/>
      </g>
     </g>
    </g>
    <g id="xtick_3">
     <g id="line2d_3">
      <g>
       <use xlink:href="#me14691d368" x="208.32094" y="307.584" style="stroke: #000000; stroke-width: 0.8"/>
      </g>
     </g>
     <g id="text_3">
      <!-- 1000 -->
      <g transform="translate(195.59594 322.182437)scale(0.1 -0.1)">
       <defs>
        <path id="DejaVuSans-31" d="M 794 531 
L 1825 531 
L 1825 4091 
L 703 3866 
L 703 4441 
L 1819 4666 
L 2450 4666 
L 2450 531 
L 3481 531 
L 3481 0 
L 794 0 
L 794 531 
z
" transform="scale(0.015625)"/>
       </defs>
       <use xlink:href="#DejaVuSans-31"/>
       <use xlink:href="#DejaVuSans-30" x="63.623047"/>
       <use xlink:href="#DejaVuSans-30" x="127.246094"/>
       <use xlink:href="#DejaVuSans-30" x="190.869141"/>
      </g>
     </g>
    </g>
    <g id="xtick_4">
     <g id="line2d_4">
      <g>
       <use xlink:href="#me14691d368" x="275.565046" y="307.584" style="stroke: #000000; stroke-width: 0.8"/>
      </g>
     </g>
     <g id="text_4">
      <!-- 1500 -->
      <g transform="translate(262.840046 322.182437)scale(0.1 -0.1)">
       <use xlink:href="#DejaVuSans-31"/>
       <use xlink:href="#DejaVuSans-35" x="63.623047"/>
       <use xlink:href="#DejaVuSans-30" x="127.246094"/>
       <use xlink:href="#DejaVuSans-30" x="190.869141"/>
      </g>
     </g>
    </g>
    <g id="xtick_5">
     <g id="line2d_5">
      <g>
       <use xlink:href="#me14691d368" x="342.809153" y="307.584" style="stroke: #000000; stroke-width: 0.8"/>
      </g>
     </g>
     <g id="text_5">
      <!-- 2000 -->
      <g transform="translate(330.084153 322.182437)scale(0.1 -0.1)">
       <defs>
        <path id="DejaVuSans-32" d="M 1228 531 
L 3431 531 
L 3431 0 
L 469 0 
L 469 531 
Q 828 903 1448 1529 
Q 2069 2156 2228 2338 
Q 2531 2678 2651 2914 
Q 2772 3150 2772 3378 
Q 2772 3750 2511 3984 
Q 2250 4219 1831 4219 
Q 1534 4219 1204 4116 
Q 875 4013 500 3803 
L 500 4441 
Q 881 4594 1212 4672 
Q 1544 4750 1819 4750 
Q 2544 4750 2975 4387 
Q 3406 4025 3406 3419 
Q 3406 3131 3298 2873 
Q 3191 2616 2906 2266 
Q 2828 2175 2409 1742 
Q 1991 1309 1228 531 
z
" transform="scale(0.015625)"/>
       </defs>
       <use xlink:href="#DejaVuSans-32"/>
       <use xlink:href="#DejaVuSans-30" x="63.623047"/>
       <use xlink:href="#DejaVuSans-30" x="127.246094"/>
       <use xlink:href="#DejaVuSans-30" x="190.869141"/>
      </g>
     </g>
    </g>
    <g id="xtick_6">
     <g id="line2d_6">
      <g>
       <use xlink:href="#me14691d368" x="410.053259" y="307.584" style="stroke: #000000; stroke-width: 0.8"/>
      </g>
     </g>
     <g id="text_6">
      <!-- 2500 -->
      <g transform="translate(397.328259 322.182437)scale(0.1 -0.1)">
       <use xlink:href="#DejaVuSans-32"/>
       <use xlink:href="#DejaVuSans-35" x="63.623047"/>
       <use xlink:href="#DejaVuSans-30" x="127.246094"/>
       <use xlink:href="#DejaVuSans-30" x="190.869141"/>
      </g>
     </g>
    </g>
   </g>
   <g id="matplotlib.axis_2">
    <g id="ytick_1">
     <g id="line2d_7">
      <defs>
       <path id="m2a5eb619c5" d="M 0 0 
L -3.5 0 
" style="stroke: #000000; stroke-width: 0.8"/>
      </defs>
      <g>
       <use xlink:href="#m2a5eb619c5" x="57.6" y="279.883101" style="stroke: #000000; stroke-width: 0.8"/>
      </g>
     </g>
     <g id="text_7">
      <!-- 100 -->
      <g transform="translate(31.5125 283.68232)scale(0.1 -0.1)">
       <use xlink:href="#DejaVuSans-31"/>
       <use xlink:href="#DejaVuSans-30" x="63.623047"/>
       <use xlink:href="#DejaVuSans-30" x="127.246094"/>
      </g>
     </g>
    </g>
    <g id="ytick_2">
     <g id="line2d_8">
      <g>
       <use xlink:href="#m2a5eb619c5" x="57.6" y="232.195551" style="stroke: #000000; stroke-width: 0.8"/>
      </g>
     </g>
     <g id="text_8">
      <!-- 200 -->
      <g transform="translate(31.5125 235.994769)scale(0.1 -0.1)">
       <use xlink:href="#DejaVuSans-32"/>
       <use xlink:href="#DejaVuSans-30" x="63.623047"/>
       <use xlink:href="#DejaVuSans-30" x="127.246094"/>
      </g>
     </g>
    </g>
    <g id="ytick_3">
     <g id="line2d_9">
      <g>
       <use xlink:href="#m2a5eb619c5" x="57.6" y="184.508" style="stroke: #000000; stroke-width: 0.8"/>
      </g>
     </g>
     <g id="text_9">
      <!-- 300 -->
      <g transform="translate(31.5125 188.307219)scale(0.1 -0.1)">
       <defs>
        <path id="DejaVuSans-33" d="M 2597 2516 
Q 3050 2419 3304 2112 
Q 3559 1806 3559 1356 
Q 3559 666 3084 287 
Q 2609 -91 1734 -91 
Q 1441 -91 1130 -33 
Q 819 25 488 141 
L 488 750 
Q 750 597 1062 519 
Q 1375 441 1716 441 
Q 2309 441 2620 675 
Q 2931 909 2931 1356 
Q 2931 1769 2642 2001 
Q 2353 2234 1838 2234 
L 1294 2234 
L 1294 2753 
L 1863 2753 
Q 2328 2753 2575 2939 
Q 2822 3125 2822 3475 
Q 2822 3834 2567 4026 
Q 2313 4219 1838 4219 
Q 1578 4219 1281 4162 
Q 984 4106 628 3988 
L 628 4550 
Q 988 4650 1302 4700 
Q 1616 4750 1894 4750 
Q 2613 4750 3031 4423 
Q 3450 4097 3450 3541 
Q 3450 3153 3228 2886 
Q 3006 2619 2597 2516 
z
" transform="scale(0.015625)"/>
       </defs>
       <use xlink:href="#DejaVuSans-33"/>
       <use xlink:href="#DejaVuSans-30" x="63.623047"/>
       <use xlink:href="#DejaVuSans-30" x="127.246094"/>
      </g>
     </g>
    </g>
    <g id="ytick_4">
     <g id="line2d_10">
      <g>
       <use xlink:href="#m2a5eb619c5" x="57.6" y="136.820449" style="stroke: #000000; stroke-width: 0.8"/>
      </g>
     </g>
     <g id="text_10">
      <!-- 400 -->
      <g transform="translate(31.5125 140.619668)scale(0.1 -0.1)">
       <defs>
        <path id="DejaVuSans-34" d="M 2419 4116 
L 825 1625 
L 2419 1625 
L 2419 4116 
z
M 2253 4666 
L 3047 4666 
L 3047 1625 
L 3713 1625 
L 3713 1100 
L 3047 1100 
L 3047 0 
L 2419 0 
L 2419 1100 
L 313 1100 
L 313 1709 
L 2253 4666 
z
" transform="scale(0.015625)"/>
       </defs>
       <use xlink:href="#DejaVuSans-34"/>
       <use xlink:href="#DejaVuSans-30" x="63.623047"/>
       <use xlink:href="#DejaVuSans-30" x="127.246094"/>
      </g>
     </g>
    </g>
    <g id="ytick_5">
     <g id="line2d_11">
      <g>
       <use xlink:href="#m2a5eb619c5" x="57.6" y="89.132898" style="stroke: #000000; stroke-width: 0.8"/>
      </g>
     </g>
     <g id="text_11">
      <!-- 500 -->
      <g transform="translate(31.5125 92.932117)scale(0.1 -0.1)">
       <use xlink:href="#DejaVuSans-35"/>
       <use xlink:href="#DejaVuSans-30" x="63.623047"/>
       <use xlink:href="#DejaVuSans-30" x="127.246094"/>
      </g>
     </g>
    </g>
   </g>
   <g id="line2d_12">
    <path d="M 73.832727 282.94655 
L 74.101704 282.39862 
L 74.236192 281.290838 
L 74.37068 282.252219 
L 74.505168 281.761037 
L 74.639657 282.361423 
L 74.774145 275.906436 
L 74.908633 248.860919 
L 75.177609 247.371637 
L 75.312098 247.925766 
L 75.446586 247.978222 
L 75.581074 248.842798 
L 75.715562 248.088381 
L 75.85005 248.066444 
L 76.253515 243.093587 
L 76.522492 277.065721 
L 76.65698 277.378074 
L 76.925956 275.675629 
L 77.060444 266.841987 
L 77.194933 269.079964 
L 77.463909 269.143388 
L 77.598397 270.723753 
L 77.732885 265.410883 
L 77.867374 252.037387 
L 78.405327 103.981371 
L 78.674303 103.061955 
L 78.808791 110.182183 
L 78.943279 105.391492 
L 79.481232 157.957479 
L 79.750209 228.156892 
L 80.019185 262.791406 
L 80.153673 264.910164 
L 80.288161 261.085146 
L 80.42265 271.454804 
L 80.557138 271.021324 
L 80.826114 273.522536 
L 80.960603 270.988896 
L 81.095091 260.701261 
L 81.364067 168.119219 
L 81.498555 180.388749 
L 81.767532 161.033326 
L 82.036508 169.015745 
L 82.170996 165.922731 
L 82.305485 159.963218 
L 83.112414 260.224385 
L 83.650367 286.341426 
L 83.784855 286.361932 
L 83.919343 287.886503 
L 84.053831 288.078207 
L 84.18832 285.986631 
L 84.322808 278.780565 
L 84.726273 188.878564 
L 84.860761 180.235672 
L 84.995249 184.321542 
L 85.129737 169.477838 
L 85.264225 177.997695 
L 85.398714 178.743052 
L 85.66769 187.017796 
L 85.802178 195.765123 
L 86.340131 262.344574 
L 86.474619 264.35222 
L 86.609107 269.249731 
L 86.878084 286.72245 
L 87.012572 288.96758 
L 87.14706 288.641874 
L 87.281549 290.128772 
L 87.416037 290.031966 
L 87.550525 289.222708 
L 87.819501 261.790445 
L 87.95399 261.935892 
L 88.088478 256.264411 
L 88.222966 257.720312 
L 88.357454 256.964464 
L 88.491942 253.614891 
L 88.626431 256.442286 
L 88.760919 249.466551 
L 88.895407 252.336388 
L 89.029895 252.334957 
L 89.164384 254.889102 
L 89.43336 276.134383 
L 89.567848 277.793433 
L 89.702336 277.296529 
L 89.836825 278.353762 
L 89.971313 263.243961 
L 90.105801 263.955459 
L 90.240289 265.495767 
L 90.374777 265.265913 
L 90.509266 266.498636 
L 90.643754 266.669835 
L 90.778242 268.763795 
L 90.91273 265.549177 
L 91.047218 255.636366 
L 91.181707 254.468498 
L 91.316195 247.555234 
L 91.450683 251.978254 
L 91.585171 250.017342 
L 91.71966 251.51187 
L 91.854148 251.737432 
L 92.123124 254.712658 
L 92.257612 254.141361 
L 92.526589 259.722235 
L 92.795565 266.302641 
L 92.930053 267.255438 
L 93.064542 266.117613 
L 93.19903 276.111016 
L 93.468006 276.235481 
L 93.602495 277.293667 
L 93.736983 276.062375 
L 93.871471 273.544949 
L 94.005959 268.337468 
L 94.6784 161.319928 
L 94.812888 156.93172 
L 95.081865 168.767293 
L 95.216353 163.561243 
L 95.350841 152.317473 
L 96.023282 264.678403 
L 96.157771 265.406592 
L 96.426747 269.326508 
L 96.561235 268.993649 
L 96.695723 269.070903 
L 96.830212 270.950269 
L 96.9647 270.313641 
L 97.099188 268.888736 
L 97.233676 260.436118 
L 97.368164 242.904267 
L 97.502653 201.95449 
L 97.637141 194.870982 
L 97.771629 179.425461 
L 97.906117 187.806548 
L 98.040606 181.105016 
L 98.175094 181.813653 
L 98.309582 176.503644 
L 98.44407 178.143142 
L 98.713047 189.49278 
L 98.982023 231.367218 
L 99.250999 266.15767 
L 99.385488 270.836296 
L 99.519976 271.589282 
L 99.654464 281.378106 
L 99.788952 281.390505 
L 99.923441 280.390974 
L 100.192417 281.627035 
L 100.326905 281.707627 
L 100.461393 281.053831 
L 100.595882 281.459175 
L 100.73037 282.286554 
L 100.864858 280.750538 
L 100.999346 281.904577 
L 101.133834 280.998036 
L 101.268323 278.786288 
L 101.402811 271.772403 
L 101.537299 276.037577 
L 101.806276 265.668396 
L 101.940764 267.825781 
L 102.075252 267.677473 
L 102.20974 268.324593 
L 102.344228 270.699433 
L 102.478717 276.508253 
L 102.613205 274.65893 
L 102.747693 280.319919 
L 102.882181 266.883952 
L 103.016669 266.912564 
L 103.151158 271.81103 
L 103.285646 271.592144 
L 103.554622 267.418052 
L 103.68911 263.236331 
L 103.823599 245.838482 
L 104.092575 183.67013 
L 104.227063 162.221223 
L 104.361552 169.374356 
L 104.630528 144.539633 
L 105.033993 159.832554 
L 105.168481 170.595157 
L 105.706434 253.526192 
L 105.840922 253.404112 
L 105.97541 262.088969 
L 106.109898 278.494917 
L 106.378875 281.679014 
L 106.513363 281.665185 
L 106.647851 283.818755 
L 106.782339 283.550751 
L 106.916828 284.66044 
L 107.320292 247.148936 
L 107.45478 254.201448 
L 107.589269 251.671623 
L 107.723757 251.764137 
L 108.26171 246.709257 
L 108.396198 243.307704 
L 108.530686 245.563802 
L 108.934151 277.122946 
L 109.068639 278.635595 
L 109.203127 277.570255 
L 109.337615 273.081903 
L 109.606592 274.627933 
L 109.875568 275.67849 
L 110.144545 276.725709 
L 110.413521 275.490124 
L 110.548009 275.355645 
L 110.951474 271.313172 
L 111.085962 272.484378 
L 111.22045 272.137689 
L 111.623915 266.353189 
L 111.758403 266.860108 
L 112.02738 270.634101 
L 112.430844 272.228296 
L 112.565333 262.008377 
L 112.834309 266.199159 
L 112.968797 266.721337 
L 113.103285 268.226833 
L 113.237774 268.404708 
L 113.50675 271.015124 
L 113.641238 271.84298 
L 114.313679 260.640698 
L 114.448168 260.280657 
L 114.582656 258.80282 
L 114.98612 248.003974 
L 115.524073 259.03315 
L 115.658561 259.581557 
L 115.927538 261.800459 
L 116.062026 260.520525 
L 116.196514 266.59878 
L 116.331002 266.182945 
L 116.465491 266.791915 
L 116.599979 257.067946 
L 117.137932 79.036967 
L 117.406908 64.388782 
L 117.810373 80.867692 
L 118.213837 147.822444 
L 118.482814 209.933571 
L 118.75179 244.239995 
L 118.886279 245.768381 
L 119.289743 253.733156 
L 119.424231 255.146138 
L 119.55872 257.907247 
L 119.693208 258.222939 
L 119.827696 248.642033 
L 120.365649 91.847751 
L 120.634625 73.348796 
L 120.769114 77.026937 
L 120.903602 70.630606 
L 121.03809 71.953935 
L 121.441555 135.156154 
L 121.710531 201.746096 
L 121.845019 229.824526 
L 122.248484 240.749743 
L 122.51746 256.209571 
L 122.651948 256.36837 
L 122.786437 258.100859 
L 122.920925 256.76513 
L 123.055413 248.633926 
L 123.727854 60.446452 
L 123.862342 53.568 
L 124.534783 107.504527 
L 125.072736 247.937688 
L 125.207225 253.089851 
L 125.341713 253.551466 
L 125.476201 253.50521 
L 125.745177 267.055627 
L 125.879666 268.487207 
L 126.014154 268.716108 
L 126.28313 255.313521 
L 126.821083 92.949333 
L 126.955571 74.664496 
L 127.09006 81.238701 
L 127.359036 105.687632 
L 127.493524 108.121604 
L 127.762501 126.551889 
L 127.896989 149.272146 
L 128.300453 246.325849 
L 128.434942 252.107011 
L 128.56943 250.2863 
L 128.703918 257.76037 
L 128.838406 258.481882 
L 129.241871 265.150986 
L 129.510847 244.514676 
L 130.0488 83.40467 
L 130.183288 74.328775 
L 130.317777 86.204406 
L 130.452265 114.92471 
L 130.586753 114.009586 
L 130.721241 110.375318 
L 130.855729 116.74256 
L 131.124706 169.824526 
L 131.393682 235.234201 
L 131.662659 258.252505 
L 131.931635 258.056986 
L 132.066123 257.875297 
L 132.3351 269.106669 
L 132.469588 268.958837 
L 132.604076 269.05755 
L 132.738564 269.016062 
L 133.007541 257.167613 
L 133.276517 246.745499 
L 133.679982 241.187515 
L 133.81447 240.009633 
L 133.948958 234.929001 
L 134.486911 244.770281 
L 134.755888 251.831376 
L 134.890376 251.716926 
L 135.697305 265.907788 
L 135.831793 270.640777 
L 135.966282 271.24784 
L 136.10077 269.272621 
L 136.235258 270.770487 
L 136.369746 270.497238 
L 136.504234 266.213465 
L 136.638723 266.055142 
L 136.907699 264.127611 
L 137.311164 253.284893 
L 137.445652 253.792765 
L 137.58014 251.120355 
L 137.983605 257.908201 
L 138.118093 257.009768 
L 138.252581 258.837631 
L 138.387069 263.312631 
L 138.521558 262.0842 
L 138.656046 262.284488 
L 138.925022 266.962159 
L 139.193999 250.779389 
L 139.731951 81.557731 
L 139.86644 72.674017 
L 140.269904 98.586955 
L 140.538881 122.923343 
L 140.673369 129.987777 
L 140.807857 144.294519 
L 141.076834 224.106311 
L 141.480298 257.172382 
L 142.018251 265.579697 
L 142.152739 265.117605 
L 142.421716 241.469349 
L 142.959669 91.519183 
L 143.094157 84.130474 
L 143.228645 83.644538 
L 143.363133 93.832507 
L 143.497621 84.592567 
L 143.63211 89.70038 
L 144.573527 258.415597 
L 144.708015 261.892496 
L 144.842504 262.067509 
L 145.11148 264.301671 
L 145.245968 266.43712 
L 145.380456 262.37414 
L 145.783921 201.430881 
L 146.052897 110.073456 
L 146.187386 91.022279 
L 146.456362 106.279911 
L 146.59085 117.560878 
L 146.725339 111.890828 
L 146.859827 119.278107 
L 146.994315 114.218935 
L 147.128803 127.032579 
L 147.532268 233.922794 
L 147.801244 259.848131 
L 147.935732 260.049849 
L 148.204709 265.304063 
L 148.339197 265.282604 
L 148.473685 265.784754 
L 148.742662 264.734674 
L 148.87715 247.102202 
L 149.280615 119.142674 
L 149.415103 115.114984 
L 149.549591 106.058164 
L 149.684079 107.310439 
L 150.087544 139.932062 
L 150.222032 132.260566 
L 150.35652 137.765616 
L 150.894473 252.289177 
L 151.028961 261.436603 
L 151.16345 260.481421 
L 151.835891 268.635039 
L 151.970379 267.366073 
L 152.104867 246.47225 
L 152.508332 113.148826 
L 152.64282 116.24947 
L 152.911796 104.42725 
L 153.046285 118.539427 
L 153.180773 117.042514 
L 153.449749 151.425238 
L 153.718726 192.264857 
L 153.987702 248.741223 
L 154.12219 265.747558 
L 154.256678 267.122866 
L 154.525655 270.975067 
L 154.794631 272.674651 
L 155.063608 275.611727 
L 155.198096 277.249318 
L 155.332584 276.607443 
L 155.467072 272.237833 
L 155.601561 261.789014 
L 155.736049 260.930161 
L 155.870537 258.072246 
L 156.005025 260.205787 
L 156.274002 258.313545 
L 156.40849 258.8486 
L 156.542978 260.098967 
L 156.677466 258.905348 
L 157.215419 266.893966 
L 157.349907 268.894936 
L 157.484396 267.905419 
L 157.618884 268.673666 
L 157.88786 271.84155 
L 158.022348 272.321286 
L 158.291325 275.312726 
L 158.560301 279.583147 
L 158.694789 278.020902 
L 158.829278 278.98276 
L 158.963766 278.587431 
L 159.232742 275.880208 
L 159.367231 276.161565 
L 159.501719 274.183008 
L 160.039672 260.135687 
L 160.308648 260.394153 
L 160.443136 266.098538 
L 160.577624 265.815751 
L 160.712113 263.86533 
L 160.846601 264.565383 
L 160.981089 266.053712 
L 161.250066 269.800999 
L 161.519042 270.749982 
L 161.788018 254.028819 
L 162.460459 83.829566 
L 162.594948 83.493846 
L 162.729436 82.038422 
L 162.998412 101.579349 
L 163.132901 110.50169 
L 163.401877 151.662722 
L 163.670853 222.212162 
L 164.074318 256.214816 
L 164.208806 257.345011 
L 164.477783 269.967906 
L 164.612271 272.323194 
L 164.746759 267.633123 
L 165.015735 250.168988 
L 165.4192 120.751175 
L 165.553688 123.34347 
L 165.822665 109.486899 
L 165.957153 114.728714 
L 166.091641 111.651914 
L 166.360618 100.227884 
L 166.495106 106.405329 
L 166.89857 221.315159 
L 167.033059 228.268481 
L 167.302035 246.60959 
L 167.974476 265.025091 
L 168.108964 259.366486 
L 168.243453 245.39165 
L 168.377941 207.416145 
L 168.646917 106.231747 
L 168.781405 107.511204 
L 168.915894 102.997577 
L 169.050382 104.294201 
L 169.18487 108.079639 
L 169.319358 92.792918 
L 169.453847 95.264564 
L 169.857311 148.4977 
L 170.126288 226.486397 
L 170.395264 257.219593 
L 170.529752 258.097044 
L 170.66424 261.524825 
L 170.798729 261.713668 
L 171.067705 264.034621 
L 171.202193 266.861539 
L 171.47117 245.132229 
L 172.009123 110.283281 
L 172.143611 108.711022 
L 172.412587 96.985131 
L 172.95054 129.399313 
L 173.622981 259.183843 
L 173.757469 263.162415 
L 173.891958 276.506823 
L 174.026446 275.580254 
L 174.160934 275.536381 
L 174.42991 277.063336 
L 174.698887 262.311669 
L 174.833375 245.233327 
L 175.102351 176.893729 
L 175.371328 143.608295 
L 175.505816 140.716045 
L 175.640304 150.855849 
L 175.774792 150.546357 
L 175.909281 151.951709 
L 176.043769 156.746215 
L 176.178257 156.439108 
L 176.312745 170.876037 
L 176.581722 238.366797 
L 176.850698 265.42519 
L 176.985186 262.93733 
L 177.254163 267.660305 
L 177.388651 267.61691 
L 177.792116 274.159641 
L 177.926604 275.048061 
L 178.19558 264.357942 
L 178.330069 263.91874 
L 178.599045 256.369801 
L 178.733533 255.805657 
L 178.868021 258.108489 
L 179.136998 254.606315 
L 179.271486 255.200979 
L 179.540462 252.720749 
L 179.809439 260.210556 
L 179.943927 267.465263 
L 180.212904 265.567775 
L 180.48188 275.414301 
L 180.616368 275.42813 
L 180.750856 275.799616 
L 180.885345 276.62938 
L 181.019833 276.715694 
L 181.692274 264.430427 
L 181.826762 265.723714 
L 181.96125 259.751802 
L 182.095738 261.530547 
L 182.364715 266.958344 
L 182.499203 268.233986 
L 182.633691 271.375642 
L 182.902668 270.559231 
L 183.171644 276.678498 
L 183.306132 278.091957 
L 183.440621 276.984175 
L 183.575109 274.686589 
L 183.844085 286.397698 
L 183.978573 287.347157 
L 184.113062 285.072461 
L 184.382038 273.707563 
L 184.919991 182.147943 
L 185.054479 186.156082 
L 185.188967 179.096417 
L 185.457944 182.949571 
L 185.592432 184.446006 
L 185.995897 222.13157 
L 186.264873 252.672585 
L 186.53385 268.400416 
L 186.802826 278.635595 
L 187.071802 289.113504 
L 187.206291 287.965187 
L 187.340779 289.09729 
L 187.475267 285.925591 
L 187.609755 277.941741 
L 188.01322 202.170515 
L 188.147708 185.800809 
L 188.282196 186.019218 
L 188.416684 185.062606 
L 188.551173 188.368784 
L 188.685661 194.758916 
L 188.820149 190.35497 
L 188.954637 194.782283 
L 189.089126 203.140003 
L 189.627078 265.031291 
L 189.761567 267.615479 
L 189.896055 272.842034 
L 190.030543 270.410446 
L 190.299519 272.238787 
L 190.434008 271.069488 
L 190.971961 274.488209 
L 191.106449 271.041829 
L 191.240937 270.557324 
L 191.375425 270.995096 
L 191.509913 266.573983 
L 191.644402 268.12049 
L 191.913378 266.85677 
L 192.182354 261.230116 
L 192.316843 261.578235 
L 192.451331 261.080854 
L 192.585819 262.399415 
L 192.720307 268.159594 
L 192.989284 269.415207 
L 193.392748 266.732305 
L 193.661725 269.609772 
L 193.796213 270.143396 
L 194.065189 262.269228 
L 194.603142 158.689483 
L 194.73763 153.785772 
L 194.872119 143.850071 
L 195.006607 145.423283 
L 195.141095 150.159611 
L 195.275583 142.772809 
L 195.54456 156.144875 
L 195.948024 250.021157 
L 196.217001 260.34122 
L 196.351489 262.264936 
L 196.485977 271.723285 
L 196.620465 271.071873 
L 196.889442 271.627909 
L 197.02393 272.754766 
L 197.158418 271.027523 
L 197.292907 264.715599 
L 197.830859 196.103705 
L 197.965348 198.411782 
L 198.099836 195.098928 
L 198.234324 199.496197 
L 198.5033 186.190894 
L 198.772277 199.970211 
L 199.31023 272.39854 
L 199.713694 281.497325 
L 199.848183 280.330411 
L 200.117159 281.057169 
L 200.251647 279.276516 
L 200.386135 273.506322 
L 200.520624 273.103839 
L 200.655112 260.165253 
L 200.7896 213.013233 
L 200.924088 211.046122 
L 201.058576 199.379839 
L 201.193065 199.022183 
L 201.327553 196.341189 
L 201.462041 198.510495 
L 201.731018 186.728332 
L 201.865506 188.087427 
L 202.134482 210.748552 
L 202.403459 264.140964 
L 202.806923 273.925019 
L 203.0759 265.466201 
L 203.210388 269.786693 
L 203.344876 269.912588 
L 203.748341 260.550091 
L 203.882829 243.188962 
L 204.151805 181.321041 
L 204.420782 164.873605 
L 204.55527 159.25315 
L 204.689758 162.684746 
L 204.824246 156.194947 
L 204.958735 172.194597 
L 205.093223 172.440665 
L 205.765664 259.970211 
L 205.900152 260.480468 
L 206.03464 264.274966 
L 206.169129 279.101979 
L 206.303617 279.582193 
L 206.572593 283.514985 
L 206.84157 284.325197 
L 207.110546 274.950778 
L 207.379522 265.781416 
L 207.514011 264.904919 
L 207.917475 273.010848 
L 208.051964 272.764781 
L 208.32094 266.413276 
L 208.589916 268.012716 
L 208.858893 276.05236 
L 208.993381 279.700458 
L 209.127869 280.2832 
L 209.262357 279.740039 
L 209.396846 273.894022 
L 209.531334 274.989882 
L 209.80031 274.575477 
L 209.934799 275.564994 
L 210.203775 263.401807 
L 211.010704 108.505012 
L 211.279681 134.089383 
L 211.683145 167.141625 
L 212.221098 254.652572 
L 212.355586 257.112773 
L 212.759051 272.331301 
L 212.893539 272.124337 
L 213.028027 272.224481 
L 213.162516 274.869709 
L 213.431492 257.191457 
L 213.56598 219.165881 
L 213.834957 135.366456 
L 213.969445 139.945414 
L 214.103933 138.855754 
L 214.238421 141.812859 
L 214.910862 180.080211 
L 215.448815 260.263489 
L 215.583303 265.222994 
L 215.717792 265.840071 
L 216.121256 270.097139 
L 216.255745 271.053274 
L 216.390233 273.44099 
L 216.524721 269.43762 
L 216.659209 261.928262 
L 217.062674 148.98602 
L 217.197162 150.895907 
L 217.33165 150.976499 
L 217.466138 162.428187 
L 217.600627 161.145869 
L 217.735115 149.304573 
L 217.869603 154.529221 
L 218.273068 196.67214 
L 218.542044 255.425587 
L 218.811021 272.204929 
L 218.945509 264.794283 
L 219.483462 275.502523 
L 219.61795 277.298913 
L 219.886926 263.563468 
L 220.290391 162.088652 
L 220.693856 150.440967 
L 220.828344 161.093412 
L 220.962832 157.176834 
L 221.231808 184.301513 
L 221.500785 198.152362 
L 221.769761 255.289201 
L 222.038738 270.905443 
L 222.173226 270.15341 
L 222.307714 271.377073 
L 222.576691 277.42147 
L 222.845667 280.057638 
L 222.980155 278.387143 
L 223.114643 280.258402 
L 223.38362 259.727958 
L 223.518108 263.588742 
L 223.652596 263.432327 
L 223.921573 256.477575 
L 224.190549 255.805657 
L 224.325037 258.292563 
L 224.459525 257.664518 
L 224.728502 253.808502 
L 225.131967 261.07227 
L 225.266455 259.58728 
L 225.535431 261.058441 
L 225.669919 259.746556 
L 226.073384 269.507721 
L 226.34236 272.536834 
L 226.476849 272.464826 
L 226.745825 269.319832 
L 226.880313 271.602635 
L 227.014802 271.845842 
L 227.14929 271.548748 
L 227.283778 270.12909 
L 227.418266 271.806261 
L 227.552754 271.935017 
L 227.687243 271.765726 
L 227.956219 270.656514 
L 228.090707 276.474395 
L 228.225195 276.513499 
L 228.359684 277.615558 
L 228.494172 276.842543 
L 228.62866 277.813938 
L 228.763148 277.699488 
L 228.897637 275.410486 
L 229.301101 276.314642 
L 229.435589 270.09857 
L 229.570078 256.00976 
L 230.242519 94.512531 
L 230.377007 79.669781 
L 230.511495 109.661435 
L 230.780471 117.615719 
L 231.049448 145.09567 
L 231.587401 253.850467 
L 231.856377 265.078024 
L 232.125354 269.894467 
L 232.39433 274.553064 
L 232.528818 273.739037 
L 232.797795 256.628267 
L 232.932283 220.343287 
L 233.201259 133.150892 
L 233.335748 124.972 
L 233.470236 135.272511 
L 233.604724 135.494735 
L 233.739212 148.291689 
L 233.8737 133.549083 
L 234.008189 140.274458 
L 234.815118 264.496236 
L 234.949606 264.229663 
L 235.218583 270.135766 
L 235.622047 277.876409 
L 235.756535 277.278407 
L 236.025512 264.617363 
L 236.563465 128.993968 
L 236.832441 116.777848 
L 237.63937 200.501928 
L 237.908347 258.595379 
L 238.177323 266.687002 
L 238.849764 281.610344 
L 238.984252 280.78535 
L 239.118741 276.985606 
L 239.253229 263.080393 
L 239.791182 128.223814 
L 240.194646 145.965014 
L 240.463623 165.098213 
L 240.732599 178.559455 
L 241.270552 256.062693 
L 241.674017 261.940183 
L 241.942993 274.88783 
L 242.077481 281.389551 
L 242.21197 280.763413 
L 242.480946 262.789499 
L 242.884411 151.012264 
L 243.018899 158.88691 
L 243.153387 156.639395 
L 243.287875 145.657429 
L 243.422363 153.640802 
L 243.556852 150.82819 
L 243.825828 167.474007 
L 244.229293 239.4865 
L 244.498269 261.87962 
L 244.767246 267.15434 
L 245.17071 275.014202 
L 245.305198 275.879255 
L 245.439687 275.583592 
L 245.574175 274.354684 
L 245.708663 262.896319 
L 245.843151 268.345575 
L 246.112128 265.363196 
L 246.381104 260.183374 
L 246.515592 260.149993 
L 247.188033 270.393756 
L 247.322522 270.7991 
L 247.45701 271.666059 
L 247.591498 271.311741 
L 247.725986 274.474856 
L 247.860475 273.037077 
L 248.129451 274.360406 
L 248.263939 273.477233 
L 248.398427 274.159641 
L 248.532916 274.006564 
L 248.667404 275.951263 
L 248.801892 275.85255 
L 249.205357 277.39095 
L 249.339845 277.507308 
L 249.608821 276.559279 
L 249.743309 276.690897 
L 249.877798 276.390942 
L 250.550239 273.226396 
L 250.819215 273.526351 
L 250.953703 274.304612 
L 251.088192 273.169171 
L 251.357168 274.426215 
L 251.491656 283.318989 
L 251.626144 282.829715 
L 251.760633 283.259857 
L 251.895121 283.100103 
L 252.164097 270.864432 
L 252.70205 143.545824 
L 252.836538 163.266057 
L 252.971027 159.824447 
L 253.240003 172.723452 
L 253.374491 174.075394 
L 253.508979 171.152148 
L 253.777956 203.946876 
L 254.046932 255.26488 
L 254.315909 276.575016 
L 254.719373 284.923675 
L 254.853862 284.683807 
L 255.122838 286.415819 
L 255.391814 265.666966 
L 255.660791 172.514104 
L 255.795279 175.958576 
L 256.198744 160.298461 
L 256.333232 163.968972 
L 256.46772 161.306576 
L 256.602208 162.501626 
L 257.409138 257.504764 
L 257.812602 264.97025 
L 258.081579 280.164458 
L 258.216067 281.227413 
L 258.350555 280.498748 
L 258.619532 266.339837 
L 258.888508 177.314333 
L 259.022996 178.182723 
L 259.157484 169.137349 
L 259.291973 168.562237 
L 259.426461 153.090488 
L 259.695437 166.779199 
L 259.829925 155.657032 
L 259.964414 164.722435 
L 260.771343 260.572505 
L 261.040319 262.809051 
L 261.309296 270.301719 
L 261.443784 273.512998 
L 261.71276 270.601196 
L 261.847249 258.220555 
L 262.116225 170.13688 
L 262.250713 174.30048 
L 262.654178 147.893498 
L 262.788666 155.187786 
L 262.923154 150.421892 
L 263.326619 185.540435 
L 263.461107 196.428934 
L 263.864572 245.161796 
L 264.268036 263.18912 
L 264.402525 262.432319 
L 264.671501 265.859146 
L 264.805989 265.733251 
L 264.940478 264.783315 
L 265.074966 257.221977 
L 265.209454 238.122636 
L 265.612919 123.929074 
L 265.881895 105.833079 
L 266.016383 115.326239 
L 266.150871 115.195576 
L 266.28536 114.747789 
L 266.419848 119.374912 
L 266.688824 156.615551 
L 266.957801 235.356281 
L 267.226777 252.006867 
L 267.361265 250.585778 
L 267.495754 266.939269 
L 267.630242 266.623578 
L 267.76473 268.491022 
L 267.899218 268.801945 
L 268.168195 275.317018 
L 268.302683 276.201146 
L 268.437171 273.641755 
L 268.706147 276.175871 
L 268.975124 272.684189 
L 269.2441 270.801007 
L 269.916541 256.320206 
L 270.320006 258.208156 
L 270.588982 263.090884 
L 270.723471 277.176833 
L 270.857959 278.215945 
L 270.992447 276.739061 
L 271.126935 277.621758 
L 271.261424 277.651324 
L 271.395912 277.465342 
L 271.799376 280.240758 
L 271.933865 278.856388 
L 272.068353 279.211184 
L 272.202841 278.566925 
L 272.337329 278.802978 
L 272.471817 277.960339 
L 272.606306 275.796278 
L 272.740794 277.07812 
L 272.875282 276.755752 
L 273.00977 276.079065 
L 273.144258 273.74619 
L 273.278747 273.646523 
L 273.547723 276.62318 
L 273.682211 276.837297 
L 273.8167 277.52066 
L 273.951188 276.659423 
L 274.085676 287.304715 
L 274.354652 288.936583 
L 274.489141 287.365278 
L 274.758117 272.649854 
L 275.29607 166.162122 
L 275.565046 153.925497 
L 275.699535 154.262648 
L 275.834023 172.216534 
L 275.968511 174.498383 
L 276.102999 184.654878 
L 276.77544 263.973581 
L 277.447881 281.375245 
L 277.58237 284.772029 
L 277.716858 284.380991 
L 277.851346 279.982291 
L 277.985834 269.997949 
L 278.389299 209.484831 
L 278.523787 189.997314 
L 278.658275 187.998729 
L 278.792763 178.482201 
L 278.927252 190.613914 
L 279.06174 184.792695 
L 279.196228 186.883794 
L 279.330716 194.580564 
L 280.137646 274.348007 
L 280.272134 276.734769 
L 280.406622 268.377049 
L 280.54111 268.092831 
L 280.810087 269.264038 
L 280.944575 268.640761 
L 281.213551 260.720336 
L 281.348039 231.764932 
L 281.482528 161.285116 
L 281.617016 151.074258 
L 281.751504 127.669685 
L 281.885992 128.821816 
L 282.154969 142.335038 
L 282.289457 124.213768 
L 282.423945 128.302976 
L 282.558433 137.41559 
L 282.82741 185.874725 
L 283.096386 254.450377 
L 283.365363 261.082284 
L 283.499851 263.290218 
L 283.634339 262.618777 
L 283.768827 262.629269 
L 283.903316 262.818588 
L 284.037804 264.123796 
L 284.172292 264.25303 
L 284.441268 259.057948 
L 285.113709 143.744682 
L 285.248198 142.668374 
L 285.382686 138.129949 
L 285.517174 147.374658 
L 285.651662 144.272583 
L 285.78615 147.762835 
L 286.055127 200.909656 
L 286.324103 250.501371 
L 286.59308 260.18242 
L 286.727568 260.060817 
L 286.862056 279.004697 
L 286.996544 279.063829 
L 287.131033 278.085758 
L 287.265521 278.691389 
L 287.668985 275.163941 
L 287.803474 276.041392 
L 288.07245 275.166326 
L 288.206938 272.994635 
L 288.341427 272.939317 
L 288.475915 270.592613 
L 288.610403 270.221604 
L 288.744891 269.097608 
L 288.879379 271.925957 
L 289.013868 272.265492 
L 289.148356 269.454788 
L 289.417332 276.609828 
L 289.55182 277.796771 
L 289.820797 277.435299 
L 289.955285 278.225482 
L 290.089773 276.726185 
L 290.224262 278.27317 
L 290.35875 277.366152 
L 290.493238 278.346132 
L 290.627726 276.804393 
L 291.031191 258.826663 
L 291.300167 192.642542 
L 291.434655 187.05833 
L 291.569144 187.665869 
L 291.703632 191.728849 
L 291.972608 178.984351 
L 292.376073 192.063615 
L 293.048514 268.45478 
L 293.183002 269.701332 
L 293.31749 268.549678 
L 293.451979 269.301234 
L 293.586467 268.371803 
L 293.720955 270.846787 
L 293.855443 271.110023 
L 294.258908 247.190424 
L 294.527884 189.205224 
L 294.796861 157.524953 
L 294.931349 141.656921 
L 295.065837 141.522919 
L 295.200325 149.49437 
L 295.334814 143.774725 
L 295.60379 171.830265 
L 295.738278 186.31965 
L 296.141743 256.517632 
L 296.276231 255.627782 
L 296.410719 262.825741 
L 296.545208 280.502086 
L 296.948672 282.665193 
L 297.486625 284.62992 
L 297.621113 284.284662 
L 297.755601 284.280847 
L 298.024578 281.109625 
L 298.159066 280.959409 
L 298.428042 278.819192 
L 298.697019 274.996558 
L 298.831507 273.862071 
L 298.965995 273.719962 
L 299.100484 274.075235 
L 299.36946 277.85638 
L 299.503948 277.350415 
L 299.638436 278.892154 
L 299.772925 269.242578 
L 299.907413 272.64127 
L 300.041901 272.339885 
L 300.176389 273.205414 
L 300.310877 272.92215 
L 300.579854 261.963073 
L 301.252295 128.001114 
L 301.386783 128.069784 
L 301.521271 141.248238 
L 301.65576 134.313515 
L 301.790248 143.718453 
L 302.597177 252.405535 
L 302.731665 254.156621 
L 303.000642 266.55157 
L 303.13513 266.775701 
L 303.269618 267.255438 
L 303.404106 269.7123 
L 303.538595 270.130997 
L 303.807571 253.789427 
L 304.345524 164.105835 
L 304.6145 153.594068 
L 304.748988 161.823032 
L 304.883477 152.259771 
L 305.017965 158.333734 
L 306.093871 265.004585 
L 306.228359 266.014131 
L 306.497335 276.158704 
L 306.766312 277.187324 
L 306.9008 272.483901 
L 307.035288 261.95592 
L 307.304265 169.577981 
L 307.438753 176.831735 
L 307.842217 157.590762 
L 307.976706 164.634213 
L 308.111194 156.224514 
L 308.245682 161.181634 
L 308.649147 207.133835 
L 309.052611 263.438049 
L 309.590564 275.6556 
L 309.994029 277.357092 
L 310.128517 273.807707 
L 310.263005 261.205318 
L 310.531982 169.46687 
L 310.66647 170.617093 
L 310.935446 168.330475 
L 311.069934 158.989438 
L 311.204423 165.437748 
L 311.338911 164.148277 
L 311.473399 157.38189 
L 311.607887 170.504074 
L 311.876864 208.039899 
L 312.14584 250.321112 
L 312.414817 262.113766 
L 312.818281 270.71517 
L 312.952769 270.28169 
L 313.087258 272.165348 
L 313.221746 272.066635 
L 313.356234 273.641755 
L 313.625211 263.097083 
L 313.759699 255.214331 
L 313.894187 258.563428 
L 314.028675 256.037418 
L 314.163163 257.918692 
L 314.297652 255.161398 
L 314.566628 261.717483 
L 314.701116 262.451394 
L 314.970093 267.199643 
L 315.104581 267.16197 
L 315.239069 266.865831 
L 315.508045 269.795277 
L 315.642534 270.331762 
L 315.777022 270.001764 
L 316.180487 272.988435 
L 316.314975 272.549233 
L 316.718439 274.901183 
L 316.852928 275.150112 
L 316.987416 274.297458 
L 317.121904 274.36279 
L 317.256392 273.24404 
L 317.39088 273.388534 
L 317.525369 271.851087 
L 317.659857 272.769549 
L 317.928833 270.2526 
L 318.332298 266.519619 
L 318.466786 267.173415 
L 318.601274 266.671265 
L 318.735763 268.126213 
L 318.870251 267.962644 
L 319.139227 269.078056 
L 319.273715 278.90503 
L 319.67718 280.022349 
L 319.811668 277.445791 
L 319.946157 269.49866 
L 320.349621 147.614526 
L 320.484109 131.477536 
L 320.887574 158.732402 
L 321.022062 163.394814 
L 321.291039 178.164602 
L 321.425527 179.963376 
L 321.560015 198.387938 
L 321.828991 253.868112 
L 321.96348 261.948767 
L 322.097968 262.734658 
L 322.635921 279.420532 
L 322.770409 279.767221 
L 322.904897 279.108655 
L 323.173874 268.685588 
L 323.44285 173.300472 
L 323.577338 173.661943 
L 323.711826 173.863185 
L 323.980803 153.703273 
L 324.249779 157.239305 
L 324.384268 160.003275 
L 324.787732 196.21577 
L 325.056709 250.692598 
L 325.325685 259.956381 
L 325.863638 277.76339 
L 325.998126 279.52926 
L 326.132614 279.594592 
L 326.267103 276.384266 
L 326.401591 267.392778 
L 326.670567 166.115865 
L 326.805055 172.066318 
L 326.939544 173.237524 
L 327.20852 160.02235 
L 327.343008 168.1588 
L 327.611985 164.408174 
L 327.746473 169.263721 
L 328.149937 223.9127 
L 328.418914 254.731256 
L 328.68789 267.531072 
L 328.822379 269.982212 
L 328.956867 280.019965 
L 329.225843 280.966086 
L 329.360331 280.119632 
L 329.629308 267.298357 
L 330.032772 178.360121 
L 330.301749 167.030989 
L 330.570725 158.230252 
L 330.839702 180.064951 
L 330.97419 181.276215 
L 331.108678 184.019202 
L 331.781119 259.837162 
L 332.050096 266.99411 
L 332.184584 277.759098 
L 332.319072 278.714279 
L 332.45356 278.049992 
L 332.588049 279.036647 
L 332.857025 266.439981 
L 333.26049 177.729215 
L 333.394978 179.637193 
L 333.663954 164.739603 
L 333.798442 165.930838 
L 333.932931 169.694339 
L 334.336395 187.542359 
L 334.73986 255.215762 
L 335.143325 270.929764 
L 335.277813 270.731383 
L 335.412301 270.828666 
L 335.546789 271.113838 
L 335.681277 271.008925 
L 335.950254 273.588345 
L 336.084742 271.495815 
L 336.622695 255.048379 
L 336.757183 255.842376 
L 336.891671 254.014989 
L 337.295136 260.366494 
L 337.698601 265.094238 
L 337.833089 264.615455 
L 338.102065 268.710862 
L 338.236553 268.4791 
L 338.371042 269.115729 
L 338.50553 266.782854 
L 339.043483 269.938339 
L 339.446947 272.93121 
L 339.581436 272.450043 
L 339.715924 271.282175 
L 339.850412 271.541118 
L 339.9849 270.761903 
L 340.119388 270.649361 
L 340.253877 270.1763 
L 340.388365 271.651753 
L 340.522853 269.66509 
L 340.657341 270.263092 
L 340.926318 269.945016 
L 341.060806 266.610225 
L 341.329782 271.486754 
L 341.464271 271.38518 
L 341.598759 271.913081 
L 341.733247 273.477709 
L 341.867735 281.290838 
L 342.136712 281.392412 
L 342.2712 282.033333 
L 342.540176 269.352259 
L 342.943641 154.308905 
L 343.212617 170.898927 
L 343.347106 170.165492 
L 343.75057 184.533751 
L 343.885058 186.20663 
L 344.019547 185.544727 
L 344.423011 253.352132 
L 345.22994 279.016142 
L 345.364429 280.098649 
L 345.498917 279.731455 
L 345.633405 275.51969 
L 345.767893 267.444757 
L 346.03687 183.29006 
L 346.171358 187.403111 
L 346.440334 173.854124 
L 346.574823 168.489275 
L 346.843799 175.35962 
L 347.112775 177.226111 
L 347.381752 211.665106 
L 347.650728 250.529983 
L 348.054193 268.47004 
L 348.188681 269.650784 
L 348.323169 278.60889 
L 348.457658 279.455821 
L 348.592146 281.324219 
L 348.726634 281.129177 
L 348.99561 268.238278 
L 349.264587 182.240934 
L 349.399075 183.713048 
L 349.668052 166.176905 
L 349.80254 162.070054 
L 350.206004 180.742591 
L 350.340493 181.92095 
L 351.012934 262.000747 
L 351.147422 264.318362 
L 351.550886 280.960363 
L 351.685375 280.249342 
L 351.954351 280.615582 
L 352.088839 279.220244 
L 352.223328 271.941217 
L 352.492304 178.169371 
L 352.626792 185.323934 
L 352.76128 173.970959 
L 352.895769 173.263275 
L 353.030257 164.997115 
L 353.164745 172.197459 
L 353.299233 170.123527 
L 353.56821 152.374698 
L 354.240651 268.611195 
L 354.375139 269.747112 
L 354.644115 275.600759 
L 354.913092 279.868318 
L 355.182068 280.908861 
L 355.316556 278.510177 
L 355.451045 269.396132 
L 355.854509 196.20671 
L 356.123486 157.931728 
L 356.257974 159.642757 
L 356.392462 168.239392 
L 356.52695 167.607055 
L 356.661439 178.196553 
L 356.795927 176.947139 
L 357.33388 264.30787 
L 357.602856 273.88973 
L 357.737344 275.851119 
L 357.871832 280.099603 
L 358.006321 279.522107 
L 358.140809 279.736224 
L 358.275297 280.474904 
L 358.409785 280.387159 
L 358.678762 279.129638 
L 359.082226 260.691247 
L 359.351203 254.795158 
L 359.485691 248.533782 
L 359.620179 259.250129 
L 359.754667 260.662157 
L 359.889156 260.830017 
L 360.427109 275.096225 
L 360.561597 275.774819 
L 360.965061 279.915529 
L 361.234038 279.875948 
L 361.368526 279.684721 
L 361.503014 280.988022 
L 361.771991 280.581247 
L 361.906479 281.909822 
L 362.040967 281.862135 
L 362.175455 282.236959 
L 362.309944 282.277493 
L 362.57892 278.870218 
L 362.713408 278.8211 
L 362.982385 277.688043 
L 363.116873 276.197807 
L 363.251361 276.096233 
L 363.385849 277.185417 
L 363.520337 276.332763 
L 363.654826 276.273154 
L 364.05829 279.055245 
L 364.192778 253.085559 
L 364.730731 259.334059 
L 364.86522 258.140439 
L 364.999708 246.075489 
L 365.134196 223.953711 
L 365.403172 135.742711 
L 365.672149 105.487344 
L 365.806637 99.573611 
L 366.075613 116.496969 
L 366.34459 113.356744 
L 366.479078 124.774097 
L 367.017031 251.002567 
L 367.151519 255.955873 
L 367.286007 254.222907 
L 367.554984 265.569206 
L 367.689472 266.434735 
L 367.958448 271.328432 
L 368.227425 247.796056 
L 368.496401 151.958385 
L 368.765378 100.140616 
L 369.034354 89.252117 
L 369.168842 93.968416 
L 369.303331 93.524445 
L 369.437819 96.889279 
L 369.572307 94.769567 
L 369.706795 110.859823 
L 370.244748 234.555607 
L 370.782701 278.722863 
L 370.917189 279.027587 
L 371.051677 279.91839 
L 371.186166 279.639895 
L 371.455142 264.833864 
L 371.858607 171.653821 
L 372.127583 203.609248 
L 372.262071 199.552468 
L 372.396559 200.977849 
L 372.665536 190.30013 
L 372.800024 194.09129 
L 373.203489 233.76161 
L 373.472465 255.998315 
L 373.87593 277.172064 
L 374.010418 286.182627 
L 374.144906 286.036703 
L 374.279394 287.242244 
L 374.413883 286.739617 
L 374.682859 270.193468 
L 375.220812 180.871347 
L 375.489788 177.245186 
L 375.624277 177.467887 
L 375.893253 183.997743 
L 376.027741 188.2901 
L 376.565694 255.815671 
L 376.83467 264.698431 
L 376.969159 267.532503 
L 377.103647 279.334694 
L 377.238135 278.24265 
L 377.507112 280.31372 
L 377.6416 278.34947 
L 377.776088 281.885978 
L 378.045064 279.740516 
L 378.179553 270.107153 
L 378.314041 269.48197 
L 378.448529 262.387016 
L 378.583017 263.387024 
L 378.717505 262.470469 
L 378.851994 266.978373 
L 378.986482 266.218711 
L 379.12097 267.126205 
L 379.255458 269.284066 
L 379.389947 269.167709 
L 379.927899 278.415278 
L 380.062388 278.208791 
L 380.196876 278.625104 
L 380.331364 268.722784 
L 380.465852 269.400424 
L 380.869317 272.302688 
L 381.138293 261.413713 
L 381.272782 234.335768 
L 381.541758 159.787727 
L 381.810734 139.636876 
L 381.945223 141.227256 
L 382.214199 147.710378 
L 382.348687 139.725098 
L 382.752152 189.554296 
L 383.021128 257.519071 
L 383.155616 265.442834 
L 383.290105 266.104737 
L 383.424593 267.391347 
L 383.559081 262.465223 
L 383.693569 261.753725 
L 383.962546 262.099937 
L 384.097034 263.289741 
L 384.231522 261.506704 
L 384.36601 262.898226 
L 385.038451 148.77238 
L 385.17294 151.214459 
L 385.307428 166.342381 
L 385.576404 160.700944 
L 386.248845 260.363633 
L 386.921286 278.855911 
L 387.055775 278.041408 
L 387.190263 279.318481 
L 387.324751 278.627965 
L 387.459239 278.789149 
L 387.593727 280.277954 
L 387.728216 279.703796 
L 387.862704 281.020449 
L 387.997192 279.851628 
L 388.13168 281.44153 
L 388.266169 280.457736 
L 388.400657 278.47298 
L 388.535145 278.562156 
L 388.669633 277.899776 
L 388.804121 279.038555 
L 388.93861 276.488225 
L 389.207586 278.627965 
L 389.476562 285.316144 
L 389.611051 284.257957 
L 389.745539 285.074368 
L 389.880027 285.022389 
L 390.014515 270.120506 
L 390.283492 270.369435 
L 390.41798 270.379449 
L 390.552468 270.248785 
L 390.686956 264.749934 
L 390.821445 264.934962 
L 390.955933 256.081768 
L 391.224909 199.915371 
L 391.359397 168.533624 
L 391.493886 164.54313 
L 391.762862 175.238494 
L 391.89735 174.694856 
L 392.031839 167.470192 
L 392.166327 171.170269 
L 392.300815 180.151742 
L 392.569791 240.320079 
L 392.70428 266.613087 
L 392.973256 271.456711 
L 393.107744 272.114322 
L 393.376721 265.056565 
L 393.645697 270.775733 
L 393.780185 267.384194 
L 393.914673 268.769041 
L 394.049162 261.35458 
L 394.721603 146.721338 
L 394.990579 145.649322 
L 395.125067 145.229195 
L 395.259556 156.616505 
L 395.394044 157.486803 
L 395.931997 245.650593 
L 396.200973 259.263958 
L 396.335461 255.526208 
L 396.46995 280.305136 
L 396.604438 280.688544 
L 397.007902 283.724334 
L 397.276879 270.664144 
L 397.545855 196.935852 
L 397.680343 191.74697 
L 397.94932 168.36338 
L 398.083808 154.893077 
L 398.218296 167.639959 
L 398.352785 162.872158 
L 398.487273 165.885534 
L 398.487273 165.885534 
" clip-path="url(#pc1c31c13b0)" style="fill: none; stroke: #1f77b4; stroke-width: 1.5; stroke-linecap: square"/>
   </g>
   <g id="line2d_13">
    <path d="M 73.832727 279.016839 
L 74.101704 280.642811 
L 74.236192 280.479916 
L 74.37068 280.13515 
L 74.505168 278.128086 
L 74.639657 279.729079 
L 74.774145 277.691001 
L 74.908633 277.741091 
L 75.043121 265.603562 
L 75.177609 218.420743 
L 75.312098 241.306696 
L 76.119027 254.826483 
L 76.388003 253.98216 
L 76.522492 253.900974 
L 76.65698 277.702123 
L 76.791468 278.846557 
L 77.060444 275.214583 
L 77.194933 274.407354 
L 77.329421 258.609847 
L 77.463909 266.419066 
L 77.732885 260.215701 
L 77.867374 260.868704 
L 78.001862 244.153608 
L 78.13635 209.048202 
L 78.405327 117.608969 
L 78.539815 110.102364 
L 78.674303 111.999695 
L 78.808791 103.869948 
L 78.943279 109.510589 
L 79.077768 120.714121 
L 79.212256 122.603081 
L 80.019185 260.408242 
L 80.153673 264.804102 
L 80.288161 274.759622 
L 80.557138 256.741402 
L 80.691626 275.470255 
L 80.826114 261.868532 
L 80.960603 262.354641 
L 81.095091 258.506471 
L 81.229579 248.59052 
L 81.364067 227.532997 
L 81.633044 137.188556 
L 81.767532 161.447591 
L 81.90202 148.862635 
L 82.036508 213.193402 
L 82.170996 221.415253 
L 82.305485 216.785059 
L 82.439973 221.654567 
L 82.574461 190.439763 
L 82.843438 223.835612 
L 82.977926 221.511568 
L 83.112414 225.423714 
L 83.246902 221.406101 
L 83.38139 221.387675 
L 83.650367 242.385477 
L 83.784855 248.939719 
L 83.919343 275.054255 
L 84.053831 275.100444 
L 84.18832 273.972593 
L 84.322808 221.387557 
L 84.457296 234.185308 
L 84.591784 221.387557 
L 84.860761 221.387557 
L 84.995249 221.720059 
L 85.129737 166.338075 
L 85.264225 181.659742 
L 85.398714 171.748281 
L 85.802178 203.489486 
L 86.340131 264.313807 
L 86.474619 262.52442 
L 86.609107 268.681265 
L 86.743596 268.464318 
L 86.878084 272.713125 
L 87.14706 288.039021 
L 87.281549 287.575195 
L 87.416037 285.764046 
L 87.550525 287.789583 
L 87.819501 284.731996 
L 88.088478 245.979508 
L 88.222966 261.276484 
L 88.357454 252.089812 
L 88.491942 259.330989 
L 88.626431 257.208961 
L 88.760919 252.661918 
L 88.895407 260.240043 
L 89.029895 250.435098 
L 89.164384 258.577354 
L 89.298872 258.567086 
L 89.43336 261.949495 
L 89.567848 276.319116 
L 89.702336 273.409595 
L 89.836825 277.654688 
L 89.971313 275.740034 
L 90.105801 276.238718 
L 90.240289 257.282535 
L 90.374777 265.307711 
L 90.509266 265.762277 
L 90.643754 259.094206 
L 90.778242 263.995982 
L 91.047218 261.905842 
L 91.181707 256.934996 
L 91.316195 244.10456 
L 91.450683 251.365695 
L 91.585171 242.204698 
L 91.71966 255.420555 
L 91.854148 248.720544 
L 92.123124 254.441548 
L 92.392101 259.869773 
L 92.526589 259.248211 
L 92.930053 267.991379 
L 93.064542 269.211149 
L 93.19903 269.321992 
L 93.333518 265.673844 
L 93.468006 279.984196 
L 93.736983 267.917936 
L 93.871471 268.183262 
L 94.274936 239.57647 
L 94.543912 165.251587 
L 94.6784 180.563961 
L 94.947377 158.910916 
L 95.081865 155.71045 
L 95.619818 186.799189 
L 96.023282 262.697298 
L 96.157771 271.03639 
L 96.426747 268.833025 
L 96.561235 269.117908 
L 96.695723 269.088679 
L 96.9647 262.729767 
L 97.099188 265.321521 
L 97.233676 260.163292 
L 97.368164 249.690078 
L 97.771629 155.122746 
L 97.906117 177.778663 
L 98.040606 168.456161 
L 98.175094 185.354151 
L 98.309582 177.439299 
L 98.578558 183.878163 
L 99.385488 270.358164 
L 99.519976 269.988146 
L 99.654464 274.541541 
L 99.788952 272.307596 
L 99.923441 284.874688 
L 100.192417 271.876906 
L 100.326905 272.63561 
L 100.595882 267.762999 
L 100.864858 248.033178 
L 101.133834 274.954126 
L 101.268323 284.521244 
L 101.402811 279.666902 
L 101.671787 261.547366 
L 101.806276 273.138988 
L 101.940764 268.078412 
L 102.075252 268.194249 
L 102.20974 273.151674 
L 102.344228 272.412394 
L 102.613205 275.95865 
L 102.747693 280.539523 
L 102.882181 273.682843 
L 103.016669 284.548683 
L 103.151158 253.864147 
L 103.420134 268.71143 
L 103.823599 250.109624 
L 103.958087 231.673515 
L 104.227063 146.044181 
L 104.361552 163.838435 
L 104.49604 151.707055 
L 104.630528 167.931618 
L 104.899504 147.297247 
L 105.302969 196.210595 
L 105.840922 268.483958 
L 106.109898 259.078988 
L 106.378875 286.45038 
L 106.647851 273.17325 
L 106.782339 269.280393 
L 106.916828 269.720193 
L 107.185804 256.882792 
L 107.45478 201.757461 
L 107.723757 250.334709 
L 107.858245 247.452299 
L 107.992733 250.331831 
L 108.127222 248.103325 
L 108.26171 248.979439 
L 108.530686 252.538844 
L 108.665174 251.61846 
L 108.799663 257.689831 
L 109.068639 278.778182 
L 109.203127 275.17481 
L 109.337615 278.806879 
L 109.472104 277.506619 
L 109.606592 272.192099 
L 109.74108 274.967697 
L 110.144545 272.192438 
L 110.279033 271.79386 
L 110.548009 269.746771 
L 110.816986 276.787288 
L 111.22045 271.768962 
L 111.354939 272.769382 
L 111.489427 272.108491 
L 111.758403 269.103391 
L 111.892891 267.460038 
L 112.296356 272.517699 
L 112.430844 272.145575 
L 112.699821 273.571368 
L 112.834309 259.271375 
L 112.968797 266.959935 
L 113.103285 266.884479 
L 113.237774 265.20373 
L 113.372262 265.92825 
L 113.50675 264.181904 
L 113.641238 265.127895 
L 113.775726 264.731966 
L 113.910215 270.145887 
L 114.044703 268.69172 
L 114.179191 271.430145 
L 114.313679 267.197076 
L 114.448168 258.593224 
L 114.717144 260.989839 
L 114.851632 260.517679 
L 115.120609 253.751313 
L 115.255097 255.007854 
L 115.524073 263.597079 
L 115.658561 263.796935 
L 115.79305 263.235669 
L 116.196514 256.58803 
L 116.331002 249.077209 
L 116.465491 258.655768 
L 116.734467 245.388819 
L 116.868955 214.741543 
L 117.137932 113.186557 
L 117.541396 92.910181 
L 117.675885 90.866275 
L 117.810373 99.135568 
L 118.348326 177.259213 
L 118.617302 253.565853 
L 118.886279 258.925614 
L 119.020767 261.229549 
L 119.155255 251.255224 
L 119.289743 250.719537 
L 119.424231 251.976395 
L 119.693208 244.939265 
L 119.827696 246.087459 
L 119.962184 241.417907 
L 120.096672 214.272335 
L 120.365649 106.947428 
L 120.500137 105.566889 
L 120.634625 97.084773 
L 120.769114 98.123657 
L 120.903602 96.695355 
L 121.307066 124.935584 
L 121.710531 215.212312 
L 121.845019 254.286231 
L 121.979507 255.512854 
L 122.113996 261.081393 
L 122.248484 246.896012 
L 122.382972 244.937158 
L 122.51746 245.994529 
L 122.651948 258.8329 
L 122.920925 245.209224 
L 123.055413 245.15859 
L 123.189901 238.511156 
L 123.32439 221.592514 
L 123.593366 110.396619 
L 123.727854 85.356853 
L 123.862342 81.066744 
L 123.996831 92.720668 
L 124.131319 94.432474 
L 124.80376 171.201773 
L 125.072736 252.270001 
L 125.341713 270.559686 
L 125.745177 252.270093 
L 125.879666 267.652903 
L 126.148642 258.432578 
L 126.28313 254.70924 
L 126.552107 221.389545 
L 126.821083 117.171299 
L 126.955571 118.204472 
L 127.09006 106.612434 
L 127.224548 106.077085 
L 127.762501 142.270054 
L 128.165965 222.302218 
L 128.300453 255.073401 
L 128.56943 262.0436 
L 128.703918 261.555677 
L 128.838406 250.53975 
L 128.972894 260.824535 
L 129.107383 252.611757 
L 129.241871 252.847526 
L 129.376359 254.610241 
L 129.510847 250.825845 
L 129.779824 204.054229 
L 130.0488 110.177838 
L 130.317777 100.135694 
L 130.452265 99.015878 
L 130.990218 143.516367 
L 131.259194 197.734558 
L 131.528171 257.101207 
L 131.931635 265.986376 
L 132.3351 258.457292 
L 132.604076 269.702704 
L 132.873053 264.179433 
L 133.007541 262.873304 
L 133.142029 247.756442 
L 133.276517 248.332915 
L 133.411005 241.586559 
L 133.545494 242.266192 
L 133.679982 241.566454 
L 133.81447 239.305491 
L 134.083447 242.838273 
L 134.217935 240.544884 
L 134.486911 250.653229 
L 134.890376 258.516247 
L 135.024864 258.336279 
L 135.29384 262.407413 
L 135.562817 263.347253 
L 135.697305 263.59236 
L 135.966282 264.917057 
L 136.10077 270.596136 
L 136.369746 260.52171 
L 136.638723 269.386103 
L 136.773211 263.93077 
L 136.907699 267.789642 
L 137.042187 265.907766 
L 137.176675 266.861034 
L 137.445652 254.460182 
L 137.714628 258.489852 
L 137.849117 256.314248 
L 138.118093 262.785339 
L 138.252581 262.95645 
L 138.387069 258.826325 
L 138.521558 259.728546 
L 138.656046 263.339271 
L 138.790534 254.212067 
L 138.925022 252.667752 
L 139.05951 256.257644 
L 139.193999 253.339243 
L 139.462975 211.512841 
L 139.731951 110.421859 
L 140.135416 104.203172 
L 140.269904 109.576271 
L 140.538881 125.721186 
L 141.34581 259.48022 
L 141.480298 257.401149 
L 141.614786 270.555998 
L 141.749275 259.273073 
L 141.883763 259.85035 
L 142.018251 261.906857 
L 142.152739 256.880602 
L 142.287228 256.168026 
L 142.421716 252.185007 
L 142.690692 207.993861 
L 142.959669 102.746585 
L 143.228645 91.462007 
L 143.497621 98.63413 
L 143.63211 110.660309 
L 143.766598 108.448685 
L 144.170063 181.122701 
L 144.439039 257.21091 
L 144.573527 254.651522 
L 144.708015 260.819759 
L 144.842504 272.820532 
L 145.11148 260.324822 
L 145.380456 258.469763 
L 145.514945 259.224011 
L 145.649433 247.559143 
L 145.783921 215.18288 
L 145.918409 217.669928 
L 146.187386 113.127566 
L 146.321874 92.287611 
L 146.456362 93.556001 
L 146.725339 107.273168 
L 146.859827 123.567837 
L 146.994315 125.035654 
L 147.801244 259.815983 
L 148.070221 268.677905 
L 148.204709 261.539327 
L 148.339197 263.951552 
L 148.473685 262.978356 
L 148.608174 258.706137 
L 148.742662 258.308786 
L 149.011638 253.502468 
L 149.549591 110.85768 
L 149.684079 111.69382 
L 149.818567 99.720021 
L 150.222032 142.719599 
L 150.35652 167.170841 
L 150.491009 170.953993 
L 150.894473 258.810174 
L 151.028961 257.491042 
L 151.297938 269.017635 
L 151.432426 260.711029 
L 151.566914 261.445624 
L 151.701402 261.330686 
L 151.835891 261.780372 
L 151.970379 258.918657 
L 152.104867 258.681019 
L 152.239355 254.005666 
L 152.64282 112.054131 
L 152.777308 106.313151 
L 152.911796 113.938601 
L 153.180773 95.061223 
L 153.449749 129.255772 
L 153.718726 195.64534 
L 154.12219 258.680407 
L 154.525655 270.904555 
L 154.660143 272.751424 
L 154.794631 271.218455 
L 154.92912 271.845665 
L 155.063608 271.177039 
L 155.467072 274.006123 
L 155.601561 269.84686 
L 155.736049 262.053748 
L 155.870537 247.062691 
L 156.005025 255.96831 
L 156.139513 253.678797 
L 156.274002 260.120277 
L 156.40849 258.029417 
L 156.542978 258.767745 
L 156.811955 265.950511 
L 156.946443 264.323445 
L 157.080931 266.06562 
L 157.215419 265.625487 
L 157.484396 270.002954 
L 157.618884 270.666777 
L 157.753372 268.751777 
L 158.022348 271.698639 
L 158.156837 271.987121 
L 158.291325 271.348568 
L 158.425813 272.17288 
L 158.694789 275.629674 
L 158.829278 275.281523 
L 158.963766 272.064237 
L 159.098254 276.555041 
L 159.232742 275.864114 
L 159.367231 274.539637 
L 159.636207 278.3093 
L 159.905183 269.271598 
L 160.039672 263.887448 
L 160.17416 266.170715 
L 160.308648 261.475381 
L 160.712113 270.393157 
L 160.981089 264.814412 
L 161.115577 265.144642 
L 161.250066 264.160946 
L 161.384554 266.978684 
L 161.65353 260.367525 
L 161.788018 258.446338 
L 161.922507 243.32144 
L 162.191483 157.996344 
L 162.325971 107.203066 
L 162.460459 101.361461 
L 162.594948 83.089171 
L 162.863924 96.491098 
L 162.998412 102.978483 
L 163.805342 258.737474 
L 163.93983 257.334746 
L 164.074318 258.990075 
L 164.208806 263.637205 
L 164.477783 255.475322 
L 164.612271 267.685551 
L 165.015735 250.858398 
L 165.284712 217.084893 
L 165.553688 116.324104 
L 165.688177 106.925784 
L 165.822665 114.594704 
L 165.957153 104.735966 
L 166.091641 109.74907 
L 166.360618 124.473205 
L 166.629594 147.101797 
L 166.764082 169.714795 
L 167.033059 259.347885 
L 167.167547 258.815451 
L 167.302035 256.303832 
L 167.436523 259.530497 
L 167.571012 253.57839 
L 167.7055 253.688953 
L 167.974476 258.177404 
L 168.243453 254.616801 
L 168.377941 239.858175 
L 168.646917 155.240182 
L 168.915894 82.627171 
L 169.18487 95.948205 
L 169.319358 102.175052 
L 169.453847 114.722182 
L 169.588335 111.420346 
L 169.991799 190.95231 
L 170.395264 258.839514 
L 170.529752 265.459666 
L 170.66424 263.914697 
L 170.798729 260.205893 
L 170.933217 262.53969 
L 171.067705 257.790313 
L 171.336681 256.612482 
L 171.47117 258.42463 
L 172.143611 91.348569 
L 172.278099 102.817528 
L 172.547075 100.061291 
L 172.681564 106.750921 
L 173.354005 227.889641 
L 173.488493 259.029893 
L 173.622981 258.921244 
L 173.891958 269.842129 
L 174.026446 267.28226 
L 174.160934 283.65494 
L 174.295422 272.285502 
L 174.42991 270.379407 
L 174.564399 270.11893 
L 174.698887 270.139993 
L 175.102351 191.343664 
L 175.23684 150.449463 
L 175.371328 155.548071 
L 175.640304 138.417274 
L 175.774792 142.870077 
L 175.909281 158.0753 
L 176.043769 158.682915 
L 176.71621 260.686066 
L 176.850698 259.671865 
L 177.119675 272.368522 
L 177.254163 264.970204 
L 177.523139 269.598447 
L 177.657627 266.740186 
L 177.926604 271.935638 
L 178.061092 271.026395 
L 178.19558 269.168003 
L 178.330069 255.019096 
L 178.464557 255.441704 
L 178.599045 259.818212 
L 178.733533 254.30604 
L 179.00251 256.501122 
L 179.136998 260.558215 
L 179.405974 255.890299 
L 179.540462 258.151448 
L 179.674951 256.722676 
L 179.809439 258.102537 
L 180.212904 270.961261 
L 180.347392 268.245471 
L 180.48188 268.253555 
L 180.616368 278.317754 
L 180.885345 274.014698 
L 181.019833 273.719367 
L 181.154321 273.909356 
L 181.288809 272.555645 
L 181.557786 262.814634 
L 181.692274 259.894195 
L 181.826762 264.740376 
L 181.96125 262.158675 
L 182.095738 266.546723 
L 182.230227 256.803524 
L 182.499203 266.542069 
L 182.76818 269.508333 
L 182.902668 273.304174 
L 183.037156 271.749522 
L 183.171644 271.979137 
L 183.306132 276.418948 
L 183.440621 275.955562 
L 183.575109 279.500076 
L 183.844085 270.363931 
L 183.978573 285.493294 
L 184.382038 266.171085 
L 184.651015 231.940017 
L 184.919991 164.335402 
L 185.054479 178.094518 
L 185.188967 170.101391 
L 185.323456 183.702724 
L 185.457944 178.151127 
L 185.72692 190.478585 
L 186.130385 233.448516 
L 186.399361 261.357127 
L 187.071802 280.189811 
L 187.206291 289.187635 
L 187.475267 277.41044 
L 187.609755 278.669291 
L 187.744243 266.795868 
L 187.878732 236.016405 
L 188.01322 171.373882 
L 188.147708 166.729289 
L 188.282196 181.941553 
L 188.416684 173.44332 
L 188.551173 181.248754 
L 188.685661 181.228535 
L 188.820149 186.824288 
L 189.761567 268.513818 
L 189.896055 268.565039 
L 190.030543 271.196334 
L 190.165031 277.019944 
L 190.299519 266.213508 
L 190.434008 268.126587 
L 190.568496 265.864118 
L 190.837472 258.150817 
L 190.971961 254.998571 
L 191.240937 240.853488 
L 191.375425 245.907605 
L 191.509913 260.854581 
L 191.644402 260.810893 
L 191.77889 254.105247 
L 191.913378 260.094541 
L 192.047866 253.972257 
L 192.316843 261.480242 
L 192.585819 266.386906 
L 192.720307 265.770934 
L 192.854796 268.10025 
L 192.989284 275.092324 
L 193.25826 272.263645 
L 193.661725 261.398451 
L 193.796213 262.852084 
L 194.065189 259.318891 
L 194.199678 248.44784 
L 194.334166 226.013665 
L 194.603142 157.776674 
L 194.73763 159.276416 
L 194.872119 149.024289 
L 195.006607 150.884442 
L 195.141095 145.146779 
L 195.275583 151.500377 
L 195.410072 163.39996 
L 195.54456 165.347424 
L 196.217001 269.40829 
L 196.485977 265.554028 
L 196.620465 264.518673 
L 196.754954 276.757929 
L 196.889442 266.164727 
L 197.158418 262.748604 
L 197.292907 263.387394 
L 197.427395 256.600375 
L 197.561883 239.875831 
L 197.830859 158.114437 
L 197.965348 183.762027 
L 198.099836 181.926942 
L 198.234324 193.122287 
L 198.368812 194.745481 
L 198.5033 203.202745 
L 198.637789 199.179534 
L 198.772277 203.533114 
L 199.444718 278.00747 
L 199.579206 278.39852 
L 199.713694 275.14917 
L 199.848183 276.787121 
L 199.982671 280.459458 
L 200.117159 278.061269 
L 200.251647 278.854719 
L 200.386135 278.79146 
L 200.520624 274.502331 
L 200.655112 265.561111 
L 200.7896 266.74861 
L 200.924088 242.240964 
L 201.058576 168.621415 
L 201.193065 199.56577 
L 201.327553 187.131275 
L 201.731018 202.358879 
L 201.865506 200.885595 
L 202.403459 245.445061 
L 202.672435 271.585475 
L 202.806923 269.586076 
L 203.0759 274.700387 
L 203.210388 266.189999 
L 203.344876 265.508397 
L 203.479364 270.961376 
L 203.748341 262.160831 
L 204.017317 254.257843 
L 204.151805 226.092189 
L 204.286294 172.360767 
L 204.420782 169.244857 
L 204.55527 162.615517 
L 204.689758 171.101924 
L 204.824246 170.045619 
L 204.958735 182.303304 
L 205.093223 182.487437 
L 205.227711 207.831667 
L 205.362199 211.485718 
L 205.631176 239.856473 
L 205.900152 264.53555 
L 206.03464 264.831432 
L 206.169129 264.298397 
L 206.303617 267.688255 
L 206.438105 288.265778 
L 206.572593 276.289894 
L 206.707081 277.984087 
L 206.84157 277.868514 
L 207.110546 271.45824 
L 207.379522 239.130532 
L 207.782987 261.716298 
L 208.051964 272.703806 
L 208.32094 270.593587 
L 208.589916 267.336168 
L 208.724405 271.408714 
L 208.858893 271.665349 
L 208.993381 279.863942 
L 209.127869 280.676408 
L 209.262357 283.311723 
L 209.531334 278.704581 
L 209.665822 267.06746 
L 209.80031 271.142039 
L 210.069287 264.470419 
L 210.203775 264.669977 
L 210.741728 145.834861 
L 210.876216 148.150511 
L 211.279681 103.43572 
L 211.817634 194.725343 
L 212.221098 255.250633 
L 212.355586 264.229514 
L 212.490075 262.188336 
L 212.624563 262.677757 
L 212.893539 270.003405 
L 213.028027 271.338699 
L 213.297004 263.12394 
L 213.431492 265.978428 
L 213.700468 210.846903 
L 213.969445 119.318486 
L 214.238421 132.933142 
L 214.37291 131.06507 
L 214.507398 135.770904 
L 214.641886 146.666183 
L 215.314327 247.158255 
L 215.583303 269.083083 
L 215.717792 265.366226 
L 215.85228 270.426818 
L 215.986768 267.423394 
L 216.121256 267.834091 
L 216.255745 267.043961 
L 216.524721 261.986796 
L 216.659209 264.195467 
L 216.793697 249.205937 
L 216.928186 218.26991 
L 217.197162 129.375279 
L 217.466138 142.252938 
L 217.600627 143.774971 
L 217.735115 156.125279 
L 217.869603 156.34697 
L 218.004091 156.171709 
L 218.407556 231.321359 
L 218.542044 240.195189 
L 218.676532 263.822437 
L 218.945509 272.697923 
L 219.079997 277.368908 
L 219.214485 260.520013 
L 219.348973 268.291606 
L 219.61795 268.782996 
L 219.752438 268.619427 
L 219.886926 267.827045 
L 220.155903 225.543887 
L 220.424879 122.112347 
L 220.559367 147.408362 
L 220.693856 149.355338 
L 220.828344 147.718536 
L 220.962832 147.54726 
L 222.038738 265.750207 
L 222.173226 266.444479 
L 222.307714 276.539324 
L 222.442202 272.424582 
L 222.576691 274.183448 
L 222.845667 278.559487 
L 222.980155 278.003675 
L 223.114643 279.050121 
L 223.249132 274.553508 
L 223.38362 275.868628 
L 223.652596 246.629762 
L 223.787084 262.999789 
L 223.921573 261.671278 
L 224.190549 254.852046 
L 224.459525 257.657706 
L 224.594014 264.202067 
L 224.997478 260.185019 
L 225.266455 265.010778 
L 225.400943 264.488987 
L 225.535431 264.664309 
L 225.669919 265.667258 
L 225.804408 264.428398 
L 225.938896 259.788701 
L 226.073384 263.997321 
L 226.207872 264.072988 
L 226.34236 267.266417 
L 226.476849 266.458166 
L 226.745825 268.014454 
L 226.880313 269.249134 
L 227.014802 268.504648 
L 227.14929 272.669096 
L 227.283778 272.368241 
L 227.418266 273.131849 
L 227.552754 271.919842 
L 227.687243 276.025196 
L 228.090707 272.980472 
L 228.225195 273.120599 
L 228.359684 278.729536 
L 228.494172 275.541438 
L 228.62866 275.31542 
L 228.897637 279.047476 
L 229.032125 276.515848 
L 229.166613 269.944353 
L 229.301101 270.004391 
L 229.570078 265.143975 
L 229.704566 247.46962 
L 229.973542 149.329992 
L 230.242519 96.554714 
L 230.377007 76.756023 
L 230.511495 86.253499 
L 230.645983 87.835131 
L 230.780471 125.669152 
L 230.91496 127.259707 
L 231.183936 172.536563 
L 231.587401 261.275586 
L 231.856377 264.427786 
L 231.990865 269.142532 
L 232.125354 268.242418 
L 232.259842 269.055992 
L 232.39433 266.419726 
L 232.528818 266.859029 
L 232.663306 266.622353 
L 232.797795 260.821197 
L 232.932283 241.495875 
L 233.335748 123.106476 
L 233.470236 125.643104 
L 233.604724 123.470117 
L 233.739212 133.597047 
L 233.8737 134.745946 
L 234.008189 150.998987 
L 234.142677 144.024971 
L 234.949606 269.314071 
L 235.218583 267.49397 
L 235.353071 272.068223 
L 235.487559 268.47584 
L 235.756535 273.215565 
L 236.025512 263.006573 
L 236.294488 219.394649 
L 236.563465 117.650889 
L 236.697953 126.430947 
L 236.832441 124.852953 
L 237.101417 112.420444 
L 237.63937 197.369404 
L 238.042835 263.031706 
L 238.177323 269.418274 
L 238.311811 269.750489 
L 238.4463 268.903694 
L 238.580788 271.925556 
L 238.715276 270.560659 
L 238.849764 271.134388 
L 238.984252 275.099714 
L 239.118741 275.478758 
L 239.253229 268.473385 
L 239.387717 254.873357 
L 239.791182 125.584341 
L 239.92567 129.649396 
L 240.060158 122.101034 
L 240.463623 144.671914 
L 240.867087 208.453458 
L 241.40504 261.579125 
L 241.539529 264.539969 
L 241.674017 262.732383 
L 241.808505 263.140158 
L 241.942993 260.253356 
L 242.077481 275.895521 
L 242.21197 269.832015 
L 242.346458 279.261909 
L 242.480946 270.247985 
L 242.615434 251.369396 
L 242.749922 216.827955 
L 243.018899 124.824401 
L 243.287875 148.511549 
L 243.422363 147.211964 
L 243.556852 135.826975 
L 243.825828 160.766003 
L 244.363781 248.65019 
L 244.632757 263.213055 
L 244.901734 270.466746 
L 245.036222 269.191908 
L 245.305198 274.933384 
L 245.439687 273.282858 
L 245.574175 273.150622 
L 245.708663 271.732814 
L 245.843151 268.256537 
L 245.97764 245.773642 
L 246.112128 264.363434 
L 246.246616 261.143163 
L 246.381104 260.940229 
L 246.650081 258.218297 
L 246.784569 259.427991 
L 247.053545 265.293858 
L 247.188033 271.640791 
L 247.322522 271.156713 
L 247.45701 273.298842 
L 247.860475 271.06152 
L 247.994963 271.949512 
L 248.263939 276.493468 
L 248.398427 276.637811 
L 248.532916 274.857648 
L 248.667404 275.151965 
L 248.801892 274.070997 
L 248.93638 273.918781 
L 249.205357 270.147961 
L 249.474333 274.882946 
L 249.608821 276.661398 
L 249.743309 276.707715 
L 249.877798 276.071761 
L 250.012286 277.371175 
L 250.146774 275.636615 
L 250.281262 275.599794 
L 250.415751 274.248668 
L 250.550239 274.785886 
L 250.819215 273.104574 
L 250.953703 273.335504 
L 251.088192 272.546342 
L 251.22268 272.504486 
L 251.357168 273.063033 
L 251.491656 274.629607 
L 251.626144 273.230619 
L 251.760633 287.668699 
L 251.895121 278.74607 
L 252.029609 277.390499 
L 252.164097 274.133625 
L 252.433074 229.130352 
L 252.70205 126.459537 
L 252.971027 135.431499 
L 253.105515 156.981158 
L 253.240003 148.878004 
L 253.508979 175.279881 
L 253.912444 231.447474 
L 254.315909 263.073075 
L 254.450397 268.419549 
L 254.584885 278.981616 
L 254.853862 280.881234 
L 254.98835 286.084968 
L 255.122838 282.145562 
L 255.257326 283.473644 
L 255.391814 280.38358 
L 255.929767 134.323873 
L 256.064255 162.581291 
L 256.333232 156.200695 
L 256.46772 148.923668 
L 256.736697 170.781811 
L 256.871185 186.631611 
L 257.140161 235.156609 
L 257.543626 258.948985 
L 257.678114 264.815177 
L 257.812602 263.43588 
L 257.94709 265.078098 
L 258.081579 264.053774 
L 258.216067 280.547775 
L 258.350555 280.002273 
L 258.619532 274.688312 
L 258.888508 228.022036 
L 259.157484 127.508245 
L 259.291973 159.882455 
L 259.426461 151.754232 
L 259.560949 158.055631 
L 259.695437 144.566542 
L 259.964414 180.68821 
L 260.098902 179.392218 
L 260.636855 257.568157 
L 261.040319 267.693437 
L 261.309296 261.767307 
L 261.443784 269.122113 
L 261.578272 264.356632 
L 261.71276 267.901427 
L 261.981737 252.574165 
L 262.385201 133.21868 
L 262.51969 159.690533 
L 262.923154 142.159928 
L 263.99906 257.214767 
L 264.268036 260.854735 
L 264.402525 258.953036 
L 264.537013 267.42573 
L 264.671501 257.797973 
L 264.805989 260.976178 
L 265.074966 255.656812 
L 265.209454 245.946714 
L 265.881895 116.732456 
L 266.016383 106.041295 
L 266.150871 108.55911 
L 266.823312 195.655461 
L 267.226777 261.807254 
L 267.361265 261.601802 
L 267.495754 262.391526 
L 267.630242 258.388911 
L 267.76473 274.636872 
L 267.899218 267.294895 
L 268.033706 269.024554 
L 268.168195 268.199232 
L 268.437171 275.175063 
L 268.571659 273.476273 
L 268.706147 266.443746 
L 268.840636 272.120809 
L 268.975124 272.270996 
L 269.109612 268.81906 
L 269.2441 268.384358 
L 269.513077 268.800358 
L 269.647565 266.599681 
L 269.782053 267.369741 
L 270.05103 262.817184 
L 270.185518 261.147604 
L 270.320006 262.623674 
L 270.454494 262.445024 
L 270.588982 262.524751 
L 270.723471 266.629536 
L 270.857959 266.287943 
L 270.992447 281.802766 
L 271.261424 273.620983 
L 271.395912 275.089456 
L 271.664888 272.076964 
L 271.799376 272.199086 
L 271.933865 274.386637 
L 272.068353 278.851996 
L 272.202841 277.302892 
L 272.337329 277.094028 
L 272.606306 281.712607 
L 272.875282 278.119272 
L 273.00977 281.19235 
L 273.278747 275.857017 
L 273.413235 273.228859 
L 273.547723 273.089131 
L 273.682211 273.361375 
L 273.8167 272.905903 
L 274.085676 275.253762 
L 274.220164 272.8191 
L 274.354652 289.210325 
L 274.489141 285.753329 
L 274.623629 287.17331 
L 274.758117 282.801707 
L 274.892605 265.142876 
L 275.29607 159.258154 
L 275.699535 145.595905 
L 275.834023 150.494546 
L 275.968511 160.27472 
L 276.237487 197.420931 
L 276.640952 248.138781 
L 277.044417 271.404733 
L 277.178905 271.386663 
L 277.313393 276.295323 
L 277.447881 273.200301 
L 277.58237 282.174884 
L 277.716858 279.404836 
L 277.851346 283.691427 
L 277.985834 281.470021 
L 278.120322 274.918642 
L 278.254811 257.997965 
L 278.523787 207.036929 
L 278.658275 204.047894 
L 278.792763 188.251525 
L 278.927252 191.81512 
L 279.06174 184.085128 
L 279.196228 208.609268 
L 279.330716 207.784947 
L 280.272134 270.347569 
L 280.406622 276.438743 
L 280.54111 275.72423 
L 280.675598 261.612866 
L 280.810087 264.206193 
L 281.079063 262.402863 
L 281.213551 258.228303 
L 281.482528 232.626683 
L 281.751504 123.109122 
L 281.885992 140.405715 
L 282.020481 125.265695 
L 282.154969 124.861595 
L 282.423945 147.901966 
L 282.558433 136.055808 
L 282.82741 178.377641 
L 283.230874 263.110225 
L 283.365363 268.088939 
L 283.768827 264.402603 
L 284.037804 257.30056 
L 284.441268 250.681861 
L 284.575757 239.550121 
L 284.979221 144.19038 
L 285.113709 147.972235 
L 285.248198 151.837773 
L 285.382686 133.915354 
L 285.517174 134.369159 
L 285.651662 140.54685 
L 285.920639 167.719506 
L 286.189615 217.921984 
L 286.458592 259.202517 
L 286.59308 265.671372 
L 286.727568 264.445257 
L 286.862056 266.480417 
L 286.996544 261.293186 
L 287.131033 289.386633 
L 287.400009 272.556049 
L 287.534497 273.160295 
L 287.668985 268.302824 
L 287.937962 235.994072 
L 288.341427 270.664239 
L 288.475915 271.607863 
L 288.610403 273.984735 
L 289.013868 265.946862 
L 289.282844 276.420054 
L 289.417332 272.355162 
L 289.55182 282.21806 
L 289.820797 284.098287 
L 289.955285 282.370383 
L 290.089773 274.962095 
L 290.224262 276.165149 
L 290.35875 274.456663 
L 290.493238 277.155316 
L 290.627726 274.569254 
L 290.762214 275.952744 
L 290.896703 272.438917 
L 291.031191 260.678306 
L 291.165679 258.94983 
L 291.300167 240.221297 
L 291.434655 170.390516 
L 291.83812 182.90834 
L 291.972608 187.798203 
L 292.241585 176.432722 
L 292.510561 232.476429 
L 292.645049 238.004505 
L 293.048514 269.087495 
L 293.183002 267.364059 
L 293.31749 272.126538 
L 293.451979 271.702119 
L 293.586467 268.910703 
L 293.720955 268.975739 
L 293.855443 266.666047 
L 293.989931 269.621388 
L 294.12442 268.014733 
L 294.527884 224.24959 
L 294.662373 169.847897 
L 294.796861 172.433517 
L 294.931349 153.010513 
L 295.065837 150.507004 
L 295.200325 135.13396 
L 295.334814 138.775465 
L 296.007255 238.808669 
L 296.276231 266.335328 
L 296.545208 259.477489 
L 296.679696 267.657386 
L 296.814184 288.996633 
L 296.948672 279.494609 
L 297.08316 280.123817 
L 297.352137 278.18534 
L 297.621113 251.721434 
L 298.024578 270.205988 
L 298.159066 266.510521 
L 298.293554 270.793427 
L 298.428042 270.519592 
L 298.562531 268.045113 
L 298.697019 269.097546 
L 298.831507 268.193541 
L 299.100484 278.94916 
L 299.234972 280.130438 
L 299.36946 279.576342 
L 299.503948 281.467432 
L 299.638436 281.196471 
L 299.772925 276.792356 
L 299.907413 279.497109 
L 300.041901 260.352521 
L 300.176389 271.058304 
L 300.310877 265.329345 
L 300.445366 264.71563 
L 300.579854 259.930499 
L 301.117807 149.577885 
L 301.386783 135.942095 
L 301.521271 124.715223 
L 301.65576 125.847093 
L 302.193712 203.412377 
L 302.597177 256.140638 
L 302.866153 263.730236 
L 303.000642 260.758433 
L 303.13513 268.132168 
L 303.269618 268.202456 
L 303.538595 259.90383 
L 303.673083 261.380284 
L 303.807571 257.63104 
L 304.076547 209.826394 
L 304.345524 146.528297 
L 304.480012 160.333358 
L 304.6145 152.740112 
L 304.883477 153.747823 
L 305.017965 166.737856 
L 305.152453 165.077969 
L 305.286941 180.027783 
L 305.555918 231.480282 
L 305.690406 239.323249 
L 305.959382 262.087707 
L 306.093871 267.744953 
L 306.228359 262.155649 
L 306.362847 266.728431 
L 306.497335 264.245206 
L 306.631823 276.52718 
L 306.9008 268.576976 
L 307.035288 267.564665 
L 307.573241 135.450291 
L 307.707729 164.546026 
L 308.111194 156.889108 
L 308.245682 162.451737 
L 308.38017 157.452375 
L 309.187099 266.712906 
L 309.590564 272.783915 
L 309.725052 271.731919 
L 309.859541 273.070033 
L 310.263005 262.45097 
L 310.531982 205.073189 
L 310.800958 134.4327 
L 310.935446 160.246579 
L 311.204423 165.389403 
L 311.338911 155.029322 
L 311.607887 168.019668 
L 311.742376 183.492779 
L 312.011352 238.331144 
L 312.14584 244.223514 
L 312.414817 261.452765 
L 312.549305 263.968506 
L 312.818281 272.210587 
L 313.087258 274.579173 
L 313.221746 271.882644 
L 313.356234 273.798235 
L 313.625211 268.822884 
L 313.894187 248.84567 
L 314.028675 242.84144 
L 314.163163 255.37674 
L 314.297652 253.58579 
L 314.43214 257.182955 
L 314.566628 255.055947 
L 314.835604 263.311385 
L 315.239069 271.947272 
L 315.508045 269.678552 
L 315.642534 272.059102 
L 316.045998 270.17031 
L 316.180487 271.218652 
L 316.314975 270.967913 
L 316.449463 271.680839 
L 316.583951 269.603128 
L 316.718439 270.177837 
L 316.852928 266.451053 
L 317.39088 273.385187 
L 317.525369 272.807745 
L 317.659857 275.130683 
L 317.794345 273.15602 
L 317.928833 275.868575 
L 318.063322 273.465507 
L 318.19781 273.633425 
L 318.332298 270.463541 
L 318.466786 270.149094 
L 318.601274 268.906614 
L 318.735763 270.445582 
L 318.870251 269.517486 
L 319.004739 270.287373 
L 319.139227 266.396646 
L 319.273715 267.221935 
L 319.408204 265.057931 
L 319.542692 281.644242 
L 319.811668 270.609822 
L 319.946157 268.063446 
L 320.215133 222.704653 
L 320.484109 133.734812 
L 320.618598 134.945609 
L 320.753086 127.887754 
L 321.022062 146.007071 
L 321.291039 164.782938 
L 321.560015 210.048164 
L 321.694503 220.910147 
L 321.96348 261.935769 
L 322.097968 266.869505 
L 322.232456 267.223095 
L 322.366944 265.624629 
L 322.501433 269.403153 
L 322.635921 267.583193 
L 322.770409 281.338238 
L 323.039385 275.219661 
L 323.173874 271.801514 
L 323.711826 140.207157 
L 323.980803 168.677916 
L 324.249779 151.5707 
L 324.384268 153.445992 
L 324.518756 157.531068 
L 325.325685 263.606074 
L 325.460173 262.978409 
L 325.594661 263.936491 
L 325.72915 267.765027 
L 325.863638 267.361919 
L 325.998126 277.420587 
L 326.267103 274.913907 
L 326.401591 270.652871 
L 326.805055 174.738534 
L 326.939544 131.091497 
L 327.074032 163.255011 
L 327.20852 168.044164 
L 327.343008 160.660296 
L 327.477496 159.908245 
L 327.611985 168.017224 
L 327.746473 168.488568 
L 327.880961 179.151443 
L 328.284426 242.373868 
L 328.553402 260.702194 
L 328.68789 262.741509 
L 328.956867 271.087105 
L 329.091355 270.678498 
L 329.225843 283.366032 
L 329.49482 274.585039 
L 329.629308 268.741384 
L 330.167261 144.721528 
L 330.436237 164.047834 
L 330.570725 163.489938 
L 330.705214 159.888715 
L 330.839702 152.965018 
L 331.512143 244.518924 
L 331.781119 263.303829 
L 331.915607 263.60558 
L 332.319072 268.746388 
L 332.45356 281.469836 
L 332.722537 270.74808 
L 332.857025 269.34322 
L 333.394978 145.240014 
L 333.663954 173.376836 
L 333.798442 165.011806 
L 333.932931 163.841385 
L 334.067419 163.939104 
L 334.201907 171.069066 
L 334.874348 260.818929 
L 335.008836 264.722976 
L 335.143325 265.17638 
L 335.277813 274.115693 
L 335.412301 275.651714 
L 335.681277 272.645699 
L 335.815766 272.00583 
L 335.950254 270.803364 
L 336.084742 271.28658 
L 336.488207 255.709814 
L 336.622695 256.833642 
L 336.891671 253.223972 
L 337.02616 256.972552 
L 337.160648 255.57307 
L 337.698601 266.173661 
L 337.967577 269.069037 
L 338.102065 268.19702 
L 338.236553 269.791643 
L 338.371042 268.819787 
L 338.50553 272.753229 
L 338.640018 273.385289 
L 338.774506 270.339189 
L 338.908995 271.321519 
L 339.043483 271.402877 
L 339.177971 269.84085 
L 339.312459 269.695032 
L 339.581436 262.821564 
L 339.850412 267.973793 
L 339.9849 267.993135 
L 340.253877 270.488014 
L 340.388365 270.71095 
L 340.522853 271.682757 
L 340.657341 273.910878 
L 340.791829 271.473297 
L 340.926318 273.082523 
L 341.195294 272.127954 
L 341.329782 268.983295 
L 341.464271 272.045664 
L 341.598759 271.292717 
L 342.002223 273.78384 
L 342.136712 283.874147 
L 342.405688 277.370538 
L 342.540176 274.636378 
L 343.078129 132.071682 
L 343.212617 140.066049 
L 343.481594 166.182307 
L 343.616082 163.474725 
L 343.75057 168.807241 
L 343.885058 178.845955 
L 344.288523 230.086808 
L 344.557499 257.574063 
L 344.691988 261.260327 
L 344.826476 261.783453 
L 345.095452 274.266349 
L 345.22994 273.518753 
L 345.364429 282.055427 
L 345.498917 279.437292 
L 345.633405 279.647402 
L 345.767893 275.63697 
L 346.03687 233.88622 
L 346.305846 150.125782 
L 346.440334 178.1722 
L 346.574823 171.054981 
L 346.709311 171.000126 
L 346.843799 160.275731 
L 346.978287 166.040618 
L 347.112775 177.217763 
L 347.650728 246.745607 
L 347.919705 260.743829 
L 348.054193 262.544063 
L 348.323169 270.503144 
L 348.457658 268.317841 
L 348.592146 281.623857 
L 348.726634 277.096472 
L 348.861122 279.074093 
L 348.99561 274.996645 
L 349.533563 142.197816 
L 349.668052 171.084441 
L 349.80254 161.922091 
L 349.937028 163.669225 
L 350.071516 157.878531 
L 350.206004 162.61083 
L 350.340493 173.92769 
L 350.743957 236.411446 
L 351.147422 261.857149 
L 351.550886 271.473293 
L 351.685375 271.097055 
L 351.819863 283.857976 
L 352.223328 268.579753 
L 352.492304 225.911217 
L 352.76128 138.432165 
L 352.895769 172.1337 
L 353.030257 165.291394 
L 353.164745 170.415523 
L 353.299233 161.087207 
L 353.702698 180.942251 
L 353.837186 196.543659 
L 354.106163 247.105253 
L 354.375139 268.002897 
L 354.509627 268.36456 
L 354.778604 273.406306 
L 355.04758 278.590811 
L 355.451045 268.205944 
L 355.988998 169.996696 
L 356.123486 177.764343 
L 356.392462 157.171967 
L 356.52695 154.9206 
L 356.795927 170.138837 
L 357.33388 247.115774 
L 357.602856 271.348384 
L 357.737344 271.563881 
L 358.006321 277.769049 
L 358.140809 281.816714 
L 358.409785 278.580119 
L 358.544274 278.94307 
L 358.678762 277.242557 
L 358.81325 270.979402 
L 358.947738 271.364992 
L 359.216715 254.135919 
L 359.351203 252.378988 
L 359.485691 255.227654 
L 359.620179 254.061516 
L 359.754667 249.767043 
L 359.889156 263.281805 
L 360.023644 262.473744 
L 360.158132 263.633019 
L 360.561597 277.384182 
L 360.830573 274.37627 
L 360.965061 274.853494 
L 361.234038 280.593362 
L 361.637502 279.726223 
L 361.771991 280.460819 
L 362.040967 274.031625 
L 362.175455 277.739023 
L 362.309944 278.267563 
L 362.444432 276.429461 
L 362.57892 278.578561 
L 362.713408 275.002815 
L 362.847896 276.523906 
L 362.982385 279.784462 
L 363.116873 279.204193 
L 363.251361 280.308918 
L 363.385849 278.60223 
L 363.520337 278.920973 
L 363.654826 279.863805 
L 363.923802 276.840338 
L 364.05829 276.150744 
L 364.192778 277.553913 
L 364.327267 277.392344 
L 364.461755 234.52162 
L 364.596243 251.09164 
L 364.999708 246.555243 
L 365.403172 167.060065 
L 365.672149 110.264389 
L 365.941125 92.523444 
L 366.34459 121.036859 
L 366.748055 189.869138 
L 367.017031 257.594574 
L 367.286007 262.511878 
L 367.420496 262.640103 
L 367.554984 254.249288 
L 367.689472 265.235499 
L 367.958448 260.090655 
L 368.092937 262.809823 
L 368.227425 258.14972 
L 368.361913 200.344288 
L 368.496401 192.865328 
L 368.899866 105.225399 
L 369.034354 107.59651 
L 369.437819 84.100565 
L 369.706795 131.947386 
L 369.975772 183.123054 
L 370.244748 258.636721 
L 370.379236 254.709758 
L 370.648213 262.190695 
L 370.782701 262.116912 
L 370.917189 291.626131 
L 371.051677 275.715861 
L 371.320654 273.002771 
L 371.455142 266.681557 
L 371.993095 132.889785 
L 372.396559 203.661172 
L 372.531048 201.524472 
L 372.665536 206.467812 
L 372.800024 205.411918 
L 372.934512 206.095546 
L 373.472465 256.859211 
L 373.606953 262.355485 
L 373.741442 262.651634 
L 373.87593 269.547613 
L 374.010418 268.73619 
L 374.279394 289.113219 
L 374.413883 279.394261 
L 374.548371 279.513062 
L 374.682859 269.751687 
L 374.951836 228.118476 
L 375.220812 180.39074 
L 375.489788 167.41915 
L 375.624277 175.94462 
L 375.758765 175.927194 
L 375.893253 182.028299 
L 376.296718 219.531671 
L 376.565694 248.026852 
L 376.83467 268.074201 
L 376.969159 268.19885 
L 377.238135 270.910341 
L 377.372623 286.972163 
L 377.507112 273.241397 
L 377.6416 272.441035 
L 377.776088 269.8958 
L 378.179553 243.154646 
L 378.314041 260.996523 
L 378.448529 256.823005 
L 378.583017 265.303125 
L 378.717505 251.933037 
L 378.851994 272.649187 
L 378.986482 273.842339 
L 379.12097 279.281685 
L 379.255458 277.079578 
L 379.389947 270.128153 
L 379.524435 273.033853 
L 379.658923 271.418586 
L 379.927899 280.262627 
L 380.062388 279.229338 
L 380.196876 282.26015 
L 380.331364 276.0437 
L 380.465852 277.388931 
L 380.60034 264.084013 
L 380.734829 269.389462 
L 381.003805 270.422505 
L 381.138293 268.746789 
L 381.272782 248.754182 
L 381.40727 247.722758 
L 381.676246 133.440248 
L 381.810734 141.782783 
L 381.945223 140.734694 
L 382.079711 135.38054 
L 382.214199 136.248998 
L 382.617664 161.443751 
L 382.88664 216.84311 
L 383.155616 264.252885 
L 383.424593 269.047267 
L 383.693569 270.186217 
L 383.828058 262.858728 
L 383.962546 263.804455 
L 384.097034 263.80623 
L 384.36601 260.469252 
L 384.500499 251.846763 
L 384.634987 254.460626 
L 384.903963 166.864131 
L 385.038451 162.229626 
L 385.17294 162.907885 
L 385.307428 142.142777 
L 385.441916 155.000729 
L 385.576404 185.362939 
L 385.710893 185.608437 
L 385.845381 196.22336 
L 386.114357 230.258651 
L 386.383334 260.598485 
L 386.517822 266.088081 
L 386.65231 265.638629 
L 386.786798 274.877783 
L 386.921286 271.622936 
L 387.055775 282.033027 
L 387.324751 273.130584 
L 387.459239 274.646209 
L 387.728216 240.104165 
L 387.862704 245.564968 
L 388.266169 277.023699 
L 388.400657 274.240741 
L 388.535145 287.118244 
L 388.804121 279.265997 
L 389.073098 291.832481 
L 389.207586 282.12199 
L 389.745539 294.107986 
L 390.149004 285.079495 
L 390.283492 258.388415 
L 390.41798 267.012436 
L 390.686956 262.734811 
L 390.821445 251.490198 
L 390.955933 214.443477 
L 391.090421 219.576583 
L 391.224909 217.251166 
L 391.359397 165.541897 
L 391.493886 176.789873 
L 391.628374 152.107679 
L 391.762862 155.308681 
L 392.166327 190.38346 
L 392.300815 190.168702 
L 392.569791 223.329582 
L 392.973256 277.785141 
L 393.242232 273.263762 
L 393.376721 272.625889 
L 393.511209 260.648666 
L 393.645697 260.397702 
L 393.780185 267.287212 
L 393.914673 263.631939 
L 394.318138 209.352984 
L 394.587115 158.702649 
L 394.856091 147.985876 
L 394.990579 135.619753 
L 395.125067 139.352789 
L 395.394044 159.372196 
L 396.066485 256.956123 
L 396.335461 264.976122 
L 396.46995 265.543774 
L 396.604438 255.473065 
L 396.738926 295.488 
L 396.873414 278.26656 
L 397.007902 278.526909 
L 397.142391 277.291202 
L 397.276879 268.040482 
L 397.680343 180.276001 
L 397.814832 158.485954 
L 397.94932 175.294008 
L 398.083808 156.713205 
L 398.218296 164.393319 
L 398.352785 153.16535 
L 398.487273 171.676755 
L 398.487273 171.676755 
" clip-path="url(#pc1c31c13b0)" style="fill: none; stroke: #ff7f0e; stroke-width: 1.5; stroke-linecap: square"/>
   </g>
   <g id="patch_3">
    <path d="M 57.6 307.584 
L 57.6 41.472 
" style="fill: none; stroke: #000000; stroke-width: 0.8; stroke-linejoin: miter; stroke-linecap: square"/>
   </g>
   <g id="patch_4">
    <path d="M 414.72 307.584 
L 414.72 41.472 
" style="fill: none; stroke: #000000; stroke-width: 0.8; stroke-linejoin: miter; stroke-linecap: square"/>
   </g>
   <g id="patch_5">
    <path d="M 57.6 307.584 
L 414.72 307.584 
" style="fill: none; stroke: #000000; stroke-width: 0.8; stroke-linejoin: miter; stroke-linecap: square"/>
   </g>
   <g id="patch_6">
    <path d="M 57.6 41.472 
L 414.72 41.472 
" style="fill: none; stroke: #000000; stroke-width: 0.8; stroke-linejoin: miter; stroke-linecap: square"/>
   </g>
  </g>
 </g>
 <defs>
  <clipPath id="pc1c31c13b0">
   <rect x="57.6" y="41.472" width="357.12" height="266.112"/>
  </clipPath>
 </defs>
</svg>
