<?xml version="1.0" encoding="utf-8" standalone="no"?>
<!DOCTYPE svg PUBLIC "-//W3C//DTD SVG 1.1//EN"
  "http://www.w3.org/Graphics/SVG/1.1/DTD/svg11.dtd">
<svg xmlns:xlink="http://www.w3.org/1999/xlink" width="460.8pt" height="345.6pt" viewBox="0 0 460.8 345.6" xmlns="http://www.w3.org/2000/svg" version="1.1">
 <metadata>
  <rdf:RDF xmlns:dc="http://purl.org/dc/elements/1.1/" xmlns:cc="http://creativecommons.org/ns#" xmlns:rdf="http://www.w3.org/1999/02/22-rdf-syntax-ns#">
   <cc:Work>
    <dc:type rdf:resource="http://purl.org/dc/dcmitype/StillImage"/>
    <dc:date>2023-04-04T07:05:20.359225</dc:date>
    <dc:format>image/svg+xml</dc:format>
    <dc:creator>
     <cc:Agent>
      <dc:title>Matplotlib v3.5.2, https://matplotlib.org/</dc:title>
     </cc:Agent>
    </dc:creator>
   </cc:Work>
  </rdf:RDF>
 </metadata>
 <defs>
  <style type="text/css">*{stroke-linejoin: round; stroke-linecap: butt}</style>
 </defs>
 <g id="figure_1">
  <g id="patch_1">
   <path d="M 0 345.6 
L 460.8 345.6 
L 460.8 0 
L 0 0 
z
" style="fill: #ffffff"/>
  </g>
  <g id="axes_1">
   <g id="patch_2">
    <path d="M 57.6 307.584 
L 414.72 307.584 
L 414.72 41.472 
L 57.6 41.472 
z
" style="fill: #ffffff"/>
   </g>
   <g id="matplotlib.axis_1">
    <g id="xtick_1">
     <g id="line2d_1">
      <defs>
       <path id="m08afa5e053" d="M 0 0 
L 0 3.5 
" style="stroke: #000000; stroke-width: 0.8"/>
      </defs>
      <g>
       <use xlink:href="#m08afa5e053" x="73.832727" y="307.584" style="stroke: #000000; stroke-width: 0.8"/>
      </g>
     </g>
     <g id="text_1">
      <!-- 0 -->
      <g transform="translate(70.651477 322.182437)scale(0.1 -0.1)">
       <defs>
        <path id="DejaVuSans-30" d="M 2034 4250 
Q 1547 4250 1301 3770 
Q 1056 3291 1056 2328 
Q 1056 1369 1301 889 
Q 1547 409 2034 409 
Q 2525 409 2770 889 
Q 3016 1369 3016 2328 
Q 3016 3291 2770 3770 
Q 2525 4250 2034 4250 
z
M 2034 4750 
Q 2819 4750 3233 4129 
Q 3647 3509 3647 2328 
Q 3647 1150 3233 529 
Q 2819 -91 2034 -91 
Q 1250 -91 836 529 
Q 422 1150 422 2328 
Q 422 3509 836 4129 
Q 1250 4750 2034 4750 
z
" transform="scale(0.015625)"/>
       </defs>
       <use xlink:href="#DejaVuSans-30"/>
      </g>
     </g>
    </g>
    <g id="xtick_2">
     <g id="line2d_2">
      <g>
       <use xlink:href="#m08afa5e053" x="141.076834" y="307.584" style="stroke: #000000; stroke-width: 0.8"/>
      </g>
     </g>
     <g id="text_2">
      <!-- 500 -->
      <g transform="translate(131.533084 322.182437)scale(0.1 -0.1)">
       <defs>
        <path id="DejaVuSans-35" d="M 691 4666 
L 3169 4666 
L 3169 4134 
L 1269 4134 
L 1269 2991 
Q 1406 3038 1543 3061 
Q 1681 3084 1819 3084 
Q 2600 3084 3056 2656 
Q 3513 2228 3513 1497 
Q 3513 744 3044 326 
Q 2575 -91 1722 -91 
Q 1428 -91 1123 -41 
Q 819 9 494 109 
L 494 744 
Q 775 591 1075 516 
Q 1375 441 1709 441 
Q 2250 441 2565 725 
Q 2881 1009 2881 1497 
Q 2881 1984 2565 2268 
Q 2250 2553 1709 2553 
Q 1456 2553 1204 2497 
Q 953 2441 691 2322 
L 691 4666 
z
" transform="scale(0.015625)"/>
       </defs>
       <use xlink:href="#DejaVuSans-35"/>
       <use xlink:href="#DejaVuSans-30" x="63.623047"/>
       <use xlink:href="#DejaVuSans-30" x="127.246094"/>
      </g>
     </g>
    </g>
    <g id="xtick_3">
     <g id="line2d_3">
      <g>
       <use xlink:href="#m08afa5e053" x="208.32094" y="307.584" style="stroke: #000000; stroke-width: 0.8"/>
      </g>
     </g>
     <g id="text_3">
      <!-- 1000 -->
      <g transform="translate(195.59594 322.182437)scale(0.1 -0.1)">
       <defs>
        <path id="DejaVuSans-31" d="M 794 531 
L 1825 531 
L 1825 4091 
L 703 3866 
L 703 4441 
L 1819 4666 
L 2450 4666 
L 2450 531 
L 3481 531 
L 3481 0 
L 794 0 
L 794 531 
z
" transform="scale(0.015625)"/>
       </defs>
       <use xlink:href="#DejaVuSans-31"/>
       <use xlink:href="#DejaVuSans-30" x="63.623047"/>
       <use xlink:href="#DejaVuSans-30" x="127.246094"/>
       <use xlink:href="#DejaVuSans-30" x="190.869141"/>
      </g>
     </g>
    </g>
    <g id="xtick_4">
     <g id="line2d_4">
      <g>
       <use xlink:href="#m08afa5e053" x="275.565046" y="307.584" style="stroke: #000000; stroke-width: 0.8"/>
      </g>
     </g>
     <g id="text_4">
      <!-- 1500 -->
      <g transform="translate(262.840046 322.182437)scale(0.1 -0.1)">
       <use xlink:href="#DejaVuSans-31"/>
       <use xlink:href="#DejaVuSans-35" x="63.623047"/>
       <use xlink:href="#DejaVuSans-30" x="127.246094"/>
       <use xlink:href="#DejaVuSans-30" x="190.869141"/>
      </g>
     </g>
    </g>
    <g id="xtick_5">
     <g id="line2d_5">
      <g>
       <use xlink:href="#m08afa5e053" x="342.809153" y="307.584" style="stroke: #000000; stroke-width: 0.8"/>
      </g>
     </g>
     <g id="text_5">
      <!-- 2000 -->
      <g transform="translate(330.084153 322.182437)scale(0.1 -0.1)">
       <defs>
        <path id="DejaVuSans-32" d="M 1228 531 
L 3431 531 
L 3431 0 
L 469 0 
L 469 531 
Q 828 903 1448 1529 
Q 2069 2156 2228 2338 
Q 2531 2678 2651 2914 
Q 2772 3150 2772 3378 
Q 2772 3750 2511 3984 
Q 2250 4219 1831 4219 
Q 1534 4219 1204 4116 
Q 875 4013 500 3803 
L 500 4441 
Q 881 4594 1212 4672 
Q 1544 4750 1819 4750 
Q 2544 4750 2975 4387 
Q 3406 4025 3406 3419 
Q 3406 3131 3298 2873 
Q 3191 2616 2906 2266 
Q 2828 2175 2409 1742 
Q 1991 1309 1228 531 
z
" transform="scale(0.015625)"/>
       </defs>
       <use xlink:href="#DejaVuSans-32"/>
       <use xlink:href="#DejaVuSans-30" x="63.623047"/>
       <use xlink:href="#DejaVuSans-30" x="127.246094"/>
       <use xlink:href="#DejaVuSans-30" x="190.869141"/>
      </g>
     </g>
    </g>
    <g id="xtick_6">
     <g id="line2d_6">
      <g>
       <use xlink:href="#m08afa5e053" x="410.053259" y="307.584" style="stroke: #000000; stroke-width: 0.8"/>
      </g>
     </g>
     <g id="text_6">
      <!-- 2500 -->
      <g transform="translate(397.328259 322.182437)scale(0.1 -0.1)">
       <use xlink:href="#DejaVuSans-32"/>
       <use xlink:href="#DejaVuSans-35" x="63.623047"/>
       <use xlink:href="#DejaVuSans-30" x="127.246094"/>
       <use xlink:href="#DejaVuSans-30" x="190.869141"/>
      </g>
     </g>
    </g>
   </g>
   <g id="matplotlib.axis_2">
    <g id="ytick_1">
     <g id="line2d_7">
      <defs>
       <path id="m30af64afd9" d="M 0 0 
L -3.5 0 
" style="stroke: #000000; stroke-width: 0.8"/>
      </defs>
      <g>
       <use xlink:href="#m30af64afd9" x="57.6" y="279.659653" style="stroke: #000000; stroke-width: 0.8"/>
      </g>
     </g>
     <g id="text_7">
      <!-- 100 -->
      <g transform="translate(31.5125 283.458872)scale(0.1 -0.1)">
       <use xlink:href="#DejaVuSans-31"/>
       <use xlink:href="#DejaVuSans-30" x="63.623047"/>
       <use xlink:href="#DejaVuSans-30" x="127.246094"/>
      </g>
     </g>
    </g>
    <g id="ytick_2">
     <g id="line2d_8">
      <g>
       <use xlink:href="#m30af64afd9" x="57.6" y="232.019186" style="stroke: #000000; stroke-width: 0.8"/>
      </g>
     </g>
     <g id="text_8">
      <!-- 200 -->
      <g transform="translate(31.5125 235.818405)scale(0.1 -0.1)">
       <use xlink:href="#DejaVuSans-32"/>
       <use xlink:href="#DejaVuSans-30" x="63.623047"/>
       <use xlink:href="#DejaVuSans-30" x="127.246094"/>
      </g>
     </g>
    </g>
    <g id="ytick_3">
     <g id="line2d_9">
      <g>
       <use xlink:href="#m30af64afd9" x="57.6" y="184.378719" style="stroke: #000000; stroke-width: 0.8"/>
      </g>
     </g>
     <g id="text_9">
      <!-- 300 -->
      <g transform="translate(31.5125 188.177938)scale(0.1 -0.1)">
       <defs>
        <path id="DejaVuSans-33" d="M 2597 2516 
Q 3050 2419 3304 2112 
Q 3559 1806 3559 1356 
Q 3559 666 3084 287 
Q 2609 -91 1734 -91 
Q 1441 -91 1130 -33 
Q 819 25 488 141 
L 488 750 
Q 750 597 1062 519 
Q 1375 441 1716 441 
Q 2309 441 2620 675 
Q 2931 909 2931 1356 
Q 2931 1769 2642 2001 
Q 2353 2234 1838 2234 
L 1294 2234 
L 1294 2753 
L 1863 2753 
Q 2328 2753 2575 2939 
Q 2822 3125 2822 3475 
Q 2822 3834 2567 4026 
Q 2313 4219 1838 4219 
Q 1578 4219 1281 4162 
Q 984 4106 628 3988 
L 628 4550 
Q 988 4650 1302 4700 
Q 1616 4750 1894 4750 
Q 2613 4750 3031 4423 
Q 3450 4097 3450 3541 
Q 3450 3153 3228 2886 
Q 3006 2619 2597 2516 
z
" transform="scale(0.015625)"/>
       </defs>
       <use xlink:href="#DejaVuSans-33"/>
       <use xlink:href="#DejaVuSans-30" x="63.623047"/>
       <use xlink:href="#DejaVuSans-30" x="127.246094"/>
      </g>
     </g>
    </g>
    <g id="ytick_4">
     <g id="line2d_10">
      <g>
       <use xlink:href="#m30af64afd9" x="57.6" y="136.738251" style="stroke: #000000; stroke-width: 0.8"/>
      </g>
     </g>
     <g id="text_10">
      <!-- 400 -->
      <g transform="translate(31.5125 140.53747)scale(0.1 -0.1)">
       <defs>
        <path id="DejaVuSans-34" d="M 2419 4116 
L 825 1625 
L 2419 1625 
L 2419 4116 
z
M 2253 4666 
L 3047 4666 
L 3047 1625 
L 3713 1625 
L 3713 1100 
L 3047 1100 
L 3047 0 
L 2419 0 
L 2419 1100 
L 313 1100 
L 313 1709 
L 2253 4666 
z
" transform="scale(0.015625)"/>
       </defs>
       <use xlink:href="#DejaVuSans-34"/>
       <use xlink:href="#DejaVuSans-30" x="63.623047"/>
       <use xlink:href="#DejaVuSans-30" x="127.246094"/>
      </g>
     </g>
    </g>
    <g id="ytick_5">
     <g id="line2d_11">
      <g>
       <use xlink:href="#m30af64afd9" x="57.6" y="89.097784" style="stroke: #000000; stroke-width: 0.8"/>
      </g>
     </g>
     <g id="text_11">
      <!-- 500 -->
      <g transform="translate(31.5125 92.897003)scale(0.1 -0.1)">
       <use xlink:href="#DejaVuSans-35"/>
       <use xlink:href="#DejaVuSans-30" x="63.623047"/>
       <use xlink:href="#DejaVuSans-30" x="127.246094"/>
      </g>
     </g>
    </g>
   </g>
   <g id="line2d_12">
    <path d="M 73.832727 282.720077 
L 74.101704 282.172688 
L 74.236192 281.066 
L 74.37068 282.026432 
L 74.505168 281.535735 
L 74.639657 282.135528 
L 74.774145 275.686915 
L 74.908633 248.6681 
L 75.177609 247.180288 
L 75.312098 247.733871 
L 75.446586 247.786275 
L 75.581074 248.649997 
L 75.715562 247.896325 
L 75.85005 247.87441 
L 76.253515 242.906462 
L 76.522492 276.845055 
L 76.65698 277.1571 
L 76.925956 275.456335 
L 77.060444 266.631415 
L 77.194933 268.867182 
L 77.463909 268.930544 
L 77.598397 270.509349 
L 77.732885 265.201724 
L 77.867374 251.841432 
L 78.405327 103.931596 
L 78.674303 103.013088 
L 78.808791 110.126286 
L 78.943279 105.340325 
L 79.481232 157.854412 
L 79.750209 227.984515 
L 80.019185 262.584834 
L 80.153673 264.701499 
L 80.288161 260.880258 
L 80.42265 271.239677 
L 80.557138 270.806625 
L 80.826114 273.305368 
L 80.960603 270.77423 
L 81.095091 260.496752 
L 81.364067 168.006119 
L 81.498555 180.263535 
L 81.767532 160.927222 
L 82.036508 168.90176 
L 82.170996 165.811799 
L 82.305485 159.85817 
L 83.112414 260.020347 
L 83.650367 286.111602 
L 83.784855 286.132087 
L 83.919343 287.655153 
L 84.053831 287.846668 
L 84.18832 285.757157 
L 84.322808 278.558206 
L 84.726273 188.744968 
L 84.860761 180.110609 
L 84.995249 184.192445 
L 85.129737 169.363396 
L 85.264225 177.874842 
L 85.398714 178.619463 
L 85.66769 186.886037 
L 85.802178 195.624727 
L 86.340131 262.138442 
L 86.474619 264.144106 
L 86.609107 269.036782 
L 86.878084 286.492249 
L 87.012572 288.735162 
L 87.14706 288.409778 
L 87.281549 289.895208 
L 87.416037 289.798498 
L 87.550525 288.990039 
L 87.819501 261.58486 
L 87.95399 261.730164 
L 88.088478 256.064283 
L 88.222966 257.518746 
L 88.357454 256.763645 
L 88.491942 253.417378 
L 88.626431 256.241982 
L 88.760919 249.273134 
L 88.895407 252.140137 
L 89.029895 252.138708 
L 89.164384 254.690332 
L 89.43336 275.914636 
L 89.567848 277.572048 
L 89.702336 277.075634 
L 89.836825 278.131824 
L 89.971313 263.036942 
L 90.105801 263.747737 
L 90.240289 265.286524 
L 90.374777 265.056897 
L 90.509266 266.288403 
L 90.643754 266.459433 
L 90.778242 268.551326 
L 90.91273 265.339882 
L 91.047218 255.436858 
L 91.181707 254.270143 
L 91.316195 247.363704 
L 91.450683 251.782358 
L 91.585171 249.823382 
L 91.71966 251.316434 
L 91.854148 251.541773 
L 92.123124 254.514062 
L 92.257612 253.943329 
L 92.526589 259.518693 
L 92.795565 266.092601 
L 92.930053 267.044458 
L 93.064542 265.907756 
L 93.19903 275.891292 
L 93.468006 276.015634 
L 93.602495 277.072776 
L 93.736983 275.842699 
L 93.871471 273.327759 
L 94.005959 268.12542 
L 94.6784 161.213542 
L 94.812888 156.829666 
L 95.081865 168.653553 
L 95.216353 163.452643 
L 95.350841 152.219974 
L 96.023282 264.469967 
L 96.157771 265.197437 
L 96.426747 269.113483 
L 96.561235 268.780953 
L 96.695723 268.85813 
L 96.830212 270.735641 
L 96.9647 270.099641 
L 97.099188 268.676144 
L 97.233676 260.231871 
L 97.368164 242.717329 
L 97.502653 201.807984 
L 97.637141 194.731469 
L 97.771629 179.301198 
L 97.906117 187.67401 
L 98.040606 180.979095 
L 98.175094 181.687032 
L 98.309582 176.382266 
L 98.44407 178.020146 
L 98.713047 189.358577 
L 98.982023 231.191671 
L 99.250999 265.947774 
L 99.385488 270.62178 
L 99.519976 271.374023 
L 99.654464 281.153182 
L 99.788952 281.165569 
L 99.923441 280.167024 
L 100.192417 281.401865 
L 100.326905 281.482378 
L 100.461393 280.829227 
L 100.595882 281.234171 
L 100.73037 282.060733 
L 100.864858 280.526234 
L 100.999346 281.679133 
L 101.133834 280.773488 
L 101.268323 278.563923 
L 101.402811 271.556963 
L 101.537299 275.817926 
L 101.806276 265.458983 
L 101.940764 267.614238 
L 102.075252 267.466076 
L 102.20974 268.112557 
L 102.344228 270.485052 
L 102.478717 276.288138 
L 102.613205 274.44064 
L 102.747693 280.09604 
L 102.882181 266.673338 
L 103.016669 266.701923 
L 103.151158 271.595552 
L 103.285646 271.376882 
L 103.554622 267.206912 
L 103.68911 263.029319 
L 103.823599 245.648647 
L 104.092575 183.541676 
L 104.227063 162.113946 
L 104.361552 169.260016 
L 104.630528 144.449814 
L 105.033993 159.727635 
L 105.168481 170.479612 
L 105.706434 253.328767 
L 105.840922 253.206808 
L 105.97541 261.883089 
L 106.109898 278.272839 
L 106.378875 281.453793 
L 106.513363 281.439978 
L 106.647851 283.591421 
L 106.782339 283.323682 
L 106.916828 284.432275 
L 107.320292 246.957807 
L 107.45478 254.003356 
L 107.589269 251.476029 
L 107.723757 251.568452 
L 108.26171 246.518562 
L 108.396198 243.120368 
L 108.530686 245.374238 
L 108.934151 276.902223 
L 109.068639 278.413379 
L 109.203127 277.349091 
L 109.337615 272.86517 
L 109.606592 274.409674 
L 109.875568 275.459193 
L 110.144545 276.505378 
L 110.413521 275.271014 
L 110.548009 275.136667 
L 110.951474 271.098185 
L 111.085962 272.268235 
L 111.22045 271.921889 
L 111.623915 266.1431 
L 111.758403 266.649518 
L 112.02738 270.419785 
L 112.430844 272.012406 
L 112.565333 261.802577 
L 112.834309 265.989221 
L 112.968797 266.510884 
L 113.103285 268.014894 
L 113.237774 268.192593 
L 113.50675 270.800432 
L 113.641238 271.627471 
L 114.313679 260.436248 
L 114.448168 260.076563 
L 114.582656 258.600185 
L 114.98612 247.812001 
L 115.524073 258.830288 
L 115.658561 259.378154 
L 115.927538 261.594865 
L 116.062026 260.316194 
L 116.196514 266.388448 
L 116.331002 265.973024 
L 116.465491 266.581392 
L 116.599979 256.867025 
L 117.137932 79.011821 
L 117.406908 64.378098 
L 117.810373 80.840738 
L 118.213837 147.729384 
L 118.482814 209.779187 
L 118.75179 244.051739 
L 118.886279 245.578616 
L 119.289743 253.535527 
L 119.424231 254.947114 
L 119.55872 257.705497 
L 119.693208 258.020877 
L 119.827696 248.44943 
L 120.365649 91.809956 
L 120.634625 73.329266 
L 120.769114 77.003775 
L 120.903602 70.613759 
L 121.03809 71.935782 
L 121.441555 135.075599 
L 121.710531 201.599795 
L 121.845019 229.650502 
L 122.248484 240.564933 
L 122.51746 256.009496 
L 122.651948 256.168139 
L 122.786437 257.898917 
L 122.920925 256.564508 
L 123.055413 248.441332 
L 123.727854 60.439661 
L 123.862342 53.568 
L 124.534783 107.451274 
L 125.072736 247.745781 
L 125.207225 252.892857 
L 125.341713 253.354017 
L 125.476201 253.307805 
L 125.745177 266.844844 
L 125.879666 268.275011 
L 126.014154 268.503685 
L 126.28313 255.114332 
L 126.821083 92.910451 
L 126.955571 74.643666 
L 127.09006 81.211381 
L 127.359036 105.636172 
L 127.493524 108.067742 
L 127.762501 126.47983 
L 127.896989 149.177654 
L 128.300453 246.135533 
L 128.434942 251.910987 
L 128.56943 250.092074 
L 128.703918 257.558764 
L 128.838406 258.279564 
L 129.241871 264.942084 
L 129.510847 244.326148 
L 130.0488 83.375211 
L 130.183288 74.308277 
L 130.317777 86.172183 
L 130.452265 114.864131 
L 130.586753 113.94991 
L 130.721241 110.31923 
L 130.855729 116.680185 
L 131.124706 169.709742 
L 131.393682 235.054837 
L 131.662659 258.050414 
L 131.931635 257.855088 
L 132.066123 257.673578 
L 132.3351 268.893861 
L 132.469588 268.746175 
L 132.604076 268.844791 
L 132.738564 268.803344 
L 133.007541 256.966593 
L 133.276517 246.554769 
L 133.679982 241.002273 
L 133.81447 239.825553 
L 133.948958 234.749938 
L 134.486911 244.581501 
L 134.755888 251.635625 
L 134.890376 251.521288 
L 135.697305 265.698138 
L 135.831793 270.426454 
L 135.966282 271.032918 
L 136.10077 269.059649 
L 136.235258 270.556037 
L 136.369746 270.283057 
L 136.504234 266.003513 
L 136.638723 265.845347 
L 136.907699 263.919719 
L 137.311164 253.087706 
L 137.445652 253.595077 
L 137.58014 250.925306 
L 137.983605 257.70645 
L 138.118093 256.808903 
L 138.252581 258.634962 
L 138.387069 263.105544 
L 138.521558 261.878325 
L 138.656046 262.078415 
L 138.925022 266.751469 
L 139.193999 250.584676 
L 139.731951 81.530096 
L 139.86644 72.655153 
L 140.269904 98.542507 
L 140.538881 122.854866 
L 140.673369 129.912325 
L 140.807857 144.204942 
L 141.076834 223.937934 
L 141.480298 256.971357 
L 142.018251 265.370372 
L 142.152739 264.908736 
L 142.421716 241.283828 
L 142.959669 91.481713 
L 143.094157 84.100299 
L 143.228645 83.614843 
L 143.363133 93.792752 
L 143.497621 84.561935 
L 143.63211 89.664706 
L 144.573527 258.213344 
L 144.708015 261.686811 
L 144.842504 261.861651 
L 145.11148 264.093607 
L 145.245968 266.226947 
L 145.380456 262.167979 
L 145.783921 201.284891 
L 146.052897 110.017666 
L 146.187386 90.985299 
L 146.456362 106.227867 
L 146.59085 117.497696 
L 146.725339 111.833244 
L 146.859827 119.213229 
L 146.994315 114.159052 
L 147.128803 126.960046 
L 147.532268 233.744724 
L 147.801244 259.644464 
L 147.935732 259.845983 
L 148.204709 265.09501 
L 148.339197 265.073572 
L 148.473685 265.575226 
L 148.742662 264.526183 
L 148.87715 246.91112 
L 149.280615 119.07793 
L 149.415103 115.054216 
L 149.549591 106.006339 
L 149.684079 107.257377 
L 150.087544 139.846792 
L 150.222032 132.18287 
L 150.35652 137.682486 
L 150.894473 252.092973 
L 151.028961 261.231368 
L 151.16345 260.277129 
L 151.835891 268.422696 
L 151.970379 267.154984 
L 152.104867 246.281789 
L 152.508332 113.09 
L 152.64282 116.187583 
L 152.911796 104.377035 
L 153.046285 118.475278 
L 153.180773 116.979844 
L 153.449749 151.328621 
L 153.718726 192.127917 
L 153.987702 248.548523 
L 154.12219 265.538066 
L 154.256678 266.912017 
L 154.525655 270.760414 
L 154.794631 272.45832 
L 155.063608 275.392497 
L 155.198096 277.02847 
L 155.332584 276.38723 
L 155.467072 272.021934 
L 155.601561 261.583431 
L 155.736049 260.725426 
L 155.870537 257.870333 
L 156.005025 260.001767 
L 156.274002 258.111394 
L 156.40849 258.64592 
L 156.542978 259.895053 
L 156.677466 258.702612 
L 157.215419 266.683343 
L 157.349907 268.682337 
L 157.484396 267.693797 
L 157.618884 268.461285 
L 157.88786 271.626041 
L 158.022348 272.105305 
L 158.291325 275.093791 
L 158.560301 279.359995 
L 158.694789 277.799293 
L 158.829278 278.760201 
L 158.963766 278.365262 
L 159.232742 275.660713 
L 159.367231 275.941791 
L 159.501719 273.965188 
L 160.039672 259.931736 
L 160.308648 260.189947 
L 160.443136 265.8887 
L 160.577624 265.606192 
L 160.712113 263.657697 
L 160.846601 264.357059 
L 160.981089 265.843918 
L 161.250066 269.587506 
L 161.519042 270.535551 
L 161.788018 253.830898 
L 162.460459 83.799688 
L 162.594948 83.464299 
L 162.729436 82.010312 
L 162.998412 101.531946 
L 163.132901 110.445478 
L 163.401877 151.56587 
L 163.670853 222.045654 
L 164.074318 256.014737 
L 164.208806 257.143816 
L 164.477783 269.754247 
L 164.612271 272.10721 
L 164.746759 267.42177 
L 165.015735 249.974878 
L 165.4192 120.684843 
L 165.553688 123.274579 
L 165.822665 109.431688 
L 165.957153 114.668329 
L 166.091641 111.594566 
L 166.360618 100.181815 
L 166.495106 106.353161 
L 166.89857 221.149537 
L 167.033059 228.095994 
L 167.302035 246.418994 
L 167.974476 264.816313 
L 168.108964 259.163295 
L 168.243453 245.202256 
L 168.377941 207.264246 
L 168.646917 106.17975 
L 168.781405 107.457944 
L 168.915894 102.948774 
L 169.050382 104.244118 
L 169.18487 108.025818 
L 169.319358 92.75419 
L 169.453847 95.223395 
L 169.857311 148.403973 
L 170.126288 226.315669 
L 170.395264 257.018521 
L 170.529752 257.895106 
L 170.66424 261.319503 
L 170.798729 261.508159 
L 171.067705 263.82682 
L 171.202193 266.650947 
L 171.47117 244.943092 
L 172.009123 110.227284 
L 172.143611 108.656578 
L 172.412587 96.942263 
L 172.95054 129.324442 
L 173.622981 258.980832 
L 173.757469 262.955476 
L 173.891958 276.286708 
L 174.026446 275.361054 
L 174.160934 275.317225 
L 174.42991 276.842673 
L 174.698887 262.10557 
L 174.833375 245.04409 
L 175.102351 176.771965 
L 175.371328 143.519396 
L 175.505816 140.630001 
L 175.640304 150.759794 
L 175.774792 150.450607 
L 175.909281 151.854572 
L 176.043769 156.644344 
L 176.178257 156.33754 
L 176.312745 170.760215 
L 176.581722 238.184339 
L 176.850698 265.216017 
L 176.985186 262.730613 
L 177.254163 267.448925 
L 177.388651 267.405572 
L 177.792116 273.941845 
L 177.926604 274.829386 
L 178.19558 264.149823 
L 178.330069 263.711054 
L 178.599045 256.169568 
L 178.733533 255.605981 
L 178.868021 257.90654 
L 179.136998 254.407824 
L 179.271486 255.0019 
L 179.540462 252.52412 
L 179.809439 260.006531 
L 179.943927 267.254076 
L 180.212904 265.358462 
L 180.48188 275.195265 
L 180.616368 275.209081 
L 180.750856 275.5802 
L 180.885345 276.409144 
L 181.019833 276.495374 
L 181.692274 264.222236 
L 181.826762 265.514246 
L 181.96125 259.54823 
L 182.095738 261.32522 
L 182.364715 266.747658 
L 182.499203 268.02204 
L 182.633691 271.160594 
L 182.902668 270.344989 
L 183.171644 276.458214 
L 183.306132 277.870277 
L 183.440621 276.763589 
L 183.575109 274.468272 
L 183.844085 286.167818 
L 183.978573 287.116339 
L 184.113062 284.843889 
L 184.382038 273.490213 
L 184.919991 182.020992 
L 185.054479 186.025173 
L 185.188967 178.972479 
L 185.457944 182.821828 
L 185.592432 184.316786 
L 185.995897 221.965142 
L 186.264873 252.476003 
L 186.53385 268.188305 
L 186.802826 278.413379 
L 187.071802 288.880942 
L 187.206291 287.73376 
L 187.340779 288.864744 
L 187.475267 285.696177 
L 187.609755 277.72021 
L 188.01322 202.023795 
L 188.147708 185.670252 
L 188.282196 185.888445 
L 188.416684 184.932777 
L 188.551173 188.235691 
L 188.685661 194.619514 
L 188.820149 190.219916 
L 188.954637 194.642857 
L 189.089126 202.992326 
L 189.627078 264.822506 
L 189.761567 267.404143 
L 189.896055 272.625538 
L 190.030543 270.196351 
L 190.299519 272.022886 
L 190.434008 270.854742 
L 190.971961 274.270087 
L 191.106449 270.827111 
L 191.240937 270.343084 
L 191.375425 270.780423 
L 191.509913 266.363675 
L 191.644402 267.908656 
L 191.913378 266.646183 
L 192.182354 261.025085 
L 192.316843 261.37286 
L 192.451331 260.87597 
L 192.585819 262.193229 
L 192.720307 267.947721 
L 192.989284 269.202094 
L 193.392748 266.521842 
L 193.661725 269.396468 
L 193.796213 269.929564 
L 194.065189 262.06317 
L 194.603142 158.585693 
L 194.73763 153.686824 
L 194.872119 143.760933 
L 195.006607 145.332592 
L 195.141095 150.064243 
L 195.275583 142.684735 
L 195.54456 156.043598 
L 195.948024 249.827193 
L 196.217001 260.137066 
L 196.351489 262.058883 
L 196.485977 271.507893 
L 196.620465 270.857124 
L 196.889442 271.412612 
L 197.02393 272.538356 
L 197.158418 270.812819 
L 197.292907 264.507126 
L 197.830859 195.962975 
L 197.965348 198.268773 
L 198.099836 194.95919 
L 198.234324 199.352118 
L 198.5033 186.059951 
L 198.772277 199.825664 
L 199.31023 272.182482 
L 199.713694 281.272283 
L 199.848183 280.106521 
L 200.117159 280.832562 
L 200.251647 279.053667 
L 200.386135 273.28917 
L 200.520624 272.887085 
L 200.655112 259.961273 
L 200.7896 212.855808 
L 200.924088 210.890639 
L 201.058576 199.235875 
L 201.193065 198.878571 
L 201.327553 196.200224 
L 201.462041 198.367389 
L 201.731018 186.596859 
L 201.865506 187.954612 
L 202.134482 210.593362 
L 202.403459 263.933059 
L 202.806923 273.707453 
L 203.0759 265.256987 
L 203.210388 269.573214 
L 203.344876 269.698984 
L 203.748341 260.345732 
L 203.882829 243.001743 
L 204.151805 181.194906 
L 204.420782 164.763709 
L 204.55527 159.148804 
L 204.689758 162.577012 
L 204.824246 156.093621 
L 204.958735 172.077474 
L 205.093223 172.323299 
L 205.765664 259.766423 
L 205.900152 260.276176 
L 206.03464 264.066928 
L 206.169129 278.879303 
L 206.303617 279.359042 
L 206.572593 283.287951 
L 206.84157 284.097363 
L 207.110546 274.7322 
L 207.379522 265.571891 
L 207.514011 264.696259 
L 207.917475 272.794186 
L 208.051964 272.548361 
L 208.32094 266.203127 
L 208.589916 267.800988 
L 208.858893 275.832695 
L 208.993381 279.47719 
L 209.127869 280.059357 
L 209.262357 279.516732 
L 209.396846 273.676487 
L 209.531334 274.771265 
L 209.80031 274.357269 
L 209.934799 275.345809 
L 210.203775 263.194631 
L 211.010704 108.450771 
L 211.279681 134.009882 
L 211.683145 167.02949 
L 212.221098 254.454035 
L 212.355586 256.911807 
L 212.759051 272.115309 
L 212.893539 271.908549 
L 213.028027 272.008594 
L 213.162516 274.651211 
L 213.431492 256.990413 
L 213.56598 219.002381 
L 213.834957 135.285694 
L 213.969445 139.860131 
L 214.103933 138.771547 
L 214.238421 141.725732 
L 214.910862 179.955301 
L 215.448815 260.059412 
L 215.583303 265.014021 
L 215.717792 265.630489 
L 216.121256 269.883353 
L 216.255745 270.838544 
L 216.390233 273.223903 
L 216.524721 269.224485 
L 216.659209 261.722541 
L 217.062674 148.891811 
L 217.197162 150.799812 
L 217.33165 150.880324 
L 217.466138 162.320706 
L 217.600627 161.039654 
L 217.735115 149.210049 
L 217.869603 154.429539 
L 218.273068 196.530849 
L 218.542044 255.226287 
L 218.811021 271.989062 
L 218.945509 264.585733 
L 219.483462 275.2834 
L 219.61795 277.078016 
L 219.886926 263.356133 
L 220.290391 161.981506 
L 220.693856 150.345322 
L 220.828344 160.987249 
L 220.962832 157.074538 
L 221.231808 184.172436 
L 221.500785 198.009609 
L 221.769761 255.090035 
L 222.038738 270.690859 
L 222.173226 269.939569 
L 222.307714 271.162023 
L 222.576691 277.200452 
L 222.845667 279.834018 
L 222.980155 278.165172 
L 223.114643 280.034584 
L 223.38362 259.52441 
L 223.518108 263.381382 
L 223.652596 263.225121 
L 223.921573 256.277236 
L 224.190549 255.605981 
L 224.325037 258.090432 
L 224.459525 257.463007 
L 224.728502 253.610799 
L 225.131967 260.867395 
L 225.266455 259.383871 
L 225.535431 260.853579 
L 225.669919 259.54299 
L 226.073384 269.294517 
L 226.34236 272.320639 
L 226.476849 272.248702 
L 226.745825 269.106813 
L 226.880313 271.387363 
L 227.014802 271.630329 
L 227.14929 271.333529 
L 227.283778 269.915272 
L 227.418266 271.590787 
L 227.552754 271.719417 
L 227.687243 271.550293 
L 227.956219 270.442176 
L 228.090707 276.254313 
L 228.225195 276.293378 
L 228.359684 277.394349 
L 228.494172 276.622097 
L 228.62866 277.592534 
L 228.763148 277.478196 
L 228.897637 275.191454 
L 229.301101 276.094717 
L 229.435589 269.884782 
L 229.570078 255.809883 
L 230.242519 94.472105 
L 230.377007 79.64401 
L 230.511495 109.606052 
L 230.780471 117.552482 
L 231.049448 145.005302 
L 231.587401 253.652722 
L 231.856377 264.869194 
L 232.125354 269.680881 
L 232.39433 274.334878 
L 232.528818 273.521656 
L 232.797795 256.42778 
L 232.932283 220.178624 
L 233.201259 133.072317 
L 233.335748 124.901501 
L 233.470236 135.191842 
L 233.604724 135.413846 
L 233.739212 148.198166 
L 233.8737 133.470115 
L 234.008189 140.18885 
L 234.815118 264.28798 
L 234.949606 264.02167 
L 235.218583 269.921942 
L 235.622047 277.654943 
L 235.756535 277.057531 
L 236.025512 264.408987 
L 236.563465 128.919498 
L 236.832441 116.715439 
L 237.63937 200.356855 
L 237.908347 258.392949 
L 238.177323 266.476583 
L 238.849764 281.385191 
L 238.984252 280.561011 
L 239.118741 276.765019 
L 239.253229 262.873535 
L 239.791182 128.150104 
L 240.194646 145.873787 
L 240.463623 164.988096 
L 240.732599 178.436047 
L 241.270552 255.862764 
L 241.674017 261.734451 
L 241.942993 274.669314 
L 242.077481 281.164616 
L 242.21197 280.539096 
L 242.480946 262.582928 
L 242.884411 150.916055 
L 243.018899 158.782925 
L 243.153387 156.53763 
L 243.287875 145.566506 
L 243.422363 153.541997 
L 243.556852 150.732162 
L 243.825828 167.361544 
L 244.229293 239.302937 
L 244.498269 261.673948 
L 244.767246 266.94346 
L 245.17071 274.795562 
L 245.305198 275.65976 
L 245.439687 275.364389 
L 245.574175 274.136694 
L 245.708663 262.689643 
L 245.843151 268.133519 
L 246.112128 265.154084 
L 246.381104 259.979376 
L 246.515592 259.946028 
L 247.188033 270.179677 
L 247.322522 270.584621 
L 247.45701 271.450724 
L 247.591498 271.096756 
L 247.725986 274.256748 
L 247.860475 272.820388 
L 248.129451 274.142411 
L 248.263939 273.260109 
L 248.398427 273.941845 
L 248.532916 273.788919 
L 248.667404 275.731697 
L 248.801892 275.633081 
L 249.205357 277.169963 
L 249.339845 277.286205 
L 249.608821 276.339113 
L 249.743309 276.470601 
L 249.877798 276.170942 
L 250.550239 273.009521 
L 250.819215 273.309179 
L 250.953703 274.086672 
L 251.088192 272.952352 
L 251.357168 274.208155 
L 251.491656 283.092149 
L 251.626144 282.603358 
L 251.760633 283.033075 
L 251.895121 282.873479 
L 252.164097 270.649888 
L 252.70205 143.456987 
L 252.836538 163.157749 
L 252.971027 159.719536 
L 253.240003 172.605806 
L 253.374491 173.956414 
L 253.508979 171.036053 
L 253.777956 203.798402 
L 254.046932 255.065739 
L 254.315909 276.354834 
L 254.719373 284.695251 
L 254.853862 284.455619 
L 255.122838 286.185921 
L 255.391814 265.457554 
L 255.660791 172.396665 
L 255.795279 175.837736 
L 256.198744 160.193083 
L 256.333232 163.859969 
L 256.46772 161.200202 
L 256.602208 162.394072 
L 257.409138 257.303411 
L 257.812602 264.761526 
L 258.081579 279.940732 
L 258.216067 281.002638 
L 258.350555 280.274692 
L 258.619532 266.129761 
L 258.888508 177.192154 
L 259.022996 178.059687 
L 259.157484 169.023243 
L 259.291973 168.448699 
L 259.426461 152.992226 
L 259.695437 166.667422 
L 259.829925 155.556236 
L 259.964414 164.612689 
L 260.771343 260.368123 
L 261.040319 262.60246 
L 261.309296 270.087731 
L 261.443784 273.29584 
L 261.71276 270.386913 
L 261.847249 258.018495 
L 262.116225 170.021788 
L 262.250713 174.181277 
L 262.654178 147.800368 
L 262.788666 155.087454 
L 262.923154 150.326266 
L 263.326619 185.410135 
L 263.461107 196.287883 
L 263.864572 244.972629 
L 264.268036 262.982155 
L 264.402525 262.226101 
L 264.671501 265.649545 
L 264.805989 265.523774 
L 264.940478 264.574776 
L 265.074966 257.020903 
L 265.209454 237.94042 
L 265.612919 123.859604 
L 265.881895 105.781476 
L 266.016383 115.265264 
L 266.150871 115.134729 
L 266.28536 114.687385 
L 266.419848 119.309939 
L 266.688824 156.513809 
L 266.957801 235.176796 
L 267.226777 251.810942 
L 267.361265 250.391256 
L 267.495754 266.728601 
L 267.630242 266.413221 
L 267.76473 268.278822 
L 267.899218 268.589438 
L 268.168195 275.098079 
L 268.302683 275.981333 
L 268.437171 273.424469 
L 268.706147 275.956083 
L 268.975124 272.467848 
L 269.2441 270.586526 
L 269.916541 256.120022 
L 270.320006 258.006108 
L 270.588982 262.884016 
L 270.723471 276.956057 
L 270.857959 277.994143 
L 270.992447 276.518717 
L 271.126935 277.400542 
L 271.261424 277.43008 
L 271.395912 277.244282 
L 271.799376 280.016957 
L 271.933865 278.633954 
L 272.068353 278.988399 
L 272.202841 278.344777 
L 272.337329 278.580597 
L 272.471817 277.73879 
L 272.606306 275.576865 
L 272.740794 276.857441 
L 272.875282 276.535392 
L 273.00977 275.859373 
L 273.144258 273.528802 
L 273.278747 273.429233 
L 273.547723 276.402951 
L 273.682211 276.616857 
L 273.8167 277.299545 
L 273.951188 276.439158 
L 274.085676 287.073939 
L 274.354652 288.704196 
L 274.489141 287.134443 
L 274.758117 272.433547 
L 275.29607 166.050955 
L 275.565046 153.826411 
L 275.699535 154.163229 
L 275.834023 172.099388 
L 275.968511 174.378985 
L 276.102999 184.525451 
L 276.77544 263.765841 
L 277.447881 281.150324 
L 277.58237 284.543754 
L 277.716858 284.153102 
L 277.851346 279.758746 
L 277.985834 269.784261 
L 278.389299 209.33089 
L 278.523787 189.862613 
L 278.658275 187.866001 
L 278.792763 178.358869 
L 278.927252 190.478604 
L 279.06174 184.663132 
L 279.196228 186.752167 
L 279.330716 194.441338 
L 280.137646 274.130024 
L 280.272134 276.51443 
L 280.406622 268.164961 
L 280.54111 267.881024 
L 280.810087 269.051074 
L 280.944575 268.428413 
L 281.213551 260.515808 
L 281.348039 231.588993 
L 281.482528 161.178764 
L 281.617016 150.977987 
L 281.751504 127.596522 
L 281.885992 128.747516 
L 282.154969 142.247395 
L 282.289457 124.144018 
L 282.423945 128.229188 
L 282.558433 137.332804 
L 282.82741 185.744095 
L 283.096386 254.252039 
L 283.365363 260.877399 
L 283.499851 263.083153 
L 283.634339 262.412375 
L 283.768827 262.422856 
L 283.903316 262.611989 
L 284.037804 263.915908 
L 284.172292 264.045014 
L 284.441268 258.855061 
L 285.113709 143.655647 
L 285.248198 142.580402 
L 285.382686 138.046459 
L 285.517174 147.28204 
L 285.651662 144.183027 
L 285.78615 147.669833 
L 286.055127 200.764181 
L 286.324103 250.306932 
L 286.59308 259.978424 
L 286.727568 259.85694 
L 286.862056 278.782116 
L 286.996544 278.84119 
L 287.131033 277.864084 
L 287.265521 278.469118 
L 287.668985 274.945153 
L 287.803474 275.821737 
L 288.07245 274.947535 
L 288.206938 272.777988 
L 288.341427 272.722725 
L 288.475915 270.378338 
L 288.610403 270.007695 
L 288.744891 268.884809 
L 288.879379 271.710365 
L 289.013868 272.049565 
L 289.148356 269.241636 
L 289.417332 276.389612 
L 289.55182 277.575383 
L 289.820797 277.214268 
L 289.955285 278.003671 
L 290.089773 276.505854 
L 290.224262 278.051311 
L 290.35875 277.14519 
L 290.493238 278.124201 
L 290.627726 276.583985 
L 291.031191 258.624005 
L 291.300167 192.50523 
L 291.434655 186.926531 
L 291.569144 187.533471 
L 291.703632 191.592438 
L 291.972608 178.860523 
L 292.376073 191.926874 
L 293.048514 268.242615 
L 293.183002 269.487937 
L 293.31749 268.33742 
L 293.451979 269.088234 
L 293.586467 268.159721 
L 293.720955 270.632261 
L 293.855443 270.895237 
L 294.258908 246.999255 
L 294.527884 189.071305 
L 294.796861 157.422313 
L 294.931349 141.569948 
L 295.065837 141.436078 
L 295.200325 149.399658 
L 295.334814 143.685661 
L 295.60379 171.713501 
L 295.738278 186.18858 
L 296.141743 256.317254 
L 296.276231 255.428283 
L 296.410719 262.619135 
L 296.545208 280.278027 
L 296.948672 282.438998 
L 297.486625 284.401786 
L 297.621113 284.056869 
L 297.755601 284.053057 
L 298.024578 280.884966 
L 298.159066 280.734899 
L 298.428042 278.596795 
L 298.697019 274.777935 
L 298.831507 273.644568 
L 298.965995 273.502599 
L 299.100484 273.857521 
L 299.36946 277.634934 
L 299.503948 277.129468 
L 299.638436 278.669684 
L 299.772925 269.029636 
L 299.907413 272.424972 
L 300.041901 272.123884 
L 300.176389 272.988559 
L 300.310877 272.705574 
L 300.579854 261.757319 
L 301.252295 127.927623 
L 301.386783 127.996226 
L 301.521271 141.161669 
L 301.65576 134.233792 
L 301.790248 143.629445 
L 302.597177 252.209216 
L 302.731665 253.958574 
L 303.000642 266.341284 
L 303.13513 266.565195 
L 303.269618 267.044458 
L 303.404106 269.498895 
L 303.538595 269.917178 
L 303.807571 253.591742 
L 304.345524 163.996698 
L 304.6145 153.495309 
L 304.748988 161.716148 
L 304.883477 152.162329 
L 305.017965 158.230295 
L 306.093871 264.795828 
L 306.228359 265.804376 
L 306.497335 275.938933 
L 306.766312 276.966538 
L 306.9008 272.267758 
L 307.035288 261.750173 
L 307.304265 169.463441 
L 307.438753 176.710033 
L 307.842217 157.488057 
L 307.976706 164.524554 
L 308.111194 156.123158 
L 308.245682 161.075384 
L 308.649147 206.982215 
L 309.052611 263.230838 
L 309.590564 275.436326 
L 309.994029 277.136138 
L 310.128517 273.590258 
L 310.263005 261.000312 
L 310.531982 169.352439 
L 310.66647 170.501527 
L 310.935446 168.217167 
L 311.069934 158.885352 
L 311.204423 165.327296 
L 311.338911 164.039098 
L 311.473399 157.279392 
L 311.607887 170.388619 
L 311.876864 207.887384 
L 312.14584 250.126851 
L 312.414817 261.907862 
L 312.818281 270.500774 
L 312.952769 270.067722 
L 313.087258 271.94952 
L 313.221746 271.850904 
L 313.356234 273.424469 
L 313.625211 262.890209 
L 313.759699 255.01524 
L 313.894187 258.36103 
L 314.028675 255.837514 
L 314.163163 257.716931 
L 314.297652 254.962359 
L 314.566628 261.51197 
L 314.701116 262.245157 
L 314.970093 266.988718 
L 315.104581 266.951082 
L 315.239069 266.655235 
L 315.508045 269.581789 
L 315.642534 270.117744 
L 315.777022 269.788072 
L 316.180487 272.771795 
L 316.314975 272.333026 
L 316.718439 274.682654 
L 316.852928 274.931337 
L 316.987416 274.079525 
L 317.121904 274.144793 
L 317.256392 273.027148 
L 317.39088 273.171498 
L 317.525369 271.635569 
L 317.659857 272.553125 
L 317.928833 270.038661 
L 318.332298 266.309365 
L 318.466786 266.962516 
L 318.601274 266.460862 
L 318.735763 267.914373 
L 318.870251 267.750966 
L 319.139227 268.865276 
L 319.273715 278.682547 
L 319.67718 279.798764 
L 319.811668 277.224749 
L 319.946157 269.285465 
L 320.349621 147.521671 
L 320.484109 131.400613 
L 320.887574 158.62857 
L 321.022062 163.286378 
L 321.291039 178.041584 
L 321.425527 179.838582 
L 321.560015 198.244953 
L 321.828991 253.670349 
L 321.96348 261.743026 
L 322.097968 262.528141 
L 322.635921 279.197541 
L 322.770409 279.543887 
L 322.904897 278.885972 
L 323.173874 268.473195 
L 323.44285 173.182256 
L 323.577338 173.543371 
L 323.711826 173.744414 
L 323.980803 153.604406 
L 324.249779 157.136947 
L 324.384268 159.898188 
L 324.787732 196.07493 
L 325.056709 250.497971 
L 325.325685 259.752608 
L 325.863638 277.542035 
L 325.998126 279.306161 
L 326.132614 279.371429 
L 326.267103 276.164272 
L 326.401591 267.181662 
L 326.670567 166.004743 
L 326.805055 171.949321 
L 326.939544 173.119371 
L 327.20852 159.917244 
L 327.343008 168.045661 
L 327.611985 164.298738 
L 327.746473 169.149491 
L 328.149937 223.744513 
L 328.418914 254.532642 
L 328.68789 267.31982 
L 328.822379 269.76854 
L 328.956867 279.796382 
L 329.225843 280.741568 
L 329.360331 279.89595 
L 329.629308 267.087334 
L 330.032772 178.23691 
L 330.301749 166.918964 
L 330.570725 158.126916 
L 330.839702 179.940056 
L 330.97419 181.150124 
L 331.108678 183.890404 
L 331.781119 259.633507 
L 332.050096 266.783388 
L 332.184584 277.537747 
L 332.319072 278.491986 
L 332.45356 277.828354 
L 332.588049 278.814035 
L 332.857025 266.229806 
L 333.26049 177.606626 
L 333.394978 179.512721 
L 333.663954 164.629839 
L 333.798442 165.819898 
L 333.932931 169.579684 
L 334.336395 187.410082 
L 334.73986 255.016669 
L 335.143325 270.715156 
L 335.277813 270.516971 
L 335.412301 270.614158 
L 335.546789 270.899048 
L 335.681277 270.794239 
L 335.950254 273.371112 
L 336.084742 271.280648 
L 336.622695 254.849451 
L 336.757183 255.642665 
L 336.891671 253.817082 
L 337.295136 260.162316 
L 337.698601 264.885392 
L 337.833089 264.407081 
L 338.102065 268.498445 
L 338.236553 268.266912 
L 338.371042 268.902912 
L 338.50553 266.572341 
L 339.043483 269.72471 
L 339.446947 272.714626 
L 339.581436 272.233934 
L 339.715924 271.067219 
L 339.850412 271.325906 
L 339.9849 270.547461 
L 340.119388 270.43503 
L 340.253877 269.962436 
L 340.388365 271.436432 
L 340.522853 269.45173 
L 340.657341 270.049142 
L 340.926318 269.73138 
L 341.060806 266.399882 
L 341.329782 271.271596 
L 341.464271 271.170122 
L 341.598759 271.697502 
L 341.733247 273.260586 
L 341.867735 281.066 
L 342.136712 281.167474 
L 342.2712 281.807762 
L 342.540176 269.139209 
L 342.943641 154.20944 
L 343.212617 170.783082 
L 343.347106 170.050372 
L 343.75057 184.404445 
L 343.885058 186.075672 
L 344.019547 185.414423 
L 344.423011 253.154879 
L 345.22994 278.79355 
L 345.364429 279.874988 
L 345.498917 279.508157 
L 345.633405 275.300551 
L 345.767893 267.23359 
L 346.03687 183.161981 
L 346.171358 187.270972 
L 346.440334 173.735362 
L 346.574823 168.375809 
L 346.843799 175.239372 
L 347.112775 177.104019 
L 347.381752 211.509012 
L 347.650728 250.335517 
L 348.054193 268.25786 
L 348.188681 269.437438 
L 348.323169 278.3867 
L 348.457658 279.232795 
L 348.592146 281.099348 
L 348.726634 280.904499 
L 348.99561 268.026328 
L 349.264587 182.113891 
L 349.399075 183.584552 
L 349.668052 166.065723 
L 349.80254 161.962926 
L 350.206004 180.617027 
L 350.340493 181.794223 
L 351.012934 261.794955 
L 351.147422 264.110281 
L 351.550886 280.735852 
L 351.685375 280.025532 
L 351.954351 280.391411 
L 352.088839 278.997451 
L 352.223328 271.72561 
L 352.492304 178.046348 
L 352.626792 185.193847 
L 352.76128 173.852081 
L 352.895769 173.145097 
L 353.030257 164.887098 
L 353.164745 172.080332 
L 353.299233 170.008448 
L 353.56821 152.277143 
L 354.240651 268.398876 
L 354.375139 269.533672 
L 354.644115 275.381539 
L 354.913092 279.644885 
L 355.182068 280.6844 
L 355.316556 278.288084 
L 355.451045 269.183038 
L 355.854509 196.065878 
L 356.123486 157.828686 
L 356.257974 159.538026 
L 356.392462 168.126173 
L 356.52695 167.494461 
L 356.661439 178.073503 
L 356.795927 176.825323 
L 357.33388 264.0998 
L 357.602856 273.672199 
L 357.737344 275.631652 
L 357.871832 279.875941 
L 358.006321 279.299015 
L 358.140809 279.512921 
L 358.275297 280.250872 
L 358.409785 280.163213 
L 358.678762 278.906934 
L 359.082226 260.486747 
L 359.351203 254.59648 
L 359.485691 248.341287 
L 359.620179 259.047052 
L 359.754667 260.457687 
L 359.889156 260.625381 
L 360.427109 274.877503 
L 360.561597 275.555427 
L 360.965061 279.692049 
L 361.234038 279.652507 
L 361.368526 279.461469 
L 361.503014 280.763483 
L 361.771991 280.35711 
L 361.906479 281.684373 
L 362.040967 281.636733 
L 362.175455 282.011187 
L 362.309944 282.051681 
L 362.57892 278.64777 
L 362.713408 278.5987 
L 362.982385 277.466763 
L 363.116873 275.977998 
L 363.251361 275.876524 
L 363.385849 276.964632 
L 363.520337 276.112821 
L 363.654826 276.05327 
L 364.05829 278.832615 
L 364.192778 252.888569 
L 364.730731 259.1309 
L 364.86522 257.938459 
L 364.999708 245.885421 
L 365.134196 223.785484 
L 365.403172 135.661577 
L 365.672149 105.436082 
L 365.806637 99.528188 
L 366.075613 116.434837 
L 366.34459 113.297712 
L 366.479078 124.703793 
L 367.017031 250.807634 
L 367.151519 255.756049 
L 367.286007 254.024794 
L 367.554984 265.359891 
L 367.689472 266.224565 
L 367.958448 271.11343 
L 368.227425 247.604289 
L 368.496401 151.861241 
L 368.765378 100.094633 
L 369.034354 89.216885 
L 369.168842 93.928528 
L 369.303331 93.484995 
L 369.437819 96.846506 
L 369.572307 94.728887 
L 369.706795 110.803257 
L 370.244748 234.376913 
L 370.782701 278.500561 
L 370.917189 278.804983 
L 371.051677 279.694907 
L 371.186166 279.416687 
L 371.455142 264.625275 
L 371.858607 171.537231 
L 372.127583 203.461108 
L 372.262071 199.408333 
L 372.396559 200.832307 
L 372.665536 190.16513 
L 372.800024 193.952547 
L 373.203489 233.583699 
L 373.472465 255.798449 
L 373.87593 276.951293 
L 374.010418 285.952959 
L 374.144906 285.807179 
L 374.279394 287.01153 
L 374.413883 286.5094 
L 374.682859 269.979587 
L 375.220812 180.745657 
L 375.489788 177.123076 
L 375.624277 177.345557 
L 375.893253 183.868966 
L 376.027741 188.157084 
L 376.565694 255.615986 
L 376.83467 264.489976 
L 376.969159 267.321249 
L 377.103647 279.111788 
L 377.238135 278.020821 
L 377.507112 280.089847 
L 377.6416 278.127536 
L 377.776088 281.660553 
L 378.045064 279.517208 
L 378.179553 269.893358 
L 378.314041 269.268791 
L 378.448529 262.180842 
L 378.583017 263.179863 
L 378.717505 262.264213 
L 378.851994 266.767667 
L 378.986482 266.008754 
L 379.12097 266.915352 
L 379.255458 269.071083 
L 379.389947 268.95484 
L 379.927899 278.19328 
L 380.062388 277.986997 
L 380.196876 278.402898 
L 380.331364 268.510355 
L 380.465852 269.187326 
L 380.869317 272.086725 
L 381.138293 261.2085 
L 381.272782 234.15729 
L 381.541758 159.682853 
L 381.810734 139.551897 
L 381.945223 141.140707 
L 382.214199 147.617429 
L 382.348687 139.640032 
L 382.752152 189.420033 
L 383.021128 257.317703 
L 383.155616 265.233643 
L 383.290105 265.894893 
L 383.424593 267.180233 
L 383.559081 262.258973 
L 383.693569 261.548177 
L 383.962546 261.894047 
L 384.097034 263.082676 
L 384.231522 261.301399 
L 384.36601 262.691548 
L 385.038451 148.678382 
L 385.17294 151.11805 
L 385.307428 166.231036 
L 385.576404 160.595168 
L 386.248845 260.159457 
L 386.921286 278.633478 
L 387.055775 277.819779 
L 387.190263 279.09559 
L 387.324751 278.405756 
L 387.459239 278.566781 
L 387.593727 280.054116 
L 387.728216 279.480525 
L 387.862704 280.795879 
L 387.997192 279.628211 
L 388.13168 281.216544 
L 388.266169 280.233721 
L 388.400657 278.250925 
L 388.535145 278.340012 
L 388.669633 277.678286 
L 388.804121 278.815941 
L 388.93861 276.268129 
L 389.207586 278.405756 
L 389.476562 285.087332 
L 389.611051 284.03019 
L 389.745539 284.845795 
L 389.880027 284.793867 
L 390.014515 269.906697 
L 390.283492 270.15538 
L 390.41798 270.165385 
L 390.552468 270.03485 
L 390.686956 264.541428 
L 390.821445 264.726273 
L 390.955933 255.88182 
L 391.224909 199.770877 
L 391.359397 168.420115 
L 391.493886 164.433561 
L 391.762862 175.118365 
L 391.89735 174.575263 
L 392.031839 167.357733 
L 392.166327 171.054156 
L 392.300815 180.026762 
L 392.569791 240.135693 
L 392.70428 266.402741 
L 392.973256 271.241583 
L 393.107744 271.898545 
L 393.376721 264.847756 
L 393.645697 270.561277 
L 393.780185 267.173087 
L 393.914673 268.556566 
L 394.049162 261.149426 
L 394.721603 146.629365 
L 394.990579 145.558408 
L 395.125067 145.138695 
L 395.259556 156.514762 
L 395.394044 157.384201 
L 395.931997 245.460944 
L 396.200973 259.060868 
L 396.335461 255.326808 
L 396.46995 280.081272 
L 396.604438 280.464301 
L 397.007902 283.497093 
L 397.276879 270.449798 
L 397.545855 196.794301 
L 397.680343 191.610542 
L 397.94932 168.250039 
L 398.083808 154.793036 
L 398.218296 167.527333 
L 398.352785 162.764239 
L 398.487273 165.77464 
L 398.487273 165.77464 
" clip-path="url(#p2b827f52c3)" style="fill: none; stroke: #1f77b4; stroke-width: 1.5; stroke-linecap: square"/>
   </g>
   <g id="line2d_13">
    <path d="M 73.832727 280.767136 
L 73.967215 280.423854 
L 74.37068 277.88719 
L 74.505168 279.6164 
L 74.639657 278.838849 
L 74.774145 280.182199 
L 74.908633 269.531061 
L 75.043121 226.656935 
L 75.177609 242.268438 
L 75.446586 247.30806 
L 75.581074 245.530491 
L 75.715562 247.806778 
L 75.85005 247.449173 
L 75.984539 248.782023 
L 76.253515 246.981993 
L 76.388003 246.785498 
L 76.522492 277.899194 
L 76.791468 272.939557 
L 76.925956 273.538597 
L 77.060444 277.164517 
L 77.194933 261.794396 
L 77.329421 267.06949 
L 77.463909 265.192736 
L 77.598397 265.481473 
L 77.732885 265.501889 
L 77.867374 253.180201 
L 78.001862 228.168291 
L 78.270838 126.21469 
L 78.405327 94.588192 
L 78.674303 112.016507 
L 78.808791 98.849557 
L 78.943279 104.987628 
L 79.077768 104.619109 
L 79.61572 191.570479 
L 79.884697 249.009423 
L 80.288161 271.107928 
L 80.42265 261.428701 
L 80.557138 275.233628 
L 80.691626 270.731546 
L 80.826114 271.494513 
L 80.960603 268.044285 
L 81.095091 261.619338 
L 81.229579 241.269812 
L 81.498555 144.692121 
L 81.633044 171.279003 
L 81.767532 168.071883 
L 81.90202 155.202015 
L 82.170996 209.299635 
L 82.305485 196.638456 
L 82.439973 194.846099 
L 82.574461 197.467302 
L 82.708949 224.380059 
L 82.977926 211.066731 
L 83.112414 225.723725 
L 83.246902 210.572132 
L 83.38139 209.633113 
L 83.650367 276.144501 
L 83.784855 275.190189 
L 83.919343 287.911562 
L 84.053831 287.266813 
L 84.18832 284.78268 
L 84.322808 209.591838 
L 84.457296 233.921912 
L 84.591784 209.591838 
L 84.860761 209.591838 
L 84.995249 210.233256 
L 85.264225 164.660487 
L 85.533202 182.156524 
L 85.802178 197.221297 
L 86.071155 235.980179 
L 86.205643 260.867134 
L 86.340131 259.621651 
L 86.474619 267.499575 
L 86.609107 264.91616 
L 87.012572 289.150048 
L 87.14706 288.82961 
L 87.281549 286.196405 
L 87.416037 287.618834 
L 87.685013 285.96925 
L 87.95399 248.370884 
L 88.088478 258.228061 
L 88.222966 251.099093 
L 88.357454 256.802116 
L 88.626431 250.59655 
L 88.760919 257.337883 
L 88.895407 246.790117 
L 89.029895 255.714539 
L 89.164384 254.800975 
L 89.298872 258.544087 
L 89.43336 276.269404 
L 89.567848 275.597704 
L 89.702336 274.157833 
L 89.836825 274.940203 
L 89.971313 278.061245 
L 90.105801 256.658758 
L 90.374777 263.417222 
L 90.509266 262.834653 
L 90.643754 258.4341 
L 90.91273 266.011835 
L 91.047218 259.789123 
L 91.181707 244.189287 
L 91.316195 247.818075 
L 91.450683 239.075307 
L 91.585171 251.65471 
L 91.71966 246.57172 
L 91.854148 250.931971 
L 91.988636 251.212733 
L 92.257612 256.793299 
L 92.392101 255.785162 
L 92.795565 265.59914 
L 92.930053 267.178975 
L 93.064542 266.445284 
L 93.19903 269.777727 
L 93.333518 282.932552 
L 93.602495 275.761028 
L 93.871471 270.523104 
L 94.140447 254.40764 
L 94.409424 162.787023 
L 94.543912 179.441931 
L 94.812888 158.541929 
L 94.947377 155.268516 
L 95.216353 171.672629 
L 95.48533 162.06124 
L 95.888794 255.51416 
L 96.157771 268.021457 
L 96.292259 266.116865 
L 96.426747 271.220091 
L 96.561235 271.735013 
L 96.830212 266.047623 
L 96.9647 267.588083 
L 97.233676 260.303991 
L 97.502653 213.380335 
L 97.637141 161.735367 
L 97.771629 179.935676 
L 97.906117 170.29026 
L 98.040606 189.903885 
L 98.175094 177.456084 
L 98.309582 178.994512 
L 98.44407 175.725932 
L 98.847535 208.083166 
L 99.250999 270.279138 
L 99.385488 268.683067 
L 99.654464 274.835688 
L 99.788952 287.926076 
L 100.192417 277.516849 
L 100.326905 278.229584 
L 100.461393 277.408509 
L 100.595882 275.285692 
L 100.73037 276.010425 
L 100.864858 277.495773 
L 100.999346 275.483488 
L 101.133834 279.755751 
L 101.268323 278.377462 
L 101.402811 275.351852 
L 101.537299 265.730545 
L 101.671787 276.398561 
L 101.806276 265.803471 
L 101.940764 266.610734 
L 102.075252 271.972235 
L 102.20974 272.301459 
L 102.344228 273.049975 
L 102.478717 275.383364 
L 102.613205 280.710644 
L 102.747693 274.368993 
L 102.882181 286.326504 
L 103.016669 260.014725 
L 103.151158 262.883936 
L 103.285646 269.662258 
L 103.420134 269.725999 
L 103.823599 249.396112 
L 103.958087 217.612534 
L 104.092575 159.455772 
L 104.227063 167.097268 
L 104.361552 151.619526 
L 104.49604 169.359821 
L 104.765016 141.532687 
L 105.437457 218.837638 
L 105.706434 262.714591 
L 105.840922 258.866147 
L 105.97541 255.960856 
L 106.244387 290.286509 
L 106.378875 288.673521 
L 106.647851 278.260084 
L 106.782339 280.961105 
L 106.916828 278.608945 
L 107.051316 279.202805 
L 107.320292 213.820279 
L 107.589269 251.618539 
L 107.723757 245.764795 
L 107.858245 246.038265 
L 107.992733 244.9193 
L 108.127222 248.669697 
L 108.26171 247.865178 
L 108.396198 248.332249 
L 108.530686 246.533753 
L 108.665174 253.54359 
L 108.934151 282.834472 
L 109.068639 278.595966 
L 109.203127 278.355675 
L 109.337615 276.544627 
L 109.472104 269.651997 
L 109.606592 271.468641 
L 109.74108 271.621217 
L 109.875568 272.396088 
L 110.010056 271.884077 
L 110.144545 272.014379 
L 110.279033 272.523517 
L 110.413521 271.606112 
L 110.548009 271.966833 
L 110.682498 272.936288 
L 110.951474 269.796455 
L 111.085962 269.964332 
L 111.22045 272.957086 
L 111.354939 272.122603 
L 111.758403 267.906222 
L 112.02738 272.588607 
L 112.296356 271.634297 
L 112.430844 271.098829 
L 112.565333 273.279785 
L 112.699821 258.123239 
L 112.968797 264.843718 
L 113.103285 264.702623 
L 113.237774 265.327353 
L 113.372262 264.59197 
L 113.50675 267.716157 
L 113.641238 267.873359 
L 113.775726 269.471269 
L 113.910215 265.467294 
L 114.044703 266.274109 
L 114.179191 263.476852 
L 114.313679 256.632808 
L 114.582656 260.402516 
L 114.717144 259.04932 
L 114.98612 251.262072 
L 115.120609 252.062315 
L 115.389585 260.055306 
L 115.658561 259.546396 
L 115.79305 264.654731 
L 116.062026 261.59835 
L 116.196514 256.469745 
L 116.331002 265.293379 
L 116.599979 259.473536 
L 116.734467 239.087533 
L 117.003444 127.20494 
L 117.137932 83.94282 
L 117.27242 81.793138 
L 117.406908 88.030917 
L 117.541396 75.325288 
L 117.675885 73.390062 
L 117.810373 78.162798 
L 118.213837 144.241486 
L 118.482814 227.225518 
L 118.75179 246.419724 
L 119.020767 254.169024 
L 119.155255 254.03995 
L 119.289743 254.727742 
L 119.55872 250.773373 
L 119.693208 252.385469 
L 119.827696 250.290554 
L 119.962184 229.866161 
L 120.231161 120.701198 
L 120.365649 95.834264 
L 120.500137 95.772045 
L 120.634625 94.951647 
L 120.769114 85.273211 
L 120.903602 85.222243 
L 121.03809 81.799721 
L 121.172578 89.825573 
L 121.576043 179.24624 
L 121.710531 228.117563 
L 121.979507 247.422539 
L 122.113996 242.396547 
L 122.382972 246.463109 
L 122.51746 260.424596 
L 122.651948 258.001838 
L 123.055413 246.803377 
L 123.189901 230.768763 
L 123.458878 124.296813 
L 123.593366 88.376384 
L 123.727854 83.951894 
L 123.862342 90.324925 
L 123.996831 82.542019 
L 124.131319 87.342227 
L 124.669272 136.507771 
L 124.938248 225.233991 
L 125.207225 257.490003 
L 125.341713 256.2466 
L 125.476201 259.561314 
L 125.610689 254.539598 
L 125.745177 269.264804 
L 125.879666 268.972273 
L 126.014154 267.186043 
L 126.148642 262.624765 
L 126.417618 238.238445 
L 126.686595 131.778184 
L 126.955571 93.108832 
L 127.09006 88.953137 
L 127.224548 94.896565 
L 127.359036 108.538412 
L 127.493524 109.839765 
L 127.628012 115.128639 
L 127.896989 154.215523 
L 128.300453 245.354383 
L 128.434942 256.365388 
L 128.56943 255.79082 
L 128.703918 256.853938 
L 128.838406 262.055111 
L 128.972894 259.19501 
L 129.107383 259.922609 
L 129.241871 261.369666 
L 129.376359 260.464852 
L 129.645336 221.300126 
L 130.0488 85.510656 
L 130.317777 92.403906 
L 130.452265 93.400257 
L 130.586753 118.925197 
L 130.721241 115.633178 
L 130.855729 115.942771 
L 130.990218 133.27723 
L 131.528171 250.448606 
L 131.662659 260.150585 
L 131.797147 259.872074 
L 131.931635 266.307385 
L 132.200612 258.572268 
L 132.3351 262.645505 
L 132.469588 270.869596 
L 132.738564 265.936609 
L 132.873053 265.022488 
L 133.007541 249.970732 
L 133.142029 249.705357 
L 133.276517 241.73705 
L 133.411005 240.991084 
L 133.679982 237.79794 
L 133.81447 240.013026 
L 133.948958 239.591159 
L 134.083447 234.273246 
L 134.352423 244.525946 
L 134.621399 249.84303 
L 134.755888 254.484298 
L 134.890376 254.246218 
L 135.024864 253.0924 
L 135.159352 261.516089 
L 135.29384 261.991402 
L 135.428329 261.941497 
L 135.562817 262.141321 
L 135.831793 264.030169 
L 135.966282 269.799462 
L 136.10077 268.001731 
L 136.235258 263.805918 
L 136.369746 267.257561 
L 136.504234 266.699814 
L 136.638723 260.233848 
L 136.773211 263.142263 
L 136.907699 262.229863 
L 137.042187 263.056439 
L 137.311164 253.260119 
L 137.58014 257.465958 
L 137.714628 253.680574 
L 137.983605 260.073874 
L 138.118093 259.831995 
L 138.252581 257.718127 
L 138.521558 267.627518 
L 138.790534 258.920197 
L 139.05951 262.522952 
L 139.328487 230.348531 
L 139.597463 122.040166 
L 139.731951 84.316519 
L 140.000928 91.979046 
L 140.135416 87.024671 
L 140.404393 102.508667 
L 140.942345 180.014079 
L 141.211322 248.287549 
L 141.34581 250.304999 
L 141.614786 263.959425 
L 141.749275 264.189917 
L 141.883763 264.838765 
L 142.287228 257.608834 
L 142.959669 87.136342 
L 143.094157 96.819277 
L 143.228645 100.086017 
L 143.363133 88.119204 
L 143.497621 94.557541 
L 143.63211 87.954663 
L 143.766598 99.340039 
L 144.304551 235.736172 
L 144.439039 240.016434 
L 144.842504 269.708857 
L 145.11148 261.443343 
L 145.245968 261.519719 
L 145.380456 263.069957 
L 145.514945 252.224604 
L 145.649433 219.998283 
L 145.783921 223.32447 
L 146.187386 93.875624 
L 146.321874 92.915992 
L 146.456362 108.093706 
L 146.59085 109.865854 
L 146.725339 113.208459 
L 146.859827 108.091722 
L 147.263291 155.845092 
L 147.532268 243.75338 
L 147.801244 255.772756 
L 148.070221 266.695293 
L 148.204709 266.838677 
L 148.608174 260.455482 
L 148.87715 255.931738 
L 149.415103 100.571689 
L 149.549591 113.267955 
L 149.684079 111.868841 
L 149.818567 102.606809 
L 150.222032 146.770493 
L 150.35652 143.857794 
L 150.491009 160.328591 
L 150.759985 246.354594 
L 150.894473 247.68332 
L 151.16345 263.197319 
L 151.297938 267.118842 
L 151.432426 264.054251 
L 151.566914 263.550837 
L 151.701402 265.500086 
L 152.104867 258.569197 
L 152.64282 94.016005 
L 152.777308 114.515237 
L 152.911796 115.079866 
L 153.046285 91.927586 
L 153.718726 188.128439 
L 154.12219 260.609125 
L 154.256678 270.442836 
L 154.391167 265.602169 
L 154.525655 274.437202 
L 154.660143 271.735629 
L 154.794631 271.994809 
L 154.92912 270.983946 
L 155.063608 271.542381 
L 155.332584 275.085122 
L 155.467072 273.158395 
L 155.601561 266.005071 
L 155.736049 250.142452 
L 155.870537 255.924038 
L 156.005025 253.458998 
L 156.139513 259.203514 
L 156.274002 256.963052 
L 156.40849 256.930255 
L 156.677466 261.239646 
L 156.811955 259.688451 
L 157.215419 266.660701 
L 157.484396 269.16808 
L 157.618884 266.886709 
L 157.88786 271.466317 
L 158.022348 271.731795 
L 158.156837 270.766775 
L 158.291325 271.213982 
L 158.694789 277.249647 
L 158.829278 273.589036 
L 158.963766 275.878948 
L 159.098254 275.246793 
L 159.232742 272.93705 
L 159.367231 273.428773 
L 159.501719 275.244736 
L 159.770695 268.654496 
L 159.905183 264.223778 
L 160.039672 267.36085 
L 160.17416 261.666928 
L 160.308648 264.130705 
L 160.443136 263.768616 
L 160.577624 269.638363 
L 160.846601 263.419028 
L 160.981089 268.011172 
L 161.115577 268.220478 
L 161.250066 270.877701 
L 161.65353 264.848943 
L 161.922507 232.793389 
L 162.325971 94.143824 
L 162.460459 85.300793 
L 162.594948 96.845189 
L 162.729436 94.419038 
L 162.863924 83.406886 
L 163.536365 192.721917 
L 163.670853 238.749127 
L 164.074318 256.25198 
L 164.208806 264.775722 
L 164.343294 261.665986 
L 164.477783 272.867358 
L 164.612271 270.572089 
L 164.746759 271.318842 
L 165.150224 230.360688 
L 165.553688 101.171039 
L 165.688177 119.413734 
L 165.822665 118.787123 
L 165.957153 105.321247 
L 166.091641 113.116894 
L 166.226129 114.203561 
L 166.360618 111.126357 
L 166.495106 117.850468 
L 166.629594 137.015797 
L 166.89857 240.694509 
L 167.033059 242.151621 
L 167.167547 240.127204 
L 167.436523 255.930725 
L 167.7055 259.511196 
L 167.839988 262.279533 
L 168.108964 259.88542 
L 168.377941 220.686601 
L 168.781405 86.63429 
L 168.915894 110.259579 
L 169.050382 112.470915 
L 169.18487 97.445104 
L 169.319358 102.740205 
L 169.453847 92.161022 
L 169.588335 103.521573 
L 170.126288 238.926429 
L 170.395264 259.417332 
L 170.529752 258.544431 
L 170.66424 265.22207 
L 170.798729 263.949374 
L 171.067705 260.003341 
L 171.202193 259.003878 
L 171.336681 262.347832 
L 172.009123 94.953153 
L 172.278099 117.107996 
L 172.547075 91.763847 
L 173.085028 156.240278 
L 173.354005 244.114469 
L 173.488493 247.211669 
L 174.026446 284.381702 
L 174.295422 274.058344 
L 174.42991 271.161314 
L 174.564399 273.048593 
L 174.967863 216.858952 
L 175.102351 167.018999 
L 175.23684 161.833095 
L 175.505816 140.213308 
L 175.640304 141.783345 
L 175.774792 154.969982 
L 175.909281 153.145331 
L 176.043769 156.20344 
L 176.447234 201.521839 
L 176.581722 248.852789 
L 177.119675 268.102396 
L 177.254163 267.572273 
L 177.388651 268.223651 
L 177.523139 266.46085 
L 177.792116 272.020005 
L 177.926604 272.015019 
L 178.061092 272.50706 
L 178.330069 257.233735 
L 178.464557 259.588276 
L 178.599045 250.98604 
L 178.868021 253.422645 
L 179.00251 258.595222 
L 179.136998 254.923584 
L 179.271486 254.527679 
L 179.405974 257.339731 
L 179.540462 255.218781 
L 179.674951 256.043301 
L 180.078415 269.21453 
L 180.212904 264.22285 
L 180.347392 267.64156 
L 180.48188 276.575543 
L 180.616368 276.07396 
L 180.885345 273.457775 
L 181.019833 274.332089 
L 181.154321 274.066811 
L 181.557786 260.659568 
L 181.692274 263.155271 
L 181.826762 259.895193 
L 181.96125 264.135328 
L 182.095738 254.126168 
L 182.364715 266.590058 
L 182.633691 269.713145 
L 182.76818 274.514405 
L 182.902668 272.673693 
L 183.037156 272.560559 
L 183.171644 277.861387 
L 183.306132 276.330275 
L 183.440621 276.155505 
L 183.575109 279.786197 
L 183.709597 274.211839 
L 183.844085 289.1032 
L 183.978573 290.014953 
L 184.113062 287.753284 
L 184.516526 258.473698 
L 184.785503 175.543354 
L 184.919991 180.573967 
L 185.054479 174.005844 
L 185.188967 186.805924 
L 185.323456 177.067286 
L 185.72692 191.259603 
L 186.399361 261.656858 
L 187.071802 295.133981 
L 187.206291 293.472754 
L 187.340779 286.977872 
L 187.475267 286.356734 
L 187.609755 279.474818 
L 187.744243 264.202037 
L 188.01322 178.614717 
L 188.147708 186.124948 
L 188.282196 180.928467 
L 188.416684 185.210655 
L 188.551173 183.074502 
L 189.089126 204.319045 
L 189.358102 241.381311 
L 189.627078 267.810922 
L 189.761567 267.00253 
L 189.896055 267.595268 
L 190.030543 278.815851 
L 190.165031 271.631696 
L 190.299519 271.425129 
L 190.568496 266.09657 
L 190.702984 266.447129 
L 190.971961 268.834237 
L 191.106449 267.888057 
L 191.240937 260.426598 
L 191.509913 265.256369 
L 191.644402 258.34773 
L 191.77889 264.026639 
L 191.913378 263.534765 
L 192.047866 264.381376 
L 192.182354 259.599033 
L 192.720307 268.204557 
L 192.854796 274.723232 
L 193.123772 271.366225 
L 193.25826 271.104318 
L 193.527237 264.64195 
L 193.661725 266.531231 
L 193.796213 265.995024 
L 193.930701 264.907579 
L 194.199678 248.192733 
L 194.468654 172.192755 
L 195.006607 144.505159 
L 195.141095 145.941104 
L 195.275583 154.255881 
L 195.410072 149.763656 
L 195.679048 181.550755 
L 195.948024 240.751951 
L 196.082513 263.095045 
L 196.351489 261.983791 
L 196.485977 266.368019 
L 196.620465 278.490392 
L 196.889442 269.486012 
L 197.02393 266.13885 
L 197.158418 268.011917 
L 197.292907 262.828743 
L 197.427395 249.945461 
L 197.696371 177.897187 
L 197.830859 193.61504 
L 197.965348 188.251936 
L 198.099836 198.244438 
L 198.234324 190.128005 
L 198.368812 199.152819 
L 198.5033 191.039093 
L 198.637789 190.606268 
L 199.041253 241.205759 
L 199.31023 275.850689 
L 199.444718 274.682929 
L 199.579206 275.805873 
L 199.848183 281.53553 
L 199.982671 277.724037 
L 200.117159 277.668719 
L 200.251647 277.420433 
L 200.386135 274.481034 
L 200.520624 265.841203 
L 200.655112 268.264955 
L 200.7896 247.042676 
L 200.924088 181.772958 
L 201.058576 205.471591 
L 201.193065 194.127511 
L 201.327553 199.448294 
L 201.462041 194.821271 
L 201.596529 200.017758 
L 201.731018 191.532708 
L 201.865506 191.190416 
L 201.999994 199.237816 
L 202.537947 270.115018 
L 202.672435 266.573769 
L 202.806923 269.584625 
L 202.941411 276.046566 
L 203.210388 263.216545 
L 203.344876 269.350021 
L 203.479364 267.795582 
L 203.882829 253.636173 
L 204.017317 226.815838 
L 204.286294 166.431635 
L 204.420782 159.836108 
L 204.55527 162.27135 
L 204.689758 157.612473 
L 204.824246 162.949528 
L 204.958735 159.278546 
L 205.227711 187.978685 
L 205.765664 263.714679 
L 206.03464 260.431917 
L 206.169129 269.241263 
L 206.303617 289.078174 
L 206.438105 284.29314 
L 206.572593 283.580696 
L 206.707081 281.820066 
L 206.84157 282.215924 
L 206.976058 280.796663 
L 207.514011 254.085243 
L 207.648499 257.613976 
L 207.917475 271.069826 
L 208.051964 271.988504 
L 208.186452 271.274976 
L 208.32094 266.573289 
L 208.455428 267.199648 
L 208.589916 272.534169 
L 208.724405 273.056971 
L 208.858893 280.688862 
L 208.993381 280.240386 
L 209.127869 282.954029 
L 209.262357 280.578317 
L 209.396846 282.634197 
L 209.531334 270.714043 
L 209.665822 272.941309 
L 209.80031 271.327272 
L 210.069287 271.033888 
L 210.203775 250.304824 
L 210.338263 249.064033 
L 210.60724 158.231398 
L 210.741728 149.704798 
L 211.010704 122.2143 
L 211.145192 115.407419 
L 211.414169 138.125116 
L 211.683145 159.586277 
L 212.221098 260.599057 
L 212.490075 258.65139 
L 212.759051 273.365343 
L 212.893539 275.782553 
L 213.162516 267.825783 
L 213.297004 271.195257 
L 213.56598 237.285768 
L 213.834957 132.829495 
L 213.969445 114.770887 
L 214.103933 137.645652 
L 214.238421 139.083495 
L 214.37291 127.858301 
L 214.641886 159.452922 
L 215.179839 227.446422 
L 215.448815 268.90498 
L 215.583303 261.823618 
L 215.85228 269.244917 
L 215.986768 270.90295 
L 216.121256 270.226141 
L 216.390233 267.38261 
L 216.524721 269.883183 
L 216.793697 244.930588 
L 217.062674 142.37245 
L 217.197162 132.209935 
L 217.466138 151.494229 
L 217.600627 151.718068 
L 217.735115 151.09525 
L 217.869603 143.947044 
L 218.004091 159.576664 
L 218.273068 208.389307 
L 218.407556 215.929802 
L 218.542044 257.783166 
L 218.811021 269.597618 
L 218.945509 272.592447 
L 219.079997 266.037498 
L 219.483462 273.987956 
L 219.61795 274.207196 
L 219.752438 274.894022 
L 220.021414 245.505623 
L 220.290391 141.472376 
L 220.559367 155.708706 
L 220.693856 152.193537 
L 220.828344 141.55907 
L 220.962832 156.965209 
L 221.09732 156.391691 
L 221.366297 195.096027 
L 221.635273 216.045606 
L 221.769761 258.903664 
L 221.904249 266.256235 
L 222.038738 265.915883 
L 222.307714 273.403718 
L 222.442202 272.451436 
L 222.711179 276.631908 
L 222.845667 276.195633 
L 222.980155 277.214103 
L 223.114643 273.511049 
L 223.249132 277.382478 
L 223.518108 248.645911 
L 223.652596 261.682306 
L 223.787084 261.157502 
L 224.056061 252.487016 
L 224.459525 260.047165 
L 224.86299 255.836653 
L 225.131967 262.100833 
L 225.266455 261.843246 
L 225.400943 259.251808 
L 225.535431 265.106064 
L 225.669919 263.4128 
L 225.804408 259.851968 
L 226.073384 265.05194 
L 226.207872 268.859817 
L 226.34236 268.513484 
L 226.476849 270.493615 
L 226.611337 269.424148 
L 226.880313 265.129191 
L 227.014802 270.39717 
L 227.14929 269.70006 
L 227.283778 269.746227 
L 227.418266 268.317258 
L 227.552754 272.396999 
L 227.687243 272.393456 
L 227.821731 272.597635 
L 227.956219 271.818203 
L 228.090707 272.34361 
L 228.225195 279.036789 
L 228.359684 275.681229 
L 228.494172 276.506027 
L 228.62866 274.528757 
L 228.763148 281.031711 
L 228.897637 278.668551 
L 229.032125 273.246273 
L 229.166613 272.644253 
L 229.301101 272.651318 
L 229.435589 271.833706 
L 229.570078 257.790135 
L 229.704566 231.560095 
L 230.10803 101.52197 
L 230.242519 97.890552 
L 230.377007 103.479838 
L 230.511495 88.549048 
L 230.645983 115.564388 
L 230.91496 123.687696 
L 231.183936 172.784803 
L 231.587401 254.892146 
L 231.856377 263.436471 
L 231.990865 271.679204 
L 232.125354 272.730663 
L 232.259842 270.558463 
L 232.528818 272.736455 
L 232.663306 268.526239 
L 232.932283 235.108696 
L 233.201259 136.137024 
L 233.335748 114.300544 
L 233.470236 119.829147 
L 233.604724 137.130592 
L 233.739212 129.503718 
L 233.8737 137.99206 
L 234.008189 128.409508 
L 234.142677 143.493659 
L 234.411653 200.151317 
L 234.546141 211.881376 
L 234.815118 267.390325 
L 234.949606 267.959064 
L 235.084094 265.361652 
L 235.218583 273.067265 
L 235.353071 273.021729 
L 235.622047 279.927207 
L 235.891024 272.554174 
L 236.16 248.05174 
L 236.428976 134.624189 
L 236.563465 113.761685 
L 236.832441 126.043913 
L 236.966929 109.134394 
L 237.101417 123.410507 
L 237.235906 152.981832 
L 237.370394 152.514276 
L 237.504882 165.601556 
L 237.908347 255.698982 
L 238.042835 267.219366 
L 238.177323 267.717181 
L 238.311811 266.872786 
L 238.4463 274.254815 
L 238.580788 273.747939 
L 238.715276 275.32894 
L 238.984252 283.143552 
L 239.118741 277.919951 
L 239.253229 268.124592 
L 239.387717 240.236881 
L 239.656694 143.664977 
L 239.92567 121.119756 
L 240.060158 135.215745 
L 240.194646 132.253328 
L 240.329135 136.485047 
L 240.598111 166.297798 
L 240.867087 194.514911 
L 241.136064 255.034714 
L 241.270552 256.992172 
L 241.40504 261.261525 
L 241.539529 258.55907 
L 241.674017 267.834319 
L 241.808505 263.959927 
L 241.942993 279.01469 
L 242.077481 276.374797 
L 242.21197 285.021494 
L 242.346458 277.482356 
L 242.615434 241.301275 
L 242.884411 142.482396 
L 243.018899 134.973111 
L 243.153387 158.012709 
L 243.287875 154.717406 
L 243.422363 131.054175 
L 243.960316 180.548007 
L 244.229293 234.270419 
L 244.498269 260.035684 
L 244.632757 265.483652 
L 244.767246 265.132602 
L 245.036222 272.872305 
L 245.17071 275.363399 
L 245.305198 273.56408 
L 245.439687 273.398616 
L 245.708663 269.924671 
L 245.843151 250.928501 
L 245.97764 266.555049 
L 246.381104 257.43177 
L 246.515592 256.359887 
L 246.650081 258.596561 
L 247.053545 269.313543 
L 247.188033 268.596635 
L 247.322522 271.756229 
L 247.45701 271.769745 
L 247.591498 272.57832 
L 247.725986 271.639969 
L 247.860475 274.11273 
L 247.994963 270.942939 
L 248.129451 275.013129 
L 248.263939 274.361684 
L 248.398427 272.203925 
L 248.532916 272.158948 
L 248.667404 270.723408 
L 248.801892 273.27851 
L 248.93638 272.436993 
L 249.070868 273.273113 
L 249.205357 273.006536 
L 249.474333 274.226688 
L 249.743309 274.092992 
L 249.877798 275.100562 
L 250.012286 275.239068 
L 250.146774 274.918648 
L 250.281262 274.237553 
L 250.415751 274.859963 
L 250.550239 274.828221 
L 250.684727 273.837882 
L 250.819215 274.190049 
L 251.088192 273.725265 
L 251.22268 271.323 
L 251.357168 276.805823 
L 251.491656 275.000581 
L 251.626144 288.332217 
L 251.895121 281.813333 
L 252.029609 278.462135 
L 252.298586 257.05663 
L 252.567562 147.10338 
L 252.70205 130.017499 
L 252.836538 137.520436 
L 252.971027 162.653454 
L 253.105515 148.784556 
L 253.240003 154.400353 
L 253.508979 178.79006 
L 253.643468 182.57514 
L 254.181421 263.675759 
L 254.584885 283.978941 
L 254.719373 282.918458 
L 254.853862 286.599491 
L 254.98835 283.825985 
L 255.122838 284.710947 
L 255.257326 283.460168 
L 255.526303 246.535825 
L 255.795279 152.215529 
L 256.064255 170.714542 
L 256.198744 164.196846 
L 256.333232 149.999996 
L 256.602208 162.704995 
L 256.736697 168.487602 
L 257.274649 248.53972 
L 257.543626 263.831978 
L 257.678114 259.735052 
L 257.812602 270.22944 
L 257.94709 266.813703 
L 258.081579 282.279441 
L 258.216067 283.102336 
L 258.350555 281.1118 
L 258.485043 275.351965 
L 258.75402 250.111445 
L 259.022996 153.4412 
L 259.157484 166.0455 
L 259.291973 166.984349 
L 259.426461 166.158479 
L 259.560949 144.658688 
L 259.829925 171.358138 
L 259.964414 161.015407 
L 260.098902 175.953153 
L 260.502366 245.567064 
L 260.771343 259.953798 
L 261.040319 267.680542 
L 261.174808 265.297535 
L 261.309296 271.455419 
L 261.443784 269.925292 
L 261.578272 272.694115 
L 261.847249 261.85096 
L 261.981737 236.375994 
L 262.250713 146.513764 
L 262.385201 163.413242 
L 262.51969 162.113102 
L 262.788666 140.611775 
L 262.923154 155.072406 
L 263.057643 151.771456 
L 263.730084 238.998662 
L 263.99906 255.049082 
L 264.133548 255.755455 
L 264.402525 269.816801 
L 264.537013 262.719112 
L 264.671501 264.544485 
L 265.074966 255.249522 
L 265.209454 240.216038 
L 265.881895 109.887551 
L 266.016383 111.470368 
L 266.150871 120.010488 
L 266.28536 119.279852 
L 266.419848 121.26189 
L 266.554336 136.757055 
L 267.092289 252.865612 
L 267.361265 254.86493 
L 267.495754 260.763187 
L 267.630242 275.406814 
L 267.76473 268.544862 
L 267.899218 268.928403 
L 268.033706 265.97486 
L 268.302683 273.360661 
L 268.437171 272.867959 
L 268.571659 267.699768 
L 268.706147 272.486129 
L 268.840636 273.10603 
L 268.975124 269.686506 
L 269.109612 270.033304 
L 269.378589 269.922637 
L 269.782053 261.217692 
L 269.916541 261.106979 
L 270.05103 258.95332 
L 270.185518 260.647793 
L 270.320006 260.171604 
L 270.454494 260.342048 
L 270.588982 262.528733 
L 270.723471 267.519523 
L 270.857959 282.847758 
L 271.126935 274.317788 
L 271.395912 274.219366 
L 271.5304 273.925789 
L 271.933865 278.229519 
L 272.068353 274.797802 
L 272.202841 276.392325 
L 272.337329 275.979502 
L 272.471817 277.420341 
L 272.606306 276.741094 
L 272.740794 274.683629 
L 272.875282 278.058475 
L 273.144258 277.082949 
L 273.278747 274.425927 
L 273.547723 276.096436 
L 273.682211 275.704634 
L 273.8167 274.084018 
L 273.951188 280.11559 
L 274.085676 276.577063 
L 274.220164 292.595181 
L 274.623629 282.2106 
L 274.892605 257.304992 
L 275.161582 188.548489 
L 275.430558 157.995755 
L 275.699535 154.577123 
L 275.834023 154.329728 
L 276.102999 179.931511 
L 276.237487 192.367955 
L 276.640952 251.126377 
L 276.909928 268.233236 
L 277.044417 267.447945 
L 277.178905 278.693488 
L 277.313393 273.828167 
L 277.447881 282.295541 
L 277.58237 279.003314 
L 277.716858 282.880149 
L 277.851346 279.858177 
L 277.985834 272.95255 
L 278.120322 258.703499 
L 278.389299 205.236183 
L 278.523787 201.018299 
L 278.658275 181.626377 
L 278.792763 183.685302 
L 278.927252 176.492289 
L 279.06174 194.174928 
L 279.196228 189.781824 
L 279.330716 192.158029 
L 280.003157 268.596057 
L 280.137646 269.005415 
L 280.272134 271.91595 
L 280.406622 280.960927 
L 280.54111 264.511929 
L 280.675598 264.437905 
L 280.810087 264.038439 
L 280.944575 265.578377 
L 281.079063 261.673287 
L 281.213551 247.859665 
L 281.348039 248.217694 
L 281.617016 134.122736 
L 281.751504 133.225738 
L 281.885992 122.238878 
L 282.289457 140.983522 
L 282.423945 119.778496 
L 282.692922 160.060244 
L 283.230874 262.853026 
L 283.365363 263.607545 
L 283.499851 262.584128 
L 283.634339 267.721107 
L 284.037804 258.907067 
L 284.172292 259.567385 
L 284.30678 257.482636 
L 284.575757 245.516554 
L 284.844733 159.090771 
L 284.979221 149.537 
L 285.113709 153.258694 
L 285.382686 140.292843 
L 285.517174 139.892558 
L 285.651662 152.636049 
L 285.78615 152.387897 
L 285.920639 161.407074 
L 286.458592 260.222044 
L 286.59308 260.306597 
L 286.862056 264.554108 
L 286.996544 290.340702 
L 287.400009 273.164876 
L 287.668985 270.180915 
L 287.803474 266.837037 
L 287.937962 270.044704 
L 288.07245 268.614818 
L 288.206938 269.616301 
L 288.341427 265.988206 
L 288.475915 268.552452 
L 288.610403 265.496686 
L 288.744891 267.749683 
L 288.879379 267.130232 
L 289.013868 274.101868 
L 289.148356 274.407025 
L 289.282844 271.43647 
L 289.417332 281.038083 
L 289.686309 281.746967 
L 289.955285 278.769873 
L 290.089773 277.75468 
L 290.224262 274.920326 
L 290.35875 276.802089 
L 290.493238 274.376612 
L 290.627726 275.822161 
L 290.762214 272.481928 
L 290.896703 263.923198 
L 291.031191 264.058406 
L 291.165679 246.801922 
L 291.300167 181.513642 
L 291.434655 179.325445 
L 291.569144 180.732977 
L 291.83812 192.136702 
L 292.107096 179.71795 
L 292.510561 208.773232 
L 292.914026 266.669196 
L 293.048514 264.434964 
L 293.183002 266.80868 
L 293.31749 272.901286 
L 293.451979 269.070119 
L 293.586467 268.675186 
L 293.720955 265.945955 
L 293.855443 269.2727 
L 293.989931 267.854303 
L 294.12442 256.849703 
L 294.258908 255.895625 
L 294.393396 231.674609 
L 294.527884 179.924566 
L 294.662373 175.08969 
L 294.796861 154.521424 
L 294.931349 151.367129 
L 295.065837 140.560905 
L 295.200325 141.217136 
L 295.334814 156.052133 
L 295.469302 152.577175 
L 295.738278 196.350044 
L 295.872766 209.807079 
L 296.141743 265.151452 
L 296.410719 256.591091 
L 296.545208 268.289716 
L 296.679696 291.639825 
L 297.08316 278.251893 
L 297.217649 279.770246 
L 297.352137 279.689594 
L 297.486625 280.088843 
L 297.621113 280.934433 
L 297.755601 280.111078 
L 297.89009 280.304068 
L 298.159066 275.613403 
L 298.293554 276.142595 
L 298.562531 273.960239 
L 298.697019 271.967745 
L 299.100484 277.379741 
L 299.234972 278.501861 
L 299.36946 281.174321 
L 299.503948 280.301199 
L 299.638436 277.888544 
L 299.772925 282.09088 
L 299.907413 264.099824 
L 300.041901 271.514693 
L 300.176389 268.373659 
L 300.310877 270.891277 
L 300.445366 266.803735 
L 300.714342 245.989399 
L 300.983319 162.860453 
L 301.386783 125.87136 
L 301.521271 127.745854 
L 301.65576 143.430688 
L 301.790248 134.663912 
L 301.924736 146.908478 
L 302.193712 198.337883 
L 302.328201 211.10772 
L 302.597177 256.590623 
L 302.731665 259.235323 
L 302.866153 256.021998 
L 303.000642 269.684306 
L 303.13513 271.403732 
L 303.404106 264.247082 
L 303.538595 266.345377 
L 303.673083 265.043807 
L 304.076547 191.733328 
L 304.211036 153.43264 
L 304.345524 162.114332 
L 304.6145 155.973756 
L 304.748988 148.519136 
L 304.883477 160.935529 
L 305.017965 153.074189 
L 305.152453 163.862712 
L 305.42143 211.899562 
L 305.555918 217.728612 
L 305.824894 258.059709 
L 305.959382 265.888576 
L 306.093871 262.641003 
L 306.228359 271.277252 
L 306.362847 267.798696 
L 306.497335 279.898786 
L 306.9008 272.293095 
L 307.035288 261.913402 
L 307.169776 242.109912 
L 307.438753 147.734671 
L 307.707729 170.608965 
L 307.976706 147.276726 
L 308.111194 161.511703 
L 308.245682 157.627832 
L 308.38017 166.208102 
L 309.052611 265.275867 
L 309.187099 267.21294 
L 309.321588 267.132633 
L 309.456076 275.953617 
L 309.590564 275.184755 
L 309.725052 277.37385 
L 309.859541 275.065033 
L 309.994029 274.968293 
L 310.128517 272.823888 
L 310.263005 264.631661 
L 310.397493 239.605308 
L 310.66647 149.678155 
L 310.935446 168.553394 
L 311.069934 162.953466 
L 311.204423 148.032477 
L 311.473399 166.242576 
L 311.607887 164.728081 
L 311.742376 183.272241 
L 312.011352 228.601868 
L 312.280328 260.896431 
L 312.414817 262.597775 
L 312.549305 261.829366 
L 312.683793 271.536854 
L 312.818281 271.337941 
L 312.952769 272.179569 
L 313.087258 268.697082 
L 313.221746 270.227214 
L 313.356234 268.38565 
L 313.490722 270.555776 
L 313.894187 246.033957 
L 314.028675 256.199966 
L 314.163163 253.239065 
L 314.297652 256.677024 
L 314.43214 253.740167 
L 314.701116 262.637917 
L 314.835604 263.147014 
L 315.104581 268.944674 
L 315.239069 268.135992 
L 315.373557 268.247409 
L 315.508045 271.444178 
L 315.777022 269.624554 
L 316.045998 271.784319 
L 316.180487 271.041772 
L 316.314975 271.707181 
L 316.449463 269.628649 
L 316.583951 270.64593 
L 316.718439 270.350688 
L 316.852928 271.698283 
L 316.987416 271.198132 
L 317.121904 269.751417 
L 317.256392 270.676707 
L 317.39088 269.544415 
L 317.525369 271.113118 
L 317.659857 269.428829 
L 317.794345 272.34495 
L 317.928833 269.936034 
L 318.063322 270.588923 
L 318.19781 269.966064 
L 318.332298 270.051815 
L 318.466786 268.478472 
L 318.601274 270.116896 
L 318.735763 268.657547 
L 318.870251 269.718941 
L 319.004739 267.729344 
L 319.139227 273.01735 
L 319.273715 270.542249 
L 319.408204 284.982841 
L 319.946157 269.880384 
L 320.080645 254.050517 
L 320.349621 150.277215 
L 320.618598 125.301441 
L 320.753086 141.532761 
L 320.887574 143.04737 
L 321.022062 147.700955 
L 321.15655 156.388666 
L 321.425527 187.047437 
L 321.560015 195.028123 
L 321.96348 265.053214 
L 322.097968 265.803189 
L 322.232456 263.112417 
L 322.366944 272.1054 
L 322.501433 270.145146 
L 322.635921 284.202277 
L 323.039385 273.173932 
L 323.308362 256.029063 
L 323.577338 152.705556 
L 323.711826 159.969402 
L 323.846315 174.260663 
L 324.115291 142.954268 
L 324.787732 203.558434 
L 324.92222 217.058822 
L 325.191197 263.125254 
L 325.460173 260.216081 
L 325.594661 270.525122 
L 325.72915 269.53221 
L 325.863638 279.542162 
L 325.998126 278.705456 
L 326.132614 278.930471 
L 326.267103 275.277789 
L 326.401591 267.882144 
L 326.536079 250.433247 
L 326.805055 145.963034 
L 327.074032 174.212737 
L 327.343008 147.560666 
L 327.477496 164.865648 
L 327.746473 168.12314 
L 327.880961 182.167111 
L 328.149937 226.343995 
L 328.418914 256.145955 
L 329.091355 285.786834 
L 329.629308 262.197689 
L 329.763796 251.413888 
L 330.032772 157.849851 
L 330.301749 172.70599 
L 330.570725 152.77604 
L 330.705214 154.950409 
L 330.97419 187.146999 
L 331.108678 189.717709 
L 331.243166 197.659125 
L 331.646631 261.579293 
L 331.781119 261.873258 
L 331.915607 260.414457 
L 332.319072 284.272434 
L 332.857025 262.904763 
L 332.991513 250.516129 
L 333.26049 153.502154 
L 333.529466 179.327496 
L 333.798442 154.256463 
L 334.470883 204.458724 
L 334.73986 259.672213 
L 334.874348 264.05088 
L 335.008836 264.33809 
L 335.143325 265.640687 
L 335.277813 275.996541 
L 335.546789 270.23503 
L 335.815766 267.989418 
L 336.084742 270.450662 
L 336.757183 249.763969 
L 336.891671 253.730583 
L 337.02616 253.121938 
L 337.429624 261.829291 
L 337.833089 266.902026 
L 337.967577 266.368325 
L 338.102065 269.406338 
L 338.236553 269.08234 
L 338.371042 267.680464 
L 338.50553 271.854828 
L 338.640018 267.199289 
L 338.774506 267.558624 
L 338.908995 267.460938 
L 339.043483 266.593606 
L 339.177971 266.994512 
L 339.446947 268.369346 
L 339.581436 269.156655 
L 339.850412 267.169023 
L 339.9849 268.812157 
L 340.119388 268.461792 
L 340.253877 269.236616 
L 340.388365 269.304079 
L 340.522853 271.687297 
L 340.657341 269.64124 
L 340.926318 271.352876 
L 341.060806 271.349626 
L 341.195294 267.777753 
L 341.329782 271.446953 
L 341.464271 271.393143 
L 341.598759 269.440193 
L 341.733247 273.969377 
L 341.867735 274.029312 
L 342.002223 284.124529 
L 342.2712 278.806636 
L 342.405688 277.538635 
L 342.674664 256.221559 
L 342.943641 149.781948 
L 343.078129 136.237056 
L 343.347106 168.501821 
L 343.481594 159.011664 
L 344.154035 202.381875 
L 344.423011 256.897825 
L 344.557499 259.825468 
L 344.691988 258.445653 
L 344.826476 263.255902 
L 344.960964 273.674931 
L 345.095452 272.165643 
L 345.22994 281.053567 
L 345.364429 277.859479 
L 345.498917 277.957047 
L 345.633405 274.201815 
L 345.902382 252.110614 
L 346.171358 158.066727 
L 346.305846 176.744324 
L 346.440334 174.554154 
L 346.574823 169.494513 
L 346.709311 160.122657 
L 347.112775 182.959284 
L 347.247264 189.55664 
L 347.785217 258.590299 
L 348.054193 262.030696 
L 348.188681 274.105874 
L 348.323169 272.038732 
L 348.457658 283.190872 
L 348.592146 279.238822 
L 348.726634 280.513685 
L 348.861122 276.286274 
L 349.130099 253.143258 
L 349.399075 158.930388 
L 349.533563 170.827717 
L 349.937028 154.920505 
L 350.474981 193.323959 
L 350.878445 250.92601 
L 351.147422 265.254903 
L 351.28191 262.103138 
L 351.416398 274.592645 
L 351.550886 273.598075 
L 351.685375 286.43605 
L 351.954351 278.002278 
L 352.223328 273.0611 
L 352.357816 258.072434 
L 352.626792 156.934834 
L 352.76128 175.74641 
L 353.030257 168.618367 
L 353.164745 156.030125 
L 353.433721 172.041122 
L 353.702698 167.025871 
L 354.106163 254.581955 
L 354.240651 268.461861 
L 354.375139 268.722028 
L 354.509627 266.542444 
L 354.778604 278.00865 
L 354.913092 281.371875 
L 355.316556 276.934319 
L 355.451045 271.34145 
L 355.585533 253.113879 
L 355.854509 180.866278 
L 355.988998 182.191959 
L 356.257974 150.905962 
L 356.392462 155.860011 
L 356.52695 168.298392 
L 356.661439 168.384605 
L 356.930415 189.248899 
L 357.199391 234.367465 
L 357.468368 272.149662 
L 357.602856 270.702382 
L 357.737344 271.852656 
L 358.006321 280.723827 
L 358.275297 276.66704 
L 358.409785 276.980297 
L 358.544274 276.631126 
L 358.678762 275.203542 
L 358.81325 275.031167 
L 359.082226 256.350914 
L 359.216715 253.692027 
L 359.351203 254.198328 
L 359.620179 244.058599 
L 359.754667 261.591347 
L 359.889156 262.261121 
L 360.023644 261.491718 
L 360.427109 276.557707 
L 360.561597 274.40961 
L 360.830573 276.052539 
L 360.965061 275.666432 
L 361.09955 279.608071 
L 361.368526 276.696464 
L 361.503014 275.754837 
L 361.637502 277.447717 
L 361.906479 276.130061 
L 362.040967 278.326644 
L 362.175455 278.058553 
L 362.444432 279.17363 
L 362.713408 275.86943 
L 362.982385 277.29618 
L 363.116873 277.439681 
L 363.251361 276.383857 
L 363.520337 278.490334 
L 363.789314 276.207902 
L 363.923802 276.212515 
L 364.05829 275.128259 
L 364.192778 281.934787 
L 364.327267 238.082357 
L 364.461755 249.363703 
L 364.596243 249.205335 
L 364.730731 254.786002 
L 364.86522 253.299494 
L 364.999708 248.187121 
L 365.268684 193.523882 
L 365.537661 116.69895 
L 365.672149 104.198364 
L 365.806637 102.849112 
L 365.941125 102.745759 
L 366.075613 107.246469 
L 366.34459 120.098484 
L 366.479078 126.943302 
L 366.613566 154.682784 
L 366.882543 241.687281 
L 367.151519 256.937853 
L 367.286007 257.960652 
L 367.420496 260.046353 
L 367.554984 266.85436 
L 367.689472 267.41307 
L 367.82396 265.683701 
L 368.092937 267.189604 
L 368.765378 92.883378 
L 368.899866 93.543829 
L 369.034354 96.150626 
L 369.168842 83.122769 
L 369.303331 82.694585 
L 369.437819 88.970578 
L 369.706795 111.626998 
L 369.975772 193.447752 
L 370.11026 239.599541 
L 370.244748 239.424311 
L 370.648213 264.041647 
L 370.782701 288.707584 
L 371.186166 275.374307 
L 371.320654 275.327473 
L 371.58963 247.534907 
L 371.858607 155.504887 
L 371.993095 159.434806 
L 372.262071 210.273992 
L 372.396559 190.790494 
L 372.665536 194.337217 
L 372.800024 195.460303 
L 372.934512 206.467992 
L 373.069001 232.149658 
L 373.203489 233.513698 
L 373.472465 260.406626 
L 373.606953 261.764248 
L 373.741442 265.076278 
L 374.010418 286.034785 
L 374.144906 295.488 
L 374.413883 286.765468 
L 374.548371 283.125277 
L 374.817347 252.533985 
L 375.086324 188.672551 
L 375.3553 174.781068 
L 375.489788 177.706104 
L 375.624277 176.740809 
L 375.758765 176.819323 
L 376.162229 199.985892 
L 376.565694 257.645989 
L 376.83467 265.953275 
L 376.969159 265.903715 
L 377.103647 273.028932 
L 377.238135 288.106895 
L 377.507112 279.55011 
L 377.6416 277.220909 
L 377.776088 272.570482 
L 377.910576 278.824905 
L 378.179553 273.793864 
L 378.314041 253.399151 
L 378.448529 260.015594 
L 378.583017 248.132875 
L 378.717505 258.286828 
L 378.851994 256.664107 
L 378.986482 268.907084 
L 379.12097 264.938158 
L 379.389947 272.596441 
L 379.524435 272.626163 
L 379.793411 279.686938 
L 379.927899 280.139188 
L 380.062388 281.28404 
L 380.331364 278.142336 
L 380.465852 263.918047 
L 380.734829 268.777479 
L 380.869317 270.708813 
L 381.003805 269.646813 
L 381.138293 253.880272 
L 381.272782 254.748591 
L 381.676246 144.332202 
L 381.810734 143.016728 
L 381.945223 135.869369 
L 382.079711 137.938935 
L 382.348687 149.771553 
L 382.483175 144.137231 
L 383.155616 264.215695 
L 383.290105 266.970356 
L 383.424593 265.968919 
L 383.559081 270.845608 
L 383.693569 261.716903 
L 384.097034 259.944123 
L 384.231522 260.585444 
L 384.36601 256.386298 
L 384.500499 259.156174 
L 384.769475 171.536178 
L 384.903963 159.281699 
L 385.038451 160.522571 
L 385.17294 144.393173 
L 385.307428 147.889871 
L 385.441916 172.680034 
L 385.710893 163.244631 
L 385.979869 209.742701 
L 386.383334 266.513795 
L 386.517822 264.795882 
L 386.786798 274.339183 
L 386.921286 284.380851 
L 387.190263 276.139057 
L 387.324751 275.615417 
L 387.459239 273.602061 
L 387.593727 273.645445 
L 387.728216 275.903554 
L 387.862704 274.268391 
L 387.997192 277.281977 
L 388.13168 274.580888 
L 388.266169 279.217283 
L 388.535145 275.904568 
L 388.93861 282.582721 
L 389.073098 278.064711 
L 389.476562 287.666605 
L 389.611051 289.130898 
L 389.745539 285.149447 
L 389.880027 285.11675 
L 390.014515 286.348478 
L 390.149004 261.385983 
L 390.283492 265.213115 
L 390.41798 265.013419 
L 390.552468 267.392477 
L 390.686956 263.756953 
L 390.821445 251.839316 
L 390.955933 254.860386 
L 391.090421 237.572254 
L 391.224909 173.175476 
L 391.359397 183.452568 
L 391.493886 153.599431 
L 391.89735 177.900812 
L 392.166327 169.312317 
L 392.435303 202.165963 
L 392.838768 275.240323 
L 392.973256 272.398595 
L 393.107744 272.07244 
L 393.242232 273.984138 
L 393.511209 261.394732 
L 393.645697 268.361086 
L 393.780185 268.43661 
L 393.914673 258.962377 
L 394.049162 260.907771 
L 394.18365 245.207836 
L 394.587115 158.167314 
L 394.721603 155.700105 
L 394.856091 145.079076 
L 394.990579 144.758585 
L 395.125067 147.894448 
L 395.259556 148.036957 
L 395.797508 217.829579 
L 396.066485 258.373834 
L 396.200973 261.604896 
L 396.335461 261.065938 
L 396.46995 259.434835 
L 396.604438 292.886127 
L 396.873414 284.543689 
L 397.007902 278.181946 
L 397.142391 281.362262 
L 397.411367 255.903337 
L 397.680343 173.379432 
L 397.814832 180.742152 
L 398.218296 150.866025 
L 398.352785 168.2456 
L 398.487273 166.309827 
L 398.487273 166.309827 
" clip-path="url(#p2b827f52c3)" style="fill: none; stroke: #ff7f0e; stroke-width: 1.5; stroke-linecap: square"/>
   </g>
   <g id="patch_3">
    <path d="M 57.6 307.584 
L 57.6 41.472 
" style="fill: none; stroke: #000000; stroke-width: 0.8; stroke-linejoin: miter; stroke-linecap: square"/>
   </g>
   <g id="patch_4">
    <path d="M 414.72 307.584 
L 414.72 41.472 
" style="fill: none; stroke: #000000; stroke-width: 0.8; stroke-linejoin: miter; stroke-linecap: square"/>
   </g>
   <g id="patch_5">
    <path d="M 57.6 307.584 
L 414.72 307.584 
" style="fill: none; stroke: #000000; stroke-width: 0.8; stroke-linejoin: miter; stroke-linecap: square"/>
   </g>
   <g id="patch_6">
    <path d="M 57.6 41.472 
L 414.72 41.472 
" style="fill: none; stroke: #000000; stroke-width: 0.8; stroke-linejoin: miter; stroke-linecap: square"/>
   </g>
  </g>
 </g>
 <defs>
  <clipPath id="p2b827f52c3">
   <rect x="57.6" y="41.472" width="357.12" height="266.112"/>
  </clipPath>
 </defs>
</svg>
