<?xml version="1.0" encoding="utf-8" standalone="no"?>
<!DOCTYPE svg PUBLIC "-//W3C//DTD SVG 1.1//EN"
  "http://www.w3.org/Graphics/SVG/1.1/DTD/svg11.dtd">
<svg xmlns:xlink="http://www.w3.org/1999/xlink" width="460.8pt" height="345.6pt" viewBox="0 0 460.8 345.6" xmlns="http://www.w3.org/2000/svg" version="1.1">
 <metadata>
  <rdf:RDF xmlns:dc="http://purl.org/dc/elements/1.1/" xmlns:cc="http://creativecommons.org/ns#" xmlns:rdf="http://www.w3.org/1999/02/22-rdf-syntax-ns#">
   <cc:Work>
    <dc:type rdf:resource="http://purl.org/dc/dcmitype/StillImage"/>
    <dc:date>2023-04-04T04:11:01.886720</dc:date>
    <dc:format>image/svg+xml</dc:format>
    <dc:creator>
     <cc:Agent>
      <dc:title>Matplotlib v3.5.2, https://matplotlib.org/</dc:title>
     </cc:Agent>
    </dc:creator>
   </cc:Work>
  </rdf:RDF>
 </metadata>
 <defs>
  <style type="text/css">*{stroke-linejoin: round; stroke-linecap: butt}</style>
 </defs>
 <g id="figure_1">
  <g id="patch_1">
   <path d="M 0 345.6 
L 460.8 345.6 
L 460.8 0 
L 0 0 
z
" style="fill: #ffffff"/>
  </g>
  <g id="axes_1">
   <g id="patch_2">
    <path d="M 57.6 307.584 
L 414.72 307.584 
L 414.72 41.472 
L 57.6 41.472 
z
" style="fill: #ffffff"/>
   </g>
   <g id="matplotlib.axis_1">
    <g id="xtick_1">
     <g id="line2d_1">
      <defs>
       <path id="m870e126d70" d="M 0 0 
L 0 3.5 
" style="stroke: #000000; stroke-width: 0.8"/>
      </defs>
      <g>
       <use xlink:href="#m870e126d70" x="73.832727" y="307.584" style="stroke: #000000; stroke-width: 0.8"/>
      </g>
     </g>
     <g id="text_1">
      <!-- 0 -->
      <g transform="translate(70.651477 322.182437)scale(0.1 -0.1)">
       <defs>
        <path id="DejaVuSans-30" d="M 2034 4250 
Q 1547 4250 1301 3770 
Q 1056 3291 1056 2328 
Q 1056 1369 1301 889 
Q 1547 409 2034 409 
Q 2525 409 2770 889 
Q 3016 1369 3016 2328 
Q 3016 3291 2770 3770 
Q 2525 4250 2034 4250 
z
M 2034 4750 
Q 2819 4750 3233 4129 
Q 3647 3509 3647 2328 
Q 3647 1150 3233 529 
Q 2819 -91 2034 -91 
Q 1250 -91 836 529 
Q 422 1150 422 2328 
Q 422 3509 836 4129 
Q 1250 4750 2034 4750 
z
" transform="scale(0.015625)"/>
       </defs>
       <use xlink:href="#DejaVuSans-30"/>
      </g>
     </g>
    </g>
    <g id="xtick_2">
     <g id="line2d_2">
      <g>
       <use xlink:href="#m870e126d70" x="141.076834" y="307.584" style="stroke: #000000; stroke-width: 0.8"/>
      </g>
     </g>
     <g id="text_2">
      <!-- 500 -->
      <g transform="translate(131.533084 322.182437)scale(0.1 -0.1)">
       <defs>
        <path id="DejaVuSans-35" d="M 691 4666 
L 3169 4666 
L 3169 4134 
L 1269 4134 
L 1269 2991 
Q 1406 3038 1543 3061 
Q 1681 3084 1819 3084 
Q 2600 3084 3056 2656 
Q 3513 2228 3513 1497 
Q 3513 744 3044 326 
Q 2575 -91 1722 -91 
Q 1428 -91 1123 -41 
Q 819 9 494 109 
L 494 744 
Q 775 591 1075 516 
Q 1375 441 1709 441 
Q 2250 441 2565 725 
Q 2881 1009 2881 1497 
Q 2881 1984 2565 2268 
Q 2250 2553 1709 2553 
Q 1456 2553 1204 2497 
Q 953 2441 691 2322 
L 691 4666 
z
" transform="scale(0.015625)"/>
       </defs>
       <use xlink:href="#DejaVuSans-35"/>
       <use xlink:href="#DejaVuSans-30" x="63.623047"/>
       <use xlink:href="#DejaVuSans-30" x="127.246094"/>
      </g>
     </g>
    </g>
    <g id="xtick_3">
     <g id="line2d_3">
      <g>
       <use xlink:href="#m870e126d70" x="208.32094" y="307.584" style="stroke: #000000; stroke-width: 0.8"/>
      </g>
     </g>
     <g id="text_3">
      <!-- 1000 -->
      <g transform="translate(195.59594 322.182437)scale(0.1 -0.1)">
       <defs>
        <path id="DejaVuSans-31" d="M 794 531 
L 1825 531 
L 1825 4091 
L 703 3866 
L 703 4441 
L 1819 4666 
L 2450 4666 
L 2450 531 
L 3481 531 
L 3481 0 
L 794 0 
L 794 531 
z
" transform="scale(0.015625)"/>
       </defs>
       <use xlink:href="#DejaVuSans-31"/>
       <use xlink:href="#DejaVuSans-30" x="63.623047"/>
       <use xlink:href="#DejaVuSans-30" x="127.246094"/>
       <use xlink:href="#DejaVuSans-30" x="190.869141"/>
      </g>
     </g>
    </g>
    <g id="xtick_4">
     <g id="line2d_4">
      <g>
       <use xlink:href="#m870e126d70" x="275.565046" y="307.584" style="stroke: #000000; stroke-width: 0.8"/>
      </g>
     </g>
     <g id="text_4">
      <!-- 1500 -->
      <g transform="translate(262.840046 322.182437)scale(0.1 -0.1)">
       <use xlink:href="#DejaVuSans-31"/>
       <use xlink:href="#DejaVuSans-35" x="63.623047"/>
       <use xlink:href="#DejaVuSans-30" x="127.246094"/>
       <use xlink:href="#DejaVuSans-30" x="190.869141"/>
      </g>
     </g>
    </g>
    <g id="xtick_5">
     <g id="line2d_5">
      <g>
       <use xlink:href="#m870e126d70" x="342.809153" y="307.584" style="stroke: #000000; stroke-width: 0.8"/>
      </g>
     </g>
     <g id="text_5">
      <!-- 2000 -->
      <g transform="translate(330.084153 322.182437)scale(0.1 -0.1)">
       <defs>
        <path id="DejaVuSans-32" d="M 1228 531 
L 3431 531 
L 3431 0 
L 469 0 
L 469 531 
Q 828 903 1448 1529 
Q 2069 2156 2228 2338 
Q 2531 2678 2651 2914 
Q 2772 3150 2772 3378 
Q 2772 3750 2511 3984 
Q 2250 4219 1831 4219 
Q 1534 4219 1204 4116 
Q 875 4013 500 3803 
L 500 4441 
Q 881 4594 1212 4672 
Q 1544 4750 1819 4750 
Q 2544 4750 2975 4387 
Q 3406 4025 3406 3419 
Q 3406 3131 3298 2873 
Q 3191 2616 2906 2266 
Q 2828 2175 2409 1742 
Q 1991 1309 1228 531 
z
" transform="scale(0.015625)"/>
       </defs>
       <use xlink:href="#DejaVuSans-32"/>
       <use xlink:href="#DejaVuSans-30" x="63.623047"/>
       <use xlink:href="#DejaVuSans-30" x="127.246094"/>
       <use xlink:href="#DejaVuSans-30" x="190.869141"/>
      </g>
     </g>
    </g>
    <g id="xtick_6">
     <g id="line2d_6">
      <g>
       <use xlink:href="#m870e126d70" x="410.053259" y="307.584" style="stroke: #000000; stroke-width: 0.8"/>
      </g>
     </g>
     <g id="text_6">
      <!-- 2500 -->
      <g transform="translate(397.328259 322.182437)scale(0.1 -0.1)">
       <use xlink:href="#DejaVuSans-32"/>
       <use xlink:href="#DejaVuSans-35" x="63.623047"/>
       <use xlink:href="#DejaVuSans-30" x="127.246094"/>
       <use xlink:href="#DejaVuSans-30" x="190.869141"/>
      </g>
     </g>
    </g>
   </g>
   <g id="matplotlib.axis_2">
    <g id="ytick_1">
     <g id="line2d_7">
      <defs>
       <path id="m6d0a1bd9b2" d="M 0 0 
L -3.5 0 
" style="stroke: #000000; stroke-width: 0.8"/>
      </defs>
      <g>
       <use xlink:href="#m6d0a1bd9b2" x="57.6" y="273.829607" style="stroke: #000000; stroke-width: 0.8"/>
      </g>
     </g>
     <g id="text_7">
      <!-- 100 -->
      <g transform="translate(31.5125 277.628825)scale(0.1 -0.1)">
       <use xlink:href="#DejaVuSans-31"/>
       <use xlink:href="#DejaVuSans-30" x="63.623047"/>
       <use xlink:href="#DejaVuSans-30" x="127.246094"/>
      </g>
     </g>
    </g>
    <g id="ytick_2">
     <g id="line2d_8">
      <g>
       <use xlink:href="#m6d0a1bd9b2" x="57.6" y="227.417606" style="stroke: #000000; stroke-width: 0.8"/>
      </g>
     </g>
     <g id="text_8">
      <!-- 200 -->
      <g transform="translate(31.5125 231.216825)scale(0.1 -0.1)">
       <use xlink:href="#DejaVuSans-32"/>
       <use xlink:href="#DejaVuSans-30" x="63.623047"/>
       <use xlink:href="#DejaVuSans-30" x="127.246094"/>
      </g>
     </g>
    </g>
    <g id="ytick_3">
     <g id="line2d_9">
      <g>
       <use xlink:href="#m6d0a1bd9b2" x="57.6" y="181.005606" style="stroke: #000000; stroke-width: 0.8"/>
      </g>
     </g>
     <g id="text_9">
      <!-- 300 -->
      <g transform="translate(31.5125 184.804825)scale(0.1 -0.1)">
       <defs>
        <path id="DejaVuSans-33" d="M 2597 2516 
Q 3050 2419 3304 2112 
Q 3559 1806 3559 1356 
Q 3559 666 3084 287 
Q 2609 -91 1734 -91 
Q 1441 -91 1130 -33 
Q 819 25 488 141 
L 488 750 
Q 750 597 1062 519 
Q 1375 441 1716 441 
Q 2309 441 2620 675 
Q 2931 909 2931 1356 
Q 2931 1769 2642 2001 
Q 2353 2234 1838 2234 
L 1294 2234 
L 1294 2753 
L 1863 2753 
Q 2328 2753 2575 2939 
Q 2822 3125 2822 3475 
Q 2822 3834 2567 4026 
Q 2313 4219 1838 4219 
Q 1578 4219 1281 4162 
Q 984 4106 628 3988 
L 628 4550 
Q 988 4650 1302 4700 
Q 1616 4750 1894 4750 
Q 2613 4750 3031 4423 
Q 3450 4097 3450 3541 
Q 3450 3153 3228 2886 
Q 3006 2619 2597 2516 
z
" transform="scale(0.015625)"/>
       </defs>
       <use xlink:href="#DejaVuSans-33"/>
       <use xlink:href="#DejaVuSans-30" x="63.623047"/>
       <use xlink:href="#DejaVuSans-30" x="127.246094"/>
      </g>
     </g>
    </g>
    <g id="ytick_4">
     <g id="line2d_10">
      <g>
       <use xlink:href="#m6d0a1bd9b2" x="57.6" y="134.593606" style="stroke: #000000; stroke-width: 0.8"/>
      </g>
     </g>
     <g id="text_10">
      <!-- 400 -->
      <g transform="translate(31.5125 138.392825)scale(0.1 -0.1)">
       <defs>
        <path id="DejaVuSans-34" d="M 2419 4116 
L 825 1625 
L 2419 1625 
L 2419 4116 
z
M 2253 4666 
L 3047 4666 
L 3047 1625 
L 3713 1625 
L 3713 1100 
L 3047 1100 
L 3047 0 
L 2419 0 
L 2419 1100 
L 313 1100 
L 313 1709 
L 2253 4666 
z
" transform="scale(0.015625)"/>
       </defs>
       <use xlink:href="#DejaVuSans-34"/>
       <use xlink:href="#DejaVuSans-30" x="63.623047"/>
       <use xlink:href="#DejaVuSans-30" x="127.246094"/>
      </g>
     </g>
    </g>
    <g id="ytick_5">
     <g id="line2d_11">
      <g>
       <use xlink:href="#m6d0a1bd9b2" x="57.6" y="88.181606" style="stroke: #000000; stroke-width: 0.8"/>
      </g>
     </g>
     <g id="text_11">
      <!-- 500 -->
      <g transform="translate(31.5125 91.980824)scale(0.1 -0.1)">
       <use xlink:href="#DejaVuSans-35"/>
       <use xlink:href="#DejaVuSans-30" x="63.623047"/>
       <use xlink:href="#DejaVuSans-30" x="127.246094"/>
      </g>
     </g>
    </g>
    <g id="ytick_6">
     <g id="line2d_12">
      <g>
       <use xlink:href="#m6d0a1bd9b2" x="57.6" y="41.769605" style="stroke: #000000; stroke-width: 0.8"/>
      </g>
     </g>
     <g id="text_12">
      <!-- 600 -->
      <g transform="translate(31.5125 45.568824)scale(0.1 -0.1)">
       <defs>
        <path id="DejaVuSans-36" d="M 2113 2584 
Q 1688 2584 1439 2293 
Q 1191 2003 1191 1497 
Q 1191 994 1439 701 
Q 1688 409 2113 409 
Q 2538 409 2786 701 
Q 3034 994 3034 1497 
Q 3034 2003 2786 2293 
Q 2538 2584 2113 2584 
z
M 3366 4563 
L 3366 3988 
Q 3128 4100 2886 4159 
Q 2644 4219 2406 4219 
Q 1781 4219 1451 3797 
Q 1122 3375 1075 2522 
Q 1259 2794 1537 2939 
Q 1816 3084 2150 3084 
Q 2853 3084 3261 2657 
Q 3669 2231 3669 1497 
Q 3669 778 3244 343 
Q 2819 -91 2113 -91 
Q 1303 -91 875 529 
Q 447 1150 447 2328 
Q 447 3434 972 4092 
Q 1497 4750 2381 4750 
Q 2619 4750 2861 4703 
Q 3103 4656 3366 4563 
z
" transform="scale(0.015625)"/>
       </defs>
       <use xlink:href="#DejaVuSans-36"/>
       <use xlink:href="#DejaVuSans-30" x="63.623047"/>
       <use xlink:href="#DejaVuSans-30" x="127.246094"/>
      </g>
     </g>
    </g>
   </g>
   <g id="line2d_13">
    <path d="M 73.832727 276.811114 
L 74.101704 276.27784 
L 74.236192 275.199689 
L 74.37068 276.135355 
L 74.505168 275.657311 
L 74.639657 276.241638 
L 74.774145 269.95931 
L 74.908633 243.637208 
L 75.177609 242.187761 
L 75.312098 242.727069 
L 75.446586 242.778122 
L 75.581074 243.619572 
L 75.715562 242.885334 
L 75.85005 242.863984 
L 76.253515 238.024141 
L 76.522492 271.087586 
L 76.65698 271.391584 
L 76.925956 269.734676 
L 77.060444 261.137317 
L 77.194933 263.315432 
L 77.463909 263.37716 
L 77.598397 264.915254 
L 77.732885 259.744493 
L 77.867374 246.728712 
L 78.405327 102.63291 
L 78.674303 101.738087 
L 78.808791 108.667863 
L 78.943279 104.005313 
L 79.481232 155.165261 
L 79.750209 223.486974 
L 80.019185 257.195082 
L 80.153673 259.257167 
L 80.288161 255.53446 
L 80.42265 265.62675 
L 80.557138 265.204865 
L 80.826114 267.639174 
L 80.960603 265.173305 
L 81.095091 255.160844 
L 81.364067 165.055194 
L 81.498555 176.996538 
L 81.767532 158.158835 
L 82.036508 165.92774 
L 82.170996 162.917457 
L 82.305485 157.11735 
L 83.112414 254.696724 
L 83.650367 280.115184 
L 83.784855 280.135141 
L 83.919343 281.618933 
L 84.053831 281.805509 
L 84.18832 279.769879 
L 84.322808 272.756561 
L 84.726273 185.259266 
L 84.860761 176.847555 
L 84.995249 180.824135 
L 85.129737 166.377472 
L 85.264225 174.66944 
L 85.398714 175.394859 
L 85.66769 183.44827 
L 85.802178 191.961623 
L 86.340131 256.760201 
L 86.474619 258.714146 
L 86.609107 263.480659 
L 86.878084 280.486016 
L 87.012572 282.671093 
L 87.14706 282.354099 
L 87.281549 283.801225 
L 87.416037 283.707009 
L 87.550525 282.919397 
L 87.819501 256.220894 
L 87.95399 256.36245 
L 88.088478 250.842671 
L 88.222966 252.25963 
L 88.357454 251.523999 
L 88.491942 248.264021 
L 88.626431 251.015788 
L 88.760919 244.226641 
L 88.895407 247.019715 
L 89.029895 247.018322 
L 89.164384 249.504149 
L 89.43336 270.181159 
L 89.567848 271.795833 
L 89.702336 271.31222 
L 89.836825 272.341174 
L 89.971313 257.635532 
L 90.105801 258.327999 
L 90.240289 259.827106 
L 90.374777 259.6034 
L 90.509266 260.803151 
L 90.643754 260.96977 
L 90.778242 263.007721 
L 90.91273 259.879088 
L 91.047218 250.231425 
L 91.181707 249.094795 
L 91.316195 242.366448 
L 91.450683 246.671161 
L 91.585171 244.762699 
L 91.71966 246.217251 
L 91.854148 246.43678 
L 92.123124 249.332425 
L 92.257612 248.776409 
L 92.526589 254.208005 
L 92.795565 260.612397 
L 92.930053 261.539709 
L 93.064542 260.432319 
L 93.19903 270.158418 
L 93.468006 270.279553 
L 93.602495 271.309435 
L 93.736983 270.111077 
L 93.871471 267.660988 
L 94.005959 262.592797 
L 94.6784 158.437771 
L 94.812888 154.166939 
L 95.081865 165.685933 
L 95.216353 160.619135 
L 95.350841 149.676114 
L 96.023282 259.031605 
L 96.157771 259.740316 
L 96.426747 263.555382 
L 96.561235 263.231426 
L 96.695723 263.306614 
L 96.830212 265.135711 
L 96.9647 264.516111 
L 97.099188 263.12932 
L 97.233676 254.902793 
L 97.368164 237.839885 
L 97.502653 197.985436 
L 97.637141 191.091398 
L 97.771629 176.059015 
L 97.906117 184.215924 
L 98.040606 177.693646 
L 98.175094 178.383328 
L 98.309582 173.215352 
L 98.44407 174.810997 
L 98.713047 185.857053 
L 98.982023 226.61143 
L 99.250999 260.471305 
L 99.385488 265.024786 
L 99.519976 265.757632 
L 99.654464 275.284623 
L 99.788952 275.29669 
L 99.923441 274.323895 
L 100.192417 275.526894 
L 100.326905 275.60533 
L 100.461393 274.969021 
L 100.595882 275.363523 
L 100.73037 276.168772 
L 100.864858 274.673841 
L 100.999346 275.797011 
L 101.133834 274.914719 
L 101.268323 272.762131 
L 101.402811 265.935854 
L 101.537299 270.086943 
L 101.806276 259.995118 
L 101.940764 262.094797 
L 102.075252 261.950455 
L 102.20974 262.580266 
L 102.344228 264.891584 
L 102.478717 270.545029 
L 102.613205 268.745172 
L 102.747693 274.254741 
L 102.882181 261.17816 
L 103.016669 261.206007 
L 103.151158 265.973447 
L 103.285646 265.760416 
L 103.554622 261.697974 
L 103.68911 257.628106 
L 103.823599 240.695616 
L 104.092575 180.190147 
L 104.227063 159.314958 
L 104.361552 166.276758 
L 104.630528 142.106316 
L 105.033993 156.990181 
L 105.168481 167.464905 
L 105.706434 248.177694 
L 105.840922 248.058879 
L 105.97541 256.511433 
L 106.109898 272.478553 
L 106.378875 275.577483 
L 106.513363 275.564023 
L 106.647851 277.659989 
L 106.782339 277.399154 
L 106.916828 278.479161 
L 107.320292 241.971017 
L 107.45478 248.834888 
L 107.589269 246.372731 
L 107.723757 246.462771 
L 108.26171 241.543099 
L 108.396198 238.232531 
L 108.530686 240.428282 
L 108.934151 271.14328 
L 109.068639 272.615469 
L 109.203127 271.578625 
L 109.337615 267.210327 
L 109.606592 268.715004 
L 109.875568 269.737461 
L 110.144545 270.756668 
L 110.413521 269.554133 
L 110.548009 269.423251 
L 110.951474 265.488906 
L 111.085962 266.628785 
L 111.22045 266.29137 
L 111.623915 260.661594 
L 111.758403 261.154954 
L 112.02738 264.827999 
L 112.430844 266.379552 
L 112.565333 256.432997 
L 112.834309 260.511683 
L 112.968797 261.019895 
L 113.103285 262.485122 
L 113.237774 262.658238 
L 113.50675 265.198831 
L 113.641238 266.004543 
L 114.313679 255.101901 
L 114.448168 254.75149 
L 114.582656 253.313182 
L 114.98612 242.803185 
L 115.524073 253.537352 
L 115.658561 254.07109 
L 115.927538 256.23064 
L 116.062026 254.984942 
L 116.196514 260.900616 
L 116.331002 260.495903 
L 116.465491 261.088584 
L 116.599979 251.624713 
L 117.137932 78.355721 
L 117.406908 64.099347 
L 117.810373 80.137478 
L 118.213837 145.301319 
L 118.482814 205.751092 
L 118.75179 239.139885 
L 118.886279 240.62739 
L 119.289743 248.379122 
L 119.424231 249.75431 
L 119.55872 252.441565 
L 119.693208 252.748812 
L 119.827696 243.424177 
L 120.365649 90.823841 
L 120.634625 72.819698 
L 120.769114 76.399455 
L 120.903602 70.174214 
L 121.03809 71.462147 
L 121.441555 132.973827 
L 121.710531 197.782616 
L 121.845019 225.110002 
L 122.248484 235.742991 
L 122.51746 250.789297 
L 122.651948 250.943849 
L 122.786437 252.629997 
L 122.920925 251.329997 
L 123.055413 243.416287 
L 123.727854 60.262467 
L 123.862342 53.568 
L 124.534783 106.061829 
L 125.072736 242.738672 
L 125.207225 247.753024 
L 125.341713 248.202293 
L 125.476201 248.157273 
L 125.745177 261.345243 
L 125.879666 262.738531 
L 126.014154 262.961309 
L 126.28313 249.917216 
L 126.821083 91.895958 
L 126.955571 74.100205 
L 127.09006 80.498563 
L 127.359036 104.293532 
L 127.493524 106.6624 
L 127.762501 124.59971 
L 127.896989 146.712243 
L 128.300453 241.169946 
L 128.434942 246.796473 
L 128.56943 245.024463 
L 128.703918 252.298616 
L 128.838406 253.000829 
L 129.241871 259.491547 
L 129.510847 239.407218 
L 130.0488 82.606596 
L 130.183288 73.773464 
L 130.317777 85.331445 
L 130.452265 113.283536 
L 130.586753 112.39289 
L 130.721241 108.855831 
L 130.855729 115.052761 
L 131.124706 166.714887 
L 131.393682 230.374979 
L 131.662659 252.777588 
L 131.931635 252.587298 
L 132.066123 252.410469 
L 132.3351 263.341423 
L 132.469588 263.197546 
L 132.738564 263.25324 
L 133.007541 251.721715 
L 133.276517 241.578372 
L 133.679982 236.169053 
L 133.81447 235.022677 
L 133.948958 230.077942 
L 134.486911 239.655987 
L 134.755888 246.528212 
L 134.890376 246.416823 
L 135.697305 260.228106 
L 135.831793 264.834497 
L 135.966282 265.425322 
L 136.10077 263.502937 
L 136.235258 264.960738 
L 136.369746 264.694797 
L 136.504234 260.525607 
L 136.638723 260.371519 
L 136.907699 258.495546 
L 137.311164 247.942849 
L 137.445652 248.437137 
L 137.58014 245.836209 
L 137.983605 252.442493 
L 138.118093 251.568091 
L 138.252581 253.347063 
L 138.387069 257.702365 
L 138.521558 256.506792 
L 138.656046 256.701722 
L 138.925022 261.254275 
L 139.193999 245.504363 
L 139.731951 80.809059 
L 139.86644 72.162968 
L 140.269904 97.382785 
L 140.538881 121.068221 
L 140.673369 127.943695 
L 140.807857 141.867759 
L 141.076834 219.544739 
L 141.480298 251.726356 
L 142.018251 259.908791 
L 142.152739 259.459059 
L 142.421716 236.443348 
L 142.959669 90.504062 
L 143.094157 83.312987 
L 143.228645 82.840049 
L 143.363133 92.755508 
L 143.497621 83.762719 
L 143.63211 88.733908 
L 144.573527 252.936317 
L 144.708015 256.320216 
L 144.842504 256.490548 
L 145.11148 258.66495 
L 145.245968 260.743279 
L 145.380456 256.788977 
L 145.783921 197.475833 
L 146.052897 108.562043 
L 146.187386 90.020449 
L 146.456362 104.869969 
L 146.59085 115.849191 
L 146.725339 110.330805 
L 146.859827 117.520488 
L 146.994315 112.596638 
L 147.128803 125.067543 
L 147.532268 229.098649 
L 147.801244 254.330533 
L 147.935732 254.526856 
L 148.204709 259.64053 
L 148.339197 259.619645 
L 148.473685 260.108363 
L 148.742662 259.086371 
L 148.87715 241.925534 
L 149.280615 117.388677 
L 149.415103 113.46872 
L 149.549591 104.654153 
L 149.684079 105.872932 
L 150.087544 137.621989 
L 150.222032 130.15569 
L 150.35652 135.513492 
L 150.894473 246.973767 
L 151.028961 255.876517 
L 151.16345 254.946884 
L 151.835891 262.882408 
L 151.970379 261.647385 
L 152.104867 241.312431 
L 152.508332 111.555153 
L 152.64282 114.572861 
L 152.911796 103.066862 
L 153.046285 116.801566 
L 153.180773 115.344693 
L 153.449749 148.807745 
L 153.718726 188.554982 
L 153.987702 243.520714 
L 154.12219 260.072162 
L 154.256678 261.410684 
L 154.525655 265.159845 
L 154.794631 266.813969 
L 155.063608 269.672484 
L 155.198096 271.266272 
L 155.332584 270.641566 
L 155.467072 266.388835 
L 155.601561 256.219501 
L 155.736049 255.383621 
L 155.870537 252.60215 
L 156.005025 254.678623 
L 156.274002 252.836995 
L 156.40849 253.357738 
L 156.542978 254.57466 
L 156.677466 253.412968 
L 157.215419 261.187906 
L 157.349907 263.135354 
L 157.484396 262.172305 
L 157.618884 262.920002 
L 157.88786 266.003151 
L 158.022348 266.470056 
L 158.291325 269.381481 
L 158.560301 273.537675 
L 158.694789 272.017218 
L 158.829278 272.953348 
L 158.963766 272.568593 
L 159.232742 269.933783 
L 159.367231 270.207614 
L 159.501719 268.28198 
L 160.039672 254.610397 
L 160.308648 254.86195 
L 160.443136 260.413754 
L 160.577624 260.138531 
L 160.712113 258.24028 
L 160.846601 258.921608 
L 160.981089 260.370127 
L 161.250066 264.017182 
L 161.519042 264.94078 
L 161.788018 248.666877 
L 162.460459 83.020127 
L 162.594948 82.693387 
L 162.729436 81.276892 
L 162.998412 100.295138 
L 163.132901 108.978823 
L 163.401877 149.038877 
L 163.670853 217.701254 
L 164.074318 250.794403 
L 164.208806 251.894367 
L 164.477783 264.179624 
L 164.612271 266.471912 
L 164.746759 261.907292 
L 165.015735 244.910289 
L 165.4192 118.954154 
L 165.553688 121.477111 
L 165.822665 107.991176 
L 165.957153 113.092783 
L 166.091641 110.09828 
L 166.360618 98.979822 
L 166.495106 104.992032 
L 166.89857 216.828244 
L 167.033059 223.595578 
L 167.302035 241.446098 
L 167.974476 259.36902 
L 168.108964 253.861772 
L 168.243453 240.260735 
L 168.377941 203.301003 
L 168.646917 104.823092 
L 168.781405 106.068326 
L 168.915894 101.675431 
L 169.050382 102.937373 
L 169.18487 106.621558 
L 169.319358 91.743727 
L 169.453847 94.149261 
L 169.857311 145.958512 
L 170.126288 221.861162 
L 170.395264 251.772304 
L 170.529752 252.626284 
L 170.66424 255.962379 
L 170.798729 256.146171 
L 171.067705 258.405043 
L 171.202193 261.156346 
L 171.47117 240.008254 
L 172.009123 108.766256 
L 172.143611 107.236052 
L 172.412587 95.823806 
L 172.95054 127.37097 
L 173.622981 253.684014 
L 173.757469 257.556167 
L 173.891958 270.543637 
L 174.026446 269.641852 
L 174.160934 269.599153 
L 174.42991 271.085265 
L 174.698887 256.728177 
L 174.833375 240.106647 
L 175.102351 173.595002 
L 175.371328 141.19989 
L 175.505816 138.385002 
L 175.640304 148.253586 
L 175.774792 147.952372 
L 175.909281 149.320134 
L 176.043769 153.986396 
L 176.178257 153.687503 
L 176.312745 167.738272 
L 176.581722 233.423783 
L 176.850698 259.758416 
L 176.985186 257.337102 
L 177.254163 261.933747 
L 177.388651 261.891512 
L 177.792116 268.259238 
L 177.926604 269.123894 
L 178.19558 258.719716 
L 178.330069 258.292261 
L 178.599045 250.945242 
L 178.733533 250.396188 
L 178.868021 252.637423 
L 179.136998 249.228926 
L 179.271486 249.807684 
L 179.540462 247.393795 
L 179.809439 254.683264 
L 179.943927 261.743922 
L 180.212904 259.897188 
L 180.48188 269.480338 
L 180.616368 269.493798 
L 180.750856 269.855347 
L 180.885345 270.662916 
L 181.019833 270.746922 
L 181.692274 258.790262 
L 181.826762 260.048956 
L 181.96125 254.236781 
L 182.095738 255.967948 
L 182.364715 261.250562 
L 182.499203 262.492083 
L 182.633691 265.549706 
L 182.902668 264.755132 
L 183.171644 270.71072 
L 183.306132 272.086372 
L 183.440621 271.008221 
L 183.575109 268.772091 
L 183.844085 280.16995 
L 183.978573 281.094013 
L 184.113062 278.880161 
L 184.382038 267.819253 
L 184.919991 178.708676 
L 185.054479 182.609605 
L 185.188967 175.738772 
L 185.457944 179.488862 
L 185.592432 180.945271 
L 185.995897 217.622818 
L 186.264873 247.346919 
L 186.53385 262.654061 
L 186.802826 272.615469 
L 187.071802 282.813113 
L 187.206291 281.695513 
L 187.340779 282.797333 
L 187.475267 279.710471 
L 187.609755 271.940174 
L 188.01322 198.195683 
L 188.147708 182.263836 
L 188.282196 182.476402 
L 188.416684 181.545378 
L 188.551173 184.763122 
L 188.685661 190.98233 
L 188.820149 186.696182 
L 188.954637 191.005072 
L 189.089126 199.139239 
L 189.627078 259.375053 
L 189.761567 261.89012 
L 189.896055 266.976875 
L 190.030543 264.610327 
L 190.299519 266.389763 
L 190.434008 265.251741 
L 190.971961 268.579017 
L 191.106449 265.224822 
L 191.240937 264.753276 
L 191.375425 265.179338 
L 191.509913 260.876482 
L 191.644402 262.381623 
L 191.913378 261.151705 
L 192.182354 255.675553 
L 192.316843 256.01436 
L 192.451331 255.530283 
L 192.585819 256.813575 
L 192.720307 262.419681 
L 192.989284 263.641709 
L 193.392748 261.030569 
L 193.661725 263.83107 
L 193.796213 264.35042 
L 194.065189 256.68687 
L 194.603142 155.877685 
L 194.73763 151.105139 
L 194.872119 141.435199 
L 195.006607 142.966331 
L 195.141095 147.575971 
L 195.275583 140.386752 
L 195.54456 153.401141 
L 195.948024 244.766412 
L 196.217001 254.810433 
L 196.351489 256.682693 
L 196.485977 265.888049 
L 196.620465 265.254061 
L 196.889442 265.795225 
L 197.02393 266.891941 
L 197.158418 265.210898 
L 197.292907 259.067806 
L 197.830859 192.291148 
L 197.965348 194.537489 
L 198.099836 191.313247 
L 198.234324 195.592898 
L 198.5033 182.643486 
L 198.772277 196.054233 
L 199.31023 266.545243 
L 199.713694 275.400653 
L 199.848183 274.264951 
L 200.117159 274.97227 
L 200.251647 273.239246 
L 200.386135 267.623394 
L 200.520624 267.231677 
L 200.655112 254.639173 
L 200.7896 208.748379 
L 200.924088 206.833884 
L 201.058576 195.479653 
L 201.193065 195.131563 
L 201.327553 192.52228 
L 201.462041 194.633562 
L 201.731018 183.166549 
L 201.865506 184.489291 
L 202.134482 206.544273 
L 202.403459 258.508541 
L 202.806923 268.030891 
L 203.0759 259.798331 
L 203.210388 264.003258 
L 203.344876 264.125786 
L 203.748341 255.013718 
L 203.882829 238.116965 
L 204.151805 177.903892 
L 204.420782 161.896393 
L 204.55527 156.426275 
L 204.689758 159.766083 
L 204.824246 153.449873 
L 204.958735 169.021564 
L 205.093223 169.26105 
L 205.765664 254.449348 
L 205.900152 254.945956 
L 206.03464 258.638959 
L 206.169129 273.069378 
L 206.303617 273.536747 
L 206.572593 277.364345 
L 206.84157 278.152885 
L 207.110546 269.029214 
L 207.379522 260.105114 
L 207.514011 259.252062 
L 207.917475 267.141173 
L 208.051964 266.901687 
L 208.32094 260.720073 
L 208.589916 262.276732 
L 208.858893 270.101331 
L 208.993381 273.651849 
L 209.127869 274.219003 
L 209.262357 273.690371 
L 209.396846 268.000724 
L 209.531334 269.067271 
L 209.80031 268.663951 
L 209.934799 269.627 
L 210.203775 257.789155 
L 211.010704 107.035553 
L 211.279681 131.935591 
L 211.683145 164.103748 
L 212.221098 249.273946 
L 212.355586 251.668341 
L 212.759051 266.479802 
L 212.893539 266.278374 
L 213.028027 266.375839 
L 213.162516 268.950313 
L 213.431492 251.744921 
L 213.56598 214.736456 
L 213.834957 133.178504 
L 213.969445 137.634984 
L 214.103933 136.57447 
L 214.238421 139.452478 
L 214.910862 176.696252 
L 215.448815 254.734782 
L 215.583303 259.56163 
L 215.717792 260.162201 
L 216.121256 264.3054 
L 216.255745 265.235961 
L 216.390233 267.55981 
L 216.524721 263.663522 
L 216.659209 256.355025 
L 217.062674 146.433771 
L 217.197162 148.292572 
L 217.33165 148.371008 
L 217.466138 159.516386 
L 217.600627 158.268367 
L 217.735115 146.743803 
L 217.869603 151.828702 
L 218.273068 192.844379 
L 218.542044 250.026284 
L 218.811021 266.356811 
L 218.945509 259.144386 
L 219.483462 269.5662 
L 219.61795 271.31454 
L 219.886926 257.946492 
L 220.290391 159.185933 
L 220.693856 147.849801 
L 220.828344 158.217314 
L 220.962832 154.405496 
L 221.231808 180.804642 
L 221.500785 194.285008 
L 221.769761 249.893546 
L 222.038738 265.092084 
L 222.173226 264.360166 
L 222.307714 265.551098 
L 222.576691 271.433819 
L 222.845667 273.999475 
L 222.980155 272.373662 
L 223.114643 274.194869 
L 223.38362 254.213575 
L 223.518108 257.97109 
L 223.652596 257.818859 
L 223.921573 251.050133 
L 224.190549 250.396188 
L 224.325037 252.816574 
L 224.459525 252.205328 
L 224.728502 248.452453 
L 225.131967 255.521929 
L 225.266455 254.076659 
L 225.535431 255.50847 
L 225.669919 254.231675 
L 226.073384 263.731748 
L 226.34236 266.679838 
L 226.476849 266.609756 
L 226.745825 263.548885 
L 226.880313 265.770627 
L 227.014802 266.007328 
L 227.14929 265.718181 
L 227.283778 264.336496 
L 227.418266 265.968806 
L 227.552754 266.094119 
L 227.687243 265.929356 
L 227.956219 264.849813 
L 228.090707 270.512077 
L 228.225195 270.550135 
L 228.359684 271.622716 
L 228.494172 270.870378 
L 228.62866 271.81579 
L 228.763148 271.704401 
L 228.897637 269.476625 
L 229.301101 270.356597 
L 229.435589 264.306793 
L 229.570078 250.594831 
L 230.242519 93.417343 
L 230.377007 78.971608 
L 230.511495 108.161044 
L 230.780471 115.902565 
L 231.049448 142.64748 
L 231.587401 248.493296 
L 231.856377 259.420537 
L 232.125354 264.108149 
L 232.39433 268.642137 
L 232.528818 267.849885 
L 232.797795 251.196795 
L 232.932283 215.882368 
L 233.201259 131.022203 
L 233.335748 123.06208 
L 233.470236 133.087072 
L 233.604724 133.303352 
L 233.739212 145.758013 
L 233.8737 131.409743 
L 234.008189 137.955227 
L 234.815118 258.854311 
L 234.949606 258.594868 
L 235.218583 264.342994 
L 235.622047 271.87659 
L 235.756535 271.294583 
L 236.025512 258.972197 
L 236.563465 126.976468 
L 236.832441 115.087106 
L 237.63937 196.571727 
L 237.908347 253.11129 
L 238.177323 260.986478 
L 238.849764 275.510649 
L 238.984252 274.707722 
L 239.118741 271.009614 
L 239.253229 257.476338 
L 239.791182 126.226915 
L 240.194646 143.493571 
L 240.463623 162.114994 
L 240.732599 175.216173 
L 241.270552 250.646348 
L 241.674017 256.366628 
L 241.942993 268.96795 
L 242.077481 275.295762 
L 242.21197 274.686372 
L 242.480946 257.193225 
L 242.884411 148.405817 
L 243.018899 156.069831 
L 243.153387 153.882433 
L 243.287875 143.194214 
L 243.422363 150.964047 
L 243.556852 148.226667 
L 243.825828 164.42724 
L 244.229293 234.513537 
L 244.498269 256.307684 
L 244.767246 261.441316 
L 245.17071 269.090942 
L 245.305198 269.932855 
L 245.439687 269.645101 
L 245.574175 268.449064 
L 245.708663 257.297188 
L 245.843151 262.600687 
L 246.112128 259.698081 
L 246.381104 254.656809 
L 246.515592 254.624321 
L 247.188033 264.594083 
L 247.322522 264.988585 
L 247.45701 265.832355 
L 247.591498 265.487514 
L 247.725986 268.566022 
L 247.860475 267.1667 
L 248.129451 268.454633 
L 248.263939 267.595083 
L 248.398427 268.259238 
L 248.532916 268.110256 
L 248.667404 270.002937 
L 248.801892 269.906864 
L 249.205357 271.404116 
L 249.339845 271.517361 
L 249.608821 270.59469 
L 249.743309 270.722787 
L 250.012286 269.873912 
L 250.146774 268.885336 
L 250.281262 268.951706 
L 250.415751 268.404508 
L 250.550239 267.350956 
L 250.819215 267.642887 
L 250.953703 268.400331 
L 251.088192 267.295261 
L 251.357168 268.518682 
L 251.491656 277.173591 
L 251.626144 276.697404 
L 251.760633 277.11604 
L 251.895121 276.96056 
L 252.164097 265.052169 
L 252.70205 141.13909 
L 252.836538 160.331845 
L 252.971027 156.982291 
L 253.240003 169.536273 
L 253.374491 170.852053 
L 253.508979 168.006997 
L 253.777956 199.92453 
L 254.046932 249.869876 
L 254.315909 270.610006 
L 254.719373 278.735355 
L 254.853862 278.501903 
L 255.122838 280.187587 
L 255.391814 259.993725 
L 255.660791 169.332524 
L 255.795279 172.684863 
L 256.198744 157.443626 
L 256.333232 161.015958 
L 256.46772 158.424776 
L 256.602208 159.58786 
L 257.409138 252.049847 
L 257.812602 259.315646 
L 258.081579 274.103438 
L 258.216067 275.137961 
L 258.350555 274.428786 
L 258.619532 260.648599 
L 258.888508 174.004356 
L 259.022996 174.849518 
L 259.157484 166.04609 
L 259.291973 165.486362 
L 259.426461 150.428452 
L 259.695437 163.751017 
L 259.829925 152.926346 
L 259.964414 161.749267 
L 260.771343 255.035531 
L 261.040319 257.212254 
L 261.309296 264.504508 
L 261.443784 267.629892 
L 261.71276 264.795975 
L 261.847249 252.746491 
L 262.116225 167.018886 
L 262.250713 171.071118 
L 262.654178 145.370472 
L 262.788666 152.469652 
L 262.923154 147.831237 
L 263.326619 182.010426 
L 263.461107 192.607678 
L 263.864572 240.037029 
L 264.268036 257.582158 
L 264.402525 256.845599 
L 264.671501 260.180766 
L 264.805989 260.058238 
L 264.940478 259.133711 
L 265.074966 251.774624 
L 265.209454 233.186154 
L 265.612919 122.04705 
L 265.881895 104.435088 
L 266.016383 113.674325 
L 266.150871 113.547156 
L 266.28536 113.111347 
L 266.419848 117.614704 
L 266.688824 153.859227 
L 266.957801 230.493794 
L 267.226777 246.699008 
L 267.361265 245.31593 
L 267.495754 261.231997 
L 267.630242 260.92475 
L 267.76473 262.742244 
L 267.899218 263.04485 
L 268.168195 269.385658 
L 268.302683 270.246136 
L 268.437171 267.755204 
L 268.706147 270.221538 
L 268.975124 266.823251 
L 269.2441 264.990441 
L 269.916541 250.896973 
L 270.320006 252.734424 
L 270.588982 257.486549 
L 270.723471 271.195726 
L 270.857959 272.207043 
L 270.992447 270.769664 
L 271.126935 271.62875 
L 271.261424 271.657525 
L 271.395912 271.476518 
L 271.799376 274.177697 
L 271.933865 272.830356 
L 272.068353 273.175662 
L 272.202841 272.548636 
L 272.337329 272.778375 
L 272.471817 271.958275 
L 272.606306 269.852098 
L 272.740794 271.099653 
L 272.875282 270.785908 
L 273.00977 270.127321 
L 273.144258 267.856846 
L 273.278747 267.759845 
L 273.547723 270.656882 
L 273.682211 270.865272 
L 273.8167 271.530356 
L 273.951188 270.692156 
L 274.085676 281.052706 
L 274.354652 282.640925 
L 274.489141 281.11165 
L 274.758117 266.789835 
L 275.29607 163.150446 
L 275.565046 151.241126 
L 275.699535 151.569259 
L 275.834023 169.042913 
L 275.968511 171.263727 
L 276.102999 181.148555 
L 276.77544 258.345635 
L 277.447881 275.281838 
L 277.58237 278.587765 
L 277.716858 278.207187 
L 277.851346 273.926144 
L 277.985834 264.208863 
L 278.389299 205.314355 
L 278.523787 186.348092 
L 278.658275 184.402965 
L 278.792763 175.140986 
L 278.927252 186.948199 
L 279.06174 181.282686 
L 279.196228 183.317852 
L 279.330716 190.808749 
L 280.137646 268.442566 
L 280.272134 270.765486 
L 280.406622 262.631319 
L 280.54111 262.354704 
L 280.810087 263.494583 
L 280.944575 262.887978 
L 281.213551 255.179409 
L 281.348039 226.998506 
L 281.482528 158.40389 
L 281.617016 148.466153 
L 281.751504 125.687607 
L 281.885992 126.808921 
L 282.154969 139.96069 
L 282.289457 122.32413 
L 282.423945 126.303959 
L 282.558433 135.172828 
L 282.82741 182.335774 
L 283.096386 249.077159 
L 283.365363 255.531676 
L 283.499851 257.680551 
L 283.634339 257.02707 
L 283.768827 257.037281 
L 283.903316 257.221537 
L 284.037804 258.491833 
L 284.172292 258.61761 
L 284.441268 253.561486 
L 285.113709 141.332628 
L 285.248198 140.28511 
L 285.382686 135.868079 
L 285.517174 144.86551 
L 285.651662 141.846409 
L 285.78615 145.243304 
L 286.055127 196.96855 
L 286.324103 245.233781 
L 286.59308 254.655881 
L 286.727568 254.537531 
L 286.862056 272.974698 
L 286.996544 273.032249 
L 287.131033 272.080338 
L 287.265521 272.669771 
L 287.668985 269.236675 
L 287.803474 270.090656 
L 288.07245 269.238996 
L 288.206938 267.125393 
L 288.341427 267.071555 
L 288.475915 264.787621 
L 288.610403 264.426535 
L 288.744891 263.332605 
L 288.879379 266.0853 
L 289.013868 266.415754 
L 289.148356 263.680231 
L 289.417332 270.643887 
L 289.55182 271.799082 
L 289.820797 271.447279 
L 289.955285 272.216326 
L 290.089773 270.757132 
L 290.224262 272.262738 
L 290.35875 271.379981 
L 290.493238 272.333748 
L 290.627726 270.833248 
L 291.031191 253.336388 
L 291.300167 188.922565 
L 291.434655 183.48772 
L 291.569144 184.079009 
L 291.703632 188.033311 
L 291.972608 175.629704 
L 292.376073 188.359124 
L 293.048514 262.706971 
L 293.183002 263.920181 
L 293.31749 262.799331 
L 293.451979 263.530784 
L 293.586467 262.626214 
L 293.720955 265.034997 
L 293.855443 265.291191 
L 294.258908 242.011396 
L 294.527884 185.577188 
L 294.796861 154.744304 
L 294.931349 139.300711 
L 295.065837 139.170293 
L 295.200325 146.928523 
L 295.334814 141.361868 
L 295.60379 168.666976 
L 295.738278 182.768798 
L 296.141743 251.089119 
L 296.276231 250.223071 
L 296.410719 257.228498 
L 296.545208 274.432034 
L 296.948672 276.537283 
L 297.486625 278.449457 
L 297.621113 278.113434 
L 297.755601 278.109721 
L 298.024578 275.023323 
L 298.159066 274.877126 
L 298.428042 272.794155 
L 298.697019 269.073769 
L 298.831507 267.969628 
L 298.965995 267.83132 
L 299.100484 268.177089 
L 299.36946 271.857097 
L 299.503948 271.364665 
L 299.638436 272.865165 
L 299.772925 263.473697 
L 299.907413 266.78148 
L 300.041901 266.488157 
L 300.176389 267.330534 
L 300.310877 267.054847 
L 300.579854 256.388905 
L 301.252295 126.010171 
L 301.386783 126.077004 
L 301.521271 138.90296 
L 301.65576 132.153727 
L 301.790248 141.307102 
L 302.597177 247.087012 
L 302.731665 248.791261 
L 303.000642 260.854668 
L 303.13513 261.072804 
L 303.269618 261.539709 
L 303.404106 263.930855 
L 303.538595 264.338353 
L 303.807571 248.433888 
L 304.345524 161.14916 
L 304.6145 150.918563 
L 304.748988 158.927418 
L 304.883477 149.619955 
L 305.017965 155.531452 
L 306.093871 259.349063 
L 306.228359 260.331605 
L 306.497335 270.20483 
L 306.766312 271.205936 
L 306.9008 266.628321 
L 307.035288 256.381943 
L 307.304265 166.474937 
L 307.438753 173.534667 
L 307.842217 154.808353 
L 307.976706 161.663405 
L 308.111194 153.478649 
L 308.245682 158.303176 
L 308.649147 203.026244 
L 309.052611 257.824428 
L 309.590564 269.715183 
L 309.994029 271.371163 
L 310.128517 267.916718 
L 310.263005 255.651419 
L 310.531982 166.366797 
L 310.66647 167.486255 
L 310.935446 165.260799 
L 311.069934 156.169617 
L 311.204423 162.445447 
L 311.338911 161.190467 
L 311.473399 154.605068 
L 311.607887 167.376258 
L 311.876864 203.908072 
L 312.14584 245.058344 
L 312.414817 256.535567 
L 312.818281 264.9069 
L 312.952769 264.485015 
L 313.087258 266.318289 
L 313.221746 266.222216 
L 313.356234 267.755204 
L 313.625211 257.492583 
L 313.759699 249.820679 
L 313.894187 253.080194 
L 314.028675 250.62175 
L 314.163163 252.452704 
L 314.297652 249.769162 
L 314.566628 256.149883 
L 314.701116 256.864164 
L 314.970093 261.485407 
L 315.104581 261.448742 
L 315.239069 261.160523 
L 315.508045 264.011612 
L 315.642534 264.533747 
L 315.777022 264.212576 
L 316.180487 267.11936 
L 316.314975 266.691905 
L 316.718439 268.980945 
L 316.852928 269.223216 
L 316.987416 268.393369 
L 317.121904 268.456954 
L 317.256392 267.368128 
L 317.39088 267.508756 
L 317.525369 266.012434 
L 317.659857 266.906329 
L 317.928833 264.456703 
L 318.332298 260.823572 
L 318.466786 261.45988 
L 318.601274 260.971162 
L 318.735763 262.387192 
L 318.870251 262.227999 
L 319.139227 263.313576 
L 319.273715 272.877697 
L 319.67718 273.96513 
L 319.811668 271.457489 
L 319.946157 263.72293 
L 320.349621 145.098962 
L 320.484109 129.393605 
L 320.887574 155.919456 
L 321.022062 160.457157 
L 321.291039 174.831882 
L 321.425527 176.582543 
L 321.560015 194.514283 
L 321.828991 248.510468 
L 321.96348 256.374982 
L 322.097968 257.139851 
L 322.635921 273.37941 
L 322.770409 273.716826 
L 322.904897 273.075876 
L 323.173874 262.931605 
L 323.44285 170.097858 
L 323.577338 170.449661 
L 323.711826 170.64552 
L 323.980803 151.024846 
L 324.249779 154.466296 
L 324.384268 157.156336 
L 324.787732 192.400216 
L 325.056709 245.419893 
L 325.325685 254.435888 
L 325.863638 271.766593 
L 325.998126 273.48523 
L 326.132614 273.548814 
L 326.267103 270.424358 
L 326.401591 261.673376 
L 326.670567 163.105426 
L 326.805055 168.896715 
L 326.939544 170.036594 
L 327.20852 157.174901 
L 327.343008 165.093716 
L 327.611985 161.443412 
L 327.746473 166.169082 
L 328.149937 219.356306 
L 328.418914 249.350525 
L 328.68789 261.80797 
L 328.822379 264.193547 
L 328.956867 273.962809 
L 329.225843 274.883623 
L 329.360331 274.05981 
L 329.629308 261.58148 
L 330.032772 175.022171 
L 330.301749 163.996072 
L 330.570725 155.430738 
L 330.839702 176.6814 
L 330.97419 177.860265 
L 331.108678 180.529883 
L 331.781119 254.319858 
L 332.050096 261.285371 
L 332.184584 271.762416 
L 332.319072 272.692049 
L 332.45356 272.045529 
L 332.588049 273.005794 
L 332.857025 260.746064 
L 333.26049 174.40814 
L 333.394978 176.265084 
L 333.663954 161.765976 
L 333.798442 162.925347 
L 333.932931 166.588182 
L 334.336395 183.958802 
L 334.73986 249.822071 
L 335.143325 265.115754 
L 335.277813 264.92268 
L 335.412301 265.01736 
L 335.546789 265.294904 
L 335.681277 265.192798 
L 335.950254 267.703223 
L 336.084742 265.666664 
L 336.622695 249.659165 
L 336.757183 250.431925 
L 336.891671 248.653417 
L 337.295136 254.835032 
L 337.698601 259.436317 
L 337.833089 258.970341 
L 338.102065 262.956203 
L 338.236553 262.730641 
L 338.371042 263.350241 
L 338.50553 261.079766 
L 339.043483 264.150848 
L 339.446947 267.063665 
L 339.581436 266.595368 
L 339.715924 265.458738 
L 339.850412 265.710756 
L 339.9849 264.952383 
L 340.119388 264.842851 
L 340.253877 264.382444 
L 340.388365 265.818431 
L 340.522853 263.884907 
L 340.657341 264.466914 
L 340.926318 264.157346 
L 341.060806 260.911755 
L 341.329782 265.657846 
L 341.464271 265.558988 
L 341.598759 266.072769 
L 341.733247 267.595547 
L 341.867735 275.199689 
L 342.136712 275.298547 
L 342.2712 275.922324 
L 342.540176 263.580445 
L 342.943641 151.614279 
L 343.212617 167.76055 
L 343.347106 167.046733 
L 343.75057 181.030669 
L 343.885058 182.658802 
L 344.019547 182.014603 
L 344.423011 248.00829 
L 345.22994 272.985837 
L 345.364429 274.039389 
L 345.498917 273.682017 
L 345.633405 269.582909 
L 345.767893 261.723965 
L 346.03687 179.820244 
L 346.171358 183.823279 
L 346.440334 170.636701 
L 346.574823 165.415351 
L 346.843799 172.101928 
L 347.112775 173.918494 
L 347.381752 207.436312 
L 347.650728 245.261628 
L 348.054193 262.721823 
L 348.188681 263.870984 
L 348.323169 272.589478 
L 348.457658 273.413755 
L 348.592146 275.232177 
L 348.726634 275.042352 
L 348.99561 262.49626 
L 349.264587 178.79918 
L 349.399075 180.231918 
L 349.668052 163.164833 
L 349.80254 159.167832 
L 350.206004 177.340915 
L 350.340493 178.487755 
L 351.012934 256.425571 
L 351.147422 258.681194 
L 351.550886 274.878054 
L 351.685375 274.186051 
L 351.954351 274.542495 
L 352.088839 273.18448 
L 352.223328 266.100152 
L 352.492304 174.836523 
L 352.626792 181.799716 
L 352.76128 170.750411 
L 352.895769 170.061657 
L 353.030257 162.0166 
L 353.164745 169.024348 
L 353.299233 167.00589 
L 353.56821 149.731808 
L 354.240651 262.859202 
L 354.375139 263.964736 
L 354.644115 269.661809 
L 354.913092 273.815219 
L 355.182068 274.827929 
L 355.316556 272.493405 
L 355.451045 263.623144 
L 355.854509 192.391398 
L 356.123486 155.140198 
L 356.257974 156.805461 
L 356.392462 165.172152 
L 356.52695 164.556729 
L 356.661439 174.862978 
L 356.795927 173.646984 
L 357.33388 258.670983 
L 357.602856 267.996547 
L 357.737344 269.905472 
L 357.871832 274.040317 
L 358.006321 273.478268 
L 358.140809 273.686658 
L 358.275297 274.40558 
L 358.409785 274.320182 
L 358.678762 273.096297 
L 359.082226 255.151097 
L 359.351203 249.412718 
L 359.485691 243.318822 
L 359.620179 253.748527 
L 359.754667 255.122786 
L 359.889156 255.286156 
L 360.427109 269.17077 
L 360.561597 269.831213 
L 360.965061 273.861167 
L 361.234038 273.822645 
L 361.368526 273.636533 
L 361.503014 274.904973 
L 361.771991 274.509078 
L 361.906479 275.802117 
L 362.040967 275.755705 
L 362.175455 276.120503 
L 362.309944 276.159953 
L 362.57892 272.843816 
L 362.713408 272.796011 
L 362.982385 271.693262 
L 363.116873 270.242887 
L 363.251361 270.14403 
L 363.385849 271.20408 
L 363.520337 270.374233 
L 363.654826 270.316218 
L 364.05829 273.023894 
L 364.192778 247.748847 
L 364.730731 253.830212 
L 364.86522 252.668519 
L 364.999708 240.926283 
L 365.134196 219.39622 
L 365.403172 133.544695 
L 365.672149 104.098601 
L 365.806637 98.343049 
L 366.075613 114.81374 
L 366.34459 111.757509 
L 366.479078 122.869471 
L 367.017031 245.721571 
L 367.151519 250.542386 
L 367.286007 248.855774 
L 367.554984 259.898581 
L 367.689472 260.740959 
L 367.958448 265.503758 
L 368.227425 242.600828 
L 368.496401 149.326631 
L 368.765378 98.894888 
L 369.034354 88.297636 
L 369.168842 92.887783 
L 369.303331 92.455687 
L 369.437819 95.730518 
L 369.572307 93.667504 
L 369.706795 109.327377 
L 370.244748 229.714536 
L 370.782701 272.700403 
L 370.917189 272.996975 
L 371.051677 273.863952 
L 371.186166 273.592906 
L 371.455142 259.182908 
L 371.858607 168.495252 
L 372.127583 199.595933 
L 372.262071 195.647664 
L 372.396559 197.034919 
L 372.665536 186.642808 
L 372.800024 190.332562 
L 373.203489 228.941777 
L 373.472465 250.583692 
L 373.87593 271.191085 
L 374.010418 279.960632 
L 374.144906 279.818611 
L 374.279394 280.991907 
L 374.413883 280.502724 
L 374.682859 264.399152 
L 375.220812 177.466227 
L 375.489788 173.937059 
L 375.624277 174.153803 
L 375.893253 180.508998 
L 376.027741 184.686542 
L 376.565694 250.405934 
L 376.83467 259.051098 
L 376.969159 261.809363 
L 377.103647 273.295869 
L 377.238135 272.233034 
L 377.507112 274.248707 
L 377.6416 272.336997 
L 377.776088 275.778911 
L 378.045064 273.690835 
L 378.179553 264.315147 
L 378.314041 263.706685 
L 378.448529 256.801508 
L 378.583017 257.774768 
L 378.717505 256.882729 
L 378.851994 261.270055 
L 378.986482 260.530712 
L 379.12097 261.413933 
L 379.255458 263.514076 
L 379.389947 263.40083 
L 379.927899 272.401045 
L 380.062388 272.200081 
L 380.196876 272.605258 
L 380.331364 262.967806 
L 380.60034 264.842387 
L 380.869317 266.451955 
L 381.138293 255.854239 
L 381.272782 229.500577 
L 381.541758 156.946554 
L 381.810734 137.334699 
L 381.945223 138.882539 
L 382.214199 145.19225 
L 382.348687 137.420561 
L 382.752152 185.916924 
L 383.021128 252.063771 
L 383.155616 259.775589 
L 383.290105 260.419787 
L 383.424593 261.671983 
L 383.559081 256.877624 
L 383.693569 256.185157 
L 383.962546 256.522108 
L 384.097034 257.680087 
L 384.231522 255.944742 
L 384.36601 257.299045 
L 385.038451 146.225846 
L 385.17294 148.602604 
L 385.307428 163.325883 
L 385.576404 157.835343 
L 386.248845 254.832247 
L 386.921286 272.829892 
L 387.055775 272.037175 
L 387.190263 273.280089 
L 387.324751 272.608043 
L 387.459239 272.764915 
L 387.593727 274.213898 
L 387.728216 273.655098 
L 387.862704 274.936533 
L 387.997192 273.798975 
L 388.13168 275.346351 
L 388.266169 274.388871 
L 388.400657 272.457204 
L 388.535145 272.543994 
L 388.669633 271.899332 
L 388.804121 273.00765 
L 388.93861 270.525536 
L 389.207586 272.608043 
L 389.476562 279.117326 
L 389.611051 278.087444 
L 389.745539 278.882017 
L 389.880027 278.831428 
L 390.014515 264.328142 
L 390.283492 264.570413 
L 390.41798 264.580159 
L 390.552468 264.45299 
L 390.686956 259.101223 
L 390.821445 259.281301 
L 390.955933 250.664913 
L 391.224909 196.000859 
L 391.359397 165.458514 
L 391.493886 161.574758 
L 391.762862 171.984042 
L 391.89735 171.454945 
L 392.031839 164.423527 
L 392.166327 168.024634 
L 392.300815 176.76587 
L 392.569791 235.324819 
L 392.70428 260.914539 
L 392.973256 265.628606 
L 393.107744 266.268628 
L 393.376721 259.399652 
L 393.645697 264.965843 
L 393.780185 261.665021 
L 393.914673 263.012826 
L 394.049162 255.796688 
L 394.721603 144.229665 
L 394.990579 143.186324 
L 395.125067 142.777434 
L 395.259556 153.860155 
L 395.394044 154.707174 
L 395.931997 240.512752 
L 396.200973 253.761986 
L 396.335461 250.124213 
L 396.46995 274.240353 
L 396.604438 274.613505 
L 397.007902 277.568093 
L 397.276879 264.857239 
L 397.545855 193.101038 
L 397.680343 188.050948 
L 397.94932 165.292824 
L 398.083808 152.182826 
L 398.218296 164.588753 
L 398.352785 159.948482 
L 398.487273 162.881256 
L 398.487273 162.881256 
" clip-path="url(#p81cd4a01af)" style="fill: none; stroke: #1f77b4; stroke-width: 1.5; stroke-linecap: square"/>
   </g>
   <g id="line2d_14">
    <path d="M 73.832727 272.30589 
L 74.101704 272.535045 
L 74.37068 272.306643 
L 74.505168 270.757652 
L 74.639657 272.412176 
L 74.774145 272.230445 
L 74.908633 272.766758 
L 75.043121 263.493813 
L 75.177609 220.453198 
L 75.312098 224.298454 
L 75.581074 247.673071 
L 75.715562 248.121262 
L 75.85005 248.968771 
L 76.253515 245.817069 
L 76.522492 241.121254 
L 76.791468 281.630968 
L 77.329421 242.296085 
L 77.463909 245.727499 
L 77.598397 257.187534 
L 77.732885 256.395857 
L 77.867374 259.616096 
L 78.001862 247.503998 
L 78.13635 215.069818 
L 78.405327 130.291997 
L 78.539815 102.93815 
L 78.808791 110.332051 
L 79.077768 134.584796 
L 79.212256 124.20137 
L 79.481232 160.240314 
L 80.019185 255.310064 
L 80.153673 249.551594 
L 80.288161 266.748225 
L 80.42265 266.379154 
L 80.557138 249.262678 
L 80.691626 265.360809 
L 81.095091 253.169902 
L 81.364067 219.885252 
L 81.633044 122.405124 
L 82.036508 198.088191 
L 82.170996 195.22082 
L 82.305485 199.946873 
L 82.439973 199.957973 
L 82.574461 188.533065 
L 82.708949 209.184384 
L 82.977926 196.161616 
L 83.112414 202.834931 
L 83.246902 195.300248 
L 83.38139 195.125197 
L 83.650367 230.289553 
L 83.784855 231.673439 
L 84.053831 268.041917 
L 84.18832 264.078147 
L 84.322808 195.112695 
L 84.457296 217.471854 
L 84.591784 195.112695 
L 84.860761 195.112695 
L 84.995249 196.083469 
L 85.129737 177.39675 
L 85.264225 198.540418 
L 85.398714 180.299536 
L 85.66769 202.937891 
L 85.802178 205.429888 
L 86.071155 221.574428 
L 86.340131 261.397749 
L 86.474619 261.261465 
L 86.743596 264.073213 
L 86.878084 265.399881 
L 87.14706 283.802023 
L 87.281549 283.205206 
L 87.416037 280.008756 
L 87.550525 280.449481 
L 87.685013 280.152099 
L 87.819501 278.481012 
L 88.088478 235.239485 
L 88.357454 246.374109 
L 88.626431 253.864623 
L 88.760919 248.92266 
L 88.895407 253.087486 
L 89.029895 245.050368 
L 89.164384 247.127588 
L 89.43336 254.210562 
L 89.567848 273.23951 
L 89.702336 272.838868 
L 89.836825 272.986302 
L 89.971313 269.477131 
L 90.105801 269.863263 
L 90.240289 247.765866 
L 90.374777 247.938557 
L 90.509266 257.387409 
L 90.643754 257.617902 
L 90.778242 259.495476 
L 90.91273 259.092017 
L 91.047218 262.011322 
L 91.316195 241.992322 
L 91.450683 242.645817 
L 91.585171 239.842249 
L 91.854148 250.060242 
L 92.257612 250.952046 
L 92.392101 252.845186 
L 92.526589 251.578816 
L 92.661077 253.980015 
L 92.930053 262.67865 
L 93.064542 264.665007 
L 93.333518 256.70999 
L 93.468006 274.471768 
L 93.602495 273.211348 
L 93.736983 263.20684 
L 93.871471 264.458851 
L 94.274936 246.062977 
L 94.543912 162.127853 
L 94.6784 169.249595 
L 94.947377 150.685808 
L 95.081865 151.718725 
L 95.350841 182.945851 
L 95.48533 173.424384 
L 95.619818 153.266728 
L 96.023282 251.627017 
L 96.292259 269.402596 
L 96.561235 262.939318 
L 96.695723 264.798598 
L 96.9647 258.921112 
L 97.099188 264.235417 
L 97.233676 261.822888 
L 97.502653 235.51998 
L 97.771629 155.220687 
L 97.906117 163.273828 
L 98.040606 167.772439 
L 98.175094 189.497575 
L 98.309582 186.612266 
L 98.44407 187.517235 
L 98.578558 180.581149 
L 98.713047 182.946266 
L 98.982023 202.080216 
L 99.385488 266.115243 
L 99.654464 271.218431 
L 99.788952 269.457392 
L 99.923441 282.665457 
L 100.057929 279.764367 
L 100.192417 265.784375 
L 100.595882 267.329705 
L 100.73037 264.715748 
L 100.864858 266.373961 
L 100.999346 271.022593 
L 101.133834 271.207594 
L 101.268323 273.477499 
L 101.402811 273.202041 
L 101.671787 255.163525 
L 101.806276 263.094106 
L 102.075252 239.428717 
L 102.344228 258.045442 
L 102.478717 256.270071 
L 102.613205 261.214065 
L 102.747693 273.778262 
L 102.882181 266.737663 
L 103.016669 273.650424 
L 103.285646 234.887738 
L 103.420134 262.492661 
L 103.554622 264.353564 
L 103.823599 248.785269 
L 103.958087 242.546526 
L 104.092575 210.587322 
L 104.227063 147.741194 
L 104.361552 146.351006 
L 104.49604 149.430174 
L 104.630528 173.017251 
L 104.899504 142.680271 
L 105.437457 198.405035 
L 105.706434 246.183126 
L 105.97541 264.816059 
L 106.109898 251.292537 
L 106.244387 261.423551 
L 106.378875 288.857852 
L 106.513363 284.845669 
L 106.782339 262.554051 
L 106.916828 264.291056 
L 107.051316 262.437035 
L 107.185804 262.667113 
L 107.45478 190.968587 
L 107.589269 209.476544 
L 107.723757 252.131115 
L 107.858245 250.390686 
L 107.992733 245.725187 
L 108.26171 244.510035 
L 108.530686 239.658197 
L 108.665174 235.076249 
L 108.799663 240.552929 
L 109.068639 286.632902 
L 109.203127 282.646356 
L 109.606592 260.112431 
L 110.010056 263.737427 
L 110.144545 262.819317 
L 110.279033 263.2669 
L 110.413521 265.168744 
L 110.548009 264.61397 
L 110.682498 265.672183 
L 110.816986 267.612277 
L 110.951474 266.518325 
L 111.085962 264.128642 
L 111.22045 263.722038 
L 111.489427 266.186836 
L 111.892891 258.416877 
L 112.02738 260.267034 
L 112.296356 266.966173 
L 112.699821 265.020327 
L 112.834309 249.423116 
L 113.103285 259.755521 
L 113.237774 259.035177 
L 113.372262 259.8964 
L 113.50675 259.837662 
L 113.775726 264.774578 
L 113.910215 265.319922 
L 114.179191 260.971118 
L 114.313679 259.734912 
L 114.448168 253.047011 
L 114.582656 253.348685 
L 114.717144 256.135356 
L 114.851632 254.789123 
L 115.255097 241.095139 
L 115.524073 257.215904 
L 115.658561 258.316066 
L 115.79305 253.073029 
L 115.927538 252.195943 
L 116.196514 252.350107 
L 116.331002 246.949126 
L 116.465491 259.04827 
L 116.868955 233.210212 
L 117.137932 125.630182 
L 117.406908 99.895179 
L 117.541396 83.491748 
L 117.675885 91.325283 
L 117.810373 114.913861 
L 117.944861 117.398758 
L 118.079349 115.853865 
L 118.348326 149.504279 
L 118.617302 241.74908 
L 119.020767 255.852658 
L 119.289743 246.98775 
L 119.424231 251.528347 
L 119.693208 248.022781 
L 119.827696 251.793885 
L 119.962184 250.828711 
L 120.096672 229.117607 
L 120.365649 113.631142 
L 120.634625 93.594988 
L 120.769114 83.710565 
L 120.903602 84.273129 
L 121.03809 95.512258 
L 121.172578 96.977137 
L 121.307066 99.816681 
L 121.576043 134.643015 
L 121.845019 238.885588 
L 122.248484 251.327512 
L 122.382972 240.376895 
L 122.51746 244.973071 
L 122.651948 260.613768 
L 122.786437 259.224971 
L 122.920925 248.634383 
L 123.055413 247.397344 
L 123.189901 243.707318 
L 123.32439 227.431206 
L 123.593366 111.261471 
L 123.862342 76.365929 
L 123.996831 74.972762 
L 124.131319 83.51933 
L 124.534783 137.09041 
L 124.669272 133.170531 
L 124.80376 145.553658 
L 125.072736 243.476428 
L 125.207225 253.070651 
L 125.341713 253.024936 
L 125.476201 259.123784 
L 125.745177 245.023694 
L 126.014154 268.909587 
L 126.28313 258.004881 
L 126.552107 225.654489 
L 126.821083 119.067457 
L 127.09006 102.647417 
L 127.224548 86.50105 
L 127.359036 95.15226 
L 127.493524 121.587528 
L 127.628012 126.154049 
L 127.762501 121.582446 
L 128.031477 155.178085 
L 128.434942 251.329858 
L 128.56943 247.576819 
L 128.703918 257.638778 
L 128.838406 247.038416 
L 129.107383 256.984685 
L 129.241871 253.260068 
L 129.376359 258.575578 
L 129.510847 258.398679 
L 129.779824 209.100239 
L 130.0488 118.162616 
L 130.183288 98.429464 
L 130.317777 102.289517 
L 130.452265 87.280707 
L 130.586753 100.554411 
L 130.855729 159.933398 
L 130.990218 150.212401 
L 131.124706 149.438192 
L 131.528171 250.63752 
L 131.662659 250.455466 
L 131.931635 261.535537 
L 132.200612 253.240117 
L 132.3351 252.287572 
L 132.604076 264.734149 
L 132.738564 263.555267 
L 133.007541 260.709771 
L 133.276517 246.907311 
L 133.545494 240.328814 
L 133.679982 240.540322 
L 133.81447 239.303753 
L 133.948958 240.259851 
L 134.083447 240.401999 
L 134.217935 235.123711 
L 135.024864 252.833082 
L 135.159352 250.391939 
L 135.29384 251.521313 
L 135.562817 256.703912 
L 135.831793 259.690948 
L 135.966282 261.179854 
L 136.10077 266.141131 
L 136.235258 265.967088 
L 136.369746 260.557939 
L 136.638723 262.826084 
L 136.773211 256.285835 
L 136.907699 256.392273 
L 137.042187 257.49072 
L 137.176675 256.890446 
L 137.445652 243.655237 
L 137.58014 244.52577 
L 137.714628 248.490731 
L 137.849117 246.210929 
L 137.983605 248.788772 
L 138.252581 255.440673 
L 138.387069 247.143197 
L 138.521558 248.599964 
L 138.656046 258.594253 
L 138.925022 249.408351 
L 139.193999 260.022168 
L 139.462975 218.797803 
L 139.731951 116.990586 
L 139.86644 99.466802 
L 140.000928 102.027982 
L 140.135416 84.762849 
L 141.076834 179.075512 
L 141.211322 245.025827 
L 141.34581 253.401134 
L 141.480298 243.697998 
L 141.749275 262.60946 
L 141.883763 253.966268 
L 142.018251 259.595029 
L 142.287228 255.570241 
L 142.421716 253.306737 
L 143.094157 92.937321 
L 143.228645 93.348344 
L 143.363133 90.346867 
L 143.497621 95.271868 
L 143.63211 115.141727 
L 143.766598 106.754693 
L 143.901086 112.242485 
L 144.439039 248.845007 
L 144.573527 245.352997 
L 144.708015 246.154694 
L 144.842504 267.474812 
L 144.976992 264.951999 
L 145.245968 252.491582 
L 145.514945 258.225071 
L 145.649433 247.343309 
L 145.783921 208.034791 
L 145.918409 205.528339 
L 146.321874 96.598657 
L 146.456362 91.576001 
L 146.59085 103.366488 
L 146.859827 153.525334 
L 146.994315 137.704126 
L 147.128803 144.370873 
L 147.263291 136.053705 
L 147.39778 157.729411 
L 147.666756 254.218502 
L 147.801244 247.569694 
L 147.935732 254.615836 
L 148.070221 267.660343 
L 148.339197 256.757484 
L 148.473685 259.091447 
L 148.742662 254.074378 
L 149.011638 250.780977 
L 149.146126 213.988341 
L 149.415103 117.800389 
L 149.549591 101.696752 
L 149.684079 113.147005 
L 149.818567 113.070485 
L 149.953056 121.701615 
L 150.35652 180.52995 
L 150.491009 159.559483 
L 150.625497 161.172978 
L 150.894473 256.832301 
L 151.028961 249.934598 
L 151.16345 253.9337 
L 151.297938 270.285148 
L 151.566914 251.856769 
L 151.835891 259.353467 
L 152.104867 258.526251 
L 152.239355 253.844313 
L 152.777308 102.592014 
L 152.911796 117.810929 
L 153.046285 116.808876 
L 153.180773 111.228501 
L 153.315261 131.987144 
L 153.449749 134.767553 
L 153.718726 199.736384 
L 153.853214 211.860439 
L 154.12219 255.30981 
L 154.391167 269.331304 
L 154.660143 264.465911 
L 154.794631 264.717666 
L 154.92912 265.254261 
L 155.063608 264.97795 
L 155.198096 265.594777 
L 155.467072 270.034147 
L 155.601561 268.325036 
L 155.870537 246.193974 
L 156.005025 249.013937 
L 156.274002 255.421384 
L 156.40849 255.382238 
L 156.542978 253.366423 
L 156.677466 254.095713 
L 156.811955 256.420287 
L 156.946443 254.870376 
L 157.080931 255.413599 
L 157.349907 259.248854 
L 157.618884 263.493456 
L 157.753372 260.817261 
L 157.88786 260.702213 
L 158.156837 264.954214 
L 158.291325 264.675095 
L 158.425813 265.281389 
L 158.829278 272.047827 
L 158.963766 268.099002 
L 159.232742 270.110599 
L 159.501719 265.740786 
L 159.636207 267.644109 
L 159.770695 265.24082 
L 160.039672 251.865328 
L 160.17416 253.292555 
L 160.308648 250.127024 
L 160.443136 251.260554 
L 160.577624 254.022568 
L 160.712113 261.973431 
L 160.846601 261.426703 
L 160.981089 248.984742 
L 161.115577 249.793478 
L 161.384554 262.019079 
L 161.519042 261.672909 
L 161.65353 258.554308 
L 161.788018 258.546499 
L 162.056995 218.722332 
L 162.325971 118.550792 
L 162.594948 92.130525 
L 162.729436 87.220363 
L 163.401877 139.838028 
L 163.670853 202.875668 
L 163.805342 250.0091 
L 163.93983 251.500997 
L 164.074318 246.131566 
L 164.208806 261.708852 
L 164.343294 262.386484 
L 164.477783 254.478883 
L 164.746759 271.388714 
L 164.881247 266.30951 
L 165.015735 252.348142 
L 165.4192 162.177156 
L 165.688177 100.858368 
L 165.822665 119.186191 
L 165.957153 119.495077 
L 166.091641 118.261557 
L 166.226129 131.845806 
L 166.360618 130.818797 
L 166.629594 115.849569 
L 166.764082 129.810765 
L 167.033059 251.939002 
L 167.302035 244.494983 
L 167.571012 256.157846 
L 167.7055 250.843301 
L 167.974476 261.449362 
L 168.243453 257.961727 
L 168.377941 243.132541 
L 168.646917 155.1914 
L 168.915894 90.213195 
L 169.18487 118.893762 
L 169.453847 133.531625 
L 169.588335 111.537446 
L 169.722823 113.489722 
L 170.260776 251.972428 
L 170.395264 255.746399 
L 170.529752 250.664555 
L 170.66424 265.967302 
L 170.798729 256.768742 
L 171.067705 254.35413 
L 171.202193 253.002378 
L 171.336681 254.729984 
L 171.47117 259.347413 
L 172.143611 94.791992 
L 172.278099 103.790916 
L 172.412587 121.528868 
L 172.547075 120.884992 
L 172.681564 115.902019 
L 173.085028 169.635883 
L 173.219516 173.201266 
L 173.488493 256.970045 
L 173.757469 251.730998 
L 173.891958 267.023587 
L 174.026446 264.314424 
L 174.160934 282.59327 
L 174.295422 277.551622 
L 174.42991 263.392335 
L 174.564399 263.607166 
L 174.698887 265.749986 
L 175.102351 201.237819 
L 175.23684 146.75211 
L 175.371328 139.638499 
L 175.505816 140.604264 
L 175.640304 137.020627 
L 175.774792 146.943346 
L 175.909281 170.80109 
L 176.043769 172.044386 
L 176.178257 182.96559 
L 176.312745 183.89007 
L 176.447234 189.868432 
L 176.581722 208.316237 
L 176.71621 256.505104 
L 176.850698 255.640423 
L 176.985186 251.285993 
L 177.119675 267.119321 
L 177.388651 258.848572 
L 177.523139 263.129858 
L 177.657627 261.863078 
L 178.19558 269.341555 
L 178.464557 252.220968 
L 178.599045 255.606032 
L 178.733533 248.810679 
L 178.868021 248.899587 
L 179.136998 256.343775 
L 179.405974 250.013276 
L 179.540462 250.558737 
L 179.809439 247.627524 
L 180.078415 258.868741 
L 180.212904 266.729428 
L 180.48188 258.485159 
L 180.750856 271.88395 
L 181.019833 267.433646 
L 181.154321 268.373948 
L 181.288809 268.141214 
L 181.692274 256.094804 
L 181.826762 258.833484 
L 181.96125 258.342981 
L 182.095738 260.687041 
L 182.230227 253.919843 
L 182.364715 255.907377 
L 182.633691 265.577791 
L 182.76818 265.489385 
L 182.902668 268.288928 
L 183.037156 267.11454 
L 183.171644 264.533151 
L 183.440621 272.681446 
L 183.844085 255.682352 
L 184.113062 282.105377 
L 184.382038 263.854676 
L 184.785503 190.085088 
L 184.919991 143.901645 
L 185.323456 184.363522 
L 185.457944 183.467133 
L 185.72692 189.421254 
L 185.861408 195.329517 
L 186.399361 260.649542 
L 186.53385 262.583374 
L 186.802826 273.142321 
L 186.937314 271.901527 
L 187.071802 277.314206 
L 187.206291 290.964569 
L 187.340779 287.880827 
L 187.609755 272.013706 
L 187.744243 264.569666 
L 187.878732 245.933173 
L 188.147708 134.129572 
L 188.416684 173.863187 
L 188.954637 206.514069 
L 189.089126 198.893797 
L 189.223614 204.183423 
L 189.761567 269.393868 
L 189.896055 268.125209 
L 190.030543 263.98782 
L 190.165031 269.887743 
L 190.434008 257.560794 
L 190.568496 260.813559 
L 190.702984 256.747073 
L 190.837472 257.915285 
L 191.106449 263.306361 
L 191.240937 262.667139 
L 191.375425 253.443248 
L 191.509913 252.923578 
L 191.644402 257.044728 
L 191.77889 249.420847 
L 192.047866 253.742667 
L 192.182354 253.252226 
L 192.316843 245.872748 
L 192.451331 245.102862 
L 192.854796 251.125607 
L 192.989284 263.991281 
L 193.123772 264.158502 
L 193.527237 252.14095 
L 193.661725 251.667073 
L 193.930701 260.194161 
L 194.065189 259.300082 
L 194.334166 238.504605 
L 194.603142 143.35923 
L 194.73763 151.125198 
L 194.872119 144.835086 
L 195.006607 148.8905 
L 195.141095 146.019099 
L 195.410072 169.928662 
L 195.54456 157.614193 
L 195.813536 186.689929 
L 196.082513 254.004398 
L 196.217001 251.797697 
L 196.351489 262.240141 
L 196.620465 256.308891 
L 196.754954 272.337249 
L 196.889442 269.027922 
L 197.02393 258.798615 
L 197.158418 258.778603 
L 197.292907 261.463882 
L 197.427395 256.82199 
L 197.561883 240.06965 
L 197.830859 153.652927 
L 198.234324 201.027378 
L 198.5033 209.678406 
L 198.772277 191.034486 
L 199.579206 277.57543 
L 199.713694 270.12549 
L 199.848183 271.295671 
L 199.982671 274.37356 
L 200.251647 270.577879 
L 200.386135 271.443199 
L 200.520624 269.476492 
L 200.655112 261.232666 
L 200.7896 260.909823 
L 200.924088 244.67154 
L 201.058576 178.127732 
L 201.193065 184.267274 
L 201.462041 203.580726 
L 201.596529 206.222051 
L 201.731018 211.960948 
L 201.999994 197.693739 
L 202.134482 203.179025 
L 202.537947 259.386716 
L 202.672435 267.055352 
L 202.806923 266.367515 
L 202.941411 266.507635 
L 203.0759 268.13873 
L 203.344876 254.086741 
L 203.479364 262.757909 
L 203.613853 264.264278 
L 204.017317 252.263765 
L 204.151805 231.993892 
L 204.420782 161.842866 
L 204.55527 160.307402 
L 204.958735 184.21668 
L 205.093223 176.30333 
L 205.227711 200.685645 
L 205.362199 202.118307 
L 205.765664 248.809531 
L 206.03464 263.373849 
L 206.169129 257.457827 
L 206.303617 258.003934 
L 206.438105 287.361984 
L 206.572593 284.835726 
L 206.707081 274.939773 
L 206.84157 276.831716 
L 206.976058 275.927415 
L 207.110546 273.651217 
L 207.514011 240.639714 
L 207.648499 241.012241 
L 208.186452 266.214311 
L 208.32094 263.392736 
L 208.589916 244.834259 
L 209.262357 275.156672 
L 209.396846 273.016101 
L 209.531334 266.935831 
L 209.665822 250.821863 
L 209.80031 254.007223 
L 209.934799 260.602875 
L 210.069287 260.252988 
L 210.203775 262.916164 
L 210.60724 188.801444 
L 210.741728 134.92192 
L 210.876216 137.290953 
L 211.279681 97.203685 
L 211.548657 153.768104 
L 211.683145 171.315804 
L 211.817634 174.050552 
L 212.221098 251.597563 
L 212.490075 262.523943 
L 212.624563 254.842118 
L 213.028027 270.699696 
L 213.297004 259.514231 
L 213.431492 264.851612 
L 213.700468 221.335465 
L 213.969445 122.355968 
L 214.103933 119.760472 
L 214.37291 152.48108 
L 214.641886 165.054441 
L 214.910862 195.566557 
L 215.045351 202.187486 
L 215.179839 200.972612 
L 215.448815 264.341776 
L 215.583303 267.444007 
L 215.85228 260.043305 
L 215.986768 260.180675 
L 216.121256 259.00224 
L 216.255745 261.960135 
L 216.524721 260.150881 
L 216.659209 264.929096 
L 216.793697 254.689328 
L 216.928186 233.671605 
L 217.197162 122.040414 
L 217.33165 127.720176 
L 217.600627 162.886384 
L 217.735115 179.831832 
L 217.869603 172.055452 
L 218.004091 147.693374 
L 218.138579 156.759593 
L 218.407556 226.900199 
L 218.542044 230.86362 
L 218.811021 268.851974 
L 218.945509 265.311744 
L 219.079997 276.164139 
L 219.214485 252.193943 
L 219.348973 250.137082 
L 219.61795 267.188288 
L 219.886926 270.441407 
L 220.155903 231.68311 
L 220.424879 119.854852 
L 220.693856 164.358097 
L 220.828344 163.733412 
L 220.962832 160.504816 
L 221.09732 180.061027 
L 221.231808 173.953108 
L 221.500785 213.456521 
L 221.635273 212.198694 
L 221.769761 220.893634 
L 222.038738 270.82666 
L 222.173226 265.001283 
L 222.307714 270.547866 
L 222.576691 264.262613 
L 222.845667 271.864909 
L 222.980155 271.689648 
L 223.114643 272.142522 
L 223.249132 268.854008 
L 223.38362 270.501715 
L 223.652596 239.280379 
L 223.921573 260.214294 
L 224.190549 249.331023 
L 224.459525 252.052678 
L 224.594014 255.850029 
L 224.728502 254.31281 
L 224.997478 247.737852 
L 225.266455 257.219116 
L 225.400943 257.654431 
L 225.535431 254.157142 
L 225.669919 254.491427 
L 225.804408 255.565116 
L 225.938896 253.594837 
L 226.34236 264.372174 
L 226.611337 265.579903 
L 226.745825 264.53828 
L 227.014802 259.645638 
L 227.283778 265.589647 
L 227.418266 264.198058 
L 227.552754 261.538137 
L 227.821731 264.559648 
L 227.956219 263.813747 
L 228.090707 262.261154 
L 228.225195 262.192094 
L 228.359684 270.172414 
L 228.494172 270.307869 
L 228.62866 269.646618 
L 228.763148 264.831426 
L 228.897637 265.993718 
L 229.032125 266.149562 
L 229.166613 259.841079 
L 229.301101 260.434972 
L 229.435589 264.241558 
L 229.570078 264.479083 
L 229.704566 248.649318 
L 229.839054 214.122523 
L 230.10803 117.349285 
L 230.377007 99.12809 
L 230.511495 96.047637 
L 230.645983 86.954927 
L 230.91496 142.233206 
L 231.049448 146.63329 
L 231.318424 186.880834 
L 231.587401 252.375217 
L 231.721889 249.730329 
L 231.856377 252.006017 
L 231.990865 264.125981 
L 232.125354 265.416715 
L 232.259842 265.260257 
L 232.39433 263.449801 
L 232.528818 264.65172 
L 232.663306 267.638929 
L 232.797795 262.753207 
L 233.066771 219.186876 
L 233.335748 126.532657 
L 233.470236 117.927885 
L 233.604724 122.889346 
L 234.008189 174.904238 
L 234.142677 144.892264 
L 234.277165 152.791493 
L 234.546141 220.541421 
L 234.68063 228.426719 
L 234.949606 261.813201 
L 235.084094 261.536359 
L 235.218583 259.962292 
L 235.487559 263.991134 
L 235.622047 266.411891 
L 235.756535 273.354918 
L 236.025512 262.584261 
L 236.294488 233.308754 
L 236.563465 119.940354 
L 236.697953 120.054607 
L 236.832441 127.501895 
L 236.966929 125.122865 
L 237.101417 120.275359 
L 237.370394 192.100546 
L 237.504882 184.228415 
L 237.63937 185.219308 
L 237.908347 241.077357 
L 238.177323 265.526999 
L 238.311811 265.355216 
L 238.4463 262.902121 
L 238.580788 263.342569 
L 238.849764 266.306617 
L 239.118741 277.759031 
L 239.253229 271.799227 
L 239.387717 259.274651 
L 239.522205 224.716116 
L 239.791182 120.036487 
L 239.92567 122.583731 
L 240.060158 121.069442 
L 240.598111 192.397986 
L 240.867087 206.647635 
L 241.001576 213.832879 
L 241.270552 261.891818 
L 241.40504 260.882769 
L 241.539529 261.170782 
L 241.674017 259.671392 
L 241.942993 255.014059 
L 242.21197 276.946441 
L 242.346458 280.743075 
L 242.480946 276.247277 
L 242.749922 222.854532 
L 243.018899 123.546819 
L 243.153387 130.511074 
L 243.287875 164.568844 
L 243.422363 166.780198 
L 243.556852 142.354122 
L 243.69134 151.141499 
L 243.825828 150.988621 
L 244.094805 182.066821 
L 244.363781 246.27217 
L 244.498269 252.219975 
L 244.632757 265.17058 
L 244.767246 266.868645 
L 245.036222 262.896705 
L 245.17071 264.989379 
L 245.305198 269.103746 
L 245.708663 267.160408 
L 245.843151 265.081452 
L 245.97764 248.378922 
L 246.246616 260.98669 
L 246.650081 252.835367 
L 246.784569 253.253254 
L 247.053545 259.504025 
L 247.188033 265.375395 
L 247.322522 265.230771 
L 247.591498 267.074107 
L 247.725986 267.036955 
L 247.860475 266.124604 
L 247.994963 269.269864 
L 248.263939 266.739125 
L 248.398427 267.75087 
L 248.532916 266.627686 
L 248.667404 266.744063 
L 248.801892 265.808909 
L 248.93638 267.743694 
L 249.070868 267.508501 
L 249.205357 267.814575 
L 249.608821 270.524058 
L 249.743309 269.889909 
L 249.877798 268.212029 
L 250.012286 268.342638 
L 250.281262 266.296713 
L 250.415751 265.33109 
L 250.684727 266.393992 
L 250.819215 265.382998 
L 251.22268 267.785971 
L 251.357168 259.415841 
L 251.626144 262.16473 
L 251.760633 283.122445 
L 251.895121 281.65016 
L 252.029609 272.662672 
L 252.164097 271.22365 
L 252.433074 238.831427 
L 252.70205 127.560995 
L 252.836538 130.736471 
L 252.971027 136.891055 
L 253.105515 176.736237 
L 253.240003 168.123501 
L 253.374491 175.429437 
L 253.508979 175.506225 
L 253.643468 179.304199 
L 253.777956 174.173037 
L 254.315909 264.537619 
L 254.450397 269.0485 
L 254.584885 280.960454 
L 254.719373 279.062543 
L 254.853862 274.62102 
L 254.98835 280.941879 
L 255.257326 276.266276 
L 255.391814 276.636589 
L 255.929767 129.884685 
L 256.198744 173.997597 
L 256.333232 168.970809 
L 256.46772 158.596963 
L 256.602208 165.17481 
L 256.736697 164.520085 
L 256.871185 167.617839 
L 257.409138 253.121325 
L 257.678114 264.398136 
L 257.812602 262.866565 
L 257.94709 257.528429 
L 258.081579 257.939925 
L 258.350555 285.536723 
L 258.619532 268.925441 
L 258.888508 231.348298 
L 259.157484 126.688149 
L 259.426461 172.094921 
L 259.560949 175.079579 
L 259.695437 156.485044 
L 259.964414 193.069825 
L 260.098902 172.20086 
L 260.23339 184.563024 
L 260.502366 234.599471 
L 260.771343 259.203087 
L 260.905831 259.219379 
L 261.040319 263.957699 
L 261.309296 253.938006 
L 261.443784 265.060319 
L 261.71276 267.370442 
L 261.981737 253.871689 
L 262.116225 224.737785 
L 262.385201 130.220403 
L 262.654178 167.541448 
L 262.788666 144.68593 
L 262.923154 144.192067 
L 263.057643 168.788812 
L 263.192131 166.582508 
L 263.595595 217.870245 
L 264.133548 255.822202 
L 264.268036 257.878948 
L 264.402525 254.90055 
L 264.537013 264.420654 
L 264.805989 256.356744 
L 264.940478 257.107643 
L 265.209454 250.246005 
L 265.343942 233.273731 
L 265.881895 105.707638 
L 266.016383 97.978258 
L 266.150871 109.377627 
L 266.419848 142.745634 
L 266.554336 138.230052 
L 266.688824 142.783949 
L 267.226777 252.352854 
L 267.361265 251.00616 
L 267.495754 256.934992 
L 267.630242 251.257587 
L 267.76473 266.106161 
L 267.899218 266.125271 
L 268.033706 262.8871 
L 268.168195 262.602536 
L 268.437171 269.632183 
L 268.571659 269.329065 
L 268.706147 264.338291 
L 268.975124 267.747806 
L 269.2441 259.9629 
L 269.378589 260.544715 
L 269.513077 260.360424 
L 270.185518 248.453875 
L 270.857959 259.025183 
L 270.992447 274.272323 
L 271.126935 275.02955 
L 271.261424 268.157057 
L 271.395912 268.316355 
L 271.5304 268.983492 
L 271.664888 268.629555 
L 272.068353 271.499484 
L 272.202841 268.947498 
L 272.337329 268.811855 
L 272.471817 268.489873 
L 272.606306 269.006389 
L 272.740794 267.959545 
L 272.875282 264.94208 
L 273.144258 268.565912 
L 273.278747 267.532427 
L 273.413235 264.721314 
L 273.547723 264.936133 
L 273.8167 269.437042 
L 273.951188 266.223358 
L 274.085676 266.129608 
L 274.220164 263.614486 
L 274.489141 290.436599 
L 274.758117 276.070262 
L 275.027093 238.20836 
L 275.29607 151.407143 
L 275.430558 149.822509 
L 275.565046 146.040616 
L 275.834023 154.799325 
L 275.968511 167.62398 
L 276.102999 205.835878 
L 276.371976 213.995023 
L 276.640952 246.949052 
L 277.044417 272.668316 
L 277.178905 266.949281 
L 277.313393 270.146672 
L 277.447881 267.919593 
L 277.58237 274.559048 
L 277.716858 275.140533 
L 277.851346 276.617955 
L 277.985834 275.900684 
L 278.120322 269.167791 
L 278.254811 256.373893 
L 278.523787 200.99094 
L 278.658275 199.469241 
L 278.792763 186.371851 
L 278.927252 191.729065 
L 279.06174 187.695045 
L 279.196228 211.810054 
L 279.330716 207.241162 
L 279.465204 208.479003 
L 279.599693 217.691844 
L 280.003157 257.774914 
L 280.272134 267.296852 
L 280.406622 273.662988 
L 280.54111 272.03294 
L 280.810087 244.300928 
L 281.079063 257.591126 
L 281.213551 255.970459 
L 281.482528 238.156359 
L 281.751504 122.603819 
L 281.885992 129.871931 
L 282.020481 125.100008 
L 282.154969 128.117647 
L 282.423945 169.756756 
L 282.558433 135.11708 
L 282.692922 138.54048 
L 282.961898 201.924746 
L 283.230874 252.495628 
L 283.365363 253.124558 
L 283.634339 257.193595 
L 283.903316 252.195486 
L 284.037804 249.494355 
L 284.172292 250.343698 
L 284.30678 253.414255 
L 284.441268 253.501719 
L 284.710245 239.697876 
L 284.979221 143.987544 
L 285.113709 138.727359 
L 285.248198 153.181893 
L 285.382686 143.195487 
L 285.651662 153.463118 
L 285.78615 175.990428 
L 285.920639 170.771977 
L 286.055127 172.708757 
L 286.458592 253.061885 
L 286.59308 253.408023 
L 286.727568 260.771889 
L 286.862056 259.443238 
L 286.996544 253.783185 
L 287.131033 287.464511 
L 287.265521 288.038374 
L 287.400009 266.868347 
L 287.668985 263.48513 
L 287.937962 258.057565 
L 288.206938 262.137171 
L 288.341427 261.37823 
L 288.475915 257.809409 
L 288.610403 257.745386 
L 288.744891 255.326482 
L 288.879379 255.153704 
L 289.013868 255.46136 
L 289.282844 263.041722 
L 289.417332 253.220604 
L 289.686309 272.313341 
L 289.955285 266.27211 
L 290.224262 269.063531 
L 290.35875 267.043276 
L 290.493238 268.964826 
L 290.627726 268.397204 
L 290.762214 269.159697 
L 290.896703 267.241694 
L 291.300167 244.655209 
L 291.569144 161.668846 
L 291.83812 188.617835 
L 291.972608 197.0351 
L 292.241585 176.468262 
L 292.376073 186.740392 
L 292.779538 238.900847 
L 293.048514 265.430862 
L 293.183002 265.754888 
L 293.451979 264.727727 
L 293.586467 261.358163 
L 293.720955 261.621792 
L 293.855443 260.805979 
L 294.12442 264.377095 
L 294.527884 233.656273 
L 294.796861 165.220407 
L 294.931349 151.414639 
L 295.065837 149.935665 
L 295.200325 139.507712 
L 295.334814 149.01335 
L 295.469302 174.023877 
L 295.60379 174.716853 
L 295.872766 217.779013 
L 296.007255 227.68624 
L 296.276231 261.410874 
L 296.410719 260.943357 
L 296.545208 251.594049 
L 296.679696 258.625991 
L 296.814184 293.676114 
L 296.948672 289.744784 
L 297.217649 272.696945 
L 297.352137 272.616964 
L 297.486625 272.708476 
L 297.621113 272.215677 
L 297.755601 272.411475 
L 298.024578 264.779658 
L 298.159066 258.686159 
L 298.428042 262.985716 
L 298.562531 262.241819 
L 298.697019 263.772603 
L 298.965995 257.170196 
L 299.100484 256.374696 
L 299.234972 257.964198 
L 299.36946 261.04337 
L 299.638436 269.772021 
L 299.772925 265.321151 
L 299.907413 267.24099 
L 300.041901 243.49475 
L 300.445366 261.404678 
L 300.579854 260.544277 
L 300.84883 233.030467 
L 301.117807 139.486844 
L 301.252295 135.880762 
L 301.386783 127.663155 
L 301.521271 112.568946 
L 301.65576 125.649657 
L 301.790248 162.135784 
L 301.924736 157.219236 
L 302.059224 167.734467 
L 302.328201 223.089399 
L 302.462689 229.754753 
L 302.731665 259.854203 
L 302.866153 261.276285 
L 303.000642 257.325529 
L 303.269618 268.176344 
L 303.538595 256.235656 
L 303.673083 260.476383 
L 303.807571 260.964781 
L 304.345524 145.145236 
L 304.480012 154.032887 
L 304.6145 161.271829 
L 304.883477 155.557961 
L 305.017965 174.429641 
L 305.152453 163.277954 
L 305.286941 173.208372 
L 305.555918 231.178326 
L 305.690406 232.79962 
L 306.093871 264.192761 
L 306.228359 264.136849 
L 306.362847 260.314757 
L 306.497335 259.96593 
L 306.631823 273.974898 
L 306.766312 276.102696 
L 306.9008 267.513663 
L 307.035288 266.031236 
L 307.169776 253.649865 
L 307.304265 230.598352 
L 307.573241 135.426766 
L 307.842217 173.610587 
L 308.111194 157.949539 
L 308.245682 171.63902 
L 308.38017 161.534172 
L 308.514658 169.269504 
L 309.187099 264.822607 
L 309.321588 270.785834 
L 309.456076 267.129694 
L 309.590564 268.039684 
L 309.725052 267.897714 
L 309.859541 268.926986 
L 309.994029 268.38736 
L 310.263005 265.563229 
L 310.397493 255.189823 
L 310.531982 224.369763 
L 310.800958 138.134946 
L 311.204423 172.1462 
L 311.338911 158.894798 
L 311.473399 167.310665 
L 311.607887 166.783448 
L 311.742376 163.947533 
L 311.876864 177.940244 
L 312.14584 228.42451 
L 312.549305 265.467592 
L 312.683793 263.404461 
L 312.818281 263.755895 
L 313.087258 266.668968 
L 313.221746 264.437351 
L 313.356234 265.252883 
L 313.490722 264.727535 
L 313.625211 265.862586 
L 313.894187 251.622266 
L 314.028675 242.870028 
L 314.163163 250.816297 
L 314.297652 251.02086 
L 314.43214 250.867771 
L 314.566628 249.101689 
L 314.835604 260.125759 
L 314.970093 258.851006 
L 315.239069 262.989002 
L 315.508045 259.167965 
L 315.777022 263.042933 
L 315.91151 262.718753 
L 316.045998 261.902241 
L 316.449463 265.176493 
L 316.583951 264.238688 
L 317.121904 266.76 
L 317.256392 265.121723 
L 317.39088 265.273557 
L 317.525369 264.250015 
L 317.659857 264.551944 
L 317.794345 263.120817 
L 317.928833 264.492043 
L 318.19781 261.172749 
L 318.332298 260.776116 
L 318.601274 257.077816 
L 319.004739 260.96212 
L 319.139227 256.222594 
L 319.273715 256.162637 
L 319.408204 257.183066 
L 319.542692 279.054862 
L 319.67718 279.501119 
L 319.811668 269.41836 
L 319.946157 267.763515 
L 320.080645 260.438458 
L 320.215133 241.220779 
L 320.484109 135.048053 
L 320.618598 133.740003 
L 320.753086 122.758493 
L 321.15655 177.933468 
L 321.291039 179.021381 
L 321.560015 201.578898 
L 321.694503 199.883483 
L 322.097968 264.099524 
L 322.232456 264.093617 
L 322.366944 260.750214 
L 322.635921 263.805593 
L 322.770409 280.215805 
L 322.904897 281.860865 
L 323.44285 246.53673 
L 323.711826 142.937341 
L 323.980803 174.148907 
L 324.249779 151.021968 
L 324.653244 167.28748 
L 324.92222 213.947629 
L 325.056709 223.039517 
L 325.325685 266.37898 
L 325.594661 257.463358 
L 325.863638 263.633309 
L 326.132614 279.253769 
L 326.536079 261.291118 
L 326.670567 243.464902 
L 326.939544 136.669239 
L 327.20852 177.261408 
L 327.477496 161.345741 
L 327.611985 176.854605 
L 327.746473 177.084466 
L 327.880961 173.670009 
L 328.015449 179.420349 
L 328.284426 230.812933 
L 328.68789 261.71098 
L 328.956867 269.059558 
L 329.091355 269.033896 
L 329.225843 283.327696 
L 329.360331 281.23918 
L 329.898284 236.823084 
L 330.167261 136.188929 
L 330.436237 174.962895 
L 330.705214 158.678302 
L 330.839702 157.106229 
L 331.108678 198.50263 
L 331.243166 203.67128 
L 331.377655 204.354388 
L 331.781119 261.543932 
L 331.915607 263.214406 
L 332.050096 259.831827 
L 332.184584 259.471723 
L 332.319072 265.11698 
L 332.45356 282.779828 
L 332.588049 280.936453 
L 332.722537 266.798176 
L 332.857025 266.326431 
L 333.126001 237.846988 
L 333.394978 145.638323 
L 333.529466 157.363289 
L 333.663954 181.601652 
L 333.932931 166.116478 
L 334.067419 169.584093 
L 334.470883 197.010901 
L 334.605372 202.173378 
L 334.874348 256.907713 
L 335.277813 268.209004 
L 335.412301 269.866625 
L 335.681277 264.968084 
L 335.815766 265.210971 
L 335.950254 265.121406 
L 336.21923 268.461634 
L 336.353718 264.793201 
L 336.622695 254.287448 
L 336.891671 247.709073 
L 337.02616 251.239266 
L 337.160648 250.248759 
L 337.564112 258.335557 
L 337.967577 263.114204 
L 338.102065 261.551368 
L 338.371042 265.92951 
L 338.50553 263.108013 
L 338.640018 263.280728 
L 338.774506 260.473858 
L 338.908995 260.432438 
L 339.043483 263.068501 
L 339.177971 262.677717 
L 339.312459 263.496255 
L 339.581436 265.982054 
L 339.715924 266.760721 
L 339.850412 266.108943 
L 339.9849 264.477838 
L 340.119388 265.267686 
L 340.388365 264.834522 
L 340.522853 264.382924 
L 340.657341 266.217265 
L 340.791829 264.1517 
L 341.060806 265.086678 
L 341.195294 264.48401 
L 341.329782 259.42263 
L 341.598759 267.41973 
L 341.733247 260.903563 
L 341.867735 260.804725 
L 342.002223 264.223655 
L 342.136712 279.459301 
L 342.2712 278.392061 
L 342.405688 270.043606 
L 342.540176 270.083056 
L 342.809153 241.649275 
L 343.078129 134.637762 
L 343.212617 129.655453 
L 343.481594 170.378605 
L 343.885058 177.87414 
L 344.154035 186.901832 
L 344.288523 186.562115 
L 344.557499 251.38656 
L 344.691988 257.272285 
L 344.826476 257.033436 
L 345.095452 268.446397 
L 345.22994 267.355102 
L 345.364429 277.654172 
L 345.498917 278.612935 
L 345.767893 273.19961 
L 346.03687 249.136092 
L 346.305846 151.291714 
L 346.574823 173.948727 
L 346.709311 172.414354 
L 346.843799 163.159127 
L 347.112775 175.590867 
L 347.247264 177.665508 
L 347.381752 177.827647 
L 348.054193 259.703336 
L 348.323169 265.802261 
L 348.457658 263.3051 
L 348.592146 277.656305 
L 348.726634 278.555202 
L 348.99561 270.630186 
L 349.264587 238.678461 
L 349.533563 140.010104 
L 349.668052 159.406662 
L 349.80254 159.057405 
L 349.937028 159.417784 
L 350.071516 155.471272 
L 350.474981 193.047724 
L 350.609469 193.740028 
L 351.012934 246.907007 
L 351.28191 264.707184 
L 351.416398 264.682934 
L 351.550886 265.057985 
L 351.685375 266.016798 
L 351.819863 282.535498 
L 351.954351 278.680051 
L 352.088839 268.601519 
L 352.223328 268.130538 
L 352.357816 264.58177 
L 352.492304 245.401279 
L 352.76128 128.72258 
L 353.030257 172.345606 
L 353.164745 171.230965 
L 353.299233 159.279307 
L 353.433721 172.507138 
L 353.56821 171.537543 
L 353.702698 165.977001 
L 353.837186 149.375242 
L 354.240651 253.912861 
L 354.509627 270.882113 
L 354.778604 265.290488 
L 355.04758 275.881013 
L 355.585533 261.946036 
L 355.720021 238.760153 
L 355.988998 157.188853 
L 356.123486 170.239041 
L 356.392462 144.979709 
L 356.52695 153.271343 
L 356.795927 178.200586 
L 356.930415 190.979364 
L 357.064903 187.019772 
L 357.33388 243.260881 
L 357.602856 276.240068 
L 357.737344 275.15722 
L 357.871832 271.182477 
L 358.006321 271.484756 
L 358.140809 274.995602 
L 358.409785 269.394398 
L 358.678762 270.985213 
L 358.81325 268.83494 
L 358.947738 269.159054 
L 359.216715 249.516093 
L 359.351203 248.120427 
L 359.485691 250.917097 
L 359.620179 249.561987 
L 359.754667 242.953582 
L 359.889156 257.89498 
L 360.023644 260.41617 
L 360.158132 257.55475 
L 360.561597 273.947969 
L 360.830573 269.789603 
L 361.234038 272.856058 
L 361.368526 272.141831 
L 361.637502 270.031627 
L 361.771991 271.143115 
L 361.906479 270.999958 
L 362.040967 270.524554 
L 362.309944 273.336236 
L 362.57892 273.368821 
L 362.847896 268.083191 
L 362.982385 269.767045 
L 363.251361 267.989498 
L 363.385849 265.710979 
L 363.520337 266.096483 
L 363.654826 268.253173 
L 363.923802 266.554157 
L 364.05829 268.073534 
L 364.192778 265.703465 
L 364.327267 269.305885 
L 364.461755 207.894093 
L 364.596243 209.249087 
L 364.730731 242.578609 
L 364.999708 252.007837 
L 365.134196 248.758162 
L 365.403172 181.835092 
L 365.672149 109.371276 
L 365.806637 96.116758 
L 365.941125 97.983103 
L 366.075613 107.523481 
L 366.34459 145.539784 
L 366.479078 146.239634 
L 366.613566 138.093418 
L 366.748055 153.286705 
L 367.017031 253.652261 
L 367.151519 246.856544 
L 367.420496 260.368063 
L 367.554984 249.056914 
L 367.82396 265.990415 
L 367.958448 260.208056 
L 368.227425 264.769155 
L 368.899866 95.27765 
L 369.168842 87.034233 
L 369.437819 110.551029 
L 369.706795 133.141319 
L 369.841283 123.110051 
L 369.975772 140.8054 
L 370.244748 245.004745 
L 370.379236 244.832813 
L 370.513724 241.878782 
L 370.648213 258.803555 
L 370.782701 260.134345 
L 370.917189 289.258073 
L 371.051677 289.861422 
L 371.186166 269.753101 
L 371.455142 267.18922 
L 371.724118 230.914283 
L 371.993095 131.529194 
L 372.127583 146.188698 
L 372.396559 234.316875 
L 372.800024 203.043542 
L 372.934512 193.539768 
L 373.069001 205.373191 
L 373.203489 237.057324 
L 373.337977 240.455052 
L 373.472465 247.73833 
L 373.606953 264.40404 
L 373.741442 263.120443 
L 374.010418 265.196912 
L 374.279394 295.488 
L 374.548371 275.411585 
L 374.682859 272.411525 
L 374.951836 234.650546 
L 375.220812 166.522426 
L 375.3553 165.419608 
L 375.489788 166.215936 
L 376.162229 210.167666 
L 376.296718 214.410686 
L 376.565694 245.147093 
L 376.83467 268.587007 
L 377.103647 262.796146 
L 377.238135 261.999128 
L 377.372623 283.758515 
L 377.910576 262.299076 
L 378.045064 269.925823 
L 378.179553 268.463734 
L 378.314041 264.566328 
L 378.448529 244.097145 
L 378.583017 241.448774 
L 378.717505 236.131414 
L 378.986482 249.053939 
L 379.12097 259.277662 
L 379.255458 258.471522 
L 379.389947 255.088122 
L 379.524435 259.785198 
L 379.658923 258.555319 
L 380.196876 271.123032 
L 380.465852 269.47982 
L 380.60034 254.798453 
L 380.734829 255.635001 
L 381.003805 265.189204 
L 381.138293 264.928806 
L 381.541758 212.753608 
L 381.676246 139.931546 
L 381.810734 132.17896 
L 381.945223 142.256722 
L 382.079711 141.845563 
L 382.483175 173.364086 
L 382.617664 161.322839 
L 383.155616 260.451477 
L 383.290105 258.127961 
L 383.559081 263.311013 
L 383.693569 261.109354 
L 383.962546 251.779029 
L 384.231522 255.985326 
L 384.36601 257.217357 
L 384.500499 254.996772 
L 384.634987 256.299304 
L 385.038451 155.363044 
L 385.17294 160.652417 
L 385.307428 149.444881 
L 385.441916 164.534072 
L 385.576404 199.904955 
L 385.710893 199.093258 
L 385.845381 188.912669 
L 386.114357 226.142857 
L 386.517822 260.516609 
L 386.65231 263.426712 
L 386.786798 269.751694 
L 386.921286 266.195353 
L 387.055775 276.684214 
L 387.190263 276.502128 
L 387.324751 266.754487 
L 387.459239 267.816986 
L 387.728216 265.407003 
L 387.862704 268.98851 
L 387.997192 267.365229 
L 388.13168 268.491963 
L 388.266169 266.089863 
L 388.400657 269.016157 
L 388.535145 268.624706 
L 388.669633 262.141725 
L 388.93861 263.485954 
L 389.073098 266.102085 
L 389.207586 260.587889 
L 389.342074 262.017391 
L 389.745539 282.866105 
L 390.014515 273.422569 
L 390.149004 274.135424 
L 390.283492 234.336341 
L 390.41798 234.634507 
L 390.686956 257.134017 
L 390.821445 256.626517 
L 390.955933 243.295352 
L 391.090421 243.978943 
L 391.224909 230.889878 
L 391.359397 156.456024 
L 391.493886 152.389857 
L 391.628374 151.858342 
L 391.762862 153.320837 
L 392.031839 200.517652 
L 392.166327 197.545943 
L 392.300815 181.35143 
L 392.435303 187.465202 
L 392.973256 264.060209 
L 393.107744 268.85861 
L 393.376721 261.484512 
L 393.645697 243.115616 
L 393.914673 264.863647 
L 394.049162 252.735415 
L 394.18365 253.280178 
L 394.318138 239.498724 
L 394.587115 141.546196 
L 394.721603 140.459762 
L 394.856091 152.91093 
L 394.990579 143.215899 
L 395.66302 184.798833 
L 395.931997 237.508899 
L 396.335461 261.11323 
L 396.46995 260.452015 
L 396.604438 246.049873 
L 396.738926 290.610099 
L 396.873414 294.863753 
L 397.007902 274.734579 
L 397.142391 273.361864 
L 397.276879 274.600401 
L 397.545855 237.6418 
L 397.814832 139.297931 
L 397.94932 166.888898 
L 398.218296 161.728024 
L 398.352785 151.158575 
L 398.487273 177.310629 
L 398.487273 177.310629 
" clip-path="url(#p81cd4a01af)" style="fill: none; stroke: #ff7f0e; stroke-width: 1.5; stroke-linecap: square"/>
   </g>
   <g id="patch_3">
    <path d="M 57.6 307.584 
L 57.6 41.472 
" style="fill: none; stroke: #000000; stroke-width: 0.8; stroke-linejoin: miter; stroke-linecap: square"/>
   </g>
   <g id="patch_4">
    <path d="M 414.72 307.584 
L 414.72 41.472 
" style="fill: none; stroke: #000000; stroke-width: 0.8; stroke-linejoin: miter; stroke-linecap: square"/>
   </g>
   <g id="patch_5">
    <path d="M 57.6 307.584 
L 414.72 307.584 
" style="fill: none; stroke: #000000; stroke-width: 0.8; stroke-linejoin: miter; stroke-linecap: square"/>
   </g>
   <g id="patch_6">
    <path d="M 57.6 41.472 
L 414.72 41.472 
" style="fill: none; stroke: #000000; stroke-width: 0.8; stroke-linejoin: miter; stroke-linecap: square"/>
   </g>
  </g>
 </g>
 <defs>
  <clipPath id="p81cd4a01af">
   <rect x="57.6" y="41.472" width="357.12" height="266.112"/>
  </clipPath>
 </defs>
</svg>
