<?xml version="1.0" encoding="utf-8" standalone="no"?>
<!DOCTYPE svg PUBLIC "-//W3C//DTD SVG 1.1//EN"
  "http://www.w3.org/Graphics/SVG/1.1/DTD/svg11.dtd">
<svg xmlns:xlink="http://www.w3.org/1999/xlink" width="460.8pt" height="345.6pt" viewBox="0 0 460.8 345.6" xmlns="http://www.w3.org/2000/svg" version="1.1">
 <metadata>
  <rdf:RDF xmlns:dc="http://purl.org/dc/elements/1.1/" xmlns:cc="http://creativecommons.org/ns#" xmlns:rdf="http://www.w3.org/1999/02/22-rdf-syntax-ns#">
   <cc:Work>
    <dc:type rdf:resource="http://purl.org/dc/dcmitype/StillImage"/>
    <dc:date>2023-04-04T03:00:51.057290</dc:date>
    <dc:format>image/svg+xml</dc:format>
    <dc:creator>
     <cc:Agent>
      <dc:title>Matplotlib v3.5.2, https://matplotlib.org/</dc:title>
     </cc:Agent>
    </dc:creator>
   </cc:Work>
  </rdf:RDF>
 </metadata>
 <defs>
  <style type="text/css">*{stroke-linejoin: round; stroke-linecap: butt}</style>
 </defs>
 <g id="figure_1">
  <g id="patch_1">
   <path d="M 0 345.6 
L 460.8 345.6 
L 460.8 0 
L 0 0 
z
" style="fill: #ffffff"/>
  </g>
  <g id="axes_1">
   <g id="patch_2">
    <path d="M 57.6 307.584 
L 414.72 307.584 
L 414.72 41.472 
L 57.6 41.472 
z
" style="fill: #ffffff"/>
   </g>
   <g id="matplotlib.axis_1">
    <g id="xtick_1">
     <g id="line2d_1">
      <defs>
       <path id="mce2889ce35" d="M 0 0 
L 0 3.5 
" style="stroke: #000000; stroke-width: 0.8"/>
      </defs>
      <g>
       <use xlink:href="#mce2889ce35" x="73.832727" y="307.584" style="stroke: #000000; stroke-width: 0.8"/>
      </g>
     </g>
     <g id="text_1">
      <!-- 0 -->
      <g transform="translate(70.651477 322.182437)scale(0.1 -0.1)">
       <defs>
        <path id="DejaVuSans-30" d="M 2034 4250 
Q 1547 4250 1301 3770 
Q 1056 3291 1056 2328 
Q 1056 1369 1301 889 
Q 1547 409 2034 409 
Q 2525 409 2770 889 
Q 3016 1369 3016 2328 
Q 3016 3291 2770 3770 
Q 2525 4250 2034 4250 
z
M 2034 4750 
Q 2819 4750 3233 4129 
Q 3647 3509 3647 2328 
Q 3647 1150 3233 529 
Q 2819 -91 2034 -91 
Q 1250 -91 836 529 
Q 422 1150 422 2328 
Q 422 3509 836 4129 
Q 1250 4750 2034 4750 
z
" transform="scale(0.015625)"/>
       </defs>
       <use xlink:href="#DejaVuSans-30"/>
      </g>
     </g>
    </g>
    <g id="xtick_2">
     <g id="line2d_2">
      <g>
       <use xlink:href="#mce2889ce35" x="141.076834" y="307.584" style="stroke: #000000; stroke-width: 0.8"/>
      </g>
     </g>
     <g id="text_2">
      <!-- 500 -->
      <g transform="translate(131.533084 322.182437)scale(0.1 -0.1)">
       <defs>
        <path id="DejaVuSans-35" d="M 691 4666 
L 3169 4666 
L 3169 4134 
L 1269 4134 
L 1269 2991 
Q 1406 3038 1543 3061 
Q 1681 3084 1819 3084 
Q 2600 3084 3056 2656 
Q 3513 2228 3513 1497 
Q 3513 744 3044 326 
Q 2575 -91 1722 -91 
Q 1428 -91 1123 -41 
Q 819 9 494 109 
L 494 744 
Q 775 591 1075 516 
Q 1375 441 1709 441 
Q 2250 441 2565 725 
Q 2881 1009 2881 1497 
Q 2881 1984 2565 2268 
Q 2250 2553 1709 2553 
Q 1456 2553 1204 2497 
Q 953 2441 691 2322 
L 691 4666 
z
" transform="scale(0.015625)"/>
       </defs>
       <use xlink:href="#DejaVuSans-35"/>
       <use xlink:href="#DejaVuSans-30" x="63.623047"/>
       <use xlink:href="#DejaVuSans-30" x="127.246094"/>
      </g>
     </g>
    </g>
    <g id="xtick_3">
     <g id="line2d_3">
      <g>
       <use xlink:href="#mce2889ce35" x="208.32094" y="307.584" style="stroke: #000000; stroke-width: 0.8"/>
      </g>
     </g>
     <g id="text_3">
      <!-- 1000 -->
      <g transform="translate(195.59594 322.182437)scale(0.1 -0.1)">
       <defs>
        <path id="DejaVuSans-31" d="M 794 531 
L 1825 531 
L 1825 4091 
L 703 3866 
L 703 4441 
L 1819 4666 
L 2450 4666 
L 2450 531 
L 3481 531 
L 3481 0 
L 794 0 
L 794 531 
z
" transform="scale(0.015625)"/>
       </defs>
       <use xlink:href="#DejaVuSans-31"/>
       <use xlink:href="#DejaVuSans-30" x="63.623047"/>
       <use xlink:href="#DejaVuSans-30" x="127.246094"/>
       <use xlink:href="#DejaVuSans-30" x="190.869141"/>
      </g>
     </g>
    </g>
    <g id="xtick_4">
     <g id="line2d_4">
      <g>
       <use xlink:href="#mce2889ce35" x="275.565046" y="307.584" style="stroke: #000000; stroke-width: 0.8"/>
      </g>
     </g>
     <g id="text_4">
      <!-- 1500 -->
      <g transform="translate(262.840046 322.182437)scale(0.1 -0.1)">
       <use xlink:href="#DejaVuSans-31"/>
       <use xlink:href="#DejaVuSans-35" x="63.623047"/>
       <use xlink:href="#DejaVuSans-30" x="127.246094"/>
       <use xlink:href="#DejaVuSans-30" x="190.869141"/>
      </g>
     </g>
    </g>
    <g id="xtick_5">
     <g id="line2d_5">
      <g>
       <use xlink:href="#mce2889ce35" x="342.809153" y="307.584" style="stroke: #000000; stroke-width: 0.8"/>
      </g>
     </g>
     <g id="text_5">
      <!-- 2000 -->
      <g transform="translate(330.084153 322.182437)scale(0.1 -0.1)">
       <defs>
        <path id="DejaVuSans-32" d="M 1228 531 
L 3431 531 
L 3431 0 
L 469 0 
L 469 531 
Q 828 903 1448 1529 
Q 2069 2156 2228 2338 
Q 2531 2678 2651 2914 
Q 2772 3150 2772 3378 
Q 2772 3750 2511 3984 
Q 2250 4219 1831 4219 
Q 1534 4219 1204 4116 
Q 875 4013 500 3803 
L 500 4441 
Q 881 4594 1212 4672 
Q 1544 4750 1819 4750 
Q 2544 4750 2975 4387 
Q 3406 4025 3406 3419 
Q 3406 3131 3298 2873 
Q 3191 2616 2906 2266 
Q 2828 2175 2409 1742 
Q 1991 1309 1228 531 
z
" transform="scale(0.015625)"/>
       </defs>
       <use xlink:href="#DejaVuSans-32"/>
       <use xlink:href="#DejaVuSans-30" x="63.623047"/>
       <use xlink:href="#DejaVuSans-30" x="127.246094"/>
       <use xlink:href="#DejaVuSans-30" x="190.869141"/>
      </g>
     </g>
    </g>
    <g id="xtick_6">
     <g id="line2d_6">
      <g>
       <use xlink:href="#mce2889ce35" x="410.053259" y="307.584" style="stroke: #000000; stroke-width: 0.8"/>
      </g>
     </g>
     <g id="text_6">
      <!-- 2500 -->
      <g transform="translate(397.328259 322.182437)scale(0.1 -0.1)">
       <use xlink:href="#DejaVuSans-32"/>
       <use xlink:href="#DejaVuSans-35" x="63.623047"/>
       <use xlink:href="#DejaVuSans-30" x="127.246094"/>
       <use xlink:href="#DejaVuSans-30" x="190.869141"/>
      </g>
     </g>
    </g>
   </g>
   <g id="matplotlib.axis_2">
    <g id="ytick_1">
     <g id="line2d_7">
      <defs>
       <path id="m61676bf5d9" d="M 0 0 
L -3.5 0 
" style="stroke: #000000; stroke-width: 0.8"/>
      </defs>
      <g>
       <use xlink:href="#m61676bf5d9" x="57.6" y="279.576085" style="stroke: #000000; stroke-width: 0.8"/>
      </g>
     </g>
     <g id="text_7">
      <!-- 100 -->
      <g transform="translate(31.5125 283.375304)scale(0.1 -0.1)">
       <use xlink:href="#DejaVuSans-31"/>
       <use xlink:href="#DejaVuSans-30" x="63.623047"/>
       <use xlink:href="#DejaVuSans-30" x="127.246094"/>
      </g>
     </g>
    </g>
    <g id="ytick_2">
     <g id="line2d_8">
      <g>
       <use xlink:href="#m61676bf5d9" x="57.6" y="231.953227" style="stroke: #000000; stroke-width: 0.8"/>
      </g>
     </g>
     <g id="text_8">
      <!-- 200 -->
      <g transform="translate(31.5125 235.752445)scale(0.1 -0.1)">
       <use xlink:href="#DejaVuSans-32"/>
       <use xlink:href="#DejaVuSans-30" x="63.623047"/>
       <use xlink:href="#DejaVuSans-30" x="127.246094"/>
      </g>
     </g>
    </g>
    <g id="ytick_3">
     <g id="line2d_9">
      <g>
       <use xlink:href="#m61676bf5d9" x="57.6" y="184.330368" style="stroke: #000000; stroke-width: 0.8"/>
      </g>
     </g>
     <g id="text_9">
      <!-- 300 -->
      <g transform="translate(31.5125 188.129587)scale(0.1 -0.1)">
       <defs>
        <path id="DejaVuSans-33" d="M 2597 2516 
Q 3050 2419 3304 2112 
Q 3559 1806 3559 1356 
Q 3559 666 3084 287 
Q 2609 -91 1734 -91 
Q 1441 -91 1130 -33 
Q 819 25 488 141 
L 488 750 
Q 750 597 1062 519 
Q 1375 441 1716 441 
Q 2309 441 2620 675 
Q 2931 909 2931 1356 
Q 2931 1769 2642 2001 
Q 2353 2234 1838 2234 
L 1294 2234 
L 1294 2753 
L 1863 2753 
Q 2328 2753 2575 2939 
Q 2822 3125 2822 3475 
Q 2822 3834 2567 4026 
Q 2313 4219 1838 4219 
Q 1578 4219 1281 4162 
Q 984 4106 628 3988 
L 628 4550 
Q 988 4650 1302 4700 
Q 1616 4750 1894 4750 
Q 2613 4750 3031 4423 
Q 3450 4097 3450 3541 
Q 3450 3153 3228 2886 
Q 3006 2619 2597 2516 
z
" transform="scale(0.015625)"/>
       </defs>
       <use xlink:href="#DejaVuSans-33"/>
       <use xlink:href="#DejaVuSans-30" x="63.623047"/>
       <use xlink:href="#DejaVuSans-30" x="127.246094"/>
      </g>
     </g>
    </g>
    <g id="ytick_4">
     <g id="line2d_10">
      <g>
       <use xlink:href="#m61676bf5d9" x="57.6" y="136.70751" style="stroke: #000000; stroke-width: 0.8"/>
      </g>
     </g>
     <g id="text_10">
      <!-- 400 -->
      <g transform="translate(31.5125 140.506729)scale(0.1 -0.1)">
       <defs>
        <path id="DejaVuSans-34" d="M 2419 4116 
L 825 1625 
L 2419 1625 
L 2419 4116 
z
M 2253 4666 
L 3047 4666 
L 3047 1625 
L 3713 1625 
L 3713 1100 
L 3047 1100 
L 3047 0 
L 2419 0 
L 2419 1100 
L 313 1100 
L 313 1709 
L 2253 4666 
z
" transform="scale(0.015625)"/>
       </defs>
       <use xlink:href="#DejaVuSans-34"/>
       <use xlink:href="#DejaVuSans-30" x="63.623047"/>
       <use xlink:href="#DejaVuSans-30" x="127.246094"/>
      </g>
     </g>
    </g>
    <g id="ytick_5">
     <g id="line2d_11">
      <g>
       <use xlink:href="#m61676bf5d9" x="57.6" y="89.084652" style="stroke: #000000; stroke-width: 0.8"/>
      </g>
     </g>
     <g id="text_11">
      <!-- 500 -->
      <g transform="translate(31.5125 92.88387)scale(0.1 -0.1)">
       <use xlink:href="#DejaVuSans-35"/>
       <use xlink:href="#DejaVuSans-30" x="63.623047"/>
       <use xlink:href="#DejaVuSans-30" x="127.246094"/>
      </g>
     </g>
    </g>
   </g>
   <g id="line2d_12">
    <path d="M 73.832727 282.635378 
L 74.101704 282.088191 
L 74.236192 280.981912 
L 74.37068 281.941989 
L 74.505168 281.451473 
L 74.639657 282.051045 
L 74.774145 275.604815 
L 74.908633 248.595987 
L 75.177609 247.108725 
L 75.312098 247.662103 
L 75.446586 247.714488 
L 75.581074 248.57789 
L 75.715562 247.824497 
L 75.85005 247.80259 
L 76.253515 242.836479 
L 76.522492 276.762527 
L 76.65698 277.074456 
L 76.925956 275.37432 
L 77.060444 266.552662 
L 77.194933 268.787603 
L 77.463909 268.850941 
L 77.598397 270.429163 
L 77.732885 265.1235 
L 77.867374 251.768146 
L 78.405327 103.912981 
L 78.674303 102.994812 
L 78.808791 110.105381 
L 78.943279 105.321189 
L 79.481232 157.815866 
L 79.750209 227.920047 
L 80.019185 262.507576 
L 80.153673 264.62346 
L 80.288161 260.803631 
L 80.42265 271.159221 
L 80.557138 270.726329 
L 80.826114 273.224148 
L 80.960603 270.693946 
L 81.095091 260.420267 
L 81.364067 167.963821 
L 81.498555 180.216706 
L 81.767532 160.88754 
L 82.036508 168.85913 
L 82.170996 165.770312 
L 82.305485 159.818883 
L 83.112414 259.944038 
L 83.650367 286.025649 
L 83.784855 286.046127 
L 83.919343 287.568629 
L 84.053831 287.760073 
L 84.18832 285.671335 
L 84.322808 278.475045 
L 84.726273 188.695003 
L 84.860761 180.063836 
L 84.995249 184.144163 
L 85.129737 169.320596 
L 85.264225 177.828896 
L 85.398714 178.573241 
L 85.66769 186.836759 
L 85.802178 195.57222 
L 86.340131 262.06135 
L 86.474619 264.066273 
L 86.609107 268.95714 
L 86.878084 286.406155 
L 87.012572 288.64824 
L 87.14706 288.322976 
L 87.281549 289.807856 
L 87.416037 289.711182 
L 87.550525 288.903022 
L 87.819501 261.507973 
L 87.95399 261.653222 
L 88.088478 255.989436 
L 88.222966 257.443362 
L 88.357454 256.688539 
L 88.491942 253.34351 
L 88.626431 256.167069 
L 88.760919 249.200797 
L 88.895407 252.066741 
L 89.029895 252.065312 
L 89.164384 254.615993 
L 89.43336 275.832452 
L 89.567848 277.489251 
L 89.702336 276.993021 
L 89.836825 278.04882 
L 89.971313 262.959517 
L 90.105801 263.67005 
L 90.240289 265.208269 
L 90.374777 264.978727 
L 90.509266 266.209777 
L 90.643754 266.380744 
L 90.778242 268.471863 
L 90.91273 265.261606 
L 91.047218 255.362243 
L 91.181707 254.195959 
L 91.316195 247.292073 
L 91.450683 251.709093 
L 91.585171 249.750841 
L 91.71966 251.243342 
L 91.854148 251.468598 
L 92.123124 254.439788 
L 92.257612 253.869266 
L 92.526589 259.442569 
L 92.795565 266.014047 
L 92.930053 266.965552 
L 93.064542 265.829271 
L 93.19903 275.809117 
L 93.468006 275.933413 
L 93.602495 276.990164 
L 93.736983 275.760542 
L 93.871471 273.246531 
L 94.005959 268.046115 
L 94.6784 161.173753 
L 94.812888 156.791498 
L 95.081865 168.611015 
L 95.216353 163.412028 
L 95.350841 152.18351 
L 96.023282 264.392013 
L 96.157771 265.119214 
L 96.426747 269.033813 
L 96.561235 268.701405 
L 96.695723 268.778554 
L 96.830212 270.655371 
L 96.9647 270.019606 
L 97.099188 268.596635 
L 97.233676 260.155483 
L 97.368164 242.647416 
L 97.502653 201.753191 
L 97.637141 194.679292 
L 97.771629 179.254724 
L 97.906117 187.624441 
L 98.040606 180.932001 
L 98.175094 181.639677 
L 98.309582 176.336872 
L 98.44407 177.974145 
L 98.713047 189.308386 
L 98.982023 231.126018 
L 99.250999 265.869274 
L 99.385488 270.541553 
L 99.519976 271.293518 
L 99.654464 281.069062 
L 99.788952 281.081444 
L 99.923441 280.083269 
L 100.192417 281.317653 
L 100.326905 281.398136 
L 100.461393 280.745226 
L 100.595882 281.150021 
L 100.73037 281.976277 
L 100.864858 280.442345 
L 100.999346 281.594818 
L 101.133834 280.689508 
L 101.268323 278.480759 
L 101.402811 271.476389 
L 101.537299 275.735778 
L 101.806276 265.380663 
L 101.940764 267.535122 
L 102.075252 267.387014 
L 102.20974 268.033257 
L 102.344228 270.404875 
L 102.478717 276.205815 
L 102.613205 274.359001 
L 102.747693 280.01231 
L 102.882181 266.59457 
L 103.016669 266.623144 
L 103.151158 271.514964 
L 103.285646 271.296375 
L 103.554622 267.127946 
L 103.68911 262.951898 
L 103.823599 245.57765 
L 104.092575 183.493635 
L 104.227063 162.073825 
L 104.361552 169.217254 
L 104.630528 144.416222 
L 105.033993 159.688396 
L 105.168481 170.436399 
L 105.706434 253.254931 
L 105.840922 253.133017 
L 105.97541 261.806092 
L 106.109898 278.189784 
L 106.378875 281.369562 
L 106.513363 281.355751 
L 106.647851 283.5064 
L 106.782339 283.238759 
L 106.916828 284.346943 
L 107.320292 246.886326 
L 107.45478 253.929271 
L 107.589269 251.402878 
L 107.723757 251.495267 
L 108.26171 246.447244 
L 108.396198 243.050305 
L 108.530686 245.303343 
L 108.934151 276.819674 
L 109.068639 278.330271 
L 109.203127 277.266376 
L 109.337615 272.784113 
L 109.606592 274.328046 
L 109.875568 275.377178 
L 110.144545 276.422976 
L 110.413521 275.189067 
L 110.548009 275.054771 
L 110.951474 271.017781 
L 111.085962 272.187399 
L 111.22045 271.84118 
L 111.623915 266.064528 
L 111.758403 266.570759 
L 112.02738 270.339632 
L 112.430844 271.931664 
L 112.565333 261.725609 
L 112.834309 265.910706 
L 112.968797 266.432176 
L 113.103285 267.93563 
L 113.237774 268.113263 
L 113.50675 270.720138 
L 113.641238 271.546871 
L 114.313679 260.359786 
L 114.448168 260.000233 
L 114.582656 258.524401 
L 114.98612 247.740204 
L 115.524073 258.754419 
L 115.658561 259.302082 
L 115.927538 261.517973 
L 116.062026 260.239776 
L 116.196514 266.309785 
L 116.331002 265.894514 
L 116.465491 266.502658 
L 116.599979 256.791881 
L 117.137932 79.002416 
L 117.406908 64.374103 
L 117.810373 80.830658 
L 118.213837 147.69458 
L 118.482814 209.721448 
L 118.75179 243.981332 
L 118.886279 245.507645 
L 119.289743 253.461614 
L 119.424231 254.87268 
L 119.55872 257.630043 
L 119.693208 257.945307 
L 119.827696 248.377398 
L 120.365649 91.795821 
L 120.634625 73.321962 
L 120.769114 76.995113 
L 120.903602 70.607459 
L 121.03809 71.928993 
L 121.441555 135.045472 
L 121.710531 201.545079 
L 121.845019 229.585418 
L 122.248484 240.495815 
L 122.51746 255.93467 
L 122.651948 256.093254 
L 122.786437 257.823392 
L 122.920925 256.489476 
L 123.055413 248.369302 
L 123.727854 60.437121 
L 123.862342 53.568 
L 124.534783 107.431358 
L 125.072736 247.674008 
L 125.207225 252.819182 
L 125.341713 253.280171 
L 125.476201 253.233977 
L 125.745177 266.766012 
L 125.879666 268.195651 
L 126.014154 268.42424 
L 126.28313 255.039836 
L 126.821083 92.895909 
L 126.955571 74.635876 
L 127.09006 81.201164 
L 127.359036 105.616927 
L 127.493524 108.047598 
L 127.762501 126.45288 
L 127.896989 149.142314 
L 128.300453 246.064356 
L 128.434942 251.837675 
L 128.56943 250.019434 
L 128.703918 257.483365 
L 128.838406 258.203899 
L 129.241871 264.863955 
L 129.510847 244.25564 
L 130.0488 83.364194 
L 130.183288 74.300611 
L 130.317777 86.160132 
L 130.452265 114.841475 
L 130.586753 113.927592 
L 130.721241 110.298254 
L 130.855729 116.656858 
L 131.124706 169.666814 
L 131.393682 234.987755 
L 131.662659 257.974833 
L 131.931635 257.779579 
L 132.066123 257.598136 
L 132.3351 268.814272 
L 132.469588 268.666641 
L 132.604076 268.76522 
L 132.738564 268.723788 
L 133.007541 256.891413 
L 133.276517 246.483437 
L 133.679982 240.932993 
L 133.81447 239.756708 
L 133.948958 234.682969 
L 134.486911 244.510898 
L 134.755888 251.562415 
L 134.890376 251.44812 
L 135.697305 265.61973 
L 135.831793 270.346299 
L 135.966282 270.952538 
L 136.10077 268.979999 
L 136.235258 270.475833 
L 136.369746 270.202954 
L 136.504234 265.924993 
L 136.638723 265.766885 
L 136.907699 263.841969 
L 137.311164 253.01396 
L 137.445652 253.521143 
L 137.58014 250.852358 
L 137.983605 257.630996 
L 138.118093 256.733781 
L 138.252581 258.559165 
L 138.387069 263.028094 
L 138.521558 261.801329 
L 138.656046 262.001345 
L 138.925022 266.672672 
L 139.193999 250.511855 
L 139.731951 81.519761 
L 139.86644 72.648098 
L 140.269904 98.525883 
L 140.538881 122.829257 
L 140.673369 129.884107 
L 140.807857 144.171441 
L 141.076834 223.874961 
L 141.480298 256.896175 
L 142.018251 265.292085 
L 142.152739 264.830619 
L 142.421716 241.214444 
L 142.959669 91.467699 
L 143.094157 84.089014 
L 143.228645 83.603737 
L 143.363133 93.777884 
L 143.497621 84.550479 
L 143.63211 89.651364 
L 144.573527 258.137703 
L 144.708015 261.609886 
L 144.842504 261.784661 
L 145.11148 264.015792 
L 145.245968 266.148344 
L 145.380456 262.090876 
L 145.783921 201.230292 
L 146.052897 109.996801 
L 146.187386 90.971469 
L 146.456362 106.208403 
L 146.59085 117.474066 
L 146.725339 111.811708 
L 146.859827 119.188965 
L 146.994315 114.136656 
L 147.128803 126.932918 
L 147.532268 233.678127 
L 147.801244 259.568294 
L 147.935732 259.769738 
L 148.204709 265.016825 
L 148.339197 264.995395 
L 148.473685 265.496863 
L 148.742662 264.448208 
L 148.87715 246.839656 
L 149.280615 119.053716 
L 149.415103 115.03149 
L 149.549591 105.986956 
L 149.684079 107.237533 
L 150.087544 139.814901 
L 150.222032 132.153812 
L 150.35652 137.651395 
L 150.894473 252.019594 
L 151.028961 261.154611 
L 151.16345 260.200725 
L 151.835891 268.343281 
L 151.970379 267.076037 
L 152.104867 246.210558 
L 152.508332 113.067999 
L 152.64282 116.164438 
L 152.911796 104.358255 
L 153.046285 118.451287 
L 153.180773 116.956406 
L 153.449749 151.292487 
L 153.718726 192.076702 
L 153.987702 248.476454 
L 154.12219 265.459717 
L 154.256678 266.833161 
L 154.525655 270.680135 
L 154.794631 272.377414 
L 155.063608 275.310506 
L 155.198096 276.945875 
L 155.332584 276.304871 
L 155.467072 271.941188 
L 155.601561 261.506544 
L 155.736049 260.648856 
L 155.870537 257.794818 
L 156.005025 259.925465 
L 156.274002 258.03579 
L 156.40849 258.570118 
L 156.542978 259.81879 
L 156.677466 258.62679 
L 157.215419 266.604571 
L 157.349907 268.602826 
L 157.484396 267.614652 
L 157.618884 268.381856 
L 157.88786 271.545442 
L 158.022348 272.024528 
L 158.291325 275.01191 
L 158.560301 279.276537 
L 158.694789 277.716412 
L 158.829278 278.676966 
L 158.963766 278.282172 
L 159.232742 275.578622 
L 159.367231 275.859597 
L 159.501719 273.883725 
L 160.039672 259.855459 
L 160.308648 260.113575 
L 160.443136 265.810222 
L 160.577624 265.527818 
L 160.712113 263.580043 
L 160.846601 264.279147 
L 160.981089 265.765456 
L 161.250066 269.50766 
L 161.519042 270.455355 
L 161.788018 253.756876 
L 162.460459 83.788513 
L 162.594948 83.453249 
L 162.729436 81.999799 
L 162.998412 101.514218 
L 163.132901 110.424454 
L 163.401877 151.529648 
L 163.670853 221.983381 
L 164.074318 255.939908 
L 164.208806 257.06857 
L 164.477783 269.67434 
L 164.612271 272.026433 
L 164.746759 267.342725 
L 165.015735 249.902282 
L 165.4192 120.660035 
L 165.553688 123.248814 
L 165.822665 109.41104 
L 165.957153 114.645745 
L 166.091641 111.573118 
L 166.360618 100.164586 
L 166.495106 106.333651 
L 166.89857 221.087595 
L 167.033059 228.031484 
L 167.302035 246.347712 
L 167.974476 264.738231 
L 168.108964 259.087303 
L 168.243453 245.131424 
L 168.377941 207.207437 
L 168.646917 106.160304 
L 168.781405 107.438025 
L 168.915894 102.930521 
L 169.050382 104.225387 
L 169.18487 108.005689 
L 169.319358 92.739706 
L 169.453847 95.207999 
L 169.857311 148.368919 
L 170.126288 226.251818 
L 170.395264 256.943322 
L 170.529752 257.819582 
L 170.66424 261.242713 
L 170.798729 261.4313 
L 171.067705 263.749104 
L 171.202193 266.572187 
L 171.47117 244.872356 
L 172.009123 110.206342 
L 172.143611 108.636216 
L 172.412587 96.926231 
L 172.95054 129.296441 
L 173.622981 258.904907 
L 173.757469 262.878082 
L 173.891958 276.204387 
L 174.026446 275.279075 
L 174.160934 275.235262 
L 174.42991 276.760145 
L 174.698887 262.02849 
L 174.833375 244.973316 
L 175.102351 176.726427 
L 175.371328 143.486148 
L 175.505816 140.597821 
L 175.640304 150.72387 
L 175.774792 150.414797 
L 175.909281 151.818243 
L 176.043769 156.606245 
L 176.178257 156.299554 
L 176.312745 170.716898 
L 176.581722 238.116101 
L 176.850698 265.137787 
L 176.985186 262.653302 
L 177.254163 267.36987 
L 177.388651 267.326533 
L 177.792116 273.86039 
L 177.926604 274.747603 
L 178.19558 264.071987 
L 178.330069 263.633381 
L 178.599045 256.094682 
L 178.733533 255.531304 
L 178.868021 257.831012 
L 179.136998 254.333589 
L 179.271486 254.927446 
L 179.540462 252.450581 
L 179.809439 259.930227 
L 179.943927 267.175093 
L 180.212904 265.280179 
L 180.48188 275.113347 
L 180.616368 275.127158 
L 180.750856 275.49814 
L 180.885345 276.326777 
L 181.019833 276.412975 
L 181.692274 264.144374 
L 181.826762 265.435906 
L 181.96125 259.472095 
L 182.095738 261.248428 
L 182.364715 266.668862 
L 182.499203 267.942773 
L 182.633691 271.080167 
L 182.902668 270.264864 
L 183.171644 276.375829 
L 183.306132 277.787371 
L 183.440621 276.681092 
L 183.575109 274.386622 
L 183.844085 286.081844 
L 183.978573 287.030015 
L 184.113062 284.758405 
L 184.382038 273.408925 
L 184.919991 181.973513 
L 185.054479 185.976214 
L 185.188967 178.926126 
L 185.457944 182.774053 
L 185.592432 184.268459 
L 185.995897 221.902899 
L 186.264873 252.402482 
L 186.53385 268.108977 
L 186.802826 278.330271 
L 187.071802 288.793966 
L 187.206291 287.647207 
L 187.340779 288.777774 
L 187.475267 285.610377 
L 187.609755 277.637359 
L 188.01322 201.968923 
L 188.147708 185.621424 
L 188.282196 185.839537 
L 188.416684 184.884222 
L 188.551173 188.185915 
L 188.685661 194.567378 
L 188.820149 190.169407 
L 188.954637 194.590713 
L 189.089126 202.937095 
L 189.627078 264.744422 
L 189.761567 267.325105 
L 189.896055 272.54457 
L 190.030543 270.116281 
L 190.299519 271.942141 
L 190.434008 270.774428 
L 190.971961 274.188511 
L 191.106449 270.746807 
L 191.240937 270.262959 
L 191.375425 270.700137 
L 191.509913 266.285022 
L 191.644402 267.829431 
L 191.913378 266.567425 
L 192.182354 260.948404 
L 192.316843 261.296051 
L 192.451331 260.799344 
L 192.585819 262.116117 
L 192.720307 267.868482 
L 192.989284 269.122391 
L 193.392748 266.443129 
L 193.661725 269.316693 
L 193.796213 269.849593 
L 194.065189 261.986106 
L 194.603142 158.546877 
L 194.73763 153.649818 
L 194.872119 143.727595 
L 195.006607 145.298674 
L 195.141095 150.028576 
L 195.275583 142.651795 
L 195.54456 156.005721 
L 195.948024 249.754651 
L 196.217001 260.060714 
L 196.351489 261.98182 
L 196.485977 271.427338 
L 196.620465 270.77681 
L 196.889442 271.332092 
L 197.02393 272.45742 
L 197.158418 270.73252 
L 197.292907 264.429159 
L 197.830859 195.910343 
L 197.965348 198.215289 
L 198.099836 194.906929 
L 198.234324 199.298233 
L 198.5033 186.010979 
L 198.772277 199.771604 
L 199.31023 272.101677 
L 199.713694 281.188119 
L 199.848183 280.022788 
L 200.117159 280.74856 
L 200.251647 278.970322 
L 200.386135 273.207956 
L 200.520624 272.80602 
L 200.655112 259.884986 
L 200.7896 212.796932 
L 200.924088 210.832489 
L 201.058576 199.182033 
L 201.193065 198.824862 
L 201.327553 196.147504 
L 201.462041 198.313868 
L 201.731018 186.547689 
L 201.865506 187.90494 
L 202.134482 210.535322 
L 202.403459 263.855303 
L 202.806923 273.626085 
L 203.0759 265.178743 
L 203.210388 269.493374 
L 203.344876 269.619098 
L 203.748341 260.269302 
L 203.882829 242.931724 
L 204.151805 181.147733 
L 204.420782 164.722609 
L 204.55527 159.109779 
L 204.689758 162.53672 
L 204.824246 156.055725 
L 204.958735 172.03367 
L 205.093223 172.279404 
L 205.765664 259.690208 
L 205.900152 260.199773 
L 206.03464 263.989124 
L 206.169129 278.796023 
L 206.303617 279.275585 
L 206.572593 283.203042 
L 206.84157 284.012154 
L 207.110546 274.650453 
L 207.379522 265.49353 
L 207.514011 264.618222 
L 207.917475 272.713155 
L 208.051964 272.467421 
L 208.32094 266.124533 
L 208.589916 267.721803 
L 208.858893 275.750541 
L 208.993381 279.39369 
L 209.127869 279.975641 
L 209.262357 279.433217 
L 209.396846 273.59513 
L 209.531334 274.689504 
L 209.80031 274.275661 
L 209.934799 275.263835 
L 210.203775 263.117149 
L 211.010704 108.430485 
L 211.279681 133.980149 
L 211.683145 166.987552 
L 212.221098 254.379783 
L 212.355586 256.836646 
L 212.759051 272.034529 
L 212.893539 271.827846 
L 213.028027 271.927854 
L 213.162516 274.569494 
L 213.431492 256.915224 
L 213.56598 218.941233 
L 213.834957 135.255489 
L 213.969445 139.828236 
L 214.103933 138.740054 
L 214.238421 141.693147 
L 214.910862 179.908586 
L 215.448815 259.983089 
L 215.583303 264.935866 
L 215.717792 265.552106 
L 216.121256 269.803398 
L 216.255745 270.758237 
L 216.390233 273.142713 
L 216.524721 269.144774 
L 216.659209 261.645603 
L 217.062674 148.856577 
L 217.197162 150.763873 
L 217.33165 150.844355 
L 217.466138 162.280509 
L 217.600627 160.99993 
L 217.735115 149.174698 
L 217.869603 154.392258 
L 218.273068 196.478007 
L 218.542044 255.15175 
L 218.811021 271.908329 
L 218.945509 264.507736 
L 219.483462 275.201449 
L 219.61795 276.995402 
L 219.886926 263.278591 
L 220.290391 161.941434 
L 220.693856 150.309551 
L 220.828344 160.947545 
L 220.962832 157.03628 
L 221.231808 184.124161 
L 221.500785 197.956221 
L 221.769761 255.015548 
L 222.038738 270.610606 
L 222.173226 269.859593 
L 222.307714 271.081596 
L 222.576691 277.117793 
L 222.845667 279.750385 
L 222.980155 278.082156 
L 223.114643 279.950877 
L 223.38362 259.448284 
L 223.518108 263.303831 
L 223.652596 263.147628 
L 223.921573 256.20231 
L 224.190549 255.531304 
L 224.325037 258.014836 
L 224.459525 257.387643 
L 224.728502 253.536859 
L 225.131967 260.790772 
L 225.266455 259.307797 
L 225.535431 260.776962 
L 225.669919 259.466857 
L 226.073384 269.21478 
L 226.34236 272.239784 
L 226.476849 272.167873 
L 226.745825 269.027146 
L 226.880313 271.306852 
L 227.014802 271.549729 
L 227.14929 271.253038 
L 227.283778 269.835306 
L 227.418266 271.510202 
L 227.552754 271.638783 
L 227.687243 271.469722 
L 227.956219 270.362014 
L 228.090707 276.172003 
L 228.225195 276.211054 
L 228.359684 277.311618 
L 228.494172 276.539652 
L 228.62866 277.509729 
L 228.763148 277.395434 
L 228.897637 275.109537 
L 229.301101 276.012467 
L 229.435589 269.804827 
L 229.570078 255.73513 
L 230.242519 94.456986 
L 230.377007 79.634372 
L 230.511495 109.58534 
L 230.780471 117.528832 
L 231.049448 144.971505 
L 231.587401 253.578767 
L 231.856377 264.791092 
L 232.125354 269.601001 
L 232.39433 274.253278 
L 232.528818 273.440356 
L 232.797795 256.352798 
L 232.932283 220.117041 
L 233.201259 133.042931 
L 233.335748 124.875135 
L 233.470236 135.161672 
L 233.604724 135.383594 
L 233.739212 148.163189 
L 233.8737 133.440582 
L 234.008189 140.156834 
L 234.815118 264.210094 
L 234.949606 263.943882 
L 235.218583 269.841973 
L 235.622047 277.572115 
L 235.756535 276.974925 
L 236.025512 264.331056 
L 236.563465 128.891646 
L 236.832441 116.692099 
L 237.63937 200.302599 
L 237.908347 258.317241 
L 238.177323 266.397888 
L 238.849764 281.300985 
L 238.984252 280.47711 
L 239.118741 276.68252 
L 239.253229 262.796171 
L 239.791182 128.122537 
L 240.194646 145.839669 
L 240.463623 164.946913 
L 240.732599 178.389893 
L 241.270552 255.787991 
L 241.674017 261.657508 
L 241.942993 274.587591 
L 242.077481 281.080491 
L 242.21197 280.455203 
L 242.480946 262.505672 
L 242.884411 150.880073 
L 243.018899 158.744035 
L 243.153387 156.49957 
L 243.287875 145.532502 
L 243.422363 153.505045 
L 243.556852 150.696248 
L 243.825828 167.319483 
L 244.229293 239.234286 
L 244.498269 261.597027 
L 244.767246 266.864592 
L 245.17071 274.713791 
L 245.305198 275.57767 
L 245.439687 275.282408 
L 245.574175 274.055167 
L 245.708663 262.612347 
L 245.843151 268.054211 
L 246.112128 265.075877 
L 246.381104 259.903082 
L 246.515592 259.869746 
L 247.188033 270.099613 
L 247.322522 270.504407 
L 247.45701 271.37019 
L 247.591498 271.016353 
L 247.725986 274.175177 
L 247.860475 272.739348 
L 248.129451 274.060882 
L 248.263939 273.178907 
L 248.398427 273.86039 
L 248.532916 273.70752 
L 248.667404 275.64958 
L 248.801892 275.551001 
L 249.205357 277.087315 
L 249.339845 277.203514 
L 249.608821 276.256772 
L 249.743309 276.388211 
L 249.877798 276.088663 
L 250.550239 272.92841 
L 250.819215 273.227958 
L 250.953703 274.005163 
L 251.088192 272.871263 
L 251.357168 274.126601 
L 251.491656 283.007312 
L 251.626144 282.518702 
L 251.760633 282.94826 
L 251.895121 282.788723 
L 252.164097 270.56965 
L 252.70205 143.423762 
L 252.836538 163.117242 
L 252.971027 159.680301 
L 253.240003 172.561808 
L 253.374491 173.911916 
L 253.508979 170.992634 
L 253.777956 203.742874 
L 254.046932 254.991261 
L 254.315909 276.272487 
L 254.719373 284.609821 
L 254.853862 284.370278 
L 255.122838 286.09994 
L 255.391814 265.379235 
L 255.660791 172.352743 
L 255.795279 175.792542 
L 256.198744 160.153672 
L 256.333232 163.819203 
L 256.46772 161.160419 
L 256.602208 162.353848 
L 257.409138 257.228106 
L 257.812602 264.683465 
L 258.081579 279.85706 
L 258.216067 280.918573 
L 258.350555 280.190896 
L 258.619532 266.051193 
L 258.888508 177.14646 
L 259.022996 178.013672 
L 259.157484 168.980569 
L 259.291973 168.406237 
L 259.426461 152.955477 
L 259.695437 166.625618 
L 259.829925 155.518539 
L 259.964414 164.571644 
L 260.771343 260.291685 
L 261.040319 262.525197 
L 261.309296 270.0077 
L 261.443784 273.214624 
L 261.71276 270.306772 
L 261.847249 257.942925 
L 262.116225 169.978744 
L 262.250713 174.136695 
L 262.654178 147.765538 
L 262.788666 155.04993 
L 262.923154 150.290502 
L 263.326619 185.361403 
L 263.461107 196.23513 
L 263.864572 244.901882 
L 264.268036 262.904751 
L 264.402525 262.148976 
L 264.671501 265.571155 
L 264.805989 265.445431 
L 264.940478 264.496783 
L 265.074966 256.945703 
L 265.209454 237.872272 
L 265.612919 123.833623 
L 265.881895 105.762177 
L 266.016383 115.242459 
L 266.150871 115.111972 
L 266.28536 114.664794 
L 266.419848 119.28564 
L 266.688824 156.475758 
L 266.957801 235.10967 
L 267.226777 251.737667 
L 267.361265 250.318506 
L 267.495754 266.649813 
L 267.630242 266.334549 
L 267.76473 268.19946 
L 267.899218 268.509962 
L 268.168195 275.016196 
L 268.302683 275.899124 
L 268.437171 273.343205 
L 268.706147 275.873884 
L 268.975124 272.386938 
L 269.2441 270.506312 
L 269.916541 256.045155 
L 270.320006 257.930544 
L 270.588982 262.806648 
L 270.723471 276.873488 
L 270.857959 277.91119 
L 270.992447 276.43631 
L 271.126935 277.317809 
L 271.261424 277.347335 
L 271.395912 277.161606 
L 271.799376 279.933257 
L 271.933865 278.550765 
L 272.068353 278.905079 
L 272.202841 278.261694 
L 272.337329 278.497427 
L 272.471817 277.655931 
L 272.606306 275.494806 
L 272.740794 276.774909 
L 272.875282 276.452978 
L 273.00977 275.77721 
L 273.144258 273.447499 
L 273.278747 273.347968 
L 273.547723 276.320587 
L 273.682211 276.534413 
L 273.8167 277.216849 
L 273.951188 276.35678 
L 274.085676 286.987631 
L 274.354652 288.617285 
L 274.489141 287.048112 
L 274.758117 272.35265 
L 275.29607 166.009378 
L 275.565046 153.789353 
L 275.699535 154.126047 
L 275.834023 172.055577 
L 275.968511 174.33433 
L 276.102999 184.477047 
L 276.77544 263.688147 
L 277.447881 281.066204 
L 277.58237 284.458381 
L 277.716858 284.067873 
L 277.851346 279.675141 
L 277.985834 269.704343 
L 278.389299 209.273317 
L 278.523787 189.812236 
L 278.658275 187.816362 
L 278.792763 178.312744 
L 278.927252 190.427999 
L 279.06174 184.614677 
L 279.196228 186.702939 
L 279.330716 194.389268 
L 280.137646 274.0485 
L 280.272134 276.432024 
L 280.406622 268.085642 
L 280.54111 267.80181 
L 280.810087 268.971427 
L 280.944575 268.348996 
L 281.213551 260.439316 
L 281.348039 231.523192 
L 281.482528 161.138989 
L 281.617016 150.941982 
L 281.751504 127.56916 
L 281.885992 128.719728 
L 282.154969 142.214617 
L 282.289457 124.117931 
L 282.423945 128.201591 
L 282.558433 137.301843 
L 282.82741 185.695239 
L 283.096386 254.177862 
L 283.365363 260.800773 
L 283.499851 263.005712 
L 283.634339 262.335182 
L 283.768827 262.345659 
L 283.903316 262.534721 
L 284.037804 263.838159 
L 284.172292 263.967217 
L 284.441268 258.779183 
L 285.113709 143.622349 
L 285.248198 142.547501 
L 285.382686 138.015234 
L 285.517174 147.247401 
L 285.651662 144.149534 
L 285.78615 147.635051 
L 286.055127 200.709774 
L 286.324103 250.234213 
L 286.59308 259.90213 
L 286.727568 259.780692 
L 286.862056 278.698872 
L 286.996544 278.757924 
L 287.131033 277.78118 
L 287.265521 278.38599 
L 287.668985 274.863327 
L 287.803474 275.739588 
L 288.07245 274.865708 
L 288.206938 272.696963 
L 288.341427 272.641721 
L 288.475915 270.2982 
L 288.610403 269.927694 
L 288.744891 268.805223 
L 288.879379 271.629735 
L 289.013868 271.96881 
L 289.148356 269.161918 
L 289.417332 276.307252 
L 289.55182 277.492585 
L 289.820797 277.131604 
L 289.955285 277.920715 
L 290.089773 276.423452 
L 290.224262 277.968337 
L 290.35875 277.062551 
L 290.493238 278.0412 
L 290.627726 276.501553 
L 291.031191 258.548212 
L 291.300167 192.453876 
L 291.434655 186.877239 
L 291.569144 187.483954 
L 291.703632 191.541422 
L 291.972608 178.814213 
L 292.376073 191.875734 
L 293.048514 268.163267 
L 293.183002 269.408129 
L 293.31749 268.258037 
L 293.451979 269.008573 
L 293.586467 268.080403 
L 293.720955 270.55203 
L 293.855443 270.814908 
L 294.258908 246.927758 
L 294.527884 189.02122 
L 294.796861 157.383926 
L 294.931349 141.53742 
L 295.065837 141.4036 
L 295.200325 149.364237 
L 295.334814 143.652351 
L 295.60379 171.669831 
L 295.738278 186.139561 
L 296.141743 256.242313 
L 296.276231 255.353671 
L 296.410719 262.541865 
L 296.545208 280.19423 
L 296.948672 282.354403 
L 297.486625 284.316464 
L 297.621113 283.971675 
L 297.755601 283.967865 
L 298.024578 280.800945 
L 298.159066 280.650933 
L 298.428042 278.513619 
L 298.697019 274.696171 
L 298.831507 273.563223 
L 298.965995 273.421307 
L 299.100484 273.776097 
L 299.36946 277.552114 
L 299.503948 277.046835 
L 299.638436 278.586482 
L 299.772925 268.949997 
L 299.907413 272.344078 
L 300.041901 272.043101 
L 300.176389 272.907456 
L 300.310877 272.624576 
L 300.579854 261.680367 
L 301.252295 127.900139 
L 301.386783 127.968715 
L 301.521271 141.129292 
L 301.65576 134.203976 
L 301.790248 143.596156 
L 302.597177 252.135794 
L 302.731665 253.884505 
L 303.000642 266.262639 
L 303.13513 266.486466 
L 303.269618 266.965552 
L 303.404106 269.419082 
L 303.538595 269.837211 
L 303.807571 253.517809 
L 304.345524 163.955881 
L 304.6145 153.458374 
L 304.748988 161.676175 
L 304.883477 152.125887 
L 305.017965 158.19161 
L 306.093871 264.717753 
L 306.228359 265.725929 
L 306.497335 275.85674 
L 306.766312 276.883965 
L 306.9008 272.186922 
L 307.035288 261.673224 
L 307.304265 169.420604 
L 307.438753 176.664517 
L 307.842217 157.449646 
L 307.976706 164.483542 
L 308.111194 156.085251 
L 308.245682 161.035647 
L 308.649147 206.92551 
L 309.052611 263.153342 
L 309.590564 275.354319 
L 309.994029 277.053502 
L 310.128517 273.508933 
L 310.263005 260.92364 
L 310.531982 169.309643 
L 310.66647 170.458306 
L 310.935446 168.17479 
L 311.069934 158.846424 
L 311.204423 165.285987 
L 311.338911 163.998265 
L 311.473399 157.241058 
L 311.607887 170.34544 
L 311.876864 207.830344 
L 312.14584 250.054199 
L 312.414817 261.830856 
L 312.818281 270.420591 
L 312.952769 269.987699 
L 313.087258 271.868802 
L 313.221746 271.770222 
L 313.356234 273.343205 
L 313.625211 262.812839 
L 313.759699 254.94078 
L 313.894187 258.285334 
L 314.028675 255.762751 
L 314.163163 257.641473 
L 314.297652 254.887919 
L 314.566628 261.43511 
L 314.701116 262.168025 
L 314.970093 266.909833 
L 315.104581 266.872211 
L 315.239069 266.576473 
L 315.508045 269.501946 
L 315.642534 270.037703 
L 315.777022 269.708153 
L 316.180487 272.690772 
L 316.314975 272.252166 
L 316.718439 274.600925 
L 316.852928 274.849516 
L 316.987416 273.99802 
L 317.121904 274.063263 
L 317.256392 272.946031 
L 317.39088 273.090328 
L 317.525369 271.554967 
L 317.659857 272.472183 
L 317.928833 269.958649 
L 318.332298 266.230731 
L 318.466786 266.883641 
L 318.601274 266.382172 
L 318.735763 267.835146 
L 318.870251 267.671799 
L 319.139227 268.785698 
L 319.273715 278.59934 
L 319.67718 279.715144 
L 319.811668 277.142081 
L 319.946157 269.205731 
L 320.349621 147.486944 
L 320.484109 131.371845 
L 320.887574 158.589737 
L 321.022062 163.245824 
L 321.291039 177.995576 
L 321.425527 179.79191 
L 321.560015 198.191477 
L 321.828991 253.596387 
L 321.96348 261.666081 
L 322.097968 262.450905 
L 322.635921 279.114143 
L 322.770409 279.460362 
L 322.904897 278.80269 
L 323.173874 268.393762 
L 323.44285 173.138044 
L 323.577338 173.499025 
L 323.711826 173.699994 
L 323.980803 153.56743 
L 324.249779 157.098665 
L 324.384268 159.858886 
L 324.787732 196.022256 
L 325.056709 250.425181 
L 325.325685 259.676397 
L 325.863638 277.459249 
L 325.998126 279.222723 
L 326.132614 279.287967 
L 326.267103 276.081996 
L 326.401591 267.102706 
L 326.670567 165.963184 
L 326.805055 171.905565 
L 326.939544 173.075182 
L 327.20852 159.877935 
L 327.343008 168.003348 
L 327.611985 164.25781 
L 327.746473 169.106769 
L 328.149937 223.681612 
L 328.418914 254.458361 
L 328.68789 267.240812 
L 328.822379 269.688627 
L 328.956867 279.712763 
L 329.225843 280.6576 
L 329.360331 279.812294 
L 329.629308 267.008413 
L 330.032772 178.190829 
L 330.301749 166.877067 
L 330.570725 158.088268 
L 330.839702 179.893347 
L 330.97419 181.102967 
L 331.108678 183.842234 
L 331.781119 259.55734 
L 332.050096 266.704579 
L 332.184584 277.454963 
L 332.319072 278.408849 
L 332.45356 277.745462 
L 332.588049 278.730779 
L 332.857025 266.151201 
L 333.26049 177.560779 
L 333.394978 179.46617 
L 333.663954 164.588789 
L 333.798442 165.778408 
L 333.932931 169.536804 
L 334.336395 187.360611 
L 334.73986 254.942209 
L 335.143325 270.634893 
L 335.277813 270.436782 
L 335.412301 270.533933 
L 335.546789 270.818718 
L 335.681277 270.713947 
L 335.950254 273.289868 
L 336.084742 271.200177 
L 336.622695 254.775053 
L 336.757183 255.567974 
L 336.891671 253.743066 
L 337.295136 260.085954 
L 337.698601 264.807284 
L 337.833089 264.329151 
L 338.102065 268.419002 
L 338.236553 268.187555 
L 338.371042 268.82332 
L 338.50553 266.49361 
L 339.043483 269.644814 
L 339.446947 272.633625 
L 339.581436 272.15311 
L 339.715924 270.986826 
L 339.850412 271.245418 
L 339.9849 270.467261 
L 340.119388 270.354871 
L 340.253877 269.882452 
L 340.388365 271.355904 
L 340.522853 269.371935 
L 340.657341 269.969126 
L 340.926318 269.651481 
L 341.060806 266.321215 
L 341.329782 271.191128 
L 341.464271 271.089692 
L 341.598759 271.616877 
L 341.733247 273.179383 
L 341.867735 280.981912 
L 342.136712 281.083349 
L 342.2712 281.7234 
L 342.540176 269.059529 
L 342.943641 154.172241 
L 343.212617 170.739757 
L 343.347106 170.007317 
L 343.75057 184.356085 
L 343.885058 186.026695 
L 344.019547 185.365689 
L 344.423011 253.081108 
L 345.22994 278.710302 
L 345.364429 279.79134 
L 345.498917 279.424644 
L 345.633405 275.218594 
L 345.767893 267.154615 
L 346.03687 183.114081 
L 346.171358 187.221552 
L 346.440334 173.690946 
L 346.574823 168.333374 
L 346.843799 175.194399 
L 347.112775 177.058358 
L 347.381752 211.450634 
L 347.650728 250.262787 
L 348.054193 268.178506 
L 348.188681 269.357648 
L 348.323169 278.303602 
L 348.457658 279.149384 
L 348.592146 281.015248 
L 348.726634 280.82047 
L 348.99561 267.947059 
L 349.264587 182.066378 
L 349.399075 183.536495 
L 349.668052 166.024142 
L 349.80254 161.922861 
L 350.206004 180.570067 
L 350.340493 181.746828 
L 351.012934 261.717989 
L 351.147422 264.03246 
L 351.550886 280.651885 
L 351.685375 279.941829 
L 351.954351 280.307572 
L 352.088839 278.914127 
L 352.223328 271.644974 
L 352.492304 178.000338 
L 352.626792 185.145195 
L 352.76128 173.807622 
L 352.895769 173.100898 
L 353.030257 164.845952 
L 353.164745 172.036527 
L 353.299233 169.965409 
L 353.56821 152.240658 
L 354.240651 268.31947 
L 354.375139 269.453847 
L 354.644115 275.299552 
L 354.913092 279.561322 
L 355.182068 280.600453 
L 355.316556 278.205023 
L 355.451045 269.103342 
L 355.854509 196.013208 
L 356.123486 157.790149 
L 356.257974 159.498858 
L 356.392462 168.08383 
L 356.52695 167.452351 
L 356.661439 178.027483 
L 356.795927 176.779764 
L 357.33388 264.021983 
L 357.602856 273.590844 
L 357.737344 275.549572 
L 357.871832 279.792293 
L 358.006321 279.21558 
L 358.140809 279.429407 
L 358.275297 280.167085 
L 358.409785 280.079459 
L 358.678762 278.823644 
L 359.082226 260.410266 
L 359.351203 254.522176 
L 359.485691 248.269294 
L 359.620179 258.971103 
L 359.754667 260.381216 
L 359.889156 260.548848 
L 360.427109 274.795703 
L 360.561597 275.473376 
L 360.965061 279.608469 
L 361.234038 279.568942 
L 361.368526 279.377974 
L 361.503014 280.679507 
L 361.771991 280.273284 
L 361.906479 281.600057 
L 362.040967 281.552434 
L 362.175455 281.926749 
L 362.309944 281.967229 
L 362.57892 278.564576 
L 362.713408 278.515524 
L 362.982385 277.384005 
L 363.116873 275.895791 
L 363.251361 275.794354 
L 363.385849 276.88206 
L 363.520337 276.030563 
L 363.654826 275.971035 
L 364.05829 278.749352 
L 364.192778 252.814896 
L 364.730731 259.054919 
L 364.86522 257.862919 
L 364.999708 245.814336 
L 365.134196 223.722568 
L 365.403172 135.631233 
L 365.672149 105.416911 
L 365.806637 99.5112 
L 366.075613 116.4116 
L 366.34459 113.275635 
L 366.479078 124.6775 
L 367.017031 250.73473 
L 367.151519 255.681316 
L 367.286007 253.950701 
L 367.554984 265.281608 
L 367.689472 266.145963 
L 367.958448 271.033021 
L 368.227425 247.532569 
L 368.496401 151.82491 
L 368.765378 100.077436 
L 369.034354 89.203709 
L 369.168842 93.913609 
L 369.303331 93.470241 
L 369.437819 96.830509 
L 369.572307 94.713673 
L 369.706795 110.782102 
L 370.244748 234.310082 
L 370.782701 278.417421 
L 370.917189 278.721731 
L 371.051677 279.611326 
L 371.186166 279.333209 
L 371.455142 264.547263 
L 371.858607 171.493627 
L 372.127583 203.405704 
L 372.262071 199.354428 
L 372.396559 200.777875 
L 372.665536 190.114641 
L 372.800024 193.900658 
L 373.203489 233.517161 
L 373.472465 255.7237 
L 373.87593 276.868726 
L 374.010418 285.867065 
L 374.144906 285.721339 
L 374.279394 286.925245 
L 374.413883 286.4233 
L 374.682859 269.899597 
L 375.220812 180.698649 
L 375.489788 177.077407 
L 375.624277 177.299806 
L 375.893253 183.820804 
L 376.027741 188.107337 
L 376.565694 255.541305 
L 376.83467 264.412015 
L 376.969159 267.242241 
L 377.103647 279.028422 
L 377.238135 277.937859 
L 377.507112 280.00612 
L 377.6416 278.044534 
L 377.776088 281.576245 
L 378.045064 279.433693 
L 378.179553 269.813399 
L 378.314041 269.189063 
L 378.448529 262.103735 
L 378.583017 263.102386 
L 378.717505 262.187075 
L 378.851994 266.688863 
L 378.986482 265.930231 
L 379.12097 266.836494 
L 379.255458 268.991429 
L 379.389947 268.875229 
L 379.927899 278.110254 
L 380.062388 277.904047 
L 380.196876 278.319794 
L 380.331364 268.430908 
L 380.465852 269.107628 
L 380.869317 272.005956 
L 381.138293 261.131752 
L 381.272782 234.090541 
L 381.541758 159.643631 
L 381.810734 139.520116 
L 381.945223 141.108338 
L 382.214199 147.582666 
L 382.348687 139.608218 
L 382.752152 189.369819 
L 383.021128 257.242393 
L 383.155616 265.155407 
L 383.290105 265.816413 
L 383.424593 267.101277 
L 383.559081 262.181836 
L 383.693569 261.471303 
L 383.962546 261.817045 
L 384.097034 263.005235 
L 384.231522 261.224617 
L 384.36601 262.614252 
L 385.038451 148.643227 
L 385.17294 151.081994 
L 385.307428 166.189393 
L 385.576404 160.555609 
L 386.248845 260.083097 
L 386.921286 278.550289 
L 387.055775 277.73689 
L 387.190263 279.01223 
L 387.324751 278.322651 
L 387.459239 278.483617 
L 387.593727 279.970402 
L 387.728216 279.397023 
L 387.862704 280.71189 
L 387.997192 279.544654 
L 388.13168 281.1324 
L 388.266169 280.149941 
L 388.400657 278.167877 
L 388.535145 278.256932 
L 388.669633 277.59545 
L 388.804121 278.732684 
L 388.93861 276.185814 
L 389.207586 278.322651 
L 389.476562 285.001757 
L 389.611051 283.945006 
L 389.745539 284.760309 
L 389.880027 284.708401 
L 390.014515 269.826734 
L 390.283492 270.075325 
L 390.41798 270.085326 
L 390.552468 269.954839 
L 390.686956 264.463447 
L 390.821445 264.648224 
L 390.955933 255.80704 
L 391.224909 199.716838 
L 391.359397 168.377663 
L 391.493886 164.392582 
L 391.762862 175.073437 
L 391.89735 174.530537 
L 392.031839 167.315673 
L 392.166327 171.010731 
L 392.300815 179.98002 
L 392.569791 240.066733 
L 392.70428 266.324072 
L 392.973256 271.161126 
L 393.107744 271.817845 
L 393.376721 264.769662 
L 393.645697 270.481072 
L 393.780185 267.094134 
L 393.914673 268.477102 
L 394.049162 261.0727 
L 394.721603 146.594968 
L 394.990579 145.524406 
L 395.125067 145.104849 
L 395.259556 156.476711 
L 395.394044 157.345828 
L 395.931997 245.390016 
L 396.200973 258.984914 
L 396.335461 255.252234 
L 396.46995 279.997547 
L 396.604438 280.380435 
L 397.007902 283.412106 
L 397.276879 270.369634 
L 397.545855 196.741361 
L 397.680343 191.559518 
L 397.94932 168.20765 
L 398.083808 154.755621 
L 398.218296 167.485211 
L 398.352785 162.723877 
L 398.487273 165.733166 
L 398.487273 165.733166 
" clip-path="url(#p92d42ad61e)" style="fill: none; stroke: #1f77b4; stroke-width: 1.5; stroke-linecap: square"/>
   </g>
   <g id="line2d_13">
    <path d="M 73.832727 283.965578 
L 74.236192 279.362047 
L 74.37068 276.641821 
L 74.505168 277.6315 
L 74.639657 276.602311 
L 74.774145 278.478324 
L 74.908633 266.154727 
L 75.043121 223.286113 
L 75.177609 225.762603 
L 75.446586 248.762511 
L 75.581074 243.624614 
L 75.85005 247.233519 
L 75.984539 248.974914 
L 76.253515 248.286861 
L 76.388003 248.410714 
L 76.65698 276.291373 
L 76.925956 272.387199 
L 77.060444 276.15661 
L 77.194933 262.707552 
L 77.329421 263.973637 
L 77.463909 261.71609 
L 77.598397 266.054716 
L 77.732885 264.784249 
L 77.867374 254.255416 
L 78.001862 229.210899 
L 78.270838 120.422815 
L 78.539815 96.132687 
L 78.674303 115.84447 
L 78.808791 102.248835 
L 78.943279 103.181809 
L 79.077768 102.261812 
L 79.61572 196.864941 
L 79.884697 248.336352 
L 80.288161 268.432123 
L 80.42265 264.522333 
L 80.557138 272.880678 
L 80.691626 270.928771 
L 80.826114 273.432232 
L 81.095091 263.896761 
L 81.229579 245.011157 
L 81.498555 146.123094 
L 81.633044 160.476118 
L 81.90202 155.576731 
L 82.036508 214.686238 
L 82.170996 211.916719 
L 82.439973 217.332583 
L 82.574461 192.944002 
L 82.708949 224.310499 
L 82.843438 224.453241 
L 82.977926 213.401333 
L 83.112414 226.068561 
L 83.246902 212.043252 
L 83.38139 211.860515 
L 83.515879 227.987733 
L 83.784855 265.13449 
L 83.919343 284.937791 
L 84.053831 285.841222 
L 84.18832 281.955095 
L 84.322808 211.853141 
L 84.457296 238.280279 
L 84.591784 211.853141 
L 84.860761 211.853141 
L 84.995249 212.215323 
L 85.264225 165.780968 
L 85.66769 192.720093 
L 85.802178 197.964765 
L 86.071155 234.633406 
L 86.205643 259.017724 
L 86.474619 266.676304 
L 86.609107 263.18057 
L 87.012572 293.841948 
L 87.14706 295.488 
L 87.416037 288.284655 
L 87.685013 285.916087 
L 87.95399 239.645767 
L 88.222966 246.522288 
L 88.357454 255.498745 
L 88.491942 252.402236 
L 88.626431 252.565491 
L 88.760919 255.668034 
L 88.895407 250.186896 
L 89.029895 255.408264 
L 89.164384 255.302506 
L 89.298872 259.11956 
L 89.567848 274.857502 
L 89.702336 272.466934 
L 89.836825 273.863185 
L 89.971313 280.098059 
L 90.105801 257.587694 
L 90.374777 254.005361 
L 90.509266 261.768065 
L 90.643754 262.308549 
L 90.778242 258.394243 
L 90.91273 262.363206 
L 91.047218 255.099118 
L 91.181707 238.373183 
L 91.316195 237.337363 
L 91.450683 233.253557 
L 91.585171 247.33992 
L 91.71966 244.86497 
L 91.854148 251.236862 
L 91.988636 250.009446 
L 92.257612 257.292409 
L 92.392101 257.735729 
L 92.930053 265.309118 
L 93.064542 264.977083 
L 93.19903 269.288425 
L 93.333518 279.453035 
L 93.602495 277.737725 
L 93.871471 270.984826 
L 94.140447 256.882205 
L 94.543912 173.767987 
L 94.947377 154.519447 
L 95.216353 169.822167 
L 95.350841 169.937744 
L 95.48533 165.7191 
L 96.023282 263.215831 
L 96.157771 266.715964 
L 96.292259 264.726992 
L 96.426747 271.976669 
L 96.561235 271.288294 
L 96.830212 266.458806 
L 96.9647 266.938075 
L 97.099188 266.186512 
L 97.233676 262.927437 
L 97.502653 218.337211 
L 97.637141 172.362542 
L 97.771629 174.773897 
L 97.906117 168.615226 
L 98.040606 186.328438 
L 98.175094 176.758792 
L 98.309582 181.016627 
L 98.44407 177.268521 
L 98.713047 195.058775 
L 98.982023 227.188487 
L 99.250999 267.846166 
L 99.385488 269.509199 
L 99.519976 269.126082 
L 99.788952 285.554927 
L 100.057929 281.575837 
L 100.192417 275.737376 
L 100.461393 277.875422 
L 100.595882 276.275346 
L 100.73037 276.996875 
L 100.864858 278.922318 
L 100.999346 278.202464 
L 101.133834 280.223042 
L 101.402811 278.066155 
L 101.537299 270.219344 
L 101.671787 276.285901 
L 101.806276 270.471626 
L 101.940764 269.491516 
L 102.075252 270.064702 
L 102.20974 271.20431 
L 102.344228 270.181543 
L 102.478717 271.283024 
L 102.613205 275.045373 
L 102.747693 272.035913 
L 102.882181 284.659899 
L 103.016669 263.625492 
L 103.151158 261.627529 
L 103.285646 262.937102 
L 103.420134 270.565219 
L 103.823599 249.411054 
L 103.958087 222.235788 
L 104.092575 170.085814 
L 104.361552 153.12356 
L 104.49604 168.648992 
L 104.765016 147.0106 
L 104.899504 150.150659 
L 105.302969 192.295287 
L 105.706434 261.386355 
L 105.840922 261.749608 
L 105.97541 258.000071 
L 106.109898 266.425762 
L 106.378875 288.730137 
L 106.513363 285.973782 
L 106.647851 277.412857 
L 106.782339 280.814735 
L 106.916828 280.110824 
L 107.051316 282.18562 
L 107.320292 224.671196 
L 107.45478 227.403533 
L 107.589269 249.482466 
L 107.723757 251.618554 
L 107.992733 246.742591 
L 108.127222 250.362239 
L 108.530686 247.05275 
L 108.665174 250.216086 
L 108.934151 273.424945 
L 109.068639 274.180475 
L 109.203127 273.933137 
L 109.337615 278.389655 
L 109.472104 271.206814 
L 109.74108 269.889997 
L 109.875568 272.687831 
L 110.010056 270.721337 
L 110.279033 271.483124 
L 110.413521 270.266415 
L 110.548009 270.267984 
L 110.682498 270.98093 
L 110.816986 270.570585 
L 110.951474 269.324631 
L 111.085962 269.525962 
L 111.22045 272.449738 
L 111.354939 272.777762 
L 111.758403 268.557387 
L 112.02738 271.01231 
L 112.161868 270.959332 
L 112.430844 269.512488 
L 112.565333 274.933562 
L 112.699821 258.252525 
L 112.834309 258.485217 
L 112.968797 258.435893 
L 113.103285 264.021632 
L 113.372262 261.189948 
L 113.50675 264.934738 
L 113.641238 265.111887 
L 113.775726 267.564165 
L 113.910215 263.305631 
L 114.044703 264.19948 
L 114.313679 258.007789 
L 114.448168 258.473647 
L 114.717144 260.592414 
L 114.98612 253.643474 
L 115.120609 253.73765 
L 115.389585 258.778003 
L 115.524073 258.98042 
L 115.658561 258.314449 
L 115.79305 263.274245 
L 116.062026 259.93968 
L 116.196514 255.342088 
L 116.331002 263.209452 
L 116.465491 260.477356 
L 116.599979 261.873184 
L 116.734467 239.110539 
L 117.137932 83.680802 
L 117.27242 71.372389 
L 117.406908 84.244216 
L 117.675885 67.066168 
L 117.810373 74.880171 
L 118.213837 149.619931 
L 118.482814 230.315478 
L 118.75179 247.174051 
L 118.886279 249.085565 
L 119.155255 255.419252 
L 119.424231 252.033161 
L 119.55872 250.339825 
L 119.693208 250.781772 
L 119.827696 249.710331 
L 119.962184 231.0563 
L 120.231161 115.679449 
L 120.500137 87.154744 
L 120.634625 95.980124 
L 120.769114 83.544697 
L 120.903602 82.393236 
L 121.03809 82.359008 
L 121.307066 114.242274 
L 121.441555 135.057076 
L 121.845019 242.958611 
L 121.979507 247.711324 
L 122.113996 243.133375 
L 122.651948 258.797726 
L 123.055413 246.143923 
L 123.189901 231.577026 
L 123.593366 97.656463 
L 123.727854 84.943014 
L 123.862342 87.901155 
L 123.996831 82.102388 
L 124.131319 83.408689 
L 124.669272 142.092896 
L 125.072736 244.726062 
L 125.207225 254.256143 
L 125.610689 256.471777 
L 125.879666 269.183189 
L 126.014154 270.025115 
L 126.148642 263.511857 
L 126.417618 235.560641 
L 126.686595 125.855471 
L 126.955571 84.403736 
L 127.09006 88.316888 
L 127.224548 88.012364 
L 127.628012 118.928202 
L 127.896989 157.252204 
L 128.300453 246.59415 
L 128.434942 253.457155 
L 128.56943 252.954571 
L 128.838406 260.902923 
L 128.972894 257.847676 
L 129.107383 259.88765 
L 129.241871 259.547538 
L 129.376359 260.346015 
L 129.645336 218.287466 
L 130.0488 85.431812 
L 130.183288 78.143766 
L 130.317777 89.847121 
L 130.452265 87.240927 
L 130.721241 117.961319 
L 130.855729 123.343257 
L 130.990218 137.097986 
L 131.528171 250.740986 
L 131.797147 258.989883 
L 131.931635 264.567011 
L 132.200612 255.926626 
L 132.3351 259.797199 
L 132.469588 268.693443 
L 132.738564 264.311902 
L 132.873053 260.156082 
L 133.142029 241.006076 
L 133.276517 230.719033 
L 133.411005 233.214057 
L 133.545494 231.59801 
L 133.81447 236.564148 
L 133.948958 238.482551 
L 134.083447 236.671393 
L 134.621399 251.834243 
L 134.755888 255.715847 
L 134.890376 256.208901 
L 135.024864 254.82022 
L 135.159352 260.26421 
L 135.29384 259.66501 
L 135.428329 259.918788 
L 135.562817 259.346406 
L 135.831793 261.298682 
L 135.966282 267.941935 
L 136.10077 267.447632 
L 136.235258 262.979724 
L 136.369746 263.456862 
L 136.504234 264.711702 
L 136.638723 260.394475 
L 136.907699 261.477058 
L 137.042187 264.351549 
L 137.311164 255.863272 
L 137.445652 256.242899 
L 137.58014 258.833587 
L 137.714628 257.138215 
L 138.118093 260.241603 
L 138.252581 257.950153 
L 138.521558 266.000887 
L 138.790534 258.967944 
L 138.925022 259.734173 
L 139.05951 262.11956 
L 139.328487 228.378349 
L 139.597463 112.892014 
L 139.86644 75.554907 
L 140.000928 90.452217 
L 140.135416 81.490295 
L 140.269904 87.187989 
L 140.404393 101.049275 
L 141.211322 248.1501 
L 141.480298 253.973569 
L 141.749275 265.14978 
L 142.152739 261.703012 
L 142.287228 257.060184 
L 142.690692 159.671419 
L 142.959669 87.350953 
L 143.094157 87.86106 
L 143.228645 97.979328 
L 143.363133 86.784367 
L 143.497621 89.157814 
L 143.63211 89.05474 
L 143.766598 101.728497 
L 144.439039 245.96974 
L 144.708015 257.360968 
L 144.842504 266.493413 
L 144.976992 266.664425 
L 145.245968 260.993338 
L 145.380456 262.882634 
L 145.514945 253.37062 
L 146.187386 94.529542 
L 146.321874 86.033951 
L 146.456362 106.854791 
L 146.59085 107.284927 
L 146.725339 112.740783 
L 146.859827 108.335024 
L 147.263291 155.816754 
L 147.532268 242.506366 
L 147.801244 254.497747 
L 148.204709 267.565759 
L 148.87715 255.387929 
L 149.146126 163.080377 
L 149.415103 106.321312 
L 149.684079 113.035422 
L 149.818567 105.629892 
L 149.953056 110.177648 
L 150.625497 202.762732 
L 150.894473 250.864203 
L 151.297938 267.257397 
L 151.566914 262.801395 
L 151.701402 265.416176 
L 151.970379 263.632195 
L 152.104867 259.050617 
L 152.64282 99.698627 
L 152.911796 118.998287 
L 153.046285 99.521495 
L 153.315261 114.838924 
L 153.584237 167.635941 
L 153.987702 247.72876 
L 154.256678 270.090333 
L 154.391167 266.603503 
L 154.525655 274.484264 
L 154.660143 271.383174 
L 154.794631 273.591286 
L 154.92912 271.024215 
L 155.063608 270.707949 
L 155.198096 271.920508 
L 155.332584 274.204273 
L 155.467072 272.142998 
L 155.601561 262.894832 
L 155.736049 244.898587 
L 156.139513 258.23706 
L 156.274002 256.036901 
L 156.542978 258.126294 
L 156.677466 261.463285 
L 156.811955 261.345207 
L 157.484396 269.560946 
L 157.618884 267.5283 
L 157.753372 272.617865 
L 157.88786 271.979729 
L 158.022348 272.48102 
L 158.291325 269.850595 
L 158.425813 271.482316 
L 158.694789 277.907021 
L 158.829278 273.911216 
L 159.098254 274.895561 
L 159.367231 273.566184 
L 159.501719 275.627476 
L 159.636207 274.704603 
L 159.905183 266.603549 
L 160.039672 268.165779 
L 160.17416 265.339199 
L 160.308648 265.581725 
L 160.443136 264.567457 
L 160.577624 268.348442 
L 160.846601 263.68451 
L 160.981089 267.154057 
L 161.115577 266.927839 
L 161.250066 269.960343 
L 161.65353 264.450761 
L 161.922507 232.591024 
L 162.325971 98.514185 
L 162.460459 77.57346 
L 162.594948 93.525289 
L 162.729436 92.512676 
L 162.863924 84.601188 
L 163.267389 132.191031 
L 163.536365 195.199347 
L 163.805342 247.141426 
L 164.074318 252.674536 
L 164.208806 262.570637 
L 164.343294 263.119512 
L 164.477783 271.376943 
L 164.612271 272.225738 
L 164.746759 274.601762 
L 165.150224 224.818396 
L 165.553688 105.844217 
L 165.688177 115.89817 
L 165.822665 114.264829 
L 165.957153 107.201228 
L 166.091641 106.378297 
L 166.226129 112.295771 
L 166.360618 112.128527 
L 166.495106 118.289127 
L 166.629594 135.438832 
L 166.89857 237.592569 
L 167.033059 247.584288 
L 167.167547 247.721804 
L 167.302035 248.285768 
L 167.571012 258.058819 
L 167.7055 258.993147 
L 167.839988 262.300104 
L 167.974476 262.551917 
L 168.108964 261.151128 
L 168.243453 247.55781 
L 168.377941 220.805267 
L 168.781405 97.163568 
L 169.050382 107.811204 
L 169.18487 98.05761 
L 169.319358 100.564528 
L 169.453847 95.274927 
L 169.588335 104.957874 
L 170.395264 256.432267 
L 170.529752 256.265812 
L 170.798729 264.589354 
L 171.067705 260.832885 
L 171.202193 259.104198 
L 171.336681 262.413836 
L 171.740146 167.198754 
L 172.009123 99.539959 
L 172.278099 111.181579 
L 172.547075 93.236716 
L 172.816052 122.858945 
L 173.219516 198.709322 
L 173.488493 250.724696 
L 173.891958 267.942597 
L 174.026446 280.884913 
L 174.295422 277.802644 
L 174.42991 270.516632 
L 174.564399 272.876276 
L 174.967863 216.052626 
L 175.23684 157.703693 
L 175.505816 141.485253 
L 175.640304 141.144645 
L 175.774792 152.13236 
L 175.909281 153.221165 
L 176.043769 158.748703 
L 176.312745 181.143834 
L 176.447234 202.080923 
L 176.71621 256.060183 
L 176.985186 264.384705 
L 177.119675 269.079791 
L 177.388651 265.545612 
L 177.523139 265.691575 
L 177.657627 267.008188 
L 177.926604 271.250541 
L 178.061092 271.005332 
L 178.330069 252.688095 
L 178.464557 253.206841 
L 178.733533 249.687117 
L 178.868021 250.873691 
L 179.00251 257.894767 
L 179.271486 255.77975 
L 179.540462 257.238588 
L 179.674951 257.249438 
L 179.943927 262.623981 
L 180.078415 266.781693 
L 180.212904 263.838753 
L 180.616368 278.075851 
L 180.750856 276.888526 
L 180.885345 271.24585 
L 181.019833 271.703922 
L 181.154321 271.564804 
L 181.557786 255.426371 
L 181.692274 258.882031 
L 181.826762 258.291047 
L 181.96125 263.206928 
L 182.095738 255.956613 
L 182.499203 269.095592 
L 182.633691 269.439381 
L 182.76818 272.679303 
L 183.037156 271.240307 
L 183.171644 274.620537 
L 183.306132 274.762008 
L 183.440621 274.393364 
L 183.575109 278.837187 
L 183.709597 273.907735 
L 183.978573 288.238477 
L 184.113062 291.279631 
L 184.516526 259.368463 
L 184.785503 183.736619 
L 184.919991 177.15568 
L 185.054479 177.100794 
L 185.188967 183.18672 
L 185.323456 175.670616 
L 185.72692 191.538599 
L 186.53385 266.141534 
L 186.668338 266.368935 
L 186.937314 282.545229 
L 187.071802 292.460961 
L 187.206291 293.565179 
L 187.609755 279.673879 
L 187.744243 267.590339 
L 188.01322 183.449288 
L 188.147708 182.701093 
L 188.282196 183.551546 
L 188.551173 181.283628 
L 189.223614 217.664991 
L 189.627078 268.850531 
L 189.761567 267.810402 
L 189.896055 265.569342 
L 190.030543 276.721263 
L 190.434008 267.471184 
L 190.702984 265.503929 
L 190.837472 266.802424 
L 190.971961 269.627604 
L 191.106449 269.352169 
L 191.240937 263.254096 
L 191.375425 263.547143 
L 191.509913 266.300166 
L 191.644402 263.394001 
L 191.77889 266.189774 
L 191.913378 266.342502 
L 192.047866 268.193873 
L 192.182354 263.21737 
L 192.316843 263.259498 
L 192.585819 264.98378 
L 192.720307 265.826537 
L 192.854796 270.330963 
L 192.989284 269.732521 
L 193.123772 268.517964 
L 193.25826 271.71264 
L 193.527237 264.71777 
L 193.661725 265.707759 
L 193.796213 265.717484 
L 193.930701 265.441237 
L 194.199678 247.513405 
L 194.468654 167.868641 
L 194.73763 152.755687 
L 194.872119 150.876682 
L 195.006607 144.187946 
L 195.410072 152.479492 
L 195.679048 179.69596 
L 195.948024 240.073426 
L 196.082513 260.952435 
L 196.217001 262.285097 
L 196.351489 261.512699 
L 196.485977 266.429452 
L 196.620465 276.406625 
L 196.889442 272.008932 
L 197.02393 265.339406 
L 197.158418 267.611295 
L 197.292907 263.45595 
L 197.427395 251.041729 
L 197.696371 179.239024 
L 197.965348 184.631002 
L 198.099836 195.354947 
L 198.234324 189.721323 
L 198.368812 198.979353 
L 198.5033 193.308713 
L 198.637789 193.754682 
L 198.906765 217.738167 
L 199.31023 275.765473 
L 199.444718 275.855255 
L 199.579206 273.899836 
L 199.848183 284.901492 
L 200.251647 277.101705 
L 200.386135 274.381 
L 200.520624 263.220625 
L 200.655112 261.866483 
L 200.7896 239.759968 
L 200.924088 180.448859 
L 201.058576 181.63389 
L 201.193065 185.830369 
L 201.327553 199.991429 
L 201.462041 189.825311 
L 201.596529 198.182056 
L 201.731018 191.968767 
L 201.865506 194.490501 
L 201.999994 200.415626 
L 202.537947 273.195283 
L 202.806923 270.246792 
L 202.941411 276.715674 
L 203.210388 261.138142 
L 203.479364 266.994462 
L 203.882829 245.153876 
L 204.286294 156.41653 
L 204.420782 156.834301 
L 204.55527 160.558448 
L 204.689758 154.325515 
L 204.824246 160.3171 
L 204.958735 157.583654 
L 205.362199 210.882848 
L 205.631176 245.78272 
L 205.900152 265.578039 
L 206.03464 261.441899 
L 206.169129 268.5412 
L 206.303617 284.673189 
L 206.572593 287.10288 
L 206.707081 281.498413 
L 206.84157 283.144607 
L 206.976058 281.589423 
L 207.514011 255.125134 
L 207.648499 258.736442 
L 208.051964 274.679994 
L 208.186452 273.577876 
L 208.455428 268.224763 
L 208.858893 276.024948 
L 208.993381 276.490886 
L 209.127869 277.901185 
L 209.262357 277.006557 
L 209.396846 282.344036 
L 209.531334 271.393871 
L 209.665822 270.843781 
L 209.80031 268.79091 
L 209.934799 271.000112 
L 210.069287 270.108714 
L 210.338263 247.997396 
L 210.741728 147.665097 
L 211.010704 123.245056 
L 211.145192 115.809364 
L 211.279681 133.12246 
L 211.414169 135.696634 
L 212.221098 259.260792 
L 212.355586 261.715523 
L 212.490075 259.403506 
L 212.759051 272.053164 
L 212.893539 275.966001 
L 213.162516 268.282676 
L 213.297004 269.937057 
L 213.56598 237.684239 
L 213.834957 129.602079 
L 213.969445 120.128885 
L 214.238421 141.257797 
L 214.37291 135.382516 
L 214.507398 140.233194 
L 214.910862 187.630796 
L 215.045351 197.393631 
L 215.448815 270.827061 
L 215.717792 264.514256 
L 215.986768 271.758313 
L 216.390233 267.945309 
L 216.524721 269.635056 
L 216.659209 261.46971 
L 216.793697 246.432375 
L 217.062674 141.165496 
L 217.197162 135.490542 
L 217.466138 151.24267 
L 217.600627 156.924572 
L 217.869603 148.990394 
L 218.004091 158.544998 
L 218.542044 254.045888 
L 218.811021 271.184137 
L 218.945509 271.397372 
L 219.214485 268.627144 
L 219.348973 268.095921 
L 219.483462 274.943063 
L 219.61795 275.188172 
L 219.752438 276.094231 
L 220.021414 246.714448 
L 220.290391 143.416578 
L 220.693856 153.594198 
L 220.828344 144.587522 
L 220.962832 157.108093 
L 221.09732 157.833216 
L 221.366297 193.926935 
L 222.038738 269.060694 
L 222.173226 269.17051 
L 222.307714 274.203 
L 222.442202 273.51316 
L 222.576691 273.636358 
L 222.711179 277.773749 
L 222.845667 277.844569 
L 222.980155 277.750486 
L 223.114643 273.191936 
L 223.249132 276.111965 
L 223.518108 243.13381 
L 223.787084 259.063044 
L 223.921573 257.38905 
L 224.056061 250.673747 
L 224.594014 260.024835 
L 224.728502 259.435428 
L 224.86299 257.900031 
L 225.131967 262.246669 
L 225.266455 262.359765 
L 225.400943 260.263146 
L 225.535431 265.140556 
L 225.804408 258.030994 
L 226.207872 267.854699 
L 226.34236 266.880084 
L 226.476849 268.495879 
L 226.880313 260.953599 
L 227.14929 270.219058 
L 227.283778 271.855669 
L 227.418266 269.641689 
L 227.687243 274.786819 
L 227.821731 275.618228 
L 227.956219 274.431638 
L 228.090707 274.538775 
L 228.225195 279.293852 
L 228.62866 275.733839 
L 228.763148 281.38603 
L 228.897637 279.207056 
L 229.166613 272.678378 
L 229.301101 272.048221 
L 229.435589 272.39299 
L 229.570078 259.697135 
L 229.704566 232.751662 
L 230.10803 108.992007 
L 230.242519 93.052917 
L 230.377007 101.10489 
L 230.511495 90.336942 
L 231.183936 174.164473 
L 231.587401 254.639735 
L 231.856377 260.973592 
L 232.125354 272.928593 
L 232.259842 271.448758 
L 232.528818 272.952443 
L 232.663306 269.869603 
L 232.932283 234.133451 
L 233.335748 118.167113 
L 233.470236 117.244231 
L 233.604724 136.812497 
L 233.739212 132.331612 
L 233.8737 142.050859 
L 234.008189 128.928478 
L 234.277165 171.737844 
L 234.68063 245.918553 
L 234.815118 266.903775 
L 234.949606 269.77285 
L 235.084094 264.063768 
L 235.218583 271.585012 
L 235.353071 271.995962 
L 235.622047 278.991429 
L 235.756535 277.537177 
L 235.891024 273.617969 
L 236.16 247.534883 
L 236.428976 135.780077 
L 236.563465 119.942789 
L 236.832441 126.085791 
L 236.966929 117.28993 
L 237.101417 123.29891 
L 237.370394 158.280317 
L 237.504882 170.865993 
L 238.042835 267.752257 
L 238.177323 269.814916 
L 238.311811 265.823386 
L 238.4463 273.018368 
L 238.580788 273.707429 
L 238.715276 275.618364 
L 238.984252 283.520026 
L 239.118741 280.173442 
L 239.253229 270.691005 
L 239.387717 243.53435 
L 239.656694 143.781625 
L 239.92567 121.992399 
L 240.060158 135.407847 
L 240.194646 135.121444 
L 240.329135 141.77501 
L 240.867087 197.058912 
L 241.270552 259.381023 
L 241.40504 262.090656 
L 241.539529 258.658314 
L 241.674017 267.844175 
L 241.808505 264.449916 
L 241.942993 277.273236 
L 242.077481 278.089462 
L 242.21197 287.299602 
L 242.346458 280.138394 
L 242.615434 241.834544 
L 242.884411 141.145285 
L 243.018899 139.368971 
L 243.153387 155.293048 
L 243.287875 157.219531 
L 243.422363 140.117099 
L 243.69134 151.750213 
L 243.960316 179.121291 
L 244.229293 235.632983 
L 244.498269 261.407834 
L 244.632757 266.199079 
L 244.767246 264.742127 
L 244.901734 272.881614 
L 245.036222 273.96864 
L 245.17071 276.842865 
L 245.305198 276.17124 
L 245.439687 274.43166 
L 245.708663 267.834472 
L 245.843151 245.647393 
L 245.97764 256.07879 
L 246.112128 255.225107 
L 246.246616 261.561589 
L 246.381104 253.831017 
L 246.515592 254.543318 
L 246.650081 256.87323 
L 247.053545 269.440104 
L 247.188033 268.847632 
L 247.322522 271.276922 
L 247.45701 271.359831 
L 247.591498 272.379497 
L 247.725986 271.710364 
L 247.860475 273.749294 
L 247.994963 272.301596 
L 248.129451 277.152788 
L 248.667404 269.479636 
L 248.801892 271.980876 
L 248.93638 270.761453 
L 249.070868 271.801636 
L 249.205357 271.903623 
L 249.474333 274.554579 
L 249.743309 274.706081 
L 250.012286 276.421692 
L 250.146774 276.491362 
L 250.281262 275.534152 
L 250.415751 275.934231 
L 250.550239 275.646808 
L 250.819215 274.029843 
L 251.088192 273.18669 
L 251.22268 271.240268 
L 251.357168 276.625334 
L 251.491656 274.513725 
L 251.626144 286.375168 
L 251.760633 284.682335 
L 251.895121 284.788727 
L 252.029609 277.954834 
L 252.298586 256.079212 
L 252.567562 147.317295 
L 252.70205 132.79648 
L 252.836538 139.910908 
L 252.971027 162.633788 
L 253.105515 154.984537 
L 253.643468 182.746606 
L 254.181421 265.195339 
L 254.584885 284.409097 
L 254.719373 283.514029 
L 254.853862 285.958441 
L 254.98835 284.707891 
L 255.122838 285.210626 
L 255.257326 282.904702 
L 255.526303 245.187358 
L 255.795279 155.656101 
L 255.929767 159.100864 
L 256.064255 166.90216 
L 256.198744 166.023403 
L 256.333232 154.499838 
L 256.736697 169.451064 
L 257.274649 248.466077 
L 257.543626 263.605175 
L 257.678114 260.022182 
L 257.812602 269.732338 
L 257.94709 266.39991 
L 258.216067 284.553733 
L 258.350555 285.567254 
L 258.619532 262.322326 
L 258.75402 248.656694 
L 259.022996 154.582624 
L 259.426461 168.044331 
L 259.560949 148.629931 
L 259.829925 167.961405 
L 259.964414 166.600008 
L 260.098902 177.206686 
L 260.636855 257.017046 
L 260.771343 261.352214 
L 260.905831 261.180573 
L 261.040319 267.684565 
L 261.174808 265.773286 
L 261.443784 270.812102 
L 261.578272 274.284667 
L 261.847249 263.309402 
L 261.981737 237.401448 
L 262.250713 145.045083 
L 262.385201 158.124931 
L 262.51969 158.581625 
L 262.788666 143.623044 
L 262.923154 154.170989 
L 263.057643 154.114157 
L 263.864572 249.31735 
L 263.99906 254.878271 
L 264.133548 254.472791 
L 264.402525 268.391095 
L 264.537013 264.431814 
L 264.671501 265.70152 
L 264.805989 260.305988 
L 264.940478 259.698671 
L 265.074966 254.86895 
L 265.209454 240.275455 
L 265.747407 113.62844 
L 265.881895 109.977016 
L 266.016383 113.325587 
L 266.150871 119.834786 
L 266.28536 115.354947 
L 266.554336 134.5467 
L 267.092289 250.902144 
L 267.226777 254.562555 
L 267.361265 253.583055 
L 267.495754 258.41073 
L 267.630242 272.341302 
L 267.76473 270.275735 
L 267.899218 272.428446 
L 268.033706 263.327614 
L 268.302683 272.906614 
L 268.437171 274.269379 
L 268.571659 267.235706 
L 268.840636 272.112169 
L 269.109612 269.535082 
L 269.2441 269.860116 
L 269.378589 271.27683 
L 269.782053 263.801202 
L 269.916541 263.649323 
L 270.05103 261.837207 
L 270.185518 262.155147 
L 270.454494 261.296338 
L 270.588982 262.390444 
L 270.723471 269.230054 
L 270.857959 283.756195 
L 270.992447 283.474479 
L 271.126935 280.332041 
L 271.261424 272.857739 
L 271.395912 272.678901 
L 271.5304 272.760634 
L 271.799376 274.577661 
L 271.933865 277.369595 
L 272.068353 275.196457 
L 272.202841 277.367025 
L 272.337329 277.072607 
L 272.471817 279.610696 
L 272.606306 278.94531 
L 272.740794 277.718389 
L 273.00977 280.480414 
L 273.144258 280.397694 
L 273.278747 277.553143 
L 273.413235 277.447629 
L 273.547723 277.875731 
L 273.682211 277.526249 
L 273.8167 275.75505 
L 273.951188 281.305678 
L 274.085676 278.256035 
L 274.220164 290.654175 
L 274.354652 291.196658 
L 274.489141 292.810004 
L 274.892605 256.650935 
L 275.161582 184.412523 
L 275.430558 162.904227 
L 275.699535 153.858045 
L 275.834023 156.236374 
L 276.640952 252.611334 
L 276.909928 267.985782 
L 277.044417 267.387617 
L 277.178905 279.168242 
L 277.313393 276.643181 
L 277.447881 285.285415 
L 277.58237 282.38961 
L 277.716858 288.077484 
L 277.985834 274.524508 
L 278.120322 253.729369 
L 278.389299 187.97896 
L 278.927252 172.056033 
L 279.06174 190.898139 
L 279.196228 187.209346 
L 279.465204 205.226938 
L 280.003157 271.991981 
L 280.137646 273.590479 
L 280.272134 272.50317 
L 280.406622 280.383598 
L 280.675598 264.611902 
L 280.810087 261.478081 
L 280.944575 265.91426 
L 281.079063 262.258278 
L 281.348039 245.779804 
L 281.751504 133.697201 
L 281.885992 118.922825 
L 282.289457 142.06258 
L 282.423945 122.329656 
L 282.692922 151.748479 
L 283.096386 249.552726 
L 283.365363 264.548554 
L 283.499851 261.058038 
L 283.634339 267.425112 
L 284.037804 257.383664 
L 284.172292 258.144314 
L 284.30678 256.807995 
L 284.575757 244.620486 
L 284.979221 146.398464 
L 285.113709 152.97013 
L 285.248198 141.94159 
L 285.382686 141.463683 
L 285.517174 135.100127 
L 285.651662 148.942193 
L 285.78615 151.227012 
L 285.920639 164.23751 
L 286.458592 260.719535 
L 286.59308 261.270801 
L 286.727568 260.808643 
L 286.862056 265.448555 
L 286.996544 285.395455 
L 287.265521 283.525769 
L 287.400009 272.728504 
L 287.668985 270.303219 
L 287.803474 266.552362 
L 287.937962 269.521513 
L 288.07245 269.702009 
L 288.206938 271.746158 
L 288.341427 268.75129 
L 288.475915 270.694981 
L 288.610403 268.705572 
L 288.744891 270.291385 
L 288.879379 269.428103 
L 289.013868 273.954547 
L 289.148356 274.633135 
L 289.282844 272.602734 
L 289.55182 278.73375 
L 289.686309 278.727743 
L 289.955285 276.103767 
L 290.089773 280.97551 
L 290.224262 277.670282 
L 290.35875 278.088614 
L 290.493238 274.649092 
L 290.627726 275.948284 
L 290.762214 270.933186 
L 291.165679 238.69846 
L 291.434655 168.827031 
L 291.569144 174.805177 
L 291.703632 188.891781 
L 291.83812 189.115572 
L 292.107096 180.528316 
L 292.510561 212.062214 
L 292.914026 269.740219 
L 293.048514 268.940193 
L 293.183002 267.497776 
L 293.31749 273.068819 
L 293.720955 264.698141 
L 293.855443 267.624772 
L 293.989931 266.034573 
L 294.258908 247.756278 
L 294.796861 156.566137 
L 294.931349 156.296545 
L 295.065837 141.951144 
L 295.200325 145.048455 
L 295.469302 154.98506 
L 296.141743 263.146473 
L 296.276231 263.051362 
L 296.410719 257.514868 
L 296.545208 266.785823 
L 296.679696 287.092936 
L 296.814184 289.504076 
L 296.948672 288.143536 
L 297.08316 279.013967 
L 297.217649 280.274337 
L 297.352137 279.884319 
L 297.486625 280.436835 
L 297.621113 281.60475 
L 297.755601 281.582172 
L 297.89009 282.266153 
L 298.159066 279.548976 
L 298.428042 279.951702 
L 298.562531 279.093118 
L 298.697019 276.413328 
L 298.965995 276.000902 
L 299.100484 276.987529 
L 299.234972 276.575501 
L 299.36946 277.073665 
L 299.503948 276.543391 
L 299.638436 274.93988 
L 299.772925 281.186318 
L 299.907413 265.967671 
L 300.041901 268.870597 
L 300.176389 265.069461 
L 300.310877 271.69603 
L 300.445366 266.702481 
L 300.714342 245.02011 
L 301.117807 146.734734 
L 301.386783 125.569813 
L 301.521271 131.056137 
L 301.65576 142.034468 
L 301.790248 137.944587 
L 301.924736 149.705244 
L 302.597177 255.216914 
L 302.731665 260.125858 
L 302.866153 256.678498 
L 303.13513 271.150479 
L 303.269618 270.03819 
L 303.404106 264.621876 
L 303.673083 264.974524 
L 304.076547 197.799461 
L 304.211036 157.163025 
L 304.345524 155.484112 
L 304.6145 156.810319 
L 304.748988 150.242927 
L 304.883477 160.044931 
L 305.017965 154.077982 
L 305.286941 184.224754 
L 305.555918 222.932024 
L 305.824894 256.767079 
L 305.959382 265.573197 
L 306.093871 261.973249 
L 306.228359 270.480234 
L 306.362847 267.005326 
L 306.497335 277.789571 
L 306.631823 277.460591 
L 306.766312 277.461974 
L 307.035288 263.803186 
L 307.169776 244.763913 
L 307.438753 146.476211 
L 307.707729 166.114401 
L 307.842217 161.707951 
L 307.976706 151.839535 
L 308.111194 162.046148 
L 308.245682 157.529239 
L 308.514658 185.537977 
L 309.052611 264.646774 
L 309.187099 268.327584 
L 309.321588 266.298707 
L 309.456076 274.801692 
L 309.590564 274.858316 
L 309.725052 277.049479 
L 309.859541 275.251448 
L 309.994029 275.840077 
L 310.128517 272.873375 
L 310.263005 265.703341 
L 310.397493 241.654487 
L 310.66647 146.281872 
L 310.935446 165.733087 
L 311.069934 165.169698 
L 311.204423 153.243811 
L 311.473399 165.194635 
L 311.607887 163.756984 
L 312.414817 265.268991 
L 312.549305 262.034265 
L 312.683793 270.109701 
L 312.818281 270.203478 
L 312.952769 271.788852 
L 313.087258 268.168716 
L 313.221746 268.69565 
L 313.356234 266.079552 
L 313.490722 268.963433 
L 313.894187 238.073959 
L 314.028675 248.599024 
L 314.163163 249.460813 
L 314.297652 255.657562 
L 314.43214 250.49758 
L 314.701116 261.363854 
L 315.104581 269.761874 
L 315.239069 269.942396 
L 315.373557 269.683821 
L 315.508045 271.555765 
L 315.777022 269.606079 
L 315.91151 273.508816 
L 316.045998 272.986566 
L 316.180487 271.299779 
L 316.314975 271.413015 
L 316.449463 268.144265 
L 316.583951 268.377897 
L 316.718439 267.397183 
L 316.852928 269.803529 
L 316.987416 269.980588 
L 317.121904 269.158061 
L 317.256392 269.744778 
L 317.39088 269.415636 
L 317.525369 271.658663 
L 317.659857 270.629877 
L 317.794345 273.789292 
L 317.928833 272.149307 
L 318.063322 273.118103 
L 318.19781 272.15158 
L 318.332298 272.734274 
L 318.466786 270.883393 
L 318.601274 270.741931 
L 319.004739 267.429184 
L 319.139227 272.700594 
L 319.273715 270.031351 
L 319.408204 282.522797 
L 319.67718 281.691453 
L 319.946157 270.561206 
L 320.080645 255.546954 
L 320.349621 145.589193 
L 320.618598 126.673368 
L 320.887574 144.340255 
L 321.560015 199.498252 
L 322.097968 267.703664 
L 322.232456 262.630481 
L 322.366944 271.080485 
L 322.501433 269.64218 
L 322.635921 282.296442 
L 322.904897 281.05271 
L 323.308362 257.95567 
L 323.577338 150.809018 
L 323.711826 154.047545 
L 323.846315 171.338215 
L 324.115291 149.183985 
L 324.518756 166.640295 
L 325.191197 263.505085 
L 325.325685 265.428716 
L 325.460173 260.697348 
L 325.594661 269.422916 
L 325.72915 269.30397 
L 325.863638 278.843352 
L 326.132614 281.200504 
L 326.401591 269.745769 
L 326.536079 253.927375 
L 326.805055 143.443378 
L 327.074032 169.713935 
L 327.343008 153.375803 
L 327.611985 167.056026 
L 327.746473 170.524243 
L 327.880961 181.115963 
L 328.149937 227.969921 
L 328.418914 255.770191 
L 328.553402 263.075164 
L 328.68789 263.770361 
L 328.822379 274.646924 
L 328.956867 274.27511 
L 329.091355 284.307349 
L 329.225843 282.379393 
L 329.360331 282.12469 
L 329.763796 252.291193 
L 330.032772 159.733972 
L 330.167261 160.049007 
L 330.301749 170.091488 
L 330.436237 165.95905 
L 330.570725 157.038414 
L 330.705214 156.488456 
L 330.97419 186.467698 
L 331.243166 200.148942 
L 331.646631 262.312615 
L 331.781119 264.085502 
L 331.915607 261.612927 
L 332.319072 282.456721 
L 332.45356 282.002529 
L 332.722537 273.375819 
L 332.991513 252.494604 
L 333.26049 155.230599 
L 333.394978 159.22838 
L 333.529466 174.687979 
L 333.798442 159.648143 
L 333.932931 163.550401 
L 334.201907 183.398083 
L 334.470883 205.366715 
L 334.874348 265.365481 
L 335.143325 266.148847 
L 335.277813 277.015799 
L 335.815766 266.590411 
L 336.084742 268.881742 
L 336.21923 265.508848 
L 336.488207 252.856742 
L 336.757183 247.629308 
L 337.429624 262.331851 
L 337.833089 266.971513 
L 337.967577 266.560585 
L 338.102065 268.648377 
L 338.236553 268.734849 
L 338.371042 267.326113 
L 338.50553 271.778274 
L 338.640018 266.105244 
L 338.908995 264.13946 
L 339.043483 264.482351 
L 339.177971 264.285552 
L 339.581436 268.051204 
L 339.850412 266.339938 
L 340.253877 269.621073 
L 340.388365 269.614805 
L 340.522853 272.175906 
L 340.657341 270.617039 
L 340.791829 271.617128 
L 340.926318 271.215984 
L 341.060806 271.477238 
L 341.195294 268.095869 
L 341.464271 270.944887 
L 341.598759 269.134597 
L 341.733247 274.903621 
L 341.867735 274.49887 
L 342.002223 283.83991 
L 342.2712 281.464119 
L 342.405688 277.10047 
L 342.674664 255.882508 
L 343.078129 137.343805 
L 343.347106 169.423988 
L 343.481594 164.1538 
L 343.75057 179.057397 
L 344.019547 197.179604 
L 344.154035 202.628048 
L 344.423011 254.836022 
L 344.557499 264.003846 
L 344.691988 262.941927 
L 344.826476 265.420828 
L 344.960964 276.019097 
L 345.095452 275.372424 
L 345.22994 281.195072 
L 345.364429 280.12914 
L 345.498917 280.700891 
L 345.767893 269.603814 
L 345.902382 256.582544 
L 346.171358 159.537832 
L 346.440334 173.601075 
L 346.574823 171.332542 
L 346.709311 163.666231 
L 347.112775 182.963869 
L 347.247264 188.849745 
L 347.785217 261.429809 
L 348.054193 264.363017 
L 348.188681 274.796868 
L 348.323169 272.747685 
L 348.457658 282.569324 
L 348.592146 281.072063 
L 348.726634 283.452036 
L 348.99561 266.782668 
L 349.130099 252.639493 
L 349.399075 158.396545 
L 349.668052 166.072543 
L 349.80254 164.053671 
L 349.937028 157.534497 
L 350.474981 192.914253 
L 350.878445 249.977336 
L 351.147422 266.004934 
L 351.28191 265.616939 
L 351.416398 275.387076 
L 351.550886 273.813307 
L 351.685375 286.139617 
L 352.223328 273.474729 
L 352.357816 259.553789 
L 352.626792 153.690651 
L 352.895769 173.210681 
L 353.030257 172.069526 
L 353.164745 158.894208 
L 353.299233 170.480296 
L 353.433721 171.105396 
L 353.56821 170.261956 
L 353.702698 165.744954 
L 354.240651 266.746277 
L 354.375139 268.857514 
L 354.509627 268.211066 
L 354.778604 277.596104 
L 354.913092 281.239616 
L 355.182068 279.117156 
L 355.316556 276.873507 
L 355.451045 272.122033 
L 355.585533 254.953771 
L 355.854509 177.316966 
L 355.988998 177.401124 
L 356.123486 169.223961 
L 356.257974 154.154762 
L 356.392462 157.109984 
L 356.52695 166.877247 
L 356.661439 168.544704 
L 357.199391 234.33123 
L 357.468368 271.468237 
L 357.602856 272.804665 
L 357.737344 271.149583 
L 358.006321 282.85199 
L 358.409785 276.357215 
L 358.544274 276.280062 
L 358.81325 272.928806 
L 359.082226 253.302223 
L 359.216715 247.479048 
L 359.351203 250.986636 
L 359.485691 249.648187 
L 359.620179 244.715239 
L 359.889156 262.105511 
L 360.158132 264.411152 
L 360.427109 275.329289 
L 360.561597 274.453405 
L 360.696085 274.350513 
L 360.965061 275.398573 
L 361.09955 282.720687 
L 361.368526 277.876044 
L 361.503014 275.652568 
L 361.637502 277.155678 
L 361.906479 276.216803 
L 362.309944 280.414223 
L 362.444432 280.287401 
L 362.713408 277.541168 
L 363.116873 279.250507 
L 363.251361 278.818915 
L 363.520337 279.833917 
L 364.05829 276.060945 
L 364.192778 282.230253 
L 364.327267 244.642665 
L 364.596243 239.47867 
L 364.730731 253.674292 
L 364.86522 252.29728 
L 364.999708 248.252909 
L 365.268684 189.518384 
L 365.537661 119.920425 
L 365.672149 102.854666 
L 365.941125 108.702842 
L 366.075613 108.242293 
L 366.479078 128.535394 
L 366.613566 152.536605 
L 366.882543 240.128255 
L 367.151519 254.292588 
L 367.286007 256.277358 
L 367.554984 265.451262 
L 367.82396 268.135672 
L 367.958448 267.172933 
L 368.092937 267.930751 
L 368.63089 133.748857 
L 368.765378 92.282541 
L 368.899866 91.275459 
L 369.034354 100.211148 
L 369.168842 95.717697 
L 369.303331 85.753651 
L 369.437819 89.991692 
L 369.706795 111.282467 
L 369.975772 191.37189 
L 370.11026 238.009725 
L 370.379236 247.641048 
L 370.513724 248.591159 
L 370.917189 285.379204 
L 371.051677 285.521581 
L 371.186166 274.832877 
L 371.320654 275.354729 
L 371.58963 246.911132 
L 371.858607 158.524116 
L 371.993095 154.831703 
L 372.262071 204.036334 
L 372.396559 195.555122 
L 372.665536 194.748374 
L 372.800024 197.357894 
L 372.934512 204.974347 
L 373.203489 235.55514 
L 373.472465 258.102839 
L 373.741442 261.638327 
L 374.144906 292.745657 
L 374.279394 292.238569 
L 374.548371 281.967902 
L 374.817347 253.924854 
L 375.086324 190.83667 
L 375.220812 176.409877 
L 375.3553 174.250633 
L 375.489788 175.271958 
L 375.624277 175.022661 
L 375.758765 177.273046 
L 376.162229 201.293819 
L 376.565694 255.90484 
L 376.83467 266.344 
L 376.969159 263.810389 
L 377.238135 284.604305 
L 377.372623 282.475691 
L 377.507112 282.351027 
L 377.776088 273.969035 
L 377.910576 278.64421 
L 378.045064 275.089875 
L 378.179553 276.224038 
L 378.314041 258.134056 
L 378.448529 261.074027 
L 378.583017 251.333473 
L 378.717505 259.824758 
L 378.851994 258.037499 
L 378.986482 269.515594 
L 379.12097 267.402264 
L 379.658923 275.026712 
L 379.927899 276.834014 
L 380.062388 277.790405 
L 380.196876 276.388791 
L 380.331364 281.812134 
L 380.465852 265.146166 
L 380.734829 263.050749 
L 380.869317 270.077703 
L 381.003805 267.591277 
L 381.40727 199.935 
L 381.676246 140.455408 
L 381.810734 143.324568 
L 381.945223 139.222279 
L 382.079711 140.344274 
L 382.214199 143.454552 
L 382.348687 149.492171 
L 382.483175 145.960693 
L 383.290105 269.12153 
L 383.424593 265.469031 
L 383.559081 270.583964 
L 383.828058 257.474045 
L 383.962546 253.70505 
L 384.231522 255.452112 
L 384.36601 251.080439 
L 384.500499 253.204162 
L 384.903963 149.550831 
L 385.038451 156.833976 
L 385.17294 143.228807 
L 385.307428 147.982012 
L 385.441916 163.797739 
L 385.710893 167.38789 
L 386.248845 255.408011 
L 386.383334 269.332936 
L 386.517822 268.685056 
L 386.65231 269.664767 
L 386.921286 283.608423 
L 387.055775 281.345059 
L 387.190263 279.515935 
L 387.459239 274.03828 
L 387.593727 274.295232 
L 387.728216 275.563561 
L 387.862704 275.632149 
L 387.997192 278.551746 
L 388.13168 276.572819 
L 388.266169 280.884503 
L 388.535145 278.812751 
L 388.669633 278.844366 
L 388.804121 279.815129 
L 388.93861 282.796496 
L 389.073098 279.817608 
L 389.611051 285.62421 
L 389.880027 282.186011 
L 390.014515 285.325448 
L 390.149004 265.302825 
L 390.41798 259.295101 
L 390.552468 267.374575 
L 390.686956 263.485083 
L 390.821445 252.298248 
L 390.955933 252.270658 
L 391.090421 237.506014 
L 391.359397 171.689452 
L 391.493886 157.716347 
L 391.628374 164.993221 
L 391.762862 165.783173 
L 391.89735 178.140273 
L 392.166327 173.299187 
L 392.435303 200.711439 
L 392.838768 275.409393 
L 392.973256 274.388156 
L 393.107744 270.477721 
L 393.242232 273.072198 
L 393.511209 260.808544 
L 393.780185 269.054004 
L 394.18365 245.220902 
L 394.587115 154.47699 
L 394.721603 155.236349 
L 394.856091 144.010626 
L 395.125067 145.393439 
L 395.259556 149.984698 
L 395.528532 172.260276 
L 395.931997 245.356483 
L 396.200973 262.770947 
L 396.335461 260.325273 
L 396.46995 261.645582 
L 396.604438 286.08093 
L 396.738926 287.259073 
L 396.873414 290.886867 
L 397.007902 278.350727 
L 397.142391 281.818146 
L 397.411367 256.02715 
L 397.680343 170.151137 
L 397.814832 172.514146 
L 398.083808 165.845675 
L 398.218296 152.510151 
L 398.352785 168.296546 
L 398.487273 164.685777 
L 398.487273 164.685777 
" clip-path="url(#p92d42ad61e)" style="fill: none; stroke: #ff7f0e; stroke-width: 1.5; stroke-linecap: square"/>
   </g>
   <g id="patch_3">
    <path d="M 57.6 307.584 
L 57.6 41.472 
" style="fill: none; stroke: #000000; stroke-width: 0.8; stroke-linejoin: miter; stroke-linecap: square"/>
   </g>
   <g id="patch_4">
    <path d="M 414.72 307.584 
L 414.72 41.472 
" style="fill: none; stroke: #000000; stroke-width: 0.8; stroke-linejoin: miter; stroke-linecap: square"/>
   </g>
   <g id="patch_5">
    <path d="M 57.6 307.584 
L 414.72 307.584 
" style="fill: none; stroke: #000000; stroke-width: 0.8; stroke-linejoin: miter; stroke-linecap: square"/>
   </g>
   <g id="patch_6">
    <path d="M 57.6 41.472 
L 414.72 41.472 
" style="fill: none; stroke: #000000; stroke-width: 0.8; stroke-linejoin: miter; stroke-linecap: square"/>
   </g>
  </g>
 </g>
 <defs>
  <clipPath id="p92d42ad61e">
   <rect x="57.6" y="41.472" width="357.12" height="266.112"/>
  </clipPath>
 </defs>
</svg>
