<?xml version="1.0" encoding="utf-8" standalone="no"?>
<!DOCTYPE svg PUBLIC "-//W3C//DTD SVG 1.1//EN"
  "http://www.w3.org/Graphics/SVG/1.1/DTD/svg11.dtd">
<svg xmlns:xlink="http://www.w3.org/1999/xlink" width="460.8pt" height="345.6pt" viewBox="0 0 460.8 345.6" xmlns="http://www.w3.org/2000/svg" version="1.1">
 <metadata>
  <rdf:RDF xmlns:dc="http://purl.org/dc/elements/1.1/" xmlns:cc="http://creativecommons.org/ns#" xmlns:rdf="http://www.w3.org/1999/02/22-rdf-syntax-ns#">
   <cc:Work>
    <dc:type rdf:resource="http://purl.org/dc/dcmitype/StillImage"/>
    <dc:date>2023-04-04T05:14:19.448802</dc:date>
    <dc:format>image/svg+xml</dc:format>
    <dc:creator>
     <cc:Agent>
      <dc:title>Matplotlib v3.5.2, https://matplotlib.org/</dc:title>
     </cc:Agent>
    </dc:creator>
   </cc:Work>
  </rdf:RDF>
 </metadata>
 <defs>
  <style type="text/css">*{stroke-linejoin: round; stroke-linecap: butt}</style>
 </defs>
 <g id="figure_1">
  <g id="patch_1">
   <path d="M 0 345.6 
L 460.8 345.6 
L 460.8 0 
L 0 0 
z
" style="fill: #ffffff"/>
  </g>
  <g id="axes_1">
   <g id="patch_2">
    <path d="M 57.6 307.584 
L 414.72 307.584 
L 414.72 41.472 
L 57.6 41.472 
z
" style="fill: #ffffff"/>
   </g>
   <g id="matplotlib.axis_1">
    <g id="xtick_1">
     <g id="line2d_1">
      <defs>
       <path id="m9c823d960b" d="M 0 0 
L 0 3.5 
" style="stroke: #000000; stroke-width: 0.8"/>
      </defs>
      <g>
       <use xlink:href="#m9c823d960b" x="73.832727" y="307.584" style="stroke: #000000; stroke-width: 0.8"/>
      </g>
     </g>
     <g id="text_1">
      <!-- 0 -->
      <g transform="translate(70.651477 322.182437)scale(0.1 -0.1)">
       <defs>
        <path id="DejaVuSans-30" d="M 2034 4250 
Q 1547 4250 1301 3770 
Q 1056 3291 1056 2328 
Q 1056 1369 1301 889 
Q 1547 409 2034 409 
Q 2525 409 2770 889 
Q 3016 1369 3016 2328 
Q 3016 3291 2770 3770 
Q 2525 4250 2034 4250 
z
M 2034 4750 
Q 2819 4750 3233 4129 
Q 3647 3509 3647 2328 
Q 3647 1150 3233 529 
Q 2819 -91 2034 -91 
Q 1250 -91 836 529 
Q 422 1150 422 2328 
Q 422 3509 836 4129 
Q 1250 4750 2034 4750 
z
" transform="scale(0.015625)"/>
       </defs>
       <use xlink:href="#DejaVuSans-30"/>
      </g>
     </g>
    </g>
    <g id="xtick_2">
     <g id="line2d_2">
      <g>
       <use xlink:href="#m9c823d960b" x="141.076834" y="307.584" style="stroke: #000000; stroke-width: 0.8"/>
      </g>
     </g>
     <g id="text_2">
      <!-- 500 -->
      <g transform="translate(131.533084 322.182437)scale(0.1 -0.1)">
       <defs>
        <path id="DejaVuSans-35" d="M 691 4666 
L 3169 4666 
L 3169 4134 
L 1269 4134 
L 1269 2991 
Q 1406 3038 1543 3061 
Q 1681 3084 1819 3084 
Q 2600 3084 3056 2656 
Q 3513 2228 3513 1497 
Q 3513 744 3044 326 
Q 2575 -91 1722 -91 
Q 1428 -91 1123 -41 
Q 819 9 494 109 
L 494 744 
Q 775 591 1075 516 
Q 1375 441 1709 441 
Q 2250 441 2565 725 
Q 2881 1009 2881 1497 
Q 2881 1984 2565 2268 
Q 2250 2553 1709 2553 
Q 1456 2553 1204 2497 
Q 953 2441 691 2322 
L 691 4666 
z
" transform="scale(0.015625)"/>
       </defs>
       <use xlink:href="#DejaVuSans-35"/>
       <use xlink:href="#DejaVuSans-30" x="63.623047"/>
       <use xlink:href="#DejaVuSans-30" x="127.246094"/>
      </g>
     </g>
    </g>
    <g id="xtick_3">
     <g id="line2d_3">
      <g>
       <use xlink:href="#m9c823d960b" x="208.32094" y="307.584" style="stroke: #000000; stroke-width: 0.8"/>
      </g>
     </g>
     <g id="text_3">
      <!-- 1000 -->
      <g transform="translate(195.59594 322.182437)scale(0.1 -0.1)">
       <defs>
        <path id="DejaVuSans-31" d="M 794 531 
L 1825 531 
L 1825 4091 
L 703 3866 
L 703 4441 
L 1819 4666 
L 2450 4666 
L 2450 531 
L 3481 531 
L 3481 0 
L 794 0 
L 794 531 
z
" transform="scale(0.015625)"/>
       </defs>
       <use xlink:href="#DejaVuSans-31"/>
       <use xlink:href="#DejaVuSans-30" x="63.623047"/>
       <use xlink:href="#DejaVuSans-30" x="127.246094"/>
       <use xlink:href="#DejaVuSans-30" x="190.869141"/>
      </g>
     </g>
    </g>
    <g id="xtick_4">
     <g id="line2d_4">
      <g>
       <use xlink:href="#m9c823d960b" x="275.565046" y="307.584" style="stroke: #000000; stroke-width: 0.8"/>
      </g>
     </g>
     <g id="text_4">
      <!-- 1500 -->
      <g transform="translate(262.840046 322.182437)scale(0.1 -0.1)">
       <use xlink:href="#DejaVuSans-31"/>
       <use xlink:href="#DejaVuSans-35" x="63.623047"/>
       <use xlink:href="#DejaVuSans-30" x="127.246094"/>
       <use xlink:href="#DejaVuSans-30" x="190.869141"/>
      </g>
     </g>
    </g>
    <g id="xtick_5">
     <g id="line2d_5">
      <g>
       <use xlink:href="#m9c823d960b" x="342.809153" y="307.584" style="stroke: #000000; stroke-width: 0.8"/>
      </g>
     </g>
     <g id="text_5">
      <!-- 2000 -->
      <g transform="translate(330.084153 322.182437)scale(0.1 -0.1)">
       <defs>
        <path id="DejaVuSans-32" d="M 1228 531 
L 3431 531 
L 3431 0 
L 469 0 
L 469 531 
Q 828 903 1448 1529 
Q 2069 2156 2228 2338 
Q 2531 2678 2651 2914 
Q 2772 3150 2772 3378 
Q 2772 3750 2511 3984 
Q 2250 4219 1831 4219 
Q 1534 4219 1204 4116 
Q 875 4013 500 3803 
L 500 4441 
Q 881 4594 1212 4672 
Q 1544 4750 1819 4750 
Q 2544 4750 2975 4387 
Q 3406 4025 3406 3419 
Q 3406 3131 3298 2873 
Q 3191 2616 2906 2266 
Q 2828 2175 2409 1742 
Q 1991 1309 1228 531 
z
" transform="scale(0.015625)"/>
       </defs>
       <use xlink:href="#DejaVuSans-32"/>
       <use xlink:href="#DejaVuSans-30" x="63.623047"/>
       <use xlink:href="#DejaVuSans-30" x="127.246094"/>
       <use xlink:href="#DejaVuSans-30" x="190.869141"/>
      </g>
     </g>
    </g>
    <g id="xtick_6">
     <g id="line2d_6">
      <g>
       <use xlink:href="#m9c823d960b" x="410.053259" y="307.584" style="stroke: #000000; stroke-width: 0.8"/>
      </g>
     </g>
     <g id="text_6">
      <!-- 2500 -->
      <g transform="translate(397.328259 322.182437)scale(0.1 -0.1)">
       <use xlink:href="#DejaVuSans-32"/>
       <use xlink:href="#DejaVuSans-35" x="63.623047"/>
       <use xlink:href="#DejaVuSans-30" x="127.246094"/>
       <use xlink:href="#DejaVuSans-30" x="190.869141"/>
      </g>
     </g>
    </g>
   </g>
   <g id="matplotlib.axis_2">
    <g id="ytick_1">
     <g id="line2d_7">
      <defs>
       <path id="me513aba9c4" d="M 0 0 
L -3.5 0 
" style="stroke: #000000; stroke-width: 0.8"/>
      </defs>
      <g>
       <use xlink:href="#me513aba9c4" x="57.6" y="274.322488" style="stroke: #000000; stroke-width: 0.8"/>
      </g>
     </g>
     <g id="text_7">
      <!-- 100 -->
      <g transform="translate(31.5125 278.121707)scale(0.1 -0.1)">
       <use xlink:href="#DejaVuSans-31"/>
       <use xlink:href="#DejaVuSans-30" x="63.623047"/>
       <use xlink:href="#DejaVuSans-30" x="127.246094"/>
      </g>
     </g>
    </g>
    <g id="ytick_2">
     <g id="line2d_8">
      <g>
       <use xlink:href="#me513aba9c4" x="57.6" y="227.806632" style="stroke: #000000; stroke-width: 0.8"/>
      </g>
     </g>
     <g id="text_8">
      <!-- 200 -->
      <g transform="translate(31.5125 231.60585)scale(0.1 -0.1)">
       <use xlink:href="#DejaVuSans-32"/>
       <use xlink:href="#DejaVuSans-30" x="63.623047"/>
       <use xlink:href="#DejaVuSans-30" x="127.246094"/>
      </g>
     </g>
    </g>
    <g id="ytick_3">
     <g id="line2d_9">
      <g>
       <use xlink:href="#me513aba9c4" x="57.6" y="181.290775" style="stroke: #000000; stroke-width: 0.8"/>
      </g>
     </g>
     <g id="text_9">
      <!-- 300 -->
      <g transform="translate(31.5125 185.089993)scale(0.1 -0.1)">
       <defs>
        <path id="DejaVuSans-33" d="M 2597 2516 
Q 3050 2419 3304 2112 
Q 3559 1806 3559 1356 
Q 3559 666 3084 287 
Q 2609 -91 1734 -91 
Q 1441 -91 1130 -33 
Q 819 25 488 141 
L 488 750 
Q 750 597 1062 519 
Q 1375 441 1716 441 
Q 2309 441 2620 675 
Q 2931 909 2931 1356 
Q 2931 1769 2642 2001 
Q 2353 2234 1838 2234 
L 1294 2234 
L 1294 2753 
L 1863 2753 
Q 2328 2753 2575 2939 
Q 2822 3125 2822 3475 
Q 2822 3834 2567 4026 
Q 2313 4219 1838 4219 
Q 1578 4219 1281 4162 
Q 984 4106 628 3988 
L 628 4550 
Q 988 4650 1302 4700 
Q 1616 4750 1894 4750 
Q 2613 4750 3031 4423 
Q 3450 4097 3450 3541 
Q 3450 3153 3228 2886 
Q 3006 2619 2597 2516 
z
" transform="scale(0.015625)"/>
       </defs>
       <use xlink:href="#DejaVuSans-33"/>
       <use xlink:href="#DejaVuSans-30" x="63.623047"/>
       <use xlink:href="#DejaVuSans-30" x="127.246094"/>
      </g>
     </g>
    </g>
    <g id="ytick_4">
     <g id="line2d_10">
      <g>
       <use xlink:href="#me513aba9c4" x="57.6" y="134.774918" style="stroke: #000000; stroke-width: 0.8"/>
      </g>
     </g>
     <g id="text_10">
      <!-- 400 -->
      <g transform="translate(31.5125 138.574137)scale(0.1 -0.1)">
       <defs>
        <path id="DejaVuSans-34" d="M 2419 4116 
L 825 1625 
L 2419 1625 
L 2419 4116 
z
M 2253 4666 
L 3047 4666 
L 3047 1625 
L 3713 1625 
L 3713 1100 
L 3047 1100 
L 3047 0 
L 2419 0 
L 2419 1100 
L 313 1100 
L 313 1709 
L 2253 4666 
z
" transform="scale(0.015625)"/>
       </defs>
       <use xlink:href="#DejaVuSans-34"/>
       <use xlink:href="#DejaVuSans-30" x="63.623047"/>
       <use xlink:href="#DejaVuSans-30" x="127.246094"/>
      </g>
     </g>
    </g>
    <g id="ytick_5">
     <g id="line2d_11">
      <g>
       <use xlink:href="#me513aba9c4" x="57.6" y="88.259061" style="stroke: #000000; stroke-width: 0.8"/>
      </g>
     </g>
     <g id="text_11">
      <!-- 500 -->
      <g transform="translate(31.5125 92.05828)scale(0.1 -0.1)">
       <use xlink:href="#DejaVuSans-35"/>
       <use xlink:href="#DejaVuSans-30" x="63.623047"/>
       <use xlink:href="#DejaVuSans-30" x="127.246094"/>
      </g>
     </g>
    </g>
    <g id="ytick_6">
     <g id="line2d_12">
      <g>
       <use xlink:href="#me513aba9c4" x="57.6" y="41.743204" style="stroke: #000000; stroke-width: 0.8"/>
      </g>
     </g>
     <g id="text_12">
      <!-- 600 -->
      <g transform="translate(31.5125 45.542423)scale(0.1 -0.1)">
       <defs>
        <path id="DejaVuSans-36" d="M 2113 2584 
Q 1688 2584 1439 2293 
Q 1191 2003 1191 1497 
Q 1191 994 1439 701 
Q 1688 409 2113 409 
Q 2538 409 2786 701 
Q 3034 994 3034 1497 
Q 3034 2003 2786 2293 
Q 2538 2584 2113 2584 
z
M 3366 4563 
L 3366 3988 
Q 3128 4100 2886 4159 
Q 2644 4219 2406 4219 
Q 1781 4219 1451 3797 
Q 1122 3375 1075 2522 
Q 1259 2794 1537 2939 
Q 1816 3084 2150 3084 
Q 2853 3084 3261 2657 
Q 3669 2231 3669 1497 
Q 3669 778 3244 343 
Q 2819 -91 2113 -91 
Q 1303 -91 875 529 
Q 447 1150 447 2328 
Q 447 3434 972 4092 
Q 1497 4750 2381 4750 
Q 2619 4750 2861 4703 
Q 3103 4656 3366 4563 
z
" transform="scale(0.015625)"/>
       </defs>
       <use xlink:href="#DejaVuSans-36"/>
       <use xlink:href="#DejaVuSans-30" x="63.623047"/>
       <use xlink:href="#DejaVuSans-30" x="127.246094"/>
      </g>
     </g>
    </g>
   </g>
   <g id="line2d_13">
    <path d="M 73.832727 277.310667 
L 74.101704 276.7762 
L 74.236192 275.695637 
L 74.37068 276.633396 
L 74.505168 276.154283 
L 74.639657 276.739918 
L 74.774145 270.443531 
L 74.908633 244.062528 
L 75.177609 242.609838 
L 75.312098 243.150352 
L 75.446586 243.20152 
L 75.581074 244.044852 
L 75.715562 243.308971 
L 75.85005 243.287574 
L 76.253515 238.4369 
L 76.522492 271.574332 
L 76.65698 271.87901 
L 76.925956 270.218394 
L 77.060444 261.601797 
L 77.194933 263.784786 
L 77.463909 263.846652 
L 77.598397 265.388188 
L 77.732885 260.205856 
L 77.867374 247.160949 
L 78.405327 102.742703 
L 78.674303 101.845878 
L 78.808791 108.79116 
L 78.943279 104.118177 
L 79.481232 155.392606 
L 79.750209 223.867204 
L 80.019185 257.65074 
L 80.153673 259.71744 
L 80.288161 255.986403 
L 80.42265 266.101276 
L 80.557138 265.678447 
L 80.826114 268.118203 
L 80.960603 265.646816 
L 81.095091 255.61195 
L 81.364067 165.30467 
L 81.498555 177.272735 
L 81.767532 158.392879 
L 82.036508 166.179168 
L 82.170996 163.16215 
L 82.305485 157.349063 
L 83.112414 255.146792 
L 83.650367 280.622131 
L 83.784855 280.642133 
L 83.919343 282.129245 
L 84.053831 282.316238 
L 84.18832 280.276053 
L 84.322808 273.247042 
L 84.726273 185.553953 
L 84.860761 177.123419 
L 84.995249 181.108898 
L 85.129737 166.629907 
L 85.264225 174.94043 
L 85.398714 175.667473 
L 85.66769 183.738904 
L 85.802178 192.271308 
L 86.340131 257.214887 
L 86.474619 259.173204 
L 86.609107 263.950383 
L 86.878084 280.993793 
L 87.012572 283.183759 
L 87.14706 282.866056 
L 87.281549 284.31642 
L 87.416037 284.221993 
L 87.550525 283.432619 
L 87.819501 256.674372 
L 87.95399 256.816246 
L 88.088478 251.284115 
L 88.222966 252.704244 
L 88.357454 251.966968 
L 88.491942 248.699694 
L 88.626431 251.457619 
L 88.760919 244.653279 
L 88.895407 247.452604 
L 89.029895 247.451208 
L 89.164384 249.942598 
L 89.43336 270.665877 
L 89.567848 272.284164 
L 89.702336 271.799468 
L 89.836825 272.830725 
L 89.971313 258.092176 
L 90.105801 258.786192 
L 90.240289 260.288654 
L 90.374777 260.064448 
L 90.509266 261.266883 
L 90.643754 261.433875 
L 90.778242 263.476386 
L 90.91273 260.340752 
L 91.047218 250.671501 
L 91.181707 249.532328 
L 91.316195 242.788924 
L 91.450683 247.10327 
L 91.585171 245.190538 
L 91.71966 246.648345 
L 91.854148 246.868365 
L 92.123124 249.770489 
L 92.257612 249.213229 
L 92.526589 254.65698 
L 92.795565 261.075703 
L 92.930053 262.00509 
L 93.064542 260.895221 
L 93.19903 270.643084 
L 93.468006 270.764491 
L 93.602495 271.796677 
L 93.736983 270.595638 
L 93.871471 268.140066 
L 94.005959 263.060534 
L 94.6784 158.672439 
L 94.812888 154.39205 
L 95.081865 165.936821 
L 95.216353 160.858685 
L 95.350841 149.891176 
L 96.023282 259.491373 
L 96.157771 260.20167 
L 96.426747 264.025273 
L 96.561235 263.700593 
L 96.695723 263.775948 
L 96.830212 265.609138 
L 96.9647 264.988151 
L 97.099188 263.598258 
L 97.233676 255.353322 
L 97.368164 238.252232 
L 97.502653 198.308601 
L 97.637141 191.399136 
L 97.771629 176.333115 
L 97.906117 184.508276 
L 98.040606 177.971403 
L 98.175094 178.662629 
L 98.309582 173.483088 
L 98.44407 175.082303 
L 98.713047 186.153077 
L 98.982023 226.998651 
L 99.250999 260.934295 
L 99.385488 265.497965 
L 99.519976 266.232451 
L 99.654464 275.780761 
L 99.788952 275.792855 
L 99.923441 274.817882 
L 100.192417 276.023573 
L 100.326905 276.102185 
L 100.461393 275.464453 
L 100.595882 275.859838 
L 100.73037 276.666888 
L 100.864858 275.168612 
L 100.999346 276.294296 
L 101.133834 275.410029 
L 101.268323 273.252624 
L 101.402811 266.411072 
L 101.537299 270.57145 
L 101.806276 260.457042 
L 101.940764 262.561419 
L 102.075252 262.416755 
L 102.20974 263.047975 
L 102.344228 265.364465 
L 102.478717 271.030561 
L 102.613205 269.226676 
L 102.747693 274.748574 
L 102.882181 261.642731 
L 103.016669 261.670641 
L 103.151158 266.448749 
L 103.285646 266.235242 
L 103.554622 262.163709 
L 103.68911 258.084733 
L 103.823599 241.114353 
L 104.092575 180.473491 
L 104.227063 159.551589 
L 104.361552 166.528967 
L 104.630528 142.30444 
L 105.033993 157.22161 
L 105.168481 167.719773 
L 105.706434 248.613174 
L 105.840922 248.494094 
L 105.97541 256.965562 
L 106.109898 272.968412 
L 106.378875 276.074276 
L 106.513363 276.060786 
L 106.647851 278.161442 
L 106.782339 277.900023 
L 106.916828 278.982447 
L 107.320292 242.392609 
L 107.45478 249.271839 
L 107.589269 246.804173 
L 107.723757 246.894413 
L 108.26171 241.963733 
L 108.396198 238.645757 
L 108.530686 240.846422 
L 108.934151 271.630151 
L 109.068639 273.105634 
L 109.203127 272.066469 
L 109.337615 267.688397 
L 109.606592 269.196441 
L 109.875568 270.221185 
L 110.144545 271.242674 
L 110.413521 270.037448 
L 110.548009 269.906273 
L 110.951474 265.963124 
L 111.085962 267.105553 
L 111.22045 266.767383 
L 111.623915 261.12501 
L 111.758403 261.619473 
L 112.02738 265.300738 
L 112.430844 266.855763 
L 112.565333 256.88695 
L 112.834309 260.974763 
L 112.968797 261.484112 
L 113.103285 262.952618 
L 113.237774 263.126122 
L 113.50675 265.6724 
L 113.641238 266.479915 
L 114.313679 255.552875 
L 114.448168 255.20168 
L 114.582656 253.760154 
L 114.98612 243.226638 
L 115.524073 253.984825 
L 115.658561 254.519758 
L 115.927538 256.684141 
L 116.062026 255.435655 
L 116.196514 261.364566 
L 116.331002 260.958948 
L 116.465491 261.552955 
L 116.599979 252.067907 
L 117.137932 78.411189 
L 117.406908 64.122913 
L 117.810373 80.196933 
L 118.213837 145.506591 
L 118.482814 206.091634 
L 118.75179 239.555142 
L 118.886279 241.045975 
L 119.289743 248.815053 
L 119.424231 250.193318 
L 119.55872 252.886586 
L 119.693208 253.194521 
L 119.827696 243.84902 
L 120.365649 90.907209 
L 120.634625 72.862777 
L 120.769114 76.450545 
L 120.903602 70.211374 
L 121.03809 71.502189 
L 121.441555 133.151514 
L 121.710531 198.105327 
L 121.845019 225.493863 
L 122.248484 236.150646 
L 122.51746 251.230622 
L 122.651948 251.385519 
L 122.786437 253.07544 
L 122.920925 251.772531 
L 123.055413 243.841113 
L 123.727854 60.277447 
L 123.862342 53.568 
L 124.534783 106.179295 
L 125.072736 243.161981 
L 125.207225 248.187554 
L 125.341713 248.637828 
L 125.476201 248.592707 
L 125.745177 261.810188 
L 125.879666 263.206594 
L 126.014154 263.42987 
L 126.28313 250.356589 
L 126.821083 91.981725 
L 126.955571 74.14615 
L 127.09006 80.558826 
L 127.359036 104.407041 
L 127.493524 106.78121 
L 127.762501 124.758658 
L 127.896989 146.920673 
L 128.300453 241.589745 
L 128.434942 247.228862 
L 128.56943 245.452887 
L 128.703918 252.743317 
L 128.838406 253.447102 
L 129.241871 259.952345 
L 129.510847 239.823073 
L 130.0488 82.671576 
L 130.183288 73.818678 
L 130.317777 85.402522 
L 130.452265 113.417162 
L 130.586753 112.524523 
L 130.721241 108.979549 
L 130.855729 115.190347 
L 131.124706 166.968077 
L 131.393682 230.770622 
L 131.662659 253.223361 
L 131.931635 253.032646 
L 132.066123 252.85542 
L 132.3351 263.810835 
L 132.469588 263.666636 
L 132.604076 263.762924 
L 132.738564 263.722455 
L 133.007541 252.165125 
L 133.276517 241.999085 
L 133.679982 236.577662 
L 133.81447 235.42872 
L 133.948958 230.47292 
L 134.486911 240.072398 
L 134.755888 246.960001 
L 134.890376 246.848363 
L 135.697305 260.690551 
L 135.831793 265.30725 
L 135.966282 265.899397 
L 136.10077 263.97271 
L 136.235258 265.433773 
L 136.369746 265.167237 
L 136.504234 260.988718 
L 136.638723 260.834285 
L 136.907699 258.954114 
L 137.311164 248.377804 
L 137.445652 248.873198 
L 137.58014 246.266449 
L 137.983605 252.887516 
L 138.118093 252.011158 
L 138.252581 253.79411 
L 138.387069 258.159158 
L 138.521558 256.96091 
L 138.656046 257.156277 
L 138.925022 261.719017 
L 139.193999 245.933861 
L 139.731951 80.870017 
L 139.86644 72.204578 
L 140.269904 97.48083 
L 140.538881 121.219267 
L 140.673369 128.110126 
L 140.807857 142.065348 
L 141.076834 219.916147 
L 141.480298 252.169777 
L 142.018251 260.370522 
L 142.152739 259.919784 
L 142.421716 236.85257 
L 142.959669 90.586714 
L 143.094157 83.379548 
L 143.228645 82.905551 
L 143.363133 92.843199 
L 143.497621 83.830286 
L 143.63211 88.8126 
L 144.573527 253.382445 
L 144.708015 256.773916 
L 144.842504 256.944629 
L 145.11148 259.123897 
L 145.245968 261.206877 
L 145.380456 257.243726 
L 145.783921 197.797857 
L 146.052897 108.685104 
L 146.187386 90.102019 
L 146.456362 104.984768 
L 146.59085 115.988559 
L 146.725339 110.457823 
L 146.859827 117.663595 
L 146.994315 112.728727 
L 147.128803 125.227538 
L 147.532268 229.491436 
L 147.801244 254.779781 
L 147.935732 254.976544 
L 148.204709 260.101661 
L 148.339197 260.080729 
L 148.473685 260.570541 
L 148.742662 259.546261 
L 148.87715 242.347023 
L 149.280615 117.53149 
L 149.415103 113.60276 
L 149.549591 104.768469 
L 149.684079 105.989975 
L 150.087544 137.810077 
L 150.222032 130.327072 
L 150.35652 135.696862 
L 150.894473 247.406553 
L 151.028961 256.329225 
L 151.16345 255.397512 
L 151.835891 263.350793 
L 151.970379 262.113006 
L 152.104867 241.732549 
L 152.508332 111.684912 
L 152.64282 114.709373 
L 152.911796 103.177627 
L 153.046285 116.943064 
L 153.180773 115.482931 
L 153.449749 149.020864 
L 153.718726 188.857044 
L 153.987702 243.945773 
L 154.12219 260.534258 
L 154.256678 261.875775 
L 154.525655 265.633326 
L 154.794631 267.291152 
L 155.063608 270.156063 
L 155.198096 271.753418 
L 155.332584 271.127314 
L 155.467072 266.865066 
L 155.601561 256.672977 
L 155.736049 255.835226 
L 155.870537 253.047531 
L 156.005025 255.12865 
L 156.274002 253.282901 
L 156.40849 253.804809 
L 156.542978 255.024455 
L 156.677466 253.860163 
L 157.215419 261.652499 
L 157.349907 263.604305 
L 157.484396 262.639101 
L 157.618884 263.388471 
L 157.88786 266.478519 
L 158.022348 266.946469 
L 158.291325 269.864409 
L 158.560301 274.029904 
L 158.694789 272.506044 
L 158.829278 273.444269 
L 158.963766 273.058653 
L 159.232742 270.417947 
L 159.367231 270.692391 
L 159.501719 268.762448 
L 160.039672 255.060272 
L 160.308648 255.312388 
L 160.443136 260.876615 
L 160.577624 260.600776 
L 160.712113 258.698277 
L 160.846601 259.38113 
L 160.981089 260.83289 
L 161.250066 264.488106 
L 161.519042 265.413772 
L 161.788018 249.103451 
L 162.460459 83.086032 
L 162.594948 82.758561 
L 162.729436 81.338897 
L 162.998412 100.3997 
L 163.132901 109.102816 
L 163.401877 149.252513 
L 163.670853 218.068537 
L 164.074318 251.235738 
L 164.208806 252.338164 
L 164.477783 264.650911 
L 164.612271 266.94833 
L 164.746759 262.373495 
L 165.015735 245.338458 
L 165.4192 119.100469 
L 165.553688 121.629071 
L 165.822665 108.112959 
L 165.957153 113.225982 
L 166.091641 110.224779 
L 166.360618 99.08144 
L 166.495106 105.107104 
L 166.89857 217.193574 
L 167.033059 223.976051 
L 167.302035 241.866514 
L 167.974476 259.829543 
L 168.108964 254.309971 
L 168.243453 240.678499 
L 168.377941 203.636062 
L 168.646917 104.937787 
L 168.781405 106.185807 
L 168.915894 101.783081 
L 169.050382 103.047847 
L 169.18487 106.740276 
L 169.319358 91.829153 
L 169.453847 94.24007 
L 169.857311 146.165256 
L 170.126288 222.237753 
L 170.395264 252.215827 
L 170.529752 253.071719 
L 170.66424 256.415279 
L 170.798729 256.599482 
L 171.067705 258.863409 
L 171.202193 261.620869 
L 171.47117 240.425453 
L 172.009123 108.889774 
L 172.143611 107.356146 
L 172.412587 95.918362 
L 172.95054 127.53612 
L 173.622981 254.131816 
L 173.757469 258.012634 
L 173.891958 271.029166 
L 174.026446 270.125363 
L 174.160934 270.082568 
L 174.42991 271.572006 
L 174.698887 257.182791 
L 174.833375 240.524067 
L 175.102351 173.863588 
L 175.371328 141.395985 
L 175.505816 138.574798 
L 175.640304 148.465465 
L 175.774792 148.163577 
L 175.909281 149.534399 
L 176.043769 154.211103 
L 176.178257 153.911541 
L 176.312745 167.993752 
L 176.581722 233.826249 
L 176.850698 260.219811 
L 176.985186 257.793079 
L 177.254163 262.400009 
L 177.388651 262.35768 
L 177.792116 268.739655 
L 177.926604 269.606246 
L 178.19558 259.178786 
L 178.330069 258.750375 
L 178.599045 251.386915 
L 178.733533 250.836632 
L 178.868021 253.082883 
L 179.136998 249.666758 
L 179.271486 250.246811 
L 179.540462 247.827522 
L 179.809439 255.133302 
L 179.943927 262.209759 
L 180.212904 260.358893 
L 180.48188 269.963487 
L 180.616368 269.976977 
L 180.750856 270.339336 
L 180.885345 271.148712 
L 181.019833 271.232905 
L 181.692274 259.24949 
L 181.826762 260.511 
L 181.96125 254.685819 
L 182.095738 256.420861 
L 182.364715 261.715296 
L 182.499203 262.959595 
L 182.633691 266.02406 
L 182.902668 265.227708 
L 183.171644 271.196623 
L 183.306132 272.575353 
L 183.440621 271.49479 
L 183.575109 269.253656 
L 183.844085 280.67702 
L 183.978573 281.60315 
L 184.113062 279.384344 
L 184.382038 268.298685 
L 184.919991 178.988705 
L 185.054479 182.898363 
L 185.188967 176.012155 
L 185.457944 179.770636 
L 185.592432 181.230304 
L 185.995897 217.989925 
L 186.264873 247.780541 
L 186.53385 263.121935 
L 186.802826 273.105634 
L 187.071802 283.326098 
L 187.206291 282.205996 
L 187.340779 283.310282 
L 187.475267 280.216513 
L 187.609755 272.428828 
L 188.01322 198.519318 
L 188.147708 182.55182 
L 188.282196 182.764862 
L 188.416684 181.831754 
L 188.551173 185.056698 
L 188.685661 191.289823 
L 188.820149 186.994084 
L 188.954637 191.312616 
L 189.089126 199.464985 
L 189.627078 259.83559 
L 189.761567 262.356284 
L 189.896055 267.454422 
L 190.030543 265.082579 
L 190.299519 266.865997 
L 190.434008 265.725428 
L 190.971961 269.06015 
L 191.106449 265.698449 
L 191.240937 265.225847 
L 191.375425 265.652863 
L 191.509913 261.340378 
L 191.644402 262.848887 
L 191.913378 261.616217 
L 192.182354 256.127811 
L 192.316843 256.467377 
L 192.451331 255.982216 
L 192.585819 257.26838 
L 192.720307 262.88703 
L 192.989284 264.111793 
L 193.392748 261.494811 
L 193.661725 264.301577 
L 193.796213 264.82209 
L 194.065189 257.141392 
L 194.603142 156.106625 
L 194.73763 151.323399 
L 194.872119 141.63182 
L 195.006607 143.166378 
L 195.141095 147.786333 
L 195.275583 140.581027 
L 195.54456 153.624538 
L 195.948024 245.194259 
L 196.217001 255.260755 
L 196.351489 257.137205 
L 196.485977 266.36316 
L 196.620465 265.727754 
L 196.889442 266.270128 
L 197.02393 267.369298 
L 197.158418 265.684494 
L 197.292907 259.527655 
L 197.830859 192.60157 
L 197.965348 194.852938 
L 198.099836 191.621481 
L 198.234324 195.910708 
L 198.5033 182.932319 
L 198.772277 196.373076 
L 199.31023 267.021825 
L 199.713694 275.89705 
L 199.848183 274.758807 
L 200.117159 275.467709 
L 200.251647 273.730807 
L 200.386135 268.102388 
L 200.520624 267.709794 
L 200.655112 255.089112 
L 200.7896 209.095628 
L 200.924088 207.176849 
L 201.058576 195.79721 
L 201.193065 195.448341 
L 201.327553 192.833219 
L 201.462041 194.949226 
L 201.731018 183.456553 
L 201.865506 184.782255 
L 202.134482 206.88659 
L 202.403459 258.967139 
L 202.806923 268.510797 
L 203.0759 260.259815 
L 203.210388 264.474151 
L 203.344876 264.596953 
L 203.748341 255.464495 
L 203.882829 238.529932 
L 204.151805 178.18212 
L 204.420782 162.138801 
L 204.55527 156.656442 
L 204.689758 160.003723 
L 204.824246 153.67338 
L 204.958735 169.279915 
L 205.093223 169.519937 
L 205.765664 254.898862 
L 205.900152 255.396582 
L 206.03464 259.097848 
L 206.169129 273.560559 
L 206.303617 274.028973 
L 206.572593 277.865136 
L 206.84157 278.655441 
L 207.110546 269.511353 
L 207.379522 260.567284 
L 207.514011 259.712323 
L 207.917475 267.619088 
L 208.051964 267.379066 
L 208.32094 261.18362 
L 208.589916 262.743761 
L 208.858893 270.58587 
L 208.993381 274.144333 
L 209.127869 274.712756 
L 209.262357 274.182941 
L 209.396846 268.480562 
L 209.531334 269.549496 
L 209.80031 269.145274 
L 209.934799 270.110478 
L 210.203775 258.246143 
L 211.010704 107.155197 
L 211.279681 132.110955 
L 211.683145 164.351095 
L 212.221098 249.711879 
L 212.355586 252.111632 
L 212.759051 266.956237 
L 212.893539 266.754359 
L 213.028027 266.852042 
L 213.162516 269.432276 
L 213.431492 252.188383 
L 213.56598 215.097104 
L 213.834957 133.356649 
L 213.969445 137.823102 
L 214.103933 136.760215 
L 214.238421 139.644663 
L 214.910862 176.971777 
L 215.448815 255.184935 
L 215.583303 260.022584 
L 215.717792 260.624499 
L 216.121256 264.776969 
L 216.255745 265.709612 
L 216.390233 268.038661 
L 216.524721 264.133655 
L 216.659209 256.808803 
L 217.062674 146.641578 
L 217.197162 148.504538 
L 217.33165 148.58315 
L 217.466138 159.753468 
L 217.600627 158.502656 
L 217.735115 146.952304 
L 217.869603 152.048581 
L 218.273068 193.156039 
L 218.542044 250.465901 
L 218.811021 266.83297 
L 218.945509 259.604406 
L 219.483462 270.049542 
L 219.61795 271.801794 
L 219.886926 258.403832 
L 220.290391 159.422275 
L 220.693856 148.060777 
L 220.828344 158.451489 
L 220.962832 154.631142 
L 221.231808 181.089361 
L 221.500785 194.599892 
L 221.769761 250.332866 
L 222.038738 265.565413 
L 222.173226 264.831858 
L 222.307714 266.025455 
L 222.576691 271.92134 
L 222.845667 274.492736 
L 222.980155 272.863286 
L 223.114643 274.688568 
L 223.38362 254.662562 
L 223.518108 258.428485 
L 223.652596 258.275913 
L 223.921573 251.492041 
L 224.190549 250.836632 
L 224.325037 253.262434 
L 224.459525 252.64982 
L 224.728502 248.888548 
L 225.131967 255.973844 
L 225.266455 254.52534 
L 225.535431 255.960354 
L 225.669919 254.680703 
L 226.073384 264.202033 
L 226.34236 267.156721 
L 226.476849 267.086482 
L 226.745825 264.018761 
L 226.880313 266.245475 
L 227.014802 266.482706 
L 227.14929 266.192912 
L 227.283778 264.808135 
L 227.418266 266.444098 
L 227.552754 266.569691 
L 227.687243 266.404559 
L 227.956219 265.3226 
L 228.090707 270.997535 
L 228.225195 271.035678 
L 228.359684 272.110659 
L 228.494172 271.356637 
L 228.62866 272.304165 
L 228.763148 272.192527 
L 228.897637 269.959766 
L 229.301101 270.841707 
L 229.435589 264.778365 
L 229.570078 251.03572 
L 230.242519 93.506515 
L 230.377007 79.028454 
L 230.511495 108.283207 
L 230.780471 116.042052 
L 231.049448 142.846814 
L 231.587401 248.929482 
L 231.856377 259.881176 
L 232.125354 264.579277 
L 232.39433 269.123411 
L 232.528818 268.329385 
L 232.797795 251.639031 
L 232.932283 216.24558 
L 233.201259 131.195523 
L 233.335748 123.217588 
L 233.470236 133.265013 
L 233.604724 133.481777 
L 233.739212 145.964307 
L 233.8737 131.58393 
L 234.008189 138.144061 
L 234.815118 259.313682 
L 234.949606 259.053658 
L 235.218583 264.814647 
L 235.622047 272.365101 
L 235.756535 271.781792 
L 236.025512 259.431832 
L 236.563465 127.140735 
L 236.832441 115.224768 
L 237.63937 196.891728 
L 237.908347 253.55781 
L 238.177323 261.450621 
L 238.849764 276.007293 
L 238.984252 275.202568 
L 239.118741 271.496185 
L 239.253229 257.932626 
L 239.791182 126.389504 
L 240.194646 143.694799 
L 240.463623 162.357891 
L 240.732599 175.488387 
L 241.270552 251.087353 
L 241.674017 256.820432 
L 241.942993 269.449952 
L 242.077481 275.791924 
L 242.21197 275.181171 
L 242.480946 257.64888 
L 242.884411 148.618037 
L 243.018899 156.2992 
L 243.153387 154.106908 
L 243.287875 143.394771 
L 243.422363 151.181991 
L 243.556852 148.438486 
L 243.825828 164.675311 
L 244.229293 234.918441 
L 244.498269 256.761357 
L 244.767246 261.906476 
L 245.17071 269.573219 
L 245.305198 270.417017 
L 245.439687 270.128619 
L 245.574175 268.929905 
L 245.708663 257.753075 
L 245.843151 263.068442 
L 246.112128 260.15934 
L 246.381104 255.106788 
L 246.515592 255.074227 
L 247.188033 265.066298 
L 247.322522 265.461683 
L 247.45701 266.307341 
L 247.591498 265.961728 
L 247.725986 269.047125 
L 247.860475 267.644672 
L 248.129451 268.935487 
L 248.263939 268.074013 
L 248.398427 268.739655 
L 248.532916 268.590339 
L 248.667404 270.487256 
L 248.801892 270.390968 
L 249.205357 271.89157 
L 249.339845 272.005068 
L 249.608821 271.080333 
L 249.743309 271.208717 
L 250.012286 270.357942 
L 250.146774 269.367154 
L 250.281262 269.433672 
L 250.415751 268.88525 
L 250.550239 267.82934 
L 250.819215 268.121925 
L 250.953703 268.881064 
L 251.088192 267.773521 
L 251.357168 268.999679 
L 251.491656 277.673956 
L 251.626144 277.196703 
L 251.760633 277.616276 
L 251.895121 277.460448 
L 252.164097 265.52541 
L 252.70205 141.335049 
L 252.836538 160.570751 
L 252.971027 157.213702 
L 253.240003 169.795776 
L 253.374491 171.114501 
L 253.508979 168.263079 
L 253.777956 200.252033 
L 254.046932 250.309142 
L 254.315909 271.095683 
L 254.719373 279.239215 
L 254.853862 279.00524 
L 255.122838 280.694696 
L 255.391814 260.455646 
L 255.660791 169.591572 
L 255.795279 172.951412 
L 256.198744 157.67607 
L 256.333232 161.256395 
L 256.46772 158.659415 
L 256.602208 159.825102 
L 257.409138 252.493992 
L 257.812602 259.77605 
L 258.081579 274.596932 
L 258.216067 275.63377 
L 258.350555 274.923008 
L 258.619532 261.111985 
L 258.888508 174.273858 
L 259.022996 175.120911 
L 259.157484 166.297784 
L 259.291973 165.736802 
L 259.426461 150.645198 
L 259.695437 163.997575 
L 259.829925 153.148681 
L 259.964414 161.991346 
L 260.771343 255.486357 
L 261.040319 257.667951 
L 261.309296 264.976522 
L 261.443784 268.1089 
L 261.71276 265.268642 
L 261.847249 253.192195 
L 262.116225 167.272756 
L 262.250713 171.334056 
L 262.654178 145.5759 
L 262.788666 152.690965 
L 262.923154 148.04217 
L 263.326619 182.297843 
L 263.461107 192.918809 
L 263.864572 240.454293 
L 264.268036 258.038682 
L 264.402525 257.300476 
L 264.671501 260.643105 
L 264.805989 260.520303 
L 264.940478 259.593708 
L 265.074966 252.218153 
L 265.209454 233.588087 
L 265.612919 122.200286 
L 265.881895 104.548914 
L 266.016383 113.808826 
L 266.150871 113.681372 
L 266.28536 113.244588 
L 266.419848 117.758022 
L 266.688824 154.08365 
L 266.957801 230.889703 
L 267.226777 247.131179 
L 267.361265 245.745007 
L 267.495754 261.696689 
L 267.630242 261.388754 
L 267.76473 263.210315 
L 267.899218 263.513599 
L 268.168195 269.868595 
L 268.302683 270.730999 
L 268.437171 268.234493 
L 268.706147 270.706346 
L 268.975124 267.300455 
L 269.2441 265.463543 
L 269.916541 251.338538 
L 270.320006 253.180101 
L 270.588982 257.94286 
L 270.723471 271.682714 
L 270.857959 272.696294 
L 270.992447 271.255698 
L 271.126935 272.116707 
L 271.261424 272.145546 
L 271.395912 271.964134 
L 271.799376 274.671357 
L 271.933865 273.321002 
L 272.068353 273.66708 
L 272.202841 273.038651 
L 272.337329 273.268904 
L 272.471817 272.446969 
L 272.606306 270.33608 
L 272.740794 271.586426 
L 272.875282 271.271979 
L 273.00977 270.611919 
L 273.144258 268.336363 
L 273.278747 268.239145 
L 273.547723 271.142664 
L 273.682211 271.351521 
L 273.8167 272.018093 
L 273.951188 271.178017 
L 274.085676 281.561751 
L 274.354652 283.153524 
L 274.489141 281.620826 
L 274.758117 267.266963 
L 275.29607 163.395659 
L 275.565046 151.45969 
L 275.699535 151.788558 
L 275.834023 169.301313 
L 275.968511 171.527096 
L 276.102999 181.434044 
L 276.77544 258.803868 
L 277.447881 275.77797 
L 277.58237 279.091294 
L 277.716858 278.709864 
L 277.851346 274.419241 
L 277.985834 264.680216 
L 278.389299 205.65392 
L 278.523787 186.645215 
L 278.658275 184.695735 
L 278.792763 175.413031 
L 278.927252 187.246665 
L 279.06174 181.568474 
L 279.196228 183.608195 
L 279.330716 191.115854 
L 280.137646 268.923393 
L 280.272134 271.251512 
L 280.406622 263.099142 
L 280.54111 262.821908 
L 280.810087 263.964337 
L 280.944575 263.356375 
L 281.213551 255.630557 
L 281.348039 227.386593 
L 281.482528 158.638483 
L 281.617016 148.678507 
L 281.751504 125.84899 
L 281.885992 126.972813 
L 282.154969 140.154011 
L 282.289457 122.477986 
L 282.423945 126.466721 
L 282.558433 135.355436 
L 282.82741 182.623919 
L 283.096386 249.514652 
L 283.365363 255.983612 
L 283.499851 258.137296 
L 283.634339 257.482353 
L 283.768827 257.492586 
L 283.903316 257.677254 
L 284.037804 258.950393 
L 284.172292 259.076451 
L 284.441268 254.009014 
L 285.113709 141.52902 
L 285.248198 140.479157 
L 285.382686 136.052243 
L 285.517174 145.069807 
L 285.651662 142.043951 
L 285.78615 145.448446 
L 286.055127 197.289438 
L 286.324103 245.662674 
L 286.59308 255.105858 
L 286.727568 254.987242 
L 286.862056 273.465666 
L 286.996544 273.523346 
L 287.131033 272.569306 
L 287.265521 273.160057 
L 287.668985 269.719279 
L 287.803474 270.575171 
L 288.07245 269.721605 
L 288.206938 267.603273 
L 288.341427 267.549315 
L 288.475915 265.260269 
L 288.610403 264.898376 
L 288.744891 263.801997 
L 288.879379 266.560853 
L 289.013868 266.892045 
L 289.148356 264.150401 
L 289.417332 271.12964 
L 289.55182 272.28742 
L 289.820797 271.93483 
L 289.955285 272.705597 
L 290.089773 271.243139 
L 290.224262 272.752113 
L 290.35875 271.867382 
L 290.493238 272.823282 
L 290.627726 271.319425 
L 291.031191 253.783412 
L 291.300167 189.22545 
L 291.434655 183.778443 
L 291.569144 184.371055 
L 291.703632 188.334206 
L 291.972608 175.902843 
L 292.376073 188.660747 
L 293.048514 263.174963 
L 293.183002 264.390888 
L 293.31749 263.26753 
L 293.451979 264.00062 
L 293.586467 263.094026 
L 293.720955 265.508199 
L 293.855443 265.764966 
L 294.258908 242.433078 
L 294.527884 185.872587 
L 294.796861 154.970707 
L 294.931349 139.492556 
L 295.065837 139.361846 
L 295.200325 147.137437 
L 295.334814 141.558325 
L 295.60379 168.924534 
L 295.738278 183.057912 
L 296.141743 251.531114 
L 296.276231 250.663128 
L 296.410719 257.684232 
L 296.545208 274.926264 
L 296.948672 277.036224 
L 297.486625 278.952677 
L 297.621113 278.615902 
L 297.755601 278.612181 
L 298.024578 275.518876 
L 298.159066 275.372351 
L 298.428042 273.28472 
L 298.697019 269.556009 
L 298.831507 268.449396 
L 298.965995 268.310779 
L 299.100484 268.657322 
L 299.36946 272.345565 
L 299.503948 271.852031 
L 299.638436 273.355889 
L 299.772925 263.943405 
L 299.907413 267.25859 
L 300.041901 266.96461 
L 300.176389 267.808873 
L 300.310877 267.532569 
L 300.579854 256.84276 
L 301.252295 126.172275 
L 301.386783 126.239258 
L 301.521271 139.093915 
L 301.65576 132.329579 
L 301.790248 141.503436 
L 302.597177 247.520052 
L 302.731665 249.228114 
L 303.000642 261.318515 
L 303.13513 261.53714 
L 303.269618 262.00509 
L 303.404106 264.401586 
L 303.538595 264.809996 
L 303.807571 248.869942 
L 304.345524 161.389896 
L 304.6145 151.136405 
L 304.748988 159.163182 
L 304.883477 149.834892 
L 305.017965 155.759616 
L 306.093871 259.809541 
L 306.228359 260.794282 
L 306.497335 270.6896 
L 306.766312 271.692947 
L 306.9008 267.105088 
L 307.035288 256.835782 
L 307.304265 166.72759 
L 307.438753 173.803117 
L 307.842217 155.034899 
L 307.976706 161.905291 
L 308.111194 153.70222 
L 308.245682 158.537543 
L 308.649147 203.360688 
L 309.052611 258.281495 
L 309.590564 270.198858 
L 309.994029 271.858544 
L 310.128517 268.396368 
L 310.263005 256.103623 
L 310.531982 166.619208 
L 310.66647 167.741171 
L 310.935446 165.510735 
L 311.069934 156.399209 
L 311.204423 162.689084 
L 311.338911 161.431295 
L 311.473399 154.83116 
L 311.607887 167.630928 
L 311.876864 204.244489 
L 312.14584 245.486844 
L 312.414817 256.98975 
L 312.818281 265.379815 
L 312.952769 264.956986 
L 313.087258 266.794362 
L 313.221746 266.698074 
L 313.356234 268.234493 
L 313.625211 257.948907 
L 313.759699 250.259836 
L 313.894187 253.526644 
L 314.028675 251.062699 
L 314.163163 252.89775 
L 314.297652 250.208203 
L 314.566628 256.603203 
L 314.701116 257.319082 
L 314.970093 261.950666 
L 315.104581 261.913918 
L 315.239069 261.625055 
L 315.508045 264.482524 
L 315.642534 265.005827 
L 315.777022 264.683938 
L 316.180487 267.597226 
L 316.314975 267.168815 
L 316.718439 269.462977 
L 316.852928 269.70579 
L 316.987416 268.874086 
L 317.121904 268.937813 
L 317.256392 267.846551 
L 317.39088 267.987494 
L 317.525369 266.487823 
L 317.659857 267.383718 
L 317.928833 264.928611 
L 318.332298 261.28735 
L 318.466786 261.925082 
L 318.601274 261.43527 
L 318.735763 262.854469 
L 318.870251 262.69492 
L 319.139227 263.782926 
L 319.273715 273.368448 
L 319.67718 274.458315 
L 319.811668 271.945063 
L 319.946157 264.193195 
L 320.349621 145.303782 
L 320.484109 129.563281 
L 320.887574 156.148489 
L 321.022062 160.696344 
L 321.291039 175.103235 
L 321.425527 176.857814 
L 321.560015 194.82968 
L 321.828991 248.946693 
L 321.96348 256.828805 
L 322.097968 257.595386 
L 322.635921 273.871285 
L 322.770409 274.209455 
L 322.904897 273.567071 
L 323.173874 263.4001 
L 323.44285 170.358618 
L 323.577338 170.711208 
L 323.711826 170.907505 
L 323.980803 151.242927 
L 324.249779 154.692077 
L 324.384268 157.388136 
L 324.787732 192.710883 
L 325.056709 245.849202 
L 325.325685 254.885372 
L 325.863638 272.254859 
L 325.998126 273.977341 
L 326.132614 274.041068 
L 326.267103 270.90962 
L 326.401591 262.139055 
L 326.670567 163.350539 
L 326.805055 169.154788 
L 326.939544 170.297217 
L 327.20852 157.406743 
L 327.343008 165.343278 
L 327.611985 161.684806 
L 327.746473 166.421051 
L 328.149937 219.727292 
L 328.418914 249.78863 
L 328.68789 262.273951 
L 328.822379 264.664866 
L 328.956867 274.455989 
L 329.225843 275.378864 
L 329.360331 274.553207 
L 329.629308 262.046954 
L 330.032772 175.29395 
L 330.301749 164.243178 
L 330.570725 155.658677 
L 330.839702 176.956892 
L 330.97419 178.138395 
L 331.108678 180.813987 
L 331.781119 254.769083 
L 332.050096 261.750183 
L 332.184584 272.250672 
L 332.319072 273.182385 
L 332.45356 272.534419 
L 332.588049 273.496832 
L 332.857025 261.209668 
L 333.26049 174.678546 
L 333.394978 176.539645 
L 333.663954 162.008091 
L 333.798442 163.170057 
L 333.932931 166.841089 
L 334.336395 184.250579 
L 334.73986 250.261231 
L 335.143325 265.589136 
L 335.277813 265.39563 
L 335.412301 265.490523 
L 335.546789 265.768688 
L 335.681277 265.666353 
L 335.950254 268.182395 
L 336.084742 266.14128 
L 336.622695 250.09796 
L 336.757183 250.87245 
L 336.891671 249.089962 
L 337.295136 255.285409 
L 337.698601 259.896991 
L 337.833089 259.429972 
L 338.102065 263.424753 
L 338.236553 263.198686 
L 338.371042 263.819673 
L 338.50553 261.544117 
L 339.043483 264.622072 
L 339.446947 267.541407 
L 339.581436 267.072062 
L 339.715924 265.932888 
L 339.850412 266.18547 
L 339.9849 265.4254 
L 340.119388 265.315623 
L 340.253877 264.854186 
L 340.388365 266.293386 
L 340.522853 264.355536 
L 340.657341 264.938845 
L 340.926318 264.628584 
L 341.060806 261.37573 
L 341.329782 266.132442 
L 341.464271 266.033363 
L 341.598759 266.548293 
L 341.733247 268.074479 
L 341.867735 275.695637 
L 342.136712 275.794715 
L 342.2712 276.419888 
L 342.540176 264.050392 
L 342.943641 151.833678 
L 343.212617 168.016079 
L 343.347106 167.300666 
L 343.75057 181.315893 
L 343.885058 182.947669 
L 344.019547 182.302029 
L 344.423011 248.443391 
L 345.22994 273.47683 
L 345.364429 274.53274 
L 345.498917 274.174568 
L 345.633405 270.066288 
L 345.767893 262.189757 
L 346.03687 180.10276 
L 346.171358 184.114752 
L 346.440334 170.898667 
L 346.574823 165.665633 
L 346.843799 172.367173 
L 347.112775 174.187803 
L 347.381752 207.780625 
L 347.650728 245.690583 
L 348.054193 263.189848 
L 348.188681 264.341581 
L 348.323169 273.079585 
L 348.457658 273.905706 
L 348.592146 275.728198 
L 348.726634 275.537948 
L 348.99561 262.963781 
L 349.264587 179.079411 
L 349.399075 180.515355 
L 349.668052 163.410079 
L 349.80254 159.404134 
L 350.206004 177.617883 
L 350.340493 178.767289 
L 351.012934 256.879507 
L 351.147422 259.140178 
L 351.550886 275.373282 
L 351.685375 274.67973 
L 351.954351 275.036972 
L 352.088839 273.675918 
L 352.223328 266.575738 
L 352.492304 175.107887 
L 352.626792 182.086661 
L 352.76128 171.012631 
L 352.895769 170.322336 
L 353.030257 162.259277 
L 353.164745 169.282706 
L 353.299233 167.259732 
L 353.56821 149.946995 
L 354.240651 263.327535 
L 354.375139 264.435543 
L 354.644115 270.145364 
L 354.913092 274.308069 
L 355.182068 275.323045 
L 355.316556 272.983297 
L 355.451045 264.093186 
L 355.854509 192.702045 
L 356.123486 155.367488 
L 356.257974 157.036477 
L 356.392462 165.42189 
L 356.52695 164.80509 
L 356.661439 175.134401 
L 356.795927 173.915686 
L 357.33388 259.129944 
L 357.602856 268.476376 
L 357.737344 270.389573 
L 357.871832 274.53367 
L 358.006321 273.970363 
L 358.140809 274.17922 
L 358.275297 274.89975 
L 358.409785 274.814161 
L 358.678762 273.587538 
L 359.082226 255.602182 
L 359.351203 249.850961 
L 359.485691 243.743429 
L 359.620179 254.196473 
L 359.754667 255.573807 
L 359.889156 255.737543 
L 360.427109 269.653227 
L 360.561597 270.315147 
L 360.965061 274.354119 
L 361.234038 274.315511 
L 361.368526 274.128982 
L 361.503014 275.400261 
L 361.771991 275.003481 
L 361.906479 276.299412 
L 362.040967 276.252897 
L 362.175455 276.618511 
L 362.309944 276.65805 
L 362.57892 273.334492 
L 362.713408 273.28658 
L 362.982385 272.181364 
L 363.116873 270.727743 
L 363.251361 270.628664 
L 363.385849 271.691086 
L 363.520337 270.859383 
L 363.654826 270.801238 
L 364.05829 273.514973 
L 364.192778 248.183368 
L 364.730731 254.278341 
L 364.86522 253.114049 
L 364.999708 241.345537 
L 365.134196 219.767296 
L 365.403172 133.723659 
L 365.672149 104.211674 
L 365.806637 98.443243 
L 366.075613 114.95079 
L 366.34459 111.887721 
L 366.479078 123.024547 
L 367.017031 246.151555 
L 367.151519 250.983157 
L 367.286007 249.292771 
L 367.554984 260.360289 
L 367.689472 261.204552 
L 367.958448 265.978009 
L 368.227425 243.023829 
L 368.496401 149.540911 
L 368.765378 98.996316 
L 369.034354 88.375351 
L 369.168842 92.975769 
L 369.303331 92.542706 
L 369.437819 95.824865 
L 369.572307 93.757235 
L 369.706795 109.45215 
L 370.244748 230.108701 
L 370.782701 273.190758 
L 370.917189 273.487994 
L 371.051677 274.35691 
L 371.186166 274.085258 
L 371.455142 259.643014 
L 371.858607 168.752425 
L 372.127583 199.922701 
L 372.262071 195.965597 
L 372.396559 197.355956 
L 372.665536 186.940591 
L 372.800024 190.638601 
L 373.203489 229.334212 
L 373.472465 251.024556 
L 373.87593 271.678062 
L 374.010418 280.467233 
L 374.144906 280.324895 
L 374.279394 281.500815 
L 374.413883 281.010538 
L 374.682859 264.870931 
L 375.220812 177.743475 
L 375.489788 174.20641 
L 375.624277 174.423639 
L 375.893253 180.793055 
L 376.027741 184.979947 
L 376.565694 250.846401 
L 376.83467 259.510909 
L 376.969159 262.275347 
L 377.103647 273.787556 
L 377.238135 272.722343 
L 377.507112 274.742527 
L 377.6416 272.826538 
L 377.776088 276.276154 
L 378.045064 274.183406 
L 378.179553 264.786738 
L 378.314041 264.176915 
L 378.448529 257.256286 
L 378.583017 258.231723 
L 378.717505 257.337688 
L 378.851994 261.734832 
L 378.986482 260.993835 
L 379.12097 261.879032 
L 379.255458 263.983874 
L 379.389947 263.870375 
L 379.927899 272.89073 
L 380.062388 272.689317 
L 380.196876 273.0954 
L 380.331364 263.436382 
L 380.60034 265.315158 
L 380.869317 266.928328 
L 381.138293 256.306897 
L 381.272782 229.894263 
L 381.541758 157.177885 
L 381.810734 137.522144 
L 381.945223 139.073448 
L 382.214199 145.397279 
L 382.348687 137.608199 
L 382.752152 186.213083 
L 383.021128 252.507947 
L 383.155616 260.237022 
L 383.290105 260.882662 
L 383.424593 262.13766 
L 383.559081 257.332572 
L 383.693569 256.638555 
L 383.962546 256.97626 
L 384.097034 258.136831 
L 384.231522 256.397603 
L 384.36601 257.754936 
L 385.038451 146.433187 
L 385.17294 148.815264 
L 385.307428 163.571489 
L 385.576404 158.068663 
L 386.248845 255.282618 
L 386.921286 273.320537 
L 387.055775 272.526046 
L 387.190263 273.771741 
L 387.324751 273.098191 
L 387.459239 273.255415 
L 387.593727 274.70764 
L 387.728216 274.147589 
L 387.862704 275.431892 
L 387.997192 274.291788 
L 388.13168 275.842627 
L 388.266169 274.883005 
L 388.400657 272.947015 
L 388.535145 273.033999 
L 388.669633 272.387894 
L 388.804121 273.498693 
L 388.93861 271.011025 
L 389.207586 273.098191 
L 389.476562 279.62204 
L 389.611051 278.589853 
L 389.745539 279.386205 
L 389.880027 279.335502 
L 390.014515 264.799762 
L 390.283492 265.042575 
L 390.41798 265.052343 
L 390.552468 264.92489 
L 390.686956 259.561146 
L 390.821445 259.741628 
L 390.955933 251.105959 
L 391.224909 196.319583 
L 391.359397 165.708893 
L 391.493886 161.816446 
L 391.762862 172.249022 
L 391.89735 171.718742 
L 392.031839 164.671589 
L 392.166327 168.280755 
L 392.300815 177.041551 
L 392.569791 235.731538 
L 392.70428 261.378521 
L 392.973256 266.103137 
L 393.107744 266.74459 
L 393.376721 259.860243 
L 393.645697 265.43889 
L 393.780185 262.130682 
L 393.914673 263.481503 
L 394.049162 256.249217 
L 394.721603 144.43254 
L 394.990579 143.386864 
L 395.125067 142.977059 
L 395.259556 154.08458 
L 395.394044 154.933495 
L 395.931997 240.931081 
L 396.200973 254.209962 
L 396.335461 250.564049 
L 396.46995 274.734154 
L 396.604438 275.108141 
L 397.007902 278.069341 
L 397.276879 265.330043 
L 397.545855 193.413272 
L 397.680343 188.351882 
L 397.94932 165.542831 
L 398.083808 152.403497 
L 398.218296 164.837186 
L 398.352785 160.18653 
L 398.487273 163.125867 
L 398.487273 163.125867 
" clip-path="url(#p42d8ab6b61)" style="fill: none; stroke: #1f77b4; stroke-width: 1.5; stroke-linecap: square"/>
   </g>
   <g id="line2d_14">
    <path d="M 73.832727 274.072202 
L 73.967215 274.582729 
L 74.101704 274.578805 
L 74.37068 273.617783 
L 74.505168 271.020488 
L 74.639657 273.089124 
L 74.774145 271.112435 
L 74.908633 272.342739 
L 75.043121 259.116096 
L 75.177609 211.514478 
L 75.312098 238.724137 
L 76.119027 246.796578 
L 76.253515 246.423671 
L 76.522492 247.978334 
L 76.65698 274.561767 
L 76.925956 267.164927 
L 77.060444 273.945275 
L 77.194933 271.171699 
L 77.329421 251.317678 
L 77.463909 260.887727 
L 77.732885 253.190233 
L 77.867374 252.712976 
L 78.13635 204.221393 
L 78.405327 115.606094 
L 78.539815 94.06194 
L 78.674303 119.310753 
L 78.943279 97.867227 
L 79.346744 147.546601 
L 79.884697 252.471575 
L 80.019185 251.657564 
L 80.153673 254.559908 
L 80.42265 265.676932 
L 80.557138 256.992753 
L 80.691626 273.221786 
L 80.826114 261.389737 
L 80.960603 262.400423 
L 81.229579 247.830584 
L 81.364067 224.674234 
L 81.633044 127.88489 
L 81.767532 165.956074 
L 81.90202 149.995143 
L 82.036508 211.328369 
L 82.170996 213.959446 
L 82.305485 209.679344 
L 82.439973 213.840456 
L 82.574461 186.263496 
L 82.708949 216.16071 
L 82.843438 219.374422 
L 82.977926 214.871032 
L 83.112414 221.535017 
L 83.246902 214.11226 
L 83.38139 213.927472 
L 83.784855 269.56254 
L 83.919343 277.805773 
L 84.18832 276.027359 
L 84.322808 213.914872 
L 84.457296 248.606459 
L 84.591784 213.914872 
L 84.860761 213.914872 
L 84.995249 214.470381 
L 85.129737 168.367234 
L 85.264225 179.512173 
L 85.398714 160.143109 
L 85.66769 189.55001 
L 85.802178 196.635823 
L 86.340131 262.407992 
L 86.474619 255.649966 
L 86.878084 269.078727 
L 87.14706 282.64963 
L 87.281549 281.995623 
L 87.416037 279.87479 
L 87.550525 281.489111 
L 87.819501 278.343174 
L 88.088478 236.212176 
L 88.222966 251.403125 
L 88.357454 241.983206 
L 88.491942 251.232958 
L 88.626431 250.323888 
L 88.760919 246.295177 
L 88.895407 255.289716 
L 89.029895 243.850207 
L 89.164384 254.48782 
L 89.298872 253.805819 
L 89.43336 256.411597 
L 89.567848 271.431949 
L 89.702336 266.901545 
L 90.105801 272.845075 
L 90.240289 249.642067 
L 90.374777 259.55392 
L 90.509266 259.929221 
L 90.643754 256.083492 
L 90.778242 258.815478 
L 90.91273 256.882571 
L 91.047218 259.62006 
L 91.181707 251.445802 
L 91.316195 234.739846 
L 91.450683 242.999904 
L 91.585171 232.764091 
L 91.71966 248.300185 
L 91.854148 242.592588 
L 92.123124 248.899861 
L 92.392101 255.106581 
L 92.526589 254.07672 
L 92.795565 259.923295 
L 93.064542 261.549026 
L 93.19903 268.836413 
L 93.333518 262.983812 
L 93.468006 279.235141 
L 93.736983 265.455079 
L 93.871471 264.50198 
L 94.274936 242.053757 
L 94.543912 154.893625 
L 94.6784 172.963867 
L 94.812888 155.202211 
L 94.947377 152.291452 
L 95.081865 154.229346 
L 95.350841 173.216015 
L 95.48533 175.981144 
L 95.619818 183.464885 
L 95.888794 245.132098 
L 96.157771 259.243748 
L 96.292259 259.132497 
L 96.426747 268.673391 
L 96.695723 265.879834 
L 96.9647 257.450734 
L 97.099188 260.031954 
L 97.368164 245.765626 
L 97.637141 194.181208 
L 97.771629 147.326555 
L 97.906117 175.429078 
L 98.040606 162.771217 
L 98.175094 179.632423 
L 98.309582 171.042045 
L 98.578558 183.206497 
L 98.982023 223.699856 
L 99.250999 257.966192 
L 99.385488 264.031533 
L 99.519976 259.721749 
L 99.654464 274.697952 
L 99.788952 270.971354 
L 99.923441 284.938817 
L 100.192417 269.321763 
L 100.595882 265.103746 
L 100.73037 260.887932 
L 100.864858 260.336134 
L 100.999346 267.321912 
L 101.133834 266.599006 
L 101.268323 272.901092 
L 101.402811 272.958487 
L 101.537299 269.885806 
L 101.671787 260.680015 
L 101.806276 275.118752 
L 101.940764 260.509592 
L 102.075252 260.644194 
L 102.20974 269.961463 
L 102.344228 267.71188 
L 102.478717 267.785091 
L 102.613205 269.136641 
L 102.882181 273.416322 
L 103.016669 283.500355 
L 103.151158 249.058072 
L 103.420134 262.089878 
L 103.958087 231.241342 
L 104.227063 139.52511 
L 104.361552 162.471361 
L 104.49604 148.240612 
L 104.630528 167.475252 
L 104.765016 144.587301 
L 104.899504 144.030471 
L 105.168481 174.904992 
L 105.437457 214.212113 
L 105.706434 249.431285 
L 105.840922 264.136036 
L 105.97541 253.682395 
L 106.109898 255.420517 
L 106.378875 287.686284 
L 106.647851 274.188482 
L 106.782339 268.96328 
L 106.916828 272.117113 
L 107.051316 267.865852 
L 107.185804 270.795595 
L 107.45478 196.715694 
L 107.723757 241.152261 
L 107.858245 231.681381 
L 108.127222 240.211152 
L 108.396198 244.040225 
L 108.665174 245.992039 
L 109.068639 272.33346 
L 109.203127 267.906979 
L 109.337615 273.812035 
L 109.472104 270.718409 
L 109.606592 264.504068 
L 109.74108 268.243647 
L 109.875568 267.156131 
L 110.010056 267.781765 
L 110.144545 266.563353 
L 110.413521 266.856632 
L 110.548009 264.656883 
L 110.816986 266.057481 
L 111.085962 263.630224 
L 111.22045 264.649491 
L 111.354939 267.52607 
L 111.489427 267.035946 
L 111.623915 265.198029 
L 111.758403 264.957346 
L 111.892891 263.238779 
L 112.161868 266.875768 
L 112.430844 264.610606 
L 112.565333 268.260652 
L 112.699821 268.421966 
L 112.834309 253.488467 
L 112.968797 261.300422 
L 113.103285 261.181467 
L 113.237774 259.967562 
L 113.372262 260.764221 
L 113.50675 258.751986 
L 113.641238 262.11786 
L 113.775726 260.999208 
L 113.910215 262.421629 
L 114.044703 257.850418 
L 114.179191 259.637191 
L 114.313679 257.548303 
L 114.448168 251.536554 
L 114.717144 256.722189 
L 114.851632 255.384844 
L 115.120609 249.682162 
L 115.255097 251.393686 
L 115.524073 257.606142 
L 115.658561 256.20619 
L 115.79305 262.773209 
L 116.331002 246.683862 
L 116.465491 256.465394 
L 116.599979 247.153389 
L 116.734467 245.829606 
L 116.868955 215.49838 
L 117.137932 107.385307 
L 117.27242 79.943719 
L 117.406908 100.701826 
L 117.675885 74.844964 
L 117.944861 98.946485 
L 118.348326 181.582922 
L 118.617302 248.625192 
L 118.75179 246.903373 
L 118.886279 250.385663 
L 119.020767 250.192976 
L 119.155255 250.774377 
L 119.289743 251.979954 
L 119.424231 251.576331 
L 119.693208 241.944092 
L 119.827696 241.419981 
L 119.962184 235.962966 
L 120.096672 211.459741 
L 120.365649 105.034561 
L 120.500137 97.407215 
L 120.634625 103.278855 
L 120.903602 87.7158 
L 121.307066 118.927759 
L 121.845019 252.630918 
L 121.979507 245.645266 
L 122.113996 251.889743 
L 122.248484 240.687005 
L 122.51746 247.338161 
L 122.651948 258.363953 
L 123.189901 233.562675 
L 123.32439 215.258331 
L 123.593366 110.703616 
L 123.727854 90.391209 
L 123.862342 95.874727 
L 124.131319 88.43678 
L 124.669272 149.496233 
L 124.80376 173.448588 
L 125.072736 248.064875 
L 125.341713 257.131082 
L 125.476201 248.050932 
L 125.610689 254.778541 
L 125.745177 253.059157 
L 125.879666 266.684587 
L 126.28313 250.919523 
L 126.417618 223.804652 
L 126.552107 219.682292 
L 126.821083 111.723437 
L 126.955571 100.261488 
L 127.09006 101.892827 
L 127.224548 89.842279 
L 127.359036 91.819256 
L 127.762501 134.495916 
L 128.300453 252.402888 
L 128.434942 248.885225 
L 128.56943 253.551793 
L 128.838406 251.743024 
L 128.972894 261.159299 
L 129.107383 251.134964 
L 129.241871 250.461444 
L 129.376359 250.932733 
L 129.510847 246.264866 
L 130.183288 88.292935 
L 130.317777 104.312024 
L 130.452265 89.087375 
L 130.586753 94.351813 
L 130.721241 121.795824 
L 130.855729 123.965463 
L 131.124706 161.373656 
L 131.528171 247.061714 
L 131.931635 259.930641 
L 132.066123 259.735759 
L 132.3351 255.015955 
L 132.469588 257.628457 
L 132.604076 263.86284 
L 132.873053 258.843113 
L 133.007541 257.63035 
L 133.142029 242.726573 
L 133.276517 242.207386 
L 133.411005 232.955738 
L 133.545494 232.553078 
L 133.679982 232.748676 
L 133.81447 231.807167 
L 134.083447 236.652396 
L 134.217935 233.016869 
L 134.486911 244.998899 
L 134.890376 253.368824 
L 135.024864 252.48303 
L 135.159352 257.957378 
L 135.428329 259.089342 
L 135.697305 258.400765 
L 135.831793 259.05195 
L 135.966282 259.131586 
L 136.10077 265.009157 
L 136.369746 256.701292 
L 136.504234 261.396872 
L 136.638723 259.968561 
L 136.773211 252.886632 
L 136.907699 257.9327 
L 137.042187 257.165469 
L 137.176675 258.303246 
L 137.445652 249.585312 
L 137.714628 255.105583 
L 137.849117 251.794142 
L 138.118093 257.468962 
L 138.252581 256.371683 
L 138.387069 262.093124 
L 138.521558 261.821527 
L 138.656046 263.905386 
L 138.925022 250.381073 
L 139.05951 251.990012 
L 139.193999 248.97292 
L 139.462975 210.199476 
L 139.731951 102.020025 
L 139.86644 86.363262 
L 140.000928 104.974739 
L 140.135416 87.333523 
L 140.269904 86.573519 
L 140.538881 113.571542 
L 141.211322 257.456008 
L 141.34581 249.302642 
L 141.480298 248.175078 
L 141.614786 259.687818 
L 141.749275 258.934201 
L 142.018251 260.057279 
L 142.421716 243.308753 
L 142.556204 205.866281 
L 142.690692 201.198119 
L 142.959669 103.726148 
L 143.094157 91.912954 
L 143.228645 108.881135 
L 143.363133 91.070592 
L 143.497621 87.983098 
L 143.63211 103.919716 
L 143.766598 102.65226 
L 144.170063 183.363968 
L 144.439039 250.691137 
L 144.573527 242.642614 
L 144.842504 262.64687 
L 144.976992 262.262466 
L 145.11148 260.403115 
L 145.380456 254.125093 
L 145.514945 252.987461 
L 145.649433 236.456976 
L 145.783921 196.801313 
L 145.918409 206.108857 
L 146.187386 113.180811 
L 146.321874 94.220305 
L 146.59085 111.361671 
L 146.725339 102.560561 
L 146.994315 117.143657 
L 147.666756 249.019049 
L 147.801244 247.964933 
L 148.070221 264.021472 
L 148.204709 261.670051 
L 148.339197 264.070059 
L 148.742662 250.520666 
L 149.011638 240.376178 
L 149.415103 108.853362 
L 149.549591 99.916711 
L 149.684079 121.145681 
L 149.818567 101.530843 
L 149.953056 102.039333 
L 150.625497 195.050275 
L 150.894473 251.529414 
L 151.028961 247.095917 
L 151.297938 264.835642 
L 151.432426 260.607363 
L 151.566914 261.050707 
L 152.104867 250.413225 
L 152.239355 242.043905 
L 152.64282 102.903694 
L 152.777308 96.131276 
L 152.911796 128.156213 
L 153.180773 91.745832 
L 153.315261 122.427688 
L 153.449749 123.656402 
L 153.584237 170.584486 
L 153.718726 178.228673 
L 154.12219 253.468326 
L 154.525655 265.618758 
L 154.660143 268.592717 
L 154.794631 267.626923 
L 154.92912 267.845666 
L 155.063608 266.514016 
L 155.198096 266.608201 
L 155.467072 268.76488 
L 155.601561 265.798034 
L 155.736049 257.312865 
L 155.870537 241.810832 
L 156.005025 251.455842 
L 156.139513 247.855722 
L 156.274002 254.53738 
L 156.40849 252.263935 
L 156.542978 252.480787 
L 156.811955 258.313375 
L 156.946443 256.597375 
L 157.215419 261.435235 
L 157.484396 264.78339 
L 157.618884 264.546538 
L 157.88786 266.766722 
L 158.022348 267.734122 
L 158.156837 267.457271 
L 158.291325 266.115282 
L 158.425813 266.213484 
L 158.829278 270.686235 
L 158.963766 266.093318 
L 159.098254 270.082473 
L 159.232742 269.377943 
L 159.367231 266.460392 
L 159.636207 269.92163 
L 160.039672 259.275118 
L 160.17416 262.99317 
L 160.308648 257.668059 
L 160.443136 260.499098 
L 160.577624 260.520341 
L 160.712113 265.108805 
L 160.846601 261.480879 
L 160.981089 265.854708 
L 161.115577 264.81641 
L 161.250066 262.861385 
L 161.384554 264.270206 
L 161.788018 251.308679 
L 162.056995 209.856725 
L 162.325971 112.020383 
L 162.460459 89.91675 
L 162.729436 105.596014 
L 162.863924 91.760873 
L 162.998412 92.094157 
L 163.805342 252.154809 
L 163.93983 246.45231 
L 164.074318 249.337533 
L 164.343294 260.512418 
L 164.477783 257.759259 
L 164.612271 270.779285 
L 164.746759 263.032006 
L 164.881247 262.89088 
L 165.284712 210.296395 
L 165.553688 112.069538 
L 165.688177 98.69206 
L 165.822665 122.628991 
L 165.957153 101.727874 
L 166.091641 100.368462 
L 166.226129 118.958623 
L 166.360618 121.902847 
L 166.629594 147.86124 
L 166.764082 172.350222 
L 167.033059 251.208154 
L 167.167547 245.905498 
L 167.302035 247.758026 
L 167.436523 254.256133 
L 167.571012 253.927143 
L 167.7055 253.936264 
L 167.839988 255.81712 
L 167.974476 255.635577 
L 168.243453 248.866513 
L 168.512429 199.629243 
L 168.781405 100.341001 
L 168.915894 93.734125 
L 169.050382 112.223465 
L 169.18487 91.513397 
L 169.319358 94.510852 
L 169.453847 108.771913 
L 169.588335 106.26956 
L 170.126288 219.639632 
L 170.260776 254.480902 
L 170.395264 249.439044 
L 170.66424 257.150018 
L 170.933217 262.502933 
L 171.202193 253.210766 
L 171.336681 250.07035 
L 171.47117 251.559845 
L 171.605658 213.024205 
L 171.740146 207.667431 
L 172.009123 109.791945 
L 172.143611 93.954403 
L 172.278099 113.580791 
L 172.547075 91.779361 
L 172.681564 101.111625 
L 173.488493 254.612858 
L 173.622981 248.54233 
L 174.026446 265.691418 
L 174.160934 283.787976 
L 174.295422 268.614196 
L 174.42991 266.443274 
L 174.698887 260.082787 
L 175.23684 140.477896 
L 175.371328 152.574642 
L 175.505816 141.408002 
L 175.640304 139.615679 
L 175.774792 142.227216 
L 175.909281 153.896734 
L 176.043769 152.792326 
L 176.447234 204.66882 
L 176.71621 260.55039 
L 176.850698 251.851639 
L 177.119675 266.452908 
L 177.254163 261.649761 
L 177.388651 264.32995 
L 177.523139 264.704868 
L 177.657627 261.797108 
L 177.926604 266.593083 
L 178.061092 265.678982 
L 178.19558 266.358373 
L 178.330069 251.831623 
L 178.464557 250.896039 
L 178.599045 254.12708 
L 178.733533 243.131059 
L 179.136998 254.936977 
L 179.271486 251.254832 
L 179.405974 251.600191 
L 179.540462 255.282365 
L 179.674951 253.092145 
L 179.809439 254.251241 
L 180.212904 263.751483 
L 180.347392 264.384889 
L 180.48188 264.039537 
L 180.616368 273.669095 
L 180.885345 268.619729 
L 181.019833 267.708 
L 181.154321 267.90083 
L 181.288809 266.695971 
L 181.692274 252.743079 
L 181.826762 257.714093 
L 181.96125 254.708301 
L 182.095738 259.817602 
L 182.230227 249.688097 
L 182.499203 262.756718 
L 182.76818 265.243843 
L 182.902668 269.241208 
L 183.037156 266.5967 
L 183.171644 266.321047 
L 183.306132 270.553888 
L 183.440621 268.532687 
L 183.575109 277.397128 
L 183.844085 266.018611 
L 183.978573 285.321875 
L 184.382038 268.212097 
L 184.651015 242.491543 
L 184.919991 155.383921 
L 185.054479 176.79164 
L 185.188967 164.95317 
L 185.323456 180.362409 
L 185.457944 171.351157 
L 185.861408 198.086944 
L 186.264873 251.326016 
L 186.399361 258.580441 
L 186.53385 257.666309 
L 186.668338 259.871304 
L 186.802826 272.693841 
L 186.937314 273.896441 
L 187.071802 279.325936 
L 187.206291 289.613962 
L 187.744243 266.999589 
L 187.878732 245.485378 
L 188.01322 168.93786 
L 188.147708 158.455708 
L 188.282196 179.631573 
L 188.416684 167.936638 
L 188.551173 177.976754 
L 188.685661 178.799458 
L 188.820149 184.795385 
L 188.954637 199.151328 
L 189.089126 199.965792 
L 189.627078 262.444263 
L 189.761567 262.485779 
L 189.896055 258.991981 
L 190.165031 276.323966 
L 190.299519 263.165746 
L 190.434008 263.921253 
L 190.702984 253.056445 
L 190.837472 253.291715 
L 190.971961 252.365624 
L 191.106449 252.379956 
L 191.240937 250.857083 
L 191.375425 242.468766 
L 191.644402 254.52926 
L 191.77889 247.001108 
L 191.913378 257.597739 
L 192.047866 257.886398 
L 192.182354 259.681407 
L 192.316843 255.441063 
L 192.585819 262.058201 
L 192.720307 261.130612 
L 192.854796 263.252336 
L 192.989284 268.812882 
L 193.123772 264.754983 
L 193.25826 272.350683 
L 193.661725 258.467793 
L 193.796213 258.534706 
L 194.065189 251.518048 
L 194.334166 228.48056 
L 194.603142 149.569818 
L 194.73763 158.219189 
L 194.872119 145.306583 
L 195.006607 150.669288 
L 195.141095 142.5068 
L 195.275583 147.956373 
L 195.410072 160.945042 
L 195.54456 160.121621 
L 195.948024 240.115168 
L 196.217001 259.977266 
L 196.351489 257.029902 
L 196.620465 265.283679 
L 196.754954 276.324321 
L 197.02393 260.697159 
L 197.158418 255.578924 
L 197.292907 254.865648 
L 197.427395 246.097919 
L 197.561883 229.135014 
L 197.830859 152.963971 
L 197.965348 185.731532 
L 198.099836 179.806201 
L 198.234324 189.412449 
L 198.368812 187.944788 
L 198.5033 198.953287 
L 198.637789 196.554509 
L 198.772277 203.723949 
L 199.175742 251.399587 
L 199.444718 270.987184 
L 199.579206 267.29093 
L 199.982671 276.581155 
L 200.117159 272.843296 
L 200.251647 273.437159 
L 200.386135 272.768516 
L 200.520624 269.232785 
L 200.655112 259.563544 
L 200.7896 261.626952 
L 200.924088 236.502386 
L 201.058576 161.961629 
L 201.193065 203.385013 
L 201.327553 187.41468 
L 201.462041 191.691981 
L 201.596529 191.901734 
L 201.731018 198.81135 
L 201.865506 193.559856 
L 202.134482 212.667883 
L 202.537947 260.134101 
L 202.672435 265.742108 
L 202.806923 263.192077 
L 203.0759 270.97581 
L 203.210388 261.324124 
L 203.344876 260.301525 
L 203.479364 265.874532 
L 203.613853 262.545494 
L 204.017317 246.916991 
L 204.151805 217.441119 
L 204.286294 161.440312 
L 204.420782 160.212389 
L 204.55527 153.719553 
L 204.689758 156.86156 
L 204.824246 154.686364 
L 204.958735 166.74145 
L 205.093223 168.158351 
L 205.362199 201.267331 
L 205.631176 235.200908 
L 205.900152 260.08948 
L 206.03464 258.469294 
L 206.303617 268.052673 
L 206.438105 287.718928 
L 206.572593 275.619529 
L 206.707081 277.152799 
L 207.110546 267.772158 
L 207.514011 238.450912 
L 207.648499 237.699237 
L 207.917475 255.316184 
L 208.186452 265.949188 
L 208.32094 266.789944 
L 208.455428 261.588952 
L 208.589916 262.004187 
L 208.724405 267.524877 
L 208.858893 267.536388 
L 208.993381 275.044617 
L 209.127869 273.740202 
L 209.262357 274.160602 
L 209.396846 279.257659 
L 209.531334 276.49451 
L 209.665822 262.353 
L 209.80031 266.238325 
L 210.069287 258.500689 
L 210.203775 258.276921 
L 210.338263 229.542002 
L 210.472751 232.429736 
L 210.741728 137.100571 
L 210.876216 145.387462 
L 211.010704 124.951485 
L 211.145192 128.041704 
L 211.279681 116.746899 
L 211.414169 142.887757 
L 211.548657 140.667475 
L 211.817634 180.657253 
L 212.08661 237.106009 
L 212.355586 260.427259 
L 212.490075 254.355426 
L 212.893539 267.89964 
L 213.028027 268.366106 
L 213.297004 256.402753 
L 213.431492 259.273015 
L 213.834957 149.045562 
L 213.969445 111.702257 
L 214.103933 112.994546 
L 214.238421 139.154324 
L 214.37291 122.013306 
L 214.507398 124.606701 
L 215.583303 264.206819 
L 215.717792 254.936454 
L 215.85228 269.926763 
L 215.986768 267.253251 
L 216.121256 266.871554 
L 216.255745 265.146581 
L 216.524721 257.302257 
L 216.659209 258.073994 
L 216.928186 224.027128 
L 217.197162 121.44148 
L 217.33165 127.370272 
L 217.466138 146.407672 
L 217.600627 137.007811 
L 217.869603 149.019946 
L 218.004091 149.410298 
L 218.407556 219.626377 
L 218.542044 231.13635 
L 218.676532 263.458714 
L 218.811021 260.817745 
L 218.945509 262.841901 
L 219.079997 274.841045 
L 219.214485 260.301551 
L 219.348973 266.913376 
L 219.483462 264.980357 
L 219.61795 265.6872 
L 219.752438 265.227201 
L 219.886926 263.528557 
L 220.155903 224.402573 
L 220.424879 119.746813 
L 220.693856 149.844462 
L 220.828344 136.17092 
L 220.962832 140.436977 
L 221.09732 159.550518 
L 221.231808 158.545816 
L 221.500785 205.563116 
L 221.635273 216.939758 
L 221.904249 266.089953 
L 222.173226 259.237913 
L 222.307714 271.857647 
L 222.442202 266.928897 
L 222.576691 267.999484 
L 222.845667 272.046893 
L 222.980155 271.228394 
L 223.114643 272.091221 
L 223.249132 266.965464 
L 223.38362 271.529523 
L 223.652596 239.73079 
L 223.787084 257.18522 
L 223.921573 254.853901 
L 224.056061 249.031142 
L 224.190549 248.465466 
L 224.594014 257.53469 
L 224.86299 254.795172 
L 224.997478 254.429113 
L 225.131967 259.01966 
L 225.266455 259.473098 
L 225.400943 258.439368 
L 225.669919 261.933102 
L 225.804408 260.342791 
L 225.938896 256.429262 
L 226.073384 259.770334 
L 226.207872 259.629538 
L 226.34236 262.589805 
L 226.476849 261.571468 
L 226.611337 262.836515 
L 227.014802 256.816146 
L 227.14929 264.024337 
L 227.418266 264.485792 
L 227.552754 263.295109 
L 227.687243 268.413112 
L 227.821731 268.355739 
L 227.956219 268.809681 
L 228.090707 268.281377 
L 228.225195 268.76756 
L 228.359684 275.194861 
L 228.62866 271.481798 
L 228.763148 277.778196 
L 228.897637 278.150951 
L 229.032125 274.747358 
L 229.301101 265.237592 
L 229.570078 259.068806 
L 229.839054 206.764959 
L 230.10803 111.690408 
L 230.242519 96.695786 
L 230.377007 106.273166 
L 230.511495 103.807249 
L 230.645983 86.366708 
L 230.780471 125.424309 
L 230.91496 122.099851 
L 231.183936 171.541749 
L 231.587401 250.79311 
L 231.856377 254.826758 
L 232.125354 268.354839 
L 232.259842 268.498847 
L 232.39433 264.376694 
L 232.528818 264.064943 
L 232.663306 262.530759 
L 232.797795 254.690851 
L 233.066771 212.669435 
L 233.335748 115.341448 
L 233.470236 110.129079 
L 233.739212 131.034039 
L 233.8737 119.496941 
L 234.008189 137.937295 
L 234.142677 133.605062 
L 234.546141 211.339367 
L 234.949606 264.160653 
L 235.084094 260.711736 
L 235.218583 264.133322 
L 235.353071 271.491687 
L 235.487559 267.376122 
L 235.756535 271.521676 
L 236.025512 259.203521 
L 236.294488 227.424117 
L 236.563465 115.046521 
L 236.697953 107.424873 
L 236.832441 126.708999 
L 237.101417 108.652425 
L 237.370394 156.317961 
L 237.504882 155.360241 
L 238.042835 258.376028 
L 238.177323 263.719321 
L 238.311811 260.000755 
L 238.580788 271.633651 
L 238.715276 269.082178 
L 238.849764 270.200839 
L 239.118741 274.208769 
L 239.387717 253.57142 
L 239.522205 216.967399 
L 239.791182 119.854537 
L 239.92567 117.254646 
L 240.060158 122.08808 
L 240.194646 133.797102 
L 240.329135 124.990206 
L 240.463623 136.762272 
L 241.136064 244.332926 
L 241.270552 258.756991 
L 241.40504 255.326158 
L 241.539529 255.998124 
L 241.808505 265.00817 
L 241.942993 260.407951 
L 242.077481 275.955805 
L 242.21197 268.678693 
L 242.346458 278.287375 
L 242.615434 245.502718 
L 242.749922 218.849431 
L 243.018899 118.004927 
L 243.153387 130.446998 
L 243.287875 155.978331 
L 243.556852 127.600503 
L 243.69134 154.819541 
L 243.825828 158.079712 
L 244.498269 255.260995 
L 244.767246 258.641813 
L 244.901734 265.806022 
L 245.036222 265.581266 
L 245.305198 270.92506 
L 245.439687 268.826536 
L 245.574175 268.689857 
L 245.843151 263.670945 
L 245.97764 242.494979 
L 246.112128 260.787113 
L 246.246616 254.269919 
L 246.381104 253.804667 
L 246.650081 251.218719 
L 247.188033 265.750441 
L 247.322522 263.605805 
L 247.45701 266.835526 
L 247.591498 266.209054 
L 247.725986 266.315978 
L 247.860475 265.096689 
L 248.263939 270.204416 
L 248.398427 269.687252 
L 248.532916 267.666036 
L 248.667404 267.847846 
L 248.801892 265.592783 
L 248.93638 268.293673 
L 249.070868 265.796638 
L 249.474333 268.922109 
L 249.608821 269.400119 
L 249.877798 268.952203 
L 250.012286 270.270824 
L 250.146774 270.312511 
L 250.281262 270.013228 
L 250.415751 269.305764 
L 250.550239 270.425471 
L 251.088192 267.042696 
L 251.22268 266.637516 
L 251.357168 271.104318 
L 251.491656 271.610118 
L 251.626144 268.645991 
L 251.760633 285.310362 
L 251.895121 274.045928 
L 252.029609 272.924288 
L 252.164097 267.417228 
L 252.433074 237.407869 
L 252.70205 119.943802 
L 252.836538 119.588803 
L 253.105515 153.993792 
L 253.240003 136.230941 
L 253.643468 185.393833 
L 253.777956 197.887596 
L 254.046932 242.563858 
L 254.181421 261.570281 
L 254.315909 259.3046 
L 254.450397 263.731369 
L 254.584885 280.738083 
L 254.853862 277.983042 
L 254.98835 282.35063 
L 255.122838 275.144744 
L 255.257326 276.220153 
L 255.391814 272.810277 
L 255.929767 126.529043 
L 256.064255 162.564346 
L 256.198744 160.589706 
L 256.333232 147.459479 
L 256.46772 150.316821 
L 257.005673 209.609098 
L 257.409138 255.762588 
L 257.543626 255.118535 
L 257.678114 257.683564 
L 257.94709 265.531116 
L 258.081579 261.609227 
L 258.216067 279.176674 
L 258.485043 271.654496 
L 258.619532 263.902673 
L 258.888508 228.033316 
L 259.157484 128.246463 
L 259.291973 165.324969 
L 259.695437 143.815271 
L 259.964414 177.697856 
L 260.098902 167.419545 
L 260.367878 226.818877 
L 260.502366 235.426097 
L 260.636855 253.886705 
L 260.771343 255.980262 
L 260.905831 254.410456 
L 261.040319 266.051422 
L 261.309296 261.001838 
L 261.443784 267.292496 
L 261.578272 261.483353 
L 261.71276 263.885572 
L 261.981737 245.677284 
L 262.385201 127.936545 
L 262.51969 161.52121 
L 262.654178 153.567703 
L 262.788666 132.19998 
L 263.057643 158.393146 
L 263.192131 153.324981 
L 263.461107 199.544381 
L 263.864572 251.822675 
L 263.99906 253.751881 
L 264.133548 252.582884 
L 264.268036 259.454018 
L 264.402525 259.564568 
L 264.537013 267.706984 
L 264.671501 255.579724 
L 264.805989 257.406691 
L 265.209454 239.135649 
L 265.47843 182.395895 
L 265.612919 137.724989 
L 265.747407 134.815869 
L 265.881895 110.253327 
L 266.016383 123.357645 
L 266.150871 117.091944 
L 266.419848 125.702962 
L 266.688824 165.561524 
L 267.092289 251.48984 
L 267.226777 251.361935 
L 267.361265 251.643765 
L 267.495754 256.977107 
L 267.630242 254.992786 
L 267.76473 270.958438 
L 267.899218 262.724154 
L 268.033706 264.111972 
L 268.168195 261.661204 
L 268.437171 267.939762 
L 268.571659 266.764889 
L 268.706147 260.600221 
L 268.840636 266.778957 
L 268.975124 267.187915 
L 269.109612 262.867364 
L 269.2441 264.615139 
L 269.378589 264.602157 
L 269.513077 264.759743 
L 269.647565 260.792119 
L 269.782053 260.267063 
L 269.916541 257.377371 
L 270.05103 257.970443 
L 270.185518 256.388716 
L 270.320006 258.037414 
L 270.588982 256.740748 
L 270.723471 264.153356 
L 270.857959 263.579461 
L 270.992447 277.711725 
L 271.261424 269.386859 
L 271.395912 270.125691 
L 271.664888 267.658848 
L 271.799376 268.829982 
L 271.933865 268.7964 
L 272.068353 270.891787 
L 272.202841 267.754924 
L 272.337329 270.719214 
L 272.471817 269.758903 
L 272.606306 271.725792 
L 272.740794 271.345681 
L 272.875282 269.520823 
L 273.00977 274.085007 
L 273.278747 273.011953 
L 273.413235 270.5385 
L 273.682211 271.503039 
L 273.8167 270.842647 
L 273.951188 278.504261 
L 274.085676 277.748437 
L 274.220164 273.137175 
L 274.354652 290.585591 
L 274.758117 272.743545 
L 275.027093 234.847728 
L 275.29607 160.713685 
L 275.430558 158.667876 
L 275.565046 152.014916 
L 275.699535 156.806783 
L 275.834023 153.202586 
L 275.968511 155.209886 
L 276.102999 181.748677 
L 276.237487 184.154773 
L 276.77544 255.39483 
L 277.044417 262.988042 
L 277.178905 266.097009 
L 277.313393 271.788513 
L 277.447881 268.666531 
L 277.58237 277.915957 
L 277.716858 274.256434 
L 277.851346 278.547956 
L 277.985834 275.289434 
L 278.120322 267.592268 
L 278.254811 252.45311 
L 278.523787 192.155528 
L 278.658275 190.955583 
L 278.792763 172.213722 
L 278.927252 182.0238 
L 279.06174 173.174324 
L 279.196228 196.794249 
L 279.330716 191.786261 
L 279.599693 217.95647 
L 280.003157 258.536961 
L 280.137646 264.530018 
L 280.272134 264.826514 
L 280.406622 276.298149 
L 280.54111 278.208169 
L 280.675598 259.510567 
L 280.810087 259.62477 
L 281.213551 248.792332 
L 281.348039 231.001679 
L 281.482528 230.526727 
L 281.751504 114.582762 
L 281.885992 130.414087 
L 282.020481 116.879965 
L 282.289457 132.014575 
L 282.423945 133.803419 
L 282.558433 125.192394 
L 283.096386 232.844953 
L 283.365363 259.831635 
L 283.499851 257.067877 
L 283.768827 265.545373 
L 284.037804 254.211777 
L 284.575757 235.719387 
L 284.710245 226.466359 
L 284.979221 139.432596 
L 285.248198 152.289485 
L 285.382686 134.190114 
L 285.651662 140.111425 
L 286.59308 257.928217 
L 286.727568 254.796283 
L 286.862056 265.106817 
L 286.996544 261.812957 
L 287.131033 290.575427 
L 287.400009 269.440928 
L 287.937962 249.033843 
L 288.07245 253.839341 
L 288.206938 253.148764 
L 288.341427 256.12801 
L 288.475915 253.898962 
L 288.610403 258.773161 
L 288.744891 256.835079 
L 289.148356 270.465316 
L 289.282844 270.122408 
L 289.417332 266.095715 
L 289.55182 276.619477 
L 289.686309 276.474705 
L 289.820797 275.287263 
L 290.089773 271.860672 
L 290.224262 273.021867 
L 290.35875 270.534957 
L 290.493238 272.723304 
L 290.627726 269.723458 
L 290.762214 270.868235 
L 290.896703 266.617365 
L 291.031191 256.767897 
L 291.165679 257.206864 
L 291.300167 236.857846 
L 291.434655 161.07594 
L 291.703632 179.734816 
L 291.972608 185.896873 
L 292.107096 182.146617 
L 292.241585 183.492499 
L 292.510561 213.670321 
L 292.645049 222.283368 
L 292.914026 257.435439 
L 293.048514 262.878203 
L 293.183002 260.337129 
L 293.31749 267.11989 
L 293.451979 267.585293 
L 293.586467 264.873932 
L 293.720955 264.991239 
L 293.855443 261.885599 
L 293.989931 264.725177 
L 294.12442 262.506962 
L 294.258908 250.482886 
L 294.393396 249.51696 
L 294.527884 220.955518 
L 294.662373 162.328608 
L 294.796861 171.465768 
L 294.931349 148.604134 
L 295.065837 151.226885 
L 295.200325 140.176753 
L 295.469302 165.928373 
L 295.60379 164.584605 
L 295.872766 212.656975 
L 296.276231 261.194731 
L 296.410719 256.396789 
L 296.545208 257.79091 
L 296.679696 269.218856 
L 296.814184 290.925813 
L 296.948672 278.913295 
L 297.08316 277.274994 
L 297.352137 268.617685 
L 297.486625 266.479199 
L 297.621113 266.594788 
L 297.755601 268.434756 
L 297.89009 268.691085 
L 298.024578 271.892913 
L 298.159066 270.277771 
L 298.428042 275.130617 
L 298.562531 275.073578 
L 298.697019 274.272918 
L 298.831507 271.716481 
L 298.965995 273.819997 
L 299.100484 273.021124 
L 299.36946 273.716441 
L 299.503948 274.846578 
L 299.638436 272.311563 
L 299.907413 277.378164 
L 300.041901 254.226118 
L 300.176389 265.754215 
L 300.310877 258.328602 
L 300.445366 259.319095 
L 300.579854 253.639426 
L 300.84883 225.631479 
L 301.117807 140.500941 
L 301.252295 141.516179 
L 301.521271 127.358339 
L 301.65576 133.756705 
L 301.790248 146.249468 
L 301.924736 135.024949 
L 302.462689 230.357677 
L 302.731665 257.248245 
L 302.866153 255.472773 
L 303.000642 258.572494 
L 303.13513 268.394131 
L 303.269618 267.785626 
L 303.538595 254.671581 
L 303.673083 255.60361 
L 303.807571 251.075729 
L 303.942059 222.042817 
L 304.076547 220.974 
L 304.345524 134.621131 
L 304.480012 159.011959 
L 304.748988 145.288393 
L 304.883477 147.133648 
L 305.017965 161.645985 
L 305.152453 155.732673 
L 305.824894 254.377292 
L 305.959382 258.352381 
L 306.093871 258.70283 
L 306.362847 266.665933 
L 306.497335 261.628309 
L 306.631823 274.670069 
L 306.9008 264.026374 
L 307.035288 260.896063 
L 307.304265 223.110627 
L 307.573241 126.847238 
L 307.707729 163.291244 
L 307.842217 158.908117 
L 307.976706 142.577472 
L 308.111194 149.69436 
L 308.245682 164.934649 
L 308.38017 161.676044 
L 309.187099 263.308618 
L 309.321588 259.936248 
L 309.590564 271.893896 
L 309.725052 268.867349 
L 309.859541 270.59539 
L 310.263005 259.859793 
L 310.397493 247.346991 
L 310.531982 215.786426 
L 310.800958 129.071325 
L 311.069934 158.492823 
L 311.204423 149.662097 
L 311.338911 148.295839 
L 311.607887 173.801011 
L 311.742376 177.212944 
L 312.011352 234.36829 
L 312.14584 232.883276 
L 312.414817 260.086262 
L 312.549305 256.756136 
L 312.683793 265.215275 
L 312.818281 266.488318 
L 312.952769 266.626065 
L 313.087258 267.785455 
L 313.221746 263.771705 
L 313.356234 265.993561 
L 313.490722 262.974219 
L 313.625211 265.243589 
L 314.028675 238.094753 
L 314.163163 252.769934 
L 314.297652 246.3822 
L 314.43214 252.204692 
L 314.566628 247.867188 
L 314.701116 258.04628 
L 314.835604 258.48458 
L 314.970093 259.305085 
L 315.239069 266.197106 
L 315.508045 264.915133 
L 315.642534 266.936963 
L 315.777022 265.204313 
L 315.91151 268.025529 
L 316.045998 267.1074 
L 316.180487 267.98019 
L 316.314975 266.874629 
L 316.449463 267.158232 
L 316.583951 264.370939 
L 316.718439 265.074383 
L 316.852928 263.898015 
L 316.987416 265.425669 
L 317.121904 264.733706 
L 317.256392 263.118291 
L 317.39088 264.641442 
L 317.525369 263.188294 
L 317.659857 265.502152 
L 317.794345 263.74556 
L 317.928833 267.848007 
L 318.063322 264.968793 
L 318.19781 266.241854 
L 318.332298 265.931707 
L 318.466786 266.222311 
L 318.601274 264.494543 
L 318.735763 265.800832 
L 318.870251 263.968142 
L 319.004739 263.96699 
L 319.139227 269.899808 
L 319.273715 268.35043 
L 319.408204 265.1736 
L 319.542692 281.238662 
L 319.811668 268.280294 
L 319.946157 263.428207 
L 320.080645 253.643345 
L 320.215133 234.430177 
L 320.484109 126.098044 
L 320.618598 122.204039 
L 320.753086 122.983292 
L 320.887574 139.281876 
L 321.022062 135.139428 
L 321.291039 161.222947 
L 321.96348 262.750317 
L 322.232456 258.548534 
L 322.501433 268.391246 
L 322.635921 263.759599 
L 322.770409 279.95781 
L 323.039385 269.597851 
L 323.173874 264.70366 
L 323.44285 242.761564 
L 323.711826 130.37924 
L 323.980803 163.134821 
L 324.115291 142.812546 
L 324.249779 144.654625 
L 325.056709 235.138009 
L 325.191197 261.613577 
L 325.325685 260.219185 
L 325.460173 256.004453 
L 325.72915 267.12655 
L 325.863638 263.660912 
L 325.998126 275.053139 
L 326.536079 254.82394 
L 326.670567 235.840965 
L 326.939544 121.949459 
L 327.20852 163.217558 
L 327.343008 139.622616 
L 328.015449 200.621106 
L 328.149937 231.273976 
L 328.284426 236.498712 
L 328.553402 258.381906 
L 328.68789 257.094864 
L 328.956867 270.720138 
L 329.091355 267.995559 
L 329.225843 282.424474 
L 329.360331 271.361488 
L 329.49482 269.705787 
L 329.629308 262.709846 
L 329.898284 233.787547 
L 330.167261 134.828217 
L 330.301749 162.472174 
L 330.436237 165.00065 
L 330.570725 151.138538 
L 330.705214 151.945593 
L 330.839702 158.142555 
L 331.108678 191.229342 
L 331.243166 200.007712 
L 331.646631 257.815131 
L 331.781119 259.811056 
L 331.915607 256.520416 
L 332.050096 264.144414 
L 332.184584 264.159555 
L 332.319072 265.941381 
L 332.45356 280.590805 
L 332.722537 264.31971 
L 332.857025 263.3072 
L 333.126001 232.914168 
L 333.394978 132.239384 
L 333.663954 169.574063 
L 333.798442 148.451111 
L 334.201907 176.262753 
L 334.874348 258.166914 
L 335.008836 257.254899 
L 335.143325 257.339505 
L 335.277813 271.656832 
L 335.412301 272.169468 
L 335.681277 266.411696 
L 335.950254 263.931793 
L 336.21923 266.191614 
L 336.757183 247.375527 
L 336.891671 244.615537 
L 337.02616 250.191069 
L 337.160648 247.995873 
L 337.429624 254.413034 
L 337.698601 259.615262 
L 337.833089 261.815252 
L 337.967577 262.068943 
L 338.102065 261.111933 
L 338.236553 263.619768 
L 338.371042 262.419567 
L 338.50553 266.374713 
L 338.640018 266.471233 
L 338.774506 261.890982 
L 338.908995 263.172927 
L 339.043483 263.078987 
L 339.177971 261.678542 
L 339.715924 264.211926 
L 339.9849 262.167715 
L 340.119388 264.253356 
L 340.253877 263.526996 
L 340.388365 264.408361 
L 340.522853 264.351103 
L 340.657341 267.012977 
L 340.791829 264.14544 
L 340.926318 266.350342 
L 341.195294 265.750971 
L 341.329782 262.166589 
L 341.464271 266.493554 
L 341.598759 265.299501 
L 341.733247 271.050877 
L 342.002223 269.106117 
L 342.136712 281.153681 
L 342.405688 269.171619 
L 342.540176 266.57732 
L 342.674664 244.051065 
L 342.809153 240.398531 
L 343.078129 126.093602 
L 343.212617 129.522747 
L 343.347106 157.315829 
L 343.481594 155.594661 
L 343.616082 152.033244 
L 344.019547 197.239347 
L 344.288523 218.691314 
L 344.557499 256.933715 
L 344.826476 254.933736 
L 344.960964 272.146218 
L 345.095452 272.408223 
L 345.22994 269.323976 
L 345.364429 279.047773 
L 345.498917 273.043194 
L 345.633405 272.70779 
L 345.767893 267.498261 
L 346.03687 241.648139 
L 346.305846 140.425288 
L 346.440334 170.995581 
L 346.709311 157.810545 
L 346.843799 161.074749 
L 347.51624 226.22618 
L 347.785217 253.936613 
L 347.919705 255.895944 
L 348.054193 256.215128 
L 348.323169 270.978273 
L 348.457658 265.879574 
L 348.592146 279.844888 
L 348.726634 270.387176 
L 348.861122 271.381967 
L 348.99561 264.805843 
L 349.264587 234.952368 
L 349.533563 136.757133 
L 349.668052 167.368944 
L 349.937028 151.57883 
L 350.071516 155.412539 
L 350.609469 205.103804 
L 350.878445 241.064665 
L 351.147422 256.38875 
L 351.28191 258.915398 
L 351.550886 271.025756 
L 351.685375 269.561516 
L 351.819863 283.768408 
L 352.088839 268.59326 
L 352.357816 257.69193 
L 352.492304 237.411479 
L 352.626792 144.672842 
L 352.76128 133.363315 
L 352.895769 173.925304 
L 353.164745 155.60068 
L 353.299233 156.236743 
L 353.56821 176.12543 
L 353.837186 185.17551 
L 354.106163 246.927959 
L 354.240651 251.821053 
L 354.375139 261.973087 
L 354.509627 260.683273 
L 354.644115 271.875863 
L 354.778604 271.575109 
L 355.04758 274.507776 
L 355.585533 255.670659 
L 355.720021 231.665672 
L 355.854509 168.231172 
L 355.988998 160.971477 
L 356.123486 174.486743 
L 356.392462 148.787718 
L 357.064903 200.917957 
L 357.199391 236.918729 
L 357.33388 242.552469 
L 357.602856 268.14584 
L 357.737344 263.381837 
L 357.871832 272.375409 
L 358.006321 272.554676 
L 358.140809 276.467901 
L 358.275297 271.824706 
L 358.409785 272.087158 
L 358.544274 271.848592 
L 358.81325 268.434545 
L 358.947738 268.686512 
L 359.216715 249.258942 
L 359.351203 247.581751 
L 359.485691 249.083934 
L 359.620179 246.047391 
L 359.754667 240.373987 
L 359.889156 259.804496 
L 360.158132 256.642045 
L 360.561597 271.451799 
L 360.696085 268.371427 
L 360.830573 268.141626 
L 360.965061 268.991901 
L 361.234038 273.950239 
L 361.637502 270.621422 
L 361.771991 272.250092 
L 361.906479 270.455631 
L 362.040967 270.250865 
L 362.175455 273.11686 
L 362.309944 272.692917 
L 362.444432 274.040132 
L 362.57892 274.183401 
L 362.713408 270.854199 
L 362.847896 271.100947 
L 362.982385 272.559643 
L 363.116873 272.473854 
L 363.251361 273.191343 
L 363.385849 272.186738 
L 363.654826 274.580659 
L 363.923802 271.54525 
L 364.05829 271.044401 
L 364.327267 279.408908 
L 364.461755 228.505441 
L 364.596243 245.639561 
L 364.730731 240.887654 
L 364.86522 241.446276 
L 364.999708 242.645269 
L 365.134196 233.509447 
L 365.672149 114.206845 
L 365.806637 108.598367 
L 365.941125 118.794326 
L 366.075613 105.713265 
L 366.479078 138.33277 
L 366.748055 192.156473 
L 367.017031 248.222163 
L 367.151519 248.315757 
L 367.420496 258.128516 
L 367.554984 255.997289 
L 367.689472 265.874083 
L 367.958448 257.726411 
L 368.092937 257.978436 
L 368.227425 255.552032 
L 368.361913 212.598109 
L 368.496401 205.711206 
L 368.765378 116.522675 
L 368.899866 89.872114 
L 369.034354 111.397614 
L 369.168842 105.755768 
L 369.303331 86.355893 
L 369.841283 146.072798 
L 370.244748 251.772097 
L 370.379236 241.58312 
L 370.782701 259.835858 
L 370.917189 290.335648 
L 371.186166 271.880946 
L 371.455142 262.276499 
L 371.724118 228.310405 
L 371.993095 131.800833 
L 372.396559 189.831458 
L 372.531048 175.978208 
L 372.800024 201.385351 
L 372.934512 205.054992 
L 373.203489 246.158183 
L 373.337977 241.718097 
L 373.606953 259.253545 
L 373.741442 254.633572 
L 373.87593 267.918051 
L 374.010418 267.510132 
L 374.279394 289.456999 
L 374.413883 279.259795 
L 374.548371 278.563678 
L 374.682859 272.262523 
L 374.951836 236.214537 
L 375.220812 168.802119 
L 375.489788 164.375704 
L 375.624277 172.432496 
L 375.758765 172.224025 
L 375.893253 175.322998 
L 376.700182 262.20537 
L 376.83467 262.402352 
L 376.969159 258.478375 
L 377.103647 268.487968 
L 377.238135 269.779677 
L 377.372623 285.703259 
L 377.507112 272.150416 
L 377.6416 272.525108 
L 377.776088 268.076118 
L 377.910576 258.946562 
L 378.045064 267.492204 
L 378.179553 259.048225 
L 378.314041 260.462259 
L 378.448529 236.396512 
L 378.583017 244.540467 
L 378.717505 227.135523 
L 378.851994 241.755348 
L 378.986482 243.901551 
L 379.12097 259.949707 
L 379.255458 256.91649 
L 379.524435 267.456055 
L 379.658923 266.886583 
L 379.927899 274.429931 
L 380.062388 273.739786 
L 380.196876 273.989449 
L 380.331364 272.143431 
L 380.465852 272.740918 
L 380.60034 259.264511 
L 380.734829 264.582928 
L 380.869317 264.570687 
L 381.003805 265.301655 
L 381.138293 263.533339 
L 381.272782 245.558417 
L 381.40727 248.28109 
L 381.676246 129.422524 
L 381.810734 142.822821 
L 381.945223 139.6739 
L 382.079711 132.210322 
L 382.617664 161.437373 
L 382.88664 211.260198 
L 383.155616 259.360278 
L 383.424593 261.810259 
L 383.693569 266.218532 
L 383.828058 258.01341 
L 383.962546 257.83708 
L 384.231522 255.334351 
L 384.36601 255.650118 
L 384.500499 250.387157 
L 384.634987 252.83265 
L 384.903963 161.928953 
L 385.038451 154.178406 
L 385.17294 155.24577 
L 385.307428 135.161536 
L 385.441916 147.664667 
L 385.576404 171.884856 
L 385.710893 170.055617 
L 385.845381 180.63852 
L 386.114357 220.702983 
L 386.383334 257.493112 
L 386.517822 262.131996 
L 386.65231 260.717994 
L 386.786798 273.99323 
L 386.921286 271.489624 
L 387.055775 281.885626 
L 387.324751 268.751588 
L 387.459239 267.209306 
L 387.728216 259.033226 
L 387.862704 261.473134 
L 387.997192 258.701214 
L 388.13168 263.847291 
L 388.266169 261.272077 
L 388.400657 267.600428 
L 388.669633 266.812494 
L 388.804121 271.248948 
L 388.93861 267.64853 
L 389.073098 275.516424 
L 389.207586 271.636846 
L 389.611051 282.868523 
L 389.745539 284.426418 
L 389.880027 279.056571 
L 390.014515 284.030051 
L 390.149004 282.667356 
L 390.283492 251.660946 
L 390.41798 259.934706 
L 390.686956 254.207274 
L 390.821445 249.951748 
L 390.955933 232.581466 
L 391.090421 237.926154 
L 391.224909 213.968923 
L 391.359397 141.102459 
L 391.493886 175.331298 
L 391.628374 150.012359 
L 391.89735 172.217 
L 392.031839 171.719721 
L 392.300815 182.576739 
L 392.838768 262.45922 
L 392.973256 270.664998 
L 393.107744 264.944948 
L 393.242232 271.138359 
L 393.376721 271.673665 
L 393.511209 257.9127 
L 393.645697 255.97444 
L 393.780185 261.779166 
L 393.914673 257.555358 
L 394.049162 245.094678 
L 394.18365 246.701504 
L 394.318138 223.162905 
L 394.587115 142.56425 
L 394.856091 152.769968 
L 394.990579 138.406191 
L 395.394044 152.218094 
L 395.931997 234.368303 
L 396.200973 258.48284 
L 396.335461 255.896408 
L 396.46995 262.884577 
L 396.604438 255.911811 
L 396.738926 295.488 
L 396.873414 277.117351 
L 397.007902 277.820038 
L 397.142391 271.136494 
L 397.276879 270.317495 
L 397.545855 234.794048 
L 397.680343 156.506911 
L 397.814832 149.544134 
L 397.94932 175.536167 
L 398.083808 156.519881 
L 398.218296 159.385581 
L 398.352785 151.034527 
L 398.487273 171.619616 
L 398.487273 171.619616 
" clip-path="url(#p42d8ab6b61)" style="fill: none; stroke: #ff7f0e; stroke-width: 1.5; stroke-linecap: square"/>
   </g>
   <g id="patch_3">
    <path d="M 57.6 307.584 
L 57.6 41.472 
" style="fill: none; stroke: #000000; stroke-width: 0.8; stroke-linejoin: miter; stroke-linecap: square"/>
   </g>
   <g id="patch_4">
    <path d="M 414.72 307.584 
L 414.72 41.472 
" style="fill: none; stroke: #000000; stroke-width: 0.8; stroke-linejoin: miter; stroke-linecap: square"/>
   </g>
   <g id="patch_5">
    <path d="M 57.6 307.584 
L 414.72 307.584 
" style="fill: none; stroke: #000000; stroke-width: 0.8; stroke-linejoin: miter; stroke-linecap: square"/>
   </g>
   <g id="patch_6">
    <path d="M 57.6 41.472 
L 414.72 41.472 
" style="fill: none; stroke: #000000; stroke-width: 0.8; stroke-linejoin: miter; stroke-linecap: square"/>
   </g>
  </g>
 </g>
 <defs>
  <clipPath id="p42d8ab6b61">
   <rect x="57.6" y="41.472" width="357.12" height="266.112"/>
  </clipPath>
 </defs>
</svg>
