<?xml version="1.0" encoding="utf-8" standalone="no"?>
<!DOCTYPE svg PUBLIC "-//W3C//DTD SVG 1.1//EN"
  "http://www.w3.org/Graphics/SVG/1.1/DTD/svg11.dtd">
<svg xmlns:xlink="http://www.w3.org/1999/xlink" width="460.8pt" height="345.6pt" viewBox="0 0 460.8 345.6" xmlns="http://www.w3.org/2000/svg" version="1.1">
 <metadata>
  <rdf:RDF xmlns:dc="http://purl.org/dc/elements/1.1/" xmlns:cc="http://creativecommons.org/ns#" xmlns:rdf="http://www.w3.org/1999/02/22-rdf-syntax-ns#">
   <cc:Work>
    <dc:type rdf:resource="http://purl.org/dc/dcmitype/StillImage"/>
    <dc:date>2023-04-04T03:33:10.223248</dc:date>
    <dc:format>image/svg+xml</dc:format>
    <dc:creator>
     <cc:Agent>
      <dc:title>Matplotlib v3.5.2, https://matplotlib.org/</dc:title>
     </cc:Agent>
    </dc:creator>
   </cc:Work>
  </rdf:RDF>
 </metadata>
 <defs>
  <style type="text/css">*{stroke-linejoin: round; stroke-linecap: butt}</style>
 </defs>
 <g id="figure_1">
  <g id="patch_1">
   <path d="M 0 345.6 
L 460.8 345.6 
L 460.8 0 
L 0 0 
z
" style="fill: #ffffff"/>
  </g>
  <g id="axes_1">
   <g id="patch_2">
    <path d="M 57.6 307.584 
L 414.72 307.584 
L 414.72 41.472 
L 57.6 41.472 
z
" style="fill: #ffffff"/>
   </g>
   <g id="matplotlib.axis_1">
    <g id="xtick_1">
     <g id="line2d_1">
      <defs>
       <path id="m6711ee5123" d="M 0 0 
L 0 3.5 
" style="stroke: #000000; stroke-width: 0.8"/>
      </defs>
      <g>
       <use xlink:href="#m6711ee5123" x="73.832727" y="307.584" style="stroke: #000000; stroke-width: 0.8"/>
      </g>
     </g>
     <g id="text_1">
      <!-- 0 -->
      <g transform="translate(70.651477 322.182437)scale(0.1 -0.1)">
       <defs>
        <path id="DejaVuSans-30" d="M 2034 4250 
Q 1547 4250 1301 3770 
Q 1056 3291 1056 2328 
Q 1056 1369 1301 889 
Q 1547 409 2034 409 
Q 2525 409 2770 889 
Q 3016 1369 3016 2328 
Q 3016 3291 2770 3770 
Q 2525 4250 2034 4250 
z
M 2034 4750 
Q 2819 4750 3233 4129 
Q 3647 3509 3647 2328 
Q 3647 1150 3233 529 
Q 2819 -91 2034 -91 
Q 1250 -91 836 529 
Q 422 1150 422 2328 
Q 422 3509 836 4129 
Q 1250 4750 2034 4750 
z
" transform="scale(0.015625)"/>
       </defs>
       <use xlink:href="#DejaVuSans-30"/>
      </g>
     </g>
    </g>
    <g id="xtick_2">
     <g id="line2d_2">
      <g>
       <use xlink:href="#m6711ee5123" x="141.076834" y="307.584" style="stroke: #000000; stroke-width: 0.8"/>
      </g>
     </g>
     <g id="text_2">
      <!-- 500 -->
      <g transform="translate(131.533084 322.182437)scale(0.1 -0.1)">
       <defs>
        <path id="DejaVuSans-35" d="M 691 4666 
L 3169 4666 
L 3169 4134 
L 1269 4134 
L 1269 2991 
Q 1406 3038 1543 3061 
Q 1681 3084 1819 3084 
Q 2600 3084 3056 2656 
Q 3513 2228 3513 1497 
Q 3513 744 3044 326 
Q 2575 -91 1722 -91 
Q 1428 -91 1123 -41 
Q 819 9 494 109 
L 494 744 
Q 775 591 1075 516 
Q 1375 441 1709 441 
Q 2250 441 2565 725 
Q 2881 1009 2881 1497 
Q 2881 1984 2565 2268 
Q 2250 2553 1709 2553 
Q 1456 2553 1204 2497 
Q 953 2441 691 2322 
L 691 4666 
z
" transform="scale(0.015625)"/>
       </defs>
       <use xlink:href="#DejaVuSans-35"/>
       <use xlink:href="#DejaVuSans-30" x="63.623047"/>
       <use xlink:href="#DejaVuSans-30" x="127.246094"/>
      </g>
     </g>
    </g>
    <g id="xtick_3">
     <g id="line2d_3">
      <g>
       <use xlink:href="#m6711ee5123" x="208.32094" y="307.584" style="stroke: #000000; stroke-width: 0.8"/>
      </g>
     </g>
     <g id="text_3">
      <!-- 1000 -->
      <g transform="translate(195.59594 322.182437)scale(0.1 -0.1)">
       <defs>
        <path id="DejaVuSans-31" d="M 794 531 
L 1825 531 
L 1825 4091 
L 703 3866 
L 703 4441 
L 1819 4666 
L 2450 4666 
L 2450 531 
L 3481 531 
L 3481 0 
L 794 0 
L 794 531 
z
" transform="scale(0.015625)"/>
       </defs>
       <use xlink:href="#DejaVuSans-31"/>
       <use xlink:href="#DejaVuSans-30" x="63.623047"/>
       <use xlink:href="#DejaVuSans-30" x="127.246094"/>
       <use xlink:href="#DejaVuSans-30" x="190.869141"/>
      </g>
     </g>
    </g>
    <g id="xtick_4">
     <g id="line2d_4">
      <g>
       <use xlink:href="#m6711ee5123" x="275.565046" y="307.584" style="stroke: #000000; stroke-width: 0.8"/>
      </g>
     </g>
     <g id="text_4">
      <!-- 1500 -->
      <g transform="translate(262.840046 322.182437)scale(0.1 -0.1)">
       <use xlink:href="#DejaVuSans-31"/>
       <use xlink:href="#DejaVuSans-35" x="63.623047"/>
       <use xlink:href="#DejaVuSans-30" x="127.246094"/>
       <use xlink:href="#DejaVuSans-30" x="190.869141"/>
      </g>
     </g>
    </g>
    <g id="xtick_5">
     <g id="line2d_5">
      <g>
       <use xlink:href="#m6711ee5123" x="342.809153" y="307.584" style="stroke: #000000; stroke-width: 0.8"/>
      </g>
     </g>
     <g id="text_5">
      <!-- 2000 -->
      <g transform="translate(330.084153 322.182437)scale(0.1 -0.1)">
       <defs>
        <path id="DejaVuSans-32" d="M 1228 531 
L 3431 531 
L 3431 0 
L 469 0 
L 469 531 
Q 828 903 1448 1529 
Q 2069 2156 2228 2338 
Q 2531 2678 2651 2914 
Q 2772 3150 2772 3378 
Q 2772 3750 2511 3984 
Q 2250 4219 1831 4219 
Q 1534 4219 1204 4116 
Q 875 4013 500 3803 
L 500 4441 
Q 881 4594 1212 4672 
Q 1544 4750 1819 4750 
Q 2544 4750 2975 4387 
Q 3406 4025 3406 3419 
Q 3406 3131 3298 2873 
Q 3191 2616 2906 2266 
Q 2828 2175 2409 1742 
Q 1991 1309 1228 531 
z
" transform="scale(0.015625)"/>
       </defs>
       <use xlink:href="#DejaVuSans-32"/>
       <use xlink:href="#DejaVuSans-30" x="63.623047"/>
       <use xlink:href="#DejaVuSans-30" x="127.246094"/>
       <use xlink:href="#DejaVuSans-30" x="190.869141"/>
      </g>
     </g>
    </g>
    <g id="xtick_6">
     <g id="line2d_6">
      <g>
       <use xlink:href="#m6711ee5123" x="410.053259" y="307.584" style="stroke: #000000; stroke-width: 0.8"/>
      </g>
     </g>
     <g id="text_6">
      <!-- 2500 -->
      <g transform="translate(397.328259 322.182437)scale(0.1 -0.1)">
       <use xlink:href="#DejaVuSans-32"/>
       <use xlink:href="#DejaVuSans-35" x="63.623047"/>
       <use xlink:href="#DejaVuSans-30" x="127.246094"/>
       <use xlink:href="#DejaVuSans-30" x="190.869141"/>
      </g>
     </g>
    </g>
   </g>
   <g id="matplotlib.axis_2">
    <g id="ytick_1">
     <g id="line2d_7">
      <defs>
       <path id="m6af4568ec5" d="M 0 0 
L -3.5 0 
" style="stroke: #000000; stroke-width: 0.8"/>
      </defs>
      <g>
       <use xlink:href="#m6af4568ec5" x="57.6" y="277.570753" style="stroke: #000000; stroke-width: 0.8"/>
      </g>
     </g>
     <g id="text_7">
      <!-- 100 -->
      <g transform="translate(31.5125 281.369971)scale(0.1 -0.1)">
       <use xlink:href="#DejaVuSans-31"/>
       <use xlink:href="#DejaVuSans-30" x="63.623047"/>
       <use xlink:href="#DejaVuSans-30" x="127.246094"/>
      </g>
     </g>
    </g>
    <g id="ytick_2">
     <g id="line2d_8">
      <g>
       <use xlink:href="#m6af4568ec5" x="57.6" y="230.370444" style="stroke: #000000; stroke-width: 0.8"/>
      </g>
     </g>
     <g id="text_8">
      <!-- 200 -->
      <g transform="translate(31.5125 234.169663)scale(0.1 -0.1)">
       <use xlink:href="#DejaVuSans-32"/>
       <use xlink:href="#DejaVuSans-30" x="63.623047"/>
       <use xlink:href="#DejaVuSans-30" x="127.246094"/>
      </g>
     </g>
    </g>
    <g id="ytick_3">
     <g id="line2d_9">
      <g>
       <use xlink:href="#m6af4568ec5" x="57.6" y="183.170135" style="stroke: #000000; stroke-width: 0.8"/>
      </g>
     </g>
     <g id="text_9">
      <!-- 300 -->
      <g transform="translate(31.5125 186.969354)scale(0.1 -0.1)">
       <defs>
        <path id="DejaVuSans-33" d="M 2597 2516 
Q 3050 2419 3304 2112 
Q 3559 1806 3559 1356 
Q 3559 666 3084 287 
Q 2609 -91 1734 -91 
Q 1441 -91 1130 -33 
Q 819 25 488 141 
L 488 750 
Q 750 597 1062 519 
Q 1375 441 1716 441 
Q 2309 441 2620 675 
Q 2931 909 2931 1356 
Q 2931 1769 2642 2001 
Q 2353 2234 1838 2234 
L 1294 2234 
L 1294 2753 
L 1863 2753 
Q 2328 2753 2575 2939 
Q 2822 3125 2822 3475 
Q 2822 3834 2567 4026 
Q 2313 4219 1838 4219 
Q 1578 4219 1281 4162 
Q 984 4106 628 3988 
L 628 4550 
Q 988 4650 1302 4700 
Q 1616 4750 1894 4750 
Q 2613 4750 3031 4423 
Q 3450 4097 3450 3541 
Q 3450 3153 3228 2886 
Q 3006 2619 2597 2516 
z
" transform="scale(0.015625)"/>
       </defs>
       <use xlink:href="#DejaVuSans-33"/>
       <use xlink:href="#DejaVuSans-30" x="63.623047"/>
       <use xlink:href="#DejaVuSans-30" x="127.246094"/>
      </g>
     </g>
    </g>
    <g id="ytick_4">
     <g id="line2d_10">
      <g>
       <use xlink:href="#m6af4568ec5" x="57.6" y="135.969827" style="stroke: #000000; stroke-width: 0.8"/>
      </g>
     </g>
     <g id="text_10">
      <!-- 400 -->
      <g transform="translate(31.5125 139.769046)scale(0.1 -0.1)">
       <defs>
        <path id="DejaVuSans-34" d="M 2419 4116 
L 825 1625 
L 2419 1625 
L 2419 4116 
z
M 2253 4666 
L 3047 4666 
L 3047 1625 
L 3713 1625 
L 3713 1100 
L 3047 1100 
L 3047 0 
L 2419 0 
L 2419 1100 
L 313 1100 
L 313 1709 
L 2253 4666 
z
" transform="scale(0.015625)"/>
       </defs>
       <use xlink:href="#DejaVuSans-34"/>
       <use xlink:href="#DejaVuSans-30" x="63.623047"/>
       <use xlink:href="#DejaVuSans-30" x="127.246094"/>
      </g>
     </g>
    </g>
    <g id="ytick_5">
     <g id="line2d_11">
      <g>
       <use xlink:href="#m6af4568ec5" x="57.6" y="88.769518" style="stroke: #000000; stroke-width: 0.8"/>
      </g>
     </g>
     <g id="text_11">
      <!-- 500 -->
      <g transform="translate(31.5125 92.568737)scale(0.1 -0.1)">
       <use xlink:href="#DejaVuSans-35"/>
       <use xlink:href="#DejaVuSans-30" x="63.623047"/>
       <use xlink:href="#DejaVuSans-30" x="127.246094"/>
      </g>
     </g>
    </g>
    <g id="ytick_6">
     <g id="line2d_12">
      <g>
       <use xlink:href="#m6af4568ec5" x="57.6" y="41.56921" style="stroke: #000000; stroke-width: 0.8"/>
      </g>
     </g>
     <g id="text_12">
      <!-- 600 -->
      <g transform="translate(31.5125 45.368428)scale(0.1 -0.1)">
       <defs>
        <path id="DejaVuSans-36" d="M 2113 2584 
Q 1688 2584 1439 2293 
Q 1191 2003 1191 1497 
Q 1191 994 1439 701 
Q 1688 409 2113 409 
Q 2538 409 2786 701 
Q 3034 994 3034 1497 
Q 3034 2003 2786 2293 
Q 2538 2584 2113 2584 
z
M 3366 4563 
L 3366 3988 
Q 3128 4100 2886 4159 
Q 2644 4219 2406 4219 
Q 1781 4219 1451 3797 
Q 1122 3375 1075 2522 
Q 1259 2794 1537 2939 
Q 1816 3084 2150 3084 
Q 2853 3084 3261 2657 
Q 3669 2231 3669 1497 
Q 3669 778 3244 343 
Q 2819 -91 2113 -91 
Q 1303 -91 875 529 
Q 447 1150 447 2328 
Q 447 3434 972 4092 
Q 1497 4750 2381 4750 
Q 2619 4750 2861 4703 
Q 3103 4656 3366 4563 
z
" transform="scale(0.015625)"/>
       </defs>
       <use xlink:href="#DejaVuSans-36"/>
       <use xlink:href="#DejaVuSans-30" x="63.623047"/>
       <use xlink:href="#DejaVuSans-30" x="127.246094"/>
      </g>
     </g>
    </g>
   </g>
   <g id="line2d_13">
    <path d="M 73.832727 280.6029 
L 74.101704 280.060569 
L 74.236192 278.964106 
L 74.37068 279.915664 
L 74.505168 279.429501 
L 74.639657 280.023753 
L 74.774145 273.634719 
L 74.908633 246.865536 
L 75.177609 245.39147 
L 75.312098 245.939938 
L 75.446586 245.991858 
L 75.581074 246.8476 
L 75.715562 246.100891 
L 75.85005 246.079179 
L 76.253515 241.157131 
L 76.522492 274.782158 
L 76.65698 275.09132 
L 76.925956 273.406269 
L 77.060444 264.662884 
L 77.194933 266.877995 
L 77.463909 266.940771 
L 77.598397 268.504989 
L 77.732885 263.246403 
L 77.867374 250.009548 
L 78.405327 103.466278 
L 78.674303 102.556256 
L 78.808791 109.603734 
L 78.943279 104.861991 
L 79.481232 156.890892 
L 79.750209 226.37305 
L 80.019185 260.65369 
L 80.153673 262.7508 
L 80.288161 258.964863 
L 80.42265 269.22857 
L 80.557138 268.799519 
L 80.826114 271.275175 
L 80.960603 268.767423 
L 81.095091 258.584901 
L 81.364067 166.948805 
L 81.498555 179.092973 
L 81.767532 159.935311 
L 82.036508 167.836171 
L 82.170996 164.774759 
L 82.305485 158.876137 
L 83.112414 258.112897 
L 83.650367 283.96309 
L 83.784855 283.983387 
L 83.919343 285.49238 
L 84.053831 285.682126 
L 84.18832 283.61192 
L 84.322808 276.479482 
L 84.726273 187.496044 
L 84.860761 178.94146 
L 84.995249 182.985582 
L 85.129737 168.293542 
L 85.264225 176.726349 
L 85.398714 177.46409 
L 85.66769 185.654288 
L 85.802178 194.31224 
L 86.340131 260.211423 
L 86.474619 262.198556 
L 86.609107 267.046028 
L 86.878084 284.340221 
L 87.012572 286.562411 
L 87.14706 286.240033 
L 87.281549 287.711739 
L 87.416037 287.615922 
L 87.550525 286.814933 
L 87.819501 259.662956 
L 87.95399 259.806917 
L 88.088478 254.193384 
L 88.222966 255.634409 
L 88.357454 254.886284 
L 88.491942 251.570935 
L 88.626431 254.369441 
L 88.760919 247.46498 
L 88.895407 250.305494 
L 89.029895 250.304078 
L 89.164384 252.832127 
L 89.43336 273.860336 
L 89.567848 275.502435 
L 89.702336 275.010608 
L 89.836825 276.057039 
L 89.971313 261.101621 
L 90.105801 261.80585 
L 90.240289 263.33042 
L 90.374777 263.102914 
L 90.509266 264.323042 
L 90.643754 264.492491 
L 90.778242 266.565057 
L 90.91273 263.383284 
L 91.047218 253.571756 
L 91.181707 252.41582 
L 91.316195 245.573191 
L 91.450683 249.95102 
L 91.585171 248.010143 
L 91.71966 249.489401 
L 91.854148 249.712659 
L 92.123124 252.657486 
L 92.257612 252.092026 
L 92.526589 257.615878 
L 92.795565 264.129049 
L 92.930053 265.072111 
L 93.064542 263.945912 
L 93.19903 273.837208 
L 93.468006 273.960401 
L 93.602495 275.007776 
L 93.736983 273.789064 
L 93.871471 271.29736 
L 94.005959 266.143086 
L 94.6784 160.218985 
L 94.812888 155.875613 
L 95.081865 167.590258 
L 95.216353 162.4374 
L 95.350841 151.308511 
L 96.023282 262.521406 
L 96.157771 263.242155 
L 96.426747 267.12202 
L 96.561235 266.792562 
L 96.695723 266.869027 
L 96.830212 268.729191 
L 96.9647 268.099067 
L 97.099188 266.688721 
L 97.233676 258.322467 
L 97.368164 240.969745 
L 97.502653 200.438368 
L 97.637141 193.427234 
L 97.771629 178.139527 
L 97.906117 186.434981 
L 98.040606 179.801921 
L 98.175094 180.503318 
L 98.309582 175.247564 
L 98.44407 176.87031 
L 98.713047 188.103984 
L 98.982023 229.550575 
L 99.250999 263.98556 
L 99.385488 268.616382 
L 99.519976 269.361675 
L 99.654464 279.050482 
L 99.788952 279.062754 
L 99.923441 278.073436 
L 100.192417 279.296868 
L 100.326905 279.376636 
L 100.461393 278.72952 
L 100.595882 279.130723 
L 100.73037 279.949648 
L 100.864858 278.429326 
L 100.999346 279.571574 
L 101.133834 278.674296 
L 101.268323 276.485146 
L 101.402811 269.542924 
L 101.537299 273.76452 
L 101.806276 263.501285 
L 101.940764 265.636627 
L 102.075252 265.489834 
L 102.20974 266.130342 
L 102.344228 268.480917 
L 102.478717 274.230387 
L 102.613205 272.399959 
L 102.747693 278.003107 
L 102.882181 264.704421 
L 103.016669 264.732741 
L 103.151158 269.581156 
L 103.285646 269.364507 
L 103.554622 265.233064 
L 103.68911 261.094069 
L 103.823599 243.87398 
L 104.092575 182.340826 
L 104.227063 161.111071 
L 104.361552 168.191117 
L 104.630528 143.610141 
L 105.033993 158.746808 
L 105.168481 169.399445 
L 105.706434 251.483142 
L 105.840922 251.362309 
L 105.97541 259.958429 
L 106.109898 276.196752 
L 106.378875 279.348316 
L 106.513363 279.334628 
L 106.647851 281.466194 
L 106.782339 281.200928 
L 106.916828 282.29928 
L 107.320292 245.171045 
L 107.45478 252.151498 
L 107.589269 249.647522 
L 107.723757 249.739091 
L 108.26171 244.735858 
L 108.396198 241.36906 
L 108.530686 243.602107 
L 108.934151 274.838799 
L 109.068639 276.335993 
L 109.203127 275.281538 
L 109.337615 270.839045 
L 109.606592 272.369279 
L 109.875568 273.409101 
L 110.144545 274.44562 
L 110.413521 273.22266 
L 110.548009 273.089555 
L 110.951474 269.088385 
L 111.085962 270.247625 
L 111.22045 269.904479 
L 111.623915 264.179081 
L 111.758403 264.68082 
L 112.02738 268.416253 
L 112.430844 269.994159 
L 112.565333 259.878661 
L 112.834309 264.026624 
L 112.968797 264.543467 
L 113.103285 266.033581 
L 113.237774 266.209638 
L 113.50675 268.793383 
L 113.641238 269.612781 
L 114.313679 258.524956 
L 114.448168 258.168594 
L 114.582656 256.705856 
L 114.98612 246.017346 
L 115.524073 256.933834 
L 115.658561 257.476637 
L 115.927538 259.672868 
L 116.062026 258.406011 
L 116.196514 264.422163 
L 116.331002 264.010576 
L 116.465491 264.613324 
L 116.599979 254.988709 
L 117.137932 78.776741 
L 117.406908 64.278222 
L 117.810373 80.588761 
L 118.213837 146.85941 
L 118.482814 208.335924 
L 118.75179 242.291826 
L 118.886279 243.804596 
L 119.289743 251.687991 
L 119.424231 253.086537 
L 119.55872 255.819434 
L 119.693208 256.1319 
L 119.827696 246.648886 
L 120.365649 91.456632 
L 120.634625 73.146688 
L 120.769114 76.787248 
L 120.903602 70.45627 
L 121.03809 71.766079 
L 121.441555 134.322536 
L 121.710531 200.232103 
L 121.845019 228.023645 
L 122.248484 238.837235 
L 122.51746 254.139103 
L 122.651948 254.29628 
L 122.786437 256.011068 
L 122.920925 254.688987 
L 123.055413 246.640862 
L 123.727854 60.376173 
L 123.862342 53.568 
L 124.534783 106.953437 
L 125.072736 245.951738 
L 125.207225 251.051259 
L 125.341713 251.508158 
L 125.476201 251.462374 
L 125.745177 264.874342 
L 125.879666 266.291295 
L 126.014154 266.517856 
L 126.28313 253.25221 
L 126.821083 92.546959 
L 126.955571 74.448945 
L 127.09006 80.955979 
L 127.359036 105.155105 
L 127.493524 107.564209 
L 127.762501 125.806184 
L 127.896989 148.294299 
L 128.300453 244.356367 
L 128.434942 250.078461 
L 128.56943 248.276353 
L 128.703918 255.674057 
L 128.838406 256.388198 
L 129.241871 262.989161 
L 129.510847 242.5637 
L 130.0488 83.099817 
L 130.183288 74.116654 
L 130.317777 85.870947 
L 130.452265 114.297805 
L 130.586753 113.392031 
L 130.721241 109.794896 
L 130.855729 116.097081 
L 131.124706 168.636688 
L 131.393682 233.378048 
L 131.662659 256.161165 
L 131.931635 255.967643 
L 132.066123 255.78781 
L 132.3351 266.904427 
L 132.469588 266.758106 
L 132.604076 266.855811 
L 132.738564 266.814746 
L 133.007541 255.087358 
L 133.276517 244.77173 
L 133.679982 239.270534 
L 133.81447 238.104687 
L 133.948958 233.075966 
L 134.486911 242.816693 
L 134.755888 249.805643 
L 134.890376 249.692362 
L 135.697305 263.73823 
L 135.831793 268.422861 
L 135.966282 269.023721 
L 136.10077 267.068684 
L 136.235258 268.551246 
L 136.369746 268.280788 
L 136.504234 264.040784 
L 136.638723 263.884079 
L 136.907699 261.976243 
L 137.311164 251.244309 
L 137.445652 251.746992 
L 137.58014 249.101887 
L 137.983605 255.820378 
L 138.118093 254.931125 
L 138.252581 256.740312 
L 138.387069 261.169589 
L 138.521558 259.953709 
L 138.656046 260.151951 
L 138.925022 264.781829 
L 139.193999 248.764404 
L 139.731951 81.271749 
L 139.86644 72.478804 
L 140.269904 98.126979 
L 140.538881 122.214713 
L 140.673369 129.206967 
L 140.807857 143.367531 
L 141.076834 222.363856 
L 141.480298 255.092078 
L 142.018251 263.413492 
L 142.152739 262.956121 
L 142.421716 239.549488 
L 142.959669 91.131422 
L 143.094157 83.818206 
L 143.228645 83.337235 
L 143.363133 93.421109 
L 143.497621 84.275577 
L 143.63211 89.331202 
L 144.573527 256.32259 
L 144.708015 259.763964 
L 144.842504 259.937189 
L 145.11148 262.148524 
L 145.245968 264.262154 
L 145.380456 260.240687 
L 145.783921 199.920109 
L 146.052897 109.496118 
L 146.187386 90.639594 
L 146.456362 105.741333 
L 146.59085 116.907038 
L 146.725339 111.294921 
L 146.859827 118.606721 
L 146.994315 113.599241 
L 147.128803 126.281963 
L 147.532268 232.080039 
L 147.801244 257.740487 
L 147.935732 257.940144 
L 148.204709 263.140674 
L 148.339197 263.119434 
L 148.473685 263.616453 
L 148.742662 262.577103 
L 148.87715 245.124789 
L 149.280615 118.472672 
L 149.415103 114.486134 
L 149.549591 105.521852 
L 149.684079 106.761332 
L 150.087544 139.049647 
L 150.222032 131.456533 
L 150.35652 136.905337 
L 150.894473 250.258766 
L 151.028961 259.312729 
L 151.16345 258.367307 
L 151.835891 266.437616 
L 151.970379 265.181616 
L 152.104867 244.501272 
L 152.508332 112.540066 
L 152.64282 115.60903 
L 152.911796 103.907601 
L 153.046285 117.875588 
L 153.180773 116.393971 
L 153.449749 150.425393 
L 153.718726 190.847738 
L 153.987702 246.747063 
L 154.12219 263.579637 
L 154.256678 264.940894 
L 154.525655 268.753735 
L 154.794631 270.435954 
L 155.063608 273.343021 
L 155.198096 274.96388 
L 155.332584 274.328563 
L 155.467072 270.003599 
L 155.601561 259.66154 
L 155.736049 258.811462 
L 155.870537 255.982747 
L 156.005025 258.094489 
L 156.274002 256.221581 
L 156.40849 256.751169 
L 156.542978 257.988761 
L 156.677466 256.807337 
L 157.215419 264.714333 
L 157.349907 266.694858 
L 157.484396 265.715451 
L 157.618884 266.475848 
L 157.88786 269.611365 
L 158.022348 270.0862 
L 158.291325 273.047075 
L 158.560301 277.273863 
L 158.694789 275.727581 
L 158.829278 276.679611 
L 158.963766 276.28832 
L 159.232742 273.608759 
L 159.367231 273.887241 
L 159.501719 271.9289 
L 160.039672 258.025105 
L 160.308648 258.280931 
L 160.443136 263.927031 
L 160.577624 263.647134 
L 160.712113 261.716641 
L 160.846601 262.409542 
L 160.981089 263.882663 
L 161.250066 267.591663 
L 161.519042 268.53095 
L 161.788018 251.980633 
L 162.460459 83.520372 
L 162.594948 83.188082 
L 162.729436 81.747528 
L 162.998412 101.088799 
L 163.132901 109.919976 
L 163.401877 150.660451 
L 163.670853 220.489059 
L 164.074318 254.144295 
L 164.208806 255.262943 
L 164.477783 267.756864 
L 164.612271 270.088088 
L 164.746759 265.445937 
L 165.015735 248.16024 
L 165.4192 120.064739 
L 165.553688 122.630548 
L 165.822665 108.915554 
L 165.957153 114.103812 
L 166.091641 111.058448 
L 166.360618 99.751142 
L 166.495106 105.86547 
L 166.89857 219.601222 
L 167.033059 226.483499 
L 167.302035 244.637209 
L 167.974476 262.864552 
L 168.108964 257.263764 
L 168.243453 243.431713 
L 168.377941 205.84422 
L 168.646917 105.693661 
L 168.781405 106.960045 
L 168.915894 102.492536 
L 169.050382 103.775912 
L 169.18487 107.522673 
L 169.319358 92.392142 
L 169.453847 94.838534 
L 169.857311 147.527766 
L 170.126288 224.719623 
L 170.395264 255.138806 
L 170.529752 256.007292 
L 170.66424 259.40005 
L 170.798729 259.586963 
L 171.067705 261.884202 
L 171.202193 264.682236 
L 171.47117 243.174944 
L 172.009123 109.703799 
L 172.143611 108.147605 
L 172.412587 96.541521 
L 172.95054 128.624515 
L 173.622981 257.082987 
L 173.757469 261.020908 
L 173.891958 274.228971 
L 174.026446 273.311869 
L 174.160934 273.268445 
L 174.42991 274.779798 
L 174.698887 260.178855 
L 174.833375 243.275008 
L 175.102351 175.633662 
L 175.371328 142.688319 
L 175.505816 139.82562 
L 175.640304 149.861822 
L 175.774792 149.555492 
L 175.909281 150.946485 
L 176.043769 155.692004 
L 176.178257 155.388034 
L 176.312745 169.677455 
L 176.581722 236.478636 
L 176.850698 263.260563 
L 176.985186 260.798123 
L 177.254163 265.472842 
L 177.388651 265.429889 
L 177.792116 271.905772 
L 177.926604 272.785113 
L 178.19558 262.20422 
L 178.330069 261.769505 
L 178.599045 254.297696 
L 178.733533 253.739317 
L 178.868021 256.01862 
L 179.136998 252.552229 
L 179.271486 253.140817 
L 179.540462 250.685929 
L 179.809439 258.099209 
L 179.943927 265.279792 
L 180.212904 263.401692 
L 180.48188 273.147612 
L 180.616368 273.1613 
L 180.750856 273.52899 
L 180.885345 274.350276 
L 181.019833 274.435708 
L 181.692274 262.275965 
L 181.826762 263.556037 
L 181.96125 257.645142 
L 182.095738 259.405714 
L 182.364715 264.778053 
L 182.499203 266.040661 
L 182.633691 269.150218 
L 182.902668 268.342148 
L 183.171644 274.398892 
L 183.306132 275.797909 
L 183.440621 274.701446 
L 183.575109 272.427335 
L 183.844085 284.018787 
L 183.978573 284.958545 
L 184.113062 282.70709 
L 184.382038 271.458313 
L 184.919991 180.834192 
L 185.054479 184.801378 
L 185.188967 177.813844 
L 185.457944 181.627629 
L 185.592432 183.108775 
L 185.995897 220.409291 
L 186.264873 250.638257 
L 186.53385 266.20539 
L 186.802826 276.335993 
L 187.071802 286.706844 
L 187.206291 285.570261 
L 187.340779 286.690796 
L 187.475267 283.551504 
L 187.609755 275.649228 
L 188.01322 200.652186 
L 188.147708 184.449736 
L 188.282196 184.665913 
L 188.416684 183.719075 
L 188.551173 186.991472 
L 188.685661 193.316314 
L 188.820149 188.957365 
L 188.954637 193.339442 
L 189.089126 201.611768 
L 189.627078 262.870689 
L 189.761567 265.428473 
L 189.896055 270.601627 
L 190.030543 268.194883 
L 190.299519 270.004543 
L 190.434008 268.847192 
L 190.971961 272.230982 
L 191.106449 268.819815 
L 191.240937 268.34026 
L 191.375425 268.773559 
L 191.509913 264.397619 
L 191.644402 265.928325 
L 191.913378 264.677516 
L 192.182354 259.108352 
L 192.316843 259.452914 
L 192.451331 258.960615 
L 192.585819 260.265704 
L 192.720307 265.967029 
L 192.989284 267.209813 
L 193.392748 264.554324 
L 193.661725 267.40239 
L 193.796213 267.930562 
L 194.065189 260.136847 
L 194.603142 157.615416 
L 194.73763 152.761809 
L 194.872119 142.927624 
L 195.006607 144.484762 
L 195.141095 149.172697 
L 195.275583 141.861369 
L 195.54456 155.096808 
L 195.948024 248.013919 
L 196.217001 258.228538 
L 196.351489 260.132599 
L 196.485977 269.494308 
L 196.620465 268.849552 
L 196.889442 269.399907 
L 197.02393 270.515251 
L 197.158418 268.805655 
L 197.292907 262.558222 
L 197.830859 194.647362 
L 197.965348 196.931857 
L 198.099836 193.652852 
L 198.234324 198.005192 
L 198.5033 184.835834 
L 198.772277 198.474363 
L 199.31023 270.162664 
L 199.713694 279.168483 
L 199.848183 278.013492 
L 200.117159 278.732824 
L 200.251647 276.970365 
L 200.386135 271.259127 
L 200.520624 270.860757 
L 200.655112 258.054369 
L 200.7896 211.38412 
L 200.924088 209.437107 
L 201.058576 197.890024 
L 201.193065 197.536021 
L 201.327553 194.88242 
L 201.462041 197.029562 
L 201.731018 185.367782 
L 201.865506 186.712991 
L 202.134482 209.142577 
L 202.403459 261.989459 
L 202.806923 271.673546 
L 203.0759 263.301155 
L 203.210388 267.577503 
L 203.344876 267.702112 
L 203.748341 258.435276 
L 203.882829 241.251531 
L 204.151805 180.015739 
L 204.420782 163.736352 
L 204.55527 158.173324 
L 204.689758 161.569858 
L 204.824246 155.146368 
L 204.958735 170.982544 
L 205.093223 171.226097 
L 205.765664 257.86132 
L 205.900152 258.366363 
L 206.03464 262.122092 
L 206.169129 276.797612 
L 206.303617 277.272919 
L 206.572593 281.165528 
L 206.84157 281.967461 
L 207.110546 272.688825 
L 207.379522 263.613149 
L 207.514011 262.745608 
L 207.917475 270.768716 
L 208.051964 270.525163 
L 208.32094 264.238553 
L 208.589916 265.821652 
L 208.858893 273.779152 
L 208.993381 277.389975 
L 209.127869 277.966763 
L 209.262357 277.429152 
L 209.396846 271.642866 
L 209.531334 272.727529 
L 209.80031 272.317358 
L 209.934799 273.296765 
L 210.203775 261.257854 
L 211.010704 107.9437 
L 211.279681 133.266665 
L 211.683145 165.981199 
L 212.221098 252.598013 
L 212.355586 255.033077 
L 212.759051 270.096112 
L 212.893539 269.891262 
L 213.028027 269.990383 
L 213.162516 272.608584 
L 213.431492 255.110958 
L 213.56598 217.473904 
L 213.834957 134.530689 
L 213.969445 139.062863 
L 214.103933 137.984336 
L 214.238421 140.911227 
L 214.910862 178.787587 
L 215.448815 258.151602 
L 215.583303 263.060434 
L 215.717792 263.671206 
L 216.121256 267.884777 
L 216.255745 268.831144 
L 216.390233 271.194463 
L 216.524721 267.231997 
L 216.659209 259.799364 
L 217.062674 148.011098 
L 217.197162 149.90147 
L 217.33165 149.981238 
L 217.466138 161.315921 
L 217.600627 160.046704 
L 217.735115 148.326396 
L 217.869603 153.497661 
L 218.273068 195.20999 
L 218.542044 253.36313 
L 218.811021 269.971031 
L 218.945509 262.636103 
L 219.483462 273.234932 
L 219.61795 275.012968 
L 219.886926 261.417863 
L 220.290391 160.979854 
L 220.693856 149.451179 
L 220.828344 159.994784 
L 220.962832 156.118223 
L 221.231808 182.965758 
L 221.500785 196.675088 
L 221.769761 253.228137 
L 222.038738 268.684823 
L 222.173226 267.940474 
L 222.307714 269.151634 
L 222.576691 275.134273 
L 222.845667 277.743506 
L 222.980155 276.090079 
L 223.114643 277.942219 
L 223.38362 257.621542 
L 223.518108 261.442879 
L 223.652596 261.288062 
L 223.921573 254.404369 
L 224.190549 253.739317 
L 224.325037 256.200813 
L 224.459525 255.579185 
L 224.728502 251.762568 
L 225.131967 258.952119 
L 225.266455 257.482301 
L 225.535431 258.938431 
L 225.669919 257.63995 
L 226.073384 267.301382 
L 226.34236 270.299545 
L 226.476849 270.228273 
L 226.745825 267.115412 
L 226.880313 269.374891 
L 227.014802 269.615613 
L 227.14929 269.321555 
L 227.283778 267.916402 
L 227.418266 269.576436 
L 227.552754 269.703877 
L 227.687243 269.536316 
L 227.956219 268.438437 
L 228.090707 274.196875 
L 228.225195 274.235579 
L 228.359684 275.326378 
L 228.494172 274.561261 
L 228.62866 275.522731 
L 228.763148 275.409451 
L 228.897637 273.143836 
L 229.301101 274.038754 
L 229.435589 267.886193 
L 229.570078 253.941334 
L 230.242519 94.094185 
L 230.377007 79.403089 
L 230.511495 109.088307 
L 230.780471 116.961319 
L 231.049448 144.160496 
L 231.587401 251.804104 
L 231.856377 262.916945 
L 232.125354 267.684176 
L 232.39433 272.295174 
L 232.528818 271.489465 
L 232.797795 254.553522 
L 232.932283 218.639279 
L 233.201259 132.337763 
L 233.335748 124.242438 
L 233.470236 134.437705 
L 233.604724 134.657658 
L 233.739212 147.323861 
L 233.8737 132.731886 
L 234.008189 139.388545 
L 234.815118 262.341101 
L 234.949606 262.077251 
L 235.218583 267.92301 
L 235.622047 275.584564 
L 235.756535 274.992672 
L 236.025512 262.46099 
L 236.563465 128.223312 
L 236.832441 116.132009 
L 237.63937 199.000647 
L 237.908347 256.500535 
L 238.177323 264.509483 
L 238.849764 279.280348 
L 238.984252 278.463782 
L 239.118741 274.702862 
L 239.253229 260.939724 
L 239.791182 127.461027 
L 240.194646 145.020958 
L 240.463623 163.958666 
L 240.732599 177.282369 
L 241.270552 253.993726 
L 241.674017 259.811165 
L 241.942993 272.62652 
L 242.077481 279.06181 
L 242.21197 278.44207 
L 242.480946 260.651802 
L 242.884411 150.016639 
L 243.018899 157.810826 
L 243.153387 155.586275 
L 243.287875 144.716516 
L 243.422363 152.61832 
L 243.556852 149.834445 
L 243.825828 166.310185 
L 244.229293 237.586899 
L 244.498269 259.75122 
L 244.767246 264.972046 
L 245.17071 272.751601 
L 245.305198 273.607815 
L 245.439687 273.315173 
L 245.574175 272.098821 
L 245.708663 260.757531 
L 245.843151 266.15111 
L 246.112128 263.199203 
L 246.381104 258.072305 
L 246.515592 258.039265 
L 247.188033 268.178363 
L 247.322522 268.579566 
L 247.45701 269.437667 
L 247.591498 269.086969 
L 247.725986 272.217766 
L 247.860475 270.794676 
L 248.129451 272.104485 
L 248.263939 271.230335 
L 248.398427 271.905772 
L 248.532916 271.754259 
L 248.667404 273.679087 
L 248.801892 273.581383 
L 249.205357 275.104065 
L 249.339845 275.219233 
L 249.608821 274.280891 
L 249.743309 274.411164 
L 249.877798 274.114274 
L 250.550239 270.982062 
L 250.819215 271.278952 
L 250.953703 272.049261 
L 251.088192 270.925421 
L 251.357168 272.169621 
L 251.491656 280.971535 
L 251.626144 280.48726 
L 251.760633 280.913007 
L 251.895121 280.754885 
L 252.164097 268.64423 
L 252.70205 142.626486 
L 252.836538 162.14523 
L 252.971027 158.738784 
L 253.240003 171.505995 
L 253.374491 172.844124 
L 253.508979 169.950745 
L 253.777956 202.410397 
L 254.046932 253.204065 
L 254.315909 274.296467 
L 254.719373 282.559825 
L 254.853862 282.322408 
L 255.122838 284.036723 
L 255.391814 263.499869 
L 255.660791 171.298786 
L 255.795279 174.708064 
L 256.198744 159.207955 
L 256.333232 162.840962 
L 256.46772 160.205769 
L 256.602208 161.388609 
L 257.409138 255.421064 
L 257.812602 262.810272 
L 258.081579 277.849234 
L 258.216067 278.901329 
L 258.350555 278.180109 
L 258.619532 264.165865 
L 258.888508 176.049969 
L 259.022996 176.909486 
L 259.157484 167.956532 
L 259.291973 167.387296 
L 259.426461 152.073628 
L 259.695437 165.622477 
L 259.829925 154.613949 
L 259.964414 163.586727 
L 260.771343 258.45746 
L 261.040319 260.671154 
L 261.309296 268.087267 
L 261.443784 271.265735 
L 261.71276 268.383685 
L 261.847249 256.12954 
L 262.116225 168.94585 
L 262.250713 173.066909 
L 262.654178 146.929738 
L 262.788666 154.149498 
L 262.923154 149.432299 
L 263.326619 184.192022 
L 263.461107 194.969269 
L 263.864572 243.204208 
L 264.268036 261.047341 
L 264.402525 260.298272 
L 264.671501 263.690086 
L 264.805989 263.565477 
L 264.940478 262.625247 
L 265.074966 255.141166 
L 265.209454 236.23697 
L 265.612919 123.210167 
L 265.881895 105.299066 
L 266.016383 114.695232 
L 266.150871 114.565903 
L 266.28536 114.122692 
L 266.419848 118.702538 
L 266.688824 155.562675 
L 266.957801 233.49888 
L 267.226777 249.97934 
L 267.361265 248.572771 
L 267.495754 264.759173 
L 267.630242 264.446707 
L 267.76473 266.295071 
L 267.899218 266.602817 
L 268.168195 273.051323 
L 268.302683 273.926417 
L 268.437171 271.393176 
L 268.706147 273.901401 
L 268.975124 270.445394 
L 269.2441 268.581454 
L 269.916541 254.248608 
L 270.320006 256.117268 
L 270.588982 260.950108 
L 270.723471 274.892135 
L 270.857959 275.92063 
L 270.992447 274.458836 
L 271.126935 275.332514 
L 271.261424 275.361778 
L 271.395912 275.177697 
L 271.799376 277.924755 
L 271.933865 276.55453 
L 272.068353 276.9057 
L 272.202841 276.268024 
L 272.337329 276.501666 
L 272.471817 275.667636 
L 272.606306 273.525686 
L 272.740794 274.79443 
L 272.875282 274.475356 
L 273.00977 273.805584 
L 273.144258 271.496545 
L 273.278747 271.397896 
L 273.547723 274.34414 
L 273.682211 274.556069 
L 273.8167 275.232449 
L 273.951188 274.380012 
L 274.085676 284.916537 
L 274.354652 286.531731 
L 274.489141 284.976481 
L 274.758117 270.41141 
L 275.29607 165.011705 
L 275.565046 152.900105 
L 275.699535 153.233812 
L 275.834023 171.004256 
L 275.968511 173.262791 
L 276.102999 183.315512 
L 276.77544 261.823786 
L 277.447881 279.04765 
L 277.58237 282.409728 
L 277.716858 282.022686 
L 277.851346 277.668929 
L 277.985834 267.786601 
L 278.389299 207.891769 
L 278.523787 188.603363 
L 278.658275 186.625198 
L 278.792763 177.205904 
L 278.927252 189.213663 
L 279.06174 183.451921 
L 279.196228 185.521655 
L 279.330716 193.139785 
L 280.137646 272.092213 
L 280.272134 274.454588 
L 280.406622 266.182262 
L 280.54111 265.900948 
L 280.810087 267.060188 
L 280.944575 266.44328 
L 281.213551 258.603781 
L 281.348039 229.944225 
L 281.482528 160.184529 
L 281.617016 150.077999 
L 281.751504 126.91256 
L 281.885992 128.052919 
L 282.154969 141.42807 
L 282.289457 123.491953 
L 282.423945 127.53938 
L 282.558433 136.558887 
L 282.82741 184.522896 
L 283.096386 252.397884 
L 283.365363 258.962031 
L 283.499851 261.147405 
L 283.634339 260.482825 
L 283.768827 260.493209 
L 283.903316 260.680594 
L 284.037804 261.972467 
L 284.172292 262.100379 
L 284.441268 256.958378 
L 285.113709 142.823312 
L 285.248198 141.758001 
L 285.382686 137.265947 
L 285.517174 146.416199 
L 285.651662 143.345819 
L 285.78615 146.80041 
L 286.055127 199.40421 
L 286.324103 248.489227 
L 286.59308 258.071361 
L 286.727568 257.951 
L 286.862056 276.701323 
L 286.996544 276.759851 
L 287.131033 275.791773 
L 287.265521 276.391217 
L 287.668985 272.89981 
L 287.803474 273.768296 
L 288.07245 272.90217 
L 288.206938 270.752668 
L 288.341427 270.697916 
L 288.475915 268.375189 
L 288.610403 268.00797 
L 288.744891 266.895459 
L 288.879379 269.694909 
L 289.013868 270.030975 
L 289.148356 267.248989 
L 289.417332 274.330923 
L 289.55182 275.505739 
L 289.820797 275.147961 
L 289.955285 275.93007 
L 290.089773 274.446092 
L 290.224262 275.97727 
L 290.35875 275.07952 
L 290.493238 276.049487 
L 290.627726 274.523501 
L 291.031191 256.729456 
L 291.300167 191.221564 
L 291.434655 185.694408 
L 291.569144 186.29574 
L 291.703632 190.317206 
L 291.972608 177.702924 
L 292.376073 190.648552 
L 293.048514 266.259199 
L 293.183002 267.493015 
L 293.31749 266.353127 
L 293.451979 267.097004 
L 293.586467 266.17707 
L 293.720955 268.626766 
L 293.855443 268.887312 
L 294.258908 245.212109 
L 294.527884 187.819366 
L 294.796861 156.462785 
L 294.931349 140.756882 
L 295.065837 140.624249 
L 295.200325 148.514253 
L 295.334814 142.853048 
L 295.60379 170.621933 
L 295.738278 184.963275 
L 296.141743 254.444017 
L 296.276231 253.56326 
L 296.410719 260.687674 
L 296.545208 278.183413 
L 296.948672 280.324419 
L 297.486625 282.269071 
L 297.621113 281.927341 
L 297.755601 281.923565 
L 298.024578 278.784745 
L 298.159066 278.636064 
L 298.428042 276.517714 
L 298.697019 272.734137 
L 298.831507 271.611242 
L 298.965995 271.470585 
L 299.100484 271.822227 
L 299.36946 275.56474 
L 299.503948 275.063944 
L 299.638436 276.58993 
L 299.772925 267.038948 
L 299.907413 270.402914 
L 300.041901 270.104608 
L 300.176389 270.961293 
L 300.310877 270.680924 
L 300.579854 259.833821 
L 301.252295 127.240602 
L 301.386783 127.30857 
L 301.521271 140.352375 
L 301.65576 133.488507 
L 301.790248 142.797351 
L 302.597177 250.373935 
L 302.731665 252.10713 
L 303.000642 264.375434 
L 303.13513 264.597276 
L 303.269618 265.072111 
L 303.404106 267.503871 
L 303.538595 267.91829 
L 303.807571 251.743688 
L 304.345524 162.976427 
L 304.6145 152.572063 
L 304.748988 160.716949 
L 304.883477 151.251399 
L 305.017965 157.263302 
L 306.093871 262.844256 
L 306.228359 263.843487 
L 306.497335 273.884409 
L 306.766312 274.902519 
L 306.9008 270.247153 
L 307.035288 259.826741 
L 307.304265 168.392663 
L 307.438753 175.572302 
L 307.842217 156.527921 
L 307.976706 163.499407 
L 308.111194 155.175632 
L 308.245682 160.082104 
L 308.649147 205.564794 
L 309.052611 261.293726 
L 309.590564 273.386445 
L 309.994029 275.070552 
L 310.128517 271.557433 
L 310.263005 259.083808 
L 310.531982 168.282686 
L 310.66647 169.421158 
L 310.935446 167.157903 
L 311.069934 157.912306 
L 311.204423 164.294732 
L 311.338911 163.018436 
L 311.473399 156.321184 
L 311.607887 169.309293 
L 311.876864 206.4616 
L 312.14584 248.310809 
L 312.414817 259.982974 
L 312.818281 268.496493 
L 312.952769 268.067443 
L 313.087258 269.931855 
L 313.221746 269.83415 
L 313.356234 271.393176 
L 313.625211 260.956244 
L 313.759699 253.154033 
L 313.894187 256.468911 
L 314.028675 253.96871 
L 314.163163 255.830763 
L 314.297652 253.101641 
L 314.566628 259.590739 
L 314.701116 260.317152 
L 314.970093 265.016887 
L 315.104581 264.979598 
L 315.239069 264.686484 
L 315.508045 267.585999 
L 315.642534 268.117003 
L 315.777022 267.790377 
L 316.180487 270.746532 
L 316.314975 270.311817 
L 316.718439 272.639736 
L 316.852928 272.886122 
L 316.987416 272.042181 
L 317.121904 272.106845 
L 317.256392 270.999526 
L 317.39088 271.142543 
L 317.525369 269.620805 
L 317.659857 270.529883 
L 317.928833 268.03865 
L 318.332298 264.34381 
L 318.466786 264.990926 
L 318.601274 264.493907 
L 318.735763 265.933989 
L 318.870251 265.772092 
L 319.139227 266.876107 
L 319.273715 276.602674 
L 319.67718 277.708578 
L 319.811668 275.158345 
L 319.946157 267.292413 
L 320.349621 146.653617 
L 320.484109 130.681504 
L 320.887574 157.657897 
L 321.022062 162.272671 
L 321.291039 176.89155 
L 321.425527 178.671946 
L 321.560015 196.908257 
L 321.828991 251.821568 
L 321.96348 259.819661 
L 322.097968 260.597522 
L 322.635921 277.11291 
L 322.770409 277.456056 
L 322.904897 276.80422 
L 323.173874 266.487648 
L 323.44285 172.077119 
L 323.577338 172.434897 
L 323.711826 172.634083 
L 323.980803 152.680152 
L 324.249779 156.180055 
L 324.384268 158.915785 
L 324.787732 194.758283 
L 325.056709 248.6785 
L 325.325685 257.847632 
L 325.863638 275.472699 
L 325.998126 277.220526 
L 326.132614 277.285191 
L 326.267103 274.107666 
L 326.401591 265.208048 
L 326.670567 164.96592 
L 326.805055 170.855575 
L 326.939544 172.014814 
L 327.20852 158.934665 
L 327.343008 166.987982 
L 327.611985 163.275677 
L 327.746473 168.081613 
L 328.149937 222.172222 
L 328.418914 252.675894 
L 328.68789 265.344929 
L 328.822379 267.771025 
L 328.956867 277.706218 
L 329.225843 278.642672 
L 329.360331 277.804866 
L 329.629308 265.114591 
L 330.032772 177.085072 
L 330.301749 165.871694 
L 330.570725 157.160877 
L 330.839702 178.772483 
L 330.97419 179.97137 
L 331.108678 182.686332 
L 331.781119 257.729631 
L 332.050096 264.813453 
L 332.184584 275.468451 
L 332.319072 276.413873 
L 332.45356 275.756373 
L 332.588049 276.732947 
L 332.857025 264.264986 
L 333.26049 176.460612 
L 333.394978 178.349096 
L 333.663954 163.603719 
L 333.798442 164.782783 
L 333.932931 168.507832 
L 334.336395 186.173491 
L 334.73986 253.155449 
L 335.143325 268.708895 
L 335.277813 268.512541 
L 335.412301 268.60883 
L 335.546789 268.891088 
L 335.681277 268.787247 
L 335.950254 271.340312 
L 336.084742 269.269162 
L 336.622695 252.989776 
L 336.757183 253.775661 
L 336.891671 251.966945 
L 337.295136 258.253554 
L 337.698601 262.932993 
L 337.833089 262.459102 
L 338.102065 266.512664 
L 338.236553 266.283271 
L 338.371042 266.913395 
L 338.50553 264.604356 
L 339.043483 267.7276 
L 339.446947 270.689892 
L 339.581436 270.213641 
L 339.715924 269.057705 
L 339.850412 269.314003 
L 339.9849 268.54275 
L 340.119388 268.431357 
L 340.253877 267.96313 
L 340.388365 269.423507 
L 340.522853 267.457143 
L 340.657341 268.049034 
L 340.926318 267.734208 
L 341.060806 264.433491 
L 341.329782 269.260194 
L 341.464271 269.159658 
L 341.598759 269.682165 
L 341.733247 271.230807 
L 341.867735 278.964106 
L 342.136712 279.064642 
L 342.2712 279.699015 
L 342.540176 267.147508 
L 342.943641 153.279596 
L 343.212617 169.700111 
L 343.347106 168.974171 
L 343.75057 183.195624 
L 343.885058 184.85141 
L 344.019547 184.19627 
L 344.423011 251.310861 
L 345.22994 276.712651 
L 345.364429 277.784098 
L 345.498917 277.420656 
L 345.633405 273.251924 
L 345.767893 265.259496 
L 346.03687 181.96464 
L 346.171358 186.035666 
L 346.440334 172.625114 
L 346.574823 167.31508 
L 346.843799 174.115228 
L 347.112775 175.962648 
L 347.381752 210.049767 
L 347.650728 248.517547 
L 348.054193 266.274303 
L 348.188681 267.442982 
L 348.323169 276.30956 
L 348.457658 277.147838 
L 348.592146 278.997146 
L 348.726634 278.804097 
L 348.99561 266.044909 
L 349.264587 180.926233 
L 349.399075 182.383306 
L 349.668052 165.026337 
L 349.80254 160.961446 
L 350.206004 179.443199 
L 350.340493 180.609519 
L 351.012934 259.871109 
L 351.147422 262.165044 
L 351.550886 278.637008 
L 351.685375 277.933251 
L 351.954351 278.295749 
L 352.088839 276.914668 
L 352.223328 269.710013 
L 352.492304 176.89627 
L 352.626792 183.977733 
L 352.76128 172.740755 
L 352.895769 172.040303 
L 353.030257 163.858601 
L 353.164745 170.985376 
L 353.299233 168.932634 
L 353.56821 151.365151 
L 354.240651 266.414016 
L 354.375139 267.538327 
L 354.644115 273.332165 
L 354.913092 277.556121 
L 355.182068 278.586031 
L 355.316556 276.211856 
L 355.451045 267.190933 
L 355.854509 194.749315 
L 356.123486 156.865403 
L 356.257974 158.55895 
L 356.392462 167.06775 
L 356.52695 166.441874 
L 356.661439 176.923175 
L 356.795927 175.686526 
L 357.33388 262.15466 
L 357.602856 271.638618 
L 357.737344 273.579967 
L 357.871832 277.785042 
L 358.006321 277.213446 
L 358.140809 277.425376 
L 358.275297 278.156508 
L 358.409785 278.06966 
L 358.678762 276.824988 
L 359.082226 258.574988 
L 359.351203 252.739142 
L 359.485691 246.541742 
L 359.620179 257.148595 
L 359.754667 258.546196 
L 359.889156 258.712341 
L 360.427109 272.832786 
L 360.561597 273.504446 
L 360.965061 277.602849 
L 361.234038 277.563673 
L 361.368526 277.374399 
L 361.503014 278.664384 
L 361.771991 278.261765 
L 361.906479 279.576766 
L 362.040967 279.529565 
L 362.175455 279.90056 
L 362.309944 279.94068 
L 362.57892 276.568218 
L 362.713408 276.519602 
L 362.982385 275.398122 
L 363.116873 273.923113 
L 363.251361 273.822576 
L 363.385849 274.900631 
L 363.520337 274.05669 
L 363.654826 273.997689 
L 364.05829 276.751355 
L 364.192778 251.047011 
L 364.730731 257.231668 
L 364.86522 256.050244 
L 364.999708 244.108566 
L 365.134196 222.212815 
L 365.403172 134.9031 
L 365.672149 104.956864 
L 365.806637 99.103554 
L 366.075613 115.853999 
L 366.34459 112.745859 
L 366.479078 124.046557 
L 367.017031 248.985302 
L 367.151519 253.887998 
L 367.286007 252.172739 
L 367.554984 263.403108 
L 367.689472 264.259794 
L 367.958448 269.103489 
L 368.227425 245.811553 
L 368.496401 150.953093 
L 368.765378 99.664765 
L 369.034354 88.887519 
L 369.168842 93.555629 
L 369.303331 93.116195 
L 369.437819 96.446648 
L 369.572307 94.348595 
L 369.706795 110.274451 
L 370.244748 232.706387 
L 370.782701 276.422369 
L 370.917189 276.723979 
L 371.051677 277.605681 
L 371.186166 277.330031 
L 371.455142 262.675279 
L 371.858607 170.447292 
L 372.127583 202.076219 
L 372.262071 198.060889 
L 372.396559 199.471706 
L 372.665536 188.903085 
L 372.800024 192.655509 
L 373.203489 231.920502 
L 373.472465 253.930006 
L 373.87593 274.887415 
L 374.010418 283.805913 
L 374.144906 283.66148 
L 374.279394 284.854704 
L 374.413883 284.357213 
L 374.682859 267.980122 
L 375.220812 179.57064 
L 375.489788 175.981528 
L 375.624277 176.201954 
L 375.893253 182.665092 
L 376.027741 186.913592 
L 376.565694 253.749229 
L 376.83467 262.54123 
L 376.969159 265.346345 
L 377.103647 277.027949 
L 377.238135 275.947062 
L 377.507112 277.996971 
L 377.6416 276.052791 
L 377.776088 279.553166 
L 378.045064 277.429624 
L 378.179553 267.894689 
L 378.314041 267.275893 
L 378.448529 260.253431 
L 378.583017 261.243222 
L 378.717505 260.336032 
L 378.851994 264.797877 
L 378.986482 264.045976 
L 379.12097 264.944198 
L 379.255458 267.080012 
L 379.389947 266.964843 
L 379.927899 276.117927 
L 380.062388 275.91355 
L 380.196876 276.325609 
L 380.331364 266.524464 
L 380.60034 268.430885 
L 380.869317 270.067792 
L 381.138293 259.290073 
L 381.272782 232.488794 
L 381.541758 158.702439 
L 381.810734 138.757477 
L 381.945223 140.331607 
L 382.214199 146.748489 
L 382.348687 138.844798 
L 382.752152 188.164872 
L 383.021128 255.435224 
L 383.155616 263.278027 
L 383.290105 263.933167 
L 383.424593 265.206632 
L 383.559081 260.33084 
L 383.693569 259.626611 
L 383.962546 259.969286 
L 384.097034 261.146933 
L 384.231522 259.382114 
L 384.36601 260.759419 
L 385.038451 147.79964 
L 385.17294 150.216768 
L 385.307428 165.190122 
L 385.576404 159.606325 
L 386.248845 258.250722 
L 386.921286 276.554058 
L 387.055775 275.747877 
L 387.190263 277.011901 
L 387.324751 276.328441 
L 387.459239 276.487978 
L 387.593727 277.961571 
L 387.728216 277.393279 
L 387.862704 278.69648 
L 387.997192 277.5396 
L 388.13168 279.113259 
L 388.266169 278.139516 
L 388.400657 276.17504 
L 388.535145 276.263304 
L 388.669633 275.607692 
L 388.804121 276.734835 
L 388.93861 274.210563 
L 389.207586 276.328441 
L 389.476562 282.948284 
L 389.611051 281.900909 
L 389.745539 282.708978 
L 389.880027 282.65753 
L 390.014515 267.907905 
L 390.283492 268.154291 
L 390.41798 268.164203 
L 390.552468 268.034874 
L 390.686956 262.592207 
L 390.821445 262.775344 
L 390.955933 254.012607 
L 391.224909 198.420083 
L 391.359397 167.358976 
L 391.493886 163.409254 
L 391.762862 173.995339 
L 391.89735 173.457256 
L 392.031839 166.306409 
L 392.166327 169.968681 
L 392.300815 178.858387 
L 392.569791 238.411961 
L 392.70428 264.436323 
L 392.973256 269.230458 
L 393.107744 269.88135 
L 393.376721 262.895705 
L 393.645697 268.556438 
L 393.780185 265.199552 
L 393.914673 266.570249 
L 394.049162 259.231545 
L 394.721603 145.769555 
L 394.990579 144.708492 
L 395.125067 144.292657 
L 395.259556 155.563619 
L 395.394044 156.425025 
L 395.931997 243.688011 
L 396.200973 257.162283 
L 396.335461 253.462723 
L 396.46995 277.988475 
L 396.604438 278.367966 
L 397.007902 281.372738 
L 397.276879 268.445989 
L 397.545855 195.471008 
L 397.680343 190.335142 
L 397.94932 167.190471 
L 398.083808 153.8578 
L 398.218296 166.474442 
L 398.352785 161.755355 
L 398.487273 164.737943 
L 398.487273 164.737943 
" clip-path="url(#p79c7a8b0e5)" style="fill: none; stroke: #1f77b4; stroke-width: 1.5; stroke-linecap: square"/>
   </g>
   <g id="line2d_14">
    <path d="M 73.832727 277.972372 
L 74.101704 277.968923 
L 74.37068 277.350227 
L 74.505168 276.014134 
L 74.639657 277.717926 
L 74.774145 276.698467 
L 74.908633 276.537152 
L 75.043121 263.315754 
L 75.177609 211.749567 
L 75.312098 243.917011 
L 75.446586 244.979229 
L 75.581074 248.674587 
L 75.715562 248.32455 
L 75.85005 249.29969 
L 75.984539 247.818643 
L 76.119027 252.877607 
L 76.522492 249.040143 
L 76.65698 277.782237 
L 76.791468 277.020189 
L 76.925956 274.699185 
L 77.194933 266.453245 
L 77.329421 247.391146 
L 77.463909 261.188036 
L 77.598397 258.956357 
L 77.867374 263.82891 
L 78.001862 250.662316 
L 78.13635 214.258989 
L 78.405327 120.34981 
L 78.539815 98.979348 
L 78.674303 112.633276 
L 78.943279 104.901327 
L 79.077768 119.579528 
L 79.212256 120.613905 
L 79.346744 167.905377 
L 79.481232 173.261019 
L 79.884697 251.997445 
L 80.019185 250.707113 
L 80.288161 266.971907 
L 80.42265 263.346353 
L 80.557138 252.658783 
L 80.691626 274.405299 
L 80.826114 263.761928 
L 80.960603 267.800261 
L 81.095091 265.754935 
L 81.229579 259.661818 
L 81.364067 232.562549 
L 81.633044 125.330114 
L 81.767532 178.576812 
L 81.90202 157.372019 
L 82.036508 206.718714 
L 82.170996 208.842445 
L 82.305485 205.927556 
L 82.439973 209.867624 
L 82.574461 189.537326 
L 82.708949 231.788949 
L 82.977926 209.50665 
L 83.112414 216.637544 
L 83.246902 208.937104 
L 83.38139 208.829847 
L 83.784855 269.663475 
L 83.919343 288.688983 
L 84.053831 281.855746 
L 84.18832 283.834724 
L 84.322808 208.825228 
L 84.457296 243.061492 
L 84.591784 208.825228 
L 84.860761 208.825228 
L 84.995249 209.234506 
L 85.129737 172.538967 
L 85.264225 187.871435 
L 85.398714 163.340453 
L 85.802178 216.879764 
L 86.071155 232.661758 
L 86.340131 265.507624 
L 86.474619 258.335073 
L 86.609107 267.061308 
L 86.743596 265.712651 
L 86.878084 269.985897 
L 87.14706 284.343065 
L 87.281549 284.52508 
L 87.416037 283.170077 
L 87.550525 284.806176 
L 87.685013 284.02957 
L 87.819501 282.176567 
L 88.088478 238.378008 
L 88.222966 257.687243 
L 88.357454 247.045549 
L 88.491942 258.057739 
L 88.760919 248.09645 
L 88.895407 255.839566 
L 89.029895 248.28735 
L 89.164384 256.69799 
L 89.298872 254.926005 
L 89.43336 258.967884 
L 89.567848 274.969039 
L 89.702336 273.212122 
L 89.836825 275.30549 
L 89.971313 273.373241 
L 90.105801 274.215352 
L 90.240289 252.972312 
L 90.509266 263.120294 
L 90.643754 265.324018 
L 90.778242 265.361285 
L 90.91273 264.820114 
L 91.047218 265.965271 
L 91.181707 257.617851 
L 91.316195 241.335274 
L 91.450683 251.384136 
L 91.585171 238.601888 
L 91.71966 256.449591 
L 91.854148 247.430874 
L 91.988636 252.395237 
L 92.123124 250.657099 
L 92.392101 258.131806 
L 92.526589 256.479217 
L 93.064542 266.758001 
L 93.333518 257.86711 
L 93.468006 278.469037 
L 93.602495 269.381635 
L 93.871471 270.093653 
L 94.140447 261.741319 
L 94.274936 238.958264 
L 94.543912 145.726912 
L 94.6784 179.629768 
L 94.812888 155.910146 
L 94.947377 155.53543 
L 95.081865 154.617401 
L 95.48533 190.535328 
L 95.619818 173.365972 
L 95.888794 253.827249 
L 96.023282 255.84536 
L 96.292259 265.823093 
L 96.426747 262.591057 
L 96.561235 262.97461 
L 96.695723 264.168585 
L 96.830212 261.317726 
L 96.9647 261.294493 
L 97.099188 264.739932 
L 97.368164 258.996611 
L 97.771629 146.61833 
L 97.906117 184.329878 
L 98.040606 165.576718 
L 98.175094 186.280547 
L 98.309582 175.932284 
L 98.578558 184.068572 
L 98.847535 220.284943 
L 98.982023 226.527628 
L 99.385488 269.824467 
L 99.519976 267.355647 
L 99.654464 270.563172 
L 99.788952 266.40455 
L 99.923441 284.154828 
L 100.192417 272.935873 
L 100.461393 274.07928 
L 100.595882 273.827067 
L 100.864858 256.430035 
L 101.133834 269.401185 
L 101.268323 277.630809 
L 101.402811 272.421563 
L 101.537299 261.496333 
L 101.671787 234.257739 
L 101.806276 253.939277 
L 101.940764 249.368457 
L 102.075252 253.052147 
L 102.20974 260.050243 
L 102.344228 259.289499 
L 102.613205 264.969612 
L 102.747693 274.689429 
L 102.882181 265.067461 
L 103.016669 278.479805 
L 103.151158 242.619903 
L 103.420134 265.849827 
L 103.68911 259.447397 
L 103.823599 256.020452 
L 103.958087 236.253334 
L 104.227063 140.704421 
L 104.361552 166.53062 
L 104.49604 145.546709 
L 104.630528 167.911498 
L 104.899504 142.968247 
L 105.840922 264.832995 
L 106.109898 254.580095 
L 106.378875 287.187801 
L 106.647851 277.313369 
L 106.782339 274.327076 
L 106.916828 278.551215 
L 107.051316 275.724767 
L 107.185804 268.232671 
L 107.45478 189.52583 
L 107.723757 252.181931 
L 107.858245 236.89314 
L 107.992733 237.723494 
L 108.127222 226.519085 
L 108.26171 227.330196 
L 108.396198 241.983087 
L 108.530686 243.933067 
L 108.665174 240.217402 
L 108.799663 248.371469 
L 109.068639 282.268267 
L 109.203127 274.89449 
L 109.337615 275.847896 
L 109.472104 273.225006 
L 109.606592 267.491282 
L 109.74108 270.827589 
L 109.875568 270.918087 
L 110.010056 272.187957 
L 110.144545 272.038229 
L 110.279033 272.601699 
L 110.413521 271.323527 
L 110.548009 268.902727 
L 110.816986 270.972195 
L 111.085962 266.328718 
L 111.22045 266.45515 
L 111.354939 268.715198 
L 111.489427 265.903986 
L 111.623915 266.073453 
L 111.758403 265.411514 
L 111.892891 262.794729 
L 112.296356 268.737397 
L 112.565333 269.04928 
L 112.699821 269.382787 
L 112.834309 255.179403 
L 112.968797 263.337739 
L 113.372262 266.91526 
L 113.50675 266.266426 
L 113.641238 267.263397 
L 113.775726 266.205665 
L 113.910215 269.002686 
L 114.044703 263.623859 
L 114.179191 265.310114 
L 114.313679 261.145876 
L 114.448168 252.310922 
L 114.582656 255.982329 
L 114.717144 255.26312 
L 114.851632 257.433536 
L 115.120609 249.849287 
L 115.255097 250.170713 
L 115.524073 260.654243 
L 115.658561 261.165163 
L 115.79305 255.873362 
L 115.927538 255.067733 
L 116.062026 256.336905 
L 116.196514 256.525239 
L 116.331002 252.818042 
L 116.465491 265.316506 
L 116.599979 258.602846 
L 116.734467 260.098025 
L 116.868955 223.927028 
L 117.137932 111.406797 
L 117.27242 88.701505 
L 117.406908 91.991434 
L 117.675885 74.916126 
L 117.944861 123.88065 
L 118.213837 180.651563 
L 118.348326 180.488926 
L 118.617302 238.586488 
L 118.75179 236.94266 
L 119.020767 257.388403 
L 119.155255 251.463065 
L 119.424231 255.517895 
L 119.55872 252.390734 
L 119.693208 253.389115 
L 119.827696 256.118901 
L 119.962184 253.45695 
L 120.096672 227.727476 
L 120.365649 106.014831 
L 120.634625 97.247387 
L 120.903602 88.176577 
L 121.441555 170.908931 
L 121.576043 169.845777 
L 121.845019 243.275481 
L 121.979507 228.593244 
L 122.113996 249.619948 
L 122.248484 246.114718 
L 122.51746 251.25329 
L 122.651948 264.862785 
L 122.920925 254.373878 
L 123.055413 254.989472 
L 123.189901 250.244967 
L 123.32439 234.852344 
L 123.593366 106.069822 
L 123.727854 83.399671 
L 123.862342 85.32897 
L 123.996831 82.84277 
L 124.534783 173.209186 
L 124.669272 165.560782 
L 124.80376 167.685424 
L 125.072736 236.30838 
L 125.207225 238.83557 
L 125.341713 258.068513 
L 125.745177 250.482268 
L 125.879666 268.87572 
L 126.014154 263.900171 
L 126.148642 263.642833 
L 126.28313 261.230153 
L 126.552107 228.025721 
L 126.821083 116.245816 
L 127.224548 83.640618 
L 127.359036 88.115095 
L 127.762501 155.662388 
L 128.031477 175.597668 
L 128.300453 246.363178 
L 128.434942 245.506303 
L 128.56943 256.286648 
L 128.703918 256.409416 
L 128.838406 250.094 
L 128.972894 261.409425 
L 129.107383 254.094239 
L 129.376359 260.808078 
L 129.510847 259.135395 
L 129.779824 214.935831 
L 130.0488 107.658908 
L 130.183288 92.568678 
L 130.317777 96.813182 
L 130.452265 88.276314 
L 130.586753 117.378855 
L 130.721241 175.51967 
L 130.990218 149.693949 
L 131.124706 158.469845 
L 131.528171 245.943707 
L 131.931635 264.007868 
L 132.200612 259.300534 
L 132.3351 258.57231 
L 132.604076 270.500958 
L 132.738564 267.258184 
L 132.873053 267.112077 
L 133.007541 266.001378 
L 133.276517 249.700534 
L 133.411005 239.962988 
L 133.545494 242.705715 
L 133.81447 241.990799 
L 133.948958 246.996637 
L 134.217935 242.333399 
L 134.486911 250.190587 
L 134.755888 254.118412 
L 134.890376 258.038987 
L 135.024864 257.445765 
L 135.159352 255.938134 
L 135.697305 262.740711 
L 135.966282 265.527015 
L 136.10077 270.397804 
L 136.369746 262.377261 
L 136.504234 267.846666 
L 136.638723 266.68534 
L 136.773211 258.347137 
L 136.907699 262.826141 
L 137.042187 259.742227 
L 137.176675 260.119973 
L 137.311164 250.872071 
L 137.445652 251.0087 
L 137.714628 255.50526 
L 137.849117 252.566509 
L 138.118093 259.473651 
L 138.252581 260.102472 
L 138.387069 250.293964 
L 138.656046 260.456484 
L 138.790534 253.286754 
L 138.925022 254.686904 
L 139.05951 260.213301 
L 139.193999 259.932872 
L 139.462975 219.918166 
L 139.731951 107.595114 
L 139.86644 91.679332 
L 140.000928 91.309693 
L 140.135416 75.76507 
L 140.269904 78.73903 
L 140.538881 128.157645 
L 140.673369 175.14608 
L 140.807857 172.302589 
L 140.942345 175.085302 
L 141.076834 193.331655 
L 141.211322 255.512945 
L 141.34581 247.33265 
L 141.480298 249.824658 
L 141.614786 264.27659 
L 141.749275 257.2951 
L 142.018251 261.819715 
L 142.152739 258.512586 
L 142.287228 259.797555 
L 142.421716 256.619429 
L 142.690692 214.624727 
L 142.959669 100.255868 
L 143.094157 93.009168 
L 143.228645 100.001954 
L 143.363133 93.936436 
L 143.497621 103.674432 
L 143.63211 128.055949 
L 143.766598 121.872657 
L 144.035574 186.143587 
L 144.170063 172.520738 
L 144.439039 249.577072 
L 144.573527 238.440924 
L 144.842504 266.874316 
L 145.11148 258.29084 
L 145.245968 257.463868 
L 145.380456 258.347505 
L 145.514945 261.363826 
L 145.649433 250.810301 
L 145.783921 220.701462 
L 145.918409 227.13569 
L 146.187386 113.106129 
L 146.321874 91.463819 
L 146.456362 98.519906 
L 146.859827 144.837777 
L 146.994315 130.773076 
L 147.128803 162.423926 
L 147.263291 139.605986 
L 147.666756 248.118901 
L 147.801244 247.791398 
L 148.070221 265.14667 
L 148.204709 257.69081 
L 148.339197 261.413004 
L 148.473685 260.179209 
L 148.608174 257.897186 
L 148.742662 258.787512 
L 148.87715 256.337356 
L 149.011638 256.422796 
L 149.146126 215.382593 
L 149.415103 108.244587 
L 149.549591 103.613666 
L 149.684079 117.562833 
L 149.818567 108.745149 
L 149.953056 110.514918 
L 150.222032 138.241459 
L 150.35652 177.634821 
L 150.491009 156.366887 
L 150.625497 175.5871 
L 150.894473 253.513907 
L 151.028961 247.179359 
L 151.297938 265.183066 
L 151.432426 256.944937 
L 151.701402 258.69769 
L 151.835891 261.609914 
L 151.970379 260.436546 
L 152.104867 261.913835 
L 152.239355 257.16616 
L 152.64282 108.39899 
L 152.777308 99.686745 
L 152.911796 117.152767 
L 153.180773 102.635878 
L 153.315261 124.925662 
L 153.449749 124.023551 
L 153.584237 203.711539 
L 153.718726 190.396728 
L 154.12219 255.71973 
L 154.256678 259.885585 
L 154.391167 269.348428 
L 154.525655 268.032114 
L 154.660143 269.906006 
L 154.794631 268.815294 
L 154.92912 269.977701 
L 155.063608 269.686489 
L 155.467072 273.953868 
L 155.601561 270.432338 
L 155.736049 262.146822 
L 155.870537 245.423888 
L 156.005025 257.271848 
L 156.139513 252.838762 
L 156.274002 260.909338 
L 156.542978 255.397677 
L 156.677466 255.624845 
L 156.811955 259.441577 
L 156.946443 258.960663 
L 157.080931 261.517023 
L 157.215419 261.946113 
L 157.618884 267.870779 
L 157.753372 265.453208 
L 158.156837 269.557948 
L 158.291325 269.566997 
L 158.425813 270.597285 
L 158.694789 275.205437 
L 158.829278 274.754715 
L 158.963766 270.499969 
L 159.098254 273.739946 
L 159.367231 268.646658 
L 159.501719 269.220617 
L 159.636207 271.258027 
L 160.039672 259.063818 
L 160.17416 261.83345 
L 160.308648 256.383614 
L 160.443136 259.682228 
L 160.577624 259.924009 
L 160.712113 267.45221 
L 160.846601 264.496694 
L 160.981089 254.663553 
L 161.250066 258.819791 
L 161.384554 264.511154 
L 161.519042 261.480705 
L 161.65353 261.909528 
L 161.788018 260.991909 
L 161.922507 246.94075 
L 162.056995 216.178361 
L 162.325971 108.573601 
L 162.594948 89.595608 
L 162.998412 118.658579 
L 163.132901 156.21349 
L 163.267389 153.028472 
L 163.670853 210.686459 
L 163.805342 251.217814 
L 163.93983 242.443576 
L 164.208806 261.640745 
L 164.343294 258.790402 
L 164.477783 255.131932 
L 164.612271 270.084652 
L 164.746759 263.624081 
L 164.881247 264.46125 
L 165.284712 219.97114 
L 165.553688 115.082044 
L 165.688177 102.273629 
L 165.822665 124.710742 
L 165.957153 112.643557 
L 166.091641 113.969851 
L 166.360618 132.678467 
L 166.495106 128.197745 
L 166.629594 131.423445 
L 166.764082 150.611473 
L 166.89857 235.394809 
L 167.033059 247.865893 
L 167.167547 239.532025 
L 167.302035 243.710813 
L 167.436523 259.451117 
L 167.571012 253.481051 
L 167.7055 255.655426 
L 167.974476 261.67027 
L 168.108964 260.232817 
L 168.243453 260.410895 
L 168.377941 246.520184 
L 168.512429 215.64308 
L 168.781405 93.861357 
L 168.915894 94.413551 
L 169.050382 114.436927 
L 169.18487 109.535203 
L 169.453847 127.038364 
L 169.588335 105.202033 
L 169.991799 187.155408 
L 170.126288 201.633547 
L 170.260776 255.583924 
L 170.395264 246.732294 
L 170.66424 260.073105 
L 170.798729 257.570192 
L 170.933217 260.151833 
L 171.067705 255.568706 
L 171.47117 262.643624 
L 171.605658 230.283059 
L 171.740146 225.115618 
L 172.009123 108.333389 
L 172.143611 91.893967 
L 172.278099 114.630244 
L 172.412587 115.548695 
L 172.547075 110.815555 
L 172.681564 115.868752 
L 172.95054 161.407655 
L 173.085028 175.945476 
L 173.219516 170.384891 
L 173.488493 256.226776 
L 173.622981 246.162948 
L 173.891958 264.209604 
L 174.026446 263.667123 
L 174.160934 282.357229 
L 174.295422 268.821722 
L 174.42991 269.081058 
L 174.564399 268.227951 
L 174.698887 269.58326 
L 174.967863 228.102893 
L 175.23684 146.426822 
L 175.371328 154.755816 
L 175.505816 139.120821 
L 175.640304 138.404521 
L 175.774792 141.393351 
L 176.312745 194.160488 
L 176.447234 189.046997 
L 176.71621 264.78875 
L 176.850698 253.433459 
L 177.119675 269.322549 
L 177.254163 263.309336 
L 177.523139 266.813854 
L 177.657627 265.840864 
L 177.926604 271.329949 
L 178.061092 271.298674 
L 178.19558 270.000945 
L 178.330069 255.638787 
L 178.464557 255.920354 
L 178.599045 259.168255 
L 178.733533 249.208382 
L 178.868021 253.107808 
L 179.00251 253.634036 
L 179.136998 258.052903 
L 179.271486 251.631021 
L 179.540462 257.03444 
L 179.674951 254.51736 
L 179.809439 255.134993 
L 180.078415 263.24754 
L 180.212904 269.587547 
L 180.347392 264.377191 
L 180.48188 264.302112 
L 180.616368 274.096994 
L 180.885345 272.244064 
L 181.019833 272.192425 
L 181.154321 272.980119 
L 181.288809 272.5688 
L 181.557786 263.334941 
L 181.692274 258.417106 
L 181.826762 263.531792 
L 181.96125 259.260619 
L 182.095738 264.566216 
L 182.230227 250.78655 
L 182.499203 263.570722 
L 182.76818 267.108681 
L 182.902668 270.231433 
L 183.037156 268.140158 
L 183.171644 267.803739 
L 183.306132 273.744765 
L 183.440621 273.631338 
L 183.575109 272.419282 
L 183.844085 263.614149 
L 183.978573 285.949768 
L 184.113062 282.404241 
L 184.24755 282.772053 
L 184.382038 275.361375 
L 184.651015 239.921205 
L 184.919991 161.195187 
L 185.054479 180.389767 
L 185.188967 164.363507 
L 185.323456 183.536455 
L 185.457944 173.744013 
L 185.592432 180.219203 
L 185.861408 212.006021 
L 185.995897 233.719618 
L 186.130385 235.080999 
L 186.399361 261.503455 
L 186.53385 261.485943 
L 186.668338 268.435914 
L 186.802826 269.060706 
L 186.937314 271.33535 
L 187.071802 277.829094 
L 187.206291 289.737334 
L 187.475267 281.737235 
L 187.609755 283.774391 
L 187.744243 273.927053 
L 187.878732 241.532309 
L 188.01322 163.333658 
L 188.147708 164.565488 
L 188.282196 182.709605 
L 188.416684 167.972758 
L 188.551173 179.477501 
L 188.685661 179.311614 
L 188.820149 185.305242 
L 189.627078 265.914134 
L 189.761567 267.213331 
L 190.030543 265.56558 
L 190.165031 271.054286 
L 190.299519 260.691157 
L 190.434008 265.168073 
L 190.568496 264.138913 
L 190.702984 261.454774 
L 190.837472 264.01612 
L 190.971961 263.740343 
L 191.240937 247.503551 
L 191.375425 247.595161 
L 191.644402 265.693329 
L 191.77889 252.529498 
L 191.913378 260.194567 
L 192.182354 236.890185 
L 192.316843 240.667081 
L 192.585819 254.061065 
L 192.720307 253.343544 
L 192.854796 256.836853 
L 192.989284 266.517211 
L 193.123772 262.492567 
L 193.25826 262.612837 
L 193.392748 258.150482 
L 193.661725 256.910319 
L 193.796213 261.804119 
L 194.065189 262.16097 
L 194.199678 252.498744 
L 194.334166 229.303299 
L 194.468654 166.214426 
L 194.603142 159.827433 
L 194.73763 161.942034 
L 194.872119 144.363477 
L 195.006607 150.11775 
L 195.141095 142.468339 
L 195.275583 145.885366 
L 195.410072 156.013583 
L 195.54456 154.976933 
L 195.679048 189.308649 
L 195.813536 194.585464 
L 195.948024 243.721449 
L 196.082513 248.775996 
L 196.217001 260.884585 
L 196.485977 260.040045 
L 196.620465 258.955823 
L 196.754954 273.96639 
L 196.889442 263.484319 
L 197.02393 264.181034 
L 197.158418 262.51283 
L 197.292907 265.361131 
L 197.427395 259.453555 
L 197.561883 241.187968 
L 197.830859 152.760446 
L 197.965348 193.896274 
L 198.099836 181.908439 
L 198.234324 190.21745 
L 198.368812 189.797654 
L 198.5033 199.170323 
L 198.637789 190.220933 
L 199.444718 273.309602 
L 199.579206 271.169868 
L 199.982671 278.470433 
L 200.117159 275.527872 
L 200.251647 276.336149 
L 200.386135 276.373088 
L 200.520624 273.9377 
L 200.655112 266.624335 
L 200.7896 266.877481 
L 200.924088 241.427441 
L 201.058576 160.011002 
L 201.193065 205.125486 
L 201.327553 186.935067 
L 201.462041 195.201894 
L 201.596529 194.612657 
L 201.731018 197.200384 
L 201.865506 189.763791 
L 202.26897 235.919797 
L 202.403459 242.856041 
L 202.672435 270.710406 
L 202.806923 269.09943 
L 203.0759 272.037697 
L 203.210388 262.302419 
L 203.344876 262.095104 
L 203.479364 268.556305 
L 203.613853 267.250807 
L 204.017317 256.418083 
L 204.151805 226.145299 
L 204.286294 162.392398 
L 204.420782 163.47289 
L 204.55527 154.143789 
L 204.689758 174.041537 
L 204.824246 164.894171 
L 204.958735 183.510961 
L 205.093223 180.738869 
L 205.227711 215.908285 
L 205.362199 208.374922 
L 205.631176 238.745723 
L 205.900152 266.440485 
L 206.03464 265.542148 
L 206.169129 258.558739 
L 206.303617 262.258282 
L 206.438105 286.037759 
L 206.572593 274.345908 
L 206.707081 278.045917 
L 206.976058 277.624875 
L 207.110546 275.076529 
L 207.379522 243.498912 
L 207.648499 251.917985 
L 207.782987 256.384202 
L 208.051964 269.658192 
L 208.186452 262.492634 
L 208.455428 241.001075 
L 208.724405 259.664809 
L 208.858893 259.841069 
L 208.993381 271.324621 
L 209.127869 271.091154 
L 209.262357 276.536236 
L 209.531334 271.534758 
L 209.665822 258.167865 
L 209.80031 265.958167 
L 209.934799 264.342802 
L 210.203775 267.990508 
L 210.472751 229.284978 
L 210.741728 144.675475 
L 210.876216 144.201957 
L 211.010704 121.532939 
L 211.145192 123.895277 
L 211.279681 113.653789 
L 211.414169 135.100334 
L 211.548657 138.334953 
L 211.952122 218.137495 
L 212.221098 249.201729 
L 212.355586 261.5223 
L 212.624563 258.7794 
L 212.893539 267.553861 
L 213.028027 270.306442 
L 213.162516 265.350285 
L 213.297004 264.748847 
L 213.431492 269.385776 
L 213.700468 215.446471 
L 213.969445 119.002151 
L 214.103933 114.66714 
L 214.238421 131.525947 
L 214.507398 135.188867 
L 214.641886 146.203946 
L 215.448815 265.803401 
L 215.583303 265.369372 
L 215.717792 259.100455 
L 215.85228 265.767739 
L 215.986768 259.864126 
L 216.255745 263.973622 
L 216.390233 262.638469 
L 216.524721 263.829492 
L 216.659209 267.595326 
L 216.793697 254.330811 
L 216.928186 221.984088 
L 217.197162 127.992592 
L 217.33165 127.516025 
L 217.600627 144.936491 
L 217.869603 153.855032 
L 218.004091 144.604159 
L 218.407556 230.888236 
L 218.542044 232.039596 
L 218.676532 267.143046 
L 218.811021 263.483812 
L 219.079997 272.702472 
L 219.214485 251.583799 
L 219.348973 262.663593 
L 219.483462 264.047821 
L 219.752438 270.363609 
L 219.886926 271.446068 
L 220.155903 228.793103 
L 220.424879 122.108286 
L 220.559367 149.503695 
L 220.693856 149.574524 
L 220.828344 150.235789 
L 220.962832 148.872025 
L 221.09732 168.307459 
L 221.231808 162.048713 
L 221.366297 215.183889 
L 221.769761 234.373587 
L 221.904249 269.344553 
L 222.173226 264.613759 
L 222.307714 272.63019 
L 222.442202 268.248611 
L 222.576691 269.556396 
L 222.845667 274.831917 
L 222.980155 275.141248 
L 223.114643 276.447032 
L 223.249132 273.267828 
L 223.38362 275.043291 
L 223.652596 245.68039 
L 223.787084 264.983753 
L 224.190549 251.461903 
L 224.325037 253.763199 
L 224.459525 252.994056 
L 224.594014 257.816059 
L 224.728502 258.4104 
L 224.997478 254.59006 
L 225.266455 261.619854 
L 225.400943 262.293735 
L 225.535431 259.426234 
L 225.669919 261.158206 
L 225.804408 260.990199 
L 225.938896 259.264506 
L 226.073384 264.760677 
L 226.207872 265.675413 
L 226.34236 269.168136 
L 226.476849 268.542354 
L 226.611337 268.543768 
L 227.014802 264.056111 
L 227.14929 270.436649 
L 227.418266 267.309699 
L 227.552754 263.244518 
L 227.821731 268.378855 
L 227.956219 268.377057 
L 228.090707 267.433755 
L 228.225195 267.62334 
L 228.359684 275.133872 
L 228.494172 272.932839 
L 228.62866 274.332493 
L 228.763148 267.34452 
L 228.897637 270.449411 
L 229.032125 269.017098 
L 229.166613 264.145818 
L 229.435589 267.850389 
L 229.570078 267.887679 
L 229.704566 251.601398 
L 230.242519 97.566392 
L 230.377007 94.633113 
L 230.511495 102.250872 
L 230.645983 90.338147 
L 230.780471 163.432048 
L 230.91496 145.568747 
L 231.587401 254.332444 
L 231.721889 253.648114 
L 231.990865 264.230725 
L 232.125354 264.201697 
L 232.259842 265.710902 
L 232.39433 263.996483 
L 232.663306 268.274946 
L 232.797795 264.420871 
L 232.932283 246.674505 
L 233.470236 111.258234 
L 233.604724 115.192731 
L 233.739212 129.532474 
L 233.8737 129.913398 
L 234.008189 141.906914 
L 234.142677 127.735131 
L 234.546141 221.036882 
L 234.68063 228.840083 
L 234.815118 261.568797 
L 234.949606 265.928531 
L 235.084094 264.357994 
L 235.218583 261.080262 
L 235.353071 266.438616 
L 235.487559 263.819327 
L 235.756535 274.533338 
L 236.025512 268.617166 
L 236.294488 225.068227 
L 236.563465 119.499491 
L 236.697953 110.653277 
L 236.966929 122.762474 
L 237.101417 115.362556 
L 237.504882 163.311628 
L 237.773859 231.1458 
L 237.908347 241.075802 
L 238.177323 265.052522 
L 238.4463 264.091066 
L 238.580788 266.278285 
L 238.715276 265.21599 
L 238.849764 268.20456 
L 239.118741 277.71366 
L 239.253229 272.397345 
L 239.387717 258.481809 
L 239.791182 124.47292 
L 240.060158 116.295565 
L 240.194646 131.283964 
L 240.329135 132.689764 
L 240.463623 143.682943 
L 240.867087 209.41818 
L 241.001576 216.98736 
L 241.270552 261.205293 
L 241.40504 255.821726 
L 241.539529 261.539741 
L 241.674017 257.427243 
L 241.808505 259.221938 
L 241.942993 256.144862 
L 242.077481 275.786318 
L 242.21197 269.72616 
L 242.346458 280.925354 
L 242.480946 272.639364 
L 242.615434 254.466546 
L 243.018899 123.745776 
L 243.153387 130.972188 
L 243.287875 150.709598 
L 243.422363 148.067121 
L 243.556852 140.817887 
L 243.69134 154.952847 
L 243.825828 154.48948 
L 244.229293 248.461537 
L 244.363781 246.396239 
L 244.632757 261.558481 
L 244.901734 267.972659 
L 245.036222 266.772405 
L 245.305198 272.928254 
L 245.439687 271.981129 
L 245.574175 272.59106 
L 245.708663 271.6565 
L 245.843151 269.199753 
L 245.97764 247.980072 
L 246.112128 267.576308 
L 246.246616 261.598024 
L 246.381104 260.953913 
L 246.650081 255.513237 
L 246.784569 258.195811 
L 246.919057 263.303531 
L 247.053545 263.209615 
L 247.188033 266.652037 
L 247.322522 265.876908 
L 247.45701 269.164103 
L 247.591498 268.334274 
L 247.725986 269.294418 
L 247.860475 268.282178 
L 247.994963 272.453173 
L 248.129451 269.224861 
L 248.398427 271.060415 
L 248.532916 269.739126 
L 248.667404 270.938922 
L 248.801892 270.354112 
L 248.93638 273.002575 
L 249.205357 270.882443 
L 249.474333 273.467622 
L 249.877798 271.423731 
L 250.012286 272.393604 
L 250.146774 271.686116 
L 250.415751 267.622683 
L 250.550239 270.970039 
L 250.684727 270.394757 
L 250.819215 269.290484 
L 250.953703 270.02393 
L 251.088192 270.082058 
L 251.22268 271.150436 
L 251.357168 263.658344 
L 251.491656 266.955619 
L 251.626144 265.825372 
L 251.760633 284.55184 
L 251.895121 275.750388 
L 252.029609 276.936364 
L 252.164097 274.557495 
L 252.433074 232.88407 
L 252.70205 124.715262 
L 252.836538 121.184983 
L 252.971027 131.229627 
L 253.105515 152.799425 
L 253.240003 147.939898 
L 253.374491 155.979786 
L 254.181421 264.678662 
L 254.315909 262.747385 
L 254.584885 278.577398 
L 254.719373 276.34401 
L 254.853862 276.161383 
L 254.98835 281.81769 
L 255.122838 277.780849 
L 255.257326 280.42596 
L 255.391814 279.17745 
L 255.660791 225.281188 
L 255.929767 131.085775 
L 256.064255 161.659663 
L 256.46772 154.752993 
L 256.871185 180.938718 
L 257.140161 238.678164 
L 257.274649 240.098807 
L 257.409138 257.919928 
L 257.543626 257.838448 
L 257.678114 265.633243 
L 257.812602 259.573548 
L 257.94709 262.246718 
L 258.081579 259.938242 
L 258.216067 279.716758 
L 258.485043 276.20154 
L 258.619532 272.054834 
L 258.888508 226.133646 
L 259.157484 131.045652 
L 259.291973 169.278528 
L 259.426461 158.992501 
L 259.560949 160.50811 
L 259.695437 149.286078 
L 259.964414 181.226134 
L 260.098902 163.766769 
L 260.367878 228.679733 
L 260.502366 236.984402 
L 260.636855 255.818324 
L 261.040319 263.923629 
L 261.174808 258.525989 
L 261.309296 258.196531 
L 261.443784 267.571918 
L 261.578272 264.166124 
L 261.71276 269.564299 
L 261.981737 255.215877 
L 262.385201 132.834405 
L 262.51969 164.309455 
L 262.788666 145.104089 
L 262.923154 146.642822 
L 263.057643 159.266869 
L 263.192131 150.400387 
L 263.461107 211.663861 
L 263.864572 251.137721 
L 264.133548 257.625899 
L 264.268036 257.665174 
L 264.402525 256.536283 
L 264.537013 266.706538 
L 264.671501 256.582975 
L 264.805989 261.99528 
L 265.074966 258.119498 
L 265.209454 249.050723 
L 265.881895 109.064438 
L 266.150871 112.855372 
L 266.28536 121.835579 
L 266.419848 120.908835 
L 266.688824 155.512913 
L 267.092289 251.501213 
L 267.226777 251.924146 
L 267.361265 253.607054 
L 267.495754 260.876974 
L 267.630242 255.713289 
L 267.76473 273.140512 
L 267.899218 265.705882 
L 268.033706 268.221543 
L 268.168195 266.570544 
L 268.437171 272.924453 
L 268.571659 271.512017 
L 268.706147 265.842579 
L 268.840636 273.652215 
L 268.975124 272.125189 
L 269.109612 267.116013 
L 269.2441 268.177837 
L 269.513077 266.332376 
L 269.782053 256.793144 
L 269.916541 256.664895 
L 270.05103 257.093484 
L 270.185518 255.174018 
L 270.454494 258.337569 
L 270.588982 259.547933 
L 270.723471 263.153868 
L 270.857959 263.387946 
L 270.992447 279.202329 
L 271.261424 272.848859 
L 271.395912 273.748658 
L 271.5304 273.355716 
L 271.664888 272.529499 
L 271.799376 272.758897 
L 271.933865 273.613475 
L 272.068353 276.742376 
L 272.202841 272.448441 
L 272.337329 274.253705 
L 272.471817 272.922258 
L 272.606306 274.270663 
L 272.740794 272.311977 
L 272.875282 268.368275 
L 273.144258 272.17465 
L 273.278747 271.783615 
L 273.413235 268.880105 
L 273.547723 269.789176 
L 273.8167 273.370081 
L 273.951188 268.290045 
L 274.085676 269.66048 
L 274.220164 267.215473 
L 274.354652 290.817373 
L 274.489141 284.046381 
L 274.623629 284.946049 
L 274.758117 278.870402 
L 274.892605 261.380797 
L 275.430558 158.94216 
L 275.565046 148.541863 
L 275.699535 154.495824 
L 275.834023 151.467614 
L 275.968511 152.56714 
L 276.506464 244.749998 
L 276.640952 247.267529 
L 276.909928 264.277137 
L 277.044417 269.266268 
L 277.178905 269.433724 
L 277.313393 274.202662 
L 277.447881 270.383995 
L 277.58237 279.748869 
L 277.716858 277.133097 
L 277.851346 281.273303 
L 277.985834 279.205161 
L 278.120322 273.239338 
L 278.254811 257.043659 
L 278.523787 200.53852 
L 278.658275 201.900586 
L 278.792763 186.351506 
L 278.927252 188.387324 
L 279.06174 171.387377 
L 279.196228 201.785513 
L 279.330716 203.689754 
L 280.272134 271.731989 
L 280.406622 272.279255 
L 280.54111 272.13359 
L 280.675598 251.210729 
L 280.810087 257.58836 
L 280.944575 258.477682 
L 281.079063 260.99564 
L 281.213551 258.928428 
L 281.482528 237.077296 
L 281.751504 123.045718 
L 281.885992 130.345433 
L 282.020481 113.209012 
L 282.289457 137.693757 
L 282.423945 146.218912 
L 282.558433 116.987337 
L 283.230874 256.746254 
L 283.365363 259.877391 
L 283.499851 260.223314 
L 283.634339 258.867012 
L 283.768827 259.035649 
L 283.903316 254.826988 
L 284.172292 255.304895 
L 284.30678 257.263217 
L 284.441268 256.137354 
L 284.575757 246.589875 
L 284.710245 226.131459 
L 284.979221 145.526408 
L 285.113709 146.161234 
L 285.248198 148.615279 
L 285.382686 136.53058 
L 285.517174 155.141196 
L 285.651662 152.733411 
L 285.78615 171.197412 
L 285.920639 153.254167 
L 286.458592 252.302687 
L 286.59308 259.014561 
L 286.727568 258.974426 
L 286.862056 261.337286 
L 286.996544 255.188867 
L 287.131033 289.141948 
L 287.265521 273.231149 
L 287.668985 266.808109 
L 287.937962 246.471019 
L 288.206938 269.119117 
L 288.341427 271.132929 
L 288.475915 265.829017 
L 288.610403 267.931491 
L 288.744891 262.390012 
L 288.879379 261.538614 
L 289.013868 243.758763 
L 289.148356 247.226843 
L 289.282844 260.015307 
L 289.417332 258.399334 
L 289.55182 270.423635 
L 289.686309 270.302148 
L 289.820797 271.328303 
L 289.955285 269.093063 
L 290.224262 274.124054 
L 290.35875 271.898423 
L 290.493238 274.620224 
L 290.627726 272.706016 
L 290.762214 274.445213 
L 290.896703 271.865511 
L 291.031191 262.092042 
L 291.165679 262.427685 
L 291.300167 242.520214 
L 291.434655 166.828903 
L 291.703632 178.366629 
L 291.972608 187.119383 
L 292.241585 171.922 
L 292.779538 245.652683 
L 293.048514 267.903665 
L 293.183002 267.356315 
L 293.31749 269.633058 
L 293.451979 268.337925 
L 293.586467 265.936279 
L 293.720955 267.034471 
L 293.855443 265.393518 
L 293.989931 269.09007 
L 294.12442 268.293592 
L 294.258908 256.275656 
L 294.393396 255.766829 
L 294.527884 226.393297 
L 294.662373 165.6104 
L 294.796861 174.820693 
L 294.931349 153.026482 
L 295.065837 154.764915 
L 295.200325 139.994049 
L 295.334814 139.746262 
L 295.60379 151.161091 
L 295.738278 213.174476 
L 295.872766 212.107641 
L 296.276231 264.709965 
L 296.410719 262.406229 
L 296.545208 254.561238 
L 296.679696 264.505252 
L 296.814184 289.707184 
L 296.948672 277.137721 
L 297.08316 277.935188 
L 297.217649 274.613974 
L 297.352137 275.266208 
L 297.486625 264.087054 
L 297.621113 263.478605 
L 297.89009 283.314288 
L 298.024578 282.973824 
L 298.293554 276.958847 
L 298.428042 278.958935 
L 298.562531 275.584717 
L 298.831507 243.142456 
L 299.100484 263.047855 
L 299.36946 265.365734 
L 299.503948 270.979418 
L 299.638436 271.026298 
L 299.772925 268.699439 
L 299.907413 272.227195 
L 300.041901 248.796081 
L 300.176389 265.831022 
L 300.310877 261.35309 
L 300.445366 265.534221 
L 300.579854 263.193984 
L 301.252295 138.704869 
L 301.521271 126.317052 
L 301.65576 124.853536 
L 301.790248 135.63046 
L 301.924736 130.793487 
L 302.328201 220.216662 
L 302.462689 229.214783 
L 302.731665 259.315004 
L 302.866153 259.22366 
L 303.000642 256.094338 
L 303.13513 265.436126 
L 303.269618 265.247584 
L 303.404106 261.161355 
L 303.538595 260.490065 
L 303.673083 263.986499 
L 303.807571 262.519461 
L 303.942059 221.712252 
L 304.076547 217.936889 
L 304.345524 140.131338 
L 304.480012 160.184781 
L 304.6145 154.082505 
L 304.748988 153.735311 
L 304.883477 147.987489 
L 305.017965 154.020307 
L 305.152453 147.88354 
L 305.286941 167.686768 
L 305.555918 234.482189 
L 305.690406 231.593683 
L 305.959382 261.683145 
L 306.093871 264.088131 
L 306.228359 259.249493 
L 306.362847 263.659053 
L 306.497335 260.432556 
L 306.631823 276.133053 
L 306.766312 270.948759 
L 306.9008 270.809056 
L 307.035288 269.31055 
L 307.304265 217.615658 
L 307.573241 129.60587 
L 307.707729 164.451694 
L 307.842217 162.181501 
L 308.111194 151.412551 
L 308.245682 156.82801 
L 308.38017 151.630058 
L 308.514658 168.456378 
L 308.783635 231.613397 
L 309.187099 266.83491 
L 309.321588 267.054497 
L 309.456076 266.532142 
L 309.590564 269.06686 
L 309.725052 267.625905 
L 309.859541 270.685886 
L 309.994029 267.705227 
L 310.128517 268.916872 
L 310.263005 266.216911 
L 310.531982 213.870548 
L 310.800958 131.149526 
L 311.069934 164.245879 
L 311.204423 161.739099 
L 311.338911 152.25732 
L 311.607887 159.782917 
L 311.742376 157.22146 
L 312.011352 249.060914 
L 312.14584 237.696588 
L 312.414817 264.808806 
L 312.549305 263.461975 
L 313.087258 269.752843 
L 313.221746 267.776681 
L 313.356234 270.12529 
L 313.490722 268.832982 
L 313.625211 269.072007 
L 314.028675 245.87321 
L 314.163163 259.757886 
L 314.297652 253.129105 
L 314.43214 257.069144 
L 314.566628 251.103487 
L 314.701116 263.373679 
L 314.970093 259.690604 
L 315.239069 266.692828 
L 315.508045 264.732496 
L 315.642534 267.754801 
L 315.777022 267.33323 
L 315.91151 267.81207 
L 316.045998 267.029737 
L 316.180487 268.686357 
L 316.314975 268.811056 
L 316.449463 270.128064 
L 316.583951 268.928623 
L 316.718439 270.057924 
L 316.852928 268.050273 
L 317.121904 271.457959 
L 317.256392 269.182328 
L 317.39088 270.234801 
L 317.525369 267.115473 
L 317.659857 269.163691 
L 317.794345 266.285851 
L 317.928833 269.362738 
L 318.063322 263.327842 
L 318.466786 265.277417 
L 318.601274 263.154659 
L 318.735763 264.951095 
L 318.870251 264.073221 
L 319.004739 266.437515 
L 319.139227 257.575375 
L 319.273715 260.012342 
L 319.408204 259.528165 
L 319.542692 280.056658 
L 319.67718 271.84121 
L 319.811668 272.394331 
L 319.946157 270.221147 
L 320.215133 232.571614 
L 320.484109 127.91807 
L 320.753086 123.3806 
L 320.887574 137.384069 
L 321.022062 138.485814 
L 321.15655 143.165334 
L 321.291039 155.052605 
L 321.96348 265.334793 
L 322.097968 263.232229 
L 322.232456 263.989385 
L 322.366944 260.842056 
L 322.501433 265.390542 
L 322.635921 262.637271 
L 322.770409 281.081658 
L 322.904897 274.60379 
L 323.039385 273.995021 
L 323.173874 269.45199 
L 323.308362 236.217254 
L 323.44285 238.068234 
L 323.711826 131.764793 
L 323.980803 167.596019 
L 324.249779 148.36977 
L 324.518756 154.373527 
L 324.653244 165.602973 
L 324.92222 224.898283 
L 325.056709 234.456204 
L 325.191197 263.450418 
L 325.325685 262.832303 
L 325.594661 260.07176 
L 325.72915 264.567759 
L 325.863638 262.867665 
L 325.998126 276.526034 
L 326.132614 274.143616 
L 326.267103 275.10068 
L 326.401591 271.16055 
L 326.670567 229.60736 
L 326.939544 124.393977 
L 327.20852 168.064924 
L 327.477496 153.150681 
L 327.611985 159.63478 
L 327.746473 159.448406 
L 327.880961 166.573914 
L 328.149937 241.984137 
L 328.284426 238.867551 
L 328.553402 261.24943 
L 328.956867 268.429059 
L 329.091355 266.807745 
L 329.225843 283.20612 
L 329.360331 274.77626 
L 329.49482 275.457824 
L 329.629308 269.822034 
L 329.763796 237.773307 
L 329.898284 236.32602 
L 330.167261 138.920355 
L 330.436237 166.519875 
L 330.705214 154.738829 
L 330.839702 154.872316 
L 331.781119 262.33315 
L 331.915607 262.314465 
L 332.050096 260.661743 
L 332.184584 261.230147 
L 332.319072 265.367518 
L 332.45356 281.670479 
L 332.722537 271.06795 
L 332.857025 270.368956 
L 333.394978 133.917602 
L 333.663954 173.763016 
L 333.932931 157.18146 
L 334.067419 158.581868 
L 334.201907 164.957153 
L 334.874348 263.808359 
L 335.008836 262.697166 
L 335.143325 264.645196 
L 335.412301 270.827798 
L 335.546789 268.497061 
L 335.950254 268.09165 
L 336.084742 269.472405 
L 336.21923 268.663999 
L 336.891671 251.798095 
L 337.02616 255.385439 
L 337.160648 251.009605 
L 337.295136 257.620372 
L 337.429624 257.491362 
L 337.833089 264.716665 
L 337.967577 264.546263 
L 338.102065 263.371516 
L 338.236553 267.275617 
L 338.371042 267.106047 
L 338.50553 266.401789 
L 338.640018 267.049528 
L 338.774506 263.629421 
L 339.043483 266.65403 
L 339.177971 266.764873 
L 339.312459 267.579701 
L 339.446947 266.700896 
L 339.715924 270.339431 
L 339.9849 266.927384 
L 340.119388 268.220823 
L 340.253877 266.741614 
L 340.388365 267.140917 
L 340.522853 266.333273 
L 340.657341 269.852786 
L 340.791829 262.234671 
L 341.060806 267.224272 
L 341.195294 267.22173 
L 341.329782 262.851908 
L 341.598759 269.452897 
L 341.733247 264.006331 
L 341.867735 264.561893 
L 342.002223 266.970471 
L 342.136712 281.873023 
L 342.2712 274.654205 
L 342.405688 274.043634 
L 342.540176 272.13763 
L 342.674664 236.038478 
L 342.809153 238.390215 
L 343.078129 129.114405 
L 343.212617 132.226005 
L 343.347106 160.856087 
L 343.481594 164.903787 
L 343.616082 156.878972 
L 343.885058 172.628405 
L 344.288523 217.948823 
L 344.423011 257.336347 
L 344.557499 264.111157 
L 344.691988 260.637547 
L 344.826476 260.825424 
L 344.960964 268.051382 
L 345.095452 268.0757 
L 345.22994 265.571276 
L 345.364429 279.269451 
L 345.498917 273.137578 
L 345.633405 274.672749 
L 345.767893 269.65534 
L 346.03687 229.605866 
L 346.305846 139.545877 
L 346.440334 175.479334 
L 346.574823 168.16384 
L 346.709311 168.034685 
L 346.843799 159.898513 
L 346.978287 164.717424 
L 347.247264 186.227924 
L 347.785217 259.033502 
L 348.323169 268.033666 
L 348.457658 263.989363 
L 348.592146 280.099116 
L 348.726634 273.222274 
L 348.861122 276.05195 
L 348.99561 271.091288 
L 349.533563 139.251051 
L 349.668052 170.166357 
L 349.80254 160.670134 
L 349.937028 162.691541 
L 350.071516 156.032149 
L 350.206004 158.581138 
L 350.340493 165.948804 
L 350.609469 205.494527 
L 350.743957 241.959807 
L 350.878445 246.539203 
L 351.147422 263.025876 
L 351.28191 268.583942 
L 351.416398 263.363195 
L 351.550886 268.283687 
L 351.685375 266.578997 
L 351.819863 282.69041 
L 351.954351 272.792381 
L 352.088839 273.626034 
L 352.223328 269.320901 
L 352.492304 240.733509 
L 352.76128 135.672122 
L 352.895769 173.615285 
L 353.030257 165.432895 
L 353.164745 167.429213 
L 353.299233 157.891941 
L 353.56821 164.596938 
L 353.702698 162.611587 
L 353.837186 163.560309 
L 354.106163 255.229243 
L 354.240651 254.911386 
L 354.375139 267.213982 
L 354.509627 269.051536 
L 354.644115 266.924954 
L 354.778604 267.859264 
L 355.04758 275.500916 
L 355.182068 273.185335 
L 355.316556 273.951963 
L 355.451045 269.824363 
L 355.720021 235.168107 
L 355.988998 167.82092 
L 356.123486 176.056278 
L 356.392462 154.233848 
L 356.52695 153.601202 
L 356.661439 165.311317 
L 356.795927 162.177891 
L 357.064903 199.790946 
L 357.199391 250.257569 
L 357.33388 246.172852 
L 357.602856 273.500899 
L 357.737344 270.237395 
L 357.871832 273.197449 
L 358.006321 273.515745 
L 358.140809 277.716093 
L 358.275297 275.155962 
L 358.409785 275.414725 
L 358.544274 276.017652 
L 358.678762 275.406497 
L 358.81325 272.148392 
L 358.947738 273.060991 
L 359.216715 252.57273 
L 359.351203 250.000976 
L 359.485691 254.041362 
L 359.620179 252.919224 
L 359.754667 242.898556 
L 359.889156 268.002568 
L 360.158132 258.4983 
L 360.561597 274.612453 
L 360.696085 272.144375 
L 360.830573 272.704855 
L 361.234038 276.115459 
L 361.503014 275.435829 
L 361.637502 275.1343 
L 361.771991 276.560664 
L 361.906479 274.151184 
L 362.040967 274.720505 
L 362.175455 277.482219 
L 362.444432 275.469986 
L 362.57892 275.841513 
L 362.713408 272.720337 
L 362.847896 272.782872 
L 362.982385 273.764504 
L 363.251361 271.447655 
L 363.385849 271.000098 
L 363.654826 273.458526 
L 363.789314 271.944563 
L 363.923802 272.190099 
L 364.05829 273.33595 
L 364.192778 269.792792 
L 364.327267 271.086622 
L 364.461755 212.011783 
L 364.596243 244.412042 
L 364.730731 244.646312 
L 364.999708 252.890783 
L 365.403172 185.140744 
L 365.672149 115.720175 
L 365.806637 102.766349 
L 365.941125 107.466512 
L 366.075613 105.357919 
L 366.210102 94.576624 
L 366.479078 122.174936 
L 366.613566 137.668325 
L 367.151519 249.190959 
L 367.420496 258.699902 
L 367.554984 250.759065 
L 367.689472 264.274561 
L 367.958448 260.899402 
L 368.092937 264.40206 
L 368.227425 261.001631 
L 368.361913 205.175391 
L 368.496401 214.425825 
L 368.899866 95.852721 
L 369.034354 99.342891 
L 369.303331 78.140919 
L 369.437819 86.835738 
L 369.572307 114.091944 
L 369.706795 114.238035 
L 369.841283 129.050862 
L 370.244748 249.031273 
L 370.379236 236.498938 
L 370.648213 259.359842 
L 370.782701 260.641789 
L 370.917189 289.269376 
L 371.051677 274.702516 
L 371.186166 274.074973 
L 371.320654 272.50366 
L 371.455142 268.218105 
L 371.993095 130.731192 
L 372.396559 196.977389 
L 372.531048 183.761073 
L 372.800024 194.362107 
L 372.934512 188.835896 
L 373.203489 250.286089 
L 373.337977 241.785871 
L 373.606953 264.05543 
L 373.741442 261.454657 
L 373.87593 264.974821 
L 374.010418 264.496001 
L 374.279394 289.315089 
L 374.413883 281.683389 
L 374.548371 282.896579 
L 374.682859 274.277587 
L 374.817347 241.541451 
L 374.951836 237.990112 
L 375.220812 174.421152 
L 375.489788 165.059209 
L 375.758765 176.919699 
L 375.893253 179.135921 
L 376.296718 220.912043 
L 376.431206 247.222456 
L 376.565694 245.071592 
L 376.700182 263.291812 
L 376.83467 265.494136 
L 377.103647 263.409674 
L 377.238135 264.522296 
L 377.372623 283.952075 
L 377.507112 271.23723 
L 377.6416 273.951239 
L 377.776088 273.150212 
L 378.179553 253.87152 
L 378.314041 272.712804 
L 378.448529 253.321202 
L 378.583017 261.997738 
L 378.717505 234.703851 
L 378.851994 255.046135 
L 378.986482 250.192221 
L 379.12097 258.150837 
L 379.389947 242.383365 
L 379.658923 261.392929 
L 379.927899 269.264262 
L 380.062388 270.216358 
L 380.331364 274.073287 
L 380.465852 274.589412 
L 380.60034 260.688706 
L 380.869317 267.614109 
L 381.003805 269.705458 
L 381.138293 269.129299 
L 381.272782 252.865152 
L 381.40727 254.677649 
L 381.676246 134.865321 
L 381.945223 144.685722 
L 382.214199 140.34345 
L 382.483175 146.621674 
L 382.617664 144.242132 
L 382.88664 206.470657 
L 383.155616 261.623851 
L 383.290105 263.094387 
L 383.424593 267.387716 
L 383.693569 266.776427 
L 383.828058 259.010287 
L 384.097034 260.776087 
L 384.36601 262.714487 
L 384.500499 257.100993 
L 384.634987 259.805222 
L 384.903963 162.938647 
L 385.17294 157.370974 
L 385.307428 138.787053 
L 385.441916 147.303743 
L 385.576404 178.43801 
L 385.710893 171.578411 
L 385.845381 184.463424 
L 385.979869 223.421113 
L 386.114357 226.388624 
L 386.383334 263.892638 
L 386.517822 267.315373 
L 386.65231 267.255897 
L 386.786798 270.880643 
L 386.921286 264.616048 
L 387.055775 278.986056 
L 387.324751 270.069579 
L 387.459239 272.166862 
L 387.728216 252.494842 
L 387.997192 273.568116 
L 388.13168 280.108843 
L 388.266169 275.117217 
L 388.400657 265.854015 
L 388.535145 275.029647 
L 388.669633 273.537165 
L 388.93861 250.582854 
L 389.073098 255.016091 
L 389.207586 254.293452 
L 389.342074 269.589216 
L 389.476562 271.099087 
L 389.745539 281.817385 
L 389.880027 276.653673 
L 390.014515 278.757363 
L 390.149004 277.179077 
L 390.283492 243.48379 
L 390.41798 258.071393 
L 390.552468 257.91502 
L 390.686956 261.638239 
L 390.821445 253.068053 
L 390.955933 226.618437 
L 391.090421 242.883912 
L 391.224909 232.028556 
L 391.359397 155.336915 
L 391.493886 179.523201 
L 391.628374 141.88261 
L 391.762862 160.016323 
L 391.89735 162.198526 
L 392.031839 172.811441 
L 392.300815 168.48559 
L 392.838768 265.828513 
L 392.973256 270.352939 
L 393.107744 267.619045 
L 393.242232 267.875251 
L 393.376721 265.057351 
L 393.511209 251.111224 
L 393.645697 254.433368 
L 393.780185 265.266848 
L 393.914673 264.027359 
L 394.318138 229.545123 
L 394.587115 153.85614 
L 394.721603 152.864132 
L 394.856091 149.632633 
L 394.990579 142.993153 
L 395.125067 143.852382 
L 395.259556 140.537749 
L 395.394044 143.02592 
L 395.66302 176.699809 
L 395.797508 233.890426 
L 395.931997 233.941131 
L 396.200973 261.952931 
L 396.46995 260.373214 
L 396.604438 249.128753 
L 396.738926 295.488 
L 396.873414 275.858818 
L 397.007902 278.353664 
L 397.142391 275.420264 
L 397.276879 269.004645 
L 397.411367 243.844728 
L 397.545855 245.20763 
L 397.814832 156.135698 
L 397.94932 177.408356 
L 398.083808 155.809555 
L 398.218296 166.637793 
L 398.352785 148.667846 
L 398.487273 162.255889 
L 398.487273 162.255889 
" clip-path="url(#p79c7a8b0e5)" style="fill: none; stroke: #ff7f0e; stroke-width: 1.5; stroke-linecap: square"/>
   </g>
   <g id="patch_3">
    <path d="M 57.6 307.584 
L 57.6 41.472 
" style="fill: none; stroke: #000000; stroke-width: 0.8; stroke-linejoin: miter; stroke-linecap: square"/>
   </g>
   <g id="patch_4">
    <path d="M 414.72 307.584 
L 414.72 41.472 
" style="fill: none; stroke: #000000; stroke-width: 0.8; stroke-linejoin: miter; stroke-linecap: square"/>
   </g>
   <g id="patch_5">
    <path d="M 57.6 307.584 
L 414.72 307.584 
" style="fill: none; stroke: #000000; stroke-width: 0.8; stroke-linejoin: miter; stroke-linecap: square"/>
   </g>
   <g id="patch_6">
    <path d="M 57.6 41.472 
L 414.72 41.472 
" style="fill: none; stroke: #000000; stroke-width: 0.8; stroke-linejoin: miter; stroke-linecap: square"/>
   </g>
  </g>
 </g>
 <defs>
  <clipPath id="p79c7a8b0e5">
   <rect x="57.6" y="41.472" width="357.12" height="266.112"/>
  </clipPath>
 </defs>
</svg>
