<?xml version="1.0" encoding="utf-8" standalone="no"?>
<!DOCTYPE svg PUBLIC "-//W3C//DTD SVG 1.1//EN"
  "http://www.w3.org/Graphics/SVG/1.1/DTD/svg11.dtd">
<svg xmlns:xlink="http://www.w3.org/1999/xlink" width="460.8pt" height="345.6pt" viewBox="0 0 460.8 345.6" xmlns="http://www.w3.org/2000/svg" version="1.1">
 <metadata>
  <rdf:RDF xmlns:dc="http://purl.org/dc/elements/1.1/" xmlns:cc="http://creativecommons.org/ns#" xmlns:rdf="http://www.w3.org/1999/02/22-rdf-syntax-ns#">
   <cc:Work>
    <dc:type rdf:resource="http://purl.org/dc/dcmitype/StillImage"/>
    <dc:date>2023-04-04T06:27:24.514935</dc:date>
    <dc:format>image/svg+xml</dc:format>
    <dc:creator>
     <cc:Agent>
      <dc:title>Matplotlib v3.5.2, https://matplotlib.org/</dc:title>
     </cc:Agent>
    </dc:creator>
   </cc:Work>
  </rdf:RDF>
 </metadata>
 <defs>
  <style type="text/css">*{stroke-linejoin: round; stroke-linecap: butt}</style>
 </defs>
 <g id="figure_1">
  <g id="patch_1">
   <path d="M 0 345.6 
L 460.8 345.6 
L 460.8 0 
L 0 0 
z
" style="fill: #ffffff"/>
  </g>
  <g id="axes_1">
   <g id="patch_2">
    <path d="M 57.6 307.584 
L 414.72 307.584 
L 414.72 41.472 
L 57.6 41.472 
z
" style="fill: #ffffff"/>
   </g>
   <g id="matplotlib.axis_1">
    <g id="xtick_1">
     <g id="line2d_1">
      <defs>
       <path id="m4ec378d8a3" d="M 0 0 
L 0 3.5 
" style="stroke: #000000; stroke-width: 0.8"/>
      </defs>
      <g>
       <use xlink:href="#m4ec378d8a3" x="73.832727" y="307.584" style="stroke: #000000; stroke-width: 0.8"/>
      </g>
     </g>
     <g id="text_1">
      <!-- 0 -->
      <g transform="translate(70.651477 322.182437)scale(0.1 -0.1)">
       <defs>
        <path id="DejaVuSans-30" d="M 2034 4250 
Q 1547 4250 1301 3770 
Q 1056 3291 1056 2328 
Q 1056 1369 1301 889 
Q 1547 409 2034 409 
Q 2525 409 2770 889 
Q 3016 1369 3016 2328 
Q 3016 3291 2770 3770 
Q 2525 4250 2034 4250 
z
M 2034 4750 
Q 2819 4750 3233 4129 
Q 3647 3509 3647 2328 
Q 3647 1150 3233 529 
Q 2819 -91 2034 -91 
Q 1250 -91 836 529 
Q 422 1150 422 2328 
Q 422 3509 836 4129 
Q 1250 4750 2034 4750 
z
" transform="scale(0.015625)"/>
       </defs>
       <use xlink:href="#DejaVuSans-30"/>
      </g>
     </g>
    </g>
    <g id="xtick_2">
     <g id="line2d_2">
      <g>
       <use xlink:href="#m4ec378d8a3" x="141.076834" y="307.584" style="stroke: #000000; stroke-width: 0.8"/>
      </g>
     </g>
     <g id="text_2">
      <!-- 500 -->
      <g transform="translate(131.533084 322.182437)scale(0.1 -0.1)">
       <defs>
        <path id="DejaVuSans-35" d="M 691 4666 
L 3169 4666 
L 3169 4134 
L 1269 4134 
L 1269 2991 
Q 1406 3038 1543 3061 
Q 1681 3084 1819 3084 
Q 2600 3084 3056 2656 
Q 3513 2228 3513 1497 
Q 3513 744 3044 326 
Q 2575 -91 1722 -91 
Q 1428 -91 1123 -41 
Q 819 9 494 109 
L 494 744 
Q 775 591 1075 516 
Q 1375 441 1709 441 
Q 2250 441 2565 725 
Q 2881 1009 2881 1497 
Q 2881 1984 2565 2268 
Q 2250 2553 1709 2553 
Q 1456 2553 1204 2497 
Q 953 2441 691 2322 
L 691 4666 
z
" transform="scale(0.015625)"/>
       </defs>
       <use xlink:href="#DejaVuSans-35"/>
       <use xlink:href="#DejaVuSans-30" x="63.623047"/>
       <use xlink:href="#DejaVuSans-30" x="127.246094"/>
      </g>
     </g>
    </g>
    <g id="xtick_3">
     <g id="line2d_3">
      <g>
       <use xlink:href="#m4ec378d8a3" x="208.32094" y="307.584" style="stroke: #000000; stroke-width: 0.8"/>
      </g>
     </g>
     <g id="text_3">
      <!-- 1000 -->
      <g transform="translate(195.59594 322.182437)scale(0.1 -0.1)">
       <defs>
        <path id="DejaVuSans-31" d="M 794 531 
L 1825 531 
L 1825 4091 
L 703 3866 
L 703 4441 
L 1819 4666 
L 2450 4666 
L 2450 531 
L 3481 531 
L 3481 0 
L 794 0 
L 794 531 
z
" transform="scale(0.015625)"/>
       </defs>
       <use xlink:href="#DejaVuSans-31"/>
       <use xlink:href="#DejaVuSans-30" x="63.623047"/>
       <use xlink:href="#DejaVuSans-30" x="127.246094"/>
       <use xlink:href="#DejaVuSans-30" x="190.869141"/>
      </g>
     </g>
    </g>
    <g id="xtick_4">
     <g id="line2d_4">
      <g>
       <use xlink:href="#m4ec378d8a3" x="275.565046" y="307.584" style="stroke: #000000; stroke-width: 0.8"/>
      </g>
     </g>
     <g id="text_4">
      <!-- 1500 -->
      <g transform="translate(262.840046 322.182437)scale(0.1 -0.1)">
       <use xlink:href="#DejaVuSans-31"/>
       <use xlink:href="#DejaVuSans-35" x="63.623047"/>
       <use xlink:href="#DejaVuSans-30" x="127.246094"/>
       <use xlink:href="#DejaVuSans-30" x="190.869141"/>
      </g>
     </g>
    </g>
    <g id="xtick_5">
     <g id="line2d_5">
      <g>
       <use xlink:href="#m4ec378d8a3" x="342.809153" y="307.584" style="stroke: #000000; stroke-width: 0.8"/>
      </g>
     </g>
     <g id="text_5">
      <!-- 2000 -->
      <g transform="translate(330.084153 322.182437)scale(0.1 -0.1)">
       <defs>
        <path id="DejaVuSans-32" d="M 1228 531 
L 3431 531 
L 3431 0 
L 469 0 
L 469 531 
Q 828 903 1448 1529 
Q 2069 2156 2228 2338 
Q 2531 2678 2651 2914 
Q 2772 3150 2772 3378 
Q 2772 3750 2511 3984 
Q 2250 4219 1831 4219 
Q 1534 4219 1204 4116 
Q 875 4013 500 3803 
L 500 4441 
Q 881 4594 1212 4672 
Q 1544 4750 1819 4750 
Q 2544 4750 2975 4387 
Q 3406 4025 3406 3419 
Q 3406 3131 3298 2873 
Q 3191 2616 2906 2266 
Q 2828 2175 2409 1742 
Q 1991 1309 1228 531 
z
" transform="scale(0.015625)"/>
       </defs>
       <use xlink:href="#DejaVuSans-32"/>
       <use xlink:href="#DejaVuSans-30" x="63.623047"/>
       <use xlink:href="#DejaVuSans-30" x="127.246094"/>
       <use xlink:href="#DejaVuSans-30" x="190.869141"/>
      </g>
     </g>
    </g>
    <g id="xtick_6">
     <g id="line2d_6">
      <g>
       <use xlink:href="#m4ec378d8a3" x="410.053259" y="307.584" style="stroke: #000000; stroke-width: 0.8"/>
      </g>
     </g>
     <g id="text_6">
      <!-- 2500 -->
      <g transform="translate(397.328259 322.182437)scale(0.1 -0.1)">
       <use xlink:href="#DejaVuSans-32"/>
       <use xlink:href="#DejaVuSans-35" x="63.623047"/>
       <use xlink:href="#DejaVuSans-30" x="127.246094"/>
       <use xlink:href="#DejaVuSans-30" x="190.869141"/>
      </g>
     </g>
    </g>
   </g>
   <g id="matplotlib.axis_2">
    <g id="ytick_1">
     <g id="line2d_7">
      <defs>
       <path id="mceaa2d4472" d="M 0 0 
L -3.5 0 
" style="stroke: #000000; stroke-width: 0.8"/>
      </defs>
      <g>
       <use xlink:href="#mceaa2d4472" x="57.6" y="279.438628" style="stroke: #000000; stroke-width: 0.8"/>
      </g>
     </g>
     <g id="text_7">
      <!-- 100 -->
      <g transform="translate(31.5125 283.237847)scale(0.1 -0.1)">
       <use xlink:href="#DejaVuSans-31"/>
       <use xlink:href="#DejaVuSans-30" x="63.623047"/>
       <use xlink:href="#DejaVuSans-30" x="127.246094"/>
      </g>
     </g>
    </g>
    <g id="ytick_2">
     <g id="line2d_8">
      <g>
       <use xlink:href="#mceaa2d4472" x="57.6" y="231.844734" style="stroke: #000000; stroke-width: 0.8"/>
      </g>
     </g>
     <g id="text_8">
      <!-- 200 -->
      <g transform="translate(31.5125 235.643952)scale(0.1 -0.1)">
       <use xlink:href="#DejaVuSans-32"/>
       <use xlink:href="#DejaVuSans-30" x="63.623047"/>
       <use xlink:href="#DejaVuSans-30" x="127.246094"/>
      </g>
     </g>
    </g>
    <g id="ytick_3">
     <g id="line2d_9">
      <g>
       <use xlink:href="#mceaa2d4472" x="57.6" y="184.250839" style="stroke: #000000; stroke-width: 0.8"/>
      </g>
     </g>
     <g id="text_9">
      <!-- 300 -->
      <g transform="translate(31.5125 188.050058)scale(0.1 -0.1)">
       <defs>
        <path id="DejaVuSans-33" d="M 2597 2516 
Q 3050 2419 3304 2112 
Q 3559 1806 3559 1356 
Q 3559 666 3084 287 
Q 2609 -91 1734 -91 
Q 1441 -91 1130 -33 
Q 819 25 488 141 
L 488 750 
Q 750 597 1062 519 
Q 1375 441 1716 441 
Q 2309 441 2620 675 
Q 2931 909 2931 1356 
Q 2931 1769 2642 2001 
Q 2353 2234 1838 2234 
L 1294 2234 
L 1294 2753 
L 1863 2753 
Q 2328 2753 2575 2939 
Q 2822 3125 2822 3475 
Q 2822 3834 2567 4026 
Q 2313 4219 1838 4219 
Q 1578 4219 1281 4162 
Q 984 4106 628 3988 
L 628 4550 
Q 988 4650 1302 4700 
Q 1616 4750 1894 4750 
Q 2613 4750 3031 4423 
Q 3450 4097 3450 3541 
Q 3450 3153 3228 2886 
Q 3006 2619 2597 2516 
z
" transform="scale(0.015625)"/>
       </defs>
       <use xlink:href="#DejaVuSans-33"/>
       <use xlink:href="#DejaVuSans-30" x="63.623047"/>
       <use xlink:href="#DejaVuSans-30" x="127.246094"/>
      </g>
     </g>
    </g>
    <g id="ytick_4">
     <g id="line2d_10">
      <g>
       <use xlink:href="#mceaa2d4472" x="57.6" y="136.656945" style="stroke: #000000; stroke-width: 0.8"/>
      </g>
     </g>
     <g id="text_10">
      <!-- 400 -->
      <g transform="translate(31.5125 140.456164)scale(0.1 -0.1)">
       <defs>
        <path id="DejaVuSans-34" d="M 2419 4116 
L 825 1625 
L 2419 1625 
L 2419 4116 
z
M 2253 4666 
L 3047 4666 
L 3047 1625 
L 3713 1625 
L 3713 1100 
L 3047 1100 
L 3047 0 
L 2419 0 
L 2419 1100 
L 313 1100 
L 313 1709 
L 2253 4666 
z
" transform="scale(0.015625)"/>
       </defs>
       <use xlink:href="#DejaVuSans-34"/>
       <use xlink:href="#DejaVuSans-30" x="63.623047"/>
       <use xlink:href="#DejaVuSans-30" x="127.246094"/>
      </g>
     </g>
    </g>
    <g id="ytick_5">
     <g id="line2d_11">
      <g>
       <use xlink:href="#mceaa2d4472" x="57.6" y="89.063051" style="stroke: #000000; stroke-width: 0.8"/>
      </g>
     </g>
     <g id="text_11">
      <!-- 500 -->
      <g transform="translate(31.5125 92.862269)scale(0.1 -0.1)">
       <use xlink:href="#DejaVuSans-35"/>
       <use xlink:href="#DejaVuSans-30" x="63.623047"/>
       <use xlink:href="#DejaVuSans-30" x="127.246094"/>
      </g>
     </g>
    </g>
   </g>
   <g id="line2d_12">
    <path d="M 73.832727 282.49606 
L 74.101704 281.949206 
L 74.236192 280.8436 
L 74.37068 281.803093 
L 74.505168 281.312876 
L 74.639657 281.912083 
L 74.774145 275.469773 
L 74.908633 248.477372 
L 75.177609 246.991015 
L 75.312098 247.544056 
L 75.446586 247.596409 
L 75.581074 248.459286 
L 75.715562 247.706351 
L 75.85005 247.684458 
L 76.253515 242.721366 
L 76.522492 276.626781 
L 76.65698 276.938521 
L 76.925956 275.239419 
L 77.060444 266.423126 
L 77.194933 268.656707 
L 77.463909 268.720007 
L 77.598397 270.297269 
L 77.732885 264.994833 
L 77.867374 251.647601 
L 78.405327 103.882361 
L 78.674303 102.964751 
L 78.808791 110.070996 
L 78.943279 105.289713 
L 79.481232 157.752463 
L 79.750209 227.814007 
L 80.019185 262.3805 
L 80.153673 264.495097 
L 80.288161 260.677591 
L 80.42265 271.026883 
L 80.557138 270.594255 
L 80.826114 273.090555 
L 80.960603 270.561891 
L 81.095091 260.29446 
L 81.364067 167.894246 
L 81.498555 180.139679 
L 81.767532 160.822269 
L 82.036508 168.789011 
L 82.170996 165.702071 
L 82.305485 159.754262 
L 83.112414 259.818521 
L 83.650367 285.884269 
L 83.784855 285.904735 
L 83.919343 287.426311 
L 84.053831 287.617639 
L 84.18832 285.530171 
L 84.322808 278.338257 
L 84.726273 188.61282 
L 84.860761 179.986902 
L 84.995249 184.064747 
L 85.129737 169.250196 
L 85.264225 177.753321 
L 85.398714 178.497213 
L 85.66769 186.755706 
L 85.802178 195.485854 
L 86.340131 261.934546 
L 86.474619 263.938249 
L 86.609107 268.826142 
L 86.878084 286.264544 
L 87.012572 288.505265 
L 87.14706 288.180199 
L 87.281549 289.664176 
L 87.416037 289.567561 
L 87.550525 288.759892 
L 87.819501 261.381505 
L 87.95399 261.526666 
L 88.088478 255.866324 
L 88.222966 257.319366 
L 88.357454 256.565002 
L 88.491942 253.222007 
L 88.626431 256.043849 
L 88.760919 249.081814 
L 88.895407 251.946015 
L 89.029895 251.944587 
L 89.164384 254.493716 
L 89.43336 275.697272 
L 89.567848 277.353064 
L 89.702336 276.857135 
L 89.836825 277.912292 
L 89.971313 262.832167 
L 90.105801 263.542267 
L 90.240289 265.07955 
L 90.374777 264.850148 
L 90.509266 266.08045 
L 90.643754 266.251312 
L 90.778242 268.34116 
L 90.91273 265.132855 
L 91.047218 255.239513 
L 91.181707 254.073938 
L 91.316195 247.174251 
L 91.450683 251.588585 
L 91.585171 249.631524 
L 91.71966 251.123117 
L 91.854148 251.348236 
L 92.123124 254.317619 
L 92.257612 253.747444 
L 92.526589 259.317357 
L 92.795565 265.884839 
L 92.930053 266.835765 
L 93.064542 265.700175 
L 93.19903 275.673951 
L 93.468006 275.798171 
L 93.602495 276.85428 
L 93.736983 275.625405 
L 93.871471 273.112924 
L 94.005959 267.91567 
L 94.6784 161.108308 
L 94.812888 156.728718 
L 95.081865 168.541047 
L 95.216353 163.345221 
L 95.350841 152.123533 
L 96.023282 264.263791 
L 96.157771 264.99055 
L 96.426747 268.902768 
L 96.561235 268.570562 
L 96.695723 268.647664 
L 96.830212 270.52334 
L 96.9647 269.887961 
L 97.099188 268.465856 
L 97.233676 260.029838 
L 97.368164 242.532419 
L 97.502653 201.663066 
L 97.637141 194.593469 
L 97.771629 179.178282 
L 97.906117 187.542909 
L 98.040606 180.854539 
L 98.175094 181.561784 
L 98.309582 176.262204 
L 98.44407 177.898482 
L 98.713047 189.225829 
L 98.982023 231.018028 
L 99.250999 265.740153 
L 99.385488 270.40959 
L 99.519976 271.161098 
L 99.654464 280.930697 
L 99.788952 280.943071 
L 99.923441 279.945503 
L 100.192417 281.179137 
L 100.326905 281.259571 
L 100.461393 280.607058 
L 100.595882 281.011606 
L 100.73037 281.83736 
L 100.864858 280.304361 
L 100.999346 281.456133 
L 101.133834 280.551373 
L 101.268323 278.343969 
L 101.402811 271.343859 
L 101.537299 275.600656 
L 101.806276 265.25184 
L 101.940764 267.404988 
L 102.075252 267.256971 
L 102.20974 267.90282 
L 102.344228 270.272996 
L 102.478717 276.070408 
L 102.613205 274.224717 
L 102.747693 279.874588 
L 102.882181 266.465008 
L 103.016669 266.493565 
L 103.151158 271.38241 
L 103.285646 271.163954 
L 103.554622 266.99806 
L 103.68911 262.824551 
L 103.823599 245.460871 
L 104.092575 183.414615 
L 104.227063 162.007833 
L 104.361552 169.146917 
L 104.630528 144.360969 
L 105.033993 159.623855 
L 105.168481 170.365321 
L 105.706434 253.133483 
L 105.840922 253.011642 
L 105.97541 261.679442 
L 106.109898 278.05317 
L 106.378875 281.231014 
L 106.513363 281.217212 
L 106.647851 283.366552 
L 106.782339 283.099075 
L 106.916828 284.206584 
L 107.320292 246.768751 
L 107.45478 253.807412 
L 107.589269 251.282556 
L 107.723757 251.374888 
L 108.26171 246.329935 
L 108.396198 242.935063 
L 108.530686 245.18673 
L 108.934151 276.683894 
L 109.068639 278.193572 
L 109.203127 277.130324 
L 109.337615 272.650787 
L 109.606592 274.193781 
L 109.875568 275.242274 
L 110.144545 276.287436 
L 110.413521 275.054279 
L 110.548009 274.920064 
L 110.951474 270.885529 
L 111.085962 272.054435 
L 111.22045 271.708428 
L 111.623915 265.935288 
L 111.758403 266.441212 
L 112.02738 270.207792 
L 112.430844 271.798856 
L 112.565333 261.599009 
L 112.834309 265.78156 
L 112.968797 266.302713 
L 113.103285 267.805253 
L 113.237774 267.982778 
L 113.50675 270.588068 
L 113.641238 271.414298 
L 114.313679 260.234016 
L 114.448168 259.874682 
L 114.582656 258.399747 
L 114.98612 247.62211 
L 115.524073 258.629626 
L 115.658561 259.176955 
L 115.927538 261.391499 
L 116.062026 260.114079 
L 116.196514 266.180397 
L 116.331002 265.765378 
L 116.465491 266.373152 
L 116.599979 256.668281 
L 117.137932 78.986947 
L 117.406908 64.367531 
L 117.810373 80.814077 
L 118.213837 147.637332 
L 118.482814 209.626476 
L 118.75179 243.865524 
L 118.886279 245.390908 
L 119.289743 253.34004 
L 119.424231 254.750247 
L 119.55872 257.505934 
L 119.693208 257.821005 
L 119.827696 248.258916 
L 120.365649 91.772571 
L 120.634625 73.309947 
L 120.769114 76.980864 
L 120.903602 70.597095 
L 121.03809 71.917826 
L 121.441555 134.995918 
L 121.710531 201.45508 
L 121.845019 229.478365 
L 122.248484 240.382127 
L 122.51746 255.811591 
L 122.651948 255.970079 
L 122.786437 257.699165 
L 122.920925 256.36606 
L 123.055413 248.250825 
L 123.727854 60.432943 
L 123.862342 53.568 
L 124.534783 107.398598 
L 125.072736 247.555954 
L 125.207225 252.697999 
L 125.341713 253.158707 
L 125.476201 253.112541 
L 125.745177 266.636346 
L 125.879666 268.065115 
L 126.014154 268.293566 
L 126.28313 254.917302 
L 126.821083 92.87199 
L 126.955571 74.623063 
L 127.09006 81.184357 
L 127.359036 105.585271 
L 127.493524 108.014463 
L 127.762501 126.408552 
L 127.896989 149.084187 
L 128.300453 245.947281 
L 128.434942 251.717088 
L 128.56943 249.899954 
L 128.703918 257.359345 
L 128.838406 258.07944 
L 129.241871 264.735446 
L 129.510847 244.139664 
L 130.0488 83.346072 
L 130.183288 74.288002 
L 130.317777 86.140309 
L 130.452265 114.804208 
L 130.586753 113.890881 
L 130.721241 110.263751 
L 130.855729 116.618488 
L 131.124706 169.596203 
L 131.393682 234.877417 
L 131.662659 257.850514 
L 131.931635 257.655379 
L 132.066123 257.474046 
L 132.3351 268.68336 
L 132.469588 268.535819 
L 132.604076 268.634338 
L 132.738564 268.592931 
L 133.007541 256.767752 
L 133.276517 246.366107 
L 133.679982 240.819038 
L 133.81447 239.643469 
L 133.948958 234.572816 
L 134.486911 244.394768 
L 134.755888 251.441996 
L 134.890376 251.32777 
L 135.697305 265.490761 
L 135.831793 270.214455 
L 135.966282 270.820326 
L 136.10077 268.848987 
L 136.235258 270.343911 
L 136.369746 270.071198 
L 136.504234 265.795838 
L 136.638723 265.637827 
L 136.907699 263.714081 
L 137.311164 252.892658 
L 137.445652 253.399533 
L 137.58014 250.732371 
L 137.983605 257.506886 
L 138.118093 256.610217 
L 138.252581 258.434491 
L 138.387069 262.900702 
L 138.521558 261.674683 
L 138.656046 261.874577 
L 138.925022 266.543062 
L 139.193999 250.392074 
L 139.731951 81.50276 
L 139.86644 72.636494 
L 140.269904 98.49854 
L 140.538881 122.787132 
L 140.673369 129.837692 
L 140.807857 144.116336 
L 141.076834 223.771381 
L 141.480298 256.772512 
L 142.018251 265.163315 
L 142.152739 264.702131 
L 142.421716 241.100318 
L 142.959669 91.444649 
L 143.094157 84.070451 
L 143.228645 83.585469 
L 143.363133 93.753429 
L 143.497621 84.531636 
L 143.63211 89.629418 
L 144.573527 258.013285 
L 144.708015 261.483356 
L 144.842504 261.658025 
L 145.11148 263.887799 
L 145.245968 266.019054 
L 145.380456 261.964054 
L 145.783921 201.140485 
L 146.052897 109.962481 
L 146.187386 90.948721 
L 146.456362 106.176387 
L 146.59085 117.435199 
L 146.725339 111.776285 
L 146.859827 119.149055 
L 146.994315 114.099819 
L 147.128803 126.888298 
L 147.532268 233.568585 
L 147.801244 259.443005 
L 147.935732 259.644327 
L 148.204709 264.888223 
L 148.339197 264.866805 
L 148.473685 265.367969 
L 148.742662 264.319952 
L 148.87715 246.722109 
L 149.280615 119.013888 
L 149.415103 114.994108 
L 149.549591 105.955076 
L 149.684079 107.204891 
L 150.087544 139.762447 
L 150.222032 132.106017 
L 150.35652 137.600256 
L 150.894473 251.898897 
L 151.028961 261.028358 
L 151.16345 260.075052 
L 151.835891 268.212656 
L 151.970379 266.946183 
L 152.104867 246.093394 
L 152.508332 113.031812 
L 152.64282 116.126367 
L 152.911796 104.327364 
L 153.046285 118.411825 
L 153.180773 116.917853 
L 153.449749 151.233051 
L 153.718726 191.992462 
L 153.987702 248.357911 
L 154.12219 265.330846 
L 154.256678 266.703454 
L 154.525655 270.548089 
L 154.794631 272.244335 
L 155.063608 275.175643 
L 155.198096 276.810017 
L 155.332584 276.169404 
L 155.467072 271.808375 
L 155.601561 261.380077 
L 155.736049 260.522911 
L 155.870537 257.670609 
L 156.005025 259.799959 
L 156.274002 257.911434 
L 156.40849 258.445437 
L 156.542978 259.693349 
L 156.677466 258.502074 
L 157.215419 266.475003 
L 157.349907 268.472043 
L 157.484396 267.48447 
L 157.618884 268.251207 
L 157.88786 271.41287 
L 158.022348 271.891664 
L 158.291325 274.877229 
L 158.560301 279.139263 
L 158.694789 277.580087 
L 158.829278 278.540055 
L 158.963766 278.145502 
L 159.232742 275.443597 
L 159.367231 275.724401 
L 159.501719 273.74973 
L 160.039672 259.729996 
L 160.308648 259.987955 
L 160.443136 265.681137 
L 160.577624 265.398905 
L 160.712113 263.452315 
L 160.846601 264.150993 
L 160.981089 265.636399 
L 161.250066 269.376327 
L 161.519042 270.323445 
L 161.788018 253.635122 
L 162.460459 83.770134 
L 162.594948 83.435072 
L 162.729436 81.982507 
L 162.998412 101.485057 
L 163.132901 110.389875 
L 163.401877 151.470069 
L 163.670853 221.880952 
L 164.074318 255.816826 
L 164.208806 256.944802 
L 164.477783 269.542906 
L 164.612271 271.893568 
L 164.746759 267.212709 
L 165.015735 249.782873 
L 165.4192 120.61923 
L 165.553688 123.206434 
L 165.822665 109.377077 
L 165.957153 114.608597 
L 166.091641 111.537839 
L 166.360618 100.136246 
L 166.495106 106.301559 
L 166.89857 220.985711 
L 167.033059 227.925377 
L 167.302035 246.230464 
L 167.974476 264.609798 
L 168.108964 258.962307 
L 168.243453 245.014916 
L 168.377941 207.113994 
L 168.646917 106.128317 
L 168.781405 107.405261 
L 168.915894 102.900499 
L 169.050382 104.194577 
L 169.18487 107.972581 
L 169.319358 92.715882 
L 169.453847 95.182673 
L 169.857311 148.311262 
L 170.126288 226.146793 
L 170.395264 256.81963 
L 170.529752 257.695357 
L 170.66424 261.116407 
L 170.798729 261.304878 
L 171.067705 263.621273 
L 171.202193 266.442639 
L 171.47117 244.756005 
L 172.009123 110.171895 
L 172.143611 108.602724 
L 172.412587 96.899861 
L 172.95054 129.250383 
L 173.622981 258.780022 
L 173.757469 262.750781 
L 173.891958 276.06898 
L 174.026446 275.144231 
L 174.160934 275.100445 
L 174.42991 276.624401 
L 174.698887 261.901706 
L 174.833375 244.856904 
L 175.102351 176.651522 
L 175.371328 143.43146 
L 175.505816 140.54489 
L 175.640304 150.66478 
L 175.774792 150.355896 
L 175.909281 151.758488 
L 176.043769 156.543578 
L 176.178257 156.237073 
L 176.312745 170.645649 
L 176.581722 238.00386 
L 176.850698 265.009111 
L 176.985186 262.526138 
L 177.254163 267.239837 
L 177.388651 267.196527 
L 177.792116 273.726409 
L 177.926604 274.613083 
L 178.19558 263.94396 
L 178.330069 263.50562 
L 178.599045 255.971507 
L 178.733533 255.408471 
L 178.868021 257.70678 
L 179.136998 254.211484 
L 179.271486 254.80498 
L 179.540462 252.329622 
L 179.809439 259.804719 
L 179.943927 267.045178 
L 180.212904 265.151417 
L 180.48188 274.978604 
L 180.616368 274.992407 
L 180.750856 275.363163 
L 180.885345 276.191297 
L 181.019833 276.277442 
L 181.692274 264.016303 
L 181.826762 265.307049 
L 181.96125 259.346866 
L 182.095738 261.122118 
L 182.364715 266.539255 
L 182.499203 267.812392 
L 182.633691 270.947877 
L 182.902668 270.13307 
L 183.171644 276.240318 
L 183.306132 277.651001 
L 183.440621 276.545395 
L 183.575109 274.252321 
L 183.844085 285.94043 
L 183.978573 286.888024 
L 184.113062 284.617796 
L 184.382038 273.275219 
L 184.919991 181.895417 
L 185.054479 185.895684 
L 185.188967 178.849884 
L 185.457944 182.695471 
L 185.592432 184.188967 
L 185.995897 221.800518 
L 186.264873 252.281552 
L 186.53385 267.978494 
L 186.802826 278.193572 
L 187.071802 288.650902 
L 187.206291 287.504841 
L 187.340779 288.63472 
L 187.475267 285.469251 
L 187.609755 277.501081 
L 188.01322 201.878666 
L 188.147708 185.54111 
L 188.282196 185.75909 
L 188.416684 184.804356 
L 188.551173 188.104041 
L 188.685661 194.481623 
L 188.820149 190.086327 
L 188.954637 194.504944 
L 189.089126 202.84625 
L 189.627078 264.615986 
L 189.761567 267.195099 
L 189.896055 272.41139 
L 190.030543 269.984577 
L 190.299519 271.809327 
L 190.434008 270.642325 
L 190.971961 274.054331 
L 191.106449 270.61472 
L 191.240937 270.131166 
L 191.375425 270.568078 
L 191.509913 266.155648 
L 191.644402 267.699118 
L 191.913378 266.43788 
L 192.182354 260.822276 
L 192.316843 261.169712 
L 192.451331 260.673307 
L 192.585819 261.989279 
L 192.720307 267.738145 
L 192.989284 268.991292 
L 193.392748 266.31366 
L 193.661725 269.185475 
L 193.796213 269.718051 
L 194.065189 261.859347 
L 194.603142 158.483029 
L 194.73763 153.588949 
L 194.872119 143.672761 
L 195.006607 145.242883 
L 195.141095 149.969909 
L 195.275583 142.597615 
L 195.54456 155.943419 
L 195.948024 249.635331 
L 196.217001 259.935126 
L 196.351489 261.855064 
L 196.485977 271.294837 
L 196.620465 270.644704 
L 196.889442 271.199649 
L 197.02393 272.324293 
L 197.158418 270.600442 
L 197.292907 264.300914 
L 197.830859 195.823771 
L 197.965348 198.127315 
L 198.099836 194.820967 
L 198.234324 199.2096 
L 198.5033 185.930428 
L 198.772277 199.682684 
L 199.31023 271.968766 
L 199.713694 281.049681 
L 199.848183 279.885059 
L 200.117159 280.61039 
L 200.251647 278.833234 
L 200.386135 273.074373 
L 200.520624 272.67268 
L 200.655112 259.759505 
L 200.7896 212.70009 
L 200.924088 210.736842 
L 201.058576 199.093471 
L 201.193065 198.736517 
L 201.327553 196.060788 
L 201.462041 198.225835 
L 201.731018 186.466811 
L 201.865506 187.823237 
L 202.134482 210.439856 
L 202.403459 263.727408 
L 202.806923 273.492247 
L 203.0759 265.050042 
L 203.210388 269.362049 
L 203.344876 269.487697 
L 203.748341 260.143587 
L 203.882829 242.816554 
L 204.151805 181.070139 
L 204.420782 164.655005 
L 204.55527 159.045589 
L 204.689758 162.470445 
L 204.824246 155.993392 
L 204.958735 171.96162 
L 205.093223 172.207204 
L 205.765664 259.564846 
L 205.900152 260.0741 
L 206.03464 263.861147 
L 206.169129 278.65904 
L 206.303617 279.138311 
L 206.572593 283.063379 
L 206.84157 283.871999 
L 207.110546 274.515992 
L 207.379522 265.364638 
L 207.514011 264.489862 
L 207.917475 272.579872 
L 208.051964 272.334288 
L 208.32094 265.995257 
L 208.589916 267.591556 
L 208.858893 275.615411 
L 208.993381 279.256344 
L 209.127869 279.837941 
L 209.262357 279.295846 
L 209.396846 273.461311 
L 209.531334 274.555019 
L 209.80031 274.141428 
L 209.934799 275.129001 
L 210.203775 262.989702 
L 211.010704 108.397118 
L 211.279681 133.931243 
L 211.683145 166.918571 
L 212.221098 254.25765 
L 212.355586 256.71302 
L 212.759051 271.901659 
L 212.893539 271.695102 
L 213.028027 271.795049 
L 213.162516 274.435082 
L 213.431492 256.791549 
L 213.56598 218.840654 
L 213.834957 135.205807 
L 213.969445 139.775773 
L 214.103933 138.688252 
L 214.238421 141.63955 
L 214.910862 179.831746 
L 215.448815 259.857548 
L 215.583303 264.807313 
L 215.717792 265.423178 
L 216.121256 269.671885 
L 216.255745 270.626143 
L 216.390233 273.009169 
L 216.524721 269.013662 
L 216.659209 261.519051 
L 217.062674 148.798623 
L 217.197162 150.704759 
L 217.33165 150.785192 
L 217.466138 162.21439 
L 217.600627 160.93459 
L 217.735115 149.116551 
L 217.869603 154.330938 
L 218.273068 196.39109 
L 218.542044 255.029148 
L 218.811021 271.775535 
L 218.945509 264.379444 
L 219.483462 275.066653 
L 219.61795 276.859515 
L 219.886926 263.151046 
L 220.290391 161.875522 
L 220.693856 150.250713 
L 220.828344 160.882237 
L 220.962832 156.973351 
L 221.231808 184.044758 
L 221.500785 197.868404 
L 221.769761 254.893029 
L 222.038738 270.478602 
L 222.173226 269.728046 
L 222.307714 270.949305 
L 222.576691 276.981831 
L 222.845667 279.612822 
L 222.980155 277.945608 
L 223.114643 279.813192 
L 223.38362 259.323069 
L 223.518108 263.17627 
L 223.652596 263.020162 
L 223.921573 256.079069 
L 224.190549 255.408471 
L 224.325037 257.890492 
L 224.459525 257.263681 
L 224.728502 253.415239 
L 225.131967 260.664741 
L 225.266455 259.182667 
L 225.535431 260.650938 
L 225.669919 259.34163 
L 226.073384 269.083625 
L 226.34236 272.106789 
L 226.476849 272.034922 
L 226.745825 268.896105 
L 226.880313 271.174424 
L 227.014802 271.417153 
L 227.14929 271.120643 
L 227.283778 269.703773 
L 227.418266 271.37765 
L 227.552754 271.506154 
L 227.687243 271.337195 
L 227.956219 270.230161 
L 228.090707 276.036617 
L 228.225195 276.075644 
L 228.359684 277.175538 
L 228.494172 276.404041 
L 228.62866 277.373529 
L 228.763148 277.259304 
L 228.897637 274.974797 
L 229.301101 275.877177 
L 229.435589 269.673313 
L 229.570078 255.612173 
L 230.242519 94.432118 
L 230.377007 79.618518 
L 230.511495 109.55127 
L 230.780471 117.489932 
L 231.049448 144.915913 
L 231.587401 253.457121 
L 231.856377 264.662628 
L 232.125354 269.469611 
L 232.39433 274.119059 
L 232.528818 273.306631 
L 232.797795 256.229466 
L 232.932283 220.015747 
L 233.201259 132.994595 
L 233.335748 124.831766 
L 233.470236 135.112047 
L 233.604724 135.333835 
L 233.739212 148.105656 
L 233.8737 133.392004 
L 234.008189 140.104171 
L 234.815118 264.081982 
L 234.949606 263.815932 
L 235.218583 269.710436 
L 235.622047 277.435877 
L 235.756535 276.83905 
L 236.025512 264.202871 
L 236.563465 128.845835 
L 236.832441 116.653707 
L 237.63937 200.213356 
L 237.908347 258.192714 
L 238.177323 266.268446 
L 238.849764 281.162479 
L 238.984252 280.339105 
L 239.118741 276.546823 
L 239.253229 262.668919 
L 239.791182 128.077194 
L 240.194646 145.78355 
L 240.463623 164.879172 
L 240.732599 178.313977 
L 241.270552 255.665002 
L 241.674017 261.530949 
L 241.942993 274.453168 
L 242.077481 280.942119 
L 242.21197 280.317211 
L 242.480946 262.378597 
L 242.884411 150.820888 
L 243.018899 158.680068 
L 243.153387 156.436967 
L 243.287875 145.476569 
L 243.422363 153.444263 
L 243.556852 150.637175 
L 243.825828 167.2503 
L 244.229293 239.121364 
L 244.498269 261.470505 
L 244.767246 266.734866 
L 245.17071 274.579292 
L 245.305198 275.442645 
L 245.439687 275.147563 
L 245.574175 273.921068 
L 245.708663 262.485207 
L 245.843151 267.923761 
L 246.112128 264.947239 
L 246.381104 259.77759 
L 246.515592 259.744275 
L 247.188033 269.967919 
L 247.322522 270.372467 
L 247.45701 271.237724 
L 247.591498 270.884102 
L 247.725986 274.041005 
L 247.860475 272.606049 
L 248.129451 273.926779 
L 248.263939 273.04534 
L 248.398427 273.726409 
L 248.532916 273.573633 
L 248.667404 275.514512 
L 248.801892 275.415992 
L 249.205357 276.951371 
L 249.339845 277.0675 
L 249.608821 276.121334 
L 249.743309 276.252693 
L 249.877798 275.953327 
L 250.550239 272.794996 
L 250.819215 273.094362 
L 250.953703 273.871094 
L 251.088192 272.737884 
L 251.357168 273.992459 
L 251.491656 282.867768 
L 251.626144 282.379455 
L 251.760633 282.808752 
L 251.895121 282.649312 
L 252.164097 270.437671 
L 252.70205 143.369112 
L 252.836538 163.050615 
L 252.971027 159.615764 
L 253.240003 172.489436 
L 253.374491 173.838723 
L 253.508979 170.921217 
L 253.777956 203.651539 
L 254.046932 254.868756 
L 254.315909 276.13704 
L 254.719373 284.469303 
L 254.853862 284.229905 
L 255.122838 285.958516 
L 255.391814 265.250412 
L 255.660791 172.280499 
L 255.795279 175.718206 
L 256.198744 160.088847 
L 256.333232 163.752149 
L 256.46772 161.094982 
L 256.602208 162.287685 
L 257.409138 257.104241 
L 257.812602 264.555065 
L 258.081579 279.719432 
L 258.216067 280.7803 
L 258.350555 280.053065 
L 258.619532 265.921962 
L 258.888508 177.0713 
L 259.022996 177.937985 
L 259.157484 168.910375 
L 259.291973 168.336393 
L 259.426461 152.89503 
L 259.695437 166.556857 
L 259.829925 155.456533 
L 259.964414 164.504133 
L 260.771343 260.165957 
L 261.040319 262.39811 
L 261.309296 269.876063 
L 261.443784 273.081036 
L 261.71276 270.174953 
L 261.847249 257.818626 
L 262.116225 169.907943 
L 262.250713 174.063366 
L 262.654178 147.708247 
L 262.788666 154.988209 
L 262.923154 150.231675 
L 263.326619 185.281247 
L 263.461107 196.148361 
L 263.864572 244.785514 
L 264.268036 262.777434 
L 264.402525 262.022118 
L 264.671501 265.442216 
L 264.805989 265.316568 
L 264.940478 264.368497 
L 265.074966 256.82201 
L 265.209454 237.760179 
L 265.612919 123.790887 
L 265.881895 105.730432 
L 266.016383 115.204949 
L 266.150871 115.074542 
L 266.28536 114.627635 
L 266.419848 119.245671 
L 266.688824 156.41317 
L 266.957801 234.999257 
L 267.226777 251.617141 
L 267.361265 250.198843 
L 267.495754 266.520217 
L 267.630242 266.205146 
L 267.76473 268.068923 
L 267.899218 268.379235 
L 268.168195 274.881513 
L 268.302683 275.763904 
L 268.437171 273.209539 
L 268.706147 275.738679 
L 268.975124 272.253854 
L 269.2441 270.374371 
L 269.916541 255.922009 
L 270.320006 257.806251 
L 270.588982 262.67939 
L 270.723471 276.737675 
L 270.857959 277.774746 
L 270.992447 276.300763 
L 271.126935 277.181726 
L 271.261424 277.211234 
L 271.395912 277.025618 
L 271.799376 279.795582 
L 271.933865 278.413932 
L 272.068353 278.76803 
L 272.202841 278.125037 
L 272.337329 278.360626 
L 272.471817 277.519642 
L 272.606306 275.359831 
L 272.740794 276.639155 
L 272.875282 276.317421 
L 273.00977 275.642063 
L 273.144258 273.31377 
L 273.278747 273.214299 
L 273.547723 276.18511 
L 273.682211 276.398806 
L 273.8167 277.080827 
L 273.951188 276.221281 
L 274.085676 286.845666 
L 274.354652 288.474329 
L 274.489141 286.90611 
L 274.758117 272.219586 
L 275.29607 165.940992 
L 275.565046 153.728399 
L 275.699535 154.064888 
L 275.834023 171.983513 
L 275.968511 174.260881 
L 276.102999 184.397429 
L 276.77544 263.560353 
L 277.447881 280.927841 
L 277.58237 284.317954 
L 277.716858 283.927684 
L 277.851346 279.537623 
L 277.985834 269.57289 
L 278.389299 209.178617 
L 278.523787 189.729373 
L 278.658275 187.734712 
L 278.792763 178.236875 
L 278.927252 190.344762 
L 279.06174 184.534975 
L 279.196228 186.621967 
L 279.330716 194.303622 
L 280.137646 273.914405 
L 280.272134 276.296479 
L 280.406622 267.955173 
L 280.54111 267.671514 
L 280.810087 268.84042 
L 280.944575 268.218368 
L 281.213551 260.313498 
L 281.348039 231.414961 
L 281.482528 161.073565 
L 281.617016 150.88276 
L 281.751504 127.524153 
L 281.885992 128.674021 
L 282.154969 142.160703 
L 282.289457 124.075023 
L 282.423945 128.156199 
L 282.558433 137.250917 
L 282.82741 185.61488 
L 283.096386 254.055852 
L 283.365363 260.674735 
L 283.499851 262.878333 
L 283.634339 262.208211 
L 283.768827 262.218681 
L 283.903316 262.407629 
L 284.037804 263.710274 
L 284.172292 263.839253 
L 284.441268 258.654374 
L 285.113709 143.567578 
L 285.248198 142.493384 
L 285.382686 137.963873 
L 285.517174 147.190426 
L 285.651662 144.094443 
L 285.78615 147.57784 
L 286.055127 200.620283 
L 286.324103 250.114602 
L 286.59308 259.776638 
L 286.727568 259.655274 
L 286.862056 278.561949 
L 286.996544 278.620965 
L 287.131033 277.644814 
L 287.265521 278.249257 
L 287.668985 274.728736 
L 287.803474 275.604464 
L 288.07245 274.731116 
L 288.206938 272.56369 
L 288.341427 272.508481 
L 288.475915 270.166386 
L 288.610403 269.796105 
L 288.744891 268.674317 
L 288.879379 271.497111 
L 289.013868 271.835979 
L 289.148356 269.030795 
L 289.417332 276.171783 
L 289.55182 277.356395 
L 289.820797 276.995634 
L 289.955285 277.784264 
L 290.089773 276.287912 
L 290.224262 277.831858 
L 290.35875 276.926622 
L 290.493238 277.904677 
L 290.627726 276.365966 
L 291.031191 258.423544 
L 291.300167 192.369406 
L 291.434655 186.796161 
L 291.569144 187.402507 
L 291.703632 191.457507 
L 291.972608 178.738039 
L 292.376073 191.791616 
L 293.048514 268.032751 
L 293.183002 269.276856 
L 293.31749 268.127463 
L 293.451979 268.877543 
L 293.586467 267.949938 
L 293.720955 270.420061 
L 293.855443 270.682779 
L 294.258908 246.810158 
L 294.527884 188.938838 
L 294.796861 157.320786 
L 294.931349 141.483918 
L 295.065837 141.350179 
L 295.200325 149.305974 
L 295.334814 143.597563 
L 295.60379 171.598002 
L 295.738278 186.058931 
L 296.141743 256.119048 
L 296.276231 255.230946 
L 296.410719 262.414768 
L 296.545208 280.056397 
L 296.948672 282.215256 
L 297.486625 284.176124 
L 297.621113 283.831545 
L 297.755601 283.827737 
L 298.024578 280.662743 
L 298.159066 280.512822 
L 298.428042 278.376808 
L 298.697019 274.561682 
L 298.831507 273.429423 
L 298.965995 273.287593 
L 299.100484 273.642168 
L 299.36946 277.415888 
L 299.503948 276.910916 
L 299.638436 278.449627 
L 299.772925 268.819002 
L 299.907413 272.211019 
L 300.041901 271.910226 
L 300.176389 272.774055 
L 300.310877 272.491347 
L 300.579854 261.553795 
L 301.252295 127.85493 
L 301.386783 127.923465 
L 301.521271 141.076038 
L 301.65576 134.154934 
L 301.790248 143.541402 
L 302.597177 252.015026 
L 302.731665 253.762674 
L 303.000642 266.133279 
L 303.13513 266.35697 
L 303.269618 266.835765 
L 303.404106 269.287802 
L 303.538595 269.705677 
L 303.807571 253.396201 
L 304.345524 163.888743 
L 304.6145 153.397621 
L 304.748988 161.610424 
L 304.883477 152.065944 
L 305.017965 158.127979 
L 306.093871 264.589333 
L 306.228359 265.596896 
L 306.497335 275.721545 
L 306.766312 276.748145 
L 306.9008 272.053959 
L 307.035288 261.546655 
L 307.304265 169.350143 
L 307.438753 176.58965 
L 307.842217 157.386466 
L 307.976706 164.416084 
L 308.111194 156.022901 
L 308.245682 160.970286 
L 308.649147 206.832238 
L 309.052611 263.025874 
L 309.590564 275.219429 
L 309.994029 276.91758 
L 310.128517 273.375166 
L 310.263005 260.797528 
L 310.531982 169.239249 
L 310.66647 170.387214 
L 310.935446 168.105087 
L 311.069934 158.782395 
L 311.204423 165.218041 
L 311.338911 163.931102 
L 311.473399 157.178004 
L 311.607887 170.274416 
L 311.876864 207.736522 
L 312.14584 249.934697 
L 312.414817 261.704191 
L 312.818281 270.288702 
L 312.952769 269.856073 
L 313.087258 271.736032 
L 313.221746 271.637513 
L 313.356234 273.209539 
L 313.625211 262.685577 
L 313.759699 254.818307 
L 313.894187 258.160826 
L 314.028675 255.639777 
L 314.163163 257.517356 
L 314.297652 254.765477 
L 314.566628 261.308686 
L 314.701116 262.041156 
L 314.970093 266.78008 
L 315.104581 266.742481 
L 315.239069 266.446923 
L 315.508045 269.370616 
L 315.642534 269.906047 
L 315.777022 269.576697 
L 316.180487 272.557503 
L 316.314975 272.119163 
L 316.718439 274.466494 
L 316.852928 274.714934 
L 316.987416 273.863955 
L 317.121904 273.929159 
L 317.256392 272.812606 
L 317.39088 272.956816 
L 317.525369 271.422389 
L 317.659857 272.339047 
L 317.928833 269.827041 
L 318.332298 266.101391 
L 318.466786 266.753903 
L 318.601274 266.25274 
L 318.735763 267.704829 
L 318.870251 267.541582 
L 319.139227 268.654804 
L 319.273715 278.462477 
L 319.67718 279.577602 
L 319.811668 277.006104 
L 319.946157 269.074582 
L 320.349621 147.429823 
L 320.484109 131.324525 
L 320.887574 158.525863 
L 321.022062 163.179119 
L 321.291039 177.919899 
L 321.425527 179.715141 
L 321.560015 198.103518 
L 321.828991 253.474731 
L 321.96348 261.539516 
L 322.097968 262.323864 
L 322.635921 278.976967 
L 322.770409 279.322975 
L 322.904897 278.665703 
L 323.173874 268.263106 
L 323.44285 173.065322 
L 323.577338 173.426084 
L 323.711826 173.62693 
L 323.980803 153.506611 
L 324.249779 157.035699 
L 324.384268 159.794241 
L 324.787732 195.935616 
L 325.056709 250.305453 
L 325.325685 259.551043 
L 325.863638 277.32308 
L 325.998126 279.085481 
L 326.132614 279.150685 
L 326.267103 275.946664 
L 326.401591 266.972835 
L 326.670567 165.894826 
L 326.805055 171.833592 
L 326.939544 173.002498 
L 327.20852 159.813278 
L 327.343008 167.933749 
L 327.611985 164.190489 
L 327.746473 169.036499 
L 328.149937 223.57815 
L 328.418914 254.33618 
L 328.68789 267.110858 
L 328.822379 269.557184 
L 328.956867 279.575223 
L 329.225843 280.519485 
L 329.360331 279.674694 
L 329.629308 266.878599 
L 330.032772 178.115034 
L 330.301749 166.808153 
L 330.570725 158.0247 
L 330.839702 179.816516 
L 330.97419 181.025401 
L 331.108678 183.763002 
L 331.781119 259.432059 
L 332.050096 266.57495 
L 332.184584 277.318796 
L 332.319072 278.272102 
L 332.45356 277.609119 
L 332.588049 278.593837 
L 332.857025 266.021909 
L 333.26049 177.485367 
L 333.394978 179.389599 
L 333.663954 164.521266 
L 333.798442 165.710162 
L 333.932931 169.466272 
L 334.336395 187.279239 
L 334.73986 254.819734 
L 335.143325 270.502874 
L 335.277813 270.304884 
L 335.412301 270.401975 
L 335.546789 270.686587 
L 335.681277 270.58188 
L 335.950254 273.156234 
L 336.084742 271.067814 
L 336.622695 254.65268 
L 336.757183 255.445118 
L 336.891671 253.62132 
L 337.295136 259.960351 
L 337.698601 264.67881 
L 337.833089 264.200967 
L 338.102065 268.288331 
L 338.236553 268.057024 
L 338.371042 268.692403 
L 338.50553 266.364109 
L 339.043483 269.513397 
L 339.446947 272.50039 
L 339.581436 272.020168 
L 339.715924 270.854593 
L 339.850412 271.113028 
L 339.9849 270.335344 
L 340.119388 270.223022 
L 340.253877 269.750891 
L 340.388365 271.223446 
L 340.522853 269.240684 
L 340.657341 269.837512 
L 340.926318 269.520061 
L 341.060806 266.19182 
L 341.329782 271.058771 
L 341.464271 270.957396 
L 341.598759 271.484261 
L 341.733247 273.045816 
L 341.867735 280.8436 
L 342.136712 280.944975 
L 342.2712 281.584637 
L 342.540176 268.928468 
L 342.943641 154.111054 
L 343.212617 170.668494 
L 343.347106 169.9365 
L 343.75057 184.27654 
L 343.885058 185.946134 
L 344.019547 185.285531 
L 344.423011 252.959765 
L 345.22994 278.573371 
L 345.364429 279.653753 
L 345.498917 279.28728 
L 345.633405 275.083787 
L 345.767893 267.024713 
L 346.03687 183.035291 
L 346.171358 187.140265 
L 346.440334 173.617887 
L 346.574823 168.263574 
L 346.843799 175.120427 
L 347.112775 176.983252 
L 347.381752 211.35461 
L 347.650728 250.143158 
L 348.054193 268.047981 
L 348.188681 269.226406 
L 348.323169 278.166919 
L 348.457658 279.012187 
L 348.592146 280.876916 
L 348.726634 280.682257 
L 348.99561 267.816675 
L 349.264587 181.988226 
L 349.399075 183.457449 
L 349.668052 165.955746 
L 349.80254 161.85696 
L 350.206004 180.492825 
L 350.340493 181.668871 
L 351.012934 261.591394 
L 351.147422 263.904457 
L 351.550886 280.513774 
L 351.685375 279.804149 
L 351.954351 280.16967 
L 352.088839 278.777073 
L 352.223328 271.512341 
L 352.492304 177.924659 
L 352.626792 185.065171 
L 352.76128 173.734492 
L 352.895769 173.028199 
L 353.030257 164.778273 
L 353.164745 171.964475 
L 353.299233 169.894617 
L 353.56821 152.180645 
L 354.240651 268.188859 
L 354.375139 269.322546 
L 354.644115 275.164696 
L 354.913092 279.423874 
L 355.182068 280.462373 
L 355.316556 278.0684 
L 355.451045 268.972255 
L 355.854509 195.926574 
L 356.123486 157.726762 
L 356.257974 159.434431 
L 356.392462 168.014182 
L 356.52695 167.383087 
L 356.661439 177.951787 
L 356.795927 176.704827 
L 357.33388 263.893986 
L 357.602856 273.457027 
L 357.737344 275.414564 
L 357.871832 279.654704 
L 358.006321 279.078342 
L 358.140809 279.292039 
L 358.275297 280.029268 
L 358.409785 279.941696 
L 358.678762 278.686645 
L 359.082226 260.284465 
L 359.351203 254.399956 
L 359.485691 248.150878 
L 359.620179 258.846178 
L 359.754667 260.255433 
L 359.889156 260.422964 
L 360.427109 274.661153 
L 360.561597 275.338414 
L 360.965061 279.470992 
L 361.234038 279.431489 
L 361.368526 279.240638 
L 361.503014 280.541379 
L 361.771991 280.135403 
L 361.906479 281.461369 
L 362.040967 281.413775 
L 362.175455 281.787863 
L 362.309944 281.828318 
L 362.57892 278.427734 
L 362.713408 278.378712 
L 362.982385 277.247881 
L 363.116873 275.760572 
L 363.251361 275.659197 
L 363.385849 276.746242 
L 363.520337 275.895263 
L 363.654826 275.83577 
L 364.05829 278.612398 
L 364.192778 252.693715 
L 364.730731 258.929943 
L 364.86522 257.738668 
L 364.999708 245.697413 
L 365.134196 223.619081 
L 365.403172 135.581323 
L 365.672149 105.385377 
L 365.806637 99.483258 
L 366.075613 116.373379 
L 366.34459 113.239321 
L 366.479078 124.634251 
L 367.017031 250.614814 
L 367.151519 255.558392 
L 367.286007 253.828829 
L 367.554984 265.152845 
L 367.689472 266.016674 
L 367.958448 270.900759 
L 368.227425 247.4146 
L 368.496401 151.765151 
L 368.765378 100.049149 
L 369.034354 89.182035 
L 369.168842 93.889071 
L 369.303331 93.445972 
L 369.437819 96.804197 
L 369.572307 94.688649 
L 369.706795 110.747305 
L 370.244748 234.200156 
L 370.782701 278.280669 
L 370.917189 278.584794 
L 371.051677 279.473848 
L 371.186166 279.195899 
L 371.455142 264.418947 
L 371.858607 171.421905 
L 372.127583 203.314574 
L 372.262071 199.265761 
L 372.396559 200.688343 
L 372.665536 190.031594 
L 372.800024 193.815308 
L 373.203489 233.407717 
L 373.472465 255.60075 
L 373.87593 276.732915 
L 374.010418 285.725782 
L 374.144906 285.580144 
L 374.279394 286.783318 
L 374.413883 286.281678 
L 374.682859 269.768025 
L 375.220812 180.621329 
L 375.489788 177.002289 
L 375.624277 177.224553 
L 375.893253 183.741585 
L 376.027741 188.025511 
L 376.565694 255.418466 
L 376.83467 264.28378 
L 376.969159 267.112285 
L 377.103647 278.891298 
L 377.238135 277.801398 
L 377.507112 279.868401 
L 377.6416 277.908008 
L 377.776088 281.437572 
L 378.045064 279.296322 
L 378.179553 269.68188 
L 378.314041 269.057924 
L 378.448529 261.976904 
L 378.583017 262.974948 
L 378.717505 262.060194 
L 378.851994 266.559244 
L 378.986482 265.801074 
L 379.12097 266.706785 
L 379.255458 268.860409 
L 379.389947 268.74428 
L 379.927899 277.973688 
L 380.062388 277.767607 
L 380.196876 278.183101 
L 380.331364 268.300229 
L 380.465852 268.976538 
L 380.869317 271.873103 
L 381.138293 261.005513 
L 381.272782 233.980748 
L 381.541758 159.579116 
L 381.810734 139.46784 
L 381.945223 141.055097 
L 382.214199 147.525487 
L 382.348687 139.555889 
L 382.752152 189.287225 
L 383.021128 257.118519 
L 383.155616 265.026721 
L 383.290105 265.687324 
L 383.424593 266.971408 
L 383.559081 262.054958 
L 383.693569 261.344857 
L 383.962546 261.690389 
L 384.097034 262.877857 
L 384.231522 261.098321 
L 384.36601 262.487111 
L 385.038451 148.585403 
L 385.17294 151.022686 
L 385.307428 166.120897 
L 385.576404 160.490539 
L 386.248845 259.957495 
L 386.921286 278.413456 
L 387.055775 277.600552 
L 387.190263 278.875116 
L 387.324751 278.185957 
L 387.459239 278.346824 
L 387.593727 279.832706 
L 387.728216 279.259675 
L 387.862704 280.573743 
L 387.997192 279.407216 
L 388.13168 280.993997 
L 388.266169 280.012135 
L 388.400657 278.031277 
L 388.535145 278.120277 
L 388.669633 277.459198 
L 388.804121 278.59574 
L 388.93861 276.050419 
L 389.207586 278.185957 
L 389.476562 284.861001 
L 389.611051 283.804892 
L 389.745539 284.619699 
L 389.880027 284.567822 
L 390.014515 269.695206 
L 390.283492 269.943646 
L 390.41798 269.953641 
L 390.552468 269.823234 
L 390.686956 264.335182 
L 390.821445 264.519846 
L 390.955933 255.68404 
L 391.224909 199.627951 
L 391.359397 168.307837 
L 391.493886 164.325179 
L 391.762862 174.999538 
L 391.89735 174.456968 
L 392.031839 167.246493 
L 392.166327 170.939303 
L 392.300815 179.903137 
L 392.569791 239.953306 
L 392.70428 266.194675 
L 392.973256 271.028787 
L 393.107744 271.685107 
L 393.376721 264.64121 
L 393.645697 270.349146 
L 393.780185 266.964268 
L 393.914673 268.346395 
L 394.049162 260.946496 
L 394.721603 146.538389 
L 394.990579 145.468479 
L 395.125067 145.049176 
L 395.259556 156.414122 
L 395.394044 157.282711 
L 395.931997 245.273351 
L 396.200973 258.85998 
L 396.335461 255.129571 
L 396.46995 279.859834 
L 396.604438 280.242489 
L 397.007902 283.272316 
L 397.276879 270.237776 
L 397.545855 196.654284 
L 397.680343 191.475592 
L 397.94932 168.137926 
L 398.083808 154.694079 
L 398.218296 167.415927 
L 398.352785 162.657489 
L 398.487273 165.664948 
L 398.487273 165.664948 
" clip-path="url(#p363a0cc8a4)" style="fill: none; stroke: #1f77b4; stroke-width: 1.5; stroke-linecap: square"/>
   </g>
   <g id="line2d_13">
    <path d="M 73.832727 280.370653 
L 73.967215 280.027816 
L 74.37068 277.315749 
L 74.505168 278.358514 
L 74.639657 278.217645 
L 74.774145 279.005326 
L 74.908633 270.148283 
L 75.043121 231.557526 
L 75.177609 234.177024 
L 75.312098 245.520489 
L 75.446586 246.092987 
L 75.85005 249.234229 
L 75.984539 249.951405 
L 76.119027 249.568411 
L 76.388003 248.245863 
L 76.65698 280.130497 
L 76.791468 275.414778 
L 76.925956 274.817103 
L 77.060444 277.198828 
L 77.194933 262.452463 
L 77.463909 264.135289 
L 77.598397 262.84162 
L 77.732885 263.637884 
L 77.867374 252.299719 
L 78.001862 226.278371 
L 78.270838 126.051708 
L 78.405327 103.773467 
L 78.539815 107.952821 
L 78.674303 107.657669 
L 78.808791 101.33029 
L 78.943279 108.305726 
L 79.077768 108.274445 
L 79.481232 171.349686 
L 79.61572 192.955021 
L 79.884697 252.001682 
L 80.153673 263.406922 
L 80.288161 273.361203 
L 80.42265 261.840299 
L 80.557138 273.555117 
L 80.691626 272.417222 
L 80.826114 268.52202 
L 80.960603 268.635471 
L 81.095091 262.233196 
L 81.229579 243.017262 
L 81.498555 144.915528 
L 81.633044 162.291366 
L 81.767532 162.765038 
L 81.90202 153.378276 
L 82.036508 214.694503 
L 82.170996 216.276679 
L 82.305485 216.14472 
L 82.439973 217.969336 
L 82.574461 194.836312 
L 82.708949 222.882809 
L 82.977926 216.372134 
L 83.112414 223.509513 
L 83.246902 216.265571 
L 83.38139 216.249093 
L 83.515879 231.402657 
L 83.784855 272.958358 
L 83.919343 281.413316 
L 84.053831 281.241136 
L 84.18832 279.223029 
L 84.322808 216.24904 
L 84.457296 235.341423 
L 84.591784 216.24904 
L 84.860761 216.24904 
L 84.995249 216.548573 
L 85.264225 168.184185 
L 85.936666 213.585489 
L 86.340131 261.761827 
L 86.474619 264.352267 
L 86.609107 264.759013 
L 87.012572 288.503139 
L 87.14706 288.685136 
L 87.281549 286.222947 
L 87.416037 287.19636 
L 87.550525 287.167977 
L 87.685013 285.838943 
L 87.95399 247.6679 
L 88.088478 253.218097 
L 88.222966 251.359029 
L 88.491942 256.609362 
L 88.626431 252.432622 
L 88.760919 257.535891 
L 88.895407 251.170526 
L 89.298872 259.025354 
L 89.567848 278.266637 
L 89.702336 273.32515 
L 89.971313 277.257513 
L 90.105801 258.080958 
L 90.240289 258.192024 
L 90.374777 263.609376 
L 90.643754 262.565679 
L 90.778242 263.000304 
L 90.91273 265.332896 
L 91.047218 259.198131 
L 91.181707 245.454684 
L 91.316195 245.823604 
L 91.450683 241.48869 
L 91.585171 249.05497 
L 91.988636 253.48402 
L 92.123124 255.084482 
L 92.257612 258.154768 
L 92.392101 257.852369 
L 92.930053 268.202666 
L 93.064542 267.780548 
L 93.19903 268.542766 
L 93.333518 280.138416 
L 93.468006 278.94833 
L 93.602495 273.194542 
L 93.736983 272.625667 
L 93.871471 269.701542 
L 94.140447 254.864867 
L 94.409424 172.006871 
L 94.543912 174.196088 
L 94.812888 155.255089 
L 94.947377 155.026704 
L 95.216353 171.817004 
L 95.350841 168.845998 
L 95.48533 162.543606 
L 95.888794 249.528007 
L 96.023282 264.323503 
L 96.157771 266.728592 
L 96.292259 265.001642 
L 96.426747 271.807957 
L 96.561235 271.717097 
L 96.830212 265.607201 
L 96.9647 266.770647 
L 97.099188 265.292341 
L 97.233676 260.998368 
L 97.502653 216.04589 
L 97.637141 171.943964 
L 97.771629 173.828162 
L 97.906117 173.55043 
L 98.040606 184.455253 
L 98.309582 179.102044 
L 98.44407 179.955451 
L 98.578558 184.334843 
L 98.982023 226.124027 
L 99.250999 269.024654 
L 99.385488 269.440508 
L 99.519976 268.844255 
L 99.788952 286.102552 
L 99.923441 284.642459 
L 100.057929 277.512346 
L 100.192417 276.334907 
L 100.326905 276.820888 
L 100.595882 273.98599 
L 100.73037 274.236182 
L 100.864858 276.113014 
L 100.999346 274.789712 
L 101.133834 277.938157 
L 101.268323 278.210101 
L 101.402811 275.799571 
L 101.537299 267.275779 
L 101.671787 275.405816 
L 101.940764 264.490412 
L 102.075252 270.780971 
L 102.20974 271.858103 
L 102.344228 271.762626 
L 102.478717 273.922721 
L 102.613205 278.098283 
L 102.747693 274.188953 
L 102.882181 285.074104 
L 103.151158 257.457027 
L 103.285646 268.279657 
L 103.420134 267.636222 
L 103.823599 247.674339 
L 103.958087 219.713009 
L 104.092575 168.331928 
L 104.361552 154.209962 
L 104.49604 167.580611 
L 104.765016 140.648276 
L 105.033993 164.703037 
L 105.168481 174.329451 
L 105.840922 263.270506 
L 105.97541 254.215552 
L 106.244387 288.654641 
L 106.378875 288.534179 
L 106.647851 277.997607 
L 106.782339 280.252448 
L 106.916828 279.015184 
L 107.051316 279.681077 
L 107.320292 217.172819 
L 107.45478 226.87225 
L 107.589269 249.06469 
L 107.858245 245.81462 
L 108.127222 249.328816 
L 108.26171 249.397145 
L 108.396198 248.934862 
L 108.530686 247.58448 
L 108.665174 251.823367 
L 108.934151 278.970426 
L 109.203127 276.345653 
L 109.337615 276.662422 
L 109.472104 270.300547 
L 109.875568 272.607622 
L 110.010056 272.393654 
L 110.144545 272.697889 
L 110.279033 273.359885 
L 110.413521 272.123808 
L 110.548009 272.026752 
L 110.682498 272.871414 
L 110.951474 270.244122 
L 111.085962 270.625213 
L 111.22045 273.201128 
L 111.354939 273.161181 
L 111.758403 269.062511 
L 111.892891 270.089544 
L 112.02738 272.650253 
L 112.161868 272.961142 
L 112.430844 271.757078 
L 112.565333 272.79279 
L 112.699821 259.913657 
L 112.834309 260.94806 
L 112.968797 265.340395 
L 113.103285 264.752096 
L 113.237774 265.322329 
L 113.372262 264.949036 
L 113.641238 268.113339 
L 113.775726 268.966782 
L 113.910215 266.152075 
L 114.044703 265.969962 
L 114.179191 264.608197 
L 114.313679 258.738496 
L 114.448168 259.781833 
L 114.582656 261.820101 
L 114.717144 260.536703 
L 115.120609 252.369189 
L 115.389585 260.872298 
L 115.524073 261.49183 
L 115.658561 261.003411 
L 115.79305 263.143269 
L 116.062026 259.696581 
L 116.196514 254.364508 
L 116.331002 262.319722 
L 116.599979 258.182271 
L 116.734467 238.436278 
L 117.137932 83.287943 
L 117.27242 85.506596 
L 117.406908 81.089526 
L 117.541396 68.100641 
L 117.810373 79.014061 
L 117.944861 94.622164 
L 118.75179 246.991282 
L 119.020767 256.087191 
L 119.155255 252.795178 
L 119.289743 254.130601 
L 119.55872 249.198589 
L 119.693208 251.043979 
L 119.827696 249.421099 
L 119.962184 230.14079 
L 120.231161 123.789213 
L 120.500137 97.053754 
L 120.769114 83.047841 
L 120.903602 83.731728 
L 121.03809 85.178626 
L 121.172578 90.563081 
L 121.576043 177.462135 
L 121.710531 230.635211 
L 122.113996 247.402224 
L 122.248484 245.562424 
L 122.382972 246.713827 
L 122.51746 259.163011 
L 122.651948 259.258984 
L 122.920925 250.981611 
L 123.055413 246.908352 
L 123.189901 231.47224 
L 123.593366 96.969551 
L 123.862342 84.058599 
L 123.996831 79.268792 
L 124.131319 88.125583 
L 124.400295 113.875881 
L 124.534783 118.787639 
L 124.669272 136.207726 
L 125.072736 241.950144 
L 125.207225 257.39764 
L 125.476201 259.069586 
L 125.610689 254.828301 
L 125.879666 269.89085 
L 126.148642 262.240122 
L 126.417618 233.700569 
L 126.686595 130.267101 
L 126.955571 95.244379 
L 127.09006 82.980825 
L 127.224548 86.546479 
L 127.493524 109.6483 
L 127.628012 113.170273 
L 127.896989 156.173216 
L 128.300453 247.868145 
L 128.434942 255.786331 
L 128.56943 256.159311 
L 128.703918 257.458436 
L 128.838406 260.690571 
L 129.107383 256.96605 
L 129.241871 259.53431 
L 129.376359 258.765528 
L 129.645336 217.497002 
L 130.0488 86.67231 
L 130.183288 91.90455 
L 130.317777 83.239203 
L 130.452265 87.133304 
L 130.586753 121.522046 
L 130.855729 115.852608 
L 131.124706 167.659486 
L 131.393682 238.296045 
L 131.662659 259.491344 
L 131.797147 259.38254 
L 131.931635 263.823129 
L 132.200612 257.932971 
L 132.3351 260.976898 
L 132.469588 268.423933 
L 132.873053 264.331369 
L 133.142029 248.283185 
L 133.411005 238.449502 
L 133.545494 238.28451 
L 133.679982 236.943734 
L 133.948958 239.772524 
L 134.083447 235.456867 
L 134.755888 255.17017 
L 134.890376 256.194541 
L 135.024864 255.174689 
L 135.29384 260.789215 
L 135.562817 261.582546 
L 135.831793 263.921521 
L 135.966282 269.17459 
L 136.10077 269.197297 
L 136.235258 264.660445 
L 136.504234 268.012849 
L 136.638723 261.983904 
L 136.907699 263.892782 
L 137.042187 263.957123 
L 137.311164 254.481422 
L 137.445652 255.479452 
L 137.58014 257.709835 
L 137.714628 255.225086 
L 138.118093 261.088123 
L 138.252581 259.371593 
L 138.521558 266.042339 
L 138.790534 256.597101 
L 139.05951 261.045966 
L 139.328487 226.612397 
L 139.731951 87.228008 
L 139.86644 91.760689 
L 140.000928 82.451022 
L 140.135416 82.29537 
L 140.807857 154.823564 
L 140.942345 181.01221 
L 141.211322 252.190193 
L 141.34581 249.18928 
L 141.614786 267.44516 
L 141.749275 262.554057 
L 141.883763 264.354017 
L 142.287228 256.080719 
L 142.690692 166.136087 
L 142.959669 88.479296 
L 143.094157 100.428685 
L 143.363133 85.771359 
L 143.497621 96.362896 
L 143.63211 91.603056 
L 143.766598 98.959373 
L 144.304551 238.271787 
L 144.439039 242.457706 
L 144.842504 271.52809 
L 145.11148 261.169961 
L 145.245968 260.500247 
L 145.380456 261.897515 
L 145.514945 251.863517 
L 145.649433 219.204434 
L 145.783921 214.245997 
L 146.187386 95.521622 
L 146.321874 95.068055 
L 146.59085 108.562292 
L 146.725339 114.955251 
L 146.859827 112.134058 
L 147.263291 151.973108 
L 147.532268 243.568686 
L 148.070221 267.659412 
L 148.339197 265.686673 
L 148.742662 255.949846 
L 148.87715 253.843447 
L 149.146126 163.320226 
L 149.415103 104.230526 
L 149.549591 117.346313 
L 149.818567 103.229211 
L 150.222032 147.900865 
L 150.35652 146.630674 
L 150.491009 158.726419 
L 150.759985 244.22534 
L 151.297938 267.50203 
L 151.432426 263.327274 
L 151.566914 263.30438 
L 151.701402 264.140303 
L 151.970379 261.628866 
L 152.104867 257.234737 
L 152.64282 97.795435 
L 152.777308 123.380752 
L 153.046285 96.925865 
L 154.256678 269.40814 
L 154.391167 266.302268 
L 154.525655 272.795982 
L 154.660143 271.810344 
L 154.794631 271.756981 
L 154.92912 271.055018 
L 155.063608 271.288212 
L 155.332584 274.858382 
L 155.467072 273.346255 
L 155.601561 266.536477 
L 155.736049 251.915769 
L 156.274002 259.095383 
L 156.40849 257.860275 
L 156.677466 262.601763 
L 156.811955 261.674477 
L 157.349907 269.75861 
L 157.484396 270.514715 
L 157.618884 268.568018 
L 157.88786 271.091272 
L 158.022348 271.468868 
L 158.156837 270.631112 
L 158.291325 270.821135 
L 158.694789 277.705388 
L 158.829278 274.716443 
L 159.098254 276.667444 
L 159.232742 274.427295 
L 159.367231 274.286213 
L 159.501719 276.158401 
L 159.636207 274.515437 
L 159.905183 265.882754 
L 160.039672 266.899926 
L 160.17416 263.28827 
L 160.308648 263.537677 
L 160.443136 264.597691 
L 160.577624 269.15511 
L 160.712113 267.976102 
L 160.846601 264.959493 
L 160.981089 266.756528 
L 161.115577 266.686 
L 161.250066 268.989129 
L 161.65353 263.014134 
L 161.922507 229.90754 
L 162.325971 98.949279 
L 162.460459 86.182931 
L 162.594948 95.035136 
L 162.863924 84.62177 
L 163.132901 115.558577 
L 163.267389 126.49858 
L 163.805342 247.875592 
L 163.93983 248.008148 
L 164.208806 265.82185 
L 164.343294 261.242992 
L 164.477783 272.259385 
L 164.612271 272.956174 
L 164.746759 270.778886 
L 164.881247 258.518771 
L 165.284712 176.027255 
L 165.553688 106.428559 
L 165.688177 121.37362 
L 165.957153 102.619479 
L 166.091641 115.856297 
L 166.226129 114.952798 
L 166.360618 111.638431 
L 166.495106 117.944121 
L 166.629594 135.288691 
L 166.89857 240.04272 
L 167.033059 244.725244 
L 167.167547 243.232883 
L 167.436523 257.168276 
L 167.571012 255.881381 
L 167.839988 261.787459 
L 168.108964 259.357196 
L 168.243453 246.214217 
L 168.377941 219.546757 
L 168.781405 96.713252 
L 168.915894 111.948461 
L 169.18487 98.661498 
L 169.319358 107.664826 
L 169.453847 96.706049 
L 169.588335 104.528959 
L 170.126288 235.932328 
L 170.395264 256.403735 
L 170.798729 264.495686 
L 171.067705 259.087171 
L 171.202193 258.781713 
L 171.336681 261.550007 
L 171.740146 172.366805 
L 172.009123 99.869164 
L 172.143611 109.316454 
L 172.278099 110.655307 
L 172.412587 97.618896 
L 172.547075 96.654819 
L 173.085028 156.326826 
L 173.488493 250.124692 
L 173.891958 270.980567 
L 174.026446 285.270218 
L 174.42991 271.340882 
L 174.564399 271.310838 
L 174.967863 216.121665 
L 175.23684 155.382865 
L 175.505816 139.375702 
L 175.640304 140.982301 
L 175.774792 153.648126 
L 176.043769 157.259857 
L 176.447234 199.661731 
L 176.71621 257.170249 
L 177.119675 268.257233 
L 177.254163 266.220406 
L 177.388651 268.080174 
L 177.523139 266.490748 
L 177.657627 268.179098 
L 177.792116 271.492194 
L 178.061092 272.061325 
L 178.330069 257.089248 
L 178.464557 259.856137 
L 178.733533 251.748819 
L 179.00251 258.95309 
L 179.271486 255.673087 
L 179.405974 258.151577 
L 179.674951 256.601253 
L 180.078415 269.203463 
L 180.212904 266.383327 
L 180.347392 267.327339 
L 180.616368 276.517553 
L 180.885345 272.64733 
L 181.019833 273.362811 
L 181.154321 273.229197 
L 181.557786 261.014386 
L 181.692274 262.316304 
L 181.826762 261.851916 
L 181.96125 264.360378 
L 182.095738 258.283188 
L 182.230227 260.797789 
L 182.499203 269.422717 
L 182.633691 270.754779 
L 182.76818 274.439706 
L 182.902668 273.87968 
L 183.037156 272.819988 
L 183.171644 277.088741 
L 183.306132 277.198407 
L 183.440621 276.565793 
L 183.575109 279.385202 
L 183.709597 273.359354 
L 183.978573 289.963957 
L 184.113062 287.408991 
L 184.24755 280.136416 
L 184.516526 256.953723 
L 184.785503 173.925587 
L 184.919991 176.311532 
L 185.054479 172.855165 
L 185.188967 182.782086 
L 185.323456 180.283247 
L 185.457944 180.599274 
L 185.861408 207.423754 
L 186.130385 239.040375 
L 186.399361 261.599089 
L 186.937314 283.611428 
L 187.071802 294.244948 
L 187.206291 293.525622 
L 187.340779 286.364454 
L 187.475267 285.671515 
L 187.609755 279.624937 
L 187.744243 263.727327 
L 188.01322 174.249798 
L 188.147708 178.603237 
L 188.282196 176.514742 
L 188.820149 198.763 
L 188.954637 196.27179 
L 189.089126 203.868849 
L 189.627078 268.676236 
L 189.761567 267.06731 
L 189.896055 267.059182 
L 190.030543 278.562445 
L 190.299519 268.984052 
L 190.434008 268.238764 
L 190.568496 263.994904 
L 190.702984 263.711502 
L 190.971961 266.87537 
L 191.106449 266.074272 
L 191.240937 258.946501 
L 191.375425 259.196309 
L 191.509913 263.732257 
L 191.644402 258.924666 
L 191.913378 265.61612 
L 192.047866 265.466126 
L 192.182354 262.251904 
L 192.316843 261.702824 
L 192.451331 264.804665 
L 192.585819 265.092592 
L 192.720307 266.374269 
L 192.854796 271.883537 
L 192.989284 271.057555 
L 193.123772 269.274516 
L 193.25826 271.383312 
L 193.527237 263.908598 
L 193.661725 264.925626 
L 193.796213 264.929533 
L 193.930701 263.258417 
L 194.199678 245.022009 
L 194.468654 165.24783 
L 195.006607 144.806207 
L 195.141095 145.256469 
L 195.275583 156.653155 
L 195.410072 150.540194 
L 195.679048 182.765003 
L 196.082513 260.082143 
L 196.217001 263.567723 
L 196.351489 259.329528 
L 196.620465 277.745338 
L 197.292907 261.339391 
L 197.427395 247.759005 
L 197.696371 176.870975 
L 197.965348 189.170742 
L 198.234324 195.752695 
L 198.368812 200.788786 
L 198.637789 192.226411 
L 199.041253 238.737558 
L 199.31023 274.594715 
L 199.579206 273.393996 
L 199.848183 281.387017 
L 200.117159 277.888464 
L 200.251647 278.156841 
L 200.386135 275.454176 
L 200.520624 267.296418 
L 200.655112 267.076568 
L 200.7896 250.081266 
L 200.924088 187.453975 
L 201.596529 200.352064 
L 201.865506 191.260356 
L 201.999994 199.122768 
L 202.537947 270.520178 
L 202.672435 268.617671 
L 202.806923 269.765227 
L 202.941411 275.813367 
L 203.210388 262.325137 
L 203.344876 268.087312 
L 203.479364 268.264577 
L 203.882829 253.299738 
L 204.017317 229.591294 
L 204.286294 160.751123 
L 204.420782 157.789876 
L 204.55527 159.629278 
L 204.689758 157.162116 
L 204.824246 163.778109 
L 204.958735 161.256058 
L 205.227711 189.089035 
L 205.765664 260.498805 
L 205.900152 263.161204 
L 206.03464 260.849553 
L 206.169129 269.518801 
L 206.303617 288.425292 
L 206.438105 286.755993 
L 206.572593 282.742493 
L 206.707081 282.77561 
L 206.976058 279.773153 
L 207.514011 250.533007 
L 207.648499 254.075034 
L 207.917475 270.705596 
L 208.051964 273.029306 
L 208.186452 272.570039 
L 208.455428 266.524997 
L 208.993381 279.289672 
L 209.127869 280.523736 
L 209.262357 279.185862 
L 209.396846 282.572425 
L 209.531334 270.946977 
L 209.80031 270.144617 
L 209.934799 268.347629 
L 210.069287 268.778796 
L 210.472751 204.311602 
L 210.741728 148.737491 
L 211.010704 122.706582 
L 211.145192 111.680028 
L 211.414169 144.672497 
L 211.548657 147.959154 
L 211.817634 189.50763 
L 212.221098 260.207272 
L 212.355586 262.064047 
L 212.490075 257.46576 
L 212.759051 272.991359 
L 212.893539 274.70011 
L 213.162516 266.023003 
L 213.297004 269.118958 
L 213.56598 233.390337 
L 213.969445 119.907169 
L 214.103933 143.447675 
L 214.37291 135.448364 
L 215.179839 226.443116 
L 215.448815 269.699892 
L 215.583303 262.487351 
L 215.717792 263.997664 
L 215.85228 270.950053 
L 215.986768 269.958618 
L 216.121256 270.326051 
L 216.390233 266.371879 
L 216.524721 268.595267 
L 216.793697 242.908274 
L 217.062674 141.418558 
L 217.197162 133.482302 
L 217.33165 150.670402 
L 217.466138 149.803682 
L 217.735115 160.515713 
L 217.869603 148.077859 
L 218.004091 162.492416 
L 218.273068 208.427537 
L 218.407556 217.733073 
L 218.676532 268.248307 
L 218.811021 267.3569 
L 218.945509 270.830964 
L 219.214485 266.795547 
L 219.483462 272.589934 
L 219.752438 274.461188 
L 220.021414 243.125335 
L 220.290391 141.883952 
L 220.424879 144.99736 
L 220.559367 157.383405 
L 220.693856 148.531244 
L 220.828344 147.811038 
L 220.962832 161.866917 
L 221.09732 161.587749 
L 221.366297 201.452978 
L 221.500785 203.495025 
L 221.635273 219.278604 
L 221.904249 269.063095 
L 222.038738 265.510984 
L 222.307714 273.618375 
L 222.442202 271.324117 
L 222.711179 276.825701 
L 222.845667 276.588214 
L 222.980155 277.365158 
L 223.114643 274.577031 
L 223.249132 276.714937 
L 223.518108 247.976345 
L 223.787084 262.46527 
L 224.056061 253.833826 
L 224.325037 257.155466 
L 224.459525 260.852753 
L 224.594014 260.858483 
L 224.86299 257.528803 
L 225.131967 263.622538 
L 225.266455 263.653878 
L 225.400943 261.568168 
L 225.535431 263.856015 
L 225.669919 262.865467 
L 225.804408 259.534856 
L 226.207872 267.525378 
L 226.34236 268.115342 
L 226.476849 269.336814 
L 226.611337 268.788648 
L 226.880313 264.700867 
L 227.14929 271.440757 
L 227.283778 271.175386 
L 227.418266 270.277082 
L 227.687243 274.594665 
L 227.821731 274.382337 
L 227.956219 273.709704 
L 228.090707 273.772133 
L 228.225195 279.425294 
L 228.494172 277.638848 
L 228.62866 275.886062 
L 228.763148 281.692642 
L 228.897637 279.720157 
L 229.166613 271.887409 
L 229.301101 271.893189 
L 229.435589 270.64771 
L 229.570078 257.152341 
L 229.704566 229.546789 
L 230.10803 106.542932 
L 230.242519 100.023046 
L 230.377007 100.154985 
L 230.511495 84.889333 
L 230.780471 125.144364 
L 230.91496 120.703961 
L 231.721889 257.869741 
L 231.856377 261.307582 
L 231.990865 272.779282 
L 232.125354 272.752228 
L 232.259842 270.619682 
L 232.39433 270.800187 
L 232.528818 271.977819 
L 232.663306 267.509829 
L 232.932283 231.974092 
L 233.335748 117.51563 
L 233.470236 123.910905 
L 233.604724 136.117938 
L 233.739212 133.437906 
L 233.8737 143.401548 
L 234.008189 135.803836 
L 234.142677 144.096441 
L 234.411653 200.158092 
L 234.546141 212.258647 
L 234.815118 269.229392 
L 234.949606 267.166231 
L 235.084094 262.529763 
L 235.218583 273.452708 
L 235.353071 272.931179 
L 235.487559 274.535552 
L 235.622047 278.867384 
L 235.891024 270.556153 
L 236.16 244.30898 
L 236.428976 137.052075 
L 236.563465 118.288319 
L 236.697953 128.243993 
L 236.832441 124.778695 
L 236.966929 113.13142 
L 237.63937 203.859104 
L 238.042835 269.63976 
L 238.311811 265.268841 
L 238.4463 274.619686 
L 238.580788 273.880956 
L 238.715276 274.523658 
L 238.984252 283.113723 
L 239.118741 278.192143 
L 239.253229 267.775467 
L 239.387717 240.585362 
L 239.656694 141.225288 
L 239.791182 126.214955 
L 239.92567 123.783391 
L 240.060158 135.554664 
L 240.194646 135.897629 
L 240.329135 142.338469 
L 240.598111 171.897072 
L 240.867087 198.892494 
L 241.270552 258.04015 
L 241.40504 259.703593 
L 241.539529 259.434323 
L 241.674017 267.021714 
L 241.808505 264.116155 
L 241.942993 277.294195 
L 242.077481 278.798029 
L 242.21197 284.196681 
L 242.346458 279.746042 
L 242.615434 239.461924 
L 242.884411 139.349806 
L 243.018899 135.567711 
L 243.153387 162.906707 
L 243.422363 138.93059 
L 243.69134 156.58693 
L 243.960316 184.171892 
L 244.229293 237.8244 
L 244.498269 263.021133 
L 244.767246 265.742867 
L 245.036222 271.927003 
L 245.17071 275.044978 
L 245.574175 272.440039 
L 245.708663 270.167012 
L 245.843151 253.594709 
L 246.112128 264.042034 
L 246.381104 258.850809 
L 246.515592 257.234346 
L 246.650081 259.145208 
L 247.053545 270.673188 
L 247.188033 270.42423 
L 247.45701 273.429994 
L 247.591498 273.641228 
L 247.725986 273.140157 
L 247.860475 275.053906 
L 247.994963 273.2866 
L 248.129451 274.651715 
L 248.263939 274.721153 
L 248.532916 272.784202 
L 248.667404 271.647617 
L 248.801892 273.044 
L 248.93638 272.766878 
L 249.070868 272.917015 
L 249.474333 275.657027 
L 249.743309 275.361471 
L 250.012286 276.798458 
L 250.146774 276.641639 
L 250.281262 275.911177 
L 250.415751 276.484574 
L 250.550239 276.545031 
L 250.684727 275.305082 
L 250.819215 275.514287 
L 251.088192 275.111778 
L 251.22268 273.194159 
L 251.357168 276.428511 
L 251.491656 274.799522 
L 251.626144 286.907899 
L 251.760633 285.266883 
L 252.029609 278.320398 
L 252.298586 252.514535 
L 252.567562 143.620093 
L 252.70205 130.444436 
L 252.836538 141.143635 
L 252.971027 163.675725 
L 253.105515 156.491648 
L 253.240003 161.355102 
L 253.508979 179.275404 
L 253.643468 182.339403 
L 254.181421 267.173195 
L 254.315909 269.325399 
L 254.450397 274.87469 
L 254.584885 285.954664 
L 254.719373 283.877111 
L 254.853862 287.332455 
L 255.122838 283.813911 
L 255.257326 283.205222 
L 255.660791 191.135682 
L 255.795279 147.423361 
L 256.064255 173.13376 
L 256.333232 156.907854 
L 256.602208 164.776567 
L 256.736697 168.448927 
L 257.274649 247.706039 
L 257.543626 262.325374 
L 257.678114 261.073186 
L 257.812602 268.939069 
L 257.94709 267.011965 
L 258.216067 285.20286 
L 258.485043 275.376621 
L 258.75402 245.429897 
L 259.022996 149.520532 
L 259.291973 169.195883 
L 259.426461 163.852188 
L 259.560949 151.362176 
L 259.695437 159.309784 
L 259.829925 175.813278 
L 259.964414 161.840603 
L 260.098902 176.994449 
L 260.502366 244.6606 
L 260.636855 258.156884 
L 260.905831 261.191912 
L 261.040319 268.065398 
L 261.174808 264.276022 
L 261.309296 270.291042 
L 261.443784 270.203309 
L 261.578272 271.477088 
L 261.847249 260.099511 
L 261.981737 235.691412 
L 262.250713 145.778684 
L 262.51969 165.41174 
L 262.654178 143.498049 
L 262.788666 146.152978 
L 262.923154 158.279174 
L 263.057643 153.956372 
L 263.864572 250.451155 
L 264.268036 262.356804 
L 264.402525 268.90764 
L 264.671501 262.408967 
L 264.805989 260.619177 
L 265.074966 253.429872 
L 265.209454 238.605416 
L 265.747407 111.89729 
L 266.016383 112.243553 
L 266.28536 120.533579 
L 266.419848 120.813253 
L 266.688824 163.725594 
L 267.092289 254.427795 
L 267.361265 254.318956 
L 267.495754 257.780374 
L 267.630242 271.053546 
L 267.76473 270.029572 
L 268.033706 266.528177 
L 268.302683 273.836383 
L 268.437171 273.974022 
L 268.571659 269.284035 
L 268.840636 274.603949 
L 268.975124 270.896211 
L 269.109612 270.716261 
L 269.2441 271.284857 
L 269.378589 271.042317 
L 269.782053 262.814652 
L 270.05103 260.161109 
L 270.320006 261.402903 
L 270.454494 261.43793 
L 270.588982 263.258708 
L 270.723471 266.97628 
L 270.857959 279.897202 
L 270.992447 280.328811 
L 271.126935 274.678672 
L 271.395912 274.59906 
L 271.5304 273.935371 
L 271.933865 277.955371 
L 272.068353 276.539369 
L 272.471817 278.831839 
L 272.606306 278.719938 
L 272.740794 276.699889 
L 273.00977 279.741003 
L 273.144258 278.620956 
L 273.278747 276.195903 
L 273.413235 276.022513 
L 273.547723 276.99004 
L 273.682211 276.97805 
L 273.8167 275.674258 
L 273.951188 281.818141 
L 274.085676 278.33313 
L 274.220164 292.817803 
L 274.354652 293.52184 
L 274.623629 283.531503 
L 274.892605 253.346155 
L 275.161582 175.633925 
L 275.430558 155.016182 
L 275.565046 156.434443 
L 275.699535 155.050051 
L 275.834023 155.064944 
L 276.102999 184.568337 
L 276.237487 194.409825 
L 276.506464 236.555628 
L 276.909928 267.440741 
L 277.044417 267.662916 
L 277.178905 276.924302 
L 277.313393 274.575338 
L 277.447881 280.94425 
L 277.58237 281.014656 
L 277.716858 283.11937 
L 277.851346 282.185749 
L 277.985834 275.196041 
L 278.120322 261.058595 
L 278.389299 199.560718 
L 278.523787 192.654928 
L 278.658275 177.35757 
L 278.792763 180.43528 
L 278.927252 175.879567 
L 279.06174 192.654063 
L 279.196228 190.862607 
L 279.330716 192.872792 
L 280.137646 270.756271 
L 280.272134 271.985017 
L 280.406622 283.066571 
L 280.675598 262.557836 
L 280.944575 264.069319 
L 281.079063 260.657015 
L 281.348039 244.230183 
L 281.751504 135.292849 
L 281.885992 123.058585 
L 282.020481 126.255951 
L 282.289457 140.571122 
L 282.423945 124.361906 
L 282.558433 133.234567 
L 283.230874 264.799099 
L 283.499851 260.433028 
L 283.634339 268.001737 
L 284.037804 257.041459 
L 284.172292 257.209308 
L 284.30678 255.763488 
L 284.575757 243.269482 
L 284.979221 148.226851 
L 285.113709 154.881968 
L 285.382686 138.725516 
L 285.517174 139.36487 
L 285.78615 154.712406 
L 285.920639 160.908092 
L 286.324103 248.514912 
L 286.458592 259.931993 
L 286.59308 260.388193 
L 286.727568 260.269454 
L 286.862056 265.414036 
L 286.996544 288.43224 
L 287.131033 287.31887 
L 287.400009 273.860986 
L 287.803474 264.422375 
L 287.937962 266.434803 
L 288.07245 266.554116 
L 288.206938 267.210979 
L 288.341427 265.114529 
L 288.475915 266.895345 
L 288.610403 265.728789 
L 288.879379 267.959948 
L 289.148356 275.180082 
L 289.282844 271.317287 
L 289.55182 280.863225 
L 289.686309 280.000611 
L 289.955285 276.563945 
L 290.089773 277.815861 
L 290.224262 275.567197 
L 290.35875 276.424115 
L 290.493238 275.081464 
L 290.627726 275.475758 
L 290.762214 273.217966 
L 291.165679 248.935966 
L 291.434655 171.285997 
L 291.703632 187.736719 
L 291.83812 193.302453 
L 292.107096 179.064165 
L 292.645049 228.567322 
L 292.914026 266.799561 
L 293.048514 266.086869 
L 293.183002 267.28678 
L 293.31749 272.453142 
L 293.586467 268.263174 
L 293.720955 266.268295 
L 293.855443 268.423862 
L 293.989931 268.382912 
L 294.393396 234.285995 
L 294.662373 168.957827 
L 295.065837 139.72051 
L 295.200325 141.23627 
L 295.334814 158.281349 
L 295.469302 153.489689 
L 295.738278 198.173738 
L 295.872766 209.093606 
L 296.141743 262.146696 
L 296.276231 261.36033 
L 296.410719 256.607803 
L 296.545208 268.781779 
L 296.679696 292.058956 
L 296.814184 290.51946 
L 297.08316 280.134084 
L 297.352137 278.537769 
L 297.486625 278.317256 
L 297.621113 279.189261 
L 297.755601 278.753347 
L 297.89009 279.341359 
L 298.159066 276.722838 
L 298.293554 278.723023 
L 298.428042 278.97731 
L 298.562531 278.189186 
L 298.697019 275.757604 
L 299.234972 277.261547 
L 299.36946 279.352257 
L 299.503948 279.192446 
L 299.638436 276.639835 
L 299.772925 281.974682 
L 299.907413 265.017408 
L 300.176389 268.255194 
L 300.310877 267.71967 
L 300.445366 265.711161 
L 300.714342 242.478187 
L 301.117807 146.628663 
L 301.386783 126.072076 
L 301.521271 128.397402 
L 301.65576 145.990662 
L 301.790248 137.432158 
L 301.924736 148.366155 
L 302.193712 199.465269 
L 302.328201 212.963959 
L 302.597177 256.80078 
L 302.731665 258.722997 
L 302.866153 256.17402 
L 303.13513 272.5693 
L 303.404106 262.765916 
L 303.538595 264.432428 
L 303.673083 263.415066 
L 304.076547 200.945847 
L 304.211036 154.022953 
L 304.480012 162.044858 
L 304.748988 151.908652 
L 304.883477 162.158975 
L 305.017965 155.805196 
L 305.152453 163.670404 
L 305.42143 211.28967 
L 305.555918 219.961794 
L 305.824894 259.292767 
L 305.959382 264.294911 
L 306.093871 261.595115 
L 306.228359 270.524363 
L 306.362847 267.787164 
L 306.497335 277.290787 
L 306.631823 277.528366 
L 306.9008 271.225553 
L 307.035288 261.519486 
L 307.169776 241.320502 
L 307.438753 144.953053 
L 307.707729 173.125786 
L 307.842217 156.004032 
L 307.976706 154.054109 
L 308.111194 164.085884 
L 308.245682 158.536553 
L 308.38017 166.016088 
L 309.052611 264.888313 
L 309.187099 268.248725 
L 309.321588 265.701695 
L 309.456076 276.537064 
L 309.590564 275.297235 
L 309.725052 276.203389 
L 310.128517 271.517618 
L 310.263005 262.992765 
L 310.397493 238.271141 
L 310.66647 145.398219 
L 310.935446 170.730715 
L 311.204423 154.157922 
L 311.473399 167.453694 
L 311.607887 162.740167 
L 312.280328 263.816334 
L 312.414817 264.131333 
L 312.549305 262.204902 
L 312.683793 270.099204 
L 312.952769 271.700458 
L 313.087258 269.160524 
L 313.221746 269.78712 
L 313.356234 269.262722 
L 313.490722 270.358608 
L 313.894187 246.656841 
L 314.028675 254.25221 
L 314.163163 254.698251 
L 314.297652 256.174713 
L 314.43214 254.555554 
L 314.701116 264.431678 
L 314.835604 264.307998 
L 315.104581 270.857055 
L 315.373557 269.918852 
L 315.508045 271.96649 
L 315.642534 271.547852 
L 315.777022 270.640982 
L 316.045998 271.349261 
L 316.180487 270.980975 
L 316.314975 271.242997 
L 316.449463 269.718806 
L 316.718439 270.26589 
L 316.987416 272.042572 
L 317.121904 270.815853 
L 317.256392 271.501058 
L 317.39088 271.064625 
L 317.525369 272.062015 
L 317.659857 271.29682 
L 317.794345 273.305952 
L 318.063322 271.834884 
L 318.19781 271.66545 
L 318.332298 271.147209 
L 318.466786 269.724984 
L 318.601274 270.452592 
L 318.735763 269.734732 
L 318.870251 269.99341 
L 319.004739 268.810013 
L 319.139227 271.608605 
L 319.273715 269.537282 
L 319.408204 283.026634 
L 319.542692 282.175229 
L 319.946157 268.240094 
L 320.080645 251.948847 
L 320.349621 144.381556 
L 320.618598 126.539283 
L 320.887574 147.866464 
L 321.022062 153.696899 
L 321.560015 196.987358 
L 321.96348 266.480404 
L 322.232456 262.50669 
L 322.366944 271.753876 
L 322.501433 270.48348 
L 322.635921 281.881962 
L 322.770409 281.919367 
L 323.039385 273.930331 
L 323.308362 255.664903 
L 323.577338 146.577707 
L 323.846315 174.629347 
L 324.115291 148.464765 
L 324.518756 166.127703 
L 325.191197 265.649311 
L 325.460173 260.604139 
L 325.594661 270.41391 
L 325.72915 269.842829 
L 325.998126 279.955614 
L 326.267103 275.110755 
L 326.401591 267.471218 
L 326.536079 251.133816 
L 326.805055 142.117227 
L 327.074032 176.359551 
L 327.20852 155.234712 
L 327.343008 154.926619 
L 327.477496 168.913043 
L 327.611985 168.2583 
L 327.746473 169.045292 
L 327.880961 182.112115 
L 328.149937 227.614154 
L 328.553402 262.62358 
L 328.68789 263.983497 
L 328.822379 275.466338 
L 328.956867 274.190965 
L 329.091355 284.451347 
L 329.225843 282.602748 
L 329.49482 274.174854 
L 329.763796 249.187352 
L 330.032772 154.7084 
L 330.167261 160.379598 
L 330.301749 173.707043 
L 330.570725 157.665566 
L 330.705214 157.780914 
L 330.97419 189.217692 
L 331.108678 190.90021 
L 331.243166 201.127407 
L 331.646631 261.598438 
L 331.781119 263.235325 
L 331.915607 261.216824 
L 332.319072 282.974405 
L 332.45356 281.444391 
L 332.588049 274.161678 
L 332.722537 273.022899 
L 332.991513 248.402556 
L 333.26049 151.510734 
L 333.394978 160.004643 
L 333.529466 180.456359 
L 333.663954 162.420622 
L 333.798442 159.720318 
L 334.201907 184.382311 
L 334.470883 203.230523 
L 334.73986 257.607969 
L 334.874348 263.836527 
L 335.008836 264.518002 
L 335.143325 267.407822 
L 335.277813 276.425835 
L 335.681277 270.028332 
L 335.815766 269.052497 
L 336.084742 271.487789 
L 336.21923 268.189406 
L 336.488207 258.247595 
L 336.757183 250.623551 
L 336.891671 253.993435 
L 337.02616 253.44434 
L 337.698601 266.792494 
L 337.833089 268.045995 
L 337.967577 267.608083 
L 338.236553 270.937102 
L 338.371042 269.472334 
L 338.50553 270.678348 
L 338.640018 267.032221 
L 338.774506 266.878912 
L 338.908995 267.480063 
L 339.043483 266.876656 
L 339.177971 267.096796 
L 339.581436 270.176772 
L 339.715924 269.714806 
L 339.850412 268.484857 
L 339.9849 269.802945 
L 340.119388 269.79779 
L 340.388365 270.184574 
L 340.522853 272.331307 
L 340.657341 270.690004 
L 340.926318 272.663075 
L 341.060806 272.406015 
L 341.195294 269.428846 
L 341.464271 273.1767 
L 341.598759 271.35552 
L 341.733247 274.725201 
L 341.867735 274.743969 
L 342.002223 284.283219 
L 342.136712 282.566255 
L 342.2712 277.698957 
L 342.405688 276.983516 
L 342.674664 251.990559 
L 343.078129 136.310445 
L 343.347106 170.863577 
L 343.481594 162.69645 
L 344.019547 197.050798 
L 344.154035 200.343944 
L 344.423011 257.471324 
L 344.826476 266.603539 
L 344.960964 275.693483 
L 345.095452 273.488072 
L 345.22994 280.416527 
L 345.364429 279.778172 
L 345.633405 275.901001 
L 345.902382 254.366075 
L 346.171358 156.046945 
L 346.440334 176.345795 
L 346.574823 167.333331 
L 346.709311 165.963767 
L 347.247264 188.531883 
L 347.785217 260.20915 
L 348.054193 265.021321 
L 348.188681 275.416282 
L 348.323169 272.510524 
L 348.457658 282.259937 
L 348.592146 281.398383 
L 348.861122 276.45134 
L 349.130099 249.372418 
L 349.399075 153.72029 
L 349.533563 167.149481 
L 349.668052 167.627761 
L 349.80254 159.997243 
L 349.937028 160.457104 
L 350.474981 192.536158 
L 351.012934 259.941923 
L 351.147422 265.669952 
L 351.28191 265.858753 
L 351.416398 274.955484 
L 351.550886 274.887141 
L 351.685375 286.355168 
L 352.223328 271.263584 
L 352.357816 256.201473 
L 352.626792 150.543892 
L 352.895769 175.147453 
L 353.164745 163.638509 
L 353.433721 174.088798 
L 353.702698 163.305301 
L 354.106163 250.182473 
L 354.240651 268.316999 
L 354.375139 270.152447 
L 354.509627 268.146294 
L 354.778604 278.446934 
L 354.913092 280.952285 
L 355.316556 275.753613 
L 355.451045 269.686962 
L 355.585533 251.363484 
L 355.854509 172.831517 
L 355.988998 177.597606 
L 356.257974 151.044501 
L 356.930415 188.92001 
L 357.33388 254.893127 
L 357.468368 273.99357 
L 357.737344 271.534703 
L 358.006321 280.178873 
L 358.275297 276.472022 
L 358.409785 277.373799 
L 358.544274 276.826408 
L 358.81325 274.959935 
L 359.082226 257.166416 
L 359.216715 254.279643 
L 359.351203 254.171738 
L 359.485691 251.98273 
L 359.620179 245.56912 
L 359.889156 263.819571 
L 360.023644 261.582875 
L 360.427109 277.431999 
L 360.696085 276.436562 
L 360.830573 277.572881 
L 360.965061 277.451713 
L 361.09955 278.961696 
L 361.503014 276.216492 
L 361.637502 277.683457 
L 361.771991 277.438351 
L 361.906479 276.797721 
L 362.175455 279.664613 
L 362.444432 280.761642 
L 362.713408 276.935534 
L 362.982385 278.737221 
L 363.116873 279.109549 
L 363.251361 278.458183 
L 363.385849 278.846574 
L 363.520337 280.106113 
L 363.789314 278.013473 
L 363.923802 277.948633 
L 364.05829 277.010307 
L 364.192778 282.921954 
L 364.327267 241.639986 
L 364.461755 239.396512 
L 364.596243 248.632261 
L 364.86522 251.783641 
L 364.999708 248.127131 
L 365.268684 191.104383 
L 365.537661 120.459776 
L 365.672149 105.123384 
L 365.806637 109.640068 
L 365.941125 102.906408 
L 366.075613 108.999669 
L 366.210102 122.586229 
L 366.34459 122.301775 
L 366.479078 127.41505 
L 366.613566 152.619466 
L 366.882543 241.547702 
L 367.151519 257.097896 
L 367.286007 257.221896 
L 367.554984 265.296178 
L 367.689472 268.464473 
L 367.82396 265.075865 
L 368.092937 267.045985 
L 368.765378 94.247018 
L 368.899866 98.947047 
L 369.034354 103.129542 
L 369.168842 86.289989 
L 369.706795 112.260217 
L 369.841283 139.661148 
L 370.11026 238.574876 
L 370.513724 254.290601 
L 370.648213 265.382604 
L 370.782701 290.009237 
L 370.917189 289.014307 
L 371.186166 276.149163 
L 371.320654 274.003137 
L 371.58963 243.428391 
L 371.858607 153.615677 
L 371.993095 153.673338 
L 372.262071 207.035423 
L 372.396559 195.507675 
L 372.665536 201.432605 
L 372.800024 196.434353 
L 372.934512 206.455619 
L 373.203489 235.195864 
L 373.606953 261.025466 
L 373.741442 262.585485 
L 374.144906 295.488 
L 374.548371 282.901929 
L 374.817347 250.425132 
L 375.086324 183.140715 
L 375.3553 170.347143 
L 375.624277 177.348288 
L 375.758765 178.17484 
L 376.162229 201.349424 
L 376.431206 236.817388 
L 376.700182 265.486192 
L 376.969159 264.412973 
L 377.238135 287.104548 
L 377.776088 271.886244 
L 377.910576 276.80473 
L 378.179553 271.191707 
L 378.314041 254.871067 
L 378.448529 255.660694 
L 378.583017 248.604507 
L 378.851994 256.022522 
L 378.986482 265.325252 
L 379.255458 267.253313 
L 379.389947 271.953579 
L 379.524435 272.195886 
L 379.793411 278.357293 
L 379.927899 278.575224 
L 380.062388 279.288001 
L 380.196876 277.214713 
L 380.331364 278.032648 
L 380.465852 265.801823 
L 380.60034 265.287234 
L 380.869317 269.867694 
L 381.003805 269.278707 
L 381.40727 217.037416 
L 381.541758 150.598567 
L 381.676246 142.189904 
L 381.810734 147.363744 
L 381.945223 135.980818 
L 382.079711 139.776519 
L 382.348687 152.104466 
L 382.483175 147.306633 
L 383.155616 265.767623 
L 383.290105 266.240335 
L 383.424593 265.184253 
L 383.559081 269.878009 
L 383.828058 259.650693 
L 383.962546 259.740176 
L 384.097034 259.511234 
L 384.231522 260.215415 
L 384.36601 256.744697 
L 384.500499 257.913558 
L 384.903963 156.268534 
L 385.038451 158.238922 
L 385.17294 142.827262 
L 385.307428 146.970366 
L 385.441916 172.709545 
L 385.576404 167.757705 
L 385.710893 167.454086 
L 385.979869 209.415651 
L 386.383334 265.445439 
L 386.517822 265.345112 
L 386.65231 269.02373 
L 386.921286 284.072794 
L 387.055775 282.607046 
L 387.190263 276.409479 
L 387.324751 275.655658 
L 387.593727 271.799581 
L 387.728216 273.82544 
L 387.862704 272.503031 
L 387.997192 274.72855 
L 388.13168 273.446841 
L 388.266169 276.962525 
L 388.400657 276.607014 
L 388.535145 274.181359 
L 388.93861 279.453942 
L 389.073098 277.571773 
L 389.342074 281.833254 
L 389.611051 287.579958 
L 389.880027 283.075711 
L 390.014515 288.333007 
L 390.149004 263.173624 
L 390.283492 260.371184 
L 390.41798 263.984981 
L 390.552468 263.80486 
L 390.686956 261.957808 
L 390.821445 250.221643 
L 390.955933 249.699551 
L 391.090421 237.144754 
L 391.224909 178.350327 
L 391.493886 158.072795 
L 391.628374 158.820961 
L 391.89735 177.237121 
L 392.031839 177.879137 
L 392.166327 173.72966 
L 392.435303 202.748113 
L 392.838768 275.037577 
L 393.107744 268.921567 
L 393.242232 275.699505 
L 393.511209 259.039083 
L 393.780185 268.288997 
L 393.914673 258.401025 
L 394.049162 258.332422 
L 394.18365 244.788518 
L 394.587115 152.632923 
L 394.721603 154.469732 
L 394.856091 143.579435 
L 394.990579 143.305729 
L 395.125067 148.779105 
L 395.259556 148.186998 
L 396.200973 261.087386 
L 396.335461 259.58121 
L 396.46995 259.70498 
L 396.604438 290.650815 
L 396.738926 291.67564 
L 397.007902 280.363464 
L 397.142391 280.57059 
L 397.411367 251.806313 
L 397.680343 162.834848 
L 397.814832 173.748417 
L 398.218296 154.601586 
L 398.352785 168.461646 
L 398.487273 169.993955 
L 398.487273 169.993955 
" clip-path="url(#p363a0cc8a4)" style="fill: none; stroke: #ff7f0e; stroke-width: 1.5; stroke-linecap: square"/>
   </g>
   <g id="patch_3">
    <path d="M 57.6 307.584 
L 57.6 41.472 
" style="fill: none; stroke: #000000; stroke-width: 0.8; stroke-linejoin: miter; stroke-linecap: square"/>
   </g>
   <g id="patch_4">
    <path d="M 414.72 307.584 
L 414.72 41.472 
" style="fill: none; stroke: #000000; stroke-width: 0.8; stroke-linejoin: miter; stroke-linecap: square"/>
   </g>
   <g id="patch_5">
    <path d="M 57.6 307.584 
L 414.72 307.584 
" style="fill: none; stroke: #000000; stroke-width: 0.8; stroke-linejoin: miter; stroke-linecap: square"/>
   </g>
   <g id="patch_6">
    <path d="M 57.6 41.472 
L 414.72 41.472 
" style="fill: none; stroke: #000000; stroke-width: 0.8; stroke-linejoin: miter; stroke-linecap: square"/>
   </g>
  </g>
 </g>
 <defs>
  <clipPath id="p363a0cc8a4">
   <rect x="57.6" y="41.472" width="357.12" height="266.112"/>
  </clipPath>
 </defs>
</svg>
