<?xml version="1.0" encoding="utf-8" standalone="no"?>
<!DOCTYPE svg PUBLIC "-//W3C//DTD SVG 1.1//EN"
  "http://www.w3.org/Graphics/SVG/1.1/DTD/svg11.dtd">
<svg xmlns:xlink="http://www.w3.org/1999/xlink" width="460.8pt" height="345.6pt" viewBox="0 0 460.8 345.6" xmlns="http://www.w3.org/2000/svg" version="1.1">
 <metadata>
  <rdf:RDF xmlns:dc="http://purl.org/dc/elements/1.1/" xmlns:cc="http://creativecommons.org/ns#" xmlns:rdf="http://www.w3.org/1999/02/22-rdf-syntax-ns#">
   <cc:Work>
    <dc:type rdf:resource="http://purl.org/dc/dcmitype/StillImage"/>
    <dc:date>2023-04-04T03:22:13.856135</dc:date>
    <dc:format>image/svg+xml</dc:format>
    <dc:creator>
     <cc:Agent>
      <dc:title>Matplotlib v3.5.2, https://matplotlib.org/</dc:title>
     </cc:Agent>
    </dc:creator>
   </cc:Work>
  </rdf:RDF>
 </metadata>
 <defs>
  <style type="text/css">*{stroke-linejoin: round; stroke-linecap: butt}</style>
 </defs>
 <g id="figure_1">
  <g id="patch_1">
   <path d="M 0 345.6 
L 460.8 345.6 
L 460.8 0 
L 0 0 
z
" style="fill: #ffffff"/>
  </g>
  <g id="axes_1">
   <g id="patch_2">
    <path d="M 57.6 307.584 
L 414.72 307.584 
L 414.72 41.472 
L 57.6 41.472 
z
" style="fill: #ffffff"/>
   </g>
   <g id="matplotlib.axis_1">
    <g id="xtick_1">
     <g id="line2d_1">
      <defs>
       <path id="mcbe948823b" d="M 0 0 
L 0 3.5 
" style="stroke: #000000; stroke-width: 0.8"/>
      </defs>
      <g>
       <use xlink:href="#mcbe948823b" x="73.832727" y="307.584" style="stroke: #000000; stroke-width: 0.8"/>
      </g>
     </g>
     <g id="text_1">
      <!-- 0 -->
      <g transform="translate(70.651477 322.182437)scale(0.1 -0.1)">
       <defs>
        <path id="DejaVuSans-30" d="M 2034 4250 
Q 1547 4250 1301 3770 
Q 1056 3291 1056 2328 
Q 1056 1369 1301 889 
Q 1547 409 2034 409 
Q 2525 409 2770 889 
Q 3016 1369 3016 2328 
Q 3016 3291 2770 3770 
Q 2525 4250 2034 4250 
z
M 2034 4750 
Q 2819 4750 3233 4129 
Q 3647 3509 3647 2328 
Q 3647 1150 3233 529 
Q 2819 -91 2034 -91 
Q 1250 -91 836 529 
Q 422 1150 422 2328 
Q 422 3509 836 4129 
Q 1250 4750 2034 4750 
z
" transform="scale(0.015625)"/>
       </defs>
       <use xlink:href="#DejaVuSans-30"/>
      </g>
     </g>
    </g>
    <g id="xtick_2">
     <g id="line2d_2">
      <g>
       <use xlink:href="#mcbe948823b" x="141.076834" y="307.584" style="stroke: #000000; stroke-width: 0.8"/>
      </g>
     </g>
     <g id="text_2">
      <!-- 500 -->
      <g transform="translate(131.533084 322.182437)scale(0.1 -0.1)">
       <defs>
        <path id="DejaVuSans-35" d="M 691 4666 
L 3169 4666 
L 3169 4134 
L 1269 4134 
L 1269 2991 
Q 1406 3038 1543 3061 
Q 1681 3084 1819 3084 
Q 2600 3084 3056 2656 
Q 3513 2228 3513 1497 
Q 3513 744 3044 326 
Q 2575 -91 1722 -91 
Q 1428 -91 1123 -41 
Q 819 9 494 109 
L 494 744 
Q 775 591 1075 516 
Q 1375 441 1709 441 
Q 2250 441 2565 725 
Q 2881 1009 2881 1497 
Q 2881 1984 2565 2268 
Q 2250 2553 1709 2553 
Q 1456 2553 1204 2497 
Q 953 2441 691 2322 
L 691 4666 
z
" transform="scale(0.015625)"/>
       </defs>
       <use xlink:href="#DejaVuSans-35"/>
       <use xlink:href="#DejaVuSans-30" x="63.623047"/>
       <use xlink:href="#DejaVuSans-30" x="127.246094"/>
      </g>
     </g>
    </g>
    <g id="xtick_3">
     <g id="line2d_3">
      <g>
       <use xlink:href="#mcbe948823b" x="208.32094" y="307.584" style="stroke: #000000; stroke-width: 0.8"/>
      </g>
     </g>
     <g id="text_3">
      <!-- 1000 -->
      <g transform="translate(195.59594 322.182437)scale(0.1 -0.1)">
       <defs>
        <path id="DejaVuSans-31" d="M 794 531 
L 1825 531 
L 1825 4091 
L 703 3866 
L 703 4441 
L 1819 4666 
L 2450 4666 
L 2450 531 
L 3481 531 
L 3481 0 
L 794 0 
L 794 531 
z
" transform="scale(0.015625)"/>
       </defs>
       <use xlink:href="#DejaVuSans-31"/>
       <use xlink:href="#DejaVuSans-30" x="63.623047"/>
       <use xlink:href="#DejaVuSans-30" x="127.246094"/>
       <use xlink:href="#DejaVuSans-30" x="190.869141"/>
      </g>
     </g>
    </g>
    <g id="xtick_4">
     <g id="line2d_4">
      <g>
       <use xlink:href="#mcbe948823b" x="275.565046" y="307.584" style="stroke: #000000; stroke-width: 0.8"/>
      </g>
     </g>
     <g id="text_4">
      <!-- 1500 -->
      <g transform="translate(262.840046 322.182437)scale(0.1 -0.1)">
       <use xlink:href="#DejaVuSans-31"/>
       <use xlink:href="#DejaVuSans-35" x="63.623047"/>
       <use xlink:href="#DejaVuSans-30" x="127.246094"/>
       <use xlink:href="#DejaVuSans-30" x="190.869141"/>
      </g>
     </g>
    </g>
    <g id="xtick_5">
     <g id="line2d_5">
      <g>
       <use xlink:href="#mcbe948823b" x="342.809153" y="307.584" style="stroke: #000000; stroke-width: 0.8"/>
      </g>
     </g>
     <g id="text_5">
      <!-- 2000 -->
      <g transform="translate(330.084153 322.182437)scale(0.1 -0.1)">
       <defs>
        <path id="DejaVuSans-32" d="M 1228 531 
L 3431 531 
L 3431 0 
L 469 0 
L 469 531 
Q 828 903 1448 1529 
Q 2069 2156 2228 2338 
Q 2531 2678 2651 2914 
Q 2772 3150 2772 3378 
Q 2772 3750 2511 3984 
Q 2250 4219 1831 4219 
Q 1534 4219 1204 4116 
Q 875 4013 500 3803 
L 500 4441 
Q 881 4594 1212 4672 
Q 1544 4750 1819 4750 
Q 2544 4750 2975 4387 
Q 3406 4025 3406 3419 
Q 3406 3131 3298 2873 
Q 3191 2616 2906 2266 
Q 2828 2175 2409 1742 
Q 1991 1309 1228 531 
z
" transform="scale(0.015625)"/>
       </defs>
       <use xlink:href="#DejaVuSans-32"/>
       <use xlink:href="#DejaVuSans-30" x="63.623047"/>
       <use xlink:href="#DejaVuSans-30" x="127.246094"/>
       <use xlink:href="#DejaVuSans-30" x="190.869141"/>
      </g>
     </g>
    </g>
    <g id="xtick_6">
     <g id="line2d_6">
      <g>
       <use xlink:href="#mcbe948823b" x="410.053259" y="307.584" style="stroke: #000000; stroke-width: 0.8"/>
      </g>
     </g>
     <g id="text_6">
      <!-- 2500 -->
      <g transform="translate(397.328259 322.182437)scale(0.1 -0.1)">
       <use xlink:href="#DejaVuSans-32"/>
       <use xlink:href="#DejaVuSans-35" x="63.623047"/>
       <use xlink:href="#DejaVuSans-30" x="127.246094"/>
       <use xlink:href="#DejaVuSans-30" x="190.869141"/>
      </g>
     </g>
    </g>
   </g>
   <g id="matplotlib.axis_2">
    <g id="ytick_1">
     <g id="line2d_7">
      <defs>
       <path id="m2461bf415e" d="M 0 0 
L -3.5 0 
" style="stroke: #000000; stroke-width: 0.8"/>
      </defs>
      <g>
       <use xlink:href="#m2461bf415e" x="57.6" y="280.968779" style="stroke: #000000; stroke-width: 0.8"/>
      </g>
     </g>
     <g id="text_7">
      <!-- 100 -->
      <g transform="translate(31.5125 284.767998)scale(0.1 -0.1)">
       <use xlink:href="#DejaVuSans-31"/>
       <use xlink:href="#DejaVuSans-30" x="63.623047"/>
       <use xlink:href="#DejaVuSans-30" x="127.246094"/>
      </g>
     </g>
    </g>
    <g id="ytick_2">
     <g id="line2d_8">
      <g>
       <use xlink:href="#m2461bf415e" x="57.6" y="233.052462" style="stroke: #000000; stroke-width: 0.8"/>
      </g>
     </g>
     <g id="text_8">
      <!-- 200 -->
      <g transform="translate(31.5125 236.851681)scale(0.1 -0.1)">
       <use xlink:href="#DejaVuSans-32"/>
       <use xlink:href="#DejaVuSans-30" x="63.623047"/>
       <use xlink:href="#DejaVuSans-30" x="127.246094"/>
      </g>
     </g>
    </g>
    <g id="ytick_3">
     <g id="line2d_9">
      <g>
       <use xlink:href="#m2461bf415e" x="57.6" y="185.136145" style="stroke: #000000; stroke-width: 0.8"/>
      </g>
     </g>
     <g id="text_9">
      <!-- 300 -->
      <g transform="translate(31.5125 188.935363)scale(0.1 -0.1)">
       <defs>
        <path id="DejaVuSans-33" d="M 2597 2516 
Q 3050 2419 3304 2112 
Q 3559 1806 3559 1356 
Q 3559 666 3084 287 
Q 2609 -91 1734 -91 
Q 1441 -91 1130 -33 
Q 819 25 488 141 
L 488 750 
Q 750 597 1062 519 
Q 1375 441 1716 441 
Q 2309 441 2620 675 
Q 2931 909 2931 1356 
Q 2931 1769 2642 2001 
Q 2353 2234 1838 2234 
L 1294 2234 
L 1294 2753 
L 1863 2753 
Q 2328 2753 2575 2939 
Q 2822 3125 2822 3475 
Q 2822 3834 2567 4026 
Q 2313 4219 1838 4219 
Q 1578 4219 1281 4162 
Q 984 4106 628 3988 
L 628 4550 
Q 988 4650 1302 4700 
Q 1616 4750 1894 4750 
Q 2613 4750 3031 4423 
Q 3450 4097 3450 3541 
Q 3450 3153 3228 2886 
Q 3006 2619 2597 2516 
z
" transform="scale(0.015625)"/>
       </defs>
       <use xlink:href="#DejaVuSans-33"/>
       <use xlink:href="#DejaVuSans-30" x="63.623047"/>
       <use xlink:href="#DejaVuSans-30" x="127.246094"/>
      </g>
     </g>
    </g>
    <g id="ytick_4">
     <g id="line2d_10">
      <g>
       <use xlink:href="#m2461bf415e" x="57.6" y="137.219827" style="stroke: #000000; stroke-width: 0.8"/>
      </g>
     </g>
     <g id="text_10">
      <!-- 400 -->
      <g transform="translate(31.5125 141.019046)scale(0.1 -0.1)">
       <defs>
        <path id="DejaVuSans-34" d="M 2419 4116 
L 825 1625 
L 2419 1625 
L 2419 4116 
z
M 2253 4666 
L 3047 4666 
L 3047 1625 
L 3713 1625 
L 3713 1100 
L 3047 1100 
L 3047 0 
L 2419 0 
L 2419 1100 
L 313 1100 
L 313 1709 
L 2253 4666 
z
" transform="scale(0.015625)"/>
       </defs>
       <use xlink:href="#DejaVuSans-34"/>
       <use xlink:href="#DejaVuSans-30" x="63.623047"/>
       <use xlink:href="#DejaVuSans-30" x="127.246094"/>
      </g>
     </g>
    </g>
    <g id="ytick_5">
     <g id="line2d_11">
      <g>
       <use xlink:href="#m2461bf415e" x="57.6" y="89.30351" style="stroke: #000000; stroke-width: 0.8"/>
      </g>
     </g>
     <g id="text_11">
      <!-- 500 -->
      <g transform="translate(31.5125 93.102729)scale(0.1 -0.1)">
       <use xlink:href="#DejaVuSans-35"/>
       <use xlink:href="#DejaVuSans-30" x="63.623047"/>
       <use xlink:href="#DejaVuSans-30" x="127.246094"/>
      </g>
     </g>
    </g>
   </g>
   <g id="line2d_12">
    <path d="M 73.832727 284.046923 
L 74.101704 283.496365 
L 74.236192 282.383269 
L 74.37068 283.349262 
L 74.505168 282.855724 
L 74.639657 283.45899 
L 74.774145 276.973037 
L 74.908633 249.797777 
L 75.177609 248.301351 
L 75.312098 248.858138 
L 75.446586 248.910846 
L 75.581074 249.779569 
L 75.715562 249.021533 
L 75.85005 248.999491 
L 76.253515 244.002778 
L 76.522492 278.137883 
L 76.65698 278.451735 
L 76.925956 276.741122 
L 77.060444 267.865104 
L 77.194933 270.113817 
L 77.463909 270.177545 
L 77.598397 271.765492 
L 77.732885 266.427135 
L 77.867374 252.989483 
L 78.405327 104.223214 
L 78.674303 103.299387 
L 78.808791 110.453773 
L 78.943279 105.640099 
L 79.481232 158.458256 
L 79.750209 228.994429 
L 80.019185 263.795092 
L 80.153673 265.924014 
L 80.288161 262.080646 
L 80.42265 272.500049 
L 80.557138 272.06449 
L 80.826114 274.577701 
L 80.960603 272.031907 
L 81.095091 261.69492 
L 81.364067 168.668744 
L 81.498555 180.997133 
L 81.767532 161.548858 
L 82.036508 169.569571 
L 82.170996 166.461718 
L 82.305485 160.473616 
L 83.112414 261.215757 
L 83.650367 287.458086 
L 83.784855 287.47869 
L 83.919343 289.010575 
L 84.053831 289.203198 
L 84.18832 287.101589 
L 84.322808 279.860954 
L 84.726273 189.527675 
L 84.860761 180.843322 
L 84.995249 184.948792 
L 85.129737 170.03388 
L 85.264225 178.594609 
L 85.398714 179.343541 
L 85.66769 187.65798 
L 85.802178 196.447271 
L 86.340131 263.346116 
L 86.474619 265.363393 
L 86.609107 270.284399 
L 86.878084 287.840937 
L 87.012572 290.096838 
L 87.14706 289.769569 
L 87.281549 291.2636 
L 87.416037 291.16633 
L 87.550525 290.35319 
L 87.819501 262.789328 
L 87.95399 262.935473 
L 88.088478 257.236786 
L 88.222966 258.699671 
L 88.357454 257.940197 
L 88.491942 254.574555 
L 88.626431 257.415513 
L 88.760919 250.406315 
L 88.895407 253.289918 
L 89.029895 253.288481 
L 89.164384 255.854879 
L 89.43336 277.202077 
L 89.567848 278.869086 
L 89.702336 278.369798 
L 89.836825 279.432103 
L 89.971313 264.249818 
L 90.105801 264.964729 
L 90.240289 266.512426 
L 90.374777 266.28147 
L 90.509266 267.520106 
L 90.643754 267.692126 
L 90.778242 269.796131 
L 90.91273 266.566093 
L 91.047218 256.605728 
L 91.181707 255.432257 
L 91.316195 248.485829 
L 91.450683 252.930067 
L 91.585171 250.959748 
L 91.71966 252.461445 
L 91.854148 252.68809 
L 92.123124 255.677589 
L 92.257612 255.103551 
L 92.526589 260.711198 
L 92.795565 267.32317 
L 92.930053 268.280538 
L 93.064542 267.137255 
L 93.19903 277.178598 
L 93.468006 277.30366 
L 93.602495 278.366923 
L 93.736983 277.129724 
L 93.871471 274.600221 
L 94.005959 269.36776 
L 94.6784 161.836835 
L 94.812888 157.427576 
L 95.081865 169.319927 
L 95.216353 164.088902 
L 95.350841 152.791193 
L 96.023282 265.691141 
L 96.157771 266.422823 
L 96.426747 270.361544 
L 96.561235 270.027088 
L 96.695723 270.104713 
L 96.830212 271.993095 
L 96.9647 271.353412 
L 97.099188 269.921672 
L 97.233676 261.428505 
L 97.368164 243.81255 
L 97.502653 202.666329 
L 97.637141 195.54884 
L 97.771629 180.029224 
L 97.906117 188.450516 
L 98.040606 181.716836 
L 98.175094 182.428873 
L 98.309582 177.093391 
L 98.44407 178.740754 
L 98.713047 190.144837 
L 98.982023 232.220155 
L 99.250999 267.177505 
L 99.385488 271.878575 
L 99.519976 272.635173 
L 99.654464 282.470956 
L 99.788952 282.483414 
L 99.923441 281.479088 
L 100.192417 282.721079 
L 100.326905 282.802057 
L 100.461393 282.145125 
L 100.595882 282.552413 
L 100.73037 283.383762 
L 100.864858 281.840377 
L 100.999346 282.999952 
L 101.133834 282.089063 
L 101.268323 279.866704 
L 101.402811 272.819172 
L 101.537299 277.104807 
L 101.806276 266.685883 
L 101.940764 268.853617 
L 102.075252 268.704598 
L 102.20974 269.354822 
L 102.344228 271.741055 
L 102.478717 277.577741 
L 102.613205 275.719547 
L 102.747693 281.407693 
L 102.882181 267.90727 
L 103.016669 267.93602 
L 103.151158 272.857984 
L 103.285646 272.638048 
L 103.554622 268.443933 
L 103.68911 264.242151 
L 103.823599 246.760841 
L 104.092575 184.294255 
L 104.227063 162.742454 
L 104.361552 169.929901 
L 104.630528 144.976042 
L 105.033993 160.342325 
L 105.168481 171.156559 
L 105.706434 254.485431 
L 105.840922 254.362765 
L 105.97541 263.089285 
L 106.109898 279.573935 
L 106.378875 282.773308 
L 106.513363 282.759412 
L 106.647851 284.923313 
L 106.782339 284.654023 
L 106.916828 285.769036 
L 107.320292 248.077582 
L 107.45478 255.163926 
L 107.589269 252.621965 
L 107.723757 252.714923 
L 108.26171 247.635793 
L 108.396198 244.217922 
L 108.530686 246.484843 
L 108.934151 278.195383 
L 109.068639 279.715288 
L 109.203127 278.644838 
L 109.337615 274.134954 
L 109.606592 275.688401 
L 109.875568 276.743997 
L 110.144545 277.79624 
L 110.413521 276.554728 
L 110.548009 276.419604 
L 110.951474 272.357738 
L 111.085962 273.534563 
L 111.22045 273.186211 
L 111.623915 267.373962 
L 111.758403 267.883312 
L 112.02738 271.675409 
L 112.430844 273.277252 
L 112.565333 263.008306 
L 112.834309 267.219192 
L 112.968797 267.743876 
L 113.103285 269.256594 
L 113.237774 269.435322 
L 113.50675 272.058261 
L 113.641238 272.890088 
L 114.313679 261.634066 
L 114.448168 261.272298 
L 114.582656 259.787371 
L 114.98612 248.936721 
L 115.524073 260.018807 
L 115.658561 260.569845 
L 115.927538 262.799391 
L 116.062026 261.513317 
L 116.196514 267.620731 
L 116.331002 267.2029 
L 116.465491 267.814792 
L 116.599979 258.044175 
L 117.137932 79.159147 
L 117.406908 64.440692 
L 117.810373 80.998654 
L 118.213837 148.274601 
L 118.482814 210.683688 
L 118.75179 245.154686 
L 118.886279 246.690404 
L 119.289743 254.693387 
L 119.424231 256.113148 
L 119.55872 258.887503 
L 119.693208 259.204709 
L 119.827696 249.577841 
L 120.365649 92.031386 
L 120.634625 73.443688 
L 120.769114 77.139474 
L 120.903602 70.712458 
L 121.03809 72.042136 
L 121.441555 135.547548 
L 121.710531 202.456935 
L 121.845019 230.670063 
L 122.248484 241.647691 
L 122.51746 257.181682 
L 122.651948 257.341243 
L 122.786437 259.082043 
L 122.920925 257.739907 
L 123.055413 249.569696 
L 123.727854 60.47945 
L 123.862342 53.568 
L 124.534783 107.763271 
L 125.072736 248.870117 
L 125.207225 254.046996 
L 125.341713 254.510826 
L 125.476201 254.464347 
L 125.745177 268.079769 
L 125.879666 269.518217 
L 126.014154 269.748215 
L 126.28313 256.281334 
L 126.821083 93.138253 
L 126.955571 74.7657 
L 127.09006 81.371443 
L 127.359036 105.93766 
L 127.493524 108.383309 
L 127.762501 126.902007 
L 127.896989 149.731257 
L 128.300453 247.250546 
L 128.434942 253.059441 
L 128.56943 251.229996 
L 128.703918 258.73992 
L 128.838406 259.464894 
L 129.241871 266.165991 
L 129.510847 245.430684 
L 130.0488 83.547802 
L 130.183288 74.428369 
L 130.317777 86.360969 
L 130.452265 115.21905 
L 130.586753 114.299536 
L 130.721241 110.647834 
L 130.855729 117.04562 
L 131.124706 170.382231 
L 131.393682 236.10569 
L 131.662659 259.234417 
L 131.931635 259.03796 
L 132.066123 258.855399 
L 132.3351 270.14065 
L 132.469588 269.992109 
L 132.604076 270.091296 
L 132.738564 270.049609 
L 133.007541 258.144321 
L 133.276517 247.672209 
L 133.679982 242.087563 
L 133.81447 240.90403 
L 133.948958 235.799025 
L 134.486911 245.687516 
L 134.755888 252.782485 
L 134.890376 252.667486 
L 135.697305 266.926423 
L 135.831793 271.682118 
L 135.966282 272.292092 
L 136.10077 270.307399 
L 136.235258 271.81245 
L 136.369746 271.53789 
L 136.504234 267.233567 
L 136.638723 267.074485 
L 136.907699 265.137707 
L 137.311164 254.242974 
L 137.445652 254.753283 
L 137.58014 252.068052 
L 137.983605 258.888461 
L 138.118093 257.985718 
L 138.252581 259.82235 
L 138.387069 264.318817 
L 138.521558 263.084493 
L 138.656046 263.285741 
L 138.925022 267.985853 
L 139.193999 251.725451 
L 139.731951 81.692003 
L 139.86644 72.765672 
L 140.269904 98.80292 
L 140.538881 123.256054 
L 140.673369 130.354378 
L 140.807857 144.729752 
L 141.076834 224.924417 
L 141.480298 258.149112 
L 142.018251 266.596759 
L 142.152739 266.13245 
L 142.421716 242.370748 
L 142.959669 91.701243 
L 143.094157 84.277089 
L 143.228645 83.788821 
L 143.363133 94.025663 
L 143.497621 84.741398 
L 143.63211 89.873714 
L 144.573527 259.398291 
L 144.708015 262.891869 
L 144.842504 263.067722 
L 145.11148 265.312602 
L 145.245968 267.458294 
L 145.380456 263.375824 
L 145.783921 202.140208 
L 146.052897 110.344523 
L 146.187386 91.201955 
L 146.456362 106.53278 
L 146.59085 117.867864 
L 146.725339 112.170614 
L 146.859827 119.593331 
L 146.994315 114.509889 
L 147.128803 127.385003 
L 147.532268 234.787991 
L 147.801244 260.837697 
L 147.935732 261.040383 
L 148.204709 266.319803 
L 148.339197 266.29824 
L 148.473685 266.802799 
L 148.742662 265.747682 
L 148.87715 248.030624 
L 149.280615 119.457249 
L 149.415103 115.410237 
L 149.549591 106.30997 
L 149.684079 107.568252 
L 150.087544 140.346367 
L 150.222032 132.638069 
L 150.35652 138.169529 
L 150.894473 253.242481 
L 151.028961 262.433789 
L 151.16345 261.474025 
L 151.835891 269.666757 
L 151.970379 268.391704 
L 152.104867 247.397649 
L 152.508332 113.434647 
L 152.64282 116.550166 
L 152.911796 104.671231 
L 153.046285 118.851107 
L 153.180773 117.347014 
L 153.449749 151.894679 
L 153.718726 192.930213 
L 153.987702 249.677507 
L 154.12219 266.765424 
L 154.256678 268.147331 
L 154.525655 272.018011 
L 154.794631 273.725749 
L 155.063608 276.676915 
L 155.198096 278.322361 
L 155.332584 277.677407 
L 155.467072 273.286835 
L 155.601561 262.787891 
L 155.736049 261.924918 
L 155.870537 259.053293 
L 156.005025 261.197069 
L 156.274002 259.29575 
L 156.40849 259.833371 
L 156.542978 261.089737 
L 156.677466 259.890391 
L 157.215419 267.917333 
L 157.349907 269.927901 
L 157.484396 268.933638 
L 157.618884 269.70557 
L 157.88786 272.888651 
L 158.022348 273.370689 
L 158.291325 276.376479 
L 158.560301 280.667386 
L 158.694789 279.097647 
L 158.829278 280.064119 
L 158.963766 279.666893 
L 159.232742 276.946683 
L 159.367231 277.22939 
L 159.501719 275.241342 
L 160.039672 261.126632 
L 160.308648 261.386339 
L 160.443136 267.118088 
L 160.577624 266.833945 
L 160.712113 264.874167 
L 160.846601 265.577579 
L 160.981089 267.073047 
L 161.250066 270.838311 
L 161.519042 271.791846 
L 161.788018 254.990469 
L 162.460459 83.974737 
L 162.594948 83.637406 
L 162.729436 82.175 
L 162.998412 101.809669 
L 163.132901 110.774812 
L 163.401877 152.133302 
L 163.670853 223.021181 
L 164.074318 257.186953 
L 164.208806 258.322569 
L 164.477783 271.006018 
L 164.612271 273.372605 
L 164.746759 268.660036 
L 165.015735 251.112122 
L 165.4192 121.073466 
L 165.553688 123.678197 
L 165.822665 109.755153 
L 165.957153 115.022114 
L 166.091641 111.930554 
L 166.360618 100.451721 
L 166.495106 106.6588 
L 166.89857 222.119875 
L 167.033059 229.106553 
L 167.302035 247.535648 
L 167.974476 266.039492 
L 168.108964 260.353742 
L 168.243453 246.311865 
L 168.377941 208.154185 
L 168.646917 106.484385 
L 168.781405 107.76998 
L 168.915894 103.2347 
L 169.050382 104.537545 
L 169.18487 108.341142 
L 169.319358 92.981088 
L 169.453847 95.46459 
L 169.857311 148.953096 
L 170.126288 227.31592 
L 170.395264 258.196549 
L 170.529752 259.07821 
L 170.66424 262.522435 
L 170.798729 262.712183 
L 171.067705 265.04427 
L 171.202193 267.88475 
L 171.47117 246.0512 
L 172.009123 110.555355 
L 172.143611 108.975554 
L 172.412587 97.193411 
L 172.95054 129.76309 
L 173.622981 260.170222 
L 173.757469 264.167881 
L 173.891958 277.576304 
L 174.026446 276.64529 
L 174.160934 276.601207 
L 174.42991 278.135487 
L 174.698887 263.313054 
L 174.833375 246.152783 
L 175.102351 177.485346 
L 175.371328 144.040236 
L 175.505816 141.134111 
L 175.640304 151.322558 
L 175.774792 151.011581 
L 175.909281 152.423675 
L 176.043769 157.241181 
L 176.178257 156.9326 
L 176.312745 171.438786 
L 176.581722 239.253313 
L 176.850698 266.44151 
L 176.985186 263.941716 
L 177.254163 268.687348 
L 177.388651 268.643744 
L 177.792116 275.217863 
L 177.926604 276.110544 
L 178.19558 265.369143 
L 178.330069 264.927834 
L 178.599045 257.342681 
L 178.733533 256.775831 
L 178.868021 259.08971 
L 179.136998 255.570735 
L 179.271486 256.168252 
L 179.540462 253.676124 
L 179.809439 261.201861 
L 179.943927 268.49137 
L 180.212904 266.58478 
L 180.48188 276.478541 
L 180.616368 276.492437 
L 180.750856 276.865705 
L 180.885345 277.699449 
L 181.019833 277.786177 
L 181.692274 265.441976 
L 181.826762 266.741466 
L 181.96125 260.740906 
L 182.095738 262.528184 
L 182.364715 267.98202 
L 182.499203 269.263781 
L 182.633691 272.420508 
L 182.902668 271.600181 
L 183.171644 277.748803 
L 183.306132 279.169042 
L 183.440621 278.055946 
L 183.575109 275.747338 
L 183.844085 287.514627 
L 183.978573 288.468641 
L 184.113062 286.183033 
L 184.382038 274.763616 
L 184.919991 182.764766 
L 185.054479 186.792133 
L 185.188967 179.698601 
L 185.457944 183.570239 
L 185.592432 185.073853 
L 185.995897 222.940202 
L 186.264873 253.627729 
L 186.53385 269.431009 
L 186.802826 279.715288 
L 187.071802 290.243462 
L 187.206291 289.089637 
L 187.340779 290.22717 
L 187.475267 287.040256 
L 187.609755 279.018106 
L 188.01322 202.88339 
L 188.147708 186.435156 
L 188.282196 186.654613 
L 188.416684 185.693411 
L 188.551173 189.01545 
L 188.685661 195.436236 
L 188.820149 191.011164 
L 188.954637 195.459715 
L 189.089126 203.857529 
L 189.627078 266.045721 
L 189.761567 268.642307 
L 189.896055 273.893935 
L 190.030543 271.450682 
L 190.299519 273.287793 
L 190.434008 272.112885 
L 190.971961 275.548006 
L 191.106449 272.085094 
L 191.240937 271.598264 
L 191.375425 272.038136 
L 191.509913 267.595814 
L 191.644402 269.14974 
L 191.913378 267.879958 
L 192.182354 262.226312 
L 192.316843 262.576101 
L 192.451331 262.076334 
L 192.585819 263.40122 
L 192.720307 269.189032 
L 192.989284 270.450668 
L 193.392748 267.754896 
L 193.661725 270.646167 
L 193.796213 271.182351 
L 194.065189 263.270408 
L 194.603142 159.193771 
L 194.73763 154.266536 
L 194.872119 144.283172 
L 195.006607 145.863931 
L 195.141095 150.62298 
L 195.275583 143.200742 
L 195.54456 156.636957 
L 195.948024 250.963581 
L 196.217001 261.333152 
L 196.351489 263.266096 
L 196.485977 272.769818 
L 196.620465 272.115281 
L 196.889442 272.673985 
L 197.02393 273.806248 
L 197.158418 272.070719 
L 197.292907 265.728515 
L 197.830859 196.787476 
L 197.965348 199.106626 
L 198.099836 195.77788 
L 198.234324 200.196243 
L 198.5033 186.827112 
L 198.772277 200.672531 
L 199.31023 273.448313 
L 199.713694 282.590746 
L 199.848183 281.418234 
L 200.117159 282.148479 
L 200.251647 280.359284 
L 200.386135 274.561409 
L 200.520624 274.156995 
L 200.655112 261.15634 
L 200.7896 213.778123 
L 200.924088 211.801575 
L 201.058576 200.079327 
L 201.193065 199.719955 
L 201.327553 197.0261 
L 201.462041 199.205813 
L 201.731018 187.367128 
L 201.865506 188.732743 
L 202.134482 211.502577 
L 202.403459 265.151124 
L 202.806923 274.982114 
L 203.0759 266.482718 
L 203.210388 270.823936 
L 203.344876 270.950436 
L 203.748341 261.543025 
L 203.882829 244.098611 
L 204.151805 181.933897 
L 204.420782 165.407559 
L 204.55527 159.760142 
L 204.689758 163.2082 
L 204.824246 156.687269 
L 204.958735 172.763672 
L 205.093223 173.010921 
L 205.765664 260.960363 
L 205.900152 261.473067 
L 206.03464 265.285769 
L 206.169129 280.18391 
L 206.303617 280.666427 
L 206.572593 284.618086 
L 206.84157 285.432184 
L 207.110546 276.012794 
L 207.379522 266.799445 
L 207.514011 265.918743 
L 207.917475 274.063559 
L 208.051964 273.81631 
L 208.32094 267.434336 
L 208.589916 269.041449 
L 208.858893 277.119661 
L 208.993381 280.78526 
L 209.127869 281.370797 
L 209.262357 280.82503 
L 209.396846 274.950969 
L 209.531334 276.052086 
L 209.80031 275.635693 
L 209.934799 276.629957 
L 210.203775 264.408421 
L 211.010704 108.768556 
L 211.279681 134.47566 
L 211.683145 167.686459 
L 212.221098 255.617214 
L 212.355586 258.089217 
L 212.759051 273.380751 
L 212.893539 273.172794 
L 213.028027 273.273419 
L 213.162516 275.931337 
L 213.431492 258.168279 
L 213.56598 219.960287 
L 213.834957 135.758859 
L 213.969445 140.359784 
L 214.103933 139.264896 
L 214.238421 142.236187 
L 214.910862 180.687115 
L 215.448815 261.255048 
L 215.583303 266.238345 
L 215.717792 266.858382 
L 216.121256 271.135872 
L 216.255745 272.096594 
L 216.390233 274.495764 
L 216.524721 270.473189 
L 216.659209 262.927807 
L 217.062674 149.443759 
L 217.197162 151.362808 
L 217.33165 151.443786 
L 217.466138 162.950411 
L 217.600627 161.661941 
L 217.735115 149.76384 
L 217.869603 155.013552 
L 218.273068 197.358639 
L 218.542044 256.393938 
L 218.811021 273.253773 
L 218.945509 265.807577 
L 219.483462 276.567186 
L 219.61795 278.372194 
L 219.886926 264.570857 
L 220.290391 162.609246 
L 220.693856 150.905686 
L 220.828344 161.609233 
L 220.962832 157.673866 
L 221.231808 184.928667 
L 221.500785 198.845961 
L 221.769761 256.256897 
L 222.038738 271.948053 
L 222.173226 271.192413 
L 222.307714 272.421946 
L 222.576691 278.495339 
L 222.845667 281.144153 
L 222.980155 279.465644 
L 223.114643 281.345881 
L 223.38362 260.716948 
L 223.518108 264.596253 
L 223.652596 264.439087 
L 223.921573 257.450971 
L 224.190549 256.775831 
L 224.325037 259.274667 
L 224.459525 258.643609 
L 224.728502 254.769095 
L 225.131967 262.067709 
L 225.266455 260.575595 
L 225.535431 262.053813 
L 225.669919 260.735635 
L 226.073384 270.543626 
L 226.34236 273.58727 
L 226.476849 273.514917 
L 226.745825 270.354836 
L 226.880313 272.64859 
L 227.014802 272.892963 
L 227.14929 272.594444 
L 227.283778 271.167976 
L 227.418266 272.853192 
L 227.552754 272.982567 
L 227.687243 272.812464 
L 227.956219 271.69793 
L 228.090707 277.543721 
L 228.225195 277.583012 
L 228.359684 278.690358 
L 228.494172 277.913635 
L 228.62866 278.88969 
L 228.763148 278.774691 
L 228.897637 276.474708 
L 229.301101 277.383201 
L 229.435589 271.137309 
L 229.570078 256.980912 
L 230.242519 94.70895 
L 230.377007 79.794996 
L 230.511495 109.930526 
L 230.780471 117.922968 
L 231.049448 145.534746 
L 231.587401 254.811262 
L 231.856377 266.092679 
L 232.125354 270.932227 
L 232.39433 275.613172 
L 232.528818 274.795241 
L 232.797795 257.602387 
L 232.932283 221.14334 
L 233.201259 133.532667 
L 233.335748 125.314539 
L 233.470236 135.664464 
L 233.604724 135.887754 
L 233.739212 148.746098 
L 233.8737 133.932768 
L 234.008189 140.690406 
L 234.815118 265.5081 
L 234.949606 265.240248 
L 235.218583 271.174684 
L 235.622047 278.952461 
L 235.756535 278.35159 
L 236.025512 265.629808 
L 236.563465 129.355801 
L 236.832441 117.081078 
L 237.63937 201.206798 
L 237.908347 259.578935 
L 238.177323 267.709376 
L 238.849764 282.704308 
L 238.984252 281.875356 
L 239.118741 278.057384 
L 239.253229 264.085465 
L 239.791182 128.581953 
L 240.194646 146.40826 
L 240.463623 165.633245 
L 240.732599 179.159063 
L 241.270552 257.0341 
L 241.674017 262.939786 
L 241.942993 275.949545 
L 242.077481 282.482456 
L 242.21197 281.853314 
L 242.480946 263.793175 
L 242.884411 151.479723 
L 243.018899 159.392145 
L 243.153387 157.133849 
L 243.287875 146.0992 
L 243.422363 154.120871 
L 243.556852 151.294766 
L 243.825828 168.020436 
L 244.229293 240.378388 
L 244.498269 262.878932 
L 244.767246 268.178956 
L 245.17071 276.076523 
L 245.305198 276.945725 
L 245.439687 276.648644 
L 245.574175 275.41384 
L 245.708663 263.900508 
L 245.843151 269.375905 
L 246.112128 266.379219 
L 246.381104 261.174548 
L 246.515592 261.141007 
L 247.188033 271.433911 
L 247.322522 271.8412 
L 247.45701 272.712319 
L 247.591498 272.3563 
L 247.725986 275.53459 
L 247.860475 274.089913 
L 248.129451 275.41959 
L 248.263939 274.53218 
L 248.398427 275.217863 
L 248.532916 275.064051 
L 248.667404 277.018079 
L 248.801892 276.918892 
L 249.205357 278.464672 
L 249.339845 278.581588 
L 249.608821 277.629012 
L 249.743309 277.761261 
L 249.877798 277.459867 
L 250.550239 274.28014 
L 250.819215 274.581534 
L 250.953703 275.363528 
L 251.088192 274.222641 
L 251.357168 275.485715 
L 251.491656 284.42115 
L 251.626144 283.929528 
L 251.760633 284.361734 
L 251.895121 284.201214 
L 252.164097 271.906845 
L 252.70205 143.977466 
L 252.836538 163.7923 
L 252.971027 160.33418 
L 253.240003 173.295064 
L 253.374491 174.653492 
L 253.508979 171.716222 
L 253.777956 204.668273 
L 254.046932 256.23246 
L 254.315909 277.644824 
L 254.719373 286.033534 
L 254.853862 285.792515 
L 255.122838 287.532835 
L 255.391814 266.684446 
L 255.660791 173.084712 
L 255.795279 176.545707 
L 256.198744 160.810468 
L 256.333232 164.498587 
L 256.46772 161.823419 
L 256.602208 163.024202 
L 257.409138 258.483089 
L 257.812602 265.984388 
L 258.081579 281.251485 
L 258.216067 282.31954 
L 258.350555 281.587379 
L 258.619532 267.360545 
L 258.888508 177.907968 
L 259.022996 178.780524 
L 259.157484 169.691757 
L 259.291973 169.113887 
L 259.426461 153.567917 
L 259.695437 167.322295 
L 259.829925 156.146773 
L 259.964414 165.255665 
L 260.771343 261.565546 
L 261.040319 263.812821 
L 261.309296 271.341433 
L 261.443784 274.568117 
L 261.71276 271.642347 
L 261.847249 259.202313 
L 262.116225 170.696083 
L 262.250713 174.879657 
L 262.654178 148.345996 
L 262.788666 155.675276 
L 262.923154 150.886519 
L 263.326619 186.173533 
L 263.461107 197.114266 
L 263.864572 246.080909 
L 264.268036 264.194714 
L 264.402525 263.434282 
L 264.671501 266.877549 
L 264.805989 266.751049 
L 264.940478 265.796556 
L 265.074966 258.198945 
L 265.209454 239.007981 
L 265.612919 124.266609 
L 265.881895 106.083805 
L 266.016383 115.622506 
L 266.150871 115.491215 
L 266.28536 115.041281 
L 266.419848 119.690601 
L 266.688824 157.109891 
L 266.957801 236.228355 
L 267.226777 252.958817 
L 267.361265 251.53091 
L 267.495754 267.962853 
L 267.630242 267.645647 
L 267.76473 269.52205 
L 267.899218 269.834465 
L 268.168195 276.380792 
L 268.302683 277.26916 
L 268.437171 274.697492 
L 268.706147 277.243765 
L 268.975124 273.735332 
L 269.2441 271.843117 
L 269.916541 257.292848 
L 270.320006 259.189855 
L 270.588982 264.096006 
L 270.723471 278.249528 
L 270.857959 279.293625 
L 270.992447 277.809656 
L 271.126935 278.696587 
L 271.261424 278.726296 
L 271.395912 278.539422 
L 271.799376 281.328152 
L 271.933865 279.937141 
L 272.068353 280.293638 
L 272.202841 279.646289 
L 272.337329 279.883475 
L 272.471817 279.036793 
L 272.606306 276.862351 
L 272.740794 278.150341 
L 272.875282 277.826427 
L 273.00977 277.146495 
L 273.144258 274.802428 
L 273.278747 274.702283 
L 273.547723 277.69322 
L 273.682211 277.908364 
L 273.8167 278.595005 
L 273.951188 277.729636 
L 274.085676 288.425996 
L 274.354652 290.065692 
L 274.489141 288.486849 
L 274.758117 273.700832 
L 275.29607 166.702258 
L 275.565046 154.406931 
L 275.699535 154.7457 
L 275.834023 172.785714 
L 275.968511 175.07851 
L 276.102999 185.283727 
L 276.77544 264.982937 
L 277.447881 282.468081 
L 277.58237 285.88116 
L 277.716858 285.488246 
L 277.851346 281.068445 
L 277.985834 271.036206 
L 278.389299 210.232795 
L 278.523787 190.651792 
L 278.658275 188.643619 
L 278.792763 179.081439 
L 278.927252 191.27135 
L 279.06174 185.422205 
L 279.196228 187.523336 
L 279.330716 195.257029 
L 280.137646 275.407132 
L 280.272134 277.805344 
L 280.406622 269.40753 
L 280.54111 269.121949 
L 280.810087 270.298774 
L 280.944575 269.672507 
L 281.213551 261.714086 
L 281.348039 232.619778 
L 281.482528 161.801857 
L 281.617016 151.542015 
L 281.751504 128.025165 
L 281.885992 129.182824 
L 282.154969 142.76087 
L 282.289457 124.55267 
L 282.423945 128.661494 
L 282.558433 137.817823 
L 282.82741 186.509426 
L 283.096386 255.414049 
L 283.365363 262.077771 
L 283.499851 264.296297 
L 283.634339 263.621635 
L 283.768827 263.632176 
L 283.903316 263.822404 
L 284.037804 265.133874 
L 284.172292 265.263727 
L 284.441268 260.043723 
L 285.113709 144.177277 
L 285.248198 143.095805 
L 285.382686 138.53561 
L 285.517174 147.824667 
L 285.651662 144.70771 
L 285.78615 148.214706 
L 286.055127 201.616483 
L 286.324103 251.446099 
L 286.59308 261.17359 
L 286.727568 261.051404 
L 286.862056 280.086161 
L 286.996544 280.145577 
L 287.131033 279.162813 
L 287.265521 279.77135 
L 287.668985 276.22698 
L 287.803474 277.108641 
L 288.07245 276.229376 
L 288.206938 274.047267 
L 288.341427 273.991684 
L 288.475915 271.633722 
L 288.610403 271.260933 
L 288.744891 270.131546 
L 288.879379 272.973462 
L 289.013868 273.314627 
L 289.148356 270.490439 
L 289.417332 277.679803 
L 289.55182 278.87244 
L 289.820797 278.509235 
L 289.955285 279.303208 
L 290.089773 277.796719 
L 290.224262 279.351124 
L 290.35875 278.439756 
L 290.493238 279.424436 
L 290.627726 277.875302 
L 291.031191 259.811329 
L 291.300167 193.30971 
L 291.434655 187.698709 
L 291.569144 188.309163 
L 291.703632 192.391633 
L 291.972608 179.585998 
L 292.376073 192.728006 
L 293.048514 269.485634 
L 293.183002 270.738166 
L 293.31749 269.580987 
L 293.451979 270.336148 
L 293.586467 269.402259 
L 293.720955 271.889116 
L 293.855443 272.153614 
L 294.258908 248.119269 
L 294.527884 189.855902 
L 294.796861 158.023655 
L 294.931349 142.0795 
L 295.065837 141.944855 
L 295.200325 149.954547 
L 295.334814 144.207464 
L 295.60379 172.397592 
L 295.738278 186.956486 
L 296.141743 257.491221 
L 296.276231 256.597103 
L 296.410719 263.829592 
L 296.545208 281.590733 
L 296.948672 283.764217 
L 297.486625 285.738369 
L 297.621113 285.391455 
L 297.755601 285.387622 
L 298.024578 282.201187 
L 298.159066 282.05025 
L 298.428042 279.899766 
L 298.697019 276.058794 
L 298.831507 274.918865 
L 298.965995 274.776074 
L 299.100484 275.133051 
L 299.36946 278.932336 
L 299.503948 278.423944 
L 299.638436 279.973078 
L 299.772925 270.277211 
L 299.907413 273.692207 
L 300.041901 273.389376 
L 300.176389 274.259057 
L 300.310877 273.974434 
L 300.579854 262.962785 
L 301.252295 128.358184 
L 301.386783 128.427183 
L 301.521271 141.668858 
L 301.65576 134.700867 
L 301.790248 144.150923 
L 302.597177 253.359397 
L 302.731665 255.118884 
L 303.000642 267.573294 
L 303.13513 267.7985 
L 303.269618 268.280538 
L 303.404106 270.749187 
L 303.538595 271.169892 
L 303.807571 254.749929 
L 304.345524 164.636107 
L 304.6145 154.073913 
L 304.748988 162.342353 
L 304.883477 152.733214 
L 305.017965 158.836316 
L 306.093871 266.018888 
L 306.228359 267.033277 
L 306.497335 277.226515 
L 306.766312 278.26007 
L 306.9008 273.534083 
L 307.035288 262.955598 
L 307.304265 170.134504 
L 307.438753 177.423055 
L 307.842217 158.089779 
L 307.976706 165.167019 
L 308.111194 156.716977 
L 308.245682 161.697878 
L 308.649147 207.870521 
L 309.052611 264.444837 
L 309.590564 276.720998 
L 309.994029 278.430652 
L 310.128517 274.86424 
L 310.263005 262.201395 
L 310.531982 170.022859 
L 310.66647 171.178601 
L 310.935446 168.881013 
L 311.069934 159.495165 
L 311.204423 165.974409 
L 311.338911 164.678752 
L 311.473399 157.879906 
L 311.607887 171.065039 
L 311.876864 208.780931 
L 312.14584 251.264975 
L 312.414817 263.114201 
L 312.818281 271.756867 
L 312.952769 271.321308 
L 313.087258 273.214002 
L 313.221746 273.114816 
L 313.356234 274.697492 
L 313.625211 264.102235 
L 313.759699 256.181668 
L 313.894187 259.546831 
L 314.028675 257.008704 
L 314.163163 258.899003 
L 314.297652 256.128481 
L 314.566628 262.716016 
L 314.701116 263.453449 
L 314.970093 268.224476 
L 315.104581 268.186622 
L 315.239069 267.889062 
L 315.508045 270.832561 
L 315.642534 271.37162 
L 315.777022 271.040039 
L 316.180487 274.041038 
L 316.314975 273.599729 
L 316.718439 275.962961 
L 316.852928 276.213085 
L 316.987416 275.356341 
L 317.121904 275.421986 
L 317.256392 274.297869 
L 317.39088 274.443056 
L 317.525369 272.898234 
L 317.659857 273.821102 
L 317.928833 271.292079 
L 318.332298 267.54119 
L 318.466786 268.198122 
L 318.601274 267.693563 
L 318.735763 269.15549 
L 318.870251 268.991137 
L 319.139227 270.1119 
L 319.273715 279.986015 
L 319.67718 281.108695 
L 319.811668 278.519776 
L 319.946157 270.534522 
L 320.349621 148.065686 
L 320.484109 131.851283 
L 320.887574 159.236896 
L 321.022062 163.921674 
L 321.291039 178.762316 
L 321.425527 180.56972 
L 321.560015 199.082668 
L 321.828991 254.828991 
L 321.96348 262.948411 
L 322.097968 263.738071 
L 322.635921 280.503991 
L 322.770409 280.852342 
L 322.904897 280.190618 
L 323.173874 269.717549 
L 323.44285 173.874852 
L 323.577338 174.238057 
L 323.711826 174.440264 
L 323.980803 154.183641 
L 324.249779 157.736636 
L 324.384268 160.513866 
L 324.787732 196.90008 
L 325.056709 251.638243 
L 325.325685 260.946467 
L 325.863638 278.838899 
L 325.998126 280.61324 
L 326.132614 280.678885 
L 326.267103 277.453159 
L 326.401591 268.418537 
L 326.670567 166.655779 
L 326.805055 172.634778 
L 326.939544 173.811602 
L 327.20852 160.533032 
L 327.343008 168.708514 
L 327.611985 164.939896 
L 327.746473 169.818736 
L 328.149937 224.729877 
L 328.418914 255.696276 
L 328.68789 268.557495 
L 328.822379 271.020393 
L 328.956867 281.106299 
L 329.225843 282.056959 
L 329.360331 281.206444 
L 329.629308 268.323663 
L 330.032772 178.958773 
L 330.301749 167.575294 
L 330.570725 158.732337 
L 330.839702 180.671781 
L 330.97419 181.888856 
L 331.108678 184.645002 
L 331.781119 260.826676 
L 332.050096 268.017957 
L 332.184584 278.834586 
L 332.319072 279.79435 
L 332.45356 279.126876 
L 332.588049 280.118265 
L 332.857025 267.461169 
L 333.26049 178.32484 
L 333.394978 180.241972 
L 333.663954 165.272915 
L 333.798442 166.469864 
L 333.932931 170.25142 
L 334.336395 188.18506 
L 334.73986 256.183106 
L 335.143325 271.972491 
L 335.277813 271.773159 
L 335.412301 271.870908 
L 335.546789 272.157448 
L 335.681277 272.052032 
L 335.950254 274.643825 
L 336.084742 272.541257 
L 336.622695 256.014919 
L 336.757183 256.812726 
L 336.891671 254.976573 
L 337.295136 261.358547 
L 337.698601 266.108971 
L 337.833089 265.627891 
L 338.102065 269.742944 
L 338.236553 269.510071 
L 338.371042 270.149754 
L 338.50553 267.805688 
L 339.043483 270.97631 
L 339.446947 273.983538 
L 339.581436 273.500063 
L 339.715924 272.326592 
L 339.850412 272.586778 
L 339.9849 271.803825 
L 340.119388 271.690743 
L 340.253877 271.215413 
L 340.388365 272.697944 
L 340.522853 270.70175 
L 340.657341 271.30262 
L 340.926318 270.983019 
L 341.060806 267.632231 
L 341.329782 272.532153 
L 341.464271 272.430091 
L 341.598759 272.960525 
L 341.733247 274.532659 
L 341.867735 282.383269 
L 342.136712 282.485331 
L 342.2712 283.129326 
L 342.540176 270.387419 
L 342.943641 154.792178 
L 343.212617 171.461786 
L 343.347106 170.724833 
L 343.75057 185.162019 
L 343.885058 186.842924 
L 344.019547 186.177845 
L 344.423011 254.310536 
L 345.22994 280.09766 
L 345.364429 281.185361 
L 345.498917 280.816405 
L 345.633405 276.584436 
L 345.767893 268.470766 
L 346.03687 183.912362 
L 346.171358 188.045144 
L 346.440334 174.43116 
L 346.574823 169.040575 
L 346.843799 175.943878 
L 347.112775 177.819323 
L 347.381752 212.423529 
L 347.650728 251.474848 
L 348.054193 269.500967 
L 348.188681 270.687375 
L 348.323169 279.688455 
L 348.457658 280.539449 
L 348.592146 282.41681 
L 348.726634 282.220833 
L 348.99561 269.268094 
L 349.264587 182.858203 
L 349.399075 184.33738 
L 349.668052 166.717112 
L 349.80254 162.590559 
L 350.206004 181.352672 
L 350.340493 182.536684 
L 351.012934 263.000639 
L 351.147422 265.329372 
L 351.550886 282.051209 
L 351.685375 281.336776 
L 351.954351 281.704774 
L 352.088839 280.302742 
L 352.223328 272.988796 
L 352.492304 178.767108 
L 352.626792 185.955993 
L 352.76128 174.548555 
L 352.895769 173.837477 
L 353.030257 165.531663 
L 353.164745 172.766547 
L 353.299233 170.682667 
L 353.56821 152.848693 
L 354.240651 269.642799 
L 354.375139 270.784166 
L 354.644115 276.665894 
L 354.913092 280.953925 
L 355.182068 281.999459 
L 355.316556 279.589268 
L 355.451045 270.431502 
L 355.854509 196.890976 
L 356.123486 158.432381 
L 356.257974 160.151619 
L 356.392462 168.789493 
L 356.52695 168.154123 
L 356.661439 178.79442 
L 356.795927 177.539013 
L 357.33388 265.318831 
L 357.602856 274.946656 
L 357.737344 276.917455 
L 357.871832 281.186319 
L 358.006321 280.606053 
L 358.140809 280.821197 
L 358.275297 281.563421 
L 358.409785 281.475255 
L 358.678762 280.211701 
L 359.082226 261.684857 
L 359.351203 255.760484 
L 359.485691 249.469071 
L 359.620179 260.236826 
L 359.754667 261.655628 
L 359.889156 261.824294 
L 360.427109 276.158939 
L 360.561597 276.840788 
L 360.965061 281.001362 
L 361.234038 280.961592 
L 361.368526 280.769447 
L 361.503014 282.079 
L 361.771991 281.670274 
L 361.906479 283.005223 
L 362.040967 282.957306 
L 362.175455 283.333929 
L 362.309944 283.374657 
L 362.57892 279.951037 
L 362.713408 279.901683 
L 362.982385 278.763191 
L 363.116873 277.265806 
L 363.251361 277.163744 
L 363.385849 278.258153 
L 363.520337 277.401409 
L 363.654826 277.341514 
L 364.05829 280.136952 
L 364.192778 254.042684 
L 364.730731 260.321159 
L 364.86522 259.121813 
L 364.999708 246.998985 
L 365.134196 224.771085 
L 365.403172 136.136919 
L 365.672149 105.736411 
L 365.806637 99.794309 
L 366.075613 116.798851 
L 366.34459 113.643562 
L 366.479078 125.115687 
L 367.017031 251.949699 
L 367.151519 256.926767 
L 367.286007 255.185488 
L 367.554984 266.586217 
L 367.689472 267.455899 
L 367.958448 272.373071 
L 368.227425 248.727806 
L 368.496401 152.430383 
L 368.765378 100.364034 
L 369.034354 89.423301 
L 369.168842 94.162225 
L 369.303331 93.716124 
L 369.437819 97.097099 
L 369.572307 94.967219 
L 369.706795 111.134664 
L 370.244748 235.42384 
L 370.782701 279.802975 
L 370.917189 280.10916 
L 371.051677 281.004237 
L 371.186166 280.724406 
L 371.455142 265.847348 
L 371.858607 172.220301 
L 372.127583 204.329026 
L 372.262071 200.252784 
L 372.396559 201.685003 
L 372.665536 190.956061 
L 372.800024 194.765408 
L 373.203489 234.626034 
L 373.472465 256.969412 
L 373.87593 278.244737 
L 374.010418 287.298525 
L 374.144906 287.151901 
L 374.279394 288.363225 
L 374.413883 287.858187 
L 374.682859 271.232663 
L 375.220812 181.482046 
L 375.489788 177.83849 
L 375.624277 178.062259 
L 375.893253 184.62344 
L 376.027741 188.936388 
L 376.565694 256.785893 
L 376.83467 265.711265 
L 376.969159 268.558932 
L 377.103647 280.417741 
L 377.238135 279.320458 
L 377.507112 281.401463 
L 377.6416 279.42779 
L 377.776088 282.981264 
L 378.045064 280.825509 
L 378.179553 271.145934 
L 378.314041 270.517751 
L 378.448529 263.388762 
L 378.583017 264.393567 
L 378.717505 263.472615 
L 378.851994 268.002145 
L 378.986482 267.238838 
L 379.12097 268.150685 
L 379.255458 270.318898 
L 379.389947 270.201983 
L 379.927899 279.493915 
L 380.062388 279.286437 
L 380.196876 279.704747 
L 380.331364 269.754923 
L 380.465852 270.435814 
L 380.869317 273.352001 
L 381.138293 262.410789 
L 381.272782 235.202946 
L 381.541758 160.297284 
L 381.810734 140.049765 
L 381.945223 141.647774 
L 382.214199 148.161998 
L 382.348687 140.13841 
L 382.752152 190.206649 
L 383.021128 258.497464 
L 383.155616 266.459239 
L 383.290105 267.124318 
L 383.424593 268.4171 
L 383.559081 263.467344 
L 383.693569 262.752433 
L 383.962546 263.100305 
L 384.097034 264.295817 
L 384.231522 262.504226 
L 384.36601 263.902424 
L 385.038451 149.229094 
L 385.17294 151.682889 
L 385.307428 166.883382 
L 385.576404 161.214882 
L 386.248845 261.355672 
L 386.921286 279.936662 
L 387.055775 279.118251 
L 387.190263 280.40145 
L 387.324751 279.707622 
L 387.459239 279.869579 
L 387.593727 281.365526 
L 387.728216 280.788614 
L 387.862704 282.111583 
L 387.997192 280.937154 
L 388.13168 282.534684 
L 388.266169 281.546171 
L 388.400657 279.551894 
L 388.535145 279.641497 
L 388.669633 278.97594 
L 388.804121 280.120181 
L 388.93861 277.557617 
L 389.207586 279.707622 
L 389.476562 286.427885 
L 389.611051 285.364622 
L 389.745539 286.184949 
L 389.880027 286.132721 
L 390.014515 271.159351 
L 390.149004 271.397495 
L 390.41798 271.419536 
L 390.552468 271.288246 
L 390.686956 265.763015 
L 390.821445 265.94893 
L 390.955933 257.053266 
L 391.224909 200.617428 
L 391.359397 169.085137 
L 391.493886 165.075499 
L 391.762862 175.822171 
L 391.89735 175.275925 
L 392.031839 168.016603 
L 392.166327 171.73443 
L 392.300815 180.758989 
L 392.569791 241.215965 
L 392.70428 267.635106 
L 392.973256 272.501966 
L 393.107744 273.162732 
L 393.376721 266.071117 
L 393.645697 271.817721 
L 393.780185 268.409912 
L 393.914673 269.801402 
L 394.049162 262.351373 
L 394.721603 147.168213 
L 394.990579 146.091054 
L 395.125067 145.668912 
L 395.259556 157.110849 
L 395.394044 157.985322 
L 395.931997 246.572051 
L 396.200973 260.250722 
L 396.335461 256.495041 
L 396.46995 281.392839 
L 396.604438 281.778086 
L 397.007902 284.828438 
L 397.276879 271.705597 
L 397.545855 197.623616 
L 397.680343 192.409842 
L 397.94932 168.914075 
L 398.083808 155.379153 
L 398.218296 168.187185 
L 398.352785 163.396512 
L 398.487273 166.424344 
L 398.487273 166.424344 
" clip-path="url(#p262c9a87a7)" style="fill: none; stroke: #1f77b4; stroke-width: 1.5; stroke-linecap: square"/>
   </g>
   <g id="line2d_13">
    <path d="M 73.832727 280.058448 
L 73.967215 281.117441 
L 74.101704 281.293398 
L 74.236192 281.150232 
L 74.37068 279.555004 
L 74.505168 280.531604 
L 74.639657 279.457222 
L 74.774145 280.243725 
L 74.908633 270.756405 
L 75.043121 232.313012 
L 75.581074 249.674922 
L 75.715562 251.300908 
L 75.984539 251.671044 
L 76.119027 248.673772 
L 76.253515 248.520451 
L 76.388003 248.71037 
L 76.65698 280.117216 
L 77.060444 275.642388 
L 77.194933 264.484651 
L 77.329421 265.894871 
L 77.463909 263.841435 
L 77.598397 265.468711 
L 77.732885 265.363663 
L 77.867374 253.789039 
L 78.001862 227.353158 
L 78.270838 120.803426 
L 78.405327 96.019655 
L 78.539815 98.302107 
L 78.674303 109.511733 
L 78.808791 103.631991 
L 78.943279 109.28302 
L 79.077768 108.767008 
L 79.346744 146.592746 
L 79.884697 250.018758 
L 80.288161 269.021888 
L 80.42265 263.758273 
L 80.557138 272.996129 
L 80.691626 270.931593 
L 80.826114 273.767601 
L 81.095091 263.166128 
L 81.229579 240.949742 
L 81.498555 142.476622 
L 81.633044 162.697419 
L 81.90202 160.055387 
L 82.170996 204.345885 
L 82.305485 195.39531 
L 82.439973 197.266966 
L 82.574461 194.968023 
L 82.708949 231.923653 
L 82.977926 204.821462 
L 83.112414 224.666271 
L 83.246902 204.521166 
L 83.38139 204.242311 
L 83.650367 282.959003 
L 83.919343 292.505224 
L 84.053831 292.001685 
L 84.18832 288.088373 
L 84.322808 204.239861 
L 84.457296 237.921434 
L 84.591784 204.239861 
L 84.860761 204.239861 
L 84.995249 205.382048 
L 85.264225 168.584059 
L 85.936666 217.046052 
L 86.340131 264.539488 
L 86.474619 268.153728 
L 86.609107 266.838307 
L 87.14706 291.964454 
L 87.281549 289.729297 
L 87.416037 289.401699 
L 87.685013 287.16513 
L 87.95399 249.114655 
L 88.088478 255.386229 
L 88.222966 255.042048 
L 88.357454 260.064311 
L 88.491942 260.22075 
L 88.626431 256.727353 
L 88.760919 260.096463 
L 88.895407 251.896138 
L 89.298872 259.995867 
L 89.567848 279.100397 
L 89.702336 276.081873 
L 89.836825 277.515626 
L 89.971313 277.264502 
L 90.105801 261.662083 
L 90.240289 261.331298 
L 90.374777 261.370786 
L 90.643754 265.242975 
L 90.778242 263.621659 
L 90.91273 266.005758 
L 91.047218 260.390652 
L 91.181707 246.841958 
L 91.316195 249.086802 
L 91.450683 245.197691 
L 91.585171 253.425347 
L 91.71966 252.324615 
L 92.123124 256.880074 
L 92.392101 257.848702 
L 92.930053 269.602543 
L 93.064542 269.351959 
L 93.19903 267.85117 
L 93.333518 278.680109 
L 93.602495 278.47599 
L 93.871471 271.69494 
L 94.005959 265.280102 
L 94.140447 252.926351 
L 94.409424 170.042407 
L 94.543912 175.539454 
L 94.812888 159.670696 
L 94.947377 157.248336 
L 95.350841 171.477411 
L 95.48533 167.574698 
L 95.888794 256.559482 
L 96.023282 268.934634 
L 96.157771 269.893927 
L 96.292259 267.25286 
L 96.561235 270.882415 
L 96.830212 267.254468 
L 96.9647 267.605121 
L 97.233676 260.383041 
L 97.502653 209.027544 
L 97.637141 170.428338 
L 97.771629 177.510037 
L 97.906117 172.281496 
L 98.040606 183.564012 
L 98.175094 179.074857 
L 98.44407 181.570274 
L 98.713047 198.888127 
L 98.982023 230.38997 
L 99.250999 269.510398 
L 99.385488 270.936883 
L 99.519976 270.861633 
L 99.654464 274.574887 
L 99.788952 285.005765 
L 99.923441 284.678589 
L 100.057929 282.948845 
L 100.192417 279.456862 
L 100.326905 279.150654 
L 100.461393 278.489883 
L 100.73037 274.83326 
L 101.268323 286.317765 
L 101.402811 284.258419 
L 101.537299 275.879727 
L 101.671787 280.539471 
L 101.940764 263.038185 
L 102.613205 279.632601 
L 102.747693 276.425994 
L 102.882181 281.014494 
L 103.016669 264.312424 
L 103.151158 262.948548 
L 103.420134 269.534914 
L 103.68911 256.109472 
L 103.823599 246.452314 
L 104.227063 167.878829 
L 104.361552 155.033303 
L 104.49604 167.227584 
L 104.765016 146.000512 
L 105.168481 175.669428 
L 105.840922 261.358751 
L 105.97541 257.256376 
L 106.109898 266.363774 
L 106.378875 288.081609 
L 106.513363 287.961694 
L 106.647851 281.702544 
L 106.782339 283.25012 
L 106.916828 281.289205 
L 107.051316 282.23918 
L 107.320292 215.946024 
L 107.723757 249.633902 
L 107.992733 252.241483 
L 108.127222 253.522389 
L 108.26171 251.863882 
L 108.530686 246.944564 
L 108.665174 252.440381 
L 108.934151 281.440005 
L 109.068639 280.851668 
L 109.337615 277.155737 
L 109.472104 272.642163 
L 109.74108 273.357447 
L 109.875568 275.171039 
L 110.010056 274.40677 
L 110.144545 274.374479 
L 110.279033 274.146923 
L 110.413521 273.117969 
L 110.816986 276.57783 
L 111.085962 275.591017 
L 111.22045 276.710921 
L 111.354939 276.207106 
L 111.758403 267.087179 
L 112.296356 273.697359 
L 112.565333 273.130488 
L 112.699821 262.301167 
L 112.968797 264.307255 
L 113.103285 266.894762 
L 113.237774 267.247552 
L 113.372262 265.936243 
L 113.50675 268.198651 
L 113.641238 268.43954 
L 113.775726 271.007281 
L 113.910215 269.512926 
L 114.044703 271.2541 
L 114.179191 270.19387 
L 114.313679 265.215728 
L 114.582656 263.868883 
L 114.717144 262.057815 
L 114.98612 251.733065 
L 115.120609 251.85112 
L 115.524073 262.987467 
L 115.927538 262.236062 
L 116.062026 261.183159 
L 116.196514 256.951915 
L 116.331002 263.7755 
L 116.465491 260.665496 
L 116.599979 260.858312 
L 116.734467 237.825953 
L 117.137932 79.744255 
L 117.27242 75.578749 
L 117.406908 82.144009 
L 117.541396 71.906191 
L 117.675885 73.241956 
L 117.810373 81.052113 
L 118.213837 155.846964 
L 118.482814 232.912425 
L 118.75179 249.368652 
L 119.155255 253.795269 
L 119.289743 253.593494 
L 119.55872 250.600313 
L 119.693208 250.812949 
L 119.827696 249.003025 
L 119.962184 229.674085 
L 120.231161 120.207018 
L 120.500137 90.064159 
L 120.634625 94.962856 
L 120.769114 85.437131 
L 120.903602 84.299062 
L 121.03809 85.607907 
L 121.307066 121.097621 
L 121.441555 142.867368 
L 121.710531 233.090616 
L 121.979507 249.437277 
L 122.113996 246.274919 
L 122.382972 245.914273 
L 122.651948 258.593093 
L 122.920925 251.002435 
L 123.055413 245.078997 
L 123.189901 229.003695 
L 123.593366 94.156602 
L 123.727854 82.999584 
L 123.862342 87.420714 
L 123.996831 77.258297 
L 124.131319 84.789931 
L 124.669272 146.845007 
L 125.072736 245.783607 
L 125.207225 254.948551 
L 125.341713 254.731862 
L 125.476201 259.054593 
L 125.610689 255.666924 
L 125.879666 268.409991 
L 126.014154 269.604162 
L 126.148642 263.951967 
L 126.417618 233.566494 
L 126.686595 127.285984 
L 126.955571 87.127791 
L 127.09006 86.927032 
L 127.224548 85.613102 
L 127.762501 137.324388 
L 128.031477 193.566161 
L 128.300453 247.271135 
L 128.434942 254.956486 
L 128.56943 254.979018 
L 128.838406 260.058019 
L 128.972894 258.180545 
L 129.241871 260.710464 
L 129.376359 260.383019 
L 129.645336 217.454355 
L 130.0488 84.386225 
L 130.183288 83.361838 
L 130.317777 89.677143 
L 130.452265 90.584693 
L 130.721241 120.796911 
L 130.855729 124.532403 
L 130.990218 136.023407 
L 131.528171 252.930195 
L 131.662659 260.174278 
L 131.797147 259.824406 
L 131.931635 265.372274 
L 132.200612 259.404447 
L 132.3351 262.966544 
L 132.469588 271.095155 
L 132.604076 270.265446 
L 132.873053 264.942637 
L 133.142029 246.269514 
L 133.276517 241.969124 
L 133.411005 242.190283 
L 133.545494 237.07759 
L 133.679982 237.404253 
L 133.81447 239.375044 
L 133.948958 239.08921 
L 134.083447 236.757032 
L 134.890376 258.077513 
L 135.024864 257.104982 
L 135.29384 261.252352 
L 135.831793 265.594982 
L 135.966282 270.790133 
L 136.10077 270.247494 
L 136.235258 266.582123 
L 136.504234 270.615896 
L 136.638723 267.877285 
L 136.773211 269.424429 
L 137.042187 268.21064 
L 137.445652 253.430133 
L 137.58014 256.083627 
L 137.714628 255.593698 
L 138.118093 262.736513 
L 138.387069 260.002832 
L 138.521558 263.567092 
L 138.790534 258.598324 
L 139.05951 261.609382 
L 139.328487 227.057252 
L 139.731951 81.833371 
L 139.86644 79.09671 
L 140.000928 82.225029 
L 140.135416 79.369527 
L 140.404393 100.127278 
L 141.211322 248.511918 
L 141.480298 257.023406 
L 141.749275 263.60146 
L 141.883763 264.732054 
L 142.152739 262.437992 
L 142.287228 257.916798 
L 142.690692 157.137421 
L 142.959669 89.523925 
L 143.228645 95.670612 
L 143.363133 89.195905 
L 143.497621 95.344508 
L 143.63211 93.995389 
L 143.766598 107.643918 
L 144.439039 246.255502 
L 144.842504 266.278051 
L 144.976992 266.133971 
L 145.245968 261.635699 
L 145.380456 262.902192 
L 145.514945 253.654076 
L 146.187386 95.634026 
L 146.321874 91.956666 
L 146.456362 105.522268 
L 146.59085 105.436948 
L 146.725339 114.078545 
L 146.859827 114.229233 
L 147.263291 158.410905 
L 147.532268 242.564946 
L 147.801244 257.995891 
L 148.204709 266.394252 
L 148.473685 263.600054 
L 148.87715 254.605959 
L 149.146126 162.300004 
L 149.415103 104.663811 
L 149.549591 111.823115 
L 149.684079 111.761154 
L 149.818567 107.341508 
L 150.491009 166.125089 
L 150.759985 242.269714 
L 151.16345 262.299758 
L 151.297938 264.842817 
L 151.566914 263.074064 
L 151.701402 265.124698 
L 151.970379 263.655606 
L 152.104867 258.678908 
L 152.64282 94.309861 
L 152.777308 113.270453 
L 152.911796 113.226579 
L 153.046285 102.590272 
L 153.180773 117.252064 
L 153.315261 119.414578 
L 153.718726 198.153735 
L 154.12219 262.027313 
L 154.256678 269.757752 
L 154.391167 267.560818 
L 154.525655 273.812088 
L 154.660143 272.609855 
L 154.794631 273.629376 
L 154.92912 273.00689 
L 155.063608 273.41247 
L 155.332584 276.490455 
L 155.467072 274.644873 
L 155.601561 267.688931 
L 155.736049 253.351755 
L 156.139513 262.936374 
L 156.274002 262.555981 
L 156.40849 261.467496 
L 156.542978 262.317385 
L 156.677466 264.015659 
L 156.811955 261.426772 
L 157.215419 268.340055 
L 157.484396 271.732983 
L 157.618884 270.06426 
L 157.753372 270.10725 
L 158.022348 273.023354 
L 158.156837 272.92062 
L 158.291325 273.153511 
L 158.425813 274.660726 
L 158.694789 279.151853 
L 158.829278 276.728851 
L 159.098254 279.850149 
L 159.232742 277.967829 
L 159.367231 278.574944 
L 159.501719 280.51309 
L 159.636207 278.650479 
L 160.17416 260.778432 
L 160.443136 264.236088 
L 160.577624 269.971297 
L 160.712113 269.222173 
L 160.981089 265.151746 
L 161.115577 265.949746 
L 161.250066 269.071031 
L 161.384554 268.839481 
L 161.65353 264.997912 
L 161.922507 229.980931 
L 162.325971 99.845139 
L 162.460459 79.381528 
L 162.594948 96.051524 
L 162.863924 88.055711 
L 163.401877 161.55451 
L 163.805342 247.928767 
L 164.746759 273.245547 
L 165.150224 221.980435 
L 165.553688 104.972374 
L 165.688177 118.530682 
L 165.822665 116.568211 
L 165.957153 109.433012 
L 166.091641 114.767191 
L 166.226129 114.412583 
L 166.360618 115.12562 
L 166.495106 121.326043 
L 166.629594 139.317601 
L 166.89857 239.015994 
L 167.033059 247.957171 
L 167.167547 248.594494 
L 167.7055 258.60009 
L 167.839988 262.120799 
L 167.974476 262.705926 
L 168.108964 261.105524 
L 168.243453 247.036564 
L 168.377941 219.401616 
L 168.781405 97.485062 
L 168.915894 103.290658 
L 169.18487 101.408574 
L 169.319358 105.075353 
L 169.453847 98.862911 
L 169.588335 107.965682 
L 170.395264 256.905583 
L 170.529752 258.704905 
L 170.66424 263.507096 
L 170.798729 264.121551 
L 171.067705 260.425556 
L 171.202193 259.268751 
L 171.336681 262.084056 
L 171.740146 165.618074 
L 172.009123 99.279893 
L 172.278099 113.348565 
L 172.547075 97.628685 
L 172.816052 124.45371 
L 173.219516 201.017258 
L 173.488493 250.290595 
L 174.026446 281.496564 
L 174.295422 278.26833 
L 174.42991 273.321643 
L 174.564399 273.746432 
L 174.967863 209.358543 
L 175.23684 162.285762 
L 175.505816 142.752791 
L 175.640304 141.751705 
L 175.909281 152.457073 
L 176.043769 158.680023 
L 176.447234 204.152846 
L 176.71621 255.263123 
L 176.985186 265.559935 
L 177.119675 269.089253 
L 177.254163 268.767308 
L 177.388651 268.880573 
L 177.523139 268.742762 
L 177.926604 273.80604 
L 178.061092 273.601469 
L 178.330069 258.078533 
L 178.464557 260.905084 
L 178.599045 256.556447 
L 178.733533 258.809682 
L 178.868021 259.020482 
L 179.00251 261.445543 
L 179.540462 255.9505 
L 179.674951 257.071083 
L 180.078415 270.47227 
L 180.212904 267.950487 
L 180.347392 268.603355 
L 180.616368 277.465861 
L 180.750856 277.493215 
L 180.885345 275.301981 
L 181.019833 275.298678 
L 181.154321 274.758444 
L 181.557786 261.650585 
L 181.692274 265.596103 
L 181.826762 265.960545 
L 181.96125 268.848794 
L 182.095738 263.397176 
L 182.230227 265.021682 
L 182.499203 271.21207 
L 182.633691 271.870353 
L 182.76818 274.017034 
L 183.037156 273.514237 
L 183.171644 277.559241 
L 183.306132 278.15363 
L 183.440621 278.143952 
L 183.575109 277.382587 
L 183.709597 274.508072 
L 183.978573 290.187405 
L 184.113062 292.455021 
L 184.24755 283.705161 
L 184.516526 257.489858 
L 184.785503 181.256854 
L 184.919991 182.52693 
L 185.054479 174.303853 
L 185.188967 182.611254 
L 185.323456 177.727776 
L 185.457944 180.176466 
L 185.72692 194.126516 
L 186.399361 264.973152 
L 186.937314 282.402081 
L 187.206291 295.488 
L 187.475267 289.485405 
L 187.609755 281.761431 
L 187.744243 265.444855 
L 188.01322 181.54193 
L 188.147708 184.354655 
L 188.282196 177.850531 
L 188.416684 182.503901 
L 188.551173 182.660202 
L 188.685661 184.713386 
L 189.223614 222.28875 
L 189.627078 270.944575 
L 189.896055 269.568414 
L 190.030543 275.54634 
L 190.165031 271.668975 
L 190.299519 272.173081 
L 190.702984 266.457405 
L 190.837472 266.524453 
L 190.971961 267.703518 
L 191.106449 265.648146 
L 191.240937 260.014557 
L 191.509913 271.190242 
L 191.644402 267.83558 
L 191.77889 270.697931 
L 191.913378 270.323599 
L 192.047866 270.586024 
L 192.316843 260.9146 
L 192.451331 261.777261 
L 192.720307 267.696379 
L 192.854796 273.421357 
L 192.989284 273.200583 
L 193.123772 272.018836 
L 193.527237 264.236673 
L 193.661725 265.649804 
L 193.796213 265.869737 
L 193.930701 265.258903 
L 194.199678 245.528225 
L 194.468654 171.888495 
L 194.603142 165.695947 
L 194.73763 152.643766 
L 194.872119 152.45919 
L 195.006607 144.667796 
L 195.141095 146.054429 
L 195.275583 152.645656 
L 195.410072 150.714425 
L 195.679048 181.354655 
L 195.948024 242.371181 
L 196.082513 261.77425 
L 196.217001 264.041927 
L 196.351489 261.76239 
L 196.485977 265.473065 
L 196.620465 274.382294 
L 196.889442 271.909595 
L 197.02393 267.35569 
L 197.158418 267.80491 
L 197.292907 263.079597 
L 197.427395 249.035331 
L 197.696371 172.985755 
L 197.965348 187.317454 
L 198.099836 193.641901 
L 198.234324 191.827495 
L 198.368812 196.932046 
L 198.5033 195.503847 
L 198.637789 196.18201 
L 198.906765 219.705986 
L 199.31023 276.691076 
L 199.444718 276.338472 
L 199.579206 275.598898 
L 199.848183 281.582324 
L 199.982671 280.295462 
L 200.117159 280.55795 
L 200.251647 279.632805 
L 200.386135 277.234693 
L 200.520624 268.101052 
L 200.655112 266.58085 
L 200.7896 247.123074 
L 200.924088 186.888696 
L 201.058576 193.448768 
L 201.193065 191.617333 
L 201.327553 194.216469 
L 201.462041 193.507877 
L 201.596529 198.467431 
L 201.731018 191.454099 
L 201.865506 193.811467 
L 201.999994 201.203415 
L 202.537947 269.994346 
L 202.672435 269.831555 
L 202.806923 270.9915 
L 202.941411 275.257504 
L 203.210388 264.704669 
L 203.479364 269.334375 
L 203.882829 251.722271 
L 204.017317 226.011569 
L 204.286294 162.861342 
L 204.420782 157.174259 
L 204.55527 159.755264 
L 204.689758 156.443834 
L 204.824246 162.703461 
L 204.958735 160.016125 
L 205.362199 212.697385 
L 205.900152 264.148231 
L 206.03464 262.343562 
L 206.169129 267.088355 
L 206.303617 282.773715 
L 206.572593 287.090166 
L 206.707081 284.30953 
L 206.84157 284.424993 
L 206.976058 282.604854 
L 207.379522 255.197644 
L 207.514011 257.949466 
L 208.051964 275.333496 
L 208.186452 275.789591 
L 208.455428 267.168471 
L 208.589916 267.2503 
L 208.724405 270.657835 
L 208.993381 280.257695 
L 209.127869 282.455698 
L 209.396846 279.941701 
L 209.531334 272.416637 
L 209.665822 272.627123 
L 209.80031 270.893724 
L 209.934799 271.60707 
L 210.069287 271.256561 
L 210.338263 244.648483 
L 210.60724 164.528413 
L 210.741728 151.711954 
L 210.876216 127.494954 
L 211.010704 123.76782 
L 211.145192 109.116157 
L 211.414169 135.453477 
L 211.817634 193.485518 
L 212.221098 260.902148 
L 212.355586 262.114639 
L 212.490075 259.998774 
L 212.759051 271.798067 
L 212.893539 276.071751 
L 213.162516 270.278248 
L 213.297004 271.421209 
L 213.56598 234.46183 
L 213.834957 128.756998 
L 213.969445 117.13696 
L 214.238421 137.764715 
L 214.37291 138.155997 
L 214.641886 161.869289 
L 215.179839 229.338074 
L 215.448815 270.278571 
L 215.583303 266.365552 
L 215.85228 268.150172 
L 216.121256 270.194944 
L 216.390233 268.290723 
L 216.524721 269.854146 
L 216.659209 260.742099 
L 216.793697 243.867812 
L 217.062674 143.269127 
L 217.197162 132.672483 
L 217.600627 157.175235 
L 217.735115 157.078617 
L 217.869603 151.051693 
L 218.004091 162.90119 
L 218.676532 267.315004 
L 218.945509 272.460705 
L 219.079997 267.787222 
L 219.348973 268.782401 
L 219.61795 275.640066 
L 219.752438 276.443363 
L 220.021414 244.461385 
L 220.290391 143.324671 
L 220.559367 151.630144 
L 220.693856 152.303071 
L 220.828344 149.931003 
L 220.962832 160.027341 
L 221.09732 159.417531 
L 221.366297 200.215908 
L 221.635273 224.297171 
L 221.904249 267.278984 
L 222.038738 268.311648 
L 222.307714 273.536384 
L 222.442202 273.765101 
L 222.980155 280.252273 
L 223.114643 276.469594 
L 223.249132 278.269145 
L 223.518108 251.155986 
L 223.787084 264.899952 
L 224.056061 259.758747 
L 224.325037 258.628324 
L 224.459525 261.861696 
L 224.594014 261.443883 
L 224.86299 257.616061 
L 225.131967 264.476874 
L 225.266455 265.344092 
L 225.400943 263.430461 
L 225.535431 264.386701 
L 225.669919 263.669332 
L 225.804408 261.330192 
L 226.207872 270.48267 
L 226.34236 270.250791 
L 226.476849 271.450141 
L 226.745825 269.270395 
L 226.880313 268.956952 
L 227.014802 273.968361 
L 227.283778 275.411776 
L 227.418266 274.562469 
L 227.687243 275.271263 
L 227.956219 272.328463 
L 228.090707 272.684894 
L 228.225195 278.774545 
L 228.359684 278.648721 
L 228.494172 278.901315 
L 228.62866 277.456442 
L 228.897637 277.856261 
L 229.166613 273.361219 
L 229.435589 272.455557 
L 229.570078 259.040861 
L 229.704566 230.053346 
L 230.10803 106.936562 
L 230.242519 95.588161 
L 230.377007 96.273935 
L 230.511495 87.533474 
L 231.318424 211.671265 
L 231.587401 256.934958 
L 232.125354 271.419087 
L 232.259842 271.223736 
L 232.528818 273.473613 
L 232.663306 270.087932 
L 232.932283 231.96772 
L 233.335748 114.222566 
L 233.470236 115.684555 
L 233.604724 134.597125 
L 233.739212 131.884183 
L 233.8737 143.174544 
L 234.008189 135.685084 
L 234.142677 148.131332 
L 234.815118 267.74038 
L 234.949606 268.653737 
L 235.084094 265.608815 
L 235.218583 271.37583 
L 235.353071 271.452832 
L 235.622047 279.834717 
L 235.756535 278.64078 
L 235.891024 274.958109 
L 236.16 244.653891 
L 236.428976 133.868711 
L 236.563465 116.304656 
L 236.832441 125.345495 
L 236.966929 114.76498 
L 237.101417 126.758017 
L 237.370394 156.554807 
L 237.63937 203.917043 
L 238.042835 269.510524 
L 238.177323 269.704719 
L 238.311811 268.090229 
L 238.580788 272.899902 
L 238.715276 275.155603 
L 238.984252 284.314208 
L 239.118741 280.945684 
L 239.253229 270.534084 
L 239.387717 239.504124 
L 239.656694 141.924999 
L 239.92567 117.930006 
L 240.060158 134.538975 
L 240.194646 133.516101 
L 240.329135 142.112532 
L 241.270552 260.685419 
L 241.40504 263.135342 
L 241.539529 261.56741 
L 241.674017 264.629701 
L 241.808505 262.606947 
L 241.942993 275.491157 
L 242.077481 277.359065 
L 242.21197 287.174484 
L 242.346458 281.323384 
L 242.615434 239.579398 
L 242.884411 137.961413 
L 243.018899 134.698083 
L 243.153387 152.356541 
L 243.287875 153.872665 
L 243.422363 143.077646 
L 243.960316 182.928308 
L 244.229293 239.948338 
L 244.498269 264.838793 
L 244.632757 267.776329 
L 244.767246 267.739535 
L 245.17071 276.276395 
L 245.305198 276.514346 
L 245.439687 276.321996 
L 245.708663 271.480407 
L 245.843151 252.857722 
L 245.97764 261.60693 
L 246.112128 261.884294 
L 246.246616 264.964785 
L 246.515592 263.057647 
L 246.650081 263.266655 
L 246.919057 266.649127 
L 247.053545 271.707006 
L 247.188033 271.971649 
L 247.322522 273.153659 
L 247.45701 273.351132 
L 247.591498 274.59148 
L 247.725986 274.106566 
L 247.860475 276.375228 
L 247.994963 274.416955 
L 248.129451 274.347065 
L 248.263939 274.585344 
L 248.398427 273.815149 
L 248.532916 273.945323 
L 248.667404 272.86471 
L 248.801892 275.023751 
L 248.93638 273.972354 
L 249.205357 274.537122 
L 249.474333 278.244021 
L 249.608821 278.245872 
L 249.743309 277.334854 
L 250.012286 279.075269 
L 250.146774 276.908181 
L 250.415751 277.50822 
L 250.550239 275.193099 
L 250.684727 274.865814 
L 250.953703 275.849892 
L 251.088192 276.229979 
L 251.22268 274.601722 
L 251.357168 274.9364 
L 251.491656 274.874324 
L 251.626144 286.441309 
L 251.760633 285.516417 
L 251.895121 285.801683 
L 252.029609 280.646911 
L 252.298586 253.607506 
L 252.567562 143.377513 
L 252.70205 127.524604 
L 252.836538 134.602597 
L 252.971027 160.144532 
L 253.105515 154.428325 
L 253.643468 186.888024 
L 254.181421 267.240367 
L 254.584885 282.125991 
L 254.719373 283.881989 
L 254.853862 287.487775 
L 254.98835 286.491619 
L 255.122838 287.780731 
L 255.257326 285.79176 
L 255.526303 242.25289 
L 255.795279 150.271571 
L 256.064255 164.105629 
L 256.198744 163.866303 
L 256.333232 158.390716 
L 256.736697 170.656273 
L 257.274649 252.105997 
L 257.543626 264.417474 
L 257.678114 262.644062 
L 257.812602 267.392469 
L 257.94709 266.50615 
L 258.216067 284.993474 
L 258.350555 286.086318 
L 258.485043 279.452158 
L 258.75402 245.674558 
L 259.022996 152.911025 
L 259.157484 163.281123 
L 259.291973 162.747611 
L 259.426461 165.522424 
L 259.560949 152.282099 
L 259.695437 158.23333 
L 259.829925 170.058271 
L 259.964414 163.296628 
L 260.367878 225.525162 
L 260.636855 258.584766 
L 261.040319 265.648912 
L 261.174808 264.773506 
L 261.309296 269.893195 
L 261.443784 270.582728 
L 261.578272 274.065018 
L 261.847249 262.66467 
L 261.981737 235.099597 
L 262.250713 148.330281 
L 262.385201 159.097366 
L 262.51969 157.715954 
L 262.788666 146.879712 
L 262.923154 154.731341 
L 263.057643 153.0324 
L 263.730084 242.257264 
L 263.99906 255.965005 
L 264.133548 256.149346 
L 264.268036 259.706238 
L 264.402525 266.832535 
L 264.537013 263.617766 
L 264.671501 265.62181 
L 265.074966 254.608248 
L 265.209454 237.124005 
L 265.747407 110.090294 
L 265.881895 112.37343 
L 266.016383 106.685607 
L 266.150871 116.680943 
L 266.28536 117.944776 
L 266.419848 123.543032 
L 266.554336 137.374885 
L 267.226777 255.869967 
L 267.361265 255.616876 
L 267.495754 259.27727 
L 267.630242 271.711177 
L 267.76473 270.431748 
L 267.899218 272.487549 
L 268.033706 268.077342 
L 268.302683 275.161841 
L 268.437171 275.891949 
L 268.571659 271.066675 
L 268.840636 276.352873 
L 269.109612 273.230385 
L 269.378589 273.382783 
L 269.916541 260.177937 
L 270.05103 259.250569 
L 270.320006 262.349302 
L 270.454494 263.065542 
L 270.723471 266.765135 
L 270.857959 279.723706 
L 270.992447 281.231823 
L 271.5304 275.365041 
L 271.799376 277.505573 
L 271.933865 280.79236 
L 272.068353 279.715715 
L 272.202841 281.674852 
L 272.337329 278.490473 
L 272.471817 281.398536 
L 272.606306 280.81478 
L 272.740794 277.852483 
L 273.00977 279.229283 
L 273.278747 275.142217 
L 273.413235 275.607451 
L 273.682211 278.040485 
L 274.085676 276.436594 
L 274.220164 290.802393 
L 274.489141 294.3714 
L 274.758117 273.646018 
L 274.892605 254.124861 
L 275.161582 186.309536 
L 275.430558 159.595041 
L 275.699535 153.763228 
L 275.834023 154.600199 
L 276.77544 264.525016 
L 276.909928 269.475513 
L 277.044417 269.0967 
L 277.178905 276.805843 
L 277.313393 275.585993 
L 277.447881 282.906903 
L 277.58237 282.309036 
L 277.716858 286.766758 
L 277.851346 283.908416 
L 277.985834 277.297946 
L 278.120322 260.395308 
L 278.389299 192.334491 
L 278.658275 175.994512 
L 278.792763 180.857616 
L 278.927252 175.961508 
L 279.06174 190.808773 
L 279.196228 189.426021 
L 279.465204 208.421605 
L 280.003157 269.965748 
L 280.406622 278.311904 
L 280.675598 264.846403 
L 280.810087 262.633929 
L 280.944575 264.733172 
L 281.079063 261.988843 
L 281.348039 242.688979 
L 281.751504 135.660254 
L 281.885992 116.146686 
L 282.154969 134.093426 
L 282.289457 140.839886 
L 282.423945 127.263064 
L 282.692922 152.97936 
L 283.230874 264.751954 
L 283.365363 265.219327 
L 283.499851 263.51804 
L 283.634339 265.50133 
L 284.037804 258.528001 
L 284.172292 258.805807 
L 284.30678 256.657143 
L 284.575757 241.609225 
L 284.844733 166.740436 
L 284.979221 152.500023 
L 285.113709 154.31933 
L 285.248198 142.58022 
L 285.382686 141.058625 
L 285.517174 133.027436 
L 286.055127 192.00414 
L 286.324103 251.209992 
L 286.458592 262.980118 
L 286.59308 263.107007 
L 286.727568 262.744671 
L 286.862056 263.271487 
L 286.996544 283.295023 
L 287.131033 283.526886 
L 287.265521 282.755807 
L 287.534497 272.583143 
L 287.668985 270.13086 
L 287.803474 263.296405 
L 287.937962 263.264465 
L 288.206938 273.374629 
L 288.341427 273.017032 
L 288.475915 272.135239 
L 288.610403 269.679169 
L 288.744891 270.131896 
L 288.879379 269.640186 
L 289.148356 276.516667 
L 289.282844 271.520902 
L 289.55182 280.278632 
L 289.686309 281.72741 
L 290.224262 275.603186 
L 290.35875 277.707345 
L 290.493238 276.4055 
L 290.627726 277.653026 
L 290.762214 274.502404 
L 291.165679 245.808152 
L 291.434655 179.718241 
L 291.569144 182.079201 
L 291.83812 191.844908 
L 292.107096 178.295959 
L 292.510561 211.714373 
L 292.914026 266.562054 
L 293.048514 267.264042 
L 293.183002 268.683577 
L 293.31749 272.249937 
L 293.720955 267.622114 
L 293.855443 270.332179 
L 293.989931 269.571671 
L 294.258908 253.95207 
L 294.393396 229.891203 
L 294.662373 174.233893 
L 294.796861 160.289 
L 294.931349 158.888509 
L 295.065837 144.634457 
L 295.200325 142.505225 
L 295.334814 149.408385 
L 295.469302 148.271244 
L 295.738278 195.985092 
L 296.276231 261.549943 
L 296.410719 258.732662 
L 296.545208 265.820943 
L 296.679696 284.841058 
L 296.948672 288.336912 
L 297.08316 282.237849 
L 297.352137 280.750714 
L 297.621113 277.809803 
L 297.89009 284.442846 
L 298.293554 278.004753 
L 298.428042 278.681294 
L 298.562531 278.760135 
L 298.697019 277.677676 
L 298.831507 277.906909 
L 298.965995 273.85234 
L 299.234972 276.970081 
L 299.503948 280.555963 
L 299.638436 278.74655 
L 299.772925 278.698714 
L 299.907413 267.107437 
L 300.041901 270.106189 
L 300.176389 267.458553 
L 300.310877 271.062627 
L 300.445366 267.423698 
L 300.714342 239.380981 
L 300.983319 167.10787 
L 301.252295 136.847596 
L 301.386783 127.958698 
L 301.521271 127.942125 
L 301.65576 137.819434 
L 301.790248 132.133268 
L 302.059224 178.740716 
L 302.597177 257.288103 
L 302.731665 260.447053 
L 302.866153 257.952683 
L 303.13513 269.610226 
L 303.269618 268.883556 
L 303.404106 266.075649 
L 303.538595 266.503942 
L 303.673083 265.352944 
L 304.076547 189.273341 
L 304.211036 157.445462 
L 304.345524 160.495383 
L 304.6145 157.83805 
L 304.748988 153.127101 
L 304.883477 158.39317 
L 305.017965 151.299321 
L 305.152453 163.22681 
L 305.690406 246.780991 
L 305.959382 265.232376 
L 306.093871 262.510209 
L 306.228359 266.782531 
L 306.362847 267.49008 
L 306.497335 277.79452 
L 306.631823 278.705134 
L 306.766312 278.643605 
L 306.9008 274.403822 
L 307.035288 263.253542 
L 307.169776 237.297329 
L 307.438753 146.011272 
L 307.707729 165.51002 
L 307.976706 157.266792 
L 308.111194 161.80559 
L 308.245682 154.914988 
L 308.38017 165.453343 
L 309.052611 265.675623 
L 309.187099 268.901396 
L 309.321588 267.752637 
L 309.456076 274.278041 
L 309.590564 275.24497 
L 309.725052 277.908604 
L 310.128517 273.518753 
L 310.263005 264.861532 
L 310.397493 235.34835 
L 310.66647 145.673075 
L 311.069934 166.661038 
L 311.204423 158.202639 
L 311.338911 162.468038 
L 311.473399 161.864593 
L 311.607887 161.992428 
L 312.280328 263.223735 
L 312.414817 265.569155 
L 312.549305 264.362625 
L 312.818281 271.125509 
L 312.952769 273.243916 
L 313.087258 271.476159 
L 313.221746 272.414166 
L 313.356234 270.549242 
L 313.490722 272.109441 
L 313.894187 247.220036 
L 314.028675 256.831767 
L 314.163163 255.902937 
L 314.297652 257.748191 
L 314.43214 256.295659 
L 314.701116 262.533884 
L 314.835604 263.36086 
L 315.104581 270.699688 
L 315.373557 270.367907 
L 315.508045 272.442903 
L 315.642534 272.429284 
L 315.777022 271.923711 
L 315.91151 270.455386 
L 316.045998 271.91959 
L 316.180487 271.852893 
L 316.314975 273.111327 
L 316.449463 271.495925 
L 316.583951 271.942304 
L 316.718439 271.187148 
L 316.987416 272.302149 
L 317.121904 271.800374 
L 317.39088 275.9775 
L 317.525369 277.445274 
L 317.659857 276.378687 
L 317.794345 276.781022 
L 318.19781 271.865585 
L 318.466786 268.784627 
L 318.601274 270.260105 
L 318.735763 270.098493 
L 318.870251 271.072037 
L 319.004739 270.188992 
L 319.139227 267.703728 
L 319.273715 268.17126 
L 319.408204 280.612975 
L 319.542692 281.553798 
L 319.67718 281.58418 
L 319.946157 270.462168 
L 320.080645 249.643812 
L 320.349621 143.879944 
L 320.618598 125.256508 
L 320.753086 142.321634 
L 320.887574 144.830079 
L 321.15655 158.084635 
L 322.097968 267.437792 
L 322.232456 264.975933 
L 322.366944 270.274985 
L 322.501433 270.056728 
L 322.635921 282.422976 
L 322.770409 283.17636 
L 322.904897 282.82732 
L 323.039385 276.262185 
L 323.308362 247.744957 
L 323.577338 149.1746 
L 323.846315 169.165915 
L 324.115291 153.463328 
L 324.249779 155.396225 
L 324.384268 155.676645 
L 324.518756 164.014751 
L 325.056709 251.535185 
L 325.191197 263.791312 
L 325.325685 264.414525 
L 325.460173 262.803841 
L 325.594661 268.609643 
L 325.72915 269.398984 
L 325.998126 281.365396 
L 326.132614 282.933091 
L 326.267103 278.591876 
L 326.401591 269.531852 
L 326.536079 245.108832 
L 326.805055 141.714761 
L 327.074032 168.715655 
L 327.343008 159.433916 
L 327.477496 165.391548 
L 327.611985 162.31248 
L 327.746473 167.656906 
L 327.880961 183.559156 
L 328.149937 230.32529 
L 328.418914 257.834162 
L 328.956867 273.739901 
L 329.091355 285.190648 
L 329.360331 284.051943 
L 329.49482 277.14698 
L 329.763796 244.119894 
L 330.032772 159.071612 
L 330.167261 161.884766 
L 330.301749 169.172169 
L 330.436237 166.938621 
L 330.705214 157.071816 
L 331.781119 264.027102 
L 331.915607 262.45014 
L 332.184584 269.812946 
L 332.319072 282.627804 
L 332.45356 283.478066 
L 332.722537 276.249824 
L 332.991513 243.806056 
L 333.26049 154.421827 
L 333.394978 161.377783 
L 333.529466 174.786263 
L 333.798442 164.259809 
L 333.932931 164.346138 
L 334.067419 166.251694 
L 334.470883 209.839213 
L 334.874348 267.203187 
L 335.143325 268.606735 
L 335.277813 274.194378 
L 335.546789 272.271525 
L 335.815766 270.025994 
L 336.084742 271.688588 
L 336.488207 258.588149 
L 336.622695 257.380965 
L 336.757183 254.479573 
L 336.891671 255.663212 
L 337.02616 254.790256 
L 337.295136 258.429147 
L 337.429624 260.889672 
L 337.698601 268.309044 
L 337.833089 268.687694 
L 337.967577 268.468629 
L 338.102065 271.215256 
L 338.236553 271.650146 
L 338.371042 270.588508 
L 338.50553 270.833467 
L 338.640018 268.055111 
L 339.043483 268.400575 
L 339.177971 268.65473 
L 339.312459 269.181411 
L 339.446947 268.324806 
L 339.581436 268.251486 
L 339.850412 270.004184 
L 340.119388 267.514066 
L 340.253877 270.672744 
L 340.388365 269.378982 
L 340.522853 272.074124 
L 340.657341 270.694811 
L 340.791829 273.191368 
L 341.060806 272.283213 
L 341.195294 269.562037 
L 341.464271 273.938529 
L 341.598759 272.899687 
L 341.733247 273.251281 
L 341.867735 274.396761 
L 342.002223 284.48709 
L 342.136712 284.423226 
L 342.2712 283.084398 
L 342.405688 279.623455 
L 342.674664 247.880912 
L 342.943641 149.868775 
L 343.078129 136.423091 
L 343.347106 169.639418 
L 343.481594 165.658773 
L 343.75057 173.952464 
L 344.154035 207.609363 
L 344.423011 258.411615 
L 344.557499 265.772207 
L 344.691988 264.908807 
L 344.826476 267.371864 
L 344.960964 273.045811 
L 345.095452 273.740945 
L 345.22994 282.170133 
L 345.364429 281.680166 
L 345.498917 282.430765 
L 345.633405 277.239517 
L 345.767893 267.054877 
L 345.902382 245.014253 
L 346.171358 158.396333 
L 346.305846 171.298139 
L 346.440334 173.260133 
L 346.574823 173.271446 
L 346.709311 168.757761 
L 346.978287 171.927301 
L 347.247264 192.42067 
L 347.785217 263.64182 
L 348.054193 265.539703 
L 348.188681 272.330377 
L 348.323169 272.391571 
L 348.457658 282.389314 
L 348.592146 282.248356 
L 348.726634 284.367509 
L 348.861122 279.254459 
L 349.130099 245.486559 
L 349.399075 157.214371 
L 349.533563 167.417071 
L 349.668052 165.278257 
L 349.80254 166.433192 
L 349.937028 162.763404 
L 350.206004 168.233493 
L 350.474981 194.031705 
L 350.878445 253.359009 
L 351.147422 267.945786 
L 351.28191 266.162291 
L 351.685375 285.272098 
L 352.088839 277.282219 
L 352.223328 273.048426 
L 352.357816 252.568462 
L 352.626792 153.064531 
L 352.76128 168.717934 
L 352.895769 169.861271 
L 353.030257 172.438896 
L 353.164745 165.470176 
L 353.299233 168.996225 
L 353.433721 167.247464 
L 353.56821 167.14511 
L 353.702698 167.743552 
L 354.106163 256.130432 
L 354.240651 271.481505 
L 354.375139 273.076602 
L 354.509627 270.49695 
L 354.913092 281.804327 
L 355.04758 282.027428 
L 355.182068 281.031803 
L 355.316556 278.83021 
L 355.451045 271.782836 
L 355.585533 247.227404 
L 355.854509 181.217416 
L 355.988998 180.423216 
L 356.257974 159.577212 
L 356.661439 166.712702 
L 356.930415 189.934998 
L 357.199391 238.903036 
L 357.468368 274.586374 
L 357.602856 274.753873 
L 357.737344 274.215876 
L 358.006321 281.01632 
L 358.409785 279.262778 
L 358.544274 278.971846 
L 358.81325 274.875476 
L 359.082226 258.213583 
L 359.216715 252.90105 
L 359.351203 254.418373 
L 359.485691 257.26657 
L 359.620179 247.633338 
L 359.754667 259.825515 
L 359.889156 260.733594 
L 360.023644 260.376021 
L 360.427109 278.751724 
L 360.561597 278.178563 
L 360.696085 278.115599 
L 360.830573 278.777 
L 361.09955 278.952516 
L 361.234038 279.849143 
L 361.368526 279.451948 
L 361.503014 278.533162 
L 361.637502 279.792451 
L 361.906479 278.023534 
L 362.040967 278.860288 
L 362.175455 278.216378 
L 362.309944 278.885059 
L 362.444432 272.774511 
L 362.57892 275.352429 
L 362.713408 273.760316 
L 362.982385 278.724794 
L 363.116873 279.358132 
L 363.385849 276.931313 
L 363.520337 278.499114 
L 363.789314 278.13841 
L 363.923802 278.425321 
L 364.05829 278.061926 
L 364.192778 278.974648 
L 364.327267 245.569682 
L 364.596243 241.471749 
L 364.86522 251.732022 
L 364.999708 246.090655 
L 365.672149 101.497894 
L 365.806637 105.450655 
L 365.941125 98.50346 
L 366.075613 109.283461 
L 366.210102 109.225528 
L 366.479078 130.869543 
L 366.613566 154.568112 
L 366.882543 239.770286 
L 367.151519 258.020376 
L 367.286007 258.154969 
L 367.420496 259.133233 
L 367.689472 266.356441 
L 367.82396 266.472497 
L 368.092937 267.81944 
L 368.765378 92.587324 
L 368.899866 98.962505 
L 369.034354 99.269412 
L 369.303331 87.674426 
L 369.437819 89.628219 
L 369.841283 145.366002 
L 370.11026 238.299818 
L 370.379236 250.682636 
L 370.513724 252.872799 
L 370.648213 260.428078 
L 370.782701 283.392383 
L 370.917189 285.673045 
L 371.051677 285.712573 
L 371.455142 260.641577 
L 371.58963 239.796449 
L 371.858607 158.253369 
L 371.993095 156.768862 
L 372.262071 196.461266 
L 372.396559 190.99256 
L 372.531048 195.152658 
L 372.665536 194.579744 
L 372.934512 207.252664 
L 373.203489 238.132195 
L 373.472465 261.481345 
L 373.741442 264.662913 
L 373.87593 269.73613 
L 374.144906 293.026578 
L 374.279394 293.192778 
L 374.413883 291.381513 
L 374.548371 285.866193 
L 374.817347 245.299384 
L 375.086324 190.259948 
L 375.3553 173.670174 
L 375.489788 178.672459 
L 375.624277 175.104337 
L 375.758765 177.968792 
L 376.162229 204.118472 
L 376.565694 259.459095 
L 376.700182 267.188108 
L 376.83467 268.035695 
L 376.969159 267.07266 
L 377.103647 270.784006 
L 377.238135 283.28618 
L 377.372623 282.059775 
L 377.507112 282.737332 
L 377.776088 274.793582 
L 377.910576 278.650843 
L 378.045064 269.075545 
L 378.179553 270.269826 
L 378.314041 258.820029 
L 378.448529 264.688408 
L 378.583017 259.389504 
L 378.986482 269.177431 
L 379.12097 268.955848 
L 379.255458 269.218343 
L 379.389947 273.449565 
L 379.524435 272.353022 
L 379.927899 280.030513 
L 380.062388 281.14866 
L 380.331364 277.591931 
L 380.465852 267.532994 
L 380.60034 267.53686 
L 380.734829 267.908909 
L 380.869317 271.970625 
L 381.003805 271.283525 
L 381.272782 251.553901 
L 381.676246 144.685989 
L 381.810734 139.413395 
L 381.945223 144.754752 
L 382.079711 143.83928 
L 382.214199 144.038186 
L 382.348687 147.267218 
L 382.483175 144.620987 
L 383.155616 264.241269 
L 383.290105 267.09319 
L 383.424593 266.877305 
L 383.559081 270.792929 
L 383.828058 261.975358 
L 383.962546 260.226648 
L 384.231522 261.16584 
L 384.36601 257.209979 
L 384.500499 257.542671 
L 384.903963 156.005568 
L 385.038451 156.925531 
L 385.17294 143.986502 
L 385.307428 148.472018 
L 385.441916 165.014772 
L 385.576404 165.535639 
L 385.710893 169.418994 
L 386.114357 233.454518 
L 386.383334 267.246052 
L 386.517822 267.409171 
L 386.786798 273.201045 
L 386.921286 281.681524 
L 387.055775 281.183966 
L 387.459239 274.93543 
L 387.728216 267.445379 
L 387.862704 268.513834 
L 387.997192 276.843358 
L 388.13168 277.152464 
L 388.266169 278.474953 
L 388.400657 285.498593 
L 388.535145 283.067253 
L 388.669633 276.716585 
L 388.804121 282.929137 
L 388.93861 283.777978 
L 389.073098 279.401335 
L 389.342074 280.133927 
L 389.611051 288.042514 
L 389.880027 284.982581 
L 390.014515 283.491144 
L 390.149004 266.187961 
L 390.41798 261.944915 
L 390.552468 266.106527 
L 390.686956 263.881927 
L 391.090421 229.427791 
L 391.224909 188.782102 
L 391.359397 183.584516 
L 391.493886 159.312167 
L 391.628374 162.405352 
L 391.762862 169.789055 
L 391.89735 170.109471 
L 392.031839 175.471776 
L 392.166327 173.834265 
L 392.435303 202.729395 
L 392.838768 275.614309 
L 393.107744 272.052657 
L 393.242232 273.528656 
L 393.511209 261.407813 
L 393.780185 268.550373 
L 394.049162 258.088552 
L 394.721603 156.547002 
L 394.856091 145.792507 
L 394.990579 145.912526 
L 395.125067 145.419073 
L 395.259556 142.371339 
L 396.200973 262.938329 
L 396.46995 259.642713 
L 396.604438 285.024687 
L 396.738926 286.263308 
L 396.873414 289.846974 
L 397.007902 282.213507 
L 397.142391 283.164379 
L 397.411367 246.671145 
L 397.680343 171.683036 
L 397.814832 175.901499 
L 398.218296 157.564536 
L 398.352785 164.542825 
L 398.487273 162.367885 
L 398.487273 162.367885 
" clip-path="url(#p262c9a87a7)" style="fill: none; stroke: #ff7f0e; stroke-width: 1.5; stroke-linecap: square"/>
   </g>
   <g id="patch_3">
    <path d="M 57.6 307.584 
L 57.6 41.472 
" style="fill: none; stroke: #000000; stroke-width: 0.8; stroke-linejoin: miter; stroke-linecap: square"/>
   </g>
   <g id="patch_4">
    <path d="M 414.72 307.584 
L 414.72 41.472 
" style="fill: none; stroke: #000000; stroke-width: 0.8; stroke-linejoin: miter; stroke-linecap: square"/>
   </g>
   <g id="patch_5">
    <path d="M 57.6 307.584 
L 414.72 307.584 
" style="fill: none; stroke: #000000; stroke-width: 0.8; stroke-linejoin: miter; stroke-linecap: square"/>
   </g>
   <g id="patch_6">
    <path d="M 57.6 41.472 
L 414.72 41.472 
" style="fill: none; stroke: #000000; stroke-width: 0.8; stroke-linejoin: miter; stroke-linecap: square"/>
   </g>
  </g>
 </g>
 <defs>
  <clipPath id="p262c9a87a7">
   <rect x="57.6" y="41.472" width="357.12" height="266.112"/>
  </clipPath>
 </defs>
</svg>
