<?xml version="1.0" encoding="utf-8" standalone="no"?>
<!DOCTYPE svg PUBLIC "-//W3C//DTD SVG 1.1//EN"
  "http://www.w3.org/Graphics/SVG/1.1/DTD/svg11.dtd">
<svg xmlns:xlink="http://www.w3.org/1999/xlink" width="460.8pt" height="345.6pt" viewBox="0 0 460.8 345.6" xmlns="http://www.w3.org/2000/svg" version="1.1">
 <metadata>
  <rdf:RDF xmlns:dc="http://purl.org/dc/elements/1.1/" xmlns:cc="http://creativecommons.org/ns#" xmlns:rdf="http://www.w3.org/1999/02/22-rdf-syntax-ns#">
   <cc:Work>
    <dc:type rdf:resource="http://purl.org/dc/dcmitype/StillImage"/>
    <dc:date>2023-04-04T06:11:28.436689</dc:date>
    <dc:format>image/svg+xml</dc:format>
    <dc:creator>
     <cc:Agent>
      <dc:title>Matplotlib v3.5.2, https://matplotlib.org/</dc:title>
     </cc:Agent>
    </dc:creator>
   </cc:Work>
  </rdf:RDF>
 </metadata>
 <defs>
  <style type="text/css">*{stroke-linejoin: round; stroke-linecap: butt}</style>
 </defs>
 <g id="figure_1">
  <g id="patch_1">
   <path d="M 0 345.6 
L 460.8 345.6 
L 460.8 0 
L 0 0 
z
" style="fill: #ffffff"/>
  </g>
  <g id="axes_1">
   <g id="patch_2">
    <path d="M 57.6 307.584 
L 414.72 307.584 
L 414.72 41.472 
L 57.6 41.472 
z
" style="fill: #ffffff"/>
   </g>
   <g id="matplotlib.axis_1">
    <g id="xtick_1">
     <g id="line2d_1">
      <defs>
       <path id="m1893103284" d="M 0 0 
L 0 3.5 
" style="stroke: #000000; stroke-width: 0.8"/>
      </defs>
      <g>
       <use xlink:href="#m1893103284" x="73.832727" y="307.584" style="stroke: #000000; stroke-width: 0.8"/>
      </g>
     </g>
     <g id="text_1">
      <!-- 0 -->
      <g transform="translate(70.651477 322.182437)scale(0.1 -0.1)">
       <defs>
        <path id="DejaVuSans-30" d="M 2034 4250 
Q 1547 4250 1301 3770 
Q 1056 3291 1056 2328 
Q 1056 1369 1301 889 
Q 1547 409 2034 409 
Q 2525 409 2770 889 
Q 3016 1369 3016 2328 
Q 3016 3291 2770 3770 
Q 2525 4250 2034 4250 
z
M 2034 4750 
Q 2819 4750 3233 4129 
Q 3647 3509 3647 2328 
Q 3647 1150 3233 529 
Q 2819 -91 2034 -91 
Q 1250 -91 836 529 
Q 422 1150 422 2328 
Q 422 3509 836 4129 
Q 1250 4750 2034 4750 
z
" transform="scale(0.015625)"/>
       </defs>
       <use xlink:href="#DejaVuSans-30"/>
      </g>
     </g>
    </g>
    <g id="xtick_2">
     <g id="line2d_2">
      <g>
       <use xlink:href="#m1893103284" x="141.076834" y="307.584" style="stroke: #000000; stroke-width: 0.8"/>
      </g>
     </g>
     <g id="text_2">
      <!-- 500 -->
      <g transform="translate(131.533084 322.182437)scale(0.1 -0.1)">
       <defs>
        <path id="DejaVuSans-35" d="M 691 4666 
L 3169 4666 
L 3169 4134 
L 1269 4134 
L 1269 2991 
Q 1406 3038 1543 3061 
Q 1681 3084 1819 3084 
Q 2600 3084 3056 2656 
Q 3513 2228 3513 1497 
Q 3513 744 3044 326 
Q 2575 -91 1722 -91 
Q 1428 -91 1123 -41 
Q 819 9 494 109 
L 494 744 
Q 775 591 1075 516 
Q 1375 441 1709 441 
Q 2250 441 2565 725 
Q 2881 1009 2881 1497 
Q 2881 1984 2565 2268 
Q 2250 2553 1709 2553 
Q 1456 2553 1204 2497 
Q 953 2441 691 2322 
L 691 4666 
z
" transform="scale(0.015625)"/>
       </defs>
       <use xlink:href="#DejaVuSans-35"/>
       <use xlink:href="#DejaVuSans-30" x="63.623047"/>
       <use xlink:href="#DejaVuSans-30" x="127.246094"/>
      </g>
     </g>
    </g>
    <g id="xtick_3">
     <g id="line2d_3">
      <g>
       <use xlink:href="#m1893103284" x="208.32094" y="307.584" style="stroke: #000000; stroke-width: 0.8"/>
      </g>
     </g>
     <g id="text_3">
      <!-- 1000 -->
      <g transform="translate(195.59594 322.182437)scale(0.1 -0.1)">
       <defs>
        <path id="DejaVuSans-31" d="M 794 531 
L 1825 531 
L 1825 4091 
L 703 3866 
L 703 4441 
L 1819 4666 
L 2450 4666 
L 2450 531 
L 3481 531 
L 3481 0 
L 794 0 
L 794 531 
z
" transform="scale(0.015625)"/>
       </defs>
       <use xlink:href="#DejaVuSans-31"/>
       <use xlink:href="#DejaVuSans-30" x="63.623047"/>
       <use xlink:href="#DejaVuSans-30" x="127.246094"/>
       <use xlink:href="#DejaVuSans-30" x="190.869141"/>
      </g>
     </g>
    </g>
    <g id="xtick_4">
     <g id="line2d_4">
      <g>
       <use xlink:href="#m1893103284" x="275.565046" y="307.584" style="stroke: #000000; stroke-width: 0.8"/>
      </g>
     </g>
     <g id="text_4">
      <!-- 1500 -->
      <g transform="translate(262.840046 322.182437)scale(0.1 -0.1)">
       <use xlink:href="#DejaVuSans-31"/>
       <use xlink:href="#DejaVuSans-35" x="63.623047"/>
       <use xlink:href="#DejaVuSans-30" x="127.246094"/>
       <use xlink:href="#DejaVuSans-30" x="190.869141"/>
      </g>
     </g>
    </g>
    <g id="xtick_5">
     <g id="line2d_5">
      <g>
       <use xlink:href="#m1893103284" x="342.809153" y="307.584" style="stroke: #000000; stroke-width: 0.8"/>
      </g>
     </g>
     <g id="text_5">
      <!-- 2000 -->
      <g transform="translate(330.084153 322.182437)scale(0.1 -0.1)">
       <defs>
        <path id="DejaVuSans-32" d="M 1228 531 
L 3431 531 
L 3431 0 
L 469 0 
L 469 531 
Q 828 903 1448 1529 
Q 2069 2156 2228 2338 
Q 2531 2678 2651 2914 
Q 2772 3150 2772 3378 
Q 2772 3750 2511 3984 
Q 2250 4219 1831 4219 
Q 1534 4219 1204 4116 
Q 875 4013 500 3803 
L 500 4441 
Q 881 4594 1212 4672 
Q 1544 4750 1819 4750 
Q 2544 4750 2975 4387 
Q 3406 4025 3406 3419 
Q 3406 3131 3298 2873 
Q 3191 2616 2906 2266 
Q 2828 2175 2409 1742 
Q 1991 1309 1228 531 
z
" transform="scale(0.015625)"/>
       </defs>
       <use xlink:href="#DejaVuSans-32"/>
       <use xlink:href="#DejaVuSans-30" x="63.623047"/>
       <use xlink:href="#DejaVuSans-30" x="127.246094"/>
       <use xlink:href="#DejaVuSans-30" x="190.869141"/>
      </g>
     </g>
    </g>
    <g id="xtick_6">
     <g id="line2d_6">
      <g>
       <use xlink:href="#m1893103284" x="410.053259" y="307.584" style="stroke: #000000; stroke-width: 0.8"/>
      </g>
     </g>
     <g id="text_6">
      <!-- 2500 -->
      <g transform="translate(397.328259 322.182437)scale(0.1 -0.1)">
       <use xlink:href="#DejaVuSans-32"/>
       <use xlink:href="#DejaVuSans-35" x="63.623047"/>
       <use xlink:href="#DejaVuSans-30" x="127.246094"/>
       <use xlink:href="#DejaVuSans-30" x="190.869141"/>
      </g>
     </g>
    </g>
   </g>
   <g id="matplotlib.axis_2">
    <g id="ytick_1">
     <g id="line2d_7">
      <defs>
       <path id="m0c18f856ba" d="M 0 0 
L -3.5 0 
" style="stroke: #000000; stroke-width: 0.8"/>
      </defs>
      <g>
       <use xlink:href="#m0c18f856ba" x="57.6" y="278.307606" style="stroke: #000000; stroke-width: 0.8"/>
      </g>
     </g>
     <g id="text_7">
      <!-- 100 -->
      <g transform="translate(31.5125 282.106824)scale(0.1 -0.1)">
       <use xlink:href="#DejaVuSans-31"/>
       <use xlink:href="#DejaVuSans-30" x="63.623047"/>
       <use xlink:href="#DejaVuSans-30" x="127.246094"/>
      </g>
     </g>
    </g>
    <g id="ytick_2">
     <g id="line2d_8">
      <g>
       <use xlink:href="#m0c18f856ba" x="57.6" y="230.952033" style="stroke: #000000; stroke-width: 0.8"/>
      </g>
     </g>
     <g id="text_8">
      <!-- 200 -->
      <g transform="translate(31.5125 234.751251)scale(0.1 -0.1)">
       <use xlink:href="#DejaVuSans-32"/>
       <use xlink:href="#DejaVuSans-30" x="63.623047"/>
       <use xlink:href="#DejaVuSans-30" x="127.246094"/>
      </g>
     </g>
    </g>
    <g id="ytick_3">
     <g id="line2d_9">
      <g>
       <use xlink:href="#m0c18f856ba" x="57.6" y="183.596459" style="stroke: #000000; stroke-width: 0.8"/>
      </g>
     </g>
     <g id="text_9">
      <!-- 300 -->
      <g transform="translate(31.5125 187.395678)scale(0.1 -0.1)">
       <defs>
        <path id="DejaVuSans-33" d="M 2597 2516 
Q 3050 2419 3304 2112 
Q 3559 1806 3559 1356 
Q 3559 666 3084 287 
Q 2609 -91 1734 -91 
Q 1441 -91 1130 -33 
Q 819 25 488 141 
L 488 750 
Q 750 597 1062 519 
Q 1375 441 1716 441 
Q 2309 441 2620 675 
Q 2931 909 2931 1356 
Q 2931 1769 2642 2001 
Q 2353 2234 1838 2234 
L 1294 2234 
L 1294 2753 
L 1863 2753 
Q 2328 2753 2575 2939 
Q 2822 3125 2822 3475 
Q 2822 3834 2567 4026 
Q 2313 4219 1838 4219 
Q 1578 4219 1281 4162 
Q 984 4106 628 3988 
L 628 4550 
Q 988 4650 1302 4700 
Q 1616 4750 1894 4750 
Q 2613 4750 3031 4423 
Q 3450 4097 3450 3541 
Q 3450 3153 3228 2886 
Q 3006 2619 2597 2516 
z
" transform="scale(0.015625)"/>
       </defs>
       <use xlink:href="#DejaVuSans-33"/>
       <use xlink:href="#DejaVuSans-30" x="63.623047"/>
       <use xlink:href="#DejaVuSans-30" x="127.246094"/>
      </g>
     </g>
    </g>
    <g id="ytick_4">
     <g id="line2d_10">
      <g>
       <use xlink:href="#m0c18f856ba" x="57.6" y="136.240886" style="stroke: #000000; stroke-width: 0.8"/>
      </g>
     </g>
     <g id="text_10">
      <!-- 400 -->
      <g transform="translate(31.5125 140.040105)scale(0.1 -0.1)">
       <defs>
        <path id="DejaVuSans-34" d="M 2419 4116 
L 825 1625 
L 2419 1625 
L 2419 4116 
z
M 2253 4666 
L 3047 4666 
L 3047 1625 
L 3713 1625 
L 3713 1100 
L 3047 1100 
L 3047 0 
L 2419 0 
L 2419 1100 
L 313 1100 
L 313 1709 
L 2253 4666 
z
" transform="scale(0.015625)"/>
       </defs>
       <use xlink:href="#DejaVuSans-34"/>
       <use xlink:href="#DejaVuSans-30" x="63.623047"/>
       <use xlink:href="#DejaVuSans-30" x="127.246094"/>
      </g>
     </g>
    </g>
    <g id="ytick_5">
     <g id="line2d_11">
      <g>
       <use xlink:href="#m0c18f856ba" x="57.6" y="88.885313" style="stroke: #000000; stroke-width: 0.8"/>
      </g>
     </g>
     <g id="text_11">
      <!-- 500 -->
      <g transform="translate(31.5125 92.684532)scale(0.1 -0.1)">
       <use xlink:href="#DejaVuSans-35"/>
       <use xlink:href="#DejaVuSans-30" x="63.623047"/>
       <use xlink:href="#DejaVuSans-30" x="127.246094"/>
      </g>
     </g>
    </g>
    <g id="ytick_6">
     <g id="line2d_12">
      <g>
       <use xlink:href="#m0c18f856ba" x="57.6" y="41.52974" style="stroke: #000000; stroke-width: 0.8"/>
      </g>
     </g>
     <g id="text_12">
      <!-- 600 -->
      <g transform="translate(31.5125 45.328958)scale(0.1 -0.1)">
       <defs>
        <path id="DejaVuSans-36" d="M 2113 2584 
Q 1688 2584 1439 2293 
Q 1191 2003 1191 1497 
Q 1191 994 1439 701 
Q 1688 409 2113 409 
Q 2538 409 2786 701 
Q 3034 994 3034 1497 
Q 3034 2003 2786 2293 
Q 2538 2584 2113 2584 
z
M 3366 4563 
L 3366 3988 
Q 3128 4100 2886 4159 
Q 2644 4219 2406 4219 
Q 1781 4219 1451 3797 
Q 1122 3375 1075 2522 
Q 1259 2794 1537 2939 
Q 1816 3084 2150 3084 
Q 2853 3084 3261 2657 
Q 3669 2231 3669 1497 
Q 3669 778 3244 343 
Q 2819 -91 2113 -91 
Q 1303 -91 875 529 
Q 447 1150 447 2328 
Q 447 3434 972 4092 
Q 1497 4750 2381 4750 
Q 2619 4750 2861 4703 
Q 3103 4656 3366 4563 
z
" transform="scale(0.015625)"/>
       </defs>
       <use xlink:href="#DejaVuSans-36"/>
       <use xlink:href="#DejaVuSans-30" x="63.623047"/>
       <use xlink:href="#DejaVuSans-30" x="127.246094"/>
      </g>
     </g>
    </g>
   </g>
   <g id="line2d_13">
    <path d="M 73.832727 281.349728 
L 74.101704 280.805612 
L 74.236192 279.705542 
L 74.37068 280.660231 
L 74.505168 280.172468 
L 74.639657 280.768675 
L 74.774145 274.358624 
L 74.908633 247.501385 
L 75.177609 246.02247 
L 75.312098 246.572742 
L 75.446586 246.624833 
L 75.581074 247.48339 
L 75.715562 246.734224 
L 75.85005 246.712441 
L 76.253515 241.774202 
L 76.522492 275.509838 
L 76.65698 275.820017 
L 76.925956 274.129423 
L 77.060444 265.357277 
L 77.194933 267.579674 
L 77.463909 267.642657 
L 77.598397 269.212021 
L 77.732885 263.936136 
L 77.867374 250.655739 
L 78.405327 103.630418 
L 78.674303 102.717402 
L 78.808791 109.788063 
L 78.943279 105.030722 
L 79.481232 157.23077 
L 79.750209 226.941489 
L 80.019185 261.334895 
L 80.153673 263.438903 
L 80.288161 259.640512 
L 80.42265 269.937982 
L 80.557138 269.50752 
L 80.826114 271.991319 
L 80.960603 269.475318 
L 81.095091 259.2593 
L 81.364067 167.321769 
L 81.498555 179.505885 
L 81.767532 160.285205 
L 82.036508 168.212054 
L 82.170996 165.140572 
L 82.305485 159.222546 
L 83.112414 258.785744 
L 83.650367 284.720971 
L 83.784855 284.741334 
L 83.919343 286.255292 
L 84.053831 286.445661 
L 84.18832 284.368646 
L 84.322808 277.212745 
L 84.726273 187.936598 
L 84.860761 179.353874 
L 84.995249 183.411299 
L 85.129737 168.67093 
L 85.264225 177.131476 
L 85.398714 177.871644 
L 85.66769 186.088783 
L 85.802178 194.775216 
L 86.340131 260.891173 
L 86.474619 262.884843 
L 86.609107 267.74826 
L 86.878084 285.099342 
L 87.012572 287.328842 
L 87.14706 287.005404 
L 87.281549 288.481951 
L 87.416037 288.385819 
L 87.550525 287.582195 
L 87.819501 260.340901 
L 87.95399 260.485336 
L 88.088478 254.853337 
L 88.222966 256.299103 
L 88.357454 255.548517 
L 88.491942 252.222262 
L 88.626431 255.029974 
L 88.760919 248.1028 
L 88.895407 250.952659 
L 89.029895 250.951238 
L 89.164384 253.487603 
L 89.43336 274.584984 
L 89.567848 276.232484 
L 89.702336 275.739039 
L 89.836825 276.788912 
L 89.971313 261.784299 
L 90.105801 262.490844 
L 90.240289 264.020429 
L 90.374777 263.792175 
L 90.509266 265.016317 
L 90.643754 265.186323 
L 90.778242 267.265707 
L 90.91273 264.073468 
L 91.047218 254.229665 
L 91.181707 253.069927 
L 91.316195 246.204789 
L 91.450683 250.597018 
L 91.585171 248.649757 
L 91.71966 250.133881 
L 91.854148 250.357873 
L 92.123124 253.312387 
L 92.257612 252.745067 
L 92.526589 258.28709 
L 92.795565 264.821686 
L 92.930053 265.76785 
L 93.064542 264.637946 
L 93.19903 274.56178 
L 93.468006 274.685378 
L 93.602495 275.736198 
L 93.736983 274.513477 
L 93.871471 272.013576 
L 94.005959 266.842348 
L 94.6784 160.569812 
L 94.812888 156.212152 
L 95.081865 167.965332 
L 95.216353 162.795524 
L 95.350841 151.630027 
L 96.023282 263.208755 
L 96.157771 263.931874 
L 96.426747 267.824502 
L 96.561235 267.493961 
L 96.695723 267.570677 
L 96.830212 269.43696 
L 96.9647 268.804763 
L 97.099188 267.389778 
L 97.233676 258.996003 
L 97.368164 241.5862 
L 97.502653 200.921496 
L 97.637141 193.887299 
L 97.771629 178.549302 
L 97.906117 186.872044 
L 98.040606 180.217166 
L 98.175094 180.920869 
L 98.309582 175.647826 
L 98.44407 177.275911 
L 98.713047 188.546537 
L 98.982023 230.129466 
L 99.250999 264.677725 
L 99.385488 269.32378 
L 99.519976 270.071524 
L 99.654464 279.792203 
L 99.788952 279.804515 
L 99.923441 278.811943 
L 100.192417 280.039399 
L 100.326905 280.11943 
L 100.461393 279.470185 
L 100.595882 279.872707 
L 100.73037 280.694327 
L 100.864858 279.169004 
L 100.999346 280.315008 
L 101.133834 279.414779 
L 101.268323 277.218428 
L 101.402811 270.25337 
L 101.537299 274.488852 
L 101.806276 264.191856 
L 101.940764 266.334223 
L 102.075252 266.186947 
L 102.20974 266.829562 
L 102.344228 269.187869 
L 102.478717 274.956252 
L 102.613205 273.119803 
L 102.747693 278.741383 
L 102.882181 265.39895 
L 103.016669 265.427363 
L 103.151158 270.291728 
L 103.285646 270.074366 
L 103.554622 265.929332 
L 103.68911 261.776722 
L 103.823599 244.499988 
L 104.092575 182.764422 
L 104.227063 161.464832 
L 104.361552 168.568168 
L 104.630528 143.906333 
L 105.033993 159.092792 
L 105.168481 169.780471 
L 105.706434 252.13418 
L 105.840922 252.01295 
L 105.97541 260.637347 
L 106.109898 276.929085 
L 106.378875 280.091017 
L 106.513363 280.077283 
L 106.647851 282.215861 
L 106.782339 281.949723 
L 106.916828 283.051687 
L 107.320292 245.80132 
L 107.45478 252.804735 
L 107.589269 250.292522 
L 107.723757 250.384392 
L 108.26171 245.364701 
L 108.396198 241.986828 
L 108.530686 244.22722 
L 108.934151 275.566665 
L 109.068639 277.068784 
L 109.203127 276.01086 
L 109.337615 271.553754 
L 109.606592 273.089022 
L 109.875568 274.132265 
L 110.144545 275.172193 
L 110.413521 273.94521 
L 110.548009 273.811668 
L 110.951474 269.797336 
L 111.085962 270.960389 
L 111.22045 270.616114 
L 111.623915 264.871882 
L 111.758403 265.375272 
L 112.02738 269.122992 
L 112.430844 270.706089 
L 112.565333 260.557316 
L 112.834309 264.718924 
L 112.968797 265.237468 
L 113.103285 266.732483 
L 113.237774 266.909119 
L 113.50675 269.501363 
L 113.641238 270.323456 
L 114.313679 259.199158 
L 114.448168 258.841624 
L 114.582656 257.374075 
L 114.98612 246.650405 
L 115.524073 257.602802 
L 115.658561 258.147391 
L 115.927538 260.350846 
L 116.062026 259.079822 
L 116.196514 265.115764 
L 116.331002 264.702823 
L 116.465491 265.307554 
L 116.599979 255.651279 
L 117.137932 78.859665 
L 117.406908 64.313453 
L 117.810373 80.677645 
L 118.213837 147.16629 
L 118.482814 208.84503 
L 118.75179 242.91263 
L 118.886279 244.430376 
L 119.289743 252.339704 
L 119.424231 253.742849 
L 119.55872 256.484737 
L 119.693208 256.798231 
L 119.827696 247.284023 
L 120.365649 91.581266 
L 120.634625 73.211092 
L 120.769114 76.863627 
L 120.903602 70.511824 
L 121.03809 71.825941 
L 121.441555 134.588177 
L 121.710531 200.714552 
L 121.845019 228.597513 
L 122.248484 239.446675 
L 122.51746 254.798879 
L 122.651948 254.956573 
L 122.786437 256.677001 
L 122.920925 255.350571 
L 123.055413 247.275972 
L 123.727854 60.398568 
L 123.862342 53.568 
L 124.534783 107.129048 
L 125.072736 246.584581 
L 125.207225 251.700877 
L 125.341713 252.159279 
L 125.476201 252.113344 
L 125.745177 265.56943 
L 125.879666 266.991044 
L 126.014154 267.218351 
L 126.28313 253.909067 
L 126.821083 92.675179 
L 126.955571 74.517632 
L 127.09006 81.046071 
L 127.359036 105.3248 
L 127.493524 107.741829 
L 127.762501 126.043811 
L 127.896989 148.6059 
L 128.300453 244.983962 
L 128.434942 250.724879 
L 128.56943 248.916843 
L 128.703918 256.338882 
L 128.838406 257.055372 
L 129.241871 263.678048 
L 129.510847 243.185398 
L 130.0488 83.196961 
L 130.183288 74.184249 
L 130.317777 85.977207 
L 130.452265 114.497575 
L 130.586753 113.588821 
L 130.721241 109.979853 
L 130.855729 116.302769 
L 131.124706 169.015205 
L 131.393682 233.96953 
L 131.662659 256.827591 
L 131.931635 256.633433 
L 132.066123 256.453009 
L 132.3351 267.606193 
L 132.469588 267.459391 
L 132.604076 267.557417 
L 132.738564 267.516218 
L 133.007541 255.750252 
L 133.276517 245.400691 
L 133.679982 239.881399 
L 133.81447 238.711717 
L 133.948958 233.666454 
L 134.486911 243.439224 
L 134.755888 250.451163 
L 134.890376 250.33751 
L 135.697305 264.429581 
L 135.831793 269.129622 
L 135.966282 269.732459 
L 136.10077 267.770991 
L 136.235258 269.258429 
L 136.369746 268.987082 
L 136.504234 264.733131 
L 136.638723 264.57591 
L 136.907699 262.661798 
L 137.311164 251.894561 
L 137.445652 252.398898 
L 137.58014 249.745092 
L 137.983605 256.485684 
L 138.118093 255.593505 
L 138.252581 257.408644 
L 138.387069 261.852491 
L 138.521558 260.632612 
L 138.656046 260.831505 
L 138.925022 265.476613 
L 139.193999 249.406499 
L 139.731951 81.36288 
L 139.86644 72.54101 
L 140.269904 98.273555 
L 140.538881 122.440525 
L 140.673369 129.45578 
L 140.807857 143.662925 
L 141.076834 222.919107 
L 141.480298 255.754988 
L 142.018251 264.103775 
L 142.152739 263.6449 
L 142.421716 240.161271 
L 142.959669 91.254986 
L 143.094157 83.917713 
L 143.228645 83.43516 
L 143.363133 93.552205 
L 143.497621 84.376589 
L 143.63211 89.448844 
L 144.573527 256.989547 
L 144.708015 260.442242 
L 144.842504 260.616037 
L 145.11148 262.834646 
L 145.245968 264.955228 
L 145.380456 260.920533 
L 145.783921 200.401532 
L 146.052897 109.680092 
L 146.187386 90.761541 
L 146.456362 105.912956 
L 146.59085 117.115391 
L 146.725339 111.484813 
L 146.859827 118.820665 
L 146.994315 113.796712 
L 147.128803 126.521155 
L 147.532268 232.667251 
L 147.801244 258.412109 
L 147.935732 258.612423 
L 148.204709 263.83006 
L 148.339197 263.80875 
L 148.473685 264.307404 
L 148.742662 263.264634 
L 148.87715 245.754911 
L 149.280615 118.686175 
L 149.415103 114.686523 
L 149.549591 105.692753 
L 149.684079 106.93631 
L 150.087544 139.330837 
L 150.222032 131.712746 
L 150.35652 137.179474 
L 150.894473 250.905777 
L 151.028961 259.989523 
L 151.16345 259.040991 
L 151.835891 267.137847 
L 151.970379 265.877715 
L 152.104867 245.129344 
L 152.508332 112.734053 
L 152.64282 115.813113 
L 152.911796 104.073192 
L 153.046285 118.087127 
L 153.180773 116.600636 
L 153.449749 150.744004 
L 153.718726 191.299317 
L 153.987702 247.382522 
L 154.12219 264.270467 
L 154.256678 265.636201 
L 154.525655 269.461585 
L 154.794631 271.149337 
L 155.063608 274.065967 
L 155.198096 275.692157 
L 155.332584 275.054751 
L 155.467072 270.71556 
L 155.601561 260.339481 
L 155.736049 259.486607 
L 155.870537 256.648587 
L 156.005025 258.767276 
L 156.274002 256.888206 
L 156.40849 257.419536 
L 156.542978 258.661199 
L 156.677466 257.475889 
L 157.215419 265.408895 
L 157.349907 267.395935 
L 157.484396 266.413306 
L 157.618884 267.176205 
L 157.88786 270.322035 
L 158.022348 270.798432 
L 158.291325 273.769048 
L 158.560301 278.009739 
L 158.694789 276.458371 
L 158.829278 277.413532 
L 158.963766 277.020955 
L 159.232742 274.332579 
L 159.367231 274.611977 
L 159.501719 272.647194 
L 160.039672 258.697663 
L 160.308648 258.95433 
L 160.443136 264.619004 
L 160.577624 264.338185 
L 160.712113 262.401342 
L 160.846601 263.096522 
L 160.981089 264.574489 
L 161.250066 268.29569 
L 161.519042 269.238066 
L 161.788018 252.633308 
L 162.460459 83.6189 
L 162.594948 83.285516 
L 162.729436 81.840224 
L 162.998412 101.245118 
L 163.132901 110.105345 
L 163.401877 150.979835 
L 163.670853 221.038143 
L 164.074318 254.804088 
L 164.208806 255.926415 
L 164.477783 268.461435 
L 164.612271 270.800327 
L 164.746759 266.142906 
L 165.015735 248.800348 
L 165.4192 120.283479 
L 165.553688 122.857728 
L 165.822665 109.097619 
L 165.957153 114.302943 
L 166.091641 111.247562 
L 166.360618 99.903061 
L 166.495106 106.037502 
L 166.89857 220.147385 
L 167.033059 227.052301 
L 167.302035 245.265728 
L 167.974476 263.55303 
L 168.108964 257.933817 
L 168.243453 244.056267 
L 168.377941 206.34513 
L 168.646917 105.865127 
L 168.781405 107.135677 
L 168.915894 102.653472 
L 169.050382 103.94107 
L 169.18487 107.700156 
L 169.319358 92.519853 
L 169.453847 94.974293 
L 169.857311 147.836845 
L 170.126288 225.282623 
L 170.395264 255.80187 
L 170.529752 256.673212 
L 170.66424 260.077131 
L 170.798729 260.264659 
L 171.067705 262.569455 
L 171.202193 265.376693 
L 171.47117 243.798652 
L 172.009123 109.888457 
L 172.143611 108.327144 
L 172.412587 96.682882 
L 172.95054 128.871412 
L 173.622981 257.752446 
L 173.757469 261.703321 
L 173.891958 274.954831 
L 174.026446 274.034712 
L 174.160934 273.991145 
L 174.42991 275.507471 
L 174.698887 260.858498 
L 174.833375 243.899046 
L 175.102351 176.035195 
L 175.371328 142.981478 
L 175.505816 140.109363 
L 175.640304 150.178578 
L 175.774792 149.871241 
L 175.909281 151.266809 
L 176.043769 156.027939 
L 176.178257 155.722969 
L 176.312745 170.059395 
L 176.581722 237.080317 
L 176.850698 263.950343 
L 176.985186 261.479803 
L 177.254163 266.169899 
L 177.388651 266.126805 
L 177.792116 272.62399 
L 177.926604 273.506224 
L 178.19558 262.890525 
L 178.330069 262.45438 
L 178.599045 254.957993 
L 178.733533 254.397777 
L 178.868021 256.684577 
L 179.136998 253.206784 
L 179.271486 253.797308 
L 179.540462 251.334345 
L 179.809439 258.772011 
L 179.943927 265.976214 
L 180.212904 264.091936 
L 180.48188 273.869915 
L 180.616368 273.883648 
L 180.750856 274.252548 
L 180.885345 275.076535 
L 181.019833 275.162249 
L 181.692274 262.962506 
L 181.826762 264.246789 
L 181.96125 258.31645 
L 182.095738 260.082813 
L 182.364715 265.472825 
L 182.499203 266.739586 
L 182.633691 269.859371 
L 182.902668 269.048644 
L 183.171644 275.125311 
L 183.306132 276.52893 
L 183.440621 275.42886 
L 183.575109 273.147269 
L 183.844085 284.776851 
L 183.978573 285.7197 
L 184.113062 283.460839 
L 184.382038 272.175059 
L 184.919991 181.252832 
L 185.054479 185.233068 
L 185.188967 178.222549 
L 185.457944 182.048879 
L 185.592432 183.534897 
L 185.995897 220.958112 
L 186.264873 251.286516 
L 186.53385 266.904857 
L 186.802826 277.068784 
L 187.071802 287.47375 
L 187.206291 286.333428 
L 187.340779 287.45765 
L 187.475267 284.30803 
L 187.609755 276.37976 
L 188.01322 201.136017 
L 188.147708 184.880269 
L 188.282196 185.097157 
L 188.416684 184.147205 
L 188.551173 187.430367 
L 188.685661 193.776013 
L 188.820149 189.402726 
L 188.954637 193.799218 
L 189.089126 202.098755 
L 189.627078 263.559186 
L 189.761567 266.125385 
L 189.896055 271.315555 
L 190.030543 268.900895 
L 190.299519 270.716507 
L 190.434008 269.555349 
L 190.971961 272.95027 
L 191.106449 269.527882 
L 191.240937 269.04675 
L 191.375425 269.481474 
L 191.509913 265.091139 
L 191.644402 266.62688 
L 191.913378 265.371957 
L 192.182354 259.784473 
L 192.316843 260.130169 
L 192.451331 259.63625 
L 192.585819 260.945632 
L 192.720307 266.665712 
L 192.989284 267.912584 
L 193.392748 265.248359 
L 193.661725 268.105795 
L 193.796213 268.635703 
L 194.065189 260.816351 
L 194.603142 157.957678 
L 194.73763 153.088105 
L 194.872119 143.221571 
L 195.006607 144.783832 
L 195.141095 149.487187 
L 195.275583 142.151809 
L 195.54456 155.430785 
L 195.948024 248.653546 
L 196.217001 258.901765 
L 196.351489 260.812089 
L 196.485977 270.204594 
L 196.620465 269.557716 
L 196.889442 270.109882 
L 197.02393 271.228895 
L 197.158418 269.513676 
L 197.292907 263.245692 
L 197.830859 195.11144 
L 197.965348 197.40345 
L 198.099836 194.113659 
L 198.234324 198.480316 
L 198.5033 185.267637 
L 198.772277 198.95103 
L 199.31023 270.875148 
L 199.713694 279.910592 
L 199.848183 278.751801 
L 200.117159 279.4735 
L 200.251647 277.705243 
L 200.386135 271.975218 
L 200.520624 271.575537 
L 200.655112 258.727023 
L 200.7896 211.903253 
L 200.924088 209.949836 
L 201.058576 198.364768 
L 201.193065 198.009602 
L 201.327553 195.347271 
L 201.462041 197.501476 
L 201.731018 185.801335 
L 201.865506 187.150969 
L 202.134482 209.654337 
L 202.403459 262.675057 
L 202.806923 272.391 
L 203.0759 263.991069 
L 203.210388 268.281484 
L 203.344876 268.406502 
L 203.748341 259.109183 
L 203.882829 241.868913 
L 204.151805 180.431686 
L 204.420782 164.098749 
L 204.55527 158.517421 
L 204.689758 161.925128 
L 204.824246 155.480508 
L 204.958735 171.368777 
L 205.093223 171.613132 
L 205.765664 258.533339 
L 205.900152 259.040044 
L 206.03464 262.808127 
L 206.169129 277.531921 
L 206.303617 278.008792 
L 206.572593 281.914206 
L 206.84157 282.718777 
L 207.110546 273.409619 
L 207.379522 264.304089 
L 207.514011 263.433694 
L 207.917475 271.483194 
L 208.051964 271.238839 
L 208.32094 264.931551 
L 208.589916 266.519856 
L 208.858893 274.503533 
L 208.993381 278.126234 
L 209.127869 278.704919 
L 209.262357 278.165539 
L 209.396846 272.360219 
L 209.531334 273.44845 
L 209.80031 273.03693 
L 209.934799 274.019559 
L 210.203775 261.941046 
L 211.010704 108.122567 
L 211.279681 133.528832 
L 211.683145 166.35098 
L 212.221098 253.252719 
L 212.355586 255.695793 
L 212.759051 270.808377 
L 212.893539 270.602854 
L 213.028027 270.702301 
L 213.162516 273.329114 
L 213.431492 255.77393 
L 213.56598 218.013069 
L 213.834957 134.797015 
L 213.969445 139.344097 
L 214.103933 138.262022 
L 214.238421 141.198541 
L 214.910862 179.199494 
L 215.448815 258.824576 
L 215.583303 263.749555 
L 215.717792 264.362337 
L 216.121256 268.589769 
L 216.255745 269.539248 
L 216.390233 271.910341 
L 216.524721 267.934841 
L 216.659209 260.477759 
L 217.062674 148.321766 
L 217.197162 150.218357 
L 217.33165 150.298388 
L 217.466138 161.670355 
L 217.600627 160.396964 
L 217.735115 148.638102 
L 217.869603 153.826378 
L 218.273068 195.675919 
L 218.542044 254.020353 
L 218.811021 270.682885 
L 218.945509 263.323829 
L 219.483462 273.957523 
L 219.61795 275.741407 
L 219.886926 262.101581 
L 220.290391 161.333184 
L 220.693856 149.766585 
L 220.828344 160.344873 
L 220.962832 156.45556 
L 221.231808 183.39141 
L 221.500785 197.145836 
L 221.769761 253.884916 
L 222.038738 269.392445 
L 222.173226 268.645648 
L 222.307714 269.860792 
L 222.576691 275.863111 
L 222.845667 278.480927 
L 222.980155 276.822061 
L 223.114643 278.680294 
L 223.38362 258.292773 
L 223.518108 262.12668 
L 223.652596 261.971354 
L 223.921573 255.065017 
L 224.190549 254.397777 
L 224.325037 256.86737 
L 224.459525 256.243697 
L 224.728502 252.414525 
L 225.131967 259.627726 
L 225.266455 258.153074 
L 225.535431 259.613993 
L 225.669919 258.311241 
L 226.073384 268.004454 
L 226.34236 271.01248 
L 226.476849 270.940973 
L 226.745825 267.817873 
L 226.880313 270.084784 
L 227.014802 270.326297 
L 227.14929 270.031272 
L 227.283778 268.621497 
L 227.418266 270.286992 
L 227.552754 270.414852 
L 227.687243 270.24674 
L 227.956219 269.145249 
L 228.090707 274.922629 
L 228.225195 274.961461 
L 228.359684 276.055848 
L 228.494172 275.288214 
L 228.62866 276.252847 
L 228.763148 276.139194 
L 228.897637 273.866126 
L 229.301101 274.763988 
L 229.435589 268.591189 
L 229.570078 254.600459 
L 230.242519 94.227495 
L 230.377007 79.488073 
L 230.511495 109.27094 
L 230.780471 117.16985 
L 231.049448 144.458499 
L 231.587401 252.456198 
L 231.856377 263.605594 
L 232.125354 268.388507 
L 232.39433 273.014673 
L 232.528818 272.206314 
L 232.797795 255.21466 
L 232.932283 219.182278 
L 233.201259 132.596875 
L 233.335748 124.47492 
L 233.470236 134.703724 
L 233.604724 134.924401 
L 233.739212 147.632269 
L 233.8737 132.992294 
L 234.008189 139.67085 
L 234.815118 263.027856 
L 234.949606 262.763139 
L 235.218583 268.628127 
L 235.622047 276.314883 
L 235.756535 275.721044 
L 236.025512 263.14814 
L 236.563465 128.468889 
L 236.832441 116.337812 
L 237.63937 199.479045 
L 237.908347 257.168078 
L 238.177323 265.203371 
L 238.849764 280.022825 
L 238.984252 279.203573 
L 239.118741 275.430281 
L 239.253229 261.621869 
L 239.791182 127.704097 
L 240.194646 145.321791 
L 240.463623 164.321794 
L 240.732599 177.689325 
L 241.270552 254.653023 
L 241.674017 260.489598 
L 241.942993 273.347109 
L 242.077481 279.803568 
L 242.21197 279.18179 
L 242.480946 261.333 
L 242.884411 150.333905 
L 243.018899 158.153731 
L 243.153387 155.921862 
L 243.287875 145.016347 
L 243.422363 152.944144 
L 243.556852 150.151112 
L 243.825828 166.681049 
L 244.229293 238.192226 
L 244.498269 260.429456 
L 244.767246 265.667456 
L 245.17071 273.472602 
L 245.305198 274.331632 
L 245.439687 274.038027 
L 245.574175 272.817674 
L 245.708663 261.439077 
L 245.843151 266.850398 
L 246.112128 263.888781 
L 246.381104 258.745018 
L 246.515592 258.71187 
L 247.188033 268.88432 
L 247.322522 269.286843 
L 247.45701 270.147767 
L 247.591498 269.795915 
L 247.725986 272.93701 
L 247.860475 271.50924 
L 248.129451 272.823357 
L 248.263939 271.946332 
L 248.398427 272.62399 
L 248.532916 272.471978 
L 248.667404 274.403139 
L 248.801892 274.305113 
L 249.205357 275.832803 
L 249.339845 275.948351 
L 249.608821 275.006922 
L 249.743309 275.137624 
L 249.877798 274.839757 
L 250.550239 271.697241 
L 250.819215 271.995108 
L 250.953703 272.767951 
L 251.088192 271.640415 
L 251.357168 272.888707 
L 251.491656 281.719575 
L 251.626144 281.233707 
L 251.760633 281.660854 
L 251.895121 281.502213 
L 252.164097 269.35172 
L 252.70205 142.919443 
L 252.836538 162.502393 
L 252.971027 159.084741 
L 253.240003 171.89395 
L 253.374491 173.236481 
L 253.508979 170.333584 
L 253.777956 202.900012 
L 254.046932 253.860765 
L 254.315909 275.02255 
L 254.719373 283.31309 
L 254.853862 283.074891 
L 255.122838 284.794846 
L 255.391814 264.190436 
L 255.660791 171.686059 
L 255.795279 175.106552 
L 256.198744 159.555455 
L 256.333232 163.200414 
L 256.46772 160.556552 
L 256.602208 161.743283 
L 257.409138 256.085056 
L 257.812602 263.498571 
L 258.081579 278.587004 
L 258.216067 279.642559 
L 258.350555 278.918966 
L 258.619532 264.858623 
L 258.888508 176.452871 
L 259.022996 177.315216 
L 259.157484 168.332811 
L 259.291973 167.761703 
L 259.426461 152.397661 
L 259.695437 165.991078 
L 259.829925 154.946338 
L 259.964414 163.948632 
L 260.771343 259.13144 
L 261.040319 261.352416 
L 261.309296 268.792924 
L 261.443784 271.981848 
L 261.71276 269.090317 
L 261.847249 256.795863 
L 262.116225 169.325384 
L 262.250713 173.459999 
L 262.654178 147.23685 
L 262.788666 154.480359 
L 262.923154 149.747643 
L 263.326619 184.621707 
L 263.461107 195.434406 
L 263.864572 243.828013 
L 264.268036 261.72984 
L 264.402525 260.978307 
L 264.671501 264.381279 
L 264.805989 264.25626 
L 264.940478 263.312937 
L 265.074966 255.804237 
L 265.209454 236.837857 
L 265.612919 123.439254 
L 265.881895 105.469235 
L 266.016383 114.896309 
L 266.150871 114.766554 
L 266.28536 114.321886 
L 266.419848 118.916797 
L 266.688824 155.898185 
L 266.957801 234.09076 
L 267.226777 250.625432 
L 267.361265 249.214236 
L 267.495754 265.453882 
L 267.630242 265.140389 
L 267.76473 266.994833 
L 267.899218 267.303591 
L 268.168195 273.77331 
L 268.302683 274.651282 
L 268.437171 272.109708 
L 268.706147 274.626183 
L 268.975124 271.158808 
L 269.2441 269.288737 
L 269.916541 254.908743 
L 270.320006 256.783551 
L 270.588982 261.632288 
L 270.723471 275.620177 
L 270.857959 276.652055 
L 270.992447 275.185453 
L 271.126935 276.062004 
L 271.261424 276.091365 
L 271.395912 275.906678 
L 271.799376 278.662773 
L 271.933865 277.28804 
L 272.068353 277.640366 
L 272.202841 277.000592 
L 272.337329 277.235002 
L 272.471817 276.398229 
L 272.606306 274.249233 
L 272.740794 275.522151 
L 272.875282 275.202027 
L 273.00977 274.530052 
L 273.144258 272.213417 
L 273.278747 272.114444 
L 273.547723 275.070379 
L 273.682211 275.283005 
L 273.8167 275.961611 
L 273.951188 275.106369 
L 274.085676 285.677554 
L 274.354652 287.298061 
L 274.489141 285.737695 
L 274.758117 271.124712 
L 275.29607 165.378297 
L 275.565046 153.226857 
L 275.699535 153.561661 
L 275.834023 171.39056 
L 275.968511 173.656525 
L 276.102999 183.742314 
L 276.77544 262.508839 
L 277.447881 279.789362 
L 277.58237 283.162499 
L 277.716858 282.774183 
L 277.851346 278.406105 
L 277.985834 268.491269 
L 278.389299 208.399414 
L 278.523787 189.047559 
L 278.658275 187.062887 
L 278.792763 177.612609 
L 278.927252 189.659867 
L 279.06174 183.879172 
L 279.196228 185.955714 
L 279.330716 193.598903 
L 280.137646 272.811044 
L 280.272134 275.181191 
L 280.406622 266.881653 
L 280.54111 266.599414 
L 280.810087 267.762467 
L 280.944575 267.143529 
L 281.213551 259.278242 
L 281.348039 230.524412 
L 281.482528 160.535242 
L 281.617016 150.395467 
L 281.751504 127.153825 
L 281.885992 128.297936 
L 282.154969 141.717085 
L 282.289457 123.721967 
L 282.423945 127.782707 
L 282.558433 136.831884 
L 282.82741 184.95367 
L 283.096386 253.051931 
L 283.365363 259.637671 
L 283.499851 261.830234 
L 283.634339 261.163468 
L 283.768827 261.173886 
L 283.903316 261.361887 
L 284.037804 262.658009 
L 284.172292 262.786343 
L 284.441268 257.627427 
L 285.113709 143.116915 
L 285.248198 142.0481 
L 285.382686 137.54127 
L 285.517174 146.721622 
L 285.651662 143.641142 
L 285.78615 147.107096 
L 286.055127 199.883935 
L 286.324103 249.130416 
L 286.59308 258.744071 
L 286.727568 258.623315 
L 286.862056 277.435316 
L 286.996544 277.494037 
L 287.131033 276.522774 
L 287.265521 277.12419 
L 287.668985 273.621298 
L 287.803474 274.492641 
L 288.07245 273.623666 
L 288.206938 271.467093 
L 288.341427 271.412161 
L 288.475915 269.081793 
L 288.610403 268.713367 
L 288.744891 267.597196 
L 288.879379 270.405855 
L 289.013868 270.743026 
L 289.148356 267.951889 
L 289.417332 275.057119 
L 289.55182 276.235799 
L 289.820797 275.876844 
L 289.955285 276.661526 
L 290.089773 275.172667 
L 290.224262 276.708882 
L 290.35875 275.808179 
L 290.493238 276.781336 
L 290.627726 275.25033 
L 291.031191 257.397752 
L 291.300167 191.674373 
L 291.434655 186.129035 
L 291.569144 186.732345 
L 291.703632 190.76704 
L 291.972608 178.111263 
L 292.376073 191.099476 
L 293.048514 266.958843 
L 293.183002 268.196717 
L 293.31749 267.05308 
L 293.451979 267.799404 
L 293.586467 266.876444 
L 293.720955 269.334198 
L 293.855443 269.595601 
L 294.258908 245.842519 
L 294.527884 188.260983 
L 294.796861 156.801255 
L 294.931349 141.043688 
L 295.065837 140.910619 
L 295.200325 148.826577 
L 295.334814 143.146749 
L 295.60379 171.00698 
L 295.738278 185.395498 
L 296.141743 255.104796 
L 296.276231 254.221141 
L 296.410719 261.368991 
L 296.545208 278.922281 
L 296.948672 281.07033 
L 297.486625 283.021379 
L 297.621113 282.678525 
L 297.755601 282.674737 
L 298.024578 279.525591 
L 298.159066 279.376421 
L 298.428042 277.251103 
L 298.697019 273.45508 
L 298.831507 272.328491 
L 298.965995 272.187371 
L 299.100484 272.54017 
L 299.36946 276.294994 
L 299.503948 275.792551 
L 299.638436 277.323557 
L 299.772925 267.741157 
L 299.907413 271.116188 
L 300.041901 270.816901 
L 300.176389 271.676405 
L 300.310877 271.395113 
L 300.579854 260.512328 
L 301.252295 127.482946 
L 301.386783 127.551138 
L 301.521271 140.637851 
L 301.65576 133.751404 
L 301.790248 143.09087 
L 302.597177 251.021324 
L 302.731665 252.760221 
L 303.000642 265.068882 
L 303.13513 265.291453 
L 303.269618 265.76785 
L 303.404106 268.207609 
L 303.538595 268.623391 
L 303.807571 252.395583 
L 304.345524 163.336324 
L 304.6145 152.897735 
L 304.748988 161.069413 
L 304.883477 151.572727 
L 305.017965 157.604406 
L 306.093871 263.532667 
L 306.228359 264.535184 
L 306.497335 274.609135 
L 306.766312 275.630595 
L 306.9008 270.959915 
L 307.035288 260.505225 
L 307.304265 168.770376 
L 307.438753 175.973633 
L 307.842217 156.866606 
L 307.976706 163.861024 
L 308.111194 155.509869 
L 308.245682 160.432481 
L 308.649147 206.064785 
L 309.052611 261.977036 
L 309.590564 274.109534 
L 309.994029 275.799181 
L 310.128517 272.274506 
L 310.263005 259.759848 
L 310.531982 168.660038 
L 310.66647 169.802254 
L 310.935446 167.531555 
L 311.069934 158.255545 
L 311.204423 164.658966 
L 311.338911 163.378471 
L 311.473399 156.659189 
L 311.607887 169.690022 
L 311.876864 206.96454 
L 312.14584 248.951412 
L 312.414817 260.661972 
L 312.818281 269.203497 
L 312.952769 268.773035 
L 313.087258 270.64358 
L 313.221746 270.545554 
L 313.356234 272.109708 
L 313.625211 261.638444 
L 313.759699 253.810568 
L 313.894187 257.13635 
L 314.028675 254.627925 
L 314.163163 256.496102 
L 314.297652 253.758003 
L 314.566628 260.268447 
L 314.701116 260.997249 
L 314.970093 265.712444 
L 315.104581 265.675033 
L 315.239069 265.380955 
L 315.508045 268.290008 
L 315.642534 268.822758 
L 315.777022 268.495057 
L 316.180487 271.460937 
L 316.314975 271.024792 
L 316.718439 273.360369 
L 316.852928 273.607565 
L 316.987416 272.760847 
L 317.121904 272.825725 
L 317.256392 271.714763 
L 317.39088 271.85825 
L 317.525369 270.331507 
L 317.659857 271.243575 
L 317.928833 268.744148 
L 318.332298 265.037153 
L 318.466786 265.686398 
L 318.601274 265.187744 
L 318.735763 266.632563 
L 318.870251 266.470133 
L 319.139227 267.57778 
L 319.273715 277.336343 
L 319.67718 278.445884 
L 319.811668 275.887262 
L 319.946157 267.995456 
L 320.349621 146.95982 
L 320.484109 130.935168 
L 320.887574 158.000298 
L 321.022062 162.630253 
L 321.291039 177.297221 
L 321.425527 179.083473 
L 321.560015 197.379772 
L 321.828991 252.47372 
L 321.96348 260.498122 
L 322.097968 261.278542 
L 322.635921 277.848257 
L 322.770409 278.192532 
L 322.904897 277.538551 
L 323.173874 267.188044 
L 323.44285 172.466953 
L 323.577338 172.825908 
L 323.711826 173.025748 
L 323.980803 153.00618 
L 324.249779 156.517595 
L 324.384268 159.262324 
L 324.787732 195.222726 
L 325.056709 249.320312 
L 325.325685 258.519606 
L 325.863638 276.20265 
L 325.998126 277.956227 
L 326.132614 278.021104 
L 326.267103 274.833127 
L 326.401591 265.904234 
L 326.670567 165.332362 
L 326.805055 171.24139 
L 326.939544 172.404443 
L 327.20852 159.281267 
L 327.343008 167.361075 
L 327.611985 163.636559 
L 327.746473 168.458303 
L 328.149937 222.726843 
L 328.418914 253.330856 
L 328.68789 266.041565 
L 328.822379 268.475642 
L 328.956867 278.443516 
L 329.225843 279.383051 
L 329.360331 278.542489 
L 329.629308 265.81047 
L 330.032772 177.491379 
L 330.301749 166.241115 
L 330.570725 157.501644 
L 330.839702 179.184341 
L 330.97419 180.387172 
L 331.108678 183.111065 
L 331.781119 258.401217 
L 332.050096 265.508341 
L 332.184584 276.198388 
L 332.319072 277.146921 
L 332.45356 276.487257 
L 332.588049 277.467044 
L 332.857025 264.95807 
L 333.26049 176.864865 
L 333.394978 178.759561 
L 333.663954 163.96568 
L 333.798442 165.148622 
L 333.932931 168.885924 
L 334.336395 186.609694 
L 334.73986 253.811988 
L 335.143325 269.416597 
L 335.277813 269.219598 
L 335.412301 269.316203 
L 335.546789 269.599389 
L 335.681277 269.495207 
L 335.950254 272.05667 
L 336.084742 269.978707 
L 336.622695 253.64577 
L 336.757183 254.434241 
L 336.891671 252.619575 
L 337.295136 258.926864 
L 337.698601 263.621695 
L 337.833089 263.146245 
L 338.102065 267.213142 
L 338.236553 266.982994 
L 338.371042 267.615191 
L 338.50553 265.298556 
L 339.043483 268.432074 
L 339.446947 271.40411 
L 339.581436 270.926293 
L 339.715924 269.766555 
L 339.850412 270.023695 
L 339.9849 269.249905 
L 340.119388 269.138146 
L 340.253877 268.668379 
L 340.388365 270.13356 
L 340.522853 268.160727 
L 340.657341 268.754566 
L 340.926318 268.438704 
L 341.060806 265.127129 
L 341.329782 269.96971 
L 341.464271 269.868843 
L 341.598759 270.393069 
L 341.733247 271.946805 
L 341.867735 279.705542 
L 342.136712 279.80641 
L 342.2712 280.442869 
L 342.540176 267.850074 
L 342.943641 153.607595 
L 343.212617 170.082126 
L 343.347106 169.353797 
L 343.75057 183.622031 
L 343.885058 185.283265 
L 344.019547 184.625969 
L 344.423011 251.961333 
L 345.22994 277.446681 
L 345.364429 278.521653 
L 345.498917 278.157015 
L 345.633405 273.974571 
L 345.767893 265.955852 
L 346.03687 182.386998 
L 346.171358 186.471416 
L 346.440334 173.016751 
L 346.574823 167.689249 
L 346.843799 174.511766 
L 347.112775 176.365263 
L 347.381752 210.564511 
L 347.650728 249.15883 
L 348.054193 266.973996 
L 348.188681 268.14652 
L 348.323169 277.042265 
L 348.457658 277.8833 
L 348.592146 279.738691 
L 348.726634 279.545007 
L 348.99561 266.743848 
L 349.264587 181.345175 
L 349.399075 182.807042 
L 349.668052 165.392977 
L 349.80254 161.314715 
L 350.206004 179.857263 
L 350.340493 181.027419 
L 351.012934 260.549739 
L 351.147422 262.85122 
L 351.550886 279.377368 
L 351.685375 278.671297 
L 351.954351 279.034987 
L 352.088839 277.649363 
L 352.223328 270.421009 
L 352.492304 177.301957 
L 352.626792 184.406713 
L 352.76128 173.132772 
L 352.895769 172.430015 
L 353.030257 164.2214 
L 353.164745 171.371618 
L 353.299233 169.312124 
L 353.56821 151.686853 
L 354.240651 267.114169 
L 354.375139 268.242179 
L 354.644115 274.055075 
L 354.913092 278.292925 
L 355.182068 279.326224 
L 355.316556 276.944239 
L 355.451045 267.893642 
L 355.854509 195.213729 
L 356.123486 157.205198 
L 356.257974 158.904316 
L 356.392462 167.441106 
L 356.52695 166.813171 
L 356.661439 177.328949 
L 356.795927 176.088233 
L 357.33388 262.840802 
L 357.602856 272.355957 
L 357.737344 274.303692 
L 357.871832 278.5226 
L 358.006321 277.949124 
L 358.140809 278.161751 
L 358.275297 278.895288 
L 358.409785 278.808154 
L 358.678762 277.559388 
L 359.082226 259.249355 
L 359.351203 253.394312 
L 359.485691 247.176525 
L 359.620179 257.81827 
L 359.754667 259.220468 
L 359.889156 259.38716 
L 360.427109 273.554053 
L 360.561597 274.227923 
L 360.965061 278.339807 
L 361.234038 278.300502 
L 361.368526 278.110607 
L 361.503014 279.404834 
L 361.771991 279.000891 
L 361.906479 280.320218 
L 362.040967 280.272862 
L 362.175455 280.645077 
L 362.309944 280.685329 
L 362.57892 277.301773 
L 362.713408 277.252997 
L 362.982385 276.127829 
L 363.116873 274.647967 
L 363.251361 274.5471 
L 363.385849 275.628701 
L 363.520337 274.781983 
L 363.654826 274.722789 
L 364.05829 277.485513 
L 364.192778 251.696615 
L 364.730731 257.901616 
L 364.86522 256.716306 
L 364.999708 244.735346 
L 365.134196 222.767569 
L 365.403172 135.17065 
L 365.672149 105.125907 
L 365.806637 99.253342 
L 366.075613 116.058888 
L 366.34459 112.940523 
L 366.479078 124.278395 
L 367.017031 249.628123 
L 367.151519 254.546947 
L 367.286007 252.826045 
L 367.554984 264.093357 
L 367.689472 264.952861 
L 367.958448 269.812489 
L 368.227425 246.443935 
L 368.496401 151.273439 
L 368.765378 99.8164 
L 369.034354 89.003702 
L 369.168842 93.687168 
L 369.303331 93.246288 
L 369.437819 96.587697 
L 369.572307 94.482742 
L 369.706795 110.460986 
L 370.244748 233.29566 
L 370.782701 277.155445 
L 370.917189 277.458047 
L 371.051677 278.342649 
L 371.186166 278.066092 
L 371.455142 263.363134 
L 371.858607 170.831765 
L 372.127583 202.564734 
L 372.262071 198.536196 
L 372.396559 199.951654 
L 372.665536 189.348267 
L 372.800024 193.113035 
L 373.203489 232.50719 
L 373.472465 254.589093 
L 373.87593 275.615441 
L 374.010418 284.563277 
L 374.144906 284.418369 
L 374.279394 285.615518 
L 374.413883 285.11639 
L 374.682859 268.685427 
L 375.220812 179.985123 
L 375.489788 176.384206 
L 375.624277 176.605356 
L 375.893253 183.089755 
L 376.027741 187.35223 
L 376.565694 254.407721 
L 376.83467 263.228644 
L 376.969159 266.042986 
L 377.103647 277.763017 
L 377.238135 276.678574 
L 377.507112 278.735227 
L 377.6416 276.78465 
L 377.776088 280.29654 
L 378.045064 278.166013 
L 378.179553 268.599713 
L 378.314041 267.978882 
L 378.448529 260.933319 
L 378.583017 261.926366 
L 378.717505 261.016192 
L 378.851994 265.492714 
L 378.986482 264.73834 
L 379.12097 265.639516 
L 379.255458 267.782356 
L 379.389947 267.666808 
L 379.927899 276.850001 
L 380.062388 276.644952 
L 380.196876 277.058366 
L 380.331364 267.224981 
L 380.60034 269.137673 
L 380.869317 270.779964 
L 381.138293 259.966792 
L 381.272782 233.077351 
L 381.541758 159.048277 
L 381.810734 139.037706 
L 381.945223 140.617015 
L 382.214199 147.055005 
L 382.348687 139.125314 
L 382.752152 188.607626 
L 383.021128 256.099263 
L 383.155616 263.967865 
L 383.290105 264.62516 
L 383.424593 265.902813 
L 383.559081 261.010983 
L 383.693569 260.304437 
L 383.962546 260.648239 
L 384.097034 261.82976 
L 384.231522 260.059136 
L 384.36601 261.440971 
L 385.038451 148.109613 
L 385.17294 150.534692 
L 385.307428 165.557301 
L 385.576404 159.955137 
L 386.248845 258.924022 
L 386.921286 277.287567 
L 387.055775 276.478733 
L 387.190263 277.746916 
L 387.324751 277.061207 
L 387.459239 277.221269 
L 387.593727 278.69971 
L 387.728216 278.129549 
L 387.862704 279.437036 
L 387.997192 278.276351 
L 388.13168 279.855186 
L 388.266169 278.87824 
L 388.400657 276.907301 
L 388.535145 276.995856 
L 388.669633 276.338087 
L 388.804121 277.468939 
L 388.93861 274.936362 
L 389.207586 277.061207 
L 389.476562 283.702826 
L 389.611051 282.652006 
L 389.745539 283.462733 
L 389.880027 283.411116 
L 390.014515 268.612973 
L 390.283492 268.860169 
L 390.41798 268.870114 
L 390.552468 268.740359 
L 390.686956 263.279788 
L 390.821445 263.463528 
L 390.955933 254.671966 
L 391.224909 198.896571 
L 391.359397 167.733289 
L 391.493886 163.770575 
L 391.762862 174.391483 
L 391.89735 173.851629 
L 392.031839 166.67726 
L 392.166327 170.351579 
L 392.300815 179.270528 
L 392.569791 239.020002 
L 392.70428 265.12997 
L 392.973256 269.939876 
L 393.107744 270.592909 
L 393.376721 263.584284 
L 393.645697 269.263638 
L 393.780185 265.89571 
L 393.914673 267.270916 
L 394.049162 259.908071 
L 394.721603 146.07285 
L 394.990579 145.008297 
L 395.125067 144.591094 
L 395.259556 155.899132 
L 395.394044 156.763371 
L 395.931997 244.313407 
L 396.200973 257.832003 
L 396.335461 254.120273 
L 396.46995 278.726703 
L 396.604438 279.107441 
L 397.007902 282.122097 
L 397.276879 269.152826 
L 397.545855 195.937795 
L 397.680343 190.785035 
L 397.94932 167.56423 
L 398.083808 154.187701 
L 398.218296 166.845846 
L 398.352785 162.111236 
L 398.487273 165.103634 
L 398.487273 165.103634 
" clip-path="url(#p4361f409a0)" style="fill: none; stroke: #1f77b4; stroke-width: 1.5; stroke-linecap: square"/>
   </g>
   <g id="line2d_14">
    <path d="M 73.832727 279.723385 
L 73.967215 279.480882 
L 74.37068 277.150049 
L 74.505168 278.414132 
L 74.639657 278.391585 
L 74.774145 278.987348 
L 74.908633 270.037989 
L 75.043121 230.299664 
L 75.177609 232.221654 
L 75.312098 243.331189 
L 75.446586 244.985597 
L 75.581074 244.069137 
L 75.85005 247.168373 
L 75.984539 248.199613 
L 76.388003 246.303394 
L 76.65698 276.909726 
L 76.925956 272.315498 
L 77.060444 276.763211 
L 77.194933 261.738454 
L 77.329421 262.606194 
L 77.463909 265.413769 
L 77.598397 262.120478 
L 77.732885 263.165118 
L 77.867374 251.951616 
L 78.001862 225.254412 
L 78.270838 127.129731 
L 78.539815 101.934866 
L 78.674303 117.321086 
L 78.808791 101.314492 
L 78.943279 105.691588 
L 79.077768 106.173485 
L 79.61572 191.940029 
L 79.884697 250.627189 
L 80.288161 270.781716 
L 80.42265 260.11921 
L 80.557138 272.26304 
L 80.691626 272.022726 
L 80.826114 265.731879 
L 80.960603 265.123618 
L 81.095091 257.546228 
L 81.229579 237.130459 
L 81.498555 143.968414 
L 81.633044 163.659694 
L 81.767532 165.640755 
L 81.90202 150.381566 
L 82.036508 211.538838 
L 82.170996 212.661413 
L 82.305485 212.704046 
L 82.439973 213.664533 
L 82.574461 195.267072 
L 82.708949 223.482564 
L 82.977926 212.712598 
L 83.112414 216.874058 
L 83.246902 212.645951 
L 83.38139 212.638407 
L 83.515879 221.92811 
L 83.919343 281.850916 
L 84.18832 279.887866 
L 84.322808 212.638384 
L 84.457296 222.997758 
L 84.591784 212.638384 
L 84.860761 212.638384 
L 84.995249 212.765535 
L 85.264225 165.75344 
L 85.936666 212.232056 
L 86.340131 260.940091 
L 86.474619 264.408291 
L 86.609107 263.371518 
L 87.012572 288.365891 
L 87.14706 288.013776 
L 87.281549 284.938398 
L 87.550525 286.649017 
L 87.685013 285.319734 
L 87.95399 247.378144 
L 88.088478 253.399721 
L 88.222966 251.915632 
L 88.491942 253.594361 
L 88.626431 250.147264 
L 88.760919 254.65777 
L 88.895407 248.690428 
L 89.298872 257.498224 
L 89.567848 276.233797 
L 89.702336 270.962384 
L 89.971313 276.658708 
L 90.105801 257.114084 
L 90.240289 257.114053 
L 90.374777 263.258178 
L 90.509266 261.664486 
L 90.643754 258.061203 
L 90.91273 264.345703 
L 91.047218 259.015003 
L 91.181707 243.794616 
L 91.316195 244.545111 
L 91.450683 239.246029 
L 91.585171 246.788546 
L 91.71966 246.72918 
L 92.526589 258.299675 
L 92.930053 266.242593 
L 93.064542 265.821478 
L 93.19903 268.763836 
L 93.333518 280.61047 
L 93.468006 279.801937 
L 93.602495 271.731889 
L 93.736983 271.897107 
L 93.871471 268.444985 
L 94.140447 251.345475 
L 94.409424 161.449642 
L 94.543912 169.017492 
L 94.6784 166.042982 
L 94.947377 154.261388 
L 95.216353 172.626638 
L 95.48533 161.22666 
L 95.888794 255.411484 
L 96.157771 266.844069 
L 96.292259 263.793723 
L 96.426747 270.509901 
L 96.561235 271.060504 
L 96.830212 263.775862 
L 96.9647 265.325458 
L 97.099188 262.549978 
L 97.233676 257.232475 
L 97.502653 210.506683 
L 97.637141 163.068764 
L 97.906117 170.957639 
L 98.040606 185.271753 
L 98.175094 179.191716 
L 98.309582 178.269078 
L 98.44407 174.928178 
L 98.847535 208.160325 
L 99.385488 269.169478 
L 99.519976 268.407105 
L 99.788952 285.907 
L 99.923441 285.03084 
L 100.057929 275.992679 
L 100.192417 275.597686 
L 100.326905 276.417904 
L 100.595882 272.656205 
L 100.73037 272.923621 
L 100.864858 274.601572 
L 100.999346 273.598668 
L 101.133834 276.829407 
L 101.268323 277.356327 
L 101.402811 273.282946 
L 101.537299 264.520838 
L 101.671787 272.114074 
L 101.940764 263.899938 
L 102.20974 272.391032 
L 102.344228 271.850582 
L 102.478717 273.447158 
L 102.613205 277.525807 
L 102.747693 273.389534 
L 102.882181 283.842665 
L 103.151158 256.211933 
L 103.285646 270.184952 
L 103.420134 268.107871 
L 103.823599 246.81716 
L 104.227063 157.379833 
L 104.361552 152.930563 
L 104.49604 167.605086 
L 104.765016 141.852455 
L 105.168481 174.630586 
L 105.437457 217.625564 
L 105.840922 260.119393 
L 105.97541 254.516107 
L 106.244387 289.800584 
L 106.378875 288.773181 
L 106.647851 275.708981 
L 106.782339 277.639 
L 107.051316 274.895632 
L 107.320292 208.631824 
L 107.45478 220.845642 
L 107.589269 248.789257 
L 107.858245 242.299296 
L 108.26171 248.063942 
L 108.396198 248.26033 
L 108.530686 247.186272 
L 108.665174 251.833902 
L 108.934151 279.699689 
L 109.203127 274.473857 
L 109.337615 275.519836 
L 109.472104 268.355021 
L 109.875568 270.587439 
L 110.144545 270.168222 
L 110.279033 270.8393 
L 110.413521 270.351588 
L 110.548009 270.51432 
L 110.682498 271.898906 
L 110.816986 270.869499 
L 110.951474 268.968733 
L 111.085962 268.855377 
L 111.22045 271.671493 
L 111.354939 271.921133 
L 111.758403 267.637898 
L 111.892891 268.864353 
L 112.161868 271.695845 
L 112.430844 270.007406 
L 112.565333 272.070717 
L 112.699821 258.560897 
L 112.834309 259.593282 
L 112.968797 264.576364 
L 113.103285 263.462821 
L 113.237774 263.72327 
L 113.372262 263.421624 
L 113.641238 266.966118 
L 113.775726 268.15998 
L 113.910215 265.0743 
L 114.044703 264.690983 
L 114.179191 262.950807 
L 114.313679 256.417037 
L 114.448168 257.089336 
L 114.582656 259.47118 
L 114.717144 258.770229 
L 114.98612 250.922908 
L 115.120609 250.700584 
L 115.389585 258.917879 
L 115.524073 259.491806 
L 115.658561 258.972594 
L 115.79305 263.674451 
L 116.062026 259.96374 
L 116.196514 254.20682 
L 116.331002 261.409383 
L 116.465491 260.255098 
L 116.599979 254.064891 
L 116.734467 236.589794 
L 117.003444 127.89898 
L 117.27242 78.696145 
L 117.406908 91.985843 
L 117.675885 79.208269 
L 117.810373 83.687795 
L 118.213837 146.772424 
L 118.617302 240.532988 
L 119.020767 255.315945 
L 119.155255 252.402481 
L 119.289743 254.065693 
L 119.55872 247.720568 
L 119.693208 249.903536 
L 119.827696 248.048685 
L 119.962184 227.927082 
L 120.231161 119.912002 
L 120.500137 92.150967 
L 120.634625 97.281734 
L 120.769114 87.288306 
L 120.903602 88.498412 
L 121.03809 86.824646 
L 121.172578 92.791495 
L 121.576043 179.764438 
L 121.845019 239.635476 
L 121.979507 244.506966 
L 122.382972 247.414825 
L 122.51746 259.179904 
L 122.651948 258.659999 
L 122.786437 249.790271 
L 122.920925 248.786692 
L 123.055413 244.570819 
L 123.189901 227.749089 
L 123.593366 90.932849 
L 123.727854 78.729448 
L 123.862342 90.968881 
L 123.996831 86.946906 
L 124.131319 88.0133 
L 124.669272 138.612223 
L 125.072736 241.855811 
L 125.207225 254.575278 
L 125.476201 257.154154 
L 125.610689 254.580976 
L 125.879666 269.652054 
L 126.148642 260.722608 
L 126.417618 232.399302 
L 126.686595 130.661952 
L 126.955571 89.210782 
L 127.09006 90.052451 
L 127.224548 93.755031 
L 127.359036 110.682575 
L 127.493524 112.22198 
L 127.628012 115.894397 
L 127.896989 154.501701 
L 128.300453 247.096581 
L 128.434942 254.677807 
L 128.56943 255.292361 
L 128.703918 255.269336 
L 128.838406 260.353398 
L 128.972894 259.828196 
L 129.107383 256.350202 
L 129.241871 259.60643 
L 129.376359 258.504986 
L 129.645336 215.776318 
L 130.0488 90.392492 
L 130.183288 86.164686 
L 130.317777 96.650915 
L 130.452265 96.042547 
L 130.586753 118.759288 
L 130.855729 116.746295 
L 130.990218 132.021535 
L 131.528171 249.989979 
L 131.662659 258.202691 
L 131.797147 258.973873 
L 131.931635 265.197883 
L 132.200612 256.990442 
L 132.3351 260.363203 
L 132.469588 269.285263 
L 132.873053 263.826178 
L 133.142029 245.900955 
L 133.411005 238.490241 
L 133.679982 236.272566 
L 133.948958 238.439851 
L 134.083447 234.004315 
L 134.755888 253.339042 
L 134.890376 254.314274 
L 135.024864 253.17986 
L 135.159352 259.466408 
L 135.29384 260.030702 
L 135.428329 259.952623 
L 135.562817 260.11468 
L 135.831793 262.262701 
L 135.966282 267.486333 
L 136.10077 267.462786 
L 136.235258 262.660577 
L 136.504234 265.963867 
L 136.638723 260.001025 
L 137.042187 261.938919 
L 137.311164 252.611334 
L 137.445652 253.615525 
L 137.58014 256.302754 
L 137.714628 253.989067 
L 138.118093 259.465431 
L 138.252581 257.533907 
L 138.521558 266.414982 
L 138.790534 255.789379 
L 139.05951 260.761422 
L 139.328487 225.404994 
L 139.731951 90.666279 
L 139.86644 84.91604 
L 140.000928 96.131363 
L 140.135416 90.509625 
L 140.404393 104.707428 
L 140.942345 179.053563 
L 141.211322 251.379545 
L 141.34581 250.172561 
L 141.614786 265.164439 
L 141.749275 261.63649 
L 141.883763 264.311663 
L 142.287228 255.810741 
L 142.959669 90.549661 
L 143.094157 94.311459 
L 143.228645 103.422089 
L 143.363133 91.53988 
L 143.497621 95.970033 
L 143.63211 92.695409 
L 143.766598 100.992094 
L 144.304551 235.515563 
L 144.842504 270.32566 
L 145.11148 260.450128 
L 145.245968 259.820671 
L 145.380456 260.804147 
L 145.514945 250.831146 
L 145.649433 218.258998 
L 145.783921 214.064374 
L 146.187386 97.35381 
L 146.321874 89.944314 
L 146.456362 110.277816 
L 146.725339 114.476787 
L 146.859827 109.500304 
L 147.263291 154.240415 
L 147.532268 245.596305 
L 147.801244 253.802614 
L 148.070221 266.864586 
L 148.204709 264.725293 
L 148.339197 264.62799 
L 148.742662 254.864475 
L 148.87715 252.793541 
L 149.146126 164.525066 
L 149.415103 106.388058 
L 149.684079 114.625185 
L 149.818567 104.241162 
L 150.087544 129.52863 
L 150.222032 145.651517 
L 150.35652 144.585339 
L 150.491009 157.911963 
L 150.759985 246.087572 
L 150.894473 249.729379 
L 151.297938 266.526183 
L 151.432426 262.350961 
L 151.701402 263.394845 
L 151.970379 260.785483 
L 152.104867 256.636258 
L 152.64282 100.795066 
L 152.911796 119.073233 
L 153.046285 94.684203 
L 153.315261 114.944721 
L 153.584237 167.0647 
L 153.853214 214.022784 
L 154.12219 259.805152 
L 154.256678 268.822784 
L 154.391167 265.787832 
L 154.525655 272.352918 
L 154.794631 270.440742 
L 154.92912 269.942222 
L 155.063608 270.08768 
L 155.332584 274.02759 
L 155.467072 272.552813 
L 155.601561 265.651117 
L 155.736049 250.236847 
L 156.005025 252.999125 
L 156.139513 257.157941 
L 156.274002 256.980759 
L 156.40849 256.483293 
L 156.542978 257.879011 
L 156.677466 260.857916 
L 156.811955 259.985862 
L 157.484396 268.507226 
L 157.618884 266.607775 
L 157.88786 270.183604 
L 158.022348 270.52764 
L 158.156837 269.553553 
L 158.291325 269.787139 
L 158.694789 276.450984 
L 158.829278 273.204686 
L 159.098254 274.853331 
L 159.232742 272.527252 
L 159.367231 272.348292 
L 159.501719 274.32506 
L 159.636207 272.805678 
L 159.905183 264.047991 
L 160.039672 265.534045 
L 160.17416 262.267368 
L 160.443136 262.922588 
L 160.577624 267.659525 
L 160.846601 263.331665 
L 160.981089 266.853549 
L 161.115577 267.057049 
L 161.250066 268.990645 
L 161.65353 262.742058 
L 161.922507 229.125804 
L 162.325971 101.514614 
L 162.460459 82.06648 
L 162.594948 99.018389 
L 162.729436 98.7186 
L 162.863924 88.812533 
L 163.401877 156.35844 
L 163.805342 247.029154 
L 163.93983 247.186604 
L 164.208806 265.848819 
L 164.343294 260.415722 
L 164.477783 270.890204 
L 164.612271 271.833308 
L 164.746759 267.94899 
L 164.881247 256.622974 
L 165.284712 178.09106 
L 165.553688 107.893656 
L 165.688177 120.338535 
L 165.822665 120.871442 
L 165.957153 107.257654 
L 166.226129 115.593222 
L 166.360618 112.365523 
L 166.495106 117.90232 
L 166.629594 137.014828 
L 166.89857 243.080689 
L 167.033059 245.274 
L 167.167547 239.942828 
L 167.436523 258.501957 
L 167.571012 255.667773 
L 167.839988 261.097879 
L 168.108964 257.612606 
L 168.243453 244.422516 
L 168.512429 170.226868 
L 168.781405 94.198068 
L 169.050382 117.172313 
L 169.18487 100.364663 
L 169.319358 102.522701 
L 169.453847 95.786331 
L 169.588335 103.941792 
L 170.126288 234.640461 
L 170.395264 256.715556 
L 170.529752 258.274669 
L 170.66424 263.576708 
L 170.798729 263.269031 
L 171.067705 257.106483 
L 171.202193 256.938965 
L 171.336681 259.614573 
L 172.009123 100.045026 
L 172.143611 107.822043 
L 172.278099 119.8134 
L 172.547075 92.957594 
L 173.085028 156.325219 
L 173.488493 250.333139 
L 173.757469 259.838933 
L 174.026446 282.810061 
L 174.160934 279.24906 
L 174.295422 270.215426 
L 174.42991 270.440933 
L 174.564399 271.039264 
L 174.967863 216.33764 
L 175.23684 156.079541 
L 175.505816 139.812419 
L 175.640304 141.21033 
L 175.774792 155.134851 
L 175.909281 154.930464 
L 176.043769 156.399165 
L 176.447234 200.398909 
L 176.71621 257.346062 
L 177.119675 267.898613 
L 177.254163 265.600044 
L 177.388651 267.427578 
L 177.523139 265.484367 
L 177.926604 271.150518 
L 178.061092 271.270223 
L 178.330069 254.688682 
L 178.464557 257.451653 
L 178.733533 249.586414 
L 178.868021 251.744859 
L 179.00251 256.532678 
L 179.271486 253.365717 
L 179.405974 255.684567 
L 179.674951 254.977941 
L 179.943927 262.278903 
L 180.078415 267.332319 
L 180.212904 264.58332 
L 180.347392 266.01937 
L 180.48188 274.656644 
L 180.616368 276.095765 
L 180.885345 272.276025 
L 181.019833 273.224128 
L 181.154321 273.155631 
L 181.557786 260.014019 
L 181.692274 260.823554 
L 181.826762 259.287583 
L 181.96125 261.794964 
L 182.095738 255.082062 
L 182.230227 258.239693 
L 182.499203 268.134996 
L 182.633691 269.038172 
L 182.76818 273.069098 
L 182.902668 272.594149 
L 183.037156 271.660813 
L 183.171644 275.392744 
L 183.306132 275.4346 
L 183.440621 274.822053 
L 183.575109 278.813019 
L 183.709597 272.344905 
L 183.978573 289.962978 
L 184.24755 275.472069 
L 184.516526 253.754827 
L 184.785503 171.02051 
L 185.054479 172.621872 
L 185.188967 182.292815 
L 185.323456 178.430205 
L 185.592432 184.346351 
L 185.72692 191.709618 
L 186.399361 260.910965 
L 186.668338 267.06026 
L 187.071802 293.614781 
L 187.206291 292.841539 
L 187.340779 284.082994 
L 187.475267 283.768002 
L 187.609755 277.933624 
L 187.744243 260.846184 
L 188.01322 171.173249 
L 188.147708 178.365211 
L 188.282196 179.207042 
L 188.551173 183.290356 
L 189.089126 202.345162 
L 189.627078 267.560595 
L 189.896055 265.392001 
L 190.030543 278.021736 
L 190.299519 268.390345 
L 190.434008 268.587743 
L 190.568496 263.870502 
L 190.702984 263.568794 
L 190.971961 265.771458 
L 191.106449 265.11897 
L 191.240937 258.306393 
L 191.375425 258.644364 
L 191.509913 263.268236 
L 191.644402 257.483374 
L 191.913378 263.376249 
L 192.047866 263.06856 
L 192.182354 259.632291 
L 192.316843 260.577762 
L 192.585819 265.764628 
L 192.720307 266.902223 
L 192.854796 271.858401 
L 192.989284 270.877258 
L 193.123772 268.70736 
L 193.25826 270.592039 
L 193.527237 262.981209 
L 193.661725 264.200929 
L 193.796213 264.348279 
L 193.930701 262.443696 
L 194.199678 244.528823 
L 194.468654 166.921623 
L 194.603142 161.713408 
L 194.73763 150.941899 
L 194.872119 149.735533 
L 195.006607 143.750097 
L 195.141095 146.194037 
L 195.275583 153.028091 
L 195.410072 150.756284 
L 195.679048 180.793402 
L 195.948024 241.92674 
L 196.082513 260.67792 
L 196.217001 262.237782 
L 196.351489 259.86335 
L 196.620465 277.041299 
L 196.754954 273.289376 
L 196.889442 265.991402 
L 197.02393 265.026175 
L 197.158418 265.617762 
L 197.292907 260.983272 
L 197.427395 247.436198 
L 197.696371 176.938297 
L 198.099836 193.311704 
L 198.234324 190.499439 
L 198.368812 197.268105 
L 198.637789 189.656677 
L 199.041253 239.081941 
L 199.31023 273.97525 
L 199.444718 273.840194 
L 199.579206 272.592722 
L 199.848183 280.007711 
L 200.117159 276.117083 
L 200.251647 276.662141 
L 200.386135 273.957566 
L 200.520624 265.613626 
L 200.655112 265.812244 
L 200.7896 249.193879 
L 200.924088 188.451061 
L 201.058576 190.741825 
L 201.193065 195.027207 
L 201.327553 195.532077 
L 201.462041 193.987233 
L 201.596529 198.828123 
L 201.865506 190.242057 
L 201.999994 197.942801 
L 202.537947 268.855342 
L 202.672435 267.502604 
L 202.806923 267.705339 
L 202.941411 275.010659 
L 203.210388 260.706369 
L 203.344876 266.976581 
L 203.479364 267.008608 
L 203.882829 251.725837 
L 204.017317 228.353119 
L 204.286294 161.466272 
L 204.420782 159.978894 
L 204.55527 161.756011 
L 204.689758 157.497482 
L 204.824246 163.046879 
L 204.958735 158.970725 
L 205.362199 207.244975 
L 205.900152 262.515285 
L 206.03464 259.6098 
L 206.169129 268.461013 
L 206.303617 287.965452 
L 206.438105 286.069422 
L 206.572593 279.582052 
L 206.707081 281.258257 
L 206.84157 280.378598 
L 206.976058 278.619285 
L 207.514011 250.806406 
L 207.648499 254.065351 
L 207.917475 269.752773 
L 208.051964 271.309669 
L 208.186452 270.440077 
L 208.32094 266.400314 
L 208.455428 265.811748 
L 208.858893 277.69308 
L 209.127869 279.895188 
L 209.262357 277.913843 
L 209.396846 281.614244 
L 209.531334 270.317271 
L 209.665822 270.022967 
L 209.80031 270.939169 
L 209.934799 268.286178 
L 210.069287 268.752106 
L 210.472751 201.484667 
L 210.741728 146.693263 
L 211.010704 121.41151 
L 211.145192 112.290835 
L 211.414169 137.04729 
L 211.683145 157.704673 
L 212.221098 257.846414 
L 212.355586 260.289578 
L 212.490075 257.228775 
L 212.759051 273.155755 
L 212.893539 274.438207 
L 213.162516 265.354315 
L 213.297004 269.035087 
L 213.56598 231.667939 
L 213.834957 134.33072 
L 213.969445 121.954152 
L 214.238421 142.837393 
L 214.37291 128.930326 
L 214.507398 137.9756 
L 214.776374 174.450765 
L 215.045351 193.420835 
L 215.448815 269.619243 
L 215.583303 262.814586 
L 215.717792 263.145888 
L 215.85228 270.52653 
L 215.986768 268.705762 
L 216.121256 269.224112 
L 216.390233 264.979577 
L 216.524721 267.711647 
L 216.793697 241.456555 
L 217.062674 142.816913 
L 217.197162 136.186018 
L 217.466138 153.815166 
L 217.600627 153.143797 
L 217.735115 150.951582 
L 217.869603 143.029356 
L 218.004091 156.264383 
L 218.273068 209.808752 
L 218.407556 216.366956 
L 218.676532 266.292828 
L 218.945509 269.921044 
L 219.214485 265.143663 
L 219.348973 270.932179 
L 219.752438 273.023366 
L 220.021414 241.841377 
L 220.290391 143.148975 
L 220.424879 147.323563 
L 220.559367 156.840045 
L 220.693856 153.76365 
L 220.828344 140.367412 
L 220.962832 155.935957 
L 221.09732 156.841038 
L 221.366297 195.573391 
L 221.635273 214.476987 
L 221.904249 267.749664 
L 222.038738 266.128106 
L 222.173226 268.494974 
L 222.307714 273.114247 
L 222.442202 270.323503 
L 222.711179 275.206525 
L 222.845667 275.084564 
L 222.980155 275.906584 
L 223.114643 273.173332 
L 223.249132 275.493155 
L 223.518108 246.129311 
L 223.787084 261.097725 
L 224.056061 251.771093 
L 224.459525 259.400438 
L 224.594014 258.865962 
L 224.86299 255.43432 
L 225.131967 261.660241 
L 225.266455 261.803283 
L 225.400943 259.427581 
L 225.535431 263.033537 
L 225.669919 261.915058 
L 225.804408 258.18925 
L 226.207872 267.004538 
L 226.34236 267.679937 
L 226.476849 269.018164 
L 226.611337 268.654521 
L 226.880313 264.09119 
L 227.14929 269.330691 
L 227.283778 269.184738 
L 227.418266 267.982366 
L 227.687243 272.289712 
L 227.821731 272.290411 
L 227.956219 271.546151 
L 228.090707 271.772923 
L 228.225195 277.14138 
L 228.494172 276.023927 
L 228.62866 274.030695 
L 228.763148 279.854101 
L 228.897637 278.153243 
L 229.166613 270.3579 
L 229.301101 271.104783 
L 229.435589 269.522377 
L 229.570078 255.999213 
L 229.704566 228.785007 
L 230.10803 109.620096 
L 230.242519 96.309771 
L 230.377007 104.962801 
L 230.511495 92.193262 
L 230.780471 121.707106 
L 230.91496 123.579279 
L 231.183936 172.229744 
L 231.587401 255.62814 
L 231.856377 260.818356 
L 231.990865 271.58561 
L 232.125354 271.750566 
L 232.259842 269.660704 
L 232.39433 269.758725 
L 232.528818 271.249398 
L 232.663306 266.758827 
L 232.932283 231.519646 
L 233.335748 121.423351 
L 233.470236 120.479282 
L 233.604724 140.571221 
L 233.739212 131.077654 
L 233.8737 138.039997 
L 234.008189 127.544458 
L 234.142677 141.472222 
L 234.411653 202.678288 
L 234.546141 212.474721 
L 234.815118 266.312108 
L 234.949606 267.308027 
L 235.084094 262.840889 
L 235.218583 271.644564 
L 235.487559 273.905766 
L 235.622047 278.245758 
L 235.891024 269.554614 
L 236.16 243.813456 
L 236.428976 135.420596 
L 236.563465 121.03694 
L 236.832441 128.110368 
L 236.966929 109.907613 
L 237.101417 121.250964 
L 237.235906 151.722671 
L 237.370394 154.294885 
L 237.504882 163.732638 
L 237.908347 252.306205 
L 238.042835 266.625034 
L 238.177323 267.09567 
L 238.311811 264.657229 
L 238.4463 273.655691 
L 238.580788 273.276544 
L 238.715276 273.61642 
L 238.984252 281.705817 
L 239.118741 276.153512 
L 239.253229 265.395626 
L 239.387717 238.631185 
L 239.656694 145.7341 
L 239.92567 122.183435 
L 240.060158 137.5007 
L 240.194646 133.11543 
L 240.329135 137.409691 
L 240.732599 177.617063 
L 240.867087 193.566081 
L 241.270552 258.286456 
L 241.40504 259.564047 
L 241.539529 258.17103 
L 241.674017 266.377834 
L 241.808505 263.674137 
L 241.942993 276.235687 
L 242.077481 277.737799 
L 242.21197 281.585686 
L 242.346458 278.098182 
L 242.615434 238.165466 
L 242.884411 144.238163 
L 243.018899 139.179524 
L 243.153387 159.377552 
L 243.287875 157.865075 
L 243.422363 131.142308 
L 243.960316 179.627093 
L 244.229293 235.497214 
L 244.498269 260.648042 
L 244.632757 264.583643 
L 244.767246 264.473985 
L 244.901734 270.297838 
L 245.036222 270.974748 
L 245.17071 273.904294 
L 245.708663 268.906988 
L 245.843151 251.961786 
L 246.112128 263.400617 
L 246.381104 256.546043 
L 246.515592 255.82855 
L 246.650081 257.803088 
L 247.053545 268.419365 
L 247.188033 268.502698 
L 247.45701 271.641749 
L 247.591498 272.240351 
L 247.725986 271.420972 
L 247.860475 273.187329 
L 247.994963 271.044103 
L 248.129451 272.983423 
L 248.263939 273.120074 
L 248.532916 270.478207 
L 248.667404 269.57691 
L 248.93638 271.829488 
L 249.205357 271.929107 
L 249.474333 273.513625 
L 249.743309 273.496519 
L 250.012286 274.595397 
L 250.281262 273.336345 
L 250.550239 274.104301 
L 250.684727 273.095015 
L 250.819215 273.261812 
L 251.088192 273.026262 
L 251.22268 271.228282 
L 251.357168 275.204155 
L 251.491656 274.162751 
L 251.626144 286.022827 
L 251.760633 284.392483 
L 252.029609 277.522938 
L 252.298586 252.2972 
L 252.567562 148.533432 
L 252.70205 135.152827 
L 252.836538 139.363028 
L 252.971027 166.87725 
L 253.105515 151.622599 
L 253.240003 155.579701 
L 253.508979 179.19719 
L 253.643468 181.336429 
L 254.181421 266.430395 
L 254.450397 272.847146 
L 254.584885 283.170773 
L 254.719373 281.901136 
L 254.853862 285.888136 
L 255.122838 282.67686 
L 255.257326 282.716322 
L 255.660791 191.534998 
L 255.795279 152.360881 
L 256.064255 171.618978 
L 256.198744 164.113234 
L 256.333232 147.866717 
L 256.602208 161.928401 
L 256.736697 168.179286 
L 257.274649 245.418814 
L 257.543626 262.145948 
L 257.678114 260.165301 
L 257.812602 268.100513 
L 257.94709 266.650225 
L 258.216067 284.206774 
L 258.485043 274.035802 
L 258.75402 246.042639 
L 259.022996 153.578642 
L 259.291973 167.728892 
L 259.426461 165.392418 
L 259.560949 142.585128 
L 259.829925 170.306189 
L 259.964414 162.942029 
L 260.098902 173.047515 
L 260.502366 243.050811 
L 260.771343 258.85626 
L 260.905831 260.514642 
L 261.040319 267.768775 
L 261.174808 263.74731 
L 261.309296 269.890847 
L 261.443784 269.617777 
L 261.578272 269.827304 
L 261.847249 258.782643 
L 261.981737 235.601889 
L 262.250713 147.352275 
L 262.51969 162.438025 
L 262.788666 136.775392 
L 262.923154 154.067892 
L 263.057643 152.999816 
L 263.99906 253.675115 
L 264.133548 254.392671 
L 264.402525 268.502749 
L 264.671501 260.783462 
L 264.805989 259.963428 
L 265.074966 252.776766 
L 265.209454 238.330405 
L 265.881895 108.795881 
L 266.016383 109.75696 
L 266.150871 121.645516 
L 266.28536 120.09149 
L 266.419848 122.077531 
L 266.554336 135.430056 
L 267.092289 253.465138 
L 267.226777 254.037286 
L 267.361265 253.705651 
L 267.630242 271.347282 
L 267.76473 269.782997 
L 267.899218 265.761429 
L 268.033706 265.179464 
L 268.302683 271.997527 
L 268.437171 271.871222 
L 268.571659 267.149283 
L 268.840636 272.670345 
L 268.975124 269.565408 
L 269.109612 269.124161 
L 269.2441 269.413352 
L 269.378589 269.309652 
L 269.782053 261.360024 
L 270.05103 258.761049 
L 270.185518 259.603723 
L 270.454494 259.753119 
L 270.588982 261.220841 
L 270.723471 266.255592 
L 270.857959 279.403485 
L 270.992447 279.739902 
L 271.126935 272.669805 
L 271.261424 272.887387 
L 271.395912 273.501607 
L 271.5304 272.880652 
L 271.933865 277.162936 
L 272.068353 274.65594 
L 272.471817 276.715516 
L 272.606306 276.56926 
L 272.740794 274.668111 
L 273.00977 277.658233 
L 273.144258 276.964046 
L 273.278747 274.510614 
L 273.413235 274.434437 
L 273.547723 275.319505 
L 273.682211 275.370094 
L 273.8167 273.958398 
L 273.951188 279.103316 
L 274.085676 275.844294 
L 274.220164 290.304689 
L 274.354652 291.655052 
L 274.623629 281.950192 
L 274.892605 254.253946 
L 275.161582 182.61198 
L 275.430558 156.836182 
L 275.699535 154.13626 
L 275.834023 154.654284 
L 276.102999 182.196681 
L 276.237487 191.803598 
L 276.640952 249.059211 
L 276.909928 266.831114 
L 277.044417 266.294883 
L 277.178905 276.493525 
L 277.313393 273.507664 
L 277.447881 279.116108 
L 277.58237 279.328531 
L 277.716858 280.733434 
L 277.851346 279.902549 
L 277.985834 272.827639 
L 278.120322 259.056175 
L 278.389299 200.823048 
L 278.523787 196.640766 
L 278.658275 180.806252 
L 278.792763 180.881414 
L 278.927252 176.312524 
L 279.06174 193.336509 
L 279.196228 190.349195 
L 279.330716 192.181821 
L 279.734181 239.664968 
L 280.003157 267.832457 
L 280.272134 270.545697 
L 280.406622 280.590281 
L 280.675598 260.395336 
L 280.810087 263.332128 
L 280.944575 262.553995 
L 281.079063 259.285869 
L 281.348039 242.929831 
L 281.751504 135.596133 
L 281.885992 122.000423 
L 282.289457 142.73385 
L 282.423945 121.267988 
L 282.558433 130.815116 
L 283.230874 262.301773 
L 283.365363 262.607787 
L 283.499851 260.197993 
L 283.634339 267.375231 
L 284.037804 257.069823 
L 284.172292 257.014449 
L 284.30678 255.320938 
L 284.575757 242.427315 
L 284.979221 147.883004 
L 285.113709 154.421894 
L 285.382686 140.082035 
L 285.517174 138.301574 
L 285.651662 152.522703 
L 285.78615 152.943234 
L 285.920639 160.864001 
L 286.458592 258.810064 
L 286.59308 259.671606 
L 286.727568 259.648881 
L 286.862056 265.076352 
L 286.996544 287.484005 
L 287.131033 286.760944 
L 287.265521 273.131561 
L 287.400009 272.548806 
L 287.803474 264.629019 
L 287.937962 266.871567 
L 288.206938 266.816193 
L 288.341427 264.354078 
L 288.475915 265.772372 
L 288.610403 264.504376 
L 288.879379 266.270378 
L 289.148356 274.478158 
L 289.282844 271.371419 
L 289.55182 280.923611 
L 289.686309 279.994734 
L 289.955285 275.839733 
L 290.089773 276.436197 
L 290.224262 274.189405 
L 290.35875 275.092981 
L 290.493238 273.931724 
L 290.627726 274.259181 
L 290.762214 272.080112 
L 291.165679 247.930397 
L 291.434655 171.226166 
L 291.83812 191.902578 
L 292.107096 178.322141 
L 292.510561 208.558527 
L 292.914026 265.80866 
L 293.048514 264.833518 
L 293.183002 265.334709 
L 293.31749 272.168766 
L 293.586467 266.824853 
L 293.720955 264.851145 
L 293.855443 266.905734 
L 293.989931 266.929394 
L 294.393396 233.402905 
L 294.662373 169.231827 
L 295.065837 137.925586 
L 295.200325 140.938396 
L 295.334814 154.373087 
L 295.469302 153.172272 
L 295.738278 195.785394 
L 295.872766 209.716315 
L 296.141743 262.935608 
L 296.276231 260.807563 
L 296.410719 255.522471 
L 296.545208 267.765651 
L 296.679696 290.827925 
L 296.814184 288.51781 
L 296.948672 279.437437 
L 297.08316 278.209007 
L 297.352137 278.019071 
L 297.486625 278.162361 
L 297.621113 278.979221 
L 297.89009 278.03251 
L 298.159066 272.857439 
L 298.293554 273.354682 
L 298.562531 270.91793 
L 298.697019 269.202696 
L 299.36946 278.885648 
L 299.503948 278.352531 
L 299.638436 275.602712 
L 299.772925 281.105048 
L 299.907413 264.790854 
L 300.176389 269.461733 
L 300.445366 265.204146 
L 300.714342 241.95629 
L 301.117807 146.545504 
L 301.386783 123.236518 
L 301.521271 126.874246 
L 301.65576 142.840825 
L 301.790248 136.228171 
L 301.924736 145.333262 
L 302.193712 199.946229 
L 302.328201 210.977553 
L 302.597177 255.673304 
L 302.731665 258.682308 
L 302.866153 255.382674 
L 303.13513 272.017712 
L 303.404106 262.160057 
L 303.538595 264.392231 
L 303.673083 263.372006 
L 304.076547 194.290049 
L 304.211036 152.717517 
L 304.480012 160.606651 
L 304.748988 147.270181 
L 304.883477 160.509789 
L 305.017965 154.059977 
L 305.152453 162.763957 
L 305.555918 219.466688 
L 305.824894 257.104471 
L 305.959382 264.055072 
L 306.093871 261.368958 
L 306.228359 269.574396 
L 306.362847 267.98183 
L 306.497335 277.456212 
L 306.631823 277.87599 
L 307.035288 260.27137 
L 307.169776 239.262802 
L 307.438753 147.77192 
L 307.707729 171.213989 
L 307.976706 144.280724 
L 308.111194 160.626807 
L 308.245682 157.047751 
L 308.38017 165.7031 
L 309.052611 262.811318 
L 309.187099 267.044898 
L 309.321588 265.32698 
L 309.456076 275.166827 
L 309.590564 274.854635 
L 309.725052 275.774593 
L 310.128517 271.011372 
L 310.263005 262.367265 
L 310.397493 237.69405 
L 310.66647 148.468169 
L 310.935446 168.348318 
L 311.069934 164.610228 
L 311.204423 146.135976 
L 311.473399 165.315308 
L 311.607887 163.893605 
L 311.742376 182.995426 
L 312.011352 231.834652 
L 312.414817 264.51476 
L 312.549305 261.468854 
L 312.683793 270.064704 
L 312.818281 269.822101 
L 312.952769 270.316621 
L 313.087258 267.623262 
L 313.221746 268.062158 
L 313.356234 267.410992 
L 313.490722 268.598457 
L 313.894187 245.677345 
L 314.028675 253.325491 
L 314.163163 253.58892 
L 314.297652 255.590378 
L 314.43214 253.59071 
L 314.701116 262.286308 
L 314.835604 263.005625 
L 315.104581 268.471357 
L 315.239069 268.269711 
L 315.373557 267.75957 
L 315.508045 269.968783 
L 315.642534 269.692525 
L 315.777022 268.873148 
L 315.91151 270.118627 
L 316.045998 270.249609 
L 316.180487 269.993011 
L 316.314975 270.260704 
L 316.449463 268.716301 
L 316.718439 269.339268 
L 316.852928 270.185783 
L 316.987416 270.178304 
L 317.121904 268.807243 
L 317.256392 269.361878 
L 317.39088 268.962156 
L 317.525369 270.001478 
L 317.659857 269.208656 
L 317.794345 271.207869 
L 318.063322 269.895502 
L 318.19781 269.61924 
L 318.332298 269.597907 
L 318.466786 268.210851 
L 318.601274 268.907194 
L 318.735763 268.14139 
L 318.870251 268.506817 
L 319.004739 267.010946 
L 319.139227 271.527605 
L 319.273715 269.471957 
L 319.408204 282.665225 
L 319.542692 281.848775 
L 319.67718 275.042204 
L 319.811668 273.879822 
L 319.946157 267.846462 
L 320.080645 251.651484 
L 320.349621 148.77814 
L 320.618598 125.256135 
L 320.753086 143.691955 
L 320.887574 143.798489 
L 321.15655 155.528716 
L 321.425527 186.47509 
L 321.560015 194.913067 
L 321.96348 265.233075 
L 322.097968 264.863985 
L 322.232456 261.48853 
L 322.366944 270.935738 
L 322.501433 270.103245 
L 322.635921 281.465387 
L 322.770409 281.688349 
L 323.308362 251.498798 
L 323.577338 150.110087 
L 323.711826 157.791981 
L 323.846315 173.937558 
L 324.115291 140.494916 
L 324.653244 186.659039 
L 325.191197 263.685744 
L 325.325685 262.224191 
L 325.460173 259.514943 
L 325.594661 269.570013 
L 325.72915 269.061681 
L 325.998126 279.068152 
L 326.267103 274.034468 
L 326.401591 265.968001 
L 326.536079 248.158319 
L 326.805055 147.735316 
L 327.074032 174.823366 
L 327.343008 144.987856 
L 327.611985 167.590673 
L 327.746473 167.580434 
L 327.880961 180.220524 
L 328.149937 227.884797 
L 328.553402 261.457487 
L 328.68789 262.161879 
L 328.822379 273.796285 
L 328.956867 272.74955 
L 329.091355 283.629908 
L 329.225843 282.21541 
L 329.629308 260.246193 
L 329.763796 247.535188 
L 330.032772 156.411541 
L 330.167261 161.843344 
L 330.301749 172.947297 
L 330.570725 151.314675 
L 330.705214 153.290043 
L 330.97419 188.390027 
L 331.108678 190.356271 
L 331.243166 196.23653 
L 331.646631 260.429233 
L 331.781119 261.90119 
L 331.915607 259.607793 
L 332.319072 282.500495 
L 332.45356 280.698877 
L 332.588049 272.27487 
L 332.722537 272.368172 
L 332.991513 246.656451 
L 333.26049 153.932858 
L 333.394978 161.205674 
L 333.529466 179.762153 
L 333.798442 152.27617 
L 334.336395 193.236561 
L 334.470883 203.833309 
L 334.874348 265.379158 
L 335.008836 264.653509 
L 335.143325 264.902983 
L 335.277813 274.468387 
L 335.546789 268.533365 
L 335.815766 266.517538 
L 336.084742 269.061208 
L 336.21923 265.370852 
L 336.488207 254.990944 
L 336.757183 249.013198 
L 336.891671 252.584538 
L 337.02616 252.883997 
L 337.429624 261.120675 
L 337.833089 266.534856 
L 337.967577 266.218533 
L 338.102065 268.597154 
L 338.236553 268.935693 
L 338.371042 267.67559 
L 338.50553 270.147649 
L 338.774506 265.353566 
L 338.908995 265.856342 
L 339.043483 264.919114 
L 339.177971 265.112497 
L 339.446947 266.934492 
L 339.581436 267.706347 
L 339.850412 266.435256 
L 339.9849 267.901812 
L 340.119388 268.037389 
L 340.388365 268.678035 
L 340.522853 270.711195 
L 340.657341 269.196748 
L 340.926318 270.939318 
L 341.060806 271.006997 
L 341.195294 267.936715 
L 341.464271 271.084347 
L 341.598759 269.749393 
L 341.733247 272.66307 
L 341.867735 272.777625 
L 342.002223 282.200932 
L 342.136712 280.659887 
L 342.2712 276.122995 
L 342.405688 276.341908 
L 342.674664 251.198025 
L 343.078129 136.603212 
L 343.347106 171.878755 
L 343.481594 161.392795 
L 343.75057 179.426649 
L 344.019547 197.59155 
L 344.154035 202.502809 
L 344.423011 258.948148 
L 344.557499 263.547542 
L 344.691988 260.676462 
L 344.826476 263.48549 
L 344.960964 273.622153 
L 345.095452 270.963026 
L 345.22994 278.976093 
L 345.364429 278.349735 
L 345.633405 273.246984 
L 345.902382 249.37417 
L 346.171358 155.954842 
L 346.440334 175.165738 
L 346.709311 158.281724 
L 346.978287 177.548517 
L 347.247264 189.104 
L 347.785217 261.164916 
L 348.054193 262.810752 
L 348.188681 273.17217 
L 348.323169 271.421085 
L 348.457658 280.609257 
L 348.592146 280.273858 
L 348.861122 275.683719 
L 349.130099 249.699309 
L 349.399075 155.866821 
L 349.533563 165.767372 
L 349.668052 165.189622 
L 349.937028 152.848769 
L 350.340493 187.177099 
L 350.474981 193.2257 
L 350.878445 250.901194 
L 351.147422 266.494736 
L 351.28191 263.817666 
L 351.416398 272.678427 
L 351.550886 273.472363 
L 351.685375 284.121279 
L 352.223328 270.939437 
L 352.357816 256.129568 
L 352.626792 153.673407 
L 352.76128 170.0709 
L 352.895769 172.799227 
L 353.030257 167.357954 
L 353.164745 153.705153 
L 353.433721 171.53156 
L 353.56821 169.479719 
L 353.702698 164.086779 
L 354.106163 256.518103 
L 354.375139 270.33836 
L 354.509627 266.411203 
L 354.778604 277.178851 
L 354.913092 280.318604 
L 355.316556 275.408455 
L 355.451045 269.328838 
L 355.585533 251.102806 
L 355.854509 174.074875 
L 355.988998 177.273684 
L 356.257974 147.606591 
L 356.392462 154.679294 
L 356.52695 170.103543 
L 356.661439 169.847175 
L 356.930415 188.751902 
L 357.199391 235.921676 
L 357.468368 271.509216 
L 357.602856 271.835823 
L 357.737344 270.161385 
L 358.006321 278.726632 
L 358.275297 275.117058 
L 358.409785 275.975892 
L 358.544274 275.854842 
L 358.81325 273.993269 
L 359.082226 254.481561 
L 359.216715 251.823837 
L 359.351203 252.156265 
L 359.485691 249.681586 
L 359.620179 244.203936 
L 359.889156 262.489005 
L 360.023644 261.250317 
L 360.427109 275.750081 
L 360.561597 274.944843 
L 360.696085 274.580647 
L 360.830573 275.258141 
L 360.965061 275.297824 
L 361.09955 277.993348 
L 361.368526 275.575692 
L 361.503014 274.758191 
L 361.637502 276.121121 
L 361.771991 275.965514 
L 361.906479 275.161995 
L 362.175455 277.673723 
L 362.444432 278.534077 
L 362.713408 274.776174 
L 363.116873 276.815597 
L 363.251361 276.307856 
L 363.385849 276.814322 
L 363.520337 277.916883 
L 363.789314 275.830638 
L 363.923802 275.626528 
L 364.05829 274.813767 
L 364.192778 280.957821 
L 364.327267 241.08373 
L 364.461755 238.552503 
L 364.596243 250.959807 
L 364.730731 248.754661 
L 364.86522 250.09738 
L 364.999708 246.344246 
L 365.268684 191.125088 
L 365.537661 115.445414 
L 365.672149 102.479319 
L 365.806637 102.432266 
L 365.941125 103.573737 
L 366.075613 108.246694 
L 366.34459 120.340612 
L 366.479078 126.493222 
L 366.613566 152.752848 
L 366.882543 242.125797 
L 367.151519 255.184212 
L 367.420496 259.775479 
L 367.689472 267.987379 
L 367.82396 263.199418 
L 368.092937 265.777777 
L 368.899866 93.210432 
L 369.034354 96.676081 
L 369.303331 83.492724 
L 369.437819 89.869279 
L 369.841283 143.080842 
L 370.11026 239.465338 
L 370.513724 252.09608 
L 370.917189 287.720056 
L 371.051677 275.188542 
L 371.186166 274.94734 
L 371.320654 273.630287 
L 371.58963 243.253093 
L 371.858607 155.810217 
L 371.993095 155.092579 
L 372.262071 212.383897 
L 372.396559 193.056603 
L 372.531048 190.334206 
L 372.800024 195.466353 
L 372.934512 205.147187 
L 373.203489 235.793569 
L 373.606953 260.818632 
L 373.741442 261.974482 
L 374.144906 295.488 
L 374.413883 283.378538 
L 374.548371 281.788533 
L 374.817347 248.439426 
L 375.086324 181.795297 
L 375.3553 172.254586 
L 375.624277 177.073675 
L 375.758765 177.20286 
L 376.162229 200.032404 
L 376.565694 254.13461 
L 376.700182 264.217859 
L 376.83467 264.739506 
L 376.969159 263.436691 
L 377.238135 286.509356 
L 377.776088 269.625765 
L 377.910576 274.877319 
L 378.045064 273.564226 
L 378.179553 270.013617 
L 378.314041 252.836339 
L 378.448529 253.557509 
L 378.583017 248.713886 
L 378.851994 256.586224 
L 378.986482 265.691929 
L 379.12097 266.079613 
L 379.255458 266.936781 
L 379.524435 272.476942 
L 379.793411 278.169258 
L 379.927899 278.353851 
L 380.062388 278.057471 
L 380.196876 276.072976 
L 380.331364 276.729244 
L 380.465852 264.554463 
L 380.60034 264.030529 
L 380.869317 269.281877 
L 381.003805 268.641073 
L 381.40727 215.319303 
L 381.541758 152.009563 
L 381.676246 141.141235 
L 381.810734 143.067665 
L 381.945223 136.061153 
L 382.079711 137.095719 
L 382.348687 150.425072 
L 382.483175 143.916026 
L 383.155616 264.375559 
L 383.290105 265.563683 
L 383.424593 263.968996 
L 383.559081 269.592959 
L 383.828058 258.298209 
L 383.962546 258.553441 
L 384.097034 257.811701 
L 384.231522 258.39792 
L 384.36601 255.215875 
L 384.500499 256.558768 
L 384.903963 154.973109 
L 385.038451 159.948528 
L 385.17294 143.568907 
L 385.307428 147.900346 
L 385.441916 171.018948 
L 385.710893 163.808754 
L 385.979869 211.110279 
L 386.383334 266.342361 
L 386.517822 264.617352 
L 386.65231 267.026395 
L 386.921286 281.950875 
L 387.055775 280.927375 
L 387.190263 273.601901 
L 387.324751 274.071641 
L 387.593727 270.943193 
L 387.728216 273.774875 
L 387.862704 272.581261 
L 387.997192 274.437971 
L 388.13168 273.253375 
L 388.266169 276.26355 
L 388.400657 276.631769 
L 388.535145 273.945613 
L 388.804121 277.080782 
L 388.93861 280.727335 
L 389.073098 277.99334 
L 389.342074 282.084795 
L 389.611051 287.061594 
L 389.880027 281.844602 
L 390.014515 286.761378 
L 390.149004 262.168476 
L 390.283492 259.529608 
L 390.41798 265.709135 
L 390.686956 261.422236 
L 390.821445 249.995266 
L 390.955933 249.769485 
L 391.090421 237.427468 
L 391.224909 178.612561 
L 391.493886 158.66546 
L 391.628374 160.143857 
L 391.89735 180.138395 
L 392.166327 169.346175 
L 392.435303 201.734589 
L 392.838768 274.228163 
L 393.107744 268.854346 
L 393.242232 274.268454 
L 393.511209 258.004061 
L 393.645697 266.449713 
L 393.780185 267.312701 
L 393.914673 256.509818 
L 394.049162 257.048921 
L 394.18365 244.978762 
L 394.587115 155.217593 
L 394.721603 156.237814 
L 394.856091 143.972455 
L 394.990579 144.310835 
L 395.259556 148.922658 
L 395.66302 200.462954 
L 396.066485 257.223296 
L 396.200973 261.019229 
L 396.335461 259.265952 
L 396.46995 259.61156 
L 396.604438 289.531835 
L 396.738926 291.849515 
L 396.873414 279.0702 
L 397.007902 278.437563 
L 397.142391 279.471856 
L 397.411367 252.162064 
L 397.680343 166.390415 
L 397.814832 174.921613 
L 398.218296 149.161254 
L 398.352785 167.599753 
L 398.487273 166.818629 
L 398.487273 166.818629 
" clip-path="url(#p4361f409a0)" style="fill: none; stroke: #ff7f0e; stroke-width: 1.5; stroke-linecap: square"/>
   </g>
   <g id="patch_3">
    <path d="M 57.6 307.584 
L 57.6 41.472 
" style="fill: none; stroke: #000000; stroke-width: 0.8; stroke-linejoin: miter; stroke-linecap: square"/>
   </g>
   <g id="patch_4">
    <path d="M 414.72 307.584 
L 414.72 41.472 
" style="fill: none; stroke: #000000; stroke-width: 0.8; stroke-linejoin: miter; stroke-linecap: square"/>
   </g>
   <g id="patch_5">
    <path d="M 57.6 307.584 
L 414.72 307.584 
" style="fill: none; stroke: #000000; stroke-width: 0.8; stroke-linejoin: miter; stroke-linecap: square"/>
   </g>
   <g id="patch_6">
    <path d="M 57.6 41.472 
L 414.72 41.472 
" style="fill: none; stroke: #000000; stroke-width: 0.8; stroke-linejoin: miter; stroke-linecap: square"/>
   </g>
  </g>
 </g>
 <defs>
  <clipPath id="p4361f409a0">
   <rect x="57.6" y="41.472" width="357.12" height="266.112"/>
  </clipPath>
 </defs>
</svg>
