<?xml version="1.0" encoding="utf-8" standalone="no"?>
<!DOCTYPE svg PUBLIC "-//W3C//DTD SVG 1.1//EN"
  "http://www.w3.org/Graphics/SVG/1.1/DTD/svg11.dtd">
<svg xmlns:xlink="http://www.w3.org/1999/xlink" width="460.8pt" height="345.6pt" viewBox="0 0 460.8 345.6" xmlns="http://www.w3.org/2000/svg" version="1.1">
 <metadata>
  <rdf:RDF xmlns:dc="http://purl.org/dc/elements/1.1/" xmlns:cc="http://creativecommons.org/ns#" xmlns:rdf="http://www.w3.org/1999/02/22-rdf-syntax-ns#">
   <cc:Work>
    <dc:type rdf:resource="http://purl.org/dc/dcmitype/StillImage"/>
    <dc:date>2023-04-04T07:11:05.750249</dc:date>
    <dc:format>image/svg+xml</dc:format>
    <dc:creator>
     <cc:Agent>
      <dc:title>Matplotlib v3.5.2, https://matplotlib.org/</dc:title>
     </cc:Agent>
    </dc:creator>
   </cc:Work>
  </rdf:RDF>
 </metadata>
 <defs>
  <style type="text/css">*{stroke-linejoin: round; stroke-linecap: butt}</style>
 </defs>
 <g id="figure_1">
  <g id="patch_1">
   <path d="M 0 345.6 
L 460.8 345.6 
L 460.8 0 
L 0 0 
z
" style="fill: #ffffff"/>
  </g>
  <g id="axes_1">
   <g id="patch_2">
    <path d="M 57.6 307.584 
L 414.72 307.584 
L 414.72 41.472 
L 57.6 41.472 
z
" style="fill: #ffffff"/>
   </g>
   <g id="matplotlib.axis_1">
    <g id="xtick_1">
     <g id="line2d_1">
      <defs>
       <path id="m4ac213559c" d="M 0 0 
L 0 3.5 
" style="stroke: #000000; stroke-width: 0.8"/>
      </defs>
      <g>
       <use xlink:href="#m4ac213559c" x="73.832727" y="307.584" style="stroke: #000000; stroke-width: 0.8"/>
      </g>
     </g>
     <g id="text_1">
      <!-- 0 -->
      <g transform="translate(70.651477 322.182437)scale(0.1 -0.1)">
       <defs>
        <path id="DejaVuSans-30" d="M 2034 4250 
Q 1547 4250 1301 3770 
Q 1056 3291 1056 2328 
Q 1056 1369 1301 889 
Q 1547 409 2034 409 
Q 2525 409 2770 889 
Q 3016 1369 3016 2328 
Q 3016 3291 2770 3770 
Q 2525 4250 2034 4250 
z
M 2034 4750 
Q 2819 4750 3233 4129 
Q 3647 3509 3647 2328 
Q 3647 1150 3233 529 
Q 2819 -91 2034 -91 
Q 1250 -91 836 529 
Q 422 1150 422 2328 
Q 422 3509 836 4129 
Q 1250 4750 2034 4750 
z
" transform="scale(0.015625)"/>
       </defs>
       <use xlink:href="#DejaVuSans-30"/>
      </g>
     </g>
    </g>
    <g id="xtick_2">
     <g id="line2d_2">
      <g>
       <use xlink:href="#m4ac213559c" x="141.076834" y="307.584" style="stroke: #000000; stroke-width: 0.8"/>
      </g>
     </g>
     <g id="text_2">
      <!-- 500 -->
      <g transform="translate(131.533084 322.182437)scale(0.1 -0.1)">
       <defs>
        <path id="DejaVuSans-35" d="M 691 4666 
L 3169 4666 
L 3169 4134 
L 1269 4134 
L 1269 2991 
Q 1406 3038 1543 3061 
Q 1681 3084 1819 3084 
Q 2600 3084 3056 2656 
Q 3513 2228 3513 1497 
Q 3513 744 3044 326 
Q 2575 -91 1722 -91 
Q 1428 -91 1123 -41 
Q 819 9 494 109 
L 494 744 
Q 775 591 1075 516 
Q 1375 441 1709 441 
Q 2250 441 2565 725 
Q 2881 1009 2881 1497 
Q 2881 1984 2565 2268 
Q 2250 2553 1709 2553 
Q 1456 2553 1204 2497 
Q 953 2441 691 2322 
L 691 4666 
z
" transform="scale(0.015625)"/>
       </defs>
       <use xlink:href="#DejaVuSans-35"/>
       <use xlink:href="#DejaVuSans-30" x="63.623047"/>
       <use xlink:href="#DejaVuSans-30" x="127.246094"/>
      </g>
     </g>
    </g>
    <g id="xtick_3">
     <g id="line2d_3">
      <g>
       <use xlink:href="#m4ac213559c" x="208.32094" y="307.584" style="stroke: #000000; stroke-width: 0.8"/>
      </g>
     </g>
     <g id="text_3">
      <!-- 1000 -->
      <g transform="translate(195.59594 322.182437)scale(0.1 -0.1)">
       <defs>
        <path id="DejaVuSans-31" d="M 794 531 
L 1825 531 
L 1825 4091 
L 703 3866 
L 703 4441 
L 1819 4666 
L 2450 4666 
L 2450 531 
L 3481 531 
L 3481 0 
L 794 0 
L 794 531 
z
" transform="scale(0.015625)"/>
       </defs>
       <use xlink:href="#DejaVuSans-31"/>
       <use xlink:href="#DejaVuSans-30" x="63.623047"/>
       <use xlink:href="#DejaVuSans-30" x="127.246094"/>
       <use xlink:href="#DejaVuSans-30" x="190.869141"/>
      </g>
     </g>
    </g>
    <g id="xtick_4">
     <g id="line2d_4">
      <g>
       <use xlink:href="#m4ac213559c" x="275.565046" y="307.584" style="stroke: #000000; stroke-width: 0.8"/>
      </g>
     </g>
     <g id="text_4">
      <!-- 1500 -->
      <g transform="translate(262.840046 322.182437)scale(0.1 -0.1)">
       <use xlink:href="#DejaVuSans-31"/>
       <use xlink:href="#DejaVuSans-35" x="63.623047"/>
       <use xlink:href="#DejaVuSans-30" x="127.246094"/>
       <use xlink:href="#DejaVuSans-30" x="190.869141"/>
      </g>
     </g>
    </g>
    <g id="xtick_5">
     <g id="line2d_5">
      <g>
       <use xlink:href="#m4ac213559c" x="342.809153" y="307.584" style="stroke: #000000; stroke-width: 0.8"/>
      </g>
     </g>
     <g id="text_5">
      <!-- 2000 -->
      <g transform="translate(330.084153 322.182437)scale(0.1 -0.1)">
       <defs>
        <path id="DejaVuSans-32" d="M 1228 531 
L 3431 531 
L 3431 0 
L 469 0 
L 469 531 
Q 828 903 1448 1529 
Q 2069 2156 2228 2338 
Q 2531 2678 2651 2914 
Q 2772 3150 2772 3378 
Q 2772 3750 2511 3984 
Q 2250 4219 1831 4219 
Q 1534 4219 1204 4116 
Q 875 4013 500 3803 
L 500 4441 
Q 881 4594 1212 4672 
Q 1544 4750 1819 4750 
Q 2544 4750 2975 4387 
Q 3406 4025 3406 3419 
Q 3406 3131 3298 2873 
Q 3191 2616 2906 2266 
Q 2828 2175 2409 1742 
Q 1991 1309 1228 531 
z
" transform="scale(0.015625)"/>
       </defs>
       <use xlink:href="#DejaVuSans-32"/>
       <use xlink:href="#DejaVuSans-30" x="63.623047"/>
       <use xlink:href="#DejaVuSans-30" x="127.246094"/>
       <use xlink:href="#DejaVuSans-30" x="190.869141"/>
      </g>
     </g>
    </g>
    <g id="xtick_6">
     <g id="line2d_6">
      <g>
       <use xlink:href="#m4ac213559c" x="410.053259" y="307.584" style="stroke: #000000; stroke-width: 0.8"/>
      </g>
     </g>
     <g id="text_6">
      <!-- 2500 -->
      <g transform="translate(397.328259 322.182437)scale(0.1 -0.1)">
       <use xlink:href="#DejaVuSans-32"/>
       <use xlink:href="#DejaVuSans-35" x="63.623047"/>
       <use xlink:href="#DejaVuSans-30" x="127.246094"/>
       <use xlink:href="#DejaVuSans-30" x="190.869141"/>
      </g>
     </g>
    </g>
   </g>
   <g id="matplotlib.axis_2">
    <g id="ytick_1">
     <g id="line2d_7">
      <defs>
       <path id="mac84d29a27" d="M 0 0 
L -3.5 0 
" style="stroke: #000000; stroke-width: 0.8"/>
      </defs>
      <g>
       <use xlink:href="#mac84d29a27" x="57.6" y="279.027994" style="stroke: #000000; stroke-width: 0.8"/>
      </g>
     </g>
     <g id="text_7">
      <!-- 100 -->
      <g transform="translate(31.5125 282.827213)scale(0.1 -0.1)">
       <use xlink:href="#DejaVuSans-31"/>
       <use xlink:href="#DejaVuSans-30" x="63.623047"/>
       <use xlink:href="#DejaVuSans-30" x="127.246094"/>
      </g>
     </g>
    </g>
    <g id="ytick_2">
     <g id="line2d_8">
      <g>
       <use xlink:href="#mac84d29a27" x="57.6" y="231.520626" style="stroke: #000000; stroke-width: 0.8"/>
      </g>
     </g>
     <g id="text_8">
      <!-- 200 -->
      <g transform="translate(31.5125 235.319844)scale(0.1 -0.1)">
       <use xlink:href="#DejaVuSans-32"/>
       <use xlink:href="#DejaVuSans-30" x="63.623047"/>
       <use xlink:href="#DejaVuSans-30" x="127.246094"/>
      </g>
     </g>
    </g>
    <g id="ytick_3">
     <g id="line2d_9">
      <g>
       <use xlink:href="#mac84d29a27" x="57.6" y="184.013257" style="stroke: #000000; stroke-width: 0.8"/>
      </g>
     </g>
     <g id="text_9">
      <!-- 300 -->
      <g transform="translate(31.5125 187.812476)scale(0.1 -0.1)">
       <defs>
        <path id="DejaVuSans-33" d="M 2597 2516 
Q 3050 2419 3304 2112 
Q 3559 1806 3559 1356 
Q 3559 666 3084 287 
Q 2609 -91 1734 -91 
Q 1441 -91 1130 -33 
Q 819 25 488 141 
L 488 750 
Q 750 597 1062 519 
Q 1375 441 1716 441 
Q 2309 441 2620 675 
Q 2931 909 2931 1356 
Q 2931 1769 2642 2001 
Q 2353 2234 1838 2234 
L 1294 2234 
L 1294 2753 
L 1863 2753 
Q 2328 2753 2575 2939 
Q 2822 3125 2822 3475 
Q 2822 3834 2567 4026 
Q 2313 4219 1838 4219 
Q 1578 4219 1281 4162 
Q 984 4106 628 3988 
L 628 4550 
Q 988 4650 1302 4700 
Q 1616 4750 1894 4750 
Q 2613 4750 3031 4423 
Q 3450 4097 3450 3541 
Q 3450 3153 3228 2886 
Q 3006 2619 2597 2516 
z
" transform="scale(0.015625)"/>
       </defs>
       <use xlink:href="#DejaVuSans-33"/>
       <use xlink:href="#DejaVuSans-30" x="63.623047"/>
       <use xlink:href="#DejaVuSans-30" x="127.246094"/>
      </g>
     </g>
    </g>
    <g id="ytick_4">
     <g id="line2d_10">
      <g>
       <use xlink:href="#mac84d29a27" x="57.6" y="136.505889" style="stroke: #000000; stroke-width: 0.8"/>
      </g>
     </g>
     <g id="text_10">
      <!-- 400 -->
      <g transform="translate(31.5125 140.305107)scale(0.1 -0.1)">
       <defs>
        <path id="DejaVuSans-34" d="M 2419 4116 
L 825 1625 
L 2419 1625 
L 2419 4116 
z
M 2253 4666 
L 3047 4666 
L 3047 1625 
L 3713 1625 
L 3713 1100 
L 3047 1100 
L 3047 0 
L 2419 0 
L 2419 1100 
L 313 1100 
L 313 1709 
L 2253 4666 
z
" transform="scale(0.015625)"/>
       </defs>
       <use xlink:href="#DejaVuSans-34"/>
       <use xlink:href="#DejaVuSans-30" x="63.623047"/>
       <use xlink:href="#DejaVuSans-30" x="127.246094"/>
      </g>
     </g>
    </g>
    <g id="ytick_5">
     <g id="line2d_11">
      <g>
       <use xlink:href="#mac84d29a27" x="57.6" y="88.99852" style="stroke: #000000; stroke-width: 0.8"/>
      </g>
     </g>
     <g id="text_11">
      <!-- 500 -->
      <g transform="translate(31.5125 92.797739)scale(0.1 -0.1)">
       <use xlink:href="#DejaVuSans-35"/>
       <use xlink:href="#DejaVuSans-30" x="63.623047"/>
       <use xlink:href="#DejaVuSans-30" x="127.246094"/>
      </g>
     </g>
    </g>
    <g id="ytick_6">
     <g id="line2d_12">
      <g>
       <use xlink:href="#mac84d29a27" x="57.6" y="41.491152" style="stroke: #000000; stroke-width: 0.8"/>
      </g>
     </g>
     <g id="text_12">
      <!-- 600 -->
      <g transform="translate(31.5125 45.290371)scale(0.1 -0.1)">
       <defs>
        <path id="DejaVuSans-36" d="M 2113 2584 
Q 1688 2584 1439 2293 
Q 1191 2003 1191 1497 
Q 1191 994 1439 701 
Q 1688 409 2113 409 
Q 2538 409 2786 701 
Q 3034 994 3034 1497 
Q 3034 2003 2786 2293 
Q 2538 2584 2113 2584 
z
M 3366 4563 
L 3366 3988 
Q 3128 4100 2886 4159 
Q 2644 4219 2406 4219 
Q 1781 4219 1451 3797 
Q 1122 3375 1075 2522 
Q 1259 2794 1537 2939 
Q 1816 3084 2150 3084 
Q 2853 3084 3261 2657 
Q 3669 2231 3669 1497 
Q 3669 778 3244 343 
Q 2819 -91 2113 -91 
Q 1303 -91 875 529 
Q 447 1150 447 2328 
Q 447 3434 972 4092 
Q 1497 4750 2381 4750 
Q 2619 4750 2861 4703 
Q 3103 4656 3366 4563 
z
" transform="scale(0.015625)"/>
       </defs>
       <use xlink:href="#DejaVuSans-36"/>
       <use xlink:href="#DejaVuSans-30" x="63.623047"/>
       <use xlink:href="#DejaVuSans-30" x="127.246094"/>
      </g>
     </g>
    </g>
   </g>
   <g id="line2d_13">
    <path d="M 73.832727 282.079867 
L 74.101704 281.534008 
L 74.236192 280.430412 
L 74.37068 281.38816 
L 74.505168 280.898834 
L 74.639657 281.496952 
L 74.774145 275.066355 
L 74.908633 248.123026 
L 75.177609 246.63937 
L 75.312098 247.191406 
L 75.446586 247.243664 
L 75.581074 248.104973 
L 75.715562 247.353406 
L 75.85005 247.331553 
L 76.253515 242.377484 
L 76.522492 276.221259 
L 76.65698 276.532432 
L 76.925956 274.836419 
L 77.060444 266.036154 
L 77.194933 268.265675 
L 77.463909 268.32886 
L 77.598397 269.903254 
L 77.732885 264.610458 
L 77.867374 251.287491 
L 78.405327 103.79089 
L 78.674303 102.874948 
L 78.808791 109.968273 
L 78.943279 105.195682 
L 79.481232 157.563055 
L 79.750209 227.497227 
L 80.019185 262.000878 
L 80.153673 264.11163 
L 80.288161 260.301064 
L 80.42265 270.631542 
L 80.557138 270.1997 
L 80.826114 272.691461 
L 80.960603 270.167395 
L 81.095091 259.91863 
L 81.364067 167.6864 
L 81.498555 179.909571 
L 81.767532 160.62728 
L 82.036508 168.579538 
L 82.170996 165.49821 
L 82.305485 159.561215 
L 83.112414 259.443556 
L 83.650367 285.461917 
L 83.784855 285.482345 
L 83.919343 287.001156 
L 84.053831 287.192135 
L 84.18832 285.108462 
L 84.322808 277.929624 
L 84.726273 188.367307 
L 84.860761 179.757072 
L 84.995249 183.827503 
L 85.129737 169.039885 
L 85.264225 177.527551 
L 85.398714 178.270091 
L 85.66769 186.51357 
L 85.802178 195.227847 
L 86.340131 261.555734 
L 86.474619 263.555794 
L 86.609107 268.434801 
L 86.878084 285.841501 
L 87.012572 288.078148 
L 87.14706 287.753672 
L 87.281549 289.234952 
L 87.416037 289.138512 
L 87.550525 288.332312 
L 87.819501 261.003698 
L 87.95399 261.148596 
L 88.088478 255.498545 
L 88.222966 256.948945 
L 88.357454 256.195953 
L 88.491942 252.859035 
L 88.626431 255.675747 
L 88.760919 248.726369 
L 88.895407 251.585363 
L 89.029895 251.583937 
L 89.164384 254.128432 
L 89.43336 275.29344 
L 89.567848 276.946221 
L 89.702336 276.451194 
L 89.836825 277.504433 
L 89.971313 262.451723 
L 90.105801 263.160533 
L 90.240289 264.695021 
L 90.374777 264.466035 
L 90.509266 265.694101 
L 90.643754 265.864652 
L 90.778242 267.950701 
L 90.91273 264.748229 
L 91.047218 254.872873 
L 91.181707 253.709417 
L 91.316195 246.822274 
L 91.450683 251.228582 
L 91.585171 249.275079 
L 91.71966 250.76396 
L 91.854148 250.98867 
L 92.123124 253.952655 
L 92.257612 253.383517 
L 92.526589 258.943304 
L 92.795565 265.498846 
L 92.930053 266.448043 
L 93.064542 265.314517 
L 93.19903 275.270161 
L 93.468006 275.394155 
L 93.602495 276.448344 
L 93.736983 275.221704 
L 93.871471 272.71379 
L 94.005959 267.525985 
L 94.6784 160.912799 
L 94.812888 156.541171 
L 95.081865 168.332025 
L 95.216353 163.145646 
L 95.350841 151.944358 
L 96.023282 263.880745 
L 96.157771 264.606182 
L 96.426747 268.511288 
L 96.561235 268.179686 
L 96.695723 268.256648 
L 96.830212 270.128914 
L 96.9647 269.49469 
L 97.099188 268.07517 
L 97.233676 259.654489 
L 97.368164 242.18888 
L 97.502653 201.393828 
L 97.637141 194.337083 
L 97.771629 178.949922 
L 97.906117 187.299342 
L 98.040606 180.623131 
L 98.175094 181.329091 
L 98.309582 176.039145 
L 98.44407 177.672449 
L 98.713047 188.979202 
L 98.982023 230.695423 
L 99.250999 265.354423 
L 99.385488 270.015371 
L 99.519976 270.765512 
L 99.654464 280.51735 
L 99.788952 280.529702 
L 99.923441 279.533947 
L 100.192417 280.765338 
L 100.326905 280.845626 
L 100.461393 280.1943 
L 100.595882 280.598113 
L 100.73037 281.422365 
L 100.864858 279.892153 
L 100.999346 281.041831 
L 101.133834 280.138716 
L 101.268323 277.935325 
L 101.402811 270.947941 
L 101.537299 275.197 
L 101.806276 264.866998 
L 101.940764 267.016231 
L 102.075252 266.868483 
L 102.20974 267.513158 
L 102.344228 269.879025 
L 102.478717 275.665898 
L 102.613205 273.823562 
L 102.747693 279.463161 
L 102.882181 266.07796 
L 103.016669 266.106465 
L 103.151158 270.986422 
L 103.285646 270.768363 
L 103.554622 266.610043 
L 103.68911 262.444122 
L 103.823599 245.112009 
L 104.092575 183.178553 
L 104.227063 161.810689 
L 104.361552 168.936794 
L 104.630528 144.195906 
L 105.033993 159.431044 
L 105.168481 170.152982 
L 105.706434 252.770671 
L 105.840922 252.649053 
L 105.97541 261.301095 
L 106.109898 277.645055 
L 106.378875 280.817121 
L 106.513363 280.803344 
L 106.647851 282.948777 
L 106.782339 282.681786 
L 106.916828 283.787282 
L 107.320292 246.417511 
L 107.45478 253.443376 
L 107.589269 250.92311 
L 107.723757 251.015274 
L 108.26171 245.979493 
L 108.396198 242.590793 
L 108.530686 244.838366 
L 108.934151 276.278268 
L 109.068639 277.785201 
L 109.203127 276.723887 
L 109.337615 272.252493 
L 109.606592 273.792682 
L 109.875568 274.839269 
L 110.144545 275.882531 
L 110.413521 274.651615 
L 110.548009 274.517644 
L 110.951474 270.490445 
L 111.085962 271.657226 
L 111.22045 271.311847 
L 111.623915 265.549203 
L 111.758403 266.054207 
L 112.02738 269.81394 
L 112.430844 271.402111 
L 112.565333 261.220807 
L 112.834309 265.395755 
L 112.968797 265.91596 
L 113.103285 267.415768 
L 113.237774 267.59297 
L 113.50675 270.193524 
L 113.641238 271.018252 
L 114.313679 259.858296 
L 114.448168 259.499615 
L 114.582656 258.027362 
L 114.98612 247.269318 
L 115.524073 258.256822 
L 115.658561 258.803157 
L 115.927538 261.013675 
L 116.062026 259.738577 
L 116.196514 265.793866 
L 116.331002 265.379602 
L 116.465491 265.986271 
L 116.599979 256.299044 
L 117.137932 78.940735 
L 117.406908 64.347897 
L 117.810373 80.764543 
L 118.213837 147.466314 
L 118.482814 209.342761 
L 118.75179 243.519562 
L 118.886279 245.042173 
L 119.289743 252.976853 
L 119.424231 254.384497 
L 119.55872 257.135173 
L 119.693208 257.449672 
L 119.827696 247.904967 
L 120.365649 91.703115 
L 120.634625 73.274056 
L 120.769114 76.9383 
L 120.903602 70.566136 
L 121.03809 71.884466 
L 121.441555 134.847882 
L 121.710531 201.186221 
L 121.845019 229.158559 
L 122.248484 240.042497 
L 122.51746 255.443911 
L 122.651948 255.602111 
L 122.786437 257.328053 
L 122.920925 255.997372 
L 123.055413 247.896891 
L 123.727854 60.420463 
L 123.862342 53.568 
L 124.534783 107.300734 
L 125.072736 247.203283 
L 125.207225 252.335979 
L 125.341713 252.79585 
L 125.476201 252.749768 
L 125.745177 266.248987 
L 125.879666 267.675158 
L 126.014154 267.903194 
L 126.28313 254.551248 
L 126.821083 92.800535 
L 126.955571 74.584785 
L 127.09006 81.134151 
L 127.359036 105.490703 
L 127.493524 107.915479 
L 127.762501 126.276127 
L 127.896989 148.910538 
L 128.300453 245.597534 
L 128.434942 251.356852 
L 128.56943 249.543021 
L 128.703918 256.988851 
L 128.838406 257.707637 
L 129.241871 264.351543 
L 129.510847 243.793204 
L 130.0488 83.291935 
L 130.183288 74.250333 
L 130.317777 86.081093 
L 130.452265 114.692881 
L 130.586753 113.781214 
L 130.721241 110.160678 
L 130.855729 116.503861 
L 131.124706 169.385263 
L 131.393682 234.547795 
L 131.662659 257.479127 
L 131.931635 257.284347 
L 132.066123 257.103343 
L 132.3351 268.292279 
L 132.469588 268.145006 
L 132.604076 268.243346 
L 132.738564 268.202015 
L 133.007541 256.398334 
L 133.276517 246.015599 
L 133.679982 240.478615 
L 133.81447 239.305183 
L 133.948958 234.243748 
L 134.486911 244.047844 
L 134.755888 251.08226 
L 134.890376 250.968242 
L 135.697305 265.105485 
L 135.831793 269.820591 
L 135.966282 270.42536 
L 136.10077 268.457605 
L 136.235258 269.949811 
L 136.369746 269.677594 
L 136.504234 265.410007 
L 136.638723 265.252282 
L 136.907699 263.332035 
L 137.311164 252.530284 
L 137.445652 253.036238 
L 137.58014 250.373925 
L 137.983605 257.136124 
L 138.118093 256.241085 
L 138.252581 258.062042 
L 138.387069 262.520134 
L 138.521558 261.296344 
L 138.656046 261.495875 
L 138.925022 266.155873 
L 139.193999 250.034247 
L 139.731951 81.451975 
L 139.86644 72.601827 
L 140.269904 98.416856 
L 140.538881 122.661291 
L 140.673369 129.699033 
L 140.807857 143.951719 
L 141.076834 223.461951 
L 141.480298 256.403085 
L 142.018251 264.778634 
L 142.152739 264.318288 
L 142.421716 240.759384 
L 142.959669 91.375789 
L 143.094157 84.014997 
L 143.228645 83.530897 
L 143.363133 93.680371 
L 143.497621 84.475344 
L 143.63211 89.563858 
L 144.573527 257.641602 
L 144.708015 261.105364 
L 144.842504 261.279716 
L 145.11148 263.505436 
L 145.245968 265.632816 
L 145.380456 261.585189 
L 145.783921 200.872197 
L 146.052897 109.859956 
L 146.187386 90.880762 
L 146.456362 106.080745 
L 146.59085 117.319088 
L 146.725339 111.670462 
L 146.859827 119.029828 
L 146.994315 113.989771 
L 147.128803 126.755001 
L 147.532268 233.241342 
L 147.801244 259.068723 
L 147.935732 259.269679 
L 148.204709 264.504041 
L 148.339197 264.482663 
L 148.473685 264.982916 
L 148.742662 263.936803 
L 148.87715 246.370954 
L 149.280615 118.894907 
L 149.415103 114.882435 
L 149.549591 105.859835 
L 149.684079 107.107379 
L 150.087544 139.605745 
L 150.222032 131.963234 
L 150.35652 137.447485 
L 150.894473 251.53833 
L 151.028961 260.651194 
L 151.16345 259.699621 
L 151.835891 267.822431 
L 151.970379 266.55826 
L 152.104867 245.743382 
L 152.508332 112.923706 
L 152.64282 116.012635 
L 152.911796 104.235083 
L 153.046285 118.293939 
L 153.180773 116.802683 
L 153.449749 151.055495 
L 153.718726 191.740806 
L 153.987702 248.003782 
L 154.12219 264.94586 
L 154.256678 266.315972 
L 154.525655 270.153618 
L 154.794631 271.84678 
L 155.063608 274.772759 
L 155.198096 276.404162 
L 155.332584 275.764713 
L 155.467072 271.411613 
L 155.601561 261.002273 
L 155.736049 260.146665 
L 155.870537 257.299549 
L 156.005025 259.425029 
L 156.274002 257.539936 
L 156.40849 258.072969 
L 156.542978 259.318612 
L 156.677466 258.129503 
L 157.215419 266.087937 
L 157.349907 268.081346 
L 157.484396 267.095568 
L 157.618884 267.860912 
L 157.88786 271.016826 
L 158.022348 271.494751 
L 158.291325 274.474888 
L 158.560301 278.729173 
L 158.694789 277.172831 
L 158.829278 278.131055 
L 158.963766 277.737219 
L 159.232742 275.040225 
L 159.367231 275.320519 
L 159.501719 273.349438 
L 160.039672 259.355193 
L 160.308648 259.612683 
L 160.443136 265.295514 
L 160.577624 265.013795 
L 160.712113 263.070744 
L 160.846601 263.768152 
L 160.981089 265.250857 
L 161.250066 268.983986 
L 161.519042 269.929383 
L 161.788018 253.271399 
L 162.460459 83.715226 
L 162.594948 83.380774 
L 162.729436 81.930849 
L 162.998412 101.397943 
L 163.132901 110.286572 
L 163.401877 151.292082 
L 163.670853 221.574958 
L 164.074318 255.449137 
L 164.208806 256.575062 
L 164.477783 269.150262 
L 164.612271 271.496651 
L 164.746759 266.824301 
L 165.015735 249.426153 
L 165.4192 120.497331 
L 165.553688 123.079831 
L 165.822665 109.275615 
L 165.957153 114.497625 
L 166.091641 111.43245 
L 166.360618 100.051585 
L 166.495106 106.205689 
L 166.89857 220.681344 
L 167.033059 227.608394 
L 167.302035 245.880203 
L 167.974476 264.226123 
L 168.108964 258.588899 
L 168.243453 244.666865 
L 168.377941 206.834847 
L 168.646917 106.032762 
L 168.781405 107.307385 
L 168.915894 102.810813 
L 169.050382 104.102538 
L 169.18487 107.873673 
L 169.319358 92.644711 
L 169.453847 95.107018 
L 169.857311 148.139018 
L 170.126288 225.833043 
L 170.395264 256.450117 
L 170.529752 257.324253 
L 170.66424 260.739082 
L 170.798729 260.927212 
L 171.067705 263.239395 
L 171.202193 266.055632 
L 171.47117 244.408424 
L 172.009123 110.068988 
L 172.143611 108.50267 
L 172.412587 96.821084 
L 172.95054 129.112792 
L 173.622981 258.406946 
L 173.757469 262.370485 
L 173.891958 275.664472 
L 174.026446 274.741404 
L 174.160934 274.697697 
L 174.42991 276.218883 
L 174.698887 261.522954 
L 174.833375 244.50914 
L 175.102351 176.427756 
L 175.371328 143.268088 
L 175.505816 140.386766 
L 175.640304 150.488257 
L 175.774792 150.179935 
L 175.909281 151.579977 
L 176.043769 156.356368 
L 176.178257 156.05042 
L 176.312745 170.432801 
L 176.581722 237.668554 
L 176.850698 264.62471 
L 176.985186 262.146251 
L 177.254163 266.85138 
L 177.388651 266.808149 
L 177.792116 273.32616 
L 177.926604 274.211222 
L 178.19558 263.561495 
L 178.330069 263.123952 
L 178.599045 255.603536 
L 178.733533 255.041524 
L 178.868021 257.335654 
L 179.136998 253.846713 
L 179.271486 254.43913 
L 179.540462 251.968272 
L 179.809439 259.429779 
L 179.943927 266.657075 
L 180.212904 264.766757 
L 180.48188 274.576079 
L 180.616368 274.589856 
L 180.750856 274.959938 
L 180.885345 275.786566 
L 181.019833 275.872555 
L 181.692274 263.633706 
L 181.826762 264.922106 
L 181.96125 258.972758 
L 182.095738 260.744783 
L 182.364715 266.152072 
L 182.499203 267.422894 
L 182.633691 270.552679 
L 182.902668 269.739353 
L 183.171644 275.835499 
L 183.306132 277.243617 
L 183.440621 276.140021 
L 183.575109 273.851116 
L 183.844085 285.517976 
L 183.978573 286.463847 
L 184.113062 284.197746 
L 184.382038 272.87579 
L 184.919991 181.662117 
L 185.054479 185.655112 
L 185.188967 178.622121 
L 185.457944 182.460716 
L 185.592432 183.951498 
L 185.995897 221.494671 
L 186.264873 251.92029 
L 186.53385 267.588695 
L 186.802826 277.785201 
L 187.071802 288.22352 
L 187.206291 287.079543 
L 187.340779 288.207368 
L 187.475267 285.047653 
L 187.609755 277.093969 
L 188.01322 201.609036 
L 188.147708 185.301182 
L 188.282196 185.518766 
L 188.416684 184.565768 
L 188.551173 187.859454 
L 188.685661 194.225441 
L 188.820149 189.838136 
L 188.954637 194.24872 
L 189.089126 202.574861 
L 189.627078 264.232299 
L 189.761567 266.806723 
L 189.896055 272.013531 
L 190.030543 269.59113 
L 190.299519 271.412563 
L 190.434008 270.247682 
L 190.971961 273.653485 
L 191.106449 270.220128 
L 191.240937 269.737453 
L 191.375425 270.173571 
L 191.509913 265.769163 
L 191.644402 267.309826 
L 191.913378 266.050881 
L 192.182354 260.445487 
L 192.316843 260.792291 
L 192.451331 260.296789 
L 192.585819 261.610368 
L 192.720307 267.348783 
L 192.989284 268.599652 
L 193.392748 265.926887 
L 193.661725 268.793482 
L 193.796213 269.325089 
L 194.065189 261.480672 
L 194.603142 158.292293 
L 194.73763 153.40711 
L 194.872119 143.50895 
L 195.006607 145.076218 
L 195.141095 149.79465 
L 195.275583 142.435758 
L 195.54456 155.7573 
L 195.948024 249.27888 
L 196.217001 259.559949 
L 196.351489 261.476397 
L 196.485977 270.899008 
L 196.620465 270.250058 
L 196.889442 270.803993 
L 197.02393 271.926593 
L 197.158418 270.205876 
L 197.292907 263.9178 
L 197.830859 195.565149 
L 197.965348 197.864505 
L 198.099836 194.564169 
L 198.234324 198.944823 
L 198.5033 185.689792 
L 198.772277 199.417046 
L 199.31023 271.571713 
L 199.713694 280.636118 
L 199.848183 279.473613 
L 200.117159 280.197625 
L 200.251647 278.4237 
L 200.386135 272.675309 
L 200.520624 272.274347 
L 200.655112 259.384647 
L 200.7896 212.410787 
L 200.924088 210.451108 
L 201.058576 198.828905 
L 201.193065 198.4726 
L 201.327553 195.801736 
L 201.462041 197.962846 
L 201.731018 186.2252 
L 201.865506 187.57916 
L 202.134482 210.154662 
L 202.403459 263.345337 
L 202.806923 273.092423 
L 203.0759 264.665566 
L 203.210388 268.969734 
L 203.344876 269.095153 
L 203.748341 259.768032 
L 203.882829 242.472499 
L 204.151805 180.83834 
L 204.420782 164.453048 
L 204.55527 158.85383 
L 204.689758 162.27246 
L 204.824246 155.807182 
L 204.958735 171.74638 
L 205.093223 171.991518 
L 205.765664 259.190342 
L 205.900152 259.698671 
L 206.03464 263.478832 
L 206.169129 278.249823 
L 206.303617 278.728223 
L 206.572593 282.646155 
L 206.84157 283.453305 
L 207.110546 274.114307 
L 207.379522 264.97959 
L 207.514011 264.106405 
L 207.917475 272.181707 
L 208.051964 271.936569 
L 208.32094 265.609063 
L 208.589916 267.20246 
L 208.858893 275.211727 
L 208.993381 278.846041 
L 209.127869 279.426581 
L 209.262357 278.885472 
L 209.396846 273.061544 
L 209.531334 274.153263 
L 209.80031 273.740424 
L 209.934799 274.726202 
L 210.203775 262.608972 
L 211.010704 108.297439 
L 211.279681 133.785142 
L 211.683145 166.712499 
L 212.221098 253.892796 
L 212.355586 256.343701 
L 212.759051 271.504727 
L 212.893539 271.298545 
L 213.028027 271.398311 
L 213.162516 274.033544 
L 213.431492 256.422088 
L 213.56598 218.540187 
L 213.834957 135.057389 
L 213.969445 139.619047 
L 214.103933 138.533503 
L 214.238421 141.479435 
L 214.910862 179.602198 
L 215.448815 259.482512 
L 215.583303 264.423279 
L 215.717792 265.038024 
L 216.121256 269.279007 
L 216.255745 270.23153 
L 216.390233 272.610224 
L 216.524721 268.62198 
L 216.659209 261.140995 
L 217.062674 148.625493 
L 217.197162 150.528164 
L 217.33165 150.608451 
L 217.466138 162.01687 
L 217.600627 160.739397 
L 217.735115 148.942843 
L 217.869603 154.14775 
L 218.273068 196.131437 
L 218.542044 254.66289 
L 218.811021 271.378833 
L 218.945509 263.996188 
L 219.483462 274.663967 
L 219.61795 276.45357 
L 219.886926 262.770022 
L 220.290391 161.678618 
L 220.693856 150.074943 
L 220.828344 160.687139 
L 220.962832 156.785359 
L 221.231808 183.80755 
L 221.500785 197.606065 
L 221.769761 254.527019 
L 222.038738 270.084257 
L 222.173226 269.335066 
L 222.307714 270.554105 
L 222.576691 276.575664 
L 222.845667 279.201871 
L 222.980155 277.537688 
L 223.114643 279.401877 
L 223.38362 258.949005 
L 223.518108 262.795201 
L 223.652596 262.639377 
L 223.921573 255.710902 
L 224.190549 255.041524 
L 224.325037 257.519033 
L 224.459525 256.893361 
L 224.728502 253.051915 
L 225.131967 260.288237 
L 225.266455 258.808858 
L 225.535431 260.27446 
L 225.669919 258.967533 
L 226.073384 268.691816 
L 226.34236 271.709484 
L 226.476849 271.637748 
L 226.745825 268.504637 
L 226.880313 270.778815 
L 227.014802 271.021102 
L 227.14929 270.725131 
L 227.283778 269.310837 
L 227.418266 270.981671 
L 227.552754 271.109941 
L 227.687243 270.94129 
L 227.956219 269.836268 
L 228.090707 275.632167 
L 228.225195 275.671123 
L 228.359684 276.769019 
L 228.494172 275.998924 
L 228.62866 276.966649 
L 228.763148 276.852632 
L 228.897637 274.572278 
L 229.301101 275.473018 
L 229.435589 269.280432 
L 229.570078 255.244855 
L 230.242519 94.357827 
L 230.377007 79.571158 
L 230.511495 109.449492 
L 230.780471 117.373721 
L 231.049448 144.749842 
L 231.587401 253.093722 
L 231.856377 264.278856 
L 232.125354 269.077101 
L 232.39433 273.718095 
L 232.528818 272.907145 
L 232.797795 255.861026 
L 232.932283 219.713144 
L 233.201259 132.850197 
L 233.335748 124.702208 
L 233.470236 134.9638 
L 233.604724 135.185184 
L 233.739212 147.933786 
L 233.8737 133.246883 
L 234.008189 139.946847 
L 234.815118 263.699266 
L 234.949606 263.4337 
L 235.218583 269.317488 
L 235.622047 277.028884 
L 235.756535 276.433142 
L 236.025512 263.819935 
L 236.563465 128.708979 
L 236.832441 116.539017 
L 237.63937 199.946753 
L 237.908347 257.820705 
L 238.177323 265.881755 
L 238.849764 280.748711 
L 238.984252 279.926833 
L 239.118741 276.141446 
L 239.253229 262.288773 
L 239.791182 127.941735 
L 240.194646 145.615902 
L 240.463623 164.676808 
L 240.732599 178.087188 
L 241.270552 255.297588 
L 241.674017 261.152872 
L 241.942993 274.051597 
L 242.077481 280.528752 
L 242.21197 279.90498 
L 242.480946 261.998978 
L 242.884411 150.644082 
L 243.018899 158.488973 
L 243.153387 156.249951 
L 243.287875 145.309479 
L 243.422363 153.262688 
L 243.556852 150.460703 
L 243.825828 167.043625 
L 244.229293 238.784027 
L 244.498269 261.092537 
L 244.767246 266.347327 
L 245.17071 274.177492 
L 245.305198 275.039275 
L 245.439687 274.74473 
L 245.574175 273.520465 
L 245.708663 262.105394 
L 245.843151 267.534061 
L 246.112128 264.56295 
L 246.381104 259.4027 
L 246.515592 259.369445 
L 247.188033 269.574503 
L 247.322522 269.978315 
L 247.45701 270.841999 
L 247.591498 270.48902 
L 247.725986 273.640183 
L 247.860475 272.207836 
L 248.129451 273.526166 
L 248.263939 272.646329 
L 248.398427 273.32616 
L 248.532916 273.173661 
L 248.667404 275.111011 
L 248.801892 275.012671 
L 249.205357 276.545259 
L 249.339845 276.661177 
L 249.608821 275.71673 
L 249.743309 275.847851 
L 249.877798 275.549029 
L 250.550239 272.39644 
L 250.819215 272.695262 
L 250.953703 273.470582 
L 251.088192 272.339432 
L 251.357168 273.591726 
L 251.491656 282.4509 
L 251.626144 281.963474 
L 251.760633 282.391991 
L 251.895121 282.232841 
L 252.164097 270.0434 
L 252.70205 143.205853 
L 252.836538 162.851575 
L 252.971027 159.422968 
L 253.240003 172.273236 
L 253.374491 173.62007 
L 253.508979 170.707868 
L 253.777956 203.378686 
L 254.046932 254.50279 
L 254.315909 275.732408 
L 254.719373 284.049523 
L 254.853862 283.810561 
L 255.122838 285.536028 
L 255.391814 264.865572 
L 255.660791 172.064679 
L 255.795279 175.496136 
L 256.198744 159.895191 
L 256.333232 163.551834 
L 256.46772 160.899497 
L 256.602208 162.090032 
L 257.409138 256.734211 
L 257.812602 264.17149 
L 258.081579 279.308287 
L 258.216067 280.367227 
L 258.350555 279.641314 
L 258.619532 265.535901 
L 258.888508 176.846771 
L 259.022996 177.71188 
L 259.157484 168.700682 
L 259.291973 168.127743 
L 259.426461 152.714453 
L 259.695437 166.351443 
L 259.829925 155.271299 
L 259.964414 164.30245 
L 260.771343 259.79036 
L 261.040319 262.018456 
L 261.309296 269.482814 
L 261.443784 272.68196 
L 261.71276 269.78116 
L 261.847249 257.447297 
L 262.116225 169.696437 
L 262.250713 173.844305 
L 262.654178 147.5371 
L 262.788666 154.803827 
L 262.923154 150.05594 
L 263.326619 185.041792 
L 263.461107 195.889149 
L 263.864572 244.437879 
L 264.268036 262.39709 
L 264.402525 261.643148 
L 264.671501 265.057027 
L 264.805989 264.931608 
L 264.940478 263.985261 
L 265.074966 256.452493 
L 265.209454 237.425316 
L 265.612919 123.663222 
L 265.881895 105.635601 
L 266.016383 115.092893 
L 266.150871 114.962722 
L 266.28536 114.516628 
L 266.419848 119.126268 
L 266.688824 156.226197 
L 266.957801 234.669414 
L 267.226777 251.257087 
L 267.361265 249.841367 
L 267.495754 266.133069 
L 267.630242 265.81857 
L 267.76473 267.678959 
L 267.899218 267.988707 
L 268.168195 274.479163 
L 268.302683 275.35995 
L 268.437171 272.81023 
L 268.706147 275.334771 
L 268.975124 271.856282 
L 269.2441 269.980216 
L 269.916541 255.554128 
L 270.320006 257.434945 
L 270.588982 262.299224 
L 270.723471 276.331951 
L 270.857959 277.367136 
L 270.992447 275.895833 
L 271.126935 276.775195 
L 271.261424 276.804649 
L 271.395912 276.61937 
L 271.799376 279.384299 
L 271.933865 278.00516 
L 272.068353 278.358615 
L 272.202841 277.716791 
L 272.337329 277.951952 
L 272.471817 277.112497 
L 272.606306 274.956613 
L 272.740794 276.233611 
L 272.875282 275.912461 
L 273.00977 275.238331 
L 273.144258 272.914271 
L 273.278747 272.81498 
L 273.547723 275.78039 
L 273.682211 275.993698 
L 273.8167 276.674479 
L 273.951188 275.816496 
L 274.085676 286.421566 
L 274.354652 288.047268 
L 274.489141 286.4819 
L 274.758117 271.822076 
L 275.29607 165.736697 
L 275.565046 153.546307 
L 275.699535 153.882184 
L 275.834023 171.768233 
L 275.968511 174.041461 
L 276.102999 184.15958 
L 276.77544 263.178586 
L 277.447881 280.5145 
L 277.58237 283.898449 
L 277.716858 283.508889 
L 277.851346 279.126809 
L 277.985834 269.180192 
L 278.389299 208.895716 
L 278.523787 189.48183 
L 278.658275 187.490797 
L 278.792763 178.010226 
L 278.927252 190.096101 
L 279.06174 184.296876 
L 279.196228 186.380074 
L 279.330716 194.047764 
L 280.137646 273.513814 
L 280.272134 275.891558 
L 280.406622 267.565416 
L 280.54111 267.282272 
L 280.810087 268.449053 
L 280.944575 267.828132 
L 281.213551 259.937633 
L 281.348039 231.091634 
L 281.482528 160.878119 
L 281.617016 150.705841 
L 281.751504 127.3897 
L 281.885992 128.537478 
L 282.154969 141.999641 
L 282.289457 123.946841 
L 282.423945 128.020598 
L 282.558433 137.098781 
L 282.82741 185.374818 
L 283.096386 253.691364 
L 283.365363 260.298214 
L 283.499851 262.497805 
L 283.634339 261.828901 
L 283.768827 261.839353 
L 283.903316 262.027957 
L 284.037804 263.328234 
L 284.172292 263.456979 
L 284.441268 258.281526 
L 285.113709 143.403959 
L 285.248198 142.331717 
L 285.382686 137.810441 
L 285.517174 147.02022 
L 285.651662 143.929865 
L 285.78615 147.406929 
L 286.055127 200.352941 
L 286.324103 249.757279 
L 286.59308 259.40175 
L 286.727568 259.280606 
L 286.862056 278.152908 
L 286.996544 278.211817 
L 287.131033 277.237441 
L 287.265521 277.840785 
L 287.668985 274.326665 
L 287.803474 275.2008 
L 288.07245 274.32904 
L 288.206938 272.165555 
L 288.341427 272.110446 
L 288.475915 269.772608 
L 288.610403 269.403001 
L 288.744891 268.283252 
L 288.879379 271.100915 
L 289.013868 271.439167 
L 289.148356 268.639083 
L 289.417332 275.767088 
L 289.55182 276.949547 
L 289.820797 276.589441 
L 289.955285 277.376638 
L 290.089773 275.883006 
L 290.224262 277.424145 
L 290.35875 276.520555 
L 290.493238 277.496832 
L 290.627726 275.960918 
L 291.031191 258.051115 
L 291.300167 192.117064 
L 291.434655 186.553951 
L 291.569144 187.159195 
L 291.703632 191.206823 
L 291.972608 178.510479 
L 292.376073 191.540325 
L 293.048514 267.642853 
L 293.183002 268.884696 
L 293.31749 267.737393 
L 293.451979 268.486109 
L 293.586467 267.56019 
L 293.720955 270.025823 
L 293.855443 270.288063 
L 294.258908 246.458842 
L 294.527884 188.692733 
L 294.796861 157.132163 
L 294.931349 141.324086 
L 295.065837 141.19059 
L 295.200325 149.131922 
L 295.334814 143.433888 
L 295.60379 171.383423 
L 295.738278 185.818062 
L 296.141743 255.750809 
L 296.276231 254.864321 
L 296.410719 262.035083 
L 296.545208 279.64464 
L 296.948672 281.799574 
L 297.486625 283.756877 
L 297.621113 283.412924 
L 297.755601 283.409124 
L 298.024578 280.249884 
L 298.159066 280.100235 
L 298.428042 277.968105 
L 298.697019 274.159914 
L 298.831507 273.029714 
L 298.965995 272.888142 
L 299.100484 273.242072 
L 299.36946 277.008931 
L 299.503948 276.504878 
L 299.638436 278.040791 
L 299.772925 268.427675 
L 299.907413 271.813525 
L 300.041901 271.513278 
L 300.176389 272.375537 
L 300.310877 272.093343 
L 300.579854 261.175675 
L 301.252295 127.719876 
L 301.386783 127.788287 
L 301.521271 140.916948 
L 301.65576 134.008426 
L 301.790248 143.37783 
L 302.597177 251.654248 
L 302.731665 253.398719 
L 303.000642 265.746834 
L 303.13513 265.970119 
L 303.269618 266.448043 
L 303.404106 268.895622 
L 303.538595 269.312737 
L 303.807571 253.032912 
L 304.345524 163.68818 
L 304.6145 153.21613 
L 304.748988 161.414002 
L 304.883477 151.886874 
L 305.017965 157.937888 
L 306.093871 264.205695 
L 306.228359 265.211426 
L 306.497335 275.317669 
L 306.766312 276.342402 
L 306.9008 271.656751 
L 307.035288 261.168549 
L 307.304265 169.13965 
L 307.438753 176.365996 
L 307.842217 157.197723 
L 307.976706 164.214561 
L 308.111194 155.836637 
L 308.245682 160.775028 
L 308.649147 206.553603 
L 309.052611 262.645078 
L 309.590564 274.816466 
L 309.994029 276.511529 
L 310.128517 272.975555 
L 310.263005 260.420783 
L 310.531982 169.028958 
L 310.66647 170.174836 
L 310.935446 167.896857 
L 311.069934 158.591114 
L 311.204423 165.015061 
L 311.338911 163.730461 
L 311.473399 156.989641 
L 311.607887 170.062243 
L 311.876864 207.456243 
L 312.14584 249.577701 
L 312.414817 261.325798 
L 312.818281 269.894702 
L 312.952769 269.46286 
L 313.087258 271.339401 
L 313.221746 271.241061 
L 313.356234 272.81023 
L 313.625211 262.3054 
L 313.759699 254.452432 
L 313.894187 257.788875 
L 314.028675 255.272409 
L 314.163163 257.146575 
L 314.297652 254.399699 
L 314.566628 260.931012 
L 314.701116 261.662151 
L 314.970093 266.392459 
L 315.104581 266.354928 
L 315.239069 266.059908 
L 315.508045 268.978285 
L 315.642534 269.512743 
L 315.777022 269.183992 
L 316.180487 272.159379 
L 316.314975 271.721836 
L 316.718439 274.064899 
L 316.852928 274.312888 
L 316.987416 273.463456 
L 317.121904 273.528541 
L 317.256392 272.414018 
L 317.39088 272.557965 
L 317.525369 271.026328 
L 317.659857 271.94132 
L 317.928833 269.433881 
L 318.332298 265.715004 
L 318.466786 266.36633 
L 318.601274 265.866078 
L 318.735763 267.315527 
L 318.870251 267.152577 
L 319.139227 268.263774 
L 319.273715 278.053618 
L 319.67718 279.166716 
L 319.811668 276.599892 
L 319.946157 268.682789 
L 320.349621 147.259182 
L 320.484109 131.183163 
L 320.887574 158.335049 
L 321.022062 162.979845 
L 321.291039 177.693827 
L 321.425527 179.485805 
L 321.560015 197.840752 
L 321.828991 253.111299 
L 321.96348 261.161423 
L 322.097968 261.944344 
L 322.635921 278.567173 
L 322.770409 278.912551 
L 322.904897 278.256474 
L 323.173874 267.872789 
L 323.44285 172.848075 
L 323.577338 173.208181 
L 323.711826 173.408662 
L 323.980803 153.324922 
L 324.249779 156.847594 
L 324.384268 159.601121 
L 324.787732 195.676791 
L 325.056709 249.947784 
L 325.325685 259.176565 
L 325.863638 276.916291 
L 325.998126 278.675489 
L 326.132614 278.740574 
L 326.267103 275.542378 
L 326.401591 266.584864 
L 326.670567 165.690615 
L 326.805055 171.618585 
L 326.939544 172.785366 
L 327.20852 159.620124 
L 327.343008 167.725831 
L 327.611985 163.989376 
L 327.746473 168.826577 
L 328.149937 223.269071 
L 328.418914 253.971183 
L 328.68789 266.722635 
L 328.822379 269.164514 
L 328.956867 279.16434 
L 329.225843 280.106886 
L 329.360331 279.263631 
L 329.629308 266.490799 
L 330.032772 177.888607 
L 330.301749 166.602282 
L 330.570725 157.834797 
L 330.839702 179.586996 
L 330.97419 180.793683 
L 331.108678 183.526307 
L 331.781119 259.057797 
L 332.050096 266.187702 
L 332.184584 276.912016 
L 332.319072 277.863588 
L 332.45356 277.201811 
L 332.588049 278.184738 
L 332.857025 265.635667 
L 333.26049 177.260085 
L 333.394978 179.160855 
L 333.663954 164.319553 
L 333.798442 165.506287 
L 333.932931 169.255568 
L 334.336395 187.036151 
L 334.73986 254.453858 
L 335.143325 270.108486 
L 335.277813 269.910855 
L 335.412301 270.00777 
L 335.546789 270.291864 
L 335.681277 270.187348 
L 335.950254 272.757021 
L 336.084742 270.672398 
L 336.622695 254.287107 
L 336.757183 255.078104 
L 336.891671 253.257622 
L 337.295136 259.585128 
L 337.698601 264.295009 
L 337.833089 263.818035 
L 338.102065 267.897968 
L 338.236553 267.667082 
L 338.371042 268.301305 
L 338.50553 265.977245 
L 339.043483 269.120807 
L 339.446947 272.10237 
L 339.581436 271.62302 
L 339.715924 270.459565 
L 339.850412 270.71753 
L 339.9849 269.94126 
L 340.119388 269.829142 
L 340.253877 269.357869 
L 340.388365 270.827747 
L 340.522853 268.84859 
L 340.657341 269.444333 
L 340.926318 269.127458 
L 341.060806 265.805268 
L 341.329782 270.663372 
L 341.464271 270.562181 
L 341.598759 271.088088 
L 341.733247 272.646804 
L 341.867735 280.430412 
L 342.136712 280.531602 
L 342.2712 281.170101 
L 342.540176 268.536942 
L 342.943641 153.928266 
L 343.212617 170.455604 
L 343.347106 169.724941 
L 343.75057 184.038911 
L 343.885058 185.70547 
L 344.019547 185.046067 
L 344.423011 252.59727 
L 345.22994 278.16431 
L 345.364429 279.242727 
L 345.498917 278.876921 
L 345.633405 274.68107 
L 345.767893 266.636647 
L 346.03687 182.799919 
L 346.171358 186.897429 
L 346.440334 173.399636 
L 346.574823 168.055057 
L 346.843799 174.899444 
L 347.112775 176.758882 
L 347.381752 211.067753 
L 347.650728 249.785784 
L 348.054193 267.658056 
L 348.188681 268.834338 
L 348.323169 277.758597 
L 348.457658 278.602328 
L 348.592146 280.463667 
L 348.726634 280.269362 
L 348.99561 267.42717 
L 349.264587 181.754757 
L 349.399075 183.221309 
L 349.668052 165.751425 
L 349.80254 161.66009 
L 350.206004 180.262075 
L 350.340493 181.435982 
L 351.012934 261.213206 
L 351.147422 263.522064 
L 351.550886 280.101185 
L 351.685375 279.392851 
L 351.954351 279.757707 
L 352.088839 278.367642 
L 352.223328 271.116117 
L 352.492304 177.698578 
L 352.626792 184.826108 
L 352.76128 173.516029 
L 352.895769 172.81102 
L 353.030257 164.576092 
L 353.164745 171.74923 
L 353.299233 169.683135 
L 353.56821 152.001367 
L 354.240651 267.798677 
L 354.375139 268.930303 
L 354.644115 274.761832 
L 354.913092 279.013267 
L 355.182068 280.049877 
L 355.316556 277.660257 
L 355.451045 268.580649 
L 355.854509 195.667765 
L 356.123486 157.537401 
L 356.257974 159.241965 
L 356.392462 167.806118 
L 356.52695 167.176171 
L 356.661439 177.725657 
L 356.795927 176.480964 
L 357.33388 263.511612 
L 357.602856 273.057268 
L 357.737344 275.011246 
L 357.871832 279.243677 
L 358.006321 278.668363 
L 358.140809 278.881671 
L 358.275297 279.61756 
L 358.409785 279.530147 
L 358.678762 278.277378 
L 359.082226 259.908654 
L 359.351203 254.034843 
L 359.485691 247.797125 
L 359.620179 258.472981 
L 359.754667 259.879674 
L 359.889156 260.0469 
L 360.427109 274.259204 
L 360.561597 274.935234 
L 360.965061 279.060299 
L 361.234038 279.020868 
L 361.368526 278.830363 
L 361.503014 280.12874 
L 361.771991 279.723502 
L 361.906479 281.047057 
L 362.040967 280.99955 
L 362.175455 281.372958 
L 362.309944 281.413339 
L 362.57892 278.018937 
L 362.713408 277.970005 
L 362.982385 276.84123 
L 363.116873 275.356625 
L 363.251361 275.255434 
L 363.385849 276.340502 
L 363.520337 275.49107 
L 363.654826 275.431686 
L 364.05829 278.203266 
L 364.192778 252.331703 
L 364.730731 258.556594 
L 364.86522 257.367484 
L 364.999708 245.34812 
L 365.134196 223.309927 
L 365.403172 135.432222 
L 365.672149 105.291172 
L 365.806637 99.399784 
L 366.075613 116.259198 
L 366.34459 113.130838 
L 366.479078 124.505052 
L 367.017031 250.256582 
L 367.151519 255.191172 
L 367.286007 253.464754 
L 367.554984 264.768182 
L 367.689472 265.630441 
L 367.958448 270.505647 
L 368.227425 247.062186 
L 368.496401 151.586628 
L 368.765378 99.964646 
L 369.034354 89.117289 
L 369.168842 93.815767 
L 369.303331 93.373474 
L 369.437819 96.725594 
L 369.572307 94.613891 
L 369.706795 110.643352 
L 370.244748 233.871765 
L 370.782701 277.87214 
L 370.917189 278.175712 
L 371.051677 279.063149 
L 371.186166 278.785706 
L 371.455142 264.035619 
L 371.858607 171.207646 
L 372.127583 203.042334 
L 372.262071 199.000882 
L 372.396559 200.420877 
L 372.665536 189.783502 
L 372.800024 193.560338 
L 373.203489 233.080768 
L 373.472465 255.233453 
L 373.87593 276.3272 
L 374.010418 285.303717 
L 374.144906 285.158345 
L 374.279394 286.359331 
L 374.413883 285.858603 
L 374.682859 269.374972 
L 375.220812 180.390345 
L 375.489788 176.777885 
L 375.624277 176.999744 
L 375.893253 183.504928 
L 376.027741 187.781067 
L 376.565694 255.0515 
L 376.83467 263.900698 
L 376.969159 266.724061 
L 377.103647 278.481659 
L 377.238135 277.393741 
L 377.507112 279.456986 
L 377.6416 277.500157 
L 377.776088 281.023303 
L 378.045064 278.885947 
L 378.179553 269.288983 
L 378.314041 268.666162 
L 378.448529 261.598016 
L 378.583017 262.594245 
L 378.717505 261.681153 
L 378.851994 266.172025 
L 378.986482 265.415233 
L 379.12097 266.319298 
L 379.255458 268.469006 
L 379.389947 268.353088 
L 379.927899 277.565717 
L 380.062388 277.36001 
L 380.196876 277.77475 
L 380.331364 267.909845 
L 380.60034 269.828667 
L 380.869317 271.476223 
L 381.138293 260.62839 
L 381.272782 233.652756 
L 381.541758 159.386388 
L 381.810734 139.311674 
L 381.945223 140.896045 
L 382.214199 147.354671 
L 382.348687 139.399563 
L 382.752152 189.040487 
L 383.021128 256.748463 
L 383.155616 264.642288 
L 383.290105 265.30169 
L 383.424593 266.583439 
L 383.559081 261.675928 
L 383.693569 260.967118 
L 383.962546 261.312021 
L 384.097034 262.49733 
L 384.231522 260.72103 
L 384.36601 262.107295 
L 385.038451 148.41266 
L 385.17294 150.845513 
L 385.307428 165.916275 
L 385.576404 160.296154 
L 386.248845 259.582278 
L 386.921286 278.004685 
L 387.055775 277.193259 
L 387.190263 278.465507 
L 387.324751 277.7776 
L 387.459239 277.938175 
L 387.593727 279.421355 
L 387.728216 278.849366 
L 387.862704 280.161045 
L 387.997192 278.996639 
L 388.13168 280.580535 
L 388.266169 279.600458 
L 388.400657 277.623201 
L 388.535145 277.71204 
L 388.669633 277.052163 
L 388.804121 278.186639 
L 388.93861 275.645944 
L 389.207586 277.7776 
L 389.476562 284.440508 
L 389.611051 283.38632 
L 389.745539 284.199646 
L 389.880027 284.147863 
L 390.014515 269.302286 
L 390.283492 269.550274 
L 390.41798 269.560251 
L 390.552468 269.43008 
L 390.686956 263.952006 
L 390.821445 264.136334 
L 390.955933 255.316591 
L 391.224909 199.362413 
L 391.359397 168.099239 
L 391.493886 164.123822 
L 391.762862 174.778775 
L 391.89735 174.237191 
L 392.031839 167.039825 
L 392.166327 170.725921 
L 392.300815 179.673459 
L 392.569791 239.614456 
L 392.70428 265.808119 
L 392.973256 270.633442 
L 393.107744 271.288569 
L 393.376721 264.257478 
L 393.645697 269.955037 
L 393.780185 266.576313 
L 393.914673 267.955927 
L 394.049162 260.569481 
L 394.721603 146.369369 
L 394.990579 145.301403 
L 395.125067 144.882863 
L 395.259556 156.227148 
L 395.394044 157.094157 
L 395.931997 244.92483 
L 396.200973 258.486758 
L 396.335461 254.76313 
L 396.46995 279.448434 
L 396.604438 279.830393 
L 397.007902 282.854713 
L 397.276879 269.84387 
L 397.545855 196.394152 
L 397.680343 191.224876 
L 397.94932 167.929638 
L 398.083808 154.510231 
L 398.218296 167.208951 
L 398.352785 162.459164 
L 398.487273 165.461155 
L 398.487273 165.461155 
" clip-path="url(#p1296771ab6)" style="fill: none; stroke: #1f77b4; stroke-width: 1.5; stroke-linecap: square"/>
   </g>
   <g id="line2d_14">
    <path d="M 73.832727 278.93775 
L 73.967215 278.953031 
L 74.236192 278.274442 
L 74.37068 276.861379 
L 74.505168 278.780134 
L 74.639657 277.774695 
L 74.774145 278.974189 
L 74.908633 267.655176 
L 75.043121 223.319187 
L 75.312098 246.732214 
L 75.446586 249.77243 
L 75.581074 248.405108 
L 75.715562 249.683042 
L 75.85005 248.645413 
L 75.984539 250.707088 
L 76.119027 250.499418 
L 76.388003 246.488282 
L 76.522492 281.040243 
L 76.65698 279.483726 
L 77.060444 271.005029 
L 77.194933 254.325895 
L 77.329421 263.982787 
L 77.463909 263.263806 
L 77.598397 264.652718 
L 77.732885 267.427414 
L 77.867374 255.655599 
L 78.001862 232.295123 
L 78.270838 125.551276 
L 78.405327 96.150485 
L 78.674303 108.510973 
L 78.808791 103.768685 
L 78.943279 112.574288 
L 79.077768 106.781326 
L 79.481232 168.060471 
L 79.61572 183.342944 
L 79.884697 247.4482 
L 80.153673 265.620156 
L 80.288161 267.465435 
L 80.42265 257.22095 
L 80.557138 275.16092 
L 80.691626 268.511868 
L 80.826114 269.765322 
L 80.960603 268.603206 
L 81.095091 262.903182 
L 81.229579 244.621456 
L 81.498555 142.968981 
L 81.633044 166.841424 
L 81.767532 162.074895 
L 81.90202 152.767593 
L 82.170996 203.907856 
L 82.305485 197.908418 
L 82.439973 200.980377 
L 82.574461 199.963688 
L 82.708949 228.336862 
L 82.977926 206.223111 
L 83.112414 235.200557 
L 83.246902 205.362161 
L 83.38139 203.587354 
L 83.650367 274.947127 
L 83.919343 281.423693 
L 84.053831 282.77955 
L 84.18832 281.353825 
L 84.322808 203.512404 
L 84.457296 239.847449 
L 84.591784 203.512404 
L 84.860761 203.512404 
L 84.995249 206.447098 
L 85.264225 163.596048 
L 85.533202 183.641314 
L 85.936666 214.897533 
L 86.205643 261.104333 
L 86.340131 259.072583 
L 86.474619 268.502423 
L 86.609107 265.571614 
L 86.743596 271.242101 
L 87.012572 287.259556 
L 87.14706 286.518607 
L 87.281549 284.403976 
L 87.416037 286.276838 
L 87.685013 284.311079 
L 87.95399 245.726043 
L 88.088478 259.111918 
L 88.222966 253.924515 
L 88.357454 259.559625 
L 88.626431 250.959151 
L 88.760919 256.67678 
L 88.895407 244.659303 
L 89.029895 255.184674 
L 89.164384 253.934022 
L 89.298872 258.003038 
L 89.43336 277.839724 
L 89.567848 278.276924 
L 89.702336 274.861196 
L 89.836825 274.792694 
L 89.971313 275.720595 
L 90.105801 251.292406 
L 90.374777 263.673181 
L 90.509266 263.451487 
L 90.643754 267.637448 
L 90.778242 265.244873 
L 90.91273 268.149754 
L 91.047218 260.821651 
L 91.181707 245.535122 
L 91.316195 251.36099 
L 91.450683 243.004385 
L 91.585171 254.840689 
L 91.71966 249.476306 
L 91.854148 252.407855 
L 91.988636 252.196128 
L 92.123124 253.622999 
L 92.257612 257.38524 
L 92.392101 255.469565 
L 92.930053 268.129828 
L 93.064542 267.480901 
L 93.19903 261.116972 
L 93.333518 280.067445 
L 93.602495 273.09464 
L 93.736983 273.972299 
L 94.005959 266.64073 
L 94.140447 258.67216 
L 94.409424 165.584532 
L 94.543912 178.008514 
L 94.812888 156.55682 
L 94.947377 155.155691 
L 95.216353 173.832617 
L 95.350841 170.147185 
L 95.48533 160.405214 
L 95.888794 255.151273 
L 96.157771 266.412277 
L 96.292259 266.948669 
L 96.561235 268.827705 
L 96.695723 266.197919 
L 96.830212 266.184609 
L 96.9647 268.99278 
L 97.099188 267.787252 
L 97.233676 265.17629 
L 97.502653 217.146636 
L 97.637141 163.470362 
L 97.771629 183.389032 
L 97.906117 171.770558 
L 98.040606 189.245671 
L 98.175094 179.581958 
L 98.309582 180.149511 
L 98.44407 180.065512 
L 98.847535 209.791008 
L 99.250999 269.854477 
L 99.385488 269.238273 
L 99.519976 273.536886 
L 99.654464 272.435125 
L 99.788952 286.190742 
L 100.057929 276.624737 
L 100.326905 278.214661 
L 100.461393 277.949906 
L 100.73037 275.199143 
L 100.864858 275.189302 
L 100.999346 274.094664 
L 101.133834 280.081611 
L 101.268323 278.83655 
L 101.402811 276.084795 
L 101.537299 262.007877 
L 101.671787 273.178826 
L 101.806276 258.337367 
L 101.940764 256.772886 
L 102.075252 262.885011 
L 102.20974 262.858 
L 102.344228 264.594857 
L 102.478717 268.172401 
L 102.613205 277.786599 
L 102.747693 270.001286 
L 102.882181 281.316536 
L 103.016669 250.198284 
L 103.285646 269.402791 
L 103.420134 267.775391 
L 103.823599 253.158095 
L 103.958087 219.857263 
L 104.092575 158.612804 
L 104.227063 168.92734 
L 104.361552 151.687818 
L 104.49604 169.848976 
L 104.765016 141.28866 
L 105.033993 163.366173 
L 105.302969 189.852978 
L 105.706434 262.341889 
L 105.97541 256.359657 
L 106.109898 266.695642 
L 106.244387 288.164054 
L 106.513363 281.069647 
L 106.647851 278.534157 
L 106.782339 282.062932 
L 106.916828 280.212808 
L 107.051316 282.159933 
L 107.320292 215.686477 
L 107.589269 256.808781 
L 107.858245 247.942112 
L 107.992733 244.998399 
L 108.127222 245.449348 
L 108.26171 243.493327 
L 108.396198 244.022255 
L 108.530686 240.274919 
L 108.665174 245.837547 
L 108.934151 282.715345 
L 109.068639 279.289901 
L 109.203127 279.069828 
L 109.337615 275.202989 
L 109.472104 267.83361 
L 109.606592 271.66783 
L 109.74108 271.862853 
L 109.875568 273.146729 
L 110.010056 273.051635 
L 110.279033 273.998082 
L 110.548009 270.574422 
L 110.682498 272.092842 
L 111.085962 269.798729 
L 111.22045 271.667279 
L 111.354939 270.202068 
L 111.489427 266.6508 
L 111.623915 266.775164 
L 111.758403 263.829554 
L 111.892891 265.49453 
L 112.161868 270.121875 
L 112.565333 270.507708 
L 112.699821 253.986467 
L 112.968797 265.345399 
L 113.103285 265.512628 
L 113.237774 267.544595 
L 113.372262 266.849317 
L 113.50675 269.847887 
L 113.641238 268.098551 
L 113.775726 268.494464 
L 113.910215 265.272823 
L 114.044703 267.276151 
L 114.179191 264.680464 
L 114.313679 257.50242 
L 114.448168 258.460478 
L 114.582656 258.044288 
L 114.717144 256.635384 
L 115.120609 247.876164 
L 115.389585 260.143708 
L 115.524073 261.126137 
L 115.658561 261.011887 
L 115.79305 256.772832 
L 115.927538 258.405677 
L 116.062026 258.554504 
L 116.196514 255.185596 
L 116.331002 267.51329 
L 116.465491 262.345312 
L 116.599979 263.314184 
L 116.734467 243.07109 
L 117.003444 124.351173 
L 117.137932 85.615267 
L 117.27242 84.159832 
L 117.406908 80.662022 
L 117.541396 70.534676 
L 117.675885 74.826453 
L 117.810373 85.330571 
L 118.75179 242.93413 
L 118.886279 251.818971 
L 119.020767 251.157776 
L 119.155255 252.601709 
L 119.289743 255.465322 
L 119.424231 253.127549 
L 119.55872 254.069013 
L 119.693208 257.24505 
L 119.827696 255.598738 
L 119.962184 236.899344 
L 120.231161 120.665733 
L 120.365649 95.96653 
L 120.500137 98.834708 
L 120.769114 83.515072 
L 120.903602 85.030882 
L 121.03809 84.37476 
L 121.172578 95.794378 
L 121.307066 122.924849 
L 121.441555 125.10518 
L 121.845019 223.730385 
L 121.979507 242.784108 
L 122.113996 241.241888 
L 122.248484 243.073008 
L 122.382972 247.152685 
L 122.51746 262.869799 
L 122.786437 255.614286 
L 122.920925 255.928425 
L 123.055413 251.538794 
L 123.189901 237.321083 
L 123.593366 89.814041 
L 123.727854 88.548532 
L 123.996831 78.388687 
L 124.400295 123.773053 
L 124.534783 126.890775 
L 124.669272 133.796378 
L 125.072736 235.255542 
L 125.207225 256.03873 
L 125.341713 257.009135 
L 125.476201 256.266715 
L 125.610689 253.242551 
L 125.745177 269.389369 
L 126.148642 265.151999 
L 126.28313 246.175485 
L 126.417618 243.508886 
L 126.686595 131.351073 
L 126.955571 94.411336 
L 127.09006 82.409489 
L 127.493524 108.066084 
L 127.896989 151.597711 
L 128.434942 254.626943 
L 128.56943 255.374816 
L 128.703918 252.381447 
L 128.838406 261.794504 
L 128.972894 256.827926 
L 129.241871 263.441162 
L 129.376359 262.573442 
L 129.645336 228.27247 
L 129.914312 120.8058 
L 130.0488 85.292922 
L 130.183288 89.288637 
L 130.317777 84.808281 
L 130.452265 97.299638 
L 130.586753 139.593249 
L 130.855729 123.143648 
L 131.124706 160.623925 
L 131.528171 249.304653 
L 131.797147 261.388012 
L 131.931635 261.317312 
L 132.200612 257.138431 
L 132.469588 269.602806 
L 132.604076 266.511492 
L 132.873053 265.492394 
L 133.007541 252.855828 
L 133.142029 251.648544 
L 133.276517 244.100749 
L 133.545494 241.393893 
L 133.679982 238.920023 
L 133.81447 240.545412 
L 133.948958 240.06298 
L 134.083447 234.440912 
L 134.352423 244.566248 
L 134.621399 250.159975 
L 134.755888 254.852841 
L 134.890376 254.960032 
L 135.024864 253.457023 
L 135.562817 262.741897 
L 135.831793 266.117071 
L 135.966282 271.65582 
L 136.10077 269.91458 
L 136.235258 264.822236 
L 136.369746 267.360083 
L 136.504234 267.085773 
L 136.638723 261.852975 
L 136.773211 264.614804 
L 137.042187 261.99949 
L 137.311164 247.844549 
L 137.58014 254.022484 
L 137.714628 250.304261 
L 137.983605 258.439055 
L 138.118093 259.313053 
L 138.387069 256.338368 
L 138.521558 263.299809 
L 138.656046 257.73077 
L 138.790534 258.028498 
L 139.05951 264.420351 
L 139.328487 236.140436 
L 139.597463 121.915136 
L 139.731951 85.387738 
L 139.86644 89.373929 
L 140.135416 81.421074 
L 140.404393 101.35436 
L 140.673369 149.746728 
L 140.807857 149.761174 
L 140.942345 169.958852 
L 141.076834 234.740417 
L 141.480298 259.087412 
L 141.749275 261.128244 
L 141.883763 264.553845 
L 142.018251 261.860396 
L 142.152739 262.68323 
L 142.287228 260.178815 
L 142.690692 156.559405 
L 142.959669 86.582788 
L 143.094157 98.764825 
L 143.363133 86.646416 
L 143.497621 104.165357 
L 143.63211 90.05397 
L 143.766598 105.555333 
L 143.901086 144.1425 
L 144.035574 138.212689 
L 144.304551 234.763539 
L 144.439039 233.755515 
L 144.708015 262.675614 
L 144.842504 265.407696 
L 145.11148 260.364271 
L 145.245968 261.312459 
L 145.380456 264.250051 
L 145.514945 254.63205 
L 145.649433 223.624764 
L 145.783921 230.108906 
L 146.187386 91.176717 
L 146.321874 93.057498 
L 146.725339 125.274626 
L 146.859827 116.361959 
L 146.994315 131.529798 
L 147.128803 125.703246 
L 147.263291 141.619948 
L 147.532268 241.790848 
L 147.935732 264.089359 
L 148.070221 261.620212 
L 148.204709 264.139157 
L 148.339197 263.668618 
L 148.473685 261.643841 
L 148.608174 261.738798 
L 148.742662 259.651795 
L 148.87715 259.504293 
L 149.011638 225.062871 
L 149.280615 124.180444 
L 149.415103 100.574338 
L 149.549591 116.919776 
L 149.684079 108.902476 
L 149.818567 108.627509 
L 150.222032 149.584232 
L 150.35652 139.834096 
L 150.491009 152.766894 
L 150.759985 244.633685 
L 150.894473 246.225319 
L 151.16345 265.241814 
L 151.297938 261.162654 
L 151.432426 261.233902 
L 151.566914 261.989635 
L 151.701402 264.794535 
L 151.835891 264.571888 
L 151.970379 265.426801 
L 152.104867 261.715895 
L 152.64282 96.101453 
L 152.777308 117.604979 
L 153.046285 99.675232 
L 153.180773 121.171072 
L 153.315261 117.994924 
L 153.449749 165.32066 
L 153.584237 173.463546 
L 153.853214 217.822531 
L 154.12219 258.809788 
L 154.256678 270.012186 
L 154.391167 268.280935 
L 154.525655 271.502269 
L 154.660143 269.931456 
L 154.794631 270.759583 
L 154.92912 270.539081 
L 155.332584 275.405195 
L 155.467072 273.512924 
L 155.601561 265.736435 
L 155.736049 249.546772 
L 155.870537 257.368002 
L 156.005025 256.178647 
L 156.139513 261.928378 
L 156.40849 257.667415 
L 156.542978 257.736186 
L 156.677466 259.167902 
L 156.811955 257.966402 
L 156.946443 261.726305 
L 157.080931 262.019544 
L 157.484396 268.544661 
L 157.618884 265.791988 
L 158.425813 273.733921 
L 158.694789 277.583512 
L 158.829278 273.337046 
L 158.963766 274.462937 
L 159.098254 273.599044 
L 159.367231 270.437359 
L 159.501719 272.218322 
L 159.636207 269.859443 
L 159.905183 257.51748 
L 160.039672 261.384218 
L 160.17416 255.517943 
L 160.443136 259.482481 
L 160.577624 268.137328 
L 160.981089 259.784855 
L 161.115577 262.454832 
L 161.250066 267.706432 
L 161.519042 266.137191 
L 161.65353 266.379667 
L 161.922507 236.364732 
L 162.325971 94.540136 
L 162.460459 88.342801 
L 162.594948 95.452459 
L 162.863924 86.036403 
L 162.998412 119.06594 
L 163.132901 119.53844 
L 163.267389 129.534415 
L 163.536365 182.134194 
L 163.670853 236.055401 
L 164.208806 260.954521 
L 164.343294 258.514397 
L 164.477783 273.316974 
L 164.612271 269.824278 
L 164.746759 271.293891 
L 165.150224 234.453868 
L 165.553688 100.135518 
L 165.688177 121.393986 
L 165.957153 105.731685 
L 166.091641 122.786146 
L 166.360618 106.107994 
L 166.495106 107.481432 
L 166.629594 118.70782 
L 166.89857 233.895451 
L 167.033059 240.085096 
L 167.167547 239.730587 
L 167.436523 252.769273 
L 167.571012 255.289707 
L 167.839988 263.534119 
L 167.974476 263.382616 
L 168.108964 263.42025 
L 168.243453 250.475011 
L 168.377941 226.611939 
L 168.781405 89.549101 
L 168.915894 113.049221 
L 169.050382 101.143355 
L 169.18487 100.838684 
L 169.319358 114.338404 
L 169.453847 89.193681 
L 169.588335 102.410225 
L 169.857311 149.112629 
L 169.991799 173.124741 
L 170.126288 237.24051 
L 170.529752 259.232184 
L 170.798729 262.281564 
L 170.933217 258.842417 
L 171.202193 260.853503 
L 171.336681 265.131175 
L 171.874634 127.172416 
L 172.009123 92.885233 
L 172.143611 109.048608 
L 172.278099 110.785458 
L 172.412587 95.008614 
L 172.547075 97.72917 
L 172.95054 140.558586 
L 173.085028 148.436725 
L 173.488493 247.304928 
L 174.026446 284.594528 
L 174.160934 274.254435 
L 174.295422 272.48015 
L 174.42991 272.183885 
L 174.564399 273.597186 
L 174.967863 216.582123 
L 175.102351 162.377886 
L 175.23684 160.997091 
L 175.505816 137.571838 
L 175.640304 140.769319 
L 175.774792 154.785385 
L 175.909281 152.053954 
L 176.043769 158.888296 
L 176.178257 173.441336 
L 176.312745 170.756134 
L 176.447234 193.498655 
L 176.581722 250.065526 
L 176.71621 253.232772 
L 176.985186 268.316615 
L 177.119675 263.96289 
L 177.388651 267.735054 
L 177.523139 266.221119 
L 177.792116 272.650439 
L 177.926604 272.514854 
L 178.061092 273.170525 
L 178.330069 257.3391 
L 178.464557 260.629868 
L 178.599045 251.665237 
L 178.733533 255.45567 
L 178.868021 255.036896 
L 179.00251 259.306255 
L 179.271486 251.952679 
L 179.405974 255.718099 
L 179.540462 253.088028 
L 179.674951 253.574888 
L 179.943927 263.215288 
L 180.078415 270.944433 
L 180.212904 264.704238 
L 180.347392 264.499293 
L 180.48188 276.164501 
L 180.750856 273.099322 
L 180.885345 273.156525 
L 181.019833 274.06062 
L 181.154321 273.744533 
L 181.557786 259.999605 
L 181.692274 265.041019 
L 181.826762 263.186522 
L 181.96125 266.633382 
L 182.095738 257.474081 
L 182.499203 267.291463 
L 182.633691 268.686715 
L 182.76818 272.376969 
L 182.902668 269.76833 
L 183.037156 269.496135 
L 183.171644 275.931222 
L 183.306132 275.594055 
L 183.440621 276.805829 
L 183.709597 268.502103 
L 183.844085 287.700478 
L 184.113062 286.46414 
L 184.24755 279.786603 
L 184.516526 262.222515 
L 184.785503 181.065133 
L 184.919991 186.180567 
L 185.054479 174.120373 
L 185.188967 184.791292 
L 185.323456 177.214068 
L 185.592432 185.323724 
L 185.72692 194.358784 
L 186.264873 256.421343 
L 186.937314 281.038364 
L 187.071802 292.652963 
L 187.206291 290.106838 
L 187.340779 285.122483 
L 187.475267 286.471988 
L 187.609755 279.951375 
L 187.744243 265.55837 
L 188.01322 183.763659 
L 188.147708 191.395487 
L 188.282196 179.882109 
L 188.416684 183.176032 
L 188.551173 182.889841 
L 188.685661 185.61087 
L 188.820149 196.104354 
L 188.954637 197.328783 
L 189.358102 242.593449 
L 189.627078 268.089517 
L 189.896055 269.058281 
L 190.030543 274.319734 
L 190.165031 265.373737 
L 190.299519 268.127082 
L 190.434008 267.811051 
L 190.568496 265.325822 
L 190.971961 270.903211 
L 191.106449 267.576008 
L 191.240937 258.435528 
L 191.509913 269.082533 
L 191.644402 262.585824 
L 191.77889 266.661739 
L 192.047866 260.958577 
L 192.182354 251.74213 
L 192.316843 252.733296 
L 192.451331 256.956093 
L 192.585819 255.700901 
L 192.720307 258.869325 
L 192.854796 269.230958 
L 192.989284 266.665281 
L 193.123772 266.237862 
L 193.392748 261.271019 
L 193.527237 260.619107 
L 193.796213 266.192502 
L 193.930701 266.341695 
L 194.199678 251.91504 
L 194.468654 172.716457 
L 195.006607 143.294016 
L 195.141095 146.437634 
L 195.275583 155.720179 
L 195.410072 142.154416 
L 195.679048 175.920196 
L 195.948024 239.813957 
L 196.082513 260.761634 
L 196.217001 261.174105 
L 196.351489 263.161457 
L 196.485977 262.766735 
L 196.620465 276.331692 
L 196.754954 268.909993 
L 197.02393 267.026438 
L 197.158418 269.034684 
L 197.292907 264.904168 
L 197.427395 252.764492 
L 197.696371 174.552237 
L 197.830859 195.512137 
L 197.965348 190.474687 
L 198.099836 197.566423 
L 198.234324 189.452029 
L 198.368812 198.039243 
L 198.637789 186.13472 
L 199.31023 275.088066 
L 199.444718 275.455998 
L 199.579206 277.59423 
L 199.713694 276.539436 
L 199.848183 280.314098 
L 199.982671 276.749536 
L 200.251647 277.741394 
L 200.386135 275.104697 
L 200.520624 267.312221 
L 200.655112 269.291623 
L 200.7896 248.729095 
L 200.924088 178.997627 
L 201.058576 207.00933 
L 201.193065 193.593081 
L 201.327553 199.167181 
L 201.462041 195.215307 
L 201.596529 202.004836 
L 201.731018 190.047238 
L 201.865506 190.088828 
L 202.26897 229.829897 
L 202.537947 270.128169 
L 202.672435 269.619508 
L 202.941411 273.397771 
L 203.0759 262.074504 
L 203.210388 261.702379 
L 203.344876 269.372704 
L 203.479364 268.008076 
L 203.882829 256.333509 
L 204.017317 231.188536 
L 204.286294 168.245702 
L 204.420782 157.044885 
L 204.55527 155.690465 
L 204.824246 164.684644 
L 204.958735 161.967378 
L 205.093223 186.072168 
L 205.227711 190.147408 
L 205.900152 265.027225 
L 206.03464 263.796617 
L 206.169129 265.249227 
L 206.303617 288.465124 
L 206.438105 280.351395 
L 206.707081 281.843098 
L 206.84157 281.859044 
L 206.976058 281.131234 
L 207.379522 255.951451 
L 207.514011 258.174253 
L 207.917475 273.272271 
L 208.051964 273.141012 
L 208.186452 268.694358 
L 208.455428 255.68325 
L 208.589916 262.564827 
L 208.724405 263.229592 
L 208.858893 274.32044 
L 208.993381 275.094755 
L 209.127869 279.935719 
L 209.396846 275.547777 
L 209.531334 263.365049 
L 209.665822 269.373181 
L 209.80031 268.947546 
L 209.934799 269.769192 
L 210.069287 271.648967 
L 210.203775 251.88924 
L 210.338263 252.663991 
L 210.60724 159.280422 
L 210.741728 149.021458 
L 211.010704 121.779031 
L 211.145192 114.776215 
L 211.279681 133.853868 
L 211.414169 137.069761 
L 211.683145 162.390976 
L 212.221098 258.571618 
L 212.490075 260.409531 
L 212.759051 269.926545 
L 212.893539 273.195963 
L 213.162516 268.136107 
L 213.297004 272.60731 
L 213.56598 240.98673 
L 213.834957 131.209161 
L 213.969445 115.837748 
L 214.103933 139.030583 
L 214.238421 137.157119 
L 214.37291 139.74665 
L 215.045351 194.770753 
L 215.448815 267.685608 
L 215.583303 262.007044 
L 215.717792 268.414631 
L 215.85228 263.793171 
L 216.121256 267.656303 
L 216.255745 266.441173 
L 216.390233 267.522768 
L 216.524721 271.279246 
L 216.793697 248.201619 
L 217.062674 142.931101 
L 217.197162 130.456425 
L 217.33165 146.776296 
L 217.466138 148.837414 
L 217.600627 158.490848 
L 217.735115 158.338544 
L 217.869603 145.330192 
L 218.004091 161.276847 
L 218.273068 211.293899 
L 218.407556 214.671377 
L 218.542044 257.68138 
L 218.945509 275.669031 
L 219.079997 257.589839 
L 219.348973 268.01298 
L 219.61795 274.364526 
L 219.752438 275.512252 
L 220.021414 248.337232 
L 220.290391 140.163762 
L 220.559367 157.857964 
L 220.693856 152.154703 
L 220.828344 151.544428 
L 220.962832 166.620598 
L 221.09732 159.779423 
L 221.366297 201.173189 
L 221.500785 205.092486 
L 221.635273 214.496865 
L 221.769761 259.280408 
L 222.173226 274.619831 
L 222.307714 270.144604 
L 222.442202 270.699937 
L 222.711179 276.736822 
L 222.845667 276.634459 
L 222.980155 277.988044 
L 223.114643 274.489572 
L 223.249132 277.653016 
L 223.518108 249.604943 
L 223.652596 264.807084 
L 223.787084 265.291682 
L 224.056061 254.761376 
L 224.190549 255.508694 
L 224.325037 255.397061 
L 224.459525 258.803068 
L 224.86299 253.101733 
L 225.131967 261.376388 
L 225.266455 261.978157 
L 225.400943 258.694243 
L 225.535431 260.529015 
L 225.669919 260.497322 
L 225.804408 258.282671 
L 225.938896 264.083152 
L 226.073384 265.00966 
L 226.207872 268.930082 
L 226.34236 268.960574 
L 226.476849 270.389449 
L 226.880313 265.955816 
L 227.014802 271.130404 
L 227.14929 271.48427 
L 227.283778 271.044058 
L 227.418266 266.337765 
L 227.552754 268.712845 
L 227.687243 267.947414 
L 227.821731 269.019978 
L 227.956219 267.707562 
L 228.090707 268.106204 
L 228.225195 276.907479 
L 228.359684 274.263209 
L 228.494172 275.360488 
L 228.62866 273.444589 
L 228.763148 274.125287 
L 228.897637 273.311453 
L 229.032125 268.62043 
L 229.301101 271.999072 
L 229.435589 271.956382 
L 229.570078 259.406828 
L 229.704566 234.175393 
L 229.973542 129.986192 
L 230.10803 102.293709 
L 230.377007 99.286064 
L 230.511495 79.986995 
L 230.645983 128.134922 
L 230.780471 127.372256 
L 230.91496 125.583427 
L 231.587401 253.794268 
L 231.721889 257.614865 
L 231.990865 267.826903 
L 232.125354 269.309008 
L 232.259842 268.11861 
L 232.528818 272.837678 
L 232.663306 269.155943 
L 232.932283 238.254478 
L 233.201259 133.946919 
L 233.335748 114.462582 
L 233.470236 120.981388 
L 233.604724 133.200237 
L 233.739212 132.256496 
L 233.8737 144.528998 
L 234.008189 132.011773 
L 234.142677 144.680774 
L 234.411653 200.33859 
L 234.546141 209.367385 
L 234.815118 265.82652 
L 234.949606 267.096462 
L 235.084094 265.322766 
L 235.218583 269.646747 
L 235.353071 268.0295 
L 235.622047 278.402452 
L 235.891024 272.703755 
L 236.16 250.068256 
L 236.428976 138.935775 
L 236.563465 115.116308 
L 236.697953 125.960371 
L 236.832441 124.436537 
L 236.966929 117.517728 
L 237.504882 168.616093 
L 237.908347 255.698708 
L 238.177323 267.489243 
L 238.311811 268.119774 
L 238.4463 269.70976 
L 238.580788 269.219359 
L 238.715276 272.385005 
L 238.984252 281.534045 
L 239.253229 268.66147 
L 239.387717 242.146001 
L 239.656694 139.47451 
L 239.92567 122.34292 
L 240.194646 136.02917 
L 240.329135 144.582357 
L 240.463623 168.035212 
L 240.598111 170.804264 
L 240.867087 197.90077 
L 241.136064 253.896653 
L 241.270552 255.908616 
L 241.40504 261.655526 
L 241.539529 260.48074 
L 241.674017 262.212405 
L 241.808505 259.637345 
L 241.942993 278.387896 
L 242.077481 275.399672 
L 242.21197 284.36866 
L 242.346458 278.278476 
L 242.615434 243.842737 
L 242.884411 141.630689 
L 243.018899 133.889242 
L 243.153387 158.942404 
L 243.287875 154.244615 
L 243.422363 143.272023 
L 243.556852 155.251105 
L 243.69134 153.256325 
L 243.960316 180.818163 
L 244.229293 235.792485 
L 244.498269 259.308323 
L 244.632757 267.815024 
L 244.767246 268.708104 
L 244.901734 267.461521 
L 245.17071 274.310661 
L 245.305198 273.098703 
L 245.439687 273.700247 
L 245.708663 270.914036 
L 245.843151 253.386747 
L 245.97764 267.425221 
L 246.112128 263.345547 
L 246.246616 263.462174 
L 246.515592 259.003232 
L 246.650081 260.381152 
L 247.053545 269.956246 
L 247.188033 268.057539 
L 247.322522 271.929862 
L 247.45701 271.621179 
L 247.591498 272.207561 
L 247.725986 271.517305 
L 247.860475 275.272762 
L 247.994963 272.560678 
L 248.263939 274.193378 
L 248.398427 272.583901 
L 248.532916 273.544911 
L 248.667404 272.215957 
L 248.801892 274.342456 
L 248.93638 273.125649 
L 249.070868 273.503221 
L 249.205357 272.536456 
L 249.474333 276.718796 
L 249.608821 276.217811 
L 249.743309 275.132539 
L 249.877798 275.874956 
L 250.012286 275.6027 
L 250.146774 274.828011 
L 250.281262 271.707995 
L 250.550239 272.501939 
L 250.684727 271.555204 
L 250.819215 272.340479 
L 250.953703 272.382403 
L 251.088192 273.537933 
L 251.357168 270.614686 
L 251.491656 270.145839 
L 251.626144 287.268209 
L 251.760633 281.104307 
L 251.895121 280.710615 
L 252.029609 278.971031 
L 252.298586 257.795817 
L 252.567562 145.852618 
L 252.70205 128.25061 
L 252.836538 139.212239 
L 252.971027 159.95337 
L 253.105515 153.114157 
L 253.240003 159.058486 
L 253.508979 176.3134 
L 253.643468 182.045326 
L 254.046932 260.601678 
L 254.181421 263.290999 
L 254.450397 279.960575 
L 254.584885 280.463015 
L 254.719373 280.097016 
L 254.853862 285.278577 
L 254.98835 282.033065 
L 255.122838 283.97744 
L 255.257326 283.433982 
L 255.526303 247.111916 
L 255.795279 149.505506 
L 256.064255 170.256702 
L 256.333232 157.842971 
L 256.736697 169.47323 
L 257.005673 219.458509 
L 257.140161 226.539548 
L 257.409138 254.339176 
L 257.543626 265.953587 
L 257.678114 262.250039 
L 257.812602 264.934049 
L 257.94709 263.237373 
L 258.081579 281.935946 
L 258.216067 282.199474 
L 258.350555 280.349692 
L 258.485043 276.388563 
L 258.75402 250.174217 
L 259.022996 148.216785 
L 259.157484 169.765052 
L 259.291973 168.634537 
L 259.426461 166.526758 
L 259.560949 150.366285 
L 259.829925 176.937732 
L 259.964414 154.898637 
L 260.636855 255.070983 
L 260.905831 265.392213 
L 261.174808 261.120422 
L 261.309296 270.39285 
L 261.443784 268.793866 
L 261.578272 273.005038 
L 261.847249 264.067981 
L 261.981737 238.691954 
L 262.250713 144.792747 
L 262.385201 162.190406 
L 262.51969 163.903824 
L 262.654178 146.686723 
L 262.788666 149.815573 
L 262.923154 158.427813 
L 263.057643 150.75191 
L 263.461107 204.42619 
L 263.595595 215.252579 
L 263.864572 247.920647 
L 264.133548 257.592812 
L 264.268036 257.878732 
L 264.402525 268.446812 
L 264.537013 260.407869 
L 264.671501 264.583832 
L 265.074966 259.081091 
L 265.209454 243.197815 
L 265.747407 110.055669 
L 265.881895 111.775124 
L 266.016383 111.781652 
L 266.150871 119.487881 
L 266.419848 114.00707 
L 266.688824 157.084382 
L 267.226777 253.573669 
L 267.361265 255.400083 
L 267.495754 255.067968 
L 267.630242 273.691191 
L 267.76473 266.366246 
L 267.899218 268.281657 
L 268.033706 267.085375 
L 268.302683 274.637766 
L 268.437171 274.137958 
L 268.571659 268.502773 
L 268.840636 275.410044 
L 268.975124 271.444727 
L 269.2441 270.59264 
L 269.378589 270.385457 
L 269.782053 254.140706 
L 269.916541 255.882686 
L 270.05103 253.83275 
L 270.320006 257.252325 
L 270.454494 258.512072 
L 270.588982 262.706469 
L 270.723471 263.191094 
L 270.857959 281.832513 
L 271.126935 273.587939 
L 271.261424 274.707639 
L 271.395912 274.669589 
L 271.5304 274.420511 
L 271.664888 275.69269 
L 271.799376 275.707852 
L 271.933865 277.706659 
L 272.068353 275.734164 
L 272.202841 277.615405 
L 272.337329 275.798962 
L 272.471817 277.330999 
L 272.606306 275.705115 
L 272.740794 272.712059 
L 272.875282 274.580178 
L 273.00977 272.392142 
L 273.144258 272.776477 
L 273.278747 269.574713 
L 273.413235 270.526039 
L 273.682211 274.534533 
L 273.951188 273.558243 
L 274.085676 271.233389 
L 274.220164 291.158263 
L 274.623629 282.669484 
L 274.892605 256.503102 
L 275.161582 190.541259 
L 275.430558 157.553495 
L 275.565046 152.249327 
L 275.699535 154.977833 
L 275.834023 154.46679 
L 275.968511 177.601586 
L 276.102999 176.502834 
L 276.640952 250.945451 
L 276.909928 271.272767 
L 277.044417 271.505492 
L 277.178905 275.640136 
L 277.313393 271.425077 
L 277.447881 281.726757 
L 277.58237 278.868332 
L 277.716858 283.079507 
L 277.851346 280.749362 
L 277.985834 274.470087 
L 278.120322 261.018862 
L 278.389299 204.141107 
L 278.523787 199.699851 
L 278.658275 180.164452 
L 278.792763 185.078411 
L 278.927252 172.836859 
L 279.06174 189.188641 
L 279.196228 187.84164 
L 279.465204 208.87085 
L 280.003157 269.774984 
L 280.406622 276.045937 
L 280.54111 257.137342 
L 280.944575 264.783008 
L 281.079063 263.362674 
L 281.213551 250.572673 
L 281.348039 251.60167 
L 281.751504 131.912785 
L 281.885992 123.194022 
L 282.020481 125.814022 
L 282.154969 144.381403 
L 282.289457 144.391702 
L 282.423945 118.621378 
L 282.692922 156.283022 
L 283.230874 260.841081 
L 283.499851 262.814188 
L 283.634339 262.693283 
L 283.768827 258.100138 
L 283.903316 258.024032 
L 284.037804 258.092745 
L 284.172292 260.640766 
L 284.30678 259.903015 
L 284.575757 249.612936 
L 284.844733 161.825555 
L 284.979221 149.275964 
L 285.113709 154.220324 
L 285.248198 140.548587 
L 285.382686 140.63168 
L 285.517174 142.725364 
L 285.651662 158.092219 
L 285.78615 151.532262 
L 285.920639 153.95498 
L 286.324103 248.376248 
L 286.458592 258.107228 
L 286.59308 259.521175 
L 286.727568 263.771191 
L 286.862056 258.761189 
L 286.996544 290.969084 
L 287.265521 275.148297 
L 287.400009 274.416016 
L 287.803474 266.350392 
L 288.206938 273.634881 
L 288.341427 270.224283 
L 288.475915 270.439904 
L 288.610403 267.243114 
L 288.744891 268.677665 
L 288.879379 265.877065 
L 289.013868 268.102607 
L 289.282844 261.446077 
L 289.417332 273.435669 
L 289.686309 275.584217 
L 289.955285 272.830928 
L 290.089773 275.506584 
L 290.224262 272.910076 
L 290.35875 275.897288 
L 290.493238 273.94131 
L 290.627726 275.787287 
L 290.762214 272.989127 
L 290.896703 265.230461 
L 291.031191 264.817158 
L 291.165679 247.55427 
L 291.300167 182.849432 
L 291.434655 179.112256 
L 291.569144 179.205902 
L 291.83812 190.42926 
L 292.107096 175.76177 
L 292.510561 210.012932 
L 292.914026 267.247027 
L 293.048514 267.36394 
L 293.183002 270.881893 
L 293.31749 269.466178 
L 293.451979 266.275656 
L 293.586467 267.460518 
L 293.720955 265.56532 
L 293.855443 269.61378 
L 293.989931 268.955 
L 294.12442 259.40807 
L 294.258908 257.985569 
L 294.393396 234.165812 
L 294.527884 182.69754 
L 294.662373 176.767353 
L 294.796861 155.377084 
L 294.931349 151.81257 
L 295.200325 141.882352 
L 295.334814 152.199812 
L 295.469302 142.071303 
L 295.738278 193.910338 
L 295.872766 206.359733 
L 296.141743 262.117151 
L 296.276231 261.61352 
L 296.410719 260.294741 
L 296.545208 266.136188 
L 296.679696 292.49172 
L 296.948672 281.58378 
L 297.08316 279.206733 
L 297.352137 280.219518 
L 297.486625 278.119053 
L 297.621113 277.967331 
L 297.89009 283.351407 
L 298.159066 277.894182 
L 298.428042 278.882972 
L 298.562531 277.538461 
L 298.831507 268.515672 
L 298.965995 267.78671 
L 299.234972 269.325745 
L 299.503948 275.235167 
L 299.638436 272.967251 
L 299.772925 275.831385 
L 299.907413 255.05017 
L 300.041901 268.24164 
L 300.176389 266.456825 
L 300.310877 269.572411 
L 300.445366 268.0415 
L 300.714342 246.934719 
L 301.117807 143.466102 
L 301.386783 127.381168 
L 301.521271 129.064121 
L 301.65576 141.011352 
L 301.790248 130.669429 
L 301.924736 147.960052 
L 302.193712 199.592573 
L 302.328201 210.597395 
L 302.597177 255.122342 
L 302.731665 259.533142 
L 302.866153 257.756332 
L 303.13513 268.7669 
L 303.404106 263.754365 
L 303.538595 267.248964 
L 303.673083 266.199337 
L 304.076547 195.606576 
L 304.211036 155.457184 
L 304.345524 160.158859 
L 304.480012 160.906316 
L 304.748988 153.775395 
L 304.883477 157.980803 
L 305.017965 149.566064 
L 305.152453 159.243525 
L 305.42143 214.048555 
L 305.555918 216.655403 
L 305.824894 257.217058 
L 305.959382 267.010946 
L 306.093871 263.492578 
L 306.228359 266.286667 
L 306.362847 263.73257 
L 306.497335 278.181629 
L 306.766312 274.493673 
L 306.9008 273.474994 
L 307.035288 263.782723 
L 307.169776 241.570217 
L 307.438753 146.382499 
L 307.707729 171.093045 
L 307.976706 157.393184 
L 308.111194 159.004288 
L 308.245682 151.840487 
L 308.38017 159.558682 
L 308.783635 227.98819 
L 309.187099 268.324977 
L 309.321588 269.653188 
L 309.456076 272.219744 
L 309.590564 271.368375 
L 309.725052 274.813889 
L 309.859541 273.115833 
L 309.994029 274.173074 
L 310.128517 272.990628 
L 310.263005 265.249745 
L 310.397493 237.9933 
L 310.66647 147.86664 
L 310.935446 169.830814 
L 311.204423 157.693875 
L 311.338911 159.090526 
L 311.473399 159.379599 
L 311.607887 156.963084 
L 312.14584 247.541438 
L 312.414817 265.23382 
L 312.549305 264.746962 
L 312.818281 269.652438 
L 312.952769 271.491933 
L 313.087258 268.853145 
L 313.221746 271.413791 
L 313.356234 270.072983 
L 313.490722 272.052068 
L 313.894187 249.105582 
L 314.028675 259.957732 
L 314.163163 255.766764 
L 314.297652 257.423254 
L 314.43214 254.042098 
L 314.701116 263.381806 
L 314.835604 262.763606 
L 314.970093 264.041516 
L 315.104581 267.263639 
L 315.373557 265.070678 
L 315.508045 268.542739 
L 315.642534 268.076971 
L 315.777022 268.504499 
L 315.91151 267.554411 
L 316.045998 269.589638 
L 316.180487 269.665574 
L 316.314975 271.190535 
L 316.449463 269.761949 
L 316.583951 271.269359 
L 316.718439 271.078768 
L 316.852928 271.482128 
L 316.987416 270.881204 
L 317.121904 272.486517 
L 317.256392 271.840176 
L 317.39088 270.163986 
L 317.525369 270.003246 
L 317.659857 267.982693 
L 317.794345 271.765511 
L 318.063322 265.493524 
L 318.19781 264.515499 
L 318.332298 265.304746 
L 318.466786 263.257503 
L 318.601274 265.351632 
L 318.735763 264.377821 
L 318.870251 266.989013 
L 319.139227 264.178596 
L 319.273715 264.461395 
L 319.408204 283.451053 
L 319.67718 277.073458 
L 319.811668 275.802305 
L 319.946157 270.301401 
L 320.080645 251.895715 
L 320.349621 147.308306 
L 320.484109 130.53947 
L 320.618598 127.982808 
L 320.887574 143.364808 
L 321.022062 146.734424 
L 321.291039 171.758262 
L 321.694503 219.974114 
L 321.96348 264.666421 
L 322.097968 265.790539 
L 322.232456 264.168753 
L 322.366944 268.063319 
L 322.501433 266.272111 
L 322.635921 282.822044 
L 322.904897 278.387838 
L 323.039385 276.002417 
L 323.308362 257.45854 
L 323.577338 150.906215 
L 323.711826 158.242412 
L 323.846315 174.027979 
L 324.115291 153.687487 
L 324.249779 153.742688 
L 324.384268 152.747741 
L 324.518756 157.982907 
L 324.787732 202.352162 
L 324.92222 214.769236 
L 325.191197 262.467241 
L 325.325685 262.761328 
L 325.460173 262.364703 
L 325.594661 266.637575 
L 325.72915 265.878074 
L 325.863638 278.667423 
L 325.998126 278.342671 
L 326.132614 278.848824 
L 326.267103 276.668133 
L 326.401591 269.55113 
L 326.536079 249.81765 
L 326.805055 143.786133 
L 327.074032 174.608461 
L 327.343008 158.361156 
L 327.477496 163.01179 
L 327.611985 159.522434 
L 327.746473 161.249862 
L 327.880961 177.542256 
L 328.149937 225.601834 
L 328.553402 263.21079 
L 328.822379 271.241232 
L 328.956867 270.954641 
L 329.091355 285.187843 
L 329.225843 279.52003 
L 329.360331 279.035106 
L 329.49482 275.542419 
L 329.763796 250.084906 
L 330.032772 159.245071 
L 330.167261 160.915997 
L 330.301749 170.308046 
L 330.705214 156.31853 
L 330.97419 180.554618 
L 331.108678 185.063301 
L 331.243166 196.382249 
L 331.646631 261.480226 
L 331.781119 262.929461 
L 331.915607 263.057309 
L 332.050096 264.530812 
L 332.184584 268.569576 
L 332.319072 283.272067 
L 332.588049 275.235432 
L 332.722537 275.52045 
L 332.991513 249.061981 
L 333.26049 153.71135 
L 333.394978 162.464926 
L 333.529466 178.874305 
L 333.798442 162.279899 
L 333.932931 162.131039 
L 334.067419 163.512259 
L 334.470883 205.184888 
L 334.73986 259.180484 
L 335.277813 275.279408 
L 335.546789 271.196041 
L 335.815766 269.905727 
L 336.084742 272.743728 
L 336.353718 261.122848 
L 336.488207 261.281213 
L 336.757183 253.375958 
L 336.891671 254.714286 
L 337.02616 252.995715 
L 337.698601 267.024304 
L 337.833089 267.637544 
L 337.967577 266.277456 
L 338.102065 270.005297 
L 338.236553 270.01369 
L 338.50553 268.524265 
L 338.640018 264.609025 
L 338.908995 267.827668 
L 339.043483 267.709644 
L 339.312459 270.064904 
L 339.446947 269.036273 
L 339.715924 271.658423 
L 340.119388 267.86429 
L 340.253877 269.233396 
L 340.388365 268.624618 
L 340.522853 271.620214 
L 340.657341 267.98181 
L 340.926318 269.311065 
L 341.060806 269.555151 
L 341.195294 264.955388 
L 341.464271 270.83419 
L 341.733247 269.122187 
L 341.867735 271.410934 
L 342.002223 284.358517 
L 342.2712 278.246255 
L 342.405688 278.327407 
L 342.674664 253.958276 
L 342.943641 150.538948 
L 343.078129 136.345089 
L 343.347106 169.668396 
L 343.481594 161.904879 
L 343.75057 171.628829 
L 344.154035 202.81659 
L 344.423011 259.222084 
L 344.557499 262.240874 
L 344.691988 262.126965 
L 344.960964 272.92397 
L 345.095452 272.223651 
L 345.22994 282.203079 
L 345.364429 279.847948 
L 345.498917 280.525215 
L 345.633405 278.561997 
L 345.767893 270.109498 
L 345.902382 254.335917 
L 346.171358 158.798311 
L 346.440334 177.448254 
L 346.709311 167.144678 
L 346.843799 167.46426 
L 346.978287 170.028906 
L 347.247264 187.652701 
L 347.785217 260.426442 
L 348.188681 271.435973 
L 348.323169 268.012616 
L 348.457658 282.813913 
L 348.592146 278.124606 
L 348.726634 280.016239 
L 348.861122 277.167625 
L 349.130099 249.975469 
L 349.399075 158.563301 
L 349.533563 168.942288 
L 349.668052 169.279621 
L 349.937028 162.202988 
L 350.071516 162.358814 
L 350.206004 165.791578 
L 350.474981 191.439962 
L 350.743957 235.68762 
L 351.012934 260.254365 
L 351.147422 268.169271 
L 351.28191 267.89006 
L 351.416398 271.670791 
L 351.550886 271.387186 
L 351.685375 286.28885 
L 351.819863 278.255568 
L 351.954351 277.591771 
L 352.088839 276.244839 
L 352.223328 273.135796 
L 352.357816 255.527268 
L 352.626792 157.34723 
L 352.895769 173.801555 
L 353.164745 165.109227 
L 353.299233 166.389754 
L 353.433721 165.300444 
L 353.702698 157.026811 
L 354.106163 254.645522 
L 354.375139 269.187127 
L 354.913092 278.97383 
L 355.04758 277.730338 
L 355.182068 277.829126 
L 355.316556 277.094605 
L 355.451045 271.246418 
L 355.585533 249.956654 
L 355.854509 184.220578 
L 355.988998 181.052048 
L 356.257974 157.62574 
L 356.392462 158.763677 
L 356.661439 164.292251 
L 356.930415 185.940813 
L 357.199391 235.449244 
L 357.468368 271.38519 
L 357.871832 276.157472 
L 358.006321 280.511957 
L 358.275297 276.679448 
L 358.409785 277.244138 
L 358.544274 276.701485 
L 358.81325 273.599573 
L 359.082226 256.580013 
L 359.216715 252.686758 
L 359.485691 253.451928 
L 359.620179 246.150974 
L 359.889156 261.660335 
L 360.023644 261.330639 
L 360.427109 278.020245 
L 360.561597 275.404093 
L 360.696085 275.783095 
L 360.830573 277.424934 
L 360.965061 277.475639 
L 361.09955 278.047036 
L 361.368526 277.830623 
L 361.503014 276.683807 
L 361.637502 278.419081 
L 361.906479 275.275514 
L 362.175455 280.310541 
L 362.309944 279.830751 
L 362.444432 275.494409 
L 362.57892 275.110116 
L 362.713408 273.424855 
L 362.982385 276.80449 
L 363.251361 271.136562 
L 363.520337 274.587402 
L 363.654826 272.792846 
L 363.789314 273.058274 
L 364.192778 276.212855 
L 364.327267 222.036964 
L 364.596243 248.774254 
L 364.86522 257.937428 
L 364.999708 253.089896 
L 365.268684 196.629974 
L 365.537661 118.957522 
L 365.672149 104.010038 
L 365.806637 105.022121 
L 365.941125 104.995232 
L 366.075613 113.740465 
L 366.210102 107.851853 
L 366.34459 110.371721 
L 366.479078 118.175987 
L 366.613566 143.479417 
L 366.882543 238.635661 
L 367.151519 255.316651 
L 367.286007 258.808168 
L 367.420496 254.584323 
L 367.554984 265.513063 
L 367.689472 266.148526 
L 367.82396 264.506779 
L 368.092937 269.360971 
L 368.765378 96.114489 
L 368.899866 100.862386 
L 369.034354 98.401715 
L 369.303331 85.985413 
L 369.437819 86.665529 
L 369.572307 107.797013 
L 369.706795 102.430698 
L 369.975772 185.31667 
L 370.11026 234.935936 
L 370.244748 231.577865 
L 370.648213 261.068121 
L 370.782701 290.137555 
L 371.051677 277.95353 
L 371.320654 275.375448 
L 371.58963 245.773327 
L 371.858607 153.065726 
L 371.993095 160.571962 
L 372.262071 213.252332 
L 372.396559 192.192253 
L 372.531048 194.687374 
L 372.800024 189.655851 
L 372.934512 199.042462 
L 373.069001 233.564617 
L 373.203489 232.674125 
L 373.472465 260.453997 
L 373.606953 262.348805 
L 373.741442 266.600843 
L 373.87593 267.099209 
L 374.144906 292.554915 
L 374.279394 285.743782 
L 374.413883 285.752506 
L 374.548371 282.931968 
L 374.817347 250.301386 
L 375.086324 194.908213 
L 375.3553 173.096818 
L 375.489788 175.749548 
L 375.624277 175.296326 
L 375.758765 179.503689 
L 376.162229 201.536006 
L 376.431206 234.255576 
L 376.700182 264.738205 
L 376.83467 267.347721 
L 376.969159 266.640207 
L 377.103647 267.58035 
L 377.238135 286.511791 
L 377.372623 276.701785 
L 377.507112 277.360567 
L 377.6416 277.136576 
L 377.776088 272.755304 
L 377.910576 280.082413 
L 378.045064 271.173475 
L 378.179553 271.281896 
L 378.314041 258.414149 
L 378.448529 266.552572 
L 378.583017 254.660863 
L 378.717505 260.300964 
L 378.851994 258.333051 
L 378.986482 268.589544 
L 379.12097 260.633112 
L 379.524435 263.569746 
L 379.793411 272.895563 
L 379.927899 273.865617 
L 380.062388 277.116764 
L 380.196876 274.601358 
L 380.331364 275.739383 
L 380.465852 259.983467 
L 380.734829 268.451591 
L 380.869317 270.55412 
L 381.003805 270.183589 
L 381.138293 255.726262 
L 381.272782 256.499691 
L 381.676246 143.329936 
L 381.945223 140.616135 
L 382.214199 146.772842 
L 382.348687 146.776306 
L 382.483175 139.709111 
L 383.155616 263.086516 
L 383.424593 267.888714 
L 383.559081 267.860528 
L 383.693569 258.585623 
L 384.231522 263.081135 
L 384.36601 259.372302 
L 384.500499 261.076962 
L 384.903963 159.817384 
L 385.038451 156.903314 
L 385.17294 137.672287 
L 385.307428 144.76231 
L 385.441916 170.259371 
L 385.576404 163.810001 
L 385.710893 165.360807 
L 385.845381 201.187092 
L 385.979869 206.789979 
L 386.383334 266.263975 
L 386.517822 267.013524 
L 386.65231 271.918097 
L 386.786798 269.222886 
L 386.921286 281.700224 
L 387.190263 273.987565 
L 387.324751 275.879854 
L 387.593727 273.252668 
L 387.728216 273.511998 
L 387.862704 274.629679 
L 387.997192 279.682426 
L 388.13168 276.67581 
L 388.266169 278.156509 
L 388.400657 273.131356 
L 388.669633 276.675452 
L 388.804121 270.593061 
L 388.93861 272.229464 
L 389.073098 265.581171 
L 389.611051 285.756531 
L 389.745539 281.088775 
L 389.880027 282.157488 
L 390.014515 281.368258 
L 390.149004 250.83606 
L 390.41798 263.102433 
L 390.552468 265.635692 
L 390.686956 265.240939 
L 390.821445 252.481883 
L 390.955933 254.904568 
L 391.090421 239.621096 
L 391.224909 181.526108 
L 391.359397 181.908094 
L 391.493886 150.912123 
L 391.762862 165.169166 
L 392.031839 173.378961 
L 392.166327 164.514686 
L 392.435303 197.147465 
L 392.838768 272.122741 
L 392.973256 271.12736 
L 393.107744 272.509933 
L 393.242232 269.329825 
L 393.376721 255.870977 
L 393.511209 257.058739 
L 393.645697 267.741221 
L 393.780185 268.264326 
L 393.914673 260.35438 
L 394.049162 263.377552 
L 394.18365 245.119689 
L 394.587115 151.034098 
L 394.721603 152.326143 
L 394.856091 140.652999 
L 394.990579 141.961567 
L 395.125067 145.289958 
L 395.259556 143.301231 
L 395.394044 162.177365 
L 395.528532 162.519394 
L 395.797508 217.850929 
L 396.066485 256.985051 
L 396.200973 262.163033 
L 396.335461 262.924127 
L 396.46995 252.5675 
L 396.604438 295.488 
L 396.738926 282.856992 
L 396.873414 281.698479 
L 397.007902 279.417222 
L 397.142391 281.32358 
L 397.411367 253.149729 
L 397.680343 175.527654 
L 397.814832 174.73468 
L 398.218296 156.696078 
L 398.352785 165.267013 
L 398.487273 161.997914 
L 398.487273 161.997914 
" clip-path="url(#p1296771ab6)" style="fill: none; stroke: #ff7f0e; stroke-width: 1.5; stroke-linecap: square"/>
   </g>
   <g id="patch_3">
    <path d="M 57.6 307.584 
L 57.6 41.472 
" style="fill: none; stroke: #000000; stroke-width: 0.8; stroke-linejoin: miter; stroke-linecap: square"/>
   </g>
   <g id="patch_4">
    <path d="M 414.72 307.584 
L 414.72 41.472 
" style="fill: none; stroke: #000000; stroke-width: 0.8; stroke-linejoin: miter; stroke-linecap: square"/>
   </g>
   <g id="patch_5">
    <path d="M 57.6 307.584 
L 414.72 307.584 
" style="fill: none; stroke: #000000; stroke-width: 0.8; stroke-linejoin: miter; stroke-linecap: square"/>
   </g>
   <g id="patch_6">
    <path d="M 57.6 41.472 
L 414.72 41.472 
" style="fill: none; stroke: #000000; stroke-width: 0.8; stroke-linejoin: miter; stroke-linecap: square"/>
   </g>
  </g>
 </g>
 <defs>
  <clipPath id="p1296771ab6">
   <rect x="57.6" y="41.472" width="357.12" height="266.112"/>
  </clipPath>
 </defs>
</svg>
