<?xml version="1.0" encoding="utf-8" standalone="no"?>
<!DOCTYPE svg PUBLIC "-//W3C//DTD SVG 1.1//EN"
  "http://www.w3.org/Graphics/SVG/1.1/DTD/svg11.dtd">
<svg xmlns:xlink="http://www.w3.org/1999/xlink" width="460.8pt" height="345.6pt" viewBox="0 0 460.8 345.6" xmlns="http://www.w3.org/2000/svg" version="1.1">
 <metadata>
  <rdf:RDF xmlns:dc="http://purl.org/dc/elements/1.1/" xmlns:cc="http://creativecommons.org/ns#" xmlns:rdf="http://www.w3.org/1999/02/22-rdf-syntax-ns#">
   <cc:Work>
    <dc:type rdf:resource="http://purl.org/dc/dcmitype/StillImage"/>
    <dc:date>2023-04-04T03:59:32.174866</dc:date>
    <dc:format>image/svg+xml</dc:format>
    <dc:creator>
     <cc:Agent>
      <dc:title>Matplotlib v3.5.2, https://matplotlib.org/</dc:title>
     </cc:Agent>
    </dc:creator>
   </cc:Work>
  </rdf:RDF>
 </metadata>
 <defs>
  <style type="text/css">*{stroke-linejoin: round; stroke-linecap: butt}</style>
 </defs>
 <g id="figure_1">
  <g id="patch_1">
   <path d="M 0 345.6 
L 460.8 345.6 
L 460.8 0 
L 0 0 
z
" style="fill: #ffffff"/>
  </g>
  <g id="axes_1">
   <g id="patch_2">
    <path d="M 57.6 307.584 
L 414.72 307.584 
L 414.72 41.472 
L 57.6 41.472 
z
" style="fill: #ffffff"/>
   </g>
   <g id="matplotlib.axis_1">
    <g id="xtick_1">
     <g id="line2d_1">
      <defs>
       <path id="m5ebc8d3c60" d="M 0 0 
L 0 3.5 
" style="stroke: #000000; stroke-width: 0.8"/>
      </defs>
      <g>
       <use xlink:href="#m5ebc8d3c60" x="73.832727" y="307.584" style="stroke: #000000; stroke-width: 0.8"/>
      </g>
     </g>
     <g id="text_1">
      <!-- 0 -->
      <g transform="translate(70.651477 322.182437)scale(0.1 -0.1)">
       <defs>
        <path id="DejaVuSans-30" d="M 2034 4250 
Q 1547 4250 1301 3770 
Q 1056 3291 1056 2328 
Q 1056 1369 1301 889 
Q 1547 409 2034 409 
Q 2525 409 2770 889 
Q 3016 1369 3016 2328 
Q 3016 3291 2770 3770 
Q 2525 4250 2034 4250 
z
M 2034 4750 
Q 2819 4750 3233 4129 
Q 3647 3509 3647 2328 
Q 3647 1150 3233 529 
Q 2819 -91 2034 -91 
Q 1250 -91 836 529 
Q 422 1150 422 2328 
Q 422 3509 836 4129 
Q 1250 4750 2034 4750 
z
" transform="scale(0.015625)"/>
       </defs>
       <use xlink:href="#DejaVuSans-30"/>
      </g>
     </g>
    </g>
    <g id="xtick_2">
     <g id="line2d_2">
      <g>
       <use xlink:href="#m5ebc8d3c60" x="141.076834" y="307.584" style="stroke: #000000; stroke-width: 0.8"/>
      </g>
     </g>
     <g id="text_2">
      <!-- 500 -->
      <g transform="translate(131.533084 322.182437)scale(0.1 -0.1)">
       <defs>
        <path id="DejaVuSans-35" d="M 691 4666 
L 3169 4666 
L 3169 4134 
L 1269 4134 
L 1269 2991 
Q 1406 3038 1543 3061 
Q 1681 3084 1819 3084 
Q 2600 3084 3056 2656 
Q 3513 2228 3513 1497 
Q 3513 744 3044 326 
Q 2575 -91 1722 -91 
Q 1428 -91 1123 -41 
Q 819 9 494 109 
L 494 744 
Q 775 591 1075 516 
Q 1375 441 1709 441 
Q 2250 441 2565 725 
Q 2881 1009 2881 1497 
Q 2881 1984 2565 2268 
Q 2250 2553 1709 2553 
Q 1456 2553 1204 2497 
Q 953 2441 691 2322 
L 691 4666 
z
" transform="scale(0.015625)"/>
       </defs>
       <use xlink:href="#DejaVuSans-35"/>
       <use xlink:href="#DejaVuSans-30" x="63.623047"/>
       <use xlink:href="#DejaVuSans-30" x="127.246094"/>
      </g>
     </g>
    </g>
    <g id="xtick_3">
     <g id="line2d_3">
      <g>
       <use xlink:href="#m5ebc8d3c60" x="208.32094" y="307.584" style="stroke: #000000; stroke-width: 0.8"/>
      </g>
     </g>
     <g id="text_3">
      <!-- 1000 -->
      <g transform="translate(195.59594 322.182437)scale(0.1 -0.1)">
       <defs>
        <path id="DejaVuSans-31" d="M 794 531 
L 1825 531 
L 1825 4091 
L 703 3866 
L 703 4441 
L 1819 4666 
L 2450 4666 
L 2450 531 
L 3481 531 
L 3481 0 
L 794 0 
L 794 531 
z
" transform="scale(0.015625)"/>
       </defs>
       <use xlink:href="#DejaVuSans-31"/>
       <use xlink:href="#DejaVuSans-30" x="63.623047"/>
       <use xlink:href="#DejaVuSans-30" x="127.246094"/>
       <use xlink:href="#DejaVuSans-30" x="190.869141"/>
      </g>
     </g>
    </g>
    <g id="xtick_4">
     <g id="line2d_4">
      <g>
       <use xlink:href="#m5ebc8d3c60" x="275.565046" y="307.584" style="stroke: #000000; stroke-width: 0.8"/>
      </g>
     </g>
     <g id="text_4">
      <!-- 1500 -->
      <g transform="translate(262.840046 322.182437)scale(0.1 -0.1)">
       <use xlink:href="#DejaVuSans-31"/>
       <use xlink:href="#DejaVuSans-35" x="63.623047"/>
       <use xlink:href="#DejaVuSans-30" x="127.246094"/>
       <use xlink:href="#DejaVuSans-30" x="190.869141"/>
      </g>
     </g>
    </g>
    <g id="xtick_5">
     <g id="line2d_5">
      <g>
       <use xlink:href="#m5ebc8d3c60" x="342.809153" y="307.584" style="stroke: #000000; stroke-width: 0.8"/>
      </g>
     </g>
     <g id="text_5">
      <!-- 2000 -->
      <g transform="translate(330.084153 322.182437)scale(0.1 -0.1)">
       <defs>
        <path id="DejaVuSans-32" d="M 1228 531 
L 3431 531 
L 3431 0 
L 469 0 
L 469 531 
Q 828 903 1448 1529 
Q 2069 2156 2228 2338 
Q 2531 2678 2651 2914 
Q 2772 3150 2772 3378 
Q 2772 3750 2511 3984 
Q 2250 4219 1831 4219 
Q 1534 4219 1204 4116 
Q 875 4013 500 3803 
L 500 4441 
Q 881 4594 1212 4672 
Q 1544 4750 1819 4750 
Q 2544 4750 2975 4387 
Q 3406 4025 3406 3419 
Q 3406 3131 3298 2873 
Q 3191 2616 2906 2266 
Q 2828 2175 2409 1742 
Q 1991 1309 1228 531 
z
" transform="scale(0.015625)"/>
       </defs>
       <use xlink:href="#DejaVuSans-32"/>
       <use xlink:href="#DejaVuSans-30" x="63.623047"/>
       <use xlink:href="#DejaVuSans-30" x="127.246094"/>
       <use xlink:href="#DejaVuSans-30" x="190.869141"/>
      </g>
     </g>
    </g>
    <g id="xtick_6">
     <g id="line2d_6">
      <g>
       <use xlink:href="#m5ebc8d3c60" x="410.053259" y="307.584" style="stroke: #000000; stroke-width: 0.8"/>
      </g>
     </g>
     <g id="text_6">
      <!-- 2500 -->
      <g transform="translate(397.328259 322.182437)scale(0.1 -0.1)">
       <use xlink:href="#DejaVuSans-32"/>
       <use xlink:href="#DejaVuSans-35" x="63.623047"/>
       <use xlink:href="#DejaVuSans-30" x="127.246094"/>
       <use xlink:href="#DejaVuSans-30" x="190.869141"/>
      </g>
     </g>
    </g>
   </g>
   <g id="matplotlib.axis_2">
    <g id="ytick_1">
     <g id="line2d_7">
      <defs>
       <path id="ma493d935ad" d="M 0 0 
L -3.5 0 
" style="stroke: #000000; stroke-width: 0.8"/>
      </defs>
      <g>
       <use xlink:href="#ma493d935ad" x="57.6" y="280.209544" style="stroke: #000000; stroke-width: 0.8"/>
      </g>
     </g>
     <g id="text_7">
      <!-- 100 -->
      <g transform="translate(31.5125 284.008763)scale(0.1 -0.1)">
       <use xlink:href="#DejaVuSans-31"/>
       <use xlink:href="#DejaVuSans-30" x="63.623047"/>
       <use xlink:href="#DejaVuSans-30" x="127.246094"/>
      </g>
     </g>
    </g>
    <g id="ytick_2">
     <g id="line2d_8">
      <g>
       <use xlink:href="#ma493d935ad" x="57.6" y="232.453208" style="stroke: #000000; stroke-width: 0.8"/>
      </g>
     </g>
     <g id="text_8">
      <!-- 200 -->
      <g transform="translate(31.5125 236.252426)scale(0.1 -0.1)">
       <use xlink:href="#DejaVuSans-32"/>
       <use xlink:href="#DejaVuSans-30" x="63.623047"/>
       <use xlink:href="#DejaVuSans-30" x="127.246094"/>
      </g>
     </g>
    </g>
    <g id="ytick_3">
     <g id="line2d_9">
      <g>
       <use xlink:href="#ma493d935ad" x="57.6" y="184.696871" style="stroke: #000000; stroke-width: 0.8"/>
      </g>
     </g>
     <g id="text_9">
      <!-- 300 -->
      <g transform="translate(31.5125 188.49609)scale(0.1 -0.1)">
       <defs>
        <path id="DejaVuSans-33" d="M 2597 2516 
Q 3050 2419 3304 2112 
Q 3559 1806 3559 1356 
Q 3559 666 3084 287 
Q 2609 -91 1734 -91 
Q 1441 -91 1130 -33 
Q 819 25 488 141 
L 488 750 
Q 750 597 1062 519 
Q 1375 441 1716 441 
Q 2309 441 2620 675 
Q 2931 909 2931 1356 
Q 2931 1769 2642 2001 
Q 2353 2234 1838 2234 
L 1294 2234 
L 1294 2753 
L 1863 2753 
Q 2328 2753 2575 2939 
Q 2822 3125 2822 3475 
Q 2822 3834 2567 4026 
Q 2313 4219 1838 4219 
Q 1578 4219 1281 4162 
Q 984 4106 628 3988 
L 628 4550 
Q 988 4650 1302 4700 
Q 1616 4750 1894 4750 
Q 2613 4750 3031 4423 
Q 3450 4097 3450 3541 
Q 3450 3153 3228 2886 
Q 3006 2619 2597 2516 
z
" transform="scale(0.015625)"/>
       </defs>
       <use xlink:href="#DejaVuSans-33"/>
       <use xlink:href="#DejaVuSans-30" x="63.623047"/>
       <use xlink:href="#DejaVuSans-30" x="127.246094"/>
      </g>
     </g>
    </g>
    <g id="ytick_4">
     <g id="line2d_10">
      <g>
       <use xlink:href="#ma493d935ad" x="57.6" y="136.940535" style="stroke: #000000; stroke-width: 0.8"/>
      </g>
     </g>
     <g id="text_10">
      <!-- 400 -->
      <g transform="translate(31.5125 140.739753)scale(0.1 -0.1)">
       <defs>
        <path id="DejaVuSans-34" d="M 2419 4116 
L 825 1625 
L 2419 1625 
L 2419 4116 
z
M 2253 4666 
L 3047 4666 
L 3047 1625 
L 3713 1625 
L 3713 1100 
L 3047 1100 
L 3047 0 
L 2419 0 
L 2419 1100 
L 313 1100 
L 313 1709 
L 2253 4666 
z
" transform="scale(0.015625)"/>
       </defs>
       <use xlink:href="#DejaVuSans-34"/>
       <use xlink:href="#DejaVuSans-30" x="63.623047"/>
       <use xlink:href="#DejaVuSans-30" x="127.246094"/>
      </g>
     </g>
    </g>
    <g id="ytick_5">
     <g id="line2d_11">
      <g>
       <use xlink:href="#ma493d935ad" x="57.6" y="89.184198" style="stroke: #000000; stroke-width: 0.8"/>
      </g>
     </g>
     <g id="text_11">
      <!-- 500 -->
      <g transform="translate(31.5125 92.983417)scale(0.1 -0.1)">
       <use xlink:href="#DejaVuSans-35"/>
       <use xlink:href="#DejaVuSans-30" x="63.623047"/>
       <use xlink:href="#DejaVuSans-30" x="127.246094"/>
      </g>
     </g>
    </g>
   </g>
   <g id="line2d_12">
    <path d="M 73.832727 283.277411 
L 74.101704 282.728691 
L 74.236192 281.619311 
L 74.37068 282.582079 
L 74.505168 282.090189 
L 74.639657 282.691441 
L 74.774145 276.227143 
L 74.908633 249.142614 
L 75.177609 247.651184 
L 75.312098 248.206113 
L 75.446586 248.258645 
L 75.581074 249.124467 
L 75.715562 248.368962 
L 75.85005 248.346994 
L 76.253515 243.366963 
L 76.522492 277.3881 
L 76.65698 277.700904 
L 76.925956 275.996002 
L 77.060444 267.149619 
L 77.194933 269.390824 
L 77.463909 269.454339 
L 77.598397 271.036984 
L 77.732885 265.716451 
L 77.867374 252.323664 
L 78.405327 104.054089 
L 78.674303 103.133346 
L 78.808791 110.263845 
L 78.943279 105.466244 
L 79.481232 158.108053 
L 79.750209 228.408723 
L 80.019185 263.093195 
L 80.153673 265.215009 
L 80.288161 261.384474 
L 80.42265 271.769089 
L 80.557138 271.334984 
L 80.826114 273.839804 
L 80.960603 271.30251 
L 81.095091 261.000035 
L 81.364067 168.284451 
L 81.498555 180.571679 
L 81.767532 161.188337 
L 82.036508 169.18227 
L 82.170996 166.084794 
L 82.305485 160.116685 
L 83.112414 260.522472 
L 83.650367 286.677185 
L 83.784855 286.69772 
L 83.919343 288.22449 
L 84.053831 288.41647 
L 84.18832 286.321878 
L 84.322808 279.105418 
L 84.726273 189.073739 
L 84.860761 180.418381 
L 84.995249 184.510144 
L 85.129737 169.645029 
L 85.264225 178.177176 
L 85.398714 178.923608 
L 85.66769 187.210287 
L 85.802178 195.970232 
L 86.340131 262.645719 
L 86.474619 264.65626 
L 86.609107 269.560836 
L 86.878084 287.058758 
L 87.012572 289.307126 
L 87.14706 288.98095 
L 87.281549 290.469993 
L 87.416037 290.373048 
L 87.550525 289.562623 
L 87.819501 262.09079 
L 87.95399 262.236447 
L 88.088478 256.556786 
L 88.222966 258.014787 
L 88.357454 257.257849 
L 88.491942 253.903444 
L 88.626431 256.734917 
L 88.760919 249.74912 
L 88.895407 252.623096 
L 89.029895 252.621664 
L 89.164384 255.179493 
L 89.43336 276.455418 
L 89.567848 278.116861 
L 89.702336 277.61924 
L 89.836825 278.677998 
L 89.971313 263.546403 
L 90.105801 264.258928 
L 90.240289 265.801457 
L 90.374777 265.571272 
L 90.509266 266.805773 
L 90.643754 266.977218 
L 90.778242 269.074199 
L 90.91273 265.854944 
L 91.047218 255.927835 
L 91.181707 254.758282 
L 91.316195 247.835046 
L 91.450683 252.264446 
L 91.585171 250.300706 
L 91.71966 251.797389 
L 91.854148 252.023277 
L 92.123124 255.002794 
L 92.257612 254.430674 
L 92.526589 260.019598 
L 92.795565 266.609495 
L 92.930053 267.563666 
L 93.064542 266.4242 
L 93.19903 276.432018 
L 93.468006 276.556662 
L 93.602495 277.616375 
L 93.736983 276.383306 
L 93.871471 273.862249 
L 94.005959 268.647257 
L 94.6784 161.475352 
L 94.812888 157.080814 
L 95.081865 168.93346 
L 95.216353 163.7199 
L 95.350841 152.459911 
L 96.023282 264.982914 
L 96.157771 265.712153 
L 96.426747 269.637724 
L 96.561235 269.304385 
L 96.695723 269.38175 
L 96.830212 271.263827 
L 96.9647 270.62628 
L 97.099188 269.199321 
L 97.233676 260.73451 
L 97.368164 243.17737 
L 97.502653 202.168527 
L 97.637141 195.074801 
L 97.771629 179.607001 
L 97.906117 188.000177 
L 98.040606 181.288979 
L 98.175094 181.998638 
L 98.309582 176.68097 
L 98.44407 178.322833 
L 98.713047 189.688841 
L 98.982023 231.62368 
L 99.250999 266.464315 
L 99.385488 271.149689 
L 99.519976 271.903762 
L 99.654464 281.706705 
L 99.788952 281.719122 
L 99.923441 280.718149 
L 100.192417 281.955993 
L 100.326905 282.036701 
L 100.461393 281.381962 
L 100.595882 281.787891 
L 100.73037 282.616463 
L 100.864858 281.078232 
L 100.999346 282.233935 
L 101.133834 281.326087 
L 101.268323 279.111148 
L 101.402811 272.087146 
L 101.537299 276.358473 
L 101.806276 265.974335 
L 101.940764 268.134832 
L 102.075252 267.98631 
L 102.20974 268.634363 
L 102.344228 271.012629 
L 102.478717 276.829828 
L 102.613205 274.977837 
L 102.747693 280.646992 
L 102.882181 267.191644 
L 103.016669 267.220298 
L 103.151158 272.125829 
L 103.285646 271.906627 
L 103.554622 267.726515 
L 103.68911 263.538762 
L 103.823599 246.115818 
L 104.092575 183.857792 
L 104.227063 162.377947 
L 104.361552 169.541398 
L 104.630528 144.670853 
L 105.033993 159.985832 
L 105.168481 170.76396 
L 105.706434 253.814617 
L 105.840922 253.692361 
L 105.97541 262.389745 
L 106.109898 278.819357 
L 106.378875 282.008048 
L 106.513363 281.994198 
L 106.647851 284.150874 
L 106.782339 283.882484 
L 106.916828 284.993774 
L 107.320292 247.428162 
L 107.45478 254.490847 
L 107.589269 251.957373 
L 107.723757 252.05002 
L 108.26171 246.987849 
L 108.396198 243.581389 
L 108.530686 245.840741 
L 108.934151 277.445407 
L 109.068639 278.960238 
L 109.203127 277.893362 
L 109.337615 273.398535 
L 109.606592 274.946796 
L 109.875568 275.998868 
L 110.144545 277.047597 
L 110.413521 275.81023 
L 110.548009 275.675557 
L 110.951474 271.627253 
L 111.085962 272.800148 
L 111.22045 272.45296 
L 111.623915 266.660116 
L 111.758403 267.167766 
L 112.02738 270.947203 
L 112.430844 272.543697 
L 112.565333 262.309036 
L 112.834309 266.505863 
L 112.968797 267.028795 
L 113.103285 268.536463 
L 113.237774 268.714594 
L 113.50675 271.328776 
L 113.641238 272.157826 
L 114.313679 260.939385 
L 114.448168 260.578824 
L 114.582656 259.098855 
L 114.98612 248.284433 
L 115.524073 259.329519 
L 115.658561 259.878716 
L 115.927538 262.100819 
L 116.062026 260.819039 
L 116.196514 266.906061 
L 116.331002 266.489626 
L 116.465491 267.099475 
L 116.599979 257.36148 
L 117.137932 79.073704 
L 117.406908 64.40439 
L 117.810373 80.90707 
L 118.213837 147.958399 
L 118.482814 210.159117 
L 118.75179 244.515025 
L 118.886279 246.045616 
L 119.289743 254.021879 
L 119.424231 255.4369 
L 119.55872 258.201991 
L 119.693208 258.518138 
L 119.827696 248.923413 
L 120.365649 91.902966 
L 120.634625 73.377328 
L 120.769114 77.060775 
L 120.903602 70.655217 
L 121.03809 71.980456 
L 121.441555 135.273838 
L 121.710531 201.959832 
L 121.845019 230.078762 
L 122.248484 241.019739 
L 122.51746 256.501866 
L 122.651948 256.660894 
L 122.786437 258.395882 
L 122.920925 257.058227 
L 123.055413 248.915294 
L 123.727854 60.456374 
L 123.862342 53.568 
L 124.534783 107.582327 
L 125.072736 248.218052 
L 125.207225 253.377646 
L 125.341713 253.839928 
L 125.476201 253.793604 
L 125.745177 267.363567 
L 125.879666 268.797212 
L 126.014154 269.026443 
L 126.28313 255.604524 
L 126.821083 93.006138 
L 126.955571 74.694926 
L 127.09006 81.278614 
L 127.359036 105.76281 
L 127.493524 108.200294 
L 127.762501 126.657163 
L 127.896989 149.410192 
L 128.300453 246.603888 
L 128.434942 252.393388 
L 128.56943 250.570051 
L 128.703918 258.054902 
L 128.838406 258.777455 
L 129.241871 265.456179 
L 129.510847 244.790102 
L 130.0488 83.447707 
L 130.183288 74.358721 
L 130.317777 86.251482 
L 130.452265 115.013213 
L 130.586753 114.096769 
L 130.721241 110.457258 
L 130.855729 116.833684 
L 131.124706 169.992218 
L 131.393682 235.496241 
L 131.662659 258.547747 
L 131.931635 258.351946 
L 132.066123 258.169995 
L 132.3351 269.417567 
L 132.469588 269.269522 
L 132.604076 269.368378 
L 132.738564 269.32683 
L 133.007541 257.461291 
L 133.276517 247.024143 
L 133.679982 241.458142 
L 133.81447 240.278561 
L 133.948958 235.190601 
L 134.486911 245.046076 
L 134.755888 252.117357 
L 134.890376 252.002741 
L 135.697305 266.214072 
L 135.831793 270.953888 
L 135.966282 271.561827 
L 136.10077 269.583759 
L 136.235258 271.083786 
L 136.369746 270.810142 
L 136.504234 266.52019 
L 136.638723 266.361639 
L 136.907699 264.431328 
L 137.311164 253.57297 
L 137.445652 254.081575 
L 137.58014 251.40531 
L 137.983605 258.202947 
L 138.118093 257.303217 
L 138.252581 259.133718 
L 138.387069 263.615172 
L 138.521558 262.384969 
L 138.656046 262.585546 
L 138.925022 267.269965 
L 139.193999 251.063852 
L 139.731951 81.598104 
L 139.86644 72.701576 
L 140.269904 98.651892 
L 140.538881 123.023383 
L 140.673369 130.098007 
L 140.807857 144.425385 
L 141.076834 224.3523 
L 141.480298 257.466066 
L 142.018251 265.885508 
L 142.152739 265.42275 
L 142.421716 241.740382 
L 142.959669 91.573925 
L 143.094157 84.174558 
L 143.228645 83.687921 
L 143.363133 93.890585 
L 143.497621 84.637317 
L 143.63211 89.752499 
L 144.573527 258.711074 
L 144.708015 262.192989 
L 144.842504 262.368254 
L 145.11148 264.605639 
L 145.245968 266.744167 
L 145.380456 262.675328 
L 145.783921 201.644162 
L 146.052897 110.154961 
L 146.187386 91.076304 
L 146.456362 106.355944 
L 146.59085 117.653183 
L 146.725339 111.974955 
L 146.859827 119.372889 
L 146.994315 114.306419 
L 147.128803 127.138547 
L 147.532268 234.182942 
L 147.801244 260.145674 
L 147.935732 260.347684 
L 148.204709 265.609477 
L 148.339197 265.587986 
L 148.473685 266.090861 
L 148.742662 265.039266 
L 148.87715 247.381361 
L 149.280615 119.237261 
L 149.415103 115.203761 
L 149.549591 106.133877 
L 149.684079 107.387958 
L 150.087544 140.056636 
L 150.222032 132.374074 
L 150.35652 137.887065 
L 150.894473 252.575817 
L 151.028961 261.736438 
L 151.16345 260.779879 
L 151.835891 268.945257 
L 151.970379 267.674461 
L 152.104867 246.7505 
L 152.508332 113.234767 
L 152.64282 116.339884 
L 152.911796 104.50061 
L 153.046285 118.633143 
L 153.180773 117.134072 
L 153.449749 151.56639 
L 153.718726 192.464917 
L 153.987702 249.022746 
L 154.12219 266.053611 
L 154.256678 267.430903 
L 154.525655 271.28866 
L 154.794631 272.990696 
L 155.063608 275.932009 
L 155.198096 277.571962 
L 155.332584 276.929161 
L 155.467072 272.553248 
L 155.601561 262.089357 
L 155.736049 261.229266 
L 155.870537 258.367228 
L 156.005025 260.503847 
L 156.274002 258.608875 
L 156.40849 259.144702 
L 156.542978 260.396873 
L 156.677466 259.201532 
L 157.215419 267.201673 
L 157.349907 269.205529 
L 157.484396 268.214585 
L 157.618884 268.98394 
L 157.88786 272.156393 
L 158.022348 272.636822 
L 158.291325 275.632577 
L 158.560301 279.909157 
L 158.694789 278.344659 
L 158.829278 279.307904 
L 158.963766 278.912004 
L 159.232742 276.200877 
L 159.367231 276.48264 
L 159.501719 274.501229 
L 160.039672 260.433645 
L 160.308648 260.692484 
L 160.443136 266.405097 
L 160.577624 266.121902 
L 160.712113 264.168668 
L 160.846601 264.869731 
L 160.981089 266.360206 
L 161.250066 270.112899 
L 161.519042 271.06325 
L 161.788018 254.317969 
L 162.460459 83.873216 
L 162.594948 83.537011 
L 162.729436 82.079488 
L 162.998412 101.648602 
L 163.132901 110.583813 
L 163.401877 151.804217 
L 163.670853 222.455419 
L 164.074318 256.507119 
L 164.208806 257.638944 
L 164.477783 270.280047 
L 164.612271 272.638732 
L 164.746759 267.941896 
L 165.015735 250.452571 
L 165.4192 120.848082 
L 165.553688 123.444116 
L 165.822665 109.567558 
L 165.957153 114.816934 
L 166.091641 111.735695 
L 166.360618 100.295187 
L 166.495106 106.481543 
L 166.89857 221.557122 
L 167.033059 228.520473 
L 167.302035 246.888038 
L 167.974476 265.330102 
L 168.108964 259.663335 
L 168.243453 245.668341 
L 168.377941 207.63806 
L 168.646917 106.30771 
L 168.781405 107.589013 
L 168.915894 103.068875 
L 169.050382 104.36737 
L 169.18487 108.158268 
L 169.319358 92.849497 
L 169.453847 95.324708 
L 169.857311 148.634629 
L 170.126288 226.735819 
L 170.395264 257.513345 
L 170.529752 258.392062 
L 170.66424 261.824787 
L 170.798729 262.013902 
L 171.067705 264.338203 
L 171.202193 267.169199 
L 171.47117 245.408547 
L 172.009123 110.365089 
L 172.143611 108.790562 
L 172.412587 97.047757 
L 172.95054 129.508694 
L 173.622981 259.480429 
L 173.757469 263.46474 
L 173.891958 276.828395 
L 174.026446 275.90049 
L 174.160934 275.856554 
L 174.42991 277.385712 
L 174.698887 262.612767 
L 174.833375 245.50979 
L 175.102351 177.071617 
L 175.371328 143.738172 
L 175.505816 140.84175 
L 175.640304 150.99618 
L 175.774792 150.686241 
L 175.909281 152.09362 
L 176.043769 156.895042 
L 176.178257 156.587491 
L 176.312745 171.045245 
L 176.581722 238.633355 
L 176.850698 265.730778 
L 176.985186 263.23933 
L 177.254163 267.969117 
L 177.388651 267.925659 
L 177.792116 274.477829 
L 177.926604 275.367529 
L 178.19558 264.661991 
L 178.330069 264.222155 
L 178.599045 256.662327 
L 178.733533 256.09737 
L 178.868021 258.403523 
L 179.136998 254.896298 
L 179.271486 255.491819 
L 179.540462 253.008012 
L 179.809439 260.508623 
L 179.943927 267.773794 
L 180.212904 265.873569 
L 180.48188 275.734298 
L 180.616368 275.748147 
L 180.750856 276.120169 
L 180.885345 276.951129 
L 181.019833 277.037568 
L 181.692274 264.734581 
L 181.826762 266.029733 
L 181.96125 260.049207 
L 182.095738 261.830518 
L 182.364715 267.266144 
L 182.499203 268.543626 
L 182.633691 271.689814 
L 182.902668 270.872225 
L 183.171644 277.000318 
L 183.306132 278.415816 
L 183.440621 277.306436 
L 183.575109 275.005536 
L 183.844085 286.733537 
L 183.978573 287.684366 
L 184.113062 285.406389 
L 184.382038 274.025098 
L 184.919991 182.33341 
L 185.054479 186.34733 
L 185.188967 179.277482 
L 185.457944 183.136194 
L 185.592432 184.634788 
L 185.995897 222.37471 
L 186.264873 252.959778 
L 186.53385 268.710296 
L 186.802826 278.960238 
L 187.071802 289.45326 
L 187.206291 288.303288 
L 187.340779 289.437023 
L 187.475267 286.260749 
L 187.609755 278.265384 
L 188.01322 202.384863 
L 188.147708 185.991545 
L 188.282196 186.210269 
L 188.416684 185.252277 
L 188.551173 188.563224 
L 188.685661 194.962573 
L 188.820149 190.552276 
L 188.954637 194.985974 
L 189.089126 203.355749 
L 189.627078 265.336311 
L 189.761567 267.924226 
L 189.896055 273.158321 
L 190.030543 270.723225 
L 190.299519 272.554203 
L 190.434008 271.383218 
L 190.971961 274.80687 
L 191.106449 271.355519 
L 191.240937 270.870315 
L 191.375425 271.308718 
L 191.509913 266.881228 
L 191.644402 268.429966 
L 191.913378 267.164423 
L 192.182354 261.529653 
L 192.316843 261.878274 
L 192.451331 261.380176 
L 192.585819 262.700638 
L 192.720307 268.469126 
L 192.989284 269.726551 
L 193.392748 267.039779 
L 193.661725 269.921396 
L 193.796213 270.45579 
L 194.065189 262.570264 
L 194.603142 158.841113 
L 194.73763 153.930329 
L 194.872119 143.980296 
L 195.006607 145.555778 
L 195.141095 150.298937 
L 195.275583 142.901481 
L 195.54456 156.292835 
L 195.948024 250.304526 
L 196.217001 260.639475 
L 196.351489 262.565966 
L 196.485977 272.037957 
L 196.620465 271.385606 
L 196.889442 271.942445 
L 197.02393 273.070927 
L 197.158418 271.341192 
L 197.292907 265.020164 
L 197.830859 196.309302 
L 197.965348 198.620709 
L 198.099836 195.303076 
L 198.234324 199.706688 
L 198.5033 186.382192 
L 198.772277 200.181386 
L 199.31023 272.714187 
L 199.713694 281.826096 
L 199.848183 280.657498 
L 200.117159 281.385305 
L 200.251647 279.602083 
L 200.386135 273.823567 
L 200.520624 273.420503 
L 200.655112 260.463254 
L 200.7896 213.243221 
L 200.924088 211.273272 
L 201.058576 199.590162 
L 201.193065 199.23199 
L 201.327553 196.547128 
L 201.462041 198.719564 
L 201.731018 186.920406 
L 201.865506 188.281462 
L 202.134482 210.975273 
L 202.403459 264.4447 
L 202.806923 274.242867 
L 203.0759 265.771848 
L 203.210388 270.098572 
L 203.344876 270.224649 
L 203.748341 260.848648 
L 203.882829 243.462476 
L 204.151805 181.505315 
L 204.420782 165.034155 
L 204.55527 159.405593 
L 204.689758 162.842139 
L 204.824246 156.342979 
L 204.958735 172.365707 
L 205.093223 172.61213 
L 205.765664 260.267931 
L 205.900152 260.778923 
L 206.03464 264.578895 
L 206.169129 279.427295 
L 206.303617 279.908202 
L 206.572593 283.846667 
L 206.84157 284.658047 
L 207.110546 275.270106 
L 207.379522 266.087518 
L 207.514011 265.209756 
L 207.917475 273.327378 
L 208.051964 273.080956 
L 208.32094 266.720289 
L 208.589916 268.322037 
L 208.858893 276.373277 
L 208.993381 280.026637 
L 209.127869 280.61022 
L 209.262357 280.066275 
L 209.396846 274.211826 
L 209.531334 275.309266 
L 209.80031 274.894264 
L 209.934799 275.885208 
L 210.203775 263.704477 
L 211.010704 108.584255 
L 211.279681 134.205529 
L 211.683145 167.305446 
L 212.221098 254.942622 
L 212.355586 257.406371 
L 212.759051 272.646851 
L 212.893539 272.439588 
L 213.028027 272.539876 
L 213.162516 275.18892 
L 213.431492 257.485169 
L 213.56598 219.404744 
L 213.834957 135.484444 
L 213.969445 140.070007 
L 214.103933 138.978775 
L 214.238421 141.940145 
L 214.910862 180.262695 
L 215.448815 260.561632 
L 215.583303 265.528291 
L 215.717792 266.146258 
L 216.121256 270.409466 
L 216.255745 271.366981 
L 216.390233 273.758141 
L 216.524721 269.748996 
L 216.659209 262.228806 
L 217.062674 149.123654 
L 217.197162 151.036295 
L 217.33165 151.117003 
L 217.466138 162.58521 
L 217.600627 161.301042 
L 217.735115 149.442666 
L 217.869603 154.67485 
L 218.273068 196.878557 
L 218.542044 255.716752 
L 218.811021 272.520296 
L 218.945509 265.098962 
L 219.483462 275.822647 
L 219.61795 277.621628 
L 219.886926 263.866371 
L 220.290391 162.245185 
L 220.693856 150.580699 
L 220.828344 161.24851 
L 220.962832 157.326282 
L 221.231808 184.490086 
L 221.500785 198.360914 
L 221.769761 255.580169 
L 222.038738 271.218936 
L 222.173226 270.465819 
L 222.307714 271.691246 
L 222.576691 277.744362 
L 222.845667 280.384332 
L 222.980155 278.711428 
L 223.114643 280.585386 
L 223.38362 260.025328 
L 223.518108 263.891681 
L 223.652596 263.735041 
L 223.921573 256.770257 
L 224.190549 256.09737 
L 224.325037 258.587863 
L 224.459525 257.958912 
L 224.728502 254.097334 
L 225.131967 261.37158 
L 225.266455 259.884447 
L 225.535431 261.35773 
L 225.669919 260.043953 
L 226.073384 269.819198 
L 226.34236 272.85268 
L 226.476849 272.780568 
L 226.745825 269.631038 
L 226.880313 271.917134 
L 227.014802 272.160691 
L 227.14929 271.863169 
L 227.283778 270.441463 
L 227.418266 272.121053 
L 227.552754 272.249995 
L 227.687243 272.08046 
L 227.956219 270.969648 
L 228.090707 276.795921 
L 228.225195 276.835081 
L 228.359684 277.93873 
L 228.494172 277.1646 
L 228.62866 278.137397 
L 228.763148 278.022781 
L 228.897637 275.730477 
L 229.301101 276.635937 
L 229.435589 270.410899 
L 229.570078 256.301767 
L 230.242519 94.57159 
L 230.377007 79.707431 
L 230.511495 109.742346 
L 230.780471 117.708103 
L 231.049448 145.227692 
L 231.587401 254.13936 
L 231.856377 265.383112 
L 232.125354 270.206502 
L 232.39433 274.871818 
L 232.528818 274.056618 
L 232.797795 256.921167 
L 232.932283 220.583848 
L 233.201259 133.265685 
L 233.335748 125.074995 
L 233.470236 135.390364 
L 233.604724 135.612908 
L 233.739212 148.428321 
L 233.8737 133.66445 
L 234.008189 140.399526 
L 234.815118 264.800484 
L 234.949606 264.533527 
L 235.218583 270.448149 
L 235.622047 278.199957 
L 235.756535 277.601093 
L 236.025512 264.921786 
L 236.563465 129.102765 
L 236.832441 116.869024 
L 237.63937 200.713869 
L 237.908347 258.891115 
L 238.177323 266.994411 
L 238.849764 281.939279 
L 238.984252 281.113094 
L 239.118741 277.307869 
L 239.253229 263.382599 
L 239.791182 128.3315 
L 240.194646 146.09829 
L 240.463623 165.259087 
L 240.732599 178.739746 
L 241.270552 256.354776 
L 241.674017 262.240745 
L 241.942993 275.207068 
L 242.077481 281.718167 
L 242.21197 281.091126 
L 242.480946 263.091285 
L 242.884411 151.15282 
L 243.018899 159.038824 
L 243.153387 156.788068 
L 243.287875 145.790261 
L 243.422363 153.78515 
L 243.556852 150.968481 
L 243.825828 167.638308 
L 244.229293 239.754674 
L 244.498269 262.180094 
L 244.767246 267.462423 
L 245.17071 275.333622 
L 245.305198 276.199922 
L 245.439687 275.903833 
L 245.574175 274.673152 
L 245.708663 263.198259 
L 245.843151 268.655376 
L 246.112128 265.668695 
L 246.381104 260.481401 
L 246.515592 260.447972 
L 247.188033 270.706511 
L 247.322522 271.112439 
L 247.45701 271.98065 
L 247.591498 271.62582 
L 247.725986 274.793498 
L 247.860475 273.353644 
L 248.129451 274.678883 
L 248.263939 273.794435 
L 248.398427 274.477829 
L 248.532916 274.324531 
L 248.667404 276.272034 
L 248.801892 276.173178 
L 249.205357 277.713798 
L 249.339845 277.830323 
L 249.608821 276.880927 
L 249.743309 277.012735 
L 249.877798 276.712347 
L 250.550239 273.543237 
L 250.819215 273.843624 
L 250.953703 274.623008 
L 251.088192 273.485929 
L 251.357168 274.744786 
L 251.491656 283.650388 
L 251.626144 283.160408 
L 251.760633 283.59117 
L 251.895121 283.431186 
L 252.164097 271.177866 
L 252.70205 143.675611 
L 252.836538 163.424289 
L 252.971027 159.977714 
L 253.240003 172.895325 
L 253.374491 174.249217 
L 253.508979 171.321754 
L 253.777956 204.163787 
L 254.046932 255.555813 
L 254.315909 276.896687 
L 254.719373 285.257389 
L 254.853862 285.017174 
L 255.122838 286.751685 
L 255.391814 265.972903 
L 255.660791 172.685675 
L 255.795279 176.135115 
L 256.198744 160.452412 
L 256.333232 164.128217 
L 256.46772 161.461981 
L 256.602208 162.658755 
L 257.409138 257.798928 
L 257.812602 265.275182 
L 258.081579 280.491306 
L 258.216067 281.555795 
L 258.350555 280.826078 
L 258.619532 266.646744 
L 258.888508 177.492828 
L 259.022996 178.362471 
L 259.157484 169.304049 
L 259.291973 168.728107 
L 259.426461 153.234042 
L 259.695437 166.942498 
L 259.829925 155.804288 
L 259.964414 164.882767 
L 260.771343 260.871093 
L 261.040319 263.110865 
L 261.309296 270.614341 
L 261.443784 273.830253 
L 261.71276 270.914251 
L 261.847249 258.515751 
L 262.116225 170.305022 
L 262.250713 174.474627 
L 262.654178 148.029556 
L 262.788666 155.334365 
L 262.923154 150.561597 
L 263.326619 185.730796 
L 263.461107 196.635 
L 263.864572 245.438155 
L 264.268036 263.491483 
L 264.402525 262.73359 
L 264.671501 266.165361 
L 264.805989 266.039284 
L 264.940478 265.087978 
L 265.074966 257.515733 
L 265.209454 238.388843 
L 265.612919 124.030564 
L 265.881895 105.908467 
L 266.016383 115.415321 
L 266.150871 115.284469 
L 266.28536 114.836037 
L 266.419848 119.469834 
L 266.688824 156.76419 
L 266.957801 235.618498 
L 267.226777 252.2931 
L 267.361265 250.869961 
L 267.495754 267.247042 
L 267.630242 266.930895 
L 267.76473 268.801033 
L 267.899218 269.112404 
L 268.168195 275.636875 
L 268.302683 276.522277 
L 268.437171 273.959195 
L 268.706147 276.496966 
L 268.975124 273.000247 
L 269.2441 271.11435 
L 269.916541 256.612661 
L 270.320006 258.503334 
L 270.588982 263.393105 
L 270.723471 277.499372 
L 270.857959 278.539982 
L 270.992447 277.060969 
L 271.126935 277.944939 
L 271.261424 277.974547 
L 271.395912 277.788298 
L 271.799376 280.567717 
L 271.933865 279.18135 
L 272.068353 279.536657 
L 272.202841 278.891469 
L 272.337329 279.127863 
L 272.471817 278.284009 
L 272.606306 276.116826 
L 272.740794 277.400516 
L 272.875282 277.077683 
L 273.00977 276.400021 
L 273.144258 274.063781 
L 273.278747 273.96397 
L 273.547723 276.944921 
L 273.682211 277.159347 
L 273.8167 277.843695 
L 273.951188 276.981216 
L 274.085676 287.641863 
L 274.354652 289.276084 
L 274.489141 287.702513 
L 274.758117 272.965863 
L 275.29607 166.324531 
L 275.565046 154.070255 
L 275.699535 154.407892 
L 275.834023 172.387675 
L 275.968511 174.672816 
L 276.102999 184.843961 
L 276.77544 264.277075 
L 277.447881 281.70384 
L 277.58237 285.105524 
L 277.716858 284.713922 
L 277.851346 280.308877 
L 277.985834 270.310133 
L 278.389299 209.70973 
L 278.523787 190.194103 
L 278.658275 188.192635 
L 278.792763 178.66238 
L 278.927252 190.811592 
L 279.06174 184.981976 
L 279.196228 187.076092 
L 279.330716 194.783964 
L 280.137646 274.666466 
L 280.272134 277.056671 
L 280.406622 268.686895 
L 280.54111 268.402267 
L 280.810087 269.575163 
L 280.944575 268.950988 
L 281.213551 261.019138 
L 281.348039 232.021968 
L 281.482528 161.44049 
L 281.617016 151.214904 
L 281.751504 127.776571 
L 281.885992 128.930364 
L 282.154969 142.463077 
L 282.289457 124.31567 
L 282.423945 128.410775 
L 282.558433 137.536534 
L 282.82741 186.065568 
L 283.096386 254.740135 
L 283.365363 261.381608 
L 283.499851 263.592727 
L 283.634339 262.920318 
L 283.768827 262.930824 
L 283.903316 263.120417 
L 284.037804 264.427507 
L 284.172292 264.556927 
L 284.441268 259.354352 
L 285.113709 143.874755 
L 285.248198 142.796894 
L 285.382686 138.251924 
L 285.517174 147.509967 
L 285.651662 144.403417 
L 285.78615 147.898704 
L 286.055127 201.122185 
L 286.324103 250.785432 
L 286.59308 260.480446 
L 286.727568 260.358668 
L 286.862056 279.329872 
L 286.996544 279.38909 
L 287.131033 278.409608 
L 287.265521 279.016113 
L 287.668985 275.483577 
L 287.803474 276.362294 
L 288.07245 275.485965 
L 288.206938 273.311141 
L 288.341427 273.255744 
L 288.475915 270.905655 
L 288.610403 270.53411 
L 288.744891 269.408493 
L 288.879379 272.240922 
L 289.013868 272.580947 
L 289.148356 269.766188 
L 289.417332 276.931549 
L 289.55182 278.120204 
L 289.820797 277.758211 
L 289.955285 278.549534 
L 290.089773 277.048075 
L 290.224262 278.59729 
L 290.35875 277.688965 
L 290.493238 278.670357 
L 290.627726 277.126395 
L 291.031191 259.122734 
L 291.300167 192.843147 
L 291.434655 187.25088 
L 291.569144 187.859296 
L 291.703632 191.928136 
L 291.972608 179.165255 
L 292.376073 192.263385 
L 293.048514 268.764738 
L 293.183002 270.013089 
L 293.31749 268.859773 
L 293.451979 269.612413 
L 293.586467 268.681642 
L 293.720955 271.160196 
L 293.855443 271.423811 
L 294.258908 247.46971 
L 294.527884 189.40087 
L 294.796861 157.674903 
L 294.931349 141.783982 
L 295.065837 141.649787 
L 295.200325 149.632736 
L 295.334814 143.904841 
L 295.60379 172.000849 
L 295.738278 186.511134 
L 296.141743 256.810372 
L 296.276231 255.919239 
L 296.410719 263.12758 
L 296.545208 280.829421 
L 296.948672 282.995649 
L 297.486625 284.96321 
L 297.621113 284.617454 
L 297.755601 284.613633 
L 298.024578 281.437837 
L 298.159066 281.287405 
L 298.428042 279.1441 
L 298.697019 275.315952 
L 298.831507 274.179829 
L 298.965995 274.037515 
L 299.100484 274.3933 
L 299.36946 278.1799 
L 299.503948 277.673205 
L 299.638436 279.217167 
L 299.772925 269.553673 
L 299.907413 272.957267 
L 300.041901 272.655447 
L 300.176389 273.522224 
L 300.310877 273.238552 
L 300.579854 262.263668 
L 301.252295 128.108478 
L 301.386783 128.177247 
L 301.521271 141.37471 
L 301.65576 134.429984 
L 301.790248 143.848489 
L 302.597177 252.692343 
L 302.731665 254.445956 
L 303.000642 266.858783 
L 303.13513 267.083237 
L 303.269618 267.563666 
L 303.404106 270.024073 
L 303.538595 270.443373 
L 303.807571 254.078232 
L 304.345524 164.265278 
L 304.6145 153.738348 
L 304.748988 161.979182 
L 304.883477 152.402126 
L 305.017965 158.484851 
L 306.093871 265.309567 
L 306.228359 266.320569 
L 306.497335 276.479774 
L 306.766312 277.509878 
L 306.9008 272.799671 
L 307.035288 262.256504 
L 307.304265 169.745317 
L 307.438753 177.009534 
L 307.842217 157.740807 
L 307.976706 164.794418 
L 308.111194 156.372588 
L 308.245682 161.336859 
L 308.649147 207.355342 
L 309.052611 263.740771 
L 309.590564 275.975945 
L 309.994029 277.679891 
L 310.128517 274.125387 
L 310.263005 261.50482 
L 310.531982 169.634045 
L 310.66647 170.785928 
L 310.935446 168.496012 
L 311.069934 159.1415 
L 311.204423 165.599112 
L 311.338911 164.307781 
L 311.473399 157.531634 
L 311.607887 170.672745 
L 311.876864 208.262713 
L 312.14584 250.604913 
L 312.414817 262.414578 
L 312.818281 271.028388 
L 312.952769 270.594283 
L 313.087258 272.480659 
L 313.221746 272.381803 
L 313.356234 273.959195 
L 313.625211 263.399314 
L 313.759699 255.505191 
L 313.894187 258.859119 
L 314.028675 256.329466 
L 314.163163 258.213453 
L 314.297652 255.452182 
L 314.566628 262.017723 
L 314.701116 262.752693 
L 314.970093 267.507791 
L 315.104581 267.470064 
L 315.239069 267.173497 
L 315.508045 270.107169 
L 315.642534 270.644427 
L 315.777022 270.313954 
L 316.180487 273.304933 
L 316.314975 272.865097 
L 316.718439 275.22044 
L 316.852928 275.469728 
L 316.987416 274.615844 
L 317.121904 274.68127 
L 317.256392 273.560907 
L 317.39088 273.705609 
L 317.525369 272.165944 
L 317.659857 273.085731 
L 317.928833 270.565152 
L 318.332298 266.826786 
L 318.466786 267.481525 
L 318.601274 266.978651 
L 318.735763 268.435697 
L 318.870251 268.271893 
L 319.139227 269.388913 
L 319.273715 279.230062 
L 319.67718 280.348993 
L 319.811668 277.768718 
L 319.946157 269.810124 
L 320.349621 147.750181 
L 320.484109 131.589915 
L 320.887574 158.884094 
L 321.022062 163.553231 
L 321.291039 178.344323 
L 321.425527 180.145692 
L 321.560015 198.59683 
L 321.828991 254.15703 
L 321.96348 262.249341 
L 322.097968 263.036365 
L 322.635921 279.746308 
L 322.770409 280.093496 
L 322.904897 279.433981 
L 323.173874 268.995879 
L 323.44285 173.473177 
L 323.577338 173.83517 
L 323.711826 174.036702 
L 323.980803 153.84771 
L 324.249779 157.388843 
L 324.384268 160.1568 
L 324.787732 196.421529 
L 325.056709 250.976935 
L 325.325685 260.254081 
L 325.863638 278.086775 
L 325.998126 279.855192 
L 326.132614 279.920618 
L 326.267103 276.705662 
L 326.401591 267.701204 
L 326.670567 166.278207 
L 326.805055 172.237243 
L 326.939544 173.410139 
L 327.20852 160.175903 
L 327.343008 168.324089 
L 327.611985 164.568053 
L 327.746473 169.430603 
L 328.149937 224.158409 
L 328.418914 255.021419 
L 328.68789 267.839698 
L 328.822379 270.294373 
L 328.956867 280.346605 
L 329.225843 281.29409 
L 329.360331 280.446415 
L 329.629308 267.606647 
L 330.032772 178.540124 
L 330.301749 167.194651 
L 330.570725 158.381219 
L 330.839702 180.247413 
L 330.97419 181.460424 
L 331.108678 184.207369 
L 331.781119 260.13469 
L 332.050096 267.301961 
L 332.184584 278.082477 
L 332.319072 279.039036 
L 332.45356 278.37379 
L 332.588049 279.361869 
L 332.857025 266.747033 
L 333.26049 177.908308 
L 333.394978 179.819039 
L 333.663954 164.899959 
L 333.798442 166.092913 
L 333.932931 169.861843 
L 334.336395 187.735607 
L 334.73986 255.506624 
L 335.143325 271.243292 
L 335.277813 271.044625 
L 335.412301 271.142048 
L 335.546789 271.427631 
L 335.681277 271.322567 
L 335.950254 273.905708 
L 336.084742 271.81016 
L 336.622695 255.338999 
L 336.757183 256.134142 
L 336.891671 254.304119 
L 337.295136 260.664786 
L 337.698601 265.399349 
L 337.833089 264.919875 
L 338.102065 269.02119 
L 338.236553 268.789094 
L 338.371042 269.426641 
L 338.50553 267.090401 
L 339.043483 270.250438 
L 339.446947 273.247625 
L 339.581436 272.765764 
L 339.715924 271.596211 
L 339.850412 271.855528 
L 339.9849 271.07519 
L 340.119388 270.962485 
L 340.253877 270.488742 
L 340.388365 271.966323 
L 340.522853 269.976794 
L 340.657341 270.575658 
L 340.926318 270.257123 
L 341.060806 266.917523 
L 341.329782 271.801086 
L 341.464271 271.699365 
L 341.598759 272.228027 
L 341.733247 273.794913 
L 341.867735 281.619311 
L 342.136712 281.721032 
L 342.2712 282.362877 
L 342.540176 269.663512 
L 342.943641 154.454216 
L 343.212617 171.068168 
L 343.347106 170.333675 
L 343.75057 184.72266 
L 343.885058 186.397952 
L 344.019547 185.735094 
L 344.423011 253.640306 
L 345.22994 279.341334 
L 345.364429 280.425403 
L 345.498917 280.057679 
L 345.633405 275.839839 
L 345.767893 267.753259 
L 346.03687 183.477174 
L 346.171358 187.596158 
L 346.440334 174.027628 
L 346.574823 168.65504 
L 346.843799 175.535296 
L 347.112775 177.404479 
L 347.381752 211.89315 
L 347.650728 250.814086 
L 348.054193 268.78002 
L 348.188681 269.962467 
L 348.323169 278.933495 
L 348.457658 279.781647 
L 348.592146 281.65274 
L 348.726634 281.457417 
L 348.99561 268.547924 
L 349.264587 182.426535 
L 349.399075 183.900773 
L 349.668052 166.339335 
L 349.80254 162.22656 
L 350.206004 180.926031 
L 350.340493 182.10609 
L 351.012934 262.301395 
L 351.147422 264.622353 
L 351.550886 281.28836 
L 351.685375 280.576313 
L 351.954351 280.943081 
L 352.088839 279.545731 
L 352.223328 272.256204 
L 352.492304 178.349099 
L 352.626792 185.513982 
L 352.76128 174.144631 
L 352.895769 173.435927 
L 353.030257 165.157844 
L 353.164745 172.368573 
L 353.299233 170.29165 
L 353.56821 152.517219 
L 354.240651 268.921379 
L 354.375139 270.058935 
L 354.644115 275.921025 
L 354.913092 280.19474 
L 355.182068 281.236783 
L 355.316556 278.834639 
L 355.451045 269.707448 
L 355.854509 196.412456 
L 356.123486 158.082265 
L 356.257974 159.795762 
L 356.392462 168.404797 
L 356.52695 167.771548 
L 356.661439 178.37632 
L 356.795927 177.125104 
L 357.33388 264.611847 
L 357.602856 274.207528 
L 357.737344 276.171746 
L 357.871832 280.426358 
L 358.006321 279.848029 
L 358.140809 280.062454 
L 358.275297 280.8022 
L 358.409785 280.714328 
L 358.678762 279.454994 
L 359.082226 260.990006 
L 359.351203 255.085413 
L 359.485691 248.815006 
L 359.620179 259.54681 
L 359.754667 260.960875 
L 359.889156 261.128977 
L 360.427109 275.415763 
L 360.561597 276.095336 
L 360.965061 280.242018 
L 361.234038 280.202381 
L 361.368526 280.010878 
L 361.503014 281.316058 
L 361.771991 280.908697 
L 361.906479 282.239188 
L 362.040967 282.191432 
L 362.175455 282.566797 
L 362.309944 282.60739 
L 362.57892 279.195199 
L 362.713408 279.14601 
L 362.982385 278.01132 
L 363.116873 276.518934 
L 363.251361 276.417213 
L 363.385849 277.507968 
L 363.520337 276.654085 
L 363.654826 276.594389 
L 364.05829 279.380494 
L 364.192778 253.373348 
L 364.730731 259.630861 
L 364.86522 258.43552 
L 364.999708 246.353167 
L 365.134196 224.19948 
L 365.403172 135.861241 
L 365.672149 105.562234 
L 365.806637 99.63997 
L 366.075613 116.587739 
L 366.34459 113.442984 
L 366.479078 124.876806 
L 367.017031 251.287352 
L 367.151519 256.247802 
L 367.286007 254.512337 
L 367.554984 265.875002 
L 367.689472 266.74178 
L 367.958448 271.642535 
L 368.227425 248.076215 
L 368.496401 152.100306 
L 368.765378 100.207793 
L 369.034354 89.303589 
L 369.168842 94.026691 
L 369.303331 93.582079 
L 369.437819 96.951766 
L 369.572307 94.828997 
L 369.706795 110.942463 
L 370.244748 234.816669 
L 370.782701 279.047632 
L 370.917189 279.352795 
L 371.051677 280.244884 
L 371.186166 279.965987 
L 371.455142 265.138599 
L 371.858607 171.824151 
L 372.127583 203.825672 
L 372.262071 199.76304 
L 372.396559 201.190477 
L 372.665536 190.497356 
L 372.800024 194.293984 
L 373.203489 234.021526 
L 373.472465 256.290305 
L 373.87593 277.494596 
L 374.010418 286.518156 
L 374.144906 286.372022 
L 374.279394 287.579302 
L 374.413883 287.07595 
L 374.682859 270.505934 
L 375.220812 181.054973 
L 375.489788 177.423581 
L 375.624277 177.646603 
L 375.893253 184.185878 
L 376.027741 188.484426 
L 376.565694 256.107399 
L 376.83467 265.002971 
L 376.969159 267.84113 
L 377.103647 279.660346 
L 377.238135 278.566726 
L 377.507112 280.640784 
L 377.6416 278.6737 
L 377.776088 282.21531 
L 378.045064 280.066753 
L 378.179553 270.419495 
L 378.314041 269.793409 
L 378.448529 262.688222 
L 378.583017 263.689672 
L 378.717505 262.771795 
L 378.851994 267.286202 
L 378.986482 266.525443 
L 379.12097 267.434246 
L 379.255458 269.595221 
L 379.389947 269.478695 
L 379.927899 278.739604 
L 380.062388 278.532819 
L 380.196876 278.949732 
L 380.331364 269.033129 
L 380.465852 269.711746 
L 380.869317 272.618197 
L 381.138293 261.713515 
L 381.272782 234.596512 
L 381.541758 159.940941 
L 381.810734 139.761024 
L 381.945223 141.353698 
L 382.214199 147.846172 
L 382.348687 139.849373 
L 382.752152 189.750447 
L 383.021128 257.813255 
L 383.155616 265.748448 
L 383.290105 266.411306 
L 383.424593 267.699772 
L 383.559081 262.766542 
L 383.693569 262.054018 
L 383.962546 262.400729 
L 384.097034 263.592249 
L 384.231522 261.80664 
L 384.36601 263.20017 
L 385.038451 148.909705 
L 385.17294 151.355307 
L 385.307428 166.50505 
L 385.576404 160.855475 
L 386.248845 260.66192 
L 386.921286 279.180873 
L 387.055775 278.365194 
L 387.190263 279.644109 
L 387.324751 278.952597 
L 387.459239 279.114014 
L 387.593727 280.604966 
L 387.728216 280.02998 
L 387.862704 281.348533 
L 387.997192 280.178025 
L 388.13168 281.770221 
L 388.266169 280.785008 
L 388.400657 278.797389 
L 388.535145 278.886693 
L 388.669633 278.223358 
L 388.804121 279.363779 
L 388.93861 276.80977 
L 389.207586 278.952597 
L 389.476562 285.650423 
L 389.611051 284.59071 
L 389.745539 285.408299 
L 389.880027 285.356244 
L 390.014515 270.432867 
L 390.149004 270.670216 
L 390.41798 270.692184 
L 390.552468 270.561331 
L 390.686956 265.054548 
L 390.821445 265.239843 
L 390.955933 256.373879 
L 391.224909 200.126466 
L 391.359397 168.699454 
L 391.493886 164.703203 
L 391.762862 175.413994 
L 391.89735 174.869572 
L 392.031839 167.634487 
L 392.166327 171.339901 
L 392.300815 180.33433 
L 392.569791 240.589455 
L 392.70428 266.920388 
L 392.973256 271.770999 
L 393.107744 272.429559 
L 393.376721 265.361621 
L 393.645697 271.089039 
L 393.780185 267.692608 
L 393.914673 269.079452 
L 394.049162 261.654297 
L 394.721603 146.855705 
L 394.990579 145.782143 
L 395.125067 145.361409 
L 395.259556 156.765145 
L 395.394044 157.636698 
L 395.931997 245.927658 
L 396.200973 259.560659 
L 396.335461 255.817518 
L 396.46995 280.632188 
L 396.604438 281.016149 
L 397.007902 284.056317 
L 397.276879 270.977289 
L 397.545855 197.14265 
L 397.680343 191.946283 
L 397.94932 168.528963 
L 398.083808 155.039231 
L 398.218296 167.8045 
L 398.352785 163.029821 
L 398.487273 166.047544 
L 398.487273 166.047544 
" clip-path="url(#p9bb609eb34)" style="fill: none; stroke: #1f77b4; stroke-width: 1.5; stroke-linecap: square"/>
   </g>
   <g id="line2d_13">
    <path d="M 73.832727 279.604562 
L 73.967215 279.718101 
L 74.236192 279.376413 
L 74.37068 278.316399 
L 74.505168 279.472888 
L 74.639657 279.03803 
L 74.774145 279.976447 
L 74.908633 271.426704 
L 75.043121 235.865154 
L 75.177609 235.689398 
L 75.312098 239.459463 
L 75.446586 250.298955 
L 75.581074 250.143493 
L 75.715562 251.512941 
L 75.85005 250.718398 
L 75.984539 250.833521 
L 76.388003 243.993261 
L 76.65698 280.650924 
L 76.791468 280.936763 
L 77.060444 271.756395 
L 77.194933 258.328884 
L 77.329421 261.933448 
L 77.463909 259.533225 
L 77.598397 266.16065 
L 77.732885 266.574674 
L 77.867374 257.198237 
L 78.001862 233.570831 
L 78.270838 126.631926 
L 78.539815 101.065205 
L 78.674303 107.627082 
L 78.808791 102.285686 
L 78.943279 115.220594 
L 79.077768 110.935422 
L 79.481232 165.439645 
L 79.61572 185.188552 
L 79.884697 250.755638 
L 80.288161 270.684707 
L 80.42265 261.518655 
L 80.557138 271.739443 
L 80.691626 270.182085 
L 80.826114 272.621219 
L 81.095091 260.43602 
L 81.229579 239.566128 
L 81.498555 144.787052 
L 81.633044 154.314448 
L 81.767532 155.009924 
L 82.170996 197.509998 
L 82.305485 198.571846 
L 82.439973 195.592161 
L 82.574461 196.205196 
L 82.708949 219.832544 
L 82.977926 196.684345 
L 83.112414 213.599706 
L 83.246902 196.175496 
L 83.38139 195.708795 
L 83.650367 261.635233 
L 83.784855 256.028624 
L 83.919343 282.55499 
L 84.053831 285.257447 
L 84.18832 281.401647 
L 84.322808 195.699452 
L 84.457296 214.40142 
L 84.591784 195.699452 
L 84.860761 195.699452 
L 84.995249 197.769225 
L 85.264225 175.165137 
L 85.398714 188.94686 
L 85.533202 188.678545 
L 85.936666 212.31084 
L 86.340131 262.813691 
L 86.474619 269.104093 
L 86.609107 266.637991 
L 86.878084 280.860862 
L 87.14706 290.7728 
L 87.281549 288.306021 
L 87.416037 288.016254 
L 87.685013 286.057015 
L 87.95399 249.446011 
L 88.088478 250.394518 
L 88.222966 248.794244 
L 88.357454 256.78869 
L 88.626431 253.886582 
L 88.760919 256.800169 
L 88.895407 248.706701 
L 89.029895 253.157285 
L 89.164384 251.835679 
L 89.298872 257.616143 
L 89.567848 279.88697 
L 89.702336 279.08956 
L 89.836825 276.682779 
L 89.971313 276.778609 
L 90.105801 256.774478 
L 90.509266 263.980781 
L 90.643754 262.473763 
L 90.91273 266.883952 
L 91.047218 262.04624 
L 91.181707 245.911866 
L 91.316195 247.114725 
L 91.450683 241.819966 
L 91.585171 252.718218 
L 91.71966 250.768989 
L 91.854148 254.124498 
L 91.988636 253.73558 
L 92.257612 256.350708 
L 92.392101 255.394594 
L 92.661077 261.416267 
L 92.930053 269.302617 
L 93.064542 269.342597 
L 93.19903 264.232171 
L 93.333518 279.30905 
L 93.602495 278.323219 
L 93.736983 273.53903 
L 93.871471 272.819579 
L 94.140447 258.602776 
L 94.543912 175.255915 
L 94.812888 156.922806 
L 94.947377 156.12335 
L 95.216353 174.365324 
L 95.350841 170.731559 
L 95.48533 158.081858 
L 96.023282 262.633591 
L 96.292259 271.273296 
L 96.426747 269.507527 
L 96.561235 270.640177 
L 96.830212 269.06061 
L 96.9647 270.172132 
L 97.099188 270.285926 
L 97.233676 267.638088 
L 97.502653 223.560841 
L 97.637141 173.852156 
L 97.771629 173.779733 
L 97.906117 166.064079 
L 98.040606 187.904901 
L 98.175094 181.944059 
L 98.309582 185.257077 
L 98.44407 181.759075 
L 98.578558 182.460464 
L 98.847535 196.155308 
L 99.385488 272.865963 
L 99.519976 276.585565 
L 99.654464 274.135493 
L 99.788952 286.23793 
L 100.057929 282.421107 
L 100.192417 276.142101 
L 100.326905 278.591781 
L 100.461393 278.303423 
L 100.73037 277.00854 
L 100.864858 278.341599 
L 100.999346 278.348012 
L 101.133834 281.309464 
L 101.402811 276.838677 
L 101.537299 264.797644 
L 101.671787 272.117755 
L 101.940764 259.568458 
L 102.075252 258.092321 
L 102.344228 266.914221 
L 102.478717 268.087626 
L 102.613205 278.007791 
L 102.747693 274.418409 
L 102.882181 282.510077 
L 103.016669 253.933016 
L 103.285646 260.196041 
L 103.420134 271.513283 
L 103.823599 253.49096 
L 103.958087 227.536193 
L 104.227063 160.069579 
L 104.361552 149.373551 
L 104.49604 171.872137 
L 104.765016 146.364071 
L 105.168481 172.234687 
L 105.437457 214.660871 
L 105.840922 264.135705 
L 105.97541 263.253526 
L 106.109898 264.358655 
L 106.244387 286.816595 
L 106.378875 290.606657 
L 106.513363 287.072609 
L 106.647851 277.502495 
L 106.782339 278.273648 
L 106.916828 276.492662 
L 107.051316 277.300821 
L 107.320292 220.27948 
L 107.45478 220.271259 
L 107.723757 255.159118 
L 107.858245 254.05004 
L 107.992733 249.719136 
L 108.127222 250.55022 
L 108.530686 241.409122 
L 108.665174 245.173404 
L 109.068639 286.565436 
L 109.203127 284.581981 
L 109.472104 268.669738 
L 109.74108 269.021988 
L 109.875568 270.637004 
L 110.144545 269.511564 
L 110.548009 270.80489 
L 110.682498 272.300601 
L 110.816986 272.53791 
L 111.085962 270.016389 
L 111.22045 271.343217 
L 111.354939 270.908073 
L 111.623915 267.628187 
L 111.758403 265.073048 
L 111.892891 266.016792 
L 112.161868 271.850175 
L 112.296356 272.339437 
L 112.565333 271.967847 
L 112.699821 258.167366 
L 112.968797 263.38698 
L 113.103285 266.160573 
L 113.372262 265.162513 
L 113.775726 271.412819 
L 113.910215 268.390002 
L 114.044703 268.259726 
L 114.448168 259.146145 
L 114.582656 259.296214 
L 114.717144 259.137405 
L 115.120609 245.644024 
L 115.524073 261.928602 
L 115.658561 262.068629 
L 115.79305 258.233643 
L 115.927538 259.846844 
L 116.062026 259.821571 
L 116.196514 256.149212 
L 116.331002 263.749909 
L 116.465491 263.384596 
L 116.599979 260.510189 
L 116.734467 241.493291 
L 117.003444 126.2258 
L 117.27242 84.711217 
L 117.406908 97.922393 
L 117.541396 76.46738 
L 117.675885 77.577458 
L 118.213837 127.622732 
L 118.617302 240.010086 
L 118.886279 253.246992 
L 119.020767 254.928426 
L 119.289743 253.149158 
L 119.55872 254.078431 
L 119.693208 255.761389 
L 119.827696 255.826194 
L 119.962184 239.483811 
L 120.231161 119.108813 
L 120.769114 81.248012 
L 120.903602 80.394327 
L 121.03809 80.550016 
L 121.172578 86.104146 
L 121.441555 111.079327 
L 121.845019 233.367823 
L 121.979507 247.647686 
L 122.113996 246.207658 
L 122.248484 247.7847 
L 122.382972 243.979358 
L 122.651948 262.406137 
L 122.786437 260.173154 
L 123.055413 252.101218 
L 123.189901 238.764863 
L 123.593366 101.639287 
L 123.862342 78.766009 
L 123.996831 75.164086 
L 124.131319 81.105648 
L 124.400295 115.173267 
L 124.669272 126.956335 
L 125.072736 242.934515 
L 125.341713 258.882018 
L 125.476201 261.200539 
L 125.610689 251.666265 
L 125.879666 270.127688 
L 126.014154 272.42864 
L 126.148642 266.394145 
L 126.417618 240.005946 
L 126.686595 131.534862 
L 126.955571 92.823128 
L 127.09006 98.629891 
L 127.224548 91.183738 
L 127.896989 137.215523 
L 128.434942 255.746832 
L 128.838406 257.722538 
L 128.972894 257.204534 
L 129.107383 262.107114 
L 129.241871 262.538183 
L 129.376359 264.2585 
L 129.645336 225.914174 
L 130.0488 96.080911 
L 130.183288 87.577735 
L 130.317777 98.91788 
L 130.452265 88.265561 
L 130.586753 119.774281 
L 130.855729 131.978252 
L 130.990218 140.919463 
L 131.124706 160.955526 
L 131.393682 242.791148 
L 131.662659 259.126885 
L 131.931635 264.53758 
L 132.200612 256.81236 
L 132.469588 269.731886 
L 132.604076 269.277435 
L 132.738564 268.537515 
L 132.873053 266.839827 
L 133.142029 251.972496 
L 133.276517 244.70981 
L 133.411005 243.823695 
L 133.679982 240.011524 
L 133.81447 240.62704 
L 133.948958 239.860273 
L 134.083447 235.645911 
L 134.890376 255.153769 
L 135.024864 254.194558 
L 135.159352 255.353656 
L 135.697305 264.551717 
L 135.831793 266.162195 
L 135.966282 271.047989 
L 136.10077 271.199151 
L 136.235258 268.377653 
L 136.369746 268.459622 
L 136.504234 268.16689 
L 136.638723 263.75347 
L 136.773211 263.109063 
L 136.907699 261.851935 
L 137.042187 262.877282 
L 137.445652 249.538087 
L 137.58014 251.741077 
L 137.714628 250.016066 
L 138.118093 259.374109 
L 138.252581 257.748161 
L 138.387069 254.683109 
L 138.521558 261.072946 
L 138.790534 258.801643 
L 139.05951 264.857746 
L 139.328487 234.446733 
L 139.597463 121.946508 
L 139.86644 85.211189 
L 140.000928 97.144499 
L 140.135416 83.529823 
L 140.942345 163.121918 
L 141.211322 248.593104 
L 141.614786 262.280627 
L 141.749275 263.891074 
L 141.883763 262.262272 
L 142.152739 263.882146 
L 142.287228 260.500124 
L 142.556204 223.302687 
L 142.959669 96.039056 
L 143.094157 90.765115 
L 143.228645 90.690275 
L 143.363133 85.07726 
L 143.497621 95.063076 
L 143.63211 89.737288 
L 143.766598 97.529985 
L 144.439039 243.81014 
L 144.842504 269.530766 
L 145.11148 259.561088 
L 145.245968 260.251154 
L 145.380456 264.149952 
L 145.514945 256.385539 
L 146.321874 90.286975 
L 146.725339 125.562506 
L 146.859827 122.631047 
L 146.994315 131.002654 
L 147.128803 123.291691 
L 147.263291 139.195402 
L 147.532268 245.323533 
L 147.801244 256.274189 
L 148.070221 266.857604 
L 148.204709 265.731763 
L 148.339197 263.232358 
L 148.473685 263.292616 
L 148.608174 262.083563 
L 148.742662 259.404837 
L 148.87715 259.037465 
L 149.011638 228.934125 
L 149.280615 126.489038 
L 149.415103 112.400296 
L 149.684079 106.671094 
L 149.818567 107.477855 
L 150.222032 160.256091 
L 150.35652 147.439662 
L 150.491009 152.786191 
L 150.894473 254.011277 
L 151.297938 267.408449 
L 151.566914 259.945688 
L 151.701402 265.038415 
L 151.970379 266.043471 
L 152.104867 262.295777 
L 152.373843 167.745831 
L 152.64282 109.095065 
L 152.777308 114.225349 
L 152.911796 111.497839 
L 153.046285 102.90955 
L 153.180773 128.550716 
L 153.315261 124.965125 
L 153.584237 182.727718 
L 154.256678 272.307326 
L 154.391167 273.135503 
L 154.525655 273.082278 
L 154.660143 269.955268 
L 154.794631 271.516457 
L 154.92912 271.519615 
L 155.063608 272.373104 
L 155.332584 276.282305 
L 155.467072 275.468116 
L 155.601561 269.38536 
L 155.736049 255.19606 
L 155.870537 255.705403 
L 156.005025 254.460081 
L 156.139513 260.58215 
L 156.274002 259.512984 
L 156.542978 259.264756 
L 156.677466 260.994217 
L 156.811955 259.678872 
L 156.946443 261.162019 
L 157.080931 261.340572 
L 157.484396 268.898718 
L 157.618884 267.1745 
L 157.753372 267.338324 
L 158.156837 271.243782 
L 158.291325 271.966718 
L 158.694789 278.680522 
L 158.829278 276.135511 
L 158.963766 276.014784 
L 159.098254 275.515842 
L 159.367231 272.661077 
L 159.501719 273.220356 
L 159.636207 271.756444 
L 160.17416 255.658362 
L 160.443136 257.981705 
L 160.577624 266.439955 
L 160.712113 266.012791 
L 160.846601 263.551752 
L 160.981089 257.422481 
L 161.115577 260.737136 
L 161.250066 267.621146 
L 161.384554 267.955009 
L 161.519042 267.686351 
L 161.65353 266.417058 
L 161.922507 237.240176 
L 162.325971 106.919338 
L 162.460459 84.975633 
L 162.594948 95.469388 
L 162.863924 83.409394 
L 163.132901 110.776912 
L 163.267389 121.740392 
L 163.536365 177.189333 
L 163.805342 248.701731 
L 164.208806 264.482607 
L 164.343294 262.268649 
L 164.477783 272.145551 
L 164.612271 273.541287 
L 164.746759 276.770812 
L 165.150224 229.012017 
L 165.553688 110.566639 
L 165.688177 116.584778 
L 165.822665 109.845787 
L 165.957153 108.920474 
L 166.091641 119.235249 
L 166.495106 106.045703 
L 166.629594 114.053647 
L 166.89857 237.524798 
L 167.033059 249.045203 
L 167.167547 249.231096 
L 167.7055 258.448378 
L 167.974476 265.430173 
L 168.108964 264.988471 
L 168.243453 252.96085 
L 168.377941 228.161138 
L 168.781405 103.281154 
L 168.915894 101.364125 
L 169.050382 101.920612 
L 169.18487 107.027868 
L 169.319358 116.875766 
L 169.453847 98.02571 
L 169.588335 103.01258 
L 169.991799 179.048013 
L 170.260776 251.989278 
L 170.395264 260.813475 
L 170.529752 260.296892 
L 170.66424 266.484528 
L 170.933217 259.47454 
L 171.067705 260.481457 
L 171.202193 260.6341 
L 171.336681 265.099637 
L 171.740146 175.372799 
L 172.009123 104.505254 
L 172.143611 103.799855 
L 172.278099 106.257563 
L 172.412587 102.036516 
L 172.547075 103.460666 
L 173.085028 153.742659 
L 173.488493 254.683535 
L 173.891958 271.00479 
L 174.026446 283.347935 
L 174.42991 270.842837 
L 174.564399 274.005549 
L 174.833375 248.013704 
L 175.371328 144.864008 
L 175.640304 141.202698 
L 175.774792 159.155585 
L 175.909281 159.887074 
L 176.043769 163.283262 
L 176.178257 177.355525 
L 176.312745 171.878919 
L 176.447234 194.869804 
L 176.71621 256.356067 
L 176.985186 264.941176 
L 177.119675 268.362502 
L 177.254163 266.649879 
L 177.388651 266.925345 
L 177.523139 268.094741 
L 178.061092 275.2526 
L 178.330069 261.906846 
L 178.464557 260.673375 
L 178.733533 254.265479 
L 178.868021 254.846961 
L 179.00251 259.731374 
L 179.540462 253.07425 
L 179.674951 252.792269 
L 179.809439 255.605331 
L 180.078415 270.626103 
L 180.347392 266.343439 
L 180.616368 276.486995 
L 180.750856 276.470387 
L 180.885345 274.35371 
L 181.019833 274.973647 
L 181.154321 274.982372 
L 181.557786 263.14629 
L 181.692274 264.230534 
L 181.826762 263.137699 
L 181.96125 265.778743 
L 182.095738 259.109503 
L 182.76818 273.37034 
L 183.037156 271.958789 
L 183.306132 277.548407 
L 183.440621 279.119452 
L 183.709597 269.801974 
L 183.978573 287.188402 
L 184.113062 289.699804 
L 184.516526 254.356341 
L 184.785503 171.612507 
L 184.919991 165.100198 
L 185.054479 170.832199 
L 185.188967 185.949577 
L 185.323456 178.383645 
L 185.592432 187.762649 
L 185.72692 189.249507 
L 186.53385 271.0446 
L 186.937314 283.193195 
L 187.071802 294.389543 
L 187.206291 295.488 
L 187.609755 278.972961 
L 187.744243 265.497088 
L 188.01322 168.064789 
L 188.147708 165.404825 
L 188.416684 184.755879 
L 188.551173 184.571791 
L 188.820149 202.634862 
L 188.954637 198.248076 
L 189.089126 202.697175 
L 189.223614 211.473372 
L 189.627078 270.330219 
L 189.761567 273.033108 
L 189.896055 271.431988 
L 190.030543 274.030595 
L 190.165031 268.619296 
L 190.299519 269.480738 
L 190.434008 267.011912 
L 190.568496 267.392109 
L 190.702984 267.341488 
L 190.837472 268.62971 
L 190.971961 271.379877 
L 191.106449 271.08695 
L 191.240937 264.596106 
L 191.375425 263.830818 
L 191.509913 265.484871 
L 191.644402 260.582806 
L 191.77889 262.792932 
L 191.913378 261.764679 
L 192.047866 262.640674 
L 192.316843 254.023602 
L 192.451331 255.8737 
L 192.585819 256.041239 
L 192.720307 257.984547 
L 192.989284 268.745304 
L 193.123772 268.773362 
L 193.392748 261.211613 
L 193.527237 259.743217 
L 193.796213 266.146434 
L 193.930701 267.412369 
L 194.199678 251.212918 
L 194.468654 170.016022 
L 194.73763 151.702804 
L 194.872119 151.34168 
L 195.006607 142.885458 
L 195.275583 158.185916 
L 195.410072 149.684088 
L 195.679048 169.697559 
L 195.948024 241.562005 
L 196.082513 260.237456 
L 196.217001 261.576306 
L 196.351489 266.433761 
L 196.485977 262.26502 
L 196.620465 274.883609 
L 196.889442 271.945072 
L 197.02393 265.743924 
L 197.158418 269.092485 
L 197.292907 265.748668 
L 197.427395 254.061505 
L 197.830859 179.076491 
L 197.965348 183.84134 
L 198.099836 200.608617 
L 198.234324 197.113661 
L 198.368812 206.987507 
L 198.637789 190.711501 
L 198.772277 197.165066 
L 199.041253 237.238247 
L 199.31023 273.270313 
L 199.579206 281.770166 
L 199.713694 277.318418 
L 199.848183 280.677434 
L 199.982671 278.530789 
L 200.117159 278.338561 
L 200.251647 277.791775 
L 200.386135 276.282653 
L 200.520624 269.445362 
L 200.655112 268.905951 
L 200.7896 252.427455 
L 200.924088 195.413358 
L 201.058576 193.0911 
L 201.193065 186.757511 
L 201.327553 203.363365 
L 201.462041 200.97403 
L 201.596529 207.23716 
L 201.865506 196.024156 
L 201.999994 198.275137 
L 202.672435 272.919281 
L 202.806923 274.613602 
L 202.941411 273.638887 
L 203.210388 261.847192 
L 203.479364 268.418855 
L 203.882829 256.170397 
L 204.017317 236.103551 
L 204.286294 167.276107 
L 204.420782 159.093883 
L 204.55527 164.19785 
L 204.689758 162.147011 
L 204.824246 171.980508 
L 204.958735 166.056035 
L 205.093223 186.987834 
L 205.227711 188.099872 
L 205.765664 261.017932 
L 205.900152 266.968854 
L 206.03464 267.589904 
L 206.169129 264.147273 
L 206.303617 285.744796 
L 206.572593 288.699683 
L 206.707081 282.871649 
L 206.84157 284.662772 
L 206.976058 283.426431 
L 207.514011 252.844743 
L 207.648499 256.630437 
L 207.917475 271.615846 
L 208.051964 273.302697 
L 208.186452 271.174669 
L 208.455428 259.067286 
L 208.589916 260.40736 
L 208.724405 263.028321 
L 208.993381 276.953306 
L 209.127869 283.181884 
L 209.396846 278.293249 
L 209.531334 264.914365 
L 209.665822 266.977933 
L 209.80031 266.695294 
L 209.934799 271.221893 
L 210.069287 271.672717 
L 210.338263 251.073722 
L 210.741728 145.025051 
L 211.145192 109.32458 
L 212.355586 264.027713 
L 212.490075 264.499847 
L 212.624563 264.320323 
L 212.893539 276.340311 
L 213.162516 270.224009 
L 213.297004 272.407527 
L 213.56598 241.703893 
L 213.834957 136.573557 
L 213.969445 125.132567 
L 214.910862 197.239733 
L 215.045351 198.760546 
L 215.448815 272.220147 
L 215.85228 263.129392 
L 215.986768 267.42341 
L 216.390233 268.618562 
L 216.524721 271.424417 
L 216.659209 264.096624 
L 216.793697 249.887741 
L 217.062674 141.735047 
L 217.197162 135.597779 
L 217.600627 174.483131 
L 217.735115 174.668376 
L 217.869603 156.319125 
L 218.004091 162.038674 
L 218.811021 274.414515 
L 218.945509 275.791238 
L 219.079997 264.258505 
L 219.214485 263.140519 
L 219.348973 263.93795 
L 219.61795 276.247627 
L 219.752438 278.054808 
L 220.021414 249.160599 
L 220.290391 141.347239 
L 220.424879 144.127224 
L 220.693856 159.244394 
L 220.828344 157.067861 
L 220.962832 172.352859 
L 221.09732 167.835299 
L 221.366297 203.091704 
L 221.635273 215.208066 
L 221.904249 268.658359 
L 222.173226 275.54169 
L 222.442202 271.540222 
L 222.576691 273.317489 
L 222.845667 277.621331 
L 222.980155 278.475441 
L 223.114643 275.946049 
L 223.249132 277.746903 
L 223.518108 253.0437 
L 223.787084 261.2414 
L 223.921573 260.21425 
L 224.056061 255.738 
L 224.190549 255.581876 
L 224.325037 256.645406 
L 224.459525 260.020397 
L 224.594014 258.846941 
L 224.86299 252.59494 
L 225.266455 262.239768 
L 225.400943 259.546993 
L 225.535431 259.756516 
L 225.669919 259.752133 
L 225.804408 258.628303 
L 226.207872 270.135692 
L 226.34236 270.782471 
L 226.476849 272.403184 
L 226.611337 271.331288 
L 226.880313 266.895311 
L 227.14929 270.055247 
L 227.283778 271.025066 
L 227.418266 268.757852 
L 227.552754 270.115662 
L 227.687243 270.279498 
L 227.821731 270.164347 
L 227.956219 268.304837 
L 228.090707 268.125246 
L 228.225195 274.837766 
L 228.359684 275.076573 
L 228.494172 276.102186 
L 228.62866 273.754326 
L 228.763148 274.905897 
L 228.897637 274.081001 
L 229.032125 270.649209 
L 229.166613 270.396584 
L 229.435589 273.261772 
L 229.570078 261.33017 
L 229.704566 234.623426 
L 229.973542 133.421569 
L 230.242519 97.673751 
L 230.377007 99.291893 
L 230.511495 85.662728 
L 230.780471 118.473107 
L 230.91496 126.190457 
L 231.318424 204.695695 
L 231.587401 255.456372 
L 231.856377 262.917905 
L 232.125354 271.094558 
L 232.259842 269.849057 
L 232.528818 273.783381 
L 232.663306 271.529665 
L 232.932283 236.908182 
L 233.201259 140.286508 
L 233.470236 120.736586 
L 233.604724 137.107828 
L 233.739212 138.986544 
L 233.8737 163.460386 
L 234.008189 144.30786 
L 234.142677 150.315458 
L 234.68063 249.01448 
L 234.949606 268.427484 
L 235.084094 266.917582 
L 235.218583 268.144907 
L 235.353071 268.070075 
L 235.622047 278.939703 
L 235.756535 278.366933 
L 235.891024 275.056582 
L 236.16 248.666314 
L 236.428976 133.755584 
L 236.563465 124.101146 
L 236.697953 127.485612 
L 236.832441 125.755718 
L 236.966929 115.237386 
L 237.370394 171.001463 
L 237.504882 182.431934 
L 238.177323 271.587879 
L 238.4463 269.374489 
L 238.580788 269.888058 
L 238.849764 279.996988 
L 238.984252 285.048561 
L 239.118741 282.076637 
L 239.253229 272.677409 
L 239.387717 244.516452 
L 239.656694 140.736153 
L 239.92567 124.649339 
L 240.329135 159.234237 
L 240.598111 188.601787 
L 240.867087 200.580569 
L 241.270552 262.115617 
L 241.40504 265.968988 
L 241.539529 263.312267 
L 241.674017 264.01209 
L 241.808505 259.818624 
L 241.942993 276.92 
L 242.077481 278.923513 
L 242.21197 289.50437 
L 242.346458 282.353568 
L 242.480946 268.602625 
L 242.615434 243.359496 
L 242.884411 142.771692 
L 243.018899 139.334665 
L 243.287875 160.761813 
L 243.422363 149.916916 
L 243.556852 160.574541 
L 243.69134 153.540853 
L 243.960316 181.109555 
L 244.229293 237.494834 
L 244.498269 261.782751 
L 244.632757 272.110629 
L 244.767246 271.736981 
L 244.901734 269.271007 
L 245.036222 270.566152 
L 245.17071 274.011372 
L 245.439687 274.754328 
L 245.708663 272.235059 
L 245.843151 257.200677 
L 245.97764 264.28906 
L 246.112128 262.796543 
L 246.246616 264.784955 
L 246.515592 259.122375 
L 246.650081 260.084519 
L 247.188033 270.40273 
L 247.322522 272.733516 
L 247.45701 272.367033 
L 247.591498 273.120845 
L 247.725986 272.384007 
L 247.860475 275.525509 
L 247.994963 273.748226 
L 248.263939 273.751869 
L 248.398427 272.815821 
L 248.532916 273.067368 
L 248.667404 272.269183 
L 248.801892 274.176905 
L 248.93638 274.084848 
L 249.070868 274.764629 
L 249.205357 274.473702 
L 249.474333 276.361461 
L 249.608821 276.390441 
L 250.012286 275.274788 
L 250.281262 273.167465 
L 250.415751 273.372808 
L 250.684727 272.609134 
L 250.953703 273.32253 
L 251.088192 274.487453 
L 251.357168 270.972096 
L 251.491656 270.88343 
L 251.626144 286.724859 
L 251.760633 285.192314 
L 251.895121 286.015371 
L 252.029609 279.300391 
L 252.298586 256.514499 
L 252.567562 147.738766 
L 252.70205 135.484953 
L 252.836538 141.267979 
L 252.971027 165.925902 
L 253.105515 167.388672 
L 253.374491 186.284849 
L 253.643468 179.58613 
L 253.912444 217.550807 
L 254.181421 264.102356 
L 254.450397 280.462403 
L 254.584885 283.744308 
L 254.719373 283.119936 
L 254.853862 286.501607 
L 254.98835 285.403518 
L 255.122838 286.899333 
L 255.257326 284.769115 
L 255.526303 244.833633 
L 255.795279 155.658316 
L 255.929767 157.465756 
L 256.198744 169.577368 
L 256.333232 163.373601 
L 256.46772 167.037103 
L 256.602208 164.60463 
L 256.736697 167.677615 
L 257.274649 250.320564 
L 257.543626 268.959414 
L 257.678114 266.072356 
L 257.812602 267.194193 
L 257.94709 262.930976 
L 258.216067 285.508483 
L 258.350555 286.937996 
L 258.619532 263.911617 
L 258.75402 249.815913 
L 259.022996 153.88114 
L 259.157484 154.968719 
L 259.426461 174.51717 
L 259.560949 155.546519 
L 259.829925 178.628423 
L 259.964414 165.50572 
L 260.23339 199.555023 
L 260.636855 256.9073 
L 260.905831 266.117499 
L 261.174808 262.034933 
L 261.578272 275.671555 
L 261.847249 265.904751 
L 261.981737 240.747577 
L 262.250713 146.924642 
L 262.51969 159.185708 
L 262.654178 150.893431 
L 262.788666 149.51698 
L 262.923154 158.321177 
L 263.057643 156.406714 
L 263.326619 188.903385 
L 263.864572 248.88192 
L 264.133548 259.081658 
L 264.268036 259.491606 
L 264.402525 266.91734 
L 264.537013 263.322244 
L 264.671501 266.311778 
L 264.805989 261.674925 
L 264.940478 262.434078 
L 265.074966 258.60771 
L 265.209454 245.367376 
L 265.881895 109.741729 
L 266.016383 104.088575 
L 266.28536 120.719522 
L 266.419848 122.257545 
L 266.554336 130.054918 
L 266.823312 182.379019 
L 267.092289 253.708209 
L 267.226777 257.888958 
L 267.361265 257.777705 
L 267.495754 257.824085 
L 267.630242 269.829378 
L 267.76473 268.423429 
L 267.899218 270.502768 
L 268.033706 267.091616 
L 268.302683 274.195182 
L 268.437171 275.172899 
L 268.571659 271.419306 
L 268.840636 273.720205 
L 269.2441 267.765937 
L 269.378589 267.918606 
L 270.05103 253.154666 
L 270.723471 263.354784 
L 270.857959 278.921525 
L 270.992447 279.415005 
L 271.261424 274.937978 
L 271.395912 275.284951 
L 271.5304 275.693713 
L 271.933865 278.604831 
L 272.068353 275.888526 
L 272.202841 276.405977 
L 272.337329 275.648998 
L 272.471817 275.982647 
L 272.740794 272.609253 
L 272.875282 274.014988 
L 273.144258 273.154043 
L 273.278747 269.878722 
L 273.413235 269.806764 
L 273.682211 273.367377 
L 273.951188 273.566064 
L 274.085676 271.227116 
L 274.220164 288.512066 
L 274.489141 293.488618 
L 274.758117 273.175103 
L 274.892605 256.197661 
L 275.161582 179.376539 
L 275.430558 157.100339 
L 275.699535 151.974079 
L 275.834023 157.041299 
L 276.102999 193.360573 
L 276.909928 273.873194 
L 277.044417 276.255681 
L 277.178905 275.999584 
L 277.313393 273.133802 
L 277.447881 280.266679 
L 277.58237 279.347868 
L 277.716858 283.233049 
L 277.851346 280.87423 
L 277.985834 276.069754 
L 278.120322 263.39297 
L 278.389299 206.852081 
L 278.658275 185.047457 
L 278.792763 187.774585 
L 278.927252 180.774939 
L 279.06174 201.326143 
L 279.196228 198.25508 
L 279.330716 201.546451 
L 279.599693 227.025662 
L 280.137646 273.456403 
L 280.272134 275.071245 
L 280.406622 279.962384 
L 280.675598 258.430641 
L 280.810087 257.817991 
L 280.944575 264.595481 
L 281.079063 263.511951 
L 281.348039 249.925982 
L 281.751504 134.103872 
L 281.885992 122.542931 
L 282.289457 151.020805 
L 282.423945 129.360913 
L 282.558433 135.27735 
L 282.692922 147.557697 
L 283.230874 259.632912 
L 283.365363 263.159052 
L 283.634339 261.856968 
L 283.768827 258.225207 
L 283.903316 258.092638 
L 284.037804 256.712074 
L 284.172292 259.585669 
L 284.30678 259.731425 
L 284.575757 249.807134 
L 284.979221 147.435231 
L 285.113709 152.777853 
L 285.248198 142.837976 
L 285.382686 144.55195 
L 285.517174 142.029387 
L 285.651662 157.782394 
L 285.78615 157.350551 
L 285.920639 161.50282 
L 286.458592 259.038648 
L 286.59308 260.997817 
L 286.727568 265.434329 
L 286.862056 259.985139 
L 286.996544 287.120689 
L 287.265521 284.628309 
L 287.400009 273.308122 
L 287.668985 271.739048 
L 287.803474 268.204829 
L 287.937962 270.960521 
L 288.07245 270.642725 
L 288.206938 272.041133 
L 288.341427 267.778967 
L 288.475915 268.543195 
L 288.610403 264.699476 
L 288.744891 265.512161 
L 288.879379 263.650617 
L 289.013868 269.535854 
L 289.148356 270.020746 
L 289.282844 265.704318 
L 289.686309 279.380732 
L 289.955285 273.710448 
L 290.089773 275.752208 
L 290.224262 274.166739 
L 290.35875 276.101553 
L 290.493238 274.811406 
L 290.627726 276.625681 
L 290.762214 274.137102 
L 291.165679 251.646877 
L 291.434655 174.224963 
L 291.569144 172.249815 
L 291.83812 197.313266 
L 291.972608 192.773641 
L 292.107096 183.872986 
L 292.376073 196.711234 
L 292.645049 231.830717 
L 292.914026 268.245036 
L 293.183002 273.348571 
L 293.451979 267.636128 
L 293.586467 267.310457 
L 293.720955 265.898593 
L 293.855443 269.170708 
L 293.989931 269.27119 
L 294.258908 258.577241 
L 294.393396 239.113746 
L 294.662373 173.245449 
L 294.796861 151.932932 
L 294.931349 152.383018 
L 295.065837 138.43722 
L 295.200325 143.135557 
L 295.334814 158.298547 
L 295.469302 154.935464 
L 295.738278 198.484463 
L 296.007255 243.792271 
L 296.141743 262.599624 
L 296.276231 265.299459 
L 296.410719 264.74593 
L 296.545208 263.206524 
L 296.679696 289.356027 
L 296.814184 291.726873 
L 296.948672 289.93028 
L 297.08316 280.129011 
L 297.217649 281.389573 
L 297.352137 281.52987 
L 297.621113 283.028621 
L 297.89009 280.401586 
L 298.159066 271.304312 
L 298.293554 273.824629 
L 298.428042 273.170235 
L 298.965995 267.813951 
L 299.234972 269.568516 
L 299.503948 277.282091 
L 299.638436 275.879843 
L 299.772925 276.48335 
L 299.907413 258.197018 
L 300.041901 264.973662 
L 300.176389 263.42193 
L 300.310877 272.099066 
L 300.445366 268.103839 
L 300.714342 247.799116 
L 301.117807 144.813109 
L 301.386783 123.535928 
L 301.521271 123.757628 
L 301.65576 145.096969 
L 301.790248 140.952213 
L 302.731665 263.183715 
L 302.866153 262.364313 
L 303.13513 269.48372 
L 303.269618 269.074704 
L 303.404106 264.638919 
L 303.673083 267.994795 
L 304.076547 205.868585 
L 304.211036 163.475255 
L 304.480012 157.167506 
L 304.6145 158.260562 
L 304.748988 155.088072 
L 304.883477 166.241056 
L 305.017965 156.841955 
L 305.152453 166.732693 
L 305.824894 256.065414 
L 305.959382 267.837956 
L 306.093871 267.055136 
L 306.228359 268.281272 
L 306.362847 264.354895 
L 306.497335 278.364376 
L 306.766312 279.959953 
L 307.035288 267.004528 
L 307.169776 248.142988 
L 307.438753 151.625939 
L 307.707729 167.360807 
L 307.976706 161.335276 
L 308.111194 169.031784 
L 308.245682 160.101235 
L 308.38017 168.331308 
L 309.187099 271.676935 
L 309.321588 273.75135 
L 309.456076 273.045643 
L 309.590564 273.342523 
L 309.725052 277.212267 
L 309.859541 275.191681 
L 309.994029 276.381217 
L 310.128517 274.072227 
L 310.263005 267.203199 
L 310.397493 243.713218 
L 310.66647 150.90856 
L 311.069934 165.943572 
L 311.204423 162.603537 
L 311.338911 170.757047 
L 311.473399 169.642994 
L 311.607887 162.258871 
L 312.414817 267.789798 
L 312.818281 269.74929 
L 312.952769 271.714937 
L 313.087258 270.077671 
L 313.221746 271.395467 
L 313.356234 270.464061 
L 313.490722 272.268278 
L 313.894187 250.724763 
L 314.028675 256.637479 
L 314.163163 255.675594 
L 314.297652 259.655961 
L 314.43214 255.730399 
L 314.566628 262.123677 
L 314.701116 263.0675 
L 315.104581 267.907455 
L 315.239069 267.098178 
L 315.373557 265.576929 
L 315.642534 268.447617 
L 315.777022 269.284292 
L 315.91151 268.201421 
L 316.314975 271.826947 
L 316.449463 270.782649 
L 316.583951 271.795125 
L 316.718439 271.763421 
L 316.852928 273.010422 
L 316.987416 272.897405 
L 317.121904 271.94125 
L 317.256392 271.808632 
L 317.39088 270.74838 
L 317.525369 271.293855 
L 317.659857 269.654272 
L 317.794345 271.101613 
L 318.19781 266.244153 
L 318.332298 265.641112 
L 318.466786 263.470902 
L 318.601274 264.744443 
L 318.735763 264.490442 
L 318.870251 267.145058 
L 319.004739 266.589647 
L 319.273715 264.297674 
L 319.408204 281.954607 
L 319.67718 282.884542 
L 319.946157 271.82441 
L 320.080645 256.760423 
L 320.349621 150.36566 
L 320.618598 131.65034 
L 320.887574 149.597852 
L 321.15655 182.7738 
L 321.425527 195.196733 
L 321.560015 194.658893 
L 322.097968 269.418277 
L 322.232456 267.010766 
L 322.366944 268.004998 
L 322.501433 267.671042 
L 322.635921 283.333299 
L 322.770409 283.469103 
L 322.904897 283.956776 
L 323.308362 262.16521 
L 323.577338 158.561947 
L 323.711826 157.641612 
L 323.846315 171.064457 
L 324.115291 155.854842 
L 324.249779 159.401351 
L 324.384268 159.703606 
L 324.518756 166.28503 
L 325.191197 264.038194 
L 325.325685 269.009328 
L 325.460173 265.034963 
L 325.72915 266.785234 
L 325.998126 281.312406 
L 326.132614 283.758094 
L 326.401591 272.970106 
L 326.536079 257.56152 
L 326.805055 150.930093 
L 326.939544 156.900326 
L 327.074032 169.485624 
L 327.20852 161.698364 
L 327.343008 165.738207 
L 327.477496 174.331354 
L 327.611985 171.410917 
L 327.746473 172.925926 
L 327.880961 179.77209 
L 328.284426 241.475454 
L 328.553402 264.432204 
L 328.822379 272.419584 
L 328.956867 273.076848 
L 329.091355 285.391147 
L 329.225843 284.33093 
L 329.360331 284.575703 
L 329.763796 254.425367 
L 330.032772 161.200281 
L 330.167261 158.794239 
L 330.301749 169.854184 
L 330.436237 169.382533 
L 330.705214 159.319008 
L 330.97419 191.205152 
L 331.243166 199.780336 
L 331.781119 266.81643 
L 331.915607 266.288564 
L 332.050096 264.868742 
L 332.184584 268.477004 
L 332.319072 283.299264 
L 332.45356 283.928092 
L 332.588049 281.080629 
L 332.857025 266.636884 
L 332.991513 255.296259 
L 333.26049 161.439769 
L 333.394978 162.443189 
L 333.529466 174.517007 
L 333.663954 167.226973 
L 333.798442 168.223792 
L 333.932931 170.461298 
L 334.067419 174.568616 
L 334.336395 194.589485 
L 334.470883 201.079888 
L 334.874348 264.844819 
L 335.277813 275.308785 
L 335.546789 271.295974 
L 335.681277 270.322837 
L 335.815766 270.320652 
L 336.084742 273.208904 
L 336.21923 270.966583 
L 336.622695 256.230324 
L 336.757183 253.660671 
L 336.891671 256.166407 
L 337.02616 256.294911 
L 337.429624 264.353857 
L 337.833089 268.934292 
L 337.967577 267.813455 
L 338.236553 271.054835 
L 338.371042 270.317869 
L 338.50553 268.890371 
L 338.640018 265.75673 
L 339.043483 268.343148 
L 339.312459 270.275468 
L 339.581436 271.950068 
L 339.850412 270.62598 
L 339.9849 271.399229 
L 340.119388 271.060437 
L 340.253877 271.818368 
L 340.388365 271.383644 
L 340.522853 273.018093 
L 340.657341 271.104282 
L 340.791829 271.792008 
L 340.926318 270.981223 
L 341.060806 270.930023 
L 341.195294 266.838898 
L 341.464271 270.754019 
L 341.598759 271.805722 
L 341.733247 268.875549 
L 341.867735 270.847249 
L 342.002223 282.674311 
L 342.136712 282.875722 
L 342.2712 282.799919 
L 342.405688 278.625917 
L 342.674664 258.359761 
L 343.078129 138.60943 
L 343.347106 168.822899 
L 343.481594 173.83272 
L 343.616082 186.690849 
L 343.75057 187.567753 
L 344.019547 194.550542 
L 344.154035 192.602712 
L 344.557499 261.325321 
L 344.826476 268.419343 
L 345.498917 282.614827 
L 345.767893 273.303693 
L 345.902382 260.835064 
L 346.171358 166.536477 
L 346.305846 172.085397 
L 346.440334 172.350442 
L 346.574823 171.811599 
L 346.709311 170.37941 
L 347.112775 182.536084 
L 347.247264 184.346881 
L 347.51624 224.28896 
L 347.785217 258.992493 
L 348.054193 267.537847 
L 348.188681 270.65371 
L 348.323169 270.092761 
L 348.457658 282.395069 
L 348.592146 281.505559 
L 348.726634 284.735881 
L 348.99561 268.464381 
L 349.130099 254.77736 
L 349.399075 162.169287 
L 349.533563 163.477779 
L 349.80254 162.254048 
L 349.937028 161.479961 
L 350.206004 179.586581 
L 351.28191 269.566138 
L 351.416398 271.847412 
L 351.550886 271.492446 
L 351.685375 286.216877 
L 351.819863 282.707973 
L 351.954351 282.232097 
L 352.357816 260.678892 
L 352.626792 151.690409 
L 353.030257 175.43463 
L 353.164745 166.224097 
L 353.299233 174.105465 
L 353.433721 174.401451 
L 353.702698 156.063773 
L 354.240651 265.701367 
L 354.509627 274.471414 
L 354.644115 272.084214 
L 355.04758 281.484231 
L 355.316556 278.483181 
L 355.451045 273.548599 
L 355.585533 256.320354 
L 355.854509 176.088126 
L 355.988998 175.108013 
L 356.257974 151.172191 
L 356.392462 155.419415 
L 356.795927 192.139392 
L 356.930415 189.836027 
L 357.33388 259.082791 
L 357.602856 279.954284 
L 357.737344 279.394832 
L 357.871832 276.756347 
L 358.006321 279.947528 
L 358.275297 277.597055 
L 358.409785 277.044236 
L 358.544274 277.497769 
L 358.81325 275.792049 
L 359.216715 254.735038 
L 359.351203 254.987668 
L 359.485691 253.090594 
L 359.620179 248.051626 
L 359.754667 262.627852 
L 360.023644 265.223607 
L 360.158132 267.41594 
L 360.427109 278.278434 
L 360.561597 277.190962 
L 360.696085 276.902114 
L 360.965061 277.900079 
L 361.09955 278.602311 
L 361.368526 277.947228 
L 361.503014 276.89438 
L 361.637502 278.115143 
L 361.906479 277.450728 
L 362.175455 279.16796 
L 362.309944 280.29718 
L 362.444432 280.349116 
L 362.713408 276.638951 
L 362.847896 276.400645 
L 362.982385 276.706625 
L 363.116873 275.869802 
L 363.385849 273.125429 
L 363.520337 274.676517 
L 363.789314 273.962894 
L 364.05829 275.405347 
L 364.192778 276.701061 
L 364.327267 230.175577 
L 364.596243 233.797185 
L 364.730731 254.703014 
L 364.86522 256.767368 
L 364.999708 254.310029 
L 365.268684 200.248598 
L 365.537661 120.324019 
L 365.672149 103.085696 
L 365.806637 103.089353 
L 365.941125 97.904664 
L 366.34459 130.255296 
L 366.479078 129.755849 
L 366.613566 139.568262 
L 367.017031 253.233358 
L 367.286007 260.516699 
L 367.420496 258.057318 
L 367.82396 268.78621 
L 367.958448 268.842433 
L 368.092937 270.243261 
L 368.496401 176.611761 
L 368.899866 95.552271 
L 369.034354 95.566515 
L 369.168842 82.961653 
L 369.437819 101.355419 
L 369.572307 112.615059 
L 369.706795 109.594995 
L 369.841283 124.519682 
L 370.244748 241.035856 
L 370.648213 262.778282 
L 370.782701 285.041412 
L 370.917189 287.265507 
L 371.051677 286.909156 
L 371.186166 275.507003 
L 371.320654 276.40299 
L 371.58963 248.28625 
L 371.858607 160.394612 
L 371.993095 153.162886 
L 372.262071 218.613226 
L 372.531048 214.674489 
L 372.800024 193.460404 
L 372.934512 198.55876 
L 373.203489 232.478337 
L 373.472465 258.468149 
L 373.741442 268.663091 
L 373.87593 269.325598 
L 374.144906 295.206042 
L 374.279394 294.005914 
L 374.548371 282.823146 
L 374.817347 253.934492 
L 375.086324 188.833688 
L 375.3553 173.070547 
L 375.624277 176.603885 
L 376.162229 205.398534 
L 376.565694 255.990661 
L 376.83467 271.407549 
L 376.969159 268.341674 
L 377.103647 268.189354 
L 377.238135 285.087126 
L 377.372623 282.404534 
L 377.507112 282.6308 
L 377.776088 272.958983 
L 377.910576 278.914233 
L 378.045064 276.068388 
L 378.179553 277.302274 
L 378.314041 258.738865 
L 378.448529 260.338169 
L 378.583017 246.453376 
L 378.717505 254.766367 
L 378.851994 252.205069 
L 378.986482 266.10974 
L 379.12097 263.851847 
L 379.255458 265.962194 
L 379.389947 265.920019 
L 379.524435 266.30845 
L 380.062388 278.516934 
L 380.196876 276.57245 
L 380.331364 277.08758 
L 380.465852 263.64055 
L 380.734829 266.191573 
L 380.869317 271.492147 
L 381.003805 271.407966 
L 381.272782 256.316802 
L 381.810734 138.696524 
L 381.945223 137.074167 
L 382.348687 157.69068 
L 382.483175 148.605867 
L 383.155616 262.81426 
L 383.424593 270.151181 
L 383.559081 268.467859 
L 383.693569 259.969345 
L 383.828058 258.907972 
L 383.962546 258.742822 
L 384.231522 262.599546 
L 384.36601 260.084463 
L 384.500499 261.828893 
L 384.903963 157.850411 
L 385.038451 160.840544 
L 385.17294 145.69102 
L 385.307428 154.359947 
L 385.441916 180.71667 
L 385.576404 177.009017 
L 385.710893 179.85136 
L 385.845381 205.679343 
L 385.979869 209.34101 
L 386.383334 264.93555 
L 386.65231 272.681551 
L 386.786798 272.228949 
L 386.921286 282.948302 
L 387.459239 274.785915 
L 387.997192 279.34518 
L 388.13168 276.196761 
L 388.266169 279.447712 
L 388.669633 273.913672 
L 388.804121 273.595072 
L 388.93861 275.921445 
L 389.073098 271.226779 
L 389.342074 274.508118 
L 389.611051 287.768208 
L 390.014515 282.06284 
L 390.149004 254.923505 
L 390.283492 254.448858 
L 390.41798 254.601597 
L 390.552468 266.912995 
L 390.686956 265.027184 
L 390.821445 255.16947 
L 390.955933 255.652474 
L 391.090421 241.613963 
L 391.359397 169.817653 
L 391.493886 150.587084 
L 391.89735 184.444238 
L 392.031839 188.684304 
L 392.166327 178.783602 
L 392.300815 182.163041 
L 392.435303 193.520265 
L 392.838768 269.813964 
L 393.107744 274.216517 
L 393.242232 268.39582 
L 393.511209 254.982403 
L 393.780185 269.283011 
L 393.914673 263.984762 
L 394.049162 263.128303 
L 394.18365 248.979514 
L 394.587115 151.176752 
L 394.721603 152.84458 
L 394.856091 143.725187 
L 395.259556 152.086041 
L 395.394044 170.470015 
L 395.528532 170.338413 
L 395.931997 246.18578 
L 396.200973 264.736738 
L 396.335461 265.110316 
L 396.46995 255.274699 
L 396.604438 288.623206 
L 396.738926 289.031996 
L 396.873414 293.252994 
L 397.007902 279.688312 
L 397.142391 283.159002 
L 397.411367 257.115934 
L 397.680343 167.733912 
L 397.94932 167.9784 
L 398.083808 167.343916 
L 398.218296 151.780331 
L 398.352785 171.761923 
L 398.487273 168.326844 
L 398.487273 168.326844 
" clip-path="url(#p9bb609eb34)" style="fill: none; stroke: #ff7f0e; stroke-width: 1.5; stroke-linecap: square"/>
   </g>
   <g id="patch_3">
    <path d="M 57.6 307.584 
L 57.6 41.472 
" style="fill: none; stroke: #000000; stroke-width: 0.8; stroke-linejoin: miter; stroke-linecap: square"/>
   </g>
   <g id="patch_4">
    <path d="M 414.72 307.584 
L 414.72 41.472 
" style="fill: none; stroke: #000000; stroke-width: 0.8; stroke-linejoin: miter; stroke-linecap: square"/>
   </g>
   <g id="patch_5">
    <path d="M 57.6 307.584 
L 414.72 307.584 
" style="fill: none; stroke: #000000; stroke-width: 0.8; stroke-linejoin: miter; stroke-linecap: square"/>
   </g>
   <g id="patch_6">
    <path d="M 57.6 41.472 
L 414.72 41.472 
" style="fill: none; stroke: #000000; stroke-width: 0.8; stroke-linejoin: miter; stroke-linecap: square"/>
   </g>
  </g>
 </g>
 <defs>
  <clipPath id="p9bb609eb34">
   <rect x="57.6" y="41.472" width="357.12" height="266.112"/>
  </clipPath>
 </defs>
</svg>
