<?xml version="1.0" encoding="utf-8" standalone="no"?>
<!DOCTYPE svg PUBLIC "-//W3C//DTD SVG 1.1//EN"
  "http://www.w3.org/Graphics/SVG/1.1/DTD/svg11.dtd">
<svg xmlns:xlink="http://www.w3.org/1999/xlink" width="460.8pt" height="345.6pt" viewBox="0 0 460.8 345.6" xmlns="http://www.w3.org/2000/svg" version="1.1">
 <metadata>
  <rdf:RDF xmlns:dc="http://purl.org/dc/elements/1.1/" xmlns:cc="http://creativecommons.org/ns#" xmlns:rdf="http://www.w3.org/1999/02/22-rdf-syntax-ns#">
   <cc:Work>
    <dc:type rdf:resource="http://purl.org/dc/dcmitype/StillImage"/>
    <dc:date>2023-04-04T01:59:52.246492</dc:date>
    <dc:format>image/svg+xml</dc:format>
    <dc:creator>
     <cc:Agent>
      <dc:title>Matplotlib v3.5.2, https://matplotlib.org/</dc:title>
     </cc:Agent>
    </dc:creator>
   </cc:Work>
  </rdf:RDF>
 </metadata>
 <defs>
  <style type="text/css">*{stroke-linejoin: round; stroke-linecap: butt}</style>
 </defs>
 <g id="figure_1">
  <g id="patch_1">
   <path d="M 0 345.6 
L 460.8 345.6 
L 460.8 0 
L 0 0 
z
" style="fill: #ffffff"/>
  </g>
  <g id="axes_1">
   <g id="patch_2">
    <path d="M 57.6 307.584 
L 414.72 307.584 
L 414.72 41.472 
L 57.6 41.472 
z
" style="fill: #ffffff"/>
   </g>
   <g id="matplotlib.axis_1">
    <g id="xtick_1">
     <g id="line2d_1">
      <defs>
       <path id="m2ecd586499" d="M 0 0 
L 0 3.5 
" style="stroke: #000000; stroke-width: 0.8"/>
      </defs>
      <g>
       <use xlink:href="#m2ecd586499" x="73.832727" y="307.584" style="stroke: #000000; stroke-width: 0.8"/>
      </g>
     </g>
     <g id="text_1">
      <!-- 0 -->
      <g transform="translate(70.651477 322.182437)scale(0.1 -0.1)">
       <defs>
        <path id="DejaVuSans-30" d="M 2034 4250 
Q 1547 4250 1301 3770 
Q 1056 3291 1056 2328 
Q 1056 1369 1301 889 
Q 1547 409 2034 409 
Q 2525 409 2770 889 
Q 3016 1369 3016 2328 
Q 3016 3291 2770 3770 
Q 2525 4250 2034 4250 
z
M 2034 4750 
Q 2819 4750 3233 4129 
Q 3647 3509 3647 2328 
Q 3647 1150 3233 529 
Q 2819 -91 2034 -91 
Q 1250 -91 836 529 
Q 422 1150 422 2328 
Q 422 3509 836 4129 
Q 1250 4750 2034 4750 
z
" transform="scale(0.015625)"/>
       </defs>
       <use xlink:href="#DejaVuSans-30"/>
      </g>
     </g>
    </g>
    <g id="xtick_2">
     <g id="line2d_2">
      <g>
       <use xlink:href="#m2ecd586499" x="141.076834" y="307.584" style="stroke: #000000; stroke-width: 0.8"/>
      </g>
     </g>
     <g id="text_2">
      <!-- 500 -->
      <g transform="translate(131.533084 322.182437)scale(0.1 -0.1)">
       <defs>
        <path id="DejaVuSans-35" d="M 691 4666 
L 3169 4666 
L 3169 4134 
L 1269 4134 
L 1269 2991 
Q 1406 3038 1543 3061 
Q 1681 3084 1819 3084 
Q 2600 3084 3056 2656 
Q 3513 2228 3513 1497 
Q 3513 744 3044 326 
Q 2575 -91 1722 -91 
Q 1428 -91 1123 -41 
Q 819 9 494 109 
L 494 744 
Q 775 591 1075 516 
Q 1375 441 1709 441 
Q 2250 441 2565 725 
Q 2881 1009 2881 1497 
Q 2881 1984 2565 2268 
Q 2250 2553 1709 2553 
Q 1456 2553 1204 2497 
Q 953 2441 691 2322 
L 691 4666 
z
" transform="scale(0.015625)"/>
       </defs>
       <use xlink:href="#DejaVuSans-35"/>
       <use xlink:href="#DejaVuSans-30" x="63.623047"/>
       <use xlink:href="#DejaVuSans-30" x="127.246094"/>
      </g>
     </g>
    </g>
    <g id="xtick_3">
     <g id="line2d_3">
      <g>
       <use xlink:href="#m2ecd586499" x="208.32094" y="307.584" style="stroke: #000000; stroke-width: 0.8"/>
      </g>
     </g>
     <g id="text_3">
      <!-- 1000 -->
      <g transform="translate(195.59594 322.182437)scale(0.1 -0.1)">
       <defs>
        <path id="DejaVuSans-31" d="M 794 531 
L 1825 531 
L 1825 4091 
L 703 3866 
L 703 4441 
L 1819 4666 
L 2450 4666 
L 2450 531 
L 3481 531 
L 3481 0 
L 794 0 
L 794 531 
z
" transform="scale(0.015625)"/>
       </defs>
       <use xlink:href="#DejaVuSans-31"/>
       <use xlink:href="#DejaVuSans-30" x="63.623047"/>
       <use xlink:href="#DejaVuSans-30" x="127.246094"/>
       <use xlink:href="#DejaVuSans-30" x="190.869141"/>
      </g>
     </g>
    </g>
    <g id="xtick_4">
     <g id="line2d_4">
      <g>
       <use xlink:href="#m2ecd586499" x="275.565046" y="307.584" style="stroke: #000000; stroke-width: 0.8"/>
      </g>
     </g>
     <g id="text_4">
      <!-- 1500 -->
      <g transform="translate(262.840046 322.182437)scale(0.1 -0.1)">
       <use xlink:href="#DejaVuSans-31"/>
       <use xlink:href="#DejaVuSans-35" x="63.623047"/>
       <use xlink:href="#DejaVuSans-30" x="127.246094"/>
       <use xlink:href="#DejaVuSans-30" x="190.869141"/>
      </g>
     </g>
    </g>
    <g id="xtick_5">
     <g id="line2d_5">
      <g>
       <use xlink:href="#m2ecd586499" x="342.809153" y="307.584" style="stroke: #000000; stroke-width: 0.8"/>
      </g>
     </g>
     <g id="text_5">
      <!-- 2000 -->
      <g transform="translate(330.084153 322.182437)scale(0.1 -0.1)">
       <defs>
        <path id="DejaVuSans-32" d="M 1228 531 
L 3431 531 
L 3431 0 
L 469 0 
L 469 531 
Q 828 903 1448 1529 
Q 2069 2156 2228 2338 
Q 2531 2678 2651 2914 
Q 2772 3150 2772 3378 
Q 2772 3750 2511 3984 
Q 2250 4219 1831 4219 
Q 1534 4219 1204 4116 
Q 875 4013 500 3803 
L 500 4441 
Q 881 4594 1212 4672 
Q 1544 4750 1819 4750 
Q 2544 4750 2975 4387 
Q 3406 4025 3406 3419 
Q 3406 3131 3298 2873 
Q 3191 2616 2906 2266 
Q 2828 2175 2409 1742 
Q 1991 1309 1228 531 
z
" transform="scale(0.015625)"/>
       </defs>
       <use xlink:href="#DejaVuSans-32"/>
       <use xlink:href="#DejaVuSans-30" x="63.623047"/>
       <use xlink:href="#DejaVuSans-30" x="127.246094"/>
       <use xlink:href="#DejaVuSans-30" x="190.869141"/>
      </g>
     </g>
    </g>
    <g id="xtick_6">
     <g id="line2d_6">
      <g>
       <use xlink:href="#m2ecd586499" x="410.053259" y="307.584" style="stroke: #000000; stroke-width: 0.8"/>
      </g>
     </g>
     <g id="text_6">
      <!-- 2500 -->
      <g transform="translate(397.328259 322.182437)scale(0.1 -0.1)">
       <use xlink:href="#DejaVuSans-32"/>
       <use xlink:href="#DejaVuSans-35" x="63.623047"/>
       <use xlink:href="#DejaVuSans-30" x="127.246094"/>
       <use xlink:href="#DejaVuSans-30" x="190.869141"/>
      </g>
     </g>
    </g>
   </g>
   <g id="matplotlib.axis_2">
    <g id="ytick_1">
     <g id="line2d_7">
      <defs>
       <path id="mfc0e603efa" d="M 0 0 
L -3.5 0 
" style="stroke: #000000; stroke-width: 0.8"/>
      </defs>
      <g>
       <use xlink:href="#mfc0e603efa" x="57.6" y="279.497775" style="stroke: #000000; stroke-width: 0.8"/>
      </g>
     </g>
     <g id="text_7">
      <!-- 100 -->
      <g transform="translate(31.5125 283.296994)scale(0.1 -0.1)">
       <use xlink:href="#DejaVuSans-31"/>
       <use xlink:href="#DejaVuSans-30" x="63.623047"/>
       <use xlink:href="#DejaVuSans-30" x="127.246094"/>
      </g>
     </g>
    </g>
    <g id="ytick_2">
     <g id="line2d_8">
      <g>
       <use xlink:href="#mfc0e603efa" x="57.6" y="231.891418" style="stroke: #000000; stroke-width: 0.8"/>
      </g>
     </g>
     <g id="text_8">
      <!-- 200 -->
      <g transform="translate(31.5125 235.690637)scale(0.1 -0.1)">
       <use xlink:href="#DejaVuSans-32"/>
       <use xlink:href="#DejaVuSans-30" x="63.623047"/>
       <use xlink:href="#DejaVuSans-30" x="127.246094"/>
      </g>
     </g>
    </g>
    <g id="ytick_3">
     <g id="line2d_9">
      <g>
       <use xlink:href="#mfc0e603efa" x="57.6" y="184.28506" style="stroke: #000000; stroke-width: 0.8"/>
      </g>
     </g>
     <g id="text_9">
      <!-- 300 -->
      <g transform="translate(31.5125 188.084279)scale(0.1 -0.1)">
       <defs>
        <path id="DejaVuSans-33" d="M 2597 2516 
Q 3050 2419 3304 2112 
Q 3559 1806 3559 1356 
Q 3559 666 3084 287 
Q 2609 -91 1734 -91 
Q 1441 -91 1130 -33 
Q 819 25 488 141 
L 488 750 
Q 750 597 1062 519 
Q 1375 441 1716 441 
Q 2309 441 2620 675 
Q 2931 909 2931 1356 
Q 2931 1769 2642 2001 
Q 2353 2234 1838 2234 
L 1294 2234 
L 1294 2753 
L 1863 2753 
Q 2328 2753 2575 2939 
Q 2822 3125 2822 3475 
Q 2822 3834 2567 4026 
Q 2313 4219 1838 4219 
Q 1578 4219 1281 4162 
Q 984 4106 628 3988 
L 628 4550 
Q 988 4650 1302 4700 
Q 1616 4750 1894 4750 
Q 2613 4750 3031 4423 
Q 3450 4097 3450 3541 
Q 3450 3153 3228 2886 
Q 3006 2619 2597 2516 
z
" transform="scale(0.015625)"/>
       </defs>
       <use xlink:href="#DejaVuSans-33"/>
       <use xlink:href="#DejaVuSans-30" x="63.623047"/>
       <use xlink:href="#DejaVuSans-30" x="127.246094"/>
      </g>
     </g>
    </g>
    <g id="ytick_4">
     <g id="line2d_10">
      <g>
       <use xlink:href="#mfc0e603efa" x="57.6" y="136.678703" style="stroke: #000000; stroke-width: 0.8"/>
      </g>
     </g>
     <g id="text_10">
      <!-- 400 -->
      <g transform="translate(31.5125 140.477922)scale(0.1 -0.1)">
       <defs>
        <path id="DejaVuSans-34" d="M 2419 4116 
L 825 1625 
L 2419 1625 
L 2419 4116 
z
M 2253 4666 
L 3047 4666 
L 3047 1625 
L 3713 1625 
L 3713 1100 
L 3047 1100 
L 3047 0 
L 2419 0 
L 2419 1100 
L 313 1100 
L 313 1709 
L 2253 4666 
z
" transform="scale(0.015625)"/>
       </defs>
       <use xlink:href="#DejaVuSans-34"/>
       <use xlink:href="#DejaVuSans-30" x="63.623047"/>
       <use xlink:href="#DejaVuSans-30" x="127.246094"/>
      </g>
     </g>
    </g>
    <g id="ytick_5">
     <g id="line2d_11">
      <g>
       <use xlink:href="#mfc0e603efa" x="57.6" y="89.072345" style="stroke: #000000; stroke-width: 0.8"/>
      </g>
     </g>
     <g id="text_11">
      <!-- 500 -->
      <g transform="translate(31.5125 92.871564)scale(0.1 -0.1)">
       <use xlink:href="#DejaVuSans-35"/>
       <use xlink:href="#DejaVuSans-30" x="63.623047"/>
       <use xlink:href="#DejaVuSans-30" x="127.246094"/>
      </g>
     </g>
    </g>
   </g>
   <g id="line2d_12">
    <path d="M 73.832727 282.556008 
L 74.101704 282.009011 
L 74.236192 280.903115 
L 74.37068 281.862859 
L 74.505168 281.372514 
L 74.639657 281.971878 
L 74.774145 275.527881 
L 74.908633 248.528412 
L 75.177609 247.041665 
L 75.312098 247.594851 
L 75.446586 247.647218 
L 75.581074 248.510321 
L 75.715562 247.757189 
L 75.85005 247.73529 
L 76.253515 242.770899 
L 76.522492 276.685192 
L 76.65698 276.997013 
L 76.925956 275.297467 
L 77.060444 266.478865 
L 77.194933 268.713031 
L 77.463909 268.776348 
L 77.598397 270.354022 
L 77.732885 265.050198 
L 77.867374 251.699471 
L 78.405327 103.895537 
L 78.674303 102.977686 
L 78.808791 110.085792 
L 78.943279 105.303257 
L 79.481232 157.779745 
L 79.750209 227.859636 
L 80.019185 262.435181 
L 80.153673 264.550331 
L 80.288161 260.731825 
L 80.42265 271.083828 
L 80.557138 270.651086 
L 80.826114 273.148039 
L 80.960603 270.618714 
L 81.095091 260.348594 
L 81.364067 167.924184 
L 81.498555 180.172823 
L 81.767532 160.850355 
L 82.036508 168.819183 
L 82.170996 165.731435 
L 82.305485 159.782068 
L 83.112414 259.872531 
L 83.650367 285.945104 
L 83.784855 285.965575 
L 83.919343 287.48755 
L 84.053831 287.678928 
L 84.18832 285.590913 
L 84.322808 278.397116 
L 84.726273 188.648183 
L 84.860761 180.020007 
L 84.995249 184.09892 
L 85.129737 169.280489 
L 85.264225 177.78584 
L 85.398714 178.529928 
L 85.66769 186.790583 
L 85.802178 195.523017 
L 86.340131 261.989109 
L 86.474619 263.993337 
L 86.609107 268.88251 
L 86.878084 286.325479 
L 87.012572 288.566787 
L 87.14706 288.241635 
L 87.281549 289.726001 
L 87.416037 289.62936 
L 87.550525 288.821481 
L 87.819501 261.435923 
L 87.95399 261.581123 
L 88.088478 255.919299 
L 88.222966 257.372721 
L 88.357454 256.61816 
L 88.491942 253.274289 
L 88.626431 256.09687 
L 88.760919 249.133012 
L 88.895407 251.997963 
L 89.029895 251.996535 
L 89.164384 254.546331 
L 89.43336 275.75544 
L 89.567848 277.411665 
L 89.702336 276.915607 
L 89.836825 277.97104 
L 89.971313 262.886965 
L 90.105801 263.597252 
L 90.240289 265.134937 
L 90.374777 264.905475 
L 90.509266 266.136099 
L 90.643754 266.307006 
L 90.778242 268.397401 
L 90.91273 265.188256 
L 91.047218 255.292323 
L 91.181707 254.126443 
L 91.316195 247.22495 
L 91.450683 251.640439 
L 91.585171 249.682866 
L 91.71966 251.174849 
L 91.854148 251.400027 
L 92.123124 254.370188 
L 92.257612 253.799864 
L 92.526589 259.371236 
L 92.795565 265.940437 
L 92.930053 266.891612 
L 93.064542 265.755724 
L 93.19903 275.732113 
L 93.468006 275.856365 
L 93.602495 276.91275 
L 93.736983 275.683554 
L 93.871471 273.170414 
L 94.005959 267.9718 
L 94.6784 161.136469 
L 94.812888 156.755732 
L 95.081865 168.571154 
L 95.216353 163.373968 
L 95.350841 152.149341 
L 96.023282 264.318964 
L 96.157771 265.045913 
L 96.426747 268.959156 
L 96.561235 268.626864 
L 96.695723 268.703986 
L 96.830212 270.580153 
L 96.9647 269.944608 
L 97.099188 268.52213 
L 97.233676 260.083903 
L 97.368164 242.581902 
L 97.502653 201.701846 
L 97.637141 194.630398 
L 97.771629 179.211175 
L 97.906117 187.577992 
L 98.040606 180.887871 
L 98.175094 181.595301 
L 98.309582 176.294333 
L 98.44407 177.93104 
L 98.713047 189.261353 
L 98.982023 231.064495 
L 99.250999 265.795714 
L 99.385488 270.466373 
L 99.519976 271.218078 
L 99.654464 280.990235 
L 99.788952 281.002612 
L 99.923441 280.004783 
L 100.192417 281.23874 
L 100.326905 281.319195 
L 100.461393 280.666512 
L 100.595882 281.071166 
L 100.73037 281.897136 
L 100.864858 280.363735 
L 100.999346 281.515809 
L 101.133834 280.610812 
L 101.268323 278.402829 
L 101.402811 271.400886 
L 101.537299 275.658799 
L 101.806276 265.307272 
L 101.940764 267.460984 
L 102.075252 267.312928 
L 102.20974 267.958947 
L 102.344228 270.329743 
L 102.478717 276.128674 
L 102.613205 274.282499 
L 102.747693 279.93385 
L 102.882181 266.520758 
L 103.016669 266.549322 
L 103.151158 271.439447 
L 103.285646 271.220934 
L 103.554622 267.05395 
L 103.68911 262.879348 
L 103.823599 245.511121 
L 104.092575 183.448617 
L 104.227063 162.036229 
L 104.361552 169.177183 
L 104.630528 144.384744 
L 105.033993 159.651627 
L 105.168481 170.395906 
L 105.706434 253.185742 
L 105.840922 253.063869 
L 105.97541 261.733939 
L 106.109898 278.111954 
L 106.378875 281.290631 
L 106.513363 281.276825 
L 106.647851 283.426728 
L 106.782339 283.15918 
L 106.916828 284.26698 
L 107.320292 246.819343 
L 107.45478 253.859848 
L 107.589269 251.33433 
L 107.723757 251.426687 
L 108.26171 246.380413 
L 108.396198 242.984651 
L 108.530686 245.236908 
L 108.934151 276.742319 
L 109.068639 278.252393 
L 109.203127 277.188867 
L 109.337615 272.708157 
L 109.606592 274.251555 
L 109.875568 275.300323 
L 110.144545 276.345759 
L 110.413521 275.112278 
L 110.548009 274.978028 
L 110.951474 270.942437 
L 111.085962 272.111649 
L 111.22045 271.765551 
L 111.623915 265.9909 
L 111.758403 266.496955 
L 112.02738 270.264522 
L 112.430844 271.856003 
L 112.565333 261.653484 
L 112.834309 265.837131 
L 112.968797 266.358421 
L 113.103285 267.861353 
L 113.237774 268.038925 
L 113.50675 270.644897 
L 113.641238 271.471344 
L 114.313679 260.288134 
L 114.448168 259.928706 
L 114.582656 258.453385 
L 114.98612 247.672925 
L 115.524073 258.683324 
L 115.658561 259.230797 
L 115.927538 261.445921 
L 116.062026 260.168166 
L 116.196514 266.236072 
L 116.331002 265.820945 
L 116.465491 266.428878 
L 116.599979 256.721466 
L 117.137932 78.993603 
L 117.406908 64.370359 
L 117.810373 80.821211 
L 118.213837 147.661966 
L 118.482814 209.667342 
L 118.75179 243.915356 
L 118.886279 245.441139 
L 119.289743 253.392353 
L 119.424231 254.80293 
L 119.55872 257.559338 
L 119.693208 257.874492 
L 119.827696 248.309899 
L 120.365649 91.782575 
L 120.634625 73.315117 
L 120.769114 76.986995 
L 120.903602 70.601555 
L 121.03809 71.922631 
L 121.441555 135.017241 
L 121.710531 201.493807 
L 121.845019 229.52443 
L 122.248484 240.431046 
L 122.51746 255.864551 
L 122.651948 256.023081 
L 122.786437 257.75262 
L 122.920925 256.419165 
L 123.055413 248.301805 
L 123.727854 60.434741 
L 123.862342 53.568 
L 124.534783 107.412695 
L 125.072736 247.606753 
L 125.207225 252.750143 
L 125.341713 253.210973 
L 125.476201 253.164795 
L 125.745177 266.692141 
L 125.879666 268.121284 
L 126.014154 268.349795 
L 126.28313 254.970028 
L 126.821083 92.882282 
L 126.955571 74.628577 
L 127.09006 81.191589 
L 127.359036 105.598892 
L 127.493524 108.028721 
L 127.762501 126.427626 
L 127.896989 149.109199 
L 128.300453 245.997658 
L 128.434942 251.768976 
L 128.56943 249.951366 
L 128.703918 257.41271 
L 128.838406 258.132994 
L 129.241871 264.790743 
L 129.510847 244.189568 
L 130.0488 83.35387 
L 130.183288 74.293428 
L 130.317777 86.148839 
L 130.452265 114.820244 
L 130.586753 113.906678 
L 130.721241 110.278597 
L 130.855729 116.634998 
L 131.124706 169.626587 
L 131.393682 234.924895 
L 131.662659 257.904008 
L 131.931635 257.708822 
L 132.066123 257.527441 
L 132.3351 268.739691 
L 132.469588 268.592111 
L 132.604076 268.690656 
L 132.738564 268.649239 
L 133.007541 256.820963 
L 133.276517 246.416594 
L 133.679982 240.868073 
L 133.81447 239.692196 
L 133.948958 234.620214 
L 134.486911 244.444738 
L 134.755888 251.493812 
L 134.890376 251.379556 
L 135.697305 265.546256 
L 135.831793 270.271187 
L 135.966282 270.877216 
L 136.10077 268.905361 
L 136.235258 270.400677 
L 136.369746 270.127892 
L 136.504234 265.851413 
L 136.638723 265.69336 
L 136.907699 263.769111 
L 137.311164 252.944853 
L 137.445652 253.451861 
L 137.58014 250.784001 
L 137.983605 257.56029 
L 138.118093 256.663386 
L 138.252581 258.488138 
L 138.387069 262.955518 
L 138.521558 261.729179 
L 138.656046 261.929125 
L 138.925022 266.598833 
L 139.193999 250.443615 
L 139.731951 81.510075 
L 139.86644 72.641487 
L 140.269904 98.510306 
L 140.538881 122.805258 
L 140.673369 129.857664 
L 140.807857 144.140047 
L 141.076834 223.815951 
L 141.480298 256.825724 
L 142.018251 265.218725 
L 142.152739 264.757419 
L 142.421716 241.149426 
L 142.959669 91.454568 
L 143.094157 84.078438 
L 143.228645 83.59333 
L 143.363133 93.763952 
L 143.497621 84.539744 
L 143.63211 89.638861 
L 144.573527 258.066821 
L 144.708015 261.537801 
L 144.842504 261.712516 
L 145.11148 263.942874 
L 145.245968 266.074687 
L 145.380456 262.018625 
L 145.783921 201.179128 
L 146.052897 109.977249 
L 146.187386 90.958509 
L 146.456362 106.190163 
L 146.59085 117.451923 
L 146.725339 111.791527 
L 146.859827 119.166228 
L 146.994315 114.11567 
L 147.128803 126.907498 
L 147.532268 233.61572 
L 147.801244 259.496916 
L 147.935732 259.698291 
L 148.204709 264.94356 
L 148.339197 264.922137 
L 148.473685 265.423432 
L 148.742662 264.37514 
L 148.87715 246.772689 
L 149.280615 119.031026 
L 149.415103 115.010193 
L 149.549591 105.968794 
L 149.684079 107.218937 
L 150.087544 139.785018 
L 150.222032 132.126583 
L 150.35652 137.622261 
L 150.894473 251.950833 
L 151.028961 261.082684 
L 151.16345 260.129129 
L 151.835891 268.268864 
L 151.970379 267.002059 
L 152.104867 246.143809 
L 152.508332 113.047383 
L 152.64282 116.142748 
L 152.911796 104.340656 
L 153.046285 118.428806 
L 153.180773 116.934442 
L 153.449749 151.258626 
L 153.718726 192.028711 
L 153.987702 248.40892 
L 154.12219 265.386299 
L 154.256678 266.759266 
L 154.525655 270.604908 
L 154.794631 272.301598 
L 155.063608 275.233674 
L 155.198096 276.868476 
L 155.332584 276.227695 
L 155.467072 271.865524 
L 155.601561 261.434495 
L 155.736049 260.577105 
L 155.870537 257.724056 
L 156.005025 259.853964 
L 156.274002 257.964944 
L 156.40849 258.499087 
L 156.542978 259.747326 
L 156.677466 258.555739 
L 157.215419 266.530756 
L 157.349907 268.528319 
L 157.484396 267.540487 
L 157.618884 268.307425 
L 157.88786 271.469915 
L 158.022348 271.948835 
L 158.291325 274.935182 
L 158.560301 279.198331 
L 158.694789 277.638747 
L 158.829278 278.598967 
L 158.963766 278.204311 
L 159.232742 275.501698 
L 159.367231 275.782575 
L 159.501719 273.807388 
L 160.039672 259.783983 
L 160.308648 260.042009 
L 160.443136 265.736682 
L 160.577624 265.454376 
L 160.712113 263.507276 
L 160.846601 264.206137 
L 160.981089 265.691932 
L 161.250066 269.432839 
L 161.519042 270.380206 
L 161.788018 253.687513 
L 162.460459 83.778042 
L 162.594948 83.442894 
L 162.729436 81.989948 
L 162.998412 101.497605 
L 163.132901 110.404754 
L 163.401877 151.495706 
L 163.670853 221.925027 
L 164.074318 255.869788 
L 164.208806 256.998059 
L 164.477783 269.599462 
L 164.612271 271.95074 
L 164.746759 267.268654 
L 165.015735 249.834254 
L 165.4192 120.636789 
L 165.553688 123.22467 
L 165.822665 109.391691 
L 165.957153 114.624582 
L 166.091641 111.55302 
L 166.360618 100.148441 
L 166.495106 106.315368 
L 166.89857 221.029551 
L 167.033059 227.971034 
L 167.302035 246.280916 
L 167.974476 264.665063 
L 168.108964 259.016092 
L 168.243453 245.065049 
L 168.377941 207.154202 
L 168.646917 106.142081 
L 168.781405 107.419359 
L 168.915894 102.913418 
L 169.050382 104.207835 
L 169.18487 107.986827 
L 169.319358 92.726133 
L 169.453847 95.193571 
L 169.857311 148.336072 
L 170.126288 226.191985 
L 170.395264 256.872854 
L 170.529752 257.748811 
L 170.66424 261.170756 
L 170.798729 261.359277 
L 171.067705 263.676279 
L 171.202193 266.498383 
L 171.47117 244.806071 
L 172.009123 110.186717 
L 172.143611 108.617135 
L 172.412587 96.911208 
L 172.95054 129.270202 
L 173.622981 258.83376 
L 173.757469 262.805558 
L 173.891958 276.127245 
L 174.026446 275.202254 
L 174.160934 275.158456 
L 174.42991 276.682812 
L 174.698887 261.956261 
L 174.833375 244.906996 
L 175.102351 176.683753 
L 175.371328 143.454992 
L 175.505816 140.567666 
L 175.640304 150.690206 
L 175.774792 150.381241 
L 175.909281 151.7842 
L 176.043769 156.570543 
L 176.178257 156.263958 
L 176.312745 170.676307 
L 176.581722 238.052157 
L 176.850698 265.06448 
L 176.985186 262.580856 
L 177.254163 267.29579 
L 177.388651 267.252468 
L 177.792116 273.78406 
L 177.926604 274.670967 
L 178.19558 263.99905 
L 178.330069 263.560595 
L 178.599045 256.024509 
L 178.733533 255.461326 
L 178.868021 257.760237 
L 179.136998 254.264026 
L 179.271486 254.857677 
L 179.540462 252.38167 
L 179.809439 259.858725 
L 179.943927 267.10108 
L 180.212904 265.206823 
L 180.48188 275.036584 
L 180.616368 275.05039 
L 180.750856 275.421243 
L 180.885345 276.249594 
L 181.019833 276.335761 
L 181.692274 264.071411 
L 181.826762 265.362496 
L 181.96125 259.400752 
L 182.095738 261.176469 
L 182.364715 266.595024 
L 182.499203 267.868494 
L 182.633691 271.004801 
L 182.902668 270.18978 
L 183.171644 276.298628 
L 183.306132 277.709681 
L 183.440621 276.603785 
L 183.575109 274.310111 
L 183.844085 286.00128 
L 183.978573 286.949123 
L 184.113062 284.678299 
L 184.382038 273.332752 
L 184.919991 181.929022 
L 185.054479 185.930336 
L 185.188967 178.882691 
L 185.457944 182.729285 
L 185.592432 184.223172 
L 185.995897 221.844572 
L 186.264873 252.333588 
L 186.53385 268.034641 
L 186.802826 278.252393 
L 187.071802 288.712462 
L 187.206291 287.566101 
L 187.340779 288.696276 
L 187.475267 285.529977 
L 187.609755 277.559721 
L 188.01322 201.917503 
L 188.147708 185.575669 
L 188.282196 185.793706 
L 188.416684 184.838722 
L 188.551173 188.139271 
L 188.685661 194.518523 
L 188.820149 190.122076 
L 188.954637 194.54185 
L 189.089126 202.88534 
L 189.627078 264.671251 
L 189.761567 267.25104 
L 189.896055 272.468697 
L 190.030543 270.041249 
L 190.299519 271.866476 
L 190.434008 270.699168 
L 190.971961 274.112068 
L 191.106449 270.671557 
L 191.240937 270.187876 
L 191.375425 270.624903 
L 191.509913 266.211317 
L 191.644402 267.755191 
L 191.913378 266.493623 
L 192.182354 260.876549 
L 192.316843 261.224075 
L 192.451331 260.727541 
L 192.585819 262.043857 
L 192.720307 267.794229 
L 192.989284 269.047704 
L 193.392748 266.36937 
L 193.661725 269.241938 
L 193.796213 269.774653 
L 194.065189 261.913891 
L 194.603142 158.510502 
L 194.73763 153.615141 
L 194.872119 143.696356 
L 195.006607 145.26689 
L 195.141095 149.995153 
L 195.275583 142.620928 
L 195.54456 155.970227 
L 195.948024 249.686674 
L 196.217001 259.989166 
L 196.351489 261.909607 
L 196.485977 271.351852 
L 196.620465 270.701549 
L 196.889442 271.256639 
L 197.02393 272.381577 
L 197.158418 270.657275 
L 197.292907 264.356097 
L 197.830859 195.861022 
L 197.965348 198.16517 
L 198.099836 194.857956 
L 198.234324 199.247739 
L 198.5033 185.965089 
L 198.772277 199.720946 
L 199.31023 272.025958 
L 199.713694 281.109251 
L 199.848183 279.944323 
L 200.117159 280.669844 
L 200.251647 278.892223 
L 200.386135 273.131853 
L 200.520624 272.730056 
L 200.655112 259.813499 
L 200.7896 212.741761 
L 200.924088 210.777998 
L 201.058576 199.131579 
L 201.193065 198.774531 
L 201.327553 196.098102 
L 201.462041 198.263715 
L 201.731018 186.501612 
L 201.865506 187.858394 
L 202.134482 210.480935 
L 202.403459 263.782441 
L 202.806923 273.549837 
L 203.0759 265.105421 
L 203.210388 269.418557 
L 203.344876 269.544238 
L 203.748341 260.197682 
L 203.882829 242.866112 
L 204.151805 181.103528 
L 204.420782 164.684095 
L 204.55527 159.07321 
L 204.689758 162.498963 
L 204.824246 156.020214 
L 204.958735 171.992623 
L 205.093223 172.238272 
L 205.765664 259.618789 
L 205.900152 260.128177 
L 206.03464 263.916215 
L 206.169129 278.717983 
L 206.303617 279.197379 
L 206.572593 283.123476 
L 206.84157 283.932308 
L 207.110546 274.57385 
L 207.379522 265.420099 
L 207.514011 264.545095 
L 207.917475 272.637223 
L 208.051964 272.391574 
L 208.32094 266.050884 
L 208.589916 267.647601 
L 208.858893 275.673557 
L 208.993381 279.315443 
L 209.127869 279.897193 
L 209.262357 279.354956 
L 209.396846 273.518893 
L 209.531334 274.612887 
L 209.80031 274.199188 
L 209.934799 275.18702 
L 210.203775 263.044542 
L 211.010704 108.411476 
L 211.279681 133.952287 
L 211.683145 166.948253 
L 212.221098 254.310204 
L 212.355586 256.766216 
L 212.759051 271.958833 
L 212.893539 271.752221 
L 213.028027 271.852194 
L 213.162516 274.492919 
L 213.431492 256.844766 
L 213.56598 218.883933 
L 213.834957 135.227185 
L 213.969445 139.798347 
L 214.103933 138.710542 
L 214.238421 141.662612 
L 214.910862 179.86481 
L 215.448815 259.911568 
L 215.583303 264.862629 
L 215.717792 265.478655 
L 216.121256 269.728475 
L 216.255745 270.682982 
L 216.390233 273.066633 
L 216.524721 269.070079 
L 216.659209 261.573506 
L 217.062674 148.823561 
L 217.197162 150.730195 
L 217.33165 150.81065 
L 217.466138 162.242841 
L 217.600627 160.962706 
L 217.735115 149.141571 
L 217.869603 154.357324 
L 218.273068 196.42849 
L 218.542044 255.081903 
L 218.811021 271.832676 
L 218.945509 264.434648 
L 219.483462 275.124655 
L 219.61795 276.917987 
L 219.886926 263.205928 
L 220.290391 161.903884 
L 220.693856 150.276031 
L 220.828344 160.910339 
L 220.962832 157.000429 
L 221.231808 184.078925 
L 221.500785 197.906191 
L 221.769761 254.945749 
L 222.038738 270.535403 
L 222.173226 269.78465 
L 222.307714 271.006229 
L 222.576691 277.040335 
L 222.845667 279.672015 
L 222.980155 278.004364 
L 223.114643 279.872437 
L 223.38362 259.376948 
L 223.518108 263.231159 
L 223.652596 263.07501 
L 223.921573 256.132099 
L 224.190549 255.461326 
L 224.325037 257.943997 
L 224.459525 257.317021 
L 224.728502 253.467571 
L 225.131967 260.718972 
L 225.266455 259.23651 
L 225.535431 260.705166 
L 225.669919 259.395515 
L 226.073384 269.14006 
L 226.34236 272.164016 
L 226.476849 272.09213 
L 226.745825 268.952491 
L 226.880313 271.231408 
L 227.014802 271.4742 
L 227.14929 271.177612 
L 227.283778 269.760371 
L 227.418266 271.434687 
L 227.552754 271.563224 
L 227.687243 271.394221 
L 227.956219 270.286897 
L 228.090707 276.094873 
L 228.225195 276.13391 
L 228.359684 277.234093 
L 228.494172 276.462394 
L 228.62866 277.432136 
L 228.763148 277.31788 
L 228.897637 275.032775 
L 229.301101 275.935392 
L 229.435589 269.729903 
L 229.570078 255.665081 
L 230.242519 94.442819 
L 230.377007 79.62534 
L 230.511495 109.56593 
L 230.780471 117.506671 
L 231.049448 144.939834 
L 231.587401 253.509465 
L 231.856377 264.717906 
L 232.125354 269.526148 
L 232.39433 274.176813 
L 232.528818 273.364172 
L 232.797795 256.282535 
L 232.932283 220.059334 
L 233.201259 133.015394 
L 233.335748 124.850427 
L 233.470236 135.133401 
L 233.604724 135.355246 
L 233.739212 148.130412 
L 233.8737 133.412907 
L 234.008189 140.126831 
L 234.815118 264.137108 
L 234.949606 263.870989 
L 235.218583 269.767036 
L 235.622047 277.4945 
L 235.756535 276.897516 
L 236.025512 264.258028 
L 236.563465 128.865547 
L 236.832441 116.670227 
L 237.63937 200.251757 
L 237.908347 258.246297 
L 238.177323 266.324144 
L 238.849764 281.222078 
L 238.984252 280.398488 
L 239.118741 276.605213 
L 239.253229 262.723675 
L 239.791182 128.096705 
L 240.194646 145.807698 
L 240.463623 164.908321 
L 240.732599 178.346643 
L 241.270552 255.717924 
L 241.674017 261.585407 
L 241.942993 274.511009 
L 242.077481 281.00166 
L 242.21197 280.376589 
L 242.480946 262.433277 
L 242.884411 150.846355 
L 243.018899 158.707593 
L 243.153387 156.463905 
L 243.287875 145.500637 
L 243.422363 153.470417 
L 243.556852 150.662594 
L 243.825828 167.280069 
L 244.229293 239.169954 
L 244.498269 261.524947 
L 244.767246 266.790686 
L 245.17071 274.637166 
L 245.305198 275.500746 
L 245.439687 275.205586 
L 245.574175 273.97877 
L 245.708663 262.539915 
L 245.843151 267.979893 
L 246.112128 265.002592 
L 246.381104 259.831589 
L 246.515592 259.798265 
L 247.188033 270.024586 
L 247.322522 270.42924 
L 247.45701 271.294724 
L 247.591498 270.941009 
L 247.725986 274.098738 
L 247.860475 272.663407 
L 248.129451 273.984483 
L 248.263939 273.102813 
L 248.398427 273.78406 
L 248.532916 273.631244 
L 248.667404 275.572631 
L 248.801892 275.474086 
L 249.205357 277.009867 
L 249.339845 277.126027 
L 249.608821 276.179612 
L 249.743309 276.311006 
L 249.877798 276.011562 
L 250.550239 272.852404 
L 250.819215 273.151848 
L 250.953703 273.928784 
L 251.088192 272.795276 
L 251.357168 274.05018 
L 251.491656 282.927813 
L 251.626144 282.439372 
L 251.760633 282.868782 
L 251.895121 282.7093 
L 252.164097 270.494461 
L 252.70205 143.392627 
L 252.836538 163.079285 
L 252.971027 159.643534 
L 253.240003 172.520577 
L 253.374491 173.870218 
L 253.508979 170.951948 
L 253.777956 203.69084 
L 254.046932 254.921469 
L 254.315909 276.195322 
L 254.719373 284.529767 
L 254.853862 284.290307 
L 255.122838 286.01937 
L 255.391814 265.305844 
L 255.660791 172.311585 
L 255.795279 175.750193 
L 256.198744 160.116741 
L 256.333232 163.781002 
L 256.46772 161.123139 
L 256.602208 162.316155 
L 257.409138 257.15754 
L 257.812602 264.610315 
L 258.081579 279.778653 
L 258.216067 280.839799 
L 258.350555 280.112374 
L 258.619532 265.97757 
L 258.888508 177.103641 
L 259.022996 177.970553 
L 259.157484 168.940579 
L 259.291973 168.366447 
L 259.426461 152.92104 
L 259.695437 166.586445 
L 259.829925 155.483214 
L 259.964414 164.533183 
L 260.771343 260.220057 
L 261.040319 262.452795 
L 261.309296 269.932706 
L 261.443784 273.138518 
L 261.71276 270.231674 
L 261.847249 257.872111 
L 262.116225 169.938409 
L 262.250713 174.09492 
L 262.654178 147.732899 
L 262.788666 155.014768 
L 262.923154 150.256988 
L 263.326619 185.315738 
L 263.461107 196.185698 
L 263.864572 244.835587 
L 264.268036 262.832218 
L 264.402525 262.076705 
L 264.671501 265.497698 
L 264.805989 265.372017 
L 264.940478 264.423698 
L 265.074966 256.875234 
L 265.209454 237.808412 
L 265.612919 123.809276 
L 265.881895 105.744092 
L 266.016383 115.221089 
L 266.150871 115.090648 
L 266.28536 114.643624 
L 266.419848 119.262869 
L 266.688824 156.440102 
L 266.957801 235.046767 
L 267.226777 251.669003 
L 267.361265 250.250334 
L 267.495754 266.575982 
L 267.630242 266.260828 
L 267.76473 268.125093 
L 267.899218 268.435486 
L 268.168195 274.939467 
L 268.302683 275.822089 
L 268.437171 273.267055 
L 268.706147 275.796857 
L 268.975124 272.31112 
L 269.2441 270.431145 
L 269.916541 255.974998 
L 270.320006 257.859734 
L 270.588982 262.734149 
L 270.723471 276.796115 
L 270.857959 277.833457 
L 270.992447 276.359088 
L 271.126935 277.240282 
L 271.261424 277.269798 
L 271.395912 277.084133 
L 271.799376 279.854823 
L 271.933865 278.472811 
L 272.068353 278.827002 
L 272.202841 278.18384 
L 272.337329 278.419491 
L 272.471817 277.578287 
L 272.606306 275.417911 
L 272.740794 276.697569 
L 272.875282 276.375751 
L 273.00977 275.700216 
L 273.144258 273.371313 
L 273.278747 273.271816 
L 273.547723 276.243405 
L 273.682211 276.457157 
L 273.8167 277.139356 
L 273.951188 276.279586 
L 274.085676 286.906753 
L 274.354652 288.535842 
L 274.489141 286.967213 
L 274.758117 272.276843 
L 275.29607 165.970419 
L 275.565046 153.754627 
L 275.699535 154.091204 
L 275.834023 172.014522 
L 275.968511 174.292486 
L 276.102999 184.431688 
L 276.77544 263.615342 
L 277.447881 280.987378 
L 277.58237 284.378379 
L 277.716858 283.988007 
L 277.851346 279.596797 
L 277.985834 269.629454 
L 278.389299 209.219366 
L 278.523787 189.765028 
L 278.658275 187.769846 
L 278.792763 178.269521 
L 278.927252 190.380578 
L 279.06174 184.56927 
L 279.196228 186.656809 
L 279.330716 194.340475 
L 280.137646 273.972106 
L 280.272134 276.354804 
L 280.406622 268.011313 
L 280.54111 267.72758 
L 280.810087 268.896792 
L 280.944575 268.274577 
L 281.213551 260.367637 
L 281.348039 231.461533 
L 281.482528 161.101716 
L 281.617016 150.908243 
L 281.751504 127.543519 
L 281.885992 128.693689 
L 282.154969 142.183902 
L 282.289457 124.093486 
L 282.423945 128.175731 
L 282.558433 137.27283 
L 282.82741 185.649459 
L 283.096386 254.108353 
L 283.365363 260.728969 
L 283.499851 262.933143 
L 283.634339 262.262846 
L 283.768827 262.273319 
L 283.903316 262.462316 
L 284.037804 263.765302 
L 284.172292 263.894316 
L 284.441268 258.708079 
L 285.113709 143.591146 
L 285.248198 142.516671 
L 285.382686 137.985973 
L 285.517174 147.214942 
L 285.651662 144.118148 
L 285.78615 147.602458 
L 286.055127 200.658791 
L 286.324103 250.16607 
L 286.59308 259.830637 
L 286.727568 259.709241 
L 286.862056 278.620866 
L 286.996544 278.679898 
L 287.131033 277.703492 
L 287.265521 278.308093 
L 287.668985 274.78665 
L 287.803474 275.662607 
L 288.07245 274.789031 
L 288.206938 272.621037 
L 288.341427 272.565814 
L 288.475915 270.223105 
L 288.610403 269.852727 
L 288.744891 268.730646 
L 288.879379 271.554179 
L 289.013868 271.893136 
L 289.148356 269.087217 
L 289.417332 276.230075 
L 289.55182 277.414997 
L 289.820797 277.054141 
L 289.955285 277.842978 
L 290.089773 276.346235 
L 290.224262 277.890585 
L 290.35875 276.985112 
L 290.493238 277.963423 
L 290.627726 276.424309 
L 291.031191 258.477188 
L 291.300167 192.405753 
L 291.434655 186.831048 
L 291.569144 187.437553 
L 291.703632 191.493615 
L 291.972608 178.770816 
L 292.376073 191.827812 
L 293.048514 268.088912 
L 293.183002 269.333342 
L 293.31749 268.183649 
L 293.451979 268.933925 
L 293.586467 268.006077 
L 293.720955 270.476847 
L 293.855443 270.739634 
L 294.258908 246.860761 
L 294.527884 188.974287 
L 294.796861 157.347955 
L 294.931349 141.50694 
L 295.065837 141.373166 
L 295.200325 149.331045 
L 295.334814 143.621138 
L 295.60379 171.62891 
L 295.738278 186.093626 
L 296.141743 256.172088 
L 296.276231 255.283754 
L 296.410719 262.469457 
L 296.545208 280.115706 
L 296.948672 282.27513 
L 297.486625 284.236512 
L 297.621113 283.891842 
L 297.755601 283.888034 
L 298.024578 280.722211 
L 298.159066 280.572251 
L 298.428042 278.435678 
L 298.697019 274.619552 
L 298.831507 273.486997 
L 298.965995 273.34513 
L 299.100484 273.699797 
L 299.36946 277.474505 
L 299.503948 276.969402 
L 299.638436 278.508515 
L 299.772925 268.875369 
L 299.907413 272.268274 
L 300.041901 271.967402 
L 300.176389 272.831457 
L 300.310877 272.548675 
L 300.579854 261.608258 
L 301.252295 127.874383 
L 301.386783 127.942936 
L 301.521271 141.098953 
L 301.65576 134.176037 
L 301.790248 143.564963 
L 302.597177 252.066992 
L 302.731665 253.815098 
L 303.000642 266.188942 
L 303.13513 266.412692 
L 303.269618 266.891612 
L 303.404106 269.344292 
L 303.538595 269.762275 
L 303.807571 253.448529 
L 304.345524 163.917632 
L 304.6145 153.423763 
L 304.748988 161.638716 
L 304.883477 152.091737 
L 305.017965 158.155359 
L 306.093871 264.644592 
L 306.228359 265.652418 
L 306.497335 275.779719 
L 306.766312 276.806588 
L 306.9008 272.111173 
L 307.035288 261.601117 
L 307.304265 169.380462 
L 307.438753 176.621865 
L 307.842217 157.413652 
L 307.976706 164.445111 
L 308.111194 156.04973 
L 308.245682 160.998411 
L 308.649147 206.872373 
L 309.052611 263.080723 
L 309.590564 275.277472 
L 309.994029 276.976067 
L 310.128517 273.432725 
L 310.263005 260.851793 
L 310.531982 169.269539 
L 310.66647 170.417805 
L 310.935446 168.13508 
L 311.069934 158.809946 
L 311.204423 165.247278 
L 311.338911 163.960002 
L 311.473399 157.205136 
L 311.607887 170.304977 
L 311.876864 207.776894 
L 312.14584 249.986118 
L 312.414817 261.758694 
L 312.818281 270.345453 
L 312.952769 269.912711 
L 313.087258 271.793163 
L 313.221746 271.694617 
L 313.356234 273.267055 
L 313.625211 262.740338 
L 313.759699 254.871007 
L 313.894187 258.214401 
L 314.028675 255.692692 
L 314.163163 257.570763 
L 314.297652 254.818164 
L 314.566628 261.363086 
L 314.701116 262.095748 
L 314.970093 266.835913 
L 315.104581 266.798304 
L 315.239069 266.502668 
L 315.508045 269.427127 
L 315.642534 269.962698 
L 315.777022 269.633262 
L 316.180487 272.614848 
L 316.314975 272.176394 
L 316.718439 274.524339 
L 316.852928 274.772844 
L 316.987416 273.921643 
L 317.121904 273.986863 
L 317.256392 272.870018 
L 317.39088 273.014266 
L 317.525369 271.479437 
L 317.659857 272.396335 
L 317.928833 269.883672 
L 318.332298 266.157046 
L 318.466786 266.809729 
L 318.601274 266.308434 
L 318.735763 267.760904 
L 318.870251 267.597614 
L 319.139227 268.711127 
L 319.273715 278.521369 
L 319.67718 279.636786 
L 319.811668 277.064615 
L 319.946157 269.131015 
L 320.349621 147.454402 
L 320.484109 131.344887 
L 320.887574 158.553348 
L 321.022062 163.207822 
L 321.291039 177.952463 
L 321.425527 179.748175 
L 321.560015 198.141367 
L 321.828991 253.527079 
L 321.96348 261.593977 
L 322.097968 262.378529 
L 322.635921 279.035994 
L 322.770409 279.382092 
L 322.904897 278.724648 
L 323.173874 268.319327 
L 323.44285 173.096614 
L 323.577338 173.45747 
L 323.711826 173.658369 
L 323.980803 153.532782 
L 324.249779 157.062793 
L 324.384268 159.822058 
L 324.787732 195.972897 
L 325.056709 250.356972 
L 325.325685 259.604983 
L 325.863638 277.381673 
L 325.998126 279.144536 
L 326.132614 279.209757 
L 326.267103 276.004897 
L 326.401591 267.028718 
L 326.670567 165.92424 
L 326.805055 171.864562 
L 326.939544 173.033774 
L 327.20852 159.8411 
L 327.343008 167.963697 
L 327.611985 164.219457 
L 327.746473 169.066736 
L 328.149937 223.62267 
L 328.418914 254.388754 
L 328.68789 267.166777 
L 328.822379 269.613743 
L 328.956867 279.634406 
L 329.225843 280.578916 
L 329.360331 279.733903 
L 329.629308 266.934458 
L 330.032772 178.147649 
L 330.301749 166.837806 
L 330.570725 158.052053 
L 330.839702 179.849576 
L 330.97419 181.058778 
L 331.108678 183.797095 
L 331.781119 259.485967 
L 332.050096 266.630729 
L 332.184584 277.377388 
L 332.319072 278.330944 
L 332.45356 277.667787 
L 332.588049 278.652763 
L 332.857025 266.077543 
L 333.26049 177.517817 
L 333.394978 179.422547 
L 333.663954 164.550321 
L 333.798442 165.739528 
L 333.932931 169.496622 
L 334.336395 187.314253 
L 334.73986 254.872435 
L 335.143325 270.559682 
L 335.277813 270.361639 
L 335.412301 270.458756 
L 335.546789 270.743442 
L 335.681277 270.638708 
L 335.950254 273.213736 
L 336.084742 271.124769 
L 336.622695 254.705337 
L 336.757183 255.497982 
L 336.891671 253.673707 
L 337.295136 260.014398 
L 337.698601 264.734092 
L 337.833089 264.256124 
L 338.102065 268.344558 
L 338.236553 268.113191 
L 338.371042 268.748736 
L 338.50553 266.419833 
L 339.043483 269.569946 
L 339.446947 272.557721 
L 339.581436 272.077372 
L 339.715924 270.911493 
L 339.850412 271.169995 
L 339.9849 270.392107 
L 340.119388 270.279756 
L 340.253877 269.807501 
L 340.388365 271.280442 
L 340.522853 269.297161 
L 340.657341 269.894145 
L 340.926318 269.576611 
L 341.060806 266.247498 
L 341.329782 271.115724 
L 341.464271 271.014323 
L 341.598759 271.541325 
L 341.733247 273.103289 
L 341.867735 280.903115 
L 342.136712 281.004517 
L 342.2712 281.644346 
L 342.540176 268.984864 
L 342.943641 154.137382 
L 343.212617 170.699158 
L 343.347106 169.966972 
L 343.75057 184.310768 
L 343.885058 185.980799 
L 344.019547 185.320023 
L 344.423011 253.011978 
L 345.22994 278.632292 
L 345.364429 279.712956 
L 345.498917 279.346387 
L 345.633405 275.141794 
L 345.767893 267.080609 
L 346.03687 183.069194 
L 346.171358 187.175242 
L 346.440334 173.649324 
L 346.574823 168.293609 
L 346.843799 175.152257 
L 347.112775 177.01557 
L 347.381752 211.395929 
L 347.650728 250.194634 
L 348.054193 268.104146 
L 348.188681 269.282879 
L 348.323169 278.225734 
L 348.457658 279.071222 
L 348.592146 280.93644 
L 348.726634 280.74173 
L 348.99561 267.872779 
L 349.264587 182.021854 
L 349.399075 183.491462 
L 349.668052 165.985177 
L 349.80254 161.885317 
L 350.206004 180.526062 
L 350.340493 181.702416 
L 351.012934 261.645867 
L 351.147422 263.959536 
L 351.550886 280.573203 
L 351.685375 279.863392 
L 351.954351 280.229009 
L 352.088839 278.836047 
L 352.223328 271.569413 
L 352.492304 177.957223 
L 352.626792 185.099605 
L 352.76128 173.76596 
L 352.895769 173.059481 
L 353.030257 164.807395 
L 353.164745 171.995479 
L 353.299233 169.925079 
L 353.56821 152.206469 
L 354.240651 268.245061 
L 354.375139 269.379044 
L 354.644115 275.222725 
L 354.913092 279.483017 
L 355.182068 280.521788 
L 355.316556 278.127188 
L 355.451045 269.028661 
L 355.854509 195.963852 
L 356.123486 157.754037 
L 356.257974 159.462153 
L 356.392462 168.044152 
L 356.52695 167.412891 
L 356.661439 177.984359 
L 356.795927 176.737072 
L 357.33388 263.949063 
L 357.602856 273.514608 
L 357.737344 275.472658 
L 357.871832 279.713908 
L 358.006321 279.137395 
L 358.140809 279.351148 
L 358.275297 280.08857 
L 358.409785 280.000975 
L 358.678762 278.745595 
L 359.082226 260.338597 
L 359.351203 254.452547 
L 359.485691 248.201832 
L 359.620179 258.899933 
L 359.754667 260.309557 
L 359.889156 260.477131 
L 360.427109 274.719049 
L 360.561597 275.396488 
L 360.965061 279.530148 
L 361.234038 279.490634 
L 361.368526 279.299733 
L 361.503014 280.600815 
L 361.771991 280.194733 
L 361.906479 281.521046 
L 362.040967 281.473439 
L 362.175455 281.847625 
L 362.309944 281.888091 
L 362.57892 278.486616 
L 362.713408 278.437582 
L 362.982385 277.306455 
L 363.116873 275.818756 
L 363.251361 275.717355 
L 363.385849 276.804684 
L 363.520337 275.953482 
L 363.654826 275.893974 
L 364.05829 278.671329 
L 364.192778 252.745859 
L 364.730731 258.98372 
L 364.86522 257.792133 
L 364.999708 245.747724 
L 365.134196 223.663611 
L 365.403172 135.602799 
L 365.672149 105.398946 
L 365.806637 99.495281 
L 366.075613 116.389825 
L 366.34459 113.254947 
L 366.479078 124.652861 
L 367.017031 250.666413 
L 367.151519 255.611286 
L 367.286007 253.881271 
L 367.554984 265.208251 
L 367.689472 266.072307 
L 367.958448 270.957671 
L 368.227425 247.465362 
L 368.496401 151.790865 
L 368.765378 100.061321 
L 369.034354 89.191361 
L 369.168842 93.89963 
L 369.303331 93.456415 
L 369.437819 96.815519 
L 369.572307 94.699417 
L 369.706795 110.762278 
L 370.244748 234.247457 
L 370.782701 278.339513 
L 370.917189 278.643717 
L 371.051677 279.533004 
L 371.186166 279.254983 
L 371.455142 264.474161 
L 371.858607 171.452767 
L 372.127583 203.353787 
L 372.262071 199.303914 
L 372.396559 200.726868 
L 372.665536 190.067329 
L 372.800024 193.852034 
L 373.203489 233.454811 
L 373.472465 255.653655 
L 373.87593 276.791354 
L 374.010418 285.786575 
L 374.144906 285.6409 
L 374.279394 286.844389 
L 374.413883 286.342618 
L 374.682859 269.82464 
L 375.220812 180.6546 
L 375.489788 177.034612 
L 375.624277 177.256934 
L 375.893253 183.775672 
L 376.027741 188.060721 
L 376.565694 255.471323 
L 376.83467 264.338959 
L 376.969159 267.168205 
L 377.103647 278.950302 
L 377.238135 277.860117 
L 377.507112 279.927661 
L 377.6416 277.966755 
L 377.776088 281.497242 
L 378.045064 279.355432 
L 378.179553 269.738472 
L 378.314041 269.114353 
L 378.448529 262.031479 
L 378.583017 263.029784 
L 378.717505 262.11479 
L 378.851994 266.615019 
L 378.986482 265.85665 
L 379.12097 266.762599 
L 379.255458 268.916786 
L 379.389947 268.800627 
L 379.927899 278.032452 
L 380.062388 277.826316 
L 380.196876 278.24192 
L 380.331364 268.35646 
L 380.465852 269.032946 
L 380.869317 271.930269 
L 381.138293 261.059833 
L 381.272782 234.027991 
L 381.541758 159.606877 
L 381.810734 139.490334 
L 381.945223 141.078006 
L 382.214199 147.550091 
L 382.348687 139.578406 
L 382.752152 189.322765 
L 383.021128 257.171822 
L 383.155616 265.082094 
L 383.290105 265.742871 
L 383.424593 267.02729 
L 383.559081 262.109553 
L 383.693569 261.399266 
L 383.962546 261.744889 
L 384.097034 262.932667 
L 384.231522 261.152666 
L 384.36601 262.541819 
L 385.038451 148.610284 
L 385.17294 151.048206 
L 385.307428 166.150371 
L 385.576404 160.518539 
L 386.248845 260.011541 
L 386.921286 278.472334 
L 387.055775 277.659218 
L 387.190263 278.934116 
L 387.324751 278.244776 
L 387.459239 278.405686 
L 387.593727 279.891956 
L 387.728216 279.318776 
L 387.862704 280.633187 
L 387.997192 279.466355 
L 388.13168 281.053551 
L 388.266169 280.071432 
L 388.400657 278.090055 
L 388.535145 278.179079 
L 388.669633 277.517827 
L 388.804121 278.654667 
L 388.93861 276.108679 
L 389.207586 278.244776 
L 389.476562 284.921568 
L 389.611051 283.865183 
L 389.745539 284.680204 
L 389.880027 284.628313 
L 390.014515 269.751802 
L 390.283492 270.000307 
L 390.41798 270.010304 
L 390.552468 269.879863 
L 390.686956 264.390374 
L 390.821445 264.575087 
L 390.955933 255.736966 
L 391.224909 199.666198 
L 391.359397 168.337883 
L 391.493886 164.354183 
L 391.762862 175.031337 
L 391.89735 174.488624 
L 392.031839 167.276261 
L 392.166327 170.970038 
L 392.300815 179.93622 
L 392.569791 240.002113 
L 392.70428 266.250354 
L 392.973256 271.085732 
L 393.107744 271.742224 
L 393.376721 264.696483 
L 393.645697 270.405913 
L 393.780185 267.020149 
L 393.914673 268.402638 
L 394.049162 261.000801 
L 394.721603 146.562735 
L 394.990579 145.492544 
L 395.125067 145.073132 
L 395.259556 156.441054 
L 395.394044 157.30987 
L 395.931997 245.323552 
L 396.200973 258.913739 
L 396.335461 255.182352 
L 396.46995 279.919092 
L 396.604438 280.301847 
L 397.007902 283.332468 
L 397.276879 270.294514 
L 397.545855 196.691753 
L 397.680343 191.511705 
L 397.94932 168.167928 
L 398.083808 154.72056 
L 398.218296 167.44574 
L 398.352785 162.686056 
L 398.487273 165.694302 
L 398.487273 165.694302 
" clip-path="url(#pb68057354b)" style="fill: none; stroke: #1f77b4; stroke-width: 1.5; stroke-linecap: square"/>
   </g>
   <g id="line2d_13">
    <path d="M 73.832727 279.287972 
L 73.967215 279.350633 
L 74.236192 278.702592 
L 74.37068 276.791983 
L 74.505168 279.65712 
L 74.639657 277.776765 
L 74.774145 278.87108 
L 74.908633 265.814605 
L 75.043121 214.362967 
L 75.177609 242.954495 
L 75.312098 243.309922 
L 75.715562 248.105492 
L 75.85005 246.020625 
L 75.984539 246.529746 
L 76.253515 241.570514 
L 76.388003 240.594891 
L 76.522492 286.342169 
L 76.925956 273.429581 
L 77.060444 271.977411 
L 77.194933 254.212048 
L 77.329421 267.372484 
L 77.463909 265.316986 
L 77.598397 265.463936 
L 77.732885 269.053846 
L 77.867374 256.809946 
L 78.001862 234.445172 
L 78.270838 125.98088 
L 78.405327 110.524982 
L 78.539815 108.012517 
L 78.674303 113.607504 
L 78.808791 104.037339 
L 78.943279 117.781722 
L 79.077768 108.866821 
L 79.61572 179.418699 
L 79.750209 236.827278 
L 80.288161 266.590985 
L 80.42265 257.989821 
L 80.557138 277.86879 
L 80.691626 267.622618 
L 80.826114 267.905272 
L 80.960603 267.328973 
L 81.095091 259.186618 
L 81.229579 237.19636 
L 81.498555 141.274896 
L 81.633044 169.9044 
L 81.767532 153.341115 
L 81.90202 152.781112 
L 82.036508 199.052777 
L 82.170996 193.473606 
L 82.305485 203.123396 
L 82.439973 199.849572 
L 82.574461 199.855756 
L 82.708949 224.528221 
L 82.843438 196.362869 
L 82.977926 193.498641 
L 83.112414 199.530264 
L 83.246902 193.466957 
L 83.38139 193.464993 
L 83.919343 277.526571 
L 84.053831 279.840672 
L 84.18832 278.029978 
L 84.322808 193.464992 
L 84.457296 213.052546 
L 84.591784 193.464992 
L 84.860761 193.464992 
L 84.995249 193.594496 
L 85.129737 186.545775 
L 85.264225 166.068682 
L 85.398714 189.140784 
L 85.533202 185.940924 
L 85.802178 198.957167 
L 85.936666 209.674103 
L 86.205643 261.283029 
L 86.340131 259.311024 
L 86.474619 268.727646 
L 86.609107 265.930969 
L 86.743596 271.658229 
L 87.012572 290.132233 
L 87.281549 285.953757 
L 87.416037 287.969375 
L 87.685013 284.255102 
L 87.95399 240.735016 
L 88.088478 256.558026 
L 88.222966 245.326601 
L 88.357454 255.342194 
L 88.491942 253.451156 
L 88.626431 247.714549 
L 88.760919 256.662486 
L 88.895407 240.582517 
L 89.029895 252.751134 
L 89.164384 250.402424 
L 89.298872 254.999111 
L 89.43336 280.829098 
L 89.836825 274.555781 
L 89.971313 276.417277 
L 90.105801 241.835359 
L 90.240289 260.175356 
L 90.374777 262.423854 
L 90.643754 254.234707 
L 90.91273 265.117276 
L 91.181707 237.014074 
L 91.316195 247.087546 
L 91.450683 236.599299 
L 91.585171 253.101332 
L 91.71966 246.123672 
L 91.854148 250.786503 
L 91.988636 250.526603 
L 92.257612 254.723797 
L 92.392101 251.795867 
L 92.795565 264.191884 
L 92.930053 266.734028 
L 93.064542 265.670478 
L 93.19903 262.369088 
L 93.333518 281.941124 
L 93.468006 273.55361 
L 93.602495 273.071111 
L 93.736983 275.233188 
L 94.005959 266.058698 
L 94.140447 257.976845 
L 94.409424 165.125319 
L 94.543912 186.570863 
L 94.812888 154.097414 
L 94.947377 156.424415 
L 95.216353 177.451435 
L 95.48533 150.929168 
L 95.754306 234.613628 
L 96.023282 265.869222 
L 96.157771 268.227654 
L 96.292259 266.192797 
L 96.561235 268.609186 
L 96.695723 265.689651 
L 96.830212 266.108995 
L 96.9647 269.420313 
L 97.233676 264.095233 
L 97.502653 218.51678 
L 97.637141 164.67864 
L 97.771629 188.183482 
L 97.906117 170.051486 
L 98.040606 191.66267 
L 98.175094 181.887763 
L 98.309582 186.592992 
L 98.44407 178.859613 
L 98.578558 183.617395 
L 98.847535 200.232235 
L 99.250999 272.183103 
L 99.385488 271.084634 
L 99.519976 273.486785 
L 99.654464 271.168661 
L 99.788952 286.462898 
L 100.057929 276.824645 
L 100.192417 278.859272 
L 100.326905 278.710202 
L 100.595882 277.030033 
L 100.864858 278.965828 
L 100.999346 275.869697 
L 101.133834 279.117379 
L 101.402811 274.074095 
L 101.537299 263.859196 
L 101.671787 275.761394 
L 101.806276 261.379823 
L 101.940764 259.389569 
L 102.075252 266.386314 
L 102.20974 263.88029 
L 102.344228 265.622996 
L 102.478717 269.74171 
L 102.613205 278.406169 
L 102.747693 269.827258 
L 102.882181 282.161549 
L 103.016669 250.237986 
L 103.285646 272.796173 
L 103.554622 264.313694 
L 103.68911 262.292051 
L 103.823599 255.296006 
L 103.958087 223.495799 
L 104.092575 161.985322 
L 104.227063 173.361923 
L 104.361552 150.57767 
L 104.49604 168.93208 
L 104.630528 146.323424 
L 104.765016 143.32156 
L 105.033993 159.735657 
L 105.302969 187.322983 
L 105.706434 262.093516 
L 105.97541 256.103299 
L 106.244387 288.421306 
L 106.378875 281.011478 
L 106.647851 278.256686 
L 106.782339 279.771825 
L 106.916828 276.617164 
L 107.051316 277.796848 
L 107.320292 217.503872 
L 107.589269 253.906789 
L 107.723757 245.620793 
L 107.858245 250.539131 
L 107.992733 248.466008 
L 108.127222 248.136747 
L 108.530686 238.935448 
L 108.665174 246.357707 
L 108.934151 284.312722 
L 109.068639 277.658231 
L 109.203127 278.212863 
L 109.337615 274.222174 
L 109.472104 263.494689 
L 109.606592 268.332321 
L 109.74108 267.339541 
L 109.875568 267.936908 
L 110.144545 267.367322 
L 110.279033 267.904516 
L 110.413521 267.394474 
L 110.682498 270.073962 
L 110.951474 266.848786 
L 111.085962 266.900325 
L 111.22045 269.894969 
L 111.354939 268.29968 
L 111.758403 260.311396 
L 112.161868 268.62963 
L 112.296356 268.699659 
L 112.565333 269.555378 
L 112.699821 247.909848 
L 112.834309 261.330757 
L 112.968797 263.555885 
L 113.103285 261.615121 
L 113.237774 263.333657 
L 113.372262 262.117648 
L 113.50675 265.951815 
L 113.641238 266.030467 
L 113.775726 268.605183 
L 113.910215 263.75896 
L 114.044703 264.917269 
L 114.179191 261.001933 
L 114.313679 252.406388 
L 114.448168 256.50085 
L 114.582656 256.570085 
L 114.717144 254.242141 
L 114.98612 242.753893 
L 115.120609 243.684764 
L 115.389585 258.133054 
L 115.524073 258.316863 
L 115.79305 258.105929 
L 115.927538 259.698842 
L 116.062026 259.934027 
L 116.196514 255.773639 
L 116.331002 266.698486 
L 116.599979 257.735186 
L 116.734467 240.097724 
L 117.003444 125.774131 
L 117.27242 94.226613 
L 117.406908 91.09596 
L 117.541396 78.335801 
L 117.810373 91.837083 
L 118.213837 129.86205 
L 118.482814 220.508801 
L 118.886279 253.650805 
L 119.020767 250.932259 
L 119.289743 256.574214 
L 119.424231 253.180954 
L 119.55872 254.9801 
L 119.693208 258.589162 
L 119.827696 256.281618 
L 119.962184 237.068013 
L 120.231161 121.399389 
L 120.500137 97.325088 
L 120.634625 97.752612 
L 120.769114 83.58253 
L 120.903602 88.182096 
L 121.03809 84.81999 
L 121.172578 91.643116 
L 121.307066 109.757313 
L 121.441555 112.65196 
L 121.710531 220.675988 
L 121.845019 223.496899 
L 121.979507 244.05155 
L 122.113996 242.588672 
L 122.248484 243.151546 
L 122.382972 248.165689 
L 122.51746 263.347834 
L 122.786437 255.976131 
L 122.920925 258.149099 
L 123.055413 252.818362 
L 123.189901 237.385515 
L 123.458878 125.201289 
L 123.727854 92.718882 
L 123.862342 92.907457 
L 123.996831 84.131403 
L 124.669272 124.73824 
L 125.072736 233.980759 
L 125.341713 257.208419 
L 125.476201 256.851881 
L 125.610689 255.296651 
L 125.745177 271.299888 
L 125.879666 267.374956 
L 126.014154 267.533148 
L 126.148642 266.724376 
L 126.28313 246.885221 
L 126.417618 247.378956 
L 126.686595 129.687519 
L 127.09006 93.733287 
L 127.224548 91.597581 
L 127.493524 113.798307 
L 127.762501 128.095512 
L 127.896989 140.55726 
L 128.434942 254.473721 
L 128.56943 256.916146 
L 128.703918 252.742781 
L 128.838406 263.51162 
L 128.972894 257.429597 
L 129.241871 264.984084 
L 129.376359 263.430959 
L 129.645336 231.352369 
L 129.914312 122.329075 
L 130.183288 97.158326 
L 130.317777 93.924189 
L 130.452265 95.441961 
L 130.586753 132.981386 
L 130.721241 121.818252 
L 130.855729 122.646322 
L 130.990218 130.534177 
L 131.259194 203.33587 
L 131.528171 248.925894 
L 131.662659 260.694938 
L 131.797147 262.529146 
L 132.200612 255.561349 
L 132.469588 272.692177 
L 132.604076 266.213283 
L 132.738564 266.60722 
L 132.873053 266.16402 
L 133.007541 247.676181 
L 133.142029 250.788834 
L 133.276517 241.009025 
L 133.679982 236.543483 
L 133.81447 239.689795 
L 133.948958 238.15215 
L 134.083447 230.187862 
L 134.352423 241.228625 
L 134.621399 247.591956 
L 134.755888 253.987166 
L 134.890376 253.008554 
L 135.024864 250.876534 
L 135.29384 257.798944 
L 135.562817 261.295623 
L 135.831793 265.218633 
L 135.966282 272.153057 
L 136.235258 264.429242 
L 136.369746 269.00968 
L 136.504234 266.821688 
L 136.638723 258.60283 
L 136.773211 262.516152 
L 136.907699 259.967533 
L 137.042187 260.138991 
L 137.311164 246.405927 
L 137.58014 251.41308 
L 137.714628 246.06164 
L 137.983605 257.170561 
L 138.118093 257.260963 
L 138.252581 254.273416 
L 138.521558 264.964573 
L 138.656046 258.342333 
L 138.790534 259.964083 
L 138.925022 265.703978 
L 139.05951 265.397703 
L 139.328487 239.613493 
L 139.597463 120.991246 
L 139.86644 95.821958 
L 140.000928 94.383283 
L 140.135416 89.263248 
L 140.673369 136.861877 
L 140.807857 142.851143 
L 140.942345 164.075749 
L 141.076834 235.558276 
L 141.480298 260.682026 
L 141.614786 260.121614 
L 141.749275 261.646446 
L 141.883763 266.148351 
L 142.018251 262.607949 
L 142.152739 264.14018 
L 142.287228 261.984119 
L 142.421716 232.683992 
L 142.556204 229.878995 
L 142.82518 120.533183 
L 142.959669 102.467133 
L 143.094157 102.100287 
L 143.228645 98.401409 
L 143.363133 90.343951 
L 143.497621 102.419553 
L 143.63211 89.673676 
L 143.766598 101.330197 
L 143.901086 133.636291 
L 144.035574 131.288437 
L 144.304551 233.26107 
L 144.439039 234.27562 
L 144.708015 264.327681 
L 144.842504 264.993053 
L 144.976992 262.661399 
L 145.11148 262.403602 
L 145.245968 262.929559 
L 145.380456 265.536483 
L 145.514945 255.528848 
L 145.649433 225.28323 
L 145.783921 236.061533 
L 146.052897 128.664599 
L 146.321874 100.003143 
L 146.725339 128.151318 
L 146.859827 117.693894 
L 146.994315 130.519426 
L 147.128803 115.622399 
L 147.263291 138.441368 
L 147.532268 243.763783 
L 147.666756 246.869089 
L 147.935732 265.491971 
L 148.070221 261.310095 
L 148.204709 265.501621 
L 148.339197 265.067166 
L 148.473685 262.567918 
L 148.608174 263.501734 
L 148.742662 261.287643 
L 148.87715 261.347758 
L 149.146126 164.840716 
L 149.415103 113.663274 
L 149.549591 116.801303 
L 149.684079 109.560481 
L 149.818567 109.169537 
L 150.222032 158.265801 
L 150.35652 135.988264 
L 150.491009 148.031227 
L 150.759985 245.519897 
L 150.894473 245.693516 
L 151.16345 266.407772 
L 151.297938 260.797705 
L 151.701402 265.819541 
L 151.835891 265.547893 
L 151.970379 266.805747 
L 152.104867 263.130406 
L 152.64282 109.832417 
L 152.777308 118.880474 
L 153.046285 102.767823 
L 153.180773 132.164387 
L 153.315261 122.140432 
L 153.449749 175.544784 
L 153.584237 173.561324 
L 154.256678 272.661682 
L 154.391167 269.048508 
L 154.525655 271.590571 
L 154.660143 269.77515 
L 154.794631 270.388729 
L 154.92912 270.014053 
L 155.332584 275.561884 
L 155.467072 272.890827 
L 155.601561 264.693222 
L 155.736049 247.242327 
L 155.870537 256.204518 
L 156.005025 251.699337 
L 156.139513 258.595395 
L 156.40849 255.392131 
L 156.677466 258.828301 
L 156.811955 255.678256 
L 156.946443 259.633413 
L 157.080931 260.187018 
L 157.484396 267.930034 
L 157.618884 264.145103 
L 158.022348 269.876224 
L 158.156837 269.630592 
L 158.425813 273.804563 
L 158.560301 277.25304 
L 158.694789 277.707865 
L 158.829278 273.281936 
L 158.963766 276.335417 
L 159.098254 274.563333 
L 159.232742 271.180655 
L 159.367231 271.428465 
L 159.501719 272.65168 
L 159.770695 262.955156 
L 159.905183 256.459582 
L 160.039672 260.255895 
L 160.17416 251.820936 
L 160.308648 256.806226 
L 160.443136 257.429644 
L 160.577624 268.335489 
L 160.846601 259.248528 
L 161.250066 268.995939 
L 161.384554 267.413778 
L 161.519042 267.629885 
L 161.65353 268.195694 
L 161.922507 239.770352 
L 162.325971 105.379479 
L 162.460459 95.839366 
L 162.594948 100.679996 
L 162.863924 87.868276 
L 162.998412 114.321791 
L 163.132901 111.711596 
L 163.267389 123.054199 
L 163.536365 179.004727 
L 163.670853 238.716776 
L 163.805342 239.230337 
L 164.208806 260.9543 
L 164.343294 258.791565 
L 164.477783 275.052911 
L 164.612271 269.468044 
L 164.746759 271.871123 
L 165.150224 240.385441 
L 165.4192 131.468935 
L 165.553688 113.660434 
L 165.688177 123.939329 
L 165.957153 110.580056 
L 166.091641 119.572959 
L 166.495106 101.00538 
L 166.629594 111.427429 
L 166.89857 239.191331 
L 167.033059 237.697108 
L 167.167547 240.520938 
L 167.302035 253.286463 
L 167.436523 252.239507 
L 167.571012 255.133786 
L 167.839988 263.799686 
L 167.974476 263.611687 
L 168.108964 264.438036 
L 168.377941 228.67596 
L 168.781405 104.396459 
L 168.915894 114.007883 
L 169.18487 106.366744 
L 169.319358 113.491426 
L 169.453847 90.581039 
L 169.588335 101.020959 
L 170.395264 259.70824 
L 170.529752 261.931692 
L 170.66424 260.705996 
L 170.798729 264.319131 
L 170.933217 259.951099 
L 171.202193 262.674895 
L 171.336681 266.596971 
L 171.47117 235.347761 
L 171.605658 235.507222 
L 171.874634 128.687922 
L 172.009123 108.213156 
L 172.143611 114.428024 
L 172.278099 114.672345 
L 172.547075 97.909509 
L 172.95054 137.744013 
L 173.085028 141.307347 
L 173.354005 244.693846 
L 173.488493 244.600558 
L 173.757469 263.833303 
L 173.891958 266.236293 
L 174.026446 283.866487 
L 174.160934 272.651358 
L 174.295422 272.828161 
L 174.564399 274.293613 
L 174.967863 223.730895 
L 175.102351 167.46103 
L 175.23684 163.593167 
L 175.505816 136.08343 
L 175.640304 141.559929 
L 175.774792 161.516551 
L 175.909281 156.621096 
L 176.043769 160.718587 
L 176.178257 172.164164 
L 176.312745 165.536306 
L 176.447234 192.737494 
L 176.581722 249.52642 
L 176.71621 252.282585 
L 176.985186 268.204543 
L 177.119675 261.510685 
L 177.388651 267.445469 
L 177.523139 264.454803 
L 177.792116 272.868145 
L 177.926604 272.126861 
L 178.061092 272.957999 
L 178.19558 258.020751 
L 178.330069 256.927008 
L 178.464557 259.735528 
L 178.599045 247.936249 
L 179.00251 257.331659 
L 179.271486 250.735368 
L 179.405974 253.511484 
L 179.540462 248.763638 
L 179.674951 249.680287 
L 180.078415 271.287633 
L 180.212904 262.248659 
L 180.347392 262.756024 
L 180.48188 278.069163 
L 180.750856 272.601892 
L 181.019833 274.036493 
L 181.154321 273.166694 
L 181.557786 259.010908 
L 181.692274 262.63313 
L 181.826762 258.362664 
L 181.96125 263.40318 
L 182.095738 250.698655 
L 182.364715 264.970879 
L 182.633691 266.653681 
L 182.76818 271.476916 
L 182.902668 267.544057 
L 183.037156 267.130468 
L 183.171644 276.370044 
L 183.306132 274.759618 
L 183.440621 276.312264 
L 183.709597 268.75402 
L 183.844085 288.201687 
L 184.24755 276.326037 
L 184.516526 259.426867 
L 184.785503 175.553243 
L 184.919991 187.369311 
L 185.054479 171.291772 
L 185.188967 187.078805 
L 185.323456 177.854605 
L 185.592432 190.202919 
L 185.72692 191.929044 
L 186.264873 255.784816 
L 187.071802 291.488765 
L 187.340779 284.578815 
L 187.475267 286.90042 
L 187.609755 279.479237 
L 187.744243 265.778696 
L 188.01322 181.28697 
L 188.147708 191.54024 
L 188.282196 176.565088 
L 188.551173 186.494689 
L 188.820149 205.067268 
L 188.954637 193.572679 
L 189.223614 215.173122 
L 189.627078 269.457685 
L 189.761567 269.146736 
L 189.896055 269.361185 
L 190.030543 275.203951 
L 190.165031 265.6444 
L 190.299519 269.930085 
L 190.434008 269.634162 
L 190.568496 266.499818 
L 190.837472 270.452131 
L 190.971961 271.198683 
L 191.106449 271.036787 
L 191.240937 264.396945 
L 191.509913 267.922789 
L 191.644402 260.14644 
L 191.77889 266.593272 
L 192.047866 263.878664 
L 192.182354 257.398524 
L 192.316843 256.691153 
L 192.451331 258.759164 
L 192.585819 257.376438 
L 192.720307 260.684412 
L 192.854796 270.600574 
L 192.989284 266.718068 
L 193.123772 267.169779 
L 193.392748 263.270577 
L 193.527237 262.705452 
L 193.661725 267.042519 
L 193.930701 267.48116 
L 194.199678 254.83041 
L 194.468654 175.299921 
L 194.603142 168.825428 
L 194.73763 147.084859 
L 194.872119 149.734382 
L 195.006607 140.449718 
L 195.275583 157.395446 
L 195.410072 142.609397 
L 195.679048 167.751744 
L 195.948024 238.821332 
L 196.082513 261.859155 
L 196.351489 263.05513 
L 196.485977 264.040165 
L 196.620465 277.505132 
L 196.754954 267.985102 
L 197.158418 270.420346 
L 197.292907 266.01777 
L 197.427395 254.907233 
L 197.696371 181.766912 
L 197.830859 200.61972 
L 197.965348 188.417341 
L 198.099836 198.541186 
L 198.234324 196.131271 
L 198.368812 206.607861 
L 198.637789 186.63776 
L 198.906765 211.495584 
L 199.31023 276.223979 
L 199.444718 274.430858 
L 199.848183 281.529196 
L 199.982671 276.007153 
L 200.117159 277.626278 
L 200.251647 277.752778 
L 200.386135 273.871838 
L 200.520624 264.151681 
L 200.655112 268.825549 
L 200.7896 242.603961 
L 200.924088 167.658688 
L 201.058576 208.116377 
L 201.193065 189.582042 
L 201.462041 197.700668 
L 201.596529 203.511785 
L 201.731018 189.624022 
L 201.865506 189.161849 
L 201.999994 194.552407 
L 202.537947 274.425581 
L 202.672435 270.568707 
L 202.941411 274.410288 
L 203.0759 258.661967 
L 203.210388 260.181624 
L 203.344876 270.260637 
L 203.882829 254.357701 
L 204.151805 167.925921 
L 204.286294 168.227907 
L 204.420782 159.667011 
L 204.55527 160.215584 
L 204.689758 157.883619 
L 204.824246 168.510302 
L 204.958735 156.987967 
L 205.093223 189.385428 
L 205.227711 180.713552 
L 205.631176 246.971793 
L 205.765664 265.700679 
L 205.900152 265.391187 
L 206.03464 262.089513 
L 206.169129 266.759858 
L 206.303617 288.416055 
L 206.438105 277.627213 
L 206.707081 282.61572 
L 206.976058 281.390622 
L 207.514011 257.507785 
L 207.648499 260.009526 
L 207.917475 271.480418 
L 208.051964 271.720824 
L 208.186452 270.182672 
L 208.455428 260.793402 
L 208.589916 265.290347 
L 208.724405 264.710118 
L 208.858893 275.492418 
L 208.993381 275.244588 
L 209.127869 279.892438 
L 209.396846 276.108504 
L 209.531334 264.856385 
L 209.665822 272.273645 
L 209.80031 270.574765 
L 209.934799 270.768236 
L 210.069287 273.179156 
L 210.203775 252.660307 
L 210.338263 256.681493 
L 210.60724 158.973562 
L 210.741728 154.585194 
L 210.876216 126.393506 
L 211.010704 122.065191 
L 211.145192 107.018948 
L 211.279681 137.179314 
L 211.414169 139.099248 
L 212.355586 261.304451 
L 212.490075 261.079683 
L 212.759051 270.68713 
L 212.893539 273.420276 
L 213.028027 269.478443 
L 213.162516 269.517654 
L 213.297004 274.252143 
L 213.56598 244.609417 
L 213.834957 131.621792 
L 213.969445 126.15265 
L 214.103933 137.368914 
L 214.238421 138.204659 
L 214.507398 162.543111 
L 214.776374 188.792043 
L 215.045351 192.47064 
L 215.448815 270.842029 
L 215.583303 263.246137 
L 215.717792 269.257881 
L 215.85228 265.275869 
L 216.121256 268.954024 
L 216.255745 267.387187 
L 216.390233 268.945077 
L 216.524721 272.595081 
L 216.793697 250.810953 
L 217.062674 141.206604 
L 217.197162 139.194 
L 217.466138 150.016108 
L 217.600627 174.12631 
L 217.735115 168.100703 
L 217.869603 148.352139 
L 218.138579 186.421875 
L 218.407556 213.413992 
L 218.542044 260.855442 
L 218.945509 274.890001 
L 219.079997 257.486702 
L 219.214485 268.077572 
L 219.483462 272.002356 
L 219.752438 276.075061 
L 220.021414 251.417321 
L 220.290391 140.109165 
L 220.424879 155.06861 
L 220.559367 149.897442 
L 220.693856 150.364099 
L 220.828344 152.69676 
L 220.962832 172.846883 
L 221.09732 160.528714 
L 221.231808 198.465546 
L 221.366297 199.05347 
L 221.500785 202.54225 
L 221.635273 213.406109 
L 221.769761 260.767983 
L 221.904249 268.073188 
L 222.038738 269.048562 
L 222.173226 275.337664 
L 222.307714 268.859687 
L 222.442202 270.149556 
L 222.711179 276.488131 
L 222.845667 276.284234 
L 222.980155 278.078284 
L 223.114643 273.426406 
L 223.249132 278.376105 
L 223.518108 246.095849 
L 223.652596 263.323435 
L 224.056061 251.637162 
L 224.325037 253.35566 
L 224.459525 257.893464 
L 224.86299 249.739378 
L 225.131967 259.594151 
L 225.266455 260.072298 
L 225.400943 256.070059 
L 225.535431 259.137874 
L 225.669919 258.764975 
L 225.804408 255.690076 
L 225.938896 264.636255 
L 226.073384 265.244134 
L 226.207872 270.019932 
L 226.34236 269.340857 
L 226.476849 271.280711 
L 226.880313 264.136254 
L 227.014802 270.252255 
L 227.14929 268.809263 
L 227.283778 268.637607 
L 227.418266 266.344405 
L 227.552754 270.147128 
L 227.956219 266.745425 
L 228.090707 267.156743 
L 228.225195 278.120845 
L 228.359684 273.289379 
L 228.494172 275.293544 
L 228.62866 272.871738 
L 228.763148 275.097198 
L 228.897637 274.092328 
L 229.032125 269.740403 
L 229.301101 273.295364 
L 229.435589 272.856392 
L 229.570078 260.441032 
L 229.704566 237.042187 
L 229.973542 132.895271 
L 230.242519 103.860791 
L 230.377007 105.202933 
L 230.511495 85.502983 
L 230.645983 125.045447 
L 230.780471 118.907762 
L 230.91496 125.971108 
L 231.183936 165.48251 
L 231.587401 253.24765 
L 231.990865 267.824633 
L 232.125354 269.787623 
L 232.259842 268.806491 
L 232.528818 273.71873 
L 232.663306 269.967221 
L 232.932283 242.293331 
L 233.201259 135.163007 
L 233.470236 121.758519 
L 233.604724 139.836534 
L 233.739212 138.460996 
L 233.8737 164.238299 
L 234.008189 133.167566 
L 234.142677 150.38181 
L 234.411653 196.843124 
L 234.546141 211.675285 
L 234.815118 265.519919 
L 234.949606 267.580492 
L 235.084094 264.830985 
L 235.218583 271.060124 
L 235.353071 269.102596 
L 235.622047 278.559281 
L 235.891024 273.737608 
L 236.16 253.605329 
L 236.428976 132.283228 
L 236.563465 122.272976 
L 236.697953 124.238046 
L 236.832441 124.247396 
L 236.966929 113.526116 
L 237.235906 171.562242 
L 237.370394 159.837462 
L 237.773859 223.361261 
L 238.042835 267.227796 
L 238.177323 268.859449 
L 238.311811 268.450653 
L 238.4463 271.138692 
L 238.580788 270.091695 
L 238.715276 273.141273 
L 238.984252 281.871964 
L 239.253229 270.458975 
L 239.387717 244.649677 
L 239.656694 141.958419 
L 239.92567 122.539201 
L 240.060158 137.092381 
L 240.194646 138.309749 
L 240.463623 181.152737 
L 240.598111 179.239545 
L 240.867087 193.359451 
L 241.136064 255.799828 
L 241.270552 257.322619 
L 241.40504 263.555638 
L 241.539529 261.398141 
L 241.674017 263.20051 
L 241.808505 261.009054 
L 241.942993 279.419018 
L 242.077481 274.126479 
L 242.21197 284.057343 
L 242.346458 277.566476 
L 242.615434 247.897531 
L 242.884411 139.369215 
L 243.018899 143.111039 
L 243.153387 156.590757 
L 243.287875 154.138994 
L 243.422363 143.120693 
L 243.556852 162.249853 
L 243.69134 152.159702 
L 243.960316 180.239404 
L 244.229293 235.217128 
L 244.498269 261.710593 
L 244.632757 269.19629 
L 244.767246 269.572501 
L 244.901734 266.970897 
L 245.17071 274.987867 
L 245.305198 272.43079 
L 245.439687 273.571525 
L 245.708663 269.767092 
L 245.843151 247.359301 
L 245.97764 269.746892 
L 246.246616 260.120749 
L 246.515592 255.399373 
L 246.919057 264.652794 
L 247.053545 269.070383 
L 247.188033 266.305967 
L 247.322522 270.015725 
L 247.45701 268.933958 
L 247.591498 269.89943 
L 247.725986 268.722923 
L 247.860475 274.198707 
L 247.994963 269.589531 
L 248.263939 272.173704 
L 248.398427 269.879013 
L 248.532916 271.665509 
L 248.667404 270.466568 
L 248.801892 274.171547 
L 248.93638 272.443557 
L 249.205357 273.871989 
L 249.474333 274.742153 
L 249.743309 273.504432 
L 249.877798 274.106981 
L 250.146774 273.07306 
L 250.281262 272.044611 
L 250.415751 272.589874 
L 250.684727 270.406951 
L 250.819215 271.285047 
L 250.953703 271.161465 
L 251.088192 272.321846 
L 251.22268 269.640657 
L 251.357168 272.045841 
L 251.491656 271.360551 
L 251.626144 287.120975 
L 251.760633 279.071395 
L 251.895121 280.359092 
L 252.029609 279.865271 
L 252.164097 264.53074 
L 252.298586 262.228451 
L 252.567562 141.826441 
L 252.70205 136.256059 
L 252.836538 138.821089 
L 252.971027 169.758353 
L 253.105515 162.452468 
L 253.374491 185.340985 
L 253.643468 177.353771 
L 254.181421 264.038522 
L 254.450397 279.317182 
L 254.584885 279.53474 
L 254.719373 280.063514 
L 254.853862 284.973617 
L 254.98835 280.961751 
L 255.122838 283.56362 
L 255.257326 283.086462 
L 255.526303 252.6407 
L 255.795279 148.659358 
L 255.929767 172.315274 
L 256.064255 164.326337 
L 256.198744 163.385321 
L 256.333232 160.284095 
L 256.46772 168.553119 
L 256.602208 163.185332 
L 256.736697 167.052296 
L 257.005673 215.270287 
L 257.140161 224.743153 
L 257.409138 255.743795 
L 257.543626 267.733704 
L 257.678114 263.096864 
L 257.812602 265.981267 
L 257.94709 265.070431 
L 258.081579 282.547706 
L 258.485043 276.912793 
L 258.75402 255.185391 
L 259.022996 149.842588 
L 259.157484 174.064144 
L 259.291973 161.252682 
L 259.426461 166.490833 
L 259.560949 147.191171 
L 259.829925 176.231646 
L 259.964414 153.314998 
L 260.636855 256.003886 
L 260.905831 265.918679 
L 261.040319 262.414816 
L 261.174808 262.430236 
L 261.309296 271.883428 
L 261.443784 268.836789 
L 261.578272 273.623343 
L 261.847249 265.598054 
L 261.981737 241.981457 
L 262.250713 146.433605 
L 262.385201 170.831028 
L 262.654178 142.552502 
L 262.788666 149.081099 
L 262.923154 161.532014 
L 263.057643 151.402147 
L 263.192131 182.762147 
L 263.326619 186.868984 
L 263.864572 247.835636 
L 264.133548 257.830971 
L 264.268036 258.046195 
L 264.402525 269.251535 
L 264.537013 260.208165 
L 264.671501 265.747362 
L 265.074966 260.955565 
L 265.209454 246.639172 
L 265.881895 111.956465 
L 266.016383 104.133725 
L 266.150871 120.182411 
L 266.28536 117.942196 
L 266.419848 119.064386 
L 266.554336 128.125157 
L 266.823312 182.135837 
L 267.092289 250.56539 
L 267.361265 257.709176 
L 267.495754 252.526482 
L 267.630242 278.155994 
L 267.76473 264.686513 
L 267.899218 268.005972 
L 268.033706 267.093145 
L 268.302683 274.951666 
L 268.437171 273.887812 
L 268.571659 268.367164 
L 268.706147 274.219565 
L 268.840636 273.549618 
L 268.975124 268.977698 
L 269.109612 269.930452 
L 269.378589 268.100983 
L 269.782053 254.270813 
L 269.916541 253.574652 
L 270.05103 250.712146 
L 270.185518 254.42634 
L 270.320006 254.926908 
L 270.454494 256.503033 
L 270.588982 262.192216 
L 270.723471 262.014399 
L 270.857959 286.077175 
L 271.126935 272.728227 
L 271.261424 275.630155 
L 271.5304 273.773243 
L 271.664888 276.026492 
L 271.799376 275.978628 
L 271.933865 277.943317 
L 272.068353 274.028413 
L 272.202841 276.217591 
L 272.337329 275.059999 
L 272.471817 275.647875 
L 272.740794 270.708287 
L 272.875282 274.835942 
L 273.278747 268.229752 
L 273.682211 274.454934 
L 273.8167 273.793239 
L 273.951188 274.894561 
L 274.085676 272.598636 
L 274.220164 291.935851 
L 274.354652 285.314089 
L 274.489141 285.812172 
L 274.623629 282.474485 
L 274.892605 260.138279 
L 275.161582 188.370648 
L 275.430558 154.149316 
L 275.565046 153.730754 
L 275.699535 150.736471 
L 275.834023 155.933823 
L 275.968511 189.602438 
L 276.102999 183.95714 
L 276.909928 271.86394 
L 277.044417 271.040089 
L 277.178905 277.571003 
L 277.313393 270.858397 
L 277.447881 284.260905 
L 277.58237 278.580843 
L 277.716858 284.124938 
L 277.851346 280.704002 
L 277.985834 272.454314 
L 278.120322 256.832018 
L 278.389299 199.272333 
L 278.523787 198.672682 
L 278.658275 176.000894 
L 278.792763 185.081479 
L 278.927252 173.497457 
L 279.06174 200.49502 
L 279.196228 186.238302 
L 279.465204 206.829079 
L 280.003157 274.023145 
L 280.406622 276.553849 
L 280.54111 257.960496 
L 280.810087 265.824906 
L 280.944575 266.003496 
L 281.079063 264.995967 
L 281.213551 252.49474 
L 281.348039 256.0138 
L 281.617016 133.327905 
L 281.751504 142.392736 
L 281.885992 119.303374 
L 282.289457 152.126197 
L 282.423945 117.924228 
L 282.692922 147.979587 
L 283.230874 261.339575 
L 283.365363 263.540872 
L 283.499851 263.100629 
L 283.634339 264.466576 
L 283.768827 259.694212 
L 284.037804 260.169821 
L 284.172292 262.372383 
L 284.30678 261.433497 
L 284.575757 252.927834 
L 284.979221 153.341111 
L 285.113709 153.685961 
L 285.248198 135.937007 
L 285.382686 145.013506 
L 285.517174 140.391862 
L 285.651662 158.813736 
L 285.78615 149.338756 
L 285.920639 156.407472 
L 286.324103 248.646553 
L 286.458592 259.560765 
L 286.59308 260.859182 
L 286.727568 263.979388 
L 286.862056 259.772627 
L 286.996544 290.986937 
L 287.131033 276.594761 
L 287.265521 274.538086 
L 287.400009 276.488383 
L 287.534497 272.65945 
L 287.668985 272.322467 
L 287.803474 269.985419 
L 287.937962 273.07091 
L 288.07245 270.97643 
L 288.206938 271.529961 
L 288.341427 267.843256 
L 288.475915 269.675522 
L 288.610403 265.552433 
L 288.744891 266.874447 
L 288.879379 265.245688 
L 289.013868 271.177793 
L 289.148356 269.478119 
L 289.282844 263.495239 
L 289.417332 275.475925 
L 289.55182 275.225834 
L 289.686309 275.511395 
L 289.955285 273.840062 
L 290.089773 275.445484 
L 290.224262 271.773113 
L 290.35875 276.160706 
L 290.493238 273.01888 
L 290.627726 275.731065 
L 290.762214 271.903855 
L 290.896703 262.100204 
L 291.031191 264.565004 
L 291.165679 243.77979 
L 291.300167 168.244623 
L 291.569144 180.491167 
L 291.703632 184.486875 
L 291.83812 195.99086 
L 292.107096 179.364419 
L 292.376073 195.118477 
L 292.510561 200.355312 
L 292.914026 271.891885 
L 293.048514 268.451534 
L 293.183002 271.519467 
L 293.31749 269.627504 
L 293.451979 264.893586 
L 293.586467 266.956776 
L 293.720955 264.170009 
L 293.855443 269.752787 
L 293.989931 268.062238 
L 294.12442 255.335802 
L 294.258908 257.275078 
L 294.393396 228.221812 
L 294.527884 170.716848 
L 294.662373 176.782321 
L 294.796861 152.132179 
L 294.931349 150.948155 
L 295.065837 133.307824 
L 295.200325 139.091252 
L 295.334814 154.382086 
L 295.469302 143.413891 
L 295.60379 188.699864 
L 295.738278 185.981636 
L 295.872766 206.001049 
L 296.141743 266.687585 
L 296.410719 258.273595 
L 296.545208 268.354995 
L 296.679696 291.268018 
L 296.814184 279.632549 
L 296.948672 280.629298 
L 297.08316 279.97165 
L 297.217649 279.897476 
L 297.486625 280.522555 
L 297.621113 281.371521 
L 297.755601 280.411884 
L 297.89009 280.806827 
L 298.159066 276.831972 
L 298.293554 277.218917 
L 298.562531 274.83923 
L 298.697019 271.960847 
L 298.831507 271.789261 
L 298.965995 270.119668 
L 299.100484 270.166787 
L 299.234972 270.820367 
L 299.36946 275.291954 
L 299.503948 275.50665 
L 299.638436 273.447735 
L 299.772925 276.788787 
L 299.907413 256.109088 
L 300.041901 271.96987 
L 300.176389 268.2795 
L 300.310877 270.237696 
L 300.445366 269.495161 
L 300.714342 252.782127 
L 300.983319 163.184108 
L 301.386783 121.625375 
L 301.521271 126.64281 
L 301.65576 149.431635 
L 301.790248 134.178433 
L 302.462689 241.647683 
L 302.731665 260.736062 
L 302.866153 258.169873 
L 303.000642 267.755723 
L 303.13513 268.955125 
L 303.269618 264.780655 
L 303.404106 265.378695 
L 303.538595 269.163399 
L 303.673083 267.446967 
L 303.807571 245.535298 
L 303.942059 244.45843 
L 304.211036 154.310964 
L 304.345524 170.122068 
L 304.480012 155.89637 
L 304.6145 154.465339 
L 304.748988 154.23692 
L 304.883477 171.020459 
L 305.017965 151.224016 
L 305.959382 267.80164 
L 306.093871 263.867659 
L 306.228359 267.328787 
L 306.362847 265.283939 
L 306.497335 279.4026 
L 306.631823 274.837017 
L 306.766312 274.565842 
L 306.9008 274.803 
L 307.169776 247.213365 
L 307.438753 146.467008 
L 307.573241 174.399375 
L 307.842217 158.391886 
L 307.976706 158.114126 
L 308.111194 171.218133 
L 308.245682 154.736184 
L 308.514658 187.695478 
L 309.187099 269.851559 
L 309.321588 269.68022 
L 309.456076 272.797353 
L 309.590564 271.909889 
L 309.725052 275.358956 
L 309.859541 273.874276 
L 309.994029 275.249313 
L 310.128517 274.335056 
L 310.263005 266.999948 
L 310.397493 244.198841 
L 310.66647 148.175739 
L 310.800958 166.313164 
L 310.935446 165.056112 
L 311.069934 166.494733 
L 311.204423 157.993641 
L 311.338911 170.850122 
L 311.473399 167.417755 
L 311.607887 158.683352 
L 312.280328 261.944701 
L 312.414817 265.285012 
L 312.549305 265.688416 
L 312.952769 270.79534 
L 313.087258 267.248947 
L 313.221746 270.884096 
L 313.356234 268.841005 
L 313.490722 271.694863 
L 313.894187 245.334268 
L 314.028675 257.758656 
L 314.163163 252.323575 
L 314.297652 257.510525 
L 314.43214 253.803075 
L 314.566628 261.959121 
L 314.701116 262.090487 
L 314.835604 261.205551 
L 315.104581 266.895961 
L 315.373557 263.688818 
L 315.508045 268.447552 
L 315.642534 267.05875 
L 315.777022 267.657311 
L 315.91151 266.561709 
L 316.045998 269.207673 
L 316.180487 269.007696 
L 316.314975 270.874058 
L 316.449463 268.902508 
L 316.583951 271.030468 
L 316.718439 270.732299 
L 316.852928 272.498957 
L 316.987416 271.944702 
L 317.121904 270.153651 
L 317.256392 271.082636 
L 317.39088 269.013456 
L 317.525369 270.28598 
L 317.659857 267.50915 
L 317.794345 270.461467 
L 317.928833 266.519831 
L 318.063322 266.417682 
L 318.466786 261.230734 
L 318.601274 264.341336 
L 318.735763 262.808217 
L 318.870251 266.21873 
L 319.004739 264.649215 
L 319.139227 266.114916 
L 319.273715 266.289357 
L 319.408204 284.323009 
L 319.542692 276.908034 
L 319.67718 277.406357 
L 319.811668 277.468867 
L 319.946157 271.644521 
L 320.080645 257.763117 
L 320.349621 145.66513 
L 320.618598 124.385673 
L 321.022062 171.690562 
L 321.425527 191.569805 
L 321.560015 189.896488 
L 321.96348 265.755065 
L 322.097968 266.904695 
L 322.232456 264.525846 
L 322.366944 269.236024 
L 322.501433 266.927289 
L 322.635921 283.501438 
L 322.770409 277.691172 
L 322.904897 277.001359 
L 323.039385 275.409976 
L 323.173874 262.422407 
L 323.308362 261.100062 
L 323.577338 147.94694 
L 323.711826 169.060162 
L 323.846315 169.664843 
L 324.115291 151.337206 
L 324.249779 159.610416 
L 324.384268 159.076117 
L 324.518756 165.106018 
L 324.787732 199.645531 
L 324.92222 213.54145 
L 325.191197 264.178384 
L 325.325685 264.391627 
L 325.460173 263.543407 
L 325.594661 268.221508 
L 325.72915 266.77867 
L 325.863638 279.281757 
L 325.998126 277.464123 
L 326.132614 278.067316 
L 326.267103 276.660007 
L 326.401591 269.995457 
L 326.536079 254.569518 
L 326.805055 142.295636 
L 326.939544 168.633013 
L 327.074032 169.297964 
L 327.20852 155.765263 
L 327.343008 163.099838 
L 327.477496 176.978148 
L 327.611985 168.599775 
L 327.746473 169.296584 
L 327.880961 178.807769 
L 328.015449 214.654781 
L 328.149937 220.52944 
L 328.418914 257.355238 
L 328.68789 267.992701 
L 328.822379 271.632387 
L 328.956867 270.657905 
L 329.091355 285.414673 
L 329.225843 277.801499 
L 329.360331 278.490184 
L 329.49482 276.435607 
L 329.763796 256.651422 
L 330.032772 156.035154 
L 330.167261 172.136711 
L 330.705214 158.874473 
L 330.97419 191.07808 
L 331.108678 190.676545 
L 331.243166 195.014696 
L 331.646631 262.749061 
L 331.781119 264.556713 
L 331.915607 263.607908 
L 332.050096 264.945402 
L 332.184584 269.028838 
L 332.319072 283.846843 
L 332.588049 274.634988 
L 332.722537 276.94863 
L 332.991513 255.227332 
L 333.26049 151.01648 
L 333.394978 172.801367 
L 333.529466 176.237395 
L 333.663954 159.928869 
L 334.470883 199.394865 
L 334.73986 260.288588 
L 335.008836 267.316572 
L 335.277813 273.007092 
L 335.412301 268.689674 
L 335.815766 267.508526 
L 336.084742 271.388099 
L 336.757183 248.590958 
L 336.891671 253.873654 
L 337.02616 252.430212 
L 337.160648 257.663987 
L 337.295136 258.434523 
L 337.564112 262.678184 
L 337.698601 264.607101 
L 337.833089 264.437097 
L 337.967577 262.699109 
L 338.102065 267.802501 
L 338.236553 267.350414 
L 338.371042 266.160815 
L 338.50553 267.152805 
L 338.640018 261.912814 
L 338.908995 266.382683 
L 339.043483 265.915289 
L 339.312459 269.291042 
L 339.446947 269.61496 
L 339.581436 270.595192 
L 339.850412 267.754749 
L 339.9849 269.283585 
L 340.119388 267.940504 
L 340.253877 268.529812 
L 340.388365 268.090602 
L 340.522853 270.535761 
L 340.657341 267.168283 
L 340.791829 268.835888 
L 341.060806 267.472061 
L 341.195294 261.99487 
L 341.329782 269.076572 
L 341.464271 270.242146 
L 341.598759 268.610164 
L 341.867735 272.085064 
L 342.002223 284.103206 
L 342.136712 278.653808 
L 342.2712 278.265278 
L 342.405688 279.190482 
L 342.540176 262.84473 
L 342.674664 260.817583 
L 342.943641 144.85289 
L 343.078129 143.978725 
L 343.347106 170.496277 
L 343.481594 174.142576 
L 343.616082 187.087041 
L 343.75057 188.799255 
L 344.019547 196.036797 
L 344.154035 193.390839 
L 344.423011 255.942514 
L 344.557499 261.062038 
L 344.691988 260.668141 
L 344.960964 271.114307 
L 345.095452 269.674755 
L 345.22994 281.947486 
L 345.364429 277.093739 
L 345.498917 278.191621 
L 345.633405 276.526092 
L 345.902382 256.219206 
L 346.171358 155.298037 
L 346.305846 185.066559 
L 346.440334 169.057144 
L 346.574823 170.248464 
L 346.709311 168.637087 
L 346.978287 180.653074 
L 347.247264 184.649956 
L 347.919705 262.601505 
L 348.188681 271.578641 
L 348.323169 268.99826 
L 348.457658 283.224462 
L 348.592146 277.490301 
L 348.726634 279.801056 
L 348.861122 277.821519 
L 349.130099 257.577318 
L 349.399075 155.439084 
L 349.533563 180.237094 
L 349.668052 159.60449 
L 349.80254 161.940154 
L 349.937028 161.63159 
L 350.340493 191.116569 
L 350.474981 191.93041 
L 350.878445 249.61347 
L 351.147422 269.066469 
L 351.28191 266.02807 
L 351.416398 271.794435 
L 351.550886 271.930007 
L 351.685375 285.706476 
L 351.819863 277.007551 
L 351.954351 277.76633 
L 352.088839 277.456344 
L 352.223328 274.408989 
L 352.357816 261.018948 
L 352.626792 152.788413 
L 352.76128 183.864426 
L 352.895769 165.092965 
L 353.030257 171.401151 
L 353.164745 164.021556 
L 353.299233 177.815206 
L 353.433721 173.576062 
L 353.702698 150.750948 
L 354.106163 255.443724 
L 354.240651 268.881711 
L 354.375139 270.802498 
L 354.509627 270.432648 
L 354.913092 278.885038 
L 355.04758 277.35435 
L 355.182068 278.261491 
L 355.316556 277.771249 
L 355.451045 272.891813 
L 355.585533 256.452688 
L 355.854509 182.504311 
L 355.988998 186.300329 
L 356.257974 147.898316 
L 356.795927 190.731646 
L 356.930415 185.390286 
L 357.064903 226.976067 
L 357.199391 231.998303 
L 357.468368 274.353669 
L 357.602856 274.296911 
L 357.737344 275.86576 
L 357.871832 276.036478 
L 358.006321 280.846082 
L 358.140809 276.150604 
L 358.275297 276.576539 
L 358.409785 277.593606 
L 358.678762 275.074755 
L 358.81325 275.171116 
L 359.082226 254.812981 
L 359.216715 252.276006 
L 359.351203 252.268747 
L 359.620179 240.838323 
L 359.754667 263.717066 
L 359.889156 260.734485 
L 360.023644 260.525589 
L 360.427109 277.226342 
L 360.561597 273.157181 
L 360.696085 274.026008 
L 360.965061 276.880659 
L 361.09955 277.777471 
L 361.234038 276.868101 
L 361.368526 276.72409 
L 361.503014 276.13863 
L 361.637502 278.48109 
L 361.906479 276.671348 
L 362.040967 279.532205 
L 362.175455 278.441082 
L 362.309944 279.30972 
L 362.444432 279.058599 
L 362.57892 275.60723 
L 362.713408 275.088938 
L 362.847896 275.484759 
L 363.116873 274.558798 
L 363.251361 271.975584 
L 363.385849 272.558111 
L 363.520337 274.770227 
L 363.654826 272.419231 
L 363.789314 273.0801 
L 363.923802 274.661089 
L 364.05829 274.928372 
L 364.192778 276.796526 
L 364.327267 222.928493 
L 364.461755 252.445569 
L 364.596243 253.607251 
L 364.730731 253.274932 
L 364.86522 259.610188 
L 364.999708 254.840135 
L 365.268684 202.363604 
L 365.537661 122.411194 
L 365.806637 101.358896 
L 365.941125 98.302698 
L 366.210102 127.372703 
L 366.34459 124.751699 
L 366.479078 124.785109 
L 366.613566 139.891017 
L 366.882543 240.771214 
L 367.286007 261.064831 
L 367.420496 255.278375 
L 367.554984 267.662611 
L 367.82396 264.755274 
L 367.958448 269.570642 
L 368.092937 270.225057 
L 368.227425 237.746614 
L 368.361913 236.431416 
L 368.765378 103.745409 
L 368.899866 101.321563 
L 369.168842 84.611091 
L 369.303331 96.771663 
L 369.437819 98.035801 
L 369.572307 109.361724 
L 369.706795 107.237469 
L 369.841283 128.910176 
L 370.11026 238.34471 
L 370.244748 232.717521 
L 370.513724 255.59002 
L 370.648213 261.168508 
L 370.782701 288.269531 
L 370.917189 277.657081 
L 371.051677 277.246183 
L 371.186166 278.41632 
L 371.320654 276.06994 
L 371.58963 253.20754 
L 371.858607 153.735423 
L 371.993095 163.832286 
L 372.262071 214.978799 
L 372.396559 204.934263 
L 372.531048 210.994546 
L 372.800024 191.221352 
L 372.934512 202.254952 
L 373.069001 229.28645 
L 373.203489 226.67256 
L 373.472465 260.493686 
L 373.606953 261.910766 
L 373.87593 267.779225 
L 374.144906 290.851533 
L 374.279394 283.904666 
L 374.413883 286.008759 
L 374.548371 283.506814 
L 374.817347 257.122448 
L 375.086324 191.22215 
L 375.3553 171.822871 
L 376.162229 200.86913 
L 376.296718 228.257216 
L 376.431206 231.301648 
L 376.700182 264.846937 
L 376.83467 266.758844 
L 376.969159 266.546326 
L 377.103647 268.449359 
L 377.238135 286.52212 
L 377.372623 274.982954 
L 377.507112 277.703608 
L 377.6416 277.21532 
L 377.776088 271.168892 
L 377.910576 280.176241 
L 378.045064 275.550716 
L 378.179553 275.808705 
L 378.314041 256.838703 
L 378.448529 264.781978 
L 378.583017 250.999052 
L 378.717505 260.224394 
L 378.851994 258.031894 
L 378.986482 267.806933 
L 379.12097 262.578465 
L 379.389947 268.340985 
L 379.524435 265.8439 
L 379.793411 273.740488 
L 379.927899 274.209777 
L 380.062388 277.686503 
L 380.196876 274.976386 
L 380.331364 275.832863 
L 380.465852 255.276168 
L 380.734829 267.926975 
L 380.869317 269.500707 
L 381.003805 269.415684 
L 381.138293 250.76727 
L 381.272782 255.728901 
L 381.541758 144.930392 
L 381.676246 150.114849 
L 381.945223 134.603579 
L 382.214199 152.277583 
L 382.348687 154.597872 
L 382.483175 140.298641 
L 382.617664 174.132998 
L 382.752152 178.935752 
L 383.155616 265.017189 
L 383.290105 268.054333 
L 383.424593 267.094627 
L 383.559081 267.396218 
L 383.693569 255.226098 
L 383.962546 258.791271 
L 384.097034 259.025062 
L 384.231522 261.472636 
L 384.36601 256.902896 
L 384.500499 261.308918 
L 384.769475 166.960112 
L 385.038451 160.629446 
L 385.17294 139.510207 
L 385.307428 153.578544 
L 385.441916 179.8279 
L 385.576404 164.923935 
L 385.710893 167.444468 
L 385.845381 206.696834 
L 385.979869 201.418033 
L 386.383334 270.849198 
L 386.517822 267.839165 
L 386.65231 273.750032 
L 386.786798 269.649699 
L 386.921286 282.063998 
L 387.190263 274.060936 
L 387.324751 277.166096 
L 387.459239 274.350557 
L 387.593727 275.279543 
L 387.728216 277.925209 
L 387.862704 275.589213 
L 387.997192 278.6067 
L 388.13168 275.535318 
L 388.266169 279.296877 
L 388.535145 273.099805 
L 388.669633 275.306916 
L 388.804121 273.867718 
L 388.93861 276.247691 
L 389.073098 270.649921 
L 389.611051 284.428193 
L 389.745539 279.776666 
L 389.880027 282.112128 
L 390.014515 281.18267 
L 390.149004 251.339355 
L 390.283492 266.382537 
L 390.41798 266.140472 
L 390.552468 266.151449 
L 390.686956 266.724768 
L 390.821445 255.909614 
L 390.955933 261.641442 
L 391.090421 244.027343 
L 391.224909 173.335563 
L 391.359397 189.794231 
L 391.493886 152.534514 
L 391.628374 158.760751 
L 391.89735 181.874667 
L 392.031839 181.498108 
L 392.166327 169.798325 
L 392.435303 193.051767 
L 392.838768 274.273327 
L 392.973256 271.464824 
L 393.107744 271.60121 
L 393.242232 271.075242 
L 393.376721 257.423468 
L 393.511209 260.387476 
L 393.645697 270.415807 
L 393.780185 268.316518 
L 393.914673 260.968582 
L 394.049162 266.954368 
L 394.18365 250.62857 
L 394.587115 160.267772 
L 394.721603 155.075633 
L 394.856091 138.429844 
L 394.990579 147.235178 
L 395.125067 148.378975 
L 395.259556 148.491964 
L 395.394044 170.853824 
L 395.528532 165.533671 
L 395.66302 208.002485 
L 395.797508 214.394334 
L 396.066485 258.199478 
L 396.200973 263.002715 
L 396.335461 262.827059 
L 396.46995 253.314221 
L 396.604438 295.488 
L 396.738926 278.573977 
L 396.873414 280.451589 
L 397.007902 280.607394 
L 397.142391 281.271652 
L 397.411367 259.527611 
L 397.680343 171.723871 
L 397.814832 185.718252 
L 397.94932 160.473723 
L 398.083808 164.378948 
L 398.218296 148.737338 
L 398.352785 177.128467 
L 398.487273 164.655439 
L 398.487273 164.655439 
" clip-path="url(#pb68057354b)" style="fill: none; stroke: #ff7f0e; stroke-width: 1.5; stroke-linecap: square"/>
   </g>
   <g id="patch_3">
    <path d="M 57.6 307.584 
L 57.6 41.472 
" style="fill: none; stroke: #000000; stroke-width: 0.8; stroke-linejoin: miter; stroke-linecap: square"/>
   </g>
   <g id="patch_4">
    <path d="M 414.72 307.584 
L 414.72 41.472 
" style="fill: none; stroke: #000000; stroke-width: 0.8; stroke-linejoin: miter; stroke-linecap: square"/>
   </g>
   <g id="patch_5">
    <path d="M 57.6 307.584 
L 414.72 307.584 
" style="fill: none; stroke: #000000; stroke-width: 0.8; stroke-linejoin: miter; stroke-linecap: square"/>
   </g>
   <g id="patch_6">
    <path d="M 57.6 41.472 
L 414.72 41.472 
" style="fill: none; stroke: #000000; stroke-width: 0.8; stroke-linejoin: miter; stroke-linecap: square"/>
   </g>
  </g>
 </g>
 <defs>
  <clipPath id="pb68057354b">
   <rect x="57.6" y="41.472" width="357.12" height="266.112"/>
  </clipPath>
 </defs>
</svg>
