<?xml version="1.0" encoding="utf-8" standalone="no"?>
<!DOCTYPE svg PUBLIC "-//W3C//DTD SVG 1.1//EN"
  "http://www.w3.org/Graphics/SVG/1.1/DTD/svg11.dtd">
<svg xmlns:xlink="http://www.w3.org/1999/xlink" width="460.8pt" height="345.6pt" viewBox="0 0 460.8 345.6" xmlns="http://www.w3.org/2000/svg" version="1.1">
 <metadata>
  <rdf:RDF xmlns:dc="http://purl.org/dc/elements/1.1/" xmlns:cc="http://creativecommons.org/ns#" xmlns:rdf="http://www.w3.org/1999/02/22-rdf-syntax-ns#">
   <cc:Work>
    <dc:type rdf:resource="http://purl.org/dc/dcmitype/StillImage"/>
    <dc:date>2023-04-04T03:39:26.892868</dc:date>
    <dc:format>image/svg+xml</dc:format>
    <dc:creator>
     <cc:Agent>
      <dc:title>Matplotlib v3.5.2, https://matplotlib.org/</dc:title>
     </cc:Agent>
    </dc:creator>
   </cc:Work>
  </rdf:RDF>
 </metadata>
 <defs>
  <style type="text/css">*{stroke-linejoin: round; stroke-linecap: butt}</style>
 </defs>
 <g id="figure_1">
  <g id="patch_1">
   <path d="M 0 345.6 
L 460.8 345.6 
L 460.8 0 
L 0 0 
z
" style="fill: #ffffff"/>
  </g>
  <g id="axes_1">
   <g id="patch_2">
    <path d="M 57.6 307.584 
L 414.72 307.584 
L 414.72 41.472 
L 57.6 41.472 
z
" style="fill: #ffffff"/>
   </g>
   <g id="matplotlib.axis_1">
    <g id="xtick_1">
     <g id="line2d_1">
      <defs>
       <path id="mb52ad30983" d="M 0 0 
L 0 3.5 
" style="stroke: #000000; stroke-width: 0.8"/>
      </defs>
      <g>
       <use xlink:href="#mb52ad30983" x="73.832727" y="307.584" style="stroke: #000000; stroke-width: 0.8"/>
      </g>
     </g>
     <g id="text_1">
      <!-- 0 -->
      <g transform="translate(70.651477 322.182437)scale(0.1 -0.1)">
       <defs>
        <path id="DejaVuSans-30" d="M 2034 4250 
Q 1547 4250 1301 3770 
Q 1056 3291 1056 2328 
Q 1056 1369 1301 889 
Q 1547 409 2034 409 
Q 2525 409 2770 889 
Q 3016 1369 3016 2328 
Q 3016 3291 2770 3770 
Q 2525 4250 2034 4250 
z
M 2034 4750 
Q 2819 4750 3233 4129 
Q 3647 3509 3647 2328 
Q 3647 1150 3233 529 
Q 2819 -91 2034 -91 
Q 1250 -91 836 529 
Q 422 1150 422 2328 
Q 422 3509 836 4129 
Q 1250 4750 2034 4750 
z
" transform="scale(0.015625)"/>
       </defs>
       <use xlink:href="#DejaVuSans-30"/>
      </g>
     </g>
    </g>
    <g id="xtick_2">
     <g id="line2d_2">
      <g>
       <use xlink:href="#mb52ad30983" x="141.076834" y="307.584" style="stroke: #000000; stroke-width: 0.8"/>
      </g>
     </g>
     <g id="text_2">
      <!-- 500 -->
      <g transform="translate(131.533084 322.182437)scale(0.1 -0.1)">
       <defs>
        <path id="DejaVuSans-35" d="M 691 4666 
L 3169 4666 
L 3169 4134 
L 1269 4134 
L 1269 2991 
Q 1406 3038 1543 3061 
Q 1681 3084 1819 3084 
Q 2600 3084 3056 2656 
Q 3513 2228 3513 1497 
Q 3513 744 3044 326 
Q 2575 -91 1722 -91 
Q 1428 -91 1123 -41 
Q 819 9 494 109 
L 494 744 
Q 775 591 1075 516 
Q 1375 441 1709 441 
Q 2250 441 2565 725 
Q 2881 1009 2881 1497 
Q 2881 1984 2565 2268 
Q 2250 2553 1709 2553 
Q 1456 2553 1204 2497 
Q 953 2441 691 2322 
L 691 4666 
z
" transform="scale(0.015625)"/>
       </defs>
       <use xlink:href="#DejaVuSans-35"/>
       <use xlink:href="#DejaVuSans-30" x="63.623047"/>
       <use xlink:href="#DejaVuSans-30" x="127.246094"/>
      </g>
     </g>
    </g>
    <g id="xtick_3">
     <g id="line2d_3">
      <g>
       <use xlink:href="#mb52ad30983" x="208.32094" y="307.584" style="stroke: #000000; stroke-width: 0.8"/>
      </g>
     </g>
     <g id="text_3">
      <!-- 1000 -->
      <g transform="translate(195.59594 322.182437)scale(0.1 -0.1)">
       <defs>
        <path id="DejaVuSans-31" d="M 794 531 
L 1825 531 
L 1825 4091 
L 703 3866 
L 703 4441 
L 1819 4666 
L 2450 4666 
L 2450 531 
L 3481 531 
L 3481 0 
L 794 0 
L 794 531 
z
" transform="scale(0.015625)"/>
       </defs>
       <use xlink:href="#DejaVuSans-31"/>
       <use xlink:href="#DejaVuSans-30" x="63.623047"/>
       <use xlink:href="#DejaVuSans-30" x="127.246094"/>
       <use xlink:href="#DejaVuSans-30" x="190.869141"/>
      </g>
     </g>
    </g>
    <g id="xtick_4">
     <g id="line2d_4">
      <g>
       <use xlink:href="#mb52ad30983" x="275.565046" y="307.584" style="stroke: #000000; stroke-width: 0.8"/>
      </g>
     </g>
     <g id="text_4">
      <!-- 1500 -->
      <g transform="translate(262.840046 322.182437)scale(0.1 -0.1)">
       <use xlink:href="#DejaVuSans-31"/>
       <use xlink:href="#DejaVuSans-35" x="63.623047"/>
       <use xlink:href="#DejaVuSans-30" x="127.246094"/>
       <use xlink:href="#DejaVuSans-30" x="190.869141"/>
      </g>
     </g>
    </g>
    <g id="xtick_5">
     <g id="line2d_5">
      <g>
       <use xlink:href="#mb52ad30983" x="342.809153" y="307.584" style="stroke: #000000; stroke-width: 0.8"/>
      </g>
     </g>
     <g id="text_5">
      <!-- 2000 -->
      <g transform="translate(330.084153 322.182437)scale(0.1 -0.1)">
       <defs>
        <path id="DejaVuSans-32" d="M 1228 531 
L 3431 531 
L 3431 0 
L 469 0 
L 469 531 
Q 828 903 1448 1529 
Q 2069 2156 2228 2338 
Q 2531 2678 2651 2914 
Q 2772 3150 2772 3378 
Q 2772 3750 2511 3984 
Q 2250 4219 1831 4219 
Q 1534 4219 1204 4116 
Q 875 4013 500 3803 
L 500 4441 
Q 881 4594 1212 4672 
Q 1544 4750 1819 4750 
Q 2544 4750 2975 4387 
Q 3406 4025 3406 3419 
Q 3406 3131 3298 2873 
Q 3191 2616 2906 2266 
Q 2828 2175 2409 1742 
Q 1991 1309 1228 531 
z
" transform="scale(0.015625)"/>
       </defs>
       <use xlink:href="#DejaVuSans-32"/>
       <use xlink:href="#DejaVuSans-30" x="63.623047"/>
       <use xlink:href="#DejaVuSans-30" x="127.246094"/>
       <use xlink:href="#DejaVuSans-30" x="190.869141"/>
      </g>
     </g>
    </g>
    <g id="xtick_6">
     <g id="line2d_6">
      <g>
       <use xlink:href="#mb52ad30983" x="410.053259" y="307.584" style="stroke: #000000; stroke-width: 0.8"/>
      </g>
     </g>
     <g id="text_6">
      <!-- 2500 -->
      <g transform="translate(397.328259 322.182437)scale(0.1 -0.1)">
       <use xlink:href="#DejaVuSans-32"/>
       <use xlink:href="#DejaVuSans-35" x="63.623047"/>
       <use xlink:href="#DejaVuSans-30" x="127.246094"/>
       <use xlink:href="#DejaVuSans-30" x="190.869141"/>
      </g>
     </g>
    </g>
   </g>
   <g id="matplotlib.axis_2">
    <g id="ytick_1">
     <g id="line2d_7">
      <defs>
       <path id="m48f6561bb7" d="M 0 0 
L -3.5 0 
" style="stroke: #000000; stroke-width: 0.8"/>
      </defs>
      <g>
       <use xlink:href="#m48f6561bb7" x="57.6" y="283.983654" style="stroke: #000000; stroke-width: 0.8"/>
      </g>
     </g>
     <g id="text_7">
      <!-- 100 -->
      <g transform="translate(31.5125 287.782873)scale(0.1 -0.1)">
       <use xlink:href="#DejaVuSans-31"/>
       <use xlink:href="#DejaVuSans-30" x="63.623047"/>
       <use xlink:href="#DejaVuSans-30" x="127.246094"/>
      </g>
     </g>
    </g>
    <g id="ytick_2">
     <g id="line2d_8">
      <g>
       <use xlink:href="#m48f6561bb7" x="57.6" y="235.432063" style="stroke: #000000; stroke-width: 0.8"/>
      </g>
     </g>
     <g id="text_8">
      <!-- 200 -->
      <g transform="translate(31.5125 239.231282)scale(0.1 -0.1)">
       <use xlink:href="#DejaVuSans-32"/>
       <use xlink:href="#DejaVuSans-30" x="63.623047"/>
       <use xlink:href="#DejaVuSans-30" x="127.246094"/>
      </g>
     </g>
    </g>
    <g id="ytick_3">
     <g id="line2d_9">
      <g>
       <use xlink:href="#m48f6561bb7" x="57.6" y="186.880473" style="stroke: #000000; stroke-width: 0.8"/>
      </g>
     </g>
     <g id="text_9">
      <!-- 300 -->
      <g transform="translate(31.5125 190.679691)scale(0.1 -0.1)">
       <defs>
        <path id="DejaVuSans-33" d="M 2597 2516 
Q 3050 2419 3304 2112 
Q 3559 1806 3559 1356 
Q 3559 666 3084 287 
Q 2609 -91 1734 -91 
Q 1441 -91 1130 -33 
Q 819 25 488 141 
L 488 750 
Q 750 597 1062 519 
Q 1375 441 1716 441 
Q 2309 441 2620 675 
Q 2931 909 2931 1356 
Q 2931 1769 2642 2001 
Q 2353 2234 1838 2234 
L 1294 2234 
L 1294 2753 
L 1863 2753 
Q 2328 2753 2575 2939 
Q 2822 3125 2822 3475 
Q 2822 3834 2567 4026 
Q 2313 4219 1838 4219 
Q 1578 4219 1281 4162 
Q 984 4106 628 3988 
L 628 4550 
Q 988 4650 1302 4700 
Q 1616 4750 1894 4750 
Q 2613 4750 3031 4423 
Q 3450 4097 3450 3541 
Q 3450 3153 3228 2886 
Q 3006 2619 2597 2516 
z
" transform="scale(0.015625)"/>
       </defs>
       <use xlink:href="#DejaVuSans-33"/>
       <use xlink:href="#DejaVuSans-30" x="63.623047"/>
       <use xlink:href="#DejaVuSans-30" x="127.246094"/>
      </g>
     </g>
    </g>
    <g id="ytick_4">
     <g id="line2d_10">
      <g>
       <use xlink:href="#m48f6561bb7" x="57.6" y="138.328882" style="stroke: #000000; stroke-width: 0.8"/>
      </g>
     </g>
     <g id="text_10">
      <!-- 400 -->
      <g transform="translate(31.5125 142.1281)scale(0.1 -0.1)">
       <defs>
        <path id="DejaVuSans-34" d="M 2419 4116 
L 825 1625 
L 2419 1625 
L 2419 4116 
z
M 2253 4666 
L 3047 4666 
L 3047 1625 
L 3713 1625 
L 3713 1100 
L 3047 1100 
L 3047 0 
L 2419 0 
L 2419 1100 
L 313 1100 
L 313 1709 
L 2253 4666 
z
" transform="scale(0.015625)"/>
       </defs>
       <use xlink:href="#DejaVuSans-34"/>
       <use xlink:href="#DejaVuSans-30" x="63.623047"/>
       <use xlink:href="#DejaVuSans-30" x="127.246094"/>
      </g>
     </g>
    </g>
    <g id="ytick_5">
     <g id="line2d_11">
      <g>
       <use xlink:href="#m48f6561bb7" x="57.6" y="89.777291" style="stroke: #000000; stroke-width: 0.8"/>
      </g>
     </g>
     <g id="text_11">
      <!-- 500 -->
      <g transform="translate(31.5125 93.57651)scale(0.1 -0.1)">
       <use xlink:href="#DejaVuSans-35"/>
       <use xlink:href="#DejaVuSans-30" x="63.623047"/>
       <use xlink:href="#DejaVuSans-30" x="127.246094"/>
      </g>
     </g>
    </g>
   </g>
   <g id="line2d_12">
    <path d="M 73.832727 287.102608 
L 74.101704 286.544751 
L 74.236192 285.416897 
L 74.37068 286.395697 
L 74.505168 285.895616 
L 74.639657 286.50688 
L 74.774145 279.934937 
L 74.908633 252.399388 
L 75.177609 250.883122 
L 75.312098 251.447291 
L 75.446586 251.500698 
L 75.581074 252.380938 
L 75.715562 251.612852 
L 75.85005 251.590518 
L 76.253515 246.527558 
L 76.522492 281.115226 
L 76.65698 281.433239 
L 76.925956 279.699947 
L 77.060444 270.706251 
L 77.194933 272.984777 
L 77.463909 273.04935 
L 77.598397 274.65835 
L 77.732885 269.249217 
L 77.867374 255.633409 
L 78.405327 104.8948 
L 78.674303 103.958725 
L 78.808791 111.207963 
L 78.943279 106.33047 
L 79.481232 159.848889 
L 79.750209 231.320229 
L 80.019185 266.582279 
L 80.153673 268.739426 
L 80.288161 264.845103 
L 80.42265 275.402646 
L 80.557138 274.961312 
L 80.826114 277.507843 
L 80.960603 274.928297 
L 81.095091 264.454262 
L 81.364067 170.194747 
L 81.498555 182.686586 
L 81.767532 162.980466 
L 82.036508 171.107517 
L 82.170996 167.958461 
L 82.305485 161.890969 
L 83.112414 263.968746 
L 83.650367 290.558996 
L 83.784855 290.579873 
L 83.919343 292.132068 
L 84.053831 292.327245 
L 84.18832 290.197772 
L 84.322808 282.861141 
L 84.726273 191.330226 
L 84.860761 182.530736 
L 84.995249 186.690636 
L 85.129737 171.577982 
L 85.264225 180.252209 
L 85.398714 181.011071 
L 85.66769 189.435743 
L 85.802178 198.341561 
L 86.340131 266.12735 
L 86.474619 268.171372 
L 86.609107 273.15762 
L 86.878084 290.946923 
L 87.012572 293.232732 
L 87.14706 292.901125 
L 87.281549 294.414963 
L 87.416037 294.316404 
L 87.550525 293.492483 
L 87.819501 265.563181 
L 87.95399 265.711263 
L 88.088478 259.937022 
L 88.222966 261.419302 
L 88.357454 260.64976 
L 88.491942 257.239496 
L 88.626431 260.11812 
L 88.760919 253.015993 
L 88.895407 255.937828 
L 89.029895 255.936371 
L 89.164384 258.536794 
L 89.43336 280.167014 
L 89.567848 281.856123 
L 89.702336 281.350216 
L 89.836825 282.426605 
L 89.971313 267.043033 
L 90.105801 267.767423 
L 90.240289 269.335639 
L 90.374777 269.101621 
L 90.509266 270.356679 
L 90.643754 270.530979 
L 90.778242 272.66288 
L 90.91273 269.390017 
L 91.047218 259.297598 
L 91.181707 258.108569 
L 91.316195 251.070045 
L 91.450683 255.573205 
L 91.585171 253.576764 
L 91.71966 255.098371 
L 91.854148 255.32802 
L 92.123124 258.357154 
L 92.257612 257.775505 
L 92.526589 263.457498 
L 92.795565 270.157132 
L 92.930053 271.127193 
L 93.064542 269.968752 
L 93.19903 280.143223 
L 93.468006 280.269943 
L 93.602495 281.347303 
L 93.736983 280.093701 
L 93.871471 277.530662 
L 94.005959 272.228829 
L 94.6784 163.272262 
L 94.812888 158.804544 
L 95.081865 170.854563 
L 95.216353 165.554186 
L 95.350841 154.106692 
L 96.023282 268.503465 
L 96.157771 269.244848 
L 96.426747 273.235789 
L 96.561235 272.896898 
L 96.695723 272.975552 
L 96.830212 274.88897 
L 96.9647 274.240806 
L 97.099188 272.790085 
L 97.233676 264.184315 
L 97.368164 246.334809 
L 97.502653 204.643072 
L 97.637141 197.431219 
L 97.771629 181.705844 
L 97.906117 190.238786 
L 98.040606 183.415831 
L 98.175094 184.137308 
L 98.309582 178.731088 
L 98.44407 180.400292 
L 98.713047 191.95557 
L 98.982023 234.588722 
L 99.250999 270.009535 
L 99.385488 274.772932 
L 99.519976 275.539562 
L 99.654464 285.505747 
L 99.788952 285.51837 
L 99.923441 284.500729 
L 100.192417 285.759186 
L 100.326905 285.841238 
L 100.461393 285.175596 
L 100.595882 285.588284 
L 100.73037 286.430654 
L 100.864858 284.866808 
L 100.999346 286.041756 
L 101.133834 285.11879 
L 101.268323 282.866968 
L 101.402811 275.726 
L 101.537299 280.068454 
L 101.806276 269.511396 
L 101.940764 271.70787 
L 102.075252 271.556875 
L 102.20974 272.21572 
L 102.344228 274.633589 
L 102.478717 280.547658 
L 102.613205 278.664827 
L 102.747693 284.428387 
L 102.882181 270.748976 
L 103.016669 270.778107 
L 103.151158 275.765326 
L 103.285646 275.542475 
L 103.554622 271.292754 
L 103.68911 267.035265 
L 103.823599 249.322188 
L 104.092575 186.027421 
L 104.227063 164.189887 
L 104.361552 171.472625 
L 104.630528 146.187928 
L 105.033993 161.757937 
L 105.168481 172.715546 
L 105.706434 257.14919 
L 105.840922 257.024898 
L 105.97541 265.867114 
L 106.109898 282.570317 
L 106.378875 285.812107 
L 106.513363 285.798027 
L 106.647851 287.990617 
L 106.782339 287.717757 
L 106.916828 288.847553 
L 107.320292 250.656386 
L 107.45478 257.83668 
L 107.589269 255.261019 
L 107.723757 255.355209 
L 108.26171 250.20874 
L 108.396198 246.745555 
L 108.530686 249.042531 
L 108.934151 281.173488 
L 109.068639 282.713545 
L 109.203127 281.628902 
L 109.337615 277.059226 
L 109.606592 278.633269 
L 109.875568 279.70286 
L 110.144545 280.769053 
L 110.413521 279.511082 
L 110.548009 279.374166 
L 110.951474 275.258448 
L 111.085962 276.450875 
L 111.22045 276.097905 
L 111.623915 270.208597 
L 111.758403 270.7247 
L 112.02738 274.567073 
L 112.430844 276.190153 
L 112.565333 265.785061 
L 112.834309 270.051775 
L 112.968797 270.583415 
L 113.103285 272.116189 
L 113.237774 272.297286 
L 113.50675 274.955 
L 113.641238 275.797856 
L 114.313679 264.392602 
L 114.448168 264.026037 
L 114.582656 262.521423 
L 114.98612 251.526916 
L 115.524073 262.755928 
L 115.658561 263.314271 
L 115.927538 265.573376 
L 116.062026 264.270252 
L 116.196514 270.458638 
L 116.331002 270.035268 
L 116.465491 270.655271 
L 116.599979 260.755117 
L 117.137932 79.498434 
L 117.406908 64.584841 
L 117.810373 81.362329 
L 118.213837 149.530219 
L 118.482814 212.766724 
L 118.75179 247.694739 
L 118.886279 249.250817 
L 119.289743 257.359904 
L 119.424231 258.798487 
L 119.55872 261.609625 
L 119.693208 261.931036 
L 119.827696 252.176536 
L 120.365649 92.541333 
L 120.634625 73.7072 
L 120.769114 77.451984 
L 120.903602 70.939759 
L 121.03809 72.287066 
L 121.441555 136.634431 
L 121.710531 204.430902 
L 121.845019 233.018078 
L 122.248484 244.141248 
L 122.51746 259.881188 
L 122.651948 260.042865 
L 122.786437 261.806744 
L 122.920925 260.446814 
L 123.055413 252.168282 
L 123.727854 60.571081 
L 123.862342 53.568 
L 124.534783 108.481791 
L 125.072736 251.459429 
L 125.207225 256.704943 
L 125.341713 257.174922 
L 125.476201 257.127827 
L 125.745177 270.923762 
L 125.879666 272.381281 
L 126.014154 272.614328 
L 126.28313 258.968904 
L 126.821083 93.662875 
L 126.955571 75.046738 
L 127.09006 81.740061 
L 127.359036 106.631976 
L 127.493524 109.110049 
L 127.762501 127.874268 
L 127.896989 151.006188 
L 128.300453 249.818385 
L 128.434942 255.704295 
L 128.56943 253.850595 
L 128.703918 261.460086 
L 128.838406 262.194671 
L 129.241871 268.984611 
L 129.510847 247.974396 
L 130.0488 83.945274 
L 130.183288 74.704935 
L 130.317777 86.795738 
L 130.452265 116.036419 
L 130.586753 115.104714 
L 130.721241 111.404597 
L 130.855729 117.887205 
L 131.124706 171.930952 
L 131.393682 238.525771 
L 131.662659 261.961138 
L 131.931635 261.762077 
L 132.066123 261.577095 
L 132.3351 273.011966 
L 132.469588 272.861456 
L 132.604076 272.961958 
L 132.738564 272.919718 
L 133.007541 260.856589 
L 133.276517 250.245639 
L 133.679982 244.586951 
L 133.81447 243.387727 
L 133.948958 238.215041 
L 134.486911 248.234632 
L 134.755888 255.423666 
L 134.890376 255.307143 
L 135.697305 269.755125 
L 135.831793 274.57387 
L 135.966282 275.191932 
L 136.10077 273.180925 
L 136.235258 274.705931 
L 136.369746 274.42773 
L 136.504234 270.066341 
L 136.638723 269.905149 
L 136.907699 267.942694 
L 137.311164 256.903519 
L 137.445652 257.420593 
L 137.58014 254.699762 
L 137.983605 261.610596 
L 138.118093 260.695884 
L 138.252581 262.556866 
L 138.387069 267.112947 
L 138.521558 265.862258 
L 138.656046 266.066175 
L 138.925022 270.828601 
L 139.193999 254.352618 
L 139.731951 82.064871 
L 139.86644 73.020195 
L 140.269904 99.402644 
L 140.538881 124.179977 
L 140.673369 131.37241 
L 140.807857 145.938373 
L 141.076834 227.196257 
L 141.480298 260.861445 
L 142.018251 269.42109 
L 142.152739 268.950625 
L 142.421716 244.873891 
L 142.959669 92.206813 
L 143.094157 84.684229 
L 143.228645 84.189488 
L 143.363133 94.56205 
L 143.497621 85.154694 
L 143.63211 90.355055 
L 144.573527 262.127185 
L 144.708015 265.667081 
L 144.842504 265.845265 
L 145.11148 268.119907 
L 145.245968 270.294048 
L 145.380456 266.157452 
L 145.783921 204.109976 
L 146.052897 111.097265 
L 146.187386 91.700905 
L 146.456362 107.234986 
L 146.59085 118.720351 
L 146.725339 112.947567 
L 146.859827 120.468694 
L 146.994315 115.317855 
L 147.128803 128.363668 
L 147.532268 237.190602 
L 147.801244 263.585674 
L 147.935732 263.791048 
L 148.204709 269.140462 
L 148.339197 269.118614 
L 148.473685 269.629862 
L 148.742662 268.560756 
L 148.87715 250.608805 
L 149.280615 120.330807 
L 149.415103 116.23014 
L 149.549591 107.009222 
L 149.684079 108.284186 
L 150.087544 141.496873 
L 150.222032 133.686379 
L 150.35652 139.291174 
L 150.894473 255.889762 
L 151.028961 265.202928 
L 151.16345 264.230439 
L 151.835891 272.53179 
L 151.970379 271.239833 
L 152.104867 249.967439 
L 152.508332 114.228358 
L 152.64282 117.385182 
L 152.911796 105.348757 
L 153.046285 119.716629 
L 153.180773 118.192595 
L 153.449749 153.198292 
L 153.718726 194.777874 
L 153.987702 252.277523 
L 154.12219 269.591992 
L 154.256678 270.99222 
L 154.525655 274.914217 
L 154.794631 276.644596 
L 155.063608 279.634888 
L 155.198096 281.30215 
L 155.332584 280.648645 
L 155.467072 276.199863 
L 155.601561 265.561724 
L 155.736049 264.68731 
L 155.870537 261.777613 
L 156.005025 263.949811 
L 156.274002 262.023284 
L 156.40849 262.568033 
L 156.542978 263.841056 
L 156.677466 262.625809 
L 157.215419 270.759172 
L 157.349907 272.796397 
L 157.484396 271.788951 
L 157.618884 272.571117 
L 157.88786 275.796399 
L 158.022348 276.284828 
L 158.291325 279.33047 
L 158.560301 283.678265 
L 158.694789 282.087715 
L 158.829278 283.067 
L 158.963766 282.664507 
L 159.232742 279.908234 
L 159.367231 280.194688 
L 159.501719 278.180283 
L 160.039672 263.87844 
L 160.308648 264.14159 
L 160.443136 269.949331 
L 160.577624 269.66142 
L 160.712113 267.67566 
L 160.846601 268.388398 
L 160.981089 269.903693 
L 161.250066 273.718877 
L 161.519042 274.685054 
L 161.788018 257.660924 
L 162.460459 84.377869 
L 162.594948 84.036065 
L 162.729436 82.554271 
L 162.998412 102.449256 
L 163.132901 111.533259 
L 163.401877 153.440079 
L 163.670853 225.267788 
L 164.074318 259.886529 
L 164.208806 261.037201 
L 164.477783 273.888807 
L 164.612271 276.28677 
L 164.746759 271.511722 
L 165.015735 253.731158 
L 165.4192 121.968452 
L 165.553688 124.607717 
L 165.822665 110.500081 
L 165.957153 115.836872 
L 166.091641 112.704323 
L 166.360618 101.073304 
L 166.495106 107.362677 
L 166.89857 224.354532 
L 167.033059 231.43384 
L 167.302035 250.107267 
L 167.974476 268.856435 
L 168.108964 263.095303 
L 168.243453 248.86726 
L 168.377941 210.203686 
L 168.646917 107.185949 
L 168.781405 108.488589 
L 168.915894 103.89318 
L 169.050382 105.213298 
L 169.18487 109.067323 
L 169.319358 93.503626 
L 169.453847 96.020054 
L 169.857311 150.21771 
L 170.126288 229.619467 
L 170.395264 260.909511 
L 170.529752 261.80286 
L 170.66424 265.292748 
L 170.798729 265.485013 
L 171.067705 267.848018 
L 171.202193 270.726157 
L 171.47117 248.603139 
L 172.009123 111.310892 
L 172.143611 109.710147 
L 172.412587 97.771796 
L 172.95054 130.773283 
L 173.622981 262.909351 
L 173.757469 266.96001 
L 173.891958 280.546202 
L 174.026446 279.602844 
L 174.160934 279.558177 
L 174.42991 281.112799 
L 174.698887 266.09385 
L 174.833375 248.706068 
L 175.102351 179.12824 
L 175.371328 145.239715 
L 175.505816 142.295061 
L 175.640304 152.618586 
L 175.774792 152.303486 
L 175.909281 153.734301 
L 176.043769 158.615678 
L 176.178257 158.303006 
L 176.312745 173.001515 
L 176.581722 241.715125 
L 176.850698 269.263783 
L 176.985186 266.730846 
L 177.254163 271.539396 
L 177.388651 271.495214 
L 177.792116 278.156492 
L 177.926604 279.061008 
L 178.19558 268.177198 
L 178.330069 267.730038 
L 178.599045 260.044321 
L 178.733533 259.469956 
L 178.868021 261.814512 
L 179.136998 258.248883 
L 179.271486 258.854322 
L 179.540462 256.329154 
L 179.809439 263.954666 
L 179.943927 271.34082 
L 180.212904 269.408952 
L 180.48188 279.433885 
L 180.616368 279.447965 
L 180.750856 279.826181 
L 180.885345 280.670979 
L 181.019833 280.758858 
L 181.692274 268.250997 
L 181.826762 269.567716 
L 181.96125 263.4876 
L 182.095738 265.298574 
L 182.364715 270.824717 
L 182.499203 272.123472 
L 182.633691 275.32205 
L 182.902668 274.490847 
L 183.171644 280.720987 
L 183.306132 282.160056 
L 183.440621 281.032203 
L 183.575109 278.692987 
L 183.844085 290.616287 
L 183.978573 291.582949 
L 184.113062 289.267038 
L 184.382038 277.696223 
L 184.919991 184.477654 
L 185.054479 188.558416 
L 185.188967 181.370838 
L 185.457944 185.293807 
L 185.592432 186.817355 
L 185.995897 225.185736 
L 186.264873 256.280116 
L 186.53385 272.292917 
L 186.802826 282.713545 
L 187.071802 293.3813 
L 187.206291 292.212178 
L 187.340779 293.364793 
L 187.475267 290.135626 
L 187.609755 282.007119 
L 188.01322 204.863011 
L 188.147708 188.196706 
L 188.282196 188.419072 
L 188.416684 187.445128 
L 188.551173 190.811209 
L 188.685661 197.317123 
L 188.820149 192.833383 
L 188.954637 197.340913 
L 189.089126 205.850065 
L 189.627078 268.862747 
L 189.761567 271.493757 
L 189.896055 276.815012 
L 190.030543 274.339366 
L 190.299519 276.200834 
L 190.434008 275.010349 
L 190.971961 278.491013 
L 191.106449 274.982189 
L 191.240937 274.488905 
L 191.375425 274.934609 
L 191.509913 270.433391 
L 191.644402 272.007919 
L 191.913378 270.721302 
L 192.182354 264.992699 
L 192.316843 265.347126 
L 192.451331 264.840733 
L 192.585819 266.183184 
L 192.720307 272.047731 
L 192.989284 273.326094 
L 193.392748 270.594582 
L 193.661725 273.524185 
L 193.796213 274.067477 
L 194.065189 266.050639 
L 194.603142 160.594156 
L 194.73763 155.601596 
L 194.872119 145.485872 
L 195.006607 147.087589 
L 195.141095 151.909733 
L 195.275583 144.389091 
L 195.54456 158.003443 
L 195.948024 253.580648 
L 196.217001 264.087698 
L 196.351489 266.046269 
L 196.485977 275.675991 
L 196.620465 275.012777 
L 196.889442 275.578888 
L 197.02393 276.726162 
L 197.158418 274.967624 
L 197.292907 268.541335 
L 197.830859 198.686277 
L 197.965348 201.036174 
L 198.099836 197.663295 
L 198.234324 202.140238 
L 198.5033 188.593858 
L 198.772277 202.62284 
L 199.31023 276.363482 
L 199.713694 285.627126 
L 199.848183 284.439068 
L 200.117159 285.178994 
L 200.251647 283.366078 
L 200.386135 277.491335 
L 200.520624 277.08156 
L 200.655112 263.908542 
L 200.7896 215.902186 
L 200.924088 213.899433 
L 201.058576 202.021772 
L 201.193065 201.657635 
L 201.327553 198.928064 
L 201.462041 201.136676 
L 201.731018 189.141035 
L 201.865506 190.524755 
L 202.134482 213.596471 
L 202.403459 267.956289 
L 202.806923 277.917618 
L 203.0759 269.305537 
L 203.210388 273.704311 
L 203.344876 273.832488 
L 203.748341 264.300354 
L 203.882829 246.624662 
L 204.151805 183.63577 
L 204.420782 166.890326 
L 204.55527 161.168036 
L 204.689758 164.661808 
L 204.824246 158.054422 
L 204.958735 174.343966 
L 205.093223 174.594492 
L 205.765664 263.709966 
L 205.900152 264.229468 
L 206.03464 268.092719 
L 206.169129 283.188379 
L 206.303617 283.677294 
L 206.572593 287.681343 
L 206.84157 288.506235 
L 207.110546 278.961963 
L 207.379522 269.626463 
L 207.514011 268.734085 
L 207.917475 276.986884 
L 208.051964 276.736358 
L 208.32094 270.269772 
L 208.589916 271.898192 
L 208.858893 280.083505 
L 208.993381 283.797702 
L 209.127869 284.391002 
L 209.262357 283.837999 
L 209.396846 277.88606 
L 209.531334 279.001775 
L 209.80031 278.579862 
L 209.934799 279.587308 
L 210.203775 267.203739 
L 211.010704 109.500404 
L 211.279681 135.548332 
L 211.683145 169.19944 
L 212.221098 258.295979 
L 212.355586 260.800755 
L 212.759051 276.295024 
L 212.893539 276.08431 
L 213.028027 276.186269 
L 213.162516 278.879425 
L 213.431492 260.880865 
L 213.56598 222.166312 
L 213.834957 136.848544 
L 213.969445 141.510467 
L 214.103933 140.401064 
L 214.238421 143.411748 
L 214.910862 182.372457 
L 215.448815 264.008559 
L 215.583303 269.057924 
L 215.717792 269.686182 
L 216.121256 274.020382 
L 216.255745 274.993842 
L 216.390233 277.42482 
L 216.524721 273.348914 
L 216.659209 265.703495 
L 217.062674 150.714878 
L 217.197162 152.659369 
L 217.33165 152.741421 
L 217.466138 164.4006 
L 217.600627 163.095048 
L 217.735115 151.039203 
L 217.869603 156.358515 
L 218.273068 199.265012 
L 218.542044 259.083 
L 218.811021 276.166363 
L 218.945509 268.621445 
L 219.483462 279.523705 
L 219.61795 281.352643 
L 219.886926 267.368329 
L 220.290391 164.054913 
L 220.693856 152.196187 
L 220.828344 163.041641 
L 220.962832 159.054099 
L 221.231808 186.670244 
L 221.500785 200.772054 
L 221.769761 258.944142 
L 222.038738 274.843332 
L 222.173226 274.077673 
L 222.307714 275.323507 
L 222.576691 281.477421 
L 222.845667 284.161353 
L 222.980155 282.460591 
L 223.114643 284.365755 
L 223.38362 263.463324 
L 223.518108 267.394061 
L 223.652596 267.234812 
L 223.921573 260.154048 
L 224.190549 259.469956 
L 224.325037 262.001921 
L 224.459525 261.362497 
L 224.728502 257.436615 
L 225.131967 264.831994 
L 225.266455 263.320097 
L 225.535431 264.817914 
L 225.669919 263.482259 
L 226.073384 273.420285 
L 226.34236 276.504282 
L 226.476849 276.430969 
L 226.745825 273.228991 
L 226.880313 275.553156 
L 227.014802 275.800769 
L 227.14929 275.498293 
L 227.283778 274.052912 
L 227.418266 275.760471 
L 227.552754 275.891561 
L 227.687243 275.719202 
L 227.956219 274.589892 
L 228.090707 280.513186 
L 228.225195 280.552999 
L 228.359684 281.675026 
L 228.494172 280.888005 
L 228.62866 281.877001 
L 228.763148 281.760477 
L 228.897637 279.43 
L 229.301101 280.350539 
L 229.435589 274.021839 
L 229.570078 259.677757 
L 230.242519 95.254396 
L 230.377007 80.142713 
L 230.511495 110.67778 
L 230.780471 118.776185 
L 231.049448 146.754039 
L 231.587401 257.479341 
L 231.856377 268.910327 
L 232.125354 273.814038 
L 232.39433 278.557043 
L 232.528818 277.728267 
L 232.797795 260.307471 
L 232.932283 223.365051 
L 233.201259 134.592837 
L 233.335748 126.265753 
L 233.470236 136.752897 
L 233.604724 136.979148 
L 233.739212 150.007967 
L 233.8737 134.998243 
L 234.008189 141.845473 
L 234.815118 268.317998 
L 234.949606 268.046594 
L 235.218583 274.059709 
L 235.622047 281.940603 
L 235.756535 281.331766 
L 236.025512 268.441319 
L 236.563465 130.360595 
L 236.832441 117.923134 
L 237.63937 203.164191 
L 237.908347 262.310224 
L 238.177323 270.548458 
L 238.849764 285.742193 
L 238.984252 284.90225 
L 239.118741 281.03366 
L 239.253229 266.876501 
L 239.791182 129.576486 
L 240.194646 147.639135 
L 240.463623 167.119004 
L 240.732599 180.824147 
L 241.270552 259.731649 
L 241.674017 265.715633 
L 241.942993 278.897875 
L 242.077481 285.517399 
L 242.21197 284.879917 
L 242.480946 266.580336 
L 242.884411 152.777835 
L 243.018899 160.795159 
L 243.153387 158.506923 
L 243.287875 147.325977 
L 243.422363 155.453999 
L 243.556852 152.590426 
L 243.825828 169.537844 
L 244.229293 242.855116 
L 244.498269 265.653972 
L 244.767246 271.024264 
L 245.17071 279.026537 
L 245.305198 279.907263 
L 245.439687 279.606243 
L 245.574175 278.355068 
L 245.708663 266.689092 
L 245.843151 272.237082 
L 246.112128 269.200666 
L 246.381104 263.926992 
L 246.515592 263.893006 
L 247.188033 274.322373 
L 247.322522 274.735062 
L 247.45701 275.61773 
L 247.591498 275.256991 
L 247.725986 278.477418 
L 247.860475 277.013588 
L 248.129451 278.360894 
L 248.263939 277.461719 
L 248.398427 278.156492 
L 248.532916 278.000642 
L 248.667404 279.980576 
L 248.801892 279.880074 
L 249.205357 281.446348 
L 249.339845 281.564814 
L 249.608821 280.599608 
L 249.743309 280.733611 
L 249.877798 280.428221 
L 250.550239 277.206338 
L 250.819215 277.511727 
L 250.953703 278.304089 
L 251.088192 277.148076 
L 251.357168 278.427896 
L 251.491656 287.481796 
L 251.626144 286.983657 
L 251.760633 287.421592 
L 251.895121 287.258944 
L 252.164097 274.801577 
L 252.70205 145.176113 
L 252.836538 165.253652 
L 252.971027 161.749684 
L 253.240003 174.882403 
L 253.374491 176.258841 
L 253.508979 173.282629 
L 253.777956 206.671558 
L 254.046932 258.919381 
L 254.315909 280.61563 
L 254.719373 289.115557 
L 254.853862 288.871343 
L 255.122838 290.634737 
L 255.391814 269.509939 
L 255.660791 174.669262 
L 255.795279 178.176143 
L 256.198744 162.232286 
L 256.333232 165.969302 
L 256.46772 163.258667 
L 256.602208 164.47537 
L 257.409138 261.199849 
L 257.812602 268.800601 
L 258.081579 284.270109 
L 258.216067 285.352324 
L 258.350555 284.610455 
L 258.619532 270.195002 
L 258.888508 179.556465 
L 259.022996 180.44059 
L 259.157484 171.231324 
L 259.291973 170.645792 
L 259.426461 154.893713 
L 259.695437 168.830448 
L 259.829925 157.50676 
L 259.964414 166.736418 
L 260.771343 264.323173 
L 261.040319 266.600243 
L 261.309296 274.228669 
L 261.443784 277.498133 
L 261.71276 274.533573 
L 261.847249 261.928609 
L 262.116225 172.248965 
L 262.250713 176.488005 
L 262.654178 149.602561 
L 262.788666 157.029012 
L 262.923154 152.176766 
L 263.326619 187.931614 
L 263.461107 199.017399 
L 263.864572 248.633241 
L 264.268036 266.987199 
L 264.402525 266.216685 
L 264.671501 269.705602 
L 264.805989 269.577426 
L 264.940478 268.610278 
L 265.074966 260.911938 
L 265.209454 241.466541 
L 265.612919 125.20393 
L 265.881895 106.780058 
L 266.016383 116.445223 
L 266.150871 116.312192 
L 266.28536 115.856292 
L 266.419848 120.567253 
L 266.688824 158.482647 
L 266.957801 238.650063 
L 267.226777 255.602336 
L 267.361265 254.155499 
L 267.495754 270.805296 
L 267.630242 270.483884 
L 267.76473 272.385165 
L 267.899218 272.701721 
L 268.168195 279.334839 
L 268.302683 280.234986 
L 268.437171 277.629222 
L 268.706147 280.209254 
L 268.975124 276.654306 
L 269.2441 274.737004 
L 269.916541 259.993828 
L 270.320006 261.915985 
L 270.588982 266.887183 
L 270.723471 281.228351 
L 270.857959 282.286291 
L 270.992447 280.782648 
L 271.126935 281.681338 
L 271.261424 281.71144 
L 271.395912 281.522089 
L 271.799376 284.347791 
L 271.933865 282.938338 
L 272.068353 283.299562 
L 272.202841 282.64363 
L 272.337329 282.883961 
L 272.471817 282.026054 
L 272.606306 279.822783 
L 272.740794 281.12785 
L 272.875282 280.799641 
L 273.00977 280.110694 
L 273.144258 277.73555 
L 273.278747 277.634077 
L 273.547723 280.664667 
L 273.682211 280.882664 
L 273.8167 281.578408 
L 273.951188 280.701567 
L 274.085676 291.539738 
L 274.354652 293.201174 
L 274.489141 291.601399 
L 274.758117 276.619349 
L 275.29607 168.20219 
L 275.565046 155.743852 
L 275.699535 156.087112 
L 275.834023 174.3663 
L 275.968511 176.689494 
L 276.102999 187.030011 
L 276.77544 267.785872 
L 277.447881 285.502833 
L 277.58237 288.961163 
L 277.716858 288.56304 
L 277.851346 284.084641 
L 277.985834 273.919395 
L 278.389299 212.309854 
L 278.523787 192.469246 
L 278.658275 190.434449 
L 278.792763 180.745494 
L 278.927252 193.097018 
L 279.06174 187.170326 
L 279.196228 189.299313 
L 279.330716 197.13554 
L 280.137646 278.348271 
L 280.272134 280.778278 
L 280.406622 272.269126 
L 280.54111 271.979759 
L 280.810087 273.172186 
L 280.944575 272.537617 
L 281.213551 264.473683 
L 281.348039 234.993643 
L 281.482528 163.236819 
L 281.617016 152.840952 
L 281.751504 129.012317 
L 281.885992 130.185323 
L 282.154969 143.943388 
L 282.289457 125.493783 
L 282.423945 129.657082 
L 282.558433 138.934806 
L 282.82741 188.271961 
L 283.096386 258.09012 
L 283.365363 264.84219 
L 283.499851 267.090128 
L 283.634339 266.406522 
L 283.768827 266.417203 
L 283.903316 266.609953 
L 284.037804 267.93881 
L 284.172292 268.070385 
L 284.441268 262.781174 
L 285.113709 145.378573 
L 285.248198 144.282763 
L 285.382686 139.662108 
L 285.517174 149.07432 
L 285.651662 145.916039 
L 285.78615 149.46953 
L 286.055127 203.579307 
L 286.324103 254.069563 
L 286.59308 263.926021 
L 286.727568 263.802214 
L 286.862056 283.089334 
L 286.996544 283.149538 
L 287.131033 282.153745 
L 287.265521 282.77035 
L 287.668985 279.178989 
L 287.803474 280.072338 
L 288.07245 279.181416 
L 288.206938 276.970377 
L 288.341427 276.914057 
L 288.475915 274.524833 
L 288.610403 274.147102 
L 288.744891 273.002741 
L 288.879379 275.882336 
L 289.013868 276.228023 
L 289.148356 273.366392 
L 289.417332 280.651073 
L 289.55182 281.859522 
L 289.820797 281.491501 
L 289.955285 282.296001 
L 290.089773 280.769539 
L 290.224262 282.344552 
L 290.35875 281.421101 
L 290.493238 282.418836 
L 290.627726 280.849163 
L 291.031191 262.545699 
L 291.300167 195.162403 
L 291.434655 189.477012 
L 291.569144 190.095559 
L 291.703632 194.232154 
L 291.972608 181.256742 
L 292.376073 194.572987 
L 293.048514 272.348265 
L 293.183002 273.617404 
L 293.31749 272.444883 
L 293.451979 273.210056 
L 293.586467 272.263786 
L 293.720955 274.783613 
L 293.855443 275.051618 
L 294.258908 250.698626 
L 294.527884 191.662804 
L 294.796861 159.408526 
L 294.931349 143.252984 
L 295.065837 143.116554 
L 295.200325 151.232438 
L 295.334814 145.40916 
L 295.60379 173.973032 
L 295.738278 188.724947 
L 296.141743 260.194831 
L 296.276231 259.288859 
L 296.410719 266.617236 
L 296.545208 284.613854 
L 296.948672 286.816154 
L 297.486625 288.81648 
L 297.621113 288.464966 
L 297.755601 288.461082 
L 298.024578 285.232401 
L 298.159066 285.079464 
L 298.428042 282.900468 
L 298.697019 279.008573 
L 298.831507 277.85353 
L 298.965995 277.708847 
L 299.100484 278.070556 
L 299.36946 281.920212 
L 299.503948 281.405079 
L 299.638436 282.974752 
L 299.772925 273.150338 
L 299.907413 276.61061 
L 300.041901 276.303764 
L 300.176389 277.184975 
L 300.310877 276.896578 
L 300.579854 265.738937 
L 301.252295 129.349751 
L 301.386783 129.419665 
L 301.521271 142.836897 
L 301.65576 135.776525 
L 301.790248 145.351869 
L 302.597177 256.008228 
L 302.731665 257.791042 
L 303.000642 270.410571 
L 303.13513 270.638764 
L 303.269618 271.127193 
L 303.404106 273.628571 
L 303.538595 274.054854 
L 303.807571 257.417195 
L 304.345524 166.108645 
L 304.6145 155.406418 
L 304.748988 163.784481 
L 304.883477 154.047945 
L 305.017965 160.231961 
L 306.093871 268.835558 
L 306.228359 269.863395 
L 306.497335 280.191775 
L 306.766312 281.239033 
L 306.9008 276.450389 
L 307.035288 265.731655 
L 307.304265 171.67994 
L 307.438753 179.065123 
L 307.842217 159.475527 
L 307.976706 166.646597 
L 308.111194 158.084524 
L 308.245682 163.131462 
L 308.649147 209.91626 
L 309.052611 267.240638 
L 309.590564 279.679556 
L 309.994029 281.411876 
L 310.128517 277.798182 
L 310.263005 264.967453 
L 310.531982 171.566815 
L 310.66647 172.73788 
L 310.935446 170.409831 
L 311.069934 160.899545 
L 311.204423 167.464691 
L 311.338911 166.151856 
L 311.473399 159.262871 
L 311.607887 172.622812 
L 311.876864 210.838741 
L 312.14584 253.886038 
L 312.414817 265.89236 
L 312.818281 274.649611 
L 312.952769 274.208277 
L 313.087258 276.126065 
L 313.221746 276.025563 
L 313.356234 277.629222 
L 313.625211 266.893494 
L 313.759699 258.867916 
L 313.894187 262.277694 
L 314.028675 259.705917 
L 314.163163 261.621277 
L 314.297652 258.814024 
L 314.566628 265.488897 
L 314.701116 266.236106 
L 314.970093 271.070388 
L 315.104581 271.032032 
L 315.239069 270.730526 
L 315.508045 273.713051 
L 315.642534 274.259256 
L 315.777022 273.923279 
L 316.180487 276.964065 
L 316.314975 276.516905 
L 316.718439 278.911469 
L 316.852928 279.164909 
L 316.987416 278.296806 
L 317.121904 278.363322 
L 317.256392 277.224302 
L 317.39088 277.371413 
L 317.525369 275.80611 
L 317.659857 276.741213 
L 317.928833 274.17866 
L 318.332298 270.378042 
L 318.466786 271.043684 
L 318.601274 270.532436 
L 318.735763 272.013745 
L 318.870251 271.847213 
L 319.139227 272.982835 
L 319.273715 282.987861 
L 319.67718 284.125425 
L 319.811668 281.502182 
L 319.946157 273.41106 
L 320.349621 149.318534 
L 320.484109 132.889161 
L 320.887574 160.637852 
L 321.022062 165.384741 
L 321.291039 180.42214 
L 321.425527 182.253506 
L 321.560015 201.011899 
L 321.828991 257.497305 
L 321.96348 265.724372 
L 322.097968 266.524502 
L 322.635921 283.512704 
L 322.770409 283.865674 
L 322.904897 283.195176 
L 323.173874 272.583255 
L 323.44285 175.469878 
L 323.577338 175.837899 
L 323.711826 176.042786 
L 323.980803 155.517601 
L 324.249779 159.117702 
L 324.384268 161.931752 
L 324.787732 198.800374 
L 325.056709 254.264254 
L 325.325685 263.695886 
L 325.863638 281.825536 
L 325.998126 283.623401 
L 326.132614 283.689917 
L 326.267103 280.421424 
L 326.401591 271.267022 
L 326.670567 168.155095 
L 326.805055 174.213363 
L 326.939544 175.40579 
L 327.20852 161.951173 
L 327.343008 170.235045 
L 327.611985 166.416463 
L 327.746473 171.359986 
L 328.149937 226.999138 
L 328.418914 258.376089 
L 328.68789 271.407821 
L 328.822379 273.903373 
L 328.956867 284.122997 
L 329.225843 285.086261 
L 329.360331 284.22447 
L 329.629308 271.170889 
L 330.032772 180.621201 
L 330.301749 169.0868 
L 330.570725 160.126604 
L 330.839702 182.356921 
L 330.97419 183.590131 
L 331.108678 186.382819 
L 331.781119 263.574507 
L 332.050096 270.86113 
L 332.184584 281.821166 
L 332.319072 282.793655 
L 332.45356 282.117331 
L 332.588049 283.121863 
L 332.857025 270.296961 
L 333.26049 179.978864 
L 333.394978 181.921413 
L 333.663954 166.753896 
L 333.798442 167.966715 
L 333.932931 171.798406 
L 334.336395 189.96981 
L 334.73986 258.869373 
L 335.143325 274.868093 
L 335.277813 274.666118 
L 335.412301 274.765164 
L 335.546789 275.055502 
L 335.681277 274.948689 
L 335.950254 277.574844 
L 336.084742 275.4444 
L 336.622695 258.698957 
L 336.757183 259.507341 
L 336.891671 257.646844 
L 337.295136 264.11343 
L 337.698601 268.926835 
L 337.833089 268.439377 
L 338.102065 272.608987 
L 338.236553 272.373027 
L 338.371042 273.02119 
L 338.50553 270.646047 
L 339.043483 273.858705 
L 339.446947 276.905803 
L 339.581436 276.415918 
L 339.715924 275.226889 
L 339.850412 275.490524 
L 339.9849 274.697191 
L 340.119388 274.58261 
L 340.253877 274.100978 
L 340.388365 275.603164 
L 340.522853 273.580505 
L 340.657341 274.189342 
L 340.926318 273.865503 
L 341.060806 270.47029 
L 341.329782 275.435176 
L 341.464271 275.331761 
L 341.598759 275.869227 
L 341.733247 277.462205 
L 341.867735 285.416897 
L 342.136712 285.520312 
L 342.2712 286.172845 
L 342.540176 273.262006 
L 342.943641 156.134207 
L 343.212617 173.02482 
L 343.347106 172.278096 
L 343.75057 186.90669 
L 343.885058 188.60988 
L 344.019547 187.935984 
L 344.423011 256.971977 
L 345.22994 283.100986 
L 345.364429 284.203107 
L 345.498917 283.82926 
L 345.633405 279.541184 
L 345.767893 271.319943 
L 346.03687 185.640465 
L 346.171358 189.82804 
L 346.440334 176.033562 
L 346.574823 170.571508 
L 346.843799 177.566335 
L 347.112775 179.466645 
L 347.381752 214.529632 
L 347.650728 254.098693 
L 348.054193 272.363802 
L 348.188681 273.565939 
L 348.323169 282.686356 
L 348.457658 283.548632 
L 348.592146 285.450883 
L 348.726634 285.252307 
L 348.99561 272.127841 
L 349.264587 184.57233 
L 349.399075 186.071118 
L 349.668052 168.217241 
L 349.80254 164.035978 
L 350.206004 183.046839 
L 350.340493 184.246549 
L 351.012934 265.777293 
L 351.147422 268.1369 
L 351.550886 285.080435 
L 351.685375 284.35653 
L 351.954351 284.729407 
L 352.088839 283.308787 
L 352.223328 275.897872 
L 352.492304 180.426995 
L 352.626792 187.71119 
L 352.76128 176.152513 
L 352.895769 175.432007 
L 353.030257 167.016075 
L 353.164745 174.346879 
L 353.299233 172.235371 
L 353.56821 154.164954 
L 354.240651 272.507515 
L 354.375139 273.664014 
L 354.644115 279.623721 
L 354.913092 283.968603 
L 355.182068 285.027999 
L 355.316556 282.585854 
L 355.451045 273.306674 
L 355.854509 198.791149 
L 356.123486 159.822671 
L 356.257974 161.564702 
L 356.392462 170.317097 
L 356.52695 169.673303 
L 356.661439 180.45467 
L 356.795927 179.182618 
L 357.33388 268.126219 
L 357.602856 277.88169 
L 357.737344 279.878617 
L 357.871832 284.204078 
L 358.006321 283.616119 
L 358.140809 283.834115 
L 358.275297 284.586179 
L 358.409785 284.496844 
L 358.678762 283.216539 
L 359.082226 264.444066 
L 359.351203 258.441148 
L 359.485691 252.066324 
L 359.620179 262.976837 
L 359.754667 264.41445 
L 359.889156 264.585352 
L 360.427109 279.110045 
L 360.561597 279.800935 
L 360.965061 284.016669 
L 361.234038 283.976371 
L 361.368526 283.78168 
L 361.503014 285.108595 
L 361.771991 284.694449 
L 361.906479 286.047097 
L 362.040967 285.998545 
L 362.175455 286.380161 
L 362.309944 286.42143 
L 362.57892 282.952418 
L 362.713408 282.90241 
L 362.982385 281.748824 
L 363.116873 280.231587 
L 363.251361 280.128172 
L 363.385849 281.237091 
L 363.520337 280.368988 
L 363.654826 280.308299 
L 364.05829 283.140799 
L 364.192778 256.700573 
L 364.730731 263.062288 
L 364.86522 261.847042 
L 364.999708 249.563489 
L 365.134196 227.040892 
L 365.403172 137.231616 
L 365.672149 106.428059 
L 365.806637 100.407176 
L 366.075613 117.637165 
L 366.34459 114.440043 
L 366.479078 126.064264 
L 367.017031 254.57984 
L 367.151519 259.622893 
L 367.286007 257.858529 
L 367.554984 269.410409 
L 367.689472 270.29162 
L 367.958448 275.273984 
L 368.227425 251.315231 
L 368.496401 153.741099 
L 368.765378 100.984455 
L 369.034354 89.89867 
L 369.168842 94.700422 
L 369.303331 94.248407 
L 369.437819 97.674207 
L 369.572307 95.516089 
L 369.706795 111.897881 
L 370.244748 237.834882 
L 370.782701 282.802394 
L 370.917189 283.112639 
L 371.051677 284.019582 
L 371.186166 283.736041 
L 371.455142 268.661743 
L 371.858607 173.793391 
L 372.127583 206.327812 
L 372.262071 202.197528 
L 372.396559 203.648735 
L 372.665536 192.777549 
L 372.800024 196.6374 
L 373.203489 237.026498 
L 373.472465 259.666104 
L 373.87593 281.223496 
L 374.010418 290.397319 
L 374.144906 290.248751 
L 374.279394 291.476136 
L 374.413883 290.964402 
L 374.682859 274.118456 
L 375.220812 183.177928 
L 375.489788 179.486065 
L 375.624277 179.712801 
L 375.893253 186.360971 
L 376.027741 190.731099 
L 376.565694 259.480152 
L 376.83467 268.523857 
L 376.969159 271.409278 
L 377.103647 283.425311 
L 377.238135 282.313479 
L 377.507112 284.422075 
L 377.6416 282.422235 
L 377.776088 286.022821 
L 378.045064 283.838485 
L 378.179553 274.030578 
L 378.314041 273.394067 
L 378.448529 266.170561 
L 378.583017 267.188688 
L 378.717505 266.255526 
L 378.851994 270.845108 
L 378.986482 270.071681 
L 379.12097 270.995618 
L 379.255458 273.192578 
L 379.389947 273.074112 
L 379.927899 282.489236 
L 380.062388 282.279008 
L 380.196876 282.702863 
L 380.331364 272.621125 
L 380.465852 273.311043 
L 380.869317 276.265893 
L 381.138293 265.179623 
L 381.272782 237.611059 
L 381.541758 161.712299 
L 381.810734 141.196339 
L 381.945223 142.815534 
L 382.214199 149.416123 
L 382.348687 141.286159 
L 382.752152 192.018202 
L 383.021128 261.214415 
L 383.155616 269.281747 
L 383.290105 269.955643 
L 383.424593 271.265565 
L 383.559081 266.250186 
L 383.693569 265.525796 
L 383.962546 265.87828 
L 384.097034 267.089643 
L 384.231522 265.274299 
L 384.36601 266.691034 
L 385.038451 150.497367 
L 385.17294 152.983694 
L 385.307428 168.385715 
L 385.576404 162.642062 
L 386.248845 264.110517 
L 386.921286 282.937853 
L 387.055775 282.108592 
L 387.190263 283.408803 
L 387.324751 282.705776 
L 387.459239 282.869881 
L 387.593727 284.385661 
L 387.728216 283.8011 
L 387.862704 285.14161 
L 387.997192 283.95161 
L 388.13168 285.57032 
L 388.266169 284.568701 
L 388.400657 282.547984 
L 388.535145 282.638775 
L 388.669633 281.964394 
L 388.804121 283.123806 
L 388.93861 280.527266 
L 389.207586 282.705776 
L 389.476562 289.515137 
L 389.611051 288.437777 
L 389.745539 289.26898 
L 389.880027 289.216059 
L 390.014515 274.044173 
L 390.149004 274.285474 
L 390.41798 274.307808 
L 390.552468 274.174776 
L 390.686956 268.576292 
L 390.821445 268.764673 
L 390.955933 259.75107 
L 391.224909 202.567006 
L 391.359397 170.616661 
L 391.493886 166.553864 
L 391.762862 177.443014 
L 391.89735 176.889526 
L 392.031839 169.53396 
L 392.166327 173.301078 
L 392.300815 182.445285 
L 392.569791 243.703798 
L 392.70428 270.473203 
L 392.973256 275.404588 
L 393.107744 276.074115 
L 393.376721 268.888479 
L 393.645697 274.711271 
L 393.780185 271.258282 
L 393.914673 272.66822 
L 394.049162 265.119419 
L 394.721603 148.409163 
L 394.990579 147.317723 
L 395.125067 146.889984 
L 395.259556 158.483618 
L 395.394044 159.369685 
L 395.931997 249.130895 
L 396.200973 262.990917 
L 396.335461 259.185444 
L 396.46995 284.413336 
L 396.604438 284.803691 
L 397.007902 287.894485 
L 397.276879 274.597661 
L 397.545855 199.533503 
L 397.680343 194.250604 
L 397.94932 170.443331 
L 398.083808 156.728964 
L 398.218296 169.706804 
L 398.352785 164.852616 
L 398.487273 167.920591 
L 398.487273 167.920591 
" clip-path="url(#p8536ff149d)" style="fill: none; stroke: #1f77b4; stroke-width: 1.5; stroke-linecap: square"/>
   </g>
   <g id="line2d_13">
    <path d="M 73.832727 283.784476 
L 73.967215 283.797235 
L 74.236192 282.954282 
L 74.37068 281.171509 
L 74.505168 283.512062 
L 74.639657 282.474354 
L 74.774145 283.653194 
L 74.908633 269.994019 
L 75.043121 216.785727 
L 75.312098 250.553892 
L 75.446586 254.794589 
L 75.581074 251.856537 
L 75.715562 253.0987 
L 75.85005 249.982026 
L 75.984539 249.752033 
L 76.388003 244.846483 
L 76.522492 287.049993 
L 76.65698 286.87727 
L 77.060444 275.41034 
L 77.194933 259.171349 
L 77.329421 268.999466 
L 77.463909 269.423499 
L 77.598397 270.442753 
L 77.732885 272.753395 
L 77.867374 261.753619 
L 78.001862 238.009279 
L 78.270838 125.20843 
L 78.405327 97.680032 
L 78.674303 107.522314 
L 78.808791 107.336972 
L 78.943279 117.715917 
L 79.077768 113.028056 
L 80.019185 262.604384 
L 80.288161 272.828163 
L 80.42265 263.620257 
L 80.557138 279.418592 
L 80.691626 273.84724 
L 80.826114 276.131074 
L 80.960603 275.058807 
L 81.095091 269.954972 
L 81.229579 250.729955 
L 81.498555 144.183145 
L 81.633044 175.663294 
L 81.90202 158.090516 
L 82.036508 176.006452 
L 82.305485 171.043237 
L 82.439973 169.387506 
L 82.708949 238.766154 
L 82.843438 236.125614 
L 83.112414 266.479015 
L 83.246902 269.639913 
L 83.38139 276.094186 
L 83.515879 273.465115 
L 83.784855 295.006019 
L 83.919343 289.925874 
L 84.053831 289.681088 
L 84.18832 288.715191 
L 84.322808 285.209262 
L 84.457296 273.110638 
L 84.726273 176.428486 
L 84.995249 181.267902 
L 85.129737 189.630767 
L 85.264225 169.328028 
L 85.533202 189.669463 
L 85.802178 208.021339 
L 85.936666 219.207167 
L 86.205643 264.900933 
L 86.340131 263.20351 
L 86.474619 272.383912 
L 86.609107 271.504914 
L 86.743596 275.798274 
L 87.012572 294.989109 
L 87.14706 293.385696 
L 87.281549 289.556505 
L 87.416037 291.05717 
L 87.550525 290.501192 
L 87.685013 288.992147 
L 87.95399 243.231947 
L 88.088478 261.915267 
L 88.222966 256.340248 
L 88.357454 263.315513 
L 88.626431 253.812836 
L 88.760919 260.280151 
L 88.895407 243.22092 
L 89.029895 255.338341 
L 89.164384 253.950034 
L 89.298872 259.4829 
L 89.43336 283.127614 
L 89.567848 284.537362 
L 89.702336 282.582837 
L 89.836825 278.639865 
L 89.971313 279.77254 
L 90.105801 249.788621 
L 90.374777 265.691657 
L 90.643754 268.437128 
L 90.778242 267.86032 
L 90.91273 271.478325 
L 91.047218 262.823342 
L 91.181707 244.16761 
L 91.316195 253.22555 
L 91.450683 244.296962 
L 91.585171 258.819171 
L 91.71966 252.614441 
L 91.854148 256.511626 
L 91.988636 254.148225 
L 92.123124 255.300319 
L 92.257612 258.551601 
L 92.392101 256.288831 
L 92.930053 271.176375 
L 93.064542 270.264689 
L 93.19903 266.62413 
L 93.333518 284.363887 
L 93.602495 278.070578 
L 93.736983 278.628565 
L 94.005959 271.935081 
L 94.140447 263.345454 
L 94.409424 169.253431 
L 94.543912 185.03593 
L 94.812888 158.727059 
L 94.947377 159.526552 
L 95.216353 176.670581 
L 95.350841 171.518539 
L 95.48533 161.673432 
L 95.754306 243.432526 
L 96.023282 267.451384 
L 96.292259 272.770122 
L 96.426747 271.415273 
L 96.561235 272.432478 
L 96.695723 270.31867 
L 96.830212 270.024808 
L 96.9647 273.226662 
L 97.233676 268.421221 
L 97.368164 252.479835 
L 97.637141 167.561962 
L 97.771629 188.423793 
L 97.906117 174.236529 
L 98.040606 189.678038 
L 98.175094 181.72897 
L 98.44407 183.020422 
L 98.578558 189.829077 
L 99.385488 273.572855 
L 99.519976 278.910091 
L 99.654464 276.073823 
L 99.788952 289.541944 
L 100.057929 281.234553 
L 100.192417 281.695386 
L 100.326905 283.069927 
L 100.461393 282.927725 
L 100.595882 281.437239 
L 100.73037 281.587103 
L 100.864858 282.969063 
L 100.999346 280.917756 
L 101.133834 285.581297 
L 101.268323 284.076034 
L 101.402811 280.436937 
L 101.537299 266.456724 
L 101.671787 279.74199 
L 101.806276 262.55595 
L 101.940764 261.648188 
L 102.075252 268.274756 
L 102.20974 268.743975 
L 102.344228 269.942455 
L 102.478717 273.583115 
L 102.613205 282.645587 
L 102.747693 275.866362 
L 102.882181 285.307746 
L 103.016669 256.732585 
L 103.285646 274.857878 
L 103.420134 274.066543 
L 103.823599 259.064774 
L 103.958087 225.64962 
L 104.092575 162.735257 
L 104.227063 171.745493 
L 104.361552 153.311987 
L 104.49604 170.320995 
L 104.765016 144.877316 
L 104.899504 164.598325 
L 105.033993 164.222825 
L 105.302969 195.798539 
L 105.706434 265.855411 
L 105.840922 262.536171 
L 105.97541 262.022927 
L 106.109898 271.544166 
L 106.244387 291.371949 
L 106.647851 282.317189 
L 106.782339 286.198895 
L 106.916828 284.825486 
L 107.051316 286.345456 
L 107.320292 221.608992 
L 107.589269 266.076075 
L 107.723757 256.173253 
L 107.858245 255.313634 
L 107.992733 252.477383 
L 108.127222 252.360963 
L 108.530686 242.857728 
L 108.665174 249.824371 
L 108.934151 287.430985 
L 109.337615 277.965091 
L 109.472104 269.768042 
L 109.74108 275.721455 
L 109.875568 277.408379 
L 110.010056 276.928356 
L 110.279033 278.09774 
L 110.413521 274.980567 
L 110.548009 274.810268 
L 110.682498 276.746536 
L 111.085962 273.745698 
L 111.22045 276.243943 
L 111.758403 264.085334 
L 112.161868 273.357701 
L 112.296356 273.134297 
L 112.430844 273.134607 
L 112.565333 273.626607 
L 112.699821 253.265621 
L 112.968797 267.889717 
L 113.237774 270.64056 
L 113.372262 269.77661 
L 113.50675 273.365882 
L 113.641238 271.796281 
L 113.775726 272.926331 
L 113.910215 268.820393 
L 114.044703 271.070973 
L 114.179191 268.014489 
L 114.313679 259.750499 
L 114.448168 261.665512 
L 114.582656 261.349236 
L 114.851632 251.659039 
L 114.98612 245.597194 
L 115.120609 246.004787 
L 115.389585 262.455115 
L 115.524073 263.421652 
L 115.79305 262.089416 
L 116.062026 264.120565 
L 116.196514 260.900171 
L 116.331002 272.345347 
L 116.465491 268.16831 
L 116.599979 268.798869 
L 116.734467 248.74016 
L 117.003444 126.218447 
L 117.27242 80.000847 
L 117.406908 82.824982 
L 117.541396 76.792099 
L 117.675885 79.398235 
L 117.810373 92.274849 
L 118.617302 231.479277 
L 118.886279 254.29633 
L 119.020767 255.539636 
L 119.289743 260.62064 
L 119.424231 258.432575 
L 119.55872 259.432928 
L 119.693208 262.488072 
L 119.827696 260.973719 
L 119.962184 242.210149 
L 120.231161 119.810205 
L 120.500137 92.896006 
L 120.903602 87.960454 
L 121.03809 90.151426 
L 121.172578 105.246136 
L 121.307066 136.887568 
L 121.441555 140.914988 
L 121.710531 230.936448 
L 121.845019 223.939874 
L 121.979507 244.235017 
L 122.113996 241.479967 
L 122.382972 252.012917 
L 122.51746 267.132071 
L 122.786437 261.656594 
L 122.920925 262.124836 
L 123.055413 257.592443 
L 123.189901 242.766988 
L 123.458878 124.152742 
L 123.593366 89.112292 
L 123.727854 84.162938 
L 123.862342 85.356509 
L 123.996831 79.577019 
L 124.400295 144.663793 
L 124.534783 145.956804 
L 124.669272 149.306217 
L 124.938248 224.053466 
L 125.072736 233.255693 
L 125.207225 260.372148 
L 125.341713 260.576177 
L 125.476201 262.051954 
L 125.610689 259.415767 
L 125.745177 273.912842 
L 126.148642 270.471174 
L 126.28313 251.867148 
L 126.417618 249.209247 
L 126.686595 130.767015 
L 126.955571 91.012659 
L 127.09006 84.20122 
L 127.493524 116.958286 
L 127.896989 155.011633 
L 128.434942 259.900393 
L 128.703918 258.54046 
L 128.838406 266.743674 
L 128.972894 262.492053 
L 129.241871 268.742101 
L 129.376359 268.228469 
L 129.645336 233.100304 
L 129.914312 119.398147 
L 130.0488 87.707945 
L 130.183288 86.058338 
L 130.317777 88.596026 
L 130.452265 97.872625 
L 130.586753 144.000036 
L 130.855729 131.054011 
L 131.124706 171.364965 
L 131.393682 238.119687 
L 131.662659 262.915673 
L 131.797147 265.744452 
L 131.931635 265.37293 
L 132.200612 259.036944 
L 132.469588 276.805148 
L 132.738564 270.777013 
L 132.873053 269.548811 
L 133.007541 252.156341 
L 133.142029 251.781732 
L 133.276517 243.289223 
L 133.411005 244.625204 
L 133.679982 239.893815 
L 133.81447 243.128407 
L 133.948958 242.679051 
L 134.083447 235.025277 
L 134.352423 246.844835 
L 134.621399 252.937607 
L 134.755888 258.695184 
L 134.890376 258.259124 
L 135.024864 255.850423 
L 135.697305 267.966416 
L 135.831793 269.476759 
L 135.966282 276.050223 
L 136.10077 274.009773 
L 136.235258 267.643455 
L 136.369746 271.198833 
L 136.504234 271.440397 
L 136.638723 264.776448 
L 136.773211 268.077779 
L 136.907699 266.044778 
L 137.042187 265.98359 
L 137.311164 248.086444 
L 137.58014 254.562206 
L 137.714628 250.421163 
L 137.983605 260.83529 
L 138.118093 261.971988 
L 138.252581 258.702231 
L 138.387069 261.739016 
L 138.521558 268.497116 
L 138.656046 263.475219 
L 138.790534 263.648498 
L 139.05951 269.939458 
L 139.328487 241.635444 
L 139.597463 119.617963 
L 139.86644 81.606443 
L 140.135416 84.206939 
L 140.404393 112.153711 
L 140.673369 156.00396 
L 140.807857 155.474412 
L 140.942345 175.232646 
L 141.076834 237.801518 
L 141.480298 262.011791 
L 141.749275 266.823519 
L 141.883763 269.584514 
L 142.018251 267.416429 
L 142.152739 268.19607 
L 142.287228 265.915735 
L 142.556204 229.700719 
L 142.82518 117.049788 
L 142.959669 89.760118 
L 143.094157 94.912854 
L 143.363133 90.682345 
L 143.497621 109.632348 
L 143.63211 97.629838 
L 143.766598 114.69236 
L 143.901086 158.922686 
L 144.035574 151.74399 
L 144.304551 235.205727 
L 144.439039 236.225505 
L 144.708015 265.610157 
L 144.842504 270.263648 
L 145.11148 265.80031 
L 145.245968 266.634208 
L 145.380456 269.583462 
L 145.514945 260.377179 
L 145.649433 228.795065 
L 145.783921 234.41703 
L 146.052897 127.005426 
L 146.187386 93.317232 
L 146.321874 91.873655 
L 146.725339 131.73333 
L 146.859827 123.709376 
L 146.994315 138.410225 
L 147.128803 131.278536 
L 147.263291 147.825292 
L 147.532268 243.342956 
L 147.935732 267.731676 
L 148.070221 267.320484 
L 148.204709 269.424312 
L 148.339197 268.859855 
L 148.473685 267.109062 
L 148.608174 267.214163 
L 148.742662 265.207113 
L 148.87715 265.091084 
L 149.011638 230.110879 
L 149.280615 123.588502 
L 149.415103 102.925555 
L 149.549591 114.079362 
L 149.684079 109.338989 
L 149.818567 112.305295 
L 150.222032 157.443441 
L 150.35652 143.859665 
L 150.491009 155.926315 
L 150.759985 248.201063 
L 150.894473 249.850755 
L 151.16345 268.847445 
L 151.432426 266.863953 
L 151.566914 267.253095 
L 151.701402 270.139519 
L 151.835891 269.975165 
L 151.970379 270.86502 
L 152.104867 267.393307 
L 152.64282 100.005358 
L 152.777308 115.996161 
L 152.911796 113.85823 
L 153.046285 106.731814 
L 153.180773 129.309054 
L 153.315261 123.870052 
L 153.449749 173.112888 
L 153.584237 178.37249 
L 153.853214 221.724879 
L 154.12219 262.950524 
L 154.256678 272.935278 
L 154.525655 276.378419 
L 154.660143 273.520075 
L 154.794631 274.655757 
L 154.92912 274.179402 
L 155.063608 275.602423 
L 155.332584 279.993081 
L 155.467072 277.453889 
L 155.601561 267.434158 
L 155.736049 249.05865 
L 155.870537 260.676799 
L 156.005025 259.352142 
L 156.139513 266.108561 
L 156.40849 260.942234 
L 156.542978 261.201098 
L 156.677466 261.973952 
L 156.811955 258.845362 
L 157.080931 264.064352 
L 157.484396 272.426345 
L 157.618884 268.729743 
L 157.753372 269.93743 
L 158.022348 274.352048 
L 158.156837 274.044357 
L 158.291325 275.276681 
L 158.694789 282.529317 
L 158.829278 276.942624 
L 158.963766 278.797061 
L 159.098254 278.166982 
L 159.232742 274.46929 
L 159.367231 274.266094 
L 159.501719 276.843822 
L 159.636207 273.77999 
L 159.905183 258.111852 
L 160.039672 262.580452 
L 160.17416 255.69977 
L 160.443136 260.816298 
L 160.577624 271.972888 
L 160.846601 263.734902 
L 160.981089 265.252611 
L 161.250066 273.131068 
L 161.384554 272.120934 
L 161.519042 271.702219 
L 161.65353 271.983871 
L 161.922507 242.286153 
L 162.325971 94.58036 
L 162.460459 86.281888 
L 162.594948 94.032754 
L 162.729436 92.915564 
L 162.863924 90.049798 
L 162.998412 127.739211 
L 163.132901 129.347424 
L 163.267389 139.733497 
L 163.536365 191.198928 
L 163.670853 238.620041 
L 163.805342 241.464278 
L 164.208806 265.732442 
L 164.343294 264.270796 
L 164.477783 277.754718 
L 164.612271 275.006401 
L 164.746759 276.49345 
L 165.150224 240.153879 
L 165.4192 129.863281 
L 165.553688 101.325992 
L 165.688177 122.973747 
L 165.957153 110.810157 
L 166.091641 130.036539 
L 166.360618 110.982677 
L 166.495106 113.492315 
L 166.629594 125.520157 
L 166.89857 239.202666 
L 167.033059 238.838523 
L 167.167547 237.698178 
L 167.436523 257.38105 
L 167.974476 268.517702 
L 168.108964 268.693965 
L 168.243453 256.113307 
L 168.377941 231.4868 
L 168.781405 92.455974 
L 168.915894 109.797853 
L 169.050382 102.997164 
L 169.18487 107.142484 
L 169.319358 123.292365 
L 169.453847 95.430707 
L 169.588335 109.943588 
L 169.857311 161.878958 
L 169.991799 182.203075 
L 170.126288 239.124046 
L 170.260776 246.057939 
L 170.395264 263.168041 
L 170.529752 262.878007 
L 170.798729 267.788543 
L 170.933217 264.210955 
L 171.202193 266.381832 
L 171.336681 270.603536 
L 171.47117 240.566415 
L 171.605658 235.714916 
L 171.874634 126.465422 
L 172.009123 94.543378 
L 172.278099 112.482365 
L 172.412587 100.351378 
L 172.547075 104.693274 
L 172.95054 150.108309 
L 173.085028 154.059381 
L 173.354005 244.806518 
L 173.488493 248.196525 
L 173.757469 265.808432 
L 173.891958 271.851129 
L 174.026446 286.923288 
L 174.295422 277.362701 
L 174.42991 277.009947 
L 174.564399 278.854349 
L 174.967863 223.35905 
L 175.102351 166.98017 
L 175.23684 161.836589 
L 175.505816 140.88476 
L 175.640304 143.667669 
L 175.774792 155.987943 
L 175.909281 153.9791 
L 176.178257 177.155504 
L 176.312745 173.644154 
L 176.447234 196.729684 
L 176.581722 254.147105 
L 176.850698 266.123183 
L 176.985186 272.284048 
L 177.119675 268.551724 
L 177.254163 269.248717 
L 177.388651 270.775473 
L 177.523139 269.389737 
L 177.792116 276.970225 
L 177.926604 276.86414 
L 178.061092 276.993019 
L 178.19558 260.693766 
L 178.330069 258.907396 
L 178.464557 264.257963 
L 178.599045 254.119281 
L 178.733533 258.051609 
L 178.868021 258.197249 
L 179.00251 263.86493 
L 179.271486 253.610698 
L 179.405974 255.950098 
L 179.540462 253.025574 
L 179.674951 253.665325 
L 179.943927 266.272319 
L 180.078415 275.690673 
L 180.347392 266.75873 
L 180.48188 280.660636 
L 180.616368 279.802309 
L 180.885345 276.797315 
L 181.019833 278.168367 
L 181.154321 277.882047 
L 181.557786 262.582875 
L 181.692274 268.983766 
L 181.826762 266.430292 
L 181.96125 270.585614 
L 182.095738 259.252523 
L 182.364715 270.798366 
L 182.499203 270.90041 
L 182.633691 270.315861 
L 182.76818 275.303502 
L 183.037156 271.238297 
L 183.171644 279.694981 
L 183.306132 279.998142 
L 183.440621 280.908473 
L 183.709597 273.330584 
L 183.844085 291.411335 
L 183.978573 291.410118 
L 184.113062 289.926037 
L 184.24755 283.982848 
L 184.516526 268.467787 
L 184.785503 187.570563 
L 184.919991 190.370952 
L 185.054479 176.540856 
L 185.188967 186.098511 
L 185.323456 179.241814 
L 185.592432 189.183547 
L 185.72692 196.440972 
L 186.130385 247.261357 
L 186.399361 265.201148 
L 186.668338 276.818142 
L 186.802826 279.27338 
L 187.071802 295.316245 
L 187.206291 293.54499 
L 187.340779 288.567836 
L 187.475267 289.544448 
L 187.609755 284.357204 
L 187.744243 271.377853 
L 188.01322 192.107676 
L 188.147708 195.569944 
L 188.282196 182.360817 
L 188.416684 185.159814 
L 188.551173 185.571885 
L 188.685661 188.045727 
L 188.820149 199.684405 
L 188.954637 196.391945 
L 189.627078 271.26762 
L 190.030543 278.934693 
L 190.165031 270.935576 
L 190.299519 273.358185 
L 190.434008 273.381727 
L 190.568496 271.205622 
L 190.971961 276.403945 
L 191.106449 274.740487 
L 191.240937 267.241584 
L 191.509913 275.248397 
L 191.644402 268.171832 
L 191.77889 272.527688 
L 192.047866 268.512571 
L 192.182354 258.300544 
L 192.316843 258.45615 
L 192.451331 261.630615 
L 192.585819 261.441304 
L 192.720307 264.416865 
L 192.854796 274.099899 
L 193.392748 266.976357 
L 193.527237 266.35938 
L 193.796213 271.674039 
L 193.930701 271.825926 
L 194.199678 257.881871 
L 194.468654 176.766146 
L 194.73763 151.225693 
L 194.872119 152.017994 
L 195.006607 146.075845 
L 195.141095 148.160232 
L 195.275583 158.484986 
L 195.410072 144.964003 
L 196.082513 266.874996 
L 196.217001 265.267627 
L 196.351489 268.727393 
L 196.485977 268.652318 
L 196.620465 280.429696 
L 196.754954 274.110411 
L 197.02393 272.364741 
L 197.158418 274.560275 
L 197.292907 270.636465 
L 197.427395 259.021644 
L 197.696371 177.935636 
L 197.830859 199.469872 
L 197.965348 193.654924 
L 198.099836 199.64014 
L 198.234324 195.792486 
L 198.368812 201.819323 
L 198.637789 190.649136 
L 199.31023 276.775378 
L 199.579206 282.341936 
L 199.713694 281.714928 
L 199.848183 285.722764 
L 199.982671 281.320517 
L 200.251647 281.947216 
L 200.386135 278.873549 
L 200.520624 268.746928 
L 200.655112 271.439063 
L 200.7896 245.860377 
L 200.924088 166.942441 
L 201.058576 207.942521 
L 201.193065 195.589167 
L 201.327553 203.668904 
L 201.462041 197.495141 
L 201.596529 203.26842 
L 201.731018 191.391844 
L 201.865506 192.167085 
L 202.26897 234.874639 
L 202.537947 274.80165 
L 202.672435 274.92355 
L 202.806923 278.618276 
L 202.941411 278.171127 
L 203.0759 263.741405 
L 203.210388 262.480826 
L 203.344876 272.698779 
L 203.479364 271.943146 
L 203.748341 260.045655 
L 203.882829 257.011639 
L 204.151805 165.13642 
L 204.286294 167.734132 
L 204.420782 161.82275 
L 204.55527 165.800279 
L 204.689758 165.190009 
L 204.824246 173.125442 
L 204.958735 165.752246 
L 205.093223 195.829678 
L 205.227711 193.822521 
L 205.765664 267.450413 
L 205.900152 268.830675 
L 206.03464 268.457944 
L 206.169129 270.563418 
L 206.303617 290.824154 
L 206.438105 284.70442 
L 206.84157 286.125898 
L 206.976058 285.42872 
L 207.379522 264.486194 
L 207.514011 265.36096 
L 207.782987 274.165375 
L 207.917475 278.424185 
L 208.051964 278.481137 
L 208.186452 275.005234 
L 208.455428 262.317079 
L 208.589916 268.282196 
L 208.724405 269.207243 
L 208.858893 279.271981 
L 208.993381 280.362302 
L 209.127869 284.463283 
L 209.396846 280.559315 
L 209.531334 269.452678 
L 209.665822 274.799231 
L 209.80031 274.961871 
L 209.934799 275.594986 
L 210.069287 277.088371 
L 210.203775 258.239751 
L 210.338263 258.51112 
L 210.60724 164.565315 
L 211.145192 115.115781 
L 211.414169 140.69139 
L 211.683145 169.076131 
L 212.221098 262.651374 
L 212.355586 263.222089 
L 212.490075 266.042187 
L 212.893539 278.296154 
L 213.162516 273.425039 
L 213.297004 277.717528 
L 213.56598 246.867663 
L 213.834957 134.41547 
L 213.969445 117.556057 
L 214.103933 140.840492 
L 214.238421 137.971698 
L 214.37291 140.800999 
L 215.045351 200.148717 
L 215.314327 264.52617 
L 215.448815 271.200337 
L 215.583303 267.420034 
L 215.717792 273.945335 
L 215.85228 269.260496 
L 216.121256 272.852806 
L 216.255745 271.9016 
L 216.390233 272.889915 
L 216.524721 276.428437 
L 216.793697 254.266336 
L 217.062674 144.783669 
L 217.197162 131.804765 
L 217.33165 151.295958 
L 217.466138 149.596855 
L 217.600627 159.117722 
L 217.735115 160.272094 
L 217.869603 150.180156 
L 218.811021 273.578414 
L 218.945509 280.211825 
L 219.079997 264.150797 
L 219.483462 277.184632 
L 219.752438 280.418268 
L 220.021414 254.526356 
L 220.290391 144.001602 
L 220.424879 149.392306 
L 220.559367 159.536825 
L 220.693856 151.646001 
L 220.828344 155.53168 
L 220.962832 170.244309 
L 221.09732 163.48307 
L 221.366297 207.289803 
L 221.500785 210.700408 
L 221.635273 219.208603 
L 221.769761 262.82123 
L 222.173226 279.560931 
L 222.307714 274.160776 
L 222.442202 273.899858 
L 222.711179 281.514352 
L 222.845667 281.356874 
L 222.980155 282.539754 
L 223.114643 278.381452 
L 223.249132 282.063872 
L 223.518108 250.332109 
L 223.652596 268.43986 
L 223.787084 269.032686 
L 224.056061 257.188629 
L 224.325037 259.095762 
L 224.459525 262.577263 
L 224.728502 255.846102 
L 224.86299 252.90356 
L 225.131967 263.837084 
L 225.266455 264.772062 
L 225.400943 260.398668 
L 225.535431 262.460285 
L 225.669919 262.536708 
L 225.804408 259.900057 
L 226.073384 269.655326 
L 226.207872 274.357338 
L 226.34236 273.817441 
L 226.476849 275.266761 
L 226.745825 269.53901 
L 226.880313 269.331321 
L 227.014802 276.973181 
L 227.14929 276.66849 
L 227.283778 275.310964 
L 227.418266 269.952837 
L 227.552754 272.684556 
L 227.687243 272.060483 
L 227.821731 272.408379 
L 227.956219 270.458907 
L 228.090707 270.946274 
L 228.225195 281.862379 
L 228.359684 279.087228 
L 228.494172 279.873897 
L 228.62866 277.159852 
L 228.763148 279.301818 
L 228.897637 278.645833 
L 229.032125 274.428064 
L 229.301101 277.482646 
L 229.435589 277.490403 
L 229.570078 265.415776 
L 229.704566 240.325479 
L 229.973542 132.58698 
L 230.10803 102.106526 
L 230.242519 99.702593 
L 230.377007 94.805278 
L 230.511495 83.572931 
L 230.645983 133.615437 
L 230.780471 135.389656 
L 230.91496 133.530023 
L 231.587401 258.764058 
L 231.721889 261.824941 
L 231.990865 272.936297 
L 232.125354 274.245061 
L 232.259842 273.285191 
L 232.528818 277.85288 
L 232.663306 274.649927 
L 232.932283 244.485369 
L 233.201259 136.968317 
L 233.335748 114.783201 
L 233.8737 148.0856 
L 234.008189 136.976087 
L 234.142677 151.20146 
L 234.411653 204.943754 
L 234.546141 214.414887 
L 234.815118 270.065759 
L 235.084094 272.052729 
L 235.218583 274.64489 
L 235.353071 273.319856 
L 235.622047 282.908606 
L 235.891024 277.911135 
L 236.16 256.844236 
L 236.428976 140.741807 
L 236.563465 114.937917 
L 236.697953 127.98825 
L 236.966929 119.881952 
L 237.101417 134.037384 
L 237.235906 161.699823 
L 237.370394 153.534111 
L 238.177323 271.875342 
L 238.311811 274.481163 
L 238.4463 274.864842 
L 238.580788 274.456598 
L 238.715276 277.37578 
L 238.984252 286.424733 
L 239.118741 282.238914 
L 239.253229 274.517856 
L 239.387717 248.078657 
L 239.656694 144.243055 
L 239.791182 125.405177 
L 239.92567 124.650357 
L 240.329135 146.385016 
L 240.463623 173.136971 
L 240.598111 176.674646 
L 240.867087 201.288044 
L 241.136064 259.362239 
L 241.270552 260.133693 
L 241.40504 265.499703 
L 241.539529 266.204865 
L 241.674017 267.532949 
L 241.808505 265.081456 
L 241.942993 282.364783 
L 242.077481 280.106452 
L 242.21197 288.113348 
L 242.346458 282.813638 
L 242.615434 249.991033 
L 242.884411 144.205933 
L 243.018899 135.878049 
L 243.153387 161.756503 
L 243.422363 146.236548 
L 243.556852 158.627823 
L 243.69134 157.322087 
L 243.960316 187.425201 
L 244.229293 240.614367 
L 244.498269 262.434303 
L 244.767246 274.171508 
L 244.901734 271.782274 
L 245.17071 279.316643 
L 245.305198 277.642817 
L 245.439687 277.797518 
L 245.708663 274.068824 
L 245.843151 251.384679 
L 245.97764 270.45919 
L 246.112128 266.701517 
L 246.246616 267.238 
L 246.515592 261.754728 
L 246.650081 263.582554 
L 247.053545 273.934454 
L 247.188033 268.411205 
L 247.322522 273.442175 
L 247.45701 272.509935 
L 247.591498 273.579903 
L 247.725986 272.020632 
L 247.860475 277.860425 
L 247.994963 273.509919 
L 248.263939 275.641337 
L 248.398427 273.866262 
L 248.532916 275.313609 
L 248.667404 274.775334 
L 248.801892 278.423311 
L 248.93638 277.127409 
L 249.070868 277.5247 
L 249.205357 277.000995 
L 249.474333 281.574441 
L 249.608821 281.662259 
L 249.743309 280.990046 
L 249.877798 281.539618 
L 250.146774 279.462027 
L 250.281262 274.553386 
L 250.415751 274.268513 
L 250.550239 274.532905 
L 250.684727 272.988409 
L 251.088192 275.860504 
L 251.22268 273.243824 
L 251.357168 275.655763 
L 251.491656 275.585733 
L 251.626144 290.994093 
L 251.895121 284.831001 
L 252.029609 283.356135 
L 252.298586 264.529707 
L 252.567562 150.30751 
L 252.70205 128.873709 
L 252.971027 160.757854 
L 253.105515 155.363888 
L 253.508979 180.541582 
L 253.643468 184.812696 
L 254.046932 265.036004 
L 254.181421 266.460589 
L 254.450397 284.539603 
L 254.584885 284.886785 
L 254.719373 284.306459 
L 254.853862 288.952049 
L 254.98835 286.476304 
L 255.122838 287.851999 
L 255.257326 287.51746 
L 255.526303 254.130468 
L 255.795279 155.999045 
L 256.064255 173.474999 
L 256.333232 162.982167 
L 256.46772 166.720349 
L 256.602208 166.787233 
L 256.736697 172.464786 
L 257.005673 225.213156 
L 257.140161 231.476684 
L 257.409138 258.104905 
L 257.543626 269.342971 
L 257.678114 268.059515 
L 257.812602 270.349088 
L 257.94709 268.85067 
L 258.081579 285.813319 
L 258.216067 286.795537 
L 258.485043 281.035907 
L 258.75402 257.206005 
L 259.022996 153.79724 
L 259.157484 169.854926 
L 259.291973 170.758302 
L 259.426461 167.026997 
L 259.560949 156.189493 
L 259.829925 182.240092 
L 259.964414 157.496562 
L 260.502366 249.969777 
L 260.905831 270.201496 
L 261.174808 266.59477 
L 261.309296 275.079438 
L 261.443784 274.040928 
L 261.578272 277.84868 
L 261.847249 269.699819 
L 261.981737 245.176917 
L 262.250713 148.096233 
L 262.385201 163.915773 
L 262.51969 165.300333 
L 262.654178 148.076576 
L 262.923154 160.558017 
L 263.057643 152.785342 
L 263.326619 194.528862 
L 263.864572 252.063287 
L 264.133548 262.150717 
L 264.268036 263.251103 
L 264.402525 272.804499 
L 264.537013 265.938335 
L 264.671501 269.705934 
L 265.074966 264.703788 
L 265.209454 249.704739 
L 265.747407 110.935421 
L 265.881895 109.414995 
L 266.016383 110.731208 
L 266.150871 122.028483 
L 266.28536 121.644769 
L 266.419848 120.305301 
L 266.688824 162.130349 
L 267.226777 258.152647 
L 267.361265 259.255947 
L 267.495754 257.766656 
L 267.630242 279.804827 
L 267.76473 271.218634 
L 267.899218 272.674786 
L 268.033706 270.304349 
L 268.302683 279.520729 
L 268.437171 278.729703 
L 268.571659 271.334056 
L 268.840636 281.071092 
L 268.975124 276.979751 
L 269.378589 274.701805 
L 269.782053 255.304613 
L 269.916541 256.098639 
L 270.05103 253.751734 
L 270.320006 258.67543 
L 270.454494 260.543343 
L 270.588982 265.887527 
L 270.723471 266.498358 
L 270.857959 288.718409 
L 271.126935 277.944947 
L 271.395912 278.573136 
L 271.5304 278.289239 
L 271.664888 279.716201 
L 271.799376 279.31862 
L 271.933865 281.947318 
L 272.068353 281.677878 
L 272.202841 283.58896 
L 272.337329 283.158485 
L 272.471817 283.877367 
L 272.740794 277.209663 
L 272.875282 279.493639 
L 273.00977 276.42856 
L 273.144258 276.314684 
L 273.278747 272.185724 
L 273.413235 273.538502 
L 273.682211 279.154383 
L 273.8167 278.417381 
L 273.951188 278.98839 
L 274.085676 276.926597 
L 274.220164 295.480083 
L 274.623629 286.436997 
L 274.892605 263.350324 
L 275.161582 195.449844 
L 275.430558 157.629733 
L 275.699535 155.152093 
L 275.834023 156.059745 
L 275.968511 181.082109 
L 276.102999 180.897323 
L 276.640952 254.88795 
L 276.909928 274.401211 
L 277.044417 276.166593 
L 277.178905 281.64316 
L 277.313393 275.938631 
L 277.447881 287.594945 
L 277.58237 284.347154 
L 277.716858 288.658797 
L 277.851346 285.53299 
L 277.985834 277.43032 
L 278.120322 260.012609 
L 278.389299 195.27663 
L 278.523787 198.493721 
L 278.658275 181.959113 
L 278.792763 192.391146 
L 278.927252 180.432437 
L 279.06174 198.824951 
L 279.196228 192.60403 
L 279.465204 215.211319 
L 279.868669 265.561165 
L 280.137646 278.638305 
L 280.272134 281.304193 
L 280.406622 280.952294 
L 280.54111 262.891979 
L 280.944575 270.865926 
L 281.079063 269.016522 
L 281.213551 256.458713 
L 281.348039 257.863017 
L 281.617016 136.188643 
L 281.751504 132.276357 
L 281.885992 124.93848 
L 282.020481 126.307689 
L 282.154969 146.473374 
L 282.289457 146.108793 
L 282.423945 123.363644 
L 282.82741 187.775142 
L 283.230874 266.839485 
L 283.365363 266.689262 
L 283.499851 269.3247 
L 283.634339 268.203815 
L 283.768827 263.774883 
L 283.903316 263.64839 
L 284.037804 263.707693 
L 284.172292 266.16361 
L 284.30678 265.538352 
L 284.575757 255.808431 
L 284.979221 149.429367 
L 285.113709 155.745132 
L 285.248198 142.849165 
L 285.517174 146.496709 
L 285.651662 161.857082 
L 285.78615 155.382034 
L 285.920639 158.518106 
L 286.324103 253.121354 
L 286.458592 262.76482 
L 286.59308 263.73853 
L 286.727568 269.228521 
L 286.862056 264.473629 
L 286.996544 292.459047 
L 287.265521 279.738623 
L 287.400009 278.932863 
L 287.803474 273.292205 
L 287.937962 277.163289 
L 288.07245 277.540827 
L 288.206938 279.434866 
L 288.341427 276.371519 
L 288.475915 276.9355 
L 288.610403 273.8999 
L 288.744891 274.351945 
L 288.879379 271.915846 
L 289.013868 276.305498 
L 289.282844 267.746444 
L 289.55182 280.366993 
L 289.686309 280.707421 
L 289.955285 278.056574 
L 290.089773 279.555641 
L 290.224262 276.467735 
L 290.35875 279.957153 
L 290.493238 277.751089 
L 290.627726 279.892259 
L 290.762214 276.452721 
L 290.896703 266.732202 
L 291.031191 266.311484 
L 291.165679 246.760725 
L 291.300167 177.493961 
L 291.434655 177.325682 
L 291.83812 191.565823 
L 292.107096 179.433486 
L 292.510561 212.516268 
L 292.914026 272.117049 
L 293.048514 272.019682 
L 293.183002 276.570968 
L 293.451979 269.187878 
L 293.586467 270.366966 
L 293.720955 268.26307 
L 293.855443 273.517795 
L 293.989931 272.628134 
L 294.12442 260.191566 
L 294.258908 258.329518 
L 294.393396 229.865641 
L 294.527884 176.94862 
L 294.662373 174.593856 
L 294.931349 155.794653 
L 295.200325 143.058969 
L 295.334814 153.934041 
L 295.469302 144.193191 
L 295.738278 196.807986 
L 295.872766 211.26291 
L 296.141743 269.560327 
L 296.276231 264.640014 
L 296.410719 263.925239 
L 296.545208 271.059595 
L 296.679696 293.972013 
L 296.948672 285.342481 
L 297.08316 283.244774 
L 297.352137 284.791361 
L 297.486625 284.302818 
L 297.755601 287.378617 
L 297.89009 289.626517 
L 298.159066 285.285627 
L 298.293554 285.550521 
L 298.428042 285.327095 
L 298.562531 282.656222 
L 298.831507 273.140227 
L 298.965995 272.870104 
L 299.234972 275.041452 
L 299.503948 280.518422 
L 299.638436 278.365346 
L 299.772925 280.801497 
L 299.907413 261.746551 
L 300.041901 273.450543 
L 300.176389 272.69275 
L 300.310877 275.305143 
L 300.445366 273.507277 
L 300.714342 254.286602 
L 300.983319 168.865151 
L 301.252295 139.03391 
L 301.386783 127.676645 
L 301.521271 131.329717 
L 301.65576 141.497692 
L 301.790248 132.829516 
L 301.924736 152.993676 
L 302.193712 204.458037 
L 302.328201 214.746653 
L 302.597177 259.518007 
L 302.731665 263.210952 
L 302.866153 262.972492 
L 303.13513 273.469446 
L 303.404106 269.223278 
L 303.538595 272.619786 
L 303.673083 271.984029 
L 304.076547 200.756276 
L 304.211036 158.939193 
L 304.480012 164.269543 
L 304.6145 158.538742 
L 304.748988 157.588954 
L 304.883477 160.802116 
L 305.017965 152.493304 
L 305.152453 164.564946 
L 305.42143 219.27082 
L 305.555918 221.165257 
L 305.824894 260.927949 
L 305.959382 270.181795 
L 306.093871 269.440612 
L 306.228359 272.065004 
L 306.362847 269.352953 
L 306.497335 282.646343 
L 306.766312 279.367815 
L 306.9008 278.383197 
L 307.035288 269.329192 
L 307.169776 248.922439 
L 307.438753 150.365654 
L 307.707729 174.04872 
L 307.842217 163.094596 
L 307.976706 162.567966 
L 308.111194 164.474288 
L 308.245682 156.252457 
L 308.38017 166.209758 
L 308.783635 233.485076 
L 309.187099 272.071259 
L 309.456076 277.348707 
L 309.590564 276.395374 
L 309.725052 279.657038 
L 309.859541 278.476763 
L 309.994029 279.242491 
L 310.128517 278.333669 
L 310.263005 271.361185 
L 310.397493 246.029116 
L 310.66647 151.035812 
L 310.935446 172.462616 
L 311.204423 163.342999 
L 311.338911 165.320843 
L 311.473399 164.81521 
L 311.607887 157.673 
L 311.876864 232.437638 
L 312.011352 232.168362 
L 312.280328 263.044286 
L 312.549305 270.568318 
L 312.818281 272.287139 
L 312.952769 274.939811 
L 313.087258 271.824453 
L 313.221746 274.651265 
L 313.356234 273.178259 
L 313.490722 275.861246 
L 313.894187 250.196242 
L 314.028675 263.341843 
L 314.163163 259.194055 
L 314.297652 261.185608 
L 314.43214 257.299855 
L 314.701116 267.131542 
L 314.835604 266.53727 
L 314.970093 267.428792 
L 315.104581 270.394968 
L 315.373557 267.591394 
L 315.508045 271.876361 
L 315.642534 271.545513 
L 315.777022 271.871162 
L 315.91151 270.487453 
L 316.045998 272.973113 
L 316.180487 273.167992 
L 316.314975 274.987122 
L 316.449463 273.17911 
L 316.583951 274.872113 
L 316.718439 274.728306 
L 316.852928 275.818044 
L 316.987416 275.49885 
L 317.121904 277.107443 
L 317.256392 276.381143 
L 317.39088 274.456702 
L 317.525369 274.589632 
L 317.659857 272.050422 
L 317.794345 276.404996 
L 318.063322 268.907344 
L 318.19781 267.197082 
L 318.332298 267.701904 
L 318.466786 265.125066 
L 318.601274 267.757073 
L 318.735763 266.801063 
L 318.870251 270.015791 
L 319.004739 268.813018 
L 319.273715 270.208078 
L 319.408204 287.415089 
L 319.67718 281.770568 
L 319.811668 280.630037 
L 319.946157 276.09292 
L 320.080645 260.091029 
L 320.349621 151.602879 
L 320.484109 133.571924 
L 320.618598 130.743625 
L 320.887574 148.118552 
L 321.022062 151.650287 
L 321.291039 179.744118 
L 321.694503 225.353341 
L 321.96348 268.345825 
L 322.366944 272.947657 
L 322.501433 271.260897 
L 322.635921 287.006256 
L 323.039385 279.285936 
L 323.308362 262.381419 
L 323.577338 155.267587 
L 323.711826 161.13219 
L 323.846315 177.524051 
L 324.115291 158.854683 
L 324.249779 159.344582 
L 324.384268 157.691385 
L 324.518756 163.197391 
L 324.787732 208.324035 
L 324.92222 220.556751 
L 325.191197 265.804599 
L 325.325685 266.721404 
L 325.460173 268.4741 
L 325.594661 271.75523 
L 325.72915 271.113052 
L 325.863638 283.038318 
L 325.998126 282.993236 
L 326.132614 283.149531 
L 326.267103 281.011196 
L 326.401591 274.531669 
L 326.536079 256.272009 
L 326.805055 148.401352 
L 327.074032 177.970644 
L 327.20852 164.003124 
L 327.343008 163.846041 
L 327.477496 168.356222 
L 327.611985 163.629718 
L 327.746473 166.775831 
L 327.880961 183.201516 
L 328.149937 230.263775 
L 328.553402 266.652249 
L 328.822379 275.931781 
L 328.956867 275.33235 
L 329.091355 288.835228 
L 329.360331 283.113229 
L 329.49482 280.09552 
L 329.763796 258.050556 
L 330.032772 163.470374 
L 330.167261 165.828327 
L 330.301749 176.454641 
L 330.570725 164.885534 
L 330.705214 160.633239 
L 330.97419 184.245532 
L 331.108678 190.117385 
L 331.243166 201.961663 
L 331.646631 264.810942 
L 332.184584 272.70992 
L 332.319072 287.599428 
L 332.588049 279.596072 
L 332.722537 280.111747 
L 332.991513 256.94392 
L 333.26049 158.122963 
L 333.394978 165.487615 
L 333.529466 183.058708 
L 333.663954 170.014235 
L 333.798442 167.774037 
L 333.932931 167.944699 
L 334.067419 168.299898 
L 334.470883 207.331958 
L 334.73986 263.115899 
L 335.277813 277.118384 
L 335.546789 272.05605 
L 335.681277 272.013256 
L 335.815766 271.781078 
L 336.084742 275.693128 
L 336.353718 262.719004 
L 336.488207 263.973929 
L 336.757183 256.811062 
L 336.891671 258.437175 
L 337.02616 256.71199 
L 337.429624 266.451315 
L 337.564112 264.831852 
L 337.698601 267.369502 
L 337.833089 267.656886 
L 337.967577 265.650063 
L 338.102065 271.09856 
L 338.236553 271.178738 
L 338.371042 269.753423 
L 338.50553 270.420947 
L 338.640018 265.583369 
L 338.908995 270.142755 
L 339.043483 270.330858 
L 339.312459 273.336224 
L 339.446947 272.886796 
L 339.715924 275.711478 
L 339.850412 274.842987 
L 339.9849 274.720883 
L 340.119388 273.065433 
L 340.253877 274.364929 
L 340.388365 273.667322 
L 340.522853 276.79298 
L 340.657341 270.619306 
L 340.791829 270.386739 
L 340.926318 269.847295 
L 341.060806 270.627401 
L 341.195294 264.241968 
L 341.464271 274.392596 
L 341.598759 273.059099 
L 341.733247 273.26174 
L 341.867735 275.659839 
L 342.002223 288.565763 
L 342.2712 282.799133 
L 342.405688 282.914526 
L 342.674664 261.782549 
L 342.943641 155.505169 
L 343.078129 138.773303 
L 343.212617 166.893039 
L 343.347106 171.259597 
L 343.481594 167.368299 
L 343.885058 187.612151 
L 344.154035 201.547779 
L 344.423011 263.746373 
L 344.691988 266.850988 
L 344.960964 276.183333 
L 345.095452 274.286104 
L 345.22994 285.552129 
L 345.364429 282.563855 
L 345.498917 282.597487 
L 345.633405 280.3674 
L 345.767893 272.609631 
L 345.902382 257.120957 
L 346.171358 162.92993 
L 346.440334 181.549983 
L 346.709311 172.995895 
L 346.843799 172.56796 
L 346.978287 174.954751 
L 347.247264 189.589078 
L 347.650728 258.269535 
L 348.188681 275.811198 
L 348.323169 273.559161 
L 348.457658 286.644108 
L 348.592146 283.35739 
L 348.726634 284.419518 
L 348.861122 281.995836 
L 349.130099 258.330324 
L 349.399075 163.28924 
L 349.533563 173.535788 
L 349.668052 172.910408 
L 349.80254 166.936185 
L 349.937028 167.179732 
L 350.071516 167.03426 
L 350.206004 171.189418 
L 350.474981 191.58548 
L 350.743957 237.852491 
L 351.012934 263.279876 
L 351.147422 272.756517 
L 351.28191 272.21509 
L 351.416398 275.877753 
L 351.550886 275.869656 
L 351.685375 289.575341 
L 351.954351 282.025166 
L 352.088839 281.019242 
L 352.223328 278.796816 
L 352.357816 263.479469 
L 352.626792 159.990686 
L 352.76128 176.533845 
L 352.895769 178.895321 
L 353.164745 170.68777 
L 353.299233 170.8987 
L 353.433721 170.192831 
L 353.702698 157.944479 
L 353.971674 245.271069 
L 354.240651 270.1182 
L 354.509627 276.937556 
L 354.644115 276.318678 
L 354.913092 283.794223 
L 355.04758 282.599255 
L 355.182068 282.608979 
L 355.316556 282.045238 
L 355.451045 277.174556 
L 355.585533 258.48543 
L 355.854509 189.498892 
L 355.988998 187.713421 
L 356.257974 159.169439 
L 356.52695 167.33506 
L 356.661439 166.339625 
L 356.795927 186.476281 
L 356.930415 186.865307 
L 357.064903 232.16993 
L 357.199391 239.660533 
L 357.468368 273.479099 
L 357.737344 281.147592 
L 357.871832 279.862484 
L 358.006321 284.852891 
L 358.140809 281.269287 
L 358.275297 280.848477 
L 358.409785 281.630239 
L 358.544274 281.381912 
L 358.81325 278.020709 
L 359.082226 258.175906 
L 359.216715 253.940598 
L 359.351203 256.251004 
L 359.485691 256.083735 
L 359.620179 249.749488 
L 359.754667 265.061114 
L 359.889156 266.912512 
L 360.023644 264.961954 
L 360.29262 273.525957 
L 360.427109 282.045892 
L 360.561597 278.149637 
L 360.696085 277.732912 
L 361.09955 282.200272 
L 361.368526 280.768673 
L 361.503014 280.353139 
L 361.637502 282.846646 
L 361.906479 279.987132 
L 362.175455 287.158537 
L 362.309944 287.382853 
L 362.444432 283.691403 
L 362.57892 283.171358 
L 362.713408 281.96223 
L 362.847896 283.680161 
L 362.982385 282.468815 
L 363.251361 274.567194 
L 363.520337 278.765571 
L 363.654826 276.852427 
L 363.789314 276.863914 
L 364.192778 281.21358 
L 364.327267 227.78434 
L 364.596243 254.668026 
L 364.86522 263.285003 
L 364.999708 258.902441 
L 365.268684 201.809307 
L 365.537661 122.194721 
L 365.672149 105.142916 
L 365.941125 100.592857 
L 366.075613 116.926743 
L 366.210102 113.530525 
L 366.479078 124.211534 
L 366.613566 148.391326 
L 366.882543 240.551378 
L 367.151519 260.256547 
L 367.286007 263.18015 
L 367.420496 261.082715 
L 367.554984 270.234622 
L 367.689472 271.23419 
L 367.82396 269.912668 
L 368.092937 274.550585 
L 368.765378 97.379785 
L 368.899866 98.759556 
L 369.034354 102.141137 
L 369.303331 91.90553 
L 369.437819 95.105826 
L 369.572307 111.750197 
L 369.706795 109.032774 
L 369.841283 138.63675 
L 370.11026 238.15826 
L 370.244748 233.737509 
L 370.782701 289.449034 
L 371.051677 282.313424 
L 371.320654 280.523582 
L 371.58963 254.191435 
L 371.858607 159.121769 
L 371.993095 160.521777 
L 372.262071 208.06346 
L 372.396559 195.242312 
L 372.531048 203.727709 
L 372.800024 193.189776 
L 372.934512 203.129932 
L 373.069001 237.627622 
L 373.203489 237.535521 
L 373.472465 263.926486 
L 373.87593 272.538176 
L 374.144906 295.32515 
L 374.279394 289.675632 
L 374.413883 288.811766 
L 374.548371 286.840592 
L 374.817347 258.543406 
L 375.086324 200.797222 
L 375.3553 175.268796 
L 375.489788 179.999441 
L 375.624277 177.03684 
L 375.758765 181.865991 
L 376.162229 206.698606 
L 376.431206 239.503465 
L 376.700182 267.664935 
L 376.83467 271.508294 
L 377.103647 272.599686 
L 377.238135 289.290626 
L 377.372623 281.658317 
L 377.6416 281.610082 
L 377.776088 278.09659 
L 377.910576 284.752235 
L 378.045064 279.153552 
L 378.179553 279.155011 
L 378.314041 264.861849 
L 378.448529 273.118884 
L 378.583017 261.649806 
L 378.717505 267.544341 
L 378.851994 265.520595 
L 378.986482 274.786698 
L 379.12097 268.771198 
L 379.389947 270.950835 
L 379.524435 270.10322 
L 379.793411 278.120553 
L 379.927899 279.076501 
L 380.062388 281.761739 
L 380.196876 279.645903 
L 380.331364 279.880188 
L 380.465852 260.536961 
L 380.734829 271.493603 
L 380.869317 274.813034 
L 381.003805 273.807299 
L 381.138293 255.559647 
L 381.272782 256.615782 
L 381.676246 141.242645 
L 381.810734 147.020624 
L 381.945223 140.997756 
L 382.214199 146.652409 
L 382.483175 143.72913 
L 383.021128 260.407498 
L 383.155616 269.939318 
L 383.424593 273.901805 
L 383.559081 271.432415 
L 383.693569 259.414656 
L 384.097034 263.186877 
L 384.231522 265.311875 
L 384.36601 261.04425 
L 384.500499 263.894113 
L 384.769475 165.727242 
L 384.903963 158.582288 
L 385.038451 163.505029 
L 385.17294 145.809732 
L 385.307428 153.45759 
L 385.441916 178.132203 
L 385.576404 166.78067 
L 385.710893 169.437023 
L 385.845381 212.162894 
L 385.979869 212.48208 
L 386.383334 271.488513 
L 386.517822 272.003512 
L 386.65231 278.772829 
L 386.786798 274.375441 
L 386.921286 285.542497 
L 387.190263 279.008468 
L 387.324751 280.602933 
L 387.459239 279.246404 
L 387.593727 279.139632 
L 387.997192 285.881835 
L 388.13168 284.239457 
L 388.266169 285.599997 
L 388.400657 280.802203 
L 388.535145 281.317628 
L 388.669633 283.381329 
L 388.804121 278.481089 
L 388.93861 280.459592 
L 389.073098 274.135418 
L 389.611051 289.552485 
L 389.745539 285.426134 
L 389.880027 286.132262 
L 390.014515 285.724132 
L 390.149004 258.026532 
L 390.41798 269.537523 
L 390.552468 271.866935 
L 390.686956 270.838123 
L 390.821445 259.379745 
L 390.955933 263.955229 
L 391.090421 248.239699 
L 391.224909 186.459192 
L 391.359397 186.322036 
L 391.493886 155.776981 
L 391.628374 161.153495 
L 391.762862 171.837319 
L 391.89735 171.563745 
L 392.031839 177.854861 
L 392.166327 171.11366 
L 392.435303 201.288603 
L 392.838768 275.840447 
L 392.973256 275.725287 
L 393.107744 278.727448 
L 393.242232 274.5389 
L 393.376721 261.971702 
L 393.511209 262.826035 
L 393.645697 273.254788 
L 393.780185 273.845099 
L 393.914673 266.076691 
L 394.049162 269.291759 
L 394.18365 253.131944 
L 394.587115 158.553926 
L 394.721603 156.997489 
L 394.856091 146.638213 
L 395.125067 149.824753 
L 395.259556 144.491973 
L 395.394044 165.622154 
L 395.528532 167.166958 
L 395.797508 222.03134 
L 396.066485 260.725143 
L 396.335461 268.14845 
L 396.46995 259.008406 
L 396.604438 295.488 
L 396.873414 285.204953 
L 397.007902 283.281452 
L 397.142391 285.694636 
L 397.411367 261.373488 
L 397.680343 180.913949 
L 397.814832 183.406668 
L 398.218296 162.442155 
L 398.352785 167.088659 
L 398.487273 164.045676 
L 398.487273 164.045676 
" clip-path="url(#p8536ff149d)" style="fill: none; stroke: #ff7f0e; stroke-width: 1.5; stroke-linecap: square"/>
   </g>
   <g id="patch_3">
    <path d="M 57.6 307.584 
L 57.6 41.472 
" style="fill: none; stroke: #000000; stroke-width: 0.8; stroke-linejoin: miter; stroke-linecap: square"/>
   </g>
   <g id="patch_4">
    <path d="M 414.72 307.584 
L 414.72 41.472 
" style="fill: none; stroke: #000000; stroke-width: 0.8; stroke-linejoin: miter; stroke-linecap: square"/>
   </g>
   <g id="patch_5">
    <path d="M 57.6 307.584 
L 414.72 307.584 
" style="fill: none; stroke: #000000; stroke-width: 0.8; stroke-linejoin: miter; stroke-linecap: square"/>
   </g>
   <g id="patch_6">
    <path d="M 57.6 41.472 
L 414.72 41.472 
" style="fill: none; stroke: #000000; stroke-width: 0.8; stroke-linejoin: miter; stroke-linecap: square"/>
   </g>
  </g>
 </g>
 <defs>
  <clipPath id="p8536ff149d">
   <rect x="57.6" y="41.472" width="357.12" height="266.112"/>
  </clipPath>
 </defs>
</svg>
