<?xml version="1.0" encoding="utf-8" standalone="no"?>
<!DOCTYPE svg PUBLIC "-//W3C//DTD SVG 1.1//EN"
  "http://www.w3.org/Graphics/SVG/1.1/DTD/svg11.dtd">
<svg xmlns:xlink="http://www.w3.org/1999/xlink" width="460.8pt" height="345.6pt" viewBox="0 0 460.8 345.6" xmlns="http://www.w3.org/2000/svg" version="1.1">
 <metadata>
  <rdf:RDF xmlns:dc="http://purl.org/dc/elements/1.1/" xmlns:cc="http://creativecommons.org/ns#" xmlns:rdf="http://www.w3.org/1999/02/22-rdf-syntax-ns#">
   <cc:Work>
    <dc:type rdf:resource="http://purl.org/dc/dcmitype/StillImage"/>
    <dc:date>2023-04-04T07:14:01.952383</dc:date>
    <dc:format>image/svg+xml</dc:format>
    <dc:creator>
     <cc:Agent>
      <dc:title>Matplotlib v3.5.2, https://matplotlib.org/</dc:title>
     </cc:Agent>
    </dc:creator>
   </cc:Work>
  </rdf:RDF>
 </metadata>
 <defs>
  <style type="text/css">*{stroke-linejoin: round; stroke-linecap: butt}</style>
 </defs>
 <g id="figure_1">
  <g id="patch_1">
   <path d="M 0 345.6 
L 460.8 345.6 
L 460.8 0 
L 0 0 
z
" style="fill: #ffffff"/>
  </g>
  <g id="axes_1">
   <g id="patch_2">
    <path d="M 57.6 307.584 
L 414.72 307.584 
L 414.72 41.472 
L 57.6 41.472 
z
" style="fill: #ffffff"/>
   </g>
   <g id="matplotlib.axis_1">
    <g id="xtick_1">
     <g id="line2d_1">
      <defs>
       <path id="md767c6adb0" d="M 0 0 
L 0 3.5 
" style="stroke: #000000; stroke-width: 0.8"/>
      </defs>
      <g>
       <use xlink:href="#md767c6adb0" x="73.832727" y="307.584" style="stroke: #000000; stroke-width: 0.8"/>
      </g>
     </g>
     <g id="text_1">
      <!-- 0 -->
      <g transform="translate(70.651477 322.182437)scale(0.1 -0.1)">
       <defs>
        <path id="DejaVuSans-30" d="M 2034 4250 
Q 1547 4250 1301 3770 
Q 1056 3291 1056 2328 
Q 1056 1369 1301 889 
Q 1547 409 2034 409 
Q 2525 409 2770 889 
Q 3016 1369 3016 2328 
Q 3016 3291 2770 3770 
Q 2525 4250 2034 4250 
z
M 2034 4750 
Q 2819 4750 3233 4129 
Q 3647 3509 3647 2328 
Q 3647 1150 3233 529 
Q 2819 -91 2034 -91 
Q 1250 -91 836 529 
Q 422 1150 422 2328 
Q 422 3509 836 4129 
Q 1250 4750 2034 4750 
z
" transform="scale(0.015625)"/>
       </defs>
       <use xlink:href="#DejaVuSans-30"/>
      </g>
     </g>
    </g>
    <g id="xtick_2">
     <g id="line2d_2">
      <g>
       <use xlink:href="#md767c6adb0" x="141.076834" y="307.584" style="stroke: #000000; stroke-width: 0.8"/>
      </g>
     </g>
     <g id="text_2">
      <!-- 500 -->
      <g transform="translate(131.533084 322.182437)scale(0.1 -0.1)">
       <defs>
        <path id="DejaVuSans-35" d="M 691 4666 
L 3169 4666 
L 3169 4134 
L 1269 4134 
L 1269 2991 
Q 1406 3038 1543 3061 
Q 1681 3084 1819 3084 
Q 2600 3084 3056 2656 
Q 3513 2228 3513 1497 
Q 3513 744 3044 326 
Q 2575 -91 1722 -91 
Q 1428 -91 1123 -41 
Q 819 9 494 109 
L 494 744 
Q 775 591 1075 516 
Q 1375 441 1709 441 
Q 2250 441 2565 725 
Q 2881 1009 2881 1497 
Q 2881 1984 2565 2268 
Q 2250 2553 1709 2553 
Q 1456 2553 1204 2497 
Q 953 2441 691 2322 
L 691 4666 
z
" transform="scale(0.015625)"/>
       </defs>
       <use xlink:href="#DejaVuSans-35"/>
       <use xlink:href="#DejaVuSans-30" x="63.623047"/>
       <use xlink:href="#DejaVuSans-30" x="127.246094"/>
      </g>
     </g>
    </g>
    <g id="xtick_3">
     <g id="line2d_3">
      <g>
       <use xlink:href="#md767c6adb0" x="208.32094" y="307.584" style="stroke: #000000; stroke-width: 0.8"/>
      </g>
     </g>
     <g id="text_3">
      <!-- 1000 -->
      <g transform="translate(195.59594 322.182437)scale(0.1 -0.1)">
       <defs>
        <path id="DejaVuSans-31" d="M 794 531 
L 1825 531 
L 1825 4091 
L 703 3866 
L 703 4441 
L 1819 4666 
L 2450 4666 
L 2450 531 
L 3481 531 
L 3481 0 
L 794 0 
L 794 531 
z
" transform="scale(0.015625)"/>
       </defs>
       <use xlink:href="#DejaVuSans-31"/>
       <use xlink:href="#DejaVuSans-30" x="63.623047"/>
       <use xlink:href="#DejaVuSans-30" x="127.246094"/>
       <use xlink:href="#DejaVuSans-30" x="190.869141"/>
      </g>
     </g>
    </g>
    <g id="xtick_4">
     <g id="line2d_4">
      <g>
       <use xlink:href="#md767c6adb0" x="275.565046" y="307.584" style="stroke: #000000; stroke-width: 0.8"/>
      </g>
     </g>
     <g id="text_4">
      <!-- 1500 -->
      <g transform="translate(262.840046 322.182437)scale(0.1 -0.1)">
       <use xlink:href="#DejaVuSans-31"/>
       <use xlink:href="#DejaVuSans-35" x="63.623047"/>
       <use xlink:href="#DejaVuSans-30" x="127.246094"/>
       <use xlink:href="#DejaVuSans-30" x="190.869141"/>
      </g>
     </g>
    </g>
    <g id="xtick_5">
     <g id="line2d_5">
      <g>
       <use xlink:href="#md767c6adb0" x="342.809153" y="307.584" style="stroke: #000000; stroke-width: 0.8"/>
      </g>
     </g>
     <g id="text_5">
      <!-- 2000 -->
      <g transform="translate(330.084153 322.182437)scale(0.1 -0.1)">
       <defs>
        <path id="DejaVuSans-32" d="M 1228 531 
L 3431 531 
L 3431 0 
L 469 0 
L 469 531 
Q 828 903 1448 1529 
Q 2069 2156 2228 2338 
Q 2531 2678 2651 2914 
Q 2772 3150 2772 3378 
Q 2772 3750 2511 3984 
Q 2250 4219 1831 4219 
Q 1534 4219 1204 4116 
Q 875 4013 500 3803 
L 500 4441 
Q 881 4594 1212 4672 
Q 1544 4750 1819 4750 
Q 2544 4750 2975 4387 
Q 3406 4025 3406 3419 
Q 3406 3131 3298 2873 
Q 3191 2616 2906 2266 
Q 2828 2175 2409 1742 
Q 1991 1309 1228 531 
z
" transform="scale(0.015625)"/>
       </defs>
       <use xlink:href="#DejaVuSans-32"/>
       <use xlink:href="#DejaVuSans-30" x="63.623047"/>
       <use xlink:href="#DejaVuSans-30" x="127.246094"/>
       <use xlink:href="#DejaVuSans-30" x="190.869141"/>
      </g>
     </g>
    </g>
    <g id="xtick_6">
     <g id="line2d_6">
      <g>
       <use xlink:href="#md767c6adb0" x="410.053259" y="307.584" style="stroke: #000000; stroke-width: 0.8"/>
      </g>
     </g>
     <g id="text_6">
      <!-- 2500 -->
      <g transform="translate(397.328259 322.182437)scale(0.1 -0.1)">
       <use xlink:href="#DejaVuSans-32"/>
       <use xlink:href="#DejaVuSans-35" x="63.623047"/>
       <use xlink:href="#DejaVuSans-30" x="127.246094"/>
       <use xlink:href="#DejaVuSans-30" x="190.869141"/>
      </g>
     </g>
    </g>
   </g>
   <g id="matplotlib.axis_2">
    <g id="ytick_1">
     <g id="line2d_7">
      <defs>
       <path id="mb5439f0b4a" d="M 0 0 
L -3.5 0 
" style="stroke: #000000; stroke-width: 0.8"/>
      </defs>
      <g>
       <use xlink:href="#mb5439f0b4a" x="57.6" y="280.084451" style="stroke: #000000; stroke-width: 0.8"/>
      </g>
     </g>
     <g id="text_7">
      <!-- 100 -->
      <g transform="translate(31.5125 283.88367)scale(0.1 -0.1)">
       <use xlink:href="#DejaVuSans-31"/>
       <use xlink:href="#DejaVuSans-30" x="63.623047"/>
       <use xlink:href="#DejaVuSans-30" x="127.246094"/>
      </g>
     </g>
    </g>
    <g id="ytick_2">
     <g id="line2d_8">
      <g>
       <use xlink:href="#mb5439f0b4a" x="57.6" y="232.354473" style="stroke: #000000; stroke-width: 0.8"/>
      </g>
     </g>
     <g id="text_8">
      <!-- 200 -->
      <g transform="translate(31.5125 236.153692)scale(0.1 -0.1)">
       <use xlink:href="#DejaVuSans-32"/>
       <use xlink:href="#DejaVuSans-30" x="63.623047"/>
       <use xlink:href="#DejaVuSans-30" x="127.246094"/>
      </g>
     </g>
    </g>
    <g id="ytick_3">
     <g id="line2d_9">
      <g>
       <use xlink:href="#mb5439f0b4a" x="57.6" y="184.624496" style="stroke: #000000; stroke-width: 0.8"/>
      </g>
     </g>
     <g id="text_9">
      <!-- 300 -->
      <g transform="translate(31.5125 188.423714)scale(0.1 -0.1)">
       <defs>
        <path id="DejaVuSans-33" d="M 2597 2516 
Q 3050 2419 3304 2112 
Q 3559 1806 3559 1356 
Q 3559 666 3084 287 
Q 2609 -91 1734 -91 
Q 1441 -91 1130 -33 
Q 819 25 488 141 
L 488 750 
Q 750 597 1062 519 
Q 1375 441 1716 441 
Q 2309 441 2620 675 
Q 2931 909 2931 1356 
Q 2931 1769 2642 2001 
Q 2353 2234 1838 2234 
L 1294 2234 
L 1294 2753 
L 1863 2753 
Q 2328 2753 2575 2939 
Q 2822 3125 2822 3475 
Q 2822 3834 2567 4026 
Q 2313 4219 1838 4219 
Q 1578 4219 1281 4162 
Q 984 4106 628 3988 
L 628 4550 
Q 988 4650 1302 4700 
Q 1616 4750 1894 4750 
Q 2613 4750 3031 4423 
Q 3450 4097 3450 3541 
Q 3450 3153 3228 2886 
Q 3006 2619 2597 2516 
z
" transform="scale(0.015625)"/>
       </defs>
       <use xlink:href="#DejaVuSans-33"/>
       <use xlink:href="#DejaVuSans-30" x="63.623047"/>
       <use xlink:href="#DejaVuSans-30" x="127.246094"/>
      </g>
     </g>
    </g>
    <g id="ytick_4">
     <g id="line2d_10">
      <g>
       <use xlink:href="#mb5439f0b4a" x="57.6" y="136.894518" style="stroke: #000000; stroke-width: 0.8"/>
      </g>
     </g>
     <g id="text_10">
      <!-- 400 -->
      <g transform="translate(31.5125 140.693737)scale(0.1 -0.1)">
       <defs>
        <path id="DejaVuSans-34" d="M 2419 4116 
L 825 1625 
L 2419 1625 
L 2419 4116 
z
M 2253 4666 
L 3047 4666 
L 3047 1625 
L 3713 1625 
L 3713 1100 
L 3047 1100 
L 3047 0 
L 2419 0 
L 2419 1100 
L 313 1100 
L 313 1709 
L 2253 4666 
z
" transform="scale(0.015625)"/>
       </defs>
       <use xlink:href="#DejaVuSans-34"/>
       <use xlink:href="#DejaVuSans-30" x="63.623047"/>
       <use xlink:href="#DejaVuSans-30" x="127.246094"/>
      </g>
     </g>
    </g>
    <g id="ytick_5">
     <g id="line2d_11">
      <g>
       <use xlink:href="#mb5439f0b4a" x="57.6" y="89.16454" style="stroke: #000000; stroke-width: 0.8"/>
      </g>
     </g>
     <g id="text_11">
      <!-- 500 -->
      <g transform="translate(31.5125 92.963759)scale(0.1 -0.1)">
       <use xlink:href="#DejaVuSans-35"/>
       <use xlink:href="#DejaVuSans-30" x="63.623047"/>
       <use xlink:href="#DejaVuSans-30" x="127.246094"/>
      </g>
     </g>
    </g>
   </g>
   <g id="line2d_12">
    <path d="M 73.832727 283.150625 
L 74.101704 282.602207 
L 74.236192 281.49344 
L 74.37068 282.455676 
L 74.505168 281.964058 
L 74.639657 282.564978 
L 74.774145 276.104248 
L 74.908633 249.034669 
L 75.177609 247.544062 
L 75.312098 248.098684 
L 75.446586 248.151187 
L 75.581074 249.016531 
L 75.715562 248.261443 
L 75.85005 248.239487 
L 76.253515 243.262205 
L 76.522492 277.264564 
L 76.65698 277.577195 
L 76.925956 275.873235 
L 77.060444 267.031734 
L 77.194933 269.271702 
L 77.463909 269.335183 
L 77.598397 270.916954 
L 77.732885 265.599357 
L 77.867374 252.213963 
L 78.405327 104.026223 
L 78.674303 103.105989 
L 78.808791 110.232552 
L 78.943279 105.437599 
L 79.481232 158.050353 
L 79.750209 228.312222 
L 80.019185 262.97755 
L 80.153673 265.098193 
L 80.288161 261.269771 
L 80.42265 271.648655 
L 80.557138 271.214789 
L 80.826114 273.718227 
L 80.960603 271.182333 
L 81.095091 260.885545 
L 81.364067 168.221134 
L 81.498555 180.50158 
L 81.767532 161.128937 
L 82.036508 169.118458 
L 82.170996 166.022691 
L 82.305485 160.057876 
L 83.112414 260.408245 
L 83.650367 286.548522 
L 83.784855 286.569046 
L 83.919343 288.094973 
L 84.053831 288.286848 
L 84.18832 286.193411 
L 84.322808 278.980934 
L 84.726273 188.998948 
L 84.860761 180.348367 
L 84.995249 184.437871 
L 85.129737 169.580961 
L 85.264225 178.108399 
L 85.398714 178.854419 
L 85.66769 187.136524 
L 85.802178 195.891634 
L 86.340131 262.53032 
L 86.474619 264.539752 
L 86.609107 269.441621 
L 86.878084 286.929885 
L 87.012572 289.177012 
L 87.14706 288.851016 
L 87.281549 290.339237 
L 87.416037 290.242345 
L 87.550525 289.432367 
L 87.819501 261.975698 
L 87.95399 262.121274 
L 88.088478 256.444748 
L 88.222966 257.901944 
L 88.357454 257.145424 
L 88.491942 253.79287 
L 88.626431 256.622781 
L 88.760919 249.640839 
L 88.895407 252.513229 
L 89.029895 252.511798 
L 89.164384 255.068215 
L 89.43336 276.332398 
L 89.567848 277.992924 
L 89.702336 277.495577 
L 89.836825 278.553751 
L 89.971313 263.430507 
L 90.105801 264.142639 
L 90.240289 265.684317 
L 90.374777 265.454258 
L 90.509266 266.688078 
L 90.643754 266.859429 
L 90.778242 268.955252 
L 90.91273 265.737774 
L 91.047218 255.816144 
L 91.181707 254.647237 
L 91.316195 247.727822 
L 91.450683 252.154777 
L 91.585171 250.192121 
L 91.71966 251.687978 
L 91.854148 251.913741 
L 92.123124 254.891614 
L 92.257612 254.319809 
L 92.526589 259.905648 
L 92.795565 266.491908 
L 92.930053 267.445553 
L 93.064542 266.306716 
L 93.19903 276.30901 
L 93.468006 276.433585 
L 93.602495 277.492713 
L 93.736983 276.260325 
L 93.871471 273.74066 
L 94.005959 268.528546 
L 94.6784 161.415794 
L 94.812888 157.023681 
L 95.081865 168.869785 
L 95.216353 163.659103 
L 95.350841 152.405329 
L 96.023282 264.866225 
L 96.157771 265.595062 
L 96.426747 269.518466 
L 96.561235 269.185311 
L 96.695723 269.262633 
L 96.830212 271.143672 
L 96.9647 270.506477 
L 97.099188 269.080305 
L 97.233676 260.620166 
L 97.368164 243.072717 
L 97.502653 202.086508 
L 97.637141 194.996697 
L 97.771629 179.537435 
L 97.906117 187.925978 
L 98.040606 181.218484 
L 98.175094 181.927752 
L 98.309582 176.613019 
L 98.44407 178.253975 
L 98.713047 189.61371 
L 98.982023 231.525404 
L 99.250999 266.346809 
L 99.385488 271.029597 
L 99.519976 271.783253 
L 99.654464 281.580786 
L 99.788952 281.593196 
L 99.923441 280.592775 
L 100.192417 281.829936 
L 100.326905 281.9106 
L 100.461393 281.256222 
L 100.595882 281.661927 
L 100.73037 282.490042 
L 100.864858 280.952659 
L 100.999346 282.107725 
L 101.133834 281.200378 
L 101.268323 278.986662 
L 101.402811 271.966537 
L 101.537299 276.235506 
L 101.806276 265.857099 
L 101.940764 268.016404 
L 102.075252 267.867963 
L 102.20974 268.515659 
L 102.344228 270.892612 
L 102.478717 276.706601 
L 102.613205 274.855632 
L 102.747693 280.521658 
L 102.882181 267.073737 
L 103.016669 267.102374 
L 103.151158 272.005198 
L 103.285646 271.786117 
L 103.554622 267.608312 
L 103.68911 263.422871 
L 103.823599 246.009543 
L 104.092575 183.78588 
L 104.227063 162.317891 
L 104.361552 169.477387 
L 104.630528 144.620569 
L 105.033993 159.927096 
L 105.168481 170.699275 
L 105.706434 253.704092 
L 105.840922 253.581904 
L 105.97541 262.274487 
L 106.109898 278.695031 
L 106.378875 281.881962 
L 106.513363 281.86812 
L 106.647851 284.023606 
L 106.782339 283.755364 
L 106.916828 284.86604 
L 107.320292 247.321163 
L 107.45478 254.379949 
L 107.589269 251.847874 
L 107.723757 251.94047 
L 108.26171 246.881092 
L 108.396198 243.476513 
L 108.530686 245.734618 
L 108.934151 277.32184 
L 109.068639 278.835835 
L 109.203127 277.769547 
L 109.337615 273.277202 
L 109.606592 274.824608 
L 109.875568 275.876099 
L 110.144545 276.924249 
L 110.413521 275.687566 
L 110.548009 275.552967 
L 110.951474 271.506897 
L 111.085962 272.679145 
L 111.22045 272.332148 
L 111.623915 266.542502 
L 111.758403 267.049872 
L 112.02738 270.827222 
L 112.430844 272.422835 
L 112.565333 262.193824 
L 112.834309 266.388334 
L 112.968797 266.910977 
L 113.103285 268.417813 
L 113.237774 268.595845 
L 113.50675 271.208584 
L 113.641238 272.037177 
L 114.313679 260.824928 
L 114.448168 260.464566 
L 114.582656 258.985414 
L 114.98612 248.176961 
L 115.524073 259.21595 
L 115.658561 259.764845 
L 115.927538 261.985721 
L 116.062026 260.704648 
L 116.196514 266.788311 
L 116.331002 266.372106 
L 116.465491 266.981618 
L 116.599979 257.248998 
L 117.137932 79.059627 
L 117.406908 64.398409 
L 117.810373 80.89198 
L 118.213837 147.906301 
L 118.482814 210.072688 
L 118.75179 244.409634 
L 118.886279 245.93938 
L 119.289743 253.911241 
L 119.424231 255.32548 
L 119.55872 258.089045 
L 119.693208 258.405018 
L 119.827696 248.815588 
L 120.365649 91.881808 
L 120.634625 73.366395 
L 120.769114 77.047808 
L 120.903602 70.645786 
L 121.03809 71.970293 
L 121.441555 135.228742 
L 121.710531 201.877928 
L 121.845019 229.981339 
L 122.248484 240.916277 
L 122.51746 256.389858 
L 122.651948 256.548799 
L 122.786437 258.282829 
L 122.920925 256.945913 
L 123.055413 248.807474 
L 123.727854 60.452572 
L 123.862342 53.568 
L 124.534783 107.552514 
L 125.072736 248.110616 
L 125.207225 253.267363 
L 125.341713 253.729389 
L 125.476201 253.683091 
L 125.745177 267.245564 
L 125.879666 268.678418 
L 126.014154 268.907522 
L 126.28313 255.493012 
L 126.821083 92.98437 
L 126.955571 74.683265 
L 127.09006 81.26332 
L 127.359036 105.734002 
L 127.493524 108.17014 
L 127.762501 126.616822 
L 127.896989 149.357292 
L 128.300453 246.497343 
L 128.434942 252.283648 
L 128.56943 250.461318 
L 128.703918 257.942037 
L 128.838406 258.664192 
L 129.241871 265.339229 
L 129.510847 244.684559 
L 130.0488 83.431215 
L 130.183288 74.347246 
L 130.317777 86.233442 
L 130.452265 114.979299 
L 130.586753 114.06336 
L 130.721241 110.425859 
L 130.855729 116.798765 
L 131.124706 169.927958 
L 131.393682 235.395828 
L 131.662659 258.434611 
L 131.931635 258.238918 
L 132.066123 258.057066 
L 132.3351 269.298431 
L 132.469588 269.150468 
L 132.604076 269.249269 
L 132.738564 269.207744 
L 133.007541 257.348754 
L 133.276517 246.917367 
L 133.679982 241.354438 
L 133.81447 240.175508 
L 133.948958 235.090356 
L 134.486911 244.940391 
L 134.755888 252.007769 
L 134.890376 251.893217 
L 135.697305 266.096704 
L 135.831793 270.833904 
L 135.966282 271.441507 
L 136.10077 269.464531 
L 136.235258 270.96373 
L 136.369746 270.690237 
L 136.504234 266.402653 
L 136.638723 266.244189 
L 136.907699 264.314944 
L 137.311164 253.462579 
L 137.445652 253.970903 
L 137.58014 251.296115 
L 137.983605 258.09 
L 138.118093 257.190767 
L 138.252581 259.020257 
L 138.387069 263.499238 
L 138.521558 262.269714 
L 138.656046 262.47018 
L 138.925022 267.152014 
L 139.193999 250.954846 
L 139.731951 81.582633 
L 139.86644 72.691016 
L 140.269904 98.627008 
L 140.538881 122.985048 
L 140.673369 130.055767 
L 140.807857 144.375237 
L 141.076834 224.258037 
L 141.480298 257.353527 
L 142.018251 265.768322 
L 142.152739 265.305818 
L 142.421716 241.636522 
L 142.959669 91.552948 
L 143.094157 84.157665 
L 143.228645 83.671297 
L 143.363133 93.868329 
L 143.497621 84.620169 
L 143.63211 89.732527 
L 144.573527 258.597847 
L 144.708015 262.07784 
L 144.842504 262.253009 
L 145.11148 264.489158 
L 145.245968 266.626507 
L 145.380456 262.559913 
L 145.783921 201.562433 
L 146.052897 110.123728 
L 146.187386 91.055602 
L 146.456362 106.326808 
L 146.59085 117.617812 
L 146.725339 111.942717 
L 146.859827 119.336568 
L 146.994315 114.272895 
L 147.128803 127.09794 
L 147.532268 234.083253 
L 147.801244 260.031656 
L 147.935732 260.233553 
L 148.204709 265.492442 
L 148.339197 265.470964 
L 148.473685 265.973561 
L 148.742662 264.922546 
L 148.87715 247.274387 
L 149.280615 119.201015 
L 149.415103 115.169741 
L 149.549591 106.104864 
L 149.684079 107.358253 
L 150.087544 140.008899 
L 150.222032 132.330577 
L 150.35652 137.840526 
L 150.894473 252.465977 
L 151.028961 261.621541 
L 151.16345 260.66551 
L 151.835891 268.826381 
L 151.970379 267.556287 
L 152.104867 246.643874 
L 152.508332 113.201834 
L 152.64282 116.305237 
L 152.911796 104.472499 
L 153.046285 118.597231 
L 153.180773 117.098987 
L 153.449749 151.512301 
L 153.718726 192.388254 
L 153.987702 248.914866 
L 154.12219 265.936331 
L 154.256678 267.312864 
L 154.525655 271.168491 
L 154.794631 272.869588 
L 155.063608 275.809277 
L 155.198096 277.448324 
L 155.332584 276.805879 
L 155.467072 272.432381 
L 155.601561 261.974266 
L 155.736049 261.114649 
L 155.870537 258.254191 
L 156.005025 260.38963 
L 156.274002 258.495705 
L 156.40849 259.031235 
L 156.542978 260.282715 
L 156.677466 259.088034 
L 157.215419 267.08376 
L 157.349907 269.08651 
L 157.484396 268.096113 
L 157.618884 268.865043 
L 157.88786 272.035745 
L 158.022348 272.515909 
L 158.291325 275.51001 
L 158.560301 279.78423 
L 158.694789 278.220596 
L 158.829278 279.183309 
L 158.963766 278.787628 
L 159.232742 276.077997 
L 159.367231 276.359604 
L 159.501719 274.379287 
L 160.039672 260.319467 
L 160.308648 260.578164 
L 160.443136 266.287624 
L 160.577624 266.004585 
L 160.712113 264.052429 
L 160.846601 264.753105 
L 160.981089 266.242758 
L 161.250066 269.993379 
L 161.519042 270.943206 
L 161.788018 254.207166 
L 162.460459 83.856489 
L 162.594948 83.52047 
L 162.729436 82.063751 
L 162.998412 101.622064 
L 163.132901 110.552343 
L 163.401877 151.749996 
L 163.670853 222.362203 
L 164.074318 256.395109 
L 164.208806 257.526309 
L 164.477783 270.160434 
L 164.612271 272.517818 
L 164.746759 267.823574 
L 165.015735 250.343902 
L 165.4192 120.810947 
L 165.553688 123.405549 
L 165.822665 109.536649 
L 165.957153 114.783128 
L 166.091641 111.70359 
L 166.360618 100.269397 
L 166.495106 106.452338 
L 166.89857 221.464402 
L 167.033059 228.42391 
L 167.302035 246.781336 
L 167.974476 265.213222 
L 168.108964 259.549583 
L 168.243453 245.562313 
L 168.377941 207.553022 
L 168.646917 106.278601 
L 168.781405 107.559196 
L 168.915894 103.041554 
L 169.050382 104.339332 
L 169.18487 108.128138 
L 169.319358 92.827816 
L 169.453847 95.301661 
L 169.857311 148.582158 
L 170.126288 226.64024 
L 170.395264 257.400779 
L 170.529752 258.279011 
L 170.66424 261.709842 
L 170.798729 261.898852 
L 171.067705 264.22187 
L 171.202193 267.051303 
L 171.47117 245.302662 
L 172.009123 110.33374 
L 172.143611 108.760082 
L 172.412587 97.023758 
L 172.95054 129.466779 
L 173.622981 259.366777 
L 173.757469 263.348889 
L 173.891958 276.705169 
L 174.026446 275.777775 
L 174.160934 275.733864 
L 174.42991 277.262178 
L 174.698887 262.497386 
L 174.833375 245.403849 
L 175.102351 177.00345 
L 175.371328 143.688403 
L 175.505816 140.79358 
L 175.640304 150.942405 
L 175.774792 150.632637 
L 175.909281 152.03924 
L 176.043769 156.838012 
L 176.178257 156.530631 
L 176.312745 170.980404 
L 176.581722 238.53121 
L 176.850698 265.613676 
L 176.985186 263.123604 
L 177.254163 267.850781 
L 177.388651 267.807346 
L 177.792116 274.355899 
L 177.926604 275.245109 
L 178.19558 264.54548 
L 178.330069 264.105886 
L 178.599045 256.550231 
L 178.733533 255.985585 
L 178.868021 258.290466 
L 179.136998 254.785176 
L 179.271486 255.380369 
L 179.540462 252.897933 
L 179.809439 260.394403 
L 179.943927 267.655565 
L 180.212904 265.756389 
L 180.48188 275.611675 
L 180.616368 275.625517 
L 180.750856 275.997333 
L 180.885345 276.827835 
L 181.019833 276.914226 
L 181.692274 264.618029 
L 181.826762 265.912466 
L 181.96125 259.935241 
L 182.095738 261.715569 
L 182.364715 267.148195 
L 182.499203 268.424972 
L 182.633691 271.569423 
L 182.902668 270.752286 
L 183.171644 276.876997 
L 183.306132 278.291713 
L 183.440621 277.182946 
L 183.575109 274.883315 
L 183.844085 286.604843 
L 183.978573 287.555147 
L 184.113062 285.278427 
L 184.382038 273.903419 
L 184.919991 182.262339 
L 185.054479 186.274044 
L 185.188967 179.208098 
L 185.457944 183.06468 
L 185.592432 184.562447 
L 185.995897 222.281539 
L 186.264873 252.849726 
L 186.53385 268.59155 
L 186.802826 278.835835 
L 187.071802 289.323066 
L 187.206291 288.173728 
L 187.340779 289.306837 
L 187.475267 286.132317 
L 187.609755 278.141364 
L 188.01322 202.302725 
L 188.147708 185.918455 
L 188.282196 186.137059 
L 188.416684 185.179595 
L 188.551173 188.488715 
L 188.685661 194.884532 
L 188.820149 190.476668 
L 188.954637 194.907919 
L 189.089126 203.273075 
L 189.627078 265.219427 
L 189.761567 267.805914 
L 189.896055 273.03712 
L 190.030543 270.603368 
L 190.299519 272.433336 
L 190.434008 271.262997 
L 190.971961 274.684759 
L 191.106449 271.235313 
L 191.240937 270.750377 
L 191.375425 271.188538 
L 191.509913 266.763492 
L 191.644402 268.311375 
L 191.913378 267.04653 
L 192.182354 261.41487 
L 192.316843 261.763299 
L 192.451331 261.265476 
L 192.585819 262.585209 
L 192.720307 268.350513 
L 192.989284 269.607244 
L 193.392748 266.921955 
L 193.661725 269.801982 
L 193.796213 270.33608 
L 194.065189 262.454907 
L 194.603142 158.783008 
L 194.73763 153.874935 
L 194.872119 143.930394 
L 195.006607 145.505006 
L 195.141095 150.245547 
L 195.275583 142.852174 
L 195.54456 156.236137 
L 195.948024 250.195939 
L 196.217001 260.525184 
L 196.351489 262.450611 
L 196.485977 271.917375 
L 196.620465 271.265383 
L 196.889442 271.821915 
L 197.02393 272.949774 
L 197.158418 271.220994 
L 197.292907 264.903454 
L 197.830859 196.230517 
L 197.965348 198.540648 
L 198.099836 195.224846 
L 198.234324 199.626028 
L 198.5033 186.308887 
L 198.772277 200.100464 
L 199.31023 272.593231 
L 199.713694 281.700111 
L 199.848183 280.532158 
L 200.117159 281.259563 
L 200.251647 279.477326 
L 200.386135 273.701999 
L 200.520624 273.299158 
L 200.655112 260.34906 
L 200.7896 213.15509 
L 200.924088 211.186228 
L 201.058576 199.509566 
L 201.193065 199.151592 
L 201.327553 196.468212 
L 201.462041 198.639449 
L 201.731018 186.846803 
L 201.865506 188.207108 
L 202.134482 210.888393 
L 202.403459 264.328308 
L 202.806923 274.121068 
L 203.0759 265.654724 
L 203.210388 269.97906 
L 203.344876 270.105067 
L 203.748341 260.734241 
L 203.882829 243.357665 
L 204.151805 181.434701 
L 204.420782 164.972632 
L 204.55527 159.347177 
L 204.689758 162.781826 
L 204.824246 156.286253 
L 204.958735 172.300138 
L 205.093223 172.546425 
L 205.765664 260.153844 
L 205.900152 260.664555 
L 206.03464 264.462429 
L 206.169129 279.302634 
L 206.303617 279.783275 
L 206.572593 283.719566 
L 206.84157 284.530499 
L 207.110546 275.14774 
L 207.379522 265.970219 
L 207.514011 265.092942 
L 207.917475 273.206084 
L 208.051964 272.959797 
L 208.32094 266.602642 
L 208.589916 268.203505 
L 208.858893 276.250302 
L 208.993381 279.901645 
L 209.127869 280.484906 
L 209.262357 279.941261 
L 209.396846 274.090043 
L 209.531334 275.186878 
L 209.80031 274.772105 
L 209.934799 275.762502 
L 210.203775 263.588494 
L 211.010704 108.553889 
L 211.279681 134.161022 
L 211.683145 167.24267 
L 212.221098 254.831475 
L 212.355586 257.293864 
L 212.759051 272.525932 
L 212.893539 272.318784 
L 213.028027 272.419017 
L 213.162516 275.066599 
L 213.431492 257.372619 
L 213.56598 219.313212 
L 213.834957 135.439231 
L 213.969445 140.022263 
L 214.103933 138.931633 
L 214.238421 141.891369 
L 214.910862 180.192767 
L 215.448815 260.447384 
L 215.583303 265.411301 
L 215.717792 266.028927 
L 216.121256 270.289782 
L 216.255745 271.246768 
L 216.390233 273.636608 
L 216.524721 269.629677 
L 216.659209 262.113637 
L 217.062674 149.070912 
L 217.197162 150.982498 
L 217.33165 151.063162 
L 217.466138 162.525039 
L 217.600627 161.24158 
L 217.735115 149.389749 
L 217.869603 154.619045 
L 218.273068 196.799458 
L 218.542044 255.605177 
L 218.811021 272.399447 
L 218.945509 264.982209 
L 219.483462 275.699975 
L 219.61795 277.497964 
L 219.886926 263.750298 
L 220.290391 162.185201 
L 220.693856 150.527154 
L 220.828344 161.189077 
L 220.962832 157.269013 
L 221.231808 184.417825 
L 221.500785 198.280997 
L 221.769761 255.46867 
L 222.038738 271.098806 
L 222.173226 270.346104 
L 222.307714 271.570855 
L 222.576691 277.62063 
L 222.845667 280.259143 
L 222.980155 278.587162 
L 223.114643 280.460086 
L 223.38362 259.911376 
L 223.518108 263.775595 
L 223.652596 263.619041 
L 223.921573 256.658101 
L 224.190549 255.985585 
L 224.325037 258.474704 
L 224.459525 257.8461 
L 224.728502 253.986654 
L 225.131967 261.256884 
L 225.266455 259.770573 
L 225.535431 261.243042 
L 225.669919 259.929991 
L 226.073384 269.69984 
L 226.34236 272.731648 
L 226.476849 272.659576 
L 226.745825 269.511784 
L 226.880313 271.796618 
L 227.014802 272.040041 
L 227.14929 271.742683 
L 227.283778 270.321761 
L 227.418266 272.000425 
L 227.552754 272.129296 
L 227.687243 271.959854 
L 227.956219 270.849655 
L 228.090707 276.672712 
L 228.225195 276.711851 
L 228.359684 277.814891 
L 228.494172 277.041188 
L 228.62866 278.013447 
L 228.763148 277.898895 
L 228.897637 275.607857 
L 229.301101 276.512817 
L 229.435589 270.291214 
L 229.570078 256.18987 
L 230.242519 94.548959 
L 230.377007 79.693003 
L 230.511495 109.711341 
L 230.780471 117.672701 
L 231.049448 145.177101 
L 231.587401 254.028656 
L 231.856377 265.266202 
L 232.125354 270.08693 
L 232.39433 274.749672 
L 232.528818 273.934921 
L 232.797795 256.808927 
L 232.932283 220.491665 
L 233.201259 133.221696 
L 233.335748 125.035528 
L 233.470236 135.345203 
L 233.604724 135.567624 
L 233.739212 148.375964 
L 233.8737 133.620241 
L 234.008189 140.3516 
L 234.815118 264.683897 
L 234.949606 264.417086 
L 235.218583 270.328444 
L 235.622047 278.075974 
L 235.756535 277.47744 
L 236.025512 264.805131 
L 236.563465 129.061074 
L 236.832441 116.834086 
L 237.63937 200.632653 
L 237.908347 258.777789 
L 238.177323 266.876612 
L 238.849764 281.813231 
L 238.984252 280.987502 
L 239.118741 277.184378 
L 239.253229 263.266793 
L 239.791182 128.290235 
L 240.194646 146.047218 
L 240.463623 165.19744 
L 240.732599 178.670658 
L 241.270552 256.24285 
L 241.674017 262.12557 
L 241.942993 275.084736 
L 242.077481 281.592241 
L 242.21197 280.965547 
L 242.480946 262.975641 
L 242.884411 151.098959 
L 243.018899 158.98061 
L 243.153387 156.731097 
L 243.287875 145.73936 
L 243.422363 153.729836 
L 243.556852 150.914722 
L 243.825828 167.575348 
L 244.229293 239.65191 
L 244.498269 262.064953 
L 244.767246 267.344365 
L 245.17071 275.21122 
L 245.305198 276.077042 
L 245.439687 275.781116 
L 245.574175 274.551115 
L 245.708663 263.082556 
L 245.843151 268.53666 
L 246.112128 265.551628 
L 246.381104 260.367197 
L 246.515592 260.333786 
L 247.188033 270.586663 
L 247.322522 270.992368 
L 247.45701 271.860099 
L 247.591498 271.505465 
L 247.725986 274.671394 
L 247.860475 273.232336 
L 248.129451 274.556842 
L 248.263939 273.672883 
L 248.398427 274.355899 
L 248.532916 274.202686 
L 248.667404 276.149114 
L 248.801892 276.050313 
L 249.205357 277.590083 
L 249.339845 277.706544 
L 249.608821 276.757672 
L 249.743309 276.889406 
L 249.877798 276.589185 
L 250.550239 273.421824 
L 250.819215 273.722045 
L 250.953703 274.500998 
L 251.088192 273.364548 
L 251.357168 274.62271 
L 251.491656 283.523396 
L 251.626144 283.033686 
L 251.760633 283.464211 
L 251.895121 283.304315 
L 252.164097 271.057758 
L 252.70205 143.625877 
L 252.836538 163.363654 
L 252.971027 159.918982 
L 253.240003 172.829464 
L 253.374491 174.182608 
L 253.508979 171.256761 
L 253.777956 204.080666 
L 254.046932 255.444327 
L 254.315909 276.773423 
L 254.719373 285.12951 
L 254.853862 284.889428 
L 255.122838 286.622981 
L 255.391814 265.855667 
L 255.660791 172.619929 
L 255.795279 176.067465 
L 256.198744 160.393418 
L 256.333232 164.067194 
L 256.46772 161.40243 
L 256.602208 162.598543 
L 257.409138 257.686204 
L 257.812602 265.158332 
L 258.081579 280.366058 
L 258.216067 281.429959 
L 258.350555 280.700645 
L 258.619532 266.529137 
L 258.888508 177.424428 
L 259.022996 178.293591 
L 259.157484 169.240169 
L 259.291973 168.664546 
L 259.426461 153.179032 
L 259.695437 166.879922 
L 259.829925 155.747859 
L 259.964414 164.821328 
L 260.771343 260.756674 
L 261.040319 262.99521 
L 261.309296 270.494544 
L 261.443784 273.708681 
L 261.71276 270.794288 
L 261.847249 258.402631 
L 262.116225 170.24059 
L 262.250713 174.407894 
L 262.654178 147.977419 
L 262.788666 155.278196 
L 262.923154 150.508062 
L 263.326619 185.65785 
L 263.461107 196.556035 
L 263.864572 245.332254 
L 264.268036 263.375618 
L 264.402525 262.618143 
L 264.671501 266.048019 
L 264.805989 265.922012 
L 264.940478 264.971231 
L 265.074966 257.403166 
L 265.209454 238.286832 
L 265.612919 123.991673 
L 265.881895 105.879578 
L 266.016383 115.381185 
L 266.150871 115.250405 
L 266.28536 114.80222 
L 266.419848 119.43346 
L 266.688824 156.707232 
L 266.957801 235.518016 
L 267.226777 252.183415 
L 267.361265 250.761062 
L 267.495754 267.129103 
L 267.630242 266.813131 
L 267.76473 268.682237 
L 267.899218 268.993436 
L 268.168195 275.514306 
L 268.302683 276.39922 
L 268.437171 273.837552 
L 268.706147 276.373923 
L 268.975124 272.879134 
L 269.2441 270.994277 
L 269.916541 256.500592 
L 270.320006 258.390222 
L 270.588982 263.277294 
L 270.723471 277.375775 
L 270.857959 278.415811 
L 270.992447 276.937614 
L 271.126935 277.821096 
L 271.261424 277.850688 
L 271.395912 277.664541 
L 271.799376 280.442426 
L 271.933865 279.056825 
L 272.068353 279.411936 
L 272.202841 278.767104 
L 272.337329 279.003367 
L 272.471817 278.159978 
L 272.606306 275.993992 
L 272.740794 277.276974 
L 272.875282 276.954319 
L 273.00977 276.277031 
L 273.144258 273.94208 
L 273.278747 273.842325 
L 273.547723 276.82163 
L 273.682211 277.035937 
L 273.8167 277.719908 
L 273.951188 276.857905 
L 274.085676 287.512668 
L 274.354652 289.145987 
L 274.489141 287.573285 
L 274.758117 272.844768 
L 275.29607 166.262296 
L 275.565046 154.014784 
L 275.699535 154.352235 
L 275.834023 172.322094 
L 275.968511 174.605973 
L 276.102999 184.771504 
L 276.77544 264.160776 
L 277.447881 281.577922 
L 277.58237 284.977728 
L 277.716858 284.586343 
L 277.851346 280.183729 
L 277.985834 270.190504 
L 278.389299 209.623549 
L 278.523787 190.118693 
L 278.658275 188.11833 
L 278.792763 178.593336 
L 278.927252 190.735842 
L 279.06174 184.909444 
L 279.196228 187.002403 
L 279.330716 194.706022 
L 280.137646 274.544433 
L 280.272134 276.933318 
L 280.406622 268.568162 
L 280.54111 268.283691 
L 280.810087 269.45594 
L 280.944575 268.832109 
L 281.213551 260.904637 
L 281.348039 231.923472 
L 281.482528 161.380951 
L 281.617016 151.161008 
L 281.751504 127.735612 
L 281.885992 128.888769 
L 282.154969 142.414012 
L 282.289457 124.276621 
L 282.423945 128.369467 
L 282.558433 137.490188 
L 282.82741 185.992437 
L 283.096386 254.629099 
L 283.365363 261.266907 
L 283.499851 263.476805 
L 283.634339 262.804767 
L 283.768827 262.815268 
L 283.903316 263.004756 
L 284.037804 264.311125 
L 284.172292 264.440474 
L 284.441268 259.24077 
L 285.113709 143.824911 
L 285.248198 142.747645 
L 285.382686 138.205183 
L 285.517174 147.458117 
L 285.651662 144.353281 
L 285.78615 147.846639 
L 286.055127 201.040744 
L 286.324103 250.67658 
L 286.59308 260.366243 
L 286.727568 260.244531 
L 286.862056 279.205265 
L 286.996544 279.26445 
L 287.131033 278.285508 
L 287.265521 278.891679 
L 287.668985 275.361093 
L 287.803474 276.239324 
L 288.07245 275.363479 
L 288.206938 273.189856 
L 288.341427 273.134489 
L 288.475915 270.785697 
L 288.610403 270.414358 
L 288.744891 269.289362 
L 288.879379 272.120227 
L 289.013868 272.460064 
L 289.148356 269.64686 
L 289.417332 276.808265 
L 289.55182 277.996265 
L 289.820797 277.634471 
L 289.955285 278.425357 
L 290.089773 276.924727 
L 290.224262 278.473087 
L 290.35875 277.565263 
L 290.493238 278.546114 
L 290.627726 277.003004 
L 291.031191 259.009279 
L 291.300167 192.766275 
L 291.434655 187.177095 
L 291.569144 187.785175 
L 291.703632 191.851769 
L 291.972608 179.095932 
L 292.376073 192.186833 
L 293.048514 268.645962 
L 293.183002 269.893624 
L 293.31749 268.740945 
L 293.451979 269.493169 
L 293.586467 268.562912 
L 293.720955 271.040098 
L 293.855443 271.303567 
L 294.258908 247.362688 
L 294.527884 189.325898 
L 294.796861 157.617442 
L 294.931349 141.735292 
L 295.065837 141.601171 
L 295.200325 149.579714 
L 295.334814 143.854981 
L 295.60379 171.935481 
L 295.738278 186.437757 
L 296.141743 256.698194 
L 296.276231 255.807553 
L 296.410719 263.011915 
L 296.545208 280.703986 
L 296.948672 282.869018 
L 297.486625 284.835493 
L 297.621113 284.489928 
L 297.755601 284.48611 
L 298.024578 281.312066 
L 298.159066 281.161717 
L 298.428042 279.019595 
L 298.697019 275.19356 
L 298.831507 274.058064 
L 298.965995 273.915829 
L 299.100484 274.271417 
L 299.36946 278.055927 
L 299.503948 277.549512 
L 299.638436 279.092622 
L 299.772925 269.434461 
L 299.907413 272.836177 
L 300.041901 272.534523 
L 300.176389 273.400822 
L 300.310877 273.117306 
L 300.579854 262.14848 
L 301.252295 128.067336 
L 301.386783 128.136067 
L 301.521271 141.326246 
L 301.65576 134.385353 
L 301.790248 143.798659 
L 302.597177 252.582438 
L 302.731665 254.335083 
L 303.000642 266.741059 
L 303.13513 266.965389 
L 303.269618 267.445553 
L 303.404106 269.904601 
L 303.538595 270.323671 
L 303.807571 253.967562 
L 304.345524 164.204179 
L 304.6145 153.68306 
L 304.748988 161.919345 
L 304.883477 152.347575 
L 305.017965 158.426943 
L 306.093871 265.192698 
L 306.228359 266.203142 
L 306.497335 276.35674 
L 306.766312 277.386276 
L 306.9008 272.678668 
L 307.035288 262.141321 
L 307.304265 169.681194 
L 307.438753 176.941401 
L 307.842217 157.68331 
L 307.976706 164.733027 
L 308.111194 156.315846 
L 308.245682 161.277377 
L 308.649147 207.270461 
L 309.052611 263.624768 
L 309.590564 275.853189 
L 309.994029 277.556194 
L 310.128517 274.003652 
L 310.263005 261.390051 
L 310.531982 169.569983 
L 310.66647 170.72123 
L 310.935446 168.432578 
L 311.069934 159.08323 
L 311.204423 165.537278 
L 311.338911 164.246659 
L 311.473399 157.474252 
L 311.607887 170.60811 
L 311.876864 208.17733 
L 312.14584 250.496161 
L 312.414817 262.299307 
L 312.818281 270.908363 
L 312.952769 270.474497 
L 313.087258 272.359832 
L 313.221746 272.26103 
L 313.356234 273.837552 
L 313.625211 263.283499 
L 313.759699 255.393734 
L 313.894187 258.74581 
L 314.028675 256.217553 
L 314.163163 258.100501 
L 314.297652 255.340753 
L 314.566628 261.902671 
L 314.701116 262.637235 
L 314.970093 267.389709 
L 315.104581 267.352002 
L 315.239069 267.055599 
L 315.508045 269.987652 
L 315.642534 270.524614 
L 315.777022 270.194322 
L 316.180487 273.183651 
L 316.314975 272.744058 
L 316.718439 275.0981 
L 316.852928 275.347251 
L 316.987416 274.493839 
L 317.121904 274.559229 
L 317.256392 273.439484 
L 317.39088 273.584105 
L 317.525369 272.045291 
L 317.659857 272.96457 
L 317.928833 270.445382 
L 318.332298 266.709079 
L 318.466786 267.363457 
L 318.601274 266.860861 
L 318.735763 268.317102 
L 318.870251 268.153389 
L 319.139227 269.269793 
L 319.273715 279.105509 
L 319.67718 280.223823 
L 319.811668 277.644972 
L 319.946157 269.690771 
L 320.349621 147.698198 
L 320.484109 131.546851 
L 320.887574 158.825965 
L 321.022062 163.492525 
L 321.291039 178.275454 
L 321.425527 180.075829 
L 321.560015 198.516783 
L 321.828991 254.046316 
L 321.96348 262.134161 
L 322.097968 262.920751 
L 322.635921 279.62147 
L 322.770409 279.968467 
L 322.904897 279.309316 
L 323.173874 268.876975 
L 323.44285 173.406996 
L 323.577338 173.768789 
L 323.711826 173.97021 
L 323.980803 153.792362 
L 324.249779 157.33154 
L 324.384268 160.097969 
L 324.787732 196.342682 
L 325.056709 250.867977 
L 325.325685 260.140003 
L 325.863638 277.962854 
L 325.998126 279.730295 
L 326.132614 279.795685 
L 326.267103 276.582503 
L 326.401591 267.583015 
L 326.670567 166.215998 
L 326.805055 172.171744 
L 326.939544 173.343993 
L 327.20852 160.117061 
L 327.343008 168.26075 
L 327.611985 164.506787 
L 327.746473 169.366654 
L 328.149937 224.064254 
L 328.418914 254.910229 
L 328.68789 267.721432 
L 328.822379 270.174753 
L 328.956867 280.221436 
L 329.225843 281.168399 
L 329.360331 280.321192 
L 329.629308 267.48851 
L 330.032772 178.471147 
L 330.301749 167.131936 
L 330.570725 158.323369 
L 330.839702 180.177494 
L 330.97419 181.389835 
L 331.108678 184.135263 
L 331.781119 260.020678 
L 332.050096 267.183993 
L 332.184584 277.958558 
L 332.319072 278.914589 
L 332.45356 278.249711 
L 332.588049 279.237244 
L 332.857025 266.62937 
L 333.26049 177.839679 
L 333.394978 179.749356 
L 333.663954 164.838511 
L 333.798442 166.030805 
L 333.932931 169.797655 
L 334.336395 187.661554 
L 334.73986 255.395166 
L 335.143325 271.123148 
L 335.277813 270.924591 
L 335.412301 271.02196 
L 335.546789 271.307386 
L 335.681277 271.20238 
L 335.950254 273.784094 
L 336.084742 271.689703 
L 336.622695 255.227633 
L 336.757183 256.022337 
L 336.891671 254.193325 
L 337.295136 260.55048 
L 337.698601 265.28243 
L 337.833089 264.803221 
L 338.102065 268.902272 
L 338.236553 268.670304 
L 338.371042 269.307499 
L 338.50553 266.972549 
L 339.043483 270.130842 
L 339.446947 273.126375 
L 339.581436 272.64478 
L 339.715924 271.475872 
L 339.850412 271.735046 
L 339.9849 270.955138 
L 340.119388 270.842496 
L 340.253877 270.369014 
L 340.388365 271.84578 
L 340.522853 269.857349 
L 340.657341 270.455883 
L 340.926318 270.137524 
L 341.060806 266.799766 
L 341.329782 271.680634 
L 341.464271 271.578969 
L 341.598759 272.10734 
L 341.733247 273.673361 
L 341.867735 281.49344 
L 342.136712 281.595105 
L 342.2712 282.236596 
L 342.540176 269.54424 
L 342.943641 154.398533 
L 343.212617 171.003315 
L 343.347106 170.269228 
L 343.75057 184.65027 
L 343.885058 186.324637 
L 344.019547 185.662145 
L 344.423011 253.529878 
L 345.22994 279.21672 
L 345.364429 280.300191 
L 345.498917 279.93267 
L 345.633405 275.717158 
L 345.767893 267.635041 
L 346.03687 183.405472 
L 346.171358 187.522183 
L 346.440334 173.961141 
L 346.574823 168.591519 
L 346.843799 175.467977 
L 347.112775 177.336128 
L 347.381752 211.805763 
L 347.650728 250.705218 
L 348.054193 268.661236 
L 348.188681 269.84303 
L 348.323169 278.809106 
L 348.457658 279.656791 
L 348.592146 281.526851 
L 348.726634 281.331635 
L 348.99561 268.429268 
L 349.264587 182.355412 
L 349.399075 183.828837 
L 349.668052 166.277092 
L 349.80254 162.166586 
L 350.206004 180.855737 
L 350.340493 182.035144 
L 351.012934 262.186187 
L 351.147422 264.505864 
L 351.550886 281.162671 
L 351.685375 280.451017 
L 351.954351 280.817584 
L 352.088839 279.421004 
L 352.223328 272.135501 
L 352.492304 178.280227 
L 352.626792 185.441156 
L 352.76128 174.07808 
L 352.895769 173.369767 
L 353.030257 165.096253 
L 353.164745 172.303002 
L 353.299233 170.227225 
L 353.56821 152.462605 
L 354.240651 268.802516 
L 354.375139 269.939444 
L 354.644115 275.798299 
L 354.913092 280.069655 
L 355.182068 281.111123 
L 355.316556 278.710305 
L 355.451045 269.588152 
L 355.854509 196.333614 
L 356.123486 158.024579 
L 356.257974 159.737131 
L 356.392462 168.341414 
L 356.52695 167.708514 
L 356.661439 178.307433 
L 356.795927 177.056908 
L 357.33388 264.495363 
L 357.602856 274.085748 
L 357.737344 276.048882 
L 357.871832 280.301145 
L 358.006321 279.723135 
L 358.140809 279.937443 
L 358.275297 280.67678 
L 358.409785 280.588957 
L 358.678762 279.330317 
L 359.082226 260.875522 
L 359.351203 254.974187 
L 359.485691 248.707241 
L 359.620179 259.433122 
L 359.754667 260.846406 
L 359.889156 261.014416 
L 360.427109 275.293316 
L 360.561597 275.972514 
L 360.965061 280.116908 
L 361.234038 280.077292 
L 361.368526 279.885894 
L 361.503014 281.190355 
L 361.771991 280.783218 
L 361.906479 282.112975 
L 362.040967 282.065245 
L 362.175455 282.440403 
L 362.309944 282.480973 
L 362.57892 279.070666 
L 362.713408 279.021505 
L 362.982385 277.88744 
L 363.116873 276.395878 
L 363.251361 276.294214 
L 363.385849 277.384366 
L 363.520337 276.530954 
L 363.654826 276.471292 
L 364.05829 279.255859 
L 364.192778 253.263067 
L 364.730731 259.517126 
L 364.86522 258.322445 
L 364.999708 246.246761 
L 365.134196 224.105301 
L 365.403172 135.81582 
L 365.672149 105.533536 
L 365.806637 99.614541 
L 366.075613 116.552956 
L 366.34459 113.409937 
L 366.479078 124.837448 
L 367.017031 251.178222 
L 367.151519 256.135935 
L 367.286007 254.401427 
L 367.554984 265.757821 
L 367.689472 266.62412 
L 367.958448 271.52217 
L 368.227425 247.968858 
L 368.496401 152.045922 
L 368.765378 100.182051 
L 369.034354 89.283865 
L 369.168842 94.00436 
L 369.303331 93.559994 
L 369.437819 96.927821 
L 369.572307 94.806223 
L 369.706795 110.910795 
L 370.244748 234.71663 
L 370.782701 278.923181 
L 370.917189 279.228175 
L 371.051677 280.119771 
L 371.186166 279.841028 
L 371.455142 265.021825 
L 371.858607 171.75888 
L 372.127583 203.742738 
L 372.262071 199.682349 
L 372.396559 201.108998 
L 372.665536 190.421779 
L 372.800024 194.216312 
L 373.203489 233.921926 
L 373.472465 256.178414 
L 373.87593 277.371002 
L 374.010418 286.389581 
L 374.144906 286.243527 
L 374.279394 287.450141 
L 374.413883 286.947067 
L 374.682859 270.386197 
L 375.220812 180.984608 
L 375.489788 177.35522 
L 375.624277 177.578119 
L 375.893253 184.113785 
L 376.027741 188.40996 
L 376.565694 255.995609 
L 376.83467 264.886272 
L 376.969159 267.722864 
L 377.103647 279.535556 
L 377.238135 278.44254 
L 377.507112 280.515453 
L 377.6416 278.549455 
L 377.776088 282.08911 
L 378.045064 279.941739 
L 378.179553 270.299806 
L 378.314041 269.674066 
L 378.448529 262.5728 
L 378.583017 263.573697 
L 378.717505 262.656327 
L 378.851994 267.168242 
L 378.986482 266.407903 
L 379.12097 267.316205 
L 379.255458 269.475986 
L 379.389947 269.359525 
L 379.927899 278.615322 
L 380.062388 278.408652 
L 380.196876 278.825334 
L 380.331364 268.914204 
L 380.465852 269.592447 
L 380.869317 272.497294 
L 381.138293 261.598631 
L 381.272782 234.496595 
L 381.541758 159.88223 
L 381.810734 139.71345 
L 381.945223 141.305245 
L 382.214199 147.794136 
L 382.348687 139.801751 
L 382.752152 189.675282 
L 383.021128 257.700523 
L 383.155616 265.631337 
L 383.290105 266.293829 
L 383.424593 267.581583 
L 383.559081 262.651077 
L 383.693569 261.938945 
L 383.962546 262.285465 
L 384.097034 263.476328 
L 384.231522 261.691704 
L 384.36601 263.084465 
L 385.038451 148.857082 
L 385.17294 151.301334 
L 385.307428 166.442715 
L 385.576404 160.796259 
L 386.248845 260.547617 
L 386.921286 279.056347 
L 387.055775 278.241119 
L 387.190263 279.519328 
L 387.324751 278.828198 
L 387.459239 278.989525 
L 387.593727 280.479655 
L 387.728216 279.904986 
L 387.862704 281.222811 
L 387.997192 280.052949 
L 388.13168 281.644267 
L 388.266169 280.659597 
L 388.400657 278.673076 
L 388.535145 278.762331 
L 388.669633 278.099361 
L 388.804121 279.239153 
L 388.93861 276.686554 
L 389.207586 278.828198 
L 389.476562 285.522328 
L 389.611051 284.463199 
L 389.745539 285.280337 
L 389.880027 285.228311 
L 390.014515 270.31317 
L 390.283492 270.562321 
L 390.41798 270.572344 
L 390.552468 270.441564 
L 390.686956 264.93782 
L 390.821445 265.123012 
L 390.955933 256.261942 
L 391.224909 200.045574 
L 391.359397 168.635908 
L 391.493886 164.641863 
L 391.762862 175.346743 
L 391.89735 174.802621 
L 392.031839 167.571529 
L 392.166327 171.274898 
L 392.300815 180.264362 
L 392.569791 240.48623 
L 392.70428 266.80263 
L 392.973256 271.650564 
L 393.107744 272.30876 
L 393.376721 265.244724 
L 393.645697 270.96898 
L 393.780185 267.574424 
L 393.914673 268.960503 
L 394.049162 261.539446 
L 394.721603 146.804216 
L 394.990579 145.731246 
L 395.125067 145.310745 
L 395.259556 156.708186 
L 395.394044 157.579258 
L 395.931997 245.821487 
L 396.200973 259.446963 
L 396.335461 255.705888 
L 396.46995 280.506861 
L 396.604438 280.89061 
L 397.007902 283.929101 
L 397.276879 270.857292 
L 397.545855 197.063405 
L 397.680343 191.869906 
L 397.94932 168.465512 
L 398.083808 154.983225 
L 398.218296 167.741448 
L 398.352785 162.969405 
L 398.487273 165.985462 
L 398.487273 165.985462 
" clip-path="url(#p2b41e05789)" style="fill: none; stroke: #1f77b4; stroke-width: 1.5; stroke-linecap: square"/>
   </g>
   <g id="line2d_13">
    <path d="M 73.832727 281.126467 
L 73.967215 281.044112 
L 74.236192 279.783872 
L 74.37068 278.22902 
L 74.505168 279.079195 
L 74.639657 278.624733 
L 74.774145 279.318427 
L 74.908633 270.350657 
L 75.043121 231.684872 
L 75.581074 247.991331 
L 75.715562 249.372232 
L 75.85005 249.220265 
L 75.984539 251.01264 
L 76.119027 250.432451 
L 76.388003 247.378334 
L 76.65698 281.707777 
L 76.925956 275.314024 
L 77.060444 275.851651 
L 77.194933 262.063437 
L 77.463909 264.159673 
L 77.598397 263.380791 
L 77.732885 264.397186 
L 77.867374 253.36807 
L 78.001862 227.265431 
L 78.270838 127.817649 
L 78.405327 109.850793 
L 78.539815 108.154631 
L 78.674303 108.500977 
L 78.808791 98.439739 
L 78.943279 106.882421 
L 79.077768 108.142416 
L 79.481232 170.943924 
L 79.61572 191.525326 
L 79.884697 251.473264 
L 80.019185 255.460767 
L 80.288161 272.4792 
L 80.42265 261.139444 
L 80.557138 273.112062 
L 80.691626 272.193187 
L 80.826114 268.029225 
L 80.960603 267.874877 
L 81.095091 261.386087 
L 81.229579 242.986307 
L 81.498555 149.50586 
L 81.633044 168.804588 
L 81.90202 150.826446 
L 82.036508 204.824983 
L 82.170996 210.05388 
L 82.305485 208.30958 
L 82.439973 212.234766 
L 82.574461 195.148064 
L 82.708949 219.61939 
L 82.977926 210.283278 
L 83.112414 217.877553 
L 83.246902 210.037908 
L 83.38139 209.985887 
L 83.919343 277.049278 
L 84.053831 279.896337 
L 84.18832 277.75754 
L 84.322808 209.985358 
L 84.457296 228.360639 
L 84.591784 209.985358 
L 84.860761 209.985358 
L 84.995249 210.613535 
L 85.264225 169.672223 
L 85.533202 189.471759 
L 85.66769 190.303904 
L 85.936666 213.943002 
L 86.205643 259.904325 
L 86.340131 261.76277 
L 86.743596 273.465472 
L 87.012572 290.833026 
L 87.14706 291.277792 
L 87.281549 288.225271 
L 87.416037 288.752541 
L 87.550525 288.240285 
L 87.685013 286.53388 
L 87.95399 250.022839 
L 88.088478 258.498629 
L 88.222966 257.179379 
L 88.491942 258.776513 
L 88.626431 253.783097 
L 88.760919 257.307898 
L 88.895407 249.57908 
L 89.298872 258.455486 
L 89.567848 279.426201 
L 89.702336 274.306483 
L 89.971313 278.14032 
L 90.105801 257.891955 
L 90.240289 257.862046 
L 90.374777 262.320898 
L 90.509266 262.916282 
L 90.643754 262.047881 
L 90.778242 262.635596 
L 90.91273 264.86355 
L 91.450683 247.009499 
L 91.585171 253.204753 
L 91.854148 251.821085 
L 92.123124 254.520357 
L 92.257612 256.764942 
L 92.392101 256.517867 
L 93.064542 269.21135 
L 93.19903 267.357519 
L 93.333518 279.274228 
L 93.468006 278.632391 
L 93.736983 272.799765 
L 93.871471 269.692014 
L 94.140447 253.462047 
L 94.409424 170.225671 
L 94.543912 175.60616 
L 94.812888 158.622674 
L 94.947377 157.551223 
L 95.216353 171.121321 
L 95.350841 168.457794 
L 95.48533 160.725844 
L 95.888794 250.698616 
L 96.157771 268.833841 
L 96.292259 267.069664 
L 96.426747 270.394841 
L 96.561235 270.678799 
L 96.830212 265.918528 
L 96.9647 266.837698 
L 97.099188 265.632277 
L 97.233676 261.20085 
L 97.502653 213.688656 
L 97.637141 169.369422 
L 97.771629 175.792219 
L 97.906117 172.987079 
L 98.040606 185.547754 
L 98.44407 178.691908 
L 98.578558 183.797894 
L 98.982023 225.781916 
L 99.250999 269.568015 
L 99.519976 271.001087 
L 99.654464 275.650448 
L 99.788952 285.91337 
L 99.923441 284.539285 
L 100.192417 276.64852 
L 100.326905 277.086237 
L 100.73037 272.165895 
L 101.133834 284.126656 
L 101.268323 285.80098 
L 101.402811 281.696579 
L 101.537299 269.697041 
L 101.671787 275.034042 
L 101.940764 264.025999 
L 102.20974 270.822577 
L 102.344228 271.469706 
L 102.478717 274.29293 
L 102.613205 280.212549 
L 102.747693 276.965694 
L 102.882181 283.518879 
L 103.151158 257.965764 
L 103.285646 267.954492 
L 103.420134 268.037227 
L 103.823599 247.550006 
L 104.227063 163.779642 
L 104.361552 154.643865 
L 104.49604 168.594831 
L 104.765016 143.359671 
L 105.437457 219.084275 
L 105.840922 263.563748 
L 105.97541 255.763614 
L 106.378875 288.802152 
L 106.647851 277.482814 
L 106.782339 278.758275 
L 107.051316 276.134923 
L 107.320292 219.472354 
L 107.589269 253.053295 
L 107.723757 250.82888 
L 107.858245 250.764623 
L 107.992733 251.227832 
L 108.127222 250.768562 
L 108.530686 244.895093 
L 108.665174 249.38912 
L 108.934151 280.6371 
L 109.203127 276.43777 
L 109.337615 277.305647 
L 109.472104 270.91542 
L 109.875568 272.918085 
L 110.144545 271.877945 
L 110.279033 271.969697 
L 110.413521 271.731801 
L 110.682498 277.20976 
L 110.816986 276.253665 
L 111.085962 273.435096 
L 111.22045 274.514931 
L 111.354939 273.500887 
L 111.758403 266.335316 
L 111.892891 267.825173 
L 112.161868 272.649006 
L 112.430844 272.567178 
L 112.565333 273.200931 
L 112.699821 259.653241 
L 112.834309 261.050881 
L 112.968797 264.713256 
L 113.237774 265.377594 
L 113.372262 264.561642 
L 113.775726 270.674259 
L 113.910215 270.264272 
L 114.044703 271.061837 
L 114.179191 269.982474 
L 114.448168 261.433606 
L 114.582656 261.36727 
L 114.717144 259.697846 
L 114.98612 250.075571 
L 115.120609 249.962724 
L 115.389585 261.379214 
L 115.524073 262.61894 
L 115.658561 262.650413 
L 115.927538 261.279159 
L 116.062026 259.840489 
L 116.196514 254.774562 
L 116.331002 262.093009 
L 116.599979 256.550795 
L 116.734467 238.008011 
L 117.003444 127.83516 
L 117.27242 86.078276 
L 117.406908 86.781121 
L 117.541396 77.86515 
L 117.675885 78.06441 
L 117.810373 84.728966 
L 118.213837 146.100738 
L 118.617302 238.027206 
L 118.886279 253.762485 
L 119.020767 254.613687 
L 119.155255 251.722178 
L 119.289743 253.430429 
L 119.55872 249.069927 
L 119.693208 250.840849 
L 119.827696 249.175787 
L 119.962184 230.291491 
L 120.231161 121.452286 
L 120.500137 96.456951 
L 120.769114 87.550174 
L 120.903602 87.128098 
L 121.03809 88.583389 
L 121.172578 94.820856 
L 121.576043 174.654989 
L 121.845019 234.94197 
L 122.113996 248.313014 
L 122.248484 243.482197 
L 122.382972 246.045009 
L 122.51746 258.37565 
L 122.651948 258.502842 
L 122.786437 251.716756 
L 122.920925 250.746991 
L 123.055413 246.760628 
L 123.189901 231.642846 
L 123.458878 123.228701 
L 123.727854 82.377126 
L 123.862342 80.53511 
L 123.996831 81.924688 
L 124.131319 89.134285 
L 124.400295 114.820968 
L 124.534783 120.674842 
L 124.669272 137.622007 
L 125.072736 240.072941 
L 125.207225 257.87889 
L 125.341713 260.230629 
L 125.610689 254.150942 
L 125.879666 269.135971 
L 126.148642 262.115179 
L 126.417618 234.385132 
L 126.686595 131.877937 
L 127.09006 89.146447 
L 127.762501 135.977515 
L 128.031477 186.082617 
L 128.300453 245.888845 
L 128.56943 256.930272 
L 128.703918 255.996902 
L 128.838406 259.857529 
L 129.107383 257.043805 
L 129.241871 259.613472 
L 129.376359 258.791503 
L 129.645336 217.059513 
L 130.0488 94.140808 
L 130.317777 89.01975 
L 130.452265 94.807252 
L 130.586753 122.378989 
L 130.855729 117.687403 
L 131.124706 168.330564 
L 131.528171 251.302057 
L 131.797147 261.487678 
L 131.931635 264.623646 
L 132.200612 258.334505 
L 132.3351 261.773733 
L 132.469588 270.199257 
L 132.873053 265.49727 
L 133.142029 248.567394 
L 133.411005 241.040711 
L 133.679982 238.954396 
L 133.81447 240.399252 
L 133.948958 240.21515 
L 134.083447 236.213684 
L 134.755888 255.671023 
L 134.890376 256.805232 
L 135.024864 255.894083 
L 135.29384 261.447138 
L 135.562817 262.251315 
L 135.831793 264.419053 
L 135.966282 269.551567 
L 136.10077 269.265327 
L 136.235258 263.459616 
L 136.504234 268.182431 
L 136.638723 265.196723 
L 136.773211 267.249694 
L 136.907699 266.832285 
L 137.042187 265.921207 
L 137.445652 252.487435 
L 137.58014 255.525921 
L 137.714628 254.102238 
L 138.118093 262.826669 
L 138.387069 260.3084 
L 138.521558 264.432282 
L 138.790534 256.147711 
L 139.05951 260.787116 
L 139.328487 226.839328 
L 139.597463 124.556842 
L 139.731951 93.985923 
L 140.000928 92.00067 
L 140.135416 91.995809 
L 140.404393 105.163941 
L 140.942345 178.670475 
L 141.211322 250.28393 
L 141.34581 246.929408 
L 141.614786 266.654532 
L 141.749275 261.873794 
L 141.883763 264.10598 
L 142.287228 256.812483 
L 142.690692 159.256393 
L 142.959669 94.539791 
L 143.094157 97.216093 
L 143.363133 88.18968 
L 143.497621 97.646515 
L 143.63211 93.822473 
L 143.766598 101.67289 
L 144.304551 236.227247 
L 144.439039 240.738425 
L 144.842504 271.165815 
L 145.11148 260.753978 
L 145.245968 260.625527 
L 145.380456 262.085455 
L 145.514945 252.997735 
L 146.321874 90.907695 
L 146.725339 113.716702 
L 146.859827 111.807099 
L 147.263291 151.997569 
L 147.532268 242.875524 
L 148.070221 265.904828 
L 148.339197 264.722044 
L 148.87715 255.960856 
L 149.011638 226.319201 
L 149.280615 130.814664 
L 149.415103 109.63787 
L 149.549591 116.031589 
L 149.818567 99.832422 
L 150.222032 145.915743 
L 150.35652 146.080886 
L 150.491009 158.100463 
L 150.759985 244.027198 
L 151.028961 257.201869 
L 151.16345 265.27174 
L 151.297938 265.84579 
L 151.432426 262.374306 
L 151.566914 262.631587 
L 151.701402 264.058868 
L 151.970379 262.423 
L 152.104867 258.387963 
L 152.64282 102.544109 
L 152.777308 119.367475 
L 153.046285 94.648885 
L 153.315261 114.257634 
L 153.584237 177.37687 
L 153.718726 190.08213 
L 154.12219 262.303252 
L 154.256678 269.319938 
L 154.391167 268.10435 
L 154.525655 274.218016 
L 154.660143 272.257596 
L 154.794631 272.240728 
L 154.92912 271.621218 
L 155.063608 271.749838 
L 155.332584 275.221581 
L 155.467072 273.522807 
L 155.601561 266.487627 
L 155.736049 251.295438 
L 156.139513 260.887871 
L 156.274002 260.483526 
L 156.40849 258.785959 
L 156.542978 259.578288 
L 156.677466 261.394582 
L 156.811955 260.981063 
L 157.484396 271.490456 
L 157.753372 270.114195 
L 158.022348 272.026156 
L 158.156837 271.186453 
L 158.291325 271.330334 
L 158.694789 278.054293 
L 158.829278 274.610426 
L 159.098254 276.55026 
L 159.232742 274.10057 
L 159.367231 274.838305 
L 159.501719 277.4774 
L 159.636207 276.182115 
L 160.039672 263.545416 
L 160.17416 260.198926 
L 160.443136 263.59633 
L 160.577624 269.7084 
L 160.712113 269.339122 
L 160.981089 265.171803 
L 161.115577 265.702493 
L 161.250066 268.256917 
L 161.384554 267.269908 
L 161.65353 263.537301 
L 161.922507 231.072336 
L 162.325971 106.114933 
L 162.460459 86.858181 
L 162.729436 89.879954 
L 162.863924 86.489432 
L 163.132901 118.423855 
L 163.267389 129.059046 
L 163.93983 247.113442 
L 164.208806 263.924025 
L 164.343294 259.932378 
L 164.477783 270.184212 
L 164.612271 270.314729 
L 164.746759 269.5761 
L 165.150224 227.530907 
L 165.553688 112.38751 
L 165.688177 121.925662 
L 165.957153 102.050208 
L 166.091641 115.35001 
L 166.226129 114.204484 
L 166.360618 111.091751 
L 166.495106 118.242208 
L 166.629594 136.499506 
L 166.89857 237.87814 
L 167.033059 243.717342 
L 167.167547 243.025436 
L 167.436523 256.082027 
L 167.571012 255.099872 
L 167.839988 261.671498 
L 167.974476 260.966276 
L 168.108964 259.641102 
L 168.243453 247.471556 
L 168.377941 222.285066 
L 168.781405 101.762472 
L 168.915894 109.204423 
L 169.050382 98.70291 
L 169.18487 97.019779 
L 169.319358 106.414137 
L 169.453847 96.518768 
L 169.588335 105.211334 
L 169.857311 162.739681 
L 169.991799 183.021837 
L 170.260776 250.777876 
L 170.529752 261.677842 
L 170.798729 262.890925 
L 171.067705 259.138444 
L 171.202193 259.201968 
L 171.336681 262.228989 
L 171.740146 176.854752 
L 172.009123 106.688069 
L 172.278099 109.381302 
L 172.412587 96.634066 
L 172.547075 95.41295 
L 173.219516 193.933174 
L 173.488493 249.787039 
L 173.891958 270.068957 
L 174.026446 283.819013 
L 174.42991 272.090733 
L 174.564399 272.553158 
L 174.967863 213.677372 
L 175.102351 167.099918 
L 175.505816 141.439355 
L 175.640304 142.932782 
L 175.774792 155.189652 
L 175.909281 155.398994 
L 176.043769 155.981354 
L 176.447234 200.061945 
L 176.71621 256.443478 
L 176.850698 258.268035 
L 176.985186 267.674858 
L 177.119675 268.776156 
L 177.254163 266.776016 
L 177.388651 268.256906 
L 177.523139 266.926513 
L 177.926604 272.066291 
L 178.061092 271.960939 
L 178.330069 255.842886 
L 178.464557 259.833618 
L 178.599045 254.264959 
L 178.733533 257.203554 
L 178.868021 257.262366 
L 179.00251 260.276132 
L 179.271486 256.159197 
L 179.405974 256.250169 
L 179.540462 254.718879 
L 179.674951 255.285415 
L 180.078415 271.543483 
L 180.347392 267.627668 
L 180.616368 277.715204 
L 180.885345 273.485786 
L 181.019833 273.883053 
L 181.154321 273.537197 
L 181.557786 261.675538 
L 181.692274 264.97401 
L 181.826762 264.396554 
L 181.96125 266.684398 
L 182.095738 260.801672 
L 182.230227 262.676767 
L 182.499203 269.251209 
L 182.633691 270.158181 
L 182.76818 272.921833 
L 183.037156 271.082685 
L 183.306132 276.944811 
L 183.440621 276.66712 
L 183.575109 278.165355 
L 183.709597 272.805494 
L 183.978573 289.312682 
L 184.113062 286.619473 
L 184.24755 278.472472 
L 184.516526 255.06001 
L 184.785503 181.935943 
L 184.919991 183.128226 
L 185.054479 173.914412 
L 185.188967 184.621024 
L 185.323456 182.140704 
L 185.457944 181.906016 
L 185.72692 190.206802 
L 186.264873 258.106954 
L 186.802826 278.445211 
L 186.937314 283.462031 
L 187.071802 294.179396 
L 187.206291 293.751746 
L 187.475267 285.432027 
L 187.609755 278.763806 
L 187.744243 262.355267 
L 188.01322 180.836294 
L 188.147708 185.498467 
L 188.282196 178.235466 
L 188.551173 187.217999 
L 188.685661 187.416372 
L 188.820149 196.194476 
L 188.954637 195.368749 
L 189.223614 219.883351 
L 189.627078 269.240179 
L 189.761567 268.532215 
L 189.896055 269.194047 
L 190.030543 277.412958 
L 190.299519 269.245158 
L 190.434008 268.578857 
L 190.702984 264.269234 
L 190.971961 265.766838 
L 191.106449 264.160822 
L 191.240937 258.50293 
L 191.509913 269.986535 
L 191.644402 264.341573 
L 191.913378 266.978638 
L 192.182354 259.561116 
L 192.316843 260.267153 
L 192.451331 263.275331 
L 192.585819 263.377839 
L 192.720307 265.401345 
L 192.854796 272.710039 
L 192.989284 273.212225 
L 193.123772 272.232264 
L 193.392748 266.178673 
L 193.527237 263.485559 
L 193.796213 264.983182 
L 193.930701 263.672211 
L 194.199678 246.475554 
L 194.468654 169.353111 
L 194.603142 163.354448 
L 194.73763 151.213924 
L 194.872119 152.154172 
L 195.006607 146.50767 
L 195.141095 146.57354 
L 195.275583 156.338198 
L 195.410072 149.860401 
L 195.679048 181.203691 
L 195.948024 242.819012 
L 196.217001 263.929947 
L 196.351489 261.133825 
L 196.485977 266.276662 
L 196.620465 276.372712 
L 197.02393 265.952516 
L 197.158418 266.559587 
L 197.292907 262.385122 
L 197.427395 249.377376 
L 197.696371 174.210437 
L 197.830859 178.441093 
L 198.099836 195.81463 
L 198.234324 195.603723 
L 198.368812 201.155382 
L 198.637789 192.185094 
L 198.906765 218.863457 
L 199.31023 274.359464 
L 199.579206 276.395258 
L 199.848183 281.872209 
L 200.117159 278.61816 
L 200.251647 278.504733 
L 200.386135 275.798462 
L 200.520624 267.149339 
L 200.655112 266.677594 
L 200.7896 248.575828 
L 200.924088 186.516967 
L 201.058576 193.351802 
L 201.193065 193.48259 
L 201.462041 196.525421 
L 201.596529 201.138879 
L 201.731018 194.002834 
L 201.865506 193.896734 
L 201.999994 202.526212 
L 202.537947 271.617674 
L 202.672435 268.567861 
L 202.806923 270.218685 
L 202.941411 275.988967 
L 203.210388 262.688088 
L 203.344876 268.109566 
L 203.479364 268.756356 
L 203.882829 254.022065 
L 204.017317 231.23268 
L 204.286294 167.491018 
L 204.420782 163.275706 
L 204.55527 164.518775 
L 204.689758 164.673921 
L 204.824246 170.930677 
L 204.958735 168.745468 
L 205.227711 195.196182 
L 205.765664 262.138878 
L 205.900152 263.927706 
L 206.03464 261.917566 
L 206.169129 268.129532 
L 206.303617 287.158895 
L 206.438105 285.851257 
L 206.572593 282.497713 
L 206.707081 282.787298 
L 206.84157 281.895896 
L 206.976058 280.082248 
L 207.379522 254.618663 
L 207.648499 263.19945 
L 207.917475 274.787306 
L 208.051964 275.866521 
L 208.186452 274.742654 
L 208.455428 266.156051 
L 208.724405 269.870065 
L 208.993381 280.0233 
L 209.127869 282.348849 
L 209.396846 281.578537 
L 209.531334 270.587617 
L 209.665822 270.501722 
L 209.80031 270.250272 
L 209.934799 268.963852 
L 210.069287 269.260061 
L 210.472751 200.227915 
L 210.741728 151.782691 
L 211.010704 123.746602 
L 211.145192 112.285975 
L 211.683145 166.883738 
L 212.221098 260.269159 
L 212.355586 261.900353 
L 212.490075 258.745555 
L 212.759051 272.413134 
L 212.893539 274.995384 
L 213.162516 267.231656 
L 213.297004 269.958247 
L 213.56598 233.33057 
L 213.834957 134.396189 
L 213.969445 122.512695 
L 214.103933 143.30658 
L 214.37291 132.599424 
L 214.641886 161.254207 
L 214.910862 191.266171 
L 215.045351 199.066161 
L 215.448815 269.962291 
L 215.583303 263.959645 
L 215.85228 268.975722 
L 215.986768 268.949291 
L 216.121256 269.715286 
L 216.390233 266.460086 
L 216.524721 268.645573 
L 216.659209 259.89691 
L 216.793697 243.797149 
L 217.062674 145.763601 
L 217.197162 135.238439 
L 217.33165 148.434676 
L 217.466138 148.568987 
L 217.600627 155.430422 
L 217.735115 156.218217 
L 217.869603 146.431578 
L 218.004091 160.589009 
L 218.273068 211.586935 
L 218.407556 219.9217 
L 218.676532 268.423702 
L 218.811021 267.826437 
L 218.945509 273.976629 
L 219.079997 266.784865 
L 219.214485 266.028912 
L 219.483462 272.357108 
L 219.752438 274.344252 
L 220.021414 244.081398 
L 220.290391 142.672172 
L 220.424879 146.9949 
L 220.559367 158.464065 
L 220.828344 148.145527 
L 220.962832 161.272878 
L 221.09732 160.380491 
L 221.366297 203.058546 
L 221.500785 206.689791 
L 221.635273 219.369939 
L 221.904249 269.073655 
L 222.038738 266.120544 
L 222.307714 274.860702 
L 222.442202 272.706995 
L 222.711179 278.282027 
L 222.845667 278.118856 
L 222.980155 278.636765 
L 223.114643 275.148569 
L 223.249132 276.974379 
L 223.518108 248.969395 
L 223.787084 264.091015 
L 224.056061 257.56613 
L 224.325037 257.105678 
L 224.459525 260.012523 
L 224.594014 260.240698 
L 224.86299 255.96206 
L 225.131967 263.499542 
L 225.266455 264.050304 
L 225.400943 262.1381 
L 225.535431 264.116025 
L 225.669919 263.27324 
L 225.804408 260.086639 
L 226.207872 268.584155 
L 226.34236 269.173526 
L 226.611337 271.34639 
L 226.745825 271.882837 
L 226.880313 270.343231 
L 227.14929 273.2772 
L 227.283778 273.471876 
L 227.418266 271.35042 
L 227.687243 274.066734 
L 227.956219 271.633938 
L 228.090707 271.611821 
L 228.225195 277.888151 
L 228.494172 276.680521 
L 228.62866 275.305836 
L 228.763148 279.52562 
L 228.897637 278.601444 
L 229.166613 271.950831 
L 229.301101 272.19299 
L 229.435589 270.924966 
L 229.570078 258.018107 
L 229.704566 230.673244 
L 229.973542 131.898102 
L 230.242519 99.841212 
L 230.511495 80.805044 
L 230.780471 124.873251 
L 230.91496 121.017336 
L 231.318424 206.482876 
L 231.587401 255.469099 
L 231.721889 256.627601 
L 231.990865 271.518078 
L 232.125354 271.598704 
L 232.259842 270.037989 
L 232.39433 270.616257 
L 232.528818 271.827264 
L 232.663306 267.731351 
L 232.932283 232.387203 
L 233.201259 138.428833 
L 233.335748 120.748119 
L 233.470236 124.018009 
L 233.604724 136.16057 
L 233.739212 131.58833 
L 233.8737 140.523081 
L 234.008189 133.769927 
L 234.142677 143.479078 
L 234.411653 200.994149 
L 234.546141 213.22245 
L 234.815118 268.40587 
L 235.084094 264.446446 
L 235.218583 272.819624 
L 235.353071 272.506984 
L 235.487559 274.385376 
L 235.622047 278.787974 
L 235.891024 270.903866 
L 236.16 243.79867 
L 236.428976 138.858165 
L 236.563465 121.783455 
L 236.697953 129.18186 
L 236.832441 124.134849 
L 236.966929 110.113097 
L 237.101417 123.218279 
L 237.235906 150.805059 
L 237.370394 154.101559 
L 237.504882 168.696604 
L 237.908347 255.06579 
L 238.042835 269.259542 
L 238.177323 267.142461 
L 238.311811 267.762002 
L 238.4463 272.730982 
L 238.580788 272.756239 
L 238.715276 274.021832 
L 238.984252 282.553335 
L 239.118741 277.898363 
L 239.253229 268.183916 
L 239.387717 241.589835 
L 239.656694 142.464697 
L 239.92567 123.286347 
L 240.060158 133.930636 
L 240.194646 131.595985 
L 240.329135 137.434206 
L 240.598111 172.17092 
L 240.867087 199.46342 
L 241.270552 258.923302 
L 241.674017 265.066991 
L 241.808505 262.463528 
L 241.942993 275.684851 
L 242.077481 277.29279 
L 242.21197 283.106819 
L 242.346458 279.411244 
L 242.615434 241.096117 
L 242.884411 143.924298 
L 243.018899 136.867857 
L 243.153387 160.103818 
L 243.422363 138.711166 
L 243.556852 149.143423 
L 243.69134 150.786298 
L 243.960316 185.823085 
L 244.229293 240.648885 
L 244.498269 263.502484 
L 244.901734 271.217851 
L 245.036222 272.285241 
L 245.17071 275.545499 
L 245.574175 272.741836 
L 245.708663 270.372385 
L 245.843151 252.803619 
L 246.112128 263.513626 
L 246.246616 261.982403 
L 246.381104 262.331106 
L 246.515592 260.40543 
L 246.919057 265.250932 
L 247.188033 270.67045 
L 247.45701 274.379193 
L 247.591498 274.847706 
L 247.725986 274.278278 
L 247.860475 276.404125 
L 247.994963 274.537712 
L 248.129451 275.336822 
L 248.263939 275.461766 
L 248.667404 272.48356 
L 248.801892 274.151165 
L 249.070868 272.695389 
L 249.205357 271.67425 
L 249.608821 278.698746 
L 249.743309 278.086374 
L 250.012286 278.049466 
L 250.281262 274.425815 
L 250.684727 272.998707 
L 251.088192 274.505124 
L 251.22268 272.769612 
L 251.357168 274.734331 
L 251.491656 274.398372 
L 251.626144 286.763866 
L 251.760633 285.160561 
L 252.029609 279.223751 
L 252.298586 253.036137 
L 252.567562 149.184451 
L 252.70205 131.896128 
L 252.836538 140.940853 
L 252.971027 160.282933 
L 253.105515 152.055947 
L 253.374491 169.805936 
L 253.777956 210.586013 
L 254.181421 266.280198 
L 254.450397 275.523448 
L 254.584885 283.890762 
L 254.719373 283.625787 
L 254.853862 287.535452 
L 254.98835 285.595947 
L 255.122838 285.967264 
L 255.257326 285.129828 
L 255.526303 241.676625 
L 255.795279 150.548045 
L 256.064255 170.811579 
L 256.333232 156.262403 
L 256.602208 161.636243 
L 256.736697 170.654878 
L 257.140161 229.852071 
L 257.409138 258.032399 
L 257.543626 263.453804 
L 257.678114 263.458227 
L 257.812602 267.165248 
L 257.94709 265.649831 
L 258.216067 284.895577 
L 258.350555 282.579773 
L 258.485043 277.490187 
L 258.75402 247.016089 
L 259.022996 150.813908 
L 259.291973 165.469771 
L 259.426461 161.372969 
L 259.560949 149.569143 
L 259.695437 156.891183 
L 259.829925 174.881065 
L 259.964414 161.83413 
L 260.098902 177.063414 
L 260.502366 245.245313 
L 260.636855 257.831413 
L 260.771343 259.521757 
L 261.040319 266.75938 
L 261.174808 263.432698 
L 261.309296 269.564345 
L 261.443784 269.788838 
L 261.578272 271.32115 
L 261.847249 261.237201 
L 261.981737 236.841151 
L 262.250713 148.092612 
L 262.51969 163.186383 
L 262.654178 145.137378 
L 262.788666 146.577244 
L 262.923154 155.595257 
L 263.057643 152.862627 
L 263.730084 238.420014 
L 263.99906 254.589779 
L 264.268036 261.094042 
L 264.402525 267.830944 
L 264.537013 263.276735 
L 264.671501 262.667859 
L 264.940478 258.754851 
L 265.074966 255.468452 
L 265.209454 239.494229 
L 265.747407 112.932623 
L 265.881895 112.604048 
L 266.016383 106.149928 
L 266.28536 119.557442 
L 266.419848 119.918102 
L 266.688824 163.475292 
L 267.092289 253.975511 
L 267.226777 253.401489 
L 267.495754 258.524371 
L 267.630242 271.925586 
L 267.899218 268.954588 
L 268.033706 267.257225 
L 268.302683 274.694386 
L 268.437171 274.89636 
L 268.571659 269.456209 
L 268.840636 275.478721 
L 269.109612 271.525159 
L 269.2441 270.023465 
L 269.378589 270.112711 
L 269.916541 259.234584 
L 270.05103 257.964622 
L 270.723471 267.15157 
L 270.857959 280.892161 
L 270.992447 281.445661 
L 271.126935 275.694228 
L 271.261424 274.909717 
L 271.395912 274.82925 
L 271.5304 274.216215 
L 271.799376 276.930246 
L 271.933865 280.16527 
L 272.068353 277.931449 
L 272.202841 280.434991 
L 272.337329 278.59727 
L 272.471817 280.529854 
L 272.606306 280.692726 
L 272.740794 278.494039 
L 272.875282 279.925648 
L 273.00977 279.388712 
L 273.278747 273.100188 
L 273.413235 272.827983 
L 273.547723 273.891047 
L 273.682211 274.067275 
L 273.8167 272.84465 
L 273.951188 276.662341 
L 274.085676 274.768424 
L 274.220164 288.451346 
L 274.354652 290.167637 
L 274.489141 289.13535 
L 274.623629 285.259561 
L 274.892605 256.468623 
L 275.161582 184.863131 
L 275.430558 153.247678 
L 275.565046 155.930229 
L 275.699535 151.696835 
L 275.834023 154.371848 
L 276.102999 184.135567 
L 276.237487 196.267769 
L 276.506464 237.929706 
L 276.909928 269.36842 
L 277.044417 270.546891 
L 277.178905 277.385105 
L 277.313393 274.983292 
L 277.447881 281.34871 
L 277.58237 281.197004 
L 277.716858 283.72403 
L 277.851346 282.288988 
L 277.985834 275.573449 
L 278.120322 261.401096 
L 278.389299 202.677623 
L 278.523787 197.342856 
L 278.658275 184.854813 
L 278.792763 188.135539 
L 278.927252 182.687932 
L 279.06174 196.803512 
L 279.196228 197.537232 
L 279.330716 200.712494 
L 280.137646 269.720974 
L 280.272134 272.922543 
L 280.406622 279.784376 
L 280.675598 262.432219 
L 280.944575 264.296478 
L 281.079063 262.521865 
L 281.348039 246.240054 
L 281.751504 138.492342 
L 281.885992 124.054168 
L 282.289457 141.54796 
L 282.423945 124.184786 
L 282.558433 132.100092 
L 283.230874 263.439075 
L 283.365363 261.00371 
L 283.634339 266.32672 
L 283.903316 259.010242 
L 284.037804 257.119088 
L 284.172292 257.651716 
L 284.30678 255.99597 
L 284.575757 242.795882 
L 284.979221 150.330515 
L 285.113709 155.873255 
L 285.382686 138.765793 
L 285.517174 137.769487 
L 285.78615 153.899337 
L 285.920639 159.546827 
L 286.324103 248.956827 
L 286.59308 260.930733 
L 286.862056 263.914463 
L 286.996544 286.682149 
L 287.131033 285.584417 
L 287.400009 274.753506 
L 287.668985 269.523691 
L 287.937962 261.102229 
L 288.341427 272.799409 
L 288.475915 273.802683 
L 288.610403 272.212762 
L 288.744891 272.50496 
L 288.879379 271.623126 
L 289.148356 275.611026 
L 289.282844 270.782473 
L 289.55182 281.154579 
L 289.686309 281.19622 
L 289.955285 279.505569 
L 290.224262 275.396956 
L 290.35875 276.728217 
L 290.493238 275.395009 
L 290.627726 275.971618 
L 290.762214 273.388501 
L 291.165679 246.37675 
L 291.434655 176.905067 
L 291.703632 186.141646 
L 291.83812 191.302606 
L 292.107096 176.142147 
L 292.241585 185.467528 
L 292.914026 268.056709 
L 293.048514 266.57949 
L 293.183002 267.586191 
L 293.31749 272.89348 
L 293.586467 268.582921 
L 293.720955 266.501251 
L 293.855443 268.874617 
L 293.989931 268.740781 
L 294.393396 233.120926 
L 294.662373 173.996553 
L 294.931349 153.300351 
L 295.065837 140.493853 
L 295.200325 140.05969 
L 295.334814 151.327935 
L 295.469302 153.167608 
L 295.738278 203.868574 
L 295.872766 212.87109 
L 296.141743 263.918319 
L 296.276231 261.444279 
L 296.410719 256.582766 
L 296.545208 266.505425 
L 296.679696 288.647285 
L 296.814184 287.942932 
L 297.08316 281.006631 
L 297.352137 280.531129 
L 297.621113 273.161697 
L 297.89009 280.549256 
L 298.159066 271.435257 
L 298.293554 273.502924 
L 298.428042 272.719025 
L 298.697019 270.128402 
L 298.965995 273.650472 
L 299.36946 280.195323 
L 299.503948 280.908359 
L 299.638436 279.223118 
L 299.772925 280.258444 
L 299.907413 264.86048 
L 300.176389 268.227762 
L 300.310877 268.379746 
L 300.445366 266.199547 
L 300.714342 240.485016 
L 301.117807 147.359283 
L 301.386783 127.609123 
L 301.521271 128.508759 
L 301.65576 139.028098 
L 301.790248 131.360089 
L 301.924736 146.352548 
L 302.193712 200.843203 
L 302.328201 213.954696 
L 302.597177 256.986338 
L 302.731665 259.462969 
L 302.866153 258.646992 
L 303.13513 271.043756 
L 303.404106 263.287195 
L 303.538595 265.050419 
L 303.673083 263.960866 
L 304.076547 198.121139 
L 304.211036 160.61423 
L 304.345524 163.360526 
L 304.480012 162.251703 
L 304.748988 154.13175 
L 304.883477 161.623703 
L 305.017965 155.447357 
L 305.152453 163.201547 
L 305.42143 212.71149 
L 305.555918 220.933453 
L 305.824894 259.28979 
L 305.959382 264.351433 
L 306.093871 264.049302 
L 306.228359 268.174172 
L 306.362847 266.926097 
L 306.497335 277.221771 
L 306.631823 277.881407 
L 306.9008 272.14189 
L 307.035288 262.620097 
L 307.169776 238.133514 
L 307.438753 151.58646 
L 307.707729 171.666138 
L 307.976706 158.101013 
L 308.111194 163.303381 
L 308.245682 154.788995 
L 308.38017 163.098807 
L 308.918123 248.227192 
L 309.187099 268.817446 
L 309.321588 267.712459 
L 309.456076 275.354044 
L 309.590564 274.824237 
L 309.725052 276.555296 
L 310.128517 271.41461 
L 310.263005 262.770027 
L 310.397493 235.418461 
L 310.66647 150.916469 
L 310.800958 157.30738 
L 310.935446 170.691163 
L 311.204423 157.651065 
L 311.338911 161.869817 
L 311.473399 160.272975 
L 311.607887 162.254135 
L 312.011352 233.393622 
L 312.280328 262.740608 
L 312.414817 263.943547 
L 312.549305 264.052506 
L 312.683793 271.219137 
L 312.818281 271.880659 
L 312.952769 273.312902 
L 313.087258 270.689385 
L 313.221746 271.349118 
L 313.356234 270.159712 
L 313.490722 271.042647 
L 313.894187 246.783694 
L 314.028675 256.780299 
L 314.163163 256.329222 
L 314.297652 258.317945 
L 314.43214 255.939789 
L 314.701116 263.209043 
L 314.835604 263.980939 
L 315.104581 270.136148 
L 315.373557 268.898359 
L 315.508045 272.082178 
L 315.642534 272.403121 
L 315.777022 272.268849 
L 315.91151 270.844209 
L 316.045998 271.460752 
L 316.180487 271.026811 
L 316.314975 271.579924 
L 316.449463 269.818425 
L 316.583951 270.167246 
L 316.852928 269.735628 
L 316.987416 269.802134 
L 317.256392 272.900643 
L 317.39088 273.120192 
L 317.525369 273.652769 
L 317.659857 273.14672 
L 317.794345 275.341043 
L 318.063322 271.8026 
L 318.19781 271.396833 
L 318.466786 268.073886 
L 318.870251 270.973669 
L 319.004739 270.614815 
L 319.273715 267.856523 
L 319.408204 281.399143 
L 319.542692 281.311404 
L 319.946157 268.454479 
L 320.080645 248.902359 
L 320.349621 150.988675 
L 320.618598 127.975646 
L 320.753086 142.894078 
L 320.887574 144.699338 
L 321.022062 149.363214 
L 321.15655 158.097873 
L 321.694503 220.678013 
L 321.96348 266.065921 
L 322.232456 264.390497 
L 322.366944 270.541933 
L 322.501433 269.863017 
L 322.635921 282.39303 
L 322.770409 283.080299 
L 323.039385 276.783181 
L 323.308362 253.190416 
L 323.577338 153.831939 
L 323.846315 176.020752 
L 324.115291 154.093087 
L 324.249779 155.986838 
L 324.384268 155.559329 
L 324.518756 162.082234 
L 324.787732 206.896706 
L 324.92222 218.432504 
L 325.191197 265.215704 
L 325.460173 261.882116 
L 325.594661 268.724685 
L 325.72915 269.119867 
L 325.998126 281.556723 
L 326.132614 280.650567 
L 326.267103 277.277001 
L 326.401591 269.035602 
L 326.536079 247.298934 
L 326.805055 150.091868 
L 326.939544 158.945651 
L 327.074032 176.551048 
L 327.20852 160.819295 
L 327.343008 160.250793 
L 327.477496 167.559751 
L 327.611985 164.340899 
L 327.746473 166.196953 
L 327.880961 180.961728 
L 328.149937 228.530376 
L 328.553402 262.266393 
L 328.68789 264.548113 
L 328.822379 274.60592 
L 328.956867 274.248467 
L 329.091355 285.550053 
L 329.225843 283.817497 
L 329.49482 275.554011 
L 329.763796 245.106774 
L 330.032772 163.591858 
L 330.167261 163.580216 
L 330.301749 171.127064 
L 330.570725 161.418941 
L 330.705214 158.810365 
L 331.108678 191.78746 
L 331.243166 201.248498 
L 331.646631 261.393217 
L 331.781119 263.343094 
L 331.915607 262.22653 
L 332.184584 270.592566 
L 332.319072 283.569109 
L 332.45356 283.543113 
L 332.857025 263.184471 
L 332.991513 244.306747 
L 333.26049 160.901677 
L 333.394978 166.871861 
L 333.529466 181.66352 
L 333.663954 166.947929 
L 333.798442 164.932862 
L 333.932931 165.629411 
L 334.067419 167.613055 
L 334.470883 207.091723 
L 334.73986 257.768506 
L 335.008836 265.471761 
L 335.143325 268.307447 
L 335.277813 276.85215 
L 335.681277 270.534404 
L 335.815766 269.493326 
L 336.084742 271.42642 
L 336.353718 257.860498 
L 336.488207 258.699123 
L 336.622695 257.78763 
L 336.757183 255.594834 
L 336.891671 257.311192 
L 337.02616 256.461267 
L 337.564112 265.560496 
L 337.833089 269.24128 
L 337.967577 268.872065 
L 338.102065 271.414199 
L 338.236553 271.607483 
L 338.371042 269.857312 
L 338.50553 271.184906 
L 338.640018 267.727399 
L 338.774506 267.904522 
L 338.908995 268.30103 
L 339.177971 268.021178 
L 339.312459 268.761663 
L 339.446947 266.134123 
L 339.581436 266.90495 
L 339.850412 271.202015 
L 339.9849 271.312088 
L 340.119388 270.068249 
L 340.253877 271.851182 
L 340.388365 271.19033 
L 340.522853 274.16724 
L 340.657341 272.373543 
L 340.791829 272.521246 
L 340.926318 272.836838 
L 341.060806 272.561465 
L 341.195294 268.899728 
L 341.464271 272.484341 
L 341.598759 271.272558 
L 341.867735 274.266542 
L 342.002223 284.922472 
L 342.136712 284.806846 
L 342.405688 279.335082 
L 342.674664 248.458586 
L 343.078129 137.528303 
L 343.347106 168.247026 
L 343.481594 163.979199 
L 343.75057 174.702015 
L 344.288523 237.685007 
L 344.557499 260.451086 
L 344.691988 260.854039 
L 344.826476 264.965363 
L 344.960964 274.790292 
L 345.095452 275.35387 
L 345.22994 283.648064 
L 345.498917 283.902044 
L 345.633405 281.550199 
L 345.767893 272.687718 
L 345.902382 252.98898 
L 346.171358 162.542819 
L 346.305846 177.875206 
L 346.440334 178.807155 
L 346.709311 168.73967 
L 346.843799 169.102758 
L 346.978287 172.057554 
L 347.247264 196.271218 
L 347.785217 259.666592 
L 348.054193 264.300131 
L 348.188681 273.397557 
L 348.323169 271.291599 
L 348.457658 281.566153 
L 348.592146 281.74168 
L 348.726634 281.687066 
L 348.861122 279.128018 
L 349.130099 245.49142 
L 349.399075 160.124331 
L 349.533563 169.909768 
L 349.80254 165.657869 
L 349.937028 162.7372 
L 350.206004 168.584712 
L 350.474981 196.49128 
L 350.743957 236.691915 
L 351.147422 265.548449 
L 351.28191 265.820317 
L 351.416398 273.942541 
L 351.550886 274.354287 
L 351.685375 284.671495 
L 352.223328 271.40098 
L 352.357816 252.241551 
L 352.626792 158.883489 
L 352.895769 172.928718 
L 353.030257 171.069408 
L 353.164745 166.083056 
L 353.299233 170.042662 
L 353.56821 165.699271 
L 353.702698 167.576269 
L 354.106163 251.996876 
L 354.240651 268.177937 
L 354.375139 270.489653 
L 354.509627 269.128558 
L 354.778604 278.205911 
L 354.913092 281.421927 
L 355.182068 278.717785 
L 355.316556 277.077288 
L 355.451045 269.71779 
L 355.585533 246.811827 
L 355.854509 183.743711 
L 355.988998 183.541969 
L 356.257974 159.471293 
L 356.661439 164.814757 
L 357.468368 274.258174 
L 357.602856 273.371409 
L 357.737344 273.598929 
L 358.006321 281.6927 
L 358.409785 278.018307 
L 358.544274 277.407318 
L 358.81325 272.930116 
L 359.082226 255.573192 
L 359.216715 250.738595 
L 359.351203 251.50482 
L 359.485691 255.098246 
L 359.620179 249.77945 
L 359.754667 262.222284 
L 359.889156 264.34726 
L 360.023644 263.307661 
L 360.29262 273.223625 
L 360.427109 279.299446 
L 360.696085 277.228545 
L 360.830573 278.157771 
L 360.965061 277.688639 
L 361.09955 280.006605 
L 361.368526 279.28478 
L 361.503014 278.086941 
L 361.637502 279.459965 
L 361.771991 278.178346 
L 361.906479 275.360336 
L 362.309944 281.7119 
L 362.444432 277.438112 
L 362.57892 277.605257 
L 362.713408 274.990409 
L 362.982385 279.759156 
L 363.385849 276.874771 
L 363.520337 278.269549 
L 363.789314 276.206259 
L 363.923802 276.501337 
L 364.05829 276.057066 
L 364.192778 279.982388 
L 364.327267 242.459363 
L 364.461755 241.417954 
L 364.730731 250.795769 
L 364.86522 253.114952 
L 364.999708 248.519597 
L 365.403172 149.500204 
L 365.672149 100.131636 
L 365.806637 101.614042 
L 365.941125 93.769264 
L 366.210102 108.160015 
L 366.34459 113.14883 
L 366.479078 126.977389 
L 366.613566 152.976351 
L 366.882543 240.67411 
L 367.151519 256.213579 
L 367.286007 258.967643 
L 367.420496 258.657127 
L 367.689472 267.116966 
L 367.82396 264.297432 
L 368.092937 267.248553 
L 368.63089 133.94175 
L 368.765378 93.994385 
L 369.034354 101.888098 
L 369.303331 85.992176 
L 369.437819 82.433727 
L 369.572307 109.001959 
L 369.706795 113.42893 
L 369.975772 190.480903 
L 370.11026 235.703047 
L 370.513724 255.442672 
L 370.648213 264.772181 
L 370.782701 289.36688 
L 370.917189 288.055776 
L 371.186166 276.718996 
L 371.320654 274.749924 
L 371.58963 239.789501 
L 371.858607 157.367169 
L 371.993095 153.298112 
L 372.262071 207.896777 
L 372.396559 195.662027 
L 372.665536 200.327386 
L 372.800024 196.687048 
L 372.934512 205.274698 
L 373.203489 235.463393 
L 373.606953 262.396901 
L 373.741442 265.22023 
L 374.010418 284.104936 
L 374.144906 295.488 
L 374.548371 282.950159 
L 374.817347 246.756763 
L 375.086324 195.377637 
L 375.3553 172.79713 
L 375.489788 178.670735 
L 375.758765 179.808346 
L 376.162229 201.496213 
L 376.431206 236.838081 
L 376.700182 266.601544 
L 376.83467 266.431899 
L 376.969159 267.466823 
L 377.103647 272.210778 
L 377.238135 286.705323 
L 377.776088 271.642415 
L 377.910576 275.642851 
L 378.314041 260.549383 
L 378.448529 265.217474 
L 378.583017 260.641453 
L 378.717505 263.362198 
L 378.986482 274.02074 
L 379.12097 272.933682 
L 379.255458 273.562618 
L 379.389947 273.218344 
L 379.524435 271.312367 
L 380.062388 280.435378 
L 380.196876 279.97123 
L 380.331364 278.652097 
L 380.465852 265.531247 
L 380.60034 265.197958 
L 380.869317 270.412264 
L 381.003805 269.67594 
L 381.40727 215.192633 
L 381.541758 152.527902 
L 381.676246 143.428066 
L 381.810734 143.877523 
L 381.945223 138.297815 
L 382.348687 146.591445 
L 382.483175 143.788975 
L 383.155616 265.457587 
L 383.290105 264.858523 
L 383.424593 266.166709 
L 383.559081 270.568668 
L 383.828058 259.856291 
L 383.962546 259.6123 
L 384.097034 259.878002 
L 384.231522 260.437835 
L 384.36601 256.374455 
L 384.500499 257.441218 
L 384.903963 160.634436 
L 385.038451 163.069863 
L 385.17294 148.073869 
L 385.307428 150.193379 
L 385.441916 174.983604 
L 385.710893 173.639382 
L 385.979869 214.878439 
L 386.383334 266.255415 
L 386.517822 264.976433 
L 386.786798 274.195348 
L 386.921286 282.172131 
L 387.055775 281.130524 
L 387.190263 276.17215 
L 387.324751 276.28348 
L 387.459239 274.268535 
L 387.728216 265.271412 
L 387.862704 265.800131 
L 388.13168 276.864462 
L 388.535145 284.06461 
L 388.804121 281.526633 
L 388.93861 287.753568 
L 389.207586 281.08924 
L 389.342074 282.128088 
L 389.611051 289.556109 
L 389.745539 286.695872 
L 389.880027 286.337109 
L 390.014515 286.982558 
L 390.149004 263.434714 
L 390.283492 261.603679 
L 390.552468 264.921248 
L 390.686956 263.368928 
L 391.090421 230.981686 
L 391.224909 188.524522 
L 391.359397 181.796198 
L 391.493886 158.394199 
L 391.628374 158.852785 
L 391.89735 174.783987 
L 392.031839 179.10544 
L 392.166327 174.939092 
L 392.435303 202.154016 
L 392.838768 274.037969 
L 392.973256 271.442014 
L 393.107744 271.494422 
L 393.242232 274.138871 
L 393.511209 259.239736 
L 393.780185 268.25143 
L 394.18365 237.251009 
L 394.587115 154.349876 
L 394.721603 154.875998 
L 394.856091 140.731983 
L 394.990579 141.602883 
L 395.125067 144.501289 
L 395.259556 144.860091 
L 396.066485 259.747838 
L 396.335461 262.102417 
L 396.46995 258.605434 
L 396.604438 289.220078 
L 396.738926 290.169156 
L 397.007902 280.703883 
L 397.142391 281.35355 
L 397.411367 246.136346 
L 397.680343 175.252918 
L 397.814832 177.507604 
L 398.218296 157.011939 
L 398.352785 167.798247 
L 398.487273 168.397861 
L 398.487273 168.397861 
" clip-path="url(#p2b41e05789)" style="fill: none; stroke: #ff7f0e; stroke-width: 1.5; stroke-linecap: square"/>
   </g>
   <g id="patch_3">
    <path d="M 57.6 307.584 
L 57.6 41.472 
" style="fill: none; stroke: #000000; stroke-width: 0.8; stroke-linejoin: miter; stroke-linecap: square"/>
   </g>
   <g id="patch_4">
    <path d="M 414.72 307.584 
L 414.72 41.472 
" style="fill: none; stroke: #000000; stroke-width: 0.8; stroke-linejoin: miter; stroke-linecap: square"/>
   </g>
   <g id="patch_5">
    <path d="M 57.6 307.584 
L 414.72 307.584 
" style="fill: none; stroke: #000000; stroke-width: 0.8; stroke-linejoin: miter; stroke-linecap: square"/>
   </g>
   <g id="patch_6">
    <path d="M 57.6 41.472 
L 414.72 41.472 
" style="fill: none; stroke: #000000; stroke-width: 0.8; stroke-linejoin: miter; stroke-linecap: square"/>
   </g>
  </g>
 </g>
 <defs>
  <clipPath id="p2b41e05789">
   <rect x="57.6" y="41.472" width="357.12" height="266.112"/>
  </clipPath>
 </defs>
</svg>
