<?xml version="1.0" encoding="utf-8" standalone="no"?>
<!DOCTYPE svg PUBLIC "-//W3C//DTD SVG 1.1//EN"
  "http://www.w3.org/Graphics/SVG/1.1/DTD/svg11.dtd">
<svg xmlns:xlink="http://www.w3.org/1999/xlink" width="460.8pt" height="345.6pt" viewBox="0 0 460.8 345.6" xmlns="http://www.w3.org/2000/svg" version="1.1">
 <metadata>
  <rdf:RDF xmlns:dc="http://purl.org/dc/elements/1.1/" xmlns:cc="http://creativecommons.org/ns#" xmlns:rdf="http://www.w3.org/1999/02/22-rdf-syntax-ns#">
   <cc:Work>
    <dc:type rdf:resource="http://purl.org/dc/dcmitype/StillImage"/>
    <dc:date>2023-04-04T06:21:03.826124</dc:date>
    <dc:format>image/svg+xml</dc:format>
    <dc:creator>
     <cc:Agent>
      <dc:title>Matplotlib v3.5.2, https://matplotlib.org/</dc:title>
     </cc:Agent>
    </dc:creator>
   </cc:Work>
  </rdf:RDF>
 </metadata>
 <defs>
  <style type="text/css">*{stroke-linejoin: round; stroke-linecap: butt}</style>
 </defs>
 <g id="figure_1">
  <g id="patch_1">
   <path d="M 0 345.6 
L 460.8 345.6 
L 460.8 0 
L 0 0 
z
" style="fill: #ffffff"/>
  </g>
  <g id="axes_1">
   <g id="patch_2">
    <path d="M 57.6 307.584 
L 414.72 307.584 
L 414.72 41.472 
L 57.6 41.472 
z
" style="fill: #ffffff"/>
   </g>
   <g id="matplotlib.axis_1">
    <g id="xtick_1">
     <g id="line2d_1">
      <defs>
       <path id="m1e3b499321" d="M 0 0 
L 0 3.5 
" style="stroke: #000000; stroke-width: 0.8"/>
      </defs>
      <g>
       <use xlink:href="#m1e3b499321" x="73.832727" y="307.584" style="stroke: #000000; stroke-width: 0.8"/>
      </g>
     </g>
     <g id="text_1">
      <!-- 0 -->
      <g transform="translate(70.651477 322.182437)scale(0.1 -0.1)">
       <defs>
        <path id="DejaVuSans-30" d="M 2034 4250 
Q 1547 4250 1301 3770 
Q 1056 3291 1056 2328 
Q 1056 1369 1301 889 
Q 1547 409 2034 409 
Q 2525 409 2770 889 
Q 3016 1369 3016 2328 
Q 3016 3291 2770 3770 
Q 2525 4250 2034 4250 
z
M 2034 4750 
Q 2819 4750 3233 4129 
Q 3647 3509 3647 2328 
Q 3647 1150 3233 529 
Q 2819 -91 2034 -91 
Q 1250 -91 836 529 
Q 422 1150 422 2328 
Q 422 3509 836 4129 
Q 1250 4750 2034 4750 
z
" transform="scale(0.015625)"/>
       </defs>
       <use xlink:href="#DejaVuSans-30"/>
      </g>
     </g>
    </g>
    <g id="xtick_2">
     <g id="line2d_2">
      <g>
       <use xlink:href="#m1e3b499321" x="141.076834" y="307.584" style="stroke: #000000; stroke-width: 0.8"/>
      </g>
     </g>
     <g id="text_2">
      <!-- 500 -->
      <g transform="translate(131.533084 322.182437)scale(0.1 -0.1)">
       <defs>
        <path id="DejaVuSans-35" d="M 691 4666 
L 3169 4666 
L 3169 4134 
L 1269 4134 
L 1269 2991 
Q 1406 3038 1543 3061 
Q 1681 3084 1819 3084 
Q 2600 3084 3056 2656 
Q 3513 2228 3513 1497 
Q 3513 744 3044 326 
Q 2575 -91 1722 -91 
Q 1428 -91 1123 -41 
Q 819 9 494 109 
L 494 744 
Q 775 591 1075 516 
Q 1375 441 1709 441 
Q 2250 441 2565 725 
Q 2881 1009 2881 1497 
Q 2881 1984 2565 2268 
Q 2250 2553 1709 2553 
Q 1456 2553 1204 2497 
Q 953 2441 691 2322 
L 691 4666 
z
" transform="scale(0.015625)"/>
       </defs>
       <use xlink:href="#DejaVuSans-35"/>
       <use xlink:href="#DejaVuSans-30" x="63.623047"/>
       <use xlink:href="#DejaVuSans-30" x="127.246094"/>
      </g>
     </g>
    </g>
    <g id="xtick_3">
     <g id="line2d_3">
      <g>
       <use xlink:href="#m1e3b499321" x="208.32094" y="307.584" style="stroke: #000000; stroke-width: 0.8"/>
      </g>
     </g>
     <g id="text_3">
      <!-- 1000 -->
      <g transform="translate(195.59594 322.182437)scale(0.1 -0.1)">
       <defs>
        <path id="DejaVuSans-31" d="M 794 531 
L 1825 531 
L 1825 4091 
L 703 3866 
L 703 4441 
L 1819 4666 
L 2450 4666 
L 2450 531 
L 3481 531 
L 3481 0 
L 794 0 
L 794 531 
z
" transform="scale(0.015625)"/>
       </defs>
       <use xlink:href="#DejaVuSans-31"/>
       <use xlink:href="#DejaVuSans-30" x="63.623047"/>
       <use xlink:href="#DejaVuSans-30" x="127.246094"/>
       <use xlink:href="#DejaVuSans-30" x="190.869141"/>
      </g>
     </g>
    </g>
    <g id="xtick_4">
     <g id="line2d_4">
      <g>
       <use xlink:href="#m1e3b499321" x="275.565046" y="307.584" style="stroke: #000000; stroke-width: 0.8"/>
      </g>
     </g>
     <g id="text_4">
      <!-- 1500 -->
      <g transform="translate(262.840046 322.182437)scale(0.1 -0.1)">
       <use xlink:href="#DejaVuSans-31"/>
       <use xlink:href="#DejaVuSans-35" x="63.623047"/>
       <use xlink:href="#DejaVuSans-30" x="127.246094"/>
       <use xlink:href="#DejaVuSans-30" x="190.869141"/>
      </g>
     </g>
    </g>
    <g id="xtick_5">
     <g id="line2d_5">
      <g>
       <use xlink:href="#m1e3b499321" x="342.809153" y="307.584" style="stroke: #000000; stroke-width: 0.8"/>
      </g>
     </g>
     <g id="text_5">
      <!-- 2000 -->
      <g transform="translate(330.084153 322.182437)scale(0.1 -0.1)">
       <defs>
        <path id="DejaVuSans-32" d="M 1228 531 
L 3431 531 
L 3431 0 
L 469 0 
L 469 531 
Q 828 903 1448 1529 
Q 2069 2156 2228 2338 
Q 2531 2678 2651 2914 
Q 2772 3150 2772 3378 
Q 2772 3750 2511 3984 
Q 2250 4219 1831 4219 
Q 1534 4219 1204 4116 
Q 875 4013 500 3803 
L 500 4441 
Q 881 4594 1212 4672 
Q 1544 4750 1819 4750 
Q 2544 4750 2975 4387 
Q 3406 4025 3406 3419 
Q 3406 3131 3298 2873 
Q 3191 2616 2906 2266 
Q 2828 2175 2409 1742 
Q 1991 1309 1228 531 
z
" transform="scale(0.015625)"/>
       </defs>
       <use xlink:href="#DejaVuSans-32"/>
       <use xlink:href="#DejaVuSans-30" x="63.623047"/>
       <use xlink:href="#DejaVuSans-30" x="127.246094"/>
       <use xlink:href="#DejaVuSans-30" x="190.869141"/>
      </g>
     </g>
    </g>
    <g id="xtick_6">
     <g id="line2d_6">
      <g>
       <use xlink:href="#m1e3b499321" x="410.053259" y="307.584" style="stroke: #000000; stroke-width: 0.8"/>
      </g>
     </g>
     <g id="text_6">
      <!-- 2500 -->
      <g transform="translate(397.328259 322.182437)scale(0.1 -0.1)">
       <use xlink:href="#DejaVuSans-32"/>
       <use xlink:href="#DejaVuSans-35" x="63.623047"/>
       <use xlink:href="#DejaVuSans-30" x="127.246094"/>
       <use xlink:href="#DejaVuSans-30" x="190.869141"/>
      </g>
     </g>
    </g>
   </g>
   <g id="matplotlib.axis_2">
    <g id="ytick_1">
     <g id="line2d_7">
      <defs>
       <path id="mc6647b3733" d="M 0 0 
L -3.5 0 
" style="stroke: #000000; stroke-width: 0.8"/>
      </defs>
      <g>
       <use xlink:href="#mc6647b3733" x="57.6" y="281.264865" style="stroke: #000000; stroke-width: 0.8"/>
      </g>
     </g>
     <g id="text_7">
      <!-- 100 -->
      <g transform="translate(31.5125 285.064083)scale(0.1 -0.1)">
       <use xlink:href="#DejaVuSans-31"/>
       <use xlink:href="#DejaVuSans-30" x="63.623047"/>
       <use xlink:href="#DejaVuSans-30" x="127.246094"/>
      </g>
     </g>
    </g>
    <g id="ytick_2">
     <g id="line2d_8">
      <g>
       <use xlink:href="#mc6647b3733" x="57.6" y="233.286158" style="stroke: #000000; stroke-width: 0.8"/>
      </g>
     </g>
     <g id="text_8">
      <!-- 200 -->
      <g transform="translate(31.5125 237.085377)scale(0.1 -0.1)">
       <use xlink:href="#DejaVuSans-32"/>
       <use xlink:href="#DejaVuSans-30" x="63.623047"/>
       <use xlink:href="#DejaVuSans-30" x="127.246094"/>
      </g>
     </g>
    </g>
    <g id="ytick_3">
     <g id="line2d_9">
      <g>
       <use xlink:href="#mc6647b3733" x="57.6" y="185.307452" style="stroke: #000000; stroke-width: 0.8"/>
      </g>
     </g>
     <g id="text_9">
      <!-- 300 -->
      <g transform="translate(31.5125 189.106671)scale(0.1 -0.1)">
       <defs>
        <path id="DejaVuSans-33" d="M 2597 2516 
Q 3050 2419 3304 2112 
Q 3559 1806 3559 1356 
Q 3559 666 3084 287 
Q 2609 -91 1734 -91 
Q 1441 -91 1130 -33 
Q 819 25 488 141 
L 488 750 
Q 750 597 1062 519 
Q 1375 441 1716 441 
Q 2309 441 2620 675 
Q 2931 909 2931 1356 
Q 2931 1769 2642 2001 
Q 2353 2234 1838 2234 
L 1294 2234 
L 1294 2753 
L 1863 2753 
Q 2328 2753 2575 2939 
Q 2822 3125 2822 3475 
Q 2822 3834 2567 4026 
Q 2313 4219 1838 4219 
Q 1578 4219 1281 4162 
Q 984 4106 628 3988 
L 628 4550 
Q 988 4650 1302 4700 
Q 1616 4750 1894 4750 
Q 2613 4750 3031 4423 
Q 3450 4097 3450 3541 
Q 3450 3153 3228 2886 
Q 3006 2619 2597 2516 
z
" transform="scale(0.015625)"/>
       </defs>
       <use xlink:href="#DejaVuSans-33"/>
       <use xlink:href="#DejaVuSans-30" x="63.623047"/>
       <use xlink:href="#DejaVuSans-30" x="127.246094"/>
      </g>
     </g>
    </g>
    <g id="ytick_4">
     <g id="line2d_10">
      <g>
       <use xlink:href="#mc6647b3733" x="57.6" y="137.328746" style="stroke: #000000; stroke-width: 0.8"/>
      </g>
     </g>
     <g id="text_10">
      <!-- 400 -->
      <g transform="translate(31.5125 141.127964)scale(0.1 -0.1)">
       <defs>
        <path id="DejaVuSans-34" d="M 2419 4116 
L 825 1625 
L 2419 1625 
L 2419 4116 
z
M 2253 4666 
L 3047 4666 
L 3047 1625 
L 3713 1625 
L 3713 1100 
L 3047 1100 
L 3047 0 
L 2419 0 
L 2419 1100 
L 313 1100 
L 313 1709 
L 2253 4666 
z
" transform="scale(0.015625)"/>
       </defs>
       <use xlink:href="#DejaVuSans-34"/>
       <use xlink:href="#DejaVuSans-30" x="63.623047"/>
       <use xlink:href="#DejaVuSans-30" x="127.246094"/>
      </g>
     </g>
    </g>
    <g id="ytick_5">
     <g id="line2d_11">
      <g>
       <use xlink:href="#mc6647b3733" x="57.6" y="89.350039" style="stroke: #000000; stroke-width: 0.8"/>
      </g>
     </g>
     <g id="text_11">
      <!-- 500 -->
      <g transform="translate(31.5125 93.149258)scale(0.1 -0.1)">
       <use xlink:href="#DejaVuSans-35"/>
       <use xlink:href="#DejaVuSans-30" x="63.623047"/>
       <use xlink:href="#DejaVuSans-30" x="127.246094"/>
      </g>
     </g>
    </g>
   </g>
   <g id="line2d_12">
    <path d="M 73.832727 284.347017 
L 74.101704 283.795741 
L 74.236192 282.681196 
L 74.37068 283.648447 
L 74.505168 283.154266 
L 74.639657 283.758318 
L 74.774145 277.26392 
L 74.908633 250.053277 
L 75.177609 248.554902 
L 75.312098 249.112414 
L 75.446586 249.165191 
L 75.581074 250.035045 
L 75.715562 249.276022 
L 75.85005 249.253952 
L 76.253515 244.250732 
L 76.522492 278.430283 
L 76.65698 278.744543 
L 76.925956 277.031703 
L 77.060444 268.144128 
L 77.194933 270.395769 
L 77.463909 270.45958 
L 77.598397 272.049595 
L 77.732885 266.704287 
L 77.867374 253.249139 
L 78.405327 104.289169 
L 78.674303 103.36414 
L 78.808791 110.52784 
L 78.943279 105.7079 
L 79.481232 158.594828 
L 79.750209 229.222842 
L 80.019185 264.068817 
L 80.153673 266.200511 
L 80.288161 262.352138 
L 80.42265 272.785108 
L 80.557138 272.348982 
L 80.826114 274.865465 
L 80.960603 272.316356 
L 81.095091 261.96591 
L 81.364067 168.81861 
L 81.498555 181.163051 
L 81.767532 161.689454 
L 82.036508 169.72061 
L 82.170996 166.608711 
L 82.305485 160.612812 
L 83.112414 261.486123 
L 83.650367 287.762621 
L 83.784855 287.783252 
L 83.919343 289.317131 
L 84.053831 289.510005 
L 84.18832 287.405659 
L 84.322808 280.155597 
L 84.726273 189.7047 
L 84.860761 181.00904 
L 84.995249 185.119855 
L 85.129737 170.185523 
L 85.264225 178.757399 
L 85.398714 179.507306 
L 85.66769 187.832571 
L 85.802178 196.633305 
L 86.340131 263.619256 
L 86.474619 265.63916 
L 86.609107 270.566573 
L 86.878084 288.145971 
L 87.012572 290.404808 
L 87.14706 290.077114 
L 87.281549 291.57309 
L 87.416037 291.475693 
L 87.550525 290.661494 
L 87.819501 263.061744 
L 87.95399 263.208079 
L 88.088478 257.501971 
L 88.222966 258.966761 
L 88.357454 258.206298 
L 88.491942 254.836274 
L 88.626431 257.680932 
L 88.760919 250.662606 
L 88.895407 253.549965 
L 89.029895 253.548526 
L 89.164384 256.118265 
L 89.43336 277.493259 
L 89.567848 279.162438 
L 89.702336 278.6625 
L 89.836825 279.726188 
L 89.971313 264.524135 
L 90.105801 265.239977 
L 90.240289 266.789689 
L 90.374777 266.558432 
L 90.509266 267.798681 
L 90.643754 267.970925 
L 90.778242 270.07767 
L 90.91273 266.843425 
L 91.047218 256.870091 
L 91.181707 255.695093 
L 91.316195 248.73962 
L 91.450683 253.189645 
L 91.585171 251.216761 
L 91.71966 252.720413 
L 91.854148 252.947352 
L 92.123124 255.940744 
L 92.257612 255.365959 
L 92.526589 260.980907 
L 92.795565 267.601489 
L 92.930053 268.560103 
L 93.064542 267.415331 
L 93.19903 277.469749 
L 93.468006 277.594973 
L 93.602495 278.659621 
L 93.736983 277.420811 
L 93.871471 274.888015 
L 94.005959 269.64874 
L 94.6784 161.977806 
L 94.812888 157.562806 
L 95.081865 169.470641 
L 95.216353 164.232805 
L 95.350841 152.920386 
L 96.023282 265.967334 
L 96.157771 266.699969 
L 96.426747 270.643818 
L 96.561235 270.308927 
L 96.695723 270.386653 
L 96.830212 272.277493 
L 96.9647 271.636978 
L 97.099188 270.203374 
L 97.233676 261.699148 
L 97.368164 244.060257 
L 97.502653 202.860462 
L 97.637141 195.733705 
L 97.771629 180.193882 
L 97.906117 188.626139 
L 98.040606 181.883692 
L 98.175094 182.596655 
L 98.309582 177.254226 
L 98.44407 178.903734 
L 98.713047 190.322666 
L 98.982023 232.452768 
L 99.250999 267.455633 
L 99.385488 272.162824 
L 99.519976 272.920408 
L 99.654464 282.768997 
L 99.788952 282.781472 
L 99.923441 281.775838 
L 100.192417 283.019446 
L 100.326905 283.10053 
L 100.461393 282.442742 
L 100.595882 282.850561 
L 100.73037 283.682992 
L 100.864858 282.137597 
L 100.999346 283.298682 
L 101.133834 282.386607 
L 101.268323 280.161354 
L 101.402811 273.104646 
L 101.537299 277.395862 
L 101.806276 266.963372 
L 101.940764 269.133929 
L 102.075252 268.984715 
L 102.20974 269.635786 
L 102.344228 272.025125 
L 102.478717 277.869412 
L 102.613205 276.008797 
L 102.747693 281.70435 
L 102.882181 268.186349 
L 103.016669 268.215136 
L 103.151158 273.143509 
L 103.285646 272.923287 
L 103.554622 268.723711 
L 103.68911 264.516458 
L 103.823599 247.012386 
L 104.092575 184.464466 
L 104.227063 162.884604 
L 104.361552 170.08141 
L 104.630528 145.095059 
L 105.033993 160.48135 
L 105.168481 171.309664 
L 105.706434 254.747034 
L 105.840922 254.624208 
L 105.97541 263.36209 
L 106.109898 279.868205 
L 106.378875 283.071743 
L 106.513363 283.057829 
L 106.647851 285.224547 
L 106.782339 284.954907 
L 106.916828 286.071372 
L 107.320292 248.330841 
L 107.45478 255.426412 
L 107.589269 252.881142 
L 107.723757 252.974221 
L 108.26171 247.888478 
L 108.396198 244.466157 
L 108.530686 246.736029 
L 108.934151 278.487857 
L 109.068639 280.009742 
L 109.203127 278.937897 
L 109.337615 274.422142 
L 109.606592 275.977611 
L 109.875568 277.034582 
L 110.144545 278.088195 
L 110.413521 276.845066 
L 110.548009 276.709766 
L 110.951474 272.642611 
L 111.085962 273.820968 
L 111.22045 273.472163 
L 111.623915 267.652346 
L 111.758403 268.16236 
L 112.02738 271.959395 
L 112.430844 273.563323 
L 112.565333 263.281006 
L 112.834309 267.497375 
L 112.968797 268.022742 
L 113.103285 269.53743 
L 113.237774 269.71639 
L 113.50675 272.342744 
L 113.641238 273.175655 
L 114.313679 261.904977 
L 114.448168 261.542738 
L 114.582656 260.055878 
L 114.98612 249.1911 
L 115.524073 260.287615 
L 115.658561 260.83937 
L 115.927538 263.071819 
L 116.062026 261.784071 
L 116.196514 267.899436 
L 116.331002 267.481062 
L 116.465491 268.09375 
L 116.599979 258.310412 
L 117.137932 79.192467 
L 117.406908 64.454848 
L 117.810373 81.03437 
L 118.213837 148.397913 
L 118.482814 210.888259 
L 118.75179 245.40414 
L 118.886279 246.941858 
L 119.289743 254.955261 
L 119.424231 256.37687 
L 119.55872 259.154837 
L 119.693208 259.472457 
L 119.827696 249.833055 
L 120.365649 92.081467 
L 120.634625 73.469567 
L 120.769114 77.170165 
L 120.903602 70.734781 
L 121.03809 72.06619 
L 121.441555 135.654289 
L 121.710531 202.650795 
L 121.845019 230.900657 
L 122.248484 241.892579 
L 122.51746 257.446796 
L 122.651948 257.606565 
L 122.786437 259.349631 
L 122.920925 258.005747 
L 123.055413 249.824898 
L 123.727854 60.488449 
L 123.862342 53.568 
L 124.534783 107.833836 
L 125.072736 249.124409 
L 125.207225 254.308029 
L 125.341713 254.772462 
L 125.476201 254.725923 
L 125.745177 268.359073 
L 125.879666 269.799393 
L 126.014154 270.029691 
L 126.28313 256.545276 
L 126.821083 93.189775 
L 126.955571 74.7933 
L 127.09006 81.407644 
L 127.359036 106.005847 
L 127.493524 108.45468 
L 127.762501 126.997491 
L 127.896989 149.856466 
L 128.300453 247.502729 
L 128.434942 253.319187 
L 128.56943 251.48736 
L 128.703918 259.007063 
L 128.838406 259.732981 
L 129.241871 266.442803 
L 129.510847 245.680498 
L 130.0488 83.586837 
L 130.183288 74.45553 
L 130.317777 86.403667 
L 130.452265 115.299323 
L 130.586753 114.378611 
L 130.721241 110.722154 
L 130.855729 117.128271 
L 131.124706 170.534329 
L 131.393682 236.343362 
L 131.662659 259.502203 
L 131.931635 259.305491 
L 132.066123 259.122692 
L 132.3351 270.422637 
L 132.469588 270.273903 
L 132.604076 270.373219 
L 132.738564 270.331477 
L 133.007541 258.410688 
L 133.276517 247.924941 
L 133.679982 242.333023 
L 133.81447 241.147949 
L 133.948958 236.036298 
L 134.486911 245.937663 
L 134.755888 253.041871 
L 134.890376 252.926722 
L 135.697305 267.204225 
L 135.831793 271.966112 
L 135.966282 272.576881 
L 136.10077 270.589603 
L 136.235258 272.096614 
L 136.369746 271.821696 
L 136.504234 267.511769 
L 136.638723 267.352479 
L 136.907699 265.41318 
L 137.311164 254.504261 
L 137.445652 255.015235 
L 137.58014 252.326508 
L 137.983605 259.155797 
L 138.118093 258.251878 
L 138.252581 260.090902 
L 138.387069 264.593224 
L 138.521558 263.357292 
L 138.656046 263.558803 
L 138.925022 268.265034 
L 139.193999 251.98346 
L 139.731951 81.728622 
L 139.86644 72.790669 
L 140.269904 98.861818 
L 140.538881 123.346791 
L 140.673369 130.454357 
L 140.807857 144.848448 
L 141.076834 225.14753 
L 141.480298 258.415486 
L 142.018251 266.874132 
L 142.152739 266.409218 
L 142.421716 242.616577 
L 142.959669 91.750894 
L 143.094157 84.317073 
L 143.228645 83.82817 
L 143.363133 94.078341 
L 143.497621 84.781987 
L 143.63211 89.920986 
L 144.573527 259.66629 
L 144.708015 263.164418 
L 144.842504 263.3405 
L 145.11148 265.588302 
L 145.245968 267.736789 
L 145.380456 263.649003 
L 145.783921 202.333656 
L 146.052897 110.418449 
L 146.187386 91.250956 
L 146.456362 106.601743 
L 146.59085 117.951586 
L 146.725339 112.246917 
L 146.859827 119.679299 
L 146.994315 114.589238 
L 147.128803 127.481116 
L 147.532268 235.023947 
L 147.801244 261.107571 
L 147.935732 261.310521 
L 148.204709 266.596815 
L 148.339197 266.575224 
L 148.473685 267.08044 
L 148.742662 266.023949 
L 148.87715 248.283822 
L 149.280615 119.543039 
L 149.415103 115.490758 
L 149.549591 106.378642 
L 149.684079 107.638563 
L 150.087544 140.459356 
L 150.222032 132.741022 
L 150.35652 138.279684 
L 150.894473 253.502466 
L 151.028961 262.705742 
L 151.16345 261.744728 
L 151.835891 269.948127 
L 151.970379 268.671414 
L 152.104867 247.650023 
L 152.508332 113.512596 
L 152.64282 116.632171 
L 152.911796 104.73777 
L 153.046285 118.936109 
L 153.180773 117.430057 
L 153.449749 152.022704 
L 153.718726 193.111668 
L 153.987702 249.93285 
L 154.12219 267.043017 
L 154.256678 268.426722 
L 154.525655 272.302442 
L 154.794631 274.012403 
L 155.063608 276.967412 
L 155.198096 278.615001 
L 155.332584 277.969207 
L 155.467072 273.572919 
L 155.601561 263.060304 
L 155.736049 262.196208 
L 155.870537 259.320844 
L 156.005025 261.467411 
L 156.274002 259.563616 
L 156.40849 260.101937 
L 156.542978 261.359939 
L 156.677466 260.159032 
L 157.215419 268.196425 
L 157.349907 270.209611 
L 157.484396 269.214053 
L 157.618884 269.98699 
L 157.88786 273.174215 
L 158.022348 273.656881 
L 158.291325 276.666586 
L 158.560301 280.963079 
L 158.694789 279.391296 
L 158.829278 280.359027 
L 158.963766 279.961283 
L 159.232742 277.237532 
L 159.367231 277.520606 
L 159.501719 275.52997 
L 160.039672 261.396882 
L 160.308648 261.656927 
L 160.443136 267.39614 
L 160.577624 267.111626 
L 160.712113 265.149297 
L 160.846601 265.853624 
L 160.981089 267.35104 
L 161.250066 271.121207 
L 161.519042 272.075983 
L 161.788018 255.252729 
L 162.460459 84.014327 
L 162.594948 83.676557 
L 162.729436 82.212247 
L 162.998412 101.872482 
L 163.132901 110.849298 
L 163.401877 152.261638 
L 163.670853 223.241816 
L 164.074318 257.452073 
L 164.208806 258.589169 
L 164.477783 271.289132 
L 164.612271 273.6588 
L 164.746759 268.940095 
L 165.015735 251.369333 
L 165.4192 121.161361 
L 165.553688 123.769484 
L 165.822665 109.828311 
L 165.957153 115.10213 
L 166.091641 112.006544 
L 166.360618 100.512765 
L 166.495106 106.727927 
L 166.89857 222.339337 
L 167.033059 229.335112 
L 167.302035 247.788202 
L 167.974476 266.316139 
L 168.108964 260.622986 
L 168.243453 246.562826 
L 168.377941 208.355463 
L 168.646917 106.553284 
L 168.781405 107.840553 
L 168.915894 103.299368 
L 169.050382 104.603909 
L 169.18487 108.412459 
L 169.319358 93.032405 
L 169.453847 95.519141 
L 169.857311 149.077292 
L 170.126288 227.542148 
L 170.395264 258.462985 
L 170.529752 259.345793 
L 170.66424 262.794502 
L 170.798729 262.984498 
L 171.067705 265.319621 
L 171.202193 268.163799 
L 171.47117 246.301822 
L 172.009123 110.629555 
L 172.143611 109.047697 
L 172.412587 97.250213 
L 172.95054 129.862299 
L 173.622981 260.439227 
L 173.757469 264.442091 
L 173.891958 277.867972 
L 174.026446 276.935746 
L 174.160934 276.891606 
L 174.42991 278.427884 
L 174.698887 263.586151 
L 174.833375 246.403537 
L 175.102351 177.646692 
L 175.371328 144.158035 
L 175.505816 141.248126 
L 175.640304 151.449839 
L 175.774792 151.138457 
L 175.909281 152.552389 
L 176.043769 157.376168 
L 176.178257 157.067186 
L 176.312745 171.592259 
L 176.581722 239.495083 
L 176.850698 266.718681 
L 176.985186 264.215631 
L 177.254163 268.967443 
L 177.388651 268.923782 
L 177.792116 275.50646 
L 177.926604 276.400304 
L 178.19558 265.644917 
L 178.330069 265.203033 
L 178.599045 257.608004 
L 178.733533 257.040416 
L 178.868021 259.357308 
L 179.136998 255.833751 
L 179.271486 256.432046 
L 179.540462 253.936673 
L 179.809439 261.472209 
L 179.943927 268.77121 
L 180.212904 266.862137 
L 180.48188 276.76878 
L 180.616368 276.782694 
L 180.750856 277.156448 
L 180.885345 277.991278 
L 181.019833 278.078119 
L 181.692274 265.717845 
L 181.826762 267.019027 
L 181.96125 261.010654 
L 182.095738 262.80026 
L 182.364715 268.261196 
L 182.499203 269.544626 
L 182.633691 272.705464 
L 182.902668 271.884068 
L 183.171644 278.040696 
L 183.306132 279.462785 
L 183.440621 278.348239 
L 183.575109 276.036625 
L 183.844085 287.819236 
L 183.978573 288.774492 
L 184.113062 286.485908 
L 184.382038 275.051622 
L 184.919991 182.932986 
L 185.054479 186.965596 
L 185.188967 179.862828 
L 185.457944 183.739508 
L 185.592432 185.24508 
L 185.995897 223.160732 
L 186.264873 253.888215 
L 186.53385 269.712072 
L 186.802826 280.009742 
L 187.071802 290.551623 
L 187.206291 289.396296 
L 187.340779 290.53531 
L 187.475267 287.344247 
L 187.609755 279.311652 
L 188.01322 203.077805 
L 188.147708 186.608155 
L 188.282196 186.827897 
L 188.416684 185.865444 
L 188.551173 189.191808 
L 188.685661 195.620955 
L 188.820149 191.190121 
L 188.954637 195.644464 
L 189.089126 204.053212 
L 189.627078 266.322376 
L 189.761567 268.922343 
L 189.896055 274.180809 
L 190.030543 271.734374 
L 190.299519 273.573878 
L 190.434008 272.39744 
L 190.971961 275.837034 
L 191.106449 272.369613 
L 191.240937 271.882149 
L 191.375425 272.322593 
L 191.509913 267.874488 
L 191.644402 269.430437 
L 191.913378 268.159001 
L 192.182354 262.497994 
L 192.316843 262.848238 
L 192.451331 262.34782 
L 192.585819 263.674432 
L 192.720307 269.46978 
L 192.989284 270.733059 
L 193.392748 268.033777 
L 193.661725 270.928812 
L 193.796213 271.465694 
L 194.065189 263.54345 
L 194.603142 159.331301 
L 194.73763 154.39765 
L 194.872119 144.401287 
L 195.006607 145.984104 
L 195.141095 150.749349 
L 195.275583 143.317448 
L 195.54456 156.771157 
L 195.948024 251.220599 
L 196.217001 261.603671 
L 196.351489 263.539132 
L 196.485977 273.055228 
L 196.620465 272.399839 
L 196.889442 272.959271 
L 197.02393 274.093008 
L 197.158418 272.355219 
L 197.292907 266.004757 
L 197.830859 196.973954 
L 197.965348 199.296124 
L 198.099836 195.963043 
L 198.234324 200.387159 
L 198.5033 187.000621 
L 198.772277 200.864068 
L 199.31023 273.734607 
L 199.713694 282.888944 
L 199.848183 281.714905 
L 200.117159 282.4461 
L 200.251647 280.654576 
L 200.386135 274.849152 
L 200.520624 274.444212 
L 200.655112 261.426629 
L 200.7896 213.986724 
L 200.924088 212.007602 
L 201.058576 200.270091 
L 201.193065 199.910251 
L 201.327553 197.212888 
L 201.462041 199.39544 
L 201.731018 187.541341 
L 201.865506 188.908734 
L 202.134482 211.708215 
L 202.403459 265.426614 
L 202.806923 275.270405 
L 203.0759 266.759942 
L 203.210388 271.106813 
L 203.344876 271.233477 
L 203.748341 261.813817 
L 203.882829 244.34669 
L 204.151805 182.101035 
L 204.420782 165.553179 
L 204.55527 159.898409 
L 204.689758 163.350957 
L 204.824246 156.821535 
L 204.958735 172.91887 
L 205.093223 173.16644 
L 205.765664 261.230396 
L 205.900152 261.743768 
L 206.03464 265.561434 
L 206.169129 280.478974 
L 206.303617 280.962119 
L 206.572593 284.918923 
L 206.84157 285.734081 
L 207.110546 276.302427 
L 207.379522 267.077081 
L 207.514011 266.195233 
L 207.917475 274.350653 
L 208.051964 274.103083 
L 208.32094 267.712799 
L 208.589916 269.322005 
L 208.858893 277.410735 
L 208.993381 281.081106 
L 209.127869 281.667406 
L 209.262357 281.120929 
L 209.396846 275.239219 
L 209.531334 276.34177 
L 209.80031 275.924835 
L 209.934799 276.920393 
L 210.203775 264.682944 
L 211.010704 108.840429 
L 211.279681 134.581005 
L 211.683145 167.835047 
L 212.221098 255.880291 
L 212.355586 258.355512 
L 212.759051 273.666957 
L 212.893539 273.458729 
L 213.028027 273.559484 
L 213.162516 276.220863 
L 213.431492 258.434677 
L 213.56598 220.176936 
L 213.834957 135.865875 
L 213.969445 140.47279 
L 214.103933 139.376477 
L 214.238421 142.351636 
L 214.910862 180.852629 
L 215.448815 261.525465 
L 215.583303 266.515251 
L 215.717792 267.136095 
L 216.121256 271.419154 
L 216.255745 272.381127 
L 216.390233 274.783421 
L 216.524721 270.755609 
L 216.659209 263.200402 
L 217.062674 149.568593 
L 217.197162 151.490141 
L 217.33165 151.571225 
L 217.466138 163.092831 
L 217.600627 161.802684 
L 217.735115 149.889091 
L 217.869603 155.145638 
L 218.273068 197.54586 
L 218.542044 256.658026 
L 218.811021 273.539813 
L 218.945509 266.083922 
L 219.483462 276.857541 
L 219.61795 278.664899 
L 219.886926 264.845592 
L 220.290391 162.751223 
L 220.693856 151.032424 
L 220.828344 161.749907 
L 220.962832 157.809416 
L 221.231808 185.099704 
L 221.500785 199.03512 
L 221.769761 256.520807 
L 222.038738 272.232393 
L 222.173226 271.475769 
L 222.307714 272.706903 
L 222.576691 278.788204 
L 222.845667 281.440467 
L 222.980155 279.759773 
L 223.114643 281.642457 
L 223.38362 260.986664 
L 223.518108 264.871021 
L 223.652596 264.71365 
L 223.921573 257.716436 
L 224.190549 257.040416 
L 224.325037 259.542505 
L 224.459525 258.910626 
L 224.728502 255.031068 
L 225.131967 262.339184 
L 225.266455 260.845127 
L 225.535431 262.32527 
L 225.669919 261.005376 
L 226.073384 270.826138 
L 226.34236 273.873745 
L 226.476849 273.801297 
L 226.745825 270.637101 
L 226.880313 272.933842 
L 227.014802 273.178534 
L 227.14929 272.879626 
L 227.283778 271.4513 
L 227.418266 273.138711 
L 227.552754 273.268254 
L 227.687243 273.097929 
L 227.956219 271.981945 
L 228.090707 277.835347 
L 228.225195 277.874689 
L 228.359684 278.983477 
L 228.494172 278.205742 
L 228.62866 279.183069 
L 228.763148 279.06792 
L 228.897637 276.764942 
L 229.301101 277.674618 
L 229.435589 271.420594 
L 229.570078 257.245765 
L 230.242519 94.762517 
L 230.377007 79.829145 
L 230.511495 110.003913 
L 230.780471 118.006761 
L 231.049448 145.654491 
L 231.587401 255.073289 
L 231.856377 266.369396 
L 232.125354 271.215245 
L 232.39433 275.902285 
L 232.528818 275.083288 
L 232.797795 257.868049 
L 232.932283 221.361531 
L 233.201259 133.636784 
L 233.335748 125.407956 
L 233.470236 135.771357 
L 233.604724 135.994938 
L 233.739212 148.870024 
L 233.8737 134.037406 
L 234.008189 140.803843 
L 234.815118 265.784055 
L 234.949606 265.515854 
L 235.218583 271.458017 
L 235.622047 279.245921 
L 235.756535 278.644268 
L 236.025512 265.905921 
L 236.563465 129.45448 
L 236.832441 117.163775 
L 237.63937 201.39903 
L 237.908347 259.84717 
L 238.177323 267.988197 
L 238.849764 283.002653 
L 238.984252 282.172622 
L 239.118741 278.349679 
L 239.253229 264.359568 
L 239.791182 128.679624 
L 240.194646 146.529142 
L 240.463623 165.779159 
L 240.732599 179.322588 
L 241.270552 257.299021 
L 241.674017 263.212397 
L 241.942993 276.239095 
L 242.077481 282.780512 
L 242.21197 282.150552 
L 242.480946 264.066897 
L 242.884411 151.607209 
L 243.018899 159.529933 
L 243.153387 157.268696 
L 243.287875 146.21968 
L 243.422363 154.251795 
L 243.556852 151.422011 
L 243.825828 168.169458 
L 244.229293 240.621623 
L 244.498269 263.151464 
L 244.767246 268.458388 
L 245.17071 276.366239 
L 245.305198 277.236573 
L 245.439687 276.939105 
L 245.574175 275.702693 
L 245.708663 264.17437 
L 245.843151 269.656897 
L 246.112128 266.656308 
L 246.381104 261.444861 
L 246.515592 261.411276 
L 247.188033 271.717582 
L 247.322522 272.125401 
L 247.45701 272.997654 
L 247.591498 272.641172 
L 247.725986 275.8236 
L 247.860475 274.377042 
L 248.129451 275.708451 
L 248.263939 274.819885 
L 248.398427 275.50646 
L 248.532916 275.352449 
L 248.667404 277.30902 
L 248.801892 277.209704 
L 249.205357 278.757498 
L 249.339845 278.874566 
L 249.608821 277.920749 
L 249.743309 278.05317 
L 249.877798 277.751384 
L 250.550239 274.567517 
L 250.819215 274.869303 
L 250.953703 275.652316 
L 251.088192 274.509943 
L 251.357168 275.774661 
L 251.491656 284.721731 
L 251.626144 284.229469 
L 251.760633 284.662237 
L 251.895121 284.501508 
L 252.164097 272.191132 
L 252.70205 144.095183 
L 252.836538 163.935817 
L 252.971027 160.473194 
L 253.240003 173.450954 
L 253.374491 174.81115 
L 253.508979 171.870056 
L 253.777956 204.865012 
L 254.046932 256.496337 
L 254.315909 277.936582 
L 254.719373 286.336214 
L 254.853862 286.094881 
L 255.122838 287.837468 
L 255.391814 266.961933 
L 255.660791 173.240328 
L 255.795279 176.70583 
L 256.198744 160.950102 
L 256.333232 164.643023 
L 256.46772 161.964372 
L 256.602208 163.166718 
L 257.409138 258.749897 
L 257.812602 266.260964 
L 258.081579 281.547939 
L 258.216067 282.617384 
L 258.350555 281.88427 
L 258.619532 267.638912 
L 258.888508 178.069864 
L 259.022996 178.943556 
L 259.157484 169.842955 
L 259.291973 169.264332 
L 259.426461 153.698121 
L 259.695437 167.470408 
L 259.829925 156.280335 
L 259.964414 165.401087 
L 260.771343 261.836367 
L 261.040319 264.086569 
L 261.309296 271.624983 
L 261.443784 274.855869 
L 261.71276 271.926289 
L 261.847249 259.470058 
L 262.116225 170.848589 
L 262.250713 175.03761 
L 262.654178 148.469401 
L 262.788666 155.808224 
L 262.923154 151.013232 
L 263.326619 186.346191 
L 263.461107 197.301169 
L 263.864572 246.331569 
L 264.268036 264.468959 
L 264.402525 263.707537 
L 264.671501 267.155287 
L 264.805989 267.028623 
L 264.940478 266.072887 
L 265.074966 258.465383 
L 265.209454 239.249432 
L 265.612919 124.358662 
L 265.881895 106.152182 
L 266.016383 115.703303 
L 266.150871 115.571842 
L 266.28536 115.121322 
L 266.419848 119.776696 
L 266.688824 157.244707 
L 266.957801 236.466187 
L 267.226777 253.218432 
L 267.361265 251.788667 
L 267.495754 268.242004 
L 267.630242 267.924385 
L 267.76473 269.803232 
L 267.899218 270.116053 
L 268.168195 276.670904 
L 268.302683 277.560429 
L 268.437171 274.985412 
L 268.706147 277.535 
L 268.975124 274.021999 
L 269.2441 272.12732 
L 269.916541 257.558106 
L 270.320006 259.457583 
L 270.588982 264.370123 
L 270.723471 278.542073 
L 270.857959 279.587529 
L 270.992447 278.101629 
L 271.126935 278.989714 
L 271.261424 279.019461 
L 271.395912 278.832344 
L 271.799376 281.624705 
L 271.933865 280.231883 
L 272.068353 280.588845 
L 272.202841 279.940652 
L 272.337329 280.178147 
L 272.471817 279.330363 
L 272.606306 277.15309 
L 272.740794 278.442757 
L 272.875282 278.118421 
L 273.00977 277.437603 
L 273.144258 275.090485 
L 273.278747 274.99021 
L 273.547723 277.98504 
L 273.682211 278.200465 
L 273.8167 278.888 
L 273.951188 278.021504 
L 274.085676 288.731791 
L 274.354652 290.373622 
L 274.489141 288.792724 
L 274.758117 273.987455 
L 275.29607 166.849564 
L 275.565046 154.538228 
L 275.699535 154.877437 
L 275.834023 172.940941 
L 275.968511 175.236722 
L 276.102999 185.455226 
L 276.77544 265.258209 
L 277.447881 282.766118 
L 277.58237 286.183642 
L 277.716858 285.790216 
L 277.851346 281.36466 
L 277.985834 271.319359 
L 278.389299 210.436779 
L 278.523787 190.830281 
L 278.658275 188.819493 
L 278.792763 179.244863 
L 278.927252 191.450646 
L 279.06174 185.593885 
L 279.196228 187.697751 
L 279.330716 195.441514 
L 280.137646 275.695976 
L 280.272134 278.097311 
L 280.406622 269.688562 
L 280.54111 269.402609 
L 280.810087 270.580966 
L 280.944575 269.953885 
L 281.213551 261.985101 
L 281.348039 232.852911 
L 281.482528 161.942782 
L 281.617016 151.669581 
L 281.751504 128.122112 
L 281.885992 129.281277 
L 282.154969 142.877003 
L 282.289457 124.645095 
L 282.423945 128.759269 
L 282.558433 137.92752 
L 282.82741 186.682522 
L 283.096386 255.676861 
L 283.365363 262.34926 
L 283.499851 264.570674 
L 283.634339 263.895134 
L 283.768827 263.905689 
L 283.903316 264.096164 
L 284.037804 265.409342 
L 284.172292 265.539364 
L 284.441268 260.312564 
L 285.113709 144.295254 
L 285.248198 143.212374 
L 285.382686 138.646241 
L 285.517174 147.947393 
L 285.651662 144.826378 
L 285.78615 148.33794 
L 286.055127 201.809248 
L 286.324103 251.703744 
L 286.59308 261.443902 
L 286.727568 261.321556 
L 286.862056 280.381097 
L 286.996544 280.440591 
L 287.131033 279.456547 
L 287.265521 280.065877 
L 287.668985 276.516892 
L 287.803474 277.3997 
L 288.07245 276.519291 
L 288.206938 274.334341 
L 288.341427 274.278685 
L 288.475915 271.917653 
L 288.610403 271.544379 
L 288.744891 270.413521 
L 288.879379 273.259138 
L 289.013868 273.600746 
L 289.148356 270.772881 
L 289.417332 277.971606 
L 289.55182 279.165796 
L 289.820797 278.802118 
L 289.955285 279.597125 
L 290.089773 278.088674 
L 290.224262 279.645104 
L 290.35875 278.732549 
L 290.493238 279.718511 
L 290.627726 278.167359 
L 291.031191 260.079867 
L 291.300167 193.49166 
L 291.434655 187.873353 
L 291.569144 188.484602 
L 291.703632 192.572388 
L 291.972608 179.750079 
L 292.376073 192.909198 
L 293.048514 269.766768 
L 293.183002 271.020931 
L 293.31749 269.862245 
L 293.451979 270.61839 
L 293.586467 269.683285 
L 293.720955 272.17338 
L 293.855443 272.438222 
L 294.258908 248.372583 
L 294.527884 190.033355 
L 294.796861 158.159661 
L 294.931349 142.194746 
L 295.065837 142.059926 
L 295.200325 150.080047 
L 295.334814 144.32548 
L 295.60379 172.552313 
L 295.738278 187.130163 
L 296.141743 257.756738 
L 296.276231 256.861455 
L 296.410719 264.103361 
L 296.545208 281.887628 
L 296.948672 284.063942 
L 297.486625 286.040665 
L 297.621113 285.693299 
L 297.755601 285.689461 
L 298.024578 282.498877 
L 298.159066 282.347744 
L 298.428042 280.19446 
L 298.697019 276.348487 
L 298.831507 275.207073 
L 298.965995 275.064097 
L 299.100484 275.421538 
L 299.36946 279.22577 
L 299.503948 278.716716 
L 299.638436 280.267867 
L 299.772925 270.559376 
L 299.907413 273.978818 
L 300.041901 273.675593 
L 300.176389 274.546406 
L 300.310877 274.261413 
L 300.579854 263.235426 
L 301.252295 128.455564 
L 301.386783 128.524653 
L 301.521271 141.783569 
L 301.65576 134.806505 
L 301.790248 144.268866 
L 302.597177 253.619534 
L 302.731665 255.381312 
L 303.000642 267.851938 
L 303.13513 268.077437 
L 303.269618 268.560103 
L 303.404106 271.031966 
L 303.538595 271.453219 
L 303.807571 255.011876 
L 304.345524 164.780722 
L 304.6145 154.204776 
L 304.748988 162.483981 
L 304.883477 152.862332 
L 305.017965 158.97338 
L 306.093871 266.295508 
L 306.228359 267.311218 
L 306.497335 277.517728 
L 306.766312 278.552628 
L 306.9008 273.820489 
L 307.035288 263.22823 
L 307.304265 170.286279 
L 307.438753 177.58432 
L 307.842217 158.225871 
L 307.976706 165.312326 
L 308.111194 156.851281 
L 308.245682 161.838668 
L 308.649147 208.071429 
L 309.052611 264.719408 
L 309.590564 277.011552 
L 309.994029 278.723433 
L 310.128517 275.152378 
L 310.263005 262.473045 
L 310.531982 170.174488 
L 310.66647 171.331735 
L 310.935446 169.031156 
L 311.069934 159.633087 
L 311.204423 166.120767 
L 311.338911 164.823423 
L 311.473399 158.015725 
L 311.607887 171.218025 
L 311.876864 208.983024 
L 312.14584 251.522385 
L 312.414817 263.387039 
L 312.818281 272.040958 
L 312.952769 271.604832 
L 313.087258 273.499991 
L 313.221746 273.400675 
L 313.356234 274.985412 
L 313.625211 264.37636 
L 313.759699 256.44548 
L 313.894187 259.815024 
L 314.028675 257.273592 
L 314.163163 259.166352 
L 314.297652 256.392224 
L 314.566628 262.988336 
L 314.701116 263.726728 
L 314.970093 268.503968 
L 315.104581 268.466065 
L 315.239069 268.168117 
L 315.508045 271.115449 
L 315.642534 271.65521 
L 315.777022 271.323197 
L 316.180487 274.328103 
L 316.314975 273.886219 
L 316.718439 276.252529 
L 316.852928 276.502978 
L 316.987416 275.645119 
L 317.121904 275.71085 
L 317.256392 274.585269 
L 317.39088 274.730645 
L 317.525369 273.183811 
L 317.659857 274.107881 
L 317.928833 271.575565 
L 318.332298 267.819792 
L 318.466786 268.47758 
L 318.601274 267.972364 
L 318.735763 269.436194 
L 318.870251 269.271627 
L 319.139227 270.393849 
L 319.273715 280.280821 
L 319.67718 281.404963 
L 319.811668 278.812673 
L 319.946157 270.817022 
L 320.349621 148.188726 
L 320.484109 131.953211 
L 320.887574 159.374481 
L 321.022062 164.06536 
L 321.291039 178.925325 
L 321.425527 180.735081 
L 321.560015 199.272134 
L 321.828991 255.091041 
L 321.96348 263.221033 
L 322.097968 264.011722 
L 322.635921 280.799471 
L 322.770409 281.148276 
L 322.904897 280.485691 
L 323.173874 269.998985 
L 323.44285 174.031496 
L 323.577338 174.395175 
L 323.711826 174.597645 
L 323.980803 154.314647 
L 324.249779 157.872268 
L 324.384268 160.653114 
L 324.787732 197.086704 
L 325.056709 251.896139 
L 325.325685 261.216482 
L 325.863638 279.132211 
L 325.998126 280.908863 
L 326.132614 280.974594 
L 326.267103 277.744667 
L 326.401591 268.698282 
L 326.670567 166.803025 
L 326.805055 172.789808 
L 326.939544 173.968165 
L 327.20852 160.672306 
L 327.343008 168.858432 
L 327.611985 165.084907 
L 327.746473 169.970099 
L 328.149937 224.952737 
L 328.418914 255.959456 
L 328.68789 268.83742 
L 328.822379 271.303526 
L 328.956867 281.402564 
L 329.225843 282.354461 
L 329.360331 281.502839 
L 329.629308 268.603284 
L 330.032772 179.122037 
L 330.301749 167.723736 
L 330.570725 158.869266 
L 330.839702 180.837276 
L 330.97419 182.055935 
L 331.108678 184.81567 
L 331.781119 261.096536 
L 332.050096 268.29718 
L 332.184584 279.127893 
L 332.319072 280.088907 
L 332.45356 279.420563 
L 332.588049 280.413243 
L 332.857025 267.739667 
L 333.26049 178.487279 
L 333.394978 180.406907 
L 333.663954 165.418359 
L 333.798442 166.616867 
L 333.932931 170.403347 
L 334.336395 188.360337 
L 334.73986 256.446919 
L 335.143325 272.256863 
L 335.277813 272.057271 
L 335.412301 272.155148 
L 335.546789 272.44206 
L 335.681277 272.336507 
L 335.950254 274.931675 
L 336.084742 272.82637 
L 336.622695 256.278514 
L 336.757183 257.077359 
L 336.891671 255.238815 
L 337.295136 261.629099 
L 337.698601 266.385708 
L 337.833089 265.904002 
L 338.102065 270.024413 
L 338.236553 269.791237 
L 338.371042 270.431753 
L 338.50553 268.084634 
L 339.043483 271.259385 
L 339.446947 274.270529 
L 339.581436 273.786424 
L 339.715924 272.611425 
L 339.850412 272.87195 
L 339.9849 272.087978 
L 340.119388 271.974748 
L 340.253877 271.498799 
L 340.388365 272.98326 
L 340.522853 270.984467 
L 340.657341 271.58612 
L 340.926318 271.266102 
L 341.060806 267.910951 
L 341.329782 272.817254 
L 341.464271 272.715059 
L 341.598759 273.246184 
L 341.733247 274.820365 
L 341.867735 282.681196 
L 342.136712 282.783391 
L 342.2712 283.428225 
L 342.540176 270.669727 
L 342.943641 154.923977 
L 343.212617 171.615289 
L 343.347106 170.877376 
L 343.75057 185.333361 
L 343.885058 187.016454 
L 344.019547 186.350509 
L 344.423011 254.571911 
L 345.22994 280.392612 
L 345.364429 281.481728 
L 345.498917 281.112292 
L 345.633405 276.874813 
L 345.767893 268.750579 
L 346.03687 184.082076 
L 346.171358 188.220239 
L 346.440334 174.588529 
L 346.574823 169.190925 
L 346.843799 176.103217 
L 347.112775 177.981104 
L 347.381752 212.630366 
L 347.650728 251.732532 
L 348.054193 269.782121 
L 348.188681 270.970074 
L 348.323169 279.982874 
L 348.457658 280.834976 
L 348.592146 282.714781 
L 348.726634 282.518548 
L 348.99561 269.548944 
L 349.264587 183.026544 
L 349.399075 184.507647 
L 349.668052 166.864437 
L 349.80254 162.732511 
L 350.206004 181.519053 
L 350.340493 182.704607 
L 351.012934 263.27333 
L 351.147422 265.605095 
L 351.550886 282.348704 
L 351.685375 281.633341 
L 351.954351 282.001818 
L 352.088839 280.597961 
L 352.223328 273.274491 
L 352.492304 178.930122 
L 352.626792 186.128368 
L 352.76128 174.706077 
L 352.895769 173.994073 
L 353.030257 165.677444 
L 353.164745 172.921749 
L 353.299233 170.835155 
L 353.56821 152.97796 
L 354.240651 269.924138 
L 354.375139 271.066991 
L 354.644115 276.956377 
L 354.913092 281.249991 
L 355.182068 282.296887 
L 355.316556 279.883558 
L 355.451045 270.713867 
L 355.854509 197.077588 
L 356.123486 158.568919 
L 356.257974 160.290395 
L 356.392462 168.939516 
L 356.52695 168.303319 
L 356.661439 178.95747 
L 356.795927 177.700428 
L 357.33388 265.594539 
L 357.602856 275.234901 
L 357.737344 277.208265 
L 357.871832 281.482688 
L 358.006321 280.901666 
L 358.140809 281.11709 
L 358.275297 281.86028 
L 358.409785 281.772 
L 358.678762 280.506801 
L 359.082226 261.955834 
L 359.351203 256.023747 
L 359.485691 249.724143 
L 359.620179 260.505918 
L 359.754667 261.926567 
L 359.889156 262.095452 
L 360.427109 276.448762 
L 360.561597 277.131499 
L 360.965061 281.29749 
L 361.234038 281.257668 
L 361.368526 281.065273 
L 361.503014 282.376531 
L 361.771991 281.967273 
L 361.906479 283.30396 
L 362.040967 283.255981 
L 362.175455 283.633094 
L 362.309944 283.673876 
L 362.57892 280.245797 
L 362.713408 280.196379 
L 362.982385 279.056405 
L 363.116873 277.55707 
L 363.251361 277.454876 
L 363.385849 278.550709 
L 363.520337 277.69285 
L 363.654826 277.632877 
L 364.05829 280.431954 
L 364.192778 254.30371 
L 364.730731 260.59036 
L 364.86522 259.389453 
L 364.999708 247.250841 
L 365.134196 224.993999 
L 365.403172 136.244427 
L 365.672149 105.804337 
L 365.806637 99.854497 
L 366.075613 116.881181 
L 366.34459 113.721783 
L 366.479078 125.208845 
L 367.017031 252.208001 
L 367.151519 257.191549 
L 367.286007 255.448003 
L 367.554984 266.863576 
L 367.689472 267.73439 
L 367.958448 272.657965 
L 368.227425 248.981912 
L 368.496401 152.559106 
L 368.765378 100.424964 
L 369.034354 89.469986 
L 369.168842 94.21508 
L 369.303331 93.768398 
L 369.437819 97.153776 
L 369.572307 95.021122 
L 369.706795 111.209618 
L 370.244748 235.660625 
L 370.782701 280.097543 
L 370.917189 280.404127 
L 371.051677 281.300369 
L 371.186166 281.020173 
L 371.455142 266.123745 
L 371.858607 172.374792 
L 372.127583 204.525323 
L 372.262071 200.443774 
L 372.396559 201.877858 
L 372.665536 191.134946 
L 372.800024 194.949253 
L 373.203489 234.861779 
L 373.472465 257.23425 
L 373.87593 278.537275 
L 374.010418 287.602852 
L 374.144906 287.456037 
L 374.279394 288.668939 
L 374.413883 288.163243 
L 374.682859 271.516071 
L 375.220812 181.648596 
L 375.489788 178.000295 
L 375.624277 178.224356 
L 375.893253 184.79408 
L 376.027741 189.112643 
L 376.565694 257.050491 
L 376.83467 265.987485 
L 376.969159 268.83886 
L 377.103647 280.71311 
L 377.238135 279.614397 
L 377.507112 281.698112 
L 377.6416 279.72187 
L 377.776088 283.27997 
L 378.045064 281.121408 
L 378.179553 271.42923 
L 378.314041 270.800229 
L 378.448529 263.661957 
L 378.583017 264.668071 
L 378.717505 263.74592 
L 378.851994 268.281347 
L 378.986482 267.517046 
L 379.12097 268.430081 
L 379.255458 270.601117 
L 379.389947 270.484049 
L 379.927899 279.78808 
L 380.062388 279.580332 
L 380.196876 279.999186 
L 380.331364 270.036408 
L 380.465852 270.718185 
L 380.869317 273.63817 
L 381.138293 262.682712 
L 381.272782 235.439443 
L 381.541758 160.43625 
L 381.810734 140.162368 
L 381.945223 141.762458 
L 382.214199 148.285163 
L 382.348687 140.251129 
L 382.752152 190.384559 
L 383.021128 258.764291 
L 383.155616 266.736433 
L 383.290105 267.402377 
L 383.424593 268.696843 
L 383.559081 263.740642 
L 383.693569 263.0248 
L 383.962546 263.373125 
L 384.097034 264.570194 
L 384.231522 262.77627 
L 384.36601 264.176289 
L 385.038451 149.353649 
L 385.17294 151.810638 
L 385.307428 167.030923 
L 385.576404 161.355042 
L 386.248845 261.626221 
L 386.921286 280.231403 
L 387.055775 279.411927 
L 387.190263 280.696797 
L 387.324751 280.002065 
L 387.459239 280.164233 
L 387.593727 281.662128 
L 387.728216 281.084465 
L 387.862704 282.409157 
L 387.997192 281.233199 
L 388.13168 282.832809 
L 388.266169 281.843008 
L 388.400657 279.846134 
L 388.535145 279.935855 
L 388.669633 279.26943 
L 388.804121 280.415162 
L 388.93861 277.849261 
L 389.207586 280.002065 
L 389.476562 286.731079 
L 389.611051 285.666431 
L 389.745539 286.487827 
L 389.880027 286.43553 
L 390.014515 271.442664 
L 390.149004 271.681118 
L 390.41798 271.703188 
L 390.552468 271.571727 
L 390.686956 266.039302 
L 390.821445 266.225459 
L 390.955933 257.318213 
L 391.224909 200.808892 
L 391.359397 169.235545 
L 391.493886 165.220687 
L 391.762862 175.981351 
L 391.89735 175.434394 
L 392.031839 168.16562 
L 392.166327 171.888288 
L 392.300815 180.924597 
L 392.569791 241.460291 
L 392.70428 267.91383 
L 392.973256 272.787027 
L 393.107744 273.448654 
L 393.376721 266.347805 
L 393.645697 272.101891 
L 393.780185 268.689646 
L 393.914673 270.082947 
L 394.049162 262.623218 
L 394.721603 147.290085 
L 394.990579 146.211523 
L 395.125067 145.788831 
L 395.259556 157.245666 
L 395.394044 158.121278 
L 395.931997 246.82335 
L 396.200973 260.519832 
L 396.335461 256.759261 
L 396.46995 281.689476 
L 396.604438 282.075225 
L 397.007902 285.12955 
L 397.276879 271.989621 
L 397.545855 197.811183 
L 397.680343 192.59062 
L 397.94932 169.064261 
L 398.083808 155.511716 
L 398.218296 168.336424 
L 398.352785 163.539513 
L 398.487273 166.571287 
L 398.487273 166.571287 
" clip-path="url(#p4294525bfa)" style="fill: none; stroke: #1f77b4; stroke-width: 1.5; stroke-linecap: square"/>
   </g>
   <g id="line2d_13">
    <path d="M 73.832727 280.349886 
L 73.967215 280.832812 
L 74.236192 280.436944 
L 74.37068 278.900536 
L 74.505168 280.497129 
L 74.639657 279.44691 
L 74.774145 280.357013 
L 74.908633 270.179492 
L 75.043121 227.229 
L 75.177609 246.351868 
L 75.715562 250.880988 
L 75.85005 250.252793 
L 75.984539 251.741174 
L 76.253515 249.187963 
L 76.388003 248.828241 
L 76.522492 279.163396 
L 76.791468 277.144818 
L 76.925956 275.956186 
L 77.060444 276.707098 
L 77.194933 263.826837 
L 77.329421 266.925478 
L 77.598397 265.548304 
L 77.732885 266.538037 
L 77.867374 254.450852 
L 78.001862 227.790547 
L 78.270838 126.819674 
L 78.405327 93.204025 
L 78.539815 109.497914 
L 78.674303 111.908991 
L 78.808791 104.165892 
L 78.943279 113.156171 
L 79.077768 112.314222 
L 79.61572 191.726433 
L 79.884697 247.103431 
L 80.288161 271.457148 
L 80.42265 262.58167 
L 80.557138 275.446495 
L 80.691626 272.259763 
L 80.826114 272.454785 
L 80.960603 269.727811 
L 81.095091 262.698353 
L 81.229579 241.538837 
L 81.498555 145.537033 
L 81.633044 173.084489 
L 81.767532 166.674125 
L 81.90202 153.386555 
L 82.036508 164.393151 
L 82.170996 165.843193 
L 82.305485 163.980301 
L 82.439973 166.589677 
L 82.708949 230.211297 
L 82.843438 233.600344 
L 83.112414 262.461101 
L 83.246902 260.416043 
L 83.38139 265.147577 
L 83.784855 295.01466 
L 84.322808 280.535198 
L 84.457296 265.64854 
L 84.726273 164.495171 
L 85.129737 182.896859 
L 85.264225 165.681554 
L 85.533202 185.987496 
L 85.66769 190.425311 
L 85.936666 215.968581 
L 86.205643 262.442857 
L 86.340131 260.491805 
L 86.474619 268.034478 
L 86.609107 267.393963 
L 87.14706 291.026305 
L 87.281549 287.86841 
L 87.416037 288.43404 
L 87.685013 286.240392 
L 87.95399 249.766813 
L 88.088478 262.079202 
L 88.222966 255.002591 
L 88.357454 260.434394 
L 88.491942 259.059828 
L 88.626431 254.414071 
L 88.760919 260.481732 
L 88.895407 248.94974 
L 89.029895 256.484263 
L 89.164384 255.708634 
L 89.298872 260.213476 
L 89.43336 277.85439 
L 89.567848 278.293032 
L 89.702336 278.329154 
L 89.836825 277.004065 
L 89.971313 278.096406 
L 90.105801 257.785697 
L 90.374777 262.887406 
L 90.509266 263.244114 
L 90.643754 264.209677 
L 90.778242 263.121855 
L 90.91273 265.708764 
L 91.047218 259.854871 
L 91.181707 246.689133 
L 91.316195 252.805676 
L 91.450683 244.921435 
L 91.585171 255.264799 
L 91.71966 250.799561 
L 91.854148 253.837493 
L 91.988636 254.189405 
L 92.257612 258.33621 
L 92.392101 257.455461 
L 92.795565 267.736644 
L 92.930053 269.574891 
L 93.19903 269.008084 
L 93.333518 281.103033 
L 93.736983 275.38203 
L 94.005959 265.052506 
L 94.140447 253.90985 
L 94.409424 167.785007 
L 94.543912 183.559017 
L 94.812888 156.595132 
L 94.947377 158.20966 
L 95.216353 172.822648 
L 95.350841 169.219525 
L 95.48533 162.595904 
L 95.888794 256.022692 
L 96.023282 268.148365 
L 96.157771 268.758032 
L 96.292259 267.752515 
L 96.561235 271.795314 
L 96.830212 267.071694 
L 96.9647 268.330242 
L 97.233676 260.503961 
L 97.502653 212.029503 
L 97.637141 166.964378 
L 97.771629 184.39121 
L 97.906117 173.446876 
L 98.040606 185.01811 
L 98.175094 180.629201 
L 98.309582 180.222784 
L 98.44407 181.509011 
L 98.713047 200.552028 
L 98.847535 210.394242 
L 99.250999 270.463547 
L 99.385488 269.9688 
L 99.654464 275.315908 
L 99.788952 286.234453 
L 99.923441 284.516566 
L 100.192417 278.888262 
L 100.326905 278.776206 
L 100.461393 277.69956 
L 100.595882 275.044292 
L 100.73037 276.075333 
L 100.864858 280.83848 
L 100.999346 280.087343 
L 101.133834 286.036813 
L 101.268323 285.76647 
L 101.402811 282.001913 
L 101.537299 271.187693 
L 101.671787 276.916468 
L 101.806276 265.766206 
L 101.940764 265.276998 
L 102.20974 270.572654 
L 102.478717 275.319281 
L 102.613205 280.915022 
L 102.747693 276.637194 
L 102.882181 283.162648 
L 103.016669 262.612544 
L 103.151158 262.674003 
L 103.285646 269.817547 
L 103.420134 269.569452 
L 103.823599 248.616869 
L 104.092575 163.709597 
L 104.227063 171.987525 
L 104.361552 153.980903 
L 104.49604 166.813471 
L 104.765016 142.717775 
L 105.033993 164.009452 
L 105.302969 193.644104 
L 105.706434 262.823038 
L 105.97541 255.788886 
L 106.378875 289.692177 
L 106.647851 280.533064 
L 106.782339 282.207805 
L 106.916828 279.873793 
L 107.051316 279.89213 
L 107.320292 220.43605 
L 107.589269 256.510226 
L 107.723757 250.109542 
L 107.992733 254.619545 
L 108.127222 254.685851 
L 108.530686 244.853318 
L 108.665174 251.772533 
L 108.934151 282.478306 
L 109.203127 278.279837 
L 109.337615 277.283143 
L 109.472104 270.565588 
L 109.606592 271.98786 
L 109.74108 272.105315 
L 109.875568 272.994051 
L 110.144545 271.861688 
L 110.413521 272.406942 
L 110.682498 275.829971 
L 110.951474 273.257426 
L 111.085962 273.755561 
L 111.22045 275.886516 
L 111.489427 272.199244 
L 111.758403 267.275115 
L 112.161868 273.507103 
L 112.296356 273.393999 
L 112.430844 273.074565 
L 112.565333 273.468127 
L 112.699821 259.208684 
L 112.968797 264.918243 
L 113.237774 265.600664 
L 113.372262 264.53934 
L 113.775726 271.479584 
L 113.910215 268.577042 
L 114.044703 269.977193 
L 114.179191 267.976555 
L 114.313679 262.221862 
L 114.448168 263.885538 
L 114.582656 263.015487 
L 114.717144 260.875212 
L 114.98612 251.410773 
L 115.120609 252.29421 
L 115.389585 261.973118 
L 115.658561 262.471797 
L 115.79305 263.856848 
L 116.062026 262.053854 
L 116.196514 257.352454 
L 116.331002 265.755977 
L 116.599979 259.935266 
L 116.734467 239.05517 
L 117.003444 129.753966 
L 117.137932 82.112674 
L 117.27242 88.38597 
L 117.406908 87.138196 
L 117.541396 80.953855 
L 117.675885 84.111208 
L 117.810373 90.459798 
L 118.213837 145.677366 
L 118.482814 225.131742 
L 119.020767 255.050406 
L 119.155255 254.229694 
L 119.289743 255.612398 
L 119.55872 251.552944 
L 119.693208 253.092332 
L 119.827696 250.703592 
L 119.962184 229.859706 
L 120.231161 121.317616 
L 120.365649 96.11149 
L 120.500137 100.227077 
L 120.769114 91.018209 
L 120.903602 93.211258 
L 121.03809 91.378332 
L 121.172578 99.435703 
L 121.576043 178.055173 
L 121.710531 225.793199 
L 121.845019 228.793945 
L 121.979507 244.982512 
L 122.113996 241.477296 
L 122.51746 260.456062 
L 122.651948 259.291215 
L 123.055413 246.948288 
L 123.189901 229.822426 
L 123.458878 122.780491 
L 123.593366 88.258994 
L 123.727854 87.023296 
L 123.862342 87.552764 
L 123.996831 87.348387 
L 124.669272 138.762945 
L 124.938248 222.092553 
L 125.207225 257.053817 
L 125.341713 254.457572 
L 125.476201 259.905204 
L 125.610689 256.103697 
L 125.745177 268.78696 
L 125.879666 269.756216 
L 126.014154 268.036623 
L 126.148642 264.015325 
L 126.417618 236.572266 
L 126.686595 131.811461 
L 126.821083 102.262729 
L 127.09006 90.850984 
L 127.224548 97.145165 
L 127.493524 113.519363 
L 127.628012 117.661989 
L 127.896989 155.633596 
L 128.300453 241.807418 
L 128.434942 254.772745 
L 128.56943 254.717911 
L 128.703918 256.802412 
L 128.838406 262.670828 
L 128.972894 259.900686 
L 129.107383 259.947802 
L 129.241871 262.303829 
L 129.376359 261.091068 
L 129.645336 219.798948 
L 130.0488 84.479657 
L 130.183288 94.68867 
L 130.317777 91.675797 
L 130.452265 98.995234 
L 130.586753 123.88004 
L 130.721241 117.918981 
L 130.855729 117.536589 
L 131.124706 169.261958 
L 131.393682 236.666091 
L 131.662659 260.2603 
L 131.797147 260.087467 
L 131.931635 263.944864 
L 132.200612 258.928275 
L 132.3351 263.099597 
L 132.469588 271.598439 
L 132.738564 266.987668 
L 132.873053 265.356127 
L 133.007541 249.425744 
L 133.142029 248.695731 
L 133.276517 241.771434 
L 133.411005 241.91429 
L 133.679982 239.36501 
L 133.81447 242.20806 
L 133.948958 241.821765 
L 134.083447 236.915402 
L 134.352423 247.178822 
L 134.755888 257.153971 
L 134.890376 257.02159 
L 135.024864 255.972317 
L 135.29384 261.491339 
L 135.562817 262.889801 
L 135.831793 265.426294 
L 135.966282 271.292373 
L 136.10077 269.752531 
L 136.235258 264.946576 
L 136.369746 268.713857 
L 136.504234 269.122761 
L 136.638723 264.598845 
L 136.773211 268.376953 
L 136.907699 266.768507 
L 137.042187 266.604532 
L 137.311164 255.324376 
L 137.445652 255.066994 
L 137.58014 257.260614 
L 137.714628 254.616218 
L 137.983605 261.939502 
L 138.118093 262.306635 
L 138.252581 260.547449 
L 138.387069 262.199041 
L 138.521558 265.998789 
L 138.790534 259.099426 
L 139.05951 262.846517 
L 139.328487 229.31386 
L 139.597463 121.566232 
L 139.731951 83.889387 
L 139.86644 93.87027 
L 140.000928 91.198047 
L 140.135416 92.490809 
L 140.404393 107.715961 
L 140.942345 180.732713 
L 141.211322 244.077738 
L 141.34581 247.179921 
L 141.614786 264.906577 
L 141.749275 263.82303 
L 141.883763 266.081012 
L 142.287228 258.909457 
L 142.690692 155.03789 
L 142.959669 86.74223 
L 143.094157 102.38628 
L 143.363133 94.119577 
L 143.497621 102.82989 
L 143.63211 95.635802 
L 143.766598 106.886701 
L 144.304551 234.845544 
L 144.439039 235.497338 
L 144.708015 261.936876 
L 144.842504 268.614723 
L 145.11148 262.886523 
L 145.245968 262.601308 
L 145.380456 263.988101 
L 145.514945 254.190777 
L 145.649433 222.706611 
L 145.783921 222.087119 
L 146.187386 92.112146 
L 146.321874 95.570046 
L 146.59085 111.234247 
L 146.725339 118.369995 
L 146.859827 114.502125 
L 147.263291 155.878561 
L 147.532268 239.92098 
L 148.204709 266.746027 
L 148.339197 266.061586 
L 148.87715 257.741688 
L 149.146126 164.456502 
L 149.415103 99.367736 
L 149.549591 118.326639 
L 149.818567 106.458473 
L 150.222032 149.879305 
L 150.35652 145.90467 
L 150.491009 161.085159 
L 150.759985 243.278074 
L 150.894473 245.197167 
L 151.16345 263.615748 
L 151.297938 265.125336 
L 151.566914 264.379145 
L 151.701402 265.96766 
L 151.970379 264.620605 
L 152.104867 260.025743 
L 152.64282 93.675711 
L 152.777308 119.017313 
L 152.911796 113.280012 
L 153.046285 100.960876 
L 153.315261 119.228714 
L 153.584237 174.264984 
L 153.853214 222.282589 
L 154.12219 261.603468 
L 154.256678 270.906814 
L 154.391167 268.344338 
L 154.525655 273.711301 
L 154.660143 272.254254 
L 154.794631 273.012817 
L 154.92912 272.287442 
L 155.063608 272.905572 
L 155.332584 276.399241 
L 155.467072 274.225527 
L 155.601561 266.70268 
L 155.736049 250.939832 
L 155.870537 258.639096 
L 156.005025 257.311941 
L 156.139513 263.064038 
L 156.40849 260.450918 
L 156.542978 261.311639 
L 156.677466 263.322211 
L 156.811955 261.771486 
L 157.349907 270.48565 
L 157.484396 271.408533 
L 157.618884 269.408969 
L 158.022348 272.60953 
L 158.156837 272.08572 
L 158.291325 272.63124 
L 158.694789 278.974493 
L 158.829278 275.244765 
L 158.963766 277.950846 
L 159.098254 277.934738 
L 159.232742 275.633187 
L 159.367231 276.708042 
L 159.501719 278.706493 
L 159.770695 271.125547 
L 159.905183 265.126608 
L 160.039672 265.824078 
L 160.17416 260.500915 
L 160.308648 263.845018 
L 160.443136 264.344271 
L 160.577624 270.990632 
L 160.846601 266.166224 
L 161.115577 267.403802 
L 161.250066 270.157345 
L 161.65353 265.869948 
L 161.922507 232.811734 
L 162.325971 93.015399 
L 162.460459 89.479059 
L 162.594948 97.252609 
L 162.863924 91.916839 
L 163.132901 119.122903 
L 163.267389 132.038017 
L 163.536365 191.803866 
L 163.670853 235.946619 
L 163.93983 246.902095 
L 164.208806 263.001036 
L 164.343294 261.077675 
L 164.477783 272.204528 
L 164.612271 270.709331 
L 164.746759 272.204505 
L 165.150224 229.378666 
L 165.553688 100.793451 
L 165.688177 126.480933 
L 165.957153 109.209943 
L 166.091641 120.39361 
L 166.360618 113.70933 
L 166.495106 120.447501 
L 166.629594 138.519498 
L 166.89857 235.783927 
L 167.033059 236.774918 
L 167.167547 238.940391 
L 167.436523 255.985966 
L 167.571012 256.893898 
L 167.839988 263.054352 
L 167.974476 262.637425 
L 168.108964 261.55437 
L 168.243453 247.877039 
L 168.377941 221.926034 
L 168.781405 88.411359 
L 168.915894 114.110368 
L 169.050382 102.237301 
L 169.18487 102.069013 
L 169.319358 109.55899 
L 169.453847 98.672982 
L 169.588335 110.479976 
L 170.126288 238.465224 
L 170.260776 244.337051 
L 170.395264 258.156049 
L 170.529752 258.79404 
L 170.798729 264.744434 
L 171.067705 261.462163 
L 171.202193 261.247644 
L 171.336681 264.373119 
L 171.740146 169.599513 
L 172.009123 93.513571 
L 172.278099 114.563072 
L 172.412587 100.79515 
L 172.547075 98.724003 
L 173.085028 158.070855 
L 173.354005 243.257512 
L 173.488493 244.058416 
L 173.757469 261.845139 
L 174.026446 283.692452 
L 174.295422 276.286587 
L 174.42991 273.733242 
L 174.564399 274.252154 
L 174.967863 215.019965 
L 175.102351 167.22245 
L 175.23684 164.920816 
L 175.505816 140.690273 
L 175.640304 142.699332 
L 175.774792 154.506677 
L 175.909281 153.169783 
L 176.043769 156.920591 
L 176.447234 201.467472 
L 176.581722 247.714472 
L 176.71621 252.229592 
L 176.985186 267.488436 
L 177.119675 267.146503 
L 177.388651 268.898488 
L 177.523139 267.564351 
L 177.792116 273.119207 
L 178.061092 273.436595 
L 178.19558 260.30092 
L 178.330069 258.489682 
L 178.464557 262.351075 
L 178.599045 254.10707 
L 178.733533 258.177293 
L 178.868021 258.542273 
L 179.00251 261.697225 
L 179.271486 257.191846 
L 179.405974 258.215434 
L 179.540462 255.491076 
L 179.674951 256.803308 
L 180.078415 271.302217 
L 180.212904 266.935445 
L 180.347392 268.010182 
L 180.48188 276.927602 
L 180.616368 277.245082 
L 180.885345 274.736576 
L 181.019833 275.22176 
L 181.154321 274.664277 
L 181.557786 262.223058 
L 181.692274 266.214743 
L 181.826762 264.452074 
L 181.96125 268.256506 
L 182.095738 260.208355 
L 182.364715 268.901468 
L 182.633691 271.49114 
L 182.76818 274.84597 
L 182.902668 273.119673 
L 183.037156 273.085388 
L 183.171644 278.258125 
L 183.306132 277.43179 
L 183.440621 277.572002 
L 183.575109 279.425 
L 183.709597 274.859757 
L 183.978573 291.191858 
L 184.113062 289.366873 
L 184.516526 258.606828 
L 184.785503 184.795211 
L 184.919991 189.507975 
L 185.054479 173.806659 
L 185.188967 183.3816 
L 185.323456 179.337602 
L 185.457944 181.090521 
L 185.72692 193.093872 
L 186.264873 258.205005 
L 186.668338 271.284847 
L 187.071802 294.908794 
L 187.206291 294.515188 
L 187.609755 280.176082 
L 187.744243 264.122707 
L 188.01322 187.238439 
L 188.147708 192.313313 
L 188.282196 178.021064 
L 188.551173 185.927612 
L 188.685661 187.395778 
L 188.820149 198.411366 
L 188.954637 198.452024 
L 189.358102 243.64331 
L 189.627078 269.217406 
L 189.761567 269.566863 
L 189.896055 270.919711 
L 190.030543 277.616439 
L 190.165031 272.09149 
L 190.299519 271.85158 
L 190.434008 270.513378 
L 190.568496 267.080455 
L 190.702984 266.936223 
L 190.971961 268.534157 
L 191.106449 268.069755 
L 191.240937 262.411493 
L 191.509913 272.843252 
L 191.644402 267.591059 
L 191.77889 271.373798 
L 192.047866 267.010073 
L 192.182354 261.742132 
L 192.316843 261.613081 
L 192.720307 266.879388 
L 192.854796 273.763565 
L 192.989284 272.474088 
L 193.123772 272.427312 
L 193.527237 264.948352 
L 193.661725 266.672954 
L 193.796213 266.65298 
L 193.930701 265.706784 
L 194.199678 248.335467 
L 194.468654 175.144961 
L 194.603142 168.291169 
L 194.73763 150.751235 
L 194.872119 151.361722 
L 195.006607 145.509085 
L 195.141095 146.360383 
L 195.275583 155.636878 
L 195.410072 149.794404 
L 195.679048 181.705674 
L 195.948024 240.496267 
L 196.082513 262.360149 
L 196.217001 261.955629 
L 196.351489 262.102722 
L 196.485977 266.913279 
L 196.620465 277.027044 
L 197.02393 268.050132 
L 197.158418 268.730503 
L 197.292907 263.921269 
L 197.427395 250.758742 
L 197.696371 176.621944 
L 197.830859 192.751029 
L 197.965348 191.313174 
L 198.099836 196.969576 
L 198.234324 194.863144 
L 198.368812 200.981373 
L 198.637789 194.601354 
L 199.041253 242.772225 
L 199.31023 276.466252 
L 199.444718 275.636065 
L 199.848183 281.922688 
L 199.982671 279.013617 
L 200.117159 279.422694 
L 200.251647 279.032118 
L 200.386135 276.204383 
L 200.520624 266.924029 
L 200.655112 268.050628 
L 200.7896 245.663505 
L 200.924088 177.376743 
L 201.058576 206.331638 
L 201.193065 193.941291 
L 201.327553 195.133334 
L 201.462041 193.65882 
L 201.596529 199.429936 
L 201.731018 190.073953 
L 201.865506 193.123711 
L 202.26897 233.067604 
L 202.537947 270.69589 
L 202.672435 268.057885 
L 202.941411 275.711509 
L 203.210388 264.258129 
L 203.344876 269.682424 
L 203.479364 268.983435 
L 203.882829 254.149158 
L 204.017317 226.224805 
L 204.151805 173.714838 
L 204.420782 161.833641 
L 204.55527 162.706523 
L 204.689758 161.875201 
L 204.824246 167.313421 
L 204.958735 164.118961 
L 205.227711 193.945159 
L 205.765664 264.575264 
L 206.03464 261.410561 
L 206.169129 269.066019 
L 206.303617 286.717927 
L 206.438105 284.717929 
L 206.572593 284.486757 
L 206.84157 283.142618 
L 206.976058 281.444689 
L 207.379522 259.273545 
L 207.514011 260.601184 
L 208.051964 277.669343 
L 208.186452 276.528815 
L 208.455428 267.759288 
L 208.724405 270.224478 
L 208.858893 278.443304 
L 208.993381 279.724053 
L 209.127869 282.823642 
L 209.396846 281.072138 
L 209.531334 271.748926 
L 209.665822 272.931228 
L 209.934799 271.310632 
L 210.069287 271.571646 
L 210.472751 197.010785 
L 210.741728 151.941447 
L 211.010704 124.077581 
L 211.145192 113.393808 
L 211.817634 193.568439 
L 212.221098 262.093947 
L 212.355586 259.956838 
L 212.490075 260.429245 
L 212.759051 272.824579 
L 212.893539 275.98496 
L 213.162516 269.519783 
L 213.297004 272.077381 
L 213.56598 235.893202 
L 213.834957 135.109834 
L 213.969445 113.501013 
L 214.103933 142.983696 
L 214.37291 135.177296 
L 214.641886 160.328211 
L 215.448815 269.052781 
L 215.583303 264.15179 
L 215.717792 269.311008 
L 215.85228 269.180917 
L 216.121256 270.817787 
L 216.390233 268.281815 
L 216.524721 270.505188 
L 216.793697 244.714564 
L 217.062674 147.25706 
L 217.197162 130.788382 
L 217.33165 150.769959 
L 217.466138 150.076977 
L 217.600627 154.651503 
L 217.735115 155.213612 
L 217.869603 147.300708 
L 218.004091 162.555734 
L 218.273068 212.046617 
L 218.407556 220.999362 
L 218.542044 262.319296 
L 218.676532 265.177076 
L 218.945509 274.613747 
L 219.079997 266.896566 
L 219.752438 275.952732 
L 220.021414 245.190618 
L 220.290391 144.795345 
L 220.424879 148.354871 
L 220.559367 158.748322 
L 220.828344 147.329804 
L 220.962832 160.330857 
L 221.09732 158.596933 
L 221.366297 202.573448 
L 221.500785 209.482171 
L 221.635273 222.989954 
L 221.769761 261.063287 
L 222.173226 273.482594 
L 222.307714 272.972648 
L 222.442202 273.271797 
L 222.711179 278.413125 
L 222.845667 278.599852 
L 222.980155 279.552567 
L 223.114643 275.599202 
L 223.249132 278.704969 
L 223.518108 250.355802 
L 223.652596 265.060387 
L 223.787084 264.598953 
L 224.056061 258.62157 
L 224.190549 258.434305 
L 224.325037 257.991655 
L 224.459525 261.708606 
L 224.594014 260.964435 
L 224.86299 257.32408 
L 225.131967 264.036945 
L 225.266455 264.493177 
L 225.400943 262.143205 
L 225.535431 264.540716 
L 225.669919 263.482515 
L 225.804408 260.499709 
L 226.207872 270.059512 
L 226.34236 269.675234 
L 226.476849 271.251376 
L 226.880313 268.290904 
L 227.014802 273.394428 
L 227.283778 274.158016 
L 227.418266 271.869325 
L 227.552754 274.596501 
L 227.687243 274.384213 
L 227.956219 272.494768 
L 228.090707 272.833235 
L 228.225195 279.726744 
L 228.359684 277.544771 
L 228.494172 278.474945 
L 228.62866 276.37349 
L 228.763148 279.004573 
L 228.897637 278.364644 
L 229.032125 273.930655 
L 229.166613 273.276958 
L 229.301101 273.32475 
L 229.435589 272.295647 
L 229.570078 258.650914 
L 229.704566 230.957902 
L 230.10803 99.832363 
L 230.242519 101.845802 
L 230.377007 96.179916 
L 230.511495 85.801631 
L 230.645983 118.607015 
L 230.91496 124.530309 
L 231.318424 207.441772 
L 231.587401 254.027485 
L 231.856377 263.997553 
L 232.125354 272.314658 
L 232.259842 271.301407 
L 232.528818 273.664655 
L 232.663306 269.643748 
L 232.932283 234.212653 
L 233.335748 112.305371 
L 233.604724 136.894269 
L 233.739212 133.867428 
L 233.8737 141.818188 
L 234.008189 134.978246 
L 234.142677 147.311348 
L 234.411653 199.590732 
L 234.546141 213.365992 
L 234.815118 267.908221 
L 234.949606 267.113711 
L 235.084094 265.154291 
L 235.218583 273.857794 
L 235.353071 273.357857 
L 235.622047 280.819621 
L 235.891024 273.650633 
L 236.16 246.77306 
L 236.428976 139.919369 
L 236.563465 112.532627 
L 236.697953 129.055833 
L 236.832441 126.70362 
L 236.966929 115.079509 
L 237.101417 126.305731 
L 237.235906 152.206497 
L 237.370394 154.054237 
L 237.504882 171.017981 
L 237.908347 258.746877 
L 238.042835 268.501555 
L 238.311811 269.469861 
L 238.4463 273.469467 
L 238.580788 273.580032 
L 238.715276 275.378858 
L 238.984252 283.942811 
L 239.118741 279.276365 
L 239.253229 269.116119 
L 239.387717 240.191883 
L 239.656694 145.143073 
L 239.791182 123.247172 
L 239.92567 124.55793 
L 240.060158 135.624467 
L 240.194646 134.535851 
L 240.329135 139.26609 
L 240.732599 185.138756 
L 240.867087 200.333603 
L 241.136064 257.098834 
L 241.270552 257.491219 
L 241.40504 262.298595 
L 241.539529 261.493064 
L 241.674017 265.873952 
L 241.808505 263.598493 
L 241.942993 277.254357 
L 242.077481 277.361552 
L 242.21197 285.588351 
L 242.346458 280.405011 
L 242.615434 241.612139 
L 242.884411 144.616782 
L 243.018899 132.650802 
L 243.153387 161.181671 
L 243.422363 140.245461 
L 243.825828 169.002895 
L 243.960316 186.678118 
L 244.229293 240.306127 
L 244.498269 262.529827 
L 244.767246 268.585928 
L 245.17071 276.217906 
L 245.305198 275.279207 
L 245.439687 275.33148 
L 245.708663 271.065395 
L 245.843151 250.819075 
L 245.97764 265.988112 
L 246.112128 262.196643 
L 246.381104 263.795429 
L 246.515592 261.797485 
L 246.650081 262.793004 
L 247.053545 271.654781 
L 247.188033 271.116212 
L 247.322522 273.694708 
L 247.45701 273.424389 
L 247.591498 274.39549 
L 247.725986 273.407917 
L 247.860475 275.841029 
L 247.994963 273.209964 
L 248.129451 274.882222 
L 248.263939 274.904271 
L 248.398427 273.708069 
L 248.532916 274.031244 
L 248.667404 272.722728 
L 248.801892 275.218423 
L 248.93638 273.715358 
L 249.070868 274.297793 
L 249.205357 273.676557 
L 249.608821 278.245501 
L 249.743309 277.244359 
L 250.012286 277.965925 
L 250.281262 275.857801 
L 250.415751 275.636883 
L 250.684727 273.95305 
L 250.953703 274.7415 
L 251.088192 275.147312 
L 251.22268 273.391993 
L 251.357168 276.145337 
L 251.491656 275.81456 
L 251.626144 287.243575 
L 252.029609 280.340446 
L 252.298586 255.881797 
L 252.567562 150.772218 
L 252.70205 126.80687 
L 252.971027 159.037684 
L 253.105515 153.395953 
L 253.240003 157.719166 
L 253.912444 232.927201 
L 254.046932 261.516374 
L 254.181421 264.087245 
L 254.584885 282.661268 
L 254.719373 283.998621 
L 254.853862 287.705758 
L 254.98835 285.875655 
L 255.122838 286.870035 
L 255.257326 285.701589 
L 255.526303 245.194824 
L 255.795279 153.673702 
L 256.064255 171.875246 
L 256.333232 156.268374 
L 256.602208 162.88585 
L 256.736697 171.948872 
L 257.140161 232.311962 
L 257.274649 253.079125 
L 257.409138 256.568405 
L 257.543626 264.700169 
L 257.678114 262.463894 
L 257.812602 267.938563 
L 257.94709 267.042371 
L 258.216067 284.582716 
L 258.350555 284.164928 
L 258.485043 279.212409 
L 258.75402 250.125461 
L 259.022996 154.061529 
L 259.157484 165.817991 
L 259.291973 167.186631 
L 259.426461 161.230374 
L 259.560949 150.25506 
L 259.695437 157.491775 
L 259.829925 173.798187 
L 259.964414 160.55633 
L 260.636855 256.990452 
L 261.040319 266.555875 
L 261.174808 265.206218 
L 261.309296 271.33196 
L 261.443784 270.785994 
L 261.578272 273.537484 
L 261.847249 263.13896 
L 261.981737 237.469838 
L 262.250713 150.765732 
L 262.51969 163.614097 
L 262.654178 144.765566 
L 262.788666 146.258398 
L 262.923154 154.759418 
L 263.057643 151.814697 
L 263.461107 205.791926 
L 263.99906 254.453269 
L 264.133548 256.377575 
L 264.402525 268.864576 
L 264.537013 263.568435 
L 264.671501 265.358619 
L 265.074966 257.247899 
L 265.209454 240.896612 
L 265.747407 111.761925 
L 265.881895 113.175404 
L 266.016383 108.382652 
L 266.28536 123.222827 
L 266.419848 125.454614 
L 266.688824 166.920868 
L 267.092289 250.79128 
L 267.495754 257.807491 
L 267.630242 274.310295 
L 267.76473 268.825427 
L 267.899218 270.734654 
L 268.033706 267.97459 
L 268.302683 275.651659 
L 268.437171 275.581706 
L 268.571659 269.842647 
L 268.840636 276.812287 
L 269.109612 273.026121 
L 269.2441 272.578132 
L 269.378589 272.616845 
L 269.782053 261.862528 
L 270.05103 259.083268 
L 270.185518 261.457306 
L 270.320006 261.755975 
L 270.454494 262.538721 
L 270.723471 266.755007 
L 270.857959 282.242776 
L 271.261424 276.106574 
L 271.5304 275.065858 
L 271.933865 280.092274 
L 272.068353 277.8316 
L 272.202841 280.732282 
L 272.337329 278.697066 
L 272.471817 280.272197 
L 272.606306 278.839256 
L 272.740794 275.869112 
L 272.875282 278.32881 
L 273.00977 278.615519 
L 273.144258 277.510372 
L 273.278747 274.791761 
L 273.413235 275.494619 
L 273.682211 277.292698 
L 273.8167 276.263208 
L 273.951188 278.597421 
L 274.085676 277.404468 
L 274.220164 291.579671 
L 274.354652 292.381428 
L 274.489141 292.341294 
L 274.623629 286.897713 
L 274.892605 258.913702 
L 275.161582 189.995297 
L 275.430558 155.410859 
L 275.565046 156.948091 
L 275.699535 151.31723 
L 275.834023 153.391328 
L 276.102999 180.077317 
L 276.77544 263.522897 
L 276.909928 269.636159 
L 277.044417 270.434436 
L 277.178905 277.686674 
L 277.313393 274.612746 
L 277.447881 283.302435 
L 277.58237 281.142153 
L 277.716858 285.558334 
L 277.851346 282.767449 
L 277.985834 275.797261 
L 278.120322 260.164502 
L 278.389299 199.663806 
L 278.523787 196.897847 
L 278.658275 181.286856 
L 278.792763 189.523656 
L 278.927252 179.556931 
L 279.06174 194.304734 
L 279.196228 193.088335 
L 279.330716 200.459236 
L 280.003157 270.650609 
L 280.272134 273.994507 
L 280.406622 279.740865 
L 280.54111 267.477099 
L 280.810087 265.810864 
L 280.944575 266.726341 
L 281.079063 264.811979 
L 281.348039 248.392416 
L 281.617016 138.375583 
L 281.885992 125.769093 
L 282.020481 129.42339 
L 282.289457 143.453597 
L 282.423945 124.722773 
L 282.692922 159.833335 
L 283.230874 263.497184 
L 283.365363 263.123248 
L 283.499851 263.908522 
L 283.634339 267.307006 
L 283.903316 261.681173 
L 284.037804 259.669298 
L 284.172292 260.157461 
L 284.30678 258.08918 
L 284.575757 244.772619 
L 284.844733 166.46579 
L 284.979221 153.122061 
L 285.113709 155.525846 
L 285.382686 140.217421 
L 285.517174 137.370294 
L 285.651662 150.481144 
L 285.78615 152.016913 
L 285.920639 161.048501 
L 286.324103 248.676216 
L 286.458592 261.142107 
L 286.59308 260.581067 
L 286.727568 263.81556 
L 286.862056 264.265412 
L 286.996544 286.66551 
L 287.803474 266.213773 
L 288.07245 270.288464 
L 288.206938 275.556468 
L 288.341427 274.954494 
L 288.475915 275.498021 
L 288.610403 272.930708 
L 288.744891 274.013142 
L 288.879379 272.539675 
L 289.013868 276.381381 
L 289.148356 276.331655 
L 289.282844 271.013103 
L 289.55182 280.441634 
L 289.686309 281.350838 
L 290.089773 277.289186 
L 290.224262 275.133808 
L 290.35875 277.52203 
L 290.493238 275.615544 
L 290.627726 277.118153 
L 290.762214 273.820816 
L 290.896703 264.809765 
L 291.031191 263.51739 
L 291.165679 244.368945 
L 291.300167 182.915914 
L 291.434655 180.755053 
L 291.569144 182.424573 
L 291.83812 189.802832 
L 292.107096 176.394761 
L 292.376073 204.871613 
L 292.645049 236.485991 
L 292.914026 267.999462 
L 293.048514 265.896541 
L 293.31749 272.262967 
L 293.451979 269.618151 
L 293.586467 269.595884 
L 293.720955 267.064449 
L 293.855443 270.521922 
L 293.989931 269.397142 
L 294.393396 228.238555 
L 294.527884 179.176085 
L 294.662373 175.552468 
L 294.931349 155.86242 
L 295.200325 140.620743 
L 295.334814 149.676054 
L 295.469302 149.590681 
L 295.738278 201.052076 
L 295.872766 214.284206 
L 296.141743 265.121181 
L 296.410719 257.281 
L 296.545208 267.729319 
L 296.679696 287.285592 
L 296.948672 285.691084 
L 297.08316 282.560145 
L 297.217649 282.418848 
L 297.352137 281.997086 
L 297.621113 279.541099 
L 297.89009 286.951827 
L 298.293554 281.384906 
L 298.428042 280.97043 
L 298.562531 279.491961 
L 298.697019 274.660991 
L 298.831507 274.108718 
L 298.965995 274.332707 
L 299.36946 280.708725 
L 299.503948 281.04872 
L 299.638436 279.522893 
L 299.772925 280.17553 
L 299.907413 266.52319 
L 300.041901 271.228734 
L 300.176389 269.466684 
L 300.310877 270.807643 
L 300.445366 268.00838 
L 300.714342 244.00504 
L 300.983319 168.395316 
L 301.252295 138.367858 
L 301.386783 129.939522 
L 301.521271 129.365754 
L 301.65576 139.998809 
L 301.790248 134.410135 
L 301.924736 149.475041 
L 302.193712 199.950303 
L 302.328201 214.627003 
L 302.597177 256.937437 
L 302.731665 258.819795 
L 302.866153 257.487591 
L 303.13513 270.939172 
L 303.404106 265.810078 
L 303.538595 267.374552 
L 303.673083 265.860242 
L 304.211036 157.500081 
L 304.345524 159.364091 
L 304.480012 161.595036 
L 304.748988 152.94727 
L 304.883477 159.384153 
L 305.017965 153.230405 
L 305.152453 163.558681 
L 305.42143 212.586017 
L 305.555918 219.995392 
L 305.824894 258.819513 
L 305.959382 265.291673 
L 306.093871 262.952262 
L 306.228359 269.11709 
L 306.362847 268.348352 
L 306.497335 279.003484 
L 306.631823 278.490073 
L 306.9008 273.974563 
L 307.035288 263.260493 
L 307.169776 240.575664 
L 307.438753 151.299052 
L 307.707729 172.638802 
L 307.842217 159.560714 
L 307.976706 157.985394 
L 308.111194 162.85033 
L 308.245682 156.65796 
L 308.38017 165.376786 
L 308.783635 232.277318 
L 309.052611 266.33815 
L 309.321588 269.3207 
L 309.456076 275.489962 
L 309.590564 275.597744 
L 309.725052 277.879242 
L 310.128517 273.552026 
L 310.263005 264.927022 
L 310.397493 238.296476 
L 310.66647 151.575273 
L 310.800958 156.475306 
L 310.935446 171.928203 
L 311.204423 160.184715 
L 311.607887 165.141987 
L 312.14584 253.302225 
L 312.414817 264.107643 
L 312.549305 265.069383 
L 312.818281 271.563302 
L 312.952769 273.326826 
L 313.087258 270.740044 
L 313.221746 272.389218 
L 313.356234 270.562248 
L 313.490722 272.371749 
L 313.894187 247.545969 
L 314.028675 259.016089 
L 314.163163 256.676284 
L 314.297652 258.297466 
L 314.43214 256.476216 
L 314.701116 264.451546 
L 314.835604 264.745557 
L 315.104581 271.079532 
L 315.373557 269.809545 
L 315.508045 272.719544 
L 315.91151 270.688737 
L 316.045998 271.99654 
L 316.180487 271.552234 
L 316.314975 272.671027 
L 316.449463 270.765619 
L 316.583951 271.726722 
L 316.718439 271.225067 
L 316.852928 271.854735 
L 316.987416 271.448907 
L 317.121904 271.713609 
L 317.256392 273.899178 
L 317.39088 273.573731 
L 317.525369 274.915731 
L 317.659857 273.282939 
L 317.794345 275.484765 
L 317.928833 272.238477 
L 318.063322 272.465294 
L 318.466786 268.560665 
L 318.601274 270.546169 
L 318.735763 269.700773 
L 318.870251 271.250414 
L 319.004739 269.816417 
L 319.139227 269.982064 
L 319.273715 269.460939 
L 319.408204 282.685823 
L 319.67718 279.410193 
L 319.811668 276.679837 
L 319.946157 270.357781 
L 320.080645 252.785268 
L 320.349621 152.237685 
L 320.484109 128.06543 
L 320.618598 129.081968 
L 320.887574 146.612336 
L 321.022062 149.090058 
L 321.15655 157.600165 
L 321.694503 225.336739 
L 321.96348 264.990667 
L 322.097968 266.327933 
L 322.232456 265.513877 
L 322.366944 271.422617 
L 322.501433 270.587413 
L 322.635921 283.073946 
L 322.770409 282.611415 
L 322.904897 281.04558 
L 323.039385 276.748943 
L 323.308362 253.329797 
L 323.577338 153.998434 
L 323.711826 158.818852 
L 323.846315 176.213639 
L 324.115291 154.163578 
L 324.384268 157.05452 
L 324.518756 164.087352 
L 324.787732 208.506025 
L 324.92222 221.358742 
L 325.191197 263.06817 
L 325.460173 263.368177 
L 325.594661 269.314463 
L 325.72915 269.644629 
L 325.998126 281.07395 
L 326.132614 281.573953 
L 326.267103 278.11284 
L 326.401591 269.6515 
L 326.536079 248.833302 
L 326.805055 148.892585 
L 326.939544 155.057515 
L 327.074032 177.323965 
L 327.20852 160.65805 
L 327.343008 158.922061 
L 327.477496 167.010172 
L 327.611985 164.393609 
L 327.746473 168.010867 
L 327.880961 185.558244 
L 328.149937 229.954482 
L 328.418914 258.050857 
L 328.956867 273.645344 
L 329.091355 285.435356 
L 329.360331 281.765422 
L 329.49482 276.703559 
L 329.763796 249.21053 
L 330.032772 162.856068 
L 330.167261 162.510896 
L 330.301749 173.303009 
L 330.570725 161.719817 
L 330.705214 159.037107 
L 331.108678 193.994334 
L 331.243166 204.34696 
L 331.646631 261.578425 
L 331.915607 263.060287 
L 332.184584 270.348462 
L 332.319072 283.180543 
L 332.45356 282.428103 
L 332.722537 276.361096 
L 332.991513 248.162373 
L 333.26049 158.157434 
L 333.394978 161.770754 
L 333.529466 181.340165 
L 333.798442 163.799882 
L 334.067419 168.276397 
L 334.470883 210.925779 
L 334.73986 260.813809 
L 335.008836 266.981369 
L 335.143325 269.408274 
L 335.277813 275.093152 
L 335.546789 271.829422 
L 335.815766 269.764085 
L 336.084742 271.955228 
L 336.353718 258.049459 
L 336.488207 259.523138 
L 336.622695 258.02398 
L 336.757183 255.217297 
L 336.891671 256.451667 
L 337.02616 255.017269 
L 337.429624 263.579709 
L 337.833089 268.290785 
L 337.967577 268.061837 
L 338.102065 270.883673 
L 338.236553 270.954222 
L 338.371042 270.067192 
L 338.50553 271.516043 
L 338.640018 267.972522 
L 338.908995 268.835827 
L 339.043483 268.484861 
L 339.312459 269.699424 
L 339.446947 268.034194 
L 339.581436 268.512904 
L 339.850412 271.366421 
L 339.9849 270.718422 
L 340.119388 268.716279 
L 340.253877 270.663951 
L 340.388365 269.54088 
L 340.522853 273.063979 
L 340.657341 271.351894 
L 340.791829 272.435679 
L 341.060806 272.298823 
L 341.195294 268.913061 
L 341.464271 273.027336 
L 341.598759 272.072992 
L 341.867735 274.834133 
L 342.002223 284.40758 
L 342.136712 284.269792 
L 342.405688 280.823113 
L 342.674664 253.52246 
L 342.943641 151.289528 
L 343.078129 136.823228 
L 343.212617 165.182875 
L 343.347106 169.812021 
L 343.481594 165.253537 
L 343.75057 175.840178 
L 344.288523 240.992621 
L 344.557499 261.777946 
L 344.691988 262.220541 
L 345.095452 272.613217 
L 345.22994 281.755471 
L 345.364429 281.584548 
L 345.498917 282.683318 
L 345.633405 279.70543 
L 345.767893 270.680085 
L 345.902382 250.169285 
L 346.171358 161.07187 
L 346.440334 180.085239 
L 346.709311 170.662336 
L 346.843799 169.971769 
L 346.978287 173.608755 
L 347.381752 218.380391 
L 347.650728 255.605779 
L 347.919705 262.837313 
L 348.054193 265.069931 
L 348.188681 271.952671 
L 348.323169 272.295468 
L 348.457658 282.687075 
L 348.592146 282.079938 
L 348.726634 283.610483 
L 348.861122 280.514503 
L 349.130099 250.835741 
L 349.399075 160.909287 
L 349.533563 171.778872 
L 349.668052 172.055379 
L 349.937028 164.863219 
L 350.071516 165.489475 
L 350.206004 169.733529 
L 350.474981 199.396374 
L 350.743957 239.119006 
L 351.012934 260.943631 
L 351.147422 266.520825 
L 351.28191 265.634539 
L 351.685375 285.521404 
L 352.223328 273.374605 
L 352.357816 256.299665 
L 352.626792 159.87304 
L 352.895769 177.100648 
L 353.164745 167.753077 
L 353.299233 169.688739 
L 353.433721 169.492637 
L 353.56821 168.878277 
L 353.702698 170.576276 
L 354.106163 255.345847 
L 354.240651 270.600869 
L 354.509627 271.56483 
L 354.913092 281.994159 
L 355.182068 280.338407 
L 355.316556 278.546664 
L 355.451045 271.861178 
L 355.585533 251.187941 
L 355.854509 186.492019 
L 355.988998 184.460613 
L 356.257974 159.995 
L 356.52695 165.36332 
L 356.661439 166.243775 
L 357.602856 273.956668 
L 358.006321 281.264636 
L 358.275297 278.854237 
L 358.409785 278.724367 
L 358.544274 278.280082 
L 358.81325 274.880487 
L 359.082226 257.255557 
L 359.216715 253.72679 
L 359.485691 255.979428 
L 359.620179 248.085794 
L 359.754667 260.963542 
L 360.158132 268.604427 
L 360.427109 279.175064 
L 360.561597 277.558637 
L 360.696085 277.663387 
L 360.830573 277.949905 
L 360.965061 277.847013 
L 361.09955 279.293604 
L 361.234038 279.210477 
L 361.368526 278.857315 
L 361.503014 278.112588 
L 361.637502 279.761012 
L 361.906479 276.907183 
L 362.309944 280.845803 
L 362.444432 275.398093 
L 362.57892 275.817649 
L 362.713408 273.010319 
L 362.982385 278.498821 
L 363.116873 278.530866 
L 363.251361 277.401748 
L 363.385849 277.502113 
L 363.520337 278.852527 
L 363.654826 277.622391 
L 363.789314 277.489665 
L 363.923802 277.568711 
L 364.05829 276.970945 
L 364.192778 280.504663 
L 364.327267 244.652842 
L 364.461755 249.263839 
L 364.596243 248.784518 
L 364.86522 255.034915 
L 364.999708 249.62316 
L 365.672149 100.382416 
L 365.806637 104.035813 
L 365.941125 97.192208 
L 366.075613 110.841612 
L 366.210102 113.094779 
L 366.34459 119.932476 
L 366.479078 132.861218 
L 366.613566 158.204274 
L 366.882543 238.513914 
L 367.151519 257.123859 
L 367.420496 259.029909 
L 367.689472 267.433663 
L 367.82396 266.085603 
L 368.092937 268.901189 
L 368.765378 93.961099 
L 368.899866 99.941223 
L 369.034354 105.173329 
L 369.303331 91.637993 
L 369.437819 89.995138 
L 369.572307 115.281595 
L 369.706795 119.304392 
L 369.975772 193.660319 
L 370.11026 235.00273 
L 370.244748 234.477843 
L 370.782701 287.981705 
L 370.917189 285.436801 
L 371.320654 276.363235 
L 371.58963 245.101736 
L 371.858607 159.84345 
L 371.993095 160.725885 
L 372.262071 204.613456 
L 372.396559 190.740859 
L 372.665536 198.258686 
L 372.800024 197.266603 
L 372.934512 207.669043 
L 373.069001 233.932164 
L 373.203489 234.300459 
L 373.472465 261.665171 
L 373.606953 262.000107 
L 373.87593 272.316254 
L 374.144906 295.488 
L 374.548371 284.391299 
L 374.817347 251.405577 
L 375.086324 195.327821 
L 375.3553 174.571394 
L 375.489788 176.822063 
L 375.624277 177.039577 
L 375.758765 178.211543 
L 376.162229 201.924547 
L 376.431206 236.475291 
L 376.700182 265.932831 
L 376.969159 267.923866 
L 377.103647 272.510755 
L 377.238135 286.661661 
L 377.507112 280.665906 
L 377.6416 279.070905 
L 377.776088 273.903366 
L 377.910576 279.032206 
L 378.045064 274.2094 
L 378.179553 273.988191 
L 378.314041 259.825515 
L 378.448529 265.093991 
L 378.583017 258.410093 
L 378.717505 265.721007 
L 378.851994 265.13133 
L 378.986482 273.04122 
L 379.12097 270.852382 
L 379.389947 274.218271 
L 379.524435 271.460388 
L 379.927899 279.407688 
L 380.062388 280.306301 
L 380.331364 278.117831 
L 380.465852 264.973771 
L 380.869317 271.565134 
L 381.003805 270.732292 
L 381.138293 254.308178 
L 381.272782 253.571353 
L 381.676246 145.069864 
L 381.810734 146.242087 
L 382.079711 143.104197 
L 382.348687 147.697889 
L 382.483175 144.497071 
L 383.155616 264.162588 
L 383.290105 266.131027 
L 383.424593 266.166729 
L 383.559081 270.601139 
L 383.693569 262.582254 
L 383.962546 260.731985 
L 384.097034 260.866776 
L 384.231522 261.65715 
L 384.36601 256.900697 
L 384.500499 258.474958 
L 384.769475 169.594234 
L 384.903963 161.803123 
L 385.038451 164.269551 
L 385.17294 144.943205 
L 385.307428 148.339612 
L 385.441916 171.159013 
L 385.576404 167.16873 
L 385.710893 168.592024 
L 385.979869 214.257133 
L 386.383334 267.822607 
L 386.517822 265.756191 
L 386.921286 282.675194 
L 387.728216 271.878879 
L 387.862704 272.491904 
L 387.997192 280.076524 
L 388.13168 280.839886 
L 388.266169 283.038463 
L 388.535145 283.449393 
L 388.669633 281.358121 
L 388.804121 282.117353 
L 388.93861 285.165757 
L 389.073098 280.319273 
L 389.342074 281.64046 
L 389.611051 288.846475 
L 389.745539 286.042766 
L 389.880027 285.891752 
L 390.014515 284.775802 
L 390.149004 264.899453 
L 390.283492 265.73866 
L 390.41798 265.433319 
L 390.552468 267.048806 
L 390.686956 265.358284 
L 391.090421 234.493078 
L 391.224909 185.165478 
L 391.359397 188.131409 
L 391.493886 159.56823 
L 391.628374 159.284925 
L 391.762862 170.981872 
L 391.89735 171.945435 
L 392.031839 174.888459 
L 392.166327 171.598665 
L 392.435303 203.167492 
L 392.838768 275.68231 
L 392.973256 272.923123 
L 393.242232 274.68848 
L 393.511209 262.265604 
L 393.645697 268.494408 
L 393.780185 269.342558 
L 393.914673 261.283859 
L 394.049162 261.100536 
L 394.318138 205.926918 
L 394.587115 157.018344 
L 394.721603 157.131385 
L 394.856091 146.151222 
L 394.990579 144.769056 
L 395.125067 146.930068 
L 395.259556 144.947007 
L 396.066485 260.022086 
L 396.335461 262.198717 
L 396.46995 259.448579 
L 396.604438 289.352685 
L 397.007902 281.660013 
L 397.142391 282.627431 
L 397.411367 252.548495 
L 397.680343 176.234484 
L 397.814832 179.289276 
L 398.218296 159.643142 
L 398.352785 165.742163 
L 398.487273 165.579856 
L 398.487273 165.579856 
" clip-path="url(#p4294525bfa)" style="fill: none; stroke: #ff7f0e; stroke-width: 1.5; stroke-linecap: square"/>
   </g>
   <g id="patch_3">
    <path d="M 57.6 307.584 
L 57.6 41.472 
" style="fill: none; stroke: #000000; stroke-width: 0.8; stroke-linejoin: miter; stroke-linecap: square"/>
   </g>
   <g id="patch_4">
    <path d="M 414.72 307.584 
L 414.72 41.472 
" style="fill: none; stroke: #000000; stroke-width: 0.8; stroke-linejoin: miter; stroke-linecap: square"/>
   </g>
   <g id="patch_5">
    <path d="M 57.6 307.584 
L 414.72 307.584 
" style="fill: none; stroke: #000000; stroke-width: 0.8; stroke-linejoin: miter; stroke-linecap: square"/>
   </g>
   <g id="patch_6">
    <path d="M 57.6 41.472 
L 414.72 41.472 
" style="fill: none; stroke: #000000; stroke-width: 0.8; stroke-linejoin: miter; stroke-linecap: square"/>
   </g>
  </g>
 </g>
 <defs>
  <clipPath id="p4294525bfa">
   <rect x="57.6" y="41.472" width="357.12" height="266.112"/>
  </clipPath>
 </defs>
</svg>
