<?xml version="1.0" encoding="utf-8" standalone="no"?>
<!DOCTYPE svg PUBLIC "-//W3C//DTD SVG 1.1//EN"
  "http://www.w3.org/Graphics/SVG/1.1/DTD/svg11.dtd">
<svg xmlns:xlink="http://www.w3.org/1999/xlink" width="460.8pt" height="345.6pt" viewBox="0 0 460.8 345.6" xmlns="http://www.w3.org/2000/svg" version="1.1">
 <metadata>
  <rdf:RDF xmlns:dc="http://purl.org/dc/elements/1.1/" xmlns:cc="http://creativecommons.org/ns#" xmlns:rdf="http://www.w3.org/1999/02/22-rdf-syntax-ns#">
   <cc:Work>
    <dc:type rdf:resource="http://purl.org/dc/dcmitype/StillImage"/>
    <dc:date>2023-04-04T07:10:05.266773</dc:date>
    <dc:format>image/svg+xml</dc:format>
    <dc:creator>
     <cc:Agent>
      <dc:title>Matplotlib v3.5.2, https://matplotlib.org/</dc:title>
     </cc:Agent>
    </dc:creator>
   </cc:Work>
  </rdf:RDF>
 </metadata>
 <defs>
  <style type="text/css">*{stroke-linejoin: round; stroke-linecap: butt}</style>
 </defs>
 <g id="figure_1">
  <g id="patch_1">
   <path d="M 0 345.6 
L 460.8 345.6 
L 460.8 0 
L 0 0 
z
" style="fill: #ffffff"/>
  </g>
  <g id="axes_1">
   <g id="patch_2">
    <path d="M 57.6 307.584 
L 414.72 307.584 
L 414.72 41.472 
L 57.6 41.472 
z
" style="fill: #ffffff"/>
   </g>
   <g id="matplotlib.axis_1">
    <g id="xtick_1">
     <g id="line2d_1">
      <defs>
       <path id="m0effe7035d" d="M 0 0 
L 0 3.5 
" style="stroke: #000000; stroke-width: 0.8"/>
      </defs>
      <g>
       <use xlink:href="#m0effe7035d" x="73.832727" y="307.584" style="stroke: #000000; stroke-width: 0.8"/>
      </g>
     </g>
     <g id="text_1">
      <!-- 0 -->
      <g transform="translate(70.651477 322.182437)scale(0.1 -0.1)">
       <defs>
        <path id="DejaVuSans-30" d="M 2034 4250 
Q 1547 4250 1301 3770 
Q 1056 3291 1056 2328 
Q 1056 1369 1301 889 
Q 1547 409 2034 409 
Q 2525 409 2770 889 
Q 3016 1369 3016 2328 
Q 3016 3291 2770 3770 
Q 2525 4250 2034 4250 
z
M 2034 4750 
Q 2819 4750 3233 4129 
Q 3647 3509 3647 2328 
Q 3647 1150 3233 529 
Q 2819 -91 2034 -91 
Q 1250 -91 836 529 
Q 422 1150 422 2328 
Q 422 3509 836 4129 
Q 1250 4750 2034 4750 
z
" transform="scale(0.015625)"/>
       </defs>
       <use xlink:href="#DejaVuSans-30"/>
      </g>
     </g>
    </g>
    <g id="xtick_2">
     <g id="line2d_2">
      <g>
       <use xlink:href="#m0effe7035d" x="141.076834" y="307.584" style="stroke: #000000; stroke-width: 0.8"/>
      </g>
     </g>
     <g id="text_2">
      <!-- 500 -->
      <g transform="translate(131.533084 322.182437)scale(0.1 -0.1)">
       <defs>
        <path id="DejaVuSans-35" d="M 691 4666 
L 3169 4666 
L 3169 4134 
L 1269 4134 
L 1269 2991 
Q 1406 3038 1543 3061 
Q 1681 3084 1819 3084 
Q 2600 3084 3056 2656 
Q 3513 2228 3513 1497 
Q 3513 744 3044 326 
Q 2575 -91 1722 -91 
Q 1428 -91 1123 -41 
Q 819 9 494 109 
L 494 744 
Q 775 591 1075 516 
Q 1375 441 1709 441 
Q 2250 441 2565 725 
Q 2881 1009 2881 1497 
Q 2881 1984 2565 2268 
Q 2250 2553 1709 2553 
Q 1456 2553 1204 2497 
Q 953 2441 691 2322 
L 691 4666 
z
" transform="scale(0.015625)"/>
       </defs>
       <use xlink:href="#DejaVuSans-35"/>
       <use xlink:href="#DejaVuSans-30" x="63.623047"/>
       <use xlink:href="#DejaVuSans-30" x="127.246094"/>
      </g>
     </g>
    </g>
    <g id="xtick_3">
     <g id="line2d_3">
      <g>
       <use xlink:href="#m0effe7035d" x="208.32094" y="307.584" style="stroke: #000000; stroke-width: 0.8"/>
      </g>
     </g>
     <g id="text_3">
      <!-- 1000 -->
      <g transform="translate(195.59594 322.182437)scale(0.1 -0.1)">
       <defs>
        <path id="DejaVuSans-31" d="M 794 531 
L 1825 531 
L 1825 4091 
L 703 3866 
L 703 4441 
L 1819 4666 
L 2450 4666 
L 2450 531 
L 3481 531 
L 3481 0 
L 794 0 
L 794 531 
z
" transform="scale(0.015625)"/>
       </defs>
       <use xlink:href="#DejaVuSans-31"/>
       <use xlink:href="#DejaVuSans-30" x="63.623047"/>
       <use xlink:href="#DejaVuSans-30" x="127.246094"/>
       <use xlink:href="#DejaVuSans-30" x="190.869141"/>
      </g>
     </g>
    </g>
    <g id="xtick_4">
     <g id="line2d_4">
      <g>
       <use xlink:href="#m0effe7035d" x="275.565046" y="307.584" style="stroke: #000000; stroke-width: 0.8"/>
      </g>
     </g>
     <g id="text_4">
      <!-- 1500 -->
      <g transform="translate(262.840046 322.182437)scale(0.1 -0.1)">
       <use xlink:href="#DejaVuSans-31"/>
       <use xlink:href="#DejaVuSans-35" x="63.623047"/>
       <use xlink:href="#DejaVuSans-30" x="127.246094"/>
       <use xlink:href="#DejaVuSans-30" x="190.869141"/>
      </g>
     </g>
    </g>
    <g id="xtick_5">
     <g id="line2d_5">
      <g>
       <use xlink:href="#m0effe7035d" x="342.809153" y="307.584" style="stroke: #000000; stroke-width: 0.8"/>
      </g>
     </g>
     <g id="text_5">
      <!-- 2000 -->
      <g transform="translate(330.084153 322.182437)scale(0.1 -0.1)">
       <defs>
        <path id="DejaVuSans-32" d="M 1228 531 
L 3431 531 
L 3431 0 
L 469 0 
L 469 531 
Q 828 903 1448 1529 
Q 2069 2156 2228 2338 
Q 2531 2678 2651 2914 
Q 2772 3150 2772 3378 
Q 2772 3750 2511 3984 
Q 2250 4219 1831 4219 
Q 1534 4219 1204 4116 
Q 875 4013 500 3803 
L 500 4441 
Q 881 4594 1212 4672 
Q 1544 4750 1819 4750 
Q 2544 4750 2975 4387 
Q 3406 4025 3406 3419 
Q 3406 3131 3298 2873 
Q 3191 2616 2906 2266 
Q 2828 2175 2409 1742 
Q 1991 1309 1228 531 
z
" transform="scale(0.015625)"/>
       </defs>
       <use xlink:href="#DejaVuSans-32"/>
       <use xlink:href="#DejaVuSans-30" x="63.623047"/>
       <use xlink:href="#DejaVuSans-30" x="127.246094"/>
       <use xlink:href="#DejaVuSans-30" x="190.869141"/>
      </g>
     </g>
    </g>
    <g id="xtick_6">
     <g id="line2d_6">
      <g>
       <use xlink:href="#m0effe7035d" x="410.053259" y="307.584" style="stroke: #000000; stroke-width: 0.8"/>
      </g>
     </g>
     <g id="text_6">
      <!-- 2500 -->
      <g transform="translate(397.328259 322.182437)scale(0.1 -0.1)">
       <use xlink:href="#DejaVuSans-32"/>
       <use xlink:href="#DejaVuSans-35" x="63.623047"/>
       <use xlink:href="#DejaVuSans-30" x="127.246094"/>
       <use xlink:href="#DejaVuSans-30" x="190.869141"/>
      </g>
     </g>
    </g>
   </g>
   <g id="matplotlib.axis_2">
    <g id="ytick_1">
     <g id="line2d_7">
      <defs>
       <path id="mfc8152c11c" d="M 0 0 
L -3.5 0 
" style="stroke: #000000; stroke-width: 0.8"/>
      </defs>
      <g>
       <use xlink:href="#mfc8152c11c" x="57.6" y="281.8227" style="stroke: #000000; stroke-width: 0.8"/>
      </g>
     </g>
     <g id="text_7">
      <!-- 100 -->
      <g transform="translate(31.5125 285.621919)scale(0.1 -0.1)">
       <use xlink:href="#DejaVuSans-31"/>
       <use xlink:href="#DejaVuSans-30" x="63.623047"/>
       <use xlink:href="#DejaVuSans-30" x="127.246094"/>
      </g>
     </g>
    </g>
    <g id="ytick_2">
     <g id="line2d_8">
      <g>
       <use xlink:href="#mfc8152c11c" x="57.6" y="233.726451" style="stroke: #000000; stroke-width: 0.8"/>
      </g>
     </g>
     <g id="text_8">
      <!-- 200 -->
      <g transform="translate(31.5125 237.525669)scale(0.1 -0.1)">
       <use xlink:href="#DejaVuSans-32"/>
       <use xlink:href="#DejaVuSans-30" x="63.623047"/>
       <use xlink:href="#DejaVuSans-30" x="127.246094"/>
      </g>
     </g>
    </g>
    <g id="ytick_3">
     <g id="line2d_9">
      <g>
       <use xlink:href="#mfc8152c11c" x="57.6" y="185.630201" style="stroke: #000000; stroke-width: 0.8"/>
      </g>
     </g>
     <g id="text_9">
      <!-- 300 -->
      <g transform="translate(31.5125 189.42942)scale(0.1 -0.1)">
       <defs>
        <path id="DejaVuSans-33" d="M 2597 2516 
Q 3050 2419 3304 2112 
Q 3559 1806 3559 1356 
Q 3559 666 3084 287 
Q 2609 -91 1734 -91 
Q 1441 -91 1130 -33 
Q 819 25 488 141 
L 488 750 
Q 750 597 1062 519 
Q 1375 441 1716 441 
Q 2309 441 2620 675 
Q 2931 909 2931 1356 
Q 2931 1769 2642 2001 
Q 2353 2234 1838 2234 
L 1294 2234 
L 1294 2753 
L 1863 2753 
Q 2328 2753 2575 2939 
Q 2822 3125 2822 3475 
Q 2822 3834 2567 4026 
Q 2313 4219 1838 4219 
Q 1578 4219 1281 4162 
Q 984 4106 628 3988 
L 628 4550 
Q 988 4650 1302 4700 
Q 1616 4750 1894 4750 
Q 2613 4750 3031 4423 
Q 3450 4097 3450 3541 
Q 3450 3153 3228 2886 
Q 3006 2619 2597 2516 
z
" transform="scale(0.015625)"/>
       </defs>
       <use xlink:href="#DejaVuSans-33"/>
       <use xlink:href="#DejaVuSans-30" x="63.623047"/>
       <use xlink:href="#DejaVuSans-30" x="127.246094"/>
      </g>
     </g>
    </g>
    <g id="ytick_4">
     <g id="line2d_10">
      <g>
       <use xlink:href="#mfc8152c11c" x="57.6" y="137.533952" style="stroke: #000000; stroke-width: 0.8"/>
      </g>
     </g>
     <g id="text_10">
      <!-- 400 -->
      <g transform="translate(31.5125 141.33317)scale(0.1 -0.1)">
       <defs>
        <path id="DejaVuSans-34" d="M 2419 4116 
L 825 1625 
L 2419 1625 
L 2419 4116 
z
M 2253 4666 
L 3047 4666 
L 3047 1625 
L 3713 1625 
L 3713 1100 
L 3047 1100 
L 3047 0 
L 2419 0 
L 2419 1100 
L 313 1100 
L 313 1709 
L 2253 4666 
z
" transform="scale(0.015625)"/>
       </defs>
       <use xlink:href="#DejaVuSans-34"/>
       <use xlink:href="#DejaVuSans-30" x="63.623047"/>
       <use xlink:href="#DejaVuSans-30" x="127.246094"/>
      </g>
     </g>
    </g>
    <g id="ytick_5">
     <g id="line2d_11">
      <g>
       <use xlink:href="#mfc8152c11c" x="57.6" y="89.437702" style="stroke: #000000; stroke-width: 0.8"/>
      </g>
     </g>
     <g id="text_11">
      <!-- 500 -->
      <g transform="translate(31.5125 93.236921)scale(0.1 -0.1)">
       <use xlink:href="#DejaVuSans-35"/>
       <use xlink:href="#DejaVuSans-30" x="63.623047"/>
       <use xlink:href="#DejaVuSans-30" x="127.246094"/>
      </g>
     </g>
    </g>
   </g>
   <g id="line2d_12">
    <path d="M 73.832727 284.912403 
L 74.101704 284.359777 
L 74.236192 283.242502 
L 74.37068 284.212122 
L 74.505168 283.716731 
L 74.639657 284.322262 
L 74.774145 277.811954 
L 74.908633 250.534647 
L 75.177609 249.032601 
L 75.312098 249.59148 
L 75.446586 249.644385 
L 75.581074 250.51637 
L 75.715562 249.755488 
L 75.85005 249.733364 
L 76.253515 244.717887 
L 76.522492 278.981174 
L 76.65698 279.296204 
L 76.925956 277.579168 
L 77.060444 268.669819 
L 77.194933 270.926976 
L 77.463909 270.990944 
L 77.598397 272.584854 
L 77.732885 267.22645 
L 77.867374 253.738338 
L 78.405327 104.413431 
L 78.674303 103.486136 
L 78.808791 110.667387 
L 78.943279 105.835637 
L 79.481232 158.852133 
L 79.750209 229.653179 
L 80.019185 264.584523 
L 80.153673 266.72144 
L 80.288161 262.86364 
L 80.42265 273.322169 
L 80.557138 272.884974 
L 80.826114 275.407623 
L 80.960603 272.852269 
L 81.095091 262.476465 
L 81.364067 169.100963 
L 81.498555 181.475647 
L 81.767532 161.954341 
L 82.036508 170.005173 
L 82.170996 166.88565 
L 82.305485 160.875061 
L 83.112414 261.995502 
L 83.650367 288.336375 
L 83.784855 288.357057 
L 83.919343 289.894694 
L 84.053831 290.088041 
L 84.18832 287.978539 
L 84.322808 280.710715 
L 84.726273 190.038222 
L 84.860761 181.321258 
L 84.995249 185.442145 
L 85.129737 170.471225 
L 85.264225 179.064101 
L 85.398714 179.815846 
L 85.66769 188.161507 
L 85.802178 196.983802 
L 86.340131 264.133862 
L 86.474619 266.158714 
L 86.609107 271.098199 
L 86.878084 288.720664 
L 87.012572 290.985036 
L 87.14706 290.656538 
L 87.281549 292.15618 
L 87.416037 292.058544 
L 87.550525 291.242351 
L 87.819501 263.574983 
L 87.95399 263.721677 
L 88.088478 258.00159 
L 88.222966 259.469968 
L 88.357454 258.707643 
L 88.491942 255.329362 
L 88.626431 258.180989 
L 88.760919 251.145469 
L 88.895407 254.039902 
L 89.029895 254.038459 
L 89.164384 256.614494 
L 89.43336 278.041854 
L 89.567848 279.715123 
L 89.702336 279.21396 
L 89.836825 280.280254 
L 89.971313 265.040957 
L 90.105801 265.758553 
L 90.240289 267.312062 
L 90.374777 267.080238 
L 90.509266 268.323526 
L 90.643754 268.496191 
L 90.778242 270.608098 
L 90.91273 267.36593 
L 91.047218 257.368162 
L 91.181707 256.190285 
L 91.316195 249.217772 
L 91.450683 253.678699 
L 91.585171 251.700981 
L 91.71966 253.208318 
L 91.854148 253.435813 
L 92.123124 256.436538 
L 92.257612 255.860345 
L 92.526589 261.489049 
L 92.795565 268.12585 
L 92.930053 269.086813 
L 93.064542 267.939237 
L 93.19903 278.018287 
L 93.468006 278.143818 
L 93.602495 279.211074 
L 93.736983 277.969229 
L 93.871471 275.430228 
L 94.005959 270.178117 
L 94.6784 162.2434 
L 94.812888 157.817583 
L 95.081865 169.754591 
L 95.216353 164.503924 
L 95.350841 153.16379 
L 96.023282 266.487692 
L 96.157771 267.222122 
L 96.426747 271.175634 
L 96.561235 270.839922 
L 96.695723 270.917838 
L 96.830212 272.813311 
L 96.9647 272.171226 
L 97.099188 270.73411 
L 97.233676 262.20905 
L 97.368164 244.526945 
L 97.502653 203.226214 
L 97.637141 196.081997 
L 97.771629 180.504103 
L 97.906117 188.957019 
L 98.040606 182.198053 
L 98.175094 182.912763 
L 98.309582 177.557246 
L 98.44407 179.210795 
L 98.713047 190.657702 
L 98.982023 232.891019 
L 99.250999 267.979638 
L 99.385488 272.698361 
L 99.519976 273.457801 
L 99.654464 283.330518 
L 99.788952 283.343023 
L 99.923441 282.334925 
L 100.192417 283.58158 
L 100.326905 283.662863 
L 100.461393 283.003463 
L 100.595882 283.412281 
L 100.73037 284.246751 
L 100.864858 282.697571 
L 100.999346 283.8615 
L 101.133834 282.947191 
L 101.268323 280.716487 
L 101.402811 273.64249 
L 101.537299 277.944219 
L 101.806276 267.48617 
L 101.940764 269.662045 
L 102.075252 269.512465 
L 102.20974 270.165131 
L 102.344228 272.560325 
L 102.478717 278.418929 
L 102.613205 276.553756 
L 102.747693 282.263262 
L 102.882181 268.712144 
L 103.016669 268.741001 
L 103.151158 273.681448 
L 103.285646 273.460686 
L 103.554622 269.250822 
L 103.68911 265.033261 
L 103.823599 247.486307 
L 104.092575 184.78515 
L 104.227063 163.152419 
L 104.361552 170.366856 
L 104.630528 145.319291 
L 105.033993 160.743278 
L 105.168481 171.59812 
L 105.706434 255.239903 
L 105.840922 255.116777 
L 105.97541 263.876066 
L 106.109898 280.422618 
L 106.378875 283.634005 
L 106.513363 283.620057 
L 106.647851 285.792084 
L 106.782339 285.521783 
L 106.916828 286.640983 
L 107.320292 248.807992 
L 107.45478 255.920946 
L 107.589269 253.36944 
L 107.723757 253.462747 
L 108.26171 248.364544 
L 108.396198 244.933839 
L 108.530686 247.209272 
L 108.934151 279.038889 
L 109.068639 280.564502 
L 109.203127 279.490032 
L 109.337615 274.963213 
L 109.606592 276.522494 
L 109.875568 277.582054 
L 110.144545 278.638248 
L 110.413521 277.392074 
L 110.548009 277.256442 
L 110.951474 273.179323 
L 111.085962 274.360567 
L 111.22045 274.010907 
L 111.623915 268.176832 
L 111.758403 268.688095 
L 112.02738 272.494433 
L 112.430844 274.10229 
L 112.565333 263.794783 
L 112.834309 268.021481 
L 112.968797 268.548135 
L 113.103285 270.066534 
L 113.237774 270.245933 
L 113.50675 272.878722 
L 113.641238 273.713673 
L 114.313679 262.415383 
L 114.448168 262.052256 
L 114.582656 260.561753 
L 114.98612 249.670357 
L 115.524073 260.794058 
L 115.658561 261.347165 
L 115.927538 263.585083 
L 116.062026 262.29418 
L 116.196514 268.424528 
L 116.331002 268.005129 
L 116.465491 268.619318 
L 116.599979 258.812012 
L 117.137932 79.255245 
L 117.406908 64.48152 
L 117.810373 81.10166 
L 118.213837 148.630237 
L 118.482814 211.273679 
L 118.75179 245.87412 
L 118.886279 247.415605 
L 119.289743 255.448641 
L 119.424231 256.873733 
L 119.55872 259.658506 
L 119.693208 259.976903 
L 119.827696 250.313885 
L 120.365649 92.175821 
L 120.634625 73.518324 
L 120.769114 77.227988 
L 120.903602 70.776838 
L 121.03809 72.111509 
L 121.441555 135.855392 
L 121.710531 203.016033 
L 121.845019 231.335105 
L 122.248484 242.353956 
L 122.51746 257.946279 
L 122.651948 258.10644 
L 122.786437 259.853776 
L 122.920925 258.5066 
L 123.055413 250.305709 
L 123.727854 60.505403 
L 123.862342 53.568 
L 124.534783 107.966782 
L 125.072736 249.603504 
L 125.207225 254.799822 
L 125.341713 255.265394 
L 125.476201 255.218741 
L 125.745177 268.88529 
L 125.879666 270.32914 
L 126.014154 270.560002 
L 126.28313 257.042551 
L 126.821083 93.286845 
L 126.955571 74.8453 
L 127.09006 81.475849 
L 127.359036 106.134315 
L 127.493524 108.589148 
L 127.762501 127.177386 
L 127.896989 150.092363 
L 128.300453 247.97785 
L 128.434942 253.808559 
L 128.56943 251.972244 
L 128.703918 259.510369 
L 128.838406 260.238065 
L 129.241871 266.964326 
L 129.510847 246.151155 
L 130.0488 83.66038 
L 130.183288 74.506702 
L 130.317777 86.484111 
L 130.452265 115.450559 
L 130.586753 114.527592 
L 130.721241 110.862176 
L 130.855729 117.283988 
L 131.124706 170.820885 
L 131.393682 236.791144 
L 131.662659 260.006722 
L 131.931635 259.809528 
L 132.066123 259.626281 
L 132.3351 270.95391 
L 132.469588 270.804811 
L 132.604076 270.904371 
L 132.738564 270.862527 
L 133.007541 258.912533 
L 133.276517 248.401097 
L 133.679982 242.79548 
L 133.81447 241.607502 
L 133.948958 236.483328 
L 134.486911 246.408951 
L 134.755888 253.530562 
L 134.890376 253.415131 
L 135.697305 267.727613 
L 135.831793 272.501166 
L 135.966282 273.113431 
L 136.10077 271.121285 
L 136.235258 272.631988 
L 136.369746 272.356396 
L 136.504234 268.03591 
L 136.638723 267.876231 
L 136.907699 265.93218 
L 137.311164 254.996536 
L 137.445652 255.508761 
L 137.58014 252.813447 
L 137.983605 259.659468 
L 138.118093 258.753334 
L 138.252581 260.596863 
L 138.387069 265.110215 
L 138.521558 263.871256 
L 138.656046 264.07326 
L 138.925022 268.791021 
L 139.193999 252.469559 
L 139.731951 81.797613 
L 139.86644 72.837762 
L 140.269904 98.972783 
L 140.538881 123.517742 
L 140.673369 130.642721 
L 140.807857 145.072077 
L 141.076834 225.567884 
L 141.480298 258.917342 
L 142.018251 267.396711 
L 142.152739 266.930659 
L 142.421716 243.079728 
L 142.959669 91.844438 
L 143.094157 84.392405 
L 143.228645 83.902305 
L 143.363133 94.177587 
L 143.497621 84.858458 
L 143.63211 90.010047 
L 144.573527 260.171212 
L 144.708015 263.677909 
L 144.842504 263.854422 
L 145.11148 266.107732 
L 145.245968 268.261482 
L 145.380456 264.163681 
L 145.783921 202.698117 
L 146.052897 110.557727 
L 146.187386 91.343275 
L 146.456362 106.73167 
L 146.59085 118.109319 
L 146.725339 112.390675 
L 146.859827 119.841265 
L 146.994315 114.738734 
L 147.128803 127.662196 
L 147.532268 235.468497 
L 147.801244 261.616023 
L 147.935732 261.81947 
L 148.204709 267.118715 
L 148.339197 267.097072 
L 148.473685 267.603525 
L 148.742662 266.544446 
L 148.87715 248.760857 
L 149.280615 119.704672 
L 149.415103 115.642463 
L 149.549591 106.508023 
L 149.684079 107.77103 
L 150.087544 140.672232 
L 150.222032 132.934988 
L 150.35652 138.487219 
L 150.894473 253.992286 
L 151.028961 263.218109 
L 151.16345 262.254741 
L 151.835891 270.478238 
L 151.970379 269.198397 
L 152.104867 248.125506 
L 152.508332 113.659454 
L 152.64282 116.786672 
L 152.911796 104.863131 
L 153.046285 119.096254 
L 153.180773 117.586513 
L 153.449749 152.263909 
L 153.718726 193.453537 
L 153.987702 250.413925 
L 154.12219 267.56601 
L 154.256678 268.953106 
L 154.525655 272.838321 
L 154.794631 274.552471 
L 155.063608 277.514719 
L 155.198096 279.166344 
L 155.332584 278.518969 
L 155.467072 274.11191 
L 155.601561 263.57354 
L 155.736049 262.707327 
L 155.870537 259.824919 
L 156.005025 261.976745 
L 156.274002 260.068286 
L 156.40849 260.607926 
L 156.542978 261.869009 
L 156.677466 260.66516 
L 157.215419 268.722244 
L 157.349907 270.740362 
L 157.484396 269.742365 
L 157.618884 270.517196 
L 157.88786 273.71223 
L 158.022348 274.196078 
L 158.291325 277.213156 
L 158.560301 281.520175 
L 158.694789 279.944542 
L 158.829278 280.914643 
L 158.963766 280.515925 
L 159.232742 277.785501 
L 159.367231 278.069269 
L 159.501719 276.073756 
L 160.039672 261.906043 
L 160.308648 262.166725 
L 160.443136 267.919998 
L 160.577624 267.634788 
L 160.712113 265.667651 
L 160.846601 266.373704 
L 160.981089 267.874788 
L 161.250066 271.654191 
L 161.519042 272.611307 
L 161.788018 255.746838 
L 162.460459 84.088918 
L 162.594948 83.75032 
L 162.729436 82.282423 
L 162.998412 101.990823 
L 163.132901 110.989631 
L 163.401877 152.503428 
L 163.670853 223.657501 
L 164.074318 257.95157 
L 164.208806 259.091451 
L 164.477783 271.822528 
L 164.612271 274.198002 
L 164.746759 269.467736 
L 165.015735 251.853927 
L 165.4192 121.326958 
L 165.553688 123.94147 
L 165.822665 109.966143 
L 165.957153 115.252883 
L 166.091641 112.149713 
L 166.360618 100.627775 
L 166.495106 106.858164 
L 166.89857 222.75281 
L 167.033059 229.765725 
L 167.302035 248.264023 
L 167.974476 266.837352 
L 168.108964 261.130251 
L 168.243453 247.035645 
L 168.377941 208.734678 
L 168.646917 106.683093 
L 168.781405 107.973516 
L 168.915894 103.421206 
L 169.050382 104.728943 
L 169.18487 108.546823 
L 169.319358 93.129089 
L 169.453847 95.621918 
L 169.857311 149.31128 
L 170.126288 227.968368 
L 170.395264 258.964958 
L 170.529752 259.849929 
L 170.66424 263.307087 
L 170.798729 263.497548 
L 171.067705 265.838393 
L 171.202193 268.689538 
L 171.47117 246.774001 
L 172.009123 110.769351 
L 172.143611 109.183617 
L 172.412587 97.35723 
L 172.95054 130.049213 
L 173.622981 260.946042 
L 173.757469 264.958712 
L 173.891958 278.417486 
L 174.026446 277.482976 
L 174.160934 277.438727 
L 174.42991 278.978769 
L 174.698887 264.100675 
L 174.833375 246.875965 
L 175.102351 177.950673 
L 175.371328 144.379972 
L 175.505816 141.462934 
L 175.640304 151.68964 
L 175.774792 151.377495 
L 175.909281 152.794892 
L 176.043769 157.630488 
L 176.178257 157.320749 
L 176.312745 171.881407 
L 176.581722 239.950586 
L 176.850698 267.240879 
L 176.985186 264.731698 
L 177.254163 269.495151 
L 177.388651 269.451383 
L 177.792116 276.050188 
L 177.926604 276.946222 
L 178.19558 266.164485 
L 178.330069 265.721519 
L 178.599045 258.107883 
L 178.733533 257.538904 
L 178.868021 259.861472 
L 179.136998 256.329283 
L 179.271486 256.929043 
L 179.540462 254.427557 
L 179.809439 261.981554 
L 179.943927 269.298437 
L 180.212904 267.384687 
L 180.48188 277.315601 
L 180.616368 277.329549 
L 180.750856 277.704218 
L 180.885345 278.541093 
L 181.019833 278.628147 
L 181.692274 266.237592 
L 181.826762 267.541962 
L 181.96125 261.518869 
L 182.095738 263.312859 
L 182.364715 268.787174 
L 182.499203 270.073748 
L 182.633691 273.242329 
L 182.902668 272.418922 
L 183.171644 278.590632 
L 183.306132 280.016205 
L 183.440621 278.898929 
L 183.575109 276.581652 
L 183.844085 288.393129 
L 183.978573 289.350725 
L 184.113062 287.056534 
L 184.382038 275.594236 
L 184.919991 183.249918 
L 185.054479 187.292408 
L 185.188967 180.172239 
L 185.457944 184.058416 
L 185.592432 185.567676 
L 185.995897 223.576218 
L 186.264873 254.37898 
L 186.53385 270.241604 
L 186.802826 280.564502 
L 187.071802 291.13221 
L 187.206291 289.974053 
L 187.340779 291.115858 
L 187.475267 287.916976 
L 187.609755 279.864702 
L 188.01322 203.44409 
L 188.147708 186.93409 
L 188.282196 187.154371 
L 188.416684 186.189561 
L 188.551173 189.524073 
L 188.685661 195.968971 
L 188.820149 191.527282 
L 188.954637 195.992538 
L 189.089126 204.421887 
L 189.627078 266.843604 
L 189.761567 269.44994 
L 189.896055 274.721289 
L 190.030543 272.268861 
L 190.299519 274.112871 
L 190.434008 272.933551 
L 190.971961 276.381572 
L 191.106449 272.905656 
L 191.240937 272.416998 
L 191.375425 272.858521 
L 191.509913 268.399518 
L 191.644402 269.959279 
L 191.913378 268.684729 
L 192.182354 263.009852 
L 192.316843 263.360955 
L 192.451331 262.859311 
L 192.585819 264.189172 
L 192.720307 269.998718 
L 192.989284 271.265093 
L 193.392748 268.559198 
L 193.661725 271.461325 
L 193.796213 271.999522 
L 194.065189 264.05787 
L 194.603142 159.590411 
L 194.73763 154.644673 
L 194.872119 144.62382 
L 195.006607 146.210515 
L 195.141095 150.987434 
L 195.275583 143.537325 
L 195.54456 157.023995 
L 195.948024 251.704829 
L 196.217001 262.113338 
L 196.351489 264.053541 
L 196.485977 273.592951 
L 196.620465 272.935956 
L 196.889442 273.496759 
L 197.02393 274.633273 
L 197.158418 272.891227 
L 197.292907 266.525207 
L 197.830859 197.325285 
L 197.965348 199.653144 
L 198.099836 196.311897 
L 198.234324 200.746852 
L 198.5033 187.327518 
L 198.772277 201.224929 
L 199.31023 274.273994 
L 199.713694 283.450758 
L 199.848183 282.273843 
L 200.117159 283.00683 
L 200.251647 281.210916 
L 200.386135 275.39127 
L 200.520624 274.985337 
L 200.655112 261.935863 
L 200.7896 214.379734 
L 200.924088 212.395764 
L 201.058576 200.629498 
L 201.193065 200.268776 
L 201.327553 197.564805 
L 201.462041 199.752703 
L 201.731018 187.869563 
L 201.865506 189.240306 
L 202.134482 212.095643 
L 202.403459 265.945647 
L 202.806923 275.813555 
L 203.0759 267.282242 
L 203.210388 271.639762 
L 203.344876 271.766736 
L 203.748341 262.324 
L 203.882829 244.814079 
L 204.151805 182.415929 
L 204.420782 165.827532 
L 204.55527 160.158908 
L 204.689758 163.619914 
L 204.824246 157.074496 
L 204.958735 173.211269 
L 205.093223 173.459445 
L 205.765664 261.739149 
L 205.900152 262.253779 
L 206.03464 266.080798 
L 206.169129 281.034884 
L 206.303617 281.519213 
L 206.572593 285.485711 
L 206.84157 286.302866 
L 207.110546 276.848105 
L 207.379522 267.600158 
L 207.514011 266.716149 
L 207.917475 274.89155 
L 208.051964 274.643373 
L 208.32094 268.237434 
L 208.589916 269.850582 
L 208.858893 277.959129 
L 208.993381 281.638492 
L 209.127869 282.226228 
L 209.262357 281.678412 
L 209.396846 275.782292 
L 209.531334 276.887544 
L 209.80031 276.469588 
L 209.934799 277.467585 
L 210.203775 265.200155 
L 211.010704 108.975841 
L 211.279681 134.779479 
L 211.683145 168.11499 
L 212.221098 256.375937 
L 212.355586 258.857222 
L 212.759051 274.206178 
L 212.893539 273.99744 
L 213.028027 274.098443 
L 213.162516 276.766342 
L 213.431492 258.936581 
L 213.56598 220.585112 
L 213.834957 136.067497 
L 213.969445 140.685699 
L 214.103933 139.586699 
L 214.238421 142.569148 
L 214.910862 181.164464 
L 215.448815 262.034941 
L 215.583303 267.036951 
L 215.717792 267.659317 
L 216.121256 271.952869 
L 216.255745 272.917199 
L 216.390233 275.325378 
L 216.524721 271.287698 
L 216.659209 263.713981 
L 217.062674 149.803786 
L 217.197162 151.730041 
L 217.33165 151.811323 
L 217.466138 163.361157 
L 217.600627 162.067848 
L 217.735115 150.125069 
L 217.869603 155.394494 
L 218.273068 197.898592 
L 218.542044 257.155577 
L 218.811021 274.078723 
L 218.945509 266.604566 
L 219.483462 277.404579 
L 219.61795 279.216365 
L 219.886926 265.363202 
L 220.290391 163.018711 
L 220.693856 151.271202 
L 220.828344 162.014943 
L 220.962832 158.064798 
L 221.231808 185.421944 
L 221.500785 199.3915 
L 221.769761 257.018021 
L 222.038738 272.7681 
L 222.173226 272.009622 
L 222.307714 273.243772 
L 222.576691 279.339972 
L 222.845667 281.998733 
L 222.980155 280.313921 
L 223.114643 282.201218 
L 223.38362 261.49482 
L 223.518108 265.388693 
L 223.652596 265.230937 
L 223.921573 258.21658 
L 224.190549 257.538904 
L 224.325037 260.047123 
L 224.459525 259.413696 
L 224.728502 255.524633 
L 225.131967 262.850654 
L 225.266455 261.352936 
L 225.535431 262.836706 
L 225.669919 261.513578 
L 226.073384 271.358399 
L 226.34236 274.413473 
L 226.476849 274.340848 
L 226.745825 271.1689 
L 226.880313 273.471268 
L 227.014802 273.716558 
L 227.14929 273.416919 
L 227.283778 271.985093 
L 227.418266 273.676638 
L 227.552754 273.806498 
L 227.687243 273.635757 
L 227.956219 272.517038 
L 228.090707 278.38478 
L 228.225195 278.424219 
L 228.359684 279.535724 
L 228.494172 278.756083 
L 228.62866 279.735804 
L 228.763148 279.620373 
L 228.897637 277.311753 
L 229.301101 278.223658 
L 229.435589 271.954312 
L 229.570078 257.744756 
L 230.242519 94.86344 
L 230.377007 79.893482 
L 230.511495 110.142175 
L 230.780471 118.16463 
L 231.049448 145.880094 
L 231.587401 255.566958 
L 231.856377 266.890739 
L 232.125354 271.74846 
L 232.39433 276.446982 
L 232.528818 275.625979 
L 232.797795 258.368564 
L 232.932283 221.772609 
L 233.201259 133.832945 
L 233.335748 125.583957 
L 233.470236 135.972747 
L 233.604724 136.196876 
L 233.739212 149.103504 
L 233.8737 134.234549 
L 234.008189 141.017563 
L 234.815118 266.303964 
L 234.949606 266.035106 
L 235.218583 271.991827 
L 235.622047 279.79881 
L 235.756535 279.195683 
L 236.025512 266.426129 
L 236.563465 129.640395 
L 236.832441 117.319579 
L 237.63937 201.761202 
L 237.908347 260.352534 
L 238.177323 268.513506 
L 238.849764 283.564746 
L 238.984252 282.732681 
L 239.118741 278.900372 
L 239.253229 264.875987 
L 239.791182 128.863641 
L 240.194646 146.756888 
L 240.463623 166.054066 
L 240.732599 179.630675 
L 241.270552 257.798143 
L 241.674017 263.726005 
L 241.942993 276.784618 
L 242.077481 283.342061 
L 242.21197 282.710557 
L 242.480946 264.5826 
L 242.884411 151.847395 
L 243.018899 159.789529 
L 243.153387 157.522753 
L 243.287875 146.446668 
L 243.422363 154.498461 
L 243.556852 151.661744 
L 243.825828 168.450221 
L 244.229293 241.079886 
L 244.498269 263.664923 
L 244.767246 268.984849 
L 245.17071 276.912073 
L 245.305198 277.784539 
L 245.439687 277.486342 
L 245.574175 276.246902 
L 245.708663 264.690335 
L 245.843151 270.186294 
L 246.112128 267.178354 
L 246.381104 261.95414 
L 246.515592 261.920472 
L 247.188033 272.252028 
L 247.322522 272.660846 
L 247.45701 273.535236 
L 247.591498 273.17788 
L 247.725986 276.368105 
L 247.860475 274.918003 
L 248.129451 276.252674 
L 248.263939 275.361931 
L 248.398427 276.050188 
L 248.532916 275.895799 
L 248.667404 277.857165 
L 248.801892 277.757605 
L 249.205357 279.30919 
L 249.339845 279.426545 
L 249.608821 278.470392 
L 249.743309 278.603137 
L 249.877798 278.300612 
L 250.550239 275.108945 
L 250.819215 275.41147 
L 250.953703 276.196401 
L 251.088192 275.051229 
L 251.357168 276.319046 
L 251.491656 285.288035 
L 251.626144 284.794568 
L 251.760633 285.228396 
L 251.895121 285.067273 
L 252.164097 272.726738 
L 252.70205 144.316966 
L 252.836538 164.206208 
L 252.971027 160.735101 
L 253.240003 173.744656 
L 253.374491 175.108185 
L 253.508979 172.159885 
L 253.777956 205.235675 
L 254.046932 256.993492 
L 254.315909 278.486263 
L 254.719373 286.906474 
L 254.853862 286.66455 
L 255.122838 288.411406 
L 255.391814 267.484727 
L 255.660791 173.533513 
L 255.795279 177.007506 
L 256.198744 161.213178 
L 256.333232 164.915146 
L 256.46772 162.229933 
L 256.602208 163.435225 
L 257.409138 259.252573 
L 257.812602 266.782041 
L 258.081579 282.106468 
L 258.216067 283.178534 
L 258.350555 282.443623 
L 258.619532 268.163365 
L 258.888508 178.374882 
L 259.022996 179.250715 
L 259.157484 170.127818 
L 259.291973 169.547777 
L 259.426461 153.94343 
L 259.695437 167.749458 
L 259.829925 156.53197 
L 259.964414 165.675067 
L 260.771343 262.346605 
L 261.040319 264.602319 
L 261.309296 272.159202 
L 261.443784 275.398003 
L 261.71276 272.461246 
L 261.847249 259.974498 
L 262.116225 171.135915 
L 262.250713 175.335199 
L 262.654178 148.701901 
L 262.788666 156.058703 
L 262.923154 151.251964 
L 263.326619 186.671485 
L 263.461107 197.653302 
L 263.864572 246.803821 
L 264.268036 264.985646 
L 264.402525 264.222359 
L 264.671501 267.678555 
L 264.805989 267.551581 
L 264.940478 266.593504 
L 265.074966 258.967362 
L 265.209454 239.704334 
L 265.612919 124.532092 
L 265.881895 106.281009 
L 266.016383 115.855529 
L 266.150871 115.723745 
L 266.28536 115.272121 
L 266.419848 119.938901 
L 266.688824 157.498705 
L 266.957801 236.91427 
L 267.226777 253.707557 
L 267.361265 252.274288 
L 267.495754 268.767935 
L 267.630242 268.449538 
L 267.76473 270.332987 
L 267.899218 270.646575 
L 268.168195 277.217484 
L 268.302683 278.109189 
L 268.437171 275.527863 
L 268.706147 278.083698 
L 268.975124 274.56209 
L 269.2441 272.66277 
L 269.916541 258.057862 
L 270.320006 259.961993 
L 270.588982 264.886568 
L 270.723471 279.093238 
L 270.857959 280.141255 
L 270.992447 278.651715 
L 271.126935 279.541976 
L 271.261424 279.571796 
L 271.395912 279.38422 
L 271.799376 282.183422 
L 271.933865 280.787188 
L 272.068353 281.145024 
L 272.202841 280.495244 
L 272.337329 280.73332 
L 272.471817 279.88346 
L 272.606306 277.700852 
L 272.740794 278.993679 
L 272.875282 278.668548 
L 273.00977 277.986062 
L 273.144258 275.633194 
L 273.278747 275.532673 
L 273.547723 278.534841 
L 273.682211 278.750793 
L 273.8167 279.440012 
L 273.951188 278.571394 
L 274.085676 289.30792 
L 274.354652 290.953773 
L 274.489141 289.369002 
L 274.758117 274.527461 
L 275.29607 167.127093 
L 275.565046 154.785595 
L 275.699535 155.125636 
L 275.834023 173.233393 
L 275.968511 175.534798 
L 276.102999 185.778338 
L 276.77544 265.77683 
L 277.447881 283.327632 
L 277.58237 286.753528 
L 277.716858 286.359139 
L 277.851346 281.92274 
L 277.985834 271.852829 
L 278.389299 210.821093 
L 278.523787 191.16656 
L 278.658275 189.150847 
L 278.792763 179.552759 
L 278.927252 191.788445 
L 279.06174 185.917336 
L 279.196228 188.026356 
L 279.330716 195.789091 
L 280.137646 276.240169 
L 280.272134 278.647386 
L 280.406622 270.218037 
L 280.54111 269.931384 
L 280.810087 271.112627 
L 280.944575 270.484009 
L 281.213551 262.495703 
L 281.348039 233.292142 
L 281.482528 162.20829 
L 281.617016 151.909921 
L 281.751504 128.304762 
L 281.885992 129.466768 
L 282.154969 143.095802 
L 282.289457 124.819227 
L 282.423945 128.94348 
L 282.558433 138.134193 
L 282.82741 187.00864 
L 283.096386 256.172008 
L 283.365363 262.860754 
L 283.499851 265.08761 
L 283.634339 264.410415 
L 283.768827 264.420996 
L 283.903316 264.611938 
L 284.037804 265.928333 
L 284.172292 266.058674 
L 284.441268 260.819068 
L 285.113709 144.517527 
L 285.248198 143.431995 
L 285.382686 138.854675 
L 285.517174 148.178614 
L 285.651662 145.049952 
L 285.78615 148.570117 
L 286.055127 202.172425 
L 286.324103 252.189158 
L 286.59308 261.953178 
L 286.727568 261.830532 
L 286.862056 280.936767 
L 286.996544 280.996407 
L 287.131033 280.009953 
L 287.265521 280.620775 
L 287.668985 277.063095 
L 287.803474 277.948066 
L 288.07245 277.0655 
L 288.206938 274.875197 
L 288.341427 274.819405 
L 288.475915 272.452589 
L 288.610403 272.0784 
L 288.744891 270.944772 
L 288.879379 273.79736 
L 289.013868 274.139805 
L 289.148356 271.305012 
L 289.417332 278.521374 
L 289.55182 279.718489 
L 289.820797 279.35392 
L 289.955285 280.150875 
L 290.089773 278.638729 
L 290.224262 280.198971 
L 290.35875 279.28418 
L 290.493238 280.272558 
L 290.627726 278.717606 
L 291.031191 260.585801 
L 291.300167 193.834459 
L 291.434655 188.202389 
L 291.569144 188.815135 
L 291.703632 192.912935 
L 291.972608 180.059213 
L 292.376073 193.250571 
L 293.048514 270.296434 
L 293.183002 271.55367 
L 293.31749 270.392146 
L 293.451979 271.150143 
L 293.586467 270.212747 
L 293.720955 272.708942 
L 293.855443 272.974433 
L 294.258908 248.849835 
L 294.527884 190.367682 
L 294.796861 158.4159 
L 294.931349 142.411873 
L 295.065837 142.276723 
L 295.200325 150.316492 
L 295.334814 144.547828 
L 295.60379 172.843813 
L 295.738278 187.457378 
L 296.141743 258.256981 
L 296.276231 257.359505 
L 296.410719 264.619153 
L 296.545208 282.44699 
L 296.948672 284.628635 
L 297.486625 286.610201 
L 297.621113 286.261984 
L 297.755601 286.258136 
L 298.024578 283.059736 
L 298.159066 282.908233 
L 298.428042 280.749673 
L 298.697019 276.894278 
L 298.831507 275.750068 
L 298.965995 275.606741 
L 299.100484 275.965058 
L 299.36946 279.77861 
L 299.503948 279.268308 
L 299.638436 280.82326 
L 299.772925 271.090984 
L 299.907413 274.518804 
L 300.041901 274.214836 
L 300.176389 275.087782 
L 300.310877 274.802091 
L 300.579854 263.749092 
L 301.252295 128.639031 
L 301.386783 128.70829 
L 301.521271 141.999688 
L 301.65576 135.005532 
L 301.790248 144.491074 
L 302.597177 254.109641 
L 302.731665 255.875736 
L 303.000642 268.376913 
L 303.13513 268.602965 
L 303.269618 269.086813 
L 303.404106 271.564732 
L 303.538595 271.987017 
L 303.807571 255.505394 
L 304.345524 165.053183 
L 304.6145 154.451326 
L 304.748988 162.750815 
L 304.883477 153.105593 
L 305.017965 159.231613 
L 306.093871 266.81667 
L 306.228359 267.834868 
L 306.497335 278.066383 
L 306.766312 279.103819 
L 306.9008 274.360086 
L 307.035288 263.741877 
L 307.304265 170.572227 
L 307.438753 177.888148 
L 307.842217 158.482273 
L 307.976706 165.586089 
L 308.111194 157.104316 
L 308.245682 162.103921 
L 308.649147 208.449948 
L 309.052611 265.236709 
L 309.590564 277.558968 
L 309.994029 279.275042 
L 310.128517 275.695238 
L 310.263005 262.984842 
L 310.531982 170.460163 
L 310.66647 171.620245 
L 310.935446 169.314029 
L 311.069934 159.892936 
L 311.204423 166.396511 
L 311.338911 165.095988 
L 311.473399 158.271611 
L 311.607887 171.506256 
L 311.876864 209.363776 
L 312.14584 252.007354 
L 312.414817 263.901076 
L 312.818281 272.576196 
L 312.952769 272.139001 
L 313.087258 274.038803 
L 313.221746 273.939244 
L 313.356234 275.527863 
L 313.625211 264.89282 
L 313.759699 256.94251 
L 313.894187 260.32031 
L 314.028675 257.772652 
L 314.163163 259.670049 
L 314.297652 256.889124 
L 314.566628 263.501396 
L 314.701116 264.241597 
L 314.970093 269.030541 
L 315.104581 268.992545 
L 315.239069 268.693867 
L 315.508045 271.64842 
L 315.642534 272.189502 
L 315.777022 271.856676 
L 316.180487 274.868945 
L 316.314975 274.425978 
L 316.718439 276.798085 
L 316.852928 277.049148 
L 316.987416 276.189187 
L 317.121904 276.255078 
L 317.256392 275.12674 
L 317.39088 275.272472 
L 317.525369 273.721849 
L 317.659857 274.648183 
L 317.928833 272.109663 
L 318.332298 268.344688 
L 318.466786 269.004088 
L 318.601274 268.497634 
L 318.735763 269.965051 
L 318.870251 269.800081 
L 319.139227 270.925052 
L 319.273715 280.836246 
L 319.67718 281.963141 
L 319.811668 279.364501 
L 319.946157 271.349261 
L 320.349621 148.420538 
L 320.484109 132.145248 
L 320.887574 159.633697 
L 321.022062 164.336068 
L 321.291039 179.232438 
L 321.425527 181.046629 
L 321.560015 199.629096 
L 321.828991 255.584753 
L 321.96348 263.734663 
L 322.097968 264.527289 
L 322.635921 281.356167 
L 322.770409 281.705826 
L 322.904897 281.041617 
L 323.173874 270.52922 
L 323.44285 174.326621 
L 323.577338 174.69119 
L 323.711826 174.894156 
L 323.980803 154.561467 
L 324.249779 158.127804 
L 324.384268 160.915462 
L 324.787732 197.438311 
L 325.056709 252.382024 
L 325.325685 261.725201 
L 325.863638 279.684822 
L 325.998126 281.465826 
L 326.132614 281.531718 
L 326.267103 278.293878 
L 326.401591 269.225331 
L 326.670567 167.08044 
L 326.805055 173.08189 
L 326.939544 174.263134 
L 327.20852 160.934701 
L 327.343008 169.140883 
L 327.611985 165.358113 
L 327.746473 170.255273 
L 328.149937 225.372613 
L 328.418914 256.455295 
L 328.68789 269.36481 
L 328.822379 271.836957 
L 328.956867 281.960737 
L 329.225843 282.914966 
L 329.360331 282.061258 
L 329.629308 269.1301 
L 330.032772 179.429633 
L 330.301749 168.003407 
L 330.570725 159.127244 
L 330.839702 181.149074 
L 330.97419 182.370718 
L 331.108678 185.137215 
L 331.781119 261.604961 
L 332.050096 268.823246 
L 332.184584 279.680493 
L 332.319072 280.643861 
L 332.45356 279.97388 
L 332.588049 280.968992 
L 332.857025 268.264368 
L 333.26049 178.793319 
L 333.394978 180.71765 
L 333.663954 165.692382 
L 333.798442 166.893826 
L 333.932931 170.689582 
L 334.336395 188.690565 
L 334.73986 256.943953 
L 335.143325 272.792629 
L 335.277813 272.592549 
L 335.412301 272.690665 
L 335.546789 272.978281 
L 335.681277 272.872469 
L 335.950254 275.473995 
L 336.084742 273.363532 
L 336.622695 256.775135 
L 336.757183 257.575938 
L 336.891671 255.73289 
L 337.295136 262.138829 
L 337.698601 266.907091 
L 337.833089 266.424205 
L 338.102065 270.554711 
L 338.236553 270.320963 
L 338.371042 270.963048 
L 338.50553 268.61018 
L 339.043483 271.792708 
L 339.446947 274.811229 
L 339.581436 274.325938 
L 339.715924 273.148061 
L 339.850412 273.409223 
L 339.9849 272.623331 
L 340.119388 272.509823 
L 340.253877 272.032709 
L 340.388365 273.520807 
L 340.522853 271.517117 
L 340.657341 272.120244 
L 340.926318 271.799442 
L 341.060806 268.436071 
L 341.329782 273.354394 
L 341.464271 273.251949 
L 341.598759 273.784374 
L 341.733247 275.362412 
L 341.867735 283.242502 
L 342.136712 283.344947 
L 342.2712 283.99136 
L 342.540176 271.201605 
L 342.943641 155.172289 
L 343.212617 171.904493 
L 343.347106 171.164773 
L 343.75057 185.656173 
L 343.885058 187.34339 
L 344.019547 186.675814 
L 344.423011 255.064352 
L 345.22994 280.94831 
L 345.364429 282.040095 
L 345.498917 281.669754 
L 345.633405 277.421893 
L 345.767893 269.277756 
L 346.03687 184.401823 
L 346.171358 188.550124 
L 346.440334 174.885018 
L 346.574823 169.47419 
L 346.843799 176.403417 
L 347.112775 178.285904 
L 347.381752 213.020053 
L 347.650728 252.218016 
L 348.054193 270.311825 
L 348.188681 271.502688 
L 348.323169 280.537569 
L 348.457658 281.391758 
L 348.592146 283.276169 
L 348.726634 283.079455 
L 348.99561 270.078077 
L 349.264587 183.343705 
L 349.399075 184.828437 
L 349.668052 167.142003 
L 349.80254 162.999954 
L 350.206004 181.832521 
L 350.340493 183.02098 
L 351.012934 263.787088 
L 351.147422 266.124565 
L 351.550886 282.909195 
L 351.685375 282.192079 
L 351.954351 282.561459 
L 352.088839 281.154162 
L 352.223328 273.812751 
L 352.492304 179.237248 
L 352.626792 186.453128 
L 352.76128 175.002854 
L 352.895769 174.289105 
L 353.030257 165.952102 
L 353.164745 173.214154 
L 353.299233 171.122448 
L 353.56821 153.221505 
L 354.240651 270.45419 
L 354.375139 271.599842 
L 354.644115 277.503657 
L 354.913092 281.80779 
L 355.182068 282.857251 
L 355.316556 280.438009 
L 355.451045 271.245854 
L 355.854509 197.429173 
L 356.123486 158.826161 
L 356.257974 160.551855 
L 356.392462 169.222166 
L 356.52695 168.584409 
L 356.661439 179.264662 
L 356.795927 178.004541 
L 357.33388 266.113984 
L 357.602856 275.777964 
L 357.737344 277.756162 
L 357.871832 282.041057 
L 358.006321 281.458612 
L 358.140809 281.674564 
L 358.275297 282.419575 
L 358.409785 282.331078 
L 358.678762 281.06278 
L 359.082226 262.466365 
L 359.351203 256.519744 
L 359.485691 250.204707 
L 359.620179 261.012896 
L 359.754667 262.437026 
L 359.889156 262.606325 
L 360.427109 276.994799 
L 360.561597 277.679208 
L 360.965061 281.855406 
L 361.234038 281.815486 
L 361.368526 281.62262 
L 361.503014 282.93709 
L 361.771991 282.526829 
L 361.906479 283.866791 
L 362.040967 283.818695 
L 362.175455 284.196731 
L 362.309944 284.237613 
L 362.57892 280.801136 
L 362.713408 280.751597 
L 362.982385 279.60883 
L 363.116873 278.105822 
L 363.251361 278.003377 
L 363.385849 279.101895 
L 363.520337 278.241935 
L 363.654826 278.181814 
L 364.05829 280.987749 
L 364.192778 254.795494 
L 364.730731 261.097545 
L 364.86522 259.893696 
L 364.999708 247.725345 
L 365.134196 225.413976 
L 365.403172 136.446976 
L 365.672149 105.932311 
L 365.806637 99.967895 
L 366.075613 117.036292 
L 366.34459 113.869154 
L 366.479078 125.384358 
L 367.017031 252.69465 
L 367.151519 257.690407 
L 367.286007 255.942589 
L 367.554984 267.38613 
L 367.689472 268.259077 
L 367.958448 273.194714 
L 368.227425 249.460658 
L 368.496401 152.801625 
L 368.765378 100.539759 
L 369.034354 89.557943 
L 369.168842 94.314662 
L 369.303331 93.866886 
L 369.437819 97.260557 
L 369.572307 95.122679 
L 369.706795 111.350834 
L 370.244748 236.106734 
L 370.782701 280.652519 
L 370.917189 280.959854 
L 371.051677 281.858292 
L 371.186166 281.577409 
L 371.455142 266.644486 
L 371.858607 172.665857 
L 372.127583 204.895154 
L 372.262071 200.803606 
L 372.396559 202.241203 
L 372.665536 191.471972 
L 372.800024 195.295623 
L 373.203489 235.305932 
L 373.472465 257.733213 
L 373.87593 279.088429 
L 374.010418 288.176215 
L 374.144906 288.02904 
L 374.279394 289.244914 
L 374.413883 288.737979 
L 374.682859 272.050023 
L 375.220812 181.962381 
L 375.489788 178.305142 
L 375.624277 178.529752 
L 375.893253 185.115571 
L 376.027741 189.444715 
L 376.565694 257.549004 
L 376.83467 266.507892 
L 376.969159 269.366253 
L 377.103647 281.269593 
L 377.238135 280.168189 
L 377.507112 282.257009 
L 377.6416 280.275925 
L 377.776088 283.842743 
L 378.045064 281.678893 
L 378.179553 271.962969 
L 378.314041 271.332427 
L 378.448529 264.176667 
L 378.583017 265.185246 
L 378.717505 264.260836 
L 378.851994 268.807374 
L 378.986482 268.041201 
L 379.12097 268.956473 
L 379.255458 271.132828 
L 379.389947 271.015473 
L 379.927899 280.342298 
L 380.062388 280.134041 
L 380.196876 280.553921 
L 380.331364 270.566735 
L 380.465852 271.250183 
L 380.869317 274.17732 
L 381.138293 263.195023 
L 381.272782 235.88501 
L 381.541758 160.698067 
L 381.810734 140.374516 
L 381.945223 141.978526 
L 382.214199 148.517211 
L 382.348687 140.463494 
L 382.752152 190.719746 
L 383.021128 259.267002 
L 383.155616 267.258675 
L 383.290105 267.926251 
L 383.424593 269.223888 
L 383.559081 264.255545 
L 383.693569 263.537949 
L 383.962546 263.887128 
L 384.097034 265.087129 
L 384.231522 263.288811 
L 384.36601 264.692259 
L 385.038451 149.588315 
L 385.17294 152.051324 
L 385.307428 167.308897 
L 385.576404 161.61911 
L 386.248845 262.135943 
L 386.921286 280.786707 
L 387.055775 279.965223 
L 387.190263 281.253241 
L 387.324751 280.556807 
L 387.459239 280.719372 
L 387.593727 282.220937 
L 387.728216 281.641858 
L 387.862704 282.969796 
L 387.997192 281.790957 
L 388.13168 283.394486 
L 388.266169 282.40226 
L 388.400657 280.400494 
L 388.535145 280.490434 
L 388.669633 279.822377 
L 388.804121 280.970916 
L 388.93861 278.398728 
L 389.207586 280.556807 
L 389.476562 287.302306 
L 389.611051 286.23505 
L 389.745539 287.058458 
L 389.880027 287.006033 
L 390.014515 271.976436 
L 390.149004 272.215474 
L 390.41798 272.237599 
L 390.552468 272.105815 
L 390.686956 266.559836 
L 390.821445 266.74645 
L 390.955933 257.817381 
L 391.224909 201.169618 
L 391.359397 169.518919 
L 391.493886 165.494225 
L 391.762862 176.281252 
L 391.89735 175.732955 
L 392.031839 168.446373 
L 392.166327 172.178161 
L 392.300815 181.236609 
L 392.569791 241.920609 
L 392.70428 268.438957 
L 392.973256 273.324093 
L 393.107744 273.98734 
L 393.376721 266.869095 
L 393.645697 272.637279 
L 393.780185 269.216673 
L 393.914673 270.613388 
L 394.049162 263.135383 
L 394.721603 147.519695 
L 394.990579 146.438491 
L 395.125067 146.014763 
L 395.259556 157.499667 
L 395.394044 158.377423 
L 395.931997 247.296808 
L 396.200973 261.026844 
L 396.335461 257.25706 
L 396.46995 282.248352 
L 396.604438 282.635046 
L 397.007902 285.696853 
L 397.276879 272.524733 
L 397.545855 198.164565 
L 397.680343 192.931212 
L 397.94932 169.347216 
L 398.083808 155.761468 
L 398.218296 168.617596 
L 398.352785 163.808933 
L 398.487273 166.848135 
L 398.487273 166.848135 
" clip-path="url(#p7581724b12)" style="fill: none; stroke: #1f77b4; stroke-width: 1.5; stroke-linecap: square"/>
   </g>
   <g id="line2d_13">
    <path d="M 73.832727 285.13473 
L 74.236192 281.065043 
L 74.37068 278.554203 
L 74.505168 280.43235 
L 74.639657 278.929375 
L 74.774145 280.470956 
L 74.908633 266.775534 
L 75.043121 218.10031 
L 75.177609 240.845121 
L 75.446586 249.768134 
L 75.581074 246.009602 
L 75.715562 249.02342 
L 75.85005 248.967997 
L 75.984539 251.035735 
L 76.253515 249.88472 
L 76.388003 249.745719 
L 76.522492 283.926166 
L 76.791468 276.506019 
L 76.925956 275.281918 
L 77.060444 277.871433 
L 77.194933 263.05213 
L 77.329421 269.06583 
L 77.463909 267.232178 
L 77.732885 268.487441 
L 77.867374 256.363864 
L 78.001862 232.092397 
L 78.270838 124.690201 
L 78.405327 96.602371 
L 78.674303 113.687206 
L 78.808791 101.558265 
L 78.943279 106.876115 
L 79.077768 105.174996 
L 79.61572 194.394198 
L 79.884697 251.375433 
L 80.288161 273.930921 
L 80.42265 263.791448 
L 80.557138 277.245699 
L 80.826114 271.601079 
L 80.960603 270.204447 
L 81.095091 264.745889 
L 81.229579 245.436401 
L 81.498555 145.322071 
L 81.633044 168.872585 
L 81.767532 164.838093 
L 81.90202 156.59102 
L 82.036508 213.211793 
L 82.170996 213.143431 
L 82.439973 217.618528 
L 82.574461 195.147106 
L 82.708949 224.059464 
L 82.977926 213.444604 
L 83.112414 227.068001 
L 83.246902 213.12823 
L 83.38139 213.061929 
L 83.919343 283.105665 
L 84.053831 282.391938 
L 84.18832 280.334304 
L 84.322808 213.061529 
L 84.457296 234.884123 
L 84.591784 213.061529 
L 84.860761 213.061529 
L 84.995249 213.493445 
L 85.264225 165.557139 
L 85.533202 183.660567 
L 85.936666 214.254136 
L 86.205643 263.5312 
L 86.340131 261.948553 
L 86.474619 269.3033 
L 86.609107 265.581593 
L 87.012572 295.488 
L 87.14706 293.597611 
L 87.281549 288.599941 
L 87.416037 289.420087 
L 87.685013 286.614967 
L 87.95399 241.903071 
L 88.088478 256.344314 
L 88.222966 250.200936 
L 88.357454 258.780153 
L 88.626431 252.023959 
L 88.760919 259.46305 
L 88.895407 248.010307 
L 89.029895 258.862621 
L 89.164384 257.065374 
L 89.298872 262.035437 
L 89.43336 279.647062 
L 89.836825 276.223033 
L 89.971313 281.824277 
L 90.105801 254.734685 
L 90.374777 263.146571 
L 90.509266 264.259851 
L 90.643754 264.335923 
L 90.778242 262.125309 
L 90.91273 266.059367 
L 91.047218 256.768694 
L 91.181707 239.72735 
L 91.316195 246.043456 
L 91.450683 236.995534 
L 91.585171 253.462916 
L 91.71966 246.695644 
L 91.854148 252.914926 
L 91.988636 252.575077 
L 92.257612 259.403431 
L 92.392101 258.444845 
L 92.661077 265.712515 
L 92.930053 269.054264 
L 93.064542 267.805765 
L 93.19903 270.271779 
L 93.333518 283.652177 
L 93.602495 276.495128 
L 93.871471 273.074525 
L 94.140447 259.9906 
L 94.409424 172.897218 
L 94.543912 179.94213 
L 94.812888 159.332673 
L 94.947377 156.356248 
L 95.216353 172.969627 
L 95.48533 162.883756 
L 95.888794 255.544878 
L 96.157771 267.915716 
L 96.292259 266.876646 
L 96.426747 274.56881 
L 96.561235 273.852339 
L 96.830212 268.936796 
L 96.9647 270.609684 
L 97.233676 265.557937 
L 97.502653 220.825269 
L 97.637141 168.944329 
L 97.771629 183.586422 
L 97.906117 171.73844 
L 98.040606 189.686874 
L 98.175094 179.305902 
L 98.309582 180.889759 
L 98.44407 178.85752 
L 98.713047 197.814952 
L 98.982023 229.03375 
L 99.250999 272.52713 
L 99.385488 270.615412 
L 99.519976 271.895246 
L 99.788952 289.064252 
L 100.057929 279.723814 
L 100.192417 278.628922 
L 100.326905 279.910387 
L 100.461393 279.545357 
L 100.595882 278.065265 
L 100.864858 281.249355 
L 100.999346 278.918983 
L 101.133834 282.940608 
L 101.402811 279.726954 
L 101.537299 270.205395 
L 101.671787 281.389927 
L 101.806276 270.310767 
L 101.940764 269.497711 
L 102.075252 273.971814 
L 102.20974 272.904143 
L 102.344228 273.015713 
L 102.478717 274.821217 
L 102.613205 279.619726 
L 102.747693 273.074111 
L 102.882181 287.145889 
L 103.016669 261.579422 
L 103.151158 265.089776 
L 103.285646 271.99775 
L 103.420134 271.575865 
L 103.823599 253.841438 
L 103.958087 223.443239 
L 104.092575 164.189292 
L 104.227063 169.512477 
L 104.361552 152.897576 
L 104.49604 171.580186 
L 104.765016 143.357092 
L 105.302969 192.50662 
L 105.706434 266.817094 
L 105.97541 257.434593 
L 106.244387 290.400697 
L 106.378875 287.347219 
L 106.647851 279.152211 
L 106.782339 283.312869 
L 106.916828 281.542191 
L 107.051316 283.656558 
L 107.320292 225.646558 
L 107.589269 258.695143 
L 107.723757 250.383705 
L 107.858245 250.152759 
L 107.992733 249.519682 
L 108.127222 252.321157 
L 108.530686 248.389898 
L 108.665174 253.924862 
L 108.934151 279.899768 
L 109.068639 276.955905 
L 109.203127 277.522376 
L 109.337615 279.754333 
L 109.472104 271.546383 
L 109.606592 273.930254 
L 109.74108 273.57293 
L 109.875568 274.66247 
L 110.010056 273.101305 
L 110.279033 273.966564 
L 110.413521 272.014118 
L 110.682498 273.316819 
L 110.951474 270.796725 
L 111.085962 271.84439 
L 111.22045 275.539245 
L 111.354939 275.311995 
L 111.758403 270.22896 
L 112.02738 274.705171 
L 112.296356 273.135316 
L 112.430844 272.170111 
L 112.565333 276.388262 
L 112.699821 257.615716 
L 112.834309 264.077627 
L 113.103285 265.98009 
L 113.237774 265.719196 
L 113.372262 264.246944 
L 113.50675 268.221735 
L 113.641238 267.524608 
L 113.775726 269.375665 
L 113.910215 264.443884 
L 114.044703 266.360805 
L 114.179191 263.511488 
L 114.313679 257.582217 
L 114.582656 262.700582 
L 114.717144 261.931231 
L 114.98612 253.419298 
L 115.120609 254.732564 
L 115.389585 263.171595 
L 115.658561 261.332135 
L 115.79305 265.283084 
L 116.062026 262.852907 
L 116.196514 258.123271 
L 116.331002 268.165522 
L 116.465491 262.941515 
L 116.599979 263.325128 
L 116.734467 241.501812 
L 117.003444 122.839686 
L 117.137932 84.391743 
L 117.27242 82.190586 
L 117.406908 83.243015 
L 117.541396 69.89743 
L 117.675885 71.133787 
L 117.810373 77.445647 
L 118.213837 148.744604 
L 118.482814 231.814034 
L 118.886279 254.43153 
L 119.020767 257.948752 
L 119.155255 256.673909 
L 119.289743 256.942772 
L 119.55872 253.358684 
L 119.693208 255.311625 
L 119.827696 253.447229 
L 119.962184 233.3941 
L 120.231161 121.136498 
L 120.365649 96.786411 
L 120.500137 97.337636 
L 120.634625 92.463932 
L 120.769114 81.866838 
L 120.903602 84.260822 
L 121.03809 83.76356 
L 121.172578 93.633531 
L 121.576043 183.036637 
L 121.710531 232.158421 
L 121.979507 249.402695 
L 122.113996 244.748015 
L 122.248484 249.357541 
L 122.382972 249.467168 
L 122.51746 262.261366 
L 122.651948 260.092205 
L 122.920925 253.714711 
L 123.055413 249.601986 
L 123.189901 234.311269 
L 123.458878 126.687877 
L 123.593366 95.216117 
L 123.862342 87.835745 
L 123.996831 81.883601 
L 124.131319 91.228683 
L 124.400295 119.100527 
L 124.669272 141.916024 
L 125.072736 245.562097 
L 125.207225 259.840012 
L 125.341713 257.593537 
L 125.476201 261.863921 
L 125.610689 257.506847 
L 125.745177 271.171839 
L 125.879666 270.846764 
L 126.014154 269.287226 
L 126.148642 265.35408 
L 126.417618 242.517006 
L 126.686595 130.759876 
L 126.955571 94.421122 
L 127.09006 85.092548 
L 127.224548 88.534484 
L 127.493524 109.621957 
L 127.628012 115.432521 
L 127.896989 157.886109 
L 128.300453 246.924856 
L 128.434942 258.993759 
L 128.56943 257.94785 
L 128.838406 264.580777 
L 128.972894 260.305959 
L 129.241871 263.407177 
L 129.376359 262.754284 
L 129.645336 225.83409 
L 130.0488 85.903847 
L 130.183288 88.90431 
L 130.317777 87.093677 
L 130.452265 89.01336 
L 130.586753 121.706462 
L 130.721241 118.936961 
L 130.855729 121.89838 
L 131.124706 169.227859 
L 131.393682 241.529112 
L 131.662659 262.35256 
L 131.797147 262.76601 
L 131.931635 266.712357 
L 132.200612 258.456222 
L 132.3351 263.111817 
L 132.469588 272.039097 
L 132.738564 264.581763 
L 132.873053 262.945696 
L 133.007541 246.366911 
L 133.142029 245.161214 
L 133.276517 237.209366 
L 133.411005 238.608727 
L 133.679982 236.556333 
L 133.81447 239.554754 
L 133.948958 239.723192 
L 134.083447 235.144149 
L 134.352423 247.930749 
L 134.755888 258.915553 
L 134.890376 258.39062 
L 135.024864 256.781946 
L 135.159352 262.157642 
L 135.29384 262.514085 
L 135.428329 262.385753 
L 135.562817 262.075816 
L 135.831793 264.139345 
L 135.966282 270.992294 
L 136.10077 268.482603 
L 136.235258 263.352004 
L 136.369746 267.425416 
L 136.504234 267.303994 
L 136.638723 260.072503 
L 136.773211 263.89069 
L 136.907699 263.337823 
L 137.042187 265.214571 
L 137.311164 254.58053 
L 137.58014 260.447793 
L 137.714628 256.519383 
L 137.983605 263.506053 
L 138.118093 263.062586 
L 138.252581 260.120389 
L 138.521558 269.288399 
L 138.790534 261.233587 
L 139.05951 265.288076 
L 139.328487 234.561042 
L 139.597463 120.158671 
L 139.731951 84.736369 
L 139.86644 87.869797 
L 140.000928 87.177456 
L 140.135416 82.69824 
L 140.404393 102.408077 
L 140.807857 158.048739 
L 140.942345 183.16826 
L 141.211322 249.993619 
L 141.34581 252.024135 
L 141.614786 267.678354 
L 141.749275 266.29149 
L 141.883763 266.890987 
L 142.287228 260.379222 
L 142.690692 157.008432 
L 142.959669 87.914057 
L 143.094157 97.362502 
L 143.228645 96.123353 
L 143.363133 85.597911 
L 143.497621 94.790576 
L 143.63211 89.659521 
L 143.766598 101.912853 
L 144.304551 238.834306 
L 144.439039 241.195583 
L 144.842504 272.700088 
L 145.11148 263.905503 
L 145.245968 264.123167 
L 145.380456 265.957294 
L 145.514945 255.389066 
L 145.649433 222.977176 
L 145.783921 227.375463 
L 146.052897 128.72545 
L 146.187386 93.354559 
L 146.321874 93.867191 
L 146.59085 110.942264 
L 146.725339 115.061191 
L 146.859827 109.466129 
L 147.263291 155.768987 
L 147.532268 245.425941 
L 148.204709 269.142402 
L 148.473685 265.186121 
L 148.608174 263.520292 
L 148.87715 259.42051 
L 149.415103 100.990772 
L 149.549591 114.809956 
L 149.684079 112.192399 
L 149.818567 103.883629 
L 150.222032 148.586216 
L 150.35652 145.498326 
L 150.491009 161.807358 
L 150.759985 247.235602 
L 150.894473 249.812172 
L 151.16345 266.375969 
L 151.297938 269.464546 
L 151.432426 266.410895 
L 151.566914 265.987095 
L 151.701402 267.942961 
L 151.835891 266.348736 
L 151.970379 266.269784 
L 152.104867 261.867677 
L 152.64282 94.898337 
L 152.777308 117.473674 
L 152.911796 117.989751 
L 153.046285 95.46473 
L 153.853214 216.647589 
L 154.12219 263.51733 
L 154.256678 273.676378 
L 154.391167 268.544542 
L 154.525655 277.031334 
L 154.660143 273.601647 
L 154.794631 274.802243 
L 154.92912 272.747665 
L 155.063608 272.92511 
L 155.332584 276.300879 
L 155.467072 273.347448 
L 155.601561 264.109695 
L 155.736049 246.408316 
L 155.870537 255.645093 
L 156.005025 253.617096 
L 156.139513 261.321727 
L 156.274002 257.637663 
L 156.40849 258.348974 
L 156.677466 263.733257 
L 156.811955 261.958377 
L 157.080931 267.111553 
L 157.349907 272.318019 
L 157.484396 272.545709 
L 157.618884 269.370341 
L 157.753372 274.15513 
L 157.88786 274.427643 
L 158.022348 274.276826 
L 158.156837 272.367585 
L 158.291325 272.244289 
L 158.425813 274.28973 
L 158.694789 279.065181 
L 158.829278 274.196971 
L 158.963766 277.020752 
L 159.098254 276.929274 
L 159.232742 275.101939 
L 159.367231 275.264569 
L 159.501719 277.749558 
L 159.636207 275.354249 
L 159.905183 265.884686 
L 160.039672 269.626408 
L 160.17416 263.444088 
L 160.308648 267.026957 
L 160.443136 266.339712 
L 160.577624 273.185979 
L 160.846601 265.519728 
L 160.981089 269.490676 
L 161.115577 269.707825 
L 161.250066 272.574732 
L 161.519042 268.583297 
L 161.65353 267.594208 
L 161.922507 236.912205 
L 162.325971 94.655705 
L 162.460459 87.418931 
L 162.594948 96.187529 
L 162.729436 93.030798 
L 162.863924 84.003598 
L 163.536365 194.677496 
L 163.670853 240.939858 
L 164.208806 267.083939 
L 164.343294 263.924468 
L 164.477783 274.985671 
L 164.612271 273.307862 
L 164.746759 273.806791 
L 165.150224 233.914323 
L 165.553688 101.307249 
L 165.688177 119.861787 
L 165.822665 116.359514 
L 165.957153 103.496655 
L 166.091641 112.984328 
L 166.226129 114.401176 
L 166.360618 112.129624 
L 166.495106 119.587259 
L 166.629594 137.380107 
L 166.89857 241.410788 
L 167.033059 246.400957 
L 167.167547 243.383812 
L 167.436523 258.319842 
L 167.571012 259.537081 
L 167.839988 264.604021 
L 168.108964 263.029229 
L 168.243453 249.371173 
L 168.377941 224.320817 
L 168.781405 92.625051 
L 168.915894 112.812936 
L 169.050382 108.31049 
L 169.18487 97.277842 
L 169.319358 105.059809 
L 169.453847 94.890496 
L 169.588335 106.569875 
L 170.260776 250.209584 
L 170.395264 260.651727 
L 170.529752 261.256462 
L 170.66424 266.649666 
L 170.798729 266.526682 
L 171.067705 262.769159 
L 171.202193 262.221431 
L 171.336681 265.669941 
L 172.009123 96.100762 
L 172.278099 113.854977 
L 172.412587 97.059718 
L 172.547075 94.421844 
L 173.085028 159.775732 
L 173.488493 250.757465 
L 174.026446 286.430061 
L 174.295422 275.839637 
L 174.42991 273.755884 
L 174.564399 275.482357 
L 174.967863 221.396707 
L 175.102351 168.577692 
L 175.23684 162.147987 
L 175.505816 141.215974 
L 175.640304 142.896446 
L 175.774792 156.266132 
L 175.909281 154.656401 
L 176.043769 157.084656 
L 176.447234 202.26271 
L 176.581722 251.033689 
L 177.119675 270.233054 
L 177.254163 268.882228 
L 177.388651 269.203306 
L 177.523139 267.213864 
L 177.792116 272.677626 
L 177.926604 272.386342 
L 178.061092 272.553391 
L 178.19558 258.272185 
L 178.330069 256.412886 
L 178.464557 259.37286 
L 178.599045 250.815409 
L 178.868021 254.221457 
L 179.00251 260.716472 
L 179.136998 256.653574 
L 179.271486 256.316956 
L 179.405974 259.288015 
L 179.540462 257.413977 
L 179.674951 258.685228 
L 180.078415 272.015102 
L 180.212904 265.309929 
L 180.347392 270.576002 
L 180.48188 280.206899 
L 180.616368 278.967627 
L 180.885345 273.43378 
L 181.019833 274.494881 
L 181.154321 273.886439 
L 181.557786 258.865534 
L 181.692274 263.278435 
L 181.826762 260.767682 
L 181.96125 266.218058 
L 182.095738 256.082487 
L 182.364715 268.977197 
L 182.76818 276.587219 
L 182.902668 274.396332 
L 183.037156 274.375587 
L 183.171644 279.592098 
L 183.306132 277.616055 
L 183.440621 277.389839 
L 183.575109 279.62089 
L 183.709597 274.773783 
L 183.844085 289.724169 
L 184.113062 288.670842 
L 184.24755 281.093106 
L 184.382038 267.145151 
L 184.516526 264.802776 
L 184.785503 185.356519 
L 184.919991 188.156642 
L 185.054479 176.274105 
L 185.188967 187.358133 
L 185.323456 178.374413 
L 185.72692 192.536862 
L 186.399361 263.329103 
L 186.53385 268.803966 
L 186.668338 269.452022 
L 187.071802 294.742388 
L 187.206291 292.147278 
L 187.340779 286.466344 
L 187.475267 287.020197 
L 187.609755 280.959955 
L 187.744243 267.889922 
L 188.01322 189.152778 
L 188.147708 193.55644 
L 188.282196 182.418595 
L 188.416684 185.690858 
L 188.551173 184.904125 
L 189.089126 205.628529 
L 189.358102 243.402118 
L 189.627078 270.065358 
L 189.761567 268.746291 
L 189.896055 268.528396 
L 190.030543 280.017657 
L 190.165031 273.125719 
L 190.299519 272.814128 
L 190.568496 268.144356 
L 190.837472 270.556177 
L 190.971961 272.176935 
L 191.106449 271.37372 
L 191.240937 264.248474 
L 191.509913 269.65847 
L 191.644402 263.179525 
L 191.77889 269.611744 
L 191.913378 268.613113 
L 192.047866 269.483675 
L 192.182354 264.032901 
L 192.316843 264.866 
L 192.451331 266.941501 
L 192.585819 266.37092 
L 192.720307 268.364587 
L 192.854796 274.983598 
L 193.123772 271.243546 
L 193.25826 272.888884 
L 193.527237 266.952747 
L 193.661725 269.005895 
L 193.796213 268.672818 
L 193.930701 267.794952 
L 194.199678 251.936641 
L 194.468654 172.588282 
L 195.006607 145.661325 
L 195.141095 148.34141 
L 195.275583 156.568804 
L 195.410072 151.017911 
L 195.679048 182.527571 
L 195.948024 242.367813 
L 196.082513 265.537415 
L 196.351489 264.089706 
L 196.485977 269.166468 
L 196.620465 280.281335 
L 196.889442 271.568393 
L 197.02393 268.70836 
L 197.158418 270.765465 
L 197.292907 265.896656 
L 197.427395 253.429206 
L 197.696371 180.104612 
L 197.830859 196.511941 
L 197.965348 189.761342 
L 198.099836 199.946669 
L 198.234324 192.489697 
L 198.368812 201.557114 
L 198.5033 193.149345 
L 198.637789 192.052317 
L 199.041253 243.126452 
L 199.31023 278.702445 
L 199.444718 277.112783 
L 199.579206 277.483126 
L 199.848183 286.863694 
L 200.117159 280.545369 
L 200.251647 279.634294 
L 200.386135 275.851501 
L 200.520624 264.666524 
L 200.655112 266.875525 
L 200.7896 242.294392 
L 200.924088 169.806134 
L 201.058576 203.489633 
L 201.193065 191.559414 
L 201.327553 204.0177 
L 201.462041 193.170592 
L 201.596529 200.701473 
L 201.731018 191.381079 
L 201.865506 193.792865 
L 201.999994 202.097084 
L 202.537947 276.253263 
L 202.672435 272.238106 
L 202.806923 273.924356 
L 202.941411 279.946802 
L 203.210388 263.314341 
L 203.344876 270.519961 
L 203.479364 269.454048 
L 203.882829 250.705911 
L 204.286294 164.360477 
L 204.420782 159.122579 
L 204.55527 163.341029 
L 204.689758 156.730385 
L 204.824246 162.566985 
L 204.958735 159.746733 
L 205.362199 211.101416 
L 205.631176 248.391145 
L 205.765664 266.99955 
L 205.900152 266.688917 
L 206.03464 263.412249 
L 206.169129 271.609986 
L 206.303617 290.556975 
L 206.438105 285.441302 
L 206.572593 284.787861 
L 206.707081 283.506426 
L 206.84157 283.806876 
L 206.976058 282.619281 
L 207.379522 260.536177 
L 207.514011 259.247845 
L 207.648499 262.644883 
L 207.917475 275.163172 
L 208.051964 275.909058 
L 208.186452 274.945082 
L 208.32094 269.832127 
L 208.455428 269.38087 
L 208.589916 273.652323 
L 208.724405 273.450217 
L 208.858893 280.626556 
L 208.993381 279.371931 
L 209.127869 281.694127 
L 209.262357 279.081257 
L 209.396846 282.84753 
L 209.531334 271.422399 
L 209.665822 274.444518 
L 209.80031 272.914626 
L 209.934799 273.002881 
L 210.069287 273.308992 
L 210.203775 253.511933 
L 210.338263 254.381504 
L 210.60724 161.744451 
L 210.741728 150.748636 
L 211.010704 123.885152 
L 211.145192 115.956386 
L 211.414169 143.99392 
L 211.683145 160.918924 
L 212.221098 263.287043 
L 212.355586 262.674897 
L 212.490075 260.851079 
L 212.759051 274.537231 
L 212.893539 276.933327 
L 213.162516 269.831542 
L 213.297004 273.624047 
L 213.56598 242.329063 
L 213.834957 130.059284 
L 213.969445 115.565268 
L 214.103933 139.449435 
L 214.238421 142.838906 
L 214.37291 133.721289 
L 214.641886 164.965997 
L 215.045351 195.288569 
L 215.448815 272.141775 
L 215.583303 264.923179 
L 215.85228 271.422386 
L 215.986768 272.834806 
L 216.121256 272.522818 
L 216.390233 269.933698 
L 216.524721 272.647532 
L 216.793697 248.712071 
L 217.062674 141.065574 
L 217.197162 132.553195 
L 217.466138 153.907202 
L 217.600627 157.851509 
L 217.735115 155.118219 
L 217.869603 145.082835 
L 218.004091 161.613845 
L 218.273068 210.508022 
L 218.407556 217.284382 
L 218.676532 267.738965 
L 218.945509 275.585522 
L 219.079997 268.147891 
L 219.483462 276.097366 
L 219.752438 277.278944 
L 220.021414 249.289972 
L 220.290391 141.168917 
L 220.559367 156.115801 
L 220.693856 154.475677 
L 220.828344 144.323965 
L 220.962832 160.905652 
L 221.09732 158.888162 
L 221.366297 197.025036 
L 221.635273 217.116981 
L 221.904249 269.248972 
L 222.038738 268.722693 
L 222.307714 275.411553 
L 222.442202 274.452479 
L 222.711179 279.404339 
L 222.845667 278.456336 
L 222.980155 279.161562 
L 223.114643 274.344408 
L 223.249132 278.836733 
L 223.518108 246.013184 
L 223.652596 261.417865 
L 223.787084 262.352988 
L 224.056061 252.575155 
L 224.459525 262.807292 
L 224.86299 258.500378 
L 224.997478 264.566773 
L 225.131967 265.541535 
L 225.266455 265.278615 
L 225.400943 262.082507 
L 225.535431 267.005514 
L 225.804408 260.112172 
L 225.938896 264.907201 
L 226.073384 265.673839 
L 226.207872 269.636966 
L 226.34236 268.487553 
L 226.476849 269.930733 
L 226.880313 262.77692 
L 227.014802 270.757256 
L 227.283778 272.129637 
L 227.418266 270.316068 
L 227.552754 275.688023 
L 227.687243 275.624263 
L 227.821731 276.04074 
L 227.956219 274.841333 
L 228.090707 275.667603 
L 228.225195 283.901683 
L 228.359684 279.772677 
L 228.494172 280.20088 
L 228.62866 277.503338 
L 228.763148 282.727708 
L 228.897637 280.530873 
L 229.032125 275.226472 
L 229.166613 274.835833 
L 229.301101 275.033726 
L 229.435589 274.319385 
L 229.570078 260.93692 
L 229.704566 235.561777 
L 230.10803 102.467917 
L 230.242519 100.008755 
L 230.377007 102.588317 
L 230.511495 85.484338 
L 230.780471 121.553374 
L 230.91496 125.586265 
L 231.183936 175.186742 
L 231.587401 256.883408 
L 232.125354 274.659763 
L 232.259842 272.598874 
L 232.528818 275.020326 
L 232.663306 270.929679 
L 232.932283 239.264988 
L 233.201259 132.856564 
L 233.335748 114.318605 
L 233.470236 121.773439 
L 233.604724 139.582215 
L 233.739212 133.175382 
L 233.8737 143.00641 
L 234.008189 129.449613 
L 234.142677 145.760585 
L 234.411653 201.759242 
L 234.546141 212.490865 
L 234.815118 271.046636 
L 234.949606 270.638894 
L 235.084094 266.818869 
L 235.218583 275.205727 
L 235.353071 274.152782 
L 235.622047 281.088444 
L 235.891024 274.233168 
L 236.16 252.404283 
L 236.428976 136.581187 
L 236.563465 114.037784 
L 236.832441 128.411971 
L 236.966929 113.777305 
L 237.101417 129.372713 
L 237.235906 158.371117 
L 237.370394 154.661221 
L 237.504882 167.177252 
L 237.908347 258.430475 
L 238.042835 270.579089 
L 238.177323 270.438063 
L 238.311811 268.764944 
L 238.4463 275.9773 
L 238.580788 275.453526 
L 238.715276 277.123994 
L 238.984252 284.49925 
L 239.253229 270.550287 
L 239.387717 244.428391 
L 239.656694 141.507441 
L 239.92567 122.822723 
L 240.060158 138.190938 
L 240.194646 136.715986 
L 240.329135 142.603542 
L 240.598111 169.133892 
L 240.867087 196.795096 
L 241.136064 256.401023 
L 241.40504 263.95967 
L 241.539529 261.252994 
L 241.674017 269.810481 
L 241.808505 266.169394 
L 241.942993 281.102259 
L 242.077481 278.957376 
L 242.21197 286.815831 
L 242.346458 280.075044 
L 242.615434 245.164024 
L 242.884411 139.684942 
L 243.018899 135.691641 
L 243.153387 159.90316 
L 243.287875 159.187892 
L 243.422363 135.113395 
L 243.825828 168.888391 
L 243.960316 182.220417 
L 244.229293 236.330611 
L 244.498269 262.967805 
L 244.632757 268.356089 
L 244.767246 267.750261 
L 245.036222 275.958115 
L 245.17071 278.988604 
L 245.708663 269.929578 
L 245.843151 246.887258 
L 245.97764 265.376958 
L 246.112128 261.61374 
L 246.246616 261.553098 
L 246.381104 256.558358 
L 246.515592 256.447861 
L 246.919057 268.045428 
L 247.053545 273.311387 
L 247.188033 271.541458 
L 247.322522 275.461372 
L 247.45701 275.255428 
L 247.591498 276.329684 
L 247.725986 275.419359 
L 247.860475 277.930813 
L 247.994963 275.134209 
L 248.129451 278.526595 
L 248.263939 277.575039 
L 248.667404 272.361313 
L 248.801892 274.901623 
L 248.93638 273.068875 
L 250.012286 278.780581 
L 250.146774 278.788852 
L 250.281262 278.218941 
L 250.415751 279.288546 
L 250.953703 277.153973 
L 251.088192 276.89967 
L 251.22268 273.582422 
L 251.357168 278.170371 
L 251.491656 276.316271 
L 251.626144 289.921784 
L 251.895121 283.211299 
L 252.029609 280.331267 
L 252.298586 260.490493 
L 252.567562 144.556022 
L 252.70205 129.702708 
L 252.836538 140.228502 
L 252.971027 166.902872 
L 253.105515 154.626752 
L 253.240003 159.767608 
L 253.508979 179.63904 
L 253.643468 181.80364 
L 254.181421 267.174341 
L 254.584885 286.035193 
L 254.719373 284.144129 
L 254.853862 287.895916 
L 254.98835 284.907859 
L 255.122838 285.733516 
L 255.257326 284.730706 
L 255.660791 191.531441 
L 255.795279 151.564808 
L 256.064255 171.696913 
L 256.198744 166.81166 
L 256.333232 153.773078 
L 256.602208 164.840989 
L 256.736697 169.708028 
L 257.274649 250.53956 
L 257.543626 266.294461 
L 257.678114 261.970501 
L 257.812602 271.924539 
L 257.94709 268.567681 
L 258.081579 284.306625 
L 258.216067 285.025195 
L 258.350555 282.775049 
L 258.485043 277.480113 
L 258.75402 253.131864 
L 259.022996 151.708695 
L 259.157484 169.461344 
L 259.291973 168.302614 
L 259.426461 169.834821 
L 259.560949 146.682306 
L 259.829925 173.57785 
L 259.964414 162.531535 
L 260.098902 177.794873 
L 260.502366 248.030785 
L 260.771343 262.607704 
L 260.905831 264.7449 
L 261.040319 269.615592 
L 261.174808 267.157517 
L 261.309296 273.60296 
L 261.443784 272.169442 
L 261.578272 275.147197 
L 261.847249 265.005535 
L 261.981737 239.860532 
L 262.250713 144.786621 
L 262.385201 165.020659 
L 262.51969 163.61338 
L 262.788666 143.794617 
L 262.923154 159.058216 
L 263.057643 154.226056 
L 263.730084 241.259119 
L 263.99906 257.273732 
L 264.133548 257.713683 
L 264.402525 271.87841 
L 264.537013 264.942226 
L 264.671501 266.952382 
L 265.074966 258.719007 
L 265.209454 243.701792 
L 265.747407 112.293904 
L 265.881895 111.878462 
L 266.150871 122.123183 
L 266.28536 119.577831 
L 266.419848 122.159675 
L 266.554336 137.500691 
L 267.092289 254.450878 
L 267.495754 259.484657 
L 267.630242 277.716508 
L 267.76473 270.942793 
L 267.899218 270.919853 
L 268.033706 266.024134 
L 268.302683 275.513989 
L 268.437171 274.830369 
L 268.571659 267.778913 
L 268.706147 273.729024 
L 268.840636 274.717258 
L 268.975124 270.526583 
L 269.109612 271.629032 
L 269.2441 271.791656 
L 269.378589 272.370261 
L 269.647565 266.773443 
L 269.782053 263.072155 
L 269.916541 263.87169 
L 270.05103 261.655142 
L 270.185518 264.103442 
L 270.320006 263.459669 
L 270.454494 263.741948 
L 270.588982 266.025649 
L 270.723471 270.74692 
L 270.857959 288.645438 
L 271.261424 275.379553 
L 271.395912 275.39888 
L 271.5304 274.664788 
L 271.933865 278.879766 
L 272.068353 276.033668 
L 272.202841 278.74816 
L 272.337329 278.356777 
L 272.471817 280.445653 
L 272.606306 279.363178 
L 272.740794 277.184472 
L 272.875282 281.875364 
L 273.144258 280.264684 
L 273.278747 276.909029 
L 273.547723 279.787518 
L 273.682211 279.673042 
L 273.8167 277.807068 
L 273.951188 282.526759 
L 274.085676 279.073869 
L 274.220164 294.319754 
L 274.489141 290.144828 
L 274.758117 273.221581 
L 274.892605 259.236892 
L 275.161582 188.866716 
L 275.430558 159.564191 
L 275.699535 156.424307 
L 275.834023 157.355038 
L 275.968511 179.46884 
L 276.102999 182.285283 
L 276.237487 195.171191 
L 276.640952 253.567805 
L 276.909928 271.29125 
L 277.044417 270.533629 
L 277.178905 283.051585 
L 277.313393 277.359727 
L 277.447881 287.389385 
L 277.58237 283.456392 
L 277.716858 287.528843 
L 277.851346 283.144613 
L 277.985834 273.968137 
L 278.120322 255.392224 
L 278.389299 194.498383 
L 278.523787 195.114736 
L 278.658275 179.571816 
L 278.792763 184.050711 
L 278.927252 175.630214 
L 279.06174 195.988319 
L 279.196228 188.956651 
L 279.330716 195.518832 
L 279.734181 242.696731 
L 280.003157 274.629781 
L 280.272134 275.927989 
L 280.406622 282.93776 
L 280.54111 267.315705 
L 280.675598 266.54442 
L 280.810087 267.10331 
L 280.944575 268.37026 
L 281.079063 264.923445 
L 281.213551 251.189961 
L 281.348039 251.391086 
L 281.751504 133.496025 
L 281.885992 124.173034 
L 282.289457 142.749742 
L 282.423945 120.302465 
L 282.692922 160.327293 
L 283.230874 265.561715 
L 283.365363 266.422214 
L 283.499851 264.490597 
L 283.634339 269.958999 
L 283.903316 263.168053 
L 284.037804 261.153306 
L 284.172292 262.226078 
L 284.30678 260.507825 
L 284.575757 249.354147 
L 284.979221 149.066286 
L 285.113709 154.278126 
L 285.382686 140.518336 
L 285.517174 138.299288 
L 285.78615 153.809419 
L 285.920639 162.775422 
L 286.458592 262.858269 
L 286.59308 262.928777 
L 286.727568 264.165985 
L 286.862056 266.916231 
L 286.996544 291.981141 
L 287.400009 275.736972 
L 287.803474 269.849462 
L 287.937962 273.296753 
L 288.07245 272.047147 
L 288.206938 273.359211 
L 288.341427 269.978605 
L 288.475915 272.878006 
L 288.610403 269.761445 
L 288.744891 272.105498 
L 288.879379 271.199371 
L 289.013868 277.368514 
L 289.148356 276.379554 
L 289.282844 272.339189 
L 289.417332 281.42164 
L 289.686309 281.131528 
L 289.955285 278.056109 
L 290.089773 282.673598 
L 290.224262 278.555219 
L 290.35875 279.994025 
L 290.493238 276.544118 
L 290.627726 277.747349 
L 290.762214 273.167491 
L 290.896703 262.434218 
L 291.031191 262.370294 
L 291.165679 242.350133 
L 291.300167 169.935053 
L 291.703632 192.779278 
L 291.83812 192.56631 
L 292.107096 179.676134 
L 292.645049 232.826385 
L 292.914026 272.474196 
L 293.048514 269.462982 
L 293.183002 271.177148 
L 293.31749 275.593381 
L 293.586467 270.415278 
L 293.720955 266.973153 
L 293.855443 270.544676 
L 293.989931 268.748276 
L 294.12442 255.249185 
L 294.258908 253.192845 
L 294.393396 224.560872 
L 294.527884 169.526171 
L 294.662373 174.58178 
L 294.796861 155.159506 
L 294.931349 156.334417 
L 295.065837 142.508943 
L 295.200325 145.627834 
L 295.334814 159.34194 
L 295.469302 153.922571 
L 295.738278 194.426062 
L 296.007255 243.736854 
L 296.141743 268.69607 
L 296.410719 259.316505 
L 296.545208 270.979753 
L 296.679696 293.864516 
L 297.08316 280.823978 
L 297.217649 281.88559 
L 297.352137 281.820125 
L 297.486625 282.228757 
L 297.621113 283.281662 
L 297.755601 282.699604 
L 297.89009 283.645477 
L 298.024578 281.427797 
L 298.159066 281.13401 
L 298.293554 282.77822 
L 298.428042 282.493857 
L 298.562531 281.546454 
L 298.697019 278.681515 
L 298.831507 279.293724 
L 298.965995 278.275751 
L 299.100484 278.664383 
L 299.234972 278.606667 
L 299.36946 280.452614 
L 299.503948 279.135172 
L 299.638436 276.693408 
L 299.772925 282.925415 
L 299.907413 264.959751 
L 300.041901 273.308735 
L 300.176389 270.280653 
L 300.310877 273.06197 
L 300.445366 269.571731 
L 300.714342 250.003689 
L 300.983319 162.772157 
L 301.386783 127.620379 
L 301.521271 132.013564 
L 301.65576 149.046449 
L 301.790248 137.364449 
L 301.924736 149.677353 
L 302.193712 200.03204 
L 302.328201 212.953061 
L 302.597177 258.856834 
L 302.731665 261.839416 
L 302.866153 258.606696 
L 303.000642 271.542573 
L 303.13513 273.649219 
L 303.404106 266.290646 
L 303.538595 268.595617 
L 303.673083 267.453396 
L 304.076547 199.376515 
L 304.211036 153.439473 
L 304.345524 161.565906 
L 304.480012 160.74961 
L 304.6145 157.30894 
L 304.748988 150.493034 
L 304.883477 162.983071 
L 305.017965 154.717284 
L 305.152453 165.32921 
L 305.42143 213.608632 
L 305.555918 218.819076 
L 305.824894 260.64243 
L 305.959382 268.289382 
L 306.093871 264.012237 
L 306.228359 273.173057 
L 306.362847 269.045841 
L 306.497335 281.039557 
L 306.9008 274.311723 
L 307.035288 265.180584 
L 307.169776 247.008888 
L 307.438753 145.238295 
L 307.707729 171.70363 
L 307.976706 151.09863 
L 308.111194 164.519521 
L 308.245682 159.556857 
L 308.38017 167.387755 
L 309.052611 268.270086 
L 309.187099 269.803019 
L 309.321588 268.55613 
L 309.456076 277.753125 
L 309.590564 276.410511 
L 309.725052 278.551773 
L 309.859541 276.400883 
L 309.994029 277.030042 
L 310.128517 274.955679 
L 310.263005 267.283605 
L 310.397493 243.38922 
L 310.66647 146.97708 
L 310.935446 170.669407 
L 311.069934 166.379083 
L 311.204423 152.3042 
L 311.473399 168.359055 
L 311.607887 164.529702 
L 311.742376 183.434329 
L 312.011352 229.988978 
L 312.280328 263.679528 
L 312.414817 265.915309 
L 312.549305 264.314114 
L 312.683793 272.510484 
L 312.818281 272.351262 
L 312.952769 273.655787 
L 313.087258 269.359846 
L 313.221746 271.215746 
L 313.356234 268.835262 
L 313.490722 271.592764 
L 313.894187 242.58933 
L 314.028675 256.825492 
L 314.163163 252.024597 
L 314.297652 258.058885 
L 314.43214 252.431866 
L 314.566628 263.529579 
L 314.835604 265.810612 
L 315.104581 272.436019 
L 315.239069 271.329843 
L 315.373557 271.311876 
L 315.508045 274.667966 
L 315.777022 272.091959 
L 315.91151 274.84234 
L 316.045998 274.882364 
L 316.180487 273.310115 
L 316.314975 273.491579 
L 316.449463 270.324149 
L 316.583951 271.201819 
L 316.718439 270.522833 
L 316.852928 272.515575 
L 316.987416 272.177588 
L 317.121904 270.641201 
L 317.256392 271.975675 
L 317.39088 270.881776 
L 317.525369 273.224173 
L 317.659857 271.230622 
L 317.794345 275.382272 
L 317.928833 272.290692 
L 318.063322 273.52747 
L 318.19781 272.648738 
L 318.332298 272.812695 
L 318.466786 270.882093 
L 318.601274 272.860874 
L 318.735763 270.965957 
L 318.870251 271.918348 
L 319.004739 269.393597 
L 319.139227 274.147224 
L 319.273715 272.000354 
L 319.408204 286.631222 
L 319.67718 279.928993 
L 319.946157 272.238139 
L 320.080645 257.362612 
L 320.349621 146.52928 
L 320.618598 127.410221 
L 320.887574 148.484143 
L 321.15655 160.841531 
L 321.425527 188.75831 
L 321.560015 196.439435 
L 321.96348 268.501127 
L 322.097968 268.24625 
L 322.232456 264.635176 
L 322.366944 273.949651 
L 322.501433 271.743217 
L 322.635921 285.540969 
L 323.039385 276.412775 
L 323.308362 262.117862 
L 323.577338 149.804198 
L 323.846315 175.665562 
L 324.115291 146.717537 
L 324.384268 161.948889 
L 324.518756 167.441719 
L 325.191197 266.421007 
L 325.460173 262.789472 
L 325.594661 272.491498 
L 325.72915 271.268805 
L 325.863638 281.676656 
L 326.132614 280.675691 
L 326.267103 277.459241 
L 326.401591 270.959641 
L 326.536079 255.685079 
L 326.805055 141.495895 
L 327.074032 175.627594 
L 327.343008 151.915255 
L 327.477496 168.301503 
L 327.746473 169.735507 
L 327.880961 182.628392 
L 328.149937 228.377347 
L 328.553402 264.561204 
L 328.68789 266.035621 
L 328.822379 277.763947 
L 328.956867 275.92225 
L 329.091355 287.577221 
L 329.360331 280.825086 
L 329.49482 276.325831 
L 329.763796 256.244971 
L 330.032772 157.688775 
L 330.301749 173.890924 
L 330.570725 156.020872 
L 330.705214 157.529593 
L 330.97419 189.702873 
L 331.108678 191.084536 
L 331.243166 198.738429 
L 331.646631 264.690023 
L 331.781119 264.784509 
L 331.915607 263.07967 
L 332.319072 286.040034 
L 332.722537 276.203976 
L 332.991513 255.161158 
L 333.26049 152.034414 
L 333.529466 180.559924 
L 333.798442 158.206557 
L 334.336395 194.153623 
L 334.470883 204.662603 
L 334.73986 261.104926 
L 334.874348 266.214066 
L 335.008836 266.53758 
L 335.143325 269.328389 
L 335.277813 279.873067 
L 335.546789 272.566027 
L 335.815766 269.484334 
L 336.084742 272.03881 
L 336.757183 250.009318 
L 336.891671 254.842296 
L 337.02616 254.127612 
L 337.295136 260.68957 
L 337.564112 266.826471 
L 337.833089 270.432278 
L 337.967577 269.880421 
L 338.102065 273.081163 
L 338.236553 272.377875 
L 338.371042 270.51424 
L 338.50553 273.584608 
L 338.640018 267.719341 
L 338.774506 268.351547 
L 339.043483 267.143033 
L 339.177971 267.420393 
L 339.581436 270.39507 
L 339.850412 268.40127 
L 339.9849 270.830204 
L 340.119388 270.711806 
L 340.253877 272.170009 
L 340.388365 272.301035 
L 340.522853 275.458716 
L 340.657341 272.914693 
L 340.791829 274.958114 
L 340.926318 274.765526 
L 341.060806 274.882201 
L 341.195294 270.641099 
L 341.329782 274.732956 
L 341.464271 273.891176 
L 341.598759 271.621362 
L 341.733247 276.407371 
L 341.867735 276.72638 
L 342.002223 287.101819 
L 342.2712 280.419623 
L 342.405688 279.640867 
L 342.674664 260.038851 
L 342.943641 148.926605 
L 343.078129 138.094297 
L 343.347106 173.974726 
L 343.481594 163.226287 
L 343.75057 181.240713 
L 344.019547 197.901705 
L 344.154035 202.146915 
L 344.423011 260.591983 
L 344.557499 263.871816 
L 344.691988 262.898147 
L 345.22994 284.463724 
L 345.364429 281.902279 
L 345.498917 281.517594 
L 345.633405 278.647406 
L 345.902382 258.856014 
L 346.171358 158.324569 
L 346.305846 177.353508 
L 346.440334 178.023824 
L 346.709311 164.249734 
L 346.978287 179.529206 
L 347.247264 189.275995 
L 347.785217 262.242831 
L 348.054193 266.912046 
L 348.188681 277.65307 
L 348.323169 273.709306 
L 348.457658 285.430592 
L 348.592146 281.121384 
L 348.726634 282.268689 
L 348.861122 278.407147 
L 349.130099 256.085219 
L 349.399075 157.933355 
L 349.533563 173.713121 
L 349.937028 158.727396 
L 350.609469 215.99935 
L 351.012934 261.508359 
L 351.147422 268.102987 
L 351.28191 267.525522 
L 351.416398 277.851242 
L 351.550886 276.095864 
L 351.685375 289.033806 
L 351.954351 280.168166 
L 352.223328 275.371902 
L 352.357816 261.022608 
L 352.626792 155.467388 
L 352.76128 179.214844 
L 353.030257 172.542332 
L 353.164745 159.249809 
L 353.299233 172.140943 
L 353.433721 174.092686 
L 353.702698 165.230278 
L 354.106163 256.030333 
L 354.240651 270.656717 
L 354.375139 270.984789 
L 354.509627 270.627629 
L 354.778604 280.07337 
L 354.913092 282.640065 
L 355.182068 279.926139 
L 355.316556 278.644961 
L 355.451045 273.524206 
L 355.585533 256.296624 
L 355.854509 182.910846 
L 355.988998 185.232411 
L 356.257974 153.932611 
L 356.392462 159.115355 
L 356.52695 171.303565 
L 356.661439 170.778848 
L 356.930415 189.473533 
L 357.199391 236.626926 
L 357.468368 275.235287 
L 357.602856 273.399427 
L 357.737344 274.342848 
L 358.006321 284.766062 
L 358.275297 279.062018 
L 358.409785 278.989814 
L 358.544274 278.153439 
L 358.81325 275.587027 
L 359.082226 256.267251 
L 359.216715 252.925654 
L 359.351203 254.752877 
L 359.485691 251.362438 
L 359.620179 245.130071 
L 359.754667 264.694623 
L 359.889156 264.714284 
L 360.023644 264.538991 
L 360.427109 280.569844 
L 360.561597 277.805456 
L 360.830573 279.37121 
L 360.965061 278.319258 
L 361.09955 283.692546 
L 361.368526 279.678735 
L 361.503014 277.899638 
L 361.637502 279.83768 
L 361.906479 277.797235 
L 362.040967 280.797935 
L 362.175455 280.663812 
L 362.444432 282.767229 
L 362.57892 279.964276 
L 362.713408 280.083033 
L 362.847896 281.368732 
L 363.116873 281.398659 
L 363.251361 279.677242 
L 363.520337 282.218452 
L 363.789314 279.547206 
L 363.923802 279.339791 
L 364.05829 277.972502 
L 364.192778 283.793205 
L 364.327267 239.663976 
L 364.596243 252.490455 
L 364.730731 257.101854 
L 364.86522 256.857866 
L 364.999708 251.941259 
L 365.268684 195.255421 
L 365.537661 119.095994 
L 365.672149 106.35999 
L 365.806637 109.252448 
L 365.941125 107.45922 
L 366.075613 111.524349 
L 366.210102 121.595643 
L 366.34459 122.309196 
L 366.479078 127.626021 
L 366.613566 155.103822 
L 366.882543 243.265704 
L 367.151519 259.121308 
L 367.420496 262.885674 
L 367.554984 269.159154 
L 367.689472 269.899405 
L 367.82396 268.141512 
L 368.092937 270.403658 
L 368.765378 92.494701 
L 368.899866 97.370623 
L 369.034354 103.729775 
L 369.168842 90.656732 
L 369.303331 89.773425 
L 369.437819 93.724736 
L 369.706795 112.143301 
L 369.975772 195.140285 
L 370.11026 242.203413 
L 370.244748 240.253683 
L 370.648213 267.258106 
L 370.782701 290.932011 
L 371.186166 277.313035 
L 371.320654 277.263445 
L 371.58963 251.430661 
L 371.858607 154.922466 
L 371.993095 159.933988 
L 372.262071 211.258483 
L 372.396559 193.421718 
L 372.665536 195.836059 
L 372.800024 196.255949 
L 372.934512 207.136516 
L 373.069001 233.479009 
L 373.203489 234.807675 
L 373.472465 261.872445 
L 373.606953 262.335363 
L 373.741442 265.146548 
L 374.144906 294.959293 
L 374.413883 286.835155 
L 374.548371 283.733144 
L 374.817347 257.219012 
L 375.086324 194.231441 
L 375.3553 174.694877 
L 375.489788 178.039747 
L 375.624277 177.860042 
L 375.758765 178.472243 
L 376.162229 201.083439 
L 376.565694 259.085082 
L 376.700182 266.829513 
L 376.83467 267.912309 
L 376.969159 266.931004 
L 377.103647 274.800419 
L 377.238135 289.343139 
L 377.372623 281.747768 
L 377.6416 279.090251 
L 377.776088 274.996329 
L 377.910576 281.931419 
L 378.045064 276.813328 
L 378.179553 276.92714 
L 378.314041 258.206619 
L 378.448529 265.999776 
L 378.583017 253.564436 
L 378.717505 263.620667 
L 378.851994 260.970591 
L 378.986482 272.350437 
L 379.12097 267.541023 
L 379.389947 274.132349 
L 379.524435 273.543616 
L 379.793411 279.481972 
L 379.927899 279.485671 
L 380.062388 281.068783 
L 380.196876 278.358293 
L 380.331364 282.971044 
L 380.465852 264.236419 
L 380.734829 269.51387 
L 380.869317 272.400196 
L 381.003805 269.84021 
L 381.138293 250.269122 
L 381.272782 251.836722 
L 381.541758 145.256565 
L 381.676246 143.260243 
L 381.810734 144.981459 
L 381.945223 141.105217 
L 382.079711 140.731022 
L 382.348687 150.474773 
L 382.483175 144.749097 
L 383.155616 269.352728 
L 383.290105 271.698173 
L 383.424593 268.755757 
L 383.559081 272.864991 
L 383.693569 262.0613 
L 383.962546 259.353669 
L 384.097034 259.389647 
L 384.231522 259.916551 
L 384.36601 254.860853 
L 384.500499 257.795673 
L 384.769475 163.292752 
L 384.903963 155.389963 
L 385.038451 159.96812 
L 385.17294 145.223517 
L 385.307428 148.374991 
L 385.441916 170.698878 
L 385.576404 165.48951 
L 385.710893 166.111834 
L 385.979869 210.235352 
L 386.383334 271.629731 
L 386.517822 269.24479 
L 386.786798 276.87144 
L 386.921286 286.271206 
L 387.190263 278.333363 
L 387.324751 278.183919 
L 387.459239 276.143094 
L 387.593727 276.212683 
L 387.728216 278.70386 
L 387.862704 277.023331 
L 387.997192 280.326948 
L 388.13168 277.618801 
L 388.266169 282.634154 
L 388.535145 278.553807 
L 388.669633 280.868733 
L 388.804121 280.826799 
L 388.93861 283.947287 
L 389.073098 279.201695 
L 389.476562 287.671879 
L 389.611051 288.949843 
L 389.745539 284.741307 
L 389.880027 284.542995 
L 390.014515 287.167205 
L 390.149004 262.342815 
L 390.283492 267.043819 
L 390.41798 267.56482 
L 390.552468 269.771844 
L 390.686956 266.758682 
L 390.821445 255.017302 
L 390.955933 258.602986 
L 391.090421 241.404032 
L 391.224909 173.846288 
L 391.359397 185.567291 
L 391.493886 154.11061 
L 391.89735 180.661799 
L 392.166327 170.99839 
L 392.435303 203.607587 
L 392.838768 278.519798 
L 393.107744 273.923938 
L 393.242232 275.882761 
L 393.376721 265.178895 
L 393.511209 263.623516 
L 393.645697 271.087934 
L 393.780185 271.284146 
L 393.914673 262.042865 
L 394.049162 264.291369 
L 394.18365 248.775099 
L 394.587115 158.396034 
L 394.721603 155.613648 
L 394.856091 145.079898 
L 394.990579 144.959398 
L 395.259556 150.077922 
L 396.200973 264.277172 
L 396.46995 261.833669 
L 396.604438 294.476048 
L 396.873414 285.649502 
L 397.007902 280.5445 
L 397.142391 283.261906 
L 397.411367 258.541945 
L 397.680343 174.042577 
L 397.814832 183.441662 
L 398.218296 152.721894 
L 398.352785 171.412359 
L 398.487273 168.322672 
L 398.487273 168.322672 
" clip-path="url(#p7581724b12)" style="fill: none; stroke: #ff7f0e; stroke-width: 1.5; stroke-linecap: square"/>
   </g>
   <g id="patch_3">
    <path d="M 57.6 307.584 
L 57.6 41.472 
" style="fill: none; stroke: #000000; stroke-width: 0.8; stroke-linejoin: miter; stroke-linecap: square"/>
   </g>
   <g id="patch_4">
    <path d="M 414.72 307.584 
L 414.72 41.472 
" style="fill: none; stroke: #000000; stroke-width: 0.8; stroke-linejoin: miter; stroke-linecap: square"/>
   </g>
   <g id="patch_5">
    <path d="M 57.6 307.584 
L 414.72 307.584 
" style="fill: none; stroke: #000000; stroke-width: 0.8; stroke-linejoin: miter; stroke-linecap: square"/>
   </g>
   <g id="patch_6">
    <path d="M 57.6 41.472 
L 414.72 41.472 
" style="fill: none; stroke: #000000; stroke-width: 0.8; stroke-linejoin: miter; stroke-linecap: square"/>
   </g>
  </g>
 </g>
 <defs>
  <clipPath id="p7581724b12">
   <rect x="57.6" y="41.472" width="357.12" height="266.112"/>
  </clipPath>
 </defs>
</svg>
