<?xml version="1.0" encoding="utf-8" standalone="no"?>
<!DOCTYPE svg PUBLIC "-//W3C//DTD SVG 1.1//EN"
  "http://www.w3.org/Graphics/SVG/1.1/DTD/svg11.dtd">
<svg xmlns:xlink="http://www.w3.org/1999/xlink" width="460.8pt" height="345.6pt" viewBox="0 0 460.8 345.6" xmlns="http://www.w3.org/2000/svg" version="1.1">
 <metadata>
  <rdf:RDF xmlns:dc="http://purl.org/dc/elements/1.1/" xmlns:cc="http://creativecommons.org/ns#" xmlns:rdf="http://www.w3.org/1999/02/22-rdf-syntax-ns#">
   <cc:Work>
    <dc:type rdf:resource="http://purl.org/dc/dcmitype/StillImage"/>
    <dc:date>2023-04-04T05:23:02.435484</dc:date>
    <dc:format>image/svg+xml</dc:format>
    <dc:creator>
     <cc:Agent>
      <dc:title>Matplotlib v3.5.2, https://matplotlib.org/</dc:title>
     </cc:Agent>
    </dc:creator>
   </cc:Work>
  </rdf:RDF>
 </metadata>
 <defs>
  <style type="text/css">*{stroke-linejoin: round; stroke-linecap: butt}</style>
 </defs>
 <g id="figure_1">
  <g id="patch_1">
   <path d="M 0 345.6 
L 460.8 345.6 
L 460.8 0 
L 0 0 
z
" style="fill: #ffffff"/>
  </g>
  <g id="axes_1">
   <g id="patch_2">
    <path d="M 57.6 307.584 
L 414.72 307.584 
L 414.72 41.472 
L 57.6 41.472 
z
" style="fill: #ffffff"/>
   </g>
   <g id="matplotlib.axis_1">
    <g id="xtick_1">
     <g id="line2d_1">
      <defs>
       <path id="m9dd94bf5e4" d="M 0 0 
L 0 3.5 
" style="stroke: #000000; stroke-width: 0.8"/>
      </defs>
      <g>
       <use xlink:href="#m9dd94bf5e4" x="73.832727" y="307.584" style="stroke: #000000; stroke-width: 0.8"/>
      </g>
     </g>
     <g id="text_1">
      <!-- 0 -->
      <g transform="translate(70.651477 322.182437)scale(0.1 -0.1)">
       <defs>
        <path id="DejaVuSans-30" d="M 2034 4250 
Q 1547 4250 1301 3770 
Q 1056 3291 1056 2328 
Q 1056 1369 1301 889 
Q 1547 409 2034 409 
Q 2525 409 2770 889 
Q 3016 1369 3016 2328 
Q 3016 3291 2770 3770 
Q 2525 4250 2034 4250 
z
M 2034 4750 
Q 2819 4750 3233 4129 
Q 3647 3509 3647 2328 
Q 3647 1150 3233 529 
Q 2819 -91 2034 -91 
Q 1250 -91 836 529 
Q 422 1150 422 2328 
Q 422 3509 836 4129 
Q 1250 4750 2034 4750 
z
" transform="scale(0.015625)"/>
       </defs>
       <use xlink:href="#DejaVuSans-30"/>
      </g>
     </g>
    </g>
    <g id="xtick_2">
     <g id="line2d_2">
      <g>
       <use xlink:href="#m9dd94bf5e4" x="141.076834" y="307.584" style="stroke: #000000; stroke-width: 0.8"/>
      </g>
     </g>
     <g id="text_2">
      <!-- 500 -->
      <g transform="translate(131.533084 322.182437)scale(0.1 -0.1)">
       <defs>
        <path id="DejaVuSans-35" d="M 691 4666 
L 3169 4666 
L 3169 4134 
L 1269 4134 
L 1269 2991 
Q 1406 3038 1543 3061 
Q 1681 3084 1819 3084 
Q 2600 3084 3056 2656 
Q 3513 2228 3513 1497 
Q 3513 744 3044 326 
Q 2575 -91 1722 -91 
Q 1428 -91 1123 -41 
Q 819 9 494 109 
L 494 744 
Q 775 591 1075 516 
Q 1375 441 1709 441 
Q 2250 441 2565 725 
Q 2881 1009 2881 1497 
Q 2881 1984 2565 2268 
Q 2250 2553 1709 2553 
Q 1456 2553 1204 2497 
Q 953 2441 691 2322 
L 691 4666 
z
" transform="scale(0.015625)"/>
       </defs>
       <use xlink:href="#DejaVuSans-35"/>
       <use xlink:href="#DejaVuSans-30" x="63.623047"/>
       <use xlink:href="#DejaVuSans-30" x="127.246094"/>
      </g>
     </g>
    </g>
    <g id="xtick_3">
     <g id="line2d_3">
      <g>
       <use xlink:href="#m9dd94bf5e4" x="208.32094" y="307.584" style="stroke: #000000; stroke-width: 0.8"/>
      </g>
     </g>
     <g id="text_3">
      <!-- 1000 -->
      <g transform="translate(195.59594 322.182437)scale(0.1 -0.1)">
       <defs>
        <path id="DejaVuSans-31" d="M 794 531 
L 1825 531 
L 1825 4091 
L 703 3866 
L 703 4441 
L 1819 4666 
L 2450 4666 
L 2450 531 
L 3481 531 
L 3481 0 
L 794 0 
L 794 531 
z
" transform="scale(0.015625)"/>
       </defs>
       <use xlink:href="#DejaVuSans-31"/>
       <use xlink:href="#DejaVuSans-30" x="63.623047"/>
       <use xlink:href="#DejaVuSans-30" x="127.246094"/>
       <use xlink:href="#DejaVuSans-30" x="190.869141"/>
      </g>
     </g>
    </g>
    <g id="xtick_4">
     <g id="line2d_4">
      <g>
       <use xlink:href="#m9dd94bf5e4" x="275.565046" y="307.584" style="stroke: #000000; stroke-width: 0.8"/>
      </g>
     </g>
     <g id="text_4">
      <!-- 1500 -->
      <g transform="translate(262.840046 322.182437)scale(0.1 -0.1)">
       <use xlink:href="#DejaVuSans-31"/>
       <use xlink:href="#DejaVuSans-35" x="63.623047"/>
       <use xlink:href="#DejaVuSans-30" x="127.246094"/>
       <use xlink:href="#DejaVuSans-30" x="190.869141"/>
      </g>
     </g>
    </g>
    <g id="xtick_5">
     <g id="line2d_5">
      <g>
       <use xlink:href="#m9dd94bf5e4" x="342.809153" y="307.584" style="stroke: #000000; stroke-width: 0.8"/>
      </g>
     </g>
     <g id="text_5">
      <!-- 2000 -->
      <g transform="translate(330.084153 322.182437)scale(0.1 -0.1)">
       <defs>
        <path id="DejaVuSans-32" d="M 1228 531 
L 3431 531 
L 3431 0 
L 469 0 
L 469 531 
Q 828 903 1448 1529 
Q 2069 2156 2228 2338 
Q 2531 2678 2651 2914 
Q 2772 3150 2772 3378 
Q 2772 3750 2511 3984 
Q 2250 4219 1831 4219 
Q 1534 4219 1204 4116 
Q 875 4013 500 3803 
L 500 4441 
Q 881 4594 1212 4672 
Q 1544 4750 1819 4750 
Q 2544 4750 2975 4387 
Q 3406 4025 3406 3419 
Q 3406 3131 3298 2873 
Q 3191 2616 2906 2266 
Q 2828 2175 2409 1742 
Q 1991 1309 1228 531 
z
" transform="scale(0.015625)"/>
       </defs>
       <use xlink:href="#DejaVuSans-32"/>
       <use xlink:href="#DejaVuSans-30" x="63.623047"/>
       <use xlink:href="#DejaVuSans-30" x="127.246094"/>
       <use xlink:href="#DejaVuSans-30" x="190.869141"/>
      </g>
     </g>
    </g>
    <g id="xtick_6">
     <g id="line2d_6">
      <g>
       <use xlink:href="#m9dd94bf5e4" x="410.053259" y="307.584" style="stroke: #000000; stroke-width: 0.8"/>
      </g>
     </g>
     <g id="text_6">
      <!-- 2500 -->
      <g transform="translate(397.328259 322.182437)scale(0.1 -0.1)">
       <use xlink:href="#DejaVuSans-32"/>
       <use xlink:href="#DejaVuSans-35" x="63.623047"/>
       <use xlink:href="#DejaVuSans-30" x="127.246094"/>
       <use xlink:href="#DejaVuSans-30" x="190.869141"/>
      </g>
     </g>
    </g>
   </g>
   <g id="matplotlib.axis_2">
    <g id="ytick_1">
     <g id="line2d_7">
      <defs>
       <path id="m85e511f1c8" d="M 0 0 
L -3.5 0 
" style="stroke: #000000; stroke-width: 0.8"/>
      </defs>
      <g>
       <use xlink:href="#m85e511f1c8" x="57.6" y="280.022409" style="stroke: #000000; stroke-width: 0.8"/>
      </g>
     </g>
     <g id="text_7">
      <!-- 100 -->
      <g transform="translate(31.5125 283.821627)scale(0.1 -0.1)">
       <use xlink:href="#DejaVuSans-31"/>
       <use xlink:href="#DejaVuSans-30" x="63.623047"/>
       <use xlink:href="#DejaVuSans-30" x="127.246094"/>
      </g>
     </g>
    </g>
    <g id="ytick_2">
     <g id="line2d_8">
      <g>
       <use xlink:href="#m85e511f1c8" x="57.6" y="232.305504" style="stroke: #000000; stroke-width: 0.8"/>
      </g>
     </g>
     <g id="text_8">
      <!-- 200 -->
      <g transform="translate(31.5125 236.104723)scale(0.1 -0.1)">
       <use xlink:href="#DejaVuSans-32"/>
       <use xlink:href="#DejaVuSans-30" x="63.623047"/>
       <use xlink:href="#DejaVuSans-30" x="127.246094"/>
      </g>
     </g>
    </g>
    <g id="ytick_3">
     <g id="line2d_9">
      <g>
       <use xlink:href="#m85e511f1c8" x="57.6" y="184.5886" style="stroke: #000000; stroke-width: 0.8"/>
      </g>
     </g>
     <g id="text_9">
      <!-- 300 -->
      <g transform="translate(31.5125 188.387818)scale(0.1 -0.1)">
       <defs>
        <path id="DejaVuSans-33" d="M 2597 2516 
Q 3050 2419 3304 2112 
Q 3559 1806 3559 1356 
Q 3559 666 3084 287 
Q 2609 -91 1734 -91 
Q 1441 -91 1130 -33 
Q 819 25 488 141 
L 488 750 
Q 750 597 1062 519 
Q 1375 441 1716 441 
Q 2309 441 2620 675 
Q 2931 909 2931 1356 
Q 2931 1769 2642 2001 
Q 2353 2234 1838 2234 
L 1294 2234 
L 1294 2753 
L 1863 2753 
Q 2328 2753 2575 2939 
Q 2822 3125 2822 3475 
Q 2822 3834 2567 4026 
Q 2313 4219 1838 4219 
Q 1578 4219 1281 4162 
Q 984 4106 628 3988 
L 628 4550 
Q 988 4650 1302 4700 
Q 1616 4750 1894 4750 
Q 2613 4750 3031 4423 
Q 3450 4097 3450 3541 
Q 3450 3153 3228 2886 
Q 3006 2619 2597 2516 
z
" transform="scale(0.015625)"/>
       </defs>
       <use xlink:href="#DejaVuSans-33"/>
       <use xlink:href="#DejaVuSans-30" x="63.623047"/>
       <use xlink:href="#DejaVuSans-30" x="127.246094"/>
      </g>
     </g>
    </g>
    <g id="ytick_4">
     <g id="line2d_10">
      <g>
       <use xlink:href="#m85e511f1c8" x="57.6" y="136.871695" style="stroke: #000000; stroke-width: 0.8"/>
      </g>
     </g>
     <g id="text_10">
      <!-- 400 -->
      <g transform="translate(31.5125 140.670914)scale(0.1 -0.1)">
       <defs>
        <path id="DejaVuSans-34" d="M 2419 4116 
L 825 1625 
L 2419 1625 
L 2419 4116 
z
M 2253 4666 
L 3047 4666 
L 3047 1625 
L 3713 1625 
L 3713 1100 
L 3047 1100 
L 3047 0 
L 2419 0 
L 2419 1100 
L 313 1100 
L 313 1709 
L 2253 4666 
z
" transform="scale(0.015625)"/>
       </defs>
       <use xlink:href="#DejaVuSans-34"/>
       <use xlink:href="#DejaVuSans-30" x="63.623047"/>
       <use xlink:href="#DejaVuSans-30" x="127.246094"/>
      </g>
     </g>
    </g>
    <g id="ytick_5">
     <g id="line2d_11">
      <g>
       <use xlink:href="#m85e511f1c8" x="57.6" y="89.15479" style="stroke: #000000; stroke-width: 0.8"/>
      </g>
     </g>
     <g id="text_11">
      <!-- 500 -->
      <g transform="translate(31.5125 92.954009)scale(0.1 -0.1)">
       <use xlink:href="#DejaVuSans-35"/>
       <use xlink:href="#DejaVuSans-30" x="63.623047"/>
       <use xlink:href="#DejaVuSans-30" x="127.246094"/>
      </g>
     </g>
    </g>
   </g>
   <g id="line2d_12">
    <path d="M 73.832727 283.087743 
L 74.101704 282.539475 
L 74.236192 281.431012 
L 74.37068 282.392985 
L 74.505168 281.9015 
L 74.639657 282.502256 
L 74.774145 276.043296 
L 74.908633 248.981131 
L 75.177609 247.490932 
L 75.312098 248.045402 
L 75.446586 248.097891 
L 75.581074 248.962998 
L 75.715562 248.208117 
L 75.85005 248.186167 
L 76.253515 243.210248 
L 76.522492 277.203294 
L 76.65698 277.51584 
L 76.925956 275.812346 
L 77.060444 266.973267 
L 77.194933 269.212621 
L 77.463909 269.276085 
L 77.598397 270.857423 
L 77.732885 265.541283 
L 77.867374 252.159554 
L 78.405327 104.012403 
L 78.674303 103.092421 
L 78.808791 110.217032 
L 78.943279 105.423392 
L 79.481232 158.021736 
L 79.750209 228.264359 
L 80.019185 262.920193 
L 80.153673 265.040255 
L 80.288161 261.212882 
L 80.42265 271.588923 
L 80.557138 271.155176 
L 80.826114 273.657928 
L 80.960603 271.122729 
L 81.095091 260.828761 
L 81.364067 168.189731 
L 81.498555 180.466813 
L 81.767532 161.099476 
L 82.036508 169.086809 
L 82.170996 165.99189 
L 82.305485 160.028709 
L 83.112414 260.351592 
L 83.650367 286.484709 
L 83.784855 286.505227 
L 83.919343 288.030737 
L 84.053831 288.222559 
L 84.18832 286.129695 
L 84.322808 278.919194 
L 84.726273 188.961854 
L 84.860761 180.313642 
L 84.995249 184.402026 
L 85.129737 169.549186 
L 85.264225 178.074288 
L 85.398714 178.820103 
L 85.66769 187.09994 
L 85.802178 195.852652 
L 86.340131 262.473086 
L 86.474619 264.481967 
L 86.609107 269.382493 
L 86.878084 286.865967 
L 87.012572 289.112479 
L 87.14706 288.786573 
L 87.281549 290.274386 
L 87.416037 290.17752 
L 87.550525 289.367764 
L 87.819501 261.918615 
L 87.95399 262.064152 
L 88.088478 256.38918 
L 88.222966 257.845977 
L 88.357454 257.089664 
L 88.491942 253.738029 
L 88.626431 256.567164 
L 88.760919 249.587135 
L 88.895407 252.458739 
L 89.029895 252.457307 
L 89.164384 255.013025 
L 89.43336 276.271383 
L 89.567848 277.931454 
L 89.702336 277.434244 
L 89.836825 278.492128 
L 89.971313 263.373026 
L 90.105801 264.084963 
L 90.240289 265.626219 
L 90.374777 265.396223 
L 90.509266 266.629705 
L 90.643754 266.801009 
L 90.778242 268.896258 
L 90.91273 265.679662 
L 91.047218 255.760749 
L 91.181707 254.592162 
L 91.316195 247.674642 
L 91.450683 252.100385 
L 91.585171 250.138266 
L 91.71966 251.633713 
L 91.854148 251.859414 
L 92.123124 254.836472 
L 92.257612 254.264824 
L 92.526589 259.849133 
L 92.795565 266.433589 
L 92.930053 267.386972 
L 93.064542 266.248447 
L 93.19903 276.248002 
L 93.468006 276.372543 
L 93.602495 277.431381 
L 93.736983 276.19933 
L 93.871471 273.680355 
L 94.005959 268.469669 
L 94.6784 161.386255 
L 94.812888 156.995345 
L 95.081865 168.838204 
L 95.216353 163.628949 
L 95.350841 152.378257 
L 96.023282 264.808351 
L 96.157771 265.536988 
L 96.426747 269.459318 
L 96.561235 269.126254 
L 96.695723 269.203555 
L 96.830212 271.084078 
L 96.9647 270.447057 
L 97.099188 269.021276 
L 97.233676 260.563455 
L 97.368164 243.020812 
L 97.502653 202.045829 
L 97.637141 194.95796 
L 97.771629 179.502932 
L 97.906117 187.889178 
L 98.040606 181.183521 
L 98.175094 181.892594 
L 98.309582 176.579317 
L 98.44407 178.219824 
L 98.713047 189.576448 
L 98.982023 231.476661 
L 99.250999 266.288529 
L 99.385488 270.970035 
L 99.519976 271.723485 
L 99.654464 281.518334 
L 99.788952 281.53074 
L 99.923441 280.530594 
L 100.192417 281.767416 
L 100.326905 281.848057 
L 100.461393 281.193859 
L 100.595882 281.599452 
L 100.73037 282.427341 
L 100.864858 280.890379 
L 100.999346 282.045128 
L 101.133834 281.13803 
L 101.268323 278.92492 
L 101.402811 271.906718 
L 101.537299 276.174518 
L 101.806276 265.798954 
L 101.940764 267.957667 
L 102.075252 267.809267 
L 102.20974 268.456785 
L 102.344228 270.833087 
L 102.478717 276.645483 
L 102.613205 274.795022 
L 102.747693 280.459496 
L 102.882181 267.015258 
L 103.016669 267.043888 
L 103.151158 271.945368 
L 103.285646 271.726348 
L 103.554622 267.549687 
L 103.68911 263.365392 
L 103.823599 245.956833 
L 104.092575 183.750213 
L 104.227063 162.288104 
L 104.361552 169.44564 
L 104.630528 144.59563 
L 105.033993 159.897964 
L 105.168481 170.667193 
L 105.706434 253.649276 
L 105.840922 253.52712 
L 105.97541 262.217323 
L 106.109898 278.63337 
L 106.378875 281.819427 
L 106.513363 281.805589 
L 106.647851 283.960485 
L 106.782339 283.692316 
L 106.916828 284.802688 
L 107.320292 247.268094 
L 107.45478 254.324947 
L 107.589269 251.793565 
L 107.723757 251.886136 
L 108.26171 246.828144 
L 108.396198 243.424497 
L 108.530686 245.681984 
L 108.934151 277.260554 
L 109.068639 278.774134 
L 109.203127 277.708139 
L 109.337615 273.217024 
L 109.606592 274.764006 
L 109.875568 275.815209 
L 110.144545 276.863072 
L 110.413521 275.626727 
L 110.548009 275.492166 
L 110.951474 271.447204 
L 111.085962 272.619131 
L 111.22045 272.272229 
L 111.623915 266.484169 
L 111.758403 266.991399 
L 112.02738 270.767715 
L 112.430844 272.362891 
L 112.565333 262.136681 
L 112.834309 266.330043 
L 112.968797 266.852543 
L 113.103285 268.358966 
L 113.237774 268.53695 
L 113.50675 271.148973 
L 113.641238 271.977339 
L 114.313679 260.768161 
L 114.448168 260.407898 
L 114.582656 258.929151 
L 114.98612 248.123658 
L 115.524073 259.159624 
L 115.658561 259.708368 
L 115.927538 261.928636 
L 116.062026 260.647914 
L 116.196514 266.729911 
L 116.331002 266.313819 
L 116.465491 266.923164 
L 116.599979 257.19321 
L 117.137932 79.052644 
L 117.406908 64.395443 
L 117.810373 80.884496 
L 118.213837 147.880462 
L 118.482814 210.029822 
L 118.75179 244.357363 
L 118.886279 245.886689 
L 119.289743 253.856367 
L 119.424231 255.270219 
L 119.55872 258.033028 
L 119.693208 258.348913 
L 119.827696 248.76211 
L 120.365649 91.871314 
L 120.634625 73.360972 
L 120.769114 77.041377 
L 120.903602 70.641108 
L 121.03809 71.965253 
L 121.441555 135.206375 
L 121.710531 201.837306 
L 121.845019 229.93302 
L 122.248484 240.864962 
L 122.51746 256.334306 
L 122.651948 256.493203 
L 122.786437 258.226758 
L 122.920925 256.890208 
L 123.055413 248.753998 
L 123.727854 60.450686 
L 123.862342 53.568 
L 124.534783 107.537728 
L 125.072736 248.057331 
L 125.207225 253.212666 
L 125.341713 253.674565 
L 125.476201 253.62828 
L 125.745177 267.187039 
L 125.879666 268.6195 
L 126.014154 268.848541 
L 126.28313 255.437705 
L 126.821083 92.973574 
L 126.955571 74.677481 
L 127.09006 81.255734 
L 127.359036 105.719714 
L 127.493524 108.155185 
L 127.762501 126.596814 
L 127.896989 149.331056 
L 128.300453 246.4445 
L 128.434942 252.22922 
L 128.56943 250.407389 
L 128.703918 257.886059 
L 128.838406 258.608016 
L 129.241871 265.281225 
L 129.510847 244.632212 
L 130.0488 83.423036 
L 130.183288 74.341554 
L 130.317777 86.224495 
L 130.452265 114.962478 
L 130.586753 114.046791 
L 130.721241 110.410285 
L 130.855729 116.781447 
L 131.124706 169.896087 
L 131.393682 235.346025 
L 131.662659 258.378498 
L 131.931635 258.182859 
L 132.066123 258.001057 
L 132.3351 269.239343 
L 132.469588 269.09142 
L 132.604076 269.190194 
L 132.738564 269.14868 
L 133.007541 257.292938 
L 133.276517 246.864409 
L 133.679982 241.303004 
L 133.81447 240.124396 
L 133.948958 235.040637 
L 134.486911 244.887975 
L 134.755888 251.953417 
L 134.890376 251.838896 
L 135.697305 266.038493 
L 135.831793 270.774395 
L 135.966282 271.381832 
L 136.10077 269.405397 
L 136.235258 270.904185 
L 136.369746 270.630768 
L 136.504234 266.344358 
L 136.638723 266.185938 
L 136.907699 264.257221 
L 137.311164 253.407828 
L 137.445652 253.916013 
L 137.58014 251.241958 
L 137.983605 258.033982 
L 138.118093 257.134995 
L 138.252581 258.963984 
L 138.387069 263.441739 
L 138.521558 262.212551 
L 138.656046 262.412962 
L 138.925022 267.093513 
L 139.193999 250.900782 
L 139.731951 81.57496 
L 139.86644 72.685778 
L 140.269904 98.614667 
L 140.538881 122.966035 
L 140.673369 130.034817 
L 140.807857 144.350365 
L 141.076834 224.211286 
L 141.480298 257.29771 
L 142.018251 265.7102 
L 142.152739 265.247824 
L 142.421716 241.585011 
L 142.959669 91.542544 
L 143.094157 84.149287 
L 143.228645 83.663052 
L 143.363133 93.857291 
L 143.497621 84.611664 
L 143.63211 89.722621 
L 144.573527 258.54169 
L 144.708015 262.020729 
L 144.842504 262.19585 
L 145.11148 264.431387 
L 145.245968 266.56815 
L 145.380456 262.50267 
L 145.783921 201.521897 
L 146.052897 110.108237 
L 146.187386 91.045334 
L 146.456362 106.312358 
L 146.59085 117.600269 
L 146.725339 111.926729 
L 146.859827 119.318554 
L 146.994315 114.256268 
L 147.128803 127.0778 
L 147.532268 234.03381 
L 147.801244 259.975106 
L 147.935732 260.176948 
L 148.204709 265.434397 
L 148.339197 265.412924 
L 148.473685 265.915383 
L 148.742662 264.864657 
L 148.87715 247.221331 
L 149.280615 119.183038 
L 149.415103 115.152869 
L 149.549591 106.090474 
L 149.684079 107.34352 
L 150.087544 139.985223 
L 150.222032 132.309004 
L 150.35652 137.817444 
L 150.894473 252.411499 
L 151.028961 261.564556 
L 151.16345 260.608786 
L 151.835891 268.767422 
L 151.970379 267.497676 
L 152.104867 246.590991 
L 152.508332 113.185501 
L 152.64282 116.288054 
L 152.911796 104.458556 
L 153.046285 118.57942 
L 153.180773 117.081586 
L 153.449749 151.485474 
L 153.718726 192.350231 
L 153.987702 248.861361 
L 154.12219 265.878164 
L 154.256678 267.254319 
L 154.525655 271.108891 
L 154.794631 272.809521 
L 155.063608 275.748406 
L 155.198096 277.387004 
L 155.332584 276.744735 
L 155.467072 272.372435 
L 155.601561 261.917184 
L 155.736049 261.057802 
L 155.870537 258.198128 
L 156.005025 260.332982 
L 156.274002 258.439576 
L 156.40849 258.974959 
L 156.542978 260.226097 
L 156.677466 259.031742 
L 157.215419 267.025278 
L 157.349907 269.02748 
L 157.484396 268.037354 
L 157.618884 268.806073 
L 157.88786 271.975907 
L 158.022348 272.455939 
L 158.291325 275.449221 
L 158.560301 279.722269 
L 158.694789 278.159064 
L 158.829278 279.121514 
L 158.963766 278.72594 
L 159.232742 276.017052 
L 159.367231 276.298581 
L 159.501719 274.318807 
L 160.039672 260.262839 
L 160.308648 260.521464 
L 160.443136 266.22936 
L 160.577624 265.946399 
L 160.712113 263.994778 
L 160.846601 264.695262 
L 160.981089 266.184506 
L 161.250066 269.934101 
L 161.519042 270.883667 
L 161.788018 254.152212 
L 162.460459 83.848193 
L 162.594948 83.512266 
L 162.729436 82.055946 
L 162.998412 101.608902 
L 163.132901 110.536735 
L 163.401877 151.723104 
L 163.670853 222.31597 
L 164.074318 256.339555 
L 164.208806 257.470445 
L 164.477783 270.10111 
L 164.612271 272.457848 
L 164.746759 267.76489 
L 165.015735 250.290005 
L 165.4192 120.79253 
L 165.553688 123.38642 
L 165.822665 109.52132 
L 165.957153 114.766362 
L 166.091641 111.687667 
L 166.360618 100.256605 
L 166.495106 106.437853 
L 166.89857 221.418415 
L 167.033059 228.376017 
L 167.302035 246.728416 
L 167.974476 265.155253 
L 168.108964 259.493165 
L 168.243453 245.509726 
L 168.377941 207.510846 
L 168.646917 106.264164 
L 168.781405 107.544408 
L 168.915894 103.028003 
L 169.050382 104.325426 
L 169.18487 108.113194 
L 169.319358 92.817063 
L 169.453847 95.29023 
L 169.857311 148.556133 
L 170.126288 226.592836 
L 170.395264 257.34495 
L 170.529752 258.222941 
L 170.66424 261.652832 
L 170.798729 261.841791 
L 171.067705 264.164173 
L 171.202193 266.992831 
L 171.47117 245.250146 
L 172.009123 110.318192 
L 172.143611 108.744965 
L 172.412587 97.011856 
L 172.95054 129.44599 
L 173.622981 259.310409 
L 173.757469 263.29143 
L 173.891958 276.644052 
L 174.026446 275.716912 
L 174.160934 275.673013 
L 174.42991 277.200908 
L 174.698887 262.440161 
L 174.833375 245.351306 
L 175.102351 176.969641 
L 175.371328 143.663719 
L 175.505816 140.769689 
L 175.640304 150.915734 
L 175.774792 150.606052 
L 175.909281 152.012269 
L 176.043769 156.809726 
L 176.178257 156.502429 
L 176.312745 170.948245 
L 176.581722 238.480549 
L 176.850698 265.555598 
L 176.985186 263.066207 
L 177.254163 267.792089 
L 177.388651 267.748667 
L 177.792116 274.295426 
L 177.926604 275.184392 
L 178.19558 264.487693 
L 178.330069 264.048221 
L 178.599045 256.494635 
L 178.733533 255.930144 
L 178.868021 258.234393 
L 179.136998 254.730063 
L 179.271486 255.325093 
L 179.540462 252.843337 
L 179.809439 260.337754 
L 179.943927 267.596927 
L 180.212904 265.698271 
L 180.48188 275.550858 
L 180.616368 275.564695 
L 180.750856 275.93641 
L 180.885345 276.766684 
L 181.019833 276.853052 
L 181.692274 264.560223 
L 181.826762 265.854305 
L 181.96125 259.878717 
L 182.095738 261.658558 
L 182.364715 267.089696 
L 182.499203 268.366123 
L 182.633691 271.509713 
L 182.902668 270.6928 
L 183.171644 276.815833 
L 183.306132 278.230162 
L 183.440621 277.121698 
L 183.575109 274.822698 
L 183.844085 286.541015 
L 183.978573 287.491059 
L 184.113062 285.214962 
L 184.382038 273.84307 
L 184.919991 182.22709 
L 185.054479 186.237696 
L 185.188967 179.173685 
L 185.457944 183.029211 
L 185.592432 184.526568 
L 185.995897 222.235329 
L 186.264873 252.795143 
L 186.53385 268.532655 
L 186.802826 278.774134 
L 187.071802 289.258493 
L 187.206291 288.10947 
L 187.340779 289.242269 
L 187.475267 286.068618 
L 187.609755 278.079854 
L 188.01322 202.261987 
L 188.147708 185.882205 
L 188.282196 186.100748 
L 188.416684 185.143547 
L 188.551173 188.45176 
L 188.685661 194.845825 
L 188.820149 190.439169 
L 188.954637 194.869207 
L 189.089126 203.232071 
L 189.627078 265.161456 
L 189.761567 267.747235 
L 189.896055 272.977008 
L 190.030543 270.543923 
L 190.299519 272.373389 
L 190.434008 271.20337 
L 190.971961 274.624195 
L 191.106449 271.175695 
L 191.240937 270.690891 
L 191.375425 271.128932 
L 191.509913 266.705098 
L 191.644402 268.252557 
L 191.913378 266.988059 
L 192.182354 261.357941 
L 192.316843 261.706275 
L 192.451331 261.208588 
L 192.585819 262.52796 
L 192.720307 268.291685 
L 192.989284 269.548071 
L 193.392748 266.863518 
L 193.661725 269.742756 
L 193.796213 270.276708 
L 194.065189 262.397693 
L 194.603142 158.75419 
L 194.73763 153.847461 
L 194.872119 143.905644 
L 195.006607 145.479824 
L 195.141095 150.219067 
L 195.275583 142.827719 
L 195.54456 156.208016 
L 195.948024 250.142083 
L 196.217001 260.468498 
L 196.351489 262.393398 
L 196.485977 271.857569 
L 196.620465 271.205756 
L 196.889442 271.762135 
L 197.02393 272.889686 
L 197.158418 271.16138 
L 197.292907 264.84557 
L 197.830859 196.191442 
L 197.965348 198.50094 
L 198.099836 195.186047 
L 198.234324 199.586023 
L 198.5033 186.272529 
L 198.772277 200.060329 
L 199.31023 272.533241 
L 199.713694 281.637626 
L 199.848183 280.469993 
L 200.117159 281.197199 
L 200.251647 279.41545 
L 200.386135 273.641704 
L 200.520624 273.238974 
L 200.655112 260.292423 
L 200.7896 213.111379 
L 200.924088 211.143057 
L 201.058576 199.469593 
L 201.193065 199.111717 
L 201.327553 196.429072 
L 201.462041 198.599714 
L 201.731018 186.810299 
L 201.865506 188.17023 
L 202.134482 210.845303 
L 202.403459 264.270581 
L 202.806923 274.060659 
L 203.0759 265.596634 
L 203.210388 269.919786 
L 203.344876 270.045758 
L 203.748341 260.677498 
L 203.882829 243.305682 
L 204.151805 181.399679 
L 204.420782 164.942118 
L 204.55527 159.318204 
L 204.689758 162.751912 
L 204.824246 156.258119 
L 204.958735 172.267618 
L 205.093223 172.513837 
L 205.765664 260.097261 
L 205.900152 260.607832 
L 206.03464 264.404666 
L 206.169129 279.240806 
L 206.303617 279.721315 
L 206.572593 283.656528 
L 206.84157 284.467238 
L 207.110546 275.087049 
L 207.379522 265.912043 
L 207.514011 265.035006 
L 207.917475 273.145926 
L 208.051964 272.899706 
L 208.32094 266.544292 
L 208.589916 268.144717 
L 208.858893 276.18931 
L 208.993381 279.839653 
L 209.127869 280.422754 
L 209.262357 279.879258 
L 209.396846 274.029643 
L 209.531334 275.126177 
L 209.80031 274.711517 
L 209.934799 275.701643 
L 210.203775 263.530969 
L 211.010704 108.538828 
L 211.279681 134.138948 
L 211.683145 167.211534 
L 212.221098 254.776349 
L 212.355586 257.238064 
L 212.759051 272.46596 
L 212.893539 272.258868 
L 213.028027 272.359074 
L 213.162516 275.005931 
L 213.431492 257.316797 
L 213.56598 219.267814 
L 213.834957 135.416806 
L 213.969445 139.998584 
L 214.103933 138.908252 
L 214.238421 141.867178 
L 214.910862 180.158085 
L 215.448815 260.39072 
L 215.583303 265.353278 
L 215.717792 265.970735 
L 216.121256 270.230423 
L 216.255745 271.187147 
L 216.390233 273.576332 
L 216.524721 269.570498 
L 216.659209 262.056517 
L 217.062674 149.044754 
L 217.197162 150.955816 
L 217.33165 151.036458 
L 217.466138 162.495195 
L 217.600627 161.212088 
L 217.735115 149.363503 
L 217.869603 154.591367 
L 218.273068 196.760228 
L 218.542044 255.54984 
L 218.811021 272.33951 
L 218.945509 264.924303 
L 219.483462 275.639134 
L 219.61795 277.43663 
L 219.886926 263.69273 
L 220.290391 162.155451 
L 220.693856 150.500597 
L 220.828344 161.159599 
L 220.962832 157.24061 
L 221.231808 184.381985 
L 221.500785 198.24136 
L 221.769761 255.41337 
L 222.038738 271.039224 
L 222.173226 270.286729 
L 222.307714 271.511144 
L 222.576691 277.559262 
L 222.845667 280.197053 
L 222.980155 278.525529 
L 223.114643 280.397941 
L 223.38362 259.854859 
L 223.518108 263.71802 
L 223.652596 263.561508 
L 223.921573 256.602475 
L 224.190549 255.930144 
L 224.325037 258.41858 
L 224.459525 257.790149 
L 224.728502 253.93176 
L 225.131967 261.199999 
L 225.266455 259.714094 
L 225.535431 261.186161 
L 225.669919 259.873469 
L 226.073384 269.640642 
L 226.34236 272.67162 
L 226.476849 272.599567 
L 226.745825 269.452637 
L 226.880313 271.736845 
L 227.014802 271.980202 
L 227.14929 271.682925 
L 227.283778 270.262393 
L 227.418266 271.940597 
L 227.552754 272.069432 
L 227.687243 271.900037 
L 227.956219 270.790142 
L 228.090707 276.611604 
L 228.225195 276.650732 
L 228.359684 277.75347 
L 228.494172 276.979979 
L 228.62866 277.951972 
L 228.763148 277.837452 
L 228.897637 275.54704 
L 229.301101 276.451753 
L 229.435589 270.231854 
L 229.570078 256.134372 
L 230.242519 94.537734 
L 230.377007 79.685848 
L 230.511495 109.695963 
L 230.780471 117.655143 
L 231.049448 145.152009 
L 231.587401 253.97375 
L 231.856377 265.208219 
L 232.125354 270.027626 
L 232.39433 274.68909 
L 232.528818 273.874563 
L 232.797795 256.75326 
L 232.932283 220.445945 
L 233.201259 133.199879 
L 233.335748 125.015953 
L 233.470236 135.322804 
L 233.604724 135.545165 
L 233.739212 148.349996 
L 233.8737 133.598315 
L 234.008189 140.32783 
L 234.815118 264.626072 
L 234.949606 264.359335 
L 235.218583 270.269073 
L 235.622047 278.014481 
L 235.756535 277.416111 
L 236.025512 264.747273 
L 236.563465 129.040397 
L 236.832441 116.816757 
L 237.63937 200.592372 
L 237.908347 258.721582 
L 238.177323 266.818187 
L 238.849764 281.750715 
L 238.984252 280.925213 
L 239.118741 277.12313 
L 239.253229 263.209357 
L 239.791182 128.269769 
L 240.194646 146.021889 
L 240.463623 165.166865 
L 240.732599 178.636393 
L 241.270552 256.187338 
L 241.674017 262.068446 
L 241.942993 275.024063 
L 242.077481 281.529786 
L 242.21197 280.903263 
L 242.480946 262.918284 
L 242.884411 151.072246 
L 243.018899 158.951738 
L 243.153387 156.70284 
L 243.287875 145.714114 
L 243.422363 153.702401 
L 243.556852 150.888058 
L 243.825828 167.544121 
L 244.229293 239.600942 
L 244.498269 262.007846 
L 244.767246 267.285813 
L 245.17071 275.150513 
L 245.305198 276.016097 
L 245.439687 275.720253 
L 245.574175 274.490588 
L 245.708663 263.02517 
L 245.843151 268.477781 
L 246.112128 265.493566 
L 246.381104 260.310555 
L 246.515592 260.277154 
L 247.188033 270.527222 
L 247.322522 270.932816 
L 247.45701 271.800309 
L 247.591498 271.445772 
L 247.725986 274.610835 
L 247.860475 273.17217 
L 248.129451 274.496314 
L 248.263939 273.612597 
L 248.398427 274.295426 
L 248.532916 274.142255 
L 248.667404 276.08815 
L 248.801892 275.989376 
L 249.205357 277.528723 
L 249.339845 277.645153 
L 249.608821 276.69654 
L 249.743309 276.828239 
L 249.877798 276.5281 
L 250.550239 273.361606 
L 250.819215 273.661745 
L 250.953703 274.440485 
L 251.088192 273.304346 
L 251.357168 274.562163 
L 251.491656 283.460412 
L 251.626144 282.970836 
L 251.760633 283.401243 
L 251.895121 283.241391 
L 252.164097 270.998188 
L 252.70205 143.60121 
L 252.836538 163.333582 
L 252.971027 159.889853 
L 253.240003 172.796798 
L 253.374491 174.149572 
L 253.508979 171.224526 
L 253.777956 204.039441 
L 254.046932 255.389034 
L 254.315909 276.712287 
L 254.719373 285.066086 
L 254.853862 284.82607 
L 255.122838 286.559147 
L 255.391814 265.797522 
L 255.660791 172.587321 
L 255.795279 176.033913 
L 256.198744 160.364159 
L 256.333232 164.036929 
L 256.46772 161.372894 
L 256.602208 162.56868 
L 257.409138 257.630297 
L 257.812602 265.100378 
L 258.081579 280.303938 
L 258.216067 281.367548 
L 258.350555 280.638434 
L 258.619532 266.470808 
L 258.888508 177.390504 
L 259.022996 178.259429 
L 259.157484 169.208487 
L 259.291973 168.633021 
L 259.426461 153.151748 
L 259.695437 166.848886 
L 259.829925 155.719872 
L 259.964414 164.790856 
L 260.771343 260.699925 
L 261.040319 262.937848 
L 261.309296 270.435128 
L 261.443784 273.648385 
L 261.71276 270.73479 
L 261.847249 258.346528 
L 262.116225 170.208633 
L 262.250713 174.374796 
L 262.654178 147.95156 
L 262.788666 155.250338 
L 262.923154 150.48151 
L 263.326619 185.62167 
L 263.461107 196.516871 
L 263.864572 245.27973 
L 264.268036 263.318152 
L 264.402525 262.560885 
L 264.671501 265.989821 
L 264.805989 265.863849 
L 264.940478 264.913328 
L 265.074966 257.347336 
L 265.209454 238.236238 
L 265.612919 123.972384 
L 265.881895 105.86525 
L 266.016383 115.364254 
L 266.150871 115.23351 
L 266.28536 114.785448 
L 266.419848 119.41542 
L 266.688824 156.678982 
L 266.957801 235.468181 
L 267.226777 252.129015 
L 267.361265 250.707051 
L 267.495754 267.070609 
L 267.630242 266.754723 
L 267.76473 268.623317 
L 267.899218 268.934432 
L 268.168195 275.453515 
L 268.302683 276.338187 
L 268.437171 273.77722 
L 268.706147 276.312897 
L 268.975124 272.819065 
L 269.2441 270.934724 
L 269.916541 256.445009 
L 270.320006 258.334121 
L 270.588982 263.219855 
L 270.723471 277.314474 
L 270.857959 278.354226 
L 270.992447 276.876433 
L 271.126935 277.759673 
L 271.261424 277.789258 
L 271.395912 277.603162 
L 271.799376 280.380286 
L 271.933865 278.995064 
L 272.068353 279.350078 
L 272.202841 278.705422 
L 272.337329 278.941621 
L 272.471817 278.098463 
L 272.606306 275.93307 
L 272.740794 277.2157 
L 272.875282 276.893134 
L 273.00977 276.216031 
L 273.144258 273.88172 
L 273.278747 273.781992 
L 273.547723 276.760481 
L 273.682211 276.97473 
L 273.8167 277.658513 
L 273.951188 276.796746 
L 274.085676 287.448591 
L 274.354652 289.081463 
L 274.489141 287.509191 
L 274.758117 272.784709 
L 275.29607 166.231429 
L 275.565046 153.987271 
L 275.699535 154.32463 
L 275.834023 172.289567 
L 275.968511 174.572821 
L 276.102999 184.735568 
L 276.77544 264.103095 
L 277.447881 281.515471 
L 277.58237 284.914346 
L 277.716858 284.523067 
L 277.851346 280.12166 
L 277.985834 270.131172 
L 278.389299 209.580805 
L 278.523787 190.081292 
L 278.658275 188.081477 
L 278.792763 178.559091 
L 278.927252 190.698272 
L 279.06174 184.873469 
L 279.196228 186.965856 
L 279.330716 194.667364 
L 280.137646 274.483908 
L 280.272134 276.872139 
L 280.406622 268.509274 
L 280.54111 268.224881 
L 280.810087 269.396808 
L 280.944575 268.773148 
L 281.213551 260.847848 
L 281.348039 231.87462 
L 281.482528 161.351421 
L 281.617016 151.134278 
L 281.751504 127.715298 
L 281.885992 128.868138 
L 282.154969 142.389678 
L 282.289457 124.257254 
L 282.423945 128.348979 
L 282.558433 137.467202 
L 282.82741 185.956166 
L 283.096386 254.574029 
L 283.365363 261.210019 
L 283.499851 263.419312 
L 283.634339 262.747458 
L 283.768827 262.757955 
L 283.903316 262.947392 
L 284.037804 264.253403 
L 284.172292 264.382716 
L 284.441268 259.184436 
L 285.113709 143.800189 
L 285.248198 142.723219 
L 285.382686 138.182001 
L 285.517174 147.4324 
L 285.651662 144.328416 
L 285.78615 147.820816 
L 286.055127 201.000352 
L 286.324103 250.622592 
L 286.59308 260.309601 
L 286.727568 260.187923 
L 286.862056 279.143463 
L 286.996544 279.202632 
L 287.131033 278.223959 
L 287.265521 278.829963 
L 287.668985 275.300344 
L 287.803474 276.178335 
L 288.07245 275.30273 
L 288.206938 273.129702 
L 288.341427 273.07435 
L 288.475915 270.726201 
L 288.610403 270.354964 
L 288.744891 269.230276 
L 288.879379 272.060366 
L 289.013868 272.40011 
L 289.148356 269.587676 
L 289.417332 276.74712 
L 289.55182 277.934794 
L 289.820797 277.5731 
L 289.955285 278.363769 
L 290.089773 276.86355 
L 290.224262 278.411486 
L 290.35875 277.50391 
L 290.493238 278.484493 
L 290.627726 276.941805 
L 291.031191 258.953009 
L 291.300167 192.728149 
L 291.434655 187.1405 
L 291.569144 187.748413 
L 291.703632 191.813893 
L 291.972608 179.06155 
L 292.376073 192.148866 
L 293.048514 268.587053 
L 293.183002 269.834372 
L 293.31749 268.682009 
L 293.451979 269.434028 
L 293.586467 268.504025 
L 293.720955 270.980532 
L 293.855443 271.24393 
L 294.258908 247.309608 
L 294.527884 189.288715 
L 294.796861 157.588943 
L 294.931349 141.711143 
L 295.065837 141.577059 
L 295.200325 149.553417 
L 295.334814 143.830251 
L 295.60379 171.90306 
L 295.738278 186.401365 
L 296.141743 256.642557 
L 296.276231 255.75216 
L 296.410719 262.954549 
L 296.545208 280.641774 
L 296.948672 282.806213 
L 297.486625 284.772149 
L 297.621113 284.426679 
L 297.755601 284.422862 
L 298.024578 281.249688 
L 298.159066 281.099379 
L 298.428042 278.957845 
L 298.697019 275.132858 
L 298.831507 273.997672 
L 298.965995 273.855476 
L 299.100484 274.210967 
L 299.36946 277.99444 
L 299.503948 277.488164 
L 299.638436 279.030851 
L 299.772925 269.375336 
L 299.907413 272.77612 
L 300.041901 272.474549 
L 300.176389 273.340611 
L 300.310877 273.057172 
L 300.579854 262.09135 
L 301.252295 128.046931 
L 301.386783 128.115643 
L 301.521271 141.302209 
L 301.65576 134.363217 
L 301.790248 143.773945 
L 302.597177 252.527928 
L 302.731665 254.280093 
L 303.000642 266.682671 
L 303.13513 266.90694 
L 303.269618 267.386972 
L 303.404106 269.845347 
L 303.538595 270.264302 
L 303.807571 253.912673 
L 304.345524 164.173876 
L 304.6145 153.655639 
L 304.748988 161.889668 
L 304.883477 152.32052 
L 305.017965 158.398222 
L 306.093871 265.134734 
L 306.228359 266.144901 
L 306.497335 276.295718 
L 306.766312 277.324972 
L 306.9008 272.618654 
L 307.035288 262.084193 
L 307.304265 169.649391 
L 307.438753 176.907609 
L 307.842217 157.654793 
L 307.976706 164.70258 
L 308.111194 156.287703 
L 308.245682 161.247876 
L 308.649147 207.228362 
L 309.052611 263.567234 
L 309.590564 275.792305 
L 309.994029 277.494844 
L 310.128517 273.943275 
L 310.263005 261.333129 
L 310.531982 169.538211 
L 310.66647 170.689142 
L 310.935446 168.401117 
L 311.069934 159.05433 
L 311.204423 165.506609 
L 311.338911 164.216344 
L 311.473399 157.445793 
L 311.607887 170.576053 
L 311.876864 208.134983 
L 312.14584 250.442222 
L 312.414817 262.242136 
L 312.818281 270.848834 
L 312.952769 270.415087 
L 313.087258 272.299905 
L 313.221746 272.201131 
L 313.356234 273.77722 
L 313.625211 263.226058 
L 313.759699 255.338454 
L 313.894187 258.689612 
L 314.028675 256.162048 
L 314.163163 258.04448 
L 314.297652 255.285488 
L 314.566628 261.845608 
L 314.701116 262.579971 
L 314.970093 267.331144 
L 315.104581 267.293447 
L 315.239069 266.997125 
L 315.508045 269.928375 
L 315.642534 270.46519 
L 315.777022 270.134989 
L 316.180487 273.123499 
L 316.314975 272.684026 
L 316.718439 275.037424 
L 316.852928 275.286506 
L 316.987416 274.433328 
L 317.121904 274.4987 
L 317.256392 273.379261 
L 317.39088 273.523843 
L 317.525369 271.98545 
L 317.659857 272.904478 
L 317.928833 270.38598 
L 318.332298 266.650701 
L 318.466786 267.304899 
L 318.601274 266.80244 
L 318.735763 268.258283 
L 318.870251 268.094614 
L 319.139227 269.210712 
L 319.273715 279.043735 
L 319.67718 280.161742 
L 319.811668 277.583598 
L 319.946157 269.631576 
L 320.349621 147.672416 
L 320.484109 131.525493 
L 320.887574 158.797135 
L 321.022062 163.462417 
L 321.291039 178.241297 
L 321.425527 180.041178 
L 321.560015 198.477082 
L 321.828991 253.991406 
L 321.96348 262.077035 
L 322.097968 262.86341 
L 322.635921 279.559555 
L 322.770409 279.906457 
L 322.904897 279.247486 
L 323.173874 268.818002 
L 323.44285 173.374173 
L 323.577338 173.735867 
L 323.711826 173.937232 
L 323.980803 153.764911 
L 324.249779 157.303119 
L 324.384268 160.068791 
L 324.787732 196.303577 
L 325.056709 250.813937 
L 325.325685 260.083423 
L 325.863638 277.901392 
L 325.998126 279.668349 
L 326.132614 279.733721 
L 326.267103 276.521419 
L 326.401591 267.524397 
L 326.670567 166.185144 
L 326.805055 172.139259 
L 326.939544 173.311186 
L 327.20852 160.087878 
L 327.343008 168.229336 
L 327.611985 164.476401 
L 327.746473 169.334937 
L 328.149937 224.017555 
L 328.418914 254.855082 
L 328.68789 267.662776 
L 328.822379 270.115425 
L 328.956867 280.159356 
L 329.225843 281.10606 
L 329.360331 280.259085 
L 329.629308 267.429918 
L 330.032772 178.436936 
L 330.301749 167.100831 
L 330.570725 158.294676 
L 330.839702 180.142815 
L 330.97419 181.354825 
L 331.108678 184.099501 
L 331.781119 259.964131 
L 332.050096 267.125484 
L 332.184584 277.897098 
L 332.319072 278.852867 
L 332.45356 278.188171 
L 332.588049 279.175434 
L 332.857025 266.571013 
L 333.26049 177.805642 
L 333.394978 179.714795 
L 333.663954 164.808034 
L 333.798442 166.000002 
L 333.932931 169.76582 
L 334.336395 187.624826 
L 334.73986 255.339885 
L 335.143325 271.06356 
L 335.277813 270.865058 
L 335.412301 270.9624 
L 335.546789 271.247747 
L 335.681277 271.14277 
L 335.950254 273.723777 
L 336.084742 271.62996 
L 336.622695 255.172399 
L 336.757183 255.966886 
L 336.891671 254.138374 
L 337.295136 260.493788 
L 337.698601 265.224442 
L 337.833089 264.745365 
L 338.102065 268.843292 
L 338.236553 268.611388 
L 338.371042 269.248409 
L 338.50553 266.914098 
L 339.043483 270.071525 
L 339.446947 273.066238 
L 339.581436 272.584775 
L 339.715924 271.416188 
L 339.850412 271.675291 
L 339.9849 270.895596 
L 340.119388 270.782984 
L 340.253877 270.309633 
L 340.388365 271.785994 
L 340.522853 269.798108 
L 340.657341 270.396478 
L 340.926318 270.078206 
L 341.060806 266.741363 
L 341.329782 271.620893 
L 341.464271 271.519256 
L 341.598759 272.047482 
L 341.733247 273.613074 
L 341.867735 281.431012 
L 342.136712 281.532649 
L 342.2712 282.173964 
L 342.540176 269.485085 
L 342.943641 154.370915 
L 343.212617 170.971149 
L 343.347106 170.237263 
L 343.75057 184.614367 
L 343.885058 186.288276 
L 344.019547 185.625965 
L 344.423011 253.475109 
L 345.22994 279.154915 
L 345.364429 280.238089 
L 345.498917 279.870669 
L 345.633405 275.656312 
L 345.767893 267.576408 
L 346.03687 183.36991 
L 346.171358 187.485493 
L 346.440334 173.928166 
L 346.574823 168.560014 
L 346.843799 175.434589 
L 347.112775 177.302228 
L 347.381752 211.762422 
L 347.650728 250.651222 
L 348.054193 268.602322 
L 348.188681 269.783792 
L 348.323169 278.747413 
L 348.457658 279.594865 
L 348.592146 281.464414 
L 348.726634 281.269251 
L 348.99561 268.370418 
L 349.264587 182.320138 
L 349.399075 183.793159 
L 349.668052 166.246221 
L 349.80254 162.136842 
L 350.206004 180.820873 
L 350.340493 181.999957 
L 351.012934 262.129047 
L 351.147422 264.448088 
L 351.550886 281.100334 
L 351.685375 280.388875 
L 351.954351 280.75534 
L 352.088839 279.359144 
L 352.223328 272.075635 
L 352.492304 178.246069 
L 352.626792 185.405036 
L 352.76128 174.045072 
L 352.895769 173.336953 
L 353.030257 165.065705 
L 353.164745 172.270481 
L 353.299233 170.195272 
L 353.56821 152.435518 
L 354.240651 268.743564 
L 354.375139 269.880181 
L 354.644115 275.737431 
L 354.913092 280.007616 
L 355.182068 281.048799 
L 355.316556 278.648639 
L 355.451045 269.528984 
L 355.854509 196.294511 
L 356.123486 157.995969 
L 356.257974 159.708051 
L 356.392462 168.309977 
L 356.52695 167.677251 
L 356.661439 178.273267 
L 356.795927 177.023084 
L 357.33388 264.437591 
L 357.602856 274.025348 
L 357.737344 275.987944 
L 357.871832 280.239043 
L 358.006321 279.661192 
L 358.140809 279.875441 
L 358.275297 280.614576 
L 358.409785 280.526776 
L 358.678762 279.268482 
L 359.082226 260.81874 
L 359.351203 254.919022 
L 359.485691 248.653793 
L 359.620179 259.376736 
L 359.754667 260.789633 
L 359.889156 260.957597 
L 360.427109 275.232586 
L 360.561597 275.911597 
L 360.965061 280.054856 
L 361.234038 280.015251 
L 361.368526 279.823906 
L 361.503014 281.128009 
L 361.771991 280.720984 
L 361.906479 282.050377 
L 362.040967 282.00266 
L 362.175455 282.377715 
L 362.309944 282.418274 
L 362.57892 279.008902 
L 362.713408 278.959753 
L 362.982385 277.826 
L 363.116873 276.334846 
L 363.251361 276.233209 
L 363.385849 277.323063 
L 363.520337 276.469885 
L 363.654826 276.410239 
L 364.05829 279.194043 
L 364.192778 253.208371 
L 364.730731 259.460717 
L 364.86522 258.266363 
L 364.999708 246.193986 
L 365.134196 224.058591 
L 365.403172 135.793293 
L 365.672149 105.519303 
L 365.806637 99.601929 
L 366.075613 116.535704 
L 366.34459 113.393546 
L 366.479078 124.817928 
L 367.017031 251.124097 
L 367.151519 256.080452 
L 367.286007 254.34642 
L 367.554984 265.699703 
L 367.689472 266.565764 
L 367.958448 271.462473 
L 368.227425 247.915612 
L 368.496401 152.018949 
L 368.765378 100.169283 
L 369.034354 89.274083 
L 369.168842 93.993284 
L 369.303331 93.54904 
L 369.437819 96.915945 
L 369.572307 94.794928 
L 369.706795 110.895089 
L 370.244748 234.667014 
L 370.782701 278.861456 
L 370.917189 279.166367 
L 371.051677 280.057719 
L 371.186166 279.779053 
L 371.455142 264.963908 
L 371.858607 171.726508 
L 372.127583 203.701606 
L 372.262071 199.642329 
L 372.396559 201.068587 
L 372.665536 190.384295 
L 372.800024 194.177789 
L 373.203489 233.872527 
L 373.472465 256.12292 
L 373.87593 277.309703 
L 374.010418 286.325812 
L 374.144906 286.179798 
L 374.279394 287.386081 
L 374.413883 286.883145 
L 374.682859 270.326811 
L 375.220812 180.949708 
L 375.489788 177.321315 
L 375.624277 177.544153 
L 375.893253 184.078029 
L 376.027741 188.373027 
L 376.565694 255.940164 
L 376.83467 264.828392 
L 376.969159 267.664208 
L 377.103647 279.473664 
L 377.238135 278.380947 
L 377.507112 280.453292 
L 377.6416 278.487833 
L 377.776088 282.026519 
L 378.045064 279.879735 
L 378.179553 270.240443 
L 378.314041 269.614875 
L 378.448529 262.515554 
L 378.583017 263.516177 
L 378.717505 262.599058 
L 378.851994 267.109737 
L 378.986482 266.349607 
L 379.12097 267.25766 
L 379.255458 269.416849 
L 379.389947 269.30042 
L 379.927899 278.553682 
L 380.062388 278.347068 
L 380.196876 278.763637 
L 380.331364 268.855222 
L 380.465852 269.533279 
L 380.869317 272.43733 
L 381.138293 261.541652 
L 381.272782 234.447039 
L 381.541758 159.85311 
L 381.810734 139.689855 
L 381.945223 141.281214 
L 382.214199 147.768327 
L 382.348687 139.778132 
L 382.752152 189.638002 
L 383.021128 257.644612 
L 383.155616 265.573253 
L 383.290105 266.235563 
L 383.424593 267.522966 
L 383.559081 262.593809 
L 383.693569 261.881873 
L 383.962546 262.228298 
L 384.097034 263.418835 
L 384.231522 261.6347 
L 384.36601 263.027079 
L 385.038451 148.830983 
L 385.17294 151.274565 
L 385.307428 166.411799 
L 385.576404 160.766889 
L 386.248845 260.490925 
L 386.921286 278.994587 
L 387.055775 278.179582 
L 387.190263 279.457441 
L 387.324751 278.7665 
L 387.459239 278.927783 
L 387.593727 280.417505 
L 387.728216 279.842993 
L 387.862704 281.160457 
L 387.997192 279.990916 
L 388.13168 281.581797 
L 388.266169 280.597397 
L 388.400657 278.61142 
L 388.535145 278.70065 
L 388.669633 278.037863 
L 388.804121 279.177342 
L 388.93861 276.625442 
L 389.207586 278.7665 
L 389.476562 285.458796 
L 389.611051 284.399958 
L 389.745539 285.216871 
L 389.880027 285.16486 
L 390.014515 270.253804 
L 390.283492 270.502886 
L 390.41798 270.512907 
L 390.552468 270.382162 
L 390.686956 264.879926 
L 390.821445 265.065068 
L 390.955933 256.206424 
L 391.224909 200.005454 
L 391.359397 168.604391 
L 391.493886 164.61144 
L 391.762862 175.313388 
L 391.89735 174.769415 
L 392.031839 167.540304 
L 392.166327 171.242658 
L 392.300815 180.22966 
L 392.569791 240.435033 
L 392.70428 266.744226 
L 392.973256 271.590832 
L 393.107744 272.248848 
L 393.376721 265.186746 
L 393.645697 270.909434 
L 393.780185 267.515808 
L 393.914673 268.901507 
L 394.049162 261.482483 
L 394.721603 146.778679 
L 394.990579 145.706003 
L 395.125067 145.285617 
L 395.259556 156.679936 
L 395.394044 157.55077 
L 395.931997 245.768829 
L 396.200973 259.390574 
L 396.335461 255.650523 
L 396.46995 280.444703 
L 396.604438 280.828347 
L 397.007902 283.866005 
L 397.276879 270.797777 
L 397.545855 197.024102 
L 397.680343 191.832026 
L 397.94932 168.434041 
L 398.083808 154.955447 
L 398.218296 167.710176 
L 398.352785 162.93944 
L 398.487273 165.954671 
L 398.487273 165.954671 
" clip-path="url(#pcf56b9f808)" style="fill: none; stroke: #1f77b4; stroke-width: 1.5; stroke-linecap: square"/>
   </g>
   <g id="line2d_13">
    <path d="M 73.832727 280.553094 
L 73.967215 280.564889 
L 74.236192 279.885211 
L 74.37068 278.610061 
L 74.505168 279.894545 
L 74.639657 279.673479 
L 74.774145 280.068753 
L 74.908633 270.974694 
L 75.043121 229.992126 
L 75.177609 233.754497 
L 75.312098 248.860212 
L 75.446586 250.045093 
L 75.581074 248.478851 
L 75.715562 249.146654 
L 75.85005 247.837844 
L 76.119027 249.296723 
L 76.388003 245.931002 
L 76.65698 283.612531 
L 77.060444 270.764373 
L 77.194933 254.70606 
L 77.463909 265.447685 
L 77.598397 263.998611 
L 77.732885 267.381751 
L 77.867374 257.659992 
L 78.001862 232.590277 
L 78.270838 129.011899 
L 78.405327 106.218504 
L 78.539815 103.89968 
L 78.674303 112.230657 
L 78.808791 102.662627 
L 78.943279 109.534013 
L 79.077768 108.352131 
L 79.61572 187.116985 
L 79.884697 249.311951 
L 80.153673 266.041978 
L 80.288161 268.569139 
L 80.42265 258.018596 
L 80.557138 271.961319 
L 80.691626 273.368796 
L 80.826114 269.585926 
L 80.960603 271.301312 
L 81.095091 265.027585 
L 81.229579 245.795257 
L 81.498555 141.681018 
L 81.767532 172.558608 
L 81.90202 162.771588 
L 82.036508 200.602705 
L 82.439973 205.786936 
L 82.574461 200.059975 
L 82.708949 239.100547 
L 82.843438 205.262977 
L 82.977926 202.251311 
L 83.112414 209.490263 
L 83.246902 202.188839 
L 83.38139 202.182662 
L 83.919343 287.679014 
L 84.053831 285.076747 
L 84.18832 285.201065 
L 84.322808 202.182654 
L 84.457296 222.508431 
L 84.591784 202.182654 
L 84.860761 202.182654 
L 84.995249 202.347051 
L 85.264225 167.908599 
L 85.936666 215.401448 
L 86.340131 264.267349 
L 86.743596 271.517985 
L 87.012572 288.599446 
L 87.14706 288.312509 
L 87.281549 285.810034 
L 87.416037 286.953859 
L 87.550525 287.007151 
L 87.685013 285.532752 
L 87.95399 245.683503 
L 88.088478 254.600042 
L 88.491942 258.073019 
L 88.626431 251.860053 
L 88.760919 255.105471 
L 88.895407 247.293059 
L 89.164384 255.429003 
L 89.298872 257.371337 
L 89.567848 280.748204 
L 89.702336 275.637619 
L 89.971313 276.800225 
L 90.105801 256.320894 
L 90.240289 257.8722 
L 90.374777 265.4566 
L 90.509266 264.869569 
L 90.643754 266.884092 
L 90.778242 266.880153 
L 90.91273 268.9561 
L 91.047218 263.069758 
L 91.181707 247.410005 
L 91.316195 248.630951 
L 91.450683 245.148925 
L 91.585171 252.306143 
L 91.854148 251.364189 
L 91.988636 251.939671 
L 92.123124 253.16409 
L 92.257612 257.6275 
L 92.392101 256.64708 
L 92.661077 262.764227 
L 92.930053 268.705996 
L 93.064542 268.618587 
L 93.19903 261.663175 
L 93.333518 278.250012 
L 93.468006 279.059506 
L 93.602495 272.657842 
L 93.736983 274.574327 
L 93.871471 271.894852 
L 94.140447 257.548029 
L 94.409424 163.150337 
L 94.543912 172.014419 
L 94.6784 166.918177 
L 94.812888 153.25259 
L 94.947377 153.960564 
L 95.216353 173.840298 
L 95.350841 169.682864 
L 95.48533 158.540952 
L 95.888794 257.837294 
L 96.157771 269.00058 
L 96.426747 265.883943 
L 96.561235 267.946761 
L 96.830212 264.499508 
L 96.9647 267.921078 
L 97.099188 266.627705 
L 97.233676 262.814271 
L 97.368164 247.938015 
L 97.637141 166.797242 
L 97.771629 173.374273 
L 97.906117 174.829593 
L 98.040606 185.815743 
L 98.175094 179.33783 
L 98.309582 178.55743 
L 98.44407 175.925235 
L 98.578558 183.126088 
L 99.250999 271.168298 
L 99.385488 273.684456 
L 99.519976 273.089627 
L 99.654464 271.779548 
L 99.788952 285.055648 
L 99.923441 284.712972 
L 100.057929 276.605651 
L 100.326905 279.207666 
L 100.461393 278.876777 
L 100.73037 275.116894 
L 100.999346 276.328497 
L 101.133834 280.762776 
L 101.268323 281.326327 
L 101.402811 276.178513 
L 101.537299 261.136245 
L 101.671787 267.1396 
L 101.940764 251.794791 
L 102.20974 263.792436 
L 102.344228 263.944175 
L 102.478717 268.418058 
L 102.613205 278.134126 
L 102.747693 273.322576 
L 102.882181 279.571664 
L 103.151158 251.748971 
L 103.285646 270.438988 
L 103.420134 269.721792 
L 103.823599 253.294833 
L 104.227063 160.63115 
L 104.361552 154.384258 
L 104.49604 167.351107 
L 104.765016 141.036964 
L 105.033993 163.565822 
L 105.437457 219.219803 
L 105.840922 263.601322 
L 105.97541 256.087016 
L 106.109898 264.482182 
L 106.244387 289.182221 
L 106.378875 289.158622 
L 106.647851 279.362308 
L 106.782339 282.523833 
L 106.916828 281.963892 
L 107.051316 282.496871 
L 107.320292 206.708289 
L 107.589269 258.189437 
L 107.723757 252.432191 
L 107.992733 244.324727 
L 108.26171 238.521789 
L 108.396198 240.526326 
L 108.530686 237.516377 
L 108.665174 242.414163 
L 108.934151 286.837086 
L 109.068639 284.068823 
L 109.472104 269.930636 
L 109.875568 274.36198 
L 110.144545 274.98397 
L 110.279033 275.475133 
L 110.548009 272.112717 
L 110.682498 273.956033 
L 110.816986 273.2978 
L 111.085962 270.932815 
L 111.22045 272.55085 
L 111.354939 270.790422 
L 111.489427 266.805362 
L 111.623915 266.630423 
L 111.758403 264.358019 
L 111.892891 265.560747 
L 112.161868 271.080227 
L 112.296356 271.066827 
L 112.430844 271.198694 
L 112.565333 271.596622 
L 112.699821 258.314244 
L 112.834309 261.070902 
L 112.968797 267.058655 
L 113.103285 266.905472 
L 113.237774 268.579512 
L 113.372262 268.53269 
L 113.50675 270.608974 
L 113.775726 269.878816 
L 113.910215 267.808615 
L 114.044703 268.066069 
L 114.179191 266.575948 
L 114.313679 259.231752 
L 114.448168 258.085884 
L 114.582656 258.740386 
L 114.851632 253.645698 
L 115.120609 247.441136 
L 115.524073 262.05188 
L 115.658561 261.740304 
L 115.79305 256.85969 
L 116.062026 258.960308 
L 116.196514 255.825683 
L 116.331002 265.459641 
L 116.465491 265.421284 
L 116.599979 262.452438 
L 116.734467 245.870951 
L 117.003444 129.918586 
L 117.27242 80.112553 
L 117.406908 80.982312 
L 117.541396 70.983248 
L 117.675885 73.897323 
L 117.944861 108.911073 
L 118.482814 225.493931 
L 118.886279 253.212867 
L 119.020767 253.398929 
L 119.155255 251.611246 
L 119.289743 255.679064 
L 119.55872 253.535819 
L 119.693208 257.104226 
L 119.827696 256.35211 
L 119.962184 238.705897 
L 120.231161 123.482272 
L 120.500137 92.255265 
L 120.634625 89.361925 
L 120.769114 78.715074 
L 121.03809 87.212099 
L 121.172578 98.789937 
L 121.845019 230.303413 
L 122.113996 243.761336 
L 122.248484 242.25211 
L 122.382972 247.311539 
L 122.51746 261.803884 
L 122.651948 263.011035 
L 122.786437 255.923993 
L 122.920925 256.469886 
L 123.055413 253.082271 
L 123.189901 238.263925 
L 123.593366 88.593017 
L 123.727854 74.895919 
L 123.862342 77.040851 
L 123.996831 70.632493 
L 124.400295 138.410072 
L 124.534783 137.934721 
L 124.669272 142.161004 
L 125.072736 235.907406 
L 125.341713 259.304771 
L 125.610689 253.552202 
L 125.879666 271.596845 
L 126.148642 265.848207 
L 126.417618 240.126768 
L 126.686595 132.447483 
L 126.955571 90.27398 
L 127.09006 82.79425 
L 127.224548 82.753748 
L 127.762501 139.381572 
L 127.896989 152.692475 
L 128.434942 255.315998 
L 128.56943 257.805326 
L 128.703918 252.726659 
L 128.972894 260.237684 
L 129.107383 258.391175 
L 129.241871 263.778714 
L 129.376359 263.784529 
L 129.645336 225.363716 
L 130.0488 87.257776 
L 130.183288 85.422601 
L 130.317777 86.683768 
L 130.452265 92.112511 
L 130.586753 137.240662 
L 130.721241 142.041887 
L 130.855729 127.303111 
L 130.990218 136.277148 
L 131.528171 250.047537 
L 131.797147 262.606173 
L 131.931635 263.15883 
L 132.200612 259.18973 
L 132.3351 263.779236 
L 132.469588 272.323035 
L 132.873053 268.588541 
L 133.142029 251.988472 
L 133.411005 241.094016 
L 133.545494 241.847544 
L 133.679982 239.84505 
L 133.948958 243.320534 
L 134.083447 236.898927 
L 134.486911 248.42938 
L 134.890376 257.568867 
L 135.024864 255.632833 
L 135.562817 263.845884 
L 135.831793 267.529109 
L 135.966282 272.209852 
L 136.10077 272.268495 
L 136.235258 266.831606 
L 136.504234 269.461118 
L 136.638723 264.146862 
L 136.773211 264.648014 
L 136.907699 264.330152 
L 137.042187 262.83064 
L 137.311164 248.370408 
L 137.58014 254.432298 
L 137.714628 251.956693 
L 138.118093 260.81908 
L 138.252581 258.84392 
L 138.387069 255.14482 
L 138.521558 262.92592 
L 138.790534 256.851178 
L 139.05951 265.291405 
L 139.328487 233.881087 
L 139.731951 88.265038 
L 140.135416 76.928444 
L 140.404393 104.39314 
L 140.673369 153.475653 
L 140.807857 154.558514 
L 140.942345 170.325338 
L 141.211322 248.892117 
L 141.34581 249.695153 
L 141.614786 263.213822 
L 141.749275 259.912153 
L 141.883763 264.730213 
L 142.287228 261.120831 
L 142.690692 165.747798 
L 142.959669 86.933715 
L 143.094157 92.966337 
L 143.228645 92.81115 
L 143.363133 87.571906 
L 143.497621 103.939032 
L 143.63211 97.987188 
L 143.766598 107.731812 
L 143.901086 150.428108 
L 144.035574 156.256018 
L 144.439039 239.615394 
L 144.842504 267.910425 
L 145.11148 260.379147 
L 145.245968 261.438887 
L 145.380456 264.233844 
L 145.514945 256.322611 
L 145.649433 225.720375 
L 145.783921 222.516004 
L 146.187386 92.698136 
L 146.321874 86.940817 
L 146.725339 131.368607 
L 146.859827 122.811798 
L 146.994315 130.579125 
L 147.128803 130.207722 
L 147.263291 144.456138 
L 147.532268 245.338879 
L 147.801244 254.723149 
L 147.935732 264.196607 
L 148.204709 262.755645 
L 148.339197 264.829055 
L 148.608174 261.543709 
L 148.87715 259.148719 
L 149.011638 229.153313 
L 149.280615 127.03456 
L 149.415103 104.469919 
L 149.549591 114.923592 
L 149.818567 108.606595 
L 150.222032 150.7527 
L 150.35652 145.716418 
L 150.491009 150.558209 
L 150.759985 246.057618 
L 150.894473 249.616624 
L 151.16345 266.267688 
L 151.432426 260.004672 
L 151.701402 264.873808 
L 151.970379 265.477379 
L 152.104867 262.613773 
L 152.64282 99.361503 
L 152.777308 118.351379 
L 152.911796 113.99657 
L 153.046285 102.956898 
L 153.315261 119.015051 
L 153.584237 180.530328 
L 153.718726 193.768248 
L 154.12219 260.505687 
L 154.256678 270.548749 
L 154.391167 270.571834 
L 154.660143 271.905992 
L 154.92912 272.246147 
L 155.063608 273.023649 
L 155.332584 276.757614 
L 155.467072 275.318957 
L 155.601561 267.68801 
L 155.736049 252.348048 
L 156.139513 261.967272 
L 156.274002 260.896377 
L 156.40849 258.073142 
L 156.542978 257.91096 
L 156.677466 259.289934 
L 156.811955 259.013413 
L 157.484396 270.096453 
L 157.618884 267.960069 
L 157.753372 268.090214 
L 158.022348 271.93666 
L 158.156837 271.936204 
L 158.291325 272.796756 
L 158.694789 279.066594 
L 158.829278 275.238936 
L 158.963766 275.380426 
L 159.098254 275.992273 
L 159.367231 271.717105 
L 159.501719 273.682739 
L 159.636207 271.993762 
L 159.905183 258.866255 
L 160.039672 261.542615 
L 160.17416 257.98573 
L 160.308648 258.525021 
L 160.443136 260.802528 
L 160.577624 267.841266 
L 160.712113 267.642487 
L 160.981089 259.107815 
L 161.384554 267.870826 
L 161.519042 266.153129 
L 161.65353 266.763502 
L 161.922507 235.468902 
L 162.325971 98.624557 
L 162.460459 82.518787 
L 162.594948 91.5355 
L 162.729436 91.536901 
L 162.863924 91.043324 
L 163.132901 128.867916 
L 163.267389 136.493915 
L 163.536365 187.564629 
L 163.805342 244.086669 
L 163.93983 247.065382 
L 164.208806 262.941178 
L 164.343294 258.710146 
L 164.477783 271.318256 
L 164.612271 273.417676 
L 164.746759 270.789984 
L 164.881247 260.744636 
L 165.284712 179.178789 
L 165.553688 104.894082 
L 165.688177 122.914769 
L 165.957153 109.687706 
L 166.091641 117.566464 
L 166.226129 115.495988 
L 166.495106 108.621381 
L 166.629594 122.680931 
L 166.89857 241.397229 
L 167.033059 241.881681 
L 167.167547 237.268395 
L 167.436523 256.005607 
L 167.571012 254.577779 
L 167.839988 264.356894 
L 167.974476 264.158187 
L 168.108964 263.632139 
L 168.243453 252.311299 
L 168.377941 226.972587 
L 168.781405 91.823989 
L 168.915894 110.048312 
L 169.050382 111.556129 
L 169.18487 107.243607 
L 169.319358 117.606438 
L 169.453847 96.493307 
L 169.588335 101.302322 
L 169.857311 165.678502 
L 169.991799 180.721941 
L 170.260776 248.351305 
L 170.529752 260.747974 
L 170.66424 260.119473 
L 170.798729 261.766535 
L 171.067705 259.147615 
L 171.202193 261.234776 
L 171.336681 265.19357 
L 171.740146 178.313859 
L 172.009123 95.690622 
L 172.278099 115.780293 
L 172.547075 99.270635 
L 172.95054 150.201075 
L 173.085028 153.712564 
L 173.488493 249.393322 
L 173.891958 267.171414 
L 174.026446 281.938967 
L 174.160934 279.637801 
L 174.295422 271.449487 
L 174.564399 274.171952 
L 174.967863 216.9794 
L 175.23684 155.828853 
L 175.505816 137.498439 
L 175.640304 139.889252 
L 175.774792 152.663542 
L 175.909281 153.558079 
L 176.312745 173.245373 
L 176.447234 192.103726 
L 176.71621 258.533268 
L 176.985186 268.447497 
L 177.254163 266.341494 
L 177.388651 269.161077 
L 177.523139 268.046087 
L 177.926604 274.251297 
L 178.061092 274.320137 
L 178.330069 256.974965 
L 178.464557 261.285367 
L 178.599045 254.361005 
L 178.868021 255.821437 
L 179.00251 259.38384 
L 179.271486 251.778183 
L 179.405974 255.416133 
L 179.674951 253.696953 
L 179.943927 263.669786 
L 180.078415 271.277244 
L 180.347392 265.218597 
L 180.616368 277.216862 
L 180.750856 274.681781 
L 180.885345 274.585856 
L 181.019833 275.456777 
L 181.154321 275.394379 
L 181.557786 262.112622 
L 181.692274 265.219997 
L 181.826762 265.074192 
L 181.96125 267.087318 
L 182.095738 259.713611 
L 182.230227 260.834238 
L 182.364715 267.008706 
L 182.633691 268.194226 
L 182.76818 272.160966 
L 183.037156 269.556975 
L 183.306132 277.158052 
L 183.440621 277.350614 
L 183.709597 268.118666 
L 183.978573 291.683726 
L 184.24755 281.625104 
L 184.516526 260.090451 
L 184.785503 174.07878 
L 184.919991 180.211936 
L 185.054479 174.764642 
L 185.188967 181.164047 
L 185.323456 176.7867 
L 185.457944 178.957665 
L 185.592432 183.042737 
L 185.72692 191.279968 
L 186.264873 258.473152 
L 186.668338 273.434406 
L 186.802826 275.205802 
L 187.206291 293.846839 
L 187.340779 286.571736 
L 187.475267 287.275967 
L 187.609755 281.969808 
L 187.744243 265.335322 
L 188.01322 173.856878 
L 188.147708 185.775388 
L 188.282196 179.792183 
L 188.416684 179.700709 
L 188.685661 185.415645 
L 188.820149 194.570271 
L 188.954637 192.842598 
L 189.223614 221.764378 
L 189.627078 271.515708 
L 189.896055 269.033018 
L 190.030543 274.301323 
L 190.299519 266.774684 
L 190.434008 269.223151 
L 190.568496 265.978538 
L 190.702984 267.383018 
L 190.971961 271.14241 
L 191.106449 267.597947 
L 191.240937 259.339557 
L 191.375425 262.857268 
L 191.509913 270.917763 
L 191.644402 264.249831 
L 191.913378 266.674288 
L 192.182354 249.202461 
L 192.316843 249.306054 
L 192.451331 255.453598 
L 192.585819 255.877929 
L 192.720307 258.172469 
L 192.854796 268.497497 
L 192.989284 268.784777 
L 193.392748 260.977035 
L 193.527237 260.560829 
L 193.796213 266.850666 
L 193.930701 266.517415 
L 194.199678 250.964258 
L 194.468654 166.483968 
L 194.603142 163.249472 
L 194.73763 150.15193 
L 194.872119 147.943774 
L 195.006607 142.865279 
L 195.141095 145.393334 
L 195.275583 151.936981 
L 195.410072 144.930588 
L 195.679048 177.152172 
L 195.948024 242.652267 
L 196.082513 261.585717 
L 196.217001 264.092155 
L 196.351489 262.585477 
L 196.485977 262.517064 
L 196.620465 275.011253 
L 196.754954 272.731794 
L 196.889442 266.948731 
L 197.158418 269.128086 
L 197.292907 265.972381 
L 197.427395 253.320572 
L 197.696371 173.206187 
L 197.830859 179.749741 
L 197.965348 192.143143 
L 198.099836 194.150472 
L 198.234324 189.991587 
L 198.368812 196.43951 
L 198.637789 183.027615 
L 199.31023 277.005638 
L 199.444718 277.979757 
L 199.579206 276.542741 
L 199.713694 277.974895 
L 199.848183 281.204666 
L 200.117159 278.397988 
L 200.251647 279.134722 
L 200.386135 276.762404 
L 200.520624 269.302025 
L 200.655112 269.365182 
L 200.7896 252.770562 
L 200.924088 186.625992 
L 201.193065 196.212654 
L 201.327553 195.666648 
L 201.462041 194.015397 
L 201.596529 199.985658 
L 201.731018 188.938656 
L 201.865506 187.488298 
L 202.26897 231.026303 
L 202.537947 271.728399 
L 202.672435 273.251478 
L 202.806923 272.814652 
L 202.941411 274.954514 
L 203.210388 262.049366 
L 203.344876 269.646014 
L 203.479364 270.410866 
L 203.882829 258.270854 
L 204.017317 235.613548 
L 204.286294 161.028771 
L 204.420782 159.630773 
L 204.55527 159.878928 
L 204.824246 168.352207 
L 204.958735 164.721156 
L 205.227711 193.754048 
L 205.900152 268.366788 
L 206.169129 264.144677 
L 206.303617 286.767517 
L 206.438105 285.784215 
L 206.572593 280.620187 
L 206.707081 283.39412 
L 206.84157 282.989942 
L 206.976058 282.099373 
L 207.110546 274.109928 
L 207.379522 254.93653 
L 207.648499 262.382534 
L 207.917475 275.039168 
L 208.051964 275.535171 
L 208.186452 270.210015 
L 208.455428 252.581304 
L 208.858893 273.403231 
L 209.127869 280.41307 
L 209.262357 279.91627 
L 209.396846 276.402653 
L 209.531334 264.991126 
L 209.80031 270.566828 
L 209.934799 269.709884 
L 210.069287 272.071097 
L 210.338263 248.131023 
L 210.741728 148.234603 
L 211.010704 118.905378 
L 211.145192 110.522156 
L 211.414169 135.948251 
L 211.683145 163.559277 
L 212.221098 258.827164 
L 212.355586 262.793519 
L 212.490075 260.348071 
L 212.893539 274.475339 
L 213.162516 268.243766 
L 213.297004 272.835368 
L 213.56598 237.59889 
L 213.834957 137.263556 
L 213.969445 119.677284 
L 214.103933 141.886729 
L 214.37291 138.205647 
L 214.507398 145.495736 
L 214.910862 190.386079 
L 215.045351 197.442179 
L 215.448815 271.019835 
L 215.583303 264.873849 
L 215.85228 266.101304 
L 215.986768 265.200112 
L 216.121256 268.291392 
L 216.255745 267.235377 
L 216.390233 267.568569 
L 216.524721 271.50091 
L 216.659209 263.562863 
L 216.793697 247.459993 
L 217.062674 144.706084 
L 217.197162 133.767089 
L 217.33165 151.514568 
L 217.466138 151.529332 
L 217.600627 157.805897 
L 217.735115 156.891372 
L 217.869603 147.557727 
L 218.004091 154.528126 
L 218.273068 215.697804 
L 218.407556 219.080857 
L 218.676532 268.090837 
L 218.945509 274.538751 
L 219.079997 261.159077 
L 219.214485 260.942936 
L 219.483462 272.136406 
L 219.752438 276.480976 
L 220.021414 247.363534 
L 220.290391 144.070522 
L 220.424879 147.221158 
L 220.559367 162.854894 
L 220.828344 149.666657 
L 220.962832 162.556333 
L 221.09732 161.903486 
L 221.366297 205.540057 
L 221.500785 208.94359 
L 221.635273 216.155523 
L 221.904249 270.692606 
L 222.038738 269.834365 
L 222.173226 273.388731 
L 222.442202 271.069338 
L 222.711179 277.798695 
L 222.845667 278.086425 
L 222.980155 279.004252 
L 223.114643 276.588056 
L 223.249132 278.20635 
L 223.518108 249.313607 
L 223.787084 267.490627 
L 224.056061 255.587225 
L 224.325037 256.06399 
L 224.459525 258.210523 
L 224.594014 257.969982 
L 224.86299 254.185094 
L 225.131967 262.439168 
L 225.266455 263.345528 
L 225.400943 260.767197 
L 225.669919 262.18574 
L 225.804408 260.091571 
L 226.207872 270.960537 
L 226.476849 272.431741 
L 226.880313 267.429834 
L 227.14929 274.021021 
L 227.283778 272.441175 
L 227.418266 268.165427 
L 227.687243 270.089253 
L 227.821731 270.465488 
L 227.956219 269.353925 
L 228.090707 269.361578 
L 228.225195 276.820971 
L 228.359684 276.913459 
L 228.62866 275.429662 
L 228.763148 274.07039 
L 228.897637 274.457797 
L 229.032125 269.46545 
L 229.166613 270.151038 
L 229.301101 272.770406 
L 229.435589 272.581161 
L 229.570078 260.773126 
L 229.704566 233.942488 
L 230.10803 106.907768 
L 230.242519 96.521737 
L 230.377007 96.852767 
L 230.511495 82.904378 
L 230.780471 138.9129 
L 230.91496 133.790759 
L 231.318424 207.003723 
L 231.587401 255.922945 
L 231.856377 263.842593 
L 232.125354 269.608558 
L 232.259842 269.120746 
L 232.528818 273.582103 
L 232.663306 270.348421 
L 232.932283 237.112518 
L 233.201259 139.524582 
L 233.335748 117.35229 
L 233.470236 121.643025 
L 233.604724 135.728794 
L 233.739212 130.480049 
L 233.8737 142.962333 
L 234.008189 132.579513 
L 234.142677 140.17795 
L 234.411653 207.072653 
L 234.546141 213.509824 
L 234.815118 267.4747 
L 234.949606 270.357368 
L 235.084094 264.933863 
L 235.622047 279.301932 
L 235.891024 273.218721 
L 236.16 248.037429 
L 236.428976 141.930721 
L 236.563465 120.104869 
L 236.697953 128.085714 
L 236.832441 124.884753 
L 236.966929 116.22455 
L 237.101417 124.784326 
L 237.370394 156.35593 
L 237.504882 169.032927 
L 237.908347 254.856426 
L 238.177323 269.503457 
L 238.311811 267.547151 
L 238.715276 272.501412 
L 238.984252 283.589593 
L 239.118741 279.241612 
L 239.253229 269.776198 
L 239.387717 242.070484 
L 239.656694 143.497752 
L 239.92567 123.244818 
L 240.060158 134.672074 
L 240.194646 133.012768 
L 240.329135 142.679313 
L 240.598111 174.216431 
L 240.867087 198.019827 
L 241.270552 260.454519 
L 241.40504 261.850255 
L 241.539529 261.800068 
L 241.674017 261.440703 
L 241.808505 260.721583 
L 242.077481 279.183995 
L 242.21197 283.713761 
L 242.346458 281.353254 
L 242.615434 242.852145 
L 242.884411 144.789283 
L 243.018899 136.702353 
L 243.153387 163.45313 
L 243.287875 157.32769 
L 243.422363 144.152547 
L 243.825828 166.659374 
L 243.960316 181.53919 
L 244.229293 240.843756 
L 244.498269 261.495818 
L 244.767246 269.969722 
L 244.901734 269.473784 
L 245.17071 275.699706 
L 245.305198 275.176841 
L 245.439687 274.954194 
L 245.574175 274.320072 
L 245.708663 272.455515 
L 245.843151 256.87633 
L 246.112128 266.967577 
L 246.515592 260.137941 
L 246.650081 261.222256 
L 246.919057 266.747849 
L 247.053545 269.270513 
L 247.188033 267.499813 
L 247.45701 271.073171 
L 247.591498 271.210751 
L 247.725986 270.647605 
L 247.860475 274.173872 
L 247.994963 272.519088 
L 248.129451 272.262922 
L 248.263939 273.557693 
L 248.398427 272.161493 
L 248.532916 272.824617 
L 248.667404 272.911458 
L 248.801892 275.048595 
L 248.93638 274.988626 
L 249.205357 274.36005 
L 249.474333 278.11912 
L 249.743309 276.277101 
L 250.012286 277.059447 
L 250.146774 276.163576 
L 250.281262 272.214637 
L 250.415751 271.545844 
L 250.550239 272.695375 
L 250.684727 271.405886 
L 251.088192 273.278049 
L 251.357168 269.982379 
L 251.491656 271.108422 
L 251.626144 286.416687 
L 251.760633 285.388153 
L 251.895121 280.380245 
L 252.029609 280.368491 
L 252.298586 254.970701 
L 252.567562 149.33116 
L 252.70205 130.40023 
L 252.836538 142.479441 
L 252.971027 165.372006 
L 253.105515 154.031321 
L 253.508979 176.589362 
L 253.643468 180.034179 
L 254.046932 259.415467 
L 254.450397 280.372522 
L 254.584885 282.22963 
L 254.719373 280.848259 
L 254.853862 286.138328 
L 254.98835 284.486337 
L 255.122838 284.395138 
L 255.257326 285.138262 
L 255.526303 242.659504 
L 255.795279 152.963075 
L 256.064255 173.508117 
L 256.333232 157.010812 
L 256.736697 167.313169 
L 257.140161 230.287435 
L 257.409138 257.86659 
L 257.543626 266.225247 
L 257.812602 264.091213 
L 257.94709 264.713996 
L 258.216067 286.339298 
L 258.485043 277.612016 
L 258.75402 247.924933 
L 259.022996 150.158234 
L 259.291973 172.980139 
L 259.426461 166.577782 
L 259.560949 150.617007 
L 259.829925 175.876223 
L 259.964414 159.534476 
L 260.098902 172.289515 
L 260.367878 224.419685 
L 260.636855 257.892179 
L 260.905831 265.652638 
L 261.174808 260.863927 
L 261.309296 269.598455 
L 261.578272 272.535674 
L 261.71276 269.820817 
L 261.847249 263.901895 
L 261.981737 240.622867 
L 262.250713 147.447489 
L 262.51969 166.121958 
L 262.654178 145.248853 
L 262.788666 146.626599 
L 262.923154 155.41259 
L 263.057643 153.290234 
L 263.864572 250.678016 
L 264.133548 258.972849 
L 264.268036 258.388292 
L 264.402525 267.085527 
L 264.671501 262.836407 
L 264.805989 263.993996 
L 265.074966 259.348601 
L 265.209454 243.922191 
L 265.747407 109.476593 
L 265.881895 109.141275 
L 266.016383 107.291417 
L 266.150871 118.894128 
L 266.28536 117.137591 
L 266.419848 117.400693 
L 266.554336 130.296771 
L 267.226777 255.121639 
L 267.361265 255.580089 
L 267.495754 257.631167 
L 267.630242 271.92536 
L 267.76473 271.803027 
L 267.899218 268.971251 
L 268.033706 269.519742 
L 268.302683 276.102449 
L 268.437171 275.896414 
L 268.571659 270.654985 
L 268.706147 272.910318 
L 268.840636 277.956435 
L 269.109612 271.923502 
L 269.2441 272.16867 
L 269.378589 271.67787 
L 269.782053 255.634534 
L 269.916541 256.426744 
L 270.05103 255.180819 
L 270.454494 259.638238 
L 270.723471 265.215382 
L 270.857959 280.303288 
L 270.992447 281.048194 
L 271.126935 275.13652 
L 271.395912 276.189324 
L 271.5304 275.640841 
L 271.664888 276.582345 
L 271.799376 276.447487 
L 272.068353 278.909366 
L 272.202841 279.022946 
L 272.337329 277.904055 
L 272.471817 279.125344 
L 272.606306 278.11275 
L 272.740794 274.687326 
L 272.875282 275.30524 
L 273.278747 271.307122 
L 273.413235 271.406964 
L 273.682211 275.975337 
L 273.8167 275.797722 
L 274.085676 272.476533 
L 274.220164 291.49428 
L 274.354652 293.682854 
L 274.623629 284.752022 
L 274.892605 255.167065 
L 275.161582 184.153093 
L 275.430558 155.913056 
L 275.565046 152.867098 
L 275.834023 153.984954 
L 276.506464 239.763076 
L 276.909928 272.356088 
L 277.044417 272.81062 
L 277.178905 276.327852 
L 277.313393 274.441254 
L 277.447881 281.108803 
L 277.58237 281.736629 
L 277.716858 283.355681 
L 277.851346 282.779759 
L 277.985834 276.23012 
L 278.120322 263.195854 
L 278.389299 200.678769 
L 278.523787 197.000048 
L 278.658275 182.32177 
L 278.792763 186.457349 
L 278.927252 177.732248 
L 279.06174 193.317686 
L 279.196228 192.373774 
L 279.330716 197.921474 
L 280.137646 275.149735 
L 280.406622 277.254063 
L 280.54111 259.753226 
L 280.675598 257.091107 
L 280.810087 263.793592 
L 280.944575 264.715702 
L 281.079063 263.695523 
L 281.348039 249.037171 
L 281.751504 133.607964 
L 281.885992 122.778459 
L 282.020481 126.363519 
L 282.289457 145.31491 
L 282.423945 123.854601 
L 282.558433 126.866384 
L 282.961898 218.124286 
L 283.230874 262.357624 
L 283.365363 263.508061 
L 283.499851 261.86806 
L 283.634339 262.408507 
L 283.903316 257.513595 
L 284.037804 258.191307 
L 284.172292 260.320962 
L 284.30678 260.302789 
L 284.575757 248.702279 
L 284.979221 147.638632 
L 285.113709 155.391461 
L 285.248198 140.16068 
L 285.382686 140.108957 
L 285.517174 143.030127 
L 285.651662 160.124414 
L 285.78615 154.619426 
L 285.920639 154.166706 
L 286.324103 250.97522 
L 286.59308 261.50442 
L 286.727568 262.841501 
L 286.862056 260.089196 
L 286.996544 286.672773 
L 287.131033 287.071085 
L 287.265521 274.183086 
L 287.400009 275.17056 
L 287.668985 271.093923 
L 287.803474 266.080764 
L 287.937962 268.193606 
L 288.206938 275.089915 
L 288.475915 270.513611 
L 288.610403 268.328894 
L 288.744891 268.822271 
L 289.148356 265.481452 
L 289.282844 261.748459 
L 289.55182 277.412585 
L 289.955285 273.282846 
L 290.089773 276.613582 
L 290.224262 274.732901 
L 290.35875 276.436293 
L 290.493238 275.854123 
L 290.627726 276.51004 
L 290.762214 274.912742 
L 291.165679 251.078874 
L 291.434655 174.910118 
L 291.83812 192.19417 
L 292.107096 175.061246 
L 292.376073 198.224217 
L 292.510561 209.322573 
L 292.914026 269.04484 
L 293.183002 271.412392 
L 293.31749 271.538253 
L 293.451979 268.296526 
L 293.586467 268.597313 
L 293.720955 267.657982 
L 293.989931 271.106152 
L 294.258908 257.609816 
L 294.393396 237.326816 
L 294.662373 170.993768 
L 295.065837 142.749626 
L 295.200325 141.164325 
L 295.334814 147.877127 
L 295.469302 143.849741 
L 295.738278 197.205751 
L 295.872766 208.754319 
L 296.141743 262.847518 
L 296.276231 264.840335 
L 296.410719 261.315848 
L 296.545208 263.956601 
L 296.679696 291.347233 
L 296.814184 289.450854 
L 296.948672 280.86815 
L 297.217649 280.566697 
L 297.352137 281.099776 
L 297.486625 278.467051 
L 297.621113 279.971362 
L 297.755601 284.414028 
L 297.89009 285.136866 
L 298.159066 277.335918 
L 298.293554 278.165503 
L 298.428042 279.84642 
L 298.562531 278.518598 
L 298.831507 263.083571 
L 299.100484 268.218986 
L 299.234972 269.755593 
L 299.503948 276.71555 
L 299.638436 274.013585 
L 299.772925 275.987014 
L 299.907413 258.316934 
L 300.176389 269.594339 
L 300.310877 268.732981 
L 300.445366 268.898495 
L 300.714342 243.72132 
L 301.117807 144.877202 
L 301.386783 125.302153 
L 301.521271 128.983937 
L 301.65576 136.235182 
L 301.790248 131.242519 
L 301.924736 144.006745 
L 302.193712 205.297022 
L 302.328201 213.324865 
L 302.597177 257.669357 
L 302.731665 262.303489 
L 302.866153 258.744492 
L 303.13513 270.547859 
L 303.404106 263.787992 
L 303.538595 267.399564 
L 303.673083 267.54076 
L 304.076547 199.245202 
L 304.211036 156.979421 
L 304.345524 158.266182 
L 304.480012 161.809446 
L 304.748988 153.158151 
L 304.883477 158.336748 
L 305.017965 150.151559 
L 305.152453 157.465055 
L 305.555918 221.048574 
L 305.959382 269.246102 
L 306.228359 265.177598 
L 306.362847 265.392698 
L 306.497335 277.09312 
L 306.631823 279.084464 
L 306.766312 274.718864 
L 306.9008 274.384837 
L 307.035288 264.8508 
L 307.169776 239.794382 
L 307.438753 149.450142 
L 307.707729 173.060765 
L 307.976706 157.226687 
L 308.111194 161.18337 
L 308.245682 153.825533 
L 308.38017 159.971576 
L 309.052611 265.15826 
L 309.187099 271.675073 
L 309.321588 270.467906 
L 309.725052 275.175022 
L 310.128517 273.888102 
L 310.263005 266.070113 
L 310.397493 238.009124 
L 310.66647 149.393478 
L 310.800958 157.122623 
L 310.935446 171.944501 
L 311.069934 169.020718 
L 311.204423 158.680914 
L 311.338911 161.873219 
L 311.473399 160.593364 
L 311.607887 155.773152 
L 311.742376 175.690081 
L 311.876864 226.614057 
L 312.14584 246.48624 
L 312.414817 268.116794 
L 312.549305 265.625534 
L 312.952769 272.001199 
L 313.087258 270.54713 
L 313.221746 271.800754 
L 313.356234 271.732807 
L 313.490722 272.894343 
L 313.894187 250.672373 
L 314.028675 259.684536 
L 314.163163 258.268194 
L 314.297652 258.903439 
L 314.43214 255.885913 
L 314.701116 264.903259 
L 314.835604 263.146607 
L 314.970093 264.181422 
L 315.104581 268.125566 
L 315.239069 267.758935 
L 315.373557 266.491648 
L 315.642534 269.977983 
L 315.777022 269.828763 
L 315.91151 269.245331 
L 316.314975 272.366927 
L 316.449463 271.617295 
L 316.718439 272.692701 
L 316.852928 272.736228 
L 316.987416 273.02245 
L 317.121904 274.467388 
L 317.659857 270.268837 
L 317.794345 272.610261 
L 318.063322 266.468462 
L 318.19781 265.928613 
L 318.332298 266.51822 
L 318.466786 264.983825 
L 318.601274 266.082474 
L 318.735763 266.10987 
L 318.870251 267.756869 
L 319.004739 267.8195 
L 319.139227 263.814837 
L 319.273715 264.886635 
L 319.408204 281.760014 
L 319.542692 282.429788 
L 319.67718 276.798093 
L 319.811668 276.886949 
L 319.946157 271.301867 
L 320.080645 251.513334 
L 320.349621 149.171629 
L 320.618598 127.616021 
L 320.753086 142.886105 
L 320.887574 141.975737 
L 321.15655 156.068844 
L 321.694503 219.594574 
L 321.96348 268.266263 
L 322.097968 267.864442 
L 322.232456 264.636285 
L 322.501433 267.753079 
L 322.635921 281.930541 
L 322.770409 283.444806 
L 323.173874 262.354073 
L 323.308362 250.514283 
L 323.577338 152.002202 
L 323.711826 158.373505 
L 323.846315 177.220847 
L 324.115291 154.726169 
L 324.249779 154.35936 
L 324.384268 155.044938 
L 324.518756 160.091711 
L 325.191197 265.573727 
L 325.325685 265.37127 
L 325.460173 262.463371 
L 325.72915 267.503858 
L 325.998126 281.382652 
L 326.267103 277.68001 
L 326.401591 269.947333 
L 326.536079 247.502377 
L 326.805055 147.561026 
L 326.939544 156.761295 
L 327.074032 178.06257 
L 327.343008 160.042983 
L 327.477496 163.772676 
L 327.611985 162.308389 
L 327.746473 162.477177 
L 327.880961 173.237701 
L 328.149937 230.38597 
L 328.68789 268.092397 
L 328.822379 271.451291 
L 328.956867 271.612542 
L 329.091355 284.620894 
L 329.225843 283.862427 
L 329.49482 276.861672 
L 329.763796 246.796758 
L 330.032772 159.978218 
L 330.167261 161.968612 
L 330.301749 174.823325 
L 330.705214 156.478817 
L 330.97419 182.645226 
L 331.108678 186.86862 
L 331.243166 197.048854 
L 331.646631 263.447942 
L 331.781119 265.539131 
L 331.915607 263.634553 
L 332.050096 263.493115 
L 332.184584 267.987639 
L 332.319072 283.769664 
L 332.45356 282.880651 
L 332.588049 275.054595 
L 332.722537 276.029355 
L 332.857025 265.628985 
L 332.991513 246.054655 
L 333.26049 156.0456 
L 333.394978 161.370802 
L 333.529466 182.507786 
L 333.798442 164.472226 
L 333.932931 162.708127 
L 334.067419 166.333612 
L 334.470883 202.995945 
L 334.73986 260.107677 
L 334.874348 267.257925 
L 335.008836 267.299804 
L 335.277813 273.488045 
L 335.546789 270.205708 
L 335.681277 270.461532 
L 335.815766 270.162386 
L 336.084742 273.141538 
L 336.488207 262.049409 
L 336.757183 255.231008 
L 336.891671 256.556656 
L 337.02616 255.337499 
L 337.429624 261.938126 
L 337.564112 262.358571 
L 337.833089 266.433242 
L 337.967577 264.967257 
L 338.236553 269.63824 
L 338.371042 268.305746 
L 338.50553 268.765353 
L 338.640018 265.811957 
L 338.774506 266.470752 
L 338.908995 268.590785 
L 339.043483 268.680197 
L 339.312459 271.07449 
L 339.446947 270.368769 
L 339.715924 273.236014 
L 340.119388 269.215428 
L 340.253877 270.666877 
L 340.388365 270.254715 
L 340.522853 273.20501 
L 340.791829 267.035831 
L 341.060806 269.001556 
L 341.195294 264.918971 
L 341.464271 272.16884 
L 341.598759 271.098101 
L 341.733247 268.06351 
L 341.867735 270.772295 
L 342.002223 284.360756 
L 342.136712 283.498476 
L 342.2712 278.347724 
L 342.405688 279.330754 
L 342.674664 249.222971 
L 343.078129 136.327559 
L 343.347106 173.857576 
L 343.481594 167.23284 
L 343.616082 168.752867 
L 343.75057 173.326896 
L 344.154035 197.383026 
L 344.423011 261.934515 
L 344.557499 266.116608 
L 344.691988 262.992289 
L 344.960964 273.012324 
L 345.095452 270.28051 
L 345.22994 280.806602 
L 345.364429 281.256274 
L 345.633405 277.009221 
L 345.767893 267.557843 
L 345.902382 247.498409 
L 346.171358 159.073172 
L 346.440334 179.309715 
L 346.709311 167.761376 
L 346.978287 171.521816 
L 347.247264 183.05725 
L 347.785217 262.535991 
L 348.188681 271.282451 
L 348.323169 270.056844 
L 348.457658 281.623051 
L 348.592146 282.402335 
L 348.861122 278.999512 
L 349.130099 247.710287 
L 349.399075 158.815129 
L 349.533563 169.723643 
L 349.668052 170.182675 
L 349.937028 162.234903 
L 350.206004 168.020549 
L 350.474981 186.146671 
L 350.743957 236.101549 
L 351.147422 270.785882 
L 351.28191 269.056294 
L 351.416398 269.996681 
L 351.550886 272.476336 
L 351.685375 285.381035 
L 351.819863 282.551875 
L 351.954351 277.03059 
L 352.088839 277.55425 
L 352.223328 273.737863 
L 352.357816 255.387538 
L 352.626792 155.423022 
L 352.895769 176.904549 
L 353.030257 173.190158 
L 353.164745 164.631904 
L 353.299233 168.875465 
L 353.56821 161.025896 
L 353.702698 149.351775 
L 354.106163 257.269525 
L 354.375139 272.632297 
L 354.509627 270.854658 
L 354.644115 271.130977 
L 354.913092 280.351272 
L 355.316556 278.303816 
L 355.451045 272.216125 
L 355.585533 250.078419 
L 355.854509 181.087773 
L 355.988998 182.534731 
L 356.257974 155.205358 
L 356.930415 181.804259 
L 357.199391 240.120277 
L 357.468368 272.543201 
L 357.602856 277.375136 
L 357.737344 275.292146 
L 357.871832 276.387167 
L 358.006321 280.170062 
L 358.275297 277.681242 
L 358.409785 278.687562 
L 358.544274 278.461444 
L 358.81325 275.301052 
L 359.216715 253.318395 
L 359.351203 253.449181 
L 359.485691 254.961203 
L 359.620179 248.591974 
L 359.889156 265.778421 
L 360.023644 261.318613 
L 360.29262 270.387284 
L 360.427109 277.058899 
L 360.696085 274.767769 
L 360.965061 277.994356 
L 361.09955 278.796712 
L 361.503014 277.654552 
L 361.637502 279.254995 
L 361.771991 278.922283 
L 361.906479 277.092437 
L 362.175455 282.039956 
L 362.309944 280.656448 
L 362.444432 276.031636 
L 362.57892 276.168855 
L 362.713408 274.771431 
L 362.982385 278.593564 
L 363.251361 272.816201 
L 363.385849 273.718388 
L 363.520337 275.792652 
L 363.789314 274.347102 
L 364.05829 276.477646 
L 364.192778 276.693005 
L 364.327267 227.927075 
L 364.461755 229.808373 
L 364.596243 251.830747 
L 364.730731 251.412411 
L 364.86522 257.116151 
L 364.999708 253.890944 
L 365.268684 193.812656 
L 365.537661 118.703515 
L 365.672149 103.122582 
L 365.806637 103.828098 
L 365.941125 101.632624 
L 366.075613 111.070875 
L 366.210102 102.338721 
L 366.613566 140.532416 
L 366.882543 240.78419 
L 367.151519 256.283382 
L 367.286007 259.605531 
L 367.420496 255.372764 
L 367.689472 268.725756 
L 367.82396 264.822786 
L 368.092937 270.263325 
L 368.63089 133.464512 
L 368.765378 94.250176 
L 368.899866 97.509706 
L 369.034354 94.707934 
L 369.303331 82.416417 
L 369.437819 86.59699 
L 369.572307 106.573158 
L 369.706795 102.167782 
L 369.841283 131.670152 
L 370.11026 236.832443 
L 370.244748 238.553341 
L 370.379236 243.714215 
L 370.648213 262.295289 
L 370.782701 286.018499 
L 370.917189 287.467041 
L 371.051677 276.865 
L 371.186166 277.715146 
L 371.320654 276.446217 
L 371.58963 242.387505 
L 371.858607 156.650916 
L 371.993095 154.116934 
L 372.262071 216.688561 
L 372.396559 196.151263 
L 372.531048 194.348627 
L 372.800024 186.634391 
L 372.934512 194.410915 
L 373.069001 231.46071 
L 373.203489 236.717508 
L 373.606953 265.366456 
L 373.87593 268.542948 
L 374.144906 295.488 
L 374.413883 285.923077 
L 374.548371 285.01196 
L 374.817347 246.981265 
L 375.086324 191.967722 
L 375.3553 171.852146 
L 375.489788 176.512432 
L 375.624277 174.437656 
L 375.758765 178.00073 
L 376.162229 201.702759 
L 376.431206 238.499474 
L 376.700182 267.60307 
L 376.83467 269.011523 
L 376.969159 266.9472 
L 377.103647 267.676566 
L 377.238135 285.109644 
L 377.507112 276.261566 
L 377.6416 278.562655 
L 377.776088 273.859976 
L 377.910576 279.080222 
L 378.314041 262.059033 
L 378.448529 264.623297 
L 378.717505 256.457046 
L 378.986482 268.113125 
L 379.255458 261.151749 
L 379.524435 264.432266 
L 379.793411 274.082173 
L 379.927899 274.938208 
L 380.062388 277.606046 
L 380.196876 276.071463 
L 380.331364 276.886055 
L 380.465852 264.338548 
L 380.60034 264.977128 
L 380.869317 271.66638 
L 381.003805 271.855249 
L 381.272782 255.300165 
L 381.40727 219.540239 
L 381.541758 151.26069 
L 381.676246 142.166886 
L 381.810734 142.180821 
L 381.945223 141.36242 
L 382.079711 144.408852 
L 382.214199 143.640659 
L 382.348687 146.118324 
L 382.483175 139.810733 
L 383.290105 267.974296 
L 383.424593 268.918014 
L 383.559081 268.864829 
L 383.828058 259.91651 
L 384.231522 263.953532 
L 384.36601 261.5419 
L 384.500499 261.553226 
L 384.903963 155.929438 
L 385.038451 161.88244 
L 385.17294 141.061449 
L 385.307428 146.209842 
L 385.441916 169.461914 
L 385.576404 170.38479 
L 385.710893 166.59063 
L 385.979869 211.769773 
L 386.383334 268.977851 
L 386.517822 269.846422 
L 386.65231 272.868223 
L 386.786798 271.317639 
L 386.921286 280.346024 
L 387.055775 280.759516 
L 387.190263 274.189417 
L 387.324751 276.260937 
L 387.459239 275.267771 
L 387.593727 272.660634 
L 387.728216 274.008368 
L 387.997192 281.890025 
L 388.266169 278.415798 
L 388.400657 276.478445 
L 388.669633 277.286795 
L 388.804121 272.237204 
L 388.93861 272.214805 
L 389.073098 267.552374 
L 389.207586 269.602382 
L 389.611051 287.197096 
L 389.745539 283.002412 
L 389.880027 282.36011 
L 390.014515 282.897021 
L 390.149004 253.730275 
L 390.283492 254.318807 
L 390.41798 264.913743 
L 390.552468 264.777632 
L 390.686956 265.44635 
L 390.955933 250.787405 
L 391.090421 242.791765 
L 391.359397 175.291354 
L 391.493886 155.978761 
L 391.628374 155.507288 
L 391.89735 173.20026 
L 392.031839 175.253709 
L 392.166327 165.507323 
L 392.300815 173.494995 
L 392.838768 274.383533 
L 392.973256 273.87349 
L 393.107744 270.523475 
L 393.242232 270.082649 
L 393.511209 254.774957 
L 393.780185 269.97961 
L 393.914673 261.078474 
L 394.049162 261.42626 
L 394.18365 246.482599 
L 394.587115 154.588782 
L 394.721603 156.115272 
L 394.856091 143.02399 
L 394.990579 146.348813 
L 395.259556 142.62486 
L 395.528532 164.089144 
L 395.797508 222.193827 
L 396.066485 258.949643 
L 396.200973 265.107754 
L 396.335461 263.316881 
L 396.46995 254.159006 
L 396.604438 288.808121 
L 396.738926 292.083407 
L 396.873414 280.292308 
L 397.142391 282.039712 
L 397.411367 251.064552 
L 397.680343 172.99819 
L 397.814832 179.003573 
L 398.218296 157.559938 
L 398.352785 164.686432 
L 398.487273 161.490327 
L 398.487273 161.490327 
" clip-path="url(#pcf56b9f808)" style="fill: none; stroke: #ff7f0e; stroke-width: 1.5; stroke-linecap: square"/>
   </g>
   <g id="patch_3">
    <path d="M 57.6 307.584 
L 57.6 41.472 
" style="fill: none; stroke: #000000; stroke-width: 0.8; stroke-linejoin: miter; stroke-linecap: square"/>
   </g>
   <g id="patch_4">
    <path d="M 414.72 307.584 
L 414.72 41.472 
" style="fill: none; stroke: #000000; stroke-width: 0.8; stroke-linejoin: miter; stroke-linecap: square"/>
   </g>
   <g id="patch_5">
    <path d="M 57.6 307.584 
L 414.72 307.584 
" style="fill: none; stroke: #000000; stroke-width: 0.8; stroke-linejoin: miter; stroke-linecap: square"/>
   </g>
   <g id="patch_6">
    <path d="M 57.6 41.472 
L 414.72 41.472 
" style="fill: none; stroke: #000000; stroke-width: 0.8; stroke-linejoin: miter; stroke-linecap: square"/>
   </g>
  </g>
 </g>
 <defs>
  <clipPath id="pcf56b9f808">
   <rect x="57.6" y="41.472" width="357.12" height="266.112"/>
  </clipPath>
 </defs>
</svg>
