<?xml version="1.0" encoding="utf-8" standalone="no"?>
<!DOCTYPE svg PUBLIC "-//W3C//DTD SVG 1.1//EN"
  "http://www.w3.org/Graphics/SVG/1.1/DTD/svg11.dtd">
<svg xmlns:xlink="http://www.w3.org/1999/xlink" width="460.8pt" height="345.6pt" viewBox="0 0 460.8 345.6" xmlns="http://www.w3.org/2000/svg" version="1.1">
 <metadata>
  <rdf:RDF xmlns:dc="http://purl.org/dc/elements/1.1/" xmlns:cc="http://creativecommons.org/ns#" xmlns:rdf="http://www.w3.org/1999/02/22-rdf-syntax-ns#">
   <cc:Work>
    <dc:type rdf:resource="http://purl.org/dc/dcmitype/StillImage"/>
    <dc:date>2023-04-04T01:26:44.830046</dc:date>
    <dc:format>image/svg+xml</dc:format>
    <dc:creator>
     <cc:Agent>
      <dc:title>Matplotlib v3.5.2, https://matplotlib.org/</dc:title>
     </cc:Agent>
    </dc:creator>
   </cc:Work>
  </rdf:RDF>
 </metadata>
 <defs>
  <style type="text/css">*{stroke-linejoin: round; stroke-linecap: butt}</style>
 </defs>
 <g id="figure_1">
  <g id="patch_1">
   <path d="M 0 345.6 
L 460.8 345.6 
L 460.8 0 
L 0 0 
z
" style="fill: #ffffff"/>
  </g>
  <g id="axes_1">
   <g id="patch_2">
    <path d="M 57.6 307.584 
L 414.72 307.584 
L 414.72 41.472 
L 57.6 41.472 
z
" style="fill: #ffffff"/>
   </g>
   <g id="matplotlib.axis_1">
    <g id="xtick_1">
     <g id="line2d_1">
      <defs>
       <path id="m65c5d9c350" d="M 0 0 
L 0 3.5 
" style="stroke: #000000; stroke-width: 0.8"/>
      </defs>
      <g>
       <use xlink:href="#m65c5d9c350" x="73.832727" y="307.584" style="stroke: #000000; stroke-width: 0.8"/>
      </g>
     </g>
     <g id="text_1">
      <!-- 0 -->
      <g transform="translate(70.651477 322.182437)scale(0.1 -0.1)">
       <defs>
        <path id="DejaVuSans-30" d="M 2034 4250 
Q 1547 4250 1301 3770 
Q 1056 3291 1056 2328 
Q 1056 1369 1301 889 
Q 1547 409 2034 409 
Q 2525 409 2770 889 
Q 3016 1369 3016 2328 
Q 3016 3291 2770 3770 
Q 2525 4250 2034 4250 
z
M 2034 4750 
Q 2819 4750 3233 4129 
Q 3647 3509 3647 2328 
Q 3647 1150 3233 529 
Q 2819 -91 2034 -91 
Q 1250 -91 836 529 
Q 422 1150 422 2328 
Q 422 3509 836 4129 
Q 1250 4750 2034 4750 
z
" transform="scale(0.015625)"/>
       </defs>
       <use xlink:href="#DejaVuSans-30"/>
      </g>
     </g>
    </g>
    <g id="xtick_2">
     <g id="line2d_2">
      <g>
       <use xlink:href="#m65c5d9c350" x="141.076834" y="307.584" style="stroke: #000000; stroke-width: 0.8"/>
      </g>
     </g>
     <g id="text_2">
      <!-- 500 -->
      <g transform="translate(131.533084 322.182437)scale(0.1 -0.1)">
       <defs>
        <path id="DejaVuSans-35" d="M 691 4666 
L 3169 4666 
L 3169 4134 
L 1269 4134 
L 1269 2991 
Q 1406 3038 1543 3061 
Q 1681 3084 1819 3084 
Q 2600 3084 3056 2656 
Q 3513 2228 3513 1497 
Q 3513 744 3044 326 
Q 2575 -91 1722 -91 
Q 1428 -91 1123 -41 
Q 819 9 494 109 
L 494 744 
Q 775 591 1075 516 
Q 1375 441 1709 441 
Q 2250 441 2565 725 
Q 2881 1009 2881 1497 
Q 2881 1984 2565 2268 
Q 2250 2553 1709 2553 
Q 1456 2553 1204 2497 
Q 953 2441 691 2322 
L 691 4666 
z
" transform="scale(0.015625)"/>
       </defs>
       <use xlink:href="#DejaVuSans-35"/>
       <use xlink:href="#DejaVuSans-30" x="63.623047"/>
       <use xlink:href="#DejaVuSans-30" x="127.246094"/>
      </g>
     </g>
    </g>
    <g id="xtick_3">
     <g id="line2d_3">
      <g>
       <use xlink:href="#m65c5d9c350" x="208.32094" y="307.584" style="stroke: #000000; stroke-width: 0.8"/>
      </g>
     </g>
     <g id="text_3">
      <!-- 1000 -->
      <g transform="translate(195.59594 322.182437)scale(0.1 -0.1)">
       <defs>
        <path id="DejaVuSans-31" d="M 794 531 
L 1825 531 
L 1825 4091 
L 703 3866 
L 703 4441 
L 1819 4666 
L 2450 4666 
L 2450 531 
L 3481 531 
L 3481 0 
L 794 0 
L 794 531 
z
" transform="scale(0.015625)"/>
       </defs>
       <use xlink:href="#DejaVuSans-31"/>
       <use xlink:href="#DejaVuSans-30" x="63.623047"/>
       <use xlink:href="#DejaVuSans-30" x="127.246094"/>
       <use xlink:href="#DejaVuSans-30" x="190.869141"/>
      </g>
     </g>
    </g>
    <g id="xtick_4">
     <g id="line2d_4">
      <g>
       <use xlink:href="#m65c5d9c350" x="275.565046" y="307.584" style="stroke: #000000; stroke-width: 0.8"/>
      </g>
     </g>
     <g id="text_4">
      <!-- 1500 -->
      <g transform="translate(262.840046 322.182437)scale(0.1 -0.1)">
       <use xlink:href="#DejaVuSans-31"/>
       <use xlink:href="#DejaVuSans-35" x="63.623047"/>
       <use xlink:href="#DejaVuSans-30" x="127.246094"/>
       <use xlink:href="#DejaVuSans-30" x="190.869141"/>
      </g>
     </g>
    </g>
    <g id="xtick_5">
     <g id="line2d_5">
      <g>
       <use xlink:href="#m65c5d9c350" x="342.809153" y="307.584" style="stroke: #000000; stroke-width: 0.8"/>
      </g>
     </g>
     <g id="text_5">
      <!-- 2000 -->
      <g transform="translate(330.084153 322.182437)scale(0.1 -0.1)">
       <defs>
        <path id="DejaVuSans-32" d="M 1228 531 
L 3431 531 
L 3431 0 
L 469 0 
L 469 531 
Q 828 903 1448 1529 
Q 2069 2156 2228 2338 
Q 2531 2678 2651 2914 
Q 2772 3150 2772 3378 
Q 2772 3750 2511 3984 
Q 2250 4219 1831 4219 
Q 1534 4219 1204 4116 
Q 875 4013 500 3803 
L 500 4441 
Q 881 4594 1212 4672 
Q 1544 4750 1819 4750 
Q 2544 4750 2975 4387 
Q 3406 4025 3406 3419 
Q 3406 3131 3298 2873 
Q 3191 2616 2906 2266 
Q 2828 2175 2409 1742 
Q 1991 1309 1228 531 
z
" transform="scale(0.015625)"/>
       </defs>
       <use xlink:href="#DejaVuSans-32"/>
       <use xlink:href="#DejaVuSans-30" x="63.623047"/>
       <use xlink:href="#DejaVuSans-30" x="127.246094"/>
       <use xlink:href="#DejaVuSans-30" x="190.869141"/>
      </g>
     </g>
    </g>
    <g id="xtick_6">
     <g id="line2d_6">
      <g>
       <use xlink:href="#m65c5d9c350" x="410.053259" y="307.584" style="stroke: #000000; stroke-width: 0.8"/>
      </g>
     </g>
     <g id="text_6">
      <!-- 2500 -->
      <g transform="translate(397.328259 322.182437)scale(0.1 -0.1)">
       <use xlink:href="#DejaVuSans-32"/>
       <use xlink:href="#DejaVuSans-35" x="63.623047"/>
       <use xlink:href="#DejaVuSans-30" x="127.246094"/>
       <use xlink:href="#DejaVuSans-30" x="190.869141"/>
      </g>
     </g>
    </g>
   </g>
   <g id="matplotlib.axis_2">
    <g id="ytick_1">
     <g id="line2d_7">
      <defs>
       <path id="m0116ab3d25" d="M 0 0 
L -3.5 0 
" style="stroke: #000000; stroke-width: 0.8"/>
      </defs>
      <g>
       <use xlink:href="#m0116ab3d25" x="57.6" y="283.017005" style="stroke: #000000; stroke-width: 0.8"/>
      </g>
     </g>
     <g id="text_7">
      <!-- 100 -->
      <g transform="translate(31.5125 286.816223)scale(0.1 -0.1)">
       <use xlink:href="#DejaVuSans-31"/>
       <use xlink:href="#DejaVuSans-30" x="63.623047"/>
       <use xlink:href="#DejaVuSans-30" x="127.246094"/>
      </g>
     </g>
    </g>
    <g id="ytick_2">
     <g id="line2d_8">
      <g>
       <use xlink:href="#m0116ab3d25" x="57.6" y="234.6691" style="stroke: #000000; stroke-width: 0.8"/>
      </g>
     </g>
     <g id="text_8">
      <!-- 200 -->
      <g transform="translate(31.5125 238.468318)scale(0.1 -0.1)">
       <use xlink:href="#DejaVuSans-32"/>
       <use xlink:href="#DejaVuSans-30" x="63.623047"/>
       <use xlink:href="#DejaVuSans-30" x="127.246094"/>
      </g>
     </g>
    </g>
    <g id="ytick_3">
     <g id="line2d_9">
      <g>
       <use xlink:href="#m0116ab3d25" x="57.6" y="186.321194" style="stroke: #000000; stroke-width: 0.8"/>
      </g>
     </g>
     <g id="text_9">
      <!-- 300 -->
      <g transform="translate(31.5125 190.120413)scale(0.1 -0.1)">
       <defs>
        <path id="DejaVuSans-33" d="M 2597 2516 
Q 3050 2419 3304 2112 
Q 3559 1806 3559 1356 
Q 3559 666 3084 287 
Q 2609 -91 1734 -91 
Q 1441 -91 1130 -33 
Q 819 25 488 141 
L 488 750 
Q 750 597 1062 519 
Q 1375 441 1716 441 
Q 2309 441 2620 675 
Q 2931 909 2931 1356 
Q 2931 1769 2642 2001 
Q 2353 2234 1838 2234 
L 1294 2234 
L 1294 2753 
L 1863 2753 
Q 2328 2753 2575 2939 
Q 2822 3125 2822 3475 
Q 2822 3834 2567 4026 
Q 2313 4219 1838 4219 
Q 1578 4219 1281 4162 
Q 984 4106 628 3988 
L 628 4550 
Q 988 4650 1302 4700 
Q 1616 4750 1894 4750 
Q 2613 4750 3031 4423 
Q 3450 4097 3450 3541 
Q 3450 3153 3228 2886 
Q 3006 2619 2597 2516 
z
" transform="scale(0.015625)"/>
       </defs>
       <use xlink:href="#DejaVuSans-33"/>
       <use xlink:href="#DejaVuSans-30" x="63.623047"/>
       <use xlink:href="#DejaVuSans-30" x="127.246094"/>
      </g>
     </g>
    </g>
    <g id="ytick_4">
     <g id="line2d_10">
      <g>
       <use xlink:href="#m0116ab3d25" x="57.6" y="137.973289" style="stroke: #000000; stroke-width: 0.8"/>
      </g>
     </g>
     <g id="text_10">
      <!-- 400 -->
      <g transform="translate(31.5125 141.772508)scale(0.1 -0.1)">
       <defs>
        <path id="DejaVuSans-34" d="M 2419 4116 
L 825 1625 
L 2419 1625 
L 2419 4116 
z
M 2253 4666 
L 3047 4666 
L 3047 1625 
L 3713 1625 
L 3713 1100 
L 3047 1100 
L 3047 0 
L 2419 0 
L 2419 1100 
L 313 1100 
L 313 1709 
L 2253 4666 
z
" transform="scale(0.015625)"/>
       </defs>
       <use xlink:href="#DejaVuSans-34"/>
       <use xlink:href="#DejaVuSans-30" x="63.623047"/>
       <use xlink:href="#DejaVuSans-30" x="127.246094"/>
      </g>
     </g>
    </g>
    <g id="ytick_5">
     <g id="line2d_11">
      <g>
       <use xlink:href="#m0116ab3d25" x="57.6" y="89.625384" style="stroke: #000000; stroke-width: 0.8"/>
      </g>
     </g>
     <g id="text_11">
      <!-- 500 -->
      <g transform="translate(31.5125 93.424603)scale(0.1 -0.1)">
       <use xlink:href="#DejaVuSans-35"/>
       <use xlink:href="#DejaVuSans-30" x="63.623047"/>
       <use xlink:href="#DejaVuSans-30" x="127.246094"/>
      </g>
     </g>
    </g>
   </g>
   <g id="line2d_12">
    <path d="M 73.832727 286.122874 
L 74.101704 285.567357 
L 74.236192 284.444235 
L 74.37068 285.418929 
L 74.505168 284.920945 
L 74.639657 285.529645 
L 74.774145 278.985273 
L 74.908633 251.565242 
L 75.177609 250.055337 
L 75.312098 250.61714 
L 75.446586 250.670322 
L 75.581074 251.54687 
L 75.715562 250.782006 
L 75.85005 250.759766 
L 76.253515 245.718046 
L 76.522492 280.16061 
L 76.65698 280.477289 
L 76.925956 278.751269 
L 77.060444 269.795303 
L 77.194933 272.06427 
L 77.463909 272.128573 
L 77.598397 273.730823 
L 77.732885 268.344382 
L 77.867374 254.785696 
L 78.405327 104.679471 
L 78.674303 103.747324 
L 78.808791 110.966149 
L 78.943279 106.109119 
L 79.481232 159.403015 
L 79.750209 230.574515 
L 80.019185 265.688632 
L 80.153673 267.836729 
L 80.288161 263.958744 
L 80.42265 274.471996 
L 80.557138 274.032513 
L 80.826114 276.568361 
L 80.960603 273.999637 
L 81.095091 263.569543 
L 81.364067 169.70547 
L 81.498555 182.144902 
L 81.767532 162.521455 
L 82.036508 170.61441 
L 82.170996 167.478565 
L 82.305485 161.436528 
L 83.112414 263.086064 
L 83.650367 289.564762 
L 83.784855 289.585551 
L 83.919343 291.131234 
L 84.053831 291.325592 
L 84.18832 289.205053 
L 84.322808 281.899201 
L 84.726273 190.75228 
L 84.860761 181.989706 
L 84.995249 186.132154 
L 85.129737 171.082902 
L 85.264225 179.720738 
L 85.398714 180.476416 
L 85.66769 188.865745 
L 85.802178 197.734201 
L 86.340131 265.235612 
L 86.474619 267.271059 
L 86.609107 272.236389 
L 86.878084 289.951061 
L 87.012572 292.227281 
L 87.14706 291.897064 
L 87.281549 293.404552 
L 87.416037 293.306406 
L 87.550525 292.485942 
L 87.819501 264.67381 
L 87.95399 264.821271 
L 88.088478 259.071254 
L 88.222966 260.547316 
L 88.357454 259.781002 
L 88.491942 256.385045 
L 88.626431 259.251592 
L 88.760919 252.17926 
L 88.895407 255.088837 
L 89.029895 255.087387 
L 89.164384 257.676901 
L 89.43336 279.216376 
L 89.567848 280.8984 
L 89.702336 280.394614 
L 89.836825 281.466487 
L 89.971313 266.147454 
L 90.105801 266.868804 
L 90.240289 268.430442 
L 90.374777 268.197405 
L 90.509266 269.447198 
L 90.643754 269.620767 
L 90.778242 271.743724 
L 90.91273 268.484591 
L 91.047218 258.434512 
L 91.181707 257.250472 
L 91.316195 250.241476 
L 91.450683 254.725745 
L 91.585171 252.737679 
L 91.71966 254.252902 
L 91.854148 254.481588 
L 92.123124 257.498013 
L 92.257612 256.918806 
L 92.526589 262.576961 
L 92.795565 269.248488 
L 92.930053 270.214479 
L 93.064542 269.060898 
L 93.19903 279.192685 
L 93.468006 279.318873 
L 93.602495 280.391713 
L 93.736983 279.143371 
L 93.871471 276.591085 
L 94.005959 271.311493 
L 94.6784 162.812026 
L 94.812888 158.363051 
L 95.081865 170.362518 
L 95.216353 165.084377 
L 95.350841 153.684908 
L 96.023282 267.601759 
L 96.157771 268.340031 
L 96.426747 272.314229 
L 96.561235 271.976761 
L 96.695723 272.055084 
L 96.830212 273.960475 
L 96.9647 273.315031 
L 97.099188 271.870395 
L 97.233676 263.300729 
L 97.368164 245.526105 
L 97.502653 204.009276 
L 97.637141 196.827678 
L 97.771629 181.168275 
L 97.906117 189.665419 
L 98.040606 182.871088 
L 98.175094 183.589538 
L 98.309582 178.205999 
L 98.44407 179.8682 
L 98.713047 191.375001 
L 98.982023 233.829296 
L 99.250999 269.101511 
L 99.385488 273.844924 
L 99.519976 274.608337 
L 99.654464 284.532712 
L 99.788952 284.545282 
L 99.923441 283.53191 
L 100.192417 284.785088 
L 100.326905 284.866796 
L 100.461393 284.203946 
L 100.595882 284.614903 
L 100.73037 285.453739 
L 100.864858 283.896453 
L 100.999346 285.066472 
L 101.133834 284.147379 
L 101.268323 281.905003 
L 101.402811 274.793993 
L 101.537299 279.11823 
L 101.806276 268.605461 
L 101.940764 270.79272 
L 102.075252 270.642358 
L 102.20974 271.298439 
L 102.344228 273.706165 
L 102.478717 279.595423 
L 102.613205 277.720492 
L 102.747693 283.459872 
L 102.882181 269.837849 
L 103.016669 269.866858 
L 103.151158 274.833155 
L 103.285646 274.611238 
L 103.554622 270.379346 
L 103.68911 266.139718 
L 103.823599 248.500952 
L 104.092575 185.471722 
L 104.227063 163.725801 
L 104.361552 170.977987 
L 104.630528 145.799365 
L 105.033993 161.304054 
L 105.168481 172.215693 
L 105.706434 256.295118 
L 105.840922 256.171347 
L 105.97541 264.976467 
L 106.109898 281.609597 
L 106.378875 284.837787 
L 106.513363 284.823766 
L 106.647851 287.007157 
L 106.782339 286.735442 
L 106.916828 287.860498 
L 107.320292 249.829552 
L 107.45478 256.979724 
L 107.589269 254.414868 
L 107.723757 254.508662 
L 108.26171 249.383785 
L 108.396198 245.935128 
L 108.530686 248.222468 
L 108.934151 280.218628 
L 109.068639 281.752224 
L 109.203127 280.672131 
L 109.337615 276.121626 
L 109.606592 277.689066 
L 109.875568 278.75417 
L 110.144545 279.81589 
L 110.413521 278.563196 
L 110.548009 278.426855 
L 110.951474 274.328403 
L 111.085962 275.515827 
L 111.22045 275.164338 
L 111.623915 269.299737 
L 111.758403 269.813675 
L 112.02738 273.639929 
L 112.430844 275.256199 
L 112.565333 264.894759 
L 112.834309 269.143573 
L 112.968797 269.672983 
L 113.103285 271.199326 
L 113.237774 271.379664 
L 113.50675 274.026228 
L 113.641238 274.865548 
L 114.313679 263.508142 
L 114.448168 263.143115 
L 114.582656 261.644813 
L 114.98612 250.69643 
L 115.524073 261.878334 
L 115.658561 262.434335 
L 115.927538 264.683963 
L 116.062026 263.386305 
L 116.196514 269.548729 
L 116.331002 269.127135 
L 116.465491 269.744538 
L 116.599979 259.885916 
L 117.137932 79.389649 
L 117.406908 64.538623 
L 117.810373 81.245725 
L 118.213837 149.127634 
L 118.482814 212.098847 
L 118.75179 246.88033 
L 118.886279 248.42988 
L 119.289743 256.504947 
L 119.424231 257.937496 
L 119.55872 260.73684 
L 119.693208 261.056903 
L 119.827696 251.343325 
L 120.365649 92.37783 
L 120.634625 73.622711 
L 120.769114 77.351785 
L 120.903602 70.86688 
L 121.03809 72.208535 
L 121.441555 136.285947 
L 121.710531 203.797995 
L 121.845019 232.265242 
L 122.248484 243.341747 
L 122.51746 259.015654 
L 122.651948 259.176653 
L 122.786437 260.933132 
L 122.920925 259.578907 
L 123.055413 251.335106 
L 123.727854 60.541702 
L 123.862342 53.568 
L 124.534783 108.251415 
L 125.072736 250.629227 
L 125.207225 255.852734 
L 125.341713 256.320742 
L 125.476201 256.273844 
L 125.745177 270.011902 
L 125.879666 271.463306 
L 126.014154 271.695376 
L 126.28313 258.107197 
L 126.821083 93.494667 
L 126.955571 74.95663 
L 127.09006 81.621872 
L 127.359036 106.409359 
L 127.493524 108.877037 
L 127.762501 127.562535 
L 127.896989 150.597411 
L 128.300453 248.995067 
L 128.434942 254.856284 
L 128.56943 253.010361 
L 128.703918 260.587928 
L 128.838406 261.319432 
L 129.241871 268.080886 
L 129.510847 247.158814 
L 130.0488 83.817834 
L 130.183288 74.616261 
L 130.317777 86.656339 
L 130.452265 115.774349 
L 130.586753 114.846552 
L 130.721241 111.161959 
L 130.855729 117.617371 
L 131.124706 171.434391 
L 131.393682 237.749828 
L 131.662659 261.086878 
L 131.931635 260.888652 
L 132.066123 260.704446 
L 132.3351 272.091345 
L 132.469588 271.941467 
L 132.604076 272.041547 
L 132.738564 271.999484 
L 133.007541 259.986964 
L 133.276517 249.420529 
L 133.679982 243.785581 
L 133.81447 242.591387 
L 133.948958 237.440401 
L 134.486911 247.417959 
L 134.755888 254.576833 
L 134.890376 254.460798 
L 135.697305 268.848168 
L 135.831793 273.646697 
L 135.966282 274.262166 
L 136.10077 272.259596 
L 136.235258 273.778204 
L 136.369746 273.50117 
L 136.504234 269.158078 
L 136.638723 268.997563 
L 136.907699 267.04334 
L 137.311164 256.050477 
L 137.445652 256.565382 
L 137.58014 253.855966 
L 137.983605 260.737807 
L 138.118093 259.826932 
L 138.252581 261.680107 
L 138.387069 266.217075 
L 138.521558 264.971633 
L 138.656046 265.174694 
L 138.925022 269.91714 
L 139.193999 253.510278 
L 139.731951 81.945319 
L 139.86644 72.938588 
L 140.269904 99.210356 
L 140.538881 123.883743 
L 140.673369 131.046001 
L 140.807857 145.550856 
L 141.076834 226.467844 
L 141.480298 259.991798 
L 142.018251 268.515534 
L 142.152739 268.047043 
L 142.421716 244.071317 
L 142.959669 92.044713 
L 143.094157 84.553689 
L 143.228645 84.061024 
L 143.363133 94.39007 
L 143.497621 85.02218 
L 143.63211 90.200724 
L 144.573527 261.252228 
L 144.708015 264.777274 
L 144.842504 264.954711 
L 145.11148 267.21981 
L 145.245968 269.384829 
L 145.380456 265.265588 
L 145.783921 203.478416 
L 146.052897 110.855916 
L 146.187386 91.540928 
L 146.456362 107.00984 
L 146.59085 118.447021 
L 146.725339 112.698455 
L 146.859827 120.188029 
L 146.994315 115.0588 
L 147.128803 128.049882 
L 147.532268 236.420261 
L 147.801244 262.704599 
L 147.935732 262.909111 
L 148.204709 268.236083 
L 148.339197 268.214327 
L 148.473685 268.72343 
L 148.742662 267.658809 
L 148.87715 249.782171 
L 149.280615 120.050721 
L 149.415103 115.967257 
L 149.549591 106.785023 
L 149.684079 108.054639 
L 150.087544 141.12799 
L 150.222032 133.350263 
L 150.35652 138.931545 
L 150.894473 255.040973 
L 151.028961 264.315068 
L 151.16345 263.34666 
L 151.835891 271.613184 
L 151.970379 270.326647 
L 152.104867 249.143495 
L 152.508332 113.973873 
L 152.64282 117.117453 
L 152.911796 105.131524 
L 153.046285 119.43912 
L 153.180773 117.921479 
L 153.449749 152.780319 
L 153.718726 194.185465 
L 153.987702 251.443889 
L 154.12219 268.685719 
L 154.256678 270.080072 
L 154.525655 273.985616 
L 154.794631 275.708735 
L 155.063608 278.686483 
L 155.198096 280.34675 
L 155.332584 279.695987 
L 155.467072 275.265869 
L 155.601561 264.672359 
L 155.736049 263.801613 
L 155.870537 260.904123 
L 156.005025 263.067209 
L 156.274002 261.148764 
L 156.40849 261.691227 
L 156.542978 262.958909 
L 156.677466 261.748761 
L 157.215419 269.848002 
L 157.349907 271.87668 
L 157.484396 270.873461 
L 157.618884 271.652346 
L 157.88786 274.864097 
L 158.022348 275.350477 
L 158.291325 278.383341 
L 158.560301 282.712896 
L 158.694789 281.129019 
L 158.829278 282.104196 
L 158.963766 281.703392 
L 159.232742 278.958682 
L 159.367231 279.243934 
L 159.501719 277.23798 
L 160.039672 262.996137 
L 160.308648 263.258183 
L 160.443136 269.041559 
L 160.577624 268.754856 
L 160.712113 266.777427 
L 160.846601 267.487174 
L 160.981089 268.996112 
L 161.250066 272.795291 
L 161.519042 273.757414 
L 161.788018 256.804704 
L 162.460459 84.248614 
L 162.594948 83.908244 
L 162.729436 82.432666 
L 162.998412 102.244187 
L 163.132901 111.29008 
L 163.401877 153.021091 
L 163.670853 224.547466 
L 164.074318 259.020972 
L 164.208806 260.166818 
L 164.477783 272.964508 
L 164.612271 275.352411 
L 164.746759 270.597395 
L 165.015735 252.891425 
L 165.4192 121.681496 
L 165.553688 124.309688 
L 165.822665 110.261237 
L 165.957153 115.575639 
L 166.091641 112.456232 
L 166.360618 100.874008 
L 166.495106 107.136995 
L 166.89857 223.638042 
L 167.033059 230.68765 
L 167.302035 249.282737 
L 167.974476 267.953248 
L 168.108964 262.216285 
L 168.243453 248.047932 
L 168.377941 209.546561 
L 168.646917 106.961009 
L 168.781405 108.258183 
L 168.915894 103.682054 
L 169.050382 104.996634 
L 169.18487 108.83449 
L 169.319358 93.336086 
L 169.453847 95.841958 
L 169.857311 149.812241 
L 170.126288 228.880888 
L 170.395264 260.039663 
L 170.529752 260.929264 
L 170.66424 264.404512 
L 170.798729 264.595969 
L 171.067705 266.949062 
L 171.202193 269.815126 
L 171.47117 247.784919 
L 172.009123 111.068647 
L 172.143611 109.474617 
L 172.412587 97.58635 
L 172.95054 130.449388 
L 173.622981 262.031113 
L 173.757469 266.064779 
L 173.891958 279.593973 
L 174.026446 278.654573 
L 174.160934 278.610093 
L 174.42991 280.158193 
L 174.698887 265.202252 
L 174.833375 247.887417 
L 175.102351 178.601484 
L 175.371328 144.85513 
L 175.505816 141.92283 
L 175.640304 152.203045 
L 175.774792 151.889267 
L 175.909281 153.31408 
L 176.043769 158.174978 
L 176.178257 157.863617 
L 176.312745 172.500462 
L 176.581722 240.925802 
L 176.850698 268.358887 
L 176.985186 265.836577 
L 177.254163 270.624953 
L 177.388651 270.580957 
L 177.792116 277.214289 
L 177.926604 278.115011 
L 178.19558 267.276861 
L 178.330069 266.831577 
L 178.599045 259.178103 
L 178.733533 258.606147 
L 178.868021 260.940868 
L 179.136998 257.390198 
L 179.271486 257.993096 
L 179.540462 255.478521 
L 179.809439 263.072043 
L 179.943927 270.42721 
L 180.212904 268.503447 
L 180.48188 278.486323 
L 180.616368 278.500343 
L 180.750856 278.876974 
L 180.885345 279.718227 
L 181.019833 279.805737 
L 181.692274 267.35035 
L 181.826762 268.661545 
L 181.96125 262.606937 
L 182.095738 264.410313 
L 182.364715 269.913272 
L 182.499203 271.206578 
L 182.633691 274.391738 
L 182.902668 273.564022 
L 183.171644 279.768025 
L 183.306132 281.201057 
L 183.440621 280.077936 
L 183.575109 277.748533 
L 183.844085 289.621812 
L 183.978573 290.584419 
L 184.113062 288.278224 
L 184.382038 276.755951 
L 184.919991 183.928457 
L 185.054479 187.992098 
L 185.188967 180.834674 
L 185.457944 184.741185 
L 185.592432 186.258342 
L 185.995897 224.465758 
L 186.264873 255.42969 
L 186.53385 271.375313 
L 186.802826 281.752224 
L 187.071802 292.375225 
L 187.206291 291.211008 
L 187.340779 292.358787 
L 187.475267 289.143168 
L 187.609755 281.048761 
L 188.01322 204.228292 
L 188.147708 187.631906 
L 188.282196 187.85334 
L 188.416684 186.883481 
L 188.551173 190.235441 
L 188.685661 196.71406 
L 188.820149 192.249131 
L 188.954637 196.737751 
L 189.089126 205.211204 
L 189.627078 267.959533 
L 189.761567 270.579506 
L 189.896055 275.878437 
L 190.030543 273.413177 
L 190.299519 275.266836 
L 190.434008 274.081345 
L 190.971961 277.547406 
L 191.106449 274.053303 
L 191.240937 273.562088 
L 191.375425 274.005922 
L 191.509913 269.523588 
L 191.644402 271.09151 
L 191.913378 269.810291 
L 192.182354 264.105722 
L 192.316843 264.458661 
L 192.451331 263.954393 
L 192.585819 265.291212 
L 192.720307 271.131156 
L 192.989284 272.404156 
L 193.392748 269.684103 
L 193.661725 272.601416 
L 193.796213 273.142429 
L 194.065189 265.159222 
L 194.603142 160.145155 
L 194.73763 155.17354 
L 194.872119 145.100254 
L 195.006607 146.695251 
L 195.141095 151.497165 
L 195.275583 144.008075 
L 195.54456 157.565311 
L 195.948024 252.741547 
L 196.217001 263.204517 
L 196.351489 265.154871 
L 196.485977 274.744195 
L 196.620465 274.083762 
L 196.889442 274.647499 
L 197.02393 275.78996 
L 197.158418 274.038799 
L 197.292907 267.63947 
L 197.830859 198.077471 
L 197.965348 200.41751 
L 198.099836 197.058781 
L 198.234324 201.516941 
L 198.5033 188.027392 
L 198.772277 201.997519 
L 199.31023 275.428801 
L 199.713694 284.653581 
L 199.848183 283.470508 
L 200.117159 284.20733 
L 200.251647 282.402019 
L 200.386135 276.551923 
L 200.520624 276.143867 
L 200.655112 263.026113 
L 200.7896 215.221155 
L 200.924088 213.226804 
L 201.058576 201.398972 
L 201.193065 201.036363 
L 201.327553 198.318244 
L 201.462041 200.51759 
L 201.731018 188.572273 
L 201.865506 189.950188 
L 202.134482 212.925113 
L 202.403459 267.056878 
L 202.806923 276.976417 
L 203.0759 268.400466 
L 203.210388 272.780786 
L 203.344876 272.908425 
L 203.748341 263.41628 
L 203.882829 245.814742 
L 204.151805 183.090104 
L 204.420782 166.414911 
L 204.55527 160.716627 
L 204.689758 164.195743 
L 204.824246 157.616076 
L 204.958735 173.837282 
L 205.093223 174.086757 
L 205.765664 262.82837 
L 205.900152 263.345693 
L 206.03464 267.192735 
L 206.169129 282.225066 
L 206.303617 282.711929 
L 206.572593 286.699181 
L 206.84157 287.520612 
L 207.110546 278.016381 
L 207.379522 268.720046 
L 207.514011 267.831411 
L 207.917475 276.049588 
L 208.051964 275.800113 
L 208.32094 269.360655 
L 208.589916 270.982244 
L 208.858893 279.133217 
L 208.993381 282.831832 
L 209.127869 283.422644 
L 209.262357 282.871961 
L 209.396846 276.944991 
L 209.531334 278.056026 
L 209.80031 277.635883 
L 209.934799 278.639102 
L 210.203775 266.307485 
L 211.010704 109.265754 
L 211.279681 135.204405 
L 211.683145 168.714338 
L 212.221098 257.437095 
L 212.355586 259.931363 
L 212.759051 275.36063 
L 212.893539 275.150801 
L 213.028027 275.252331 
L 213.162516 277.934189 
L 213.431492 260.011138 
L 213.56598 221.459001 
L 213.834957 136.499162 
L 213.969445 141.141528 
L 214.103933 140.036778 
L 214.238421 143.034831 
L 214.910862 181.832091 
L 215.448815 263.12571 
L 215.583303 268.153892 
L 215.717792 268.779514 
L 216.121256 273.095531 
L 216.255745 274.064907 
L 216.390233 276.485686 
L 216.524721 272.42688 
L 216.659209 264.813535 
L 217.062674 150.307323 
L 217.197162 152.243657 
L 217.33165 152.325365 
L 217.466138 163.935631 
L 217.600627 162.635556 
L 217.735115 150.630287 
L 217.869603 155.927284 
L 218.273068 198.653778 
L 218.542044 258.220815 
L 218.811021 275.232509 
L 218.945509 267.719244 
L 219.483462 278.575766 
L 219.61795 280.397032 
L 219.886926 266.471385 
L 220.290391 163.591394 
L 220.693856 151.782418 
L 220.828344 162.582373 
L 220.962832 158.61156 
L 221.231808 186.111848 
L 221.500785 200.154497 
L 221.769761 258.08254 
L 222.038738 273.915028 
L 222.173226 273.152582 
L 222.307714 274.393189 
L 222.576691 280.521286 
L 222.845667 283.193958 
L 222.980155 281.500331 
L 223.114643 283.397503 
L 223.38362 262.582763 
L 223.518108 266.497009 
L 223.652596 266.338428 
L 223.921573 259.287369 
L 224.190549 258.606147 
L 224.325037 261.127491 
L 224.459525 260.490749 
L 224.728502 256.581337 
L 225.131967 263.94569 
L 225.266455 262.440136 
L 225.535431 263.931669 
L 225.669919 262.601618 
L 226.073384 272.497951 
L 226.34236 275.56901 
L 226.476849 275.496005 
L 226.745825 272.30746 
L 226.880313 274.621874 
L 227.014802 274.868449 
L 227.14929 274.567241 
L 227.283778 273.127924 
L 227.418266 274.82832 
L 227.552754 274.958859 
L 227.687243 274.787224 
L 227.956219 273.662652 
L 228.090707 279.561096 
L 228.225195 279.600742 
L 228.359684 280.718062 
L 228.494172 279.934342 
L 228.62866 280.919189 
L 228.763148 280.803154 
L 228.897637 278.482455 
L 229.301101 279.399131 
L 229.435589 273.096982 
L 229.570078 258.813076 
L 230.242519 95.079511 
L 230.377007 80.031226 
L 230.511495 110.43819 
L 230.780471 118.502621 
L 231.049448 146.363101 
L 231.587401 256.623883 
L 231.856377 268.006914 
L 232.125354 272.890052 
L 232.39433 277.613159 
L 232.528818 276.787861 
L 232.797795 259.440149 
L 232.932283 222.652711 
L 233.201259 134.252918 
L 233.335748 125.960769 
L 233.470236 136.403916 
L 233.604724 136.629218 
L 233.739212 149.603378 
L 233.8737 134.656623 
L 234.008189 141.475128 
L 234.815118 267.41707 
L 234.949606 267.146805 
L 235.218583 273.134693 
L 235.622047 280.982525 
L 235.756535 280.376242 
L 236.025512 267.539873 
L 236.563465 130.038431 
L 236.832441 117.653148 
L 237.63937 202.536598 
L 237.908347 261.4345 
L 238.177323 269.638172 
L 238.849764 284.768166 
L 238.984252 283.931747 
L 239.118741 280.079386 
L 239.253229 265.98162 
L 239.791182 129.257612 
L 240.194646 147.244484 
L 240.463623 166.64263 
L 240.732599 180.290277 
L 241.270552 258.866743 
L 241.674017 264.825622 
L 241.942993 277.952562 
L 242.077481 284.544315 
L 242.21197 283.909507 
L 242.480946 265.686698 
L 242.884411 152.361626 
L 243.018899 160.345315 
L 243.153387 158.066679 
L 243.287875 146.93264 
L 243.422363 155.026562 
L 243.556852 152.175003 
L 243.825828 169.051323 
L 244.229293 242.061011 
L 244.498269 264.76422 
L 244.767246 270.111982 
L 245.17071 278.080684 
L 245.305198 278.957715 
L 245.439687 278.657958 
L 245.574175 277.412032 
L 245.708663 265.794997 
L 245.843151 271.319713 
L 246.112128 268.296035 
L 246.381104 263.044485 
L 246.515592 263.010642 
L 247.188033 273.396255 
L 247.322522 273.807212 
L 247.45701 274.686177 
L 247.591498 274.326952 
L 247.725986 277.533869 
L 247.860475 276.076179 
L 248.129451 277.417834 
L 248.263939 276.522431 
L 248.398427 277.214289 
L 248.532916 277.059092 
L 248.667404 279.03072 
L 248.801892 278.93064 
L 249.205357 280.490343 
L 249.339845 280.608312 
L 249.608821 279.647156 
L 249.743309 279.780596 
L 249.877798 279.476488 
L 250.550239 276.268121 
L 250.819215 276.572229 
L 250.953703 277.361267 
L 251.088192 276.210103 
L 251.357168 277.484554 
L 251.491656 286.500471 
L 251.626144 286.004422 
L 251.760633 286.44052 
L 251.895121 286.278554 
L 252.164097 273.873449 
L 252.70205 144.791794 
L 252.836538 164.785104 
L 252.971027 161.295835 
L 253.240003 174.37346 
L 253.374491 175.744123 
L 253.508979 172.780397 
L 253.777956 206.029251 
L 254.046932 258.057882 
L 254.315909 279.663111 
L 254.719373 288.127378 
L 254.853862 287.884188 
L 255.122838 289.640184 
L 255.391814 268.604011 
L 255.660791 174.161213 
L 255.795279 177.653382 
L 256.198744 161.776413 
L 256.333232 165.497752 
L 256.46772 162.798488 
L 256.602208 164.010087 
L 257.409138 260.328783 
L 257.812602 267.897648 
L 258.081579 283.302257 
L 258.216067 284.379932 
L 258.350555 283.641176 
L 258.619532 269.2862 
L 258.888508 179.027913 
L 259.022996 179.908328 
L 259.157484 170.737698 
L 259.291973 170.154622 
L 259.426461 154.468628 
L 259.695437 168.346894 
L 259.829925 157.070712 
L 259.964414 166.261649 
L 260.771343 263.439004 
L 261.040319 265.706521 
L 261.309296 273.302944 
L 261.443784 276.558692 
L 261.71276 273.606568 
L 261.847249 261.054485 
L 262.116225 171.75107 
L 262.250713 175.972325 
L 262.654178 149.199673 
L 262.788666 156.594968 
L 262.923154 151.763079 
L 263.326619 187.367927 
L 263.461107 198.407204 
L 263.864572 247.814895 
L 264.268036 266.091854 
L 264.402525 265.324572 
L 264.671501 268.798853 
L 264.805989 268.671214 
L 264.940478 267.708124 
L 265.074966 260.04208 
L 265.209454 240.678261 
L 265.612919 124.9034 
L 265.881895 106.556821 
L 266.016383 116.181438 
L 266.150871 116.048965 
L 266.28536 115.594978 
L 266.419848 120.286175 
L 266.688824 158.042505 
L 266.957801 237.873599 
L 267.226777 254.754753 
L 267.361265 253.313986 
L 267.495754 269.893933 
L 267.630242 269.57387 
L 267.76473 271.467174 
L 267.899218 271.782402 
L 268.168195 278.387693 
L 268.302683 279.284063 
L 268.437171 276.689231 
L 268.706147 279.258439 
L 268.975124 275.718405 
L 269.2441 273.809146 
L 269.916541 259.127821 
L 270.320006 261.041915 
L 270.588982 265.992257 
L 270.723471 280.273261 
L 270.857959 281.326762 
L 270.992447 279.829427 
L 271.126935 280.724347 
L 271.261424 280.754323 
L 271.395912 280.565766 
L 271.799376 283.379614 
L 271.933865 281.976074 
L 272.068353 282.335783 
L 272.202841 281.682603 
L 272.337329 281.921925 
L 272.471817 281.067617 
L 272.606306 278.873589 
L 272.740794 280.173181 
L 272.875282 279.846349 
L 273.00977 279.160292 
L 273.144258 276.795113 
L 273.278747 276.694066 
L 273.547723 279.711942 
L 273.682211 279.929024 
L 273.8167 280.621849 
L 273.951188 279.748686 
L 274.085676 290.541389 
L 274.354652 292.195854 
L 274.489141 290.602791 
L 274.758117 275.683594 
L 275.29607 167.721272 
L 275.565046 155.315199 
L 275.699535 155.657019 
L 275.834023 173.859522 
L 275.968511 176.172969 
L 276.102999 186.470106 
L 276.77544 266.887177 
L 277.447881 284.529811 
L 277.58237 287.973632 
L 277.716858 287.577179 
L 277.851346 283.117568 
L 277.985834 272.994967 
L 278.389299 211.643893 
L 278.523787 191.886522 
L 278.658275 189.860261 
L 278.792763 180.211953 
L 278.927252 192.51166 
L 279.06174 186.609831 
L 279.196228 188.729887 
L 279.330716 196.533239 
L 280.137646 277.405263 
L 280.272134 279.825076 
L 280.406622 271.351622 
L 280.54111 271.063469 
L 280.810087 272.250893 
L 280.944575 271.618986 
L 281.213551 263.588883 
L 281.348039 234.232518 
L 281.482528 162.776732 
L 281.617016 152.424478 
L 281.751504 128.69581 
L 281.885992 129.863895 
L 282.154969 143.564241 
L 282.289457 125.192037 
L 282.423945 129.33787 
L 282.558433 138.576671 
L 282.82741 187.706845 
L 283.096386 257.2321 
L 283.365363 263.955843 
L 283.499851 266.194351 
L 283.634339 265.513613 
L 283.768827 265.524249 
L 283.903316 265.71619 
L 284.037804 267.039472 
L 284.172292 267.170495 
L 284.441268 261.903475 
L 285.113709 144.993405 
L 285.248198 143.902193 
L 285.382686 139.300923 
L 285.517174 148.673648 
L 285.651662 145.528616 
L 285.78615 149.0672 
L 286.055127 202.949973 
L 286.324103 253.22841 
L 286.59308 263.043518 
L 286.727568 262.920231 
L 286.862056 282.126436 
L 286.996544 282.186388 
L 287.131033 281.194772 
L 287.265521 281.808791 
L 287.668985 278.232496 
L 287.803474 279.122097 
L 288.07245 278.234913 
L 288.206938 276.03315 
L 288.341427 275.977066 
L 288.475915 273.597866 
L 288.610403 273.221719 
L 288.744891 272.082159 
L 288.879379 274.949673 
L 289.013868 275.29391 
L 289.148356 272.444285 
L 289.417332 279.698404 
L 289.55182 280.901784 
L 289.820797 280.535307 
L 289.955285 281.336432 
L 290.089773 279.816373 
L 290.224262 281.384779 
L 290.35875 280.465202 
L 290.493238 281.458752 
L 290.627726 279.895664 
L 291.031191 261.668987 
L 291.300167 194.56838 
L 291.434655 188.90684 
L 291.569144 189.522793 
L 291.703632 193.642034 
L 291.972608 180.721057 
L 292.376073 193.981437 
L 293.048514 271.430429 
L 293.183002 272.694243 
L 293.31749 271.526642 
L 293.451979 272.288605 
L 293.586467 271.346304 
L 293.720955 273.85556 
L 293.855443 274.122441 
L 294.258908 249.871615 
L 294.527884 191.083463 
L 294.796861 158.964499 
L 294.931349 142.876734 
L 295.065837 142.740876 
L 295.200325 150.822712 
L 295.334814 145.023864 
L 295.60379 173.467904 
L 295.738278 188.157931 
L 296.141743 259.327982 
L 296.276231 258.42581 
L 296.410719 265.723443 
L 296.545208 283.644561 
L 296.948672 285.837621 
L 297.486625 287.829555 
L 297.621113 287.479516 
L 297.755601 287.475649 
L 298.024578 284.260513 
L 298.159066 284.108217 
L 298.428042 281.938363 
L 298.697019 278.062795 
L 298.831507 276.912598 
L 298.965995 276.768521 
L 299.100484 277.128713 
L 299.36946 280.962219 
L 299.503948 280.449247 
L 299.638436 282.012335 
L 299.772925 272.229137 
L 299.907413 275.674892 
L 300.041901 275.369333 
L 300.176389 276.246848 
L 300.310877 275.959661 
L 300.579854 264.848829 
L 301.252295 129.031828 
L 301.386783 129.101449 
L 301.521271 142.462392 
L 301.65576 135.43164 
L 301.790248 144.966814 
L 302.597177 255.158942 
L 302.731665 256.934277 
L 303.000642 269.500864 
L 303.13513 269.7281 
L 303.269618 270.214479 
L 303.404106 272.705364 
L 303.538595 273.129858 
L 303.807571 256.561998 
L 304.345524 165.63651 
L 304.6145 154.979181 
L 304.748988 163.322096 
L 304.883477 153.626407 
L 305.017965 159.78448 
L 306.093871 267.932458 
L 306.228359 268.955983 
L 306.497335 279.241033 
L 306.766312 280.283898 
L 306.9008 275.515344 
L 307.035288 264.841577 
L 307.304265 171.184432 
L 307.438753 178.538632 
L 307.842217 159.031219 
L 307.976706 166.172205 
L 308.111194 157.646052 
L 308.245682 162.671817 
L 308.649147 209.260342 
L 309.052611 266.34423 
L 309.590564 278.730963 
L 309.994029 280.456016 
L 310.128517 276.857482 
L 310.263005 264.080581 
L 310.531982 171.071782 
L 310.66647 172.237933 
L 310.935446 169.919651 
L 311.069934 160.449263 
L 311.204423 166.986867 
L 311.338911 165.67954 
L 311.473399 158.819456 
L 311.607887 172.123349 
L 311.876864 210.178952 
L 312.14584 253.045655 
L 312.414817 265.001608 
L 312.818281 273.72212 
L 312.952769 273.282637 
L 313.087258 275.19238 
L 313.221746 275.0923 
L 313.356234 276.689231 
L 313.625211 265.998542 
L 313.759699 258.006633 
L 313.894187 261.402107 
L 314.028675 258.841118 
L 314.163163 260.748443 
L 314.297652 257.952967 
L 314.566628 264.599837 
L 314.701116 265.343911 
L 314.970093 270.157912 
L 315.104581 270.119718 
L 315.239069 269.819477 
L 315.508045 272.789489 
L 315.642534 273.333403 
L 315.777022 272.998835 
L 316.180487 276.026865 
L 316.314975 275.58158 
L 316.718439 277.966099 
L 316.852928 278.218475 
L 316.987416 277.354015 
L 317.121904 277.420251 
L 317.256392 276.286009 
L 317.39088 276.432504 
L 317.525369 274.873767 
L 317.659857 275.804948 
L 317.928833 273.253145 
L 318.332298 269.468471 
L 318.466786 270.131321 
L 318.601274 269.622218 
L 318.735763 271.097312 
L 318.870251 270.931479 
L 319.139227 272.062336 
L 319.273715 282.025389 
L 319.67718 283.158181 
L 319.811668 280.545943 
L 319.946157 272.488765 
L 320.349621 148.916838 
L 320.484109 132.55639 
L 320.887574 160.188668 
L 321.022062 164.915643 
L 321.291039 179.889956 
L 321.425527 181.713639 
L 321.560015 200.393336 
L 321.828991 256.641772 
L 321.96348 264.834325 
L 322.097968 265.631098 
L 322.635921 282.54803 
L 322.770409 282.899519 
L 322.904897 282.231835 
L 323.173874 271.664433 
L 323.44285 174.95847 
L 323.577338 175.324947 
L 323.711826 175.528975 
L 323.980803 155.089898 
L 324.249779 158.674895 
L 324.384268 161.47714 
L 324.787732 198.191089 
L 325.056709 253.422285 
L 325.325685 262.814349 
L 325.863638 280.86794 
L 325.998126 282.658263 
L 326.132614 282.7245 
L 326.267103 279.469719 
L 326.401591 270.353721 
L 326.670567 167.674374 
L 326.805055 173.707226 
L 326.939544 174.894651 
L 327.20852 161.496479 
L 327.343008 169.745599 
L 327.611985 165.943036 
L 327.746473 170.86582 
L 328.149937 226.271552 
L 328.418914 257.516869 
L 328.68789 270.49393 
L 328.822379 272.979013 
L 328.956867 283.155763 
L 329.225843 284.114986 
L 329.360331 283.25681 
L 329.629308 270.257993 
L 330.032772 180.088183 
L 330.301749 168.602171 
L 330.570725 159.679565 
L 330.839702 181.81662 
L 330.97419 183.044657 
L 331.108678 185.825628 
L 331.781119 262.693479 
L 332.050096 269.949533 
L 332.184584 280.863589 
L 332.319072 281.831998 
L 332.45356 281.158511 
L 332.588049 282.158829 
L 332.857025 269.38773 
L 333.26049 179.44854 
L 333.394978 181.382939 
L 333.663954 166.279054 
L 333.798442 167.486785 
L 333.932931 171.302401 
L 334.336395 189.397572 
L 334.73986 258.008084 
L 335.143325 273.939686 
L 335.277813 273.738558 
L 335.412301 273.837188 
L 335.546789 274.126308 
L 335.681277 274.019943 
L 335.950254 276.635081 
L 336.084742 274.513575 
L 336.622695 257.838383 
L 336.757183 258.643375 
L 336.891671 256.790684 
L 337.295136 263.230141 
L 337.698601 268.023352 
L 337.833089 267.537939 
L 338.102065 271.690057 
L 338.236553 271.455087 
L 338.371042 272.100531 
L 338.50553 269.735352 
L 339.043483 272.934533 
L 339.446947 275.968847 
L 339.581436 275.481017 
L 339.715924 274.296977 
L 339.850412 274.559506 
L 339.9849 273.769501 
L 340.119388 273.6554 
L 340.253877 273.175789 
L 340.388365 274.671673 
L 340.522853 272.657499 
L 340.657341 273.263782 
L 340.926318 272.941301 
L 341.060806 269.560332 
L 341.329782 274.504389 
L 341.464271 274.401408 
L 341.598759 274.936619 
L 341.733247 276.522914 
L 341.867735 284.444235 
L 342.136712 284.547216 
L 342.2712 285.197012 
L 342.540176 272.340337 
L 342.943641 155.703917 
L 343.212617 172.523669 
L 343.347106 171.780078 
L 343.75057 186.347302 
L 343.885058 188.043347 
L 344.019547 187.372278 
L 344.423011 256.118648 
L 345.22994 282.13804 
L 345.364429 283.235537 
L 345.498917 282.863258 
L 345.633405 278.593171 
L 345.767893 270.406421 
L 346.03687 185.086389 
L 346.171358 189.256396 
L 346.440334 175.519789 
L 346.574823 170.08065 
L 346.843799 177.046132 
L 347.112775 178.938469 
L 347.381752 213.854359 
L 347.650728 253.257419 
L 348.054193 271.445901 
L 348.188681 272.642995 
L 348.323169 281.725149 
L 348.457658 282.583807 
L 348.592146 284.478078 
L 348.726634 284.280335 
L 348.99561 271.21093 
L 349.264587 184.022735 
L 349.399075 185.515235 
L 349.668052 167.73626 
L 349.80254 163.572538 
L 350.206004 182.503644 
L 350.340493 183.698321 
L 351.012934 264.887024 
L 351.147422 267.236732 
L 351.550886 284.109184 
L 351.685375 283.388317 
L 351.954351 283.759629 
L 352.088839 282.344969 
L 352.223328 274.965145 
L 352.492304 179.894791 
L 352.626792 187.148427 
L 352.76128 175.638241 
L 352.895769 174.920758 
L 353.030257 166.540133 
L 353.164745 173.840183 
L 353.299233 171.737532 
L 353.56821 153.742926 
L 354.240651 271.58901 
L 354.375139 272.740657 
L 354.644115 278.675363 
L 354.913092 283.002017 
L 355.182068 284.056968 
L 355.316556 281.625069 
L 355.451045 272.384817 
L 355.854509 198.181903 
L 356.123486 159.376907 
L 356.257974 161.11163 
L 356.392462 169.827307 
L 356.52695 169.186213 
L 356.661439 179.922349 
L 356.795927 178.655634 
L 357.33388 267.226095 
L 357.602856 276.94064 
L 357.737344 278.929189 
L 357.871832 283.236504 
L 358.006321 282.651011 
L 358.140809 282.868093 
L 358.275297 283.617002 
L 358.409785 283.528042 
L 358.678762 282.253108 
L 359.082226 263.55939 
L 359.351203 257.581655 
L 359.485691 251.233575 
L 359.620179 262.098317 
L 359.754667 263.529898 
L 359.889156 263.700083 
L 360.427109 278.163842 
L 360.561597 278.851833 
L 360.965061 283.049881 
L 361.234038 283.009753 
L 361.368526 282.815877 
L 361.503014 284.137226 
L 361.771991 283.724818 
L 361.906479 285.071791 
L 362.040967 285.023443 
L 362.175455 285.403457 
L 362.309944 285.444553 
L 362.57892 281.990095 
L 362.713408 281.940297 
L 362.982385 280.791551 
L 363.116873 279.280679 
L 363.251361 279.177698 
L 363.385849 280.281964 
L 363.520337 279.417503 
L 363.654826 279.357068 
L 364.05829 282.177685 
L 364.192778 255.848383 
L 364.730731 262.183409 
L 364.86522 260.973261 
L 364.999708 248.741241 
L 365.134196 226.313131 
L 365.403172 136.880627 
L 365.672149 106.206298 
L 365.806637 100.210675 
L 366.075613 117.368379 
L 366.34459 114.18467 
L 366.479078 125.760125 
L 367.017031 253.736546 
L 367.151519 258.758443 
L 367.286007 257.00148 
L 367.554984 268.504898 
L 367.689472 269.382412 
L 367.958448 274.343874 
L 368.227425 250.485633 
L 368.496401 153.320848 
L 368.765378 100.785531 
L 369.034354 89.746254 
L 369.168842 94.527862 
L 369.303331 94.077743 
L 369.437819 97.489171 
L 369.572307 95.340107 
L 369.706795 111.653173 
L 370.244748 237.061837 
L 370.782701 281.8407 
L 370.917189 282.149643 
L 371.051677 283.052782 
L 371.186166 282.77043 
L 371.455142 267.759373 
L 371.858607 173.289017 
L 372.127583 205.686948 
L 372.262071 201.573992 
L 372.396559 203.01911 
L 372.665536 192.193531 
L 372.800024 196.037189 
L 373.203489 236.256845 
L 373.472465 258.801473 
L 373.87593 280.268426 
L 374.010418 289.403763 
L 374.144906 289.255818 
L 374.279394 290.478053 
L 374.413883 289.968467 
L 374.682859 273.193194 
L 375.220812 182.634183 
L 375.489788 178.957808 
L 375.624277 179.183593 
L 375.893253 185.803872 
L 376.027741 190.155667 
L 376.565694 258.6163 
L 376.83467 267.622065 
L 376.969159 270.495381 
L 377.103647 282.461004 
L 377.238135 281.353837 
L 377.507112 283.453586 
L 377.6416 281.462136 
L 377.776088 285.047617 
L 378.045064 282.872444 
L 378.179553 273.105684 
L 378.314041 272.471843 
L 378.448529 265.278642 
L 378.583017 266.292497 
L 378.717505 265.363251 
L 378.851994 269.933578 
L 378.986482 269.163396 
L 379.12097 270.083457 
L 379.255458 272.271199 
L 379.389947 272.15323 
L 379.927899 281.528856 
L 380.062388 281.31951 
L 380.196876 281.741587 
L 380.331364 271.702144 
L 380.465852 272.389168 
L 380.869317 275.331622 
L 381.138293 264.291861 
L 381.272782 236.838954 
L 381.541758 161.258607 
L 381.810734 140.828717 
L 381.945223 142.441119 
L 382.214199 149.014017 
L 382.348687 140.91816 
L 382.752152 191.43737 
L 383.021128 260.343288 
L 383.155616 268.376776 
L 383.290105 269.047844 
L 383.424593 270.352271 
L 383.559081 265.357932 
L 383.693569 264.636582 
L 383.962546 264.987587 
L 384.097034 266.193868 
L 384.231522 264.386139 
L 384.36601 265.796931 
L 385.038451 150.090725 
L 385.17294 152.566621 
L 385.307428 167.904027 
L 385.576404 162.18447 
L 386.248845 263.22724 
L 386.921286 281.975591 
L 387.055775 281.149809 
L 387.190263 282.444566 
L 387.324751 281.744488 
L 387.459239 281.907904 
L 387.593727 283.417325 
L 387.728216 282.835217 
L 387.862704 284.170102 
L 387.997192 282.985095 
L 388.13168 284.597014 
L 388.266169 283.599597 
L 388.400657 281.587357 
L 388.535145 281.677768 
L 388.669633 281.006215 
L 388.804121 282.160763 
L 388.93861 279.575117 
L 389.207586 281.744488 
L 389.476562 288.525282 
L 389.611051 287.452442 
L 389.745539 288.280158 
L 389.880027 288.227458 
L 390.014515 273.119222 
L 390.149004 273.359511 
L 390.41798 273.381751 
L 390.552468 273.249277 
L 390.686956 267.67428 
L 390.821445 267.86187 
L 390.955933 258.886082 
L 391.224909 201.941919 
L 391.359397 170.125613 
L 391.493886 166.07986 
L 391.762862 176.923329 
L 391.89735 176.372163 
L 392.031839 169.047455 
L 392.166327 172.798769 
L 392.300815 181.904613 
L 392.569791 242.906132 
L 392.70428 269.563233 
L 392.973256 274.47393 
L 393.107744 275.140647 
L 393.376721 267.985158 
L 393.645697 273.783522 
L 393.780185 270.345019 
L 393.914673 271.749042 
L 394.049162 264.23191 
L 394.721603 148.011281 
L 394.990579 146.92442 
L 395.125067 146.498475 
L 395.259556 158.043472 
L 395.394044 158.925821 
L 395.931997 248.310461 
L 396.200973 262.112337 
L 396.335461 258.322829 
L 396.46995 283.444884 
L 396.604438 283.833601 
L 397.007902 286.911428 
L 397.276879 273.670388 
L 397.545855 198.921142 
L 397.680343 193.660406 
L 397.94932 169.953011 
L 398.083808 156.296178 
L 398.218296 169.219573 
L 398.352785 164.38575 
L 398.487273 167.440854 
L 398.487273 167.440854 
" clip-path="url(#p3d1bdd73db)" style="fill: none; stroke: #1f77b4; stroke-width: 1.5; stroke-linecap: square"/>
   </g>
   <g id="line2d_13">
    <path d="M 73.832727 283.338205 
L 73.967215 283.292557 
L 74.236192 282.195997 
L 74.37068 280.217446 
L 74.505168 282.264467 
L 74.639657 281.835307 
L 74.774145 281.820626 
L 74.908633 270.074124 
L 75.043121 219.985998 
L 75.177609 229.444244 
L 75.312098 250.65983 
L 75.446586 251.327868 
L 75.85005 247.521812 
L 75.984539 248.886562 
L 76.119027 249.009283 
L 76.388003 244.734393 
L 76.65698 287.753375 
L 77.194933 263.856815 
L 77.463909 270.376612 
L 77.598397 268.522921 
L 77.732885 271.14014 
L 77.867374 262.393004 
L 78.001862 237.823946 
L 78.270838 132.060783 
L 78.405327 109.772313 
L 78.539815 106.29349 
L 78.674303 114.442771 
L 78.808791 106.683409 
L 78.943279 116.976665 
L 79.077768 113.672917 
L 79.346744 148.431492 
L 80.153673 273.213136 
L 80.288161 271.287422 
L 80.42265 259.072983 
L 80.557138 274.910807 
L 80.691626 276.276149 
L 81.095091 262.026271 
L 81.229579 239.427433 
L 81.498555 144.439363 
L 81.633044 165.379527 
L 81.90202 156.111628 
L 82.036508 199.076422 
L 82.305485 199.924175 
L 82.439973 203.33165 
L 82.574461 196.402052 
L 82.708949 227.814755 
L 82.977926 200.38952 
L 83.112414 206.315622 
L 83.246902 199.721365 
L 83.38139 199.644206 
L 84.053831 280.747141 
L 84.18832 280.403461 
L 84.322808 199.640816 
L 84.457296 221.573654 
L 84.591784 199.640816 
L 84.860761 199.640816 
L 84.995249 200.314387 
L 85.264225 168.594429 
L 86.071155 236.960241 
L 86.340131 263.936532 
L 86.474619 270.406049 
L 86.609107 270.269819 
L 86.743596 272.604088 
L 87.012572 295.370608 
L 87.14706 294.703621 
L 87.281549 290.019607 
L 87.416037 290.696913 
L 87.550525 290.463335 
L 87.685013 288.003283 
L 87.95399 238.271146 
L 88.222966 259.988366 
L 88.491942 261.366607 
L 88.626431 252.075781 
L 88.760919 254.662663 
L 88.895407 245.07895 
L 89.164384 255.723746 
L 89.298872 258.509309 
L 89.567848 285.236532 
L 89.702336 278.501148 
L 89.971313 278.851644 
L 90.105801 253.292952 
L 90.240289 254.81512 
L 90.374777 266.447508 
L 90.643754 259.938204 
L 90.91273 267.218056 
L 91.047218 260.99877 
L 91.181707 243.8321 
L 91.316195 253.250417 
L 91.450683 250.369572 
L 91.585171 258.195377 
L 91.71966 256.642289 
L 91.988636 251.77122 
L 92.123124 251.686843 
L 92.257612 257.53459 
L 92.392101 256.396634 
L 92.526589 258.879588 
L 92.930053 271.221533 
L 93.064542 270.775113 
L 93.19903 267.42849 
L 93.333518 281.816938 
L 93.468006 282.505998 
L 93.602495 276.52617 
L 93.736983 278.466294 
L 93.871471 277.394421 
L 94.140447 264.77565 
L 94.409424 171.89325 
L 94.543912 179.994582 
L 94.812888 159.34237 
L 94.947377 156.035596 
L 95.350841 173.293822 
L 95.48533 162.969169 
L 95.888794 253.802511 
L 96.157771 274.321925 
L 96.292259 271.35576 
L 96.426747 271.411271 
L 96.561235 273.699723 
L 96.830212 271.801456 
L 96.9647 274.371785 
L 97.099188 273.795206 
L 97.233676 270.854436 
L 97.368164 254.487501 
L 97.637141 172.904326 
L 97.771629 178.78801 
L 97.906117 173.57346 
L 98.040606 185.983491 
L 98.175094 180.80844 
L 98.309582 181.248929 
L 98.44407 179.358596 
L 98.847535 210.279685 
L 99.385488 275.737371 
L 99.519976 277.129343 
L 99.654464 275.944471 
L 99.788952 286.360166 
L 99.923441 287.020734 
L 100.057929 280.406888 
L 100.192417 280.980878 
L 100.326905 283.170374 
L 100.73037 280.250621 
L 100.864858 285.731762 
L 100.999346 284.57974 
L 101.268323 284.307911 
L 101.402811 279.090351 
L 101.537299 265.413502 
L 101.671787 274.57754 
L 101.940764 260.982727 
L 102.075252 269.083305 
L 102.20974 270.441242 
L 102.344228 270.436896 
L 102.478717 273.659609 
L 102.613205 281.509711 
L 102.747693 277.736738 
L 102.882181 282.547956 
L 103.016669 260.91793 
L 103.151158 257.430235 
L 103.285646 274.295618 
L 103.420134 274.103286 
L 103.823599 260.2485 
L 103.958087 229.687266 
L 104.092575 169.165539 
L 104.227063 165.366985 
L 104.361552 153.892424 
L 104.49604 166.919754 
L 104.765016 143.363751 
L 105.302969 193.208126 
L 105.706434 263.218869 
L 105.840922 267.684925 
L 105.97541 259.379206 
L 106.109898 268.242475 
L 106.244387 288.99356 
L 106.378875 289.826059 
L 106.647851 281.07949 
L 106.782339 283.035395 
L 107.051316 281.312825 
L 107.320292 222.202038 
L 107.589269 263.68514 
L 107.992733 253.296671 
L 108.26171 249.41166 
L 108.396198 250.140784 
L 108.530686 247.276267 
L 108.665174 250.843118 
L 108.934151 285.006458 
L 109.068639 285.52088 
L 109.337615 278.474602 
L 109.472104 268.448925 
L 109.74108 272.570463 
L 109.875568 272.409023 
L 110.144545 271.079893 
L 110.279033 271.755233 
L 110.413521 271.555841 
L 110.816986 281.223109 
L 111.085962 275.847306 
L 111.22045 276.217644 
L 111.354939 273.915693 
L 111.489427 268.11785 
L 111.623915 268.959041 
L 111.758403 266.747044 
L 111.892891 267.75474 
L 112.161868 274.304287 
L 112.430844 273.856286 
L 112.565333 273.947465 
L 112.699821 255.559405 
L 112.834309 257.630873 
L 112.968797 268.370346 
L 113.237774 265.533298 
L 113.372262 265.552947 
L 113.910215 275.391214 
L 114.044703 276.172121 
L 114.179191 273.880411 
L 114.448168 259.624803 
L 114.582656 259.547905 
L 114.851632 254.262604 
L 115.120609 246.237177 
L 115.524073 263.339916 
L 115.658561 262.270673 
L 115.79305 262.412331 
L 115.927538 264.183817 
L 116.062026 264.016153 
L 116.196514 259.285397 
L 116.465491 267.689905 
L 116.599979 259.213096 
L 116.734467 243.546447 
L 117.003444 132.965883 
L 117.137932 93.112339 
L 117.541396 80.112371 
L 117.675885 84.502045 
L 117.944861 103.035177 
L 118.348326 181.277501 
L 118.617302 240.371121 
L 118.886279 256.89145 
L 119.155255 250.741951 
L 119.289743 256.021743 
L 119.55872 255.532954 
L 119.693208 259.339207 
L 119.827696 259.031896 
L 119.962184 241.841892 
L 120.231161 124.102384 
L 120.500137 96.310577 
L 120.769114 89.681098 
L 120.903602 89.282301 
L 121.03809 86.224191 
L 121.172578 89.664707 
L 121.576043 164.155562 
L 121.845019 236.400041 
L 121.979507 249.250252 
L 122.113996 248.213347 
L 122.248484 240.681562 
L 122.382972 246.236389 
L 122.51746 260.804831 
L 122.651948 262.952147 
L 122.786437 257.603075 
L 122.920925 258.496385 
L 123.055413 256.29045 
L 123.189901 241.739674 
L 123.593366 94.280081 
L 123.727854 81.370848 
L 124.131319 92.156845 
L 124.400295 110.507241 
L 124.534783 112.360335 
L 124.669272 123.646362 
L 125.072736 241.794752 
L 125.207225 263.188001 
L 125.341713 266.780615 
L 125.610689 252.924977 
L 125.879666 273.365054 
L 126.148642 269.163932 
L 126.417618 244.938684 
L 126.686595 136.209971 
L 126.955571 97.520563 
L 127.09006 91.090114 
L 127.224548 96.019855 
L 127.493524 118.912517 
L 127.628012 118.837061 
L 127.896989 152.096929 
L 128.434942 258.598108 
L 128.56943 262.5397 
L 128.703918 251.903828 
L 128.972894 262.125669 
L 129.107383 261.573724 
L 129.241871 266.561651 
L 129.376359 267.008636 
L 129.645336 229.846594 
L 130.0488 92.15419 
L 130.317777 90.302987 
L 130.452265 100.766213 
L 130.586753 131.528512 
L 130.721241 128.366243 
L 130.855729 120.47045 
L 130.990218 131.899488 
L 131.662659 265.526251 
L 131.797147 267.022968 
L 132.066123 257.5476 
L 132.200612 256.948513 
L 132.469588 274.838099 
L 132.604076 272.562605 
L 132.738564 268.779931 
L 132.873053 268.758255 
L 133.142029 247.563638 
L 133.411005 235.452373 
L 133.545494 236.426535 
L 133.679982 234.293151 
L 133.948958 238.563342 
L 134.083447 231.037117 
L 134.486911 245.473321 
L 134.621399 248.405889 
L 134.890376 255.306652 
L 135.024864 252.639022 
L 135.159352 255.081753 
L 135.428329 261.659487 
L 135.831793 268.054189 
L 135.966282 273.934794 
L 136.10077 274.101419 
L 136.235258 265.366461 
L 136.369746 266.935201 
L 136.504234 270.992419 
L 136.638723 265.950822 
L 136.773211 267.437617 
L 136.907699 266.508921 
L 137.042187 263.638608 
L 137.311164 243.278244 
L 137.58014 253.690397 
L 137.714628 249.852709 
L 137.849117 252.242324 
L 138.118093 259.690974 
L 138.252581 256.703932 
L 138.387069 258.562981 
L 138.521558 265.736526 
L 138.790534 260.531259 
L 139.05951 268.599053 
L 139.328487 238.382109 
L 139.731951 92.864535 
L 139.86644 93.836163 
L 140.000928 91.331069 
L 140.135416 91.797061 
L 140.538881 127.05928 
L 140.942345 170.507068 
L 141.211322 246.716997 
L 141.480298 265.649835 
L 141.614786 264.547269 
L 141.749275 261.202042 
L 141.883763 266.626522 
L 142.152739 266.308855 
L 142.287228 265.51866 
L 142.556204 229.805047 
L 142.959669 90.702209 
L 143.094157 92.626821 
L 143.228645 91.445358 
L 143.363133 92.958565 
L 143.497621 101.965319 
L 143.63211 93.284752 
L 143.766598 98.302671 
L 144.304551 236.317992 
L 144.439039 243.32455 
L 144.708015 268.811196 
L 144.842504 269.82185 
L 144.976992 263.318589 
L 145.11148 262.701747 
L 145.380456 267.617667 
L 145.514945 260.461748 
L 145.649433 232.04836 
L 145.783921 229.938632 
L 146.321874 86.698989 
L 146.725339 130.108584 
L 146.859827 120.291183 
L 146.994315 127.250434 
L 147.128803 125.466551 
L 147.263291 140.916153 
L 147.532268 244.786588 
L 147.935732 269.085668 
L 148.070221 264.502643 
L 148.204709 264.938357 
L 148.339197 267.71419 
L 148.608174 265.387798 
L 148.87715 263.678194 
L 149.011638 236.111631 
L 149.280615 131.115745 
L 149.415103 103.72888 
L 149.549591 114.648931 
L 149.684079 109.791751 
L 149.818567 111.842372 
L 150.222032 153.211283 
L 150.35652 144.895604 
L 150.491009 151.285315 
L 150.759985 244.241565 
L 151.16345 271.340086 
L 151.432426 262.174301 
L 151.701402 268.453122 
L 151.970379 269.23996 
L 152.104867 266.699204 
L 152.239355 232.578427 
L 152.508332 128.546618 
L 152.64282 100.138454 
L 152.777308 117.792503 
L 152.911796 112.810017 
L 153.046285 102.483229 
L 153.315261 124.38557 
L 153.584237 188.819565 
L 153.718726 197.901713 
L 154.12219 264.432269 
L 154.256678 277.910823 
L 154.660143 273.389729 
L 154.794631 273.013383 
L 154.92912 273.252148 
L 155.063608 274.112407 
L 155.332584 278.938499 
L 155.467072 276.852384 
L 155.736049 247.518756 
L 155.870537 254.042473 
L 156.139513 262.300145 
L 156.274002 261.767323 
L 156.40849 256.835191 
L 156.542978 256.386695 
L 156.811955 257.673793 
L 157.080931 264.606163 
L 157.215419 265.705451 
L 157.484396 270.986927 
L 157.618884 267.794783 
L 157.753372 267.782612 
L 158.022348 273.136468 
L 158.156837 272.923302 
L 158.291325 273.978861 
L 158.694789 281.808851 
L 158.829278 275.546651 
L 158.963766 275.157986 
L 159.098254 277.466187 
L 159.367231 271.591152 
L 159.501719 274.895625 
L 159.636207 273.367875 
L 159.905183 256.202055 
L 160.039672 261.113897 
L 160.17416 257.095342 
L 160.308648 257.371468 
L 160.443136 260.54615 
L 160.577624 269.008965 
L 160.712113 268.370534 
L 160.846601 262.098292 
L 160.981089 263.240275 
L 161.384554 271.363668 
L 161.519042 269.92985 
L 161.65353 270.803817 
L 161.922507 242.854755 
L 162.325971 100.243798 
L 162.460459 85.396548 
L 162.729436 92.400315 
L 162.863924 91.431714 
L 163.132901 116.68532 
L 163.267389 125.770197 
L 163.536365 183.602084 
L 163.805342 248.077974 
L 163.93983 252.605029 
L 164.074318 262.160079 
L 164.208806 263.597072 
L 164.343294 259.525698 
L 164.477783 272.909751 
L 164.612271 275.164282 
L 164.746759 273.716751 
L 164.881247 264.614969 
L 165.150224 237.392271 
L 165.553688 107.919483 
L 165.688177 118.932222 
L 165.957153 109.199663 
L 166.091641 118.208063 
L 166.226129 115.536878 
L 166.495106 105.137709 
L 166.629594 117.668911 
L 166.89857 238.321489 
L 167.033059 248.746198 
L 167.167547 244.134243 
L 167.436523 255.129535 
L 167.571012 254.495425 
L 167.839988 265.79674 
L 168.108964 266.322036 
L 168.243453 256.065418 
L 168.377941 232.061771 
L 168.781405 95.151248 
L 168.915894 103.732438 
L 169.050382 104.288772 
L 169.18487 105.801615 
L 169.319358 111.788637 
L 169.453847 95.176247 
L 169.588335 98.501437 
L 170.260776 250.880324 
L 170.529752 267.621484 
L 170.66424 260.539853 
L 170.798729 263.075796 
L 170.933217 263.060079 
L 171.067705 262.717824 
L 171.202193 264.417061 
L 171.336681 268.207319 
L 171.740146 185.32352 
L 172.009123 100.076961 
L 172.143611 103.166194 
L 172.278099 111.27335 
L 172.547075 98.359011 
L 173.085028 146.683509 
L 173.488493 252.164131 
L 173.757469 269.569794 
L 173.891958 268.956449 
L 174.026446 284.159364 
L 174.160934 281.667247 
L 174.295422 275.283545 
L 174.564399 277.911735 
L 174.833375 253.548336 
L 174.967863 225.169597 
L 175.23684 160.110513 
L 175.505816 136.911197 
L 175.640304 139.583261 
L 175.774792 154.613706 
L 175.909281 156.122664 
L 176.043769 160.405547 
L 176.178257 176.667454 
L 176.312745 176.506045 
L 176.447234 196.144658 
L 176.71621 253.732796 
L 176.985186 274.693426 
L 177.119675 265.915066 
L 177.254163 264.489408 
L 177.388651 269.984619 
L 177.523139 268.972936 
L 177.657627 271.332129 
L 177.792116 276.052417 
L 178.061092 276.682113 
L 178.330069 256.784881 
L 178.464557 263.921012 
L 178.599045 255.70984 
L 178.733533 259.245152 
L 178.868021 259.386074 
L 179.00251 263.057293 
L 179.271486 250.628443 
L 179.405974 254.78807 
L 179.674951 251.904918 
L 179.943927 263.411543 
L 180.078415 272.94557 
L 180.347392 263.925961 
L 180.616368 280.399781 
L 180.750856 276.022103 
L 180.885345 275.687539 
L 181.019833 277.051085 
L 181.154321 276.669668 
L 181.423297 265.5587 
L 181.557786 264.085666 
L 181.692274 270.154774 
L 181.826762 269.678301 
L 181.96125 270.895228 
L 182.095738 262.741875 
L 182.230227 263.394829 
L 182.364715 269.691413 
L 182.633691 270.67976 
L 182.76818 275.536344 
L 183.037156 272.457094 
L 183.306132 281.181488 
L 183.440621 280.874645 
L 183.575109 278.465375 
L 183.709597 273.935584 
L 183.978573 291.834348 
L 184.24755 279.123643 
L 184.516526 260.378627 
L 184.785503 181.315848 
L 184.919991 187.119761 
L 185.054479 174.473302 
L 185.188967 183.927028 
L 185.323456 179.356423 
L 185.592432 184.091843 
L 185.72692 192.576729 
L 186.264873 257.512026 
L 186.668338 276.902255 
L 186.802826 278.974823 
L 187.206291 294.662096 
L 187.340779 288.054752 
L 187.475267 288.330489 
L 187.609755 284.602453 
L 187.744243 270.172011 
L 188.01322 179.135416 
L 188.147708 189.837063 
L 188.282196 178.183059 
L 188.551173 184.896765 
L 188.685661 187.459399 
L 188.820149 197.516547 
L 188.954637 198.615691 
L 189.223614 219.712082 
L 189.627078 271.906136 
L 189.761567 273.623083 
L 189.896055 272.70983 
L 190.030543 277.27642 
L 190.165031 271.399916 
L 190.299519 271.267121 
L 190.434008 273.750959 
L 190.568496 271.131923 
L 190.702984 271.70653 
L 190.971961 274.50421 
L 191.106449 273.712135 
L 191.240937 268.613313 
L 191.375425 270.914336 
L 191.509913 275.817006 
L 191.644402 268.217163 
L 191.77889 269.350129 
L 191.913378 269.48373 
L 192.182354 257.446478 
L 192.316843 257.670179 
L 192.451331 262.593606 
L 192.585819 262.770648 
L 192.720307 263.245341 
L 192.854796 271.286757 
L 192.989284 271.673082 
L 193.392748 265.339403 
L 193.527237 265.038611 
L 193.796213 270.592647 
L 193.930701 270.320018 
L 194.199678 256.151801 
L 194.468654 170.647225 
L 194.603142 164.766629 
L 194.73763 149.42225 
L 194.872119 149.348999 
L 195.006607 144.415901 
L 195.141095 147.728572 
L 195.275583 157.616807 
L 195.410072 149.704441 
L 195.679048 178.214715 
L 195.948024 242.499282 
L 196.217001 268.915115 
L 196.485977 263.712709 
L 196.620465 277.004964 
L 196.754954 275.220327 
L 196.889442 270.456049 
L 197.158418 273.130573 
L 197.292907 270.157111 
L 197.427395 258.752691 
L 197.696371 180.760831 
L 197.830859 186.443734 
L 198.099836 197.056551 
L 198.234324 194.85177 
L 198.368812 202.640908 
L 198.637789 187.109185 
L 199.444718 281.805036 
L 199.579206 279.940425 
L 199.713694 280.806719 
L 199.848183 284.627728 
L 200.117159 280.341386 
L 200.251647 281.37591 
L 200.386135 278.182036 
L 200.520624 267.943595 
L 200.655112 268.403707 
L 200.7896 247.029386 
L 200.924088 172.272497 
L 201.193065 193.71215 
L 201.327553 197.156202 
L 201.462041 197.244314 
L 201.596529 203.263639 
L 201.865506 188.562453 
L 202.26897 231.137344 
L 202.537947 273.165852 
L 202.672435 277.320806 
L 202.806923 274.623668 
L 202.941411 277.013971 
L 203.210388 259.963796 
L 203.344876 270.603336 
L 203.479364 271.72008 
L 203.748341 258.4994 
L 203.882829 255.880237 
L 204.017317 228.971207 
L 204.286294 160.336979 
L 204.420782 158.633781 
L 204.55527 159.570055 
L 204.824246 168.171305 
L 204.958735 164.413189 
L 205.227711 194.395931 
L 205.900152 270.537632 
L 206.03464 263.810082 
L 206.169129 265.791333 
L 206.303617 287.605275 
L 206.438105 287.153126 
L 206.572593 283.422477 
L 206.707081 286.141826 
L 206.84157 285.807813 
L 206.976058 285.063636 
L 207.110546 277.978132 
L 207.379522 262.603952 
L 207.648499 267.791447 
L 207.917475 278.814795 
L 208.051964 279.198477 
L 208.186452 274.360997 
L 208.455428 260.883553 
L 208.589916 268.335017 
L 208.724405 269.405408 
L 208.993381 280.398517 
L 209.127869 283.30962 
L 209.262357 283.141717 
L 209.396846 279.992779 
L 209.531334 269.918632 
L 209.80031 275.083994 
L 209.934799 274.308826 
L 210.069287 276.271302 
L 210.338263 255.190038 
L 210.741728 151.571876 
L 211.010704 121.779966 
L 211.145192 108.494183 
L 211.548657 159.208498 
L 211.817634 195.349235 
L 212.221098 262.911331 
L 212.355586 267.471237 
L 212.490075 263.527556 
L 212.893539 277.720546 
L 213.162516 272.978731 
L 213.297004 277.146406 
L 213.56598 244.635212 
L 213.834957 138.540413 
L 213.969445 121.560241 
L 214.103933 142.205805 
L 214.238421 139.94785 
L 214.37291 141.587001 
L 214.507398 151.768336 
L 214.776374 191.225086 
L 215.045351 197.229681 
L 215.448815 272.82108 
L 215.717792 269.290651 
L 215.986768 268.555964 
L 216.121256 271.472146 
L 216.255745 271.006241 
L 216.390233 271.467951 
L 216.524721 275.121722 
L 216.659209 267.872587 
L 216.793697 252.766293 
L 217.062674 149.037667 
L 217.197162 133.646411 
L 217.466138 151.575302 
L 217.600627 163.516079 
L 217.735115 163.048359 
L 217.869603 146.800139 
L 218.004091 159.4043 
L 218.273068 215.719544 
L 218.407556 220.370637 
L 218.676532 267.14981 
L 218.945509 279.897374 
L 219.079997 263.751768 
L 219.214485 264.530614 
L 219.483462 275.488643 
L 219.752438 279.907162 
L 220.021414 252.644344 
L 220.290391 145.838783 
L 220.424879 148.976142 
L 220.559367 157.279152 
L 220.828344 152.806921 
L 220.962832 169.07697 
L 221.09732 169.342455 
L 221.366297 209.797241 
L 221.500785 207.583991 
L 221.635273 215.34788 
L 221.904249 268.860798 
L 222.173226 278.654632 
L 222.442202 273.366384 
L 222.711179 282.062828 
L 222.845667 281.953109 
L 222.980155 282.71296 
L 223.114643 279.537592 
L 223.249132 280.982915 
L 223.518108 245.249071 
L 223.787084 270.602465 
L 224.056061 256.930375 
L 224.325037 254.832148 
L 224.459525 257.337054 
L 224.594014 257.014465 
L 224.728502 256.095041 
L 224.86299 253.142849 
L 225.131967 263.706782 
L 225.266455 263.964587 
L 225.400943 259.871845 
L 225.535431 260.228821 
L 225.669919 261.637771 
L 225.804408 258.834808 
L 226.207872 272.494685 
L 226.476849 274.386818 
L 226.611337 274.436253 
L 226.880313 272.684835 
L 227.14929 277.495192 
L 227.283778 274.110301 
L 227.418266 267.066632 
L 227.821731 272.44407 
L 227.956219 270.272112 
L 228.090707 270.849774 
L 228.225195 280.305392 
L 228.359684 280.054508 
L 228.62866 276.37146 
L 228.897637 277.93064 
L 229.032125 273.757876 
L 229.166613 274.358933 
L 229.301101 276.836161 
L 229.435589 276.804552 
L 229.570078 265.650934 
L 229.704566 239.605006 
L 230.10803 107.369426 
L 230.242519 93.330345 
L 230.377007 94.445713 
L 230.511495 86.321398 
L 230.780471 127.561119 
L 230.91496 128.099536 
L 231.183936 172.886858 
L 231.587401 255.406654 
L 231.856377 268.147599 
L 232.528818 276.728999 
L 232.663306 273.995201 
L 232.932283 242.688625 
L 233.335748 119.75704 
L 233.470236 124.813388 
L 233.604724 137.573075 
L 233.739212 136.341224 
L 233.8737 150.734847 
L 234.008189 136.88399 
L 234.142677 144.711221 
L 234.411653 207.436718 
L 234.546141 218.047972 
L 234.815118 264.10459 
L 234.949606 274.70951 
L 235.084094 267.884286 
L 235.487559 275.7509 
L 235.622047 281.592039 
L 235.756535 280.009453 
L 235.891024 276.696451 
L 236.16 253.420085 
L 236.428976 142.625635 
L 236.563465 120.83223 
L 236.697953 129.616178 
L 236.832441 125.918421 
L 236.966929 114.324219 
L 237.101417 128.929045 
L 237.235906 160.833687 
L 237.504882 173.87896 
L 237.908347 256.613571 
L 238.177323 275.483845 
L 238.311811 271.714571 
L 238.715276 275.720912 
L 238.984252 286.630968 
L 239.118741 282.876942 
L 239.253229 274.303927 
L 239.387717 249.268929 
L 239.656694 144.673321 
L 239.92567 124.258761 
L 240.060158 135.252369 
L 240.194646 136.237201 
L 240.329135 148.233323 
L 240.598111 184.714082 
L 240.732599 189.958718 
L 240.867087 200.565296 
L 241.270552 260.715402 
L 241.40504 264.941806 
L 241.674017 263.235731 
L 241.808505 263.405594 
L 242.077481 280.80244 
L 242.21197 285.885681 
L 242.346458 283.896448 
L 242.615434 248.464336 
L 242.884411 147.116656 
L 243.018899 135.651974 
L 243.153387 159.852002 
L 243.287875 157.260665 
L 243.422363 143.580007 
L 243.825828 175.368447 
L 243.960316 190.142816 
L 244.229293 240.518424 
L 244.498269 265.010533 
L 244.767246 273.538365 
L 244.901734 269.850249 
L 245.036222 272.645421 
L 245.17071 277.980319 
L 245.574175 275.473223 
L 245.708663 273.020967 
L 245.843151 252.112244 
L 246.112128 267.568506 
L 246.246616 264.404301 
L 246.381104 265.177257 
L 246.515592 260.30084 
L 246.919057 265.416531 
L 247.053545 270.656652 
L 247.188033 270.483516 
L 247.45701 274.612747 
L 247.725986 275.266288 
L 247.860475 279.136808 
L 248.129451 276.534834 
L 248.263939 278.060117 
L 248.532916 276.241797 
L 248.667404 276.066708 
L 248.801892 278.560631 
L 249.070868 275.44945 
L 249.205357 274.956861 
L 249.474333 280.138297 
L 249.608821 280.355726 
L 249.877798 278.710725 
L 250.146774 274.405134 
L 250.281262 271.682164 
L 250.415751 272.88518 
L 250.550239 272.815172 
L 250.684727 272.36015 
L 250.953703 274.15735 
L 251.088192 275.545142 
L 251.22268 274.007306 
L 251.491656 277.138535 
L 251.626144 289.351781 
L 251.760633 287.573197 
L 251.895121 283.221007 
L 252.029609 283.141493 
L 252.298586 260.328336 
L 252.567562 151.04885 
L 252.70205 131.245481 
L 252.836538 142.311594 
L 252.971027 163.633576 
L 253.105515 160.310805 
L 253.777956 210.550602 
L 254.315909 277.465622 
L 254.450397 284.770579 
L 254.584885 285.17822 
L 254.719373 285.182776 
L 254.853862 289.377854 
L 254.98835 287.3417 
L 255.122838 287.346248 
L 255.257326 287.688586 
L 255.526303 248.75518 
L 255.795279 152.950983 
L 256.064255 171.082586 
L 256.333232 157.934185 
L 256.736697 175.656062 
L 257.005673 222.606051 
L 257.140161 229.361616 
L 257.409138 258.885099 
L 257.543626 268.583666 
L 257.812602 267.770723 
L 257.94709 269.0273 
L 258.216067 288.214506 
L 258.485043 281.125385 
L 258.75402 254.035611 
L 259.022996 150.897351 
L 259.291973 168.47193 
L 259.426461 165.729895 
L 259.560949 148.777549 
L 259.829925 182.209287 
L 259.964414 164.317484 
L 260.098902 175.75501 
L 260.367878 224.520021 
L 260.636855 258.707514 
L 260.905831 268.411225 
L 261.174808 263.698427 
L 261.309296 272.209632 
L 261.578272 275.586575 
L 261.71276 273.176238 
L 261.847249 268.10625 
L 261.981737 246.548844 
L 262.250713 151.461599 
L 262.51969 164.427503 
L 262.654178 146.779604 
L 262.788666 146.392509 
L 262.923154 158.329714 
L 263.057643 158.786962 
L 263.595595 220.721184 
L 263.864572 250.118898 
L 264.133548 259.296178 
L 264.268036 258.783772 
L 264.402525 268.251073 
L 264.537013 265.76821 
L 264.671501 265.860697 
L 264.805989 267.14603 
L 265.074966 263.943313 
L 265.209454 249.852049 
L 265.747407 109.773254 
L 265.881895 112.733447 
L 266.016383 102.48017 
L 266.150871 120.725968 
L 266.28536 120.87724 
L 266.419848 119.723266 
L 266.554336 129.051349 
L 266.823312 188.843943 
L 267.092289 253.132426 
L 267.226777 260.519118 
L 267.361265 259.222771 
L 267.495754 252.333186 
L 267.630242 273.241523 
L 267.76473 273.303547 
L 267.899218 268.802414 
L 268.033706 269.433576 
L 268.302683 278.811503 
L 268.437171 278.222481 
L 268.571659 269.740653 
L 268.706147 271.964163 
L 268.840636 280.796303 
L 269.109612 271.772782 
L 269.513077 262.631585 
L 269.782053 251.181888 
L 269.916541 256.208525 
L 270.05103 254.736882 
L 270.320006 258.027072 
L 270.454494 258.612282 
L 270.723471 264.914282 
L 270.857959 284.271278 
L 270.992447 285.285566 
L 271.126935 276.056945 
L 271.395912 277.887819 
L 271.5304 277.102635 
L 271.799376 279.479428 
L 271.933865 283.729116 
L 272.068353 281.568108 
L 272.202841 282.004409 
L 272.337329 280.806884 
L 272.471817 281.815068 
L 272.606306 279.88191 
L 272.740794 275.119208 
L 273.00977 273.430906 
L 273.144258 274.971093 
L 273.278747 271.34724 
L 273.413235 271.587348 
L 273.682211 276.867739 
L 273.8167 276.309222 
L 273.951188 276.390777 
L 274.085676 274.853693 
L 274.220164 289.25086 
L 274.354652 291.335149 
L 274.623629 286.467385 
L 274.892605 260.834496 
L 275.161582 184.269099 
L 275.430558 152.626602 
L 275.565046 152.173448 
L 275.699535 156.071304 
L 275.834023 156.193786 
L 276.102999 188.896714 
L 276.237487 202.237438 
L 276.506464 239.622909 
L 276.909928 273.94943 
L 277.044417 274.990214 
L 277.178905 279.195008 
L 277.313393 276.3717 
L 277.447881 284.560178 
L 277.716858 286.44727 
L 277.851346 285.54319 
L 277.985834 276.483739 
L 278.120322 259.718273 
L 278.389299 189.384255 
L 278.523787 190.6603 
L 278.658275 178.573108 
L 278.792763 182.922357 
L 278.927252 174.871712 
L 279.06174 190.171375 
L 279.196228 191.248265 
L 279.330716 193.646617 
L 280.137646 278.21077 
L 280.272134 278.434383 
L 280.406622 278.937141 
L 280.54111 263.530576 
L 280.675598 262.088304 
L 280.810087 268.738245 
L 280.944575 269.038135 
L 281.079063 268.19993 
L 281.348039 254.419861 
L 281.751504 136.771115 
L 281.885992 126.982006 
L 282.020481 130.712563 
L 282.289457 149.188093 
L 282.423945 125.933769 
L 282.558433 127.786875 
L 282.82741 187.853977 
L 283.230874 262.467266 
L 283.365363 269.903802 
L 283.499851 264.251835 
L 283.634339 264.186375 
L 283.903316 261.9666 
L 284.037804 262.413451 
L 284.172292 264.384097 
L 284.30678 264.107456 
L 284.575757 253.470961 
L 284.979221 152.051999 
L 285.113709 155.930765 
L 285.248198 140.818054 
L 285.382686 139.957003 
L 285.517174 141.546082 
L 285.651662 158.921055 
L 285.78615 151.944074 
L 285.920639 154.786963 
L 286.324103 249.954309 
L 286.59308 265.633852 
L 286.727568 264.453316 
L 286.862056 261.446232 
L 286.996544 287.238284 
L 287.131033 287.304996 
L 287.265521 277.382389 
L 287.400009 278.350223 
L 287.668985 275.317174 
L 287.803474 270.815222 
L 288.206938 279.666855 
L 288.475915 275.655642 
L 288.610403 273.589319 
L 288.744891 273.34253 
L 288.879379 270.961441 
L 289.013868 272.022708 
L 289.148356 272.098416 
L 289.282844 268.48576 
L 289.55182 280.774598 
L 289.686309 279.878259 
L 289.955285 277.119637 
L 290.089773 278.310216 
L 290.224262 275.770644 
L 290.35875 277.967332 
L 290.493238 277.447716 
L 290.627726 278.103312 
L 290.762214 276.048044 
L 291.165679 245.503536 
L 291.300167 183.895368 
L 291.434655 173.49012 
L 291.83812 193.885692 
L 292.107096 175.740618 
L 292.645049 228.888736 
L 292.914026 271.303388 
L 293.048514 274.720387 
L 293.31749 272.88897 
L 293.451979 268.656795 
L 293.586467 268.594533 
L 293.720955 267.450052 
L 293.989931 271.889405 
L 294.393396 230.531692 
L 294.662373 169.849921 
L 294.796861 156.91429 
L 294.931349 154.777787 
L 295.065837 141.804296 
L 295.200325 139.711244 
L 295.334814 150.228433 
L 295.469302 148.721102 
L 295.738278 200.800476 
L 295.872766 211.218185 
L 296.141743 262.784888 
L 296.276231 267.961765 
L 296.410719 257.85328 
L 296.545208 265.900852 
L 296.679696 290.275844 
L 296.814184 289.652005 
L 296.948672 283.407 
L 297.08316 283.441027 
L 297.352137 284.216425 
L 297.486625 281.995654 
L 297.621113 282.959782 
L 297.755601 286.14755 
L 297.89009 286.406805 
L 298.159066 275.95081 
L 298.428042 280.645693 
L 298.562531 279.724199 
L 298.831507 272.705411 
L 298.965995 272.867 
L 299.503948 281.34842 
L 299.638436 279.064442 
L 299.772925 280.318693 
L 299.907413 264.964435 
L 300.176389 274.612438 
L 300.445366 272.689496 
L 300.714342 250.671497 
L 301.117807 146.642964 
L 301.386783 127.579903 
L 301.521271 128.564453 
L 301.65576 140.819564 
L 301.790248 135.064761 
L 301.924736 150.157295 
L 302.193712 207.87166 
L 302.328201 217.471792 
L 302.597177 256.773317 
L 302.731665 263.696599 
L 302.866153 259.926327 
L 303.13513 271.860772 
L 303.404106 267.514928 
L 303.538595 272.034279 
L 303.673083 272.100975 
L 304.076547 210.030305 
L 304.211036 164.432793 
L 304.345524 166.176911 
L 304.480012 164.693026 
L 304.748988 155.892724 
L 304.883477 162.612476 
L 305.017965 153.627455 
L 305.152453 161.249335 
L 305.690406 243.027485 
L 305.959382 269.539644 
L 306.228359 267.861517 
L 306.362847 269.290306 
L 306.497335 280.236428 
L 306.631823 282.002103 
L 307.035288 271.353721 
L 307.169776 248.436992 
L 307.438753 154.198525 
L 307.707729 171.955168 
L 307.976706 158.459932 
L 308.111194 163.75436 
L 308.245682 153.65451 
L 308.38017 161.824961 
L 308.783635 230.912274 
L 309.187099 274.825236 
L 309.321588 274.373642 
L 309.725052 279.397215 
L 309.994029 277.960108 
L 310.128517 277.495879 
L 310.263005 270.553914 
L 310.397493 244.782664 
L 310.66647 153.529085 
L 310.935446 170.285894 
L 311.069934 170.221404 
L 311.204423 159.784457 
L 311.338911 163.830816 
L 311.607887 160.04191 
L 312.011352 233.878317 
L 312.414817 268.528317 
L 312.549305 268.734176 
L 312.683793 269.608061 
L 312.952769 275.034355 
L 313.087258 273.371162 
L 313.221746 274.785297 
L 313.356234 274.720928 
L 313.490722 275.527556 
L 313.894187 247.871733 
L 314.028675 260.113949 
L 314.163163 258.315677 
L 314.297652 259.583889 
L 314.43214 256.064902 
L 314.701116 264.38298 
L 314.835604 262.432362 
L 314.970093 263.225868 
L 315.104581 269.794521 
L 315.239069 270.028822 
L 315.373557 266.964521 
L 315.642534 270.820358 
L 315.91151 269.26649 
L 316.314975 273.335882 
L 316.449463 272.260066 
L 316.718439 273.491126 
L 316.852928 272.430923 
L 316.987416 273.212404 
L 317.121904 278.248724 
L 317.525369 270.759688 
L 317.659857 269.668759 
L 317.794345 273.487745 
L 318.063322 264.118737 
L 318.19781 263.565243 
L 318.332298 266.150194 
L 318.466786 264.399214 
L 318.601274 266.231309 
L 318.735763 266.286578 
L 318.870251 268.2946 
L 319.139227 268.208525 
L 319.273715 269.142286 
L 319.408204 283.873574 
L 319.542692 284.495166 
L 319.67718 279.961209 
L 319.811668 280.053766 
L 319.946157 275.333762 
L 320.080645 257.986824 
L 320.349621 153.240635 
L 320.618598 131.364186 
L 320.887574 148.03689 
L 321.560015 195.361466 
L 322.097968 272.74306 
L 322.232456 268.517977 
L 322.501433 272.313909 
L 322.635921 284.171727 
L 322.770409 285.403113 
L 323.039385 280.543593 
L 323.308362 261.616958 
L 323.577338 158.954891 
L 323.846315 174.254786 
L 324.115291 154.134856 
L 324.249779 155.679363 
L 324.384268 155.145275 
L 324.518756 162.12795 
L 324.787732 208.61893 
L 324.92222 217.710546 
L 325.191197 265.394289 
L 325.325685 268.551856 
L 325.460173 265.436883 
L 325.998126 283.61477 
L 326.132614 283.135961 
L 326.267103 281.871095 
L 326.401591 275.910725 
L 326.536079 256.992529 
L 326.805055 153.880304 
L 327.074032 174.537035 
L 327.343008 161.455213 
L 327.477496 167.747815 
L 327.611985 163.775495 
L 327.746473 163.957337 
L 327.880961 179.248389 
L 328.149937 228.85866 
L 328.553402 265.607482 
L 329.225843 286.068947 
L 329.49482 281.002909 
L 329.763796 255.111018 
L 330.032772 164.362235 
L 330.167261 165.398171 
L 330.301749 174.292142 
L 330.705214 158.134135 
L 330.97419 188.217146 
L 331.243166 197.88849 
L 331.646631 262.822779 
L 331.781119 268.077511 
L 331.915607 266.214661 
L 332.050096 266.864152 
L 332.184584 271.628312 
L 332.319072 284.419617 
L 332.45356 284.212116 
L 332.588049 279.693426 
L 332.722537 280.050484 
L 332.857025 271.628611 
L 332.991513 254.259247 
L 333.26049 164.354529 
L 333.529466 180.770473 
L 333.798442 165.677294 
L 333.932931 165.208444 
L 334.067419 167.883309 
L 334.470883 208.988125 
L 334.874348 267.464314 
L 335.277813 276.488871 
L 335.546789 272.817055 
L 335.681277 273.20571 
L 335.815766 273.044636 
L 336.084742 276.292781 
L 336.353718 263.138009 
L 336.488207 263.682799 
L 336.757183 257.5735 
L 336.891671 258.761721 
L 337.02616 257.524965 
L 337.564112 268.69524 
L 337.833089 270.767002 
L 337.967577 269.134436 
L 338.236553 272.931881 
L 338.371042 270.384508 
L 338.50553 270.64124 
L 338.640018 267.570076 
L 338.774506 268.42801 
L 338.908995 271.275518 
L 339.043483 271.398074 
L 339.312459 273.634058 
L 339.446947 270.955088 
L 339.715924 276.20843 
L 340.119388 271.910001 
L 340.253877 274.064625 
L 340.388365 273.491983 
L 340.522853 275.635803 
L 340.657341 272.067431 
L 340.926318 272.452085 
L 341.060806 271.920402 
L 341.195294 266.664548 
L 341.464271 275.210287 
L 341.598759 273.486776 
L 341.733247 273.275931 
L 341.867735 275.7515 
L 342.002223 286.391312 
L 342.136712 286.121223 
L 342.2712 283.424154 
L 342.405688 283.167875 
L 342.674664 256.107699 
L 343.078129 140.221598 
L 343.347106 174.249305 
L 343.481594 170.745946 
L 343.75057 177.889531 
L 344.691988 268.527688 
L 344.960964 277.02897 
L 345.095452 276.531628 
L 345.22994 283.92014 
L 345.364429 284.167005 
L 345.633405 282.166777 
L 345.767893 275.512627 
L 345.902382 259.931415 
L 346.171358 167.038976 
L 346.305846 181.262129 
L 346.574823 175.218191 
L 346.709311 169.775699 
L 346.978287 175.429191 
L 347.381752 216.646919 
L 347.785217 265.045646 
L 348.054193 270.951888 
L 348.323169 274.490659 
L 348.457658 285.334985 
L 348.592146 285.961426 
L 348.861122 283.325519 
L 349.130099 253.524168 
L 349.399075 163.038395 
L 349.533563 174.486974 
L 349.937028 164.408636 
L 350.206004 172.10065 
L 350.474981 197.16874 
L 350.743957 237.727241 
L 351.147422 273.023025 
L 351.416398 273.192543 
L 351.550886 275.969014 
L 351.685375 288.169395 
L 351.819863 285.792614 
L 351.954351 281.0406 
L 352.088839 280.946081 
L 352.223328 277.616372 
L 352.357816 262.059899 
L 352.626792 158.24027 
L 352.76128 174.363113 
L 353.030257 176.493429 
L 353.164745 167.7338 
L 353.299233 172.916121 
L 353.702698 162.203576 
L 353.971674 237.306942 
L 354.375139 278.278493 
L 354.509627 275.349023 
L 354.644115 275.276045 
L 354.913092 284.062364 
L 355.316556 281.891693 
L 355.451045 276.378148 
L 355.585533 256.298866 
L 355.854509 185.329541 
L 355.988998 188.076926 
L 356.257974 157.895968 
L 356.661439 169.636443 
L 357.602856 280.882248 
L 357.737344 279.751661 
L 357.871832 280.252496 
L 358.006321 284.636771 
L 358.275297 281.406419 
L 358.409785 281.455677 
L 358.544274 281.274465 
L 358.81325 275.276948 
L 359.216715 249.903042 
L 359.351203 251.075999 
L 359.485691 255.43748 
L 359.620179 250.733695 
L 359.889156 267.270726 
L 360.023644 263.777464 
L 360.158132 265.68085 
L 360.427109 280.523603 
L 360.696085 277.93863 
L 360.965061 281.688971 
L 361.09955 282.866085 
L 361.368526 281.724599 
L 361.503014 281.548979 
L 361.637502 283.549215 
L 361.771991 282.392365 
L 361.906479 277.367558 
L 362.175455 286.355247 
L 362.309944 284.252012 
L 362.444432 278.557558 
L 362.57892 279.247306 
L 362.713408 276.490107 
L 362.847896 279.089606 
L 362.982385 279.208632 
L 363.116873 273.84589 
L 363.251361 273.643278 
L 363.520337 279.657364 
L 363.789314 277.537366 
L 364.192778 281.490086 
L 364.327267 236.288168 
L 364.461755 237.699704 
L 364.596243 257.295644 
L 364.730731 257.363151 
L 364.86522 260.723218 
L 364.999708 257.474974 
L 365.268684 198.277653 
L 365.537661 122.492927 
L 365.672149 100.221496 
L 365.806637 100.391701 
L 366.075613 116.5745 
L 366.210102 111.059197 
L 366.479078 124.743864 
L 366.613566 143.499682 
L 366.882543 241.708067 
L 367.151519 263.822567 
L 367.286007 264.91246 
L 367.420496 256.01855 
L 367.689472 270.821111 
L 367.82396 267.916939 
L 368.092937 273.349164 
L 368.496401 190.819793 
L 368.765378 96.630995 
L 368.899866 104.899432 
L 369.034354 101.48847 
L 369.303331 90.667342 
L 369.437819 87.916472 
L 369.572307 118.499681 
L 369.706795 109.759117 
L 369.841283 131.150891 
L 370.244748 244.28766 
L 370.648213 262.907766 
L 370.782701 287.784804 
L 370.917189 288.107184 
L 371.051677 279.639 
L 371.186166 280.479132 
L 371.320654 279.849805 
L 371.58963 248.70562 
L 371.858607 159.416682 
L 371.993095 157.222415 
L 372.262071 213.049746 
L 372.531048 201.822761 
L 372.800024 190.718555 
L 372.934512 197.546184 
L 373.069001 231.005869 
L 373.203489 236.330434 
L 373.606953 265.693289 
L 373.87593 271.471853 
L 374.144906 295.488 
L 374.413883 287.620702 
L 374.548371 286.862058 
L 374.817347 255.578542 
L 375.220812 183.827258 
L 375.3553 173.974995 
L 375.489788 180.802428 
L 375.624277 177.012601 
L 376.027741 192.709746 
L 376.162229 203.006986 
L 376.431206 237.009987 
L 376.700182 267.693898 
L 376.83467 270.103487 
L 376.969159 268.753661 
L 377.103647 269.897059 
L 377.238135 286.604271 
L 377.776088 275.81532 
L 377.910576 281.657806 
L 378.045064 281.959082 
L 378.179553 279.98126 
L 378.314041 271.081112 
L 378.448529 271.101236 
L 378.583017 265.63402 
L 378.717505 265.687395 
L 378.986482 276.010885 
L 379.389947 268.298633 
L 379.524435 269.345327 
L 379.927899 278.474582 
L 380.062388 280.564196 
L 380.331364 278.535655 
L 380.465852 261.733016 
L 380.60034 262.483677 
L 380.869317 273.090872 
L 381.003805 272.720431 
L 381.40727 213.621838 
L 381.676246 143.783809 
L 381.810734 146.513443 
L 381.945223 141.349988 
L 382.348687 150.158016 
L 382.483175 143.33615 
L 382.752152 188.045778 
L 383.155616 263.968501 
L 383.290105 275.264886 
L 383.828058 258.202411 
L 384.097034 263.225678 
L 384.231522 264.659248 
L 384.36601 259.990289 
L 384.500499 260.292111 
L 384.903963 157.0209 
L 385.038451 160.244056 
L 385.17294 141.571166 
L 385.307428 144.897414 
L 385.441916 173.561637 
L 385.576404 171.876286 
L 385.710893 164.625878 
L 385.979869 213.119453 
L 386.517822 272.56935 
L 386.65231 274.365381 
L 386.786798 273.296771 
L 386.921286 282.501471 
L 387.055775 282.838399 
L 387.190263 277.32644 
L 387.324751 279.355997 
L 387.459239 278.792757 
L 387.593727 276.825455 
L 387.728216 278.568648 
L 387.997192 285.486157 
L 388.266169 281.784991 
L 388.400657 280.173909 
L 388.669633 281.394864 
L 388.804121 275.871268 
L 388.93861 277.076042 
L 389.073098 272.007258 
L 389.207586 274.90097 
L 389.611051 289.506217 
L 389.745539 285.911666 
L 389.880027 285.55848 
L 390.014515 285.99692 
L 390.149004 260.15566 
L 390.283492 260.409767 
L 390.41798 270.353545 
L 390.552468 270.226728 
L 390.686956 269.858327 
L 390.955933 256.514775 
L 391.090421 248.734227 
L 391.359397 179.90668 
L 391.493886 155.949019 
L 391.628374 155.697913 
L 391.89735 176.77139 
L 392.031839 182.229813 
L 392.166327 170.895481 
L 392.300815 177.821587 
L 392.569791 227.35328 
L 392.838768 271.743858 
L 392.973256 280.25887 
L 393.107744 274.230549 
L 393.242232 273.264587 
L 393.511209 260.059071 
L 393.780185 273.276423 
L 393.914673 265.323381 
L 394.049162 265.82341 
L 394.18365 252.874873 
L 394.587115 153.527531 
L 394.721603 153.062052 
L 394.856091 141.817567 
L 395.125067 148.274647 
L 395.259556 146.009599 
L 396.200973 266.419186 
L 396.335461 265.194746 
L 396.46995 254.813676 
L 396.604438 289.315501 
L 396.738926 290.709702 
L 396.873414 282.878204 
L 397.142391 284.751713 
L 397.411367 255.998332 
L 397.680343 176.447354 
L 397.814832 181.834427 
L 398.218296 158.320933 
L 398.352785 167.971142 
L 398.487273 165.466824 
L 398.487273 165.466824 
" clip-path="url(#p3d1bdd73db)" style="fill: none; stroke: #ff7f0e; stroke-width: 1.5; stroke-linecap: square"/>
   </g>
   <g id="patch_3">
    <path d="M 57.6 307.584 
L 57.6 41.472 
" style="fill: none; stroke: #000000; stroke-width: 0.8; stroke-linejoin: miter; stroke-linecap: square"/>
   </g>
   <g id="patch_4">
    <path d="M 414.72 307.584 
L 414.72 41.472 
" style="fill: none; stroke: #000000; stroke-width: 0.8; stroke-linejoin: miter; stroke-linecap: square"/>
   </g>
   <g id="patch_5">
    <path d="M 57.6 307.584 
L 414.72 307.584 
" style="fill: none; stroke: #000000; stroke-width: 0.8; stroke-linejoin: miter; stroke-linecap: square"/>
   </g>
   <g id="patch_6">
    <path d="M 57.6 41.472 
L 414.72 41.472 
" style="fill: none; stroke: #000000; stroke-width: 0.8; stroke-linejoin: miter; stroke-linecap: square"/>
   </g>
  </g>
 </g>
 <defs>
  <clipPath id="p3d1bdd73db">
   <rect x="57.6" y="41.472" width="357.12" height="266.112"/>
  </clipPath>
 </defs>
</svg>
