<?xml version="1.0" encoding="utf-8" standalone="no"?>
<!DOCTYPE svg PUBLIC "-//W3C//DTD SVG 1.1//EN"
  "http://www.w3.org/Graphics/SVG/1.1/DTD/svg11.dtd">
<svg xmlns:xlink="http://www.w3.org/1999/xlink" width="460.8pt" height="345.6pt" viewBox="0 0 460.8 345.6" xmlns="http://www.w3.org/2000/svg" version="1.1">
 <metadata>
  <rdf:RDF xmlns:dc="http://purl.org/dc/elements/1.1/" xmlns:cc="http://creativecommons.org/ns#" xmlns:rdf="http://www.w3.org/1999/02/22-rdf-syntax-ns#">
   <cc:Work>
    <dc:type rdf:resource="http://purl.org/dc/dcmitype/StillImage"/>
    <dc:date>2023-04-04T03:52:35.248319</dc:date>
    <dc:format>image/svg+xml</dc:format>
    <dc:creator>
     <cc:Agent>
      <dc:title>Matplotlib v3.5.2, https://matplotlib.org/</dc:title>
     </cc:Agent>
    </dc:creator>
   </cc:Work>
  </rdf:RDF>
 </metadata>
 <defs>
  <style type="text/css">*{stroke-linejoin: round; stroke-linecap: butt}</style>
 </defs>
 <g id="figure_1">
  <g id="patch_1">
   <path d="M 0 345.6 
L 460.8 345.6 
L 460.8 0 
L 0 0 
z
" style="fill: #ffffff"/>
  </g>
  <g id="axes_1">
   <g id="patch_2">
    <path d="M 57.6 307.584 
L 414.72 307.584 
L 414.72 41.472 
L 57.6 41.472 
z
" style="fill: #ffffff"/>
   </g>
   <g id="matplotlib.axis_1">
    <g id="xtick_1">
     <g id="line2d_1">
      <defs>
       <path id="m5f553ee76f" d="M 0 0 
L 0 3.5 
" style="stroke: #000000; stroke-width: 0.8"/>
      </defs>
      <g>
       <use xlink:href="#m5f553ee76f" x="73.832727" y="307.584" style="stroke: #000000; stroke-width: 0.8"/>
      </g>
     </g>
     <g id="text_1">
      <!-- 0 -->
      <g transform="translate(70.651477 322.182437)scale(0.1 -0.1)">
       <defs>
        <path id="DejaVuSans-30" d="M 2034 4250 
Q 1547 4250 1301 3770 
Q 1056 3291 1056 2328 
Q 1056 1369 1301 889 
Q 1547 409 2034 409 
Q 2525 409 2770 889 
Q 3016 1369 3016 2328 
Q 3016 3291 2770 3770 
Q 2525 4250 2034 4250 
z
M 2034 4750 
Q 2819 4750 3233 4129 
Q 3647 3509 3647 2328 
Q 3647 1150 3233 529 
Q 2819 -91 2034 -91 
Q 1250 -91 836 529 
Q 422 1150 422 2328 
Q 422 3509 836 4129 
Q 1250 4750 2034 4750 
z
" transform="scale(0.015625)"/>
       </defs>
       <use xlink:href="#DejaVuSans-30"/>
      </g>
     </g>
    </g>
    <g id="xtick_2">
     <g id="line2d_2">
      <g>
       <use xlink:href="#m5f553ee76f" x="141.076834" y="307.584" style="stroke: #000000; stroke-width: 0.8"/>
      </g>
     </g>
     <g id="text_2">
      <!-- 500 -->
      <g transform="translate(131.533084 322.182437)scale(0.1 -0.1)">
       <defs>
        <path id="DejaVuSans-35" d="M 691 4666 
L 3169 4666 
L 3169 4134 
L 1269 4134 
L 1269 2991 
Q 1406 3038 1543 3061 
Q 1681 3084 1819 3084 
Q 2600 3084 3056 2656 
Q 3513 2228 3513 1497 
Q 3513 744 3044 326 
Q 2575 -91 1722 -91 
Q 1428 -91 1123 -41 
Q 819 9 494 109 
L 494 744 
Q 775 591 1075 516 
Q 1375 441 1709 441 
Q 2250 441 2565 725 
Q 2881 1009 2881 1497 
Q 2881 1984 2565 2268 
Q 2250 2553 1709 2553 
Q 1456 2553 1204 2497 
Q 953 2441 691 2322 
L 691 4666 
z
" transform="scale(0.015625)"/>
       </defs>
       <use xlink:href="#DejaVuSans-35"/>
       <use xlink:href="#DejaVuSans-30" x="63.623047"/>
       <use xlink:href="#DejaVuSans-30" x="127.246094"/>
      </g>
     </g>
    </g>
    <g id="xtick_3">
     <g id="line2d_3">
      <g>
       <use xlink:href="#m5f553ee76f" x="208.32094" y="307.584" style="stroke: #000000; stroke-width: 0.8"/>
      </g>
     </g>
     <g id="text_3">
      <!-- 1000 -->
      <g transform="translate(195.59594 322.182437)scale(0.1 -0.1)">
       <defs>
        <path id="DejaVuSans-31" d="M 794 531 
L 1825 531 
L 1825 4091 
L 703 3866 
L 703 4441 
L 1819 4666 
L 2450 4666 
L 2450 531 
L 3481 531 
L 3481 0 
L 794 0 
L 794 531 
z
" transform="scale(0.015625)"/>
       </defs>
       <use xlink:href="#DejaVuSans-31"/>
       <use xlink:href="#DejaVuSans-30" x="63.623047"/>
       <use xlink:href="#DejaVuSans-30" x="127.246094"/>
       <use xlink:href="#DejaVuSans-30" x="190.869141"/>
      </g>
     </g>
    </g>
    <g id="xtick_4">
     <g id="line2d_4">
      <g>
       <use xlink:href="#m5f553ee76f" x="275.565046" y="307.584" style="stroke: #000000; stroke-width: 0.8"/>
      </g>
     </g>
     <g id="text_4">
      <!-- 1500 -->
      <g transform="translate(262.840046 322.182437)scale(0.1 -0.1)">
       <use xlink:href="#DejaVuSans-31"/>
       <use xlink:href="#DejaVuSans-35" x="63.623047"/>
       <use xlink:href="#DejaVuSans-30" x="127.246094"/>
       <use xlink:href="#DejaVuSans-30" x="190.869141"/>
      </g>
     </g>
    </g>
    <g id="xtick_5">
     <g id="line2d_5">
      <g>
       <use xlink:href="#m5f553ee76f" x="342.809153" y="307.584" style="stroke: #000000; stroke-width: 0.8"/>
      </g>
     </g>
     <g id="text_5">
      <!-- 2000 -->
      <g transform="translate(330.084153 322.182437)scale(0.1 -0.1)">
       <defs>
        <path id="DejaVuSans-32" d="M 1228 531 
L 3431 531 
L 3431 0 
L 469 0 
L 469 531 
Q 828 903 1448 1529 
Q 2069 2156 2228 2338 
Q 2531 2678 2651 2914 
Q 2772 3150 2772 3378 
Q 2772 3750 2511 3984 
Q 2250 4219 1831 4219 
Q 1534 4219 1204 4116 
Q 875 4013 500 3803 
L 500 4441 
Q 881 4594 1212 4672 
Q 1544 4750 1819 4750 
Q 2544 4750 2975 4387 
Q 3406 4025 3406 3419 
Q 3406 3131 3298 2873 
Q 3191 2616 2906 2266 
Q 2828 2175 2409 1742 
Q 1991 1309 1228 531 
z
" transform="scale(0.015625)"/>
       </defs>
       <use xlink:href="#DejaVuSans-32"/>
       <use xlink:href="#DejaVuSans-30" x="63.623047"/>
       <use xlink:href="#DejaVuSans-30" x="127.246094"/>
       <use xlink:href="#DejaVuSans-30" x="190.869141"/>
      </g>
     </g>
    </g>
    <g id="xtick_6">
     <g id="line2d_6">
      <g>
       <use xlink:href="#m5f553ee76f" x="410.053259" y="307.584" style="stroke: #000000; stroke-width: 0.8"/>
      </g>
     </g>
     <g id="text_6">
      <!-- 2500 -->
      <g transform="translate(397.328259 322.182437)scale(0.1 -0.1)">
       <use xlink:href="#DejaVuSans-32"/>
       <use xlink:href="#DejaVuSans-35" x="63.623047"/>
       <use xlink:href="#DejaVuSans-30" x="127.246094"/>
       <use xlink:href="#DejaVuSans-30" x="190.869141"/>
      </g>
     </g>
    </g>
   </g>
   <g id="matplotlib.axis_2">
    <g id="ytick_1">
     <g id="line2d_7">
      <defs>
       <path id="m68d1ad3fc6" d="M 0 0 
L -3.5 0 
" style="stroke: #000000; stroke-width: 0.8"/>
      </defs>
      <g>
       <use xlink:href="#m68d1ad3fc6" x="57.6" y="281.06527" style="stroke: #000000; stroke-width: 0.8"/>
      </g>
     </g>
     <g id="text_7">
      <!-- 100 -->
      <g transform="translate(31.5125 284.864489)scale(0.1 -0.1)">
       <use xlink:href="#DejaVuSans-31"/>
       <use xlink:href="#DejaVuSans-30" x="63.623047"/>
       <use xlink:href="#DejaVuSans-30" x="127.246094"/>
      </g>
     </g>
    </g>
    <g id="ytick_2">
     <g id="line2d_8">
      <g>
       <use xlink:href="#m68d1ad3fc6" x="57.6" y="233.128621" style="stroke: #000000; stroke-width: 0.8"/>
      </g>
     </g>
     <g id="text_8">
      <!-- 200 -->
      <g transform="translate(31.5125 236.92784)scale(0.1 -0.1)">
       <use xlink:href="#DejaVuSans-32"/>
       <use xlink:href="#DejaVuSans-30" x="63.623047"/>
       <use xlink:href="#DejaVuSans-30" x="127.246094"/>
      </g>
     </g>
    </g>
    <g id="ytick_3">
     <g id="line2d_9">
      <g>
       <use xlink:href="#m68d1ad3fc6" x="57.6" y="185.191972" style="stroke: #000000; stroke-width: 0.8"/>
      </g>
     </g>
     <g id="text_9">
      <!-- 300 -->
      <g transform="translate(31.5125 188.99119)scale(0.1 -0.1)">
       <defs>
        <path id="DejaVuSans-33" d="M 2597 2516 
Q 3050 2419 3304 2112 
Q 3559 1806 3559 1356 
Q 3559 666 3084 287 
Q 2609 -91 1734 -91 
Q 1441 -91 1130 -33 
Q 819 25 488 141 
L 488 750 
Q 750 597 1062 519 
Q 1375 441 1716 441 
Q 2309 441 2620 675 
Q 2931 909 2931 1356 
Q 2931 1769 2642 2001 
Q 2353 2234 1838 2234 
L 1294 2234 
L 1294 2753 
L 1863 2753 
Q 2328 2753 2575 2939 
Q 2822 3125 2822 3475 
Q 2822 3834 2567 4026 
Q 2313 4219 1838 4219 
Q 1578 4219 1281 4162 
Q 984 4106 628 3988 
L 628 4550 
Q 988 4650 1302 4700 
Q 1616 4750 1894 4750 
Q 2613 4750 3031 4423 
Q 3450 4097 3450 3541 
Q 3450 3153 3228 2886 
Q 3006 2619 2597 2516 
z
" transform="scale(0.015625)"/>
       </defs>
       <use xlink:href="#DejaVuSans-33"/>
       <use xlink:href="#DejaVuSans-30" x="63.623047"/>
       <use xlink:href="#DejaVuSans-30" x="127.246094"/>
      </g>
     </g>
    </g>
    <g id="ytick_4">
     <g id="line2d_10">
      <g>
       <use xlink:href="#m68d1ad3fc6" x="57.6" y="137.255323" style="stroke: #000000; stroke-width: 0.8"/>
      </g>
     </g>
     <g id="text_10">
      <!-- 400 -->
      <g transform="translate(31.5125 141.054541)scale(0.1 -0.1)">
       <defs>
        <path id="DejaVuSans-34" d="M 2419 4116 
L 825 1625 
L 2419 1625 
L 2419 4116 
z
M 2253 4666 
L 3047 4666 
L 3047 1625 
L 3713 1625 
L 3713 1100 
L 3047 1100 
L 3047 0 
L 2419 0 
L 2419 1100 
L 313 1100 
L 313 1709 
L 2253 4666 
z
" transform="scale(0.015625)"/>
       </defs>
       <use xlink:href="#DejaVuSans-34"/>
       <use xlink:href="#DejaVuSans-30" x="63.623047"/>
       <use xlink:href="#DejaVuSans-30" x="127.246094"/>
      </g>
     </g>
    </g>
    <g id="ytick_5">
     <g id="line2d_11">
      <g>
       <use xlink:href="#m68d1ad3fc6" x="57.6" y="89.318674" style="stroke: #000000; stroke-width: 0.8"/>
      </g>
     </g>
     <g id="text_11">
      <!-- 500 -->
      <g transform="translate(31.5125 93.117892)scale(0.1 -0.1)">
       <use xlink:href="#DejaVuSans-35"/>
       <use xlink:href="#DejaVuSans-30" x="63.623047"/>
       <use xlink:href="#DejaVuSans-30" x="127.246094"/>
      </g>
     </g>
    </g>
   </g>
   <g id="line2d_12">
    <path d="M 73.832727 284.14472 
L 74.101704 283.593928 
L 74.236192 282.48036 
L 74.37068 283.446763 
L 74.505168 282.953015 
L 74.639657 283.556538 
L 74.774145 277.067833 
L 74.908633 249.881042 
L 75.177609 248.38398 
L 75.312098 248.941004 
L 75.446586 248.993734 
L 75.581074 249.862826 
L 75.715562 249.104468 
L 75.85005 249.082417 
L 76.253515 244.083583 
L 76.522492 278.233173 
L 76.65698 278.547158 
L 76.925956 276.835819 
L 77.060444 267.956034 
L 77.194933 270.205701 
L 77.463909 270.269457 
L 77.598397 271.858078 
L 77.732885 266.517456 
L 77.867374 253.074102 
L 78.405327 104.244708 
L 78.674303 103.320489 
L 78.808791 110.47791 
L 78.943279 105.662195 
L 79.481232 158.502763 
L 79.750209 229.068866 
L 80.019185 263.884295 
L 80.153673 266.014121 
L 80.288161 262.169122 
L 80.42265 272.592947 
L 80.557138 272.157202 
L 80.826114 274.67148 
L 80.960603 272.124605 
L 81.095091 261.783232 
L 81.364067 168.717583 
L 81.498555 181.051204 
L 81.767532 161.594677 
L 82.036508 169.618793 
L 82.170996 166.509621 
L 82.305485 160.518978 
L 83.112414 261.303866 
L 83.650367 287.55733 
L 83.784855 287.577943 
L 83.919343 289.110478 
L 84.053831 289.303183 
L 84.18832 287.200682 
L 84.322808 279.956975 
L 84.726273 189.585366 
L 84.860761 180.897327 
L 84.995249 185.004539 
L 85.129737 170.083299 
L 85.264225 178.64766 
L 85.398714 179.39691 
L 85.66769 187.714878 
L 85.802178 196.507897 
L 86.340131 263.435129 
L 86.474619 265.453262 
L 86.609107 270.376356 
L 86.878084 287.940344 
L 87.012572 290.197202 
L 87.14706 289.869794 
L 87.281549 291.364459 
L 87.416037 291.267148 
L 87.550525 290.453663 
L 87.819501 262.878105 
L 87.95399 263.024312 
L 88.088478 257.323206 
L 88.222966 258.786712 
L 88.357454 258.026916 
L 88.491942 254.659846 
L 88.626431 257.50201 
L 88.760919 250.489837 
L 88.895407 253.374665 
L 89.029895 253.373226 
L 89.164384 255.940713 
L 89.43336 277.29697 
L 89.567848 278.964686 
L 89.702336 278.465186 
L 89.836825 279.527942 
L 89.971313 264.339214 
L 90.105801 265.054429 
L 90.240289 266.602783 
L 90.374777 266.371728 
L 90.509266 267.610891 
L 90.643754 267.782983 
L 90.778242 269.887881 
L 90.91273 266.656472 
L 91.047218 256.691881 
L 91.181707 255.517912 
L 91.316195 248.568536 
L 91.450683 253.01466 
L 91.585171 251.043505 
L 91.71966 252.54584 
L 91.854148 252.77258 
L 92.123124 255.763348 
L 92.257612 255.189067 
L 92.526589 260.799093 
L 92.795565 267.413871 
L 92.930053 268.371645 
L 93.064542 267.227877 
L 93.19903 277.273481 
L 93.468006 277.398596 
L 93.602495 278.46231 
L 93.736983 277.224586 
L 93.871471 274.69401 
L 94.005959 269.459328 
L 94.6784 161.882776 
L 94.812888 157.471646 
L 95.081865 169.369043 
L 95.216353 164.135799 
L 95.350841 152.833295 
L 96.023282 265.781149 
L 96.157771 266.513141 
L 96.426747 270.453534 
L 96.561235 270.118936 
L 96.695723 270.196593 
L 96.830212 272.085777 
L 96.9647 271.445822 
L 97.099188 270.013475 
L 97.233676 261.516704 
L 97.368164 243.893275 
L 97.502653 202.729595 
L 97.637141 195.609085 
L 97.771629 180.082884 
L 97.906117 188.50775 
L 98.040606 181.771212 
L 98.175094 182.483551 
L 98.309582 177.145805 
L 98.44407 178.793867 
L 98.713047 190.20279 
L 98.982023 232.295961 
L 99.250999 267.268144 
L 99.385488 271.971208 
L 99.519976 272.728128 
L 99.654464 282.568084 
L 99.788952 282.580547 
L 99.923441 281.575795 
L 100.192417 282.818313 
L 100.326905 282.899326 
L 100.461393 282.242115 
L 100.595882 282.649576 
L 100.73037 283.481277 
L 100.864858 281.937238 
L 100.999346 283.097304 
L 101.133834 282.186029 
L 101.268323 279.962727 
L 101.402811 272.912205 
L 101.537299 277.199658 
L 101.806276 266.776314 
L 101.940764 268.944968 
L 102.075252 268.795885 
L 102.20974 269.446385 
L 102.344228 271.83363 
L 102.478717 277.672793 
L 102.613205 275.81381 
L 102.747693 281.50437 
L 102.882181 267.998219 
L 103.016669 268.026981 
L 103.151158 272.951033 
L 103.285646 272.731004 
L 103.554622 268.535109 
L 103.68911 264.331544 
L 103.823599 246.842817 
L 104.092575 184.349725 
L 104.227063 162.788779 
L 104.361552 169.979276 
L 104.630528 145.014828 
L 105.033993 160.387632 
L 105.168481 171.206454 
L 105.706434 254.570684 
L 105.840922 254.447966 
L 105.97541 263.178189 
L 106.109898 279.669834 
L 106.378875 282.870564 
L 106.513363 282.856662 
L 106.647851 285.021482 
L 106.782339 284.752078 
L 106.916828 285.867563 
L 107.320292 248.160116 
L 107.45478 255.249467 
L 107.589269 252.706428 
L 107.723757 252.799425 
L 108.26171 247.71814 
L 108.396198 244.298819 
L 108.530686 246.566702 
L 108.934151 278.290697 
L 109.068639 279.811247 
L 109.203127 278.740342 
L 109.337615 274.228545 
L 109.606592 275.782651 
L 109.875568 276.838696 
L 110.144545 277.891384 
L 110.413521 276.649346 
L 110.548009 276.514164 
L 110.951474 272.450575 
L 111.085962 273.627899 
L 111.22045 273.279399 
L 111.623915 267.464684 
L 111.758403 267.97425 
L 112.02738 271.767957 
L 112.430844 273.370479 
L 112.565333 263.097176 
L 112.834309 267.309848 
L 112.968797 267.834755 
L 113.103285 269.348115 
L 113.237774 269.526918 
L 113.50675 272.150971 
L 113.641238 272.983151 
L 114.313679 261.722353 
L 114.448168 261.360431 
L 114.582656 259.874874 
L 114.98612 249.01962 
L 115.524073 260.106408 
L 115.658561 260.65768 
L 115.927538 262.888172 
L 116.062026 261.601552 
L 116.196514 267.711558 
L 116.331002 267.29355 
L 116.465491 267.905701 
L 116.599979 258.130939 
L 117.137932 79.170006 
L 117.406908 64.445305 
L 117.810373 81.010294 
L 118.213837 148.314787 
L 118.482814 210.750355 
L 118.75179 245.23598 
L 118.886279 246.77235 
L 119.289743 254.778729 
L 119.424231 256.199092 
L 119.55872 258.974624 
L 119.693208 259.291964 
L 119.827696 249.661012 
L 120.365649 92.047707 
L 120.634625 73.452122 
L 120.769114 77.149476 
L 120.903602 70.719733 
L 121.03809 72.049975 
L 121.441555 135.582334 
L 121.710531 202.520112 
L 121.845019 230.745211 
L 122.248484 241.727497 
L 122.51746 257.268079 
L 122.651948 257.427708 
L 122.786437 259.169247 
L 122.920925 257.826541 
L 123.055413 249.652863 
L 123.727854 60.482382 
L 123.862342 53.568 
L 124.534783 107.786268 
L 125.072736 248.952988 
L 125.207225 254.132064 
L 125.341713 254.59609 
L 125.476201 254.549592 
L 125.745177 268.170791 
L 125.879666 269.609849 
L 126.014154 269.839945 
L 126.28313 256.36735 
L 126.821083 93.155044 
L 126.955571 74.774694 
L 127.09006 81.383241 
L 127.359036 105.959881 
L 127.493524 108.406568 
L 127.762501 126.933124 
L 127.896989 149.772061 
L 128.300453 247.332729 
L 128.434942 253.144089 
L 128.56943 251.313868 
L 128.703918 258.826979 
L 128.838406 259.55226 
L 129.241871 266.256201 
L 129.510847 245.512095 
L 130.0488 83.560523 
L 130.183288 74.43722 
L 130.317777 86.374884 
L 130.452265 115.24521 
L 130.586753 114.325306 
L 130.721241 110.672054 
L 130.855729 117.072555 
L 131.124706 170.431798 
L 131.393682 236.183144 
L 131.662659 259.321685 
L 131.931635 259.125145 
L 132.066123 258.942506 
L 132.3351 270.232546 
L 132.469588 270.083942 
L 132.604076 270.183171 
L 132.738564 270.141466 
L 133.007541 258.231126 
L 133.276517 247.754572 
L 133.679982 242.167555 
L 133.81447 240.98352 
L 133.948958 235.87635 
L 134.486911 245.769036 
L 134.755888 252.867015 
L 134.890376 252.751967 
L 135.697305 267.016955 
L 135.831793 271.774668 
L 135.966282 272.384901 
L 136.10077 270.399365 
L 136.235258 271.905056 
L 136.369746 271.630379 
L 136.504234 267.324229 
L 136.638723 267.16508 
L 136.907699 265.22748 
L 137.311164 254.328124 
L 137.445652 254.83865 
L 137.58014 252.15228 
L 137.983605 258.975583 
L 138.118093 258.072456 
L 138.252581 259.909868 
L 138.387069 264.408243 
L 138.521558 263.173395 
L 138.656046 263.374729 
L 138.925022 268.076835 
L 139.193999 251.809533 
L 139.731951 81.703937 
L 139.86644 72.773818 
L 140.269904 98.822114 
L 140.538881 123.285624 
L 140.673369 130.38696 
L 140.807857 144.768434 
L 141.076834 224.997127 
L 141.480298 258.23592 
L 142.018251 266.687151 
L 142.152739 266.222645 
L 142.421716 242.450861 
L 142.959669 91.717423 
L 143.094157 84.290119 
L 143.228645 83.801645 
L 143.363133 94.04283 
L 143.497621 84.754625 
L 143.63211 89.88912 
L 144.573527 259.485629 
L 144.708015 262.98069 
L 144.842504 263.156617 
L 145.11148 265.402449 
L 145.245968 267.549052 
L 145.380456 263.46485 
L 145.783921 202.20325 
L 146.052897 110.368615 
L 146.187386 91.217924 
L 146.456362 106.555254 
L 146.59085 117.895148 
L 146.725339 112.195481 
L 146.859827 119.621347 
L 146.994315 114.535748 
L 147.128803 127.416325 
L 147.532268 234.864886 
L 147.801244 260.925645 
L 147.935732 261.128418 
L 148.204709 266.410078 
L 148.339197 266.388506 
L 148.473685 266.893279 
L 148.742662 265.837714 
L 148.87715 248.113138 
L 149.280615 119.485207 
L 149.415103 115.436477 
L 149.549591 106.332349 
L 149.684079 107.591165 
L 150.087544 140.383189 
L 150.222032 132.67162 
L 150.35652 138.205427 
L 150.894473 253.327207 
L 151.028961 262.522415 
L 151.16345 261.562244 
L 151.835891 269.758452 
L 151.970379 268.482858 
L 152.104867 247.479895 
L 152.508332 113.460049 
L 152.64282 116.57689 
L 152.911796 104.692916 
L 153.046285 118.878808 
L 153.180773 117.374077 
L 153.449749 151.936401 
L 153.718726 192.989347 
L 153.987702 249.760721 
L 154.12219 266.855888 
L 154.256678 268.238381 
L 154.525655 272.110704 
L 154.794631 273.819166 
L 155.063608 276.771584 
L 155.198096 278.417729 
L 155.332584 277.772501 
L 155.467072 273.380066 
L 155.601561 262.876667 
L 155.736049 262.013328 
L 155.870537 259.140485 
L 156.005025 261.28517 
L 156.274002 259.383044 
L 156.40849 259.920893 
L 156.542978 261.177792 
L 156.677466 259.977938 
L 157.215419 268.008285 
L 157.349907 270.019707 
L 157.484396 269.025022 
L 157.618884 269.797281 
L 157.88786 272.981713 
L 158.022348 273.463955 
L 158.291325 276.471021 
L 158.560301 280.763748 
L 158.694789 279.193344 
L 158.829278 280.160226 
L 158.963766 279.762831 
L 159.232742 277.041468 
L 159.367231 277.324294 
L 159.501719 275.335402 
L 160.039672 261.214703 
L 160.308648 261.47452 
L 160.443136 267.208702 
L 160.577624 266.924438 
L 160.712113 264.963829 
L 160.846601 265.667539 
L 160.981089 267.163642 
L 161.250066 270.930504 
L 161.519042 271.884443 
L 161.788018 255.075936 
L 162.460459 83.987639 
L 162.594948 83.650165 
L 162.729436 82.187138 
L 162.998412 101.830139 
L 163.132901 110.799086 
L 163.401877 152.175125 
L 163.670853 223.093083 
L 164.074318 257.273352 
L 164.208806 258.409451 
L 164.477783 271.098282 
L 164.612271 273.465873 
L 164.746759 268.751303 
L 165.015735 251.195944 
L 165.4192 121.10211 
L 165.553688 123.707946 
L 165.822665 109.778994 
L 165.957153 115.048191 
L 166.091641 111.955318 
L 166.360618 100.471614 
L 166.495106 106.681328 
L 166.89857 222.191395 
L 167.033059 229.181038 
L 167.302035 247.617952 
L 167.974476 266.129648 
L 168.108964 260.441485 
L 168.243453 246.39365 
L 168.377941 208.219779 
L 168.646917 106.506838 
L 168.781405 107.792979 
L 168.915894 103.255775 
L 169.050382 104.559172 
L 169.18487 108.364384 
L 169.319358 92.997811 
L 169.453847 95.482368 
L 169.857311 148.99357 
L 170.126288 227.389645 
L 170.395264 258.283377 
L 170.529752 259.165412 
L 170.66424 262.611098 
L 170.798729 262.800927 
L 171.067705 265.134004 
L 171.202193 267.975688 
L 171.47117 246.132875 
L 172.009123 110.579536 
L 172.143611 108.999065 
L 172.412587 97.211922 
L 172.95054 129.795421 
L 173.622981 260.257888 
L 173.757469 264.257243 
L 173.891958 277.671355 
L 174.026446 276.739946 
L 174.160934 276.695844 
L 174.42991 278.230776 
L 174.698887 263.402053 
L 174.833375 246.234501 
L 175.102351 177.537927 
L 175.371328 144.078625 
L 175.505816 141.171267 
L 175.640304 151.364037 
L 175.774792 151.052928 
L 175.909281 152.465621 
L 176.043769 157.285172 
L 176.178257 156.97646 
L 176.312745 171.488801 
L 176.581722 239.332103 
L 176.850698 266.531837 
L 176.985186 264.030982 
L 177.254163 268.778627 
L 177.388651 268.735005 
L 177.792116 275.311913 
L 177.926604 276.204973 
L 178.19558 265.459014 
L 178.330069 265.017518 
L 178.599045 257.429146 
L 178.733533 256.862056 
L 178.868021 259.176917 
L 179.136998 255.656449 
L 179.271486 256.254219 
L 179.540462 253.761034 
L 179.809439 261.289964 
L 179.943927 268.582566 
L 180.212904 266.675167 
L 180.48188 276.573126 
L 180.616368 276.587028 
L 180.750856 276.960455 
L 180.885345 277.794552 
L 181.019833 277.881318 
L 181.692274 265.531878 
L 181.826762 266.83192 
L 181.96125 260.828813 
L 182.095738 262.61685 
L 182.364715 268.073 
L 182.499203 269.355305 
L 182.633691 272.513372 
L 182.902668 271.692696 
L 183.171644 277.843927 
L 183.306132 279.264769 
L 183.440621 278.151201 
L 183.575109 275.841613 
L 183.844085 287.613895 
L 183.978573 288.568314 
L 184.113062 286.281736 
L 184.382038 274.857474 
L 184.919991 182.819587 
L 185.054479 186.848662 
L 185.188967 179.752121 
L 185.457944 183.625402 
L 185.592432 185.129654 
L 185.995897 223.01207 
L 186.264873 253.712618 
L 186.53385 269.522604 
L 186.802826 279.811247 
L 187.071802 290.343888 
L 187.206291 289.189573 
L 187.340779 290.327589 
L 187.475267 287.139323 
L 187.609755 279.113769 
L 188.01322 202.946748 
L 188.147708 186.491534 
L 188.282196 186.711084 
L 188.416684 185.749475 
L 188.551173 189.072923 
L 188.685661 195.496434 
L 188.820149 191.069484 
L 188.954637 195.519923 
L 189.089126 203.9213 
L 189.627078 266.13588 
L 189.761567 268.733567 
L 189.896055 273.987424 
L 190.030543 271.543134 
L 190.299519 273.381025 
L 190.434008 272.205618 
L 190.971961 275.642197 
L 191.106449 272.177815 
L 191.240937 271.690779 
L 191.375425 272.130837 
L 191.509913 267.68663 
L 191.644402 269.241216 
L 191.913378 267.970895 
L 192.182354 262.31485 
L 192.316843 262.664787 
L 192.451331 262.164808 
L 192.585819 263.490256 
L 192.720307 269.280524 
L 192.989284 270.542696 
L 193.392748 267.84578 
L 193.661725 270.738278 
L 193.796213 271.274689 
L 194.065189 263.359389 
L 194.603142 159.238591 
L 194.73763 154.309265 
L 194.872119 144.321664 
L 195.006607 145.903094 
L 195.141095 150.664162 
L 195.275583 143.238775 
L 195.54456 156.680691 
L 195.948024 251.04734 
L 196.217001 261.42131 
L 196.351489 263.355075 
L 196.485977 272.86283 
L 196.620465 272.208015 
L 196.889442 272.766957 
L 197.02393 273.8997 
L 197.158418 272.163434 
L 197.292907 265.818539 
L 197.830859 196.848247 
L 197.965348 199.168381 
L 198.099836 195.838222 
L 198.234324 200.25846 
L 198.5033 186.883656 
L 198.772277 200.734951 
L 199.31023 273.541613 
L 199.713694 282.687925 
L 199.848183 281.514916 
L 200.117159 282.24547 
L 200.251647 280.455516 
L 200.386135 274.655181 
L 200.520624 274.250596 
L 200.655112 261.244424 
L 200.7896 213.846104 
L 200.924088 211.868717 
L 201.058576 200.141495 
L 201.193065 199.78197 
L 201.327553 197.086972 
L 201.462041 199.26761 
L 201.731018 187.423902 
L 201.865506 188.790097 
L 202.134482 211.569592 
L 202.403459 265.240903 
L 202.806923 275.076065 
L 203.0759 266.573062 
L 203.210388 270.916123 
L 203.344876 271.042675 
L 203.748341 261.631273 
L 203.882829 244.179456 
L 204.151805 181.988365 
L 204.420782 165.455015 
L 204.55527 159.805202 
L 204.689758 163.254723 
L 204.824246 156.731024 
L 204.958735 172.81425 
L 205.093223 173.061603 
L 205.765664 261.048363 
L 205.900152 261.561285 
L 206.03464 265.375605 
L 206.169129 280.280068 
L 206.303617 280.76279 
L 206.572593 284.716125 
L 206.84157 285.530569 
L 207.110546 276.107182 
L 207.379522 266.889923 
L 207.514011 266.008848 
L 207.917475 274.157119 
L 208.051964 273.909766 
L 208.32094 267.525084 
L 208.589916 269.132879 
L 208.858893 277.214519 
L 208.993381 280.881672 
L 209.127869 281.467458 
L 209.262357 280.92146 
L 209.396846 275.044906 
L 209.531334 276.14649 
L 209.80031 275.729921 
L 209.934799 276.724606 
L 210.203775 264.497885 
L 211.010704 108.791978 
L 211.279681 134.509991 
L 211.683145 167.734882 
L 212.221098 255.702948 
L 212.355586 258.175999 
L 212.759051 273.474022 
L 212.893539 273.265977 
L 213.028027 273.366644 
L 213.162516 276.02569 
L 213.431492 258.255095 
L 213.56598 220.03089 
L 213.834957 135.793734 
L 213.969445 140.396611 
L 214.103933 139.301259 
L 214.238421 142.27381 
L 214.910862 180.741054 
L 215.448815 261.343174 
L 215.583303 266.328585 
L 215.717792 266.948885 
L 216.121256 271.22819 
L 216.255745 272.18932 
L 216.390233 274.589508 
L 216.524721 270.565226 
L 216.659209 263.016642 
L 217.062674 149.484441 
L 217.197162 151.404304 
L 217.33165 151.485317 
L 217.466138 162.996824 
L 217.600627 161.707807 
L 217.735115 149.804658 
L 217.869603 155.056597 
L 218.273068 197.419652 
L 218.542044 256.480001 
L 218.811021 273.34699 
L 218.945509 265.897635 
L 219.483462 276.661809 
L 219.61795 278.467583 
L 219.886926 264.66039 
L 220.290391 162.655515 
L 220.693856 150.946988 
L 220.828344 161.655077 
L 220.962832 157.71804 
L 221.231808 184.984406 
L 221.500785 198.907606 
L 221.769761 256.342902 
L 222.038738 272.040716 
L 222.173226 271.284755 
L 222.307714 272.51481 
L 222.576691 278.59078 
L 222.845667 281.240718 
L 222.980155 279.561497 
L 223.114643 281.442531 
L 223.38362 260.804845 
L 223.518108 264.685796 
L 223.652596 264.528564 
L 223.921573 257.537483 
L 224.190549 256.862056 
L 224.325037 259.361952 
L 224.459525 258.730626 
L 224.728502 254.854469 
L 225.131967 262.156179 
L 225.266455 260.663432 
L 225.535431 262.142278 
L 225.669919 260.82354 
L 226.073384 270.635693 
L 226.34236 273.680629 
L 226.476849 273.608245 
L 226.745825 270.446823 
L 226.880313 272.74155 
L 227.014802 272.986027 
L 227.14929 272.687382 
L 227.283778 271.260308 
L 227.418266 272.94624 
L 227.552754 273.075669 
L 227.687243 272.905493 
L 227.956219 271.790487 
L 228.090707 277.638758 
L 228.225195 277.678066 
L 228.359684 278.785882 
L 228.494172 278.008829 
L 228.62866 278.985299 
L 228.763148 278.870251 
L 228.897637 276.569292 
L 229.301101 277.47817 
L 229.435589 271.229628 
L 229.570078 257.067225 
L 230.242519 94.726407 
L 230.377007 79.806125 
L 230.511495 109.954442 
L 230.780471 117.950275 
L 231.049448 145.573769 
L 231.587401 254.896653 
L 231.856377 266.182858 
L 232.125354 271.024459 
L 232.39433 275.707391 
L 232.528818 274.889112 
L 232.797795 257.688963 
L 232.932283 221.214446 
L 233.201259 133.566597 
L 233.335748 125.344983 
L 233.470236 135.699299 
L 233.604724 135.922684 
L 233.739212 148.786484 
L 233.8737 133.966868 
L 234.008189 140.727374 
L 234.815118 265.598031 
L 234.949606 265.330065 
L 235.218583 271.267019 
L 235.622047 279.048096 
L 235.756535 278.44697 
L 236.025512 265.71979 
L 236.563465 129.38796 
L 236.832441 117.108028 
L 237.63937 201.269444 
L 237.908347 259.66635 
L 238.177323 267.80024 
L 238.849764 282.801535 
L 238.984252 281.972231 
L 239.118741 278.152639 
L 239.253229 264.174792 
L 239.791182 128.613783 
L 240.194646 146.447654 
L 240.463623 165.680797 
L 240.732599 179.212354 
L 241.270552 257.120434 
L 241.674017 263.028626 
L 241.942993 276.043906 
L 242.077481 282.579589 
L 242.21197 281.95018 
L 242.480946 263.882378 
L 242.884411 151.521269 
L 243.018899 159.437048 
L 243.153387 157.177794 
L 243.287875 146.138463 
L 243.422363 154.163537 
L 243.556852 151.336234 
L 243.825828 168.069001 
L 244.229293 240.457655 
L 244.498269 262.967747 
L 244.767246 268.270019 
L 245.17071 276.170938 
L 245.305198 277.040509 
L 245.439687 276.743302 
L 245.574175 275.507974 
L 245.708663 263.989756 
L 245.843151 269.467477 
L 246.112128 266.469519 
L 246.381104 261.26264 
L 246.515592 261.229084 
L 247.188033 271.526356 
L 247.322522 271.933818 
L 247.45701 272.805306 
L 247.591498 272.449137 
L 247.725986 275.628774 
L 247.860475 274.183485 
L 248.129451 275.513727 
L 248.263939 274.62594 
L 248.398427 275.311913 
L 248.532916 275.158037 
L 248.667404 277.112893 
L 248.801892 277.013664 
L 249.205357 278.560101 
L 249.339845 278.677066 
L 249.608821 277.724085 
L 249.743309 277.856391 
L 249.877798 277.554869 
L 250.550239 274.373793 
L 250.819215 274.675315 
L 250.953703 275.457641 
L 251.088192 274.316269 
L 251.357168 275.579879 
L 251.491656 284.519105 
L 251.626144 284.027275 
L 251.760633 284.459664 
L 251.895121 284.299076 
L 252.164097 271.999491 
L 252.70205 144.015828 
L 252.836538 163.839071 
L 252.971027 160.379483 
L 253.240003 173.345867 
L 253.374491 174.704871 
L 253.508979 171.766354 
L 253.777956 204.732388 
L 254.046932 256.318454 
L 254.315909 277.739905 
L 254.719373 286.132174 
L 254.853862 285.891052 
L 255.122838 287.632111 
L 255.391814 266.774875 
L 255.660791 173.135425 
L 255.795279 176.597889 
L 256.198744 160.855973 
L 256.333232 164.545657 
L 256.46772 161.869354 
L 256.602208 163.070646 
L 257.409138 258.570039 
L 257.812602 266.074521 
L 258.081579 281.348096 
L 258.216067 282.416604 
L 258.350555 281.684132 
L 258.619532 267.451262 
L 258.888508 177.960728 
L 259.022996 178.833655 
L 259.157484 169.741031 
L 259.291973 169.162915 
L 259.426461 153.610349 
L 259.695437 167.370564 
L 259.829925 156.190299 
L 259.964414 165.303056 
L 260.771343 261.653803 
L 261.040319 263.902032 
L 261.309296 271.433838 
L 261.443784 274.661892 
L 261.71276 271.73488 
L 261.847249 259.289568 
L 262.116225 170.745783 
L 262.250713 174.931132 
L 262.654178 148.386213 
L 262.788666 155.718602 
L 262.923154 150.927814 
L 263.326619 186.2298 
L 263.461107 197.175175 
L 263.864572 246.162596 
L 264.268036 264.284087 
L 264.402525 263.523332 
L 264.671501 266.96806 
L 264.805989 266.841507 
L 264.940478 265.886609 
L 265.074966 258.285774 
L 265.209454 239.086667 
L 265.612919 124.296608 
L 265.881895 106.106088 
L 266.016383 115.648837 
L 266.150871 115.51749 
L 266.28536 115.067365 
L 266.419848 119.718658 
L 266.688824 157.153826 
L 266.957801 236.305862 
L 267.226777 253.043422 
L 267.361265 251.61491 
L 267.495754 268.053825 
L 267.630242 267.736485 
L 267.76473 269.613684 
L 267.899218 269.926231 
L 268.168195 276.475336 
L 268.302683 277.364081 
L 268.437171 274.791321 
L 268.706147 277.338675 
L 268.975124 273.828753 
L 269.2441 271.935735 
L 269.916541 257.379292 
L 270.320006 259.277104 
L 270.588982 264.185338 
L 270.723471 278.344865 
L 270.857959 279.389405 
L 270.992447 277.904807 
L 271.126935 278.792114 
L 271.261424 278.821835 
L 271.395912 278.634882 
L 271.799376 281.424795 
L 271.933865 280.033194 
L 272.068353 280.389842 
L 272.202841 279.742218 
L 272.337329 279.979505 
L 272.471817 279.132464 
L 272.606306 276.957099 
L 272.740794 278.245636 
L 272.875282 277.921584 
L 273.00977 277.241363 
L 273.144258 274.896302 
L 273.278747 274.796115 
L 273.547723 277.788321 
L 273.682211 278.003556 
L 273.8167 278.690488 
L 273.951188 277.824752 
L 274.085676 288.525651 
L 274.354652 290.166043 
L 274.489141 288.58653 
L 274.758117 273.794239 
L 275.29607 166.750263 
L 275.565046 154.449719 
L 275.699535 154.788631 
L 275.834023 172.8363 
L 275.968511 175.130069 
L 276.102999 185.339617 
L 276.77544 265.072645 
L 277.447881 282.565208 
L 277.58237 285.979735 
L 277.716858 285.586655 
L 277.851346 281.164978 
L 277.985834 271.128482 
L 278.389299 210.299271 
L 278.523787 190.709959 
L 278.658275 188.700934 
L 278.792763 179.134697 
L 278.927252 191.32978 
L 279.06174 185.478153 
L 279.196228 187.580176 
L 279.330716 195.317151 
L 280.137646 275.501263 
L 280.272134 277.900492 
L 280.406622 269.499115 
L 280.54111 269.213413 
L 280.810087 270.390737 
L 280.944575 269.764205 
L 281.213551 261.802407 
L 281.348039 232.695753 
L 281.482528 161.847782 
L 281.617016 151.583587 
L 281.751504 128.056759 
L 281.885992 129.214908 
L 282.154969 142.798717 
L 282.289457 124.58279 
L 282.423945 128.693358 
L 282.558433 137.853572 
L 282.82741 186.565836 
L 283.096386 255.499696 
L 283.365363 262.166246 
L 283.499851 264.385713 
L 283.634339 263.710765 
L 283.768827 263.721311 
L 283.903316 263.911619 
L 284.037804 265.223645 
L 284.172292 265.353554 
L 284.441268 260.131335 
L 285.113709 144.215724 
L 285.248198 143.133794 
L 285.382686 138.571663 
L 285.517174 147.864662 
L 285.651662 144.746383 
L 285.78615 148.254866 
L 286.055127 201.679303 
L 286.324103 251.530062 
L 286.59308 261.261681 
L 286.727568 261.139443 
L 286.862056 280.182277 
L 286.996544 280.241718 
L 287.131033 279.258538 
L 287.265521 279.867333 
L 287.668985 276.321459 
L 287.803474 277.203493 
L 288.07245 276.323856 
L 288.206938 274.140821 
L 288.341427 274.085214 
L 288.475915 271.726252 
L 288.610403 271.353305 
L 288.744891 270.223438 
L 288.879379 273.066561 
L 289.013868 273.40787 
L 289.148356 270.582483 
L 289.417332 277.774898 
L 289.55182 278.968041 
L 289.820797 278.604682 
L 289.955285 279.398992 
L 290.089773 277.891864 
L 290.224262 279.446929 
L 290.35875 278.535174 
L 290.493238 279.520272 
L 290.627726 277.97048 
L 291.031191 259.898842 
L 291.300167 193.369005 
L 291.434655 187.755624 
L 291.569144 188.366337 
L 291.703632 192.450539 
L 291.972608 179.63947 
L 292.376073 192.787054 
L 293.048514 269.577252 
L 293.183002 270.830316 
L 293.31749 269.672646 
L 293.451979 270.428127 
L 293.586467 269.493842 
L 293.720955 271.981754 
L 293.855443 272.246365 
L 294.258908 248.201821 
L 294.527884 189.913732 
L 294.796861 158.067978 
L 294.931349 142.117058 
L 295.065837 141.982356 
L 295.200325 149.995446 
L 295.334814 144.245924 
L 295.60379 172.448014 
L 295.738278 187.013085 
L 296.141743 257.57775 
L 296.276231 256.683252 
L 296.410719 263.91881 
L 296.545208 281.687488 
L 296.948672 283.861894 
L 297.486625 285.836884 
L 297.621113 285.489823 
L 297.755601 285.485988 
L 298.024578 282.2982 
L 298.159066 282.1472 
L 298.428042 279.995803 
L 298.697019 276.153201 
L 298.831507 275.012789 
L 298.965995 274.869937 
L 299.100484 275.227065 
L 299.36946 279.027962 
L 299.503948 278.519354 
L 299.638436 280.069146 
L 299.772925 270.369165 
L 299.907413 273.78561 
L 300.041901 273.482651 
L 300.176389 274.352701 
L 300.310877 274.067957 
L 300.579854 263.051636 
L 301.252295 128.389919 
L 301.386783 128.458947 
L 301.521271 141.70624 
L 301.65576 134.735293 
L 301.790248 144.189359 
L 302.597177 253.444173 
L 302.731665 255.204406 
L 303.000642 267.6641 
L 303.13513 267.889402 
L 303.269618 268.371645 
L 303.404106 270.841341 
L 303.538595 271.262225 
L 303.807571 254.835294 
L 304.345524 164.683235 
L 304.6145 154.11656 
L 304.748988 162.388508 
L 304.883477 152.775292 
L 305.017965 158.880983 
L 306.093871 266.109035 
L 306.228359 267.123854 
L 306.497335 277.321418 
L 306.766312 278.355411 
L 306.9008 273.627419 
L 307.035288 263.044445 
L 307.304265 170.183966 
L 307.438753 177.475609 
L 307.842217 158.13413 
L 307.976706 165.214373 
L 308.111194 156.760745 
L 308.245682 161.74376 
L 308.649147 207.935994 
L 309.052611 264.534316 
L 309.590564 276.815686 
L 309.994029 278.526066 
L 310.128517 274.958141 
L 310.263005 262.289923 
L 310.531982 170.072273 
L 310.66647 171.228505 
L 310.935446 168.929943 
L 311.069934 159.540112 
L 311.204423 166.022106 
L 311.338911 164.725899 
L 311.473399 157.924168 
L 311.607887 171.114895 
L 311.876864 208.846791 
L 312.14584 251.348862 
L 312.414817 263.203116 
L 312.818281 271.849449 
L 312.952769 271.413705 
L 313.087258 273.307203 
L 313.221746 273.207974 
L 313.356234 274.791321 
L 313.625211 264.191569 
L 313.759699 256.267641 
L 313.894187 259.634232 
L 314.028675 257.095028 
L 314.163163 258.986129 
L 314.297652 256.214432 
L 314.566628 262.804762 
L 314.701116 263.542507 
L 314.970093 268.315559 
L 315.104581 268.277689 
L 315.239069 267.980003 
L 315.508045 270.924751 
L 315.642534 271.464038 
L 315.777022 271.132317 
L 316.180487 274.134589 
L 316.314975 273.693093 
L 316.718439 276.057328 
L 316.852928 276.307557 
L 316.987416 275.45045 
L 317.121904 275.516123 
L 317.256392 274.39153 
L 317.39088 274.536778 
L 317.525369 272.9913 
L 317.659857 273.91456 
L 317.928833 271.384464 
L 318.332298 267.631983 
L 318.466786 268.289194 
L 318.601274 267.784421 
L 318.735763 269.246968 
L 318.870251 269.082546 
L 319.139227 270.203784 
L 319.273715 280.082089 
L 319.67718 281.205245 
L 319.811668 278.615228 
L 319.946157 270.626585 
L 320.349621 148.105783 
L 320.484109 131.8845 
L 320.887574 159.281733 
L 321.022062 163.9685 
L 321.291039 178.815439 
L 321.425527 180.623609 
L 321.560015 199.144413 
L 321.828991 254.91439 
L 321.96348 263.037255 
L 322.097968 263.827251 
L 322.635921 280.600284 
L 322.770409 280.948784 
L 322.904897 280.286779 
L 323.173874 269.809265 
L 323.44285 173.9259 
L 323.577338 174.28926 
L 323.711826 174.491553 
L 323.980803 154.226334 
L 324.249779 157.780837 
L 324.384268 160.559245 
L 324.787732 196.960898 
L 325.056709 251.722288 
L 325.325685 261.034462 
L 325.863638 278.934486 
L 325.998126 280.70958 
L 326.132614 280.775253 
L 326.267103 277.548158 
L 326.401591 268.509703 
L 326.670567 166.703765 
L 326.805055 172.6853 
L 326.939544 173.862624 
L 327.20852 160.57842 
L 327.343008 168.757371 
L 327.611985 164.987153 
L 327.746473 169.868063 
L 328.149937 224.802504 
L 328.418914 255.782043 
L 328.68789 268.648719 
L 328.822379 271.112663 
L 328.956867 281.202848 
L 329.225843 282.153911 
L 329.360331 281.303036 
L 329.629308 268.414788 
L 330.032772 179.011979 
L 330.301749 167.623669 
L 330.570725 158.776961 
L 330.839702 180.725714 
L 330.97419 181.943305 
L 331.108678 184.700621 
L 331.781119 260.91462 
L 332.050096 268.108952 
L 332.184584 278.930172 
L 332.319072 279.890343 
L 332.45356 279.222585 
L 332.588049 280.214394 
L 332.857025 267.551928 
L 333.26049 178.377777 
L 333.394978 180.295722 
L 333.663954 165.320313 
L 333.798442 166.517771 
L 333.932931 170.300931 
L 334.336395 188.242181 
L 334.73986 256.269079 
L 335.143325 272.065164 
L 335.277813 271.865748 
L 335.412301 271.963538 
L 335.546789 272.250199 
L 335.681277 272.144739 
L 335.950254 274.737632 
L 336.084742 272.634172 
L 336.622695 256.100822 
L 336.757183 256.898967 
L 336.891671 255.062035 
L 337.295136 261.446717 
L 337.698601 266.199156 
L 337.833089 265.717872 
L 338.102065 269.834672 
L 338.236553 269.6017 
L 338.371042 270.241654 
L 338.50553 267.896593 
L 339.043483 271.068561 
L 339.446947 274.077065 
L 339.581436 273.593384 
L 339.715924 272.419416 
L 339.850412 272.679712 
L 339.9849 271.896427 
L 340.119388 271.783296 
L 340.253877 271.307765 
L 340.388365 272.790925 
L 340.522853 270.793884 
L 340.657341 271.39501 
L 340.926318 271.075272 
L 341.060806 267.723062 
L 341.329782 272.625064 
L 341.464271 272.522959 
L 341.598759 273.053618 
L 341.733247 274.626419 
L 341.867735 282.48036 
L 342.136712 282.582465 
L 342.2712 283.226733 
L 342.540176 270.47942 
L 342.943641 154.83513 
L 343.212617 171.511811 
L 343.347106 170.774545 
L 343.75057 185.217857 
L 343.885058 186.899475 
L 344.019547 186.234114 
L 344.423011 254.395715 
L 345.22994 280.193782 
L 345.364429 281.281944 
L 345.498917 280.912831 
L 345.633405 276.679066 
L 345.767893 268.561954 
L 346.03687 183.96767 
L 346.171358 188.102206 
L 346.440334 174.482445 
L 346.574823 169.089572 
L 346.843799 175.995805 
L 347.112775 177.872045 
L 347.381752 212.490935 
L 347.650728 251.558824 
L 348.054193 269.592592 
L 348.188681 270.779503 
L 348.323169 279.784403 
L 348.457658 280.635757 
L 348.592146 282.513915 
L 348.726634 282.317855 
L 348.99561 269.35962 
L 349.264587 182.913063 
L 349.399075 184.392868 
L 349.668052 166.765124 
L 349.80254 162.63682 
L 350.206004 181.406894 
L 350.340493 182.591408 
L 351.012934 263.089506 
L 351.147422 265.419227 
L 351.550886 282.148159 
L 351.685375 281.433423 
L 351.954351 281.801577 
L 352.088839 280.39895 
L 352.223328 273.0819 
L 352.492304 178.820232 
L 352.626792 186.012168 
L 352.76128 174.59989 
L 352.895769 173.88851 
L 353.030257 165.579171 
L 353.164745 172.817126 
L 353.299233 170.732361 
L 353.56821 152.890819 
L 354.240651 269.734484 
L 354.375139 270.876335 
L 354.644115 276.760559 
L 354.913092 281.050409 
L 355.182068 282.096387 
L 355.316556 279.685174 
L 355.451045 270.523521 
L 355.854509 196.95179 
L 356.123486 158.476877 
L 356.257974 160.196844 
L 356.392462 168.838384 
L 356.52695 168.202744 
L 356.661439 178.847556 
L 356.795927 177.591616 
L 357.33388 265.408681 
L 357.602856 275.040592 
L 357.737344 277.012226 
L 357.871832 281.282902 
L 358.006321 280.702389 
L 358.140809 280.917625 
L 358.275297 281.660164 
L 358.409785 281.57196 
L 358.678762 280.307871 
L 359.082226 261.773165 
L 359.351203 255.846278 
L 359.485691 249.552196 
L 359.620179 260.32452 
L 359.754667 261.743924 
L 359.889156 261.912661 
L 360.427109 276.253389 
L 360.561597 276.935528 
L 360.965061 281.097867 
L 361.234038 281.058079 
L 361.368526 280.865853 
L 361.503014 282.175962 
L 361.771991 281.767062 
L 361.906479 283.102577 
L 362.040967 283.054641 
L 362.175455 283.431423 
L 362.309944 283.472169 
L 362.57892 280.047095 
L 362.713408 279.997721 
L 362.982385 278.858746 
L 363.116873 277.360726 
L 363.251361 277.258621 
L 363.385849 278.353494 
L 363.520337 277.496386 
L 363.654826 277.436466 
L 364.05829 280.23309 
L 364.192778 254.127749 
L 364.730731 260.408888 
L 364.86522 259.209034 
L 364.999708 247.081062 
L 365.134196 224.84373 
L 365.403172 136.171954 
L 365.672149 105.758547 
L 365.806637 99.813923 
L 366.075613 116.825681 
L 366.34459 113.669053 
L 366.479078 125.146046 
L 367.017031 252.033876 
L 367.151519 257.013056 
L 367.286007 255.271038 
L 367.554984 266.676605 
L 367.689472 267.546655 
L 367.958448 272.465914 
L 368.227425 248.810616 
L 368.496401 152.472332 
L 368.765378 100.38389 
L 369.034354 89.438515 
L 369.168842 94.17945 
L 369.303331 93.73316 
L 369.437819 97.115569 
L 369.572307 94.984785 
L 369.706795 111.15909 
L 370.244748 235.501006 
L 370.782701 279.898971 
L 370.917189 280.205286 
L 371.051677 281.100743 
L 371.186166 280.820793 
L 371.455142 265.937422 
L 371.858607 172.270648 
L 372.127583 204.392996 
L 372.262071 200.315026 
L 372.396559 201.747852 
L 372.665536 191.014357 
L 372.800024 194.825321 
L 373.203489 234.70286 
L 373.472465 257.05572 
L 373.87593 278.340071 
L 374.010418 287.397701 
L 374.144906 287.251015 
L 374.279394 288.462854 
L 374.413883 287.957601 
L 374.682859 271.325022 
L 375.220812 181.536323 
L 375.489788 177.89122 
L 375.624277 178.115084 
L 375.893253 184.67905 
L 376.027741 188.993827 
L 376.565694 256.872122 
L 376.83467 265.801282 
L 376.969159 268.650157 
L 377.103647 280.513998 
L 377.238135 279.416249 
L 377.507112 281.498138 
L 377.6416 279.523627 
L 377.776088 283.078609 
L 378.045064 280.921939 
L 378.179553 271.238257 
L 378.314041 270.609807 
L 378.448529 263.477793 
L 378.583017 264.483024 
L 378.717505 263.561682 
L 378.851994 268.093133 
L 378.986482 267.329502 
L 379.12097 268.241737 
L 379.255458 270.41087 
L 379.389947 270.293905 
L 379.927899 279.58978 
L 380.062388 279.382214 
L 380.196876 279.800701 
L 380.331364 269.846656 
L 380.465852 270.527836 
L 380.869317 273.44526 
L 381.138293 262.499406 
L 381.272782 235.280018 
L 381.541758 160.342572 
L 381.810734 140.086461 
L 381.945223 141.685148 
L 382.214199 148.202136 
L 382.348687 140.175144 
L 382.752152 190.264628 
L 383.021128 258.58442 
L 383.155616 266.549573 
L 383.290105 267.214934 
L 383.424593 268.508265 
L 383.559081 263.556409 
L 383.693569 262.841194 
L 383.962546 263.189214 
L 384.097034 264.385233 
L 384.231522 262.592882 
L 384.36601 263.991674 
L 385.038451 149.269685 
L 385.17294 151.724521 
L 385.307428 166.931464 
L 385.576404 161.260558 
L 386.248845 261.443841 
L 386.921286 280.032714 
L 387.055775 279.213956 
L 387.190263 280.4977 
L 387.324751 279.803577 
L 387.459239 279.965603 
L 387.593727 281.462185 
L 387.728216 280.885028 
L 387.862704 282.208559 
L 387.997192 281.033632 
L 388.13168 282.63184 
L 388.266169 281.642906 
L 388.400657 279.647783 
L 388.535145 279.737425 
L 388.669633 279.071585 
L 388.804121 280.216312 
L 388.93861 277.65266 
L 389.207586 279.803577 
L 389.476562 286.526692 
L 389.611051 285.462978 
L 389.745539 286.283653 
L 389.880027 286.231403 
L 390.014515 271.251679 
L 390.149004 271.489924 
L 390.41798 271.511975 
L 390.552468 271.380629 
L 390.686956 265.853054 
L 390.821445 266.039048 
L 390.955933 257.139609 
L 391.224909 200.679824 
L 391.359397 169.134153 
L 391.493886 165.122814 
L 391.762862 175.874046 
L 391.89735 175.327568 
L 392.031839 168.065166 
L 392.166327 171.78457 
L 392.300815 180.812959 
L 392.569791 241.295588 
L 392.70428 267.725939 
L 392.973256 272.594864 
L 393.107744 273.25591 
L 393.376721 266.161286 
L 393.645697 271.910329 
L 393.780185 268.501074 
L 393.914673 269.893154 
L 394.049162 262.439964 
L 394.721603 147.20793 
L 394.990579 146.130314 
L 395.125067 145.707992 
L 395.259556 157.154784 
L 395.394044 158.029628 
L 395.931997 246.653946 
L 396.200973 260.338422 
L 396.335461 256.581147 
L 396.46995 281.489509 
L 396.604438 281.87492 
L 397.007902 284.926567 
L 397.276879 271.798157 
L 397.545855 197.684742 
L 397.680343 192.468755 
L 397.94932 168.963019 
L 398.083808 155.422354 
L 398.218296 168.23582 
L 398.352785 163.443114 
L 398.487273 166.472231 
L 398.487273 166.472231 
" clip-path="url(#pc6d6cad35c)" style="fill: none; stroke: #1f77b4; stroke-width: 1.5; stroke-linecap: square"/>
   </g>
   <g id="line2d_13">
    <path d="M 73.832727 281.26975 
L 73.967215 281.278228 
L 74.236192 280.659499 
L 74.37068 279.252259 
L 74.505168 281.218039 
L 74.639657 279.964279 
L 74.774145 280.966457 
L 74.908633 270.270509 
L 75.043121 226.476274 
L 75.177609 248.119234 
L 75.446586 250.015386 
L 75.581074 248.085832 
L 75.715562 248.606366 
L 75.85005 247.679065 
L 76.119027 252.198602 
L 76.388003 249.32131 
L 76.522492 280.168715 
L 76.65698 280.792519 
L 76.925956 275.891543 
L 77.060444 274.245264 
L 77.194933 259.349215 
L 77.329421 269.576753 
L 77.463909 266.786662 
L 77.598397 266.530201 
L 77.732885 269.566732 
L 77.867374 257.765116 
L 78.001862 235.896156 
L 78.270838 115.460996 
L 78.405327 106.551183 
L 78.539815 107.297124 
L 78.674303 111.848278 
L 78.808791 107.315397 
L 78.943279 118.878161 
L 79.077768 108.664116 
L 80.019185 263.840218 
L 80.153673 270.296938 
L 80.42265 254.311866 
L 80.557138 277.326412 
L 80.691626 267.402938 
L 80.826114 269.036934 
L 80.960603 266.104225 
L 81.095091 259.400999 
L 81.229579 239.090433 
L 81.498555 147.237543 
L 81.633044 173.782554 
L 81.90202 149.54421 
L 82.170996 205.435296 
L 82.305485 194.956853 
L 82.439973 194.978932 
L 82.574461 201.793593 
L 82.708949 214.624088 
L 82.977926 206.237605 
L 83.112414 220.350481 
L 83.246902 205.862838 
L 83.38139 205.491862 
L 83.650367 262.886043 
L 83.784855 257.604985 
L 84.053831 281.144479 
L 84.18832 279.950642 
L 84.322808 205.485044 
L 84.457296 226.323897 
L 84.591784 205.485044 
L 84.860761 205.485044 
L 84.995249 206.870263 
L 85.264225 161.76168 
L 85.398714 181.854037 
L 85.533202 181.853044 
L 85.936666 214.934824 
L 86.205643 260.554899 
L 86.340131 257.375637 
L 86.474619 268.296975 
L 86.609107 263.872744 
L 87.012572 288.455568 
L 87.14706 287.963865 
L 87.281549 286.560847 
L 87.416037 288.533301 
L 87.685013 286.140381 
L 87.95399 249.44694 
L 88.088478 262.583068 
L 88.222966 254.945188 
L 88.357454 261.269505 
L 88.491942 258.15265 
L 88.626431 251.722527 
L 88.760919 258.298693 
L 88.895407 246.513183 
L 89.029895 257.942759 
L 89.164384 256.162037 
L 89.298872 260.078165 
L 89.43336 278.197251 
L 89.567848 279.185539 
L 89.702336 272.866354 
L 89.971313 277.939197 
L 90.105801 254.366339 
L 90.240289 265.235677 
L 90.374777 266.599854 
L 90.509266 264.608561 
L 90.643754 260.744763 
L 90.91273 268.381077 
L 91.047218 261.493343 
L 91.181707 246.624168 
L 91.316195 254.241557 
L 91.450683 246.693851 
L 91.585171 258.799338 
L 91.71966 251.809535 
L 91.854148 253.109157 
L 91.988636 251.768824 
L 92.257612 258.83874 
L 92.392101 257.18835 
L 92.930053 269.611199 
L 93.064542 269.188438 
L 93.19903 263.59108 
L 93.333518 281.566243 
L 93.602495 273.117455 
L 93.736983 275.150923 
L 93.871471 272.780443 
L 94.140447 261.947661 
L 94.409424 175.966281 
L 94.543912 187.068834 
L 94.812888 157.393485 
L 94.947377 155.046898 
L 95.216353 171.519641 
L 95.350841 169.345153 
L 95.48533 164.176195 
L 95.888794 255.759619 
L 96.023282 270.174343 
L 96.157771 270.400424 
L 96.292259 266.463824 
L 96.561235 270.954353 
L 96.695723 268.700538 
L 96.830212 269.039108 
L 96.9647 271.529799 
L 97.233676 267.991588 
L 97.502653 224.166616 
L 97.637141 171.939929 
L 97.771629 187.665293 
L 97.906117 170.62096 
L 98.040606 186.052166 
L 98.175094 175.90524 
L 98.309582 179.157364 
L 98.44407 174.895523 
L 98.982023 225.930338 
L 99.250999 272.074503 
L 99.385488 271.357643 
L 99.519976 273.828227 
L 99.654464 272.194171 
L 99.788952 285.645561 
L 100.057929 276.849196 
L 100.326905 279.367661 
L 100.73037 276.552696 
L 100.864858 279.426459 
L 100.999346 277.540726 
L 101.133834 282.813476 
L 101.268323 280.819893 
L 101.402811 276.582206 
L 101.537299 261.806511 
L 101.671787 273.013521 
L 101.806276 259.72195 
L 101.940764 261.919404 
L 102.075252 268.898286 
L 102.20974 267.289897 
L 102.344228 268.36483 
L 102.478717 271.467193 
L 102.613205 279.5321 
L 102.747693 271.941101 
L 102.882181 282.865729 
L 103.016669 250.70883 
L 103.285646 273.336149 
L 103.823599 257.501555 
L 103.958087 224.754353 
L 104.092575 164.283933 
L 104.227063 173.200833 
L 104.361552 151.197476 
L 104.49604 167.2308 
L 104.630528 144.808777 
L 104.765016 143.329171 
L 105.302969 191.861404 
L 105.706434 266.77376 
L 105.97541 253.970733 
L 106.244387 287.51134 
L 106.513363 278.201129 
L 106.647851 276.988725 
L 106.782339 279.851043 
L 106.916828 277.112821 
L 107.051316 278.402159 
L 107.320292 224.431729 
L 107.589269 260.570758 
L 107.723757 251.991669 
L 107.858245 252.663611 
L 108.127222 246.919734 
L 108.26171 245.298233 
L 108.396198 249.30299 
L 108.530686 246.916824 
L 108.665174 251.934764 
L 108.934151 282.952461 
L 109.068639 277.588332 
L 109.203127 277.549887 
L 109.337615 276.551362 
L 109.472104 269.369727 
L 109.606592 272.460295 
L 109.74108 271.893386 
L 109.875568 272.203003 
L 110.144545 271.424863 
L 110.279033 271.857627 
L 110.413521 271.232566 
L 110.548009 272.46919 
L 110.682498 275.031893 
L 110.816986 274.622989 
L 111.085962 271.869802 
L 111.22045 272.442009 
L 111.489427 268.465468 
L 111.623915 269.907305 
L 111.758403 267.749657 
L 111.892891 269.035294 
L 112.161868 272.68736 
L 112.296356 272.762374 
L 112.565333 273.028945 
L 112.699821 256.836816 
L 112.968797 267.441131 
L 113.103285 266.243089 
L 113.237774 266.818959 
L 113.372262 266.2254 
L 113.50675 269.247906 
L 113.641238 268.690946 
L 113.775726 271.042296 
L 113.910215 269.102289 
L 114.044703 271.350767 
L 114.179191 268.44345 
L 114.313679 260.430663 
L 114.448168 260.522047 
L 114.851632 257.043942 
L 115.120609 250.844832 
L 115.389585 261.332812 
L 115.524073 262.113133 
L 115.658561 261.963186 
L 115.79305 259.433091 
L 115.927538 261.684639 
L 116.062026 260.775455 
L 116.196514 256.158212 
L 116.331002 267.019609 
L 116.599979 259.112802 
L 116.734467 240.652828 
L 117.003444 117.88923 
L 117.27242 88.719357 
L 117.541396 81.245632 
L 117.810373 89.373331 
L 118.213837 130.043329 
L 118.482814 224.189863 
L 118.886279 253.826581 
L 119.020767 245.190568 
L 119.289743 253.751253 
L 119.424231 251.377818 
L 119.55872 253.364919 
L 119.693208 257.186873 
L 119.827696 255.256676 
L 119.962184 236.408961 
L 120.231161 115.229595 
L 120.500137 91.820417 
L 120.634625 92.818332 
L 120.769114 88.491243 
L 120.903602 92.463858 
L 121.03809 81.747923 
L 121.172578 88.502586 
L 121.307066 110.137426 
L 121.441555 113.131482 
L 121.710531 224.459823 
L 121.845019 225.393511 
L 121.979507 250.495245 
L 122.113996 236.616197 
L 122.248484 238.529194 
L 122.382972 244.937216 
L 122.51746 260.95999 
L 122.786437 253.016984 
L 122.920925 255.386591 
L 123.055413 251.363308 
L 123.189901 236.741624 
L 123.458878 125.28396 
L 123.727854 78.817393 
L 123.996831 86.291639 
L 124.265807 103.373131 
L 124.400295 103.823619 
L 124.534783 107.308014 
L 124.669272 121.065096 
L 125.072736 235.188187 
L 125.207225 268.904188 
L 125.476201 250.560726 
L 125.610689 250.477926 
L 125.745177 269.925179 
L 125.879666 266.448785 
L 126.014154 266.654312 
L 126.148642 265.702788 
L 126.28313 246.819409 
L 126.417618 247.873951 
L 126.686595 121.858845 
L 126.821083 113.744331 
L 127.09006 90.65978 
L 127.224548 99.016236 
L 127.359036 116.315998 
L 127.493524 115.576515 
L 127.628012 115.815831 
L 127.896989 149.261494 
L 128.434942 262.626458 
L 128.703918 246.095641 
L 128.838406 260.835744 
L 128.972894 256.173648 
L 129.241871 264.003711 
L 129.376359 262.924566 
L 129.645336 233.029703 
L 129.914312 113.056088 
L 130.0488 94.620717 
L 130.317777 90.496126 
L 130.452265 105.967769 
L 130.586753 137.680465 
L 130.721241 117.602922 
L 130.855729 116.58293 
L 130.990218 130.603339 
L 131.662659 264.688613 
L 131.797147 259.79245 
L 132.066123 259.741173 
L 132.200612 258.873439 
L 132.469588 272.892429 
L 132.604076 268.981184 
L 132.738564 269.095986 
L 132.873053 268.862358 
L 133.007541 255.331295 
L 133.142029 254.345547 
L 133.276517 244.016272 
L 133.411005 243.110558 
L 133.545494 243.404159 
L 133.679982 239.78074 
L 133.81447 240.797064 
L 133.948958 240.741855 
L 134.083447 234.964729 
L 134.352423 246.137166 
L 134.621399 250.60122 
L 134.755888 255.06271 
L 134.890376 255.252637 
L 135.024864 254.169042 
L 135.428329 262.071082 
L 135.831793 267.605575 
L 135.966282 273.028288 
L 136.10077 271.481142 
L 136.235258 266.296784 
L 136.369746 269.107665 
L 136.504234 268.55953 
L 136.638723 263.277462 
L 136.773211 267.176971 
L 137.042187 263.543156 
L 137.311164 249.704412 
L 137.58014 256.363377 
L 137.714628 251.867282 
L 137.983605 259.292374 
L 138.118093 259.969519 
L 138.252581 257.770651 
L 138.387069 257.540456 
L 138.521558 264.068677 
L 138.656046 257.803721 
L 138.790534 259.143364 
L 138.925022 264.862235 
L 139.05951 265.002272 
L 139.328487 239.894067 
L 139.597463 109.939305 
L 139.86644 93.456947 
L 140.000928 92.228556 
L 140.135416 95.672648 
L 140.942345 169.509037 
L 141.211322 247.023516 
L 141.34581 249.81816 
L 141.480298 265.640772 
L 141.614786 255.791851 
L 141.749275 258.804099 
L 141.883763 264.540078 
L 142.018251 262.056905 
L 142.152739 263.939184 
L 142.287228 262.235176 
L 142.421716 235.842699 
L 142.556204 235.258735 
L 142.82518 111.52068 
L 142.959669 93.409849 
L 143.094157 93.995069 
L 143.228645 90.515593 
L 143.363133 94.160764 
L 143.497621 105.648098 
L 143.63211 85.938442 
L 143.766598 100.122536 
L 143.901086 135.634939 
L 144.035574 132.639661 
L 144.304551 236.634649 
L 144.439039 234.995664 
L 144.708015 268.462519 
L 144.976992 259.607451 
L 145.245968 262.89219 
L 145.380456 265.644924 
L 145.514945 256.166446 
L 145.649433 228.617602 
L 145.783921 238.80383 
L 146.187386 95.148193 
L 146.321874 88.447434 
L 146.59085 117.109252 
L 146.725339 128.828121 
L 146.859827 112.24674 
L 146.994315 129.114347 
L 147.128803 118.519192 
L 147.263291 142.419414 
L 147.532268 244.051746 
L 147.666756 249.168817 
L 147.935732 264.819602 
L 148.070221 258.113286 
L 148.204709 263.967696 
L 148.339197 264.744055 
L 148.473685 263.289801 
L 148.608174 263.849525 
L 148.742662 262.303702 
L 148.87715 262.453953 
L 149.011638 230.707874 
L 149.280615 117.018107 
L 149.415103 106.838869 
L 149.549591 115.890286 
L 149.684079 106.950493 
L 149.818567 112.883301 
L 150.222032 150.83649 
L 150.35652 135.936728 
L 150.491009 153.740216 
L 150.759985 244.195881 
L 150.894473 245.701131 
L 151.028961 264.546822 
L 151.16345 266.173625 
L 151.297938 257.583806 
L 151.701402 266.125867 
L 151.835891 265.851867 
L 151.970379 267.067242 
L 152.104867 263.70407 
L 152.373843 164.008012 
L 152.508332 109.336693 
L 152.64282 107.647464 
L 152.777308 120.981501 
L 153.046285 102.648672 
L 153.180773 122.070885 
L 153.315261 119.86229 
L 153.449749 175.143363 
L 153.584237 175.337462 
L 154.256678 274.49016 
L 154.391167 267.605935 
L 154.525655 272.311769 
L 154.660143 271.694088 
L 154.794631 272.705983 
L 154.92912 272.740063 
L 155.198096 275.917252 
L 155.332584 277.310923 
L 155.467072 275.629208 
L 155.601561 267.83414 
L 155.736049 251.5643 
L 155.870537 260.733016 
L 156.005025 257.245651 
L 156.139513 262.753282 
L 156.40849 258.429703 
L 156.677466 260.90601 
L 156.811955 260.561827 
L 156.946443 264.624813 
L 157.080931 264.831602 
L 157.484396 270.133754 
L 157.618884 267.518548 
L 158.022348 272.301162 
L 158.156837 272.259803 
L 158.425813 275.694178 
L 158.694789 279.346858 
L 158.829278 274.913767 
L 158.963766 276.3518 
L 159.098254 275.478424 
L 159.367231 272.752258 
L 159.501719 274.172223 
L 159.770695 265.644293 
L 159.905183 260.949579 
L 160.039672 265.061844 
L 160.17416 258.883259 
L 160.308648 261.454766 
L 160.443136 261.775153 
L 160.577624 269.622068 
L 160.846601 263.416956 
L 160.981089 262.476899 
L 161.115577 264.71538 
L 161.250066 269.227026 
L 161.384554 267.681875 
L 161.519042 267.432726 
L 161.65353 268.431597 
L 161.922507 242.052306 
L 162.325971 94.397605 
L 162.460459 85.190517 
L 162.594948 93.589801 
L 162.729436 92.647884 
L 162.863924 90.203004 
L 162.998412 114.796763 
L 163.132901 109.567402 
L 163.401877 147.428111 
L 163.805342 240.870092 
L 164.074318 259.883295 
L 164.343294 255.774007 
L 164.477783 273.370933 
L 164.612271 268.212341 
L 164.746759 271.191797 
L 165.150224 241.731857 
L 165.4192 122.132045 
L 165.553688 106.401008 
L 165.688177 123.019196 
L 165.822665 107.437711 
L 165.957153 109.167929 
L 166.091641 119.001848 
L 166.360618 104.235322 
L 166.495106 102.619841 
L 166.629594 116.376072 
L 166.89857 237.862841 
L 167.033059 238.924445 
L 167.167547 235.968515 
L 167.302035 253.050085 
L 167.436523 248.129312 
L 167.974476 262.697777 
L 168.108964 263.70784 
L 168.377941 230.818276 
L 168.781405 96.154561 
L 168.915894 106.696561 
L 169.050382 99.418145 
L 169.319358 109.681225 
L 169.453847 86.552593 
L 169.588335 100.5269 
L 170.395264 264.927887 
L 170.66424 256.456586 
L 170.798729 261.863194 
L 170.933217 259.832943 
L 171.202193 262.653378 
L 171.336681 266.588339 
L 171.47117 238.566168 
L 171.605658 238.28071 
L 172.009123 95.009494 
L 172.143611 106.688557 
L 172.278099 108.643659 
L 172.547075 95.355235 
L 172.95054 137.265605 
L 173.085028 139.614998 
L 173.488493 243.211679 
L 173.622981 262.160113 
L 173.757469 263.975585 
L 173.891958 263.854138 
L 174.026446 284.589243 
L 174.160934 273.154801 
L 174.564399 275.795893 
L 174.967863 222.324136 
L 175.102351 165.191987 
L 175.23684 163.788508 
L 175.505816 136.340603 
L 175.640304 138.634109 
L 175.774792 153.591011 
L 175.909281 151.10631 
L 176.178257 176.906296 
L 176.312745 174.561342 
L 176.447234 198.486114 
L 176.581722 249.221137 
L 176.71621 253.389421 
L 176.850698 268.071687 
L 176.985186 269.900958 
L 177.119675 262.259347 
L 177.388651 269.176355 
L 177.523139 267.864191 
L 177.792116 274.249006 
L 177.926604 274.242795 
L 178.061092 275.268119 
L 178.330069 261.205318 
L 178.464557 264.054818 
L 178.599045 253.971152 
L 178.733533 259.185273 
L 178.868021 257.655973 
L 179.00251 261.143516 
L 179.271486 253.028043 
L 179.405974 257.456355 
L 179.540462 254.567056 
L 179.674951 254.51308 
L 179.943927 263.31843 
L 180.078415 271.243653 
L 180.212904 265.21419 
L 180.347392 265.595827 
L 180.48188 277.36722 
L 180.750856 274.608457 
L 180.885345 275.14161 
L 181.019833 276.15076 
L 181.154321 275.734529 
L 181.557786 263.265728 
L 181.692274 268.353479 
L 181.826762 265.61719 
L 181.96125 268.217992 
L 182.095738 258.140156 
L 182.364715 265.892355 
L 182.499203 267.34137 
L 182.76818 274.464532 
L 182.902668 272.28433 
L 183.037156 272.426348 
L 183.171644 278.025541 
L 183.306132 277.664438 
L 183.440621 278.801574 
L 183.709597 270.380169 
L 183.844085 287.385959 
L 183.978573 283.666593 
L 184.113062 283.389788 
L 184.24755 277.038572 
L 184.382038 264.813821 
L 184.516526 263.27816 
L 184.785503 183.94412 
L 184.919991 190.596374 
L 185.054479 171.749829 
L 185.188967 183.344188 
L 185.323456 173.896136 
L 185.457944 180.648878 
L 185.592432 181.508897 
L 185.72692 190.475073 
L 186.130385 241.697978 
L 186.399361 260.943359 
L 186.668338 271.581899 
L 186.802826 274.536676 
L 187.071802 291.125817 
L 187.340779 283.548196 
L 187.475267 286.281654 
L 187.609755 279.515553 
L 187.744243 267.156933 
L 188.01322 186.960025 
L 188.147708 193.78519 
L 188.282196 175.813088 
L 188.416684 182.055754 
L 188.551173 180.120354 
L 188.685661 183.451561 
L 188.820149 192.636241 
L 188.954637 191.09851 
L 189.627078 268.74844 
L 189.761567 267.977965 
L 189.896055 268.957749 
L 190.030543 275.112149 
L 190.165031 265.238356 
L 190.299519 270.464419 
L 190.434008 270.521294 
L 190.568496 267.804752 
L 190.837472 270.870594 
L 190.971961 271.557626 
L 191.106449 268.949268 
L 191.240937 261.707215 
L 191.509913 272.940348 
L 191.644402 262.934144 
L 191.77889 266.343821 
L 191.913378 263.372302 
L 192.182354 251.554435 
L 192.451331 261.629668 
L 192.585819 260.109881 
L 192.720307 261.60473 
L 192.854796 270.350991 
L 192.989284 266.759189 
L 193.123772 267.169422 
L 193.392748 263.558922 
L 193.527237 263.05791 
L 193.661725 267.386034 
L 193.930701 267.816532 
L 194.199678 255.543776 
L 194.468654 174.163424 
L 194.603142 167.485574 
L 194.73763 147.100739 
L 194.872119 150.215283 
L 195.006607 139.863266 
L 195.275583 155.205589 
L 195.410072 143.532016 
L 196.082513 269.396402 
L 196.217001 261.964568 
L 196.351489 259.697256 
L 196.485977 261.180925 
L 196.620465 276.853039 
L 196.754954 267.792658 
L 197.158418 271.150352 
L 197.292907 266.970667 
L 197.427395 256.120497 
L 197.696371 183.016012 
L 197.830859 201.798404 
L 197.965348 188.937505 
L 198.099836 194.674308 
L 198.234324 188.344192 
L 198.368812 199.197107 
L 198.5033 186.094175 
L 198.637789 184.287492 
L 199.31023 279.308393 
L 199.444718 274.552958 
L 199.713694 278.200135 
L 199.848183 281.944206 
L 199.982671 278.454161 
L 200.117159 279.705303 
L 200.251647 279.882505 
L 200.386135 277.264324 
L 200.520624 269.919035 
L 200.655112 272.470943 
L 200.7896 250.801086 
L 200.924088 179.836125 
L 201.058576 209.621015 
L 201.193065 190.366093 
L 201.327553 199.44023 
L 201.462041 192.437137 
L 201.596529 203.059341 
L 201.731018 186.776608 
L 201.865506 192.586962 
L 202.26897 230.641553 
L 202.537947 274.623957 
L 202.672435 270.62416 
L 202.941411 274.975687 
L 203.0759 264.858867 
L 203.210388 265.211736 
L 203.344876 271.998635 
L 203.479364 269.902598 
L 203.748341 261.937343 
L 203.882829 259.454352 
L 204.017317 235.581811 
L 204.286294 169.622045 
L 204.55527 158.678161 
L 204.824246 169.522999 
L 204.958735 162.835432 
L 205.093223 189.482163 
L 205.227711 185.752217 
L 205.765664 264.172044 
L 205.900152 264.590563 
L 206.03464 261.732325 
L 206.169129 264.686555 
L 206.303617 288.582757 
L 206.438105 277.713776 
L 206.707081 282.967977 
L 206.976058 282.376375 
L 207.379522 260.877097 
L 207.648499 266.478475 
L 207.917475 275.258075 
L 208.051964 274.216478 
L 208.186452 269.497332 
L 208.32094 259.15849 
L 208.455428 259.468826 
L 208.589916 267.426742 
L 208.724405 266.416561 
L 208.858893 275.975605 
L 208.993381 275.910854 
L 209.127869 280.680376 
L 209.396846 277.106556 
L 209.531334 266.30549 
L 209.665822 273.619789 
L 209.80031 271.788351 
L 209.934799 271.868097 
L 210.069287 273.764956 
L 210.203775 255.179794 
L 210.338263 257.994857 
L 210.60724 161.276812 
L 210.741728 154.403765 
L 210.876216 128.071997 
L 211.010704 123.776396 
L 211.145192 107.555468 
L 211.279681 135.33161 
L 211.414169 136.45459 
L 212.221098 262.051672 
L 212.490075 258.677912 
L 212.759051 270.879381 
L 212.893539 273.964577 
L 213.028027 269.980733 
L 213.162516 270.288822 
L 213.297004 274.87963 
L 213.56598 246.466549 
L 213.834957 125.880024 
L 213.969445 129.991644 
L 214.103933 141.584153 
L 214.238421 136.851473 
L 214.37291 140.157454 
L 214.507398 150.869094 
L 214.776374 183.033545 
L 215.045351 197.534049 
L 215.448815 268.981272 
L 215.583303 260.07559 
L 215.717792 267.796535 
L 215.85228 264.804861 
L 216.121256 268.97266 
L 216.255745 267.581904 
L 216.390233 269.11885 
L 216.524721 272.897126 
L 216.793697 251.030587 
L 217.062674 137.824665 
L 217.197162 139.915752 
L 217.33165 147.166293 
L 217.466138 146.607587 
L 217.600627 162.397934 
L 217.735115 156.448839 
L 217.869603 142.167018 
L 218.273068 210.895747 
L 218.407556 213.959343 
L 218.542044 258.621569 
L 218.945509 275.304046 
L 219.079997 256.42924 
L 219.348973 270.270022 
L 219.752438 276.501259 
L 220.021414 251.775091 
L 220.290391 134.378895 
L 220.424879 159.264763 
L 220.693856 151.123674 
L 220.828344 149.463354 
L 220.962832 168.914883 
L 221.09732 160.193199 
L 221.231808 198.760527 
L 221.366297 199.852915 
L 221.635273 214.430113 
L 221.904249 265.444071 
L 222.038738 267.267931 
L 222.173226 275.024654 
L 222.307714 271.273028 
L 222.442202 272.931029 
L 222.711179 278.72447 
L 222.845667 278.652597 
L 222.980155 280.016685 
L 223.114643 277.01524 
L 223.249132 280.053794 
L 223.518108 252.721647 
L 223.652596 268.217741 
L 223.787084 265.681022 
L 224.056061 256.988758 
L 224.190549 256.645258 
L 224.325037 255.833299 
L 224.459525 259.890873 
L 224.728502 258.742101 
L 224.86299 256.728847 
L 225.131967 263.734884 
L 225.266455 263.98644 
L 225.400943 260.888909 
L 225.535431 262.718451 
L 225.669919 262.702334 
L 225.804408 260.454176 
L 226.073384 267.351027 
L 226.207872 271.397089 
L 226.34236 271.533838 
L 226.476849 273.525409 
L 226.745825 270.722816 
L 226.880313 268.365574 
L 227.014802 272.09643 
L 227.14929 272.532797 
L 227.283778 272.509804 
L 227.418266 268.884436 
L 227.552754 271.754328 
L 227.687243 270.713248 
L 227.821731 272.209402 
L 227.956219 270.661433 
L 228.090707 271.27233 
L 228.225195 278.723728 
L 228.359684 276.048938 
L 228.494172 276.82241 
L 228.62866 275.216756 
L 228.763148 276.566965 
L 228.897637 275.414051 
L 229.032125 270.911205 
L 229.301101 274.406203 
L 229.435589 273.905963 
L 229.570078 261.429534 
L 229.704566 238.126915 
L 230.10803 106.354824 
L 230.242519 93.881833 
L 230.377007 96.285961 
L 230.511495 81.47611 
L 230.645983 131.101419 
L 230.780471 118.434145 
L 230.91496 126.393505 
L 231.183936 171.02646 
L 231.587401 258.32255 
L 231.721889 260.231204 
L 231.990865 265.836127 
L 232.125354 268.790592 
L 232.259842 268.491622 
L 232.528818 273.777195 
L 232.663306 270.124199 
L 232.932283 242.73913 
L 233.201259 129.772533 
L 233.470236 124.880773 
L 233.604724 138.432561 
L 233.739212 135.791712 
L 233.8737 152.876852 
L 234.008189 128.844577 
L 234.815118 272.57816 
L 234.949606 268.39417 
L 235.084094 261.166584 
L 235.218583 269.349819 
L 235.353071 268.358402 
L 235.622047 278.415752 
L 235.891024 273.641928 
L 236.16 253.802769 
L 236.428976 129.418284 
L 236.563465 123.444351 
L 236.697953 129.597714 
L 236.832441 124.038046 
L 236.966929 113.403459 
L 238.042835 269.981492 
L 238.177323 268.514546 
L 238.311811 266.886844 
L 238.4463 270.882086 
L 238.580788 270.810916 
L 238.715276 273.575641 
L 238.984252 282.218266 
L 239.253229 270.757989 
L 239.387717 244.812026 
L 239.656694 133.244482 
L 239.92567 124.528406 
L 240.060158 135.371085 
L 240.194646 134.580102 
L 241.001576 224.991983 
L 241.136064 252.026729 
L 241.270552 253.658546 
L 241.40504 260.766063 
L 241.539529 257.973461 
L 241.674017 261.449006 
L 241.808505 260.148296 
L 241.942993 278.725976 
L 242.077481 274.131424 
L 242.21197 284.386884 
L 242.346458 277.887246 
L 242.615434 248.531619 
L 242.884411 131.873544 
L 243.153387 158.346024 
L 243.287875 152.138861 
L 243.422363 138.871126 
L 243.556852 152.679504 
L 243.69134 151.633221 
L 244.094805 227.363263 
L 244.229293 231.294248 
L 244.498269 257.565799 
L 244.632757 266.619155 
L 244.901734 268.448608 
L 245.17071 275.860856 
L 245.305198 274.694156 
L 245.439687 275.673744 
L 245.708663 273.335411 
L 245.843151 255.672805 
L 245.97764 269.592711 
L 246.112128 263.594797 
L 246.246616 263.721454 
L 246.381104 263.559089 
L 246.515592 260.614827 
L 246.650081 261.751362 
L 246.784569 263.946541 
L 246.919057 264.146232 
L 247.053545 268.654087 
L 247.188033 268.650541 
L 247.322522 273.08474 
L 247.45701 273.334633 
L 247.591498 274.248121 
L 247.725986 273.791064 
L 247.860475 277.42053 
L 247.994963 274.938634 
L 248.263939 276.08786 
L 248.398427 274.817546 
L 248.532916 275.553268 
L 248.667404 274.824361 
L 248.801892 277.017267 
L 248.93638 275.174704 
L 249.070868 275.424908 
L 249.205357 274.527208 
L 249.474333 278.098424 
L 249.608821 277.661463 
L 249.743309 276.774768 
L 249.877798 276.839781 
L 250.012286 276.234422 
L 250.281262 272.316514 
L 250.415751 272.541698 
L 250.684727 271.765374 
L 251.088192 274.840379 
L 251.22268 273.481087 
L 251.357168 274.624084 
L 251.491656 274.528737 
L 251.626144 288.937464 
L 251.760633 281.028996 
L 251.895121 281.831385 
L 252.029609 280.869973 
L 252.298586 262.019983 
L 252.567562 137.053045 
L 252.70205 138.605478 
L 252.836538 142.040616 
L 252.971027 165.063642 
L 253.105515 154.719072 
L 253.912444 225.396688 
L 254.046932 256.709941 
L 254.181421 260.932777 
L 254.450397 279.240246 
L 254.584885 280.0508 
L 254.719373 282.23033 
L 254.853862 287.393755 
L 254.98835 283.326736 
L 255.122838 285.958311 
L 255.257326 285.218251 
L 255.526303 253.439088 
L 255.795279 144.371349 
L 255.929767 173.929604 
L 256.198744 161.560431 
L 256.333232 153.591974 
L 256.736697 176.133739 
L 257.005673 218.813792 
L 257.140161 224.010265 
L 257.409138 251.389726 
L 257.543626 264.596004 
L 257.678114 260.557162 
L 257.812602 265.036586 
L 257.94709 265.297028 
L 258.081579 282.625922 
L 258.216067 282.479381 
L 258.350555 281.143037 
L 258.485043 278.533777 
L 258.75402 255.052475 
L 259.022996 143.604435 
L 259.157484 177.309029 
L 259.291973 161.227024 
L 259.426461 163.281756 
L 259.560949 141.883179 
L 259.695437 172.308418 
L 259.829925 175.776612 
L 259.964414 156.450696 
L 260.502366 245.869721 
L 260.771343 260.173778 
L 260.905831 264.201951 
L 261.040319 260.534347 
L 261.174808 261.525692 
L 261.309296 271.391705 
L 261.443784 268.915279 
L 261.578272 273.685479 
L 261.847249 266.319203 
L 261.981737 242.233955 
L 262.250713 142.68095 
L 262.385201 172.309576 
L 262.654178 143.075498 
L 262.788666 144.947182 
L 262.923154 158.256861 
L 263.057643 152.181102 
L 263.326619 186.602499 
L 263.730084 237.39654 
L 263.99906 253.435351 
L 264.268036 255.030533 
L 264.402525 267.609435 
L 264.537013 259.223537 
L 264.671501 265.258324 
L 265.074966 261.946289 
L 265.209454 246.209312 
L 265.747407 112.061557 
L 265.881895 113.175262 
L 266.016383 102.235193 
L 266.150871 123.414732 
L 266.28536 116.603054 
L 266.419848 116.874958 
L 266.554336 127.859748 
L 266.823312 185.206121 
L 267.092289 255.147602 
L 267.226777 254.85519 
L 267.495754 252.514813 
L 267.630242 274.107001 
L 267.76473 266.958441 
L 267.899218 269.513416 
L 268.033706 268.980258 
L 268.302683 276.237565 
L 268.437171 275.894925 
L 268.571659 270.700007 
L 268.840636 276.019465 
L 269.109612 270.830519 
L 269.2441 268.588986 
L 269.378589 268.88304 
L 269.782053 258.369826 
L 269.916541 260.721176 
L 270.05103 258.061171 
L 270.185518 259.938045 
L 270.320006 259.726855 
L 270.454494 260.366683 
L 270.588982 264.228505 
L 270.723471 264.594248 
L 270.857959 283.027862 
L 271.126935 275.203858 
L 271.261424 277.291861 
L 271.5304 276.698359 
L 271.664888 277.990686 
L 271.799376 277.596421 
L 271.933865 279.557062 
L 272.068353 275.852009 
L 272.202841 279.074719 
L 272.337329 277.240743 
L 272.471817 277.969395 
L 272.740794 273.574803 
L 272.875282 276.315428 
L 273.00977 274.055676 
L 273.144258 274.647093 
L 273.278747 271.707082 
L 273.413235 272.50367 
L 273.682211 274.991616 
L 273.8167 274.571611 
L 273.951188 274.657164 
L 274.085676 272.797264 
L 274.220164 289.5482 
L 274.354652 284.880783 
L 274.489141 286.619256 
L 274.623629 284.383519 
L 274.892605 261.3563 
L 275.161582 189.145159 
L 275.430558 153.662897 
L 275.565046 152.358975 
L 275.699535 154.623005 
L 275.834023 154.667579 
L 275.968511 181.27451 
L 276.102999 177.042591 
L 276.506464 233.625907 
L 276.909928 270.228176 
L 277.044417 269.27188 
L 277.178905 276.400725 
L 277.313393 272.919919 
L 277.447881 282.651164 
L 277.58237 279.836027 
L 277.716858 283.825419 
L 277.851346 281.693868 
L 277.985834 276.134119 
L 278.120322 264.675431 
L 278.389299 211.963817 
L 278.523787 206.458059 
L 278.658275 184.656413 
L 278.792763 191.680174 
L 278.927252 172.752754 
L 279.06174 193.182308 
L 279.196228 186.66839 
L 280.137646 271.789232 
L 280.406622 275.726592 
L 280.54111 259.275997 
L 280.810087 267.204636 
L 280.944575 267.10895 
L 281.079063 266.056994 
L 281.213551 254.479619 
L 281.348039 256.450701 
L 281.617016 128.180995 
L 281.751504 144.332818 
L 281.885992 123.868524 
L 282.289457 147.892381 
L 282.423945 116.517384 
L 282.692922 149.94805 
L 283.096386 256.650007 
L 283.230874 267.820285 
L 283.499851 259.613611 
L 283.634339 262.328823 
L 283.768827 259.150818 
L 284.172292 262.541425 
L 284.30678 261.271807 
L 284.575757 251.305926 
L 284.844733 164.443165 
L 284.979221 154.505083 
L 285.113709 157.907882 
L 285.248198 135.483955 
L 285.382686 141.753094 
L 285.517174 139.388723 
L 285.651662 160.132835 
L 285.78615 146.334834 
L 285.920639 154.415834 
L 286.324103 250.055616 
L 286.458592 263.439284 
L 286.59308 258.456032 
L 286.727568 261.250319 
L 286.862056 257.435106 
L 286.996544 290.657307 
L 287.131033 277.113992 
L 287.265521 275.319879 
L 287.400009 277.265314 
L 287.803474 267.855578 
L 288.07245 273.214445 
L 288.206938 276.799522 
L 288.341427 273.421554 
L 288.475915 273.516691 
L 288.610403 270.25105 
L 288.744891 270.576527 
L 288.879379 267.056443 
L 289.013868 268.760822 
L 289.282844 265.006116 
L 289.417332 276.853111 
L 289.55182 276.764894 
L 289.686309 276.908903 
L 289.820797 275.509886 
L 289.955285 275.272067 
L 290.089773 277.700423 
L 290.224262 275.084897 
L 290.35875 278.165912 
L 290.493238 276.113787 
L 290.627726 278.027228 
L 290.762214 275.241399 
L 290.896703 267.861379 
L 291.031191 267.141007 
L 291.165679 248.382539 
L 291.300167 181.527932 
L 291.569144 178.867009 
L 291.703632 181.585837 
L 291.83812 187.845399 
L 292.107096 169.61178 
L 292.376073 200.900689 
L 292.645049 235.393372 
L 292.914026 271.019774 
L 293.048514 268.609256 
L 293.183002 271.545564 
L 293.31749 270.950579 
L 293.451979 268.582259 
L 293.586467 269.804942 
L 293.720955 267.830097 
L 293.855443 271.707152 
L 293.989931 270.869332 
L 294.258908 259.995601 
L 294.393396 234.256974 
L 294.527884 180.852594 
L 294.662373 176.560045 
L 294.796861 152.206004 
L 294.931349 148.729716 
L 295.065837 132.738451 
L 295.200325 133.527532 
L 295.334814 144.419973 
L 295.469302 142.550944 
L 295.60379 192.970881 
L 295.738278 199.700843 
L 295.872766 214.176522 
L 296.141743 267.330663 
L 296.410719 257.700238 
L 296.545208 266.188755 
L 296.679696 290.428978 
L 296.814184 280.419793 
L 296.948672 281.402039 
L 297.08316 281.303632 
L 297.352137 282.320642 
L 297.486625 278.735415 
L 297.621113 278.853438 
L 297.89009 283.390104 
L 298.159066 270.566075 
L 298.293554 272.496814 
L 298.428042 271.927569 
L 298.831507 267.314006 
L 299.36946 277.731261 
L 299.503948 278.120302 
L 299.638436 276.054011 
L 299.772925 278.895102 
L 299.907413 259.556876 
L 300.041901 273.609352 
L 300.176389 270.355435 
L 300.310877 271.461109 
L 300.445366 269.963427 
L 300.714342 249.453937 
L 300.983319 166.538632 
L 301.386783 126.153182 
L 301.521271 127.190674 
L 301.65576 142.411792 
L 301.790248 130.504811 
L 302.597177 256.246127 
L 302.731665 258.918378 
L 302.866153 253.801602 
L 303.13513 267.847302 
L 303.269618 264.358793 
L 303.404106 265.253139 
L 303.538595 269.603339 
L 303.673083 268.037263 
L 304.076547 202.307878 
L 304.211036 160.574645 
L 304.345524 170.153894 
L 304.6145 155.85806 
L 304.748988 151.938807 
L 304.883477 160.868366 
L 305.017965 148.794184 
L 305.286941 185.647605 
L 305.42143 213.265505 
L 305.555918 217.576688 
L 305.824894 257.939735 
L 305.959382 267.898924 
L 306.093871 259.992337 
L 306.228359 265.104275 
L 306.362847 265.043466 
L 306.497335 279.254664 
L 306.631823 275.518553 
L 306.766312 275.4606 
L 306.9008 275.263393 
L 307.035288 266.80427 
L 307.169776 245.122079 
L 307.438753 149.268824 
L 307.573241 174.257929 
L 307.842217 159.555003 
L 307.976706 154.379812 
L 308.111194 160.352048 
L 308.245682 149.428497 
L 308.38017 161.520385 
L 308.783635 226.947007 
L 309.187099 269.520507 
L 309.321588 268.859364 
L 309.456076 272.688358 
L 309.590564 273.07221 
L 309.725052 276.573393 
L 309.859541 274.425383 
L 309.994029 275.432591 
L 310.128517 274.371935 
L 310.263005 266.836068 
L 310.397493 240.212221 
L 310.66647 149.06437 
L 310.800958 166.871823 
L 311.069934 164.728277 
L 311.204423 155.706521 
L 311.338911 160.325368 
L 311.473399 159.001949 
L 311.607887 160.779977 
L 311.876864 225.748516 
L 312.011352 225.333168 
L 312.280328 257.240883 
L 312.818281 271.006801 
L 312.952769 273.459817 
L 313.087258 271.465442 
L 313.221746 274.021403 
L 313.356234 272.895817 
L 313.490722 274.57559 
L 313.894187 251.60861 
L 314.028675 261.557519 
L 314.163163 256.76313 
L 314.297652 258.782461 
L 314.43214 255.37044 
L 314.566628 261.370648 
L 314.835604 262.885915 
L 315.104581 269.670281 
L 315.373557 267.607538 
L 315.508045 270.573575 
L 315.642534 269.977447 
L 315.777022 270.404026 
L 315.91151 269.578301 
L 316.045998 271.701239 
L 316.180487 271.669528 
L 316.314975 273.165149 
L 316.449463 271.762271 
L 316.583951 273.354869 
L 316.987416 272.493684 
L 317.121904 274.104731 
L 317.256392 273.870924 
L 317.39088 272.1369 
L 317.525369 272.410855 
L 317.659857 270.261015 
L 317.794345 273.734922 
L 318.063322 268.309824 
L 318.19781 266.800925 
L 318.332298 267.913104 
L 318.466786 265.950199 
L 318.601274 267.878423 
L 318.735763 266.617184 
L 318.870251 268.961968 
L 319.139227 266.208383 
L 319.273715 266.660432 
L 319.408204 284.261993 
L 319.542692 277.229477 
L 319.67718 277.486808 
L 319.811668 277.439003 
L 319.946157 272.000902 
L 320.080645 253.723666 
L 320.349621 146.193678 
L 320.484109 141.874242 
L 320.618598 130.834162 
L 320.887574 147.356788 
L 321.560015 193.578505 
L 321.96348 266.244869 
L 322.097968 266.899254 
L 322.232456 262.920838 
L 322.366944 269.145056 
L 322.501433 268.541843 
L 322.635921 283.512615 
L 322.770409 279.372199 
L 322.904897 278.928874 
L 323.039385 277.570716 
L 323.308362 260.814611 
L 323.577338 150.861085 
L 323.711826 169.323158 
L 323.846315 169.331906 
L 324.115291 150.650661 
L 324.249779 152.33456 
L 324.384268 151.90254 
L 324.518756 159.69203 
L 324.787732 203.565066 
L 324.92222 215.173436 
L 325.191197 261.55384 
L 325.325685 261.803793 
L 325.460173 260.911607 
L 325.594661 267.392346 
L 325.72915 267.853726 
L 325.863638 279.343715 
L 325.998126 278.980369 
L 326.132614 279.770167 
L 326.267103 278.184218 
L 326.401591 272.018249 
L 326.536079 252.723707 
L 326.805055 145.888462 
L 326.939544 169.483434 
L 327.074032 169.618012 
L 327.343008 157.598882 
L 327.477496 164.058877 
L 327.611985 159.344637 
L 327.746473 161.446596 
L 327.880961 177.566575 
L 328.015449 215.978947 
L 328.149937 222.032859 
L 328.418914 254.924311 
L 328.822379 270.8047 
L 328.956867 271.35209 
L 329.091355 284.880753 
L 329.225843 279.553566 
L 329.360331 279.891802 
L 329.49482 277.471451 
L 329.763796 253.736876 
L 330.032772 161.699474 
L 330.167261 171.127247 
L 330.301749 168.544602 
L 330.705214 153.92227 
L 330.97419 180.639408 
L 331.243166 197.551489 
L 331.646631 260.277283 
L 331.781119 262.703369 
L 331.915607 261.919892 
L 332.184584 269.719773 
L 332.319072 283.183738 
L 332.588049 276.39313 
L 332.722537 278.038602 
L 332.991513 252.171662 
L 333.26049 158.076465 
L 333.394978 173.087868 
L 333.529466 175.44165 
L 333.798442 161.418814 
L 333.932931 160.79669 
L 334.067419 163.999541 
L 334.470883 206.615431 
L 334.73986 256.361098 
L 335.008836 266.983257 
L 335.277813 274.477389 
L 335.412301 272.581227 
L 335.546789 272.565538 
L 335.681277 272.804709 
L 335.815766 272.53239 
L 336.084742 275.030585 
L 336.353718 262.689415 
L 336.488207 263.116965 
L 336.757183 256.278173 
L 336.891671 257.550882 
L 337.02616 256.187575 
L 337.295136 259.841581 
L 337.833089 269.090318 
L 337.967577 268.478631 
L 338.102065 272.002427 
L 338.236553 271.769679 
L 338.371042 270.520002 
L 338.50553 271.097677 
L 338.640018 267.963051 
L 338.908995 270.889657 
L 339.043483 270.702484 
L 339.312459 272.584597 
L 339.446947 270.897249 
L 339.715924 273.138505 
L 339.9849 271.612906 
L 340.119388 269.706261 
L 340.253877 271.104148 
L 340.388365 270.493114 
L 340.522853 273.051474 
L 340.657341 269.83254 
L 340.926318 271.888317 
L 341.060806 271.871597 
L 341.195294 267.648809 
L 341.464271 273.464469 
L 341.733247 270.976069 
L 341.867735 273.355407 
L 342.002223 284.249303 
L 342.136712 280.946407 
L 342.2712 281.444142 
L 342.405688 281.46363 
L 342.674664 257.781965 
L 342.943641 145.438709 
L 343.078129 146.017241 
L 343.347106 169.165451 
L 343.481594 166.999524 
L 343.75057 175.001112 
L 344.154035 210.74611 
L 344.423011 253.602665 
L 344.826476 268.655656 
L 344.960964 272.133137 
L 345.095452 272.216934 
L 345.22994 281.533903 
L 345.364429 279.201291 
L 345.498917 280.218322 
L 345.633405 279.091891 
L 345.767893 272.451095 
L 345.902382 257.024596 
L 346.171358 159.932654 
L 346.305846 181.557992 
L 346.574823 169.838118 
L 346.709311 164.627199 
L 346.978287 170.2816 
L 347.381752 216.103893 
L 347.785217 258.209448 
L 348.188681 270.366928 
L 348.323169 270.008295 
L 348.457658 283.889108 
L 348.592146 279.924388 
L 348.726634 282.228732 
L 348.861122 280.355374 
L 349.130099 253.285716 
L 349.399075 157.677513 
L 349.533563 178.093159 
L 349.668052 163.598999 
L 349.80254 164.115878 
L 349.937028 159.370381 
L 350.206004 167.429738 
L 350.474981 193.609704 
L 350.743957 233.799629 
L 351.147422 269.45479 
L 351.28191 267.673067 
L 351.550886 272.611919 
L 351.685375 286.362996 
L 351.819863 279.038839 
L 351.954351 279.729066 
L 352.088839 278.8399 
L 352.223328 274.793548 
L 352.357816 256.482966 
L 352.626792 154.685933 
L 352.76128 180.554425 
L 352.895769 167.960479 
L 353.030257 171.282095 
L 353.164745 161.504428 
L 353.299233 167.899954 
L 353.56821 161.167784 
L 353.702698 163.386557 
L 353.971674 235.239761 
L 354.240651 271.005722 
L 354.375139 272.372214 
L 354.509627 270.691479 
L 354.644115 272.992645 
L 354.913092 280.95266 
L 355.04758 279.33226 
L 355.182068 279.68253 
L 355.316556 278.988034 
L 355.451045 272.935787 
L 355.585533 251.602979 
L 355.854509 187.871734 
L 355.988998 186.427291 
L 356.257974 156.173806 
L 356.392462 157.695626 
L 356.661439 165.867766 
L 357.468368 274.022278 
L 357.602856 273.467163 
L 358.006321 281.643292 
L 358.140809 279.120853 
L 358.409785 279.641185 
L 358.544274 279.07904 
L 358.81325 275.624138 
L 359.082226 259.688105 
L 359.216715 256.53188 
L 359.351203 256.219348 
L 359.485691 253.98448 
L 359.620179 249.896812 
L 359.754667 261.733339 
L 359.889156 262.930544 
L 360.023644 261.660136 
L 360.427109 278.466981 
L 360.561597 276.006513 
L 360.696085 276.891331 
L 360.965061 279.311845 
L 361.09955 280.12284 
L 361.234038 279.752482 
L 361.368526 279.753032 
L 361.503014 279.409403 
L 361.637502 281.049993 
L 361.906479 277.580713 
L 362.175455 281.812877 
L 362.309944 281.275418 
L 362.444432 276.145641 
L 362.57892 276.095355 
L 362.713408 273.622976 
L 362.982385 277.83232 
L 363.251361 274.626291 
L 363.520337 277.768161 
L 363.654826 276.098093 
L 363.789314 276.3477 
L 364.192778 279.431222 
L 364.327267 228.869797 
L 364.461755 253.910255 
L 364.596243 255.11428 
L 364.730731 254.97564 
L 364.86522 259.139947 
L 364.999708 253.808632 
L 365.268684 197.866323 
L 365.537661 127.080275 
L 365.806637 99.106612 
L 366.075613 118.839651 
L 366.210102 114.966742 
L 366.34459 115.612997 
L 366.479078 123.6062 
L 366.613566 144.753088 
L 366.882543 239.327251 
L 367.151519 260.324487 
L 367.286007 258.203341 
L 367.420496 251.246138 
L 367.554984 265.794039 
L 367.689472 266.261871 
L 367.82396 264.427906 
L 368.092937 270.45188 
L 368.765378 105.314661 
L 368.899866 103.980402 
L 369.034354 100.379565 
L 369.303331 90.972881 
L 369.437819 87.41571 
L 369.572307 117.073252 
L 369.706795 105.70706 
L 369.975772 181.719635 
L 370.11026 238.113326 
L 370.244748 234.231575 
L 370.513724 255.837844 
L 370.648213 258.663568 
L 370.782701 291.677103 
L 370.917189 277.324586 
L 371.051677 277.011758 
L 371.186166 278.366002 
L 371.320654 277.015155 
L 371.58963 248.755214 
L 371.858607 153.010022 
L 371.993095 166.943579 
L 372.262071 211.031455 
L 372.396559 194.744145 
L 372.531048 198.840067 
L 372.800024 186.678144 
L 372.934512 196.79924 
L 373.069001 230.381127 
L 373.203489 228.543133 
L 373.472465 259.70628 
L 373.606953 259.99243 
L 373.87593 266.748831 
L 374.144906 290.670871 
L 374.279394 282.947988 
L 374.413883 285.220648 
L 374.548371 283.154092 
L 374.817347 254.500836 
L 375.086324 200.666754 
L 375.3553 173.03319 
L 375.489788 175.796429 
L 375.624277 173.146698 
L 376.027741 188.277096 
L 376.162229 202.319587 
L 376.296718 228.867578 
L 376.431206 230.26943 
L 376.700182 264.445719 
L 376.83467 264.805587 
L 376.969159 264.475639 
L 377.103647 267.37444 
L 377.238135 286.741153 
L 377.372623 274.749464 
L 377.507112 277.650979 
L 377.6416 277.618882 
L 377.776088 272.658968 
L 377.910576 281.202477 
L 378.045064 273.341 
L 378.179553 274.858269 
L 378.314041 263.705576 
L 378.448529 270.686627 
L 378.583017 260.116105 
L 378.717505 265.937325 
L 378.851994 264.892948 
L 378.986482 273.340981 
L 379.12097 264.595058 
L 379.255458 265.348291 
L 379.389947 264.0301 
L 379.524435 265.271896 
L 379.793411 274.687986 
L 379.927899 275.281442 
L 380.062388 278.126233 
L 380.196876 275.654447 
L 380.331364 277.926981 
L 380.465852 262.73095 
L 380.734829 271.133771 
L 380.869317 272.526993 
L 381.003805 272.133727 
L 381.138293 257.960812 
L 381.272782 258.793272 
L 381.541758 146.397724 
L 381.676246 151.338172 
L 381.945223 139.522512 
L 382.079711 140.247516 
L 382.348687 144.171843 
L 382.483175 136.820769 
L 383.021128 259.402547 
L 383.155616 269.768495 
L 383.290105 270.386278 
L 383.424593 267.436657 
L 383.559081 268.77724 
L 383.693569 260.834232 
L 383.962546 263.389252 
L 384.097034 264.020627 
L 384.231522 265.317001 
L 384.36601 261.033331 
L 384.500499 262.610939 
L 384.903963 159.411601 
L 385.038451 161.433518 
L 385.17294 136.374028 
L 385.307428 144.381387 
L 385.441916 171.645499 
L 385.576404 164.698366 
L 385.710893 165.791512 
L 385.845381 203.452222 
L 385.979869 204.918352 
L 386.383334 267.870542 
L 386.517822 265.918618 
L 386.65231 272.225669 
L 386.786798 268.773396 
L 386.921286 282.368113 
L 387.190263 275.245515 
L 387.324751 278.426971 
L 387.593727 274.520322 
L 387.728216 273.529812 
L 387.862704 276.294402 
L 387.997192 282.370291 
L 388.13168 278.698477 
L 388.266169 279.939586 
L 388.400657 274.836444 
L 388.669633 279.455604 
L 388.804121 272.113041 
L 388.93861 272.64171 
L 389.073098 266.156206 
L 389.476562 283.869848 
L 389.611051 286.761047 
L 389.745539 282.300408 
L 389.880027 284.775393 
L 390.014515 283.905666 
L 390.149004 255.129989 
L 390.283492 268.623466 
L 390.41798 268.353001 
L 390.552468 268.361783 
L 390.686956 267.994043 
L 390.821445 254.689688 
L 390.955933 256.327538 
L 391.090421 241.88656 
L 391.224909 184.5268 
L 391.359397 188.290087 
L 391.493886 152.182827 
L 391.762862 165.134972 
L 392.031839 175.08361 
L 392.166327 164.90392 
L 392.435303 196.322629 
L 392.838768 280.864103 
L 392.973256 271.665249 
L 393.107744 270.530035 
L 393.242232 270.831775 
L 393.376721 259.113213 
L 393.511209 261.697031 
L 393.645697 271.004791 
L 393.780185 269.378051 
L 393.914673 262.057 
L 394.049162 265.926917 
L 394.318138 211.174214 
L 394.587115 156.642247 
L 394.721603 153.733178 
L 394.856091 137.17558 
L 395.125067 141.99342 
L 395.259556 142.041466 
L 395.394044 164.401139 
L 395.528532 162.581855 
L 395.797508 216.69451 
L 396.066485 260.231449 
L 396.200973 261.874465 
L 396.335461 259.962264 
L 396.46995 249.880003 
L 396.604438 295.488 
L 396.738926 278.981835 
L 396.873414 281.0967 
L 397.007902 281.055318 
L 397.142391 282.837443 
L 397.411367 254.83534 
L 397.680343 177.6355 
L 397.814832 183.631408 
L 398.083808 162.404176 
L 398.218296 153.352759 
L 398.352785 168.73292 
L 398.487273 159.242952 
L 398.487273 159.242952 
" clip-path="url(#pc6d6cad35c)" style="fill: none; stroke: #ff7f0e; stroke-width: 1.5; stroke-linecap: square"/>
   </g>
   <g id="patch_3">
    <path d="M 57.6 307.584 
L 57.6 41.472 
" style="fill: none; stroke: #000000; stroke-width: 0.8; stroke-linejoin: miter; stroke-linecap: square"/>
   </g>
   <g id="patch_4">
    <path d="M 414.72 307.584 
L 414.72 41.472 
" style="fill: none; stroke: #000000; stroke-width: 0.8; stroke-linejoin: miter; stroke-linecap: square"/>
   </g>
   <g id="patch_5">
    <path d="M 57.6 307.584 
L 414.72 307.584 
" style="fill: none; stroke: #000000; stroke-width: 0.8; stroke-linejoin: miter; stroke-linecap: square"/>
   </g>
   <g id="patch_6">
    <path d="M 57.6 41.472 
L 414.72 41.472 
" style="fill: none; stroke: #000000; stroke-width: 0.8; stroke-linejoin: miter; stroke-linecap: square"/>
   </g>
  </g>
 </g>
 <defs>
  <clipPath id="pc6d6cad35c">
   <rect x="57.6" y="41.472" width="357.12" height="266.112"/>
  </clipPath>
 </defs>
</svg>
