<?xml version="1.0" encoding="utf-8" standalone="no"?>
<!DOCTYPE svg PUBLIC "-//W3C//DTD SVG 1.1//EN"
  "http://www.w3.org/Graphics/SVG/1.1/DTD/svg11.dtd">
<svg xmlns:xlink="http://www.w3.org/1999/xlink" width="460.8pt" height="345.6pt" viewBox="0 0 460.8 345.6" xmlns="http://www.w3.org/2000/svg" version="1.1">
 <metadata>
  <rdf:RDF xmlns:dc="http://purl.org/dc/elements/1.1/" xmlns:cc="http://creativecommons.org/ns#" xmlns:rdf="http://www.w3.org/1999/02/22-rdf-syntax-ns#">
   <cc:Work>
    <dc:type rdf:resource="http://purl.org/dc/dcmitype/StillImage"/>
    <dc:date>2023-04-04T04:18:05.125343</dc:date>
    <dc:format>image/svg+xml</dc:format>
    <dc:creator>
     <cc:Agent>
      <dc:title>Matplotlib v3.5.2, https://matplotlib.org/</dc:title>
     </cc:Agent>
    </dc:creator>
   </cc:Work>
  </rdf:RDF>
 </metadata>
 <defs>
  <style type="text/css">*{stroke-linejoin: round; stroke-linecap: butt}</style>
 </defs>
 <g id="figure_1">
  <g id="patch_1">
   <path d="M 0 345.6 
L 460.8 345.6 
L 460.8 0 
L 0 0 
z
" style="fill: #ffffff"/>
  </g>
  <g id="axes_1">
   <g id="patch_2">
    <path d="M 57.6 307.584 
L 414.72 307.584 
L 414.72 41.472 
L 57.6 41.472 
z
" style="fill: #ffffff"/>
   </g>
   <g id="matplotlib.axis_1">
    <g id="xtick_1">
     <g id="line2d_1">
      <defs>
       <path id="m0ab3cec98c" d="M 0 0 
L 0 3.5 
" style="stroke: #000000; stroke-width: 0.8"/>
      </defs>
      <g>
       <use xlink:href="#m0ab3cec98c" x="73.832727" y="307.584" style="stroke: #000000; stroke-width: 0.8"/>
      </g>
     </g>
     <g id="text_1">
      <!-- 0 -->
      <g transform="translate(70.651477 322.182437)scale(0.1 -0.1)">
       <defs>
        <path id="DejaVuSans-30" d="M 2034 4250 
Q 1547 4250 1301 3770 
Q 1056 3291 1056 2328 
Q 1056 1369 1301 889 
Q 1547 409 2034 409 
Q 2525 409 2770 889 
Q 3016 1369 3016 2328 
Q 3016 3291 2770 3770 
Q 2525 4250 2034 4250 
z
M 2034 4750 
Q 2819 4750 3233 4129 
Q 3647 3509 3647 2328 
Q 3647 1150 3233 529 
Q 2819 -91 2034 -91 
Q 1250 -91 836 529 
Q 422 1150 422 2328 
Q 422 3509 836 4129 
Q 1250 4750 2034 4750 
z
" transform="scale(0.015625)"/>
       </defs>
       <use xlink:href="#DejaVuSans-30"/>
      </g>
     </g>
    </g>
    <g id="xtick_2">
     <g id="line2d_2">
      <g>
       <use xlink:href="#m0ab3cec98c" x="141.076834" y="307.584" style="stroke: #000000; stroke-width: 0.8"/>
      </g>
     </g>
     <g id="text_2">
      <!-- 500 -->
      <g transform="translate(131.533084 322.182437)scale(0.1 -0.1)">
       <defs>
        <path id="DejaVuSans-35" d="M 691 4666 
L 3169 4666 
L 3169 4134 
L 1269 4134 
L 1269 2991 
Q 1406 3038 1543 3061 
Q 1681 3084 1819 3084 
Q 2600 3084 3056 2656 
Q 3513 2228 3513 1497 
Q 3513 744 3044 326 
Q 2575 -91 1722 -91 
Q 1428 -91 1123 -41 
Q 819 9 494 109 
L 494 744 
Q 775 591 1075 516 
Q 1375 441 1709 441 
Q 2250 441 2565 725 
Q 2881 1009 2881 1497 
Q 2881 1984 2565 2268 
Q 2250 2553 1709 2553 
Q 1456 2553 1204 2497 
Q 953 2441 691 2322 
L 691 4666 
z
" transform="scale(0.015625)"/>
       </defs>
       <use xlink:href="#DejaVuSans-35"/>
       <use xlink:href="#DejaVuSans-30" x="63.623047"/>
       <use xlink:href="#DejaVuSans-30" x="127.246094"/>
      </g>
     </g>
    </g>
    <g id="xtick_3">
     <g id="line2d_3">
      <g>
       <use xlink:href="#m0ab3cec98c" x="208.32094" y="307.584" style="stroke: #000000; stroke-width: 0.8"/>
      </g>
     </g>
     <g id="text_3">
      <!-- 1000 -->
      <g transform="translate(195.59594 322.182437)scale(0.1 -0.1)">
       <defs>
        <path id="DejaVuSans-31" d="M 794 531 
L 1825 531 
L 1825 4091 
L 703 3866 
L 703 4441 
L 1819 4666 
L 2450 4666 
L 2450 531 
L 3481 531 
L 3481 0 
L 794 0 
L 794 531 
z
" transform="scale(0.015625)"/>
       </defs>
       <use xlink:href="#DejaVuSans-31"/>
       <use xlink:href="#DejaVuSans-30" x="63.623047"/>
       <use xlink:href="#DejaVuSans-30" x="127.246094"/>
       <use xlink:href="#DejaVuSans-30" x="190.869141"/>
      </g>
     </g>
    </g>
    <g id="xtick_4">
     <g id="line2d_4">
      <g>
       <use xlink:href="#m0ab3cec98c" x="275.565046" y="307.584" style="stroke: #000000; stroke-width: 0.8"/>
      </g>
     </g>
     <g id="text_4">
      <!-- 1500 -->
      <g transform="translate(262.840046 322.182437)scale(0.1 -0.1)">
       <use xlink:href="#DejaVuSans-31"/>
       <use xlink:href="#DejaVuSans-35" x="63.623047"/>
       <use xlink:href="#DejaVuSans-30" x="127.246094"/>
       <use xlink:href="#DejaVuSans-30" x="190.869141"/>
      </g>
     </g>
    </g>
    <g id="xtick_5">
     <g id="line2d_5">
      <g>
       <use xlink:href="#m0ab3cec98c" x="342.809153" y="307.584" style="stroke: #000000; stroke-width: 0.8"/>
      </g>
     </g>
     <g id="text_5">
      <!-- 2000 -->
      <g transform="translate(330.084153 322.182437)scale(0.1 -0.1)">
       <defs>
        <path id="DejaVuSans-32" d="M 1228 531 
L 3431 531 
L 3431 0 
L 469 0 
L 469 531 
Q 828 903 1448 1529 
Q 2069 2156 2228 2338 
Q 2531 2678 2651 2914 
Q 2772 3150 2772 3378 
Q 2772 3750 2511 3984 
Q 2250 4219 1831 4219 
Q 1534 4219 1204 4116 
Q 875 4013 500 3803 
L 500 4441 
Q 881 4594 1212 4672 
Q 1544 4750 1819 4750 
Q 2544 4750 2975 4387 
Q 3406 4025 3406 3419 
Q 3406 3131 3298 2873 
Q 3191 2616 2906 2266 
Q 2828 2175 2409 1742 
Q 1991 1309 1228 531 
z
" transform="scale(0.015625)"/>
       </defs>
       <use xlink:href="#DejaVuSans-32"/>
       <use xlink:href="#DejaVuSans-30" x="63.623047"/>
       <use xlink:href="#DejaVuSans-30" x="127.246094"/>
       <use xlink:href="#DejaVuSans-30" x="190.869141"/>
      </g>
     </g>
    </g>
    <g id="xtick_6">
     <g id="line2d_6">
      <g>
       <use xlink:href="#m0ab3cec98c" x="410.053259" y="307.584" style="stroke: #000000; stroke-width: 0.8"/>
      </g>
     </g>
     <g id="text_6">
      <!-- 2500 -->
      <g transform="translate(397.328259 322.182437)scale(0.1 -0.1)">
       <use xlink:href="#DejaVuSans-32"/>
       <use xlink:href="#DejaVuSans-35" x="63.623047"/>
       <use xlink:href="#DejaVuSans-30" x="127.246094"/>
       <use xlink:href="#DejaVuSans-30" x="190.869141"/>
      </g>
     </g>
    </g>
   </g>
   <g id="matplotlib.axis_2">
    <g id="ytick_1">
     <g id="line2d_7">
      <defs>
       <path id="mefd208ffe4" d="M 0 0 
L -3.5 0 
" style="stroke: #000000; stroke-width: 0.8"/>
      </defs>
      <g>
       <use xlink:href="#mefd208ffe4" x="57.6" y="274.769488" style="stroke: #000000; stroke-width: 0.8"/>
      </g>
     </g>
     <g id="text_7">
      <!-- 100 -->
      <g transform="translate(31.5125 278.568707)scale(0.1 -0.1)">
       <use xlink:href="#DejaVuSans-31"/>
       <use xlink:href="#DejaVuSans-30" x="63.623047"/>
       <use xlink:href="#DejaVuSans-30" x="127.246094"/>
      </g>
     </g>
    </g>
    <g id="ytick_2">
     <g id="line2d_8">
      <g>
       <use xlink:href="#mefd208ffe4" x="57.6" y="228.159443" style="stroke: #000000; stroke-width: 0.8"/>
      </g>
     </g>
     <g id="text_8">
      <!-- 200 -->
      <g transform="translate(31.5125 231.958661)scale(0.1 -0.1)">
       <use xlink:href="#DejaVuSans-32"/>
       <use xlink:href="#DejaVuSans-30" x="63.623047"/>
       <use xlink:href="#DejaVuSans-30" x="127.246094"/>
      </g>
     </g>
    </g>
    <g id="ytick_3">
     <g id="line2d_9">
      <g>
       <use xlink:href="#mefd208ffe4" x="57.6" y="181.549397" style="stroke: #000000; stroke-width: 0.8"/>
      </g>
     </g>
     <g id="text_9">
      <!-- 300 -->
      <g transform="translate(31.5125 185.348616)scale(0.1 -0.1)">
       <defs>
        <path id="DejaVuSans-33" d="M 2597 2516 
Q 3050 2419 3304 2112 
Q 3559 1806 3559 1356 
Q 3559 666 3084 287 
Q 2609 -91 1734 -91 
Q 1441 -91 1130 -33 
Q 819 25 488 141 
L 488 750 
Q 750 597 1062 519 
Q 1375 441 1716 441 
Q 2309 441 2620 675 
Q 2931 909 2931 1356 
Q 2931 1769 2642 2001 
Q 2353 2234 1838 2234 
L 1294 2234 
L 1294 2753 
L 1863 2753 
Q 2328 2753 2575 2939 
Q 2822 3125 2822 3475 
Q 2822 3834 2567 4026 
Q 2313 4219 1838 4219 
Q 1578 4219 1281 4162 
Q 984 4106 628 3988 
L 628 4550 
Q 988 4650 1302 4700 
Q 1616 4750 1894 4750 
Q 2613 4750 3031 4423 
Q 3450 4097 3450 3541 
Q 3450 3153 3228 2886 
Q 3006 2619 2597 2516 
z
" transform="scale(0.015625)"/>
       </defs>
       <use xlink:href="#DejaVuSans-33"/>
       <use xlink:href="#DejaVuSans-30" x="63.623047"/>
       <use xlink:href="#DejaVuSans-30" x="127.246094"/>
      </g>
     </g>
    </g>
    <g id="ytick_4">
     <g id="line2d_10">
      <g>
       <use xlink:href="#mefd208ffe4" x="57.6" y="134.939351" style="stroke: #000000; stroke-width: 0.8"/>
      </g>
     </g>
     <g id="text_10">
      <!-- 400 -->
      <g transform="translate(31.5125 138.73857)scale(0.1 -0.1)">
       <defs>
        <path id="DejaVuSans-34" d="M 2419 4116 
L 825 1625 
L 2419 1625 
L 2419 4116 
z
M 2253 4666 
L 3047 4666 
L 3047 1625 
L 3713 1625 
L 3713 1100 
L 3047 1100 
L 3047 0 
L 2419 0 
L 2419 1100 
L 313 1100 
L 313 1709 
L 2253 4666 
z
" transform="scale(0.015625)"/>
       </defs>
       <use xlink:href="#DejaVuSans-34"/>
       <use xlink:href="#DejaVuSans-30" x="63.623047"/>
       <use xlink:href="#DejaVuSans-30" x="127.246094"/>
      </g>
     </g>
    </g>
    <g id="ytick_5">
     <g id="line2d_11">
      <g>
       <use xlink:href="#mefd208ffe4" x="57.6" y="88.329306" style="stroke: #000000; stroke-width: 0.8"/>
      </g>
     </g>
     <g id="text_11">
      <!-- 500 -->
      <g transform="translate(31.5125 92.128525)scale(0.1 -0.1)">
       <use xlink:href="#DejaVuSans-35"/>
       <use xlink:href="#DejaVuSans-30" x="63.623047"/>
       <use xlink:href="#DejaVuSans-30" x="127.246094"/>
      </g>
     </g>
    </g>
    <g id="ytick_6">
     <g id="line2d_12">
      <g>
       <use xlink:href="#mefd208ffe4" x="57.6" y="41.71926" style="stroke: #000000; stroke-width: 0.8"/>
      </g>
     </g>
     <g id="text_12">
      <!-- 600 -->
      <g transform="translate(31.5125 45.518479)scale(0.1 -0.1)">
       <defs>
        <path id="DejaVuSans-36" d="M 2113 2584 
Q 1688 2584 1439 2293 
Q 1191 2003 1191 1497 
Q 1191 994 1439 701 
Q 1688 409 2113 409 
Q 2538 409 2786 701 
Q 3034 994 3034 1497 
Q 3034 2003 2786 2293 
Q 2538 2584 2113 2584 
z
M 3366 4563 
L 3366 3988 
Q 3128 4100 2886 4159 
Q 2644 4219 2406 4219 
Q 1781 4219 1451 3797 
Q 1122 3375 1075 2522 
Q 1259 2794 1537 2939 
Q 1816 3084 2150 3084 
Q 2853 3084 3261 2657 
Q 3669 2231 3669 1497 
Q 3669 778 3244 343 
Q 2819 -91 2113 -91 
Q 1303 -91 875 529 
Q 447 1150 447 2328 
Q 447 3434 972 4092 
Q 1497 4750 2381 4750 
Q 2619 4750 2861 4703 
Q 3103 4656 3366 4563 
z
" transform="scale(0.015625)"/>
       </defs>
       <use xlink:href="#DejaVuSans-36"/>
       <use xlink:href="#DejaVuSans-30" x="63.623047"/>
       <use xlink:href="#DejaVuSans-30" x="127.246094"/>
      </g>
     </g>
    </g>
   </g>
   <g id="line2d_13">
    <path d="M 73.832727 277.763718 
L 74.101704 277.228168 
L 74.236192 276.145417 
L 74.37068 277.085075 
L 74.505168 276.604992 
L 74.639657 277.191812 
L 74.774145 270.882676 
L 74.908633 244.448255 
L 75.177609 242.992624 
L 75.312098 243.534232 
L 75.446586 243.585503 
L 75.581074 244.430543 
L 75.715562 243.693172 
L 75.85005 243.671732 
L 76.253515 238.811236 
L 76.522492 272.015767 
L 76.65698 272.321062 
L 76.925956 270.657084 
L 77.060444 262.023039 
L 77.194933 264.210448 
L 77.463909 264.27244 
L 77.598397 265.817097 
L 77.732885 260.624272 
L 77.867374 247.55295 
L 78.405327 102.842276 
L 78.674303 101.943634 
L 78.808791 108.90298 
L 78.943279 104.220535 
L 79.481232 155.598788 
L 79.750209 224.212038 
L 80.019185 258.063982 
L 80.153673 260.134866 
L 80.288161 256.396274 
L 80.42265 266.531629 
L 80.557138 266.107943 
L 80.826114 268.55264 
L 80.960603 266.076249 
L 81.095091 256.021063 
L 81.364067 165.530923 
L 81.498555 177.523221 
L 81.767532 158.605136 
L 82.036508 166.407192 
L 82.170996 163.384064 
L 82.305485 157.559207 
L 83.112414 255.554963 
L 83.650367 281.081887 
L 83.784855 281.101929 
L 83.919343 282.592052 
L 84.053831 282.779425 
L 84.18832 280.735108 
L 84.322808 273.691864 
L 84.726273 185.821208 
L 84.860761 177.373603 
L 84.995249 181.367152 
L 85.129737 166.858843 
L 85.264225 175.186194 
L 85.398714 175.914709 
L 85.66769 184.002484 
L 85.802178 192.552164 
L 86.340131 257.627246 
L 86.474619 259.589529 
L 86.609107 264.37638 
L 86.878084 281.454301 
L 87.012572 283.648702 
L 87.14706 283.330355 
L 87.281549 284.783656 
L 87.416037 284.689038 
L 87.550525 283.898066 
L 87.819501 257.085637 
L 87.95399 257.227798 
L 88.088478 251.684465 
L 88.222966 253.107469 
L 88.357454 252.3687 
L 88.491942 249.094811 
L 88.626431 251.85832 
L 88.760919 245.040203 
L 88.895407 247.845195 
L 89.029895 247.843797 
L 89.164384 250.340231 
L 89.43336 271.105472 
L 89.567848 272.727036 
L 89.702336 272.241359 
L 89.836825 273.274704 
L 89.971313 258.506311 
L 90.105801 259.201733 
L 90.240289 260.707237 
L 90.374777 260.482577 
L 90.509266 261.687447 
L 90.643754 261.854777 
L 90.778242 263.901424 
L 90.91273 260.759441 
L 91.047218 251.070611 
L 91.181707 249.92913 
L 91.316195 243.172072 
L 91.450683 247.495154 
L 91.585171 245.578549 
L 91.71966 247.039308 
L 91.854148 247.259773 
L 92.123124 250.167774 
L 92.257612 249.609386 
L 92.526589 255.064159 
L 92.795565 261.495879 
L 92.930053 262.427148 
L 93.064542 261.315032 
L 93.19903 271.082634 
L 93.468006 271.204286 
L 93.602495 272.238563 
L 93.736983 271.035091 
L 93.871471 268.574547 
L 94.005959 263.48473 
L 94.6784 158.885262 
L 94.812888 154.596206 
L 95.081865 166.164353 
L 95.216353 161.075935 
L 95.350841 150.086218 
L 96.023282 259.908341 
L 96.157771 260.620077 
L 96.426747 264.451422 
L 96.561235 264.126084 
L 96.695723 264.201593 
L 96.830212 266.038494 
L 96.9647 265.41625 
L 97.099188 264.023542 
L 97.233676 255.761912 
L 97.368164 238.626194 
L 97.502653 198.601682 
L 97.637141 191.678226 
L 97.771629 176.581698 
L 97.906117 184.773414 
L 98.040606 178.223304 
L 98.175094 178.915929 
L 98.309582 173.725901 
L 98.44407 175.328354 
L 98.713047 186.421545 
L 98.982023 227.349826 
L 99.250999 261.354185 
L 99.385488 265.927096 
L 99.519976 266.663069 
L 99.654464 276.230713 
L 99.788952 276.242832 
L 99.923441 275.265885 
L 100.192417 276.474018 
L 100.326905 276.552789 
L 100.461393 275.913765 
L 100.595882 276.30995 
L 100.73037 277.118634 
L 100.864858 275.617325 
L 100.999346 276.745288 
L 101.133834 275.859231 
L 101.268323 273.697457 
L 101.402811 266.842052 
L 101.537299 271.010854 
L 101.806276 260.875966 
L 101.940764 262.984604 
L 102.075252 262.839647 
L 102.20974 263.472145 
L 102.344228 265.793326 
L 102.478717 271.470895 
L 102.613205 269.663358 
L 102.747693 275.196436 
L 102.882181 262.064056 
L 103.016669 262.092022 
L 103.151158 266.879806 
L 103.285646 266.665866 
L 103.554622 262.586088 
L 103.68911 258.498853 
L 103.823599 241.494111 
L 104.092575 180.730459 
L 104.227063 159.766192 
L 104.361552 166.757699 
L 104.630528 142.48412 
L 105.033993 157.431495 
L 105.168481 167.950916 
L 105.706434 249.008116 
L 105.840922 248.888794 
L 105.97541 257.377416 
L 106.109898 273.41267 
L 106.378875 276.524822 
L 106.513363 276.511306 
L 106.647851 278.616215 
L 106.782339 278.354267 
L 106.916828 279.438883 
L 107.320292 242.774955 
L 107.45478 249.668114 
L 107.589269 247.195451 
L 107.723757 247.285875 
L 108.26171 242.34521 
L 108.396198 239.020515 
L 108.530686 241.225637 
L 108.934151 272.071699 
L 109.068639 273.550169 
L 109.203127 272.508901 
L 109.337615 268.121963 
L 109.606592 269.633061 
L 109.875568 270.65988 
L 110.144545 271.683437 
L 110.413521 270.475771 
L 110.548009 270.34433 
L 110.951474 266.393197 
L 111.085962 267.53794 
L 111.22045 267.199085 
L 111.623915 261.545286 
L 111.758403 262.040751 
L 112.02738 265.72947 
L 112.430844 267.287644 
L 112.565333 257.298645 
L 112.834309 261.394736 
L 112.968797 261.905116 
L 113.103285 263.376595 
L 113.237774 263.55045 
L 113.50675 266.101884 
L 113.641238 266.911034 
L 114.313679 255.961869 
L 114.448168 255.609963 
L 114.582656 254.165518 
L 114.98612 243.610673 
L 115.524073 254.390644 
L 115.658561 254.92666 
L 115.927538 257.095425 
L 116.062026 255.844411 
L 116.196514 261.785328 
L 116.331002 261.378888 
L 116.465491 261.974098 
L 116.599979 252.469844 
L 117.137932 78.461493 
L 117.406908 64.144285 
L 117.810373 80.250853 
L 118.213837 145.692755 
L 118.482814 206.400475 
L 118.75179 239.931742 
L 118.886279 241.425594 
L 119.289743 249.210404 
L 119.424231 250.591459 
L 119.55872 253.290181 
L 119.693208 253.598739 
L 119.827696 244.234315 
L 120.365649 90.982816 
L 120.634625 72.901847 
L 120.769114 76.49688 
L 120.903602 70.245074 
L 121.03809 71.538503 
L 121.441555 133.312661 
L 121.710531 198.397996 
L 121.845019 225.841991 
L 122.248484 236.520353 
L 122.51746 251.630863 
L 122.651948 251.786075 
L 122.786437 253.479418 
L 122.920925 252.17387 
L 123.055413 244.226391 
L 123.727854 60.291033 
L 123.862342 53.568 
L 124.534783 106.285826 
L 125.072736 243.545885 
L 125.207225 248.581634 
L 125.341713 249.032819 
L 125.476201 248.987608 
L 125.745177 262.231852 
L 125.879666 263.631086 
L 126.014154 263.854814 
L 126.28313 250.75506 
L 126.821083 92.059508 
L 126.955571 74.187818 
L 127.09006 80.613479 
L 127.359036 104.509983 
L 127.493524 106.88896 
L 127.762501 124.90281 
L 127.896989 147.1097 
L 128.300453 241.970465 
L 128.434942 247.621001 
L 128.56943 245.841429 
L 128.703918 253.146622 
L 128.838406 253.851832 
L 129.241871 260.370247 
L 129.510847 240.200216 
L 130.0488 82.730507 
L 130.183288 73.859683 
L 130.317777 85.466983 
L 130.452265 113.538349 
L 130.586753 112.643902 
L 130.721241 109.091751 
L 130.855729 115.315124 
L 131.124706 167.197698 
L 131.393682 231.129435 
L 131.662659 253.627638 
L 131.931635 253.436536 
L 132.066123 253.258952 
L 132.3351 264.23655 
L 132.469588 264.092059 
L 132.604076 264.188542 
L 132.738564 264.147991 
L 133.007541 252.567259 
L 133.276517 242.380634 
L 133.679982 236.948233 
L 133.81447 235.796965 
L 133.948958 230.83113 
L 134.486911 240.450046 
L 134.755888 247.351595 
L 134.890376 247.239731 
L 135.697305 261.109948 
L 135.831793 265.735995 
L 135.966282 266.329341 
L 136.10077 264.398753 
L 136.235258 265.862775 
L 136.369746 265.595699 
L 136.504234 261.408719 
L 136.638723 261.253973 
L 136.907699 259.369995 
L 137.311164 248.772269 
L 137.445652 249.268666 
L 137.58014 246.656639 
L 137.983605 253.291113 
L 138.118093 252.41298 
L 138.252581 254.199543 
L 138.387069 258.57343 
L 138.521558 257.372755 
L 138.656046 257.568517 
L 138.925022 262.140496 
L 139.193999 246.323377 
L 139.731951 80.9253 
L 139.86644 72.242315 
L 140.269904 97.569747 
L 140.538881 121.356252 
L 140.673369 128.261064 
L 140.807857 142.244544 
L 141.076834 220.252981 
L 141.480298 252.57192 
L 142.018251 260.789271 
L 142.152739 260.33762 
L 142.421716 237.223698 
L 142.959669 90.661673 
L 143.094157 83.439912 
L 143.228645 82.964956 
L 143.363133 92.922726 
L 143.497621 83.891563 
L 143.63211 88.883965 
L 144.573527 253.787044 
L 144.708015 257.185382 
L 144.842504 257.356441 
L 145.11148 259.540122 
L 145.245968 261.62732 
L 145.380456 257.656144 
L 145.783921 198.089904 
L 146.052897 108.796709 
L 146.187386 90.175996 
L 146.456362 105.08888 
L 146.59085 116.114952 
L 146.725339 110.573018 
L 146.859827 117.79338 
L 146.994315 112.84852 
L 147.128803 125.37264 
L 147.532268 229.847658 
L 147.801244 255.18721 
L 147.935732 255.38437 
L 148.204709 260.519865 
L 148.339197 260.498891 
L 148.473685 260.989694 
L 148.742662 259.963341 
L 148.87715 242.729277 
L 149.280615 117.661008 
L 149.415103 113.724323 
L 149.549591 104.872143 
L 149.684079 106.096123 
L 150.087544 137.980657 
L 150.222032 130.482499 
L 150.35652 135.863163 
L 150.894473 247.799051 
L 151.028961 256.73979 
L 151.16345 255.806191 
L 151.835891 263.775577 
L 151.970379 262.535283 
L 152.104867 242.113558 
L 152.508332 111.802591 
L 152.64282 114.833176 
L 152.911796 103.27808 
L 153.046285 117.07139 
L 153.180773 115.608301 
L 153.449749 149.214144 
L 153.718726 189.130987 
L 153.987702 244.331264 
L 154.12219 260.953338 
L 154.256678 262.297572 
L 154.525655 266.062732 
L 154.794631 267.723914 
L 155.063608 270.594626 
L 155.198096 272.195215 
L 155.332584 271.567844 
L 155.467072 267.296966 
L 155.601561 257.084239 
L 155.736049 256.244792 
L 155.870537 253.451452 
L 156.005025 255.536785 
L 156.274002 253.687298 
L 156.40849 254.210263 
L 156.542978 255.432379 
L 156.677466 254.265729 
L 157.215419 262.073844 
L 157.349907 264.029601 
L 157.484396 263.062443 
L 157.618884 263.813331 
L 157.88786 266.909636 
L 158.022348 267.378533 
L 158.291325 270.302381 
L 158.560301 274.476311 
L 158.694789 272.949366 
L 158.829278 273.889491 
L 158.963766 273.503093 
L 159.232742 270.857041 
L 159.367231 271.13204 
L 159.501719 269.198189 
L 160.039672 255.468268 
L 160.308648 255.720895 
L 160.443136 261.296388 
L 160.577624 261.019991 
L 160.712113 259.11364 
L 160.846601 259.797875 
L 160.981089 261.252575 
L 161.250066 264.915192 
L 161.519042 265.842732 
L 161.788018 249.499386 
L 162.460459 83.145803 
L 162.594948 82.817668 
L 162.729436 81.395129 
L 162.998412 100.494528 
L 163.132901 109.215267 
L 163.401877 149.446262 
L 163.670853 218.40163 
L 164.074318 251.63599 
L 164.208806 252.740648 
L 164.477783 265.078328 
L 164.612271 267.380398 
L 164.746759 262.7963 
L 165.015735 245.726769 
L 165.4192 119.233164 
L 165.553688 121.766886 
L 165.822665 108.223406 
L 165.957153 113.346782 
L 166.091641 110.339502 
L 166.360618 99.173599 
L 166.495106 105.211464 
L 166.89857 217.524895 
L 167.033059 224.321105 
L 167.302035 242.247795 
L 167.974476 260.247196 
L 168.108964 254.716448 
L 168.243453 241.057374 
L 168.377941 203.939931 
L 168.646917 105.041804 
L 168.781405 106.292351 
L 168.915894 101.880711 
L 169.050382 103.148038 
L 169.18487 106.847943 
L 169.319358 91.906627 
L 169.453847 94.322426 
L 169.857311 146.352753 
L 170.126288 222.579288 
L 170.395264 252.618064 
L 170.529752 253.475689 
L 170.66424 256.826019 
L 170.798729 257.010595 
L 171.067705 259.279106 
L 171.202193 262.042149 
L 171.47117 240.803816 
L 172.009123 109.001793 
L 172.143611 107.46506 
L 172.412587 96.004116 
L 172.95054 127.685896 
L 173.622981 254.537932 
L 173.757469 258.426608 
L 173.891958 271.469497 
L 174.026446 270.563864 
L 174.160934 270.520983 
L 174.42991 272.013436 
L 174.698887 257.595085 
L 174.833375 240.902629 
L 175.102351 174.107171 
L 175.371328 141.573825 
L 175.505816 138.746926 
L 175.640304 148.65762 
L 175.774792 148.355121 
L 175.909281 149.728719 
L 176.043769 154.414893 
L 176.178257 154.114724 
L 176.312745 168.225449 
L 176.581722 234.191249 
L 176.850698 260.638255 
L 176.985186 258.206608 
L 177.254163 262.822867 
L 177.388651 262.780452 
L 177.792116 269.175351 
L 177.926604 270.043696 
L 178.19558 259.595122 
L 178.330069 259.165843 
L 178.599045 251.787473 
L 178.733533 251.236076 
L 178.868021 253.486875 
L 179.136998 250.063834 
L 179.271486 250.645061 
L 179.540462 248.220872 
L 179.809439 255.541446 
L 179.943927 262.632232 
L 180.212904 260.777619 
L 180.48188 270.401661 
L 180.616368 270.415178 
L 180.750856 270.77827 
L 180.885345 271.589285 
L 181.019833 271.673649 
L 181.692274 259.665969 
L 181.826762 260.930033 
L 181.96125 255.093057 
L 182.095738 256.831612 
L 182.364715 262.136768 
L 182.499203 263.383586 
L 182.633691 266.454256 
L 182.902668 265.656292 
L 183.171644 271.637293 
L 183.306132 273.018815 
L 183.440621 271.936064 
L 183.575109 269.690392 
L 183.844085 281.136887 
L 183.978573 282.064893 
L 184.113062 279.841593 
L 184.382038 268.733487 
L 184.919991 179.242666 
L 185.054479 183.16024 
L 185.188967 176.260089 
L 185.457944 180.026181 
L 185.592432 181.488804 
L 185.995897 218.322859 
L 186.264873 248.173796 
L 186.53385 263.546255 
L 186.802826 273.550169 
L 187.071802 283.791329 
L 187.206291 282.668959 
L 187.340779 283.775481 
L 187.475267 280.675447 
L 187.609755 272.871993 
L 188.01322 198.812826 
L 188.147708 182.812995 
L 188.282196 183.026469 
L 188.416684 182.091472 
L 188.551173 185.322946 
L 188.685661 191.568692 
L 188.820149 187.264255 
L 188.954637 191.591531 
L 189.089126 199.760408 
L 189.627078 260.253256 
L 189.761567 262.779054 
L 189.896055 267.887515 
L 190.030543 265.510869 
L 190.299519 267.297898 
L 190.434008 266.15502 
L 190.971961 269.496494 
L 191.106449 266.127986 
L 191.240937 265.654428 
L 191.375425 266.082308 
L 191.509913 261.761091 
L 191.644402 263.272654 
L 191.913378 262.037488 
L 192.182354 256.537969 
L 192.316843 256.878222 
L 192.451331 256.392079 
L 192.585819 257.680847 
L 192.720307 263.310875 
L 192.989284 264.538117 
L 193.392748 261.915836 
L 193.661725 264.728286 
L 193.796213 265.249852 
L 194.065189 257.553602 
L 194.603142 156.314252 
L 194.73763 151.521341 
L 194.872119 141.810138 
L 195.006607 143.347804 
L 195.141095 147.977113 
L 195.275583 140.757217 
L 195.54456 153.82714 
L 195.948024 245.582278 
L 196.217001 255.669158 
L 196.351489 257.549407 
L 196.485977 266.794043 
L 196.620465 266.15735 
L 196.889442 266.700823 
L 197.02393 267.802219 
L 197.158418 266.114003 
L 197.292907 259.944697 
L 197.830859 192.883096 
L 197.965348 195.139022 
L 198.099836 191.901022 
L 198.234324 196.198934 
L 198.5033 183.194266 
L 198.772277 196.662238 
L 199.31023 267.454042 
L 199.713694 276.347238 
L 199.848183 275.20669 
L 200.117159 275.917027 
L 200.251647 274.176608 
L 200.386135 268.536793 
L 200.520624 268.143404 
L 200.655112 255.497167 
L 200.7896 209.410552 
L 200.924088 207.487887 
L 201.058576 196.085206 
L 201.193065 195.735631 
L 201.327553 193.115214 
L 201.462041 195.235505 
L 201.731018 183.719561 
L 201.865506 185.047947 
L 202.134482 207.197041 
L 202.403459 259.383046 
L 202.806923 268.946029 
L 203.0759 260.678339 
L 203.210388 264.901209 
L 203.344876 265.02426 
L 203.748341 255.87331 
L 203.882829 238.904456 
L 204.151805 178.434448 
L 204.420782 162.358643 
L 204.55527 156.865183 
L 204.689758 160.219242 
L 204.824246 153.876081 
L 204.958735 169.514217 
L 205.093223 169.754725 
L 205.765664 255.306531 
L 205.900152 255.805259 
L 206.03464 259.51402 
L 206.169129 274.006016 
L 206.303617 274.475379 
L 206.572593 278.319309 
L 206.84157 279.111214 
L 207.110546 269.948611 
L 207.379522 260.986432 
L 207.514011 260.129739 
L 207.917475 268.052515 
L 208.051964 267.812007 
L 208.32094 261.604015 
L 208.589916 263.167316 
L 208.858893 271.025303 
L 208.993381 274.590972 
L 209.127869 275.160546 
L 209.262357 274.629658 
L 209.396846 268.915733 
L 209.531334 269.986831 
L 209.80031 269.58179 
L 209.934799 270.548949 
L 210.203775 258.66059 
L 211.010704 107.263705 
L 211.279681 132.269994 
L 211.683145 164.575417 
L 212.221098 250.109045 
L 212.355586 252.513658 
L 212.759051 267.388321 
L 212.893539 267.186034 
L 213.028027 267.283915 
L 213.162516 269.869374 
L 213.431492 252.590564 
L 213.56598 215.42418 
L 213.834957 133.518211 
L 213.969445 137.993708 
L 214.103933 136.928668 
L 214.238421 139.818957 
L 214.910862 177.221654 
L 215.448815 255.593183 
L 215.583303 260.440628 
L 215.717792 261.043762 
L 216.121256 265.204641 
L 216.255745 266.139172 
L 216.390233 268.472937 
L 216.524721 264.560024 
L 216.659209 257.22034 
L 217.062674 146.83004 
L 217.197162 148.696773 
L 217.33165 148.775543 
L 217.466138 159.96848 
L 217.600627 158.715136 
L 217.735115 147.141395 
L 217.869603 152.247992 
L 218.273068 193.438687 
L 218.542044 250.864594 
L 218.811021 267.264805 
L 218.945509 260.021604 
L 219.483462 270.487889 
L 219.61795 272.24369 
L 219.886926 258.818598 
L 220.290391 159.636616 
L 220.693856 148.252113 
L 220.828344 158.663865 
L 220.962832 154.835782 
L 221.231808 181.347576 
L 221.500785 194.885463 
L 221.769761 250.731289 
L 222.038738 265.994681 
L 222.173226 265.259641 
L 222.307714 266.455654 
L 222.576691 272.363478 
L 222.845667 274.940081 
L 222.980155 273.307331 
L 223.114643 275.136309 
L 223.38362 255.069752 
L 223.518108 258.843302 
L 223.652596 258.690421 
L 223.921573 251.892812 
L 224.190549 251.236076 
L 224.325037 253.66679 
L 224.459525 253.052936 
L 224.728502 249.284047 
L 225.131967 256.38369 
L 225.266455 254.932253 
L 225.535431 256.370173 
L 225.669919 255.08793 
L 226.073384 264.628541 
L 226.34236 267.589211 
L 226.476849 267.518829 
L 226.745825 264.444897 
L 226.880313 266.67612 
L 227.014802 266.913831 
L 227.14929 266.623451 
L 227.283778 265.235869 
L 227.418266 266.875145 
L 227.552754 267.000992 
L 227.687243 266.835526 
L 227.956219 265.751377 
L 228.090707 271.437802 
L 228.225195 271.476022 
L 228.359684 272.553181 
L 228.494172 271.797632 
L 228.62866 272.747078 
L 228.763148 272.635214 
L 228.897637 270.397932 
L 229.301101 271.281658 
L 229.435589 265.206039 
L 229.570078 251.435567 
L 230.242519 93.587385 
L 230.377007 79.080008 
L 230.511495 108.393998 
L 230.780471 116.168554 
L 231.049448 143.027593 
L 231.587401 249.325064 
L 231.856377 260.298933 
L 232.125354 265.006548 
L 232.39433 269.559883 
L 232.528818 268.76425 
L 232.797795 252.040099 
L 232.932283 216.574982 
L 233.201259 131.352708 
L 233.335748 123.35862 
L 233.470236 133.426389 
L 233.604724 133.643592 
L 233.739212 146.151398 
L 233.8737 131.741902 
L 234.008189 138.315317 
L 234.815118 259.730291 
L 234.949606 259.469741 
L 235.218583 265.242395 
L 235.622047 272.808137 
L 235.756535 272.223647 
L 236.025512 259.84868 
L 236.563465 127.289711 
L 236.832441 115.349615 
L 237.63937 197.18194 
L 237.908347 253.962764 
L 238.177323 261.871556 
L 238.849764 276.457704 
L 238.984252 275.65135 
L 239.118741 271.937462 
L 239.253229 258.346439 
L 239.791182 126.536959 
L 240.194646 143.877294 
L 240.463623 162.578176 
L 240.732599 175.73526 
L 241.270552 251.487304 
L 241.674017 257.231992 
L 241.942993 269.887086 
L 242.077481 276.2419 
L 242.21197 275.62991 
L 242.480946 258.062117 
L 242.884411 148.810501 
L 243.018899 156.507218 
L 243.153387 154.310486 
L 243.287875 143.576659 
L 243.422363 151.379647 
L 243.556852 148.630586 
L 243.825828 164.900289 
L 244.229293 235.285652 
L 244.498269 257.172798 
L 244.767246 262.328335 
L 245.17071 270.010603 
L 245.305198 270.856109 
L 245.439687 270.567126 
L 245.574175 269.365986 
L 245.708663 258.166524 
L 245.843151 263.492654 
L 246.112128 260.577661 
L 246.381104 255.514878 
L 246.515592 255.482251 
L 247.188033 265.494555 
L 247.322522 265.890741 
L 247.45701 266.738111 
L 247.591498 266.391799 
L 247.725986 269.483443 
L 247.860475 268.07815 
L 248.129451 269.371579 
L 248.263939 268.508361 
L 248.398427 269.175351 
L 248.532916 269.025732 
L 248.667404 270.92649 
L 248.801892 270.830007 
L 249.205357 272.333647 
L 249.339845 272.447376 
L 249.608821 271.520768 
L 249.743309 271.649412 
L 250.012286 270.796914 
L 250.146774 269.80412 
L 250.281262 269.870772 
L 250.415751 269.32124 
L 250.550239 268.263192 
L 250.819215 268.556369 
L 250.953703 269.317045 
L 251.088192 268.20726 
L 251.357168 269.435901 
L 251.491656 278.127742 
L 251.626144 277.649523 
L 251.760633 278.069946 
L 251.895121 277.913802 
L 252.164097 265.954596 
L 252.70205 141.512766 
L 252.836538 160.787418 
L 252.971027 157.423571 
L 253.240003 170.031123 
L 253.374491 171.352517 
L 253.508979 168.495322 
L 253.777956 200.54905 
L 254.046932 250.707518 
L 254.315909 271.536149 
L 254.719373 279.69617 
L 254.853862 279.461721 
L 255.122838 281.154598 
L 255.391814 260.874567 
L 255.660791 169.826504 
L 255.795279 173.193148 
L 256.198744 157.886875 
L 256.333232 161.47445 
L 256.46772 158.872212 
L 256.602208 160.040259 
L 257.409138 252.896792 
L 257.812602 260.193595 
L 258.081579 275.044487 
L 258.216067 276.083425 
L 258.350555 275.371224 
L 258.619532 261.532235 
L 258.888508 174.518272 
L 259.022996 175.367041 
L 259.157484 166.526047 
L 259.291973 165.96393 
L 259.426461 150.841767 
L 259.695437 164.22118 
L 259.829925 153.350319 
L 259.964414 162.210889 
L 260.771343 255.895216 
L 261.040319 258.081227 
L 261.309296 265.404598 
L 261.443784 268.543318 
L 261.71276 265.697309 
L 261.847249 253.596409 
L 262.116225 167.502994 
L 262.250713 171.572517 
L 262.654178 145.762204 
L 262.788666 152.891677 
L 262.923154 148.233469 
L 263.326619 182.558505 
L 263.461107 193.200976 
L 263.864572 240.832714 
L 264.268036 258.45271 
L 264.402525 257.713008 
L 264.671501 261.062406 
L 264.805989 260.939355 
L 264.940478 260.010883 
L 265.074966 252.620395 
L 265.209454 233.952605 
L 265.612919 122.339258 
L 265.881895 104.652144 
L 266.016383 113.930806 
L 266.150871 113.803094 
L 266.28536 113.365426 
L 266.419848 117.887998 
L 266.688824 154.287181 
L 266.957801 231.248756 
L 267.226777 247.52312 
L 267.361265 246.134141 
L 267.495754 262.118124 
L 267.630242 261.809565 
L 267.76473 263.634814 
L 267.899218 263.938712 
L 268.168195 270.306576 
L 268.302683 271.170727 
L 268.437171 268.669165 
L 268.706147 271.146023 
L 268.975124 267.733236 
L 269.2441 265.892605 
L 269.916541 251.738999 
L 270.320006 253.58429 
L 270.588982 258.356693 
L 270.723471 272.124368 
L 270.857959 273.140001 
L 270.992447 271.696488 
L 271.126935 272.55924 
L 271.261424 272.588138 
L 271.395912 272.406359 
L 271.799376 275.119064 
L 271.933865 273.765974 
L 272.068353 274.112753 
L 272.202841 273.483051 
L 272.337329 273.713771 
L 272.471817 272.890171 
L 272.606306 270.775007 
L 272.740794 272.027885 
L 272.875282 271.712801 
L 273.00977 271.051405 
L 273.144258 268.771241 
L 273.278747 268.673826 
L 273.547723 271.583225 
L 273.682211 271.792505 
L 273.8167 272.460427 
L 273.951188 271.618649 
L 274.085676 282.02341 
L 274.354652 283.618405 
L 274.489141 282.082604 
L 274.758117 267.699676 
L 275.29607 163.618046 
L 275.565046 151.657909 
L 275.699535 151.987442 
L 275.834023 169.535658 
L 275.968511 171.765948 
L 276.102999 181.692956 
L 276.77544 259.219445 
L 277.447881 276.227917 
L 277.58237 279.54795 
L 277.716858 279.165748 
L 277.851346 274.866437 
L 277.985834 265.107692 
L 278.389299 205.961875 
L 278.523787 186.914679 
L 278.658275 184.961252 
L 278.792763 175.659752 
L 278.927252 187.517347 
L 279.06174 181.827659 
L 279.196228 183.87151 
L 279.330716 191.394371 
L 280.137646 269.35946 
L 280.272134 271.692293 
L 280.406622 263.523416 
L 280.54111 263.245621 
L 280.810087 264.390363 
L 280.944575 263.78117 
L 281.213551 256.039707 
L 281.348039 227.738554 
L 281.482528 158.851237 
L 281.617016 148.871094 
L 281.751504 125.99535 
L 281.885992 127.121449 
L 282.154969 140.329337 
L 282.289457 122.61752 
L 282.423945 126.614331 
L 282.558433 135.521045 
L 282.82741 182.885241 
L 283.096386 249.911419 
L 283.365363 256.393478 
L 283.499851 258.551523 
L 283.634339 257.895253 
L 283.768827 257.905508 
L 283.903316 258.090549 
L 284.037804 259.366266 
L 284.172292 259.49258 
L 284.441268 254.414881 
L 285.113709 141.70713 
L 285.248198 140.655141 
L 285.382686 136.219263 
L 285.517174 145.255087 
L 285.651662 142.223103 
L 285.78615 145.634493 
L 286.055127 197.580456 
L 286.324103 246.051641 
L 286.59308 255.513946 
L 286.727568 255.395091 
L 286.862056 273.910931 
L 286.996544 273.968728 
L 287.131033 273.012756 
L 287.265521 273.604703 
L 287.668985 270.156958 
L 287.803474 271.014583 
L 288.07245 270.159289 
L 288.206938 268.036667 
L 288.341427 267.982599 
L 288.475915 265.688919 
L 288.610403 265.326293 
L 288.744891 264.227694 
L 288.879379 266.992136 
L 289.013868 267.323999 
L 289.148356 264.576803 
L 289.417332 271.570175 
L 289.55182 272.730299 
L 289.820797 272.376995 
L 289.955285 273.149323 
L 290.089773 271.683903 
L 290.224262 273.195933 
L 290.35875 272.30941 
L 290.493238 273.267246 
L 290.627726 271.760344 
L 291.031191 254.188823 
L 291.300167 189.500139 
L 291.434655 184.042102 
L 291.569144 184.635914 
L 291.703632 188.60709 
L 291.972608 176.150555 
L 292.376073 188.934293 
L 293.048514 263.599391 
L 293.183002 264.817777 
L 293.31749 263.692145 
L 293.451979 264.426719 
L 293.586467 263.518289 
L 293.720955 265.937351 
L 293.855443 266.194638 
L 294.258908 242.815505 
L 294.527884 186.140487 
L 294.796861 155.176035 
L 294.931349 139.666542 
L 295.065837 139.535568 
L 295.200325 147.326903 
L 295.334814 141.736494 
L 295.60379 169.158116 
L 295.738278 183.320113 
L 296.141743 251.931964 
L 296.276231 251.062221 
L 296.410719 258.097541 
L 296.545208 275.374487 
L 296.948672 277.488718 
L 297.486625 279.409052 
L 297.621113 279.071595 
L 297.755601 279.067867 
L 298.024578 275.968299 
L 298.159066 275.821477 
L 298.428042 273.729618 
L 298.697019 269.993357 
L 298.831507 268.884504 
L 298.965995 268.745606 
L 299.100484 269.092851 
L 299.36946 272.788561 
L 299.503948 272.294029 
L 299.638436 273.800931 
L 299.772925 264.369389 
L 299.907413 267.691287 
L 300.041901 267.396711 
L 300.176389 268.242683 
L 300.310877 267.96582 
L 300.579854 257.254365 
L 301.252295 126.31929 
L 301.386783 126.386408 
L 301.521271 139.267094 
L 301.65576 132.489061 
L 301.790248 141.681495 
L 302.597177 247.91278 
L 302.731665 249.624301 
L 303.000642 261.739184 
L 303.13513 261.958251 
L 303.269618 262.427148 
L 303.404106 264.828498 
L 303.538595 265.237734 
L 303.807571 249.265403 
L 304.345524 161.608221 
L 304.6145 151.333969 
L 304.748988 159.376998 
L 304.883477 150.02982 
L 305.017965 155.966541 
L 306.093871 260.227154 
L 306.228359 261.213889 
L 306.497335 271.129244 
L 306.766312 272.134622 
L 306.9008 267.537474 
L 307.035288 257.247374 
L 307.304265 166.956724 
L 307.438753 174.046578 
L 307.842217 155.240357 
L 307.976706 162.124661 
L 308.111194 153.904979 
L 308.245682 158.750093 
L 308.649147 203.663999 
L 309.052611 258.696014 
L 309.590564 270.637508 
L 309.994029 272.300554 
L 310.128517 268.831368 
L 310.263005 256.513732 
L 310.531982 166.848123 
L 310.66647 167.972357 
L 310.935446 165.737405 
L 311.069934 156.607429 
L 311.204423 162.91004 
L 311.338911 161.649704 
L 311.473399 155.036205 
L 311.607887 167.861891 
L 311.876864 204.54959 
L 312.14584 245.875455 
L 312.414817 257.401653 
L 312.818281 265.808707 
L 312.952769 265.385022 
L 313.087258 267.226118 
L 313.221746 267.129636 
L 313.356234 268.669165 
L 313.625211 258.362752 
L 313.759699 250.658112 
L 313.894187 253.931535 
L 314.028675 251.462601 
L 314.163163 253.301367 
L 314.297652 250.606374 
L 314.566628 257.014324 
L 314.701116 257.731652 
L 314.970093 262.372614 
L 315.104581 262.335792 
L 315.239069 262.046344 
L 315.508045 264.909599 
L 315.642534 265.433962 
L 315.777022 265.111421 
L 316.180487 268.030608 
L 316.314975 267.601329 
L 316.718439 269.900137 
L 316.852928 270.143441 
L 316.987416 269.310054 
L 317.121904 269.373909 
L 317.256392 268.280438 
L 317.39088 268.421666 
L 317.525369 266.918958 
L 317.659857 267.816668 
L 317.928833 265.356589 
L 318.332298 261.707955 
L 318.466786 262.346979 
L 318.601274 261.856175 
L 318.735763 263.278248 
L 318.870251 263.118375 
L 319.139227 264.208584 
L 319.273715 273.813516 
L 319.67718 274.90559 
L 319.811668 272.387249 
L 319.946157 264.619685 
L 320.349621 145.489535 
L 320.484109 129.717162 
L 320.887574 156.356201 
L 321.022062 160.913265 
L 321.291039 175.349329 
L 321.425527 177.10746 
L 321.560015 195.115717 
L 321.828991 249.34231 
L 321.96348 257.240382 
L 322.097968 258.008516 
L 322.635921 274.317371 
L 322.770409 274.656226 
L 322.904897 274.012541 
L 323.173874 263.824983 
L 323.44285 170.595104 
L 323.577338 170.948408 
L 323.711826 171.145103 
L 323.980803 151.440706 
L 324.249779 154.896841 
L 324.384268 157.598359 
L 324.787732 192.992629 
L 325.056709 246.238547 
L 325.325685 255.293015 
L 325.863638 272.697672 
L 325.998126 274.423642 
L 326.132614 274.487497 
L 326.267103 271.349709 
L 326.401591 262.561385 
L 326.670567 163.572835 
L 326.805055 169.388836 
L 326.939544 170.533579 
L 327.20852 157.617003 
L 327.343008 165.569609 
L 327.611985 161.903729 
L 327.746473 166.649564 
L 328.149937 220.063744 
L 328.418914 250.185952 
L 328.68789 262.696554 
L 328.822379 265.092311 
L 328.956867 274.903259 
L 329.225843 275.828002 
L 329.360331 275.000674 
L 329.629308 262.469097 
L 330.032772 175.54043 
L 330.301749 164.467281 
L 330.570725 155.865398 
L 330.839702 177.206739 
L 330.97419 178.390634 
L 331.108678 181.071644 
L 331.781119 255.176489 
L 332.050096 262.171725 
L 332.184584 272.693477 
L 332.319072 273.627076 
L 332.45356 272.977798 
L 332.588049 273.94216 
L 332.857025 261.630116 
L 333.26049 174.923779 
L 333.394978 176.788647 
L 333.663954 162.227669 
L 333.798442 163.391988 
L 333.932931 167.070452 
L 334.336395 184.515194 
L 334.73986 250.65951 
L 335.143325 266.018452 
L 335.277813 265.824554 
L 335.412301 265.919639 
L 335.546789 266.198367 
L 335.681277 266.095825 
L 335.950254 268.616962 
L 336.084742 266.571713 
L 336.622695 250.495909 
L 336.757183 251.271966 
L 336.891671 249.485869 
L 337.295136 255.693861 
L 337.698601 260.314781 
L 337.833089 259.846816 
L 338.102065 263.849687 
L 338.236553 263.623162 
L 338.371042 264.245406 
L 338.50553 261.965243 
L 339.043483 265.049429 
L 339.446947 267.974676 
L 339.581436 267.50438 
L 339.715924 266.3629 
L 339.850412 266.615993 
L 339.9849 265.854385 
L 340.119388 265.744385 
L 340.253877 265.282013 
L 340.388365 266.724128 
L 340.522853 264.782354 
L 340.657341 265.366844 
L 340.926318 265.055955 
L 341.060806 261.796514 
L 341.329782 266.562857 
L 341.464271 266.463578 
L 341.598759 266.979551 
L 341.733247 268.508827 
L 341.867735 276.145417 
L 342.136712 276.244696 
L 342.2712 276.871135 
L 342.540176 264.476592 
L 342.943641 152.032653 
L 343.212617 168.247822 
L 343.347106 167.53096 
L 343.75057 181.574566 
L 343.885058 183.209647 
L 344.019547 182.562699 
L 344.423011 248.837989 
L 345.22994 273.922118 
L 345.364429 274.980166 
L 345.498917 274.621268 
L 345.633405 270.504669 
L 345.767893 262.61219 
L 346.03687 180.358976 
L 346.171358 184.379093 
L 346.440334 171.136247 
L 346.574823 165.892617 
L 346.843799 172.607726 
L 347.112775 174.432043 
L 347.381752 208.092886 
L 347.650728 246.079607 
L 348.054193 263.614306 
L 348.188681 264.768371 
L 348.323169 273.524068 
L 348.457658 274.351862 
L 348.592146 276.178044 
L 348.726634 275.987409 
L 348.99561 263.387781 
L 349.264587 179.333555 
L 349.399075 180.772408 
L 349.668052 163.632496 
L 349.80254 159.618438 
L 350.206004 177.869068 
L 350.340493 179.020802 
L 351.012934 257.291187 
L 351.147422 259.556435 
L 351.550886 275.822409 
L 351.685375 275.127453 
L 351.954351 275.485418 
L 352.088839 274.121609 
L 352.223328 267.007051 
L 352.492304 175.35399 
L 352.626792 182.346895 
L 352.76128 171.250441 
L 352.895769 170.558748 
L 353.030257 162.479363 
L 353.164745 169.517014 
L 353.299233 167.489943 
L 353.56821 150.14215 
L 354.240651 263.752272 
L 354.375139 264.862523 
L 354.644115 270.583906 
L 354.913092 274.755039 
L 355.182068 275.77207 
L 355.316556 273.427585 
L 355.451045 264.519473 
L 355.854509 192.983773 
L 356.123486 155.573619 
L 356.257974 157.245987 
L 356.392462 165.64838 
L 356.52695 165.030331 
L 356.661439 175.380557 
L 356.795927 174.159374 
L 357.33388 259.546181 
L 357.602856 268.911538 
L 357.737344 270.828609 
L 357.871832 274.981098 
L 358.006321 274.41665 
L 358.140809 274.625929 
L 358.275297 275.347919 
L 358.409785 275.262156 
L 358.678762 274.033049 
L 359.082226 256.011275 
L 359.351203 250.248409 
L 359.485691 244.12851 
L 359.620179 254.60272 
L 359.754667 255.982843 
L 359.889156 256.146911 
L 360.427109 270.090772 
L 360.561597 270.754033 
L 360.965061 274.801183 
L 361.234038 274.762497 
L 361.368526 274.57559 
L 361.503014 275.849443 
L 361.771991 275.451859 
L 361.906479 276.750415 
L 362.040967 276.703805 
L 362.175455 277.07016 
L 362.309944 277.109779 
L 362.57892 273.779491 
L 362.713408 273.731482 
L 362.982385 272.624028 
L 363.116873 271.167464 
L 363.251361 271.068184 
L 363.385849 272.132758 
L 363.520337 271.29937 
L 363.654826 271.241108 
L 364.05829 273.960338 
L 364.192778 248.577439 
L 364.730731 254.684753 
L 364.86522 253.518104 
L 364.999708 241.725762 
L 365.134196 220.103828 
L 365.403172 133.885964 
L 365.672149 104.314221 
L 365.806637 98.534109 
L 366.075613 115.075082 
L 366.34459 112.005811 
L 366.479078 123.165188 
L 367.017031 246.541512 
L 367.151519 251.382898 
L 367.286007 249.689089 
L 367.554984 260.779017 
L 367.689472 261.624989 
L 367.958448 266.408112 
L 368.227425 243.407453 
L 368.496401 149.735244 
L 368.765378 99.088303 
L 369.034354 88.445831 
L 369.168842 93.055565 
L 369.303331 92.621625 
L 369.437819 95.91043 
L 369.572307 93.838613 
L 369.706795 109.565309 
L 370.244748 230.466174 
L 370.782701 273.635466 
L 370.917189 273.933304 
L 371.051677 274.80398 
L 371.186166 274.531777 
L 371.455142 260.06029 
L 371.858607 168.985659 
L 372.127583 200.219051 
L 372.262071 196.253934 
L 372.396559 197.647108 
L 372.665536 187.210653 
L 372.800024 190.916152 
L 373.203489 229.690117 
L 373.472465 251.424381 
L 373.87593 272.119707 
L 374.010418 280.926675 
L 374.144906 280.784048 
L 374.279394 281.96235 
L 374.413883 281.471081 
L 374.682859 265.298793 
L 375.220812 177.994915 
L 375.489788 174.450687 
L 375.624277 174.668356 
L 375.893253 181.05067 
L 376.027741 185.24604 
L 376.565694 251.245864 
L 376.83467 259.927917 
L 376.969159 262.697952 
L 377.103647 274.233473 
L 377.238135 273.166103 
L 377.507112 275.190377 
L 377.6416 273.270509 
L 377.776088 276.72711 
L 378.045064 274.630124 
L 378.179553 265.214429 
L 378.314041 264.603371 
L 378.448529 257.668729 
L 378.583017 258.646141 
L 378.717505 257.750296 
L 378.851994 262.156344 
L 378.986482 261.413846 
L 379.12097 262.300835 
L 379.255458 264.409939 
L 379.389947 264.296211 
L 379.927899 273.334831 
L 380.062388 273.133009 
L 380.196876 273.539915 
L 380.331364 263.861339 
L 380.60034 265.743919 
L 380.869317 267.360355 
L 381.138293 256.717418 
L 381.272782 230.251301 
L 381.541758 157.387682 
L 381.810734 137.692141 
L 381.945223 139.246586 
L 382.214199 145.583221 
L 382.348687 137.778369 
L 382.752152 186.481672 
L 383.021128 252.910775 
L 383.155616 260.6555 
L 383.290105 261.302448 
L 383.424593 262.559987 
L 383.559081 257.745169 
L 383.693569 257.049747 
L 383.962546 257.388136 
L 384.097034 258.551057 
L 384.231522 256.808307 
L 384.36601 258.168388 
L 385.038451 146.621227 
L 385.17294 149.008128 
L 385.307428 163.794232 
L 385.576404 158.280264 
L 386.248845 255.691064 
L 386.921286 273.765508 
L 387.055775 272.969408 
L 387.190263 274.217625 
L 387.324751 273.542712 
L 387.459239 273.700254 
L 387.593727 275.155419 
L 387.728216 274.594234 
L 387.862704 275.881138 
L 387.997192 274.738726 
L 388.13168 276.292704 
L 388.266169 275.331139 
L 388.400657 273.391229 
L 388.535145 273.47839 
L 388.669633 272.830976 
L 388.804121 273.944024 
L 388.93861 271.451319 
L 389.207586 273.542712 
L 389.476562 280.079771 
L 389.611051 279.045494 
L 389.745539 279.843458 
L 389.880027 279.792653 
L 390.014515 265.22748 
L 390.283492 265.470784 
L 390.41798 265.480572 
L 390.552468 265.352861 
L 390.686956 259.978256 
L 390.821445 260.159103 
L 390.955933 251.505948 
L 391.224909 196.608637 
L 391.359397 165.935964 
L 391.493886 162.035635 
L 391.762862 172.489336 
L 391.89735 171.957982 
L 392.031839 164.89656 
L 392.166327 168.513033 
L 392.300815 177.291569 
L 392.569791 236.100396 
L 392.70428 261.799311 
L 392.973256 266.533493 
L 393.107744 267.176246 
L 393.376721 260.277959 
L 393.645697 265.867902 
L 393.780185 262.552995 
L 393.914673 263.906551 
L 394.049162 256.659621 
L 394.721603 144.616529 
L 394.990579 143.568735 
L 395.125067 143.158101 
L 395.259556 154.288114 
L 395.394044 155.138747 
L 395.931997 241.310467 
L 396.200973 254.616237 
L 396.335461 250.962941 
L 396.46995 275.181987 
L 396.604438 275.556732 
L 397.007902 278.523927 
L 397.276879 265.758834 
L 397.545855 193.696441 
L 397.680343 188.624802 
L 397.94932 165.769566 
L 398.083808 152.603627 
L 398.218296 165.062492 
L 398.352785 160.402419 
L 398.487273 163.347708 
L 398.487273 163.347708 
" clip-path="url(#pbd7738d0d9)" style="fill: none; stroke: #1f77b4; stroke-width: 1.5; stroke-linecap: square"/>
   </g>
   <g id="line2d_14">
    <path d="M 73.832727 274.020069 
L 73.967215 274.606932 
L 74.37068 274.661951 
L 74.505168 272.051745 
L 74.639657 273.564718 
L 74.908633 273.050738 
L 75.043121 262.219027 
L 75.177609 218.240779 
L 75.312098 224.293 
L 75.446586 243.490513 
L 75.581074 241.820803 
L 76.119027 247.540817 
L 76.522492 248.550844 
L 76.791468 272.461471 
L 76.925956 266.632876 
L 77.060444 273.124593 
L 77.194933 270.426056 
L 77.329421 253.445396 
L 77.463909 254.328052 
L 77.598397 258.498763 
L 77.732885 252.89235 
L 77.867374 252.431632 
L 78.001862 236.066408 
L 78.539815 89.15087 
L 78.674303 112.701968 
L 78.943279 97.052173 
L 79.212256 120.646256 
L 79.750209 221.994845 
L 80.019185 253.388516 
L 80.153673 251.540633 
L 80.42265 268.519379 
L 80.557138 257.350892 
L 80.691626 269.07516 
L 80.826114 266.042643 
L 81.229579 242.029619 
L 81.364067 220.715346 
L 81.633044 130.389253 
L 81.90202 166.355664 
L 82.036508 145.025707 
L 82.305485 173.732076 
L 82.439973 179.198048 
L 82.574461 189.473025 
L 82.843438 242.257807 
L 83.112414 254.187882 
L 83.246902 260.941226 
L 83.38139 259.35947 
L 83.515879 268.049765 
L 83.650367 268.96913 
L 83.919343 285.918774 
L 84.457296 260.342986 
L 84.591784 243.953396 
L 84.860761 124.020555 
L 85.264225 179.300068 
L 85.398714 166.737228 
L 85.936666 216.017716 
L 86.340131 262.195137 
L 86.609107 258.584114 
L 87.14706 285.1739 
L 87.281549 284.836635 
L 87.416037 281.661317 
L 87.550525 282.46636 
L 87.685013 282.170863 
L 87.819501 279.853984 
L 88.088478 234.509339 
L 88.357454 245.812612 
L 88.626431 252.906436 
L 88.760919 248.288028 
L 88.895407 254.048751 
L 89.029895 248.829215 
L 89.43336 256.46755 
L 89.702336 271.124174 
L 89.836825 268.6622 
L 90.105801 272.83205 
L 90.240289 254.808447 
L 90.374777 253.1958 
L 90.509266 260.731569 
L 90.643754 258.444032 
L 90.778242 258.06975 
L 90.91273 257.036218 
L 91.047218 258.532432 
L 91.181707 251.439944 
L 91.316195 235.182913 
L 91.450683 237.460475 
L 91.585171 235.816859 
L 91.854148 247.250957 
L 91.988636 247.033853 
L 92.392101 255.751216 
L 92.526589 255.66522 
L 92.930053 261.716331 
L 93.064542 262.049651 
L 93.19903 269.452546 
L 93.333518 263.068675 
L 93.468006 276.174565 
L 93.602495 275.461179 
L 93.736983 263.946926 
L 93.871471 262.16505 
L 94.274936 234.748256 
L 94.543912 157.057365 
L 94.6784 168.200446 
L 94.947377 151.615324 
L 95.081865 155.206695 
L 95.619818 183.927667 
L 95.888794 245.641132 
L 96.292259 262.883998 
L 96.426747 266.937326 
L 96.561235 265.399252 
L 96.695723 265.715949 
L 96.9647 255.850059 
L 97.099188 257.927883 
L 97.233676 253.430602 
L 97.502653 220.4982 
L 97.771629 148.072337 
L 98.175094 176.965634 
L 98.309582 176.415828 
L 98.44407 175.106795 
L 98.847535 207.908853 
L 99.385488 263.547218 
L 99.519976 262.006361 
L 99.654464 272.474178 
L 99.788952 271.202833 
L 99.923441 282.841802 
L 100.057929 281.39114 
L 100.192417 268.118508 
L 100.595882 262.047195 
L 100.864858 253.522337 
L 101.133834 270.598873 
L 101.268323 274.745612 
L 101.402811 274.724451 
L 101.671787 262.680924 
L 101.806276 271.112169 
L 102.075252 262.549969 
L 102.20974 271.550814 
L 102.344228 271.663309 
L 102.478717 270.16857 
L 102.613205 270.592638 
L 102.747693 271.655734 
L 103.016669 280.972564 
L 103.285646 246.19886 
L 103.420134 263.144657 
L 103.554622 259.77225 
L 103.958087 229.521048 
L 104.227063 142.564328 
L 104.361552 146.924403 
L 104.49604 151.417442 
L 104.630528 163.665837 
L 104.899504 142.601709 
L 105.168481 177.835843 
L 105.437457 214.976162 
L 105.706434 252.618917 
L 105.840922 261.999495 
L 105.97541 260.04056 
L 106.109898 255.187721 
L 106.244387 265.534075 
L 106.378875 288.746031 
L 106.513363 286.236663 
L 106.782339 264.089325 
L 106.916828 263.392497 
L 107.185804 256.067814 
L 107.45478 179.658275 
L 107.589269 199.415758 
L 107.723757 241.257478 
L 107.858245 240.82245 
L 107.992733 239.807184 
L 108.26171 246.320139 
L 108.530686 248.338822 
L 108.665174 248.276866 
L 108.799663 252.713364 
L 109.068639 274.877393 
L 109.203127 270.15775 
L 109.337615 272.525092 
L 109.472104 271.432854 
L 109.606592 265.798862 
L 109.875568 267.809322 
L 110.279033 265.447418 
L 110.413521 265.955264 
L 110.548009 264.1682 
L 110.682498 264.185044 
L 110.816986 265.821213 
L 111.085962 263.305071 
L 111.22045 263.991808 
L 111.489427 267.974607 
L 111.758403 265.333874 
L 111.892891 264.197283 
L 112.02738 265.038714 
L 112.161868 267.036327 
L 112.296356 266.495937 
L 112.430844 265.093388 
L 112.565333 268.339568 
L 112.699821 268.666803 
L 112.834309 255.883367 
L 112.968797 256.709026 
L 113.103285 262.101648 
L 113.237774 259.6422 
L 113.372262 259.704648 
L 113.50675 258.698427 
L 113.775726 261.929862 
L 113.910215 262.15526 
L 114.179191 258.641701 
L 114.313679 258.696032 
L 114.448168 253.03303 
L 114.717144 257.980326 
L 114.851632 256.841499 
L 115.120609 250.583467 
L 115.255097 251.28181 
L 115.524073 258.037354 
L 115.658561 257.319004 
L 115.79305 262.511657 
L 116.062026 257.301255 
L 116.196514 254.855143 
L 116.331002 247.251505 
L 116.465491 253.413992 
L 116.734467 240.680689 
L 116.868955 215.721629 
L 117.137932 117.905983 
L 117.27242 76.662185 
L 117.406908 101.62206 
L 117.541396 100.493865 
L 117.675885 85.638608 
L 117.810373 93.268508 
L 118.348326 179.520382 
L 118.617302 247.49246 
L 118.75179 248.012072 
L 118.886279 246.914151 
L 119.020767 247.072242 
L 119.155255 252.602345 
L 119.289743 250.480024 
L 119.424231 251.881154 
L 119.693208 241.081211 
L 119.827696 241.220042 
L 119.962184 237.061179 
L 120.096672 211.67788 
L 120.365649 107.481945 
L 120.500137 93.424639 
L 120.634625 104.313526 
L 120.769114 94.248234 
L 120.903602 94.771416 
L 121.03809 98.666204 
L 121.307066 120.955041 
L 121.979507 250.343428 
L 122.248484 240.909311 
L 122.51746 246.849965 
L 122.651948 257.858492 
L 122.786437 256.246982 
L 123.055413 240.519569 
L 123.189901 234.006854 
L 123.32439 214.244027 
L 123.593366 108.465625 
L 123.727854 87.82735 
L 123.862342 88.950001 
L 123.996831 93.362624 
L 124.131319 92.54756 
L 124.265807 103.416047 
L 124.534783 138.470374 
L 124.669272 149.625343 
L 124.80376 172.813001 
L 125.072736 245.898 
L 125.341713 254.86205 
L 125.476201 247.582815 
L 125.610689 254.266083 
L 125.745177 252.451789 
L 125.879666 264.53744 
L 126.014154 266.335325 
L 126.28313 250.226421 
L 126.552107 211.029742 
L 126.821083 115.23467 
L 126.955571 100.314029 
L 127.09006 108.14601 
L 127.224548 106.961164 
L 127.359036 111.10399 
L 127.628012 126.3024 
L 127.762501 132.381266 
L 128.434942 251.004217 
L 128.56943 249.574698 
L 128.703918 252.759618 
L 128.838406 252.321709 
L 128.972894 257.724831 
L 129.107383 256.398887 
L 129.241871 249.818406 
L 129.376359 251.629636 
L 129.510847 248.185164 
L 130.183288 80.703374 
L 130.317777 110.006122 
L 130.586753 98.998513 
L 130.855729 131.126078 
L 130.990218 138.70056 
L 131.259194 196.00743 
L 131.528171 245.848358 
L 131.931635 259.099447 
L 132.066123 260.077227 
L 132.3351 254.665092 
L 132.469588 256.707501 
L 132.604076 264.153044 
L 133.007541 257.117181 
L 133.276517 240.098863 
L 133.545494 231.835823 
L 133.679982 232.117714 
L 133.81447 230.376111 
L 134.083447 235.835624 
L 134.217935 233.330746 
L 134.621399 247.056775 
L 135.024864 252.266266 
L 135.159352 257.841824 
L 135.29384 257.985914 
L 135.428329 259.015826 
L 135.562817 258.919125 
L 135.697305 258.666694 
L 135.966282 259.846726 
L 136.10077 264.713439 
L 136.235258 264.007696 
L 136.369746 257.558369 
L 136.638723 261.483645 
L 136.773211 254.674111 
L 137.042187 258.718258 
L 137.176675 258.686736 
L 137.445652 249.966957 
L 137.714628 255.241831 
L 137.849117 253.286831 
L 138.118093 258.013861 
L 138.252581 257.279299 
L 138.387069 262.215801 
L 138.521558 260.352995 
L 138.656046 263.778966 
L 138.925022 248.499547 
L 139.05951 251.27306 
L 139.193999 250.62848 
L 139.462975 202.672023 
L 139.731951 107.576996 
L 139.86644 79.783914 
L 140.000928 109.689892 
L 140.269904 98.102924 
L 140.673369 140.698753 
L 141.34581 253.039588 
L 141.480298 245.68362 
L 141.749275 263.53147 
L 141.883763 257.910876 
L 142.018251 260.393014 
L 142.421716 244.746614 
L 143.094157 81.616852 
L 143.228645 106.230558 
L 143.497621 91.677037 
L 143.901086 126.546907 
L 144.304551 218.696723 
L 144.439039 249.944401 
L 144.708015 247.064615 
L 144.976992 265.030078 
L 145.380456 254.203951 
L 145.514945 253.320654 
L 145.649433 239.178124 
L 145.783921 197.667017 
L 145.918409 192.025612 
L 146.321874 86.368217 
L 146.456362 102.485652 
L 146.59085 105.067549 
L 146.725339 104.032521 
L 146.994315 121.320469 
L 147.39778 185.763928 
L 147.666756 249.400705 
L 147.801244 248.199859 
L 147.935732 252.395477 
L 148.070221 263.398904 
L 148.204709 263.877848 
L 148.473685 261.440932 
L 149.011638 240.373614 
L 149.549591 93.146988 
L 149.684079 116.701967 
L 149.953056 97.990301 
L 150.625497 188.990525 
L 150.894473 251.344857 
L 151.028961 249.280118 
L 151.16345 252.730771 
L 151.297938 265.471212 
L 151.566914 258.920248 
L 151.701402 258.954027 
L 151.835891 257.996378 
L 152.239355 244.190823 
L 152.777308 88.975805 
L 152.911796 123.873153 
L 153.180773 85.475203 
L 154.256678 261.338527 
L 154.391167 262.882186 
L 154.525655 267.09741 
L 154.660143 267.516599 
L 154.794631 268.355877 
L 154.92912 267.99372 
L 155.198096 266.707982 
L 155.467072 269.731646 
L 155.601561 267.169172 
L 155.870537 243.516102 
L 156.005025 247.391182 
L 156.274002 253.278113 
L 156.40849 254.121382 
L 156.542978 253.006424 
L 157.080931 260.231173 
L 157.753372 266.394391 
L 157.88786 266.156642 
L 158.022348 267.669902 
L 158.156837 267.908688 
L 158.425813 266.255455 
L 158.829278 271.810821 
L 158.963766 267.30129 
L 159.232742 269.499621 
L 159.367231 266.632383 
L 159.501719 266.96842 
L 159.636207 269.588296 
L 159.770695 268.23231 
L 160.039672 259.970769 
L 160.17416 261.887881 
L 160.308648 259.507053 
L 160.443136 259.760852 
L 160.577624 261.217095 
L 160.712113 264.364772 
L 160.846601 262.558306 
L 160.981089 265.392122 
L 161.115577 263.402076 
L 161.250066 263.08399 
L 161.384554 264.495438 
L 161.788018 251.942438 
L 162.056995 206.662178 
L 162.325971 117.289332 
L 162.460459 87.24425 
L 162.594948 92.612327 
L 162.729436 102.551761 
L 162.863924 97.445989 
L 162.998412 97.74661 
L 163.93983 250.690569 
L 164.074318 245.661492 
L 164.343294 262.437482 
L 164.477783 258.080873 
L 164.612271 268.410839 
L 164.746759 268.29576 
L 164.881247 262.029582 
L 165.015735 246.015149 
L 165.688177 95.440866 
L 165.822665 120.297539 
L 166.091641 98.316591 
L 166.360618 125.610507 
L 166.629594 150.267587 
L 166.764082 173.857014 
L 167.033059 250.53068 
L 167.302035 245.526796 
L 167.571012 256.540086 
L 167.7055 252.945629 
L 167.974476 257.598135 
L 168.243453 249.111294 
L 168.377941 231.037706 
L 168.915894 85.647215 
L 169.050382 110.018235 
L 169.18487 97.462782 
L 169.319358 96.669658 
L 169.857311 168.202601 
L 170.395264 253.879282 
L 170.529752 251.513553 
L 170.798729 260.310356 
L 170.933217 261.164051 
L 171.336681 250.145402 
L 171.47117 251.19412 
L 172.143611 89.088218 
L 172.278099 108.000514 
L 172.412587 104.694068 
L 172.547075 97.385822 
L 172.681564 105.821043 
L 173.488493 251.38897 
L 173.622981 251.169054 
L 173.757469 252.132567 
L 174.160934 281.690882 
L 174.295422 277.059782 
L 174.42991 264.234025 
L 174.564399 262.22014 
L 174.698887 261.903729 
L 175.102351 193.87897 
L 175.23684 147.404092 
L 175.505816 142.160688 
L 175.640304 138.847748 
L 175.774792 143.079648 
L 176.447234 206.283863 
L 176.850698 255.231229 
L 176.985186 254.480853 
L 177.119675 265.770601 
L 177.388651 262.26924 
L 177.523139 265.11123 
L 177.657627 262.784878 
L 177.792116 264.046371 
L 177.926604 267.484283 
L 178.19558 266.632708 
L 178.464557 248.479369 
L 178.599045 253.193653 
L 178.733533 245.765782 
L 178.868021 246.368158 
L 179.136998 255.118289 
L 179.405974 252.067649 
L 179.540462 254.76763 
L 179.809439 253.83616 
L 180.347392 265.708666 
L 180.48188 262.935241 
L 180.750856 273.59642 
L 181.019833 268.288778 
L 181.154321 268.789955 
L 181.288809 267.960928 
L 181.692274 253.336977 
L 181.826762 256.026025 
L 181.96125 256.085126 
L 182.095738 258.583774 
L 182.230227 253.127167 
L 182.364715 255.46526 
L 182.633691 264.940901 
L 182.76818 265.896855 
L 182.902668 268.738727 
L 183.171644 265.956933 
L 183.306132 269.072396 
L 183.440621 268.336676 
L 183.575109 277.175479 
L 183.709597 273.016537 
L 183.844085 264.970313 
L 184.113062 285.318218 
L 184.382038 262.558312 
L 184.785503 176.746766 
L 184.919991 138.351111 
L 185.188967 168.852359 
L 185.323456 177.308495 
L 185.457944 177.265453 
L 185.592432 177.046706 
L 186.399361 261.796977 
L 186.53385 261.478395 
L 186.668338 261.704315 
L 186.802826 273.870792 
L 186.937314 275.165229 
L 187.071802 281.104991 
L 187.206291 292.044509 
L 187.340779 289.339701 
L 187.609755 272.635294 
L 187.744243 262.034058 
L 187.878732 237.995468 
L 188.147708 137.079172 
L 188.282196 168.350048 
L 188.820149 184.132268 
L 188.954637 199.626914 
L 189.089126 202.288178 
L 189.761567 264.337095 
L 189.896055 260.401968 
L 190.165031 276.092995 
L 190.434008 261.623441 
L 190.568496 261.062774 
L 190.837472 250.452002 
L 190.971961 250.330478 
L 191.106449 249.643272 
L 191.240937 250.153734 
L 191.375425 245.267738 
L 191.644402 256.747955 
L 191.77889 251.389585 
L 192.047866 260.345787 
L 192.182354 261.021917 
L 192.316843 260.122592 
L 192.451331 261.003959 
L 192.585819 265.090187 
L 192.720307 264.076571 
L 192.854796 264.089862 
L 192.989284 268.767085 
L 193.123772 266.218007 
L 193.25826 271.900316 
L 194.065189 252.051343 
L 194.334166 226.774447 
L 194.603142 143.070517 
L 194.73763 151.924083 
L 194.872119 145.852682 
L 195.006607 147.966952 
L 195.141095 145.17735 
L 195.275583 144.705857 
L 196.217001 256.582133 
L 196.351489 258.068459 
L 196.620465 264.933521 
L 196.754954 274.966177 
L 196.889442 269.909826 
L 197.158418 256.075366 
L 197.292907 255.04005 
L 197.427395 247.8604 
L 197.561883 230.397227 
L 197.830859 153.789348 
L 198.099836 185.519788 
L 198.234324 187.369858 
L 198.637789 202.640037 
L 198.772277 203.791779 
L 199.175742 249.623795 
L 199.444718 270.814003 
L 199.579206 267.317995 
L 199.982671 276.412671 
L 200.251647 272.848909 
L 200.386135 273.175748 
L 200.520624 269.883524 
L 200.655112 260.172656 
L 200.7896 259.504773 
L 200.924088 241.820115 
L 201.058576 174.869957 
L 201.327553 194.410497 
L 201.462041 188.068099 
L 201.731018 197.444521 
L 201.865506 197.276732 
L 201.999994 200.257575 
L 202.672435 266.752121 
L 202.806923 263.169712 
L 203.0759 271.065857 
L 203.344876 259.332852 
L 203.479364 265.163302 
L 203.613853 264.373953 
L 204.017317 247.045759 
L 204.151805 223.057783 
L 204.420782 156.164386 
L 204.55527 157.314597 
L 204.689758 160.10844 
L 204.824246 160.02048 
L 205.227711 194.744567 
L 205.496688 223.091887 
L 205.900152 260.364024 
L 206.03464 259.784009 
L 206.303617 266.508451 
L 206.438105 286.742859 
L 206.572593 284.068938 
L 206.707081 274.790613 
L 206.84157 274.521673 
L 207.110546 266.608744 
L 207.514011 237.917866 
L 207.648499 239.477441 
L 207.917475 257.936718 
L 208.186452 269.353994 
L 208.32094 269.98054 
L 208.589916 264.457409 
L 208.993381 274.982511 
L 209.127869 275.326567 
L 209.262357 274.200151 
L 209.396846 281.019301 
L 209.531334 276.985493 
L 209.665822 263.586097 
L 209.80031 262.129936 
L 209.934799 262.619867 
L 210.069287 257.916026 
L 210.203775 257.548607 
L 210.741728 133.171759 
L 210.876216 140.136972 
L 211.010704 126.206164 
L 211.145192 124.130309 
L 211.279681 114.268402 
L 211.683145 147.830438 
L 212.08661 239.833263 
L 212.355586 259.436185 
L 212.490075 257.258667 
L 212.624563 259.464689 
L 212.893539 270.110672 
L 213.028027 270.660059 
L 213.297004 256.03553 
L 213.431492 258.771554 
L 213.700468 208.782302 
L 213.969445 119.798162 
L 214.103933 113.734643 
L 214.238421 139.773069 
L 214.37291 117.703053 
L 214.507398 117.014552 
L 215.583303 266.659609 
L 215.717792 257.469892 
L 215.986768 269.104896 
L 216.524721 256.424494 
L 216.659209 257.744617 
L 216.928186 221.335741 
L 217.197162 126.825786 
L 217.33165 126.592824 
L 217.466138 147.817893 
L 217.600627 134.968124 
L 217.735115 139.691501 
L 217.869603 150.224347 
L 218.004091 151.679952 
L 218.676532 258.639965 
L 218.811021 265.575727 
L 218.945509 261.612355 
L 219.079997 275.257664 
L 219.348973 261.281404 
L 219.483462 267.202764 
L 219.752438 265.507703 
L 219.886926 263.664777 
L 220.155903 219.452257 
L 220.424879 125.692198 
L 220.693856 156.63386 
L 220.828344 135.915141 
L 220.962832 139.566812 
L 221.769761 240.75191 
L 222.038738 266.746471 
L 222.173226 259.846424 
L 222.307714 270.494315 
L 222.576691 266.631846 
L 222.845667 272.159618 
L 222.980155 271.368146 
L 223.114643 271.50452 
L 223.249132 267.930421 
L 223.38362 269.615222 
L 223.652596 236.633638 
L 223.921573 258.591339 
L 224.190549 248.915101 
L 224.728502 257.639041 
L 224.997478 255.034099 
L 225.266455 259.523717 
L 225.400943 258.458319 
L 225.535431 261.980498 
L 225.804408 260.789482 
L 225.938896 256.582394 
L 226.34236 262.653498 
L 226.476849 262.54704 
L 226.611337 262.739726 
L 226.745825 261.468846 
L 227.014802 256.756665 
L 227.283778 265.808951 
L 227.552754 264.399506 
L 227.821731 268.843704 
L 228.090707 267.866181 
L 228.225195 267.820484 
L 228.359684 272.588723 
L 228.62866 269.954638 
L 228.763148 278.309637 
L 228.897637 277.248636 
L 229.032125 274.824164 
L 229.301101 263.011055 
L 229.435589 262.027884 
L 229.570078 258.32027 
L 229.704566 239.406849 
L 230.242519 96.267926 
L 230.511495 105.191676 
L 230.645983 95.437851 
L 231.183936 169.968966 
L 231.587401 247.529981 
L 231.721889 252.527103 
L 231.856377 253.309098 
L 232.125354 269.199938 
L 232.259842 269.008348 
L 232.528818 263.965261 
L 232.663306 263.629465 
L 232.797795 255.829148 
L 233.066771 208.436096 
L 233.335748 125.145793 
L 233.470236 110.842057 
L 233.604724 124.718063 
L 233.739212 124.15778 
L 233.8737 118.34058 
L 234.142677 139.273906 
L 234.277165 155.984142 
L 234.546141 215.778468 
L 234.68063 228.707963 
L 234.949606 264.002609 
L 235.084094 260.80705 
L 235.353071 269.955941 
L 235.487559 270.249547 
L 235.622047 269.694772 
L 235.756535 273.036315 
L 236.025512 257.069998 
L 236.294488 219.799794 
L 236.563465 121.951264 
L 236.697953 113.185765 
L 236.832441 126.592894 
L 237.101417 102.762109 
L 237.63937 180.086592 
L 237.908347 240.408246 
L 238.177323 265.688558 
L 238.311811 260.642059 
L 238.580788 270.909551 
L 238.849764 269.774993 
L 239.118741 274.630607 
L 239.387717 250.989694 
L 239.522205 215.873683 
L 239.791182 128.733185 
L 239.92567 119.091326 
L 240.060158 120.859665 
L 240.194646 125.171751 
L 240.329135 120.340876 
L 240.463623 127.7976 
L 240.867087 196.471287 
L 241.270552 259.409067 
L 241.40504 258.313613 
L 241.539529 255.519238 
L 241.674017 264.60649 
L 241.808505 263.868389 
L 241.942993 261.473984 
L 242.077481 273.637327 
L 242.21197 274.339755 
L 242.346458 276.888287 
L 242.480946 270.098408 
L 242.749922 215.937015 
L 243.018899 128.67172 
L 243.153387 129.096125 
L 243.287875 157.292229 
L 243.556852 126.725531 
L 243.825828 158.64682 
L 243.960316 170.859055 
L 244.498269 253.089582 
L 244.632757 262.609009 
L 244.767246 259.812519 
L 244.901734 265.371504 
L 245.036222 266.024618 
L 245.305198 271.348989 
L 245.708663 267.236353 
L 245.843151 264.036067 
L 245.97764 244.914974 
L 246.246616 259.26623 
L 246.381104 254.317485 
L 246.515592 253.626418 
L 246.650081 251.843506 
L 246.784569 252.78325 
L 247.053545 257.79062 
L 247.322522 265.351084 
L 247.591498 268.332423 
L 247.860475 267.327696 
L 248.129451 269.591095 
L 248.263939 268.284989 
L 248.398427 268.504721 
L 248.667404 266.04742 
L 248.801892 265.607994 
L 248.93638 268.111607 
L 249.205357 266.163633 
L 249.743309 269.721507 
L 249.877798 268.986063 
L 250.012286 269.560066 
L 250.281262 267.646804 
L 250.415751 267.018382 
L 250.550239 268.415812 
L 250.684727 268.09801 
L 250.819215 267.1885 
L 250.953703 267.62086 
L 251.22268 266.702521 
L 251.357168 271.434324 
L 251.626144 269.638558 
L 251.760633 284.160529 
L 251.895121 281.027938 
L 252.298586 245.312591 
L 252.433074 232.045266 
L 252.70205 133.509622 
L 252.836538 125.317168 
L 253.105515 143.083719 
L 253.240003 135.641094 
L 254.315909 263.513201 
L 254.450397 262.673717 
L 254.584885 283.09428 
L 254.853862 278.692043 
L 254.98835 283.393275 
L 255.257326 276.829192 
L 255.391814 274.883906 
L 255.929767 136.076585 
L 256.198744 168.194307 
L 256.333232 145.743708 
L 256.46772 149.91656 
L 256.871185 177.319855 
L 257.274649 241.428757 
L 257.543626 260.750101 
L 257.678114 257.719427 
L 257.812602 266.145513 
L 258.081579 262.640098 
L 258.350555 282.859675 
L 258.619532 266.078918 
L 258.888508 226.300393 
L 259.157484 134.858775 
L 259.426461 165.077006 
L 259.695437 148.570925 
L 259.829925 159.90867 
L 259.964414 180.902751 
L 260.098902 172.70058 
L 260.636855 251.913771 
L 260.771343 258.366296 
L 260.905831 254.583866 
L 261.040319 265.493671 
L 261.174808 264.733451 
L 261.309296 260.290018 
L 261.443784 266.508877 
L 261.71276 263.227927 
L 261.981737 245.179771 
L 262.116225 215.078279 
L 262.385201 134.274505 
L 262.654178 161.201826 
L 262.788666 132.215693 
L 263.192131 157.044248 
L 263.864572 249.151149 
L 263.99906 254.69456 
L 264.133548 251.929141 
L 264.268036 259.303686 
L 264.402525 259.777316 
L 264.537013 266.25548 
L 265.209454 240.042217 
L 265.343942 221.025841 
L 265.747407 130.734965 
L 265.881895 106.414578 
L 266.150871 114.840995 
L 266.28536 117.645475 
L 266.554336 139.022176 
L 267.226777 252.698321 
L 267.361265 250.215561 
L 267.495754 255.41473 
L 267.630242 255.498437 
L 267.76473 266.977395 
L 267.899218 266.886816 
L 268.033706 263.322882 
L 268.168195 262.867858 
L 268.437171 268.920481 
L 268.571659 268.024478 
L 268.706147 262.319306 
L 268.975124 267.363687 
L 269.2441 261.208404 
L 269.378589 262.488839 
L 269.513077 262.533548 
L 270.185518 257.078806 
L 270.454494 257.895324 
L 270.588982 257.143024 
L 270.723471 263.397668 
L 270.857959 263.882657 
L 270.992447 275.338863 
L 271.126935 276.559898 
L 271.261424 269.495446 
L 271.395912 269.6421 
L 271.5304 269.515729 
L 271.664888 267.88154 
L 271.933865 269.093546 
L 272.068353 270.764025 
L 272.202841 269.057027 
L 272.740794 271.29543 
L 272.875282 269.539939 
L 273.00977 272.047693 
L 273.144258 271.948588 
L 273.547723 267.742727 
L 273.682211 267.889807 
L 273.8167 267.275469 
L 273.951188 277.975276 
L 274.085676 276.710336 
L 274.220164 272.905586 
L 274.354652 286.748714 
L 274.489141 288.503762 
L 274.758117 274.614754 
L 275.027093 236.130434 
L 275.29607 160.763242 
L 275.430558 157.284215 
L 275.565046 149.086473 
L 275.699535 154.721025 
L 275.834023 153.85478 
L 275.968511 154.722521 
L 276.237487 191.014768 
L 276.371976 203.816571 
L 276.640952 247.850031 
L 276.909928 260.888959 
L 277.044417 260.699338 
L 277.313393 270.767014 
L 277.447881 270.364809 
L 277.58237 275.849665 
L 277.851346 277.141942 
L 277.985834 276.033317 
L 278.120322 268.04895 
L 278.254811 253.12052 
L 278.523787 194.753063 
L 278.658275 191.005392 
L 278.792763 176.953496 
L 278.927252 180.967074 
L 279.06174 179.617743 
L 279.196228 196.966401 
L 279.465204 203.69079 
L 280.003157 256.508229 
L 280.137646 261.782226 
L 280.272134 262.658054 
L 280.406622 275.886945 
L 280.54111 277.758227 
L 280.810087 255.086969 
L 280.944575 257.463941 
L 281.213551 249.539457 
L 281.482528 225.015625 
L 281.751504 123.393047 
L 281.885992 129.748543 
L 282.020481 123.697681 
L 282.154969 123.685143 
L 282.289457 134.137519 
L 282.558433 131.971535 
L 282.692922 149.310066 
L 283.096386 233.162341 
L 283.365363 259.56418 
L 283.499851 256.798312 
L 283.634339 263.763866 
L 283.768827 264.617655 
L 284.172292 249.703361 
L 284.30678 248.196166 
L 284.441268 244.372154 
L 284.710245 226.356534 
L 284.979221 143.067627 
L 285.113709 140.826948 
L 285.248198 151.566322 
L 285.517174 135.754917 
L 285.651662 142.983793 
L 286.055127 179.746191 
L 286.324103 240.744369 
L 286.59308 257.033571 
L 286.727568 255.826905 
L 286.862056 264.255031 
L 286.996544 262.911326 
L 287.131033 285.889967 
L 287.265521 285.612788 
L 287.400009 267.813529 
L 287.534497 265.105751 
L 287.937962 251.141094 
L 288.206938 258.102364 
L 288.341427 259.314031 
L 288.475915 258.193104 
L 288.610403 260.65819 
L 288.744891 260.745857 
L 289.013868 265.373064 
L 289.282844 275.300631 
L 289.417332 270.359009 
L 289.686309 279.105032 
L 290.089773 271.922257 
L 290.224262 273.003755 
L 290.35875 271.318223 
L 290.493238 272.154844 
L 290.896703 267.8582 
L 291.300167 241.784173 
L 291.569144 161.731733 
L 291.703632 177.88277 
L 291.83812 179.028587 
L 291.972608 183.299258 
L 292.241585 179.29967 
L 293.048514 264.885851 
L 293.183002 261.387991 
L 293.451979 268.234707 
L 293.720955 264.865686 
L 293.855443 262.781007 
L 293.989931 264.175866 
L 294.12442 263.695335 
L 294.527884 228.125282 
L 294.796861 162.574079 
L 295.065837 147.163653 
L 295.200325 141.655878 
L 295.334814 146.038764 
L 296.141743 255.484331 
L 296.276231 263.271522 
L 296.545208 257.959284 
L 296.679696 266.202916 
L 296.814184 289.404215 
L 296.948672 286.948238 
L 297.217649 272.392429 
L 297.486625 269.365959 
L 297.621113 269.756158 
L 297.755601 270.88775 
L 298.159066 265.526947 
L 298.428042 269.339006 
L 298.562531 268.817881 
L 298.831507 269.827741 
L 299.234972 275.965275 
L 299.36946 275.953019 
L 299.503948 275.766844 
L 299.638436 272.984339 
L 299.772925 276.691202 
L 299.907413 276.884957 
L 300.041901 258.098546 
L 300.176389 258.487852 
L 300.310877 262.607844 
L 300.579854 253.683295 
L 300.84883 222.517186 
L 301.117807 142.744284 
L 301.521271 125.097338 
L 301.65576 126.111298 
L 301.790248 138.757204 
L 301.924736 138.027193 
L 302.059224 156.147886 
L 302.328201 214.852511 
L 302.731665 257.637316 
L 302.866153 254.872342 
L 303.269618 270.245445 
L 303.538595 254.629025 
L 303.673083 255.68842 
L 303.807571 252.999835 
L 304.345524 141.011528 
L 304.6145 159.22529 
L 304.748988 146.438016 
L 304.883477 149.285327 
L 305.286941 174.95811 
L 305.555918 225.122587 
L 305.959382 259.646694 
L 306.093871 258.35056 
L 306.228359 265.653694 
L 306.362847 265.279114 
L 306.497335 263.558173 
L 306.631823 273.612762 
L 306.766312 273.655064 
L 307.169776 246.917573 
L 307.304265 222.158232 
L 307.573241 136.496357 
L 307.842217 167.161655 
L 307.976706 141.582306 
L 308.514658 176.189148 
L 308.918123 241.189772 
L 309.187099 262.669071 
L 309.321588 261.244372 
L 309.590564 271.637573 
L 309.725052 270.680881 
L 309.859541 271.209481 
L 310.128517 263.941108 
L 310.263005 259.466676 
L 310.397493 247.813949 
L 310.800958 134.65507 
L 311.069934 162.657513 
L 311.204423 147.81287 
L 311.338911 147.89104 
L 311.607887 168.683325 
L 311.742376 172.321672 
L 312.280328 248.312358 
L 312.414817 263.020414 
L 312.549305 259.568879 
L 312.683793 265.062971 
L 312.952769 266.344786 
L 313.087258 267.439817 
L 313.221746 264.667649 
L 313.356234 264.660489 
L 313.490722 263.945953 
L 313.625211 264.49092 
L 314.028675 240.063813 
L 314.163163 248.730007 
L 314.297652 248.71073 
L 314.566628 247.183412 
L 315.104581 263.510334 
L 315.239069 266.485598 
L 315.508045 265.105525 
L 315.642534 266.622365 
L 315.777022 265.599285 
L 315.91151 267.849313 
L 316.045998 267.289875 
L 316.180487 267.685309 
L 316.449463 267.219283 
L 316.718439 264.85385 
L 316.852928 264.539694 
L 317.121904 265.488058 
L 317.256392 263.807368 
L 317.39088 264.615128 
L 317.525369 264.376807 
L 317.659857 265.549963 
L 317.794345 265.179091 
L 317.928833 267.331706 
L 318.19781 265.481895 
L 318.332298 265.262779 
L 318.466786 266.285323 
L 318.601274 265.176146 
L 318.735763 265.665442 
L 319.004739 264.073063 
L 319.139227 270.445768 
L 319.408204 265.509295 
L 319.542692 279.75138 
L 319.67718 277.909085 
L 320.215133 235.84597 
L 320.484109 136.735113 
L 320.753086 125.732903 
L 321.15655 136.867405 
L 321.96348 261.128402 
L 322.097968 263.711877 
L 322.232456 259.301528 
L 322.501433 266.740558 
L 322.635921 266.007282 
L 322.770409 278.737764 
L 322.904897 278.983346 
L 323.44285 240.984227 
L 323.711826 136.386189 
L 323.980803 169.261719 
L 324.115291 143.914117 
L 324.249779 144.074649 
L 324.787732 200.923776 
L 325.191197 257.12146 
L 325.325685 264.034983 
L 325.460173 257.549179 
L 325.72915 265.926234 
L 325.863638 265.743511 
L 326.132614 276.605126 
L 326.401591 266.695638 
L 326.536079 256.392219 
L 326.670567 237.461435 
L 326.939544 135.404943 
L 327.20852 170.80337 
L 327.343008 140.574952 
L 327.477496 148.396116 
L 327.746473 170.608526 
L 327.880961 178.761993 
L 328.418914 247.888357 
L 328.553402 259.059243 
L 328.68789 257.784028 
L 328.956867 271.220556 
L 329.091355 269.673353 
L 329.225843 281.867521 
L 329.360331 279.264564 
L 329.763796 246.091225 
L 329.898284 231.282528 
L 330.167261 141.704342 
L 330.436237 170.124812 
L 330.570725 151.522461 
L 330.705214 151.121695 
L 330.839702 156.799689 
L 331.512143 244.326933 
L 331.646631 258.364672 
L 331.781119 260.435414 
L 331.915607 257.67493 
L 332.050096 264.266654 
L 332.184584 263.659808 
L 332.319072 266.318645 
L 332.45356 280.786258 
L 332.588049 278.409467 
L 332.722537 264.871495 
L 332.857025 263.010468 
L 333.126001 231.003743 
L 333.394978 142.529337 
L 333.663954 176.132974 
L 333.798442 150.82777 
L 333.932931 154.863139 
L 334.605372 220.411391 
L 334.874348 259.521179 
L 335.008836 260.783448 
L 335.143325 258.74913 
L 335.277813 270.177035 
L 335.412301 270.832948 
L 335.681277 264.857272 
L 335.950254 263.276474 
L 336.21923 265.63349 
L 336.353718 261.364517 
L 336.622695 251.137086 
L 336.891671 245.537839 
L 337.02616 249.010446 
L 337.160648 247.839457 
L 337.967577 262.922926 
L 338.102065 262.485526 
L 338.236553 264.139943 
L 338.371042 263.481608 
L 338.50553 266.423234 
L 338.640018 265.875118 
L 338.908995 261.5998 
L 339.043483 262.932663 
L 339.177971 261.892453 
L 339.312459 261.849455 
L 339.581436 263.320662 
L 339.715924 264.062719 
L 339.850412 263.731715 
L 339.9849 262.652483 
L 340.119388 264.200363 
L 340.253877 264.286119 
L 340.522853 264.175309 
L 340.657341 265.855534 
L 340.791829 264.683138 
L 341.060806 267.410935 
L 341.195294 266.440431 
L 341.329782 263.712984 
L 341.464271 265.289033 
L 341.598759 265.307659 
L 341.733247 271.362192 
L 341.867735 268.643875 
L 342.002223 268.80699 
L 342.136712 280.204935 
L 342.2712 277.816577 
L 342.405688 269.746763 
L 342.540176 268.480361 
L 342.809153 238.559812 
L 343.078129 132.889187 
L 343.212617 127.895221 
L 343.347106 157.443863 
L 343.481594 152.313389 
L 343.616082 152.167538 
L 344.691988 258.482739 
L 344.826476 259.020197 
L 345.095452 273.10992 
L 345.22994 269.594508 
L 345.364429 277.713623 
L 345.498917 276.933128 
L 345.767893 269.337595 
L 346.03687 243.005572 
L 346.305846 144.624728 
L 346.574823 171.607931 
L 346.709311 156.651974 
L 346.843799 160.073683 
L 347.381752 198.483512 
L 347.785217 252.577195 
L 347.919705 259.39153 
L 348.054193 259.947161 
L 348.323169 270.455572 
L 348.457658 267.402503 
L 348.592146 277.916498 
L 348.726634 277.273358 
L 348.99561 268.211088 
L 349.264587 235.614687 
L 349.533563 139.219768 
L 349.668052 161.081476 
L 349.80254 161.000043 
L 349.937028 149.163595 
L 350.071516 153.938942 
L 350.340493 175.749643 
L 351.147422 262.895082 
L 351.28191 262.656935 
L 351.416398 270.159102 
L 351.550886 269.560452 
L 351.685375 270.365345 
L 351.819863 281.994771 
L 351.954351 277.422781 
L 352.223328 264.247755 
L 352.357816 258.269144 
L 352.492304 240.902247 
L 352.76128 138.222272 
L 352.895769 164.712659 
L 353.030257 169.031487 
L 353.164745 152.487311 
L 353.299233 157.053938 
L 353.56821 174.91679 
L 353.702698 177.243689 
L 353.837186 183.242325 
L 354.106163 249.276607 
L 354.240651 250.848961 
L 354.375139 262.066121 
L 354.509627 263.026948 
L 354.644115 271.823947 
L 354.778604 270.780886 
L 355.04758 276.727837 
L 355.451045 265.438724 
L 355.585533 257.300214 
L 355.720021 234.592297 
L 355.988998 160.125122 
L 356.123486 171.557247 
L 356.392462 147.808088 
L 356.795927 170.643198 
L 357.602856 268.847001 
L 357.737344 264.406019 
L 357.871832 271.639913 
L 358.006321 272.0841 
L 358.140809 274.685725 
L 358.409785 271.442227 
L 358.544274 271.503364 
L 358.678762 270.814243 
L 358.947738 267.685328 
L 359.216715 247.204534 
L 359.351203 246.9028 
L 359.485691 249.312547 
L 359.620179 248.095214 
L 359.754667 242.014065 
L 359.889156 255.453059 
L 360.023644 257.531097 
L 360.158132 255.056826 
L 360.427109 267.455637 
L 360.561597 271.294083 
L 360.830573 268.938 
L 360.965061 269.030717 
L 361.09955 272.740757 
L 361.234038 272.820572 
L 361.637502 269.443957 
L 361.771991 271.191674 
L 361.906479 270.742818 
L 362.040967 269.450457 
L 362.309944 272.987666 
L 362.57892 274.093503 
L 362.847896 269.525868 
L 362.982385 272.195202 
L 363.116873 272.187517 
L 363.251361 273.094297 
L 363.385849 272.431347 
L 363.520337 272.456141 
L 363.654826 273.230371 
L 363.923802 270.282511 
L 364.05829 269.566939 
L 364.192778 277.817622 
L 364.327267 279.039323 
L 364.461755 237.406289 
L 364.596243 231.099078 
L 364.730731 245.281949 
L 364.86522 241.516593 
L 364.999708 241.89834 
L 365.134196 235.41375 
L 365.806637 103.014724 
L 365.941125 109.156306 
L 366.075613 101.091641 
L 366.210102 104.449355 
L 366.748055 189.245627 
L 367.017031 250.091975 
L 367.151519 248.752998 
L 367.286007 252.266866 
L 367.420496 258.997406 
L 367.554984 256.81367 
L 367.82396 265.891143 
L 367.958448 258.566063 
L 368.092937 257.488667 
L 368.227425 257.35045 
L 368.899866 82.339329 
L 369.034354 97.507157 
L 369.168842 93.64955 
L 369.303331 76.683379 
L 369.572307 108.452122 
L 369.975772 181.241874 
L 370.244748 249.166518 
L 370.379236 248.432582 
L 370.513724 243.148832 
L 370.782701 260.281701 
L 370.917189 287.245749 
L 371.051677 287.86906 
L 371.186166 270.067171 
L 371.455142 263.040128 
L 371.724118 225.71166 
L 371.993095 137.327187 
L 372.127583 149.046989 
L 372.396559 196.329125 
L 372.531048 185.824223 
L 373.069001 222.499173 
L 373.203489 244.447746 
L 373.472465 252.560693 
L 373.606953 260.997291 
L 373.741442 256.910775 
L 374.279394 295.488 
L 374.817347 250.474856 
L 374.951836 231.89792 
L 375.220812 167.41681 
L 375.3553 167.603818 
L 375.489788 166.318137 
L 375.758765 176.306324 
L 375.893253 178.166806 
L 376.700182 259.687648 
L 376.83467 264.778532 
L 376.969159 259.333489 
L 377.103647 268.819399 
L 377.238135 269.861067 
L 377.372623 285.07192 
L 377.507112 279.602129 
L 377.776088 266.453698 
L 377.910576 256.939443 
L 378.045064 262.451061 
L 378.314041 258.951543 
L 378.448529 239.102633 
L 378.583017 236.802688 
L 378.717505 229.466421 
L 378.851994 234.657934 
L 379.12097 261.442737 
L 379.255458 263.852291 
L 379.389947 263.899158 
L 379.524435 270.103762 
L 379.658923 269.550327 
L 379.927899 276.054646 
L 380.062388 273.176776 
L 380.196876 273.391765 
L 380.331364 272.830944 
L 380.465852 272.823979 
L 380.60034 261.756405 
L 380.734829 260.747097 
L 380.869317 265.512022 
L 381.003805 265.84587 
L 381.138293 264.443242 
L 381.541758 207.666618 
L 381.676246 136.84356 
L 381.810734 132.201946 
L 381.945223 142.301432 
L 382.079711 131.261762 
L 382.214199 134.33511 
L 382.617664 162.062582 
L 383.155616 257.951587 
L 383.290105 261.958696 
L 383.424593 261.573025 
L 383.559081 265.459799 
L 383.693569 265.754854 
L 383.962546 256.201961 
L 384.097034 256.627005 
L 384.231522 255.58749 
L 384.36601 255.533932 
L 384.500499 251.060085 
L 384.634987 251.584748 
L 385.038451 150.843887 
L 385.17294 157.446686 
L 385.307428 143.122255 
L 385.441916 149.037311 
L 385.576404 176.882069 
L 385.710893 177.763216 
L 385.845381 183.309939 
L 386.114357 228.862827 
L 386.517822 260.836452 
L 386.65231 259.43025 
L 386.786798 272.460248 
L 386.921286 273.391644 
L 387.055775 279.666368 
L 387.190263 278.097835 
L 387.324751 268.375135 
L 387.459239 266.870994 
L 387.728216 260.377267 
L 387.862704 264.41003 
L 387.997192 263.458125 
L 388.13168 266.21608 
L 388.266169 265.928025 
L 388.535145 273.294131 
L 388.669633 270.127372 
L 388.804121 273.777102 
L 388.93861 271.956904 
L 389.073098 278.690109 
L 389.207586 276.667056 
L 389.342074 277.927557 
L 389.611051 283.218481 
L 389.745539 283.893472 
L 389.880027 278.999693 
L 390.014515 283.188636 
L 390.149004 283.540999 
L 390.41798 250.63245 
L 390.552468 258.13557 
L 390.821445 250.856699 
L 390.955933 235.393488 
L 391.090421 235.36988 
L 391.224909 220.319087 
L 391.359397 152.55648 
L 391.493886 156.639807 
L 391.762862 155.463498 
L 391.89735 174.07918 
L 392.031839 174.024957 
L 392.300815 185.219911 
L 392.973256 269.787996 
L 393.107744 265.145436 
L 393.376721 271.647253 
L 393.645697 252.82774 
L 393.780185 260.90575 
L 393.914673 260.598634 
L 394.049162 245.900445 
L 394.18365 244.432639 
L 394.318138 228.427058 
L 394.587115 143.0068 
L 394.721603 141.765779 
L 394.856091 150.485511 
L 394.990579 140.387958 
L 395.125067 141.303543 
L 395.528532 175.455443 
L 396.200973 259.019726 
L 396.335461 256.113671 
L 396.46995 263.234971 
L 396.604438 257.178439 
L 396.738926 288.409388 
L 396.873414 291.259556 
L 397.007902 274.776773 
L 397.276879 271.275107 
L 397.545855 234.731274 
L 397.814832 148.173117 
L 397.94932 169.244802 
L 398.352785 154.371362 
L 398.487273 165.402783 
L 398.487273 165.402783 
" clip-path="url(#pbd7738d0d9)" style="fill: none; stroke: #ff7f0e; stroke-width: 1.5; stroke-linecap: square"/>
   </g>
   <g id="patch_3">
    <path d="M 57.6 307.584 
L 57.6 41.472 
" style="fill: none; stroke: #000000; stroke-width: 0.8; stroke-linejoin: miter; stroke-linecap: square"/>
   </g>
   <g id="patch_4">
    <path d="M 414.72 307.584 
L 414.72 41.472 
" style="fill: none; stroke: #000000; stroke-width: 0.8; stroke-linejoin: miter; stroke-linecap: square"/>
   </g>
   <g id="patch_5">
    <path d="M 57.6 307.584 
L 414.72 307.584 
" style="fill: none; stroke: #000000; stroke-width: 0.8; stroke-linejoin: miter; stroke-linecap: square"/>
   </g>
   <g id="patch_6">
    <path d="M 57.6 41.472 
L 414.72 41.472 
" style="fill: none; stroke: #000000; stroke-width: 0.8; stroke-linejoin: miter; stroke-linecap: square"/>
   </g>
  </g>
 </g>
 <defs>
  <clipPath id="pbd7738d0d9">
   <rect x="57.6" y="41.472" width="357.12" height="266.112"/>
  </clipPath>
 </defs>
</svg>
