<?xml version="1.0" encoding="utf-8" standalone="no"?>
<!DOCTYPE svg PUBLIC "-//W3C//DTD SVG 1.1//EN"
  "http://www.w3.org/Graphics/SVG/1.1/DTD/svg11.dtd">
<svg xmlns:xlink="http://www.w3.org/1999/xlink" width="460.8pt" height="345.6pt" viewBox="0 0 460.8 345.6" xmlns="http://www.w3.org/2000/svg" version="1.1">
 <metadata>
  <rdf:RDF xmlns:dc="http://purl.org/dc/elements/1.1/" xmlns:cc="http://creativecommons.org/ns#" xmlns:rdf="http://www.w3.org/1999/02/22-rdf-syntax-ns#">
   <cc:Work>
    <dc:type rdf:resource="http://purl.org/dc/dcmitype/StillImage"/>
    <dc:date>2023-04-04T01:34:46.116472</dc:date>
    <dc:format>image/svg+xml</dc:format>
    <dc:creator>
     <cc:Agent>
      <dc:title>Matplotlib v3.5.2, https://matplotlib.org/</dc:title>
     </cc:Agent>
    </dc:creator>
   </cc:Work>
  </rdf:RDF>
 </metadata>
 <defs>
  <style type="text/css">*{stroke-linejoin: round; stroke-linecap: butt}</style>
 </defs>
 <g id="figure_1">
  <g id="patch_1">
   <path d="M 0 345.6 
L 460.8 345.6 
L 460.8 0 
L 0 0 
z
" style="fill: #ffffff"/>
  </g>
  <g id="axes_1">
   <g id="patch_2">
    <path d="M 57.6 307.584 
L 414.72 307.584 
L 414.72 41.472 
L 57.6 41.472 
z
" style="fill: #ffffff"/>
   </g>
   <g id="matplotlib.axis_1">
    <g id="xtick_1">
     <g id="line2d_1">
      <defs>
       <path id="m329ac0055d" d="M 0 0 
L 0 3.5 
" style="stroke: #000000; stroke-width: 0.8"/>
      </defs>
      <g>
       <use xlink:href="#m329ac0055d" x="73.832727" y="307.584" style="stroke: #000000; stroke-width: 0.8"/>
      </g>
     </g>
     <g id="text_1">
      <!-- 0 -->
      <g transform="translate(70.651477 322.182437)scale(0.1 -0.1)">
       <defs>
        <path id="DejaVuSans-30" d="M 2034 4250 
Q 1547 4250 1301 3770 
Q 1056 3291 1056 2328 
Q 1056 1369 1301 889 
Q 1547 409 2034 409 
Q 2525 409 2770 889 
Q 3016 1369 3016 2328 
Q 3016 3291 2770 3770 
Q 2525 4250 2034 4250 
z
M 2034 4750 
Q 2819 4750 3233 4129 
Q 3647 3509 3647 2328 
Q 3647 1150 3233 529 
Q 2819 -91 2034 -91 
Q 1250 -91 836 529 
Q 422 1150 422 2328 
Q 422 3509 836 4129 
Q 1250 4750 2034 4750 
z
" transform="scale(0.015625)"/>
       </defs>
       <use xlink:href="#DejaVuSans-30"/>
      </g>
     </g>
    </g>
    <g id="xtick_2">
     <g id="line2d_2">
      <g>
       <use xlink:href="#m329ac0055d" x="141.076834" y="307.584" style="stroke: #000000; stroke-width: 0.8"/>
      </g>
     </g>
     <g id="text_2">
      <!-- 500 -->
      <g transform="translate(131.533084 322.182437)scale(0.1 -0.1)">
       <defs>
        <path id="DejaVuSans-35" d="M 691 4666 
L 3169 4666 
L 3169 4134 
L 1269 4134 
L 1269 2991 
Q 1406 3038 1543 3061 
Q 1681 3084 1819 3084 
Q 2600 3084 3056 2656 
Q 3513 2228 3513 1497 
Q 3513 744 3044 326 
Q 2575 -91 1722 -91 
Q 1428 -91 1123 -41 
Q 819 9 494 109 
L 494 744 
Q 775 591 1075 516 
Q 1375 441 1709 441 
Q 2250 441 2565 725 
Q 2881 1009 2881 1497 
Q 2881 1984 2565 2268 
Q 2250 2553 1709 2553 
Q 1456 2553 1204 2497 
Q 953 2441 691 2322 
L 691 4666 
z
" transform="scale(0.015625)"/>
       </defs>
       <use xlink:href="#DejaVuSans-35"/>
       <use xlink:href="#DejaVuSans-30" x="63.623047"/>
       <use xlink:href="#DejaVuSans-30" x="127.246094"/>
      </g>
     </g>
    </g>
    <g id="xtick_3">
     <g id="line2d_3">
      <g>
       <use xlink:href="#m329ac0055d" x="208.32094" y="307.584" style="stroke: #000000; stroke-width: 0.8"/>
      </g>
     </g>
     <g id="text_3">
      <!-- 1000 -->
      <g transform="translate(195.59594 322.182437)scale(0.1 -0.1)">
       <defs>
        <path id="DejaVuSans-31" d="M 794 531 
L 1825 531 
L 1825 4091 
L 703 3866 
L 703 4441 
L 1819 4666 
L 2450 4666 
L 2450 531 
L 3481 531 
L 3481 0 
L 794 0 
L 794 531 
z
" transform="scale(0.015625)"/>
       </defs>
       <use xlink:href="#DejaVuSans-31"/>
       <use xlink:href="#DejaVuSans-30" x="63.623047"/>
       <use xlink:href="#DejaVuSans-30" x="127.246094"/>
       <use xlink:href="#DejaVuSans-30" x="190.869141"/>
      </g>
     </g>
    </g>
    <g id="xtick_4">
     <g id="line2d_4">
      <g>
       <use xlink:href="#m329ac0055d" x="275.565046" y="307.584" style="stroke: #000000; stroke-width: 0.8"/>
      </g>
     </g>
     <g id="text_4">
      <!-- 1500 -->
      <g transform="translate(262.840046 322.182437)scale(0.1 -0.1)">
       <use xlink:href="#DejaVuSans-31"/>
       <use xlink:href="#DejaVuSans-35" x="63.623047"/>
       <use xlink:href="#DejaVuSans-30" x="127.246094"/>
       <use xlink:href="#DejaVuSans-30" x="190.869141"/>
      </g>
     </g>
    </g>
    <g id="xtick_5">
     <g id="line2d_5">
      <g>
       <use xlink:href="#m329ac0055d" x="342.809153" y="307.584" style="stroke: #000000; stroke-width: 0.8"/>
      </g>
     </g>
     <g id="text_5">
      <!-- 2000 -->
      <g transform="translate(330.084153 322.182437)scale(0.1 -0.1)">
       <defs>
        <path id="DejaVuSans-32" d="M 1228 531 
L 3431 531 
L 3431 0 
L 469 0 
L 469 531 
Q 828 903 1448 1529 
Q 2069 2156 2228 2338 
Q 2531 2678 2651 2914 
Q 2772 3150 2772 3378 
Q 2772 3750 2511 3984 
Q 2250 4219 1831 4219 
Q 1534 4219 1204 4116 
Q 875 4013 500 3803 
L 500 4441 
Q 881 4594 1212 4672 
Q 1544 4750 1819 4750 
Q 2544 4750 2975 4387 
Q 3406 4025 3406 3419 
Q 3406 3131 3298 2873 
Q 3191 2616 2906 2266 
Q 2828 2175 2409 1742 
Q 1991 1309 1228 531 
z
" transform="scale(0.015625)"/>
       </defs>
       <use xlink:href="#DejaVuSans-32"/>
       <use xlink:href="#DejaVuSans-30" x="63.623047"/>
       <use xlink:href="#DejaVuSans-30" x="127.246094"/>
       <use xlink:href="#DejaVuSans-30" x="190.869141"/>
      </g>
     </g>
    </g>
    <g id="xtick_6">
     <g id="line2d_6">
      <g>
       <use xlink:href="#m329ac0055d" x="410.053259" y="307.584" style="stroke: #000000; stroke-width: 0.8"/>
      </g>
     </g>
     <g id="text_6">
      <!-- 2500 -->
      <g transform="translate(397.328259 322.182437)scale(0.1 -0.1)">
       <use xlink:href="#DejaVuSans-32"/>
       <use xlink:href="#DejaVuSans-35" x="63.623047"/>
       <use xlink:href="#DejaVuSans-30" x="127.246094"/>
       <use xlink:href="#DejaVuSans-30" x="190.869141"/>
      </g>
     </g>
    </g>
   </g>
   <g id="matplotlib.axis_2">
    <g id="ytick_1">
     <g id="line2d_7">
      <defs>
       <path id="m6d09c880eb" d="M 0 0 
L -3.5 0 
" style="stroke: #000000; stroke-width: 0.8"/>
      </defs>
      <g>
       <use xlink:href="#m6d09c880eb" x="57.6" y="281.171457" style="stroke: #000000; stroke-width: 0.8"/>
      </g>
     </g>
     <g id="text_7">
      <!-- 100 -->
      <g transform="translate(31.5125 284.970676)scale(0.1 -0.1)">
       <use xlink:href="#DejaVuSans-31"/>
       <use xlink:href="#DejaVuSans-30" x="63.623047"/>
       <use xlink:href="#DejaVuSans-30" x="127.246094"/>
      </g>
     </g>
    </g>
    <g id="ytick_2">
     <g id="line2d_8">
      <g>
       <use xlink:href="#m6d09c880eb" x="57.6" y="233.212433" style="stroke: #000000; stroke-width: 0.8"/>
      </g>
     </g>
     <g id="text_8">
      <!-- 200 -->
      <g transform="translate(31.5125 237.011652)scale(0.1 -0.1)">
       <use xlink:href="#DejaVuSans-32"/>
       <use xlink:href="#DejaVuSans-30" x="63.623047"/>
       <use xlink:href="#DejaVuSans-30" x="127.246094"/>
      </g>
     </g>
    </g>
    <g id="ytick_3">
     <g id="line2d_9">
      <g>
       <use xlink:href="#m6d09c880eb" x="57.6" y="185.253409" style="stroke: #000000; stroke-width: 0.8"/>
      </g>
     </g>
     <g id="text_9">
      <!-- 300 -->
      <g transform="translate(31.5125 189.052628)scale(0.1 -0.1)">
       <defs>
        <path id="DejaVuSans-33" d="M 2597 2516 
Q 3050 2419 3304 2112 
Q 3559 1806 3559 1356 
Q 3559 666 3084 287 
Q 2609 -91 1734 -91 
Q 1441 -91 1130 -33 
Q 819 25 488 141 
L 488 750 
Q 750 597 1062 519 
Q 1375 441 1716 441 
Q 2309 441 2620 675 
Q 2931 909 2931 1356 
Q 2931 1769 2642 2001 
Q 2353 2234 1838 2234 
L 1294 2234 
L 1294 2753 
L 1863 2753 
Q 2328 2753 2575 2939 
Q 2822 3125 2822 3475 
Q 2822 3834 2567 4026 
Q 2313 4219 1838 4219 
Q 1578 4219 1281 4162 
Q 984 4106 628 3988 
L 628 4550 
Q 988 4650 1302 4700 
Q 1616 4750 1894 4750 
Q 2613 4750 3031 4423 
Q 3450 4097 3450 3541 
Q 3450 3153 3228 2886 
Q 3006 2619 2597 2516 
z
" transform="scale(0.015625)"/>
       </defs>
       <use xlink:href="#DejaVuSans-33"/>
       <use xlink:href="#DejaVuSans-30" x="63.623047"/>
       <use xlink:href="#DejaVuSans-30" x="127.246094"/>
      </g>
     </g>
    </g>
    <g id="ytick_4">
     <g id="line2d_10">
      <g>
       <use xlink:href="#m6d09c880eb" x="57.6" y="137.294385" style="stroke: #000000; stroke-width: 0.8"/>
      </g>
     </g>
     <g id="text_10">
      <!-- 400 -->
      <g transform="translate(31.5125 141.093604)scale(0.1 -0.1)">
       <defs>
        <path id="DejaVuSans-34" d="M 2419 4116 
L 825 1625 
L 2419 1625 
L 2419 4116 
z
M 2253 4666 
L 3047 4666 
L 3047 1625 
L 3713 1625 
L 3713 1100 
L 3047 1100 
L 3047 0 
L 2419 0 
L 2419 1100 
L 313 1100 
L 313 1709 
L 2253 4666 
z
" transform="scale(0.015625)"/>
       </defs>
       <use xlink:href="#DejaVuSans-34"/>
       <use xlink:href="#DejaVuSans-30" x="63.623047"/>
       <use xlink:href="#DejaVuSans-30" x="127.246094"/>
      </g>
     </g>
    </g>
    <g id="ytick_5">
     <g id="line2d_11">
      <g>
       <use xlink:href="#m6d09c880eb" x="57.6" y="89.335361" style="stroke: #000000; stroke-width: 0.8"/>
      </g>
     </g>
     <g id="text_11">
      <!-- 500 -->
      <g transform="translate(31.5125 93.134579)scale(0.1 -0.1)">
       <use xlink:href="#DejaVuSans-35"/>
       <use xlink:href="#DejaVuSans-30" x="63.623047"/>
       <use xlink:href="#DejaVuSans-30" x="127.246094"/>
      </g>
     </g>
    </g>
   </g>
   <g id="line2d_12">
    <path d="M 73.832727 284.252345 
L 74.101704 283.701296 
L 74.236192 282.587208 
L 74.37068 283.554062 
L 74.505168 283.060084 
L 74.639657 283.663888 
L 74.774145 277.172154 
L 74.908633 249.972673 
L 75.177609 248.474913 
L 75.312098 249.032197 
L 75.446586 249.084952 
L 75.581074 249.954449 
L 75.715562 249.195737 
L 75.85005 249.173676 
L 76.253515 244.172509 
L 76.522492 278.338038 
L 76.65698 278.65217 
L 76.925956 276.940032 
L 77.060444 268.056103 
L 77.194933 270.30682 
L 77.463909 270.370605 
L 77.598397 271.959967 
L 77.732885 266.616853 
L 77.867374 253.167224 
L 78.405327 104.268362 
L 78.674303 103.343712 
L 78.808791 110.504474 
L 78.943279 105.68651 
L 79.481232 158.551743 
L 79.750209 229.150783 
L 80.019185 263.982463 
L 80.153673 266.113283 
L 80.288161 262.266489 
L 80.42265 272.695179 
L 80.557138 272.259232 
L 80.826114 274.774683 
L 80.960603 272.22662 
L 81.095091 261.880419 
L 81.364067 168.771331 
L 81.498555 181.110708 
L 81.767532 161.6451 
L 82.036508 169.672961 
L 82.170996 166.562338 
L 82.305485 160.568899 
L 83.112414 261.400829 
L 83.650367 287.666548 
L 83.784855 287.68717 
L 83.919343 289.22042 
L 84.053831 289.413215 
L 84.18832 287.309733 
L 84.322808 280.062645 
L 84.726273 189.648853 
L 84.860761 180.95676 
L 84.995249 185.065889 
L 85.129737 170.137684 
L 85.264225 178.706043 
L 85.398714 179.455642 
L 85.66769 187.777492 
L 85.802178 196.574616 
L 86.340131 263.533087 
L 86.474619 265.552162 
L 86.609107 270.477554 
L 86.878084 288.04974 
L 87.012572 290.307651 
L 87.14706 289.980091 
L 87.281549 291.475454 
L 87.416037 291.378097 
L 87.550525 290.564232 
L 87.819501 262.975803 
L 87.95399 263.122078 
L 88.088478 257.418312 
L 88.222966 258.882501 
L 88.357454 258.12235 
L 88.491942 254.753708 
L 88.626431 257.597199 
L 88.760919 250.581753 
L 88.895407 253.467927 
L 89.029895 253.466488 
L 89.164384 256.035173 
L 89.43336 277.401398 
L 89.567848 279.069893 
L 89.702336 278.57016 
L 89.836825 279.633411 
L 89.971313 264.437594 
L 90.105801 265.153143 
L 90.240289 266.70222 
L 90.374777 266.471057 
L 90.509266 267.710798 
L 90.643754 267.882971 
L 90.778242 269.988852 
L 90.91273 266.755934 
L 91.047218 256.786691 
L 91.181707 255.612175 
L 91.316195 248.659555 
L 91.450683 253.107755 
L 91.585171 251.13568 
L 91.71966 252.638715 
L 91.854148 252.865562 
L 92.123124 255.857725 
L 92.257612 255.283176 
L 92.526589 260.895821 
L 92.795565 267.513686 
L 92.930053 268.471908 
L 93.064542 267.327605 
L 93.19903 277.377898 
L 93.468006 277.503071 
L 93.602495 278.567282 
L 93.736983 277.32898 
L 93.871471 274.797223 
L 94.005959 269.560098 
L 94.6784 161.933333 
L 94.812888 157.520144 
L 95.081865 169.423094 
L 95.216353 164.187408 
L 95.350841 152.879629 
L 96.023282 265.880202 
L 96.157771 266.612536 
L 96.426747 270.554768 
L 96.561235 270.220014 
L 96.695723 270.297708 
L 96.830212 272.187773 
L 96.9647 271.54752 
L 97.099188 270.114504 
L 97.233676 261.613767 
L 97.368164 243.982112 
L 97.502653 202.799218 
L 97.637141 195.675384 
L 97.771629 180.141936 
L 97.906117 188.570735 
L 98.040606 181.831053 
L 98.175094 182.543724 
L 98.309582 177.203487 
L 98.44407 178.852318 
L 98.713047 190.266566 
L 98.982023 232.379385 
L 99.250999 267.367891 
L 99.385488 272.073151 
L 99.519976 272.830424 
L 99.654464 282.674973 
L 99.788952 282.687442 
L 99.923441 281.682221 
L 100.192417 282.925319 
L 100.326905 283.006369 
L 100.461393 282.348851 
L 100.595882 282.756503 
L 100.73037 283.588592 
L 100.864858 282.043832 
L 100.999346 283.20444 
L 101.133834 282.292739 
L 101.268323 280.0684 
L 101.402811 273.014586 
L 101.537299 277.304041 
L 101.806276 266.875831 
L 101.940764 269.045498 
L 102.075252 268.896345 
L 102.20974 269.547149 
L 102.344228 271.935508 
L 102.478717 277.777397 
L 102.613205 275.917546 
L 102.747693 281.610762 
L 102.882181 268.098307 
L 103.016669 268.127082 
L 103.151158 273.053433 
L 103.285646 272.833301 
L 103.554622 268.635448 
L 103.68911 264.429921 
L 103.823599 246.93303 
L 104.092575 184.410769 
L 104.227063 162.839759 
L 104.361552 170.033613 
L 104.630528 145.057512 
L 105.033993 160.437491 
L 105.168481 171.261364 
L 105.706434 254.664505 
L 105.840922 254.541729 
L 105.97541 263.276027 
L 106.109898 279.77537 
L 106.378875 282.977594 
L 106.513363 282.963686 
L 106.647851 285.129515 
L 106.782339 284.859986 
L 106.916828 285.975992 
L 107.320292 248.250944 
L 107.45478 255.343604 
L 107.589269 252.799378 
L 107.723757 252.892419 
L 108.26171 247.808762 
L 108.396198 244.387845 
L 108.530686 246.656786 
L 108.934151 278.395589 
L 109.068639 279.916849 
L 109.203127 278.845445 
L 109.337615 274.331541 
L 109.606592 275.886373 
L 109.875568 276.94291 
L 110.144545 277.99609 
L 110.413521 276.753472 
L 110.548009 276.618227 
L 110.951474 272.552741 
L 111.085962 273.730615 
L 111.22045 273.381952 
L 111.623915 267.564523 
L 111.758403 268.074327 
L 112.02738 271.869804 
L 112.430844 273.473075 
L 112.565333 263.194976 
L 112.834309 267.409615 
L 112.968797 267.934767 
L 113.103285 269.448833 
L 113.237774 269.62772 
L 113.50675 272.252997 
L 113.641238 273.085566 
L 114.313679 261.819511 
L 114.448168 261.457421 
L 114.582656 259.971171 
L 114.98612 249.11085 
L 115.524073 260.202813 
L 115.658561 260.754341 
L 115.927538 262.985875 
L 116.062026 261.698655 
L 116.196514 267.811512 
L 116.331002 267.393309 
L 116.465491 268.005746 
L 116.599979 258.226421 
L 117.137932 79.181956 
L 117.406908 64.450382 
L 117.810373 81.023103 
L 118.213837 148.359011 
L 118.482814 210.823722 
L 118.75179 245.325444 
L 118.886279 246.862531 
L 119.289743 254.872647 
L 119.424231 256.293673 
L 119.55872 259.0705 
L 119.693208 259.387989 
L 119.827696 249.752541 
L 120.365649 92.065668 
L 120.634625 73.461403 
L 120.769114 77.160483 
L 120.903602 70.727739 
L 121.03809 72.058602 
L 121.441555 135.620615 
L 121.710531 202.589637 
L 121.845019 230.82791 
L 122.248484 241.815323 
L 122.51746 257.363159 
L 122.651948 257.522862 
L 122.786437 259.265214 
L 122.920925 257.921881 
L 123.055413 249.744388 
L 123.727854 60.48561 
L 123.862342 53.568 
L 124.534783 107.811575 
L 125.072736 249.044187 
L 125.207225 254.225679 
L 125.341713 254.689923 
L 125.476201 254.643403 
L 125.745177 268.270959 
L 125.879666 269.710689 
L 126.014154 269.940893 
L 126.28313 256.462009 
L 126.821083 93.173521 
L 126.955571 74.784593 
L 127.09006 81.396224 
L 127.359036 105.984336 
L 127.493524 108.432164 
L 127.762501 126.967368 
L 127.896989 149.816966 
L 128.300453 247.423171 
L 128.434942 253.237244 
L 128.56943 251.406168 
L 128.703918 258.922786 
L 128.838406 259.648406 
L 129.241871 266.355476 
L 129.510847 245.601688 
L 130.0488 83.574523 
L 130.183288 74.446961 
L 130.317777 86.390197 
L 130.452265 115.273999 
L 130.586753 114.353665 
L 130.721241 110.698708 
L 130.855729 117.102197 
L 131.124706 170.486346 
L 131.393682 236.268382 
L 131.662659 259.417723 
L 131.931635 259.221091 
L 132.066123 259.038368 
L 132.3351 270.333677 
L 132.469588 270.185004 
L 132.604076 270.284279 
L 132.738564 270.242555 
L 133.007541 258.326656 
L 133.276517 247.845211 
L 133.679982 242.255587 
L 133.81447 241.070999 
L 133.948958 235.961444 
L 134.486911 245.858748 
L 134.755888 252.960041 
L 134.890376 252.844939 
L 135.697305 267.116586 
L 135.831793 271.876519 
L 135.966282 272.487037 
L 136.10077 270.500574 
L 136.235258 272.006967 
L 136.369746 271.732162 
L 136.504234 267.424003 
L 136.638723 267.264779 
L 136.907699 265.326275 
L 137.311164 254.421832 
L 137.445652 254.932595 
L 137.58014 252.244972 
L 137.983605 259.071459 
L 138.118093 258.167911 
L 138.252581 260.006181 
L 138.387069 264.506655 
L 138.521558 263.271231 
L 138.656046 263.472659 
L 138.925022 268.17696 
L 139.193999 251.902065 
L 139.731951 81.71707 
L 139.86644 72.782783 
L 140.269904 98.843237 
L 140.538881 123.318166 
L 140.673369 130.422816 
L 140.807857 144.811003 
L 141.076834 225.077144 
L 141.480298 258.331452 
L 142.018251 266.786627 
L 142.152739 266.321905 
L 142.421716 242.539024 
L 142.959669 91.73523 
L 143.094157 84.304459 
L 143.228645 83.815757 
L 143.363133 94.061722 
L 143.497621 84.769182 
L 143.63211 89.906073 
L 144.573527 259.581743 
L 144.708015 263.078436 
L 144.842504 263.254445 
L 145.11148 265.501326 
L 145.245968 267.648931 
L 145.380456 263.562822 
L 145.783921 202.272628 
L 146.052897 110.395127 
L 146.187386 91.235497 
L 146.456362 106.579987 
L 146.59085 117.925174 
L 146.725339 112.222846 
L 146.859827 119.652178 
L 146.994315 114.564205 
L 147.128803 127.450795 
L 147.532268 234.949509 
L 147.801244 261.022432 
L 147.935732 261.225299 
L 148.204709 266.509424 
L 148.339197 266.487843 
L 148.473685 266.992851 
L 148.742662 265.936794 
L 148.87715 248.203944 
L 149.280615 119.515975 
L 149.415103 115.465355 
L 149.549591 106.356977 
L 149.684079 107.616381 
L 150.087544 140.423711 
L 150.222032 132.708543 
L 150.35652 138.244933 
L 150.894473 253.420447 
L 151.028961 262.619947 
L 151.16345 261.659328 
L 151.835891 269.859362 
L 151.970379 268.583173 
L 152.104867 247.570406 
L 152.508332 113.488005 
L 152.64282 116.606301 
L 152.911796 104.716779 
L 153.046285 118.909293 
L 153.180773 117.403859 
L 153.449749 151.982315 
L 153.718726 193.054424 
L 153.987702 249.852296 
L 154.12219 266.955443 
L 154.256678 268.338582 
L 154.525655 272.212711 
L 154.794631 273.921971 
L 155.063608 276.875767 
L 155.198096 278.52268 
L 155.332584 277.877152 
L 155.467072 273.482666 
L 155.601561 262.974365 
L 155.736049 262.110623 
L 155.870537 259.236438 
L 156.005025 261.382125 
L 156.274002 259.479111 
L 156.40849 260.017211 
L 156.542978 261.274697 
L 156.677466 260.074282 
L 157.215419 268.108378 
L 157.349907 270.120739 
L 157.484396 269.125589 
L 157.618884 269.898209 
L 157.88786 273.084127 
L 158.022348 273.566595 
L 158.291325 276.575064 
L 158.560301 280.869795 
L 158.694789 279.298657 
L 158.829278 280.265991 
L 158.963766 279.868411 
L 159.232742 277.145777 
L 159.367231 277.428735 
L 159.501719 275.438915 
L 160.039672 261.311625 
L 160.308648 261.571563 
L 160.443136 267.308422 
L 160.577624 267.024025 
L 160.712113 265.062501 
L 160.846601 265.766539 
L 160.981089 267.26334 
L 161.250066 271.03196 
L 161.519042 271.986345 
L 161.788018 255.169993 
L 162.460459 84.001838 
L 162.594948 83.664206 
L 162.729436 82.200497 
L 162.998412 101.852666 
L 163.132901 110.825799 
L 163.401877 152.221151 
L 163.670853 223.172211 
L 164.074318 257.368434 
L 164.208806 258.505063 
L 164.477783 271.199817 
L 164.612271 273.568513 
L 164.746759 268.851743 
L 165.015735 251.288189 
L 165.4192 121.133632 
L 165.553688 123.740685 
L 165.822665 109.805231 
L 165.957153 115.076887 
L 166.091641 111.982571 
L 166.360618 100.493507 
L 166.495106 106.706119 
L 166.89857 222.270102 
L 167.033059 229.263007 
L 167.302035 247.708528 
L 167.974476 266.228864 
L 168.108964 260.538046 
L 168.243453 246.483654 
L 168.377941 208.291965 
L 168.646917 106.531548 
L 168.781405 107.818289 
L 168.915894 103.278967 
L 169.050382 104.582973 
L 169.18487 108.389961 
L 169.319358 93.016216 
L 169.453847 95.501932 
L 169.857311 149.038111 
L 170.126288 227.470779 
L 170.395264 258.378931 
L 170.529752 259.261377 
L 170.66424 262.708672 
L 170.798729 262.898589 
L 171.067705 265.232755 
L 171.202193 268.075766 
L 171.47117 246.222757 
L 172.009123 110.606147 
L 172.143611 109.024938 
L 172.412587 97.232294 
L 172.95054 129.831001 
L 173.622981 260.354363 
L 173.757469 264.355585 
L 173.891958 277.775958 
L 174.026446 276.844114 
L 174.160934 276.799992 
L 174.42991 278.33564 
L 174.698887 263.499996 
L 174.833375 246.32443 
L 175.102351 177.595792 
L 175.371328 144.120872 
L 175.505816 141.212157 
L 175.640304 151.409685 
L 175.774792 151.098431 
L 175.909281 152.511783 
L 176.043769 157.333583 
L 176.178257 157.024727 
L 176.312745 171.543842 
L 176.581722 239.41881 
L 176.850698 266.63124 
L 176.985186 264.129218 
L 177.254163 268.87908 
L 177.388651 268.835437 
L 177.792116 275.415415 
L 177.926604 276.308892 
L 178.19558 265.557917 
L 178.330069 265.116215 
L 178.599045 257.524301 
L 178.733533 256.956946 
L 178.868021 259.272887 
L 179.136998 255.750776 
L 179.271486 256.348825 
L 179.540462 253.854477 
L 179.809439 261.386921 
L 179.943927 268.682927 
L 180.212904 266.774638 
L 180.48188 276.677217 
L 180.616368 276.691125 
L 180.750856 277.064726 
L 180.885345 277.899213 
L 181.019833 277.986019 
L 181.692274 265.630815 
L 181.826762 266.931464 
L 181.96125 260.925555 
L 182.095738 262.714427 
L 182.364715 268.173123 
L 182.499203 269.456027 
L 182.633691 272.615567 
L 182.902668 271.794509 
L 183.171644 277.948611 
L 183.306132 279.370116 
L 183.440621 278.256028 
L 183.575109 275.945362 
L 183.844085 287.723139 
L 183.978573 288.678004 
L 184.113062 286.390358 
L 184.382038 274.960764 
L 184.919991 182.879917 
L 185.054479 186.910873 
L 185.188967 179.811019 
L 185.457944 183.686108 
L 185.592432 185.191062 
L 185.995897 223.091161 
L 186.264873 253.806038 
L 186.53385 269.623404 
L 186.802826 279.916849 
L 187.071802 290.454406 
L 187.206291 289.299553 
L 187.340779 290.4381 
L 187.475267 287.248345 
L 187.609755 279.219045 
L 188.01322 203.016472 
L 188.147708 186.553578 
L 188.282196 186.77323 
L 188.416684 185.811172 
L 188.551173 189.136172 
L 188.685661 195.562681 
L 188.820149 191.133665 
L 188.954637 195.586181 
L 189.089126 203.991479 
L 189.627078 266.235099 
L 189.761567 268.833998 
L 189.896055 274.090307 
L 190.030543 271.644877 
L 190.299519 273.483626 
L 190.434008 272.30767 
L 190.971961 275.745853 
L 191.106449 272.279854 
L 191.240937 271.79259 
L 191.375425 272.232854 
L 191.509913 267.786573 
L 191.644402 269.341884 
L 191.913378 268.07097 
L 192.182354 262.412285 
L 192.316843 262.762386 
L 192.451331 262.262173 
L 192.585819 263.58824 
L 192.720307 269.381211 
L 192.989284 270.643972 
L 193.392748 267.945797 
L 193.661725 270.839645 
L 193.796213 271.376306 
L 194.065189 263.457312 
L 194.603142 159.287914 
L 194.73763 154.356287 
L 194.872119 144.364025 
L 195.006607 145.946193 
L 195.141095 150.709483 
L 195.275583 143.28063 
L 195.54456 156.72882 
L 195.948024 251.139516 
L 196.217001 261.518329 
L 196.351489 263.452996 
L 196.485977 272.965189 
L 196.620465 272.310068 
L 196.889442 272.869271 
L 197.02393 274.002542 
L 197.158418 272.265466 
L 197.292907 265.91761 
L 197.830859 196.915125 
L 197.965348 199.236342 
L 198.099836 195.904629 
L 198.234324 200.32693 
L 198.5033 186.945883 
L 198.772277 200.803643 
L 199.31023 273.644288 
L 199.713694 282.79487 
L 199.848183 281.621313 
L 200.117159 282.352208 
L 200.251647 280.561418 
L 200.386135 274.758376 
L 200.520624 274.353602 
L 200.655112 261.34136 
L 200.7896 213.920916 
L 200.924088 211.942606 
L 201.058576 200.20991 
L 201.193065 199.850217 
L 201.327553 197.153961 
L 201.462041 199.335617 
L 201.731018 187.486381 
L 201.865506 188.853213 
L 202.134482 211.643342 
L 202.403459 265.339704 
L 202.806923 275.179457 
L 203.0759 266.672485 
L 203.210388 271.017573 
L 203.344876 271.144184 
L 203.748341 261.728389 
L 203.882829 244.268427 
L 204.151805 182.048307 
L 204.420782 165.50724 
L 204.55527 159.854789 
L 204.689758 163.305921 
L 204.824246 156.779177 
L 204.958735 172.869909 
L 205.093223 173.117378 
L 205.765664 261.145207 
L 205.900152 261.658369 
L 206.03464 265.474469 
L 206.169129 280.385888 
L 206.303617 280.868836 
L 206.572593 284.824016 
L 206.84157 285.63884 
L 207.110546 276.211055 
L 207.379522 266.989494 
L 207.514011 266.108007 
L 207.917475 274.260082 
L 208.051964 274.012614 
L 208.32094 267.624951 
L 208.589916 269.233497 
L 208.858893 277.318909 
L 208.993381 280.987774 
L 209.127869 281.573833 
L 209.262357 281.02758 
L 209.396846 275.148283 
L 209.531334 276.250382 
L 209.80031 275.833618 
L 209.934799 276.828768 
L 210.203775 264.596339 
L 211.010704 108.817755 
L 211.279681 134.547771 
L 211.683145 167.788171 
L 212.221098 255.797297 
L 212.355586 258.271503 
L 212.759051 273.576666 
L 212.893539 273.368524 
L 213.028027 273.469238 
L 213.162516 276.129525 
L 213.431492 258.350635 
L 213.56598 220.108589 
L 213.834957 135.832114 
L 213.969445 140.43714 
L 214.103933 139.341276 
L 214.238421 142.315215 
L 214.910862 180.800414 
L 215.448815 261.440155 
L 215.583303 266.427894 
L 215.717792 267.048484 
L 216.121256 271.329786 
L 216.255745 272.291364 
L 216.390233 274.692673 
L 216.524721 270.666513 
L 216.659209 263.114405 
L 217.062674 149.529211 
L 217.197162 151.44997 
L 217.33165 151.531021 
L 217.466138 163.047901 
L 217.600627 161.758283 
L 217.735115 149.849578 
L 217.869603 155.103968 
L 218.273068 197.486797 
L 218.542044 256.574712 
L 218.811021 273.449575 
L 218.945509 265.996742 
L 219.483462 276.765941 
L 219.61795 278.572558 
L 219.886926 264.75892 
L 220.290391 162.706433 
L 220.693856 150.992441 
L 220.828344 161.705528 
L 220.962832 157.766653 
L 221.231808 185.045746 
L 221.500785 198.975445 
L 221.769761 256.43755 
L 222.038738 272.142691 
L 222.173226 271.386378 
L 222.307714 272.617006 
L 222.576691 278.695812 
L 222.845667 281.346987 
L 222.980155 279.666983 
L 223.114643 281.548895 
L 223.38362 260.901576 
L 223.518108 264.784338 
L 223.652596 264.627033 
L 223.921573 257.632689 
L 224.190549 256.956946 
L 224.325037 259.458009 
L 224.459525 258.826389 
L 224.728502 254.948422 
L 225.131967 262.253541 
L 225.266455 260.760097 
L 225.535431 262.239632 
L 225.669919 260.92028 
L 226.073384 270.737012 
L 226.34236 273.78337 
L 226.476849 273.710951 
L 226.745825 270.548054 
L 226.880313 272.843852 
L 227.014802 273.088443 
L 227.14929 272.789659 
L 227.283778 271.361918 
L 227.418266 273.048637 
L 227.552754 273.178127 
L 227.687243 273.007872 
L 227.956219 271.892345 
L 228.090707 277.743346 
L 228.225195 277.782673 
L 228.359684 278.891006 
L 228.494172 278.11359 
L 228.62866 279.090515 
L 228.763148 278.975413 
L 228.897637 276.67338 
L 229.301101 277.582683 
L 229.435589 271.331225 
L 229.570078 257.162211 
L 230.242519 94.745618 
L 230.377007 79.818372 
L 230.511495 109.980761 
L 230.780471 117.980327 
L 231.049448 145.616714 
L 231.587401 254.990626 
L 231.856377 266.282099 
L 232.125354 271.12596 
L 232.39433 275.811077 
L 232.528818 274.992417 
L 232.797795 257.784239 
L 232.932283 221.292697 
L 233.201259 133.603938 
L 233.335748 125.378486 
L 233.470236 135.737635 
L 233.604724 135.961124 
L 233.739212 148.830928 
L 233.8737 134.004396 
L 234.008189 140.768057 
L 234.815118 265.696998 
L 234.949606 265.428908 
L 235.218583 271.368633 
L 235.622047 279.153341 
L 235.756535 278.551935 
L 236.025512 265.818814 
L 236.563465 129.42335 
L 236.832441 117.137687 
L 237.63937 201.338386 
L 237.908347 259.762549 
L 238.177323 267.900236 
L 238.849764 282.908533 
L 238.984252 282.078842 
L 239.118741 278.257467 
L 239.253229 264.273095 
L 239.791182 128.648811 
L 240.194646 146.491007 
L 240.463623 165.733127 
L 240.732599 179.271 
L 241.270552 257.215445 
L 241.674017 263.126395 
L 241.942993 276.147749 
L 242.077481 282.686483 
L 242.21197 282.056781 
L 242.480946 263.980545 
L 242.884411 151.56699 
L 243.018899 159.486464 
L 243.153387 157.226155 
L 243.287875 146.181672 
L 243.422363 154.210492 
L 243.556852 151.381869 
L 243.825828 168.122445 
L 244.229293 240.544888 
L 244.498269 263.065487 
L 244.767246 268.370234 
L 245.17071 276.274841 
L 245.305198 277.144818 
L 245.439687 276.847472 
L 245.574175 275.611568 
L 245.708663 264.087973 
L 245.843151 269.568251 
L 246.112128 266.568894 
L 246.381104 261.359584 
L 246.515592 261.326013 
L 247.188033 271.628091 
L 247.322522 272.035743 
L 247.45701 272.907638 
L 247.591498 272.551302 
L 247.725986 275.732424 
L 247.860475 274.28646 
L 248.129451 275.617323 
L 248.263939 274.729121 
L 248.398427 275.415415 
L 248.532916 275.261467 
L 248.667404 277.217236 
L 248.801892 277.11796 
L 249.205357 278.665119 
L 249.339845 278.782139 
L 249.608821 277.828713 
L 249.743309 277.96108 
L 249.877798 277.659418 
L 250.550239 274.476857 
L 250.819215 274.778519 
L 250.953703 275.561211 
L 251.088192 274.419306 
L 251.357168 275.683506 
L 251.491656 284.626905 
L 251.626144 284.134845 
L 251.760633 284.567436 
L 251.895121 284.406773 
L 252.164097 272.101447 
L 252.70205 144.058046 
L 252.836538 163.890541 
L 252.971027 160.429338 
L 253.240003 173.401775 
L 253.374491 174.761413 
L 253.508979 171.821525 
L 253.777956 204.802946 
L 254.046932 256.413091 
L 254.315909 277.84454 
L 254.719373 286.240726 
L 254.853862 285.999492 
L 255.122838 287.741364 
L 255.391814 266.874393 
L 255.660791 173.191235 
L 255.795279 176.655315 
L 256.198744 160.906051 
L 256.333232 164.597457 
L 256.46772 161.919905 
L 256.602208 163.121758 
L 257.409138 258.665726 
L 257.812602 266.173711 
L 258.081579 281.454415 
L 258.216067 282.523422 
L 258.350555 281.790608 
L 258.619532 267.551094 
L 258.888508 178.01879 
L 259.022996 178.892124 
L 259.157484 169.795256 
L 259.291973 169.21687 
L 259.426461 153.657045 
L 259.695437 167.423683 
L 259.829925 156.238199 
L 259.964414 165.35521 
L 260.771343 261.75093 
L 261.040319 264.000208 
L 261.309296 271.53553 
L 261.443784 274.765091 
L 261.71276 271.836713 
L 261.847249 259.385591 
L 262.116225 170.800477 
L 262.250713 174.98778 
L 262.654178 148.43047 
L 262.788666 155.766283 
L 262.923154 150.973258 
L 263.326619 186.291722 
L 263.461107 197.242206 
L 263.864572 246.252492 
L 264.268036 264.382442 
L 264.402525 263.621332 
L 264.671501 267.067667 
L 264.805989 266.941056 
L 264.940478 265.985712 
L 265.074966 258.381329 
L 265.209454 239.17326 
L 265.612919 124.329622 
L 265.881895 106.130611 
L 266.016383 115.677814 
L 266.150871 115.546406 
L 266.28536 115.096071 
L 266.419848 119.749535 
L 266.688824 157.202176 
L 266.957801 236.391157 
L 267.226777 253.13653 
L 267.361265 251.707351 
L 267.495754 268.153939 
L 267.630242 267.836451 
L 267.76473 269.714526 
L 267.899218 270.027219 
L 268.168195 276.579381 
L 268.302683 277.468541 
L 268.437171 274.89458 
L 268.706147 277.443123 
L 268.975124 273.931563 
L 269.2441 272.037661 
L 269.916541 257.474424 
L 270.320006 259.373122 
L 270.588982 264.283646 
L 270.723471 278.449783 
L 270.857959 279.49481 
L 270.992447 278.009519 
L 271.126935 278.89724 
L 271.261424 278.926975 
L 271.395912 278.739935 
L 271.799376 281.53115 
L 271.933865 280.138899 
L 272.068353 280.495715 
L 272.202841 279.847788 
L 272.337329 280.085185 
L 272.471817 279.237749 
L 272.606306 277.061369 
L 272.740794 278.350507 
L 272.875282 278.026304 
L 273.00977 277.345766 
L 273.144258 274.99961 
L 273.278747 274.899376 
L 273.547723 277.892978 
L 273.682211 278.108314 
L 273.8167 278.795567 
L 273.951188 277.929427 
L 274.085676 288.63532 
L 274.354652 290.276478 
L 274.489141 288.696228 
L 274.758117 273.897032 
L 275.29607 166.803093 
L 275.565046 154.496807 
L 275.699535 154.835877 
L 275.834023 172.89197 
L 275.968511 175.18681 
L 276.102999 185.401123 
L 276.77544 265.171368 
L 277.447881 282.672095 
L 277.58237 286.088216 
L 277.716858 285.694952 
L 277.851346 281.271212 
L 277.985834 271.230031 
L 278.389299 210.372427 
L 278.523787 190.773972 
L 278.658275 188.764009 
L 278.792763 179.193307 
L 278.927252 191.394082 
L 279.06174 185.539724 
L 279.196228 187.642727 
L 279.330716 195.383314 
L 280.137646 275.604853 
L 280.272134 278.005202 
L 280.406622 269.599904 
L 280.54111 269.314068 
L 280.810087 270.491942 
L 280.944575 269.865117 
L 281.213551 261.899603 
L 281.348039 232.779363 
L 281.482528 161.898323 
L 281.617016 151.629337 
L 281.751504 128.091528 
L 281.885992 129.250218 
L 282.154969 142.840366 
L 282.289457 124.615937 
L 282.423945 128.728423 
L 282.558433 137.892913 
L 282.82741 186.627915 
L 283.096386 255.59395 
L 283.365363 262.263612 
L 283.499851 264.484115 
L 283.634339 263.808852 
L 283.768827 263.819403 
L 283.903316 264.0098 
L 284.037804 265.322438 
L 284.172292 265.452407 
L 284.441268 260.227751 
L 285.113709 144.258035 
L 285.248198 143.1756 
L 285.382686 138.61134 
L 285.517174 147.908676 
L 285.651662 144.788941 
L 285.78615 148.299062 
L 286.055127 201.748436 
L 286.324103 251.622464 
L 286.59308 261.358625 
L 286.727568 261.23633 
L 286.862056 280.288052 
L 286.996544 280.347521 
L 287.131033 279.363882 
L 287.265521 279.972961 
L 287.668985 276.425432 
L 287.803474 277.307878 
L 288.07245 276.42783 
L 288.206938 274.243776 
L 288.341427 274.188144 
L 288.475915 271.82808 
L 288.610403 271.454959 
L 288.744891 270.324565 
L 288.879379 273.169014 
L 289.013868 273.510483 
L 289.148356 270.683778 
L 289.417332 277.87955 
L 289.55182 279.07325 
L 289.820797 278.70972 
L 289.955285 279.504402 
L 290.089773 277.99657 
L 290.224262 279.552361 
L 290.35875 278.64018 
L 290.493238 279.625738 
L 290.627726 278.075223 
L 291.031191 259.99515 
L 291.300167 193.434259 
L 291.434655 187.818258 
L 291.569144 188.429255 
L 291.703632 192.515364 
L 291.972608 179.698315 
L 292.376073 192.852037 
L 293.048514 269.678077 
L 293.183002 270.931726 
L 293.31749 269.773516 
L 293.451979 270.52935 
L 293.586467 269.594628 
L 293.720955 272.083702 
L 293.855443 272.348436 
L 294.258908 248.292669 
L 294.527884 189.977373 
L 294.796861 158.116754 
L 294.931349 142.158389 
L 295.065837 142.023624 
L 295.200325 150.040455 
L 295.334814 144.288249 
L 295.60379 172.503502 
L 295.738278 187.075372 
L 296.141743 257.672974 
L 296.276231 256.778059 
L 296.410719 264.016994 
L 296.545208 281.793965 
L 296.948672 283.969387 
L 297.486625 285.945298 
L 297.621113 285.598075 
L 297.755601 285.594238 
L 298.024578 282.404963 
L 298.159066 282.253892 
L 298.428042 280.101491 
L 298.697019 276.257096 
L 298.831507 275.116151 
L 298.965995 274.973233 
L 299.100484 275.330528 
L 299.36946 279.133199 
L 299.503948 278.624353 
L 299.638436 280.174869 
L 299.772925 270.47036 
L 299.907413 273.8884 
L 300.041901 273.585299 
L 300.176389 274.455755 
L 300.310877 274.170878 
L 300.579854 263.149415 
L 301.252295 128.424843 
L 301.386783 128.493904 
L 301.521271 141.74738 
L 301.65576 134.773179 
L 301.790248 144.231658 
L 302.597177 253.537467 
L 302.731665 255.298523 
L 303.000642 267.764032 
L 303.13513 267.98944 
L 303.269618 268.471908 
L 303.404106 270.942757 
L 303.538595 271.363837 
L 303.807571 254.929238 
L 304.345524 164.7351 
L 304.6145 154.163492 
L 304.748988 162.439301 
L 304.883477 152.821598 
L 305.017965 158.930139 
L 306.093871 266.208242 
L 306.228359 267.223534 
L 306.497335 277.425857 
L 306.766312 278.460334 
L 306.9008 273.730135 
L 307.035288 263.142221 
L 307.304265 170.238398 
L 307.438753 177.533445 
L 307.842217 158.182938 
L 307.976706 165.266486 
L 308.111194 156.808912 
L 308.245682 161.794252 
L 308.649147 208.008048 
L 309.052611 264.632788 
L 309.590564 276.91989 
L 309.994029 278.631068 
L 310.128517 275.061478 
L 310.263005 262.387346 
L 310.531982 170.126653 
L 310.66647 171.283425 
L 310.935446 168.98379 
L 311.069934 159.589576 
L 311.204423 166.074595 
L 311.338911 164.777783 
L 311.473399 157.972877 
L 311.607887 171.169762 
L 311.876864 208.919269 
L 312.14584 251.441179 
L 312.414817 263.300966 
L 312.818281 271.951335 
L 312.952769 271.515387 
L 313.087258 273.409769 
L 313.221746 273.310494 
L 313.356234 274.89458 
L 313.625211 264.289881 
L 313.759699 256.362254 
L 313.894187 259.730416 
L 314.028675 257.190027 
L 314.163163 259.08201 
L 314.297652 256.309019 
L 314.566628 262.902426 
L 314.701116 263.640516 
L 314.970093 268.415796 
L 315.104581 268.377908 
L 315.239069 268.080082 
L 315.508045 271.026205 
L 315.642534 271.565744 
L 315.777022 271.233868 
L 316.180487 274.237541 
L 316.314975 273.795839 
L 316.718439 276.161178 
L 316.852928 276.411524 
L 316.987416 275.554017 
L 317.121904 275.619721 
L 317.256392 274.494602 
L 317.39088 274.639918 
L 317.525369 273.093719 
L 317.659857 274.01741 
L 317.928833 271.486132 
L 318.332298 267.7319 
L 318.466786 268.389418 
L 318.601274 267.88441 
L 318.735763 269.347639 
L 318.870251 269.18314 
L 319.139227 270.304902 
L 319.273715 280.187818 
L 319.67718 281.311498 
L 319.811668 278.720271 
L 319.946157 270.7279 
L 320.349621 148.14991 
L 320.484109 131.921056 
L 320.887574 159.331077 
L 321.022062 164.020031 
L 321.291039 178.8739 
L 321.425527 180.682914 
L 321.560015 199.212362 
L 321.828991 255.008371 
L 321.96348 263.135027 
L 322.097968 263.925392 
L 322.635921 280.706255 
L 322.770409 281.054917 
L 322.904897 280.392603 
L 323.173874 269.910199 
L 323.44285 173.982079 
L 323.577338 174.345608 
L 323.711826 174.547996 
L 323.980803 154.273318 
L 324.249779 157.82948 
L 324.384268 160.609185 
L 324.787732 197.027829 
L 325.056709 251.814779 
L 325.325685 261.131299 
L 325.863638 279.039679 
L 325.998126 280.815601 
L 326.132614 280.881305 
L 326.267103 277.652704 
L 326.401591 268.61003 
L 326.670567 166.756572 
L 326.805055 172.7409 
L 326.939544 173.918773 
L 327.20852 160.628368 
L 327.343008 168.811137 
L 327.611985 165.03916 
L 327.746473 169.922348 
L 328.149937 224.88243 
L 328.418914 255.876429 
L 328.68789 268.749111 
L 328.822379 271.214205 
L 328.956867 281.3091 
L 329.225843 282.260607 
L 329.360331 281.409334 
L 329.629308 268.515071 
L 330.032772 179.070532 
L 330.301749 167.676906 
L 330.570725 158.826068 
L 330.839702 180.785067 
L 330.97419 182.003226 
L 331.108678 184.761829 
L 331.781119 261.011402 
L 332.050096 268.209092 
L 332.184584 279.035362 
L 332.319072 279.995982 
L 332.45356 279.327912 
L 332.588049 280.320185 
L 332.857025 267.651808 
L 333.26049 178.436034 
L 333.394978 180.354874 
L 333.663954 165.372475 
L 333.798442 166.570491 
L 333.932931 170.355418 
L 334.336395 188.305042 
L 334.73986 256.363693 
L 335.143325 272.16715 
L 335.277813 271.967641 
L 335.412301 272.065477 
L 335.546789 272.352272 
L 335.681277 272.246762 
L 335.950254 274.840866 
L 336.084742 272.736424 
L 336.622695 256.195357 
L 336.757183 256.993874 
L 336.891671 255.156085 
L 337.295136 261.543747 
L 337.698601 266.298405 
L 337.833089 265.816896 
L 338.102065 269.935617 
L 338.236553 269.702536 
L 338.371042 270.342789 
L 338.50553 267.996634 
L 339.043483 271.170082 
L 339.446947 274.179991 
L 339.581436 273.696084 
L 339.715924 272.521568 
L 339.850412 272.781985 
L 339.9849 271.998335 
L 340.119388 271.885151 
L 340.253877 271.409398 
L 340.388365 272.89325 
L 340.522853 270.895277 
L 340.657341 271.496683 
L 340.926318 271.176797 
L 341.060806 267.823022 
L 341.329782 272.727312 
L 341.464271 272.625159 
L 341.598759 273.156065 
L 341.733247 274.729601 
L 341.867735 282.587208 
L 342.136712 282.68936 
L 342.2712 283.33393 
L 342.540176 270.580666 
L 342.943641 154.882398 
L 343.212617 171.566863 
L 343.347106 170.829253 
L 343.75057 185.279307 
L 343.885058 186.961709 
L 344.019547 186.296038 
L 344.423011 254.489454 
L 345.22994 280.299562 
L 345.364429 281.388232 
L 345.498917 281.018948 
L 345.633405 276.783206 
L 345.767893 268.662305 
L 346.03687 184.028535 
L 346.171358 188.165001 
L 346.440334 174.538883 
L 346.574823 169.143493 
L 346.843799 176.05295 
L 347.112775 177.930066 
L 347.381752 212.565114 
L 347.650728 251.651239 
L 348.054193 269.693424 
L 348.188681 270.880889 
L 348.323169 279.889992 
L 348.457658 280.741744 
L 348.592146 282.620779 
L 348.726634 282.424626 
L 348.99561 269.460343 
L 349.264587 182.973437 
L 349.399075 184.453932 
L 349.668052 166.81796 
L 349.80254 162.687729 
L 350.206004 181.466564 
L 350.340493 182.651632 
L 351.012934 263.187303 
L 351.147422 265.518111 
L 351.550886 282.254852 
L 351.685375 281.539783 
L 351.954351 281.908108 
L 352.088839 280.504827 
L 352.223328 273.184361 
L 352.492304 178.878695 
L 352.626792 186.073988 
L 352.76128 174.656383 
L 352.895769 173.944671 
L 353.030257 165.631454 
L 353.164745 172.872787 
L 353.299233 170.787049 
L 353.56821 152.93718 
L 354.240651 269.835383 
L 354.375139 270.977767 
L 354.644115 276.864737 
L 354.913092 281.15659 
L 355.182068 282.203056 
L 355.316556 279.790717 
L 355.451045 270.624788 
L 355.854509 197.018717 
L 356.123486 158.525845 
L 356.257974 160.246615 
L 356.392462 168.892188 
L 356.52695 168.256251 
L 356.661439 178.906032 
L 356.795927 177.649506 
L 357.33388 265.50756 
L 357.602856 275.143967 
L 357.737344 277.116522 
L 357.871832 281.389191 
L 358.006321 280.808407 
L 358.140809 281.023743 
L 358.275297 281.766629 
L 358.409785 281.678384 
L 358.678762 280.413705 
L 359.082226 261.870348 
L 359.351203 255.940694 
L 359.485691 249.643674 
L 359.620179 260.421026 
L 359.754667 261.841093 
L 359.889156 262.009909 
L 360.427109 276.35733 
L 360.561597 277.039787 
L 360.965061 281.204069 
L 361.234038 281.164263 
L 361.368526 280.971948 
L 361.503014 282.282668 
L 361.771991 281.873577 
L 361.906479 283.209716 
L 362.040967 283.161757 
L 362.175455 283.538715 
L 362.309944 283.57948 
L 362.57892 280.152808 
L 362.713408 280.10341 
L 362.982385 278.963903 
L 363.116873 277.465184 
L 363.251361 277.363031 
L 363.385849 278.458415 
L 363.520337 277.600908 
L 363.654826 277.540959 
L 364.05829 280.338889 
L 364.192778 254.221363 
L 364.730731 260.505434 
L 364.86522 259.30502 
L 364.999708 247.171387 
L 365.134196 224.923675 
L 365.403172 136.210511 
L 365.672149 105.782908 
L 365.806637 99.835509 
L 366.075613 116.855208 
L 366.34459 113.697106 
L 366.479078 125.179456 
L 367.017031 252.126513 
L 367.151519 257.108017 
L 367.286007 255.365186 
L 367.554984 266.776077 
L 367.689472 267.646533 
L 367.958448 272.568088 
L 368.227425 248.901748 
L 368.496401 152.518497 
L 368.765378 100.405742 
L 369.034354 89.455258 
L 369.168842 94.198406 
L 369.303331 93.751907 
L 369.437819 97.135896 
L 369.572307 95.004117 
L 369.706795 111.185972 
L 370.244748 235.585925 
L 370.782701 280.004614 
L 370.917189 280.311072 
L 371.051677 281.206947 
L 371.186166 280.926866 
L 371.455142 266.036548 
L 371.858607 172.326054 
L 372.127583 204.463396 
L 372.262071 200.383522 
L 372.396559 201.817017 
L 372.665536 191.078512 
L 372.800024 194.891254 
L 373.203489 234.787407 
L 373.472465 257.1507 
L 373.87593 278.444987 
L 374.010418 287.506844 
L 374.144906 287.36009 
L 374.279394 288.572494 
L 374.413883 288.067006 
L 374.682859 271.426663 
L 375.220812 181.596054 
L 375.489788 177.94925 
L 375.624277 178.173218 
L 375.893253 184.740247 
L 376.027741 189.057039 
L 376.565694 256.967017 
L 376.83467 265.900345 
L 376.969159 268.75055 
L 377.103647 280.619928 
L 377.238135 279.521667 
L 377.507112 281.604527 
L 377.6416 279.629095 
L 377.776088 283.185736 
L 378.045064 281.02806 
L 378.179553 271.339857 
L 378.314041 270.711114 
L 378.448529 263.575771 
L 378.583017 264.581472 
L 378.717505 263.659699 
L 378.851994 268.193266 
L 378.986482 267.429278 
L 379.12097 268.341939 
L 379.255458 270.512084 
L 379.389947 270.395064 
L 379.927899 279.695278 
L 380.062388 279.487616 
L 380.196876 279.906298 
L 380.331364 269.947607 
L 380.465852 270.629105 
L 380.869317 273.547891 
L 381.138293 262.596927 
L 381.272782 235.364834 
L 381.541758 160.39241 
L 381.810734 140.126845 
L 381.945223 141.726278 
L 382.214199 148.246308 
L 382.348687 140.215569 
L 382.752152 190.328433 
L 383.021128 258.680114 
L 383.155616 266.648985 
L 383.290105 267.314656 
L 383.424593 268.608591 
L 383.559081 263.654424 
L 383.693569 262.938875 
L 383.962546 263.287058 
L 384.097034 264.483635 
L 384.231522 262.690447 
L 384.36601 264.089892 
L 385.038451 149.314355 
L 385.17294 151.770337 
L 385.307428 166.984378 
L 385.576404 161.310825 
L 386.248845 261.540869 
L 386.921286 280.13842 
L 387.055775 279.31928 
L 387.190263 280.603622 
L 387.324751 279.909176 
L 387.459239 280.071277 
L 387.593727 281.568558 
L 387.728216 280.991131 
L 387.862704 282.31528 
L 387.997192 281.139804 
L 388.13168 282.738758 
L 388.266169 281.749363 
L 388.400657 279.753309 
L 388.535145 279.842992 
L 388.669633 279.176841 
L 388.804121 280.322103 
L 388.93861 277.757254 
L 389.207586 279.909176 
L 389.476562 286.635429 
L 389.611051 285.571218 
L 389.745539 286.392277 
L 389.880027 286.340001 
L 390.014515 271.353286 
L 390.149004 271.591642 
L 390.41798 271.613703 
L 390.552468 271.482296 
L 390.686956 265.95214 
L 390.821445 266.138221 
L 390.955933 257.234629 
L 391.224909 200.74849 
L 391.359397 169.188095 
L 391.493886 165.174884 
L 391.762862 175.931134 
L 391.89735 175.384401 
L 392.031839 168.118609 
L 392.166327 171.839749 
L 392.300815 180.872352 
L 392.569791 241.383212 
L 392.70428 267.8259 
L 392.973256 272.697098 
L 393.107744 273.358453 
L 393.376721 266.260517 
L 393.645697 272.012243 
L 393.780185 268.601397 
L 393.914673 269.994127 
L 394.049162 262.537458 
L 394.721603 147.251637 
L 394.990579 146.173518 
L 395.125067 145.750999 
L 395.259556 157.203135 
L 395.394044 158.078387 
L 395.931997 246.744072 
L 396.200973 260.434934 
L 396.335461 256.675906 
L 396.46995 281.595895 
L 396.604438 281.981485 
L 397.007902 285.034557 
L 397.276879 271.900019 
L 397.545855 197.75201 
L 397.680343 192.533589 
L 397.94932 169.016881 
L 398.083808 155.469896 
L 398.218296 168.289343 
L 398.352785 163.4944 
L 398.487273 166.52493 
L 398.487273 166.52493 
" clip-path="url(#pb312d28464)" style="fill: none; stroke: #1f77b4; stroke-width: 1.5; stroke-linecap: square"/>
   </g>
   <g id="line2d_13">
    <path d="M 73.832727 281.439769 
L 73.967215 281.458169 
L 74.236192 280.478641 
L 74.37068 278.433181 
L 74.505168 280.63396 
L 74.639657 280.209004 
L 74.774145 280.186094 
L 74.908633 268.533394 
L 75.043121 218.533455 
L 75.177609 225.21162 
L 75.312098 247.414099 
L 75.446586 248.707372 
L 75.581074 248.70669 
L 75.715562 249.782331 
L 75.85005 248.662504 
L 75.984539 248.744674 
L 76.119027 247.025487 
L 76.388003 241.236406 
L 76.65698 290.60405 
L 76.925956 275.007253 
L 77.060444 274.196345 
L 77.194933 261.050279 
L 77.463909 268.535533 
L 77.598397 266.288754 
L 77.732885 269.179424 
L 77.867374 259.549906 
L 78.001862 233.40961 
L 78.270838 130.020967 
L 78.405327 107.972369 
L 78.539815 108.267998 
L 78.674303 116.531145 
L 78.808791 105.115203 
L 78.943279 117.890112 
L 79.077768 112.492345 
L 79.346744 143.003114 
L 80.019185 258.455956 
L 80.288161 270.239554 
L 80.42265 259.642284 
L 80.557138 273.956658 
L 80.691626 275.328397 
L 81.095091 261.042955 
L 81.229579 238.943878 
L 81.498555 145.36068 
L 81.767532 169.155539 
L 81.90202 158.647777 
L 82.036508 200.218768 
L 82.170996 194.472237 
L 82.305485 203.101444 
L 82.439973 201.31483 
L 82.574461 196.504217 
L 82.708949 226.839464 
L 82.977926 195.371563 
L 83.112414 202.713527 
L 83.246902 194.510983 
L 83.38139 194.418994 
L 84.053831 279.777343 
L 84.18832 279.18131 
L 84.322808 194.415078 
L 84.457296 215.027349 
L 84.591784 194.415078 
L 84.860761 194.415078 
L 84.995249 194.963635 
L 85.129737 190.694188 
L 85.264225 172.919556 
L 85.533202 191.784167 
L 85.66769 193.011713 
L 85.936666 210.741944 
L 86.340131 264.081148 
L 86.474619 268.795276 
L 86.609107 269.522748 
L 86.743596 271.465298 
L 87.012572 295.488 
L 87.14706 293.707571 
L 87.281549 289.095179 
L 87.416037 290.124866 
L 87.550525 289.819926 
L 87.685013 287.151573 
L 87.95399 234.756899 
L 88.222966 249.72703 
L 88.491942 256.568779 
L 88.626431 250.585069 
L 88.760919 255.639024 
L 88.895407 246.745143 
L 89.298872 256.444573 
L 89.567848 286.227008 
L 89.702336 276.915872 
L 89.836825 276.512085 
L 89.971313 277.06341 
L 90.105801 249.990491 
L 90.240289 251.369455 
L 90.374777 264.615901 
L 90.509266 261.609531 
L 90.643754 261.161071 
L 90.91273 265.515217 
L 91.047218 259.729632 
L 91.181707 236.490967 
L 91.316195 241.050236 
L 91.450683 240.217993 
L 91.71966 252.220834 
L 91.854148 251.202926 
L 92.257612 256.016 
L 92.392101 254.06089 
L 92.526589 256.755635 
L 92.930053 270.400733 
L 93.064542 269.538288 
L 93.19903 265.819448 
L 93.333518 281.528378 
L 93.468006 282.239512 
L 93.602495 275.113577 
L 93.736983 277.264825 
L 93.871471 275.79737 
L 94.140447 262.47359 
L 94.409424 174.822027 
L 94.543912 179.183674 
L 94.812888 156.115401 
L 94.947377 156.078103 
L 95.216353 177.537517 
L 95.350841 170.076544 
L 95.48533 153.364075 
L 95.888794 253.629286 
L 96.157771 269.516745 
L 96.561235 273.332091 
L 96.830212 270.849209 
L 96.9647 273.391989 
L 97.099188 272.673305 
L 97.233676 269.537884 
L 97.502653 224.020102 
L 97.637141 173.016052 
L 97.771629 175.213312 
L 97.906117 171.886368 
L 98.040606 186.471855 
L 98.309582 184.193531 
L 98.44407 181.164897 
L 98.578558 182.516639 
L 98.847535 198.893037 
L 99.385488 274.250105 
L 99.519976 275.380944 
L 99.654464 275.547738 
L 99.788952 286.352942 
L 99.923441 286.680082 
L 100.057929 278.743597 
L 100.192417 279.334956 
L 100.326905 281.707469 
L 100.595882 279.634198 
L 100.73037 279.457047 
L 100.864858 280.833085 
L 100.999346 279.969536 
L 101.133834 281.242494 
L 101.268323 280.870041 
L 101.402811 277.781362 
L 101.537299 266.88711 
L 101.671787 275.301181 
L 101.940764 258.331495 
L 102.20974 268.26485 
L 102.344228 267.899492 
L 102.478717 271.204357 
L 102.613205 280.06269 
L 102.747693 275.48993 
L 102.882181 280.740167 
L 103.151158 253.380265 
L 103.285646 273.071036 
L 103.420134 273.015045 
L 103.823599 257.506096 
L 103.958087 229.56273 
L 104.092575 170.758209 
L 104.361552 153.354122 
L 104.49604 169.312842 
L 104.765016 140.100542 
L 105.437457 216.443961 
L 105.840922 266.302173 
L 105.97541 260.025027 
L 106.109898 268.389501 
L 106.244387 289.619613 
L 106.378875 289.930469 
L 106.647851 280.588583 
L 106.782339 281.317226 
L 107.051316 279.21666 
L 107.320292 219.95157 
L 107.45478 231.527452 
L 107.589269 255.915554 
L 108.127222 253.104659 
L 108.396198 248.283433 
L 108.530686 244.283993 
L 108.665174 248.165029 
L 108.934151 285.942465 
L 109.068639 285.690715 
L 109.337615 277.913818 
L 109.472104 266.366982 
L 109.74108 270.043625 
L 109.875568 269.988791 
L 110.010056 269.935911 
L 110.144545 269.047028 
L 110.279033 269.733103 
L 110.413521 269.751591 
L 110.548009 270.243611 
L 110.682498 272.489177 
L 110.816986 272.216973 
L 110.951474 270.740101 
L 111.085962 270.834492 
L 111.22045 273.728335 
L 111.354939 274.091319 
L 111.623915 267.815891 
L 111.758403 264.848381 
L 111.892891 265.744759 
L 112.161868 273.20564 
L 112.430844 272.386254 
L 112.565333 272.272971 
L 112.699821 252.39016 
L 112.834309 254.704916 
L 112.968797 266.744091 
L 113.103285 264.203477 
L 113.372262 263.923916 
L 113.775726 270.627159 
L 113.910215 267.042264 
L 114.044703 266.47884 
L 114.179191 264.186327 
L 114.313679 257.14569 
L 114.448168 258.101729 
L 114.582656 260.424308 
L 114.717144 258.641594 
L 115.120609 242.845054 
L 115.524073 262.364842 
L 115.658561 261.020946 
L 115.79305 260.894926 
L 115.927538 262.744225 
L 116.062026 262.651087 
L 116.196514 257.64395 
L 116.465491 266.581953 
L 116.599979 257.844142 
L 116.734467 241.844372 
L 117.003444 131.959638 
L 117.137932 92.697221 
L 117.27242 92.109114 
L 117.406908 96.886377 
L 117.541396 78.529867 
L 117.675885 82.196925 
L 117.944861 102.32612 
L 118.213837 131.748332 
L 118.617302 238.481992 
L 119.020767 254.4777 
L 119.155255 252.937301 
L 119.289743 257.029109 
L 119.55872 255.085111 
L 119.693208 258.852266 
L 119.827696 258.153099 
L 119.962184 239.832412 
L 120.231161 120.979966 
L 120.500137 94.067819 
L 120.634625 91.845921 
L 120.769114 80.099188 
L 120.903602 82.96767 
L 121.03809 83.25962 
L 121.172578 86.974162 
L 121.441555 114.88706 
L 121.845019 234.269838 
L 122.113996 245.613604 
L 122.248484 242.922566 
L 122.382972 247.660068 
L 122.51746 262.545851 
L 122.651948 264.296915 
L 122.786437 257.965771 
L 122.920925 258.129688 
L 123.055413 254.932248 
L 123.189901 239.705873 
L 123.593366 93.230519 
L 123.727854 85.539043 
L 123.862342 85.406405 
L 123.996831 78.329903 
L 124.131319 86.533394 
L 124.400295 115.847927 
L 124.669272 127.538895 
L 125.072736 242.533986 
L 125.341713 259.80118 
L 125.610689 255.269754 
L 125.879666 273.540454 
L 126.148642 267.928209 
L 126.417618 241.498293 
L 126.686595 133.291984 
L 126.955571 96.851842 
L 127.09006 96.343144 
L 127.224548 90.645401 
L 127.493524 118.565679 
L 127.628012 118.741188 
L 127.762501 125.29399 
L 127.896989 140.745979 
L 128.434942 254.609546 
L 128.56943 258.024706 
L 128.703918 254.467082 
L 128.972894 262.127723 
L 129.107383 260.655271 
L 129.241871 265.872179 
L 129.376359 265.956638 
L 129.645336 226.218833 
L 130.0488 89.893461 
L 130.317777 99.009241 
L 130.452265 93.205053 
L 130.586753 129.70159 
L 130.721241 129.849658 
L 130.855729 130.691975 
L 130.990218 138.432097 
L 131.259194 208.887732 
L 131.528171 252.132376 
L 131.797147 264.679762 
L 132.200612 255.561939 
L 132.469588 273.906305 
L 132.604076 271.210762 
L 132.738564 267.2475 
L 132.873053 267.062899 
L 133.142029 245.596046 
L 133.411005 235.336703 
L 133.545494 236.496125 
L 133.679982 234.687461 
L 133.948958 237.82168 
L 134.083447 230.711451 
L 134.890376 255.221548 
L 135.024864 251.951546 
L 135.159352 253.93425 
L 135.428329 260.348581 
L 135.831793 266.490014 
L 135.966282 272.72806 
L 136.10077 272.563464 
L 136.235258 266.074249 
L 136.504234 269.329633 
L 136.638723 260.789601 
L 136.773211 261.061359 
L 136.907699 262.214117 
L 137.042187 261.693156 
L 137.311164 245.975295 
L 137.445652 247.030635 
L 137.58014 251.369332 
L 137.714628 247.473475 
L 137.849117 250.531367 
L 138.118093 258.877059 
L 138.252581 255.406055 
L 138.387069 257.188115 
L 138.521558 265.07394 
L 138.790534 258.910429 
L 139.05951 267.515223 
L 139.328487 235.069668 
L 139.731951 88.353295 
L 140.000928 97.512376 
L 140.135416 87.352626 
L 140.538881 131.160706 
L 140.807857 144.917901 
L 140.942345 164.552042 
L 141.211322 249.391409 
L 141.34581 250.160416 
L 141.614786 264.369217 
L 141.749275 261.48773 
L 141.883763 266.117811 
L 142.287228 263.567826 
L 142.690692 172.844648 
L 142.959669 89.273543 
L 143.094157 98.419179 
L 143.228645 94.65649 
L 143.363133 86.983358 
L 143.497621 99.281515 
L 143.63211 91.892113 
L 143.766598 97.926325 
L 144.439039 241.648088 
L 144.842504 269.04643 
L 145.11148 261.932832 
L 145.245968 263.218727 
L 145.380456 266.220933 
L 145.514945 258.088333 
L 145.649433 226.603381 
L 145.783921 224.139847 
L 146.187386 93.509903 
L 146.321874 94.553235 
L 146.725339 130.189077 
L 146.859827 123.708713 
L 146.994315 130.995383 
L 147.128803 123.6442 
L 147.263291 140.617289 
L 147.532268 247.722473 
L 147.801244 255.663428 
L 147.935732 266.439194 
L 148.070221 266.046271 
L 148.204709 265.118883 
L 148.339197 266.779876 
L 148.473685 263.904386 
L 148.608174 263.53814 
L 148.87715 260.976251 
L 149.011638 230.559196 
L 149.280615 129.583217 
L 149.415103 105.19756 
L 149.549591 116.670917 
L 149.818567 108.933857 
L 150.222032 162.614329 
L 150.35652 147.001945 
L 150.491009 149.910701 
L 150.759985 247.151031 
L 151.028961 258.324679 
L 151.16345 267.919495 
L 151.432426 261.950329 
L 151.701402 266.84046 
L 151.970379 267.384484 
L 152.104867 264.441272 
L 152.64282 100.38293 
L 152.777308 120.929533 
L 152.911796 115.459806 
L 153.046285 103.324075 
L 153.180773 130.419066 
L 153.315261 128.364601 
L 153.584237 187.262057 
L 153.718726 197.738813 
L 154.12219 263.688405 
L 154.256678 274.108969 
L 154.391167 273.960171 
L 154.525655 271.557647 
L 154.660143 271.328449 
L 154.794631 271.372467 
L 154.92912 271.591012 
L 155.063608 272.311349 
L 155.332584 277.558826 
L 155.467072 275.235343 
L 155.601561 265.823055 
L 155.736049 247.870387 
L 156.139513 258.842693 
L 156.274002 258.140732 
L 156.40849 255.469224 
L 156.677466 258.954955 
L 156.811955 256.845191 
L 157.484396 269.511651 
L 157.618884 265.908433 
L 157.753372 265.740405 
L 158.022348 271.504642 
L 158.156837 270.984502 
L 158.291325 271.957529 
L 158.694789 280.65027 
L 158.829278 275.703776 
L 158.963766 276.308501 
L 159.098254 278.065971 
L 159.367231 273.280983 
L 159.501719 275.26641 
L 159.636207 272.915746 
L 159.905183 258.476639 
L 160.039672 258.693588 
L 160.17416 253.718186 
L 160.308648 254.291233 
L 160.443136 258.176934 
L 160.577624 267.727143 
L 160.712113 267.059832 
L 160.846601 259.572966 
L 160.981089 260.95425 
L 161.250066 269.88303 
L 161.384554 269.787167 
L 161.519042 268.242137 
L 161.65353 268.863861 
L 161.922507 238.679929 
L 162.325971 98.708674 
L 162.460459 88.851509 
L 162.594948 99.200806 
L 162.863924 86.020047 
L 163.132901 114.833134 
L 163.267389 123.641891 
L 163.536365 182.386985 
L 163.805342 248.188417 
L 163.93983 248.579493 
L 164.208806 264.923381 
L 164.343294 260.82139 
L 164.477783 273.607581 
L 164.612271 275.762326 
L 164.746759 273.247299 
L 164.881247 263.95367 
L 165.284712 183.140323 
L 165.553688 104.154892 
L 165.688177 120.842057 
L 165.957153 108.945464 
L 166.091641 120.447048 
L 166.226129 116.080496 
L 166.495106 104.423694 
L 166.629594 114.788005 
L 166.89857 240.974233 
L 167.033059 248.578836 
L 167.167547 241.663357 
L 167.436523 256.851179 
L 167.571012 255.805524 
L 167.839988 265.789213 
L 167.974476 265.778396 
L 168.108964 265.560144 
L 168.243453 254.175231 
L 168.377941 227.937159 
L 168.781405 93.671314 
L 168.915894 110.922572 
L 169.18487 109.178932 
L 169.319358 118.370435 
L 169.453847 97.830983 
L 169.588335 102.354177 
L 170.395264 259.353596 
L 170.66424 263.528305 
L 170.798729 264.662695 
L 171.067705 260.989453 
L 171.202193 262.969631 
L 171.336681 266.724527 
L 171.740146 180.684606 
L 172.009123 98.182137 
L 172.278099 114.338625 
L 172.412587 104.295183 
L 172.547075 103.2996 
L 173.085028 155.341704 
L 173.488493 254.0466 
L 173.622981 257.121426 
L 174.026446 283.285799 
L 174.160934 280.877487 
L 174.295422 272.452759 
L 174.564399 275.853291 
L 174.967863 225.749249 
L 175.23684 157.615515 
L 175.505816 136.693959 
L 175.640304 141.276429 
L 175.774792 162.200665 
L 175.909281 161.631873 
L 176.043769 160.45712 
L 176.178257 175.130585 
L 176.312745 169.856826 
L 176.447234 192.772765 
L 176.71621 257.619391 
L 176.985186 268.900051 
L 177.254163 263.46786 
L 177.388651 268.701392 
L 177.523139 267.307163 
L 177.657627 269.717095 
L 177.792116 274.811544 
L 178.061092 275.369587 
L 178.330069 257.467234 
L 178.464557 261.23829 
L 178.733533 250.133841 
L 179.00251 259.945082 
L 179.136998 257.515453 
L 179.271486 252.951221 
L 179.405974 254.953752 
L 179.674951 249.887425 
L 179.943927 262.912687 
L 180.078415 272.85333 
L 180.347392 262.327269 
L 180.616368 279.755563 
L 180.750856 274.331559 
L 180.885345 273.916815 
L 181.019833 275.271632 
L 181.154321 274.839375 
L 181.557786 260.670606 
L 181.96125 266.070472 
L 182.095738 258.78518 
L 182.230227 260.67416 
L 182.499203 271.098395 
L 182.633691 271.259174 
L 182.76818 274.763682 
L 183.037156 271.294847 
L 183.306132 280.279727 
L 183.440621 279.79262 
L 183.575109 277.248723 
L 183.709597 272.134433 
L 183.978573 290.970738 
L 184.24755 278.259993 
L 184.516526 257.250173 
L 184.785503 166.098658 
L 184.919991 175.560284 
L 185.054479 175.013032 
L 185.188967 184.595035 
L 185.323456 181.520343 
L 185.457944 184.275927 
L 185.592432 189.624953 
L 185.72692 190.432205 
L 186.399361 265.509317 
L 186.668338 276.31306 
L 186.802826 278.484312 
L 186.937314 283.88319 
L 187.071802 294.019105 
L 187.206291 294.009855 
L 187.340779 286.768321 
L 187.475267 287.116174 
L 187.609755 282.700458 
L 187.744243 267.52362 
L 188.01322 167.824787 
L 188.147708 181.044289 
L 188.416684 183.103437 
L 188.685661 193.528119 
L 188.820149 204.799895 
L 188.954637 198.618584 
L 189.089126 202.324608 
L 189.223614 214.325895 
L 189.627078 272.222735 
L 189.761567 272.514109 
L 189.896055 271.398107 
L 190.030543 275.598557 
L 190.299519 268.850477 
L 190.434008 271.81729 
L 190.568496 268.881798 
L 190.702984 269.609904 
L 190.971961 272.861082 
L 191.106449 272.579807 
L 191.240937 266.288793 
L 191.375425 266.20838 
L 191.509913 269.80339 
L 191.644402 263.066196 
L 191.913378 266.89068 
L 192.047866 264.980451 
L 192.316843 256.755148 
L 192.451331 260.364311 
L 192.585819 259.791502 
L 192.720307 260.771467 
L 192.854796 270.381091 
L 192.989284 270.730075 
L 193.392748 263.169551 
L 193.527237 262.878502 
L 193.796213 269.035373 
L 193.930701 268.542294 
L 194.199678 252.983878 
L 194.468654 168.887675 
L 194.603142 162.702101 
L 194.73763 149.663452 
L 194.872119 148.351108 
L 195.006607 143.419712 
L 195.141095 147.462002 
L 195.275583 159.784665 
L 195.410072 148.277674 
L 195.679048 171.244212 
L 195.948024 243.676513 
L 196.217001 263.865862 
L 196.351489 264.472941 
L 196.485977 264.483418 
L 196.620465 276.862958 
L 196.754954 274.714133 
L 196.889442 268.434643 
L 197.02393 269.387933 
L 197.158418 271.201562 
L 197.292907 267.810735 
L 197.427395 255.347937 
L 197.696371 181.936821 
L 198.099836 198.727545 
L 198.234324 199.419659 
L 198.368812 205.328955 
L 198.637789 185.176255 
L 198.906765 214.295214 
L 199.31023 275.477404 
L 199.444718 278.954562 
L 199.579206 278.363081 
L 199.713694 279.353308 
L 199.848183 283.550967 
L 200.117159 277.994642 
L 200.251647 279.467725 
L 200.386135 275.935059 
L 200.520624 265.166683 
L 200.655112 265.820701 
L 200.7896 245.783539 
L 200.924088 174.634861 
L 201.058576 181.760457 
L 201.193065 197.341453 
L 201.327553 197.362392 
L 201.596529 203.331235 
L 201.865506 187.545552 
L 201.999994 194.943388 
L 202.537947 274.595715 
L 202.672435 276.098154 
L 202.806923 274.324759 
L 202.941411 276.123001 
L 203.210388 256.09488 
L 203.344876 268.339896 
L 203.479364 269.740682 
L 203.748341 255.924598 
L 203.882829 252.547049 
L 204.017317 224.931223 
L 204.286294 157.464757 
L 204.420782 158.337319 
L 204.689758 161.802948 
L 204.824246 171.987636 
L 204.958735 166.75465 
L 205.227711 193.556541 
L 205.900152 270.038542 
L 206.03464 264.667247 
L 206.169129 265.75377 
L 206.303617 288.000499 
L 206.438105 287.316658 
L 206.572593 281.829374 
L 206.707081 284.787561 
L 206.84157 284.675038 
L 206.976058 283.818014 
L 207.514011 258.443886 
L 207.648499 261.237665 
L 207.917475 274.387407 
L 208.051964 274.668267 
L 208.186452 272.242552 
L 208.455428 261.43352 
L 209.127869 281.815394 
L 209.262357 281.218407 
L 209.396846 277.853701 
L 209.531334 266.86954 
L 209.80031 273.269179 
L 209.934799 272.297817 
L 210.069287 274.460778 
L 210.338263 252.499777 
L 210.741728 149.017563 
L 211.010704 118.538539 
L 211.145192 107.585021 
L 211.414169 147.538895 
L 211.817634 191.46063 
L 212.08661 244.707451 
L 212.355586 265.340939 
L 212.490075 262.784139 
L 212.893539 276.47411 
L 213.162516 270.845259 
L 213.297004 275.51378 
L 213.56598 241.335166 
L 213.969445 121.131011 
L 214.103933 145.370803 
L 214.238421 144.240699 
L 214.37291 149.688981 
L 214.776374 191.9388 
L 214.910862 192.640319 
L 215.045351 194.275104 
L 215.448815 274.132664 
L 215.583303 269.068017 
L 215.717792 269.041052 
L 215.986768 266.971557 
L 216.121256 270.286885 
L 216.255745 269.508575 
L 216.390233 269.780961 
L 216.524721 273.683703 
L 216.659209 265.677488 
L 216.793697 249.870915 
L 217.062674 144.374454 
L 217.197162 135.626691 
L 217.33165 154.098568 
L 217.466138 156.990736 
L 217.600627 174.714241 
L 217.735115 173.90313 
L 217.869603 150.248108 
L 218.004091 158.117109 
L 218.273068 210.357232 
L 218.407556 218.798397 
L 218.676532 268.982334 
L 218.945509 277.500063 
L 219.079997 262.772441 
L 219.214485 262.318077 
L 219.483462 274.243108 
L 219.752438 278.663627 
L 220.021414 249.523979 
L 220.290391 143.842816 
L 220.424879 148.577466 
L 220.559367 163.519664 
L 220.693856 155.758903 
L 220.828344 154.715473 
L 220.962832 172.700406 
L 221.09732 167.833744 
L 221.366297 205.980306 
L 221.500785 203.56153 
L 221.635273 212.828259 
L 221.904249 272.263316 
L 222.038738 272.680151 
L 222.173226 276.15299 
L 222.442202 270.008618 
L 222.711179 279.978334 
L 222.845667 279.573283 
L 222.980155 280.431689 
L 223.114643 277.062002 
L 223.249132 279.043715 
L 223.518108 243.034967 
L 223.787084 264.645531 
L 224.056061 251.100324 
L 224.459525 258.291057 
L 224.594014 257.278314 
L 224.86299 249.112226 
L 225.131967 261.358411 
L 225.266455 261.570773 
L 225.400943 257.268738 
L 225.535431 257.726102 
L 225.669919 259.3189 
L 225.804408 256.234552 
L 226.207872 271.435393 
L 226.476849 272.902765 
L 226.611337 271.790585 
L 226.880313 265.020178 
L 227.14929 271.13345 
L 227.418266 266.933662 
L 227.687243 270.740392 
L 228.090707 266.920846 
L 228.225195 277.646467 
L 228.359684 277.794764 
L 228.62866 274.616771 
L 228.897637 276.192087 
L 229.032125 271.65295 
L 229.166613 272.313482 
L 229.301101 275.07313 
L 229.435589 275.027401 
L 229.570078 262.908238 
L 229.704566 235.518427 
L 230.10803 107.377147 
L 230.242519 99.858844 
L 230.377007 102.410239 
L 230.511495 84.658051 
L 230.780471 126.280103 
L 230.91496 128.239468 
L 231.183936 169.70812 
L 231.587401 255.04464 
L 231.721889 258.552813 
L 231.990865 269.876561 
L 232.125354 271.175015 
L 232.259842 270.710304 
L 232.528818 275.466075 
L 232.663306 272.272078 
L 232.932283 239.134424 
L 233.335748 120.341919 
L 233.470236 125.332261 
L 233.604724 140.730932 
L 233.739212 143.296808 
L 233.8737 163.699357 
L 234.008189 142.479555 
L 234.142677 145.537058 
L 234.411653 202.645025 
L 234.546141 214.193165 
L 234.815118 265.99522 
L 234.949606 270.315571 
L 235.084094 266.768353 
L 235.487559 274.424757 
L 235.622047 280.485148 
L 235.756535 278.595726 
L 235.891024 274.864782 
L 236.16 250.701205 
L 236.428976 136.01204 
L 236.563465 120.178517 
L 236.697953 130.798968 
L 236.832441 127.840783 
L 236.966929 115.178559 
L 237.235906 175.997923 
L 237.370394 171.274009 
L 237.504882 176.603529 
L 237.908347 257.238018 
L 238.177323 272.136748 
L 238.311811 270.367877 
L 238.580788 272.072937 
L 238.715276 274.142503 
L 238.984252 285.681472 
L 239.118741 281.530959 
L 239.253229 272.467517 
L 239.387717 246.50247 
L 239.656694 145.798144 
L 239.92567 125.566053 
L 240.732599 191.736613 
L 240.867087 198.96582 
L 241.270552 262.32084 
L 241.40504 265.264427 
L 241.539529 265.203967 
L 241.808505 262.655777 
L 242.077481 280.99762 
L 242.21197 285.353214 
L 242.346458 283.051409 
L 242.615434 245.359863 
L 242.884411 147.185346 
L 243.018899 138.75941 
L 243.153387 166.213253 
L 243.287875 161.64208 
L 243.422363 145.248653 
L 243.556852 157.896012 
L 243.69134 154.90963 
L 243.960316 181.506724 
L 244.229293 239.900293 
L 244.498269 263.919552 
L 244.632757 272.168048 
L 244.767246 273.229061 
L 244.901734 269.371735 
L 245.036222 271.73948 
L 245.17071 277.077438 
L 245.708663 270.945362 
L 245.843151 249.569573 
L 246.112128 266.916908 
L 246.381104 258.108559 
L 246.515592 255.442364 
L 246.650081 257.570244 
L 247.053545 269.532923 
L 247.188033 269.071767 
L 247.45701 272.720241 
L 247.591498 273.117908 
L 247.725986 273.019316 
L 247.860475 277.102094 
L 248.129451 274.478215 
L 248.263939 276.266031 
L 248.532916 274.415814 
L 248.667404 273.977237 
L 248.801892 275.800522 
L 249.070868 274.450224 
L 249.339845 276.694828 
L 249.474333 276.588452 
L 249.743309 275.767453 
L 249.877798 274.969776 
L 250.012286 274.930974 
L 250.146774 273.161462 
L 250.281262 272.897684 
L 250.415751 273.314972 
L 250.684727 271.676394 
L 250.953703 272.904376 
L 251.088192 274.024889 
L 251.22268 271.672625 
L 251.491656 273.767644 
L 251.626144 287.448529 
L 251.760633 286.525849 
L 251.895121 281.151869 
L 252.029609 281.433109 
L 252.298586 258.175262 
L 252.567562 151.55395 
L 252.70205 134.95242 
L 252.836538 145.149947 
L 252.971027 170.599646 
L 253.105515 170.43295 
L 253.374491 186.15995 
L 253.643468 177.608408 
L 254.315909 274.19015 
L 254.584885 282.498264 
L 254.719373 281.641333 
L 254.853862 286.610696 
L 255.122838 284.986404 
L 255.257326 285.868208 
L 255.526303 245.981516 
L 255.795279 155.976645 
L 256.064255 177.384457 
L 256.333232 160.82577 
L 256.46772 167.123162 
L 256.602208 165.496003 
L 256.736697 167.006611 
L 257.274649 249.989459 
L 257.543626 268.963171 
L 257.678114 268.168507 
L 257.812602 266.357557 
L 257.94709 266.879579 
L 258.216067 287.25727 
L 258.485043 278.399609 
L 258.75402 251.812817 
L 259.022996 154.791054 
L 259.291973 172.487567 
L 259.426461 169.140807 
L 259.560949 152.900949 
L 259.829925 182.98814 
L 259.964414 162.424139 
L 260.098902 174.248659 
L 260.502366 246.104463 
L 260.771343 263.543275 
L 260.905831 267.431179 
L 261.174808 262.415155 
L 261.443784 272.829779 
L 261.578272 274.386299 
L 261.71276 271.677356 
L 261.847249 265.779646 
L 261.981737 243.587025 
L 262.250713 150.060801 
L 262.51969 167.667772 
L 262.654178 144.588136 
L 262.788666 145.7656 
L 262.923154 160.766706 
L 263.057643 156.613106 
L 263.326619 191.679223 
L 263.730084 236.936053 
L 263.99906 256.949769 
L 264.133548 259.851953 
L 264.268036 259.751775 
L 264.402525 268.564733 
L 264.671501 264.440259 
L 264.805989 265.730017 
L 265.074966 261.17092 
L 265.209454 247.817888 
L 265.881895 108.535772 
L 266.016383 104.949908 
L 266.28536 124.249067 
L 266.419848 122.958603 
L 266.554336 130.96491 
L 266.823312 187.220523 
L 267.092289 253.695837 
L 267.361265 257.700874 
L 267.495754 255.204445 
L 267.630242 274.139749 
L 267.76473 273.995211 
L 267.899218 267.758773 
L 268.033706 268.625561 
L 268.302683 277.121847 
L 268.437171 276.393118 
L 268.571659 269.863369 
L 268.840636 274.822743 
L 269.109612 267.050236 
L 269.378589 265.427416 
L 269.916541 251.946097 
L 270.05103 250.358083 
L 270.723471 263.886114 
L 270.857959 284.707922 
L 270.992447 285.56375 
L 271.126935 274.347988 
L 271.395912 276.230791 
L 271.5304 275.337425 
L 271.933865 279.647826 
L 272.068353 276.316054 
L 272.202841 276.158212 
L 272.337329 275.656777 
L 272.471817 275.788896 
L 272.606306 274.627105 
L 272.740794 270.773769 
L 273.00977 274.395865 
L 273.413235 268.216916 
L 273.682211 274.397583 
L 273.8167 274.020433 
L 273.951188 274.255148 
L 274.085676 272.522907 
L 274.220164 288.74915 
L 274.354652 291.19939 
L 274.623629 284.848722 
L 274.892605 258.109097 
L 275.161582 181.030795 
L 275.565046 153.198873 
L 275.699535 153.181749 
L 275.834023 156.530648 
L 275.968511 190.05593 
L 276.237487 201.441698 
L 276.506464 238.484119 
L 276.909928 274.644447 
L 277.044417 275.729098 
L 277.178905 279.263321 
L 277.313393 275.278531 
L 277.447881 283.472304 
L 277.716858 285.097077 
L 277.851346 284.118286 
L 278.120322 255.856921 
L 278.389299 187.155795 
L 278.523787 187.470875 
L 278.658275 174.87145 
L 278.792763 179.75661 
L 278.927252 178.506718 
L 279.06174 198.593889 
L 279.196228 197.67183 
L 279.330716 195.945353 
L 280.137646 279.943059 
L 280.272134 278.475395 
L 280.406622 279.080005 
L 280.54111 261.647759 
L 280.675598 258.759375 
L 280.810087 265.108272 
L 280.944575 265.906893 
L 281.079063 265.148043 
L 281.213551 253.618589 
L 281.348039 251.720843 
L 281.751504 135.106071 
L 281.885992 126.049194 
L 282.020481 128.658376 
L 282.289457 154.462671 
L 282.423945 126.7274 
L 282.558433 130.554263 
L 282.82741 183.04565 
L 283.230874 261.118718 
L 283.365363 264.342791 
L 283.499851 263.883435 
L 283.634339 264.037836 
L 283.903316 259.755889 
L 284.037804 260.374943 
L 284.172292 262.473856 
L 284.30678 262.45911 
L 284.575757 252.204929 
L 284.979221 148.914043 
L 285.113709 155.853529 
L 285.248198 141.232075 
L 285.382686 141.035914 
L 285.517174 142.054129 
L 285.651662 157.950913 
L 285.78615 157.839869 
L 285.920639 158.83602 
L 286.324103 251.43857 
L 286.59308 262.395759 
L 286.727568 264.817906 
L 286.862056 261.957403 
L 286.996544 287.662823 
L 287.131033 288.107372 
L 287.265521 275.209194 
L 287.400009 276.199412 
L 287.803474 270.85906 
L 288.07245 273.572628 
L 288.206938 273.186576 
L 288.341427 270.203179 
L 288.475915 270.431236 
L 288.610403 267.976041 
L 288.879379 267.216233 
L 289.148356 273.045906 
L 289.282844 266.280863 
L 289.55182 279.396881 
L 289.955285 274.766426 
L 290.089773 276.432174 
L 290.224262 273.87914 
L 290.35875 276.131648 
L 290.493238 275.632126 
L 290.627726 276.350006 
L 290.762214 274.158463 
L 290.896703 262.920264 
L 291.031191 261.35138 
L 291.165679 246.140454 
L 291.434655 165.430774 
L 291.703632 190.216193 
L 291.83812 197.238464 
L 292.107096 178.96064 
L 292.510561 204.042684 
L 292.914026 273.378771 
L 293.048514 274.010391 
L 293.183002 273.445323 
L 293.31749 271.927564 
L 293.451979 266.165004 
L 293.586467 266.359176 
L 293.720955 265.365229 
L 293.989931 270.288249 
L 294.393396 230.353939 
L 294.662373 164.140428 
L 295.065837 136.313513 
L 295.200325 137.950959 
L 295.334814 155.54269 
L 295.469302 150.620179 
L 295.738278 197.854376 
L 295.872766 207.859363 
L 296.141743 265.335441 
L 296.276231 266.638297 
L 296.410719 260.319382 
L 296.545208 266.812204 
L 296.679696 291.857928 
L 296.814184 290.343208 
L 296.948672 282.150791 
L 297.08316 281.68218 
L 297.217649 281.649708 
L 297.621113 283.456545 
L 297.89009 281.373912 
L 298.159066 275.189038 
L 298.293554 279.148408 
L 298.428042 279.231146 
L 298.697019 275.72245 
L 298.965995 271.514999 
L 299.100484 271.117085 
L 299.234972 272.343014 
L 299.503948 278.957321 
L 299.638436 276.16099 
L 299.772925 277.541407 
L 299.907413 260.675433 
L 300.176389 272.788842 
L 300.445366 270.775211 
L 300.714342 249.889882 
L 301.117807 146.165641 
L 301.386783 121.538139 
L 301.521271 123.839429 
L 301.65576 149.932144 
L 301.790248 142.624921 
L 301.924736 156.825051 
L 302.193712 204.403655 
L 302.328201 214.451826 
L 302.597177 257.519629 
L 302.731665 263.162259 
L 302.866153 261.50124 
L 303.13513 272.324856 
L 303.404106 265.457308 
L 303.538595 270.478433 
L 303.673083 270.574848 
L 304.076547 211.330397 
L 304.211036 160.234605 
L 304.480012 162.498127 
L 304.748988 153.648358 
L 304.883477 167.478238 
L 305.017965 156.477246 
L 305.152453 163.244655 
L 305.42143 215.60207 
L 305.555918 220.701868 
L 305.959382 269.046253 
L 306.093871 267.670972 
L 306.228359 267.493167 
L 306.362847 268.009459 
L 306.497335 279.468211 
L 306.631823 281.375892 
L 306.766312 277.469189 
L 306.9008 276.874238 
L 307.035288 269.162868 
L 307.169776 250.004783 
L 307.438753 153.023158 
L 307.707729 176.082076 
L 307.976706 158.041571 
L 308.111194 170.202462 
L 308.245682 160.492884 
L 308.38017 166.95824 
L 309.052611 266.846444 
L 309.187099 273.392749 
L 309.321588 272.63022 
L 309.725052 277.783781 
L 309.859541 276.691877 
L 309.994029 276.508961 
L 310.128517 275.948819 
L 310.263005 268.617092 
L 310.397493 245.52514 
L 310.66647 153.150346 
L 310.800958 159.621296 
L 310.935446 173.823861 
L 311.204423 160.843209 
L 311.338911 170.253519 
L 311.473399 169.902399 
L 311.607887 161.217955 
L 311.742376 180.388521 
L 312.011352 228.388656 
L 312.414817 268.141776 
L 312.549305 268.491182 
L 312.683793 268.073589 
L 312.952769 272.542875 
L 313.087258 270.333486 
L 313.356234 271.808734 
L 313.490722 272.892322 
L 313.894187 245.139039 
L 314.028675 254.205575 
L 314.297652 256.693368 
L 314.43214 253.558176 
L 314.701116 262.640695 
L 314.835604 262.158554 
L 315.104581 268.231992 
L 315.239069 266.808524 
L 315.373557 264.026057 
L 315.642534 269.134106 
L 315.91151 267.387108 
L 316.314975 271.664636 
L 316.449463 270.487689 
L 316.718439 272.108124 
L 316.987416 274.076697 
L 317.121904 271.829196 
L 317.256392 271.908962 
L 317.39088 270.682734 
L 317.525369 270.751672 
L 317.659857 268.780505 
L 317.794345 270.166508 
L 318.466786 261.464723 
L 318.870251 266.505018 
L 319.139227 266.382509 
L 319.273715 267.198914 
L 319.408204 283.621018 
L 319.542692 284.190832 
L 319.67718 278.295896 
L 319.811668 278.390098 
L 319.946157 273.494782 
L 320.080645 258.581794 
L 320.349621 153.573821 
L 320.618598 130.312833 
L 321.291039 189.478096 
L 321.425527 193.973869 
L 321.560015 190.883212 
L 322.097968 269.747172 
L 322.232456 267.312536 
L 322.501433 270.983137 
L 322.635921 283.611045 
L 322.770409 284.9922 
L 323.308362 263.671748 
L 323.577338 156.994781 
L 323.711826 162.555823 
L 323.846315 178.344543 
L 324.115291 151.69626 
L 324.384268 161.782045 
L 324.518756 166.800342 
L 324.787732 202.726686 
L 324.92222 214.337563 
L 325.191197 267.436215 
L 325.325685 267.739624 
L 325.460173 264.979695 
L 325.72915 269.872085 
L 325.998126 282.844944 
L 326.267103 280.07255 
L 326.401591 274.094 
L 326.536079 259.574231 
L 326.805055 153.52364 
L 326.939544 160.451249 
L 327.074032 179.872145 
L 327.20852 161.848317 
L 327.343008 161.673838 
L 327.477496 175.953922 
L 327.746473 170.80745 
L 327.880961 179.029951 
L 328.149937 225.488164 
L 328.553402 266.134493 
L 328.956867 274.156695 
L 329.091355 285.512911 
L 329.225843 285.299389 
L 329.629308 267.704171 
L 329.763796 257.21497 
L 330.032772 161.011963 
L 330.167261 164.601713 
L 330.301749 177.596356 
L 330.570725 159.236521 
L 330.705214 158.322576 
L 330.97419 195.039849 
L 331.108678 191.742841 
L 331.243166 195.115515 
L 331.646631 264.390398 
L 331.781119 267.360182 
L 331.915607 265.757156 
L 332.050096 266.420059 
L 332.184584 271.114964 
L 332.319072 284.674439 
L 332.45356 284.338919 
L 332.588049 277.44011 
L 332.722537 277.69558 
L 332.991513 256.585777 
L 333.26049 161.270133 
L 333.394978 165.785108 
L 333.529466 183.858485 
L 333.663954 167.02292 
L 333.798442 165.013306 
L 334.067419 176.432303 
L 334.336395 195.091746 
L 334.470883 200.688359 
L 334.874348 268.198385 
L 335.008836 269.249669 
L 335.277813 275.866952 
L 335.546789 271.217337 
L 335.681277 271.595238 
L 335.815766 271.458818 
L 336.084742 275.308774 
L 336.21923 271.507655 
L 336.488207 259.313477 
L 336.757183 250.537099 
L 337.02616 255.944745 
L 337.429624 264.118615 
L 337.833089 268.170244 
L 337.967577 266.412815 
L 338.236553 271.121296 
L 338.640018 264.659886 
L 338.774506 265.872276 
L 338.908995 268.654535 
L 339.043483 268.694292 
L 339.177971 269.532954 
L 339.446947 272.277757 
L 339.581436 272.733774 
L 339.715924 271.453226 
L 339.850412 269.046887 
L 339.9849 270.252076 
L 340.119388 270.376673 
L 340.253877 271.381492 
L 340.388365 271.26858 
L 340.522853 273.358979 
L 340.657341 271.287084 
L 340.791829 271.302968 
L 341.060806 270.015496 
L 341.195294 264.699754 
L 341.464271 272.573258 
L 341.598759 270.892973 
L 341.733247 270.946251 
L 341.867735 273.599688 
L 342.002223 284.779861 
L 342.136712 284.20035 
L 342.2712 279.592821 
L 342.405688 280.353721 
L 342.674664 259.267435 
L 343.078129 138.091298 
L 343.347106 175.852234 
L 343.481594 175.326004 
L 343.75057 188.674215 
L 344.019547 195.49729 
L 344.154035 192.866558 
L 344.423011 256.469098 
L 344.557499 265.589667 
L 344.691988 264.396459 
L 344.960964 275.625454 
L 345.095452 274.973515 
L 345.22994 283.221197 
L 345.364429 283.609433 
L 345.633405 280.670985 
L 345.902382 261.862255 
L 346.171358 164.693339 
L 346.440334 179.924799 
L 346.709311 169.854311 
L 346.978287 181.544582 
L 347.247264 184.48317 
L 347.51624 228.739831 
L 347.785217 262.548616 
L 348.188681 272.601836 
L 348.323169 271.938961 
L 348.457658 282.810352 
L 348.592146 283.603259 
L 348.861122 280.161781 
L 349.130099 256.67518 
L 349.399075 160.384032 
L 349.533563 170.102056 
L 349.668052 170.841292 
L 349.80254 161.402202 
L 349.937028 161.909093 
L 350.609469 215.102232 
L 351.147422 272.170145 
L 351.28191 271.699515 
L 351.416398 271.877189 
L 351.550886 274.416229 
L 351.685375 286.23032 
L 351.819863 283.666188 
L 351.954351 278.106978 
L 352.088839 278.61016 
L 352.223328 276.20397 
L 352.357816 262.312575 
L 352.626792 155.109457 
L 352.895769 179.51536 
L 353.164745 164.92173 
L 353.299233 174.968089 
L 353.433721 176.022922 
L 353.702698 153.412986 
L 354.240651 268.042221 
L 354.375139 274.118562 
L 354.509627 273.08652 
L 354.644115 273.49524 
L 354.913092 282.091728 
L 355.316556 279.955018 
L 355.451045 274.908946 
L 355.585533 258.127267 
L 355.854509 177.960106 
L 355.988998 182.093982 
L 356.257974 148.681381 
L 356.392462 156.669254 
L 356.52695 171.784471 
L 356.661439 174.354709 
L 356.795927 191.198181 
L 356.930415 189.17737 
L 357.33388 258.849758 
L 357.602856 279.590934 
L 357.737344 277.285812 
L 357.871832 277.3758 
L 358.006321 282.187189 
L 358.275297 277.863128 
L 358.544274 279.314977 
L 358.81325 276.438177 
L 359.082226 256.508677 
L 359.216715 253.390358 
L 359.351203 254.102552 
L 359.485691 251.61114 
L 359.620179 244.752174 
L 359.889156 266.588739 
L 360.023644 262.804986 
L 360.158132 265.141021 
L 360.427109 279.465779 
L 360.696085 275.535617 
L 360.965061 279.227774 
L 361.09955 279.869214 
L 361.368526 279.179503 
L 361.503014 278.393197 
L 361.637502 280.4937 
L 361.771991 280.023018 
L 361.906479 278.6313 
L 362.040967 280.991633 
L 362.175455 281.038168 
L 362.309944 280.533482 
L 362.444432 280.9296 
L 362.713408 277.897187 
L 362.847896 278.242915 
L 362.982385 277.310596 
L 363.251361 272.957856 
L 363.385849 273.016125 
L 363.520337 275.855339 
L 363.789314 273.211611 
L 364.192778 277.780058 
L 364.327267 230.294199 
L 364.461755 232.039111 
L 364.596243 253.600178 
L 364.730731 253.473138 
L 364.86522 259.077391 
L 364.999708 256.651492 
L 365.268684 200.257602 
L 365.537661 115.478045 
L 365.806637 102.251988 
L 365.941125 99.169502 
L 366.210102 131.632288 
L 366.479078 126.611582 
L 366.613566 141.312275 
L 366.882543 242.905097 
L 367.151519 256.863482 
L 367.286007 262.375379 
L 367.420496 257.766478 
L 367.689472 270.440206 
L 367.82396 266.980454 
L 368.092937 272.24313 
L 368.63089 137.403237 
L 368.765378 95.521709 
L 368.899866 99.634188 
L 369.034354 95.861235 
L 369.168842 85.488924 
L 369.437819 100.671704 
L 369.572307 110.077501 
L 369.706795 108.567048 
L 369.841283 126.869231 
L 370.244748 239.953554 
L 370.379236 243.598396 
L 370.648213 263.083023 
L 370.782701 285.645981 
L 370.917189 287.59675 
L 371.051677 277.432361 
L 371.186166 278.346181 
L 371.320654 278.074049 
L 371.58963 250.337447 
L 371.858607 160.188012 
L 371.993095 157.522167 
L 372.262071 222.817673 
L 372.531048 207.394722 
L 372.665536 202.036867 
L 372.800024 190.848672 
L 372.934512 198.949321 
L 373.203489 234.182164 
L 373.606953 266.415324 
L 373.87593 271.09553 
L 374.144906 295.358067 
L 374.413883 286.137415 
L 374.548371 285.504334 
L 374.817347 256.515161 
L 375.086324 190.172092 
L 375.3553 173.188616 
L 375.758765 182.351888 
L 376.027741 195.29552 
L 376.162229 201.779036 
L 376.431206 236.540224 
L 376.700182 267.586709 
L 376.83467 270.269734 
L 376.969159 268.282049 
L 377.103647 268.931718 
L 377.238135 286.247045 
L 377.372623 283.19467 
L 377.507112 277.50292 
L 377.6416 279.080108 
L 377.776088 274.014909 
L 377.910576 280.246036 
L 378.045064 279.666216 
L 378.179553 276.949165 
L 378.314041 262.429614 
L 378.448529 262.510376 
L 378.583017 255.835243 
L 378.717505 256.558047 
L 378.851994 260.111682 
L 378.986482 267.838026 
L 379.12097 267.676345 
L 379.255458 266.121798 
L 379.389947 269.837189 
L 379.524435 268.512852 
L 380.062388 279.043139 
L 380.331364 276.685558 
L 380.465852 258.399527 
L 380.60034 259.169221 
L 380.869317 271.427928 
L 381.003805 270.913326 
L 381.40727 209.736858 
L 381.541758 152.324406 
L 381.676246 143.593655 
L 381.810734 148.460745 
L 381.945223 138.618231 
L 382.079711 142.723801 
L 382.348687 156.838617 
L 382.483175 144.506886 
L 383.155616 264.828893 
L 383.290105 268.769653 
L 383.424593 269.001979 
L 383.559081 267.134114 
L 383.828058 254.60945 
L 384.097034 260.35106 
L 384.231522 262.184438 
L 384.36601 258.209789 
L 384.500499 260.147147 
L 384.903963 154.066671 
L 385.038451 159.326152 
L 385.17294 142.171462 
L 385.307428 152.228024 
L 385.441916 184.071844 
L 385.710893 174.707048 
L 385.979869 213.126662 
L 386.383334 272.332267 
L 386.517822 272.177011 
L 386.65231 275.105318 
L 386.786798 273.576881 
L 386.921286 281.739651 
L 387.055775 282.150678 
L 387.190263 275.560652 
L 387.324751 277.534833 
L 387.593727 276.185606 
L 387.728216 279.198585 
L 387.862704 278.349786 
L 387.997192 279.709811 
L 388.13168 278.096628 
L 388.266169 279.897379 
L 388.400657 279.155985 
L 388.535145 275.212048 
L 388.93861 277.139865 
L 389.073098 273.365113 
L 389.207586 274.26149 
L 389.611051 287.975317 
L 389.880027 282.89269 
L 390.014515 283.703702 
L 390.149004 255.277865 
L 390.283492 255.669251 
L 390.41798 267.789678 
L 390.686956 267.290859 
L 390.821445 257.37809 
L 390.955933 258.145188 
L 391.090421 247.90894 
L 391.359397 172.15416 
L 391.493886 157.324431 
L 391.628374 156.371189 
L 391.89735 185.850644 
L 392.031839 185.960093 
L 392.166327 172.05565 
L 392.300815 177.988496 
L 392.569791 223.748307 
L 392.838768 272.020309 
L 392.973256 275.075996 
L 393.242232 271.248985 
L 393.511209 256.504848 
L 393.780185 271.879766 
L 393.914673 262.965345 
L 394.049162 264.70533 
L 394.18365 253.485994 
L 394.587115 154.327539 
L 394.721603 155.293978 
L 394.856091 141.527804 
L 394.990579 144.757637 
L 395.125067 152.366642 
L 395.259556 151.738076 
L 395.394044 170.773913 
L 395.528532 171.061662 
L 395.931997 243.162741 
L 396.200973 265.300638 
L 396.335461 264.900166 
L 396.46995 255.571392 
L 396.604438 289.537099 
L 396.738926 292.780251 
L 396.873414 281.207535 
L 397.142391 283.413048 
L 397.411367 257.5791 
L 397.680343 167.92779 
L 397.814832 178.665352 
L 398.218296 151.016066 
L 398.352785 171.565121 
L 398.487273 170.946318 
L 398.487273 170.946318 
" clip-path="url(#pb312d28464)" style="fill: none; stroke: #ff7f0e; stroke-width: 1.5; stroke-linecap: square"/>
   </g>
   <g id="patch_3">
    <path d="M 57.6 307.584 
L 57.6 41.472 
" style="fill: none; stroke: #000000; stroke-width: 0.8; stroke-linejoin: miter; stroke-linecap: square"/>
   </g>
   <g id="patch_4">
    <path d="M 414.72 307.584 
L 414.72 41.472 
" style="fill: none; stroke: #000000; stroke-width: 0.8; stroke-linejoin: miter; stroke-linecap: square"/>
   </g>
   <g id="patch_5">
    <path d="M 57.6 307.584 
L 414.72 307.584 
" style="fill: none; stroke: #000000; stroke-width: 0.8; stroke-linejoin: miter; stroke-linecap: square"/>
   </g>
   <g id="patch_6">
    <path d="M 57.6 41.472 
L 414.72 41.472 
" style="fill: none; stroke: #000000; stroke-width: 0.8; stroke-linejoin: miter; stroke-linecap: square"/>
   </g>
  </g>
 </g>
 <defs>
  <clipPath id="pb312d28464">
   <rect x="57.6" y="41.472" width="357.12" height="266.112"/>
  </clipPath>
 </defs>
</svg>
