<?xml version="1.0" encoding="utf-8" standalone="no"?>
<!DOCTYPE svg PUBLIC "-//W3C//DTD SVG 1.1//EN"
  "http://www.w3.org/Graphics/SVG/1.1/DTD/svg11.dtd">
<svg xmlns:xlink="http://www.w3.org/1999/xlink" width="460.8pt" height="345.6pt" viewBox="0 0 460.8 345.6" xmlns="http://www.w3.org/2000/svg" version="1.1">
 <metadata>
  <rdf:RDF xmlns:dc="http://purl.org/dc/elements/1.1/" xmlns:cc="http://creativecommons.org/ns#" xmlns:rdf="http://www.w3.org/1999/02/22-rdf-syntax-ns#">
   <cc:Work>
    <dc:type rdf:resource="http://purl.org/dc/dcmitype/StillImage"/>
    <dc:date>2023-04-04T05:53:43.444091</dc:date>
    <dc:format>image/svg+xml</dc:format>
    <dc:creator>
     <cc:Agent>
      <dc:title>Matplotlib v3.5.2, https://matplotlib.org/</dc:title>
     </cc:Agent>
    </dc:creator>
   </cc:Work>
  </rdf:RDF>
 </metadata>
 <defs>
  <style type="text/css">*{stroke-linejoin: round; stroke-linecap: butt}</style>
 </defs>
 <g id="figure_1">
  <g id="patch_1">
   <path d="M 0 345.6 
L 460.8 345.6 
L 460.8 0 
L 0 0 
z
" style="fill: #ffffff"/>
  </g>
  <g id="axes_1">
   <g id="patch_2">
    <path d="M 57.6 307.584 
L 414.72 307.584 
L 414.72 41.472 
L 57.6 41.472 
z
" style="fill: #ffffff"/>
   </g>
   <g id="matplotlib.axis_1">
    <g id="xtick_1">
     <g id="line2d_1">
      <defs>
       <path id="m15fb93ce93" d="M 0 0 
L 0 3.5 
" style="stroke: #000000; stroke-width: 0.8"/>
      </defs>
      <g>
       <use xlink:href="#m15fb93ce93" x="73.832727" y="307.584" style="stroke: #000000; stroke-width: 0.8"/>
      </g>
     </g>
     <g id="text_1">
      <!-- 0 -->
      <g transform="translate(70.651477 322.182437)scale(0.1 -0.1)">
       <defs>
        <path id="DejaVuSans-30" d="M 2034 4250 
Q 1547 4250 1301 3770 
Q 1056 3291 1056 2328 
Q 1056 1369 1301 889 
Q 1547 409 2034 409 
Q 2525 409 2770 889 
Q 3016 1369 3016 2328 
Q 3016 3291 2770 3770 
Q 2525 4250 2034 4250 
z
M 2034 4750 
Q 2819 4750 3233 4129 
Q 3647 3509 3647 2328 
Q 3647 1150 3233 529 
Q 2819 -91 2034 -91 
Q 1250 -91 836 529 
Q 422 1150 422 2328 
Q 422 3509 836 4129 
Q 1250 4750 2034 4750 
z
" transform="scale(0.015625)"/>
       </defs>
       <use xlink:href="#DejaVuSans-30"/>
      </g>
     </g>
    </g>
    <g id="xtick_2">
     <g id="line2d_2">
      <g>
       <use xlink:href="#m15fb93ce93" x="141.076834" y="307.584" style="stroke: #000000; stroke-width: 0.8"/>
      </g>
     </g>
     <g id="text_2">
      <!-- 500 -->
      <g transform="translate(131.533084 322.182437)scale(0.1 -0.1)">
       <defs>
        <path id="DejaVuSans-35" d="M 691 4666 
L 3169 4666 
L 3169 4134 
L 1269 4134 
L 1269 2991 
Q 1406 3038 1543 3061 
Q 1681 3084 1819 3084 
Q 2600 3084 3056 2656 
Q 3513 2228 3513 1497 
Q 3513 744 3044 326 
Q 2575 -91 1722 -91 
Q 1428 -91 1123 -41 
Q 819 9 494 109 
L 494 744 
Q 775 591 1075 516 
Q 1375 441 1709 441 
Q 2250 441 2565 725 
Q 2881 1009 2881 1497 
Q 2881 1984 2565 2268 
Q 2250 2553 1709 2553 
Q 1456 2553 1204 2497 
Q 953 2441 691 2322 
L 691 4666 
z
" transform="scale(0.015625)"/>
       </defs>
       <use xlink:href="#DejaVuSans-35"/>
       <use xlink:href="#DejaVuSans-30" x="63.623047"/>
       <use xlink:href="#DejaVuSans-30" x="127.246094"/>
      </g>
     </g>
    </g>
    <g id="xtick_3">
     <g id="line2d_3">
      <g>
       <use xlink:href="#m15fb93ce93" x="208.32094" y="307.584" style="stroke: #000000; stroke-width: 0.8"/>
      </g>
     </g>
     <g id="text_3">
      <!-- 1000 -->
      <g transform="translate(195.59594 322.182437)scale(0.1 -0.1)">
       <defs>
        <path id="DejaVuSans-31" d="M 794 531 
L 1825 531 
L 1825 4091 
L 703 3866 
L 703 4441 
L 1819 4666 
L 2450 4666 
L 2450 531 
L 3481 531 
L 3481 0 
L 794 0 
L 794 531 
z
" transform="scale(0.015625)"/>
       </defs>
       <use xlink:href="#DejaVuSans-31"/>
       <use xlink:href="#DejaVuSans-30" x="63.623047"/>
       <use xlink:href="#DejaVuSans-30" x="127.246094"/>
       <use xlink:href="#DejaVuSans-30" x="190.869141"/>
      </g>
     </g>
    </g>
    <g id="xtick_4">
     <g id="line2d_4">
      <g>
       <use xlink:href="#m15fb93ce93" x="275.565046" y="307.584" style="stroke: #000000; stroke-width: 0.8"/>
      </g>
     </g>
     <g id="text_4">
      <!-- 1500 -->
      <g transform="translate(262.840046 322.182437)scale(0.1 -0.1)">
       <use xlink:href="#DejaVuSans-31"/>
       <use xlink:href="#DejaVuSans-35" x="63.623047"/>
       <use xlink:href="#DejaVuSans-30" x="127.246094"/>
       <use xlink:href="#DejaVuSans-30" x="190.869141"/>
      </g>
     </g>
    </g>
    <g id="xtick_5">
     <g id="line2d_5">
      <g>
       <use xlink:href="#m15fb93ce93" x="342.809153" y="307.584" style="stroke: #000000; stroke-width: 0.8"/>
      </g>
     </g>
     <g id="text_5">
      <!-- 2000 -->
      <g transform="translate(330.084153 322.182437)scale(0.1 -0.1)">
       <defs>
        <path id="DejaVuSans-32" d="M 1228 531 
L 3431 531 
L 3431 0 
L 469 0 
L 469 531 
Q 828 903 1448 1529 
Q 2069 2156 2228 2338 
Q 2531 2678 2651 2914 
Q 2772 3150 2772 3378 
Q 2772 3750 2511 3984 
Q 2250 4219 1831 4219 
Q 1534 4219 1204 4116 
Q 875 4013 500 3803 
L 500 4441 
Q 881 4594 1212 4672 
Q 1544 4750 1819 4750 
Q 2544 4750 2975 4387 
Q 3406 4025 3406 3419 
Q 3406 3131 3298 2873 
Q 3191 2616 2906 2266 
Q 2828 2175 2409 1742 
Q 1991 1309 1228 531 
z
" transform="scale(0.015625)"/>
       </defs>
       <use xlink:href="#DejaVuSans-32"/>
       <use xlink:href="#DejaVuSans-30" x="63.623047"/>
       <use xlink:href="#DejaVuSans-30" x="127.246094"/>
       <use xlink:href="#DejaVuSans-30" x="190.869141"/>
      </g>
     </g>
    </g>
    <g id="xtick_6">
     <g id="line2d_6">
      <g>
       <use xlink:href="#m15fb93ce93" x="410.053259" y="307.584" style="stroke: #000000; stroke-width: 0.8"/>
      </g>
     </g>
     <g id="text_6">
      <!-- 2500 -->
      <g transform="translate(397.328259 322.182437)scale(0.1 -0.1)">
       <use xlink:href="#DejaVuSans-32"/>
       <use xlink:href="#DejaVuSans-35" x="63.623047"/>
       <use xlink:href="#DejaVuSans-30" x="127.246094"/>
       <use xlink:href="#DejaVuSans-30" x="190.869141"/>
      </g>
     </g>
    </g>
   </g>
   <g id="matplotlib.axis_2">
    <g id="ytick_1">
     <g id="line2d_7">
      <defs>
       <path id="m7767a466c3" d="M 0 0 
L -3.5 0 
" style="stroke: #000000; stroke-width: 0.8"/>
      </defs>
      <g>
       <use xlink:href="#m7767a466c3" x="57.6" y="277.4252" style="stroke: #000000; stroke-width: 0.8"/>
      </g>
     </g>
     <g id="text_7">
      <!-- 100 -->
      <g transform="translate(31.5125 281.224419)scale(0.1 -0.1)">
       <use xlink:href="#DejaVuSans-31"/>
       <use xlink:href="#DejaVuSans-30" x="63.623047"/>
       <use xlink:href="#DejaVuSans-30" x="127.246094"/>
      </g>
     </g>
    </g>
    <g id="ytick_2">
     <g id="line2d_8">
      <g>
       <use xlink:href="#m7767a466c3" x="57.6" y="230.255561" style="stroke: #000000; stroke-width: 0.8"/>
      </g>
     </g>
     <g id="text_8">
      <!-- 200 -->
      <g transform="translate(31.5125 234.05478)scale(0.1 -0.1)">
       <use xlink:href="#DejaVuSans-32"/>
       <use xlink:href="#DejaVuSans-30" x="63.623047"/>
       <use xlink:href="#DejaVuSans-30" x="127.246094"/>
      </g>
     </g>
    </g>
    <g id="ytick_3">
     <g id="line2d_9">
      <g>
       <use xlink:href="#m7767a466c3" x="57.6" y="183.085923" style="stroke: #000000; stroke-width: 0.8"/>
      </g>
     </g>
     <g id="text_9">
      <!-- 300 -->
      <g transform="translate(31.5125 186.885141)scale(0.1 -0.1)">
       <defs>
        <path id="DejaVuSans-33" d="M 2597 2516 
Q 3050 2419 3304 2112 
Q 3559 1806 3559 1356 
Q 3559 666 3084 287 
Q 2609 -91 1734 -91 
Q 1441 -91 1130 -33 
Q 819 25 488 141 
L 488 750 
Q 750 597 1062 519 
Q 1375 441 1716 441 
Q 2309 441 2620 675 
Q 2931 909 2931 1356 
Q 2931 1769 2642 2001 
Q 2353 2234 1838 2234 
L 1294 2234 
L 1294 2753 
L 1863 2753 
Q 2328 2753 2575 2939 
Q 2822 3125 2822 3475 
Q 2822 3834 2567 4026 
Q 2313 4219 1838 4219 
Q 1578 4219 1281 4162 
Q 984 4106 628 3988 
L 628 4550 
Q 988 4650 1302 4700 
Q 1616 4750 1894 4750 
Q 2613 4750 3031 4423 
Q 3450 4097 3450 3541 
Q 3450 3153 3228 2886 
Q 3006 2619 2597 2516 
z
" transform="scale(0.015625)"/>
       </defs>
       <use xlink:href="#DejaVuSans-33"/>
       <use xlink:href="#DejaVuSans-30" x="63.623047"/>
       <use xlink:href="#DejaVuSans-30" x="127.246094"/>
      </g>
     </g>
    </g>
    <g id="ytick_4">
     <g id="line2d_10">
      <g>
       <use xlink:href="#m7767a466c3" x="57.6" y="135.916284" style="stroke: #000000; stroke-width: 0.8"/>
      </g>
     </g>
     <g id="text_10">
      <!-- 400 -->
      <g transform="translate(31.5125 139.715503)scale(0.1 -0.1)">
       <defs>
        <path id="DejaVuSans-34" d="M 2419 4116 
L 825 1625 
L 2419 1625 
L 2419 4116 
z
M 2253 4666 
L 3047 4666 
L 3047 1625 
L 3713 1625 
L 3713 1100 
L 3047 1100 
L 3047 0 
L 2419 0 
L 2419 1100 
L 313 1100 
L 313 1709 
L 2253 4666 
z
" transform="scale(0.015625)"/>
       </defs>
       <use xlink:href="#DejaVuSans-34"/>
       <use xlink:href="#DejaVuSans-30" x="63.623047"/>
       <use xlink:href="#DejaVuSans-30" x="127.246094"/>
      </g>
     </g>
    </g>
    <g id="ytick_5">
     <g id="line2d_11">
      <g>
       <use xlink:href="#m7767a466c3" x="57.6" y="88.746645" style="stroke: #000000; stroke-width: 0.8"/>
      </g>
     </g>
     <g id="text_11">
      <!-- 500 -->
      <g transform="translate(31.5125 92.545864)scale(0.1 -0.1)">
       <use xlink:href="#DejaVuSans-35"/>
       <use xlink:href="#DejaVuSans-30" x="63.623047"/>
       <use xlink:href="#DejaVuSans-30" x="127.246094"/>
      </g>
     </g>
    </g>
    <g id="ytick_6">
     <g id="line2d_12">
      <g>
       <use xlink:href="#m7767a466c3" x="57.6" y="41.577006" style="stroke: #000000; stroke-width: 0.8"/>
      </g>
     </g>
     <g id="text_12">
      <!-- 600 -->
      <g transform="translate(31.5125 45.376225)scale(0.1 -0.1)">
       <defs>
        <path id="DejaVuSans-36" d="M 2113 2584 
Q 1688 2584 1439 2293 
Q 1191 2003 1191 1497 
Q 1191 994 1439 701 
Q 1688 409 2113 409 
Q 2538 409 2786 701 
Q 3034 994 3034 1497 
Q 3034 2003 2786 2293 
Q 2538 2584 2113 2584 
z
M 3366 4563 
L 3366 3988 
Q 3128 4100 2886 4159 
Q 2644 4219 2406 4219 
Q 1781 4219 1451 3797 
Q 1122 3375 1075 2522 
Q 1259 2794 1537 2939 
Q 1816 3084 2150 3084 
Q 2853 3084 3261 2657 
Q 3669 2231 3669 1497 
Q 3669 778 3244 343 
Q 2819 -91 2113 -91 
Q 1303 -91 875 529 
Q 447 1150 447 2328 
Q 447 3434 972 4092 
Q 1497 4750 2381 4750 
Q 2619 4750 2861 4703 
Q 3103 4656 3366 4563 
z
" transform="scale(0.015625)"/>
       </defs>
       <use xlink:href="#DejaVuSans-36"/>
       <use xlink:href="#DejaVuSans-30" x="63.623047"/>
       <use xlink:href="#DejaVuSans-30" x="127.246094"/>
      </g>
     </g>
    </g>
   </g>
   <g id="line2d_13">
    <path d="M 73.832727 280.455378 
L 74.101704 279.913399 
L 74.236192 278.817648 
L 74.37068 279.768588 
L 74.505168 279.282741 
L 74.639657 279.876606 
L 74.774145 273.491724 
L 74.908633 246.739935 
L 75.177609 245.266827 
L 75.312098 245.814938 
L 75.446586 245.866825 
L 75.581074 246.722011 
L 75.715562 245.975787 
L 75.85005 245.954089 
L 76.253515 241.035239 
L 76.522492 274.638418 
L 76.65698 274.947379 
L 76.925956 273.263423 
L 77.060444 264.525719 
L 77.194933 266.73939 
L 77.463909 266.802126 
L 77.598397 268.365328 
L 77.732885 263.110158 
L 77.867374 249.881905 
L 78.405327 103.433855 
L 78.674303 102.524425 
L 78.808791 109.567324 
L 78.943279 104.828662 
L 79.481232 156.823754 
L 79.750209 226.260765 
L 80.019185 260.51913 
L 80.153673 262.614877 
L 80.288161 258.8314 
L 80.42265 269.088438 
L 80.557138 268.659666 
L 80.826114 271.133714 
L 80.960603 268.627591 
L 81.095091 258.451685 
L 81.364067 166.875133 
L 81.498555 179.011409 
L 81.767532 159.866196 
L 82.036508 167.761922 
L 82.170996 164.702499 
L 82.305485 158.807709 
L 83.112414 257.979988 
L 83.650367 283.813384 
L 83.784855 283.833667 
L 83.919343 285.341681 
L 84.053831 285.531303 
L 84.18832 283.462442 
L 84.322808 276.334638 
L 84.726273 187.40902 
L 84.860761 178.859995 
L 84.995249 182.901489 
L 85.129737 168.218996 
L 85.264225 176.646323 
L 85.398714 177.383585 
L 85.66769 185.568461 
L 85.802178 194.220788 
L 86.340131 260.07715 
L 86.474619 262.062992 
L 86.609107 266.907314 
L 86.878084 284.19027 
L 87.012572 286.411016 
L 87.14706 286.088848 
L 87.281549 287.559597 
L 87.416037 287.463843 
L 87.550525 286.663374 
L 87.819501 259.529039 
L 87.95399 259.672907 
L 88.088478 254.063022 
L 88.222966 255.503111 
L 88.357454 254.755472 
L 88.491942 251.442276 
L 88.626431 254.238964 
L 88.760919 247.33899 
L 88.895407 250.177658 
L 89.029895 250.176243 
L 89.164384 252.702649 
L 89.43336 273.717195 
L 89.567848 275.358227 
L 89.702336 274.866719 
L 89.836825 275.91247 
L 89.971313 260.96677 
L 90.105801 261.670541 
L 90.240289 263.19412 
L 90.374777 262.966763 
L 90.509266 264.186098 
L 90.643754 264.355437 
L 90.778242 266.426656 
L 90.91273 263.24695 
L 91.047218 253.441797 
L 91.181707 252.286613 
L 91.316195 245.44843 
L 91.450683 249.823414 
L 91.585171 247.883799 
L 91.71966 249.362095 
L 91.854148 249.585208 
L 92.123124 252.528121 
L 92.257612 251.963029 
L 92.526589 257.483292 
L 92.795565 263.99223 
L 92.930053 264.93468 
L 93.064542 263.809212 
L 93.19903 273.694082 
L 93.468006 273.817195 
L 93.602495 274.863889 
L 93.736983 273.645969 
L 93.871471 271.155884 
L 94.005959 266.004959 
L 94.6784 160.149686 
L 94.812888 155.809136 
L 95.081865 167.516168 
L 95.216353 162.366659 
L 95.350841 151.245001 
L 96.023282 262.385633 
L 96.157771 263.105913 
L 96.426747 266.983257 
L 96.561235 266.654013 
L 96.695723 266.730428 
L 96.830212 268.589383 
L 96.9647 267.959669 
L 97.099188 266.55024 
L 97.233676 258.189422 
L 97.368164 240.847976 
L 97.502653 200.342935 
L 97.637141 193.336357 
L 97.771629 178.058582 
L 97.906117 186.348647 
L 98.040606 179.719897 
L 98.175094 180.420838 
L 98.309582 175.168499 
L 98.44407 176.790191 
L 98.713047 188.016565 
L 98.982023 229.436225 
L 99.250999 263.848835 
L 99.385488 268.476648 
L 99.519976 269.221457 
L 99.654464 278.903968 
L 99.788952 278.916233 
L 99.923441 277.927557 
L 100.192417 279.150194 
L 100.326905 279.229911 
L 100.461393 278.583215 
L 100.595882 278.984157 
L 100.73037 279.80255 
L 100.864858 278.283216 
L 100.999346 279.424721 
L 101.133834 278.528026 
L 101.268323 276.340299 
L 101.402811 269.402588 
L 101.537299 273.621441 
L 101.806276 263.364874 
L 101.940764 265.498829 
L 102.075252 265.352131 
L 102.20974 265.992223 
L 102.344228 268.341271 
L 102.478717 274.087005 
L 102.613205 272.257766 
L 102.747693 277.857274 
L 102.882181 264.567228 
L 103.016669 264.59553 
L 103.151158 269.440795 
L 103.285646 269.224287 
L 103.554622 265.095528 
L 103.68911 260.959223 
L 103.823599 243.750323 
L 104.092575 182.257152 
L 104.227063 161.041192 
L 104.361552 168.116638 
L 104.630528 143.551633 
L 105.033993 158.678465 
L 105.168481 169.32418 
L 105.706434 251.354541 
L 105.840922 251.233787 
L 105.97541 259.824321 
L 106.109898 276.052092 
L 106.378875 279.201609 
L 106.513363 279.18793 
L 106.647851 281.318111 
L 106.782339 281.053017 
L 106.916828 282.150655 
L 107.320292 245.046545 
L 107.45478 252.022463 
L 107.589269 249.520114 
L 107.723757 249.611623 
L 108.26171 244.611641 
L 108.396198 241.247031 
L 108.530686 243.478626 
L 108.934151 274.695022 
L 109.068639 276.191242 
L 109.203127 275.137473 
L 109.337615 270.697866 
L 109.606592 272.227106 
L 109.875568 273.266253 
L 110.144545 274.302098 
L 110.413521 273.079933 
L 110.548009 272.946915 
L 110.951474 268.948344 
L 111.085962 270.106831 
L 111.22045 269.763907 
L 111.623915 264.04223 
L 111.758403 264.543644 
L 112.02738 268.276649 
L 112.430844 269.85353 
L 112.565333 259.744605 
L 112.834309 263.889872 
L 112.968797 264.40638 
L 113.103285 265.895525 
L 113.237774 266.071468 
L 113.50675 268.653534 
L 113.641238 269.472399 
L 114.313679 258.391779 
L 114.448168 258.035648 
L 114.582656 256.573861 
L 114.98612 245.892297 
L 115.524073 256.801691 
L 115.658561 257.344142 
L 115.927538 259.538945 
L 116.062026 258.272912 
L 116.196514 264.285154 
L 116.331002 263.873835 
L 116.465491 264.476191 
L 116.599979 254.85783 
L 117.137932 78.760361 
L 117.406908 64.271263 
L 117.810373 80.571203 
L 118.213837 146.798791 
L 118.482814 208.235359 
L 118.75179 242.169197 
L 118.886279 243.680984 
L 119.289743 251.559257 
L 119.424231 252.956893 
L 119.55872 255.688016 
L 119.693208 256.000279 
L 119.827696 246.523426 
L 120.365649 91.432012 
L 120.634625 73.133966 
L 120.769114 76.77216 
L 120.903602 70.445297 
L 121.03809 71.754254 
L 121.441555 134.270063 
L 121.710531 200.136804 
L 121.845019 227.910287 
L 122.248484 238.716851 
L 122.51746 254.008776 
L 122.651948 254.165851 
L 122.786437 255.879524 
L 122.920925 254.558303 
L 123.055413 246.515408 
L 123.727854 60.371749 
L 123.862342 53.568 
L 124.534783 106.918748 
L 125.072736 245.826731 
L 125.207225 250.922939 
L 125.341713 251.379541 
L 125.476201 251.333786 
L 125.745177 264.737039 
L 125.879666 266.153072 
L 126.014154 266.379486 
L 126.28313 253.122459 
L 126.821083 92.521631 
L 126.955571 74.435377 
L 127.09006 80.938183 
L 127.359036 105.121585 
L 127.493524 107.529123 
L 127.762501 125.759245 
L 127.896989 148.232748 
L 128.300453 244.232397 
L 128.434942 249.950772 
L 128.56943 248.149836 
L 128.703918 255.542733 
L 128.838406 256.25641 
L 129.241871 262.853084 
L 129.510847 242.440894 
L 130.0488 83.080628 
L 130.183288 74.103302 
L 130.317777 85.849957 
L 130.452265 114.258344 
L 130.586753 113.353159 
L 130.721241 109.758361 
L 130.855729 116.056451 
L 131.124706 168.561919 
L 131.393682 233.261211 
L 131.662659 256.029524 
L 131.931635 255.836128 
L 132.066123 255.656412 
L 132.3351 266.765805 
L 132.469588 266.619579 
L 132.604076 266.717221 
L 132.738564 266.676183 
L 133.007541 254.956414 
L 133.276517 244.64749 
L 133.679982 239.149869 
L 133.81447 237.984778 
L 133.948958 232.959325 
L 134.486911 242.693723 
L 134.755888 249.678132 
L 134.890376 249.564925 
L 135.697305 263.601666 
L 135.831793 268.283253 
L 135.966282 268.883722 
L 136.10077 266.929956 
L 136.235258 268.411554 
L 136.369746 268.141272 
L 136.504234 263.904023 
L 136.638723 263.74742 
L 136.907699 261.840823 
L 137.311164 251.115862 
L 137.445652 251.618219 
L 137.58014 248.974833 
L 137.983605 255.688959 
L 138.118093 254.800283 
L 138.252581 256.608295 
L 138.387069 261.034694 
L 138.521558 259.819604 
L 138.656046 260.017717 
L 138.925022 264.644587 
L 139.193999 248.63757 
L 139.731951 81.253748 
L 139.86644 72.466516 
L 140.269904 98.098026 
L 140.538881 122.170108 
L 140.673369 129.157818 
L 140.807857 143.309181 
L 141.076834 222.254176 
L 141.480298 254.961131 
L 142.018251 263.277139 
L 142.152739 262.820065 
L 142.421716 239.428641 
L 142.959669 91.107014 
L 143.094157 83.79855 
L 143.228645 83.317891 
L 143.363133 93.395213 
L 143.497621 84.255624 
L 143.63211 89.307964 
L 144.573527 256.190844 
L 144.708015 259.629982 
L 144.842504 259.803095 
L 145.11148 262.012992 
L 145.245968 264.125249 
L 145.380456 260.106396 
L 145.783921 199.825012 
L 146.052897 109.459777 
L 146.187386 90.615506 
L 146.456362 105.707432 
L 146.59085 116.865882 
L 146.725339 111.257412 
L 146.859827 118.56446 
L 146.994315 113.560233 
L 147.128803 126.234715 
L 147.532268 231.964046 
L 147.801244 257.60782 
L 147.935732 257.807347 
L 148.204709 263.004498 
L 148.339197 262.983272 
L 148.473685 263.479968 
L 148.742662 262.441293 
L 148.87715 245.000319 
L 149.280615 118.430499 
L 149.415103 114.446551 
L 149.549591 105.488093 
L 149.684079 106.726768 
L 150.087544 138.994103 
L 150.222032 131.405923 
L 150.35652 136.851186 
L 150.894473 250.13096 
L 151.028961 259.179041 
L 151.16345 258.234233 
L 151.835891 266.299298 
L 151.970379 265.044113 
L 152.104867 244.377208 
L 152.508332 112.501747 
L 152.64282 115.568717 
L 152.911796 103.874892 
L 153.046285 117.833803 
L 153.180773 116.353148 
L 153.449749 150.362457 
L 153.718726 190.758536 
L 153.987702 246.621539 
L 154.12219 263.443176 
L 154.256678 264.803548 
L 154.525655 268.613912 
L 154.794631 270.295038 
L 155.063608 273.200216 
L 155.198096 274.820021 
L 155.332584 274.185118 
L 155.467072 269.862964 
L 155.601561 259.527624 
L 155.736049 258.678099 
L 155.870537 255.851223 
L 156.005025 257.961592 
L 156.274002 256.089901 
L 156.40849 256.619144 
L 156.542978 257.855932 
L 156.677466 256.675276 
L 157.215419 264.577134 
L 157.349907 266.556372 
L 157.484396 265.577602 
L 157.618884 266.337505 
L 157.88786 269.470984 
L 158.022348 269.945511 
L 158.291325 272.904462 
L 158.560301 277.128503 
L 158.694789 275.583226 
L 158.829278 276.534637 
L 158.963766 276.143601 
L 159.232742 273.465781 
L 159.367231 273.744082 
L 159.501719 271.787013 
L 160.039672 257.892253 
L 160.308648 258.147912 
L 160.443136 263.790344 
L 160.577624 263.510628 
L 160.712113 261.58139 
L 160.846601 262.273841 
L 160.981089 263.746005 
L 161.250066 267.452595 
L 161.519042 268.391271 
L 161.788018 251.851709 
L 162.460459 83.500909 
L 162.594948 83.168835 
L 162.729436 81.729218 
L 162.998412 101.057921 
L 163.132901 109.88336 
L 163.401877 150.597362 
L 163.670853 220.380598 
L 164.074318 254.013965 
L 164.208806 255.131886 
L 164.477783 267.617689 
L 164.612271 269.947397 
L 164.746759 265.308263 
L 165.015735 248.033798 
L 165.4192 120.021531 
L 165.553688 122.585672 
L 165.822665 108.87959 
L 165.957153 114.064477 
L 166.091641 111.021092 
L 166.360618 99.721133 
L 166.495106 105.831488 
L 166.89857 219.493337 
L 167.033059 226.371142 
L 167.302035 244.513056 
L 167.974476 262.728556 
L 168.108964 257.131407 
L 168.243453 243.308344 
L 168.377941 205.745274 
L 168.646917 105.659791 
L 168.781405 106.925352 
L 168.915894 102.460746 
L 169.050382 103.743288 
L 169.18487 107.487614 
L 169.319358 92.366915 
L 169.453847 94.811717 
L 169.857311 147.466713 
L 170.126288 224.608412 
L 170.395264 255.007829 
L 170.529752 255.875751 
L 170.66424 259.266304 
L 170.798729 259.453096 
L 171.067705 261.748842 
L 171.202193 264.545059 
L 171.47117 243.051741 
L 172.009123 109.667323 
L 172.143611 108.11214 
L 172.412587 96.513598 
L 172.95054 128.575745 
L 173.622981 256.950747 
L 173.757469 260.88611 
L 173.891958 274.08559 
L 174.026446 273.169084 
L 174.160934 273.125688 
L 174.42991 274.636059 
L 174.698887 260.044603 
L 174.833375 243.151741 
L 175.102351 175.554346 
L 175.371328 142.63041 
L 175.505816 139.769572 
L 175.640304 149.799252 
L 175.774792 149.493121 
L 175.909281 150.88321 
L 176.043769 155.625646 
L 176.178257 155.321873 
L 176.312745 169.60201 
L 176.581722 236.359784 
L 176.850698 263.124309 
L 176.985186 260.663469 
L 177.254163 265.33515 
L 177.388651 265.292226 
L 177.792116 271.7639 
L 177.926604 272.642671 
L 178.19558 262.068653 
L 178.330069 261.63422 
L 178.599045 254.167266 
L 178.733533 253.60925 
L 178.868021 255.887071 
L 179.136998 252.422933 
L 179.271486 253.011139 
L 179.540462 250.557846 
L 179.809439 257.966309 
L 179.943927 265.142226 
L 180.212904 263.265346 
L 180.48188 273.004933 
L 180.616368 273.018613 
L 180.750856 273.386064 
L 180.885345 274.206816 
L 181.019833 274.292193 
L 181.692274 262.14035 
L 181.826762 263.419591 
L 181.96125 257.512537 
L 182.095738 259.271965 
L 182.364715 264.640813 
L 182.499203 265.902601 
L 182.633691 269.010137 
L 182.902668 268.202592 
L 183.171644 274.255401 
L 183.306132 275.653509 
L 183.440621 274.557758 
L 183.575109 272.285125 
L 183.844085 283.869045 
L 183.978573 284.808192 
L 184.113062 282.5582 
L 184.382038 271.316732 
L 184.919991 180.751497 
L 185.054479 184.716105 
L 185.188967 177.733112 
L 185.457944 181.544419 
L 185.592432 183.024602 
L 185.995897 220.300881 
L 186.264873 250.510204 
L 186.53385 266.067223 
L 186.802826 276.191242 
L 187.071802 286.555356 
L 187.206291 285.419511 
L 187.340779 286.539318 
L 187.475267 283.402065 
L 187.609755 275.504924 
L 188.01322 200.556613 
L 188.147708 184.364691 
L 188.282196 184.580728 
L 188.416684 183.634505 
L 188.551173 186.904777 
L 188.685661 193.225508 
L 188.820149 188.869392 
L 188.954637 193.248621 
L 189.089126 201.515572 
L 189.627078 262.734688 
L 189.761567 265.290811 
L 189.896055 270.460603 
L 190.030543 268.055423 
L 190.299519 269.863907 
L 190.434008 268.707308 
L 190.971961 272.088899 
L 191.106449 268.679949 
L 191.240937 268.200706 
L 191.375425 268.633723 
L 191.509913 264.260626 
L 191.644402 265.790337 
L 191.913378 264.540342 
L 192.182354 258.974796 
L 192.316843 259.319134 
L 192.451331 258.827155 
L 192.585819 260.131396 
L 192.720307 265.829016 
L 192.989284 267.070993 
L 193.392748 264.417229 
L 193.661725 267.263445 
L 193.796213 267.791273 
L 194.065189 260.002622 
L 194.603142 157.547808 
L 194.73763 152.697354 
L 194.872119 142.86956 
L 195.006607 144.425687 
L 195.141095 149.110575 
L 195.275583 141.803998 
L 195.54456 155.030837 
L 195.948024 247.887572 
L 196.217001 258.095554 
L 196.351489 259.998377 
L 196.485977 269.354003 
L 196.620465 268.709666 
L 196.889442 269.259664 
L 197.02393 270.374283 
L 197.158418 268.665798 
L 197.292907 262.422425 
L 197.830859 194.555692 
L 197.965348 196.838702 
L 198.099836 193.561828 
L 198.234324 197.91134 
L 198.5033 184.750539 
L 198.772277 198.380206 
L 199.31023 270.021925 
L 199.713694 279.021893 
L 199.848183 277.867651 
L 200.117159 278.586517 
L 200.251647 276.825202 
L 200.386135 271.117676 
L 200.520624 270.719564 
L 200.655112 257.921498 
L 200.7896 211.281574 
L 200.924088 209.335827 
L 201.058576 197.796246 
L 201.193065 197.442474 
L 201.327553 194.790597 
L 201.462041 196.936344 
L 201.731018 185.282141 
L 201.865506 186.626476 
L 202.134482 209.041488 
L 202.403459 261.854031 
L 202.806923 271.531826 
L 203.0759 263.164875 
L 203.210388 267.438444 
L 203.344876 267.562972 
L 203.748341 258.302157 
L 203.882829 241.129578 
L 204.151805 179.933576 
L 204.420782 163.664767 
L 204.55527 158.105354 
L 204.689758 161.499681 
L 204.824246 155.080365 
L 204.958735 170.90625 
L 205.093223 171.149645 
L 205.765664 257.728574 
L 205.900152 258.233289 
L 206.03464 261.986577 
L 206.169129 276.652562 
L 206.303617 277.12756 
L 206.572593 281.01764 
L 206.84157 281.819052 
L 207.110546 272.546444 
L 207.379522 263.476666 
L 207.514011 262.609688 
L 207.917475 270.627584 
L 208.051964 270.384188 
L 208.32094 264.101664 
L 208.589916 265.683734 
L 208.858893 273.636063 
L 208.993381 277.244541 
L 209.127869 277.820954 
L 209.262357 277.283691 
L 209.396846 271.501165 
L 209.531334 272.585124 
L 209.80031 272.175219 
L 209.934799 273.153989 
L 210.203775 261.122901 
L 211.010704 107.908367 
L 211.279681 133.214879 
L 211.683145 165.908155 
L 212.221098 252.468688 
L 212.355586 254.902169 
L 212.759051 269.955416 
L 212.893539 269.7507 
L 213.028027 269.849756 
L 213.162516 272.466256 
L 213.431492 254.979999 
L 213.56598 217.367401 
L 213.834957 134.478081 
L 213.969445 139.00731 
L 214.103933 137.929484 
L 214.238421 140.854473 
L 214.910862 178.706222 
L 215.448815 258.018667 
L 215.583303 262.92431 
L 215.717792 263.534685 
L 216.121256 267.745519 
L 216.255745 268.69127 
L 216.390233 271.053054 
L 216.524721 267.093163 
L 216.659209 259.66536 
L 217.062674 147.94973 
L 217.197162 149.838874 
L 217.33165 149.918591 
L 217.466138 161.245908 
L 217.600627 159.977517 
L 217.735115 148.264824 
L 217.869603 153.432729 
L 218.273068 195.117954 
L 218.542044 253.233308 
L 218.811021 269.830417 
L 218.945509 262.500255 
L 219.483462 273.092197 
L 219.61795 274.869078 
L 219.886926 261.282806 
L 220.290391 160.91006 
L 220.693856 149.388876 
L 220.828344 159.92563 
L 220.962832 156.051587 
L 221.231808 182.881678 
L 221.500785 196.5821 
L 221.769761 253.098402 
L 222.038738 268.545044 
L 222.173226 267.801179 
L 222.307714 269.011552 
L 222.576691 274.990303 
L 222.845667 277.597841 
L 222.980155 275.945489 
L 223.114643 277.796425 
L 223.38362 257.488952 
L 223.518108 261.307806 
L 223.652596 261.15309 
L 223.921573 254.27387 
L 224.190549 253.60925 
L 224.325037 256.069146 
L 224.459525 255.447922 
L 224.728502 251.633785 
L 225.131967 258.818665 
L 225.266455 257.349802 
L 225.535431 258.804985 
L 225.669919 257.507349 
L 226.073384 267.162502 
L 226.34236 270.158717 
L 226.476849 270.087491 
L 226.745825 266.976654 
L 226.880313 269.234664 
L 227.014802 269.475229 
L 227.14929 269.181362 
L 227.283778 267.777122 
L 227.418266 269.436079 
L 227.552754 269.563437 
L 227.687243 269.395984 
L 227.956219 268.298819 
L 228.090707 274.053514 
L 228.225195 274.092194 
L 228.359684 275.182284 
L 228.494172 274.417664 
L 228.62866 275.37851 
L 228.763148 275.265302 
L 228.897637 273.00116 
L 229.301101 273.895496 
L 229.435589 267.746934 
L 229.570078 253.811136 
L 230.242519 94.067852 
L 230.377007 79.386302 
L 230.511495 109.052231 
L 230.780471 116.920127 
L 231.049448 144.101631 
L 231.587401 251.675294 
L 231.856377 262.780914 
L 232.125354 267.545048 
L 232.39433 272.15305 
L 232.528818 271.347864 
L 232.797795 254.422926 
L 232.932283 218.532019 
L 233.201259 132.28658 
L 233.335748 124.196515 
L 233.470236 134.385157 
L 233.604724 134.604968 
L 233.739212 147.26294 
L 233.8737 132.680447 
L 234.008189 139.332781 
L 234.815118 262.205445 
L 234.949606 261.941766 
L 235.218583 267.783726 
L 235.622047 275.440302 
L 235.756535 274.848795 
L 236.025512 262.325255 
L 236.563465 128.174803 
L 236.832441 116.091356 
L 237.63937 198.906148 
L 237.908347 256.368673 
L 238.177323 264.372418 
L 238.849764 279.133685 
L 238.984252 278.31765 
L 239.118741 274.559173 
L 239.253229 260.804978 
L 239.791182 127.413013 
L 240.194646 144.961534 
L 240.463623 163.886936 
L 240.732599 177.201982 
L 241.270552 253.863494 
L 241.674017 259.677152 
L 241.942993 272.484181 
L 242.077481 278.915289 
L 242.21197 278.295952 
L 242.480946 260.517243 
L 242.884411 149.953968 
L 243.018899 157.743091 
L 243.153387 155.519986 
L 243.287875 144.65729 
L 243.422363 152.553959 
L 243.556852 149.771893 
L 243.825828 166.236928 
L 244.229293 237.467327 
L 244.498269 259.617246 
L 244.767246 264.83468 
L 245.17071 272.60918 
L 245.305198 273.464837 
L 245.439687 273.172386 
L 245.574175 271.956824 
L 245.708663 260.622903 
L 245.843151 266.012978 
L 246.112128 263.062989 
L 246.381104 257.939422 
L 246.515592 257.906404 
L 247.188033 268.038914 
L 247.322522 268.439856 
L 247.45701 269.2974 
L 247.591498 268.946929 
L 247.725986 272.075691 
L 247.860475 270.653527 
L 248.129451 271.962484 
L 248.263939 271.088903 
L 248.398427 271.7639 
L 248.532916 271.612486 
L 248.667404 273.536064 
L 248.801892 273.438422 
L 249.205357 274.960115 
L 249.339845 275.075209 
L 249.608821 274.137476 
L 249.743309 274.267665 
L 249.877798 273.970968 
L 250.550239 270.84079 
L 250.819215 271.137487 
L 250.953703 271.907296 
L 251.088192 270.784187 
L 251.357168 272.027578 
L 251.491656 280.823773 
L 251.626144 280.339812 
L 251.760633 280.765282 
L 251.895121 280.607264 
L 252.164097 268.504478 
L 252.70205 142.568618 
L 252.836538 162.074679 
L 252.971027 158.670446 
L 253.240003 171.429361 
L 253.374491 172.766621 
L 253.508979 169.875122 
L 253.777956 202.313682 
L 254.046932 253.074346 
L 254.315909 274.153042 
L 254.719373 282.411031 
L 254.853862 282.173768 
L 255.122838 283.886969 
L 255.391814 263.363459 
L 255.660791 171.222287 
L 255.795279 174.62935 
L 256.198744 159.139312 
L 256.333232 162.769959 
L 256.46772 160.136478 
L 256.602208 161.318549 
L 257.409138 255.289904 
L 257.812602 262.674311 
L 258.081579 277.703501 
L 258.216067 278.754912 
L 258.350555 278.03416 
L 258.619532 264.029023 
L 258.888508 175.970383 
L 259.022996 176.829342 
L 259.157484 167.882205 
L 259.291973 167.313339 
L 259.426461 152.009621 
L 259.695437 165.549666 
L 259.829925 154.548291 
L 259.964414 163.515239 
L 260.771343 258.324327 
L 261.040319 260.536583 
L 261.309296 267.947876 
L 261.443784 271.12428 
L 261.71276 268.244102 
L 261.847249 255.99792 
L 262.116225 168.87088 
L 262.250713 172.989261 
L 262.654178 146.869074 
L 262.788666 154.084142 
L 262.923154 149.370008 
L 263.326619 184.107145 
L 263.461107 194.877389 
L 263.864572 243.080986 
L 264.268036 260.912525 
L 264.402525 260.163943 
L 264.671501 263.553553 
L 264.805989 263.429025 
L 264.940478 262.489406 
L 265.074966 255.010188 
L 265.209454 236.118276 
L 265.612919 123.164915 
L 265.881895 105.265452 
L 266.016383 114.655512 
L 266.150871 114.526268 
L 266.28536 114.083345 
L 266.419848 118.660215 
L 266.688824 155.496401 
L 266.957801 233.381965 
L 267.226777 249.851716 
L 267.361265 248.446061 
L 267.495754 264.621945 
L 267.630242 264.309682 
L 267.76473 266.156845 
L 267.899218 266.464391 
L 268.168195 272.908707 
L 268.302683 273.783232 
L 268.437171 271.251638 
L 268.706147 273.758233 
L 268.975124 270.304472 
L 269.2441 268.441743 
L 269.916541 254.11821 
L 270.320006 255.985656 
L 270.588982 260.815355 
L 270.723471 274.748323 
L 270.857959 275.77615 
L 270.992447 274.315306 
L 271.126935 275.188416 
L 271.261424 275.217661 
L 271.395912 275.0337 
L 271.799376 277.778973 
L 271.933865 276.409638 
L 272.068353 276.76058 
L 272.202841 276.123318 
L 272.337329 276.356808 
L 272.471817 275.52332 
L 272.606306 273.382762 
L 272.740794 274.650682 
L 272.875282 274.331815 
L 273.00977 273.662478 
L 273.144258 271.354939 
L 273.278747 271.256355 
L 273.547723 274.200684 
L 273.682211 274.412475 
L 273.8167 275.088416 
L 273.951188 274.236533 
L 274.085676 284.766211 
L 274.354652 286.380356 
L 274.489141 284.826117 
L 274.758117 270.270509 
L 275.29607 164.939291 
L 275.565046 152.835562 
L 275.699535 153.169051 
L 275.834023 170.927948 
L 275.968511 173.185015 
L 276.102999 183.231205 
L 276.77544 261.688465 
L 277.447881 278.901138 
L 277.58237 282.261032 
L 277.716858 281.874241 
L 277.851346 277.523313 
L 277.985834 267.647406 
L 278.389299 207.791493 
L 278.523787 188.51562 
L 278.658275 186.53874 
L 278.792763 177.125567 
L 278.927252 189.125523 
L 279.06174 183.367525 
L 279.196228 185.435914 
L 279.330716 193.049094 
L 280.137646 271.95022 
L 280.272134 274.311061 
L 280.406622 266.04411 
L 280.54111 265.762979 
L 280.810087 266.921465 
L 280.944575 266.304958 
L 281.213551 258.470553 
L 281.348039 229.82962 
L 281.482528 160.115252 
L 281.617016 150.015289 
L 281.751504 126.864902 
L 281.885992 128.00452 
L 282.154969 141.370981 
L 282.289457 123.446518 
L 282.423945 127.491315 
L 282.558433 136.504961 
L 282.82741 184.437804 
L 283.096386 252.268688 
L 283.365363 258.82857 
L 283.499851 261.012524 
L 283.634339 260.348376 
L 283.768827 260.358753 
L 283.903316 260.546017 
L 284.037804 261.83705 
L 284.172292 261.964879 
L 284.441268 256.826219 
L 285.113709 142.765315 
L 285.248198 141.700697 
L 285.382686 137.211562 
L 285.517174 146.355868 
L 285.651662 143.287483 
L 285.78615 146.739829 
L 286.055127 199.309448 
L 286.324103 248.362571 
L 286.59308 257.938479 
L 286.727568 257.818196 
L 286.862056 276.556335 
L 286.996544 276.614826 
L 287.131033 275.647377 
L 287.265521 276.246431 
L 287.668985 272.757293 
L 287.803474 273.625214 
L 288.07245 272.759651 
L 288.206938 270.611546 
L 288.341427 270.556829 
L 288.475915 268.235611 
L 288.610403 267.868631 
L 288.744891 266.756843 
L 288.879379 269.554474 
L 289.013868 269.890322 
L 289.148356 267.110144 
L 289.417332 274.187476 
L 289.55182 275.361529 
L 289.820797 275.003983 
L 289.955285 275.785584 
L 290.089773 274.30257 
L 290.224262 275.832753 
L 290.35875 274.935587 
L 290.493238 275.904923 
L 290.627726 274.379928 
L 291.031191 256.597446 
L 291.300167 191.13212 
L 291.434655 185.608555 
L 291.569144 186.209496 
L 291.703632 190.228349 
L 291.972608 177.622263 
L 292.376073 190.55948 
L 293.048514 266.120996 
L 293.183002 267.354011 
L 293.31749 266.214864 
L 293.451979 266.958257 
L 293.586467 266.038921 
L 293.720955 268.487025 
L 293.855443 268.747402 
L 294.258908 245.087583 
L 294.527884 187.732132 
L 294.796861 156.395926 
L 294.931349 140.700229 
L 295.065837 140.567682 
L 295.200325 148.452559 
L 295.334814 142.795032 
L 295.60379 170.545874 
L 295.738278 184.877897 
L 296.141743 254.313492 
L 296.276231 253.433307 
L 296.410719 260.553092 
L 296.545208 278.037462 
L 296.948672 280.177077 
L 297.486625 282.120466 
L 297.621113 281.778958 
L 297.755601 281.775184 
L 298.024578 278.638403 
L 298.159066 278.489819 
L 298.428042 276.372846 
L 298.697019 272.591727 
L 298.831507 271.469562 
L 298.965995 271.328996 
L 299.100484 271.68041 
L 299.36946 275.420491 
L 299.503948 274.920021 
L 299.638436 276.445015 
L 299.772925 266.900239 
L 299.907413 270.262019 
L 300.041901 269.963907 
L 300.176389 270.820036 
L 300.310877 270.539848 
L 300.579854 259.699793 
L 301.252295 127.192731 
L 301.386783 127.260655 
L 301.521271 140.295985 
L 301.65576 133.436576 
L 301.790248 142.739372 
L 302.597177 250.246054 
L 302.731665 251.978123 
L 303.000642 264.238456 
L 303.13513 264.460153 
L 303.269618 264.93468 
L 303.404106 267.36486 
L 303.538595 267.779009 
L 303.807571 251.614917 
L 304.345524 162.905336 
L 304.6145 152.507733 
L 304.748988 160.647325 
L 304.883477 151.187926 
L 305.017965 157.195923 
L 306.093871 262.708273 
L 306.228359 263.706854 
L 306.497335 273.741251 
L 306.766312 274.758701 
L 306.9008 270.106359 
L 307.035288 259.692718 
L 307.304265 168.318052 
L 307.438753 175.493026 
L 307.842217 156.46102 
L 307.976706 163.427976 
L 308.111194 155.10961 
L 308.245682 160.012894 
L 308.649147 205.466029 
L 309.052611 261.15875 
L 309.590564 273.243612 
L 309.994029 274.926624 
L 310.128517 271.415788 
L 310.263005 258.950268 
L 310.531982 168.208147 
L 310.66647 169.345878 
L 310.935446 167.084094 
L 311.069934 157.844505 
L 311.204423 164.222784 
L 311.338911 162.947317 
L 311.473399 156.254417 
L 311.607887 169.234086 
L 311.876864 206.362253 
L 312.14584 248.184269 
L 312.414817 259.848849 
L 312.818281 268.356837 
L 312.952769 267.928065 
L 313.087258 269.791266 
L 313.221746 269.693625 
L 313.356234 271.251638 
L 313.625211 260.821487 
L 313.759699 253.024346 
L 313.894187 256.33707 
L 314.028675 253.838494 
L 314.163163 255.699336 
L 314.297652 252.971988 
L 314.566628 259.45687 
L 314.701116 260.18281 
L 314.970093 264.879491 
L 315.104581 264.842227 
L 315.239069 264.549304 
L 315.508045 267.446935 
L 315.642534 267.977593 
L 315.777022 267.651179 
L 316.180487 270.605414 
L 316.314975 270.170981 
L 316.718439 272.497388 
L 316.852928 272.743614 
L 316.987416 271.90022 
L 317.121904 271.964843 
L 317.256392 270.858243 
L 317.39088 271.001167 
L 317.525369 269.480418 
L 317.659857 270.388905 
L 317.928833 267.899292 
L 318.332298 264.206852 
L 318.466786 264.853548 
L 318.601274 264.356852 
L 318.735763 265.795997 
L 318.870251 265.634206 
L 319.139227 266.737503 
L 319.273715 276.457751 
L 319.67718 277.562936 
L 319.811668 275.01436 
L 319.946157 267.15354 
L 320.349621 146.593132 
L 320.484109 130.631397 
L 320.887574 157.590261 
L 321.022062 162.202037 
L 321.291039 176.811417 
L 321.425527 178.590656 
L 321.560015 196.815118 
L 321.828991 251.692747 
L 321.96348 259.685642 
L 322.097968 260.462998 
L 322.635921 276.967655 
L 322.770409 277.310578 
L 322.904897 276.659165 
L 323.173874 266.349297 
L 323.44285 172.000114 
L 323.577338 172.35766 
L 323.711826 172.556716 
L 323.980803 152.615751 
L 324.249779 156.11338 
L 324.384268 158.847332 
L 324.787732 194.666541 
L 325.056709 248.551721 
L 325.325685 257.714895 
L 325.863638 275.32851 
L 325.998126 277.075202 
L 326.132614 277.139824 
L 326.267103 273.964364 
L 326.401591 265.070528 
L 326.670567 164.893536 
L 326.805055 170.779364 
L 326.939544 171.93785 
L 327.20852 158.8662 
L 327.343008 166.914284 
L 327.611985 163.204392 
L 327.746473 168.007204 
L 328.149937 222.062667 
L 328.418914 252.546518 
L 328.68789 265.20732 
L 328.822379 267.63184 
L 328.956867 277.560577 
L 329.225843 278.496423 
L 329.360331 277.659162 
L 329.629308 264.977133 
L 330.032772 177.004813 
L 330.301749 165.798722 
L 330.570725 157.093565 
L 330.839702 178.691127 
L 330.97419 179.889236 
L 331.108678 182.602434 
L 331.781119 257.596971 
L 332.050096 264.67619 
L 332.184584 275.324265 
L 332.319072 276.269072 
L 332.45356 275.611999 
L 332.588049 276.587939 
L 332.857025 264.128079 
L 333.26049 176.380758 
L 333.394978 178.268016 
L 333.663954 163.532221 
L 333.798442 164.710518 
L 333.932931 168.433146 
L 334.336395 186.087327 
L 334.73986 253.025761 
L 335.143325 268.569101 
L 335.277813 268.372875 
L 335.412301 268.469101 
L 335.546789 268.751175 
L 335.681277 268.647402 
L 335.950254 271.198808 
L 336.084742 269.129004 
L 336.622695 252.860196 
L 336.757183 253.64557 
L 336.891671 251.83803 
L 337.295136 258.120554 
L 337.698601 262.796952 
L 337.833089 262.323369 
L 338.102065 266.374297 
L 338.236553 266.145053 
L 338.371042 266.774767 
L 338.50553 264.467229 
L 339.043483 267.588444 
L 339.446947 270.54881 
L 339.581436 270.072869 
L 339.715924 268.917684 
L 339.850412 269.173815 
L 339.9849 268.403063 
L 340.119388 268.291743 
L 340.253877 267.82382 
L 340.388365 269.283249 
L 340.522853 267.318162 
L 340.657341 267.909669 
L 340.926318 267.595048 
L 341.060806 264.296475 
L 341.329782 269.120042 
L 341.464271 269.019571 
L 341.598759 269.541738 
L 341.733247 271.089374 
L 341.867735 278.817648 
L 342.136712 278.918119 
L 342.2712 279.552079 
L 342.540176 267.008729 
L 342.943641 153.214805 
L 343.212617 169.624651 
L 343.347106 168.899182 
L 343.75057 183.111394 
L 343.885058 184.766105 
L 344.019547 184.111391 
L 344.423011 251.182372 
L 345.22994 276.567656 
L 345.364429 277.638407 
L 345.498917 277.275201 
L 345.633405 273.109178 
L 345.767893 265.121943 
L 346.03687 181.88121 
L 346.171358 185.949591 
L 346.440334 172.547754 
L 346.574823 167.241169 
L 346.843799 174.036899 
L 347.112775 175.883119 
L 347.381752 209.948089 
L 347.650728 248.390872 
L 348.054193 266.136091 
L 348.188681 267.304011 
L 348.323169 276.164827 
L 348.457658 277.00256 
L 348.592146 278.850667 
L 348.726634 278.657743 
L 348.99561 265.906846 
L 349.264587 180.843478 
L 349.399075 182.299605 
L 349.668052 164.953913 
L 349.80254 160.891664 
L 350.206004 179.361408 
L 350.340493 180.52697 
L 351.012934 259.737057 
L 351.147422 262.029502 
L 351.550886 278.490762 
L 351.685375 277.787463 
L 351.954351 278.149726 
L 352.088839 276.769542 
L 352.223328 269.569569 
L 352.492304 176.816134 
L 352.626792 183.892995 
L 352.76128 172.663319 
L 352.895769 171.963322 
L 353.030257 163.786937 
L 353.164745 170.90908 
L 353.299233 168.857673 
L 353.56821 151.301605 
L 354.240651 266.275713 
L 354.375139 267.399294 
L 354.644115 273.189367 
L 354.913092 277.410578 
L 355.182068 278.439819 
L 355.316556 276.067186 
L 355.451045 267.052125 
L 355.854509 194.657578 
L 356.123486 156.798283 
L 356.257974 158.49073 
L 356.392462 166.994 
L 356.52695 166.368531 
L 356.661439 176.843021 
L 356.795927 175.607176 
L 357.33388 262.019124 
L 357.602856 271.49692 
L 357.737344 273.437007 
L 357.871832 277.63935 
L 358.006321 277.068126 
L 358.140809 277.279918 
L 358.275297 278.010575 
L 358.409785 277.923783 
L 358.678762 276.67992 
L 359.082226 258.441779 
L 359.351203 252.609725 
L 359.485691 246.416351 
L 359.620179 257.016313 
L 359.754667 258.413006 
L 359.889156 258.579043 
L 360.427109 272.690312 
L 360.561597 273.361536 
L 360.965061 277.457276 
L 361.234038 277.418125 
L 361.368526 277.228975 
L 361.503014 278.518121 
L 361.771991 278.115764 
L 361.906479 279.42991 
L 362.040967 279.38274 
L 362.175455 279.753494 
L 362.309944 279.793588 
L 362.57892 276.423317 
L 362.713408 276.374732 
L 362.982385 275.253982 
L 363.116873 273.779931 
L 363.251361 273.679459 
L 363.385849 274.756814 
L 363.520337 273.913421 
L 363.654826 273.854459 
L 364.05829 276.606335 
L 364.192778 250.918693 
L 364.730731 257.099331 
L 364.86522 255.918675 
L 364.999708 243.984756 
L 365.134196 222.103233 
L 365.403172 134.85025 
L 365.672149 104.923473 
L 365.806637 99.073966 
L 366.075613 115.813527 
L 366.34459 112.707406 
L 366.479078 124.000761 
L 367.017031 248.858324 
L 367.151519 253.757834 
L 367.286007 252.043689 
L 367.554984 263.266761 
L 367.689472 264.12289 
L 367.958448 268.963439 
L 368.227425 245.686637 
L 368.496401 150.889814 
L 368.765378 99.634813 
L 369.034354 88.864569 
L 369.168842 93.529646 
L 369.303331 93.090497 
L 369.437819 96.418787 
L 369.572307 94.322096 
L 369.706795 110.237604 
L 370.244748 232.589987 
L 370.782701 276.277563 
L 370.917189 276.578977 
L 371.051677 277.460106 
L 371.186166 277.184635 
L 371.455142 262.539406 
L 371.858607 170.371346 
L 372.127583 201.979721 
L 372.262071 197.967 
L 372.396559 199.376901 
L 372.665536 188.815147 
L 372.800024 192.565133 
L 373.203489 231.804612 
L 373.472465 253.799815 
L 373.87593 274.743606 
L 374.010418 283.65631 
L 374.144906 283.51197 
L 374.279394 284.704419 
L 374.413883 284.207251 
L 374.682859 267.840801 
L 375.220812 179.488766 
L 375.489788 175.901987 
L 375.624277 176.122269 
L 375.893253 182.581207 
L 376.027741 186.826947 
L 376.565694 253.619155 
L 376.83467 262.405444 
L 376.969159 265.208735 
L 377.103647 276.882749 
L 377.238135 275.802565 
L 377.507112 277.851142 
L 377.6416 275.908225 
L 377.776088 279.406325 
L 378.045064 277.284163 
L 378.179553 267.755424 
L 378.314041 267.13703 
L 378.448529 260.119131 
L 378.583017 261.108279 
L 378.717505 260.201678 
L 378.851994 264.660624 
L 378.986482 263.909212 
L 379.12097 264.80685 
L 379.255458 266.941276 
L 379.389947 266.826182 
L 379.927899 275.973319 
L 380.062388 275.769074 
L 380.196876 276.180865 
L 380.331364 266.38609 
L 380.60034 268.291271 
L 380.869317 269.927114 
L 381.138293 259.156399 
L 381.272782 232.372535 
L 381.541758 158.634125 
L 381.810734 138.702123 
L 381.945223 140.27523 
L 382.214199 146.687942 
L 382.348687 138.789386 
L 382.752152 188.077414 
L 383.021128 255.304055 
L 383.155616 263.141762 
L 383.290105 263.796476 
L 383.424593 265.069113 
L 383.559081 260.19649 
L 383.693569 259.492719 
L 383.962546 259.83517 
L 384.097034 261.012053 
L 384.231522 259.24838 
L 384.36601 260.62479 
L 385.038451 147.73841 
L 385.17294 150.153968 
L 385.307428 165.117592 
L 385.576404 159.537424 
L 386.248845 258.117724 
L 386.921286 276.409166 
L 387.055775 275.603509 
L 387.190263 276.866712 
L 387.324751 276.183695 
L 387.459239 276.343129 
L 387.593727 277.815765 
L 387.728216 277.247842 
L 387.862704 278.550196 
L 387.997192 277.394068 
L 388.13168 278.966704 
L 388.266169 277.993594 
L 388.400657 276.030394 
L 388.535145 276.118601 
L 388.669633 275.463415 
L 388.804121 276.589826 
L 388.93861 274.067194 
L 389.207586 276.183695 
L 389.476562 282.799237 
L 389.611051 281.752543 
L 389.745539 282.560087 
L 389.880027 282.508672 
L 390.014515 267.768632 
L 390.283492 268.014857 
L 390.41798 268.024763 
L 390.552468 267.895518 
L 390.686956 262.456387 
L 390.821445 262.639405 
L 390.955933 253.882362 
L 391.224909 198.325961 
L 391.359397 167.285037 
L 391.493886 163.337882 
L 391.762862 173.917088 
L 391.89735 173.379354 
L 392.031839 166.233154 
L 392.166327 169.893046 
L 392.300815 178.776976 
L 392.569791 238.291853 
L 392.70428 264.299305 
L 392.973256 269.090325 
L 393.107744 269.740794 
L 393.376721 262.759688 
L 393.645697 268.416743 
L 393.780185 265.062038 
L 393.914673 266.431844 
L 394.049162 259.097909 
L 394.721603 145.709644 
L 394.990579 144.649271 
L 395.125067 144.233706 
L 395.259556 155.497344 
L 395.394044 156.35819 
L 395.931997 243.564475 
L 396.200973 257.029992 
L 396.335461 253.332836 
L 396.46995 277.842652 
L 396.604438 278.221895 
L 397.007902 281.224715 
L 397.276879 268.306366 
L 397.545855 195.378802 
L 397.680343 190.246274 
L 397.94932 167.116641 
L 398.083808 153.792633 
L 398.218296 166.401078 
L 398.352785 161.685057 
L 398.487273 164.665707 
L 398.487273 164.665707 
" clip-path="url(#p6386497143)" style="fill: none; stroke: #1f77b4; stroke-width: 1.5; stroke-linecap: square"/>
   </g>
   <g id="line2d_14">
    <path d="M 73.832727 276.479103 
L 73.967215 276.602413 
L 74.101704 276.244266 
L 74.236192 276.240862 
L 74.37068 275.034411 
L 74.505168 277.045028 
L 74.639657 276.000921 
L 74.774145 276.989464 
L 74.908633 266.649095 
L 75.043121 224.638229 
L 75.177609 242.311726 
L 75.715562 249.126608 
L 75.85005 247.988958 
L 75.984539 248.199911 
L 76.388003 241.54901 
L 76.522492 279.25418 
L 76.65698 277.840439 
L 76.925956 272.354016 
L 77.060444 269.858951 
L 77.194933 252.523237 
L 77.329421 263.63552 
L 77.598397 261.982103 
L 77.732885 265.797808 
L 77.867374 253.048726 
L 78.001862 228.86169 
L 78.270838 124.854231 
L 78.405327 97.427825 
L 78.539815 108.407803 
L 78.674303 110.183606 
L 78.808791 104.605325 
L 78.943279 118.186982 
L 79.077768 108.4145 
L 79.61572 181.591178 
L 79.884697 244.878999 
L 80.153673 263.899643 
L 80.288161 264.63959 
L 80.42265 254.22329 
L 80.557138 274.352977 
L 80.826114 265.906652 
L 80.960603 264.070701 
L 81.095091 256.824026 
L 81.229579 236.383106 
L 81.498555 144.114323 
L 81.633044 167.820423 
L 81.767532 166.330981 
L 81.90202 159.584043 
L 82.170996 197.893089 
L 82.305485 198.936403 
L 82.439973 195.264947 
L 82.574461 196.649336 
L 82.708949 219.271401 
L 82.977926 197.573651 
L 83.112414 215.29402 
L 83.246902 196.951005 
L 83.38139 196.189735 
L 83.650367 262.300316 
L 83.784855 258.085108 
L 83.919343 276.765065 
L 84.053831 279.049993 
L 84.18832 278.280825 
L 84.322808 196.165847 
L 84.457296 216.906519 
L 84.591784 196.165847 
L 84.860761 196.165847 
L 84.995249 197.817098 
L 85.129737 188.602273 
L 85.264225 167.796567 
L 85.398714 186.316061 
L 85.533202 186.879129 
L 85.802178 197.718613 
L 85.936666 208.432856 
L 86.205643 259.515183 
L 86.340131 256.774368 
L 86.474619 266.845844 
L 86.609107 263.420862 
L 86.743596 268.684412 
L 87.012572 285.977631 
L 87.14706 285.238068 
L 87.281549 283.278948 
L 87.416037 285.067622 
L 87.685013 282.434445 
L 87.95399 244.841374 
L 88.088478 255.367436 
L 88.222966 247.33088 
L 88.357454 254.570334 
L 88.491942 253.807726 
L 88.626431 249.316117 
L 88.760919 255.979724 
L 88.895407 243.767945 
L 89.029895 251.932514 
L 89.164384 250.548898 
L 89.298872 254.642282 
L 89.43336 276.145099 
L 89.567848 276.528108 
L 89.836825 272.620111 
L 89.971313 274.106622 
L 90.105801 248.454496 
L 90.374777 261.987696 
L 90.509266 259.61657 
L 90.643754 259.453351 
L 90.91273 264.420943 
L 91.047218 258.234267 
L 91.181707 241.787986 
L 91.316195 247.690679 
L 91.450683 239.79563 
L 91.585171 252.254776 
L 91.71966 247.890629 
L 91.988636 251.789777 
L 92.123124 252.029889 
L 92.257612 254.060226 
L 92.392101 251.729104 
L 92.930053 266.218882 
L 93.064542 265.500187 
L 93.19903 259.833571 
L 93.333518 279.75439 
L 93.602495 269.923964 
L 93.736983 272.161057 
L 94.005959 262.620899 
L 94.140447 255.020125 
L 94.409424 169.660743 
L 94.543912 178.997592 
L 94.812888 153.940772 
L 94.947377 154.547302 
L 95.216353 174.829991 
L 95.48533 150.816579 
L 95.888794 250.161006 
L 96.157771 266.996892 
L 96.292259 266.354016 
L 96.561235 268.088369 
L 96.695723 264.908731 
L 96.830212 264.75308 
L 96.9647 267.206222 
L 97.099188 265.605717 
L 97.233676 262.543254 
L 97.502653 217.754117 
L 97.637141 166.739761 
L 97.771629 179.807565 
L 97.906117 168.864343 
L 98.040606 186.018968 
L 98.175094 181.145574 
L 98.309582 183.02931 
L 98.44407 177.780548 
L 98.578558 180.711275 
L 98.847535 196.019077 
L 99.250999 269.996398 
L 99.385488 269.318418 
L 99.519976 272.882333 
L 99.654464 271.351421 
L 99.788952 285.138563 
L 100.057929 273.547256 
L 100.192417 275.391693 
L 100.326905 275.561221 
L 100.595882 273.471217 
L 100.864858 276.615251 
L 100.999346 273.231468 
L 101.133834 277.780883 
L 101.402811 273.324191 
L 101.537299 261.516138 
L 101.671787 272.286328 
L 101.940764 255.676237 
L 102.075252 262.944622 
L 102.20974 261.542423 
L 102.344228 263.09225 
L 102.478717 266.989655 
L 102.613205 276.427247 
L 102.747693 267.463117 
L 102.882181 279.785984 
L 103.016669 247.148013 
L 103.285646 269.977393 
L 103.823599 251.70885 
L 103.958087 220.64942 
L 104.092575 162.088532 
L 104.227063 168.210413 
L 104.361552 150.79916 
L 104.49604 168.394247 
L 104.765016 140.783713 
L 105.033993 159.65975 
L 105.302969 184.858447 
L 105.706434 263.110497 
L 105.97541 254.99924 
L 106.244387 288.10766 
L 106.378875 281.088294 
L 106.647851 274.830453 
L 106.782339 275.886405 
L 106.916828 273.241466 
L 107.051316 273.944458 
L 107.320292 215.605769 
L 107.589269 250.70052 
L 107.723757 245.319737 
L 107.858245 249.447927 
L 108.127222 247.726397 
L 108.530686 238.445553 
L 108.665174 243.996744 
L 108.934151 282.551831 
L 109.203127 276.782238 
L 109.337615 273.632215 
L 109.472104 264.818238 
L 109.606592 267.698046 
L 109.74108 267.406464 
L 109.875568 267.756789 
L 110.144545 267.197322 
L 110.279033 267.689559 
L 110.413521 267.447278 
L 110.548009 268.212043 
L 110.682498 269.764973 
L 111.085962 268.014208 
L 111.22045 270.188703 
L 111.354939 269.511838 
L 111.758403 262.333127 
L 111.892891 264.044238 
L 112.161868 268.663246 
L 112.430844 269.006604 
L 112.565333 268.96039 
L 112.699821 251.368971 
L 112.968797 263.301773 
L 113.103285 261.871152 
L 113.237774 263.000991 
L 113.372262 262.337858 
L 113.50675 265.36794 
L 113.641238 265.812306 
L 113.775726 268.048115 
L 113.910215 264.49065 
L 114.044703 265.282185 
L 114.179191 261.980272 
L 114.313679 255.562915 
L 114.448168 257.894836 
L 114.582656 258.001804 
L 114.717144 256.264742 
L 115.120609 244.456281 
L 115.389585 257.027919 
L 115.524073 258.064833 
L 115.658561 258.152517 
L 115.79305 255.654631 
L 115.927538 257.575951 
L 116.062026 257.341804 
L 116.196514 252.978148 
L 116.331002 264.371075 
L 116.599979 256.286567 
L 116.734467 238.392201 
L 117.003444 128.331997 
L 117.137932 91.615314 
L 117.27242 95.076188 
L 117.406908 92.227534 
L 117.541396 78.185943 
L 117.810373 88.587809 
L 118.213837 128.360734 
L 118.482814 220.017944 
L 118.886279 250.985233 
L 119.020767 248.579454 
L 119.155255 249.725331 
L 119.289743 253.404999 
L 119.424231 250.242659 
L 119.55872 251.3546 
L 119.693208 255.190895 
L 119.827696 253.126914 
L 119.962184 233.251793 
L 120.231161 119.90284 
L 120.365649 94.894939 
L 120.500137 94.399154 
L 120.634625 90.378341 
L 120.769114 78.910403 
L 120.903602 85.573746 
L 121.03809 81.619756 
L 121.172578 89.105155 
L 121.441555 112.555289 
L 121.710531 219.068992 
L 121.845019 224.720094 
L 121.979507 241.477297 
L 122.248484 240.7161 
L 122.382972 245.213001 
L 122.51746 260.715566 
L 122.786437 252.802337 
L 122.920925 253.991718 
L 123.055413 249.483722 
L 123.189901 234.009676 
L 123.458878 124.494462 
L 123.593366 89.16635 
L 123.996831 80.160505 
L 124.400295 113.880325 
L 124.669272 126.930689 
L 125.072736 237.423405 
L 125.341713 255.829863 
L 125.610689 251.485997 
L 125.745177 268.224901 
L 126.148642 263.560402 
L 126.28313 243.28449 
L 126.417618 241.21258 
L 126.686595 129.382951 
L 126.821083 102.693974 
L 126.955571 99.42183 
L 127.09006 93.424358 
L 127.224548 94.19162 
L 127.359036 112.682199 
L 127.628012 116.793728 
L 127.896989 139.341675 
L 128.434942 251.848523 
L 128.56943 253.525569 
L 128.703918 249.261361 
L 128.838406 260.363985 
L 128.972894 255.277196 
L 129.107383 257.120426 
L 129.241871 262.294747 
L 129.376359 260.782362 
L 129.645336 225.786881 
L 129.914312 121.172 
L 130.0488 89.736908 
L 130.183288 97.17112 
L 130.317777 94.842092 
L 130.452265 97.022743 
L 130.586753 131.168988 
L 130.721241 121.577165 
L 130.990218 138.136455 
L 131.124706 160.28731 
L 131.393682 238.913108 
L 131.797147 260.584383 
L 132.200612 254.743882 
L 132.469588 269.214103 
L 132.738564 265.069761 
L 132.873053 264.830885 
L 133.007541 251.142602 
L 133.142029 250.121337 
L 133.411005 242.177353 
L 133.545494 241.383107 
L 133.679982 238.707568 
L 133.81447 240.132639 
L 133.948958 238.961604 
L 134.083447 232.878969 
L 134.352423 241.940486 
L 134.621399 247.488819 
L 134.755888 252.490568 
L 134.890376 252.472726 
L 135.024864 250.798683 
L 135.428329 257.735425 
L 135.831793 263.237063 
L 135.966282 269.130791 
L 136.10077 267.157212 
L 136.235258 263.352443 
L 136.369746 266.706571 
L 136.504234 265.378977 
L 136.638723 258.551243 
L 136.773211 261.286021 
L 136.907699 259.628188 
L 137.042187 259.794743 
L 137.311164 247.490932 
L 137.58014 250.844962 
L 137.714628 246.460917 
L 137.983605 255.592358 
L 138.118093 256.087834 
L 138.252581 253.723221 
L 138.387069 254.515972 
L 138.521558 261.840781 
L 138.656046 255.255037 
L 138.790534 255.933199 
L 138.925022 262.315674 
L 139.05951 262.603195 
L 139.328487 233.78629 
L 139.597463 120.901817 
L 139.731951 86.989882 
L 139.86644 96.817782 
L 140.135416 90.020045 
L 140.538881 130.851874 
L 140.673369 133.836174 
L 140.807857 142.58993 
L 140.942345 163.748763 
L 141.076834 232.874578 
L 141.480298 257.626382 
L 141.614786 257.625839 
L 141.749275 258.294752 
L 141.883763 263.115834 
L 142.018251 259.657697 
L 142.152739 260.73367 
L 142.287228 258.614308 
L 142.421716 228.611296 
L 142.556204 225.37357 
L 142.82518 120.053912 
L 142.959669 90.408853 
L 143.094157 99.113996 
L 143.363133 87.326593 
L 143.497621 100.84172 
L 143.63211 87.369136 
L 143.766598 99.99201 
L 143.901086 132.763243 
L 144.035574 135.100128 
L 144.304551 231.804992 
L 144.439039 232.024078 
L 144.708015 261.583355 
L 144.842504 262.711581 
L 145.11148 258.793309 
L 145.245968 259.491053 
L 145.380456 262.372321 
L 145.514945 251.99267 
L 145.649433 220.27091 
L 145.783921 229.911421 
L 146.052897 125.478637 
L 146.187386 92.463316 
L 146.321874 95.488065 
L 146.725339 128.145894 
L 146.859827 117.403983 
L 146.994315 131.495486 
L 147.128803 118.66005 
L 147.263291 140.397608 
L 147.532268 242.325717 
L 147.801244 254.167597 
L 147.935732 264.198066 
L 148.070221 259.658062 
L 148.204709 262.614642 
L 148.339197 262.298323 
L 148.473685 259.388109 
L 148.608174 260.095265 
L 148.742662 257.808201 
L 148.87715 257.60935 
L 149.415103 100.699497 
L 149.549591 115.995918 
L 149.684079 106.85143 
L 149.818567 109.294862 
L 150.222032 158.905266 
L 150.35652 138.983458 
L 150.491009 150.422902 
L 150.759985 243.99153 
L 150.894473 244.591882 
L 151.16345 264.485672 
L 151.297938 258.385127 
L 151.701402 262.710353 
L 151.835891 262.467523 
L 151.970379 263.554107 
L 152.104867 259.656516 
L 152.64282 96.698533 
L 152.777308 120.17774 
L 153.046285 103.668778 
L 153.180773 133.351447 
L 153.315261 125.844005 
L 153.449749 175.915388 
L 153.584237 175.476255 
L 154.256678 271.251816 
L 154.391167 266.804199 
L 154.525655 268.588065 
L 154.660143 267.30822 
L 154.794631 268.377216 
L 154.92912 268.473944 
L 155.063608 269.491195 
L 155.332584 273.280995 
L 155.467072 271.49342 
L 155.601561 264.611567 
L 155.736049 249.442902 
L 155.870537 255.974168 
L 156.005025 253.328586 
L 156.139513 258.637598 
L 156.40849 256.41955 
L 156.677466 259.324225 
L 156.811955 256.637232 
L 156.946443 259.073862 
L 157.080931 259.140015 
L 157.484396 265.83936 
L 157.618884 263.025798 
L 158.022348 268.027682 
L 158.156837 267.788846 
L 158.425813 271.267175 
L 158.694789 275.438971 
L 158.829278 271.661419 
L 158.963766 273.396912 
L 159.098254 272.787495 
L 159.367231 269.992061 
L 159.501719 271.161942 
L 159.636207 268.434713 
L 159.905183 257.534436 
L 160.039672 259.376004 
L 160.17416 252.455659 
L 160.443136 256.606343 
L 160.577624 265.548562 
L 160.846601 258.493988 
L 160.981089 258.437117 
L 161.115577 260.895756 
L 161.250066 266.040052 
L 161.384554 264.554833 
L 161.519042 264.31009 
L 161.65353 264.884251 
L 161.922507 234.611235 
L 162.325971 92.500185 
L 162.460459 91.623132 
L 162.594948 97.469526 
L 162.863924 85.399634 
L 162.998412 111.958778 
L 163.132901 110.205094 
L 163.267389 122.635839 
L 163.536365 178.962884 
L 163.670853 237.20956 
L 163.805342 239.607507 
L 164.208806 259.44275 
L 164.343294 256.104904 
L 164.477783 272.618763 
L 164.612271 268.58703 
L 164.746759 269.460916 
L 165.150224 234.035166 
L 165.553688 99.011504 
L 165.688177 119.919421 
L 165.957153 108.725183 
L 166.091641 120.153361 
L 166.360618 104.958267 
L 166.495106 103.309308 
L 166.629594 113.942195 
L 166.89857 236.032622 
L 167.033059 240.907318 
L 167.167547 239.786918 
L 167.302035 251.331069 
L 167.436523 250.803383 
L 167.571012 252.15891 
L 167.839988 261.046829 
L 167.974476 260.859499 
L 168.108964 261.442089 
L 168.377941 223.887622 
L 168.781405 87.342155 
L 168.915894 109.993339 
L 169.050382 105.849554 
L 169.18487 107.257817 
L 169.319358 116.049079 
L 169.453847 92.436913 
L 169.588335 103.471714 
L 170.395264 257.697198 
L 170.529752 260.088164 
L 170.66424 259.551801 
L 170.798729 261.888493 
L 170.933217 257.164809 
L 171.067705 257.775351 
L 171.202193 259.387186 
L 171.336681 263.303015 
L 171.47117 233.582486 
L 171.605658 229.895595 
L 172.009123 93.4381 
L 172.143611 108.803327 
L 172.278099 110.96344 
L 172.412587 100.359322 
L 172.547075 100.988012 
L 172.95054 142.715934 
L 173.085028 149.649196 
L 173.488493 247.341094 
L 173.757469 262.363313 
L 173.891958 264.713986 
L 174.026446 283.321308 
L 174.160934 271.461668 
L 174.295422 269.745572 
L 174.564399 271.578396 
L 174.967863 218.991653 
L 175.102351 164.608612 
L 175.23684 160.883222 
L 175.505816 134.974298 
L 175.640304 140.752077 
L 175.774792 162.117143 
L 175.909281 156.301345 
L 176.043769 158.885315 
L 176.178257 173.305776 
L 176.312745 166.008536 
L 176.447234 192.718339 
L 176.581722 248.599163 
L 176.71621 250.044802 
L 176.985186 266.10795 
L 177.119675 260.725719 
L 177.388651 265.619271 
L 177.523139 263.802798 
L 177.792116 270.724047 
L 177.926604 270.591324 
L 178.061092 271.747363 
L 178.330069 258.922249 
L 178.464557 260.399686 
L 178.599045 251.151525 
L 178.868021 253.624141 
L 179.00251 257.802433 
L 179.271486 252.178144 
L 179.405974 254.067706 
L 179.540462 249.712592 
L 179.674951 250.018148 
L 179.943927 260.091128 
L 180.078415 268.577198 
L 180.212904 262.200043 
L 180.347392 262.035045 
L 180.48188 274.569438 
L 180.750856 271.054759 
L 181.019833 272.281546 
L 181.154321 271.798515 
L 181.557786 260.008037 
L 181.692274 262.480346 
L 181.826762 260.472289 
L 181.96125 264.013189 
L 182.095738 255.364081 
L 182.499203 266.722473 
L 182.633691 267.707635 
L 182.76818 271.208898 
L 182.902668 268.61558 
L 183.037156 268.52714 
L 183.171644 274.789896 
L 183.306132 274.26917 
L 183.440621 275.36854 
L 183.709597 265.335799 
L 183.844085 284.054735 
L 184.113062 281.42532 
L 184.24755 274.802269 
L 184.516526 255.681105 
L 184.785503 171.290645 
L 184.919991 182.610805 
L 185.054479 170.551057 
L 185.188967 184.556514 
L 185.323456 177.997526 
L 185.592432 186.868218 
L 185.72692 188.001511 
L 186.399361 260.475355 
L 186.668338 271.314829 
L 186.802826 273.639236 
L 187.071802 291.177571 
L 187.340779 281.540346 
L 187.475267 283.278416 
L 187.609755 275.312515 
L 187.744243 260.673405 
L 188.01322 175.262387 
L 188.147708 186.715087 
L 188.282196 176.697991 
L 188.820149 201.403259 
L 188.954637 193.233868 
L 189.089126 199.673622 
L 189.223614 211.864979 
L 189.627078 267.285977 
L 189.761567 266.913413 
L 189.896055 267.372975 
L 190.030543 272.951604 
L 190.165031 263.155183 
L 190.299519 266.349333 
L 190.434008 266.747681 
L 190.568496 263.268238 
L 190.837472 267.750253 
L 190.971961 268.866266 
L 191.106449 268.305173 
L 191.240937 260.707589 
L 191.509913 265.1192 
L 191.644402 256.513737 
L 191.77889 262.229664 
L 192.047866 259.342689 
L 192.182354 253.717075 
L 192.316843 253.21101 
L 192.451331 256.081286 
L 192.585819 254.206087 
L 192.720307 257.076726 
L 192.854796 267.766772 
L 192.989284 264.426961 
L 193.123772 263.899964 
L 193.392748 259.434601 
L 193.527237 258.934235 
L 193.796213 264.400455 
L 193.930701 264.318705 
L 194.199678 250.029553 
L 194.468654 171.87582 
L 194.603142 165.00711 
L 194.73763 147.045182 
L 194.872119 147.965105 
L 195.006607 140.749922 
L 195.275583 158.218868 
L 195.410072 143.422312 
L 195.679048 167.795669 
L 195.948024 237.555571 
L 196.082513 259.899065 
L 196.217001 259.814218 
L 196.485977 261.10411 
L 196.620465 275.379484 
L 196.754954 266.725643 
L 196.889442 265.374205 
L 197.02393 265.812564 
L 197.158418 267.301011 
L 197.292907 262.721283 
L 197.427395 250.418083 
L 197.696371 178.275021 
L 197.830859 196.592601 
L 197.965348 189.697246 
L 198.099836 197.806712 
L 198.234324 195.101053 
L 198.368812 203.843916 
L 198.637789 183.259922 
L 199.041253 237.440378 
L 199.31023 274.900493 
L 199.444718 273.497146 
L 199.579206 275.108166 
L 199.713694 274.154963 
L 199.848183 278.11608 
L 199.982671 274.09895 
L 200.251647 275.311328 
L 200.386135 272.367975 
L 200.520624 264.725506 
L 200.655112 267.249627 
L 200.7896 246.47693 
L 200.924088 178.921476 
L 201.058576 206.563444 
L 201.193065 195.674361 
L 201.596529 204.84281 
L 201.865506 191.225205 
L 201.999994 196.805781 
L 202.537947 269.330973 
L 202.672435 267.69886 
L 202.941411 271.17732 
L 203.0759 259.171648 
L 203.210388 259.211977 
L 203.344876 267.468563 
L 203.479364 265.460392 
L 203.748341 257.260688 
L 203.882829 254.559246 
L 204.017317 229.866938 
L 204.286294 169.975818 
L 204.420782 160.99446 
L 204.55527 161.778367 
L 204.689758 161.321588 
L 204.824246 171.374058 
L 204.958735 165.081231 
L 205.093223 186.957152 
L 205.227711 188.0466 
L 205.765664 261.29564 
L 205.900152 263.566604 
L 206.03464 261.038096 
L 206.169129 263.5767 
L 206.303617 288.084603 
L 206.438105 278.280653 
L 206.572593 279.134851 
L 206.707081 281.0889 
L 206.976058 279.446416 
L 207.379522 255.76319 
L 207.514011 253.816471 
L 207.648499 257.123126 
L 207.917475 269.072015 
L 208.051964 268.906512 
L 208.186452 267.233124 
L 208.455428 257.83461 
L 208.589916 262.070904 
L 208.724405 261.584484 
L 208.858893 272.92603 
L 208.993381 273.373035 
L 209.127869 277.939445 
L 209.396846 273.246446 
L 209.531334 260.921716 
L 209.665822 268.058599 
L 209.934799 267.459631 
L 210.069287 270.055012 
L 210.203775 249.26038 
L 210.338263 251.480284 
L 210.60724 157.214008 
L 210.741728 150.928067 
L 211.010704 118.642124 
L 211.145192 104.162697 
L 211.414169 144.315945 
L 211.817634 190.131039 
L 212.221098 259.354807 
L 212.490075 258.358773 
L 212.759051 268.481024 
L 212.893539 271.40531 
L 213.028027 266.973045 
L 213.162516 266.483013 
L 213.297004 271.515455 
L 213.56598 239.200056 
L 213.834957 131.979897 
L 213.969445 115.839935 
L 214.103933 144.130852 
L 214.238421 142.700855 
L 214.37291 148.773319 
L 214.776374 187.324094 
L 214.910862 187.835977 
L 215.045351 190.151239 
L 215.448815 268.171858 
L 215.583303 260.875518 
L 215.717792 267.077479 
L 215.85228 262.432164 
L 215.986768 263.562968 
L 216.121256 266.188422 
L 216.255745 264.604841 
L 216.390233 265.80366 
L 216.524721 269.878621 
L 216.793697 245.892192 
L 217.062674 139.560981 
L 217.197162 131.208313 
L 217.33165 152.043895 
L 217.466138 155.310215 
L 217.600627 174.465297 
L 217.735115 168.481898 
L 217.869603 146.832991 
L 218.004091 159.573053 
L 218.273068 205.635013 
L 218.407556 211.959922 
L 218.542044 258.889372 
L 218.676532 262.370821 
L 218.945509 273.948033 
L 219.079997 254.602272 
L 219.348973 267.262647 
L 219.752438 274.071261 
L 220.021414 246.078982 
L 220.290391 137.535231 
L 220.559367 159.822117 
L 220.828344 152.809388 
L 220.962832 172.932451 
L 221.09732 161.956888 
L 221.231808 196.064355 
L 221.500785 199.507851 
L 221.635273 209.630109 
L 221.769761 258.315729 
L 222.173226 273.604844 
L 222.307714 267.39192 
L 222.442202 267.879871 
L 222.711179 274.197751 
L 222.845667 273.876968 
L 222.980155 275.444133 
L 223.114643 271.860185 
L 223.249132 275.448585 
L 223.518108 248.209702 
L 223.652596 261.223663 
L 223.787084 259.139407 
L 224.056061 252.993033 
L 224.325037 254.832345 
L 224.459525 258.486806 
L 224.86299 250.095359 
L 225.131967 258.381872 
L 225.266455 258.830028 
L 225.400943 255.647379 
L 225.535431 257.719055 
L 225.669919 257.684571 
L 225.804408 255.204021 
L 226.073384 263.716439 
L 226.207872 267.655897 
L 226.34236 267.903115 
L 226.476849 269.565348 
L 226.611337 268.512267 
L 226.880313 263.959312 
L 227.014802 267.992477 
L 227.14929 267.373894 
L 227.283778 267.725591 
L 227.418266 265.736601 
L 227.552754 268.325133 
L 227.821731 266.956792 
L 227.956219 265.596268 
L 228.090707 265.764093 
L 228.225195 274.643445 
L 228.359684 271.648403 
L 228.494172 272.795201 
L 228.62866 271.150756 
L 228.763148 272.199129 
L 228.897637 271.585459 
L 229.032125 266.699666 
L 229.301101 270.58059 
L 229.435589 270.21035 
L 229.570078 256.952611 
L 229.704566 231.270469 
L 230.10803 99.400258 
L 230.242519 101.164229 
L 230.377007 100.724274 
L 230.511495 80.370518 
L 230.645983 124.840248 
L 230.780471 118.269927 
L 230.91496 126.747777 
L 231.183936 166.918435 
L 231.452913 245.455532 
L 232.125354 267.277111 
L 232.259842 266.125509 
L 232.528818 271.325871 
L 232.663306 267.146467 
L 232.932283 236.353123 
L 233.201259 135.205226 
L 233.335748 115.011107 
L 233.604724 140.965005 
L 233.739212 139.722721 
L 233.8737 164.050811 
L 234.008189 133.815184 
L 234.142677 149.544608 
L 234.411653 195.962604 
L 234.546141 209.358533 
L 234.815118 264.073933 
L 234.949606 265.784223 
L 235.084094 262.055627 
L 235.218583 267.934519 
L 235.353071 266.664124 
L 235.622047 276.865604 
L 235.891024 270.417836 
L 236.16 248.278522 
L 236.428976 131.406983 
L 236.563465 113.847877 
L 236.697953 129.611051 
L 236.832441 126.102811 
L 236.966929 114.31759 
L 237.235906 173.647432 
L 237.370394 161.220627 
L 237.504882 174.849678 
L 237.908347 256.719129 
L 238.177323 266.725184 
L 238.311811 266.205611 
L 238.4463 268.323337 
L 238.580788 267.374612 
L 238.715276 270.500632 
L 238.984252 280.63945 
L 239.253229 267.210707 
L 239.387717 240.484569 
L 239.656694 138.766584 
L 239.791182 122.753416 
L 239.92567 125.154243 
L 240.463623 181.847484 
L 240.598111 179.853942 
L 240.867087 194.692169 
L 241.136064 253.54853 
L 241.270552 255.731519 
L 241.40504 261.92747 
L 241.539529 259.236456 
L 241.674017 260.289716 
L 241.808505 257.900765 
L 241.942993 277.226202 
L 242.077481 273.614387 
L 242.21197 282.771638 
L 242.346458 276.899229 
L 242.615434 242.352568 
L 242.884411 138.429732 
L 243.018899 133.739779 
L 243.153387 165.374111 
L 243.287875 159.849212 
L 243.422363 142.292593 
L 243.556852 159.854015 
L 243.69134 152.162955 
L 243.960316 178.518861 
L 244.229293 232.171044 
L 244.498269 258.604237 
L 244.632757 266.641641 
L 244.767246 266.919093 
L 244.901734 264.949847 
L 245.17071 272.054025 
L 245.305198 270.604892 
L 245.439687 271.359959 
L 245.574175 270.591843 
L 245.708663 268.725522 
L 245.843151 250.685689 
L 245.97764 265.922993 
L 246.246616 259.474319 
L 246.515592 256.41529 
L 246.650081 258.387136 
L 247.053545 268.81454 
L 247.188033 268.109443 
L 247.322522 270.464632 
L 247.45701 270.356491 
L 247.591498 270.673795 
L 247.725986 270.168913 
L 247.860475 273.889357 
L 247.994963 271.403712 
L 248.129451 271.580281 
L 248.263939 272.496597 
L 248.398427 270.67273 
L 248.532916 271.354233 
L 248.667404 269.880925 
L 248.801892 271.805439 
L 248.93638 270.779432 
L 249.608821 273.643372 
L 250.012286 272.851166 
L 250.281262 270.834862 
L 250.415751 271.23852 
L 250.550239 270.84977 
L 250.684727 270.007966 
L 251.088192 272.128978 
L 251.357168 268.89014 
L 251.491656 268.540991 
L 251.626144 285.753678 
L 251.760633 278.346791 
L 252.029609 277.612574 
L 252.298586 256.611098 
L 252.567562 142.365131 
L 252.70205 129.986218 
L 252.836538 144.228416 
L 252.971027 170.998508 
L 253.105515 164.29907 
L 253.374491 182.107602 
L 253.643468 173.718675 
L 254.181421 260.914835 
L 254.450397 277.735664 
L 254.584885 277.058391 
L 254.719373 277.828187 
L 254.853862 283.403398 
L 254.98835 279.419741 
L 255.122838 281.479926 
L 255.257326 281.278958 
L 255.660791 183.903477 
L 255.795279 147.866678 
L 256.064255 175.048708 
L 256.333232 158.379068 
L 256.46772 165.761735 
L 256.602208 162.237983 
L 256.736697 164.937927 
L 257.005673 212.413789 
L 257.140161 221.070739 
L 257.409138 252.87645 
L 257.543626 264.677847 
L 257.678114 260.063681 
L 257.812602 262.589267 
L 257.94709 261.676108 
L 258.081579 280.672713 
L 258.216067 279.712477 
L 258.485043 274.478133 
L 258.75402 249.831927 
L 259.022996 149.039176 
L 259.291973 170.662709 
L 259.426461 167.715797 
L 259.560949 147.85514 
L 259.829925 179.031873 
L 259.964414 155.980864 
L 260.636855 253.742095 
L 260.905831 263.452694 
L 261.040319 259.358057 
L 261.174808 258.911339 
L 261.309296 269.107951 
L 261.443784 266.685654 
L 261.578272 271.07665 
L 261.847249 261.964675 
L 261.981737 237.146899 
L 262.250713 145.232974 
L 262.385201 164.377026 
L 262.51969 165.943869 
L 262.654178 142.764104 
L 262.788666 146.915322 
L 262.923154 161.077838 
L 263.057643 152.318715 
L 263.192131 180.957506 
L 263.326619 185.536953 
L 263.99906 253.125269 
L 264.133548 255.156337 
L 264.268036 255.094089 
L 264.402525 266.625616 
L 264.537013 257.733326 
L 264.671501 262.226129 
L 264.940478 259.086418 
L 265.074966 257.217543 
L 265.209454 242.269129 
L 265.881895 107.900433 
L 266.016383 103.163907 
L 266.150871 120.631368 
L 266.28536 119.586281 
L 266.419848 120.463635 
L 266.554336 129.310032 
L 266.823312 182.797464 
L 267.092289 248.126644 
L 267.361265 255.551996 
L 267.495754 252.928028 
L 267.630242 271.907363 
L 267.76473 263.996731 
L 267.899218 265.678921 
L 268.033706 265.295453 
L 268.302683 272.298636 
L 268.437171 271.73814 
L 268.571659 267.286187 
L 268.706147 271.598795 
L 268.840636 271.755577 
L 268.975124 267.928305 
L 269.109612 268.043898 
L 269.513077 262.289299 
L 269.647565 260.070513 
L 269.916541 253.831983 
L 270.05103 251.075207 
L 270.320006 254.191565 
L 270.454494 255.402063 
L 270.588982 260.135541 
L 270.723471 260.564588 
L 270.857959 280.236296 
L 271.126935 270.827465 
L 271.261424 272.898989 
L 271.5304 272.314146 
L 271.664888 274.113004 
L 271.799376 274.373938 
L 271.933865 275.822254 
L 272.068353 272.340761 
L 272.202841 273.6146 
L 272.337329 273.029234 
L 272.471817 273.30043 
L 272.606306 271.989615 
L 272.740794 269.302708 
L 272.875282 272.455221 
L 273.144258 270.367006 
L 273.278747 267.353969 
L 273.413235 268.31337 
L 273.682211 271.911168 
L 273.951188 270.997455 
L 274.085676 268.737386 
L 274.220164 287.524274 
L 274.623629 280.666222 
L 274.892605 255.198374 
L 275.161582 184.429455 
L 275.430558 152.765991 
L 275.565046 152.519646 
L 275.699535 151.556722 
L 275.834023 155.685222 
L 275.968511 190.077296 
L 276.102999 186.447444 
L 276.909928 270.139006 
L 277.044417 269.797651 
L 277.178905 273.432716 
L 277.313393 269.116502 
L 277.447881 279.366422 
L 277.58237 276.340401 
L 277.716858 280.26692 
L 277.851346 278.107868 
L 277.985834 271.558359 
L 278.120322 258.916372 
L 278.389299 205.907291 
L 278.523787 201.708037 
L 278.658275 182.412455 
L 278.792763 186.387007 
L 278.927252 180.85946 
L 279.06174 200.855178 
L 279.196228 196.985007 
L 279.330716 198.008887 
L 279.734181 240.090979 
L 280.003157 268.474621 
L 280.406622 275.042748 
L 280.54111 255.693202 
L 280.810087 261.874438 
L 280.944575 262.065704 
L 281.079063 261.417282 
L 281.213551 248.820724 
L 281.348039 250.775959 
L 281.617016 129.978585 
L 281.751504 132.985104 
L 281.885992 126.867263 
L 282.020481 129.090006 
L 282.289457 152.546836 
L 282.423945 118.54242 
L 282.82741 181.52851 
L 283.230874 257.698805 
L 283.365363 260.459882 
L 283.499851 260.286803 
L 283.634339 261.120895 
L 283.768827 256.189979 
L 283.903316 256.070891 
L 284.037804 256.436296 
L 284.172292 258.784415 
L 284.30678 257.955129 
L 284.575757 248.485003 
L 284.844733 159.371224 
L 284.979221 149.815244 
L 285.113709 154.103475 
L 285.248198 139.055765 
L 285.382686 141.979808 
L 285.517174 139.927146 
L 285.651662 157.545136 
L 285.78615 152.952054 
L 285.920639 157.829245 
L 286.324103 246.734577 
L 286.458592 256.686621 
L 286.59308 257.982623 
L 286.727568 261.429399 
L 286.862056 256.896733 
L 286.996544 290.463904 
L 287.265521 271.880361 
L 287.400009 273.823667 
L 287.668985 269.081053 
L 287.803474 266.633048 
L 287.937962 269.878858 
L 288.07245 268.0885 
L 288.206938 268.686972 
L 288.341427 264.894703 
L 288.475915 266.674413 
L 288.610403 262.452696 
L 288.744891 263.551523 
L 288.879379 262.088997 
L 289.013868 268.225801 
L 289.148356 266.920049 
L 289.282844 260.393337 
L 289.417332 272.654144 
L 289.55182 273.255902 
L 289.686309 273.148498 
L 289.955285 270.903222 
L 290.089773 273.172271 
L 290.224262 270.490934 
L 290.35875 273.671084 
L 290.493238 271.6432 
L 290.627726 273.600599 
L 290.762214 270.728525 
L 290.896703 262.407741 
L 291.031191 263.242318 
L 291.165679 246.364783 
L 291.300167 179.473815 
L 291.434655 178.363026 
L 291.703632 189.720075 
L 291.83812 197.709053 
L 292.107096 178.470375 
L 292.510561 205.904573 
L 292.914026 267.512536 
L 293.048514 265.919792 
L 293.183002 268.523086 
L 293.31749 267.170483 
L 293.451979 263.654749 
L 293.586467 265.123921 
L 293.720955 263.29133 
L 293.855443 267.408051 
L 293.989931 266.695259 
L 294.12442 256.625346 
L 294.258908 256.646046 
L 294.393396 233.644126 
L 294.527884 180.903106 
L 294.662373 177.457044 
L 294.931349 150.289791 
L 295.065837 137.795639 
L 295.200325 141.537041 
L 295.334814 159.065715 
L 295.469302 152.385887 
L 295.60379 190.322115 
L 295.738278 194.750376 
L 295.872766 208.984668 
L 296.141743 262.522698 
L 296.410719 257.800061 
L 296.545208 265.768348 
L 296.679696 291.120499 
L 296.814184 280.493758 
L 297.08316 278.198805 
L 297.217649 277.67522 
L 297.621113 278.933946 
L 297.89009 276.954491 
L 298.159066 269.243965 
L 298.293554 272.090039 
L 298.965995 266.207012 
L 299.100484 266.751702 
L 299.234972 267.797504 
L 299.36946 272.865274 
L 299.503948 273.335757 
L 299.638436 270.830356 
L 299.772925 274.116711 
L 299.907413 252.264683 
L 300.041901 267.55962 
L 300.176389 265.662442 
L 300.310877 267.007827 
L 300.445366 266.416301 
L 300.714342 247.395483 
L 300.983319 161.204427 
L 301.386783 120.555236 
L 301.521271 124.773969 
L 301.65576 151.288097 
L 301.790248 136.846414 
L 302.597177 254.12884 
L 302.731665 258.851463 
L 302.866153 256.468545 
L 303.13513 267.157259 
L 303.269618 262.11149 
L 303.404106 261.879705 
L 303.538595 266.383837 
L 303.673083 264.725152 
L 303.807571 242.360489 
L 303.942059 240.472866 
L 304.211036 154.965598 
L 304.345524 163.951474 
L 304.480012 160.946078 
L 304.748988 152.562303 
L 304.883477 168.306021 
L 305.017965 151.05019 
L 305.286941 189.703662 
L 305.42143 211.334131 
L 305.555918 214.266197 
L 305.824894 255.7492 
L 305.959382 265.988324 
L 306.093871 261.418123 
L 306.228359 264.613623 
L 306.362847 262.71381 
L 306.497335 277.513858 
L 306.766312 272.309388 
L 306.9008 272.081842 
L 307.169776 243.414002 
L 307.438753 147.841173 
L 307.707729 174.360024 
L 307.842217 158.985087 
L 307.976706 156.431149 
L 308.111194 169.088445 
L 308.245682 157.072853 
L 308.38017 165.798375 
L 309.052611 264.987266 
L 309.187099 267.620896 
L 309.321588 267.65603 
L 309.456076 270.787101 
L 309.590564 269.949485 
L 309.725052 273.396136 
L 309.859541 271.397064 
L 309.994029 272.630625 
L 310.128517 271.550227 
L 310.263005 263.485782 
L 310.397493 239.080163 
L 310.66647 149.233761 
L 310.935446 172.064288 
L 311.204423 157.594435 
L 311.338911 168.50787 
L 311.473399 168.482418 
L 311.607887 161.227508 
L 311.742376 180.113951 
L 311.876864 215.08627 
L 312.011352 220.085353 
L 312.280328 257.824163 
L 312.683793 265.757085 
L 312.952769 269.164896 
L 313.087258 266.125735 
L 313.221746 268.826118 
L 313.356234 267.457502 
L 313.490722 269.45227 
L 313.894187 247.591699 
L 314.028675 257.07896 
L 314.163163 254.143724 
L 314.297652 257.398314 
L 314.43214 254.34105 
L 314.701116 262.397484 
L 314.835604 262.260015 
L 315.104581 265.774084 
L 315.373557 262.225346 
L 315.508045 266.115093 
L 315.642534 265.405673 
L 315.777022 265.860787 
L 315.91151 265.100602 
L 316.045998 267.274593 
L 316.180487 267.397959 
L 316.314975 268.885664 
L 316.449463 267.362085 
L 316.583951 268.967724 
L 316.718439 268.921976 
L 316.852928 270.150591 
L 316.987416 269.768574 
L 317.121904 268.318069 
L 317.256392 269.058905 
L 317.39088 267.623215 
L 317.525369 268.61078 
L 317.659857 266.563887 
L 317.794345 268.842218 
L 318.063322 265.234066 
L 318.332298 263.23772 
L 318.466786 260.455821 
L 318.601274 262.719211 
L 318.735763 261.752679 
L 318.870251 264.595644 
L 319.139227 262.62052 
L 319.273715 262.939477 
L 319.408204 282.76063 
L 319.67718 274.725689 
L 319.811668 274.715521 
L 319.946157 268.391273 
L 320.080645 253.045484 
L 320.349621 149.036528 
L 320.618598 130.58246 
L 321.15655 176.766542 
L 321.425527 188.996853 
L 321.560015 187.31277 
L 321.96348 263.889759 
L 322.097968 265.072559 
L 322.232456 262.590526 
L 322.366944 267.025041 
L 322.501433 265.091101 
L 322.635921 281.950135 
L 322.904897 275.864415 
L 323.039385 274.353325 
L 323.173874 261.869073 
L 323.308362 260.11162 
L 323.577338 153.452209 
L 323.846315 176.616143 
L 324.115291 150.010738 
L 324.384268 159.483911 
L 324.518756 164.532201 
L 324.787732 197.707099 
L 324.92222 210.666042 
L 325.191197 261.620603 
L 325.325685 261.491029 
L 325.460173 260.527144 
L 325.594661 264.948198 
L 325.72915 263.998 
L 325.863638 277.128049 
L 325.998126 276.321558 
L 326.132614 276.583665 
L 326.267103 274.851821 
L 326.401591 267.641374 
L 326.536079 252.427854 
L 326.805055 146.58639 
L 327.074032 178.751089 
L 327.20852 159.079941 
L 327.343008 160.971365 
L 327.477496 174.59972 
L 327.746473 168.318581 
L 327.880961 176.85069 
L 328.149937 218.178732 
L 328.418914 254.17747 
L 328.822379 269.359543 
L 328.956867 269.094377 
L 329.091355 284.001327 
L 329.225843 277.188492 
L 329.360331 276.446186 
L 329.49482 273.864432 
L 329.763796 252.51487 
L 330.032772 156.272767 
L 330.301749 175.371973 
L 330.570725 157.399757 
L 330.705214 156.788906 
L 330.97419 189.934476 
L 331.108678 187.306601 
L 331.243166 192.19973 
L 331.646631 260.367484 
L 331.781119 261.987981 
L 331.915607 261.105316 
L 332.050096 262.727964 
L 332.184584 267.078255 
L 332.319072 282.208863 
L 332.588049 272.715087 
L 332.722537 274.240393 
L 332.991513 251.363755 
L 333.26049 155.310184 
L 333.529466 182.033844 
L 333.663954 163.764321 
L 333.798442 163.820104 
L 334.067419 173.735546 
L 334.336395 190.575381 
L 334.470883 196.520395 
L 334.73986 255.667238 
L 335.008836 264.685323 
L 335.277813 273.614971 
L 335.546789 268.834332 
L 335.681277 268.524934 
L 335.815766 267.867574 
L 336.084742 271.01929 
L 336.757183 250.784101 
L 336.891671 254.705827 
L 337.02616 254.116812 
L 337.429624 262.318752 
L 337.833089 266.743653 
L 337.967577 265.155608 
L 338.102065 268.735721 
L 338.236553 268.99845 
L 338.50553 266.485395 
L 338.640018 262.292668 
L 338.908995 265.51544 
L 339.043483 265.15732 
L 339.581436 269.071751 
L 339.850412 267.586813 
L 339.9849 269.232933 
L 340.119388 268.639236 
L 340.253877 269.253615 
L 340.388365 268.991892 
L 340.522853 270.739411 
L 340.657341 268.487491 
L 340.791829 269.184712 
L 340.926318 268.953926 
L 341.060806 268.297058 
L 341.195294 263.698964 
L 341.464271 269.133414 
L 341.733247 266.52791 
L 341.867735 269.087638 
L 342.002223 281.548228 
L 342.2712 275.645177 
L 342.405688 276.787996 
L 342.540176 259.218748 
L 342.674664 257.073167 
L 342.943641 148.259879 
L 343.078129 137.639816 
L 343.347106 173.384302 
L 343.481594 171.931004 
L 343.75057 186.120585 
L 344.019547 192.189656 
L 344.154035 189.663737 
L 344.423011 251.192503 
L 344.557499 258.672584 
L 344.691988 259.17211 
L 344.960964 269.233308 
L 345.095452 268.980019 
L 345.22994 279.748527 
L 345.364429 277.368448 
L 345.498917 278.024692 
L 345.633405 276.65683 
L 345.902382 256.9541 
L 346.171358 161.305395 
L 346.305846 178.446579 
L 346.440334 176.628909 
L 346.709311 166.474647 
L 346.978287 178.397195 
L 347.247264 180.938428 
L 347.51624 224.338826 
L 347.785217 256.604018 
L 348.188681 268.143694 
L 348.323169 265.677207 
L 348.457658 281.071864 
L 348.592146 275.540604 
L 348.726634 277.494793 
L 348.861122 275.447274 
L 349.130099 253.246626 
L 349.399075 157.667598 
L 349.533563 173.379201 
L 349.80254 158.622074 
L 349.937028 158.98646 
L 350.743957 226.233948 
L 351.012934 257.378563 
L 351.147422 266.21039 
L 351.28191 264.923025 
L 351.550886 269.384323 
L 351.685375 284.037535 
L 351.819863 275.398929 
L 352.088839 274.880067 
L 352.223328 271.489638 
L 352.357816 256.809377 
L 352.626792 153.74364 
L 352.76128 178.068817 
L 352.895769 176.612779 
L 353.164745 161.34553 
L 353.299233 173.188862 
L 353.433721 172.309246 
L 353.702698 151.023112 
L 354.106163 252.161889 
L 354.240651 267.192598 
L 354.375139 269.264024 
L 354.509627 268.942531 
L 354.644115 270.640967 
L 354.913092 277.093857 
L 355.04758 275.515694 
L 355.182068 275.834507 
L 355.316556 275.180194 
L 355.451045 269.616408 
L 355.585533 251.919013 
L 355.854509 180.696843 
L 355.988998 183.345953 
L 356.257974 146.116214 
L 356.795927 188.722012 
L 356.930415 186.005545 
L 357.199391 229.502506 
L 357.468368 272.367329 
L 357.602856 271.848298 
L 357.737344 273.678642 
L 357.871832 273.899729 
L 358.006321 278.174006 
L 358.275297 273.808911 
L 358.409785 274.653028 
L 358.544274 274.123209 
L 358.81325 272.812971 
L 359.082226 257.055525 
L 359.216715 253.779707 
L 359.351203 253.291524 
L 359.485691 250.416414 
L 359.620179 244.56372 
L 359.754667 261.489346 
L 359.889156 263.495531 
L 360.023644 262.256405 
L 360.427109 276.851665 
L 360.561597 273.876869 
L 360.696085 273.768323 
L 360.830573 275.691049 
L 360.965061 275.376662 
L 361.09955 275.69382 
L 361.234038 275.379948 
L 361.368526 275.389278 
L 361.503014 274.075812 
L 361.637502 275.729293 
L 361.906479 273.898602 
L 362.040967 276.513804 
L 362.175455 275.984268 
L 362.444432 277.686854 
L 362.713408 273.709227 
L 362.847896 274.025368 
L 362.982385 274.020138 
L 363.116873 273.16462 
L 363.251361 270.481742 
L 363.385849 270.466026 
L 363.520337 272.519772 
L 363.654826 270.723716 
L 363.789314 271.060009 
L 364.05829 272.663806 
L 364.192778 273.849614 
L 364.327267 220.303965 
L 364.596243 249.498801 
L 364.730731 249.152137 
L 364.86522 256.082326 
L 364.999708 251.70194 
L 365.268684 199.434392 
L 365.537661 114.228944 
L 365.806637 100.675883 
L 365.941125 97.822954 
L 366.210102 130.430916 
L 366.479078 124.865481 
L 366.613566 140.839077 
L 366.882543 238.342146 
L 367.286007 258.629814 
L 367.420496 252.490144 
L 367.554984 264.413869 
L 367.689472 264.175502 
L 367.82396 261.990804 
L 368.092937 267.753551 
L 368.227425 234.26653 
L 368.361913 230.177476 
L 368.765378 93.427785 
L 368.899866 99.236732 
L 369.168842 86.157127 
L 369.303331 99.835951 
L 369.437819 101.264183 
L 369.572307 110.164533 
L 369.706795 106.363947 
L 369.841283 127.838002 
L 370.11026 234.825264 
L 370.244748 229.250422 
L 370.782701 289.301881 
L 371.051677 274.687392 
L 371.186166 275.799124 
L 371.320654 273.395262 
L 371.58963 247.710214 
L 371.858607 153.518154 
L 371.993095 159.45838 
L 372.262071 219.528078 
L 372.396559 204.075414 
L 372.531048 207.012197 
L 372.800024 188.551576 
L 372.934512 198.541355 
L 373.069001 227.630415 
L 373.203489 226.36678 
L 373.472465 259.104257 
L 373.606953 260.338169 
L 373.87593 266.065699 
L 374.144906 291.525563 
L 374.279394 282.95766 
L 374.413883 283.093717 
L 374.548371 280.625371 
L 374.817347 251.907677 
L 375.086324 189.215988 
L 375.3553 171.097509 
L 375.624277 176.940156 
L 375.758765 180.656829 
L 375.893253 190.71032 
L 376.027741 191.417496 
L 376.162229 200.020804 
L 376.431206 231.686001 
L 376.700182 264.010394 
L 376.83467 265.12537 
L 376.969159 263.893269 
L 377.103647 265.523498 
L 377.238135 285.735468 
L 377.372623 274.562358 
L 377.507112 274.636729 
L 377.6416 275.222403 
L 377.776088 269.335742 
L 377.910576 277.835598 
L 378.179553 272.20627 
L 378.314041 253.812711 
L 378.448529 260.892402 
L 378.583017 247.603719 
L 378.717505 255.533495 
L 378.851994 254.556446 
L 378.986482 264.774818 
L 379.12097 260.113729 
L 379.255458 262.00263 
L 379.389947 265.52637 
L 379.524435 262.809639 
L 379.793411 271.307861 
L 379.927899 271.767127 
L 380.062388 275.358073 
L 380.196876 272.643812 
L 380.331364 273.627632 
L 380.465852 257.129951 
L 380.734829 266.582319 
L 380.869317 268.046822 
L 381.003805 267.991228 
L 381.138293 252.797767 
L 381.272782 255.036483 
L 381.676246 145.39903 
L 381.810734 144.339296 
L 381.945223 134.647934 
L 382.348687 156.115309 
L 382.483175 143.528219 
L 383.021128 253.74924 
L 383.290105 264.678031 
L 383.424593 264.972093 
L 383.559081 264.973221 
L 383.693569 255.359089 
L 383.962546 257.771312 
L 384.097034 258.201278 
L 384.231522 260.138874 
L 384.36601 256.474348 
L 384.500499 259.784674 
L 384.903963 161.493587 
L 385.038451 159.76721 
L 385.17294 142.447966 
L 385.307428 152.958981 
L 385.441916 183.835283 
L 385.576404 175.575047 
L 385.710893 175.548313 
L 385.845381 205.835838 
L 385.979869 208.075547 
L 386.383334 265.427459 
L 386.517822 264.828892 
L 386.65231 269.502678 
L 386.786798 268.153343 
L 386.921286 280.116269 
L 387.190263 271.496762 
L 387.324751 274.554386 
L 387.459239 271.917331 
L 387.593727 272.448733 
L 387.728216 275.456685 
L 387.862704 272.932314 
L 387.997192 275.911264 
L 388.13168 272.573507 
L 388.266169 276.319811 
L 388.535145 270.357108 
L 388.669633 272.271372 
L 388.804121 270.964229 
L 388.93861 273.485003 
L 389.073098 267.546336 
L 389.611051 283.368325 
L 389.745539 278.182973 
L 389.880027 279.847007 
L 390.014515 279.164555 
L 390.149004 247.044987 
L 390.41798 262.719009 
L 390.552468 262.685389 
L 390.686956 263.327226 
L 390.821445 251.879854 
L 390.955933 257.270446 
L 391.090421 240.106336 
L 391.224909 170.766547 
L 391.359397 185.819351 
L 391.493886 152.830371 
L 391.628374 156.048922 
L 391.89735 183.640684 
L 392.031839 181.335751 
L 392.166327 168.694296 
L 392.435303 192.902179 
L 392.838768 271.728028 
L 392.973256 269.570425 
L 393.107744 269.626565 
L 393.242232 268.158104 
L 393.376721 253.507529 
L 393.511209 255.518555 
L 393.645697 266.836275 
L 393.780185 265.973138 
L 393.914673 257.730578 
L 394.049162 262.943686 
L 394.18365 246.904929 
L 394.587115 156.138011 
L 394.721603 153.643897 
L 394.856091 139.720092 
L 395.125067 149.76414 
L 395.259556 149.451532 
L 395.394044 170.837923 
L 395.528532 165.228743 
L 395.797508 213.799935 
L 396.066485 255.695782 
L 396.200973 260.576358 
L 396.335461 260.328078 
L 396.46995 249.762835 
L 396.604438 295.488 
L 396.738926 280.691865 
L 396.873414 278.494123 
L 397.142391 279.396884 
L 397.411367 254.603773 
L 397.680343 170.506566 
L 397.814832 182.571264 
L 398.083808 161.919282 
L 398.218296 147.838816 
L 398.352785 174.255305 
L 398.487273 165.313436 
L 398.487273 165.313436 
" clip-path="url(#p6386497143)" style="fill: none; stroke: #ff7f0e; stroke-width: 1.5; stroke-linecap: square"/>
   </g>
   <g id="patch_3">
    <path d="M 57.6 307.584 
L 57.6 41.472 
" style="fill: none; stroke: #000000; stroke-width: 0.8; stroke-linejoin: miter; stroke-linecap: square"/>
   </g>
   <g id="patch_4">
    <path d="M 414.72 307.584 
L 414.72 41.472 
" style="fill: none; stroke: #000000; stroke-width: 0.8; stroke-linejoin: miter; stroke-linecap: square"/>
   </g>
   <g id="patch_5">
    <path d="M 57.6 307.584 
L 414.72 307.584 
" style="fill: none; stroke: #000000; stroke-width: 0.8; stroke-linejoin: miter; stroke-linecap: square"/>
   </g>
   <g id="patch_6">
    <path d="M 57.6 41.472 
L 414.72 41.472 
" style="fill: none; stroke: #000000; stroke-width: 0.8; stroke-linejoin: miter; stroke-linecap: square"/>
   </g>
  </g>
 </g>
 <defs>
  <clipPath id="p6386497143">
   <rect x="57.6" y="41.472" width="357.12" height="266.112"/>
  </clipPath>
 </defs>
</svg>
