<?xml version="1.0" encoding="utf-8" standalone="no"?>
<!DOCTYPE svg PUBLIC "-//W3C//DTD SVG 1.1//EN"
  "http://www.w3.org/Graphics/SVG/1.1/DTD/svg11.dtd">
<svg xmlns:xlink="http://www.w3.org/1999/xlink" width="460.8pt" height="345.6pt" viewBox="0 0 460.8 345.6" xmlns="http://www.w3.org/2000/svg" version="1.1">
 <metadata>
  <rdf:RDF xmlns:dc="http://purl.org/dc/elements/1.1/" xmlns:cc="http://creativecommons.org/ns#" xmlns:rdf="http://www.w3.org/1999/02/22-rdf-syntax-ns#">
   <cc:Work>
    <dc:type rdf:resource="http://purl.org/dc/dcmitype/StillImage"/>
    <dc:date>2023-04-04T07:09:18.712254</dc:date>
    <dc:format>image/svg+xml</dc:format>
    <dc:creator>
     <cc:Agent>
      <dc:title>Matplotlib v3.5.2, https://matplotlib.org/</dc:title>
     </cc:Agent>
    </dc:creator>
   </cc:Work>
  </rdf:RDF>
 </metadata>
 <defs>
  <style type="text/css">*{stroke-linejoin: round; stroke-linecap: butt}</style>
 </defs>
 <g id="figure_1">
  <g id="patch_1">
   <path d="M 0 345.6 
L 460.8 345.6 
L 460.8 0 
L 0 0 
z
" style="fill: #ffffff"/>
  </g>
  <g id="axes_1">
   <g id="patch_2">
    <path d="M 57.6 307.584 
L 414.72 307.584 
L 414.72 41.472 
L 57.6 41.472 
z
" style="fill: #ffffff"/>
   </g>
   <g id="matplotlib.axis_1">
    <g id="xtick_1">
     <g id="line2d_1">
      <defs>
       <path id="m2ac56ffad9" d="M 0 0 
L 0 3.5 
" style="stroke: #000000; stroke-width: 0.8"/>
      </defs>
      <g>
       <use xlink:href="#m2ac56ffad9" x="73.832727" y="307.584" style="stroke: #000000; stroke-width: 0.8"/>
      </g>
     </g>
     <g id="text_1">
      <!-- 0 -->
      <g transform="translate(70.651477 322.182437)scale(0.1 -0.1)">
       <defs>
        <path id="DejaVuSans-30" d="M 2034 4250 
Q 1547 4250 1301 3770 
Q 1056 3291 1056 2328 
Q 1056 1369 1301 889 
Q 1547 409 2034 409 
Q 2525 409 2770 889 
Q 3016 1369 3016 2328 
Q 3016 3291 2770 3770 
Q 2525 4250 2034 4250 
z
M 2034 4750 
Q 2819 4750 3233 4129 
Q 3647 3509 3647 2328 
Q 3647 1150 3233 529 
Q 2819 -91 2034 -91 
Q 1250 -91 836 529 
Q 422 1150 422 2328 
Q 422 3509 836 4129 
Q 1250 4750 2034 4750 
z
" transform="scale(0.015625)"/>
       </defs>
       <use xlink:href="#DejaVuSans-30"/>
      </g>
     </g>
    </g>
    <g id="xtick_2">
     <g id="line2d_2">
      <g>
       <use xlink:href="#m2ac56ffad9" x="141.076834" y="307.584" style="stroke: #000000; stroke-width: 0.8"/>
      </g>
     </g>
     <g id="text_2">
      <!-- 500 -->
      <g transform="translate(131.533084 322.182437)scale(0.1 -0.1)">
       <defs>
        <path id="DejaVuSans-35" d="M 691 4666 
L 3169 4666 
L 3169 4134 
L 1269 4134 
L 1269 2991 
Q 1406 3038 1543 3061 
Q 1681 3084 1819 3084 
Q 2600 3084 3056 2656 
Q 3513 2228 3513 1497 
Q 3513 744 3044 326 
Q 2575 -91 1722 -91 
Q 1428 -91 1123 -41 
Q 819 9 494 109 
L 494 744 
Q 775 591 1075 516 
Q 1375 441 1709 441 
Q 2250 441 2565 725 
Q 2881 1009 2881 1497 
Q 2881 1984 2565 2268 
Q 2250 2553 1709 2553 
Q 1456 2553 1204 2497 
Q 953 2441 691 2322 
L 691 4666 
z
" transform="scale(0.015625)"/>
       </defs>
       <use xlink:href="#DejaVuSans-35"/>
       <use xlink:href="#DejaVuSans-30" x="63.623047"/>
       <use xlink:href="#DejaVuSans-30" x="127.246094"/>
      </g>
     </g>
    </g>
    <g id="xtick_3">
     <g id="line2d_3">
      <g>
       <use xlink:href="#m2ac56ffad9" x="208.32094" y="307.584" style="stroke: #000000; stroke-width: 0.8"/>
      </g>
     </g>
     <g id="text_3">
      <!-- 1000 -->
      <g transform="translate(195.59594 322.182437)scale(0.1 -0.1)">
       <defs>
        <path id="DejaVuSans-31" d="M 794 531 
L 1825 531 
L 1825 4091 
L 703 3866 
L 703 4441 
L 1819 4666 
L 2450 4666 
L 2450 531 
L 3481 531 
L 3481 0 
L 794 0 
L 794 531 
z
" transform="scale(0.015625)"/>
       </defs>
       <use xlink:href="#DejaVuSans-31"/>
       <use xlink:href="#DejaVuSans-30" x="63.623047"/>
       <use xlink:href="#DejaVuSans-30" x="127.246094"/>
       <use xlink:href="#DejaVuSans-30" x="190.869141"/>
      </g>
     </g>
    </g>
    <g id="xtick_4">
     <g id="line2d_4">
      <g>
       <use xlink:href="#m2ac56ffad9" x="275.565046" y="307.584" style="stroke: #000000; stroke-width: 0.8"/>
      </g>
     </g>
     <g id="text_4">
      <!-- 1500 -->
      <g transform="translate(262.840046 322.182437)scale(0.1 -0.1)">
       <use xlink:href="#DejaVuSans-31"/>
       <use xlink:href="#DejaVuSans-35" x="63.623047"/>
       <use xlink:href="#DejaVuSans-30" x="127.246094"/>
       <use xlink:href="#DejaVuSans-30" x="190.869141"/>
      </g>
     </g>
    </g>
    <g id="xtick_5">
     <g id="line2d_5">
      <g>
       <use xlink:href="#m2ac56ffad9" x="342.809153" y="307.584" style="stroke: #000000; stroke-width: 0.8"/>
      </g>
     </g>
     <g id="text_5">
      <!-- 2000 -->
      <g transform="translate(330.084153 322.182437)scale(0.1 -0.1)">
       <defs>
        <path id="DejaVuSans-32" d="M 1228 531 
L 3431 531 
L 3431 0 
L 469 0 
L 469 531 
Q 828 903 1448 1529 
Q 2069 2156 2228 2338 
Q 2531 2678 2651 2914 
Q 2772 3150 2772 3378 
Q 2772 3750 2511 3984 
Q 2250 4219 1831 4219 
Q 1534 4219 1204 4116 
Q 875 4013 500 3803 
L 500 4441 
Q 881 4594 1212 4672 
Q 1544 4750 1819 4750 
Q 2544 4750 2975 4387 
Q 3406 4025 3406 3419 
Q 3406 3131 3298 2873 
Q 3191 2616 2906 2266 
Q 2828 2175 2409 1742 
Q 1991 1309 1228 531 
z
" transform="scale(0.015625)"/>
       </defs>
       <use xlink:href="#DejaVuSans-32"/>
       <use xlink:href="#DejaVuSans-30" x="63.623047"/>
       <use xlink:href="#DejaVuSans-30" x="127.246094"/>
       <use xlink:href="#DejaVuSans-30" x="190.869141"/>
      </g>
     </g>
    </g>
    <g id="xtick_6">
     <g id="line2d_6">
      <g>
       <use xlink:href="#m2ac56ffad9" x="410.053259" y="307.584" style="stroke: #000000; stroke-width: 0.8"/>
      </g>
     </g>
     <g id="text_6">
      <!-- 2500 -->
      <g transform="translate(397.328259 322.182437)scale(0.1 -0.1)">
       <use xlink:href="#DejaVuSans-32"/>
       <use xlink:href="#DejaVuSans-35" x="63.623047"/>
       <use xlink:href="#DejaVuSans-30" x="127.246094"/>
       <use xlink:href="#DejaVuSans-30" x="190.869141"/>
      </g>
     </g>
    </g>
   </g>
   <g id="matplotlib.axis_2">
    <g id="ytick_1">
     <g id="line2d_7">
      <defs>
       <path id="m2b52f7d0c4" d="M 0 0 
L -3.5 0 
" style="stroke: #000000; stroke-width: 0.8"/>
      </defs>
      <g>
       <use xlink:href="#m2b52f7d0c4" x="57.6" y="279.977369" style="stroke: #000000; stroke-width: 0.8"/>
      </g>
     </g>
     <g id="text_7">
      <!-- 100 -->
      <g transform="translate(31.5125 283.776588)scale(0.1 -0.1)">
       <use xlink:href="#DejaVuSans-31"/>
       <use xlink:href="#DejaVuSans-30" x="63.623047"/>
       <use xlink:href="#DejaVuSans-30" x="127.246094"/>
      </g>
     </g>
    </g>
    <g id="ytick_2">
     <g id="line2d_8">
      <g>
       <use xlink:href="#m2b52f7d0c4" x="57.6" y="232.269955" style="stroke: #000000; stroke-width: 0.8"/>
      </g>
     </g>
     <g id="text_8">
      <!-- 200 -->
      <g transform="translate(31.5125 236.069174)scale(0.1 -0.1)">
       <use xlink:href="#DejaVuSans-32"/>
       <use xlink:href="#DejaVuSans-30" x="63.623047"/>
       <use xlink:href="#DejaVuSans-30" x="127.246094"/>
      </g>
     </g>
    </g>
    <g id="ytick_3">
     <g id="line2d_9">
      <g>
       <use xlink:href="#m2b52f7d0c4" x="57.6" y="184.562541" style="stroke: #000000; stroke-width: 0.8"/>
      </g>
     </g>
     <g id="text_9">
      <!-- 300 -->
      <g transform="translate(31.5125 188.36176)scale(0.1 -0.1)">
       <defs>
        <path id="DejaVuSans-33" d="M 2597 2516 
Q 3050 2419 3304 2112 
Q 3559 1806 3559 1356 
Q 3559 666 3084 287 
Q 2609 -91 1734 -91 
Q 1441 -91 1130 -33 
Q 819 25 488 141 
L 488 750 
Q 750 597 1062 519 
Q 1375 441 1716 441 
Q 2309 441 2620 675 
Q 2931 909 2931 1356 
Q 2931 1769 2642 2001 
Q 2353 2234 1838 2234 
L 1294 2234 
L 1294 2753 
L 1863 2753 
Q 2328 2753 2575 2939 
Q 2822 3125 2822 3475 
Q 2822 3834 2567 4026 
Q 2313 4219 1838 4219 
Q 1578 4219 1281 4162 
Q 984 4106 628 3988 
L 628 4550 
Q 988 4650 1302 4700 
Q 1616 4750 1894 4750 
Q 2613 4750 3031 4423 
Q 3450 4097 3450 3541 
Q 3450 3153 3228 2886 
Q 3006 2619 2597 2516 
z
" transform="scale(0.015625)"/>
       </defs>
       <use xlink:href="#DejaVuSans-33"/>
       <use xlink:href="#DejaVuSans-30" x="63.623047"/>
       <use xlink:href="#DejaVuSans-30" x="127.246094"/>
      </g>
     </g>
    </g>
    <g id="ytick_4">
     <g id="line2d_10">
      <g>
       <use xlink:href="#m2b52f7d0c4" x="57.6" y="136.855127" style="stroke: #000000; stroke-width: 0.8"/>
      </g>
     </g>
     <g id="text_10">
      <!-- 400 -->
      <g transform="translate(31.5125 140.654345)scale(0.1 -0.1)">
       <defs>
        <path id="DejaVuSans-34" d="M 2419 4116 
L 825 1625 
L 2419 1625 
L 2419 4116 
z
M 2253 4666 
L 3047 4666 
L 3047 1625 
L 3713 1625 
L 3713 1100 
L 3047 1100 
L 3047 0 
L 2419 0 
L 2419 1100 
L 313 1100 
L 313 1709 
L 2253 4666 
z
" transform="scale(0.015625)"/>
       </defs>
       <use xlink:href="#DejaVuSans-34"/>
       <use xlink:href="#DejaVuSans-30" x="63.623047"/>
       <use xlink:href="#DejaVuSans-30" x="127.246094"/>
      </g>
     </g>
    </g>
    <g id="ytick_5">
     <g id="line2d_11">
      <g>
       <use xlink:href="#m2b52f7d0c4" x="57.6" y="89.147712" style="stroke: #000000; stroke-width: 0.8"/>
      </g>
     </g>
     <g id="text_11">
      <!-- 500 -->
      <g transform="translate(31.5125 92.946931)scale(0.1 -0.1)">
       <use xlink:href="#DejaVuSans-35"/>
       <use xlink:href="#DejaVuSans-30" x="63.623047"/>
       <use xlink:href="#DejaVuSans-30" x="127.246094"/>
      </g>
     </g>
    </g>
   </g>
   <g id="line2d_12">
    <path d="M 73.832727 283.042094 
L 74.101704 282.493936 
L 74.236192 281.385692 
L 74.37068 282.347474 
L 74.505168 281.856087 
L 74.639657 282.456724 
L 74.774145 275.999048 
L 74.908633 248.942265 
L 75.177609 247.452363 
L 75.312098 248.006723 
L 75.446586 248.059201 
L 75.581074 248.924136 
L 75.715562 248.169405 
L 75.85005 248.14746 
L 76.253515 243.172531 
L 76.522492 277.158815 
L 76.65698 277.471299 
L 76.925956 275.768144 
L 77.060444 266.930823 
L 77.194933 269.169732 
L 77.463909 269.233183 
L 77.598397 270.814206 
L 77.732885 265.499123 
L 77.867374 252.120056 
L 78.405327 104.00237 
L 78.674303 103.082571 
L 78.808791 110.205765 
L 78.943279 105.413078 
L 79.481232 158.000961 
L 79.750209 228.229614 
L 80.019185 262.878555 
L 80.153673 264.998196 
L 80.288161 261.171584 
L 80.42265 271.545561 
L 80.557138 271.111901 
L 80.826114 273.614155 
L 80.960603 271.07946 
L 81.095091 260.787539 
L 81.364067 168.166934 
L 81.498555 180.441575 
L 81.767532 161.078089 
L 82.036508 169.063833 
L 82.170996 165.96953 
L 82.305485 160.007535 
L 83.112414 260.310465 
L 83.650367 286.438385 
L 83.784855 286.458899 
L 83.919343 287.984105 
L 84.053831 288.175889 
L 84.18832 286.083441 
L 84.322808 278.874374 
L 84.726273 188.934925 
L 84.860761 180.288434 
L 84.995249 184.376005 
L 85.129737 169.526118 
L 85.264225 178.049525 
L 85.398714 178.795192 
L 85.66769 187.073382 
L 85.802178 195.824353 
L 86.340131 262.431537 
L 86.474619 264.440019 
L 86.609107 269.33957 
L 86.878084 286.819567 
L 87.012572 289.065632 
L 87.14706 288.73979 
L 87.281549 290.227307 
L 87.416037 290.130461 
L 87.550525 289.320867 
L 87.819501 261.877176 
L 87.95399 262.022684 
L 88.088478 256.348841 
L 88.222966 257.805349 
L 88.357454 257.049186 
L 88.491942 253.698217 
L 88.626431 256.52679 
L 88.760919 249.548149 
L 88.895407 252.419182 
L 89.029895 252.41775 
L 89.164384 254.972959 
L 89.43336 276.22709 
L 89.567848 277.886831 
L 89.702336 277.389719 
L 89.836825 278.447393 
L 89.971313 263.331298 
L 90.105801 264.043093 
L 90.240289 265.584043 
L 90.374777 265.354093 
L 90.509266 266.587329 
L 90.643754 266.758599 
L 90.778242 268.853432 
L 90.91273 265.637475 
L 91.047218 255.720535 
L 91.181707 254.55218 
L 91.316195 247.636036 
L 91.450683 252.060899 
L 91.585171 250.09917 
L 91.71966 251.59432 
L 91.854148 251.819976 
L 92.123124 254.796442 
L 92.257612 254.224907 
L 92.526589 259.808106 
L 92.795565 266.391252 
L 92.930053 267.344446 
L 93.064542 266.206147 
L 93.19903 276.203713 
L 93.468006 276.328229 
L 93.602495 277.386857 
L 93.736983 276.155051 
L 93.871471 273.636577 
L 94.005959 268.426927 
L 94.6784 161.364811 
L 94.812888 156.974775 
L 95.081865 168.815278 
L 95.216353 163.607059 
L 95.350841 152.358605 
L 96.023282 264.766337 
L 96.157771 265.49483 
L 96.426747 269.416379 
L 96.561235 269.083381 
L 96.695723 269.160667 
L 96.830212 271.040817 
L 96.9647 270.403923 
L 97.099188 268.978425 
L 97.233676 260.522286 
L 97.368164 242.983132 
L 97.502653 202.016298 
L 97.637141 194.929839 
L 97.771629 179.477885 
L 97.906117 187.862463 
L 98.040606 181.15814 
L 98.175094 181.867072 
L 98.309582 176.554851 
L 98.44407 178.195032 
L 98.713047 189.549397 
L 98.982023 231.441277 
L 99.250999 266.246221 
L 99.385488 270.926796 
L 99.519976 271.680096 
L 99.654464 281.472997 
L 99.788952 281.485401 
L 99.923441 280.485453 
L 100.192417 281.72203 
L 100.326905 281.802655 
L 100.461393 281.148586 
L 100.595882 281.554099 
L 100.73037 282.381823 
L 100.864858 280.845167 
L 100.999346 281.999687 
L 101.133834 281.092769 
L 101.268323 278.880099 
L 101.402811 271.863292 
L 101.537299 276.130244 
L 101.806276 265.756743 
L 101.940764 267.915027 
L 102.075252 267.766657 
L 102.20974 268.414046 
L 102.344228 270.789876 
L 102.478717 276.601116 
L 102.613205 274.751022 
L 102.747693 280.414369 
L 102.882181 266.972805 
L 103.016669 267.00143 
L 103.151158 271.901935 
L 103.285646 271.682958 
L 103.554622 267.507128 
L 103.68911 263.323665 
L 103.823599 245.918569 
L 104.092575 183.724322 
L 104.227063 162.266481 
L 104.361552 169.422593 
L 104.630528 144.577526 
L 105.033993 159.876817 
L 105.168481 170.643903 
L 105.706434 253.609482 
L 105.840922 253.487351 
L 105.97541 262.175825 
L 106.109898 278.588607 
L 106.378875 281.774031 
L 106.513363 281.760196 
L 106.647851 283.914662 
L 106.782339 283.646547 
L 106.916828 284.756698 
L 107.320292 247.229569 
L 107.45478 254.285019 
L 107.589269 251.75414 
L 107.723757 251.846693 
L 108.26171 246.789707 
L 108.396198 243.386737 
L 108.530686 245.643775 
L 108.934151 277.216064 
L 109.068639 278.729343 
L 109.203127 277.66356 
L 109.337615 273.173338 
L 109.606592 274.720012 
L 109.875568 275.771007 
L 110.144545 276.818662 
L 110.413521 275.582562 
L 110.548009 275.448028 
L 110.951474 271.40387 
L 111.085962 272.575564 
L 111.22045 272.228731 
L 111.623915 266.441822 
L 111.758403 266.948952 
L 112.02738 270.724516 
L 112.430844 272.319375 
L 112.565333 262.095199 
L 112.834309 266.287727 
L 112.968797 266.810123 
L 113.103285 268.316246 
L 113.237774 268.494195 
L 113.50675 271.105699 
L 113.641238 271.933899 
L 114.313679 260.726951 
L 114.448168 260.36676 
L 114.582656 258.888307 
L 114.98612 248.084963 
L 115.524073 259.118734 
L 115.658561 259.667369 
L 115.927538 261.887195 
L 116.062026 260.606728 
L 116.196514 266.687515 
L 116.331002 266.271506 
L 116.465491 266.88073 
L 116.599979 257.152711 
L 117.137932 79.047576 
L 117.406908 64.393289 
L 117.810373 80.879063 
L 118.213837 147.861704 
L 118.482814 209.998703 
L 118.75179 244.319417 
L 118.886279 245.848439 
L 119.289743 253.816532 
L 119.424231 255.230102 
L 119.55872 257.992362 
L 119.693208 258.308185 
L 119.827696 248.723288 
L 120.365649 91.863696 
L 120.634625 73.357035 
L 120.769114 77.036708 
L 120.903602 70.637713 
L 121.03809 71.961594 
L 121.441555 135.190138 
L 121.710531 201.807817 
L 121.845019 229.897943 
L 122.248484 240.827711 
L 122.51746 256.293978 
L 122.651948 256.452843 
L 122.786437 258.186054 
L 122.920925 256.849769 
L 123.055413 248.715178 
L 123.727854 60.449317 
L 123.862342 53.568 
L 124.534783 107.526994 
L 125.072736 248.01865 
L 125.207225 253.172959 
L 125.341713 253.634767 
L 125.476201 253.58849 
L 125.745177 267.144552 
L 125.879666 268.576729 
L 126.014154 268.805724 
L 126.28313 255.397555 
L 126.821083 92.965737 
L 126.955571 74.673283 
L 127.09006 81.250227 
L 127.359036 105.709341 
L 127.493524 108.144328 
L 127.762501 126.582289 
L 127.896989 149.31201 
L 128.300453 246.406139 
L 128.434942 252.189709 
L 128.56943 250.36824 
L 128.703918 257.845423 
L 128.838406 258.567236 
L 129.241871 265.239118 
L 129.510847 244.594212 
L 130.0488 83.417098 
L 130.183288 74.337423 
L 130.317777 86.218 
L 130.452265 114.950267 
L 130.586753 114.034762 
L 130.721241 110.39898 
L 130.855729 116.768874 
L 131.124706 169.872951 
L 131.393682 235.309872 
L 131.662659 258.337763 
L 131.931635 258.142163 
L 132.066123 257.960398 
L 132.3351 269.196448 
L 132.469588 269.048555 
L 132.604076 269.147309 
L 132.738564 269.105804 
L 133.007541 257.25242 
L 133.276517 246.825964 
L 133.679982 241.265665 
L 133.81447 240.087292 
L 133.948958 235.004544 
L 134.486911 244.849923 
L 134.755888 251.91396 
L 134.890376 251.799462 
L 135.697305 265.996235 
L 135.831793 270.731195 
L 135.966282 271.338511 
L 136.10077 269.36247 
L 136.235258 270.86096 
L 136.369746 270.587596 
L 136.504234 266.302039 
L 136.638723 266.143651 
L 136.907699 264.215317 
L 137.311164 253.368082 
L 137.445652 253.876166 
L 137.58014 251.202643 
L 137.983605 257.993316 
L 138.118093 257.094508 
L 138.252581 258.923133 
L 138.387069 263.399997 
L 138.521558 262.171054 
L 138.656046 262.371425 
L 138.925022 267.051046 
L 139.193999 250.861535 
L 139.731951 81.56939 
L 139.86644 72.681976 
L 140.269904 98.605707 
L 140.538881 122.952232 
L 140.673369 130.019608 
L 140.807857 144.33231 
L 141.076834 224.177347 
L 141.480298 257.25719 
L 142.018251 265.668008 
L 142.152739 265.205723 
L 142.421716 241.547616 
L 142.959669 91.534991 
L 143.094157 84.143205 
L 143.228645 83.657066 
L 143.363133 93.849278 
L 143.497621 84.60549 
L 143.63211 89.715431 
L 144.573527 258.500923 
L 144.708015 261.97927 
L 144.842504 262.154357 
L 145.11148 264.389449 
L 145.245968 266.525787 
L 145.380456 262.461115 
L 145.783921 201.492471 
L 146.052897 110.096992 
L 146.187386 91.03788 
L 146.456362 106.301867 
L 146.59085 117.587533 
L 146.725339 111.915122 
L 146.859827 119.305477 
L 146.994315 114.244198 
L 147.128803 127.06318 
L 147.532268 233.997918 
L 147.801244 259.934053 
L 147.935732 260.135856 
L 148.204709 265.392259 
L 148.339197 265.37079 
L 148.473685 265.873149 
L 148.742662 264.822632 
L 148.87715 247.182816 
L 149.280615 119.169988 
L 149.415103 115.14062 
L 149.549591 106.080028 
L 149.684079 107.332825 
L 150.087544 139.968035 
L 150.222032 132.293344 
L 150.35652 137.800688 
L 150.894473 252.371951 
L 151.028961 261.523187 
L 151.16345 260.567608 
L 151.835891 268.724622 
L 151.970379 267.455127 
L 152.104867 246.552601 
L 152.508332 113.173643 
L 152.64282 116.275579 
L 152.911796 104.448434 
L 153.046285 118.566489 
L 153.180773 117.068954 
L 153.449749 151.465999 
L 153.718726 192.322629 
L 153.987702 248.82252 
L 154.12219 265.835938 
L 154.256678 267.21182 
L 154.525655 271.065624 
L 154.794631 272.765917 
L 155.063608 275.704216 
L 155.198096 277.342489 
L 155.332584 276.700347 
L 155.467072 272.328917 
L 155.601561 261.875745 
L 155.736049 261.016535 
L 155.870537 258.157429 
L 156.005025 260.291859 
L 156.274002 258.398829 
L 156.40849 258.934106 
L 156.542978 260.184994 
L 156.677466 258.990878 
L 157.215419 266.982824 
L 157.349907 268.984627 
L 157.484396 267.994698 
L 157.618884 268.763265 
L 157.88786 271.932468 
L 158.022348 272.412405 
L 158.291325 275.405091 
L 158.560301 279.67729 
L 158.694789 278.114395 
L 158.829278 279.076653 
L 158.963766 278.681159 
L 159.232742 275.972809 
L 159.367231 276.254283 
L 159.501719 274.274902 
L 160.039672 260.221729 
L 160.308648 260.480303 
L 160.443136 266.187064 
L 160.577624 265.904159 
L 160.712113 263.952926 
L 160.846601 264.653271 
L 160.981089 266.142219 
L 161.250066 269.891068 
L 161.519042 270.840445 
L 161.788018 254.112318 
L 162.460459 83.842171 
L 162.594948 83.506311 
L 162.729436 82.05028 
L 162.998412 101.599348 
L 163.132901 110.525405 
L 163.401877 151.703582 
L 163.670853 222.282408 
L 164.074318 256.299226 
L 164.208806 257.429891 
L 164.477783 270.058044 
L 164.612271 272.414313 
L 164.746759 267.722289 
L 165.015735 250.25088 
L 165.4192 120.779159 
L 165.553688 123.372534 
L 165.822665 109.510191 
L 165.957153 114.75419 
L 166.091641 111.676108 
L 166.360618 100.247319 
L 166.495106 106.427338 
L 166.89857 221.385032 
L 167.033059 228.34125 
L 167.302035 246.689998 
L 167.974476 265.11317 
L 168.108964 259.452209 
L 168.243453 245.471551 
L 168.377941 207.480229 
L 168.646917 106.253683 
L 168.781405 107.533673 
L 168.915894 103.018166 
L 169.050382 104.315331 
L 169.18487 108.102345 
L 169.319358 92.809257 
L 169.453847 95.281932 
L 169.857311 148.537241 
L 170.126288 226.558424 
L 170.395264 257.304421 
L 170.529752 258.182237 
L 170.66424 261.611446 
L 170.798729 261.800368 
L 171.067705 264.122287 
L 171.202193 266.950383 
L 171.47117 245.212023 
L 172.009123 110.306905 
L 172.143611 108.733991 
L 172.412587 97.003215 
L 172.95054 129.430899 
L 173.622981 259.269489 
L 173.757469 263.249719 
L 173.891958 276.599685 
L 174.026446 275.672729 
L 174.160934 275.628839 
L 174.42991 277.15643 
L 174.698887 262.398619 
L 174.833375 245.313162 
L 175.102351 176.945098 
L 175.371328 143.6458 
L 175.505816 140.752345 
L 175.640304 150.896373 
L 175.774792 150.586752 
L 175.909281 151.992689 
L 176.043769 156.789193 
L 176.178257 156.481957 
L 176.312745 170.9249 
L 176.581722 238.443772 
L 176.850698 265.513436 
L 176.985186 263.02454 
L 177.254163 267.749482 
L 177.388651 267.706068 
L 177.792116 274.251526 
L 177.926604 275.140315 
L 178.19558 264.445744 
L 178.330069 264.006358 
L 178.599045 256.454275 
L 178.733533 255.889896 
L 178.868021 258.193687 
L 179.136998 254.690055 
L 179.271486 255.284966 
L 179.540462 252.803703 
L 179.809439 260.29663 
L 179.943927 267.554359 
L 180.212904 265.656081 
L 180.48188 275.506708 
L 180.616368 275.520543 
L 180.750856 275.892184 
L 180.885345 276.722293 
L 181.019833 276.808643 
L 181.692274 264.518259 
L 181.826762 265.812084 
L 181.96125 259.837685 
L 182.095738 261.617171 
L 182.364715 267.047229 
L 182.499203 268.323402 
L 182.633691 271.466367 
L 182.902668 270.649616 
L 183.171644 276.771431 
L 183.306132 278.185479 
L 183.440621 277.077236 
L 183.575109 274.778693 
L 183.844085 286.494679 
L 183.978573 287.444534 
L 184.113062 285.16889 
L 184.382038 273.799259 
L 184.919991 182.201501 
L 185.054479 186.211309 
L 185.188967 179.148704 
L 185.457944 183.003463 
L 185.592432 184.500521 
L 185.995897 222.201782 
L 186.264873 252.755519 
L 186.53385 268.489901 
L 186.802826 278.729343 
L 187.071802 289.211617 
L 187.206291 288.062822 
L 187.340779 289.195396 
L 187.475267 286.022376 
L 187.609755 278.035201 
L 188.01322 202.232413 
L 188.147708 185.855889 
L 188.282196 186.074389 
L 188.416684 185.117378 
L 188.551173 188.424933 
L 188.685661 194.817727 
L 188.820149 190.411947 
L 188.954637 194.841103 
L 189.089126 203.202305 
L 189.627078 265.119372 
L 189.761567 267.704637 
L 189.896055 272.93337 
L 190.030543 270.500769 
L 190.299519 272.329871 
L 190.434008 271.160085 
L 190.971961 274.58023 
L 191.106449 271.132415 
L 191.240937 270.647708 
L 191.375425 271.085662 
L 191.509913 266.662707 
L 191.644402 268.209859 
L 191.913378 266.945612 
L 192.182354 261.316614 
L 192.316843 261.664878 
L 192.451331 261.16729 
L 192.585819 262.4864 
L 192.720307 268.248979 
L 192.989284 269.505115 
L 193.392748 266.821096 
L 193.661725 269.699761 
L 193.796213 270.233607 
L 194.065189 262.356159 
L 194.603142 158.73327 
L 194.73763 153.827516 
L 194.872119 143.887677 
L 195.006607 145.461544 
L 195.141095 150.199845 
L 195.275583 142.809966 
L 195.54456 156.187602 
L 195.948024 250.102987 
L 196.217001 260.427348 
L 196.351489 262.351865 
L 196.485977 271.814154 
L 196.620465 271.162471 
L 196.889442 271.718739 
L 197.02393 272.846065 
L 197.158418 271.118103 
L 197.292907 264.803549 
L 197.830859 196.163076 
L 197.965348 198.472115 
L 198.099836 195.157881 
L 198.234324 199.556981 
L 198.5033 186.246136 
L 198.772277 200.031193 
L 199.31023 272.489691 
L 199.713694 281.592265 
L 199.848183 280.424865 
L 200.117159 281.151926 
L 200.251647 279.370531 
L 200.386135 273.597934 
L 200.520624 273.195283 
L 200.655112 260.251308 
L 200.7896 213.079648 
L 200.924088 211.111717 
L 201.058576 199.440575 
L 201.193065 199.08277 
L 201.327553 196.400659 
L 201.462041 198.570869 
L 201.731018 186.783798 
L 201.865506 188.143459 
L 202.134482 210.814023 
L 202.403459 264.228675 
L 202.806923 274.016805 
L 203.0759 265.554464 
L 203.210388 269.876756 
L 203.344876 270.002703 
L 203.748341 260.636307 
L 203.882829 243.267945 
L 204.151805 181.374254 
L 204.420782 164.919967 
L 204.55527 159.297171 
L 204.689758 162.730197 
L 204.824246 156.237695 
L 204.958735 172.24401 
L 205.093223 172.49018 
L 205.765664 260.056184 
L 205.900152 260.566654 
L 206.03464 264.362733 
L 206.169129 279.195922 
L 206.303617 279.676336 
L 206.572593 283.610766 
L 206.84157 284.421315 
L 207.110546 275.042992 
L 207.379522 265.86981 
L 207.514011 264.992948 
L 207.917475 273.102254 
L 208.051964 272.856084 
L 208.32094 266.501933 
L 208.589916 268.10204 
L 208.858893 276.145033 
L 208.993381 279.79465 
L 209.127869 280.377635 
L 209.262357 279.834247 
L 209.396846 273.985795 
L 209.531334 275.082112 
L 209.80031 274.667534 
L 209.934799 275.657463 
L 210.203775 263.48921 
L 211.010704 108.527895 
L 211.279681 134.122923 
L 211.683145 167.188932 
L 212.221098 254.736331 
L 212.355586 257.197556 
L 212.759051 272.422423 
L 212.893539 272.215373 
L 213.028027 272.315559 
L 213.162516 274.961889 
L 213.431492 257.276273 
L 213.56598 219.234858 
L 213.834957 135.400528 
L 213.969445 139.981394 
L 214.103933 138.891279 
L 214.238421 141.849616 
L 214.910862 180.132908 
L 215.448815 260.349585 
L 215.583303 265.311156 
L 215.717792 265.92849 
L 216.121256 270.187331 
L 216.255745 271.143865 
L 216.390233 273.532575 
L 216.524721 269.527537 
L 216.659209 262.015051 
L 217.062674 149.025765 
L 217.197162 150.936447 
L 217.33165 151.017073 
L 217.466138 162.473531 
L 217.600627 161.190679 
L 217.735115 149.344451 
L 217.869603 154.571275 
L 218.273068 196.731748 
L 218.542044 255.509668 
L 218.811021 272.295999 
L 218.945509 264.882266 
L 219.483462 275.594966 
L 219.61795 277.392105 
L 219.886926 263.650938 
L 220.290391 162.133854 
L 220.693856 150.481318 
L 220.828344 161.138201 
L 220.962832 157.219991 
L 221.231808 184.355968 
L 221.500785 198.212586 
L 221.769761 255.373225 
L 222.038738 270.995972 
L 222.173226 270.243626 
L 222.307714 271.467798 
L 222.576691 277.514713 
L 222.845667 280.151979 
L 222.980155 278.480788 
L 223.114643 280.352827 
L 223.38362 259.813831 
L 223.518108 263.676223 
L 223.652596 263.519743 
L 223.921573 256.562093 
L 224.190549 255.889896 
L 224.325037 258.377838 
L 224.459525 257.749531 
L 224.728502 253.891909 
L 225.131967 261.158703 
L 225.266455 259.673094 
L 225.535431 261.144868 
L 225.669919 259.832437 
L 226.073384 269.597667 
L 226.34236 272.628042 
L 226.476849 272.556004 
L 226.745825 269.4097 
L 226.880313 271.693454 
L 227.014802 271.936762 
L 227.14929 271.639545 
L 227.283778 270.219295 
L 227.418266 271.897165 
L 227.552754 272.025975 
L 227.687243 271.856613 
L 227.956219 270.746939 
L 228.090707 276.567243 
L 228.225195 276.606364 
L 228.359684 277.708882 
L 228.494172 276.935545 
L 228.62866 277.907345 
L 228.763148 277.792847 
L 228.897637 275.502891 
L 229.301101 276.407424 
L 229.435589 270.188762 
L 229.570078 256.094084 
L 230.242519 94.529586 
L 230.377007 79.680653 
L 230.511495 109.6848 
L 230.780471 117.642397 
L 231.049448 145.133794 
L 231.587401 253.933892 
L 231.856377 265.166126 
L 232.125354 269.984574 
L 232.39433 274.645112 
L 232.528818 273.830746 
L 232.797795 256.712849 
L 232.932283 220.412754 
L 233.201259 133.184041 
L 233.335748 125.001743 
L 233.470236 135.306544 
L 233.604724 135.528861 
L 233.739212 148.331145 
L 233.8737 133.582398 
L 234.008189 140.310575 
L 234.815118 264.584095 
L 234.949606 264.317411 
L 235.218583 270.225974 
L 235.622047 277.969841 
L 235.756535 277.37159 
L 236.025512 264.705272 
L 236.563465 129.025386 
L 236.832441 116.804178 
L 237.63937 200.563131 
L 237.908347 258.68078 
L 238.177323 266.775774 
L 238.849764 281.705332 
L 238.984252 280.879994 
L 239.118741 277.078667 
L 239.253229 263.167662 
L 239.791182 128.254911 
L 240.194646 146.0035 
L 240.463623 165.144669 
L 240.732599 178.611518 
L 241.270552 256.147039 
L 241.674017 262.026978 
L 241.942993 274.980018 
L 242.077481 281.484447 
L 242.21197 280.858048 
L 242.480946 262.876647 
L 242.884411 151.052853 
L 243.018899 158.930779 
L 243.153387 156.682328 
L 243.287875 145.695788 
L 243.422363 153.682486 
L 243.556852 150.868703 
L 243.825828 167.521453 
L 244.229293 239.563942 
L 244.498269 261.966389 
L 244.767246 267.243306 
L 245.17071 275.106442 
L 245.305198 275.971855 
L 245.439687 275.676069 
L 245.574175 274.446649 
L 245.708663 262.983511 
L 245.843151 268.435038 
L 246.112128 265.451416 
L 246.381104 260.269437 
L 246.515592 260.236041 
L 247.188033 270.484071 
L 247.322522 270.889584 
L 247.45701 271.756905 
L 247.591498 271.402439 
L 247.725986 274.566872 
L 247.860475 273.128493 
L 248.129451 274.452374 
L 248.263939 273.568832 
L 248.398427 274.251526 
L 248.532916 274.098385 
L 248.667404 276.043893 
L 248.801892 275.945139 
L 249.205357 277.48418 
L 249.339845 277.600586 
L 249.608821 276.652163 
L 249.743309 276.783835 
L 249.877798 276.483755 
L 250.550239 273.317891 
L 250.819215 273.617971 
L 250.953703 274.396556 
L 251.088192 273.260643 
L 251.357168 274.51821 
L 251.491656 283.414689 
L 251.626144 282.925211 
L 251.760633 283.355531 
L 251.895121 283.195712 
L 252.164097 270.954943 
L 252.70205 143.583303 
L 252.836538 163.31175 
L 252.971027 159.868706 
L 253.240003 172.773085 
L 253.374491 174.12559 
L 253.508979 171.201125 
L 253.777956 204.009514 
L 254.046932 255.348894 
L 254.315909 276.667906 
L 254.719373 285.020043 
L 254.853862 284.780075 
L 255.122838 286.512808 
L 255.391814 265.755312 
L 255.660791 172.563649 
L 255.795279 176.009556 
L 256.198744 160.342918 
L 256.333232 164.014958 
L 256.46772 161.351453 
L 256.602208 162.547001 
L 257.409138 257.589711 
L 257.812602 265.058307 
L 258.081579 280.258843 
L 258.216067 281.322241 
L 258.350555 280.593272 
L 258.619532 266.428464 
L 258.888508 177.365878 
L 259.022996 178.23463 
L 259.157484 169.185487 
L 259.291973 168.610136 
L 259.426461 153.131942 
L 259.695437 166.826356 
L 259.829925 155.699555 
L 259.964414 164.768735 
L 260.771343 260.658729 
L 261.040319 262.896207 
L 261.309296 270.391996 
L 261.443784 273.604613 
L 261.71276 270.691598 
L 261.847249 258.305799 
L 262.116225 170.185435 
L 262.250713 174.350769 
L 262.654178 147.932788 
L 262.788666 155.230114 
L 262.923154 150.462235 
L 263.326619 185.595406 
L 263.461107 196.48844 
L 263.864572 245.241601 
L 264.268036 263.276435 
L 264.402525 262.519318 
L 264.671501 265.947573 
L 264.805989 265.821625 
L 264.940478 264.871294 
L 265.074966 257.306806 
L 265.209454 238.19951 
L 265.612919 123.958381 
L 265.881895 105.854849 
L 266.016383 115.351964 
L 266.150871 115.221246 
L 266.28536 114.773273 
L 266.419848 119.402323 
L 266.688824 156.658474 
L 266.957801 235.432003 
L 267.226777 252.089523 
L 267.361265 250.667842 
L 267.495754 267.028146 
L 267.630242 266.712323 
L 267.76473 268.580545 
L 267.899218 268.891598 
L 268.168195 275.409385 
L 268.302683 276.29388 
L 268.437171 273.733423 
L 268.706147 276.268595 
L 268.975124 272.775458 
L 269.2441 270.891492 
L 269.916541 256.404659 
L 270.320006 258.293396 
L 270.588982 263.178158 
L 270.723471 277.269974 
L 270.857959 278.309518 
L 270.992447 276.83202 
L 271.126935 277.715084 
L 271.261424 277.744662 
L 271.395912 277.558604 
L 271.799376 280.335175 
L 271.933865 278.950229 
L 272.068353 279.305172 
L 272.202841 278.660645 
L 272.337329 278.896797 
L 272.471817 278.053806 
L 272.606306 275.888844 
L 272.740794 277.171219 
L 272.875282 276.848717 
L 273.00977 276.171749 
L 273.144258 273.837902 
L 273.278747 273.738194 
L 273.547723 276.716091 
L 273.682211 276.930297 
L 273.8167 277.613944 
L 273.951188 276.752348 
L 274.085676 287.402074 
L 274.354652 289.034622 
L 274.489141 287.462663 
L 274.758117 272.741109 
L 275.29607 166.209022 
L 275.565046 153.967299 
L 275.699535 154.304591 
L 275.834023 172.265955 
L 275.968511 174.548755 
L 276.102999 184.70948 
L 276.77544 264.061222 
L 277.447881 281.470134 
L 277.58237 284.868334 
L 277.716858 284.477133 
L 277.851346 280.076601 
L 277.985834 270.0881 
L 278.389299 209.549776 
L 278.523787 190.054141 
L 278.658275 188.054724 
L 278.792763 178.534232 
L 278.927252 190.670998 
L 279.06174 184.847354 
L 279.196228 186.939324 
L 279.330716 194.639301 
L 280.137646 274.43997 
L 280.272134 276.827726 
L 280.406622 268.466525 
L 280.54111 268.182188 
L 280.810087 269.353882 
L 280.944575 268.730347 
L 281.213551 260.806622 
L 281.348039 231.839157 
L 281.482528 161.329984 
L 281.617016 151.114873 
L 281.751504 127.700551 
L 281.885992 128.853162 
L 282.154969 142.372012 
L 282.289457 124.243195 
L 282.423945 128.334105 
L 282.558433 137.450515 
L 282.82741 185.929835 
L 283.096386 254.534051 
L 283.365363 261.168721 
L 283.499851 263.377575 
L 283.634339 262.705854 
L 283.768827 262.71635 
L 283.903316 262.905748 
L 284.037804 264.2115 
L 284.172292 264.340787 
L 284.441268 259.143542 
L 285.113709 143.782243 
L 285.248198 142.705487 
L 285.382686 138.165172 
L 285.517174 147.413732 
L 285.651662 144.310364 
L 285.78615 147.80207 
L 286.055127 200.971029 
L 286.324103 250.5834 
L 286.59308 260.268482 
L 286.727568 260.146829 
L 286.862056 279.098599 
L 286.996544 279.157756 
L 287.131033 278.179277 
L 287.265521 278.785161 
L 287.668985 275.256244 
L 287.803474 276.13406 
L 288.07245 275.258629 
L 288.206938 273.086033 
L 288.341427 273.030693 
L 288.475915 270.683011 
L 288.610403 270.311847 
L 288.744891 269.187384 
L 288.879379 272.01691 
L 289.013868 272.356587 
L 289.148356 269.544712 
L 289.417332 276.702733 
L 289.55182 277.89017 
L 289.820797 277.528548 
L 289.955285 278.31906 
L 290.089773 276.819139 
L 290.224262 278.366767 
L 290.35875 277.459372 
L 290.493238 278.439759 
L 290.627726 276.897379 
L 291.031191 258.912161 
L 291.300167 192.700472 
L 291.434655 187.113933 
L 291.569144 187.721726 
L 291.703632 191.786398 
L 291.972608 179.036591 
L 292.376073 192.121304 
L 293.048514 268.544288 
L 293.183002 269.791359 
L 293.31749 268.639225 
L 293.451979 269.391094 
L 293.586467 268.461277 
L 293.720955 270.937292 
L 293.855443 271.200636 
L 294.258908 247.271075 
L 294.527884 189.261721 
L 294.796861 157.568255 
L 294.931349 141.693613 
L 295.065837 141.559555 
L 295.200325 149.534326 
L 295.334814 143.812299 
L 295.60379 171.879525 
L 295.738278 186.374946 
L 296.141743 256.602168 
L 296.276231 255.711947 
L 296.410719 262.912904 
L 296.545208 280.596612 
L 296.948672 282.76062 
L 297.486625 284.726165 
L 297.621113 284.380764 
L 297.755601 284.376947 
L 298.024578 281.204404 
L 298.159066 281.054126 
L 298.428042 278.913017 
L 298.697019 275.088791 
L 298.831507 273.953831 
L 298.965995 273.811663 
L 299.100484 274.167083 
L 299.36946 277.949804 
L 299.503948 277.443629 
L 299.638436 278.986009 
L 299.772925 269.332414 
L 299.907413 272.732522 
L 300.041901 272.431011 
L 300.176389 273.2969 
L 300.310877 273.013518 
L 300.579854 262.049877 
L 301.252295 128.032118 
L 301.386783 128.100816 
L 301.521271 141.28476 
L 301.65576 134.347148 
L 301.790248 143.756004 
L 302.597177 252.488357 
L 302.731665 254.240174 
L 303.000642 266.640285 
L 303.13513 266.86451 
L 303.269618 267.344446 
L 303.404106 269.802332 
L 303.538595 270.221203 
L 303.807571 253.872827 
L 304.345524 164.151878 
L 304.6145 153.635733 
L 304.748988 161.868124 
L 304.883477 152.300879 
L 305.017965 158.377372 
L 306.093871 265.092656 
L 306.228359 266.102622 
L 306.497335 276.25142 
L 306.766312 277.280469 
L 306.9008 272.575087 
L 307.035288 262.042721 
L 307.304265 169.626304 
L 307.438753 176.883078 
L 307.842217 157.634091 
L 307.976706 164.680476 
L 308.111194 156.267274 
L 308.245682 161.226459 
L 308.649147 207.197801 
L 309.052611 263.525468 
L 309.590564 275.748107 
L 309.994029 277.450308 
L 310.128517 273.899445 
L 310.263005 261.291807 
L 310.531982 169.515145 
L 310.66647 170.665848 
L 310.935446 168.378278 
L 311.069934 159.033349 
L 311.204423 165.484346 
L 311.338911 164.194338 
L 311.473399 157.425133 
L 311.607887 170.552782 
L 311.876864 208.104242 
L 312.14584 250.403066 
L 312.414817 262.200633 
L 312.818281 270.805619 
L 312.952769 270.371959 
L 313.087258 272.256402 
L 313.221746 272.157647 
L 313.356234 273.733423 
L 313.625211 263.18436 
L 313.759699 255.298324 
L 313.894187 258.648816 
L 314.028675 256.121754 
L 314.163163 258.003812 
L 314.297652 255.245369 
L 314.566628 261.804184 
L 314.701116 262.538401 
L 314.970093 267.288628 
L 315.104581 267.25094 
L 315.239069 266.954677 
L 315.508045 269.885343 
L 315.642534 270.422051 
L 315.777022 270.091916 
L 316.180487 273.079831 
L 316.314975 272.640446 
L 316.718439 274.993376 
L 316.852928 275.242409 
L 316.987416 274.3894 
L 317.121904 274.454759 
L 317.256392 273.335543 
L 317.39088 273.480097 
L 317.525369 271.94201 
L 317.659857 272.860854 
L 317.928833 270.342857 
L 318.332298 266.608321 
L 318.466786 267.262389 
L 318.601274 266.76003 
L 318.735763 268.215584 
L 318.870251 268.051947 
L 319.139227 269.167824 
L 319.273715 278.99889 
L 319.67718 280.116675 
L 319.811668 277.539043 
L 319.946157 269.588603 
L 320.349621 147.6537 
L 320.484109 131.509988 
L 320.887574 158.776206 
L 321.022062 163.44056 
L 321.291039 178.216501 
L 321.425527 180.016024 
L 321.560015 198.448261 
L 321.828991 253.951544 
L 321.96348 262.035565 
L 322.097968 262.821783 
L 322.635921 279.514608 
L 322.770409 279.86144 
L 322.904897 279.202601 
L 323.173874 268.775191 
L 323.44285 173.350344 
L 323.577338 173.711967 
L 323.711826 173.913292 
L 323.980803 153.744983 
L 324.249779 157.282487 
L 324.384268 160.047609 
L 324.787732 196.275188 
L 325.056709 250.774707 
L 325.325685 260.042349 
L 325.863638 277.856775 
L 325.998126 279.62338 
L 326.132614 279.68874 
L 326.267103 276.477076 
L 326.401591 267.481843 
L 326.670567 166.162745 
L 326.805055 172.115677 
L 326.939544 173.287371 
L 327.20852 160.066692 
L 327.343008 168.206531 
L 327.611985 164.454343 
L 327.746473 169.311912 
L 328.149937 223.983654 
L 328.418914 254.815048 
L 328.68789 267.620195 
L 328.822379 270.072356 
L 328.956867 280.11429 
L 329.225843 281.060805 
L 329.360331 280.213998 
L 329.629308 267.387383 
L 330.032772 178.412101 
L 330.301749 167.078251 
L 330.570725 158.273847 
L 330.839702 180.117641 
L 330.97419 181.329409 
L 331.108678 184.07354 
L 331.781119 259.923081 
L 332.050096 267.08301 
L 332.184584 277.852481 
L 332.319072 278.808061 
L 332.45356 278.143496 
L 332.588049 279.130563 
L 332.857025 266.528649 
L 333.26049 177.780932 
L 333.394978 179.689706 
L 333.663954 164.785909 
L 333.798442 165.977641 
L 333.932931 169.74271 
L 334.336395 187.598164 
L 334.73986 255.299755 
L 335.143325 271.020302 
L 335.277813 270.82184 
L 335.412301 270.919163 
L 335.546789 271.204453 
L 335.681277 271.099497 
L 335.950254 273.679991 
L 336.084742 271.586589 
L 336.622695 255.132302 
L 336.757183 255.926631 
L 336.891671 254.098483 
L 337.295136 260.452633 
L 337.698601 265.182346 
L 337.833089 264.703364 
L 338.102065 268.800476 
L 338.236553 268.568618 
L 338.371042 269.205512 
L 338.50553 266.871666 
L 339.043483 270.028465 
L 339.446947 273.022583 
L 339.581436 272.541215 
L 339.715924 271.37286 
L 339.850412 271.631911 
L 339.9849 270.852372 
L 340.119388 270.739783 
L 340.253877 270.266525 
L 340.388365 271.742593 
L 340.522853 269.755102 
L 340.657341 270.353353 
L 340.926318 270.035144 
L 341.060806 266.698965 
L 341.329782 271.577525 
L 341.464271 271.475908 
L 341.598759 272.004029 
L 341.733247 273.56931 
L 341.867735 281.385692 
L 342.136712 281.487309 
L 342.2712 282.128497 
L 342.540176 269.442141 
L 342.943641 154.350867 
L 343.212617 170.947799 
L 343.347106 170.214059 
L 343.75057 184.588303 
L 343.885058 186.261879 
L 344.019547 185.5997 
L 344.423011 253.43535 
L 345.22994 279.110049 
L 345.364429 280.193007 
L 345.498917 279.82566 
L 345.633405 275.612141 
L 345.767893 267.533845 
L 346.03687 183.344094 
L 346.171358 187.458858 
L 346.440334 173.904228 
L 346.574823 168.537143 
L 346.843799 175.410351 
L 347.112775 177.277619 
L 347.381752 211.730959 
L 347.650728 250.612025 
L 348.054193 268.559554 
L 348.188681 269.74079 
L 348.323169 278.702627 
L 348.457658 279.549911 
L 348.592146 281.419087 
L 348.726634 281.223964 
L 348.99561 268.327696 
L 349.264587 182.29453 
L 349.399075 183.767258 
L 349.668052 166.223811 
L 349.80254 162.115248 
L 350.206004 180.795564 
L 350.340493 181.974414 
L 351.012934 262.087566 
L 351.147422 264.406147 
L 351.550886 281.05508 
L 351.685375 280.343762 
L 351.954351 280.710155 
L 352.088839 279.314236 
L 352.223328 272.032177 
L 352.492304 178.221271 
L 352.626792 185.378815 
L 352.76128 174.021111 
L 352.895769 173.313133 
L 353.030257 165.043529 
L 353.164745 172.246872 
L 353.299233 170.172077 
L 353.56821 152.415854 
L 354.240651 268.700768 
L 354.375139 269.837159 
L 354.644115 275.693244 
L 354.913092 279.96258 
L 355.182068 281.003556 
L 355.316556 278.603873 
L 355.451045 269.486032 
L 355.854509 196.266124 
L 356.123486 157.975199 
L 356.257974 159.686941 
L 356.392462 168.287157 
L 356.52695 167.654556 
L 356.661439 178.248465 
L 356.795927 176.99853 
L 357.33388 264.395651 
L 357.602856 273.981502 
L 357.737344 275.943708 
L 357.871832 280.193961 
L 358.006321 279.616224 
L 358.140809 279.830431 
L 358.275297 280.569418 
L 358.409785 280.481637 
L 358.678762 279.223592 
L 359.082226 260.777521 
L 359.351203 254.878976 
L 359.485691 248.614992 
L 359.620179 259.335803 
L 359.754667 260.748419 
L 359.889156 260.916349 
L 360.427109 275.188499 
L 360.561597 275.867376 
L 360.965061 280.00981 
L 361.234038 279.970213 
L 361.368526 279.778907 
L 361.503014 281.08275 
L 361.771991 280.675806 
L 361.906479 282.004935 
L 362.040967 281.957227 
L 362.175455 282.332207 
L 362.309944 282.372759 
L 362.57892 278.964064 
L 362.713408 278.914925 
L 362.982385 277.781397 
L 363.116873 276.29054 
L 363.251361 276.188924 
L 363.385849 277.278561 
L 363.520337 276.425552 
L 363.654826 276.365918 
L 364.05829 279.149169 
L 364.192778 253.168665 
L 364.730731 259.419768 
L 364.86522 258.225651 
L 364.999708 246.155675 
L 365.134196 224.024683 
L 365.403172 135.776939 
L 365.672149 105.50897 
L 365.806637 99.592774 
L 366.075613 116.523181 
L 366.34459 113.381648 
L 366.479078 124.803757 
L 367.017031 251.084805 
L 367.151519 256.040174 
L 367.286007 254.306487 
L 367.554984 265.657512 
L 367.689472 266.523402 
L 367.958448 271.419136 
L 368.227425 247.876959 
L 368.496401 151.999368 
L 368.765378 100.160015 
L 369.034354 89.266981 
L 369.168842 93.985244 
L 369.303331 93.541088 
L 369.437819 96.907323 
L 369.572307 94.786729 
L 369.706795 110.883687 
L 370.244748 234.630995 
L 370.782701 278.816648 
L 370.917189 279.121498 
L 371.051677 280.012673 
L 371.186166 279.734062 
L 371.455142 264.921864 
L 371.858607 171.703007 
L 372.127583 203.671746 
L 372.262071 199.613276 
L 372.396559 201.039251 
L 372.665536 190.357083 
L 372.800024 194.149823 
L 373.203489 233.836667 
L 373.472465 256.082634 
L 373.87593 277.265203 
L 374.010418 286.279519 
L 374.144906 286.133534 
L 374.279394 287.339578 
L 374.413883 286.836741 
L 374.682859 270.2837 
L 375.220812 180.924374 
L 375.489788 177.296702 
L 375.624277 177.519495 
L 375.893253 184.052072 
L 376.027741 188.346216 
L 376.565694 255.899915 
L 376.83467 264.786375 
L 376.969159 267.621626 
L 377.103647 279.428734 
L 377.238135 278.336234 
L 377.507112 280.408167 
L 377.6416 278.443099 
L 377.776088 281.981081 
L 378.045064 279.834724 
L 378.179553 270.19735 
L 378.314041 269.571905 
L 378.448529 262.473996 
L 378.583017 263.474421 
L 378.717505 262.557484 
L 378.851994 267.067266 
L 378.986482 266.307287 
L 379.12097 267.215159 
L 379.255458 269.37392 
L 379.389947 269.257513 
L 379.927899 278.508935 
L 380.062388 278.302362 
L 380.196876 278.718848 
L 380.331364 268.812403 
L 380.465852 269.490326 
L 380.869317 272.393799 
L 381.138293 261.500288 
L 381.272782 234.411064 
L 381.541758 159.831972 
L 381.810734 139.672727 
L 381.945223 141.263769 
L 382.214199 147.749592 
L 382.348687 139.760985 
L 382.752152 189.61094 
L 383.021128 257.604023 
L 383.155616 265.531087 
L 383.290105 266.193266 
L 383.424593 267.480412 
L 383.559081 262.552236 
L 383.693569 261.840442 
L 383.962546 262.186798 
L 384.097034 263.377098 
L 384.231522 261.593317 
L 384.36601 262.98542 
L 385.038451 148.812036 
L 385.17294 151.255133 
L 385.307428 166.389356 
L 385.576404 160.745569 
L 386.248845 260.449771 
L 386.921286 278.949752 
L 387.055775 278.134909 
L 387.190263 279.412514 
L 387.324751 278.72171 
L 387.459239 278.882961 
L 387.593727 280.372387 
L 387.728216 279.79799 
L 387.862704 281.115191 
L 387.997192 279.945883 
L 388.13168 281.536448 
L 388.266169 280.552244 
L 388.400657 278.566661 
L 388.535145 278.655874 
L 388.669633 277.993218 
L 388.804121 279.132471 
L 388.93861 276.581079 
L 389.207586 278.72171 
L 389.476562 285.412675 
L 389.611051 284.354048 
L 389.745539 285.170799 
L 389.880027 285.118797 
L 390.014515 270.210708 
L 390.283492 270.45974 
L 390.41798 270.469759 
L 390.552468 270.339041 
L 390.686956 264.837899 
L 390.821445 265.023003 
L 390.955933 256.166122 
L 391.224909 199.976329 
L 391.359397 168.581511 
L 391.493886 164.589355 
L 391.762862 175.289174 
L 391.89735 174.745309 
L 392.031839 167.517636 
L 392.166327 171.219254 
L 392.300815 180.204469 
L 392.569791 240.397867 
L 392.70428 266.701827 
L 392.973256 271.547469 
L 393.107744 272.205355 
L 393.376721 265.144657 
L 393.645697 270.866207 
L 393.780185 267.473256 
L 393.914673 268.858679 
L 394.049162 261.441131 
L 394.721603 146.76014 
L 394.990579 145.687677 
L 395.125067 145.267375 
L 395.259556 156.659429 
L 395.394044 157.530089 
L 395.931997 245.730602 
L 396.200973 259.349638 
L 396.335461 255.610331 
L 396.46995 280.39958 
L 396.604438 280.783148 
L 397.007902 283.820202 
L 397.276879 270.754572 
L 397.545855 196.99557 
L 397.680343 191.804526 
L 397.94932 168.411196 
L 398.083808 154.935283 
L 398.218296 167.687474 
L 398.352785 162.917687 
L 398.487273 165.932319 
L 398.487273 165.932319 
" clip-path="url(#pa401149aa1)" style="fill: none; stroke: #1f77b4; stroke-width: 1.5; stroke-linecap: square"/>
   </g>
   <g id="line2d_13">
    <path d="M 73.832727 279.770174 
L 73.967215 279.790159 
L 74.236192 278.913034 
L 74.37068 277.010236 
L 74.505168 279.714452 
L 74.639657 278.286452 
L 74.774145 279.817803 
L 74.908633 264.903777 
L 75.043121 212.487664 
L 75.177609 240.718011 
L 75.446586 250.468149 
L 75.581074 247.3008 
L 75.715562 248.683854 
L 75.85005 246.905691 
L 75.984539 249.17655 
L 76.119027 248.698359 
L 76.388003 243.279922 
L 76.522492 286.003289 
L 77.060444 273.007027 
L 77.194933 256.886246 
L 77.329421 266.993131 
L 77.463909 265.483241 
L 77.598397 266.420053 
L 77.732885 269.014259 
L 77.867374 257.509622 
L 78.001862 235.08996 
L 78.270838 126.705265 
L 78.405327 99.355161 
L 78.674303 109.323718 
L 78.808791 101.703675 
L 78.943279 110.82162 
L 79.077768 105.199926 
L 79.481232 168.985125 
L 79.61572 184.225233 
L 79.884697 248.397651 
L 80.153673 266.086096 
L 80.288161 267.58972 
L 80.42265 258.021444 
L 80.557138 276.268231 
L 80.691626 269.343673 
L 80.826114 269.107944 
L 80.960603 269.920255 
L 81.095091 264.649468 
L 81.229579 246.917701 
L 81.498555 144.638955 
L 81.633044 167.765658 
L 81.90202 151.117406 
L 82.036508 199.90846 
L 82.305485 206.421909 
L 82.439973 209.862052 
L 82.574461 197.905914 
L 82.708949 226.722219 
L 82.977926 202.558058 
L 83.112414 215.594116 
L 83.246902 202.280107 
L 83.38139 202.230116 
L 83.784855 271.850664 
L 84.053831 277.796794 
L 84.18832 276.674305 
L 84.322808 202.229834 
L 84.457296 230.531235 
L 84.591784 202.229834 
L 84.860761 202.229834 
L 84.995249 202.703274 
L 85.264225 163.824563 
L 85.533202 183.844141 
L 85.936666 215.243177 
L 86.205643 261.30236 
L 86.340131 260.303707 
L 86.474619 269.233399 
L 86.609107 266.663864 
L 86.743596 272.06972 
L 87.012572 291.761999 
L 87.14706 289.769171 
L 87.281549 286.057278 
L 87.416037 288.287824 
L 87.685013 285.630971 
L 87.95399 238.660471 
L 88.088478 257.866182 
L 88.222966 251.999566 
L 88.357454 259.588823 
L 88.626431 249.125268 
L 88.760919 255.255368 
L 88.895407 240.349266 
L 89.029895 253.65718 
L 89.164384 251.383688 
L 89.298872 257.1244 
L 89.43336 280.94954 
L 89.567848 280.828746 
L 89.836825 274.99362 
L 89.971313 276.155051 
L 90.105801 244.108447 
L 90.374777 262.287273 
L 90.509266 262.727062 
L 90.643754 267.674806 
L 90.778242 264.144694 
L 90.91273 267.84756 
L 91.181707 239.718778 
L 91.316195 248.638567 
L 91.450683 239.375618 
L 91.585171 254.716161 
L 91.71966 247.338907 
L 91.854148 251.790729 
L 91.988636 250.2456 
L 92.123124 251.527691 
L 92.257612 255.729549 
L 92.392101 253.298885 
L 92.930053 268.297911 
L 93.064542 267.166609 
L 93.19903 263.673771 
L 93.333518 282.341766 
L 93.602495 274.616512 
L 93.736983 275.670218 
L 93.871471 273.217756 
L 94.140447 261.335646 
L 94.409424 167.941075 
L 94.543912 178.549565 
L 94.812888 157.44871 
L 94.947377 155.259249 
L 95.216353 174.139789 
L 95.350841 170.828032 
L 95.48533 160.91357 
L 95.888794 256.9114 
L 96.157771 268.382432 
L 96.292259 269.340472 
L 96.426747 271.419246 
L 96.561235 271.663117 
L 96.695723 268.974461 
L 96.830212 268.995723 
L 96.9647 271.670009 
L 97.099188 270.396724 
L 97.233676 267.933708 
L 97.502653 221.60281 
L 97.637141 166.039916 
L 97.771629 184.518947 
L 97.906117 172.470889 
L 98.040606 190.240999 
L 98.175094 181.148055 
L 98.309582 181.463765 
L 98.44407 180.496023 
L 98.847535 211.132471 
L 99.385488 271.280793 
L 99.519976 275.747014 
L 99.654464 275.038614 
L 99.788952 288.104789 
L 100.057929 277.590928 
L 100.326905 279.376378 
L 100.461393 278.971746 
L 100.73037 277.18839 
L 100.864858 278.327549 
L 100.999346 276.101555 
L 101.133834 281.406743 
L 101.402811 277.188156 
L 101.537299 263.870308 
L 101.671787 275.58109 
L 101.806276 261.160889 
L 101.940764 259.9376 
L 102.075252 265.734694 
L 102.20974 265.564214 
L 102.344228 267.250739 
L 102.478717 270.356233 
L 102.613205 279.246657 
L 102.747693 271.295087 
L 102.882181 282.314725 
L 103.016669 251.523638 
L 103.285646 271.680202 
L 103.420134 269.422527 
L 103.823599 256.04178 
L 103.958087 223.992702 
L 104.092575 160.836239 
L 104.227063 169.919254 
L 104.361552 151.814409 
L 104.49604 170.230808 
L 104.765016 141.668032 
L 105.033993 164.057306 
L 105.302969 190.650023 
L 105.706434 263.024277 
L 105.97541 258.184615 
L 106.109898 268.820109 
L 106.244387 289.344448 
L 106.513363 282.033068 
L 106.647851 279.648648 
L 106.782339 283.035958 
L 106.916828 280.989837 
L 107.051316 282.936697 
L 107.320292 219.278615 
L 107.589269 259.607426 
L 107.723757 252.012045 
L 107.858245 251.52632 
L 107.992733 248.921801 
L 108.127222 249.447966 
L 108.26171 247.767733 
L 108.396198 247.897396 
L 108.530686 244.116359 
L 108.665174 249.415418 
L 108.934151 284.692754 
L 109.068639 281.252924 
L 109.203127 280.809104 
L 109.472104 266.276748 
L 109.606592 271.469534 
L 109.74108 271.756798 
L 109.875568 273.54811 
L 110.010056 273.131967 
L 110.279033 274.229196 
L 110.413521 270.482168 
L 110.548009 269.83972 
L 110.682498 271.872375 
L 111.085962 269.846007 
L 111.22045 272.082189 
L 111.354939 270.376186 
L 111.489427 265.683685 
L 111.623915 266.094915 
L 111.758403 262.640268 
L 111.892891 264.758242 
L 112.161868 270.379936 
L 112.565333 270.35117 
L 112.699821 249.347653 
L 112.968797 264.459204 
L 113.103285 265.0702 
L 113.237774 267.026283 
L 113.372262 266.005165 
L 113.50675 269.818305 
L 113.641238 267.220805 
L 113.775726 267.747831 
L 113.910215 263.839184 
L 114.044703 266.828534 
L 114.179191 263.66905 
L 114.313679 255.88293 
L 114.448168 257.49617 
L 114.582656 256.716808 
L 114.717144 255.20459 
L 115.120609 244.440622 
L 115.389585 259.621465 
L 115.524073 260.416573 
L 115.79305 259.663865 
L 115.927538 261.492591 
L 116.062026 261.163813 
L 116.196514 257.494715 
L 116.331002 269.1514 
L 116.465491 263.927651 
L 116.599979 264.671404 
L 116.734467 245.074544 
L 117.003444 125.30451 
L 117.137932 87.11195 
L 117.27242 85.377359 
L 117.541396 67.966271 
L 117.675885 73.656675 
L 117.810373 84.669265 
L 118.75179 243.46058 
L 118.886279 252.645479 
L 119.020767 252.013964 
L 119.155255 253.540693 
L 119.289743 256.538006 
L 119.424231 254.330988 
L 119.55872 255.404099 
L 119.693208 258.610533 
L 119.827696 257.007632 
L 119.962184 238.85795 
L 120.231161 122.847526 
L 120.365649 97.659487 
L 120.500137 99.871468 
L 120.769114 81.223471 
L 120.903602 83.233171 
L 121.03809 82.777419 
L 121.172578 94.379237 
L 121.307066 122.059022 
L 121.441555 124.8493 
L 121.845019 224.077122 
L 121.979507 243.049256 
L 122.113996 242.147384 
L 122.248484 243.919941 
L 122.382972 248.17567 
L 122.51746 263.262371 
L 122.786437 256.407516 
L 122.920925 257.111674 
L 123.055413 253.056544 
L 123.189901 239.25438 
L 123.593366 93.029147 
L 123.727854 89.73505 
L 123.996831 76.602743 
L 124.400295 122.626395 
L 124.534783 125.836527 
L 124.669272 133.365404 
L 125.072736 235.439387 
L 125.207225 256.145226 
L 125.341713 257.310979 
L 125.476201 256.665975 
L 125.610689 254.306381 
L 125.745177 270.402962 
L 126.148642 266.275791 
L 126.28313 248.081384 
L 126.417618 246.344272 
L 126.686595 132.566232 
L 126.955571 95.572314 
L 127.09006 81.489981 
L 127.224548 86.731947 
L 127.896989 152.41432 
L 128.434942 255.647785 
L 128.56943 256.430126 
L 128.703918 253.539456 
L 128.838406 263.241447 
L 128.972894 258.618248 
L 129.241871 265.32605 
L 129.376359 264.363468 
L 129.645336 231.674968 
L 129.914312 122.391552 
L 130.0488 86.593949 
L 130.183288 90.121346 
L 130.317777 83.487581 
L 130.452265 95.218209 
L 130.586753 139.095625 
L 130.855729 122.549166 
L 131.124706 161.114885 
L 131.528171 250.043774 
L 131.797147 261.967095 
L 132.200612 255.285135 
L 132.469588 271.723941 
L 132.738564 265.533084 
L 132.873053 264.691314 
L 133.007541 248.474957 
L 133.142029 247.880177 
L 133.276517 239.381346 
L 133.411005 239.955531 
L 133.679982 235.655379 
L 133.81447 238.278732 
L 133.948958 238.194837 
L 134.083447 231.08081 
L 134.352423 243.20855 
L 134.621399 248.945938 
L 134.755888 254.543083 
L 134.890376 254.071386 
L 135.024864 251.724787 
L 135.562817 261.881259 
L 135.831793 265.632691 
L 135.966282 272.434737 
L 136.10077 269.761882 
L 136.235258 262.967787 
L 136.369746 266.183765 
L 136.504234 266.016127 
L 136.638723 260.059496 
L 136.773211 263.803689 
L 136.907699 261.176556 
L 137.042187 261.002411 
L 137.311164 243.736721 
L 137.58014 251.839875 
L 137.714628 247.368281 
L 137.983605 257.395038 
L 138.118093 258.231998 
L 138.252581 254.929788 
L 138.387069 258.319437 
L 138.521558 264.97238 
L 138.656046 259.315281 
L 138.790534 259.911711 
L 138.925022 265.246696 
L 139.05951 265.962236 
L 139.328487 239.138338 
L 139.597463 123.084564 
L 139.731951 86.634874 
L 139.86644 90.163375 
L 140.135416 79.35488 
L 140.404393 100.954545 
L 140.673369 150.099749 
L 140.807857 150.498125 
L 140.942345 170.679537 
L 141.076834 235.515745 
L 141.480298 259.841218 
L 141.749275 262.31423 
L 141.883763 265.877032 
L 142.018251 263.369758 
L 142.152739 264.522558 
L 142.287228 262.283147 
L 142.421716 234.602692 
L 142.556204 230.162219 
L 142.82518 120.305629 
L 142.959669 88.143304 
L 143.094157 99.567577 
L 143.363133 84.870797 
L 143.497621 102.852812 
L 143.63211 88.958859 
L 143.766598 104.656905 
L 143.901086 144.180398 
L 144.035574 139.01902 
L 144.304551 235.737195 
L 144.439039 234.784998 
L 144.708015 263.502675 
L 144.842504 265.845055 
L 145.11148 261.717155 
L 145.245968 262.8942 
L 145.380456 265.700693 
L 145.514945 256.305861 
L 145.649433 226.429235 
L 145.783921 233.847068 
L 146.187386 92.517865 
L 146.321874 93.994998 
L 146.725339 124.806274 
L 146.859827 115.66548 
L 146.994315 131.055646 
L 147.128803 126.239808 
L 147.263291 141.995302 
L 147.532268 242.599096 
L 147.935732 264.501598 
L 148.070221 262.042879 
L 148.204709 265.020161 
L 148.339197 264.86159 
L 148.473685 263.035913 
L 148.608174 263.290983 
L 148.742662 261.349453 
L 148.87715 261.316329 
L 149.011638 227.547638 
L 149.280615 126.46136 
L 149.415103 102.474797 
L 149.549591 117.527321 
L 149.684079 108.55618 
L 149.818567 107.05034 
L 150.222032 148.677917 
L 150.35652 140.180839 
L 150.491009 153.025216 
L 150.759985 245.107919 
L 150.894473 247.159416 
L 151.16345 265.780241 
L 151.297938 261.696134 
L 151.566914 263.545124 
L 151.701402 266.299224 
L 151.835891 265.978704 
L 151.970379 266.964678 
L 152.104867 263.371733 
L 152.64282 97.451512 
L 152.777308 118.121731 
L 153.046285 98.325259 
L 153.180773 119.705192 
L 153.315261 116.667433 
L 153.584237 173.994806 
L 153.853214 218.608743 
L 154.12219 260.232624 
L 154.256678 270.838134 
L 154.391167 269.470221 
L 154.525655 272.084006 
L 154.660143 269.47883 
L 154.794631 270.663231 
L 154.92912 270.161032 
L 155.198096 274.359622 
L 155.332584 276.037244 
L 155.467072 273.27887 
L 155.736049 244.2766 
L 155.870537 256.026804 
L 156.005025 254.74127 
L 156.139513 262.229028 
L 156.40849 256.852759 
L 156.542978 256.176572 
L 156.677466 257.628204 
L 156.811955 255.95756 
L 156.946443 260.654246 
L 157.080931 260.768089 
L 157.484396 268.458923 
L 157.618884 264.572921 
L 157.753372 266.183037 
L 158.022348 270.377825 
L 158.156837 270.015106 
L 158.291325 271.398602 
L 158.694789 278.574975 
L 158.829278 272.456935 
L 158.963766 274.136109 
L 159.098254 273.199289 
L 159.367231 269.60194 
L 159.501719 271.958719 
L 159.636207 269.262331 
L 159.905183 254.38385 
L 160.039672 259.419428 
L 160.17416 252.228799 
L 160.577624 268.730287 
L 160.846601 259.817523 
L 161.115577 264.451216 
L 161.250066 269.415582 
L 161.519042 267.683741 
L 161.65353 268.119419 
L 161.922507 239.647768 
L 162.325971 98.344847 
L 162.460459 89.508186 
L 162.594948 95.712801 
L 162.863924 84.794213 
L 162.998412 118.196109 
L 163.132901 119.296396 
L 163.267389 129.628662 
L 163.536365 183.0961 
L 163.670853 236.72339 
L 164.208806 261.426339 
L 164.343294 259.270377 
L 164.477783 273.950482 
L 164.612271 270.413819 
L 164.746759 272.022814 
L 165.150224 237.801541 
L 165.553688 101.843066 
L 165.688177 121.544214 
L 165.957153 104.391258 
L 166.091641 121.096388 
L 166.360618 105.954084 
L 166.495106 107.308525 
L 166.629594 118.960707 
L 166.89857 234.802927 
L 167.033059 240.049091 
L 167.167547 239.669729 
L 167.436523 253.462404 
L 167.571012 256.0618 
L 167.839988 264.574635 
L 167.974476 264.303448 
L 168.108964 264.518994 
L 168.243453 252.086726 
L 168.377941 229.21087 
L 168.781405 92.709735 
L 168.915894 112.913751 
L 169.18487 99.933298 
L 169.319358 113.651644 
L 169.453847 88.304601 
L 169.588335 101.427747 
L 169.857311 150.148061 
L 169.991799 173.660251 
L 170.126288 237.729606 
L 170.529752 259.786494 
L 170.66424 260.687166 
L 170.798729 263.123321 
L 170.933217 260.094248 
L 171.202193 262.327772 
L 171.336681 266.497076 
L 171.47117 237.473474 
L 171.605658 233.097284 
L 172.009123 95.106666 
L 172.143611 109.166107 
L 172.278099 111.020237 
L 172.412587 94.195391 
L 172.547075 96.654491 
L 172.95054 141.035759 
L 173.085028 148.885408 
L 173.488493 247.686007 
L 174.026446 284.41633 
L 174.160934 274.268445 
L 174.295422 273.213212 
L 174.42991 273.290735 
L 174.564399 274.882093 
L 174.967863 220.84893 
L 175.102351 164.647188 
L 175.23684 161.598598 
L 175.505816 137.893467 
L 175.640304 140.523501 
L 175.774792 154.381446 
L 175.909281 151.888721 
L 176.043769 159.334717 
L 176.178257 173.750692 
L 176.312745 171.503983 
L 176.447234 193.477124 
L 176.581722 249.631495 
L 176.985186 268.855939 
L 177.119675 262.772221 
L 177.388651 267.252201 
L 177.523139 265.50313 
L 177.792116 273.197151 
L 177.926604 272.836783 
L 178.061092 273.446742 
L 178.19558 257.136041 
L 178.330069 254.838693 
L 178.464557 259.122295 
L 178.599045 249.015138 
L 178.733533 254.0327 
L 178.868021 253.548806 
L 179.00251 258.984276 
L 179.271486 249.265398 
L 179.405974 253.445253 
L 179.540462 250.368015 
L 179.674951 251.145104 
L 179.943927 262.994047 
L 180.078415 272.305948 
L 180.212904 263.635824 
L 180.347392 263.20948 
L 180.48188 277.940916 
L 180.750856 273.346633 
L 180.885345 273.010164 
L 181.019833 274.258 
L 181.154321 273.774359 
L 181.557786 257.412928 
L 181.692274 264.447618 
L 181.826762 262.435591 
L 181.96125 267.063488 
L 182.095738 256.408828 
L 182.364715 266.026212 
L 182.633691 268.618192 
L 182.76818 273.06207 
L 182.902668 269.59616 
L 183.037156 269.375025 
L 183.171644 277.195247 
L 183.306132 276.58322 
L 183.440621 277.992756 
L 183.709597 270.51193 
L 183.844085 289.137675 
L 184.113062 286.199517 
L 184.24755 279.972573 
L 184.382038 266.646529 
L 184.516526 264.612935 
L 184.785503 183.53671 
L 184.919991 187.619406 
L 185.054479 174.305578 
L 185.188967 185.529087 
L 185.323456 178.615154 
L 185.592432 186.07678 
L 185.72692 195.530044 
L 186.264873 257.340375 
L 187.071802 292.621145 
L 187.340779 284.766384 
L 187.475267 286.454161 
L 187.609755 280.12846 
L 187.744243 266.776183 
L 188.01322 186.477787 
L 188.147708 192.960135 
L 188.282196 179.954822 
L 188.416684 184.207809 
L 188.551173 184.553225 
L 188.685661 187.449864 
L 188.820149 197.295886 
L 188.954637 198.588048 
L 189.358102 243.033291 
L 189.627078 269.264412 
L 189.896055 271.18125 
L 190.030543 275.567914 
L 190.165031 266.332136 
L 190.299519 269.978552 
L 190.434008 269.725029 
L 190.568496 267.285942 
L 190.971961 272.37345 
L 191.106449 270.072746 
L 191.240937 261.955432 
L 191.509913 271.058413 
L 191.644402 264.393554 
L 191.77889 269.020788 
L 192.047866 264.300298 
L 192.182354 255.836485 
L 192.316843 256.577788 
L 192.451331 260.305699 
L 192.585819 258.557608 
L 192.720307 261.163112 
L 192.854796 270.663412 
L 192.989284 267.741479 
L 193.123772 267.469579 
L 193.392748 263.114593 
L 193.527237 262.538004 
L 193.796213 267.714974 
L 193.930701 267.828353 
L 194.199678 254.316563 
L 194.468654 174.444706 
L 195.006607 143.426959 
L 195.141095 146.358594 
L 195.275583 155.157499 
L 195.410072 142.110361 
L 195.679048 176.674159 
L 195.948024 240.802557 
L 196.082513 261.208968 
L 196.217001 261.918316 
L 196.351489 263.55688 
L 196.485977 263.551595 
L 196.620465 277.061043 
L 196.754954 269.474417 
L 197.02393 268.545554 
L 197.158418 270.661274 
L 197.292907 266.465285 
L 197.427395 254.971541 
L 197.696371 178.355985 
L 197.830859 198.656444 
L 197.965348 191.026694 
L 198.099836 198.547053 
L 198.234324 191.292862 
L 198.368812 199.275483 
L 198.637789 187.196907 
L 199.31023 275.007613 
L 199.444718 275.155237 
L 199.579206 277.308935 
L 199.713694 277.602986 
L 199.848183 282.145161 
L 199.982671 277.006187 
L 200.251647 278.149785 
L 200.386135 274.719235 
L 200.520624 264.53172 
L 200.655112 267.784372 
L 200.7896 242.074282 
L 200.924088 165.282689 
L 201.058576 206.093303 
L 201.193065 189.532028 
L 201.327553 203.536473 
L 201.462041 193.537428 
L 201.596529 201.238947 
L 201.731018 187.609279 
L 201.865506 187.144454 
L 202.26897 230.025169 
L 202.537947 272.792645 
L 202.672435 270.551419 
L 202.941411 274.025321 
L 203.0759 259.049318 
L 203.210388 259.028897 
L 203.344876 269.393908 
L 203.479364 267.694449 
L 203.748341 256.258899 
L 203.882829 253.402279 
L 204.017317 222.965274 
L 204.151805 166.676358 
L 204.286294 166.706911 
L 204.420782 157.776198 
L 204.689758 160.080951 
L 204.824246 165.076837 
L 204.958735 161.629019 
L 205.093223 188.787796 
L 205.227711 192.103227 
L 205.765664 263.788598 
L 205.900152 265.512395 
L 206.03464 262.837274 
L 206.169129 266.205592 
L 206.303617 288.652785 
L 206.438105 279.881745 
L 206.707081 282.139537 
L 206.84157 282.389591 
L 206.976058 281.771711 
L 207.379522 259.60744 
L 207.514011 260.719047 
L 207.782987 270.372 
L 207.917475 275.026947 
L 208.051964 275.089269 
L 208.186452 271.368204 
L 208.455428 259.435463 
L 208.589916 265.292647 
L 208.724405 265.425817 
L 208.858893 275.924734 
L 208.993381 276.199974 
L 209.127869 280.796173 
L 209.396846 276.489998 
L 209.531334 264.90363 
L 209.665822 271.515665 
L 209.80031 270.77957 
L 209.934799 271.501357 
L 210.069287 273.322015 
L 210.203775 254.198874 
L 210.338263 256.022958 
L 210.60724 160.022546 
L 210.741728 149.308757 
L 211.010704 122.227953 
L 211.145192 113.79552 
L 211.279681 132.772867 
L 211.414169 136.051325 
L 211.683145 162.178332 
L 212.221098 259.59658 
L 212.490075 261.915524 
L 212.759051 271.778651 
L 212.893539 274.756458 
L 213.028027 270.483055 
L 213.162516 270.019159 
L 213.297004 274.442986 
L 213.56598 244.442021 
L 213.834957 130.557035 
L 213.969445 116.301146 
L 214.103933 139.443381 
L 214.238421 137.688895 
L 214.37291 139.651588 
L 215.045351 195.433439 
L 215.448815 268.873028 
L 215.583303 263.052148 
L 215.717792 269.277686 
L 215.85228 264.924791 
L 216.121256 268.869543 
L 216.255745 267.731327 
L 216.390233 268.89076 
L 216.524721 272.583012 
L 216.793697 250.564361 
L 217.062674 142.535207 
L 217.197162 131.239253 
L 217.33165 146.997599 
L 217.466138 149.575893 
L 217.600627 159.327327 
L 217.735115 158.823606 
L 217.869603 145.294946 
L 218.004091 160.553087 
L 218.273068 212.369857 
L 218.407556 215.730988 
L 218.542044 257.598802 
L 218.945509 275.669127 
L 219.079997 258.257492 
L 219.348973 269.601499 
L 219.61795 275.235004 
L 219.752438 276.376687 
L 220.021414 250.818946 
L 220.290391 140.359754 
L 220.559367 157.418795 
L 220.828344 151.23883 
L 220.962832 166.313519 
L 221.09732 159.995928 
L 221.366297 202.21243 
L 221.500785 206.216653 
L 221.635273 215.143777 
L 221.904249 267.188137 
L 222.038738 268.41576 
L 222.173226 275.938261 
L 222.307714 269.999985 
L 222.442202 270.661759 
L 222.711179 278.088872 
L 222.845667 277.649295 
L 222.980155 279.114333 
L 223.114643 274.480307 
L 223.249132 278.607665 
L 223.518108 246.083791 
L 223.652596 264.407086 
L 223.787084 264.763469 
L 224.056061 253.493287 
L 224.190549 254.635022 
L 224.325037 254.623119 
L 224.459525 257.92535 
L 224.86299 250.058622 
L 225.131967 260.524922 
L 225.266455 261.073828 
L 225.400943 256.564084 
L 225.535431 258.999509 
L 225.669919 258.966221 
L 225.804408 256.226237 
L 225.938896 263.897919 
L 226.073384 265.190931 
L 226.207872 269.72307 
L 226.34236 269.186734 
L 226.476849 270.569783 
L 226.880313 264.266658 
L 227.014802 271.287166 
L 227.14929 271.690912 
L 227.283778 271.357838 
L 227.418266 265.195392 
L 227.552754 268.035766 
L 227.687243 266.903174 
L 227.821731 268.307568 
L 227.956219 266.439742 
L 228.090707 267.127067 
L 228.225195 278.574105 
L 228.359684 274.704505 
L 228.494172 275.80409 
L 228.62866 273.068105 
L 228.763148 275.484712 
L 228.897637 274.638174 
L 229.032125 270.195808 
L 229.301101 273.56502 
L 229.435589 273.409557 
L 229.570078 261.13677 
L 229.704566 237.105464 
L 229.973542 131.533408 
L 230.242519 101.412453 
L 230.377007 100.28733 
L 230.511495 79.324109 
L 230.645983 127.212654 
L 230.780471 127.499655 
L 230.91496 125.647798 
L 231.587401 254.984404 
L 231.721889 258.369392 
L 231.990865 268.306458 
L 232.125354 270.051678 
L 232.259842 269.108416 
L 232.528818 273.91706 
L 232.663306 270.359931 
L 232.932283 241.364518 
L 233.201259 133.233598 
L 233.335748 114.811338 
L 233.8737 144.507935 
L 234.008189 130.891166 
L 234.142677 143.797575 
L 234.411653 201.742499 
L 234.546141 210.297164 
L 234.815118 266.942147 
L 234.949606 267.851409 
L 235.084094 265.997197 
L 235.218583 270.609454 
L 235.353071 269.275984 
L 235.622047 279.211136 
L 235.891024 273.928749 
L 236.16 253.09461 
L 236.428976 138.109361 
L 236.563465 116.143855 
L 236.697953 126.685815 
L 236.832441 124.772714 
L 236.966929 116.554826 
L 237.504882 168.543488 
L 237.908347 256.4493 
L 238.177323 268.357112 
L 238.311811 269.11521 
L 238.4463 271.009605 
L 238.580788 270.435471 
L 238.984252 282.177151 
L 239.253229 270.102169 
L 239.387717 244.914316 
L 239.656694 140.336123 
L 239.92567 122.857558 
L 240.060158 134.328673 
L 240.194646 135.522366 
L 240.329135 144.160196 
L 240.463623 167.346108 
L 240.598111 170.870525 
L 240.867087 198.276208 
L 241.136064 253.870298 
L 241.270552 256.744473 
L 241.40504 262.180793 
L 241.539529 261.280196 
L 241.674017 263.108884 
L 241.808505 260.97573 
L 241.942993 279.218113 
L 242.077481 275.688305 
L 242.21197 284.492019 
L 242.346458 278.472522 
L 242.615434 246.630529 
L 242.884411 140.827623 
L 243.018899 134.612313 
L 243.153387 159.119357 
L 243.287875 155.545751 
L 243.422363 144.134928 
L 243.556852 155.627176 
L 243.69134 153.205391 
L 243.960316 181.196952 
L 244.229293 237.410006 
L 244.498269 260.677401 
L 244.632757 268.675379 
L 244.767246 269.723355 
L 244.901734 267.135925 
L 245.17071 275.453716 
L 245.305198 273.383248 
L 245.439687 273.80652 
L 245.708663 270.00935 
L 245.843151 247.515114 
L 245.97764 266.754193 
L 246.112128 261.562426 
L 246.246616 262.664296 
L 246.515592 257.993147 
L 246.650081 260.050939 
L 247.053545 270.420081 
L 247.188033 267.8318 
L 247.322522 272.889791 
L 247.45701 272.432281 
L 247.591498 273.441636 
L 247.725986 272.635714 
L 247.860475 277.350794 
L 247.994963 274.155268 
L 248.263939 275.580133 
L 248.398427 273.951963 
L 248.532916 274.462276 
L 248.667404 272.399716 
L 248.801892 275.008621 
L 248.93638 273.008063 
L 249.070868 273.391062 
L 249.205357 272.107827 
L 249.474333 277.701855 
L 249.608821 277.730273 
L 249.743309 276.85157 
L 249.877798 277.31383 
L 250.146774 275.785391 
L 250.281262 271.70905 
L 250.550239 272.933452 
L 250.684727 272.0191 
L 250.819215 272.958772 
L 250.953703 272.989762 
L 251.088192 274.434588 
L 251.22268 271.039531 
L 251.357168 272.789647 
L 251.491656 272.116918 
L 251.626144 288.280872 
L 251.760633 281.119805 
L 251.895121 281.057161 
L 252.029609 279.63673 
L 252.298586 260.672947 
L 252.567562 144.421995 
L 252.70205 128.317275 
L 252.836538 139.809957 
L 252.971027 161.005084 
L 253.105515 154.678709 
L 253.643468 182.556534 
L 254.046932 261.385975 
L 254.181421 265.178972 
L 254.450397 281.382819 
L 254.584885 281.812822 
L 254.719373 280.928882 
L 254.853862 285.741167 
L 254.98835 282.222838 
L 255.122838 284.319585 
L 255.257326 283.72388 
L 255.526303 250.419966 
L 255.795279 149.004359 
L 256.064255 170.627507 
L 256.333232 159.20532 
L 256.736697 169.930707 
L 257.005673 220.61697 
L 257.140161 227.94978 
L 257.409138 255.516143 
L 257.543626 266.982751 
L 257.678114 263.464194 
L 257.812602 266.466694 
L 257.94709 265.189165 
L 258.081579 283.271998 
L 258.216067 282.50122 
L 258.485043 276.943227 
L 258.75402 253.272407 
L 259.022996 148.792342 
L 259.157484 170.602148 
L 259.426461 167.414993 
L 259.560949 150.796564 
L 259.829925 176.619253 
L 259.964414 155.528616 
L 260.636855 256.307196 
L 260.905831 266.328191 
L 261.174808 262.539153 
L 261.309296 271.687507 
L 261.443784 269.779099 
L 261.578272 273.917844 
L 261.847249 265.635105 
L 261.981737 241.379266 
L 262.250713 144.892223 
L 262.385201 162.502955 
L 262.51969 164.378991 
L 262.654178 148.110003 
L 262.788666 150.571766 
L 262.923154 158.570521 
L 263.057643 151.052945 
L 263.461107 205.379879 
L 263.595595 216.088706 
L 263.864572 248.771665 
L 264.133548 258.434396 
L 264.268036 258.787887 
L 264.402525 269.211786 
L 264.537013 261.372278 
L 264.671501 265.818057 
L 265.074966 260.938377 
L 265.209454 245.939741 
L 265.747407 110.224912 
L 265.881895 111.570333 
L 266.016383 110.505721 
L 266.150871 117.942969 
L 266.419848 112.708285 
L 266.688824 157.83036 
L 267.226777 254.47613 
L 267.361265 256.052499 
L 267.495754 252.568142 
L 267.630242 276.91423 
L 267.76473 266.536527 
L 267.899218 268.212532 
L 268.033706 266.199761 
L 268.302683 275.617515 
L 268.437171 274.492481 
L 268.571659 266.686859 
L 268.840636 276.049729 
L 268.975124 271.792478 
L 269.378589 270.66555 
L 269.782053 250.722308 
L 269.916541 253.131056 
L 270.05103 250.814686 
L 270.320006 255.412064 
L 270.454494 257.057908 
L 270.588982 262.234405 
L 270.723471 262.538095 
L 270.857959 286.1969 
L 271.126935 273.386695 
L 271.261424 274.568732 
L 271.395912 274.620759 
L 271.5304 274.287776 
L 271.664888 275.799116 
L 271.799376 275.346949 
L 271.933865 277.791857 
L 272.068353 275.978541 
L 272.202841 278.645417 
L 272.337329 276.708536 
L 272.471817 278.372117 
L 272.740794 272.466127 
L 272.875282 274.832732 
L 273.00977 271.665269 
L 273.144258 272.250725 
L 273.278747 268.113868 
L 273.413235 269.655397 
L 273.682211 275.014821 
L 273.8167 274.204247 
L 273.951188 274.90563 
L 274.085676 272.699364 
L 274.220164 292.135611 
L 274.623629 282.969547 
L 274.892605 259.267954 
L 275.161582 192.328076 
L 275.430558 157.877532 
L 275.565046 152.493666 
L 275.699535 155.461597 
L 275.834023 154.824852 
L 275.968511 177.415512 
L 276.102999 176.732815 
L 276.640952 251.605044 
L 276.909928 271.35954 
L 277.044417 271.488799 
L 277.178905 277.609353 
L 277.313393 271.317163 
L 277.447881 284.527735 
L 277.58237 280.139662 
L 277.716858 285.239198 
L 277.851346 281.699639 
L 277.985834 273.182056 
L 278.120322 255.941535 
L 278.389299 194.344444 
L 278.523787 196.356861 
L 278.658275 179.944223 
L 278.792763 185.8693 
L 278.927252 171.121324 
L 279.06174 188.051724 
L 279.196228 184.642004 
L 279.465204 208.277708 
L 279.868669 261.428108 
L 280.137646 274.507664 
L 280.406622 276.330953 
L 280.54111 258.402138 
L 280.810087 265.154722 
L 280.944575 266.657464 
L 281.079063 264.999236 
L 281.213551 252.618823 
L 281.348039 254.192765 
L 281.751504 132.704937 
L 281.885992 123.55713 
L 282.020481 126.543576 
L 282.154969 143.344557 
L 282.289457 143.559973 
L 282.423945 117.424135 
L 282.692922 156.185771 
L 283.230874 262.298272 
L 283.634339 263.84034 
L 283.768827 259.85824 
L 284.037804 260.204676 
L 284.172292 262.607454 
L 284.30678 261.714397 
L 284.575757 252.091021 
L 284.979221 149.604171 
L 285.113709 154.171073 
L 285.248198 141.101148 
L 285.382686 140.078574 
L 285.517174 142.411924 
L 285.651662 157.640552 
L 285.78615 151.476224 
L 285.920639 153.533848 
L 286.324103 249.372732 
L 286.458592 259.092818 
L 286.59308 260.408616 
L 286.727568 264.396513 
L 286.862056 259.7171 
L 286.996544 291.134135 
L 287.265521 275.252476 
L 287.400009 275.312297 
L 287.803474 268.878395 
L 287.937962 272.377776 
L 288.07245 272.750944 
L 288.206938 275.107257 
L 288.341427 271.46669 
L 288.475915 271.837313 
L 288.610403 268.744952 
L 288.744891 270.389963 
L 288.879379 268.081652 
L 289.013868 271.526854 
L 289.282844 263.962456 
L 289.417332 275.468285 
L 289.686309 276.55838 
L 289.955285 274.066171 
L 290.089773 275.727627 
L 290.224262 272.28085 
L 290.35875 276.281297 
L 290.493238 273.642048 
L 290.627726 276.087629 
L 290.762214 272.324125 
L 290.896703 262.421259 
L 291.031191 262.422506 
L 291.165679 242.125508 
L 291.300167 173.459612 
L 291.434655 175.148219 
L 291.569144 173.319778 
L 291.83812 189.312189 
L 292.107096 176.004933 
L 292.510561 208.833055 
L 292.914026 269.558312 
L 293.048514 268.008076 
L 293.183002 271.644416 
L 293.451979 264.987272 
L 293.586467 266.563618 
L 293.720955 264.254102 
L 293.855443 269.58241 
L 293.989931 268.504415 
L 294.12442 256.066642 
L 294.258908 254.624966 
L 294.393396 226.659968 
L 294.527884 174.552998 
L 294.662373 172.807276 
L 294.796861 149.424114 
L 294.931349 150.630237 
L 295.065837 142.024825 
L 295.200325 141.717661 
L 295.334814 153.072709 
L 295.469302 142.073817 
L 295.738278 193.656416 
L 295.872766 207.57681 
L 296.141743 264.568216 
L 296.410719 258.264959 
L 296.545208 267.064801 
L 296.679696 292.232138 
L 296.814184 282.571112 
L 297.08316 279.579476 
L 297.352137 281.048364 
L 297.486625 280.001947 
L 297.621113 280.497859 
L 297.89009 283.668734 
L 298.159066 278.575494 
L 298.428042 280.136702 
L 298.562531 278.688426 
L 298.831507 271.034162 
L 298.965995 270.224694 
L 299.100484 270.481249 
L 299.234972 271.214492 
L 299.36946 276.096218 
L 299.503948 276.701651 
L 299.638436 274.356915 
L 299.772925 277.097894 
L 299.907413 256.812118 
L 300.041901 270.813928 
L 300.176389 268.486645 
L 300.310877 271.248833 
L 300.445366 269.496745 
L 300.714342 250.479916 
L 301.117807 143.917445 
L 301.386783 127.700015 
L 301.521271 129.27189 
L 301.65576 140.800646 
L 301.790248 130.033302 
L 301.924736 146.809788 
L 302.193712 200.734964 
L 302.328201 211.362269 
L 302.597177 255.785219 
L 302.731665 260.159491 
L 302.866153 258.399665 
L 303.13513 269.335783 
L 303.269618 265.724384 
L 303.404106 265.435708 
L 303.538595 269.448103 
L 303.673083 268.187823 
L 304.076547 198.998786 
L 304.211036 155.888903 
L 304.480012 161.922676 
L 304.748988 155.81093 
L 304.883477 159.795327 
L 305.017965 150.470564 
L 305.152453 159.309986 
L 305.42143 214.904808 
L 305.555918 217.722336 
L 305.824894 258.048371 
L 305.959382 267.644891 
L 306.093871 264.439146 
L 306.228359 267.761546 
L 306.362847 265.86156 
L 306.497335 279.99684 
L 306.631823 276.473725 
L 306.766312 276.036017 
L 306.9008 275.003503 
L 307.035288 265.823576 
L 307.169776 245.311718 
L 307.438753 145.766688 
L 307.707729 171.955446 
L 307.976706 160.403257 
L 308.111194 161.293469 
L 308.245682 153.121747 
L 308.38017 159.599295 
L 308.918123 247.179079 
L 309.187099 269.519475 
L 309.321588 270.95581 
L 309.456076 273.96194 
L 309.590564 273.38645 
L 309.725052 276.661496 
L 309.859541 274.349363 
L 309.994029 275.295388 
L 310.128517 274.235395 
L 310.263005 266.926648 
L 310.397493 241.503047 
L 310.66647 147.30619 
L 310.935446 170.974442 
L 311.069934 168.239869 
L 311.204423 161.291436 
L 311.338911 161.687645 
L 311.473399 160.502557 
L 311.607887 156.878983 
L 312.14584 248.295939 
L 312.414817 267.280856 
L 312.549305 266.298455 
L 312.952769 272.04479 
L 313.087258 268.425062 
L 313.221746 271.615644 
L 313.356234 269.708001 
L 313.490722 272.272524 
L 313.759699 252.230162 
L 313.894187 246.267732 
L 314.028675 259.38742 
L 314.163163 254.618882 
L 314.297652 257.58389 
L 314.43214 253.429567 
L 314.701116 263.507319 
L 314.835604 262.51075 
L 314.970093 262.874117 
L 315.104581 266.896423 
L 315.373557 263.773193 
L 315.508045 268.215066 
L 315.642534 267.472455 
L 315.777022 267.888287 
L 315.91151 266.493252 
L 316.045998 269.167463 
L 316.180487 269.152175 
L 316.314975 271.053449 
L 316.449463 269.033683 
L 316.583951 270.979065 
L 316.718439 270.618212 
L 316.852928 271.034771 
L 316.987416 270.199684 
L 317.121904 272.580683 
L 317.256392 271.700239 
L 317.39088 269.671431 
L 317.525369 269.546883 
L 317.659857 267.053151 
L 317.794345 271.995119 
L 318.063322 263.93169 
L 318.19781 262.473779 
L 318.332298 263.75305 
L 318.466786 261.290839 
L 318.601274 264.228087 
L 318.735763 262.980636 
L 318.870251 266.400605 
L 319.004739 264.912057 
L 319.139227 266.145237 
L 319.273715 266.323855 
L 319.408204 284.570609 
L 319.542692 278.471307 
L 319.811668 276.745547 
L 319.946157 271.678985 
L 320.080645 255.12475 
L 320.349621 146.436433 
L 320.484109 130.423747 
L 320.618598 128.373056 
L 320.887574 144.681353 
L 321.022062 148.750533 
L 321.291039 172.038307 
L 321.694503 220.314034 
L 321.96348 266.012993 
L 322.097968 266.913997 
L 322.232456 265.936217 
L 322.366944 270.558242 
L 322.501433 268.916301 
L 322.635921 284.780985 
L 322.904897 279.961859 
L 323.039385 277.642504 
L 323.308362 260.772323 
L 323.577338 150.802353 
L 323.711826 158.452287 
L 323.846315 175.210265 
L 324.115291 156.88175 
L 324.384268 153.837041 
L 324.518756 158.258307 
L 324.787732 203.452456 
L 324.92222 215.763216 
L 325.191197 264.042388 
L 325.325685 264.291919 
L 325.460173 264.245628 
L 325.594661 268.996199 
L 325.72915 268.446214 
L 325.863638 280.953092 
L 325.998126 280.171317 
L 326.132614 280.322412 
L 326.267103 278.078312 
L 326.401591 271.314608 
L 326.536079 253.196988 
L 326.805055 143.045172 
L 327.074032 175.63312 
L 327.343008 161.904038 
L 327.477496 165.51744 
L 327.611985 161.252235 
L 327.746473 161.678277 
L 327.880961 177.288992 
L 328.149937 227.258181 
L 328.553402 265.217506 
L 328.822379 273.817646 
L 328.956867 273.596276 
L 329.091355 287.150292 
L 329.225843 280.82112 
L 329.360331 280.216164 
L 329.49482 276.754009 
L 329.763796 253.842234 
L 330.032772 159.061334 
L 330.167261 161.733849 
L 330.301749 170.89032 
L 330.705214 158.707885 
L 330.97419 181.460525 
L 331.108678 186.05518 
L 331.243166 196.921044 
L 331.646631 262.753773 
L 332.184584 271.518778 
L 332.319072 285.375609 
L 332.588049 276.733375 
L 332.722537 276.864034 
L 332.991513 252.801529 
L 333.26049 153.846162 
L 333.394978 163.07444 
L 333.529466 180.190547 
L 333.798442 165.940451 
L 333.932931 164.622048 
L 334.067419 165.083417 
L 334.470883 206.048254 
L 334.73986 260.602388 
L 335.143325 273.131325 
L 335.277813 276.520518 
L 335.546789 271.554014 
L 335.815766 269.950051 
L 336.084742 273.224914 
L 336.353718 259.298092 
L 336.488207 260.390523 
L 336.757183 252.525544 
L 336.891671 254.197665 
L 337.02616 253.268179 
L 337.429624 262.39982 
L 337.564112 264.135754 
L 337.698601 268.215149 
L 337.833089 268.738778 
L 337.967577 266.977227 
L 338.102065 271.269945 
L 338.236553 270.887372 
L 338.50553 268.202615 
L 338.640018 263.398393 
L 338.908995 267.448315 
L 339.043483 267.388069 
L 339.312459 269.960584 
L 339.446947 268.384761 
L 339.715924 271.883131 
L 340.119388 268.922672 
L 340.253877 270.883581 
L 340.388365 270.244661 
L 340.522853 273.326207 
L 340.657341 268.631423 
L 340.791829 269.568506 
L 340.926318 269.52682 
L 341.060806 270.172151 
L 341.195294 264.337309 
L 341.329782 270.241778 
L 341.464271 271.037993 
L 341.598759 270.169727 
L 341.867735 273.810611 
L 342.002223 286.09413 
L 342.2712 279.147574 
L 342.405688 279.165418 
L 342.674664 257.675083 
L 342.943641 150.120584 
L 343.078129 136.441209 
L 343.347106 171.498948 
L 343.481594 165.803941 
L 343.75057 173.289947 
L 344.154035 203.938256 
L 344.423011 261.069152 
L 344.557499 264.606234 
L 344.691988 264.520266 
L 344.960964 275.719835 
L 345.095452 274.851512 
L 345.22994 284.282278 
L 345.364429 281.598228 
L 345.498917 282.112765 
L 345.633405 280.03789 
L 345.902382 257.262887 
L 346.171358 159.271212 
L 346.440334 179.347825 
L 346.843799 169.760443 
L 346.978287 171.610482 
L 347.247264 188.07367 
L 347.785217 262.493186 
L 348.188681 274.151391 
L 348.323169 269.832784 
L 348.457658 283.980665 
L 348.592146 278.785078 
L 348.726634 280.714768 
L 348.861122 277.957245 
L 349.130099 253.647945 
L 349.399075 158.656564 
L 349.533563 169.76008 
L 349.668052 170.661195 
L 349.937028 165.3224 
L 350.071516 165.141557 
L 350.206004 167.568791 
L 350.474981 191.385444 
L 350.743957 237.29292 
L 351.012934 262.42005 
L 351.147422 270.684973 
L 351.28191 270.794284 
L 351.416398 274.369114 
L 351.550886 273.885775 
L 351.685375 286.808903 
L 351.819863 278.335036 
L 351.954351 278.113192 
L 352.088839 277.171614 
L 352.223328 274.538159 
L 352.357816 258.832464 
L 352.626792 157.031059 
L 352.895769 174.406931 
L 353.030257 172.782223 
L 353.164745 168.15893 
L 353.299233 169.265972 
L 353.433721 167.04281 
L 353.702698 156.607933 
L 354.106163 256.480441 
L 354.375139 271.08906 
L 354.778604 277.795854 
L 354.913092 280.419679 
L 355.04758 278.906544 
L 355.182068 278.817131 
L 355.316556 278.092089 
L 355.451045 272.667768 
L 355.585533 253.307012 
L 355.854509 185.486738 
L 355.988998 182.746801 
L 356.257974 160.099611 
L 356.392462 161.183556 
L 356.661439 164.966679 
L 356.930415 185.896103 
L 357.199391 237.053315 
L 357.468368 272.331975 
L 357.737344 277.300682 
L 357.871832 277.044283 
L 358.006321 282.47684 
L 358.275297 277.34197 
L 358.409785 277.75079 
L 358.544274 277.23431 
L 358.81325 273.067176 
L 359.082226 254.233848 
L 359.216715 249.471184 
L 359.485691 252.52063 
L 359.620179 245.0088 
L 359.754667 260.371248 
L 359.889156 262.648805 
L 360.023644 262.113664 
L 360.29262 271.912792 
L 360.427109 280.348622 
L 360.561597 276.403896 
L 360.696085 276.833247 
L 360.830573 278.658894 
L 360.965061 278.679024 
L 361.09955 279.225466 
L 361.234038 278.864687 
L 361.368526 278.917135 
L 361.503014 277.32478 
L 361.637502 279.546637 
L 361.906479 275.163282 
L 362.175455 281.896146 
L 362.309944 281.963938 
L 362.444432 277.936435 
L 362.57892 277.571682 
L 362.713408 276.501692 
L 362.847896 278.522631 
L 362.982385 278.339402 
L 363.251361 270.405051 
L 363.520337 275.011881 
L 363.654826 272.643648 
L 363.789314 272.974594 
L 364.192778 277.319106 
L 364.327267 224.115631 
L 364.596243 251.883334 
L 364.86522 259.551718 
L 364.999708 254.816664 
L 365.268684 199.247772 
L 365.537661 119.144366 
L 365.672149 104.290344 
L 365.941125 104.979871 
L 366.075613 111.904773 
L 366.210102 107.549882 
L 366.34459 109.193204 
L 366.479078 116.828236 
L 366.613566 143.494452 
L 366.882543 239.908367 
L 367.151519 256.196818 
L 367.286007 259.638208 
L 367.420496 255.583582 
L 367.554984 266.775593 
L 367.689472 267.210825 
L 367.82396 265.531784 
L 368.092937 270.512949 
L 368.765378 95.762581 
L 368.899866 100.156025 
L 369.034354 96.401326 
L 369.168842 87.429604 
L 369.437819 85.731121 
L 369.572307 106.790035 
L 369.706795 101.019553 
L 369.975772 186.360565 
L 370.11026 236.0002 
L 370.244748 232.429487 
L 370.648213 261.804183 
L 370.782701 289.522927 
L 371.051677 277.793226 
L 371.320654 276.41143 
L 371.58963 249.747941 
L 371.858607 152.914761 
L 371.993095 161.516107 
L 372.262071 213.590975 
L 372.396559 194.351679 
L 372.531048 196.457842 
L 372.800024 191.084368 
L 372.934512 199.942415 
L 373.069001 233.603787 
L 373.203489 233.882223 
L 373.472465 261.36335 
L 373.606953 263.5366 
L 373.87593 268.877247 
L 374.144906 292.312849 
L 374.279394 285.138463 
L 374.413883 285.586246 
L 374.548371 283.049966 
L 374.817347 253.626547 
L 375.086324 196.397157 
L 375.3553 173.646607 
L 375.489788 177.946921 
L 375.624277 176.840943 
L 375.758765 180.421549 
L 376.162229 201.673745 
L 376.431206 234.512415 
L 376.700182 264.916591 
L 376.83467 267.444591 
L 376.969159 267.278585 
L 377.103647 268.495931 
L 377.238135 286.845931 
L 377.372623 276.627057 
L 377.507112 277.789857 
L 377.6416 277.941417 
L 377.776088 273.874767 
L 377.910576 281.422336 
L 378.045064 273.88808 
L 378.179553 274.1944 
L 378.314041 259.972642 
L 378.448529 268.200687 
L 378.583017 256.444296 
L 378.717505 263.614483 
L 378.851994 260.750177 
L 378.986482 270.931532 
L 379.12097 263.664274 
L 379.389947 266.315586 
L 379.524435 265.888377 
L 379.793411 274.302259 
L 379.927899 275.027609 
L 380.062388 277.979263 
L 380.196876 275.46699 
L 380.331364 275.984909 
L 380.465852 255.672852 
L 380.734829 267.76744 
L 380.869317 270.747094 
L 381.003805 269.763439 
L 381.138293 251.222028 
L 381.272782 253.130536 
L 381.676246 139.886087 
L 381.810734 143.563095 
L 381.945223 139.755801 
L 382.214199 146.213511 
L 382.348687 144.557536 
L 382.483175 138.294569 
L 383.155616 265.565873 
L 383.290105 267.603055 
L 383.424593 267.934613 
L 383.559081 267.210979 
L 383.693569 255.368537 
L 384.231522 261.987908 
L 384.36601 257.192645 
L 384.500499 259.483999 
L 384.769475 165.981622 
L 384.903963 157.212801 
L 385.038451 158.450793 
L 385.17294 140.370409 
L 385.307428 145.136645 
L 385.441916 170.783343 
L 385.576404 162.367252 
L 385.710893 162.807237 
L 385.845381 202.91902 
L 385.979869 208.268341 
L 386.383334 268.157932 
L 386.517822 267.425487 
L 386.65231 273.468815 
L 386.786798 269.654706 
L 386.921286 282.251381 
L 387.190263 274.779211 
L 387.324751 276.978899 
L 387.459239 275.208276 
L 387.593727 275.185857 
L 387.728216 276.901374 
L 387.862704 277.037224 
L 387.997192 281.239322 
L 388.13168 277.242005 
L 388.266169 278.706444 
L 388.400657 275.657953 
L 388.669633 277.541481 
L 388.804121 273.345901 
L 388.93861 275.762605 
L 389.073098 268.803105 
L 389.611051 286.008534 
L 389.745539 281.27595 
L 389.880027 282.633484 
L 390.014515 281.893343 
L 390.149004 252.361598 
L 390.283492 263.75031 
L 390.552468 267.665294 
L 390.686956 266.933763 
L 390.821445 255.060438 
L 390.955933 259.150397 
L 391.090421 243.113482 
L 391.224909 181.735719 
L 391.359397 183.746858 
L 391.493886 150.926511 
L 392.031839 173.890928 
L 392.166327 164.753104 
L 392.435303 197.273498 
L 392.838768 272.626961 
L 392.973256 271.246696 
L 393.107744 272.650141 
L 393.242232 270.361528 
L 393.376721 257.68446 
L 393.511209 259.426934 
L 393.645697 269.727271 
L 393.780185 269.588935 
L 393.914673 261.777418 
L 394.049162 265.500354 
L 394.18365 248.729641 
L 394.587115 152.224812 
L 394.721603 152.335342 
L 394.856091 141.000534 
L 394.990579 142.674348 
L 395.125067 145.932801 
L 395.259556 143.500306 
L 395.394044 161.581091 
L 395.528532 162.593072 
L 395.797508 218.920014 
L 396.066485 257.855775 
L 396.200973 262.875286 
L 396.335461 263.514868 
L 396.46995 253.733307 
L 396.604438 295.488 
L 396.738926 281.854056 
L 396.873414 281.137436 
L 397.007902 279.629777 
L 397.142391 282.103136 
L 397.411367 256.856739 
L 397.680343 176.532761 
L 397.814832 176.100981 
L 398.218296 158.592393 
L 398.352785 166.533499 
L 398.487273 162.891673 
L 398.487273 162.891673 
" clip-path="url(#pa401149aa1)" style="fill: none; stroke: #ff7f0e; stroke-width: 1.5; stroke-linecap: square"/>
   </g>
   <g id="patch_3">
    <path d="M 57.6 307.584 
L 57.6 41.472 
" style="fill: none; stroke: #000000; stroke-width: 0.8; stroke-linejoin: miter; stroke-linecap: square"/>
   </g>
   <g id="patch_4">
    <path d="M 414.72 307.584 
L 414.72 41.472 
" style="fill: none; stroke: #000000; stroke-width: 0.8; stroke-linejoin: miter; stroke-linecap: square"/>
   </g>
   <g id="patch_5">
    <path d="M 57.6 307.584 
L 414.72 307.584 
" style="fill: none; stroke: #000000; stroke-width: 0.8; stroke-linejoin: miter; stroke-linecap: square"/>
   </g>
   <g id="patch_6">
    <path d="M 57.6 41.472 
L 414.72 41.472 
" style="fill: none; stroke: #000000; stroke-width: 0.8; stroke-linejoin: miter; stroke-linecap: square"/>
   </g>
  </g>
 </g>
 <defs>
  <clipPath id="pa401149aa1">
   <rect x="57.6" y="41.472" width="357.12" height="266.112"/>
  </clipPath>
 </defs>
</svg>
