<?xml version="1.0" encoding="utf-8" standalone="no"?>
<!DOCTYPE svg PUBLIC "-//W3C//DTD SVG 1.1//EN"
  "http://www.w3.org/Graphics/SVG/1.1/DTD/svg11.dtd">
<svg xmlns:xlink="http://www.w3.org/1999/xlink" width="460.8pt" height="345.6pt" viewBox="0 0 460.8 345.6" xmlns="http://www.w3.org/2000/svg" version="1.1">
 <metadata>
  <rdf:RDF xmlns:dc="http://purl.org/dc/elements/1.1/" xmlns:cc="http://creativecommons.org/ns#" xmlns:rdf="http://www.w3.org/1999/02/22-rdf-syntax-ns#">
   <cc:Work>
    <dc:type rdf:resource="http://purl.org/dc/dcmitype/StillImage"/>
    <dc:date>2023-04-04T02:58:49.280023</dc:date>
    <dc:format>image/svg+xml</dc:format>
    <dc:creator>
     <cc:Agent>
      <dc:title>Matplotlib v3.5.2, https://matplotlib.org/</dc:title>
     </cc:Agent>
    </dc:creator>
   </cc:Work>
  </rdf:RDF>
 </metadata>
 <defs>
  <style type="text/css">*{stroke-linejoin: round; stroke-linecap: butt}</style>
 </defs>
 <g id="figure_1">
  <g id="patch_1">
   <path d="M 0 345.6 
L 460.8 345.6 
L 460.8 0 
L 0 0 
z
" style="fill: #ffffff"/>
  </g>
  <g id="axes_1">
   <g id="patch_2">
    <path d="M 57.6 307.584 
L 414.72 307.584 
L 414.72 41.472 
L 57.6 41.472 
z
" style="fill: #ffffff"/>
   </g>
   <g id="matplotlib.axis_1">
    <g id="xtick_1">
     <g id="line2d_1">
      <defs>
       <path id="m577099b599" d="M 0 0 
L 0 3.5 
" style="stroke: #000000; stroke-width: 0.8"/>
      </defs>
      <g>
       <use xlink:href="#m577099b599" x="73.832727" y="307.584" style="stroke: #000000; stroke-width: 0.8"/>
      </g>
     </g>
     <g id="text_1">
      <!-- 0 -->
      <g transform="translate(70.651477 322.182437)scale(0.1 -0.1)">
       <defs>
        <path id="DejaVuSans-30" d="M 2034 4250 
Q 1547 4250 1301 3770 
Q 1056 3291 1056 2328 
Q 1056 1369 1301 889 
Q 1547 409 2034 409 
Q 2525 409 2770 889 
Q 3016 1369 3016 2328 
Q 3016 3291 2770 3770 
Q 2525 4250 2034 4250 
z
M 2034 4750 
Q 2819 4750 3233 4129 
Q 3647 3509 3647 2328 
Q 3647 1150 3233 529 
Q 2819 -91 2034 -91 
Q 1250 -91 836 529 
Q 422 1150 422 2328 
Q 422 3509 836 4129 
Q 1250 4750 2034 4750 
z
" transform="scale(0.015625)"/>
       </defs>
       <use xlink:href="#DejaVuSans-30"/>
      </g>
     </g>
    </g>
    <g id="xtick_2">
     <g id="line2d_2">
      <g>
       <use xlink:href="#m577099b599" x="141.076834" y="307.584" style="stroke: #000000; stroke-width: 0.8"/>
      </g>
     </g>
     <g id="text_2">
      <!-- 500 -->
      <g transform="translate(131.533084 322.182437)scale(0.1 -0.1)">
       <defs>
        <path id="DejaVuSans-35" d="M 691 4666 
L 3169 4666 
L 3169 4134 
L 1269 4134 
L 1269 2991 
Q 1406 3038 1543 3061 
Q 1681 3084 1819 3084 
Q 2600 3084 3056 2656 
Q 3513 2228 3513 1497 
Q 3513 744 3044 326 
Q 2575 -91 1722 -91 
Q 1428 -91 1123 -41 
Q 819 9 494 109 
L 494 744 
Q 775 591 1075 516 
Q 1375 441 1709 441 
Q 2250 441 2565 725 
Q 2881 1009 2881 1497 
Q 2881 1984 2565 2268 
Q 2250 2553 1709 2553 
Q 1456 2553 1204 2497 
Q 953 2441 691 2322 
L 691 4666 
z
" transform="scale(0.015625)"/>
       </defs>
       <use xlink:href="#DejaVuSans-35"/>
       <use xlink:href="#DejaVuSans-30" x="63.623047"/>
       <use xlink:href="#DejaVuSans-30" x="127.246094"/>
      </g>
     </g>
    </g>
    <g id="xtick_3">
     <g id="line2d_3">
      <g>
       <use xlink:href="#m577099b599" x="208.32094" y="307.584" style="stroke: #000000; stroke-width: 0.8"/>
      </g>
     </g>
     <g id="text_3">
      <!-- 1000 -->
      <g transform="translate(195.59594 322.182437)scale(0.1 -0.1)">
       <defs>
        <path id="DejaVuSans-31" d="M 794 531 
L 1825 531 
L 1825 4091 
L 703 3866 
L 703 4441 
L 1819 4666 
L 2450 4666 
L 2450 531 
L 3481 531 
L 3481 0 
L 794 0 
L 794 531 
z
" transform="scale(0.015625)"/>
       </defs>
       <use xlink:href="#DejaVuSans-31"/>
       <use xlink:href="#DejaVuSans-30" x="63.623047"/>
       <use xlink:href="#DejaVuSans-30" x="127.246094"/>
       <use xlink:href="#DejaVuSans-30" x="190.869141"/>
      </g>
     </g>
    </g>
    <g id="xtick_4">
     <g id="line2d_4">
      <g>
       <use xlink:href="#m577099b599" x="275.565046" y="307.584" style="stroke: #000000; stroke-width: 0.8"/>
      </g>
     </g>
     <g id="text_4">
      <!-- 1500 -->
      <g transform="translate(262.840046 322.182437)scale(0.1 -0.1)">
       <use xlink:href="#DejaVuSans-31"/>
       <use xlink:href="#DejaVuSans-35" x="63.623047"/>
       <use xlink:href="#DejaVuSans-30" x="127.246094"/>
       <use xlink:href="#DejaVuSans-30" x="190.869141"/>
      </g>
     </g>
    </g>
    <g id="xtick_5">
     <g id="line2d_5">
      <g>
       <use xlink:href="#m577099b599" x="342.809153" y="307.584" style="stroke: #000000; stroke-width: 0.8"/>
      </g>
     </g>
     <g id="text_5">
      <!-- 2000 -->
      <g transform="translate(330.084153 322.182437)scale(0.1 -0.1)">
       <defs>
        <path id="DejaVuSans-32" d="M 1228 531 
L 3431 531 
L 3431 0 
L 469 0 
L 469 531 
Q 828 903 1448 1529 
Q 2069 2156 2228 2338 
Q 2531 2678 2651 2914 
Q 2772 3150 2772 3378 
Q 2772 3750 2511 3984 
Q 2250 4219 1831 4219 
Q 1534 4219 1204 4116 
Q 875 4013 500 3803 
L 500 4441 
Q 881 4594 1212 4672 
Q 1544 4750 1819 4750 
Q 2544 4750 2975 4387 
Q 3406 4025 3406 3419 
Q 3406 3131 3298 2873 
Q 3191 2616 2906 2266 
Q 2828 2175 2409 1742 
Q 1991 1309 1228 531 
z
" transform="scale(0.015625)"/>
       </defs>
       <use xlink:href="#DejaVuSans-32"/>
       <use xlink:href="#DejaVuSans-30" x="63.623047"/>
       <use xlink:href="#DejaVuSans-30" x="127.246094"/>
       <use xlink:href="#DejaVuSans-30" x="190.869141"/>
      </g>
     </g>
    </g>
    <g id="xtick_6">
     <g id="line2d_6">
      <g>
       <use xlink:href="#m577099b599" x="410.053259" y="307.584" style="stroke: #000000; stroke-width: 0.8"/>
      </g>
     </g>
     <g id="text_6">
      <!-- 2500 -->
      <g transform="translate(397.328259 322.182437)scale(0.1 -0.1)">
       <use xlink:href="#DejaVuSans-32"/>
       <use xlink:href="#DejaVuSans-35" x="63.623047"/>
       <use xlink:href="#DejaVuSans-30" x="127.246094"/>
       <use xlink:href="#DejaVuSans-30" x="190.869141"/>
      </g>
     </g>
    </g>
   </g>
   <g id="matplotlib.axis_2">
    <g id="ytick_1">
     <g id="line2d_7">
      <defs>
       <path id="m0015ac3502" d="M 0 0 
L -3.5 0 
" style="stroke: #000000; stroke-width: 0.8"/>
      </defs>
      <g>
       <use xlink:href="#m0015ac3502" x="57.6" y="280.975946" style="stroke: #000000; stroke-width: 0.8"/>
      </g>
     </g>
     <g id="text_7">
      <!-- 100 -->
      <g transform="translate(31.5125 284.775165)scale(0.1 -0.1)">
       <use xlink:href="#DejaVuSans-31"/>
       <use xlink:href="#DejaVuSans-30" x="63.623047"/>
       <use xlink:href="#DejaVuSans-30" x="127.246094"/>
      </g>
     </g>
    </g>
    <g id="ytick_2">
     <g id="line2d_8">
      <g>
       <use xlink:href="#m0015ac3502" x="57.6" y="233.058118" style="stroke: #000000; stroke-width: 0.8"/>
      </g>
     </g>
     <g id="text_8">
      <!-- 200 -->
      <g transform="translate(31.5125 236.857337)scale(0.1 -0.1)">
       <use xlink:href="#DejaVuSans-32"/>
       <use xlink:href="#DejaVuSans-30" x="63.623047"/>
       <use xlink:href="#DejaVuSans-30" x="127.246094"/>
      </g>
     </g>
    </g>
    <g id="ytick_3">
     <g id="line2d_9">
      <g>
       <use xlink:href="#m0015ac3502" x="57.6" y="185.140291" style="stroke: #000000; stroke-width: 0.8"/>
      </g>
     </g>
     <g id="text_9">
      <!-- 300 -->
      <g transform="translate(31.5125 188.93951)scale(0.1 -0.1)">
       <defs>
        <path id="DejaVuSans-33" d="M 2597 2516 
Q 3050 2419 3304 2112 
Q 3559 1806 3559 1356 
Q 3559 666 3084 287 
Q 2609 -91 1734 -91 
Q 1441 -91 1130 -33 
Q 819 25 488 141 
L 488 750 
Q 750 597 1062 519 
Q 1375 441 1716 441 
Q 2309 441 2620 675 
Q 2931 909 2931 1356 
Q 2931 1769 2642 2001 
Q 2353 2234 1838 2234 
L 1294 2234 
L 1294 2753 
L 1863 2753 
Q 2328 2753 2575 2939 
Q 2822 3125 2822 3475 
Q 2822 3834 2567 4026 
Q 2313 4219 1838 4219 
Q 1578 4219 1281 4162 
Q 984 4106 628 3988 
L 628 4550 
Q 988 4650 1302 4700 
Q 1616 4750 1894 4750 
Q 2613 4750 3031 4423 
Q 3450 4097 3450 3541 
Q 3450 3153 3228 2886 
Q 3006 2619 2597 2516 
z
" transform="scale(0.015625)"/>
       </defs>
       <use xlink:href="#DejaVuSans-33"/>
       <use xlink:href="#DejaVuSans-30" x="63.623047"/>
       <use xlink:href="#DejaVuSans-30" x="127.246094"/>
      </g>
     </g>
    </g>
    <g id="ytick_4">
     <g id="line2d_10">
      <g>
       <use xlink:href="#m0015ac3502" x="57.6" y="137.222464" style="stroke: #000000; stroke-width: 0.8"/>
      </g>
     </g>
     <g id="text_10">
      <!-- 400 -->
      <g transform="translate(31.5125 141.021683)scale(0.1 -0.1)">
       <defs>
        <path id="DejaVuSans-34" d="M 2419 4116 
L 825 1625 
L 2419 1625 
L 2419 4116 
z
M 2253 4666 
L 3047 4666 
L 3047 1625 
L 3713 1625 
L 3713 1100 
L 3047 1100 
L 3047 0 
L 2419 0 
L 2419 1100 
L 313 1100 
L 313 1709 
L 2253 4666 
z
" transform="scale(0.015625)"/>
       </defs>
       <use xlink:href="#DejaVuSans-34"/>
       <use xlink:href="#DejaVuSans-30" x="63.623047"/>
       <use xlink:href="#DejaVuSans-30" x="127.246094"/>
      </g>
     </g>
    </g>
    <g id="ytick_5">
     <g id="line2d_11">
      <g>
       <use xlink:href="#m0015ac3502" x="57.6" y="89.304636" style="stroke: #000000; stroke-width: 0.8"/>
      </g>
     </g>
     <g id="text_11">
      <!-- 500 -->
      <g transform="translate(31.5125 93.103855)scale(0.1 -0.1)">
       <use xlink:href="#DejaVuSans-35"/>
       <use xlink:href="#DejaVuSans-30" x="63.623047"/>
       <use xlink:href="#DejaVuSans-30" x="127.246094"/>
      </g>
     </g>
    </g>
   </g>
   <g id="line2d_12">
    <path d="M 73.832727 284.054187 
L 74.101704 283.503611 
L 74.236192 282.39048 
L 74.37068 283.356503 
L 74.505168 282.86295 
L 74.639657 283.466235 
L 74.774145 276.980078 
L 74.908633 249.803962 
L 75.177609 248.307488 
L 75.312098 248.864293 
L 75.446586 248.917003 
L 75.581074 249.785753 
L 75.715562 249.027693 
L 75.85005 249.005651 
L 76.253515 244.00878 
L 76.522492 278.144961 
L 76.65698 278.458822 
L 76.925956 276.748156 
L 77.060444 267.871858 
L 77.194933 270.120641 
L 77.463909 270.184372 
L 77.598397 271.772369 
L 77.732885 266.433844 
L 77.867374 252.995768 
L 78.405327 104.22481 
L 78.674303 103.300955 
L 78.808791 110.455565 
L 78.943279 105.64174 
L 79.481232 158.461562 
L 79.750209 228.999958 
L 80.019185 263.801717 
L 80.153673 265.930706 
L 80.288161 262.087217 
L 80.42265 272.506949 
L 80.557138 272.071376 
L 80.826114 274.584666 
L 80.960603 272.038792 
L 81.095091 261.701479 
L 81.364067 168.672371 
L 81.498555 181.001149 
L 81.767532 161.552261 
L 82.036508 169.573227 
L 82.170996 166.465276 
L 82.305485 160.476985 
L 83.112414 261.222301 
L 83.650367 287.465457 
L 83.784855 287.486062 
L 83.919343 289.017995 
L 84.053831 289.210624 
L 84.18832 287.108948 
L 84.322808 279.868086 
L 84.726273 189.53196 
L 84.860761 180.847333 
L 84.995249 184.952932 
L 85.129737 170.03755 
L 85.264225 178.598549 
L 85.398714 179.347505 
L 85.66769 187.662206 
L 85.802178 196.451773 
L 86.340131 263.352727 
L 86.474619 265.370068 
L 86.609107 270.291229 
L 86.878084 287.848321 
L 87.012572 290.104292 
L 87.14706 289.777013 
L 87.281549 291.271091 
L 87.416037 291.173818 
L 87.550525 290.360652 
L 87.819501 262.795922 
L 87.95399 262.942071 
L 88.088478 257.243204 
L 88.222966 258.706136 
L 88.357454 257.946638 
L 88.491942 254.58089 
L 88.626431 257.421938 
L 88.760919 250.412518 
L 88.895407 253.296213 
L 89.029895 253.294775 
L 89.164384 255.861254 
L 89.43336 277.209125 
L 89.567848 278.876187 
L 89.702336 278.376883 
L 89.836825 279.439221 
L 89.971313 264.256457 
L 90.105801 264.971391 
L 90.240289 266.519137 
L 90.374777 266.288173 
L 90.509266 267.526849 
L 90.643754 267.698874 
L 90.778242 269.802946 
L 90.91273 266.572805 
L 91.047218 256.612126 
L 91.181707 255.438619 
L 91.316195 248.491971 
L 91.450683 252.93635 
L 91.585171 250.965969 
L 91.71966 252.467714 
L 91.854148 252.694365 
L 92.123124 255.683958 
L 92.257612 255.109903 
L 92.526589 260.717726 
L 92.795565 267.329907 
L 92.930053 268.287305 
L 93.064542 267.143986 
L 93.19903 277.185646 
L 93.468006 277.310711 
L 93.602495 278.374008 
L 93.736983 277.136769 
L 93.871471 274.607187 
L 94.005959 269.374561 
L 94.6784 161.840248 
L 94.812888 157.430849 
L 95.081865 169.323575 
L 95.216353 164.092385 
L 95.350841 152.79432 
L 96.023282 265.697826 
L 96.157771 266.429531 
L 96.426747 270.368376 
L 96.561235 270.03391 
L 96.695723 270.111537 
L 96.830212 271.999978 
L 96.9647 271.360275 
L 97.099188 269.928491 
L 97.233676 261.435056 
L 97.368164 243.818546 
L 97.502653 202.671028 
L 97.637141 195.553314 
L 97.771629 180.033209 
L 97.906117 188.454767 
L 98.040606 181.720875 
L 98.175094 182.432934 
L 98.309582 177.097284 
L 98.44407 178.744699 
L 98.713047 190.149142 
L 98.982023 232.225786 
L 99.250999 267.184237 
L 99.385488 271.885455 
L 99.519976 272.642077 
L 99.654464 282.47817 
L 99.788952 282.490628 
L 99.923441 281.486271 
L 100.192417 282.728301 
L 100.326905 282.809282 
L 100.461393 282.152328 
L 100.595882 282.55963 
L 100.73037 283.391004 
L 100.864858 281.847571 
L 100.999346 283.007182 
L 101.133834 282.096265 
L 101.268323 279.873836 
L 101.402811 272.826082 
L 101.537299 277.111852 
L 101.806276 266.6926 
L 101.940764 268.860402 
L 102.075252 268.711378 
L 102.20974 269.361623 
L 102.344228 271.747931 
L 102.478717 277.584801 
L 102.613205 275.726548 
L 102.747693 281.414873 
L 102.882181 267.914025 
L 103.016669 267.942776 
L 103.151158 272.864895 
L 103.285646 272.644952 
L 103.554622 268.450705 
L 103.68911 264.248791 
L 103.823599 246.76693 
L 104.092575 184.298375 
L 104.227063 162.745895 
L 104.361552 169.933569 
L 104.630528 144.978922 
L 105.033993 160.345691 
L 105.168481 171.160265 
L 105.706434 254.491763 
L 105.840922 254.369093 
L 105.97541 263.095888 
L 106.109898 279.581058 
L 106.378875 282.780531 
L 106.513363 282.766635 
L 106.647851 284.930604 
L 106.782339 284.661306 
L 106.916828 285.776354 
L 107.320292 248.083712 
L 107.45478 255.170279 
L 107.589269 252.628238 
L 107.723757 252.721199 
L 108.26171 247.641909 
L 108.396198 244.223931 
L 108.530686 246.490923 
L 108.934151 278.202462 
L 109.068639 279.722415 
L 109.203127 278.651931 
L 109.337615 274.141905 
L 109.606592 275.695401 
L 109.875568 276.751031 
L 110.144545 277.803306 
L 110.413521 276.561756 
L 110.548009 276.426627 
L 110.951474 272.364633 
L 111.085962 273.541495 
L 111.22045 273.193132 
L 111.623915 267.3807 
L 111.758403 267.890066 
L 112.02738 271.682283 
L 112.430844 273.284176 
L 112.565333 263.014907 
L 112.834309 267.225925 
L 112.968797 267.750625 
L 113.103285 269.263391 
L 113.237774 269.442125 
L 113.50675 272.065147 
L 113.641238 272.897 
L 114.313679 261.640623 
L 114.448168 261.278844 
L 114.582656 259.79387 
L 114.98612 248.942878 
L 115.524073 260.025313 
L 115.658561 260.576368 
L 115.927538 262.805985 
L 116.062026 261.51987 
L 116.196514 267.627477 
L 116.331002 267.209633 
L 116.465491 267.821544 
L 116.599979 258.05062 
L 117.137932 79.159953 
L 117.406908 64.441034 
L 117.810373 80.999519 
L 118.213837 148.277586 
L 118.482814 210.688639 
L 118.75179 245.160724 
L 118.886279 246.69649 
L 119.289743 254.699726 
L 119.424231 256.119531 
L 119.55872 258.893973 
L 119.693208 259.211189 
L 119.827696 249.584019 
L 120.365649 92.032598 
L 120.634625 73.444315 
L 120.769114 77.140217 
L 120.903602 70.712999 
L 121.03809 72.042718 
L 121.441555 135.550132 
L 121.710531 202.461627 
L 121.845019 230.675644 
L 122.248484 241.653618 
L 122.51746 257.188099 
L 122.651948 257.347665 
L 122.786437 259.08852 
L 122.920925 257.746341 
L 123.055413 249.575873 
L 123.727854 60.479667 
L 123.862342 53.568 
L 124.534783 107.764979 
L 125.072736 248.876272 
L 125.207225 254.053314 
L 125.341713 254.517159 
L 125.476201 254.470679 
L 125.745177 268.086529 
L 125.879666 269.525023 
L 126.014154 269.755028 
L 126.28313 256.287723 
L 126.821083 93.1395 
L 126.955571 74.766368 
L 127.09006 81.372319 
L 127.359036 105.93931 
L 127.493524 108.385036 
L 127.762501 126.904318 
L 127.896989 149.734288 
L 128.300453 247.25665 
L 128.434942 253.065728 
L 128.56943 251.236225 
L 128.703918 258.746386 
L 128.838406 259.471383 
L 129.241871 266.172691 
L 129.510847 245.436731 
L 130.0488 83.548747 
L 130.183288 74.429026 
L 130.317777 86.362003 
L 130.452265 115.220993 
L 130.586753 114.30145 
L 130.721241 110.649633 
L 130.855729 117.047621 
L 131.124706 170.385913 
L 131.393682 236.111442 
L 131.662659 259.240898 
L 131.931635 259.044435 
L 132.066123 258.861868 
L 132.3351 270.147475 
L 132.469588 269.99893 
L 132.604076 270.09812 
L 132.738564 270.056431 
L 133.007541 258.150768 
L 133.276517 247.678327 
L 133.679982 242.093504 
L 133.81447 240.909934 
L 133.948958 235.804768 
L 134.486911 245.69357 
L 134.755888 252.788763 
L 134.890376 252.67376 
L 135.697305 266.933147 
L 135.831793 271.688992 
L 135.966282 272.298986 
L 136.10077 270.314229 
L 136.235258 271.819328 
L 136.369746 271.544759 
L 136.504234 267.240301 
L 136.638723 267.081213 
L 136.907699 265.144375 
L 137.311164 254.249298 
L 137.445652 254.759623 
L 137.58014 252.074308 
L 137.983605 258.894932 
L 138.118093 257.99216 
L 138.252581 259.82885 
L 138.387069 264.325459 
L 138.521558 263.091096 
L 138.656046 263.292351 
L 138.925022 267.99261 
L 139.193999 251.731696 
L 139.731951 81.69289 
L 139.86644 72.766278 
L 140.269904 98.804346 
L 140.538881 123.258251 
L 140.673369 130.356797 
L 140.807857 144.732625 
L 141.076834 224.929817 
L 141.480298 258.15556 
L 142.018251 266.603473 
L 142.152739 266.139149 
L 142.421716 242.376698 
L 142.959669 91.702445 
L 143.094157 84.278056 
L 143.228645 83.789774 
L 143.363133 94.026938 
L 143.497621 84.74238 
L 143.63211 89.874859 
L 144.573527 259.404777 
L 144.708015 262.898466 
L 144.842504 263.074325 
L 145.11148 265.319275 
L 145.245968 267.465035 
L 145.380456 263.382436 
L 145.783921 202.14489 
L 146.052897 110.346313 
L 146.187386 91.203141 
L 146.456362 106.53445 
L 146.59085 117.869891 
L 146.725339 112.172461 
L 146.859827 119.595412 
L 146.994315 114.51181 
L 147.128803 127.38733 
L 147.532268 234.793702 
L 147.801244 260.844229 
L 147.935732 261.046921 
L 148.204709 266.326508 
L 148.339197 266.304945 
L 148.473685 266.809519 
L 148.742662 265.754369 
L 148.87715 248.036752 
L 149.280615 119.459325 
L 149.415103 115.412185 
L 149.549591 106.311632 
L 149.684079 107.569954 
L 150.087544 140.349102 
L 150.222032 132.640561 
L 150.35652 138.172195 
L 150.894473 253.248774 
L 151.028961 262.440372 
L 151.16345 261.480578 
L 151.835891 269.673568 
L 151.970379 268.398474 
L 152.104867 247.403758 
L 152.508332 113.436533 
L 152.64282 116.552151 
L 152.911796 104.672842 
L 153.046285 118.853165 
L 153.180773 117.349024 
L 153.449749 151.897778 
L 153.718726 192.934605 
L 153.987702 249.683688 
L 154.12219 266.772143 
L 154.256678 268.154094 
L 154.525655 272.024896 
L 154.794631 273.732687 
L 155.063608 276.683946 
L 155.198096 278.329444 
L 155.332584 277.68447 
L 155.467072 273.29376 
L 155.601561 262.794485 
L 155.736049 261.931484 
L 155.870537 259.059769 
L 156.005025 261.203613 
L 156.274002 259.302233 
L 156.40849 259.839871 
L 156.542978 261.096277 
L 156.677466 259.896894 
L 157.215419 267.924088 
L 157.349907 269.93472 
L 157.484396 268.940425 
L 157.618884 269.712381 
L 157.88786 272.895563 
L 158.022348 273.377616 
L 158.291325 276.383501 
L 158.560301 280.674543 
L 158.694789 279.104755 
L 158.829278 280.071257 
L 158.963766 279.674018 
L 159.232742 276.953723 
L 159.367231 277.236439 
L 159.501719 275.248328 
L 160.039672 261.133173 
L 160.308648 261.392888 
L 160.443136 267.124819 
L 160.577624 266.840666 
L 160.712113 264.880827 
L 160.846601 265.58426 
L 160.981089 267.079776 
L 161.250066 270.845159 
L 161.519042 271.798723 
L 161.788018 254.996817 
L 162.460459 83.975695 
L 162.594948 83.638353 
L 162.729436 82.175901 
L 162.998412 101.811189 
L 163.132901 110.776615 
L 163.401877 152.136408 
L 163.670853 223.026521 
L 164.074318 257.19337 
L 164.208806 258.329022 
L 164.477783 271.012871 
L 164.612271 273.379533 
L 164.746759 268.666814 
L 165.015735 251.118348 
L 165.4192 121.075594 
L 165.553688 123.680407 
L 165.822665 109.756924 
L 165.957153 115.024051 
L 166.091641 111.932393 
L 166.360618 100.453198 
L 166.495106 106.660474 
L 166.89857 222.125187 
L 167.033059 229.112085 
L 167.302035 247.541761 
L 167.974476 266.046188 
L 168.108964 260.360259 
L 168.243453 246.31794 
L 168.377941 208.159057 
L 168.646917 106.486053 
L 168.781405 107.771688 
L 168.915894 103.236266 
L 169.050382 104.539151 
L 169.18487 108.342868 
L 169.319358 92.98233 
L 169.453847 95.465911 
L 169.857311 148.956102 
L 170.126288 227.321396 
L 170.395264 258.202998 
L 170.529752 259.084686 
L 170.66424 262.52902 
L 170.798729 262.718774 
L 171.067705 265.050935 
L 171.202193 267.891504 
L 171.47117 246.057267 
L 172.009123 110.557151 
L 172.143611 108.9773 
L 172.412587 97.194786 
L 172.95054 129.765491 
L 173.622981 260.176734 
L 173.757469 264.174518 
L 173.891958 277.583364 
L 174.026446 276.65232 
L 174.160934 276.608236 
L 174.42991 278.142565 
L 174.698887 263.319664 
L 174.833375 246.158852 
L 175.102351 177.489252 
L 175.371328 144.043087 
L 175.505816 141.136871 
L 175.640304 151.325639 
L 175.774792 151.014652 
L 175.909281 152.42679 
L 176.043769 157.244449 
L 176.178257 156.935858 
L 176.312745 171.442501 
L 176.581722 239.259164 
L 176.850698 266.448219 
L 176.985186 263.948346 
L 177.254163 268.694127 
L 177.388651 268.650522 
L 177.792116 275.224848 
L 177.926604 276.117557 
L 178.19558 265.375818 
L 178.330069 264.934495 
L 178.599045 257.349103 
L 178.733533 256.782235 
L 178.868021 259.096187 
L 179.136998 255.577101 
L 179.271486 256.174637 
L 179.540462 253.682431 
L 179.809439 261.208404 
L 179.943927 268.498144 
L 180.212904 266.591493 
L 180.48188 276.485566 
L 180.616368 276.499462 
L 180.750856 276.872742 
L 180.885345 277.706512 
L 181.019833 277.793244 
L 181.692274 265.448653 
L 181.826762 266.748184 
L 181.96125 260.747435 
L 182.095738 262.53477 
L 182.364715 267.988777 
L 182.499203 269.270579 
L 182.633691 272.427405 
L 182.902668 271.607052 
L 183.171644 277.755868 
L 183.306132 279.176152 
L 183.440621 278.063021 
L 183.575109 275.75434 
L 183.844085 287.522 
L 183.978573 288.476044 
L 184.113062 286.190364 
L 184.382038 274.770587 
L 184.919991 182.768838 
L 185.054479 186.796331 
L 185.188967 179.702576 
L 185.457944 183.574337 
L 185.592432 185.077998 
L 185.995897 222.94554 
L 186.264873 253.634033 
L 186.53385 269.437812 
L 186.802826 279.722415 
L 187.071802 290.25092 
L 187.206291 289.097059 
L 187.340779 290.234628 
L 187.475267 287.047614 
L 187.609755 279.025211 
L 188.01322 202.888096 
L 188.147708 186.439343 
L 188.282196 186.658807 
L 188.416684 185.697575 
L 188.551173 189.019718 
L 188.685661 195.440707 
L 188.820149 191.015496 
L 188.954637 195.464187 
L 189.089126 203.862265 
L 189.627078 266.052418 
L 189.761567 268.649085 
L 189.896055 273.900879 
L 190.030543 271.457549 
L 190.299519 273.294718 
L 190.434008 272.119773 
L 190.971961 275.555002 
L 191.106449 272.091981 
L 191.240937 271.605135 
L 191.375425 272.045021 
L 191.509913 267.602559 
L 191.644402 269.156534 
L 191.913378 267.886712 
L 192.182354 262.232888 
L 192.316843 262.582688 
L 192.451331 262.082905 
L 192.585819 263.407833 
L 192.720307 269.195827 
L 192.989284 270.457503 
L 193.392748 267.761647 
L 193.661725 270.653008 
L 193.796213 271.189209 
L 194.065189 263.277017 
L 194.603142 159.1971 
L 194.73763 154.26971 
L 194.872119 144.286031 
L 195.006607 145.86684 
L 195.141095 150.626038 
L 195.275583 143.203567 
L 195.54456 156.640205 
L 195.948024 250.969802 
L 196.217001 261.339699 
L 196.351489 263.272704 
L 196.485977 272.776726 
L 196.620465 272.122169 
L 196.889442 272.680891 
L 197.02393 273.813189 
L 197.158418 272.077605 
L 197.292907 265.735202 
L 197.830859 196.79199 
L 197.965348 199.111213 
L 198.099836 195.782361 
L 198.234324 200.200864 
L 198.5033 186.831311 
L 198.772277 200.677167 
L 199.31023 273.455243 
L 199.713694 282.597964 
L 199.848183 281.425415 
L 200.117159 282.155683 
L 200.251647 280.366431 
L 200.386135 274.568374 
L 200.520624 274.163947 
L 200.655112 261.162883 
L 200.7896 213.783172 
L 200.924088 211.806562 
L 201.058576 200.083945 
L 201.193065 199.724561 
L 201.327553 197.030621 
L 201.462041 199.210403 
L 201.731018 187.371345 
L 201.865506 188.737003 
L 202.134482 211.507555 
L 202.403459 265.157792 
L 202.806923 274.989092 
L 203.0759 266.489428 
L 203.210388 270.830783 
L 203.344876 270.957286 
L 203.748341 261.549579 
L 203.882829 244.104615 
L 204.151805 181.937943 
L 204.420782 165.411084 
L 204.55527 159.763489 
L 204.689758 163.211656 
L 204.824246 156.690519 
L 204.958735 172.767429 
L 205.093223 173.014685 
L 205.765664 260.966899 
L 205.900152 261.479619 
L 206.03464 265.292441 
L 206.169129 280.191052 
L 206.303617 280.673584 
L 206.572593 284.625368 
L 206.84157 285.439491 
L 207.110546 276.019805 
L 207.379522 266.806165 
L 207.514011 265.925435 
L 207.917475 274.070508 
L 208.051964 273.823252 
L 208.32094 267.441076 
L 208.589916 269.04824 
L 208.858893 277.126707 
L 208.993381 280.79242 
L 209.127869 281.377976 
L 209.262357 280.832192 
L 209.396846 274.957946 
L 209.531334 276.059098 
L 209.80031 275.642692 
L 209.934799 276.636987 
L 210.203775 264.415065 
L 211.010704 108.770295 
L 211.279681 134.47821 
L 211.683145 167.690056 
L 212.221098 255.623582 
L 212.355586 258.095662 
L 212.759051 273.387679 
L 212.893539 273.179715 
L 213.028027 273.280343 
L 213.162516 275.938345 
L 213.431492 258.174727 
L 213.56598 219.96553 
L 213.834957 135.761449 
L 213.969445 140.362519 
L 214.103933 139.267597 
L 214.238421 142.238981 
L 214.910862 180.691121 
L 215.448815 261.261593 
L 215.583303 266.245047 
L 215.717792 266.865104 
L 216.121256 271.142728 
L 216.255745 272.103481 
L 216.390233 274.502726 
L 216.524721 270.480025 
L 216.659209 262.934405 
L 217.062674 149.446781 
L 217.197162 151.36589 
L 217.33165 151.446871 
L 217.466138 162.953858 
L 217.600627 161.665347 
L 217.735115 149.766872 
L 217.869603 155.016749 
L 218.273068 197.363171 
L 218.542044 256.40033 
L 218.811021 273.260696 
L 218.945509 265.814266 
L 219.483462 276.574214 
L 219.61795 278.379279 
L 219.886926 264.577507 
L 220.290391 162.612683 
L 220.693856 150.908754 
L 220.828344 161.612638 
L 220.962832 157.677147 
L 221.231808 184.932807 
L 221.500785 198.85054 
L 221.769761 256.263285 
L 222.038738 271.954936 
L 222.173226 271.199271 
L 222.307714 272.428843 
L 222.576691 278.502428 
L 222.845667 281.151325 
L 222.980155 279.472764 
L 223.114643 281.353059 
L 223.38362 260.723476 
L 223.518108 264.602903 
L 223.652596 264.445733 
L 223.921573 257.457397 
L 224.190549 256.782235 
L 224.325037 259.281149 
L 224.459525 258.650072 
L 224.728502 254.775436 
L 225.131967 262.07428 
L 225.266455 260.582118 
L 225.535431 262.060383 
L 225.669919 260.742164 
L 226.073384 270.550464 
L 226.34236 273.594204 
L 226.476849 273.521849 
L 226.745825 270.361668 
L 226.880313 272.655494 
L 227.014802 272.899875 
L 227.14929 272.601347 
L 227.283778 271.174833 
L 227.418266 272.860103 
L 227.552754 272.989481 
L 227.687243 272.819373 
L 227.956219 271.704805 
L 228.090707 277.550779 
L 228.225195 277.590072 
L 228.359684 278.697453 
L 228.494172 277.920705 
L 228.62866 278.896791 
L 228.763148 278.781788 
L 228.897637 276.481733 
L 229.301101 277.390255 
L 229.435589 271.144166 
L 229.570078 256.987323 
L 230.242519 94.710247 
L 230.377007 79.795823 
L 230.511495 109.932303 
L 230.780471 117.924996 
L 231.049448 145.537644 
L 231.587401 254.817604 
L 231.856377 266.099377 
L 232.125354 270.939078 
L 232.39433 275.62017 
L 232.528818 274.802213 
L 232.797795 257.608817 
L 232.932283 221.148622 
L 233.201259 133.535187 
L 233.335748 125.3168 
L 233.470236 135.667051 
L 233.604724 135.890348 
L 233.739212 148.749097 
L 233.8737 133.935301 
L 234.008189 140.693152 
L 234.815118 265.51478 
L 234.949606 265.246919 
L 235.218583 271.181542 
L 235.622047 278.959564 
L 235.756535 278.358674 
L 236.025512 265.636491 
L 236.563465 129.35819 
L 236.832441 117.08308 
L 237.63937 201.211451 
L 237.908347 259.585428 
L 238.177323 267.716125 
L 238.849764 282.711529 
L 238.984252 281.882551 
L 239.118741 278.064459 
L 239.253229 264.092099 
L 239.791182 128.584317 
L 240.194646 146.411186 
L 240.463623 165.636777 
L 240.732599 179.163021 
L 241.270552 257.040512 
L 241.674017 262.946384 
L 241.942993 275.956553 
L 242.077481 282.48967 
L 242.21197 281.860509 
L 242.480946 263.799801 
L 242.884411 151.482809 
L 243.018899 159.39548 
L 243.153387 157.137113 
L 243.287875 146.102116 
L 243.422363 154.12404 
L 243.556852 151.297846 
L 243.825828 168.024043 
L 244.229293 240.384275 
L 244.498269 262.885528 
L 244.767246 268.185719 
L 245.17071 276.083536 
L 245.305198 276.952765 
L 245.439687 276.655674 
L 245.574175 275.420832 
L 245.708663 263.907136 
L 245.843151 269.382707 
L 246.112128 266.385926 
L 246.381104 261.181091 
L 246.515592 261.147549 
L 247.188033 271.440777 
L 247.322522 271.848079 
L 247.45701 272.719225 
L 247.591498 272.363195 
L 247.725986 275.541585 
L 247.860475 274.096862 
L 248.129451 275.426582 
L 248.263939 274.539144 
L 248.398427 275.224848 
L 248.532916 275.071032 
L 248.667404 277.025121 
L 248.801892 276.925931 
L 249.205357 278.47176 
L 249.339845 278.58868 
L 249.608821 277.636073 
L 249.743309 277.768326 
L 249.877798 277.466923 
L 250.550239 274.287096 
L 250.819215 274.588499 
L 250.953703 275.370518 
L 251.088192 274.229595 
L 251.357168 275.492709 
L 251.491656 284.428425 
L 251.626144 283.936788 
L 251.760633 284.369007 
L 251.895121 284.208482 
L 252.164097 271.913726 
L 252.70205 143.980315 
L 252.836538 163.795774 
L 252.971027 160.337545 
L 253.240003 173.298838 
L 253.374491 174.657308 
L 253.508979 171.719945 
L 253.777956 204.673035 
L 254.046932 256.238847 
L 254.315909 277.651886 
L 254.719373 286.04086 
L 254.853862 285.799833 
L 255.122838 287.540209 
L 255.391814 266.691162 
L 255.660791 173.088478 
L 255.795279 176.549583 
L 256.198744 160.813848 
L 256.333232 164.502083 
L 256.46772 161.826831 
L 256.602208 163.027651 
L 257.409138 258.489547 
L 257.812602 265.991083 
L 258.081579 281.258661 
L 258.216067 282.326749 
L 258.350555 281.594565 
L 258.619532 267.367283 
L 258.888508 177.911887 
L 259.022996 178.78447 
L 259.157484 169.695417 
L 259.291973 169.117528 
L 259.426461 153.571068 
L 259.695437 167.32588 
L 259.829925 156.150006 
L 259.964414 165.259185 
L 260.771343 261.572101 
L 261.040319 263.819447 
L 261.309296 271.348296 
L 261.443784 274.575082 
L 261.71276 271.64922 
L 261.847249 259.208794 
L 262.116225 170.699775 
L 262.250713 174.88348 
L 262.654178 148.348983 
L 262.788666 155.678494 
L 262.923154 150.889586 
L 263.326619 186.177712 
L 263.461107 197.11879 
L 263.864572 246.086976 
L 264.268036 264.201352 
L 264.402525 263.440896 
L 264.671501 266.884271 
L 264.805989 266.757768 
L 264.940478 265.803245 
L 265.074966 258.205394 
L 265.209454 239.013825 
L 265.612919 124.268838 
L 265.881895 106.08546 
L 266.016383 115.624461 
L 266.150871 115.493167 
L 266.28536 115.043218 
L 266.419848 119.692685 
L 266.688824 157.113154 
L 266.957801 236.234112 
L 267.226777 252.965101 
L 267.361265 251.537149 
L 267.495754 267.96961 
L 267.630242 267.652394 
L 267.76473 269.528856 
L 267.899218 269.84128 
L 268.168195 276.387814 
L 268.302683 277.27621 
L 268.437171 274.704461 
L 268.706147 277.250814 
L 268.975124 273.742271 
L 269.2441 271.849996 
L 269.916541 257.299268 
L 270.320006 259.196335 
L 270.588982 264.102641 
L 270.723471 278.256609 
L 270.857959 279.300739 
L 270.992447 277.816723 
L 271.126935 278.703682 
L 271.261424 278.733391 
L 271.395912 278.546512 
L 271.799376 281.335329 
L 271.933865 279.944275 
L 272.068353 280.300784 
L 272.202841 279.653414 
L 272.337329 279.890607 
L 272.471817 279.043899 
L 272.606306 276.869388 
L 272.740794 278.157419 
L 272.875282 277.833495 
L 273.00977 277.153541 
L 273.144258 274.809401 
L 273.278747 274.709252 
L 273.547723 277.700283 
L 273.682211 277.915434 
L 273.8167 278.602097 
L 273.951188 277.736701 
L 274.085676 288.433397 
L 274.354652 290.073145 
L 274.489141 288.494253 
L 274.758117 273.70777 
L 275.29607 166.705824 
L 275.565046 154.410109 
L 275.699535 154.748888 
L 275.834023 172.789471 
L 275.968511 175.082339 
L 276.102999 185.287878 
L 276.77544 264.9896 
L 277.447881 282.475295 
L 277.58237 285.888481 
L 277.716858 285.495555 
L 277.851346 281.075615 
L 277.985834 271.043059 
L 278.389299 210.237732 
L 278.523787 190.656112 
L 278.658275 188.647876 
L 278.792763 179.085394 
L 278.927252 191.27569 
L 279.06174 185.426361 
L 279.196228 187.527557 
L 279.330716 195.261495 
L 280.137646 275.414124 
L 280.272134 277.812411 
L 280.406622 269.414332 
L 280.54111 269.128742 
L 280.810087 270.305604 
L 280.944575 269.679318 
L 281.213551 261.720646 
L 281.348039 232.62542 
L 281.482528 161.805268 
L 281.617016 151.545102 
L 281.751504 128.027512 
L 281.885992 129.185207 
L 282.154969 142.763681 
L 282.289457 124.554907 
L 282.423945 128.663861 
L 282.558433 137.820478 
L 282.82741 186.513616 
L 283.096386 255.42041 
L 283.365363 262.084342 
L 283.499851 264.302938 
L 283.634339 263.628255 
L 283.768827 263.638797 
L 283.903316 263.82903 
L 284.037804 265.140541 
L 284.172292 265.270399 
L 284.441268 260.050231 
L 285.113709 144.180132 
L 285.248198 143.098627 
L 285.382686 138.538287 
L 285.517174 147.827637 
L 285.651662 144.710583 
L 285.78615 148.217688 
L 286.055127 201.621149 
L 286.324103 251.452335 
L 286.59308 261.180133 
L 286.727568 261.057942 
L 286.862056 280.093299 
L 286.996544 280.152717 
L 287.131033 279.169923 
L 287.265521 279.778479 
L 287.668985 276.233998 
L 287.803474 277.115686 
L 288.07245 276.236393 
L 288.206938 274.054216 
L 288.341427 273.998631 
L 288.475915 271.640595 
L 288.610403 271.267794 
L 288.744891 270.138371 
L 288.879379 272.980377 
L 289.013868 273.321552 
L 289.148356 270.497275 
L 289.417332 277.686866 
L 289.55182 278.879541 
L 289.820797 278.516324 
L 289.955285 279.310322 
L 290.089773 277.803786 
L 290.224262 279.35824 
L 290.35875 278.446843 
L 290.493238 279.431554 
L 290.627726 277.882371 
L 291.031191 259.817829 
L 291.300167 193.314114 
L 291.434655 187.702937 
L 291.569144 188.31341 
L 291.703632 192.396009 
L 291.972608 179.589969 
L 292.376073 192.732392 
L 293.048514 269.492438 
L 293.183002 270.74501 
L 293.31749 269.587795 
L 293.451979 270.34298 
L 293.586467 269.409061 
L 293.720955 271.895997 
L 293.855443 272.160503 
L 294.258908 248.1254 
L 294.527884 189.860197 
L 294.796861 158.026947 
L 294.931349 142.08229 
L 295.065837 141.947641 
L 295.200325 149.957585 
L 295.334814 144.210321 
L 295.60379 172.401337 
L 295.738278 186.960689 
L 296.141743 257.497648 
L 296.276231 256.603501 
L 296.410719 263.836218 
L 296.545208 281.597919 
L 296.948672 283.771472 
L 297.486625 285.745686 
L 297.621113 285.398761 
L 297.755601 285.394928 
L 298.024578 282.208392 
L 298.159066 282.057451 
L 298.428042 279.906899 
L 298.697019 276.065806 
L 298.831507 274.925841 
L 298.965995 274.783046 
L 299.100484 275.140034 
L 299.36946 278.939438 
L 299.503948 278.43103 
L 299.638436 279.980213 
L 299.772925 270.284041 
L 299.907413 273.699145 
L 300.041901 273.396304 
L 300.176389 274.266012 
L 300.310877 273.981381 
L 300.579854 262.969385 
L 301.252295 128.360541 
L 301.386783 128.429542 
L 301.521271 141.671634 
L 301.65576 134.703424 
L 301.790248 144.153778 
L 302.597177 253.365694 
L 302.731665 255.125236 
L 303.000642 267.580038 
L 303.13513 267.805252 
L 303.269618 268.287305 
L 303.404106 270.756032 
L 303.538595 271.17675 
L 303.807571 254.756269 
L 304.345524 164.639607 
L 304.6145 154.07708 
L 304.748988 162.345781 
L 304.883477 152.73634 
L 305.017965 158.839633 
L 306.093871 266.025584 
L 306.228359 267.040004 
L 306.497335 277.233563 
L 306.766312 278.267151 
L 306.9008 273.541016 
L 307.035288 262.962197 
L 307.304265 170.138178 
L 307.438753 177.426958 
L 307.842217 158.093073 
L 307.976706 165.170537 
L 308.111194 156.720228 
L 308.245682 161.701286 
L 308.649147 207.875383 
L 309.052611 264.451483 
L 309.590564 276.72803 
L 309.994029 278.437738 
L 310.128517 274.871215 
L 310.263005 262.20797 
L 310.531982 170.026529 
L 310.66647 171.182307 
L 310.935446 168.884647 
L 311.069934 159.498503 
L 311.204423 165.977952 
L 311.338911 164.682254 
L 311.473399 157.883193 
L 311.607887 171.068742 
L 311.876864 208.785822 
L 312.14584 251.271205 
L 312.414817 263.120805 
L 312.818281 271.763743 
L 312.952769 271.32817 
L 313.087258 273.220925 
L 313.221746 273.121735 
L 313.356234 274.704461 
L 313.625211 264.108871 
L 313.759699 256.188054 
L 313.894187 259.553323 
L 314.028675 257.015115 
L 314.163163 258.905474 
L 314.297652 256.134865 
L 314.566628 262.722608 
L 314.701116 263.460063 
L 314.970093 268.231241 
L 315.104581 268.193386 
L 315.239069 267.895816 
L 315.508045 270.839409 
L 315.642534 271.378484 
L 315.777022 271.046893 
L 316.180487 274.047986 
L 316.314975 273.606663 
L 316.718439 275.96997 
L 316.852928 276.220101 
L 316.987416 275.363331 
L 317.121904 275.428978 
L 317.256392 274.304826 
L 317.39088 274.450017 
L 317.525369 272.905146 
L 317.659857 273.828043 
L 317.928833 271.298941 
L 318.332298 267.547933 
L 318.466786 268.204886 
L 318.601274 267.700312 
L 318.735763 269.162285 
L 318.870251 268.997926 
L 319.139227 270.118724 
L 319.273715 279.993151 
L 319.67718 281.115866 
L 319.811668 278.526866 
L 319.946157 270.54136 
L 320.349621 148.068664 
L 320.484109 131.85375 
L 320.887574 159.240226 
L 321.022062 163.925152 
L 321.291039 178.766262 
L 321.425527 180.573722 
L 321.560015 199.087254 
L 321.828991 254.835333 
L 321.96348 262.955009 
L 322.097968 263.744695 
L 322.635921 280.511143 
L 322.770409 280.859505 
L 322.904897 280.19776 
L 323.173874 269.724361 
L 323.44285 173.878643 
L 323.577338 174.24186 
L 323.711826 174.444074 
L 323.980803 154.186812 
L 324.249779 157.739919 
L 324.384268 160.517236 
L 324.787732 196.904597 
L 325.056709 251.644485 
L 325.325685 260.953002 
L 325.863638 278.845998 
L 325.998126 280.620395 
L 326.132614 280.686043 
L 326.267103 277.460215 
L 326.401591 268.425308 
L 326.670567 166.659343 
L 326.805055 172.63853 
L 326.939544 173.815392 
L 327.20852 160.536403 
L 327.343008 168.712143 
L 327.611985 164.943406 
L 327.746473 169.822399 
L 328.149937 224.735271 
L 328.418914 255.702646 
L 328.68789 268.56427 
L 328.822379 271.027246 
L 328.956867 281.11347 
L 329.225843 282.06416 
L 329.360331 281.213618 
L 329.629308 268.330431 
L 330.032772 178.962725 
L 330.301749 167.578887 
L 330.570725 158.735652 
L 330.839702 180.675787 
L 330.97419 181.8929 
L 331.108678 184.649133 
L 331.781119 260.833208 
L 332.050096 268.024715 
L 332.184584 278.841686 
L 332.319072 279.80148 
L 332.45356 279.133984 
L 332.588049 280.125404 
L 332.857025 267.46791 
L 333.26049 178.328772 
L 333.394978 180.245964 
L 333.663954 165.276435 
L 333.798442 166.473422 
L 333.932931 170.255097 
L 334.336395 188.189302 
L 334.73986 256.189491 
L 335.143325 271.979374 
L 335.277813 271.780036 
L 335.412301 271.877788 
L 335.546789 272.164337 
L 335.681277 272.058917 
L 335.950254 274.650793 
L 336.084742 272.548158 
L 336.622695 256.0213 
L 336.757183 256.819131 
L 336.891671 254.98292 
L 337.295136 261.365096 
L 337.698601 266.115669 
L 337.833089 265.634574 
L 338.102065 269.749757 
L 338.236553 269.516877 
L 338.371042 270.15658 
L 338.50553 267.812439 
L 339.043483 270.983162 
L 339.446947 273.990485 
L 339.581436 273.506994 
L 339.715924 272.333486 
L 339.850412 272.59368 
L 339.9849 271.810703 
L 340.119388 271.697617 
L 340.253877 271.222272 
L 340.388365 272.70485 
L 340.522853 270.708593 
L 340.657341 271.309482 
L 340.926318 270.989871 
L 341.060806 267.638977 
L 341.329782 272.539054 
L 341.464271 272.436989 
L 341.598759 272.967439 
L 341.733247 274.539623 
L 341.867735 282.39048 
L 342.136712 282.492545 
L 342.2712 283.136561 
L 342.540176 270.394252 
L 342.943641 154.795369 
L 343.212617 171.465502 
L 343.347106 170.728525 
L 343.75057 185.166167 
L 343.885058 186.847124 
L 344.019547 186.182025 
L 344.423011 254.316863 
L 345.22994 280.1048 
L 345.364429 281.192534 
L 345.498917 280.823567 
L 345.633405 276.591465 
L 345.767893 268.477539 
L 346.03687 183.91647 
L 346.171358 188.049382 
L 346.440334 174.434969 
L 346.574823 169.044214 
L 346.843799 175.947735 
L 347.112775 177.823239 
L 347.381752 212.428535 
L 347.650728 251.481086 
L 348.054193 269.507772 
L 348.188681 270.694218 
L 348.323169 279.695581 
L 348.457658 280.546602 
L 348.592146 282.424023 
L 348.726634 282.228039 
L 348.99561 269.274892 
L 349.264587 182.862278 
L 349.399075 184.341501 
L 349.668052 166.720678 
L 349.80254 162.593995 
L 350.206004 181.356699 
L 350.340493 182.540749 
L 351.012934 263.00724 
L 351.147422 265.336046 
L 351.550886 282.058409 
L 351.685375 281.343955 
L 351.954351 281.711964 
L 352.088839 280.309888 
L 352.223328 272.995711 
L 352.492304 178.771053 
L 352.626792 185.960165 
L 352.76128 174.552368 
L 352.895769 173.841267 
L 353.030257 165.535191 
L 353.164745 172.770304 
L 353.299233 170.686358 
L 353.56821 152.851822 
L 354.240651 269.649609 
L 354.375139 270.791012 
L 354.644115 276.672925 
L 354.913092 280.961091 
L 355.182068 282.006658 
L 355.316556 279.596392 
L 355.451045 270.438336 
L 355.854509 196.895493 
L 356.123486 158.435686 
L 356.257974 160.154978 
L 356.392462 168.793124 
L 356.52695 168.157734 
L 356.661439 178.798367 
L 356.795927 177.54292 
L 357.33388 265.325504 
L 357.602856 274.953633 
L 357.737344 276.924493 
L 357.871832 281.193493 
L 358.006321 280.613208 
L 358.140809 280.828359 
L 358.275297 281.570606 
L 358.409785 281.482437 
L 358.678762 280.218844 
L 359.082226 261.691416 
L 359.351203 255.766856 
L 359.485691 249.475245 
L 359.620179 260.243339 
L 359.754667 261.662186 
L 359.889156 261.830857 
L 360.427109 276.165954 
L 360.561597 276.847825 
L 360.965061 281.00853 
L 361.234038 280.968758 
L 361.368526 280.776608 
L 361.503014 282.086202 
L 361.771991 281.677463 
L 361.906479 283.012453 
L 362.040967 282.964536 
L 362.175455 283.34117 
L 362.309944 283.3819 
L 362.57892 279.958171 
L 362.713408 279.908816 
L 362.982385 278.770288 
L 363.116873 277.272856 
L 363.251361 277.170791 
L 363.385849 278.265234 
L 363.520337 277.408464 
L 363.654826 277.348566 
L 364.05829 280.144092 
L 364.192778 254.049002 
L 364.730731 260.327675 
L 364.86522 259.128292 
L 364.999708 247.005081 
L 365.134196 224.77648 
L 365.403172 136.139521 
L 365.672149 105.738055 
L 365.806637 99.795766 
L 366.075613 116.800844 
L 366.34459 113.645455 
L 366.479078 125.117941 
L 367.017031 251.955951 
L 367.151519 256.933176 
L 367.286007 255.191842 
L 367.554984 266.592931 
L 367.689472 267.462639 
L 367.958448 272.379967 
L 368.227425 248.733956 
L 368.496401 152.433499 
L 368.765378 100.365509 
L 369.034354 89.424431 
L 369.168842 94.163504 
L 369.303331 93.717389 
L 369.437819 97.098471 
L 369.572307 94.968524 
L 369.706795 111.136478 
L 370.244748 235.429572 
L 370.782701 279.810105 
L 370.917189 280.1163 
L 371.051677 281.011405 
L 371.186166 280.731565 
L 371.455142 265.854038 
L 371.858607 172.224041 
L 372.127583 204.333777 
L 372.262071 200.257407 
L 372.396559 201.689671 
L 372.665536 190.96039 
L 372.800024 194.769858 
L 373.203489 234.63174 
L 373.472465 256.975823 
L 373.87593 278.251817 
L 374.010418 287.305891 
L 374.144906 287.159262 
L 374.279394 288.370625 
L 374.413883 287.865571 
L 374.682859 271.239522 
L 375.220812 181.486078 
L 375.489788 177.842406 
L 375.624277 178.066182 
L 375.893253 184.62757 
L 376.027741 188.940654 
L 376.565694 256.792297 
L 376.83467 265.717951 
L 376.969159 268.565708 
L 377.103647 280.424891 
L 377.238135 279.327573 
L 377.507112 281.408644 
L 377.6416 279.434908 
L 377.776088 282.988495 
L 378.045064 280.832671 
L 378.179553 271.152791 
L 378.314041 270.524588 
L 378.448529 263.395374 
L 378.583017 264.400211 
L 378.717505 263.47923 
L 378.851994 268.008903 
L 378.986482 267.245572 
L 379.12097 268.157448 
L 379.255458 270.325729 
L 379.389947 270.20881 
L 379.927899 279.501035 
L 380.062388 279.293551 
L 380.196876 279.711873 
L 380.331364 269.761737 
L 380.465852 270.442649 
L 380.869317 273.358928 
L 381.138293 262.417371 
L 381.272782 235.208671 
L 381.541758 160.300648 
L 381.810734 140.052491 
L 381.945223 141.65055 
L 382.214199 148.164979 
L 382.348687 140.141139 
L 382.752152 190.210956 
L 383.021128 258.503922 
L 383.155616 266.465948 
L 383.290105 267.131048 
L 383.424593 268.423871 
L 383.559081 263.473959 
L 383.693569 262.759025 
L 383.962546 263.106909 
L 384.097034 264.302459 
L 384.231522 262.510811 
L 384.36601 263.909053 
L 385.038451 149.232109 
L 385.17294 151.685981 
L 385.307428 166.886953 
L 385.576404 161.218274 
L 386.248845 261.362221 
L 386.921286 279.943796 
L 387.055775 279.125359 
L 387.190263 280.408599 
L 387.324751 279.714749 
L 387.459239 279.876711 
L 387.593727 281.372705 
L 387.728216 280.795775 
L 387.862704 282.118786 
L 387.997192 280.94432 
L 388.13168 282.5419 
L 388.266169 281.553356 
L 388.400657 279.559016 
L 388.535145 279.648622 
L 388.669633 278.983043 
L 388.804121 280.127321 
L 388.93861 277.564676 
L 389.207586 279.714749 
L 389.476562 286.435224 
L 389.611051 285.371927 
L 389.745539 286.19228 
L 389.880027 286.14005 
L 390.014515 271.166208 
L 390.149004 271.40436 
L 390.41798 271.426402 
L 390.552468 271.295107 
L 390.686956 265.769702 
L 390.821445 265.955624 
L 390.955933 257.059679 
L 391.224909 200.622062 
L 391.359397 169.088777 
L 391.493886 165.079014 
L 391.762862 175.826024 
L 391.89735 175.279761 
L 392.031839 168.02021 
L 392.166327 171.738154 
L 392.300815 180.762998 
L 392.569791 241.221879 
L 392.70428 267.641852 
L 392.973256 272.508866 
L 393.107744 273.169653 
L 393.376721 266.077814 
L 393.645697 271.824599 
L 393.780185 268.416683 
L 393.914673 269.808217 
L 394.049162 262.357953 
L 394.721603 147.171163 
L 394.990579 146.09397 
L 395.125067 145.671814 
L 395.259556 157.114112 
L 395.394044 157.988613 
L 395.931997 246.578133 
L 396.200973 260.257236 
L 396.335461 256.501436 
L 396.46995 281.400019 
L 396.604438 281.785278 
L 397.007902 284.835727 
L 397.276879 271.712471 
L 397.545855 197.628156 
L 397.680343 192.414217 
L 397.94932 168.917711 
L 398.083808 155.382362 
L 398.218296 168.190797 
L 398.352785 163.399973 
L 398.487273 166.4279 
L 398.487273 166.4279 
" clip-path="url(#p53414efa37)" style="fill: none; stroke: #1f77b4; stroke-width: 1.5; stroke-linecap: square"/>
   </g>
   <g id="line2d_13">
    <path d="M 73.832727 281.61005 
L 73.967215 281.382332 
L 74.37068 278.753992 
L 74.505168 279.657412 
L 74.639657 279.483086 
L 74.774145 280.11036 
L 74.908633 271.169425 
L 75.043121 231.668458 
L 75.177609 234.40225 
L 75.446586 248.16735 
L 75.984539 251.541372 
L 76.388003 249.441402 
L 76.65698 278.607208 
L 76.791468 277.77229 
L 76.925956 275.835387 
L 77.060444 278.372055 
L 77.194933 264.605672 
L 77.329421 265.070349 
L 77.463909 266.933175 
L 77.598397 264.597135 
L 77.732885 265.570238 
L 77.867374 253.684838 
L 78.001862 226.095942 
L 78.270838 125.66236 
L 78.405327 105.23185 
L 78.674303 112.784713 
L 78.808791 107.799368 
L 78.943279 114.764029 
L 79.077768 112.101473 
L 79.481232 173.547821 
L 80.019185 258.400909 
L 80.153673 263.777428 
L 80.288161 274.028163 
L 80.42265 262.975098 
L 80.557138 275.092729 
L 80.691626 274.582352 
L 80.826114 270.417394 
L 80.960603 270.268135 
L 81.095091 263.28875 
L 81.229579 243.583673 
L 81.498555 147.109876 
L 81.633044 165.517152 
L 81.767532 162.522013 
L 81.90202 151.716849 
L 82.036508 219.066236 
L 82.170996 220.98523 
L 82.305485 215.553735 
L 82.439973 219.72486 
L 82.574461 196.935519 
L 82.708949 228.246133 
L 82.977926 221.534955 
L 83.112414 226.895099 
L 83.246902 221.042781 
L 83.38139 220.971422 
L 83.919343 282.136929 
L 84.053831 283.56919 
L 84.18832 282.741294 
L 84.322808 220.96842 
L 84.457296 249.607385 
L 84.591784 220.96842 
L 84.860761 220.96842 
L 84.995249 221.25223 
L 85.264225 167.501932 
L 85.533202 184.279688 
L 85.802178 201.903516 
L 86.071155 236.068048 
L 86.205643 258.752111 
L 86.474619 266.589179 
L 86.609107 265.336627 
L 87.012572 288.978208 
L 87.14706 289.265828 
L 87.281549 287.084623 
L 87.416037 288.150445 
L 87.550525 288.171508 
L 87.685013 286.705939 
L 87.95399 247.475306 
L 88.088478 253.546862 
L 88.222966 252.387235 
L 88.491942 258.198974 
L 88.626431 254.452852 
L 88.760919 259.073334 
L 88.895407 252.444742 
L 89.164384 257.921451 
L 89.298872 260.133342 
L 89.567848 277.697338 
L 89.702336 271.880531 
L 89.971313 278.715212 
L 90.105801 262.325685 
L 90.240289 260.415372 
L 90.374777 266.35935 
L 90.509266 264.610703 
L 90.643754 264.498402 
L 90.778242 264.608044 
L 90.91273 266.814605 
L 91.047218 261.436625 
L 91.181707 246.199867 
L 91.316195 246.943814 
L 91.450683 242.917174 
L 91.585171 251.103133 
L 91.71966 251.874995 
L 92.123124 256.878207 
L 92.257612 259.676717 
L 92.392101 259.35149 
L 92.930053 268.503195 
L 93.064542 268.410107 
L 93.19903 269.608768 
L 93.333518 281.320329 
L 93.468006 280.469187 
L 93.602495 274.047668 
L 93.736983 274.381323 
L 93.871471 271.354089 
L 94.140447 255.637913 
L 94.409424 172.468362 
L 94.543912 174.301434 
L 94.947377 152.65378 
L 95.216353 170.849923 
L 95.350841 170.02427 
L 95.48533 162.86885 
L 95.888794 251.649533 
L 96.157771 268.471795 
L 96.292259 265.875193 
L 96.426747 272.903431 
L 96.561235 273.289157 
L 96.830212 267.121013 
L 96.9647 268.360824 
L 97.099188 266.708841 
L 97.233676 262.039918 
L 97.502653 215.398229 
L 97.637141 173.162019 
L 97.771629 174.930134 
L 97.906117 172.985928 
L 98.040606 184.081789 
L 98.175094 179.426892 
L 98.309582 180.904983 
L 98.44407 178.350126 
L 98.578558 184.114713 
L 98.982023 226.105469 
L 99.250999 266.493236 
L 99.654464 277.689091 
L 99.788952 287.291793 
L 99.923441 286.029886 
L 100.057929 278.275595 
L 100.192417 278.064937 
L 100.326905 278.734408 
L 100.595882 275.581402 
L 100.73037 275.981105 
L 100.864858 278.348135 
L 100.999346 276.287006 
L 101.133834 279.350978 
L 101.268323 279.638385 
L 101.402811 277.224926 
L 101.537299 268.135308 
L 101.671787 276.599505 
L 101.940764 266.1667 
L 102.075252 272.315935 
L 102.20974 272.798624 
L 102.344228 272.846857 
L 102.478717 274.887023 
L 102.613205 279.029342 
L 102.747693 274.760096 
L 102.882181 284.109749 
L 103.151158 259.32278 
L 103.285646 271.628675 
L 103.420134 269.428908 
L 103.823599 248.562013 
L 104.361552 154.718665 
L 104.49604 166.303047 
L 104.765016 141.122134 
L 105.168481 175.4116 
L 105.840922 261.051064 
L 105.97541 256.448856 
L 106.378875 289.204806 
L 106.647851 279.590897 
L 106.782339 282.069352 
L 106.916828 280.872857 
L 107.051316 281.290768 
L 107.320292 215.811103 
L 107.45478 226.109059 
L 107.589269 249.952856 
L 107.858245 247.209094 
L 108.127222 250.581291 
L 108.26171 250.538102 
L 108.396198 250.119027 
L 108.530686 248.441962 
L 108.665174 252.228824 
L 108.934151 278.351129 
L 109.068639 278.043569 
L 109.203127 277.26876 
L 109.337615 277.652546 
L 109.472104 272.02025 
L 109.875568 274.161534 
L 110.010056 273.924229 
L 110.144545 274.153809 
L 110.279033 274.780227 
L 110.413521 273.514472 
L 110.548009 273.38458 
L 110.682498 274.202203 
L 110.951474 271.393028 
L 111.085962 271.538398 
L 111.22045 273.907374 
L 111.354939 273.809679 
L 111.758403 269.108051 
L 111.892891 270.141466 
L 112.161868 272.871121 
L 112.430844 272.119184 
L 112.565333 274.320602 
L 112.699821 262.546445 
L 112.834309 263.336478 
L 112.968797 267.721776 
L 113.103285 266.464246 
L 113.237774 266.933489 
L 113.372262 266.557058 
L 113.641238 269.713795 
L 113.775726 270.589128 
L 113.910215 267.726127 
L 114.044703 267.518519 
L 114.179191 266.035742 
L 114.313679 260.134477 
L 114.448168 260.802758 
L 114.582656 262.450477 
L 114.717144 261.506128 
L 115.120609 253.299916 
L 115.524073 262.00225 
L 115.658561 261.90247 
L 115.79305 264.216953 
L 116.062026 261.084613 
L 116.196514 255.797062 
L 116.331002 264.02778 
L 116.599979 258.877766 
L 116.734467 239.008801 
L 117.137932 83.596903 
L 117.27242 88.15423 
L 117.541396 71.636065 
L 117.810373 82.502291 
L 118.079349 124.117101 
L 118.213837 144.733049 
L 118.482814 230.680277 
L 118.75179 248.398414 
L 118.886279 251.477937 
L 119.020767 257.281968 
L 119.155255 253.367705 
L 119.289743 255.521019 
L 119.55872 249.914915 
L 119.693208 252.086281 
L 119.827696 250.127174 
L 119.962184 229.488984 
L 120.231161 123.342916 
L 120.500137 97.307354 
L 120.769114 86.114239 
L 120.903602 89.246855 
L 121.03809 88.928563 
L 121.172578 93.691235 
L 121.441555 131.227292 
L 121.845019 242.025102 
L 121.979507 248.605445 
L 122.113996 246.530731 
L 122.248484 246.239513 
L 122.382972 247.839437 
L 122.51746 260.267243 
L 122.651948 260.212495 
L 122.786437 252.225842 
L 122.920925 251.547749 
L 123.055413 247.436282 
L 123.189901 230.907305 
L 123.593366 97.062353 
L 123.862342 85.431241 
L 123.996831 85.097398 
L 124.131319 91.742412 
L 124.400295 111.505706 
L 124.534783 118.65575 
L 124.669272 135.96728 
L 125.072736 244.517666 
L 125.207225 258.346547 
L 125.341713 258.245404 
L 125.476201 260.933094 
L 125.610689 256.405184 
L 125.879666 271.609615 
L 126.148642 263.747532 
L 126.417618 234.000223 
L 126.686595 131.524136 
L 126.955571 98.277041 
L 127.09006 81.453186 
L 127.224548 85.284524 
L 127.493524 112.916779 
L 127.628012 118.917988 
L 127.896989 157.398705 
L 128.300453 248.515279 
L 128.434942 256.820678 
L 128.56943 255.702449 
L 128.703918 257.362809 
L 128.838406 261.63034 
L 128.972894 260.670676 
L 129.107383 257.632074 
L 129.241871 260.922803 
L 129.376359 259.982455 
L 129.645336 217.04881 
L 130.0488 87.327765 
L 130.183288 93.25852 
L 130.317777 82.657795 
L 130.452265 91.952989 
L 130.586753 124.232092 
L 130.721241 123.119833 
L 130.855729 119.54447 
L 130.990218 134.060316 
L 131.528171 253.404625 
L 131.662659 260.77575 
L 131.797147 260.641433 
L 131.931635 265.413775 
L 132.200612 259.905635 
L 132.3351 262.329492 
L 132.469588 269.502366 
L 132.873053 265.720887 
L 133.142029 249.254847 
L 133.411005 239.356853 
L 133.545494 239.113942 
L 133.679982 237.791432 
L 133.948958 240.857905 
L 134.083447 236.759386 
L 134.621399 252.063095 
L 134.890376 257.237602 
L 135.024864 256.402781 
L 135.29384 263.092346 
L 135.428329 263.036335 
L 135.562817 263.335013 
L 135.831793 265.410879 
L 135.966282 270.673862 
L 136.10077 270.75041 
L 136.235258 266.113823 
L 136.504234 269.554933 
L 136.638723 263.52397 
L 136.907699 265.264909 
L 137.042187 265.498034 
L 137.311164 256.066643 
L 137.445652 256.651411 
L 137.58014 258.77864 
L 137.714628 256.626287 
L 138.118093 262.234467 
L 138.252581 260.711504 
L 138.521558 267.582827 
L 138.790534 258.002535 
L 139.05951 262.771067 
L 139.328487 226.404348 
L 139.731951 88.351671 
L 139.86644 93.032565 
L 140.000928 83.902131 
L 140.135416 86.516308 
L 140.807857 158.945779 
L 140.942345 183.763235 
L 141.211322 250.265637 
L 141.34581 252.050769 
L 141.614786 267.706627 
L 141.749275 262.835639 
L 141.883763 265.802123 
L 142.287228 257.429444 
L 142.690692 168.306802 
L 142.959669 91.238457 
L 143.094157 100.773911 
L 143.363133 92.826774 
L 143.497621 101.703589 
L 143.63211 96.160408 
L 143.766598 103.071898 
L 144.439039 245.667403 
L 144.842504 272.32482 
L 145.11148 262.838608 
L 145.245968 262.46817 
L 145.380456 263.723739 
L 145.514945 253.212843 
L 145.649433 218.982509 
L 145.783921 214.352759 
L 146.187386 96.070755 
L 146.321874 96.831885 
L 146.725339 122.694713 
L 146.859827 118.177466 
L 147.263291 152.75885 
L 147.532268 242.993861 
L 147.801244 258.204622 
L 148.070221 268.390787 
L 148.204709 267.225419 
L 148.339197 267.535719 
L 148.742662 257.666345 
L 148.87715 255.209439 
L 149.415103 105.581967 
L 149.549591 117.457428 
L 149.684079 110.744978 
L 149.818567 110.178676 
L 150.222032 151.697746 
L 150.35652 148.650635 
L 150.491009 161.229127 
L 150.759985 242.736601 
L 151.16345 262.737785 
L 151.297938 267.979272 
L 151.432426 264.467217 
L 151.701402 265.845581 
L 151.970379 263.146063 
L 152.104867 258.684402 
L 152.64282 100.05855 
L 152.777308 124.110521 
L 153.046285 105.052745 
L 153.180773 120.412887 
L 153.315261 122.628388 
L 153.584237 172.678589 
L 154.256678 269.842801 
L 154.391167 267.167612 
L 154.525655 273.957417 
L 154.794631 273.503033 
L 154.92912 272.7295 
L 155.063608 272.827616 
L 155.332584 276.174865 
L 155.467072 274.550598 
L 155.601561 267.575791 
L 155.736049 252.857639 
L 156.274002 260.695591 
L 156.40849 259.680296 
L 156.677466 263.738397 
L 156.811955 262.913635 
L 157.484396 271.672152 
L 157.618884 269.817974 
L 157.88786 273.230544 
L 158.022348 273.348572 
L 158.156837 272.365065 
L 158.291325 272.431006 
L 158.694789 278.948568 
L 158.829278 275.842136 
L 159.098254 277.867115 
L 159.232742 275.552994 
L 159.367231 275.331847 
L 159.501719 277.013983 
L 159.636207 275.260166 
L 159.905183 266.493195 
L 160.039672 267.588356 
L 160.17416 264.082991 
L 160.443136 265.20689 
L 160.577624 270.004238 
L 160.712113 268.867569 
L 160.846601 266.557151 
L 160.981089 268.323347 
L 161.115577 268.461023 
L 161.250066 270.560725 
L 161.384554 269.016019 
L 161.65353 264.746947 
L 161.922507 229.926782 
L 162.325971 96.223936 
L 162.460459 90.50772 
L 162.594948 93.378347 
L 162.729436 93.357169 
L 162.863924 92.075946 
L 163.401877 156.636763 
L 163.805342 248.599756 
L 163.93983 250.929206 
L 164.074318 255.859164 
L 164.208806 266.869593 
L 164.343294 262.042545 
L 164.477783 273.510594 
L 164.612271 274.586851 
L 164.746759 271.652506 
L 164.881247 260.119057 
L 165.284712 176.652975 
L 165.553688 105.71736 
L 165.688177 120.321814 
L 165.957153 109.298683 
L 166.091641 116.989363 
L 166.226129 117.088124 
L 166.360618 113.457397 
L 166.495106 116.73484 
L 166.629594 132.987004 
L 166.89857 237.884267 
L 167.033059 248.555293 
L 167.167547 246.980284 
L 167.436523 258.381279 
L 167.571012 256.477823 
L 167.839988 262.877471 
L 168.108964 260.421923 
L 168.243453 246.888056 
L 168.512429 170.696025 
L 168.781405 95.982021 
L 168.915894 107.143487 
L 169.050382 105.311117 
L 169.18487 105.476991 
L 169.319358 110.282767 
L 169.453847 99.722061 
L 169.588335 105.949639 
L 170.395264 259.61119 
L 170.529752 260.085866 
L 170.66424 265.572822 
L 170.798729 265.883663 
L 171.067705 260.70969 
L 171.202193 260.592581 
L 171.336681 263.159869 
L 172.009123 99.301337 
L 172.143611 107.825986 
L 172.278099 110.510291 
L 172.547075 100.014345 
L 173.085028 156.360005 
L 173.488493 251.766064 
L 174.026446 285.216306 
L 174.160934 281.287756 
L 174.295422 273.091104 
L 174.42991 273.55988 
L 174.564399 273.347441 
L 174.967863 216.196817 
L 175.23684 158.323283 
L 175.505816 136.910201 
L 175.640304 137.783977 
L 175.909281 154.950422 
L 176.043769 159.87409 
L 176.447234 202.286696 
L 176.71621 255.175586 
L 176.985186 265.878181 
L 177.119675 269.616815 
L 177.254163 268.168936 
L 177.388651 270.177535 
L 177.523139 268.285627 
L 177.657627 269.826079 
L 177.792116 273.116221 
L 178.061092 273.567397 
L 178.330069 258.410066 
L 178.464557 261.16261 
L 178.733533 253.546245 
L 179.00251 260.457116 
L 179.271486 257.499147 
L 179.405974 259.279502 
L 179.540462 258.138423 
L 179.674951 257.966112 
L 179.943927 264.842946 
L 180.078415 269.970301 
L 180.212904 267.590916 
L 180.347392 269.372688 
L 180.48188 276.795502 
L 180.616368 278.037528 
L 180.885345 274.213443 
L 181.019833 274.866552 
L 181.154321 274.614724 
L 181.557786 262.306727 
L 181.692274 263.743526 
L 181.826762 263.169392 
L 181.96125 265.766539 
L 182.095738 259.442107 
L 182.230227 262.14463 
L 182.499203 270.409786 
L 182.633691 271.591681 
L 182.76818 274.817729 
L 183.037156 272.99459 
L 183.171644 276.802263 
L 183.440621 277.122091 
L 183.575109 280.30999 
L 183.709597 274.929995 
L 183.978573 291.600633 
L 184.24755 281.773956 
L 184.516526 258.051168 
L 184.785503 175.071989 
L 184.919991 177.751007 
L 185.054479 173.083836 
L 185.188967 181.82683 
L 185.323456 177.379224 
L 185.72692 191.206249 
L 186.399361 261.943115 
L 186.937314 283.974783 
L 187.071802 294.153443 
L 187.206291 294.084424 
L 187.340779 286.924035 
L 187.475267 287.09852 
L 187.609755 281.446167 
L 187.744243 264.515656 
L 188.01322 174.832919 
L 188.147708 179.826153 
L 188.282196 176.773584 
L 188.685661 188.303804 
L 188.820149 197.989837 
L 188.954637 196.492288 
L 189.223614 219.406135 
L 189.627078 268.295481 
L 189.761567 268.067674 
L 189.896055 267.619676 
L 190.030543 278.444693 
L 190.299519 270.210602 
L 190.434008 270.211913 
L 190.568496 265.586728 
L 190.702984 265.389744 
L 190.971961 268.682917 
L 191.106449 267.766102 
L 191.240937 260.171153 
L 191.375425 260.448117 
L 191.509913 265.357559 
L 191.644402 260.052044 
L 191.913378 266.989636 
L 192.047866 267.103574 
L 192.182354 263.600975 
L 192.316843 263.272931 
L 192.854796 273.639192 
L 193.123772 270.760128 
L 193.25826 272.692204 
L 193.527237 266.32408 
L 193.661725 267.180466 
L 193.796213 267.067275 
L 193.930701 264.943817 
L 194.199678 245.833988 
L 194.468654 167.487141 
L 194.603142 162.142357 
L 194.73763 149.956446 
L 194.872119 148.965388 
L 195.006607 141.302226 
L 195.141095 144.645905 
L 195.275583 154.134565 
L 195.410072 150.341416 
L 195.679048 181.050194 
L 195.948024 241.911157 
L 196.082513 261.810276 
L 196.217001 263.969825 
L 196.351489 262.669811 
L 196.620465 278.533485 
L 196.754954 275.491083 
L 197.02393 267.522373 
L 197.158418 267.797119 
L 197.292907 263.064897 
L 197.427395 248.59937 
L 197.696371 178.237094 
L 198.368812 201.587855 
L 198.637789 193.829165 
L 198.906765 218.660071 
L 199.31023 275.463716 
L 199.444718 276.242466 
L 199.579206 276.089674 
L 199.848183 282.592193 
L 200.117159 279.33105 
L 200.251647 279.64379 
L 200.386135 276.828071 
L 200.520624 268.604018 
L 200.655112 268.327507 
L 200.7896 250.823678 
L 200.924088 187.167521 
L 201.596529 202.255372 
L 201.865506 193.565985 
L 201.999994 200.343971 
L 202.537947 268.971386 
L 202.806923 272.23128 
L 202.941411 277.430119 
L 203.210388 264.633103 
L 203.344876 270.14676 
L 203.479364 269.832624 
L 203.882829 254.307393 
L 204.017317 229.627671 
L 204.286294 161.236651 
L 204.420782 158.484643 
L 204.55527 159.451426 
L 204.689758 157.029792 
L 204.824246 164.088337 
L 204.958735 161.535689 
L 205.227711 189.031878 
L 205.765664 259.458807 
L 205.900152 263.569653 
L 206.03464 263.170085 
L 206.169129 270.267454 
L 206.303617 288.209527 
L 206.438105 287.340425 
L 206.572593 282.927358 
L 206.707081 284.657844 
L 206.976058 281.693046 
L 207.514011 251.41284 
L 207.648499 255.175341 
L 207.917475 272.586077 
L 208.051964 275.063206 
L 208.186452 274.47077 
L 208.455428 268.132724 
L 208.858893 279.782684 
L 209.127869 282.154876 
L 209.262357 280.111288 
L 209.396846 282.148419 
L 209.531334 272.477386 
L 209.665822 272.106275 
L 209.80031 272.580218 
L 209.934799 270.064809 
L 210.069287 270.609807 
L 210.472751 204.163724 
L 210.741728 150.734392 
L 211.010704 119.766872 
L 211.145192 106.885413 
L 211.414169 141.525114 
L 211.683145 165.744906 
L 212.221098 260.091625 
L 212.355586 261.3553 
L 212.490075 259.205588 
L 212.759051 273.731782 
L 212.893539 275.545442 
L 213.162516 267.320606 
L 213.297004 270.87585 
L 213.56598 233.242233 
L 213.969445 120.074395 
L 214.103933 144.000467 
L 214.238421 141.455422 
L 214.37291 142.188908 
L 214.641886 168.238073 
L 215.179839 226.977246 
L 215.448815 269.043259 
L 215.583303 264.818428 
L 215.717792 266.440019 
L 215.85228 271.810695 
L 215.986768 271.279657 
L 216.121256 272.182098 
L 216.390233 268.246739 
L 216.524721 270.652109 
L 216.793697 243.374849 
L 217.062674 145.048176 
L 217.197162 134.477259 
L 217.33165 150.239107 
L 217.466138 151.413197 
L 217.600627 162.661825 
L 217.735115 162.352448 
L 217.869603 150.464017 
L 218.004091 161.247596 
L 218.542044 255.05391 
L 218.811021 270.254537 
L 218.945509 272.586872 
L 219.079997 268.993771 
L 219.214485 268.384739 
L 219.483462 274.224984 
L 219.752438 276.280808 
L 220.021414 243.725099 
L 220.290391 145.505241 
L 220.424879 146.824276 
L 220.559367 156.095153 
L 220.828344 148.930063 
L 220.962832 162.240467 
L 221.09732 161.09574 
L 221.366297 199.508254 
L 221.635273 221.009871 
L 221.904249 265.77576 
L 222.038738 267.105413 
L 222.307714 274.526842 
L 222.442202 272.758325 
L 222.711179 278.14047 
L 222.845667 277.932111 
L 222.980155 278.68435 
L 223.114643 275.935738 
L 223.249132 277.976293 
L 223.518108 248.868626 
L 223.787084 264.040823 
L 224.056061 255.453038 
L 224.325037 258.179087 
L 224.459525 261.95058 
L 224.594014 262.048048 
L 224.86299 258.856571 
L 225.131967 264.233983 
L 225.266455 264.837373 
L 225.400943 262.864477 
L 225.535431 266.520891 
L 225.669919 265.359343 
L 225.804408 261.680837 
L 226.207872 268.628525 
L 226.34236 269.311696 
L 226.476849 270.605859 
L 226.611337 270.223057 
L 226.880313 266.185626 
L 227.14929 272.936978 
L 227.283778 272.68801 
L 227.418266 271.518084 
L 227.687243 275.608847 
L 227.821731 275.630757 
L 227.956219 274.951489 
L 228.090707 274.860232 
L 228.225195 280.348395 
L 228.494172 278.708766 
L 228.62866 276.550027 
L 228.763148 281.867521 
L 228.897637 280.947672 
L 229.166613 274.137767 
L 229.301101 274.407555 
L 229.435589 272.771717 
L 229.570078 258.794573 
L 229.839054 177.158051 
L 230.10803 104.684051 
L 230.242519 103.253869 
L 230.377007 100.446389 
L 230.511495 88.518934 
L 230.780471 123.636071 
L 230.91496 128.4934 
L 231.183936 173.893418 
L 231.587401 257.42156 
L 231.856377 262.890821 
L 231.990865 273.066928 
L 232.125354 273.53911 
L 232.259842 271.988668 
L 232.39433 272.383817 
L 232.528818 273.868036 
L 232.663306 269.206622 
L 232.932283 232.356078 
L 233.335748 117.164807 
L 233.604724 138.263836 
L 233.739212 137.25728 
L 233.8737 149.97838 
L 234.008189 136.664371 
L 234.142677 146.767562 
L 234.411653 201.455868 
L 234.546141 217.686922 
L 234.815118 266.740172 
L 234.949606 268.941954 
L 235.084094 265.459236 
L 235.218583 273.776231 
L 235.353071 274.133734 
L 235.487559 275.651877 
L 235.622047 280.350627 
L 235.891024 271.893588 
L 236.16 245.131126 
L 236.428976 140.014932 
L 236.563465 117.38563 
L 236.697953 131.165431 
L 236.832441 126.816854 
L 236.966929 117.459667 
L 237.504882 173.431162 
L 238.042835 268.264275 
L 238.177323 268.874104 
L 238.311811 267.376717 
L 238.4463 274.827991 
L 238.580788 274.912949 
L 238.715276 275.832504 
L 238.984252 284.640802 
L 239.118741 279.603098 
L 239.253229 269.182325 
L 239.387717 241.594505 
L 239.656694 143.967358 
L 239.791182 126.004687 
L 239.92567 126.529961 
L 240.867087 201.080335 
L 241.270552 258.867643 
L 241.40504 262.083927 
L 241.539529 260.499988 
L 241.674017 267.897028 
L 241.808505 265.702377 
L 241.942993 278.46153 
L 242.077481 280.450611 
L 242.21197 285.004761 
L 242.346458 281.640291 
L 242.615434 240.324937 
L 242.884411 142.30982 
L 243.018899 136.746551 
L 243.153387 160.848105 
L 243.287875 157.392371 
L 243.422363 143.341447 
L 243.556852 153.248733 
L 243.69134 154.059452 
L 243.960316 183.109507 
L 244.229293 236.840957 
L 244.498269 262.085606 
L 244.632757 266.256744 
L 244.767246 266.70296 
L 245.036222 273.671099 
L 245.17071 276.58498 
L 245.574175 273.859848 
L 245.708663 271.466384 
L 245.843151 254.457289 
L 246.112128 265.561835 
L 246.381104 260.477732 
L 246.515592 258.757566 
L 246.650081 260.409187 
L 247.053545 271.684038 
L 247.188033 271.207512 
L 247.45701 273.621163 
L 247.591498 274.029188 
L 247.725986 273.509466 
L 247.860475 275.457305 
L 247.994963 273.89529 
L 248.263939 276.496095 
L 248.532916 274.209862 
L 248.667404 273.110901 
L 248.801892 274.546238 
L 248.93638 274.118528 
L 249.070868 274.148659 
L 249.474333 276.875058 
L 249.743309 276.281369 
L 250.012286 277.405908 
L 250.146774 277.123731 
L 250.281262 276.231837 
L 250.415751 276.622171 
L 250.550239 276.411299 
L 250.684727 275.223551 
L 250.819215 275.254771 
L 250.953703 274.930944 
L 251.088192 274.911041 
L 251.22268 273.15582 
L 251.357168 277.43828 
L 251.491656 276.205994 
L 251.626144 287.577218 
L 251.760633 286.629286 
L 252.029609 280.443427 
L 252.298586 253.69426 
L 252.567562 147.986695 
L 252.70205 129.895722 
L 252.971027 163.69418 
L 253.105515 159.866886 
L 253.508979 181.074382 
L 253.643468 183.013101 
L 254.181421 264.605744 
L 254.584885 285.824347 
L 254.719373 283.92048 
L 254.853862 287.778003 
L 255.122838 284.932476 
L 255.257326 285.084192 
L 255.660791 190.71273 
L 255.795279 150.992627 
L 256.064255 170.843236 
L 256.333232 157.08749 
L 256.46772 162.594612 
L 256.602208 163.305875 
L 256.736697 168.946048 
L 257.274649 249.016963 
L 257.543626 262.780539 
L 257.678114 261.382644 
L 257.812602 269.079642 
L 257.94709 268.099177 
L 258.216067 286.444487 
L 258.485043 276.828027 
L 258.75402 246.342687 
L 259.022996 153.716471 
L 259.291973 167.627919 
L 259.426461 166.2353 
L 259.560949 150.160526 
L 259.829925 172.058766 
L 259.964414 163.218771 
L 260.23339 204.483025 
L 260.636855 257.03339 
L 261.040319 268.390064 
L 261.174808 265.399447 
L 261.309296 271.803989 
L 261.443784 271.939151 
L 261.578272 272.844119 
L 261.847249 261.404165 
L 261.981737 236.28365 
L 262.250713 149.300115 
L 262.51969 164.072931 
L 262.654178 146.005123 
L 262.788666 145.020917 
L 262.923154 155.727311 
L 263.057643 153.753589 
L 263.730084 239.752072 
L 263.99906 254.237907 
L 264.133548 255.280194 
L 264.402525 269.745558 
L 264.671501 263.423348 
L 264.805989 262.58469 
L 265.074966 254.750847 
L 265.209454 239.142457 
L 265.747407 111.82654 
L 266.016383 107.221863 
L 266.28536 121.007052 
L 266.419848 124.253181 
L 266.554336 136.560702 
L 267.226777 256.43308 
L 267.361265 256.52862 
L 267.495754 259.516363 
L 267.630242 272.341163 
L 267.76473 271.405075 
L 268.033706 268.051112 
L 268.302683 275.172323 
L 268.437171 275.189629 
L 268.571659 270.405545 
L 268.840636 275.977328 
L 268.975124 272.312617 
L 269.109612 271.898131 
L 269.2441 272.244036 
L 269.378589 272.023731 
L 269.782053 263.640849 
L 270.05103 261.090663 
L 270.320006 262.27601 
L 270.454494 262.525113 
L 270.588982 264.239762 
L 270.723471 269.187941 
L 270.857959 280.90154 
L 270.992447 281.416213 
L 271.126935 275.97135 
L 271.395912 276.075679 
L 271.5304 275.241962 
L 271.933865 279.407372 
L 272.068353 277.733429 
L 272.471817 279.914456 
L 272.606306 279.872351 
L 272.740794 277.743148 
L 273.00977 280.771668 
L 273.144258 279.942179 
L 273.278747 277.385244 
L 273.413235 277.051921 
L 273.547723 277.807841 
L 273.682211 277.717486 
L 273.8167 276.353534 
L 273.951188 282.06489 
L 274.085676 279.682841 
L 274.220164 292.996253 
L 274.354652 294.40982 
L 274.623629 285.471366 
L 274.892605 254.879582 
L 275.161582 176.412625 
L 275.565046 154.247468 
L 275.699535 151.60741 
L 275.834023 153.904627 
L 276.102999 184.906707 
L 276.909928 268.576054 
L 277.044417 269.161438 
L 277.178905 278.186364 
L 277.313393 276.202197 
L 277.447881 282.111183 
L 277.58237 282.328783 
L 277.716858 284.173193 
L 277.851346 283.484793 
L 277.985834 276.440843 
L 278.120322 262.08679 
L 278.389299 198.421703 
L 278.523787 192.325858 
L 278.658275 177.403375 
L 278.792763 179.701268 
L 278.927252 175.028066 
L 279.06174 192.552789 
L 279.196228 190.63531 
L 279.330716 193.700597 
L 279.734181 238.774383 
L 280.003157 268.493159 
L 280.137646 272.38457 
L 280.272134 272.990089 
L 280.406622 282.785778 
L 280.675598 265.017929 
L 280.810087 266.975908 
L 280.944575 266.199958 
L 281.079063 262.481132 
L 281.348039 245.104994 
L 281.751504 136.1457 
L 281.885992 127.816313 
L 282.020481 128.05495 
L 282.289457 144.728339 
L 282.423945 126.573614 
L 282.558433 134.190614 
L 282.82741 186.684348 
L 283.230874 265.089334 
L 283.365363 265.094956 
L 283.499851 262.980025 
L 283.634339 268.951727 
L 284.037804 258.943339 
L 284.172292 258.918699 
L 284.30678 257.329939 
L 284.575757 243.969683 
L 284.979221 150.169538 
L 285.113709 155.004625 
L 285.248198 140.27639 
L 285.517174 136.799225 
L 285.651662 152.094972 
L 285.78615 154.162534 
L 285.920639 163.063435 
L 286.458592 261.877491 
L 286.59308 261.864597 
L 286.727568 262.413247 
L 286.862056 266.581459 
L 286.996544 288.094236 
L 287.131033 288.032604 
L 287.265521 276.575921 
L 287.400009 275.904301 
L 287.803474 266.337126 
L 287.937962 268.291588 
L 288.07245 268.376193 
L 288.206938 268.671754 
L 288.341427 266.505135 
L 288.475915 268.286405 
L 288.610403 267.174719 
L 288.879379 269.421379 
L 289.148356 277.071542 
L 289.282844 273.619661 
L 289.55182 282.947236 
L 289.686309 282.15239 
L 289.955285 277.882425 
L 290.089773 279.588835 
L 290.224262 277.51555 
L 290.35875 278.153203 
L 290.493238 276.808843 
L 290.627726 276.945096 
L 290.762214 274.680972 
L 291.165679 249.899289 
L 291.434655 172.409765 
L 291.83812 194.719958 
L 292.107096 180.791596 
L 292.510561 210.534745 
L 292.914026 265.699443 
L 293.183002 269.774943 
L 293.31749 274.299368 
L 293.586467 270.238542 
L 293.720955 268.064425 
L 293.855443 269.915386 
L 293.989931 269.791517 
L 294.393396 234.753094 
L 294.662373 170.132683 
L 295.065837 137.714424 
L 295.200325 140.424845 
L 295.334814 155.688022 
L 295.469302 153.80976 
L 295.738278 199.208201 
L 295.872766 213.342184 
L 296.141743 260.291948 
L 296.276231 261.463617 
L 296.410719 259.46499 
L 296.545208 269.638431 
L 296.679696 291.463375 
L 296.814184 290.774096 
L 297.08316 282.008795 
L 297.352137 280.648029 
L 297.486625 280.322907 
L 297.621113 281.096019 
L 297.755601 280.528866 
L 297.89009 280.97152 
L 298.159066 277.966585 
L 298.428042 280.444097 
L 298.562531 279.690783 
L 298.697019 277.226352 
L 298.831507 277.118412 
L 298.965995 277.281008 
L 299.36946 280.379267 
L 299.503948 279.784367 
L 299.638436 277.281801 
L 299.772925 281.761959 
L 299.907413 267.080901 
L 300.176389 271.026808 
L 300.445366 267.772658 
L 300.714342 243.309512 
L 300.983319 163.31549 
L 301.386783 123.740857 
L 301.521271 126.227229 
L 301.65576 143.752636 
L 301.790248 139.065999 
L 301.924736 152.209209 
L 302.328201 218.088668 
L 302.597177 255.864802 
L 302.731665 259.624187 
L 302.866153 258.042303 
L 303.13513 273.638612 
L 303.404106 264.095285 
L 303.538595 266.014842 
L 303.673083 264.958012 
L 304.076547 200.457722 
L 304.211036 156.194751 
L 304.480012 161.807735 
L 304.748988 150.982239 
L 304.883477 161.688312 
L 305.017965 154.650614 
L 305.152453 165.348815 
L 305.690406 243.850168 
L 305.959382 264.529284 
L 306.093871 262.796883 
L 306.228359 270.586064 
L 306.362847 268.884709 
L 306.497335 278.311463 
L 306.631823 279.002027 
L 307.035288 262.733023 
L 307.169776 241.492808 
L 307.438753 146.863801 
L 307.707729 170.711316 
L 307.976706 153.918865 
L 308.111194 163.088529 
L 308.245682 157.382145 
L 308.38017 167.031967 
L 309.052611 263.687373 
L 309.187099 267.749306 
L 309.321588 267.207475 
L 309.456076 276.654836 
L 309.590564 276.264301 
L 309.725052 277.401909 
L 310.128517 273.473932 
L 310.263005 264.643693 
L 310.397493 238.619217 
L 310.66647 147.521546 
L 310.935446 168.63542 
L 311.069934 165.219991 
L 311.204423 155.039175 
L 311.473399 165.632815 
L 311.607887 163.394526 
L 312.414817 263.810552 
L 312.549305 263.161472 
L 312.683793 271.002654 
L 312.952769 273.01372 
L 313.087258 270.712586 
L 313.221746 271.32334 
L 313.356234 270.894074 
L 313.490722 271.888158 
L 313.894187 247.847703 
L 314.028675 255.706836 
L 314.163163 255.986479 
L 314.297652 258.04307 
L 314.43214 255.888354 
L 314.701116 265.366684 
L 314.835604 265.822703 
L 315.104581 271.625548 
L 315.373557 271.102266 
L 315.508045 272.966689 
L 315.777022 271.920947 
L 315.91151 273.527312 
L 316.045998 273.465244 
L 316.180487 272.949538 
L 316.314975 272.977404 
L 316.449463 271.367952 
L 316.718439 271.680194 
L 316.987416 273.473336 
L 317.121904 272.201276 
L 317.256392 272.879899 
L 317.39088 272.425073 
L 317.525369 273.409548 
L 317.659857 272.551852 
L 317.794345 274.505225 
L 317.928833 273.243601 
L 318.19781 272.829433 
L 318.332298 272.47649 
L 318.466786 270.830225 
L 318.601274 271.287179 
L 318.735763 270.410309 
L 318.870251 270.860419 
L 319.004739 269.74415 
L 319.139227 272.550884 
L 319.273715 271.081771 
L 319.408204 283.96732 
L 319.542692 283.688308 
L 319.946157 270.051016 
L 320.080645 252.891127 
L 320.349621 146.472775 
L 320.484109 131.497173 
L 320.618598 129.836848 
L 321.022062 159.125231 
L 321.15655 166.822077 
L 322.097968 266.326822 
L 322.232456 263.570016 
L 322.366944 272.347563 
L 322.501433 271.780939 
L 322.635921 283.075532 
L 322.770409 283.556787 
L 323.039385 275.673288 
L 323.308362 256.386707 
L 323.577338 147.76831 
L 323.846315 172.075171 
L 324.115291 149.094005 
L 324.518756 166.521732 
L 325.191197 262.248072 
L 325.325685 262.964777 
L 325.460173 261.340421 
L 325.594661 270.888949 
L 325.72915 270.915797 
L 325.998126 281.527517 
L 326.267103 276.687149 
L 326.401591 268.782734 
L 326.536079 251.59094 
L 326.805055 142.99281 
L 327.074032 172.988886 
L 327.343008 156.174757 
L 327.477496 167.121925 
L 327.611985 167.717554 
L 327.746473 170.346618 
L 327.880961 181.554647 
L 328.149937 227.074994 
L 328.553402 261.35978 
L 328.68789 263.437455 
L 328.822379 275.976474 
L 328.956867 275.170242 
L 329.091355 285.744533 
L 329.225843 284.155918 
L 329.49482 275.900609 
L 329.763796 249.725665 
L 330.032772 157.77662 
L 330.167261 161.877358 
L 330.301749 172.197697 
L 330.570725 157.832006 
L 330.705214 156.538932 
L 330.97419 187.935317 
L 331.243166 203.366034 
L 331.646631 259.890846 
L 331.781119 262.575419 
L 331.915607 261.45046 
L 332.319072 284.285215 
L 332.45356 282.99276 
L 332.588049 275.112697 
L 332.722537 274.699347 
L 332.991513 248.809489 
L 333.26049 152.796704 
L 333.394978 160.95223 
L 333.529466 177.649968 
L 333.798442 160.714754 
L 333.932931 164.269705 
L 334.201907 184.238834 
L 334.470883 204.57315 
L 334.874348 263.943979 
L 335.143325 267.871444 
L 335.277813 276.99628 
L 335.681277 271.454503 
L 335.815766 270.489979 
L 336.084742 272.972377 
L 336.21923 269.628682 
L 336.488207 259.534153 
L 336.757183 251.834864 
L 336.891671 255.119424 
L 337.02616 254.438482 
L 337.429624 263.595688 
L 337.833089 269.067905 
L 337.967577 268.504967 
L 338.102065 270.87342 
L 338.236553 271.046985 
L 338.371042 269.772713 
L 338.50553 271.992566 
L 338.640018 268.610017 
L 338.774506 268.317534 
L 338.908995 269.182737 
L 339.043483 268.464523 
L 339.177971 268.723901 
L 339.446947 270.866127 
L 339.581436 271.759194 
L 339.715924 271.239026 
L 339.850412 269.899641 
L 339.9849 271.022674 
L 340.119388 270.864749 
L 340.388365 271.024768 
L 340.522853 273.103938 
L 340.657341 271.425059 
L 340.926318 272.797881 
L 341.060806 272.594304 
L 341.195294 269.435358 
L 341.464271 272.899221 
L 341.598759 271.722744 
L 341.733247 276.086147 
L 341.867735 276.45828 
L 342.002223 285.931585 
L 342.136712 284.341753 
L 342.2712 278.672201 
L 342.405688 278.898153 
L 342.674664 252.498759 
L 343.078129 136.645716 
L 343.347106 169.628055 
L 343.481594 167.299719 
L 344.154035 201.43375 
L 344.423011 253.836606 
L 344.557499 262.496718 
L 344.691988 263.760042 
L 344.826476 267.250111 
L 344.960964 276.385853 
L 345.095452 274.559103 
L 345.22994 281.803158 
L 345.364429 281.493987 
L 345.633405 277.889547 
L 345.902382 255.074905 
L 346.171358 156.572678 
L 346.305846 172.269058 
L 346.440334 174.204401 
L 346.709311 164.916286 
L 347.381752 207.057904 
L 347.785217 260.653598 
L 348.054193 265.375574 
L 348.188681 276.100105 
L 348.323169 273.284072 
L 348.457658 282.922359 
L 348.592146 282.780791 
L 348.861122 278.247965 
L 349.130099 250.018755 
L 349.399075 155.530493 
L 349.533563 168.022496 
L 349.668052 166.832979 
L 349.937028 158.931121 
L 350.474981 193.065476 
L 350.878445 248.234145 
L 351.147422 267.069854 
L 351.28191 266.858809 
L 351.416398 275.607794 
L 351.550886 276.126838 
L 351.685375 286.764116 
L 351.819863 283.839624 
L 352.088839 276.954285 
L 352.223328 273.20283 
L 352.357816 257.512975 
L 352.626792 154.708571 
L 352.895769 173.067706 
L 353.030257 169.991822 
L 353.164745 162.367401 
L 353.299233 171.344094 
L 353.433721 172.219184 
L 353.56821 169.03046 
L 353.702698 162.777613 
L 354.106163 251.97873 
L 354.240651 268.686193 
L 354.375139 271.37998 
L 354.509627 270.088941 
L 354.778604 279.824139 
L 354.913092 282.117813 
L 355.316556 277.506155 
L 355.451045 271.349002 
L 355.585533 252.177304 
L 355.854509 174.028932 
L 355.988998 178.02618 
L 356.257974 150.3141 
L 356.392462 155.45327 
L 356.795927 184.577222 
L 356.930415 188.59293 
L 357.199391 236.04718 
L 357.468368 272.079822 
L 357.602856 273.128248 
L 357.737344 273.168654 
L 358.006321 280.90988 
L 358.275297 277.741854 
L 358.409785 278.847543 
L 358.544274 278.194812 
L 358.81325 276.198623 
L 359.082226 258.179536 
L 359.216715 255.250518 
L 359.351203 255.452265 
L 359.485691 253.218664 
L 359.620179 246.781897 
L 359.889156 264.635388 
L 360.023644 263.884863 
L 360.427109 277.737919 
L 360.696085 276.731167 
L 360.830573 277.36061 
L 360.965061 277.438305 
L 361.09955 279.778246 
L 361.503014 277.549976 
L 361.637502 278.998068 
L 361.771991 278.759173 
L 361.906479 278.015458 
L 362.175455 280.824463 
L 362.444432 281.63136 
L 362.713408 277.591696 
L 362.982385 279.054245 
L 363.116873 279.293095 
L 363.251361 278.71534 
L 363.520337 280.250725 
L 363.789314 278.648924 
L 363.923802 278.593547 
L 364.05829 278.062671 
L 364.192778 282.573763 
L 364.327267 245.831529 
L 364.461755 242.934254 
L 364.596243 254.063577 
L 364.730731 251.35597 
L 364.86522 252.858572 
L 364.999708 248.945542 
L 365.268684 190.344405 
L 365.537661 119.266146 
L 365.672149 108.047935 
L 365.806637 106.892463 
L 365.941125 102.847979 
L 366.34459 126.089982 
L 366.479078 129.790327 
L 366.613566 152.524588 
L 366.882543 240.236782 
L 367.151519 258.861616 
L 367.286007 258.483395 
L 367.420496 260.801325 
L 367.689472 270.104666 
L 367.82396 266.218199 
L 368.092937 268.94729 
L 368.765378 91.675273 
L 368.899866 102.438544 
L 369.034354 99.738315 
L 369.168842 92.595014 
L 369.706795 113.922752 
L 369.975772 191.028926 
L 370.244748 246.788146 
L 370.513724 252.711678 
L 370.782701 289.923357 
L 370.917189 289.390184 
L 371.051677 278.307296 
L 371.186166 277.938391 
L 371.320654 275.958574 
L 371.58963 243.998183 
L 371.858607 156.832523 
L 371.993095 155.591306 
L 372.262071 205.694423 
L 372.396559 200.347537 
L 372.531048 202.545041 
L 372.665536 200.752894 
L 372.800024 197.097881 
L 372.934512 205.893923 
L 373.203489 235.781098 
L 373.472465 259.6822 
L 373.741442 263.281834 
L 374.144906 295.488 
L 374.413883 286.312788 
L 374.548371 284.683589 
L 374.817347 250.775668 
L 375.086324 183.058787 
L 375.3553 170.590361 
L 375.489788 174.594535 
L 375.624277 175.214333 
L 375.758765 178.077458 
L 376.162229 203.814869 
L 376.565694 256.8635 
L 376.700182 265.746004 
L 376.83467 267.012339 
L 376.969159 266.10951 
L 377.103647 273.465002 
L 377.238135 286.901679 
L 377.776088 273.865737 
L 377.910576 278.81133 
L 378.179553 272.412582 
L 378.314041 255.462606 
L 378.448529 256.193586 
L 378.583017 249.857136 
L 378.851994 258.648803 
L 378.986482 268.023544 
L 379.255458 269.919307 
L 379.389947 274.599683 
L 379.524435 274.950905 
L 379.793411 280.478873 
L 379.927899 280.505132 
L 380.062388 281.039385 
L 380.196876 278.574095 
L 380.331364 279.707153 
L 380.465852 268.485382 
L 380.60034 267.653666 
L 380.869317 271.49774 
L 381.003805 270.748895 
L 381.40727 217.420025 
L 381.541758 153.001378 
L 381.676246 143.830314 
L 381.810734 146.967195 
L 381.945223 136.675216 
L 382.079711 140.322678 
L 382.348687 153.426303 
L 382.483175 147.977736 
L 383.155616 264.743849 
L 383.290105 268.124933 
L 383.424593 267.706505 
L 383.559081 271.771839 
L 383.828058 262.023174 
L 383.962546 262.072691 
L 384.097034 261.410278 
L 384.231522 261.942958 
L 384.36601 257.970411 
L 384.500499 258.810078 
L 384.903963 156.838595 
L 385.038451 158.927938 
L 385.17294 143.122829 
L 385.307428 147.485908 
L 385.441916 171.876353 
L 385.576404 169.447618 
L 385.710893 169.28394 
L 385.979869 209.871697 
L 386.383334 265.187783 
L 386.517822 266.896156 
L 386.65231 270.604564 
L 386.921286 284.219826 
L 387.055775 283.812092 
L 387.190263 277.596517 
L 387.324751 277.756999 
L 387.593727 273.729291 
L 387.728216 276.024353 
L 387.862704 274.377948 
L 387.997192 276.440196 
L 388.13168 275.288182 
L 388.266169 278.721589 
L 388.400657 278.78867 
L 388.535145 275.867055 
L 388.93861 282.428214 
L 389.073098 280.245663 
L 389.342074 284.423245 
L 389.611051 289.748283 
L 389.880027 284.762519 
L 390.014515 287.232353 
L 390.149004 265.675811 
L 390.283492 263.004073 
L 390.41798 267.959713 
L 390.686956 263.870001 
L 390.821445 251.539853 
L 390.955933 250.768318 
L 391.090421 237.906007 
L 391.224909 179.589084 
L 391.359397 172.938658 
L 391.493886 158.432712 
L 391.628374 157.889415 
L 391.89735 176.977254 
L 392.031839 179.384944 
L 392.166327 175.099 
L 392.435303 201.424695 
L 392.838768 275.031643 
L 392.973256 274.316772 
L 393.107744 272.218132 
L 393.242232 276.060841 
L 393.511209 261.524453 
L 393.645697 269.672418 
L 393.780185 270.47728 
L 393.914673 259.617882 
L 394.049162 259.858623 
L 394.18365 246.170429 
L 394.452626 166.484228 
L 394.587115 155.095098 
L 394.721603 154.621178 
L 394.856091 141.366764 
L 394.990579 142.109939 
L 395.259556 148.307536 
L 396.200973 261.907904 
L 396.46995 260.855848 
L 396.604438 290.113976 
L 396.738926 292.273171 
L 396.873414 282.71259 
L 397.007902 282.32832 
L 397.142391 282.527828 
L 397.411367 252.59828 
L 397.680343 165.496731 
L 397.814832 174.864938 
L 398.218296 151.621581 
L 398.352785 167.878099 
L 398.487273 166.45032 
L 398.487273 166.45032 
" clip-path="url(#p53414efa37)" style="fill: none; stroke: #ff7f0e; stroke-width: 1.5; stroke-linecap: square"/>
   </g>
   <g id="patch_3">
    <path d="M 57.6 307.584 
L 57.6 41.472 
" style="fill: none; stroke: #000000; stroke-width: 0.8; stroke-linejoin: miter; stroke-linecap: square"/>
   </g>
   <g id="patch_4">
    <path d="M 414.72 307.584 
L 414.72 41.472 
" style="fill: none; stroke: #000000; stroke-width: 0.8; stroke-linejoin: miter; stroke-linecap: square"/>
   </g>
   <g id="patch_5">
    <path d="M 57.6 307.584 
L 414.72 307.584 
" style="fill: none; stroke: #000000; stroke-width: 0.8; stroke-linejoin: miter; stroke-linecap: square"/>
   </g>
   <g id="patch_6">
    <path d="M 57.6 41.472 
L 414.72 41.472 
" style="fill: none; stroke: #000000; stroke-width: 0.8; stroke-linejoin: miter; stroke-linecap: square"/>
   </g>
  </g>
 </g>
 <defs>
  <clipPath id="p53414efa37">
   <rect x="57.6" y="41.472" width="357.12" height="266.112"/>
  </clipPath>
 </defs>
</svg>
