<?xml version="1.0" encoding="utf-8" standalone="no"?>
<!DOCTYPE svg PUBLIC "-//W3C//DTD SVG 1.1//EN"
  "http://www.w3.org/Graphics/SVG/1.1/DTD/svg11.dtd">
<svg xmlns:xlink="http://www.w3.org/1999/xlink" width="460.8pt" height="345.6pt" viewBox="0 0 460.8 345.6" xmlns="http://www.w3.org/2000/svg" version="1.1">
 <metadata>
  <rdf:RDF xmlns:dc="http://purl.org/dc/elements/1.1/" xmlns:cc="http://creativecommons.org/ns#" xmlns:rdf="http://www.w3.org/1999/02/22-rdf-syntax-ns#">
   <cc:Work>
    <dc:type rdf:resource="http://purl.org/dc/dcmitype/StillImage"/>
    <dc:date>2023-04-04T05:06:36.954722</dc:date>
    <dc:format>image/svg+xml</dc:format>
    <dc:creator>
     <cc:Agent>
      <dc:title>Matplotlib v3.5.2, https://matplotlib.org/</dc:title>
     </cc:Agent>
    </dc:creator>
   </cc:Work>
  </rdf:RDF>
 </metadata>
 <defs>
  <style type="text/css">*{stroke-linejoin: round; stroke-linecap: butt}</style>
 </defs>
 <g id="figure_1">
  <g id="patch_1">
   <path d="M 0 345.6 
L 460.8 345.6 
L 460.8 0 
L 0 0 
z
" style="fill: #ffffff"/>
  </g>
  <g id="axes_1">
   <g id="patch_2">
    <path d="M 57.6 307.584 
L 414.72 307.584 
L 414.72 41.472 
L 57.6 41.472 
z
" style="fill: #ffffff"/>
   </g>
   <g id="matplotlib.axis_1">
    <g id="xtick_1">
     <g id="line2d_1">
      <defs>
       <path id="me00146b540" d="M 0 0 
L 0 3.5 
" style="stroke: #000000; stroke-width: 0.8"/>
      </defs>
      <g>
       <use xlink:href="#me00146b540" x="73.832727" y="307.584" style="stroke: #000000; stroke-width: 0.8"/>
      </g>
     </g>
     <g id="text_1">
      <!-- 0 -->
      <g transform="translate(70.651477 322.182437)scale(0.1 -0.1)">
       <defs>
        <path id="DejaVuSans-30" d="M 2034 4250 
Q 1547 4250 1301 3770 
Q 1056 3291 1056 2328 
Q 1056 1369 1301 889 
Q 1547 409 2034 409 
Q 2525 409 2770 889 
Q 3016 1369 3016 2328 
Q 3016 3291 2770 3770 
Q 2525 4250 2034 4250 
z
M 2034 4750 
Q 2819 4750 3233 4129 
Q 3647 3509 3647 2328 
Q 3647 1150 3233 529 
Q 2819 -91 2034 -91 
Q 1250 -91 836 529 
Q 422 1150 422 2328 
Q 422 3509 836 4129 
Q 1250 4750 2034 4750 
z
" transform="scale(0.015625)"/>
       </defs>
       <use xlink:href="#DejaVuSans-30"/>
      </g>
     </g>
    </g>
    <g id="xtick_2">
     <g id="line2d_2">
      <g>
       <use xlink:href="#me00146b540" x="141.076834" y="307.584" style="stroke: #000000; stroke-width: 0.8"/>
      </g>
     </g>
     <g id="text_2">
      <!-- 500 -->
      <g transform="translate(131.533084 322.182437)scale(0.1 -0.1)">
       <defs>
        <path id="DejaVuSans-35" d="M 691 4666 
L 3169 4666 
L 3169 4134 
L 1269 4134 
L 1269 2991 
Q 1406 3038 1543 3061 
Q 1681 3084 1819 3084 
Q 2600 3084 3056 2656 
Q 3513 2228 3513 1497 
Q 3513 744 3044 326 
Q 2575 -91 1722 -91 
Q 1428 -91 1123 -41 
Q 819 9 494 109 
L 494 744 
Q 775 591 1075 516 
Q 1375 441 1709 441 
Q 2250 441 2565 725 
Q 2881 1009 2881 1497 
Q 2881 1984 2565 2268 
Q 2250 2553 1709 2553 
Q 1456 2553 1204 2497 
Q 953 2441 691 2322 
L 691 4666 
z
" transform="scale(0.015625)"/>
       </defs>
       <use xlink:href="#DejaVuSans-35"/>
       <use xlink:href="#DejaVuSans-30" x="63.623047"/>
       <use xlink:href="#DejaVuSans-30" x="127.246094"/>
      </g>
     </g>
    </g>
    <g id="xtick_3">
     <g id="line2d_3">
      <g>
       <use xlink:href="#me00146b540" x="208.32094" y="307.584" style="stroke: #000000; stroke-width: 0.8"/>
      </g>
     </g>
     <g id="text_3">
      <!-- 1000 -->
      <g transform="translate(195.59594 322.182437)scale(0.1 -0.1)">
       <defs>
        <path id="DejaVuSans-31" d="M 794 531 
L 1825 531 
L 1825 4091 
L 703 3866 
L 703 4441 
L 1819 4666 
L 2450 4666 
L 2450 531 
L 3481 531 
L 3481 0 
L 794 0 
L 794 531 
z
" transform="scale(0.015625)"/>
       </defs>
       <use xlink:href="#DejaVuSans-31"/>
       <use xlink:href="#DejaVuSans-30" x="63.623047"/>
       <use xlink:href="#DejaVuSans-30" x="127.246094"/>
       <use xlink:href="#DejaVuSans-30" x="190.869141"/>
      </g>
     </g>
    </g>
    <g id="xtick_4">
     <g id="line2d_4">
      <g>
       <use xlink:href="#me00146b540" x="275.565046" y="307.584" style="stroke: #000000; stroke-width: 0.8"/>
      </g>
     </g>
     <g id="text_4">
      <!-- 1500 -->
      <g transform="translate(262.840046 322.182437)scale(0.1 -0.1)">
       <use xlink:href="#DejaVuSans-31"/>
       <use xlink:href="#DejaVuSans-35" x="63.623047"/>
       <use xlink:href="#DejaVuSans-30" x="127.246094"/>
       <use xlink:href="#DejaVuSans-30" x="190.869141"/>
      </g>
     </g>
    </g>
    <g id="xtick_5">
     <g id="line2d_5">
      <g>
       <use xlink:href="#me00146b540" x="342.809153" y="307.584" style="stroke: #000000; stroke-width: 0.8"/>
      </g>
     </g>
     <g id="text_5">
      <!-- 2000 -->
      <g transform="translate(330.084153 322.182437)scale(0.1 -0.1)">
       <defs>
        <path id="DejaVuSans-32" d="M 1228 531 
L 3431 531 
L 3431 0 
L 469 0 
L 469 531 
Q 828 903 1448 1529 
Q 2069 2156 2228 2338 
Q 2531 2678 2651 2914 
Q 2772 3150 2772 3378 
Q 2772 3750 2511 3984 
Q 2250 4219 1831 4219 
Q 1534 4219 1204 4116 
Q 875 4013 500 3803 
L 500 4441 
Q 881 4594 1212 4672 
Q 1544 4750 1819 4750 
Q 2544 4750 2975 4387 
Q 3406 4025 3406 3419 
Q 3406 3131 3298 2873 
Q 3191 2616 2906 2266 
Q 2828 2175 2409 1742 
Q 1991 1309 1228 531 
z
" transform="scale(0.015625)"/>
       </defs>
       <use xlink:href="#DejaVuSans-32"/>
       <use xlink:href="#DejaVuSans-30" x="63.623047"/>
       <use xlink:href="#DejaVuSans-30" x="127.246094"/>
       <use xlink:href="#DejaVuSans-30" x="190.869141"/>
      </g>
     </g>
    </g>
    <g id="xtick_6">
     <g id="line2d_6">
      <g>
       <use xlink:href="#me00146b540" x="410.053259" y="307.584" style="stroke: #000000; stroke-width: 0.8"/>
      </g>
     </g>
     <g id="text_6">
      <!-- 2500 -->
      <g transform="translate(397.328259 322.182437)scale(0.1 -0.1)">
       <use xlink:href="#DejaVuSans-32"/>
       <use xlink:href="#DejaVuSans-35" x="63.623047"/>
       <use xlink:href="#DejaVuSans-30" x="127.246094"/>
       <use xlink:href="#DejaVuSans-30" x="190.869141"/>
      </g>
     </g>
    </g>
   </g>
   <g id="matplotlib.axis_2">
    <g id="ytick_1">
     <g id="line2d_7">
      <defs>
       <path id="m99847ee626" d="M 0 0 
L -3.5 0 
" style="stroke: #000000; stroke-width: 0.8"/>
      </defs>
      <g>
       <use xlink:href="#m99847ee626" x="57.6" y="275.420112" style="stroke: #000000; stroke-width: 0.8"/>
      </g>
     </g>
     <g id="text_7">
      <!-- 100 -->
      <g transform="translate(31.5125 279.219331)scale(0.1 -0.1)">
       <use xlink:href="#DejaVuSans-31"/>
       <use xlink:href="#DejaVuSans-30" x="63.623047"/>
       <use xlink:href="#DejaVuSans-30" x="127.246094"/>
      </g>
     </g>
    </g>
    <g id="ytick_2">
     <g id="line2d_8">
      <g>
       <use xlink:href="#m99847ee626" x="57.6" y="228.672972" style="stroke: #000000; stroke-width: 0.8"/>
      </g>
     </g>
     <g id="text_8">
      <!-- 200 -->
      <g transform="translate(31.5125 232.472191)scale(0.1 -0.1)">
       <use xlink:href="#DejaVuSans-32"/>
       <use xlink:href="#DejaVuSans-30" x="63.623047"/>
       <use xlink:href="#DejaVuSans-30" x="127.246094"/>
      </g>
     </g>
    </g>
    <g id="ytick_3">
     <g id="line2d_9">
      <g>
       <use xlink:href="#m99847ee626" x="57.6" y="181.925831" style="stroke: #000000; stroke-width: 0.8"/>
      </g>
     </g>
     <g id="text_9">
      <!-- 300 -->
      <g transform="translate(31.5125 185.72505)scale(0.1 -0.1)">
       <defs>
        <path id="DejaVuSans-33" d="M 2597 2516 
Q 3050 2419 3304 2112 
Q 3559 1806 3559 1356 
Q 3559 666 3084 287 
Q 2609 -91 1734 -91 
Q 1441 -91 1130 -33 
Q 819 25 488 141 
L 488 750 
Q 750 597 1062 519 
Q 1375 441 1716 441 
Q 2309 441 2620 675 
Q 2931 909 2931 1356 
Q 2931 1769 2642 2001 
Q 2353 2234 1838 2234 
L 1294 2234 
L 1294 2753 
L 1863 2753 
Q 2328 2753 2575 2939 
Q 2822 3125 2822 3475 
Q 2822 3834 2567 4026 
Q 2313 4219 1838 4219 
Q 1578 4219 1281 4162 
Q 984 4106 628 3988 
L 628 4550 
Q 988 4650 1302 4700 
Q 1616 4750 1894 4750 
Q 2613 4750 3031 4423 
Q 3450 4097 3450 3541 
Q 3450 3153 3228 2886 
Q 3006 2619 2597 2516 
z
" transform="scale(0.015625)"/>
       </defs>
       <use xlink:href="#DejaVuSans-33"/>
       <use xlink:href="#DejaVuSans-30" x="63.623047"/>
       <use xlink:href="#DejaVuSans-30" x="127.246094"/>
      </g>
     </g>
    </g>
    <g id="ytick_4">
     <g id="line2d_10">
      <g>
       <use xlink:href="#m99847ee626" x="57.6" y="135.178691" style="stroke: #000000; stroke-width: 0.8"/>
      </g>
     </g>
     <g id="text_10">
      <!-- 400 -->
      <g transform="translate(31.5125 138.977909)scale(0.1 -0.1)">
       <defs>
        <path id="DejaVuSans-34" d="M 2419 4116 
L 825 1625 
L 2419 1625 
L 2419 4116 
z
M 2253 4666 
L 3047 4666 
L 3047 1625 
L 3713 1625 
L 3713 1100 
L 3047 1100 
L 3047 0 
L 2419 0 
L 2419 1100 
L 313 1100 
L 313 1709 
L 2253 4666 
z
" transform="scale(0.015625)"/>
       </defs>
       <use xlink:href="#DejaVuSans-34"/>
       <use xlink:href="#DejaVuSans-30" x="63.623047"/>
       <use xlink:href="#DejaVuSans-30" x="127.246094"/>
      </g>
     </g>
    </g>
    <g id="ytick_5">
     <g id="line2d_11">
      <g>
       <use xlink:href="#m99847ee626" x="57.6" y="88.43155" style="stroke: #000000; stroke-width: 0.8"/>
      </g>
     </g>
     <g id="text_11">
      <!-- 500 -->
      <g transform="translate(31.5125 92.230769)scale(0.1 -0.1)">
       <use xlink:href="#DejaVuSans-35"/>
       <use xlink:href="#DejaVuSans-30" x="63.623047"/>
       <use xlink:href="#DejaVuSans-30" x="127.246094"/>
      </g>
     </g>
    </g>
    <g id="ytick_6">
     <g id="line2d_12">
      <g>
       <use xlink:href="#m99847ee626" x="57.6" y="41.684409" style="stroke: #000000; stroke-width: 0.8"/>
      </g>
     </g>
     <g id="text_12">
      <!-- 600 -->
      <g transform="translate(31.5125 45.483628)scale(0.1 -0.1)">
       <defs>
        <path id="DejaVuSans-36" d="M 2113 2584 
Q 1688 2584 1439 2293 
Q 1191 2003 1191 1497 
Q 1191 994 1439 701 
Q 1688 409 2113 409 
Q 2538 409 2786 701 
Q 3034 994 3034 1497 
Q 3034 2003 2786 2293 
Q 2538 2584 2113 2584 
z
M 3366 4563 
L 3366 3988 
Q 3128 4100 2886 4159 
Q 2644 4219 2406 4219 
Q 1781 4219 1451 3797 
Q 1122 3375 1075 2522 
Q 1259 2794 1537 2939 
Q 1816 3084 2150 3084 
Q 2853 3084 3261 2657 
Q 3669 2231 3669 1497 
Q 3669 778 3244 343 
Q 2819 -91 2113 -91 
Q 1303 -91 875 529 
Q 447 1150 447 2328 
Q 447 3434 972 4092 
Q 1497 4750 2381 4750 
Q 2619 4750 2861 4703 
Q 3103 4656 3366 4563 
z
" transform="scale(0.015625)"/>
       </defs>
       <use xlink:href="#DejaVuSans-36"/>
       <use xlink:href="#DejaVuSans-30" x="63.623047"/>
       <use xlink:href="#DejaVuSans-30" x="127.246094"/>
      </g>
     </g>
    </g>
   </g>
   <g id="line2d_13">
    <path d="M 73.832727 278.423149 
L 74.101704 277.886024 
L 74.236192 276.800088 
L 74.37068 277.74251 
L 74.505168 277.261015 
L 74.639657 277.849561 
L 74.774145 271.521868 
L 74.908633 245.009695 
L 75.177609 243.549782 
L 75.312098 244.092984 
L 75.446586 244.144406 
L 75.581074 244.991931 
L 75.715562 244.252391 
L 75.85005 244.230888 
L 76.253515 239.356096 
L 76.522492 272.658291 
L 76.65698 272.964485 
L 76.925956 271.295612 
L 77.060444 262.636172 
L 77.194933 264.830015 
L 77.463909 264.892189 
L 77.598397 266.441389 
L 77.732885 261.23329 
L 77.867374 248.123522 
L 78.405327 102.987207 
L 78.674303 102.085922 
L 78.808791 109.065738 
L 78.943279 104.36952 
L 79.481232 155.898893 
L 79.750209 224.713957 
L 80.019185 258.66547 
L 80.153673 260.742445 
L 80.288161 256.992857 
L 80.42265 267.158023 
L 80.557138 266.733091 
L 80.826114 269.184979 
L 80.960603 266.701303 
L 81.095091 256.616543 
L 81.364067 165.860241 
L 81.498555 177.887813 
L 81.767532 158.914084 
L 82.036508 166.739088 
L 82.170996 163.707068 
L 82.305485 157.865078 
L 83.112414 256.149071 
L 83.650367 281.751078 
L 83.784855 281.771179 
L 83.919343 283.265685 
L 84.053831 283.453609 
L 84.18832 281.403279 
L 84.322808 274.339319 
L 84.726273 186.210207 
L 84.860761 177.737755 
L 84.995249 181.74305 
L 85.129737 167.192067 
L 85.264225 175.543912 
L 85.398714 176.274569 
L 85.66769 184.386133 
L 85.802178 192.960961 
L 86.340131 258.227449 
L 86.474619 260.195504 
L 86.609107 264.996435 
L 86.878084 282.124587 
L 87.012572 284.325443 
L 87.14706 284.00616 
L 87.281549 285.463736 
L 87.416037 285.368839 
L 87.550525 284.57554 
L 87.819501 257.684247 
L 87.95399 257.826826 
L 88.088478 252.267189 
L 88.222966 253.694379 
L 88.357454 252.953437 
L 88.491942 249.669918 
L 88.626431 252.441556 
L 88.760919 245.603384 
L 88.895407 248.416627 
L 89.029895 248.415224 
L 89.164384 250.919001 
L 89.43336 271.74532 
L 89.567848 273.371653 
L 89.702336 272.884548 
L 89.836825 273.920932 
L 89.971313 259.1091 
L 90.105801 259.806568 
L 90.240289 261.3165 
L 90.374777 261.091179 
L 90.509266 262.299593 
L 90.643754 262.467415 
L 90.778242 264.520082 
L 90.91273 261.368857 
L 91.047218 251.651529 
L 91.181707 250.506691 
L 91.316195 243.729758 
L 91.450683 248.065556 
L 91.585171 246.143313 
L 91.71966 247.608369 
L 91.854148 247.829483 
L 92.123124 250.746037 
L 92.257612 250.186006 
L 92.526589 255.656824 
L 92.795565 262.107462 
L 92.930053 263.04147 
L 93.064542 261.926083 
L 93.19903 271.722414 
L 93.468006 271.844424 
L 93.602495 272.881743 
L 93.736983 271.674732 
L 93.871471 269.20695 
L 94.005959 264.102162 
L 94.6784 159.195034 
L 94.812888 154.893362 
L 95.081865 166.495535 
L 95.216353 161.39215 
L 95.350841 150.370109 
L 96.023282 260.515254 
L 96.157771 261.229083 
L 96.426747 265.071698 
L 96.561235 264.745403 
L 96.695723 264.821133 
L 96.830212 266.663438 
L 96.9647 266.039364 
L 97.099188 264.642559 
L 97.233676 256.356629 
L 97.368164 239.17051 
L 97.502653 199.028273 
L 97.637141 192.084452 
L 97.771629 176.943521 
L 97.906117 185.159331 
L 98.040606 178.589955 
L 98.175094 179.284618 
L 98.309582 174.079324 
L 98.44407 175.68649 
L 98.713047 186.81231 
L 98.982023 227.860974 
L 99.250999 261.96535 
L 99.385488 266.551712 
L 99.519976 267.28985 
L 99.654464 276.885635 
L 99.788952 276.89779 
L 99.923441 275.91797 
L 100.192417 277.129655 
L 100.326905 277.208658 
L 100.461393 276.567755 
L 100.595882 276.965105 
L 100.73037 277.776168 
L 100.864858 276.270443 
L 100.999346 277.401724 
L 101.133834 276.513061 
L 101.268323 274.344928 
L 101.402811 267.469359 
L 101.537299 271.650423 
L 101.806276 261.485725 
L 101.940764 263.600565 
L 102.075252 263.455182 
L 102.20974 264.089541 
L 102.344228 266.417548 
L 102.478717 272.111817 
L 102.613205 270.298963 
L 102.747693 275.848316 
L 102.882181 262.677309 
L 103.016669 262.705358 
L 103.151158 267.507224 
L 103.285646 267.292655 
L 103.554622 263.200877 
L 103.68911 259.101621 
L 103.823599 242.046861 
L 104.092575 181.104484 
L 104.227063 160.078555 
L 104.361552 167.090626 
L 104.630528 142.74565 
L 105.033993 157.736991 
L 105.168481 168.287353 
L 105.706434 249.582968 
L 105.840922 249.463295 
L 105.97541 257.976884 
L 106.109898 274.059303 
L 106.378875 277.18061 
L 106.513363 277.167053 
L 106.647851 279.278154 
L 106.782339 279.015435 
L 106.916828 280.103241 
L 107.320292 243.331473 
L 107.45478 250.244907 
L 107.589269 247.764972 
L 107.723757 247.855661 
L 108.26171 242.900464 
L 108.396198 239.565991 
L 108.530686 241.777598 
L 108.934151 272.714388 
L 109.068639 274.197207 
L 109.203127 273.152876 
L 109.337615 268.753035 
L 109.606592 270.268578 
L 109.875568 271.298417 
L 110.144545 272.324984 
L 110.413521 271.113766 
L 110.548009 270.981939 
L 110.951474 267.019184 
L 111.085962 268.167294 
L 111.22045 267.827442 
L 111.623915 262.157014 
L 111.758403 262.653936 
L 112.02738 266.353505 
L 112.430844 267.916261 
L 112.565333 257.897882 
L 112.834309 262.00602 
L 112.968797 262.517902 
L 113.103285 263.993709 
L 113.237774 264.168076 
L 113.50675 266.727014 
L 113.641238 267.538545 
L 114.313679 256.557174 
L 114.448168 256.204233 
L 114.582656 254.755539 
L 114.98612 244.169649 
L 115.524073 254.981328 
L 115.658561 255.51892 
L 115.927538 257.694064 
L 116.062026 256.439371 
L 116.196514 262.397762 
L 116.331002 261.990126 
L 116.465491 262.587087 
L 116.599979 253.054878 
L 117.137932 78.534713 
L 117.406908 64.175394 
L 117.810373 80.329336 
L 118.213837 145.963723 
L 118.482814 206.850004 
L 118.75179 240.479897 
L 118.886279 241.978143 
L 119.289743 249.78585 
L 119.424231 251.170968 
L 119.55872 253.877628 
L 119.693208 254.187094 
L 119.827696 244.795126 
L 120.365649 91.092865 
L 120.634625 72.958714 
L 120.769114 76.564321 
L 120.903602 70.294127 
L 121.03809 71.59136 
L 121.441555 133.547215 
L 121.710531 198.823988 
L 121.845019 226.348704 
L 122.248484 237.058474 
L 122.51746 252.213429 
L 122.651948 252.369097 
L 122.786437 254.067421 
L 122.920925 252.758034 
L 123.055413 244.787179 
L 123.727854 60.310808 
L 123.862342 53.568 
L 124.534783 106.440886 
L 125.072736 244.10467 
L 125.207225 249.155232 
L 125.341713 249.607744 
L 125.476201 249.562399 
L 125.745177 262.845599 
L 125.879666 264.248948 
L 126.014154 264.473335 
L 126.28313 251.335051 
L 126.821083 92.172724 
L 126.955571 74.248468 
L 127.09006 80.693028 
L 127.359036 104.65982 
L 127.493524 107.045794 
L 127.762501 125.112629 
L 127.896989 147.384837 
L 128.300453 242.524617 
L 128.434942 248.191773 
L 128.56943 246.406967 
L 128.703918 253.733646 
L 128.838406 254.440931 
L 129.241871 260.978518 
L 129.510847 240.749161 
L 130.0488 82.816283 
L 130.183288 73.919368 
L 130.317777 85.560808 
L 130.452265 113.714741 
L 130.586753 112.817663 
L 130.721241 109.255064 
L 130.855729 115.496742 
L 131.124706 167.531919 
L 131.393682 231.6517 
L 131.662659 254.216077 
L 131.931635 254.024414 
L 132.066123 253.846307 
L 132.3351 264.856194 
L 132.469588 264.711278 
L 132.604076 264.808044 
L 132.738564 264.767374 
L 133.007541 253.15258 
L 133.276517 242.935992 
L 133.679982 237.487613 
L 133.81447 236.332958 
L 133.948958 231.352518 
L 134.486911 240.999725 
L 134.755888 247.921574 
L 134.890376 247.809381 
L 135.697305 261.720395 
L 135.831793 266.360049 
L 135.966282 266.95514 
L 136.10077 265.018874 
L 136.235258 266.487201 
L 136.369746 266.21934 
L 136.504234 262.020045 
L 136.638723 261.864844 
L 136.907699 259.975325 
L 137.311164 249.346427 
L 137.445652 249.844284 
L 137.58014 247.224575 
L 137.983605 253.878563 
L 138.118093 252.997846 
L 138.252581 254.789664 
L 138.387069 259.176416 
L 138.521558 257.97221 
L 138.656046 258.168548 
L 138.925022 262.753975 
L 139.193999 246.890333 
L 139.731951 81.005767 
L 139.86644 72.297242 
L 140.269904 97.699171 
L 140.538881 121.555639 
L 140.673369 128.48076 
L 140.807857 142.50537 
L 141.076834 220.743254 
L 141.480298 253.157254 
L 142.018251 261.398775 
L 142.152739 260.945795 
L 142.421716 237.763888 
L 142.959669 90.770777 
L 143.094157 83.527775 
L 143.228645 83.051422 
L 143.363133 93.038481 
L 143.497621 83.980755 
L 143.63211 88.987841 
L 144.573527 254.375952 
L 144.708015 257.784286 
L 144.842504 257.955848 
L 145.11148 260.145952 
L 145.245968 262.239289 
L 145.380456 258.256432 
L 145.783921 198.514989 
L 146.052897 108.959154 
L 146.187386 90.283672 
L 146.456362 105.240419 
L 146.59085 116.298923 
L 146.725339 110.740688 
L 146.859827 117.982287 
L 146.994315 113.022883 
L 147.128803 125.58384 
L 147.532268 230.366153 
L 147.801244 255.780236 
L 147.935732 255.977977 
L 148.204709 261.128577 
L 148.339197 261.10754 
L 148.473685 261.599788 
L 148.742662 260.570416 
L 148.87715 243.285661 
L 149.280615 117.849526 
L 149.415103 113.901262 
L 149.549591 105.023045 
L 149.684079 106.250625 
L 150.087544 138.228942 
L 150.222032 130.708729 
L 150.35652 136.105219 
L 150.894473 248.370347 
L 151.028961 257.337384 
L 151.16345 256.401038 
L 151.835891 264.393864 
L 151.970379 263.149923 
L 152.104867 242.668131 
L 152.508332 111.973877 
L 152.64282 115.013377 
L 152.911796 103.424293 
L 153.046285 117.258174 
L 153.180773 115.790782 
L 153.449749 149.49547 
L 153.718726 189.529721 
L 153.987702 244.89236 
L 154.12219 261.563325 
L 154.256678 262.911513 
L 154.525655 266.687747 
L 154.794631 268.353815 
L 155.063608 271.232971 
L 155.198096 272.838268 
L 155.332584 272.209051 
L 155.467072 267.925611 
L 155.601561 257.682845 
L 155.736049 256.840929 
L 155.870537 254.039373 
L 156.005025 256.13084 
L 156.274002 254.275913 
L 156.40849 254.800416 
L 156.542978 256.026126 
L 156.677466 254.856045 
L 157.215419 262.687126 
L 157.349907 264.648636 
L 157.484396 263.678633 
L 157.618884 264.43173 
L 157.88786 267.537142 
L 158.022348 268.007418 
L 158.291325 270.939867 
L 158.560301 275.126073 
L 158.694789 273.594637 
L 158.829278 274.537526 
L 158.963766 274.149993 
L 159.232742 271.496158 
L 159.367231 271.771966 
L 159.501719 269.832427 
L 160.039672 256.062122 
L 160.308648 256.315491 
L 160.443136 261.907384 
L 160.577624 261.630173 
L 160.712113 259.718215 
L 160.846601 260.404463 
L 160.981089 261.863442 
L 161.250066 265.536832 
L 161.519042 266.4671 
L 161.788018 250.075683 
L 162.460459 83.2328 
L 162.594948 82.903701 
L 162.729436 81.476978 
L 162.998412 100.632554 
L 163.132901 109.378944 
L 163.401877 149.728271 
L 163.670853 218.886458 
L 164.074318 252.218572 
L 164.208806 253.326479 
L 164.477783 265.700447 
L 164.612271 268.009288 
L 164.746759 263.411707 
L 165.015735 246.291969 
L 165.4192 119.426307 
L 165.553688 121.967481 
L 165.822665 108.384165 
L 165.957153 113.52261 
L 166.091641 110.506485 
L 166.360618 99.30774 
L 166.495106 105.363364 
L 166.89857 218.007144 
L 167.033059 224.823345 
L 167.302035 242.802763 
L 167.974476 260.855106 
L 168.108964 255.30809 
L 168.243453 241.608841 
L 168.377941 204.382223 
L 168.646917 105.193205 
L 168.781405 106.447431 
L 168.915894 102.022814 
L 169.050382 103.293868 
L 169.18487 107.004656 
L 169.319358 92.019393 
L 169.453847 94.442297 
L 169.857311 146.625663 
L 170.126288 223.076404 
L 170.395264 253.203534 
L 170.529752 254.063681 
L 170.66424 257.423866 
L 170.798729 257.608984 
L 171.067705 259.884168 
L 171.202193 262.655338 
L 171.47117 241.354536 
L 172.009123 109.164842 
L 172.143611 107.623589 
L 172.412587 96.128934 
L 172.95054 127.903901 
L 173.622981 255.129049 
L 173.757469 259.029163 
L 173.891958 272.110415 
L 174.026446 271.202118 
L 174.160934 271.159111 
L 174.42991 272.655954 
L 174.698887 258.195194 
L 174.833375 241.45364 
L 175.102351 174.461715 
L 175.371328 141.832679 
L 175.505816 138.997465 
L 175.640304 148.937309 
L 175.774792 148.63392 
L 175.909281 150.011558 
L 176.043769 154.711516 
L 176.178257 154.410464 
L 176.312745 168.562694 
L 176.581722 234.722519 
L 176.850698 261.247314 
L 176.985186 258.808516 
L 177.254163 263.438353 
L 177.388651 263.395813 
L 177.792116 269.809521 
L 177.926604 270.68042 
L 178.19558 260.201113 
L 178.330069 259.770572 
L 178.599045 252.3705 
L 178.733533 251.817481 
L 178.868021 254.074901 
L 179.136998 250.641791 
L 179.271486 251.224727 
L 179.540462 248.793409 
L 179.809439 256.135515 
L 179.943927 263.247157 
L 180.212904 261.387088 
L 180.48188 271.039438 
L 180.616368 271.052995 
L 180.750856 271.417155 
L 180.885345 272.230555 
L 181.019833 272.315167 
L 181.692274 260.272169 
L 181.826762 261.539951 
L 181.96125 255.685807 
L 182.095738 257.429475 
L 182.364715 262.750235 
L 182.499203 264.000721 
L 182.633691 267.080423 
L 182.902668 266.280112 
L 183.171644 272.278705 
L 183.306132 273.66429 
L 183.440621 272.578354 
L 183.575109 270.326077 
L 183.844085 281.806239 
L 183.978573 282.736975 
L 184.113062 280.507136 
L 184.382038 269.366358 
L 184.919991 179.612315 
L 185.054479 183.541412 
L 185.188967 176.620966 
L 185.457944 180.398135 
L 185.592432 181.86506 
L 185.995897 218.807455 
L 186.264873 248.746194 
L 186.53385 264.163868 
L 186.802826 274.197207 
L 187.071802 284.468489 
L 187.206291 283.342818 
L 187.340779 284.452595 
L 187.475267 281.343443 
L 187.609755 273.517036 
L 188.01322 199.240037 
L 188.147708 183.193146 
L 188.282196 183.407248 
L 188.416684 182.4695 
L 188.551173 185.71048 
L 188.685661 191.974597 
L 188.820149 187.657498 
L 188.954637 191.997503 
L 189.089126 200.190407 
L 189.627078 260.861183 
L 189.761567 263.394411 
L 189.896055 268.517897 
L 190.030543 266.13426 
L 190.299519 267.926546 
L 190.434008 266.780306 
L 190.971961 270.131608 
L 191.106449 266.753193 
L 191.240937 266.278242 
L 191.375425 266.70738 
L 191.509913 262.373453 
L 191.644402 263.889463 
L 191.913378 262.650664 
L 192.182354 257.134968 
L 192.316843 257.476223 
L 192.451331 256.98865 
L 192.585819 258.281208 
L 192.720307 263.927795 
L 192.989284 265.158648 
L 193.392748 262.528654 
L 193.661725 265.349376 
L 193.796213 265.872476 
L 194.065189 258.153589 
L 194.603142 156.616462 
L 194.73763 151.809453 
L 194.872119 142.069687 
L 195.006607 143.611875 
L 195.141095 148.254801 
L 195.275583 141.013669 
L 195.54456 154.122034 
L 195.948024 246.147053 
L 196.217001 256.263602 
L 196.351489 258.149381 
L 196.485977 267.421209 
L 196.620465 266.782643 
L 196.889442 267.327715 
L 197.02393 268.43235 
L 197.158418 266.739168 
L 197.292907 260.551717 
L 197.830859 193.292866 
L 197.965348 195.555428 
L 198.099836 192.307904 
L 198.234324 196.618458 
L 198.5033 183.575538 
L 198.772277 197.083124 
L 199.31023 268.083149 
L 199.713694 277.002503 
L 199.848183 275.858601 
L 200.117159 276.571027 
L 200.251647 274.825489 
L 200.386135 269.169085 
L 200.520624 268.774539 
L 200.655112 256.091105 
L 200.7896 209.868935 
L 200.924088 207.940615 
L 201.058576 196.504395 
L 201.193065 196.153791 
L 201.327553 193.525667 
L 201.462041 195.652194 
L 201.731018 184.102378 
L 201.865506 185.434672 
L 202.134482 207.648913 
L 202.403459 259.988414 
L 202.806923 269.579525 
L 203.0759 261.287517 
L 203.210388 265.522808 
L 203.344876 265.64622 
L 203.748341 256.468354 
L 203.882829 239.44959 
L 204.151805 178.80172 
L 204.420782 162.678631 
L 204.55527 157.169013 
L 204.689758 160.532937 
L 204.824246 154.171119 
L 204.958735 169.855252 
L 205.093223 170.096467 
L 205.765664 255.899909 
L 205.900152 256.400103 
L 206.03464 260.119773 
L 206.169129 274.654394 
L 206.303617 275.125138 
L 206.572593 278.980375 
L 206.84157 279.774609 
L 207.110546 270.585056 
L 207.379522 261.596516 
L 207.514011 260.737303 
L 207.917475 268.683382 
L 208.051964 268.442167 
L 208.32094 262.215915 
L 208.589916 263.783814 
L 208.858893 271.664915 
L 208.993381 275.241071 
L 209.127869 275.812321 
L 209.262357 275.279871 
L 209.396846 269.549139 
L 209.531334 270.623388 
L 209.80031 270.217156 
L 209.934799 271.187159 
L 210.203775 259.263833 
L 211.010704 107.421641 
L 211.279681 132.501482 
L 211.683145 164.901925 
L 212.221098 250.687135 
L 212.355586 253.09882 
L 212.759051 268.017235 
L 212.893539 267.814353 
L 213.028027 267.912522 
L 213.162516 270.505586 
L 213.431492 253.175953 
L 213.56598 215.900251 
L 213.834957 133.75337 
L 213.969445 138.242031 
L 214.103933 137.173859 
L 214.238421 140.072649 
L 214.910862 177.585359 
L 215.448815 256.187404 
L 215.583303 261.049107 
L 215.717792 261.654015 
L 216.121256 265.827132 
L 216.255745 266.764412 
L 216.390233 269.105041 
L 216.524721 265.180619 
L 216.659209 257.819347 
L 217.062674 147.104354 
L 217.197162 148.976577 
L 217.33165 149.055579 
L 217.466138 160.281438 
L 217.600627 159.024407 
L 217.735115 147.416625 
L 217.869603 152.538241 
L 218.273068 193.850092 
L 218.542044 251.444906 
L 218.811021 267.893355 
L 218.945509 260.62885 
L 219.483462 271.12592 
L 219.61795 272.886885 
L 219.886926 259.422306 
L 220.290391 159.948598 
L 220.693856 148.530609 
L 220.828344 158.972985 
L 220.962832 155.133643 
L 221.231808 181.723416 
L 221.500785 195.301123 
L 221.769761 251.31121 
L 222.038738 266.619496 
L 222.173226 265.882293 
L 222.307714 267.081825 
L 222.576691 273.007025 
L 222.845667 275.591207 
L 222.980155 273.953655 
L 223.114643 275.788012 
L 223.38362 255.662434 
L 223.518108 259.447082 
L 223.652596 259.293751 
L 223.921573 252.476148 
L 224.190549 251.817481 
L 224.325037 254.255345 
L 224.459525 253.639685 
L 224.728502 249.859711 
L 225.131967 256.980235 
L 225.266455 255.524529 
L 225.535431 256.966679 
L 225.669919 255.680665 
L 226.073384 265.249337 
L 226.34236 268.218715 
L 226.476849 268.148127 
L 226.745825 265.065153 
L 226.880313 267.302939 
L 227.014802 267.541349 
L 227.14929 267.250115 
L 227.283778 265.858452 
L 227.418266 267.502549 
L 227.552754 267.628767 
L 227.687243 267.462814 
L 227.956219 266.375476 
L 228.090707 272.078627 
L 228.225195 272.11696 
L 228.359684 273.197286 
L 228.494172 272.439515 
L 228.62866 273.391754 
L 228.763148 273.279561 
L 228.897637 271.035698 
L 229.301101 271.922024 
L 229.435589 265.828534 
L 229.570078 252.017559 
L 230.242519 93.705095 
L 230.377007 79.155047 
L 230.511495 108.555259 
L 230.780471 116.352682 
L 231.049448 143.290722 
L 231.587401 249.900848 
L 231.856377 260.906995 
L 232.125354 265.628456 
L 232.39433 270.195185 
L 232.528818 269.397211 
L 232.797795 252.623869 
L 232.932283 217.054438 
L 233.201259 131.581498 
L 233.335748 123.563896 
L 233.470236 133.661278 
L 233.604724 133.87912 
L 233.739212 146.423715 
L 233.8737 131.971837 
L 234.008189 138.564586 
L 234.815118 260.33668 
L 234.949606 260.075364 
L 235.218583 265.864997 
L 235.622047 273.452993 
L 235.756535 272.866784 
L 236.025512 260.455418 
L 236.563465 127.50655 
L 236.832441 115.531335 
L 237.63937 197.604355 
L 237.908347 254.552189 
L 238.177323 262.484244 
L 238.849764 277.113294 
L 238.984252 276.304568 
L 239.118741 272.579756 
L 239.253229 258.948757 
L 239.791182 126.751584 
L 240.194646 144.142922 
L 240.463623 162.89881 
L 240.732599 176.094593 
L 241.270552 252.069448 
L 241.674017 257.831033 
L 241.942993 270.52335 
L 242.077481 276.896855 
L 242.21197 276.283065 
L 242.480946 258.6636 
L 242.884411 149.09064 
L 243.018899 156.809995 
L 243.153387 154.606802 
L 243.287875 143.841403 
L 243.422363 151.667342 
L 243.556852 148.910196 
L 243.825828 165.227753 
L 244.229293 235.820142 
L 244.498269 257.771664 
L 244.767246 262.942366 
L 245.17071 270.647229 
L 245.305198 271.495223 
L 245.439687 271.20539 
L 245.574175 270.000716 
L 245.708663 258.768314 
L 245.843151 264.110109 
L 246.112128 261.186543 
L 246.381104 256.108869 
L 246.515592 256.076146 
L 247.188033 266.117899 
L 247.322522 266.51525 
L 247.45701 267.365113 
L 247.591498 267.017781 
L 247.725986 270.118519 
L 247.860475 268.709093 
L 248.129451 270.006326 
L 248.263939 269.140569 
L 248.398427 269.809521 
L 248.532916 269.659462 
L 248.667404 271.565811 
L 248.801892 271.469044 
L 249.205357 272.977107 
L 249.339845 273.09117 
L 249.608821 272.161837 
L 249.743309 272.290859 
L 250.012286 271.435854 
L 250.146774 270.44014 
L 250.281262 270.506988 
L 250.415751 269.955839 
L 250.550239 268.894679 
L 250.819215 269.188719 
L 250.953703 269.951632 
L 251.088192 268.838583 
L 251.357168 270.070837 
L 251.491656 278.788244 
L 251.626144 278.308618 
L 251.760633 278.730278 
L 251.895121 278.573675 
L 252.164097 266.579293 
L 252.70205 141.77144 
L 252.836538 161.102785 
L 252.971027 157.729044 
L 253.240003 170.373678 
L 253.374491 171.698959 
L 253.508979 168.83336 
L 253.777956 200.981368 
L 254.046932 251.287369 
L 254.315909 272.177263 
L 254.719373 280.361285 
L 254.853862 280.126147 
L 255.122838 281.824003 
L 255.391814 261.484322 
L 255.660791 170.168458 
L 255.795279 173.545004 
L 256.198744 158.19371 
L 256.333232 161.791838 
L 256.46772 159.181945 
L 256.602208 160.353428 
L 257.409138 253.483082 
L 257.812602 260.801347 
L 258.081579 275.695921 
L 258.216067 276.737914 
L 258.350555 276.023618 
L 258.619532 262.143925 
L 258.888508 174.874025 
L 259.022996 175.725291 
L 259.157484 166.858293 
L 259.291973 166.294522 
L 259.426461 151.12788 
L 259.695437 164.546647 
L 259.829925 153.643811 
L 259.964414 162.530443 
L 260.771343 256.490325 
L 261.040319 258.682766 
L 261.309296 266.027677 
L 261.443784 269.175629 
L 261.71276 266.321249 
L 261.847249 254.184756 
L 262.116225 167.838113 
L 262.250713 171.919606 
L 262.654178 146.033377 
L 262.788666 153.183819 
L 262.923154 148.51191 
L 263.326619 182.937907 
L 263.461107 193.611681 
L 263.864572 241.383519 
L 264.268036 259.055341 
L 264.402525 258.313464 
L 264.671501 261.672713 
L 264.805989 261.549301 
L 264.940478 260.618098 
L 265.074966 253.205871 
L 265.209454 234.483174 
L 265.612919 122.541536 
L 265.881895 104.802399 
L 266.016383 114.108352 
L 266.150871 113.980265 
L 266.28536 113.541309 
L 266.419848 118.077184 
L 266.688824 154.583429 
L 266.957801 231.771372 
L 267.226777 248.093604 
L 267.361265 246.700539 
L 267.495754 262.731536 
L 267.630242 262.42207 
L 267.76473 264.252688 
L 267.899218 264.557479 
L 268.168195 270.944074 
L 268.302683 271.810766 
L 268.437171 269.301847 
L 268.706147 271.78599 
L 268.975124 268.363164 
L 269.2441 266.51712 
L 269.916541 252.321883 
L 270.320006 254.172602 
L 270.588982 258.959042 
L 270.723471 272.767212 
L 270.857959 273.785832 
L 270.992447 272.338074 
L 271.126935 273.203363 
L 271.261424 273.232346 
L 271.395912 273.050032 
L 271.799376 275.770716 
L 271.933865 274.413647 
L 272.068353 274.761445 
L 272.202841 274.129891 
L 272.337329 274.36129 
L 272.471817 273.535268 
L 272.606306 271.413883 
L 272.740794 272.670446 
L 272.875282 272.354435 
L 273.00977 271.691093 
L 273.144258 269.404223 
L 273.278747 269.306521 
L 273.547723 272.224478 
L 273.682211 272.434373 
L 273.8167 273.104259 
L 273.951188 272.260006 
L 274.085676 282.69537 
L 274.354652 284.295057 
L 274.489141 282.754739 
L 274.758117 268.329506 
L 275.29607 163.941739 
L 275.565046 151.946422 
L 275.699535 152.276925 
L 275.834023 169.876756 
L 275.968511 172.113606 
L 276.102999 182.069812 
L 276.77544 259.824331 
L 277.447881 276.882831 
L 277.58237 280.212629 
L 277.716858 279.829303 
L 277.851346 275.517347 
L 277.985834 265.729898 
L 278.389299 206.410114 
L 278.523787 187.306895 
L 278.658275 185.347722 
L 278.792763 176.018863 
L 278.927252 187.911335 
L 279.06174 182.204912 
L 279.196228 184.254774 
L 279.330716 191.799762 
L 280.137646 269.994172 
L 280.272134 272.333866 
L 280.406622 264.140962 
L 280.54111 263.862349 
L 280.810087 265.010459 
L 280.944575 264.399474 
L 281.213551 256.635241 
L 281.348039 228.250845 
L 281.482528 159.160909 
L 281.617016 149.151411 
L 281.751504 126.208382 
L 281.885992 127.337793 
L 282.154969 140.58453 
L 282.289457 122.820617 
L 282.423945 126.829184 
L 282.558433 135.762095 
L 282.82741 183.265604 
L 283.096386 250.488927 
L 283.365363 256.990052 
L 283.499851 259.154445 
L 283.634339 258.496245 
L 283.768827 258.50653 
L 283.903316 258.692116 
L 284.037804 259.971585 
L 284.172292 260.09827 
L 284.441268 255.005636 
L 285.113709 141.966375 
L 285.248198 140.911292 
L 285.382686 136.462367 
L 285.517174 145.524768 
L 285.651662 142.483866 
L 285.78615 145.90529 
L 286.055127 198.004043 
L 286.324103 246.617797 
L 286.59308 256.107934 
L 286.727568 255.988729 
L 286.862056 274.55903 
L 286.996544 274.616997 
L 287.131033 273.658213 
L 287.265521 274.251901 
L 287.668985 270.794015 
L 287.803474 271.654163 
L 288.07245 270.796353 
L 288.206938 268.667488 
L 288.341427 268.613261 
L 288.475915 266.312835 
L 288.610403 265.949142 
L 288.744891 264.847312 
L 288.879379 267.619885 
L 289.013868 267.952724 
L 289.148356 265.197448 
L 289.417332 272.211389 
L 289.55182 273.374925 
L 289.820797 273.020582 
L 289.955285 273.795182 
L 290.089773 272.325452 
L 290.224262 273.841929 
L 290.35875 272.952798 
L 290.493238 273.913452 
L 290.627726 272.402117 
L 291.031191 254.778913 
L 291.300167 189.899958 
L 291.434655 184.425868 
L 291.569144 185.021427 
L 291.703632 189.004283 
L 291.972608 176.51111 
L 292.376073 189.332448 
L 293.048514 264.21716 
L 293.183002 265.43913 
L 293.31749 264.310187 
L 293.451979 265.046922 
L 293.586467 264.13582 
L 293.720955 266.561997 
L 293.855443 266.820041 
L 294.258908 243.372143 
L 294.527884 186.530425 
L 294.796861 155.474897 
L 294.931349 139.919786 
L 295.065837 139.788426 
L 295.200325 147.602678 
L 295.334814 141.995826 
L 295.60379 169.498104 
L 295.738278 183.701755 
L 296.141743 252.515416 
L 296.276231 251.643114 
L 296.410719 258.699128 
L 296.545208 276.02689 
L 296.948672 278.147341 
L 297.486625 280.073323 
L 297.621113 279.734874 
L 297.755601 279.731134 
L 298.024578 276.622449 
L 298.159066 276.475195 
L 298.428042 274.377184 
L 298.697019 270.629933 
L 298.831507 269.517819 
L 298.965995 269.378512 
L 299.100484 269.726778 
L 299.36946 273.433359 
L 299.503948 272.937372 
L 299.638436 274.448707 
L 299.772925 264.989423 
L 299.907413 268.321092 
L 300.041901 268.02565 
L 300.176389 268.87411 
L 300.310877 268.596432 
L 300.579854 257.853472 
L 301.252295 126.533274 
L 301.386783 126.60059 
L 301.521271 139.519163 
L 301.65576 132.721193 
L 301.790248 141.940665 
L 302.597177 248.48441 
L 302.731665 250.200965 
L 303.000642 262.351482 
L 303.13513 262.571193 
L 303.269618 263.04147 
L 303.404106 265.449882 
L 303.538595 265.860322 
L 303.807571 249.841012 
L 304.345524 161.926002 
L 304.6145 151.62153 
L 304.748988 159.688216 
L 304.883477 150.313545 
L 305.017965 156.267728 
L 306.093871 260.835005 
L 306.228359 261.824642 
L 306.497335 271.769161 
L 306.766312 272.777497 
L 306.9008 268.166826 
L 307.035288 257.84646 
L 307.304265 167.290236 
L 307.438753 174.400944 
L 307.842217 155.539408 
L 307.976706 162.44396 
L 308.111194 154.200102 
L 308.245682 159.059467 
L 308.649147 204.10548 
L 309.052611 259.299361 
L 309.590564 271.275978 
L 309.994029 272.943916 
L 310.128517 269.464527 
L 310.263005 257.11066 
L 310.531982 167.181316 
L 310.66647 168.308857 
L 310.935446 166.067331 
L 311.069934 156.910501 
L 311.204423 163.23165 
L 311.338911 161.967607 
L 311.473399 155.334655 
L 311.607887 168.198066 
L 311.876864 204.993675 
L 312.14584 246.441093 
L 312.414817 258.001193 
L 312.818281 266.432975 
L 312.952769 266.008043 
L 313.087258 267.854555 
L 313.221746 267.757789 
L 313.356234 269.301847 
L 313.625211 258.965119 
L 313.759699 251.237817 
L 313.894187 254.520868 
L 314.028675 252.044672 
L 314.163163 253.888847 
L 314.297652 251.185927 
L 314.566628 257.612724 
L 314.701116 258.332163 
L 314.970093 262.986775 
L 315.104581 262.949845 
L 315.239069 262.659546 
L 315.508045 265.531222 
L 315.642534 266.057128 
L 315.777022 265.733637 
L 316.180487 268.661411 
L 316.314975 268.23087 
L 316.718439 270.536439 
L 316.852928 270.780459 
L 316.987416 269.94462 
L 317.121904 270.008663 
L 317.256392 268.911976 
L 317.39088 269.053619 
L 317.525369 267.546492 
L 317.659857 268.446842 
L 317.928833 265.979527 
L 318.332298 262.320161 
L 318.466786 262.961065 
L 318.601274 262.468817 
L 318.735763 263.895072 
L 318.870251 263.73473 
L 319.139227 264.828145 
L 319.273715 274.461329 
L 319.67718 275.556614 
L 319.811668 273.030866 
L 319.946157 265.240455 
L 320.349621 145.759906 
L 320.484109 129.941141 
L 320.887574 156.658534 
L 321.022062 161.229002 
L 321.291039 175.707527 
L 321.425527 177.470829 
L 321.560015 195.532054 
L 321.828991 249.918145 
L 321.96348 257.839448 
L 322.097968 258.609841 
L 322.635921 274.966665 
L 322.770409 275.306517 
L 322.904897 274.660939 
L 323.173874 264.443416 
L 323.44285 170.939318 
L 323.577338 171.293662 
L 323.711826 171.490935 
L 323.980803 151.728581 
L 324.249779 155.194881 
L 324.384268 157.904346 
L 324.787732 193.402722 
L 325.056709 246.805253 
L 325.325685 255.886352 
L 325.863638 273.342202 
L 325.998126 275.073249 
L 326.132614 275.137292 
L 326.267103 271.990275 
L 326.401591 263.176101 
L 326.670567 163.896394 
L 326.805055 169.729502 
L 326.939544 170.877612 
L 327.20852 157.923044 
L 327.343008 165.899042 
L 327.611985 162.222379 
L 327.746473 166.982173 
L 328.149937 220.553461 
L 328.418914 250.764268 
L 328.68789 263.311668 
L 328.822379 265.714471 
L 328.956867 275.554277 
L 329.225843 276.48174 
L 329.360331 275.651978 
L 329.629308 263.083542 
L 330.032772 175.89919 
L 330.301749 164.793472 
L 330.570725 156.166287 
L 330.839702 177.5704 
L 330.97419 178.757778 
L 331.108678 181.446673 
L 331.781119 255.769484 
L 332.050096 262.785295 
L 332.184584 273.337995 
L 332.319072 274.27434 
L 332.45356 273.623152 
L 332.588049 274.590351 
L 332.857025 262.242094 
L 333.26049 175.280725 
L 333.394978 177.151078 
L 333.663954 162.547272 
L 333.798442 163.715015 
L 333.932931 167.404299 
L 334.336395 184.900352 
L 334.73986 251.239219 
L 335.143325 266.643337 
L 335.277813 266.448869 
L 335.412301 266.544233 
L 335.546789 266.823781 
L 335.681277 266.720937 
L 335.950254 269.24949 
L 336.084742 267.198225 
L 336.622695 251.075137 
L 336.757183 251.853476 
L 336.891671 250.062126 
L 337.295136 256.288378 
L 337.698601 260.922889 
L 337.833089 260.453548 
L 338.102065 264.468192 
L 338.236553 264.241001 
L 338.371042 264.865076 
L 338.50553 262.578205 
L 339.043483 265.671464 
L 339.446947 268.605314 
L 339.581436 268.133636 
L 339.715924 266.988798 
L 339.850412 267.242635 
L 339.9849 266.478787 
L 340.119388 266.368464 
L 340.253877 265.904732 
L 340.388365 267.351089 
L 340.522853 265.403603 
L 340.657341 265.989812 
L 340.926318 265.678008 
L 341.060806 262.408981 
L 341.329782 267.189343 
L 341.464271 267.089772 
L 341.598759 267.607263 
L 341.733247 269.141037 
L 341.867735 276.800088 
L 342.136712 276.899659 
L 342.2712 277.527941 
L 342.540176 265.096941 
L 342.943641 152.32227 
L 343.212617 168.585132 
L 343.347106 167.866161 
L 343.75057 181.951075 
L 343.885058 183.590964 
L 344.019547 182.942114 
L 344.423011 249.412341 
L 345.22994 274.570249 
L 345.364429 275.63141 
L 345.498917 275.271457 
L 345.633405 271.142749 
L 345.767893 263.227056 
L 346.03687 180.731909 
L 346.171358 184.76385 
L 346.440334 171.482053 
L 346.574823 166.222999 
L 346.843799 172.95786 
L 347.112775 174.787543 
L 347.381752 208.547393 
L 347.650728 246.645845 
L 348.054193 264.232119 
L 348.188681 265.389579 
L 348.323169 274.171029 
L 348.457658 275.001258 
L 348.592146 276.832811 
L 348.726634 276.641615 
L 348.99561 264.004928 
L 349.264587 179.703472 
L 349.399075 181.146556 
L 349.668052 163.95623 
L 349.80254 159.930367 
L 350.206004 178.234677 
L 350.340493 179.389799 
L 351.012934 257.890402 
L 351.147422 260.162313 
L 351.550886 276.47613 
L 351.685375 275.779131 
L 351.954351 276.138149 
L 352.088839 274.770327 
L 352.223328 267.634844 
L 352.492304 175.712201 
L 352.626792 182.725675 
L 352.76128 171.596583 
L 352.895769 170.902855 
L 353.030257 162.799706 
L 353.164745 169.858057 
L 353.299233 167.825024 
L 353.56821 150.426205 
L 354.240651 264.370491 
L 354.375139 265.484008 
L 354.644115 271.222219 
L 354.913092 275.405621 
L 355.182068 276.425643 
L 355.316556 274.074262 
L 355.451045 265.139949 
L 355.854509 193.39384 
L 356.123486 155.87365 
L 356.257974 157.550937 
L 356.392462 165.978044 
L 356.52695 165.358177 
L 356.661439 175.738847 
L 356.795927 174.514072 
L 357.33388 260.152029 
L 357.602856 269.544932 
L 357.737344 271.467642 
L 357.871832 275.632345 
L 358.006321 275.066237 
L 358.140809 275.276131 
L 358.275297 276.000245 
L 358.409785 275.91423 
L 358.678762 274.681508 
L 359.082226 256.606726 
L 359.351203 250.826909 
L 359.485691 244.68901 
L 359.620179 255.194027 
L 359.754667 256.57821 
L 359.889156 256.74276 
L 360.427109 270.727635 
L 360.561597 271.392846 
L 360.965061 275.451901 
L 361.234038 275.4131 
L 361.368526 275.225644 
L 361.503014 276.503244 
L 361.771991 276.104491 
L 361.906479 277.406866 
L 362.040967 277.360119 
L 362.175455 277.727551 
L 362.309944 277.767286 
L 362.57892 274.427203 
L 362.713408 274.379054 
L 362.982385 273.268342 
L 363.116873 271.807493 
L 363.251361 271.707922 
L 363.385849 272.775627 
L 363.520337 271.939788 
L 363.654826 271.881354 
L 364.05829 274.608582 
L 364.192778 249.151024 
L 364.730731 255.276302 
L 364.86522 254.106221 
L 364.999708 242.279195 
L 365.134196 220.593664 
L 365.403172 134.122205 
L 365.672149 104.463482 
L 365.806637 98.666369 
L 366.075613 115.255994 
L 366.34459 112.177695 
L 366.479078 123.369895 
L 367.017031 247.109109 
L 367.151519 251.964735 
L 367.286007 250.265944 
L 367.554984 261.388491 
L 367.689472 262.236951 
L 367.958448 267.034143 
L 368.227425 243.965831 
L 368.496401 150.018103 
L 368.765378 99.222192 
L 369.034354 88.548418 
L 369.168842 93.17171 
L 369.303331 92.736494 
L 369.437819 96.034972 
L 369.572307 93.957062 
L 369.706795 109.730015 
L 370.244748 230.986488 
L 370.782701 274.282755 
L 370.917189 274.581469 
L 371.051677 275.454705 
L 371.186166 275.181702 
L 371.455142 260.66765 
L 371.858607 169.325139 
L 372.127583 200.650398 
L 372.262071 196.673619 
L 372.396559 198.070891 
L 372.665536 187.603739 
L 372.800024 191.320137 
L 373.203489 230.208148 
L 373.472465 252.00634 
L 373.87593 272.762538 
L 374.010418 281.59541 
L 374.144906 281.452364 
L 374.279394 282.634131 
L 374.413883 282.141416 
L 374.682859 265.921561 
L 375.220812 178.360894 
L 375.489788 174.806242 
L 375.624277 175.024551 
L 375.893253 181.425637 
L 376.027741 185.633347 
L 376.565694 251.827298 
L 376.83467 260.534888 
L 376.969159 263.313071 
L 377.103647 274.88252 
L 377.238135 273.812011 
L 377.507112 275.842239 
L 377.6416 273.916724 
L 377.776088 277.383492 
L 378.045064 275.280339 
L 378.179553 265.836949 
L 378.314041 265.224094 
L 378.448529 258.269054 
L 378.583017 259.249342 
L 378.717505 258.350862 
L 378.851994 262.769869 
L 378.986482 262.025187 
L 379.12097 262.914785 
L 379.255458 265.030093 
L 379.389947 264.91603 
L 379.927899 273.981235 
L 380.062388 273.77882 
L 380.196876 274.186923 
L 380.331364 264.479879 
L 380.60034 266.367996 
L 380.869317 267.989187 
L 381.138293 257.314945 
L 381.272782 230.770984 
L 381.541758 157.693048 
L 381.810734 137.939577 
L 381.945223 139.498594 
L 382.214199 145.853868 
L 382.348687 138.026059 
L 382.752152 186.872614 
L 383.021128 253.497106 
L 383.155616 261.264611 
L 383.290105 261.913461 
L 383.424593 263.174699 
L 383.559081 258.345719 
L 383.693569 257.648252 
L 383.962546 257.987636 
L 384.097034 259.153977 
L 384.231522 257.406102 
L 384.36601 258.770183 
L 385.038451 146.894926 
L 385.17294 149.288848 
L 385.307428 164.118443 
L 385.576404 158.588256 
L 386.248845 256.285573 
L 386.921286 274.413179 
L 387.055775 273.614738 
L 387.190263 274.866626 
L 387.324751 274.189728 
L 387.459239 274.347733 
L 387.593727 275.807179 
L 387.728216 275.244343 
L 387.862704 276.535032 
L 387.997192 275.389259 
L 388.13168 276.947809 
L 388.266169 275.983416 
L 388.400657 274.0378 
L 388.535145 274.125217 
L 388.669633 273.475899 
L 388.804121 274.592221 
L 388.93861 272.092184 
L 389.207586 274.189728 
L 389.476562 280.746014 
L 389.611051 279.708695 
L 389.745539 280.509006 
L 389.880027 280.458052 
L 390.014515 265.850038 
L 390.283492 266.094058 
L 390.41798 266.103875 
L 390.552468 265.975788 
L 390.686956 260.585375 
L 390.821445 260.766754 
L 390.955933 252.088147 
L 391.224909 197.029365 
L 391.359397 166.266474 
L 391.493886 162.354673 
L 391.762862 172.839122 
L 391.89735 172.306205 
L 392.031839 165.224013 
L 392.166327 168.851123 
L 392.300815 177.65548 
L 392.569791 236.637282 
L 392.70428 262.411786 
L 392.973256 267.159893 
L 393.107744 267.804536 
L 393.376721 260.885959 
L 393.645697 266.492344 
L 393.780185 263.167687 
L 393.914673 264.525224 
L 394.049162 257.256978 
L 394.721603 144.884332 
L 394.990579 143.833456 
L 395.125067 143.421614 
L 395.259556 154.584364 
L 395.394044 155.437499 
L 395.931997 241.862678 
L 396.200973 255.207584 
L 396.335461 251.543543 
L 396.46995 275.833825 
L 396.604438 276.209672 
L 397.007902 279.185595 
L 397.276879 266.382955 
L 397.545855 194.108604 
L 397.680343 189.022047 
L 397.94932 166.099587 
L 398.083808 152.894922 
L 398.218296 165.390433 
L 398.352785 160.716654 
L 398.487273 163.670605 
L 398.487273 163.670605 
" clip-path="url(#p5a7e4b421e)" style="fill: none; stroke: #1f77b4; stroke-width: 1.5; stroke-linecap: square"/>
   </g>
   <g id="line2d_14">
    <path d="M 73.832727 275.516733 
L 73.967215 275.94863 
L 74.101704 275.861033 
L 74.37068 274.849418 
L 74.505168 272.433095 
L 74.639657 273.551383 
L 74.774145 273.071796 
L 74.908633 273.136362 
L 75.043121 263.016587 
L 75.177609 221.27578 
L 75.312098 226.709404 
L 75.446586 244.6096 
L 75.581074 242.522363 
L 76.119027 248.463785 
L 76.253515 249.052554 
L 76.388003 248.8794 
L 76.522492 249.482741 
L 76.791468 273.638929 
L 76.925956 267.316734 
L 77.060444 275.035923 
L 77.194933 272.106142 
L 77.329421 253.999422 
L 77.463909 254.400149 
L 77.598397 258.725724 
L 77.732885 252.417904 
L 77.867374 251.833872 
L 78.001862 236.179569 
L 78.539815 93.399377 
L 78.674303 116.379237 
L 78.943279 98.65897 
L 79.212256 120.954996 
L 80.019185 258.793992 
L 80.153673 254.219109 
L 80.42265 268.669199 
L 80.557138 257.687936 
L 80.691626 269.974686 
L 80.826114 268.027818 
L 81.229579 248.682889 
L 81.364067 224.543466 
L 81.633044 125.184114 
L 81.90202 163.362286 
L 82.036508 170.300031 
L 82.170996 215.433308 
L 82.305485 202.555561 
L 82.439973 204.765646 
L 82.574461 187.39925 
L 82.843438 220.051585 
L 82.977926 216.230507 
L 83.112414 230.697628 
L 83.246902 215.969791 
L 83.38139 215.500305 
L 83.515879 258.915131 
L 83.919343 285.64041 
L 84.053831 283.091469 
L 84.18832 278.545463 
L 84.322808 215.491315 
L 84.457296 245.293024 
L 84.591784 215.491315 
L 84.860761 215.491315 
L 84.995249 217.189326 
L 85.129737 169.231516 
L 85.264225 178.575527 
L 85.398714 166.435765 
L 85.936666 215.99692 
L 86.340131 263.535898 
L 86.609107 259.07713 
L 87.012572 278.271748 
L 87.14706 284.794794 
L 87.281549 284.585402 
L 87.416037 281.670374 
L 87.550525 282.405491 
L 87.685013 282.166292 
L 87.819501 280.114901 
L 88.088478 237.347324 
L 88.222966 246.171665 
L 88.357454 246.959947 
L 88.491942 248.888578 
L 88.626431 253.300659 
L 88.760919 248.63482 
L 88.895407 254.482814 
L 89.029895 249.529239 
L 89.43336 257.292041 
L 89.567848 269.646949 
L 89.702336 271.603554 
L 89.836825 269.758606 
L 90.105801 273.470123 
L 90.240289 256.037555 
L 90.374777 254.408363 
L 90.509266 262.175337 
L 90.643754 259.407458 
L 90.91273 258.214748 
L 91.047218 259.856635 
L 91.181707 254.201923 
L 91.316195 237.167521 
L 91.450683 239.184105 
L 91.585171 237.253598 
L 91.854148 247.828314 
L 91.988636 247.672695 
L 92.392101 256.251363 
L 92.526589 256.301057 
L 92.930053 262.406453 
L 93.064542 262.694989 
L 93.19903 270.4943 
L 93.333518 263.94788 
L 93.468006 277.058549 
L 93.602495 275.460144 
L 93.736983 264.225243 
L 93.871471 264.695706 
L 94.274936 242.162587 
L 94.543912 157.111612 
L 94.6784 166.530572 
L 94.947377 151.936011 
L 95.081865 154.398369 
L 95.619818 184.836571 
L 95.888794 245.974567 
L 96.426747 268.747807 
L 96.561235 267.059885 
L 96.695723 266.98677 
L 96.9647 257.163501 
L 97.099188 260.241702 
L 97.233676 256.039595 
L 97.502653 225.275517 
L 97.771629 154.360752 
L 98.175094 175.803922 
L 98.309582 176.40972 
L 98.44407 176.306766 
L 98.713047 193.937862 
L 99.385488 264.229264 
L 99.519976 262.10681 
L 99.654464 274.206413 
L 99.788952 272.800819 
L 99.923441 283.939156 
L 100.057929 281.635691 
L 100.192417 268.746437 
L 100.461393 267.307075 
L 100.595882 265.747482 
L 100.864858 260.004998 
L 100.999346 267.969564 
L 101.133834 268.327484 
L 101.402811 275.202409 
L 101.537299 271.192034 
L 101.671787 263.430437 
L 101.806276 272.897734 
L 102.075252 260.265033 
L 102.20974 270.389336 
L 102.344228 270.495756 
L 102.478717 269.353681 
L 102.747693 271.897535 
L 103.016669 282.278803 
L 103.285646 246.518929 
L 103.420134 263.036078 
L 103.554622 258.685174 
L 103.958087 230.086095 
L 104.227063 147.684494 
L 104.361552 150.663913 
L 104.49604 153.003032 
L 104.630528 163.058103 
L 104.899504 142.827765 
L 105.168481 178.208662 
L 105.437457 215.358016 
L 105.706434 253.055374 
L 105.840922 261.69424 
L 105.97541 260.241545 
L 106.109898 255.098052 
L 106.244387 265.128651 
L 106.378875 289.362322 
L 106.513363 286.987467 
L 106.782339 269.773572 
L 106.916828 272.262516 
L 107.051316 270.16959 
L 107.185804 270.62839 
L 107.45478 193.394789 
L 107.723757 242.226731 
L 107.858245 237.87954 
L 107.992733 237.215911 
L 108.26171 244.537199 
L 108.530686 247.695939 
L 108.665174 248.727417 
L 108.799663 253.226058 
L 109.068639 271.509408 
L 109.203127 268.416827 
L 109.337615 274.059129 
L 109.472104 272.469637 
L 109.606592 266.496247 
L 109.74108 267.408795 
L 109.875568 269.091079 
L 110.279033 267.462881 
L 110.413521 267.852898 
L 110.682498 265.794065 
L 110.816986 267.123088 
L 111.085962 264.736466 
L 111.22045 265.573215 
L 111.489427 268.98621 
L 111.758403 266.581629 
L 111.892891 265.585099 
L 112.02738 266.305536 
L 112.161868 268.144226 
L 112.296356 267.475294 
L 112.430844 266.063525 
L 112.565333 269.525022 
L 112.699821 269.611624 
L 112.834309 257.745646 
L 112.968797 257.624946 
L 113.103285 263.514181 
L 113.237774 261.291556 
L 113.372262 261.174612 
L 113.50675 260.185969 
L 113.775726 262.788163 
L 113.910215 262.965662 
L 114.044703 260.105721 
L 114.179191 259.644206 
L 114.313679 259.67694 
L 114.448168 253.951899 
L 114.582656 255.631498 
L 114.717144 258.740987 
L 114.851632 257.53676 
L 115.120609 251.72696 
L 115.255097 252.276929 
L 115.524073 258.835245 
L 115.658561 257.920057 
L 115.79305 263.372964 
L 116.331002 246.800876 
L 116.465491 253.004388 
L 116.599979 251.506511 
L 116.734467 243.682106 
L 116.868955 217.422854 
L 117.137932 114.206457 
L 117.27242 78.593878 
L 117.406908 99.833641 
L 117.675885 74.161379 
L 117.944861 103.180134 
L 118.348326 184.886951 
L 118.617302 253.624485 
L 118.75179 253.734845 
L 119.020767 248.442932 
L 119.155255 253.491701 
L 119.289743 251.025706 
L 119.424231 252.228528 
L 119.693208 241.03492 
L 119.827696 241.036993 
L 119.962184 236.918386 
L 120.096672 212.216612 
L 120.365649 110.4816 
L 120.500137 96.323176 
L 120.634625 106.204466 
L 120.769114 89.882107 
L 120.903602 89.398727 
L 121.03809 94.151156 
L 121.307066 118.591494 
L 121.979507 256.394227 
L 122.248484 241.631254 
L 122.382972 243.621133 
L 122.51746 247.838576 
L 122.651948 258.43304 
L 122.786437 256.58019 
L 123.055413 241.25618 
L 123.189901 234.82929 
L 123.32439 215.065415 
L 123.593366 112.899129 
L 123.727854 90.593501 
L 123.996831 89.750915 
L 124.131319 87.276556 
L 124.265807 99.313653 
L 124.534783 137.833023 
L 124.669272 150.54923 
L 124.938248 222.2161 
L 125.207225 256.941034 
L 125.341713 255.871956 
L 125.476201 247.609529 
L 125.610689 254.173284 
L 125.745177 253.033949 
L 125.879666 264.85287 
L 126.014154 266.491539 
L 126.28313 251.259301 
L 126.552107 211.275274 
L 126.821083 116.373395 
L 126.955571 102.174921 
L 127.09006 105.707124 
L 127.359036 88.17314 
L 128.031477 195.308996 
L 128.300453 253.567872 
L 128.434942 256.312126 
L 128.56943 253.399003 
L 128.703918 254.69738 
L 128.838406 252.595538 
L 128.972894 257.275237 
L 129.107383 255.584577 
L 129.241871 248.540682 
L 129.376359 250.544872 
L 129.510847 247.32096 
L 130.183288 82.713401 
L 130.317777 105.520133 
L 130.452265 90.246547 
L 130.586753 90.125672 
L 130.855729 129.575505 
L 130.990218 136.713966 
L 131.662659 254.093454 
L 131.797147 256.594876 
L 131.931635 261.620891 
L 132.066123 261.058071 
L 132.3351 255.83051 
L 132.469588 257.745629 
L 132.604076 264.680027 
L 133.007541 258.528204 
L 133.276517 239.538409 
L 133.545494 231.000625 
L 133.679982 232.26421 
L 133.81447 232.064762 
L 134.083447 237.6699 
L 134.217935 234.695807 
L 134.621399 248.75717 
L 135.29384 258.98814 
L 135.428329 259.950153 
L 135.562817 259.782775 
L 135.697305 259.361793 
L 135.966282 260.278761 
L 136.10077 265.03863 
L 136.235258 264.336877 
L 136.369746 258.039325 
L 136.638723 261.966031 
L 136.773211 255.274789 
L 137.042187 259.307672 
L 137.176675 259.21659 
L 137.445652 250.98915 
L 137.714628 255.873803 
L 137.849117 253.871891 
L 138.118093 258.28922 
L 138.252581 257.628079 
L 138.387069 263.254553 
L 138.521558 261.023286 
L 138.656046 264.158922 
L 138.925022 248.239807 
L 139.05951 250.91129 
L 139.193999 250.262562 
L 139.462975 203.096158 
L 139.731951 108.32442 
L 139.86644 82.097186 
L 140.000928 107.043078 
L 140.135416 87.550226 
L 140.269904 84.261131 
L 140.942345 190.851944 
L 141.211322 254.244405 
L 141.34581 259.005627 
L 141.480298 249.529554 
L 141.749275 264.23482 
L 141.883763 257.808292 
L 142.018251 260.08074 
L 142.421716 243.109146 
L 143.094157 86.256977 
L 143.228645 106.804505 
L 143.497621 86.573687 
L 143.901086 124.781473 
L 144.304551 223.869262 
L 144.439039 255.158342 
L 144.708015 251.045615 
L 144.976992 265.645539 
L 145.380456 254.280162 
L 145.514945 252.937387 
L 145.649433 237.848337 
L 145.783921 196.186201 
L 145.918409 190.572437 
L 146.321874 91.494017 
L 146.456362 106.422783 
L 146.59085 106.167661 
L 146.725339 104.333361 
L 146.994315 120.97219 
L 147.39778 188.374042 
L 147.666756 253.775356 
L 147.801244 251.76169 
L 147.935732 254.923878 
L 148.070221 264.372138 
L 148.204709 264.717869 
L 148.473685 261.936817 
L 149.011638 238.82787 
L 149.549591 99.375638 
L 149.684079 121.095843 
L 149.953056 98.549829 
L 150.894473 255.152926 
L 151.028961 253.010227 
L 151.16345 255.071202 
L 151.297938 266.884899 
L 151.566914 259.102734 
L 151.701402 258.990869 
L 151.835891 257.645436 
L 152.239355 242.034328 
L 152.64282 110.820752 
L 152.777308 92.458959 
L 152.911796 128.38047 
L 153.180773 91.683217 
L 154.12219 253.181401 
L 154.256678 262.042959 
L 154.391167 263.503441 
L 154.525655 268.742232 
L 154.660143 268.358762 
L 154.794631 269.222911 
L 154.92912 268.803089 
L 155.198096 267.402927 
L 155.467072 270.145962 
L 155.601561 267.65918 
L 155.870537 244.98274 
L 156.005025 248.344023 
L 156.40849 255.360191 
L 156.542978 253.636609 
L 156.811955 259.656749 
L 156.946443 259.005896 
L 157.484396 265.707706 
L 157.618884 265.532848 
L 157.753372 267.710383 
L 157.88786 267.394558 
L 158.022348 268.702114 
L 158.156837 268.751061 
L 158.425813 266.96469 
L 158.560301 268.587095 
L 158.829278 272.487448 
L 158.963766 268.154975 
L 159.232742 271.245284 
L 159.367231 268.05587 
L 159.501719 268.458744 
L 159.636207 270.986487 
L 159.770695 269.47493 
L 160.039672 261.571241 
L 160.17416 263.266457 
L 160.308648 260.675993 
L 160.443136 260.878494 
L 160.577624 262.02172 
L 160.712113 265.116188 
L 160.846601 263.236192 
L 160.981089 266.356166 
L 161.250066 263.389862 
L 161.384554 264.480142 
L 161.788018 250.637403 
L 162.056995 205.616173 
L 162.325971 118.244327 
L 162.460459 91.755127 
L 162.729436 101.418961 
L 162.863924 94.034129 
L 162.998412 92.893428 
L 163.93983 255.829285 
L 164.074318 249.253747 
L 164.343294 263.32741 
L 164.477783 258.504853 
L 164.612271 269.386478 
L 164.746759 269.166267 
L 164.881247 262.322639 
L 165.284712 202.012776 
L 165.553688 115.91534 
L 165.688177 100.119045 
L 165.822665 121.945632 
L 166.091641 96.811027 
L 166.360618 125.222907 
L 166.495106 134.091715 
L 166.764082 176.537261 
L 167.033059 255.376682 
L 167.302035 249.09029 
L 167.571012 257.738235 
L 167.7055 253.379028 
L 167.974476 257.530311 
L 168.243453 248.982792 
L 168.377941 230.469475 
L 168.915894 90.749086 
L 169.050382 111.315023 
L 169.18487 93.522725 
L 169.319358 91.965613 
L 169.453847 108.716176 
L 169.588335 111.521817 
L 169.722823 128.820797 
L 170.126288 220.507648 
L 170.395264 258.21829 
L 170.529752 253.284204 
L 170.798729 260.538957 
L 170.933217 262.007262 
L 171.336681 250.393727 
L 171.47117 251.778323 
L 172.143611 94.041926 
L 172.278099 110.461008 
L 172.547075 92.391248 
L 172.681564 101.130553 
L 173.354005 227.168758 
L 173.488493 256.29155 
L 173.757469 254.267872 
L 174.160934 282.583225 
L 174.295422 277.25811 
L 174.564399 261.784438 
L 174.698887 260.273215 
L 175.102351 191.952542 
L 175.23684 146.363008 
L 175.371328 143.63365 
L 175.505816 144.118158 
L 175.640304 140.046222 
L 175.774792 142.460075 
L 176.312745 192.513552 
L 176.581722 230.002636 
L 176.71621 257.849491 
L 176.850698 259.788971 
L 176.985186 256.783418 
L 177.119675 267.805629 
L 177.388651 263.359628 
L 177.523139 266.065374 
L 177.657627 263.545571 
L 177.792116 264.546848 
L 177.926604 267.755846 
L 178.19558 267.021171 
L 178.464557 249.641039 
L 178.599045 254.300487 
L 178.733533 246.781469 
L 178.868021 247.001113 
L 179.136998 255.551949 
L 179.405974 252.847744 
L 179.540462 255.962845 
L 179.809439 255.220277 
L 180.347392 267.367178 
L 180.48188 264.265551 
L 180.616368 272.59449 
L 180.750856 273.963344 
L 181.019833 268.440372 
L 181.154321 268.829199 
L 181.288809 268.038968 
L 181.692274 254.532609 
L 181.826762 257.134995 
L 181.96125 257.160396 
L 182.095738 259.556316 
L 182.230227 253.952927 
L 182.364715 256.36343 
L 182.499203 264.431944 
L 182.76818 266.702777 
L 182.902668 269.977572 
L 183.171644 267.795944 
L 183.306132 270.915678 
L 183.440621 269.95604 
L 183.575109 279.057554 
L 183.844085 266.785799 
L 184.113062 288.443072 
L 184.382038 270.115494 
L 184.651015 237.7844 
L 184.919991 150.28294 
L 185.054479 166.457558 
L 185.188967 168.860466 
L 185.323456 176.438696 
L 185.457944 176.621818 
L 185.592432 177.537971 
L 186.399361 261.933038 
L 186.53385 260.536648 
L 186.668338 259.829211 
L 186.802826 275.161984 
L 186.937314 275.26854 
L 187.071802 280.774574 
L 187.206291 292.537146 
L 187.340779 290.76523 
L 187.475267 278.789908 
L 187.609755 278.540348 
L 187.744243 269.994532 
L 187.878732 245.295072 
L 188.147708 148.874011 
L 188.282196 170.340438 
L 188.416684 171.856653 
L 188.820149 184.954167 
L 189.627078 263.459529 
L 189.761567 265.16958 
L 189.896055 260.292178 
L 190.165031 276.813072 
L 190.434008 261.294809 
L 190.568496 260.604448 
L 190.837472 251.633422 
L 190.971961 252.63482 
L 191.106449 252.292962 
L 191.240937 250.87469 
L 191.375425 242.79425 
L 191.509913 245.672012 
L 191.644402 254.877097 
L 191.77889 249.510295 
L 192.047866 260.561785 
L 192.182354 260.677567 
L 192.316843 258.260245 
L 192.451331 259.479899 
L 192.585819 263.255116 
L 192.720307 263.341415 
L 192.854796 264.365198 
L 192.989284 269.098488 
L 193.123772 266.715332 
L 193.25826 273.020584 
L 193.527237 263.812507 
L 193.661725 258.549196 
L 193.796213 257.876107 
L 193.930701 255.85745 
L 194.065189 251.324344 
L 194.334166 224.840838 
L 194.603142 139.94944 
L 194.73763 152.105576 
L 194.872119 147.779472 
L 195.006607 149.064655 
L 195.141095 146.446429 
L 195.275583 146.523622 
L 195.410072 162.94377 
L 195.54456 165.5085 
L 196.217001 259.315611 
L 196.485977 261.22571 
L 196.620465 265.629967 
L 196.754954 275.818871 
L 196.889442 270.153956 
L 197.158418 255.508773 
L 197.292907 254.480697 
L 197.427395 246.677991 
L 197.561883 228.01893 
L 197.830859 151.841615 
L 198.099836 184.790139 
L 198.234324 187.236879 
L 198.637789 202.203188 
L 198.772277 203.640998 
L 199.175742 251.009229 
L 199.444718 272.125809 
L 199.579206 268.607945 
L 199.982671 277.517194 
L 200.251647 273.960421 
L 200.386135 274.281733 
L 200.520624 271.058478 
L 200.655112 261.462469 
L 200.7896 260.574804 
L 200.924088 242.262368 
L 201.058576 174.922214 
L 201.327553 196.253433 
L 201.462041 190.804579 
L 201.731018 199.968816 
L 201.865506 198.14644 
L 201.999994 199.855369 
L 202.672435 267.709024 
L 202.806923 264.652204 
L 203.0759 272.068698 
L 203.344876 259.659457 
L 203.479364 265.70096 
L 203.613853 265.029366 
L 204.017317 247.138881 
L 204.151805 221.21018 
L 204.420782 152.097046 
L 204.689758 158.183504 
L 204.824246 156.481949 
L 205.227711 193.336858 
L 205.496688 222.347383 
L 205.900152 261.355548 
L 206.03464 260.72037 
L 206.303617 267.187167 
L 206.438105 287.655547 
L 206.572593 284.630075 
L 206.707081 275.838114 
L 206.84157 276.018019 
L 207.110546 268.823031 
L 207.514011 236.139632 
L 207.648499 236.142711 
L 207.917475 254.652531 
L 208.186452 267.835062 
L 208.32094 268.304391 
L 208.589916 262.901628 
L 208.993381 275.098218 
L 209.127869 275.518034 
L 209.262357 274.63371 
L 209.396846 282.753019 
L 209.531334 278.203888 
L 209.665822 264.323016 
L 209.80031 262.730822 
L 209.934799 262.90226 
L 210.069287 257.933926 
L 210.203775 257.748472 
L 210.741728 137.610602 
L 210.876216 141.616159 
L 211.010704 128.083661 
L 211.145192 126.241761 
L 211.279681 120.917599 
L 211.683145 155.697231 
L 212.221098 250.568464 
L 212.355586 260.595806 
L 212.490075 258.773062 
L 212.624563 260.085389 
L 212.893539 270.090086 
L 213.028027 269.94221 
L 213.297004 255.165969 
L 213.431492 258.272859 
L 213.700468 210.12492 
L 213.969445 119.73453 
L 214.103933 114.582133 
L 214.238421 143.675674 
L 214.37291 125.742761 
L 214.507398 124.005295 
L 215.583303 267.035064 
L 215.717792 258.020178 
L 215.986768 270.136045 
L 216.121256 266.809347 
L 216.255745 266.310397 
L 216.524721 257.025544 
L 216.659209 258.289474 
L 216.928186 220.942898 
L 217.197162 126.126237 
L 217.33165 128.613534 
L 217.466138 150.400863 
L 217.600627 140.284242 
L 217.735115 145.02199 
L 217.869603 154.661135 
L 218.004091 153.090991 
L 218.676532 259.148537 
L 218.811021 266.989011 
L 218.945509 262.901909 
L 219.079997 276.706843 
L 219.348973 261.742726 
L 219.483462 267.852618 
L 219.886926 264.93076 
L 220.155903 220.735717 
L 220.424879 126.370384 
L 220.693856 157.802498 
L 220.828344 137.997497 
L 220.962832 142.178689 
L 222.038738 267.536373 
L 222.173226 260.154721 
L 222.307714 271.867777 
L 222.576691 267.76811 
L 222.845667 273.452686 
L 222.980155 272.571 
L 223.114643 272.699565 
L 223.249132 269.094347 
L 223.38362 270.838864 
L 223.652596 238.387724 
L 223.921573 259.102502 
L 224.190549 249.42635 
L 224.594014 258.217664 
L 224.728502 258.313851 
L 224.997478 255.993732 
L 225.266455 260.599897 
L 225.400943 259.638182 
L 225.535431 262.931876 
L 225.804408 261.578095 
L 225.938896 257.615927 
L 226.34236 263.404404 
L 226.476849 263.327105 
L 226.611337 263.750937 
L 226.745825 262.669866 
L 227.014802 257.721497 
L 227.283778 266.539713 
L 227.552754 264.997106 
L 227.821731 270.34138 
L 228.225195 270.125961 
L 228.359684 275.301782 
L 228.62866 272.556564 
L 228.763148 280.007425 
L 228.897637 278.939257 
L 229.032125 276.675135 
L 229.301101 264.535188 
L 229.435589 263.678049 
L 229.570078 259.783021 
L 229.704566 240.378016 
L 230.242519 99.85417 
L 230.377007 105.974209 
L 230.511495 102.736816 
L 230.645983 90.183375 
L 230.91496 136.509848 
L 231.049448 137.029896 
L 231.587401 251.737352 
L 231.721889 256.648908 
L 231.856377 255.35719 
L 232.125354 270.010595 
L 232.259842 269.479155 
L 232.528818 264.085409 
L 232.663306 263.617694 
L 232.797795 255.906684 
L 233.066771 208.249165 
L 233.335748 123.001101 
L 233.470236 112.031996 
L 233.604724 125.819802 
L 233.739212 127.932771 
L 233.8737 124.434317 
L 234.277165 157.627694 
L 234.546141 217.239693 
L 234.68063 230.314775 
L 234.949606 267.071528 
L 235.084094 262.076717 
L 235.487559 270.115701 
L 235.622047 269.450805 
L 235.756535 273.088121 
L 236.025512 258.572992 
L 236.294488 222.74534 
L 236.563465 124.112964 
L 236.697953 113.369871 
L 236.832441 129.959944 
L 237.101417 110.366212 
L 237.63937 182.173878 
L 237.908347 240.38259 
L 238.177323 267.057516 
L 238.311811 261.407539 
L 238.580788 271.770197 
L 238.715276 270.963566 
L 238.849764 270.970092 
L 239.118741 276.906061 
L 239.253229 268.763045 
L 239.387717 253.528343 
L 239.92567 121.187063 
L 240.194646 130.775957 
L 240.329135 128.958709 
L 240.463623 134.746989 
L 240.867087 196.346216 
L 241.270552 260.397358 
L 241.40504 260.096475 
L 241.539529 256.782607 
L 241.674017 265.684869 
L 241.808505 264.580123 
L 241.942993 262.035157 
L 242.077481 274.52418 
L 242.21197 275.225426 
L 242.346458 277.74604 
L 242.480946 271.420554 
L 242.749922 215.103885 
L 243.018899 126.7432 
L 243.153387 131.149086 
L 243.287875 160.859347 
L 243.556852 131.436767 
L 244.363781 247.1399 
L 244.632757 262.090882 
L 244.767246 259.39679 
L 244.901734 267.017314 
L 245.036222 266.888538 
L 245.305198 272.15367 
L 245.708663 268.060842 
L 245.843151 264.920099 
L 245.97764 246.146246 
L 246.246616 259.363276 
L 246.381104 254.034521 
L 246.515592 253.930162 
L 246.650081 252.578544 
L 246.784569 255.041738 
L 247.188033 266.419532 
L 247.322522 266.050119 
L 247.591498 268.081827 
L 247.860475 266.750446 
L 247.994963 267.689014 
L 248.129451 271.264275 
L 248.263939 270.438255 
L 248.398427 270.986073 
L 248.667404 268.228739 
L 248.801892 267.01519 
L 248.93638 268.737102 
L 249.205357 267.333439 
L 249.608821 270.365153 
L 249.877798 270.016589 
L 250.146774 271.685367 
L 250.415751 270.687191 
L 250.550239 271.592865 
L 250.684727 271.068876 
L 250.819215 269.706901 
L 250.953703 269.518944 
L 251.22268 268.03345 
L 251.357168 273.309831 
L 251.626144 270.270673 
L 251.760633 284.774552 
L 251.895121 281.2213 
L 252.298586 246.375554 
L 252.433074 232.059712 
L 252.70205 129.719677 
L 252.836538 124.556205 
L 253.105515 150.937533 
L 253.240003 143.003354 
L 253.374491 153.310861 
L 253.643468 186.42139 
L 253.777956 199.325305 
L 254.181421 257.678195 
L 254.315909 264.637209 
L 254.450397 262.664223 
L 254.584885 283.718332 
L 254.853862 279.389308 
L 254.98835 283.849906 
L 255.257326 276.360024 
L 255.391814 274.99857 
L 255.929767 133.270256 
L 256.198744 168.743126 
L 256.333232 149.169202 
L 256.46772 152.188556 
L 256.871185 179.595726 
L 257.274649 240.22661 
L 257.543626 260.257301 
L 257.678114 257.763186 
L 257.812602 267.528981 
L 258.081579 263.081398 
L 258.350555 282.455742 
L 258.619532 264.564653 
L 258.888508 223.525995 
L 259.157484 132.74244 
L 259.426461 168.278699 
L 259.695437 149.41585 
L 259.829925 159.132696 
L 259.964414 181.1203 
L 260.098902 173.421847 
L 260.636855 253.306103 
L 260.771343 260.458572 
L 260.905831 256.264397 
L 261.040319 266.829337 
L 261.174808 265.483944 
L 261.309296 260.531718 
L 261.443784 266.725811 
L 261.71276 263.46384 
L 261.981737 244.011997 
L 262.116225 212.884621 
L 262.385201 132.544525 
L 262.654178 162.601583 
L 262.788666 135.475379 
L 263.326619 179.292944 
L 263.730084 239.216167 
L 263.99906 257.68026 
L 264.133548 254.443884 
L 264.268036 260.598871 
L 264.402525 260.594438 
L 264.537013 266.875067 
L 265.209454 237.969977 
L 265.343942 218.083588 
L 265.747407 133.060625 
L 265.881895 111.066981 
L 266.016383 119.583676 
L 266.150871 119.349387 
L 266.28536 117.684627 
L 266.688824 166.786448 
L 267.092289 251.042237 
L 267.226777 256.451166 
L 267.361265 252.908943 
L 267.495754 257.930568 
L 267.630242 256.625094 
L 267.76473 268.356164 
L 267.899218 268.066858 
L 268.033706 263.86089 
L 268.168195 263.222309 
L 268.437171 269.534887 
L 268.571659 268.629376 
L 268.706147 262.554364 
L 268.975124 269.359085 
L 269.109612 264.954125 
L 269.2441 264.802906 
L 269.378589 266.257024 
L 269.513077 266.151928 
L 269.916541 259.542103 
L 270.185518 258.156892 
L 270.320006 258.762285 
L 270.454494 258.686112 
L 270.588982 257.844466 
L 270.723471 264.602396 
L 270.857959 264.930349 
L 270.992447 276.193062 
L 271.126935 277.243652 
L 271.261424 270.362004 
L 271.395912 270.597866 
L 271.5304 270.353121 
L 271.664888 268.901757 
L 272.068353 272.005069 
L 272.202841 270.036737 
L 272.740794 273.340594 
L 272.875282 271.55891 
L 273.144258 275.468865 
L 273.278747 274.581457 
L 273.413235 272.452992 
L 273.547723 272.145784 
L 273.682211 272.566497 
L 273.8167 271.852816 
L 273.951188 280.283802 
L 274.085676 278.916775 
L 274.220164 274.797035 
L 274.354652 290.360312 
L 274.489141 291.341602 
L 274.758117 274.916658 
L 275.027093 232.704274 
L 275.29607 154.882995 
L 275.430558 156.087363 
L 275.565046 151.625273 
L 275.699535 155.916903 
L 275.968511 155.645338 
L 276.237487 190.732758 
L 276.371976 203.691899 
L 276.640952 248.105062 
L 276.909928 262.79759 
L 277.044417 263.763576 
L 277.313393 272.075147 
L 277.447881 271.28612 
L 277.58237 277.168371 
L 277.851346 278.884383 
L 277.985834 278.005262 
L 278.254811 254.258321 
L 278.523787 187.72812 
L 278.658275 185.394885 
L 278.792763 173.644787 
L 278.927252 179.037407 
L 279.06174 176.86588 
L 279.196228 194.311363 
L 279.330716 196.803295 
L 279.465204 201.369207 
L 280.003157 259.249096 
L 280.137646 265.96578 
L 280.272134 265.579422 
L 280.54111 279.764999 
L 280.810087 254.649162 
L 280.944575 258.023567 
L 281.213551 248.952111 
L 281.482528 224.939079 
L 281.751504 123.758854 
L 281.885992 128.606596 
L 282.020481 123.265506 
L 282.154969 122.720261 
L 282.289457 133.863342 
L 282.423945 133.833271 
L 282.558433 132.76339 
L 282.692922 150.470166 
L 283.096386 236.273257 
L 283.365363 262.550218 
L 283.499851 258.38127 
L 283.634339 264.45222 
L 283.768827 265.247273 
L 284.172292 249.183775 
L 284.30678 247.638099 
L 284.441268 243.652146 
L 284.710245 223.926345 
L 284.979221 141.289951 
L 285.113709 140.706117 
L 285.248198 153.134515 
L 285.517174 134.647896 
L 285.651662 141.933574 
L 286.055127 181.529221 
L 286.324103 243.079407 
L 286.59308 259.54582 
L 286.727568 257.603755 
L 286.862056 264.93548 
L 286.996544 263.646504 
L 287.131033 287.046315 
L 287.265521 286.46298 
L 287.400009 267.45722 
L 287.534497 264.829151 
L 287.937962 248.652807 
L 288.206938 254.024347 
L 288.341427 255.433599 
L 288.475915 254.933978 
L 288.744891 258.774892 
L 289.013868 263.819239 
L 289.282844 272.823458 
L 289.417332 268.797306 
L 289.686309 278.837243 
L 290.089773 273.20848 
L 290.224262 274.206719 
L 290.35875 272.439326 
L 290.493238 273.172985 
L 290.896703 268.684665 
L 291.300167 241.92858 
L 291.569144 162.695955 
L 291.703632 181.457157 
L 291.972608 188.427802 
L 292.241585 184.482824 
L 292.914026 258.452651 
L 293.048514 264.965027 
L 293.183002 262.243444 
L 293.451979 269.122809 
L 293.720955 265.54656 
L 293.855443 263.396609 
L 293.989931 264.865052 
L 294.12442 264.387819 
L 294.527884 226.444975 
L 294.662373 170.749007 
L 295.065837 149.84779 
L 295.200325 144.140248 
L 295.334814 146.904728 
L 295.469302 166.596465 
L 295.60379 168.714836 
L 295.872766 219.511052 
L 296.007255 228.88205 
L 296.276231 262.511089 
L 296.545208 257.817003 
L 296.679696 267.235889 
L 296.814184 292.022695 
L 296.948672 288.581909 
L 297.217649 272.257626 
L 297.486625 267.447862 
L 297.621113 267.230165 
L 298.024578 272.506179 
L 298.159066 271.953211 
L 298.562531 276.724454 
L 298.831507 273.714694 
L 299.100484 275.298633 
L 299.234972 275.237448 
L 299.503948 275.886055 
L 299.638436 273.696429 
L 299.772925 278.404299 
L 299.907413 278.194766 
L 300.041901 258.343004 
L 300.176389 258.385395 
L 300.310877 262.519038 
L 300.579854 254.242371 
L 300.84883 220.929251 
L 301.117807 140.192697 
L 301.252295 139.980245 
L 301.521271 128.815257 
L 301.65576 131.440987 
L 301.790248 145.533034 
L 301.924736 143.06706 
L 302.059224 158.929855 
L 302.328201 216.252408 
L 302.731665 260.606127 
L 302.866153 257.502277 
L 303.000642 260.134824 
L 303.269618 270.994262 
L 303.538595 253.490865 
L 303.673083 254.636496 
L 303.807571 252.055374 
L 304.345524 137.687252 
L 304.6145 158.168083 
L 304.748988 146.169825 
L 304.883477 148.825325 
L 305.286941 174.803335 
L 305.555918 225.339922 
L 305.959382 262.056892 
L 306.093871 259.750584 
L 306.228359 266.876633 
L 306.497335 263.353403 
L 306.631823 273.001794 
L 306.766312 272.640531 
L 307.169776 246.501683 
L 307.304265 222.221749 
L 307.573241 131.867564 
L 307.842217 167.416801 
L 307.976706 144.667117 
L 308.111194 150.538976 
L 308.245682 163.395718 
L 308.38017 164.964001 
L 308.514658 177.472317 
L 308.783635 224.414944 
L 309.187099 263.863446 
L 309.321588 262.092866 
L 309.590564 272.271338 
L 309.725052 270.852331 
L 309.859541 270.997703 
L 309.994029 269.161184 
L 310.263005 260.666533 
L 310.397493 247.634168 
L 310.800958 131.913809 
L 311.069934 163.007283 
L 311.204423 150.681486 
L 311.338911 150.308559 
L 311.607887 174.561822 
L 311.742376 178.145752 
L 312.280328 250.21971 
L 312.414817 263.019772 
L 312.549305 258.748395 
L 312.683793 266.814352 
L 312.952769 267.906836 
L 313.087258 268.732704 
L 313.221746 265.820187 
L 313.356234 265.789748 
L 313.490722 264.830726 
L 313.625211 265.288764 
L 314.028675 239.894344 
L 314.163163 249.908834 
L 314.43214 251.59259 
L 314.566628 251.084907 
L 314.835604 261.648588 
L 314.970093 260.7946 
L 315.239069 267.464885 
L 315.508045 266.33161 
L 315.642534 267.753943 
L 315.777022 266.559163 
L 315.91151 269.125134 
L 316.045998 268.500186 
L 316.180487 268.718336 
L 316.449463 267.968759 
L 316.718439 265.490801 
L 316.852928 265.201058 
L 317.121904 266.113272 
L 317.256392 264.395892 
L 317.39088 265.185365 
L 317.525369 264.862927 
L 317.659857 266.083479 
L 317.794345 265.802702 
L 317.928833 268.177662 
L 318.19781 267.189342 
L 318.466786 267.619989 
L 318.601274 266.455727 
L 318.735763 266.88324 
L 319.004739 265.072731 
L 319.139227 271.739272 
L 319.408204 265.992298 
L 319.542692 280.156151 
L 319.67718 277.941052 
L 320.215133 234.165443 
L 320.484109 131.147108 
L 320.753086 125.820268 
L 321.022062 138.34281 
L 321.15655 144.285693 
L 321.96348 261.771493 
L 322.097968 265.07397 
L 322.232456 259.916209 
L 322.501433 267.236993 
L 322.635921 266.15686 
L 322.770409 278.693225 
L 322.904897 278.541242 
L 323.44285 239.396583 
L 323.711826 131.079594 
L 323.980803 168.093241 
L 324.115291 146.605579 
L 324.249779 145.70105 
L 324.787732 203.508797 
L 325.191197 257.626668 
L 325.325685 265.022736 
L 325.460173 257.946268 
L 325.72915 266.476106 
L 325.863638 265.927578 
L 325.998126 274.33449 
L 326.132614 275.633339 
L 326.536079 255.572846 
L 326.670567 236.400944 
L 326.939544 129.632628 
L 327.20852 169.936453 
L 327.343008 143.546808 
L 327.477496 150.132057 
L 327.746473 171.832001 
L 327.880961 179.723767 
L 328.418914 249.306533 
L 328.553402 260.265365 
L 328.68789 258.97148 
L 328.956867 271.720176 
L 329.091355 269.977836 
L 329.225843 281.762039 
L 329.360331 278.443662 
L 329.763796 246.244115 
L 329.898284 230.615701 
L 330.167261 138.175607 
L 330.436237 170.519326 
L 330.570725 154.125196 
L 330.705214 153.243713 
L 330.839702 158.68812 
L 331.108678 195.833776 
L 331.243166 202.584255 
L 331.646631 258.876809 
L 331.781119 261.818606 
L 331.915607 258.956528 
L 332.050096 264.746339 
L 332.184584 263.988347 
L 332.319072 266.503609 
L 332.45356 281.322751 
L 332.588049 277.291656 
L 332.722537 263.589649 
L 332.857025 262.526477 
L 333.126001 230.342901 
L 333.394978 136.40072 
L 333.663954 175.023998 
L 333.798442 152.645398 
L 333.932931 155.860284 
L 334.605372 220.320671 
L 334.874348 258.76577 
L 335.008836 260.263334 
L 335.143325 258.450331 
L 335.277813 272.344348 
L 335.412301 273.223243 
L 335.681277 266.944198 
L 335.950254 265.077592 
L 336.084742 265.743475 
L 336.21923 267.263093 
L 336.891671 245.666137 
L 337.02616 250.252519 
L 337.160648 250.323762 
L 337.698601 261.358456 
L 337.967577 263.832763 
L 338.102065 262.919974 
L 338.236553 264.682582 
L 338.371042 264.396249 
L 338.50553 267.813509 
L 338.640018 267.46636 
L 338.908995 263.141602 
L 339.043483 264.427846 
L 339.177971 262.94025 
L 339.312459 262.808236 
L 339.581436 264.291438 
L 339.715924 265.016816 
L 339.850412 264.463153 
L 339.9849 263.15026 
L 340.119388 264.659757 
L 340.388365 264.974816 
L 340.522853 265.416478 
L 340.657341 267.472511 
L 340.791829 266.134049 
L 341.060806 267.990377 
L 341.195294 267.303992 
L 341.329782 264.891336 
L 341.464271 267.020574 
L 341.598759 266.901908 
L 341.733247 272.880705 
L 341.867735 270.07888 
L 342.002223 270.104526 
L 342.136712 281.637014 
L 342.2712 277.659761 
L 342.405688 268.548229 
L 342.540176 266.9749 
L 342.809153 235.726625 
L 343.078129 132.53976 
L 343.212617 130.836618 
L 343.347106 159.232511 
L 343.481594 157.197092 
L 343.616082 153.128355 
L 344.154035 209.457005 
L 344.288523 219.074999 
L 344.557499 259.050412 
L 344.826476 256.615568 
L 345.095452 274.049713 
L 345.22994 270.436724 
L 345.364429 278.913863 
L 345.498917 277.813917 
L 345.767893 269.186358 
L 346.03687 241.928714 
L 346.305846 141.128718 
L 346.574823 170.225111 
L 346.709311 158.142361 
L 346.843799 162.405776 
L 347.381752 203.783259 
L 347.785217 254.641075 
L 347.919705 258.562756 
L 348.054193 257.777255 
L 348.323169 271.792384 
L 348.457658 268.416393 
L 348.592146 278.387475 
L 348.726634 276.869798 
L 348.99561 266.572796 
L 349.264587 232.520909 
L 349.533563 138.27912 
L 349.668052 161.225449 
L 349.80254 162.132256 
L 349.937028 151.151428 
L 350.206004 165.755971 
L 351.147422 258.644178 
L 351.28191 259.918541 
L 351.416398 270.55405 
L 351.550886 270.08958 
L 351.685375 271.896941 
L 351.819863 283.664191 
L 351.954351 278.24637 
L 352.223328 264.748297 
L 352.357816 258.276752 
L 352.492304 237.762504 
L 352.76128 135.867524 
L 353.030257 170.758303 
L 353.164745 155.147751 
L 353.299233 159.229638 
L 353.56821 178.331413 
L 353.702698 180.406388 
L 353.837186 186.295094 
L 354.106163 247.889677 
L 354.509627 262.453447 
L 354.644115 272.232937 
L 354.778604 271.584207 
L 355.04758 276.541623 
L 355.451045 265.563223 
L 355.585533 256.269146 
L 355.720021 231.742068 
L 355.988998 156.544906 
L 356.123486 169.911378 
L 356.392462 148.684544 
L 356.930415 190.969015 
L 357.199391 230.000262 
L 357.468368 257.108045 
L 357.602856 269.722358 
L 357.737344 264.582961 
L 357.871832 272.701387 
L 358.006321 273.735229 
L 358.140809 276.766964 
L 358.409785 272.565064 
L 358.544274 272.833413 
L 358.678762 271.952012 
L 358.81325 269.676099 
L 358.947738 269.346621 
L 359.216715 249.008163 
L 359.351203 248.337847 
L 359.485691 249.987289 
L 359.620179 248.102854 
L 359.754667 242.167988 
L 360.023644 262.134568 
L 360.158132 257.638098 
L 360.561597 271.855109 
L 360.830573 268.914121 
L 360.965061 270.108169 
L 361.234038 275.088501 
L 361.368526 274.242759 
L 361.637502 271.645386 
L 361.771991 272.757541 
L 361.906479 272.189071 
L 362.040967 271.051099 
L 362.309944 274.328459 
L 362.444432 274.603599 
L 362.57892 275.193824 
L 362.847896 271.434992 
L 363.116873 274.165015 
L 363.251361 274.753854 
L 363.385849 274.305984 
L 363.520337 274.479461 
L 363.654826 275.977365 
L 364.05829 272.386051 
L 364.192778 280.230993 
L 364.327267 280.905823 
L 364.461755 235.227379 
L 364.596243 228.700951 
L 364.730731 245.631988 
L 364.86522 241.321889 
L 364.999708 241.609936 
L 365.134196 234.758328 
L 365.672149 112.722837 
L 365.806637 107.28415 
L 365.941125 118.124829 
L 366.075613 107.568755 
L 366.210102 111.944827 
L 366.748055 192.352818 
L 367.017031 253.230586 
L 367.151519 251.831304 
L 367.286007 254.277889 
L 367.420496 259.519008 
L 367.554984 257.37745 
L 367.82396 266.593494 
L 367.958448 258.628325 
L 368.227425 256.990557 
L 368.765378 120.527704 
L 368.899866 88.42809 
L 369.034354 106.649802 
L 369.168842 109.423568 
L 369.303331 86.219616 
L 369.706795 130.156737 
L 369.975772 183.484673 
L 370.244748 253.671384 
L 370.379236 253.200426 
L 370.513724 247.496136 
L 370.782701 261.209315 
L 370.917189 287.949312 
L 371.051677 287.819321 
L 371.186166 269.732243 
L 371.320654 267.473909 
L 371.455142 263.276546 
L 371.724118 224.09222 
L 371.993095 136.598162 
L 372.127583 147.42082 
L 372.262071 187.763728 
L 372.396559 193.735 
L 372.531048 183.733704 
L 373.069001 222.870813 
L 373.337977 248.975003 
L 373.606953 261.736915 
L 373.741442 257.026003 
L 373.87593 268.037793 
L 374.010418 269.371489 
L 374.279394 295.488 
L 374.548371 278.027759 
L 374.682859 274.537728 
L 374.951836 233.565376 
L 375.220812 165.466223 
L 375.3553 165.140281 
L 375.489788 164.374818 
L 375.758765 175.155389 
L 375.893253 176.769349 
L 376.83467 266.185897 
L 376.969159 260.116845 
L 377.103647 269.743831 
L 377.238135 270.315727 
L 377.372623 285.510726 
L 377.910576 260.210538 
L 378.045064 265.308078 
L 378.314041 258.947955 
L 378.448529 239.520827 
L 378.583017 236.970158 
L 378.717505 230.098461 
L 378.851994 235.056157 
L 379.255458 260.800736 
L 379.389947 261.985471 
L 379.524435 268.521966 
L 379.658923 269.317454 
L 379.927899 276.064746 
L 380.331364 273.978783 
L 380.465852 273.73709 
L 380.60034 263.303514 
L 380.734829 262.12245 
L 380.869317 266.378168 
L 381.003805 266.333445 
L 381.138293 264.868958 
L 381.541758 209.453881 
L 381.676246 139.073956 
L 381.810734 135.519328 
L 381.945223 146.099215 
L 382.079711 134.41868 
L 382.214199 137.515309 
L 382.752152 191.325963 
L 383.155616 258.866036 
L 383.290105 263.723018 
L 383.424593 262.60961 
L 383.559081 266.570627 
L 383.693569 266.724079 
L 383.962546 257.096045 
L 384.097034 257.527324 
L 384.231522 256.276936 
L 384.36601 256.153751 
L 384.500499 251.929134 
L 384.634987 252.385007 
L 385.038451 148.984173 
L 385.17294 155.939821 
L 385.307428 139.985834 
L 385.441916 145.373191 
L 385.576404 172.183516 
L 385.710893 172.447191 
L 385.845381 178.810552 
L 386.114357 225.532514 
L 386.517822 263.770375 
L 386.65231 262.249245 
L 386.786798 273.351852 
L 386.921286 274.58287 
L 387.055775 281.086095 
L 387.190263 279.551872 
L 387.324751 268.767565 
L 387.459239 267.127278 
L 387.728216 258.369345 
L 387.862704 261.347235 
L 387.997192 259.94642 
L 388.13168 262.891437 
L 388.266169 262.971425 
L 388.535145 269.357263 
L 388.669633 267.645363 
L 388.804121 271.424627 
L 388.93861 269.307613 
L 389.073098 276.293783 
L 389.207586 274.756608 
L 389.476562 280.511283 
L 389.745539 285.532221 
L 389.880027 280.796067 
L 390.014515 285.476304 
L 390.149004 285.552119 
L 390.41798 250.62027 
L 390.552468 257.973626 
L 390.821445 249.416223 
L 390.955933 232.732385 
L 391.090421 231.788922 
L 391.224909 216.471535 
L 391.359397 149.779798 
L 391.628374 157.125597 
L 391.762862 156.279592 
L 391.89735 174.049572 
L 392.031839 173.606552 
L 392.300815 185.23122 
L 392.973256 271.770066 
L 393.107744 266.164698 
L 393.376721 272.579713 
L 393.645697 252.929983 
L 393.780185 261.456944 
L 393.914673 260.754471 
L 394.049162 245.461732 
L 394.18365 242.843316 
L 394.318138 225.552271 
L 394.587115 139.390334 
L 394.721603 142.219617 
L 394.856091 153.29858 
L 394.990579 141.936642 
L 395.125067 142.042434 
L 395.528532 176.488511 
L 395.797508 217.556294 
L 396.066485 249.783262 
L 396.200973 261.778461 
L 396.335461 258.093262 
L 396.46995 264.111568 
L 396.604438 257.701462 
L 396.738926 289.680048 
L 396.873414 292.321638 
L 397.007902 275.273412 
L 397.276879 271.244624 
L 397.545855 231.535596 
L 397.814832 144.387401 
L 397.94932 168.138354 
L 398.352785 155.389984 
L 398.487273 166.698344 
L 398.487273 166.698344 
" clip-path="url(#p5a7e4b421e)" style="fill: none; stroke: #ff7f0e; stroke-width: 1.5; stroke-linecap: square"/>
   </g>
   <g id="patch_3">
    <path d="M 57.6 307.584 
L 57.6 41.472 
" style="fill: none; stroke: #000000; stroke-width: 0.8; stroke-linejoin: miter; stroke-linecap: square"/>
   </g>
   <g id="patch_4">
    <path d="M 414.72 307.584 
L 414.72 41.472 
" style="fill: none; stroke: #000000; stroke-width: 0.8; stroke-linejoin: miter; stroke-linecap: square"/>
   </g>
   <g id="patch_5">
    <path d="M 57.6 307.584 
L 414.72 307.584 
" style="fill: none; stroke: #000000; stroke-width: 0.8; stroke-linejoin: miter; stroke-linecap: square"/>
   </g>
   <g id="patch_6">
    <path d="M 57.6 41.472 
L 414.72 41.472 
" style="fill: none; stroke: #000000; stroke-width: 0.8; stroke-linejoin: miter; stroke-linecap: square"/>
   </g>
  </g>
 </g>
 <defs>
  <clipPath id="p5a7e4b421e">
   <rect x="57.6" y="41.472" width="357.12" height="266.112"/>
  </clipPath>
 </defs>
</svg>
