<?xml version="1.0" encoding="utf-8" standalone="no"?>
<!DOCTYPE svg PUBLIC "-//W3C//DTD SVG 1.1//EN"
  "http://www.w3.org/Graphics/SVG/1.1/DTD/svg11.dtd">
<svg xmlns:xlink="http://www.w3.org/1999/xlink" width="460.8pt" height="345.6pt" viewBox="0 0 460.8 345.6" xmlns="http://www.w3.org/2000/svg" version="1.1">
 <metadata>
  <rdf:RDF xmlns:dc="http://purl.org/dc/elements/1.1/" xmlns:cc="http://creativecommons.org/ns#" xmlns:rdf="http://www.w3.org/1999/02/22-rdf-syntax-ns#">
   <cc:Work>
    <dc:type rdf:resource="http://purl.org/dc/dcmitype/StillImage"/>
    <dc:date>2023-04-04T06:59:48.450091</dc:date>
    <dc:format>image/svg+xml</dc:format>
    <dc:creator>
     <cc:Agent>
      <dc:title>Matplotlib v3.5.2, https://matplotlib.org/</dc:title>
     </cc:Agent>
    </dc:creator>
   </cc:Work>
  </rdf:RDF>
 </metadata>
 <defs>
  <style type="text/css">*{stroke-linejoin: round; stroke-linecap: butt}</style>
 </defs>
 <g id="figure_1">
  <g id="patch_1">
   <path d="M 0 345.6 
L 460.8 345.6 
L 460.8 0 
L 0 0 
z
" style="fill: #ffffff"/>
  </g>
  <g id="axes_1">
   <g id="patch_2">
    <path d="M 57.6 307.584 
L 414.72 307.584 
L 414.72 41.472 
L 57.6 41.472 
z
" style="fill: #ffffff"/>
   </g>
   <g id="matplotlib.axis_1">
    <g id="xtick_1">
     <g id="line2d_1">
      <defs>
       <path id="mefc5d9e903" d="M 0 0 
L 0 3.5 
" style="stroke: #000000; stroke-width: 0.8"/>
      </defs>
      <g>
       <use xlink:href="#mefc5d9e903" x="73.832727" y="307.584" style="stroke: #000000; stroke-width: 0.8"/>
      </g>
     </g>
     <g id="text_1">
      <!-- 0 -->
      <g transform="translate(70.651477 322.182437)scale(0.1 -0.1)">
       <defs>
        <path id="DejaVuSans-30" d="M 2034 4250 
Q 1547 4250 1301 3770 
Q 1056 3291 1056 2328 
Q 1056 1369 1301 889 
Q 1547 409 2034 409 
Q 2525 409 2770 889 
Q 3016 1369 3016 2328 
Q 3016 3291 2770 3770 
Q 2525 4250 2034 4250 
z
M 2034 4750 
Q 2819 4750 3233 4129 
Q 3647 3509 3647 2328 
Q 3647 1150 3233 529 
Q 2819 -91 2034 -91 
Q 1250 -91 836 529 
Q 422 1150 422 2328 
Q 422 3509 836 4129 
Q 1250 4750 2034 4750 
z
" transform="scale(0.015625)"/>
       </defs>
       <use xlink:href="#DejaVuSans-30"/>
      </g>
     </g>
    </g>
    <g id="xtick_2">
     <g id="line2d_2">
      <g>
       <use xlink:href="#mefc5d9e903" x="141.076834" y="307.584" style="stroke: #000000; stroke-width: 0.8"/>
      </g>
     </g>
     <g id="text_2">
      <!-- 500 -->
      <g transform="translate(131.533084 322.182437)scale(0.1 -0.1)">
       <defs>
        <path id="DejaVuSans-35" d="M 691 4666 
L 3169 4666 
L 3169 4134 
L 1269 4134 
L 1269 2991 
Q 1406 3038 1543 3061 
Q 1681 3084 1819 3084 
Q 2600 3084 3056 2656 
Q 3513 2228 3513 1497 
Q 3513 744 3044 326 
Q 2575 -91 1722 -91 
Q 1428 -91 1123 -41 
Q 819 9 494 109 
L 494 744 
Q 775 591 1075 516 
Q 1375 441 1709 441 
Q 2250 441 2565 725 
Q 2881 1009 2881 1497 
Q 2881 1984 2565 2268 
Q 2250 2553 1709 2553 
Q 1456 2553 1204 2497 
Q 953 2441 691 2322 
L 691 4666 
z
" transform="scale(0.015625)"/>
       </defs>
       <use xlink:href="#DejaVuSans-35"/>
       <use xlink:href="#DejaVuSans-30" x="63.623047"/>
       <use xlink:href="#DejaVuSans-30" x="127.246094"/>
      </g>
     </g>
    </g>
    <g id="xtick_3">
     <g id="line2d_3">
      <g>
       <use xlink:href="#mefc5d9e903" x="208.32094" y="307.584" style="stroke: #000000; stroke-width: 0.8"/>
      </g>
     </g>
     <g id="text_3">
      <!-- 1000 -->
      <g transform="translate(195.59594 322.182437)scale(0.1 -0.1)">
       <defs>
        <path id="DejaVuSans-31" d="M 794 531 
L 1825 531 
L 1825 4091 
L 703 3866 
L 703 4441 
L 1819 4666 
L 2450 4666 
L 2450 531 
L 3481 531 
L 3481 0 
L 794 0 
L 794 531 
z
" transform="scale(0.015625)"/>
       </defs>
       <use xlink:href="#DejaVuSans-31"/>
       <use xlink:href="#DejaVuSans-30" x="63.623047"/>
       <use xlink:href="#DejaVuSans-30" x="127.246094"/>
       <use xlink:href="#DejaVuSans-30" x="190.869141"/>
      </g>
     </g>
    </g>
    <g id="xtick_4">
     <g id="line2d_4">
      <g>
       <use xlink:href="#mefc5d9e903" x="275.565046" y="307.584" style="stroke: #000000; stroke-width: 0.8"/>
      </g>
     </g>
     <g id="text_4">
      <!-- 1500 -->
      <g transform="translate(262.840046 322.182437)scale(0.1 -0.1)">
       <use xlink:href="#DejaVuSans-31"/>
       <use xlink:href="#DejaVuSans-35" x="63.623047"/>
       <use xlink:href="#DejaVuSans-30" x="127.246094"/>
       <use xlink:href="#DejaVuSans-30" x="190.869141"/>
      </g>
     </g>
    </g>
    <g id="xtick_5">
     <g id="line2d_5">
      <g>
       <use xlink:href="#mefc5d9e903" x="342.809153" y="307.584" style="stroke: #000000; stroke-width: 0.8"/>
      </g>
     </g>
     <g id="text_5">
      <!-- 2000 -->
      <g transform="translate(330.084153 322.182437)scale(0.1 -0.1)">
       <defs>
        <path id="DejaVuSans-32" d="M 1228 531 
L 3431 531 
L 3431 0 
L 469 0 
L 469 531 
Q 828 903 1448 1529 
Q 2069 2156 2228 2338 
Q 2531 2678 2651 2914 
Q 2772 3150 2772 3378 
Q 2772 3750 2511 3984 
Q 2250 4219 1831 4219 
Q 1534 4219 1204 4116 
Q 875 4013 500 3803 
L 500 4441 
Q 881 4594 1212 4672 
Q 1544 4750 1819 4750 
Q 2544 4750 2975 4387 
Q 3406 4025 3406 3419 
Q 3406 3131 3298 2873 
Q 3191 2616 2906 2266 
Q 2828 2175 2409 1742 
Q 1991 1309 1228 531 
z
" transform="scale(0.015625)"/>
       </defs>
       <use xlink:href="#DejaVuSans-32"/>
       <use xlink:href="#DejaVuSans-30" x="63.623047"/>
       <use xlink:href="#DejaVuSans-30" x="127.246094"/>
       <use xlink:href="#DejaVuSans-30" x="190.869141"/>
      </g>
     </g>
    </g>
    <g id="xtick_6">
     <g id="line2d_6">
      <g>
       <use xlink:href="#mefc5d9e903" x="410.053259" y="307.584" style="stroke: #000000; stroke-width: 0.8"/>
      </g>
     </g>
     <g id="text_6">
      <!-- 2500 -->
      <g transform="translate(397.328259 322.182437)scale(0.1 -0.1)">
       <use xlink:href="#DejaVuSans-32"/>
       <use xlink:href="#DejaVuSans-35" x="63.623047"/>
       <use xlink:href="#DejaVuSans-30" x="127.246094"/>
       <use xlink:href="#DejaVuSans-30" x="190.869141"/>
      </g>
     </g>
    </g>
   </g>
   <g id="matplotlib.axis_2">
    <g id="ytick_1">
     <g id="line2d_7">
      <defs>
       <path id="mfd8a821866" d="M 0 0 
L -3.5 0 
" style="stroke: #000000; stroke-width: 0.8"/>
      </defs>
      <g>
       <use xlink:href="#mfd8a821866" x="57.6" y="281.441366" style="stroke: #000000; stroke-width: 0.8"/>
      </g>
     </g>
     <g id="text_7">
      <!-- 100 -->
      <g transform="translate(31.5125 285.240585)scale(0.1 -0.1)">
       <use xlink:href="#DejaVuSans-31"/>
       <use xlink:href="#DejaVuSans-30" x="63.623047"/>
       <use xlink:href="#DejaVuSans-30" x="127.246094"/>
      </g>
     </g>
    </g>
    <g id="ytick_2">
     <g id="line2d_8">
      <g>
       <use xlink:href="#mfd8a821866" x="57.6" y="233.425469" style="stroke: #000000; stroke-width: 0.8"/>
      </g>
     </g>
     <g id="text_8">
      <!-- 200 -->
      <g transform="translate(31.5125 237.224687)scale(0.1 -0.1)">
       <use xlink:href="#DejaVuSans-32"/>
       <use xlink:href="#DejaVuSans-30" x="63.623047"/>
       <use xlink:href="#DejaVuSans-30" x="127.246094"/>
      </g>
     </g>
    </g>
    <g id="ytick_3">
     <g id="line2d_9">
      <g>
       <use xlink:href="#mfd8a821866" x="57.6" y="185.409571" style="stroke: #000000; stroke-width: 0.8"/>
      </g>
     </g>
     <g id="text_9">
      <!-- 300 -->
      <g transform="translate(31.5125 189.20879)scale(0.1 -0.1)">
       <defs>
        <path id="DejaVuSans-33" d="M 2597 2516 
Q 3050 2419 3304 2112 
Q 3559 1806 3559 1356 
Q 3559 666 3084 287 
Q 2609 -91 1734 -91 
Q 1441 -91 1130 -33 
Q 819 25 488 141 
L 488 750 
Q 750 597 1062 519 
Q 1375 441 1716 441 
Q 2309 441 2620 675 
Q 2931 909 2931 1356 
Q 2931 1769 2642 2001 
Q 2353 2234 1838 2234 
L 1294 2234 
L 1294 2753 
L 1863 2753 
Q 2328 2753 2575 2939 
Q 2822 3125 2822 3475 
Q 2822 3834 2567 4026 
Q 2313 4219 1838 4219 
Q 1578 4219 1281 4162 
Q 984 4106 628 3988 
L 628 4550 
Q 988 4650 1302 4700 
Q 1616 4750 1894 4750 
Q 2613 4750 3031 4423 
Q 3450 4097 3450 3541 
Q 3450 3153 3228 2886 
Q 3006 2619 2597 2516 
z
" transform="scale(0.015625)"/>
       </defs>
       <use xlink:href="#DejaVuSans-33"/>
       <use xlink:href="#DejaVuSans-30" x="63.623047"/>
       <use xlink:href="#DejaVuSans-30" x="127.246094"/>
      </g>
     </g>
    </g>
    <g id="ytick_4">
     <g id="line2d_10">
      <g>
       <use xlink:href="#mfd8a821866" x="57.6" y="137.393674" style="stroke: #000000; stroke-width: 0.8"/>
      </g>
     </g>
     <g id="text_10">
      <!-- 400 -->
      <g transform="translate(31.5125 141.192892)scale(0.1 -0.1)">
       <defs>
        <path id="DejaVuSans-34" d="M 2419 4116 
L 825 1625 
L 2419 1625 
L 2419 4116 
z
M 2253 4666 
L 3047 4666 
L 3047 1625 
L 3713 1625 
L 3713 1100 
L 3047 1100 
L 3047 0 
L 2419 0 
L 2419 1100 
L 313 1100 
L 313 1709 
L 2253 4666 
z
" transform="scale(0.015625)"/>
       </defs>
       <use xlink:href="#DejaVuSans-34"/>
       <use xlink:href="#DejaVuSans-30" x="63.623047"/>
       <use xlink:href="#DejaVuSans-30" x="127.246094"/>
      </g>
     </g>
    </g>
    <g id="ytick_5">
     <g id="line2d_11">
      <g>
       <use xlink:href="#mfd8a821866" x="57.6" y="89.377776" style="stroke: #000000; stroke-width: 0.8"/>
      </g>
     </g>
     <g id="text_11">
      <!-- 500 -->
      <g transform="translate(31.5125 93.176995)scale(0.1 -0.1)">
       <use xlink:href="#DejaVuSans-35"/>
       <use xlink:href="#DejaVuSans-30" x="63.623047"/>
       <use xlink:href="#DejaVuSans-30" x="127.246094"/>
      </g>
     </g>
    </g>
   </g>
   <g id="line2d_12">
    <path d="M 73.832727 284.525907 
L 74.101704 283.974205 
L 74.236192 282.858795 
L 74.37068 283.826796 
L 74.505168 283.332232 
L 74.639657 283.936752 
L 74.774145 277.43732 
L 74.908633 250.205584 
L 75.177609 248.706048 
L 75.312098 249.263993 
L 75.446586 249.31681 
L 75.581074 250.187338 
L 75.715562 249.427727 
L 75.85005 249.40564 
L 76.253515 244.398542 
L 76.522492 278.604587 
L 76.65698 278.919091 
L 76.925956 277.204924 
L 77.060444 268.310459 
L 77.194933 270.563845 
L 77.463909 270.627706 
L 77.598397 272.218953 
L 77.732885 266.869502 
L 77.867374 253.403923 
L 78.405327 104.328486 
L 78.674303 103.40274 
L 78.808791 110.571993 
L 78.943279 105.748316 
L 79.481232 158.67624 
L 79.750209 229.359002 
L 80.019185 264.231988 
L 80.153673 266.365335 
L 80.288161 262.51398 
L 80.42265 272.955036 
L 80.557138 272.518572 
L 80.826114 275.037006 
L 80.960603 272.485921 
L 81.095091 262.127452 
L 81.364067 168.907948 
L 81.498555 181.261958 
L 81.767532 161.773265 
L 82.036508 169.810647 
L 82.170996 166.696335 
L 82.305485 160.695789 
L 83.112414 261.647293 
L 83.650367 287.944159 
L 83.784855 287.964806 
L 83.919343 289.499874 
L 84.053831 289.692898 
L 84.18832 287.586921 
L 84.322808 280.331239 
L 84.726273 189.810228 
L 84.860761 181.107827 
L 84.995249 185.221829 
L 85.129737 170.275921 
L 85.264225 178.854441 
L 85.398714 179.604929 
L 85.66769 187.936648 
L 85.802178 196.744204 
L 86.340131 263.782079 
L 86.474619 265.803549 
L 86.609107 270.734781 
L 86.878084 288.327806 
L 87.012572 290.588395 
L 87.14706 290.260446 
L 87.281549 291.757582 
L 87.416037 291.660109 
L 87.550525 290.84528 
L 87.819501 263.224135 
L 87.95399 263.370583 
L 88.088478 257.660052 
L 88.222966 259.125978 
L 88.357454 258.364926 
L 88.491942 254.992289 
L 88.626431 257.839152 
L 88.760919 250.815386 
L 88.895407 253.704983 
L 89.029895 253.703543 
L 89.164384 256.275274 
L 89.43336 277.666836 
L 89.567848 279.33731 
L 89.702336 278.836984 
L 89.836825 279.901496 
L 89.971313 264.687659 
L 90.105801 265.404056 
L 90.240289 266.95497 
L 90.374777 266.723533 
L 90.509266 267.964744 
L 90.643754 268.137121 
L 90.778242 270.245499 
L 90.91273 267.008748 
L 91.047218 257.027683 
L 91.181707 255.851774 
L 91.316195 248.890909 
L 91.450683 253.344384 
L 91.585171 251.36997 
L 91.71966 252.874788 
L 91.854148 253.101903 
L 92.123124 256.097615 
L 92.257612 255.522385 
L 92.526589 261.141685 
L 92.795565 267.767399 
L 92.930053 268.726757 
L 93.064542 267.581097 
L 93.19903 277.643309 
L 93.468006 277.76863 
L 93.602495 278.834103 
L 93.736983 277.594332 
L 93.871471 275.059573 
L 94.005959 269.816237 
L 94.6784 162.061841 
L 94.812888 157.643418 
L 95.081865 169.560484 
L 95.216353 164.318588 
L 95.350841 152.9974 
L 96.023282 266.131977 
L 96.157771 266.86518 
L 96.426747 270.812087 
L 96.561235 270.476936 
L 96.695723 270.554722 
L 96.830212 272.447028 
L 96.9647 271.806016 
L 97.099188 270.371301 
L 97.233676 261.860483 
L 97.368164 244.207919 
L 97.502653 202.976187 
L 97.637141 195.843906 
L 97.771629 180.292037 
L 97.906117 188.730831 
L 98.040606 181.983157 
L 98.175094 182.696673 
L 98.309582 177.350103 
L 98.44407 179.000889 
L 98.713047 190.428673 
L 98.982023 232.591433 
L 99.250999 267.621431 
L 99.385488 272.33227 
L 99.519976 273.090441 
L 99.654464 282.946665 
L 99.788952 282.959149 
L 99.923441 281.952735 
L 100.192417 283.197308 
L 100.326905 283.278454 
L 100.461393 282.620156 
L 100.595882 283.028292 
L 100.73037 283.861367 
L 100.864858 282.314775 
L 100.999346 283.47676 
L 101.133834 282.563978 
L 101.268323 280.337001 
L 101.402811 273.274822 
L 101.537299 277.569364 
L 101.806276 267.128787 
L 101.940764 269.301027 
L 102.075252 269.151697 
L 102.20974 269.803273 
L 102.344228 272.194465 
L 102.478717 278.043281 
L 102.613205 276.181225 
L 102.747693 281.881192 
L 102.882181 268.352713 
L 103.016669 268.381522 
L 103.151158 273.313715 
L 103.285646 273.093322 
L 103.554622 268.890491 
L 103.68911 264.679977 
L 103.823599 247.162337 
L 104.092575 184.565932 
L 104.227063 162.969341 
L 104.361552 170.171726 
L 104.630528 145.166007 
L 105.033993 160.564225 
L 105.168481 171.400933 
L 105.706434 254.90298 
L 105.840922 254.780059 
L 105.97541 263.524714 
L 106.109898 280.043623 
L 106.378875 283.249645 
L 106.513363 283.23572 
L 106.647851 285.404118 
L 106.782339 285.134269 
L 106.916828 286.251599 
L 107.320292 248.481814 
L 107.45478 255.582885 
L 107.589269 253.035641 
L 107.723757 253.128792 
L 108.26171 248.039107 
L 108.396198 244.614133 
L 108.530686 246.885765 
L 108.934151 278.662206 
L 109.068639 280.18527 
L 109.203127 279.112595 
L 109.337615 274.593339 
L 109.606592 276.150014 
L 109.875568 277.207805 
L 110.144545 278.262234 
L 110.413521 277.018142 
L 110.548009 276.882737 
L 110.951474 272.812429 
L 111.085962 273.9917 
L 111.22045 273.642624 
L 111.623915 267.818296 
L 111.758403 268.328705 
L 112.02738 272.128683 
L 112.430844 273.733854 
L 112.565333 263.443567 
L 112.834309 267.663204 
L 112.968797 268.188978 
L 113.103285 269.70484 
L 113.237774 269.88394 
L 113.50675 272.51233 
L 113.641238 273.345886 
L 114.313679 262.066471 
L 114.448168 261.703951 
L 114.582656 260.215939 
L 114.98612 249.342739 
L 115.524073 260.447855 
L 115.658561 261.000038 
L 115.927538 263.234218 
L 116.062026 261.945471 
L 116.196514 268.065578 
L 116.331002 267.646879 
L 116.465491 268.260042 
L 116.599979 258.46912 
L 117.137932 79.212331 
L 117.406908 64.463287 
L 117.810373 81.055661 
L 118.213837 148.471421 
L 118.482814 211.010207 
L 118.75179 245.552844 
L 118.886279 247.091753 
L 119.289743 255.111369 
L 119.424231 256.53408 
L 119.55872 259.3142 
L 119.693208 259.632065 
L 119.827696 249.985191 
L 120.365649 92.111321 
L 120.634625 73.484994 
L 120.769114 77.18846 
L 120.903602 70.748088 
L 121.03809 72.080529 
L 121.441555 135.717919 
L 121.710531 202.766358 
L 121.845019 231.038118 
L 122.248484 242.03856 
L 122.51746 257.604834 
L 122.651948 257.764727 
L 122.786437 259.509145 
L 122.920925 258.164219 
L 123.055413 249.977029 
L 123.727854 60.493813 
L 123.862342 53.568 
L 124.534783 107.875901 
L 125.072736 249.275997 
L 125.207225 254.463634 
L 125.341713 254.928428 
L 125.476201 254.881853 
L 125.745177 268.52557 
L 125.879666 269.967007 
L 126.014154 270.197483 
L 126.28313 256.702615 
L 126.821083 93.220488 
L 126.955571 74.809753 
L 127.09006 81.429225 
L 127.359036 106.046495 
L 127.493524 108.497226 
L 127.762501 127.05441 
L 127.896989 149.931105 
L 128.300453 247.653059 
L 128.434942 253.474027 
L 128.56943 251.64078 
L 128.703918 259.166311 
L 128.838406 259.892792 
L 129.241871 266.607815 
L 129.510847 245.829415 
L 130.0488 83.610107 
L 130.183288 74.471721 
L 130.317777 86.42912 
L 130.452265 115.347174 
L 130.586753 114.425749 
L 130.721241 110.766458 
L 130.855729 117.17754 
L 131.124706 170.624996 
L 131.393682 236.485042 
L 131.662659 259.661835 
L 131.931635 259.46497 
L 132.066123 259.282029 
L 132.3351 270.590734 
L 132.469588 270.441884 
L 132.604076 270.541277 
L 132.738564 270.499503 
L 133.007541 258.569474 
L 133.276517 248.075599 
L 133.679982 242.479346 
L 133.81447 241.293354 
L 133.948958 236.17774 
L 134.486911 246.086781 
L 134.755888 253.196495 
L 134.890376 253.081256 
L 135.697305 267.369827 
L 135.831793 272.135405 
L 135.966282 272.746647 
L 136.10077 270.757829 
L 136.235258 272.266008 
L 136.369746 271.990877 
L 136.504234 267.677609 
L 136.638723 267.518196 
L 136.907699 265.577394 
L 137.311164 254.660019 
L 137.445652 255.171389 
L 137.58014 252.480578 
L 137.983605 259.31516 
L 138.118093 258.410541 
L 138.252581 260.25099 
L 138.387069 264.756802 
L 138.521558 263.519913 
L 138.656046 263.721579 
L 138.925022 268.431459 
L 139.193999 252.137264 
L 139.731951 81.750451 
L 139.86644 72.805569 
L 140.269904 98.896928 
L 140.538881 123.400881 
L 140.673369 130.513956 
L 140.807857 144.919205 
L 141.076834 225.280532 
L 141.480298 258.574275 
L 142.018251 267.039478 
L 142.152739 266.574204 
L 142.421716 242.76312 
L 142.959669 91.780492 
L 143.094157 84.340909 
L 143.228645 83.851627 
L 143.363133 94.109743 
L 143.497621 84.806183 
L 143.63211 89.949165 
L 144.573527 259.82605 
L 144.708015 263.326889 
L 144.842504 263.503107 
L 145.11148 265.752652 
L 145.245968 267.902804 
L 145.380456 263.811849 
L 145.783921 202.448973 
L 146.052897 110.462517 
L 146.187386 91.280166 
L 146.456362 106.642852 
L 146.59085 118.001493 
L 146.725339 112.292403 
L 146.859827 119.730546 
L 146.994315 114.636539 
L 147.128803 127.538411 
L 147.532268 235.164604 
L 147.801244 261.268447 
L 147.935732 261.471554 
L 148.204709 266.761946 
L 148.339197 266.740339 
L 148.473685 267.245946 
L 148.742662 266.188636 
L 148.87715 248.434758 
L 149.280615 119.59418 
L 149.415103 115.538758 
L 149.549591 106.419579 
L 149.684079 107.680476 
L 150.087544 140.526711 
L 150.222032 132.802394 
L 150.35652 138.345349 
L 150.894473 253.657447 
L 151.028961 262.867857 
L 151.16345 261.906098 
L 151.835891 270.115856 
L 151.970379 268.838153 
L 152.104867 247.800468 
L 152.508332 113.559062 
L 152.64282 116.681056 
L 152.911796 104.777435 
L 153.046285 118.986779 
L 153.180773 117.47956 
L 153.449749 152.099022 
L 153.718726 193.219837 
L 153.987702 250.085064 
L 154.12219 267.208494 
L 154.256678 268.593272 
L 154.525655 272.471997 
L 154.794631 274.183283 
L 155.063608 277.140582 
L 155.198096 278.789448 
L 155.332584 278.143154 
L 155.467072 273.743457 
L 155.601561 263.222694 
L 155.736049 262.357928 
L 155.870537 259.480335 
L 156.005025 261.628566 
L 156.274002 259.723296 
L 156.40849 260.262034 
L 156.542978 261.521011 
L 156.677466 260.319173 
L 157.215419 268.362796 
L 157.349907 270.377543 
L 157.484396 269.381213 
L 157.618884 270.154749 
L 157.88786 273.344445 
L 158.022348 273.827485 
L 158.291325 276.839523 
L 158.560301 281.139346 
L 158.694789 279.566345 
L 158.829278 280.534826 
L 158.963766 280.136774 
L 159.232742 277.410912 
L 159.367231 277.694206 
L 159.501719 275.702026 
L 160.039672 261.557983 
L 160.308648 261.818229 
L 160.443136 267.561891 
L 160.577624 267.277157 
L 160.712113 265.313306 
L 160.846601 266.01818 
L 160.981089 267.516756 
L 161.250066 271.289845 
L 161.519042 272.245361 
L 161.788018 255.409067 
L 162.460459 84.037928 
L 162.594948 83.699896 
L 162.729436 82.234451 
L 162.998412 101.909925 
L 163.132901 110.8937 
L 163.401877 152.338142 
L 163.670853 223.373341 
L 164.074318 257.610116 
L 164.208806 258.748093 
L 164.477783 271.457901 
L 164.612271 273.829406 
L 164.746759 269.107042 
L 165.015735 251.52266 
L 165.4192 121.213757 
L 165.553688 123.823901 
L 165.822665 109.871922 
L 165.957153 115.149829 
L 166.091641 112.051843 
L 166.360618 100.549155 
L 166.495106 106.769134 
L 166.89857 222.470162 
L 167.033059 229.47136 
L 167.302035 247.938754 
L 167.974476 266.481053 
L 168.108964 260.783487 
L 168.243453 246.712428 
L 168.377941 208.475448 
L 168.646917 106.594356 
L 168.781405 107.882623 
L 168.915894 103.337918 
L 169.050382 104.64347 
L 169.18487 108.454972 
L 169.319358 93.062996 
L 169.453847 95.55166 
L 169.857311 149.151327 
L 170.126288 227.677005 
L 170.395264 258.621811 
L 170.529752 259.505303 
L 170.66424 262.956686 
L 170.798729 263.146829 
L 171.067705 265.483763 
L 171.202193 268.330145 
L 171.47117 246.451221 
L 172.009123 110.673787 
L 172.143611 109.090703 
L 172.412587 97.284074 
L 172.95054 129.92144 
L 173.622981 260.599586 
L 173.757469 264.605552 
L 173.891958 278.041841 
L 174.026446 277.108892 
L 174.160934 277.064717 
L 174.42991 278.602186 
L 174.698887 263.748948 
L 174.833375 246.553015 
L 175.102351 177.742873 
L 175.371328 144.228257 
L 175.505816 141.316092 
L 175.640304 151.525713 
L 175.774792 151.214089 
L 175.909281 152.629118 
L 176.043769 157.456636 
L 176.178257 157.147414 
L 176.312745 171.683747 
L 176.581722 239.639206 
L 176.850698 266.883906 
L 176.985186 264.378917 
L 177.254163 269.134411 
L 177.388651 269.090717 
L 177.792116 275.678498 
L 177.926604 276.573034 
L 178.19558 265.809311 
L 178.330069 265.367084 
L 178.599045 257.766168 
L 178.733533 257.19814 
L 178.868021 259.516827 
L 179.136998 255.99054 
L 179.271486 256.589298 
L 179.540462 254.091991 
L 179.809439 261.633368 
L 179.943927 268.938026 
L 180.212904 267.027474 
L 180.48188 276.941796 
L 180.616368 276.955721 
L 180.750856 277.329765 
L 180.885345 278.165241 
L 181.019833 278.25215 
L 181.692274 265.882295 
L 181.826762 267.184486 
L 181.96125 261.171455 
L 182.095738 262.962448 
L 182.364715 268.427617 
L 182.499203 269.712043 
L 182.633691 272.87533 
L 182.902668 272.053298 
L 183.171644 278.214698 
L 183.306132 279.637889 
L 183.440621 278.52248 
L 183.575109 276.209074 
L 183.844085 288.000818 
L 183.978573 288.956814 
L 184.113062 286.666456 
L 184.382038 275.223307 
L 184.919991 183.033264 
L 185.054479 187.069001 
L 185.188967 179.960727 
L 185.457944 183.840412 
L 185.592432 185.347151 
L 185.995897 223.292194 
L 186.264873 254.043495 
L 186.53385 269.879618 
L 186.802826 280.18527 
L 187.071802 290.735323 
L 187.206291 289.5791 
L 187.340779 290.718998 
L 187.475267 287.525461 
L 187.609755 279.486639 
L 188.01322 203.193699 
L 188.147708 186.711282 
L 188.282196 186.931195 
L 188.416684 185.967996 
L 188.551173 189.296938 
L 188.685661 195.731069 
L 188.820149 191.2968 
L 188.954637 195.754596 
L 189.089126 204.169862 
L 189.627078 266.487295 
L 189.761567 269.089277 
L 189.896055 274.351819 
L 190.030543 271.903488 
L 190.299519 273.744418 
L 190.434008 272.567068 
L 190.971961 276.009328 
L 191.106449 272.539219 
L 191.240937 272.051377 
L 191.375425 272.492163 
L 191.509913 268.040609 
L 191.644402 269.597765 
L 191.913378 268.325344 
L 192.182354 262.659948 
L 192.316843 263.010464 
L 192.451331 262.509658 
L 192.585819 263.837298 
L 192.720307 269.637138 
L 192.989284 270.901397 
L 193.392748 268.200022 
L 193.661725 271.097301 
L 193.796213 271.634599 
L 194.065189 263.706214 
L 194.603142 159.413284 
L 194.73763 154.475809 
L 194.872119 144.471697 
L 195.006607 146.055742 
L 195.141095 150.824681 
L 195.275583 143.387018 
L 195.54456 156.851156 
L 195.948024 251.373811 
L 196.217001 261.764932 
L 196.351489 263.701893 
L 196.485977 273.225366 
L 196.620465 272.569469 
L 196.889442 273.129334 
L 197.02393 274.26395 
L 197.158418 272.524814 
L 197.292907 266.16943 
L 197.830859 197.085117 
L 197.965348 199.409086 
L 198.099836 196.073422 
L 198.234324 200.500968 
L 198.5033 187.104052 
L 198.772277 200.978246 
L 199.31023 273.905271 
L 199.713694 283.066704 
L 199.848183 281.891755 
L 200.117159 282.623518 
L 200.251647 280.830604 
L 200.386135 275.02068 
L 200.520624 274.615426 
L 200.655112 261.587753 
L 200.7896 214.111074 
L 200.924088 212.130418 
L 201.058576 200.383809 
L 201.193065 200.02369 
L 201.327553 197.324236 
L 201.462041 199.508479 
L 201.731018 187.645191 
L 201.865506 189.013644 
L 202.134482 211.830799 
L 202.403459 265.590838 
L 202.806923 275.44226 
L 203.0759 266.9252 
L 203.210388 271.27544 
L 203.344876 271.402202 
L 203.748341 261.975241 
L 203.882829 244.494574 
L 204.151805 182.200669 
L 204.420782 165.639986 
L 204.55527 159.980832 
L 204.689758 163.436056 
L 204.824246 156.901573 
L 204.958735 173.011386 
L 205.093223 173.259148 
L 205.765664 261.391368 
L 205.900152 261.905138 
L 206.03464 265.725763 
L 206.169129 280.654866 
L 206.303617 281.138386 
L 206.572593 285.098257 
L 206.84157 285.914047 
L 207.110546 276.475082 
L 207.379522 267.242585 
L 207.514011 266.360053 
L 207.917475 274.521795 
L 208.051964 274.274033 
L 208.32094 267.878796 
L 208.589916 269.489249 
L 208.858893 277.584249 
L 208.993381 281.257465 
L 209.127869 281.84422 
L 209.262357 281.297318 
L 209.396846 275.41105 
L 209.531334 276.514455 
L 209.80031 276.097197 
L 209.934799 277.093527 
L 210.203775 264.846592 
L 211.010704 108.883274 
L 211.279681 134.643803 
L 211.683145 167.923622 
L 212.221098 256.037115 
L 212.355586 258.514255 
L 212.759051 273.837569 
L 212.893539 273.62918 
L 213.028027 273.730013 
L 213.162516 276.393455 
L 213.431492 258.593482 
L 213.56598 220.306085 
L 213.834957 135.929669 
L 213.969445 140.540155 
L 214.103933 139.442992 
L 214.238421 142.420458 
L 214.910862 180.951295 
L 215.448815 261.686666 
L 215.583303 266.680319 
L 215.717792 267.301645 
L 216.121256 271.588024 
L 216.255745 272.550743 
L 216.390233 274.954899 
L 216.524721 270.923964 
L 216.659209 263.362901 
L 217.062674 149.643009 
L 217.197162 151.566046 
L 217.33165 151.647193 
L 217.466138 163.17773 
L 217.600627 161.886583 
L 217.735115 149.963755 
L 217.869603 155.224377 
L 218.273068 197.657466 
L 218.542044 256.815453 
L 218.811021 273.710327 
L 218.945509 266.248656 
L 219.483462 277.030626 
L 219.61795 278.839385 
L 219.886926 265.009366 
L 220.290391 162.835857 
L 220.693856 151.107974 
L 220.828344 161.833766 
L 220.962832 157.89022 
L 221.231808 185.201662 
L 221.500785 199.14788 
L 221.769761 256.678127 
L 222.038738 272.401893 
L 222.173226 271.644683 
L 222.307714 272.876771 
L 222.576691 278.962786 
L 222.845667 281.617104 
L 222.980155 279.935107 
L 223.114643 281.819251 
L 223.38362 261.147447 
L 223.518108 265.034814 
L 223.652596 264.877322 
L 223.921573 257.874684 
L 224.190549 257.19814 
L 224.325037 259.702169 
L 224.459525 259.069799 
L 224.728502 255.187234 
L 225.131967 262.501015 
L 225.266455 261.0058 
L 225.535431 262.487091 
L 225.669919 261.166173 
L 226.073384 270.994547 
L 226.34236 274.044517 
L 226.476849 273.972013 
L 226.745825 270.805365 
L 226.880313 273.103886 
L 227.014802 273.348767 
L 227.14929 273.049628 
L 227.283778 271.620195 
L 227.418266 273.308914 
L 227.552754 273.438557 
L 227.687243 273.2681 
L 227.956219 272.15125 
L 228.090707 278.00919 
L 228.225195 278.048563 
L 228.359684 279.15821 
L 228.494172 278.379873 
L 228.62866 279.357956 
L 228.763148 279.242718 
L 228.897637 276.937955 
L 229.301101 277.848337 
L 229.435589 271.589464 
L 229.570078 257.403648 
L 230.242519 94.79445 
L 230.377007 79.849501 
L 230.511495 110.04766 
L 230.780471 118.056711 
L 231.049448 145.725872 
L 231.587401 255.229488 
L 231.856377 266.534351 
L 232.125354 271.383956 
L 232.39433 276.074629 
L 232.528818 275.254998 
L 232.797795 258.026414 
L 232.932283 221.491598 
L 233.201259 133.69885 
L 233.335748 125.463644 
L 233.470236 135.835078 
L 233.604724 136.058832 
L 233.739212 148.943898 
L 233.8737 134.099783 
L 234.008189 140.871465 
L 234.815118 265.948557 
L 234.949606 265.680148 
L 235.218583 271.626917 
L 235.622047 279.420857 
L 235.756535 278.818738 
L 236.025512 266.070517 
L 236.563465 129.513305 
L 236.832441 117.213072 
L 237.63937 201.513623 
L 237.908347 260.00707 
L 238.177323 268.154407 
L 238.849764 283.180502 
L 238.984252 282.349827 
L 239.118741 278.52392 
L 239.253229 264.522965 
L 239.791182 128.737848 
L 240.194646 146.601202 
L 240.463623 165.866141 
L 240.732599 179.420068 
L 241.270552 257.456945 
L 241.674017 263.374905 
L 241.942993 276.411701 
L 242.077481 282.958188 
L 242.21197 282.32774 
L 242.480946 264.230068 
L 242.884411 151.683205 
L 243.018899 159.61207 
L 243.153387 157.349081 
L 243.287875 146.2915 
L 243.422363 154.329841 
L 243.556852 151.497863 
L 243.825828 168.258293 
L 244.229293 240.766619 
L 244.498269 263.313924 
L 244.767246 268.624963 
L 245.17071 276.538943 
L 245.305198 277.409951 
L 245.439687 277.112253 
L 245.574175 275.874883 
L 245.708663 264.337623 
L 245.843151 269.8244 
L 246.112128 266.821486 
L 246.381104 261.605999 
L 246.515592 261.572388 
L 247.188033 271.886683 
L 247.322522 272.294818 
L 247.45701 273.167747 
L 247.591498 272.810989 
L 247.725986 275.995883 
L 247.860475 274.548204 
L 248.129451 275.880645 
L 248.263939 274.991391 
L 248.398427 275.678498 
L 248.532916 275.524367 
L 248.667404 277.482455 
L 248.801892 277.383063 
L 249.205357 278.932055 
L 249.339845 279.049214 
L 249.608821 278.094658 
L 249.743309 278.227182 
L 249.877798 277.925162 
L 250.550239 274.738827 
L 250.819215 275.040847 
L 250.953703 275.824466 
L 251.088192 274.681208 
L 251.357168 275.946907 
L 251.491656 284.900912 
L 251.626144 284.408268 
L 251.760633 284.841372 
L 251.895121 284.680519 
L 252.164097 272.3606 
L 252.70205 144.165356 
L 252.836538 164.02137 
L 252.971027 160.556062 
L 253.240003 173.543883 
L 253.374491 174.905133 
L 253.508979 171.961759 
L 253.777956 204.982291 
L 254.046932 256.653639 
L 254.315909 278.110503 
L 254.719373 286.516647 
L 254.853862 286.275127 
L 255.122838 288.019064 
L 255.391814 267.127347 
L 255.660791 173.333093 
L 255.795279 176.801281 
L 256.198744 161.033341 
L 256.333232 164.729124 
L 256.46772 162.048397 
L 256.602208 163.251675 
L 257.409138 258.908946 
L 257.812602 266.425835 
L 258.081579 281.72466 
L 258.216067 282.794934 
L 258.350555 282.061251 
L 258.619532 267.804851 
L 258.888508 178.166373 
L 259.022996 179.040743 
L 259.157484 169.933087 
L 259.291973 169.354015 
L 259.426461 153.775738 
L 259.695437 167.558701 
L 259.829925 156.359953 
L 259.964414 165.487775 
L 260.771343 261.997809 
L 261.040319 264.249754 
L 261.309296 271.794012 
L 261.443784 275.027403 
L 261.71276 272.095552 
L 261.847249 259.629665 
L 262.116225 170.9395 
L 262.250713 175.131768 
L 262.654178 148.542965 
L 262.788666 155.887477 
L 262.923154 151.088768 
L 263.326619 186.449115 
L 263.461107 197.412585 
L 263.864572 246.480991 
L 264.268036 264.632441 
L 264.402525 263.870429 
L 264.671501 267.320851 
L 264.805989 267.194089 
L 264.940478 266.237612 
L 265.074966 258.624212 
L 265.209454 239.393365 
L 265.612919 124.413536 
L 265.881895 106.192943 
L 266.016383 115.751468 
L 266.150871 115.619905 
L 266.28536 115.169035 
L 266.419848 119.828018 
L 266.688824 157.325073 
L 266.957801 236.607962 
L 267.226777 253.373193 
L 267.361265 251.942319 
L 267.495754 268.408411 
L 267.630242 268.090546 
L 267.76473 269.970848 
L 267.899218 270.283912 
L 268.168195 276.843844 
L 268.302683 277.734059 
L 268.437171 275.157046 
L 268.706147 277.70861 
L 268.975124 274.192886 
L 269.2441 272.296739 
L 269.916541 257.716231 
L 270.320006 259.61718 
L 270.588982 264.533528 
L 270.723471 278.716464 
L 270.857959 279.76273 
L 270.992447 278.275678 
L 271.126935 279.164452 
L 271.261424 279.194222 
L 271.395912 279.00696 
L 271.799376 281.801485 
L 271.933865 280.407584 
L 272.068353 280.764822 
L 272.202841 280.116127 
L 272.337329 280.353806 
L 272.471817 279.505365 
L 272.606306 277.326404 
L 272.740794 278.617071 
L 272.875282 278.292484 
L 273.00977 277.611138 
L 273.144258 275.2622 
L 273.278747 275.161847 
L 273.547723 278.158999 
L 273.682211 278.374591 
L 273.8167 279.062659 
L 273.951188 278.195492 
L 274.085676 288.91408 
L 274.354652 290.557184 
L 274.489141 288.975061 
L 274.758117 274.158315 
L 275.29607 166.937375 
L 275.565046 154.616496 
L 275.699535 154.955968 
L 275.834023 173.033474 
L 275.968511 175.331034 
L 276.102999 185.55746 
L 276.77544 265.422302 
L 277.447881 282.943784 
L 277.58237 286.363956 
L 277.716858 285.970226 
L 277.851346 281.541239 
L 277.985834 271.488151 
L 278.389299 210.558378 
L 278.523787 190.936681 
L 278.658275 188.924335 
L 278.792763 179.342282 
L 278.927252 191.557527 
L 279.06174 185.696226 
L 279.196228 187.801723 
L 279.330716 195.551489 
L 280.137646 275.868161 
L 280.272134 278.271357 
L 280.406622 269.85609 
L 280.54111 269.569916 
L 280.810087 270.749186 
L 280.944575 270.121618 
L 281.213551 262.146658 
L 281.348039 232.991885 
L 281.482528 162.026789 
L 281.617016 151.745625 
L 281.751504 128.179903 
L 281.885992 129.339967 
L 282.154969 142.946232 
L 282.289457 124.700191 
L 282.423945 128.817554 
L 282.558433 137.992912 
L 282.82741 186.785707 
L 283.096386 255.833528 
L 283.365363 262.511099 
L 283.499851 264.734235 
L 283.634339 264.058171 
L 283.768827 264.068734 
L 283.903316 264.259357 
L 284.037804 265.573553 
L 284.172292 265.703676 
L 284.441268 260.472824 
L 285.113709 144.365582 
L 285.248198 143.281863 
L 285.382686 138.71219 
L 285.517174 148.020552 
L 285.651662 144.897118 
L 285.78615 148.411402 
L 286.055127 201.924159 
L 286.324103 251.857331 
L 286.59308 261.605039 
L 286.727568 261.482598 
L 286.862056 280.556913 
L 286.996544 280.616453 
L 287.131033 279.631647 
L 287.265521 280.241449 
L 287.668985 276.689713 
L 287.803474 277.573205 
L 288.07245 276.692114 
L 288.206938 274.50547 
L 288.341427 274.449771 
L 288.475915 272.086909 
L 288.610403 271.713345 
L 288.744891 270.581611 
L 288.879379 273.429434 
L 289.013868 273.771307 
L 289.148356 270.94125 
L 289.417332 278.145555 
L 289.55182 279.340671 
L 289.820797 278.97671 
L 289.955285 279.772334 
L 290.089773 278.262714 
L 290.224262 279.820349 
L 290.35875 278.907087 
L 290.493238 279.893814 
L 290.627726 278.34146 
L 291.031191 260.239947 
L 291.300167 193.600123 
L 291.434655 187.977461 
L 291.569144 188.589184 
L 291.703632 192.680138 
L 291.972608 179.84789 
L 292.376073 193.01721 
L 293.048514 269.934356 
L 293.183002 271.189492 
L 293.31749 270.029908 
L 293.451979 270.786639 
L 293.586467 269.850809 
L 293.720955 272.342834 
L 293.855443 272.607882 
L 294.258908 248.523587 
L 294.527884 190.139137 
L 294.796861 158.240736 
L 294.931349 142.263446 
L 295.065837 142.128521 
L 295.200325 150.154859 
L 295.334814 144.395832 
L 295.60379 172.644545 
L 295.738278 187.233695 
L 296.141743 257.915017 
L 296.276231 257.01904 
L 296.410719 264.26656 
L 296.545208 282.064613 
L 296.948672 284.242614 
L 297.486625 286.220869 
L 297.621113 285.873234 
L 297.755601 285.869392 
L 298.024578 282.676335 
L 298.159066 282.525085 
L 298.428042 280.370132 
L 298.697019 276.521177 
L 298.831507 275.378879 
L 298.965995 275.235792 
L 299.100484 275.59351 
L 299.36946 279.400691 
L 299.503948 278.891242 
L 299.638436 280.443596 
L 299.772925 270.727579 
L 299.907413 274.149672 
L 300.041901 273.846212 
L 300.176389 274.7177 
L 300.310877 274.432486 
L 300.579854 263.397952 
L 301.252295 128.513614 
L 301.386783 128.582757 
L 301.521271 141.85195 
L 301.65576 134.869478 
L 301.790248 144.339173 
L 302.597177 253.774606 
L 302.731665 255.53775 
L 303.000642 268.018042 
L 303.13513 268.243717 
L 303.269618 268.726757 
L 303.404106 271.200536 
L 303.538595 271.622115 
L 303.807571 255.168027 
L 304.345524 164.86693 
L 304.6145 154.282785 
L 304.748988 162.568409 
L 304.883477 152.939301 
L 305.017965 159.055086 
L 306.093871 266.460406 
L 306.228359 267.476903 
L 306.497335 277.691325 
L 306.766312 278.727027 
L 306.9008 273.99122 
L 307.035288 263.39075 
L 307.304265 170.376754 
L 307.438753 177.680452 
L 307.842217 158.306998 
L 307.976706 165.398946 
L 308.111194 156.931342 
L 308.245682 161.922595 
L 308.649147 208.191194 
L 309.052611 264.883084 
L 309.590564 277.184757 
L 309.994029 278.897964 
L 310.128517 275.324141 
L 310.263005 262.63498 
L 310.531982 170.264877 
L 310.66647 171.42302 
L 310.935446 169.120658 
L 311.069934 159.715304 
L 311.204423 166.208014 
L 311.338911 164.909664 
L 311.473399 158.096688 
L 311.607887 171.309223 
L 311.876864 209.103496 
L 312.14584 251.675831 
L 312.414817 263.549682 
L 312.818281 272.21031 
L 312.952769 271.773845 
L 313.087258 273.670473 
L 313.221746 273.57108 
L 313.356234 275.157046 
L 313.625211 264.53977 
L 313.759699 256.602742 
L 313.894187 259.974899 
L 314.028675 257.431497 
L 314.163163 259.325724 
L 314.297652 256.549445 
L 314.566628 263.15067 
L 314.701116 263.889635 
L 314.970093 268.670578 
L 315.104581 268.632645 
L 315.239069 268.334467 
L 315.508045 271.284083 
L 315.642534 271.824262 
L 315.777022 271.491992 
L 316.180487 274.499228 
L 316.314975 274.057001 
L 316.718439 276.425145 
L 316.852928 276.675788 
L 316.987416 275.817264 
L 317.121904 275.883046 
L 317.256392 274.756593 
L 317.39088 274.902081 
L 317.525369 273.354049 
L 317.659857 274.278835 
L 317.928833 271.744556 
L 318.332298 267.985871 
L 318.466786 268.644169 
L 318.601274 268.138562 
L 318.735763 269.603527 
L 318.870251 269.438832 
L 319.139227 270.561924 
L 319.273715 280.45656 
L 319.67718 281.581573 
L 319.811668 278.987274 
L 319.946157 270.985424 
L 320.349621 148.262072 
L 320.484109 132.013973 
L 320.887574 159.456498 
L 321.022062 164.151013 
L 321.291039 179.022497 
L 321.425527 180.833656 
L 321.560015 199.385078 
L 321.828991 255.247254 
L 321.96348 263.383547 
L 322.097968 264.174849 
L 322.635921 280.975612 
L 322.770409 281.324688 
L 322.904897 280.661588 
L 323.173874 270.166753 
L 323.44285 174.124875 
L 323.577338 174.488835 
L 323.711826 174.691463 
L 323.980803 154.392742 
L 324.249779 157.953121 
L 324.384268 160.736122 
L 324.787732 197.197954 
L 325.056709 252.049875 
L 325.325685 261.377443 
L 325.863638 279.30706 
L 325.998126 281.085088 
L 326.132614 281.15087 
L 326.267103 277.91844 
L 326.401591 268.865042 
L 326.670567 166.8908 
L 326.805055 172.882224 
L 326.939544 174.061494 
L 327.20852 160.755328 
L 327.343008 168.947801 
L 327.611985 165.171351 
L 327.746473 170.060329 
L 328.149937 225.085587 
L 328.418914 256.116341 
L 328.68789 269.004288 
L 328.822379 271.472306 
L 328.956867 281.579172 
L 329.225843 282.531807 
L 329.360331 281.679525 
L 329.629308 268.769971 
L 330.032772 179.219362 
L 330.301749 167.812225 
L 330.570725 158.950891 
L 330.839702 180.93593 
L 330.97419 182.155534 
L 331.108678 184.917408 
L 331.781119 261.257404 
L 332.050096 268.463629 
L 332.184584 279.302738 
L 332.319072 280.264497 
L 332.45356 279.595635 
L 332.588049 280.589084 
L 332.857025 267.905685 
L 333.26049 178.584111 
L 333.394978 180.505227 
L 333.663954 165.505061 
L 333.798442 166.704498 
L 333.932931 170.493913 
L 334.336395 188.464823 
L 334.73986 256.604183 
L 335.143325 272.426381 
L 335.277813 272.226635 
L 335.412301 272.324588 
L 335.546789 272.611723 
L 335.681277 272.506088 
L 335.950254 275.103268 
L 336.084742 272.99633 
L 336.622695 256.435647 
L 336.757183 257.235112 
L 336.891671 255.395143 
L 337.295136 261.79038 
L 337.698601 266.550676 
L 337.833089 266.068596 
L 338.102065 270.192202 
L 338.236553 269.958844 
L 338.371042 270.599857 
L 338.50553 268.250919 
L 339.043483 271.428131 
L 339.446947 274.441609 
L 339.581436 273.957128 
L 339.715924 272.781219 
L 339.850412 273.041945 
L 339.9849 272.257365 
L 340.119388 272.144048 
L 340.253877 271.66773 
L 340.388365 273.153342 
L 340.522853 271.153 
L 340.657341 271.755119 
L 340.926318 271.434853 
L 341.060806 268.077101 
L 341.329782 272.987207 
L 341.464271 272.884933 
L 341.598759 273.416469 
L 341.733247 274.991871 
L 341.867735 282.858795 
L 342.136712 282.961069 
L 342.2712 283.606403 
L 342.540176 270.838016 
L 342.943641 155.002544 
L 343.212617 171.706794 
L 343.347106 170.96831 
L 343.75057 185.4355 
L 343.885058 187.119897 
L 344.019547 186.453437 
L 344.423011 254.727722 
L 345.22994 280.568437 
L 345.364429 281.658398 
L 345.498917 281.288676 
L 345.633405 277.047912 
L 345.767893 268.91738 
L 346.03687 184.183245 
L 346.171358 188.324616 
L 346.440334 174.68234 
L 346.574823 169.280551 
L 346.843799 176.198201 
L 347.112775 178.077544 
L 347.381752 212.753664 
L 347.650728 251.886141 
L 348.054193 269.949721 
L 348.188681 271.138595 
L 348.323169 280.158381 
L 348.457658 281.011144 
L 348.592146 282.892407 
L 348.726634 282.696022 
L 348.99561 269.716364 
L 349.264587 183.126895 
L 349.399075 184.609146 
L 349.668052 166.95226 
L 349.80254 162.817131 
L 350.206004 181.618236 
L 350.340493 182.804709 
L 351.012934 263.435885 
L 351.147422 265.769457 
L 351.550886 282.526045 
L 351.685375 281.810128 
L 351.954351 282.17889 
L 352.088839 280.773945 
L 352.223328 273.444799 
L 352.492304 179.027298 
L 352.626792 186.231123 
L 352.76128 174.799978 
L 352.895769 174.087423 
L 353.030257 165.764347 
L 353.164745 173.014267 
L 353.299233 170.926056 
L 353.56821 153.055019 
L 354.240651 270.091848 
L 354.375139 271.235587 
L 354.644115 277.129539 
L 354.913092 281.426481 
L 355.182068 282.474188 
L 355.316556 280.058988 
L 355.451045 270.88219 
L 355.854509 197.188831 
L 356.123486 158.650312 
L 356.257974 160.373122 
L 356.392462 169.028948 
L 356.52695 168.392257 
L 356.661439 179.054667 
L 356.795927 177.796651 
L 357.33388 265.758894 
L 357.602856 275.406728 
L 357.737344 277.381622 
L 357.871832 281.659358 
L 358.006321 281.077886 
L 358.140809 281.293477 
L 358.275297 282.037243 
L 358.409785 281.948894 
L 358.678762 280.682715 
L 359.082226 262.117368 
L 359.351203 256.180683 
L 359.485691 249.876195 
L 359.620179 260.666328 
L 359.754667 262.088079 
L 359.889156 262.257094 
L 360.427109 276.62153 
L 360.561597 277.304797 
L 360.965061 281.474017 
L 361.234038 281.434164 
L 361.368526 281.24162 
L 361.503014 282.553895 
L 361.771991 282.144319 
L 361.906479 283.482042 
L 362.040967 283.434026 
L 362.175455 283.811431 
L 362.309944 283.852244 
L 362.57892 280.421509 
L 362.713408 280.372052 
L 362.982385 279.231194 
L 363.116873 277.730698 
L 363.251361 277.628424 
L 363.385849 278.725107 
L 363.520337 277.866583 
L 363.654826 277.806563 
L 364.05829 280.60781 
L 364.192778 254.459313 
L 364.730731 260.750836 
L 364.86522 259.548998 
L 364.999708 247.400976 
L 365.134196 225.126881 
L 365.403172 136.308514 
L 365.672149 105.844828 
L 365.806637 99.890377 
L 366.075613 116.930258 
L 366.34459 113.768412 
L 366.479078 125.264378 
L 367.017031 252.361978 
L 367.151519 257.34939 
L 367.286007 255.604492 
L 367.554984 267.028914 
L 367.689472 267.900403 
L 367.958448 272.827794 
L 368.227425 249.133389 
L 368.496401 152.63584 
L 368.765378 100.461286 
L 369.034354 89.497816 
L 369.168842 94.246588 
L 369.303331 93.79956 
L 369.437819 97.187562 
L 369.572307 95.053255 
L 369.706795 111.254299 
L 370.244748 235.801775 
L 370.782701 280.273139 
L 370.917189 280.579961 
L 371.051677 281.476898 
L 371.186166 281.196485 
L 371.455142 266.288509 
L 371.858607 172.466886 
L 372.127583 204.642339 
L 372.262071 200.557627 
L 372.396559 201.992822 
L 372.665536 191.241582 
L 372.800024 195.058846 
L 373.203489 235.002311 
L 373.472465 257.392124 
L 373.87593 278.711662 
L 374.010418 287.784266 
L 374.144906 287.637338 
L 374.279394 288.851179 
L 374.413883 288.345092 
L 374.682859 271.685016 
L 375.220812 181.747879 
L 375.489788 178.09675 
L 375.624277 178.320984 
L 375.893253 184.895801 
L 376.027741 189.217712 
L 376.565694 257.208223 
L 376.83467 266.152144 
L 376.969159 269.005729 
L 377.103647 280.889183 
L 377.238135 279.789619 
L 377.507112 281.87495 
L 377.6416 279.897175 
L 377.776088 283.458034 
L 378.045064 281.297799 
L 378.179553 271.598107 
L 378.314041 270.968619 
L 378.448529 263.824814 
L 378.583017 264.831707 
L 378.717505 263.908841 
L 378.851994 268.447784 
L 378.986482 267.682891 
L 379.12097 268.596633 
L 379.255458 270.769353 
L 379.389947 270.652194 
L 379.927899 279.963437 
L 380.062388 279.755528 
L 380.196876 280.174707 
L 380.331364 270.204206 
L 380.465852 270.886512 
L 380.869317 273.808759 
L 381.138293 262.844809 
L 381.272782 235.580422 
L 381.541758 160.51909 
L 381.810734 140.229493 
L 381.945223 141.830823 
L 382.214199 148.358584 
L 382.348687 140.318322 
L 382.752152 190.490613 
L 383.021128 258.923351 
L 383.155616 266.901672 
L 383.290105 267.568133 
L 383.424593 268.863602 
L 383.559081 263.90356 
L 383.693569 263.187162 
L 383.962546 263.535758 
L 384.097034 264.733754 
L 384.231522 262.93844 
L 384.36601 264.339544 
L 385.038451 149.427898 
L 385.17294 151.886792 
L 385.307428 167.118875 
L 385.576404 161.438595 
L 386.248845 261.787499 
L 386.921286 280.407104 
L 387.055775 279.586992 
L 387.190263 280.872858 
L 387.324751 280.177588 
L 387.459239 280.339881 
L 387.593727 281.838938 
L 387.728216 281.260826 
L 387.862704 282.586545 
L 387.997192 281.409676 
L 388.13168 283.010526 
L 388.266169 282.019958 
L 388.400657 280.021536 
L 388.535145 280.111326 
L 388.669633 279.444385 
L 388.804121 280.591005 
L 388.93861 278.023114 
L 389.207586 280.177588 
L 389.476562 286.911817 
L 389.611051 285.846345 
L 389.745539 286.668377 
L 389.880027 286.616039 
L 390.014515 271.611552 
L 390.149004 271.850191 
L 390.41798 271.872278 
L 390.552468 271.740714 
L 390.686956 266.204001 
L 390.821445 266.390303 
L 390.955933 257.476152 
L 391.224909 200.923028 
L 391.359397 169.325206 
L 391.493886 165.307236 
L 391.762862 176.076241 
L 391.89735 175.52886 
L 392.031839 168.254451 
L 392.166327 171.980005 
L 392.300815 181.023319 
L 392.569791 241.605937 
L 392.70428 268.079982 
L 392.973256 272.956957 
L 393.107744 273.619096 
L 393.376721 266.512743 
L 393.645697 272.27129 
L 393.780185 268.856399 
L 393.914673 270.250781 
L 394.049162 262.785269 
L 394.721603 147.362734 
L 394.990579 146.283337 
L 395.125067 145.860317 
L 395.259556 157.326033 
L 395.394044 158.202323 
L 395.931997 246.973154 
L 396.200973 260.680252 
L 396.335461 256.916766 
L 396.46995 281.866307 
L 396.604438 282.252355 
L 397.007902 285.309047 
L 397.276879 272.158933 
L 397.545855 197.922994 
L 397.680343 192.698384 
L 397.94932 169.153789 
L 398.083808 155.590739 
L 398.218296 168.425388 
L 398.352785 163.624758 
L 398.487273 166.658883 
L 398.487273 166.658883 
" clip-path="url(#p045989523b)" style="fill: none; stroke: #1f77b4; stroke-width: 1.5; stroke-linecap: square"/>
   </g>
   <g id="line2d_13">
    <path d="M 73.832727 281.351684 
L 73.967215 281.634645 
L 74.236192 280.977141 
L 74.37068 279.5067 
L 74.505168 280.826039 
L 74.639657 279.905423 
L 74.774145 280.528841 
L 74.908633 270.195507 
L 75.043121 226.966781 
L 75.177609 245.015912 
L 75.446586 249.898675 
L 75.581074 247.951112 
L 75.715562 249.838799 
L 75.85005 249.64808 
L 75.984539 251.701716 
L 76.388003 249.034184 
L 76.522492 280.483841 
L 76.925956 275.525461 
L 77.060444 277.173623 
L 77.194933 263.427511 
L 77.329421 266.650209 
L 77.463909 267.04063 
L 77.598397 265.320914 
L 77.732885 267.117949 
L 77.867374 254.546293 
L 78.001862 227.765625 
L 78.270838 126.833844 
L 78.405327 93.417046 
L 78.674303 113.297159 
L 78.808791 102.970832 
L 78.943279 109.682064 
L 79.077768 109.307041 
L 79.61572 191.530953 
L 79.884697 246.935272 
L 80.153673 265.339517 
L 80.288161 270.48265 
L 80.42265 262.222037 
L 80.557138 276.407643 
L 80.826114 271.264319 
L 80.960603 270.038419 
L 81.095091 262.659837 
L 81.229579 243.454939 
L 81.498555 152.25411 
L 81.633044 170.863105 
L 81.767532 165.262184 
L 81.90202 154.764157 
L 82.170996 167.519984 
L 82.305485 165.921435 
L 82.439973 166.920482 
L 82.708949 227.900712 
L 82.843438 232.782608 
L 83.112414 260.0398 
L 83.246902 262.13424 
L 83.515879 273.190911 
L 83.784855 292.341913 
L 84.053831 286.282763 
L 84.18832 284.801884 
L 84.322808 279.019403 
L 84.457296 266.326432 
L 84.726273 172.56782 
L 84.860761 173.985713 
L 84.995249 176.943027 
L 85.129737 185.688774 
L 85.264225 166.188216 
L 85.533202 183.681458 
L 85.936666 216.664471 
L 86.205643 263.425577 
L 86.340131 260.45892 
L 86.474619 268.362776 
L 86.609107 266.380459 
L 87.012572 290.976055 
L 87.14706 290.748282 
L 87.281549 287.914063 
L 87.416037 289.507649 
L 87.550525 288.763014 
L 87.685013 286.891101 
L 87.95399 249.774199 
L 88.088478 263.198354 
L 88.222966 257.912521 
L 88.357454 262.624704 
L 88.626431 254.463961 
L 88.760919 259.46767 
L 88.895407 248.267188 
L 89.029895 256.134858 
L 89.164384 256.059769 
L 89.298872 260.296978 
L 89.43336 278.38797 
L 89.567848 278.78061 
L 89.702336 278.484254 
L 89.836825 276.769702 
L 89.971313 279.1222 
L 90.105801 258.32458 
L 90.374777 264.853302 
L 90.509266 262.590956 
L 90.643754 264.38403 
L 90.778242 263.543731 
L 90.91273 265.743371 
L 91.047218 259.692306 
L 91.181707 246.281203 
L 91.316195 252.516363 
L 91.450683 245.715388 
L 91.585171 256.378942 
L 91.71966 250.906496 
L 91.854148 253.567866 
L 91.988636 253.403448 
L 92.257612 258.352159 
L 92.392101 257.333101 
L 92.795565 268.322475 
L 92.930053 270.198198 
L 93.064542 269.734795 
L 93.19903 268.267282 
L 93.333518 279.924141 
L 93.602495 275.390299 
L 93.736983 275.760937 
L 94.005959 264.55522 
L 94.140447 254.378966 
L 94.409424 169.572458 
L 94.543912 178.286396 
L 94.812888 158.184805 
L 94.947377 154.974714 
L 95.216353 170.60076 
L 95.350841 169.066002 
L 95.48533 162.008168 
L 95.888794 253.171974 
L 96.157771 267.645488 
L 96.292259 267.425225 
L 96.426747 271.28005 
L 96.561235 270.610327 
L 96.830212 265.900136 
L 96.9647 267.108499 
L 97.233676 260.059409 
L 97.502653 213.893503 
L 97.637141 167.801622 
L 97.771629 180.630008 
L 97.906117 173.180863 
L 98.040606 186.604526 
L 98.175094 179.593054 
L 98.309582 180.527182 
L 98.44407 177.023089 
L 98.847535 207.49658 
L 99.250999 270.602757 
L 99.385488 269.637103 
L 99.654464 276.391983 
L 99.788952 285.41092 
L 99.923441 284.023511 
L 100.057929 279.461914 
L 100.192417 279.863872 
L 100.461393 277.37149 
L 100.595882 274.911517 
L 100.73037 275.743513 
L 100.864858 280.650268 
L 100.999346 278.501801 
L 101.133834 284.148839 
L 101.268323 283.977855 
L 101.402811 282.522922 
L 101.537299 270.627865 
L 101.671787 276.669544 
L 101.806276 265.103088 
L 101.940764 263.561704 
L 102.075252 269.912145 
L 102.20974 269.555647 
L 102.478717 274.69755 
L 102.613205 280.984192 
L 102.747693 276.03518 
L 102.882181 284.081433 
L 103.016669 263.185937 
L 103.151158 262.247571 
L 103.285646 272.438371 
L 103.554622 262.463963 
L 103.68911 257.876359 
L 103.823599 248.885669 
L 104.092575 162.295337 
L 104.227063 169.837576 
L 104.361552 155.962778 
L 104.49604 169.631422 
L 104.765016 145.902855 
L 105.033993 165.471551 
L 105.302969 193.028917 
L 105.706434 265.071995 
L 105.97541 257.235269 
L 106.244387 288.556127 
L 106.378875 287.658129 
L 106.647851 280.896856 
L 106.782339 281.191207 
L 106.916828 278.672206 
L 107.051316 278.341651 
L 107.320292 222.226853 
L 107.589269 255.820639 
L 107.723757 249.904479 
L 107.858245 250.485091 
L 107.992733 249.812475 
L 108.127222 250.211728 
L 108.530686 243.606902 
L 108.665174 249.770952 
L 108.934151 280.279749 
L 109.203127 277.046371 
L 109.337615 278.537393 
L 109.472104 271.864703 
L 109.606592 273.376978 
L 109.875568 273.689535 
L 110.144545 272.861361 
L 110.279033 272.96049 
L 110.413521 272.797946 
L 110.682498 276.573417 
L 111.085962 272.625609 
L 111.22045 274.104832 
L 111.758403 266.696445 
L 112.161868 273.207065 
L 112.296356 273.245082 
L 112.430844 273.114893 
L 112.565333 274.030923 
L 112.699821 259.653289 
L 112.968797 266.514172 
L 113.103285 265.145809 
L 113.237774 266.128906 
L 113.372262 265.229309 
L 113.775726 271.316651 
L 113.910215 268.857122 
L 114.044703 270.373019 
L 114.179191 268.571253 
L 114.313679 262.175626 
L 114.448168 262.522656 
L 114.582656 261.886132 
L 114.717144 259.800186 
L 114.98612 251.499316 
L 115.120609 252.376639 
L 115.389585 262.977778 
L 115.524073 263.516688 
L 115.658561 263.496257 
L 115.927538 262.073487 
L 116.062026 261.259711 
L 116.196514 256.716923 
L 116.331002 265.687638 
L 116.599979 259.147957 
L 116.734467 239.592736 
L 117.003444 126.879058 
L 117.137932 83.725576 
L 117.27242 80.945243 
L 117.406908 86.813731 
L 117.541396 82.675918 
L 117.675885 82.617984 
L 117.810373 89.938794 
L 118.348326 188.49844 
L 118.617302 236.000178 
L 118.886279 251.845288 
L 119.020767 254.655305 
L 119.155255 254.022474 
L 119.289743 256.14044 
L 119.55872 251.386174 
L 119.693208 253.45499 
L 119.827696 250.758793 
L 119.962184 229.991532 
L 120.231161 119.967785 
L 120.365649 94.321594 
L 120.500137 94.260479 
L 120.634625 95.452183 
L 120.769114 89.414678 
L 120.903602 93.253592 
L 121.03809 92.05767 
L 121.172578 102.023183 
L 121.576043 178.651651 
L 121.845019 231.90483 
L 121.979507 245.317861 
L 122.113996 242.789656 
L 122.382972 248.435789 
L 122.51746 260.737633 
L 122.651948 259.305468 
L 122.786437 253.411932 
L 122.920925 253.325604 
L 123.055413 248.16133 
L 123.189901 231.724179 
L 123.458878 123.571385 
L 123.727854 82.280003 
L 124.131319 97.537296 
L 124.669272 142.526883 
L 125.072736 239.914455 
L 125.207225 256.870571 
L 125.341713 256.991173 
L 125.476201 258.014005 
L 125.610689 256.880836 
L 125.745177 269.684667 
L 125.879666 270.374943 
L 126.148642 264.633526 
L 126.417618 237.623382 
L 126.686595 131.607192 
L 126.955571 93.397224 
L 127.09006 89.692908 
L 127.224548 96.590242 
L 127.493524 116.724532 
L 127.628012 121.004854 
L 127.896989 156.66788 
L 128.434942 254.665999 
L 128.56943 254.786652 
L 128.703918 256.404669 
L 128.838406 262.783505 
L 129.107383 258.649429 
L 129.241871 262.236524 
L 129.376359 260.380764 
L 129.645336 219.562005 
L 130.0488 83.530377 
L 130.317777 93.64238 
L 130.452265 101.012426 
L 130.586753 123.956201 
L 130.721241 117.887112 
L 130.855729 123.984805 
L 130.990218 139.173823 
L 131.662659 260.745257 
L 131.797147 261.25259 
L 131.931635 263.302679 
L 132.200612 259.195672 
L 132.3351 262.609773 
L 132.469588 270.385361 
L 132.738564 265.738848 
L 132.873053 265.418146 
L 133.007541 251.294838 
L 133.142029 250.544549 
L 133.411005 244.476271 
L 133.679982 240.422772 
L 133.81447 242.207696 
L 133.948958 240.915928 
L 134.083447 236.468432 
L 134.352423 246.04319 
L 134.621399 251.789694 
L 134.755888 256.301655 
L 134.890376 256.247866 
L 135.024864 255.471484 
L 135.29384 261.903179 
L 135.428329 262.166133 
L 135.562817 263.023055 
L 135.831793 265.599492 
L 135.966282 271.419783 
L 136.10077 269.990186 
L 136.235258 264.23439 
L 136.504234 269.042631 
L 136.638723 265.2316 
L 136.773211 268.896653 
L 137.042187 267.16119 
L 137.311164 255.198846 
L 137.445652 255.028668 
L 137.58014 257.364032 
L 137.714628 254.563488 
L 137.983605 262.53746 
L 138.118093 263.10248 
L 138.252581 261.237006 
L 138.387069 262.580526 
L 138.521558 266.790512 
L 138.790534 258.739163 
L 138.925022 262.764875 
L 139.05951 262.836068 
L 139.328487 229.341175 
L 139.597463 121.715319 
L 139.731951 82.501473 
L 140.000928 91.098575 
L 140.135416 91.500584 
L 140.404393 106.91746 
L 141.34581 248.240505 
L 141.614786 264.677002 
L 141.749275 263.109167 
L 141.883763 266.549079 
L 142.287228 258.837944 
L 142.82518 117.268789 
L 142.959669 84.260808 
L 143.228645 98.649326 
L 143.363133 93.675994 
L 143.497621 100.828182 
L 143.63211 95.802001 
L 143.766598 108.738415 
L 144.304551 232.210514 
L 144.439039 236.747883 
L 144.708015 261.505939 
L 144.842504 269.085933 
L 145.11148 263.368979 
L 145.245968 263.180359 
L 145.380456 264.447809 
L 145.514945 254.308613 
L 145.649433 222.128274 
L 145.783921 223.129079 
L 146.187386 90.298769 
L 146.321874 89.052901 
L 146.59085 112.041075 
L 146.725339 116.914596 
L 146.859827 112.376181 
L 147.263291 155.971522 
L 147.532268 241.557036 
L 148.070221 265.433271 
L 148.204709 266.675181 
L 148.339197 266.877995 
L 148.742662 259.852464 
L 148.87715 258.218381 
L 149.011638 225.19925 
L 149.280615 126.964401 
L 149.415103 99.467366 
L 149.549591 113.800478 
L 149.684079 113.321615 
L 149.818567 105.249178 
L 150.222032 147.608112 
L 150.35652 145.48632 
L 150.491009 161.408739 
L 150.759985 244.896928 
L 150.894473 246.621071 
L 151.16345 264.175882 
L 151.297938 265.064596 
L 151.432426 264.486268 
L 151.701402 266.177935 
L 151.970379 264.726595 
L 152.104867 260.312035 
L 152.64282 92.379511 
L 152.777308 113.896847 
L 152.911796 116.89508 
L 153.046285 100.808404 
L 153.315261 118.143098 
L 153.584237 175.968923 
L 153.853214 217.371853 
L 154.12219 261.513943 
L 154.256678 271.106204 
L 154.391167 266.990733 
L 154.525655 273.341689 
L 154.660143 272.976613 
L 154.794631 272.979384 
L 154.92912 272.449434 
L 155.063608 273.053647 
L 155.332584 276.569248 
L 155.467072 274.325042 
L 155.601561 266.817877 
L 155.736049 250.740421 
L 155.870537 257.873337 
L 156.005025 257.116285 
L 156.139513 262.804693 
L 156.40849 259.934015 
L 156.677466 261.608516 
L 156.811955 260.183667 
L 157.215419 268.35514 
L 157.484396 271.835307 
L 157.618884 269.940866 
L 157.753372 270.7101 
L 158.022348 272.885487 
L 158.156837 272.196661 
L 158.291325 272.801756 
L 158.694789 279.146687 
L 158.829278 275.459954 
L 158.963766 277.835593 
L 159.098254 276.949665 
L 159.232742 273.852179 
L 159.501719 277.665479 
L 159.636207 275.253433 
L 159.905183 264.168475 
L 160.039672 265.59502 
L 160.17416 260.385983 
L 160.577624 271.65258 
L 160.846601 266.630448 
L 161.115577 268.010946 
L 161.250066 270.430937 
L 161.65353 266.124527 
L 161.922507 232.68972 
L 162.325971 93.021251 
L 162.460459 83.465835 
L 162.594948 96.836199 
L 162.729436 96.397601 
L 162.863924 92.097808 
L 163.536365 190.982618 
L 163.670853 235.152612 
L 164.208806 263.527535 
L 164.343294 261.146812 
L 164.477783 272.757149 
L 164.746759 271.147311 
L 164.881247 260.062053 
L 165.150224 231.657327 
L 165.553688 99.962924 
L 165.688177 120.25368 
L 165.822665 120.217324 
L 165.957153 108.808973 
L 166.226129 116.687487 
L 166.360618 114.194337 
L 166.495106 120.792683 
L 166.629594 137.770904 
L 166.89857 235.684252 
L 167.033059 242.344182 
L 167.167547 243.107568 
L 167.436523 256.330865 
L 167.571012 256.723459 
L 167.839988 263.10064 
L 168.108964 261.742277 
L 168.243453 248.512282 
L 168.377941 222.746291 
L 168.781405 87.948063 
L 168.915894 108.94389 
L 169.050382 111.427456 
L 169.18487 102.409055 
L 169.319358 107.51041 
L 169.453847 99.524294 
L 169.588335 111.425158 
L 170.260776 245.180913 
L 170.395264 259.634466 
L 170.529752 260.328573 
L 170.798729 264.981741 
L 171.067705 261.229676 
L 171.202193 261.518984 
L 171.336681 264.278776 
L 171.740146 173.923933 
L 172.009123 93.077266 
L 172.278099 117.431029 
L 172.547075 98.660363 
L 173.085028 160.214268 
L 173.488493 246.384823 
L 173.757469 262.872824 
L 173.891958 269.580368 
L 174.026446 283.675224 
L 174.295422 274.903271 
L 174.42991 274.909432 
L 174.564399 274.790696 
L 174.967863 215.680749 
L 175.102351 166.239046 
L 175.23684 164.942783 
L 175.505816 141.598063 
L 175.640304 144.175994 
L 175.774792 157.499764 
L 175.909281 155.872503 
L 176.043769 157.025718 
L 176.447234 202.54887 
L 176.581722 248.749438 
L 176.71621 253.605183 
L 176.985186 267.164066 
L 177.119675 267.206479 
L 177.254163 268.028382 
L 177.388651 269.891911 
L 177.523139 267.629741 
L 177.792116 273.547603 
L 177.926604 273.264589 
L 178.061092 273.66669 
L 178.330069 257.609068 
L 178.464557 261.574282 
L 178.599045 253.942095 
L 178.733533 258.792977 
L 178.868021 257.857414 
L 179.00251 261.587495 
L 179.136998 257.446714 
L 179.271486 256.832121 
L 179.405974 258.190183 
L 179.540462 255.397532 
L 179.674951 256.748384 
L 180.078415 272.359719 
L 180.212904 267.669026 
L 180.347392 268.207364 
L 180.48188 278.103583 
L 180.616368 278.064652 
L 180.750856 275.728698 
L 180.885345 275.384275 
L 181.019833 275.633049 
L 181.154321 274.855382 
L 181.557786 262.119027 
L 181.692274 266.377975 
L 181.826762 264.122928 
L 181.96125 267.252219 
L 182.095738 259.489613 
L 182.364715 267.24477 
L 182.76818 274.340844 
L 183.037156 272.13546 
L 183.171644 277.501076 
L 183.306132 276.788869 
L 183.440621 276.979668 
L 183.575109 278.558906 
L 183.709597 273.857287 
L 183.978573 289.869355 
L 184.113062 288.708848 
L 184.24755 282.353222 
L 184.516526 259.321519 
L 184.785503 186.25305 
L 184.919991 189.391011 
L 185.054479 176.627336 
L 185.188967 185.34466 
L 185.323456 179.673156 
L 185.72692 191.353366 
L 186.264873 258.881224 
L 186.937314 283.909566 
L 187.071802 295.068908 
L 187.206291 293.896653 
L 187.340779 288.255242 
L 187.475267 288.430656 
L 187.609755 280.410056 
L 187.744243 264.202665 
L 188.01322 188.311463 
L 188.147708 193.853165 
L 188.282196 181.657798 
L 188.416684 184.905128 
L 188.551173 184.600865 
L 188.685661 187.49461 
L 189.223614 222.690658 
L 189.49259 264.145516 
L 189.627078 269.27282 
L 189.761567 268.824917 
L 189.896055 269.729314 
L 190.030543 277.759114 
L 190.299519 271.442487 
L 190.434008 271.015641 
L 190.568496 266.657183 
L 190.702984 267.028011 
L 190.971961 268.477716 
L 191.106449 267.632447 
L 191.240937 261.276602 
L 191.509913 272.097087 
L 191.644402 266.844721 
L 191.77889 270.148535 
L 191.913378 268.192901 
L 192.182354 258.887606 
L 192.316843 260.086617 
L 192.451331 262.843092 
L 192.585819 263.062376 
L 192.720307 266.347525 
L 192.854796 274.557724 
L 192.989284 273.232115 
L 193.123772 273.459059 
L 193.527237 265.916314 
L 193.661725 267.494992 
L 193.796213 267.272955 
L 193.930701 265.834007 
L 194.199678 248.893842 
L 194.468654 174.876182 
L 194.603142 167.466386 
L 194.73763 152.363934 
L 194.872119 151.38375 
L 195.006607 146.007704 
L 195.141095 148.789238 
L 195.275583 154.92733 
L 195.410072 151.159204 
L 195.679048 181.280224 
L 195.948024 240.570297 
L 196.082513 263.183386 
L 196.217001 262.680073 
L 196.351489 263.441758 
L 196.485977 266.817603 
L 196.620465 278.252926 
L 196.889442 269.766321 
L 197.02393 268.884842 
L 197.158418 269.089275 
L 197.292907 264.24789 
L 197.427395 250.906496 
L 197.696371 175.709987 
L 197.830859 193.49083 
L 197.965348 191.40346 
L 198.099836 197.832278 
L 198.234324 192.276536 
L 198.368812 200.717613 
L 198.5033 193.5778 
L 198.637789 193.845867 
L 199.041253 245.004648 
L 199.31023 277.069329 
L 199.444718 276.089541 
L 199.848183 282.145591 
L 199.982671 279.353222 
L 200.251647 279.846228 
L 200.386135 276.695516 
L 200.520624 267.767532 
L 200.655112 269.059279 
L 200.7896 247.951403 
L 200.924088 179.567932 
L 201.058576 206.774841 
L 201.193065 194.736827 
L 201.327553 197.080965 
L 201.462041 191.411889 
L 201.596529 198.793572 
L 201.731018 189.271488 
L 201.865506 193.390663 
L 202.26897 232.757442 
L 202.537947 271.320343 
L 202.672435 268.712506 
L 202.806923 270.491558 
L 202.941411 275.428507 
L 203.210388 264.302297 
L 203.344876 270.84944 
L 203.479364 269.491597 
L 203.882829 255.788685 
L 204.017317 229.873941 
L 204.286294 170.852881 
L 204.420782 162.203533 
L 204.55527 162.300551 
L 204.689758 160.660127 
L 204.824246 166.89407 
L 204.958735 164.277424 
L 205.227711 191.743878 
L 205.765664 263.396887 
L 205.900152 263.072433 
L 206.03464 261.721827 
L 206.169129 269.109305 
L 206.303617 288.571006 
L 206.572593 283.300094 
L 206.707081 284.895028 
L 206.976058 282.005291 
L 207.379522 259.33219 
L 207.514011 260.656296 
L 208.051964 276.71979 
L 208.186452 274.472683 
L 208.455428 266.140781 
L 208.724405 269.534098 
L 208.858893 278.241027 
L 208.993381 279.350012 
L 209.127869 282.72637 
L 209.262357 281.472423 
L 209.396846 281.840783 
L 209.531334 272.177826 
L 209.665822 273.70622 
L 209.80031 272.971239 
L 209.934799 271.053945 
L 210.069287 271.806885 
L 210.472751 197.711572 
L 210.741728 152.347045 
L 211.010704 122.624778 
L 211.145192 114.352489 
L 211.817634 193.737837 
L 212.221098 261.881938 
L 212.355586 260.026332 
L 212.490075 259.904102 
L 212.759051 272.836936 
L 212.893539 275.420375 
L 213.162516 269.229293 
L 213.297004 272.375896 
L 213.56598 235.765484 
L 213.834957 134.918029 
L 213.969445 114.418595 
L 214.103933 140.117289 
L 214.238421 142.639632 
L 214.37291 133.893351 
L 214.507398 140.511159 
L 214.910862 191.746574 
L 215.045351 199.444961 
L 215.314327 263.025424 
L 215.448815 269.241867 
L 215.583303 263.44692 
L 215.85228 269.880057 
L 215.986768 270.503213 
L 216.121256 271.672377 
L 216.390233 268.751028 
L 216.524721 271.204082 
L 216.793697 245.393152 
L 217.062674 147.150594 
L 217.197162 131.016579 
L 217.466138 153.562221 
L 217.600627 154.532722 
L 217.735115 152.921831 
L 217.869603 147.582208 
L 218.004091 161.529534 
L 218.273068 213.342203 
L 218.407556 220.223789 
L 218.542044 261.097617 
L 218.945509 274.278491 
L 219.079997 266.311114 
L 219.61795 275.700869 
L 219.752438 276.218765 
L 220.021414 246.04341 
L 220.290391 144.526468 
L 220.424879 149.994022 
L 220.559367 160.567921 
L 220.693856 155.743091 
L 220.828344 143.610767 
L 220.962832 158.398567 
L 221.09732 157.348211 
L 221.366297 200.193077 
L 221.635273 221.189062 
L 221.769761 262.260516 
L 222.173226 272.173833 
L 222.307714 274.025636 
L 222.442202 273.287137 
L 222.711179 278.345653 
L 222.845667 278.619301 
L 222.980155 279.700639 
L 223.114643 275.830291 
L 223.249132 278.60533 
L 223.518108 250.239152 
L 223.652596 265.586625 
L 223.787084 266.146628 
L 224.056061 258.295454 
L 224.190549 258.461192 
L 224.325037 258.085863 
L 224.459525 260.812359 
L 224.594014 259.928001 
L 224.86299 257.057928 
L 225.131967 264.162284 
L 225.266455 264.552346 
L 225.400943 261.982053 
L 225.535431 264.764905 
L 225.669919 263.983745 
L 225.804408 260.571973 
L 226.073384 265.752093 
L 226.207872 269.171662 
L 226.34236 269.238609 
L 226.476849 270.663002 
L 226.611337 270.6695 
L 226.745825 270.039619 
L 226.880313 268.53346 
L 227.14929 274.979783 
L 227.283778 274.766434 
L 227.418266 272.128575 
L 227.552754 274.333679 
L 227.687243 274.437948 
L 227.956219 272.488493 
L 228.090707 272.64369 
L 228.225195 279.524693 
L 228.359684 276.913473 
L 228.494172 277.542498 
L 228.62866 275.382057 
L 228.763148 279.856446 
L 228.897637 279.275188 
L 229.032125 274.347974 
L 229.166613 274.081373 
L 229.301101 274.430306 
L 229.435589 272.812595 
L 229.570078 259.299099 
L 229.704566 231.793999 
L 230.10803 100.943396 
L 230.242519 96.967527 
L 230.377007 100.59101 
L 230.511495 86.734343 
L 230.645983 117.320978 
L 230.91496 126.205168 
L 231.183936 173.474776 
L 231.587401 253.612479 
L 231.990865 271.036961 
L 232.125354 272.559766 
L 232.259842 271.544083 
L 232.528818 274.121083 
L 232.663306 269.64524 
L 232.932283 234.808633 
L 233.201259 138.616724 
L 233.335748 113.79114 
L 233.470236 121.902508 
L 233.604724 138.371826 
L 233.739212 133.862452 
L 233.8737 141.136296 
L 234.008189 131.611307 
L 234.142677 147.245638 
L 234.411653 203.126831 
L 234.546141 213.322224 
L 234.815118 268.031603 
L 234.949606 268.391581 
L 235.084094 265.12998 
L 235.218583 273.411405 
L 235.353071 274.10378 
L 235.487559 276.470013 
L 235.622047 281.248673 
L 235.891024 273.38774 
L 236.16 247.158854 
L 236.428976 140.920879 
L 236.563465 114.285254 
L 236.697953 126.363376 
L 236.832441 128.424493 
L 236.966929 115.059534 
L 237.101417 123.20588 
L 237.370394 155.041312 
L 237.504882 170.005568 
L 237.908347 259.150754 
L 238.042835 268.290158 
L 238.177323 268.761509 
L 238.311811 268.162156 
L 238.4463 273.415129 
L 238.580788 274.074562 
L 238.715276 275.761321 
L 238.984252 283.885739 
L 239.118741 278.837712 
L 239.253229 269.486512 
L 239.387717 242.544937 
L 239.656694 145.254394 
L 239.791182 125.558904 
L 239.92567 122.956739 
L 240.060158 135.937456 
L 240.194646 134.150711 
L 240.329135 139.097515 
L 241.270552 257.174333 
L 241.40504 262.849212 
L 241.539529 260.870252 
L 241.674017 266.227271 
L 241.808505 264.30851 
L 241.942993 278.158298 
L 242.077481 278.007525 
L 242.21197 284.419625 
L 242.346458 280.47867 
L 242.615434 243.381383 
L 242.884411 145.963335 
L 243.018899 133.189999 
L 243.153387 159.462878 
L 243.287875 158.008544 
L 243.422363 139.688123 
L 243.69134 151.247378 
L 243.960316 186.581333 
L 244.229293 239.897728 
L 244.498269 262.336791 
L 244.632757 266.953663 
L 244.767246 267.236995 
L 245.17071 276.404131 
L 245.305198 275.161954 
L 245.439687 275.161951 
L 245.708663 271.417761 
L 245.843151 251.999727 
L 245.97764 266.739705 
L 246.112128 264.47706 
L 246.246616 264.269102 
L 246.381104 263.635275 
L 246.515592 261.399355 
L 246.650081 262.380773 
L 247.322522 273.796926 
L 247.591498 275.131611 
L 247.725986 274.87111 
L 247.860475 277.269084 
L 248.129451 273.767212 
L 248.263939 274.217655 
L 248.398427 272.12187 
L 248.532916 273.089974 
L 248.667404 272.460962 
L 248.801892 275.101852 
L 248.93638 274.096351 
L 249.070868 274.260172 
L 249.205357 272.960354 
L 249.608821 278.603384 
L 249.743309 277.637472 
L 250.012286 278.500703 
L 250.415751 274.168125 
L 250.684727 272.499995 
L 251.088192 274.836426 
L 251.22268 273.138417 
L 251.357168 276.454834 
L 251.491656 276.1446 
L 251.626144 288.224322 
L 252.029609 281.598411 
L 252.298586 256.908166 
L 252.567562 151.513035 
L 252.70205 128.772579 
L 252.836538 140.300919 
L 252.971027 162.987954 
L 253.105515 154.221568 
L 253.240003 158.486256 
L 253.643468 194.581594 
L 254.181421 264.854861 
L 254.584885 283.362161 
L 254.719373 284.051218 
L 254.853862 288.581033 
L 254.98835 286.483737 
L 255.122838 287.436628 
L 255.257326 286.980328 
L 255.526303 246.130745 
L 255.795279 154.687181 
L 256.064255 172.2362 
L 256.198744 166.350138 
L 256.333232 153.359883 
L 256.736697 172.623831 
L 257.140161 233.18647 
L 257.409138 256.311334 
L 257.543626 264.904642 
L 257.678114 261.489614 
L 257.812602 267.596203 
L 257.94709 267.232352 
L 258.216067 284.893929 
L 258.350555 283.008556 
L 258.485043 279.48843 
L 258.75402 250.993548 
L 259.022996 154.633608 
L 259.157484 167.270383 
L 259.291973 167.904165 
L 259.426461 165.023994 
L 259.560949 147.235944 
L 259.829925 171.447352 
L 259.964414 162.398738 
L 260.23339 207.568546 
L 260.636855 257.015029 
L 261.040319 266.604057 
L 261.174808 265.105444 
L 261.309296 272.072096 
L 261.443784 271.17456 
L 261.578272 273.317982 
L 261.847249 263.251377 
L 261.981737 238.008093 
L 262.250713 150.096947 
L 262.51969 163.87976 
L 262.788666 143.561337 
L 262.923154 154.130353 
L 263.057643 153.127005 
L 263.461107 207.077765 
L 263.595595 219.011418 
L 263.864572 250.125439 
L 264.133548 257.114751 
L 264.402525 269.496213 
L 264.537013 263.949096 
L 264.671501 264.892226 
L 264.805989 263.535722 
L 265.074966 257.733258 
L 265.209454 241.119456 
L 265.747407 112.616273 
L 265.881895 112.578426 
L 266.016383 108.775783 
L 266.150871 122.185407 
L 266.28536 121.806602 
L 266.419848 125.134837 
L 266.554336 138.504239 
L 267.226777 254.441918 
L 267.495754 257.938346 
L 267.630242 273.5046 
L 267.76473 269.633975 
L 268.033706 268.692566 
L 268.302683 276.106194 
L 268.437171 275.76257 
L 268.571659 270.49683 
L 268.840636 277.001758 
L 269.109612 271.555186 
L 269.2441 269.957825 
L 269.378589 270.583586 
L 269.782053 261.342639 
L 269.916541 260.586627 
L 270.05103 259.047682 
L 270.320006 262.00745 
L 270.454494 263.019089 
L 270.723471 267.179798 
L 270.857959 282.453509 
L 270.992447 280.5056 
L 271.126935 275.324596 
L 271.261424 276.464756 
L 271.395912 276.133699 
L 271.5304 275.354482 
L 271.933865 281.329643 
L 272.068353 278.256902 
L 272.202841 281.637622 
L 272.337329 278.927698 
L 272.471817 281.48962 
L 272.606306 281.016262 
L 272.740794 278.669557 
L 272.875282 280.92427 
L 273.00977 279.833036 
L 273.278747 273.855867 
L 273.413235 274.041472 
L 273.547723 274.720846 
L 273.682211 274.432972 
L 273.8167 272.968717 
L 273.951188 276.684556 
L 274.085676 275.220015 
L 274.220164 288.26824 
L 274.354652 289.059508 
L 274.489141 288.131979 
L 274.623629 286.29456 
L 274.892605 259.377945 
L 275.161582 192.850954 
L 275.430558 157.932451 
L 275.565046 156.149043 
L 275.699535 151.815137 
L 275.834023 155.435918 
L 276.102999 181.27325 
L 276.909928 269.888313 
L 277.044417 270.173622 
L 277.178905 276.135713 
L 277.313393 274.380175 
L 277.447881 282.325336 
L 277.58237 281.341015 
L 277.716858 284.284795 
L 277.851346 282.921948 
L 277.985834 275.93682 
L 278.120322 262.319937 
L 278.389299 206.714073 
L 278.523787 202.493812 
L 278.658275 184.15378 
L 278.792763 187.258538 
L 278.927252 178.750299 
L 279.06174 194.425917 
L 279.196228 191.97561 
L 279.465204 211.706319 
L 279.868669 260.248935 
L 280.003157 267.454481 
L 280.137646 268.672859 
L 280.272134 272.034884 
L 280.406622 279.055394 
L 280.54111 265.804644 
L 280.675598 265.073092 
L 280.810087 266.82999 
L 281.079063 264.398873 
L 281.213551 251.344563 
L 281.348039 249.389778 
L 281.751504 132.680633 
L 281.885992 126.663397 
L 282.020481 129.180055 
L 282.289457 145.911781 
L 282.423945 122.195541 
L 282.692922 157.195581 
L 283.230874 262.840839 
L 283.365363 264.232674 
L 283.499851 263.247803 
L 283.634339 267.580411 
L 283.903316 261.321189 
L 284.037804 259.774489 
L 284.172292 260.175415 
L 284.30678 258.202056 
L 284.575757 245.306684 
L 284.844733 164.831579 
L 284.979221 152.816962 
L 285.113709 156.472521 
L 285.382686 140.796735 
L 285.517174 135.885331 
L 285.651662 152.534459 
L 285.78615 152.839678 
L 285.920639 162.326903 
L 286.458592 260.829084 
L 286.59308 260.98432 
L 286.862056 264.871131 
L 286.996544 288.29037 
L 287.803474 266.861829 
L 287.937962 267.587767 
L 288.07245 269.40605 
L 288.206938 275.021499 
L 288.341427 275.175381 
L 288.475915 276.694414 
L 288.610403 274.447566 
L 288.744891 275.074289 
L 288.879379 272.469805 
L 289.013868 274.399576 
L 289.148356 274.08866 
L 289.282844 269.60166 
L 289.55182 280.356871 
L 289.686309 281.065623 
L 290.089773 278.191506 
L 290.224262 275.841387 
L 290.35875 277.9464 
L 290.493238 276.305557 
L 290.627726 277.274083 
L 290.762214 274.444702 
L 290.896703 265.155517 
L 291.031191 264.290243 
L 291.165679 246.237362 
L 291.300167 185.102764 
L 291.434655 179.858998 
L 291.569144 180.730734 
L 291.83812 189.299452 
L 292.107096 177.454615 
L 292.510561 216.623442 
L 292.914026 268.668678 
L 293.048514 266.231114 
L 293.183002 268.293975 
L 293.31749 272.215438 
L 293.451979 269.668069 
L 293.586467 269.794301 
L 293.720955 267.536988 
L 293.855443 270.542793 
L 293.989931 269.911473 
L 294.393396 232.313288 
L 294.527884 183.794883 
L 294.662373 176.447814 
L 294.931349 151.90193 
L 295.200325 139.649322 
L 295.469302 152.868813 
L 295.738278 200.807155 
L 295.872766 215.925998 
L 296.141743 265.578893 
L 296.410719 257.729514 
L 296.545208 268.070246 
L 296.679696 289.330349 
L 297.08316 282.928275 
L 297.217649 282.519943 
L 297.352137 282.467527 
L 297.621113 278.681469 
L 297.89009 286.702684 
L 298.159066 279.94786 
L 298.293554 280.407094 
L 298.428042 279.149015 
L 298.831507 272.141611 
L 298.965995 272.599211 
L 299.36946 280.417752 
L 299.503948 280.709675 
L 299.638436 279.288139 
L 299.772925 281.21385 
L 299.907413 266.39765 
L 300.041901 271.654969 
L 300.310877 270.316271 
L 300.445366 268.68249 
L 300.714342 244.756736 
L 300.983319 168.177359 
L 301.252295 137.489315 
L 301.386783 129.465805 
L 301.521271 129.99431 
L 301.65576 139.499296 
L 301.790248 135.886681 
L 301.924736 149.198978 
L 302.193712 201.297947 
L 302.328201 213.677806 
L 302.597177 256.548031 
L 302.731665 259.940228 
L 302.866153 258.20848 
L 303.13513 272.081897 
L 303.404106 265.522539 
L 303.538595 267.36451 
L 303.673083 265.503211 
L 304.211036 158.935382 
L 304.345524 160.705876 
L 304.480012 162.36918 
L 304.748988 151.998868 
L 304.883477 159.552019 
L 305.017965 154.871483 
L 305.152453 165.849713 
L 305.690406 244.895599 
L 305.959382 266.619752 
L 306.093871 263.211965 
L 306.228359 268.566082 
L 306.362847 268.340605 
L 306.497335 278.610886 
L 306.631823 278.144917 
L 306.9008 274.46586 
L 307.035288 263.612574 
L 307.169776 240.799159 
L 307.438753 151.787961 
L 307.707729 172.567207 
L 307.976706 154.520777 
L 308.111194 159.959373 
L 308.245682 155.790619 
L 308.38017 164.629879 
L 308.918123 250.108992 
L 309.052611 266.927082 
L 309.321588 268.547509 
L 309.456076 275.469523 
L 309.590564 275.600443 
L 309.725052 277.568702 
L 310.128517 274.053751 
L 310.263005 265.150712 
L 310.397493 238.119827 
L 310.66647 151.880735 
L 310.800958 158.052724 
L 310.935446 170.57159 
L 311.069934 168.207952 
L 311.204423 158.053828 
L 311.473399 161.738126 
L 311.607887 165.651352 
L 312.14584 254.31784 
L 312.280328 263.328918 
L 312.414817 264.290674 
L 312.549305 263.717363 
L 312.683793 270.932477 
L 312.952769 273.360644 
L 313.087258 270.897273 
L 313.221746 272.419206 
L 313.356234 270.981333 
L 313.490722 272.318384 
L 313.894187 247.532311 
L 314.028675 258.210479 
L 314.163163 255.372957 
L 314.297652 257.448887 
L 314.43214 254.736195 
L 314.701116 263.394689 
L 314.970093 267.701713 
L 315.104581 270.388091 
L 315.239069 269.631777 
L 315.373557 269.692924 
L 315.508045 273.153253 
L 315.642534 272.431024 
L 315.777022 272.519343 
L 315.91151 271.29488 
L 316.045998 272.404516 
L 316.180487 271.992072 
L 316.314975 272.814306 
L 316.449463 270.992966 
L 316.583951 271.807759 
L 316.718439 271.516058 
L 316.852928 271.659978 
L 316.987416 271.162803 
L 317.525369 275.088911 
L 317.659857 273.932824 
L 317.794345 276.908488 
L 317.928833 273.099892 
L 318.063322 272.939922 
L 318.19781 272.390069 
L 318.466786 268.776671 
L 318.601274 270.674962 
L 318.735763 269.941057 
L 318.870251 271.754778 
L 319.004739 270.438072 
L 319.139227 270.59876 
L 319.273715 270.015526 
L 319.408204 283.923655 
L 319.811668 277.640638 
L 319.946157 270.777801 
L 320.080645 252.755482 
L 320.349621 151.902887 
L 320.484109 131.650737 
L 320.618598 129.180788 
L 320.887574 145.668671 
L 321.15655 155.319948 
L 321.96348 266.267362 
L 322.097968 266.648331 
L 322.232456 264.328703 
L 322.366944 271.750334 
L 322.501433 270.623531 
L 322.635921 282.629884 
L 322.770409 282.363294 
L 323.039385 277.920417 
L 323.308362 255.686902 
L 323.577338 155.354455 
L 323.711826 161.634939 
L 323.846315 175.410996 
L 324.115291 152.39396 
L 324.249779 153.191704 
L 324.384268 155.877901 
L 324.518756 164.075208 
L 324.787732 208.702008 
L 324.92222 221.635675 
L 325.191197 263.827044 
L 325.460173 262.207241 
L 325.594661 269.903498 
L 325.72915 269.751166 
L 325.998126 281.096932 
L 326.132614 280.86121 
L 326.267103 278.624224 
L 326.401591 270.14852 
L 326.536079 249.859222 
L 326.805055 149.644891 
L 326.939544 156.811405 
L 327.074032 175.98953 
L 327.343008 155.894903 
L 327.611985 164.322244 
L 327.746473 167.722608 
L 327.880961 182.919743 
L 328.149937 230.222056 
L 328.418914 258.312572 
L 329.091355 285.340022 
L 329.225843 283.26235 
L 329.49482 277.763236 
L 329.763796 249.683104 
L 330.032772 163.609777 
L 330.167261 162.926642 
L 330.301749 172.506472 
L 330.705214 157.042987 
L 331.108678 195.11361 
L 331.243166 202.13163 
L 331.646631 262.925601 
L 331.781119 263.148295 
L 331.915607 262.809108 
L 332.319072 282.88597 
L 332.45356 281.77978 
L 332.588049 277.515046 
L 332.722537 277.385074 
L 332.991513 248.258293 
L 333.26049 160.013447 
L 333.394978 164.714153 
L 333.529466 180.467043 
L 333.798442 161.10757 
L 333.932931 162.10573 
L 334.067419 167.422601 
L 334.470883 211.489622 
L 334.73986 260.702752 
L 335.008836 266.870449 
L 335.143325 269.753595 
L 335.277813 276.654584 
L 335.546789 271.742485 
L 335.815766 269.416786 
L 336.084742 271.806667 
L 336.353718 257.931443 
L 336.488207 259.270402 
L 336.622695 257.740015 
L 336.757183 254.821948 
L 336.891671 256.079179 
L 337.02616 255.460581 
L 337.564112 266.663016 
L 337.833089 269.567161 
L 337.967577 269.299753 
L 338.102065 272.200446 
L 338.236553 272.13575 
L 338.371042 270.683746 
L 338.50553 271.316873 
L 338.640018 267.603079 
L 338.774506 267.943869 
L 338.908995 268.793374 
L 339.043483 268.083137 
L 339.312459 269.827557 
L 339.446947 267.181975 
L 339.581436 267.931089 
L 339.850412 271.421857 
L 339.9849 270.530683 
L 340.119388 268.688097 
L 340.253877 271.037143 
L 340.388365 270.335596 
L 340.522853 274.322564 
L 340.657341 272.980243 
L 340.791829 273.137027 
L 341.060806 272.157605 
L 341.195294 268.818744 
L 341.329782 271.86607 
L 341.464271 272.315073 
L 341.598759 271.526063 
L 341.867735 275.485777 
L 342.002223 284.996114 
L 342.136712 284.390337 
L 342.405688 281.895497 
L 342.674664 253.835557 
L 342.943641 152.329616 
L 343.078129 138.273787 
L 343.347106 172.517034 
L 343.481594 167.32555 
L 343.616082 168.735282 
L 343.75057 176.23083 
L 344.557499 264.838035 
L 344.691988 263.630906 
L 345.22994 282.650219 
L 345.364429 282.103719 
L 345.498917 282.482793 
L 345.633405 281.121191 
L 345.767893 272.145498 
L 345.902382 254.276231 
L 346.171358 164.155895 
L 346.305846 177.807392 
L 346.440334 179.328206 
L 346.709311 166.740832 
L 346.843799 169.123539 
L 346.978287 173.633918 
L 347.381752 221.680983 
L 347.650728 259.183 
L 347.919705 264.804974 
L 348.054193 266.685027 
L 348.188681 273.791908 
L 348.323169 271.981827 
L 348.457658 282.775656 
L 348.592146 282.20542 
L 348.726634 282.869854 
L 348.861122 281.321808 
L 349.130099 250.833239 
L 349.399075 161.633987 
L 349.533563 172.143767 
L 349.668052 170.859121 
L 349.937028 161.967334 
L 350.206004 169.172643 
L 350.474981 200.352664 
L 350.743957 241.338764 
L 351.012934 263.317656 
L 351.147422 268.450615 
L 351.28191 267.60902 
L 351.416398 274.570906 
L 351.550886 275.322346 
L 351.685375 285.609685 
L 351.954351 280.399746 
L 352.088839 279.10951 
L 352.223328 273.891629 
L 352.357816 256.622465 
L 352.626792 160.347685 
L 352.895769 176.196368 
L 353.030257 173.740385 
L 353.164745 163.961643 
L 353.299233 169.10319 
L 353.433721 168.441538 
L 353.702698 171.67203 
L 354.106163 258.131196 
L 354.240651 269.491338 
L 354.509627 270.946146 
L 354.778604 279.256666 
L 354.913092 282.164595 
L 355.316556 279.178689 
L 355.451045 272.175882 
L 355.585533 251.011374 
L 355.854509 186.789476 
L 355.988998 185.039469 
L 356.257974 158.454852 
L 356.392462 159.354549 
L 356.661439 167.408447 
L 356.930415 195.147185 
L 357.199391 239.080588 
L 357.468368 273.442982 
L 357.602856 272.44161 
L 357.737344 274.516198 
L 358.006321 281.841288 
L 358.275297 278.778966 
L 358.409785 279.466256 
L 358.678762 276.414039 
L 358.81325 274.667086 
L 359.082226 256.507954 
L 359.216715 252.806548 
L 359.351203 253.152076 
L 359.485691 255.680757 
L 359.620179 248.051411 
L 359.889156 264.494967 
L 360.023644 264.617552 
L 360.427109 279.437916 
L 360.561597 277.8828 
L 360.696085 278.198693 
L 360.830573 279.105368 
L 360.965061 278.162813 
L 361.09955 279.498149 
L 361.503014 277.978133 
L 361.637502 279.594009 
L 361.771991 278.77545 
L 361.906479 276.513671 
L 362.309944 281.253629 
L 362.444432 275.504894 
L 362.57892 276.088389 
L 362.713408 273.524319 
L 362.982385 279.847594 
L 363.116873 278.84652 
L 363.251361 276.678547 
L 363.385849 277.248816 
L 363.520337 278.368748 
L 363.654826 276.605657 
L 363.789314 276.441586 
L 363.923802 276.730293 
L 364.05829 276.117193 
L 364.192778 280.733128 
L 364.327267 243.124287 
L 364.596243 253.138023 
L 364.730731 251.293208 
L 364.86522 255.459373 
L 364.999708 250.316802 
L 365.268684 193.248273 
L 365.537661 120.225007 
L 365.672149 101.164057 
L 365.806637 103.061968 
L 365.941125 98.549065 
L 366.075613 110.460778 
L 366.210102 109.964457 
L 366.479078 133.19456 
L 366.613566 156.697011 
L 366.882543 239.612347 
L 367.151519 257.585192 
L 367.286007 259.046 
L 367.420496 259.234785 
L 367.689472 268.512711 
L 367.82396 265.629776 
L 368.092937 269.400085 
L 368.765378 94.422778 
L 368.899866 100.997012 
L 369.034354 104.4108 
L 369.437819 88.303962 
L 369.572307 115.374013 
L 369.706795 119.471342 
L 369.975772 191.495745 
L 370.11026 235.718029 
L 370.244748 235.38409 
L 370.648213 263.824864 
L 370.782701 288.128138 
L 370.917189 285.314885 
L 371.051677 279.187746 
L 371.186166 279.508829 
L 371.320654 276.960012 
L 371.58963 245.291596 
L 371.858607 159.191373 
L 371.993095 161.578434 
L 372.262071 212.223425 
L 372.396559 191.634227 
L 372.665536 193.915223 
L 372.800024 197.380629 
L 372.934512 207.740256 
L 373.069001 235.792123 
L 373.203489 235.824414 
L 373.472465 261.886825 
L 373.606953 262.942162 
L 373.87593 272.051471 
L 374.144906 295.488 
L 374.413883 288.320732 
L 374.548371 285.760487 
L 374.817347 252.199926 
L 375.086324 197.160278 
L 375.3553 175.463625 
L 375.758765 179.326724 
L 376.162229 202.798067 
L 376.431206 236.535721 
L 376.700182 265.925487 
L 376.83467 267.92677 
L 376.969159 267.684728 
L 377.103647 272.833273 
L 377.238135 288.013092 
L 377.507112 280.030311 
L 377.6416 280.684407 
L 377.776088 274.282493 
L 377.910576 279.650682 
L 378.314041 260.059594 
L 378.448529 265.819166 
L 378.583017 259.175156 
L 378.717505 266.668079 
L 378.851994 266.433863 
L 378.986482 274.862704 
L 379.12097 269.845811 
L 379.389947 272.778228 
L 379.524435 270.47599 
L 379.793411 277.85937 
L 380.062388 280.898673 
L 380.331364 278.873609 
L 380.465852 265.490233 
L 380.869317 271.30279 
L 381.003805 270.748809 
L 381.138293 254.171007 
L 381.272782 253.238877 
L 381.676246 143.975345 
L 381.810734 144.323493 
L 381.945223 142.30461 
L 382.079711 143.294158 
L 382.348687 148.879034 
L 382.483175 145.009748 
L 383.155616 265.138677 
L 383.290105 267.406656 
L 383.424593 265.718253 
L 383.559081 270.69355 
L 383.828058 261.514726 
L 383.962546 261.380438 
L 384.097034 260.700934 
L 384.231522 261.786726 
L 384.36601 257.019492 
L 384.500499 258.897101 
L 384.769475 173.410974 
L 384.903963 164.175015 
L 385.038451 164.007101 
L 385.17294 146.173893 
L 385.307428 147.897097 
L 385.441916 169.139132 
L 385.710893 171.74495 
L 385.979869 212.105756 
L 386.383334 266.127386 
L 386.517822 264.879733 
L 386.786798 274.094391 
L 386.921286 282.975122 
L 387.055775 281.483425 
L 387.190263 276.887476 
L 387.324751 278.475807 
L 387.728216 271.90055 
L 387.862704 271.598101 
L 388.13168 281.565336 
L 388.266169 284.891603 
L 388.400657 281.996054 
L 388.535145 283.985637 
L 388.669633 284.299582 
L 388.804121 281.059682 
L 388.93861 287.111769 
L 389.073098 281.242555 
L 389.207586 281.413421 
L 389.342074 281.915122 
L 389.611051 289.168029 
L 389.745539 285.905678 
L 390.014515 286.699233 
L 390.149004 264.402507 
L 390.41798 268.360798 
L 390.686956 265.81141 
L 391.090421 233.685562 
L 391.224909 184.509913 
L 391.359397 185.924037 
L 391.493886 159.812284 
L 391.628374 158.879924 
L 391.89735 177.761646 
L 392.166327 171.476068 
L 392.435303 204.646324 
L 392.838768 275.971855 
L 393.107744 273.104374 
L 393.242232 274.620324 
L 393.511209 262.504028 
L 393.645697 270.000334 
L 393.780185 269.671166 
L 393.914673 260.860613 
L 394.049162 261.898637 
L 394.318138 207.111933 
L 394.587115 154.384373 
L 394.721603 156.107531 
L 394.856091 144.552493 
L 394.990579 145.143236 
L 395.259556 147.698787 
L 395.797508 219.713416 
L 396.066485 258.835156 
L 396.200973 262.274208 
L 396.335461 262.570233 
L 396.46995 259.523665 
L 396.604438 291.043567 
L 396.738926 288.44783 
L 396.873414 282.826139 
L 397.007902 282.716067 
L 397.142391 282.974179 
L 397.411367 252.726603 
L 397.680343 176.946466 
L 397.814832 178.587895 
L 398.218296 157.81319 
L 398.352785 167.616166 
L 398.487273 165.549065 
L 398.487273 165.549065 
" clip-path="url(#p045989523b)" style="fill: none; stroke: #ff7f0e; stroke-width: 1.5; stroke-linecap: square"/>
   </g>
   <g id="patch_3">
    <path d="M 57.6 307.584 
L 57.6 41.472 
" style="fill: none; stroke: #000000; stroke-width: 0.8; stroke-linejoin: miter; stroke-linecap: square"/>
   </g>
   <g id="patch_4">
    <path d="M 414.72 307.584 
L 414.72 41.472 
" style="fill: none; stroke: #000000; stroke-width: 0.8; stroke-linejoin: miter; stroke-linecap: square"/>
   </g>
   <g id="patch_5">
    <path d="M 57.6 307.584 
L 414.72 307.584 
" style="fill: none; stroke: #000000; stroke-width: 0.8; stroke-linejoin: miter; stroke-linecap: square"/>
   </g>
   <g id="patch_6">
    <path d="M 57.6 41.472 
L 414.72 41.472 
" style="fill: none; stroke: #000000; stroke-width: 0.8; stroke-linejoin: miter; stroke-linecap: square"/>
   </g>
  </g>
 </g>
 <defs>
  <clipPath id="p045989523b">
   <rect x="57.6" y="41.472" width="357.12" height="266.112"/>
  </clipPath>
 </defs>
</svg>
