<?xml version="1.0" encoding="utf-8" standalone="no"?>
<!DOCTYPE svg PUBLIC "-//W3C//DTD SVG 1.1//EN"
  "http://www.w3.org/Graphics/SVG/1.1/DTD/svg11.dtd">
<svg xmlns:xlink="http://www.w3.org/1999/xlink" width="460.8pt" height="345.6pt" viewBox="0 0 460.8 345.6" xmlns="http://www.w3.org/2000/svg" version="1.1">
 <metadata>
  <rdf:RDF xmlns:dc="http://purl.org/dc/elements/1.1/" xmlns:cc="http://creativecommons.org/ns#" xmlns:rdf="http://www.w3.org/1999/02/22-rdf-syntax-ns#">
   <cc:Work>
    <dc:type rdf:resource="http://purl.org/dc/dcmitype/StillImage"/>
    <dc:date>2023-04-04T07:01:02.795774</dc:date>
    <dc:format>image/svg+xml</dc:format>
    <dc:creator>
     <cc:Agent>
      <dc:title>Matplotlib v3.5.2, https://matplotlib.org/</dc:title>
     </cc:Agent>
    </dc:creator>
   </cc:Work>
  </rdf:RDF>
 </metadata>
 <defs>
  <style type="text/css">*{stroke-linejoin: round; stroke-linecap: butt}</style>
 </defs>
 <g id="figure_1">
  <g id="patch_1">
   <path d="M 0 345.6 
L 460.8 345.6 
L 460.8 0 
L 0 0 
z
" style="fill: #ffffff"/>
  </g>
  <g id="axes_1">
   <g id="patch_2">
    <path d="M 57.6 307.584 
L 414.72 307.584 
L 414.72 41.472 
L 57.6 41.472 
z
" style="fill: #ffffff"/>
   </g>
   <g id="matplotlib.axis_1">
    <g id="xtick_1">
     <g id="line2d_1">
      <defs>
       <path id="mc6207383a4" d="M 0 0 
L 0 3.5 
" style="stroke: #000000; stroke-width: 0.8"/>
      </defs>
      <g>
       <use xlink:href="#mc6207383a4" x="73.832727" y="307.584" style="stroke: #000000; stroke-width: 0.8"/>
      </g>
     </g>
     <g id="text_1">
      <!-- 0 -->
      <g transform="translate(70.651477 322.182437)scale(0.1 -0.1)">
       <defs>
        <path id="DejaVuSans-30" d="M 2034 4250 
Q 1547 4250 1301 3770 
Q 1056 3291 1056 2328 
Q 1056 1369 1301 889 
Q 1547 409 2034 409 
Q 2525 409 2770 889 
Q 3016 1369 3016 2328 
Q 3016 3291 2770 3770 
Q 2525 4250 2034 4250 
z
M 2034 4750 
Q 2819 4750 3233 4129 
Q 3647 3509 3647 2328 
Q 3647 1150 3233 529 
Q 2819 -91 2034 -91 
Q 1250 -91 836 529 
Q 422 1150 422 2328 
Q 422 3509 836 4129 
Q 1250 4750 2034 4750 
z
" transform="scale(0.015625)"/>
       </defs>
       <use xlink:href="#DejaVuSans-30"/>
      </g>
     </g>
    </g>
    <g id="xtick_2">
     <g id="line2d_2">
      <g>
       <use xlink:href="#mc6207383a4" x="141.076834" y="307.584" style="stroke: #000000; stroke-width: 0.8"/>
      </g>
     </g>
     <g id="text_2">
      <!-- 500 -->
      <g transform="translate(131.533084 322.182437)scale(0.1 -0.1)">
       <defs>
        <path id="DejaVuSans-35" d="M 691 4666 
L 3169 4666 
L 3169 4134 
L 1269 4134 
L 1269 2991 
Q 1406 3038 1543 3061 
Q 1681 3084 1819 3084 
Q 2600 3084 3056 2656 
Q 3513 2228 3513 1497 
Q 3513 744 3044 326 
Q 2575 -91 1722 -91 
Q 1428 -91 1123 -41 
Q 819 9 494 109 
L 494 744 
Q 775 591 1075 516 
Q 1375 441 1709 441 
Q 2250 441 2565 725 
Q 2881 1009 2881 1497 
Q 2881 1984 2565 2268 
Q 2250 2553 1709 2553 
Q 1456 2553 1204 2497 
Q 953 2441 691 2322 
L 691 4666 
z
" transform="scale(0.015625)"/>
       </defs>
       <use xlink:href="#DejaVuSans-35"/>
       <use xlink:href="#DejaVuSans-30" x="63.623047"/>
       <use xlink:href="#DejaVuSans-30" x="127.246094"/>
      </g>
     </g>
    </g>
    <g id="xtick_3">
     <g id="line2d_3">
      <g>
       <use xlink:href="#mc6207383a4" x="208.32094" y="307.584" style="stroke: #000000; stroke-width: 0.8"/>
      </g>
     </g>
     <g id="text_3">
      <!-- 1000 -->
      <g transform="translate(195.59594 322.182437)scale(0.1 -0.1)">
       <defs>
        <path id="DejaVuSans-31" d="M 794 531 
L 1825 531 
L 1825 4091 
L 703 3866 
L 703 4441 
L 1819 4666 
L 2450 4666 
L 2450 531 
L 3481 531 
L 3481 0 
L 794 0 
L 794 531 
z
" transform="scale(0.015625)"/>
       </defs>
       <use xlink:href="#DejaVuSans-31"/>
       <use xlink:href="#DejaVuSans-30" x="63.623047"/>
       <use xlink:href="#DejaVuSans-30" x="127.246094"/>
       <use xlink:href="#DejaVuSans-30" x="190.869141"/>
      </g>
     </g>
    </g>
    <g id="xtick_4">
     <g id="line2d_4">
      <g>
       <use xlink:href="#mc6207383a4" x="275.565046" y="307.584" style="stroke: #000000; stroke-width: 0.8"/>
      </g>
     </g>
     <g id="text_4">
      <!-- 1500 -->
      <g transform="translate(262.840046 322.182437)scale(0.1 -0.1)">
       <use xlink:href="#DejaVuSans-31"/>
       <use xlink:href="#DejaVuSans-35" x="63.623047"/>
       <use xlink:href="#DejaVuSans-30" x="127.246094"/>
       <use xlink:href="#DejaVuSans-30" x="190.869141"/>
      </g>
     </g>
    </g>
    <g id="xtick_5">
     <g id="line2d_5">
      <g>
       <use xlink:href="#mc6207383a4" x="342.809153" y="307.584" style="stroke: #000000; stroke-width: 0.8"/>
      </g>
     </g>
     <g id="text_5">
      <!-- 2000 -->
      <g transform="translate(330.084153 322.182437)scale(0.1 -0.1)">
       <defs>
        <path id="DejaVuSans-32" d="M 1228 531 
L 3431 531 
L 3431 0 
L 469 0 
L 469 531 
Q 828 903 1448 1529 
Q 2069 2156 2228 2338 
Q 2531 2678 2651 2914 
Q 2772 3150 2772 3378 
Q 2772 3750 2511 3984 
Q 2250 4219 1831 4219 
Q 1534 4219 1204 4116 
Q 875 4013 500 3803 
L 500 4441 
Q 881 4594 1212 4672 
Q 1544 4750 1819 4750 
Q 2544 4750 2975 4387 
Q 3406 4025 3406 3419 
Q 3406 3131 3298 2873 
Q 3191 2616 2906 2266 
Q 2828 2175 2409 1742 
Q 1991 1309 1228 531 
z
" transform="scale(0.015625)"/>
       </defs>
       <use xlink:href="#DejaVuSans-32"/>
       <use xlink:href="#DejaVuSans-30" x="63.623047"/>
       <use xlink:href="#DejaVuSans-30" x="127.246094"/>
       <use xlink:href="#DejaVuSans-30" x="190.869141"/>
      </g>
     </g>
    </g>
    <g id="xtick_6">
     <g id="line2d_6">
      <g>
       <use xlink:href="#mc6207383a4" x="410.053259" y="307.584" style="stroke: #000000; stroke-width: 0.8"/>
      </g>
     </g>
     <g id="text_6">
      <!-- 2500 -->
      <g transform="translate(397.328259 322.182437)scale(0.1 -0.1)">
       <use xlink:href="#DejaVuSans-32"/>
       <use xlink:href="#DejaVuSans-35" x="63.623047"/>
       <use xlink:href="#DejaVuSans-30" x="127.246094"/>
       <use xlink:href="#DejaVuSans-30" x="190.869141"/>
      </g>
     </g>
    </g>
   </g>
   <g id="matplotlib.axis_2">
    <g id="ytick_1">
     <g id="line2d_7">
      <defs>
       <path id="m2811952741" d="M 0 0 
L -3.5 0 
" style="stroke: #000000; stroke-width: 0.8"/>
      </defs>
      <g>
       <use xlink:href="#m2811952741" x="57.6" y="280.060948" style="stroke: #000000; stroke-width: 0.8"/>
      </g>
     </g>
     <g id="text_7">
      <!-- 100 -->
      <g transform="translate(31.5125 283.860166)scale(0.1 -0.1)">
       <use xlink:href="#DejaVuSans-31"/>
       <use xlink:href="#DejaVuSans-30" x="63.623047"/>
       <use xlink:href="#DejaVuSans-30" x="127.246094"/>
      </g>
     </g>
    </g>
    <g id="ytick_2">
     <g id="line2d_8">
      <g>
       <use xlink:href="#m2811952741" x="57.6" y="232.335922" style="stroke: #000000; stroke-width: 0.8"/>
      </g>
     </g>
     <g id="text_8">
      <!-- 200 -->
      <g transform="translate(31.5125 236.135141)scale(0.1 -0.1)">
       <use xlink:href="#DejaVuSans-32"/>
       <use xlink:href="#DejaVuSans-30" x="63.623047"/>
       <use xlink:href="#DejaVuSans-30" x="127.246094"/>
      </g>
     </g>
    </g>
    <g id="ytick_3">
     <g id="line2d_9">
      <g>
       <use xlink:href="#m2811952741" x="57.6" y="184.610897" style="stroke: #000000; stroke-width: 0.8"/>
      </g>
     </g>
     <g id="text_9">
      <!-- 300 -->
      <g transform="translate(31.5125 188.410116)scale(0.1 -0.1)">
       <defs>
        <path id="DejaVuSans-33" d="M 2597 2516 
Q 3050 2419 3304 2112 
Q 3559 1806 3559 1356 
Q 3559 666 3084 287 
Q 2609 -91 1734 -91 
Q 1441 -91 1130 -33 
Q 819 25 488 141 
L 488 750 
Q 750 597 1062 519 
Q 1375 441 1716 441 
Q 2309 441 2620 675 
Q 2931 909 2931 1356 
Q 2931 1769 2642 2001 
Q 2353 2234 1838 2234 
L 1294 2234 
L 1294 2753 
L 1863 2753 
Q 2328 2753 2575 2939 
Q 2822 3125 2822 3475 
Q 2822 3834 2567 4026 
Q 2313 4219 1838 4219 
Q 1578 4219 1281 4162 
Q 984 4106 628 3988 
L 628 4550 
Q 988 4650 1302 4700 
Q 1616 4750 1894 4750 
Q 2613 4750 3031 4423 
Q 3450 4097 3450 3541 
Q 3450 3153 3228 2886 
Q 3006 2619 2597 2516 
z
" transform="scale(0.015625)"/>
       </defs>
       <use xlink:href="#DejaVuSans-33"/>
       <use xlink:href="#DejaVuSans-30" x="63.623047"/>
       <use xlink:href="#DejaVuSans-30" x="127.246094"/>
      </g>
     </g>
    </g>
    <g id="ytick_4">
     <g id="line2d_10">
      <g>
       <use xlink:href="#m2811952741" x="57.6" y="136.885872" style="stroke: #000000; stroke-width: 0.8"/>
      </g>
     </g>
     <g id="text_10">
      <!-- 400 -->
      <g transform="translate(31.5125 140.685091)scale(0.1 -0.1)">
       <defs>
        <path id="DejaVuSans-34" d="M 2419 4116 
L 825 1625 
L 2419 1625 
L 2419 4116 
z
M 2253 4666 
L 3047 4666 
L 3047 1625 
L 3713 1625 
L 3713 1100 
L 3047 1100 
L 3047 0 
L 2419 0 
L 2419 1100 
L 313 1100 
L 313 1709 
L 2253 4666 
z
" transform="scale(0.015625)"/>
       </defs>
       <use xlink:href="#DejaVuSans-34"/>
       <use xlink:href="#DejaVuSans-30" x="63.623047"/>
       <use xlink:href="#DejaVuSans-30" x="127.246094"/>
      </g>
     </g>
    </g>
    <g id="ytick_5">
     <g id="line2d_11">
      <g>
       <use xlink:href="#m2811952741" x="57.6" y="89.160847" style="stroke: #000000; stroke-width: 0.8"/>
      </g>
     </g>
     <g id="text_11">
      <!-- 500 -->
      <g transform="translate(31.5125 92.960065)scale(0.1 -0.1)">
       <use xlink:href="#DejaVuSans-35"/>
       <use xlink:href="#DejaVuSans-30" x="63.623047"/>
       <use xlink:href="#DejaVuSans-30" x="127.246094"/>
      </g>
     </g>
    </g>
   </g>
   <g id="line2d_12">
    <path d="M 73.832727 283.126803 
L 74.101704 282.578443 
L 74.236192 281.46979 
L 74.37068 282.431927 
L 74.505168 281.940359 
L 74.639657 282.541217 
L 74.774145 276.081158 
L 74.908633 249.014387 
L 75.177609 247.523934 
L 75.312098 248.078499 
L 75.446586 248.130997 
L 75.581074 248.996251 
L 75.715562 248.241242 
L 75.85005 248.219288 
L 76.253515 243.242522 
L 76.522492 277.241353 
L 76.65698 277.553952 
L 76.925956 275.850169 
L 77.060444 267.009585 
L 77.194933 269.24932 
L 77.463909 269.312795 
L 77.598397 270.894402 
L 77.732885 265.577357 
L 77.867374 252.193351 
L 78.405327 104.020988 
L 78.674303 103.100849 
L 78.808791 110.226673 
L 78.943279 105.432217 
L 79.481232 158.039512 
L 79.750209 228.29409 
L 80.019185 262.955821 
L 80.153673 265.076244 
L 80.288161 261.24822 
L 80.42265 271.626027 
L 80.557138 271.192206 
L 80.826114 273.695384 
L 80.960603 271.159753 
L 81.095091 260.864033 
L 81.364067 168.209238 
L 81.498555 180.488409 
L 81.767532 161.117776 
L 82.036508 169.106468 
L 82.170996 166.011023 
L 82.305485 160.046827 
L 83.112414 260.386783 
L 83.650367 286.524348 
L 83.784855 286.54487 
L 83.919343 288.070639 
L 84.053831 288.262493 
L 84.18832 286.169274 
L 84.322808 278.957545 
L 84.726273 188.984896 
L 84.860761 180.335212 
L 84.995249 184.424292 
L 85.129737 169.568924 
L 85.264225 178.095477 
L 85.398714 178.841419 
L 85.66769 187.122665 
L 85.802178 195.876867 
L 86.340131 262.508638 
L 86.474619 264.517861 
L 86.609107 269.419222 
L 86.878084 286.905671 
L 87.012572 289.152565 
L 87.14706 288.826603 
L 87.281549 290.314669 
L 87.416037 290.217788 
L 87.550525 289.407894 
L 87.819501 261.954073 
L 87.95399 262.099634 
L 88.088478 256.423697 
L 88.222966 257.880742 
L 88.357454 257.124301 
L 88.491942 253.772095 
L 88.626431 256.601711 
L 88.760919 249.620495 
L 88.895407 252.492587 
L 89.029895 252.491155 
L 89.164384 255.047307 
L 89.43336 276.309283 
L 89.567848 277.969637 
L 89.702336 277.472342 
L 89.836825 278.530406 
L 89.971313 263.408732 
L 90.105801 264.120789 
L 90.240289 265.662308 
L 90.374777 265.432273 
L 90.509266 266.665965 
L 90.643754 266.837298 
L 90.778242 268.932904 
L 90.91273 265.71576 
L 91.047218 255.795159 
L 91.181707 254.626373 
L 91.316195 247.707676 
L 91.450683 252.134172 
L 91.585171 250.171719 
L 91.71966 251.667421 
L 91.854148 251.89316 
L 92.123124 254.870725 
L 92.257612 254.298979 
L 92.526589 259.884239 
L 92.795565 266.469815 
L 92.930053 267.423361 
L 93.064542 266.284642 
L 93.19903 276.285898 
L 93.468006 276.41046 
L 93.602495 277.469479 
L 93.736983 276.237219 
L 93.871471 273.717815 
L 94.005959 268.506242 
L 94.6784 161.404604 
L 94.812888 157.012947 
L 95.081865 168.857821 
L 95.216353 163.64768 
L 95.350841 152.395073 
L 96.023282 264.844301 
L 96.157771 265.573062 
L 96.426747 269.496059 
L 96.561235 269.162938 
L 96.695723 269.240253 
L 96.830212 271.121096 
L 96.9647 270.483967 
L 97.099188 269.057943 
L 97.233676 260.598682 
L 97.368164 243.053054 
L 97.502653 202.071098 
L 97.637141 194.982022 
L 97.771629 179.524364 
L 97.906117 187.912037 
L 98.040606 181.205239 
L 98.175094 181.914433 
L 98.309582 176.600252 
L 98.44407 178.241038 
L 98.713047 189.599594 
L 98.982023 231.506939 
L 99.250999 266.324731 
L 99.385488 271.007033 
L 99.519976 271.760611 
L 99.654464 281.557127 
L 99.788952 281.569536 
L 99.923441 280.569219 
L 100.192417 281.806252 
L 100.326905 281.886907 
L 100.461393 281.232597 
L 100.595882 281.63826 
L 100.73037 282.466289 
L 100.864858 280.929066 
L 100.999346 282.084011 
L 101.133834 281.176759 
L 101.268323 278.963272 
L 101.402811 271.943875 
L 101.537299 276.212402 
L 101.806276 265.835072 
L 101.940764 267.994152 
L 102.075252 267.845727 
L 102.20974 268.493356 
L 102.344228 270.870062 
L 102.478717 276.683448 
L 102.613205 274.832671 
L 102.747693 280.498109 
L 102.882181 267.051583 
L 103.016669 267.080218 
L 103.151158 271.982533 
L 103.285646 271.763475 
L 103.554622 267.586103 
L 103.68911 263.401096 
L 103.823599 245.989575 
L 104.092575 183.772368 
L 104.227063 162.306607 
L 104.361552 169.46536 
L 104.630528 144.611122 
L 105.033993 159.91606 
L 105.168481 170.687121 
L 105.706434 253.683326 
L 105.840922 253.56115 
L 105.97541 262.252832 
L 106.109898 278.671672 
L 106.378875 281.858272 
L 106.513363 281.844432 
L 106.647851 283.999694 
L 106.782339 283.731479 
L 106.916828 284.842041 
L 107.320292 247.301059 
L 107.45478 254.359113 
L 107.589269 251.8273 
L 107.723757 251.919886 
L 108.26171 246.861034 
L 108.396198 243.456808 
L 108.530686 245.714679 
L 108.934151 277.298623 
L 109.068639 278.812461 
L 109.203127 277.746284 
L 109.337615 273.254405 
L 109.606592 274.80165 
L 109.875568 275.853032 
L 110.144545 276.901074 
L 110.413521 275.664518 
L 110.548009 275.529934 
L 110.951474 271.484283 
L 111.085962 272.65641 
L 111.22045 272.309449 
L 111.623915 266.520403 
L 111.758403 267.02772 
L 112.02738 270.804679 
L 112.430844 272.400127 
L 112.565333 262.172176 
L 112.834309 266.366252 
L 112.968797 266.888841 
L 113.103285 268.39552 
L 113.237774 268.573534 
L 113.50675 271.186002 
L 113.641238 272.014508 
L 114.313679 260.803423 
L 114.448168 260.443099 
L 114.582656 258.9641 
L 114.98612 248.156768 
L 115.524073 259.194612 
L 115.658561 259.74345 
L 115.927538 261.964095 
L 116.062026 260.683156 
L 116.196514 266.766187 
L 116.331002 266.350025 
L 116.465491 266.959474 
L 116.599979 257.227864 
L 117.137932 79.056981 
L 117.406908 64.397285 
L 117.810373 80.889145 
L 118.213837 147.896512 
L 118.482814 210.056449 
L 118.75179 244.389832 
L 118.886279 245.919419 
L 119.289743 253.890453 
L 119.424231 255.304545 
L 119.55872 258.067824 
L 119.693208 258.383764 
L 119.827696 248.795329 
L 120.365649 91.877832 
L 120.634625 73.36434 
L 120.769114 77.045372 
L 120.903602 70.644014 
L 121.03809 71.968383 
L 121.441555 135.220268 
L 121.710531 201.862539 
L 121.845019 229.963034 
L 122.248484 240.896837 
L 122.51746 256.368813 
L 122.651948 256.527738 
L 122.786437 258.261588 
L 122.920925 256.92481 
L 123.055413 248.787216 
L 123.727854 60.451858 
L 123.862342 53.568 
L 124.534783 107.546913 
L 125.072736 248.09043 
L 125.207225 253.246642 
L 125.341713 253.70862 
L 125.476201 253.662327 
L 125.745177 267.223393 
L 125.879666 268.656098 
L 126.014154 268.885178 
L 126.28313 255.47206 
L 126.821083 92.98028 
L 126.955571 74.681074 
L 127.09006 81.260446 
L 127.359036 105.728589 
L 127.493524 108.164474 
L 127.762501 126.609242 
L 127.896989 149.347353 
L 128.300453 246.477325 
L 128.434942 252.263029 
L 128.56943 250.440888 
L 128.703918 257.920831 
L 128.838406 258.642911 
L 129.241871 265.317256 
L 129.510847 244.664728 
L 130.0488 83.428117 
L 130.183288 74.34509 
L 130.317777 86.230053 
L 130.452265 114.972927 
L 130.586753 114.057083 
L 130.721241 110.419959 
L 130.855729 116.792204 
L 131.124706 169.915885 
L 131.393682 235.376961 
L 131.662659 258.413353 
L 131.931635 258.217681 
L 132.066123 258.035848 
L 132.3351 269.276046 
L 132.469588 269.128099 
L 132.604076 269.22689 
L 132.738564 269.185369 
L 133.007541 257.327609 
L 133.276517 246.897305 
L 133.679982 241.334953 
L 133.81447 240.156145 
L 133.948958 235.071521 
L 134.486911 244.920534 
L 134.755888 251.987179 
L 134.890376 251.872639 
L 135.697305 266.074652 
L 135.831793 270.81136 
L 135.966282 271.4189 
L 136.10077 269.44213 
L 136.235258 270.941173 
L 136.369746 270.667708 
L 136.504234 266.380569 
L 136.638723 266.222122 
L 136.907699 264.293077 
L 137.311164 253.441838 
L 137.445652 253.950109 
L 137.58014 251.275599 
L 137.983605 258.068779 
L 138.118093 257.169639 
L 138.252581 258.998939 
L 138.387069 263.477456 
L 138.521558 262.248059 
L 138.656046 262.448504 
L 138.925022 267.129852 
L 139.193999 250.934365 
L 139.731951 81.579726 
L 139.86644 72.689031 
L 140.269904 98.622333 
L 140.538881 122.977845 
L 140.673369 130.04783 
L 140.807857 144.365815 
L 141.076834 224.240326 
L 141.480298 257.332382 
L 142.018251 265.746304 
L 142.152739 265.283848 
L 142.421716 241.617008 
L 142.959669 91.549007 
L 143.094157 84.154491 
L 143.228645 83.668173 
L 143.363133 93.864148 
L 143.497621 84.616947 
L 143.63211 89.728774 
L 144.573527 258.576573 
L 144.708015 262.056205 
L 144.842504 262.231355 
L 145.11148 264.467273 
L 145.245968 266.6044 
L 145.380456 262.538227 
L 145.783921 201.547077 
L 146.052897 110.11786 
L 146.187386 91.051712 
L 146.456362 106.321334 
L 146.59085 117.611166 
L 146.725339 111.93666 
L 146.859827 119.329744 
L 146.994315 114.266596 
L 147.128803 127.09031 
L 147.532268 234.064523 
L 147.801244 260.010233 
L 147.935732 260.21211 
L 148.204709 265.470453 
L 148.339197 265.448977 
L 148.473685 265.951521 
L 148.742662 264.900616 
L 148.87715 247.254288 
L 149.280615 119.194205 
L 149.415103 115.163349 
L 149.549591 106.099413 
L 149.684079 107.352672 
L 150.087544 139.99993 
L 150.222032 132.322405 
L 150.35652 137.831782 
L 150.894473 252.445339 
L 151.028961 261.599953 
L 151.16345 260.644021 
L 151.835891 268.804046 
L 151.970379 267.534083 
L 152.104867 246.62384 
L 152.508332 113.195647 
L 152.64282 116.298728 
L 152.911796 104.467217 
L 153.046285 118.590483 
L 153.180773 117.092395 
L 153.449749 151.502138 
L 153.718726 192.37385 
L 153.987702 248.894597 
L 154.12219 265.914296 
L 154.256678 267.290685 
L 154.525655 271.145913 
L 154.794631 272.846833 
L 155.063608 275.786217 
L 155.198096 277.425094 
L 155.332584 276.782716 
L 155.467072 272.409672 
L 155.601561 261.952641 
L 155.736049 261.093114 
L 155.870537 258.232953 
L 156.005025 260.36817 
L 156.274002 258.474441 
L 156.40849 259.009916 
L 156.542978 260.261266 
L 156.677466 259.066709 
L 157.215419 267.061605 
L 157.349907 269.064147 
L 157.484396 268.073853 
L 157.618884 268.842703 
L 157.88786 272.013077 
L 158.022348 272.49319 
L 158.291325 275.486981 
L 158.560301 279.760757 
L 158.694789 278.197285 
L 158.829278 279.159899 
L 158.963766 278.764259 
L 159.232742 276.054909 
L 159.367231 276.336487 
L 159.501719 274.356375 
L 160.039672 260.298015 
L 160.308648 260.556684 
L 160.443136 266.265552 
L 160.577624 265.982542 
L 160.712113 264.030589 
L 160.846601 264.731192 
L 160.981089 266.22069 
L 161.250066 269.970923 
L 161.519042 270.920651 
L 161.788018 254.186348 
L 162.460459 83.853347 
L 162.594948 83.517362 
L 162.729436 82.060795 
L 162.998412 101.617078 
L 163.132901 110.54643 
L 163.401877 151.739809 
L 163.670853 222.344688 
L 164.074318 256.374063 
L 164.208806 257.505146 
L 164.477783 270.13796 
L 164.612271 272.495099 
L 164.746759 267.801343 
L 165.015735 250.323484 
L 165.4192 120.80397 
L 165.553688 123.398302 
L 165.822665 109.530842 
L 165.957153 114.776777 
L 166.091641 111.697558 
L 166.360618 100.264551 
L 166.495106 106.446851 
L 166.89857 221.446981 
L 167.033059 228.405767 
L 167.302035 246.761289 
L 167.974476 265.191262 
L 168.108964 259.52821 
L 168.243453 245.542391 
L 168.377941 207.537045 
L 168.646917 106.273132 
L 168.781405 107.553594 
L 168.915894 103.03642 
L 169.050382 104.334064 
L 169.18487 108.122476 
L 169.319358 92.823742 
L 169.453847 95.29733 
L 169.857311 148.572299 
L 170.126288 226.622282 
L 170.395264 257.379629 
L 170.529752 258.25777 
L 170.66424 261.688245 
L 170.798729 261.877236 
L 171.067705 264.200013 
L 171.202193 267.029152 
L 171.47117 245.282767 
L 172.009123 110.32785 
L 172.143611 108.754356 
L 172.412587 97.019249 
L 172.95054 129.458903 
L 173.622981 259.345423 
L 173.757469 263.327122 
L 173.891958 276.682016 
L 174.026446 275.754719 
L 174.160934 275.710812 
L 174.42991 277.238967 
L 174.698887 262.475708 
L 174.833375 245.383944 
L 175.102351 176.990642 
L 175.371328 143.679052 
L 175.505816 140.784529 
L 175.640304 150.932301 
L 175.774792 150.622566 
L 175.909281 152.029022 
L 176.043769 156.827296 
L 176.178257 156.519947 
L 176.312745 170.968221 
L 176.581722 238.512018 
L 176.850698 265.591674 
L 176.985186 263.10186 
L 177.254163 267.828546 
L 177.388651 267.785117 
L 177.792116 274.33299 
L 177.926604 275.222107 
L 178.19558 264.523588 
L 178.330069 264.084041 
L 178.599045 256.529169 
L 178.733533 255.964582 
L 178.868021 258.269224 
L 179.136998 254.764298 
L 179.271486 255.359429 
L 179.540462 252.877251 
L 179.809439 260.372943 
L 179.943927 267.633351 
L 180.212904 265.734372 
L 180.48188 275.588636 
L 180.616368 275.602476 
L 180.750856 275.974254 
L 180.885345 276.804669 
L 181.019833 276.891051 
L 181.692274 264.59613 
L 181.826762 265.890433 
L 181.96125 259.913828 
L 182.095738 261.693972 
L 182.364715 267.126034 
L 182.499203 268.402678 
L 182.633691 271.546803 
L 182.902668 270.729751 
L 183.171644 276.853826 
L 183.306132 278.268396 
L 183.440621 277.159743 
L 183.575109 274.860352 
L 183.844085 286.580663 
L 183.978573 287.530869 
L 184.113062 285.254385 
L 184.382038 273.880557 
L 184.919991 182.248986 
L 185.054479 186.260274 
L 185.188967 179.195061 
L 185.457944 183.051243 
L 185.592432 184.548855 
L 185.995897 222.264033 
L 186.264873 252.829048 
L 186.53385 268.569239 
L 186.802826 278.812461 
L 187.071802 289.298604 
L 187.206291 288.149385 
L 187.340779 289.282377 
L 187.475267 286.108186 
L 187.609755 278.118062 
L 188.01322 202.287292 
L 188.147708 185.904723 
L 188.282196 186.123303 
L 188.416684 185.165939 
L 188.551173 188.474715 
L 188.685661 194.869869 
L 188.820149 190.462462 
L 188.954637 194.893254 
L 189.089126 203.257542 
L 189.627078 265.197466 
L 189.761567 267.783685 
L 189.896055 273.014348 
L 190.030543 270.580849 
L 190.299519 272.410626 
L 190.434008 271.240408 
L 190.971961 274.661816 
L 191.106449 271.212728 
L 191.240937 270.727842 
L 191.375425 271.165957 
L 191.509913 266.74137 
L 191.644402 268.289093 
L 191.913378 267.02438 
L 192.182354 261.393304 
L 192.316843 261.741697 
L 192.451331 261.243925 
L 192.585819 262.563522 
L 192.720307 268.328227 
L 192.989284 269.584827 
L 193.392748 266.899817 
L 193.661725 269.779545 
L 193.796213 270.313588 
L 194.065189 262.433232 
L 194.603142 158.772091 
L 194.73763 153.864527 
L 194.872119 143.921018 
L 195.006607 145.495466 
L 195.141095 150.235516 
L 195.275583 142.84291 
L 195.54456 156.225484 
L 195.948024 250.175537 
L 196.217001 260.50371 
L 196.351489 262.428937 
L 196.485977 271.894719 
L 196.620465 271.242795 
L 196.889442 271.799269 
L 197.02393 272.927011 
L 197.158418 271.19841 
L 197.292907 264.881526 
L 197.830859 196.215714 
L 197.965348 198.525605 
L 198.099836 195.210148 
L 198.234324 199.610873 
L 198.5033 186.295113 
L 198.772277 200.085259 
L 199.31023 272.570505 
L 199.713694 281.67644 
L 199.848183 280.508608 
L 200.117159 281.235938 
L 200.251647 279.453885 
L 200.386135 273.679157 
L 200.520624 273.276358 
L 200.655112 260.327604 
L 200.7896 213.138531 
L 200.924088 211.169874 
L 201.058576 199.494423 
L 201.193065 199.136486 
L 201.327553 196.453385 
L 201.462041 198.624396 
L 201.731018 186.832974 
L 201.865506 188.193138 
L 202.134482 210.87207 
L 202.403459 264.30644 
L 202.806923 274.098183 
L 203.0759 265.632718 
L 203.210388 269.956605 
L 203.344876 270.082599 
L 203.748341 260.712745 
L 203.882829 243.337972 
L 204.151805 181.421434 
L 204.420782 164.961072 
L 204.55527 159.336201 
L 204.689758 162.770494 
L 204.824246 156.275595 
L 204.958735 172.287818 
L 205.093223 172.534079 
L 205.765664 260.132409 
L 205.900152 260.643067 
L 206.03464 264.440547 
L 206.169129 279.279212 
L 206.303617 279.759803 
L 206.572593 283.695686 
L 206.84157 284.506534 
L 207.110546 275.124748 
L 207.379522 265.94818 
L 207.514011 265.070994 
L 207.917475 273.183294 
L 208.051964 272.937033 
L 208.32094 266.580537 
L 208.589916 268.181234 
L 208.858893 276.227196 
L 208.993381 279.878161 
L 209.127869 280.461361 
L 209.262357 279.917773 
L 209.396846 274.067162 
L 209.531334 275.163883 
L 209.80031 274.749152 
L 209.934799 275.739447 
L 210.203775 263.566702 
L 211.010704 108.548184 
L 211.279681 134.15266 
L 211.683145 167.230875 
L 212.221098 254.810591 
L 212.355586 257.272725 
L 212.759051 272.503213 
L 212.893539 272.296086 
L 213.028027 272.396309 
L 213.162516 275.043616 
L 213.431492 257.351472 
L 213.56598 219.296014 
L 213.834957 135.430736 
L 213.969445 140.013293 
L 214.103933 138.922776 
L 214.238421 141.882205 
L 214.910862 180.179629 
L 215.448815 260.425918 
L 215.583303 265.38932 
L 215.717792 266.006882 
L 216.121256 270.267295 
L 216.255745 271.224182 
L 216.390233 273.613774 
L 216.524721 269.607258 
L 216.659209 262.091998 
L 217.062674 149.061003 
L 217.197162 150.97239 
L 217.33165 151.053046 
L 217.466138 162.513733 
L 217.600627 161.230407 
L 217.735115 149.379806 
L 217.869603 154.60856 
L 218.273068 196.784597 
L 218.542044 255.584214 
L 218.811021 272.376741 
L 218.945509 264.960272 
L 219.483462 275.676927 
L 219.61795 277.474729 
L 219.886926 263.728489 
L 220.290391 162.173931 
L 220.693856 150.517094 
L 220.828344 161.17791 
L 220.962832 157.258253 
L 221.231808 184.404248 
L 221.500785 198.265981 
L 221.769761 255.44772 
L 222.038738 271.076234 
L 222.173226 270.323611 
L 222.307714 271.548235 
L 222.576691 277.597382 
L 222.845667 280.235621 
L 222.980155 278.563814 
L 223.114643 280.436544 
L 223.38362 259.889966 
L 223.518108 263.753784 
L 223.652596 263.597246 
L 223.921573 256.637028 
L 224.190549 255.964582 
L 224.325037 258.453442 
L 224.459525 257.824904 
L 224.728502 253.965858 
L 225.131967 261.235334 
L 225.266455 259.749177 
L 225.535431 261.221494 
L 225.669919 259.908578 
L 226.073384 269.677414 
L 226.34236 272.708908 
L 226.476849 272.636843 
L 226.745825 269.489377 
L 226.880313 271.773974 
L 227.014802 272.017372 
L 227.14929 271.720045 
L 227.283778 270.299271 
L 227.418266 271.97776 
L 227.552754 272.106618 
L 227.687243 271.937194 
L 227.956219 270.82711 
L 228.090707 276.649563 
L 228.225195 276.688697 
L 228.359684 277.791623 
L 228.494172 277.018 
L 228.62866 277.990159 
L 228.763148 277.875619 
L 228.897637 275.584818 
L 229.301101 276.489684 
L 229.435589 270.268727 
L 229.570078 256.168845 
L 230.242519 94.544707 
L 230.377007 79.690293 
L 230.511495 109.705515 
L 230.780471 117.66605 
L 231.049448 145.167595 
L 231.587401 254.007856 
L 231.856377 265.244236 
L 232.125354 270.064464 
L 232.39433 274.726722 
L 232.528818 273.912055 
L 232.797795 256.787839 
L 232.932283 220.474345 
L 233.201259 133.213431 
L 233.335748 125.028112 
L 233.470236 135.336718 
L 233.604724 135.559116 
L 233.739212 148.366127 
L 233.8737 133.611935 
L 234.008189 140.342595 
L 234.815118 264.661991 
L 234.949606 264.395208 
L 235.218583 270.305952 
L 235.622047 278.052679 
L 235.756535 277.454207 
L 236.025512 264.783213 
L 236.563465 129.053241 
L 236.832441 116.827521 
L 237.63937 200.617393 
L 237.908347 258.756496 
L 238.177323 266.854479 
L 238.849764 281.789548 
L 238.984252 280.963905 
L 239.118741 277.161175 
L 239.253229 263.245035 
L 239.791182 128.282482 
L 240.194646 146.037623 
L 240.463623 165.185857 
L 240.732599 178.657677 
L 241.270552 256.22182 
L 241.674017 262.10393 
L 241.942993 275.061751 
L 242.077481 281.568581 
L 242.21197 280.941952 
L 242.480946 262.953912 
L 242.884411 151.088839 
L 243.018899 158.969673 
L 243.153387 156.720392 
L 243.287875 145.729796 
L 243.422363 153.719443 
L 243.556852 150.904621 
L 243.825828 167.563518 
L 244.229293 239.632601 
L 244.498269 262.043319 
L 244.767246 267.322184 
L 245.17071 275.188223 
L 245.305198 276.053955 
L 245.439687 275.758059 
L 245.574175 274.528185 
L 245.708663 263.060816 
L 245.843151 268.514355 
L 246.112128 265.529632 
L 246.381104 260.34574 
L 246.515592 260.312332 
L 247.188033 270.564145 
L 247.322522 270.969808 
L 247.45701 271.837449 
L 247.591498 271.482852 
L 247.725986 274.648453 
L 247.860475 273.209543 
L 248.129451 274.533912 
L 248.263939 273.650045 
L 248.398427 274.33299 
L 248.532916 274.179793 
L 248.667404 276.126019 
L 248.801892 276.027229 
L 249.205357 277.566838 
L 249.339845 277.683287 
L 249.608821 276.734513 
L 249.743309 276.866234 
L 249.877798 276.566044 
L 250.550239 273.399011 
L 250.819215 273.699202 
L 250.953703 274.478074 
L 251.088192 273.341741 
L 251.357168 274.599773 
L 251.491656 283.499536 
L 251.626144 283.009877 
L 251.760633 283.440357 
L 251.895121 283.280478 
L 252.164097 271.035191 
L 252.70205 143.616532 
L 252.836538 163.352262 
L 252.971027 159.907947 
L 253.240003 172.817089 
L 253.374491 174.170093 
L 253.508979 171.244549 
L 253.777956 204.065049 
L 254.046932 255.423381 
L 254.315909 276.750263 
L 254.719373 285.105483 
L 254.853862 284.865426 
L 255.122838 286.598799 
L 255.391814 265.83364 
L 255.660791 172.607576 
L 255.795279 176.054755 
L 256.198744 160.382334 
L 256.333232 164.055729 
L 256.46772 161.391241 
L 256.602208 162.58723 
L 257.409138 257.665025 
L 257.812602 265.136378 
L 258.081579 280.342525 
L 258.216067 281.406316 
L 258.350555 280.677078 
L 258.619532 266.50704 
L 258.888508 177.411577 
L 259.022996 178.28065 
L 259.157484 169.228167 
L 259.291973 168.652603 
L 259.426461 153.168696 
L 259.695437 166.868164 
L 259.829925 155.737257 
L 259.964414 164.809784 
L 260.771343 260.735176 
L 261.040319 262.97348 
L 261.309296 270.472036 
L 261.443784 273.685839 
L 261.71276 270.771749 
L 261.847249 258.381378 
L 262.116225 170.228484 
L 262.250713 174.395355 
L 262.654178 147.967623 
L 262.788666 155.267643 
L 262.923154 150.498004 
L 263.326619 185.644144 
L 263.461107 196.541199 
L 263.864572 245.312357 
L 264.268036 263.353848 
L 264.402525 262.596452 
L 264.671501 266.025972 
L 264.805989 265.899978 
L 264.940478 264.949296 
L 265.074966 257.382016 
L 265.209454 238.267666 
L 265.612919 123.984366 
L 265.881895 105.87415 
L 266.016383 115.374771 
L 266.150871 115.244005 
L 266.28536 114.795867 
L 266.419848 119.426626 
L 266.688824 156.69653 
L 266.957801 235.499137 
L 267.226777 252.162807 
L 267.361265 250.740601 
L 267.495754 267.106944 
L 267.630242 266.791004 
L 267.76473 268.659916 
L 267.899218 268.971084 
L 268.168195 275.491276 
L 268.302683 276.376098 
L 268.437171 273.814696 
L 268.706147 276.350804 
L 268.975124 272.856378 
L 269.2441 270.971717 
L 269.916541 256.479535 
L 270.320006 258.368969 
L 270.588982 263.255534 
L 270.723471 277.352552 
L 270.857959 278.392481 
L 270.992447 276.914437 
L 271.126935 277.797827 
L 271.261424 277.827416 
L 271.395912 277.641289 
L 271.799376 280.418885 
L 271.933865 279.033428 
L 272.068353 279.388502 
L 272.202841 278.743737 
L 272.337329 278.979976 
L 272.471817 278.136675 
L 272.606306 275.970913 
L 272.740794 277.253762 
L 272.875282 276.93114 
L 273.00977 276.253922 
L 273.144258 273.919214 
L 273.278747 273.819469 
L 273.547723 276.798465 
L 273.682211 277.01275 
L 273.8167 277.69665 
L 273.951188 276.834736 
L 274.085676 287.488393 
L 274.354652 289.121544 
L 274.489141 287.549004 
L 274.758117 272.822016 
L 275.29607 166.250603 
L 275.565046 154.004361 
L 275.699535 154.341777 
L 275.834023 172.309772 
L 275.968511 174.593414 
L 276.102999 184.75789 
L 276.77544 264.138925 
L 277.447881 281.554264 
L 277.58237 284.953717 
L 277.716858 284.562372 
L 277.851346 280.160216 
L 277.985834 270.168027 
L 278.389299 209.607356 
L 278.523787 190.104525 
L 278.658275 188.104369 
L 278.792763 178.580363 
L 278.927252 190.721609 
L 279.06174 184.895816 
L 279.196228 186.988558 
L 279.330716 194.691377 
L 280.137646 274.521504 
L 280.272134 276.910141 
L 280.406622 268.545854 
L 280.54111 268.261412 
L 280.810087 269.433539 
L 280.944575 268.809773 
L 281.213551 260.883123 
L 281.348039 231.904965 
L 281.482528 161.369764 
L 281.617016 151.150882 
L 281.751504 127.727917 
L 281.885992 128.880953 
L 282.154969 142.404794 
L 282.289457 124.269284 
L 282.423945 128.361705 
L 282.558433 137.48148 
L 282.82741 185.978696 
L 283.096386 254.608237 
L 283.365363 261.245356 
L 283.499851 263.455025 
L 283.634339 262.783057 
L 283.768827 262.793556 
L 283.903316 262.983025 
L 284.037804 264.289259 
L 284.172292 264.418593 
L 284.441268 259.219429 
L 285.113709 143.815546 
L 285.248198 142.738392 
L 285.382686 138.196401 
L 285.517174 147.448374 
L 285.651662 144.343862 
L 285.78615 147.836856 
L 286.055127 201.025442 
L 286.324103 250.656128 
L 286.59308 260.344785 
L 286.727568 260.223086 
L 286.862056 279.181853 
L 286.996544 279.241032 
L 287.131033 278.262191 
L 287.265521 278.868299 
L 287.668985 275.338079 
L 287.803474 276.21622 
L 288.07245 275.340465 
L 288.206938 273.167068 
L 288.341427 273.111707 
L 288.475915 270.763158 
L 288.610403 270.391858 
L 288.744891 269.266979 
L 288.879379 272.09755 
L 289.013868 272.437352 
L 289.148356 269.624439 
L 289.417332 276.785102 
L 289.55182 277.972978 
L 289.820797 277.611222 
L 289.955285 278.402026 
L 290.089773 276.901551 
L 290.224262 278.449751 
L 290.35875 277.542021 
L 290.493238 278.52277 
L 290.627726 276.97982 
L 291.031191 258.987963 
L 291.300167 192.751832 
L 291.434655 187.163231 
L 291.569144 187.771248 
L 291.703632 191.83742 
L 291.972608 179.082907 
L 292.376073 192.17245 
L 293.048514 268.623645 
L 293.183002 269.871177 
L 293.31749 268.718618 
L 293.451979 269.470765 
L 293.586467 268.540604 
L 293.720955 271.017533 
L 293.855443 271.280975 
L 294.258908 247.342579 
L 294.527884 189.311812 
L 294.796861 157.606646 
L 294.931349 141.726144 
L 295.065837 141.592037 
L 295.200325 149.569752 
L 295.334814 143.845612 
L 295.60379 171.923199 
L 295.738278 186.423971 
L 296.141743 256.677117 
L 296.276231 255.786568 
L 296.410719 262.990183 
L 296.545208 280.680418 
L 296.948672 282.845226 
L 297.486625 284.811497 
L 297.621113 284.465967 
L 297.755601 284.462149 
L 298.024578 281.288435 
L 298.159066 281.138101 
L 298.428042 278.996202 
L 298.697019 275.170564 
L 298.831507 274.035186 
L 298.965995 273.892965 
L 299.100484 274.248517 
L 299.36946 278.032634 
L 299.503948 277.526272 
L 299.638436 279.069222 
L 299.772925 269.412063 
L 299.907413 272.813425 
L 300.041901 272.511803 
L 300.176389 273.378012 
L 300.310877 273.094526 
L 300.579854 262.126838 
L 301.252295 128.059606 
L 301.386783 128.12833 
L 301.521271 141.31714 
L 301.65576 134.376967 
L 301.790248 143.789297 
L 302.597177 252.561788 
L 302.731665 254.314251 
L 303.000642 266.71894 
L 303.13513 266.943247 
L 303.269618 267.423361 
L 303.404106 269.882154 
L 303.538595 270.30118 
L 303.807571 253.946768 
L 304.345524 164.1927 
L 304.6145 153.672672 
L 304.748988 161.908103 
L 304.883477 152.337326 
L 305.017965 158.416063 
L 306.093871 265.17074 
L 306.228359 266.181079 
L 306.497335 276.333623 
L 306.766312 277.363052 
L 306.9008 272.655933 
L 307.035288 262.119679 
L 307.304265 169.669146 
L 307.438753 176.9286 
L 307.842217 157.672507 
L 307.976706 164.721493 
L 308.111194 156.305185 
L 308.245682 161.266201 
L 308.649147 207.254513 
L 309.052611 263.602973 
L 309.590564 275.830124 
L 309.994029 277.532953 
L 310.128517 273.980779 
L 310.263005 261.368487 
L 310.531982 169.557947 
L 310.66647 170.709075 
L 310.935446 168.42066 
L 311.069934 159.072282 
L 311.204423 165.52566 
L 311.338911 164.235175 
L 311.473399 157.463471 
L 311.607887 170.595966 
L 311.876864 208.161288 
L 312.14584 250.475727 
L 312.414817 262.277649 
L 312.818281 270.885812 
L 312.952769 270.451991 
L 313.087258 272.33713 
L 313.221746 272.238339 
L 313.356234 273.814696 
L 313.625211 263.261739 
L 313.759699 255.372792 
L 313.894187 258.724521 
L 314.028675 256.196526 
L 314.163163 258.079278 
L 314.297652 255.319817 
L 314.566628 261.881054 
L 314.701116 262.615542 
L 314.970093 267.367523 
L 315.104581 267.32982 
L 315.239069 267.033447 
L 315.508045 269.965196 
L 315.642534 270.502102 
L 315.777022 270.171845 
L 316.180487 273.160863 
L 316.314975 272.721316 
L 316.718439 275.075114 
L 316.852928 275.324239 
L 316.987416 274.470915 
L 317.121904 274.536299 
L 317.256392 273.41667 
L 317.39088 273.561276 
L 317.525369 272.022622 
L 317.659857 272.941806 
L 317.928833 270.422879 
L 318.332298 266.686964 
L 318.466786 267.341274 
L 318.601274 266.838729 
L 318.735763 268.29482 
L 318.870251 268.131123 
L 319.139227 269.247411 
L 319.273715 279.082107 
L 319.67718 280.200305 
L 319.811668 277.621722 
L 319.946157 269.668346 
L 320.349621 147.688431 
L 320.484109 131.53876 
L 320.887574 158.815044 
L 321.022062 163.481119 
L 321.291039 178.262514 
L 321.425527 180.062702 
L 321.560015 198.501743 
L 321.828991 254.025515 
L 321.96348 262.11252 
L 322.097968 262.899029 
L 322.635921 279.598015 
L 322.770409 279.944976 
L 322.904897 279.285893 
L 323.173874 268.854634 
L 323.44285 173.394562 
L 323.577338 173.756317 
L 323.711826 173.957717 
L 323.980803 153.781963 
L 324.249779 157.320773 
L 324.384268 160.086916 
L 324.787732 196.327868 
L 325.056709 250.847505 
L 325.325685 260.118569 
L 325.863638 277.93957 
L 325.998126 279.706828 
L 326.132614 279.772211 
L 326.267103 276.559363 
L 326.401591 267.560809 
L 326.670567 166.204309 
L 326.805055 172.159438 
L 326.939544 173.331565 
L 327.20852 160.106006 
L 327.343008 168.248849 
L 327.611985 164.495276 
L 327.746473 169.354638 
L 328.149937 224.046563 
L 328.418914 254.889338 
L 328.68789 267.699212 
L 328.822379 270.152278 
L 328.956867 280.197918 
L 329.225843 281.144783 
L 329.360331 280.297664 
L 329.629308 267.466313 
L 330.032772 178.458187 
L 330.301749 167.120153 
L 330.570725 158.312499 
L 330.839702 180.164357 
L 330.97419 181.376572 
L 331.108678 184.121716 
L 331.781119 259.999256 
L 332.050096 267.161828 
L 332.184584 277.935275 
L 332.319072 278.891207 
L 332.45356 278.226398 
L 332.588049 279.213828 
L 332.857025 266.607263 
L 333.26049 177.826785 
L 333.394978 179.736263 
L 333.663954 164.826965 
L 333.798442 166.019136 
L 333.932931 169.785595 
L 334.336395 187.64764 
L 334.73986 255.374224 
L 335.143325 271.100574 
L 335.277813 270.902038 
L 335.412301 270.999397 
L 335.546789 271.284793 
L 335.681277 271.179798 
L 335.950254 273.761244 
L 336.084742 271.66707 
L 336.622695 255.206709 
L 336.757183 256.001331 
L 336.891671 254.172508 
L 337.295136 260.529004 
L 337.698601 265.260463 
L 337.833089 264.781304 
L 338.102065 268.879929 
L 338.236553 268.647985 
L 338.371042 269.285114 
L 338.50553 266.950406 
L 339.043483 270.108371 
L 339.446947 273.103593 
L 339.581436 272.622048 
L 339.715924 271.453262 
L 339.850412 271.712409 
L 339.9849 270.932582 
L 340.119388 270.819951 
L 340.253877 270.346519 
L 340.388365 271.823131 
L 340.522853 269.834906 
L 340.657341 270.433378 
L 340.926318 270.115052 
L 341.060806 266.777641 
L 341.329782 271.658002 
L 341.464271 271.556348 
L 341.598759 272.084664 
L 341.733247 273.650522 
L 341.867735 281.46979 
L 342.136712 281.571445 
L 342.2712 282.212869 
L 342.540176 269.52183 
L 342.943641 154.38807 
L 343.212617 170.991129 
L 343.347106 170.257119 
L 343.75057 184.636669 
L 343.885058 186.310863 
L 344.019547 185.648439 
L 344.423011 253.50913 
L 345.22994 279.193307 
L 345.364429 280.276665 
L 345.498917 279.909182 
L 345.633405 275.694108 
L 345.767893 267.612829 
L 346.03687 183.392 
L 346.171358 187.508283 
L 346.440334 173.948649 
L 346.574823 168.579584 
L 346.843799 175.455328 
L 347.112775 177.323286 
L 347.381752 211.789345 
L 347.650728 250.684763 
L 348.054193 268.638917 
L 348.188681 269.820589 
L 348.323169 278.785735 
L 348.457658 279.633331 
L 348.592146 281.503198 
L 348.726634 281.308003 
L 348.99561 268.406974 
L 349.264587 182.342049 
L 349.399075 183.815321 
L 349.668052 166.265397 
L 349.80254 162.155318 
L 350.206004 180.842529 
L 350.340493 182.021814 
L 351.012934 262.16454 
L 351.147422 264.483977 
L 351.550886 281.139056 
L 351.685375 280.427476 
L 351.954351 280.794004 
L 352.088839 279.39757 
L 352.223328 272.112822 
L 352.492304 178.267287 
L 352.626792 185.427472 
L 352.76128 174.065576 
L 352.895769 173.357336 
L 353.030257 165.08468 
L 353.164745 172.290682 
L 353.299233 170.21512 
L 353.56821 152.452343 
L 354.240651 268.780183 
L 354.375139 269.916994 
L 354.644115 275.77524 
L 354.913092 280.046153 
L 355.182068 281.087513 
L 355.316556 278.686944 
L 355.451045 269.565737 
L 355.854509 196.3188 
L 356.123486 158.013741 
L 356.257974 159.726114 
L 356.392462 168.329505 
L 356.52695 167.696671 
L 356.661439 178.29449 
L 356.795927 177.044094 
L 357.33388 264.473477 
L 357.602856 274.062866 
L 357.737344 276.025797 
L 357.871832 280.277619 
L 358.006321 279.699669 
L 358.140809 279.913955 
L 358.275297 280.653215 
L 358.409785 280.565401 
L 358.678762 279.306892 
L 359.082226 260.854011 
L 359.351203 254.953289 
L 359.485691 248.686993 
L 359.620179 259.411761 
L 359.754667 260.824899 
L 359.889156 260.992891 
L 360.427109 275.27031 
L 360.561597 275.949437 
L 360.965061 280.093401 
L 361.234038 280.053789 
L 361.368526 279.862412 
L 361.503014 281.166736 
L 361.771991 280.759642 
L 361.906479 282.089261 
L 362.040967 282.041536 
L 362.175455 282.416655 
L 362.309944 282.457221 
L 362.57892 279.047268 
L 362.713408 278.998111 
L 362.982385 277.864165 
L 363.116873 276.372758 
L 363.251361 276.271103 
L 363.385849 277.361143 
L 363.520337 276.50782 
L 363.654826 276.448163 
L 364.05829 279.232441 
L 364.192778 253.242347 
L 364.730731 259.495757 
L 364.86522 258.3012 
L 364.999708 246.226768 
L 365.134196 224.087606 
L 365.403172 135.807286 
L 365.672149 105.528144 
L 365.806637 99.609764 
L 366.075613 116.546421 
L 366.34459 113.403728 
L 366.479078 124.830053 
L 367.017031 251.157718 
L 367.151519 256.114916 
L 367.286007 254.380589 
L 367.554984 265.735804 
L 367.689472 266.602013 
L 367.958448 271.499555 
L 368.227425 247.948687 
L 368.496401 152.035704 
L 368.765378 100.177214 
L 369.034354 89.280159 
L 369.168842 94.000164 
L 369.303331 93.555844 
L 369.437819 96.923322 
L 369.572307 94.801945 
L 369.706795 110.904845 
L 370.244748 234.697834 
L 370.782701 278.899798 
L 370.917189 279.204761 
L 371.051677 280.096264 
L 371.186166 279.81755 
L 371.455142 264.999884 
L 371.858607 171.746617 
L 372.127583 203.727156 
L 372.262071 199.667188 
L 372.396559 201.093689 
L 372.665536 190.407579 
L 372.800024 194.201718 
L 373.203489 233.903212 
L 373.472465 256.157391 
L 373.87593 277.34778 
L 374.010418 286.365423 
L 374.144906 286.219385 
L 374.279394 287.425874 
L 374.413883 286.922852 
L 374.682859 270.3637 
L 375.220812 180.971387 
L 375.489788 177.342376 
L 375.624277 177.565252 
L 375.893253 184.100239 
L 376.027741 188.395969 
L 376.565694 255.974605 
L 376.83467 264.864345 
L 376.969159 267.700643 
L 377.103647 279.51211 
L 377.238135 278.419207 
L 377.507112 280.491905 
L 377.6416 278.526111 
L 377.776088 282.065399 
L 378.045064 279.91825 
L 378.179553 270.277317 
L 378.314041 269.651642 
L 378.448529 262.551113 
L 378.583017 263.551907 
L 378.717505 262.634632 
L 378.851994 267.146079 
L 378.986482 266.385819 
L 379.12097 267.294026 
L 379.255458 269.453584 
L 379.389947 269.337134 
L 379.927899 278.591971 
L 380.062388 278.385322 
L 380.196876 278.801961 
L 380.331364 268.89186 
L 380.465852 269.570033 
L 380.869317 272.474578 
L 381.138293 261.577045 
L 381.272782 234.477822 
L 381.541758 159.871199 
L 381.810734 139.704512 
L 381.945223 141.296141 
L 382.214199 147.784359 
L 382.348687 139.792803 
L 382.752152 189.661159 
L 383.021128 257.679343 
L 383.155616 265.609333 
L 383.290105 266.271756 
L 383.424593 267.559377 
L 383.559081 262.629382 
L 383.693569 261.917325 
L 383.962546 262.263808 
L 384.097034 263.454548 
L 384.231522 261.670109 
L 384.36601 263.062725 
L 385.038451 148.847195 
L 385.17294 151.291193 
L 385.307428 166.431003 
L 385.576404 160.785133 
L 386.248845 260.52614 
L 386.921286 279.032951 
L 387.055775 278.217807 
L 387.190263 279.495883 
L 387.324751 278.804825 
L 387.459239 278.966136 
L 387.593727 280.456111 
L 387.728216 279.881502 
L 387.862704 281.199189 
L 387.997192 280.029449 
L 388.13168 281.620601 
L 388.266169 280.636034 
L 388.400657 278.649719 
L 388.535145 278.738964 
L 388.669633 278.076064 
L 388.804121 279.215737 
L 388.93861 276.663403 
L 389.207586 278.804825 
L 389.476562 285.49826 
L 389.611051 284.439241 
L 389.745539 285.256294 
L 389.880027 285.204274 
L 390.014515 270.29068 
L 390.283492 270.539805 
L 390.41798 270.549827 
L 390.552468 270.419061 
L 390.686956 264.915888 
L 390.821445 265.101061 
L 390.955933 256.24091 
L 391.224909 200.030376 
L 391.359397 168.623968 
L 391.493886 164.630338 
L 391.762862 175.334107 
L 391.89735 174.790041 
L 392.031839 167.5597 
L 392.166327 171.262685 
L 392.300815 180.251216 
L 392.569791 240.466835 
L 392.70428 266.780505 
L 392.973256 271.627936 
L 393.107744 272.286064 
L 393.376721 265.22276 
L 393.645697 270.946422 
L 393.780185 267.552219 
L 393.914673 268.938153 
L 394.049162 261.517866 
L 394.721603 146.794542 
L 394.990579 145.721683 
L 395.125067 145.301226 
L 395.259556 156.697484 
L 395.394044 157.568466 
L 395.931997 245.801538 
L 396.200973 259.425601 
L 396.335461 255.684914 
L 396.46995 280.483314 
L 396.604438 280.867023 
L 397.007902 283.905198 
L 397.276879 270.834746 
L 397.545855 197.048516 
L 397.680343 191.855556 
L 397.94932 168.45359 
L 398.083808 154.972702 
L 398.218296 167.729601 
L 398.352785 162.958053 
L 398.487273 165.973798 
L 398.487273 165.973798 
" clip-path="url(#pd8da37791f)" style="fill: none; stroke: #1f77b4; stroke-width: 1.5; stroke-linecap: square"/>
   </g>
   <g id="line2d_13">
    <path d="M 73.832727 280.632628 
L 73.967215 280.831794 
L 74.236192 280.035826 
L 74.37068 278.535883 
L 74.505168 279.646519 
L 74.639657 279.122875 
L 74.774145 279.597296 
L 74.908633 270.59259 
L 75.043121 232.132762 
L 75.177609 236.865561 
L 75.312098 245.56967 
L 75.446586 246.129982 
L 75.984539 250.327706 
L 76.388003 247.496642 
L 76.65698 281.023845 
L 76.791468 276.225281 
L 76.925956 275.878391 
L 77.060444 276.435513 
L 77.194933 262.496625 
L 77.463909 264.442211 
L 77.598397 263.21646 
L 77.732885 264.279429 
L 77.867374 253.199966 
L 78.001862 226.707935 
L 78.270838 128.2314 
L 78.405327 107.691192 
L 78.539815 108.301985 
L 78.674303 112.438957 
L 78.808791 101.101172 
L 78.943279 109.198432 
L 79.077768 109.592681 
L 79.346744 149.480583 
L 80.019185 255.275861 
L 80.288161 271.675128 
L 80.42265 260.819395 
L 80.557138 272.48368 
L 80.691626 271.571294 
L 81.095091 259.973815 
L 81.229579 239.770845 
L 81.498555 142.596086 
L 81.633044 166.945402 
L 81.767532 164.729233 
L 81.90202 148.726329 
L 82.036508 203.543372 
L 82.170996 208.358059 
L 82.305485 206.294826 
L 82.439973 209.527305 
L 82.574461 196.652788 
L 82.708949 221.763371 
L 82.977926 208.496566 
L 83.112414 214.93639 
L 83.246902 208.343901 
L 83.38139 208.317932 
L 83.784855 254.134863 
L 83.919343 285.101547 
L 84.053831 283.901341 
L 84.18832 281.420425 
L 84.322808 208.317775 
L 84.457296 225.472751 
L 84.591784 208.317775 
L 84.860761 208.317775 
L 84.995249 208.727883 
L 85.264225 168.503366 
L 85.936666 213.468914 
L 86.205643 259.635944 
L 86.474619 265.4656 
L 86.609107 267.77211 
L 86.743596 272.562676 
L 87.012572 289.913103 
L 87.14706 290.718807 
L 87.281549 287.653325 
L 87.416037 288.17166 
L 87.550525 287.80868 
L 87.685013 286.237256 
L 87.95399 249.572963 
L 88.088478 257.356083 
L 88.222966 255.90995 
L 88.491942 257.951172 
L 88.626431 253.351356 
L 88.760919 257.508966 
L 88.895407 250.088156 
L 89.298872 258.534458 
L 89.567848 279.504198 
L 89.702336 272.596155 
L 89.836825 277.347852 
L 89.971313 277.792587 
L 90.105801 258.393236 
L 90.240289 258.699961 
L 90.374777 263.03387 
L 90.509266 263.240685 
L 90.643754 258.774664 
L 90.91273 265.191101 
L 91.047218 259.690399 
L 91.181707 248.875519 
L 91.316195 251.091429 
L 91.450683 245.915182 
L 91.585171 251.827332 
L 91.854148 251.136919 
L 92.257612 256.914438 
L 92.392101 256.809332 
L 92.930053 269.428041 
L 93.064542 269.461306 
L 93.19903 267.910965 
L 93.333518 279.777913 
L 93.468006 279.207696 
L 93.736983 273.182649 
L 94.005959 262.509581 
L 94.140447 251.837022 
L 94.409424 165.757211 
L 94.543912 173.531839 
L 94.812888 157.937383 
L 94.947377 159.099588 
L 95.216353 173.52291 
L 95.48533 160.856277 
L 95.888794 253.655354 
L 96.023282 266.093949 
L 96.157771 267.810542 
L 96.292259 266.742131 
L 96.426747 270.007177 
L 96.561235 270.543363 
L 96.830212 264.820473 
L 96.9647 265.954168 
L 97.099188 263.303372 
L 97.233676 258.271344 
L 97.502653 210.805775 
L 97.637141 167.363831 
L 97.771629 175.007812 
L 97.906117 172.938206 
L 98.040606 184.314193 
L 98.175094 183.25147 
L 98.309582 180.396281 
L 98.44407 181.093243 
L 98.578558 184.925507 
L 98.982023 226.574002 
L 99.250999 268.574817 
L 99.519976 270.504093 
L 99.654464 275.149755 
L 99.788952 285.937271 
L 99.923441 284.922447 
L 100.192417 277.020307 
L 100.326905 277.2098 
L 100.73037 272.611321 
L 100.864858 276.657082 
L 100.999346 276.920882 
L 101.268323 284.50988 
L 101.402811 279.840887 
L 101.537299 269.895677 
L 101.671787 274.56213 
L 101.940764 264.060409 
L 102.20974 270.970113 
L 102.344228 271.760257 
L 102.478717 274.572739 
L 102.613205 280.061806 
L 102.747693 276.812428 
L 102.882181 283.036238 
L 103.151158 258.43972 
L 103.285646 268.164974 
L 103.420134 268.189876 
L 103.823599 246.919316 
L 104.227063 164.186643 
L 104.361552 153.985172 
L 104.49604 166.993844 
L 104.765016 142.438105 
L 105.437457 218.961195 
L 105.840922 261.389732 
L 105.97541 255.132301 
L 106.378875 289.35459 
L 106.647851 278.209276 
L 106.782339 279.611408 
L 107.051316 276.833572 
L 107.320292 217.116811 
L 107.589269 253.555826 
L 107.723757 250.135295 
L 107.858245 250.626996 
L 107.992733 253.160869 
L 108.127222 252.477857 
L 108.530686 244.106594 
L 108.665174 249.505397 
L 108.934151 281.552473 
L 109.203127 277.427656 
L 109.337615 277.565669 
L 109.472104 270.985557 
L 109.875568 272.964107 
L 110.144545 271.947139 
L 110.413521 272.198367 
L 110.682498 276.351683 
L 111.085962 273.779864 
L 111.22045 275.687442 
L 111.354939 275.167655 
L 111.758403 267.005834 
L 111.892891 268.725316 
L 112.161868 273.481417 
L 112.565333 273.166443 
L 112.699821 260.20803 
L 112.834309 261.434286 
L 112.968797 265.155733 
L 113.237774 265.494345 
L 113.372262 264.757593 
L 113.775726 270.59338 
L 113.910215 269.223949 
L 114.044703 269.646357 
L 114.179191 268.417848 
L 114.313679 262.378339 
L 114.448168 261.785924 
L 114.582656 262.169447 
L 114.717144 260.07433 
L 114.98612 250.493412 
L 115.120609 250.726226 
L 115.389585 261.43232 
L 115.524073 262.579842 
L 115.658561 262.662246 
L 115.79305 262.455329 
L 116.062026 259.956282 
L 116.196514 255.072939 
L 116.331002 262.504184 
L 116.599979 256.856522 
L 116.734467 237.96819 
L 117.003444 130.929738 
L 117.137932 90.900728 
L 117.27242 85.538447 
L 117.406908 88.952221 
L 117.541396 79.015583 
L 117.675885 79.045963 
L 117.810373 85.034763 
L 118.213837 147.453688 
L 118.617302 238.521623 
L 119.020767 254.756612 
L 119.155255 251.870329 
L 119.289743 253.308152 
L 119.55872 248.832651 
L 119.693208 250.497566 
L 119.827696 248.797007 
L 119.962184 229.369924 
L 120.231161 121.617865 
L 120.500137 98.275835 
L 120.769114 90.657683 
L 120.903602 88.88492 
L 121.03809 89.604892 
L 121.172578 95.620734 
L 121.576043 177.384692 
L 121.710531 228.951717 
L 122.113996 246.863541 
L 122.248484 244.565777 
L 122.382972 246.193801 
L 122.51746 258.173846 
L 122.651948 258.679488 
L 122.920925 249.55772 
L 123.055413 245.041927 
L 123.189901 228.699308 
L 123.458878 121.39122 
L 123.727854 81.400842 
L 123.862342 83.799462 
L 123.996831 83.17312 
L 124.131319 89.280609 
L 124.400295 115.509371 
L 124.534783 121.187552 
L 124.669272 138.850227 
L 125.072736 239.408887 
L 125.207225 255.810206 
L 125.476201 258.209992 
L 125.610689 253.936413 
L 125.879666 268.832868 
L 126.148642 261.663321 
L 126.417618 233.220526 
L 126.686595 132.534004 
L 126.955571 95.843294 
L 127.09006 91.075049 
L 127.493524 111.342148 
L 127.628012 114.561198 
L 128.031477 186.491229 
L 128.300453 246.239376 
L 128.56943 256.692249 
L 128.703918 255.462571 
L 128.838406 259.746638 
L 129.107383 257.107568 
L 129.241871 259.777909 
L 129.376359 258.983938 
L 129.645336 216.965378 
L 130.0488 91.85032 
L 130.183288 91.972895 
L 130.317777 91.142785 
L 130.452265 94.449979 
L 130.586753 120.751974 
L 130.721241 118.851402 
L 130.855729 115.273854 
L 131.124706 168.852427 
L 131.393682 238.168942 
L 131.662659 258.409038 
L 131.797147 260.089487 
L 131.931635 264.359833 
L 132.200612 258.320701 
L 132.3351 261.828757 
L 132.469588 270.479605 
L 132.873053 264.621305 
L 133.142029 246.125539 
L 133.411005 238.758109 
L 133.679982 237.438524 
L 133.948958 240.168808 
L 134.083447 235.6478 
L 134.755888 256.072897 
L 134.890376 257.158308 
L 135.024864 256.050313 
L 135.29384 261.153935 
L 135.562817 261.977729 
L 135.831793 264.33609 
L 135.966282 269.47898 
L 136.10077 269.318369 
L 136.235258 263.709359 
L 136.504234 267.943958 
L 136.638723 264.267403 
L 136.773211 266.155693 
L 136.907699 266.120495 
L 137.042187 265.49092 
L 137.445652 253.148969 
L 137.58014 256.050691 
L 137.714628 254.427076 
L 138.118093 262.43786 
L 138.387069 260.192644 
L 138.521558 264.12339 
L 138.790534 256.123725 
L 139.05951 260.775901 
L 139.328487 226.55854 
L 139.597463 124.689824 
L 139.731951 90.645766 
L 140.000928 94.228563 
L 140.135416 93.163501 
L 140.404393 104.667794 
L 140.942345 179.610391 
L 141.211322 250.42575 
L 141.34581 247.794028 
L 141.614786 265.470292 
L 141.749275 261.619023 
L 141.883763 264.023544 
L 142.287228 256.8135 
L 142.690692 159.367347 
L 142.959669 92.843096 
L 143.094157 98.722221 
L 143.363133 90.970694 
L 143.497621 99.08943 
L 143.63211 95.113483 
L 143.766598 102.81066 
L 144.304551 237.561585 
L 144.439039 241.516474 
L 144.842504 269.728657 
L 145.11148 260.534175 
L 145.245968 260.359638 
L 145.380456 261.729032 
L 145.514945 252.652094 
L 146.321874 91.445304 
L 146.59085 108.767682 
L 146.725339 115.165714 
L 146.859827 112.911935 
L 147.263291 152.355872 
L 147.532268 244.180211 
L 147.801244 254.534124 
L 148.070221 265.629226 
L 148.339197 264.602947 
L 148.87715 255.631598 
L 149.011638 225.298925 
L 149.280615 130.267928 
L 149.415103 106.749425 
L 149.549591 117.845644 
L 149.818567 101.837522 
L 150.222032 146.932431 
L 150.35652 145.982123 
L 150.491009 157.387856 
L 150.759985 244.702261 
L 150.894473 248.258562 
L 151.16345 263.9985 
L 151.297938 265.250667 
L 151.432426 262.226121 
L 151.566914 262.454697 
L 151.701402 263.892118 
L 151.970379 262.303191 
L 152.104867 258.208251 
L 152.64282 100.200442 
L 152.777308 119.632416 
L 153.046285 96.152074 
L 153.315261 114.819677 
L 153.584237 175.560138 
L 153.718726 189.264696 
L 154.12219 261.225303 
L 154.256678 268.807258 
L 154.391167 267.673712 
L 154.525655 272.872684 
L 154.660143 271.792477 
L 154.794631 271.999117 
L 154.92912 271.488332 
L 155.063608 271.739642 
L 155.332584 275.383411 
L 155.467072 273.617279 
L 155.601561 266.167266 
L 155.736049 251.285495 
L 156.139513 260.593617 
L 156.274002 260.652456 
L 156.40849 259.486699 
L 156.542978 260.203761 
L 156.677466 262.697811 
L 156.811955 261.692993 
L 157.215419 267.427308 
L 157.484396 271.343665 
L 157.753372 269.663583 
L 158.022348 271.890491 
L 158.156837 271.202989 
L 158.291325 271.494023 
L 158.694789 278.159477 
L 158.829278 274.419336 
L 159.098254 277.326848 
L 159.232742 275.063388 
L 159.367231 275.843817 
L 159.501719 278.40777 
L 159.636207 276.869711 
L 160.039672 264.317257 
L 160.17416 260.864547 
L 160.443136 264.004799 
L 160.577624 269.701838 
L 160.712113 269.161044 
L 160.981089 265.17157 
L 161.115577 265.739927 
L 161.250066 268.227703 
L 161.384554 267.234543 
L 161.65353 263.583694 
L 161.922507 230.732761 
L 162.325971 104.213202 
L 162.460459 85.847204 
L 162.594948 91.786131 
L 162.729436 92.607037 
L 162.863924 88.364172 
L 163.132901 119.60802 
L 163.267389 130.356918 
L 163.805342 246.757372 
L 163.93983 245.770769 
L 164.208806 263.66716 
L 164.343294 259.664997 
L 164.477783 269.841322 
L 164.612271 269.9775 
L 164.746759 269.519856 
L 165.150224 225.552312 
L 165.553688 110.228579 
L 165.688177 124.989791 
L 165.957153 104.38195 
L 166.091641 117.226031 
L 166.226129 115.648322 
L 166.360618 111.547422 
L 166.495106 118.371878 
L 166.629594 137.16736 
L 166.89857 241.466221 
L 167.033059 242.304374 
L 167.167547 239.913862 
L 167.436523 256.474101 
L 167.571012 255.092636 
L 167.839988 261.37373 
L 167.974476 260.755621 
L 168.108964 259.307275 
L 168.243453 246.648086 
L 168.377941 220.811533 
L 168.781405 97.728478 
L 168.915894 109.462636 
L 169.18487 97.426092 
L 169.319358 106.743589 
L 169.453847 96.935906 
L 169.588335 104.830006 
L 169.857311 165.782068 
L 169.991799 185.035432 
L 170.260776 250.920151 
L 170.66424 263.387698 
L 170.798729 263.075648 
L 171.067705 259.225852 
L 171.202193 259.257389 
L 171.336681 262.453028 
L 171.740146 173.870486 
L 172.009123 102.576081 
L 172.278099 112.7087 
L 172.547075 94.760786 
L 173.085028 157.331988 
L 173.488493 248.795509 
L 173.757469 262.200374 
L 174.026446 282.980922 
L 174.160934 279.066312 
L 174.42991 271.979042 
L 174.564399 272.54734 
L 174.967863 213.199696 
L 175.102351 167.81886 
L 175.505816 141.706712 
L 175.640304 142.373095 
L 175.774792 154.051422 
L 175.909281 154.445024 
L 176.043769 155.830432 
L 176.447234 200.462714 
L 176.71621 256.20855 
L 176.850698 258.907548 
L 176.985186 267.215286 
L 177.119675 267.861701 
L 177.254163 266.678587 
L 177.388651 268.345074 
L 177.523139 267.121612 
L 177.926604 272.453009 
L 178.061092 272.37681 
L 178.330069 256.111367 
L 178.464557 260.087037 
L 178.599045 254.427115 
L 178.868021 256.886099 
L 179.00251 259.878932 
L 179.271486 256.419641 
L 179.405974 256.724509 
L 179.540462 255.19553 
L 179.674951 255.667473 
L 180.078415 270.746012 
L 180.347392 267.417843 
L 180.616368 277.513945 
L 180.885345 273.899963 
L 181.019833 274.397142 
L 181.154321 274.029994 
L 181.557786 261.679868 
L 181.692274 264.215461 
L 181.826762 263.813579 
L 181.96125 266.007583 
L 182.095738 260.38545 
L 182.230227 262.361798 
L 182.499203 270.233632 
L 182.633691 270.792948 
L 182.76818 273.726568 
L 183.037156 272.554416 
L 183.171644 277.343113 
L 183.306132 278.108971 
L 183.440621 277.77632 
L 183.575109 279.336228 
L 183.709597 273.632409 
L 183.978573 290.619648 
L 184.113062 286.830097 
L 184.516526 255.358528 
L 184.785503 181.685982 
L 184.919991 182.748296 
L 185.054479 173.153671 
L 185.188967 182.972166 
L 185.323456 181.33217 
L 185.457944 181.688683 
L 185.861408 208.520821 
L 185.995897 219.41676 
L 186.264873 257.287838 
L 186.668338 270.931887 
L 187.071802 294.311504 
L 187.206291 294.235265 
L 187.475267 285.678433 
L 187.609755 278.94709 
L 187.744243 262.008005 
L 188.01322 180.341974 
L 188.147708 185.235749 
L 188.282196 177.785349 
L 188.551173 186.43255 
L 188.685661 187.66524 
L 188.820149 197.475018 
L 188.954637 196.43254 
L 189.223614 220.305248 
L 189.627078 268.806014 
L 189.761567 268.462022 
L 189.896055 269.243826 
L 190.030543 277.222203 
L 190.299519 269.533589 
L 190.434008 268.860558 
L 190.568496 265.079721 
L 190.702984 264.480623 
L 190.971961 265.950066 
L 191.106449 264.483126 
L 191.240937 258.366292 
L 191.375425 261.9372 
L 191.509913 269.064208 
L 191.644402 264.485596 
L 191.913378 267.806406 
L 192.316843 260.662449 
L 192.720307 265.968393 
L 192.854796 272.673722 
L 192.989284 272.856363 
L 193.123772 271.700828 
L 193.392748 265.518 
L 193.527237 262.791523 
L 193.796213 264.653116 
L 193.930701 263.48808 
L 194.199678 245.967187 
L 194.468654 169.117646 
L 194.603142 164.531599 
L 194.73763 151.562588 
L 194.872119 152.048682 
L 195.006607 146.026083 
L 195.141095 145.920661 
L 195.275583 155.491586 
L 195.410072 149.115234 
L 195.679048 180.962537 
L 195.948024 242.879652 
L 196.217001 263.342135 
L 196.351489 260.365 
L 196.485977 265.695045 
L 196.620465 275.568619 
L 197.02393 265.942415 
L 197.158418 266.536338 
L 197.292907 262.246858 
L 197.427395 249.083531 
L 197.696371 174.615008 
L 197.830859 179.018303 
L 198.099836 195.093366 
L 198.234324 194.707859 
L 198.368812 199.716735 
L 198.637789 191.990112 
L 198.906765 218.568656 
L 199.31023 274.482965 
L 199.579206 275.566507 
L 199.848183 281.228678 
L 200.117159 278.424894 
L 200.251647 278.444465 
L 200.386135 275.802042 
L 200.520624 266.863263 
L 200.655112 266.351173 
L 200.7896 247.761229 
L 200.924088 185.178664 
L 201.193065 194.386748 
L 201.327553 194.232007 
L 201.462041 195.859445 
L 201.596529 199.880503 
L 201.731018 192.506424 
L 201.865506 191.840552 
L 202.134482 218.530141 
L 202.26897 230.692878 
L 202.537947 270.787604 
L 202.672435 267.877091 
L 202.806923 269.876971 
L 202.941411 275.299471 
L 203.210388 262.512289 
L 203.344876 267.925508 
L 203.479364 268.6783 
L 203.882829 253.282979 
L 204.017317 228.77155 
L 204.286294 160.67738 
L 204.420782 159.688321 
L 204.55527 161.516075 
L 204.689758 160.881164 
L 204.824246 166.459497 
L 204.958735 164.131355 
L 205.227711 193.769634 
L 205.900152 263.263222 
L 206.03464 260.918431 
L 206.169129 267.566661 
L 206.303617 286.121336 
L 206.438105 285.249099 
L 206.572593 282.326536 
L 206.707081 282.472906 
L 206.84157 281.736835 
L 206.976058 279.890769 
L 207.379522 254.002847 
L 207.514011 256.463148 
L 208.051964 275.512421 
L 208.186452 275.34346 
L 208.455428 266.652225 
L 208.724405 270.261905 
L 208.993381 280.014379 
L 209.127869 282.06673 
L 209.396846 281.477782 
L 209.531334 270.93614 
L 209.665822 270.837965 
L 209.80031 270.536199 
L 209.934799 269.208122 
L 210.069287 269.459854 
L 210.472751 199.168988 
L 210.741728 151.381919 
L 210.876216 127.826221 
L 211.010704 123.802176 
L 211.145192 112.318022 
L 211.817634 190.750218 
L 212.221098 259.35781 
L 212.355586 261.18158 
L 212.490075 258.601997 
L 212.759051 272.228384 
L 212.893539 274.818796 
L 213.162516 267.246889 
L 213.297004 269.936395 
L 213.56598 232.864629 
L 213.834957 135.887744 
L 213.969445 121.004478 
L 214.103933 143.360279 
L 214.37291 133.721513 
L 214.641886 160.890763 
L 214.910862 190.497108 
L 215.045351 198.123538 
L 215.448815 269.147865 
L 215.583303 263.532316 
L 215.85228 268.815141 
L 215.986768 268.538491 
L 216.121256 269.146386 
L 216.390233 265.944028 
L 216.524721 268.286256 
L 216.659209 259.347713 
L 216.793697 242.585321 
L 217.062674 146.153169 
L 217.197162 135.308129 
L 217.33165 151.00429 
L 217.466138 150.30024 
L 217.600627 155.864663 
L 217.735115 155.966682 
L 217.869603 145.638362 
L 218.004091 159.80393 
L 218.273068 210.30793 
L 218.407556 218.907092 
L 218.676532 267.749288 
L 218.811021 267.438704 
L 218.945509 273.067151 
L 219.079997 266.582799 
L 219.214485 265.846711 
L 219.483462 272.068943 
L 219.752438 274.025983 
L 220.021414 242.945425 
L 220.290391 143.558482 
L 220.424879 147.386888 
L 220.559367 158.833232 
L 220.828344 147.897574 
L 220.962832 160.420051 
L 221.09732 159.272404 
L 221.366297 202.017608 
L 221.500785 206.101416 
L 221.635273 219.028368 
L 221.904249 267.985416 
L 222.038738 266.021121 
L 222.307714 273.60664 
L 222.442202 272.112689 
L 222.711179 277.624129 
L 222.845667 277.771903 
L 222.980155 278.529673 
L 223.114643 275.317716 
L 223.249132 277.266987 
L 223.518108 248.556754 
L 223.787084 263.520777 
L 224.056061 257.3995 
L 224.190549 257.582805 
L 224.325037 257.506841 
L 224.459525 260.767174 
L 224.594014 260.693992 
L 224.86299 256.447705 
L 225.131967 263.812422 
L 225.266455 264.291574 
L 225.400943 262.423952 
L 225.535431 263.826327 
L 225.669919 263.079632 
L 225.804408 260.013998 
L 226.207872 268.698533 
L 226.34236 269.032379 
L 226.476849 270.040654 
L 226.880313 267.9876 
L 227.14929 273.159998 
L 227.283778 273.709462 
L 227.418266 271.980841 
L 227.687243 274.586943 
L 227.956219 272.329265 
L 228.090707 272.418999 
L 228.225195 278.864652 
L 228.494172 278.092575 
L 228.62866 276.972678 
L 228.763148 278.959075 
L 228.897637 277.986141 
L 229.166613 271.308852 
L 229.301101 271.625272 
L 229.435589 270.360615 
L 229.570078 257.176182 
L 229.704566 229.553115 
L 229.973542 132.935211 
L 230.242519 99.124784 
L 230.511495 83.564615 
L 230.780471 124.962964 
L 230.91496 121.583989 
L 231.318424 207.306223 
L 231.587401 255.840821 
L 231.721889 256.678055 
L 232.125354 271.071716 
L 232.259842 269.749333 
L 232.39433 270.425649 
L 232.528818 271.686151 
L 232.663306 267.707014 
L 232.932283 231.941387 
L 233.201259 139.990194 
L 233.335748 119.538609 
L 233.470236 123.680369 
L 233.604724 136.696496 
L 233.739212 132.040191 
L 233.8737 140.763169 
L 234.008189 133.904635 
L 234.142677 143.021999 
L 234.411653 200.912206 
L 234.546141 213.704799 
L 234.815118 267.551269 
L 235.084094 264.558807 
L 235.218583 272.422055 
L 235.353071 272.321251 
L 235.487559 274.376894 
L 235.622047 278.904663 
L 235.891024 271.242537 
L 236.16 243.818997 
L 236.428976 138.753463 
L 236.563465 120.535957 
L 236.697953 128.574186 
L 236.832441 125.770596 
L 236.966929 111.502069 
L 237.101417 124.224606 
L 237.235906 151.465714 
L 237.370394 154.201345 
L 237.504882 167.953548 
L 237.908347 254.176416 
L 238.042835 268.398046 
L 238.177323 267.025696 
L 238.311811 267.555837 
L 238.4463 272.665396 
L 238.580788 272.624458 
L 238.715276 273.779586 
L 238.984252 282.353511 
L 239.118741 277.515756 
L 239.253229 267.024716 
L 239.387717 238.669289 
L 239.656694 143.394984 
L 239.92567 123.930519 
L 240.060158 135.667841 
L 240.194646 132.928265 
L 240.329135 138.163178 
L 240.598111 171.307964 
L 240.867087 197.845543 
L 241.270552 258.396355 
L 241.674017 264.664423 
L 241.808505 262.133897 
L 241.942993 275.204018 
L 242.077481 277.002481 
L 242.21197 283.344572 
L 242.346458 279.460134 
L 242.615434 239.316354 
L 242.884411 144.347267 
L 243.018899 136.900957 
L 243.153387 161.510929 
L 243.422363 138.829243 
L 243.960316 185.183438 
L 244.229293 239.778632 
L 244.498269 263.442806 
L 245.17071 275.279757 
L 245.439687 274.095011 
L 245.708663 270.27664 
L 245.843151 252.102508 
L 246.112128 262.592885 
L 246.246616 260.877158 
L 246.381104 262.182732 
L 246.515592 260.78804 
L 246.650081 262.291811 
L 247.053545 271.619261 
L 247.188033 271.400006 
L 247.322522 273.408918 
L 247.591498 274.002516 
L 247.725986 273.139634 
L 247.860475 275.196115 
L 247.994963 272.970433 
L 248.263939 274.636988 
L 248.532916 273.209738 
L 248.667404 272.022177 
L 248.801892 273.941756 
L 249.205357 271.946114 
L 249.608821 278.153529 
L 249.743309 277.467267 
L 250.012286 279.104765 
L 250.684727 274.051498 
L 250.953703 274.475796 
L 251.088192 274.604863 
L 251.22268 273.063079 
L 251.357168 275.6347 
L 251.491656 275.094018 
L 251.626144 286.775694 
L 251.760633 285.048789 
L 252.029609 279.118679 
L 252.298586 252.470082 
L 252.567562 149.904702 
L 252.70205 131.344424 
L 252.836538 140.19789 
L 252.971027 160.577303 
L 253.105515 152.218172 
L 253.374491 169.670747 
L 253.777956 210.074123 
L 254.181421 266.91537 
L 254.450397 275.660147 
L 254.584885 283.434166 
L 254.719373 283.732681 
L 254.853862 287.581179 
L 254.98835 285.59305 
L 255.122838 285.919057 
L 255.257326 285.064176 
L 255.526303 241.393826 
L 255.795279 151.977464 
L 256.064255 171.420469 
L 256.333232 156.088036 
L 256.736697 169.650672 
L 257.140161 229.674786 
L 257.409138 257.41228 
L 257.543626 262.998906 
L 257.678114 262.807311 
L 257.812602 267.161452 
L 257.94709 266.005611 
L 258.216067 284.699804 
L 258.350555 282.593919 
L 258.485043 277.586981 
L 258.75402 246.660387 
L 259.022996 151.853924 
L 259.291973 166.622287 
L 259.426461 161.906647 
L 259.560949 149.633341 
L 259.695437 155.218148 
L 259.829925 173.461031 
L 259.964414 160.097223 
L 260.098902 175.603512 
L 260.502366 244.710215 
L 260.636855 257.217568 
L 260.771343 259.294774 
L 261.040319 266.279857 
L 261.174808 263.315463 
L 261.309296 269.299921 
L 261.443784 269.529797 
L 261.578272 271.134348 
L 261.847249 260.859879 
L 261.981737 236.279063 
L 262.250713 149.199315 
L 262.51969 163.337504 
L 262.654178 144.975759 
L 262.788666 146.125859 
L 262.923154 155.169014 
L 263.057643 152.148231 
L 263.730084 238.090133 
L 263.99906 254.227735 
L 264.268036 260.561687 
L 264.402525 267.246293 
L 264.537013 262.923079 
L 264.671501 262.503489 
L 264.940478 258.588794 
L 265.074966 255.237108 
L 265.209454 238.979826 
L 265.747407 111.326356 
L 265.881895 112.763889 
L 266.016383 106.740542 
L 266.28536 121.394573 
L 266.419848 121.201825 
L 266.688824 164.369363 
L 267.092289 253.839202 
L 267.226777 252.68825 
L 267.361265 254.379371 
L 267.495754 258.818633 
L 267.630242 271.84732 
L 267.899218 268.845218 
L 268.033706 267.180092 
L 268.302683 274.675237 
L 268.437171 274.780282 
L 268.571659 269.041582 
L 268.706147 271.531185 
L 268.840636 276.155228 
L 269.109612 273.275596 
L 269.378589 273.327316 
L 269.916541 259.823184 
L 270.05103 258.568603 
L 270.320006 261.483139 
L 270.454494 262.246061 
L 270.723471 266.76009 
L 270.857959 280.145858 
L 270.992447 281.010389 
L 271.126935 275.515714 
L 271.261424 274.825507 
L 271.395912 274.801635 
L 271.5304 274.182116 
L 271.799376 275.865166 
L 271.933865 278.713284 
L 272.068353 278.167603 
L 272.202841 280.383405 
L 272.337329 278.881452 
L 272.471817 280.683166 
L 272.606306 280.294967 
L 272.740794 277.729494 
L 272.875282 279.488133 
L 273.00977 279.59455 
L 273.278747 275.054643 
L 273.413235 275.16745 
L 273.682211 277.393039 
L 273.8167 276.400045 
L 273.951188 278.399556 
L 274.085676 276.704067 
L 274.220164 291.86329 
L 274.354652 293.477224 
L 274.489141 291.56919 
L 274.623629 286.606147 
L 274.892605 256.422756 
L 275.161582 184.4827 
L 275.430558 153.55833 
L 275.565046 156.602364 
L 275.699535 151.020132 
L 275.834023 153.549716 
L 276.102999 182.74474 
L 276.237487 194.781399 
L 276.506464 237.403188 
L 276.909928 268.627087 
L 277.044417 269.489683 
L 277.178905 277.033496 
L 277.313393 274.742703 
L 277.447881 281.385116 
L 277.58237 281.428074 
L 277.716858 284.266566 
L 277.851346 282.983866 
L 277.985834 275.985081 
L 278.120322 260.798274 
L 278.389299 196.176865 
L 278.523787 191.438259 
L 278.658275 179.760895 
L 278.792763 184.387684 
L 278.927252 178.868086 
L 279.06174 193.250094 
L 279.196228 193.714639 
L 279.330716 196.942828 
L 280.003157 270.422812 
L 280.137646 271.409295 
L 280.272134 273.375296 
L 280.406622 279.825042 
L 280.675598 263.518369 
L 280.944575 264.827415 
L 281.079063 263.108188 
L 281.348039 245.093797 
L 281.751504 138.289254 
L 281.885992 122.919954 
L 282.289457 141.757459 
L 282.423945 124.527505 
L 282.558433 131.918104 
L 283.230874 263.402632 
L 283.365363 261.277167 
L 283.499851 262.691779 
L 283.634339 265.85687 
L 284.037804 257.243762 
L 284.172292 257.669203 
L 284.30678 255.877598 
L 284.575757 242.057378 
L 284.979221 151.39555 
L 285.113709 155.678963 
L 285.382686 138.559042 
L 285.517174 137.04127 
L 285.78615 152.833525 
L 285.920639 158.490225 
L 286.324103 249.094095 
L 286.458592 259.15281 
L 286.862056 263.416603 
L 286.996544 285.709696 
L 287.131033 284.92092 
L 287.400009 274.791103 
L 287.668985 269.47518 
L 287.937962 261.365377 
L 288.341427 271.23053 
L 288.475915 271.199228 
L 288.610403 269.645209 
L 288.879379 271.126958 
L 289.148356 276.645386 
L 289.282844 270.934539 
L 289.55182 281.03554 
L 289.686309 280.910933 
L 289.955285 278.959925 
L 290.224262 274.907501 
L 290.35875 276.42604 
L 290.493238 275.257119 
L 290.627726 275.907994 
L 290.762214 273.391199 
L 291.165679 245.387006 
L 291.434655 176.681312 
L 291.83812 193.236876 
L 292.107096 176.73682 
L 292.510561 213.277884 
L 292.914026 266.93033 
L 293.048514 265.939405 
L 293.183002 267.488082 
L 293.31749 272.167896 
L 293.586467 268.349225 
L 293.720955 266.359755 
L 293.855443 268.853349 
L 293.989931 268.715004 
L 294.258908 252.642309 
L 294.393396 230.152598 
L 294.662373 171.380599 
L 295.065837 142.206998 
L 295.200325 140.357769 
L 295.334814 149.596188 
L 295.469302 149.143108 
L 295.738278 201.528198 
L 295.872766 211.185807 
L 296.141743 263.145902 
L 296.410719 255.885744 
L 296.545208 266.214073 
L 296.679696 287.958779 
L 296.814184 287.859448 
L 297.08316 281.514934 
L 297.352137 280.799089 
L 297.621113 274.611728 
L 297.89009 282.130686 
L 298.293554 273.882329 
L 298.428042 273.634432 
L 298.562531 272.773799 
L 298.697019 270.107335 
L 299.100484 276.293028 
L 299.234972 277.269294 
L 299.503948 280.76477 
L 299.638436 278.932638 
L 299.772925 280.289725 
L 299.907413 265.565517 
L 300.041901 268.103742 
L 300.176389 268.530901 
L 300.310877 268.448492 
L 300.445366 266.044513 
L 300.714342 239.487294 
L 301.117807 147.67887 
L 301.386783 127.438735 
L 301.521271 128.288215 
L 301.65576 139.496796 
L 301.790248 132.027219 
L 301.924736 146.259885 
L 302.193712 200.174768 
L 302.328201 213.398872 
L 302.597177 256.774023 
L 302.731665 258.627594 
L 302.866153 257.210374 
L 303.13513 270.469276 
L 303.404106 263.421317 
L 303.538595 265.027719 
L 303.673083 263.950575 
L 304.076547 193.335683 
L 304.211036 158.247224 
L 304.480012 160.546709 
L 304.748988 152.411 
L 304.883477 160.15934 
L 305.017965 154.290042 
L 305.152453 162.426092 
L 305.42143 212.19802 
L 305.555918 221.004339 
L 305.824894 258.953385 
L 305.959382 264.206274 
L 306.093871 263.587361 
L 306.228359 267.657544 
L 306.362847 267.090214 
L 306.497335 277.190419 
L 306.631823 277.899586 
L 306.9008 272.068888 
L 307.035288 261.744455 
L 307.169776 236.784447 
L 307.438753 151.059582 
L 307.707729 171.643749 
L 307.976706 157.17929 
L 308.111194 163.258807 
L 308.245682 155.047737 
L 308.38017 163.351254 
L 308.918123 247.440141 
L 309.187099 268.258511 
L 309.321588 267.526492 
L 309.456076 275.085375 
L 309.590564 274.865015 
L 309.725052 276.544533 
L 310.128517 271.452032 
L 310.263005 262.713044 
L 310.397493 235.074938 
L 310.66647 150.776574 
L 310.800958 155.459703 
L 310.935446 170.8657 
L 311.204423 157.845833 
L 311.338911 162.300011 
L 311.473399 160.552399 
L 311.607887 160.71561 
L 312.14584 248.922807 
L 312.280328 263.277679 
L 312.414817 264.544707 
L 312.549305 263.720671 
L 312.683793 270.209016 
L 312.952769 272.572532 
L 313.087258 270.216692 
L 313.221746 270.961398 
L 313.356234 269.922625 
L 313.490722 270.942034 
L 313.894187 246.529166 
L 314.028675 256.949376 
L 314.163163 257.196691 
L 314.297652 258.984401 
L 314.43214 257.54392 
L 314.701116 265.103666 
L 314.835604 264.58349 
L 315.104581 270.618894 
L 315.373557 269.272949 
L 315.508045 272.064069 
L 315.642534 272.279948 
L 315.777022 271.89366 
L 315.91151 270.334948 
L 316.045998 271.13517 
L 316.180487 270.848678 
L 316.314975 271.574334 
L 316.449463 269.977648 
L 316.583951 270.394397 
L 316.718439 270.252481 
L 316.987416 269.717033 
L 317.121904 270.59225 
L 317.39088 273.002095 
L 317.525369 273.954535 
L 317.659857 273.435698 
L 317.794345 275.213109 
L 318.063322 271.982953 
L 318.332298 269.873291 
L 318.466786 268.324558 
L 318.601274 269.727579 
L 318.735763 269.821591 
L 318.870251 270.925311 
L 319.004739 270.411186 
L 319.273715 267.838763 
L 319.408204 280.999094 
L 319.542692 281.086206 
L 319.946157 268.449136 
L 320.080645 248.70354 
L 320.349621 151.157999 
L 320.484109 130.356918 
L 320.618598 126.884826 
L 320.753086 142.455658 
L 320.887574 144.150569 
L 321.022062 148.679786 
L 321.291039 174.597307 
L 321.694503 220.517497 
L 321.96348 264.927951 
L 322.097968 264.806902 
L 322.232456 264.339289 
L 322.366944 270.366438 
L 322.501433 269.73738 
L 322.635921 281.923668 
L 322.770409 282.593695 
L 323.039385 275.23761 
L 323.308362 247.49214 
L 323.577338 152.576607 
L 323.711826 158.042684 
L 323.846315 175.363952 
L 324.115291 152.983948 
L 324.249779 155.961975 
L 324.384268 155.993105 
L 324.518756 162.470003 
L 324.787732 206.346076 
L 324.92222 218.031181 
L 325.191197 264.158807 
L 325.460173 261.797377 
L 325.594661 268.676758 
L 325.72915 269.019286 
L 325.998126 280.754869 
L 326.132614 279.935356 
L 326.267103 276.617416 
L 326.401591 267.887324 
L 326.536079 244.347176 
L 326.805055 149.312297 
L 326.939544 156.203166 
L 327.074032 176.416834 
L 327.20852 159.737783 
L 327.343008 158.910282 
L 327.477496 167.594075 
L 327.611985 164.685459 
L 327.746473 166.886479 
L 327.880961 182.135836 
L 328.149937 228.775448 
L 328.553402 261.875313 
L 328.68789 263.884226 
L 328.822379 272.990983 
L 328.956867 273.122391 
L 329.091355 284.715041 
L 329.225843 283.401793 
L 329.49482 275.297779 
L 329.763796 243.783049 
L 330.032772 162.31853 
L 330.167261 162.498757 
L 330.301749 172.582038 
L 330.570725 161.01675 
L 330.705214 158.201109 
L 331.108678 191.573084 
L 331.243166 200.590793 
L 331.646631 260.428945 
L 331.781119 262.747285 
L 331.915607 261.789572 
L 332.184584 269.403577 
L 332.319072 282.667328 
L 332.45356 282.397956 
L 332.857025 262.742823 
L 332.991513 242.883771 
L 333.26049 158.277882 
L 333.394978 161.928053 
L 333.529466 180.707865 
L 333.663954 166.089573 
L 333.798442 163.951189 
L 334.067419 168.257173 
L 334.470883 206.956134 
L 334.73986 258.946271 
L 334.874348 265.587379 
L 335.008836 266.010327 
L 335.143325 267.723067 
L 335.277813 274.971633 
L 335.681277 269.85662 
L 335.815766 268.815851 
L 336.084742 270.834421 
L 336.353718 256.901152 
L 336.488207 257.492155 
L 336.622695 256.569693 
L 336.757183 254.62473 
L 336.891671 256.653954 
L 337.02616 256.249085 
L 337.429624 263.63287 
L 337.833089 268.593155 
L 337.967577 267.918607 
L 338.102065 270.389932 
L 338.236553 270.702814 
L 338.371042 269.331574 
L 338.50553 271.096824 
L 338.640018 267.764764 
L 338.774506 267.629536 
L 338.908995 268.028096 
L 339.043483 267.630675 
L 339.177971 267.71551 
L 339.312459 268.494495 
L 339.446947 265.979082 
L 339.581436 266.349795 
L 339.850412 270.373907 
L 339.9849 270.494181 
L 340.119388 269.145479 
L 340.253877 271.262608 
L 340.388365 270.547887 
L 340.522853 273.987764 
L 340.657341 272.28304 
L 340.926318 272.617581 
L 341.060806 272.272563 
L 341.195294 268.848667 
L 341.464271 273.144516 
L 341.598759 271.659878 
L 341.867735 274.305551 
L 342.002223 284.646445 
L 342.136712 284.472108 
L 342.405688 279.478847 
L 342.674664 247.376261 
L 342.943641 150.916484 
L 343.078129 135.978821 
L 343.212617 164.850739 
L 343.347106 168.995199 
L 343.481594 163.759551 
L 343.75057 174.275534 
L 344.154035 211.50903 
L 344.423011 258.073318 
L 344.557499 262.492252 
L 344.691988 261.713194 
L 344.826476 264.516082 
L 344.960964 272.037495 
L 345.095452 272.317119 
L 345.22994 281.53285 
L 345.364429 281.674488 
L 345.498917 281.406634 
L 345.633405 278.775875 
L 345.767893 269.036267 
L 345.902382 245.590787 
L 346.171358 159.175602 
L 346.440334 178.309146 
L 346.709311 169.488826 
L 346.843799 169.588394 
L 346.978287 172.144767 
L 347.247264 195.052096 
L 347.785217 261.217054 
L 348.054193 263.909416 
L 348.188681 272.205075 
L 348.323169 271.780444 
L 348.457658 281.794859 
L 348.592146 281.927053 
L 348.726634 281.807797 
L 348.861122 279.293316 
L 349.130099 245.443407 
L 349.399075 159.138969 
L 349.533563 168.672439 
L 349.668052 169.229948 
L 349.937028 163.259493 
L 350.206004 168.902668 
L 350.474981 195.544774 
L 350.743957 237.299278 
L 351.012934 261.606641 
L 351.147422 266.74285 
L 351.28191 265.116658 
L 351.685375 285.020035 
L 352.088839 276.429982 
L 352.223328 271.321191 
L 352.357816 251.665358 
L 352.626792 158.24734 
L 352.895769 175.11978 
L 353.164745 166.260286 
L 353.299233 170.215685 
L 353.56821 165.376142 
L 353.702698 165.831798 
L 354.106163 254.00656 
L 354.240651 269.485588 
L 354.375139 271.842882 
L 354.509627 268.959391 
L 354.913092 281.368629 
L 355.182068 278.726203 
L 355.316556 277.063144 
L 355.451045 269.75151 
L 355.585533 246.463929 
L 355.854509 182.593733 
L 355.988998 182.127608 
L 356.257974 158.42624 
L 356.52695 165.137373 
L 356.661439 164.522912 
L 357.468368 273.950403 
L 357.602856 273.350691 
L 357.737344 273.503604 
L 358.006321 280.580221 
L 358.275297 277.967959 
L 358.409785 277.953301 
L 358.544274 277.62118 
L 358.81325 273.225589 
L 359.082226 255.604367 
L 359.216715 251.689201 
L 359.351203 252.247492 
L 359.485691 254.34284 
L 359.620179 248.498679 
L 359.889156 263.989734 
L 360.023644 263.488187 
L 360.427109 278.845128 
L 360.696085 276.956267 
L 360.830573 277.688424 
L 360.965061 277.719164 
L 361.09955 279.291504 
L 361.368526 278.678219 
L 361.503014 277.813405 
L 361.637502 279.193325 
L 361.771991 278.168187 
L 361.906479 275.534656 
L 362.309944 280.827357 
L 362.444432 276.157564 
L 362.57892 276.834269 
L 362.713408 274.532309 
L 362.982385 280.222834 
L 363.116873 280.127952 
L 363.385849 277.512834 
L 363.520337 278.996461 
L 363.789314 277.330558 
L 363.923802 277.600142 
L 364.05829 277.119996 
L 364.192778 280.690625 
L 364.327267 243.181392 
L 364.461755 241.674464 
L 364.730731 250.530177 
L 364.86522 252.878923 
L 364.999708 247.912126 
L 365.672149 98.640115 
L 365.806637 101.737159 
L 365.941125 94.182654 
L 366.210102 109.352111 
L 366.34459 114.377567 
L 366.479078 127.294814 
L 366.613566 153.554759 
L 366.882543 241.149123 
L 367.151519 255.550922 
L 367.689472 266.779432 
L 367.82396 264.025493 
L 368.092937 267.051984 
L 368.765378 91.829531 
L 368.899866 99.721478 
L 369.034354 101.490219 
L 369.303331 86.676177 
L 369.437819 83.761401 
L 369.975772 192.756853 
L 370.11026 237.337797 
L 370.513724 254.630927 
L 370.648213 263.493463 
L 370.782701 287.743385 
L 370.917189 287.207651 
L 371.186166 276.728851 
L 371.320654 274.773168 
L 371.58963 239.418014 
L 371.858607 158.404579 
L 371.993095 154.880007 
L 372.262071 205.505778 
L 372.396559 193.448419 
L 372.665536 198.552542 
L 372.800024 197.627534 
L 372.934512 206.255977 
L 373.203489 235.407169 
L 373.606953 262.343649 
L 373.741442 265.235687 
L 373.87593 271.753066 
L 374.144906 295.488 
L 374.548371 283.134042 
L 374.817347 245.539646 
L 375.086324 191.805354 
L 375.3553 172.942027 
L 375.624277 178.238831 
L 375.758765 178.959286 
L 376.162229 200.860355 
L 376.431206 237.080031 
L 376.700182 266.446482 
L 376.83467 265.925533 
L 376.969159 267.149505 
L 377.103647 271.656066 
L 377.238135 285.909236 
L 377.776088 271.488232 
L 377.910576 275.763509 
L 378.314041 257.741962 
L 378.448529 261.257017 
L 378.583017 258.10559 
L 379.255458 272.558625 
L 379.389947 273.739851 
L 379.524435 271.577328 
L 380.062388 279.94771 
L 380.196876 279.261987 
L 380.331364 277.861329 
L 380.465852 265.799394 
L 380.60034 265.476719 
L 380.869317 270.639065 
L 381.003805 269.981212 
L 381.40727 214.415874 
L 381.541758 153.104921 
L 381.676246 144.54842 
L 381.810734 145.132994 
L 382.079711 142.593284 
L 382.348687 148.058988 
L 382.483175 143.467747 
L 383.155616 264.260577 
L 383.290105 264.225872 
L 383.424593 265.731276 
L 383.559081 269.933738 
L 383.828058 260.058262 
L 383.962546 259.864874 
L 384.097034 259.912993 
L 384.231522 260.451713 
L 384.36601 256.544766 
L 384.500499 256.378563 
L 384.903963 155.686251 
L 385.038451 161.150796 
L 385.17294 143.93322 
L 385.307428 147.181721 
L 385.441916 171.777224 
L 385.710893 167.901027 
L 385.979869 213.922299 
L 386.383334 267.298787 
L 386.517822 265.267129 
L 386.786798 274.083225 
L 386.921286 281.862245 
L 387.055775 281.030917 
L 387.190263 276.526475 
L 387.324751 276.494865 
L 387.593727 270.358394 
L 387.728216 265.884924 
L 387.862704 267.062262 
L 388.13168 276.35229 
L 388.266169 277.977102 
L 388.535145 282.360189 
L 388.669633 278.990227 
L 388.93861 285.470373 
L 389.207586 280.747296 
L 389.342074 281.971278 
L 389.611051 289.081582 
L 389.880027 285.55302 
L 390.014515 286.538985 
L 390.149004 263.994619 
L 390.283492 262.031582 
L 390.552468 264.91064 
L 390.686956 263.259154 
L 391.090421 230.846978 
L 391.224909 188.19502 
L 391.359397 182.250287 
L 391.493886 159.292937 
L 391.628374 160.027404 
L 391.89735 173.679604 
L 392.031839 177.09424 
L 392.166327 172.828026 
L 392.435303 201.180883 
L 392.838768 274.069684 
L 392.973256 271.331225 
L 393.107744 271.074847 
L 393.242232 274.041289 
L 393.511209 259.16049 
L 393.780185 268.029662 
L 394.18365 236.058563 
L 394.587115 157.320699 
L 394.721603 157.168372 
L 394.856091 144.875919 
L 394.990579 144.755929 
L 395.125067 145.986356 
L 395.259556 144.537357 
L 396.200973 261.214141 
L 396.335461 261.484498 
L 396.46995 258.438763 
L 396.604438 288.152771 
L 396.738926 289.361195 
L 397.007902 280.545228 
L 397.142391 281.34079 
L 397.411367 245.966075 
L 397.680343 174.34504 
L 397.814832 177.898816 
L 398.218296 157.241355 
L 398.352785 166.701052 
L 398.487273 167.463069 
L 398.487273 167.463069 
" clip-path="url(#pd8da37791f)" style="fill: none; stroke: #ff7f0e; stroke-width: 1.5; stroke-linecap: square"/>
   </g>
   <g id="patch_3">
    <path d="M 57.6 307.584 
L 57.6 41.472 
" style="fill: none; stroke: #000000; stroke-width: 0.8; stroke-linejoin: miter; stroke-linecap: square"/>
   </g>
   <g id="patch_4">
    <path d="M 414.72 307.584 
L 414.72 41.472 
" style="fill: none; stroke: #000000; stroke-width: 0.8; stroke-linejoin: miter; stroke-linecap: square"/>
   </g>
   <g id="patch_5">
    <path d="M 57.6 307.584 
L 414.72 307.584 
" style="fill: none; stroke: #000000; stroke-width: 0.8; stroke-linejoin: miter; stroke-linecap: square"/>
   </g>
   <g id="patch_6">
    <path d="M 57.6 41.472 
L 414.72 41.472 
" style="fill: none; stroke: #000000; stroke-width: 0.8; stroke-linejoin: miter; stroke-linecap: square"/>
   </g>
  </g>
 </g>
 <defs>
  <clipPath id="pd8da37791f">
   <rect x="57.6" y="41.472" width="357.12" height="266.112"/>
  </clipPath>
 </defs>
</svg>
