<?xml version="1.0" encoding="utf-8" standalone="no"?>
<!DOCTYPE svg PUBLIC "-//W3C//DTD SVG 1.1//EN"
  "http://www.w3.org/Graphics/SVG/1.1/DTD/svg11.dtd">
<svg xmlns:xlink="http://www.w3.org/1999/xlink" width="460.8pt" height="345.6pt" viewBox="0 0 460.8 345.6" xmlns="http://www.w3.org/2000/svg" version="1.1">
 <metadata>
  <rdf:RDF xmlns:dc="http://purl.org/dc/elements/1.1/" xmlns:cc="http://creativecommons.org/ns#" xmlns:rdf="http://www.w3.org/1999/02/22-rdf-syntax-ns#">
   <cc:Work>
    <dc:type rdf:resource="http://purl.org/dc/dcmitype/StillImage"/>
    <dc:date>2023-04-04T02:12:59.303894</dc:date>
    <dc:format>image/svg+xml</dc:format>
    <dc:creator>
     <cc:Agent>
      <dc:title>Matplotlib v3.5.2, https://matplotlib.org/</dc:title>
     </cc:Agent>
    </dc:creator>
   </cc:Work>
  </rdf:RDF>
 </metadata>
 <defs>
  <style type="text/css">*{stroke-linejoin: round; stroke-linecap: butt}</style>
 </defs>
 <g id="figure_1">
  <g id="patch_1">
   <path d="M 0 345.6 
L 460.8 345.6 
L 460.8 0 
L 0 0 
z
" style="fill: #ffffff"/>
  </g>
  <g id="axes_1">
   <g id="patch_2">
    <path d="M 57.6 307.584 
L 414.72 307.584 
L 414.72 41.472 
L 57.6 41.472 
z
" style="fill: #ffffff"/>
   </g>
   <g id="matplotlib.axis_1">
    <g id="xtick_1">
     <g id="line2d_1">
      <defs>
       <path id="mc3fde9ffc9" d="M 0 0 
L 0 3.5 
" style="stroke: #000000; stroke-width: 0.8"/>
      </defs>
      <g>
       <use xlink:href="#mc3fde9ffc9" x="73.832727" y="307.584" style="stroke: #000000; stroke-width: 0.8"/>
      </g>
     </g>
     <g id="text_1">
      <!-- 0 -->
      <g transform="translate(70.651477 322.182437)scale(0.1 -0.1)">
       <defs>
        <path id="DejaVuSans-30" d="M 2034 4250 
Q 1547 4250 1301 3770 
Q 1056 3291 1056 2328 
Q 1056 1369 1301 889 
Q 1547 409 2034 409 
Q 2525 409 2770 889 
Q 3016 1369 3016 2328 
Q 3016 3291 2770 3770 
Q 2525 4250 2034 4250 
z
M 2034 4750 
Q 2819 4750 3233 4129 
Q 3647 3509 3647 2328 
Q 3647 1150 3233 529 
Q 2819 -91 2034 -91 
Q 1250 -91 836 529 
Q 422 1150 422 2328 
Q 422 3509 836 4129 
Q 1250 4750 2034 4750 
z
" transform="scale(0.015625)"/>
       </defs>
       <use xlink:href="#DejaVuSans-30"/>
      </g>
     </g>
    </g>
    <g id="xtick_2">
     <g id="line2d_2">
      <g>
       <use xlink:href="#mc3fde9ffc9" x="141.076834" y="307.584" style="stroke: #000000; stroke-width: 0.8"/>
      </g>
     </g>
     <g id="text_2">
      <!-- 500 -->
      <g transform="translate(131.533084 322.182437)scale(0.1 -0.1)">
       <defs>
        <path id="DejaVuSans-35" d="M 691 4666 
L 3169 4666 
L 3169 4134 
L 1269 4134 
L 1269 2991 
Q 1406 3038 1543 3061 
Q 1681 3084 1819 3084 
Q 2600 3084 3056 2656 
Q 3513 2228 3513 1497 
Q 3513 744 3044 326 
Q 2575 -91 1722 -91 
Q 1428 -91 1123 -41 
Q 819 9 494 109 
L 494 744 
Q 775 591 1075 516 
Q 1375 441 1709 441 
Q 2250 441 2565 725 
Q 2881 1009 2881 1497 
Q 2881 1984 2565 2268 
Q 2250 2553 1709 2553 
Q 1456 2553 1204 2497 
Q 953 2441 691 2322 
L 691 4666 
z
" transform="scale(0.015625)"/>
       </defs>
       <use xlink:href="#DejaVuSans-35"/>
       <use xlink:href="#DejaVuSans-30" x="63.623047"/>
       <use xlink:href="#DejaVuSans-30" x="127.246094"/>
      </g>
     </g>
    </g>
    <g id="xtick_3">
     <g id="line2d_3">
      <g>
       <use xlink:href="#mc3fde9ffc9" x="208.32094" y="307.584" style="stroke: #000000; stroke-width: 0.8"/>
      </g>
     </g>
     <g id="text_3">
      <!-- 1000 -->
      <g transform="translate(195.59594 322.182437)scale(0.1 -0.1)">
       <defs>
        <path id="DejaVuSans-31" d="M 794 531 
L 1825 531 
L 1825 4091 
L 703 3866 
L 703 4441 
L 1819 4666 
L 2450 4666 
L 2450 531 
L 3481 531 
L 3481 0 
L 794 0 
L 794 531 
z
" transform="scale(0.015625)"/>
       </defs>
       <use xlink:href="#DejaVuSans-31"/>
       <use xlink:href="#DejaVuSans-30" x="63.623047"/>
       <use xlink:href="#DejaVuSans-30" x="127.246094"/>
       <use xlink:href="#DejaVuSans-30" x="190.869141"/>
      </g>
     </g>
    </g>
    <g id="xtick_4">
     <g id="line2d_4">
      <g>
       <use xlink:href="#mc3fde9ffc9" x="275.565046" y="307.584" style="stroke: #000000; stroke-width: 0.8"/>
      </g>
     </g>
     <g id="text_4">
      <!-- 1500 -->
      <g transform="translate(262.840046 322.182437)scale(0.1 -0.1)">
       <use xlink:href="#DejaVuSans-31"/>
       <use xlink:href="#DejaVuSans-35" x="63.623047"/>
       <use xlink:href="#DejaVuSans-30" x="127.246094"/>
       <use xlink:href="#DejaVuSans-30" x="190.869141"/>
      </g>
     </g>
    </g>
    <g id="xtick_5">
     <g id="line2d_5">
      <g>
       <use xlink:href="#mc3fde9ffc9" x="342.809153" y="307.584" style="stroke: #000000; stroke-width: 0.8"/>
      </g>
     </g>
     <g id="text_5">
      <!-- 2000 -->
      <g transform="translate(330.084153 322.182437)scale(0.1 -0.1)">
       <defs>
        <path id="DejaVuSans-32" d="M 1228 531 
L 3431 531 
L 3431 0 
L 469 0 
L 469 531 
Q 828 903 1448 1529 
Q 2069 2156 2228 2338 
Q 2531 2678 2651 2914 
Q 2772 3150 2772 3378 
Q 2772 3750 2511 3984 
Q 2250 4219 1831 4219 
Q 1534 4219 1204 4116 
Q 875 4013 500 3803 
L 500 4441 
Q 881 4594 1212 4672 
Q 1544 4750 1819 4750 
Q 2544 4750 2975 4387 
Q 3406 4025 3406 3419 
Q 3406 3131 3298 2873 
Q 3191 2616 2906 2266 
Q 2828 2175 2409 1742 
Q 1991 1309 1228 531 
z
" transform="scale(0.015625)"/>
       </defs>
       <use xlink:href="#DejaVuSans-32"/>
       <use xlink:href="#DejaVuSans-30" x="63.623047"/>
       <use xlink:href="#DejaVuSans-30" x="127.246094"/>
       <use xlink:href="#DejaVuSans-30" x="190.869141"/>
      </g>
     </g>
    </g>
    <g id="xtick_6">
     <g id="line2d_6">
      <g>
       <use xlink:href="#mc3fde9ffc9" x="410.053259" y="307.584" style="stroke: #000000; stroke-width: 0.8"/>
      </g>
     </g>
     <g id="text_6">
      <!-- 2500 -->
      <g transform="translate(397.328259 322.182437)scale(0.1 -0.1)">
       <use xlink:href="#DejaVuSans-32"/>
       <use xlink:href="#DejaVuSans-35" x="63.623047"/>
       <use xlink:href="#DejaVuSans-30" x="127.246094"/>
       <use xlink:href="#DejaVuSans-30" x="190.869141"/>
      </g>
     </g>
    </g>
   </g>
   <g id="matplotlib.axis_2">
    <g id="ytick_1">
     <g id="line2d_7">
      <defs>
       <path id="mf5cf7db0f8" d="M 0 0 
L -3.5 0 
" style="stroke: #000000; stroke-width: 0.8"/>
      </defs>
      <g>
       <use xlink:href="#mf5cf7db0f8" x="57.6" y="280.087994" style="stroke: #000000; stroke-width: 0.8"/>
      </g>
     </g>
     <g id="text_7">
      <!-- 100 -->
      <g transform="translate(31.5125 283.887213)scale(0.1 -0.1)">
       <use xlink:href="#DejaVuSans-31"/>
       <use xlink:href="#DejaVuSans-30" x="63.623047"/>
       <use xlink:href="#DejaVuSans-30" x="127.246094"/>
      </g>
     </g>
    </g>
    <g id="ytick_2">
     <g id="line2d_8">
      <g>
       <use xlink:href="#mf5cf7db0f8" x="57.6" y="232.35727" style="stroke: #000000; stroke-width: 0.8"/>
      </g>
     </g>
     <g id="text_8">
      <!-- 200 -->
      <g transform="translate(31.5125 236.156489)scale(0.1 -0.1)">
       <use xlink:href="#DejaVuSans-32"/>
       <use xlink:href="#DejaVuSans-30" x="63.623047"/>
       <use xlink:href="#DejaVuSans-30" x="127.246094"/>
      </g>
     </g>
    </g>
    <g id="ytick_3">
     <g id="line2d_9">
      <g>
       <use xlink:href="#mf5cf7db0f8" x="57.6" y="184.626546" style="stroke: #000000; stroke-width: 0.8"/>
      </g>
     </g>
     <g id="text_9">
      <!-- 300 -->
      <g transform="translate(31.5125 188.425764)scale(0.1 -0.1)">
       <defs>
        <path id="DejaVuSans-33" d="M 2597 2516 
Q 3050 2419 3304 2112 
Q 3559 1806 3559 1356 
Q 3559 666 3084 287 
Q 2609 -91 1734 -91 
Q 1441 -91 1130 -33 
Q 819 25 488 141 
L 488 750 
Q 750 597 1062 519 
Q 1375 441 1716 441 
Q 2309 441 2620 675 
Q 2931 909 2931 1356 
Q 2931 1769 2642 2001 
Q 2353 2234 1838 2234 
L 1294 2234 
L 1294 2753 
L 1863 2753 
Q 2328 2753 2575 2939 
Q 2822 3125 2822 3475 
Q 2822 3834 2567 4026 
Q 2313 4219 1838 4219 
Q 1578 4219 1281 4162 
Q 984 4106 628 3988 
L 628 4550 
Q 988 4650 1302 4700 
Q 1616 4750 1894 4750 
Q 2613 4750 3031 4423 
Q 3450 4097 3450 3541 
Q 3450 3153 3228 2886 
Q 3006 2619 2597 2516 
z
" transform="scale(0.015625)"/>
       </defs>
       <use xlink:href="#DejaVuSans-33"/>
       <use xlink:href="#DejaVuSans-30" x="63.623047"/>
       <use xlink:href="#DejaVuSans-30" x="127.246094"/>
      </g>
     </g>
    </g>
    <g id="ytick_4">
     <g id="line2d_10">
      <g>
       <use xlink:href="#mf5cf7db0f8" x="57.6" y="136.895821" style="stroke: #000000; stroke-width: 0.8"/>
      </g>
     </g>
     <g id="text_10">
      <!-- 400 -->
      <g transform="translate(31.5125 140.69504)scale(0.1 -0.1)">
       <defs>
        <path id="DejaVuSans-34" d="M 2419 4116 
L 825 1625 
L 2419 1625 
L 2419 4116 
z
M 2253 4666 
L 3047 4666 
L 3047 1625 
L 3713 1625 
L 3713 1100 
L 3047 1100 
L 3047 0 
L 2419 0 
L 2419 1100 
L 313 1100 
L 313 1709 
L 2253 4666 
z
" transform="scale(0.015625)"/>
       </defs>
       <use xlink:href="#DejaVuSans-34"/>
       <use xlink:href="#DejaVuSans-30" x="63.623047"/>
       <use xlink:href="#DejaVuSans-30" x="127.246094"/>
      </g>
     </g>
    </g>
    <g id="ytick_5">
     <g id="line2d_11">
      <g>
       <use xlink:href="#mf5cf7db0f8" x="57.6" y="89.165097" style="stroke: #000000; stroke-width: 0.8"/>
      </g>
     </g>
     <g id="text_11">
      <!-- 500 -->
      <g transform="translate(31.5125 92.964316)scale(0.1 -0.1)">
       <use xlink:href="#DejaVuSans-35"/>
       <use xlink:href="#DejaVuSans-30" x="63.623047"/>
       <use xlink:href="#DejaVuSans-30" x="127.246094"/>
      </g>
     </g>
    </g>
   </g>
   <g id="line2d_12">
    <path d="M 73.832727 283.154216 
L 74.101704 282.60579 
L 74.236192 281.497005 
L 74.37068 282.459257 
L 74.505168 281.96763 
L 74.639657 282.56856 
L 74.774145 276.107729 
L 74.908633 249.037726 
L 75.177609 247.547096 
L 75.312098 248.101727 
L 75.446586 248.154231 
L 75.581074 249.019589 
L 75.715562 248.264489 
L 75.85005 248.242532 
L 76.253515 243.265172 
L 76.522492 277.268063 
L 76.65698 277.580699 
L 76.925956 275.876713 
L 77.060444 267.035073 
L 77.194933 269.275076 
L 77.463909 269.338558 
L 77.598397 270.920354 
L 77.732885 265.602674 
L 77.867374 252.21707 
L 78.405327 104.027013 
L 78.674303 103.106764 
L 78.808791 110.233439 
L 78.943279 105.43841 
L 79.481232 158.051988 
L 79.750209 228.314955 
L 80.019185 262.980826 
L 80.153673 265.101502 
L 80.288161 261.27302 
L 80.42265 271.652066 
L 80.557138 271.218194 
L 80.826114 273.72167 
L 80.960603 271.185737 
L 81.095091 260.888788 
L 81.364067 168.222928 
L 81.498555 180.503566 
L 81.767532 161.130619 
L 82.036508 169.120265 
L 82.170996 166.02445 
L 82.305485 160.059542 
L 83.112414 260.411481 
L 83.650367 286.552166 
L 83.784855 286.572691 
L 83.919343 288.098642 
L 84.053831 288.290519 
L 84.18832 286.19705 
L 84.322808 278.98446 
L 84.726273 189.001067 
L 84.860761 180.35035 
L 84.995249 184.439919 
L 85.129737 169.582776 
L 85.264225 178.110347 
L 85.398714 178.856378 
L 85.66769 187.138614 
L 85.802178 195.89386 
L 86.340131 262.533589 
L 86.474619 264.543052 
L 86.609107 269.444998 
L 86.878084 286.933535 
L 87.012572 289.180697 
L 87.14706 288.854697 
L 87.281549 290.342941 
L 87.416037 290.246047 
L 87.550525 289.436057 
L 87.819501 261.978958 
L 87.95399 262.124536 
L 88.088478 256.447921 
L 88.222966 257.90514 
L 88.357454 257.148608 
L 88.491942 253.796002 
L 88.626431 256.625957 
L 88.760919 249.643906 
L 88.895407 252.516341 
L 89.029895 252.51491 
L 89.164384 255.071367 
L 89.43336 276.335882 
L 89.567848 277.996434 
L 89.702336 277.49908 
L 89.836825 278.55727 
L 89.971313 263.43379 
L 90.105801 264.145932 
L 90.240289 265.687635 
L 90.374777 265.457573 
L 90.509266 266.691412 
L 90.643754 266.862765 
L 90.778242 268.958621 
L 90.91273 265.741093 
L 91.047218 255.819308 
L 91.181707 254.650382 
L 91.316195 247.730859 
L 91.450683 252.157884 
L 91.585171 250.195196 
L 91.71966 251.691077 
L 91.854148 251.916844 
L 92.123124 254.894763 
L 92.257612 254.322949 
L 92.526589 259.908876 
L 92.795565 266.495239 
L 92.930053 267.448899 
L 93.064542 266.310044 
L 93.19903 276.312494 
L 93.468006 276.437071 
L 93.602495 277.496216 
L 93.736983 276.263809 
L 93.871471 273.744104 
L 94.005959 268.531909 
L 94.6784 161.417481 
L 94.812888 157.0253 
L 95.081865 168.871588 
L 95.216353 163.660825 
L 95.350841 152.406875 
L 96.023282 264.86953 
L 96.157771 265.598378 
L 96.426747 269.521844 
L 96.561235 269.188684 
L 96.695723 269.266007 
L 96.830212 271.147075 
L 96.9647 270.50987 
L 97.099188 269.083676 
L 97.233676 260.623405 
L 97.368164 243.075682 
L 97.502653 202.088831 
L 97.637141 194.998909 
L 97.771629 179.539405 
L 97.906117 187.92808 
L 98.040606 181.220481 
L 98.175094 181.92976 
L 98.309582 176.614944 
L 98.44407 178.255926 
L 98.713047 189.615838 
L 98.982023 231.528187 
L 99.250999 266.350137 
L 99.385488 271.032999 
L 99.519976 271.786667 
L 99.654464 281.584353 
L 99.788952 281.596763 
L 99.923441 280.596327 
L 100.192417 281.833507 
L 100.326905 281.914172 
L 100.461393 281.259784 
L 100.595882 281.665495 
L 100.73037 282.493623 
L 100.864858 280.956216 
L 100.999346 282.1113 
L 101.133834 281.203939 
L 101.268323 278.990188 
L 101.402811 271.969953 
L 101.537299 276.238989 
L 101.806276 265.86042 
L 101.940764 268.019758 
L 102.075252 267.871316 
L 102.20974 268.519021 
L 102.344228 270.896012 
L 102.478717 276.710091 
L 102.613205 274.859094 
L 102.747693 280.525208 
L 102.882181 267.077076 
L 103.016669 267.105715 
L 103.151158 272.008615 
L 103.285646 271.789531 
L 103.554622 267.61166 
L 103.68911 263.426153 
L 103.823599 246.012553 
L 104.092575 183.787917 
L 104.227063 162.319592 
L 104.361552 169.4792 
L 104.630528 144.621994 
L 105.033993 159.92876 
L 105.168481 170.701107 
L 105.706434 253.707223 
L 105.840922 253.585032 
L 105.97541 262.277752 
L 106.109898 278.698553 
L 106.378875 281.885534 
L 106.513363 281.871692 
L 106.647851 284.027211 
L 106.782339 283.758964 
L 106.916828 284.869658 
L 107.320292 247.324193 
L 107.45478 254.38309 
L 107.589269 251.850975 
L 107.723757 251.943573 
L 108.26171 246.884116 
L 108.396198 243.479483 
L 108.530686 245.737624 
L 108.934151 277.32534 
L 109.068639 278.839359 
L 109.203127 277.773054 
L 109.337615 273.280639 
L 109.606592 274.828069 
L 109.875568 275.879576 
L 110.144545 276.927743 
L 110.413521 275.69104 
L 110.548009 275.556439 
L 110.951474 271.510306 
L 111.085962 272.682573 
L 111.22045 272.33557 
L 111.623915 266.545833 
L 111.758403 267.053211 
L 112.02738 270.83062 
L 112.430844 272.426259 
L 112.565333 262.197087 
L 112.834309 266.391663 
L 112.968797 266.914314 
L 113.103285 268.421173 
L 113.237774 268.599209 
L 113.50675 271.211989 
L 113.641238 272.040594 
L 114.313679 260.82817 
L 114.448168 260.467803 
L 114.582656 258.988628 
L 114.98612 248.180005 
L 115.524073 259.219167 
L 115.658561 259.76807 
L 115.927538 261.988981 
L 116.062026 260.707888 
L 116.196514 266.791647 
L 116.331002 266.375435 
L 116.465491 266.984956 
L 116.599979 257.252184 
L 117.137932 79.060025 
L 117.406908 64.398579 
L 117.810373 80.892408 
L 118.213837 147.907777 
L 118.482814 210.075136 
L 118.75179 244.412619 
L 118.886279 245.942389 
L 119.289743 253.914374 
L 119.424231 255.328636 
L 119.55872 258.092245 
L 119.693208 258.408222 
L 119.827696 248.818642 
L 120.365649 91.882407 
L 120.634625 73.366704 
L 120.769114 77.048175 
L 120.903602 70.646053 
L 121.03809 71.970581 
L 121.441555 135.230019 
L 121.710531 201.880248 
L 121.845019 229.984098 
L 122.248484 240.919207 
L 122.51746 256.393031 
L 122.651948 256.551974 
L 122.786437 258.286031 
L 122.920925 256.949094 
L 123.055413 248.810528 
L 123.727854 60.45268 
L 123.862342 53.568 
L 124.534783 107.553358 
L 125.072736 248.113659 
L 125.207225 253.270487 
L 125.341713 253.73252 
L 125.476201 253.686222 
L 125.745177 267.248907 
L 125.879666 268.681783 
L 126.014154 268.910891 
L 126.28313 255.496171 
L 126.821083 92.984987 
L 126.955571 74.683595 
L 127.09006 81.263753 
L 127.359036 105.734818 
L 127.493524 108.170994 
L 127.762501 126.617964 
L 127.896989 149.358791 
L 128.300453 246.500361 
L 128.434942 252.286757 
L 128.56943 250.464398 
L 128.703918 257.945234 
L 128.838406 258.6674 
L 129.241871 265.342542 
L 129.510847 244.687548 
L 130.0488 83.431682 
L 130.183288 74.347571 
L 130.317777 86.233953 
L 130.452265 114.980259 
L 130.586753 114.064307 
L 130.721241 110.426748 
L 130.855729 116.799754 
L 131.124706 169.929778 
L 131.393682 235.398672 
L 131.662659 258.437815 
L 131.931635 258.242119 
L 132.066123 258.060265 
L 132.3351 269.301805 
L 132.469588 269.15384 
L 132.604076 269.252643 
L 132.738564 269.211117 
L 133.007541 257.351941 
L 133.276517 246.920391 
L 133.679982 241.357375 
L 133.81447 240.178427 
L 133.948958 235.093195 
L 134.486911 244.943385 
L 134.755888 252.010873 
L 134.890376 251.896319 
L 135.697305 266.100028 
L 135.831793 270.837303 
L 135.966282 271.444915 
L 136.10077 269.467908 
L 136.235258 270.96713 
L 136.369746 270.693633 
L 136.504234 266.405982 
L 136.638723 266.247516 
L 136.907699 264.31824 
L 137.311164 253.465706 
L 137.445652 253.974038 
L 137.58014 251.299208 
L 137.983605 258.093199 
L 138.118093 257.193952 
L 138.252581 259.023471 
L 138.387069 263.502522 
L 138.521558 262.272979 
L 138.656046 262.473448 
L 138.925022 267.155355 
L 139.193999 250.957933 
L 139.731951 81.583071 
L 139.86644 72.691315 
L 140.269904 98.627713 
L 140.538881 122.986134 
L 140.673369 130.056963 
L 140.807857 144.376658 
L 141.076834 224.260707 
L 141.480298 257.356714 
L 142.018251 265.771641 
L 142.152739 265.30913 
L 142.421716 241.639464 
L 142.959669 91.553542 
L 143.094157 84.158144 
L 143.228645 83.671768 
L 143.363133 93.86896 
L 143.497621 84.620655 
L 143.63211 89.733093 
L 144.573527 258.601054 
L 144.708015 262.081101 
L 144.842504 262.256273 
L 145.11148 264.492458 
L 145.245968 266.629839 
L 145.380456 262.563182 
L 145.783921 201.564748 
L 146.052897 110.124613 
L 146.187386 91.056188 
L 146.456362 106.327633 
L 146.59085 117.618814 
L 146.725339 111.943631 
L 146.859827 119.337597 
L 146.994315 114.273844 
L 147.128803 127.09909 
L 147.532268 234.086077 
L 147.801244 260.034885 
L 147.935732 260.236786 
L 148.204709 265.495757 
L 148.339197 265.474279 
L 148.473685 265.976883 
L 148.742662 264.925853 
L 148.87715 247.277417 
L 149.280615 119.202042 
L 149.415103 115.170705 
L 149.549591 106.105686 
L 149.684079 107.359094 
L 150.087544 140.010251 
L 150.222032 132.331809 
L 150.35652 137.841844 
L 150.894473 252.469088 
L 151.028961 261.624796 
L 151.16345 260.668749 
L 151.835891 268.829748 
L 151.970379 267.559634 
L 152.104867 246.646894 
L 152.508332 113.202767 
L 152.64282 116.306219 
L 152.911796 104.473295 
L 153.046285 118.598248 
L 153.180773 117.099981 
L 153.449749 151.513833 
L 153.718726 192.390425 
L 153.987702 248.917922 
L 154.12219 265.939653 
L 154.256678 267.316207 
L 154.525655 271.171895 
L 154.794631 272.873018 
L 155.063608 275.812753 
L 155.198096 277.451827 
L 155.332584 276.809371 
L 155.467072 272.435805 
L 155.601561 261.977526 
L 155.736049 261.117895 
L 155.870537 258.257393 
L 156.005025 260.392866 
L 156.274002 258.49891 
L 156.40849 259.034449 
L 156.542978 260.285949 
L 156.677466 259.091249 
L 157.215419 267.0871 
L 157.349907 269.089881 
L 157.484396 268.099468 
L 157.618884 268.86841 
L 157.88786 272.039162 
L 158.022348 272.519333 
L 158.291325 275.513482 
L 158.560301 279.787768 
L 158.694789 278.22411 
L 158.829278 279.186838 
L 158.963766 278.791151 
L 159.232742 276.081477 
L 159.367231 276.363089 
L 159.501719 274.382741 
L 160.039672 260.322701 
L 160.308648 260.581402 
L 160.443136 266.290951 
L 160.577624 266.007908 
L 160.712113 264.055721 
L 160.846601 264.756408 
L 160.981089 266.246084 
L 161.250066 269.996765 
L 161.519042 270.946606 
L 161.788018 254.210305 
L 162.460459 83.856963 
L 162.594948 83.520939 
L 162.729436 82.064197 
L 162.998412 101.622816 
L 163.132901 110.553235 
L 163.401877 151.751532 
L 163.670853 222.364843 
L 164.074318 256.398281 
L 164.208806 257.529499 
L 164.477783 270.163822 
L 164.612271 272.521243 
L 164.746759 267.826926 
L 165.015735 250.34698 
L 165.4192 120.811999 
L 165.553688 123.406641 
L 165.822665 109.537525 
L 165.957153 114.784086 
L 166.091641 111.7045 
L 166.360618 100.270127 
L 166.495106 106.453165 
L 166.89857 221.467028 
L 167.033059 228.426645 
L 167.302035 246.784359 
L 167.974476 265.216533 
L 168.108964 259.552805 
L 168.243453 245.565316 
L 168.377941 207.555431 
L 168.646917 106.279425 
L 168.781405 107.560041 
L 168.915894 103.042328 
L 169.050382 104.340126 
L 169.18487 108.128991 
L 169.319358 92.82843 
L 169.453847 95.302313 
L 169.857311 148.583644 
L 170.126288 226.642948 
L 170.395264 257.403968 
L 170.529752 258.282213 
L 170.66424 261.713097 
L 170.798729 261.902111 
L 171.067705 264.225165 
L 171.202193 267.054643 
L 171.47117 245.305661 
L 172.009123 110.334628 
L 172.143611 108.760946 
L 172.412587 97.024438 
L 172.95054 129.467966 
L 173.622981 259.369996 
L 173.757469 263.352171 
L 173.891958 276.708659 
L 174.026446 275.781251 
L 174.160934 275.737339 
L 174.42991 277.265677 
L 174.698887 262.500654 
L 174.833375 245.40685 
L 175.102351 177.005381 
L 175.371328 143.689813 
L 175.505816 140.794944 
L 175.640304 150.943928 
L 175.774792 150.634156 
L 175.909281 152.04078 
L 176.043769 156.839627 
L 176.178257 156.532241 
L 176.312745 170.982241 
L 176.581722 238.534103 
L 176.850698 265.616993 
L 176.985186 263.126882 
L 177.254163 267.854132 
L 177.388651 267.810698 
L 177.792116 274.359353 
L 177.926604 275.248576 
L 178.19558 264.54878 
L 178.330069 264.10918 
L 178.599045 256.553406 
L 178.733533 255.988752 
L 178.868021 258.293668 
L 179.136998 254.788324 
L 179.271486 255.383526 
L 179.540462 252.901051 
L 179.809439 260.397639 
L 179.943927 267.658914 
L 180.212904 265.759708 
L 180.48188 275.615148 
L 180.616368 275.62899 
L 180.750856 276.000812 
L 180.885345 276.831327 
L 181.019833 276.91772 
L 181.692274 264.62133 
L 181.826762 265.915788 
L 181.96125 259.938469 
L 182.095738 261.718825 
L 182.364715 267.151536 
L 182.499203 268.428333 
L 182.633691 271.572833 
L 182.902668 270.755683 
L 183.171644 276.88049 
L 183.306132 278.295228 
L 183.440621 277.186444 
L 183.575109 274.886777 
L 183.844085 286.608489 
L 183.978573 287.558807 
L 184.113062 285.282052 
L 184.382038 273.906866 
L 184.919991 182.264352 
L 185.054479 186.27612 
L 185.188967 179.210063 
L 185.457944 183.066706 
L 185.592432 184.564496 
L 185.995897 222.284178 
L 186.264873 252.852843 
L 186.53385 268.594913 
L 186.802826 278.839359 
L 187.071802 289.326753 
L 187.206291 288.177398 
L 187.340779 289.310525 
L 187.475267 286.135955 
L 187.609755 278.144877 
L 188.01322 202.305051 
L 188.147708 185.920526 
L 188.282196 186.139132 
L 188.416684 185.181654 
L 188.551173 188.490825 
L 188.685661 194.886742 
L 188.820149 190.47881 
L 188.954637 194.91013 
L 189.089126 203.275417 
L 189.627078 265.222738 
L 189.761567 267.809266 
L 189.896055 273.040553 
L 190.030543 270.606763 
L 190.299519 272.436759 
L 190.434008 271.266402 
L 190.971961 274.688218 
L 191.106449 271.238718 
L 191.240937 270.753774 
L 191.375425 271.191942 
L 191.509913 266.766827 
L 191.644402 268.314734 
L 191.913378 267.04987 
L 192.182354 261.418122 
L 192.316843 261.766556 
L 192.451331 261.268724 
L 192.585819 262.588479 
L 192.720307 268.353873 
L 192.989284 269.610623 
L 193.392748 266.925293 
L 193.661725 269.805364 
L 193.796213 270.339471 
L 194.065189 262.458174 
L 194.603142 158.784654 
L 194.73763 153.876504 
L 194.872119 143.931807 
L 195.006607 145.506444 
L 195.141095 150.24706 
L 195.275583 142.85357 
L 195.54456 156.237743 
L 195.948024 250.199015 
L 196.217001 260.528421 
L 196.351489 262.453878 
L 196.485977 271.92079 
L 196.620465 271.268788 
L 196.889442 271.825329 
L 197.02393 272.953206 
L 197.158418 271.224399 
L 197.292907 264.90676 
L 197.830859 196.232749 
L 197.965348 198.542916 
L 198.099836 195.227062 
L 198.234324 199.628312 
L 198.5033 186.310963 
L 198.772277 200.102756 
L 199.31023 272.596657 
L 199.713694 281.703679 
L 199.848183 280.535709 
L 200.117159 281.263125 
L 200.251647 279.48086 
L 200.386135 273.705442 
L 200.520624 273.302595 
L 200.655112 260.352295 
L 200.7896 213.157586 
L 200.924088 211.188694 
L 201.058576 199.511849 
L 201.193065 199.153869 
L 201.327553 196.470448 
L 201.462041 198.641718 
L 201.731018 186.848888 
L 201.865506 188.209214 
L 202.134482 210.890854 
L 202.403459 264.331605 
L 202.806923 274.124518 
L 203.0759 265.658042 
L 203.210388 269.982445 
L 203.344876 270.108455 
L 203.748341 260.737481 
L 203.882829 243.360634 
L 204.151805 181.436701 
L 204.420782 164.974375 
L 204.55527 159.348831 
L 204.689758 162.783534 
L 204.824246 156.28786 
L 204.958735 172.301995 
L 205.093223 172.548286 
L 205.765664 260.157076 
L 205.900152 260.667795 
L 206.03464 264.465728 
L 206.169129 279.306165 
L 206.303617 279.786814 
L 206.572593 283.723166 
L 206.84157 284.534111 
L 207.110546 275.151206 
L 207.379522 265.973542 
L 207.514011 265.096251 
L 207.917475 273.20952 
L 208.051964 272.963229 
L 208.32094 266.605974 
L 208.589916 268.206863 
L 208.858893 276.253785 
L 208.993381 279.905186 
L 209.127869 280.488455 
L 209.262357 279.944802 
L 209.396846 274.093493 
L 209.531334 275.190345 
L 209.80031 274.775565 
L 209.934799 275.765977 
L 210.203775 263.591779 
L 211.010704 108.554749 
L 211.279681 134.162283 
L 211.683145 167.244448 
L 212.221098 254.834623 
L 212.355586 257.297051 
L 212.759051 272.529357 
L 212.893539 272.322206 
L 213.028027 272.42244 
L 213.162516 275.070063 
L 213.431492 257.375807 
L 213.56598 219.315804 
L 213.834957 135.440512 
L 213.969445 140.023616 
L 214.103933 138.932969 
L 214.238421 141.892751 
L 214.910862 180.194748 
L 215.448815 260.45062 
L 215.583303 265.414615 
L 215.717792 266.032251 
L 216.121256 270.293172 
L 216.255745 271.250173 
L 216.390233 273.640051 
L 216.524721 269.633057 
L 216.659209 262.116899 
L 217.062674 149.072406 
L 217.197162 150.984022 
L 217.33165 151.064687 
L 217.466138 162.526743 
L 217.600627 161.243264 
L 217.735115 149.391248 
L 217.869603 154.620626 
L 218.273068 196.801699 
L 218.542044 255.608338 
L 218.811021 272.40287 
L 218.945509 264.985516 
L 219.483462 275.70345 
L 219.61795 277.501466 
L 219.886926 263.753586 
L 220.290391 162.1869 
L 220.693856 150.528671 
L 220.828344 161.19076 
L 220.962832 157.270636 
L 221.231808 184.419872 
L 221.500785 198.283261 
L 221.769761 255.471828 
L 222.038738 271.102208 
L 222.173226 270.349495 
L 222.307714 271.574265 
L 222.576691 277.624134 
L 222.845667 280.262689 
L 222.980155 278.590682 
L 223.114643 280.463635 
L 223.38362 259.914604 
L 223.518108 263.778883 
L 223.652596 263.622326 
L 223.921573 256.661278 
L 224.190549 255.988752 
L 224.325037 258.477909 
L 224.459525 257.849295 
L 224.728502 253.989789 
L 225.131967 261.260133 
L 225.266455 259.773798 
L 225.535431 261.246291 
L 225.669919 259.933219 
L 226.073384 269.703221 
L 226.34236 272.735076 
L 226.476849 272.663003 
L 226.745825 269.515162 
L 226.880313 271.800031 
L 227.014802 272.043458 
L 227.14929 271.746096 
L 227.283778 270.325152 
L 227.418266 272.003842 
L 227.552754 272.132715 
L 227.687243 271.963271 
L 227.956219 270.853054 
L 228.090707 276.676202 
L 228.225195 276.715341 
L 228.359684 277.818398 
L 228.494172 277.044683 
L 228.62866 278.016958 
L 228.763148 277.902405 
L 228.897637 275.61133 
L 229.301101 276.516304 
L 229.435589 270.294604 
L 229.570078 256.193039 
L 230.242519 94.5496 
L 230.377007 79.693412 
L 230.511495 109.712219 
L 230.780471 117.673704 
L 231.049448 145.178534 
L 231.587401 254.031792 
L 231.856377 265.269514 
L 232.125354 270.090317 
L 232.39433 274.753131 
L 232.528818 273.938368 
L 232.797795 256.812107 
L 232.932283 220.494276 
L 233.201259 133.222942 
L 233.335748 125.036646 
L 233.470236 135.346482 
L 233.604724 135.568907 
L 233.739212 148.377447 
L 233.8737 133.621494 
L 234.008189 140.352958 
L 234.815118 264.687199 
L 234.949606 264.420384 
L 235.218583 270.331834 
L 235.622047 278.079486 
L 235.756535 277.480942 
L 236.025512 264.808435 
L 236.563465 129.062255 
L 236.832441 116.835075 
L 237.63937 200.634953 
L 237.908347 258.780999 
L 238.177323 266.879948 
L 238.849764 281.816801 
L 238.984252 280.99106 
L 239.118741 277.187876 
L 239.253229 263.270074 
L 239.791182 128.291404 
L 240.194646 146.048665 
L 240.463623 165.199186 
L 240.732599 178.672615 
L 241.270552 256.24602 
L 241.674017 262.128832 
L 241.942993 275.088201 
L 242.077481 281.595808 
L 242.21197 280.969104 
L 242.480946 262.978916 
L 242.884411 151.100485 
L 243.018899 158.982259 
L 243.153387 156.73271 
L 243.287875 145.740802 
L 243.422363 153.731402 
L 243.556852 150.916244 
L 243.825828 167.577131 
L 244.229293 239.654821 
L 244.498269 262.068214 
L 244.767246 267.347709 
L 245.17071 275.214687 
L 245.305198 276.080523 
L 245.439687 275.784592 
L 245.574175 274.554572 
L 245.708663 263.085833 
L 245.843151 268.540023 
L 246.112128 265.554943 
L 246.381104 260.370432 
L 246.515592 260.337021 
L 247.188033 270.590058 
L 247.322522 270.995769 
L 247.45701 271.863513 
L 247.591498 271.508874 
L 247.725986 274.674853 
L 247.860475 273.235772 
L 248.129451 274.560299 
L 248.263939 273.676326 
L 248.398427 274.359353 
L 248.532916 274.206137 
L 248.667404 276.152596 
L 248.801892 276.053794 
L 249.205357 277.593587 
L 249.339845 277.71005 
L 249.608821 276.761163 
L 249.743309 276.8929 
L 249.877798 276.592673 
L 250.550239 273.425263 
L 250.819215 273.725489 
L 250.953703 274.504454 
L 251.088192 273.367986 
L 251.357168 274.626168 
L 251.491656 283.526993 
L 251.626144 283.037276 
L 251.760633 283.467807 
L 251.895121 283.307909 
L 252.164097 271.06116 
L 252.70205 143.627285 
L 252.836538 163.365372 
L 252.971027 159.920645 
L 253.240003 172.831329 
L 253.374491 174.184495 
L 253.508979 171.258602 
L 253.777956 204.083021 
L 254.046932 255.447485 
L 254.315909 276.776914 
L 254.719373 285.133132 
L 254.853862 284.893046 
L 255.122838 286.626626 
L 255.391814 265.858988 
L 255.660791 172.621791 
L 255.795279 176.069381 
L 256.198744 160.395089 
L 256.333232 164.068923 
L 256.46772 161.404116 
L 256.602208 162.600248 
L 257.409138 257.689397 
L 257.812602 265.161642 
L 258.081579 280.369606 
L 258.216067 281.433524 
L 258.350555 280.704198 
L 258.619532 266.532469 
L 258.888508 177.426366 
L 259.022996 178.295542 
L 259.157484 169.241979 
L 259.291973 168.666346 
L 259.426461 153.18059 
L 259.695437 166.881694 
L 259.829925 155.749457 
L 259.964414 164.823068 
L 260.771343 260.759915 
L 261.040319 262.998486 
L 261.309296 270.497937 
L 261.443784 273.712124 
L 261.71276 270.797686 
L 261.847249 258.405836 
L 262.116225 170.242415 
L 262.250713 174.409784 
L 262.654178 147.978896 
L 262.788666 155.279787 
L 262.923154 150.509579 
L 263.326619 185.659916 
L 263.461107 196.558272 
L 263.864572 245.335254 
L 264.268036 263.3789 
L 264.402525 262.621413 
L 264.671501 266.051343 
L 264.805989 265.925334 
L 264.940478 264.974538 
L 265.074966 257.406354 
L 265.209454 238.289722 
L 265.612919 123.992775 
L 265.881895 105.880397 
L 266.016383 115.382152 
L 266.150871 115.25137 
L 266.28536 114.803178 
L 266.419848 119.43449 
L 266.688824 156.708845 
L 266.957801 235.520862 
L 267.226777 252.186522 
L 267.361265 250.764147 
L 267.495754 267.132444 
L 267.630242 266.816467 
L 267.76473 268.685602 
L 267.899218 268.996806 
L 268.168195 275.517778 
L 268.302683 276.402705 
L 268.437171 273.840997 
L 268.706147 276.377408 
L 268.975124 272.882564 
L 269.2441 270.997678 
L 269.916541 256.503766 
L 270.320006 258.393426 
L 270.588982 263.280574 
L 270.723471 277.379276 
L 270.857959 278.419328 
L 270.992447 276.941108 
L 271.126935 277.824603 
L 271.261424 277.854197 
L 271.395912 277.668047 
L 271.799376 280.445975 
L 271.933865 279.060352 
L 272.068353 279.415469 
L 272.202841 278.770626 
L 272.337329 279.006894 
L 272.471817 278.163492 
L 272.606306 275.997471 
L 272.740794 277.280473 
L 272.875282 276.957814 
L 273.00977 276.280515 
L 273.144258 273.945528 
L 273.278747 273.84577 
L 273.547723 276.825122 
L 273.682211 277.039433 
L 273.8167 277.723414 
L 273.951188 276.861397 
L 274.085676 287.516327 
L 274.354652 289.149672 
L 274.489141 287.576945 
L 274.758117 272.848198 
L 275.29607 166.264059 
L 275.565046 154.016355 
L 275.699535 154.353811 
L 275.834023 172.323951 
L 275.968511 174.607867 
L 276.102999 184.773556 
L 276.77544 264.16407 
L 277.447881 281.581489 
L 277.58237 284.981348 
L 277.716858 284.589956 
L 277.851346 280.187274 
L 277.985834 270.193893 
L 278.389299 209.62599 
L 278.523787 190.120829 
L 278.658275 188.120435 
L 278.792763 178.595291 
L 278.927252 190.737988 
L 279.06174 184.911498 
L 279.196228 187.00449 
L 279.330716 194.708229 
L 280.137646 274.547889 
L 280.272134 276.936812 
L 280.406622 268.571525 
L 280.54111 268.28705 
L 280.810087 269.459317 
L 280.944575 268.835476 
L 281.213551 260.90788 
L 281.348039 231.926262 
L 281.482528 161.382638 
L 281.617016 151.162535 
L 281.751504 127.736773 
L 281.885992 128.889947 
L 282.154969 142.415402 
L 282.289457 124.277727 
L 282.423945 128.370637 
L 282.558433 137.491501 
L 282.82741 185.994508 
L 283.096386 254.632245 
L 283.365363 261.270156 
L 283.499851 263.480089 
L 283.634339 262.80804 
L 283.768827 262.818541 
L 283.903316 263.008032 
L 284.037804 264.314422 
L 284.172292 264.443772 
L 284.441268 259.243987 
L 285.113709 143.826322 
L 285.248198 142.74904 
L 285.382686 138.206507 
L 285.517174 147.459585 
L 285.651662 144.354702 
L 285.78615 147.848113 
L 286.055127 201.043051 
L 286.324103 250.679663 
L 286.59308 260.369478 
L 286.727568 260.247764 
L 286.862056 279.208794 
L 286.996544 279.267981 
L 287.131033 278.289023 
L 287.265521 278.895204 
L 287.668985 275.364562 
L 287.803474 276.242807 
L 288.07245 275.366948 
L 288.206938 273.193291 
L 288.341427 273.137924 
L 288.475915 270.789095 
L 288.610403 270.41775 
L 288.744891 269.292736 
L 288.879379 272.123646 
L 289.013868 272.463489 
L 289.148356 269.65024 
L 289.417332 276.811758 
L 289.55182 277.999775 
L 289.820797 277.637976 
L 289.955285 278.428874 
L 290.089773 276.92822 
L 290.224262 278.476605 
L 290.35875 277.568767 
L 290.493238 278.549633 
L 290.627726 277.006499 
L 291.031191 259.012493 
L 291.300167 192.768453 
L 291.434655 187.179185 
L 291.569144 187.787274 
L 291.703632 191.853932 
L 291.972608 179.097896 
L 292.376073 192.189002 
L 293.048514 268.649326 
L 293.183002 269.897007 
L 293.31749 268.74431 
L 293.451979 269.496547 
L 293.586467 268.566275 
L 293.720955 271.043499 
L 293.855443 271.306973 
L 294.258908 247.365719 
L 294.527884 189.328022 
L 294.796861 157.61907 
L 294.931349 141.736671 
L 295.065837 141.602548 
L 295.200325 149.581216 
L 295.334814 143.856393 
L 295.60379 171.937333 
L 295.738278 186.439836 
L 296.141743 256.701371 
L 296.276231 255.810716 
L 296.410719 263.015192 
L 296.545208 280.707539 
L 296.948672 282.872605 
L 297.486625 284.839111 
L 297.621113 284.49354 
L 297.755601 284.489722 
L 298.024578 281.315629 
L 298.159066 281.165277 
L 298.428042 279.023122 
L 298.697019 275.197027 
L 298.831507 274.061513 
L 298.965995 273.919276 
L 299.100484 274.27487 
L 299.36946 278.059439 
L 299.503948 277.553016 
L 299.638436 279.09615 
L 299.772925 269.437838 
L 299.907413 272.839607 
L 300.041901 272.537948 
L 300.176389 273.404261 
L 300.310877 273.120741 
L 300.579854 262.151743 
L 301.252295 128.068501 
L 301.386783 128.137233 
L 301.521271 141.327619 
L 301.65576 134.386617 
L 301.790248 143.800071 
L 302.597177 252.585551 
L 302.731665 254.338223 
L 303.000642 266.744393 
L 303.13513 266.968728 
L 303.269618 267.448899 
L 303.404106 269.907986 
L 303.538595 270.327061 
L 303.807571 253.970697 
L 304.345524 164.20591 
L 304.6145 153.684626 
L 304.748988 161.92104 
L 304.883477 152.349121 
L 305.017965 158.428583 
L 306.093871 265.196008 
L 306.228359 266.206468 
L 306.497335 276.360225 
L 306.766312 277.389777 
L 306.9008 272.682095 
L 307.035288 262.144583 
L 307.304265 169.68301 
L 307.438753 176.943331 
L 307.842217 157.684938 
L 307.976706 164.734766 
L 308.111194 156.317453 
L 308.245682 161.279062 
L 308.649147 207.272865 
L 309.052611 263.628054 
L 309.590564 275.856666 
L 309.994029 277.559698 
L 310.128517 274.0071 
L 310.263005 261.393302 
L 310.531982 169.571798 
L 310.66647 170.723063 
L 310.935446 168.434375 
L 311.069934 159.08488 
L 311.204423 165.539029 
L 311.338911 164.24839 
L 311.473399 157.475878 
L 311.607887 170.609941 
L 311.876864 208.179749 
L 312.14584 250.499241 
L 312.414817 262.302572 
L 312.818281 270.911763 
L 312.952769 270.47789 
L 313.087258 272.363254 
L 313.221746 272.264451 
L 313.356234 273.840997 
L 313.625211 263.286779 
L 313.759699 255.396891 
L 313.894187 258.749019 
L 314.028675 256.220723 
L 314.163163 258.1037 
L 314.297652 255.34391 
L 314.566628 261.90593 
L 314.701116 262.640505 
L 314.970093 267.393054 
L 315.104581 267.355346 
L 315.239069 267.058939 
L 315.508045 269.991037 
L 315.642534 270.528008 
L 315.777022 270.197711 
L 316.180487 273.187086 
L 316.314975 272.747486 
L 316.718439 275.101566 
L 316.852928 275.35072 
L 316.987416 274.497295 
L 317.121904 274.562686 
L 317.256392 273.442923 
L 317.39088 273.587547 
L 317.525369 272.048709 
L 317.659857 272.968002 
L 317.928833 270.448775 
L 318.332298 266.712414 
L 318.466786 267.366802 
L 318.601274 266.864197 
L 318.735763 268.320462 
L 318.870251 268.156745 
L 319.139227 269.273167 
L 319.273715 279.109037 
L 319.67718 280.227368 
L 319.811668 277.648477 
L 319.946157 269.694152 
L 320.349621 147.699671 
L 320.484109 131.548071 
L 320.887574 158.827612 
L 321.022062 163.494245 
L 321.291039 178.277405 
L 321.425527 180.077808 
L 321.560015 198.51905 
L 321.828991 254.049452 
L 321.96348 262.137424 
L 322.097968 262.924026 
L 322.635921 279.625006 
L 322.770409 279.972009 
L 322.904897 279.312847 
L 323.173874 268.880343 
L 323.44285 173.408871 
L 323.577338 173.77067 
L 323.711826 173.972093 
L 323.980803 153.79393 
L 324.249779 157.333163 
L 324.384268 160.099636 
L 324.787732 196.344916 
L 325.056709 250.871063 
L 325.325685 260.143234 
L 325.863638 277.966364 
L 325.998126 279.733832 
L 326.132614 279.799224 
L 326.267103 276.585991 
L 326.401591 267.586363 
L 326.670567 166.21776 
L 326.805055 172.1736 
L 326.939544 173.345866 
L 327.20852 160.118728 
L 327.343008 168.262544 
L 327.611985 164.508523 
L 327.746473 169.368465 
L 328.149937 224.066921 
L 328.418914 254.913378 
L 328.68789 267.724782 
L 328.822379 270.178141 
L 328.956867 280.224982 
L 329.225843 281.171959 
L 329.360331 280.324739 
L 329.629308 267.491856 
L 330.032772 178.473101 
L 330.301749 167.133713 
L 330.570725 158.325007 
L 330.839702 180.179474 
L 330.97419 181.391834 
L 331.108678 184.137306 
L 331.781119 260.023907 
L 332.050096 267.187334 
L 332.184584 277.962068 
L 332.319072 278.918114 
L 332.45356 278.253225 
L 332.588049 279.240774 
L 332.857025 266.632703 
L 333.26049 177.841623 
L 333.394978 179.751329 
L 333.663954 164.840251 
L 333.798442 166.032565 
L 333.932931 169.799473 
L 334.336395 187.663652 
L 334.73986 255.398323 
L 335.143325 271.126551 
L 335.277813 270.927991 
L 335.412301 271.025362 
L 335.546789 271.310792 
L 335.681277 271.205784 
L 335.950254 273.787539 
L 336.084742 271.693115 
L 336.622695 255.230788 
L 336.757183 256.025504 
L 336.891671 254.196463 
L 337.295136 260.553718 
L 337.698601 265.285742 
L 337.833089 264.806526 
L 338.102065 268.90564 
L 338.236553 268.673669 
L 338.371042 269.310874 
L 338.50553 266.975887 
L 339.043483 270.134229 
L 339.446947 273.129809 
L 339.581436 272.648206 
L 339.715924 271.479281 
L 339.850412 271.738459 
L 339.9849 270.958539 
L 340.119388 270.845894 
L 340.253877 270.372405 
L 340.388365 271.849194 
L 340.522853 269.860732 
L 340.657341 270.459275 
L 340.926318 270.140911 
L 341.060806 266.803102 
L 341.329782 271.684046 
L 341.464271 271.582379 
L 341.598759 272.110758 
L 341.733247 273.676804 
L 341.867735 281.497005 
L 342.136712 281.598672 
L 342.2712 282.240173 
L 342.540176 269.547619 
L 342.943641 154.40011 
L 343.212617 171.005152 
L 343.347106 170.271053 
L 343.75057 184.65232 
L 343.885058 186.326714 
L 344.019547 185.664212 
L 344.423011 253.533006 
L 345.22994 279.22025 
L 345.364429 280.303737 
L 345.498917 279.936211 
L 345.633405 275.720633 
L 345.767893 267.63839 
L 346.03687 183.407503 
L 346.171358 187.524278 
L 346.440334 173.963025 
L 346.574823 168.593318 
L 346.843799 175.469884 
L 347.112775 177.338064 
L 347.381752 211.808239 
L 347.650728 250.708302 
L 348.054193 268.6646 
L 348.188681 269.846413 
L 348.323169 278.812629 
L 348.457658 279.660327 
L 348.592146 281.530417 
L 348.726634 281.335198 
L 348.99561 268.432629 
L 349.264587 182.357427 
L 349.399075 183.830875 
L 349.668052 166.278855 
L 349.80254 162.168285 
L 350.206004 180.857728 
L 350.340493 182.037154 
L 351.012934 262.18945 
L 351.147422 264.509163 
L 351.550886 281.166231 
L 351.685375 280.454566 
L 351.954351 280.821138 
L 352.088839 279.424537 
L 352.223328 272.13892 
L 352.492304 178.282178 
L 352.626792 185.443218 
L 352.76128 174.079965 
L 352.895769 173.371641 
L 353.030257 165.097997 
L 353.164745 172.304859 
L 353.299233 170.22905 
L 353.56821 152.464152 
L 354.240651 268.805883 
L 354.375139 269.942829 
L 354.644115 275.801775 
L 354.913092 280.073198 
L 355.182068 281.114682 
L 355.316556 278.713827 
L 355.451045 269.591531 
L 355.854509 196.335847 
L 356.123486 158.026213 
L 356.257974 159.738791 
L 356.392462 168.343209 
L 356.52695 167.7103 
L 356.661439 178.309384 
L 356.795927 177.058839 
L 357.33388 264.498663 
L 357.602856 274.089197 
L 357.737344 276.052362 
L 357.871832 280.304692 
L 358.006321 279.726673 
L 358.140809 279.940984 
L 358.275297 280.680333 
L 358.409785 280.592508 
L 358.678762 279.333849 
L 359.082226 260.878764 
L 359.351203 254.977338 
L 359.485691 248.710294 
L 359.620179 259.436342 
L 359.754667 260.849649 
L 359.889156 261.017661 
L 360.427109 275.296784 
L 360.561597 275.975993 
L 360.965061 280.120451 
L 361.234038 280.080835 
L 361.368526 279.889435 
L 361.503014 281.193915 
L 361.771991 280.786772 
L 361.906479 282.11655 
L 362.040967 282.068819 
L 362.175455 282.443983 
L 362.309944 282.484554 
L 362.57892 279.074194 
L 362.713408 279.025031 
L 362.982385 277.890949 
L 363.116873 276.399364 
L 363.251361 276.297698 
L 363.385849 277.387867 
L 363.520337 276.534442 
L 363.654826 276.474779 
L 364.05829 279.259389 
L 364.192778 253.266191 
L 364.730731 259.520348 
L 364.86522 258.325648 
L 364.999708 246.249775 
L 365.134196 224.107969 
L 365.403172 135.817107 
L 365.672149 105.534349 
L 365.806637 99.615262 
L 366.075613 116.553941 
L 366.34459 113.410873 
L 366.479078 124.838563 
L 367.017031 251.181313 
L 367.151519 256.139103 
L 367.286007 254.404569 
L 367.554984 265.76114 
L 367.689472 266.627453 
L 367.958448 271.52558 
L 368.227425 247.971899 
L 368.496401 152.047462 
L 368.765378 100.18278 
L 369.034354 89.284424 
L 369.168842 94.004992 
L 369.303331 93.560619 
L 369.437819 96.928499 
L 369.572307 94.806869 
L 369.706795 110.911692 
L 370.244748 234.719464 
L 370.782701 278.926706 
L 370.917189 279.231705 
L 371.051677 280.123315 
L 371.186166 279.844568 
L 371.455142 265.025132 
L 371.858607 171.760729 
L 372.127583 203.745087 
L 372.262071 199.684635 
L 372.396559 201.111306 
L 372.665536 190.423919 
L 372.800024 194.218512 
L 373.203489 233.924747 
L 373.472465 256.181584 
L 373.87593 277.374503 
L 374.010418 286.393223 
L 374.144906 286.247167 
L 374.279394 287.4538 
L 374.413883 286.950718 
L 374.682859 270.389589 
L 375.220812 180.986601 
L 375.489788 177.357156 
L 375.624277 177.580059 
L 375.893253 184.115827 
L 376.027741 188.412069 
L 376.565694 255.998775 
L 376.83467 264.889577 
L 376.969159 267.726214 
L 377.103647 279.539091 
L 377.238135 278.446058 
L 377.507112 280.519003 
L 377.6416 278.552974 
L 377.776088 282.092685 
L 378.045064 279.94528 
L 378.179553 270.303196 
L 378.314041 269.677446 
L 378.448529 262.576069 
L 378.583017 263.576982 
L 378.717505 262.659598 
L 378.851994 267.171583 
L 378.986482 266.411233 
L 379.12097 267.319548 
L 379.255458 269.479364 
L 379.389947 269.362901 
L 379.927899 278.618843 
L 380.062388 278.412169 
L 380.196876 278.828858 
L 380.331364 268.917573 
L 380.465852 269.595827 
L 380.869317 272.500718 
L 381.138293 261.601885 
L 381.272782 234.499425 
L 381.541758 159.883893 
L 381.810734 139.714798 
L 381.945223 141.306618 
L 382.214199 147.79561 
L 382.348687 139.8031 
L 382.752152 189.677411 
L 383.021128 257.703717 
L 383.155616 265.634654 
L 383.290105 266.297156 
L 383.424593 267.584931 
L 383.559081 262.654347 
L 383.693569 261.942205 
L 383.962546 262.28873 
L 384.097034 263.479612 
L 384.231522 261.69496 
L 384.36601 263.087742 
L 385.038451 148.858573 
L 385.17294 151.302863 
L 385.307428 166.444481 
L 385.576404 160.797936 
L 386.248845 260.550854 
L 386.921286 279.059875 
L 387.055775 278.244634 
L 387.190263 279.522863 
L 387.324751 278.831722 
L 387.459239 278.993052 
L 387.593727 280.483205 
L 387.728216 279.908527 
L 387.862704 281.226372 
L 387.997192 280.056492 
L 388.13168 281.647834 
L 388.266169 280.66315 
L 388.400657 278.676597 
L 388.535145 278.765853 
L 388.669633 278.102874 
L 388.804121 279.242683 
L 388.93861 276.690044 
L 389.207586 278.831722 
L 389.476562 285.525956 
L 389.611051 284.466811 
L 389.745539 285.283961 
L 389.880027 285.231935 
L 390.014515 270.316561 
L 390.283492 270.565715 
L 390.41798 270.575738 
L 390.552468 270.444956 
L 390.686956 264.941126 
L 390.821445 265.126322 
L 390.955933 256.265113 
L 391.224909 200.047865 
L 391.359397 168.637708 
L 391.493886 164.643601 
L 391.762862 175.348647 
L 391.89735 174.804517 
L 392.031839 167.573312 
L 392.166327 171.276739 
L 392.300815 180.266344 
L 392.569791 240.489154 
L 392.70428 266.805966 
L 392.973256 271.653975 
L 393.107744 272.312182 
L 393.376721 265.248035 
L 393.645697 270.972381 
L 393.780185 267.577772 
L 393.914673 268.963872 
L 394.049162 261.542699 
L 394.721603 146.805674 
L 394.990579 145.732688 
L 395.125067 145.31218 
L 395.259556 156.7098 
L 395.394044 157.580885 
L 395.931997 245.824494 
L 396.200973 259.450184 
L 396.335461 255.70905 
L 396.46995 280.510411 
L 396.604438 280.894166 
L 397.007902 283.932704 
L 397.276879 270.860691 
L 397.545855 197.06565 
L 397.680343 191.87207 
L 397.94932 168.467309 
L 398.083808 154.984811 
L 398.218296 167.743234 
L 398.352785 162.971116 
L 398.487273 165.987221 
L 398.487273 165.987221 
" clip-path="url(#p4ec0a5f606)" style="fill: none; stroke: #1f77b4; stroke-width: 1.5; stroke-linecap: square"/>
   </g>
   <g id="line2d_13">
    <path d="M 73.832727 279.640671 
L 73.967215 279.724164 
L 74.236192 279.101488 
L 74.37068 277.366198 
L 74.505168 279.918337 
L 74.639657 278.650812 
L 74.774145 279.635419 
L 74.908633 266.847846 
L 75.043121 214.222484 
L 75.177609 239.356023 
L 75.446586 247.89372 
L 75.581074 247.690122 
L 75.715562 249.25901 
L 75.85005 247.321723 
L 75.984539 247.678328 
L 76.253515 242.637293 
L 76.388003 241.429269 
L 76.522492 285.352973 
L 76.791468 277.134577 
L 77.060444 271.68142 
L 77.194933 254.533748 
L 77.329421 266.331616 
L 77.463909 265.710188 
L 77.598397 266.620151 
L 77.732885 269.353783 
L 77.867374 257.659707 
L 78.001862 234.407948 
L 78.270838 128.862289 
L 78.405327 101.324756 
L 78.539815 109.570795 
L 78.674303 107.377638 
L 78.808791 107.069925 
L 78.943279 118.491651 
L 79.077768 107.676773 
L 79.61572 178.118779 
L 79.884697 248.743714 
L 80.153673 269.049493 
L 80.288161 266.966999 
L 80.42265 256.856871 
L 80.557138 277.528766 
L 80.691626 270.031352 
L 80.826114 270.914589 
L 80.960603 267.630658 
L 81.095091 260.786257 
L 81.229579 238.026205 
L 81.498555 139.79553 
L 81.633044 168.498974 
L 81.767532 168.257634 
L 81.90202 167.167556 
L 82.170996 195.407717 
L 82.305485 196.420755 
L 82.439973 191.161749 
L 82.574461 198.048673 
L 82.708949 224.997095 
L 82.977926 194.735776 
L 83.112414 210.67603 
L 83.246902 194.401692 
L 83.38139 194.129218 
L 83.650367 272.495987 
L 83.784855 268.957547 
L 83.919343 284.878682 
L 84.053831 284.93033 
L 84.18832 283.355857 
L 84.322808 194.126742 
L 84.457296 221.999524 
L 84.591784 194.126742 
L 84.860761 194.126742 
L 84.995249 195.837795 
L 85.129737 191.435371 
L 85.264225 169.385324 
L 85.398714 186.21934 
L 85.533202 187.670184 
L 85.802178 197.6081 
L 85.936666 208.881708 
L 86.205643 260.086448 
L 86.340131 259.026086 
L 86.474619 268.914972 
L 86.609107 265.962934 
L 86.743596 272.085763 
L 87.012572 292.00009 
L 87.14706 290.442853 
L 87.281549 286.51324 
L 87.416037 287.772726 
L 87.685013 284.938808 
L 87.95399 239.080015 
L 88.088478 253.547629 
L 88.222966 246.218817 
L 88.357454 256.308861 
L 88.491942 254.009095 
L 88.626431 249.110522 
L 88.760919 256.920979 
L 88.895407 241.781555 
L 89.029895 253.225777 
L 89.164384 251.020009 
L 89.298872 256.277111 
L 89.43336 280.970093 
L 89.567848 280.235174 
L 89.702336 278.844763 
L 89.836825 274.658542 
L 89.971313 276.526946 
L 90.105801 244.792951 
L 90.374777 262.73103 
L 90.509266 262.143151 
L 90.643754 254.724776 
L 90.91273 266.324051 
L 91.047218 258.37814 
L 91.181707 237.901288 
L 91.316195 246.326303 
L 91.450683 237.748531 
L 91.585171 254.115037 
L 91.71966 247.493179 
L 91.854148 252.187196 
L 91.988636 251.290714 
L 92.257612 255.380266 
L 92.392101 252.705877 
L 92.930053 267.634013 
L 93.064542 266.500908 
L 93.19903 262.946547 
L 93.333518 281.959769 
L 93.602495 274.058698 
L 93.736983 275.180197 
L 93.871471 272.317838 
L 94.140447 258.405411 
L 94.409424 163.50865 
L 94.543912 183.940086 
L 94.812888 155.369937 
L 94.947377 156.939142 
L 95.216353 179.354038 
L 95.48533 150.032479 
L 95.888794 255.412101 
L 96.023282 267.036436 
L 96.157771 268.657128 
L 96.292259 265.883685 
L 96.561235 268.922993 
L 96.695723 266.559578 
L 96.830212 266.582923 
L 96.9647 269.980122 
L 97.233676 264.786061 
L 97.502653 218.281661 
L 97.637141 163.186106 
L 97.771629 186.327636 
L 97.906117 172.950115 
L 98.040606 195.019713 
L 98.175094 185.602245 
L 98.309582 186.372719 
L 98.44407 179.095261 
L 98.578558 183.210125 
L 98.847535 200.633055 
L 99.385488 270.919506 
L 99.519976 274.051072 
L 99.654464 270.84182 
L 99.788952 286.62906 
L 100.057929 277.599005 
L 100.326905 279.393556 
L 100.461393 278.988533 
L 100.595882 277.692592 
L 100.864858 279.799661 
L 100.999346 276.585552 
L 101.133834 279.192274 
L 101.402811 275.240868 
L 101.537299 264.907096 
L 101.671787 275.952247 
L 101.940764 260.306677 
L 102.075252 265.780508 
L 102.20974 264.941551 
L 102.344228 266.416034 
L 102.478717 270.040061 
L 102.613205 278.943235 
L 102.747693 271.134541 
L 102.882181 282.17974 
L 103.016669 251.418101 
L 103.285646 272.246047 
L 103.554622 265.015775 
L 103.68911 262.116852 
L 103.823599 255.615507 
L 103.958087 223.753446 
L 104.092575 161.016067 
L 104.227063 171.379063 
L 104.361552 150.629701 
L 104.49604 172.723182 
L 104.765016 142.565245 
L 105.302969 186.150814 
L 105.706434 262.048666 
L 105.97541 254.802459 
L 106.244387 289.731469 
L 106.513363 280.561999 
L 106.647851 277.794487 
L 106.782339 280.39048 
L 106.916828 278.064949 
L 107.051316 278.758584 
L 107.320292 215.686395 
L 107.589269 256.830481 
L 107.723757 249.880349 
L 107.858245 251.277678 
L 107.992733 248.621658 
L 108.127222 249.111059 
L 108.530686 239.929949 
L 108.665174 247.355849 
L 108.934151 284.929539 
L 109.068639 279.635591 
L 109.203127 278.821773 
L 109.337615 274.117429 
L 109.472104 264.102638 
L 109.606592 268.283799 
L 109.875568 269.846845 
L 110.144545 268.651561 
L 110.279033 269.185524 
L 110.413521 268.70837 
L 110.548009 269.339399 
L 110.682498 270.957388 
L 111.085962 266.940064 
L 111.22045 270.101535 
L 111.354939 268.930659 
L 111.758403 260.458443 
L 112.161868 269.64312 
L 112.296356 269.450216 
L 112.430844 269.582099 
L 112.565333 270.108296 
L 112.699821 248.867627 
L 112.968797 264.647394 
L 113.103285 264.263814 
L 113.237774 264.374464 
L 113.372262 263.419532 
L 113.50675 267.118834 
L 113.641238 267.413118 
L 113.775726 269.621449 
L 113.910215 264.612114 
L 114.044703 265.219136 
L 114.179191 261.403653 
L 114.313679 252.772237 
L 114.582656 256.967297 
L 114.717144 255.321486 
L 114.98612 243.101298 
L 115.120609 244.143964 
L 115.389585 259.465046 
L 115.524073 259.640463 
L 115.79305 258.565453 
L 116.062026 260.909337 
L 116.196514 257.001499 
L 116.331002 267.500102 
L 116.599979 259.161671 
L 116.734467 240.565571 
L 117.003444 132.01883 
L 117.137932 93.700626 
L 117.27242 96.92195 
L 117.541396 77.025225 
L 118.213837 123.150583 
L 118.482814 220.722532 
L 118.886279 255.050825 
L 119.020767 250.360684 
L 119.155255 252.462792 
L 119.289743 256.842158 
L 119.424231 254.55866 
L 119.55872 255.803612 
L 119.693208 259.353825 
L 119.827696 257.538432 
L 119.962184 238.095935 
L 120.231161 124.884218 
L 120.365649 100.818759 
L 120.500137 98.800795 
L 120.769114 83.954876 
L 120.903602 88.192044 
L 121.03809 82.833506 
L 121.172578 87.804031 
L 121.441555 108.205455 
L 121.710531 220.01061 
L 121.845019 220.437197 
L 121.979507 246.622518 
L 122.113996 241.988512 
L 122.248484 241.353489 
L 122.382972 247.050393 
L 122.51746 263.606703 
L 122.786437 256.623865 
L 122.920925 258.057927 
L 123.055413 253.925439 
L 123.189901 238.549209 
L 123.458878 127.813996 
L 123.593366 93.497332 
L 123.727854 92.760592 
L 123.862342 89.966209 
L 123.996831 84.612619 
L 124.400295 107.543573 
L 124.534783 105.598702 
L 124.669272 114.918576 
L 124.938248 215.024961 
L 125.341713 258.540197 
L 125.610689 252.982922 
L 125.745177 271.772513 
L 126.014154 268.67619 
L 126.148642 266.907308 
L 126.28313 247.580455 
L 126.417618 246.626092 
L 126.686595 133.386664 
L 126.955571 99.652253 
L 127.09006 87.287724 
L 127.224548 91.7936 
L 127.359036 112.255394 
L 127.493524 113.889508 
L 127.628012 112.493525 
L 127.896989 138.493554 
L 128.434942 256.577557 
L 128.56943 257.949176 
L 128.703918 250.852332 
L 128.838406 263.097561 
L 128.972894 258.888675 
L 129.241871 265.596444 
L 129.376359 264.756867 
L 129.645336 230.413747 
L 129.914312 123.50147 
L 130.0488 95.022621 
L 130.183288 98.215057 
L 130.317777 84.77158 
L 130.452265 95.529205 
L 130.586753 132.98279 
L 130.721241 118.500949 
L 130.855729 116.766932 
L 130.990218 126.245356 
L 131.662659 262.004358 
L 131.797147 262.413007 
L 132.066123 256.661203 
L 132.200612 255.835299 
L 132.469588 273.941061 
L 132.738564 267.09352 
L 132.873053 266.298424 
L 133.007541 248.461984 
L 133.142029 250.176888 
L 133.276517 240.935921 
L 133.411005 240.981384 
L 133.545494 240.316834 
L 133.679982 238.134887 
L 133.81447 240.867454 
L 133.948958 239.428378 
L 134.083447 231.638554 
L 134.352423 242.418443 
L 134.621399 248.175072 
L 134.755888 254.511614 
L 134.890376 253.820597 
L 135.024864 251.532937 
L 135.428329 260.07664 
L 135.831793 265.882131 
L 135.966282 272.697093 
L 136.235258 265.030304 
L 136.369746 268.833494 
L 136.504234 267.267795 
L 136.638723 259.291936 
L 136.773211 262.273626 
L 136.907699 260.20115 
L 137.042187 260.822014 
L 137.311164 246.619982 
L 137.58014 252.292179 
L 137.714628 247.527276 
L 137.983605 258.099726 
L 138.118093 258.589821 
L 138.252581 255.098799 
L 138.387069 258.805339 
L 138.521558 265.643706 
L 138.656046 259.739562 
L 138.790534 260.434569 
L 138.925022 266.053778 
L 139.05951 266.637161 
L 139.328487 238.953548 
L 139.597463 124.690203 
L 139.731951 94.04034 
L 139.86644 97.733683 
L 140.000928 85.20117 
L 140.135416 89.341045 
L 140.538881 126.845815 
L 140.673369 131.119267 
L 140.807857 139.681757 
L 140.942345 161.968401 
L 141.076834 236.96106 
L 141.480298 264.262618 
L 141.614786 260.352447 
L 141.749275 261.462741 
L 141.883763 266.186498 
L 142.018251 263.734834 
L 142.152739 264.735733 
L 142.287228 262.451895 
L 142.421716 233.302995 
L 142.556204 228.949394 
L 142.82518 120.692535 
L 142.959669 95.754382 
L 143.094157 101.821473 
L 143.228645 91.34713 
L 143.363133 90.019193 
L 143.497621 101.18879 
L 143.63211 87.212752 
L 143.766598 96.593268 
L 143.901086 128.235047 
L 144.035574 129.519477 
L 144.304551 236.165265 
L 144.439039 234.604253 
L 144.708015 267.47335 
L 144.976992 261.90763 
L 145.11148 261.859007 
L 145.245968 263.338217 
L 145.380456 266.199696 
L 145.514945 256.391413 
L 145.649433 225.410912 
L 145.783921 234.880993 
L 146.052897 128.799259 
L 146.187386 100.019035 
L 146.321874 99.917354 
L 146.456362 103.865061 
L 146.725339 129.883427 
L 146.859827 113.534774 
L 146.994315 126.609612 
L 147.128803 114.280667 
L 147.263291 138.03287 
L 147.532268 241.695509 
L 147.801244 258.180675 
L 147.935732 266.899982 
L 148.070221 260.929667 
L 148.204709 265.166336 
L 148.339197 265.148587 
L 148.473685 263.390641 
L 148.608174 263.798967 
L 148.742662 261.685656 
L 148.87715 261.758531 
L 149.415103 106.289011 
L 149.549591 117.359131 
L 149.684079 105.653365 
L 149.818567 110.624923 
L 150.222032 155.981673 
L 150.35652 133.292982 
L 150.491009 145.573849 
L 150.759985 245.763451 
L 150.894473 246.643581 
L 151.16345 267.816012 
L 151.297938 260.496362 
L 151.701402 266.605552 
L 151.835891 266.252573 
L 151.970379 267.313138 
L 152.104867 263.654709 
L 152.64282 102.047336 
L 152.777308 118.860599 
L 153.046285 105.292539 
L 153.180773 129.319496 
L 153.315261 125.737468 
L 153.449749 173.507068 
L 153.584237 170.942679 
L 153.853214 217.101837 
L 154.12219 262.322668 
L 154.256678 273.484606 
L 154.391167 269.510355 
L 154.525655 271.43486 
L 154.660143 269.52904 
L 154.794631 270.948481 
L 154.92912 270.556271 
L 155.063608 271.964179 
L 155.332584 276.316676 
L 155.467072 273.718739 
L 155.601561 265.133971 
L 155.736049 246.867988 
L 155.870537 255.072651 
L 156.005025 252.106596 
L 156.139513 260.084217 
L 156.40849 256.804393 
L 156.542978 257.935889 
L 156.677466 260.116054 
L 156.811955 257.094544 
L 156.946443 260.353922 
L 157.080931 260.78368 
L 157.484396 268.697434 
L 157.618884 264.865443 
L 158.022348 270.737032 
L 158.156837 270.306398 
L 158.291325 271.672134 
L 158.694789 278.536098 
L 158.829278 273.986859 
L 158.963766 276.303908 
L 159.098254 274.878102 
L 159.232742 271.665512 
L 159.367231 271.389359 
L 159.501719 272.764261 
L 159.770695 263.193322 
L 159.905183 256.198406 
L 160.039672 259.834883 
L 160.17416 252.319816 
L 160.308648 257.165444 
L 160.443136 257.967532 
L 160.577624 269.06049 
L 160.846601 259.964204 
L 161.115577 264.856293 
L 161.250066 269.750741 
L 161.384554 268.351631 
L 161.519042 268.239807 
L 161.65353 268.546524 
L 161.922507 239.453683 
L 162.325971 98.30729 
L 162.460459 98.266087 
L 162.863924 88.171323 
L 162.998412 109.957172 
L 163.132901 108.04025 
L 163.267389 118.49642 
L 163.536365 176.998223 
L 163.670853 239.203348 
L 163.805342 240.670901 
L 164.074318 261.349734 
L 164.208806 260.829403 
L 164.343294 258.554012 
L 164.477783 275.212402 
L 164.612271 270.769009 
L 164.746759 272.677814 
L 165.150224 239.112772 
L 165.4192 133.052889 
L 165.553688 104.925518 
L 165.688177 125.193963 
L 165.822665 110.856389 
L 165.957153 110.827749 
L 166.091641 119.796158 
L 166.495106 100.99332 
L 166.629594 111.305577 
L 166.89857 235.254593 
L 167.033059 235.516685 
L 167.167547 238.893764 
L 167.302035 254.303311 
L 167.436523 252.282417 
L 167.571012 255.243376 
L 167.839988 264.614332 
L 167.974476 264.432221 
L 168.108964 264.928478 
L 168.377941 228.543799 
L 168.781405 95.205877 
L 168.915894 115.611825 
L 169.050382 104.065096 
L 169.319358 112.209975 
L 169.453847 89.961875 
L 169.588335 99.387161 
L 170.395264 260.254486 
L 170.529752 262.431222 
L 170.66424 259.843928 
L 170.798729 263.328059 
L 170.933217 260.391877 
L 171.202193 263.038772 
L 171.336681 267.196769 
L 171.47117 236.356097 
L 171.605658 235.046279 
L 171.874634 129.180746 
L 172.009123 101.154207 
L 172.143611 113.806382 
L 172.278099 111.506168 
L 172.547075 97.666905 
L 172.95054 136.268005 
L 173.085028 137.724661 
L 173.354005 245.724256 
L 173.488493 244.937481 
L 173.757469 265.622972 
L 173.891958 266.392113 
L 174.026446 285.039538 
L 174.160934 274.183846 
L 174.295422 273.345989 
L 174.42991 273.595774 
L 174.564399 274.803956 
L 174.967863 222.486471 
L 175.102351 166.12344 
L 175.23684 161.844714 
L 175.505816 137.339405 
L 175.640304 142.174221 
L 175.774792 163.586089 
L 175.909281 158.497428 
L 176.043769 160.119638 
L 176.178257 170.494896 
L 176.312745 165.696042 
L 176.447234 191.623042 
L 176.581722 250.09132 
L 176.71621 253.637247 
L 176.985186 270.96952 
L 177.119675 261.265636 
L 177.388651 267.764319 
L 177.523139 265.784651 
L 177.792116 273.716688 
L 177.926604 273.274712 
L 178.061092 273.619152 
L 178.19558 258.655541 
L 178.330069 256.261279 
L 178.464557 259.206695 
L 178.599045 248.877903 
L 179.00251 258.286744 
L 179.271486 251.440842 
L 179.405974 253.904435 
L 179.540462 250.053868 
L 179.674951 250.745203 
L 180.078415 272.619025 
L 180.212904 263.947117 
L 180.347392 262.979012 
L 180.48188 278.255272 
L 180.885345 273.453323 
L 181.019833 274.66316 
L 181.154321 274.115769 
L 181.557786 259.081963 
L 181.692274 262.512186 
L 181.826762 258.741863 
L 181.96125 263.796805 
L 182.095738 251.332941 
L 182.364715 265.253041 
L 182.633691 267.326413 
L 182.76818 271.99911 
L 183.037156 267.699125 
L 183.171644 276.708121 
L 183.306132 276.355799 
L 183.440621 277.346888 
L 183.709597 269.278433 
L 183.844085 288.113792 
L 183.978573 287.273336 
L 184.113062 284.629197 
L 184.516526 258.992339 
L 184.785503 173.455458 
L 184.919991 185.069768 
L 185.054479 172.404563 
L 185.188967 188.91694 
L 185.323456 181.950024 
L 185.592432 190.306635 
L 185.72692 192.138926 
L 186.399361 261.076027 
L 186.668338 272.571882 
L 186.802826 275.37588 
L 187.071802 292.871381 
L 187.206291 290.484378 
L 187.340779 285.377085 
L 187.475267 286.419741 
L 187.609755 280.293761 
L 187.744243 266.307637 
L 188.01322 178.159166 
L 188.147708 188.637037 
L 188.282196 177.113202 
L 188.551173 190.008725 
L 188.820149 204.85584 
L 188.954637 194.489363 
L 189.223614 214.572993 
L 189.627078 268.569301 
L 189.761567 269.286195 
L 189.896055 269.208939 
L 190.030543 275.467513 
L 190.165031 266.822452 
L 190.299519 270.011355 
L 190.434008 269.873147 
L 190.568496 267.339444 
L 190.837472 271.370875 
L 190.971961 272.447599 
L 191.106449 272.036674 
L 191.240937 265.039088 
L 191.509913 268.117195 
L 191.644402 261.583543 
L 191.77889 267.20596 
L 191.913378 265.370048 
L 192.047866 265.350822 
L 192.316843 257.203206 
L 192.451331 259.179539 
L 192.585819 258.203085 
L 192.720307 261.303107 
L 192.854796 271.190531 
L 192.989284 268.077349 
L 193.123772 267.852116 
L 193.392748 263.634793 
L 193.527237 263.106441 
L 193.661725 267.512774 
L 193.796213 268.169902 
L 193.930701 268.229261 
L 194.199678 254.756463 
L 194.468654 175.658602 
L 194.603142 166.290559 
L 194.73763 147.624931 
L 194.872119 150.454023 
L 195.006607 142.595492 
L 195.275583 158.291363 
L 195.410072 143.980955 
L 195.679048 168.013393 
L 195.948024 240.849796 
L 196.082513 261.735819 
L 196.217001 262.916505 
L 196.351489 262.393454 
L 196.485977 262.987236 
L 196.620465 277.904502 
L 196.754954 269.708968 
L 197.02393 268.95922 
L 197.158418 270.918751 
L 197.292907 266.680452 
L 197.427395 255.197904 
L 197.696371 180.796015 
L 197.830859 198.941394 
L 197.965348 191.42246 
L 198.099836 202.292665 
L 198.234324 198.817874 
L 198.368812 206.691319 
L 198.637789 186.163949 
L 198.906765 212.54821 
L 199.31023 274.909858 
L 199.444718 275.11518 
L 199.848183 282.067875 
L 199.982671 276.945204 
L 200.117159 277.803437 
L 200.251647 277.884376 
L 200.386135 274.402447 
L 200.520624 264.326042 
L 200.655112 268.012925 
L 200.7896 242.672914 
L 200.924088 166.980347 
L 201.058576 206.768038 
L 201.193065 192.980031 
L 201.327553 200.831292 
L 201.462041 199.585079 
L 201.596529 204.466095 
L 201.865506 188.125786 
L 201.999994 193.773139 
L 202.537947 273.506221 
L 202.672435 270.322719 
L 202.941411 274.224443 
L 203.0759 259.424827 
L 203.210388 259.718009 
L 203.344876 269.792339 
L 203.479364 267.644934 
L 203.748341 257.039369 
L 203.882829 254.310481 
L 204.286294 166.193926 
L 204.420782 160.813048 
L 204.55527 164.467295 
L 204.689758 160.424526 
L 204.824246 168.870528 
L 204.958735 158.424517 
L 205.093223 187.568907 
L 205.227711 182.63365 
L 205.765664 265.917538 
L 205.900152 264.932171 
L 206.03464 261.45334 
L 206.169129 266.222815 
L 206.303617 288.997858 
L 206.438105 280.266713 
L 206.707081 282.829117 
L 206.976058 281.953364 
L 207.514011 256.857038 
L 207.648499 259.919851 
L 207.917475 272.570872 
L 208.051964 273.05593 
L 208.186452 271.207903 
L 208.455428 260.785185 
L 208.589916 265.124425 
L 208.724405 265.45742 
L 208.858893 275.996358 
L 208.993381 276.382526 
L 209.127869 280.722397 
L 209.396846 276.667581 
L 209.531334 265.102269 
L 209.665822 271.468995 
L 209.80031 271.04348 
L 209.934799 271.688962 
L 210.069287 273.63005 
L 210.203775 253.650619 
L 210.338263 255.676021 
L 210.60724 158.748767 
L 210.741728 151.068352 
L 211.010704 120.881073 
L 211.145192 106.481173 
L 211.414169 147.64782 
L 211.548657 159.140127 
L 211.683145 158.919971 
L 212.221098 262.286844 
L 212.490075 260.287609 
L 212.759051 271.294105 
L 212.893539 274.339143 
L 213.028027 270.30618 
L 213.162516 269.782227 
L 213.297004 274.476886 
L 213.56598 243.856174 
L 213.834957 133.739508 
L 213.969445 115.062137 
L 214.103933 143.507091 
L 214.238421 143.417464 
L 214.37291 148.357208 
L 214.910862 186.795384 
L 215.045351 188.816745 
L 215.448815 269.830444 
L 215.583303 263.039211 
L 215.717792 268.909064 
L 215.85228 264.740925 
L 216.121256 269.409601 
L 216.255745 268.269521 
L 216.390233 269.509624 
L 216.524721 273.159121 
L 216.793697 250.811677 
L 217.062674 143.983791 
L 217.197162 130.477378 
L 217.466138 156.31877 
L 217.600627 174.883006 
L 217.735115 168.005793 
L 217.869603 147.166696 
L 218.004091 156.923961 
L 218.273068 206.75522 
L 218.407556 211.735079 
L 218.542044 260.49971 
L 218.945509 276.356241 
L 219.079997 257.227329 
L 219.348973 269.978073 
L 219.61795 275.591034 
L 219.752438 276.920057 
L 220.021414 250.956797 
L 220.290391 141.879049 
L 220.424879 146.068464 
L 220.559367 158.586667 
L 220.828344 152.767386 
L 220.962832 172.153627 
L 221.09732 162.256656 
L 221.231808 194.820834 
L 221.635273 210.027464 
L 221.904249 267.440756 
L 222.038738 268.651217 
L 222.173226 276.681839 
L 222.307714 269.037985 
L 222.442202 270.323451 
L 222.711179 277.35665 
L 222.845667 277.092389 
L 222.980155 278.517333 
L 223.114643 273.986963 
L 223.249132 278.371382 
L 223.518108 245.111038 
L 223.652596 261.540248 
L 223.787084 260.382408 
L 224.056061 252.203261 
L 224.325037 254.795752 
L 224.459525 259.240257 
L 224.86299 250.092292 
L 225.131967 260.531129 
L 225.266455 261.126813 
L 225.400943 256.657361 
L 225.535431 259.377767 
L 225.669919 259.264699 
L 225.804408 256.504911 
L 225.938896 265.018552 
L 226.073384 266.371866 
L 226.207872 271.021908 
L 226.34236 270.306284 
L 226.476849 272.077855 
L 226.745825 266.971269 
L 226.880313 264.426457 
L 227.014802 270.28128 
L 227.14929 269.615142 
L 227.283778 269.892099 
L 227.418266 267.147296 
L 227.552754 270.577207 
L 227.821731 269.197332 
L 227.956219 267.115621 
L 228.090707 267.487486 
L 228.225195 278.336905 
L 228.359684 274.509763 
L 228.494172 275.927395 
L 228.62866 273.071106 
L 228.763148 275.329125 
L 228.897637 274.533398 
L 229.032125 270.32734 
L 229.301101 273.782122 
L 229.435589 273.706855 
L 229.570078 261.150955 
L 229.704566 236.570924 
L 230.10803 102.798209 
L 230.242519 105.593126 
L 230.377007 99.277029 
L 230.511495 83.771307 
L 230.645983 125.360742 
L 230.780471 118.230269 
L 230.91496 124.32776 
L 231.183936 164.531436 
L 231.587401 255.470761 
L 231.721889 259.149489 
L 231.990865 268.079129 
L 232.125354 270.253353 
L 232.259842 269.394231 
L 232.528818 274.429855 
L 232.663306 270.887727 
L 232.932283 241.504157 
L 233.201259 137.036425 
L 233.335748 114.353078 
L 233.470236 124.64646 
L 233.604724 143.933201 
L 233.739212 142.381616 
L 233.8737 163.468533 
L 234.008189 132.302152 
L 234.142677 146.663202 
L 234.411653 199.109182 
L 234.546141 211.228087 
L 234.815118 266.420474 
L 234.949606 266.877684 
L 235.084094 264.301282 
L 235.218583 270.649252 
L 235.353071 269.954063 
L 235.622047 279.62613 
L 235.891024 274.293516 
L 236.16 253.183331 
L 236.428976 135.759793 
L 236.563465 113.553902 
L 236.697953 128.547417 
L 236.832441 124.673119 
L 236.966929 116.010953 
L 237.235906 174.301368 
L 237.370394 160.470344 
L 237.504882 170.271234 
L 237.908347 257.895977 
L 238.042835 268.23422 
L 238.177323 268.661332 
L 238.311811 268.108524 
L 238.4463 270.784417 
L 238.580788 270.554321 
L 238.715276 273.754813 
L 238.984252 283.138561 
L 239.253229 270.766885 
L 239.387717 244.342071 
L 239.656694 143.555051 
L 239.791182 122.225507 
L 239.92567 125.108794 
L 240.463623 178.18789 
L 240.598111 177.474025 
L 240.867087 190.678671 
L 241.136064 255.573716 
L 241.270552 257.016276 
L 241.40504 263.166642 
L 241.539529 260.440571 
L 241.674017 263.132358 
L 241.808505 261.169655 
L 241.942993 279.648793 
L 242.077481 275.662895 
L 242.21197 284.731729 
L 242.346458 278.659544 
L 242.615434 246.600517 
L 242.884411 141.784068 
L 243.018899 132.621415 
L 243.153387 164.500635 
L 243.287875 161.817675 
L 243.422363 143.59865 
L 243.556852 157.617865 
L 243.69134 153.519474 
L 243.960316 177.803995 
L 244.229293 235.716954 
L 244.498269 262.692151 
L 244.632757 269.227534 
L 244.767246 269.757586 
L 244.901734 267.174395 
L 245.17071 275.560886 
L 245.305198 273.417185 
L 245.439687 273.983052 
L 245.708663 270.174353 
L 245.843151 247.665346 
L 245.97764 268.237767 
L 246.246616 261.574691 
L 246.515592 256.44369 
L 246.650081 258.824879 
L 247.053545 270.039914 
L 247.188033 267.920102 
L 247.322522 271.13448 
L 247.45701 270.137686 
L 247.591498 271.16616 
L 247.725986 269.884097 
L 247.860475 275.202981 
L 247.994963 271.126469 
L 248.263939 272.87365 
L 248.398427 271.003612 
L 248.532916 272.19816 
L 248.667404 270.899362 
L 248.801892 274.562092 
L 248.93638 273.171475 
L 249.070868 274.127818 
L 249.205357 274.191144 
L 249.474333 275.758938 
L 249.743309 274.745735 
L 249.877798 275.400688 
L 250.146774 274.61945 
L 250.281262 273.535221 
L 250.415751 273.98588 
L 250.684727 271.876851 
L 250.819215 272.551406 
L 250.953703 272.538244 
L 251.088192 273.680727 
L 251.22268 270.810665 
L 251.357168 272.621372 
L 251.491656 271.906354 
L 251.626144 287.295126 
L 251.760633 280.818268 
L 251.895121 280.95576 
L 252.029609 279.844646 
L 252.298586 261.204686 
L 252.567562 145.86244 
L 252.70205 127.71512 
L 252.836538 142.007984 
L 252.971027 178.211953 
L 253.105515 167.792543 
L 253.374491 179.633353 
L 253.508979 179.760906 
L 253.643468 173.41568 
L 254.181421 265.28913 
L 254.450397 282.249916 
L 254.719373 280.590103 
L 254.853862 285.249582 
L 254.98835 281.968415 
L 255.122838 283.889341 
L 255.257326 283.440067 
L 255.526303 250.77515 
L 255.795279 148.290029 
L 256.064255 174.334665 
L 256.333232 159.955238 
L 256.46772 167.274668 
L 256.602208 163.836409 
L 256.736697 166.083099 
L 257.274649 249.103482 
L 257.543626 267.100752 
L 257.678114 262.838127 
L 257.812602 266.039297 
L 257.94709 264.984004 
L 258.081579 282.808048 
L 258.216067 282.191737 
L 258.350555 280.467574 
L 258.485043 277.08591 
L 258.75402 254.382568 
L 259.022996 151.275221 
L 259.291973 170.590502 
L 259.426461 170.930368 
L 259.560949 149.427194 
L 259.829925 177.689333 
L 259.964414 155.698318 
L 260.367878 217.51527 
L 260.636855 256.405553 
L 260.905831 266.057026 
L 261.040319 262.296944 
L 261.174808 262.465934 
L 261.309296 272.1112 
L 261.443784 270.051653 
L 261.578272 274.30019 
L 261.847249 265.934455 
L 261.981737 241.863723 
L 262.250713 147.90284 
L 262.385201 163.336575 
L 262.51969 165.871183 
L 262.654178 145.088452 
L 262.788666 147.564751 
L 262.923154 162.672269 
L 263.057643 153.987627 
L 263.326619 187.310987 
L 263.99906 254.963148 
L 264.133548 257.555642 
L 264.268036 257.900055 
L 264.402525 269.52481 
L 264.537013 261.216248 
L 264.671501 266.127763 
L 265.074966 261.231338 
L 265.209454 247.065173 
L 265.881895 110.141828 
L 266.016383 103.73036 
L 266.150871 123.280394 
L 266.419848 118.690443 
L 266.554336 125.512732 
L 266.823312 181.640404 
L 267.092289 252.696717 
L 267.361265 256.969897 
L 267.495754 250.432165 
L 267.630242 278.014957 
L 267.76473 266.132636 
L 267.899218 268.924796 
L 268.033706 266.567062 
L 268.302683 275.612313 
L 268.437171 274.838974 
L 268.571659 268.978211 
L 268.706147 274.206225 
L 268.840636 274.334233 
L 268.975124 270.593931 
L 269.109612 270.973989 
L 269.378589 269.501754 
L 269.916541 253.998405 
L 270.05103 251.200435 
L 270.185518 255.06281 
L 270.320006 255.699018 
L 270.454494 257.394954 
L 270.588982 262.816126 
L 270.723471 262.937101 
L 270.857959 286.220797 
L 271.126935 273.664043 
L 271.261424 275.038113 
L 271.5304 274.324507 
L 271.664888 276.326369 
L 271.799376 276.556062 
L 271.933865 278.43011 
L 272.068353 274.59178 
L 272.202841 276.708935 
L 272.337329 275.913049 
L 272.471817 276.345332 
L 272.740794 271.396745 
L 272.875282 275.146054 
L 273.144258 272.580725 
L 273.278747 268.553638 
L 273.413235 270.173183 
L 273.682211 275.254797 
L 273.8167 274.583101 
L 273.951188 275.407133 
L 274.085676 273.127558 
L 274.220164 291.840644 
L 274.354652 287.174607 
L 274.489141 286.774393 
L 274.623629 282.452289 
L 274.892605 259.481345 
L 275.161582 186.811111 
L 275.430558 152.814761 
L 275.565046 155.266775 
L 275.699535 153.969479 
L 275.834023 157.561107 
L 275.968511 189.432729 
L 276.102999 186.178601 
L 276.237487 198.082035 
L 276.506464 234.301989 
L 276.909928 271.784557 
L 277.044417 271.428953 
L 277.178905 278.010158 
L 277.313393 271.441133 
L 277.447881 284.42179 
L 277.58237 279.656923 
L 277.716858 284.787186 
L 277.851346 281.250894 
L 277.985834 273.138675 
L 278.120322 256.595498 
L 278.389299 197.456134 
L 278.523787 197.17243 
L 278.658275 178.414409 
L 278.792763 186.368703 
L 278.927252 177.908782 
L 279.06174 200.806326 
L 279.196228 190.084238 
L 279.330716 192.351744 
L 279.734181 239.413366 
L 280.003157 274.043619 
L 280.272134 276.473572 
L 280.406622 276.889379 
L 280.54111 258.632627 
L 280.810087 265.568054 
L 280.944575 267.080977 
L 281.079063 265.685916 
L 281.213551 252.960681 
L 281.348039 255.637194 
L 281.617016 135.343455 
L 281.751504 132.536111 
L 281.885992 125.372939 
L 282.020481 130.974693 
L 282.289457 153.961291 
L 282.423945 118.489434 
L 282.692922 148.442744 
L 283.230874 263.219858 
L 283.499851 262.160184 
L 283.634339 263.801276 
L 283.768827 260.177435 
L 284.037804 260.600129 
L 284.172292 263.033418 
L 284.30678 262.247129 
L 284.575757 253.243684 
L 284.979221 149.983498 
L 285.113709 153.733185 
L 285.248198 139.620275 
L 285.382686 144.549697 
L 285.517174 141.101234 
L 285.651662 159.723377 
L 285.78615 150.245577 
L 285.920639 155.689509 
L 286.324103 249.743422 
L 286.458592 260.279528 
L 286.59308 260.731589 
L 286.727568 263.669743 
L 286.862056 259.159784 
L 286.996544 290.925079 
L 287.265521 275.498056 
L 287.400009 275.680905 
L 287.668985 272.557131 
L 287.803474 270.128183 
L 287.937962 273.143553 
L 288.07245 271.432313 
L 288.206938 272.043668 
L 288.341427 268.357863 
L 288.475915 270.155916 
L 288.610403 266.298248 
L 288.744891 267.658581 
L 288.879379 266.02375 
L 289.013868 271.901613 
L 289.148356 270.346968 
L 289.282844 264.259444 
L 289.417332 275.205872 
L 289.686309 276.523786 
L 289.955285 274.100427 
L 290.089773 275.680036 
L 290.224262 272.346276 
L 290.35875 276.266671 
L 290.493238 273.596332 
L 290.627726 276.08614 
L 290.762214 272.386861 
L 290.896703 262.47399 
L 291.031191 263.860583 
L 291.165679 243.70899 
L 291.300167 168.071378 
L 291.703632 191.674437 
L 291.83812 198.782843 
L 292.107096 177.047493 
L 292.510561 200.722486 
L 292.914026 270.188877 
L 293.048514 268.444952 
L 293.183002 271.648232 
L 293.451979 265.343024 
L 293.586467 266.991095 
L 293.720955 264.550781 
L 293.855443 270.069667 
L 293.989931 268.689272 
L 294.12442 256.106965 
L 294.258908 256.753777 
L 294.393396 228.087211 
L 294.527884 171.158152 
L 294.662373 174.878864 
L 294.796861 154.912015 
L 294.931349 151.874323 
L 295.065837 135.793108 
L 295.200325 139.418088 
L 295.334814 155.467126 
L 295.469302 146.708086 
L 295.60379 184.715923 
L 295.738278 187.006591 
L 295.872766 204.186174 
L 296.141743 266.033419 
L 296.410719 256.69731 
L 296.545208 267.455854 
L 296.679696 291.393642 
L 296.814184 281.926839 
L 296.948672 281.411911 
L 297.08316 279.654981 
L 297.352137 280.518603 
L 297.486625 280.915472 
L 297.621113 281.839426 
L 297.755601 281.119249 
L 297.89009 281.725619 
L 298.159066 278.407602 
L 298.293554 278.761917 
L 298.562531 276.589066 
L 298.831507 272.900255 
L 298.965995 271.104879 
L 299.100484 270.802894 
L 299.234972 271.183137 
L 299.36946 275.691642 
L 299.503948 276.216993 
L 299.638436 274.121499 
L 299.772925 276.929181 
L 299.907413 256.787496 
L 300.041901 270.814065 
L 300.176389 268.482879 
L 300.310877 271.295526 
L 300.445366 269.884635 
L 300.714342 252.388356 
L 300.983319 163.630232 
L 301.386783 122.073033 
L 301.521271 126.822612 
L 301.65576 153.155767 
L 301.790248 138.361363 
L 301.924736 154.289924 
L 302.193712 197.656296 
L 302.328201 208.867963 
L 302.597177 256.683776 
L 302.731665 260.050652 
L 302.866153 257.189882 
L 303.13513 269.538447 
L 303.269618 265.859293 
L 303.404106 265.518549 
L 303.538595 269.460748 
L 303.673083 268.418552 
L 303.807571 246.436938 
L 303.942059 243.364847 
L 304.211036 154.1674 
L 304.345524 164.443185 
L 304.748988 154.771821 
L 304.883477 171.321644 
L 305.017965 153.421518 
L 305.152453 166.352627 
L 305.42143 214.003682 
L 305.555918 216.117568 
L 305.824894 258.468274 
L 305.959382 266.976151 
L 306.093871 263.985227 
L 306.228359 267.227515 
L 306.362847 265.297302 
L 306.497335 279.775057 
L 306.766312 275.427861 
L 306.9008 274.954196 
L 307.035288 265.078717 
L 307.169776 246.950974 
L 307.438753 148.006781 
L 307.707729 174.849862 
L 307.976706 156.968903 
L 308.111194 170.376802 
L 308.245682 156.950176 
L 308.38017 165.029841 
L 309.187099 269.792294 
L 309.321588 269.862583 
L 309.456076 272.782446 
L 309.590564 272.29765 
L 309.725052 275.885265 
L 309.859541 274.636967 
L 309.994029 275.845481 
L 310.128517 274.913943 
L 310.263005 267.715011 
L 310.397493 244.115998 
L 310.66647 150.042612 
L 310.935446 174.317817 
L 311.069934 171.570264 
L 311.204423 157.095911 
L 311.338911 167.628063 
L 311.473399 166.904848 
L 311.607887 159.285255 
L 311.742376 175.491837 
L 311.876864 216.330055 
L 312.011352 223.351118 
L 312.280328 262.944635 
L 312.414817 265.548853 
L 312.549305 265.629297 
L 312.952769 271.582799 
L 313.087258 268.010345 
L 313.221746 271.223691 
L 313.356234 269.296815 
L 313.490722 272.133465 
L 313.894187 245.568527 
L 314.028675 258.090232 
L 314.163163 254.332602 
L 314.297652 258.443648 
L 314.43214 254.718388 
L 314.566628 262.038647 
L 314.701116 263.254118 
L 314.835604 262.748158 
L 315.104581 267.799552 
L 315.373557 264.084066 
L 315.508045 268.654007 
L 315.642534 267.806199 
L 315.777022 268.280678 
L 315.91151 266.989977 
L 316.045998 269.611575 
L 316.180487 269.653234 
L 316.314975 271.480431 
L 316.449463 269.513527 
L 316.583951 271.408323 
L 316.718439 271.241522 
L 316.852928 272.949524 
L 316.987416 272.424372 
L 317.121904 270.686653 
L 317.256392 271.382952 
L 317.39088 269.566586 
L 317.525369 270.854828 
L 317.659857 268.259193 
L 317.794345 271.127464 
L 317.928833 267.463344 
L 318.063322 267.004211 
L 318.466786 261.557921 
L 318.601274 264.548989 
L 318.735763 263.382299 
L 318.870251 266.804135 
L 319.004739 265.339888 
L 319.139227 266.6389 
L 319.273715 266.734745 
L 319.408204 284.530736 
L 319.542692 278.904708 
L 319.811668 277.482017 
L 319.946157 272.269322 
L 320.080645 257.880011 
L 320.349621 150.752303 
L 320.484109 129.763557 
L 320.618598 127.295498 
L 321.022062 172.876976 
L 321.15655 173.906714 
L 321.425527 188.955332 
L 321.560015 188.15067 
L 321.96348 264.420486 
L 322.097968 266.445905 
L 322.232456 263.787641 
L 322.366944 268.805115 
L 322.501433 267.278446 
L 322.635921 283.797092 
L 322.904897 277.898909 
L 323.039385 275.351366 
L 323.308362 260.426668 
L 323.577338 151.467576 
L 323.846315 179.472348 
L 324.115291 150.395382 
L 324.384268 160.708739 
L 324.518756 164.925082 
L 324.787732 199.339679 
L 324.92222 211.66511 
L 325.191197 264.200463 
L 325.325685 263.927116 
L 325.460173 262.827654 
L 325.594661 267.802699 
L 325.72915 267.317495 
L 325.863638 279.814103 
L 325.998126 278.5786 
L 326.132614 278.987131 
L 326.267103 277.032647 
L 326.401591 270.397746 
L 326.536079 254.419672 
L 326.805055 145.996612 
L 327.074032 181.039275 
L 327.20852 161.842156 
L 327.343008 160.500026 
L 327.477496 175.700265 
L 327.746473 167.609237 
L 327.880961 176.016628 
L 328.149937 221.647947 
L 328.553402 264.172498 
L 328.822379 271.871073 
L 328.956867 271.097236 
L 329.091355 285.773036 
L 329.225843 279.341153 
L 329.360331 279.14874 
L 329.49482 276.442527 
L 329.763796 255.922886 
L 330.032772 156.788889 
L 330.301749 175.216615 
L 330.570725 160.322117 
L 330.705214 158.848875 
L 330.97419 192.419969 
L 331.108678 188.99199 
L 331.243166 191.650654 
L 331.646631 261.457592 
L 331.781119 264.271801 
L 331.915607 263.176306 
L 332.050096 264.390227 
L 332.184584 269.235512 
L 332.319072 284.299185 
L 332.588049 275.351976 
L 332.722537 276.67132 
L 332.991513 254.910264 
L 333.26049 152.346697 
L 333.529466 185.327304 
L 333.663954 166.666332 
L 333.798442 164.637974 
L 334.067419 175.475037 
L 334.336395 190.41642 
L 334.470883 196.727297 
L 334.73986 259.741588 
L 335.008836 267.928614 
L 335.277813 273.586214 
L 335.546789 268.77645 
L 335.815766 267.96224 
L 336.084742 271.879856 
L 336.757183 249.646265 
L 336.891671 254.750913 
L 337.02616 253.659966 
L 337.295136 259.038741 
L 337.564112 263.395792 
L 337.698601 265.45121 
L 337.833089 265.642326 
L 337.967577 264.015393 
L 338.102065 268.785986 
L 338.236553 268.847623 
L 338.371042 267.630971 
L 338.50553 267.818251 
L 338.640018 262.709522 
L 338.908995 266.831597 
L 339.043483 266.747626 
L 339.446947 270.225219 
L 339.581436 271.172268 
L 339.850412 268.763282 
L 339.9849 270.328288 
L 340.119388 269.30364 
L 340.253877 269.858191 
L 340.388365 269.429613 
L 340.522853 271.788523 
L 340.657341 268.727269 
L 340.791829 269.946929 
L 341.060806 268.858598 
L 341.195294 263.337782 
L 341.464271 271.19241 
L 341.598759 270.107397 
L 341.733247 270.84132 
L 341.867735 272.927158 
L 342.002223 284.892779 
L 342.2712 279.05402 
L 342.405688 279.096374 
L 342.674664 260.128858 
L 342.943641 147.032098 
L 343.078129 136.692444 
L 343.347106 178.709454 
L 343.481594 176.17202 
L 343.885058 190.98766 
L 344.019547 191.287377 
L 344.154035 188.57481 
L 344.423011 254.105946 
L 344.960964 272.442222 
L 345.095452 271.175515 
L 345.22994 282.539006 
L 345.364429 278.581908 
L 345.498917 279.25006 
L 345.633405 276.809042 
L 345.902382 256.186725 
L 346.171358 156.867686 
L 346.305846 179.468732 
L 346.440334 179.455046 
L 346.709311 167.534821 
L 346.978287 179.519537 
L 347.112775 181.056391 
L 347.247264 180.553839 
L 347.51624 226.729199 
L 347.785217 257.818877 
L 348.188681 272.221028 
L 348.323169 269.79673 
L 348.457658 283.601434 
L 348.592146 278.784431 
L 348.726634 280.614152 
L 348.861122 278.045412 
L 349.130099 257.154102 
L 349.399075 157.146986 
L 349.533563 174.419549 
L 349.937028 161.068367 
L 350.340493 188.859756 
L 350.474981 187.9937 
L 350.878445 246.814928 
L 351.147422 269.419933 
L 351.28191 267.224047 
L 351.416398 272.213965 
L 351.550886 272.30454 
L 351.685375 286.239992 
L 351.819863 278.570721 
L 351.954351 278.436844 
L 352.088839 277.313515 
L 352.223328 274.958764 
L 352.357816 261.318687 
L 352.626792 157.046769 
L 352.76128 177.26866 
L 353.030257 174.544701 
L 353.164745 164.311261 
L 353.299233 176.215585 
L 353.433721 173.207102 
L 353.702698 148.357687 
L 354.106163 253.491024 
L 354.240651 271.471394 
L 354.375139 273.464837 
L 354.509627 271.619625 
L 354.644115 272.774248 
L 354.913092 279.680218 
L 355.04758 278.266141 
L 355.182068 278.709064 
L 355.316556 278.166696 
L 355.451045 273.443345 
L 355.585533 256.53786 
L 355.854509 181.851881 
L 355.988998 184.16636 
L 356.257974 148.754941 
L 356.392462 157.011314 
L 356.52695 173.471013 
L 356.661439 173.014865 
L 356.795927 186.497377 
L 356.930415 182.429319 
L 357.199391 233.34807 
L 357.468368 275.905537 
L 357.602856 274.977989 
L 357.737344 276.749575 
L 357.871832 276.137051 
L 358.006321 281.383067 
L 358.140809 277.199039 
L 358.275297 277.015298 
L 358.409785 277.669751 
L 358.544274 277.120788 
L 358.678762 275.471906 
L 358.81325 275.316469 
L 359.082226 254.11112 
L 359.216715 251.240823 
L 359.351203 252.393364 
L 359.485691 249.15646 
L 359.620179 242.273336 
L 359.754667 263.672989 
L 360.023644 261.215444 
L 360.427109 278.57873 
L 360.561597 274.856981 
L 360.696085 275.078016 
L 360.965061 277.917281 
L 361.09955 278.691544 
L 361.368526 277.454082 
L 361.503014 276.618469 
L 361.637502 278.851162 
L 361.906479 277.103233 
L 362.040967 279.913927 
L 362.175455 279.296434 
L 362.309944 280.503602 
L 362.444432 280.468002 
L 362.713408 276.577453 
L 362.847896 277.029611 
L 363.116873 275.946095 
L 363.251361 272.810941 
L 363.385849 272.929203 
L 363.520337 275.312537 
L 363.654826 273.366281 
L 363.789314 273.736347 
L 364.192778 277.396188 
L 364.327267 223.914161 
L 364.461755 250.158086 
L 364.730731 256.08483 
L 364.86522 260.171038 
L 364.999708 255.635885 
L 365.268684 202.537182 
L 365.537661 117.941133 
L 365.806637 99.48688 
L 365.941125 99.110929 
L 366.210102 130.970998 
L 366.479078 118.200913 
L 366.613566 136.641718 
L 366.882543 239.427366 
L 367.151519 259.312314 
L 367.286007 260.840001 
L 367.420496 253.616289 
L 367.554984 267.246084 
L 367.689472 267.335653 
L 367.82396 265.90706 
L 368.092937 270.806666 
L 368.227425 238.706249 
L 368.361913 235.380511 
L 368.765378 99.709846 
L 368.899866 99.786118 
L 369.168842 88.240037 
L 369.303331 97.244734 
L 369.437819 98.416599 
L 369.572307 106.426199 
L 369.706795 102.029755 
L 369.841283 125.758267 
L 370.11026 235.272235 
L 370.244748 231.422652 
L 370.513724 257.243024 
L 370.648213 261.022835 
L 370.782701 290.165276 
L 371.051677 277.788322 
L 371.186166 277.862965 
L 371.320654 276.659416 
L 371.58963 252.343584 
L 371.858607 153.864338 
L 371.993095 158.359832 
L 372.262071 223.4527 
L 372.396559 207.025119 
L 372.531048 206.994371 
L 372.800024 191.227073 
L 372.934512 200.572879 
L 373.069001 228.927444 
L 373.203489 228.868569 
L 373.472465 261.300439 
L 373.606953 262.304986 
L 373.87593 268.403136 
L 374.144906 292.883477 
L 374.279394 286.1794 
L 374.413883 286.050161 
L 374.548371 283.666126 
L 374.817347 256.080872 
L 375.086324 188.799364 
L 375.3553 171.288725 
L 375.624277 181.262164 
L 375.758765 183.422674 
L 375.893253 192.654498 
L 376.027741 193.361164 
L 376.162229 199.888748 
L 376.431206 232.53976 
L 376.700182 265.52095 
L 376.83467 266.705096 
L 376.969159 266.543161 
L 377.103647 268.618949 
L 377.238135 287.161298 
L 377.372623 277.485825 
L 377.507112 278.069121 
L 377.6416 277.17764 
L 377.776088 272.601445 
L 377.910576 280.434726 
L 378.179553 276.302087 
L 378.314041 257.002446 
L 378.448529 263.500966 
L 378.583017 250.763261 
L 378.717505 260.30664 
L 378.851994 258.600019 
L 378.986482 268.526007 
L 379.12097 263.488601 
L 379.389947 268.555956 
L 379.524435 266.657167 
L 379.793411 274.36348 
L 379.927899 275.077896 
L 380.062388 278.346644 
L 380.196876 275.799952 
L 380.331364 276.25079 
L 380.465852 255.894454 
L 380.734829 268.147763 
L 380.869317 270.96544 
L 381.003805 270.273537 
L 381.138293 251.513235 
L 381.272782 254.785395 
L 381.541758 145.983272 
L 381.676246 143.475636 
L 381.810734 144.969645 
L 381.945223 137.536546 
L 382.348687 155.473963 
L 382.483175 140.337696 
L 383.021128 258.705017 
L 383.290105 267.728024 
L 383.424593 266.662043 
L 383.559081 266.726603 
L 383.693569 255.247411 
L 383.962546 258.89911 
L 384.097034 259.899051 
L 384.231522 262.062162 
L 384.36601 257.713216 
L 384.500499 261.751922 
L 384.769475 167.983783 
L 384.903963 159.514044 
L 385.038451 161.39246 
L 385.17294 143.378762 
L 385.307428 152.972141 
L 385.441916 181.30635 
L 385.710893 164.676734 
L 385.845381 202.79144 
L 385.979869 204.181428 
L 386.383334 269.50508 
L 386.517822 267.694496 
L 386.65231 274.224078 
L 386.786798 269.636079 
L 386.921286 282.324915 
L 387.190263 274.84641 
L 387.324751 276.948465 
L 387.459239 274.856264 
L 387.593727 275.600206 
L 387.728216 278.125653 
L 387.862704 276.28402 
L 387.997192 279.01799 
L 388.13168 276.193627 
L 388.266169 279.83383 
L 388.535145 273.629067 
L 388.669633 275.53283 
L 388.804121 274.439181 
L 388.93861 276.539818 
L 389.073098 271.258069 
L 389.611051 285.21564 
L 389.745539 280.832374 
L 389.880027 282.197926 
L 390.014515 281.407061 
L 390.149004 252.248895 
L 390.283492 264.040071 
L 390.552468 267.388327 
L 390.686956 267.103972 
L 390.821445 256.38531 
L 390.955933 261.38782 
L 391.090421 244.347492 
L 391.224909 173.779499 
L 391.359397 189.22984 
L 391.493886 153.415049 
L 391.628374 158.436478 
L 391.89735 186.27119 
L 392.031839 182.094363 
L 392.166327 168.880636 
L 392.435303 193.28046 
L 392.838768 272.784127 
L 392.973256 271.192894 
L 393.107744 271.616647 
L 393.242232 270.24359 
L 393.376721 257.7664 
L 393.511209 259.961968 
L 393.645697 270.25707 
L 393.780185 269.606347 
L 393.914673 261.916158 
L 394.049162 266.632557 
L 394.18365 251.032553 
L 394.587115 157.513882 
L 394.721603 154.913177 
L 394.856091 141.678611 
L 395.125067 149.982599 
L 395.259556 149.848616 
L 395.394044 169.775107 
L 395.528532 166.196111 
L 395.797508 215.679715 
L 396.066485 259.635435 
L 396.200973 262.394649 
L 396.335461 262.548133 
L 396.46995 252.001139 
L 396.604438 295.488 
L 396.738926 281.556505 
L 396.873414 281.242483 
L 397.007902 280.219586 
L 397.142391 281.750032 
L 397.411367 259.107256 
L 397.680343 172.080308 
L 397.814832 182.309765 
L 397.94932 166.453504 
L 398.083808 166.082494 
L 398.218296 151.794891 
L 398.352785 176.633105 
L 398.487273 168.301841 
L 398.487273 168.301841 
" clip-path="url(#p4ec0a5f606)" style="fill: none; stroke: #ff7f0e; stroke-width: 1.5; stroke-linecap: square"/>
   </g>
   <g id="patch_3">
    <path d="M 57.6 307.584 
L 57.6 41.472 
" style="fill: none; stroke: #000000; stroke-width: 0.8; stroke-linejoin: miter; stroke-linecap: square"/>
   </g>
   <g id="patch_4">
    <path d="M 414.72 307.584 
L 414.72 41.472 
" style="fill: none; stroke: #000000; stroke-width: 0.8; stroke-linejoin: miter; stroke-linecap: square"/>
   </g>
   <g id="patch_5">
    <path d="M 57.6 307.584 
L 414.72 307.584 
" style="fill: none; stroke: #000000; stroke-width: 0.8; stroke-linejoin: miter; stroke-linecap: square"/>
   </g>
   <g id="patch_6">
    <path d="M 57.6 41.472 
L 414.72 41.472 
" style="fill: none; stroke: #000000; stroke-width: 0.8; stroke-linejoin: miter; stroke-linecap: square"/>
   </g>
  </g>
 </g>
 <defs>
  <clipPath id="p4ec0a5f606">
   <rect x="57.6" y="41.472" width="357.12" height="266.112"/>
  </clipPath>
 </defs>
</svg>
