<?xml version="1.0" encoding="utf-8" standalone="no"?>
<!DOCTYPE svg PUBLIC "-//W3C//DTD SVG 1.1//EN"
  "http://www.w3.org/Graphics/SVG/1.1/DTD/svg11.dtd">
<svg xmlns:xlink="http://www.w3.org/1999/xlink" width="460.8pt" height="345.6pt" viewBox="0 0 460.8 345.6" xmlns="http://www.w3.org/2000/svg" version="1.1">
 <metadata>
  <rdf:RDF xmlns:dc="http://purl.org/dc/elements/1.1/" xmlns:cc="http://creativecommons.org/ns#" xmlns:rdf="http://www.w3.org/1999/02/22-rdf-syntax-ns#">
   <cc:Work>
    <dc:type rdf:resource="http://purl.org/dc/dcmitype/StillImage"/>
    <dc:date>2023-04-04T07:06:41.341117</dc:date>
    <dc:format>image/svg+xml</dc:format>
    <dc:creator>
     <cc:Agent>
      <dc:title>Matplotlib v3.5.2, https://matplotlib.org/</dc:title>
     </cc:Agent>
    </dc:creator>
   </cc:Work>
  </rdf:RDF>
 </metadata>
 <defs>
  <style type="text/css">*{stroke-linejoin: round; stroke-linecap: butt}</style>
 </defs>
 <g id="figure_1">
  <g id="patch_1">
   <path d="M 0 345.6 
L 460.8 345.6 
L 460.8 0 
L 0 0 
z
" style="fill: #ffffff"/>
  </g>
  <g id="axes_1">
   <g id="patch_2">
    <path d="M 57.6 307.584 
L 414.72 307.584 
L 414.72 41.472 
L 57.6 41.472 
z
" style="fill: #ffffff"/>
   </g>
   <g id="matplotlib.axis_1">
    <g id="xtick_1">
     <g id="line2d_1">
      <defs>
       <path id="m9fc662202e" d="M 0 0 
L 0 3.5 
" style="stroke: #000000; stroke-width: 0.8"/>
      </defs>
      <g>
       <use xlink:href="#m9fc662202e" x="73.832727" y="307.584" style="stroke: #000000; stroke-width: 0.8"/>
      </g>
     </g>
     <g id="text_1">
      <!-- 0 -->
      <g transform="translate(70.651477 322.182437)scale(0.1 -0.1)">
       <defs>
        <path id="DejaVuSans-30" d="M 2034 4250 
Q 1547 4250 1301 3770 
Q 1056 3291 1056 2328 
Q 1056 1369 1301 889 
Q 1547 409 2034 409 
Q 2525 409 2770 889 
Q 3016 1369 3016 2328 
Q 3016 3291 2770 3770 
Q 2525 4250 2034 4250 
z
M 2034 4750 
Q 2819 4750 3233 4129 
Q 3647 3509 3647 2328 
Q 3647 1150 3233 529 
Q 2819 -91 2034 -91 
Q 1250 -91 836 529 
Q 422 1150 422 2328 
Q 422 3509 836 4129 
Q 1250 4750 2034 4750 
z
" transform="scale(0.015625)"/>
       </defs>
       <use xlink:href="#DejaVuSans-30"/>
      </g>
     </g>
    </g>
    <g id="xtick_2">
     <g id="line2d_2">
      <g>
       <use xlink:href="#m9fc662202e" x="141.076834" y="307.584" style="stroke: #000000; stroke-width: 0.8"/>
      </g>
     </g>
     <g id="text_2">
      <!-- 500 -->
      <g transform="translate(131.533084 322.182437)scale(0.1 -0.1)">
       <defs>
        <path id="DejaVuSans-35" d="M 691 4666 
L 3169 4666 
L 3169 4134 
L 1269 4134 
L 1269 2991 
Q 1406 3038 1543 3061 
Q 1681 3084 1819 3084 
Q 2600 3084 3056 2656 
Q 3513 2228 3513 1497 
Q 3513 744 3044 326 
Q 2575 -91 1722 -91 
Q 1428 -91 1123 -41 
Q 819 9 494 109 
L 494 744 
Q 775 591 1075 516 
Q 1375 441 1709 441 
Q 2250 441 2565 725 
Q 2881 1009 2881 1497 
Q 2881 1984 2565 2268 
Q 2250 2553 1709 2553 
Q 1456 2553 1204 2497 
Q 953 2441 691 2322 
L 691 4666 
z
" transform="scale(0.015625)"/>
       </defs>
       <use xlink:href="#DejaVuSans-35"/>
       <use xlink:href="#DejaVuSans-30" x="63.623047"/>
       <use xlink:href="#DejaVuSans-30" x="127.246094"/>
      </g>
     </g>
    </g>
    <g id="xtick_3">
     <g id="line2d_3">
      <g>
       <use xlink:href="#m9fc662202e" x="208.32094" y="307.584" style="stroke: #000000; stroke-width: 0.8"/>
      </g>
     </g>
     <g id="text_3">
      <!-- 1000 -->
      <g transform="translate(195.59594 322.182437)scale(0.1 -0.1)">
       <defs>
        <path id="DejaVuSans-31" d="M 794 531 
L 1825 531 
L 1825 4091 
L 703 3866 
L 703 4441 
L 1819 4666 
L 2450 4666 
L 2450 531 
L 3481 531 
L 3481 0 
L 794 0 
L 794 531 
z
" transform="scale(0.015625)"/>
       </defs>
       <use xlink:href="#DejaVuSans-31"/>
       <use xlink:href="#DejaVuSans-30" x="63.623047"/>
       <use xlink:href="#DejaVuSans-30" x="127.246094"/>
       <use xlink:href="#DejaVuSans-30" x="190.869141"/>
      </g>
     </g>
    </g>
    <g id="xtick_4">
     <g id="line2d_4">
      <g>
       <use xlink:href="#m9fc662202e" x="275.565046" y="307.584" style="stroke: #000000; stroke-width: 0.8"/>
      </g>
     </g>
     <g id="text_4">
      <!-- 1500 -->
      <g transform="translate(262.840046 322.182437)scale(0.1 -0.1)">
       <use xlink:href="#DejaVuSans-31"/>
       <use xlink:href="#DejaVuSans-35" x="63.623047"/>
       <use xlink:href="#DejaVuSans-30" x="127.246094"/>
       <use xlink:href="#DejaVuSans-30" x="190.869141"/>
      </g>
     </g>
    </g>
    <g id="xtick_5">
     <g id="line2d_5">
      <g>
       <use xlink:href="#m9fc662202e" x="342.809153" y="307.584" style="stroke: #000000; stroke-width: 0.8"/>
      </g>
     </g>
     <g id="text_5">
      <!-- 2000 -->
      <g transform="translate(330.084153 322.182437)scale(0.1 -0.1)">
       <defs>
        <path id="DejaVuSans-32" d="M 1228 531 
L 3431 531 
L 3431 0 
L 469 0 
L 469 531 
Q 828 903 1448 1529 
Q 2069 2156 2228 2338 
Q 2531 2678 2651 2914 
Q 2772 3150 2772 3378 
Q 2772 3750 2511 3984 
Q 2250 4219 1831 4219 
Q 1534 4219 1204 4116 
Q 875 4013 500 3803 
L 500 4441 
Q 881 4594 1212 4672 
Q 1544 4750 1819 4750 
Q 2544 4750 2975 4387 
Q 3406 4025 3406 3419 
Q 3406 3131 3298 2873 
Q 3191 2616 2906 2266 
Q 2828 2175 2409 1742 
Q 1991 1309 1228 531 
z
" transform="scale(0.015625)"/>
       </defs>
       <use xlink:href="#DejaVuSans-32"/>
       <use xlink:href="#DejaVuSans-30" x="63.623047"/>
       <use xlink:href="#DejaVuSans-30" x="127.246094"/>
       <use xlink:href="#DejaVuSans-30" x="190.869141"/>
      </g>
     </g>
    </g>
    <g id="xtick_6">
     <g id="line2d_6">
      <g>
       <use xlink:href="#m9fc662202e" x="410.053259" y="307.584" style="stroke: #000000; stroke-width: 0.8"/>
      </g>
     </g>
     <g id="text_6">
      <!-- 2500 -->
      <g transform="translate(397.328259 322.182437)scale(0.1 -0.1)">
       <use xlink:href="#DejaVuSans-32"/>
       <use xlink:href="#DejaVuSans-35" x="63.623047"/>
       <use xlink:href="#DejaVuSans-30" x="127.246094"/>
       <use xlink:href="#DejaVuSans-30" x="190.869141"/>
      </g>
     </g>
    </g>
   </g>
   <g id="matplotlib.axis_2">
    <g id="ytick_1">
     <g id="line2d_7">
      <defs>
       <path id="m0d26b31503" d="M 0 0 
L -3.5 0 
" style="stroke: #000000; stroke-width: 0.8"/>
      </defs>
      <g>
       <use xlink:href="#m0d26b31503" x="57.6" y="282.9038" style="stroke: #000000; stroke-width: 0.8"/>
      </g>
     </g>
     <g id="text_7">
      <!-- 100 -->
      <g transform="translate(31.5125 286.703019)scale(0.1 -0.1)">
       <use xlink:href="#DejaVuSans-31"/>
       <use xlink:href="#DejaVuSans-30" x="63.623047"/>
       <use xlink:href="#DejaVuSans-30" x="127.246094"/>
      </g>
     </g>
    </g>
    <g id="ytick_2">
     <g id="line2d_8">
      <g>
       <use xlink:href="#m0d26b31503" x="57.6" y="234.579748" style="stroke: #000000; stroke-width: 0.8"/>
      </g>
     </g>
     <g id="text_8">
      <!-- 200 -->
      <g transform="translate(31.5125 238.378967)scale(0.1 -0.1)">
       <use xlink:href="#DejaVuSans-32"/>
       <use xlink:href="#DejaVuSans-30" x="63.623047"/>
       <use xlink:href="#DejaVuSans-30" x="127.246094"/>
      </g>
     </g>
    </g>
    <g id="ytick_3">
     <g id="line2d_9">
      <g>
       <use xlink:href="#m0d26b31503" x="57.6" y="186.255697" style="stroke: #000000; stroke-width: 0.8"/>
      </g>
     </g>
     <g id="text_9">
      <!-- 300 -->
      <g transform="translate(31.5125 190.054916)scale(0.1 -0.1)">
       <defs>
        <path id="DejaVuSans-33" d="M 2597 2516 
Q 3050 2419 3304 2112 
Q 3559 1806 3559 1356 
Q 3559 666 3084 287 
Q 2609 -91 1734 -91 
Q 1441 -91 1130 -33 
Q 819 25 488 141 
L 488 750 
Q 750 597 1062 519 
Q 1375 441 1716 441 
Q 2309 441 2620 675 
Q 2931 909 2931 1356 
Q 2931 1769 2642 2001 
Q 2353 2234 1838 2234 
L 1294 2234 
L 1294 2753 
L 1863 2753 
Q 2328 2753 2575 2939 
Q 2822 3125 2822 3475 
Q 2822 3834 2567 4026 
Q 2313 4219 1838 4219 
Q 1578 4219 1281 4162 
Q 984 4106 628 3988 
L 628 4550 
Q 988 4650 1302 4700 
Q 1616 4750 1894 4750 
Q 2613 4750 3031 4423 
Q 3450 4097 3450 3541 
Q 3450 3153 3228 2886 
Q 3006 2619 2597 2516 
z
" transform="scale(0.015625)"/>
       </defs>
       <use xlink:href="#DejaVuSans-33"/>
       <use xlink:href="#DejaVuSans-30" x="63.623047"/>
       <use xlink:href="#DejaVuSans-30" x="127.246094"/>
      </g>
     </g>
    </g>
    <g id="ytick_4">
     <g id="line2d_10">
      <g>
       <use xlink:href="#m0d26b31503" x="57.6" y="137.931646" style="stroke: #000000; stroke-width: 0.8"/>
      </g>
     </g>
     <g id="text_10">
      <!-- 400 -->
      <g transform="translate(31.5125 141.730864)scale(0.1 -0.1)">
       <defs>
        <path id="DejaVuSans-34" d="M 2419 4116 
L 825 1625 
L 2419 1625 
L 2419 4116 
z
M 2253 4666 
L 3047 4666 
L 3047 1625 
L 3713 1625 
L 3713 1100 
L 3047 1100 
L 3047 0 
L 2419 0 
L 2419 1100 
L 313 1100 
L 313 1709 
L 2253 4666 
z
" transform="scale(0.015625)"/>
       </defs>
       <use xlink:href="#DejaVuSans-34"/>
       <use xlink:href="#DejaVuSans-30" x="63.623047"/>
       <use xlink:href="#DejaVuSans-30" x="127.246094"/>
      </g>
     </g>
    </g>
    <g id="ytick_5">
     <g id="line2d_11">
      <g>
       <use xlink:href="#m0d26b31503" x="57.6" y="89.607594" style="stroke: #000000; stroke-width: 0.8"/>
      </g>
     </g>
     <g id="text_11">
      <!-- 500 -->
      <g transform="translate(31.5125 93.406813)scale(0.1 -0.1)">
       <use xlink:href="#DejaVuSans-35"/>
       <use xlink:href="#DejaVuSans-30" x="63.623047"/>
       <use xlink:href="#DejaVuSans-30" x="127.246094"/>
      </g>
     </g>
    </g>
   </g>
   <g id="line2d_12">
    <path d="M 73.832727 286.008137 
L 74.101704 285.452893 
L 74.236192 284.330326 
L 74.37068 285.304539 
L 74.505168 284.806801 
L 74.639657 285.415201 
L 74.774145 278.874057 
L 74.908633 251.467555 
L 75.177609 249.958394 
L 75.312098 250.51992 
L 75.446586 250.573076 
L 75.581074 251.449191 
L 75.715562 250.684705 
L 75.85005 250.662476 
L 76.253515 245.623244 
L 76.522492 280.048815 
L 76.65698 280.365337 
L 76.925956 278.640169 
L 77.060444 269.688621 
L 77.194933 271.956469 
L 77.463909 272.02074 
L 77.598397 273.622199 
L 77.732885 268.238417 
L 77.867374 254.68642 
L 78.405327 104.654254 
L 78.674303 103.722566 
L 78.808791 110.937831 
L 78.943279 106.083196 
L 79.481232 159.350798 
L 79.750209 230.487184 
L 80.019185 265.583977 
L 80.153673 267.731014 
L 80.288161 263.854942 
L 80.42265 274.363007 
L 80.557138 273.923741 
L 80.826114 276.458338 
L 80.960603 273.890881 
L 81.095091 263.465933 
L 81.364067 169.64817 
L 81.498555 182.081465 
L 81.767532 162.467699 
L 82.036508 170.556662 
L 82.170996 167.422364 
L 82.305485 161.383308 
L 83.112414 262.982693 
L 83.650367 289.448326 
L 83.784855 289.469105 
L 83.919343 291.014025 
L 84.053831 291.208288 
L 84.18832 289.088795 
L 84.322808 281.786548 
L 84.726273 190.684596 
L 84.860761 181.926345 
L 84.995249 186.06675 
L 85.129737 171.024923 
L 85.264225 179.658498 
L 85.398714 180.413802 
L 85.66769 188.798992 
L 85.802178 197.663073 
L 86.340131 265.13118 
L 86.474619 267.165623 
L 86.609107 272.128503 
L 86.878084 289.834435 
L 87.012572 292.109532 
L 87.14706 291.779478 
L 87.281549 293.286222 
L 87.416037 293.188124 
L 87.550525 292.368065 
L 87.819501 264.569655 
L 87.95399 264.717043 
L 88.088478 258.969864 
L 88.222966 260.445197 
L 88.357454 259.679261 
L 88.491942 256.284979 
L 88.626431 259.150112 
L 88.760919 252.08127 
L 88.895407 254.989411 
L 89.029895 254.987962 
L 89.164384 257.576198 
L 89.43336 279.105046 
L 89.567848 280.78624 
L 89.702336 280.282703 
L 89.836825 281.354047 
L 89.971313 266.042572 
L 90.105801 266.763567 
L 90.240289 268.324433 
L 90.374777 268.091512 
L 90.509266 269.340688 
L 90.643754 269.514172 
L 90.778242 271.636081 
L 90.91273 268.378556 
L 91.047218 258.333436 
L 91.181707 257.14998 
L 91.316195 250.144442 
L 91.450683 254.626498 
L 91.585171 252.639413 
L 91.71966 254.153889 
L 91.854148 254.382461 
L 92.123124 257.397399 
L 92.257612 256.818477 
L 92.526589 262.473841 
L 92.795565 269.142076 
L 92.930053 270.107591 
L 93.064542 268.954579 
L 93.19903 279.081367 
L 93.468006 279.207493 
L 93.602495 280.279804 
L 93.736983 279.032077 
L 93.871471 276.48105 
L 94.005959 271.204064 
L 94.6784 162.758127 
L 94.812888 158.311348 
L 95.081865 170.304894 
L 95.216353 165.029357 
L 95.350841 153.635513 
L 96.023282 267.496159 
L 96.157771 268.234067 
L 96.426747 272.206305 
L 96.561235 271.869003 
L 96.695723 271.947288 
L 96.830212 273.851738 
L 96.9647 273.206612 
L 97.099188 271.76269 
L 97.233676 263.197252 
L 97.368164 245.431397 
L 97.502653 203.935051 
L 97.637141 196.756997 
L 97.771629 181.10532 
L 97.906117 189.598272 
L 98.040606 182.807293 
L 98.175094 183.525388 
L 98.309582 178.144505 
L 98.44407 179.805886 
L 98.713047 191.30701 
L 98.982023 233.74036 
L 99.250999 268.995171 
L 99.385488 273.736244 
L 99.519976 274.499281 
L 99.654464 284.418759 
L 99.788952 284.431323 
L 99.923441 283.418451 
L 100.192417 284.67101 
L 100.326905 284.752678 
L 100.461393 284.090155 
L 100.595882 284.50091 
L 100.73037 285.339332 
L 100.864858 283.782814 
L 100.999346 284.952256 
L 101.133834 284.033616 
L 101.268323 281.792347 
L 101.402811 274.684845 
L 101.537299 279.006948 
L 101.806276 268.499367 
L 101.940764 270.685547 
L 102.075252 270.535259 
L 102.20974 271.191016 
L 102.344228 273.597554 
L 102.478717 279.483907 
L 102.613205 277.6099 
L 102.747693 283.346448 
L 102.882181 269.731147 
L 103.016669 269.760141 
L 103.151158 274.723988 
L 103.285646 274.50218 
L 103.554622 270.272376 
L 103.68911 266.03484 
L 103.823599 248.404776 
L 104.092575 185.406643 
L 104.227063 163.671452 
L 104.361552 170.920059 
L 104.630528 145.75386 
L 105.033993 161.2509 
L 105.168481 172.157155 
L 105.706434 256.195097 
L 105.840922 256.071387 
L 105.97541 264.872163 
L 106.109898 281.497087 
L 106.378875 284.723684 
L 106.513363 284.70967 
L 106.647851 286.891984 
L 106.782339 286.620403 
L 106.916828 287.744903 
L 107.320292 249.732721 
L 107.45478 256.879365 
L 107.589269 254.315774 
L 107.723757 254.409523 
L 108.26171 249.287173 
L 108.396198 245.840219 
L 108.530686 248.12643 
L 108.934151 280.106804 
L 109.068639 281.639643 
L 109.203127 280.560083 
L 109.337615 276.011824 
L 109.606592 277.578489 
L 109.875568 278.643068 
L 110.144545 279.704264 
L 110.413521 278.452188 
L 110.548009 278.315914 
L 110.951474 274.219484 
L 111.085962 275.406323 
L 111.22045 275.055007 
L 111.623915 269.1933 
L 111.758403 269.706985 
L 112.02738 273.53135 
L 112.430844 275.146823 
L 112.565333 264.790496 
L 112.834309 269.037213 
L 112.968797 269.566362 
L 113.103285 271.091952 
L 113.237774 271.272201 
L 113.50675 273.917459 
L 113.641238 274.756365 
L 114.313679 263.404562 
L 114.448168 263.039715 
L 114.582656 261.542153 
L 114.98612 250.599171 
L 115.524073 261.775558 
L 115.658561 262.331285 
L 115.927538 264.579803 
L 116.062026 263.282785 
L 116.196514 269.442169 
L 116.331002 269.020783 
L 116.465491 269.637881 
L 116.599979 259.784124 
L 117.137932 79.376909 
L 117.406908 64.53321 
L 117.810373 81.23207 
L 118.213837 149.080488 
L 118.482814 212.020631 
L 118.75179 246.784954 
L 118.886279 248.33374 
L 119.289743 256.404823 
L 119.424231 257.836665 
L 119.55872 260.634627 
L 119.693208 260.954532 
L 119.827696 251.245747 
L 120.365649 92.358683 
L 120.634625 73.612817 
L 120.769114 77.340051 
L 120.903602 70.858346 
L 121.03809 72.199338 
L 121.441555 136.245136 
L 121.710531 203.723875 
L 121.845019 232.177077 
L 122.248484 243.248117 
L 122.51746 258.914291 
L 122.651948 259.07521 
L 122.786437 260.830823 
L 122.920925 259.477266 
L 123.055413 251.237532 
L 123.727854 60.538261 
L 123.862342 53.568 
L 124.534783 108.224435 
L 125.072736 250.532001 
L 125.207225 255.752931 
L 125.341713 256.220708 
L 125.476201 256.173834 
L 125.745177 269.905113 
L 125.879666 271.355801 
L 126.014154 271.587757 
L 126.28313 258.006282 
L 126.821083 93.474968 
L 126.955571 74.946077 
L 127.09006 81.608031 
L 127.359036 106.383289 
L 127.493524 108.849748 
L 127.762501 127.526028 
L 127.896989 150.549539 
L 128.300453 248.898648 
L 128.434942 254.756973 
L 128.56943 252.911961 
L 128.703918 260.485789 
L 128.838406 261.216932 
L 129.241871 267.975051 
L 129.510847 247.063301 
L 130.0488 83.802909 
L 130.183288 74.605876 
L 130.317777 86.640014 
L 130.452265 115.743657 
L 130.586753 114.816319 
L 130.721241 111.133543 
L 130.855729 117.58577 
L 131.124706 171.376238 
L 131.393682 237.658957 
L 131.662659 260.984493 
L 131.931635 260.786365 
L 132.066123 260.60225 
L 132.3351 271.983531 
L 132.469588 271.833726 
L 132.604076 271.933757 
L 132.738564 271.891715 
L 133.007541 259.885121 
L 133.276517 249.3239 
L 133.679982 243.691732 
L 133.81447 242.498127 
L 133.948958 237.349683 
L 134.486911 247.322317 
L 134.755888 254.47766 
L 134.890376 254.361682 
L 135.697305 268.741953 
L 135.831793 273.538115 
L 135.966282 274.153281 
L 136.10077 272.151698 
L 136.235258 273.669557 
L 136.369746 273.39266 
L 136.504234 269.05171 
L 136.638723 268.891275 
L 136.907699 266.938016 
L 137.311164 255.950577 
L 137.445652 256.465228 
L 137.58014 253.757148 
L 137.983605 260.635594 
L 138.118093 259.725169 
L 138.252581 261.577429 
L 138.387069 266.112158 
L 138.521558 264.867331 
L 138.656046 265.070292 
L 138.925022 269.810398 
L 139.193999 253.411631 
L 139.731951 81.931319 
L 139.86644 72.929031 
L 140.269904 99.187837 
L 140.538881 123.849051 
L 140.673369 131.007776 
L 140.807857 145.505474 
L 141.076834 226.38254 
L 141.480298 259.889954 
L 142.018251 268.409484 
L 142.152739 267.941224 
L 142.421716 243.977327 
L 142.959669 92.02573 
L 143.094157 84.538401 
L 143.228645 84.045979 
L 143.363133 94.36993 
L 143.497621 85.006661 
L 143.63211 90.18265 
L 144.573527 261.149762 
L 144.708015 264.673068 
L 144.842504 264.850417 
L 145.11148 267.114399 
L 145.245968 269.27835 
L 145.380456 265.161141 
L 145.783921 203.404453 
L 146.052897 110.827652 
L 146.187386 91.522193 
L 146.456362 106.983473 
L 146.59085 118.415011 
L 146.725339 112.669281 
L 146.859827 120.15516 
L 146.994315 115.028461 
L 147.128803 128.013134 
L 147.532268 236.330046 
L 147.801244 262.601416 
L 147.935732 262.805827 
L 148.204709 268.130171 
L 148.339197 268.108425 
L 148.473685 268.617277 
L 148.742662 267.553182 
L 148.87715 249.685364 
L 149.280615 120.01792 
L 149.415103 115.93647 
L 149.549591 106.758767 
L 149.684079 108.027756 
L 150.087544 141.08479 
L 150.222032 133.3109 
L 150.35652 138.889428 
L 150.894473 254.941571 
L 151.028961 264.21109 
L 151.16345 263.243159 
L 151.835891 271.505606 
L 151.970379 270.219703 
L 152.104867 249.047003 
L 152.508332 113.94407 
L 152.64282 117.0861 
L 152.911796 105.106084 
L 153.046285 119.406621 
L 153.180773 117.889729 
L 153.449749 152.73137 
L 153.718726 194.116087 
L 153.987702 251.346261 
L 154.12219 268.579584 
L 154.256678 269.97325 
L 154.525655 273.876867 
L 154.794631 275.599136 
L 155.063608 278.575414 
L 155.198096 280.234862 
L 155.332584 279.584421 
L 155.467072 275.156488 
L 155.601561 264.568205 
L 155.736049 263.697889 
L 155.870537 260.801828 
L 156.005025 262.963846 
L 156.274002 261.046348 
L 156.40849 261.588544 
L 156.542978 262.855601 
L 156.677466 261.64605 
L 157.215419 269.741295 
L 157.349907 271.768972 
L 157.484396 270.766248 
L 157.618884 271.544748 
L 157.88786 274.754915 
L 158.022348 275.241055 
L 158.291325 278.272423 
L 158.560301 282.599841 
L 158.694789 281.016746 
L 158.829278 281.991442 
L 158.963766 281.590835 
L 159.232742 278.847479 
L 159.367231 279.132591 
L 159.501719 277.127626 
L 160.039672 262.89281 
L 160.308648 263.154726 
L 160.443136 268.935249 
L 160.577624 268.648688 
L 160.712113 266.672234 
L 160.846601 267.381631 
L 160.981089 268.889825 
L 161.250066 272.687129 
L 161.519042 273.648777 
L 161.788018 256.704432 
L 162.460459 84.233477 
L 162.594948 83.893275 
L 162.729436 82.418425 
L 162.998412 102.220172 
L 163.132901 111.261602 
L 163.401877 152.972023 
L 163.670853 224.463108 
L 164.074318 258.919607 
L 164.208806 260.064887 
L 164.477783 272.856263 
L 164.612271 275.242988 
L 164.746759 270.490317 
L 165.015735 252.793083 
L 165.4192 121.64789 
L 165.553688 124.274785 
L 165.822665 110.233266 
L 165.957153 115.545046 
L 166.091641 112.427178 
L 166.360618 100.850668 
L 166.495106 107.110566 
L 166.89857 223.554133 
L 167.033059 230.600263 
L 167.302035 249.186176 
L 167.974476 267.847475 
L 168.108964 262.113343 
L 168.243453 247.95198 
L 168.377941 209.469605 
L 168.646917 106.934666 
L 168.781405 108.2312 
L 168.915894 103.657329 
L 169.050382 104.97126 
L 169.18487 108.807223 
L 169.319358 93.316465 
L 169.453847 95.821101 
L 169.857311 149.764756 
L 170.126288 228.794393 
L 170.395264 259.937794 
L 170.529752 260.826957 
L 170.66424 264.30049 
L 170.798729 264.491853 
L 171.067705 266.843785 
L 171.202193 269.708434 
L 171.47117 247.689097 
L 172.009123 111.040278 
L 172.143611 109.447034 
L 172.412587 97.564633 
L 172.95054 130.411457 
L 173.622981 261.928262 
L 173.757469 265.959938 
L 173.891958 279.482457 
L 174.026446 278.543521 
L 174.160934 278.499062 
L 174.42991 280.046399 
L 174.698887 265.097837 
L 174.833375 247.791544 
L 175.102351 178.539796 
L 175.371328 144.810091 
L 175.505816 141.879237 
L 175.640304 152.15438 
L 175.774792 151.840757 
L 175.909281 153.264867 
L 176.043769 158.123367 
L 176.178257 157.81216 
L 176.312745 172.441784 
L 176.581722 240.833364 
L 176.850698 268.252914 
L 176.985186 265.731848 
L 177.254163 270.517862 
L 177.388651 270.473887 
L 177.792116 277.103947 
L 177.926604 278.004224 
L 178.19558 267.171422 
L 178.330069 266.726357 
L 178.599045 259.07666 
L 178.733533 258.504986 
L 178.868021 260.838555 
L 179.136998 257.289636 
L 179.271486 257.892237 
L 179.540462 255.378903 
L 179.809439 262.968679 
L 179.943927 270.320217 
L 180.212904 268.397403 
L 180.48188 278.375353 
L 180.616368 278.389367 
L 180.750856 278.765811 
L 180.885345 279.60665 
L 181.019833 279.694116 
L 181.692274 267.244874 
L 181.826762 268.555422 
L 181.96125 262.503801 
L 182.095738 264.306289 
L 182.364715 269.806532 
L 182.499203 271.0992 
L 182.633691 274.282789 
L 182.902668 273.455481 
L 183.171644 279.656424 
L 183.306132 281.088748 
L 183.440621 279.966181 
L 183.575109 277.637928 
L 183.844085 289.505348 
L 183.978573 290.46748 
L 184.113062 288.162423 
L 184.382038 276.645835 
L 184.919991 183.86414 
L 185.054479 187.925776 
L 185.188967 180.771884 
L 185.457944 184.676467 
L 185.592432 186.192876 
L 185.995897 224.381441 
L 186.264873 255.330096 
L 186.53385 271.267851 
L 186.802826 281.639643 
L 187.071802 292.257403 
L 187.206291 291.09376 
L 187.340779 292.240973 
L 187.475267 289.02694 
L 187.609755 280.936528 
L 188.01322 204.153959 
L 188.147708 187.565762 
L 188.282196 187.787086 
L 188.416684 186.817706 
L 188.551173 190.168012 
L 188.685661 196.643435 
L 188.820149 192.180709 
L 188.954637 196.667114 
L 189.089126 205.136387 
L 189.627078 267.853757 
L 189.761567 270.472438 
L 189.896055 275.768754 
L 190.030543 273.30471 
L 190.299519 275.157454 
L 190.434008 273.972549 
L 190.971961 277.4369 
L 191.106449 273.944521 
L 191.240937 273.453548 
L 191.375425 273.897163 
L 191.509913 269.41704 
L 191.644402 270.984189 
L 191.913378 269.703602 
L 192.182354 264.001847 
L 192.316843 264.354613 
L 192.451331 263.850593 
L 192.585819 265.186753 
L 192.720307 271.023815 
L 192.989284 272.296187 
L 193.392748 269.577476 
L 193.661725 272.493349 
L 193.796213 273.034096 
L 194.065189 265.054828 
L 194.603142 160.092572 
L 194.73763 155.12341 
L 194.872119 145.055094 
L 195.006607 146.649305 
L 195.141095 151.448849 
L 195.275583 143.963454 
L 195.54456 157.514001 
L 195.948024 252.643279 
L 196.217001 263.101087 
L 196.351489 265.050479 
L 196.485977 274.635071 
L 196.620465 273.974965 
L 196.889442 274.538423 
L 197.02393 275.680321 
L 197.158418 273.930023 
L 197.292907 267.533852 
L 197.830859 198.006173 
L 197.965348 200.345057 
L 198.099836 196.987986 
L 198.234324 201.443946 
L 198.5033 187.961053 
L 198.772277 201.924287 
L 199.31023 275.31934 
L 199.713694 284.539569 
L 199.848183 283.357079 
L 200.117159 284.093538 
L 200.251647 282.289118 
L 200.386135 276.441908 
L 200.520624 276.034053 
L 200.655112 262.922771 
L 200.7896 215.141399 
L 200.924088 213.148032 
L 201.058576 201.326036 
L 201.193065 200.963605 
L 201.327553 198.246827 
L 201.462041 200.445088 
L 201.731018 188.505665 
L 201.865506 189.8829 
L 202.134482 212.84649 
L 202.403459 266.951547 
L 202.806923 276.866193 
L 203.0759 268.294473 
L 203.210388 272.672632 
L 203.344876 272.800207 
L 203.748341 263.312746 
L 203.882829 245.719892 
L 204.151805 183.026201 
L 204.420782 166.359235 
L 204.55527 160.663763 
L 204.689758 164.141161 
L 204.824246 157.564741 
L 204.958735 173.777944 
L 205.093223 174.027296 
L 205.765664 262.725126 
L 205.900152 263.242193 
L 206.03464 267.087338 
L 206.169129 282.112252 
L 206.303617 282.598875 
L 206.572593 286.58416 
L 206.84157 287.405185 
L 207.110546 277.905643 
L 207.379522 268.613895 
L 207.514011 267.725698 
L 207.917475 275.939821 
L 208.051964 275.690469 
L 208.32094 269.254188 
L 208.589916 270.874977 
L 208.858893 279.021929 
L 208.993381 282.718719 
L 209.127869 283.309239 
L 209.262357 282.758828 
L 209.396846 276.834782 
L 209.531334 277.945269 
L 209.80031 277.525333 
L 209.934799 278.528057 
L 210.203775 266.202524 
L 211.010704 109.238274 
L 211.279681 135.164127 
L 211.683145 168.657527 
L 212.221098 257.336511 
L 212.355586 259.829548 
L 212.759051 275.251203 
L 212.893539 275.041477 
L 213.028027 275.142957 
L 213.162516 277.823492 
L 213.431492 259.909283 
L 213.56598 221.376168 
L 213.834957 136.458245 
L 213.969445 141.098321 
L 214.103933 139.994116 
L 214.238421 142.990691 
L 214.910862 181.768809 
L 215.448815 263.022319 
L 215.583303 268.04802 
L 215.717792 268.673333 
L 216.121256 272.987221 
L 216.255745 273.956118 
L 216.390233 276.375704 
L 216.524721 272.3189 
L 216.659209 264.709311 
L 217.062674 150.259594 
L 217.197162 152.194973 
L 217.33165 152.27664 
L 217.466138 163.881178 
L 217.600627 162.581744 
L 217.735115 150.582399 
L 217.869603 155.876782 
L 218.273068 198.582196 
L 218.542044 258.119844 
L 218.811021 275.123144 
L 218.945509 267.613587 
L 219.483462 278.464752 
L 219.61795 280.285119 
L 219.886926 266.366343 
L 220.290391 163.537111 
L 220.693856 151.733961 
L 220.828344 162.528588 
L 220.962832 158.559733 
L 221.231808 186.046454 
L 221.500785 200.082175 
L 221.769761 257.981637 
L 222.038738 273.806314 
L 222.173226 273.044244 
L 222.307714 274.284239 
L 222.576691 280.409312 
L 222.845667 283.080666 
L 222.980155 281.387874 
L 223.114643 283.28411 
L 223.38362 262.479639 
L 223.518108 266.391955 
L 223.652596 266.233452 
L 223.921573 259.185872 
L 224.190549 258.504986 
L 224.325037 261.025085 
L 224.459525 260.388658 
L 224.728502 256.481175 
L 225.131967 263.841894 
L 225.266455 262.337083 
L 225.535431 263.82788 
L 225.669919 262.498486 
L 226.073384 272.389936 
L 226.34236 275.45948 
L 226.476849 275.38651 
L 226.745825 272.199539 
L 226.880313 274.512811 
L 227.014802 274.759264 
L 227.14929 274.458205 
L 227.283778 273.019598 
L 227.418266 274.719155 
L 227.552754 274.84963 
L 227.687243 274.67808 
L 227.956219 273.554062 
L 228.090707 279.449597 
L 228.225195 279.489222 
L 228.359684 280.605991 
L 228.494172 279.822658 
L 228.62866 280.807019 
L 228.763148 280.691041 
L 228.897637 278.371487 
L 229.301101 279.287711 
L 229.435589 272.988671 
L 229.570078 258.711813 
L 230.242519 95.059031 
L 230.377007 80.01817 
L 230.511495 110.410132 
L 230.780471 118.470584 
L 231.049448 146.317318 
L 231.587401 256.5237 
L 231.856377 267.901115 
L 232.125354 272.781844 
L 232.39433 277.502621 
L 232.528818 276.677729 
L 232.797795 259.338576 
L 232.932283 222.569289 
L 233.201259 134.21311 
L 233.335748 125.925052 
L 233.470236 136.363047 
L 233.604724 136.588237 
L 233.739212 149.555996 
L 233.8737 134.616616 
L 234.008189 141.431757 
L 234.815118 267.311561 
L 234.949606 267.04143 
L 235.218583 273.026364 
L 235.622047 280.870324 
L 235.756535 280.26434 
L 236.025512 267.434304 
L 236.563465 130.000702 
L 236.832441 117.62153 
L 237.63937 202.463101 
L 237.908347 261.331943 
L 238.177323 269.531568 
L 238.849764 284.654097 
L 238.984252 283.818091 
L 239.118741 279.96763 
L 239.253229 265.87682 
L 239.791182 129.220269 
L 240.194646 147.198266 
L 240.463623 166.586842 
L 240.732599 180.227755 
L 241.270552 258.765453 
L 241.674017 264.721392 
L 241.942993 277.841855 
L 242.077481 284.430357 
L 242.21197 283.795862 
L 242.480946 265.582044 
L 242.884411 152.312883 
L 243.018899 160.292634 
L 243.153387 158.015121 
L 243.287875 146.886576 
L 243.422363 154.976505 
L 243.556852 152.126352 
L 243.825828 168.994346 
L 244.229293 241.968013 
L 244.498269 264.660021 
L 244.767246 270.005144 
L 245.17071 277.969914 
L 245.305198 278.846512 
L 245.439687 278.546903 
L 245.574175 277.301592 
L 245.708663 265.690289 
L 245.843151 271.212279 
L 246.112128 268.190093 
L 246.381104 262.941134 
L 246.515592 262.907307 
L 247.188033 273.287797 
L 247.322522 273.698551 
L 247.45701 274.577082 
L 247.591498 274.218035 
L 247.725986 277.423369 
L 247.860475 275.966399 
L 248.129451 277.307391 
L 248.263939 276.41243 
L 248.398427 277.103947 
L 248.532916 276.948827 
L 248.667404 278.919482 
L 248.801892 278.819451 
L 249.205357 280.378385 
L 249.339845 280.496296 
L 249.608821 279.535613 
L 249.743309 279.668988 
L 249.877798 279.365029 
L 250.550239 276.158245 
L 250.819215 276.462204 
L 250.953703 277.250852 
L 251.088192 276.100257 
L 251.357168 277.374079 
L 251.491656 286.385548 
L 251.626144 285.889743 
L 251.760633 286.325626 
L 251.895121 286.16374 
L 252.164097 273.764755 
L 252.70205 144.746787 
L 252.836538 164.730232 
L 252.971027 161.242685 
L 253.240003 174.313857 
L 253.374491 175.683844 
L 253.508979 172.72158 
L 253.777956 205.95403 
L 254.046932 257.956991 
L 254.315909 279.55156 
L 254.719373 288.011652 
L 254.853862 287.768582 
L 255.122838 289.523712 
L 255.391814 268.497917 
L 255.660791 174.101715 
L 255.795279 177.592161 
L 256.198744 161.723026 
L 256.333232 165.442528 
L 256.46772 162.744596 
L 256.602208 163.955597 
L 257.409138 260.226772 
L 257.812602 267.791902 
L 258.081579 283.188912 
L 258.216067 284.266055 
L 258.350555 283.527663 
L 258.619532 269.179769 
L 258.888508 178.966014 
L 259.022996 179.845995 
L 259.157484 170.679889 
L 259.291973 170.097101 
L 259.426461 154.418845 
L 259.695437 168.290264 
L 259.829925 157.019646 
L 259.964414 166.206048 
L 260.771343 263.335458 
L 261.040319 265.601856 
L 261.309296 273.194531 
L 261.443784 276.448673 
L 261.71276 273.498006 
L 261.847249 260.952116 
L 262.116225 171.692761 
L 262.250713 175.911934 
L 262.654178 149.15249 
L 262.788666 156.544137 
L 262.923154 151.714632 
L 263.326619 187.301913 
L 263.461107 198.335743 
L 263.864572 247.719058 
L 264.268036 265.986999 
L 264.402525 265.220096 
L 264.671501 268.692663 
L 264.805989 268.565087 
L 264.940478 267.602472 
L 265.074966 259.940211 
L 265.209454 240.585945 
L 265.612919 124.868205 
L 265.881895 106.530677 
L 266.016383 116.150546 
L 266.150871 116.018138 
L 266.28536 115.564375 
L 266.419848 120.253258 
L 266.688824 157.990959 
L 266.957801 237.782667 
L 267.226777 254.655492 
L 267.361265 253.215436 
L 267.495754 269.787202 
L 267.630242 269.467297 
L 267.76473 271.359667 
L 267.899218 271.67474 
L 268.168195 278.276772 
L 268.302683 279.1727 
L 268.437171 276.579148 
L 268.706147 279.147088 
L 268.975124 275.608801 
L 269.2441 273.700484 
L 269.916541 259.026403 
L 270.320006 260.939552 
L 270.588982 265.887452 
L 270.723471 280.16141 
L 270.857959 281.214391 
L 270.992447 279.717795 
L 271.126935 280.612273 
L 271.261424 280.642234 
L 271.395912 280.45377 
L 271.799376 283.26623 
L 271.933865 281.863383 
L 272.068353 282.222914 
L 272.202841 281.570056 
L 272.337329 281.80926 
L 272.471817 280.955374 
L 272.606306 278.762429 
L 272.740794 280.061379 
L 272.875282 279.734708 
L 273.00977 279.04899 
L 273.144258 276.684978 
L 273.278747 276.58398 
L 273.547723 279.600368 
L 273.682211 279.817343 
L 273.8167 280.509826 
L 273.951188 279.637094 
L 274.085676 290.424472 
L 274.354652 292.078121 
L 274.489141 290.485843 
L 274.758117 275.574008 
L 275.29607 167.664951 
L 275.565046 155.265 
L 275.699535 155.606651 
L 275.834023 173.800173 
L 275.968511 176.112479 
L 276.102999 186.404535 
L 276.77544 266.78193 
L 277.447881 284.415859 
L 277.58237 287.857981 
L 277.716858 287.461724 
L 277.851346 283.004314 
L 277.985834 272.886707 
L 278.389299 211.565902 
L 278.523787 191.818279 
L 278.658275 189.793018 
L 278.792763 180.14947 
L 278.927252 192.443109 
L 279.06174 186.544192 
L 279.196228 188.663201 
L 279.330716 196.462703 
L 280.137646 277.294827 
L 280.272134 279.713446 
L 280.406622 271.244173 
L 280.54111 270.956161 
L 280.810087 272.143 
L 280.944575 271.511405 
L 281.213551 263.485263 
L 281.348039 234.143382 
L 281.482528 162.72285 
L 281.617016 152.375705 
L 281.751504 128.658743 
L 281.885992 129.826253 
L 282.154969 143.519839 
L 282.289457 125.156699 
L 282.423945 129.300487 
L 282.558433 138.53473 
L 282.82741 187.640664 
L 283.096386 257.131617 
L 283.365363 263.852042 
L 283.499851 266.089446 
L 283.634339 265.409043 
L 283.768827 265.419675 
L 283.903316 265.611521 
L 284.037804 266.93415 
L 284.172292 267.065109 
L 284.441268 261.800687 
L 285.113709 144.948298 
L 285.248198 143.857624 
L 285.382686 139.258624 
L 285.517174 148.626725 
L 285.651662 145.483245 
L 285.78615 149.020082 
L 286.055127 202.876271 
L 286.324103 253.129902 
L 286.59308 262.940168 
L 286.727568 262.816941 
L 286.862056 282.013671 
L 286.996544 282.073593 
L 287.131033 281.082466 
L 287.265521 281.696182 
L 287.668985 278.121652 
L 287.803474 279.010814 
L 288.07245 278.124068 
L 288.206938 275.923391 
L 288.341427 275.867335 
L 288.475915 273.489308 
L 288.610403 273.113347 
L 288.744891 271.974349 
L 288.879379 274.840449 
L 289.013868 275.184516 
L 289.148356 272.336296 
L 289.417332 279.586837 
L 289.55182 280.789623 
L 289.820797 280.423326 
L 289.955285 281.224056 
L 290.089773 279.704748 
L 290.224262 281.27238 
L 290.35875 280.353256 
L 290.493238 281.346316 
L 290.627726 279.783999 
L 291.031191 261.566315 
L 291.300167 194.498814 
L 291.434655 188.840067 
L 291.569144 189.455716 
L 291.703632 193.572925 
L 291.972608 180.658322 
L 292.376073 193.91216 
L 293.048514 271.322941 
L 293.183002 272.586132 
L 293.31749 271.419106 
L 293.451979 272.180693 
L 293.586467 271.238857 
L 293.720955 273.746875 
L 293.855443 274.013624 
L 294.258908 249.774763 
L 294.527884 191.015616 
L 294.796861 158.912499 
L 294.931349 142.832671 
L 295.065837 142.69688 
L 295.200325 150.774729 
L 295.334814 144.978742 
L 295.60379 173.408748 
L 295.738278 188.091528 
L 296.141743 259.226464 
L 296.276231 258.324738 
L 296.410719 265.61877 
L 296.545208 283.531046 
L 296.948672 285.723025 
L 297.486625 287.713976 
L 297.621113 287.36411 
L 297.755601 287.360244 
L 298.024578 284.146694 
L 298.159066 283.994474 
L 298.428042 281.82569 
L 298.697019 277.952034 
L 298.831507 276.802405 
L 298.965995 276.658399 
L 299.100484 277.018414 
L 299.36946 280.850028 
L 299.503948 280.337309 
L 299.638436 281.899626 
L 299.772925 272.121254 
L 299.907413 275.565309 
L 300.041901 275.259901 
L 300.176389 276.136983 
L 300.310877 275.849938 
L 300.579854 264.744588 
L 301.252295 128.994596 
L 301.386783 129.064182 
L 301.521271 142.418534 
L 301.65576 135.39125 
L 301.790248 144.92172 
L 302.597177 255.059481 
L 302.731665 256.833941 
L 303.000642 269.394328 
L 303.13513 269.621451 
L 303.269618 270.107591 
L 303.404106 272.597246 
L 303.538595 273.021531 
L 303.807571 256.461845 
L 304.345524 165.581218 
L 304.6145 154.929147 
L 304.748988 163.267946 
L 304.883477 153.577041 
L 305.017965 159.732075 
L 306.093871 267.826696 
L 306.228359 268.849716 
L 306.497335 279.129691 
L 306.766312 280.172041 
L 306.9008 275.40584 
L 307.035288 264.737339 
L 307.304265 171.126403 
L 307.438753 178.476974 
L 307.842217 158.979186 
L 307.976706 166.116649 
L 308.111194 157.594702 
L 308.245682 162.617987 
L 308.649147 209.183526 
L 309.052611 266.239251 
L 309.590564 278.619873 
L 309.994029 280.344075 
L 310.128517 276.747316 
L 310.263005 263.976719 
L 310.531982 171.013808 
L 310.66647 172.179384 
L 310.935446 169.862246 
L 311.069934 160.396531 
L 311.204423 166.930909 
L 311.338911 165.624227 
L 311.473399 158.767527 
L 311.607887 172.064856 
L 311.876864 210.101683 
L 312.14584 252.947237 
L 312.414817 264.897292 
L 312.818281 273.613501 
L 312.952769 273.174235 
L 313.087258 275.083035 
L 313.221746 274.983004 
L 313.356234 276.579148 
L 313.625211 265.893734 
L 313.759699 257.905768 
L 313.894187 261.299566 
L 314.028675 258.739841 
L 314.163163 260.646225 
L 314.297652 257.852128 
L 314.566628 264.495719 
L 314.701116 265.239426 
L 314.970093 270.051052 
L 315.104581 270.012876 
L 315.239069 269.712783 
L 315.508045 272.68133 
L 315.642534 273.224976 
L 315.777022 272.890573 
L 316.180487 275.917108 
L 316.314975 275.472044 
L 316.718439 277.855386 
L 316.852928 278.107638 
L 316.987416 277.243604 
L 317.121904 277.309808 
L 317.256392 276.176125 
L 317.39088 276.322547 
L 317.525369 274.76458 
L 317.659857 275.695301 
L 317.928833 273.144758 
L 318.332298 269.361951 
L 318.466786 270.024474 
L 318.601274 269.515621 
L 318.735763 270.989988 
L 318.870251 270.824237 
L 319.139227 271.954536 
L 319.273715 281.912673 
L 319.67718 283.044906 
L 319.811668 280.433957 
L 319.946157 272.380754 
L 320.349621 148.869795 
L 320.484109 132.517419 
L 320.887574 160.136064 
L 321.022062 164.860707 
L 321.291039 179.827632 
L 321.425527 181.650415 
L 321.560015 200.320895 
L 321.828991 256.54158 
L 321.96348 264.730091 
L 322.097968 265.526471 
L 322.635921 282.435056 
L 322.770409 282.786372 
L 322.904897 282.119017 
L 323.173874 271.556829 
L 323.44285 174.898578 
L 323.577338 175.264875 
L 323.711826 175.468802 
L 323.980803 155.03981 
L 324.249779 158.623038 
L 324.384268 161.4239 
L 324.787732 198.119735 
L 325.056709 253.323681 
L 325.325685 262.711112 
L 325.863638 280.755796 
L 325.998126 282.545235 
L 326.132614 282.611439 
L 326.267103 279.358264 
L 326.401591 270.246764 
L 326.670567 167.618077 
L 326.805055 173.647952 
L 326.939544 174.834791 
L 327.20852 161.44323 
L 327.343008 169.688279 
L 327.611985 165.887593 
L 327.746473 170.807948 
L 328.149937 226.186344 
L 328.418914 257.416245 
L 328.68789 270.386904 
L 328.822379 272.87076 
L 328.956867 283.04249 
L 329.225843 284.001239 
L 329.360331 283.143487 
L 329.629308 270.151083 
L 330.032772 180.02576 
L 330.301749 168.545415 
L 330.570725 159.627212 
L 330.839702 181.753345 
L 330.97419 182.980776 
L 331.108678 185.760375 
L 331.781119 262.590302 
L 332.050096 269.842775 
L 332.184584 280.751447 
L 332.319072 281.719377 
L 332.45356 281.046223 
L 332.588049 282.046048 
L 332.857025 269.28125 
L 333.26049 179.386433 
L 333.394978 181.319878 
L 333.663954 166.223445 
L 333.798442 167.43058 
L 333.932931 171.244314 
L 334.336395 189.330556 
L 334.73986 257.907218 
L 335.143325 273.830959 
L 335.277813 273.629931 
L 335.412301 273.728512 
L 335.546789 274.01749 
L 335.681277 273.911177 
L 335.950254 276.525025 
L 336.084742 274.404566 
L 336.622695 257.7376 
L 336.757183 258.542196 
L 336.891671 256.690418 
L 337.295136 263.126698 
L 337.698601 267.917545 
L 337.833089 267.432371 
L 338.102065 271.582441 
L 338.236553 271.347586 
L 338.371042 271.992712 
L 338.50553 269.6287 
L 339.043483 272.826302 
L 339.446947 275.85912 
L 339.581436 275.37153 
L 339.715924 274.188074 
L 339.850412 274.450473 
L 339.9849 273.660858 
L 340.119388 273.546814 
L 340.253877 273.067439 
L 340.388365 274.562585 
L 340.522853 272.549405 
L 340.657341 273.155389 
L 340.926318 272.833067 
L 341.060806 269.453767 
L 341.329782 274.395384 
L 341.464271 274.292454 
L 341.598759 274.827401 
L 341.733247 276.412913 
L 341.867735 284.330326 
L 342.136712 284.433256 
L 342.2712 285.082731 
L 342.540176 272.232399 
L 342.943641 155.653525 
L 343.212617 172.464979 
L 343.347106 171.721755 
L 343.75057 186.281792 
L 343.885058 187.977 
L 344.019547 187.306262 
L 344.423011 256.018714 
L 345.22994 282.025268 
L 345.364429 283.122224 
L 345.498917 282.750129 
L 345.633405 278.482149 
L 345.767893 270.299437 
L 346.03687 185.021501 
L 346.171358 189.18945 
L 346.440334 175.459621 
L 346.574823 170.023165 
L 346.843799 176.985211 
L 347.112775 178.876614 
L 347.381752 213.775278 
L 347.650728 253.158896 
L 348.054193 271.338405 
L 348.188681 272.534908 
L 348.323169 281.612581 
L 348.457658 282.470816 
L 348.592146 284.364153 
L 348.726634 284.166507 
L 348.99561 271.10355 
L 349.264587 183.958372 
L 349.399075 185.450135 
L 349.668052 167.679932 
L 349.80254 163.518264 
L 350.206004 182.44003 
L 350.340493 183.634117 
L 351.012934 264.782764 
L 351.147422 267.131313 
L 351.550886 283.99544 
L 351.685375 283.274928 
L 351.954351 283.646057 
L 352.088839 282.232095 
L 352.223328 274.855912 
L 352.492304 179.832464 
L 352.626792 187.082522 
L 352.76128 175.578015 
L 352.895769 174.860886 
L 353.030257 166.484395 
L 353.164745 173.780843 
L 353.299233 171.67923 
L 353.56821 153.693501 
L 354.240651 271.481444 
L 354.375139 272.632523 
L 354.644115 278.5643 
L 354.913092 282.888819 
L 355.182068 283.94325 
L 355.316556 281.51255 
L 355.451045 272.276858 
L 355.854509 198.110553 
L 356.123486 159.324703 
L 356.257974 161.05857 
L 356.392462 169.769947 
L 356.52695 169.12917 
L 356.661439 179.860009 
L 356.795927 178.593919 
L 357.33388 267.120681 
L 357.602856 276.830433 
L 357.737344 278.818001 
L 357.871832 283.123191 
L 358.006321 282.537987 
L 358.140809 282.754962 
L 358.275297 283.503501 
L 358.409785 283.414585 
L 358.678762 282.14028 
L 359.082226 263.455785 
L 359.351203 257.481 
L 359.485691 251.136052 
L 359.620179 261.995432 
L 359.754667 263.426308 
L 359.889156 263.596408 
L 360.427109 278.053031 
L 360.561597 278.740683 
L 360.965061 282.93666 
L 361.234038 282.896551 
L 361.368526 282.702772 
L 361.503014 284.023468 
L 361.771991 283.611264 
L 361.906479 284.957572 
L 362.040967 284.909248 
L 362.175455 285.289075 
L 362.309944 285.33015 
L 362.57892 281.877397 
L 362.713408 281.827623 
L 362.982385 280.679444 
L 363.116873 279.169317 
L 363.251361 279.066387 
L 363.385849 280.170108 
L 363.520337 279.306074 
L 363.654826 279.245669 
L 364.05829 282.064894 
L 364.192778 255.748582 
L 364.730731 262.080483 
L 364.86522 260.870932 
L 364.999708 248.644947 
L 365.134196 226.227903 
L 365.403172 136.839522 
L 365.672149 106.180328 
L 365.806637 100.187662 
L 366.075613 117.336901 
L 366.34459 114.154763 
L 366.479078 125.724507 
L 367.017031 253.637788 
L 367.151519 258.657207 
L 367.286007 256.901111 
L 367.554984 268.398852 
L 367.689472 269.275934 
L 367.958448 274.234948 
L 368.227425 250.388479 
L 368.496401 153.271633 
L 368.765378 100.762235 
L 369.034354 89.728404 
L 369.168842 94.507653 
L 369.303331 94.057756 
L 369.437819 97.467501 
L 369.572307 95.319497 
L 369.706795 111.624515 
L 370.244748 236.971306 
L 370.782701 281.728076 
L 370.917189 282.036866 
L 371.051677 282.93956 
L 371.186166 282.657347 
L 371.455142 267.653696 
L 371.858607 173.229949 
L 372.127583 205.611896 
L 372.262071 201.500969 
L 372.396559 202.945375 
L 372.665536 192.125136 
L 372.800024 195.966898 
L 373.203489 236.16671 
L 373.472465 258.700215 
L 373.87593 280.156577 
L 374.010418 289.287407 
L 374.144906 289.139535 
L 374.279394 290.361167 
L 374.413883 289.851832 
L 374.682859 273.084836 
L 375.220812 182.570505 
L 375.489788 178.895944 
L 375.624277 179.121617 
L 375.893253 185.73863 
L 376.027741 190.088278 
L 376.565694 258.515134 
L 376.83467 267.516455 
L 376.969159 270.388354 
L 377.103647 282.348073 
L 377.238135 281.241452 
L 377.507112 283.340166 
L 377.6416 281.349698 
L 377.776088 284.93341 
L 378.045064 282.759311 
L 378.179553 272.997369 
L 378.314041 272.363841 
L 378.448529 265.174189 
L 378.583017 266.187544 
L 378.717505 265.258756 
L 378.851994 269.826828 
L 378.986482 269.057026 
L 379.12097 269.976633 
L 379.255458 272.163296 
L 379.389947 272.045385 
L 379.927899 281.416385 
L 380.062388 281.207142 
L 380.196876 281.629011 
L 380.331364 271.594522 
L 380.465852 272.281207 
L 380.869317 275.222209 
L 381.138293 264.187895 
L 381.272782 236.748532 
L 381.541758 161.205475 
L 381.810734 140.785664 
L 381.945223 142.397271 
L 382.214199 148.966926 
L 382.348687 140.875064 
L 382.752152 191.369348 
L 383.021128 260.241269 
L 383.155616 268.270794 
L 383.290105 268.941532 
L 383.424593 270.245314 
L 383.559081 265.25344 
L 383.693569 264.532445 
L 383.962546 264.883278 
L 384.097034 266.088963 
L 384.231522 264.282127 
L 384.36601 265.692222 
L 385.038451 150.043103 
L 385.17294 152.517777 
L 385.307428 167.847616 
L 385.576404 162.130881 
L 386.248845 263.123799 
L 386.921286 281.8629 
L 387.055775 281.037525 
L 387.190263 282.331643 
L 387.324751 281.631911 
L 387.459239 281.795246 
L 387.593727 283.303923 
L 387.728216 282.722101 
L 387.862704 284.056328 
L 387.997192 282.871906 
L 388.13168 284.48303 
L 388.266169 283.486105 
L 388.400657 281.474858 
L 388.535145 281.565224 
L 388.669633 280.894002 
L 388.804121 282.047981 
L 388.93861 279.463611 
L 389.207586 281.631911 
L 389.476562 288.409359 
L 389.611051 287.337048 
L 389.745539 288.164356 
L 389.880027 288.111683 
L 390.014515 273.0109 
L 390.149004 273.25107 
L 390.41798 273.2733 
L 390.552468 273.140892 
L 390.686956 267.568645 
L 390.821445 267.756143 
L 390.955933 258.784782 
L 391.224909 201.868715 
L 391.359397 170.068106 
L 391.493886 166.02435 
L 391.762862 176.862468 
L 391.89735 176.311574 
L 392.031839 168.99048 
L 392.166327 172.739943 
L 392.300815 181.841295 
L 392.569791 242.812717 
L 392.70428 269.456666 
L 392.973256 274.36494 
L 393.107744 275.031329 
L 393.376721 267.879369 
L 393.645697 273.674872 
L 393.780185 270.238066 
L 393.914673 271.641396 
L 394.049162 264.127973 
L 394.721603 147.964685 
L 394.990579 146.878361 
L 395.125067 146.452626 
L 395.259556 157.991926 
L 395.394044 158.87384 
L 395.931997 248.214379 
L 396.200973 262.009446 
L 396.335461 258.221807 
L 396.46995 283.331468 
L 396.604438 283.719993 
L 397.007902 286.796302 
L 397.276879 273.561794 
L 397.545855 198.849428 
L 397.680343 193.591288 
L 397.94932 169.895589 
L 398.083808 156.245495 
L 398.218296 169.162514 
L 398.352785 164.331075 
L 398.487273 167.384672 
L 398.487273 167.384672 
" clip-path="url(#p5825799b82)" style="fill: none; stroke: #1f77b4; stroke-width: 1.5; stroke-linecap: square"/>
   </g>
   <g id="line2d_13">
    <path d="M 73.832727 282.775364 
L 73.967215 283.1415 
L 74.236192 282.595921 
L 74.37068 280.913973 
L 74.505168 282.753667 
L 74.639657 281.612195 
L 74.774145 283.021853 
L 74.908633 271.340886 
L 75.043121 226.594101 
L 75.177609 245.035433 
L 75.446586 249.394432 
L 75.581074 249.909661 
L 75.715562 251.364654 
L 75.85005 250.638067 
L 75.984539 252.61894 
L 76.388003 249.906557 
L 76.522492 283.115674 
L 76.65698 283.071637 
L 76.925956 277.917005 
L 77.060444 278.432775 
L 77.194933 264.555845 
L 77.329421 268.417423 
L 77.463909 265.87749 
L 77.732885 267.788478 
L 77.867374 255.67165 
L 78.001862 231.236073 
L 78.270838 126.946879 
L 78.405327 101.096081 
L 78.539815 104.037411 
L 78.674303 112.579867 
L 78.808791 106.421029 
L 78.943279 114.069894 
L 79.077768 109.754318 
L 79.61572 193.666536 
L 79.884697 250.725091 
L 80.288161 273.299115 
L 80.42265 264.304109 
L 80.557138 277.362993 
L 80.691626 271.679378 
L 80.826114 272.223153 
L 80.960603 270.658008 
L 81.095091 264.964958 
L 81.229579 246.193596 
L 81.498555 145.917996 
L 81.633044 166.777937 
L 81.90202 153.175638 
L 82.036508 205.549801 
L 82.170996 210.678438 
L 82.305485 209.522112 
L 82.439973 213.238448 
L 82.574461 199.716547 
L 82.708949 224.149075 
L 82.977926 210.893179 
L 83.112414 221.201054 
L 83.246902 210.67685 
L 83.38139 210.634262 
L 83.919343 282.695797 
L 84.053831 284.02491 
L 84.18832 281.063699 
L 84.322808 210.634012 
L 84.457296 238.077449 
L 84.591784 210.634012 
L 84.860761 210.634012 
L 84.995249 211.107728 
L 85.264225 168.05554 
L 85.533202 187.460473 
L 85.66769 192.895397 
L 85.936666 217.916243 
L 86.205643 264.325413 
L 86.340131 262.252475 
L 86.474619 270.639629 
L 86.609107 269.496193 
L 87.14706 292.629143 
L 87.281549 290.210113 
L 87.416037 291.561941 
L 87.685013 289.913635 
L 87.95399 249.73008 
L 88.088478 262.775063 
L 88.222966 256.896954 
L 88.357454 262.275809 
L 88.491942 261.363884 
L 88.626431 255.984985 
L 88.760919 261.715073 
L 88.895407 249.349476 
L 89.029895 257.401162 
L 89.164384 256.879647 
L 89.298872 261.784557 
L 89.43336 280.483404 
L 89.567848 281.601549 
L 89.702336 276.59503 
L 89.971313 279.809562 
L 90.105801 258.616433 
L 90.240289 263.918556 
L 90.374777 264.550608 
L 90.509266 265.74398 
L 90.643754 268.199638 
L 90.778242 265.763688 
L 90.91273 268.845111 
L 91.181707 247.039402 
L 91.316195 253.462777 
L 91.450683 245.804312 
L 91.585171 256.504777 
L 91.71966 252.637116 
L 91.854148 254.987832 
L 91.988636 254.908592 
L 92.257612 259.438356 
L 92.392101 258.615585 
L 92.795565 269.865829 
L 92.930053 271.782114 
L 93.064542 271.264337 
L 93.19903 269.302003 
L 93.333518 282.50626 
L 93.602495 278.093976 
L 93.736983 276.926496 
L 93.871471 274.216116 
L 94.140447 258.853502 
L 94.409424 166.261467 
L 94.543912 177.621783 
L 94.812888 157.334729 
L 94.947377 154.737433 
L 95.216353 172.242341 
L 95.350841 170.157827 
L 95.48533 164.647381 
L 95.888794 255.557562 
L 96.023282 268.874606 
L 96.157771 270.852019 
L 96.292259 269.168406 
L 96.426747 274.266098 
L 96.561235 274.113427 
L 96.830212 270.09856 
L 96.9647 271.313102 
L 97.099188 270.370125 
L 97.233676 266.652592 
L 97.502653 214.559659 
L 97.637141 165.472941 
L 97.771629 182.826173 
L 97.906117 171.273739 
L 98.040606 187.635144 
L 98.175094 179.242133 
L 98.309582 180.994722 
L 98.44407 179.539422 
L 98.847535 211.436412 
L 99.250999 272.986476 
L 99.385488 272.106136 
L 99.519976 274.179942 
L 99.654464 278.644947 
L 99.788952 289.487543 
L 100.192417 280.872798 
L 100.326905 281.332065 
L 100.461393 280.547987 
L 100.73037 276.906118 
L 100.864858 278.050445 
L 100.999346 278.199448 
L 101.133834 284.671946 
L 101.268323 284.547406 
L 101.402811 282.354896 
L 101.537299 272.019573 
L 101.671787 281.176103 
L 101.940764 264.409749 
L 102.075252 269.780645 
L 102.20974 270.671509 
L 102.478717 276.158471 
L 102.613205 282.762437 
L 102.747693 277.457542 
L 102.882181 285.994677 
L 103.016669 263.024475 
L 103.151158 265.144409 
L 103.285646 270.224565 
L 103.420134 269.83504 
L 103.823599 251.225759 
L 104.092575 162.046345 
L 104.227063 171.38208 
L 104.361552 155.176694 
L 104.49604 171.7096 
L 104.765016 147.578174 
L 105.302969 194.593866 
L 105.706434 266.957419 
L 105.97541 258.52252 
L 106.244387 288.565777 
L 106.378875 288.506412 
L 106.513363 287.232658 
L 106.647851 282.86048 
L 106.782339 285.461827 
L 106.916828 283.567225 
L 107.051316 285.297296 
L 107.320292 217.282888 
L 107.589269 252.601418 
L 107.723757 247.489983 
L 107.858245 250.060936 
L 107.992733 249.897878 
L 108.127222 251.160003 
L 108.396198 249.919741 
L 108.530686 247.931174 
L 108.665174 254.122133 
L 108.934151 284.050752 
L 109.068639 281.248984 
L 109.203127 280.917187 
L 109.337615 279.442471 
L 109.472104 273.177945 
L 109.606592 275.160978 
L 109.74108 274.988263 
L 109.875568 276.639483 
L 110.010056 276.076147 
L 110.279033 276.718401 
L 110.413521 274.367284 
L 110.548009 275.026151 
L 110.682498 277.605343 
L 110.816986 277.587272 
L 110.951474 276.963237 
L 111.085962 276.942976 
L 111.22045 278.494708 
L 111.354939 276.834832 
L 111.758403 268.699045 
L 112.161868 275.250433 
L 112.430844 274.879744 
L 112.565333 275.255403 
L 112.699821 261.004684 
L 112.834309 266.04378 
L 113.237774 269.050305 
L 113.372262 267.872373 
L 113.50675 270.993409 
L 113.641238 269.817692 
L 113.775726 271.495135 
L 113.910215 269.620178 
L 114.044703 272.465429 
L 114.179191 271.019827 
L 114.313679 264.497116 
L 114.448168 265.098196 
L 114.582656 264.146008 
L 114.717144 261.935526 
L 114.98612 252.288074 
L 115.120609 253.209443 
L 115.389585 264.362207 
L 115.524073 264.9433 
L 115.658561 264.805605 
L 115.927538 263.740634 
L 116.062026 262.216876 
L 116.196514 257.772491 
L 116.331002 266.996627 
L 116.465491 261.850191 
L 116.599979 262.993731 
L 116.734467 241.332671 
L 117.003444 124.671918 
L 117.137932 85.815127 
L 117.27242 85.799474 
L 117.406908 82.447818 
L 117.541396 72.627894 
L 117.810373 84.359112 
L 118.213837 147.325221 
L 118.482814 229.475231 
L 118.886279 256.443107 
L 119.020767 256.506591 
L 119.155255 256.197996 
L 119.289743 256.771213 
L 119.55872 253.239806 
L 119.693208 254.626634 
L 119.827696 252.421544 
L 119.962184 233.201832 
L 120.231161 124.975991 
L 120.500137 95.408479 
L 120.634625 95.797053 
L 120.769114 88.995766 
L 120.903602 91.367681 
L 121.03809 87.561127 
L 121.172578 99.02623 
L 121.576043 181.858311 
L 121.710531 229.42849 
L 121.845019 235.402842 
L 121.979507 251.940278 
L 122.113996 247.067935 
L 122.382972 249.385371 
L 122.51746 261.466903 
L 122.920925 254.343074 
L 123.055413 249.332806 
L 123.189901 234.591592 
L 123.458878 128.455197 
L 123.727854 92.112348 
L 123.862342 91.013935 
L 123.996831 87.297442 
L 124.265807 105.595111 
L 124.534783 122.325238 
L 124.669272 139.232632 
L 125.072736 242.228833 
L 125.207225 261.702063 
L 125.341713 258.455562 
L 125.476201 262.039326 
L 125.610689 257.917024 
L 125.745177 270.15462 
L 125.879666 269.551556 
L 126.014154 269.562456 
L 126.148642 265.721741 
L 126.417618 241.182984 
L 126.686595 131.250557 
L 126.955571 93.815475 
L 127.09006 86.72074 
L 127.224548 89.119689 
L 127.896989 159.474088 
L 128.300453 246.320029 
L 128.434942 258.996065 
L 128.56943 257.784122 
L 128.703918 258.724005 
L 128.838406 263.975241 
L 128.972894 259.36198 
L 129.241871 262.751324 
L 129.376359 261.751189 
L 129.645336 224.169541 
L 129.914312 122.614859 
L 130.0488 89.894953 
L 130.183288 90.457994 
L 130.317777 86.860148 
L 130.452265 96.384226 
L 130.586753 125.10579 
L 130.721241 115.370802 
L 130.855729 120.025935 
L 131.124706 167.306995 
L 131.528171 253.343417 
L 131.662659 263.13219 
L 131.797147 263.514596 
L 131.931635 266.421624 
L 132.200612 261.135621 
L 132.3351 265.139176 
L 132.469588 272.536744 
L 132.738564 269.117644 
L 132.873053 267.792504 
L 133.007541 254.121528 
L 133.142029 252.817984 
L 133.411005 245.442012 
L 133.679982 241.086786 
L 133.81447 243.609275 
L 133.948958 242.377076 
L 134.083447 237.697559 
L 134.352423 247.464532 
L 134.890376 260.279776 
L 135.024864 259.401737 
L 135.29384 263.550415 
L 135.428329 263.971205 
L 135.562817 264.771804 
L 135.831793 267.265658 
L 135.966282 273.207801 
L 136.10077 271.736542 
L 136.235258 266.736949 
L 136.504234 271.491684 
L 136.638723 267.388144 
L 136.773211 271.18601 
L 137.042187 269.285907 
L 137.311164 256.54299 
L 137.445652 255.945063 
L 137.58014 258.595482 
L 137.714628 256.146591 
L 137.983605 264.576496 
L 138.118093 265.016464 
L 138.252581 263.155318 
L 138.387069 263.647707 
L 138.521558 267.090883 
L 138.790534 260.33426 
L 139.05951 263.706575 
L 139.328487 233.041057 
L 139.597463 121.915842 
L 139.731951 87.794398 
L 139.86644 88.846789 
L 140.135416 84.433268 
L 140.404393 103.251013 
L 140.673369 145.095039 
L 140.942345 184.715082 
L 141.076834 240.769033 
L 141.614786 265.690839 
L 141.749275 265.378262 
L 141.883763 266.870137 
L 142.287228 259.759455 
L 142.690692 156.177395 
L 142.959669 92.099051 
L 143.094157 98.166025 
L 143.363133 92.137691 
L 143.497621 101.500299 
L 143.63211 92.147789 
L 143.766598 108.129647 
L 144.304551 238.908896 
L 144.439039 240.044956 
L 144.708015 266.351636 
L 144.842504 271.137507 
L 145.11148 264.256673 
L 145.245968 263.75469 
L 145.380456 265.208591 
L 145.514945 255.173106 
L 145.649433 223.477727 
L 145.783921 224.180265 
L 146.052897 130.296119 
L 146.187386 98.561675 
L 146.321874 94.386141 
L 146.456362 109.056577 
L 146.59085 109.689718 
L 146.725339 117.054531 
L 146.859827 111.930186 
L 146.994315 130.406954 
L 147.128803 131.538803 
L 147.263291 156.469499 
L 147.532268 243.889216 
L 148.070221 267.975094 
L 148.204709 269.166499 
L 148.608174 263.256177 
L 148.87715 258.338072 
L 149.415103 105.151893 
L 149.549591 113.725506 
L 149.818567 108.608185 
L 150.222032 149.002926 
L 150.35652 145.432776 
L 150.491009 165.251741 
L 150.759985 245.874815 
L 150.894473 248.756663 
L 151.16345 267.765072 
L 151.297938 267.662335 
L 151.566914 265.425926 
L 151.701402 266.841024 
L 151.970379 265.490694 
L 152.104867 261.02862 
L 152.64282 97.544536 
L 152.777308 117.988108 
L 152.911796 113.978799 
L 153.046285 103.194994 
L 153.180773 121.026989 
L 153.315261 120.035923 
L 153.449749 162.972421 
L 153.584237 166.786414 
L 154.12219 263.4193 
L 154.256678 273.427317 
L 154.391167 269.53933 
L 154.525655 276.418042 
L 154.660143 274.103158 
L 154.794631 274.960324 
L 154.92912 274.205316 
L 155.063608 274.897388 
L 155.332584 278.47672 
L 155.467072 276.557295 
L 155.601561 268.828459 
L 155.736049 252.783218 
L 155.870537 260.300403 
L 156.005025 259.306741 
L 156.139513 264.655803 
L 156.40849 262.303815 
L 156.677466 264.765987 
L 156.811955 262.026087 
L 157.349907 273.524792 
L 157.484396 274.496921 
L 157.618884 272.185326 
L 157.753372 272.430436 
L 158.022348 274.402219 
L 158.156837 273.942818 
L 158.291325 274.541719 
L 158.694789 281.255882 
L 158.829278 277.718668 
L 158.963766 280.334819 
L 159.098254 280.252805 
L 159.232742 277.679987 
L 159.367231 278.723927 
L 159.501719 281.26907 
L 159.636207 279.020956 
L 159.905183 265.960196 
L 160.039672 266.925927 
L 160.17416 261.759268 
L 160.577624 273.505868 
L 160.846601 268.265252 
L 161.115577 268.252322 
L 161.250066 270.984931 
L 161.65353 266.853878 
L 161.922507 234.400745 
L 162.325971 100.867738 
L 162.460459 88.386688 
L 162.594948 97.596983 
L 162.863924 89.726374 
L 162.998412 111.853755 
L 163.132901 115.195572 
L 163.401877 159.00193 
L 163.805342 245.07954 
L 164.208806 265.409157 
L 164.343294 263.06765 
L 164.477783 274.418061 
L 164.612271 271.313523 
L 164.746759 273.573412 
L 165.150224 232.215943 
L 165.4192 132.396946 
L 165.553688 105.911622 
L 165.688177 117.496591 
L 165.957153 108.53156 
L 166.091641 118.308794 
L 166.360618 113.735426 
L 166.495106 120.412307 
L 166.629594 137.079049 
L 166.89857 238.496794 
L 167.302035 257.865413 
L 167.436523 257.240173 
L 167.571012 258.739656 
L 167.839988 263.7962 
L 167.974476 263.631815 
L 168.108964 262.879292 
L 168.243453 249.480855 
L 168.377941 224.538795 
L 168.781405 99.641444 
L 168.915894 106.704932 
L 169.050382 99.099115 
L 169.18487 101.551521 
L 169.319358 107.461782 
L 169.453847 96.341966 
L 169.588335 110.201174 
L 170.395264 261.416056 
L 170.529752 262.784804 
L 170.66424 266.655337 
L 170.798729 267.169706 
L 171.067705 262.52906 
L 171.202193 261.97128 
L 171.336681 264.921329 
L 172.009123 101.088765 
L 172.143611 107.539012 
L 172.278099 111.003903 
L 172.412587 99.901226 
L 172.547075 98.476936 
L 173.085028 156.798412 
L 173.488493 248.924777 
L 173.757469 266.034808 
L 173.891958 272.46909 
L 174.026446 286.812455 
L 174.295422 277.647396 
L 174.42991 275.028311 
L 174.564399 275.359942 
L 174.967863 214.649476 
L 175.102351 165.007529 
L 175.23684 164.575861 
L 175.505816 141.999307 
L 175.640304 143.61525 
L 175.774792 155.768993 
L 175.909281 154.256017 
L 176.043769 158.688404 
L 176.447234 205.560899 
L 176.581722 252.746293 
L 176.71621 254.638178 
L 176.985186 270.529643 
L 177.119675 269.813902 
L 177.388651 270.711096 
L 177.523139 269.542024 
L 177.792116 274.97566 
L 178.061092 275.789805 
L 178.330069 259.234639 
L 178.464557 263.262617 
L 178.599045 255.106232 
L 178.733533 259.967745 
L 178.868021 259.831873 
L 179.00251 263.139258 
L 179.271486 257.969501 
L 179.405974 259.198832 
L 179.540462 256.782149 
L 179.674951 258.207538 
L 180.078415 274.265268 
L 180.212904 269.269617 
L 180.347392 270.222267 
L 180.48188 278.7313 
L 180.616368 278.583509 
L 180.885345 276.538615 
L 181.019833 277.083207 
L 181.154321 276.664867 
L 181.557786 262.803704 
L 181.692274 268.063932 
L 181.826762 267.024766 
L 181.96125 270.649443 
L 182.095738 262.91772 
L 182.499203 272.226882 
L 182.633691 273.198351 
L 182.76818 276.579336 
L 182.902668 274.825838 
L 183.037156 274.703515 
L 183.171644 280.321802 
L 183.306132 279.909335 
L 183.440621 280.136852 
L 183.575109 280.141342 
L 183.709597 275.936294 
L 183.844085 290.015268 
L 184.113062 291.846505 
L 184.24755 284.252528 
L 184.516526 262.695421 
L 184.785503 181.669022 
L 184.919991 188.13444 
L 185.054479 174.841461 
L 185.188967 186.392474 
L 185.323456 178.803733 
L 185.72692 193.325277 
L 186.264873 260.070422 
L 186.937314 284.932196 
L 187.071802 295.253189 
L 187.206291 295.488 
L 187.340779 291.473753 
L 187.475267 291.246275 
L 187.609755 284.422928 
L 187.744243 268.628951 
L 188.01322 183.889137 
L 188.147708 190.830979 
L 188.282196 178.45265 
L 188.416684 185.25481 
L 188.551173 184.975855 
L 188.685661 187.197672 
L 188.820149 196.849431 
L 188.954637 197.251387 
L 189.358102 244.928894 
L 189.627078 271.359863 
L 189.761567 270.928736 
L 189.896055 271.636146 
L 190.030543 279.216252 
L 190.165031 272.874877 
L 190.299519 273.078469 
L 190.568496 268.03305 
L 190.702984 268.511638 
L 190.971961 270.446381 
L 191.106449 267.456922 
L 191.240937 259.751325 
L 191.509913 271.474135 
L 191.644402 266.292204 
L 191.77889 270.984171 
L 192.047866 269.19776 
L 192.316843 261.564639 
L 192.720307 268.445117 
L 192.854796 276.816527 
L 192.989284 275.231135 
L 193.123772 275.097863 
L 193.527237 266.573505 
L 193.661725 268.208734 
L 193.796213 267.824329 
L 193.930701 267.043233 
L 194.199678 250.252551 
L 194.468654 174.153955 
L 194.603142 168.041357 
L 194.73763 152.991582 
L 194.872119 153.949978 
L 195.006607 146.609445 
L 195.141095 150.25907 
L 195.275583 157.789005 
L 195.410072 150.022736 
L 195.679048 181.902466 
L 195.948024 242.86572 
L 196.082513 265.274445 
L 196.217001 264.724322 
L 196.351489 264.801695 
L 196.485977 269.143102 
L 196.620465 279.12014 
L 196.889442 272.202386 
L 197.02393 269.022148 
L 197.158418 269.790513 
L 197.292907 265.188485 
L 197.427395 252.097312 
L 197.696371 175.068062 
L 197.830859 193.42222 
L 197.965348 190.504608 
L 198.099836 197.000898 
L 198.234324 193.825106 
L 198.368812 202.285705 
L 198.5033 196.558946 
L 198.637789 196.309312 
L 199.041253 244.616082 
L 199.31023 279.124884 
L 199.444718 278.090394 
L 199.848183 284.054835 
L 199.982671 281.167958 
L 200.117159 281.815917 
L 200.251647 281.359903 
L 200.386135 278.623469 
L 200.520624 269.863012 
L 200.655112 270.919156 
L 200.7896 248.96482 
L 200.924088 179.408525 
L 201.058576 206.94827 
L 201.193065 194.55983 
L 201.327553 197.85789 
L 201.462041 195.552749 
L 201.596529 201.01463 
L 201.731018 191.480491 
L 201.865506 195.020748 
L 201.999994 203.579691 
L 202.537947 274.115927 
L 202.672435 271.081533 
L 202.941411 277.970862 
L 203.210388 266.136129 
L 203.344876 271.450653 
L 203.479364 270.704433 
L 203.882829 256.334669 
L 204.017317 229.2562 
L 204.151805 176.771767 
L 204.420782 160.659018 
L 204.55527 160.673868 
L 204.689758 157.942648 
L 204.824246 165.22788 
L 204.958735 161.914785 
L 205.093223 185.876222 
L 205.227711 189.241473 
L 205.765664 265.15629 
L 205.900152 265.580506 
L 206.03464 264.337928 
L 206.169129 271.227327 
L 206.303617 288.763617 
L 206.438105 284.706521 
L 206.572593 286.850276 
L 206.707081 285.396473 
L 206.84157 285.157284 
L 206.976058 283.957597 
L 207.379522 256.875045 
L 207.514011 259.0622 
L 208.051964 276.87913 
L 208.186452 276.584204 
L 208.455428 267.051691 
L 208.724405 271.640654 
L 208.858893 280.978026 
L 208.993381 281.889418 
L 209.127869 285.153887 
L 209.396846 283.070506 
L 209.531334 272.841173 
L 209.665822 274.654311 
L 209.80031 272.47575 
L 209.934799 272.569388 
L 210.069287 273.087968 
L 210.203775 253.413853 
L 210.338263 250.698607 
L 210.60724 160.446499 
L 210.741728 153.470538 
L 210.876216 128.251115 
L 211.010704 125.964719 
L 211.145192 113.550181 
L 211.279681 135.771668 
L 211.414169 137.855373 
L 211.683145 163.686154 
L 212.221098 264.151234 
L 212.355586 262.389341 
L 212.490075 262.122307 
L 212.759051 273.703747 
L 212.893539 276.813298 
L 213.162516 270.818173 
L 213.297004 273.559842 
L 213.56598 239.360013 
L 213.834957 130.745308 
L 213.969445 117.146049 
L 214.238421 138.766292 
L 214.37291 140.317262 
L 214.910862 189.441216 
L 215.045351 200.995915 
L 215.314327 263.248755 
L 215.448815 271.300919 
L 215.583303 264.570417 
L 215.717792 271.01136 
L 215.85228 270.989026 
L 215.986768 272.289353 
L 216.121256 272.386579 
L 216.255745 270.337662 
L 216.390233 270.001069 
L 216.524721 272.131655 
L 216.793697 247.986825 
L 217.062674 144.088713 
L 217.197162 130.716189 
L 217.600627 159.987984 
L 217.735115 159.466287 
L 217.869603 151.251532 
L 218.407556 220.885181 
L 218.542044 264.085705 
L 218.811021 272.263609 
L 218.945509 277.282424 
L 219.079997 268.255398 
L 219.214485 271.432863 
L 219.348973 271.710111 
L 219.61795 276.72084 
L 219.752438 277.456455 
L 220.021414 248.737344 
L 220.290391 142.362167 
L 220.559367 152.538529 
L 220.693856 151.52116 
L 220.828344 151.373304 
L 220.962832 165.604174 
L 221.09732 159.622158 
L 221.366297 198.768296 
L 221.635273 223.501827 
L 221.769761 263.272064 
L 221.904249 268.749346 
L 222.038738 269.124277 
L 222.173226 275.30289 
L 222.307714 275.376782 
L 222.442202 275.30039 
L 222.845667 280.943673 
L 222.980155 282.092595 
L 223.114643 278.12292 
L 223.249132 281.268831 
L 223.518108 252.398438 
L 223.652596 267.15464 
L 223.787084 266.635433 
L 224.056061 260.38267 
L 224.190549 260.668746 
L 224.325037 259.962321 
L 224.459525 263.398985 
L 224.86299 258.528873 
L 225.131967 266.695689 
L 225.266455 267.375399 
L 225.400943 265.129257 
L 225.535431 266.68124 
L 225.669919 265.442443 
L 225.804408 262.4768 
L 226.073384 267.722808 
L 226.207872 271.722713 
L 226.34236 271.581636 
L 226.476849 273.30455 
L 226.745825 271.475775 
L 226.880313 269.803985 
L 227.14929 275.833297 
L 227.283778 277.249208 
L 227.418266 275.420337 
L 227.687243 277.30268 
L 227.956219 275.095492 
L 228.090707 275.382615 
L 228.225195 283.422214 
L 228.359684 281.204809 
L 228.494172 281.704245 
L 228.62866 279.632051 
L 228.763148 282.208063 
L 228.897637 280.704525 
L 229.032125 275.95698 
L 229.435589 274.219625 
L 229.570078 261.153182 
L 229.704566 234.486014 
L 229.973542 132.516565 
L 230.242519 98.087498 
L 230.377007 93.822901 
L 230.511495 83.194683 
L 230.645983 120.619201 
L 230.780471 115.973895 
L 231.049448 148.818739 
L 231.318424 211.075657 
L 231.587401 256.831037 
L 232.125354 274.007223 
L 232.259842 272.461641 
L 232.528818 274.734657 
L 232.663306 270.862376 
L 232.932283 237.176172 
L 233.201259 134.87571 
L 233.335748 115.412305 
L 233.470236 117.932584 
L 233.604724 137.228308 
L 233.739212 134.129698 
L 233.8737 146.350733 
L 234.008189 134.957741 
L 234.142677 152.057762 
L 234.411653 200.094251 
L 234.546141 216.759618 
L 234.815118 270.749901 
L 234.949606 269.540631 
L 235.084094 267.31045 
L 235.218583 275.286435 
L 235.353071 273.470087 
L 235.622047 281.044586 
L 235.891024 275.471553 
L 236.16 249.373248 
L 236.428976 137.038685 
L 236.563465 115.674234 
L 236.832441 127.008721 
L 236.966929 118.001522 
L 237.504882 173.639674 
L 237.908347 260.253037 
L 238.042835 270.685733 
L 238.177323 270.08321 
L 238.311811 270.452839 
L 238.4463 275.345631 
L 238.580788 274.872299 
L 238.715276 276.782349 
L 238.984252 284.569041 
L 239.118741 280.377372 
L 239.253229 271.740368 
L 239.387717 244.051086 
L 239.656694 141.516573 
L 239.92567 118.469179 
L 240.060158 136.319941 
L 240.194646 136.126577 
L 240.329135 145.554332 
L 240.598111 170.911097 
L 241.001576 231.363577 
L 241.136064 257.249169 
L 241.270552 258.85505 
L 241.40504 264.966423 
L 241.539529 264.737339 
L 241.674017 268.741173 
L 241.808505 265.127704 
L 241.942993 279.517044 
L 242.077481 277.87877 
L 242.21197 287.271785 
L 242.346458 280.976749 
L 242.615434 245.024872 
L 242.884411 140.005192 
L 243.018899 132.658798 
L 243.153387 152.993099 
L 243.287875 154.924589 
L 243.422363 144.884777 
L 243.556852 156.046412 
L 243.69134 155.050587 
L 243.960316 183.214189 
L 244.229293 237.624085 
L 244.498269 264.941342 
L 244.767246 271.144692 
L 245.036222 275.080992 
L 245.17071 278.063761 
L 245.305198 277.147386 
L 245.439687 277.387474 
L 245.708663 273.51749 
L 245.843151 254.273699 
L 245.97764 268.494023 
L 246.112128 265.234601 
L 246.246616 265.381444 
L 246.381104 265.046337 
L 246.515592 263.71953 
L 246.650081 264.944497 
L 247.053545 274.118448 
L 247.188033 272.774157 
L 247.322522 275.805335 
L 247.45701 275.575343 
L 247.591498 276.581714 
L 247.725986 275.775564 
L 247.860475 278.490014 
L 247.994963 275.865826 
L 248.129451 277.77944 
L 248.263939 277.617044 
L 248.398427 276.645847 
L 248.532916 276.938388 
L 248.667404 275.236366 
L 248.801892 277.269502 
L 248.93638 275.859174 
L 249.070868 276.460521 
L 249.205357 275.779365 
L 249.474333 280.988906 
L 249.608821 280.948098 
L 249.743309 280.107767 
L 250.012286 282.103606 
L 250.684727 276.718193 
L 250.819215 277.391606 
L 250.953703 277.349631 
L 251.088192 277.853292 
L 251.22268 275.712148 
L 251.357168 277.666586 
L 251.491656 276.394374 
L 251.626144 289.314015 
L 251.760633 285.409275 
L 251.895121 285.59951 
L 252.029609 282.153261 
L 252.298586 258.39438 
L 252.567562 143.174125 
L 252.70205 126.685812 
L 252.836538 135.84528 
L 252.971027 162.85887 
L 253.105515 156.124143 
L 253.643468 184.929422 
L 254.046932 263.112803 
L 254.315909 275.059081 
L 254.584885 286.175325 
L 254.719373 285.671554 
L 254.853862 289.411436 
L 254.98835 286.921161 
L 255.122838 288.549043 
L 255.257326 287.115009 
L 255.526303 247.52727 
L 255.795279 147.38113 
L 255.929767 163.802764 
L 256.198744 165.449785 
L 256.333232 159.361314 
L 256.46772 163.849495 
L 256.602208 164.057191 
L 256.736697 170.868837 
L 257.274649 254.126097 
L 257.409138 258.58452 
L 257.543626 267.689417 
L 257.678114 265.156259 
L 257.812602 270.424748 
L 257.94709 267.904444 
L 258.081579 282.772905 
L 258.216067 285.061986 
L 258.350555 284.764875 
L 258.485043 279.729985 
L 258.75402 250.285641 
L 259.022996 150.000342 
L 259.157484 169.649975 
L 259.291973 164.338115 
L 259.426461 166.719772 
L 259.560949 153.053954 
L 259.829925 175.060254 
L 259.964414 160.878937 
L 260.636855 259.468857 
L 261.040319 268.219367 
L 261.174808 266.61548 
L 261.309296 272.697317 
L 261.443784 271.409067 
L 261.578272 275.02806 
L 261.847249 264.881222 
L 261.981737 238.212288 
L 262.250713 148.086338 
L 262.385201 162.204446 
L 262.51969 159.505575 
L 262.654178 149.507206 
L 262.788666 149.643168 
L 262.923154 159.798457 
L 263.057643 153.33116 
L 263.461107 207.424896 
L 263.99906 258.308106 
L 264.268036 263.431602 
L 264.402525 270.977156 
L 264.537013 264.224911 
L 264.671501 266.980785 
L 265.074966 257.711531 
L 265.209454 240.814697 
L 265.747407 113.648173 
L 265.881895 113.309061 
L 266.016383 111.511506 
L 266.150871 122.564201 
L 266.28536 120.132433 
L 266.419848 123.714965 
L 266.554336 138.479367 
L 267.226777 256.072942 
L 267.495754 260.019986 
L 267.630242 276.336554 
L 267.76473 270.488377 
L 267.899218 272.493837 
L 268.033706 269.612355 
L 268.302683 277.305126 
L 268.437171 277.383197 
L 268.571659 271.882141 
L 268.706147 277.2525 
L 268.840636 278.164938 
L 268.975124 275.424835 
L 269.2441 275.957463 
L 269.378589 276.24124 
L 269.916541 261.930869 
L 270.05103 260.521259 
L 270.320006 264.214793 
L 270.454494 265.298874 
L 270.723471 269.081072 
L 270.857959 284.224434 
L 271.261424 278.310643 
L 271.5304 277.442451 
L 271.933865 282.47831 
L 272.068353 279.310715 
L 272.202841 283.672132 
L 272.337329 280.863369 
L 272.471817 283.7159 
L 272.606306 283.859909 
L 272.740794 282.185298 
L 272.875282 285.46261 
L 273.144258 280.784952 
L 273.278747 277.851611 
L 273.413235 278.711992 
L 273.682211 281.003725 
L 273.8167 279.770985 
L 273.951188 281.759565 
L 274.085676 279.167282 
L 274.220164 294.196855 
L 274.354652 292.168045 
L 274.489141 293.117359 
L 274.623629 287.199005 
L 274.892605 258.410867 
L 275.161582 189.155296 
L 275.430558 160.372517 
L 275.699535 155.184831 
L 275.834023 158.612596 
L 275.968511 179.572162 
L 276.102999 180.770366 
L 276.77544 266.080658 
L 276.909928 272.94342 
L 277.044417 273.512752 
L 277.178905 280.058295 
L 277.313393 276.493993 
L 277.447881 285.420704 
L 277.58237 283.02247 
L 277.716858 287.799673 
L 277.851346 285.083368 
L 277.985834 278.336909 
L 278.120322 262.796189 
L 278.389299 202.230313 
L 278.523787 198.517248 
L 278.658275 180.549944 
L 278.792763 185.984471 
L 278.927252 177.157268 
L 279.06174 195.355399 
L 279.196228 189.333651 
L 279.465204 209.722924 
L 280.003157 272.9138 
L 280.272134 276.840811 
L 280.406622 282.986007 
L 280.54111 268.269449 
L 280.675598 267.742666 
L 280.810087 266.101944 
L 280.944575 267.052337 
L 281.079063 264.322705 
L 281.213551 250.817468 
L 281.348039 250.058899 
L 281.751504 134.458966 
L 281.885992 118.290482 
L 282.154969 137.339117 
L 282.289457 143.619271 
L 282.423945 123.71513 
L 282.82741 188.899319 
L 283.230874 265.610567 
L 283.365363 265.00742 
L 283.499851 265.928119 
L 283.634339 269.21603 
L 283.903316 262.41704 
L 284.037804 260.347395 
L 284.172292 261.063244 
L 284.30678 259.16648 
L 284.575757 246.720198 
L 284.844733 165.314842 
L 284.979221 154.29625 
L 285.113709 156.375387 
L 285.248198 142.287615 
L 285.382686 142.024274 
L 285.517174 136.876435 
L 285.651662 152.582017 
L 285.78615 153.084726 
L 285.920639 164.027946 
L 286.324103 250.790054 
L 286.458592 263.199082 
L 286.59308 263.14499 
L 286.727568 266.713602 
L 286.862056 266.341971 
L 286.996544 290.194981 
L 287.265521 281.373392 
L 287.937962 265.849057 
L 288.07245 268.207478 
L 288.206938 273.4716 
L 288.341427 272.888868 
L 288.475915 273.32748 
L 288.610403 271.192453 
L 288.744891 272.618719 
L 288.879379 272.416767 
L 289.013868 277.398579 
L 289.148356 276.875715 
L 289.282844 270.897846 
L 289.55182 282.202604 
L 289.686309 283.346707 
L 290.089773 279.541369 
L 290.224262 277.220461 
L 290.35875 279.621769 
L 290.493238 277.628367 
L 290.627726 279.270755 
L 290.762214 276.05009 
L 290.896703 267.407842 
L 291.031191 265.976722 
L 291.165679 247.663711 
L 291.300167 185.54582 
L 291.434655 182.64117 
L 291.569144 182.187502 
L 291.83812 193.878886 
L 292.107096 178.105259 
L 292.510561 212.047219 
L 292.914026 270.116731 
L 293.048514 268.442104 
L 293.31749 274.391495 
L 293.451979 271.474725 
L 293.586467 271.518493 
L 293.720955 269.059783 
L 293.855443 272.397521 
L 293.989931 271.347908 
L 294.393396 233.264043 
L 294.527884 183.646402 
L 294.662373 179.353387 
L 294.796861 158.681305 
L 294.931349 157.514229 
L 295.065837 144.634361 
L 295.200325 144.447624 
L 295.334814 153.844664 
L 295.469302 150.010367 
L 295.738278 195.176346 
L 296.141743 265.951797 
L 296.276231 261.411349 
L 296.410719 259.764173 
L 296.679696 291.520994 
L 296.814184 287.774102 
L 296.948672 287.51493 
L 297.08316 283.260382 
L 297.352137 282.559283 
L 297.621113 277.855039 
L 297.89009 284.776369 
L 298.159066 280.573673 
L 298.293554 280.521083 
L 298.562531 281.226633 
L 298.965995 275.729065 
L 299.100484 276.476373 
L 299.234972 278.116585 
L 299.36946 281.58254 
L 299.503948 281.879063 
L 299.638436 280.305239 
L 299.772925 282.398148 
L 299.907413 266.268932 
L 300.041901 272.82046 
L 300.176389 269.292908 
L 300.310877 271.994881 
L 300.445366 269.30549 
L 300.714342 245.074681 
L 300.983319 166.910052 
L 301.252295 134.937901 
L 301.386783 129.250269 
L 301.521271 129.419596 
L 301.65576 141.745859 
L 301.790248 134.714727 
L 302.328201 217.664484 
L 302.597177 259.22104 
L 302.731665 261.930608 
L 302.866153 260.959692 
L 303.000642 271.698179 
L 303.13513 272.814814 
L 303.404106 266.675124 
L 303.538595 268.214117 
L 303.673083 266.737402 
L 304.076547 192.820969 
L 304.211036 155.814238 
L 304.345524 164.200817 
L 304.480012 159.530139 
L 304.6145 159.206414 
L 304.748988 154.879597 
L 304.883477 161.377573 
L 305.017965 153.704177 
L 305.286941 192.904659 
L 305.824894 261.743638 
L 305.959382 268.45573 
L 306.093871 265.786982 
L 306.228359 270.562446 
L 306.362847 268.647685 
L 306.497335 280.086818 
L 306.9008 275.773817 
L 307.035288 265.614057 
L 307.169776 240.631923 
L 307.438753 145.894519 
L 307.573241 164.019553 
L 307.707729 166.113483 
L 307.842217 163.54143 
L 307.976706 158.62003 
L 308.111194 162.508599 
L 308.245682 155.547346 
L 308.38017 166.246592 
L 309.052611 269.054474 
L 309.187099 270.69953 
L 309.321588 270.46069 
L 309.456076 277.347211 
L 309.590564 276.672594 
L 309.725052 279.073307 
L 309.859541 276.795951 
L 309.994029 277.042261 
L 310.128517 274.852347 
L 310.263005 266.538119 
L 310.397493 237.554706 
L 310.66647 147.007146 
L 310.935446 166.827927 
L 311.069934 168.061367 
L 311.204423 160.03256 
L 311.338911 162.860017 
L 311.473399 162.879069 
L 311.607887 162.421584 
L 312.14584 254.035936 
L 312.280328 266.094228 
L 312.414817 267.432831 
L 312.549305 266.871527 
L 312.683793 272.680111 
L 312.818281 273.507754 
L 312.952769 275.222797 
L 313.087258 272.409905 
L 313.221746 274.211225 
L 313.356234 272.312777 
L 313.490722 274.319476 
L 313.894187 249.690353 
L 314.028675 260.568162 
L 314.163163 257.761304 
L 314.297652 260.491999 
L 314.43214 258.259572 
L 314.701116 266.140684 
L 314.835604 266.407143 
L 315.104581 272.617074 
L 315.239069 271.665007 
L 315.373557 272.008824 
L 315.508045 275.583677 
L 315.777022 274.590301 
L 315.91151 272.66595 
L 316.045998 273.904608 
L 316.180487 273.365676 
L 316.314975 274.50905 
L 316.449463 272.63248 
L 316.583951 273.736761 
L 316.718439 273.208761 
L 316.852928 273.643641 
L 316.987416 273.582746 
L 317.121904 274.032232 
L 317.256392 276.904027 
L 317.39088 276.864723 
L 317.525369 278.239442 
L 317.659857 277.145778 
L 317.794345 280.075546 
L 318.063322 275.715012 
L 318.19781 275.27794 
L 318.466786 270.816729 
L 318.601274 272.532049 
L 318.735763 271.780393 
L 318.870251 273.379516 
L 319.273715 270.387087 
L 319.408204 284.357481 
L 319.542692 281.534065 
L 319.67718 281.124036 
L 319.811668 278.254244 
L 319.946157 272.091358 
L 320.080645 251.650363 
L 320.349621 144.722245 
L 320.618598 125.178417 
L 320.887574 146.053585 
L 321.15655 160.003201 
L 321.694503 227.533642 
L 321.96348 267.310009 
L 322.097968 268.243391 
L 322.232456 266.531038 
L 322.366944 273.22801 
L 322.501433 271.655311 
L 322.635921 285.227778 
L 322.904897 283.547597 
L 323.039385 279.557694 
L 323.308362 256.424495 
L 323.577338 148.601947 
L 323.846315 170.953526 
L 324.115291 155.002634 
L 324.384268 156.68593 
L 324.518756 164.414782 
L 325.056709 257.603012 
L 325.191197 265.686794 
L 325.325685 265.002298 
L 325.460173 264.919442 
L 325.594661 271.521842 
L 325.72915 270.884536 
L 325.863638 281.683795 
L 326.132614 283.188718 
L 326.267103 280.012001 
L 326.401591 272.074187 
L 326.536079 249.365025 
L 326.805055 141.887121 
L 327.074032 170.02516 
L 327.343008 160.623704 
L 327.477496 166.471264 
L 327.611985 163.834859 
L 327.746473 167.886997 
L 327.880961 183.764174 
L 328.149937 228.196294 
L 328.418914 261.212475 
L 328.822379 276.633416 
L 328.956867 276.229315 
L 329.091355 288.36752 
L 329.225843 284.620469 
L 329.360331 283.999755 
L 329.49482 278.818596 
L 329.763796 248.494751 
L 330.032772 158.828856 
L 330.301749 167.719548 
L 330.436237 167.438238 
L 330.705214 158.897585 
L 330.97419 183.757731 
L 331.243166 205.034322 
L 331.646631 264.186391 
L 331.781119 265.706413 
L 331.915607 265.225606 
L 332.184584 272.997984 
L 332.319072 285.929702 
L 332.45356 284.95679 
L 332.722537 277.963584 
L 332.991513 247.486965 
L 333.26049 153.227626 
L 333.529466 176.504608 
L 333.798442 165.387596 
L 333.932931 165.035867 
L 334.067419 168.013657 
L 334.470883 209.206805 
L 334.73986 261.678986 
L 335.008836 269.448924 
L 335.143325 272.132591 
L 335.277813 278.711876 
L 335.681277 273.567656 
L 335.815766 272.644253 
L 336.084742 274.834263 
L 336.353718 261.125482 
L 336.488207 262.035992 
L 336.757183 256.539473 
L 336.891671 258.397716 
L 337.02616 256.911534 
L 337.698601 270.847577 
L 337.833089 271.332735 
L 337.967577 270.623742 
L 338.102065 273.869283 
L 338.236553 273.816883 
L 338.371042 272.612755 
L 338.50553 273.20357 
L 338.640018 269.397821 
L 338.774506 270.495753 
L 338.908995 270.438753 
L 339.043483 270.25812 
L 339.312459 271.570448 
L 339.446947 269.821337 
L 339.850412 272.90921 
L 339.9849 272.700874 
L 340.119388 271.246254 
L 340.253877 273.311055 
L 340.388365 272.482463 
L 340.522853 275.79848 
L 340.657341 273.499055 
L 340.791829 275.116705 
L 341.060806 274.390768 
L 341.195294 270.502299 
L 341.464271 275.827906 
L 341.598759 274.403312 
L 341.867735 277.09609 
L 342.002223 287.676666 
L 342.405688 281.137626 
L 342.674664 252.425236 
L 342.943641 148.449417 
L 343.078129 137.362236 
L 343.347106 170.683858 
L 343.481594 167.386632 
L 343.75057 176.178464 
L 344.154035 206.945078 
L 344.423011 261.026965 
L 345.22994 286.277921 
L 345.364429 285.257254 
L 345.498917 285.967865 
L 345.633405 282.784141 
L 345.767893 273.474624 
L 345.902382 254.495284 
L 346.171358 157.909877 
L 346.305846 176.854215 
L 346.574823 174.699559 
L 346.709311 169.818178 
L 346.978287 173.984288 
L 347.247264 191.506288 
L 347.785217 264.336048 
L 348.054193 269.513983 
L 348.188681 276.577689 
L 348.323169 273.362735 
L 348.457658 284.770695 
L 348.592146 281.975307 
L 348.726634 284.038976 
L 348.861122 280.105827 
L 349.130099 248.806976 
L 349.399075 157.333659 
L 349.533563 171.210836 
L 349.668052 166.387237 
L 349.80254 167.77686 
L 349.937028 163.822718 
L 350.206004 170.287972 
L 350.474981 194.888207 
L 350.743957 237.689814 
L 351.012934 264.492274 
L 351.147422 270.636988 
L 351.28191 269.539952 
L 351.416398 277.108996 
L 351.550886 276.367947 
L 351.685375 288.104715 
L 351.819863 282.427354 
L 351.954351 282.132483 
L 352.223328 274.821349 
L 352.357816 254.760184 
L 352.626792 154.968996 
L 352.76128 169.372118 
L 352.895769 168.48738 
L 353.030257 173.302972 
L 353.164745 166.884357 
L 353.299233 170.783689 
L 353.702698 165.43576 
L 354.106163 255.241202 
L 354.240651 273.159655 
L 354.375139 273.801883 
L 354.509627 272.917795 
L 354.778604 280.42059 
L 354.913092 283.149091 
L 355.316556 280.000528 
L 355.451045 273.185096 
L 355.585533 249.065822 
L 355.854509 184.00923 
L 355.988998 183.669926 
L 356.257974 161.157501 
L 356.392462 160.983813 
L 356.661439 167.12946 
L 357.199391 237.54342 
L 357.468368 277.20271 
L 357.602856 275.429866 
L 357.737344 276.800291 
L 358.006321 284.222309 
L 358.275297 281.225018 
L 358.544274 280.586326 
L 358.81325 276.660153 
L 359.082226 259.550383 
L 359.216715 254.61516 
L 359.351203 255.365738 
L 359.485691 257.369235 
L 359.620179 250.805379 
L 359.754667 263.03841 
L 359.889156 264.04443 
L 360.023644 263.891821 
L 360.427109 281.56149 
L 360.561597 279.437739 
L 360.696085 279.665143 
L 360.830573 280.560792 
L 360.965061 280.682225 
L 361.09955 282.049073 
L 361.234038 282.092222 
L 361.368526 281.884921 
L 361.503014 280.606618 
L 361.637502 282.305532 
L 361.906479 279.191275 
L 362.175455 282.558216 
L 362.309944 283.353567 
L 362.444432 278.450292 
L 362.57892 279.303836 
L 362.713408 277.393911 
L 362.982385 282.939664 
L 363.116873 282.99586 
L 363.251361 279.440603 
L 363.385849 279.65622 
L 363.520337 281.201099 
L 363.654826 279.981691 
L 363.789314 280.098157 
L 363.923802 280.745276 
L 364.05829 280.423187 
L 364.192778 283.029538 
L 364.327267 241.874072 
L 364.461755 250.659557 
L 364.596243 249.131248 
L 364.86522 255.467911 
L 364.999708 249.968655 
L 365.403172 151.008098 
L 365.672149 106.341399 
L 365.806637 108.651627 
L 365.941125 98.336327 
L 366.075613 115.330366 
L 366.210102 112.950164 
L 366.479078 130.879482 
L 366.613566 156.351799 
L 366.882543 242.090555 
L 367.151519 259.757923 
L 367.286007 261.458458 
L 367.420496 261.29059 
L 367.554984 268.190719 
L 367.689472 268.457605 
L 367.82396 267.252981 
L 368.092937 269.72166 
L 368.765378 93.702517 
L 368.899866 98.254966 
L 369.034354 98.77655 
L 369.168842 89.362767 
L 369.303331 88.762075 
L 369.437819 93.23266 
L 369.572307 112.395348 
L 369.706795 114.593841 
L 369.975772 193.450497 
L 370.11026 240.870655 
L 370.244748 239.195498 
L 370.782701 291.424115 
L 371.051677 283.926195 
L 371.320654 277.944558 
L 371.58963 244.068979 
L 371.858607 154.124853 
L 371.993095 161.628452 
L 372.262071 203.517801 
L 372.396559 191.471357 
L 372.531048 199.283188 
L 372.800024 198.379464 
L 372.934512 210.440929 
L 373.069001 235.531212 
L 373.203489 235.149091 
L 373.472465 264.336356 
L 373.606953 264.589141 
L 373.87593 272.43998 
L 374.144906 295.17308 
L 374.279394 291.821445 
L 374.413883 291.292978 
L 374.548371 287.212033 
L 374.817347 249.160342 
L 375.086324 192.967551 
L 375.3553 173.267845 
L 375.489788 179.295358 
L 375.624277 177.219358 
L 375.758765 180.011489 
L 376.162229 205.494505 
L 376.431206 237.558532 
L 376.700182 268.179326 
L 376.969159 270.312163 
L 377.103647 274.327489 
L 377.238135 288.190775 
L 377.372623 281.937137 
L 377.507112 282.774749 
L 377.6416 280.476646 
L 377.776088 275.784709 
L 377.910576 281.293616 
L 378.045064 269.981657 
L 378.179553 270.591754 
L 378.314041 258.84663 
L 378.448529 266.719426 
L 378.583017 259.339955 
L 378.986482 275.271703 
L 379.12097 271.552464 
L 379.389947 275.465371 
L 379.524435 272.949848 
L 379.793411 280.24115 
L 379.927899 281.502785 
L 380.062388 283.98604 
L 380.331364 280.130673 
L 380.465852 266.684289 
L 380.734829 270.522628 
L 380.869317 273.436148 
L 381.003805 272.702868 
L 381.138293 256.567888 
L 381.272782 255.686583 
L 381.676246 146.514918 
L 381.810734 140.694633 
L 381.945223 144.610732 
L 382.079711 144.947422 
L 382.348687 150.218028 
L 382.483175 145.870852 
L 383.155616 266.705074 
L 383.290105 268.618518 
L 383.424593 268.792279 
L 383.559081 272.781305 
L 383.693569 264.439405 
L 383.962546 262.346485 
L 384.097034 262.534835 
L 384.231522 263.446096 
L 384.36601 259.223126 
L 384.500499 261.442806 
L 384.903963 163.410551 
L 385.038451 160.667088 
L 385.17294 143.169987 
L 385.307428 150.153188 
L 385.441916 170.306611 
L 385.576404 166.499879 
L 385.710893 170.270637 
L 385.979869 208.758106 
L 386.383334 269.042387 
L 386.517822 268.382506 
L 386.921286 285.859694 
L 387.190263 279.68559 
L 387.324751 279.357441 
L 387.862704 269.761003 
L 387.997192 277.406211 
L 388.13168 277.26338 
L 388.535145 283.640478 
L 388.669633 281.341906 
L 388.804121 283.910021 
L 388.93861 290.327059 
L 389.207586 283.008279 
L 389.342074 282.82768 
L 389.611051 291.373625 
L 389.745539 288.038065 
L 389.880027 288.273175 
L 390.014515 288.122857 
L 390.149004 264.816679 
L 390.283492 267.793881 
L 390.41798 265.674676 
L 390.552468 267.68723 
L 390.686956 266.075463 
L 391.090421 233.707774 
L 391.224909 184.162654 
L 391.359397 186.143782 
L 391.493886 158.361778 
L 391.628374 160.545245 
L 392.031839 177.88916 
L 392.166327 175.417949 
L 392.569791 230.780313 
L 392.838768 278.088428 
L 392.973256 274.340836 
L 393.107744 274.862427 
L 393.242232 276.437534 
L 393.376721 265.607039 
L 393.511209 263.775678 
L 393.645697 269.925927 
L 393.780185 270.103016 
L 393.914673 262.282421 
L 394.049162 262.577847 
L 394.318138 206.179125 
L 394.587115 153.582471 
L 394.721603 154.964746 
L 394.856091 141.55082 
L 395.259556 145.891613 
L 396.066485 262.39678 
L 396.335461 265.022825 
L 396.46995 261.113313 
L 396.604438 293.276207 
L 396.738926 286.317069 
L 396.873414 288.352572 
L 397.007902 283.329308 
L 397.142391 284.408358 
L 397.411367 250.278749 
L 397.680343 173.757602 
L 397.814832 177.16898 
L 397.94932 168.03904 
L 398.083808 167.754685 
L 398.218296 157.866994 
L 398.352785 169.993074 
L 398.487273 165.649651 
L 398.487273 165.649651 
" clip-path="url(#p5825799b82)" style="fill: none; stroke: #ff7f0e; stroke-width: 1.5; stroke-linecap: square"/>
   </g>
   <g id="patch_3">
    <path d="M 57.6 307.584 
L 57.6 41.472 
" style="fill: none; stroke: #000000; stroke-width: 0.8; stroke-linejoin: miter; stroke-linecap: square"/>
   </g>
   <g id="patch_4">
    <path d="M 414.72 307.584 
L 414.72 41.472 
" style="fill: none; stroke: #000000; stroke-width: 0.8; stroke-linejoin: miter; stroke-linecap: square"/>
   </g>
   <g id="patch_5">
    <path d="M 57.6 307.584 
L 414.72 307.584 
" style="fill: none; stroke: #000000; stroke-width: 0.8; stroke-linejoin: miter; stroke-linecap: square"/>
   </g>
   <g id="patch_6">
    <path d="M 57.6 41.472 
L 414.72 41.472 
" style="fill: none; stroke: #000000; stroke-width: 0.8; stroke-linejoin: miter; stroke-linecap: square"/>
   </g>
  </g>
 </g>
 <defs>
  <clipPath id="p5825799b82">
   <rect x="57.6" y="41.472" width="357.12" height="266.112"/>
  </clipPath>
 </defs>
</svg>
