<?xml version="1.0" encoding="utf-8" standalone="no"?>
<!DOCTYPE svg PUBLIC "-//W3C//DTD SVG 1.1//EN"
  "http://www.w3.org/Graphics/SVG/1.1/DTD/svg11.dtd">
<svg xmlns:xlink="http://www.w3.org/1999/xlink" width="460.8pt" height="345.6pt" viewBox="0 0 460.8 345.6" xmlns="http://www.w3.org/2000/svg" version="1.1">
 <metadata>
  <rdf:RDF xmlns:dc="http://purl.org/dc/elements/1.1/" xmlns:cc="http://creativecommons.org/ns#" xmlns:rdf="http://www.w3.org/1999/02/22-rdf-syntax-ns#">
   <cc:Work>
    <dc:type rdf:resource="http://purl.org/dc/dcmitype/StillImage"/>
    <dc:date>2023-04-04T05:51:11.070073</dc:date>
    <dc:format>image/svg+xml</dc:format>
    <dc:creator>
     <cc:Agent>
      <dc:title>Matplotlib v3.5.2, https://matplotlib.org/</dc:title>
     </cc:Agent>
    </dc:creator>
   </cc:Work>
  </rdf:RDF>
 </metadata>
 <defs>
  <style type="text/css">*{stroke-linejoin: round; stroke-linecap: butt}</style>
 </defs>
 <g id="figure_1">
  <g id="patch_1">
   <path d="M 0 345.6 
L 460.8 345.6 
L 460.8 0 
L 0 0 
z
" style="fill: #ffffff"/>
  </g>
  <g id="axes_1">
   <g id="patch_2">
    <path d="M 57.6 307.584 
L 414.72 307.584 
L 414.72 41.472 
L 57.6 41.472 
z
" style="fill: #ffffff"/>
   </g>
   <g id="matplotlib.axis_1">
    <g id="xtick_1">
     <g id="line2d_1">
      <defs>
       <path id="m6f571f1b06" d="M 0 0 
L 0 3.5 
" style="stroke: #000000; stroke-width: 0.8"/>
      </defs>
      <g>
       <use xlink:href="#m6f571f1b06" x="73.832727" y="307.584" style="stroke: #000000; stroke-width: 0.8"/>
      </g>
     </g>
     <g id="text_1">
      <!-- 0 -->
      <g transform="translate(70.651477 322.182437)scale(0.1 -0.1)">
       <defs>
        <path id="DejaVuSans-30" d="M 2034 4250 
Q 1547 4250 1301 3770 
Q 1056 3291 1056 2328 
Q 1056 1369 1301 889 
Q 1547 409 2034 409 
Q 2525 409 2770 889 
Q 3016 1369 3016 2328 
Q 3016 3291 2770 3770 
Q 2525 4250 2034 4250 
z
M 2034 4750 
Q 2819 4750 3233 4129 
Q 3647 3509 3647 2328 
Q 3647 1150 3233 529 
Q 2819 -91 2034 -91 
Q 1250 -91 836 529 
Q 422 1150 422 2328 
Q 422 3509 836 4129 
Q 1250 4750 2034 4750 
z
" transform="scale(0.015625)"/>
       </defs>
       <use xlink:href="#DejaVuSans-30"/>
      </g>
     </g>
    </g>
    <g id="xtick_2">
     <g id="line2d_2">
      <g>
       <use xlink:href="#m6f571f1b06" x="141.076834" y="307.584" style="stroke: #000000; stroke-width: 0.8"/>
      </g>
     </g>
     <g id="text_2">
      <!-- 500 -->
      <g transform="translate(131.533084 322.182437)scale(0.1 -0.1)">
       <defs>
        <path id="DejaVuSans-35" d="M 691 4666 
L 3169 4666 
L 3169 4134 
L 1269 4134 
L 1269 2991 
Q 1406 3038 1543 3061 
Q 1681 3084 1819 3084 
Q 2600 3084 3056 2656 
Q 3513 2228 3513 1497 
Q 3513 744 3044 326 
Q 2575 -91 1722 -91 
Q 1428 -91 1123 -41 
Q 819 9 494 109 
L 494 744 
Q 775 591 1075 516 
Q 1375 441 1709 441 
Q 2250 441 2565 725 
Q 2881 1009 2881 1497 
Q 2881 1984 2565 2268 
Q 2250 2553 1709 2553 
Q 1456 2553 1204 2497 
Q 953 2441 691 2322 
L 691 4666 
z
" transform="scale(0.015625)"/>
       </defs>
       <use xlink:href="#DejaVuSans-35"/>
       <use xlink:href="#DejaVuSans-30" x="63.623047"/>
       <use xlink:href="#DejaVuSans-30" x="127.246094"/>
      </g>
     </g>
    </g>
    <g id="xtick_3">
     <g id="line2d_3">
      <g>
       <use xlink:href="#m6f571f1b06" x="208.32094" y="307.584" style="stroke: #000000; stroke-width: 0.8"/>
      </g>
     </g>
     <g id="text_3">
      <!-- 1000 -->
      <g transform="translate(195.59594 322.182437)scale(0.1 -0.1)">
       <defs>
        <path id="DejaVuSans-31" d="M 794 531 
L 1825 531 
L 1825 4091 
L 703 3866 
L 703 4441 
L 1819 4666 
L 2450 4666 
L 2450 531 
L 3481 531 
L 3481 0 
L 794 0 
L 794 531 
z
" transform="scale(0.015625)"/>
       </defs>
       <use xlink:href="#DejaVuSans-31"/>
       <use xlink:href="#DejaVuSans-30" x="63.623047"/>
       <use xlink:href="#DejaVuSans-30" x="127.246094"/>
       <use xlink:href="#DejaVuSans-30" x="190.869141"/>
      </g>
     </g>
    </g>
    <g id="xtick_4">
     <g id="line2d_4">
      <g>
       <use xlink:href="#m6f571f1b06" x="275.565046" y="307.584" style="stroke: #000000; stroke-width: 0.8"/>
      </g>
     </g>
     <g id="text_4">
      <!-- 1500 -->
      <g transform="translate(262.840046 322.182437)scale(0.1 -0.1)">
       <use xlink:href="#DejaVuSans-31"/>
       <use xlink:href="#DejaVuSans-35" x="63.623047"/>
       <use xlink:href="#DejaVuSans-30" x="127.246094"/>
       <use xlink:href="#DejaVuSans-30" x="190.869141"/>
      </g>
     </g>
    </g>
    <g id="xtick_5">
     <g id="line2d_5">
      <g>
       <use xlink:href="#m6f571f1b06" x="342.809153" y="307.584" style="stroke: #000000; stroke-width: 0.8"/>
      </g>
     </g>
     <g id="text_5">
      <!-- 2000 -->
      <g transform="translate(330.084153 322.182437)scale(0.1 -0.1)">
       <defs>
        <path id="DejaVuSans-32" d="M 1228 531 
L 3431 531 
L 3431 0 
L 469 0 
L 469 531 
Q 828 903 1448 1529 
Q 2069 2156 2228 2338 
Q 2531 2678 2651 2914 
Q 2772 3150 2772 3378 
Q 2772 3750 2511 3984 
Q 2250 4219 1831 4219 
Q 1534 4219 1204 4116 
Q 875 4013 500 3803 
L 500 4441 
Q 881 4594 1212 4672 
Q 1544 4750 1819 4750 
Q 2544 4750 2975 4387 
Q 3406 4025 3406 3419 
Q 3406 3131 3298 2873 
Q 3191 2616 2906 2266 
Q 2828 2175 2409 1742 
Q 1991 1309 1228 531 
z
" transform="scale(0.015625)"/>
       </defs>
       <use xlink:href="#DejaVuSans-32"/>
       <use xlink:href="#DejaVuSans-30" x="63.623047"/>
       <use xlink:href="#DejaVuSans-30" x="127.246094"/>
       <use xlink:href="#DejaVuSans-30" x="190.869141"/>
      </g>
     </g>
    </g>
    <g id="xtick_6">
     <g id="line2d_6">
      <g>
       <use xlink:href="#m6f571f1b06" x="410.053259" y="307.584" style="stroke: #000000; stroke-width: 0.8"/>
      </g>
     </g>
     <g id="text_6">
      <!-- 2500 -->
      <g transform="translate(397.328259 322.182437)scale(0.1 -0.1)">
       <use xlink:href="#DejaVuSans-32"/>
       <use xlink:href="#DejaVuSans-35" x="63.623047"/>
       <use xlink:href="#DejaVuSans-30" x="127.246094"/>
       <use xlink:href="#DejaVuSans-30" x="190.869141"/>
      </g>
     </g>
    </g>
   </g>
   <g id="matplotlib.axis_2">
    <g id="ytick_1">
     <g id="line2d_7">
      <defs>
       <path id="me680e359ab" d="M 0 0 
L -3.5 0 
" style="stroke: #000000; stroke-width: 0.8"/>
      </defs>
      <g>
       <use xlink:href="#me680e359ab" x="57.6" y="280.34156" style="stroke: #000000; stroke-width: 0.8"/>
      </g>
     </g>
     <g id="text_7">
      <!-- 100 -->
      <g transform="translate(31.5125 284.140779)scale(0.1 -0.1)">
       <use xlink:href="#DejaVuSans-31"/>
       <use xlink:href="#DejaVuSans-30" x="63.623047"/>
       <use xlink:href="#DejaVuSans-30" x="127.246094"/>
      </g>
     </g>
    </g>
    <g id="ytick_2">
     <g id="line2d_8">
      <g>
       <use xlink:href="#me680e359ab" x="57.6" y="232.557406" style="stroke: #000000; stroke-width: 0.8"/>
      </g>
     </g>
     <g id="text_8">
      <!-- 200 -->
      <g transform="translate(31.5125 236.356625)scale(0.1 -0.1)">
       <use xlink:href="#DejaVuSans-32"/>
       <use xlink:href="#DejaVuSans-30" x="63.623047"/>
       <use xlink:href="#DejaVuSans-30" x="127.246094"/>
      </g>
     </g>
    </g>
    <g id="ytick_3">
     <g id="line2d_9">
      <g>
       <use xlink:href="#me680e359ab" x="57.6" y="184.773252" style="stroke: #000000; stroke-width: 0.8"/>
      </g>
     </g>
     <g id="text_9">
      <!-- 300 -->
      <g transform="translate(31.5125 188.572471)scale(0.1 -0.1)">
       <defs>
        <path id="DejaVuSans-33" d="M 2597 2516 
Q 3050 2419 3304 2112 
Q 3559 1806 3559 1356 
Q 3559 666 3084 287 
Q 2609 -91 1734 -91 
Q 1441 -91 1130 -33 
Q 819 25 488 141 
L 488 750 
Q 750 597 1062 519 
Q 1375 441 1716 441 
Q 2309 441 2620 675 
Q 2931 909 2931 1356 
Q 2931 1769 2642 2001 
Q 2353 2234 1838 2234 
L 1294 2234 
L 1294 2753 
L 1863 2753 
Q 2328 2753 2575 2939 
Q 2822 3125 2822 3475 
Q 2822 3834 2567 4026 
Q 2313 4219 1838 4219 
Q 1578 4219 1281 4162 
Q 984 4106 628 3988 
L 628 4550 
Q 988 4650 1302 4700 
Q 1616 4750 1894 4750 
Q 2613 4750 3031 4423 
Q 3450 4097 3450 3541 
Q 3450 3153 3228 2886 
Q 3006 2619 2597 2516 
z
" transform="scale(0.015625)"/>
       </defs>
       <use xlink:href="#DejaVuSans-33"/>
       <use xlink:href="#DejaVuSans-30" x="63.623047"/>
       <use xlink:href="#DejaVuSans-30" x="127.246094"/>
      </g>
     </g>
    </g>
    <g id="ytick_4">
     <g id="line2d_10">
      <g>
       <use xlink:href="#me680e359ab" x="57.6" y="136.989098" style="stroke: #000000; stroke-width: 0.8"/>
      </g>
     </g>
     <g id="text_10">
      <!-- 400 -->
      <g transform="translate(31.5125 140.788317)scale(0.1 -0.1)">
       <defs>
        <path id="DejaVuSans-34" d="M 2419 4116 
L 825 1625 
L 2419 1625 
L 2419 4116 
z
M 2253 4666 
L 3047 4666 
L 3047 1625 
L 3713 1625 
L 3713 1100 
L 3047 1100 
L 3047 0 
L 2419 0 
L 2419 1100 
L 313 1100 
L 313 1709 
L 2253 4666 
z
" transform="scale(0.015625)"/>
       </defs>
       <use xlink:href="#DejaVuSans-34"/>
       <use xlink:href="#DejaVuSans-30" x="63.623047"/>
       <use xlink:href="#DejaVuSans-30" x="127.246094"/>
      </g>
     </g>
    </g>
    <g id="ytick_5">
     <g id="line2d_11">
      <g>
       <use xlink:href="#me680e359ab" x="57.6" y="89.204944" style="stroke: #000000; stroke-width: 0.8"/>
      </g>
     </g>
     <g id="text_11">
      <!-- 500 -->
      <g transform="translate(31.5125 93.004163)scale(0.1 -0.1)">
       <use xlink:href="#DejaVuSans-35"/>
       <use xlink:href="#DejaVuSans-30" x="63.623047"/>
       <use xlink:href="#DejaVuSans-30" x="127.246094"/>
      </g>
     </g>
    </g>
   </g>
   <g id="line2d_12">
    <path d="M 73.832727 283.411214 
L 74.101704 282.862174 
L 74.236192 281.752149 
L 74.37068 282.715477 
L 74.505168 282.2233 
L 74.639657 282.824903 
L 74.774145 276.35684 
L 74.908633 249.256535 
L 75.177609 247.764236 
L 75.312098 248.319487 
L 75.446586 248.37205 
L 75.581074 249.238377 
L 75.715562 248.482431 
L 75.85005 248.460451 
L 76.253515 243.477519 
L 76.522492 277.518473 
L 76.65698 277.831459 
L 76.925956 276.125564 
L 77.060444 267.274028 
L 77.194933 269.516538 
L 77.463909 269.580091 
L 77.598397 271.163658 
L 77.732885 265.840025 
L 77.867374 252.439437 
L 78.405327 104.083496 
L 78.674303 103.162218 
L 78.808791 110.29687 
L 78.943279 105.496474 
L 79.481232 158.168947 
L 79.750209 228.510566 
L 80.019185 263.215242 
L 80.153673 265.338292 
L 80.288161 261.505525 
L 80.42265 271.896189 
L 80.557138 271.461831 
L 80.826114 273.96811 
L 80.960603 271.429338 
L 81.095091 261.120862 
L 81.364067 168.351272 
L 81.498555 180.645657 
L 81.767532 161.251025 
L 82.036508 169.249614 
L 82.170996 166.150334 
L 82.305485 160.178748 
L 83.112414 260.643021 
L 83.650367 286.812968 
L 83.784855 286.833516 
L 83.919343 288.361175 
L 84.053831 288.553267 
L 84.18832 286.457454 
L 84.322808 279.236791 
L 84.726273 189.15267 
L 84.860761 180.49227 
L 84.995249 184.586416 
L 85.129737 169.712643 
L 85.264225 178.24976 
L 85.398714 178.996626 
L 85.66769 187.288132 
L 85.802178 196.05318 
L 86.340131 262.767504 
L 86.474619 264.779217 
L 86.609107 269.68665 
L 86.878084 287.194764 
L 87.012572 289.444442 
L 87.14706 289.118076 
L 87.281549 290.607986 
L 87.416037 290.510984 
L 87.550525 289.700087 
L 87.819501 262.212252 
L 87.95399 262.357994 
L 88.088478 256.675025 
L 88.222966 258.133875 
L 88.357454 257.376496 
L 88.491942 254.020137 
L 88.626431 256.853259 
L 88.760919 249.863393 
L 88.895407 252.739044 
L 89.029895 252.73761 
L 89.164384 255.29693 
L 89.43336 276.585248 
L 89.567848 278.247659 
L 89.702336 277.749748 
L 89.836825 278.809123 
L 89.971313 263.668713 
L 90.105801 264.381653 
L 90.240289 265.925081 
L 90.374777 265.694761 
L 90.509266 266.929982 
L 90.643754 267.101527 
L 90.778242 269.199729 
L 90.91273 265.978599 
L 91.047218 256.045707 
L 91.181707 254.875473 
L 91.316195 247.948204 
L 91.450683 252.380185 
L 91.585171 250.4153 
L 91.71966 251.912856 
L 91.854148 252.138875 
L 92.123124 255.120128 
L 92.257612 254.547674 
L 92.526589 260.139854 
L 92.795565 266.733589 
L 92.930053 267.688316 
L 93.064542 266.548186 
L 93.19903 276.561834 
L 93.468006 276.68655 
L 93.602495 277.746881 
L 93.736983 276.513094 
L 93.871471 273.990568 
L 94.005959 268.772539 
L 94.6784 161.538207 
L 94.812888 157.14111 
L 95.081865 169.000659 
L 95.216353 163.784063 
L 95.350841 152.517515 
L 96.023282 265.106061 
L 96.157771 265.835725 
L 96.426747 269.763582 
L 96.561235 269.430049 
L 96.695723 269.507459 
L 96.830212 271.390633 
L 96.9647 270.752714 
L 97.099188 269.324924 
L 97.233676 260.855182 
L 97.368164 243.287816 
L 97.502653 202.255085 
L 97.637141 195.157227 
L 97.771629 179.680417 
L 97.906117 188.078482 
L 98.040606 181.363375 
L 98.175094 182.073448 
L 98.309582 176.752682 
L 98.44407 178.395501 
L 98.713047 189.76813 
L 98.982023 231.727396 
L 99.250999 266.588325 
L 99.385488 271.276428 
L 99.519976 272.03094 
L 99.654464 281.839594 
L 99.788952 281.852017 
L 99.923441 280.850462 
L 100.192417 282.089027 
L 100.326905 282.169782 
L 100.461393 281.514661 
L 100.595882 281.920827 
L 100.73037 282.749882 
L 100.864858 281.210754 
L 100.999346 282.367131 
L 101.133834 281.458754 
L 101.268323 279.242525 
L 101.402811 272.214431 
L 101.537299 276.488246 
L 101.806276 266.09806 
L 101.940764 268.259815 
L 102.075252 268.111206 
L 102.20974 268.759637 
L 102.344228 271.139288 
L 102.478717 276.959876 
L 102.613205 275.106806 
L 102.747693 280.779263 
L 102.882181 267.316078 
L 103.016669 267.344748 
L 103.151158 272.253137 
L 103.285646 272.033807 
L 103.554622 267.85126 
L 103.68911 263.661068 
L 103.823599 246.227975 
L 104.092575 183.933685 
L 104.227063 162.441328 
L 104.361552 169.608951 
L 104.630528 144.723919 
L 105.033993 160.04782 
L 105.168481 170.832225 
L 105.706434 253.931258 
L 105.840922 253.808931 
L 105.97541 262.511381 
L 106.109898 278.950564 
L 106.378875 282.141112 
L 106.513363 282.127254 
L 106.647851 284.285187 
L 106.782339 284.01664 
L 106.916828 285.128577 
L 107.320292 247.541084 
L 107.45478 254.607882 
L 107.589269 252.072933 
L 107.723757 252.165634 
L 108.26171 247.100514 
L 108.396198 243.69207 
L 108.530686 245.952738 
L 108.934151 277.575814 
L 109.068639 279.091527 
L 109.203127 278.024029 
L 109.337615 273.526584 
L 109.606592 275.075747 
L 109.875568 276.128431 
L 110.144545 277.177772 
L 110.413521 275.939684 
L 110.548009 275.804933 
L 110.951474 271.75427 
L 111.085962 272.927849 
L 111.22045 272.580458 
L 111.623915 266.78424 
L 111.758403 267.292186 
L 112.02738 271.073824 
L 112.430844 272.671248 
L 112.565333 262.430626 
L 112.834309 266.629897 
L 112.968797 267.153134 
L 113.103285 268.66168 
L 113.237774 268.839914 
L 113.50675 271.455619 
L 113.641238 272.285152 
L 114.313679 261.060176 
L 114.448168 260.699406 
L 114.582656 259.218575 
L 114.98612 248.397853 
L 115.524073 259.449373 
L 115.658561 259.99889 
L 115.927538 262.222287 
L 116.062026 260.93976 
L 116.196514 267.030329 
L 116.331002 266.613651 
L 116.465491 267.223854 
L 116.599979 257.480188 
L 117.137932 79.088561 
L 117.406908 64.410702 
L 117.810373 80.922995 
L 118.213837 148.01338 
L 118.482814 210.25033 
L 118.75179 244.62625 
L 118.886279 246.157732 
L 119.289743 254.138642 
L 119.424231 255.554486 
L 119.55872 258.321189 
L 119.693208 258.63752 
L 119.827696 249.037205 
L 120.365649 91.925296 
L 120.634625 73.388867 
L 120.769114 77.074459 
L 120.903602 70.66517 
L 121.03809 71.991181 
L 121.441555 135.321431 
L 121.710531 202.046268 
L 121.845019 230.181578 
L 122.248484 241.128928 
L 122.51746 256.620073 
L 122.651948 256.779194 
L 122.786437 258.515192 
L 122.920925 257.176758 
L 123.055413 249.029082 
L 123.727854 60.460386 
L 123.862342 53.568 
L 124.534783 107.61379 
L 125.072736 248.331433 
L 125.207225 253.494033 
L 125.341713 253.956584 
L 125.476201 253.910233 
L 125.745177 267.488101 
L 125.879666 268.922581 
L 126.014154 269.151945 
L 126.28313 255.722209 
L 126.821083 93.02911 
L 126.955571 74.707232 
L 127.09006 81.294755 
L 127.359036 105.793213 
L 127.493524 108.232117 
L 127.762501 126.699736 
L 127.896989 149.466019 
L 128.300453 246.716329 
L 128.434942 252.509202 
L 128.56943 250.684803 
L 128.703918 258.174013 
L 128.838406 258.896988 
L 129.241871 265.579602 
L 129.510847 244.901487 
L 130.0488 83.465112 
L 130.183288 74.370831 
L 130.317777 86.270519 
L 130.452265 115.049004 
L 130.586753 114.132026 
L 130.721241 110.490396 
L 130.855729 116.870536 
L 131.124706 170.060033 
L 131.393682 235.602213 
L 131.662659 258.667146 
L 131.931635 258.471231 
L 132.066123 258.289173 
L 132.3351 269.543297 
L 132.469588 269.395166 
L 132.604076 269.49408 
L 132.738564 269.452507 
L 133.007541 257.580056 
L 133.276517 247.13683 
L 133.679982 241.567586 
L 133.81447 240.387318 
L 133.948958 235.296394 
L 134.486911 245.15761 
L 134.755888 252.23301 
L 134.890376 252.118328 
L 135.697305 266.337936 
L 135.831793 271.080513 
L 135.966282 271.688806 
L 136.10077 269.709586 
L 136.235258 271.210486 
L 136.369746 270.936683 
L 136.504234 266.644233 
L 136.638723 266.485589 
L 136.907699 264.554154 
L 137.311164 253.689471 
L 137.445652 254.198372 
L 137.58014 251.520548 
L 137.983605 258.322144 
L 138.118093 257.421891 
L 138.252581 259.253457 
L 138.387069 263.737523 
L 138.521558 262.506603 
L 138.656046 262.707296 
L 138.925022 267.394444 
L 139.193999 251.178891 
L 139.731951 81.614431 
L 139.86644 72.712721 
L 140.269904 98.678153 
L 140.538881 123.06384 
L 140.673369 130.142585 
L 140.807857 144.478309 
L 141.076834 224.45178 
L 141.480298 257.584835 
L 142.018251 266.009181 
L 142.152739 265.546153 
L 142.421716 241.849991 
L 142.959669 91.596063 
L 143.094157 84.192386 
L 143.228645 83.705466 
L 143.363133 93.914073 
L 143.497621 84.655415 
L 143.63211 89.773576 
L 144.573527 258.830568 
L 144.708015 262.31451 
L 144.842504 262.489878 
L 145.11148 264.728566 
L 145.245968 266.86834 
L 145.380456 262.79713 
L 145.783921 201.730415 
L 146.052897 110.187922 
L 146.187386 91.098152 
L 146.456362 106.386692 
L 146.59085 117.690512 
L 146.725339 112.008976 
L 146.859827 119.411219 
L 146.994315 114.341798 
L 147.128803 127.181401 
L 147.532268 234.288148 
L 147.801244 260.266004 
L 147.935732 260.468131 
L 148.204709 265.732989 
L 148.339197 265.711486 
L 148.473685 266.214653 
L 148.742662 265.162446 
L 148.87715 247.494255 
L 149.280615 119.275512 
L 149.415103 115.239663 
L 149.549591 106.164496 
L 149.684079 107.419308 
L 150.087544 140.107014 
L 150.222032 132.419977 
L 150.35652 137.93618 
L 150.894473 252.691737 
L 151.028961 261.857694 
L 151.16345 260.900577 
L 151.835891 269.070712 
L 151.970379 267.799176 
L 152.104867 246.863026 
L 152.508332 113.269522 
L 152.64282 116.376448 
L 152.911796 104.530278 
L 153.046285 118.671043 
L 153.180773 117.171098 
L 153.449749 151.623473 
L 153.718726 192.545823 
L 153.987702 249.136596 
L 154.12219 266.177381 
L 154.256678 267.555476 
L 154.525655 271.41548 
L 154.794631 273.118508 
L 155.063608 276.061534 
L 155.198096 277.702442 
L 155.332584 277.059267 
L 155.467072 272.680805 
L 155.601561 262.210819 
L 155.736049 261.350226 
L 155.870537 258.486522 
L 156.005025 260.624385 
L 156.274002 258.72831 
L 156.40849 259.264448 
L 156.542978 260.517348 
L 156.677466 259.321311 
L 157.215419 267.326112 
L 157.349907 269.331136 
L 157.484396 268.339614 
L 157.618884 269.109417 
L 157.88786 272.283718 
L 158.022348 272.764427 
L 158.291325 275.761927 
L 158.560301 280.040998 
L 158.694789 278.475589 
L 158.829278 279.439396 
L 158.963766 279.043265 
L 159.232742 276.330558 
L 159.367231 276.612485 
L 159.501719 274.62992 
L 160.039672 260.554142 
L 160.308648 260.813132 
L 160.443136 266.529073 
L 160.577624 266.245713 
L 160.712113 264.291341 
L 160.846601 264.992812 
L 160.981089 266.484156 
L 161.250066 270.239035 
L 161.519042 271.189939 
L 161.788018 254.434903 
L 162.460459 83.890868 
L 162.594948 83.554468 
L 162.729436 82.096096 
L 162.998412 101.676608 
L 163.132901 110.617024 
L 163.401877 151.861438 
L 163.670853 222.553794 
L 164.074318 256.625329 
L 164.208806 257.757813 
L 164.477783 270.406279 
L 164.612271 272.766338 
L 164.746759 268.066767 
L 165.015735 250.567254 
L 165.4192 120.887272 
L 165.553688 123.484818 
L 165.822665 109.600177 
L 165.957153 114.852611 
L 166.091641 111.769577 
L 166.360618 100.322406 
L 166.495106 106.512365 
L 166.89857 221.654974 
L 167.033059 228.622381 
L 167.302035 247.000645 
L 167.974476 265.453451 
L 168.108964 259.783384 
L 168.243453 245.780237 
L 168.377941 207.727804 
L 168.646917 106.338431 
L 168.781405 107.620479 
L 168.915894 103.097709 
L 169.050382 104.39696 
L 169.18487 108.190066 
L 169.319358 92.872378 
L 169.453847 95.349031 
L 169.857311 148.690004 
L 170.126288 226.836687 
L 170.395264 257.632141 
L 170.529752 258.51137 
L 170.66424 261.946095 
L 170.798729 262.13532 
L 171.067705 264.460975 
L 171.202193 267.293619 
L 171.47117 245.520292 
L 172.009123 110.398172 
L 172.143611 108.822729 
L 172.412587 97.073083 
L 172.95054 129.552928 
L 173.622981 259.60037 
L 173.757469 263.587002 
L 173.891958 276.958442 
L 174.026446 276.029996 
L 174.160934 275.986035 
L 174.42991 277.516083 
L 174.698887 262.734533 
L 174.833375 245.621594 
L 175.102351 177.143556 
L 175.371328 143.790695 
L 175.505816 140.892586 
L 175.640304 151.05293 
L 175.774792 150.742811 
L 175.909281 152.15101 
L 176.043769 156.955229 
L 176.178257 156.647499 
L 176.312745 171.113674 
L 176.581722 238.741154 
L 176.850698 265.854361 
L 176.985186 263.361461 
L 177.254163 268.094004 
L 177.388651 268.05052 
L 177.792116 274.606506 
L 177.926604 275.496725 
L 178.19558 264.784951 
L 178.330069 264.344859 
L 178.599045 256.780628 
L 178.733533 256.215341 
L 178.868021 258.522838 
L 179.136998 255.01357 
L 179.271486 255.609438 
L 179.540462 253.124184 
L 179.809439 260.629163 
L 179.943927 267.898567 
L 180.212904 265.997235 
L 180.48188 275.863707 
L 180.616368 275.877565 
L 180.750856 276.249803 
L 180.885345 277.081248 
L 181.019833 277.167737 
L 181.692274 264.857583 
L 181.826762 266.153489 
L 181.96125 260.16948 
L 182.095738 261.951829 
L 182.364715 267.390621 
L 182.499203 268.668847 
L 182.633691 271.816867 
L 182.902668 270.998803 
L 183.171644 277.130465 
L 183.306132 278.546788 
L 183.440621 277.436762 
L 183.575109 275.134521 
L 183.844085 286.869354 
L 183.978573 287.820736 
L 184.113062 285.541432 
L 184.382038 274.153512 
L 184.919991 182.408415 
L 185.054479 186.424673 
L 185.188967 179.350706 
L 185.457944 183.211666 
L 185.592432 184.711133 
L 185.995897 222.473038 
L 186.264873 253.075922 
L 186.53385 268.835614 
L 186.802826 279.091527 
L 187.071802 289.590661 
L 187.206291 288.440019 
L 187.340779 289.574415 
L 187.475267 286.396291 
L 187.609755 278.396267 
L 188.01322 202.471547 
L 188.147708 186.068681 
L 188.282196 186.287532 
L 188.416684 185.328982 
L 188.551173 188.641857 
L 188.685661 195.044934 
L 188.820149 190.632067 
L 188.954637 195.068348 
L 189.089126 203.442999 
L 189.627078 265.459663 
L 189.761567 268.049087 
L 189.896055 273.28623 
L 190.030543 270.849716 
L 190.299519 272.68176 
L 190.434008 271.510093 
L 190.971961 274.935739 
L 191.106449 271.482378 
L 191.240937 270.996891 
L 191.375425 271.43555 
L 191.509913 267.005481 
L 191.644402 268.555121 
L 191.913378 267.288841 
L 192.182354 261.650789 
L 192.316843 261.999613 
L 192.451331 261.501224 
L 192.585819 262.822456 
L 192.720307 268.594304 
L 192.989284 269.852461 
L 193.392748 267.164124 
L 193.661725 270.04742 
L 193.796213 270.582125 
L 194.065189 262.692005 
L 194.603142 158.902433 
L 194.73763 153.988789 
L 194.872119 144.03296 
L 195.006607 145.60936 
L 195.141095 150.355282 
L 195.275583 142.953516 
L 195.54456 156.352671 
L 195.948024 250.419123 
L 196.217001 260.760092 
L 196.351489 262.687705 
L 196.485977 272.165214 
L 196.620465 271.512482 
L 196.889442 272.069645 
L 197.02393 273.198785 
L 197.158418 271.468043 
L 197.292907 265.143332 
L 197.830859 196.392447 
L 197.965348 198.7052 
L 198.099836 195.385635 
L 198.234324 199.791812 
L 198.5033 186.459555 
L 198.772277 200.266786 
L 199.31023 272.841837 
L 199.713694 281.959054 
L 199.848183 280.789776 
L 200.117159 281.518006 
L 200.251647 279.733746 
L 200.386135 273.951863 
L 200.520624 273.548565 
L 200.655112 260.583768 
L 200.7896 213.33623 
L 200.924088 211.365134 
L 201.058576 199.675219 
L 201.193065 199.316837 
L 201.327553 196.630412 
L 201.462041 198.804113 
L 201.731018 186.998083 
L 201.865506 188.359931 
L 202.134482 211.066961 
L 202.403459 264.567533 
L 202.806923 274.371408 
L 203.0759 265.895455 
L 203.210388 270.224699 
L 203.344876 270.350849 
L 203.748341 260.969386 
L 203.882829 243.573087 
L 204.151805 181.579837 
L 204.420782 165.099083 
L 204.55527 159.467242 
L 204.689758 162.90579 
L 204.824246 156.402844 
L 204.958735 172.434906 
L 205.093223 172.681472 
L 205.765664 260.388331 
L 205.900152 260.899622 
L 206.03464 264.701807 
L 206.169129 279.558856 
L 206.303617 280.040042 
L 206.572593 283.980802 
L 206.84157 284.792654 
L 207.110546 275.399245 
L 207.379522 266.211308 
L 207.514011 265.333035 
L 207.917475 273.455386 
L 208.051964 273.20882 
L 208.32094 266.844448 
L 208.589916 268.447129 
L 208.858893 276.503059 
L 208.993381 280.158547 
L 209.127869 280.742469 
L 209.262357 280.198208 
L 209.396846 274.340348 
L 209.531334 275.438428 
L 209.80031 275.023184 
L 209.934799 276.014705 
L 210.203775 263.826879 
L 211.010704 108.616301 
L 211.279681 134.2525 
L 211.683145 167.371697 
L 212.221098 255.05992 
L 212.355586 257.525105 
L 212.759051 272.774462 
L 212.893539 272.567078 
L 213.028027 272.667425 
L 213.162516 275.318012 
L 213.431492 257.603948 
L 213.56598 219.501342 
L 213.834957 135.532159 
L 213.969445 140.120394 
L 214.103933 139.028526 
L 214.238421 141.991621 
L 214.910862 180.336494 
L 215.448815 260.682204 
L 215.583303 265.651756 
L 215.717792 266.270083 
L 216.121256 270.535774 
L 216.255745 271.493846 
L 216.390233 273.886399 
L 216.524721 269.874919 
L 216.659209 262.350349 
L 217.062674 149.179314 
L 217.197162 151.093069 
L 217.33165 151.173824 
L 217.466138 162.648711 
L 217.600627 161.363795 
L 217.735115 149.498512 
L 217.869603 154.733744 
L 218.273068 196.962034 
L 218.542044 255.834501 
L 218.811021 272.647834 
L 218.945509 265.222176 
L 219.483462 275.952108 
L 219.61795 277.752137 
L 219.886926 263.988867 
L 220.290391 162.308488 
L 220.693856 150.637208 
L 220.828344 161.311233 
L 220.962832 157.38672 
L 221.231808 184.566347 
L 221.500785 198.445254 
L 221.769761 255.697839 
L 222.038738 271.345716 
L 222.173226 270.592159 
L 222.307714 271.818301 
L 222.576691 277.874942 
L 222.845667 280.51645 
L 222.980155 278.842571 
L 223.114643 280.717622 
L 223.38362 260.145588 
L 223.518108 264.014193 
L 223.652596 263.857461 
L 223.921573 256.88862 
L 224.190549 256.215341 
L 224.325037 258.707285 
L 224.459525 258.077967 
L 224.728502 254.214141 
L 225.131967 261.492623 
L 225.266455 260.004624 
L 225.535431 261.478766 
L 225.669919 260.164223 
L 226.073384 269.945162 
L 226.34236 272.980411 
L 226.476849 272.908257 
L 226.745825 269.756892 
L 226.880313 272.04432 
L 227.014802 272.288019 
L 227.14929 271.990324 
L 227.283778 270.567789 
L 227.418266 272.248358 
L 227.552754 272.377375 
L 227.687243 272.207742 
L 227.956219 271.096282 
L 228.090707 276.925949 
L 228.225195 276.965132 
L 228.359684 278.069424 
L 228.494172 277.294843 
L 228.62866 278.268206 
L 228.763148 278.153524 
L 228.897637 275.859885 
L 229.301101 276.765872 
L 229.435589 270.537208 
L 229.570078 256.419857 
L 230.242519 94.595475 
L 230.377007 79.722657 
L 230.511495 109.775067 
L 230.780471 117.745464 
L 231.049448 145.281083 
L 231.587401 254.256191 
L 231.856377 265.506492 
L 232.125354 270.332691 
L 232.39433 275.000725 
L 232.528818 274.18505 
L 232.797795 257.039618 
L 232.932283 220.681133 
L 233.201259 133.312108 
L 233.335748 125.116647 
L 233.470236 135.438025 
L 233.604724 135.660699 
L 233.739212 148.483577 
L 233.8737 133.711105 
L 234.008189 140.450105 
L 234.815118 264.923525 
L 234.949606 264.656412 
L 235.218583 270.574479 
L 235.622047 278.330803 
L 235.756535 277.73159 
L 236.025512 265.044897 
L 236.563465 129.146763 
L 236.832441 116.905896 
L 237.63937 200.79958 
L 237.908347 259.010714 
L 238.177323 267.118729 
L 238.849764 282.072302 
L 238.984252 281.245637 
L 239.118741 277.438195 
L 239.253229 263.504814 
L 239.791182 128.375049 
L 240.194646 146.152188 
L 240.463623 165.324146 
L 240.732599 178.812657 
L 241.270552 256.472898 
L 241.674017 262.362295 
L 241.942993 275.33617 
L 242.077481 281.851062 
L 242.21197 281.223656 
L 242.480946 263.21333 
L 242.884411 151.209663 
L 243.018899 159.10026 
L 243.153387 156.848193 
L 243.287875 145.84398 
L 243.422363 153.843525 
L 243.556852 151.025216 
L 243.825828 167.704752 
L 244.229293 239.863126 
L 244.498269 262.301609 
L 244.767246 267.587014 
L 245.17071 275.462798 
L 245.305198 276.329603 
L 245.439687 276.033341 
L 245.574175 274.801943 
L 245.708663 263.320367 
L 245.843151 268.780662 
L 246.112128 265.792241 
L 246.381104 260.601926 
L 246.515592 260.568477 
L 247.188033 270.832992 
L 247.322522 271.239157 
L 247.45701 272.107873 
L 247.591498 271.752837 
L 247.725986 274.922359 
L 247.860475 273.481667 
L 248.129451 274.807677 
L 248.263939 273.922715 
L 248.398427 274.606506 
L 248.532916 274.453119 
L 248.667404 276.401757 
L 248.801892 276.302844 
L 249.205357 277.84436 
L 249.339845 277.960954 
L 249.608821 277.011005 
L 249.743309 277.142889 
L 249.877798 276.842327 
L 250.550239 273.67137 
L 250.819215 273.971933 
L 250.953703 274.75177 
L 251.088192 273.614029 
L 251.357168 274.87362 
L 251.491656 283.784409 
L 251.626144 283.294143 
L 251.760633 283.725156 
L 251.895121 283.565079 
L 252.164097 271.304621 
L 252.70205 143.728098 
L 252.836538 163.488279 
L 252.971027 160.039696 
L 253.240003 172.964832 
L 253.374491 174.319513 
L 253.508979 171.390344 
L 253.777956 204.251507 
L 254.046932 255.673469 
L 254.315909 277.026774 
L 254.719373 285.392345 
L 254.853862 285.151991 
L 255.122838 286.887512 
L 255.391814 266.096626 
L 255.660791 172.75506 
L 255.795279 176.206509 
L 256.198744 160.514671 
L 256.333232 164.192617 
L 256.46772 161.524828 
L 256.602208 162.722299 
L 257.409138 257.91789 
L 257.812602 265.3985 
L 258.081579 280.623487 
L 258.216067 281.688596 
L 258.350555 280.958454 
L 258.619532 266.770861 
L 258.888508 177.565013 
L 259.022996 178.435162 
L 259.157484 169.371464 
L 259.291973 168.795187 
L 259.426461 153.292096 
L 259.695437 167.008537 
L 259.829925 155.863839 
L 259.964414 164.947607 
L 260.771343 260.991845 
L 261.040319 263.232922 
L 261.309296 270.740768 
L 261.443784 273.958553 
L 261.71276 271.040853 
L 261.847249 258.635131 
L 262.116225 170.37302 
L 262.250713 174.545054 
L 262.654178 148.084579 
L 262.788666 155.393643 
L 262.923154 150.618095 
L 263.326619 185.807779 
L 263.461107 196.718335 
L 263.864572 245.549918 
L 264.268036 263.613762 
L 264.402525 262.855427 
L 264.671501 266.289196 
L 264.805989 266.163046 
L 264.940478 265.211186 
L 265.074966 257.63453 
L 265.209454 238.496499 
L 265.612919 124.071608 
L 265.881895 105.938955 
L 266.016383 115.451347 
L 266.150871 115.320418 
L 266.28536 114.871725 
L 266.419848 119.508221 
L 266.688824 156.824301 
L 266.957801 235.72454 
L 267.226777 252.408855 
L 267.361265 250.984887 
L 267.495754 267.371507 
L 267.630242 267.055176 
L 267.76473 268.926404 
L 267.899218 269.237956 
L 268.168195 275.766228 
L 268.302683 276.652146 
L 268.437171 274.08757 
L 268.706147 276.62682 
L 268.975124 273.128064 
L 269.2441 271.241068 
L 269.916541 256.730932 
L 270.320006 258.622707 
L 270.588982 263.515326 
L 270.723471 277.62981 
L 270.857959 278.671026 
L 270.992447 277.191151 
L 271.126935 278.075636 
L 271.261424 278.105262 
L 271.395912 277.918904 
L 271.799376 280.699942 
L 271.933865 279.312768 
L 272.068353 279.668282 
L 272.202841 279.022718 
L 272.337329 279.259249 
L 272.471817 278.414903 
L 272.606306 276.246458 
L 272.740794 277.530896 
L 272.875282 277.207876 
L 273.00977 276.529818 
L 273.144258 274.192218 
L 273.278747 274.092349 
L 273.547723 277.075036 
L 273.682211 277.289586 
L 273.8167 277.974333 
L 273.951188 277.111352 
L 274.085676 287.778208 
L 274.354652 289.413382 
L 274.489141 287.838894 
L 274.758117 273.09366 
L 275.29607 166.39021 
L 275.565046 154.128796 
L 275.699535 154.46663 
L 275.834023 172.456887 
L 275.968511 174.743358 
L 276.102999 184.920427 
L 276.77544 264.399811 
L 277.447881 281.836727 
L 277.58237 285.240392 
L 277.716858 284.848562 
L 277.851346 280.440951 
L 277.985834 270.436383 
L 278.389299 209.800681 
L 278.523787 190.273686 
L 278.658275 188.271052 
L 278.792763 178.735247 
L 278.927252 190.891535 
L 279.06174 185.058524 
L 279.196228 187.153859 
L 279.330716 194.866221 
L 280.137646 274.795254 
L 280.272134 277.186851 
L 280.406622 268.8122 
L 280.54111 268.527406 
L 280.810087 269.700985 
L 280.944575 269.076446 
L 281.213551 261.139976 
L 281.348039 232.125915 
L 281.482528 161.503325 
L 281.617016 151.271782 
L 281.751504 127.819797 
L 281.885992 128.974262 
L 282.154969 142.514858 
L 282.289457 124.356879 
L 282.423945 128.454371 
L 282.558433 137.585445 
L 282.82741 186.142746 
L 283.096386 254.857315 
L 283.365363 261.502658 
L 283.499851 263.715064 
L 283.634339 263.042263 
L 283.768827 263.052776 
L 283.903316 263.242479 
L 284.037804 264.550331 
L 284.172292 264.679826 
L 284.441268 259.47422 
L 285.113709 143.927357 
L 285.248198 142.848869 
L 285.382686 138.301251 
L 285.517174 147.564687 
L 285.651662 144.456328 
L 285.78615 147.95365 
L 286.055127 201.208134 
L 286.324103 250.90031 
L 286.59308 260.600971 
L 286.727568 260.479121 
L 286.862056 279.461376 
L 286.996544 279.520629 
L 287.131033 278.540576 
L 287.265521 279.147434 
L 287.668985 275.61284 
L 287.803474 276.492069 
L 288.07245 275.61523 
L 288.206938 273.439139 
L 288.341427 273.38371 
L 288.475915 271.032251 
L 288.610403 270.660491 
L 288.744891 269.534218 
L 288.879379 272.368296 
L 289.013868 272.70852 
L 289.148356 269.892122 
L 289.417332 277.061656 
L 289.55182 278.251004 
L 289.820797 277.8888 
L 289.955285 278.680583 
L 290.089773 277.178249 
L 290.224262 278.728367 
L 290.35875 277.819513 
L 290.493238 278.801477 
L 290.627726 277.256615 
L 291.031191 259.242467 
L 291.300167 192.924273 
L 291.434655 187.328749 
L 291.569144 187.937519 
L 291.703632 192.008729 
L 291.972608 179.238414 
L 292.376073 192.344174 
L 293.048514 268.890088 
L 293.183002 270.139166 
L 293.31749 268.985178 
L 293.451979 269.738257 
L 293.586467 268.806943 
L 293.720955 271.286941 
L 293.855443 271.55071 
L 294.258908 247.582656 
L 294.527884 189.479991 
L 294.796861 157.735544 
L 294.931349 141.835367 
L 295.065837 141.701094 
L 295.200325 149.688693 
L 295.334814 143.957461 
L 295.60379 172.069835 
L 295.738278 186.588572 
L 296.141743 256.928758 
L 296.276231 256.037106 
L 296.410719 263.249646 
L 296.545208 280.961799 
L 296.948672 283.129288 
L 297.486625 285.097995 
L 297.621113 284.752038 
L 297.755601 284.748215 
L 298.024578 281.570569 
L 298.159066 281.420049 
L 298.428042 279.275496 
L 298.697019 275.445118 
L 298.831507 274.308333 
L 298.965995 274.165936 
L 299.100484 274.521928 
L 299.36946 278.310734 
L 299.503948 277.803744 
L 299.638436 279.348606 
L 299.772925 269.679482 
L 299.907413 273.085059 
L 300.041901 272.783063 
L 300.176389 273.650345 
L 300.310877 273.366507 
L 300.579854 262.385231 
L 301.252295 128.151897 
L 301.386783 128.220706 
L 301.521271 141.425857 
L 301.65576 134.477085 
L 301.790248 143.901076 
L 302.597177 252.808331 
L 302.731665 254.562965 
L 303.000642 266.983022 
L 303.13513 267.207608 
L 303.269618 267.688316 
L 303.404106 270.150156 
L 303.538595 270.569701 
L 303.807571 254.195027 
L 304.345524 164.329758 
L 304.6145 153.796697 
L 304.748988 162.04233 
L 304.883477 152.459696 
L 305.017965 158.545964 
L 306.093871 265.432904 
L 306.228359 266.444495 
L 306.497335 276.609618 
L 306.766312 277.640322 
L 306.9008 272.927371 
L 307.035288 262.378063 
L 307.304265 169.812989 
L 307.438753 177.081437 
L 307.842217 157.801487 
L 307.976706 164.859206 
L 308.111194 156.432471 
L 308.245682 161.399633 
L 308.649147 207.444922 
L 309.052611 263.863195 
L 309.590564 276.105495 
L 309.994029 277.810434 
L 310.128517 274.253859 
L 310.263005 261.625941 
L 310.531982 169.701652 
L 310.66647 170.854206 
L 310.935446 168.562956 
L 311.069934 159.202996 
L 311.204423 165.664369 
L 311.338911 164.372286 
L 311.473399 157.592192 
L 311.607887 170.740958 
L 311.876864 208.352821 
L 312.14584 250.719685 
L 312.414817 262.536229 
L 312.818281 271.155057 
L 312.952769 270.720699 
L 313.087258 272.608173 
L 313.221746 272.50926 
L 313.356234 274.08757 
L 313.625211 263.521538 
L 313.759699 255.622817 
L 313.894187 258.978699 
L 314.028675 256.447572 
L 314.163163 258.332657 
L 314.297652 255.569777 
L 314.566628 262.139143 
L 314.701116 262.874541 
L 314.970093 267.632409 
L 315.104581 267.594659 
L 315.239069 267.29792 
L 315.508045 270.2333 
L 315.642534 270.770872 
L 315.777022 270.440206 
L 316.180487 273.432927 
L 316.314975 272.992835 
L 316.718439 275.34955 
L 316.852928 275.598983 
L 316.987416 274.744602 
L 317.121904 274.810067 
L 317.256392 273.68905 
L 317.39088 273.833836 
L 317.525369 272.293275 
L 317.659857 273.213598 
L 317.928833 270.69155 
L 318.332298 266.951007 
L 318.466786 267.606128 
L 318.601274 267.10296 
L 318.735763 268.560855 
L 318.870251 268.396955 
L 319.139227 269.514627 
L 319.273715 279.361507 
L 319.67718 280.48109 
L 319.811668 277.899312 
L 319.946157 269.936083 
L 320.349621 147.805042 
L 320.484109 131.635362 
L 320.887574 158.945439 
L 321.022062 163.617296 
L 321.291039 178.417004 
L 321.425527 180.219422 
L 321.560015 198.681308 
L 321.828991 254.273871 
L 321.96348 262.370896 
L 322.097968 263.158379 
L 322.635921 279.878054 
L 322.770409 280.225445 
L 322.904897 279.565546 
L 323.173874 269.121363 
L 323.44285 173.54302 
L 323.577338 173.905224 
L 323.711826 174.106873 
L 323.980803 153.906122 
L 324.249779 157.449317 
L 324.384268 160.218887 
L 324.787732 196.50474 
L 325.056709 251.091924 
L 325.325685 260.374474 
L 325.863638 278.217555 
L 325.998126 279.987002 
L 326.132614 280.052466 
L 326.267103 276.835637 
L 326.401591 267.825935 
L 326.670567 166.34386 
L 326.805055 172.306367 
L 326.939544 173.479945 
L 327.20852 160.238001 
L 327.343008 168.390933 
L 327.611985 164.632709 
L 327.746473 169.498092 
L 328.149937 224.257777 
L 328.418914 255.138764 
L 328.68789 267.964509 
L 328.822379 270.420614 
L 328.956867 280.478701 
L 329.225843 281.426738 
L 329.360331 280.57857 
L 329.629308 267.731322 
L 330.032772 178.612919 
L 330.301749 167.260838 
L 330.570725 158.442272 
L 330.839702 180.321203 
L 330.97419 181.53492 
L 331.108678 184.283465 
L 331.781119 260.255013 
L 332.050096 267.426459 
L 332.184584 278.213254 
L 332.319072 279.170371 
L 332.45356 278.504737 
L 332.588049 279.493392 
L 332.857025 266.871207 
L 333.26049 177.980735 
L 333.394978 179.892579 
L 333.663954 164.964809 
L 333.798442 166.158457 
L 333.932931 169.929583 
L 334.336395 187.813758 
L 334.73986 255.624251 
L 335.143325 271.370085 
L 335.277813 271.171303 
L 335.412301 271.268783 
L 335.546789 271.554532 
L 335.681277 271.449407 
L 335.950254 274.034052 
L 336.084742 271.937283 
L 336.622695 255.456529 
L 336.757183 256.252135 
L 336.891671 254.421046 
L 337.295136 260.785417 
L 337.698601 265.522739 
L 337.833089 265.042986 
L 338.102065 269.146689 
L 338.236553 268.914458 
L 338.371042 269.552376 
L 338.50553 267.214775 
L 339.043483 270.376653 
L 339.446947 273.375586 
L 339.581436 272.893444 
L 339.715924 271.72321 
L 339.850412 271.982678 
L 339.9849 271.201885 
L 340.119388 271.089115 
L 340.253877 270.615096 
L 340.388365 272.093538 
L 340.522853 270.10285 
L 340.657341 270.702063 
L 340.926318 270.383343 
L 341.060806 267.041797 
L 341.329782 271.928204 
L 341.464271 271.826424 
L 341.598759 272.355395 
L 341.733247 273.923193 
L 341.867735 281.752149 
L 342.136712 281.853929 
L 342.2712 282.496148 
L 342.540176 269.789386 
L 342.943641 154.512981 
L 343.212617 171.13661 
L 343.347106 170.40169 
L 343.75057 184.799056 
L 343.885058 186.475324 
L 344.019547 185.81208 
L 344.423011 253.756846 
L 345.22994 279.472844 
L 345.364429 280.557545 
L 345.498917 280.189607 
L 345.633405 275.96931 
L 345.767893 267.878019 
L 346.03687 183.552845 
L 346.171358 187.674228 
L 346.440334 174.097794 
L 346.574823 168.722077 
L 346.843799 175.60634 
L 347.112775 177.476612 
L 347.381752 211.985372 
L 347.650728 250.92898 
L 348.054193 268.905379 
L 348.188681 270.088514 
L 348.323169 279.064768 
L 348.457658 279.913414 
L 348.592146 281.785597 
L 348.726634 281.59016 
L 348.99561 268.673148 
L 349.264587 182.501594 
L 349.399075 183.97669 
L 349.668052 166.405023 
L 349.80254 162.289852 
L 350.206004 181.000215 
L 350.340493 182.180962 
L 351.012934 262.42298 
L 351.147422 264.74529 
L 351.550886 281.421004 
L 351.685375 280.708543 
L 351.954351 281.075525 
L 352.088839 279.677361 
L 352.223328 272.383587 
L 352.492304 178.421783 
L 352.626792 185.590839 
L 352.76128 174.214866 
L 352.895769 173.505749 
L 353.030257 165.222844 
L 353.164745 172.437773 
L 353.299233 170.35964 
L 353.56821 152.574856 
L 354.240651 269.04682 
L 354.375139 270.185038 
L 354.644115 276.050543 
L 354.913092 280.326747 
L 355.182068 281.369398 
L 355.316556 278.965855 
L 355.451045 269.833347 
L 355.854509 196.495661 
L 356.123486 158.143143 
L 356.257974 159.857639 
L 356.392462 168.471688 
L 356.52695 167.83807 
L 356.661439 178.44902 
L 356.795927 177.197075 
L 357.33388 264.734778 
L 357.602856 274.336048 
L 357.737344 276.30141 
L 357.871832 280.5585 
L 358.006321 279.979834 
L 358.140809 280.194385 
L 358.275297 280.934562 
L 358.409785 280.846639 
L 358.678762 279.586571 
L 359.082226 261.110828 
L 359.351203 255.202795 
L 359.485691 248.928735 
L 359.620179 259.66679 
L 359.754667 261.081679 
L 359.889156 261.249879 
L 360.427109 275.544987 
L 360.561597 276.224955 
L 360.965061 280.374054 
L 361.234038 280.334393 
L 361.368526 280.142778 
L 361.503014 281.448719 
L 361.771991 281.04112 
L 361.906479 282.372387 
L 362.040967 282.324603 
L 362.175455 282.700186 
L 362.309944 282.740803 
L 362.57892 279.326625 
L 362.713408 279.277407 
L 362.982385 278.142056 
L 363.116873 276.648801 
L 363.251361 276.547021 
L 363.385849 277.638411 
L 363.520337 276.78403 
L 363.654826 276.7243 
L 364.05829 279.512027 
L 364.192778 253.489733 
L 364.730731 259.750891 
L 364.86522 258.554853 
L 364.999708 246.465462 
L 365.134196 224.298871 
L 365.403172 135.909176 
L 365.672149 105.59252 
L 365.806637 99.666807 
L 366.075613 116.624447 
L 366.34459 113.477861 
L 366.479078 124.918343 
L 367.017031 251.402521 
L 367.151519 256.365861 
L 367.286007 254.629385 
L 367.554984 265.998669 
L 367.689472 266.865951 
L 367.958448 271.769561 
L 368.227425 248.189514 
L 368.496401 152.1577 
L 368.765378 100.234961 
L 369.034354 89.324405 
L 369.168842 94.050257 
L 369.303331 93.605387 
L 369.437819 96.977037 
L 369.572307 94.853031 
L 369.706795 110.975883 
L 370.244748 234.922244 
L 370.782701 279.178972 
L 370.917189 279.484313 
L 371.051677 280.376921 
L 371.186166 280.097861 
L 371.455142 265.261837 
L 371.858607 171.893034 
L 372.127583 203.913195 
L 372.262071 199.848197 
L 372.396559 201.276466 
L 372.665536 190.577116 
L 372.800024 194.375956 
L 373.203489 234.126638 
L 373.472465 256.408389 
L 373.87593 277.625031 
L 374.010418 286.653847 
L 374.144906 286.507628 
L 374.279394 287.715611 
L 374.413883 287.211966 
L 374.682859 270.632298 
L 375.220812 181.129233 
L 375.489788 177.495726 
L 375.624277 177.718878 
L 375.893253 184.261962 
L 376.027741 188.563014 
L 376.565694 256.225376 
L 376.83467 265.12613 
L 376.969159 267.965942 
L 377.103647 279.792043 
L 377.238135 278.697785 
L 377.507112 280.773051 
L 377.6416 278.804822 
L 377.776088 282.348495 
L 378.045064 280.198686 
L 378.179553 270.545809 
L 378.314041 269.919359 
L 378.448529 262.810032 
L 378.583017 263.812066 
L 378.717505 262.893654 
L 378.851994 267.41069 
L 378.986482 266.649489 
L 379.12097 267.558821 
L 379.255458 269.721054 
L 379.389947 269.604461 
L 379.927899 278.870764 
L 380.062388 278.663859 
L 380.196876 279.081014 
L 380.331364 269.158635 
L 380.465852 269.837648 
L 380.869317 272.745791 
L 381.138293 261.834757 
L 381.272782 234.701959 
L 381.541758 160.002903 
L 381.810734 139.81123 
L 381.945223 141.404832 
L 382.214199 147.901088 
L 382.348687 139.899631 
L 382.752152 189.829771 
L 383.021128 257.932226 
L 383.155616 265.872041 
L 383.290105 266.535285 
L 383.424593 267.824501 
L 383.559081 262.888398 
L 383.693569 262.175459 
L 383.962546 262.522371 
L 384.097034 263.714586 
L 384.231522 261.927937 
L 384.36601 263.322278 
L 385.038451 148.965241 
L 385.17294 151.412267 
L 385.307428 166.570834 
L 385.576404 160.917969 
L 386.248845 260.78255 
L 386.921286 279.31229 
L 387.055775 278.496136 
L 387.190263 279.775796 
L 387.324751 279.083881 
L 387.459239 279.245392 
L 387.593727 280.737213 
L 387.728216 280.161892 
L 387.862704 281.481212 
L 387.997192 280.310023 
L 388.13168 281.903147 
L 388.266169 280.917359 
L 388.400657 278.928583 
L 388.535145 279.017939 
L 388.669633 278.354217 
L 388.804121 279.495303 
L 388.93861 276.939806 
L 389.207586 279.083881 
L 389.476562 285.785609 
L 389.611051 284.725279 
L 389.745539 285.543343 
L 389.880027 285.491259 
L 390.014515 270.559188 
L 390.149004 270.796676 
L 390.41798 270.818656 
L 390.552468 270.687728 
L 390.686956 265.177737 
L 390.821445 265.363139 
L 390.955933 256.492011 
L 391.224909 200.211835 
L 391.359397 168.766516 
L 391.493886 164.767938 
L 391.762862 175.484968 
L 391.89735 174.940229 
L 392.031839 167.70093 
L 392.166327 171.408502 
L 392.300815 180.40817 
L 392.569791 240.698393 
L 392.70428 267.044664 
L 392.973256 271.8981 
L 393.107744 272.557044 
L 393.376721 265.484989 
L 393.645697 271.215743 
L 393.780185 267.817334 
L 393.914673 269.204985 
L 394.049162 261.775505 
L 394.721603 146.910044 
L 394.990579 145.835857 
L 395.125067 145.414878 
L 395.259556 156.825256 
L 395.394044 157.697317 
L 395.931997 246.039705 
L 396.200973 259.680648 
L 396.335461 255.935326 
L 396.46995 280.76445 
L 396.604438 281.148635 
L 397.007902 284.190574 
L 397.276879 271.103928 
L 397.545855 197.226281 
L 397.680343 192.026887 
L 397.94932 168.595927 
L 398.083808 155.098337 
L 398.218296 167.871041 
L 398.352785 163.093582 
L 398.487273 166.113062 
L 398.487273 166.113062 
" clip-path="url(#p8c7b288021)" style="fill: none; stroke: #1f77b4; stroke-width: 1.5; stroke-linecap: square"/>
   </g>
   <g id="line2d_13">
    <path d="M 73.832727 281.525638 
L 73.967215 281.431934 
L 74.236192 280.075944 
L 74.37068 277.66856 
L 74.505168 279.92852 
L 74.639657 279.3227 
L 74.774145 279.54885 
L 74.908633 267.444722 
L 75.043121 219.136067 
L 75.177609 226.835903 
L 75.446586 252.761698 
L 75.581074 247.933948 
L 75.715562 248.420657 
L 75.85005 247.05898 
L 75.984539 248.133177 
L 76.119027 247.804712 
L 76.388003 242.666746 
L 76.65698 288.654024 
L 76.925956 274.449599 
L 77.060444 273.26409 
L 77.194933 259.375847 
L 77.463909 266.862806 
L 77.598397 266.603426 
L 77.732885 268.69739 
L 77.867374 259.395117 
L 78.001862 234.162047 
L 78.270838 130.808605 
L 78.405327 103.79507 
L 78.539815 104.551553 
L 78.674303 107.827365 
L 78.808791 101.857946 
L 78.943279 112.45643 
L 79.077768 111.756746 
L 79.61572 185.836238 
L 79.884697 250.485276 
L 80.288161 269.075189 
L 80.42265 259.076582 
L 80.557138 272.683122 
L 80.691626 273.706869 
L 81.095091 260.701483 
L 81.229579 239.473301 
L 81.498555 145.003544 
L 81.633044 166.57189 
L 81.767532 165.492859 
L 81.90202 153.57423 
L 82.170996 201.434887 
L 82.305485 194.772167 
L 82.439973 199.083412 
L 82.574461 196.478586 
L 82.708949 222.716953 
L 82.977926 202.404207 
L 83.112414 219.642721 
L 83.246902 201.673756 
L 83.38139 201.046175 
L 83.650367 264.7704 
L 83.784855 260.492341 
L 83.919343 282.407015 
L 84.053831 282.881212 
L 84.18832 281.928813 
L 84.322808 201.029879 
L 84.457296 221.643049 
L 84.591784 201.029879 
L 84.860761 201.029879 
L 84.995249 202.573365 
L 85.264225 165.905481 
L 85.936666 214.903442 
L 86.340131 262.330414 
L 86.609107 268.418083 
L 86.743596 271.085256 
L 87.012572 295.32026 
L 87.14706 293.839343 
L 87.281549 288.390556 
L 87.416037 288.951062 
L 87.550525 288.672951 
L 87.685013 286.335069 
L 87.95399 237.564759 
L 88.222966 259.588381 
L 88.357454 260.081652 
L 88.491942 257.249238 
L 88.626431 250.436657 
L 88.760919 252.226419 
L 88.895407 242.981008 
L 89.164384 252.701441 
L 89.298872 256.642634 
L 89.567848 285.059327 
L 89.836825 275.938387 
L 89.971313 276.18715 
L 90.105801 248.109566 
L 90.240289 249.960359 
L 90.374777 261.059473 
L 90.509266 261.792293 
L 90.643754 260.367914 
L 90.91273 265.414857 
L 91.047218 259.089397 
L 91.181707 243.140136 
L 91.316195 248.524417 
L 91.450683 245.916256 
L 91.585171 254.58176 
L 91.854148 251.201191 
L 91.988636 250.369534 
L 92.123124 250.453892 
L 92.257612 255.516629 
L 92.392101 254.259829 
L 92.526589 256.698206 
L 92.930053 269.2717 
L 93.064542 268.479819 
L 93.19903 264.580015 
L 93.333518 280.130242 
L 93.468006 280.629436 
L 93.602495 274.836914 
L 93.736983 275.295364 
L 93.871471 273.7489 
L 94.140447 259.47061 
L 94.409424 169.945084 
L 94.543912 175.754386 
L 94.812888 160.529704 
L 94.947377 158.317304 
L 95.081865 162.862959 
L 95.216353 171.645543 
L 95.350841 170.667881 
L 95.48533 160.601365 
L 95.888794 252.955763 
L 96.157771 267.485483 
L 96.292259 269.350085 
L 96.426747 269.600228 
L 96.561235 271.417773 
L 96.830212 268.848119 
L 96.9647 271.061777 
L 97.099188 270.502699 
L 97.233676 267.296271 
L 97.502653 220.313879 
L 97.637141 170.091201 
L 97.771629 176.065464 
L 97.906117 171.369001 
L 98.040606 186.973696 
L 98.309582 179.069428 
L 98.44407 179.630296 
L 98.847535 208.228311 
L 99.385488 271.464842 
L 99.654464 274.025223 
L 99.788952 285.559317 
L 99.923441 285.761846 
L 100.057929 278.674826 
L 100.192417 277.900361 
L 100.326905 280.271673 
L 100.73037 277.936107 
L 100.864858 283.058475 
L 100.999346 280.792845 
L 101.133834 281.658309 
L 101.268323 281.476036 
L 101.402811 276.900322 
L 101.537299 263.824483 
L 101.671787 271.759134 
L 101.940764 258.556182 
L 102.20974 267.457054 
L 102.344228 267.719838 
L 102.478717 270.717679 
L 102.613205 279.710855 
L 102.747693 275.387015 
L 102.882181 280.923214 
L 103.016669 256.923126 
L 103.151158 254.316077 
L 103.285646 270.418802 
L 103.420134 272.587436 
L 103.823599 255.71597 
L 103.958087 225.800748 
L 104.092575 167.004194 
L 104.227063 162.115493 
L 104.361552 151.643861 
L 104.49604 168.534119 
L 104.765016 140.364942 
L 105.840922 263.30943 
L 105.97541 258.634489 
L 106.109898 266.379576 
L 106.244387 288.905924 
L 106.378875 289.400215 
L 106.647851 278.673486 
L 106.782339 280.165553 
L 106.916828 278.711824 
L 107.051316 278.729831 
L 107.320292 219.497663 
L 107.45478 234.319177 
L 107.589269 261.73683 
L 107.992733 249.281925 
L 108.127222 249.031549 
L 108.26171 247.283064 
L 108.396198 247.454642 
L 108.530686 244.037448 
L 108.665174 247.860915 
L 108.934151 284.991723 
L 109.068639 284.759331 
L 109.337615 275.79874 
L 109.472104 264.74523 
L 109.875568 269.960528 
L 110.144545 269.217238 
L 110.279033 269.826083 
L 110.413521 269.637023 
L 110.682498 277.00037 
L 110.816986 276.757808 
L 111.085962 272.028467 
L 111.22045 272.954863 
L 111.354939 270.753303 
L 111.489427 265.611948 
L 111.623915 265.824731 
L 111.758403 262.987415 
L 111.892891 264.042138 
L 112.161868 271.743178 
L 112.430844 270.913318 
L 112.565333 270.911059 
L 112.699821 251.323138 
L 112.834309 253.97213 
L 112.968797 264.108359 
L 113.103285 264.286814 
L 113.237774 264.184662 
L 113.372262 263.828952 
L 113.775726 270.975537 
L 113.910215 270.046522 
L 114.044703 270.829441 
L 114.179191 268.544773 
L 114.448168 256.523556 
L 114.582656 256.565619 
L 114.717144 254.814334 
L 114.851632 251.257872 
L 115.120609 242.23004 
L 115.524073 261.914327 
L 115.79305 259.953871 
L 115.927538 261.570944 
L 116.062026 261.454082 
L 116.196514 257.109746 
L 116.331002 265.011552 
L 116.465491 265.880153 
L 116.599979 259.1585 
L 116.734467 242.404252 
L 117.003444 129.857828 
L 117.27242 83.043669 
L 117.406908 85.893966 
L 117.541396 74.410719 
L 117.675885 76.372025 
L 117.944861 107.026158 
L 118.75179 243.663855 
L 118.886279 252.35113 
L 119.020767 253.619335 
L 119.155255 252.72584 
L 119.289743 256.238254 
L 119.55872 254.979693 
L 119.693208 258.178649 
L 119.827696 257.713315 
L 119.962184 240.340582 
L 120.231161 120.904148 
L 120.500137 93.792083 
L 120.903602 80.627398 
L 121.03809 82.235064 
L 121.172578 87.964338 
L 121.576043 162.444916 
L 121.845019 228.792591 
L 121.979507 242.988404 
L 122.113996 244.094708 
L 122.248484 243.309597 
L 122.382972 247.629812 
L 122.51746 261.962724 
L 122.651948 263.47187 
L 122.786437 257.703714 
L 122.920925 257.035234 
L 123.055413 253.950749 
L 123.189901 239.538806 
L 123.593366 93.842982 
L 123.727854 79.942873 
L 123.862342 80.367958 
L 123.996831 75.148377 
L 124.131319 87.010082 
L 124.400295 118.87805 
L 124.534783 121.640932 
L 124.669272 129.41182 
L 125.072736 237.057812 
L 125.207225 256.575768 
L 125.341713 258.664816 
L 125.610689 253.785875 
L 125.879666 272.393889 
L 126.148642 266.767593 
L 126.417618 241.40913 
L 126.686595 134.626812 
L 126.955571 92.325408 
L 127.09006 88.70379 
L 127.224548 95.05818 
L 127.493524 114.35991 
L 127.628012 118.436124 
L 128.031477 177.802957 
L 128.300453 242.861643 
L 128.56943 255.769002 
L 128.703918 253.432821 
L 128.972894 261.114373 
L 129.107383 260.662734 
L 129.241871 264.835341 
L 129.376359 265.306882 
L 129.645336 226.22296 
L 130.0488 90.377964 
L 130.183288 88.529414 
L 130.317777 89.952805 
L 130.452265 95.2758 
L 130.586753 133.208689 
L 130.855729 125.069341 
L 131.124706 162.934341 
L 131.528171 251.782185 
L 131.797147 263.278719 
L 132.200612 255.000513 
L 132.469588 272.538854 
L 132.604076 270.165336 
L 132.873053 265.366117 
L 133.142029 244.451949 
L 133.411005 234.888375 
L 133.679982 233.10976 
L 133.948958 237.21991 
L 134.083447 231.025883 
L 134.486911 245.578576 
L 134.890376 255.08757 
L 135.024864 252.295108 
L 135.159352 254.001372 
L 135.428329 260.381125 
L 135.831793 266.149695 
L 135.966282 272.141189 
L 136.10077 272.019691 
L 136.235258 263.415072 
L 136.369746 263.845987 
L 136.504234 267.314856 
L 136.638723 262.588943 
L 136.773211 263.114934 
L 136.907699 262.586513 
L 137.042187 261.103259 
L 137.311164 241.609637 
L 137.58014 250.810167 
L 137.714628 247.859696 
L 137.849117 250.777542 
L 138.118093 258.825227 
L 138.252581 255.387028 
L 138.387069 256.856827 
L 138.521558 264.27425 
L 138.790534 258.756607 
L 139.05951 266.830912 
L 139.328487 235.155283 
L 139.597463 127.582696 
L 139.731951 90.015886 
L 139.86644 89.404504 
L 140.000928 90.64123 
L 140.135416 86.519189 
L 140.404393 106.197663 
L 140.673369 145.744679 
L 140.807857 148.569301 
L 140.942345 167.83816 
L 141.211322 248.496111 
L 141.34581 248.287199 
L 141.614786 263.07474 
L 141.749275 261.167189 
L 141.883763 265.149406 
L 142.152739 264.259319 
L 142.287228 262.758779 
L 142.556204 224.341799 
L 142.959669 90.049826 
L 143.094157 94.471987 
L 143.363133 84.791788 
L 143.497621 99.224835 
L 143.63211 90.793149 
L 143.766598 97.950368 
L 143.901086 138.567519 
L 144.035574 141.204289 
L 144.439039 239.182425 
L 144.842504 267.39183 
L 145.11148 260.985457 
L 145.380456 265.662416 
L 145.514945 258.100872 
L 145.649433 228.564017 
L 145.783921 224.88263 
L 146.187386 94.607397 
L 146.321874 88.294415 
L 146.725339 127.411974 
L 146.859827 122.03274 
L 146.994315 129.293398 
L 147.128803 128.642426 
L 147.263291 139.528748 
L 147.532268 245.223557 
L 147.935732 265.170087 
L 148.070221 264.677544 
L 148.204709 264.074712 
L 148.339197 265.471246 
L 148.742662 261.681719 
L 148.87715 260.974309 
L 149.011638 232.500154 
L 149.280615 129.083005 
L 149.415103 106.760414 
L 149.549591 114.628555 
L 149.684079 106.445296 
L 149.818567 107.008113 
L 150.222032 154.466733 
L 150.35652 146.695777 
L 150.491009 150.561876 
L 150.759985 246.637259 
L 150.894473 250.152559 
L 151.16345 266.698817 
L 151.432426 261.139368 
L 151.835891 266.755718 
L 151.970379 267.089088 
L 152.104867 264.173815 
L 152.239355 228.258988 
L 152.508332 127.609252 
L 152.64282 101.248136 
L 152.777308 117.252689 
L 153.046285 99.675276 
L 154.256678 270.987237 
L 154.391167 271.982967 
L 154.660143 270.371408 
L 154.794631 270.900172 
L 154.92912 270.777666 
L 155.063608 271.864205 
L 155.332584 277.039249 
L 155.467072 274.600469 
L 155.736049 245.176869 
L 155.870537 251.123508 
L 156.139513 261.059143 
L 156.274002 259.603168 
L 156.542978 254.815404 
L 156.677466 255.724732 
L 156.811955 255.419301 
L 157.080931 261.542818 
L 157.484396 269.184245 
L 157.618884 265.64002 
L 157.753372 265.362535 
L 158.022348 271.081045 
L 158.156837 270.720041 
L 158.291325 271.632308 
L 158.694789 279.964225 
L 158.829278 273.694322 
L 158.963766 272.848173 
L 159.098254 274.364446 
L 159.367231 268.908699 
L 159.501719 271.825775 
L 159.636207 270.532574 
L 159.905183 253.337898 
L 160.039672 257.247675 
L 160.17416 253.10278 
L 160.308648 254.283723 
L 160.443136 257.379108 
L 160.577624 267.357647 
L 160.712113 266.55742 
L 160.846601 259.985628 
L 160.981089 260.338989 
L 161.250066 269.434791 
L 161.384554 269.374736 
L 161.519042 267.805833 
L 161.65353 268.210659 
L 161.922507 238.496589 
L 162.325971 103.876788 
L 162.460459 82.703429 
L 162.594948 91.301094 
L 162.729436 88.828836 
L 162.863924 84.035472 
L 163.132901 119.855483 
L 163.267389 125.805644 
L 163.536365 181.774248 
L 163.805342 246.474552 
L 163.93983 247.639405 
L 164.208806 263.439314 
L 164.343294 260.126376 
L 164.612271 273.698786 
L 164.746759 272.153435 
L 164.881247 261.906295 
L 165.150224 233.141371 
L 165.553688 106.370219 
L 165.688177 119.227875 
L 165.957153 102.584832 
L 166.091641 120.084658 
L 166.360618 106.045375 
L 166.495106 105.758632 
L 166.629594 117.670446 
L 166.89857 236.603162 
L 167.033059 243.376684 
L 167.167547 240.811472 
L 167.436523 256.155666 
L 167.571012 255.963784 
L 167.839988 265.369457 
L 167.974476 265.378276 
L 168.108964 264.858959 
L 168.243453 253.888695 
L 168.377941 229.392416 
L 168.781405 96.316148 
L 168.915894 107.607673 
L 169.18487 100.356619 
L 169.319358 114.378468 
L 169.453847 92.699173 
L 169.588335 98.175316 
L 169.857311 152.853127 
L 169.991799 174.455576 
L 170.260776 251.356072 
L 170.529752 261.749828 
L 170.798729 262.440604 
L 171.067705 260.50617 
L 171.202193 261.787742 
L 171.336681 265.674578 
L 171.740146 180.039796 
L 172.009123 99.011565 
L 172.278099 110.118128 
L 172.412587 95.62075 
L 172.547075 97.390251 
L 172.95054 142.642351 
L 173.085028 150.965072 
L 173.488493 250.894643 
L 173.891958 268.138651 
L 174.026446 282.099826 
L 174.160934 280.00204 
L 174.295422 273.291677 
L 174.42991 273.240151 
L 174.564399 275.827146 
L 174.967863 220.841721 
L 175.23684 158.223563 
L 175.505816 137.956514 
L 175.640304 139.465857 
L 175.774792 153.028952 
L 175.909281 153.926242 
L 176.043769 158.958824 
L 176.178257 175.446377 
L 176.312745 174.312258 
L 176.447234 193.331658 
L 176.71621 256.954271 
L 176.850698 260.099742 
L 176.985186 267.696643 
L 177.254163 262.917981 
L 177.388651 267.369692 
L 177.523139 266.705306 
L 177.657627 269.100371 
L 177.792116 273.900209 
L 177.926604 274.321639 
L 178.061092 274.17419 
L 178.330069 253.66374 
L 178.464557 259.49475 
L 178.599045 253.255065 
L 178.733533 255.229185 
L 178.868021 255.299754 
L 179.00251 260.122694 
L 179.271486 248.716497 
L 179.405974 252.173426 
L 179.674951 249.562837 
L 179.943927 262.292754 
L 180.078415 272.224225 
L 180.347392 262.023207 
L 180.616368 278.958864 
L 180.885345 272.890109 
L 181.019833 274.346422 
L 181.154321 274.064614 
L 181.423297 263.017395 
L 181.557786 260.429424 
L 181.692274 266.209122 
L 181.826762 265.945494 
L 181.96125 268.053864 
L 182.095738 259.373767 
L 182.230227 260.710768 
L 182.499203 268.185508 
L 182.633691 268.706762 
L 182.76818 273.210822 
L 183.037156 269.45918 
L 183.306132 278.612903 
L 183.440621 278.639178 
L 183.709597 270.08167 
L 183.978573 290.232617 
L 184.113062 286.380823 
L 184.516526 256.480361 
L 184.785503 182.430306 
L 184.919991 184.207622 
L 185.054479 175.884717 
L 185.188967 184.659965 
L 185.323456 178.944296 
L 185.457944 179.679017 
L 185.592432 183.423037 
L 185.72692 191.784022 
L 186.264873 257.299701 
L 186.802826 277.442465 
L 186.937314 283.075184 
L 187.071802 294.150682 
L 187.206291 294.263685 
L 187.340779 286.976609 
L 187.475267 286.340474 
L 187.609755 281.146396 
L 187.744243 265.775674 
L 188.01322 180.254305 
L 188.147708 190.152091 
L 188.282196 182.596295 
L 188.551173 184.97689 
L 188.685661 186.054602 
L 189.358102 241.648621 
L 189.627078 269.794434 
L 189.761567 270.630265 
L 189.896055 270.517402 
L 190.030543 274.952905 
L 190.165031 269.240259 
L 190.299519 268.682372 
L 190.434008 270.530786 
L 190.568496 268.27314 
L 190.702984 268.794013 
L 190.971961 272.218187 
L 191.106449 271.664648 
L 191.240937 265.431246 
L 191.375425 266.701097 
L 191.509913 272.300236 
L 191.644402 266.028451 
L 191.77889 267.31605 
L 191.913378 267.052087 
L 192.047866 263.125714 
L 192.182354 255.566472 
L 192.316843 254.810798 
L 192.451331 259.415984 
L 192.585819 259.456172 
L 192.720307 260.640527 
L 192.854796 269.717514 
L 192.989284 270.151205 
L 193.527237 262.032078 
L 193.796213 268.331349 
L 193.930701 268.200287 
L 194.199678 253.029875 
L 194.468654 170.058948 
L 195.006607 143.795505 
L 195.141095 145.020911 
L 195.275583 157.232098 
L 195.410072 148.059402 
L 195.679048 178.147316 
L 195.948024 242.869567 
L 196.217001 262.701154 
L 196.485977 263.111779 
L 196.620465 275.631421 
L 196.754954 273.74859 
L 196.889442 268.695446 
L 197.02393 268.474992 
L 197.158418 270.856973 
L 197.292907 267.562035 
L 197.427395 255.534552 
L 197.696371 177.296937 
L 197.830859 182.980226 
L 198.099836 198.695539 
L 198.234324 193.010879 
L 198.368812 199.603278 
L 198.637789 187.327634 
L 199.444718 276.781702 
L 199.579206 277.196184 
L 199.713694 278.183075 
L 199.848183 282.886818 
L 200.117159 278.415242 
L 200.251647 279.161085 
L 200.386135 276.140381 
L 200.520624 264.922993 
L 200.655112 265.172772 
L 200.7896 244.212858 
L 200.924088 174.551871 
L 201.327553 202.313435 
L 201.462041 195.530556 
L 201.596529 201.330495 
L 201.865506 186.878793 
L 202.26897 231.105072 
L 202.537947 273.095013 
L 202.806923 272.812014 
L 202.941411 274.441697 
L 203.210388 256.807644 
L 203.479364 269.359575 
L 203.748341 255.147094 
L 203.882829 252.001945 
L 204.017317 225.739701 
L 204.286294 157.685946 
L 204.420782 156.692893 
L 204.824246 166.649563 
L 204.958735 163.592717 
L 205.227711 193.202289 
L 205.900152 267.810314 
L 206.03464 263.634731 
L 206.169129 264.656271 
L 206.303617 286.984973 
L 206.438105 286.477457 
L 206.572593 281.908842 
L 206.84157 284.196468 
L 206.976058 283.125127 
L 207.379522 259.712595 
L 207.648499 265.27991 
L 207.917475 276.6007 
L 208.051964 276.854262 
L 208.186452 272.241346 
L 208.455428 257.950759 
L 208.858893 275.164242 
L 209.127869 281.858073 
L 209.262357 281.07712 
L 209.396846 277.864064 
L 209.531334 266.412411 
L 209.80031 271.791896 
L 209.934799 271.867426 
L 210.069287 273.42989 
L 210.338263 250.884691 
L 210.741728 149.172796 
L 211.010704 121.4262 
L 211.145192 112.120353 
L 211.817634 194.846582 
L 212.221098 259.499662 
L 212.355586 262.708351 
L 212.490075 261.472855 
L 212.893539 275.948823 
L 213.162516 270.181776 
L 213.297004 274.34822 
L 213.56598 240.411269 
L 213.834957 139.262294 
L 213.969445 120.843115 
L 214.103933 140.990518 
L 214.238421 134.445985 
L 214.37291 139.400776 
L 214.910862 198.477163 
L 215.045351 197.87429 
L 215.448815 271.264713 
L 215.583303 266.52386 
L 215.717792 267.715222 
L 215.85228 266.571371 
L 215.986768 266.771928 
L 216.121256 269.208834 
L 216.255745 268.692303 
L 216.390233 268.953836 
L 216.524721 272.701962 
L 216.659209 265.109673 
L 216.793697 249.745408 
L 217.062674 147.349603 
L 217.197162 134.027209 
L 217.33165 148.347008 
L 217.466138 148.506401 
L 217.735115 163.280451 
L 217.869603 152.657699 
L 218.004091 165.637994 
L 218.273068 215.643311 
L 218.407556 219.030157 
L 218.676532 267.488176 
L 218.945509 276.062194 
L 219.079997 262.408423 
L 219.214485 262.111848 
L 219.483462 274.097066 
L 219.752438 277.634229 
L 220.021414 249.226843 
L 220.290391 144.844532 
L 220.424879 147.956889 
L 220.559367 159.420197 
L 220.693856 152.438297 
L 220.828344 153.058916 
L 220.962832 168.001658 
L 221.09732 168.744211 
L 221.366297 209.177162 
L 221.500785 207.928723 
L 221.635273 215.150347 
L 221.904249 270.132521 
L 222.038738 269.727718 
L 222.173226 274.740891 
L 222.442202 270.443134 
L 222.711179 279.99005 
L 222.845667 279.814773 
L 222.980155 280.542257 
L 223.114643 276.908218 
L 223.249132 278.809937 
L 223.518108 243.692707 
L 223.787084 269.020705 
L 224.056061 253.998454 
L 224.325037 253.725184 
L 224.459525 256.156468 
L 224.728502 253.284612 
L 224.86299 249.933384 
L 225.131967 261.288737 
L 225.266455 262.020439 
L 225.400943 257.674107 
L 225.535431 257.931209 
L 225.669919 259.206776 
L 225.804408 256.651185 
L 226.207872 270.38015 
L 226.476849 271.592835 
L 226.880313 268.279988 
L 227.14929 273.908046 
L 227.283778 271.801185 
L 227.418266 264.664051 
L 227.821731 269.405501 
L 227.956219 267.059512 
L 228.090707 267.548257 
L 228.225195 277.665762 
L 228.359684 277.614604 
L 228.62866 273.370696 
L 228.763148 275.340689 
L 228.897637 275.368769 
L 229.032125 270.878161 
L 229.166613 271.420105 
L 229.301101 273.914338 
L 229.435589 274.090337 
L 229.570078 262.273942 
L 229.704566 235.711895 
L 229.973542 135.038295 
L 230.242519 95.960731 
L 230.377007 97.670994 
L 230.511495 81.595088 
L 230.780471 131.224915 
L 230.91496 123.547786 
L 231.587401 255.304421 
L 231.721889 257.012428 
L 231.990865 268.907645 
L 232.125354 270.43632 
L 232.259842 270.110671 
L 232.528818 274.713023 
L 232.663306 271.793483 
L 232.932283 238.601394 
L 233.335748 119.536315 
L 233.470236 121.559924 
L 233.604724 133.572524 
L 233.739212 132.505151 
L 233.8737 146.017846 
L 234.008189 140.115623 
L 234.142677 145.549065 
L 234.411653 205.771177 
L 234.546141 212.401926 
L 234.815118 265.083935 
L 234.949606 267.021779 
L 235.084094 265.307208 
L 235.622047 279.882899 
L 235.756535 278.125246 
L 235.891024 274.273527 
L 236.16 249.686172 
L 236.428976 143.549668 
L 236.563465 121.425174 
L 236.697953 126.364291 
L 236.832441 122.449683 
L 236.966929 113.868175 
L 237.101417 129.19516 
L 237.235906 161.553333 
L 237.370394 164.878362 
L 237.504882 174.416352 
L 237.908347 255.297244 
L 238.042835 266.947274 
L 238.177323 268.959277 
L 238.311811 268.851014 
L 238.715276 273.837155 
L 238.984252 284.337389 
L 239.118741 280.259085 
L 239.253229 271.112817 
L 239.387717 245.394253 
L 239.656694 144.624017 
L 239.92567 121.640213 
L 240.060158 132.844889 
L 240.194646 133.865474 
L 240.329135 145.878307 
L 240.598111 186.984543 
L 240.732599 190.325411 
L 240.867087 199.602963 
L 241.270552 260.044445 
L 241.40504 263.096949 
L 241.539529 263.55552 
L 241.808505 261.779288 
L 242.077481 279.489641 
L 242.21197 284.36784 
L 242.346458 281.565788 
L 242.615434 244.532111 
L 242.884411 148.692572 
L 243.018899 137.22142 
L 243.153387 160.937612 
L 243.422363 144.37249 
L 243.960316 191.776255 
L 244.229293 241.590699 
L 244.498269 262.772114 
L 244.767246 271.616005 
L 244.901734 268.329385 
L 245.036222 270.524823 
L 245.17071 276.003986 
L 245.574175 272.818949 
L 245.708663 270.350894 
L 245.843151 248.920231 
L 246.112128 264.947653 
L 246.381104 260.73009 
L 246.515592 258.112767 
L 246.650081 259.771715 
L 247.053545 269.814432 
L 247.188033 268.58288 
L 247.45701 272.126622 
L 247.591498 272.688585 
L 247.725986 272.267838 
L 247.860475 276.206559 
L 248.129451 273.962465 
L 248.263939 275.096689 
L 248.398427 273.80335 
L 248.532916 273.886118 
L 248.667404 273.44201 
L 248.801892 275.955385 
L 249.205357 272.175187 
L 249.474333 277.993673 
L 249.608821 278.074601 
L 250.146774 273.889134 
L 250.281262 270.68798 
L 250.550239 270.494811 
L 250.684727 269.873301 
L 250.953703 271.608404 
L 251.088192 273.170162 
L 251.22268 271.557859 
L 251.491656 274.033788 
L 251.626144 287.994834 
L 251.760633 286.439615 
L 252.029609 280.733743 
L 252.298586 257.432206 
L 252.567562 153.231046 
L 252.70205 131.994479 
L 252.836538 141.157681 
L 252.971027 159.61443 
L 253.105515 154.651017 
L 253.777956 213.045925 
L 254.315909 273.546775 
L 254.584885 283.096064 
L 254.719373 282.439101 
L 254.853862 287.34022 
L 254.98835 285.949338 
L 255.257326 286.312662 
L 255.526303 245.075926 
L 255.795279 156.305084 
L 255.929767 161.629892 
L 256.064255 171.746425 
L 256.333232 159.322702 
L 256.602208 166.36815 
L 256.736697 175.680329 
L 257.140161 230.408191 
L 257.409138 258.479577 
L 257.543626 266.911529 
L 257.812602 266.105429 
L 257.94709 266.184632 
L 258.216067 286.726116 
L 258.485043 278.525968 
L 258.75402 251.143257 
L 259.022996 151.682197 
L 259.291973 169.129527 
L 259.426461 165.200914 
L 259.560949 152.551682 
L 259.829925 182.123609 
L 259.964414 163.298426 
L 260.098902 176.044596 
L 260.367878 223.35395 
L 260.636855 256.816857 
L 260.905831 265.996523 
L 261.174808 262.180377 
L 261.443784 272.162798 
L 261.578272 273.937233 
L 261.847249 265.60815 
L 261.981737 242.942271 
L 262.250713 148.435637 
L 262.51969 164.633209 
L 262.654178 144.889568 
L 262.923154 156.908134 
L 263.057643 156.13931 
L 263.461107 205.667671 
L 263.730084 236.984955 
L 263.99906 255.962419 
L 264.133548 259.10591 
L 264.268036 259.358815 
L 264.402525 267.720171 
L 264.537013 264.858141 
L 264.671501 264.530518 
L 264.805989 264.809373 
L 265.074966 261.167664 
L 265.209454 247.149187 
L 265.747407 108.526062 
L 265.881895 112.830146 
L 266.016383 105.336231 
L 266.28536 119.097113 
L 266.419848 117.548469 
L 266.688824 157.808407 
L 267.226777 254.991866 
L 267.361265 256.522358 
L 267.495754 254.161009 
L 267.630242 272.192653 
L 267.76473 272.150438 
L 268.033706 266.504221 
L 268.302683 276.357653 
L 268.437171 275.912475 
L 268.571659 267.275406 
L 268.706147 268.650509 
L 268.840636 276.852226 
L 269.109612 270.220713 
L 269.378589 267.943853 
L 269.782053 248.443995 
L 269.916541 252.243873 
L 270.05103 250.905039 
L 270.723471 263.395613 
L 270.857959 283.547908 
L 270.992447 284.407312 
L 271.126935 274.534687 
L 271.261424 273.860304 
L 271.395912 275.391155 
L 271.5304 274.805675 
L 271.799376 276.487843 
L 271.933865 279.407669 
L 272.068353 277.350707 
L 272.202841 278.456421 
L 272.337329 277.883832 
L 272.471817 278.407544 
L 272.875282 271.313409 
L 273.00977 270.880225 
L 273.144258 272.1727 
L 273.278747 267.903398 
L 273.413235 268.091368 
L 273.682211 273.685451 
L 273.8167 273.206047 
L 273.951188 273.256202 
L 274.085676 271.495733 
L 274.220164 287.165957 
L 274.354652 289.455124 
L 274.623629 284.229594 
L 274.892605 258.096017 
L 275.161582 186.910581 
L 275.430558 155.371782 
L 275.565046 152.665142 
L 275.699535 153.97531 
L 275.834023 153.653921 
L 276.102999 186.915564 
L 276.237487 199.716099 
L 276.506464 239.188523 
L 276.909928 272.202352 
L 277.044417 273.619264 
L 277.178905 277.263653 
L 277.313393 273.862863 
L 277.447881 282.533174 
L 277.58237 282.955153 
L 277.716858 284.938735 
L 277.851346 283.046421 
L 277.985834 274.07183 
L 278.120322 256.173237 
L 278.389299 187.692169 
L 278.523787 186.312201 
L 278.658275 176.882626 
L 278.792763 181.294844 
L 278.927252 172.346853 
L 279.06174 189.856086 
L 279.196228 190.938238 
L 279.330716 195.140966 
L 279.734181 242.32213 
L 280.003157 273.213612 
L 280.137646 276.55879 
L 280.406622 276.702137 
L 280.54111 260.493399 
L 280.675598 258.624723 
L 280.944575 265.998341 
L 281.079063 264.915016 
L 281.348039 251.127805 
L 281.751504 134.018546 
L 281.885992 121.6211 
L 282.020481 127.546045 
L 282.154969 143.303424 
L 282.289457 144.32271 
L 282.423945 124.103717 
L 282.558433 127.326677 
L 283.230874 261.589666 
L 283.365363 261.870047 
L 283.634339 262.890535 
L 283.903316 259.55004 
L 284.037804 259.798538 
L 284.172292 262.117971 
L 284.30678 261.97528 
L 284.575757 251.185452 
L 284.979221 148.045203 
L 285.113709 155.20162 
L 285.382686 137.771779 
L 285.517174 142.34127 
L 285.651662 155.962257 
L 285.78615 153.091515 
L 285.920639 153.233814 
L 286.324103 250.540898 
L 286.59308 260.652422 
L 286.727568 263.77731 
L 286.862056 260.856233 
L 286.996544 286.523975 
L 287.131033 286.99088 
L 287.265521 275.987652 
L 287.668985 273.048738 
L 287.803474 268.815037 
L 288.206938 276.601372 
L 288.341427 273.547547 
L 288.475915 273.0942 
L 288.610403 270.797825 
L 288.744891 270.879333 
L 288.879379 268.46281 
L 289.013868 269.63745 
L 289.148356 269.262876 
L 289.282844 265.623657 
L 289.55182 278.872265 
L 289.686309 278.304846 
L 289.955285 274.795751 
L 290.089773 276.104399 
L 290.224262 273.460396 
L 290.35875 275.873896 
L 290.493238 275.026749 
L 290.627726 276.076008 
L 290.762214 273.488159 
L 291.165679 243.7621 
L 291.434655 170.634706 
L 291.83812 190.912115 
L 292.107096 177.979454 
L 292.645049 230.322844 
L 292.914026 270.519965 
L 293.183002 271.84153 
L 293.31749 270.460283 
L 293.451979 266.085906 
L 293.586467 265.852735 
L 293.720955 264.544334 
L 293.989931 269.273002 
L 294.393396 228.541489 
L 294.662373 167.167491 
L 294.796861 154.031234 
L 294.931349 154.404926 
L 295.200325 140.068183 
L 295.334814 150.79453 
L 295.469302 148.841949 
L 295.738278 200.631688 
L 295.872766 207.416892 
L 296.141743 264.685202 
L 296.276231 264.273771 
L 296.410719 259.235457 
L 296.545208 264.817769 
L 296.679696 289.853016 
L 296.814184 288.561612 
L 297.08316 280.427932 
L 297.352137 282.571492 
L 297.621113 280.306171 
L 297.89009 283.959032 
L 298.159066 276.172453 
L 298.428042 278.825272 
L 298.562531 277.862654 
L 298.831507 269.87124 
L 298.965995 269.963904 
L 299.503948 279.046461 
L 299.638436 276.597426 
L 299.772925 277.93072 
L 299.907413 261.107929 
L 300.176389 271.117934 
L 300.310877 271.598848 
L 300.445366 270.055659 
L 300.714342 248.319655 
L 301.117807 145.203675 
L 301.386783 126.959508 
L 301.521271 129.248214 
L 301.65576 138.752949 
L 301.790248 132.203818 
L 301.924736 151.352007 
L 302.193712 205.414463 
L 302.328201 213.20285 
L 302.597177 256.690832 
L 302.731665 261.238123 
L 302.866153 260.254061 
L 303.13513 270.835655 
L 303.404106 265.123869 
L 303.538595 269.224723 
L 303.673083 269.50743 
L 304.076547 206.28233 
L 304.211036 163.623664 
L 304.345524 162.27162 
L 304.480012 162.244186 
L 304.748988 156.306401 
L 304.883477 159.779868 
L 305.017965 151.879107 
L 305.152453 157.326189 
L 305.42143 215.98411 
L 305.555918 220.22724 
L 305.959382 266.48519 
L 306.093871 265.616107 
L 306.362847 266.742717 
L 306.497335 278.622111 
L 306.631823 280.376082 
L 306.9008 275.706523 
L 307.035288 267.69262 
L 307.169776 245.457073 
L 307.438753 153.905667 
L 307.707729 172.398784 
L 307.842217 161.068056 
L 307.976706 161.657167 
L 308.111194 162.912978 
L 308.245682 152.886623 
L 308.38017 161.112218 
L 308.783635 229.627768 
L 309.187099 270.694894 
L 309.321588 270.989225 
L 309.725052 277.223841 
L 309.994029 275.830551 
L 310.128517 275.103909 
L 310.263005 267.781948 
L 310.397493 242.469801 
L 310.66647 153.097106 
L 310.800958 159.068863 
L 310.935446 171.850599 
L 311.204423 162.461932 
L 311.338911 163.800192 
L 311.473399 160.023736 
L 311.607887 161.401917 
L 312.011352 235.901314 
L 312.414817 268.942638 
L 312.549305 267.52507 
L 312.683793 267.794359 
L 312.952769 272.513803 
L 313.087258 270.420166 
L 313.221746 271.821037 
L 313.356234 271.564183 
L 313.490722 272.874979 
L 313.894187 245.411758 
L 314.028675 257.600204 
L 314.163163 256.445482 
L 314.297652 257.332387 
L 314.43214 254.060109 
L 314.701116 262.983009 
L 314.970093 261.605506 
L 315.104581 266.955733 
L 315.239069 266.993367 
L 315.373557 264.17715 
L 315.642534 268.624186 
L 315.777022 268.092951 
L 315.91151 266.758202 
L 316.314975 271.191516 
L 316.449463 269.87247 
L 316.718439 271.181932 
L 316.987416 270.482609 
L 317.121904 274.297451 
L 317.525369 268.068297 
L 317.659857 266.740889 
L 317.794345 270.660217 
L 318.063322 262.004473 
L 318.19781 260.911336 
L 318.332298 263.226808 
L 318.466786 261.449383 
L 318.601274 263.330228 
L 318.735763 263.464387 
L 318.870251 265.823972 
L 319.004739 265.652834 
L 319.139227 265.903597 
L 319.273715 266.607547 
L 319.408204 282.918944 
L 319.542692 283.488687 
L 319.811668 277.379002 
L 319.946157 272.81047 
L 320.080645 255.971819 
L 320.349621 153.122275 
L 320.618598 128.662633 
L 320.887574 145.24498 
L 321.022062 150.395553 
L 321.291039 177.475481 
L 321.425527 193.505366 
L 321.560015 194.168116 
L 321.96348 266.587411 
L 322.097968 266.786125 
L 322.232456 265.803303 
L 322.501433 269.952333 
L 322.635921 283.026526 
L 322.770409 284.264427 
L 323.039385 278.10758 
L 323.308362 258.431265 
L 323.577338 157.316046 
L 323.711826 162.388623 
L 323.846315 176.922617 
L 324.115291 158.29497 
L 324.249779 157.374374 
L 324.384268 153.412008 
L 324.518756 160.031646 
L 324.787732 207.957974 
L 324.92222 216.383164 
L 325.191197 265.662851 
L 325.325685 265.529682 
L 325.460173 264.073541 
L 325.72915 269.339893 
L 325.998126 282.253168 
L 326.132614 281.527357 
L 326.267103 279.49566 
L 326.401591 272.905986 
L 326.536079 254.010888 
L 326.805055 153.266451 
L 326.939544 159.526263 
L 327.074032 177.283273 
L 327.20852 161.466644 
L 327.477496 167.021289 
L 327.611985 161.088963 
L 327.746473 162.624676 
L 327.880961 178.898638 
L 328.149937 228.848655 
L 328.553402 264.861229 
L 328.956867 273.420275 
L 329.091355 284.908282 
L 329.225843 284.779095 
L 329.49482 278.004416 
L 329.763796 252.389233 
L 330.032772 165.337723 
L 330.167261 162.961601 
L 330.301749 172.558071 
L 330.570725 163.90222 
L 330.705214 159.21638 
L 331.108678 194.0878 
L 331.243166 198.045449 
L 331.646631 262.744792 
L 331.781119 265.205886 
L 331.915607 264.761226 
L 332.050096 265.769586 
L 332.184584 270.17851 
L 332.319072 283.709335 
L 332.45356 283.423842 
L 332.588049 277.734048 
L 332.722537 277.049978 
L 332.991513 251.971443 
L 333.26049 162.93597 
L 333.394978 167.131277 
L 333.529466 182.546996 
L 333.663954 167.878042 
L 333.798442 167.424095 
L 334.067419 165.29745 
L 334.470883 208.803834 
L 334.73986 259.398994 
L 334.874348 265.953532 
L 335.008836 266.907643 
L 335.277813 274.874211 
L 335.546789 270.768577 
L 335.815766 270.403269 
L 336.084742 273.879903 
L 336.353718 260.156808 
L 336.488207 260.46988 
L 336.757183 254.383443 
L 336.891671 255.749398 
L 337.02616 254.234083 
L 337.698601 267.956281 
L 337.833089 268.177098 
L 337.967577 266.457552 
L 338.236553 270.461418 
L 338.640018 264.546123 
L 338.774506 265.728701 
L 339.043483 268.536512 
L 339.312459 270.789622 
L 339.446947 268.508288 
L 339.715924 273.273269 
L 340.119388 269.790824 
L 340.253877 270.903308 
L 340.388365 270.284491 
L 340.522853 272.741064 
L 340.657341 269.805451 
L 341.060806 269.253258 
L 341.195294 263.999436 
L 341.464271 272.026214 
L 341.598759 271.112813 
L 341.733247 271.095786 
L 341.867735 273.447958 
L 342.002223 284.890966 
L 342.136712 284.594061 
L 342.405688 280.632517 
L 342.674664 254.237045 
L 343.078129 139.208422 
L 343.212617 165.684305 
L 343.347106 169.774183 
L 343.481594 167.39957 
L 343.75057 175.670772 
L 344.557499 266.874464 
L 344.691988 265.468021 
L 344.960964 275.062054 
L 345.095452 274.210376 
L 345.22994 281.904716 
L 345.364429 282.145933 
L 345.633405 279.854328 
L 345.767893 272.813288 
L 345.902382 256.718114 
L 346.171358 164.703525 
L 346.305846 178.894164 
L 346.440334 179.794387 
L 346.709311 172.223522 
L 346.843799 170.761673 
L 346.978287 173.078166 
L 347.51624 240.945944 
L 347.785217 264.732959 
L 348.188681 272.700384 
L 348.323169 271.778004 
L 348.457658 282.795822 
L 348.592146 283.524654 
L 348.861122 280.519792 
L 349.130099 251.656141 
L 349.399075 162.338072 
L 349.533563 171.567889 
L 350.071516 166.491551 
L 350.206004 168.711226 
L 350.474981 197.751652 
L 350.743957 239.571124 
L 351.147422 270.127545 
L 351.28191 270.534253 
L 351.550886 274.0076 
L 351.685375 285.971075 
L 352.223328 275.616164 
L 352.357816 260.270377 
L 352.626792 159.40505 
L 352.895769 176.167699 
L 353.164745 169.741119 
L 353.299233 171.040036 
L 353.56821 165.828018 
L 353.702698 167.091768 
L 354.106163 256.062709 
L 354.375139 271.506334 
L 354.644115 273.483224 
L 354.913092 282.149878 
L 355.316556 279.663075 
L 355.451045 274.056685 
L 355.585533 254.514042 
L 355.854509 184.370303 
L 355.988998 185.334559 
L 356.257974 160.636785 
L 356.392462 163.604927 
L 356.52695 163.552753 
L 356.661439 166.545185 
L 357.602856 276.916014 
L 357.737344 276.863743 
L 357.871832 277.477027 
L 358.006321 282.712695 
L 358.275297 279.008769 
L 358.544274 279.259564 
L 358.81325 273.335173 
L 359.216715 246.609916 
L 359.351203 248.870434 
L 359.485691 253.497244 
L 359.620179 247.463582 
L 359.889156 263.232488 
L 360.023644 262.853321 
L 360.158132 265.046164 
L 360.427109 279.069369 
L 360.696085 276.223233 
L 361.09955 280.767519 
L 361.503014 279.190557 
L 361.637502 281.354864 
L 361.771991 280.241729 
L 361.906479 275.613003 
L 362.040967 278.344865 
L 362.175455 283.803557 
L 362.309944 282.581755 
L 362.444432 278.319779 
L 362.57892 277.856051 
L 362.713408 275.262438 
L 362.847896 277.261316 
L 362.982385 277.485362 
L 363.251361 270.957491 
L 363.520337 276.579941 
L 363.789314 274.419504 
L 364.192778 278.770009 
L 364.327267 232.660872 
L 364.461755 234.304345 
L 364.730731 255.815476 
L 364.86522 258.728144 
L 364.999708 255.613249 
L 365.268684 197.920874 
L 365.537661 122.387656 
L 365.672149 99.715961 
L 365.806637 100.892868 
L 366.075613 112.551363 
L 366.210102 107.582524 
L 366.479078 130.978773 
L 366.613566 146.646117 
L 366.882543 242.190778 
L 367.151519 256.155286 
L 367.286007 260.508838 
L 367.420496 257.02715 
L 367.689472 269.32431 
L 367.82396 266.665455 
L 368.092937 271.21419 
L 368.63089 138.817388 
L 368.765378 96.276344 
L 368.899866 104.992879 
L 369.034354 102.933165 
L 369.303331 87.202965 
L 369.437819 86.349013 
L 369.572307 119.587996 
L 369.706795 111.946443 
L 369.841283 132.946515 
L 370.11026 233.911272 
L 370.379236 243.145243 
L 370.648213 262.065511 
L 370.782701 284.699153 
L 370.917189 286.852108 
L 371.051677 277.811741 
L 371.186166 277.151865 
L 371.320654 277.706501 
L 371.58963 246.898471 
L 371.858607 159.383296 
L 371.993095 154.696793 
L 372.262071 213.569601 
L 372.396559 195.107701 
L 372.531048 194.897934 
L 372.800024 189.741098 
L 372.934512 196.376359 
L 373.069001 231.610234 
L 373.203489 236.847384 
L 373.606953 265.173241 
L 373.87593 270.03944 
L 374.144906 295.488 
L 374.413883 286.277201 
L 374.548371 284.469156 
L 374.817347 253.148618 
L 375.220812 181.808242 
L 375.3553 174.92542 
L 375.489788 179.260895 
L 375.624277 176.780123 
L 375.758765 179.198189 
L 376.162229 200.588292 
L 376.431206 236.199099 
L 376.700182 266.445608 
L 376.83467 268.515254 
L 376.969159 267.589835 
L 377.103647 268.361006 
L 377.238135 285.645567 
L 377.776088 273.335731 
L 377.910576 279.571743 
L 378.045064 279.444751 
L 378.179553 277.283702 
L 378.314041 266.212522 
L 378.448529 267.991009 
L 378.583017 261.774907 
L 378.851994 265.331258 
L 378.986482 272.487118 
L 379.255458 265.611224 
L 379.389947 265.621568 
L 379.524435 267.123105 
L 379.927899 276.575632 
L 380.062388 278.666426 
L 380.331364 276.398895 
L 380.465852 257.766102 
L 380.60034 258.875565 
L 380.869317 271.253341 
L 381.003805 270.349638 
L 381.40727 211.183386 
L 381.676246 141.285419 
L 381.810734 143.484819 
L 381.945223 138.74701 
L 382.214199 146.910281 
L 382.348687 145.212036 
L 382.483175 141.343139 
L 382.88664 215.678309 
L 383.155616 264.77559 
L 383.424593 267.620883 
L 383.559081 266.450153 
L 383.828058 255.087478 
L 384.097034 260.338861 
L 384.231522 261.952216 
L 384.36601 257.809295 
L 384.500499 258.249836 
L 384.903963 152.728777 
L 385.038451 158.417761 
L 385.17294 140.36577 
L 385.307428 145.727862 
L 385.441916 174.53098 
L 385.710893 166.765392 
L 385.979869 211.842713 
L 386.517822 269.693382 
L 386.65231 273.168761 
L 386.786798 271.260624 
L 386.921286 280.723903 
L 387.055775 280.763633 
L 387.190263 275.365824 
L 387.324751 276.659507 
L 387.459239 276.482364 
L 387.593727 274.956126 
L 387.728216 275.776527 
L 387.997192 281.958806 
L 388.13168 279.618318 
L 388.266169 279.982453 
L 388.400657 276.750214 
L 388.669633 278.654588 
L 388.804121 273.025095 
L 388.93861 274.826193 
L 389.073098 269.481657 
L 389.342074 278.325369 
L 389.611051 288.365143 
L 389.745539 284.459661 
L 389.880027 283.998552 
L 390.014515 284.325586 
L 390.149004 256.963679 
L 390.283492 256.993654 
L 390.552468 268.581102 
L 390.686956 267.237011 
L 390.821445 256.107961 
L 390.955933 254.45742 
L 391.090421 245.71557 
L 391.359397 177.122923 
L 391.493886 153.591526 
L 391.628374 157.683128 
L 391.89735 172.281716 
L 392.031839 178.277407 
L 392.166327 168.388559 
L 392.300815 175.834681 
L 392.569791 226.320539 
L 392.838768 271.188616 
L 392.973256 272.051041 
L 393.107744 271.556711 
L 393.242232 270.132067 
L 393.511209 256.884254 
L 393.780185 271.230092 
L 393.914673 263.101973 
L 394.049162 263.201333 
L 394.18365 250.268377 
L 394.587115 153.275437 
L 394.721603 153.796718 
L 394.856091 141.07079 
L 395.125067 147.198777 
L 395.259556 143.249661 
L 396.066485 257.739012 
L 396.200973 263.349289 
L 396.335461 263.855567 
L 396.46995 255.165654 
L 396.604438 288.543655 
L 396.738926 291.604252 
L 396.873414 281.539776 
L 397.007902 280.29029 
L 397.142391 283.174417 
L 397.411367 254.718522 
L 397.680343 177.426264 
L 397.814832 178.671737 
L 398.218296 159.783955 
L 398.352785 165.033768 
L 398.487273 164.567548 
L 398.487273 164.567548 
" clip-path="url(#p8c7b288021)" style="fill: none; stroke: #ff7f0e; stroke-width: 1.5; stroke-linecap: square"/>
   </g>
   <g id="patch_3">
    <path d="M 57.6 307.584 
L 57.6 41.472 
" style="fill: none; stroke: #000000; stroke-width: 0.8; stroke-linejoin: miter; stroke-linecap: square"/>
   </g>
   <g id="patch_4">
    <path d="M 414.72 307.584 
L 414.72 41.472 
" style="fill: none; stroke: #000000; stroke-width: 0.8; stroke-linejoin: miter; stroke-linecap: square"/>
   </g>
   <g id="patch_5">
    <path d="M 57.6 307.584 
L 414.72 307.584 
" style="fill: none; stroke: #000000; stroke-width: 0.8; stroke-linejoin: miter; stroke-linecap: square"/>
   </g>
   <g id="patch_6">
    <path d="M 57.6 41.472 
L 414.72 41.472 
" style="fill: none; stroke: #000000; stroke-width: 0.8; stroke-linejoin: miter; stroke-linecap: square"/>
   </g>
  </g>
 </g>
 <defs>
  <clipPath id="p8c7b288021">
   <rect x="57.6" y="41.472" width="357.12" height="266.112"/>
  </clipPath>
 </defs>
</svg>
