<?xml version="1.0" encoding="utf-8" standalone="no"?>
<!DOCTYPE svg PUBLIC "-//W3C//DTD SVG 1.1//EN"
  "http://www.w3.org/Graphics/SVG/1.1/DTD/svg11.dtd">
<svg xmlns:xlink="http://www.w3.org/1999/xlink" width="460.8pt" height="345.6pt" viewBox="0 0 460.8 345.6" xmlns="http://www.w3.org/2000/svg" version="1.1">
 <metadata>
  <rdf:RDF xmlns:dc="http://purl.org/dc/elements/1.1/" xmlns:cc="http://creativecommons.org/ns#" xmlns:rdf="http://www.w3.org/1999/02/22-rdf-syntax-ns#">
   <cc:Work>
    <dc:type rdf:resource="http://purl.org/dc/dcmitype/StillImage"/>
    <dc:date>2023-04-04T03:55:36.962260</dc:date>
    <dc:format>image/svg+xml</dc:format>
    <dc:creator>
     <cc:Agent>
      <dc:title>Matplotlib v3.5.2, https://matplotlib.org/</dc:title>
     </cc:Agent>
    </dc:creator>
   </cc:Work>
  </rdf:RDF>
 </metadata>
 <defs>
  <style type="text/css">*{stroke-linejoin: round; stroke-linecap: butt}</style>
 </defs>
 <g id="figure_1">
  <g id="patch_1">
   <path d="M 0 345.6 
L 460.8 345.6 
L 460.8 0 
L 0 0 
z
" style="fill: #ffffff"/>
  </g>
  <g id="axes_1">
   <g id="patch_2">
    <path d="M 57.6 307.584 
L 414.72 307.584 
L 414.72 41.472 
L 57.6 41.472 
z
" style="fill: #ffffff"/>
   </g>
   <g id="matplotlib.axis_1">
    <g id="xtick_1">
     <g id="line2d_1">
      <defs>
       <path id="m5734bc34a7" d="M 0 0 
L 0 3.5 
" style="stroke: #000000; stroke-width: 0.8"/>
      </defs>
      <g>
       <use xlink:href="#m5734bc34a7" x="73.832727" y="307.584" style="stroke: #000000; stroke-width: 0.8"/>
      </g>
     </g>
     <g id="text_1">
      <!-- 0 -->
      <g transform="translate(70.651477 322.182437)scale(0.1 -0.1)">
       <defs>
        <path id="DejaVuSans-30" d="M 2034 4250 
Q 1547 4250 1301 3770 
Q 1056 3291 1056 2328 
Q 1056 1369 1301 889 
Q 1547 409 2034 409 
Q 2525 409 2770 889 
Q 3016 1369 3016 2328 
Q 3016 3291 2770 3770 
Q 2525 4250 2034 4250 
z
M 2034 4750 
Q 2819 4750 3233 4129 
Q 3647 3509 3647 2328 
Q 3647 1150 3233 529 
Q 2819 -91 2034 -91 
Q 1250 -91 836 529 
Q 422 1150 422 2328 
Q 422 3509 836 4129 
Q 1250 4750 2034 4750 
z
" transform="scale(0.015625)"/>
       </defs>
       <use xlink:href="#DejaVuSans-30"/>
      </g>
     </g>
    </g>
    <g id="xtick_2">
     <g id="line2d_2">
      <g>
       <use xlink:href="#m5734bc34a7" x="141.076834" y="307.584" style="stroke: #000000; stroke-width: 0.8"/>
      </g>
     </g>
     <g id="text_2">
      <!-- 500 -->
      <g transform="translate(131.533084 322.182437)scale(0.1 -0.1)">
       <defs>
        <path id="DejaVuSans-35" d="M 691 4666 
L 3169 4666 
L 3169 4134 
L 1269 4134 
L 1269 2991 
Q 1406 3038 1543 3061 
Q 1681 3084 1819 3084 
Q 2600 3084 3056 2656 
Q 3513 2228 3513 1497 
Q 3513 744 3044 326 
Q 2575 -91 1722 -91 
Q 1428 -91 1123 -41 
Q 819 9 494 109 
L 494 744 
Q 775 591 1075 516 
Q 1375 441 1709 441 
Q 2250 441 2565 725 
Q 2881 1009 2881 1497 
Q 2881 1984 2565 2268 
Q 2250 2553 1709 2553 
Q 1456 2553 1204 2497 
Q 953 2441 691 2322 
L 691 4666 
z
" transform="scale(0.015625)"/>
       </defs>
       <use xlink:href="#DejaVuSans-35"/>
       <use xlink:href="#DejaVuSans-30" x="63.623047"/>
       <use xlink:href="#DejaVuSans-30" x="127.246094"/>
      </g>
     </g>
    </g>
    <g id="xtick_3">
     <g id="line2d_3">
      <g>
       <use xlink:href="#m5734bc34a7" x="208.32094" y="307.584" style="stroke: #000000; stroke-width: 0.8"/>
      </g>
     </g>
     <g id="text_3">
      <!-- 1000 -->
      <g transform="translate(195.59594 322.182437)scale(0.1 -0.1)">
       <defs>
        <path id="DejaVuSans-31" d="M 794 531 
L 1825 531 
L 1825 4091 
L 703 3866 
L 703 4441 
L 1819 4666 
L 2450 4666 
L 2450 531 
L 3481 531 
L 3481 0 
L 794 0 
L 794 531 
z
" transform="scale(0.015625)"/>
       </defs>
       <use xlink:href="#DejaVuSans-31"/>
       <use xlink:href="#DejaVuSans-30" x="63.623047"/>
       <use xlink:href="#DejaVuSans-30" x="127.246094"/>
       <use xlink:href="#DejaVuSans-30" x="190.869141"/>
      </g>
     </g>
    </g>
    <g id="xtick_4">
     <g id="line2d_4">
      <g>
       <use xlink:href="#m5734bc34a7" x="275.565046" y="307.584" style="stroke: #000000; stroke-width: 0.8"/>
      </g>
     </g>
     <g id="text_4">
      <!-- 1500 -->
      <g transform="translate(262.840046 322.182437)scale(0.1 -0.1)">
       <use xlink:href="#DejaVuSans-31"/>
       <use xlink:href="#DejaVuSans-35" x="63.623047"/>
       <use xlink:href="#DejaVuSans-30" x="127.246094"/>
       <use xlink:href="#DejaVuSans-30" x="190.869141"/>
      </g>
     </g>
    </g>
    <g id="xtick_5">
     <g id="line2d_5">
      <g>
       <use xlink:href="#m5734bc34a7" x="342.809153" y="307.584" style="stroke: #000000; stroke-width: 0.8"/>
      </g>
     </g>
     <g id="text_5">
      <!-- 2000 -->
      <g transform="translate(330.084153 322.182437)scale(0.1 -0.1)">
       <defs>
        <path id="DejaVuSans-32" d="M 1228 531 
L 3431 531 
L 3431 0 
L 469 0 
L 469 531 
Q 828 903 1448 1529 
Q 2069 2156 2228 2338 
Q 2531 2678 2651 2914 
Q 2772 3150 2772 3378 
Q 2772 3750 2511 3984 
Q 2250 4219 1831 4219 
Q 1534 4219 1204 4116 
Q 875 4013 500 3803 
L 500 4441 
Q 881 4594 1212 4672 
Q 1544 4750 1819 4750 
Q 2544 4750 2975 4387 
Q 3406 4025 3406 3419 
Q 3406 3131 3298 2873 
Q 3191 2616 2906 2266 
Q 2828 2175 2409 1742 
Q 1991 1309 1228 531 
z
" transform="scale(0.015625)"/>
       </defs>
       <use xlink:href="#DejaVuSans-32"/>
       <use xlink:href="#DejaVuSans-30" x="63.623047"/>
       <use xlink:href="#DejaVuSans-30" x="127.246094"/>
       <use xlink:href="#DejaVuSans-30" x="190.869141"/>
      </g>
     </g>
    </g>
    <g id="xtick_6">
     <g id="line2d_6">
      <g>
       <use xlink:href="#m5734bc34a7" x="410.053259" y="307.584" style="stroke: #000000; stroke-width: 0.8"/>
      </g>
     </g>
     <g id="text_6">
      <!-- 2500 -->
      <g transform="translate(397.328259 322.182437)scale(0.1 -0.1)">
       <use xlink:href="#DejaVuSans-32"/>
       <use xlink:href="#DejaVuSans-35" x="63.623047"/>
       <use xlink:href="#DejaVuSans-30" x="127.246094"/>
       <use xlink:href="#DejaVuSans-30" x="190.869141"/>
      </g>
     </g>
    </g>
   </g>
   <g id="matplotlib.axis_2">
    <g id="ytick_1">
     <g id="line2d_7">
      <defs>
       <path id="mc342c42afa" d="M 0 0 
L -3.5 0 
" style="stroke: #000000; stroke-width: 0.8"/>
      </defs>
      <g>
       <use xlink:href="#mc342c42afa" x="57.6" y="281.845426" style="stroke: #000000; stroke-width: 0.8"/>
      </g>
     </g>
     <g id="text_7">
      <!-- 100 -->
      <g transform="translate(31.5125 285.644645)scale(0.1 -0.1)">
       <use xlink:href="#DejaVuSans-31"/>
       <use xlink:href="#DejaVuSans-30" x="63.623047"/>
       <use xlink:href="#DejaVuSans-30" x="127.246094"/>
      </g>
     </g>
    </g>
    <g id="ytick_2">
     <g id="line2d_8">
      <g>
       <use xlink:href="#mc342c42afa" x="57.6" y="233.744388" style="stroke: #000000; stroke-width: 0.8"/>
      </g>
     </g>
     <g id="text_8">
      <!-- 200 -->
      <g transform="translate(31.5125 237.543607)scale(0.1 -0.1)">
       <use xlink:href="#DejaVuSans-32"/>
       <use xlink:href="#DejaVuSans-30" x="63.623047"/>
       <use xlink:href="#DejaVuSans-30" x="127.246094"/>
      </g>
     </g>
    </g>
    <g id="ytick_3">
     <g id="line2d_9">
      <g>
       <use xlink:href="#mc342c42afa" x="57.6" y="185.64335" style="stroke: #000000; stroke-width: 0.8"/>
      </g>
     </g>
     <g id="text_9">
      <!-- 300 -->
      <g transform="translate(31.5125 189.442569)scale(0.1 -0.1)">
       <defs>
        <path id="DejaVuSans-33" d="M 2597 2516 
Q 3050 2419 3304 2112 
Q 3559 1806 3559 1356 
Q 3559 666 3084 287 
Q 2609 -91 1734 -91 
Q 1441 -91 1130 -33 
Q 819 25 488 141 
L 488 750 
Q 750 597 1062 519 
Q 1375 441 1716 441 
Q 2309 441 2620 675 
Q 2931 909 2931 1356 
Q 2931 1769 2642 2001 
Q 2353 2234 1838 2234 
L 1294 2234 
L 1294 2753 
L 1863 2753 
Q 2328 2753 2575 2939 
Q 2822 3125 2822 3475 
Q 2822 3834 2567 4026 
Q 2313 4219 1838 4219 
Q 1578 4219 1281 4162 
Q 984 4106 628 3988 
L 628 4550 
Q 988 4650 1302 4700 
Q 1616 4750 1894 4750 
Q 2613 4750 3031 4423 
Q 3450 4097 3450 3541 
Q 3450 3153 3228 2886 
Q 3006 2619 2597 2516 
z
" transform="scale(0.015625)"/>
       </defs>
       <use xlink:href="#DejaVuSans-33"/>
       <use xlink:href="#DejaVuSans-30" x="63.623047"/>
       <use xlink:href="#DejaVuSans-30" x="127.246094"/>
      </g>
     </g>
    </g>
    <g id="ytick_4">
     <g id="line2d_10">
      <g>
       <use xlink:href="#mc342c42afa" x="57.6" y="137.542312" style="stroke: #000000; stroke-width: 0.8"/>
      </g>
     </g>
     <g id="text_10">
      <!-- 400 -->
      <g transform="translate(31.5125 141.34153)scale(0.1 -0.1)">
       <defs>
        <path id="DejaVuSans-34" d="M 2419 4116 
L 825 1625 
L 2419 1625 
L 2419 4116 
z
M 2253 4666 
L 3047 4666 
L 3047 1625 
L 3713 1625 
L 3713 1100 
L 3047 1100 
L 3047 0 
L 2419 0 
L 2419 1100 
L 313 1100 
L 313 1709 
L 2253 4666 
z
" transform="scale(0.015625)"/>
       </defs>
       <use xlink:href="#DejaVuSans-34"/>
       <use xlink:href="#DejaVuSans-30" x="63.623047"/>
       <use xlink:href="#DejaVuSans-30" x="127.246094"/>
      </g>
     </g>
    </g>
    <g id="ytick_5">
     <g id="line2d_11">
      <g>
       <use xlink:href="#mc342c42afa" x="57.6" y="89.441273" style="stroke: #000000; stroke-width: 0.8"/>
      </g>
     </g>
     <g id="text_11">
      <!-- 500 -->
      <g transform="translate(31.5125 93.240492)scale(0.1 -0.1)">
       <use xlink:href="#DejaVuSans-35"/>
       <use xlink:href="#DejaVuSans-30" x="63.623047"/>
       <use xlink:href="#DejaVuSans-30" x="127.246094"/>
      </g>
     </g>
    </g>
   </g>
   <g id="line2d_12">
    <path d="M 73.832727 284.935437 
L 74.101704 284.382756 
L 74.236192 283.265369 
L 74.37068 284.235086 
L 74.505168 283.739645 
L 74.639657 284.345237 
L 74.774145 277.834281 
L 74.908633 250.554258 
L 75.177609 249.052062 
L 75.312098 249.610997 
L 75.446586 249.663908 
L 75.581074 250.535979 
L 75.715562 249.775021 
L 75.85005 249.752895 
L 76.253515 244.736918 
L 76.522492 279.003617 
L 76.65698 279.318679 
L 76.925956 277.601472 
L 77.060444 268.691235 
L 77.194933 270.948617 
L 77.463909 271.012591 
L 77.598397 272.60666 
L 77.732885 267.247723 
L 77.867374 253.758268 
L 78.405327 104.418494 
L 78.674303 103.491106 
L 78.808791 110.673072 
L 78.943279 105.840841 
L 79.481232 158.862616 
L 79.750209 229.670711 
L 80.019185 264.605533 
L 80.153673 266.742662 
L 80.288161 262.884478 
L 80.42265 273.344049 
L 80.557138 272.90681 
L 80.826114 275.42971 
L 80.960603 272.874102 
L 81.095091 262.497265 
L 81.364067 169.112466 
L 81.498555 181.488382 
L 81.767532 161.965133 
L 82.036508 170.016766 
L 82.170996 166.896932 
L 82.305485 160.885745 
L 83.112414 262.016254 
L 83.650367 288.35975 
L 83.784855 288.380433 
L 83.919343 289.918224 
L 84.053831 290.11159 
L 84.18832 288.001878 
L 84.322808 280.73333 
L 84.726273 190.05181 
L 84.860761 181.333978 
L 84.995249 185.455275 
L 85.129737 170.482865 
L 85.264225 179.076596 
L 85.398714 179.828415 
L 85.66769 188.174907 
L 85.802178 196.998081 
L 86.340131 264.154826 
L 86.474619 266.17988 
L 86.609107 271.119857 
L 86.878084 288.744077 
L 87.012572 291.008674 
L 87.14706 290.680144 
L 87.281549 292.179934 
L 87.416037 292.082289 
L 87.550525 291.266015 
L 87.819501 263.595892 
L 87.95399 263.742601 
L 88.088478 258.021944 
L 88.222966 259.490469 
L 88.357454 258.728067 
L 88.491942 255.34945 
L 88.626431 258.201361 
L 88.760919 251.165141 
L 88.895407 254.059862 
L 89.029895 254.058419 
L 89.164384 256.63471 
L 89.43336 278.064204 
L 89.567848 279.737639 
L 89.702336 279.236426 
L 89.836825 280.302826 
L 89.971313 265.062012 
L 90.105801 265.77968 
L 90.240289 267.333343 
L 90.374777 267.101496 
L 90.509266 268.344908 
L 90.643754 268.517591 
L 90.778242 270.629707 
L 90.91273 267.387216 
L 91.047218 257.388453 
L 91.181707 256.210459 
L 91.316195 249.237251 
L 91.450683 253.698623 
L 91.585171 251.720708 
L 91.71966 253.228195 
L 91.854148 253.455713 
L 92.123124 256.456736 
L 92.257612 255.880486 
L 92.526589 261.50975 
L 92.795565 268.147213 
L 92.930053 269.108271 
L 93.064542 267.960581 
L 93.19903 278.040634 
L 93.468006 278.166178 
L 93.602495 279.23354 
L 93.736983 277.991571 
L 93.871471 275.452317 
L 94.005959 270.199684 
L 94.6784 162.25422 
L 94.812888 157.827962 
L 95.081865 169.766159 
L 95.216353 164.514969 
L 95.350841 153.173706 
L 96.023282 266.508891 
L 96.157771 267.243394 
L 96.426747 271.197299 
L 96.561235 270.861554 
L 96.695723 270.939478 
L 96.830212 272.83514 
L 96.9647 272.192991 
L 97.099188 270.755732 
L 97.233676 262.229823 
L 97.368164 244.545957 
L 97.502653 203.241115 
L 97.637141 196.096186 
L 97.771629 180.516741 
L 97.906117 188.970499 
L 98.040606 182.21086 
L 98.175094 182.925641 
L 98.309582 177.569591 
L 98.44407 179.223304 
L 98.713047 190.671351 
L 98.982023 232.908873 
L 99.250999 268.000985 
L 99.385488 272.720178 
L 99.519976 273.479694 
L 99.654464 283.353394 
L 99.788952 283.3659 
L 99.923441 282.357702 
L 100.192417 283.604481 
L 100.326905 283.685772 
L 100.461393 283.026307 
L 100.595882 283.435166 
L 100.73037 284.269719 
L 100.864858 282.720384 
L 100.999346 283.884429 
L 101.133834 282.970029 
L 101.268323 280.739102 
L 101.402811 273.664402 
L 101.537299 277.966559 
L 101.806276 267.507469 
L 101.940764 269.68356 
L 102.075252 269.533966 
L 102.20974 270.186697 
L 102.344228 272.582128 
L 102.478717 278.441316 
L 102.613205 276.575958 
L 102.747693 282.286032 
L 102.882181 268.733564 
L 103.016669 268.762425 
L 103.151158 273.703364 
L 103.285646 273.48258 
L 103.554622 269.272296 
L 103.68911 265.054316 
L 103.823599 247.505614 
L 104.092575 184.798215 
L 104.227063 163.16333 
L 104.361552 170.378485 
L 104.630528 145.328427 
L 105.033993 160.753949 
L 105.168481 171.609872 
L 105.706434 255.259982 
L 105.840922 255.136844 
L 105.97541 263.897005 
L 106.109898 280.445205 
L 106.378875 283.656911 
L 106.513363 283.642962 
L 106.647851 285.815205 
L 106.782339 285.544877 
L 106.916828 286.664188 
L 107.320292 248.827431 
L 107.45478 255.941093 
L 107.589269 253.389333 
L 107.723757 253.482649 
L 108.26171 248.383939 
L 108.396198 244.952892 
L 108.530686 247.228552 
L 108.934151 279.061338 
L 109.068639 280.587103 
L 109.203127 279.512526 
L 109.337615 274.985256 
L 109.606592 276.544692 
L 109.875568 277.604358 
L 110.144545 278.660657 
L 110.413521 277.414359 
L 110.548009 277.278714 
L 110.951474 273.201189 
L 111.085962 274.38255 
L 111.22045 274.032856 
L 111.623915 268.1982 
L 111.758403 268.709514 
L 112.02738 272.51623 
L 112.430844 274.124248 
L 112.565333 263.815714 
L 112.834309 268.042833 
L 112.968797 268.56954 
L 113.103285 270.08809 
L 113.237774 270.267506 
L 113.50675 272.900557 
L 113.641238 273.735591 
L 114.313679 262.436176 
L 114.448168 262.073014 
L 114.582656 260.582362 
L 114.98612 249.689882 
L 115.524073 260.81469 
L 115.658561 261.367852 
L 115.927538 263.605994 
L 116.062026 262.314962 
L 116.196514 268.44592 
L 116.331002 268.026479 
L 116.465491 268.640729 
L 116.599979 258.832447 
L 117.137932 79.257803 
L 117.406908 64.482607 
L 117.810373 81.104401 
L 118.213837 148.639702 
L 118.482814 211.28938 
L 118.75179 245.893267 
L 118.886279 247.434906 
L 119.289743 255.468741 
L 119.424231 256.893975 
L 119.55872 259.679025 
L 119.693208 259.997454 
L 119.827696 250.333474 
L 120.365649 92.179665 
L 120.634625 73.520311 
L 120.769114 77.230344 
L 120.903602 70.778551 
L 121.03809 72.113355 
L 121.441555 135.863585 
L 121.710531 203.030913 
L 121.845019 231.352804 
L 122.248484 242.372752 
L 122.51746 257.966628 
L 122.651948 258.126804 
L 122.786437 259.874315 
L 122.920925 258.527005 
L 123.055413 250.325297 
L 123.727854 60.506094 
L 123.862342 53.568 
L 124.534783 107.972198 
L 125.072736 249.623022 
L 125.207225 254.819858 
L 125.341713 255.285476 
L 125.476201 255.238818 
L 125.745177 268.906728 
L 125.879666 270.350721 
L 126.014154 270.581606 
L 126.28313 257.062809 
L 126.821083 93.290799 
L 126.955571 74.847418 
L 127.09006 81.478627 
L 127.359036 106.139549 
L 127.493524 108.594626 
L 127.762501 127.184715 
L 127.896989 150.101974 
L 128.300453 247.997207 
L 128.434942 253.828496 
L 128.56943 251.991998 
L 128.703918 259.530874 
L 128.838406 260.258642 
L 129.241871 266.985573 
L 129.510847 246.170329 
L 130.0488 83.663377 
L 130.183288 74.508787 
L 130.317777 86.487389 
L 130.452265 115.45672 
L 130.586753 114.533661 
L 130.721241 110.867881 
L 130.855729 117.290331 
L 131.124706 170.832559 
L 131.393682 236.809386 
L 131.662659 260.027276 
L 131.931635 259.830062 
L 132.066123 259.646797 
L 132.3351 270.975554 
L 132.469588 270.82644 
L 132.604076 270.92601 
L 132.738564 270.884162 
L 133.007541 258.932978 
L 133.276517 248.420496 
L 133.679982 242.81432 
L 133.81447 241.626224 
L 133.948958 236.50154 
L 134.486911 246.428151 
L 134.755888 253.550472 
L 134.890376 253.435029 
L 135.697305 267.748936 
L 135.831793 272.522964 
L 135.966282 273.13529 
L 136.10077 271.142945 
L 136.235258 272.653799 
L 136.369746 272.37818 
L 136.504234 268.057264 
L 136.638723 267.897568 
L 136.907699 265.953324 
L 137.311164 255.016591 
L 137.445652 255.528867 
L 137.58014 252.833285 
L 137.983605 259.679987 
L 138.118093 258.773763 
L 138.252581 260.617476 
L 138.387069 265.131278 
L 138.521558 263.892195 
L 138.656046 264.094219 
L 138.925022 268.81245 
L 139.193999 252.489363 
L 139.731951 81.800423 
L 139.86644 72.839681 
L 140.269904 98.977304 
L 140.538881 123.524707 
L 140.673369 130.650395 
L 140.807857 145.081187 
L 141.076834 225.585009 
L 141.480298 258.937788 
L 142.018251 267.418001 
L 142.152739 266.951902 
L 142.421716 243.098597 
L 142.959669 91.848249 
L 143.094157 84.395474 
L 143.228645 83.905325 
L 143.363133 94.181631 
L 143.497621 84.861573 
L 143.63211 90.013676 
L 144.573527 260.191782 
L 144.708015 263.698829 
L 144.842504 263.875359 
L 145.11148 266.128893 
L 145.245968 268.282858 
L 145.380456 264.184649 
L 145.783921 202.712965 
L 146.052897 110.563401 
L 146.187386 91.347036 
L 146.456362 106.736964 
L 146.59085 118.115745 
L 146.725339 112.396532 
L 146.859827 119.847864 
L 146.994315 114.744824 
L 147.128803 127.669573 
L 147.532268 235.486608 
L 147.801244 261.636737 
L 147.935732 261.840204 
L 148.204709 267.139977 
L 148.339197 267.118331 
L 148.473685 267.624835 
L 148.742662 266.56565 
L 148.87715 248.780292 
L 149.280615 119.711257 
L 149.415103 115.648643 
L 149.549591 106.513294 
L 149.684079 107.776427 
L 150.087544 140.680904 
L 150.222032 132.94289 
L 150.35652 138.495674 
L 150.894473 254.012242 
L 151.028961 263.238983 
L 151.16345 262.275519 
L 151.835891 270.499834 
L 151.970379 269.219866 
L 152.104867 248.144877 
L 152.508332 113.665437 
L 152.64282 116.792967 
L 152.911796 104.868238 
L 153.046285 119.102779 
L 153.180773 117.592887 
L 153.449749 152.273736 
L 153.718726 193.467465 
L 153.987702 250.433524 
L 154.12219 267.587317 
L 154.256678 268.97455 
L 154.525655 272.860152 
L 154.794631 274.574473 
L 155.063608 277.537016 
L 155.198096 279.188806 
L 155.332584 278.541366 
L 155.467072 274.133868 
L 155.601561 263.594449 
L 155.736049 262.72815 
L 155.870537 259.845454 
L 156.005025 261.997495 
L 156.274002 260.088846 
L 156.40849 260.628539 
L 156.542978 261.889749 
L 156.677466 260.68578 
L 157.215419 268.743666 
L 157.349907 270.761985 
L 157.484396 269.763889 
L 157.618884 270.538796 
L 157.88786 273.734148 
L 158.022348 274.218045 
L 158.291325 277.235423 
L 158.560301 281.542871 
L 158.694789 279.967081 
L 158.829278 280.937279 
L 158.963766 280.538521 
L 159.232742 277.807825 
L 159.367231 278.091621 
L 159.501719 276.095909 
L 160.039672 261.926786 
L 160.308648 262.187494 
L 160.443136 267.94134 
L 160.577624 267.656101 
L 160.712113 265.688769 
L 160.846601 266.394892 
L 160.981089 267.896125 
L 161.250066 271.675905 
L 161.519042 272.633115 
L 161.788018 255.766967 
L 162.460459 84.091957 
L 162.594948 83.753326 
L 162.729436 82.285282 
L 162.998412 101.995644 
L 163.132901 110.995349 
L 163.401877 152.513279 
L 163.670853 223.674436 
L 164.074318 257.971919 
L 164.208806 259.111914 
L 164.477783 271.844258 
L 164.612271 274.219969 
L 164.746759 269.489232 
L 165.015735 251.873669 
L 165.4192 121.333705 
L 165.553688 123.948477 
L 165.822665 109.971758 
L 165.957153 115.259025 
L 166.091641 112.155546 
L 166.360618 100.632461 
L 166.495106 106.863469 
L 166.89857 222.769655 
L 167.033059 229.783268 
L 167.302035 248.283408 
L 167.974476 266.858586 
L 168.108964 261.150917 
L 168.243453 247.054907 
L 168.377941 208.750127 
L 168.646917 106.688382 
L 168.781405 107.978932 
L 168.915894 103.426169 
L 169.050382 104.734036 
L 169.18487 108.552297 
L 169.319358 93.133028 
L 169.453847 95.626105 
L 169.857311 149.320813 
L 170.126288 227.985732 
L 170.395264 258.985408 
L 170.529752 259.870467 
L 170.66424 263.32797 
L 170.798729 263.51845 
L 171.067705 265.859527 
L 171.202193 268.710957 
L 171.47117 246.793238 
L 172.009123 110.775046 
L 172.143611 109.189155 
L 172.412587 97.36159 
L 172.95054 130.056828 
L 173.622981 260.96669 
L 173.757469 264.979759 
L 173.891958 278.439873 
L 174.026446 277.50527 
L 174.160934 277.461017 
L 174.42991 279.001212 
L 174.698887 264.121637 
L 174.833375 246.895212 
L 175.102351 177.963057 
L 175.371328 144.389013 
L 175.505816 141.471685 
L 175.640304 151.699409 
L 175.774792 151.387233 
L 175.909281 152.804771 
L 176.043769 157.640849 
L 176.178257 157.331079 
L 176.312745 171.893187 
L 176.581722 239.969143 
L 176.850698 267.262154 
L 176.985186 264.752722 
L 177.254163 269.516649 
L 177.388651 269.472877 
L 177.792116 276.07234 
L 177.926604 276.968462 
L 178.19558 266.185652 
L 178.330069 265.742642 
L 178.599045 258.128247 
L 178.733533 257.559212 
L 178.868021 259.882011 
L 179.136998 256.349471 
L 179.271486 256.949291 
L 179.540462 254.447556 
L 179.809439 262.002305 
L 179.943927 269.319916 
L 180.212904 267.405976 
L 180.48188 277.337878 
L 180.616368 277.351827 
L 180.750856 277.726534 
L 180.885345 278.563492 
L 181.019833 278.650555 
L 181.692274 266.258766 
L 181.826762 267.563266 
L 181.96125 261.539573 
L 182.095738 263.333742 
L 182.364715 268.808602 
L 182.499203 270.095305 
L 182.633691 273.264201 
L 182.902668 272.440711 
L 183.171644 278.613037 
L 183.306132 280.038751 
L 183.440621 278.921364 
L 183.575109 276.603856 
L 183.844085 288.416509 
L 183.978573 289.374201 
L 184.113062 287.079781 
L 184.382038 275.616342 
L 184.919991 183.262829 
L 185.054479 187.305722 
L 185.188967 180.184844 
L 185.457944 184.071408 
L 185.592432 185.580818 
L 185.995897 223.593145 
L 186.264873 254.398974 
L 186.53385 270.263177 
L 186.802826 280.587103 
L 187.071802 291.155863 
L 187.206291 289.99759 
L 187.340779 291.139509 
L 187.475267 287.940309 
L 187.609755 279.887233 
L 188.01322 203.459012 
L 188.147708 186.947369 
L 188.282196 187.167672 
L 188.416684 186.202765 
L 188.551173 189.53761 
L 188.685661 195.983149 
L 188.820149 191.541018 
L 188.954637 196.006718 
L 189.089126 204.436906 
L 189.627078 266.864839 
L 189.761567 269.471434 
L 189.896055 274.743308 
L 190.030543 272.290636 
L 190.299519 274.13483 
L 190.434008 272.955392 
L 190.971961 276.403756 
L 191.106449 272.927494 
L 191.240937 272.438787 
L 191.375425 272.880355 
L 191.509913 268.420908 
L 191.644402 269.980824 
L 191.913378 268.706147 
L 192.182354 263.030705 
L 192.316843 263.381843 
L 192.451331 262.880149 
L 192.585819 264.210143 
L 192.720307 270.020267 
L 192.989284 271.286767 
L 193.392748 268.580603 
L 193.661725 271.48302 
L 193.796213 272.02127 
L 194.065189 264.078827 
L 194.603142 159.600967 
L 194.73763 154.654737 
L 194.872119 144.632886 
L 195.006607 146.219739 
L 195.141095 150.997134 
L 195.275583 143.546283 
L 195.54456 157.034295 
L 195.948024 251.724556 
L 196.217001 262.134102 
L 196.351489 264.074498 
L 196.485977 273.614858 
L 196.620465 272.957797 
L 196.889442 273.518656 
L 197.02393 274.655283 
L 197.158418 272.913063 
L 197.292907 266.54641 
L 197.830859 197.339598 
L 197.965348 199.667689 
L 198.099836 196.326109 
L 198.234324 200.761506 
L 198.5033 187.340835 
L 198.772277 201.23963 
L 199.31023 274.295968 
L 199.713694 283.473646 
L 199.848183 282.296614 
L 200.117159 283.029674 
L 200.251647 281.233581 
L 200.386135 275.413355 
L 200.520624 275.007383 
L 200.655112 261.956609 
L 200.7896 214.395745 
L 200.924088 212.411578 
L 201.058576 200.64414 
L 201.193065 200.283382 
L 201.327553 197.579141 
L 201.462041 199.767258 
L 201.731018 187.882934 
L 201.865506 189.253814 
L 202.134482 212.111427 
L 202.403459 265.966793 
L 202.806923 275.835683 
L 203.0759 267.30352 
L 203.210388 271.661474 
L 203.344876 271.788461 
L 203.748341 262.344784 
L 203.882829 244.83312 
L 204.151805 182.428757 
L 204.420782 165.838709 
L 204.55527 160.169521 
L 204.689758 163.630872 
L 204.824246 157.084801 
L 204.958735 173.223181 
L 205.093223 173.471382 
L 205.765664 261.759876 
L 205.900152 262.274557 
L 206.03464 266.101956 
L 206.169129 281.057531 
L 206.303617 281.541909 
L 206.572593 285.508801 
L 206.84157 286.326038 
L 207.110546 276.870336 
L 207.379522 267.621468 
L 207.514011 266.737371 
L 207.917475 274.913586 
L 208.051964 274.665384 
L 208.32094 268.258807 
L 208.589916 269.872116 
L 208.858893 277.98147 
L 208.993381 281.661199 
L 209.127869 282.248994 
L 209.262357 281.701123 
L 209.396846 275.804417 
L 209.531334 276.909779 
L 209.80031 276.491781 
L 209.934799 277.489877 
L 210.203775 265.221226 
L 211.010704 108.981358 
L 211.279681 134.787565 
L 211.683145 168.126395 
L 212.221098 256.396129 
L 212.355586 258.877662 
L 212.759051 274.228146 
L 212.893539 274.019387 
L 213.028027 274.1204 
L 213.162516 276.788564 
L 213.431492 258.957028 
L 213.56598 220.601741 
L 213.834957 136.075711 
L 213.969445 140.694373 
L 214.103933 139.595264 
L 214.238421 142.578009 
L 214.910862 181.177168 
L 215.448815 262.055697 
L 215.583303 267.058205 
L 215.717792 267.680633 
L 216.121256 271.974612 
L 216.255745 272.939038 
L 216.390233 275.347457 
L 216.524721 271.309375 
L 216.659209 263.734904 
L 217.062674 149.813367 
L 217.197162 151.739814 
L 217.33165 151.821105 
L 217.466138 163.372088 
L 217.600627 162.078651 
L 217.735115 150.134682 
L 217.869603 155.404632 
L 218.273068 197.912963 
L 218.542044 257.175847 
L 218.811021 274.100678 
L 218.945509 266.625777 
L 219.483462 277.426865 
L 219.61795 279.238831 
L 219.886926 265.384289 
L 220.290391 163.029609 
L 220.693856 151.28093 
L 220.828344 162.02574 
L 220.962832 158.075202 
L 221.231808 185.435072 
L 221.500785 199.406019 
L 221.769761 257.038278 
L 222.038738 272.789925 
L 222.173226 272.031371 
L 222.307714 273.265644 
L 222.576691 279.362451 
L 222.845667 282.021476 
L 222.980155 280.336497 
L 223.114643 282.223981 
L 223.38362 261.515522 
L 223.518108 265.409783 
L 223.652596 265.252011 
L 223.921573 258.236956 
L 224.190549 257.559212 
L 224.325037 260.067681 
L 224.459525 259.434191 
L 224.728502 255.544741 
L 225.131967 262.871491 
L 225.266455 261.373624 
L 225.535431 262.857541 
L 225.669919 261.534282 
L 226.073384 271.380083 
L 226.34236 274.435461 
L 226.476849 274.362829 
L 226.745825 271.190565 
L 226.880313 273.493162 
L 227.014802 273.738477 
L 227.14929 273.438808 
L 227.283778 272.00684 
L 227.418266 273.698553 
L 227.552754 273.828426 
L 227.687243 273.657668 
L 227.956219 272.538837 
L 228.090707 278.407164 
L 228.225195 278.446607 
L 228.359684 279.558222 
L 228.494172 278.778504 
L 228.62866 279.758322 
L 228.763148 279.64288 
L 228.897637 277.33403 
L 229.301101 278.246026 
L 229.435589 271.976055 
L 229.570078 257.765085 
L 230.242519 94.867551 
L 230.377007 79.896103 
L 230.511495 110.147808 
L 230.780471 118.171061 
L 231.049448 145.889285 
L 231.587401 255.58707 
L 231.856377 266.911978 
L 232.125354 271.770183 
L 232.39433 276.469173 
L 232.528818 275.648089 
L 232.797795 258.388955 
L 232.932283 221.789356 
L 233.201259 133.840937 
L 233.335748 125.591128 
L 233.470236 135.980952 
L 233.604724 136.205103 
L 233.739212 149.113016 
L 233.8737 134.24258 
L 234.008189 141.02627 
L 234.815118 266.325145 
L 234.949606 266.05626 
L 235.218583 272.013574 
L 235.622047 279.821335 
L 235.756535 279.218148 
L 236.025512 266.447322 
L 236.563465 129.647969 
L 236.832441 117.325926 
L 237.63937 201.775957 
L 237.908347 260.373123 
L 238.177323 268.534907 
L 238.849764 283.587646 
L 238.984252 282.755498 
L 239.118741 278.922807 
L 239.253229 264.897025 
L 239.791182 128.871137 
L 240.194646 146.766167 
L 240.463623 166.065265 
L 240.732599 179.643226 
L 241.270552 257.818477 
L 241.674017 263.74693 
L 241.942993 276.806843 
L 242.077481 283.364938 
L 242.21197 282.733371 
L 242.480946 264.603609 
L 242.884411 151.857181 
L 243.018899 159.800105 
L 243.153387 157.533103 
L 243.287875 146.455915 
L 243.422363 154.50851 
L 243.556852 151.671511 
L 243.825828 168.461659 
L 244.229293 241.098556 
L 244.498269 263.685841 
L 244.767246 269.006297 
L 245.17071 276.93431 
L 245.305198 277.806863 
L 245.439687 277.508637 
L 245.574175 276.269073 
L 245.708663 264.711355 
L 245.843151 270.207861 
L 246.112128 267.199622 
L 246.381104 261.974887 
L 246.515592 261.941217 
L 247.188033 272.273801 
L 247.322522 272.68266 
L 247.45701 273.557136 
L 247.591498 273.199746 
L 247.725986 276.390288 
L 247.860475 274.940041 
L 248.129451 276.274845 
L 248.263939 275.384014 
L 248.398427 276.07234 
L 248.532916 275.917935 
L 248.667404 277.879496 
L 248.801892 277.779927 
L 249.205357 279.331666 
L 249.339845 279.449033 
L 249.608821 278.492784 
L 249.743309 278.625543 
L 249.877798 278.322987 
L 250.550239 275.131002 
L 250.819215 275.433558 
L 250.953703 276.218567 
L 251.088192 275.073281 
L 251.357168 276.341224 
L 251.491656 285.311106 
L 251.626144 284.817589 
L 251.760633 285.251461 
L 251.895121 285.090322 
L 252.164097 272.748558 
L 252.70205 144.326001 
L 252.836538 164.217223 
L 252.971027 160.745771 
L 253.240003 173.756621 
L 253.374491 175.120286 
L 253.508979 172.171692 
L 253.777956 205.250776 
L 254.046932 257.013746 
L 254.315909 278.508657 
L 254.719373 286.929706 
L 254.853862 286.687758 
L 255.122838 288.434788 
L 255.391814 267.506026 
L 255.660791 173.545458 
L 255.795279 177.019796 
L 256.198744 161.223896 
L 256.333232 164.926233 
L 256.46772 162.240752 
L 256.602208 163.446164 
L 257.409138 259.273052 
L 257.812602 266.80327 
L 258.081579 282.129222 
L 258.216067 283.201395 
L 258.350555 282.466411 
L 258.619532 268.184731 
L 258.888508 178.387308 
L 259.022996 179.263228 
L 259.157484 170.139423 
L 259.291973 169.559325 
L 259.426461 153.953424 
L 259.695437 167.760827 
L 259.829925 156.542222 
L 259.964414 165.686229 
L 260.771343 262.367392 
L 261.040319 264.623331 
L 261.309296 272.180966 
L 261.443784 275.42009 
L 261.71276 272.48304 
L 261.847249 259.995049 
L 262.116225 171.147621 
L 262.250713 175.347323 
L 262.654178 148.711373 
L 262.788666 156.068907 
L 262.923154 151.26169 
L 263.326619 186.684737 
L 263.461107 197.667647 
L 263.864572 246.82306 
L 264.268036 265.006696 
L 264.402525 264.243332 
L 264.671501 267.699873 
L 264.805989 267.572886 
L 264.940478 266.614714 
L 265.074966 258.987813 
L 265.209454 239.722866 
L 265.612919 124.539158 
L 265.881895 106.286257 
L 266.016383 115.861731 
L 266.150871 115.729934 
L 266.28536 115.278265 
L 266.419848 119.945509 
L 266.688824 157.509053 
L 266.957801 236.932525 
L 267.226777 253.727483 
L 267.361265 252.294072 
L 267.495754 268.789361 
L 267.630242 268.470933 
L 267.76473 270.354569 
L 267.899218 270.668188 
L 268.168195 277.239752 
L 268.302683 278.131545 
L 268.437171 275.549962 
L 268.706147 278.106052 
L 268.975124 274.584094 
L 269.2441 272.684584 
L 269.916541 258.078222 
L 270.320006 259.982542 
L 270.588982 264.907608 
L 270.723471 279.115692 
L 270.857959 280.163814 
L 270.992447 278.674125 
L 271.126935 279.564475 
L 271.261424 279.594298 
L 271.395912 279.406704 
L 271.799376 282.206184 
L 271.933865 280.809811 
L 272.068353 281.167683 
L 272.202841 280.517838 
L 272.337329 280.755938 
L 272.471817 279.905992 
L 272.606306 277.723167 
L 272.740794 279.016123 
L 272.875282 278.69096 
L 273.00977 278.008406 
L 273.144258 275.655304 
L 273.278747 275.554773 
L 273.547723 278.557239 
L 273.682211 278.773213 
L 273.8167 279.462501 
L 273.951188 278.593796 
L 274.085676 289.331391 
L 274.354652 290.977408 
L 274.489141 289.392479 
L 274.758117 274.549461 
L 275.29607 167.138399 
L 275.565046 154.795673 
L 275.699535 155.135747 
L 275.834023 173.245307 
L 275.968511 175.546942 
L 276.102999 185.791501 
L 276.77544 265.797958 
L 277.447881 283.350508 
L 277.58237 286.776745 
L 277.716858 286.382316 
L 277.851346 281.945476 
L 277.985834 271.874562 
L 278.389299 210.83675 
L 278.523787 191.18026 
L 278.658275 189.164346 
L 278.792763 179.565303 
L 278.927252 191.802207 
L 279.06174 185.930513 
L 279.196228 188.039744 
L 279.330716 195.803251 
L 280.137646 276.262339 
L 280.272134 278.669796 
L 280.406622 270.239608 
L 280.54111 269.952926 
L 280.810087 271.134287 
L 280.944575 270.505607 
L 281.213551 262.516505 
L 281.348039 233.310036 
L 281.482528 162.219106 
L 281.617016 151.919712 
L 281.751504 128.312203 
L 281.885992 129.474324 
L 282.154969 143.104716 
L 282.289457 124.826321 
L 282.423945 128.950985 
L 282.558433 138.142613 
L 282.82741 187.021926 
L 283.096386 256.192181 
L 283.365363 262.881592 
L 283.499851 265.10867 
L 283.634339 264.431407 
L 283.768827 264.44199 
L 283.903316 264.632951 
L 284.037804 265.949476 
L 284.172292 266.07983 
L 284.441268 260.839703 
L 285.113709 144.526582 
L 285.248198 143.440942 
L 285.382686 138.863166 
L 285.517174 148.188033 
L 285.651662 145.059061 
L 285.78615 148.579576 
L 286.055127 202.187221 
L 286.324103 252.208934 
L 286.59308 261.973925 
L 286.727568 261.851268 
L 286.862056 280.959405 
L 286.996544 281.01905 
L 287.131033 280.032498 
L 287.265521 280.643381 
L 287.668985 277.085348 
L 287.803474 277.970407 
L 288.07245 277.087753 
L 288.206938 274.897231 
L 288.341427 274.841434 
L 288.475915 272.474382 
L 288.610403 272.100156 
L 288.744891 270.966414 
L 288.879379 273.819287 
L 289.013868 274.161766 
L 289.148356 271.326691 
L 289.417332 278.543771 
L 289.55182 279.741006 
L 289.820797 279.3764 
L 289.955285 280.173434 
L 290.089773 278.661138 
L 290.224262 280.221535 
L 290.35875 279.306654 
L 290.493238 280.29513 
L 290.627726 278.740023 
L 291.031191 260.606413 
L 291.300167 193.848425 
L 291.434655 188.215793 
L 291.569144 188.828601 
L 291.703632 192.926809 
L 291.972608 180.071807 
L 292.376073 193.264478 
L 293.048514 270.318012 
L 293.183002 271.575374 
L 293.31749 270.413734 
L 293.451979 271.171806 
L 293.586467 270.234317 
L 293.720955 272.730761 
L 293.855443 272.996278 
L 294.258908 248.869279 
L 294.527884 190.381302 
L 294.796861 158.426339 
L 294.931349 142.420719 
L 295.065837 142.285555 
L 295.200325 150.326124 
L 295.334814 144.556886 
L 295.60379 172.855689 
L 295.738278 187.470708 
L 296.141743 258.277361 
L 296.276231 257.379795 
L 296.410719 264.640166 
L 296.545208 282.469778 
L 296.948672 284.651641 
L 297.486625 286.633404 
L 297.621113 286.285152 
L 297.755601 286.281304 
L 298.024578 283.082585 
L 298.159066 282.931067 
L 298.428042 280.772292 
L 298.697019 276.916513 
L 298.831507 275.772189 
L 298.965995 275.628848 
L 299.100484 275.987201 
L 299.36946 279.801132 
L 299.503948 279.29078 
L 299.638436 280.845887 
L 299.772925 271.112642 
L 299.907413 274.540803 
L 300.041901 274.236804 
L 300.176389 275.109838 
L 300.310877 274.824118 
L 300.579854 263.770018 
L 301.252295 128.646506 
L 301.386783 128.715771 
L 301.521271 142.008493 
L 301.65576 135.01364 
L 301.790248 144.500127 
L 302.597177 254.129608 
L 302.731665 255.895878 
L 303.000642 268.3983 
L 303.13513 268.624375 
L 303.269618 269.108271 
L 303.404106 271.586437 
L 303.538595 272.008764 
L 303.807571 255.5255 
L 304.345524 165.064283 
L 304.6145 154.461371 
L 304.748988 162.761686 
L 304.883477 153.115504 
L 305.017965 159.242133 
L 306.093871 266.837902 
L 306.228359 267.856201 
L 306.497335 278.088735 
L 306.766312 279.126275 
L 306.9008 274.382069 
L 307.035288 263.762803 
L 307.304265 170.583877 
L 307.438753 177.900526 
L 307.842217 158.492719 
L 307.976706 165.597242 
L 308.111194 157.114624 
L 308.245682 162.114727 
L 308.649147 208.465368 
L 309.052611 265.257783 
L 309.590564 277.581269 
L 309.994029 279.297514 
L 310.128517 275.717354 
L 310.263005 263.005693 
L 310.531982 170.471801 
L 310.66647 171.631998 
L 310.935446 169.325554 
L 311.069934 159.903522 
L 311.204423 166.407745 
L 311.338911 165.107093 
L 311.473399 158.282036 
L 311.607887 171.517999 
L 311.876864 209.379288 
L 312.14584 252.027112 
L 312.414817 263.922017 
L 312.818281 272.598002 
L 312.952769 272.160763 
L 313.087258 274.060754 
L 313.221746 273.961185 
L 313.356234 275.549962 
L 313.625211 264.913861 
L 313.759699 256.962759 
L 313.894187 260.340895 
L 314.028675 257.792983 
L 314.163163 259.690569 
L 314.297652 256.909367 
L 314.566628 263.522298 
L 314.701116 264.262573 
L 314.970093 269.051993 
L 315.104581 269.013993 
L 315.239069 268.715286 
L 315.508045 271.670133 
L 315.642534 272.211269 
L 315.777022 271.87841 
L 316.180487 274.890978 
L 316.314975 274.447968 
L 316.718439 276.820311 
L 316.852928 277.071398 
L 316.987416 276.211352 
L 317.121904 276.27725 
L 317.256392 275.1488 
L 317.39088 275.294546 
L 317.525369 273.743768 
L 317.659857 274.670194 
L 317.928833 272.131422 
L 318.332298 268.366072 
L 318.466786 269.025538 
L 318.601274 268.519034 
L 318.735763 269.986596 
L 318.870251 269.82161 
L 319.139227 270.946693 
L 319.273715 280.858874 
L 319.67718 281.985881 
L 319.811668 279.386982 
L 319.946157 271.370944 
L 320.349621 148.429982 
L 320.484109 132.153071 
L 320.887574 159.644258 
L 321.022062 164.347096 
L 321.291039 179.24495 
L 321.425527 181.059321 
L 321.560015 199.643638 
L 321.828991 255.604867 
L 321.96348 263.755588 
L 322.097968 264.548293 
L 322.635921 281.378846 
L 322.770409 281.728541 
L 322.904897 281.064265 
L 323.173874 270.550822 
L 323.44285 174.338644 
L 323.577338 174.70325 
L 323.711826 174.906236 
L 323.980803 154.571522 
L 324.249779 158.138214 
L 324.384268 160.92615 
L 324.787732 197.452636 
L 325.056709 252.401819 
L 325.325685 261.745926 
L 325.863638 279.707335 
L 325.998126 281.488517 
L 326.132614 281.554415 
L 326.267103 278.316253 
L 326.401591 269.246802 
L 326.670567 167.091741 
L 326.805055 173.093789 
L 326.939544 174.27515 
L 327.20852 160.945391 
L 327.343008 169.15239 
L 327.611985 165.369243 
L 327.746473 170.266891 
L 328.149937 225.389719 
L 328.418914 256.475496 
L 328.68789 269.386295 
L 328.822379 271.858689 
L 328.956867 281.983476 
L 329.225843 282.937801 
L 329.360331 282.084007 
L 329.629308 269.151562 
L 330.032772 179.442164 
L 330.301749 168.0148 
L 330.570725 159.137754 
L 330.839702 181.161776 
L 330.97419 182.383542 
L 331.108678 185.150314 
L 331.781119 261.625674 
L 332.050096 268.844678 
L 332.184584 279.703006 
L 332.319072 280.66647 
L 332.45356 279.996422 
L 332.588049 280.991633 
L 332.857025 268.285744 
L 333.26049 178.805787 
L 333.394978 180.73031 
L 333.663954 165.703545 
L 333.798442 166.905109 
L 333.932931 170.701243 
L 334.336395 188.704019 
L 334.73986 256.964202 
L 335.143325 272.814456 
L 335.277813 272.614356 
L 335.412301 272.712482 
L 335.546789 273.000126 
L 335.681277 272.894304 
L 335.950254 275.496089 
L 336.084742 273.385416 
L 336.622695 256.795368 
L 336.757183 257.59625 
L 336.891671 255.753018 
L 337.295136 262.159595 
L 337.698601 266.928332 
L 337.833089 266.445398 
L 338.102065 270.576315 
L 338.236553 270.342544 
L 338.371042 270.984693 
L 338.50553 268.63159 
L 339.043483 271.814436 
L 339.446947 274.833257 
L 339.581436 274.347917 
L 339.715924 273.169923 
L 339.850412 273.431112 
L 339.9849 272.645141 
L 340.119388 272.531622 
L 340.253877 272.05446 
L 340.388365 273.542706 
L 340.522853 271.538817 
L 340.657341 272.142004 
L 340.926318 271.82117 
L 341.060806 268.457464 
L 341.329782 273.376276 
L 341.464271 273.273821 
L 341.598759 273.8063 
L 341.733247 275.384495 
L 341.867735 283.265369 
L 342.136712 283.367824 
L 342.2712 284.014302 
L 342.540176 271.223274 
L 342.943641 155.182405 
L 343.212617 171.916276 
L 343.347106 171.176482 
L 343.75057 185.669324 
L 343.885058 187.356709 
L 344.019547 186.689066 
L 344.423011 255.084414 
L 345.22994 280.970949 
L 345.364429 282.062843 
L 345.498917 281.692465 
L 345.633405 277.444181 
L 345.767893 269.299232 
L 346.03687 184.414849 
L 346.171358 188.563564 
L 346.440334 174.897097 
L 346.574823 169.48573 
L 346.843799 176.415647 
L 347.112775 178.298321 
L 347.381752 213.035929 
L 347.650728 252.237794 
L 348.054193 270.333405 
L 348.188681 271.524387 
L 348.323169 280.560167 
L 348.457658 281.414441 
L 348.592146 283.29904 
L 348.726634 283.102306 
L 348.99561 270.099634 
L 349.264587 183.356626 
L 349.399075 184.841505 
L 349.668052 167.153311 
L 349.80254 163.010849 
L 350.206004 181.845292 
L 350.340493 183.033868 
L 351.012934 263.808018 
L 351.147422 266.145728 
L 351.550886 282.932029 
L 351.685375 282.214842 
L 351.954351 282.584258 
L 352.088839 281.176822 
L 352.223328 273.834679 
L 352.492304 179.24976 
L 352.626792 186.466359 
L 352.76128 175.014944 
L 352.895769 174.301125 
L 353.030257 165.963291 
L 353.164745 173.226067 
L 353.299233 171.134153 
L 353.56821 153.231427 
L 354.240651 270.475784 
L 354.375139 271.621551 
L 354.644115 277.525953 
L 354.913092 281.830515 
L 355.182068 282.88008 
L 355.316556 280.460597 
L 355.451045 271.267527 
L 355.854509 197.443497 
L 356.123486 158.836641 
L 356.257974 160.562506 
L 356.392462 169.233681 
L 356.52695 168.595861 
L 356.661439 179.277177 
L 356.795927 178.01693 
L 357.33388 266.135146 
L 357.602856 275.800088 
L 357.737344 277.778484 
L 357.871832 282.063805 
L 358.006321 281.481301 
L 358.140809 281.697275 
L 358.275297 282.44236 
L 358.409785 282.353854 
L 358.678762 281.08543 
L 359.082226 262.487163 
L 359.351203 256.539951 
L 359.485691 250.224285 
L 359.620179 261.03355 
L 359.754667 262.457822 
L 359.889156 262.627137 
L 360.427109 277.017044 
L 360.561597 277.701522 
L 360.965061 281.878135 
L 361.234038 281.838211 
L 361.368526 281.645326 
L 361.503014 282.959927 
L 361.771991 282.549626 
L 361.906479 283.88972 
L 362.040967 283.841619 
L 362.175455 284.219694 
L 362.309944 284.260579 
L 362.57892 280.82376 
L 362.713408 280.774216 
L 362.982385 279.631336 
L 363.116873 278.128178 
L 363.251361 278.025723 
L 363.385849 279.124351 
L 363.520337 278.264304 
L 363.654826 278.204178 
L 364.05829 281.010392 
L 364.192778 254.815529 
L 364.730731 261.118208 
L 364.86522 259.914239 
L 364.999708 247.744676 
L 365.134196 225.431086 
L 365.403172 136.455228 
L 365.672149 105.937524 
L 365.806637 99.972515 
L 366.075613 117.042611 
L 366.34459 113.875158 
L 366.479078 125.391508 
L 367.017031 252.714476 
L 367.151519 257.71073 
L 367.286007 255.962739 
L 367.554984 267.407419 
L 367.689472 268.280453 
L 367.958448 273.216581 
L 368.227425 249.480162 
L 368.496401 152.811505 
L 368.765378 100.544436 
L 369.034354 89.561526 
L 369.168842 94.318719 
L 369.303331 93.870898 
L 369.437819 97.264907 
L 369.572307 95.126816 
L 369.706795 111.356587 
L 370.244748 236.124908 
L 370.782701 280.675128 
L 370.917189 280.982494 
L 371.051677 281.881021 
L 371.186166 281.600111 
L 371.455142 266.665701 
L 371.858607 172.677715 
L 372.127583 204.910221 
L 372.262071 200.818265 
L 372.396559 202.256005 
L 372.665536 191.485702 
L 372.800024 195.309734 
L 373.203489 235.324026 
L 373.472465 257.75354 
L 373.87593 279.110882 
L 374.010418 288.199573 
L 374.144906 288.052384 
L 374.279394 289.268379 
L 374.413883 288.761394 
L 374.682859 272.071776 
L 375.220812 181.975165 
L 375.489788 178.317562 
L 375.624277 178.542194 
L 375.893253 185.128669 
L 376.027741 189.458243 
L 376.565694 257.569313 
L 376.83467 266.529094 
L 376.969159 269.387738 
L 377.103647 281.292264 
L 377.238135 280.190751 
L 377.507112 282.279779 
L 377.6416 280.298497 
L 377.776088 283.86567 
L 378.045064 281.701604 
L 378.179553 271.984713 
L 378.314041 271.354109 
L 378.448529 264.197636 
L 378.583017 265.206315 
L 378.717505 264.281813 
L 378.851994 268.828804 
L 378.986482 268.062555 
L 379.12097 268.977918 
L 379.255458 271.15449 
L 379.389947 271.037123 
L 379.927899 280.364876 
L 380.062388 280.156599 
L 380.196876 280.576521 
L 380.331364 270.58834 
L 380.465852 271.271856 
L 380.869317 274.199285 
L 381.138293 263.215894 
L 381.272782 235.903163 
L 381.541758 160.708734 
L 381.810734 140.383159 
L 381.945223 141.987329 
L 382.214199 148.526665 
L 382.348687 140.472146 
L 382.752152 190.733402 
L 383.021128 259.287482 
L 383.155616 267.279951 
L 383.290105 267.947593 
L 383.424593 269.245359 
L 383.559081 264.276522 
L 383.693569 263.558855 
L 383.962546 263.908068 
L 384.097034 265.108189 
L 384.231522 263.309691 
L 384.36601 264.71328 
L 385.038451 149.597875 
L 385.17294 152.061129 
L 385.307428 167.320221 
L 385.576404 161.629868 
L 386.248845 262.156709 
L 386.921286 280.80933 
L 387.055775 279.987764 
L 387.190263 281.27591 
L 387.324751 280.579407 
L 387.459239 280.741988 
L 387.593727 282.243703 
L 387.728216 281.664566 
L 387.862704 282.992636 
L 387.997192 281.81368 
L 388.13168 283.417368 
L 388.266169 282.425044 
L 388.400657 280.423079 
L 388.535145 280.513028 
L 388.669633 279.844904 
L 388.804121 280.993557 
L 388.93861 278.421113 
L 389.207586 280.579407 
L 389.476562 287.325578 
L 389.611051 286.258216 
L 389.745539 287.081705 
L 389.880027 287.029275 
L 390.014515 271.998182 
L 390.149004 272.237244 
L 390.41798 272.25937 
L 390.552468 272.127574 
L 390.686956 266.581043 
L 390.821445 266.767675 
L 390.955933 257.837717 
L 391.224909 201.184314 
L 391.359397 169.530464 
L 391.493886 165.505369 
L 391.762862 176.29347 
L 391.89735 175.745118 
L 392.031839 168.457811 
L 392.166327 172.18997 
L 392.300815 181.24932 
L 392.569791 241.939362 
L 392.70428 268.46035 
L 392.973256 273.345973 
L 393.107744 274.009286 
L 393.376721 266.890332 
L 393.645697 272.65909 
L 393.780185 269.238144 
L 393.914673 270.634998 
L 394.049162 263.156249 
L 394.721603 147.529049 
L 394.990579 146.447738 
L 395.125067 146.023968 
L 395.259556 157.510015 
L 395.394044 158.387859 
L 395.931997 247.316096 
L 396.200973 261.047499 
L 396.335461 257.27734 
L 396.46995 282.27112 
L 396.604438 282.657853 
L 397.007902 285.719965 
L 397.276879 272.546534 
L 397.545855 198.178961 
L 397.680343 192.945087 
L 397.94932 169.358743 
L 398.083808 155.771643 
L 398.218296 168.629051 
L 398.352785 163.819909 
L 398.487273 166.859413 
L 398.487273 166.859413 
" clip-path="url(#p05bb2a997c)" style="fill: none; stroke: #1f77b4; stroke-width: 1.5; stroke-linecap: square"/>
   </g>
   <g id="line2d_13">
    <path d="M 73.832727 281.134571 
L 74.101704 280.83606 
L 74.236192 280.404785 
L 74.37068 278.99924 
L 74.505168 279.064671 
L 74.639657 276.655556 
L 74.774145 278.282313 
L 74.908633 268.800346 
L 75.043121 269.980413 
L 75.177609 255.436784 
L 75.312098 176.939585 
L 75.446586 236.365213 
L 75.715562 246.151809 
L 75.85005 246.949925 
L 76.119027 259.635574 
L 76.253515 260.786511 
L 76.388003 260.371157 
L 76.522492 259.154494 
L 76.65698 259.45073 
L 76.791468 289.11581 
L 77.194933 275.585502 
L 77.329421 275.130535 
L 77.463909 258.878708 
L 77.598397 268.516013 
L 77.732885 268.660255 
L 77.867374 268.345929 
L 78.001862 270.014155 
L 78.13635 246.665885 
L 78.539815 108.438552 
L 78.674303 104.294312 
L 79.077768 131.031981 
L 79.212256 160.100208 
L 79.346744 164.011137 
L 80.019185 264.512653 
L 80.153673 254.050503 
L 80.42265 273.873466 
L 80.691626 256.722698 
L 80.826114 271.050197 
L 80.960603 263.219051 
L 81.095091 262.238264 
L 81.229579 256.847447 
L 81.364067 244.744086 
L 81.498555 218.353951 
L 81.767532 133.82059 
L 81.90202 173.079798 
L 82.036508 179.611104 
L 82.170996 223.741493 
L 82.305485 218.047921 
L 82.439973 231.250656 
L 82.708949 194.073008 
L 82.843438 230.185747 
L 82.977926 223.670832 
L 83.112414 234.372488 
L 83.246902 223.14894 
L 83.38139 222.918651 
L 83.650367 255.710525 
L 83.784855 245.225171 
L 84.053831 281.689169 
L 84.18832 277.170879 
L 84.322808 222.915847 
L 84.457296 234.915367 
L 84.591784 222.915847 
L 84.860761 222.915847 
L 84.995249 224.328743 
L 85.129737 162.047681 
L 85.264225 166.177006 
L 85.398714 181.072706 
L 85.533202 165.89525 
L 85.802178 230.550762 
L 86.340131 261.011832 
L 86.474619 270.064814 
L 86.609107 265.803826 
L 86.743596 274.2779 
L 86.878084 268.208311 
L 87.012572 272.370315 
L 87.281549 289.934137 
L 87.416037 288.655523 
L 87.550525 285.018071 
L 87.685013 287.223659 
L 87.95399 277.657997 
L 88.222966 218.972786 
L 88.357454 251.882571 
L 88.491942 235.461353 
L 88.626431 252.162215 
L 88.895407 247.355255 
L 89.029895 266.196632 
L 89.164384 254.7826 
L 89.298872 265.665186 
L 89.43336 263.73726 
L 89.567848 266.781738 
L 89.702336 284.727049 
L 90.105801 273.862267 
L 90.240289 276.408572 
L 90.374777 247.870879 
L 90.509266 258.221287 
L 90.91273 262.072298 
L 91.181707 238.716034 
L 91.316195 245.50653 
L 91.450683 230.120458 
L 91.585171 249.846462 
L 91.71966 232.69974 
L 91.854148 255.840806 
L 91.988636 245.309621 
L 92.392101 263.580206 
L 92.526589 265.114828 
L 92.661077 262.593602 
L 92.930053 269.257676 
L 93.19903 272.037153 
L 93.333518 272.153351 
L 93.468006 268.527702 
L 93.602495 280.414687 
L 93.736983 275.279367 
L 93.871471 274.586889 
L 94.140447 271.087811 
L 94.409424 250.762585 
L 94.6784 164.517712 
L 94.812888 184.632025 
L 95.081865 152.520973 
L 95.216353 151.350612 
L 95.48533 218.145407 
L 95.619818 211.39234 
L 95.754306 196.62257 
L 96.157771 268.237098 
L 96.292259 276.995883 
L 96.561235 272.022177 
L 96.830212 274.847684 
L 96.9647 272.109272 
L 97.233676 275.393502 
L 97.502653 254.218305 
L 97.771629 203.824645 
L 97.906117 149.611294 
L 98.040606 184.660447 
L 98.175094 171.496487 
L 98.309582 184.794872 
L 98.44407 178.779163 
L 98.847535 224.479196 
L 99.250999 253.734232 
L 99.519976 275.377395 
L 99.654464 274.731737 
L 99.788952 276.6077 
L 99.923441 274.69123 
L 100.057929 286.666424 
L 100.326905 276.914414 
L 100.461393 276.922734 
L 100.595882 278.466054 
L 100.864858 263.408346 
L 100.999346 280.297445 
L 101.133834 282.573862 
L 101.268323 276.366121 
L 101.402811 279.992779 
L 101.537299 272.575737 
L 101.671787 272.920914 
L 101.806276 264.475855 
L 101.940764 278.114675 
L 102.075252 266.708069 
L 102.20974 266.286197 
L 102.344228 272.36793 
L 102.478717 270.413127 
L 102.613205 270.827899 
L 102.747693 274.013839 
L 102.882181 280.249494 
L 103.016669 271.636795 
L 103.151158 282.666501 
L 103.285646 254.625991 
L 103.554622 275.818551 
L 103.823599 267.387498 
L 104.092575 243.74078 
L 104.361552 133.227758 
L 104.49604 165.193454 
L 104.630528 151.623054 
L 104.765016 167.219001 
L 104.899504 153.733144 
L 105.033993 165.154715 
L 105.168481 210.810873 
L 105.571945 229.419426 
L 105.840922 258.841331 
L 105.97541 275.599689 
L 106.244387 261.994627 
L 106.513363 287.040547 
L 106.782339 274.224188 
L 106.916828 271.781337 
L 107.051316 273.540117 
L 107.185804 265.065663 
L 107.320292 267.622306 
L 107.589269 198.241487 
L 107.858245 271.93263 
L 107.992733 254.259347 
L 108.127222 253.90244 
L 108.26171 253.073857 
L 108.396198 261.09071 
L 108.530686 261.118634 
L 108.665174 259.90288 
L 108.799663 257.199689 
L 108.934151 262.168083 
L 109.203127 287.341641 
L 109.74108 260.609282 
L 109.875568 264.280681 
L 110.010056 264.51029 
L 110.279033 263.630506 
L 110.548009 253.326741 
L 110.951474 279.810344 
L 111.22045 268.84963 
L 111.354939 268.883315 
L 111.623915 272.788325 
L 112.02738 267.331408 
L 112.296356 273.755442 
L 112.430844 273.638728 
L 112.565333 272.52174 
L 112.834309 268.842388 
L 112.968797 252.50226 
L 113.103285 261.164351 
L 113.237774 261.613384 
L 113.372262 260.603259 
L 113.50675 262.243506 
L 113.641238 251.270283 
L 113.775726 254.758117 
L 114.044703 275.634284 
L 114.179191 267.983465 
L 114.313679 268.609416 
L 114.582656 247.370826 
L 114.851632 264.994383 
L 114.98612 264.820085 
L 115.255097 254.887451 
L 115.658561 268.381087 
L 115.79305 267.89875 
L 115.927538 267.398654 
L 116.465491 258.55647 
L 116.599979 261.540247 
L 116.868955 253.529145 
L 117.003444 226.560016 
L 117.137932 119.099854 
L 117.27242 113.018676 
L 117.406908 99.522576 
L 117.541396 103.927202 
L 117.675885 95.491806 
L 117.810373 111.602545 
L 118.079349 157.501074 
L 118.213837 152.495975 
L 118.482814 177.782073 
L 118.75179 256.170083 
L 118.886279 251.60939 
L 119.155255 264.478728 
L 119.289743 257.179648 
L 119.424231 258.303579 
L 119.55872 261.796904 
L 119.693208 258.802061 
L 119.827696 259.472793 
L 119.962184 261.974885 
L 120.096672 251.405271 
L 120.231161 209.987044 
L 120.500137 100.844062 
L 120.769114 97.211237 
L 120.903602 97.274463 
L 121.03809 101.092112 
L 121.172578 128.296072 
L 121.441555 134.984696 
L 121.845019 219.859645 
L 121.979507 257.505957 
L 122.113996 248.491558 
L 122.248484 264.575566 
L 122.382972 254.774567 
L 122.51746 255.009317 
L 122.651948 257.942898 
L 122.786437 267.366915 
L 123.055413 256.318645 
L 123.189901 257.84485 
L 123.32439 252.927987 
L 123.458878 228.339452 
L 123.727854 91.588855 
L 123.862342 64.293954 
L 123.996831 72.448152 
L 124.669272 154.70708 
L 124.80376 152.416065 
L 124.938248 167.697105 
L 125.207225 263.63473 
L 125.341713 261.635859 
L 125.476201 268.656747 
L 125.745177 258.090755 
L 125.879666 256.35909 
L 126.014154 272.471286 
L 126.28313 267.410944 
L 126.417618 266.6819 
L 126.686595 220.086395 
L 126.821083 115.747847 
L 126.955571 115.890056 
L 127.09006 114.139333 
L 127.224548 121.710875 
L 127.359036 113.140669 
L 127.493524 119.547572 
L 127.896989 162.446812 
L 128.165965 189.309377 
L 128.434942 256.264239 
L 128.56943 250.597724 
L 128.703918 264.124485 
L 128.838406 262.15952 
L 128.972894 256.100257 
L 129.107383 267.466837 
L 129.241871 262.817366 
L 129.376359 264.127568 
L 129.510847 267.422102 
L 129.645336 265.888662 
L 129.914312 209.16593 
L 130.183288 109.699076 
L 130.317777 102.383522 
L 130.721241 132.574139 
L 130.855729 176.905433 
L 130.990218 174.677529 
L 131.124706 159.859716 
L 131.259194 171.104429 
L 131.528171 248.742458 
L 131.662659 259.259349 
L 131.797147 260.194543 
L 131.931635 271.578106 
L 132.469588 256.222717 
L 132.738564 270.628709 
L 133.142029 255.657221 
L 133.276517 207.219613 
L 133.948958 240.658369 
L 134.083447 241.296903 
L 134.217935 251.631854 
L 134.352423 248.434668 
L 134.621399 257.259113 
L 134.755888 256.992225 
L 134.890376 258.835781 
L 135.024864 262.668683 
L 135.29384 259.769637 
L 135.697305 265.817267 
L 135.831793 266.287354 
L 136.10077 269.309875 
L 136.235258 266.623668 
L 136.504234 247.85634 
L 136.638723 260.205271 
L 136.773211 260.239957 
L 136.907699 243.632072 
L 137.042187 252.516539 
L 137.311164 248.507256 
L 137.445652 255.367475 
L 137.58014 254.313814 
L 137.849117 259.050077 
L 137.983605 253.818248 
L 138.252581 263.333899 
L 138.387069 262.633505 
L 138.521558 259.147553 
L 138.790534 267.49649 
L 138.925022 261.248185 
L 139.05951 262.06143 
L 139.193999 266.735918 
L 139.328487 266.623502 
L 139.597463 211.748524 
L 139.731951 116.074436 
L 140.000928 106.788267 
L 140.135416 111.617007 
L 140.269904 104.180396 
L 140.538881 133.25996 
L 140.942345 182.670999 
L 141.076834 190.637087 
L 141.211322 212.139626 
L 141.34581 263.107475 
L 141.480298 247.551473 
L 141.749275 272.452163 
L 141.883763 264.200874 
L 142.018251 264.930852 
L 142.152739 269.729948 
L 142.287228 267.309647 
L 142.421716 268.290267 
L 142.556204 267.936917 
L 142.82518 215.566377 
L 143.094157 98.572209 
L 143.228645 82.503811 
L 143.497621 108.288588 
L 143.63211 116.435349 
L 143.766598 149.694787 
L 143.901086 138.230777 
L 144.035574 146.864445 
L 144.170063 189.30838 
L 144.304551 186.492363 
L 144.573527 255.619974 
L 144.708015 248.321739 
L 144.842504 269.598224 
L 144.976992 272.586609 
L 145.245968 264.048891 
L 145.380456 264.052974 
L 145.649433 269.211289 
L 145.783921 260.834514 
L 146.456362 96.619674 
L 146.59085 109.496262 
L 146.859827 152.911138 
L 146.994315 172.673177 
L 147.128803 168.468307 
L 147.263291 178.074656 
L 147.39778 168.770663 
L 147.532268 195.523154 
L 147.666756 254.910703 
L 147.801244 259.01793 
L 147.935732 259.105232 
L 148.204709 272.025506 
L 148.339197 263.913716 
L 148.473685 267.473728 
L 148.608174 266.90895 
L 148.742662 265.762491 
L 148.87715 266.237195 
L 149.011638 264.811518 
L 149.146126 259.876949 
L 149.549591 108.022608 
L 149.684079 103.526257 
L 149.818567 131.612945 
L 149.953056 122.068545 
L 150.087544 127.300462 
L 150.222032 148.21416 
L 150.491009 214.844158 
L 150.625497 190.249306 
L 150.759985 199.736952 
L 151.028961 259.529741 
L 151.16345 255.986257 
L 151.297938 273.089866 
L 151.432426 271.928702 
L 151.566914 263.057182 
L 151.970379 268.759413 
L 152.104867 268.37711 
L 152.239355 269.834116 
L 152.373843 255.731354 
L 152.64282 114.736538 
L 152.911796 101.407165 
L 153.046285 112.536044 
L 153.180773 107.455299 
L 153.315261 108.26644 
L 153.718726 244.579087 
L 153.853214 227.253259 
L 154.256678 266.82989 
L 154.391167 269.449597 
L 154.525655 278.977071 
L 154.660143 270.74713 
L 154.794631 271.142051 
L 154.92912 270.203879 
L 155.063608 271.48507 
L 155.198096 271.489048 
L 155.332584 272.312212 
L 155.467072 274.072734 
L 155.736049 260.272657 
L 155.870537 252.722327 
L 156.005025 228.009472 
L 156.139513 246.442911 
L 156.274002 238.692079 
L 156.40849 249.830881 
L 156.542978 244.08558 
L 156.677466 248.511542 
L 156.946443 267.009604 
L 157.080931 264.296258 
L 157.349907 264.614078 
L 157.618884 269.427068 
L 157.753372 269.925135 
L 157.88786 266.826975 
L 158.291325 272.28602 
L 158.425813 272.079209 
L 158.694789 274.159521 
L 158.963766 264.316933 
L 159.098254 265.594943 
L 159.232742 273.3576 
L 159.501719 264.073636 
L 159.770695 267.98371 
L 159.905183 263.626521 
L 160.039672 264.546294 
L 160.17416 260.645418 
L 160.308648 264.445577 
L 160.443136 259.210658 
L 160.577624 263.390298 
L 160.712113 263.872228 
L 160.846601 272.216315 
L 161.115577 263.170365 
L 161.519042 270.29625 
L 161.788018 268.985901 
L 161.922507 269.791542 
L 162.325971 162.406647 
L 162.594948 89.253444 
L 162.729436 95.123017 
L 162.998412 133.926003 
L 163.132901 141.451482 
L 163.267389 172.719092 
L 163.401877 166.898345 
L 163.536365 177.763232 
L 163.805342 230.828542 
L 163.93983 263.693774 
L 164.074318 249.936955 
L 164.343294 269.268524 
L 164.612271 257.617151 
L 164.746759 273.504587 
L 164.881247 266.751404 
L 165.015735 269.922244 
L 165.150224 259.027385 
L 165.4192 210.269199 
L 165.688177 98.534432 
L 165.822665 91.297501 
L 165.957153 123.835951 
L 166.091641 119.164427 
L 166.226129 125.333355 
L 166.360618 161.354399 
L 166.764082 145.695312 
L 166.89857 162.503614 
L 167.167547 264.965588 
L 167.302035 254.699759 
L 167.436523 255.36292 
L 167.571012 266.898095 
L 167.7055 260.946276 
L 168.108964 267.10113 
L 168.243453 265.903539 
L 168.377941 266.05048 
L 168.646917 212.752283 
L 168.781405 166.445835 
L 168.915894 81.419554 
L 169.050382 71.15534 
L 169.319358 127.036881 
L 169.453847 133.432698 
L 169.588335 152.549263 
L 169.722823 133.725505 
L 169.857311 149.177388 
L 170.126288 207.509761 
L 170.260776 224.894607 
L 170.395264 268.886929 
L 170.529752 256.0354 
L 170.66424 273.836323 
L 170.933217 262.748709 
L 171.067705 265.459999 
L 171.202193 262.910549 
L 171.47117 264.348157 
L 171.605658 267.109211 
L 172.009123 137.365673 
L 172.278099 81.273801 
L 172.547075 131.43439 
L 172.816052 141.743218 
L 173.085028 179.946475 
L 173.219516 193.964589 
L 173.354005 195.053638 
L 173.622981 266.65968 
L 173.757469 257.002427 
L 173.891958 271.606056 
L 174.160934 269.780939 
L 174.295422 286.16988 
L 174.42991 274.860716 
L 174.564399 274.087982 
L 174.698887 276.313869 
L 174.833375 276.521541 
L 175.23684 191.738169 
L 175.371328 125.854337 
L 175.505816 147.587201 
L 175.640304 138.007695 
L 175.909281 143.766785 
L 176.178257 200.527689 
L 176.447234 218.404165 
L 176.581722 213.455464 
L 176.850698 265.564913 
L 176.985186 254.248458 
L 177.119675 273.448342 
L 177.254163 274.248267 
L 177.388651 263.577702 
L 177.657627 269.677633 
L 177.792116 267.815422 
L 178.061092 274.62801 
L 178.19558 267.779051 
L 178.330069 269.941365 
L 178.464557 247.996881 
L 178.599045 247.36333 
L 178.733533 261.583447 
L 178.868021 243.853572 
L 179.00251 251.70449 
L 179.136998 251.539459 
L 179.674951 261.377376 
L 179.809439 256.956128 
L 179.943927 257.154084 
L 180.347392 273.606491 
L 180.48188 265.272287 
L 180.616368 264.535888 
L 180.750856 278.002266 
L 181.019833 272.680201 
L 181.288809 271.668831 
L 181.557786 256.513095 
L 181.692274 262.855753 
L 181.826762 259.216789 
L 181.96125 267.026271 
L 182.095738 261.832949 
L 182.230227 269.288573 
L 182.364715 250.108793 
L 182.633691 269.619057 
L 182.76818 272.813044 
L 182.902668 272.260833 
L 183.037156 275.841993 
L 183.306132 270.609573 
L 183.440621 278.077014 
L 183.709597 276.617037 
L 183.978573 268.327992 
L 184.113062 282.944578 
L 184.382038 278.536054 
L 184.516526 269.684615 
L 184.651015 245.541403 
L 184.785503 245.267343 
L 185.054479 157.238788 
L 185.188967 183.624785 
L 185.323456 170.528547 
L 185.457944 183.748805 
L 185.592432 174.137044 
L 186.130385 248.070237 
L 186.264873 248.614586 
L 186.53385 269.772196 
L 186.668338 272.046575 
L 186.802826 277.020151 
L 187.071802 274.963913 
L 187.340779 290.388542 
L 187.609755 281.926914 
L 187.744243 282.176105 
L 188.01322 252.068092 
L 188.147708 168.000555 
L 188.282196 158.907512 
L 188.416684 186.174653 
L 188.551173 173.793826 
L 188.685661 180.749429 
L 188.820149 180.326642 
L 188.954637 194.737939 
L 189.223614 239.901802 
L 189.896055 274.613058 
L 190.030543 272.879165 
L 190.165031 269.639928 
L 190.299519 277.314695 
L 190.434008 269.295903 
L 190.568496 272.383823 
L 190.702984 271.586593 
L 190.837472 267.060018 
L 190.971961 266.977819 
L 191.106449 258.116082 
L 191.240937 259.817209 
L 191.375425 267.306564 
L 191.509913 253.738671 
L 191.77889 262.557013 
L 191.913378 246.992716 
L 192.182354 261.282974 
L 192.316843 266.008867 
L 192.451331 264.839124 
L 192.585819 265.074947 
L 192.720307 265.558489 
L 192.854796 262.590795 
L 192.989284 264.45377 
L 193.123772 272.699141 
L 193.392748 267.572927 
L 193.527237 265.005719 
L 193.661725 264.591134 
L 193.796213 264.683026 
L 193.930701 268.788961 
L 194.065189 269.359568 
L 194.199678 268.341293 
L 194.468654 225.281662 
L 194.603142 150.22728 
L 194.73763 141.069982 
L 194.872119 157.013983 
L 195.006607 145.5262 
L 195.141095 148.228976 
L 195.275583 146.826014 
L 195.410072 160.056354 
L 195.54456 197.681568 
L 195.679048 199.508443 
L 196.351489 269.251386 
L 196.620465 264.585402 
L 196.754954 264.706129 
L 196.889442 278.600442 
L 197.02393 270.528959 
L 197.158418 269.934251 
L 197.427395 271.625271 
L 197.561883 264.193862 
L 197.696371 244.337729 
L 197.965348 147.040204 
L 198.099836 191.866353 
L 198.234324 183.541204 
L 198.368812 198.05769 
L 198.5033 194.101953 
L 198.906765 233.529299 
L 199.579206 279.852576 
L 199.713694 276.834552 
L 199.848183 276.458983 
L 199.982671 277.525994 
L 200.117159 282.724127 
L 200.251647 277.524755 
L 200.386135 278.440483 
L 200.520624 277.595584 
L 200.655112 273.471767 
L 201.058576 203.833604 
L 201.193065 116.552685 
L 201.327553 197.41155 
L 201.462041 187.401436 
L 201.596529 200.100487 
L 201.731018 195.140597 
L 202.806923 276.455521 
L 202.941411 272.815483 
L 203.0759 273.135318 
L 203.210388 274.98115 
L 203.344876 261.101139 
L 203.479364 261.300009 
L 203.613853 269.938292 
L 203.748341 267.753582 
L 204.017317 252.091057 
L 204.151805 230.42099 
L 204.420782 122.894352 
L 204.689758 172.282246 
L 204.824246 171.585457 
L 204.958735 181.720527 
L 205.093223 204.084739 
L 205.227711 203.390887 
L 205.362199 231.144658 
L 205.496688 227.556966 
L 205.765664 250.03115 
L 206.03464 272.110286 
L 206.169129 269.001747 
L 206.303617 263.29388 
L 206.438105 267.815032 
L 206.572593 288.263669 
L 206.707081 279.425183 
L 206.976058 282.539169 
L 207.110546 280.656707 
L 207.514011 254.984176 
L 207.648499 251.078704 
L 207.782987 251.013142 
L 208.186452 270.238359 
L 208.32094 269.341165 
L 208.589916 267.270949 
L 208.724405 265.495243 
L 208.858893 269.590164 
L 208.993381 269.288274 
L 209.127869 278.141356 
L 209.262357 278.097916 
L 209.396846 281.375749 
L 209.665822 277.461302 
L 209.80031 266.692082 
L 209.934799 273.068152 
L 210.069287 272.730404 
L 210.203775 273.093714 
L 210.338263 272.812164 
L 210.472751 236.599904 
L 210.60724 244.875922 
L 210.876216 134.012983 
L 211.010704 143.379245 
L 211.414169 106.599595 
L 211.817634 227.802553 
L 211.952122 227.045454 
L 212.221098 255.214462 
L 212.490075 272.208044 
L 212.624563 268.249449 
L 212.759051 267.60819 
L 213.028027 274.943926 
L 213.162516 276.760005 
L 213.431492 271.751242 
L 213.56598 273.944005 
L 214.238421 109.850091 
L 214.37291 135.324179 
L 214.641886 140.080663 
L 214.776374 162.851391 
L 215.045351 242.138421 
L 215.314327 243.868985 
L 215.583303 270.775374 
L 215.717792 273.334764 
L 215.85228 266.282392 
L 215.986768 269.991124 
L 216.121256 266.338197 
L 216.255745 267.537932 
L 216.390233 269.736924 
L 216.524721 268.5137 
L 216.793697 270.608223 
L 217.062674 221.57161 
L 217.197162 131.815538 
L 217.33165 118.841152 
L 217.466138 124.189116 
L 217.600627 144.533614 
L 217.735115 148.01516 
L 218.004091 174.468114 
L 218.542044 250.336098 
L 218.676532 250.117485 
L 218.811021 275.012975 
L 218.945509 267.956941 
L 219.079997 276.33157 
L 219.214485 276.948389 
L 219.348973 258.517317 
L 219.61795 271.439353 
L 219.886926 274.851427 
L 220.021414 274.270645 
L 220.290391 220.931261 
L 220.559367 105.630586 
L 220.828344 156.851881 
L 220.962832 154.439288 
L 221.09732 163.710913 
L 221.500785 246.930375 
L 221.635273 245.035911 
L 221.904249 253.898965 
L 222.038738 275.443571 
L 222.173226 270.180275 
L 222.307714 273.215006 
L 222.442202 278.785663 
L 222.576691 272.170637 
L 222.711179 274.11621 
L 222.980155 279.774842 
L 223.114643 279.319769 
L 223.249132 279.722883 
L 223.38362 264.804634 
L 223.518108 276.792049 
L 223.787084 225.146534 
L 223.921573 259.377777 
L 224.056061 255.577821 
L 224.325037 240.400904 
L 224.594014 255.232946 
L 224.728502 266.763228 
L 224.997478 261.722197 
L 225.131967 260.636528 
L 225.266455 266.016952 
L 225.400943 266.518551 
L 225.535431 265.644528 
L 225.669919 261.762721 
L 225.804408 263.939974 
L 226.073384 257.956594 
L 226.207872 264.903947 
L 226.476849 266.116905 
L 226.745825 245.960929 
L 227.014802 260.536272 
L 227.14929 248.812635 
L 227.283778 259.099556 
L 227.418266 254.995313 
L 227.552754 259.020587 
L 227.687243 253.531083 
L 227.821731 271.6749 
L 227.956219 270.311351 
L 228.090707 271.961217 
L 228.225195 270.448393 
L 228.359684 270.242744 
L 228.494172 278.222143 
L 228.62866 274.632944 
L 228.763148 275.893977 
L 228.897637 273.481132 
L 229.032125 274.792182 
L 229.166613 274.497584 
L 229.301101 270.602893 
L 229.570078 273.838298 
L 229.704566 271.55087 
L 229.973542 204.753855 
L 230.242519 104.063252 
L 230.377007 105.872045 
L 230.645983 113.187615 
L 230.780471 107.301276 
L 230.91496 168.955831 
L 231.049448 164.560799 
L 231.318424 194.168714 
L 231.721889 259.922326 
L 231.856377 256.988532 
L 232.125354 270.166368 
L 232.259842 269.971668 
L 232.39433 271.248722 
L 232.528818 269.784788 
L 232.797795 274.349086 
L 232.932283 268.35207 
L 233.604724 112.519535 
L 233.8737 133.538558 
L 234.008189 139.355584 
L 234.68063 236.477651 
L 234.815118 244.523976 
L 234.949606 266.372903 
L 235.084094 266.437846 
L 235.218583 271.802528 
L 235.353071 265.060236 
L 235.487559 270.380021 
L 235.622047 269.467951 
L 235.891024 278.423574 
L 236.16 268.932598 
L 236.428976 233.440269 
L 236.563465 128.460873 
L 236.832441 109.674662 
L 236.966929 124.953774 
L 237.101417 123.817051 
L 237.235906 124.388802 
L 237.370394 150.634286 
L 237.63937 215.919327 
L 238.311811 271.585987 
L 238.4463 273.078474 
L 238.580788 270.078294 
L 238.715276 272.09506 
L 238.849764 269.641454 
L 238.984252 271.98574 
L 239.253229 279.793272 
L 239.387717 271.090234 
L 239.656694 207.839302 
L 239.791182 125.621511 
L 239.92567 115.859596 
L 240.060158 115.742754 
L 240.463623 141.970321 
L 240.867087 232.733153 
L 241.001576 234.174671 
L 241.136064 238.344988 
L 241.40504 267.164377 
L 241.539529 266.135022 
L 241.674017 269.356782 
L 241.808505 263.609909 
L 241.942993 265.251133 
L 242.077481 262.833918 
L 242.21197 278.5416 
L 242.346458 274.754623 
L 242.480946 282.627777 
L 242.615434 275.182612 
L 242.884411 211.401206 
L 243.018899 128.034241 
L 243.153387 113.61492 
L 243.287875 123.437677 
L 243.422363 153.29048 
L 243.556852 154.725675 
L 243.69134 144.911276 
L 244.094805 231.545545 
L 244.229293 236.016361 
L 244.363781 260.064101 
L 244.498269 258.958547 
L 244.632757 271.328663 
L 244.767246 270.352908 
L 244.901734 272.959163 
L 245.17071 267.943619 
L 245.439687 275.638597 
L 245.574175 272.505939 
L 245.708663 273.588612 
L 245.843151 266.996892 
L 245.97764 250.669765 
L 246.112128 212.849863 
L 246.246616 254.386497 
L 246.515592 250.244539 
L 246.650081 251.23871 
L 246.784569 246.522312 
L 246.919057 250.564435 
L 247.322522 272.446766 
L 247.45701 271.279142 
L 247.591498 273.99663 
L 247.725986 273.937946 
L 247.860475 274.853897 
L 247.994963 274.497457 
L 248.129451 276.971469 
L 248.263939 274.442317 
L 248.398427 275.581545 
L 248.532916 275.512748 
L 248.667404 274.0142 
L 248.801892 275.468601 
L 249.205357 264.281929 
L 249.339845 265.317969 
L 249.743309 276.273727 
L 250.012286 267.097125 
L 250.146774 266.912012 
L 250.415751 272.288805 
L 250.550239 272.793546 
L 250.684727 273.954669 
L 250.819215 273.745122 
L 250.953703 273.273291 
L 251.088192 274.250866 
L 251.22268 274.223504 
L 251.357168 275.79923 
L 251.491656 273.842493 
L 251.626144 275.669213 
L 251.760633 273.763502 
L 251.895121 288.335171 
L 252.029609 281.352037 
L 252.164097 280.808433 
L 252.298586 275.916896 
L 252.433074 241.230079 
L 252.567562 240.530628 
L 252.70205 135.131809 
L 252.836538 117.239912 
L 252.971027 119.840316 
L 253.777956 236.919009 
L 253.912444 234.313928 
L 254.315909 271.238761 
L 254.450397 268.148953 
L 254.719373 282.802988 
L 254.853862 281.386281 
L 254.98835 281.448433 
L 255.122838 287.008431 
L 255.257326 283.462391 
L 255.391814 284.885923 
L 255.526303 281.975678 
L 256.064255 125.038528 
L 256.333232 168.597073 
L 256.46772 160.248925 
L 256.602208 159.10424 
L 257.005673 222.975236 
L 257.274649 255.886585 
L 257.409138 257.84951 
L 257.543626 270.316975 
L 257.678114 267.128258 
L 257.812602 274.490616 
L 257.94709 267.860468 
L 258.081579 270.626206 
L 258.216067 269.685931 
L 258.350555 284.477073 
L 258.619532 281.297385 
L 258.75402 272.071543 
L 259.022996 225.063626 
L 259.291973 113.083799 
L 259.426461 156.911789 
L 259.560949 162.605558 
L 259.695437 189.436938 
L 259.829925 166.414137 
L 260.098902 211.565174 
L 260.23339 213.614248 
L 260.636855 250.884835 
L 260.771343 265.497131 
L 260.905831 266.001529 
L 261.174808 270.417939 
L 261.309296 265.421928 
L 261.443784 265.004938 
L 261.578272 272.902671 
L 261.71276 270.578741 
L 261.847249 273.821735 
L 261.981737 265.914572 
L 262.116225 247.686949 
L 262.51969 121.160811 
L 262.654178 156.251054 
L 262.788666 162.091103 
L 262.923154 143.15351 
L 263.057643 152.002102 
L 263.326619 185.070249 
L 263.461107 230.625086 
L 263.595595 232.885347 
L 263.99906 259.917005 
L 264.133548 261.750813 
L 264.268036 265.595902 
L 264.402525 264.855465 
L 264.537013 263.232155 
L 264.671501 272.648228 
L 264.805989 264.20925 
L 264.940478 268.646478 
L 265.074966 267.538302 
L 265.209454 260.054038 
L 265.47843 215.579652 
L 265.747407 126.34658 
L 265.881895 132.764789 
L 266.016383 112.444253 
L 266.150871 118.23693 
L 266.28536 118.271116 
L 266.688824 182.516824 
L 266.823312 190.360754 
L 267.226777 262.76609 
L 267.361265 257.642504 
L 267.495754 265.44237 
L 267.630242 264.07363 
L 267.76473 256.704721 
L 267.899218 279.132183 
L 268.033706 267.905418 
L 268.168195 268.927335 
L 268.302683 268.676177 
L 268.437171 272.136926 
L 268.571659 265.684382 
L 268.840636 247.395655 
L 268.975124 268.683974 
L 269.109612 271.586463 
L 269.378589 256.996522 
L 269.647565 248.958304 
L 269.782053 248.043018 
L 269.916541 263.219269 
L 270.05103 260.53853 
L 270.185518 261.125383 
L 270.320006 259.04385 
L 270.454494 261.654302 
L 270.588982 260.83666 
L 270.723471 261.567238 
L 270.857959 265.748904 
L 270.992447 265.746187 
L 271.126935 285.610887 
L 271.395912 272.41352 
L 271.5304 274.667158 
L 271.664888 269.241026 
L 271.799376 252.72284 
L 271.933865 251.555493 
L 272.202841 264.620111 
L 272.337329 268.731809 
L 272.606306 252.684342 
L 272.740794 252.889404 
L 272.875282 248.599415 
L 273.00977 252.504877 
L 273.144258 273.958316 
L 273.278747 273.755359 
L 273.413235 272.837578 
L 273.547723 269.295639 
L 273.682211 269.975555 
L 273.951188 273.995162 
L 274.085676 273.468789 
L 274.220164 273.927616 
L 274.354652 272.256515 
L 274.489141 290.814373 
L 274.623629 288.8065 
L 274.758117 288.482154 
L 274.892605 280.085116 
L 275.430558 147.553404 
L 275.565046 149.319103 
L 275.699535 155.178717 
L 275.834023 149.999744 
L 275.968511 153.032488 
L 276.102999 160.264295 
L 276.371976 234.104608 
L 276.640952 257.470544 
L 276.77544 259.398914 
L 277.044417 271.73957 
L 277.178905 275.236398 
L 277.313393 272.610383 
L 277.447881 277.530459 
L 277.58237 272.000485 
L 277.716858 283.715845 
L 277.851346 280.108889 
L 277.985834 284.413361 
L 278.120322 280.58873 
L 278.389299 240.859322 
L 278.658275 171.909512 
L 278.792763 194.342545 
L 278.927252 164.177097 
L 279.196228 180.050055 
L 279.330716 224.897461 
L 279.465204 221.732056 
L 279.868669 257.233338 
L 280.003157 261.901274 
L 280.272134 276.72657 
L 280.406622 274.762277 
L 280.54111 274.456723 
L 280.675598 276.003591 
L 280.810087 261.080395 
L 281.079063 268.01565 
L 281.213551 267.57583 
L 281.348039 263.038268 
L 281.617016 227.47494 
L 281.885992 115.648707 
L 282.020481 129.040948 
L 282.154969 131.144895 
L 282.423945 144.20002 
L 282.558433 156.139603 
L 282.692922 146.645316 
L 282.961898 205.364282 
L 283.230874 248.313901 
L 283.365363 261.332625 
L 283.499851 263.406005 
L 283.634339 268.01386 
L 283.768827 264.447688 
L 283.903316 267.400383 
L 284.037804 263.885688 
L 284.172292 264.148827 
L 284.30678 263.241405 
L 284.441268 265.074041 
L 284.575757 257.75626 
L 284.710245 232.1284 
L 284.844733 235.13261 
L 285.113709 131.377959 
L 285.382686 147.868171 
L 285.517174 147.086637 
L 285.651662 167.498823 
L 285.78615 154.405789 
L 286.59308 257.540674 
L 286.727568 268.686539 
L 286.862056 266.291365 
L 286.996544 267.063747 
L 287.131033 262.797646 
L 287.265521 291.068503 
L 287.534497 275.18491 
L 287.668985 276.817774 
L 287.937962 252.250236 
L 288.07245 256.20645 
L 288.206938 267.946765 
L 288.341427 266.910842 
L 288.475915 272.22789 
L 288.610403 266.059164 
L 288.744891 266.725286 
L 288.879379 255.854454 
L 289.013868 258.620686 
L 289.148356 258.99311 
L 289.282844 273.306871 
L 289.417332 273.768248 
L 289.55182 267.487798 
L 289.686309 277.347974 
L 289.820797 277.511687 
L 289.955285 277.263773 
L 290.224262 273.865924 
L 290.35875 276.02639 
L 290.493238 272.941331 
L 290.627726 276.288979 
L 290.762214 273.676663 
L 290.896703 275.811937 
L 291.165679 234.755758 
L 291.300167 245.080858 
L 291.434655 220.41669 
L 291.569144 136.161181 
L 291.83812 177.275352 
L 292.107096 190.533156 
L 292.241585 188.799168 
L 292.376073 203.439769 
L 292.510561 243.276178 
L 292.645049 248.54578 
L 292.779538 245.976764 
L 293.048514 270.525658 
L 293.183002 275.6175 
L 293.31749 271.400363 
L 293.451979 272.481052 
L 293.586467 269.987286 
L 293.720955 265.402675 
L 293.855443 267.394223 
L 293.989931 265.272715 
L 294.12442 270.041159 
L 294.258908 253.773052 
L 294.393396 219.583902 
L 294.527884 226.561872 
L 294.796861 147.886572 
L 294.931349 165.740664 
L 295.334814 137.40063 
L 295.469302 142.990533 
L 295.872766 240.976804 
L 296.007255 232.421835 
L 296.410719 270.667007 
L 296.679696 260.093687 
L 296.814184 270.020032 
L 296.948672 290.505641 
L 297.08316 282.075114 
L 297.352137 280.909739 
L 297.621113 265.547245 
L 297.755601 267.832459 
L 298.024578 280.217797 
L 298.159066 280.707096 
L 298.428042 275.620572 
L 298.697019 278.283991 
L 298.965995 273.39352 
L 299.100484 275.156307 
L 299.234972 273.673775 
L 299.503948 275.215948 
L 299.638436 278.623576 
L 299.772925 278.487171 
L 299.907413 276.479764 
L 300.041901 279.044353 
L 300.176389 261.142912 
L 300.310877 272.916378 
L 300.445366 270.437089 
L 300.579854 270.949 
L 300.983319 230.356013 
L 301.252295 142.831782 
L 301.386783 141.382836 
L 301.521271 136.673678 
L 301.65576 126.720528 
L 301.790248 126.240354 
L 302.059224 174.011796 
L 302.328201 238.781343 
L 302.462689 240.928275 
L 302.597177 245.553998 
L 302.866153 266.802693 
L 303.000642 268.605737 
L 303.13513 261.866373 
L 303.404106 272.543828 
L 303.673083 268.584658 
L 303.807571 272.206285 
L 303.942059 262.770614 
L 304.076547 235.222623 
L 304.211036 240.01188 
L 304.480012 144.783505 
L 304.6145 160.985308 
L 304.748988 162.710251 
L 305.017965 154.469561 
L 305.152453 161.617675 
L 305.286941 160.49523 
L 305.555918 235.966016 
L 305.690406 245.85351 
L 305.824894 244.441319 
L 305.959382 264.066826 
L 306.093871 263.727824 
L 306.228359 273.13968 
L 306.362847 268.940968 
L 306.497335 271.830807 
L 306.631823 270.320454 
L 306.766312 282.030926 
L 307.169776 268.279531 
L 307.438753 234.492029 
L 307.707729 134.398099 
L 307.976706 177.985254 
L 308.245682 153.458674 
L 308.38017 158.369194 
L 308.514658 172.140288 
L 308.783635 240.722815 
L 309.321588 275.29236 
L 309.456076 274.805219 
L 309.590564 273.833847 
L 309.725052 276.133969 
L 309.859541 273.883222 
L 309.994029 274.677424 
L 310.263005 272.996898 
L 310.531982 252.133762 
L 310.66647 224.296126 
L 310.935446 137.067809 
L 311.204423 175.449072 
L 311.338911 168.885648 
L 311.473399 155.482926 
L 311.742376 197.971419 
L 312.011352 236.419238 
L 312.14584 254.523843 
L 312.280328 254.57332 
L 312.549305 271.666086 
L 312.683793 270.981916 
L 312.818281 269.086686 
L 313.221746 275.060773 
L 313.356234 272.145621 
L 313.490722 274.304697 
L 313.625211 261.946906 
L 313.759699 262.689106 
L 314.028675 241.900158 
L 314.163163 240.469873 
L 314.297652 258.504929 
L 314.43214 249.292621 
L 314.566628 254.056249 
L 314.701116 243.694608 
L 314.835604 256.469008 
L 314.970093 254.827443 
L 315.239069 270.405567 
L 315.373557 270.489347 
L 315.508045 266.467588 
L 315.642534 265.817747 
L 315.777022 269.948734 
L 315.91151 268.472494 
L 316.045998 268.924916 
L 316.180487 267.130631 
L 316.314975 270.074575 
L 316.449463 269.848537 
L 316.583951 271.443341 
L 316.718439 268.185877 
L 316.987416 256.350507 
L 317.121904 262.899085 
L 317.39088 253.852278 
L 317.525369 254.234761 
L 317.659857 249.875996 
L 317.794345 253.020017 
L 317.928833 248.941263 
L 318.063322 255.683774 
L 318.19781 248.768079 
L 318.466786 267.036358 
L 318.601274 267.213006 
L 318.735763 264.357206 
L 318.870251 267.2114 
L 319.004739 266.16247 
L 319.139227 267.95183 
L 319.273715 267.159203 
L 319.542692 267.883316 
L 319.67718 283.96185 
L 320.215133 261.247635 
L 320.349621 244.126649 
L 320.484109 142.886162 
L 320.753086 130.179655 
L 321.291039 150.700525 
L 321.694503 236.023452 
L 321.828991 235.970364 
L 322.097968 270.142951 
L 322.232456 271.13948 
L 322.366944 273.135988 
L 322.501433 269.131702 
L 322.635921 273.546131 
L 322.770409 272.456881 
L 322.904897 284.938232 
L 323.308362 274.711307 
L 323.44285 253.256483 
L 323.577338 255.862836 
L 323.846315 142.810995 
L 324.115291 180.718501 
L 324.384268 147.747924 
L 324.518756 149.35223 
L 324.653244 171.340864 
L 324.92222 240.741812 
L 325.056709 244.065839 
L 325.191197 251.985686 
L 325.325685 271.72372 
L 325.460173 269.393152 
L 325.594661 269.857262 
L 325.72915 268.128465 
L 325.863638 271.923368 
L 325.998126 271.785223 
L 326.132614 281.960269 
L 326.401591 280.123388 
L 326.670567 266.325461 
L 326.805055 244.426903 
L 327.074032 135.188679 
L 327.343008 181.843351 
L 327.611985 156.047804 
L 327.746473 160.000776 
L 327.880961 173.037537 
L 328.149937 227.402401 
L 328.284426 248.667679 
L 328.418914 251.215693 
L 328.68789 267.663877 
L 329.225843 274.610152 
L 329.360331 287.178338 
L 329.763796 268.626003 
L 330.032772 246.200732 
L 330.301749 140.645361 
L 330.570725 176.516374 
L 330.705214 168.777225 
L 330.839702 152.674631 
L 330.97419 151.347085 
L 331.377655 240.682575 
L 331.512143 242.001988 
L 331.781119 266.451513 
L 331.915607 270.406761 
L 332.184584 267.85163 
L 332.319072 269.628463 
L 332.45356 273.118136 
L 332.588049 285.944597 
L 333.126001 256.529199 
L 333.26049 249.192459 
L 333.529466 146.626126 
L 333.798442 186.714692 
L 334.067419 159.796885 
L 334.201907 160.234788 
L 334.336395 180.982621 
L 334.605372 237.110253 
L 334.73986 240.60433 
L 335.008836 266.866017 
L 335.277813 269.661904 
L 335.546789 274.89457 
L 335.681277 272.714438 
L 335.815766 272.901206 
L 335.950254 273.3512 
L 336.084742 272.360029 
L 336.21923 269.776457 
L 336.353718 273.702648 
L 336.622695 255.125076 
L 336.757183 260.075778 
L 337.02616 248.396327 
L 337.160648 253.176264 
L 337.295136 251.607445 
L 337.698601 267.457018 
L 337.967577 270.353818 
L 338.102065 270.410897 
L 338.236553 269.144428 
L 338.371042 271.689055 
L 338.50553 271.532687 
L 338.640018 270.870143 
L 338.774506 271.795094 
L 338.908995 268.453475 
L 339.177971 272.163918 
L 339.312459 270.525134 
L 339.446947 262.952678 
L 339.581436 263.208086 
L 339.715924 264.725282 
L 339.9849 272.667484 
L 340.253877 270.867979 
L 340.522853 267.57244 
L 340.657341 267.812837 
L 340.791829 273.213259 
L 340.926318 270.655586 
L 341.060806 272.794232 
L 341.329782 271.233725 
L 341.464271 267.080211 
L 341.598759 272.95241 
L 341.733247 273.724137 
L 341.867735 272.801091 
L 342.002223 273.559417 
L 342.136712 275.331486 
L 342.2712 286.544838 
L 342.674664 273.496138 
L 342.809153 245.681845 
L 342.943641 248.442324 
L 343.212617 130.970376 
L 343.347106 130.319841 
L 343.616082 168.644333 
L 343.75057 167.04215 
L 343.885058 182.412985 
L 344.288523 249.806677 
L 344.423011 248.351068 
L 344.691988 265.645437 
L 345.22994 273.71345 
L 345.364429 273.319542 
L 345.498917 281.188443 
L 345.633405 279.176094 
L 345.767893 279.92345 
L 345.902382 276.811085 
L 346.171358 247.932478 
L 346.440334 152.060596 
L 346.574823 182.664271 
L 346.709311 182.615887 
L 346.978287 163.986463 
L 347.51624 244.237122 
L 348.054193 267.399532 
L 348.188681 268.545505 
L 348.457658 274.710762 
L 348.592146 272.639376 
L 348.726634 285.010353 
L 348.861122 280.140976 
L 348.99561 280.8171 
L 349.399075 242.965272 
L 349.668052 143.178224 
L 349.80254 172.105071 
L 349.937028 173.707379 
L 350.206004 157.861527 
L 350.340493 170.101046 
L 350.743957 241.63818 
L 351.147422 263.856497 
L 351.416398 272.278292 
L 351.550886 269.788839 
L 351.685375 273.828872 
L 351.819863 273.691434 
L 351.954351 286.422405 
L 352.492304 258.217562 
L 352.626792 240.777177 
L 352.76128 147.565601 
L 352.895769 141.92862 
L 353.030257 176.177369 
L 353.164745 179.249764 
L 353.433721 161.590397 
L 353.56821 171.621315 
L 353.837186 220.200578 
L 353.971674 218.638576 
L 354.375139 264.557755 
L 354.509627 272.766896 
L 354.644115 273.180917 
L 354.778604 272.688408 
L 355.182068 281.07414 
L 355.451045 276.939447 
L 355.854509 236.807631 
L 355.988998 180.434926 
L 356.123486 175.086462 
L 356.257974 187.471607 
L 356.52695 147.824242 
L 356.661439 155.629559 
L 356.930415 189.439197 
L 357.199391 236.173331 
L 357.33388 261.691984 
L 357.468368 258.634579 
L 357.737344 277.315275 
L 357.871832 275.717462 
L 358.140809 277.740243 
L 358.275297 283.161435 
L 358.409785 277.919022 
L 358.678762 278.161629 
L 358.81325 265.751095 
L 359.082226 273.392855 
L 359.351203 242.291772 
L 359.485691 245.851007 
L 359.620179 259.224364 
L 359.889156 239.311203 
L 360.023644 265.470256 
L 360.158132 260.64291 
L 360.696085 278.339447 
L 360.830573 276.175142 
L 360.965061 276.681419 
L 361.234038 279.582377 
L 361.368526 280.394461 
L 361.637502 279.941723 
L 361.771991 277.910569 
L 362.040967 266.453908 
L 362.175455 271.743433 
L 362.444432 285.090617 
L 362.57892 283.098329 
L 363.116873 267.198829 
L 363.385849 276.339879 
L 363.520337 275.594557 
L 363.654826 276.248384 
L 363.789314 277.857987 
L 363.923802 275.819945 
L 364.05829 276.353196 
L 364.192778 277.56099 
L 364.327267 275.412703 
L 364.461755 276.858 
L 364.596243 229.562108 
L 364.86522 261.180424 
L 364.999708 256.134701 
L 365.268684 226.079601 
L 365.806637 108.464912 
L 365.941125 145.620151 
L 366.210102 95.675154 
L 366.34459 105.788722 
L 366.613566 187.850308 
L 366.748055 186.664567 
L 366.882543 205.810764 
L 367.151519 256.032391 
L 367.286007 257.285923 
L 367.420496 268.557516 
L 367.554984 266.05215 
L 367.689472 258.905687 
L 367.82396 269.058478 
L 367.958448 268.919052 
L 368.227425 265.585644 
L 368.361913 247.42433 
L 368.496401 194.49996 
L 368.63089 207.311264 
L 368.899866 128.169974 
L 369.168842 105.177389 
L 369.437819 75.156994 
L 369.572307 154.505906 
L 369.706795 141.876171 
L 369.841283 177.074057 
L 369.975772 171.742908 
L 370.11026 190.946402 
L 370.379236 257.991881 
L 370.513724 245.673128 
L 370.648213 264.562437 
L 370.917189 267.437109 
L 371.051677 292.394013 
L 371.320654 277.089902 
L 371.455142 276.171832 
L 371.858607 234.286202 
L 372.127583 125.975505 
L 372.531048 209.385073 
L 372.665536 198.556493 
L 372.800024 205.503004 
L 372.934512 199.620757 
L 373.203489 243.682221 
L 373.337977 259.201739 
L 373.472465 252.510127 
L 373.741442 270.273475 
L 373.87593 269.271964 
L 374.010418 271.40345 
L 374.144906 270.68084 
L 374.413883 290.76613 
L 374.682859 280.723188 
L 374.817347 276.772188 
L 375.086324 247.493916 
L 375.3553 169.767087 
L 375.489788 178.829998 
L 375.624277 170.510993 
L 375.758765 178.288776 
L 375.893253 178.451066 
L 376.027741 187.252816 
L 376.296718 225.55346 
L 376.431206 233.024484 
L 376.565694 254.488324 
L 376.700182 253.193713 
L 376.83467 270.712578 
L 377.103647 270.866775 
L 377.238135 268.417055 
L 377.372623 269.872817 
L 377.507112 285.491383 
L 377.6416 274.889754 
L 377.776088 274.742915 
L 377.910576 274.086326 
L 378.045064 257.942825 
L 378.314041 282.419765 
L 378.448529 281.951682 
L 378.583017 250.426029 
L 378.717505 259.051591 
L 378.851994 245.22929 
L 378.986482 258.981387 
L 379.12097 254.638293 
L 379.255458 268.900256 
L 379.389947 255.190027 
L 379.658923 271.897583 
L 379.793411 270.217141 
L 380.062388 275.492357 
L 380.196876 275.599327 
L 380.331364 278.259124 
L 380.465852 275.811804 
L 380.60034 276.247184 
L 380.734829 257.395567 
L 381.003805 270.197148 
L 381.138293 270.340273 
L 381.272782 258.979322 
L 381.40727 223.597586 
L 381.541758 242.427839 
L 381.810734 119.157419 
L 382.079711 145.614614 
L 382.214199 144.997252 
L 382.348687 143.577191 
L 382.617664 155.201571 
L 383.290105 263.989105 
L 383.424593 266.505905 
L 383.559081 274.24414 
L 383.693569 268.972414 
L 383.828058 269.390434 
L 383.962546 260.843345 
L 384.231522 265.874635 
L 384.36601 262.016448 
L 384.634987 234.969812 
L 384.769475 231.812386 
L 385.038451 128.330548 
L 385.307428 154.07854 
L 385.441916 142.556562 
L 385.576404 158.669855 
L 385.845381 199.826534 
L 385.979869 204.546605 
L 386.114357 247.228048 
L 386.248845 243.314683 
L 386.517822 271.900556 
L 386.65231 275.48486 
L 386.786798 270.417342 
L 386.921286 274.60471 
L 387.055775 270.247885 
L 387.190263 281.355336 
L 387.593727 269.988099 
L 387.728216 252.840106 
L 388.266169 280.534595 
L 388.400657 260.058052 
L 388.535145 275.643993 
L 388.669633 274.238347 
L 388.93861 254.268074 
L 389.073098 255.508415 
L 389.207586 272.222197 
L 389.611051 278.649348 
L 389.880027 287.221137 
L 390.014515 282.914354 
L 390.149004 284.419076 
L 390.283492 283.86052 
L 390.41798 255.489936 
L 390.552468 267.569777 
L 390.686956 269.619077 
L 390.821445 261.646308 
L 391.090421 232.988266 
L 391.224909 249.737069 
L 391.359397 222.090698 
L 391.493886 129.247973 
L 391.628374 173.566069 
L 391.762862 146.737671 
L 391.89735 150.665191 
L 392.166327 177.701261 
L 392.300815 184.378273 
L 393.107744 275.142412 
L 393.242232 274.7564 
L 393.511209 271.212239 
L 393.645697 259.883134 
L 393.780185 262.00121 
L 393.914673 271.723488 
L 394.049162 265.116998 
L 394.18365 230.903665 
L 394.318138 241.686058 
L 394.452626 221.933366 
L 394.721603 129.382788 
L 394.856091 145.126945 
L 394.990579 147.315292 
L 395.125067 142.304205 
L 395.259556 142.716844 
L 395.528532 157.316677 
L 395.797508 217.75684 
L 395.931997 249.870272 
L 396.066485 246.49135 
L 396.200973 264.188968 
L 396.46995 268.905485 
L 396.604438 266.417004 
L 396.738926 256.249473 
L 396.873414 295.488 
L 397.007902 281.273513 
L 397.142391 280.648796 
L 397.411367 265.803857 
L 397.680343 243.566646 
L 397.814832 164.530472 
L 397.94932 166.770312 
L 398.083808 175.39681 
L 398.487273 151.949083 
L 398.487273 151.949083 
" clip-path="url(#p05bb2a997c)" style="fill: none; stroke: #ff7f0e; stroke-width: 1.5; stroke-linecap: square"/>
   </g>
   <g id="patch_3">
    <path d="M 57.6 307.584 
L 57.6 41.472 
" style="fill: none; stroke: #000000; stroke-width: 0.8; stroke-linejoin: miter; stroke-linecap: square"/>
   </g>
   <g id="patch_4">
    <path d="M 414.72 307.584 
L 414.72 41.472 
" style="fill: none; stroke: #000000; stroke-width: 0.8; stroke-linejoin: miter; stroke-linecap: square"/>
   </g>
   <g id="patch_5">
    <path d="M 57.6 307.584 
L 414.72 307.584 
" style="fill: none; stroke: #000000; stroke-width: 0.8; stroke-linejoin: miter; stroke-linecap: square"/>
   </g>
   <g id="patch_6">
    <path d="M 57.6 41.472 
L 414.72 41.472 
" style="fill: none; stroke: #000000; stroke-width: 0.8; stroke-linejoin: miter; stroke-linecap: square"/>
   </g>
  </g>
 </g>
 <defs>
  <clipPath id="p05bb2a997c">
   <rect x="57.6" y="41.472" width="357.12" height="266.112"/>
  </clipPath>
 </defs>
</svg>
