<?xml version="1.0" encoding="utf-8" standalone="no"?>
<!DOCTYPE svg PUBLIC "-//W3C//DTD SVG 1.1//EN"
  "http://www.w3.org/Graphics/SVG/1.1/DTD/svg11.dtd">
<svg xmlns:xlink="http://www.w3.org/1999/xlink" width="460.8pt" height="345.6pt" viewBox="0 0 460.8 345.6" xmlns="http://www.w3.org/2000/svg" version="1.1">
 <metadata>
  <rdf:RDF xmlns:dc="http://purl.org/dc/elements/1.1/" xmlns:cc="http://creativecommons.org/ns#" xmlns:rdf="http://www.w3.org/1999/02/22-rdf-syntax-ns#">
   <cc:Work>
    <dc:type rdf:resource="http://purl.org/dc/dcmitype/StillImage"/>
    <dc:date>2023-04-04T03:02:10.616345</dc:date>
    <dc:format>image/svg+xml</dc:format>
    <dc:creator>
     <cc:Agent>
      <dc:title>Matplotlib v3.5.2, https://matplotlib.org/</dc:title>
     </cc:Agent>
    </dc:creator>
   </cc:Work>
  </rdf:RDF>
 </metadata>
 <defs>
  <style type="text/css">*{stroke-linejoin: round; stroke-linecap: butt}</style>
 </defs>
 <g id="figure_1">
  <g id="patch_1">
   <path d="M 0 345.6 
L 460.8 345.6 
L 460.8 0 
L 0 0 
z
" style="fill: #ffffff"/>
  </g>
  <g id="axes_1">
   <g id="patch_2">
    <path d="M 57.6 307.584 
L 414.72 307.584 
L 414.72 41.472 
L 57.6 41.472 
z
" style="fill: #ffffff"/>
   </g>
   <g id="matplotlib.axis_1">
    <g id="xtick_1">
     <g id="line2d_1">
      <defs>
       <path id="m77cbea9a31" d="M 0 0 
L 0 3.5 
" style="stroke: #000000; stroke-width: 0.8"/>
      </defs>
      <g>
       <use xlink:href="#m77cbea9a31" x="73.832727" y="307.584" style="stroke: #000000; stroke-width: 0.8"/>
      </g>
     </g>
     <g id="text_1">
      <!-- 0 -->
      <g transform="translate(70.651477 322.182437)scale(0.1 -0.1)">
       <defs>
        <path id="DejaVuSans-30" d="M 2034 4250 
Q 1547 4250 1301 3770 
Q 1056 3291 1056 2328 
Q 1056 1369 1301 889 
Q 1547 409 2034 409 
Q 2525 409 2770 889 
Q 3016 1369 3016 2328 
Q 3016 3291 2770 3770 
Q 2525 4250 2034 4250 
z
M 2034 4750 
Q 2819 4750 3233 4129 
Q 3647 3509 3647 2328 
Q 3647 1150 3233 529 
Q 2819 -91 2034 -91 
Q 1250 -91 836 529 
Q 422 1150 422 2328 
Q 422 3509 836 4129 
Q 1250 4750 2034 4750 
z
" transform="scale(0.015625)"/>
       </defs>
       <use xlink:href="#DejaVuSans-30"/>
      </g>
     </g>
    </g>
    <g id="xtick_2">
     <g id="line2d_2">
      <g>
       <use xlink:href="#m77cbea9a31" x="141.076834" y="307.584" style="stroke: #000000; stroke-width: 0.8"/>
      </g>
     </g>
     <g id="text_2">
      <!-- 500 -->
      <g transform="translate(131.533084 322.182437)scale(0.1 -0.1)">
       <defs>
        <path id="DejaVuSans-35" d="M 691 4666 
L 3169 4666 
L 3169 4134 
L 1269 4134 
L 1269 2991 
Q 1406 3038 1543 3061 
Q 1681 3084 1819 3084 
Q 2600 3084 3056 2656 
Q 3513 2228 3513 1497 
Q 3513 744 3044 326 
Q 2575 -91 1722 -91 
Q 1428 -91 1123 -41 
Q 819 9 494 109 
L 494 744 
Q 775 591 1075 516 
Q 1375 441 1709 441 
Q 2250 441 2565 725 
Q 2881 1009 2881 1497 
Q 2881 1984 2565 2268 
Q 2250 2553 1709 2553 
Q 1456 2553 1204 2497 
Q 953 2441 691 2322 
L 691 4666 
z
" transform="scale(0.015625)"/>
       </defs>
       <use xlink:href="#DejaVuSans-35"/>
       <use xlink:href="#DejaVuSans-30" x="63.623047"/>
       <use xlink:href="#DejaVuSans-30" x="127.246094"/>
      </g>
     </g>
    </g>
    <g id="xtick_3">
     <g id="line2d_3">
      <g>
       <use xlink:href="#m77cbea9a31" x="208.32094" y="307.584" style="stroke: #000000; stroke-width: 0.8"/>
      </g>
     </g>
     <g id="text_3">
      <!-- 1000 -->
      <g transform="translate(195.59594 322.182437)scale(0.1 -0.1)">
       <defs>
        <path id="DejaVuSans-31" d="M 794 531 
L 1825 531 
L 1825 4091 
L 703 3866 
L 703 4441 
L 1819 4666 
L 2450 4666 
L 2450 531 
L 3481 531 
L 3481 0 
L 794 0 
L 794 531 
z
" transform="scale(0.015625)"/>
       </defs>
       <use xlink:href="#DejaVuSans-31"/>
       <use xlink:href="#DejaVuSans-30" x="63.623047"/>
       <use xlink:href="#DejaVuSans-30" x="127.246094"/>
       <use xlink:href="#DejaVuSans-30" x="190.869141"/>
      </g>
     </g>
    </g>
    <g id="xtick_4">
     <g id="line2d_4">
      <g>
       <use xlink:href="#m77cbea9a31" x="275.565046" y="307.584" style="stroke: #000000; stroke-width: 0.8"/>
      </g>
     </g>
     <g id="text_4">
      <!-- 1500 -->
      <g transform="translate(262.840046 322.182437)scale(0.1 -0.1)">
       <use xlink:href="#DejaVuSans-31"/>
       <use xlink:href="#DejaVuSans-35" x="63.623047"/>
       <use xlink:href="#DejaVuSans-30" x="127.246094"/>
       <use xlink:href="#DejaVuSans-30" x="190.869141"/>
      </g>
     </g>
    </g>
    <g id="xtick_5">
     <g id="line2d_5">
      <g>
       <use xlink:href="#m77cbea9a31" x="342.809153" y="307.584" style="stroke: #000000; stroke-width: 0.8"/>
      </g>
     </g>
     <g id="text_5">
      <!-- 2000 -->
      <g transform="translate(330.084153 322.182437)scale(0.1 -0.1)">
       <defs>
        <path id="DejaVuSans-32" d="M 1228 531 
L 3431 531 
L 3431 0 
L 469 0 
L 469 531 
Q 828 903 1448 1529 
Q 2069 2156 2228 2338 
Q 2531 2678 2651 2914 
Q 2772 3150 2772 3378 
Q 2772 3750 2511 3984 
Q 2250 4219 1831 4219 
Q 1534 4219 1204 4116 
Q 875 4013 500 3803 
L 500 4441 
Q 881 4594 1212 4672 
Q 1544 4750 1819 4750 
Q 2544 4750 2975 4387 
Q 3406 4025 3406 3419 
Q 3406 3131 3298 2873 
Q 3191 2616 2906 2266 
Q 2828 2175 2409 1742 
Q 1991 1309 1228 531 
z
" transform="scale(0.015625)"/>
       </defs>
       <use xlink:href="#DejaVuSans-32"/>
       <use xlink:href="#DejaVuSans-30" x="63.623047"/>
       <use xlink:href="#DejaVuSans-30" x="127.246094"/>
       <use xlink:href="#DejaVuSans-30" x="190.869141"/>
      </g>
     </g>
    </g>
    <g id="xtick_6">
     <g id="line2d_6">
      <g>
       <use xlink:href="#m77cbea9a31" x="410.053259" y="307.584" style="stroke: #000000; stroke-width: 0.8"/>
      </g>
     </g>
     <g id="text_6">
      <!-- 2500 -->
      <g transform="translate(397.328259 322.182437)scale(0.1 -0.1)">
       <use xlink:href="#DejaVuSans-32"/>
       <use xlink:href="#DejaVuSans-35" x="63.623047"/>
       <use xlink:href="#DejaVuSans-30" x="127.246094"/>
       <use xlink:href="#DejaVuSans-30" x="190.869141"/>
      </g>
     </g>
    </g>
   </g>
   <g id="matplotlib.axis_2">
    <g id="ytick_1">
     <g id="line2d_7">
      <defs>
       <path id="md69e24be42" d="M 0 0 
L -3.5 0 
" style="stroke: #000000; stroke-width: 0.8"/>
      </defs>
      <g>
       <use xlink:href="#md69e24be42" x="57.6" y="279.446787" style="stroke: #000000; stroke-width: 0.8"/>
      </g>
     </g>
     <g id="text_7">
      <!-- 100 -->
      <g transform="translate(31.5125 283.246006)scale(0.1 -0.1)">
       <use xlink:href="#DejaVuSans-31"/>
       <use xlink:href="#DejaVuSans-30" x="63.623047"/>
       <use xlink:href="#DejaVuSans-30" x="127.246094"/>
      </g>
     </g>
    </g>
    <g id="ytick_2">
     <g id="line2d_8">
      <g>
       <use xlink:href="#md69e24be42" x="57.6" y="231.851173" style="stroke: #000000; stroke-width: 0.8"/>
      </g>
     </g>
     <g id="text_8">
      <!-- 200 -->
      <g transform="translate(31.5125 235.650392)scale(0.1 -0.1)">
       <use xlink:href="#DejaVuSans-32"/>
       <use xlink:href="#DejaVuSans-30" x="63.623047"/>
       <use xlink:href="#DejaVuSans-30" x="127.246094"/>
      </g>
     </g>
    </g>
    <g id="ytick_3">
     <g id="line2d_9">
      <g>
       <use xlink:href="#md69e24be42" x="57.6" y="184.25556" style="stroke: #000000; stroke-width: 0.8"/>
      </g>
     </g>
     <g id="text_9">
      <!-- 300 -->
      <g transform="translate(31.5125 188.054779)scale(0.1 -0.1)">
       <defs>
        <path id="DejaVuSans-33" d="M 2597 2516 
Q 3050 2419 3304 2112 
Q 3559 1806 3559 1356 
Q 3559 666 3084 287 
Q 2609 -91 1734 -91 
Q 1441 -91 1130 -33 
Q 819 25 488 141 
L 488 750 
Q 750 597 1062 519 
Q 1375 441 1716 441 
Q 2309 441 2620 675 
Q 2931 909 2931 1356 
Q 2931 1769 2642 2001 
Q 2353 2234 1838 2234 
L 1294 2234 
L 1294 2753 
L 1863 2753 
Q 2328 2753 2575 2939 
Q 2822 3125 2822 3475 
Q 2822 3834 2567 4026 
Q 2313 4219 1838 4219 
Q 1578 4219 1281 4162 
Q 984 4106 628 3988 
L 628 4550 
Q 988 4650 1302 4700 
Q 1616 4750 1894 4750 
Q 2613 4750 3031 4423 
Q 3450 4097 3450 3541 
Q 3450 3153 3228 2886 
Q 3006 2619 2597 2516 
z
" transform="scale(0.015625)"/>
       </defs>
       <use xlink:href="#DejaVuSans-33"/>
       <use xlink:href="#DejaVuSans-30" x="63.623047"/>
       <use xlink:href="#DejaVuSans-30" x="127.246094"/>
      </g>
     </g>
    </g>
    <g id="ytick_4">
     <g id="line2d_10">
      <g>
       <use xlink:href="#md69e24be42" x="57.6" y="136.659946" style="stroke: #000000; stroke-width: 0.8"/>
      </g>
     </g>
     <g id="text_10">
      <!-- 400 -->
      <g transform="translate(31.5125 140.459165)scale(0.1 -0.1)">
       <defs>
        <path id="DejaVuSans-34" d="M 2419 4116 
L 825 1625 
L 2419 1625 
L 2419 4116 
z
M 2253 4666 
L 3047 4666 
L 3047 1625 
L 3713 1625 
L 3713 1100 
L 3047 1100 
L 3047 0 
L 2419 0 
L 2419 1100 
L 313 1100 
L 313 1709 
L 2253 4666 
z
" transform="scale(0.015625)"/>
       </defs>
       <use xlink:href="#DejaVuSans-34"/>
       <use xlink:href="#DejaVuSans-30" x="63.623047"/>
       <use xlink:href="#DejaVuSans-30" x="127.246094"/>
      </g>
     </g>
    </g>
    <g id="ytick_5">
     <g id="line2d_11">
      <g>
       <use xlink:href="#md69e24be42" x="57.6" y="89.064333" style="stroke: #000000; stroke-width: 0.8"/>
      </g>
     </g>
     <g id="text_11">
      <!-- 500 -->
      <g transform="translate(31.5125 92.863551)scale(0.1 -0.1)">
       <use xlink:href="#DejaVuSans-35"/>
       <use xlink:href="#DejaVuSans-30" x="63.623047"/>
       <use xlink:href="#DejaVuSans-30" x="127.246094"/>
      </g>
     </g>
    </g>
   </g>
   <g id="line2d_12">
    <path d="M 73.832727 282.504329 
L 74.101704 281.957456 
L 74.236192 280.85181 
L 74.37068 281.811337 
L 74.505168 281.321102 
L 74.639657 281.920331 
L 74.774145 275.477789 
L 74.908633 248.484413 
L 75.177609 246.998002 
L 75.312098 247.551063 
L 75.446586 247.603418 
L 75.581074 248.466326 
L 75.715562 247.713364 
L 75.85005 247.69147 
L 76.253515 242.728199 
L 76.522492 276.634838 
L 76.65698 276.946589 
L 76.925956 275.247426 
L 77.060444 266.430815 
L 77.194933 268.664477 
L 77.463909 268.727779 
L 77.598397 270.305098 
L 77.732885 265.00247 
L 77.867374 251.654756 
L 78.405327 103.884179 
L 78.674303 102.966535 
L 78.808791 110.073037 
L 78.943279 105.291581 
L 79.481232 157.756226 
L 79.750209 227.820301 
L 80.019185 262.388043 
L 80.153673 264.502716 
L 80.288161 260.685072 
L 80.42265 271.034738 
L 80.557138 270.602094 
L 80.826114 273.098484 
L 80.960603 270.569729 
L 81.095091 260.301927 
L 81.364067 167.898375 
L 81.498555 180.144251 
L 81.767532 160.826143 
L 82.036508 168.793173 
L 82.170996 165.706121 
L 82.305485 159.758098 
L 83.112414 259.825971 
L 83.650367 285.892661 
L 83.784855 285.913127 
L 83.919343 287.434759 
L 84.053831 287.626093 
L 84.18832 285.53855 
L 84.322808 278.346376 
L 84.726273 188.617698 
L 84.860761 179.991469 
L 84.995249 184.069461 
L 85.129737 169.254374 
L 85.264225 177.757807 
L 85.398714 178.501726 
L 85.66769 186.760517 
L 85.802178 195.49098 
L 86.340131 261.942072 
L 86.474619 263.945848 
L 86.609107 268.833917 
L 86.878084 286.27295 
L 87.012572 288.513751 
L 87.14706 288.188673 
L 87.281549 289.672705 
L 87.416037 289.576086 
L 87.550525 288.768388 
L 87.819501 261.389011 
L 87.95399 261.534178 
L 88.088478 255.873632 
L 88.222966 257.326726 
L 88.357454 256.572335 
L 88.491942 253.229219 
L 88.626431 256.051163 
L 88.760919 249.088877 
L 88.895407 251.953181 
L 89.029895 251.951753 
L 89.164384 254.500974 
L 89.43336 275.705296 
L 89.567848 277.361147 
L 89.702336 276.865201 
L 89.836825 277.920396 
L 89.971313 262.839726 
L 90.105801 263.549852 
L 90.240289 265.08719 
L 90.374777 264.85778 
L 90.509266 266.088126 
L 90.643754 266.258994 
L 90.778242 268.348918 
L 90.91273 265.140498 
L 91.047218 255.246797 
L 91.181707 254.081181 
L 91.316195 247.181245 
L 91.450683 251.595738 
L 91.585171 249.638606 
L 91.71966 251.130253 
L 91.854148 251.35538 
L 92.123124 254.32487 
L 92.257612 253.754675 
L 92.526589 259.32479 
L 92.795565 265.892508 
L 92.930053 266.843469 
L 93.064542 265.707837 
L 93.19903 275.681974 
L 93.468006 275.806199 
L 93.602495 276.862345 
L 93.736983 275.633427 
L 93.871471 273.120854 
L 94.005959 267.923413 
L 94.6784 161.112193 
L 94.812888 156.732444 
L 95.081865 168.5452 
L 95.216353 163.349187 
L 95.350841 152.127093 
L 96.023282 264.271402 
L 96.157771 264.998187 
L 96.426747 268.910546 
L 96.561235 268.578329 
L 96.695723 268.655434 
L 96.830212 270.531177 
L 96.9647 269.895775 
L 97.099188 268.473618 
L 97.233676 260.037296 
L 97.368164 242.539244 
L 97.502653 201.668415 
L 97.637141 194.598563 
L 97.771629 179.182819 
L 97.906117 187.547748 
L 98.040606 180.859137 
L 98.175094 181.566408 
L 98.309582 176.266636 
L 98.44407 177.902973 
L 98.713047 189.230729 
L 98.982023 231.024438 
L 99.250999 265.747818 
L 99.385488 270.417423 
L 99.519976 271.168958 
L 99.654464 280.93891 
L 99.788952 280.951284 
L 99.923441 279.95368 
L 100.192417 281.187359 
L 100.326905 281.267795 
L 100.461393 280.615259 
L 100.595882 281.019822 
L 100.73037 281.845606 
L 100.864858 280.312551 
L 100.999346 281.464365 
L 101.133834 280.559573 
L 101.268323 278.352088 
L 101.402811 271.351725 
L 101.537299 275.608677 
L 101.806276 265.259487 
L 101.940764 267.412712 
L 102.075252 267.26469 
L 102.20974 267.910562 
L 102.344228 270.280824 
L 102.478717 276.078446 
L 102.613205 274.232688 
L 102.747693 279.882763 
L 102.882181 266.472699 
L 103.016669 266.501256 
L 103.151158 271.390278 
L 103.285646 271.171814 
L 103.554622 267.00577 
L 103.68911 262.83211 
L 103.823599 245.467803 
L 104.092575 183.419305 
L 104.227063 162.01175 
L 104.361552 169.151092 
L 104.630528 144.364248 
L 105.033993 159.627686 
L 105.168481 170.36954 
L 105.706434 253.140691 
L 105.840922 253.018847 
L 105.97541 261.68696 
L 106.109898 278.061279 
L 106.378875 281.239238 
L 106.513363 281.225435 
L 106.647851 283.374853 
L 106.782339 283.107366 
L 106.916828 284.214916 
L 107.320292 246.77573 
L 107.45478 253.814645 
L 107.589269 251.289698 
L 107.723757 251.382034 
L 108.26171 246.336898 
L 108.396198 242.941903 
L 108.530686 245.193652 
L 108.934151 276.691953 
L 109.068639 278.201686 
L 109.203127 277.1384 
L 109.337615 272.658701 
L 109.606592 274.20175 
L 109.875568 275.250282 
L 110.144545 276.295482 
L 110.413521 275.062279 
L 110.548009 274.92806 
L 110.951474 270.893379 
L 111.085962 272.062328 
L 111.22045 271.716308 
L 111.623915 265.94296 
L 111.758403 266.448901 
L 112.02738 270.215618 
L 112.430844 271.806739 
L 112.565333 261.606523 
L 112.834309 265.789226 
L 112.968797 266.310398 
L 113.103285 267.812991 
L 113.237774 267.990523 
L 113.50675 270.595907 
L 113.641238 271.422167 
L 114.313679 260.241481 
L 114.448168 259.882134 
L 114.582656 258.407146 
L 114.98612 247.629119 
L 115.524073 258.637033 
L 115.658561 259.184382 
L 115.927538 261.399006 
L 116.062026 260.12154 
L 116.196514 266.188077 
L 116.331002 265.773043 
L 116.465491 266.380839 
L 116.599979 256.675618 
L 117.137932 78.987865 
L 117.406908 64.367921 
L 117.810373 80.815061 
L 118.213837 147.64073 
L 118.482814 209.632113 
L 118.75179 243.872398 
L 118.886279 245.397837 
L 119.289743 253.347256 
L 119.424231 254.757514 
L 119.55872 257.5133 
L 119.693208 257.828383 
L 119.827696 248.265949 
L 120.365649 91.773951 
L 120.634625 73.310661 
L 120.769114 76.98171 
L 120.903602 70.597711 
L 121.03809 71.918489 
L 121.441555 134.998859 
L 121.710531 201.460422 
L 121.845019 229.48472 
L 122.248484 240.388875 
L 122.51746 255.818897 
L 122.651948 255.97739 
L 122.786437 257.706539 
L 122.920925 256.373386 
L 123.055413 248.257857 
L 123.727854 60.433191 
L 123.862342 53.568 
L 124.534783 107.400543 
L 125.072736 247.562961 
L 125.207225 252.705192 
L 125.341713 253.165917 
L 125.476201 253.119749 
L 125.745177 266.644043 
L 125.879666 268.072863 
L 126.014154 268.301322 
L 126.28313 254.924575 
L 126.821083 92.87341 
L 126.955571 74.623824 
L 127.09006 81.185355 
L 127.359036 105.58715 
L 127.493524 108.01643 
L 127.762501 126.411183 
L 127.896989 149.087637 
L 128.300453 245.95423 
L 128.434942 251.724246 
L 128.56943 249.907045 
L 128.703918 257.366706 
L 128.838406 258.086828 
L 129.241871 264.743074 
L 129.510847 244.146548 
L 130.0488 83.347148 
L 130.183288 74.28875 
L 130.317777 86.141486 
L 130.452265 114.80642 
L 130.586753 113.89306 
L 130.721241 110.265799 
L 130.855729 116.620765 
L 131.124706 169.600394 
L 131.393682 234.883966 
L 131.662659 257.857893 
L 131.931635 257.662751 
L 132.066123 257.481411 
L 132.3351 268.69113 
L 132.469588 268.543584 
L 132.604076 268.642107 
L 132.738564 268.600699 
L 133.007541 256.775092 
L 133.276517 246.373071 
L 133.679982 240.825802 
L 133.81447 239.650191 
L 133.948958 234.579354 
L 134.486911 244.401661 
L 134.755888 251.449143 
L 134.890376 251.334914 
L 135.697305 265.498417 
L 135.831793 270.222281 
L 135.966282 270.828173 
L 136.10077 268.856763 
L 136.235258 270.351741 
L 136.369746 270.079018 
L 136.504234 265.803504 
L 136.638723 265.645487 
L 136.907699 263.721672 
L 137.311164 252.899858 
L 137.445652 253.406751 
L 137.58014 250.739493 
L 137.983605 257.514252 
L 138.118093 256.617551 
L 138.252581 258.441891 
L 138.387069 262.908263 
L 138.521558 261.6822 
L 138.656046 261.882102 
L 138.925022 266.550756 
L 139.193999 250.399184 
L 139.731951 81.503769 
L 139.86644 72.637183 
L 140.269904 98.500163 
L 140.538881 122.789633 
L 140.673369 129.840447 
L 140.807857 144.119607 
L 141.076834 223.77753 
L 141.480298 256.779852 
L 142.018251 265.170959 
L 142.152739 264.709757 
L 142.421716 241.107092 
L 142.959669 91.446017 
L 143.094157 84.071553 
L 143.228645 83.586553 
L 143.363133 93.75488 
L 143.497621 84.532754 
L 143.63211 89.63072 
L 144.573527 258.02067 
L 144.708015 261.490866 
L 144.842504 261.665542 
L 145.11148 263.895396 
L 145.245968 266.026728 
L 145.380456 261.971582 
L 145.783921 201.145815 
L 146.052897 109.964519 
L 146.187386 90.950071 
L 146.456362 106.178287 
L 146.59085 117.437506 
L 146.725339 111.778387 
L 146.859827 119.151424 
L 146.994315 114.102005 
L 147.128803 126.890947 
L 147.532268 233.575087 
L 147.801244 259.450442 
L 147.935732 259.651771 
L 148.204709 264.895856 
L 148.339197 264.874438 
L 148.473685 265.37562 
L 148.742662 264.327564 
L 148.87715 246.729086 
L 149.280615 119.016252 
L 149.415103 114.996327 
L 149.549591 105.956968 
L 149.684079 107.206829 
L 150.087544 139.76556 
L 150.222032 132.108854 
L 150.35652 137.603291 
L 150.894473 251.906061 
L 151.028961 261.035852 
L 151.16345 260.082512 
L 151.835891 268.22041 
L 151.970379 266.95389 
L 152.104867 246.100348 
L 152.508332 113.03396 
L 152.64282 116.128626 
L 152.911796 104.329198 
L 153.046285 118.414168 
L 153.180773 116.920141 
L 153.449749 151.236579 
L 153.718726 191.997462 
L 153.987702 248.364948 
L 154.12219 265.338495 
L 154.256678 266.711153 
L 154.525655 270.555926 
L 154.794631 272.252234 
L 155.063608 275.183648 
L 155.198096 276.818081 
L 155.332584 276.177444 
L 155.467072 271.816258 
L 155.601561 261.387583 
L 155.736049 260.530386 
L 155.870537 257.677981 
L 156.005025 259.807409 
L 156.274002 257.918815 
L 156.40849 258.452838 
L 156.542978 259.700795 
L 156.677466 258.509477 
L 157.215419 266.482694 
L 157.349907 268.479806 
L 157.484396 267.492197 
L 157.618884 268.258962 
L 157.88786 271.420739 
L 158.022348 271.899551 
L 158.291325 274.885223 
L 158.560301 279.147411 
L 158.694789 277.588178 
L 158.829278 278.548182 
L 158.963766 278.153614 
L 159.232742 275.451611 
L 159.367231 275.732425 
L 159.501719 273.757683 
L 160.039672 259.737443 
L 160.308648 259.995412 
L 160.443136 265.688799 
L 160.577624 265.406557 
L 160.712113 263.459896 
L 160.846601 264.1586 
L 160.981089 265.644059 
L 161.250066 269.384122 
L 161.519042 270.331275 
L 161.788018 253.642349 
L 162.460459 83.771224 
L 162.594948 83.436151 
L 162.729436 81.983533 
L 162.998412 101.486788 
L 163.132901 110.391927 
L 163.401877 151.473605 
L 163.670853 221.887032 
L 164.074318 255.824132 
L 164.208806 256.952148 
L 164.477783 269.550707 
L 164.612271 271.901454 
L 164.746759 267.220426 
L 165.015735 249.78996 
L 165.4192 120.621652 
L 165.553688 123.20895 
L 165.822665 109.379092 
L 165.957153 114.610802 
L 166.091641 111.539933 
L 166.360618 100.137928 
L 166.495106 106.303464 
L 166.89857 220.991758 
L 167.033059 227.931675 
L 167.302035 246.237424 
L 167.974476 264.617422 
L 168.108964 258.969726 
L 168.243453 245.021832 
L 168.377941 207.119541 
L 168.646917 106.130216 
L 168.781405 107.407206 
L 168.915894 102.902281 
L 169.050382 104.196406 
L 169.18487 107.974546 
L 169.319358 92.717296 
L 169.453847 95.184177 
L 169.857311 148.314684 
L 170.126288 226.153027 
L 170.395264 256.826972 
L 170.529752 257.702731 
L 170.66424 261.123904 
L 170.798729 261.312382 
L 171.067705 263.628861 
L 171.202193 266.450329 
L 171.47117 244.762912 
L 172.009123 110.173939 
L 172.143611 108.604712 
L 172.412587 96.901426 
L 172.95054 129.253117 
L 173.622981 258.787435 
L 173.757469 262.758337 
L 173.891958 276.077018 
L 174.026446 275.152235 
L 174.160934 275.108447 
L 174.42991 276.632458 
L 174.698887 261.909231 
L 174.833375 244.863814 
L 175.102351 176.655968 
L 175.371328 143.434706 
L 175.505816 140.548032 
L 175.640304 150.668287 
L 175.774792 150.359392 
L 175.909281 151.762034 
L 176.043769 156.547297 
L 176.178257 156.240782 
L 176.312745 170.649878 
L 176.581722 238.010522 
L 176.850698 265.016749 
L 176.985186 262.533686 
L 177.254163 267.247555 
L 177.388651 267.204243 
L 177.792116 273.734362 
L 177.926604 274.621068 
L 178.19558 263.951559 
L 178.330069 263.513204 
L 178.599045 255.978818 
L 178.733533 255.415762 
L 178.868021 257.714154 
L 179.136998 254.218732 
L 179.271486 254.812249 
L 179.540462 252.336802 
L 179.809439 259.812169 
L 179.943927 267.052889 
L 180.212904 265.15906 
L 180.48188 274.986602 
L 180.616368 275.000405 
L 180.750856 275.371175 
L 180.885345 276.199338 
L 181.019833 276.285486 
L 181.692274 264.023904 
L 181.826762 265.314697 
L 181.96125 259.354299 
L 182.095738 261.129615 
L 182.364715 266.546948 
L 182.499203 267.820131 
L 182.633691 270.95573 
L 182.902668 270.140893 
L 183.171644 276.248362 
L 183.306132 277.659096 
L 183.440621 276.55345 
L 183.575109 274.260293 
L 183.844085 285.948824 
L 183.978573 286.896453 
L 184.113062 284.626142 
L 184.382038 273.283155 
L 184.919991 181.900053 
L 185.054479 185.900464 
L 185.188967 178.85441 
L 185.457944 182.700135 
L 185.592432 184.193686 
L 185.995897 221.806595 
L 186.264873 252.28873 
L 186.53385 267.986239 
L 186.802826 278.201686 
L 187.071802 288.659394 
L 187.206291 287.513292 
L 187.340779 288.643212 
L 187.475267 285.477627 
L 187.609755 277.50917 
L 188.01322 201.884023 
L 188.147708 185.545877 
L 188.282196 185.763865 
L 188.416684 184.809097 
L 188.551173 188.108901 
L 188.685661 194.486713 
L 188.820149 190.091258 
L 188.954637 194.510035 
L 189.089126 202.851642 
L 189.627078 264.623609 
L 189.761567 267.202815 
L 189.896055 272.419295 
L 190.030543 269.992394 
L 190.299519 271.81721 
L 190.434008 270.650166 
L 190.971961 274.062295 
L 191.106449 270.62256 
L 191.240937 270.138989 
L 191.375425 270.575917 
L 191.509913 266.163327 
L 191.644402 267.706853 
L 191.913378 266.445569 
L 192.182354 260.829763 
L 192.316843 261.177211 
L 192.451331 260.680789 
L 192.585819 261.996807 
L 192.720307 267.745881 
L 192.989284 268.999074 
L 193.392748 266.321345 
L 193.661725 269.193264 
L 193.796213 269.725859 
L 194.065189 261.866871 
L 194.603142 158.486819 
L 194.73763 153.592562 
L 194.872119 143.676016 
L 195.006607 145.246195 
L 195.141095 149.973391 
L 195.275583 142.600831 
L 195.54456 155.947117 
L 195.948024 249.642414 
L 196.217001 259.942581 
L 196.351489 261.862588 
L 196.485977 271.302702 
L 196.620465 270.652546 
L 196.889442 271.20751 
L 197.02393 272.332195 
L 197.158418 270.608282 
L 197.292907 264.308526 
L 197.830859 195.828909 
L 197.965348 198.132537 
L 198.099836 194.82607 
L 198.234324 199.214861 
L 198.5033 185.935209 
L 198.772277 199.687962 
L 199.31023 271.976656 
L 199.713694 281.057899 
L 199.848183 279.893234 
L 200.117159 280.618591 
L 200.251647 278.841371 
L 200.386135 273.082302 
L 200.520624 272.680595 
L 200.655112 259.766953 
L 200.7896 212.705838 
L 200.924088 210.742519 
L 201.058576 199.098728 
L 201.193065 198.741761 
L 201.327553 196.065935 
L 201.462041 198.23106 
L 201.731018 186.471612 
L 201.865506 187.828087 
L 202.134482 210.445522 
L 202.403459 263.734999 
L 202.806923 273.500191 
L 203.0759 265.057681 
L 203.210388 269.369844 
L 203.344876 269.495496 
L 203.748341 260.151049 
L 203.882829 242.82339 
L 204.151805 181.074745 
L 204.420782 164.659018 
L 204.55527 159.049399 
L 204.689758 162.474379 
L 204.824246 155.997092 
L 204.958735 171.965896 
L 205.093223 172.21149 
L 205.765664 259.572287 
L 205.900152 260.08156 
L 206.03464 263.868743 
L 206.169129 278.667171 
L 206.303617 279.146459 
L 206.572593 283.071669 
L 206.84157 283.880318 
L 207.110546 274.523973 
L 207.379522 265.372288 
L 207.514011 264.497481 
L 207.917475 272.587783 
L 208.051964 272.34219 
L 208.32094 266.00293 
L 208.589916 267.599287 
L 208.858893 275.623431 
L 208.993381 279.264496 
L 209.127869 279.846114 
L 209.262357 279.304 
L 209.396846 273.469254 
L 209.531334 274.563001 
L 209.80031 274.149395 
L 209.934799 275.137004 
L 210.203775 262.997267 
L 211.010704 108.399099 
L 211.279681 133.934145 
L 211.683145 166.922665 
L 212.221098 254.2649 
L 212.355586 256.720358 
L 212.759051 271.909546 
L 212.893539 271.702981 
L 213.028027 271.802932 
L 213.162516 274.44306 
L 213.431492 256.79889 
L 213.56598 218.846624 
L 213.834957 135.208756 
L 213.969445 139.778887 
L 214.103933 138.691327 
L 214.238421 141.642731 
L 214.910862 179.836307 
L 215.448815 259.865 
L 215.583303 264.814944 
L 215.717792 265.430831 
L 216.121256 269.679691 
L 216.255745 270.633983 
L 216.390233 273.017096 
L 216.524721 269.021444 
L 216.659209 261.526563 
L 217.062674 148.802063 
L 217.197162 150.708268 
L 217.33165 150.788704 
L 217.466138 162.218315 
L 217.600627 160.938469 
L 217.735115 149.120002 
L 217.869603 154.334577 
L 218.273068 196.396249 
L 218.542044 255.036425 
L 218.811021 271.783417 
L 218.945509 264.387059 
L 219.483462 275.074654 
L 219.61795 276.867581 
L 219.886926 263.158616 
L 220.290391 161.879434 
L 220.693856 150.254205 
L 220.828344 160.886114 
L 220.962832 156.977086 
L 221.231808 184.049471 
L 221.500785 197.873617 
L 221.769761 254.900301 
L 222.038738 270.486437 
L 222.173226 269.735854 
L 222.307714 270.957157 
L 222.576691 276.989902 
L 222.845667 279.620987 
L 222.980155 277.953713 
L 223.114643 279.821365 
L 223.38362 259.330501 
L 223.518108 263.183842 
L 223.652596 263.027728 
L 223.921573 256.086384 
L 224.190549 255.415762 
L 224.325037 257.897873 
L 224.459525 257.271039 
L 224.728502 253.422457 
L 225.131967 260.672221 
L 225.266455 259.190094 
L 225.535431 260.658419 
L 225.669919 259.349063 
L 226.073384 269.091409 
L 226.34236 272.114683 
L 226.476849 272.042813 
L 226.745825 268.903883 
L 226.880313 271.182285 
L 227.014802 271.425022 
L 227.14929 271.128502 
L 227.283778 269.71158 
L 227.418266 271.385518 
L 227.552754 271.514026 
L 227.687243 271.345062 
L 227.956219 270.237988 
L 228.090707 276.044653 
L 228.225195 276.083681 
L 228.359684 277.183616 
L 228.494172 276.412091 
L 228.62866 277.381613 
L 228.763148 277.267384 
L 228.897637 274.982794 
L 229.301101 275.885207 
L 229.435589 269.681119 
L 229.570078 255.619471 
L 230.242519 94.433594 
L 230.377007 79.619459 
L 230.511495 109.553292 
L 230.780471 117.492241 
L 231.049448 144.919213 
L 231.587401 253.464342 
L 231.856377 264.670253 
L 232.125354 269.47741 
L 232.39433 274.127025 
L 232.528818 273.314568 
L 232.797795 256.236786 
L 232.932283 220.02176 
L 233.201259 132.997464 
L 233.335748 124.83434 
L 233.470236 135.114993 
L 233.604724 135.336788 
L 233.739212 148.109071 
L 233.8737 133.394887 
L 234.008189 140.107297 
L 234.815118 264.089586 
L 234.949606 263.823527 
L 235.218583 269.718244 
L 235.622047 277.443964 
L 235.756535 276.847115 
L 236.025512 264.210479 
L 236.563465 128.848554 
L 236.832441 116.655986 
L 237.63937 200.218653 
L 237.908347 258.200105 
L 238.177323 266.276129 
L 238.849764 281.1707 
L 238.984252 280.347296 
L 239.118741 276.554878 
L 239.253229 262.676473 
L 239.791182 128.079885 
L 240.194646 145.786881 
L 240.463623 164.883193 
L 240.732599 178.318483 
L 241.270552 255.672302 
L 241.674017 261.538462 
L 241.942993 274.461147 
L 242.077481 280.950333 
L 242.21197 280.325402 
L 242.480946 262.386139 
L 242.884411 150.824401 
L 243.018899 158.683865 
L 243.153387 156.440683 
L 243.287875 145.479889 
L 243.422363 153.447871 
L 243.556852 150.640682 
L 243.825828 167.254407 
L 244.229293 239.128067 
L 244.498269 261.478015 
L 244.767246 266.742566 
L 245.17071 274.587275 
L 245.305198 275.450659 
L 245.439687 275.155567 
L 245.574175 273.929028 
L 245.708663 262.492754 
L 245.843151 267.931504 
L 246.112128 264.954875 
L 246.381104 259.785039 
L 246.515592 259.751722 
L 247.188033 269.975736 
L 247.322522 270.380299 
L 247.45701 271.245587 
L 247.591498 270.891951 
L 247.725986 274.048969 
L 247.860475 272.613961 
L 248.129451 273.934739 
L 248.263939 273.053268 
L 248.398427 273.734362 
L 248.532916 273.58158 
L 248.667404 275.522529 
L 248.801892 275.424006 
L 249.205357 276.95944 
L 249.339845 277.075574 
L 249.608821 276.129373 
L 249.743309 276.260737 
L 249.877798 275.96136 
L 250.550239 272.802915 
L 250.819215 273.102292 
L 250.953703 273.879052 
L 251.088192 272.745801 
L 251.357168 274.000421 
L 251.491656 282.876051 
L 251.626144 282.38772 
L 251.760633 282.817032 
L 251.895121 282.657587 
L 252.164097 270.445505 
L 252.70205 143.372356 
L 252.836538 163.05457 
L 252.971027 159.619594 
L 253.240003 172.493732 
L 253.374491 173.843067 
L 253.508979 170.925456 
L 253.777956 203.65696 
L 254.046932 254.876028 
L 254.315909 276.145079 
L 254.719373 284.477643 
L 254.853862 284.238237 
L 255.122838 285.96691 
L 255.391814 265.258059 
L 255.660791 172.284787 
L 255.795279 175.722618 
L 256.198744 160.092695 
L 256.333232 163.756129 
L 256.46772 161.098866 
L 256.602208 162.291612 
L 257.409138 257.111593 
L 257.812602 264.562687 
L 258.081579 279.727601 
L 258.216067 280.788507 
L 258.350555 280.061246 
L 258.619532 265.929633 
L 258.888508 177.075762 
L 259.022996 177.942478 
L 259.157484 168.914542 
L 259.291973 168.340539 
L 259.426461 152.898618 
L 259.695437 166.560939 
L 259.829925 155.460214 
L 259.964414 164.50814 
L 260.771343 260.173419 
L 261.040319 262.405654 
L 261.309296 269.883876 
L 261.443784 273.088965 
L 261.71276 270.182777 
L 261.847249 257.826004 
L 262.116225 169.912146 
L 262.250713 174.067719 
L 262.654178 147.711648 
L 262.788666 154.991873 
L 262.923154 150.235167 
L 263.326619 185.286005 
L 263.461107 196.153511 
L 263.864572 244.792421 
L 264.268036 262.784991 
L 264.402525 262.029648 
L 264.671501 265.449869 
L 264.805989 265.324217 
L 264.940478 264.376112 
L 265.074966 256.829351 
L 265.209454 237.766832 
L 265.612919 123.793424 
L 265.881895 105.732317 
L 266.016383 115.207175 
L 266.150871 115.076763 
L 266.28536 114.629841 
L 266.419848 119.248043 
L 266.688824 156.416885 
L 266.957801 235.005811 
L 267.226777 251.624295 
L 267.361265 250.205946 
L 267.495754 266.52791 
L 267.630242 266.212827 
L 267.76473 268.076671 
L 267.899218 268.386994 
L 268.168195 274.889507 
L 268.302683 275.77193 
L 268.437171 273.217473 
L 268.706147 275.746704 
L 268.975124 272.261753 
L 269.2441 270.382202 
L 269.916541 255.929318 
L 270.320006 257.813629 
L 270.588982 262.686944 
L 270.723471 276.745736 
L 270.857959 277.782844 
L 270.992447 276.308808 
L 271.126935 277.189803 
L 271.261424 277.219312 
L 271.395912 277.033689 
L 271.799376 279.803754 
L 271.933865 278.422054 
L 272.068353 278.776165 
L 272.202841 278.133148 
L 272.337329 278.368746 
L 272.471817 277.527732 
L 272.606306 275.367843 
L 272.740794 276.647213 
L 272.875282 276.325467 
L 273.00977 275.650085 
L 273.144258 273.321708 
L 273.278747 273.222233 
L 273.547723 276.193151 
L 273.682211 276.406855 
L 273.8167 277.0889 
L 273.951188 276.229324 
L 274.085676 286.854092 
L 274.354652 288.482814 
L 274.489141 286.914539 
L 274.758117 272.227484 
L 275.29607 165.945051 
L 275.565046 153.732017 
L 275.699535 154.068518 
L 275.834023 171.98779 
L 275.968511 174.265241 
L 276.102999 184.402154 
L 276.77544 263.567938 
L 277.447881 280.936054 
L 277.58237 284.326289 
L 277.716858 283.936005 
L 277.851346 279.545786 
L 277.985834 269.580692 
L 278.389299 209.184238 
L 278.523787 189.734291 
L 278.658275 187.739559 
L 278.792763 178.241378 
L 278.927252 190.349702 
L 279.06174 184.539706 
L 279.196228 186.626773 
L 279.330716 194.308705 
L 280.137646 273.922364 
L 280.272134 276.304525 
L 280.406622 267.962917 
L 280.54111 267.679248 
L 280.810087 268.848196 
L 280.944575 268.226121 
L 281.213551 260.320966 
L 281.348039 231.421385 
L 281.482528 161.077448 
L 281.617016 150.886275 
L 281.751504 127.526824 
L 281.885992 128.676734 
L 282.154969 142.163903 
L 282.289457 124.07757 
L 282.423945 128.158894 
L 282.558433 137.25394 
L 282.82741 185.61965 
L 283.096386 254.063094 
L 283.365363 260.682216 
L 283.499851 262.885893 
L 283.634339 262.215747 
L 283.768827 262.226218 
L 283.903316 262.415173 
L 284.037804 263.717865 
L 284.172292 263.846849 
L 284.441268 258.661783 
L 285.113709 143.570829 
L 285.248198 142.496596 
L 285.382686 137.966922 
L 285.517174 147.193807 
L 285.651662 144.097713 
L 285.78615 147.581236 
L 286.055127 200.625595 
L 286.324103 250.121702 
L 286.59308 259.784087 
L 286.727568 259.662718 
L 286.862056 278.570076 
L 286.996544 278.629094 
L 287.131033 277.652908 
L 287.265521 278.257373 
L 287.668985 274.736725 
L 287.803474 275.612484 
L 288.07245 274.739105 
L 288.206938 272.571601 
L 288.341427 272.51639 
L 288.475915 270.17421 
L 288.610403 269.803916 
L 288.744891 268.682087 
L 288.879379 271.504983 
L 289.013868 271.843864 
L 289.148356 269.038578 
L 289.417332 276.179824 
L 289.55182 277.364479 
L 289.820797 277.003704 
L 289.955285 277.792364 
L 290.089773 276.295957 
L 290.224262 277.839959 
L 290.35875 276.934691 
L 290.493238 277.91278 
L 290.627726 276.374014 
L 291.031191 258.430944 
L 291.300167 192.37442 
L 291.434655 186.800973 
L 291.569144 187.407341 
L 291.703632 191.462488 
L 291.972608 178.74256 
L 292.376073 191.796609 
L 293.048514 268.040498 
L 293.183002 269.284648 
L 293.31749 268.135214 
L 293.451979 268.88532 
L 293.586467 267.957682 
L 293.720955 270.427894 
L 293.855443 270.690622 
L 294.258908 246.817138 
L 294.527884 188.943728 
L 294.796861 157.324534 
L 294.931349 141.487093 
L 295.065837 141.35335 
L 295.200325 149.309432 
L 295.334814 143.600815 
L 295.60379 171.602266 
L 295.738278 186.063717 
L 296.141743 256.126364 
L 296.276231 255.23823 
L 296.410719 262.422312 
L 296.545208 280.064578 
L 296.948672 282.223515 
L 297.486625 284.184454 
L 297.621113 283.839862 
L 297.755601 283.836055 
L 298.024578 280.670946 
L 298.159066 280.52102 
L 298.428042 278.384929 
L 298.697019 274.569665 
L 298.831507 273.437365 
L 298.965995 273.29553 
L 299.100484 273.650117 
L 299.36946 277.423973 
L 299.503948 276.918984 
L 299.638436 278.45775 
L 299.772925 268.826778 
L 299.907413 272.218917 
L 300.041901 271.918113 
L 300.176389 272.781973 
L 300.310877 272.499255 
L 300.579854 261.561307 
L 301.252295 127.857613 
L 301.386783 127.926151 
L 301.521271 141.079199 
L 301.65576 134.157845 
L 301.790248 143.544652 
L 302.597177 252.022195 
L 302.731665 253.769905 
L 303.000642 266.140957 
L 303.13513 266.364657 
L 303.269618 266.843469 
L 303.404106 269.295595 
L 303.538595 269.713484 
L 303.807571 253.403419 
L 304.345524 163.892729 
L 304.6145 153.401227 
L 304.748988 161.614326 
L 304.883477 152.069502 
L 305.017965 158.131755 
L 306.093871 264.596956 
L 306.228359 265.604555 
L 306.497335 275.72957 
L 306.766312 276.756207 
L 306.9008 272.061852 
L 307.035288 261.554168 
L 307.304265 169.354325 
L 307.438753 176.594094 
L 307.842217 157.390216 
L 307.976706 164.420088 
L 308.111194 156.026601 
L 308.245682 160.974165 
L 308.649147 206.837775 
L 309.052611 263.03344 
L 309.590564 275.227436 
L 309.994029 276.925647 
L 310.128517 273.383106 
L 310.263005 260.805013 
L 310.531982 169.243427 
L 310.66647 170.391434 
L 310.935446 168.109224 
L 311.069934 158.786195 
L 311.204423 165.222074 
L 311.338911 163.935089 
L 311.473399 157.181747 
L 311.607887 170.278632 
L 311.876864 207.742091 
L 312.14584 249.94179 
L 312.414817 261.71171 
L 312.818281 270.29653 
L 312.952769 269.863886 
L 313.087258 271.743913 
L 313.221746 271.64539 
L 313.356234 273.217473 
L 313.625211 262.693131 
L 313.759699 254.825576 
L 313.894187 258.168216 
L 314.028675 255.647076 
L 314.163163 257.524723 
L 314.297652 254.772745 
L 314.566628 261.31619 
L 314.701116 262.048686 
L 314.970093 266.787782 
L 315.104581 266.750181 
L 315.239069 266.454612 
L 315.508045 269.378411 
L 315.642534 269.913862 
L 315.777022 269.5845 
L 316.180487 272.565413 
L 316.314975 272.127058 
L 316.718439 274.474473 
L 316.852928 274.722922 
L 316.987416 273.871913 
L 317.121904 273.937119 
L 317.256392 272.820526 
L 317.39088 272.96474 
L 317.525369 271.430258 
L 317.659857 272.346949 
L 317.928833 269.834853 
L 318.332298 266.109068 
L 318.466786 266.761604 
L 318.601274 266.260422 
L 318.735763 267.712564 
L 318.870251 267.549312 
L 319.139227 268.662573 
L 319.273715 278.470601 
L 319.67718 279.585766 
L 319.811668 277.014175 
L 319.946157 269.082366 
L 320.349621 147.433213 
L 320.484109 131.327334 
L 320.887574 158.529655 
L 321.022062 163.183078 
L 321.291039 177.924391 
L 321.425527 179.719698 
L 321.560015 198.108739 
L 321.828991 253.481952 
L 321.96348 261.547029 
L 322.097968 262.331404 
L 322.635921 278.98511 
L 322.770409 279.33113 
L 322.904897 278.673834 
L 323.173874 268.270861 
L 323.44285 173.069639 
L 323.577338 173.430414 
L 323.711826 173.631267 
L 323.980803 153.510221 
L 324.249779 157.039436 
L 324.384268 159.798078 
L 324.787732 195.940759 
L 325.056709 250.31256 
L 325.325685 259.558484 
L 325.863638 277.331162 
L 325.998126 279.093628 
L 326.132614 279.158834 
L 326.267103 275.954697 
L 326.401591 266.980544 
L 326.670567 165.898884 
L 326.805055 171.837864 
L 326.939544 173.006813 
L 327.20852 159.817116 
L 327.343008 167.93788 
L 327.611985 164.194485 
L 327.746473 169.04067 
L 328.149937 223.584291 
L 328.418914 254.343433 
L 328.68789 267.118571 
L 328.822379 269.564986 
L 328.956867 279.583386 
L 329.225843 280.527683 
L 329.360331 279.682861 
L 329.629308 266.886305 
L 330.032772 178.119533 
L 330.301749 166.812243 
L 330.570725 158.028473 
L 330.839702 179.821077 
L 330.97419 181.030005 
L 331.108678 183.767705 
L 331.781119 259.439495 
L 332.050096 266.582645 
L 332.184584 277.326878 
L 332.319072 278.280219 
L 332.45356 277.617212 
L 332.588049 278.601965 
L 332.857025 266.029584 
L 333.26049 177.489843 
L 333.394978 179.394144 
L 333.663954 164.525274 
L 333.798442 165.714213 
L 333.932931 169.470458 
L 334.336395 187.284069 
L 334.73986 254.827004 
L 335.143325 270.510711 
L 335.277813 270.312713 
L 335.412301 270.409808 
L 335.546789 270.69443 
L 335.681277 270.589719 
L 335.950254 273.164166 
L 336.084742 271.075671 
L 336.622695 254.659943 
L 336.757183 255.45241 
L 336.891671 253.628546 
L 337.295136 259.967806 
L 337.698601 264.686435 
L 337.833089 264.208575 
L 338.102065 268.296087 
L 338.236553 268.064772 
L 338.371042 268.700173 
L 338.50553 266.371796 
L 339.043483 269.521198 
L 339.446947 272.508299 
L 339.581436 272.028059 
L 339.715924 270.862442 
L 339.850412 271.120886 
L 339.9849 270.343174 
L 340.119388 270.230848 
L 340.253877 269.7587 
L 340.388365 271.231308 
L 340.522853 269.248475 
L 340.657341 269.845324 
L 340.926318 269.527861 
L 341.060806 266.1995 
L 341.329782 271.066627 
L 341.464271 270.965249 
L 341.598759 271.492132 
L 341.733247 273.053744 
L 341.867735 280.85181 
L 342.136712 280.953188 
L 342.2712 281.592873 
L 342.540176 268.936248 
L 342.943641 154.114686 
L 343.212617 170.672724 
L 343.347106 169.940703 
L 343.75057 184.281262 
L 343.885058 185.950916 
L 344.019547 185.290289 
L 344.423011 252.966967 
L 345.22994 278.581499 
L 345.364429 279.661919 
L 345.498917 279.295433 
L 345.633405 275.091788 
L 345.767893 267.032423 
L 346.03687 183.039968 
L 346.171358 187.14509 
L 346.440334 173.622224 
L 346.574823 168.267717 
L 346.843799 175.124817 
L 347.112775 176.98771 
L 347.381752 211.36031 
L 347.650728 250.150259 
L 348.054193 268.055729 
L 348.188681 269.234196 
L 348.323169 278.175032 
L 348.457658 279.02033 
L 348.592146 280.885127 
L 348.726634 280.69046 
L 348.99561 267.824414 
L 349.264587 181.992864 
L 349.399075 183.462141 
L 349.668052 165.959806 
L 349.80254 161.860872 
L 350.206004 180.49741 
L 350.340493 181.673498 
L 351.012934 261.598908 
L 351.147422 263.912055 
L 351.550886 280.521972 
L 351.685375 279.812321 
L 351.954351 280.177856 
L 352.088839 278.785208 
L 352.223328 271.520214 
L 352.492304 177.929151 
L 352.626792 185.069921 
L 352.76128 173.738833 
L 352.895769 173.032514 
L 353.030257 164.782291 
L 353.164745 171.968752 
L 353.299233 169.898819 
L 353.56821 152.184208 
L 354.240651 268.196612 
L 354.375139 269.330339 
L 354.644115 275.172701 
L 354.913092 279.432032 
L 355.182068 280.470569 
L 355.316556 278.076509 
L 355.451045 268.980036 
L 355.854509 195.931716 
L 356.123486 157.730524 
L 356.257974 159.438255 
L 356.392462 168.018316 
L 356.52695 167.387198 
L 356.661439 177.95628 
L 356.795927 176.709275 
L 357.33388 263.901584 
L 357.602856 273.46497 
L 357.737344 275.422578 
L 357.871832 279.662871 
L 358.006321 279.086488 
L 358.140809 279.300193 
L 358.275297 280.037449 
L 358.409785 279.949873 
L 358.678762 278.694776 
L 359.082226 260.291932 
L 359.351203 254.407211 
L 359.485691 248.157907 
L 359.620179 258.853593 
L 359.754667 260.262899 
L 359.889156 260.430436 
L 360.427109 274.669139 
L 360.561597 275.346425 
L 360.965061 279.479152 
L 361.234038 279.439648 
L 361.368526 279.248789 
L 361.503014 280.549577 
L 361.771991 280.143587 
L 361.906479 281.469601 
L 362.040967 281.422005 
L 362.175455 281.796107 
L 362.309944 281.836563 
L 362.57892 278.435856 
L 362.713408 278.386833 
L 362.982385 277.255961 
L 363.116873 275.768598 
L 363.251361 275.667219 
L 363.385849 276.754303 
L 363.520337 275.903294 
L 363.654826 275.843799 
L 364.05829 278.620527 
L 364.192778 252.700908 
L 364.730731 258.937361 
L 364.86522 257.746043 
L 364.999708 245.704353 
L 365.134196 223.625224 
L 365.403172 135.584285 
L 365.672149 105.387248 
L 365.806637 99.484916 
L 366.075613 116.375648 
L 366.34459 113.241477 
L 366.479078 124.636818 
L 367.017031 250.621932 
L 367.151519 255.565688 
L 367.286007 253.836063 
L 367.554984 265.160488 
L 367.689472 266.024348 
L 367.958448 270.90861 
L 368.227425 247.421603 
L 368.496401 151.768698 
L 368.765378 100.050828 
L 369.034354 89.183322 
L 369.168842 93.890528 
L 369.303331 93.447413 
L 369.437819 96.805759 
L 369.572307 94.690134 
L 369.706795 110.74937 
L 370.244748 234.20668 
L 370.782701 278.288786 
L 370.917189 278.592922 
L 371.051677 279.482008 
L 371.186166 279.204049 
L 371.455142 264.426563 
L 371.858607 171.426162 
L 372.127583 203.319983 
L 372.262071 199.271024 
L 372.396559 200.693657 
L 372.665536 190.036523 
L 372.800024 193.820374 
L 373.203489 233.414213 
L 373.472465 255.608048 
L 373.87593 276.740976 
L 374.010418 285.734168 
L 374.144906 285.588525 
L 374.279394 286.791742 
L 374.413883 286.290084 
L 374.682859 269.775834 
L 375.220812 180.625918 
L 375.489788 177.006748 
L 375.624277 177.229019 
L 375.893253 183.746287 
L 376.027741 188.030368 
L 376.565694 255.425757 
L 376.83467 264.291392 
L 376.969159 267.119999 
L 377.103647 278.899438 
L 377.238135 277.809498 
L 377.507112 279.876575 
L 377.6416 277.916112 
L 377.776088 281.445803 
L 378.045064 279.304476 
L 378.179553 269.689686 
L 378.314041 269.065708 
L 378.448529 261.984432 
L 378.583017 262.982512 
L 378.717505 262.067725 
L 378.851994 266.566938 
L 378.986482 265.80874 
L 379.12097 266.714484 
L 379.255458 268.868186 
L 379.389947 268.752053 
L 379.927899 277.981794 
L 380.062388 277.775705 
L 380.196876 278.191215 
L 380.331364 268.307986 
L 380.465852 268.984319 
L 380.869317 271.880988 
L 381.138293 261.013006 
L 381.272782 233.987265 
L 381.541758 159.582946 
L 381.810734 139.470943 
L 381.945223 141.058257 
L 382.214199 147.528881 
L 382.348687 139.558995 
L 382.752152 189.292128 
L 383.021128 257.125872 
L 383.155616 265.034359 
L 383.290105 265.694986 
L 383.424593 266.979116 
L 383.559081 262.062489 
L 383.693569 261.352363 
L 383.962546 261.697907 
L 384.097034 262.885417 
L 384.231522 261.105817 
L 384.36601 262.494657 
L 385.038451 148.588835 
L 385.17294 151.026206 
L 385.307428 166.124963 
L 385.576404 160.494402 
L 386.248845 259.964951 
L 386.921286 278.421578 
L 387.055775 277.608644 
L 387.190263 278.883255 
L 387.324751 278.194071 
L 387.459239 278.354944 
L 387.593727 279.840879 
L 387.728216 279.267828 
L 387.862704 280.581942 
L 387.997192 279.415374 
L 388.13168 281.002212 
L 388.266169 280.020314 
L 388.400657 278.039385 
L 388.535145 278.128389 
L 388.669633 277.467286 
L 388.804121 278.603869 
L 388.93861 276.058455 
L 389.207586 278.194071 
L 389.476562 284.869355 
L 389.611051 283.813209 
L 389.745539 284.628046 
L 389.880027 284.576166 
L 390.014515 269.703013 
L 390.283492 269.951462 
L 390.41798 269.961457 
L 390.552468 269.831045 
L 390.686956 264.342795 
L 390.821445 264.527466 
L 390.955933 255.69134 
L 391.224909 199.633227 
L 391.359397 168.311981 
L 391.493886 164.32918 
L 391.762862 175.003925 
L 391.89735 174.461335 
L 392.031839 167.250599 
L 392.166327 170.943543 
L 392.300815 179.907701 
L 392.569791 239.960038 
L 392.70428 266.202356 
L 392.973256 271.036642 
L 393.107744 271.692986 
L 393.376721 264.648835 
L 393.645697 270.356977 
L 393.780185 266.971977 
L 393.914673 268.354153 
L 394.049162 260.953987 
L 394.721603 146.541748 
L 394.990579 145.471798 
L 395.125067 145.052481 
L 395.259556 156.417837 
L 395.394044 157.286457 
L 395.931997 245.280276 
L 396.200973 258.867396 
L 396.335461 255.136851 
L 396.46995 279.868008 
L 396.604438 280.250677 
L 397.007902 283.280614 
L 397.276879 270.245603 
L 397.545855 196.659453 
L 397.680343 191.480574 
L 397.94932 168.142065 
L 398.083808 154.697732 
L 398.218296 167.420039 
L 398.352785 162.66143 
L 398.487273 165.668997 
L 398.487273 165.668997 
" clip-path="url(#p36eb6c108d)" style="fill: none; stroke: #1f77b4; stroke-width: 1.5; stroke-linecap: square"/>
   </g>
   <g id="line2d_13">
    <path d="M 73.832727 278.886018 
L 73.967215 278.880364 
L 74.236192 278.170775 
L 74.37068 276.87165 
L 74.505168 278.228264 
L 74.639657 277.983408 
L 74.774145 278.428663 
L 74.908633 270.348271 
L 75.043121 232.439165 
L 75.177609 234.746499 
L 75.312098 247.794886 
L 75.715562 251.500026 
L 76.119027 248.291344 
L 76.388003 244.085827 
L 76.65698 284.962406 
L 76.925956 274.66652 
L 77.060444 270.63185 
L 77.194933 256.194411 
L 77.463909 264.788701 
L 77.598397 262.652409 
L 77.732885 266.24866 
L 77.867374 255.81809 
L 78.001862 229.121184 
L 78.270838 128.459367 
L 78.405327 104.187109 
L 78.539815 106.517824 
L 78.674303 113.958277 
L 78.808791 106.416063 
L 78.943279 118.053067 
L 79.077768 112.853976 
L 79.61572 186.842593 
L 79.884697 250.789726 
L 80.288161 269.390363 
L 80.42265 257.628312 
L 80.557138 272.217734 
L 80.691626 273.403044 
L 80.826114 269.392729 
L 80.960603 270.962131 
L 81.095091 264.006037 
L 81.229579 245.365915 
L 81.498555 145.851633 
L 81.633044 167.645817 
L 81.767532 169.174476 
L 81.90202 155.976985 
L 82.036508 203.640024 
L 82.170996 199.902213 
L 82.305485 205.246459 
L 82.439973 204.620705 
L 82.574461 196.183335 
L 82.708949 230.780562 
L 82.977926 200.792346 
L 83.112414 210.234913 
L 83.246902 199.97551 
L 83.38139 199.867668 
L 83.784855 267.092635 
L 83.919343 280.24398 
L 84.053831 281.90853 
L 84.18832 280.933727 
L 84.322808 199.863401 
L 84.457296 236.085258 
L 84.591784 199.863401 
L 84.860761 199.863401 
L 84.995249 200.306965 
L 85.264225 171.949172 
L 85.533202 191.443299 
L 85.66769 192.569684 
L 85.936666 210.080947 
L 86.340131 263.91557 
L 86.474619 267.931682 
L 86.609107 268.207206 
L 86.743596 270.224234 
L 87.012572 287.380786 
L 87.14706 287.047958 
L 87.281549 284.837317 
L 87.416037 285.943974 
L 87.550525 285.813393 
L 87.685013 284.237892 
L 87.95399 247.547703 
L 88.088478 253.352939 
L 88.222966 252.355283 
L 88.491942 257.507822 
L 88.626431 252.838851 
L 88.760919 257.231145 
L 88.895407 249.197909 
L 89.298872 256.834164 
L 89.567848 281.826474 
L 89.702336 272.649899 
L 89.836825 275.095854 
L 89.971313 275.304161 
L 90.105801 254.545879 
L 90.240289 256.17892 
L 90.374777 264.560432 
L 90.509266 263.571137 
L 90.643754 267.340615 
L 90.778242 265.35353 
L 90.91273 267.405765 
L 91.047218 263.006067 
L 91.181707 248.606843 
L 91.316195 248.564008 
L 91.450683 244.253587 
L 91.585171 251.540146 
L 92.257612 256.761094 
L 92.392101 255.295118 
L 92.526589 257.612093 
L 92.930053 268.597731 
L 93.064542 268.187925 
L 93.19903 261.306135 
L 93.333518 278.016308 
L 93.468006 278.86601 
L 93.602495 271.779979 
L 93.736983 273.792456 
L 93.871471 272.255722 
L 94.140447 259.110462 
L 94.409424 173.59314 
L 94.543912 175.372835 
L 94.812888 153.432911 
L 94.947377 153.91448 
L 95.216353 176.475967 
L 95.350841 169.091053 
L 95.48533 152.66126 
L 95.888794 254.3487 
L 96.157771 268.440896 
L 96.292259 267.034466 
L 96.426747 267.000201 
L 96.561235 268.836458 
L 96.830212 265.899893 
L 96.9647 268.973238 
L 97.099188 268.674543 
L 97.233676 265.140868 
L 97.502653 220.390747 
L 97.637141 173.057878 
L 97.771629 174.273891 
L 97.906117 173.793407 
L 98.040606 186.250748 
L 98.44407 179.572343 
L 98.578558 180.51593 
L 98.847535 198.042453 
L 99.385488 272.865124 
L 99.519976 273.217407 
L 99.654464 272.251194 
L 99.788952 284.185333 
L 99.923441 284.020023 
L 100.057929 275.32576 
L 100.192417 276.383387 
L 100.326905 278.608025 
L 100.595882 276.579423 
L 100.73037 276.752547 
L 100.864858 278.593899 
L 100.999346 276.544739 
L 101.133834 279.036509 
L 101.268323 278.75298 
L 101.402811 276.062893 
L 101.537299 264.257192 
L 101.671787 273.275965 
L 101.940764 254.615427 
L 102.20974 264.839368 
L 102.344228 264.300012 
L 102.478717 267.946433 
L 102.613205 277.706858 
L 102.747693 272.610526 
L 102.882181 278.615458 
L 103.151158 249.062833 
L 103.285646 269.825827 
L 103.420134 269.45197 
L 103.823599 252.874795 
L 103.958087 224.478356 
L 104.092575 168.898926 
L 104.361552 153.880541 
L 104.49604 168.7555 
L 104.765016 140.125547 
L 105.437457 214.894388 
L 105.840922 264.108938 
L 105.97541 256.117048 
L 106.109898 264.426917 
L 106.244387 288.789221 
L 106.378875 288.490613 
L 106.647851 278.280299 
L 106.782339 281.607292 
L 106.916828 281.133953 
L 107.051316 281.551358 
L 107.320292 217.739722 
L 107.45478 229.86122 
L 107.589269 255.47023 
L 107.858245 247.73862 
L 107.992733 247.980901 
L 108.127222 247.443655 
L 108.396198 242.162101 
L 108.530686 237.872013 
L 108.665174 242.070434 
L 108.934151 284.369183 
L 109.068639 282.816587 
L 109.472104 268.896616 
L 109.875568 273.278988 
L 110.144545 273.690863 
L 110.279033 274.196154 
L 110.548009 272.607709 
L 110.682498 272.991067 
L 110.951474 270.042162 
L 111.085962 270.122992 
L 111.22045 272.68642 
L 111.354939 273.014512 
L 111.758403 264.956817 
L 111.892891 265.502032 
L 112.161868 271.322176 
L 112.430844 270.973674 
L 112.565333 270.923012 
L 112.699821 256.4004 
L 112.834309 259.035907 
L 112.968797 266.380975 
L 113.103285 265.719489 
L 113.237774 267.040207 
L 113.372262 267.084701 
L 113.641238 269.83267 
L 113.775726 270.334189 
L 114.044703 266.562042 
L 114.179191 264.46193 
L 114.313679 258.397805 
L 114.448168 259.101472 
L 114.582656 260.77833 
L 114.717144 259.277212 
L 115.120609 245.763876 
L 115.524073 261.527884 
L 115.658561 260.799318 
L 115.79305 256.356161 
L 116.062026 258.479057 
L 116.196514 254.620062 
L 116.331002 264.557094 
L 116.465491 264.73266 
L 116.599979 261.58082 
L 116.734467 243.69619 
L 117.003444 127.365165 
L 117.137932 86.677586 
L 117.27242 85.248324 
L 117.406908 85.287572 
L 117.541396 71.795695 
L 117.810373 89.524994 
L 118.213837 138.45788 
L 118.617302 238.238387 
L 118.886279 252.797536 
L 119.020767 252.751734 
L 119.155255 250.826905 
L 119.289743 254.907195 
L 119.55872 252.364031 
L 119.693208 256.226004 
L 119.827696 255.322069 
L 119.962184 236.350466 
L 120.231161 122.628187 
L 120.500137 95.192385 
L 120.634625 91.721119 
L 120.769114 79.704893 
L 121.172578 89.946984 
L 121.576043 168.285915 
L 121.845019 233.980182 
L 122.113996 244.459361 
L 122.248484 241.084212 
L 122.382972 245.776701 
L 122.51746 261.248074 
L 122.651948 262.791725 
L 122.786437 255.949163 
L 122.920925 256.516661 
L 123.055413 252.659465 
L 123.189901 237.252965 
L 123.593366 94.731401 
L 123.996831 78.092715 
L 124.131319 88.041702 
L 124.400295 122.331871 
L 124.669272 130.961026 
L 125.072736 241.066005 
L 125.341713 258.599407 
L 125.610689 253.283118 
L 125.879666 271.891315 
L 126.148642 265.560722 
L 126.417618 237.456259 
L 126.686595 132.120476 
L 126.955571 94.0682 
L 127.224548 83.491635 
L 127.493524 123.156982 
L 127.628012 126.554304 
L 127.896989 144.831787 
L 128.434942 254.719598 
L 128.56943 257.632691 
L 128.703918 252.481499 
L 128.838406 258.662073 
L 128.972894 259.553974 
L 129.107383 257.482727 
L 129.241871 263.075975 
L 129.376359 263.059065 
L 129.645336 222.301819 
L 130.0488 86.475102 
L 130.183288 90.007874 
L 130.317777 87.335493 
L 130.452265 89.782144 
L 130.586753 139.237757 
L 130.855729 129.432525 
L 130.990218 136.796932 
L 131.124706 161.180392 
L 131.393682 241.376035 
L 131.797147 262.605541 
L 131.931635 262.078669 
L 132.200612 256.697203 
L 132.3351 260.876436 
L 132.469588 268.688873 
L 132.873053 265.595516 
L 133.142029 250.573939 
L 133.411005 241.048134 
L 133.545494 240.891867 
L 133.679982 238.585107 
L 133.81447 239.542274 
L 133.948958 239.184527 
L 134.083447 233.788369 
L 134.755888 253.753318 
L 134.890376 254.910031 
L 135.024864 252.93281 
L 135.831793 265.946698 
L 135.966282 270.880933 
L 136.10077 270.952292 
L 136.235258 266.644716 
L 136.504234 268.735321 
L 136.638723 262.455912 
L 136.907699 262.939897 
L 137.042187 262.582309 
L 137.311164 249.868331 
L 137.445652 250.159008 
L 137.58014 252.895916 
L 137.714628 249.814217 
L 137.849117 252.525244 
L 138.118093 259.000643 
L 138.387069 254.017776 
L 138.521558 262.401843 
L 138.790534 255.693149 
L 139.05951 264.645422 
L 139.328487 231.043824 
L 139.731951 87.157285 
L 139.86644 90.203091 
L 140.000928 88.666767 
L 140.135416 83.84829 
L 140.538881 141.191377 
L 140.673369 148.511064 
L 140.807857 149.146115 
L 140.942345 167.683132 
L 141.211322 250.327371 
L 141.34581 249.822936 
L 141.614786 263.327 
L 141.749275 259.356626 
L 141.883763 264.083447 
L 142.287228 260.075495 
L 142.690692 169.237909 
L 142.959669 87.957783 
L 143.094157 97.274391 
L 143.228645 93.782688 
L 143.363133 87.268545 
L 143.497621 102.33516 
L 143.63211 94.779754 
L 143.766598 100.521371 
L 144.304551 235.352167 
L 144.573527 250.008581 
L 144.842504 268.182733 
L 145.11148 259.545874 
L 145.245968 260.348719 
L 145.380456 263.487077 
L 145.514945 254.707735 
L 145.649433 221.929369 
L 145.783921 219.287094 
L 146.187386 92.379564 
L 146.321874 92.688585 
L 146.725339 131.571646 
L 146.859827 124.155758 
L 146.994315 130.784475 
L 147.128803 123.567078 
L 147.263291 139.716988 
L 147.532268 246.468025 
L 147.801244 253.853624 
L 147.935732 264.173523 
L 148.070221 263.787385 
L 148.204709 262.54673 
L 148.339197 264.416076 
L 148.473685 261.083677 
L 148.608174 260.705081 
L 148.87715 257.77745 
L 149.011638 225.67423 
L 149.280615 126.787941 
L 149.415103 103.439629 
L 149.549591 115.476177 
L 149.818567 109.804368 
L 150.222032 161.288064 
L 150.35652 146.083573 
L 150.491009 149.500374 
L 150.759985 246.608704 
L 151.028961 256.703713 
L 151.16345 266.113103 
L 151.432426 259.397901 
L 151.701402 264.091739 
L 151.970379 264.55157 
L 152.104867 261.285221 
L 152.64282 98.170424 
L 152.777308 120.003998 
L 152.911796 115.903319 
L 153.046285 103.692655 
L 153.180773 127.029516 
L 153.315261 126.111759 
L 153.584237 180.379515 
L 153.718726 193.028169 
L 154.12219 261.104368 
L 154.256678 271.434889 
L 154.391167 271.644792 
L 154.525655 270.540381 
L 154.794631 270.458106 
L 154.92912 270.639446 
L 155.063608 271.441006 
L 155.332584 275.267386 
L 155.467072 273.906293 
L 155.601561 267.600421 
L 155.736049 253.559303 
L 156.139513 260.484563 
L 156.274002 260.276962 
L 156.40849 258.500065 
L 156.542978 259.374552 
L 156.677466 261.409627 
L 156.811955 259.245645 
L 157.484396 268.385722 
L 157.618884 266.123553 
L 157.753372 266.280933 
L 158.022348 270.265687 
L 158.156837 270.238285 
L 158.291325 271.105242 
L 158.694789 277.791697 
L 158.829278 274.800403 
L 158.963766 275.185974 
L 159.098254 276.324962 
L 159.367231 272.76262 
L 159.501719 274.217675 
L 159.636207 272.480393 
L 159.905183 260.644313 
L 160.039672 260.55357 
L 160.17416 256.210775 
L 160.308648 256.701736 
L 160.443136 259.108785 
L 160.577624 266.425283 
L 160.712113 266.113582 
L 160.981089 257.640947 
L 161.384554 266.985926 
L 161.519042 265.28321 
L 161.65353 265.755821 
L 161.922507 233.78882 
L 162.325971 97.229324 
L 162.460459 87.004133 
L 162.594948 96.132916 
L 162.863924 87.95946 
L 163.132901 118.630895 
L 163.267389 126.29295 
L 163.536365 183.323272 
L 163.805342 246.82091 
L 163.93983 247.477279 
L 164.208806 263.328008 
L 164.343294 258.68518 
L 164.477783 272.329676 
L 164.612271 274.569799 
L 164.746759 271.420823 
L 164.881247 261.290474 
L 165.284712 178.901997 
L 165.553688 103.095197 
L 165.688177 120.680366 
L 165.957153 110.139101 
L 166.091641 121.549605 
L 166.226129 117.417653 
L 166.495106 105.215757 
L 166.629594 114.78791 
L 166.89857 239.330972 
L 167.033059 245.829845 
L 167.167547 240.035473 
L 167.436523 255.321843 
L 167.571012 253.732209 
L 167.839988 263.853967 
L 168.108964 263.20823 
L 168.243453 250.910639 
L 168.377941 223.616365 
L 168.781405 94.363959 
L 168.915894 109.675319 
L 169.050382 107.417189 
L 169.18487 107.535477 
L 169.319358 117.375716 
L 169.453847 97.274504 
L 169.588335 101.086007 
L 170.260776 250.405277 
L 170.529752 259.97603 
L 170.798729 262.024613 
L 171.067705 258.390254 
L 171.336681 264.75483 
L 171.740146 176.675841 
L 172.009123 95.903374 
L 172.278099 112.350368 
L 172.412587 102.992504 
L 172.547075 101.403923 
L 173.085028 151.891869 
L 173.488493 251.584165 
L 173.622981 254.861075 
L 174.026446 283.216764 
L 174.160934 279.850088 
L 174.295422 270.055235 
L 174.564399 272.907101 
L 174.967863 220.314928 
L 175.23684 154.497673 
L 175.505816 136.535802 
L 175.640304 141.303474 
L 175.774792 161.296444 
L 175.909281 161.756445 
L 176.043769 160.506513 
L 176.178257 171.164035 
L 176.312745 168.672601 
L 176.447234 189.708117 
L 176.71621 258.233855 
L 176.985186 268.940374 
L 177.254163 264.637386 
L 177.388651 267.754669 
L 177.523139 266.732575 
L 177.926604 273.017877 
L 178.061092 273.507555 
L 178.330069 259.436793 
L 178.464557 261.768285 
L 178.733533 252.786597 
L 179.00251 259.688059 
L 179.271486 254.043117 
L 179.405974 255.566292 
L 179.674951 252.016198 
L 179.943927 262.455728 
L 180.078415 270.366423 
L 180.347392 263.496017 
L 180.616368 276.174733 
L 180.750856 273.097846 
L 180.885345 272.952353 
L 181.019833 273.867539 
L 181.154321 273.761486 
L 181.557786 262.55462 
L 181.692274 263.628272 
L 181.826762 263.461802 
L 181.96125 265.796364 
L 182.095738 259.208244 
L 182.230227 261.165828 
L 182.499203 269.907037 
L 182.633691 270.285003 
L 182.76818 272.715157 
L 183.037156 270.070372 
L 183.306132 277.432082 
L 183.440621 277.396482 
L 183.709597 268.372878 
L 183.978573 290.780453 
L 184.24755 280.207647 
L 184.516526 258.872695 
L 184.785503 173.058993 
L 184.919991 178.118152 
L 185.054479 175.397819 
L 185.188967 183.035609 
L 185.323456 179.964098 
L 185.457944 182.395134 
L 185.592432 188.375131 
L 185.72692 188.99675 
L 186.53385 269.675016 
L 186.937314 281.207277 
L 187.071802 293.421098 
L 187.206291 292.640652 
L 187.340779 284.647194 
L 187.475267 285.276499 
L 187.609755 280.770572 
L 187.744243 265.014984 
L 188.01322 172.819871 
L 188.147708 182.552861 
L 188.282196 180.631784 
L 188.416684 181.325077 
L 188.685661 191.185764 
L 188.820149 202.450543 
L 188.954637 196.005208 
L 189.089126 199.917185 
L 189.223614 212.489026 
L 189.627078 271.641861 
L 189.761567 270.775977 
L 189.896055 269.001356 
L 190.030543 273.753306 
L 190.299519 265.431823 
L 190.434008 268.375578 
L 190.568496 265.044224 
L 190.702984 266.145889 
L 190.971961 270.613464 
L 191.106449 270.015418 
L 191.240937 262.567362 
L 191.375425 262.142349 
L 191.509913 266.412504 
L 191.644402 260.141606 
L 191.913378 264.548208 
L 192.047866 262.667293 
L 192.316843 253.27256 
L 192.451331 256.931097 
L 192.585819 255.78997 
L 192.720307 257.131056 
L 192.854796 267.889026 
L 192.989284 268.257452 
L 193.392748 259.755282 
L 193.527237 259.37889 
L 193.796213 266.004047 
L 193.930701 265.534463 
L 194.199678 249.004001 
L 194.468654 165.188154 
L 194.603142 160.978998 
L 194.73763 149.337947 
L 194.872119 148.368049 
L 195.006607 144.112644 
L 195.141095 148.482641 
L 195.275583 160.240739 
L 195.410072 148.987734 
L 195.679048 171.799129 
L 195.948024 243.533843 
L 196.082513 260.423313 
L 196.217001 263.039129 
L 196.351489 263.163273 
L 196.485977 262.800606 
L 196.620465 275.532336 
L 196.754954 272.767507 
L 196.889442 265.812218 
L 197.158418 268.095706 
L 197.292907 264.533152 
L 197.427395 251.291817 
L 197.696371 177.593416 
L 198.368812 203.978922 
L 198.637789 184.449605 
L 198.906765 212.985595 
L 199.31023 276.737651 
L 199.444718 278.898664 
L 199.713694 276.735606 
L 199.848183 279.92559 
L 200.117159 276.916579 
L 200.251647 277.778631 
L 200.386135 275.43317 
L 200.520624 268.239764 
L 200.655112 268.286394 
L 200.7896 252.385261 
L 200.924088 188.056434 
L 201.058576 191.082802 
L 201.193065 199.080212 
L 201.327553 199.950327 
L 201.596529 206.354463 
L 201.865506 192.038565 
L 201.999994 198.115178 
L 202.537947 271.704312 
L 202.672435 272.909435 
L 202.806923 272.154629 
L 202.941411 273.624512 
L 203.210388 259.989207 
L 203.344876 267.951128 
L 203.479364 268.685187 
L 203.882829 256.065605 
L 204.017317 233.343236 
L 204.286294 161.48546 
L 204.420782 158.402733 
L 204.55527 159.411147 
L 204.689758 158.779881 
L 204.824246 168.396755 
L 204.958735 163.01742 
L 205.093223 184.300502 
L 205.227711 186.781866 
L 205.900152 267.294304 
L 206.169129 264.064091 
L 206.303617 287.91409 
L 206.438105 286.541874 
L 206.572593 280.309197 
L 206.707081 283.225274 
L 206.976058 281.093716 
L 207.514011 253.509169 
L 207.648499 256.784865 
L 207.917475 271.955589 
L 208.051964 272.590586 
L 208.186452 270.039082 
L 208.455428 257.544294 
L 208.724405 263.397459 
L 208.993381 277.054504 
L 209.127869 279.59774 
L 209.262357 278.874573 
L 209.396846 274.945032 
L 209.531334 263.073928 
L 209.80031 269.663469 
L 209.934799 268.661361 
L 210.069287 271.07223 
L 210.472751 208.59057 
L 210.741728 147.429353 
L 211.010704 118.205109 
L 211.145192 108.818636 
L 211.414169 147.978122 
L 211.683145 166.421747 
L 212.355586 263.387526 
L 212.490075 260.731727 
L 212.893539 274.030642 
L 213.162516 267.198259 
L 213.297004 272.067851 
L 213.56598 236.581235 
L 213.969445 118.784452 
L 214.103933 145.10881 
L 214.238421 145.699045 
L 214.37291 149.961531 
L 214.776374 191.348593 
L 214.910862 191.526778 
L 215.045351 192.584027 
L 215.448815 271.325386 
L 215.583303 265.700249 
L 215.717792 266.162092 
L 215.986768 264.382262 
L 216.121256 267.880768 
L 216.255745 266.676576 
L 216.390233 266.838888 
L 216.524721 270.92823 
L 216.659209 262.30858 
L 216.793697 245.82419 
L 217.062674 143.093159 
L 217.197162 133.424328 
L 217.466138 157.814218 
L 217.600627 175.047284 
L 217.735115 173.799488 
L 217.869603 151.130215 
L 218.004091 159.044268 
L 218.273068 210.136927 
L 218.407556 216.612678 
L 218.676532 267.498373 
L 218.945509 275.613999 
L 219.079997 260.201599 
L 219.214485 259.471751 
L 219.483462 271.490707 
L 219.752438 276.272932 
L 220.021414 245.354986 
L 220.290391 144.352717 
L 220.424879 146.140457 
L 220.559367 162.145106 
L 220.693856 155.889571 
L 220.828344 155.377758 
L 220.962832 172.662848 
L 221.09732 167.876323 
L 221.366297 204.359104 
L 221.500785 202.261994 
L 221.635273 211.240423 
L 221.904249 270.673033 
L 222.038738 270.495502 
L 222.173226 274.361703 
L 222.442202 269.869767 
L 222.711179 277.675443 
L 222.845667 277.252726 
L 222.980155 278.118667 
L 223.114643 275.541573 
L 223.249132 277.04245 
L 223.518108 249.517061 
L 223.787084 263.740458 
L 224.056061 254.815019 
L 224.325037 256.928333 
L 224.459525 260.439279 
L 224.594014 259.056506 
L 224.86299 252.042156 
L 225.131967 261.219821 
L 225.266455 261.672855 
L 225.400943 258.69333 
L 225.669919 260.105197 
L 225.804408 257.862979 
L 226.207872 268.440116 
L 226.476849 270.329178 
L 226.611337 269.714372 
L 226.880313 265.519405 
L 227.14929 270.241848 
L 227.283778 269.954093 
L 227.418266 268.110157 
L 227.687243 270.249378 
L 228.090707 267.527046 
L 228.225195 275.286462 
L 228.359684 275.414517 
L 228.494172 275.065313 
L 228.763148 273.103432 
L 228.897637 273.575846 
L 229.032125 268.346924 
L 229.166613 269.017713 
L 229.301101 271.744182 
L 229.435589 271.613016 
L 229.570078 259.006899 
L 229.704566 231.031438 
L 230.10803 106.194479 
L 230.242519 99.935035 
L 230.377007 101.539292 
L 230.511495 84.519809 
L 230.780471 131.392296 
L 230.91496 130.928525 
L 231.183936 169.382093 
L 231.587401 255.388408 
L 231.721889 258.032938 
L 231.990865 268.663175 
L 232.125354 269.518038 
L 232.259842 268.569094 
L 232.39433 270.134074 
L 232.528818 273.080152 
L 232.663306 269.388907 
L 232.932283 234.764628 
L 233.335748 116.730159 
L 233.470236 124.263677 
L 233.8737 161.887216 
L 234.008189 140.509903 
L 234.142677 144.634822 
L 234.411653 202.412467 
L 234.546141 213.108343 
L 234.815118 267.089631 
L 234.949606 270.672887 
L 235.084094 265.977004 
L 235.487559 272.086511 
L 235.622047 278.850073 
L 235.891024 271.843066 
L 236.16 246.858112 
L 236.428976 141.074525 
L 236.563465 118.273536 
L 236.697953 130.247482 
L 236.832441 128.041404 
L 236.966929 118.001451 
L 237.235906 173.656808 
L 237.370394 168.312948 
L 237.504882 173.304516 
L 237.908347 255.440637 
L 238.177323 270.49155 
L 238.311811 268.472872 
L 238.580788 269.695794 
L 238.715276 271.73123 
L 238.984252 283.590439 
L 239.118741 278.942445 
L 239.253229 269.083102 
L 239.387717 241.948647 
L 239.656694 144.023343 
L 239.92567 124.979396 
L 240.598111 184.319245 
L 240.867087 197.046724 
L 241.270552 259.466552 
L 241.40504 261.889676 
L 241.539529 261.910902 
L 241.808505 260.124502 
L 242.077481 279.924366 
L 242.21197 284.426363 
L 242.346458 281.80613 
L 242.615434 241.163104 
L 242.884411 144.063892 
L 243.018899 136.831903 
L 243.153387 167.463519 
L 243.287875 163.280089 
L 243.422363 146.564852 
L 243.556852 158.852997 
L 243.69134 157.184605 
L 243.960316 182.328128 
L 244.229293 239.348777 
L 244.498269 262.054175 
L 244.767246 270.309157 
L 244.901734 267.934023 
L 245.036222 270.125617 
L 245.17071 274.160419 
L 245.574175 272.98483 
L 245.708663 271.079448 
L 245.843151 255.78621 
L 246.112128 265.815609 
L 246.381104 260.329206 
L 246.515592 258.494039 
L 246.650081 260.099378 
L 247.053545 271.857088 
L 247.188033 270.790762 
L 247.45701 273.11701 
L 247.591498 273.220628 
L 247.725986 272.803968 
L 247.860475 276.120283 
L 247.994963 274.358395 
L 248.129451 274.288887 
L 248.263939 275.549266 
L 248.398427 273.975012 
L 248.532916 274.425645 
L 248.667404 273.504025 
L 248.801892 274.305318 
L 248.93638 273.41791 
L 249.070868 273.403426 
L 249.474333 276.674244 
L 249.608821 276.561264 
L 249.877798 275.862977 
L 250.012286 275.88288 
L 250.281262 274.317737 
L 250.415751 274.602161 
L 250.684727 272.82027 
L 251.088192 274.657239 
L 251.357168 269.989316 
L 251.491656 270.811553 
L 251.626144 285.784045 
L 251.760633 284.992441 
L 251.895121 279.035126 
L 252.029609 279.214726 
L 252.298586 253.92395 
L 252.567562 148.8382 
L 252.70205 131.621158 
L 252.836538 145.092933 
L 252.971027 171.263043 
L 253.105515 171.278992 
L 253.374491 186.474886 
L 253.643468 177.291316 
L 254.315909 273.716708 
L 254.450397 280.747542 
L 254.584885 281.724694 
L 254.719373 279.832227 
L 254.853862 285.072288 
L 255.122838 282.79706 
L 255.257326 283.713652 
L 255.660791 192.376324 
L 255.795279 153.897777 
L 255.929767 160.812439 
L 256.064255 178.022856 
L 256.333232 160.394462 
L 256.46772 166.390137 
L 256.602208 165.181106 
L 256.736697 166.435071 
L 257.274649 247.09364 
L 257.543626 266.358281 
L 257.678114 265.418212 
L 257.812602 263.5453 
L 257.94709 264.121033 
L 258.216067 286.407274 
L 258.485043 276.350393 
L 258.75402 247.188336 
L 259.022996 152.120905 
L 259.291973 174.327331 
L 259.426461 170.122545 
L 259.560949 153.534151 
L 259.829925 182.506467 
L 259.964414 162.358756 
L 260.098902 173.395072 
L 260.502366 245.063207 
L 260.771343 262.47377 
L 260.905831 266.050841 
L 261.174808 259.862237 
L 261.309296 269.164521 
L 261.578272 272.226117 
L 261.71276 269.268866 
L 261.847249 262.637924 
L 261.981737 239.112157 
L 262.250713 147.242503 
L 262.51969 168.265217 
L 262.654178 144.552144 
L 262.788666 146.914228 
L 262.923154 161.58399 
L 263.057643 157.197168 
L 263.461107 202.37707 
L 264.133548 258.525471 
L 264.268036 257.890047 
L 264.402525 267.056503 
L 264.671501 261.885261 
L 264.805989 263.166725 
L 265.074966 257.837737 
L 265.209454 243.522157 
L 265.747407 108.89868 
L 265.881895 107.832969 
L 266.016383 109.192872 
L 266.28536 123.217202 
L 266.419848 121.752488 
L 266.554336 129.871862 
L 266.823312 186.187538 
L 267.092289 252.889397 
L 267.361265 255.569921 
L 267.495754 256.251387 
L 267.630242 270.288507 
L 267.76473 270.011279 
L 267.899218 267.245225 
L 268.033706 267.746183 
L 268.302683 274.610071 
L 268.437171 274.548774 
L 268.571659 270.200595 
L 268.840636 274.010394 
L 268.975124 270.653082 
L 269.378589 269.166331 
L 269.916541 254.931304 
L 270.05103 253.184085 
L 270.454494 257.491129 
L 270.723471 263.197855 
L 270.857959 278.911444 
L 270.992447 279.640869 
L 271.126935 273.764424 
L 271.395912 274.932425 
L 271.5304 274.433094 
L 271.933865 277.649463 
L 272.068353 275.557984 
L 272.202841 275.333761 
L 272.337329 275.545298 
L 272.471817 275.122555 
L 272.606306 274.291577 
L 272.740794 271.373859 
L 273.00977 273.801353 
L 273.144258 272.808167 
L 273.278747 270.032084 
L 273.413235 270.102981 
L 273.682211 274.617309 
L 273.8167 274.437122 
L 273.951188 273.723103 
L 274.085676 271.785124 
L 274.220164 291.029317 
L 274.354652 293.170693 
L 274.623629 283.841266 
L 274.892605 253.979121 
L 275.161582 175.155353 
L 275.565046 153.918575 
L 275.699535 153.815719 
L 275.834023 157.671827 
L 275.968511 189.657199 
L 276.237487 200.555866 
L 276.506464 237.360159 
L 276.909928 272.703121 
L 277.178905 275.035955 
L 277.313393 272.920267 
L 277.447881 279.828609 
L 277.58237 280.44355 
L 277.716858 282.322923 
L 277.851346 281.763967 
L 277.985834 275.414515 
L 278.120322 262.415184 
L 278.389299 200.96703 
L 278.523787 195.214344 
L 278.658275 178.845291 
L 278.792763 181.829794 
L 278.927252 177.491588 
L 279.06174 198.548137 
L 279.330716 195.550501 
L 279.734181 241.332577 
L 280.003157 270.604781 
L 280.137646 274.031087 
L 280.272134 272.925623 
L 280.406622 278.17661 
L 280.675598 255.561365 
L 280.810087 262.673747 
L 280.944575 263.830003 
L 281.079063 262.719524 
L 281.213551 249.872168 
L 281.348039 248.208417 
L 281.751504 132.63954 
L 281.885992 125.071748 
L 282.020481 127.173445 
L 282.289457 155.435608 
L 282.423945 128.624058 
L 282.558433 132.245878 
L 282.82741 183.166122 
L 283.096386 252.18416 
L 283.365363 263.885269 
L 283.634339 262.080166 
L 283.903316 256.220065 
L 284.037804 256.939362 
L 284.172292 259.138607 
L 284.30678 259.239254 
L 284.575757 248.480849 
L 284.979221 146.060507 
L 285.113709 155.174138 
L 285.248198 141.229328 
L 285.517174 142.324022 
L 285.651662 157.417441 
L 285.78615 157.030547 
L 285.920639 159.058865 
L 286.458592 258.885829 
L 286.727568 263.193466 
L 286.862056 259.811018 
L 286.996544 287.75704 
L 287.131033 288.053112 
L 287.265521 273.261547 
L 287.400009 274.328895 
L 287.803474 267.520324 
L 287.937962 269.861191 
L 288.07245 270.181844 
L 288.206938 269.904546 
L 288.341427 266.967091 
L 288.475915 267.532955 
L 288.610403 265.058115 
L 288.879379 264.519033 
L 289.013868 269.443726 
L 289.148356 270.260986 
L 289.282844 262.468125 
L 289.55182 276.944068 
L 289.955285 271.926733 
L 290.089773 275.164036 
L 290.224262 273.346087 
L 290.35875 275.038951 
L 290.493238 274.455149 
L 290.627726 275.208807 
L 290.762214 273.56058 
L 291.165679 251.45656 
L 291.434655 170.844998 
L 291.83812 200.168022 
L 292.107096 179.679904 
L 292.510561 206.970177 
L 292.914026 269.361924 
L 293.183002 270.752782 
L 293.31749 270.201456 
L 293.451979 266.494196 
L 293.586467 266.844398 
L 293.720955 265.870915 
L 293.989931 269.419888 
L 294.393396 238.10587 
L 294.662373 169.948273 
L 295.065837 138.19799 
L 295.200325 141.396093 
L 295.334814 159.177277 
L 295.469302 152.295681 
L 295.738278 197.285946 
L 295.872766 208.663433 
L 296.141743 262.867954 
L 296.276231 264.846585 
L 296.410719 260.978219 
L 296.545208 264.163723 
L 296.679696 292.932065 
L 296.814184 290.739813 
L 296.948672 281.03303 
L 297.217649 279.544851 
L 297.621113 281.164694 
L 297.755601 280.40979 
L 297.89009 280.314774 
L 298.159066 276.272902 
L 298.293554 278.650014 
L 298.428042 278.602831 
L 298.562531 277.002833 
L 298.965995 269.358326 
L 299.100484 267.885893 
L 299.234972 268.951352 
L 299.503948 276.124531 
L 299.638436 273.093476 
L 299.772925 274.747684 
L 299.907413 256.405703 
L 300.176389 269.240443 
L 300.310877 267.63667 
L 300.445366 267.814862 
L 300.714342 245.711803 
L 301.117807 145.64905 
L 301.386783 121.872146 
L 301.521271 126.857708 
L 301.65576 151.828083 
L 301.790248 143.055063 
L 301.924736 154.510171 
L 302.193712 203.600886 
L 302.328201 213.655764 
L 302.597177 256.784495 
L 302.731665 261.714023 
L 302.866153 258.878074 
L 303.13513 270.953433 
L 303.404106 262.541298 
L 303.538595 266.859234 
L 303.673083 267.000699 
L 304.076547 205.496103 
L 304.211036 155.602155 
L 304.345524 157.415898 
L 304.480012 162.371548 
L 304.748988 152.851321 
L 304.883477 166.583367 
L 305.017965 155.904282 
L 305.152453 162.844383 
L 305.42143 213.872096 
L 305.555918 219.032929 
L 305.959382 269.3231 
L 306.228359 265.469719 
L 306.362847 264.866027 
L 306.497335 276.78704 
L 306.631823 278.73826 
L 306.766312 274.03792 
L 306.9008 273.419373 
L 307.035288 264.762217 
L 307.169776 244.810917 
L 307.438753 148.53981 
L 307.707729 176.751147 
L 307.842217 159.733 
L 307.976706 157.379626 
L 308.111194 168.437235 
L 308.245682 159.308573 
L 308.38017 165.964743 
L 309.052611 265.480314 
L 309.187099 272.281376 
L 309.321588 270.999452 
L 309.590564 272.296332 
L 309.725052 274.71296 
L 310.128517 273.059681 
L 310.263005 265.099163 
L 310.397493 240.875792 
L 310.66647 148.722867 
L 310.935446 173.077317 
L 311.204423 160.699364 
L 311.338911 170.019136 
L 311.473399 170.764839 
L 311.607887 162.658502 
L 311.742376 181.977112 
L 312.011352 227.711011 
L 312.414817 267.264316 
L 312.549305 265.856382 
L 312.952769 271.922431 
L 313.087258 269.936642 
L 313.221746 271.045122 
L 313.356234 271.052392 
L 313.490722 271.802759 
L 313.894187 249.721747 
L 314.028675 257.034862 
L 314.163163 257.386161 
L 314.297652 259.102913 
L 314.43214 256.862211 
L 314.701116 265.716879 
L 314.835604 264.600419 
L 315.104581 268.149452 
L 315.373557 264.73222 
L 315.642534 268.373338 
L 315.777022 268.166747 
L 315.91151 267.561847 
L 316.314975 270.765587 
L 316.449463 270.017346 
L 316.987416 272.801026 
L 317.121904 271.292247 
L 317.256392 271.436975 
L 317.39088 270.548801 
L 317.525369 270.676065 
L 317.659857 269.214711 
L 317.794345 270.392888 
L 318.466786 263.080347 
L 318.601274 264.429081 
L 318.735763 264.57775 
L 318.870251 266.341063 
L 319.004739 266.321598 
L 319.139227 263.068338 
L 319.273715 263.996462 
L 319.408204 281.942374 
L 319.542692 282.527736 
L 319.67718 275.931122 
L 319.811668 275.94368 
L 319.946157 270.108823 
L 320.080645 254.325736 
L 320.349621 148.828883 
L 320.618598 128.726109 
L 321.15655 179.138884 
L 321.425527 192.206216 
L 321.560015 189.690086 
L 322.097968 268.740417 
L 322.232456 265.277174 
L 322.501433 267.64724 
L 322.635921 281.402734 
L 322.770409 282.806118 
L 323.308362 259.650813 
L 323.577338 151.894986 
L 323.711826 159.134247 
L 323.846315 177.748299 
L 324.115291 151.395437 
L 324.384268 160.690227 
L 324.518756 165.856802 
L 324.787732 201.363288 
L 324.92222 212.61199 
L 325.191197 265.74884 
L 325.325685 265.756487 
L 325.460173 262.936314 
L 325.72915 267.227192 
L 325.998126 280.841622 
L 326.267103 277.002574 
L 326.401591 270.177441 
L 326.536079 254.665025 
L 326.805055 147.308478 
L 326.939544 157.380685 
L 327.074032 180.164407 
L 327.20852 159.930871 
L 327.343008 160.737245 
L 327.477496 174.140173 
L 327.746473 169.312504 
L 327.880961 177.122522 
L 328.149937 223.406227 
L 328.553402 264.089473 
L 328.822379 271.019239 
L 328.956867 271.438327 
L 329.091355 283.681277 
L 329.225843 283.185649 
L 329.629308 263.46015 
L 329.763796 252.329771 
L 330.032772 157.51984 
L 330.167261 161.754868 
L 330.301749 177.905534 
L 330.570725 159.109857 
L 330.705214 158.020116 
L 330.97419 193.355736 
L 331.108678 191.137137 
L 331.243166 193.961783 
L 331.646631 262.925387 
L 331.781119 265.634541 
L 331.915607 263.540464 
L 332.050096 263.370262 
L 332.184584 268.027099 
L 332.319072 282.783846 
L 332.45356 282.109392 
L 332.588049 274.381881 
L 332.722537 274.772323 
L 332.991513 251.645297 
L 333.26049 155.400776 
L 333.394978 161.484862 
L 333.529466 183.461101 
L 333.663954 165.008491 
L 333.798442 163.83427 
L 334.067419 174.723699 
L 334.336395 192.789924 
L 334.470883 198.296226 
L 334.874348 265.483568 
L 335.008836 266.717295 
L 335.143325 269.797959 
L 335.277813 276.726699 
L 335.546789 271.807029 
L 335.681277 271.581542 
L 335.815766 271.025847 
L 336.084742 273.967018 
L 336.21923 270.995506 
L 336.488207 261.099246 
L 336.757183 252.898789 
L 336.891671 255.980361 
L 337.02616 254.876984 
L 337.429624 263.694288 
L 337.833089 268.414051 
L 337.967577 266.935309 
L 338.236553 271.482849 
L 338.640018 265.953962 
L 338.908995 268.626433 
L 339.043483 268.566373 
L 339.177971 269.090485 
L 339.446947 271.443607 
L 339.581436 272.160931 
L 339.715924 271.639092 
L 339.850412 270.339822 
L 339.9849 271.474856 
L 340.119388 271.170437 
L 340.253877 271.299053 
L 340.388365 271.067346 
L 340.522853 272.879057 
L 340.657341 270.638236 
L 340.926318 271.279622 
L 341.060806 270.654693 
L 341.195294 266.336086 
L 341.464271 272.063333 
L 341.598759 271.304978 
L 341.733247 268.898154 
L 341.867735 271.606363 
L 342.002223 283.806001 
L 342.136712 283.032894 
L 342.2712 277.110045 
L 342.405688 278.029485 
L 342.674664 254.704443 
L 343.078129 137.968218 
L 343.347106 176.666056 
L 343.481594 176.017414 
L 343.75057 189.37571 
L 344.019547 195.765258 
L 344.154035 192.693798 
L 344.423011 255.806824 
L 344.557499 262.879291 
L 344.691988 262.46178 
L 344.960964 272.648484 
L 345.095452 271.910108 
L 345.22994 280.68102 
L 345.364429 281.206618 
L 345.633405 278.725207 
L 345.902382 258.454598 
L 346.171358 160.34935 
L 346.440334 178.435543 
L 346.574823 169.552925 
L 346.709311 169.111676 
L 346.978287 181.984924 
L 347.247264 184.341851 
L 347.51624 228.441341 
L 347.785217 260.544284 
L 348.188681 270.937266 
L 348.323169 269.551759 
L 348.457658 281.259589 
L 348.592146 281.989835 
L 348.861122 277.840266 
L 349.130099 251.869161 
L 349.399075 157.42112 
L 349.533563 169.347025 
L 349.668052 170.490021 
L 349.80254 160.821649 
L 349.937028 162.151098 
L 350.609469 213.128914 
L 351.147422 267.655566 
L 351.28191 268.172692 
L 351.550886 272.29891 
L 351.685375 285.398581 
L 351.819863 282.430578 
L 351.954351 275.938131 
L 352.088839 276.241991 
L 352.223328 272.977776 
L 352.357816 258.333358 
L 352.626792 152.226545 
L 352.895769 180.70127 
L 353.164745 165.266485 
L 353.299233 174.723079 
L 353.433721 176.052811 
L 353.702698 153.885413 
L 354.240651 266.766456 
L 354.375139 271.826072 
L 354.509627 271.327838 
L 354.644115 271.636699 
L 354.913092 279.832067 
L 355.316556 277.078039 
L 355.451045 271.551254 
L 355.585533 253.706179 
L 355.854509 173.745733 
L 355.988998 180.49897 
L 356.257974 147.629253 
L 356.661439 174.239915 
L 356.795927 190.367858 
L 356.930415 188.572845 
L 357.33388 256.999144 
L 357.602856 277.889289 
L 357.737344 275.675144 
L 357.871832 276.439194 
L 358.006321 280.681204 
L 358.140809 279.317106 
L 358.275297 276.536789 
L 358.409785 277.077702 
L 358.544274 277.097135 
L 358.81325 275.119816 
L 359.216715 255.893144 
L 359.351203 255.808111 
L 359.485691 253.566445 
L 359.620179 246.402113 
L 359.889156 265.083185 
L 360.023644 263.894501 
L 360.427109 279.218265 
L 360.561597 277.664868 
L 360.696085 276.415388 
L 360.830573 278.45018 
L 361.234038 279.018427 
L 361.368526 278.850686 
L 361.503014 277.520831 
L 361.637502 278.751961 
L 361.906479 276.875986 
L 362.040967 279.180299 
L 362.175455 279.495111 
L 362.444432 280.894493 
L 362.713408 277.0875 
L 362.847896 277.683375 
L 362.982385 277.1906 
L 363.116873 276.090185 
L 363.385849 272.545799 
L 363.520337 274.763105 
L 363.789314 272.86564 
L 364.05829 274.95871 
L 364.192778 275.524729 
L 364.327267 224.300204 
L 364.461755 226.334583 
L 364.596243 250.860858 
L 364.730731 250.525026 
L 364.86522 256.327552 
L 364.999708 253.849917 
L 365.268684 195.60014 
L 365.537661 116.80223 
L 365.672149 103.803607 
L 365.806637 106.33537 
L 365.941125 103.165228 
L 366.210102 128.71925 
L 366.479078 121.145041 
L 366.613566 137.709415 
L 366.882543 242.880395 
L 367.151519 255.272773 
L 367.286007 259.939996 
L 367.420496 255.093996 
L 367.689472 268.619201 
L 367.82396 264.56229 
L 368.092937 270.046991 
L 368.765378 92.15546 
L 368.899866 97.699691 
L 369.034354 100.71511 
L 369.168842 90.965285 
L 369.437819 100.180834 
L 369.572307 105.884009 
L 369.706795 104.366157 
L 369.841283 124.900956 
L 370.11026 237.970123 
L 370.379236 244.064511 
L 370.648213 262.0188 
L 370.782701 287.13744 
L 370.917189 288.618821 
L 371.051677 276.17367 
L 371.186166 276.808156 
L 371.320654 275.119393 
L 371.58963 245.688655 
L 371.858607 156.643973 
L 371.993095 154.432964 
L 372.262071 222.56065 
L 372.531048 205.818148 
L 372.665536 199.748559 
L 372.800024 188.219033 
L 372.934512 196.202598 
L 373.203489 231.682447 
L 373.606953 264.972782 
L 373.87593 268.161361 
L 374.144906 295.488 
L 374.413883 284.198717 
L 374.548371 283.259586 
L 374.817347 252.025952 
L 375.086324 185.873184 
L 375.3553 170.95639 
L 375.758765 180.757928 
L 376.027741 193.065717 
L 376.162229 200.308318 
L 376.431206 235.757946 
L 376.700182 267.057783 
L 376.83467 269.409136 
L 376.969159 266.978345 
L 377.103647 267.093933 
L 377.238135 285.566755 
L 377.507112 275.264782 
L 377.6416 278.00668 
L 377.776088 272.435515 
L 377.910576 278.623281 
L 378.045064 276.968572 
L 378.179553 273.477464 
L 378.314041 257.711606 
L 378.448529 257.78214 
L 378.583017 250.865594 
L 378.717505 251.944994 
L 378.851994 256.172963 
L 378.986482 264.190826 
L 379.12097 264.066057 
L 379.255458 262.301564 
L 379.389947 266.462095 
L 379.524435 265.12086 
L 380.062388 276.638977 
L 380.196876 275.034522 
L 380.331364 275.324414 
L 380.465852 262.223227 
L 380.60034 262.952075 
L 380.869317 270.045715 
L 381.003805 270.148473 
L 381.272782 254.868699 
L 381.40727 220.812759 
L 381.541758 151.621475 
L 381.676246 141.703057 
L 381.810734 147.169185 
L 381.945223 136.644251 
L 382.348687 157.298875 
L 382.483175 146.763177 
L 383.155616 264.206098 
L 383.424593 268.348693 
L 383.559081 267.390786 
L 383.828058 257.692652 
L 384.097034 260.944707 
L 384.231522 262.54685 
L 384.36601 259.606116 
L 384.500499 260.755523 
L 384.903963 156.727946 
L 385.038451 158.586119 
L 385.17294 140.089236 
L 385.307428 149.607042 
L 385.441916 182.24983 
L 385.710893 172.91266 
L 385.979869 208.323305 
L 386.383334 267.097129 
L 386.517822 267.732134 
L 386.786798 271.916846 
L 386.921286 280.597309 
L 387.055775 280.966829 
L 387.190263 273.539022 
L 387.324751 275.525701 
L 387.593727 273.518369 
L 387.728216 276.732869 
L 387.862704 275.489997 
L 387.997192 277.052104 
L 388.13168 275.434681 
L 388.266169 277.646389 
L 388.400657 276.408388 
L 388.535145 272.030798 
L 388.669633 273.324049 
L 388.804121 273.32662 
L 388.93861 274.22313 
L 389.073098 270.011436 
L 389.207586 270.973657 
L 389.611051 286.575277 
L 389.880027 280.774838 
L 390.014515 281.385102 
L 390.149004 250.637072 
L 390.283492 251.171441 
L 390.41798 263.80862 
L 390.552468 263.623338 
L 390.686956 264.108658 
L 390.821445 253.415381 
L 390.955933 254.040565 
L 391.090421 243.23172 
L 391.224909 179.014311 
L 391.628374 156.173833 
L 391.89735 185.635594 
L 392.031839 185.66733 
L 392.166327 172.294299 
L 392.300815 178.162285 
L 392.569791 223.254499 
L 392.838768 272.867676 
L 392.973256 274.353967 
L 393.242232 269.336513 
L 393.511209 252.656163 
L 393.780185 269.399191 
L 393.914673 259.861224 
L 394.049162 261.764061 
L 394.18365 249.495656 
L 394.587115 152.84793 
L 394.721603 155.422048 
L 394.856091 141.821121 
L 394.990579 145.370289 
L 395.125067 153.006895 
L 395.259556 152.602521 
L 395.394044 170.506047 
L 395.528532 170.860135 
L 395.931997 242.808396 
L 396.200973 264.706424 
L 396.335461 263.536945 
L 396.46995 253.227722 
L 396.604438 290.133838 
L 396.738926 293.582259 
L 396.873414 279.973242 
L 397.007902 281.047067 
L 397.142391 281.087991 
L 397.411367 253.132584 
L 397.680343 164.299585 
L 397.814832 177.281794 
L 398.218296 151.637288 
L 398.352785 171.44722 
L 398.487273 170.39324 
L 398.487273 170.39324 
" clip-path="url(#p36eb6c108d)" style="fill: none; stroke: #ff7f0e; stroke-width: 1.5; stroke-linecap: square"/>
   </g>
   <g id="patch_3">
    <path d="M 57.6 307.584 
L 57.6 41.472 
" style="fill: none; stroke: #000000; stroke-width: 0.8; stroke-linejoin: miter; stroke-linecap: square"/>
   </g>
   <g id="patch_4">
    <path d="M 414.72 307.584 
L 414.72 41.472 
" style="fill: none; stroke: #000000; stroke-width: 0.8; stroke-linejoin: miter; stroke-linecap: square"/>
   </g>
   <g id="patch_5">
    <path d="M 57.6 307.584 
L 414.72 307.584 
" style="fill: none; stroke: #000000; stroke-width: 0.8; stroke-linejoin: miter; stroke-linecap: square"/>
   </g>
   <g id="patch_6">
    <path d="M 57.6 41.472 
L 414.72 41.472 
" style="fill: none; stroke: #000000; stroke-width: 0.8; stroke-linejoin: miter; stroke-linecap: square"/>
   </g>
  </g>
 </g>
 <defs>
  <clipPath id="p36eb6c108d">
   <rect x="57.6" y="41.472" width="357.12" height="266.112"/>
  </clipPath>
 </defs>
</svg>
