<?xml version="1.0" encoding="utf-8" standalone="no"?>
<!DOCTYPE svg PUBLIC "-//W3C//DTD SVG 1.1//EN"
  "http://www.w3.org/Graphics/SVG/1.1/DTD/svg11.dtd">
<svg xmlns:xlink="http://www.w3.org/1999/xlink" width="460.8pt" height="345.6pt" viewBox="0 0 460.8 345.6" xmlns="http://www.w3.org/2000/svg" version="1.1">
 <metadata>
  <rdf:RDF xmlns:dc="http://purl.org/dc/elements/1.1/" xmlns:cc="http://creativecommons.org/ns#" xmlns:rdf="http://www.w3.org/1999/02/22-rdf-syntax-ns#">
   <cc:Work>
    <dc:type rdf:resource="http://purl.org/dc/dcmitype/StillImage"/>
    <dc:date>2023-04-04T05:42:44.496563</dc:date>
    <dc:format>image/svg+xml</dc:format>
    <dc:creator>
     <cc:Agent>
      <dc:title>Matplotlib v3.5.2, https://matplotlib.org/</dc:title>
     </cc:Agent>
    </dc:creator>
   </cc:Work>
  </rdf:RDF>
 </metadata>
 <defs>
  <style type="text/css">*{stroke-linejoin: round; stroke-linecap: butt}</style>
 </defs>
 <g id="figure_1">
  <g id="patch_1">
   <path d="M 0 345.6 
L 460.8 345.6 
L 460.8 0 
L 0 0 
z
" style="fill: #ffffff"/>
  </g>
  <g id="axes_1">
   <g id="patch_2">
    <path d="M 57.6 307.584 
L 414.72 307.584 
L 414.72 41.472 
L 57.6 41.472 
z
" style="fill: #ffffff"/>
   </g>
   <g id="matplotlib.axis_1">
    <g id="xtick_1">
     <g id="line2d_1">
      <defs>
       <path id="m7dac46e5db" d="M 0 0 
L 0 3.5 
" style="stroke: #000000; stroke-width: 0.8"/>
      </defs>
      <g>
       <use xlink:href="#m7dac46e5db" x="73.832727" y="307.584" style="stroke: #000000; stroke-width: 0.8"/>
      </g>
     </g>
     <g id="text_1">
      <!-- 0 -->
      <g transform="translate(70.651477 322.182437)scale(0.1 -0.1)">
       <defs>
        <path id="DejaVuSans-30" d="M 2034 4250 
Q 1547 4250 1301 3770 
Q 1056 3291 1056 2328 
Q 1056 1369 1301 889 
Q 1547 409 2034 409 
Q 2525 409 2770 889 
Q 3016 1369 3016 2328 
Q 3016 3291 2770 3770 
Q 2525 4250 2034 4250 
z
M 2034 4750 
Q 2819 4750 3233 4129 
Q 3647 3509 3647 2328 
Q 3647 1150 3233 529 
Q 2819 -91 2034 -91 
Q 1250 -91 836 529 
Q 422 1150 422 2328 
Q 422 3509 836 4129 
Q 1250 4750 2034 4750 
z
" transform="scale(0.015625)"/>
       </defs>
       <use xlink:href="#DejaVuSans-30"/>
      </g>
     </g>
    </g>
    <g id="xtick_2">
     <g id="line2d_2">
      <g>
       <use xlink:href="#m7dac46e5db" x="141.076834" y="307.584" style="stroke: #000000; stroke-width: 0.8"/>
      </g>
     </g>
     <g id="text_2">
      <!-- 500 -->
      <g transform="translate(131.533084 322.182437)scale(0.1 -0.1)">
       <defs>
        <path id="DejaVuSans-35" d="M 691 4666 
L 3169 4666 
L 3169 4134 
L 1269 4134 
L 1269 2991 
Q 1406 3038 1543 3061 
Q 1681 3084 1819 3084 
Q 2600 3084 3056 2656 
Q 3513 2228 3513 1497 
Q 3513 744 3044 326 
Q 2575 -91 1722 -91 
Q 1428 -91 1123 -41 
Q 819 9 494 109 
L 494 744 
Q 775 591 1075 516 
Q 1375 441 1709 441 
Q 2250 441 2565 725 
Q 2881 1009 2881 1497 
Q 2881 1984 2565 2268 
Q 2250 2553 1709 2553 
Q 1456 2553 1204 2497 
Q 953 2441 691 2322 
L 691 4666 
z
" transform="scale(0.015625)"/>
       </defs>
       <use xlink:href="#DejaVuSans-35"/>
       <use xlink:href="#DejaVuSans-30" x="63.623047"/>
       <use xlink:href="#DejaVuSans-30" x="127.246094"/>
      </g>
     </g>
    </g>
    <g id="xtick_3">
     <g id="line2d_3">
      <g>
       <use xlink:href="#m7dac46e5db" x="208.32094" y="307.584" style="stroke: #000000; stroke-width: 0.8"/>
      </g>
     </g>
     <g id="text_3">
      <!-- 1000 -->
      <g transform="translate(195.59594 322.182437)scale(0.1 -0.1)">
       <defs>
        <path id="DejaVuSans-31" d="M 794 531 
L 1825 531 
L 1825 4091 
L 703 3866 
L 703 4441 
L 1819 4666 
L 2450 4666 
L 2450 531 
L 3481 531 
L 3481 0 
L 794 0 
L 794 531 
z
" transform="scale(0.015625)"/>
       </defs>
       <use xlink:href="#DejaVuSans-31"/>
       <use xlink:href="#DejaVuSans-30" x="63.623047"/>
       <use xlink:href="#DejaVuSans-30" x="127.246094"/>
       <use xlink:href="#DejaVuSans-30" x="190.869141"/>
      </g>
     </g>
    </g>
    <g id="xtick_4">
     <g id="line2d_4">
      <g>
       <use xlink:href="#m7dac46e5db" x="275.565046" y="307.584" style="stroke: #000000; stroke-width: 0.8"/>
      </g>
     </g>
     <g id="text_4">
      <!-- 1500 -->
      <g transform="translate(262.840046 322.182437)scale(0.1 -0.1)">
       <use xlink:href="#DejaVuSans-31"/>
       <use xlink:href="#DejaVuSans-35" x="63.623047"/>
       <use xlink:href="#DejaVuSans-30" x="127.246094"/>
       <use xlink:href="#DejaVuSans-30" x="190.869141"/>
      </g>
     </g>
    </g>
    <g id="xtick_5">
     <g id="line2d_5">
      <g>
       <use xlink:href="#m7dac46e5db" x="342.809153" y="307.584" style="stroke: #000000; stroke-width: 0.8"/>
      </g>
     </g>
     <g id="text_5">
      <!-- 2000 -->
      <g transform="translate(330.084153 322.182437)scale(0.1 -0.1)">
       <defs>
        <path id="DejaVuSans-32" d="M 1228 531 
L 3431 531 
L 3431 0 
L 469 0 
L 469 531 
Q 828 903 1448 1529 
Q 2069 2156 2228 2338 
Q 2531 2678 2651 2914 
Q 2772 3150 2772 3378 
Q 2772 3750 2511 3984 
Q 2250 4219 1831 4219 
Q 1534 4219 1204 4116 
Q 875 4013 500 3803 
L 500 4441 
Q 881 4594 1212 4672 
Q 1544 4750 1819 4750 
Q 2544 4750 2975 4387 
Q 3406 4025 3406 3419 
Q 3406 3131 3298 2873 
Q 3191 2616 2906 2266 
Q 2828 2175 2409 1742 
Q 1991 1309 1228 531 
z
" transform="scale(0.015625)"/>
       </defs>
       <use xlink:href="#DejaVuSans-32"/>
       <use xlink:href="#DejaVuSans-30" x="63.623047"/>
       <use xlink:href="#DejaVuSans-30" x="127.246094"/>
       <use xlink:href="#DejaVuSans-30" x="190.869141"/>
      </g>
     </g>
    </g>
    <g id="xtick_6">
     <g id="line2d_6">
      <g>
       <use xlink:href="#m7dac46e5db" x="410.053259" y="307.584" style="stroke: #000000; stroke-width: 0.8"/>
      </g>
     </g>
     <g id="text_6">
      <!-- 2500 -->
      <g transform="translate(397.328259 322.182437)scale(0.1 -0.1)">
       <use xlink:href="#DejaVuSans-32"/>
       <use xlink:href="#DejaVuSans-35" x="63.623047"/>
       <use xlink:href="#DejaVuSans-30" x="127.246094"/>
       <use xlink:href="#DejaVuSans-30" x="190.869141"/>
      </g>
     </g>
    </g>
   </g>
   <g id="matplotlib.axis_2">
    <g id="ytick_1">
     <g id="line2d_7">
      <defs>
       <path id="mc932f89237" d="M 0 0 
L -3.5 0 
" style="stroke: #000000; stroke-width: 0.8"/>
      </defs>
      <g>
       <use xlink:href="#mc932f89237" x="57.6" y="282.315687" style="stroke: #000000; stroke-width: 0.8"/>
      </g>
     </g>
     <g id="text_7">
      <!-- 100 -->
      <g transform="translate(31.5125 286.114905)scale(0.1 -0.1)">
       <use xlink:href="#DejaVuSans-31"/>
       <use xlink:href="#DejaVuSans-30" x="63.623047"/>
       <use xlink:href="#DejaVuSans-30" x="127.246094"/>
      </g>
     </g>
    </g>
    <g id="ytick_2">
     <g id="line2d_8">
      <g>
       <use xlink:href="#mc932f89237" x="57.6" y="234.115558" style="stroke: #000000; stroke-width: 0.8"/>
      </g>
     </g>
     <g id="text_8">
      <!-- 200 -->
      <g transform="translate(31.5125 237.914777)scale(0.1 -0.1)">
       <use xlink:href="#DejaVuSans-32"/>
       <use xlink:href="#DejaVuSans-30" x="63.623047"/>
       <use xlink:href="#DejaVuSans-30" x="127.246094"/>
      </g>
     </g>
    </g>
    <g id="ytick_3">
     <g id="line2d_9">
      <g>
       <use xlink:href="#mc932f89237" x="57.6" y="185.91543" style="stroke: #000000; stroke-width: 0.8"/>
      </g>
     </g>
     <g id="text_9">
      <!-- 300 -->
      <g transform="translate(31.5125 189.714649)scale(0.1 -0.1)">
       <defs>
        <path id="DejaVuSans-33" d="M 2597 2516 
Q 3050 2419 3304 2112 
Q 3559 1806 3559 1356 
Q 3559 666 3084 287 
Q 2609 -91 1734 -91 
Q 1441 -91 1130 -33 
Q 819 25 488 141 
L 488 750 
Q 750 597 1062 519 
Q 1375 441 1716 441 
Q 2309 441 2620 675 
Q 2931 909 2931 1356 
Q 2931 1769 2642 2001 
Q 2353 2234 1838 2234 
L 1294 2234 
L 1294 2753 
L 1863 2753 
Q 2328 2753 2575 2939 
Q 2822 3125 2822 3475 
Q 2822 3834 2567 4026 
Q 2313 4219 1838 4219 
Q 1578 4219 1281 4162 
Q 984 4106 628 3988 
L 628 4550 
Q 988 4650 1302 4700 
Q 1616 4750 1894 4750 
Q 2613 4750 3031 4423 
Q 3450 4097 3450 3541 
Q 3450 3153 3228 2886 
Q 3006 2619 2597 2516 
z
" transform="scale(0.015625)"/>
       </defs>
       <use xlink:href="#DejaVuSans-33"/>
       <use xlink:href="#DejaVuSans-30" x="63.623047"/>
       <use xlink:href="#DejaVuSans-30" x="127.246094"/>
      </g>
     </g>
    </g>
    <g id="ytick_4">
     <g id="line2d_10">
      <g>
       <use xlink:href="#mc932f89237" x="57.6" y="137.715302" style="stroke: #000000; stroke-width: 0.8"/>
      </g>
     </g>
     <g id="text_10">
      <!-- 400 -->
      <g transform="translate(31.5125 141.514521)scale(0.1 -0.1)">
       <defs>
        <path id="DejaVuSans-34" d="M 2419 4116 
L 825 1625 
L 2419 1625 
L 2419 4116 
z
M 2253 4666 
L 3047 4666 
L 3047 1625 
L 3713 1625 
L 3713 1100 
L 3047 1100 
L 3047 0 
L 2419 0 
L 2419 1100 
L 313 1100 
L 313 1709 
L 2253 4666 
z
" transform="scale(0.015625)"/>
       </defs>
       <use xlink:href="#DejaVuSans-34"/>
       <use xlink:href="#DejaVuSans-30" x="63.623047"/>
       <use xlink:href="#DejaVuSans-30" x="127.246094"/>
      </g>
     </g>
    </g>
    <g id="ytick_5">
     <g id="line2d_11">
      <g>
       <use xlink:href="#mc932f89237" x="57.6" y="89.515174" style="stroke: #000000; stroke-width: 0.8"/>
      </g>
     </g>
     <g id="text_11">
      <!-- 500 -->
      <g transform="translate(31.5125 93.314392)scale(0.1 -0.1)">
       <use xlink:href="#DejaVuSans-35"/>
       <use xlink:href="#DejaVuSans-30" x="63.623047"/>
       <use xlink:href="#DejaVuSans-30" x="127.246094"/>
      </g>
     </g>
    </g>
   </g>
   <g id="line2d_12">
    <path d="M 73.832727 285.412063 
L 74.101704 284.858243 
L 74.236192 283.738554 
L 74.37068 284.710269 
L 74.505168 284.213808 
L 74.639657 284.820647 
L 74.774145 278.296278 
L 74.908633 250.960057 
L 75.177609 249.454767 
L 75.312098 250.014853 
L 75.446586 250.067873 
L 75.581074 250.941741 
L 75.715562 250.179215 
L 75.85005 250.157043 
L 76.253515 245.130734 
L 76.522492 279.468023 
L 76.65698 279.783734 
L 76.925956 278.062989 
L 77.060444 269.134398 
L 77.194933 271.39643 
L 77.463909 271.460536 
L 77.598397 273.057888 
L 77.732885 267.687912 
L 77.867374 254.170668 
L 78.405327 104.523248 
L 78.674303 103.593949 
L 78.808791 110.79071 
L 78.943279 105.948525 
L 79.481232 159.079527 
L 79.750209 230.03349 
L 80.019185 265.040279 
L 80.153673 267.18181 
L 80.288161 263.315678 
L 80.42265 273.796796 
L 80.557138 273.358657 
L 80.826114 275.886754 
L 80.960603 273.325881 
L 81.095091 262.927667 
L 81.364067 169.350492 
L 81.498555 181.751903 
L 81.767532 162.188435 
L 82.036508 170.256654 
L 82.170996 167.130394 
L 82.305485 161.106824 
L 83.112414 262.445666 
L 83.650367 288.84343 
L 83.784855 288.864156 
L 83.919343 290.405114 
L 84.053831 290.598879 
L 84.18832 288.484821 
L 84.322808 281.2013 
L 84.726273 190.332972 
L 84.860761 181.597181 
L 84.995249 185.726968 
L 85.129737 170.723714 
L 85.264225 179.335149 
L 85.398714 180.088517 
L 85.66769 188.452203 
L 85.802178 197.293552 
L 86.340131 264.588643 
L 86.474619 266.617869 
L 86.609107 271.568022 
L 86.878084 289.228549 
L 87.012572 291.497811 
L 87.14706 291.168604 
L 87.281549 292.671484 
L 87.416037 292.573638 
L 87.550525 291.755682 
L 87.819501 264.028558 
L 87.95399 264.175568 
L 88.088478 258.443127 
L 88.222966 259.914677 
L 88.357454 259.150705 
L 88.491942 255.765128 
L 88.626431 258.622914 
L 88.760919 251.572199 
L 88.895407 254.472883 
L 89.029895 254.471437 
L 89.164384 257.053035 
L 89.43336 278.526675 
L 89.567848 280.203557 
L 89.702336 279.701312 
L 89.836825 280.769909 
L 89.971313 265.497698 
L 90.105801 266.216844 
L 90.240289 267.773708 
L 90.374777 267.541383 
L 90.509266 268.787357 
L 90.643754 268.960395 
L 90.778242 271.076863 
L 90.91273 267.827692 
L 91.047218 257.808331 
L 91.181707 256.62791 
L 91.316195 249.640338 
L 91.450683 254.1109 
L 91.585171 252.12891 
L 91.71966 253.639502 
L 91.854148 253.867489 
L 92.123124 256.874695 
L 92.257612 256.297257 
L 92.526589 261.938118 
L 92.795565 268.589254 
L 92.930053 269.552293 
L 93.064542 268.402238 
L 93.19903 278.503056 
L 93.468006 278.628859 
L 93.602495 279.69842 
L 93.736983 278.453892 
L 93.871471 275.909408 
L 94.005959 270.645954 
L 94.6784 162.478118 
L 94.812888 158.042742 
L 95.081865 170.005532 
L 95.216353 164.743524 
L 95.350841 153.378898 
L 96.023282 266.947558 
L 96.157771 267.683574 
L 96.426747 271.645624 
L 96.561235 271.309187 
L 96.695723 271.387272 
L 96.830212 273.286839 
L 96.9647 272.643367 
L 97.099188 271.203147 
L 97.233676 262.659674 
L 97.368164 244.939379 
L 97.502653 203.549447 
L 97.637141 196.3898 
L 97.771629 180.77826 
L 97.906117 189.249433 
L 98.040606 182.475869 
L 98.175094 183.192123 
L 98.309582 177.825039 
L 98.44407 179.482159 
L 98.713047 190.95379 
L 98.982023 233.278322 
L 99.250999 268.442726 
L 99.385488 273.17164 
L 99.519976 273.93272 
L 99.654464 283.826761 
L 99.788952 283.839293 
L 99.923441 282.829018 
L 100.192417 284.078365 
L 100.326905 284.159824 
L 100.461393 283.499 
L 100.595882 283.908701 
L 100.73037 284.744973 
L 100.864858 283.192447 
L 100.999346 284.35889 
L 101.133834 283.442606 
L 101.268323 281.207084 
L 101.402811 274.117809 
L 101.537299 278.428828 
L 101.806276 267.948192 
L 101.940764 270.128766 
L 102.075252 269.978864 
L 102.20974 270.63294 
L 102.344228 273.033306 
L 102.478717 278.904564 
L 102.613205 277.035363 
L 102.747693 282.7572 
L 102.882181 269.176814 
L 103.016669 269.205734 
L 103.151158 274.156851 
L 103.285646 273.935612 
L 103.554622 269.716655 
L 103.68911 265.489986 
L 103.823599 247.905133 
L 104.092575 185.068554 
L 104.227063 163.3891 
L 104.361552 170.619119 
L 104.630528 145.517457 
L 105.033993 160.974756 
L 105.168481 171.853043 
L 105.706434 255.675476 
L 105.840922 255.552083 
L 105.97541 264.330291 
L 106.109898 280.912581 
L 106.378875 284.130903 
L 106.513363 284.116925 
L 106.647851 286.293643 
L 106.782339 286.022758 
L 106.916828 287.144375 
L 107.320292 249.229673 
L 107.45478 256.35799 
L 107.589269 253.800973 
L 107.723757 253.894481 
L 108.26171 248.785267 
L 108.396198 245.347152 
L 108.530686 247.6275 
L 108.934151 279.525863 
L 109.068639 281.054771 
L 109.203127 279.97798 
L 109.337615 275.441384 
L 109.606592 277.004032 
L 109.875568 278.065881 
L 110.144545 279.124356 
L 110.413521 277.875491 
L 110.548009 277.739566 
L 110.951474 273.653642 
L 111.085962 274.837437 
L 111.22045 274.487022 
L 111.623915 268.640346 
L 111.758403 269.152714 
L 112.02738 272.967272 
L 112.430844 274.578602 
L 112.565333 264.248833 
L 112.834309 268.48466 
L 112.968797 269.012451 
L 113.103285 270.534129 
L 113.237774 270.713916 
L 113.50675 273.352391 
L 113.641238 274.189145 
L 114.313679 262.866453 
L 114.448168 262.502542 
L 114.582656 261.00882 
L 114.98612 250.093901 
L 115.524073 261.241627 
L 115.658561 261.795928 
L 115.927538 264.03868 
L 116.062026 262.744989 
L 116.196514 268.888577 
L 116.331002 268.468272 
L 116.465491 269.083787 
L 116.599979 259.255299 
L 117.137932 79.310724 
L 117.406908 64.505091 
L 117.810373 81.161127 
L 118.213837 148.835553 
L 118.482814 211.614293 
L 118.75179 246.289465 
L 118.886279 247.834279 
L 119.289743 255.884664 
L 119.424231 257.312834 
L 119.55872 260.103622 
L 119.693208 260.422706 
L 119.827696 250.738819 
L 120.365649 92.259207 
L 120.634625 73.561413 
L 120.769114 77.279089 
L 120.903602 70.814006 
L 121.03809 72.151559 
L 121.441555 136.033117 
L 121.710531 203.338812 
L 121.845019 231.719048 
L 122.248484 242.761697 
L 122.51746 258.387697 
L 122.651948 258.548203 
L 122.786437 260.299314 
L 122.920925 258.949228 
L 123.055413 250.730625 
L 123.727854 60.520386 
L 123.862342 53.568 
L 124.534783 108.084273 
L 125.072736 250.026903 
L 125.207225 255.234445 
L 125.341713 255.701022 
L 125.476201 255.654268 
L 125.745177 269.350334 
L 125.879666 270.797302 
L 126.014154 271.028663 
L 126.28313 257.482017 
L 126.821083 93.37263 
L 126.955571 74.891255 
L 127.09006 81.536124 
L 127.359036 106.247848 
L 127.493524 108.707983 
L 127.762501 127.336368 
L 127.896989 150.300837 
L 128.300453 248.397738 
L 128.434942 254.24104 
L 128.56943 252.400759 
L 128.703918 259.955165 
L 128.838406 260.684433 
L 129.241871 267.425221 
L 129.510847 246.567098 
L 130.0488 83.725374 
L 130.183288 74.551926 
L 130.317777 86.555204 
L 130.452265 115.584213 
L 130.586753 114.659253 
L 130.721241 110.985921 
L 130.855729 117.421602 
L 131.124706 171.074129 
L 131.393682 237.186871 
L 131.662659 260.45259 
L 131.931635 260.25497 
L 132.066123 260.071327 
L 132.3351 271.423422 
L 132.469588 271.274001 
L 132.604076 271.373776 
L 132.738564 271.331841 
L 133.007541 259.356038 
L 133.276517 248.8219 
L 133.679982 243.204175 
L 133.81447 242.013631 
L 133.948958 236.87839 
L 134.486911 246.82545 
L 134.755888 253.962443 
L 134.890376 253.846763 
L 135.697305 268.190157 
L 135.831793 272.97402 
L 135.966282 273.587607 
L 136.10077 271.591158 
L 136.235258 273.105124 
L 136.369746 272.828937 
L 136.504234 268.49912 
L 136.638723 268.339095 
L 136.907699 266.390846 
L 137.311164 255.431583 
L 137.445652 255.944914 
L 137.58014 253.243779 
L 137.983605 260.104586 
L 138.118093 259.196495 
L 138.252581 261.044006 
L 138.387069 265.567106 
L 138.521558 264.325471 
L 138.656046 264.527911 
L 138.925022 269.255862 
L 139.193999 252.899148 
L 139.731951 81.858583 
L 139.86644 72.879381 
L 140.269904 99.070849 
L 140.538881 123.668821 
L 140.673369 130.809188 
L 140.807857 145.269708 
L 141.076834 225.939371 
L 141.480298 259.360858 
L 142.018251 267.85854 
L 142.152739 267.391481 
L 142.421716 243.489037 
L 142.959669 91.927108 
L 143.094157 84.45898 
L 143.228645 83.967821 
L 143.363133 94.265296 
L 143.497621 84.926039 
L 143.63211 90.088755 
L 144.573527 260.617435 
L 144.708015 264.131706 
L 144.842504 264.308601 
L 145.11148 266.566777 
L 145.245968 268.725178 
L 145.380456 264.618528 
L 145.783921 203.02021 
L 146.052897 110.680814 
L 146.187386 91.424863 
L 146.456362 106.846494 
L 146.59085 118.248716 
L 146.725339 112.517721 
L 146.859827 119.984403 
L 146.994315 114.870851 
L 147.128803 127.822226 
L 147.532268 235.861367 
L 147.801244 262.065367 
L 147.935732 262.269253 
L 148.204709 267.579943 
L 148.339197 267.558253 
L 148.473685 268.065801 
L 148.742662 267.004434 
L 148.87715 249.182436 
L 149.280615 119.847514 
L 149.415103 115.776532 
L 149.549591 106.622363 
L 149.684079 107.888099 
L 150.087544 140.86036 
L 150.222032 133.106406 
L 150.35652 138.670628 
L 150.894473 254.425164 
L 151.028961 263.670913 
L 151.16345 262.705464 
L 151.835891 270.946722 
L 151.970379 269.664117 
L 152.104867 248.545713 
L 152.508332 113.78924 
L 152.64282 116.923213 
L 152.911796 104.973919 
L 153.046285 119.237783 
L 153.180773 117.724781 
L 153.449749 152.477073 
L 153.718726 193.755663 
L 153.987702 250.839075 
L 154.12219 268.028205 
L 154.256678 269.418296 
L 154.525655 273.311903 
L 154.794631 275.029755 
L 155.063608 277.998401 
L 155.198096 279.653594 
L 155.332584 279.00482 
L 155.467072 274.588242 
L 155.601561 264.027112 
L 155.736049 263.159028 
L 155.870537 260.270394 
L 156.005025 262.426868 
L 156.274002 260.514287 
L 156.40849 261.055092 
L 156.542978 262.318899 
L 156.677466 261.11245 
L 157.215419 269.186936 
L 157.349907 271.209413 
L 157.484396 270.20926 
L 157.618884 270.985764 
L 157.88786 274.187699 
L 158.022348 274.672592 
L 158.291325 277.696186 
L 158.560301 282.012508 
L 158.694789 280.433472 
L 158.829278 281.405668 
L 158.963766 281.006089 
L 159.232742 278.269768 
L 159.367231 278.554149 
L 159.501719 276.554325 
L 160.039672 262.356014 
L 160.308648 262.617258 
L 160.443136 268.382958 
L 160.577624 268.097131 
L 160.712113 266.125746 
L 160.846601 266.833323 
L 160.981089 268.337649 
L 161.250066 272.125216 
L 161.519042 273.084398 
L 161.788018 256.183505 
L 162.460459 84.154837 
L 162.594948 83.815508 
L 162.729436 82.344441 
L 162.998412 102.095407 
L 163.132901 111.113651 
L 163.401877 152.71711 
L 163.670853 224.024862 
L 164.074318 258.392999 
L 164.208806 259.535342 
L 164.477783 272.293916 
L 164.612271 274.67452 
L 164.746759 269.934038 
L 165.015735 252.282187 
L 165.4192 121.473305 
L 165.553688 124.093464 
L 165.822665 110.087952 
L 165.957153 115.38611 
L 166.091641 112.276238 
L 166.360618 100.729415 
L 166.495106 106.97326 
L 166.89857 223.118217 
L 167.033059 230.146278 
L 167.302035 248.684529 
L 167.974476 267.297973 
L 168.108964 261.578545 
L 168.243453 247.453498 
L 168.377941 209.069808 
L 168.646917 106.797812 
L 168.781405 108.091021 
L 168.915894 103.528879 
L 169.050382 104.83944 
L 169.18487 108.665567 
L 169.319358 93.214533 
L 169.453847 95.712746 
L 169.857311 149.518067 
L 170.126288 228.345039 
L 170.395264 259.408576 
L 170.529752 260.295458 
L 170.66424 263.760083 
L 170.798729 263.950956 
L 171.067705 266.296856 
L 171.202193 269.15416 
L 171.47117 247.191289 
L 172.009123 110.892895 
L 172.143611 109.303736 
L 172.412587 97.451807 
L 172.95054 130.214398 
L 173.622981 261.393939 
L 173.757469 265.415276 
L 173.891958 278.903118 
L 174.026446 277.966589 
L 174.160934 277.922245 
L 174.42991 279.465613 
L 174.698887 264.555385 
L 174.833375 247.293473 
L 175.102351 178.219316 
L 175.371328 144.576108 
L 175.505816 141.65277 
L 175.640304 151.901564 
L 175.774792 151.588745 
L 175.909281 153.009203 
L 176.043769 157.855243 
L 176.178257 157.544835 
L 176.312745 172.136941 
L 176.581722 240.353137 
L 176.850698 267.702372 
L 176.985186 265.187771 
L 177.254163 269.961512 
L 177.388651 269.91765 
L 177.792116 276.530707 
L 177.926604 277.428676 
L 178.19558 266.623653 
L 178.330069 266.17973 
L 178.599045 258.549649 
L 178.733533 257.979442 
L 178.868021 260.307026 
L 179.136998 256.767209 
L 179.271486 257.368264 
L 179.540462 254.861376 
L 179.809439 262.431688 
L 179.943927 269.764373 
L 180.212904 267.84649 
L 180.48188 277.798853 
L 180.616368 277.812831 
L 180.750856 278.18831 
L 180.885345 279.026992 
L 181.019833 279.114234 
L 181.692274 266.696917 
L 181.826762 268.004105 
L 181.96125 261.968002 
L 182.095738 263.765867 
L 182.364715 269.252006 
L 182.499203 270.541359 
L 182.633691 273.716784 
L 182.902668 272.891598 
L 183.171644 279.076638 
L 183.306132 280.50529 
L 183.440621 279.385601 
L 183.575109 277.063319 
L 183.844085 288.900306 
L 183.978573 289.859971 
L 184.113062 287.560825 
L 184.382038 276.07377 
L 184.919991 183.530006 
L 185.054479 187.581227 
L 185.188967 180.44568 
L 185.457944 184.34025 
L 185.592432 185.85277 
L 185.995897 223.943403 
L 186.264873 254.812693 
L 186.53385 270.709578 
L 186.802826 281.054771 
L 187.071802 291.645303 
L 187.206291 290.484644 
L 187.340779 291.628915 
L 187.475267 288.423125 
L 187.609755 280.353459 
L 188.01322 203.767794 
L 188.147708 187.222136 
L 188.282196 187.442892 
L 188.416684 186.475998 
L 188.551173 189.817713 
L 188.685661 196.27653 
L 188.820149 191.825248 
L 188.954637 196.300148 
L 189.089126 204.747702 
L 189.627078 267.304239 
L 189.761567 269.916204 
L 189.896055 275.198938 
L 190.030543 272.741213 
L 190.299519 274.589206 
L 190.434008 273.407339 
L 190.971961 276.862806 
L 191.106449 273.379383 
L 191.240937 272.88967 
L 191.375425 273.332147 
L 191.509913 268.863513 
L 191.644402 270.426643 
L 191.913378 269.14934 
L 192.182354 263.462206 
L 192.316843 263.814067 
L 192.451331 263.31134 
L 192.585819 264.644074 
L 192.720307 270.466167 
L 192.989284 271.735276 
L 193.392748 269.023537 
L 193.661725 271.931933 
L 193.796213 272.471292 
L 194.065189 264.512487 
L 194.603142 159.819399 
L 194.73763 154.86298 
L 194.872119 144.820483 
L 195.006607 146.410605 
L 195.141095 151.197842 
L 195.275583 143.731642 
L 195.54456 157.24744 
L 195.948024 252.132766 
L 196.217001 262.563756 
L 196.351489 264.508149 
L 196.485977 274.068163 
L 196.620465 273.409749 
L 196.889442 273.971762 
L 197.02393 275.110731 
L 197.158418 273.364923 
L 197.292907 266.985154 
L 197.830859 197.635773 
L 197.965348 199.96866 
L 198.099836 196.620197 
L 198.234324 201.06473 
L 198.5033 187.616413 
L 198.772277 201.54384 
L 199.31023 274.750676 
L 199.713694 283.947261 
L 199.848183 282.767804 
L 200.117159 283.502374 
L 200.251647 281.702581 
L 200.386135 275.870365 
L 200.520624 275.463556 
L 200.655112 262.385898 
L 200.7896 214.727057 
L 200.924088 212.738802 
L 201.058576 200.947122 
L 201.193065 200.585621 
L 201.327553 197.87581 
L 201.462041 200.068434 
L 201.731018 188.159628 
L 201.865506 189.533332 
L 202.134482 212.438033 
L 202.403459 266.404342 
L 202.806923 276.293563 
L 203.0759 267.743824 
L 203.210388 272.110755 
L 203.344876 272.238004 
L 203.748341 262.774873 
L 203.882829 245.227134 
L 204.151805 182.694216 
L 204.420782 166.069991 
L 204.55527 160.389124 
L 204.689758 163.857605 
L 204.824246 157.29805 
L 204.958735 173.469675 
L 205.093223 173.718388 
L 205.765664 262.188759 
L 205.900152 262.7045 
L 206.03464 266.539785 
L 206.169129 281.526169 
L 206.303617 282.011544 
L 206.572593 285.986608 
L 206.84157 286.805529 
L 207.110546 277.330347 
L 207.379522 268.062427 
L 207.514011 267.176508 
L 207.917475 275.369566 
L 208.051964 275.120853 
L 208.32094 268.701078 
L 208.589916 270.317711 
L 208.858893 278.44377 
L 208.993381 282.13108 
L 209.127869 282.720086 
L 209.262357 282.171086 
L 209.396846 276.262233 
L 209.531334 277.369871 
L 209.80031 276.951012 
L 209.934799 277.951165 
L 210.203775 265.65724 
L 211.010704 109.095512 
L 211.279681 134.954881 
L 211.683145 168.362389 
L 212.221098 256.813963 
L 212.355586 259.300607 
L 212.759051 274.682714 
L 212.893539 274.473526 
L 213.028027 274.574746 
L 213.162516 277.248407 
L 213.431492 259.380138 
L 213.56598 220.945837 
L 213.834957 136.24568 
L 213.969445 140.873856 
L 214.103933 139.772483 
L 214.238421 142.761373 
L 214.910862 181.440048 
L 215.448815 262.48519 
L 215.583303 267.498003 
L 215.717792 268.121713 
L 216.121256 272.424538 
L 216.255745 273.390951 
L 216.390233 275.804331 
L 216.524721 271.757931 
L 216.659209 264.167856 
L 217.062674 150.011637 
L 217.197162 151.942052 
L 217.33165 152.02351 
L 217.466138 163.598289 
L 217.600627 162.302187 
L 217.735115 150.333613 
L 217.869603 155.61442 
L 218.273068 198.210319 
L 218.542044 257.595287 
L 218.811021 274.554984 
L 218.945509 267.064684 
L 219.483462 277.888023 
L 219.61795 279.703722 
L 219.886926 265.820639 
L 220.290391 163.255104 
L 220.693856 151.482223 
L 220.828344 162.249167 
L 220.962832 158.290491 
L 221.231808 185.706724 
L 221.500785 199.706451 
L 221.769761 257.457434 
L 222.038738 273.24153 
L 222.173226 272.481414 
L 222.307714 273.71823 
L 222.576691 279.827596 
L 222.845667 282.492099 
L 222.980155 280.803649 
L 223.114643 282.695022 
L 223.38362 261.943902 
L 223.518108 265.846185 
L 223.652596 265.688088 
L 223.921573 258.658582 
L 224.190549 257.979442 
L 224.325037 260.493079 
L 224.459525 259.858283 
L 224.728502 255.960821 
L 225.131967 263.302664 
L 225.266455 261.801712 
L 225.535431 263.288686 
L 225.669919 261.9627 
L 226.073384 271.828785 
L 226.34236 274.890457 
L 226.476849 274.817675 
L 226.745825 271.638876 
L 226.880313 273.946216 
L 227.014802 274.192037 
L 227.14929 273.89175 
L 227.283778 272.456832 
L 227.418266 274.152031 
L 227.552754 274.282171 
L 227.687243 274.111061 
L 227.956219 272.989926 
L 228.090707 278.870341 
L 228.225195 278.909866 
L 228.359684 280.023771 
L 228.494172 279.242446 
L 228.62866 280.224283 
L 228.763148 280.108603 
L 228.897637 277.794997 
L 229.301101 278.708871 
L 229.435589 272.425984 
L 229.570078 258.185738 
L 230.242519 94.95263 
L 230.377007 79.95034 
L 230.511495 110.264365 
L 230.780471 118.304146 
L 231.049448 146.07947 
L 231.587401 256.003237 
L 231.856377 267.351475 
L 232.125354 272.219688 
L 232.39433 276.928358 
L 232.528818 276.105582 
L 232.797795 258.810894 
L 232.932283 222.135899 
L 233.201259 134.006302 
L 233.335748 125.739498 
L 233.470236 136.150726 
L 233.604724 136.375338 
L 233.739212 149.309843 
L 233.8737 134.408773 
L 234.008189 141.206437 
L 234.815118 266.763433 
L 234.949606 266.493995 
L 235.218583 272.46358 
L 235.622047 280.287425 
L 235.756535 279.682996 
L 236.025512 266.885862 
L 236.563465 129.804697 
L 236.832441 117.45727 
L 237.63937 202.081271 
L 237.908347 260.799149 
L 238.177323 268.977747 
L 238.849764 284.061495 
L 238.984252 283.227633 
L 239.118741 279.387047 
L 239.253229 265.332371 
L 239.791182 129.026265 
L 240.194646 146.958158 
L 240.463623 166.297014 
L 240.732599 179.902946 
L 241.270552 258.239241 
L 241.674017 264.179906 
L 241.942993 277.266723 
L 242.077481 283.838329 
L 242.21197 283.205461 
L 242.480946 265.038351 
L 242.884411 152.05966 
L 243.018899 160.018947 
L 243.153387 157.747275 
L 243.287875 146.647268 
L 243.422363 154.716451 
L 243.556852 151.873608 
L 243.825828 168.698344 
L 244.229293 241.484876 
L 244.498269 264.118692 
L 244.767246 269.450108 
L 245.17071 277.394454 
L 245.305198 278.268804 
L 245.439687 277.969963 
L 245.574175 276.727846 
L 245.708663 265.146319 
L 245.843151 270.654148 
L 246.112128 267.639712 
L 246.381104 262.404214 
L 246.515592 262.370474 
L 247.188033 272.724343 
L 247.322522 273.134044 
L 247.45701 274.010323 
L 247.591498 273.652196 
L 247.725986 276.84931 
L 247.860475 275.396076 
L 248.129451 276.73363 
L 248.263939 275.840963 
L 248.398427 276.530707 
L 248.532916 276.375985 
L 248.667404 278.341586 
L 248.801892 278.241812 
L 249.205357 279.796748 
L 249.339845 279.914356 
L 249.608821 278.956138 
L 249.743309 279.08917 
L 249.877798 278.785991 
L 250.550239 275.587431 
L 250.819215 275.89061 
L 250.953703 276.677236 
L 251.088192 275.529591 
L 251.357168 276.800146 
L 251.491656 285.788506 
L 251.626144 285.293973 
L 251.760633 285.728738 
L 251.895121 285.567267 
L 252.164097 273.200078 
L 252.70205 144.512966 
L 252.836538 164.445165 
L 252.971027 160.966562 
L 253.240003 174.004214 
L 253.374491 175.370688 
L 253.508979 172.41602 
L 253.777956 205.563248 
L 254.046932 257.432852 
L 254.315909 278.972044 
L 254.719373 287.41044 
L 254.853862 287.167994 
L 255.122838 288.918622 
L 255.391814 267.946746 
L 255.660791 173.792616 
L 255.795279 177.274111 
L 256.198744 161.445671 
L 256.333232 165.155635 
L 256.46772 162.464622 
L 256.602208 163.672517 
L 257.409138 259.696812 
L 257.812602 267.242543 
L 258.081579 282.600067 
L 258.216067 283.674448 
L 258.350555 282.93795 
L 258.619532 268.62685 
L 258.888508 178.644441 
L 259.022996 179.522165 
L 259.157484 170.379565 
L 259.291973 169.798271 
L 259.426461 154.160222 
L 259.695437 167.996068 
L 259.829925 156.754353 
L 259.964414 165.917197 
L 260.771343 262.797527 
L 261.040319 265.058113 
L 261.309296 272.631317 
L 261.443784 275.877113 
L 261.71276 272.934014 
L 261.847249 260.420296 
L 262.116225 171.389839 
L 262.250713 175.598193 
L 262.654178 148.907372 
L 262.788666 156.280063 
L 262.923154 151.462942 
L 263.326619 186.958963 
L 263.461107 197.964498 
L 263.864572 247.221173 
L 264.268036 265.442268 
L 264.402525 264.677332 
L 264.671501 268.140993 
L 264.805989 268.013745 
L 264.940478 267.053598 
L 265.074966 259.410986 
L 265.209454 240.106352 
L 265.612919 124.685361 
L 265.881895 106.394859 
L 266.016383 115.990058 
L 266.150871 115.85799 
L 266.28536 115.405391 
L 266.419848 120.082249 
L 266.688824 157.723175 
L 266.957801 237.310263 
L 267.226777 254.13982 
L 267.361265 252.703456 
L 267.495754 269.232726 
L 267.630242 268.913641 
L 267.76473 270.801158 
L 267.899218 271.115423 
L 268.168195 277.700524 
L 268.302683 278.594155 
L 268.437171 276.007254 
L 268.706147 278.568609 
L 268.975124 275.039395 
L 269.2441 273.135972 
L 269.916541 258.499521 
L 270.320006 260.407764 
L 270.588982 265.342975 
L 270.723471 279.580329 
L 270.857959 280.63061 
L 270.992447 279.137852 
L 271.126935 280.030037 
L 271.261424 280.059921 
L 271.395912 279.87194 
L 271.799376 282.677188 
L 271.933865 281.277938 
L 272.068353 281.636547 
L 272.202841 280.985363 
L 272.337329 281.223954 
L 272.471817 280.372257 
L 272.606306 278.184936 
L 272.740794 279.480555 
L 272.875282 279.154722 
L 273.00977 278.470762 
L 273.144258 276.112812 
L 273.278747 276.012074 
L 273.547723 279.020726 
L 273.682211 279.237144 
L 273.8167 279.927852 
L 273.951188 279.057358 
L 274.085676 289.817073 
L 274.354652 291.466481 
L 274.489141 289.878287 
L 274.758117 275.004691 
L 275.29607 167.372359 
L 275.565046 155.004206 
L 275.699535 155.344981 
L 275.834023 173.491847 
L 275.968511 175.798223 
L 276.102999 186.063887 
L 276.77544 266.23516 
L 277.447881 283.823869 
L 277.58237 287.257164 
L 277.716858 286.861923 
L 277.851346 282.415943 
L 277.985834 272.324282 
L 278.389299 211.160729 
L 278.523787 191.463747 
L 278.658275 189.44368 
L 278.792763 179.824862 
L 278.927252 192.086975 
L 279.06174 186.203185 
L 279.196228 188.316761 
L 279.330716 196.096261 
L 280.137646 276.721098 
L 280.272134 279.133514 
L 280.406622 270.68596 
L 280.54111 270.398687 
L 280.810087 271.582482 
L 280.944575 270.952506 
L 281.213551 262.946947 
L 281.348039 233.680311 
L 281.482528 162.442932 
L 281.617016 152.12232 
L 281.751504 128.466179 
L 281.885992 129.630694 
L 282.154969 143.289165 
L 282.289457 124.973116 
L 282.423945 129.106277 
L 282.558433 138.316839 
L 282.82741 187.296846 
L 283.096386 256.609594 
L 283.365363 263.312786 
L 283.499851 265.544452 
L 283.634339 264.865794 
L 283.768827 264.876398 
L 283.903316 265.067753 
L 284.037804 266.38699 
L 284.172292 266.517613 
L 284.441268 261.266691 
L 285.113709 144.713961 
L 285.248198 143.626084 
L 285.382686 139.038877 
L 285.517174 148.382954 
L 285.651662 145.247536 
L 285.78615 148.775303 
L 286.055127 202.493382 
L 286.324103 252.618142 
L 286.59308 262.40325 
L 286.727568 262.280339 
L 286.862056 281.42784 
L 286.996544 281.487608 
L 287.131033 280.499024 
L 287.265521 281.111165 
L 287.668985 277.545802 
L 287.803474 278.432684 
L 288.07245 277.548212 
L 288.206938 275.353178 
L 288.341427 275.297266 
L 288.475915 272.925338 
L 288.610403 272.550341 
L 288.744891 271.414264 
L 288.879379 274.273013 
L 289.013868 274.616198 
L 289.148356 271.775283 
L 289.417332 279.00723 
L 289.55182 280.206931 
L 289.820797 279.841574 
L 289.955285 280.64025 
L 290.089773 279.124838 
L 290.224262 280.68845 
L 290.35875 279.771684 
L 290.493238 280.762196 
L 290.627726 279.203886 
L 291.031191 261.03292 
L 291.300167 194.137408 
L 291.434655 188.493173 
L 291.569144 189.107243 
L 291.703632 193.213894 
L 291.972608 180.332409 
L 292.376073 193.552258 
L 293.048514 270.764526 
L 293.183002 272.024477 
L 293.31749 270.860444 
L 293.451979 271.620078 
L 293.586467 270.680658 
L 293.720955 273.182244 
L 293.855443 273.448309 
L 294.258908 249.271607 
L 294.527884 190.663143 
L 294.796861 158.642352 
L 294.931349 142.603759 
L 295.065837 142.468317 
L 295.200325 150.52545 
L 295.334814 144.744327 
L 295.60379 173.101426 
L 295.738278 187.746553 
L 296.141743 258.69907 
L 296.276231 257.799655 
L 296.410719 265.074983 
L 296.545208 282.941324 
L 296.948672 285.127682 
L 297.486625 287.113527 
L 297.621113 286.764558 
L 297.755601 286.760702 
L 298.024578 283.555394 
L 298.159066 283.403564 
L 298.428042 281.240342 
L 298.697019 277.376619 
L 298.831507 276.229938 
L 298.965995 276.086302 
L 299.100484 276.445393 
L 299.36946 280.267181 
L 299.503948 279.755778 
L 299.638436 281.314088 
L 299.772925 271.560792 
L 299.907413 274.996015 
L 300.041901 274.69139 
L 300.176389 275.566223 
L 300.310877 275.279914 
L 300.579854 264.203042 
L 301.252295 128.80117 
L 301.386783 128.870578 
L 301.521271 142.190684 
L 301.65576 135.181421 
L 301.790248 144.68745 
L 302.597177 254.542773 
L 302.731665 256.312681 
L 303.000642 268.840859 
L 303.13513 269.067399 
L 303.269618 269.552293 
L 303.404106 272.035563 
L 303.538595 272.45876 
L 303.807571 255.94154 
L 304.345524 165.293969 
L 304.6145 154.669215 
L 304.748988 162.986629 
L 304.883477 153.320575 
L 305.017965 159.459826 
L 306.093871 267.277247 
L 306.228359 268.297643 
L 306.497335 278.551257 
L 306.766312 279.590933 
L 306.9008 274.836955 
L 307.035288 264.195812 
L 307.304265 170.824934 
L 307.438753 178.156655 
L 307.842217 158.708868 
L 307.976706 165.828027 
L 308.111194 157.327934 
L 308.245682 162.338337 
L 308.649147 208.784463 
L 309.052611 265.693872 
L 309.590564 278.042745 
L 309.994029 279.762526 
L 310.128517 276.17499 
L 310.263005 263.437142 
L 310.531982 170.712628 
L 310.66647 171.875215 
L 310.935446 169.564019 
L 311.069934 160.122578 
L 311.204423 166.640199 
L 311.338911 165.336867 
L 311.473399 158.497751 
L 311.607887 171.76098 
L 311.876864 209.700265 
L 312.14584 252.435945 
L 312.414817 264.355355 
L 312.818281 273.049212 
L 312.952769 272.611073 
L 313.087258 274.514978 
L 313.221746 274.415204 
L 313.356234 276.007254 
L 313.625211 265.349241 
L 313.759699 257.38176 
L 313.894187 260.766855 
L 314.028675 258.213694 
L 314.163163 260.11519 
L 314.297652 257.328258 
L 314.566628 263.954812 
L 314.701116 264.696612 
L 314.970093 269.495899 
L 315.104581 269.45782 
L 315.239069 269.158498 
L 315.508045 272.119431 
L 315.642534 272.661683 
L 315.777022 272.328138 
L 316.180487 275.346912 
L 316.314975 274.902989 
L 316.718439 277.280219 
L 316.852928 277.531824 
L 316.987416 276.670006 
L 317.121904 276.73604 
L 317.256392 275.605265 
L 317.39088 275.751311 
L 317.525369 274.197339 
L 317.659857 275.125673 
L 317.928833 272.581671 
L 318.332298 268.808565 
L 318.466786 269.469388 
L 318.601274 268.961841 
L 318.735763 270.432427 
L 318.870251 270.267101 
L 319.139227 271.394502 
L 319.273715 281.327102 
L 319.67718 282.456431 
L 319.811668 279.852178 
L 319.946157 271.819627 
L 320.349621 148.625401 
L 320.484109 132.31496 
L 320.887574 159.862779 
L 321.022062 164.575305 
L 321.291039 179.503849 
L 321.425527 181.321958 
L 321.560015 199.944559 
L 321.828991 256.021071 
L 321.96348 264.188582 
L 322.097968 264.982921 
L 322.635921 281.848145 
L 322.770409 282.19856 
L 322.904897 281.532917 
L 323.173874 270.997815 
L 323.44285 174.587436 
L 323.577338 174.952793 
L 323.711826 175.156198 
L 323.980803 154.779593 
L 324.249779 158.353633 
L 324.384268 161.147312 
L 324.787732 197.749044 
L 325.056709 252.811424 
L 325.325685 262.174781 
L 325.863638 280.173191 
L 325.998126 281.958042 
L 326.132614 282.024076 
L 326.267103 278.779243 
L 326.401591 269.691109 
L 326.670567 167.325605 
L 326.805055 173.340017 
L 326.939544 174.523812 
L 327.20852 161.166592 
L 327.343008 169.390498 
L 327.611985 165.599558 
L 327.746473 170.507295 
L 328.149937 225.743678 
L 328.418914 256.893493 
L 328.68789 269.830889 
L 328.822379 272.308376 
L 328.956867 282.454021 
L 329.225843 283.410312 
L 329.360331 282.554759 
L 329.629308 269.595673 
L 330.032772 179.70147 
L 330.301749 168.250565 
L 330.570725 159.355231 
L 330.839702 181.424624 
L 330.97419 182.648907 
L 331.108678 185.421379 
L 331.781119 262.054281 
L 332.050096 269.288156 
L 332.184584 280.168853 
L 332.319072 281.134301 
L 332.45356 280.462874 
L 332.588049 281.460134 
L 332.857025 268.72807 
L 333.26049 179.063782 
L 333.394978 180.992269 
L 333.663954 165.934549 
L 333.798442 167.138588 
L 333.932931 170.942542 
L 334.336395 188.982404 
L 334.73986 257.383206 
L 335.143325 273.266113 
L 335.277813 273.0656 
L 335.412301 273.163928 
L 335.546789 273.452165 
L 335.681277 273.346125 
L 335.950254 275.95327 
L 336.084742 273.838248 
L 336.622695 257.214024 
L 336.757183 258.016556 
L 336.891671 256.169527 
L 337.295136 262.589302 
L 337.698601 267.367863 
L 337.833089 266.883934 
L 338.102065 271.023361 
L 338.236553 270.789108 
L 338.371042 271.43258 
L 338.50553 269.074629 
L 339.043483 272.264032 
L 339.446947 275.289072 
L 339.581436 274.802733 
L 339.715924 273.622311 
L 339.850412 273.884038 
L 339.9849 273.096448 
L 340.119388 272.982696 
L 340.253877 272.504551 
L 340.388365 273.995862 
L 340.522853 271.987845 
L 340.657341 272.592275 
L 340.926318 272.27078 
L 341.060806 268.900145 
L 341.329782 273.82909 
L 341.464271 273.726424 
L 341.598759 274.259999 
L 341.733247 275.841445 
L 341.867735 283.738554 
L 342.136712 283.841221 
L 342.2712 284.48903 
L 342.540176 271.671652 
L 342.943641 155.391735 
L 343.212617 172.160078 
L 343.347106 171.41876 
L 343.75057 185.941458 
L 343.885058 187.632319 
L 344.019547 186.963301 
L 344.423011 255.499545 
L 345.22994 281.439408 
L 345.364429 282.533551 
L 345.498917 282.16241 
L 345.633405 277.905375 
L 345.767893 269.743647 
L 346.03687 184.684399 
L 346.171358 188.84166 
L 346.440334 175.147039 
L 346.574823 169.724525 
L 346.843799 176.668718 
L 347.112775 178.555271 
L 347.381752 213.364439 
L 347.650728 252.647062 
L 348.054193 270.77995 
L 348.188681 271.973385 
L 348.323169 281.027779 
L 348.457658 281.883813 
L 348.592146 283.772294 
L 348.726634 283.575156 
L 348.99561 270.545697 
L 349.264587 183.623996 
L 349.399075 185.111934 
L 349.668052 167.387301 
L 349.80254 163.236306 
L 350.206004 182.109548 
L 350.340493 183.300573 
L 351.012934 264.241121 
L 351.147422 266.583647 
L 351.550886 283.404528 
L 351.685375 282.685864 
L 351.954351 283.056041 
L 352.088839 281.645705 
L 352.223328 274.288437 
L 352.492304 179.508669 
L 352.626792 186.740134 
L 352.76128 175.26513 
L 352.895769 174.54984 
L 353.030257 166.19483 
L 353.164745 173.472567 
L 353.299233 171.376343 
L 353.56821 153.436738 
L 354.240651 270.922622 
L 354.375139 272.070749 
L 354.644115 277.987315 
L 354.913092 282.300745 
L 355.182068 283.352471 
L 355.316556 280.928005 
L 355.451045 271.715996 
L 355.854509 197.739886 
L 356.123486 159.053499 
L 356.257974 160.782919 
L 356.392462 169.471956 
L 356.52695 168.832823 
L 356.661439 179.536143 
L 356.795927 178.2733 
L 357.33388 266.573043 
L 357.602856 276.257895 
L 357.737344 278.240366 
L 357.871832 282.534515 
L 358.006321 281.950812 
L 358.140809 282.16723 
L 358.275297 282.91385 
L 358.409785 282.825162 
L 358.678762 281.554125 
L 359.082226 262.917545 
L 359.351203 256.958081 
L 359.485691 250.629404 
L 359.620179 261.460937 
L 359.754667 262.888143 
L 359.889156 263.057807 
L 360.427109 277.477358 
L 360.561597 278.163246 
L 360.965061 282.348463 
L 361.234038 282.308457 
L 361.368526 282.115174 
L 361.503014 283.432484 
L 361.771991 283.021337 
L 361.906479 284.364192 
L 362.040967 284.315992 
L 362.175455 284.694845 
L 362.309944 284.735815 
L 362.57892 281.291916 
L 362.713408 281.24227 
L 362.982385 280.097035 
L 363.116873 278.590781 
L 363.251361 278.488114 
L 363.385849 279.589005 
L 363.520337 278.727187 
L 363.654826 278.666937 
L 364.05829 281.478932 
L 364.192778 255.230107 
L 364.730731 261.545769 
L 364.86522 260.33932 
L 364.999708 248.144688 
L 365.134196 225.78513 
L 365.403172 136.625979 
L 365.672149 106.045408 
L 365.806637 100.06811 
L 366.075613 117.173371 
L 366.34459 113.999393 
L 366.479078 125.539467 
L 367.017031 253.124725 
L 367.151519 258.131272 
L 367.286007 256.37968 
L 367.554984 267.847936 
L 367.689472 268.722768 
L 367.958448 273.669066 
L 368.227425 249.883748 
L 368.496401 153.015951 
L 368.765378 100.641209 
L 369.034354 89.635674 
L 369.168842 94.402667 
L 369.303331 93.953923 
L 369.437819 97.354925 
L 369.572307 95.212429 
L 369.706795 111.475634 
L 370.244748 236.500983 
L 370.782701 281.142978 
L 370.917189 281.450976 
L 371.051677 282.351355 
L 371.186166 282.069866 
L 371.455142 267.10469 
L 371.858607 172.923086 
L 372.127583 205.221992 
L 372.262071 201.121607 
L 372.396559 202.562308 
L 372.665536 191.769818 
L 372.800024 195.601728 
L 373.203489 235.698451 
L 373.472465 258.17417 
L 373.87593 279.575509 
L 374.010418 288.682924 
L 374.144906 288.535431 
L 374.279394 289.75393 
L 374.413883 289.245901 
L 374.682859 272.521903 
L 375.220812 182.239688 
L 375.489788 178.574551 
L 375.624277 178.799645 
L 375.893253 185.399689 
L 376.027741 189.738182 
L 376.565694 257.989564 
L 376.83467 266.967802 
L 376.969159 269.832335 
L 377.103647 281.761385 
L 377.238135 280.657602 
L 377.507112 282.750934 
L 377.6416 280.76557 
L 377.776088 284.340092 
L 378.045064 282.171568 
L 378.179553 272.43466 
L 378.314041 271.802757 
L 378.448529 264.631542 
L 378.583017 265.642298 
L 378.717505 264.715892 
L 378.851994 269.27225 
L 378.986482 268.504422 
L 379.12097 269.42167 
L 379.255458 271.602726 
L 379.389947 271.485118 
L 379.927899 280.832087 
L 380.062388 280.62338 
L 380.196876 281.044167 
L 380.331364 271.035411 
L 380.465852 271.720334 
L 380.869317 274.653794 
L 381.138293 263.647777 
L 381.272782 236.27878 
L 381.541758 160.929448 
L 381.810734 140.562001 
L 381.945223 142.169476 
L 382.214199 148.722283 
L 382.348687 140.651172 
L 382.752152 191.015968 
L 383.021128 259.711272 
L 383.155616 267.720206 
L 383.290105 268.389224 
L 383.424593 269.689663 
L 383.559081 264.71059 
L 383.693569 263.991444 
L 383.962546 264.341377 
L 384.097034 265.54397 
L 384.231522 263.741767 
L 384.36601 265.148247 
L 385.038451 149.7957 
L 385.17294 152.264029 
L 385.307428 167.554555 
L 385.576404 161.85248 
L 386.248845 262.58641 
L 386.921286 281.277456 
L 387.055775 280.454198 
L 387.190263 281.744997 
L 387.324751 281.047059 
L 387.459239 281.209976 
L 387.593727 282.714784 
L 387.728216 282.134454 
L 387.862704 283.46526 
L 387.997192 282.283875 
L 388.13168 283.890867 
L 388.266169 282.896498 
L 388.400657 280.890409 
L 388.535145 280.980543 
L 388.669633 280.311043 
L 388.804121 281.462062 
L 388.93861 278.884319 
L 389.207586 281.047059 
L 389.476562 287.807127 
L 389.611051 286.737566 
L 389.745539 287.562753 
L 389.880027 287.510214 
L 390.014515 272.448156 
L 390.149004 272.687711 
L 390.41798 272.709883 
L 390.552468 272.577815 
L 390.686956 267.019858 
L 390.821445 267.206874 
L 390.955933 258.258521 
L 391.224909 201.48841 
L 391.359397 169.769351 
L 391.493886 165.735964 
L 391.762862 176.546289 
L 391.89735 175.996808 
L 392.031839 168.694488 
L 392.166327 172.434336 
L 392.300815 181.512348 
L 392.569791 242.327414 
L 392.70428 268.903037 
L 392.973256 273.798724 
L 393.107744 274.463404 
L 393.376721 267.329785 
L 393.645697 273.110426 
L 393.780185 269.682433 
L 393.914673 271.082165 
L 394.049162 263.588009 
L 394.721603 147.722613 
L 394.990579 146.639074 
L 395.125067 146.214431 
L 395.259556 157.724139 
L 395.394044 158.603791 
L 395.931997 247.715225 
L 396.200973 261.474915 
L 396.335461 257.696989 
L 396.46995 282.742258 
L 396.604438 283.129787 
L 397.007902 286.198207 
L 397.276879 272.997638 
L 397.545855 198.476866 
L 397.680343 193.23221 
L 397.94932 169.597277 
L 398.083808 155.982186 
L 398.218296 168.866081 
L 398.352785 164.047032 
L 398.487273 167.092798 
L 398.487273 167.092798 
" clip-path="url(#pb17498a795)" style="fill: none; stroke: #1f77b4; stroke-width: 1.5; stroke-linecap: square"/>
   </g>
   <g id="line2d_13">
    <path d="M 73.832727 285.558972 
L 74.236192 281.950738 
L 74.37068 279.500513 
L 74.505168 281.428671 
L 74.639657 279.655129 
L 74.774145 281.233157 
L 74.908633 267.102776 
L 75.043121 215.934241 
L 75.177609 240.856897 
L 75.581074 247.457242 
L 75.715562 250.203231 
L 75.85005 250.078314 
L 75.984539 252.122986 
L 76.253515 250.723817 
L 76.388003 250.482361 
L 76.522492 284.64385 
L 76.925956 276.35456 
L 77.060444 278.849129 
L 77.194933 264.5278 
L 77.329421 270.399829 
L 77.463909 267.335317 
L 77.598397 267.708509 
L 77.732885 269.137369 
L 77.867374 256.442597 
L 78.001862 232.098362 
L 78.270838 127.55586 
L 78.405327 99.182091 
L 78.674303 110.092865 
L 78.808791 100.214854 
L 78.943279 109.705361 
L 79.077768 106.314221 
L 79.61572 193.091777 
L 79.884697 250.697559 
L 80.288161 274.463382 
L 80.42265 264.74717 
L 80.557138 278.86349 
L 80.691626 271.605323 
L 80.826114 271.569034 
L 80.960603 268.678923 
L 81.095091 262.330938 
L 81.229579 241.89523 
L 81.498555 144.865951 
L 81.633044 165.914944 
L 81.767532 155.474117 
L 81.90202 156.420598 
L 82.036508 211.263044 
L 82.170996 213.634808 
L 82.305485 213.616581 
L 82.439973 214.857637 
L 82.574461 198.244429 
L 82.708949 220.968801 
L 82.977926 213.745945 
L 83.112414 220.950064 
L 83.246902 213.616622 
L 83.38139 213.597755 
L 83.784855 250.531901 
L 83.919343 279.443328 
L 84.053831 282.999825 
L 84.18832 280.235559 
L 84.322808 213.59769 
L 84.457296 227.285788 
L 84.591784 213.59769 
L 84.860761 213.59769 
L 84.995249 213.970239 
L 85.264225 167.501791 
L 85.398714 183.742214 
L 85.533202 185.79403 
L 85.802178 202.444255 
L 86.071155 238.661525 
L 86.205643 262.210649 
L 86.340131 259.816507 
L 86.474619 267.958735 
L 86.609107 265.580207 
L 87.012572 295.188024 
L 87.14706 294.826121 
L 87.281549 291.053721 
L 87.416037 291.682738 
L 87.685013 288.272538 
L 87.95399 240.174574 
L 88.088478 254.659103 
L 88.222966 246.208308 
L 88.357454 257.156241 
L 88.491942 256.217616 
L 88.626431 252.227655 
L 88.760919 261.021032 
L 88.895407 248.990797 
L 89.029895 259.483499 
L 89.164384 258.638562 
L 89.298872 262.147296 
L 89.43336 281.518005 
L 89.567848 281.122663 
L 89.702336 277.263674 
L 89.836825 277.673631 
L 89.971313 282.594215 
L 90.105801 255.474875 
L 90.240289 263.068337 
L 90.374777 263.078928 
L 90.509266 262.309695 
L 90.643754 260.091436 
L 90.91273 265.309764 
L 91.047218 256.080553 
L 91.181707 237.297316 
L 91.316195 244.926169 
L 91.450683 236.583635 
L 91.585171 253.683773 
L 91.71966 248.42646 
L 91.988636 254.214989 
L 92.257612 260.682464 
L 92.392101 259.214263 
L 92.795565 269.276559 
L 92.930053 270.493273 
L 93.064542 269.082165 
L 93.19903 271.467951 
L 93.333518 284.102943 
L 93.602495 277.793263 
L 93.736983 277.081378 
L 93.871471 274.327556 
L 94.140447 261.044246 
L 94.409424 175.44564 
L 94.543912 182.071912 
L 94.812888 160.314562 
L 94.947377 158.904858 
L 95.216353 172.463519 
L 95.48533 164.98532 
L 95.888794 252.811353 
L 96.023282 268.398057 
L 96.157771 269.923079 
L 96.292259 267.527838 
L 96.426747 275.210379 
L 96.561235 274.765753 
L 96.830212 270.684486 
L 96.9647 272.207967 
L 97.233676 267.328054 
L 97.502653 222.176656 
L 97.637141 171.613023 
L 97.771629 183.553543 
L 97.906117 170.469225 
L 98.040606 189.262631 
L 98.175094 180.35601 
L 98.309582 182.694076 
L 98.44407 181.234379 
L 98.713047 197.636232 
L 98.847535 207.130947 
L 99.250999 271.843293 
L 99.385488 270.603586 
L 99.519976 272.283556 
L 99.788952 288.679289 
L 100.057929 281.340372 
L 100.192417 280.465155 
L 100.326905 280.895709 
L 100.461393 280.382047 
L 100.595882 279.215627 
L 100.864858 281.693468 
L 100.999346 279.887778 
L 101.133834 283.939995 
L 101.402811 280.473111 
L 101.537299 271.250109 
L 101.671787 281.616359 
L 101.940764 268.626237 
L 102.075252 274.971483 
L 102.20974 273.115125 
L 102.344228 273.459338 
L 102.478717 275.760765 
L 102.613205 280.808151 
L 102.747693 274.530255 
L 102.882181 287.580077 
L 103.016669 262.461802 
L 103.285646 272.569364 
L 103.420134 270.358622 
L 103.823599 254.645519 
L 103.958087 223.874723 
L 104.092575 166.729937 
L 104.227063 171.952965 
L 104.361552 153.413777 
L 104.49604 171.535568 
L 104.765016 145.121692 
L 105.302969 193.429581 
L 105.706434 268.321953 
L 105.97541 258.080697 
L 106.244387 289.98825 
L 106.647851 280.702184 
L 106.782339 282.834157 
L 106.916828 280.480289 
L 107.051316 281.839402 
L 107.320292 224.55007 
L 107.589269 254.684315 
L 107.723757 250.035488 
L 107.858245 252.966401 
L 107.992733 252.246174 
L 108.127222 253.460893 
L 108.396198 251.816317 
L 108.530686 249.428183 
L 108.665174 254.673781 
L 108.934151 281.500762 
L 109.203127 278.092765 
L 109.337615 280.410318 
L 109.472104 271.645056 
L 109.606592 273.119805 
L 109.74108 272.03293 
L 109.875568 272.950684 
L 110.144545 271.292774 
L 110.279033 271.468877 
L 110.413521 270.475384 
L 110.548009 271.231405 
L 110.682498 272.807981 
L 110.951474 271.665602 
L 111.085962 272.788302 
L 111.22045 276.237854 
L 111.354939 275.605535 
L 111.758403 270.931471 
L 112.02738 275.692677 
L 112.161868 275.283158 
L 112.430844 273.232427 
L 112.565333 277.015154 
L 112.699821 258.641165 
L 112.968797 265.215762 
L 113.237774 264.812366 
L 113.372262 263.365916 
L 113.50675 267.186949 
L 113.641238 267.110235 
L 113.775726 269.979328 
L 113.910215 265.317653 
L 114.044703 267.33858 
L 114.179191 264.380537 
L 114.313679 258.219707 
L 114.582656 263.547564 
L 114.717144 262.179711 
L 114.98612 254.175529 
L 115.120609 255.061108 
L 115.389585 263.715474 
L 115.658561 262.092025 
L 115.79305 267.041982 
L 115.927538 266.208766 
L 116.062026 264.146341 
L 116.196514 258.443939 
L 116.331002 267.000547 
L 116.599979 260.094153 
L 116.734467 239.7401 
L 117.003444 127.926132 
L 117.137932 85.631681 
L 117.27242 91.468339 
L 117.406908 89.111421 
L 117.541396 77.466483 
L 117.810373 80.659422 
L 118.213837 141.005795 
L 118.482814 230.427522 
L 118.886279 255.692714 
L 119.020767 257.007325 
L 119.155255 256.489549 
L 119.289743 257.288102 
L 119.424231 253.913159 
L 119.55872 253.532387 
L 119.693208 255.668975 
L 119.827696 253.384656 
L 119.962184 233.256949 
L 120.231161 124.316836 
L 120.500137 94.435596 
L 120.634625 91.495022 
L 120.769114 83.896868 
L 120.903602 87.295148 
L 121.03809 83.832885 
L 121.172578 93.288728 
L 121.441555 127.668283 
L 121.710531 231.3516 
L 121.845019 236.841788 
L 121.979507 253.894541 
L 122.113996 246.484081 
L 122.382972 251.416936 
L 122.51746 263.050436 
L 123.055413 249.629571 
L 123.189901 234.201431 
L 123.458878 127.766227 
L 123.727854 90.896872 
L 123.996831 82.213446 
L 124.669272 135.299021 
L 125.072736 244.700773 
L 125.207225 263.080724 
L 125.341713 259.624618 
L 125.476201 261.264459 
L 125.610689 258.328259 
L 125.745177 271.690278 
L 126.148642 266.615262 
L 126.28313 246.536833 
L 126.417618 243.431508 
L 126.686595 131.923236 
L 126.955571 96.773154 
L 127.09006 92.670149 
L 127.224548 98.539348 
L 127.359036 111.296594 
L 127.493524 113.154227 
L 127.628012 118.312654 
L 127.896989 154.316359 
L 128.300453 247.38543 
L 128.434942 260.14287 
L 128.56943 257.336195 
L 128.703918 259.559928 
L 128.838406 265.834603 
L 128.972894 260.767702 
L 129.241871 264.560498 
L 129.376359 263.205807 
L 129.645336 226.757472 
L 130.0488 90.100993 
L 130.183288 95.921744 
L 130.317777 92.409482 
L 130.452265 97.387698 
L 130.586753 121.952262 
L 130.721241 114.224592 
L 130.855729 121.226987 
L 130.990218 136.513671 
L 131.662659 264.246306 
L 131.797147 261.744844 
L 131.931635 268.038538 
L 132.200612 259.777012 
L 132.3351 263.56953 
L 132.469588 271.915923 
L 132.738564 266.275395 
L 132.873053 264.512791 
L 133.007541 247.14526 
L 133.142029 246.973638 
L 133.276517 237.802106 
L 133.411005 237.848972 
L 133.545494 237.543127 
L 133.679982 236.267598 
L 133.81447 239.69747 
L 133.948958 240.081696 
L 134.083447 235.955711 
L 134.352423 247.840574 
L 134.621399 253.763052 
L 134.755888 258.568744 
L 134.890376 257.927351 
L 135.024864 256.129624 
L 135.159352 263.666287 
L 135.29384 263.584192 
L 135.562817 262.895842 
L 135.831793 264.64091 
L 135.966282 271.542175 
L 136.235258 264.054226 
L 136.369746 268.63673 
L 136.504234 267.695864 
L 136.638723 260.15904 
L 136.773211 264.930345 
L 136.907699 264.024783 
L 137.042187 265.416972 
L 137.311164 254.893413 
L 137.58014 260.447995 
L 137.714628 256.378307 
L 137.983605 263.929713 
L 138.118093 263.107487 
L 138.252581 260.043519 
L 138.521558 269.919258 
L 138.790534 262.11378 
L 138.925022 265.342705 
L 139.05951 265.265114 
L 139.328487 235.401214 
L 139.597463 123.314713 
L 139.731951 86.932934 
L 139.86644 93.763577 
L 140.000928 90.960462 
L 140.135416 91.101429 
L 140.404393 104.577947 
L 140.942345 181.823535 
L 141.076834 240.603198 
L 141.614786 267.279982 
L 141.749275 266.891923 
L 141.883763 268.344234 
L 142.018251 265.037804 
L 142.152739 264.836359 
L 142.287228 261.439681 
L 142.959669 91.796577 
L 143.094157 100.222193 
L 143.363133 88.091376 
L 143.497621 98.237794 
L 143.63211 88.975299 
L 143.766598 102.704175 
L 144.304551 239.564905 
L 144.439039 240.168031 
L 144.708015 264.928156 
L 144.842504 272.723316 
L 145.11148 265.682414 
L 145.245968 264.976727 
L 145.380456 266.402761 
L 145.514945 255.76227 
L 145.649433 224.072185 
L 145.783921 230.002564 
L 146.052897 133.230254 
L 146.187386 97.643423 
L 146.321874 97.739904 
L 146.456362 107.046765 
L 146.59085 106.212656 
L 146.725339 115.679709 
L 146.859827 110.912112 
L 146.994315 129.083011 
L 147.128803 129.657115 
L 147.263291 154.772425 
L 147.532268 244.782878 
L 148.070221 270.017582 
L 148.204709 270.674732 
L 148.87715 259.937533 
L 149.415103 102.04823 
L 149.549591 113.994743 
L 149.684079 106.579676 
L 149.818567 105.81114 
L 150.222032 149.483782 
L 150.35652 145.195946 
L 150.491009 163.879121 
L 150.759985 246.156583 
L 150.894473 249.392407 
L 151.028961 263.95808 
L 151.16345 265.466163 
L 151.297938 270.077317 
L 151.566914 267.260739 
L 151.701402 268.252029 
L 151.835891 266.811145 
L 151.970379 266.860922 
L 152.104867 262.373115 
L 152.64282 96.156496 
L 152.777308 119.766031 
L 153.046285 96.880615 
L 153.180773 116.668802 
L 153.315261 115.435845 
L 153.449749 158.438211 
L 153.584237 164.534032 
L 154.12219 263.052281 
L 154.256678 272.651123 
L 154.391167 266.503492 
L 154.525655 278.220116 
L 154.660143 275.026615 
L 154.794631 275.503606 
L 154.92912 273.51328 
L 155.063608 273.550845 
L 155.332584 276.78269 
L 155.467072 274.065391 
L 155.601561 264.833387 
L 155.736049 246.606163 
L 155.870537 256.669475 
L 156.005025 253.768569 
L 156.139513 260.161263 
L 156.274002 257.831264 
L 156.40849 258.090507 
L 156.677466 263.385258 
L 156.811955 261.968246 
L 157.080931 267.612278 
L 157.349907 272.40555 
L 157.484396 272.68509 
L 157.618884 269.426865 
L 157.753372 275.034604 
L 157.88786 274.976682 
L 158.022348 274.551042 
L 158.156837 272.894406 
L 158.291325 272.915851 
L 158.425813 274.754652 
L 158.694789 279.475066 
L 158.829278 274.78764 
L 158.963766 277.979611 
L 159.098254 277.799842 
L 159.232742 275.732827 
L 159.367231 276.326421 
L 159.501719 278.690742 
L 159.770695 271.515876 
L 159.905183 266.480242 
L 160.039672 269.653352 
L 160.17416 262.980588 
L 160.308648 266.49265 
L 160.443136 266.660253 
L 160.577624 273.344526 
L 160.846601 265.277322 
L 160.981089 270.795805 
L 161.115577 270.263457 
L 161.250066 272.81179 
L 161.519042 269.265294 
L 161.65353 268.378314 
L 161.922507 237.572949 
L 162.325971 96.470142 
L 162.460459 89.160657 
L 162.594948 98.765012 
L 162.863924 86.041354 
L 162.998412 107.220066 
L 163.132901 110.853472 
L 163.401877 155.52873 
L 163.805342 246.000195 
L 164.208806 268.027648 
L 164.343294 264.849294 
L 164.477783 276.356005 
L 164.612271 272.975347 
L 164.746759 274.550762 
L 165.150224 235.759325 
L 165.553688 104.101627 
L 165.688177 116.534364 
L 165.957153 105.962874 
L 166.091641 115.99925 
L 166.360618 112.067786 
L 166.495106 117.190875 
L 166.629594 133.411205 
L 166.89857 241.019968 
L 167.436523 258.959403 
L 167.571012 259.986122 
L 167.839988 265.038972 
L 168.108964 263.852994 
L 168.377941 225.716143 
L 168.781405 94.746797 
L 168.915894 105.428083 
L 169.050382 101.442985 
L 169.18487 101.805908 
L 169.319358 108.1263 
L 169.453847 96.056888 
L 169.588335 108.333267 
L 170.395264 264.386072 
L 170.529752 262.30147 
L 170.66424 268.194618 
L 170.798729 268.286075 
L 171.067705 263.466291 
L 171.202193 262.835424 
L 171.336681 265.710892 
L 172.009123 100.047612 
L 172.143611 107.643889 
L 172.278099 108.947533 
L 172.412587 99.009476 
L 172.547075 99.003195 
L 173.085028 157.336945 
L 173.488493 251.194767 
L 173.622981 262.807985 
L 173.757469 264.606326 
L 174.026446 288.133654 
L 174.160934 278.633594 
L 174.42991 275.417008 
L 174.564399 275.740935 
L 174.967863 221.845577 
L 175.102351 168.945518 
L 175.23684 165.659474 
L 175.505816 141.656415 
L 175.640304 142.384288 
L 175.774792 155.531897 
L 175.909281 152.831109 
L 176.043769 159.625153 
L 176.447234 205.414257 
L 176.581722 251.478069 
L 176.71621 254.103828 
L 176.985186 268.166206 
L 177.119675 270.496626 
L 177.254163 270.685336 
L 177.388651 270.339192 
L 177.523139 267.622956 
L 177.792116 273.39428 
L 177.926604 273.1297 
L 178.061092 274.03179 
L 178.19558 259.82731 
L 178.330069 257.868366 
L 178.464557 260.563483 
L 178.599045 250.518875 
L 178.868021 255.873493 
L 179.00251 261.592799 
L 179.136998 258.025734 
L 179.271486 257.640473 
L 179.405974 260.97323 
L 179.540462 258.043087 
L 179.674951 259.075078 
L 180.078415 273.135912 
L 180.212904 266.802167 
L 180.347392 271.217763 
L 180.48188 280.676853 
L 180.885345 274.965619 
L 181.019833 275.308708 
L 181.154321 274.429545 
L 181.557786 259.189493 
L 181.692274 263.654074 
L 181.826762 261.513874 
L 181.96125 266.924464 
L 182.095738 257.052353 
L 182.364715 270.121617 
L 182.633691 273.688938 
L 182.76818 278.268078 
L 183.037156 274.746593 
L 183.171644 279.966686 
L 183.440621 277.909103 
L 183.575109 280.033395 
L 183.709597 275.639117 
L 183.844085 289.082272 
L 183.978573 288.471632 
L 184.113062 289.114173 
L 184.516526 262.111669 
L 184.785503 176.332714 
L 184.919991 185.411385 
L 185.054479 173.453822 
L 185.188967 188.326565 
L 185.323456 179.095863 
L 185.72692 192.654318 
L 186.264873 258.283516 
L 186.937314 285.593086 
L 187.071802 294.96811 
L 187.206291 292.884862 
L 187.340779 288.673743 
L 187.475267 289.070485 
L 187.609755 282.096987 
L 187.744243 268.583209 
L 188.01322 180.733606 
L 188.147708 189.151752 
L 188.282196 179.10139 
L 188.416684 187.217456 
L 188.551173 186.366934 
L 188.685661 190.396241 
L 188.820149 200.431603 
L 188.954637 197.571131 
L 189.223614 221.5509 
L 189.627078 268.876803 
L 189.761567 267.832968 
L 189.896055 268.499147 
L 190.030543 281.081097 
L 190.165031 273.595481 
L 190.299519 273.979436 
L 190.568496 268.626265 
L 190.971961 272.232543 
L 191.106449 271.830515 
L 191.240937 264.81977 
L 191.509913 270.274588 
L 191.644402 263.070893 
L 191.77889 269.681852 
L 192.047866 268.856698 
L 192.182354 264.784611 
L 192.316843 265.332746 
L 192.451331 267.697796 
L 192.585819 266.551501 
L 192.720307 268.566865 
L 192.854796 275.511901 
L 193.123772 271.298112 
L 193.25826 273.919509 
L 193.527237 267.604357 
L 193.661725 269.473251 
L 193.930701 268.155438 
L 194.199678 252.644972 
L 194.468654 174.983452 
L 194.603142 168.790146 
L 194.73763 151.687635 
L 194.872119 153.603579 
L 195.006607 144.158426 
L 195.141095 147.517132 
L 195.275583 155.673946 
L 195.410072 148.875847 
L 195.679048 181.340104 
L 195.948024 241.751688 
L 196.082513 265.119638 
L 196.217001 264.164353 
L 196.351489 262.36191 
L 196.620465 281.087715 
L 196.889442 272.650367 
L 197.02393 270.050301 
L 197.158418 271.089259 
L 197.292907 266.166818 
L 197.427395 253.753814 
L 197.696371 182.089944 
L 197.830859 199.2059 
L 197.965348 190.962688 
L 198.099836 199.047287 
L 198.234324 194.786971 
L 198.368812 203.25928 
L 198.5033 194.866185 
L 198.637789 194.002757 
L 199.31023 277.629877 
L 199.444718 275.931199 
L 199.579206 276.377241 
L 199.848183 287.34133 
L 199.982671 282.039608 
L 200.117159 281.523342 
L 200.251647 280.293071 
L 200.386135 276.209287 
L 200.520624 265.388176 
L 200.655112 267.850933 
L 200.7896 241.440011 
L 200.924088 169.111577 
L 201.058576 204.866496 
L 201.193065 191.421595 
L 201.327553 198.032404 
L 201.462041 196.712063 
L 201.596529 202.003608 
L 201.731018 193.110887 
L 201.865506 196.364644 
L 201.999994 204.832188 
L 202.537947 275.27339 
L 202.672435 271.075898 
L 202.806923 272.210682 
L 202.941411 281.326908 
L 203.210388 265.185787 
L 203.344876 271.032725 
L 203.479364 268.660217 
L 203.882829 251.376386 
L 204.286294 166.687267 
L 204.420782 158.725745 
L 204.55527 161.20243 
L 204.689758 158.052149 
L 204.824246 165.181644 
L 204.958735 162.168508 
L 205.362199 213.266453 
L 205.631176 249.181177 
L 205.765664 267.497772 
L 205.900152 266.075746 
L 206.03464 262.241309 
L 206.303617 290.848587 
L 206.438105 284.613783 
L 206.572593 286.64386 
L 206.84157 284.924266 
L 206.976058 284.121961 
L 207.379522 260.590822 
L 207.514011 258.908391 
L 207.648499 262.43113 
L 207.917475 275.185877 
L 208.051964 276.081848 
L 208.186452 275.668338 
L 208.32094 270.988089 
L 208.455428 270.246868 
L 208.589916 274.345464 
L 208.724405 273.786197 
L 208.858893 281.50021 
L 208.993381 281.013396 
L 209.127869 283.259211 
L 209.262357 280.876658 
L 209.396846 283.490765 
L 209.531334 272.677733 
L 209.665822 275.557102 
L 209.80031 273.118651 
L 209.934799 273.118052 
L 210.069287 274.170521 
L 210.203775 254.191228 
L 210.338263 255.322966 
L 210.60724 161.155025 
L 210.741728 155.049453 
L 210.876216 130.491667 
L 211.010704 126.836844 
L 211.145192 111.82789 
L 211.279681 134.405764 
L 211.414169 134.945801 
L 211.817634 193.167232 
L 212.221098 264.311593 
L 212.490075 259.189833 
L 212.624563 273.430289 
L 212.893539 277.314673 
L 213.162516 271.303399 
L 213.297004 274.911109 
L 213.56598 243.064114 
L 213.834957 132.706332 
L 213.969445 116.973109 
L 214.103933 136.729311 
L 214.238421 134.673507 
L 214.37291 135.369246 
L 215.045351 199.464266 
L 215.448815 270.227407 
L 215.583303 262.673206 
L 215.986768 273.596163 
L 216.121256 273.329356 
L 216.255745 271.003373 
L 216.390233 270.761799 
L 216.524721 273.369534 
L 216.793697 249.497317 
L 217.062674 142.553737 
L 217.197162 133.322941 
L 217.466138 148.516514 
L 217.600627 158.65502 
L 217.735115 157.467928 
L 217.869603 149.802575 
L 218.407556 218.460538 
L 218.542044 263.070397 
L 218.945509 273.602393 
L 219.079997 269.5887 
L 219.214485 273.236622 
L 219.348973 273.175441 
L 219.61795 277.304732 
L 219.752438 278.19003 
L 220.021414 250.23932 
L 220.290391 140.563707 
L 220.559367 152.262704 
L 220.828344 148.132579 
L 220.962832 163.021139 
L 221.09732 158.172885 
L 221.366297 196.987409 
L 221.635273 221.341221 
L 221.769761 261.663329 
L 221.904249 267.04874 
L 222.038738 267.204807 
L 222.307714 275.402512 
L 222.442202 275.128 
L 222.711179 278.997735 
L 222.845667 278.684113 
L 222.980155 279.924866 
L 223.114643 275.127088 
L 223.249132 279.836354 
L 223.518108 246.174153 
L 223.652596 262.591217 
L 223.787084 260.714994 
L 224.056061 254.01021 
L 224.459525 262.583058 
L 224.86299 258.824838 
L 225.131967 265.569569 
L 225.266455 264.93056 
L 225.400943 261.545365 
L 225.535431 268.301186 
L 225.804408 260.987314 
L 225.938896 265.709356 
L 226.073384 265.759987 
L 226.207872 270.179543 
L 226.34236 269.319399 
L 226.476849 271.288928 
L 226.880313 264.252341 
L 227.014802 271.319007 
L 227.283778 271.556644 
L 227.418266 270.671885 
L 227.552754 275.825092 
L 227.687243 275.533783 
L 227.821731 275.681239 
L 227.956219 274.222535 
L 228.090707 274.880426 
L 228.225195 282.794466 
L 228.359684 279.076442 
L 228.494172 278.806761 
L 228.62866 275.796555 
L 228.763148 283.235132 
L 228.897637 281.108131 
L 229.032125 276.122087 
L 229.166613 275.966774 
L 229.435589 274.927183 
L 229.570078 261.490338 
L 229.704566 235.567716 
L 230.10803 102.816567 
L 230.242519 98.334924 
L 230.377007 101.739593 
L 230.511495 85.100692 
L 230.645983 118.615817 
L 230.780471 114.714721 
L 230.91496 125.251988 
L 231.183936 173.5984 
L 231.587401 256.386413 
L 231.856377 264.67128 
L 231.990865 275.315906 
L 232.125354 275.626425 
L 232.259842 273.436605 
L 232.528818 275.674493 
L 232.663306 271.493897 
L 232.932283 239.663275 
L 233.201259 136.788447 
L 233.335748 115.922814 
L 233.470236 120.399948 
L 233.604724 137.939832 
L 233.739212 129.732566 
L 233.8737 144.9975 
L 234.008189 130.924153 
L 234.546141 215.527215 
L 234.815118 270.13089 
L 234.949606 269.071344 
L 235.084094 264.737501 
L 235.218583 277.099879 
L 235.353071 274.610842 
L 235.622047 281.513844 
L 235.891024 275.66027 
L 236.16 252.387811 
L 236.428976 132.647628 
L 236.563465 113.862739 
L 236.697953 123.223678 
L 236.832441 123.966093 
L 236.966929 111.57891 
L 237.773859 225.195758 
L 238.042835 269.72806 
L 238.311811 266.680496 
L 238.4463 277.394472 
L 238.580788 276.093499 
L 238.715276 277.677537 
L 238.984252 285.224144 
L 239.118741 280.83198 
L 239.253229 272.467386 
L 239.387717 245.22181 
L 239.656694 141.611428 
L 239.92567 120.495722 
L 240.060158 136.498221 
L 240.194646 132.201029 
L 240.329135 142.823484 
L 240.598111 170.662763 
L 240.867087 200.386318 
L 241.136064 256.409528 
L 241.40504 263.879983 
L 241.539529 260.590774 
L 241.674017 271.161183 
L 241.808505 267.424559 
L 241.942993 281.430001 
L 242.077481 278.406917 
L 242.21197 287.688279 
L 242.346458 280.724043 
L 242.615434 246.622347 
L 242.884411 139.219888 
L 243.018899 133.907081 
L 243.153387 156.016716 
L 243.287875 149.990756 
L 243.422363 138.057769 
L 243.556852 155.482915 
L 243.69134 154.783163 
L 243.960316 184.604565 
L 244.229293 234.434362 
L 244.498269 262.145922 
L 244.632757 267.437892 
L 244.767246 267.343174 
L 245.036222 276.97393 
L 245.17071 279.233373 
L 245.708663 270.631277 
L 245.843151 247.062165 
L 245.97764 266.817096 
L 246.112128 260.5516 
L 246.246616 260.428036 
L 246.515592 256.60461 
L 247.322522 275.728806 
L 247.591498 277.109906 
L 247.725986 276.605796 
L 247.860475 279.116782 
L 247.994963 276.600039 
L 248.129451 278.581843 
L 248.263939 277.685487 
L 248.667404 272.66342 
L 248.801892 275.057099 
L 248.93638 273.405308 
L 249.474333 276.805386 
L 249.877798 277.700502 
L 250.012286 277.810319 
L 250.146774 276.725663 
L 250.281262 276.590307 
L 250.415751 277.294325 
L 250.550239 276.973654 
L 250.684727 276.248229 
L 250.819215 276.818692 
L 250.953703 276.669665 
L 251.088192 276.741194 
L 251.22268 274.133602 
L 251.357168 276.984018 
L 251.491656 275.809674 
L 251.626144 289.072481 
L 251.760633 283.935049 
L 251.895121 284.4167 
L 252.029609 281.82918 
L 252.298586 261.353546 
L 252.567562 141.657357 
L 252.70205 127.889461 
L 252.836538 138.068277 
L 252.971027 163.331458 
L 253.105515 150.272173 
L 253.508979 184.731188 
L 253.643468 187.323438 
L 254.046932 261.588403 
L 254.181421 264.199782 
L 254.584885 284.367608 
L 254.719373 284.269922 
L 254.853862 288.07405 
L 254.98835 285.118946 
L 255.122838 286.636414 
L 255.257326 285.63967 
L 255.526303 251.311118 
L 255.795279 148.311214 
L 255.929767 167.612647 
L 256.064255 168.309249 
L 256.333232 157.514408 
L 256.46772 165.637713 
L 256.602208 165.704214 
L 256.736697 172.214983 
L 257.274649 252.459649 
L 257.409138 256.85301 
L 257.543626 265.564889 
L 257.678114 261.525956 
L 257.812602 272.151533 
L 257.94709 269.229019 
L 258.081579 283.770892 
L 258.216067 283.977932 
L 258.350555 282.916853 
L 258.485043 278.856521 
L 258.75402 253.931716 
L 259.022996 150.57425 
L 259.157484 167.135779 
L 259.291973 163.151277 
L 259.426461 164.791 
L 259.560949 149.392816 
L 259.829925 173.412712 
L 259.964414 161.017222 
L 260.636855 257.943088 
L 260.905831 263.362981 
L 261.040319 270.650744 
L 261.174808 268.515904 
L 261.309296 274.547616 
L 261.443784 272.176785 
L 261.578272 275.847785 
L 261.847249 265.859986 
L 261.981737 240.360425 
L 262.250713 148.550371 
L 262.385201 165.881826 
L 262.51969 159.985256 
L 262.654178 144.645793 
L 262.788666 147.733464 
L 262.923154 157.720716 
L 263.057643 151.196965 
L 263.326619 187.088972 
L 263.864572 250.812294 
L 263.99906 256.103251 
L 264.133548 256.834126 
L 264.402525 273.051511 
L 264.537013 265.290007 
L 264.671501 267.988156 
L 265.074966 259.462076 
L 265.209454 244.32919 
L 265.747407 113.289131 
L 265.881895 114.21317 
L 266.016383 108.092489 
L 266.150871 118.175802 
L 266.28536 118.158576 
L 266.419848 122.891951 
L 266.554336 137.102141 
L 266.823312 195.315372 
L 267.092289 255.531143 
L 267.226777 257.692274 
L 267.361265 257.757968 
L 267.495754 260.906395 
L 267.630242 278.541926 
L 267.76473 270.2176 
L 267.899218 271.707628 
L 268.033706 267.387836 
L 268.302683 275.035949 
L 268.437171 274.477848 
L 268.571659 268.145876 
L 268.706147 273.965313 
L 268.840636 273.858508 
L 268.975124 269.028562 
L 269.109612 270.079864 
L 269.2441 268.837069 
L 269.378589 269.261816 
L 269.513077 265.972054 
L 269.647565 265.504985 
L 269.782053 262.643831 
L 269.916541 263.162086 
L 270.05103 261.117827 
L 270.185518 263.336018 
L 270.320006 263.049713 
L 270.454494 263.138953 
L 270.588982 265.49393 
L 270.723471 271.333495 
L 270.857959 288.509922 
L 271.126935 278.544066 
L 271.5304 275.23508 
L 271.664888 276.943654 
L 271.799376 277.113573 
L 271.933865 279.586502 
L 272.068353 275.909242 
L 272.202841 278.690817 
L 272.337329 277.813804 
L 272.471817 279.710757 
L 272.606306 278.560956 
L 272.740794 276.443294 
L 272.875282 280.869028 
L 273.144258 278.378548 
L 273.278747 274.664654 
L 273.547723 276.273914 
L 273.682211 276.019545 
L 273.8167 274.205105 
L 273.951188 280.93871 
L 274.085676 278.017932 
L 274.220164 291.101012 
L 274.354652 288.902611 
L 274.489141 290.320292 
L 274.623629 284.929234 
L 274.892605 260.011247 
L 275.161582 187.125238 
L 275.430558 156.722459 
L 275.565046 157.085586 
L 275.699535 154.186754 
L 275.834023 155.500521 
L 275.968511 180.293049 
L 276.102999 181.055307 
L 276.77544 263.970881 
L 276.909928 270.482676 
L 277.044417 269.659239 
L 277.178905 283.447722 
L 277.313393 277.708583 
L 277.447881 287.15024 
L 277.58237 282.594283 
L 277.716858 287.394938 
L 277.851346 282.764188 
L 277.985834 274.198968 
L 278.120322 256.567077 
L 278.389299 196.292496 
L 278.523787 193.816523 
L 278.658275 177.306801 
L 278.792763 183.444999 
L 278.927252 176.237123 
L 279.06174 195.109351 
L 279.196228 189.144381 
L 279.465204 210.06779 
L 280.003157 273.512489 
L 280.272134 275.222383 
L 280.406622 283.806364 
L 280.54111 268.536943 
L 280.810087 266.875046 
L 280.944575 267.533858 
L 281.079063 264.817287 
L 281.213551 252.083559 
L 281.348039 252.666771 
L 281.617016 134.841821 
L 281.751504 135.853986 
L 281.885992 120.328765 
L 282.154969 136.469446 
L 282.289457 141.393196 
L 282.423945 121.997033 
L 282.82741 187.689004 
L 283.230874 265.666185 
L 283.499851 262.120108 
L 283.634339 271.856248 
L 283.903316 264.138146 
L 284.037804 262.048302 
L 284.172292 262.709 
L 284.30678 260.812708 
L 284.575757 249.944615 
L 284.844733 163.484793 
L 284.979221 155.255633 
L 285.113709 155.851784 
L 285.248198 142.284042 
L 285.382686 142.492023 
L 285.517174 138.895114 
L 285.651662 153.09224 
L 285.78615 154.064356 
L 285.920639 164.664391 
L 286.458592 262.530629 
L 286.59308 261.055758 
L 286.727568 262.874864 
L 286.862056 268.542614 
L 286.996544 292.231157 
L 287.265521 280.461302 
L 287.803474 270.18015 
L 287.937962 273.480723 
L 288.07245 272.159728 
L 288.206938 273.645312 
L 288.341427 270.607325 
L 288.475915 273.302857 
L 288.610403 270.254142 
L 288.744891 272.217139 
L 288.879379 271.716222 
L 289.013868 277.613227 
L 289.148356 277.232612 
L 289.282844 272.935354 
L 289.417332 282.537953 
L 289.55182 282.544975 
L 289.686309 282.03766 
L 289.955285 278.290663 
L 290.089773 283.252488 
L 290.224262 279.177652 
L 290.35875 280.789184 
L 290.493238 277.018262 
L 290.627726 278.485152 
L 290.762214 273.719599 
L 290.896703 262.86995 
L 291.031191 263.154418 
L 291.165679 242.124617 
L 291.300167 170.4841 
L 291.434655 179.454062 
L 291.569144 180.915811 
L 291.83812 192.069527 
L 292.107096 183.842526 
L 292.376073 204.78641 
L 292.510561 210.720612 
L 292.914026 271.312989 
L 293.048514 268.080611 
L 293.183002 269.54603 
L 293.31749 276.792846 
L 293.451979 272.200984 
L 293.586467 271.495708 
L 293.720955 267.623538 
L 293.855443 270.974042 
L 293.989931 268.825316 
L 294.12442 255.79362 
L 294.258908 254.580183 
L 294.393396 225.725132 
L 294.527884 172.027829 
L 294.662373 175.833429 
L 294.796861 153.90593 
L 294.931349 154.329297 
L 295.065837 140.354397 
L 295.200325 144.26235 
L 295.334814 156.866567 
L 295.469302 151.276541 
L 295.738278 193.271536 
L 296.141743 268.195925 
L 296.276231 262.456807 
L 296.410719 257.86508 
L 296.679696 292.344761 
L 296.814184 286.869229 
L 296.948672 286.266619 
L 297.08316 282.245637 
L 297.352137 282.211173 
L 297.486625 282.537265 
L 297.621113 283.530066 
L 297.755601 282.805439 
L 297.89009 283.06123 
L 298.159066 278.254839 
L 298.293554 281.71414 
L 298.428042 281.406733 
L 298.965995 278.021156 
L 299.234972 279.025006 
L 299.36946 281.418345 
L 299.503948 280.54239 
L 299.638436 277.736475 
L 299.772925 283.221775 
L 299.907413 266.046769 
L 300.041901 274.522403 
L 300.176389 270.436466 
L 300.310877 272.710044 
L 300.445366 270.281796 
L 300.714342 250.552114 
L 300.983319 164.644214 
L 301.386783 126.806313 
L 301.521271 128.639516 
L 301.65576 143.877877 
L 301.790248 132.859228 
L 302.731665 261.177427 
L 302.866153 257.950543 
L 303.000642 273.426839 
L 303.13513 274.307022 
L 303.404106 267.613604 
L 303.538595 269.976273 
L 303.673083 268.199608 
L 303.807571 246.542992 
L 303.942059 243.085357 
L 304.211036 158.501502 
L 304.345524 168.244483 
L 304.6145 156.925029 
L 304.748988 153.471314 
L 304.883477 164.366347 
L 305.017965 153.312908 
L 305.286941 192.295199 
L 305.824894 259.651574 
L 305.959382 266.821293 
L 306.093871 262.776403 
L 306.228359 274.503294 
L 306.362847 270.678448 
L 306.497335 281.716879 
L 306.766312 277.730125 
L 306.9008 276.138771 
L 307.035288 266.343936 
L 307.169776 247.855026 
L 307.438753 148.679931 
L 307.573241 169.347678 
L 307.707729 168.302773 
L 307.842217 156.893652 
L 307.976706 155.735626 
L 308.111194 166.850857 
L 308.245682 159.383971 
L 308.514658 192.167038 
L 309.187099 268.42887 
L 309.321588 267.395774 
L 309.456076 278.966862 
L 309.590564 277.164079 
L 309.725052 279.180527 
L 309.859541 277.079393 
L 309.994029 278.01187 
L 310.128517 275.862995 
L 310.263005 267.929267 
L 310.397493 243.469648 
L 310.66647 149.742607 
L 310.935446 167.989305 
L 311.204423 154.97105 
L 311.473399 169.098168 
L 311.607887 166.514826 
L 311.742376 185.659978 
L 311.876864 221.898378 
L 312.011352 227.930038 
L 312.280328 263.512889 
L 312.414817 264.704583 
L 312.549305 263.600533 
L 312.683793 272.153074 
L 312.818281 271.592996 
L 312.952769 273.100492 
L 313.087258 269.515998 
L 313.221746 271.680356 
L 313.356234 269.29331 
L 313.490722 271.948387 
L 313.894187 243.876868 
L 314.028675 255.893276 
L 314.163163 251.758588 
L 314.297652 257.609208 
L 314.43214 254.604864 
L 314.566628 263.821639 
L 314.835604 265.246814 
L 315.104581 272.828543 
L 315.373557 271.491174 
L 315.508045 274.798314 
L 315.777022 272.041817 
L 315.91151 275.583273 
L 316.045998 275.49891 
L 316.180487 273.776647 
L 316.314975 273.984945 
L 316.449463 270.847672 
L 316.583951 271.823819 
L 316.718439 270.972408 
L 316.852928 272.827145 
L 316.987416 272.501806 
L 317.121904 270.942549 
L 317.256392 272.480993 
L 317.39088 271.198603 
L 317.525369 273.311653 
L 317.659857 271.339825 
L 317.794345 275.124447 
L 317.928833 272.327814 
L 318.063322 273.210169 
L 318.332298 271.691138 
L 318.466786 270.796768 
L 318.601274 272.941528 
L 318.735763 271.242631 
L 318.870251 272.166679 
L 319.004739 269.8189 
L 319.139227 274.720197 
L 319.273715 272.676332 
L 319.408204 286.69902 
L 319.542692 281.583348 
L 319.67718 281.163599 
L 319.811668 278.856114 
L 319.946157 272.937616 
L 320.080645 257.635808 
L 320.349621 147.035511 
L 320.618598 127.007955 
L 320.753086 144.84885 
L 320.887574 143.197979 
L 321.560015 197.86825 
L 321.96348 266.476089 
L 322.097968 266.808213 
L 322.232456 263.426378 
L 322.366944 275.29259 
L 322.501433 272.550843 
L 322.635921 285.440782 
L 322.904897 280.746514 
L 323.039385 277.832361 
L 323.308362 263.301695 
L 323.577338 151.789241 
L 323.846315 172.987314 
L 324.115291 150.84074 
L 324.518756 169.45827 
L 325.056709 256.224615 
L 325.191197 263.960098 
L 325.460173 261.721998 
L 325.594661 273.057434 
L 325.72915 271.387137 
L 325.863638 281.330501 
L 325.998126 280.486224 
L 326.132614 281.124472 
L 326.267103 278.863902 
L 326.401591 272.212138 
L 326.536079 256.860427 
L 326.805055 144.765669 
L 327.074032 172.271268 
L 327.20852 154.847628 
L 327.343008 157.854047 
L 327.477496 171.000885 
L 327.611985 168.700769 
L 327.746473 172.687103 
L 327.880961 185.845261 
L 328.149937 224.949673 
L 328.418914 259.04218 
L 328.68789 265.861451 
L 328.822379 277.831078 
L 328.956867 276.067047 
L 329.091355 287.381064 
L 329.225843 281.95665 
L 329.360331 281.952262 
L 329.49482 278.155102 
L 329.763796 257.112112 
L 330.032772 158.185389 
L 330.167261 169.905322 
L 330.301749 171.63441 
L 330.570725 158.766085 
L 330.705214 159.419392 
L 330.97419 189.162093 
L 331.108678 192.341506 
L 331.243166 203.125116 
L 331.646631 262.736798 
L 331.781119 263.623801 
L 331.915607 262.538978 
L 332.319072 285.580593 
L 332.588049 278.040055 
L 332.722537 278.035455 
L 332.991513 255.90893 
L 333.26049 155.688062 
L 333.529466 178.867225 
L 333.663954 161.872751 
L 333.798442 163.061591 
L 334.067419 174.974005 
L 334.605372 236.89589 
L 334.874348 264.651068 
L 335.143325 270.208372 
L 335.277813 279.292198 
L 335.546789 273.048461 
L 335.815766 270.129765 
L 336.084742 272.774813 
L 336.757183 250.482357 
L 336.891671 255.627958 
L 337.02616 256.018141 
L 337.295136 262.4806 
L 337.698601 270.242293 
L 337.833089 271.203944 
L 337.967577 270.719218 
L 338.102065 273.952413 
L 338.236553 273.289243 
L 338.371042 271.090496 
L 338.50553 272.290372 
L 338.640018 267.356436 
L 338.774506 268.305091 
L 338.908995 268.041601 
L 339.043483 267.137143 
L 339.581436 270.823058 
L 339.850412 268.619174 
L 339.9849 270.981472 
L 340.119388 270.938634 
L 340.253877 272.690229 
L 340.388365 272.959082 
L 340.522853 275.563963 
L 340.657341 273.453585 
L 340.791829 275.038019 
L 340.926318 275.231356 
L 341.060806 275.010785 
L 341.195294 271.036009 
L 341.329782 274.646112 
L 341.464271 274.489467 
L 341.598759 272.099886 
L 341.867735 275.557501 
L 342.002223 285.480961 
L 342.2712 280.712514 
L 342.405688 280.674643 
L 342.674664 260.956661 
L 342.943641 146.527084 
L 343.078129 137.994139 
L 343.347106 167.859988 
L 343.481594 166.232466 
L 343.885058 196.256762 
L 344.154035 206.353857 
L 344.423011 259.200513 
L 345.22994 284.114487 
L 345.364429 281.188857 
L 345.498917 281.551722 
L 345.633405 279.142029 
L 345.902382 259.867099 
L 346.171358 161.213584 
L 346.305846 181.464654 
L 346.574823 170.049387 
L 346.709311 167.111073 
L 347.112775 187.992062 
L 347.247264 194.230029 
L 347.785217 262.76951 
L 348.054193 268.248548 
L 348.188681 276.576393 
L 348.323169 273.015469 
L 348.457658 284.486691 
L 348.592146 280.32019 
L 348.726634 282.490625 
L 348.861122 279.259349 
L 349.130099 257.105857 
L 349.399075 157.537071 
L 349.533563 175.3913 
L 349.668052 162.755298 
L 349.80254 162.412906 
L 349.937028 160.859094 
L 350.474981 196.973781 
L 350.878445 252.91816 
L 351.147422 269.703861 
L 351.28191 268.795007 
L 351.416398 277.296088 
L 351.550886 275.825531 
L 351.685375 287.38782 
L 351.819863 280.761524 
L 351.954351 280.720976 
L 352.223328 275.9651 
L 352.357816 261.280535 
L 352.626792 153.865679 
L 352.76128 177.289726 
L 352.895769 167.830964 
L 353.030257 168.885068 
L 353.164745 162.771958 
L 353.299233 175.346838 
L 353.433721 175.96351 
L 353.56821 173.409525 
L 353.702698 168.190999 
L 354.106163 253.711835 
L 354.240651 270.699025 
L 354.375139 271.196256 
L 354.509627 270.874119 
L 354.778604 279.654869 
L 354.913092 282.269483 
L 355.04758 280.874376 
L 355.182068 280.802352 
L 355.316556 279.622083 
L 355.451045 274.308224 
L 355.585533 256.601206 
L 355.854509 183.301807 
L 355.988998 185.884707 
L 356.257974 154.755124 
L 356.392462 159.844726 
L 356.52695 170.437501 
L 356.661439 171.505229 
L 357.468368 274.337309 
L 357.602856 272.107462 
L 357.737344 273.190251 
L 358.006321 284.116751 
L 358.140809 280.090516 
L 358.275297 279.432283 
L 358.409785 279.647497 
L 358.81325 276.295064 
L 359.082226 257.04378 
L 359.216715 253.670628 
L 359.351203 254.33538 
L 359.485691 251.431342 
L 359.620179 246.087975 
L 359.754667 265.663428 
L 360.023644 264.932524 
L 360.427109 280.968066 
L 360.561597 278.568544 
L 360.696085 279.254172 
L 360.830573 280.64404 
L 360.965061 279.406726 
L 361.09955 282.343519 
L 361.503014 277.962607 
L 361.637502 279.942076 
L 361.906479 278.18081 
L 362.040967 281.082448 
L 362.175455 280.684509 
L 362.444432 282.393316 
L 362.57892 280.050418 
L 362.713408 280.085472 
L 362.847896 280.578217 
L 362.982385 280.532907 
L 363.251361 279.590349 
L 363.520337 282.281182 
L 363.789314 279.012266 
L 363.923802 279.017382 
L 364.05829 277.726233 
L 364.192778 282.561488 
L 364.327267 243.301678 
L 364.461755 253.665134 
L 364.596243 252.548277 
L 364.86522 257.419464 
L 364.999708 252.45366 
L 365.268684 199.622283 
L 365.537661 120.591228 
L 365.672149 105.927313 
L 365.806637 105.934787 
L 365.941125 99.58301 
L 366.210102 118.179903 
L 366.34459 120.786617 
L 366.479078 128.565559 
L 366.613566 154.015771 
L 366.882543 242.387785 
L 367.151519 261.559996 
L 367.286007 259.750722 
L 367.554984 270.857516 
L 367.689472 270.083396 
L 367.82396 268.438024 
L 367.958448 270.484205 
L 368.092937 270.780622 
L 368.765378 95.154987 
L 368.899866 99.495802 
L 369.034354 95.049759 
L 369.168842 82.601478 
L 369.706795 110.991141 
L 369.975772 190.915726 
L 370.11026 241.638703 
L 370.244748 239.480504 
L 370.513724 256.523846 
L 370.648213 268.154867 
L 370.782701 293.014731 
L 371.051677 282.745684 
L 371.320654 277.978958 
L 371.58963 251.95091 
L 371.858607 155.776334 
L 371.993095 162.157909 
L 372.262071 207.210445 
L 372.396559 193.545573 
L 372.531048 202.495632 
L 372.665536 201.480806 
L 372.800024 198.211004 
L 372.934512 209.856332 
L 373.069001 233.958815 
L 373.203489 232.957731 
L 373.472465 261.95109 
L 373.606953 262.297207 
L 373.741442 265.597025 
L 374.144906 294.856725 
L 374.279394 289.663639 
L 374.413883 289.50483 
L 374.548371 285.594432 
L 374.817347 257.948309 
L 375.086324 192.776148 
L 375.3553 175.437766 
L 375.489788 179.983056 
L 375.624277 178.162854 
L 375.758765 179.894523 
L 376.162229 204.395578 
L 376.565694 259.698728 
L 376.700182 266.855824 
L 376.83467 267.313288 
L 376.969159 266.439283 
L 377.238135 289.680731 
L 377.372623 281.492454 
L 377.507112 282.492455 
L 377.6416 279.878255 
L 377.776088 274.930953 
L 377.910576 282.498526 
L 378.045064 277.293603 
L 378.179553 277.993992 
L 378.314041 259.064903 
L 378.448529 266.75219 
L 378.583017 253.318416 
L 378.717505 262.530646 
L 378.851994 261.190385 
L 378.986482 272.548366 
L 379.12097 268.756096 
L 379.389947 275.77562 
L 379.524435 274.355879 
L 379.793411 280.76676 
L 379.927899 280.605351 
L 380.062388 282.107116 
L 380.196876 279.130356 
L 380.331364 283.679238 
L 380.465852 265.31732 
L 380.60034 269.354168 
L 380.734829 269.448196 
L 380.869317 271.764334 
L 381.003805 270.33748 
L 381.138293 250.563666 
L 381.272782 252.67725 
L 381.541758 147.325672 
L 381.676246 147.980582 
L 381.945223 139.235397 
L 382.348687 149.988498 
L 382.483175 145.977735 
L 383.021128 260.053402 
L 383.290105 269.639265 
L 383.424593 265.984047 
L 383.559081 274.705022 
L 383.693569 263.626757 
L 384.097034 259.648987 
L 384.231522 260.550041 
L 384.36601 255.122285 
L 384.500499 258.613638 
L 384.769475 166.945656 
L 385.17294 144.818452 
L 385.307428 150.811573 
L 385.441916 170.585588 
L 385.576404 165.782442 
L 385.710893 171.062352 
L 385.979869 209.345618 
L 386.383334 271.523363 
L 386.517822 268.937503 
L 386.786798 277.959129 
L 386.921286 286.502864 
L 387.190263 279.130599 
L 387.324751 279.255031 
L 387.459239 276.378599 
L 387.593727 276.720232 
L 387.728216 278.871704 
L 387.862704 276.994358 
L 387.997192 280.647779 
L 388.13168 277.948091 
L 388.266169 282.781562 
L 388.535145 279.282915 
L 388.669633 281.657247 
L 388.804121 281.325544 
L 388.93861 284.232264 
L 389.073098 279.603788 
L 389.476562 288.110571 
L 389.611051 289.750038 
L 389.745539 285.318133 
L 389.880027 285.144893 
L 390.014515 287.554143 
L 390.149004 263.952467 
L 390.283492 269.317129 
L 390.41798 267.431203 
L 390.552468 268.543536 
L 390.686956 267.157104 
L 390.821445 255.395215 
L 390.955933 259.390928 
L 391.090421 242.040429 
L 391.224909 175.082835 
L 391.359397 189.118921 
L 391.493886 157.85415 
L 391.89735 176.906362 
L 392.031839 177.135695 
L 392.166327 174.332532 
L 392.569791 228.664371 
L 392.838768 277.758814 
L 393.107744 271.278301 
L 393.242232 278.044511 
L 393.376721 266.477662 
L 393.511209 265.202629 
L 393.645697 271.45813 
L 393.780185 270.642229 
L 393.914673 262.563957 
L 394.049162 265.598877 
L 394.18365 249.079666 
L 394.587115 160.595152 
L 394.721603 155.941227 
L 394.856091 143.981716 
L 395.125067 147.817311 
L 395.259556 148.535151 
L 395.394044 167.985346 
L 395.528532 170.877881 
L 395.797508 219.695104 
L 396.066485 260.930199 
L 396.200973 262.672617 
L 396.335461 261.674204 
L 396.46995 263.118553 
L 396.604438 295.488 
L 396.738926 285.829265 
L 396.873414 287.271113 
L 397.007902 282.982917 
L 397.142391 284.085586 
L 397.411367 259.292566 
L 397.680343 171.942553 
L 397.814832 183.913235 
L 397.94932 164.791828 
L 398.083808 166.798325 
L 398.218296 153.361685 
L 398.352785 172.570064 
L 398.487273 165.679081 
L 398.487273 165.679081 
" clip-path="url(#pb17498a795)" style="fill: none; stroke: #ff7f0e; stroke-width: 1.5; stroke-linecap: square"/>
   </g>
   <g id="patch_3">
    <path d="M 57.6 307.584 
L 57.6 41.472 
" style="fill: none; stroke: #000000; stroke-width: 0.8; stroke-linejoin: miter; stroke-linecap: square"/>
   </g>
   <g id="patch_4">
    <path d="M 414.72 307.584 
L 414.72 41.472 
" style="fill: none; stroke: #000000; stroke-width: 0.8; stroke-linejoin: miter; stroke-linecap: square"/>
   </g>
   <g id="patch_5">
    <path d="M 57.6 307.584 
L 414.72 307.584 
" style="fill: none; stroke: #000000; stroke-width: 0.8; stroke-linejoin: miter; stroke-linecap: square"/>
   </g>
   <g id="patch_6">
    <path d="M 57.6 41.472 
L 414.72 41.472 
" style="fill: none; stroke: #000000; stroke-width: 0.8; stroke-linejoin: miter; stroke-linecap: square"/>
   </g>
  </g>
 </g>
 <defs>
  <clipPath id="pb17498a795">
   <rect x="57.6" y="41.472" width="357.12" height="266.112"/>
  </clipPath>
 </defs>
</svg>
