<?xml version="1.0" encoding="utf-8" standalone="no"?>
<!DOCTYPE svg PUBLIC "-//W3C//DTD SVG 1.1//EN"
  "http://www.w3.org/Graphics/SVG/1.1/DTD/svg11.dtd">
<svg xmlns:xlink="http://www.w3.org/1999/xlink" width="460.8pt" height="345.6pt" viewBox="0 0 460.8 345.6" xmlns="http://www.w3.org/2000/svg" version="1.1">
 <metadata>
  <rdf:RDF xmlns:dc="http://purl.org/dc/elements/1.1/" xmlns:cc="http://creativecommons.org/ns#" xmlns:rdf="http://www.w3.org/1999/02/22-rdf-syntax-ns#">
   <cc:Work>
    <dc:type rdf:resource="http://purl.org/dc/dcmitype/StillImage"/>
    <dc:date>2023-04-04T05:54:24.989201</dc:date>
    <dc:format>image/svg+xml</dc:format>
    <dc:creator>
     <cc:Agent>
      <dc:title>Matplotlib v3.5.2, https://matplotlib.org/</dc:title>
     </cc:Agent>
    </dc:creator>
   </cc:Work>
  </rdf:RDF>
 </metadata>
 <defs>
  <style type="text/css">*{stroke-linejoin: round; stroke-linecap: butt}</style>
 </defs>
 <g id="figure_1">
  <g id="patch_1">
   <path d="M 0 345.6 
L 460.8 345.6 
L 460.8 0 
L 0 0 
z
" style="fill: #ffffff"/>
  </g>
  <g id="axes_1">
   <g id="patch_2">
    <path d="M 57.6 307.584 
L 414.72 307.584 
L 414.72 41.472 
L 57.6 41.472 
z
" style="fill: #ffffff"/>
   </g>
   <g id="matplotlib.axis_1">
    <g id="xtick_1">
     <g id="line2d_1">
      <defs>
       <path id="ma1e98d4dba" d="M 0 0 
L 0 3.5 
" style="stroke: #000000; stroke-width: 0.8"/>
      </defs>
      <g>
       <use xlink:href="#ma1e98d4dba" x="73.832727" y="307.584" style="stroke: #000000; stroke-width: 0.8"/>
      </g>
     </g>
     <g id="text_1">
      <!-- 0 -->
      <g transform="translate(70.651477 322.182437)scale(0.1 -0.1)">
       <defs>
        <path id="DejaVuSans-30" d="M 2034 4250 
Q 1547 4250 1301 3770 
Q 1056 3291 1056 2328 
Q 1056 1369 1301 889 
Q 1547 409 2034 409 
Q 2525 409 2770 889 
Q 3016 1369 3016 2328 
Q 3016 3291 2770 3770 
Q 2525 4250 2034 4250 
z
M 2034 4750 
Q 2819 4750 3233 4129 
Q 3647 3509 3647 2328 
Q 3647 1150 3233 529 
Q 2819 -91 2034 -91 
Q 1250 -91 836 529 
Q 422 1150 422 2328 
Q 422 3509 836 4129 
Q 1250 4750 2034 4750 
z
" transform="scale(0.015625)"/>
       </defs>
       <use xlink:href="#DejaVuSans-30"/>
      </g>
     </g>
    </g>
    <g id="xtick_2">
     <g id="line2d_2">
      <g>
       <use xlink:href="#ma1e98d4dba" x="141.076834" y="307.584" style="stroke: #000000; stroke-width: 0.8"/>
      </g>
     </g>
     <g id="text_2">
      <!-- 500 -->
      <g transform="translate(131.533084 322.182437)scale(0.1 -0.1)">
       <defs>
        <path id="DejaVuSans-35" d="M 691 4666 
L 3169 4666 
L 3169 4134 
L 1269 4134 
L 1269 2991 
Q 1406 3038 1543 3061 
Q 1681 3084 1819 3084 
Q 2600 3084 3056 2656 
Q 3513 2228 3513 1497 
Q 3513 744 3044 326 
Q 2575 -91 1722 -91 
Q 1428 -91 1123 -41 
Q 819 9 494 109 
L 494 744 
Q 775 591 1075 516 
Q 1375 441 1709 441 
Q 2250 441 2565 725 
Q 2881 1009 2881 1497 
Q 2881 1984 2565 2268 
Q 2250 2553 1709 2553 
Q 1456 2553 1204 2497 
Q 953 2441 691 2322 
L 691 4666 
z
" transform="scale(0.015625)"/>
       </defs>
       <use xlink:href="#DejaVuSans-35"/>
       <use xlink:href="#DejaVuSans-30" x="63.623047"/>
       <use xlink:href="#DejaVuSans-30" x="127.246094"/>
      </g>
     </g>
    </g>
    <g id="xtick_3">
     <g id="line2d_3">
      <g>
       <use xlink:href="#ma1e98d4dba" x="208.32094" y="307.584" style="stroke: #000000; stroke-width: 0.8"/>
      </g>
     </g>
     <g id="text_3">
      <!-- 1000 -->
      <g transform="translate(195.59594 322.182437)scale(0.1 -0.1)">
       <defs>
        <path id="DejaVuSans-31" d="M 794 531 
L 1825 531 
L 1825 4091 
L 703 3866 
L 703 4441 
L 1819 4666 
L 2450 4666 
L 2450 531 
L 3481 531 
L 3481 0 
L 794 0 
L 794 531 
z
" transform="scale(0.015625)"/>
       </defs>
       <use xlink:href="#DejaVuSans-31"/>
       <use xlink:href="#DejaVuSans-30" x="63.623047"/>
       <use xlink:href="#DejaVuSans-30" x="127.246094"/>
       <use xlink:href="#DejaVuSans-30" x="190.869141"/>
      </g>
     </g>
    </g>
    <g id="xtick_4">
     <g id="line2d_4">
      <g>
       <use xlink:href="#ma1e98d4dba" x="275.565046" y="307.584" style="stroke: #000000; stroke-width: 0.8"/>
      </g>
     </g>
     <g id="text_4">
      <!-- 1500 -->
      <g transform="translate(262.840046 322.182437)scale(0.1 -0.1)">
       <use xlink:href="#DejaVuSans-31"/>
       <use xlink:href="#DejaVuSans-35" x="63.623047"/>
       <use xlink:href="#DejaVuSans-30" x="127.246094"/>
       <use xlink:href="#DejaVuSans-30" x="190.869141"/>
      </g>
     </g>
    </g>
    <g id="xtick_5">
     <g id="line2d_5">
      <g>
       <use xlink:href="#ma1e98d4dba" x="342.809153" y="307.584" style="stroke: #000000; stroke-width: 0.8"/>
      </g>
     </g>
     <g id="text_5">
      <!-- 2000 -->
      <g transform="translate(330.084153 322.182437)scale(0.1 -0.1)">
       <defs>
        <path id="DejaVuSans-32" d="M 1228 531 
L 3431 531 
L 3431 0 
L 469 0 
L 469 531 
Q 828 903 1448 1529 
Q 2069 2156 2228 2338 
Q 2531 2678 2651 2914 
Q 2772 3150 2772 3378 
Q 2772 3750 2511 3984 
Q 2250 4219 1831 4219 
Q 1534 4219 1204 4116 
Q 875 4013 500 3803 
L 500 4441 
Q 881 4594 1212 4672 
Q 1544 4750 1819 4750 
Q 2544 4750 2975 4387 
Q 3406 4025 3406 3419 
Q 3406 3131 3298 2873 
Q 3191 2616 2906 2266 
Q 2828 2175 2409 1742 
Q 1991 1309 1228 531 
z
" transform="scale(0.015625)"/>
       </defs>
       <use xlink:href="#DejaVuSans-32"/>
       <use xlink:href="#DejaVuSans-30" x="63.623047"/>
       <use xlink:href="#DejaVuSans-30" x="127.246094"/>
       <use xlink:href="#DejaVuSans-30" x="190.869141"/>
      </g>
     </g>
    </g>
    <g id="xtick_6">
     <g id="line2d_6">
      <g>
       <use xlink:href="#ma1e98d4dba" x="410.053259" y="307.584" style="stroke: #000000; stroke-width: 0.8"/>
      </g>
     </g>
     <g id="text_6">
      <!-- 2500 -->
      <g transform="translate(397.328259 322.182437)scale(0.1 -0.1)">
       <use xlink:href="#DejaVuSans-32"/>
       <use xlink:href="#DejaVuSans-35" x="63.623047"/>
       <use xlink:href="#DejaVuSans-30" x="127.246094"/>
       <use xlink:href="#DejaVuSans-30" x="190.869141"/>
      </g>
     </g>
    </g>
   </g>
   <g id="matplotlib.axis_2">
    <g id="ytick_1">
     <g id="line2d_7">
      <defs>
       <path id="me5c3fb22eb" d="M 0 0 
L -3.5 0 
" style="stroke: #000000; stroke-width: 0.8"/>
      </defs>
      <g>
       <use xlink:href="#me5c3fb22eb" x="57.6" y="283.349834" style="stroke: #000000; stroke-width: 0.8"/>
      </g>
     </g>
     <g id="text_7">
      <!-- 100 -->
      <g transform="translate(31.5125 287.149052)scale(0.1 -0.1)">
       <use xlink:href="#DejaVuSans-31"/>
       <use xlink:href="#DejaVuSans-30" x="63.623047"/>
       <use xlink:href="#DejaVuSans-30" x="127.246094"/>
      </g>
     </g>
    </g>
    <g id="ytick_2">
     <g id="line2d_8">
      <g>
       <use xlink:href="#me5c3fb22eb" x="57.6" y="234.931797" style="stroke: #000000; stroke-width: 0.8"/>
      </g>
     </g>
     <g id="text_8">
      <!-- 200 -->
      <g transform="translate(31.5125 238.731016)scale(0.1 -0.1)">
       <use xlink:href="#DejaVuSans-32"/>
       <use xlink:href="#DejaVuSans-30" x="63.623047"/>
       <use xlink:href="#DejaVuSans-30" x="127.246094"/>
      </g>
     </g>
    </g>
    <g id="ytick_3">
     <g id="line2d_9">
      <g>
       <use xlink:href="#me5c3fb22eb" x="57.6" y="186.513761" style="stroke: #000000; stroke-width: 0.8"/>
      </g>
     </g>
     <g id="text_9">
      <!-- 300 -->
      <g transform="translate(31.5125 190.312979)scale(0.1 -0.1)">
       <defs>
        <path id="DejaVuSans-33" d="M 2597 2516 
Q 3050 2419 3304 2112 
Q 3559 1806 3559 1356 
Q 3559 666 3084 287 
Q 2609 -91 1734 -91 
Q 1441 -91 1130 -33 
Q 819 25 488 141 
L 488 750 
Q 750 597 1062 519 
Q 1375 441 1716 441 
Q 2309 441 2620 675 
Q 2931 909 2931 1356 
Q 2931 1769 2642 2001 
Q 2353 2234 1838 2234 
L 1294 2234 
L 1294 2753 
L 1863 2753 
Q 2328 2753 2575 2939 
Q 2822 3125 2822 3475 
Q 2822 3834 2567 4026 
Q 2313 4219 1838 4219 
Q 1578 4219 1281 4162 
Q 984 4106 628 3988 
L 628 4550 
Q 988 4650 1302 4700 
Q 1616 4750 1894 4750 
Q 2613 4750 3031 4423 
Q 3450 4097 3450 3541 
Q 3450 3153 3228 2886 
Q 3006 2619 2597 2516 
z
" transform="scale(0.015625)"/>
       </defs>
       <use xlink:href="#DejaVuSans-33"/>
       <use xlink:href="#DejaVuSans-30" x="63.623047"/>
       <use xlink:href="#DejaVuSans-30" x="127.246094"/>
      </g>
     </g>
    </g>
    <g id="ytick_4">
     <g id="line2d_10">
      <g>
       <use xlink:href="#me5c3fb22eb" x="57.6" y="138.095724" style="stroke: #000000; stroke-width: 0.8"/>
      </g>
     </g>
     <g id="text_10">
      <!-- 400 -->
      <g transform="translate(31.5125 141.894943)scale(0.1 -0.1)">
       <defs>
        <path id="DejaVuSans-34" d="M 2419 4116 
L 825 1625 
L 2419 1625 
L 2419 4116 
z
M 2253 4666 
L 3047 4666 
L 3047 1625 
L 3713 1625 
L 3713 1100 
L 3047 1100 
L 3047 0 
L 2419 0 
L 2419 1100 
L 313 1100 
L 313 1709 
L 2253 4666 
z
" transform="scale(0.015625)"/>
       </defs>
       <use xlink:href="#DejaVuSans-34"/>
       <use xlink:href="#DejaVuSans-30" x="63.623047"/>
       <use xlink:href="#DejaVuSans-30" x="127.246094"/>
      </g>
     </g>
    </g>
    <g id="ytick_5">
     <g id="line2d_11">
      <g>
       <use xlink:href="#me5c3fb22eb" x="57.6" y="89.677687" style="stroke: #000000; stroke-width: 0.8"/>
      </g>
     </g>
     <g id="text_11">
      <!-- 500 -->
      <g transform="translate(31.5125 93.476906)scale(0.1 -0.1)">
       <use xlink:href="#DejaVuSans-35"/>
       <use xlink:href="#DejaVuSans-30" x="63.623047"/>
       <use xlink:href="#DejaVuSans-30" x="127.246094"/>
      </g>
     </g>
    </g>
   </g>
   <g id="line2d_12">
    <path d="M 73.832727 286.460208 
L 74.101704 285.903885 
L 74.236192 284.779134 
L 74.37068 285.755242 
L 74.505168 285.256536 
L 74.639657 285.866119 
L 74.774145 279.312254 
L 74.908633 251.852448 
L 75.177609 250.340353 
L 75.312098 250.902971 
L 75.446586 250.95623 
L 75.581074 251.834049 
L 75.715562 251.068076 
L 75.85005 251.045804 
L 76.253515 245.996771 
L 76.522492 280.489296 
L 76.65698 280.806434 
L 76.925956 279.07791 
L 77.060444 270.108953 
L 77.194933 272.381212 
L 77.463909 272.445608 
L 77.598397 274.050181 
L 77.732885 268.655928 
L 77.867374 255.077574 
L 78.405327 104.753611 
L 78.674303 103.820112 
L 78.808791 111.049409 
L 78.943279 106.185333 
L 79.481232 159.556534 
L 79.750209 230.831274 
L 80.019185 265.996325 
L 80.153673 268.147538 
L 80.288161 264.263928 
L 80.42265 274.79243 
L 80.557138 274.35231 
L 80.826114 276.891836 
L 80.960603 274.319386 
L 81.095091 263.874163 
L 81.364067 169.873934 
L 81.498555 182.331411 
L 81.767532 162.679498 
L 82.036508 170.784193 
L 82.170996 167.643799 
L 82.305485 161.592997 
L 83.112414 263.389982 
L 83.650367 289.907088 
L 83.784855 289.927908 
L 83.919343 291.475833 
L 84.053831 291.670473 
L 84.18832 289.546858 
L 84.322808 282.230409 
L 84.726273 190.951274 
L 84.860761 182.175989 
L 84.995249 186.324446 
L 85.129737 171.253364 
L 85.264225 179.90373 
L 85.398714 180.660504 
L 85.66769 189.062002 
L 85.802178 197.943322 
L 86.340131 265.542648 
L 86.474619 267.581047 
L 86.609107 272.55358 
L 86.878084 290.293948 
L 87.012572 292.57347 
L 87.14706 292.242774 
L 87.281549 293.752449 
L 87.416037 293.65416 
L 87.550525 292.832506 
L 87.819501 264.980031 
L 87.95399 265.127706 
L 88.088478 259.369348 
L 88.222966 260.847551 
L 88.357454 260.080125 
L 88.491942 256.679242 
L 88.626431 259.549948 
L 88.760919 252.467357 
L 88.895407 255.381155 
L 89.029895 255.379702 
L 89.164384 257.972972 
L 89.43336 279.543692 
L 89.567848 281.228155 
L 89.702336 280.723639 
L 89.836825 281.797067 
L 89.971313 266.455812 
L 90.105801 267.178209 
L 90.240289 268.742112 
L 90.374777 268.508737 
L 90.509266 269.760343 
L 90.643754 269.934164 
L 90.778242 272.0602 
L 90.91273 268.79634 
L 91.047218 258.731683 
L 91.181707 257.545925 
L 91.316195 250.526762 
L 91.450683 255.017535 
L 91.585171 253.026586 
L 91.71966 254.544007 
L 91.854148 254.773024 
L 92.123124 257.793826 
L 92.257612 257.213777 
L 92.526589 262.88014 
L 92.795565 269.561345 
L 92.930053 270.528737 
L 93.064542 269.373483 
L 93.19903 279.519967 
L 93.468006 279.646338 
L 93.602495 280.720734 
L 93.736983 279.47058 
L 93.871471 276.914592 
L 94.005959 271.627343 
L 94.6784 162.97049 
L 94.812888 158.515063 
L 95.081865 170.531935 
L 95.216353 165.246138 
L 95.350841 153.830133 
L 96.023282 267.912227 
L 96.157771 268.65157 
L 96.426747 272.631533 
L 96.561235 272.293575 
L 96.695723 272.372012 
L 96.830212 274.280167 
L 96.9647 273.633786 
L 97.099188 272.187055 
L 97.233676 263.604958 
L 97.368164 245.804551 
L 97.502653 204.227499 
L 97.637141 197.035484 
L 97.771629 181.353366 
L 97.906117 189.862836 
L 98.040606 183.058649 
L 98.175094 183.778141 
L 98.309582 178.386793 
L 98.44407 180.051405 
L 98.713047 191.574898 
L 98.982023 234.090776 
L 99.250999 269.414154 
L 99.385488 274.164448 
L 99.519976 274.928969 
L 99.654464 284.867739 
L 99.788952 284.880328 
L 99.923441 283.865486 
L 100.192417 285.120481 
L 100.326905 285.202308 
L 100.461393 284.538496 
L 100.595882 284.95005 
L 100.73037 285.790103 
L 100.864858 284.230558 
L 100.999346 285.402274 
L 101.133834 284.481847 
L 101.268323 282.236219 
L 101.402811 275.114894 
L 101.537299 279.445403 
L 101.806276 268.917385 
L 101.940764 271.107817 
L 102.075252 270.957237 
L 102.20974 271.61427 
L 102.344228 274.025488 
L 102.478717 279.923289 
L 102.613205 278.045638 
L 102.747693 283.793343 
L 102.882181 270.151561 
L 103.016669 270.180612 
L 103.151158 275.154113 
L 103.285646 274.931874 
L 103.554622 270.693843 
L 103.68911 266.448065 
L 103.823599 248.783713 
L 104.092575 185.663056 
L 104.227063 163.885591 
L 104.361552 171.148297 
L 104.630528 145.933152 
L 105.033993 161.460332 
L 105.168481 172.387798 
L 105.706434 256.589185 
L 105.840922 256.465235 
L 105.97541 265.283127 
L 106.109898 281.940385 
L 106.378875 285.173257 
L 106.513363 285.159216 
L 106.647851 287.345774 
L 106.782339 287.073665 
L 106.916828 288.200352 
L 107.320292 250.114241 
L 107.45478 257.274784 
L 107.589269 254.706207 
L 107.723757 254.800138 
L 108.26171 249.667826 
L 108.396198 246.214168 
L 108.530686 248.504825 
L 108.934151 280.547398 
L 109.068639 282.083218 
L 109.203127 281.001559 
L 109.337615 276.444453 
L 109.606592 278.014166 
L 109.875568 279.080815 
L 110.144545 280.144075 
L 110.413521 278.889564 
L 110.548009 278.753025 
L 110.951474 274.648628 
L 111.085962 275.837775 
L 111.22045 275.485776 
L 111.623915 269.612668 
L 111.758403 270.127352 
L 112.02738 273.959155 
L 112.430844 275.57777 
L 112.565333 265.201301 
L 112.834309 269.456278 
L 112.968797 269.986455 
L 113.103285 271.515013 
L 113.237774 271.695612 
L 113.50675 274.346015 
L 113.641238 275.186553 
L 114.313679 263.812672 
L 114.448168 263.447115 
L 114.582656 261.946641 
L 114.98612 250.982376 
L 115.524073 262.1805 
L 115.658561 262.737307 
L 115.927538 264.990198 
L 116.062026 263.690658 
L 116.196514 269.862021 
L 116.331002 269.439816 
L 116.465491 270.058114 
L 116.599979 260.185192 
L 117.137932 79.427105 
L 117.406908 64.554537 
L 117.810373 81.285873 
L 118.213837 149.266249 
L 118.482814 212.328805 
L 118.75179 247.160741 
L 118.886279 248.712539 
L 119.289743 256.799319 
L 119.424231 258.233945 
L 119.55872 261.03735 
L 119.693208 261.357877 
L 119.827696 251.630209 
L 120.365649 92.434126 
L 120.634625 73.651802 
L 120.769114 77.386285 
L 120.903602 70.891973 
L 121.03809 72.235574 
L 121.441555 136.405935 
L 121.710531 204.015912 
L 121.845019 232.524452 
L 122.248484 243.617024 
L 122.51746 259.313668 
L 122.651948 259.4749 
L 122.786437 261.233927 
L 122.920925 259.877738 
L 123.055413 251.621978 
L 123.727854 60.551818 
L 123.862342 53.568 
L 124.534783 108.330736 
L 125.072736 250.915075 
L 125.207225 256.14616 
L 125.341713 256.614846 
L 125.476201 256.567881 
L 125.745177 270.325866 
L 125.879666 271.779375 
L 126.014154 272.011782 
L 126.28313 258.403893 
L 126.821083 93.552583 
L 126.955571 74.987655 
L 127.09006 81.662566 
L 127.359036 106.486009 
L 127.493524 108.957265 
L 127.762501 127.669868 
L 127.896989 150.738158 
L 128.300453 249.278545 
L 128.434942 255.148264 
L 128.56943 253.299663 
L 128.703918 260.888222 
L 128.838406 261.620787 
L 129.241871 268.39205 
L 129.510847 247.439628 
L 130.0488 83.861713 
L 130.183288 74.646792 
L 130.317777 86.704336 
L 130.452265 115.864583 
L 130.586753 114.93544 
L 130.721241 111.245502 
L 130.855729 117.710278 
L 131.124706 171.605363 
L 131.393682 238.016994 
L 131.662659 261.387896 
L 131.931635 261.189382 
L 132.066123 261.00491 
L 132.3351 272.408326 
L 132.469588 272.25823 
L 132.604076 272.358455 
L 132.738564 272.316331 
L 133.007541 260.286386 
L 133.276517 249.704624 
L 133.679982 244.061502 
L 133.81447 242.865577 
L 133.948958 237.707119 
L 134.486911 247.699149 
L 134.755888 254.868408 
L 134.890376 254.752204 
L 135.697305 269.160444 
L 135.831793 273.965934 
L 135.966282 274.582296 
L 136.10077 272.57682 
L 136.235258 274.097631 
L 136.369746 273.820196 
L 136.504234 269.470803 
L 136.638723 269.310056 
L 136.907699 267.352998 
L 137.311164 256.34419 
L 137.445652 256.859842 
L 137.58014 254.146495 
L 137.983605 261.038318 
L 138.118093 260.126122 
L 138.252581 261.981986 
L 138.387069 266.525534 
L 138.521558 265.278286 
L 138.656046 265.481641 
L 138.925022 270.230967 
L 139.193999 253.800306 
L 139.731951 81.986482 
L 139.86644 72.966686 
L 140.269904 99.276563 
L 140.538881 123.98574 
L 140.673369 131.158388 
L 140.807857 145.684283 
L 141.076834 226.718646 
L 141.480298 260.291228 
L 142.018251 268.827328 
L 142.152739 268.358157 
L 142.421716 244.347653 
L 142.959669 92.100526 
L 143.094157 84.598635 
L 143.228645 84.105256 
L 143.363133 94.449285 
L 143.497621 85.067806 
L 143.63211 90.253862 
L 144.573527 261.553486 
L 144.708015 265.083645 
L 144.842504 265.261339 
L 145.11148 267.529724 
L 145.245968 269.697884 
L 145.380456 265.572667 
L 145.783921 203.695869 
L 146.052897 110.939016 
L 146.187386 91.59601 
L 146.456362 107.087361 
L 146.59085 118.541132 
L 146.725339 112.784227 
L 146.859827 120.284665 
L 146.994315 115.147996 
L 147.128803 128.157922 
L 147.532268 236.685498 
L 147.801244 263.007964 
L 147.935732 263.212772 
L 148.204709 268.547471 
L 148.339197 268.525683 
L 148.473685 269.035525 
L 148.742662 267.96936 
L 148.87715 250.066791 
L 149.280615 120.147158 
L 149.415103 116.05777 
L 149.549591 106.862217 
L 149.684079 108.133675 
L 150.087544 141.255001 
L 150.222032 133.465991 
L 150.35652 139.055369 
L 150.894473 255.333221 
L 151.028961 264.620769 
L 151.16345 263.650955 
L 151.835891 271.929471 
L 151.970379 270.641067 
L 152.104867 249.427189 
L 152.508332 114.061495 
L 152.64282 117.209636 
L 152.911796 105.20632 
L 153.046285 119.53467 
L 153.180773 118.014828 
L 153.449749 152.924232 
L 153.718726 194.389438 
L 153.987702 251.730919 
L 154.12219 268.997759 
L 154.256678 270.394135 
L 154.525655 274.305344 
L 154.794631 276.030963 
L 155.063608 279.01303 
L 155.198096 280.675705 
L 155.332584 280.023999 
L 155.467072 275.587454 
L 155.601561 264.978578 
L 155.736049 264.106569 
L 155.870537 261.204876 
L 156.005025 263.371099 
L 156.274002 261.449871 
L 156.40849 261.993122 
L 156.542978 263.262643 
L 156.677466 262.050739 
L 157.215419 270.161729 
L 157.349907 272.19335 
L 157.484396 271.188675 
L 157.618884 271.96869 
L 157.88786 275.1851 
L 158.022348 275.672186 
L 158.291325 278.709449 
L 158.560301 283.045284 
L 158.694789 281.459109 
L 158.829278 282.435701 
L 158.963766 282.034316 
L 159.232742 279.285624 
L 159.367231 279.57129 
L 159.501719 277.562426 
L 160.039672 263.299925 
L 160.308648 263.56235 
L 160.443136 269.354116 
L 160.577624 269.066997 
L 160.712113 267.086699 
L 160.846601 267.797476 
L 160.981089 269.308603 
L 161.250066 273.113292 
L 161.519042 274.076811 
L 161.788018 257.099511 
L 162.460459 84.293118 
L 162.594948 83.952255 
L 162.729436 82.474536 
L 162.998412 102.314795 
L 163.132901 111.37381 
L 163.401877 153.165354 
L 163.670853 224.795481 
L 164.074318 259.318994 
L 164.208806 260.466501 
L 164.477783 273.282755 
L 164.612271 275.674122 
L 164.746759 270.912208 
L 165.015735 253.180555 
L 165.4192 121.780298 
L 165.553688 124.412303 
L 165.822665 110.343474 
L 165.957153 115.665584 
L 166.091641 112.541653 
L 166.360618 100.942628 
L 166.495106 107.2147 
L 166.89857 223.884738 
L 167.033059 230.944572 
L 167.302035 249.566633 
L 167.974476 268.264226 
L 168.108964 262.518942 
L 168.243453 248.330036 
L 168.377941 209.772817 
L 168.646917 107.038459 
L 168.781405 108.337515 
L 168.915894 103.754747 
L 169.050382 105.071234 
L 169.18487 108.914658 
L 169.319358 93.393772 
L 169.453847 95.903279 
L 169.857311 149.951849 
L 170.126288 229.13519 
L 170.395264 260.339162 
L 170.529752 261.230054 
L 170.66424 264.710342 
L 170.798729 264.902077 
L 171.067705 267.258583 
L 171.202193 270.128805 
L 171.47117 248.066642 
L 172.009123 111.152055 
L 172.143611 109.555712 
L 172.412587 97.650201 
L 172.95054 130.560909 
L 173.622981 262.333501 
L 173.757469 266.373017 
L 173.891958 279.921837 
L 174.026446 278.981074 
L 174.160934 278.93653 
L 174.42991 280.486875 
L 174.698887 265.50924 
L 174.833375 248.169288 
L 175.102351 178.782853 
L 175.371328 144.987547 
L 175.505816 142.050993 
L 175.640304 152.34612 
L 175.774792 152.031887 
L 175.909281 153.458767 
L 176.043769 158.326716 
L 176.178257 158.014904 
L 176.312745 172.672981 
L 176.581722 241.197575 
L 176.850698 268.670453 
L 176.985186 266.144484 
L 177.254163 270.939807 
L 177.388651 270.895746 
L 177.792116 277.538701 
L 177.926604 278.440729 
L 178.19558 267.586858 
L 178.330069 267.140927 
L 178.599045 259.476352 
L 178.733533 258.903567 
L 178.868021 261.241674 
L 179.136998 257.685853 
L 179.271486 258.289626 
L 179.540462 255.771404 
L 179.809439 263.375941 
L 179.943927 270.741777 
L 180.212904 268.815223 
L 180.48188 278.812579 
L 180.616368 278.826621 
L 180.750856 279.203797 
L 180.885345 280.046271 
L 181.019833 280.133908 
L 181.692274 267.660453 
L 181.826762 268.97355 
L 181.96125 262.910159 
L 182.095738 264.716152 
L 182.364715 270.227093 
L 182.499203 271.522276 
L 182.633691 274.712056 
L 182.902668 273.883139 
L 183.171644 280.096142 
L 183.306132 281.531252 
L 183.440621 280.406501 
L 183.575109 278.07372 
L 183.844085 289.964222 
L 183.978573 290.928225 
L 184.113062 288.618684 
L 184.382038 277.079698 
L 184.919991 184.117552 
L 185.054479 188.187088 
L 185.188967 181.019282 
L 185.457944 184.931459 
L 185.592432 186.450817 
L 185.995897 224.713655 
L 186.264873 255.722502 
L 186.53385 271.691255 
L 186.802826 282.083218 
L 187.071802 292.721629 
L 187.206291 291.555722 
L 187.340779 292.705167 
L 187.475267 289.484883 
L 187.609755 281.378735 
L 188.01322 204.446833 
L 188.147708 187.826373 
L 188.282196 188.048128 
L 188.416684 187.076862 
L 188.551173 190.433685 
L 188.685661 196.921702 
L 188.820149 192.450296 
L 188.954637 196.945426 
L 189.089126 205.431172 
L 189.627078 268.27052 
L 189.761567 270.894294 
L 189.896055 276.20091 
L 190.030543 273.732075 
L 190.299519 275.588422 
L 190.434008 274.401212 
L 190.971961 277.872301 
L 191.106449 274.37313 
L 191.240937 273.881202 
L 191.375425 274.32568 
L 191.509913 269.836844 
L 191.644402 271.407041 
L 191.913378 270.123963 
L 192.182354 264.411119 
L 192.316843 264.76457 
L 192.451331 264.25957 
L 192.585819 265.598329 
L 192.720307 271.446743 
L 192.989284 272.72159 
L 193.392748 269.997592 
L 193.661725 272.919136 
L 193.796213 273.460934 
L 194.065189 265.466148 
L 194.603142 160.299751 
L 194.73763 155.320925 
L 194.872119 145.233027 
L 195.006607 146.830338 
L 195.141095 151.639217 
L 195.275583 144.139263 
L 195.54456 157.716165 
L 195.948024 253.030459 
L 196.217001 263.508606 
L 196.351489 265.46179 
L 196.485977 275.065023 
L 196.620465 274.403633 
L 196.889442 274.968187 
L 197.02393 276.112305 
L 197.158418 274.358604 
L 197.292907 267.949993 
L 197.830859 198.28709 
L 197.965348 200.630523 
L 198.099836 197.266922 
L 198.234324 201.731549 
L 198.5033 188.222433 
L 198.772277 202.212825 
L 199.31023 275.750623 
L 199.713694 284.988784 
L 199.848183 283.803995 
L 200.117159 284.541886 
L 200.251647 282.733956 
L 200.386135 276.875374 
L 200.520624 276.466725 
L 200.655112 263.329944 
L 200.7896 215.455642 
L 200.924088 213.458398 
L 201.058576 201.613409 
L 201.193065 201.250274 
L 201.327553 198.528212 
L 201.462041 200.730749 
L 201.731018 188.768104 
L 201.865506 190.148018 
L 202.134482 213.156269 
L 202.403459 267.366556 
L 202.806923 277.300484 
L 203.0759 268.712093 
L 203.210388 273.098767 
L 203.344876 273.22659 
L 203.748341 263.720677 
L 203.882829 246.093607 
L 204.151805 183.277983 
L 204.420782 166.578602 
L 204.55527 160.872053 
L 204.689758 164.356214 
L 204.824246 157.767004 
L 204.958735 174.011739 
L 205.093223 174.261576 
L 205.765664 263.131914 
L 205.900152 263.649987 
L 206.03464 267.50261 
L 206.169129 282.556746 
L 206.303617 283.044316 
L 206.572593 287.037351 
L 206.84157 287.859974 
L 207.110546 278.341956 
L 207.379522 269.032136 
L 207.514011 268.142212 
L 207.917475 276.37231 
L 208.051964 276.122473 
L 208.32094 269.673675 
L 208.589916 271.297616 
L 208.858893 279.460413 
L 208.993381 283.164392 
L 209.127869 283.756061 
L 209.262357 283.204579 
L 209.396846 277.269012 
L 209.531334 278.381659 
L 209.80031 277.960906 
L 209.934799 278.96558 
L 210.203775 266.616076 
L 211.010704 109.346546 
L 211.279681 135.322823 
L 211.683145 168.881364 
L 212.221098 257.732819 
L 212.355586 260.230705 
L 212.759051 275.682353 
L 212.893539 275.472219 
L 213.028027 275.573897 
L 213.162516 278.259645 
L 213.431492 260.310595 
L 213.56598 221.702537 
L 213.834957 136.619458 
L 213.969445 141.268558 
L 214.103933 140.162206 
L 214.238421 143.164608 
L 214.910862 182.018146 
L 215.448815 263.429685 
L 215.583303 268.465161 
L 215.717792 269.09169 
L 216.121256 273.413968 
L 216.255745 274.38475 
L 216.390233 276.809041 
L 216.524721 272.744347 
L 216.659209 265.119959 
L 217.062674 150.447649 
L 217.197162 152.386792 
L 217.33165 152.468618 
L 217.466138 164.095725 
L 217.600627 162.793764 
L 217.735115 150.771082 
L 217.869603 156.075762 
L 218.273068 198.864233 
L 218.542044 258.517675 
L 218.811021 275.554046 
L 218.945509 268.029883 
L 219.483462 278.902153 
L 219.61795 280.72606 
L 219.886926 266.780213 
L 220.290391 163.750989 
L 220.693856 151.924884 
L 220.828344 162.740505 
L 220.962832 158.763931 
L 221.231808 186.30411 
L 221.500785 200.367129 
L 221.769761 258.3792 
L 222.038738 274.234654 
L 222.173226 273.471102 
L 222.307714 274.713508 
L 222.576691 280.850495 
L 222.845667 283.527044 
L 222.980155 281.83096 
L 223.114643 283.730884 
L 223.38362 262.88595 
L 223.518108 266.805875 
L 223.652596 266.647064 
L 223.921573 259.585777 
L 224.190549 258.903567 
L 224.325037 261.428568 
L 224.459525 260.790902 
L 224.728502 256.87582 
L 225.131967 264.250855 
L 225.266455 262.743117 
L 225.535431 264.236814 
L 225.669919 262.904833 
L 226.073384 272.815521 
L 226.34236 275.891035 
L 226.476849 275.817924 
L 226.745825 272.624754 
L 226.880313 274.942526 
L 227.014802 275.189458 
L 227.14929 274.887813 
L 227.283778 273.446408 
L 227.418266 275.149271 
L 227.552754 275.279999 
L 227.687243 275.108115 
L 227.956219 273.981912 
L 228.090707 279.888912 
L 228.225195 279.928615 
L 228.359684 281.047556 
L 228.494172 280.2627 
L 228.62866 281.248975 
L 228.763148 281.132772 
L 228.897637 278.808706 
L 229.301101 279.726712 
L 229.435589 273.415421 
L 229.570078 259.110796 
L 230.242519 95.139726 
L 230.377007 80.069612 
L 230.511495 110.520684 
L 230.780471 118.596812 
L 231.049448 146.497706 
L 231.587401 256.918427 
L 231.856377 268.31797 
L 232.125354 273.208192 
L 232.39433 277.93815 
L 232.528818 277.111654 
L 232.797795 259.738778 
L 232.932283 222.897978 
L 233.201259 134.369956 
L 233.335748 126.065779 
L 233.470236 136.524075 
L 233.604724 136.749703 
L 233.739212 149.742683 
L 233.8737 134.774247 
L 234.008189 141.602642 
L 234.815118 267.72727 
L 234.949606 267.456613 
L 235.218583 273.453187 
L 235.622047 281.312403 
L 235.756535 280.70524 
L 236.025512 267.850252 
L 236.563465 130.149356 
L 236.832441 117.746107 
L 237.63937 202.752686 
L 237.908347 261.736022 
L 238.177323 269.951594 
L 238.849764 285.103535 
L 238.984252 284.265903 
L 239.118741 280.407954 
L 239.253229 266.289738 
L 239.791182 129.367405 
L 240.194646 147.380367 
L 240.463623 166.806651 
L 240.732599 180.474095 
L 241.270552 259.16454 
L 241.674017 265.132063 
L 241.942993 278.278044 
L 242.077481 284.879359 
L 242.21197 284.243631 
L 242.480946 265.994388 
L 242.884411 152.504932 
L 243.018899 160.500202 
L 243.153387 158.21826 
L 243.287875 147.06807 
L 243.422363 155.173734 
L 243.556852 152.318038 
L 243.825828 169.218838 
L 244.229293 242.334431 
L 244.498269 265.070572 
L 244.767246 270.426091 
L 245.17071 278.406352 
L 245.305198 279.284655 
L 245.439687 278.984463 
L 245.574175 277.736731 
L 245.708663 266.102845 
L 245.843151 271.635574 
L 246.112128 268.60751 
L 246.381104 263.348343 
L 246.515592 263.31445 
L 247.188033 273.715128 
L 247.322522 274.126682 
L 247.45701 275.006922 
L 247.591498 274.647176 
L 247.725986 277.858744 
L 247.860475 276.39894 
L 248.129451 277.742541 
L 248.263939 276.845839 
L 248.398427 277.538701 
L 248.532916 277.383279 
L 248.667404 279.357766 
L 248.801892 279.257541 
L 249.205357 280.819507 
L 249.339845 280.937647 
L 249.608821 279.975096 
L 249.743309 280.10873 
L 249.877798 279.804181 
L 250.550239 276.59116 
L 250.819215 276.895709 
L 250.953703 277.685892 
L 251.088192 276.533058 
L 251.357168 277.809358 
L 251.491656 286.838353 
L 251.626144 286.341584 
L 251.760633 286.778315 
L 251.895121 286.616114 
L 252.164097 274.193014 
L 252.70205 144.92412 
L 252.836538 164.94643 
L 252.971027 161.452101 
L 253.240003 174.548695 
L 253.374491 175.921347 
L 253.508979 172.953321 
L 253.777956 206.250405 
L 254.046932 258.354506 
L 254.315909 279.991074 
L 254.719373 288.46762 
L 254.853862 288.224077 
L 255.122838 289.98262 
L 255.391814 268.915933 
L 255.660791 174.33614 
L 255.795279 177.833375 
L 256.198744 161.933376 
L 256.333232 165.660112 
L 256.46772 162.956933 
L 256.602208 164.170289 
L 257.409138 260.628702 
L 257.812602 268.208545 
L 258.081579 283.6355 
L 258.216067 284.714738 
L 258.350555 283.97491 
L 258.619532 269.599111 
L 258.888508 179.2099 
L 259.022996 180.091592 
L 259.157484 170.907659 
L 259.291973 170.323737 
L 259.426461 154.61499 
L 259.695437 168.513387 
L 259.829925 157.220848 
L 259.964414 166.425117 
L 260.771343 263.743434 
L 261.040319 266.01424 
L 261.309296 273.621682 
L 261.443784 276.882152 
L 261.71276 273.925747 
L 261.847249 261.355456 
L 262.116225 171.922501 
L 262.250713 176.14988 
L 262.654178 149.338392 
L 262.788666 156.744415 
L 262.923154 151.905516 
L 263.326619 187.562011 
L 263.461107 198.617301 
L 263.864572 248.096661 
L 264.268036 266.400132 
L 264.402525 265.631737 
L 264.671501 269.111057 
L 264.805989 268.983234 
L 264.940478 268.018746 
L 265.074966 260.341583 
L 265.209454 240.949675 
L 265.612919 125.006876 
L 265.881895 106.633684 
L 266.016383 116.272262 
L 266.150871 116.139597 
L 266.28536 115.684952 
L 266.419848 120.382954 
L 266.688824 158.194051 
L 266.957801 238.140945 
L 267.226777 255.046586 
L 267.361265 253.603729 
L 267.495754 270.207726 
L 267.630242 269.887199 
L 267.76473 271.783249 
L 267.899218 272.098934 
L 268.168195 278.713807 
L 268.302683 279.611477 
L 268.437171 277.012881 
L 268.706147 279.585815 
L 268.975124 276.040647 
L 269.2441 274.128619 
L 269.916541 259.425998 
L 270.320006 261.342868 
L 270.588982 266.30039 
L 270.723471 280.60211 
L 270.857959 281.657139 
L 270.992447 280.157632 
L 271.126935 281.05385 
L 271.261424 281.083869 
L 271.395912 280.895039 
L 271.799376 283.712969 
L 271.933865 282.307393 
L 272.068353 282.667623 
L 272.202841 282.013496 
L 272.337329 282.253165 
L 272.471817 281.397618 
L 272.606306 279.200408 
L 272.740794 280.501885 
L 272.875282 280.174579 
L 273.00977 279.487527 
L 273.144258 277.118916 
L 273.278747 277.017723 
L 273.547723 280.039977 
L 273.682211 280.257374 
L 273.8167 280.951204 
L 273.951188 280.076774 
L 274.085676 290.885133 
L 274.354652 292.541998 
L 274.489141 290.946623 
L 274.758117 276.005786 
L 275.29607 167.886858 
L 275.565046 155.46279 
L 275.699535 155.805105 
L 275.834023 174.034012 
L 275.968511 176.350815 
L 276.102999 186.662888 
L 276.77544 267.196608 
L 277.447881 284.864834 
L 277.58237 288.313651 
L 277.716858 287.916623 
L 277.851346 283.450543 
L 277.985834 273.313259 
L 278.389299 211.873191 
L 278.523787 192.087161 
L 278.658275 190.057961 
L 278.792763 180.395657 
L 278.927252 192.713206 
L 279.06174 186.802816 
L 279.196228 188.925947 
L 279.330716 196.740618 
L 280.137646 277.729952 
L 280.272134 280.153275 
L 280.406622 271.66753 
L 280.54111 271.378958 
L 280.810087 272.568105 
L 280.944575 271.935281 
L 281.213551 263.89353 
L 281.348039 234.494582 
L 281.482528 162.935145 
L 281.617016 152.567875 
L 281.751504 128.804787 
L 281.885992 129.974567 
L 282.154969 143.694786 
L 282.289457 125.295932 
L 282.423945 129.447778 
L 282.558433 138.699981 
L 282.82741 187.901421 
L 283.096386 257.527526 
L 283.365363 264.261023 
L 283.499851 266.502778 
L 283.634339 265.821052 
L 283.768827 265.831704 
L 283.903316 266.023923 
L 284.037804 267.349125 
L 284.172292 267.480338 
L 284.441268 262.205677 
L 285.113709 145.126023 
L 285.248198 144.033228 
L 285.382686 139.425283 
L 285.517174 148.811604 
L 285.651662 145.662011 
L 285.78615 149.205727 
L 286.055127 203.16666 
L 286.324103 253.518029 
L 286.59308 263.347374 
L 286.727568 263.223908 
L 286.862056 282.457973 
L 286.996544 282.518012 
L 287.131033 281.524958 
L 287.265521 282.139867 
L 287.668985 278.558385 
L 287.803474 279.449277 
L 288.07245 278.560806 
L 288.206938 276.355848 
L 288.341427 276.299683 
L 288.475915 273.917032 
L 288.610403 273.540339 
L 288.744891 272.399126 
L 288.879379 275.2708 
L 289.013868 275.615536 
L 289.148356 272.761777 
L 289.417332 280.02642 
L 289.55182 281.231544 
L 289.820797 280.864536 
L 289.955285 281.666823 
L 290.089773 280.14456 
L 290.224262 281.715241 
L 290.35875 280.79433 
L 290.493238 281.78932 
L 290.627726 280.223965 
L 291.031191 261.97085 
L 291.300167 194.772909 
L 291.434655 189.103157 
L 291.569144 189.720003 
L 291.703632 193.84522 
L 291.972608 180.905499 
L 292.376073 194.185114 
L 293.048514 271.746451 
L 293.183002 273.012099 
L 293.31749 271.842803 
L 293.451979 272.605871 
L 293.586467 271.662204 
L 293.720955 274.1751 
L 293.855443 274.442367 
L 294.258908 250.156364 
L 294.527884 191.282937 
L 294.796861 159.117383 
L 294.931349 143.006281 
L 295.065837 142.870227 
L 295.200325 150.963786 
L 295.334814 145.156526 
L 295.60379 173.641826 
L 295.738278 188.353162 
L 296.141743 259.626448 
L 296.276231 258.722968 
L 296.410719 266.031186 
L 296.545208 283.9783 
L 296.948672 286.174542 
L 297.486625 288.169365 
L 297.621113 287.818818 
L 297.755601 287.814945 
L 298.024578 284.595145 
L 298.159066 284.442629 
L 298.428042 282.269627 
L 298.697019 278.388437 
L 298.831507 277.236572 
L 298.965995 277.092287 
L 299.100484 277.453001 
L 299.36946 281.292067 
L 299.503948 280.778352 
L 299.638436 282.343707 
L 299.772925 272.546317 
L 299.907413 275.997071 
L 300.041901 275.691069 
L 300.176389 276.569856 
L 300.310877 276.282253 
L 300.579854 265.155304 
L 301.252295 129.141292 
L 301.386783 129.211014 
L 301.521271 142.591339 
L 301.65576 135.550388 
L 301.790248 145.099393 
L 302.597177 255.451361 
L 302.731665 257.229271 
L 303.000642 269.814087 
L 303.13513 270.041652 
L 303.269618 270.528737 
L 303.404106 273.023235 
L 303.538595 273.448345 
L 303.807571 256.856452 
L 304.345524 165.799072 
L 304.6145 155.126284 
L 304.748988 163.481301 
L 304.883477 153.771547 
L 305.017965 159.938553 
L 306.093871 268.243406 
L 306.228359 269.268416 
L 306.497335 279.568385 
L 306.766312 280.612762 
L 306.9008 275.837291 
L 307.035288 265.148041 
L 307.304265 171.355042 
L 307.438753 178.719909 
L 307.842217 159.1842 
L 307.976706 166.335544 
L 308.111194 157.797023 
L 308.245682 162.830078 
L 308.649147 209.486182 
L 309.052611 266.652874 
L 309.590564 279.057575 
L 309.994029 280.78513 
L 310.128517 277.181376 
L 310.263005 264.385941 
L 310.531982 171.242228 
L 310.66647 172.410071 
L 310.935446 170.088426 
L 311.069934 160.604301 
L 311.204423 167.151388 
L 311.338911 165.842164 
L 311.473399 158.972129 
L 311.607887 172.29532 
L 311.876864 210.406125 
L 312.14584 253.335009 
L 312.414817 265.308305 
L 312.818281 274.041466 
L 312.952769 273.601346 
L 313.087258 275.513859 
L 313.221746 275.413633 
L 313.356234 277.012881 
L 313.625211 266.306685 
L 313.759699 258.303183 
L 313.894187 261.703582 
L 314.028675 259.138879 
L 314.163163 261.04897 
L 314.297652 258.249439 
L 314.566628 264.905951 
L 314.701116 265.651104 
L 314.970093 270.472088 
L 315.104581 270.433838 
L 315.239069 270.133162 
L 315.508045 273.107482 
L 315.642534 273.652185 
L 315.777022 273.317132 
L 316.180487 276.349554 
L 316.314975 275.903624 
L 316.718439 278.291601 
L 316.852928 278.544343 
L 316.987416 277.678629 
L 317.121904 277.744962 
L 317.256392 276.609075 
L 317.39088 276.755781 
L 317.525369 275.194784 
L 317.659857 276.127315 
L 317.928833 273.571811 
L 318.332298 269.781647 
L 318.466786 270.445458 
L 318.601274 269.935617 
L 318.735763 271.412851 
L 318.870251 271.246777 
L 319.139227 272.379275 
L 319.273715 282.35678 
L 319.67718 283.491214 
L 319.811668 280.875188 
L 319.946157 272.806322 
L 320.349621 149.055147 
L 320.484109 132.670967 
L 320.887574 160.343328 
L 321.022062 165.077159 
L 321.291039 180.073193 
L 321.425527 181.899522 
L 321.560015 200.606314 
L 321.828991 256.936342 
L 321.96348 265.140778 
L 322.097968 265.938708 
L 322.635921 282.880179 
L 322.770409 283.232178 
L 322.904897 282.563525 
L 323.173874 271.980794 
L 323.44285 175.134554 
L 323.577338 175.501562 
L 323.711826 175.705886 
L 323.980803 155.237161 
L 324.249779 158.827359 
L 324.384268 161.633668 
L 324.787732 198.400873 
L 325.056709 253.712185 
L 325.325685 263.117873 
L 325.863638 281.197652 
L 325.998126 282.990572 
L 326.132614 283.056904 
L 326.267103 279.797402 
L 326.401591 270.668181 
L 326.670567 167.839892 
L 326.805055 173.881495 
L 326.939544 175.070642 
L 327.20852 161.653035 
L 327.343008 169.914121 
L 327.611985 166.106042 
L 327.746473 171.035967 
L 328.149937 226.522068 
L 328.418914 257.812709 
L 328.68789 270.808594 
L 328.822379 273.297281 
L 328.956867 283.488793 
L 329.225843 284.449407 
L 329.360331 283.589987 
L 329.629308 270.572314 
L 330.032772 180.271707 
L 330.301749 168.769034 
L 330.570725 159.833486 
L 330.839702 182.002652 
L 330.97419 183.23247 
L 331.108678 186.017476 
L 331.781119 262.996828 
L 332.050096 270.263407 
L 332.184584 281.193294 
L 332.319072 282.163107 
L 332.45356 281.488644 
L 332.588049 282.490413 
L 332.857025 269.700789 
L 333.26049 179.631137 
L 333.394978 181.568342 
L 333.663954 166.442548 
L 333.798442 167.65203 
L 333.932931 171.473182 
L 334.336395 189.5946 
L 334.73986 258.304636 
L 335.143325 274.259347 
L 335.277813 274.057928 
L 335.412301 274.156701 
L 335.546789 274.446241 
L 335.681277 274.339721 
L 335.950254 276.958653 
L 336.084742 274.834069 
L 336.622695 258.134689 
L 336.757183 258.940849 
L 336.891671 257.08547 
L 337.295136 263.534268 
L 337.698601 268.334432 
L 337.833089 267.848315 
L 338.102065 272.006456 
L 338.236553 271.771144 
L 338.371042 272.417525 
L 338.50553 270.048915 
L 339.043483 273.252736 
L 339.446947 276.291452 
L 339.581436 275.802914 
L 339.715924 274.617156 
L 339.850412 274.880066 
L 339.9849 274.088916 
L 340.119388 273.974649 
L 340.253877 273.494342 
L 340.388365 274.992396 
L 340.522853 272.975301 
L 340.657341 273.582463 
L 340.926318 273.259515 
L 341.060806 269.873641 
L 341.329782 274.82487 
L 341.464271 274.721739 
L 341.598759 275.257727 
L 341.733247 276.846323 
L 341.867735 284.779134 
L 342.136712 284.882264 
L 342.2712 285.533003 
L 342.540176 272.657679 
L 342.943641 155.852071 
L 343.212617 172.696221 
L 343.347106 171.951552 
L 343.75057 186.539906 
L 343.885058 188.238411 
L 344.019547 187.566369 
L 344.423011 256.412459 
L 345.22994 282.469594 
L 345.364429 283.568683 
L 345.498917 283.195864 
L 345.633405 278.919583 
L 345.767893 270.720957 
L 346.03687 185.277164 
L 346.171358 189.45322 
L 346.440334 175.696687 
L 346.574823 170.249658 
L 346.843799 177.225244 
L 347.112775 179.120326 
L 347.381752 214.086864 
L 347.650728 253.54708 
L 348.054193 271.761945 
L 348.188681 272.960775 
L 348.323169 282.056104 
L 348.457658 282.916008 
L 348.592146 284.813027 
L 348.726634 284.614997 
L 348.99561 271.526633 
L 349.264587 184.211967 
L 349.399075 185.706632 
L 349.668052 167.901867 
L 349.80254 163.732106 
L 350.206004 182.690672 
L 350.340493 183.887082 
L 351.012934 265.193554 
L 351.147422 267.546671 
L 351.550886 284.443597 
L 351.685375 283.721684 
L 351.954351 284.093535 
L 352.088839 282.676823 
L 352.223328 275.286294 
L 352.492304 180.078035 
L 352.626792 187.342193 
L 352.76128 175.815311 
L 352.895769 175.096788 
L 353.030257 166.704005 
L 353.164745 174.014644 
L 353.299233 171.908944 
L 353.56821 153.888235 
L 354.240651 271.905262 
L 354.375139 273.05858 
L 354.644115 279.001894 
L 354.913092 283.334824 
L 355.182068 284.391306 
L 355.316556 281.955878 
L 355.451045 272.702223 
L 355.854509 198.391673 
L 356.123486 159.530389 
L 356.257974 161.267628 
L 356.392462 169.995947 
L 356.52695 169.353924 
L 356.661439 180.105633 
L 356.795927 178.837081 
L 357.33388 267.536019 
L 357.602856 277.264655 
L 357.737344 279.256089 
L 357.871832 283.569651 
L 358.006321 282.983309 
L 358.140809 283.200706 
L 358.275297 283.950701 
L 358.409785 283.861612 
L 358.678762 282.584829 
L 359.082226 263.863995 
L 359.351203 257.877589 
L 359.485691 251.520301 
L 359.620179 262.400802 
L 359.754667 263.83446 
L 359.889156 264.004891 
L 360.427109 278.489631 
L 360.561597 279.17862 
L 360.965061 283.382758 
L 361.234038 283.342571 
L 361.368526 283.148415 
L 361.503014 284.471679 
L 361.771991 284.058674 
L 361.906479 285.4076 
L 362.040967 285.359182 
L 362.175455 285.739748 
L 362.309944 285.780903 
L 362.57892 282.321434 
L 362.713408 282.271564 
L 362.982385 281.121151 
L 363.116873 279.608088 
L 363.251361 279.504957 
L 363.385849 280.610825 
L 363.520337 279.745111 
L 363.654826 279.684588 
L 364.05829 282.509296 
L 364.192778 256.141802 
L 364.730731 262.486017 
L 364.86522 261.274114 
L 364.999708 249.024351 
L 365.134196 226.563708 
L 365.403172 137.001476 
L 365.672149 106.282653 
L 365.806637 100.278332 
L 366.075613 117.460925 
L 366.34459 114.272597 
L 366.479078 125.864844 
L 367.017031 254.026902 
L 367.151519 259.056084 
L 367.286007 257.296572 
L 367.554984 268.816676 
L 367.689472 269.695463 
L 367.958448 274.664122 
L 368.227425 250.771274 
L 368.496401 153.465546 
L 368.765378 100.854023 
L 369.034354 89.798733 
L 369.168842 94.587276 
L 369.303331 94.136504 
L 369.437819 97.552881 
L 369.572307 95.400699 
L 369.706795 111.737429 
L 370.244748 237.328006 
L 370.782701 282.171823 
L 370.917189 282.481214 
L 371.051677 283.385663 
L 371.186166 283.102902 
L 371.455142 268.07007 
L 371.858607 173.462679 
L 372.127583 205.907605 
L 372.262071 201.788683 
L 372.396559 203.235898 
L 372.665536 192.394615 
L 372.800024 196.243849 
L 373.203489 236.521845 
L 373.472465 259.099176 
L 373.87593 280.597268 
L 374.010418 289.745856 
L 374.144906 289.597697 
L 374.279394 290.821705 
L 374.413883 290.311379 
L 374.682859 273.511773 
L 375.220812 182.821401 
L 375.489788 179.139694 
L 375.624277 179.365806 
L 375.893253 185.995688 
L 376.027741 190.353795 
L 376.565694 258.913735 
L 376.83467 267.932562 
L 376.969159 270.810046 
L 377.103647 282.793026 
L 377.238135 281.684253 
L 377.507112 283.787048 
L 377.6416 281.79271 
L 377.776088 285.383391 
L 378.045064 283.205064 
L 378.179553 273.424136 
L 378.314041 272.789376 
L 378.448529 265.58574 
L 378.583017 266.601066 
L 378.717505 265.670472 
L 378.851994 270.247429 
L 378.986482 269.476129 
L 379.12097 270.397525 
L 379.255458 272.588441 
L 379.389947 272.470301 
L 379.927899 281.859526 
L 380.062388 281.649876 
L 380.196876 282.072566 
L 380.331364 272.01856 
L 380.465852 272.706581 
L 380.869317 275.653302 
L 381.138293 264.597528 
L 381.272782 237.104799 
L 381.541758 161.414819 
L 381.810734 140.955293 
L 381.945223 142.570035 
L 382.214199 149.152467 
L 382.348687 141.044867 
L 382.752152 191.637357 
L 383.021128 260.643227 
L 383.155616 268.688368 
L 383.290105 269.36041 
L 383.424593 270.666729 
L 383.559081 265.665146 
L 383.693569 264.942749 
L 383.962546 265.294264 
L 384.097034 266.502294 
L 384.231522 264.691943 
L 384.36601 266.104781 
L 385.038451 150.230736 
L 385.17294 152.710224 
L 385.307428 168.069878 
L 385.576404 162.342024 
L 386.248845 263.531363 
L 386.921286 282.306909 
L 387.055775 281.479929 
L 387.190263 282.776564 
L 387.324751 282.075471 
L 387.459239 282.239124 
L 387.593727 283.750735 
L 387.728216 283.167782 
L 387.862704 284.504604 
L 387.997192 283.317878 
L 388.13168 284.932135 
L 388.266169 283.933271 
L 388.400657 281.918112 
L 388.535145 282.008654 
L 388.669633 281.336127 
L 388.804121 282.49235 
L 388.93861 279.902954 
L 389.207586 282.075471 
L 389.476562 288.8661 
L 389.611051 287.791704 
L 389.745539 288.620621 
L 389.880027 288.567845 
L 390.014515 273.437693 
L 390.149004 273.678331 
L 390.41798 273.700603 
L 390.552468 273.567938 
L 390.686956 267.984854 
L 390.821445 268.172716 
L 390.955933 259.183907 
L 391.224909 202.157144 
L 391.359397 170.294687 
L 391.493886 166.243065 
L 391.762862 177.102263 
L 391.89735 176.550297 
L 392.031839 169.214964 
L 392.166327 172.97172 
L 392.300815 182.090773 
L 392.569791 243.180778 
L 392.70428 269.876547 
L 392.973256 274.794367 
L 393.107744 275.462051 
L 393.376721 268.296182 
L 393.645697 274.102957 
L 393.780185 270.659466 
L 393.914673 272.065526 
L 394.049162 264.53749 
L 394.721603 148.148277 
L 394.990579 147.059839 
L 395.125067 146.633276 
L 395.259556 158.195019 
L 395.394044 159.078648 
L 395.931997 248.592946 
L 396.200973 262.414843 
L 396.335461 258.619837 
L 396.46995 283.778333 
L 396.604438 284.167614 
L 397.007902 287.249906 
L 397.276879 273.989659 
L 397.545855 199.131985 
L 397.680343 193.863618 
L 397.94932 170.121834 
L 398.083808 156.445191 
L 398.218296 169.387333 
L 398.352785 164.546497 
L 398.487273 167.606033 
L 398.487273 167.606033 
" clip-path="url(#p7382290164)" style="fill: none; stroke: #1f77b4; stroke-width: 1.5; stroke-linecap: square"/>
   </g>
   <g id="line2d_13">
    <path d="M 73.832727 283.562539 
L 73.967215 283.968748 
L 74.236192 283.508535 
L 74.37068 282.101339 
L 74.505168 283.681103 
L 74.639657 282.297542 
L 74.774145 283.41024 
L 74.908633 272.080615 
L 75.043121 227.21476 
L 75.177609 246.158104 
L 75.446586 249.550043 
L 75.581074 249.474179 
L 75.715562 250.925372 
L 75.85005 250.511461 
L 75.984539 252.708042 
L 76.388003 250.742225 
L 76.522492 280.37345 
L 76.65698 282.219238 
L 76.925956 277.129208 
L 77.060444 279.354766 
L 77.194933 266.438778 
L 77.329421 271.69536 
L 77.598397 267.092759 
L 77.732885 268.411199 
L 77.867374 255.020703 
L 78.001862 229.691789 
L 78.270838 125.793504 
L 78.539815 109.431918 
L 78.674303 115.34927 
L 78.808791 105.38026 
L 78.943279 117.012081 
L 79.077768 111.728178 
L 79.61572 193.093398 
L 79.884697 251.414927 
L 80.153673 269.554969 
L 80.288161 272.563481 
L 80.42265 263.37914 
L 80.557138 280.225447 
L 80.691626 272.051378 
L 80.826114 272.520787 
L 80.960603 270.30031 
L 81.095091 263.10269 
L 81.229579 243.208052 
L 81.498555 148.695632 
L 81.633044 167.320001 
L 81.90202 151.136577 
L 82.036508 210.710085 
L 82.170996 214.838404 
L 82.305485 208.616432 
L 82.439973 213.602176 
L 82.574461 199.378947 
L 82.708949 223.301533 
L 82.843438 221.131899 
L 82.977926 216.100943 
L 83.112414 221.747425 
L 83.246902 215.048327 
L 83.38139 214.804385 
L 84.053831 284.976107 
L 84.18832 282.978754 
L 84.322808 214.778711 
L 84.457296 233.289673 
L 84.591784 214.77871 
L 84.860761 214.77871 
L 84.995249 215.403035 
L 85.264225 169.752863 
L 85.398714 185.095259 
L 85.533202 187.401579 
L 85.802178 202.149316 
L 86.071155 237.742905 
L 86.205643 260.503263 
L 86.340131 261.087167 
L 86.474619 269.470448 
L 86.609107 267.942641 
L 87.012572 290.952988 
L 87.14706 291.361163 
L 87.281549 290.307822 
L 87.416037 292.662321 
L 87.685013 290.471219 
L 87.95399 251.311375 
L 88.088478 263.802385 
L 88.222966 257.342992 
L 88.357454 262.666148 
L 88.491942 260.72896 
L 88.626431 255.464127 
L 88.760919 260.696107 
L 88.895407 249.786354 
L 89.029895 258.070695 
L 89.164384 257.554888 
L 89.298872 261.915237 
L 89.43336 279.34277 
L 89.567848 280.966174 
L 89.702336 274.302671 
L 89.971313 281.463109 
L 90.105801 261.19541 
L 90.240289 268.411524 
L 90.374777 268.557395 
L 90.643754 264.858475 
L 90.778242 265.366626 
L 90.91273 267.790065 
L 91.047218 261.834883 
L 91.181707 249.12182 
L 91.316195 256.16387 
L 91.450683 248.332888 
L 91.585171 258.760221 
L 91.71966 253.728469 
L 91.854148 254.728834 
L 91.988636 254.541023 
L 92.257612 259.661465 
L 92.392101 258.914549 
L 92.795565 269.748023 
L 92.930053 271.499299 
L 93.064542 270.778647 
L 93.19903 271.089829 
L 93.333518 283.355553 
L 93.602495 277.780307 
L 93.736983 277.894237 
L 94.005959 268.157705 
L 94.140447 259.096814 
L 94.409424 174.43603 
L 94.543912 182.912723 
L 94.812888 159.008211 
L 94.947377 156.464794 
L 95.216353 171.014089 
L 95.350841 169.218076 
L 95.48533 164.185025 
L 95.888794 256.929055 
L 96.023282 271.829431 
L 96.157771 273.755455 
L 96.292259 270.721794 
L 96.426747 273.429576 
L 96.561235 273.885409 
L 96.830212 269.690218 
L 96.9647 271.009844 
L 97.233676 264.506901 
L 97.502653 218.180011 
L 97.637141 171.518228 
L 97.771629 184.76776 
L 97.906117 171.701686 
L 98.040606 185.751561 
L 98.175094 180.075009 
L 98.309582 182.249362 
L 98.44407 177.981973 
L 98.713047 197.043226 
L 98.982023 229.265295 
L 99.250999 272.114258 
L 99.654464 277.081448 
L 99.788952 287.594441 
L 100.057929 281.349964 
L 100.192417 282.139766 
L 100.461393 279.975006 
L 100.595882 277.693898 
L 100.73037 277.508034 
L 100.864858 281.270262 
L 100.999346 281.335085 
L 101.133834 288.196147 
L 101.268323 288.305204 
L 101.402811 283.895943 
L 101.537299 271.01939 
L 101.671787 278.986199 
L 101.806276 269.7566 
L 101.940764 269.083275 
L 102.075252 274.898607 
L 102.20974 273.839464 
L 102.344228 274.558513 
L 102.478717 276.763962 
L 102.613205 282.103296 
L 102.747693 276.815969 
L 102.882181 286.183574 
L 103.016669 263.038266 
L 103.285646 274.608667 
L 103.823599 251.238682 
L 104.092575 164.334406 
L 104.227063 171.805114 
L 104.361552 154.042637 
L 104.49604 167.442673 
L 104.765016 147.145433 
L 105.168481 175.295352 
L 105.571945 239.856331 
L 105.706434 266.094268 
L 105.97541 260.714244 
L 106.244387 289.721466 
L 106.378875 285.714212 
L 106.647851 282.876983 
L 106.782339 284.943884 
L 106.916828 281.749723 
L 107.051316 282.144697 
L 107.320292 227.063502 
L 107.589269 257.302253 
L 107.723757 252.715698 
L 107.858245 254.592362 
L 107.992733 253.57179 
L 108.127222 253.789334 
L 108.530686 249.717203 
L 108.665174 255.436499 
L 108.934151 282.098013 
L 109.203127 278.983777 
L 109.337615 280.027056 
L 109.472104 274.721785 
L 109.606592 277.115534 
L 109.74108 276.222269 
L 109.875568 276.197001 
L 110.144545 274.795135 
L 110.279033 274.755661 
L 110.413521 274.135583 
L 110.682498 278.403685 
L 111.085962 275.621346 
L 111.22045 276.892691 
L 111.758403 269.929038 
L 112.161868 275.249283 
L 112.430844 274.193813 
L 112.565333 277.234255 
L 112.699821 262.906429 
L 112.834309 268.791275 
L 112.968797 269.640621 
L 113.103285 267.831011 
L 113.237774 268.174778 
L 113.372262 266.907343 
L 113.50675 269.6897 
L 113.641238 269.861059 
L 113.775726 273.020407 
L 113.910215 271.429657 
L 114.044703 273.433802 
L 114.179191 271.418139 
L 114.313679 264.276786 
L 114.448168 264.003013 
L 114.582656 263.272545 
L 114.717144 261.795651 
L 114.98612 253.778241 
L 115.120609 253.666915 
L 115.389585 263.835094 
L 115.524073 264.660192 
L 115.658561 264.315275 
L 115.79305 266.263426 
L 115.927538 265.356475 
L 116.062026 263.54369 
L 116.196514 258.241793 
L 116.331002 267.477614 
L 116.599979 259.254354 
L 116.734467 238.476392 
L 117.003444 123.596682 
L 117.27242 94.687398 
L 117.541396 85.180128 
L 117.810373 88.738994 
L 118.213837 141.863076 
L 118.482814 227.830274 
L 118.75179 250.981892 
L 118.886279 256.309733 
L 119.155255 255.317729 
L 119.289743 256.736248 
L 119.55872 251.615395 
L 119.693208 253.279727 
L 119.827696 249.946968 
L 119.962184 229.172003 
L 120.231161 121.697366 
L 120.500137 97.467586 
L 120.634625 99.01163 
L 120.769114 96.086202 
L 120.903602 99.779796 
L 121.03809 93.429448 
L 121.172578 100.823464 
L 121.441555 129.970453 
L 121.845019 235.957324 
L 121.979507 252.0735 
L 122.113996 247.850581 
L 122.248484 248.284829 
L 122.382972 250.353336 
L 122.51746 261.752485 
L 122.786437 252.375041 
L 122.920925 253.041305 
L 123.055413 247.590835 
L 123.189901 231.546962 
L 123.458878 126.621797 
L 123.727854 84.294009 
L 124.265807 107.579601 
L 124.400295 111.127507 
L 124.534783 119.950028 
L 124.669272 136.783701 
L 125.072736 243.460837 
L 125.207225 264.960472 
L 125.610689 258.248878 
L 125.745177 272.045906 
L 126.148642 264.911166 
L 126.417618 241.136228 
L 126.686595 130.384897 
L 127.09006 95.790978 
L 127.493524 118.922817 
L 127.628012 121.463769 
L 127.896989 155.665876 
L 128.434942 260.933715 
L 128.703918 257.19938 
L 128.838406 265.52333 
L 128.972894 259.652275 
L 129.107383 259.897993 
L 129.241871 262.460602 
L 129.376359 260.093384 
L 129.645336 222.668548 
L 129.914312 120.867888 
L 130.183288 97.135378 
L 130.317777 95.403666 
L 130.452265 106.837632 
L 130.586753 128.664536 
L 130.721241 116.280047 
L 130.855729 121.284807 
L 130.990218 137.329553 
L 131.662659 264.558351 
L 131.797147 264.068202 
L 131.931635 266.011074 
L 132.200612 261.81807 
L 132.3351 265.349416 
L 132.469588 273.036178 
L 132.604076 269.304572 
L 132.873053 268.376933 
L 133.007541 253.752122 
L 133.142029 253.142797 
L 133.276517 246.420961 
L 133.545494 243.864742 
L 133.679982 242.17994 
L 133.81447 244.165778 
L 133.948958 243.19371 
L 134.083447 238.666963 
L 134.352423 248.270794 
L 134.890376 258.537268 
L 135.024864 257.160051 
L 135.159352 264.354182 
L 135.29384 265.269376 
L 135.428329 264.783271 
L 135.562817 265.279284 
L 135.831793 266.918168 
L 135.966282 272.6134 
L 136.10077 270.576881 
L 136.235258 265.455817 
L 136.504234 270.729854 
L 136.638723 266.989634 
L 136.773211 270.458879 
L 137.042187 268.20792 
L 137.311164 255.966588 
L 137.445652 256.739558 
L 137.58014 258.746934 
L 137.714628 255.883643 
L 137.983605 263.321053 
L 138.118093 263.778569 
L 138.252581 261.564537 
L 138.521558 268.827362 
L 138.790534 260.453679 
L 138.925022 263.897934 
L 139.05951 262.890597 
L 139.328487 231.863464 
L 139.597463 120.921864 
L 139.86644 98.588621 
L 140.000928 97.968334 
L 140.135416 100.424205 
L 140.673369 140.869818 
L 140.942345 180.712247 
L 141.211322 249.619019 
L 141.34581 253.642147 
L 141.480298 263.619475 
L 141.614786 265.025508 
L 141.749275 264.671144 
L 141.883763 267.672006 
L 142.018251 263.572281 
L 142.152739 262.977268 
L 142.287228 259.415169 
L 142.690692 156.927703 
L 142.959669 97.866796 
L 143.094157 98.599311 
L 143.228645 96.039371 
L 143.363133 99.490709 
L 143.497621 106.774576 
L 143.63211 95.561036 
L 143.766598 108.284482 
L 144.439039 241.764923 
L 144.708015 265.283797 
L 144.842504 270.105441 
L 145.11148 264.860449 
L 145.245968 264.539445 
L 145.380456 265.440815 
L 145.514945 254.582891 
L 145.649433 223.766597 
L 145.783921 228.241248 
L 146.052897 130.006219 
L 146.321874 92.879897 
L 146.59085 111.971382 
L 146.725339 120.497918 
L 146.859827 113.986644 
L 146.994315 129.860039 
L 147.128803 130.142054 
L 147.263291 154.828375 
L 147.532268 244.730071 
L 147.935732 266.672557 
L 148.070221 266.364757 
L 148.204709 268.703119 
L 148.339197 267.830054 
L 148.742662 261.028364 
L 148.87715 259.808963 
L 149.146126 167.944576 
L 149.415103 110.196983 
L 149.549591 116.11358 
L 149.684079 108.6525 
L 149.818567 108.472628 
L 150.222032 152.267137 
L 150.35652 145.820818 
L 150.491009 163.310266 
L 150.759985 245.022753 
L 150.894473 250.480086 
L 151.16345 267.149183 
L 151.297938 266.044712 
L 151.432426 266.708101 
L 151.566914 266.725956 
L 151.701402 267.32677 
L 151.970379 265.515812 
L 152.104867 260.923427 
L 152.64282 110.955588 
L 152.777308 116.290745 
L 152.911796 111.225856 
L 153.046285 101.046929 
L 153.180773 114.557855 
L 153.315261 115.85733 
L 153.584237 172.551502 
L 154.12219 262.013349 
L 154.256678 272.823964 
L 154.391167 269.361914 
L 154.525655 276.08471 
L 154.660143 274.923094 
L 154.794631 275.161784 
L 154.92912 274.578918 
L 155.063608 275.104527 
L 155.332584 278.218016 
L 155.467072 276.120284 
L 155.601561 268.508755 
L 155.736049 252.078291 
L 155.870537 259.471478 
L 156.005025 258.58711 
L 156.139513 264.215212 
L 156.40849 261.842946 
L 156.542978 262.65854 
L 156.677466 264.394618 
L 156.811955 263.521157 
L 157.080931 267.606994 
L 157.349907 272.325913 
L 157.484396 273.084957 
L 157.618884 270.692246 
L 157.88786 275.158453 
L 158.022348 275.111035 
L 158.156837 274.228476 
L 158.291325 274.827599 
L 158.694789 280.692812 
L 158.829278 276.854568 
L 158.963766 279.724156 
L 159.098254 279.264879 
L 159.232742 276.721298 
L 159.501719 280.332764 
L 159.636207 277.921106 
L 159.905183 266.459886 
L 160.039672 268.347 
L 160.17416 262.631151 
L 160.577624 272.473975 
L 160.846601 266.975646 
L 160.981089 270.604378 
L 161.115577 270.241944 
L 161.250066 271.998503 
L 161.519042 267.779675 
L 161.65353 267.097828 
L 161.922507 235.177307 
L 162.325971 97.510802 
L 162.460459 93.08529 
L 162.594948 95.759088 
L 162.729436 96.148806 
L 162.863924 95.32059 
L 162.998412 113.737032 
L 163.132901 114.363269 
L 163.401877 155.522753 
L 163.805342 246.729758 
L 164.208806 264.680246 
L 164.343294 261.956887 
L 164.477783 274.39865 
L 164.612271 269.573455 
L 164.746759 271.476214 
L 165.150224 235.449521 
L 165.4192 133.539975 
L 165.553688 113.363039 
L 165.688177 122.396012 
L 165.822665 111.910421 
L 165.957153 111.610013 
L 166.091641 119.536119 
L 166.360618 112.957156 
L 166.495106 118.600562 
L 166.629594 135.621783 
L 166.89857 238.784835 
L 167.033059 246.904067 
L 167.167547 248.110649 
L 167.302035 256.659725 
L 167.571012 258.123775 
L 167.839988 262.954742 
L 168.108964 261.627066 
L 168.377941 224.475294 
L 168.781405 97.150481 
L 168.915894 104.284011 
L 169.050382 102.041242 
L 169.319358 111.266208 
L 169.453847 99.388986 
L 169.588335 111.806035 
L 170.395264 264.082559 
L 170.529752 263.790302 
L 170.66424 264.34356 
L 170.798729 266.60485 
L 171.067705 262.789189 
L 171.202193 262.58622 
L 171.336681 265.329296 
L 171.47117 236.939075 
L 171.605658 232.199033 
L 172.009123 105.308868 
L 172.278099 111.181987 
L 172.547075 102.532425 
L 173.085028 158.407219 
L 173.488493 250.527036 
L 173.757469 266.415639 
L 173.891958 271.733654 
L 174.026446 286.416872 
L 174.160934 276.770975 
L 174.295422 276.231871 
L 174.564399 276.179315 
L 174.967863 216.731134 
L 175.102351 166.232588 
L 175.23684 164.954613 
L 175.505816 140.196117 
L 175.640304 140.767979 
L 175.774792 155.324584 
L 176.043769 158.749872 
L 176.447234 205.436721 
L 176.581722 248.489836 
L 176.985186 270.268344 
L 177.119675 268.744276 
L 177.388651 272.208271 
L 177.523139 269.883304 
L 177.792116 275.000984 
L 177.926604 274.539442 
L 178.061092 275.14385 
L 178.19558 261.829518 
L 178.330069 259.861305 
L 178.464557 263.53886 
L 178.599045 255.369013 
L 178.733533 260.59846 
L 178.868021 259.508145 
L 179.00251 262.970942 
L 179.271486 258.040574 
L 179.405974 259.6276 
L 179.540462 256.965928 
L 179.674951 258.111202 
L 180.078415 273.294699 
L 180.212904 269.236432 
L 180.347392 271.612082 
L 180.48188 280.975378 
L 180.750856 277.50016 
L 180.885345 277.313467 
L 181.019833 277.774426 
L 181.154321 276.96323 
L 181.557786 263.805026 
L 181.692274 268.420196 
L 181.826762 266.840948 
L 181.96125 270.125805 
L 182.095738 262.537842 
L 182.499203 271.02874 
L 182.633691 272.572691 
L 182.76818 276.444917 
L 183.037156 274.325541 
L 183.171644 279.213118 
L 183.440621 278.38173 
L 183.575109 282.080207 
L 183.709597 278.422354 
L 183.844085 292.043829 
L 183.978573 290.50509 
L 184.113062 290.458849 
L 184.24755 283.853655 
L 184.516526 264.670452 
L 184.785503 185.313738 
L 184.919991 188.57478 
L 185.054479 172.809742 
L 185.188967 183.381193 
L 185.323456 178.439352 
L 185.72692 191.135193 
L 186.264873 257.067287 
L 187.071802 295.488 
L 187.340779 289.525537 
L 187.475267 291.319078 
L 187.609755 283.579894 
L 187.744243 268.609248 
L 188.01322 186.103626 
L 188.147708 190.352017 
L 188.282196 176.303709 
L 188.416684 182.938824 
L 188.551173 183.804366 
L 188.685661 187.791094 
L 188.820149 196.672163 
L 188.954637 195.939473 
L 189.358102 240.903522 
L 189.627078 269.857442 
L 189.896055 271.050047 
L 190.030543 279.762017 
L 190.165031 273.243579 
L 190.299519 273.956042 
L 190.434008 272.353085 
L 190.568496 268.260468 
L 190.837472 269.238692 
L 190.971961 269.436527 
L 191.106449 267.667246 
L 191.240937 261.555687 
L 191.509913 274.418572 
L 191.644402 267.039148 
L 191.77889 269.348156 
L 191.913378 268.755182 
L 192.182354 262.375131 
L 192.451331 267.340309 
L 192.585819 266.351649 
L 192.720307 268.222932 
L 192.854796 275.371367 
L 193.123772 273.2321 
L 193.25826 273.643098 
L 193.527237 268.292576 
L 193.661725 269.599147 
L 193.930701 266.768999 
L 194.199678 250.90568 
L 194.468654 174.834841 
L 194.603142 167.924156 
L 194.73763 151.388094 
L 194.872119 150.950912 
L 195.006607 143.403274 
L 195.275583 157.170346 
L 195.410072 151.125813 
L 195.679048 179.997734 
L 195.948024 242.293151 
L 196.082513 266.263343 
L 196.217001 266.366891 
L 196.351489 265.412982 
L 196.485977 269.638649 
L 196.620465 280.402089 
L 196.889442 271.352979 
L 197.02393 269.964431 
L 197.158418 270.367307 
L 197.292907 265.164374 
L 197.427395 252.370101 
L 197.696371 177.425617 
L 197.830859 193.138191 
L 197.965348 188.630944 
L 198.099836 195.099622 
L 198.234324 193.112832 
L 198.368812 203.431594 
L 198.637789 194.6665 
L 198.906765 218.93332 
L 199.31023 277.973168 
L 199.579206 279.407804 
L 199.713694 280.517624 
L 199.848183 283.762578 
L 199.982671 280.654189 
L 200.117159 281.811222 
L 200.251647 281.852582 
L 200.386135 278.857739 
L 200.520624 270.26109 
L 200.655112 272.281805 
L 200.7896 248.965612 
L 200.924088 179.063243 
L 201.058576 206.98587 
L 201.193065 192.314372 
L 201.327553 196.494657 
L 201.462041 193.167288 
L 201.596529 200.875328 
L 201.731018 191.552983 
L 201.999994 206.066997 
L 202.537947 273.776605 
L 202.672435 272.2808 
L 202.806923 273.213837 
L 202.941411 277.689717 
L 203.0759 268.741389 
L 203.210388 267.969796 
L 203.344876 273.445495 
L 203.479364 270.863653 
L 203.882829 257.881214 
L 204.017317 231.726052 
L 204.151805 182.363121 
L 204.55527 164.764519 
L 204.689758 164.828867 
L 204.824246 172.637569 
L 204.958735 169.156455 
L 205.093223 192.344703 
L 205.227711 194.407193 
L 205.765664 264.409689 
L 205.900152 266.304782 
L 206.03464 264.532387 
L 206.169129 272.283314 
L 206.303617 290.447208 
L 206.438105 282.6327 
L 206.707081 285.987681 
L 206.976058 284.077085 
L 207.379522 259.490452 
L 207.648499 266.883988 
L 207.917475 277.654677 
L 208.051964 278.618338 
L 208.186452 276.931973 
L 208.455428 270.146368 
L 208.589916 273.008528 
L 208.724405 273.069438 
L 208.858893 281.065044 
L 208.993381 282.004817 
L 209.127869 284.832727 
L 209.262357 282.857656 
L 209.396846 283.206789 
L 209.531334 273.862448 
L 209.665822 277.244789 
L 209.934799 273.143761 
L 210.069287 273.570069 
L 210.203775 252.628241 
L 210.338263 251.904161 
L 210.60724 162.478679 
L 210.741728 154.218454 
L 211.010704 124.571469 
L 211.145192 109.856882 
L 211.548657 154.177986 
L 211.683145 169.077872 
L 212.221098 262.352845 
L 212.355586 262.248921 
L 212.490075 261.770402 
L 212.759051 274.007307 
L 212.893539 276.019219 
L 213.162516 270.562399 
L 213.297004 273.903366 
L 213.56598 239.515027 
L 213.834957 131.835386 
L 213.969445 129.919209 
L 214.103933 138.862271 
L 214.238421 135.991403 
L 214.37291 139.292678 
L 214.641886 167.378315 
L 215.179839 231.002322 
L 215.448815 269.656998 
L 215.583303 265.338359 
L 215.85228 271.529688 
L 216.121256 273.097777 
L 216.255745 270.52048 
L 216.390233 270.296615 
L 216.524721 272.437989 
L 216.793697 247.273561 
L 217.062674 144.353394 
L 217.197162 139.664674 
L 217.466138 146.731491 
L 217.600627 161.014444 
L 217.735115 160.355129 
L 217.869603 149.5095 
L 218.004091 164.329456 
L 218.273068 212.017571 
L 218.407556 221.553002 
L 218.676532 266.413039 
L 218.945509 276.199078 
L 219.079997 266.923449 
L 219.214485 272.985152 
L 219.483462 275.012088 
L 219.752438 277.080693 
L 220.021414 248.529041 
L 220.290391 141.255995 
L 220.424879 154.880092 
L 220.693856 151.15306 
L 220.828344 149.542615 
L 220.962832 164.327618 
L 221.09732 160.400774 
L 221.366297 199.951697 
L 221.635273 221.914029 
L 221.904249 266.351534 
L 222.711179 280.570924 
L 222.845667 280.300183 
L 222.980155 281.559941 
L 223.114643 277.862264 
L 223.249132 281.404348 
L 223.518108 251.837219 
L 223.652596 266.324192 
L 223.787084 266.581035 
L 224.056061 260.299909 
L 224.325037 259.987557 
L 224.459525 263.118296 
L 224.594014 262.434235 
L 224.86299 259.400909 
L 225.131967 265.820189 
L 225.266455 265.880614 
L 225.400943 262.898915 
L 225.535431 268.589349 
L 225.669919 267.138332 
L 225.804408 263.503363 
L 225.938896 267.324751 
L 226.073384 267.630929 
L 226.207872 271.255852 
L 226.34236 271.192676 
L 226.476849 273.363586 
L 226.611337 273.330387 
L 226.745825 272.892566 
L 226.880313 270.354987 
L 227.14929 275.950931 
L 227.283778 276.767015 
L 227.418266 274.433692 
L 227.552754 277.192172 
L 227.687243 277.153844 
L 227.821731 276.888898 
L 227.956219 275.651851 
L 228.090707 275.696481 
L 228.225195 282.229967 
L 228.62866 276.676176 
L 228.763148 281.803459 
L 228.897637 281.110439 
L 229.032125 276.780823 
L 229.166613 277.070123 
L 229.301101 276.53297 
L 229.435589 274.779992 
L 229.570078 260.733736 
L 229.704566 234.045837 
L 229.973542 131.31262 
L 230.242519 97.161861 
L 230.511495 85.200938 
L 230.645983 122.633799 
L 230.780471 117.0641 
L 230.91496 126.954834 
L 231.183936 173.61613 
L 231.587401 258.768318 
L 232.125354 273.848003 
L 232.259842 272.316342 
L 232.528818 274.760919 
L 232.663306 270.108104 
L 232.932283 237.319396 
L 233.201259 136.704064 
L 233.470236 124.127129 
L 233.604724 136.403403 
L 233.739212 135.871596 
L 233.8737 150.828551 
L 234.008189 136.557115 
L 234.142677 151.089565 
L 234.68063 253.547507 
L 234.815118 269.869797 
L 234.949606 270.74509 
L 235.084094 267.499287 
L 235.218583 277.125745 
L 235.353071 275.24876 
L 235.622047 282.134327 
L 235.891024 274.896685 
L 236.16 250.158565 
L 236.428976 134.663099 
L 236.563465 125.218934 
L 236.697953 128.87051 
L 236.832441 123.582567 
L 236.966929 113.814264 
L 237.101417 128.797588 
L 237.235906 156.902215 
L 237.370394 159.378475 
L 237.504882 175.904325 
L 237.908347 258.252538 
L 238.042835 269.730992 
L 238.177323 270.78667 
L 238.311811 269.724473 
L 238.4463 275.560334 
L 238.580788 275.216253 
L 238.715276 277.087201 
L 238.984252 284.792107 
L 239.253229 271.770275 
L 239.387717 244.106347 
L 239.656694 141.914236 
L 239.92567 124.652999 
L 240.060158 133.457496 
L 240.194646 134.612461 
L 240.732599 189.146103 
L 240.867087 202.078972 
L 241.136064 254.622762 
L 241.40504 264.831357 
L 241.539529 262.986682 
L 241.674017 268.622208 
L 241.808505 265.714544 
L 241.942993 279.962722 
L 242.077481 276.301949 
L 242.21197 285.406406 
L 242.346458 279.543944 
L 242.615434 246.192038 
L 242.884411 141.180949 
L 243.018899 143.205897 
L 243.153387 153.878622 
L 243.287875 152.135392 
L 243.422363 142.136693 
L 243.556852 151.532534 
L 243.69134 150.558649 
L 244.363781 255.230375 
L 244.767246 269.148723 
L 245.17071 277.941214 
L 245.305198 276.508243 
L 245.439687 277.069383 
L 245.708663 273.613407 
L 245.843151 253.732861 
L 245.97764 269.330018 
L 246.112128 264.712921 
L 246.381104 265.532361 
L 246.515592 263.51457 
L 246.650081 264.618281 
L 247.322522 275.915851 
L 247.591498 276.844094 
L 247.725986 276.068807 
L 247.860475 277.938503 
L 247.994963 275.436714 
L 248.129451 280.038122 
L 248.263939 279.901084 
L 248.667404 275.939167 
L 248.801892 277.895644 
L 248.93638 275.750234 
L 249.070868 276.133802 
L 249.205357 274.758653 
L 249.608821 282.583983 
L 249.877798 281.2161 
L 250.012286 281.579631 
L 250.281262 278.155299 
L 250.415751 277.484517 
L 250.684727 275.3953 
L 250.819215 275.846816 
L 251.088192 275.822486 
L 251.22268 273.595962 
L 251.357168 278.984303 
L 251.491656 278.058532 
L 251.626144 289.484434 
L 251.760633 284.055003 
L 251.895121 284.395326 
L 252.029609 282.973753 
L 252.298586 260.196134 
L 252.567562 144.188004 
L 252.70205 138.098293 
L 252.836538 139.954896 
L 252.971027 161.29393 
L 253.105515 157.59466 
L 253.643468 191.83124 
L 254.046932 257.94832 
L 254.853862 288.865587 
L 254.98835 286.236273 
L 255.122838 288.559361 
L 255.257326 287.935542 
L 255.526303 250.220983 
L 255.795279 149.078469 
L 255.929767 168.710834 
L 256.064255 163.291994 
L 256.198744 163.177093 
L 256.333232 156.117307 
L 256.602208 161.124574 
L 256.736697 172.580374 
L 257.140161 229.888098 
L 257.409138 256.337911 
L 257.543626 265.37795 
L 257.678114 263.687313 
L 257.812602 270.235663 
L 257.94709 269.022664 
L 258.081579 282.700242 
L 258.216067 283.702322 
L 258.350555 282.814237 
L 258.485043 280.012096 
L 258.75402 253.160298 
L 259.022996 151.072445 
L 259.157484 167.320731 
L 259.291973 160.482769 
L 259.426461 161.961086 
L 259.560949 148.553953 
L 259.829925 172.984486 
L 259.964414 163.225138 
L 260.636855 257.559051 
L 261.040319 268.12828 
L 261.174808 267.077755 
L 261.309296 273.734599 
L 261.443784 270.935389 
L 261.578272 274.243268 
L 261.847249 264.754712 
L 261.981737 238.64816 
L 262.250713 149.244351 
L 262.385201 165.974863 
L 262.654178 145.523228 
L 262.788666 146.32738 
L 262.923154 155.875761 
L 263.057643 153.972032 
L 263.461107 207.639851 
L 263.99906 256.619047 
L 264.133548 258.513213 
L 264.402525 271.524029 
L 264.537013 263.360243 
L 264.671501 266.517959 
L 265.074966 258.886555 
L 265.209454 241.845531 
L 265.747407 116.739467 
L 265.881895 114.011104 
L 266.016383 102.533521 
L 266.150871 120.500748 
L 266.419848 125.165371 
L 266.554336 136.472821 
L 266.823312 193.572489 
L 267.092289 255.734028 
L 267.361265 259.671632 
L 267.495754 260.291962 
L 267.630242 276.524366 
L 267.76473 269.545046 
L 267.899218 271.0816 
L 268.033706 269.979618 
L 268.302683 277.249399 
L 268.437171 277.050644 
L 268.571659 271.983997 
L 268.840636 278.826008 
L 269.109612 274.180443 
L 269.2441 272.257822 
L 269.378589 272.748741 
L 269.782053 264.298286 
L 269.916541 263.689175 
L 270.05103 261.294905 
L 270.185518 263.063313 
L 270.320006 263.1186 
L 270.454494 263.55883 
L 270.588982 265.777717 
L 270.723471 269.920673 
L 270.857959 284.657723 
L 271.126935 277.24085 
L 271.261424 278.859956 
L 271.5304 277.610109 
L 271.933865 282.390239 
L 272.068353 279.295134 
L 272.202841 283.877855 
L 272.337329 281.120706 
L 272.471817 282.615992 
L 272.740794 279.136931 
L 272.875282 281.772245 
L 273.00977 282.212801 
L 273.144258 280.493282 
L 273.278747 277.156107 
L 273.413235 276.994999 
L 273.547723 277.42839 
L 273.682211 276.826534 
L 273.8167 274.892571 
L 273.951188 277.956636 
L 274.085676 276.628086 
L 274.220164 290.148822 
L 274.354652 287.886572 
L 274.489141 289.827776 
L 274.623629 287.800717 
L 274.892605 262.196452 
L 275.161582 188.601198 
L 275.430558 155.328299 
L 275.565046 154.290786 
L 275.699535 148.444437 
L 275.834023 155.362568 
L 276.102999 186.866158 
L 276.909928 271.704055 
L 277.044417 272.349399 
L 277.178905 278.466568 
L 277.313393 275.605947 
L 277.447881 284.139623 
L 277.58237 281.837346 
L 277.716858 286.135941 
L 277.851346 284.335797 
L 277.985834 278.298321 
L 278.120322 265.063059 
L 278.389299 209.439176 
L 278.523787 205.881872 
L 278.658275 187.866887 
L 278.792763 192.532725 
L 278.927252 183.256878 
L 279.06174 199.94048 
L 279.196228 195.716908 
L 279.465204 215.31864 
L 280.003157 270.226677 
L 280.272134 275.351411 
L 280.406622 280.361888 
L 280.54111 266.627572 
L 280.675598 268.826222 
L 280.810087 269.108514 
L 281.079063 266.137029 
L 281.213551 252.800789 
L 281.348039 252.364224 
L 281.617016 137.176977 
L 281.751504 143.081051 
L 281.885992 124.146103 
L 282.289457 147.738278 
L 282.423945 126.482795 
L 282.692922 154.287093 
L 283.230874 266.964267 
L 283.365363 266.500309 
L 283.499851 265.085722 
L 283.634339 270.283183 
L 283.903316 263.581595 
L 284.037804 261.471157 
L 284.172292 261.595515 
L 284.30678 258.798591 
L 284.575757 245.962423 
L 284.844733 166.051751 
L 284.979221 155.492332 
L 285.113709 155.997797 
L 285.248198 138.850469 
L 285.382686 141.313739 
L 285.517174 136.451663 
L 285.651662 154.486116 
L 285.78615 155.287234 
L 285.920639 164.490202 
L 286.458592 263.54765 
L 286.59308 263.269258 
L 286.862056 266.650475 
L 286.996544 291.06756 
L 287.265521 278.286853 
L 287.400009 278.932764 
L 287.937962 266.389481 
L 288.206938 276.871477 
L 288.341427 276.634466 
L 288.475915 276.466555 
L 288.610403 273.731691 
L 288.744891 273.699533 
L 288.879379 272.351454 
L 289.148356 277.960809 
L 289.282844 274.005715 
L 289.417332 282.623136 
L 289.55182 284.012947 
L 289.686309 284.203982 
L 290.224262 277.996301 
L 290.35875 280.517106 
L 290.493238 278.264085 
L 290.627726 279.725685 
L 290.762214 276.396012 
L 290.896703 267.520689 
L 291.031191 266.566523 
L 291.165679 246.924074 
L 291.300167 185.361262 
L 291.434655 180.400046 
L 291.569144 179.897431 
L 291.83812 189.942101 
L 292.107096 176.41538 
L 292.241585 185.167343 
L 292.914026 269.830067 
L 293.048514 269.132616 
L 293.183002 270.739442 
L 293.31749 274.499528 
L 293.451979 271.958369 
L 293.586467 272.251805 
L 293.720955 269.560195 
L 293.855443 272.669106 
L 293.989931 271.308376 
L 294.393396 233.017663 
L 294.527884 184.920467 
L 294.662373 178.503685 
L 294.931349 152.274349 
L 295.065837 138.601935 
L 295.200325 138.193236 
L 295.469302 152.200801 
L 295.738278 201.9983 
L 296.007255 245.399391 
L 296.141743 265.777397 
L 296.410719 259.844038 
L 296.679696 289.98453 
L 296.814184 283.347924 
L 296.948672 283.971656 
L 297.08316 283.679281 
L 297.352137 284.160654 
L 297.621113 277.398272 
L 297.89009 284.920199 
L 298.159066 273.318755 
L 298.293554 274.949423 
L 298.428042 274.283037 
L 298.562531 272.949672 
L 298.697019 272.939598 
L 299.36946 283.020166 
L 299.503948 282.375808 
L 299.638436 279.616421 
L 299.772925 282.412199 
L 299.907413 267.371802 
L 300.041901 275.855036 
L 300.176389 272.012073 
L 300.310877 272.129705 
L 300.445366 269.67595 
L 300.714342 245.571388 
L 300.983319 167.331559 
L 301.386783 127.42485 
L 301.521271 128.095454 
L 301.65576 142.041791 
L 301.790248 137.156111 
L 302.328201 218.328245 
L 302.597177 257.655169 
L 302.731665 262.232939 
L 302.866153 260.550858 
L 303.000642 271.456068 
L 303.13513 272.568928 
L 303.404106 266.749885 
L 303.538595 268.709607 
L 303.673083 266.18763 
L 304.211036 160.511375 
L 304.345524 166.977932 
L 304.6145 155.710539 
L 304.748988 153.160606 
L 304.883477 162.449596 
L 305.017965 155.933816 
L 305.286941 190.992067 
L 305.690406 246.851351 
L 305.959382 267.711392 
L 306.093871 265.651659 
L 306.228359 270.673202 
L 306.362847 269.498929 
L 306.497335 280.422143 
L 306.766312 276.474445 
L 306.9008 275.441227 
L 307.035288 265.261621 
L 307.169776 241.659174 
L 307.438753 150.263764 
L 307.573241 169.43812 
L 307.976706 157.786608 
L 308.111194 163.350958 
L 308.245682 155.7794 
L 308.38017 165.187957 
L 308.918123 248.575299 
L 309.187099 270.289841 
L 309.321588 270.454557 
L 309.456076 276.931926 
L 309.590564 276.631831 
L 309.725052 278.863143 
L 309.859541 276.71262 
L 309.994029 277.232511 
L 310.128517 275.052178 
L 310.263005 266.265623 
L 310.397493 237.667989 
L 310.66647 150.274651 
L 310.800958 163.563684 
L 311.069934 167.347217 
L 311.204423 159.683364 
L 311.338911 162.828843 
L 311.473399 161.68693 
L 311.607887 162.403708 
L 312.14584 250.173656 
L 312.414817 264.097012 
L 312.549305 265.128225 
L 312.683793 273.515916 
L 312.952769 275.838244 
L 313.087258 273.070376 
L 313.221746 274.960236 
L 313.356234 273.113851 
L 313.490722 274.612766 
L 313.759699 254.546802 
L 313.894187 249.833143 
L 314.028675 259.954736 
L 314.163163 258.297361 
L 314.297652 260.524352 
L 314.43214 258.291163 
L 314.701116 265.882811 
L 314.835604 267.119795 
L 315.104581 273.213963 
L 315.373557 271.803994 
L 315.508045 274.521305 
L 315.777022 272.838041 
L 316.045998 275.168256 
L 316.180487 274.251097 
L 316.314975 275.040737 
L 316.449463 272.865911 
L 316.583951 273.924099 
L 316.852928 273.030174 
L 316.987416 272.635834 
L 317.256392 276.499756 
L 317.39088 276.374555 
L 317.525369 277.415453 
L 317.659857 276.147159 
L 317.794345 278.451448 
L 317.928833 275.183545 
L 318.063322 275.204835 
L 318.332298 273.248358 
L 318.466786 271.028362 
L 318.601274 272.394674 
L 318.735763 271.306044 
L 318.870251 272.478394 
L 319.004739 270.836166 
L 319.139227 272.66431 
L 319.273715 271.733125 
L 319.408204 285.527685 
L 319.542692 280.270501 
L 319.811668 278.680974 
L 319.946157 272.120684 
L 320.080645 252.17842 
L 320.349621 148.273182 
L 320.618598 129.749739 
L 321.022062 158.608673 
L 321.15655 164.044024 
L 321.694503 224.845899 
L 321.96348 266.294198 
L 322.097968 268.776916 
L 322.232456 266.607531 
L 322.366944 273.731348 
L 322.501433 272.374503 
L 322.635921 284.498002 
L 322.904897 281.104565 
L 323.039385 279.148553 
L 323.308362 257.986058 
L 323.577338 153.849013 
L 323.846315 170.314067 
L 324.115291 154.376933 
L 324.384268 156.197189 
L 324.518756 164.05391 
L 324.787732 207.583292 
L 324.92222 221.547917 
L 325.191197 263.17092 
L 325.325685 264.611763 
L 325.460173 263.541982 
L 325.594661 272.227694 
L 325.72915 271.736831 
L 325.863638 281.115889 
L 326.132614 281.296914 
L 326.267103 279.181741 
L 326.401591 271.715051 
L 326.536079 250.455948 
L 326.805055 147.515901 
L 327.074032 169.574448 
L 327.343008 160.611053 
L 327.477496 167.212792 
L 327.611985 165.727839 
L 327.746473 168.858114 
L 327.880961 183.275354 
L 328.149937 227.130559 
L 328.418914 258.354112 
L 328.822379 275.501225 
L 328.956867 275.338258 
L 329.091355 286.611699 
L 329.225843 282.340459 
L 329.360331 281.869604 
L 329.49482 278.746672 
L 329.763796 250.506935 
L 330.032772 160.995382 
L 330.167261 167.215368 
L 330.301749 166.899067 
L 330.705214 158.604747 
L 331.108678 195.321125 
L 331.243166 204.502862 
L 331.646631 261.808629 
L 331.781119 265.192271 
L 331.915607 264.984084 
L 332.319072 284.53931 
L 332.45356 281.868178 
L 332.588049 277.988498 
L 332.722537 278.548427 
L 332.991513 248.806167 
L 333.26049 159.435989 
L 333.529466 175.634407 
L 333.663954 166.337988 
L 333.798442 164.889941 
L 333.932931 164.899585 
L 334.067419 168.565014 
L 334.470883 209.964128 
L 334.874348 266.89703 
L 335.143325 271.080325 
L 335.277813 278.98337 
L 335.546789 275.355989 
L 335.815766 273.074948 
L 336.084742 274.347001 
L 336.353718 260.03388 
L 336.488207 261.884618 
L 336.757183 257.983133 
L 336.891671 259.113267 
L 337.02616 258.828073 
L 337.564112 268.795647 
L 337.833089 271.792677 
L 337.967577 271.415634 
L 338.102065 273.795158 
L 338.236553 273.123272 
L 338.371042 271.017878 
L 338.50553 275.458385 
L 338.640018 272.03486 
L 338.774506 272.872201 
L 338.908995 272.467181 
L 339.043483 271.320556 
L 339.312459 271.921383 
L 339.446947 268.694701 
L 339.581436 269.863295 
L 339.850412 274.61342 
L 339.9849 273.938223 
L 340.119388 272.160384 
L 340.253877 274.582783 
L 340.388365 273.579691 
L 340.522853 277.251943 
L 340.657341 275.910657 
L 340.791829 276.546679 
L 341.060806 274.957813 
L 341.195294 271.242007 
L 341.329782 273.861408 
L 341.464271 274.305521 
L 341.598759 272.432465 
L 342.002223 287.389307 
L 342.2712 283.334263 
L 342.405688 283.011751 
L 342.674664 254.148303 
L 342.943641 149.97803 
L 343.078129 145.154644 
L 343.347106 170.841491 
L 343.481594 170.233818 
L 343.75057 176.755599 
L 344.154035 213.505409 
L 344.423011 255.251916 
L 344.691988 263.681548 
L 344.826476 267.841618 
L 344.960964 277.276377 
L 345.095452 277.481848 
L 345.22994 285.3838 
L 345.364429 284.242627 
L 345.498917 284.788566 
L 345.633405 283.192441 
L 345.767893 274.782146 
L 345.902382 255.945973 
L 346.171358 163.135229 
L 346.305846 180.7614 
L 346.440334 174.026733 
L 346.574823 172.946549 
L 346.709311 168.857733 
L 346.843799 169.905243 
L 346.978287 173.14091 
L 347.247264 196.50988 
L 347.650728 252.735793 
L 347.919705 264.44165 
L 348.054193 266.773905 
L 348.188681 275.955327 
L 348.323169 273.50997 
L 348.457658 284.167783 
L 348.592146 281.606467 
L 348.726634 283.618765 
L 348.861122 281.831927 
L 349.130099 250.26071 
L 349.399075 159.963474 
L 349.533563 175.063564 
L 349.668052 165.512603 
L 349.80254 166.862244 
L 349.937028 163.367451 
L 350.206004 170.753202 
L 350.474981 196.391211 
L 350.743957 236.567103 
L 351.012934 262.821927 
L 351.147422 270.149931 
L 351.28191 269.073283 
L 351.416398 276.46966 
L 351.550886 276.802638 
L 351.685375 286.579194 
L 351.819863 281.160396 
L 351.954351 281.665709 
L 352.088839 280.112827 
L 352.223328 275.221778 
L 352.357816 254.875663 
L 352.626792 155.029088 
L 352.76128 175.015575 
L 352.895769 168.567643 
L 353.030257 173.237036 
L 353.164745 166.070329 
L 353.299233 171.422776 
L 353.56821 166.811497 
L 353.702698 169.338501 
L 354.106163 255.325038 
L 354.375139 273.66977 
L 354.509627 271.89741 
L 354.778604 281.056188 
L 354.913092 282.969299 
L 355.182068 281.3355 
L 355.316556 280.22057 
L 355.451045 273.214873 
L 355.585533 249.484238 
L 355.854509 184.861465 
L 355.988998 185.185945 
L 356.257974 159.333823 
L 356.392462 160.706958 
L 356.661439 165.850001 
L 357.602856 274.84449 
L 357.737344 275.328945 
L 358.006321 283.901993 
L 358.140809 281.650429 
L 358.275297 281.284898 
L 358.409785 281.499511 
L 358.544274 280.735296 
L 358.81325 276.282429 
L 359.082226 258.963301 
L 359.216715 255.180854 
L 359.351203 255.270794 
L 359.485691 257.283726 
L 359.620179 251.571422 
L 359.889156 267.091625 
L 360.023644 266.947165 
L 360.427109 280.711296 
L 360.561597 278.967584 
L 360.696085 278.981914 
L 360.830573 279.35828 
L 360.965061 278.465008 
L 361.09955 282.585319 
L 361.368526 282.391916 
L 361.503014 281.37313 
L 361.637502 282.880576 
L 361.906479 278.636109 
L 362.309944 285.128107 
L 362.444432 279.117838 
L 362.57892 279.969944 
L 362.713408 276.928314 
L 362.982385 283.137488 
L 363.251361 280.548689 
L 363.520337 282.176659 
L 363.789314 279.310448 
L 363.923802 278.915968 
L 364.05829 277.652485 
L 364.192778 281.671337 
L 364.327267 244.380225 
L 364.461755 256.943079 
L 364.596243 255.913278 
L 364.730731 253.934003 
L 364.86522 256.581234 
L 364.999708 250.178615 
L 365.806637 97.979281 
L 365.941125 94.402906 
L 366.210102 116.688902 
L 366.34459 119.938784 
L 366.479078 130.242439 
L 366.613566 154.029859 
L 366.882543 241.603282 
L 367.151519 261.495107 
L 367.286007 261.516326 
L 367.420496 260.862176 
L 367.554984 269.12825 
L 367.689472 268.750635 
L 367.82396 265.973958 
L 367.958448 269.22177 
L 368.092937 269.655783 
L 368.765378 105.413824 
L 368.899866 105.039459 
L 369.034354 102.362629 
L 369.437819 87.120637 
L 369.572307 111.41411 
L 369.706795 113.895536 
L 369.975772 188.101259 
L 370.11026 238.683826 
L 370.244748 241.217861 
L 370.782701 291.9182 
L 370.917189 281.209026 
L 371.051677 280.074501 
L 371.186166 280.430177 
L 371.320654 278.256881 
L 371.58963 245.236922 
L 371.858607 156.819135 
L 371.993095 162.567179 
L 372.262071 206.4219 
L 372.396559 199.316902 
L 372.531048 204.174769 
L 372.800024 198.228214 
L 372.934512 207.563793 
L 373.069001 231.323478 
L 373.203489 233.055529 
L 373.472465 261.230134 
L 373.741442 267.323551 
L 373.87593 273.47169 
L 374.144906 294.321625 
L 374.279394 288.703975 
L 374.413883 290.063652 
L 374.548371 287.377795 
L 374.817347 252.463026 
L 375.086324 196.011164 
L 375.3553 173.904671 
L 375.758765 180.503874 
L 376.162229 205.429774 
L 376.565694 259.410773 
L 376.83467 269.343556 
L 376.969159 268.765376 
L 377.103647 275.198181 
L 377.238135 290.080144 
L 377.372623 280.762988 
L 377.507112 282.580041 
L 377.6416 282.30449 
L 377.776088 276.144881 
L 377.910576 282.403769 
L 378.045064 272.707072 
L 378.179553 273.621154 
L 378.314041 262.598845 
L 378.448529 268.620117 
L 378.583017 261.38538 
L 378.717505 268.393714 
L 378.851994 268.995929 
L 378.986482 277.282533 
L 379.12097 273.854473 
L 379.389947 275.958324 
L 379.524435 274.087458 
L 379.793411 281.137998 
L 380.062388 283.28007 
L 380.196876 281.320737 
L 380.331364 281.237317 
L 380.465852 268.147061 
L 380.60034 272.721906 
L 380.869317 273.749052 
L 381.003805 272.626623 
L 381.138293 255.938364 
L 381.272782 256.377398 
L 381.676246 149.603099 
L 381.945223 139.722821 
L 382.079711 140.433049 
L 382.348687 147.992364 
L 382.483175 144.493588 
L 383.155616 269.023505 
L 383.290105 271.193185 
L 383.424593 268.96052 
L 383.559081 273.622304 
L 383.693569 265.808598 
L 383.828058 265.583784 
L 384.097034 263.93945 
L 384.231522 264.148708 
L 384.36601 258.504832 
L 384.500499 260.798255 
L 384.769475 174.351513 
L 384.903963 166.5436 
L 385.038451 165.846467 
L 385.17294 147.404857 
L 385.307428 150.509616 
L 385.441916 172.651949 
L 385.576404 173.720609 
L 385.710893 177.619305 
L 385.845381 208.216418 
L 385.979869 213.262945 
L 386.383334 268.477805 
L 386.517822 268.240871 
L 386.786798 275.012036 
L 386.921286 284.816138 
L 387.190263 278.256034 
L 387.324751 280.241081 
L 387.728216 269.635302 
L 387.862704 270.660251 
L 388.13168 281.705019 
L 388.535145 286.579721 
L 388.669633 283.243923 
L 388.804121 283.94079 
L 388.93861 290.659346 
L 389.073098 284.612861 
L 389.342074 287.31351 
L 389.611051 293.480089 
L 389.880027 288.475167 
L 390.014515 287.093483 
L 390.149004 265.278743 
L 390.283492 272.280855 
L 390.686956 267.232404 
L 391.090421 233.887112 
L 391.224909 185.693312 
L 391.359397 184.450991 
L 391.493886 157.894996 
L 391.628374 158.642616 
L 392.031839 182.860993 
L 392.166327 178.628171 
L 392.435303 203.016882 
L 392.838768 278.366941 
L 393.107744 274.652105 
L 393.242232 276.772376 
L 393.376721 266.635416 
L 393.511209 266.032249 
L 393.645697 272.343314 
L 393.780185 270.117968 
L 393.914673 261.668756 
L 394.049162 263.482218 
L 394.587115 155.042911 
L 394.721603 155.470621 
L 394.856091 140.011706 
L 395.259556 148.132023 
L 396.066485 260.332663 
L 396.200973 264.158927 
L 396.335461 264.331947 
L 396.46995 261.138261 
L 396.604438 295.347921 
L 396.738926 283.266755 
L 396.873414 284.31044 
L 397.007902 283.719479 
L 397.142391 284.833023 
L 397.411367 250.36127 
L 397.680343 173.98545 
L 397.814832 179.768904 
L 398.083808 163.818135 
L 398.218296 156.7049 
L 398.352785 169.251242 
L 398.487273 166.970483 
L 398.487273 166.970483 
" clip-path="url(#p7382290164)" style="fill: none; stroke: #ff7f0e; stroke-width: 1.5; stroke-linecap: square"/>
   </g>
   <g id="patch_3">
    <path d="M 57.6 307.584 
L 57.6 41.472 
" style="fill: none; stroke: #000000; stroke-width: 0.8; stroke-linejoin: miter; stroke-linecap: square"/>
   </g>
   <g id="patch_4">
    <path d="M 414.72 307.584 
L 414.72 41.472 
" style="fill: none; stroke: #000000; stroke-width: 0.8; stroke-linejoin: miter; stroke-linecap: square"/>
   </g>
   <g id="patch_5">
    <path d="M 57.6 307.584 
L 414.72 307.584 
" style="fill: none; stroke: #000000; stroke-width: 0.8; stroke-linejoin: miter; stroke-linecap: square"/>
   </g>
   <g id="patch_6">
    <path d="M 57.6 41.472 
L 414.72 41.472 
" style="fill: none; stroke: #000000; stroke-width: 0.8; stroke-linejoin: miter; stroke-linecap: square"/>
   </g>
  </g>
 </g>
 <defs>
  <clipPath id="p7382290164">
   <rect x="57.6" y="41.472" width="357.12" height="266.112"/>
  </clipPath>
 </defs>
</svg>
